# Blender 5.1.0
# www.blender.org
mtllib Montana_deckhouse_A2_001_4_Iowa_Deckhouse_A2_001_3.mtl
o Montana_deckhouse_A2_001_4_Iowa_Deckhouse_A2_001_3.001
v -3.556971 10.000200 11.466746
v -8.988590 2.923734 7.534053
v -8.988590 2.923734 9.048610
v -8.347540 2.923734 9.048549
v -8.347540 2.923730 16.225624
v -13.110396 2.923729 16.225628
v -2.877386 10.000170 22.499771
v -2.877358 10.000095 16.843307
v -2.877329 10.000022 14.190272
v 3.556971 10.000200 11.466746
v 8.988590 2.923734 7.534053
v 8.988590 2.923734 9.048610
v 8.347540 2.923734 9.048549
v 0.000000 9.999997 14.190333
v 0.000000 9.999995 20.845129
v -1.438702 10.000046 20.845072
v -2.877329 10.000022 14.190272
v -2.877386 10.000170 22.499771
v -1.438716 10.000084 22.499855
v -3.540304 10.000050 16.843296
v -3.540276 9.999977 14.190261
v -2.877358 10.000095 16.843307
v 8.347540 2.923730 16.225624
v 0.000000 9.995207 4.190281
v 13.110396 2.923729 16.225628
v 2.877386 10.000170 22.499771
v 0.000000 9.995208 -1.876858
v 2.877358 10.000095 16.843307
v -2.877028 9.995208 -1.876858
v -2.877267 9.998489 3.377117
v -2.877207 9.998908 4.190212
v -2.282603 9.995209 -8.287868
v 0.000000 9.995208 -8.689602
v 2.877329 10.000022 14.190272
v -1.880731 9.995208 -8.689602
v -2.168326 9.995208 -8.575344
v 1.438702 10.000046 20.845072
v 2.877329 10.000022 14.190272
v 2.877386 10.000170 22.499771
v 1.438716 10.000084 22.499855
v 3.540304 10.000050 16.843296
v 3.540276 9.999977 14.190261
v 2.877358 10.000095 16.843307
v 2.877028 9.995208 -1.876858
v 2.877267 9.998489 3.377117
v 0.000000 7.998969 4.190281
v 2.877207 9.998908 4.190212
v 0.000000 7.997781 14.190333
v -2.877043 7.998824 5.401867
v -2.877028 7.998969 4.190281
v 2.282603 9.995209 -8.287868
v -2.877134 7.997916 12.978717
v -2.877149 7.997771 14.190303
v -4.640317 7.997727 12.978690
v -4.640226 7.998634 5.401844
v 1.880731 9.995208 -8.689602
v 0.000000 7.995318 20.845129
v 2.168326 9.995208 -8.575344
v 0.000000 7.995395 22.499939
v -1.438716 7.995400 22.499855
v -1.438702 7.995368 20.845072
v -16.537518 2.923729 16.225628
v -9.879779 2.923734 9.048610
v -9.879779 2.923734 7.534053
v -16.537518 2.923734 9.048610
v -17.049067 2.923729 16.055111
v -17.219582 2.923733 9.730670
v -17.049067 2.923735 9.219127
v -17.219582 2.923730 15.543563
v -2.877121 7.998749 -1.779316
v -3.865319 7.997958 1.318462
v -3.865326 7.999435 -1.779324
v -2.877216 7.997095 3.377010
v -3.965313 7.997456 3.377018
v -3.965325 7.998509 1.318523
v -5.229120 10.000117 10.692500
v -2.993804 10.000163 11.466838
v -5.229119 10.000138 11.466807
v -3.965261 10.000114 4.859402
v -5.868466 10.000035 7.775996
v -6.534145 10.000037 10.692515
v -7.733676 10.000036 10.114894
v -8.563740 10.000034 9.074031
v -8.860011 10.000037 7.776027
v -8.563766 10.000035 6.478024
v -7.733671 10.000031 5.437069
v -6.534144 10.000032 4.859447
v -2.993782 10.000120 3.376965
v -3.965262 10.000094 4.759487
v -3.965262 10.000094 3.376842
v -5.136770 10.000203 11.466762
v -3.556967 10.000204 22.499878
v -5.136753 10.000207 22.499664
v -2.993825 12.015677 11.466632
v -4.640300 12.015668 11.566661
v -4.640300 12.015674 11.466617
v -2.993802 12.015670 17.399666
v -4.640299 12.015663 17.399731
v -5.868466 12.015665 14.483184
v -6.534144 12.015663 17.399736
v -6.534145 12.015668 11.566661
v -7.733671 12.015661 16.822117
v -7.733676 12.015668 12.144294
v -8.563766 12.015666 15.781157
v -8.563740 12.015666 13.185157
v -8.860011 12.015667 14.483157
v -6.792078 7.995262 9.148547
v -7.733486 7.995260 15.184291
v -7.733497 7.995262 10.089969
v -5.229153 7.995261 9.048549
v -6.833499 7.995262 9.048549
v -5.229138 7.995260 16.225712
v -6.792064 7.995260 16.125711
v -6.833485 7.995260 16.225712
v 2.877043 7.998824 5.401867
v 2.877028 7.998969 4.190281
v 2.877134 7.997916 12.978717
v 0.000000 12.010916 -4.543354
v 0.000000 12.010942 -2.005177
v -2.829037 12.010922 -2.005169
v -1.686845 12.010916 -4.543354
v -2.828175 12.010904 -4.212223
v -3.474385 12.010903 -2.651646
v -3.474553 12.010904 -3.565678
v 2.877149 7.997771 14.190303
v 4.640317 7.997727 12.978690
v 4.640226 7.998634 5.401844
v -0.417849 11.999958 3.193302
v -1.391919 11.999955 1.149624
v -1.391915 11.999958 3.193310
v -0.417849 11.999958 3.280056
v -0.417903 11.999958 3.280056
v -0.417903 11.999958 4.190212
v -0.417903 11.999958 3.280056
v 1.438716 7.995400 22.499855
v -1.010072 12.072104 -5.755459
v 1.438702 7.995368 20.845072
v 16.537518 2.923729 16.225628
v -1.010065 12.072098 -8.498943
v 9.879779 2.923734 9.048610
v -0.583583 12.072098 -8.925419
v 0.000000 12.072098 -9.067310
v 9.879779 2.923734 7.534053
v 16.537518 2.923734 9.048610
v 17.049067 2.923729 16.055111
v 17.219582 2.923733 9.730670
v 17.049067 2.923735 9.219127
v 17.219582 2.923730 15.543563
v 2.877121 7.998749 -1.779316
v 3.865319 7.997958 1.318462
v 3.865326 7.999435 -1.779324
v 2.877216 7.997095 3.377010
v 3.965313 7.997456 3.377018
v 3.965325 7.998509 1.318523
v 5.229120 10.000117 10.692500
v 2.993804 10.000163 11.466838
v 5.229119 10.000138 11.466807
v 3.965261 10.000114 4.859402
v -6.560451 5.087251 -6.089283
v -7.759978 5.087249 -6.666904
v -5.894773 5.087253 -9.005833
v -8.590072 5.087255 -7.707859
v -8.886317 5.087255 -9.005863
v -8.590047 5.087253 -10.303860
v -7.759983 5.087255 -11.344723
v -6.579597 5.087255 -11.922352
v -5.229094 5.087251 -6.089283
v -5.894773 5.087253 -9.005833
v -5.229093 5.087255 -11.922352
v -4.029567 5.087249 -6.666904
v -4.029562 5.087255 -11.344723
v -3.199472 5.087255 -7.707859
v -3.199498 5.087253 -10.303860
v -2.903227 5.087255 -9.005863
v 5.868466 10.000035 7.775996
v 0.000000 7.075165 -14.485271
v 0.000000 7.075127 -18.604282
v 6.534145 10.000037 10.692515
v -1.080964 7.075129 -18.357555
v 7.733676 10.000036 10.114894
v -1.947831 7.075129 -17.666256
v 8.563740 10.000034 9.074031
v -2.428910 7.075129 -16.667286
v 8.860011 10.000037 7.776027
v -2.428910 7.075128 -15.558514
v 8.563766 10.000035 6.478024
v -1.917366 7.075165 -14.485271
v 0.000000 7.075180 -8.689579
v -2.456335 7.075192 -8.689556
v 7.733671 10.000031 5.437069
v 6.534144 10.000032 4.859447
v 2.993782 10.000120 3.376965
v 3.965262 10.000094 4.759487
v 3.965262 10.000094 3.376842
v 5.136770 10.000203 11.466762
v 3.556967 10.000204 22.499878
v 5.136753 10.000207 22.499664
v 2.993825 12.015677 11.466632
v 4.640300 12.015668 11.566661
v 4.640300 12.015674 11.466617
v 2.993802 12.015670 17.399666
v 4.640299 12.015663 17.399731
v 5.868466 12.015665 14.483184
v 6.534144 12.015663 17.399736
v 6.534145 12.015668 11.566661
v 7.733671 12.015661 16.822117
v 7.733676 12.015668 12.144294
v 8.563766 12.015666 15.781157
v 8.563740 12.015666 13.185157
v 8.860011 12.015667 14.483157
v 6.792078 7.995262 9.148547
v 7.733486 7.995260 15.184291
v 7.733497 7.995262 10.089969
v 5.229153 7.995261 9.048549
v 6.833499 7.995262 9.048549
v 5.229138 7.995260 16.225712
v 6.792064 7.995260 16.125711
v 6.833485 7.995260 16.225712
v 2.829037 12.010922 -2.005169
v 1.686845 12.010916 -4.543354
v 2.828175 12.010904 -4.212223
v 3.474385 12.010903 -2.651646
v 3.474553 12.010904 -3.565678
v 0.417849 11.999958 3.193302
v 1.391919 11.999955 1.149624
v 1.391915 11.999958 3.193310
v 0.417849 11.999958 3.280056
v 0.417903 11.999958 3.280056
v 0.417903 11.999958 4.190212
v 0.417903 11.999958 3.280056
v 1.010072 12.072104 -5.755459
v 1.010065 12.072098 -8.498943
v 0.583583 12.072098 -8.925419
v 6.560451 5.087251 -6.089283
v 7.759978 5.087249 -6.666904
v 5.894773 5.087253 -9.005833
v 8.590072 5.087255 -7.707859
v 8.886317 5.087255 -9.005863
v 8.590047 5.087253 -10.303860
v 7.759983 5.087255 -11.344723
v 6.579597 5.087255 -11.922352
v 5.229094 5.087251 -6.089283
v 5.894773 5.087253 -9.005833
v 0.000000 4.000016 -32.172104
v 5.229093 5.087255 -11.922352
v 4.029567 5.087249 -6.666904
v 4.029562 5.087255 -11.344723
v 3.199472 5.087255 -7.707859
v 3.199498 5.087253 -10.303860
v 2.903227 5.087255 -9.005863
v 0.000000 4.000017 -40.720612
v 1.080964 7.075129 -18.357555
v -2.212515 4.000017 -40.429325
v 1.947831 7.075129 -17.666256
v -4.274252 4.000017 -39.575325
v 0.000000 4.000014 -23.623596
v -6.044705 4.000016 -38.216808
v -2.212511 4.000014 -23.914879
v -7.403222 4.000016 -36.446358
v -4.274247 4.000014 -24.768875
v -8.257220 4.000016 -34.384621
v -6.044703 4.000014 -26.127396
v -8.548505 4.000015 -32.172104
v -7.403220 4.000015 -27.897842
v -8.257219 4.000015 -29.959579
v 2.428910 7.075129 -16.667286
v 2.428910 7.075128 -15.558514
v 1.917366 7.075165 -14.485271
v 2.456335 7.075192 -8.689556
v 2.212515 4.000017 -40.429325
v 4.274252 4.000017 -39.575325
v 6.044705 4.000016 -38.216808
v 2.212511 4.000014 -23.914879
v 7.403222 4.000016 -36.446358
v 4.274247 4.000014 -24.768875
v 8.257220 4.000016 -34.384621
v 6.044703 4.000014 -26.127396
v 8.548505 4.000015 -32.172104
v 7.403220 4.000015 -27.897842
v 8.257219 4.000015 -29.959579
v 9.299419 4.866738 18.399742
v -9.299419 4.866738 18.399742
v -9.340854 4.868339 19.419640
v -9.340851 4.867539 18.708883
v -8.145288 4.868337 19.110405
v -9.340891 4.868339 20.689758
v -9.180676 4.866737 18.111092
v -8.454536 4.868338 20.689758
v -8.990170 4.866737 17.864103
v -7.836040 4.868337 20.689758
v -8.743069 4.866737 17.673492
v -6.949864 4.868335 20.689758
v -8.454535 4.866735 17.554749
v -8.145287 4.866735 17.513313
v -7.836039 4.866734 17.554749
v -7.547507 4.866733 17.673492
v -7.300406 4.866733 17.864105
v -7.109901 4.866732 18.111099
v -6.949826 4.868334 19.419640
v -6.991156 4.866733 18.399742
v -6.949726 4.867534 18.708885
v 0.000000 2.923762 -23.795704
v 9.340854 4.868339 19.419640
v 9.340851 4.867539 18.708883
v -8.537564 2.923774 -32.172138
v 0.000000 2.923773 -17.733845
v -8.989750 2.923773 -9.005825
v -2.080810 2.923773 -17.733776
v 8.145288 4.868337 19.110405
v -1.040406 2.923762 -23.982662
v 9.340891 4.868339 20.689758
v -8.989750 2.923774 -11.424934
v -9.795533 2.923774 -32.172138
v -15.947553 2.923774 -17.162176
v -15.947553 2.923774 -14.907873
v -11.679380 2.923774 -14.474365
v -15.414085 2.923774 -14.474365
v 0.000000 11.999958 3.193302
v 0.000000 11.999958 2.721442
v 0.000000 11.999956 1.149620
v 0.000000 11.999958 3.236679
v -0.000000 11.999958 3.280056
v 0.000000 11.999958 3.280056
v 0.000000 11.999958 3.280056
v 0.000000 11.999958 3.735040
v -0.000000 11.999958 4.190212
v 0.000000 12.072104 -5.755459
v 0.000000 12.072101 -7.127241
v 0.000000 12.072098 -8.498940
v 0.000000 12.072097 -8.769256
v 0.000000 12.072097 -8.925419
v 9.180676 4.866737 18.111092
v 8.454536 4.868338 20.689758
v 8.990170 4.866737 17.864103
v 7.836040 4.868337 20.689758
v 8.743069 4.866737 17.673492
v 6.949864 4.868335 20.689758
v 8.454535 4.866735 17.554749
v 8.145287 4.866735 17.513313
v 7.836039 4.866734 17.554749
v 7.547507 4.866733 17.673492
v 7.300406 4.866733 17.864105
v 7.109901 4.866732 18.111099
v 6.949826 4.868334 19.419640
v 6.991156 4.866733 18.399742
v 6.949726 4.867534 18.708885
v 8.537564 2.923774 -32.172138
v 8.989750 2.923773 -9.005825
v 2.080810 2.923773 -17.733776
v 1.040406 2.923762 -23.982662
v 8.989750 2.923774 -11.424934
v 9.795533 2.923774 -32.172138
v 15.947553 2.923774 -17.162176
v 15.947553 2.923774 -14.907873
v 11.679380 2.923774 -14.474365
v 15.414085 2.923774 -14.474365
vn 0.0080 -1.0000 -0.0000
vn 0.9897 -0.1435 -0.0000
vn 0.0083 -1.0000 0.0001
vn -0.0000 1.0000 -0.0000
vn -0.0001 1.0000 -0.0000
vn 0.6506 0.7594 -0.0001
vn 0.6504 0.7596 -0.0000
vn -0.9897 -0.1435 -0.0000
vn 0.0001 1.0000 -0.0000
vn -0.0013 1.0000 -0.0006
vn -0.0002 1.0000 -0.0001
vn -0.0000 1.0000 -0.0004
vn 0.0002 1.0000 -0.0001
vn 0.0013 1.0000 -0.0006
vn 0.0013 1.0000 -0.0005
vn -0.0013 1.0000 -0.0005
vn -0.0000 1.0000 0.0001
vn 0.0001 1.0000 0.0001
vn -0.0001 1.0000 0.0001
vn 0.0007 1.0000 0.0005
vn 0.0020 1.0000 0.0004
vn 0.0006 1.0000 0.0004
vn 0.0003 1.0000 0.0003
vn 0.0005 1.0000 0.0003
vn 0.0055 1.0000 0.0005
vn -0.0003 1.0000 -0.0002
vn -0.0007 1.0000 0.0005
vn -0.0006 1.0000 0.0004
vn -0.0020 1.0000 0.0004
vn -0.0003 1.0000 0.0003
vn -0.0005 1.0000 0.0003
vn -0.0055 1.0000 0.0005
vn 0.0003 1.0000 -0.0002
vn -0.2225 -0.0000 -0.9749
vn 0.2225 -0.0000 0.9749
vn 0.2225 -0.0000 -0.9749
vn -0.2225 -0.0000 0.9749
vn -0.0000 -1.0000 -0.0000
vn -0.0000 1.0000 -0.0007
vn 0.0005 1.0000 -0.0009
vn -0.0109 0.9999 -0.0011
vn 0.0010 1.0000 -0.0006
vn 0.0008 1.0000 -0.0008
vn 0.0003 1.0000 -0.0010
vn -0.0000 1.0000 -0.0010
vn -0.0003 1.0000 -0.0010
vn -0.0005 1.0000 -0.0009
vn -0.0008 1.0000 -0.0008
vn -0.0010 1.0000 -0.0006
vn 0.0109 0.9999 -0.0011
vn -1.0000 -0.0000 -0.0000
vn -1.0000 -0.0000 0.0001
vn 1.0000 -0.0000 -0.0000
vn 1.0000 -0.0000 -0.0001
vn -1.0000 -0.0000 -0.0001
vn -0.0000 -0.0000 1.0000
vt 0.661234 0.532178
vt 0.698601 0.532179
vt 0.778269 0.532180
vt 0.500000 0.754965
vt 0.479737 0.754964
vt 0.500000 0.661235
vt 0.459473 0.778269
vt 0.459474 0.661234
vt 0.520263 0.754964
vt 0.540526 0.661234
vt 0.540527 0.778269
vt 0.520264 0.778271
vt 0.549863 0.661234
vt 0.549863 0.698601
vt 0.540526 0.698601
vt 0.479736 0.778271
vt 0.459474 0.698601
vt 0.450137 0.698601
vt 0.450137 0.661234
vt 0.459475 0.508936
vt 0.459478 0.434937
vt 0.500000 0.520389
vt 0.500000 0.434937
vt 0.540522 0.434937
vt 0.540525 0.508936
vt 0.540524 0.520388
vt 0.532149 0.344641
vt 0.500000 0.338983
vt 0.459476 0.520388
vt 0.467851 0.344641
vt 0.526489 0.338983
vt 0.530540 0.340592
vt 0.473511 0.338983
vt 0.469460 0.340592
vt 0.459478 0.537454
vt 0.404337 0.590224
vt 0.403754 0.588816
vt 0.426350 0.588816
vt 0.391078 0.675235
vt 0.391078 0.603483
vt 0.459477 0.644170
vt 0.459477 0.661235
vt 0.540522 0.537454
vt 0.540522 0.520389
vt 0.434643 0.644170
vt 0.434645 0.537454
vt 0.540523 0.644170
vt 0.540523 0.661235
vt 0.565357 0.644170
vt 0.565355 0.537454
vt 0.500000 0.778272
vt 0.617571 0.588816
vt 0.626600 0.588816
vt 0.617571 0.689901
vt 0.684653 0.689901
vt 0.732923 0.689901
vt 0.639152 0.588816
vt 0.639152 0.567485
vt 0.626600 0.567485
vt 0.732923 0.588816
vt 0.740128 0.687500
vt 0.742529 0.598423
vt 0.740128 0.591218
vt 0.742529 0.680295
vt 0.554441 0.436310
vt 0.554441 0.479941
vt 0.540523 0.436310
vt 0.540524 0.508935
vt 0.555849 0.508935
vt 0.555850 0.479942
vt 0.573650 0.622876
vt 0.542166 0.622876
vt 0.573650 0.611970
vt 0.555849 0.529814
vt 0.582654 0.570892
vt 0.592030 0.611970
vt 0.608925 0.603835
vt 0.620616 0.589175
vt 0.624789 0.570893
vt 0.620616 0.552611
vt 0.608925 0.537950
vt 0.592030 0.529814
vt 0.542166 0.508934
vt 0.555849 0.528406
vt 0.555849 0.508932
vt 0.550098 0.622875
vt 0.572349 0.622875
vt 0.550098 0.778271
vt 0.572349 0.778268
vt 0.565356 0.622873
vt 0.565356 0.624282
vt 0.542167 0.622873
vt 0.542166 0.706437
vt 0.565356 0.706438
vt 0.582654 0.665360
vt 0.592030 0.706438
vt 0.592030 0.624282
vt 0.608925 0.698303
vt 0.608925 0.632418
vt 0.620616 0.683641
vt 0.620616 0.647078
vt 0.624789 0.665359
vt 0.608922 0.603483
vt 0.608922 0.675235
vt 0.595663 0.590224
vt 0.573650 0.588816
vt 0.596246 0.588816
vt 0.573650 0.689902
vt 0.595663 0.688494
vt 0.596246 0.689902
vt 0.382429 0.588816
vt 0.382429 0.689901
vt 0.373400 0.588816
vt 0.315347 0.689901
vt 0.267077 0.689901
vt 0.360848 0.588816
vt 0.360848 0.567485
vt 0.500000 0.433129
vt 0.500000 0.397380
vt 0.539846 0.433129
vt 0.523758 0.397380
vt 0.539833 0.402044
vt 0.548935 0.424024
vt 0.548937 0.411150
vt 0.259872 0.687500
vt 0.267077 0.588816
vt 0.500000 0.506347
vt 0.500000 0.499701
vt 0.505885 0.506347
vt 0.373400 0.567485
vt 0.519604 0.506347
vt 0.519605 0.477563
vt 0.445559 0.436310
vt 0.459477 0.436310
vt 0.445559 0.479941
vt 0.459476 0.508935
vt 0.257471 0.680295
vt 0.257471 0.598423
vt 0.259872 0.591218
vt 0.500000 0.520388
vt 0.500000 0.513977
vt 0.505886 0.520388
vt 0.500000 0.380308
vt 0.500000 0.360988
vt 0.514226 0.380308
vt 0.444151 0.508935
vt 0.444150 0.479942
vt 0.500000 0.341668
vt 0.500000 0.337861
vt 0.514226 0.341668
vt 0.426350 0.611970
vt 0.417346 0.570892
vt 0.444151 0.529814
vt 0.500000 0.333663
vt 0.508219 0.335661
vt 0.500000 0.335661
vt 0.407970 0.611970
vt 0.391075 0.603835
vt 0.379384 0.589175
vt 0.375211 0.570893
vt 0.379384 0.552611
vt 0.391075 0.537950
vt 0.407970 0.529814
vt 0.457834 0.622876
vt 0.457834 0.508934
vt 0.444151 0.508932
vt 0.444151 0.528406
vt 0.449902 0.622875
vt 0.449902 0.778271
vt 0.427651 0.622875
vt 0.427651 0.778268
vt 0.434644 0.622873
vt 0.457833 0.622873
vt 0.434644 0.624282
vt 0.457834 0.706437
vt 0.434644 0.706438
vt 0.417346 0.665360
vt 0.583025 0.334529
vt 0.609295 0.367471
vt 0.592401 0.375607
vt 0.620987 0.352810
vt 0.625159 0.334528
vt 0.620987 0.316247
vt 0.609296 0.301586
vt 0.592670 0.293451
vt 0.573649 0.375607
vt 0.573649 0.293451
vt 0.556754 0.367471
vt 0.556754 0.301586
vt 0.545063 0.352810
vt 0.545063 0.316247
vt 0.540891 0.334528
vt 0.407970 0.706438
vt 0.407970 0.624282
vt 0.500000 0.257353
vt 0.500000 0.199339
vt 0.515225 0.202814
vt 0.391075 0.698303
vt 0.527434 0.212551
vt 0.391075 0.632418
vt 0.534210 0.226621
vt 0.379384 0.683641
vt 0.534210 0.242237
vt 0.375211 0.665359
vt 0.527005 0.257353
vt 0.379384 0.647078
vt 0.534596 0.338983
vt 0.500000 0.338983
vt 0.426350 0.689902
vt 0.459478 0.520389
vt 0.404337 0.688494
vt 0.403754 0.689902
vt 0.476242 0.397380
vt 0.460154 0.433129
vt 0.460167 0.402044
vt 0.451065 0.424024
vt 0.451063 0.411150
vt 0.494115 0.506347
vt 0.480396 0.506347
vt 0.480395 0.477563
vt 0.494114 0.520388
vt 0.485774 0.380308
vt 0.485774 0.341668
vt 0.491781 0.335661
vt 0.416975 0.334529
vt 0.407599 0.375607
vt 0.390705 0.367471
vt 0.379013 0.352810
vt 0.374841 0.334528
vt 0.379013 0.316247
vt 0.390704 0.301586
vt 0.426351 0.375607
vt 0.407330 0.293451
vt 0.426351 0.293451
vt 0.443246 0.367471
vt 0.443246 0.301586
vt 0.454937 0.352810
vt 0.454937 0.316247
vt 0.459109 0.334528
vt 0.484775 0.202814
vt 0.472566 0.212551
vt 0.465790 0.226621
vt 0.465790 0.242237
vt 0.472995 0.257353
vt 0.465404 0.338983
vt 0.500000 0.008243
vt 0.468838 -0.108056
vt 0.500000 -0.112158
vt 0.439799 -0.096028
vt 0.414863 -0.076894
vt 0.500000 0.128645
vt 0.468838 0.124542
vt 0.395729 -0.051958
vt 0.439799 0.112514
vt 0.383701 -0.022919
vt 0.414863 0.093380
vt 0.379599 0.008243
vt 0.395729 0.068444
vt 0.383701 0.039405
vt 0.470693 0.211600
vt 0.275387 0.251401
vt 0.362035 0.008243
vt 0.385278 0.730532
vt 0.368439 0.734887
vt 0.369022 0.720523
vt 0.368438 0.752776
vt 0.368439 0.724877
vt 0.370695 0.716457
vt 0.531162 -0.108056
vt 0.373378 0.712978
vt 0.560201 -0.096028
vt 0.380922 0.752776
vt 0.585137 -0.076894
vt 0.531162 0.124542
vt 0.604271 -0.051958
vt 0.560201 0.112514
vt 0.616299 -0.022919
vt 0.585137 0.093380
vt 0.620402 0.008243
vt 0.604271 0.068444
vt 0.616299 0.039405
vt 0.637965 0.008243
vt 0.724613 0.251401
vt 0.529307 0.211600
vt 0.389633 0.752776
vt 0.376858 0.710294
vt 0.402115 0.752776
vt 0.380922 0.708621
vt 0.385278 0.708038
vt 0.389633 0.708621
vt 0.393697 0.710294
vt 0.397177 0.712978
vt 0.399861 0.716457
vt 0.402115 0.734887
vt 0.401533 0.720523
vt 0.402117 0.724877
vt 0.494114 0.507569
vt 0.494115 0.507569
vt 0.500000 0.506958
vt 0.500000 0.507569
vt 0.631561 0.724877
vt 0.631561 0.734887
vt 0.630978 0.720523
vt 0.614722 0.730532
vt 0.631562 0.752776
vt 0.629305 0.716457
vt 0.619078 0.752776
vt 0.626622 0.712978
vt 0.610367 0.752776
vt 0.623142 0.710294
vt 0.597885 0.752776
vt 0.619078 0.708621
vt 0.614722 0.708038
vt 0.610367 0.708621
vt 0.606303 0.710294
vt 0.602823 0.712978
vt 0.600139 0.716457
vt 0.597885 0.734887
vt 0.598467 0.720523
vt 0.597883 0.724877
vt 0.426350 0.622876
vt 0.505886 0.507569
vt 0.505885 0.507569
vt 0.500000 0.477563
vt 0.500000 0.126221
vt 0.500000 0.211599
vt 0.373384 0.334529
vt 0.373384 0.300457
vt 0.335502 0.257507
vt 0.282900 0.257507
vt 0.485346 0.123587
vt 0.379753 0.008243
vt 0.275387 0.219650
vt 0.514654 0.123587
vt 0.620247 0.008243
vt 0.626616 0.300457
vt 0.626616 0.334529
vt 0.717100 0.257507
vt 0.664498 0.257507
vt 0.724613 0.219650
s 1
g Montana_deckhouse_A2_001_4_Iowa_Deckhouse_A2_001_3.001_steel_deck_1
usemtl steel_deck_1
f 9/1/1 8/2/2 7/3/3
f 15/4/4 37/5/4 14/6/4
f 37/5/4 39/7/5 38/8/4
f 38/8/4 14/6/4 37/5/4
f 34/1/6 26/3/7 28/2/8
f 15/4/4 14/6/4 16/9/4
f 17/10/4 16/9/4 14/6/4
f 16/9/4 17/10/4 18/11/9
f 19/12/9 16/9/4 18/11/9
f 21/13/5 20/14/5 17/10/5
f 22/15/5 17/10/5 20/14/5
f 40/16/5 39/7/5 37/5/4
f 43/17/9 41/18/9 38/8/9
f 42/19/9 38/8/9 41/18/9
f 45/20/10 44/21/11 24/22/12
f 27/23/4 29/24/13 24/22/12
f 30/25/14 24/22/12 29/24/13
f 24/22/12 30/25/14 31/26/15
f 27/23/4 32/27/4 29/24/13
f 27/23/4 24/22/12 44/21/11
f 27/23/4 33/28/4 32/27/4
f 24/22/12 47/29/16 45/20/10
f 27/23/4 44/21/11 51/30/4
f 33/28/4 35/31/4 32/27/4
f 36/32/4 32/27/4 35/31/4
f 27/23/4 51/30/4 33/28/4
f 33/28/4 51/30/4 56/33/4
f 58/34/4 56/33/4 51/30/4
f 46/22/17 48/6/17 115/35/17
f 211/36/4 215/37/4 214/38/4
f 211/36/4 214/38/4 212/39/4
f 213/40/4 211/36/4 212/39/4
f 117/41/17 48/6/17 125/42/17
f 117/41/17 115/35/17 48/6/17
f 46/22/17 49/43/17 48/6/17
f 46/22/17 50/44/17 49/43/17
f 117/41/17 126/45/18 115/35/17
f 127/46/18 115/35/17 126/45/18
f 52/47/17 48/6/17 49/43/17
f 52/47/17 53/48/17 48/6/17
f 52/47/17 49/43/17 54/49/19
f 55/50/19 54/49/19 49/43/17
f 137/5/4 57/4/4 135/16/4
f 59/51/4 135/16/4 57/4/4
f 59/51/4 57/4/4 60/12/4
f 61/9/4 60/12/4 57/4/4
f 4/52/4 3/53/4 5/54/4
f 6/55/4 5/54/4 3/53/4
f 6/55/4 3/53/4 62/56/4
f 3/53/4 63/57/4 62/56/4
f 63/57/4 3/53/4 64/58/4
f 2/59/4 64/58/4 3/53/4
f 63/57/4 65/60/4 62/56/4
f 66/61/4 62/56/4 65/60/4
f 67/62/4 66/61/4 65/60/4
f 68/63/4 67/62/4 65/60/4
f 69/64/4 66/61/4 67/62/4
f 72/65/20 71/66/21 70/67/22
f 73/68/23 70/67/22 71/66/21
f 71/66/21 74/69/24 73/68/23
f 71/66/21 75/70/25 74/69/24
f 78/71/4 77/72/4 76/73/4
f 79/74/5 76/73/4 77/72/4
f 76/73/4 79/74/5 80/75/4
f 81/76/4 76/73/4 80/75/4
f 81/76/4 80/75/4 82/77/4
f 82/77/4 80/75/4 83/78/4
f 83/78/4 80/75/4 84/79/4
f 84/79/4 80/75/4 85/80/4
f 85/80/4 80/75/4 86/81/4
f 86/81/4 80/75/4 87/82/4
f 79/74/5 87/82/4 80/75/4
f 77/72/4 88/83/4 79/74/5
f 89/84/26 79/74/5 88/83/4
f 90/85/4 89/84/26 88/83/4
f 1/86/4 91/87/4 92/88/4
f 93/89/4 92/88/4 91/87/4
f 96/90/17 95/91/4 94/92/4
f 94/92/4 95/91/4 97/93/4
f 98/94/4 97/93/4 95/91/4
f 98/94/4 95/91/4 99/95/4
f 100/96/4 98/94/4 99/95/4
f 95/91/4 101/97/4 99/95/4
f 99/95/4 102/98/4 100/96/4
f 99/95/4 101/97/4 103/99/4
f 99/95/4 104/100/4 102/98/4
f 99/95/4 103/99/4 105/101/4
f 99/95/4 106/102/4 104/100/4
f 99/95/4 105/101/4 106/102/4
f 109/103/4 108/104/4 107/105/4
f 107/105/4 108/104/4 110/106/4
f 107/105/4 110/106/4 111/107/4
f 108/104/4 112/108/4 110/106/4
f 113/109/4 112/108/4 108/104/4
f 113/109/4 114/110/4 112/108/4
f 13/111/4 23/112/4 12/113/4
f 25/114/4 138/115/4 12/113/4
f 140/116/4 143/117/4 12/113/4
f 12/113/4 138/115/4 140/116/4
f 25/114/4 12/113/4 23/112/4
f 119/118/4 118/119/4 120/120/4
f 121/121/4 120/120/4 118/119/4
f 121/121/4 122/122/4 120/120/4
f 123/123/4 120/120/4 122/122/4
f 122/122/4 124/124/4 123/123/4
f 145/125/4 144/126/4 138/115/4
f 318/127/4 319/128/4 128/129/4
f 11/130/4 12/113/4 143/117/4
f 130/131/4 128/129/4 129/132/4
f 140/116/4 138/115/4 144/126/4
f 151/133/27 149/134/28 150/135/29
f 152/136/30 150/135/29 149/134/28
f 148/137/4 146/138/4 145/125/4
f 147/139/4 144/126/4 146/138/4
f 326/140/4 325/141/4 133/142/4
f 327/143/4 328/144/4 136/145/4
f 150/135/29 153/146/31 154/147/32
f 329/148/4 330/149/4 139/150/4
f 155/151/4 175/152/4 158/153/9
f 142/154/4 141/155/4 331/156/4
f 178/157/4 180/158/4 175/152/4
f 180/158/4 182/159/4 175/152/4
f 182/159/4 184/160/4 175/152/4
f 184/160/4 186/161/4 175/152/4
f 186/161/4 190/162/4 175/152/4
f 190/162/4 191/163/4 175/152/4
f 158/153/9 175/152/4 191/163/4
f 156/164/4 158/153/9 192/165/4
f 194/166/4 192/165/4 193/167/33
f 193/167/33 192/165/4 158/153/9
f 10/168/4 196/169/4 195/170/4
f 197/171/4 195/170/4 196/169/4
f 200/172/17 198/173/4 199/174/4
f 198/173/4 201/175/4 199/174/4
f 202/176/4 199/174/4 201/175/4
f 202/176/4 203/177/4 199/174/4
f 161/178/4 160/179/4 159/180/4
f 161/178/4 162/181/4 160/179/4
f 161/178/4 163/182/4 162/181/4
f 161/178/4 164/183/4 163/182/4
f 161/178/4 165/184/4 164/183/4
f 161/178/4 166/185/4 165/184/4
f 159/180/4 167/186/4 161/178/4
s 0
f 167/186/34 168/178/4 161/178/35
s 1
f 169/187/4 166/185/4 161/178/4
s 0
f 168/178/36 169/187/37 161/178/4
s 1
f 170/188/4 168/178/4 167/186/4
f 169/187/4 168/178/4 171/189/4
f 172/190/4 168/178/4 170/188/4
f 171/189/4 168/178/4 173/191/4
f 174/192/4 168/178/4 172/190/4
f 173/191/4 168/178/4 174/192/4
f 204/193/4 203/177/4 202/176/4
f 199/174/4 203/177/4 205/194/4
f 176/195/4 177/196/4 179/197/4
f 203/177/4 204/193/4 206/198/4
f 176/195/4 179/197/4 181/199/4
f 203/177/4 207/200/4 205/194/4
f 176/195/4 181/199/4 183/201/4
f 203/177/4 206/198/4 208/202/4
f 176/195/4 183/201/4 185/203/4
f 203/177/4 208/202/4 210/204/4
f 176/195/4 185/203/4 187/205/4
f 203/177/4 209/206/4 207/200/4
f 187/205/4 189/207/4 176/195/4
f 188/208/4 176/195/4 189/207/4
f 212/39/4 214/38/4 216/209/4
f 46/22/17 115/35/17 116/210/17
f 203/177/4 210/204/4 209/206/4
f 217/211/4 212/39/4 216/209/4
f 217/211/4 216/209/4 218/212/4
f 220/213/4 118/119/4 219/214/4
f 119/118/4 219/214/4 118/119/4
f 220/213/4 219/214/4 221/215/4
f 222/216/4 221/215/4 219/214/4
f 221/215/4 222/216/4 223/217/4
f 318/127/4 224/218/4 319/128/4
f 226/219/4 225/220/4 224/218/4
f 326/140/4 229/221/4 325/141/4
f 327/143/4 231/222/4 328/144/4
f 329/148/4 232/223/4 330/149/4
f 142/154/4 331/156/4 233/224/4
f 236/225/4 234/226/4 235/227/4
f 236/225/4 235/227/4 237/228/4
f 236/225/4 237/228/4 238/229/4
f 236/225/4 238/229/4 239/230/4
f 236/225/4 239/230/4 240/231/4
f 234/226/4 236/225/4 242/232/4
f 236/225/4 240/231/4 241/233/4
s 0
f 242/232/36 236/225/38 243/225/4
s 1
f 245/234/4 236/225/4 241/233/4
s 0
f 243/225/4 236/225/4 245/234/35
s 1
f 246/235/4 242/232/4 243/225/4
f 245/234/4 247/236/4 243/225/4
f 248/237/4 246/235/4 243/225/4
f 247/236/4 249/238/4 243/225/4
f 250/239/4 248/237/4 243/225/4
f 249/238/4 250/239/4 243/225/4
f 176/195/4 252/240/4 177/196/4
f 176/195/4 254/241/4 252/240/4
f 176/195/4 266/242/4 254/241/4
f 176/195/4 267/243/4 266/242/4
f 176/195/4 268/244/4 267/243/4
f 268/244/4 176/195/4 269/245/4
f 188/208/4 269/245/4 176/195/4
f 244/246/4 270/247/4 251/248/4
f 244/246/4 271/249/4 270/247/4
f 244/246/4 272/250/4 271/249/4
f 244/246/4 256/251/4 273/252/4
f 244/246/4 274/253/4 272/250/4
f 244/246/4 273/252/4 275/254/4
f 244/246/4 276/255/4 274/253/4
f 244/246/4 275/254/4 277/256/4
f 244/246/4 278/257/4 276/255/4
f 244/246/4 277/256/4 279/258/4
f 244/246/4 280/259/4 278/257/4
f 244/246/4 279/258/4 280/259/4
f 309/263/39 303/264/39 281/265/40
f 309/263/39 311/266/4 303/264/39
f 304/267/41 281/265/40 303/264/39
f 281/265/40 332/268/42 309/263/39
f 244/246/4 251/248/4 253/269/4
f 334/270/43 309/263/39 332/268/42
f 244/246/4 253/269/4 255/271/4
f 309/263/39 333/272/4 311/266/4
f 244/246/4 255/271/4 257/273/4
f 244/246/4 258/274/4 256/251/4
f 244/246/4 257/273/4 259/275/4
f 244/246/4 260/276/4 258/274/4
f 244/246/4 259/275/4 261/277/4
f 244/246/4 262/278/4 260/276/4
f 244/246/4 261/277/4 263/279/4
f 244/246/4 264/280/4 262/278/4
f 244/246/4 263/279/4 265/281/4
f 244/246/4 265/281/4 264/280/4
f 309/263/39 335/285/4 333/272/4
f 334/270/43 336/286/40 309/263/39
f 309/263/39 337/287/4 335/285/4
f 338/288/44 309/263/39 336/286/40
f 338/288/44 339/289/45 309/263/39
f 340/290/46 309/263/39 339/289/45
f 340/290/46 341/291/47 309/263/39
f 342/292/48 309/263/39 341/291/47
f 342/292/48 343/293/49 309/263/39
f 309/263/39 344/294/39 337/287/4
f 345/295/47 309/263/39 343/293/49
f 309/263/39 345/295/47 344/294/39
f 346/296/50 344/294/39 345/295/47
f 233/224/4 330/149/4 232/223/4
f 232/223/4 328/144/4 231/222/4
f 230/297/4 325/141/4 229/221/4
f 227/298/4 321/299/4 322/300/4
s 0
f 228/297/51 322/300/52 323/300/53
s 1
f 225/220/4 319/128/4 224/218/4
f 284/301/50 283/302/39 282/303/47
f 285/304/39 282/303/47 283/302/39
f 285/304/39 283/302/39 286/305/4
f 282/303/47 285/304/39 287/306/49
f 285/304/39 286/305/4 288/307/4
f 289/308/48 287/306/49 285/304/39
f 285/304/39 288/307/4 290/309/4
f 289/308/48 285/304/39 291/310/47
f 285/304/39 290/309/4 292/311/4
f 293/312/46 291/310/47 285/304/39
f 293/312/46 285/304/39 294/313/45
f 295/314/44 294/313/45 285/304/39
f 295/314/44 285/304/39 296/315/40
f 297/316/43 296/315/40 285/304/39
f 297/316/43 285/304/39 298/317/42
f 285/304/39 292/311/4 299/318/39
f 300/319/40 298/317/42 285/304/39
f 285/304/39 299/318/39 300/319/40
f 301/320/41 300/319/40 299/318/39
f 224/218/4 321/299/4 227/298/4
f 158/153/9 156/164/4 155/151/4
f 141/155/4 330/149/4 331/156/4
f 178/157/4 175/152/4 155/151/4
f 139/150/4 328/144/4 329/148/4
f 157/321/4 155/151/4 156/164/4
f 150/135/29 152/136/30 153/146/31
f 134/322/4 325/141/4 324/300/4
s 0
f 132/322/53 322/300/54 131/323/53
s 1
f 131/323/4 322/300/4 321/299/4
f 129/132/4 319/128/4 320/324/4
f 146/138/4 144/126/4 145/125/4
f 128/129/4 321/299/4 318/127/4
f 233/224/4 331/156/4 330/149/4
f 232/223/4 329/148/4 328/144/4
f 230/297/4 324/300/4 325/141/4
s 0
f 228/297/51 227/298/53 322/300/55
s 1
f 225/220/4 320/324/4 319/128/4
f 224/218/4 318/127/4 321/299/4
f 141/155/4 139/150/4 330/149/4
f 139/150/4 136/145/4 328/144/4
f 134/322/4 133/142/4 325/141/4
s 0
f 132/322/53 323/300/51 322/300/56
s 1
f 129/132/4 128/129/4 319/128/4
f 128/129/4 131/323/4 321/299/4
g Montana_deckhouse_A2_001_4_Iowa_Deckhouse_A2_001_3.001_wood_deck_1
usemtl wood_deck_1
f 349/260/4 354/261/4 352/262/4
f 313/282/4 315/283/4 308/284/4
f 302/325/4 306/326/4 349/260/4
f 349/260/4 348/327/4 351/328/4
f 355/329/4 356/330/4 354/261/4
f 349/260/4 351/328/4 355/329/4
f 350/331/4 302/325/4 349/260/4
f 352/262/4 347/332/4 350/331/4
f 354/261/4 353/333/4 352/262/4
f 349/260/4 355/329/4 354/261/4
f 352/262/4 350/331/4 349/260/4
f 308/284/4 306/326/4 302/325/4
f 310/334/4 305/335/4 313/282/4
f 308/284/4 302/325/4 310/334/4
f 312/336/4 307/337/4 308/284/4
f 315/283/4 317/338/4 316/339/4
f 316/339/4 312/336/4 308/284/4
f 308/284/4 310/334/4 313/282/4
f 313/282/4 314/340/4 315/283/4
f 315/283/4 316/339/4 308/284/4
