# Blender 5.1.0
# www.blender.org
mtllib Montana_deckhouse_A2_001_5_Iowa_Deckhouse_A2_001_4.mtl
o Montana_deckhouse_A2_001_5_Iowa_Deckhouse_A2_001_4.001
v -0.417903 11.847534 3.280062
v 0.417730 11.847536 3.280054
v 6.602412 2.923827 -12.022408
v 8.682460 2.923836 -10.348373
v 7.823932 2.923839 -11.424934
v 8.989743 2.923829 -9.005819
v -3.965260 9.847597 10.792601
v -3.556970 11.863231 11.466654
v -3.556970 11.863232 17.499796
v 2.561950 6.922741 -16.697662
v 2.062813 6.922742 -14.474525
v 2.561950 6.922740 -15.528152
v 1.760510 6.922735 -17.733978
v 2.054523 6.922740 -17.751343
v 1.140174 6.922741 -18.480507
v -0.000001 6.922760 -17.733887
v -0.000001 6.922739 -18.740753
v -1.140176 6.922741 -18.480507
v -1.760511 6.922735 -17.733978
v -2.054524 6.922740 -17.751343
v -2.561951 6.922741 -16.697662
v -2.062814 6.922742 -14.474525
v -2.561951 6.922740 -15.528152
v -0.000001 3.865368 -17.733826
v 2.080810 2.923773 -17.733776
v 2.080810 3.865368 -17.733826
v -0.000001 2.923773 -17.733845
v -2.080810 2.923773 -17.733776
v -2.080811 3.865368 -17.733826
v -9.879779 2.771344 9.048609
v -8.852621 2.771344 7.534052
v -9.879779 2.771343 7.534052
v -8.852621 2.771344 9.048609
v -6.602414 2.923827 -12.022408
v -8.682462 2.923836 -10.348373
v -8.989745 2.923828 -9.005819
v -7.823934 2.923838 -11.424934
v -7.797620 9.847602 5.356874
v -3.965260 9.847676 4.759447
v -6.556970 9.847602 4.759455
v -6.556970 9.847697 10.792601
v -8.656182 9.847600 6.433527
v -8.656155 9.847600 9.118532
v -8.962584 9.847604 7.776026
v -7.797620 9.847597 10.195101
v -8.656182 11.863231 15.825655
v -8.656155 11.863234 13.140650
v -8.962584 11.863234 14.483152
v -7.797624 11.863233 16.902308
v -6.556969 11.863231 11.466654
v -6.556969 11.863232 17.499796
v -7.797627 11.863236 12.064085
v 2.869550 11.847549 -4.312193
v 3.574723 11.847550 -2.610144
v 3.574636 11.847551 -3.606939
v 2.869697 11.847550 -1.905149
v 1.698325 11.847548 -4.649588
v -0.000005 11.847548 -1.905165
v -0.000005 11.847548 -4.649588
v -1.698334 11.847548 -4.649588
v -2.869706 11.847550 -1.905149
v -2.869557 11.847549 -4.312193
v -3.574734 11.847550 -2.610144
v -3.574643 11.847551 -3.606939
v 1.481208 11.847536 3.280054
v 1.481208 11.847535 1.062860
v -1.481217 11.847533 1.062860
v -1.481211 11.847534 3.280062
v 0.631273 11.884128 -9.001348
v -0.000025 11.884128 -9.161779
v -0.631327 11.884128 -9.001348
v 1.097456 11.884130 -8.535162
v -1.097509 11.884127 -8.535162
v 1.097448 11.884132 -5.755461
v -1.097516 11.884132 -5.755461
v -0.000064 9.332409 -17.801956
v -0.751162 9.332411 -17.630531
v -0.000064 9.332413 -16.070915
v 0.751035 9.332411 -17.630531
v -1.353472 9.332411 -17.150208
v 1.353345 9.332411 -17.150208
v -1.687728 9.332411 -16.456116
v 1.687600 9.332411 -16.456116
v -1.687728 9.332411 -15.685730
v 1.687600 9.332411 -15.685730
v -1.353472 9.332413 -14.991638
v 1.353345 9.332413 -14.991638
v -0.751162 9.332412 -14.511307
v 0.751035 9.332412 -14.511307
v -0.000064 9.332412 -14.339882
v 3.965260 9.847597 10.792601
v 3.556970 11.863231 11.466654
v 3.556970 11.863232 17.499796
v 9.879779 2.771344 9.048609
v 8.852621 2.771344 7.534052
v 9.879779 2.771343 7.534052
v 8.852621 2.771344 9.048609
v 7.797620 9.847602 5.356874
v 3.965260 9.847676 4.759447
v 6.556970 9.847602 4.759455
v 6.556970 9.847697 10.792601
v 8.656182 9.847600 6.433527
v 8.656155 9.847600 9.118532
v 8.962584 9.847604 7.776026
v 7.797620 9.847597 10.195101
v 8.656182 11.863231 15.825655
v 8.656155 11.863234 13.140650
v 8.962584 11.863234 14.483152
v 7.797624 11.863233 16.902308
v 6.556969 11.863231 11.466654
v 6.556969 11.863232 17.499796
v 7.797627 11.863236 12.064085
v 8.145229 4.711409 19.110397
v 9.180676 4.711416 18.111115
v 8.990170 4.711416 17.864016
v 9.299419 4.711417 18.399652
v 8.743069 4.711416 17.673508
v 9.340852 4.711418 18.708900
v 8.454535 4.711416 17.554764
v 9.340855 4.711418 19.419641
v 8.145287 4.711415 17.513336
v 9.340891 4.711417 20.689758
v 7.836039 4.711415 17.554764
v 8.454536 4.711417 20.689758
v 7.547507 4.711415 17.673508
v 7.836040 4.711415 20.689758
v 7.300406 4.711414 17.864014
v 6.949865 4.711415 20.689758
v 7.109901 4.711413 18.111115
v 6.949827 4.711413 19.419640
v 6.991158 4.711412 18.399651
v 6.949726 4.711413 18.708900
v -8.145230 4.711408 19.110397
v -9.180676 4.711415 18.111115
v -9.299420 4.711416 18.399651
v -8.990171 4.711415 17.864014
v -9.340853 4.711417 18.708899
v -8.743070 4.711415 17.673508
v -9.340856 4.711417 19.419640
v -8.454536 4.711415 17.554764
v -9.340892 4.711416 20.689758
v -8.145288 4.711414 17.513336
v -8.454537 4.711416 20.689758
v -7.836040 4.711414 17.554764
v -7.836041 4.711414 20.689758
v -7.547508 4.711414 17.673508
v -6.949866 4.711414 20.689758
v -7.300407 4.711413 17.864014
v -6.949828 4.711412 19.419640
v -7.109902 4.711412 18.111115
v -6.949727 4.711412 18.708900
v -6.991158 4.711411 18.399651
vn -0.0000 -1.0000 -0.0000
vn -0.0000 -0.0001 -1.0000
vn -0.0000 -0.0000 -1.0000
vn -0.0000 -1.0000 0.0001
vn 0.0001 -1.0000 -0.0001
vn -0.0001 -1.0000 -0.0001
vt 0.599024 4.107910
vt 0.400971 4.199852
vt 0.400971 4.107910
vt 0.599024 4.199852
vt 0.000000 0.000000
vt 0.381836 4.548708
vt 0.368870 4.532301
vt 0.400284 4.557813
vt 0.364229 4.511842
vt 0.461305 4.611238
vt 0.468843 4.595182
vt 0.461305 4.629061
vt 0.473409 4.644855
vt 0.468968 4.645119
vt 0.482777 4.656231
vt 0.499997 4.644853
vt 0.499997 4.660197
vt 0.517216 4.656231
vt 0.526585 4.644855
vt 0.531025 4.645119
vt 0.538689 4.629061
vt 0.531151 4.595182
vt 0.538689 4.611238
vt 0.468571 0.437838
vt 0.460686 0.423530
vt 0.499997 0.437838
vt 0.499997 0.423530
vt 0.539308 0.423530
vt 0.531422 0.437838
vt 0.739822 4.259783
vt 0.724309 4.259783
vt 0.739822 4.236701
vt 0.724309 4.236701
vt 0.635765 4.511842
vt 0.631124 4.532301
vt 0.599710 4.557813
vt 0.618158 4.548708
vt 0.599024 4.302066
vt 0.592846 4.302066
vt 0.617761 4.292962
vt 0.624278 4.279210
vt 0.630727 4.276554
vt 0.630727 4.235636
vt 0.635355 4.256095
vt 0.624278 4.227475
vt 0.635355 4.153882
vt 0.630727 4.174341
vt 0.630727 4.133423
vt 0.617761 4.117015
vt 0.617761 4.190747
vt 0.446011 4.429565
vt 0.446010 4.414375
vt 0.456660 4.440313
vt 0.456657 4.403631
vt 0.474348 4.445455
vt 0.499997 4.403631
vt 0.499997 4.445455
vt 0.525646 4.445455
vt 0.543337 4.403631
vt 0.543335 4.440313
vt 0.553985 4.414375
vt 0.553983 4.429565
vt 0.493688 4.324611
vt 0.477627 4.358400
vt 0.477627 4.324611
vt 0.506308 4.324611
vt 0.522367 4.358400
vt 0.522367 4.324611
vt 0.509532 4.511774
vt 0.499997 4.514218
vt 0.490463 4.511774
vt 0.483423 4.504669
vt 0.516572 4.504669
vt 0.483423 4.462308
vt 0.516572 4.462308
vt 0.499998 4.619510
vt 0.511341 4.643278
vt 0.499998 4.645890
vt 0.488654 4.643278
vt 0.520438 4.635958
vt 0.479558 4.635958
vt 0.525486 4.625381
vt 0.474510 4.625381
vt 0.525486 4.613640
vt 0.474510 4.613640
vt 0.520438 4.603063
vt 0.479558 4.603063
vt 0.511341 4.595742
vt 0.488654 4.595742
vt 0.499998 4.593130
vt 0.334024 4.141661
vt 0.331147 4.137881
vt 0.346784 4.122597
vt 0.329354 4.133468
vt 0.337756 4.144575
vt 0.328728 4.128737
vt 0.342113 4.146391
vt 0.328728 4.117867
vt 0.346783 4.147025
vt 0.328727 4.098439
vt 0.351454 4.146391
vt 0.342113 4.098439
vt 0.355811 4.144575
vt 0.351454 4.098439
vt 0.359543 4.141661
vt 0.364837 4.098439
vt 0.362420 4.137881
vt 0.364837 4.117867
vt 0.364213 4.133468
vt 0.364839 4.128737
vt 0.670641 4.133468
vt 0.668848 4.137881
vt 0.653211 4.122597
vt 0.665971 4.141661
vt 0.671267 4.128738
vt 0.662239 4.144575
vt 0.671267 4.117867
vt 0.657882 4.146391
vt 0.671268 4.098439
vt 0.653212 4.147025
vt 0.657882 4.098439
vt 0.648541 4.146391
vt 0.648541 4.098439
vt 0.644184 4.144575
vt 0.635158 4.098439
vt 0.640452 4.141661
vt 0.635158 4.117867
vt 0.637575 4.137881
vt 0.635156 4.128738
vt 0.635782 4.133468
s 1
g Montana_deckhouse_A2_001_5_Iowa_Deckhouse_A2_001_4.001_steel_4
usemtl steel_4
f 51/1/1 8/2/1 9/3/1
f 50/4/1 8/5/1 51/1/1
f 5/6/1 4/7/1 3/8/1
f 6/9/1 3/8/1 4/7/1
f 12/10/1 11/11/1 10/12/1
f 13/13/1 10/12/1 11/11/1
f 10/12/1 13/13/1 14/14/1
f 13/13/1 15/15/1 14/14/1
f 13/13/1 16/16/1 15/15/1
f 17/17/1 15/15/1 16/16/1
f 17/17/1 16/16/1 18/18/1
f 19/19/1 18/18/1 16/16/1
f 18/18/1 19/19/1 20/20/1
f 19/19/1 21/21/1 20/20/1
f 19/19/1 22/22/1 21/21/1
f 23/23/1 21/21/1 22/22/1
f 26/24/2 25/25/3 24/26/3
f 27/27/3 24/26/3 25/25/3
f 27/27/3 28/28/3 24/26/3
f 29/29/2 24/26/3 28/28/3
f 32/30/1 31/31/1 30/32/1
f 33/33/1 30/32/1 31/31/1
f 36/34/1 35/35/1 34/36/1
f 37/37/1 34/36/1 35/35/1
f 40/38/4 39/39/1 38/40/1
f 41/41/1 38/40/1 39/39/1
f 41/41/1 42/42/1 38/40/1
f 42/42/1 41/41/1 43/43/1
f 42/42/1 43/43/1 44/44/1
f 45/45/5 43/43/1 41/41/1
f 48/46/1 47/47/1 46/48/1
f 46/48/1 47/47/1 49/49/1
f 47/47/1 50/4/1 49/49/1
f 49/49/1 50/4/1 51/1/1
f 52/50/1 50/4/1 47/47/1
f 55/51/1 54/52/1 53/53/1
f 54/52/1 56/54/1 53/53/1
f 57/55/1 53/53/1 56/54/1
f 56/54/1 58/56/1 57/55/1
f 59/57/1 57/55/1 58/56/1
f 59/57/1 58/56/1 60/58/1
f 61/59/1 60/58/1 58/56/1
f 60/58/1 61/59/1 62/60/1
f 63/61/1 62/60/1 61/59/1
f 63/61/1 64/62/1 62/60/1
f 2/63/1 66/64/1 65/65/1
f 2/63/1 1/66/1 66/64/1
f 67/67/1 66/64/1 1/66/1
f 68/68/1 67/67/1 1/66/1
f 71/69/1 70/70/1 69/71/1
f 69/71/1 72/72/1 71/69/1
f 73/73/1 71/69/1 72/72/1
f 72/72/1 74/74/1 73/73/1
f 75/75/1 73/73/1 74/74/1
f 78/76/1 77/77/1 76/78/1
f 78/76/1 76/78/1 79/79/1
f 78/76/1 80/80/1 77/77/1
f 78/76/1 79/79/1 81/81/1
f 78/76/1 82/82/1 80/80/1
f 78/76/1 81/81/1 83/83/1
f 78/76/1 84/84/1 82/82/1
f 78/76/1 83/83/1 85/85/1
f 78/76/1 86/86/1 84/84/1
f 78/76/1 85/85/1 87/87/1
f 78/76/1 88/88/1 86/86/1
f 78/76/1 87/87/1 89/89/1
f 78/76/1 90/90/1 88/88/1
f 78/76/1 89/89/1 90/90/1
f 41/41/1 39/39/1 7/5/1
f 111/1/1 93/3/1 92/2/1
f 110/4/1 111/1/1 92/5/1
f 96/30/1 94/32/1 95/31/1
f 97/33/1 95/31/1 94/32/1
f 100/38/4 98/40/1 99/39/1
f 101/41/1 99/39/1 98/40/1
f 101/41/1 98/40/1 102/42/1
f 102/42/1 103/43/1 101/41/1
f 102/42/1 104/44/1 103/43/1
f 105/45/6 101/41/1 103/43/1
f 108/46/1 106/48/1 107/47/1
f 106/48/1 109/49/1 107/47/1
f 107/47/1 109/49/1 110/4/1
f 109/49/1 111/1/1 110/4/1
f 112/50/1 107/47/1 110/4/1
f 101/41/1 91/5/1 99/39/1
f 115/91/1 114/92/1 113/93/1
f 116/94/1 113/93/1 114/92/1
f 115/91/1 113/93/1 117/95/1
f 116/94/1 118/96/1 113/93/1
f 119/97/1 117/95/1 113/93/1
f 120/98/1 113/93/1 118/96/1
f 119/97/1 113/93/1 121/99/1
f 122/100/1 113/93/1 120/98/1
f 123/101/1 121/99/1 113/93/1
f 124/102/1 113/93/1 122/100/1
f 123/101/1 113/93/1 125/103/1
f 126/104/1 113/93/1 124/102/1
f 127/105/1 125/103/1 113/93/1
f 128/106/1 113/93/1 126/104/1
f 127/105/1 113/93/1 129/107/1
f 130/108/1 113/93/1 128/106/1
f 131/109/1 129/107/1 113/93/1
f 130/108/1 132/110/1 113/93/1
f 131/109/1 113/93/1 132/110/1
f 135/111/1 134/112/1 133/113/1
f 136/114/1 133/113/1 134/112/1
f 135/111/1 133/113/1 137/115/1
f 136/114/1 138/116/1 133/113/1
f 139/117/1 137/115/1 133/113/1
f 140/118/1 133/113/1 138/116/1
f 133/113/1 141/119/1 139/117/1
f 140/118/1 142/120/1 133/113/1
f 133/113/1 143/121/1 141/119/1
f 144/122/1 133/113/1 142/120/1
f 133/113/1 145/123/1 143/121/1
f 144/122/1 146/124/1 133/113/1
f 133/113/1 147/125/1 145/123/1
f 148/126/1 133/113/1 146/124/1
f 133/113/1 149/127/1 147/125/1
f 148/126/1 150/128/1 133/113/1
f 149/127/1 133/113/1 151/129/1
f 152/130/1 133/113/1 150/128/1
f 152/130/1 151/129/1 133/113/1
