# Blender 5.1.0
# www.blender.org
mtllib DidoX_Deckhouse_A1_001_4_DidoX_Deckhouse_A1_001_4.mtl
o DidoX_Deckhouse_A1_001_4_DidoX_Deckhouse_A1_001_4
v -2.342522 0.412480 1.420348
v -2.179175 0.465600 1.420349
v -2.505523 0.464791 1.420348
v -2.179175 0.465600 1.420349
v -2.077848 0.603772 1.420348
v -2.077158 0.774180 1.420349
v -2.177322 0.911847 1.420349
v -2.177322 0.911847 1.420349
v -2.340155 0.964226 1.420348
v -2.503549 0.911275 1.420349
v -2.503549 0.911275 1.420349
v -2.605064 0.773136 1.420348
v -2.605835 0.602560 1.420349
v -2.505523 0.464791 1.420348
v 2.184813 0.473880 1.420566
v 2.342299 0.422493 1.419753
v 2.499590 0.472761 1.419157
v 2.087239 0.607056 1.421285
v 2.184813 0.473880 1.420566
v 2.086591 0.771154 1.421625
v 2.183029 0.903713 1.421433
v 2.339894 0.954239 1.420796
v 2.183029 0.903713 1.421433
v 2.497486 0.903321 1.419977
v 2.595559 0.770175 1.419293
v 2.497486 0.903321 1.419977
v 2.596402 0.605626 1.418983
v 2.499590 0.472761 1.419157
v 1.882545 0.980618 3.829037
v -1.882552 0.776896 3.829037
v 1.882545 0.776896 3.829037
v -1.882552 0.980618 3.829037
v 1.882545 0.776896 3.829037
v -1.882552 0.776896 4.032734
v 1.882545 0.776896 4.032734
v -1.882552 0.776896 3.829037
v 1.882545 0.776896 4.032734
v -1.882552 0.980618 4.032734
v 1.882545 0.980618 4.032732
v -1.882552 0.776896 4.032734
v 1.882545 0.980618 4.032732
v -1.882552 0.980618 3.829037
v 1.882545 0.980618 3.829037
v -1.882552 0.980618 4.032734
vn -0.0000 -0.0000 -1.0000
vn -0.0000 -1.0000 -0.0000
vn -0.0000 -0.0000 1.0000
vn -0.0000 1.0000 -0.0000
vt 0.528482 3.784700
vt 0.471509 3.784700
vt 0.528482 3.781606
vt 0.471509 3.781606
vt 0.528482 0.382077
vt 0.471509 0.382077
vt 0.528482 0.379013
vt 0.471509 0.379013
vt 0.471518 3.781606
vt 0.528491 3.781606
vt 0.471518 3.784700
vt 0.528491 3.784700
vt 0.471518 0.379013
vt 0.528491 0.379013
vt 0.471518 0.382077
vt 0.528491 0.382077
s 1
g DidoX_Deckhouse_A1_001_4_DidoX_Deckhouse_A1_001_4_details_3
usemtl details_3
f 31/1/1 30/2/1 29/3/1
f 32/4/1 29/3/1 30/2/1
f 35/5/2 34/6/2 33/7/2
f 36/8/2 33/7/2 34/6/2
f 39/9/3 38/10/3 37/11/3
f 40/12/3 37/11/3 38/10/3
f 43/13/4 42/14/4 41/15/4
f 44/16/4 41/15/4 42/14/4
l 1 2
l 1 3
l 4 5
l 5 6
l 6 7
l 8 9
l 9 10
l 11 12
l 12 13
l 13 14
l 15 16
l 16 17
l 18 19
l 18 20
l 20 21
l 22 23
l 22 24
l 25 26
l 25 27
l 27 28
