# Blender 5.1.0
# www.blender.org
mtllib DidoX_Deckhouse_A1_001_9_DidoX_Deckhouse_A1_001_9.mtl
o DidoX_Deckhouse_A1_001_9_DidoX_Deckhouse_A1_001_9
v -3.945491 24.011665 0.996457
v -4.044925 24.146385 1.040196
v -4.045078 24.011772 0.996457
v -3.945346 24.146294 1.040196
v -4.044773 24.280998 0.996457
v -3.945194 24.280891 0.996457
v -3.995388 23.921654 1.120436
v -3.914569 24.146248 1.134907
v -3.914775 23.955956 1.073080
v -3.995136 24.146339 1.193442
v -3.914363 24.336525 1.073079
v -4.075916 23.956139 1.073080
v -3.994892 24.371040 1.120435
v -4.075695 24.146416 1.134908
v -4.075489 24.336708 1.073080
v -3.995388 23.921654 1.120436
v -4.076038 23.838539 0.911212
v -4.075916 23.956139 1.073080
v -3.995540 23.782768 0.929300
v -3.914775 23.955956 1.073080
v -4.076038 23.838539 0.711132
v -3.914905 23.838356 0.911213
v -3.995541 23.782768 0.693046
v -4.075916 23.956139 0.549263
v -3.914906 23.838356 0.711132
v -3.995388 23.921638 0.501909
v -3.914784 23.955956 0.549263
v -4.045078 24.011772 0.996457
v -3.945575 23.928459 0.881944
v -3.945491 24.011665 0.996457
v -4.045162 23.928566 0.881944
v -3.945583 23.928474 0.740400
v -4.045162 23.928566 0.740400
v -3.945492 24.011665 0.625888
v -4.045078 24.011772 0.625888
v -3.995388 23.921638 0.501909
v -4.075703 24.146416 0.487436
v -4.075916 23.956139 0.549263
v -3.995136 24.146339 0.428902
v -4.075497 24.336708 0.549264
v -3.914784 23.955956 0.549263
v -3.994892 24.371040 0.501909
v -3.914570 24.146248 0.487436
v -3.914364 24.336525 0.549264
v -4.045078 24.011772 0.625888
v -3.945347 24.146294 0.582147
v -3.945492 24.011665 0.625888
v -4.044926 24.146385 0.582147
v -3.945202 24.280891 0.625888
v -4.044773 24.280998 0.625888
v -3.994892 24.371040 0.501909
v -4.075367 24.454308 0.711132
v -4.075497 24.336708 0.549264
v -3.994724 24.509895 0.693045
v -3.914364 24.336525 0.549264
v -4.075359 24.454308 0.911212
v -3.914234 24.454140 0.711132
v -3.994724 24.509895 0.929299
v -4.075489 24.336708 1.073080
v -3.914234 24.454140 0.911212
v -3.994892 24.371040 1.120435
v -3.914363 24.336525 1.073079
v -4.044773 24.280998 0.625888
v -3.945102 24.364098 0.740400
v -3.945202 24.280891 0.625888
v -4.044681 24.364204 0.740400
v -3.945102 24.364098 0.881945
v -4.044681 24.364204 0.881945
v -3.945194 24.280891 0.996457
v -4.044773 24.280998 0.996457
v 4.044926 24.146385 1.040196
v 3.945493 24.011665 0.996457
v 4.045079 24.011772 0.996457
v 3.945348 24.146294 1.040196
v 4.044774 24.280998 0.996457
v 3.945196 24.280891 0.996457
v 3.914571 24.146248 1.134907
v 3.995389 23.921654 1.120436
v 3.914777 23.955956 1.073080
v 3.995138 24.146339 1.193442
v 4.075917 23.956139 1.073080
v 3.914365 24.336525 1.073079
v 4.075696 24.146416 1.134907
v 3.994894 24.371040 1.120435
v 4.075490 24.336708 1.073080
v 4.076039 23.838539 0.911211
v 3.995389 23.921654 1.120436
v 4.075917 23.956139 1.073080
v 3.995542 23.782768 0.929299
v 3.914777 23.955956 1.073080
v 4.076040 23.838539 0.711132
v 3.914907 23.838356 0.911212
v 3.995542 23.782768 0.693046
v 4.075918 23.956139 0.549262
v 3.914907 23.838356 0.711132
v 3.995389 23.921638 0.501909
v 3.914785 23.955956 0.549262
v 3.945577 23.928459 0.881944
v 4.045079 24.011772 0.996457
v 3.945493 24.011665 0.996457
v 4.045163 23.928566 0.881944
v 3.945585 23.928474 0.740400
v 4.045163 23.928566 0.740400
v 3.945493 24.011665 0.625887
v 4.045080 24.011772 0.625887
v 4.075704 24.146416 0.487436
v 3.995389 23.921638 0.501909
v 4.075918 23.956139 0.549262
v 3.995138 24.146339 0.428902
v 3.914785 23.955956 0.549262
v 4.075498 24.336708 0.549263
v 3.914571 24.146248 0.487436
v 3.994894 24.371040 0.501909
v 3.914365 24.336525 0.549263
v 3.945348 24.146294 0.582147
v 4.045080 24.011772 0.625887
v 3.945493 24.011665 0.625887
v 4.044927 24.146385 0.582147
v 3.945203 24.280891 0.625887
v 4.044775 24.280998 0.625887
v 4.075368 24.454308 0.711132
v 3.994894 24.371040 0.501909
v 4.075498 24.336708 0.549263
v 3.994726 24.509895 0.693044
v 3.914365 24.336525 0.549263
v 4.075360 24.454308 0.911211
v 3.914236 24.454140 0.711132
v 3.994726 24.509895 0.929299
v 4.075490 24.336708 1.073080
v 3.914236 24.454140 0.911211
v 3.994894 24.371040 1.120435
v 3.914365 24.336525 1.073079
v 3.945104 24.364098 0.740400
v 4.044775 24.280998 0.625887
v 3.945203 24.280891 0.625887
v 4.044682 24.364204 0.740400
v 3.945104 24.364098 0.881944
v 4.044682 24.364204 0.881944
v 3.945196 24.280891 0.996457
v 4.044774 24.280998 0.996457
v 4.019094 9.361061 3.117287
v 3.919660 9.226341 3.073547
v 4.019246 9.226448 3.073547
v 3.919515 9.360970 3.117287
v 4.018941 9.495674 3.073547
v 3.919363 9.495567 3.073547
v 3.888738 9.360924 3.211997
v 3.969556 9.136330 3.197526
v 3.888944 9.170631 3.150170
v 3.969305 9.361015 3.270533
v 4.050084 9.170815 3.150170
v 3.888532 9.551201 3.150169
v 4.049863 9.361092 3.211998
v 3.969060 9.585716 3.197525
v 4.049657 9.551384 3.150170
v 4.050206 9.053215 2.988302
v 3.969556 9.136330 3.197526
v 4.050084 9.170815 3.150170
v 3.969709 8.997444 3.006390
v 3.888944 9.170631 3.150170
v 4.050207 9.053216 2.788222
v 3.889074 9.053032 2.988303
v 3.969709 8.997445 2.770136
v 4.050085 9.170815 2.626353
v 3.889074 9.053033 2.788222
v 3.969557 9.136315 2.578999
v 3.888952 9.170632 2.626353
v 3.919744 9.143135 2.959034
v 4.019246 9.226448 3.073547
v 3.919660 9.226341 3.073547
v 4.019330 9.143242 2.959034
v 3.919752 9.143151 2.817490
v 4.019330 9.143243 2.817490
v 3.919661 9.226342 2.702978
v 4.019247 9.226449 2.702978
v 4.049871 9.361093 2.564526
v 3.969557 9.136315 2.578999
v 4.050085 9.170815 2.626353
v 3.969305 9.361016 2.505992
v 3.888952 9.170632 2.626353
v 4.049665 9.551385 2.626354
v 3.888739 9.360925 2.564526
v 3.969061 9.585717 2.578999
v 3.888533 9.551202 2.626354
v 3.919516 9.360970 2.659237
v 4.019247 9.226449 2.702978
v 3.919661 9.226342 2.702978
v 4.019094 9.361062 2.659237
v 3.919371 9.495568 2.702978
v 4.018941 9.495675 2.702978
v 4.049535 9.668984 2.788222
v 3.969061 9.585717 2.578999
v 4.049665 9.551385 2.626354
v 3.968893 9.724572 2.770134
v 3.888533 9.551202 2.626354
v 4.049527 9.668983 2.988302
v 3.888403 9.668817 2.788222
v 3.968893 9.724571 3.006389
v 4.049657 9.551384 3.150170
v 3.888402 9.668816 2.988302
v 3.969060 9.585716 3.197525
v 3.888532 9.551201 3.150169
v 3.919271 9.578774 2.817490
v 4.018941 9.495675 2.702978
v 3.919371 9.495568 2.702978
v 4.018849 9.578881 2.817490
v 3.919271 9.578773 2.959034
v 4.018849 9.578880 2.959034
v 3.919363 9.495567 3.073547
v 4.018941 9.495674 3.073547
v -3.919659 9.226341 3.073547
v -4.019093 9.361061 3.117288
v -4.019245 9.226448 3.073547
v -3.919514 9.360970 3.117288
v -4.018940 9.495674 3.073547
v -3.919362 9.495567 3.073547
v -3.969555 9.136330 3.197526
v -3.888737 9.360924 3.211997
v -3.888943 9.170631 3.150170
v -3.969304 9.361015 3.270534
v -3.888531 9.551201 3.150170
v -4.050083 9.170815 3.150171
v -3.969059 9.585716 3.197526
v -4.049862 9.361092 3.211999
v -4.049656 9.551384 3.150170
v -3.969555 9.136330 3.197526
v -4.050205 9.053215 2.988302
v -4.050083 9.170815 3.150171
v -3.969708 8.997444 3.006390
v -3.888943 9.170631 3.150170
v -4.050206 9.053216 2.788222
v -3.889073 9.053032 2.988303
v -3.969708 8.997445 2.770136
v -4.050084 9.170815 2.626353
v -3.889073 9.053033 2.788222
v -3.969556 9.136315 2.579000
v -3.888951 9.170632 2.626353
v -4.019245 9.226448 3.073547
v -3.919743 9.143135 2.959035
v -3.919659 9.226341 3.073547
v -4.019329 9.143242 2.959035
v -3.919751 9.143151 2.817491
v -4.019329 9.143243 2.817491
v -3.919660 9.226342 2.702978
v -4.019246 9.226449 2.702978
v -3.969556 9.136315 2.579000
v -4.049870 9.361093 2.564527
v -4.050084 9.170815 2.626353
v -3.969304 9.361016 2.505993
v -4.049664 9.551385 2.626354
v -3.888951 9.170632 2.626353
v -3.969060 9.585717 2.579000
v -3.888738 9.360925 2.564527
v -3.888532 9.551202 2.626354
v -4.019246 9.226449 2.702978
v -3.919515 9.360970 2.659238
v -3.919660 9.226342 2.702978
v -4.019093 9.361062 2.659238
v -3.919370 9.495568 2.702978
v -4.018940 9.495675 2.702978
v -3.969060 9.585717 2.579000
v -4.049534 9.668984 2.788222
v -4.049664 9.551385 2.626354
v -3.968892 9.724572 2.770135
v -3.888532 9.551202 2.626354
v -4.049526 9.668983 2.988302
v -3.888402 9.668817 2.788222
v -3.968892 9.724571 3.006390
v -4.049656 9.551384 3.150170
v -3.888402 9.668816 2.988302
v -3.969059 9.585716 3.197526
v -3.888531 9.551201 3.150170
v -4.018940 9.495675 2.702978
v -3.919270 9.578774 2.817491
v -3.919370 9.495568 2.702978
v -4.018848 9.578881 2.817491
v -3.919270 9.578773 2.959035
v -4.018848 9.578880 2.959035
v -3.919362 9.495567 3.073547
v -4.018940 9.495674 3.073547
v -4.075695 24.146416 1.134908
v -4.045078 24.011772 0.996457
v -4.044925 24.146385 1.040196
v -4.075916 23.956139 1.073080
v -4.075489 24.336708 1.073080
v -4.045162 23.928566 0.881944
v -4.044773 24.280998 0.996457
v -4.076038 23.838539 0.911212
v -4.075359 24.454308 0.911212
v -4.045162 23.928566 0.740400
v -4.044681 24.364204 0.881945
v -4.076038 23.838539 0.711132
v -4.075367 24.454308 0.711132
v -4.045078 24.011772 0.625888
v -4.044681 24.364204 0.740400
v -4.075916 23.956139 0.549263
v -4.075497 24.336708 0.549264
v -4.044926 24.146385 0.582147
v -4.044773 24.280998 0.625888
v -4.075703 24.146416 0.487436
v -3.945346 24.146294 1.040196
v -3.914775 23.955956 1.073080
v -3.914569 24.146248 1.134907
v -3.945491 24.011665 0.996457
v -3.945194 24.280891 0.996457
v -3.914905 23.838356 0.911213
v -3.914363 24.336525 1.073079
v -3.945575 23.928459 0.881944
v -3.945102 24.364098 0.881945
v -3.914906 23.838356 0.711132
v -3.914234 24.454140 0.911212
v -3.945583 23.928474 0.740400
v -3.945102 24.364098 0.740400
v -3.914784 23.955956 0.549263
v -3.914234 24.454140 0.711132
v -3.945492 24.011665 0.625888
v -3.945202 24.280891 0.625888
v -3.914570 24.146248 0.487436
v -3.914364 24.336525 0.549264
v -3.945347 24.146294 0.582147
v 4.075696 24.146416 1.134907
v 4.045079 24.011772 0.996457
v 4.075917 23.956139 1.073080
v 4.044926 24.146385 1.040196
v 4.045163 23.928566 0.881944
v 4.075490 24.336708 1.073080
v 4.076039 23.838539 0.911211
v 4.044774 24.280998 0.996457
v 4.045163 23.928566 0.740400
v 4.075360 24.454308 0.911211
v 4.076040 23.838539 0.711132
v 4.044682 24.364204 0.881944
v 4.045080 24.011772 0.625887
v 4.075368 24.454308 0.711132
v 4.075918 23.956139 0.549262
v 4.044682 24.364204 0.740400
v 4.044927 24.146385 0.582147
v 4.075498 24.336708 0.549263
v 4.075704 24.146416 0.487436
v 4.044775 24.280998 0.625887
v 3.945348 24.146294 1.040196
v 3.914777 23.955956 1.073080
v 3.945493 24.011665 0.996457
v 3.914571 24.146248 1.134907
v 3.914907 23.838356 0.911212
v 3.945196 24.280891 0.996457
v 3.945577 23.928459 0.881944
v 3.914365 24.336525 1.073079
v 3.914907 23.838356 0.711132
v 3.945104 24.364098 0.881944
v 3.945585 23.928474 0.740400
v 3.914236 24.454140 0.911211
v 3.914785 23.955956 0.549262
v 3.945104 24.364098 0.740400
v 3.945493 24.011665 0.625887
v 3.914236 24.454140 0.711132
v 3.914571 24.146248 0.487436
v 3.945203 24.280891 0.625887
v 3.945348 24.146294 0.582147
v 3.914365 24.336525 0.549263
v 4.019246 9.226448 3.073547
v 4.049863 9.361092 3.211998
v 4.019094 9.361061 3.117287
v 4.050084 9.170815 3.150170
v 4.049657 9.551384 3.150170
v 4.019330 9.143242 2.959034
v 4.018941 9.495674 3.073547
v 4.050206 9.053215 2.988302
v 4.049527 9.668983 2.988302
v 4.019330 9.143243 2.817490
v 4.018849 9.578880 2.959034
v 4.050207 9.053216 2.788222
v 4.049535 9.668984 2.788222
v 4.019247 9.226449 2.702978
v 4.018849 9.578881 2.817490
v 4.050085 9.170815 2.626353
v 4.049665 9.551385 2.626354
v 4.019094 9.361062 2.659237
v 4.018941 9.495675 2.702978
v 4.049871 9.361093 2.564526
v 3.888944 9.170631 3.150170
v 3.919515 9.360970 3.117287
v 3.888738 9.360924 3.211997
v 3.919660 9.226341 3.073547
v 3.919363 9.495567 3.073547
v 3.889074 9.053032 2.988303
v 3.888532 9.551201 3.150169
v 3.919744 9.143135 2.959034
v 3.919271 9.578773 2.959034
v 3.889074 9.053033 2.788222
v 3.888402 9.668816 2.988302
v 3.919752 9.143151 2.817490
v 3.919271 9.578774 2.817490
v 3.888952 9.170632 2.626353
v 3.888403 9.668817 2.788222
v 3.919661 9.226342 2.702978
v 3.919371 9.495568 2.702978
v 3.888739 9.360925 2.564526
v 3.888533 9.551202 2.626354
v 3.919516 9.360970 2.659237
v -4.049862 9.361092 3.211999
v -4.019245 9.226448 3.073547
v -4.019093 9.361061 3.117288
v -4.050083 9.170815 3.150171
v -4.049656 9.551384 3.150170
v -4.019329 9.143242 2.959035
v -4.018940 9.495674 3.073547
v -4.050205 9.053215 2.988302
v -4.049526 9.668983 2.988302
v -4.019329 9.143243 2.817491
v -4.018848 9.578880 2.959035
v -4.050206 9.053216 2.788222
v -4.049534 9.668984 2.788222
v -4.019246 9.226449 2.702978
v -4.018848 9.578881 2.817491
v -4.050084 9.170815 2.626353
v -4.049664 9.551385 2.626354
v -4.019093 9.361062 2.659238
v -4.018940 9.495675 2.702978
v -4.049870 9.361093 2.564527
v -3.919514 9.360970 3.117288
v -3.888943 9.170631 3.150170
v -3.888737 9.360924 3.211997
v -3.919659 9.226341 3.073547
v -3.919362 9.495567 3.073547
v -3.889073 9.053032 2.988303
v -3.888531 9.551201 3.150170
v -3.919743 9.143135 2.959035
v -3.919270 9.578773 2.959035
v -3.889073 9.053033 2.788222
v -3.888402 9.668816 2.988302
v -3.919751 9.143151 2.817491
v -3.919270 9.578774 2.817491
v -3.888951 9.170632 2.626353
v -3.888402 9.668817 2.788222
v -3.919660 9.226342 2.702978
v -3.919370 9.495568 2.702978
v -3.888738 9.360925 2.564527
v -3.888532 9.551202 2.626354
v -3.919515 9.360970 2.659238
vn -0.6494 0.4476 -0.6148
vn -0.6499 0.0007 -0.7600
vn 0.6504 0.4459 -0.6149
vn 0.6499 -0.0008 -0.7600
vn -0.6503 -0.4460 -0.6149
vn 0.6494 -0.4476 -0.6148
vn 0.9131 -0.2403 0.3293
vn 0.9134 -0.0010 0.4070
vn -0.0007 -0.5877 0.8091
vn -0.0000 -0.0000 1.0000
vn 0.9137 0.2382 0.3293
vn -0.9137 -0.2382 0.3293
vn 0.0006 0.5878 0.8090
vn -0.9134 0.0010 0.4070
vn -0.9132 0.2402 0.3292
vn -0.9137 -0.2382 0.3292
vn -0.9139 -0.3860 0.1258
vn -0.0007 -0.5878 0.8090
vn -0.0011 -0.9511 0.3090
vn 0.9132 -0.2403 0.3293
vn -0.9139 -0.3860 -0.1257
vn 0.9130 -0.3881 0.1258
vn -0.0011 -0.9511 -0.3090
vn -0.9137 -0.2382 -0.3293
vn 0.9130 -0.3881 -0.1258
vn -0.0007 -0.5878 -0.8090
vn 0.9132 -0.2402 -0.3293
vn 0.6503 0.4459 -0.6150
vn 0.6507 0.7221 -0.2348
vn -0.6495 0.4475 -0.6148
vn -0.6491 0.7235 -0.2348
vn 0.6506 0.7222 0.2349
vn -0.6491 0.7235 0.2349
vn 0.6504 0.4459 0.6149
vn -0.6494 0.4474 0.6149
vn -0.9134 0.0010 -0.4070
vn -0.0000 -0.0000 -1.0000
vn -0.9132 0.2402 -0.3292
vn 0.9132 -0.2403 -0.3293
vn 0.0007 0.5878 -0.8090
vn 0.9134 -0.0010 -0.4070
vn 0.9137 0.2382 -0.3292
vn 0.6504 0.4460 0.6148
vn 0.6500 -0.0008 0.7600
vn -0.6499 0.0008 0.7600
vn 0.6494 -0.4474 0.6149
vn -0.6503 -0.4461 0.6149
vn -0.9130 0.3880 -0.1257
vn 0.0007 0.5879 -0.8089
vn 0.0011 0.9511 -0.3090
vn -0.9130 0.3880 0.1258
vn 0.9139 0.3861 -0.1258
vn 0.0011 0.9511 0.3090
vn 0.9139 0.3861 0.1258
vn 0.0006 0.5879 0.8089
vn 0.9137 0.2381 0.3293
vn 0.6494 -0.4473 0.6150
vn 0.6492 -0.7235 0.2348
vn -0.6504 -0.4459 0.6149
vn -0.6506 -0.7222 0.2349
vn 0.6492 -0.7235 -0.2349
vn -0.6507 -0.7221 -0.2349
vn 0.6494 -0.4474 -0.6149
vn -0.6504 -0.4459 -0.6149
vn 0.6494 0.4475 -0.6148
vn -0.6504 0.4460 -0.6148
vn 0.6499 0.0007 -0.7600
vn -0.6499 -0.0008 -0.7600
vn 0.6504 -0.4460 -0.6148
vn -0.6494 -0.4474 -0.6149
vn -0.9132 -0.2402 0.3293
vn 0.0007 -0.5877 0.8091
vn -0.9134 -0.0010 0.4070
vn 0.9137 -0.2382 0.3293
vn -0.9137 0.2382 0.3293
vn 0.9134 0.0010 0.4070
vn -0.0006 0.5878 0.8090
vn 0.9132 0.2402 0.3292
vn 0.9137 -0.2382 0.3292
vn 0.0007 -0.5878 0.8090
vn 0.9139 -0.3860 0.1257
vn 0.0011 -0.9511 0.3090
vn 0.9139 -0.3860 -0.1257
vn -0.9130 -0.3881 0.1258
vn 0.0011 -0.9511 -0.3090
vn 0.9137 -0.2382 -0.3293
vn -0.9130 -0.3881 -0.1258
vn 0.0007 -0.5878 -0.8090
vn -0.9132 -0.2402 -0.3293
vn -0.6504 0.4460 -0.6149
vn 0.6494 0.4474 -0.6149
vn -0.6507 0.7221 -0.2348
vn 0.6491 0.7235 -0.2349
vn -0.6506 0.7222 0.2349
vn 0.6491 0.7235 0.2349
vn -0.6504 0.4460 0.6149
vn 0.6494 0.4475 0.6148
vn 0.9134 0.0010 -0.4070
vn -0.9131 -0.2403 -0.3293
vn 0.9132 0.2402 -0.3292
vn -0.9134 -0.0010 -0.4070
vn -0.0007 0.5878 -0.8090
vn -0.9137 0.2382 -0.3292
vn -0.6504 0.4459 0.6149
vn -0.6499 -0.0007 0.7600
vn 0.6500 0.0007 0.7600
vn -0.6494 -0.4475 0.6149
vn 0.6504 -0.4460 0.6149
vn -0.0007 0.5879 -0.8089
vn 0.9130 0.3880 -0.1257
vn -0.0011 0.9511 -0.3090
vn 0.9130 0.3881 0.1258
vn -0.9139 0.3861 -0.1258
vn -0.0011 0.9511 0.3090
vn -0.9138 0.3861 0.1258
vn -0.0006 0.5879 0.8089
vn -0.9137 0.2382 0.3292
vn -0.6494 -0.4474 0.6149
vn 0.6503 -0.4460 0.6150
vn -0.6491 -0.7235 0.2349
vn 0.6506 -0.7222 0.2349
vn -0.6491 -0.7235 -0.2349
vn 0.6507 -0.7221 -0.2349
vn 0.6504 -0.4459 -0.6149
vn 0.6503 -0.4460 -0.6149
vn 0.6492 0.7235 -0.2349
vn -0.6506 0.7222 0.2348
vn 0.9137 -0.2382 -0.3292
vn 0.6499 0.0007 0.7600
vn -0.6493 -0.4475 0.6149
vn 0.9130 0.3881 -0.1257
vn -0.9139 0.3861 0.1258
vn -0.6492 -0.7235 0.2348
vn 0.6507 -0.7221 0.2349
vn -0.6492 -0.7235 -0.2348
vn 0.6504 -0.4460 -0.6149
vn -0.6494 0.4475 -0.6148
vn 0.6504 0.4460 -0.6149
vn 0.6494 -0.4475 -0.6149
vn 0.9137 0.2382 0.3292
vn -0.9139 -0.3860 0.1257
vn 0.9132 -0.2402 0.3293
vn -0.6492 0.7235 -0.2348
vn -0.6492 0.7235 0.2348
vn 0.6504 0.4460 0.6149
vn -0.9137 -0.2382 -0.3292
vn 0.9131 -0.2403 -0.3293
vn 0.6499 -0.0008 0.7600
vn -0.6494 0.4475 0.6149
vn -0.9132 0.2402 -0.3293
vn -0.9130 0.3881 -0.1258
vn -0.9130 0.3881 0.1257
vn 0.6493 -0.4474 0.6150
vn 0.6492 -0.7235 0.2349
vn -0.6504 -0.4460 0.6149
vn 0.6491 -0.7235 -0.2349
vn -0.6506 -0.7222 -0.2349
vn -0.6504 -0.4460 -0.6149
vn -0.6494 0.4474 -0.6149
vn -0.9137 -0.2383 0.3293
vn -0.9131 0.2402 0.3293
vn -0.6490 0.7236 -0.2349
vn -0.6503 -0.4461 -0.6149
vn -0.9139 -0.3861 0.1258
vn -0.9130 0.3881 0.1258
vn -0.6490 0.7236 0.2349
vn -0.9139 -0.3860 -0.1258
vn -0.9130 0.3881 -0.1257
vn -0.6499 0.0008 0.7601
vn -0.6503 -0.4460 0.6150
vn -0.9134 0.0011 -0.4071
vn 0.9134 -0.0009 0.4070
vn 0.9131 -0.2402 0.3294
vn 0.6498 -0.0007 -0.7601
vn 0.6503 0.4460 -0.6149
vn 0.9130 -0.3882 -0.1258
vn 0.9138 0.3862 0.1257
vn 0.6491 -0.7235 0.2348
vn 0.9138 0.3861 -0.1259
vn 0.6493 -0.4475 0.6149
vn 0.9134 -0.0010 -0.4071
vn 0.9137 0.2382 -0.3293
vn 0.6499 -0.0008 0.7601
vn 0.9137 -0.2383 0.3293
vn 0.6494 0.4475 -0.6149
vn 0.6499 0.0007 -0.7601
vn 0.6490 0.7236 -0.2349
vn 0.9132 0.2403 0.3292
vn 0.9139 -0.3860 0.1259
vn 0.6503 -0.4460 -0.6150
vn 0.6491 0.7236 0.2349
vn 0.9130 0.3881 0.1257
vn 0.9139 -0.3861 -0.1257
vn 0.6506 -0.7222 -0.2349
vn 0.6493 0.4474 0.6150
vn 0.9130 0.3881 -0.1258
vn 0.6499 0.0007 0.7601
vn 0.9132 0.2402 -0.3293
vn 0.9134 0.0010 -0.4071
vn 0.6503 -0.4461 0.6149
vn -0.6503 0.4460 -0.6149
vn -0.9131 -0.2403 0.3293
vn -0.6498 -0.0008 -0.7601
vn -0.9130 -0.3882 0.1257
vn -0.6494 -0.4475 -0.6149
vn -0.6507 0.7221 -0.2349
vn -0.9130 -0.3881 -0.1259
vn -0.6490 -0.7236 -0.2349
vn -0.9131 -0.2402 -0.3295
vn -0.9138 0.3862 -0.1258
vn -0.9134 -0.0009 -0.4071
vn -0.6493 -0.4474 0.6150
vn -0.6499 -0.0007 0.7601
vn -0.9137 0.2383 -0.3292
vn 0.9131 0.2403 0.3293
vn 0.9130 0.3882 0.1257
vn 0.6506 -0.7221 -0.2349
vn 0.9130 0.3882 -0.1258
vn 0.9131 0.2402 -0.3293
vn -0.9138 0.3862 0.1259
vn -0.9134 -0.0009 -0.4070
vn -0.9132 0.2402 0.3293
vn -0.6491 0.7236 0.2349
vn -0.6493 0.4475 0.6149
vn -0.6503 -0.4460 0.6149
vn 0.6503 0.4461 -0.6149
vn 0.6491 -0.7236 0.2348
vt 0.438786 3.431869
vt 0.438788 3.429825
vt 0.440293 3.431871
vt 0.440295 3.429826
vt 0.438791 3.427781
vt 0.440298 3.427782
vt 0.559242 3.432717
vt 0.559239 3.429827
vt 0.560462 3.433238
vt 0.560458 3.429826
vt 0.559236 3.426938
vt 0.561680 3.432714
vt 0.560454 3.426414
vt 0.561677 3.429824
vt 0.561674 3.426935
vt 0.438320 0.337568
vt 0.438318 0.335134
vt 0.439538 0.338280
vt 0.439536 0.335406
vt 0.440758 0.337568
vt 0.438318 0.332125
vt 0.440756 0.335134
vt 0.439536 0.331853
vt 0.438320 0.329691
vt 0.440756 0.332125
vt 0.439538 0.328978
vt 0.440758 0.329691
vt 0.559707 0.336416
vt 0.559708 0.334694
vt 0.561214 0.336416
vt 0.561215 0.334694
vt 0.559708 0.332565
vt 0.561215 0.332565
vt 0.559707 0.330843
vt 0.561214 0.330843
vt 0.438320 3.432714
vt 0.438323 3.429824
vt 0.439538 3.433238
vt 0.439542 3.429826
vt 0.438326 3.426935
vt 0.440758 3.432717
vt 0.439546 3.426414
vt 0.440761 3.429827
vt 0.440764 3.426938
vt 0.559707 3.431871
vt 0.559705 3.429826
vt 0.561214 3.431869
vt 0.561212 3.429825
vt 0.559703 3.427782
vt 0.561209 3.427781
vt 0.561674 0.329691
vt 0.561672 0.332125
vt 0.560454 0.328978
vt 0.560452 0.331853
vt 0.559236 0.329691
vt 0.561672 0.335134
vt 0.559234 0.332125
vt 0.560452 0.335406
vt 0.561674 0.337568
vt 0.559234 0.335134
vt 0.560454 0.338280
vt 0.559236 0.337568
vt 0.440297 0.330843
vt 0.440299 0.332565
vt 0.438791 0.330843
vt 0.438792 0.332565
vt 0.440299 0.334694
vt 0.438792 0.334694
vt 0.440298 0.336416
vt 0.438791 0.336416
vt 0.561206 3.431869
vt 0.559699 3.431871
vt 0.561204 3.429825
vt 0.559697 3.429826
vt 0.561201 3.427781
vt 0.559695 3.427782
vt 0.440766 3.432717
vt 0.439546 3.433238
vt 0.440769 3.429827
vt 0.439550 3.429826
vt 0.438327 3.432714
vt 0.440772 3.426938
vt 0.438331 3.429824
vt 0.439553 3.426414
vt 0.438334 3.426935
vt 0.561673 0.337568
vt 0.561675 0.335134
vt 0.560457 0.335406
vt 0.559234 0.337568
vt 0.561675 0.332125
vt 0.559236 0.335134
vt 0.560457 0.331853
vt 0.561673 0.329691
vt 0.559236 0.332125
vt 0.559234 0.329691
vt 0.440301 0.336416
vt 0.438794 0.336416
vt 0.440300 0.334694
vt 0.438793 0.334694
vt 0.438793 0.332565
vt 0.440301 0.330843
vt 0.438794 0.330843
vt 0.561673 3.432714
vt 0.560454 3.433238
vt 0.561670 3.429824
vt 0.560450 3.429826
vt 0.559234 3.432717
vt 0.561666 3.426935
vt 0.559231 3.429827
vt 0.560447 3.426414
vt 0.559228 3.426938
vt 0.440301 3.431871
vt 0.438794 3.431869
vt 0.440303 3.429826
vt 0.438796 3.429825
vt 0.440305 3.427782
vt 0.438798 3.427781
vt 0.438334 0.329691
vt 0.439553 0.328978
vt 0.438336 0.332125
vt 0.439556 0.331853
vt 0.440772 0.329691
vt 0.438336 0.335134
vt 0.440774 0.332125
vt 0.439556 0.335406
vt 0.438334 0.337568
vt 0.440774 0.335134
vt 0.439553 0.338280
vt 0.440772 0.337568
vt 0.559695 0.330843
vt 0.561202 0.330843
vt 0.559693 0.332565
vt 0.561200 0.332565
vt 0.559693 0.334694
vt 0.561200 0.334694
vt 0.559695 0.336416
vt 0.561201 0.336416
vt 0.560815 3.656390
vt 0.559308 3.656392
vt 0.560813 3.654346
vt 0.559306 3.654347
vt 0.560810 3.652302
vt 0.559303 3.652303
vt 0.441157 3.657238
vt 0.439937 3.657758
vt 0.441160 3.654348
vt 0.439941 3.654346
vt 0.438718 3.657235
vt 0.441163 3.651459
vt 0.438722 3.654345
vt 0.439945 3.650934
vt 0.438725 3.651456
vt 0.561282 0.368804
vt 0.560063 0.369516
vt 0.561283 0.366370
vt 0.560065 0.366642
vt 0.558843 0.368804
vt 0.561283 0.363361
vt 0.558845 0.366370
vt 0.560065 0.363089
vt 0.561282 0.360927
vt 0.558845 0.363361
vt 0.560063 0.360215
vt 0.558843 0.360927
vt 0.440692 0.367652
vt 0.439185 0.367652
vt 0.440691 0.365930
vt 0.439184 0.365930
vt 0.440691 0.363801
vt 0.439184 0.363801
vt 0.440692 0.362079
vt 0.439185 0.362079
vt 0.561282 3.657235
vt 0.560063 3.657759
vt 0.561278 3.654345
vt 0.560059 3.654346
vt 0.558843 3.657238
vt 0.561275 3.651456
vt 0.558840 3.654348
vt 0.560055 3.650934
vt 0.558837 3.651459
vt 0.440692 3.656392
vt 0.439185 3.656390
vt 0.440694 3.654347
vt 0.439187 3.654346
vt 0.440696 3.652303
vt 0.439190 3.652302
vt 0.438725 0.360927
vt 0.439944 0.360215
vt 0.438727 0.363361
vt 0.439947 0.363089
vt 0.441163 0.360927
vt 0.438727 0.366370
vt 0.441165 0.363361
vt 0.439947 0.366642
vt 0.438725 0.368804
vt 0.441165 0.366370
vt 0.439945 0.369516
vt 0.441163 0.368804
vt 0.559304 0.362079
vt 0.560810 0.362079
vt 0.559302 0.363801
vt 0.560809 0.363801
vt 0.559302 0.365930
vt 0.560809 0.365930
vt 0.559303 0.367652
vt 0.560810 0.367652
vt 0.439177 3.656390
vt 0.439179 3.654346
vt 0.440684 3.656392
vt 0.440686 3.654347
vt 0.439181 3.652302
vt 0.440688 3.652303
vt 0.558851 3.657238
vt 0.558848 3.654348
vt 0.560071 3.657758
vt 0.560068 3.654346
vt 0.558845 3.651459
vt 0.561290 3.657235
vt 0.560064 3.650934
vt 0.561287 3.654345
vt 0.561283 3.651456
vt 0.438710 0.368804
vt 0.438708 0.366370
vt 0.439929 0.369516
vt 0.439926 0.366642
vt 0.441149 0.368804
vt 0.438708 0.363361
vt 0.441147 0.366370
vt 0.439926 0.363089
vt 0.438710 0.360927
vt 0.441146 0.363361
vt 0.439929 0.360215
vt 0.441148 0.360927
vt 0.559316 0.367652
vt 0.559318 0.365930
vt 0.560823 0.367652
vt 0.560825 0.365930
vt 0.559318 0.363801
vt 0.560825 0.363801
vt 0.559316 0.362079
vt 0.560823 0.362079
vt 0.438710 3.657235
vt 0.438713 3.654345
vt 0.439929 3.657759
vt 0.439932 3.654346
vt 0.438716 3.651456
vt 0.441148 3.657238
vt 0.439936 3.650934
vt 0.441152 3.654348
vt 0.441155 3.651458
vt 0.559316 3.656392
vt 0.559314 3.654347
vt 0.560823 3.656390
vt 0.560821 3.654346
vt 0.559312 3.652303
vt 0.560819 3.652302
vt 0.561284 0.360927
vt 0.561282 0.363361
vt 0.560064 0.360215
vt 0.560061 0.363089
vt 0.558845 0.360927
vt 0.561281 0.366370
vt 0.558843 0.363361
vt 0.560061 0.366642
vt 0.561283 0.368804
vt 0.558843 0.366370
vt 0.560064 0.369516
vt 0.558845 0.368804
vt 0.440688 0.362079
vt 0.440690 0.363801
vt 0.439181 0.362079
vt 0.439183 0.363801
vt 0.440690 0.365930
vt 0.439183 0.365930
vt 0.440688 0.367652
vt 0.439181 0.367652
vt 3.429825 0.337073
vt 3.431869 0.336416
vt 3.429824 0.338498
vt 3.432714 0.337568
vt 3.426935 0.337568
vt 3.433133 0.334694
vt 3.427781 0.336416
vt 3.434500 0.335134
vt 3.425149 0.335134
vt 3.433133 0.332565
vt 3.426517 0.334694
vt 3.434500 0.332125
vt 3.425149 0.332125
vt 3.431869 0.330843
vt 3.426517 0.332565
vt 3.432714 0.329691
vt 3.426935 0.329691
vt 3.429825 0.330185
vt 3.427781 0.330843
vt 3.429824 0.328761
vt -2.429827 0.338498
vt -2.432717 0.337568
vt -2.429826 0.337073
vt -2.431871 0.336416
vt -2.427782 0.336416
vt -2.434502 0.335134
vt -2.426938 0.337568
vt -2.433134 0.334694
vt -2.426519 0.334694
vt -2.434502 0.332125
vt -2.425152 0.335134
vt -2.433134 0.332565
vt -2.426519 0.332565
vt -2.432717 0.329691
vt -2.425152 0.332125
vt -2.431871 0.330843
vt -2.427782 0.330843
vt -2.429827 0.328761
vt -2.426938 0.329691
vt -2.429826 0.330185
vt -2.432714 0.337568
vt -2.431869 0.336416
vt -2.429824 0.338498
vt -2.429825 0.337073
vt -2.433133 0.334694
vt -2.426935 0.337568
vt -2.434500 0.335134
vt -2.427781 0.336416
vt -2.433133 0.332565
vt -2.425149 0.335134
vt -2.434500 0.332125
vt -2.426517 0.334694
vt -2.431869 0.330843
vt -2.425149 0.332125
vt -2.432714 0.329691
vt -2.426517 0.332565
vt -2.429825 0.330185
vt -2.426935 0.329691
vt -2.429824 0.328761
vt -2.427781 0.330843
vt 3.431871 0.336416
vt 3.432717 0.337568
vt 3.429826 0.337073
vt 3.429827 0.338498
vt 3.434502 0.335134
vt 3.427782 0.336416
vt 3.433134 0.334694
vt 3.426938 0.337568
vt 3.434502 0.332125
vt 3.426519 0.334694
vt 3.433134 0.332565
vt 3.425152 0.335134
vt 3.432717 0.329691
vt 3.426519 0.332565
vt 3.431871 0.330843
vt 3.425152 0.332125
vt 3.429827 0.328761
vt 3.427782 0.330843
vt 3.429826 0.330185
vt 3.426938 0.329691
vt -2.654346 0.368310
vt -2.654345 0.369734
vt -2.656390 0.367652
vt -2.657235 0.368804
vt -2.651456 0.368804
vt -2.657653 0.365930
vt -2.652302 0.367652
vt -2.659020 0.366370
vt -2.649670 0.366370
vt -2.657653 0.363801
vt -2.651038 0.365930
vt -2.659020 0.363361
vt -2.649670 0.363361
vt -2.656390 0.362079
vt -2.651038 0.363801
vt -2.657235 0.360927
vt -2.651456 0.360927
vt -2.654346 0.361421
vt -2.652302 0.362079
vt -2.654345 0.359997
vt 3.654348 0.369734
vt 3.654347 0.368310
vt 3.657238 0.368804
vt 3.656392 0.367652
vt 3.652303 0.367652
vt 3.659023 0.366370
vt 3.651459 0.368804
vt 3.657655 0.365930
vt 3.651040 0.365930
vt 3.659023 0.363361
vt 3.649673 0.366370
vt 3.657655 0.363801
vt 3.651040 0.363801
vt 3.657238 0.360927
vt 3.649673 0.363361
vt 3.656392 0.362079
vt 3.652303 0.362079
vt 3.654348 0.359997
vt 3.651459 0.360927
vt 3.654347 0.361421
vt 3.654346 0.368310
vt 3.656390 0.367652
vt 3.654345 0.369734
vt 3.657235 0.368804
vt 3.651456 0.368804
vt 3.657653 0.365930
vt 3.652302 0.367652
vt 3.659020 0.366370
vt 3.649670 0.366370
vt 3.657653 0.363801
vt 3.651038 0.365930
vt 3.659020 0.363361
vt 3.649670 0.363361
vt 3.656390 0.362079
vt 3.651038 0.363801
vt 3.657235 0.360927
vt 3.651456 0.360927
vt 3.654346 0.361421
vt 3.652302 0.362079
vt 3.654345 0.359997
vt -2.654348 0.369734
vt -2.657238 0.368804
vt -2.654347 0.368310
vt -2.656392 0.367652
vt -2.652303 0.367652
vt -2.659023 0.366370
vt -2.651459 0.368804
vt -2.657655 0.365930
vt -2.651040 0.365930
vt -2.659023 0.363361
vt -2.649672 0.366370
vt -2.657655 0.363801
vt -2.651040 0.363801
vt -2.657238 0.360927
vt -2.649672 0.363361
vt -2.656392 0.362079
vt -2.652303 0.362079
vt -2.654348 0.359997
vt -2.651458 0.360927
vt -2.654347 0.361421
s 1
g DidoX_Deckhouse_A1_001_9_DidoX_Deckhouse_A1_001_9_steel_5
usemtl steel_5
f 3/1/1 2/2/2 1/3/3
f 4/4/4 1/3/3 2/2/2
f 2/2/2 5/5/5 4/4/4
f 6/6/6 4/4/4 5/5/5
f 9/7/7 8/8/8 7/9/9
f 10/10/10 7/9/9 8/8/8
f 8/8/8 11/11/11 10/10/10
f 7/9/9 10/10/10 12/12/12
f 13/13/13 10/10/10 11/11/11
f 14/14/14 12/12/12 10/10/10
f 10/10/10 13/13/13 14/14/14
f 15/15/15 14/14/14 13/13/13
f 18/16/16 17/17/17 16/18/18
f 19/19/19 16/18/18 17/17/17
f 16/18/18 19/19/19 20/20/20
f 17/17/17 21/21/21 19/19/19
f 22/22/22 20/20/20 19/19/19
f 23/23/23 19/19/19 21/21/21
f 19/19/19 23/23/23 22/22/22
f 21/21/21 24/24/24 23/23/23
f 25/25/25 22/22/22 23/23/23
f 26/26/26 23/23/23 24/24/24
f 23/23/23 26/26/26 25/25/25
f 27/27/27 25/25/25 26/26/26
f 30/28/28 29/29/29 28/30/30
f 31/31/31 28/30/30 29/29/29
f 29/29/29 32/32/32 31/31/31
f 33/33/33 31/31/31 32/32/32
f 32/32/32 34/34/34 33/33/33
f 35/35/35 33/33/33 34/34/34
f 38/36/24 37/37/36 36/38/26
f 39/39/37 36/38/26 37/37/36
f 37/37/36 40/40/38 39/39/37
f 36/38/26 39/39/37 41/41/39
f 42/42/40 39/39/37 40/40/38
f 43/43/41 41/41/39 39/39/37
f 39/39/37 42/42/40 43/43/41
f 44/44/42 43/43/41 42/42/40
f 47/45/43 46/46/44 45/47/35
f 48/48/45 45/47/35 46/46/44
f 46/46/44 49/49/46 48/48/45
f 50/50/47 48/48/45 49/49/46
f 53/51/38 52/52/48 51/53/49
f 54/54/50 51/53/49 52/52/48
f 51/53/49 54/54/50 55/55/42
f 52/52/48 56/56/51 54/54/50
f 57/57/52 55/55/42 54/54/50
f 58/58/53 54/54/50 56/56/51
f 54/54/50 58/58/53 57/57/52
f 56/56/51 59/59/15 58/58/53
f 60/60/54 57/57/52 58/58/53
f 61/61/55 58/58/53 59/59/15
f 58/58/53 61/61/55 60/60/54
f 62/62/56 60/60/54 61/61/55
f 65/63/57 64/64/58 63/65/59
f 66/66/60 63/65/59 64/64/58
f 64/64/58 67/67/61 66/66/60
f 68/68/62 66/66/60 67/67/61
f 67/67/61 69/69/63 68/68/62
f 70/70/64 68/68/62 69/69/63
f 73/71/65 72/72/66 71/73/67
f 74/74/68 71/73/67 72/72/66
f 71/73/67 74/74/68 75/75/69
f 76/76/70 75/75/69 74/74/68
f 79/77/71 78/78/72 77/79/73
f 80/80/10 77/79/73 78/78/72
f 78/78/72 81/81/74 80/80/10
f 77/79/73 80/80/10 82/82/75
f 83/83/76 80/80/10 81/81/74
f 84/84/77 82/82/75 80/80/10
f 80/80/10 83/83/76 84/84/77
f 85/85/78 84/84/77 83/83/76
f 88/86/79 87/61/80 86/87/81
f 89/88/82 86/87/81 87/61/80
f 87/61/80 90/89/71 89/88/82
f 86/87/81 89/88/82 91/90/83
f 92/91/84 89/88/82 90/89/71
f 93/92/85 91/90/83 89/88/82
f 89/88/82 92/91/84 93/92/85
f 91/90/83 93/92/85 94/93/86
f 95/94/87 93/92/85 92/91/84
f 96/53/88 94/93/86 93/92/85
f 93/92/85 95/94/87 96/53/88
f 97/95/89 96/53/88 95/94/87
f 100/96/90 99/97/91 98/98/92
f 101/99/93 98/98/92 99/97/91
f 98/98/92 101/99/93 102/64/94
f 103/100/95 102/64/94 101/99/93
f 102/64/94 103/100/95 104/101/96
f 105/102/97 104/101/96 103/100/95
f 108/103/86 107/104/88 106/105/98
f 109/106/37 106/105/98 107/104/88
f 107/104/88 110/107/99 109/106/37
f 106/105/98 109/106/37 111/108/100
f 112/109/101 109/106/37 110/107/99
f 113/110/102 111/108/100 109/106/37
f 109/106/37 112/109/101 113/110/102
f 114/111/103 113/110/102 112/109/101
f 117/112/104 116/113/97 115/114/105
f 118/115/106 115/114/105 116/113/97
f 115/114/105 118/115/106 119/116/107
f 120/117/108 119/116/107 118/115/106
f 123/118/100 122/119/109 121/120/110
f 124/121/111 121/120/110 122/119/109
f 122/119/109 125/122/103 124/121/111
f 121/120/110 124/121/111 126/123/112
f 127/124/113 124/121/111 125/122/103
f 128/125/114 126/123/112 124/121/111
f 124/121/111 127/124/113 128/125/114
f 126/123/112 128/125/114 129/126/78
f 130/127/115 128/125/114 127/124/113
f 131/128/116 129/126/78 128/125/114
f 128/125/114 130/127/115 131/128/116
f 132/129/117 131/128/116 130/127/115
f 135/130/118 134/131/119 133/132/120
f 136/133/121 133/132/120 134/131/119
f 133/132/120 136/133/121 137/134/122
f 138/135/123 137/134/122 136/133/121
f 137/134/122 138/135/123 139/136/70
f 140/137/124 139/136/70 138/135/123
f 143/138/65 142/139/66 141/140/67
f 144/141/68 141/140/67 142/139/66
f 141/140/67 144/141/68 145/142/125
f 146/143/70 145/142/125 144/141/68
f 149/144/71 148/145/72 147/146/73
f 150/147/10 147/146/73 148/145/72
f 148/145/72 151/148/79 150/147/10
f 147/146/73 150/147/10 152/149/117
f 153/150/76 150/147/10 151/148/79
f 154/151/77 152/149/117 150/147/10
f 150/147/10 153/150/76 154/151/77
f 155/152/78 154/151/77 153/150/76
f 158/153/74 157/154/80 156/155/81
f 159/156/82 156/155/81 157/154/80
f 157/154/80 160/157/71 159/156/82
f 156/155/81 159/156/82 161/158/83
f 162/159/84 159/156/82 160/157/71
f 163/160/85 161/158/83 159/156/82
f 159/156/82 162/159/84 163/160/85
f 161/158/83 163/160/85 164/161/86
f 165/162/87 163/160/85 162/159/84
f 166/163/88 164/161/86 163/160/85
f 163/160/85 165/162/87 166/163/88
f 167/164/89 166/163/88 165/162/87
f 170/165/90 169/166/91 168/167/92
f 171/168/126 168/167/92 169/166/91
f 168/167/92 171/168/126 172/169/127
f 173/170/95 172/169/127 171/168/126
f 172/169/127 173/170/95 174/171/96
f 175/172/97 174/171/96 173/170/95
f 178/173/128 177/174/88 176/175/98
f 179/176/37 176/175/98 177/174/88
f 177/174/88 180/177/99 179/176/37
f 176/175/98 179/176/37 181/178/100
f 182/179/101 179/176/37 180/177/99
f 183/180/102 181/178/100 179/176/37
f 179/176/37 182/179/101 183/180/102
f 184/181/103 183/180/102 182/179/101
f 187/182/104 186/183/97 185/184/105
f 188/185/129 185/184/105 186/183/97
f 185/184/105 188/185/129 189/186/130
f 190/187/108 189/186/130 188/185/129
f 193/188/100 192/189/109 191/190/131
f 194/191/111 191/190/131 192/189/109
f 192/189/109 195/192/103 194/191/111
f 191/190/131 194/191/111 196/193/112
f 197/194/113 194/191/111 195/192/103
f 198/195/114 196/193/112 194/191/111
f 194/191/111 197/194/113 198/195/114
f 196/193/112 198/195/114 199/196/78
f 200/197/132 198/195/114 197/194/113
f 201/198/116 199/196/78 198/195/114
f 198/195/114 200/197/132 201/198/116
f 202/199/117 201/198/116 200/197/132
f 205/200/118 204/201/119 203/202/133
f 206/203/134 203/202/133 204/201/119
f 203/202/133 206/203/134 207/204/135
f 208/205/123 207/204/135 206/203/134
f 207/204/135 208/205/123 209/206/70
f 210/207/136 209/206/70 208/205/123
f 213/208/137 212/209/2 211/210/138
f 214/211/4 211/210/138 212/209/2
f 212/209/2 215/212/5 214/211/4
f 216/213/139 214/211/4 215/212/5
f 219/214/7 218/215/8 217/216/9
f 220/217/10 217/216/9 218/215/8
f 218/215/8 221/218/140 220/217/10
f 217/216/9 220/217/10 222/219/16
f 223/220/13 220/217/10 221/218/140
f 224/221/14 222/219/16 220/217/10
f 220/217/10 223/220/13 224/221/14
f 225/222/15 224/221/14 223/220/13
f 228/223/12 227/224/141 226/225/18
f 229/226/19 226/225/18 227/224/141
f 226/225/18 229/226/19 230/227/142
f 227/224/141 231/228/21 229/226/19
f 232/229/22 230/227/142 229/226/19
f 233/230/23 229/226/19 231/228/21
f 229/226/19 233/230/23 232/229/22
f 231/228/21 234/231/24 233/230/23
f 235/232/25 232/229/22 233/230/23
f 236/233/26 233/230/23 234/231/24
f 233/230/23 236/233/26 235/232/25
f 237/234/27 235/232/25 236/233/26
f 240/235/28 239/236/29 238/237/30
f 241/238/143 238/237/30 239/236/29
f 239/236/29 242/239/32 241/238/143
f 243/240/144 241/238/143 242/239/32
f 242/239/32 244/241/145 243/240/144
f 245/242/35 243/240/144 244/241/145
f 248/243/146 247/244/36 246/245/26
f 249/246/37 246/245/26 247/244/36
f 247/244/36 250/247/38 249/246/37
f 246/245/26 249/246/37 251/248/147
f 252/249/40 249/246/37 250/247/38
f 253/250/41 251/248/147 249/246/37
f 249/246/37 252/249/40 253/250/41
f 254/251/42 253/250/41 252/249/40
f 257/252/145 256/253/148 255/254/149
f 258/255/45 255/254/149 256/253/148
f 256/253/148 259/256/46 258/255/45
f 260/257/47 258/255/45 259/256/46
f 263/258/150 262/259/151 261/260/49
f 264/261/50 261/260/49 262/259/151
f 261/260/49 264/261/50 265/262/42
f 262/259/151 266/263/152 264/261/50
f 267/264/52 265/262/42 264/261/50
f 268/265/53 264/261/50 266/263/152
f 264/261/50 268/265/53 267/264/52
f 266/263/152 269/266/15 268/265/53
f 270/267/54 267/264/52 268/265/53
f 271/268/55 268/265/53 269/266/15
f 268/265/53 271/268/55 270/267/54
f 272/269/11 270/267/54 271/268/55
f 275/270/153 274/271/154 273/272/155
f 276/273/60 273/272/155 274/271/154
f 274/271/154 277/274/156 276/273/60
f 278/275/157 276/273/60 277/274/156
f 277/274/156 279/276/63 278/275/157
f 280/277/158 278/275/157 279/276/63
f 283/278/2 282/279/159 281/280/14
f 284/281/160 281/280/14 282/279/159
f 281/280/14 285/282/161 283/278/2
f 282/279/159 286/283/162 284/281/160
f 287/284/163 283/278/2 285/282/161
f 288/285/164 284/281/160 286/283/162
f 285/282/161 289/286/165 287/284/163
f 286/283/162 290/287/166 288/285/164
f 291/288/157 287/284/163 289/286/165
f 292/289/167 288/285/164 290/287/166
f 289/286/165 293/290/168 291/288/157
f 290/287/166 294/291/149 292/289/167
f 295/292/60 291/288/157 293/290/168
f 296/293/24 292/289/167 294/291/149
f 293/290/168 297/294/38 295/292/60
f 294/291/149 298/295/169 296/293/24
f 299/296/170 295/292/60 297/294/38
f 300/297/171 296/293/24 298/295/169
f 297/294/38 300/297/171 299/296/170
f 298/295/169 299/296/170 300/297/171
f 303/298/172 302/299/173 301/300/174
f 304/301/175 301/300/174 302/299/173
f 301/300/174 305/302/63 303/298/172
f 302/299/173 306/303/22 304/301/175
f 307/304/11 303/298/172 305/302/63
f 308/305/29 304/301/175 306/303/22
f 305/302/63 309/306/156 307/304/11
f 306/303/22 310/307/176 308/305/29
f 311/308/177 307/304/11 309/306/156
f 312/309/32 308/305/29 310/307/176
f 309/306/156 313/310/178 311/308/177
f 310/307/176 314/311/147 312/309/32
f 315/312/179 311/308/177 313/310/178
f 316/313/145 312/309/32 314/311/147
f 313/310/178 317/314/180 315/312/179
f 314/311/147 318/315/181 316/313/145
f 319/316/182 315/312/179 317/314/180
f 320/317/183 316/313/145 318/315/181
f 317/314/180 320/317/183 319/316/182
f 318/315/181 319/316/182 320/317/183
f 323/318/184 322/319/185 321/320/76
f 324/321/186 321/320/76 322/319/185
f 322/319/185 323/318/184 325/322/187
f 321/320/76 324/321/186 326/323/188
f 327/324/189 325/322/187 323/318/184
f 328/325/190 326/323/188 324/321/186
f 325/322/187 327/324/189 329/326/191
f 326/323/188 328/325/190 330/327/192
f 331/328/193 329/326/191 327/324/189
f 332/329/194 330/327/192 328/325/190
f 329/326/191 331/328/193 333/330/195
f 330/327/192 332/329/194 334/331/196
f 335/332/86 333/330/195 331/328/193
f 336/333/121 334/331/196 332/329/194
f 333/330/195 335/332/86 337/334/197
f 334/331/196 336/333/121 338/335/198
f 339/336/199 337/334/197 335/332/86
f 340/337/200 338/335/198 336/333/121
f 337/334/197 339/336/199 340/337/200
f 338/335/198 340/337/200 339/336/199
f 343/338/201 342/339/202 341/340/203
f 344/341/73 341/340/203 342/339/202
f 342/339/202 343/338/201 345/342/204
f 341/340/203 344/341/73 346/343/205
f 347/344/206 345/342/204 343/338/201
f 348/345/75 346/343/205 344/341/73
f 345/342/204 347/344/206 349/346/207
f 346/343/205 348/345/75 350/347/208
f 351/348/94 349/346/207 347/344/206
f 352/349/115 350/347/208 348/345/75
f 349/346/207 351/348/94 353/350/209
f 350/347/208 352/349/115 354/351/120
f 355/352/96 353/350/209 351/348/94
f 356/353/210 354/351/120 352/349/115
f 353/350/209 355/352/96 357/354/211
f 354/351/120 356/353/210 358/355/212
f 359/356/213 357/354/211 355/352/96
f 360/357/214 358/355/212 356/353/210
f 357/354/211 359/356/213 360/357/214
f 358/355/212 360/357/214 359/356/213
f 363/358/67 362/359/76 361/360/185
f 364/361/184 361/360/185 362/359/76
f 362/359/76 363/358/67 365/362/215
f 361/360/185 364/361/184 366/363/187
f 367/364/125 365/362/215 363/358/67
f 368/365/189 366/363/187 364/361/184
f 365/362/215 367/364/125 369/366/216
f 366/363/187 368/365/189 370/367/191
f 371/368/217 369/366/216 367/364/125
f 372/369/83 370/367/191 368/365/189
f 369/366/216 371/368/217 373/370/218
f 370/367/191 372/369/83 374/371/195
f 375/372/121 373/370/218 371/368/217
f 376/373/86 374/371/195 372/369/83
f 373/370/218 375/372/121 377/374/219
f 374/371/195 376/373/86 378/375/197
f 379/376/200 377/374/219 375/372/121
f 380/377/199 378/375/197 376/373/86
f 377/374/219 379/376/200 380/377/199
f 378/375/197 380/377/199 379/376/200
f 383/378/73 382/379/203 381/380/202
f 384/381/201 381/380/202 382/379/203
f 382/379/203 383/378/73 385/382/205
f 381/380/202 384/381/201 386/383/204
f 387/384/75 385/382/205 383/378/73
f 388/385/206 386/383/204 384/381/201
f 385/382/205 387/384/75 389/386/122
f 386/383/204 388/385/206 390/387/207
f 391/388/220 389/386/122 387/384/75
f 392/389/94 390/387/207 388/385/206
f 389/386/122 391/388/220 393/390/120
f 390/387/207 392/389/94 394/391/209
f 395/392/210 393/390/120 391/388/220
f 396/393/96 394/391/209 392/389/94
f 393/390/120 395/392/210 397/394/212
f 394/391/209 396/393/96 398/395/221
f 399/396/214 397/394/212 395/392/210
f 400/397/213 398/395/221 396/393/96
f 397/394/212 399/396/214 400/397/213
f 398/395/221 400/397/213 399/396/214
f 403/398/2 402/399/159 401/400/14
f 404/401/160 401/400/14 402/399/159
f 401/400/14 405/402/222 403/398/2
f 402/399/159 406/403/162 404/401/160
f 407/404/163 403/398/2 405/402/222
f 408/405/164 404/401/160 406/403/162
f 405/402/222 409/406/165 407/404/163
f 406/403/162 410/407/223 408/405/164
f 411/408/157 407/404/163 409/406/165
f 412/409/167 408/405/164 410/407/223
f 409/406/165 413/410/168 411/408/157
f 410/407/223 414/411/224 412/409/167
f 415/412/60 411/408/157 413/410/168
f 416/413/24 412/409/167 414/411/224
f 413/410/168 417/414/38 415/412/60
f 414/411/224 418/415/169 416/413/24
f 419/416/225 415/412/60 417/414/38
f 420/417/171 416/413/24 418/415/169
f 417/414/38 420/417/171 419/416/225
f 418/415/169 419/416/225 420/417/171
f 423/418/172 422/419/173 421/420/174
f 424/421/226 421/420/174 422/419/173
f 421/420/174 425/422/63 423/418/172
f 422/419/173 426/423/22 424/421/226
f 427/424/11 423/418/172 425/422/63
f 428/425/29 424/421/226 426/423/22
f 425/422/63 429/426/156 427/424/11
f 426/423/22 430/427/176 428/425/29
f 431/428/177 427/424/11 429/426/156
f 432/429/32 428/425/29 430/427/176
f 429/426/156 433/430/227 431/428/177
f 430/427/176 434/431/147 432/429/32
f 435/432/179 431/428/177 433/430/227
f 436/433/145 432/429/32 434/431/147
f 433/430/227 437/434/180 435/432/179
f 434/431/147 438/435/181 436/433/145
f 439/436/182 435/432/179 437/434/180
f 440/437/183 436/433/145 438/435/181
f 437/434/180 440/437/183 439/436/182
f 438/435/181 439/436/182 440/437/183
