# Blender 5.1.0
# www.blender.org
mtllib DidoX_Deckhouse_A1_001_2_DidoX_Deckhouse_A1_001_2.mtl
o DidoX_Deckhouse_A1_001_2_DidoX_Deckhouse_A1_001_2
v 0.000001 22.664429 4.000010
v -3.908408 19.307476 4.000005
v -1.302466 22.664429 4.000010
v -3.908286 13.122062 4.000000
v 3.908410 19.307476 4.000005
v 1.302468 22.664429 4.000010
v -3.908040 1.278510 3.999999
v -3.808225 13.030156 3.999999
v 0.000001 1.278510 4.000006
v 3.908040 1.278510 3.999999
v 3.908288 13.122062 4.000000
v 3.808227 13.030156 3.999998
v -7.262346 1.816831 3.982784
v -7.205049 3.080360 3.321537
v -6.976988 1.900081 3.589777
v -7.562563 3.080364 3.900435
v -7.774093 4.482687 3.857831
v -7.432954 4.482686 3.136740
v -7.528389 5.475403 3.080156
v -7.840736 5.475405 3.850838
v -7.826954 6.373148 3.864555
v -7.549531 6.373147 3.092686
v -7.449210 7.362275 3.148884
v -7.718305 7.362276 3.903095
v -7.287982 8.085011 3.218711
v -7.567673 8.109755 3.949365
v -7.234288 8.696024 4.040109
v -7.058517 8.501453 3.254971
v -6.734897 9.084364 4.125148
v -7.058517 8.501453 3.254971
v -7.234288 8.696024 4.040109
v -6.734897 8.868713 3.265361
v -6.411282 8.501453 3.254971
v -6.235511 8.696024 4.040109
v -6.976988 1.900081 3.589777
v -6.734960 1.816831 3.982784
v -7.262346 1.816831 3.982784
v -6.492813 1.900079 3.589777
v -6.207455 1.816831 3.982784
v -6.976988 1.900081 3.589777
v -6.264752 3.080360 3.321537
v -6.492813 1.900079 3.589777
v -7.205049 3.080360 3.321537
v -6.036846 4.482686 3.136740
v -7.432954 4.482686 3.136740
v -7.528389 5.475403 3.080156
v -5.941411 5.475403 3.080156
v -5.920269 6.373147 3.092686
v -7.549531 6.373147 3.092686
v -6.020589 7.362275 3.148884
v -7.449210 7.362275 3.148884
v -7.287982 8.085011 3.218711
v -6.181817 8.085011 3.218711
v -7.058517 8.501453 3.254971
v -6.411282 8.501453 3.254971
v -6.734897 8.868713 3.265361
v -6.264752 3.080360 3.321537
v -6.207455 1.816831 3.982784
v -6.492813 1.900079 3.589777
v -5.907237 3.080364 3.900435
v -5.695707 4.482687 3.857831
v -6.036846 4.482686 3.136740
v -5.629064 5.475405 3.850838
v -5.941411 5.475403 3.080156
v -5.642845 6.373148 3.864555
v -5.920269 6.373147 3.092686
v -5.751495 7.362276 3.903095
v -6.020589 7.362275 3.148884
v -6.181817 8.085011 3.218711
v -5.902126 8.109755 3.949365
v -6.235511 8.696024 4.040109
v -6.411282 8.501453 3.254971
v -6.703838 2.612981 4.055235
v -6.766082 2.611072 4.117449
v -6.766082 2.612981 4.055235
v -6.703838 2.611072 4.117449
v -6.693117 1.538318 4.011536
v -6.766082 2.612981 4.055235
v -6.776804 1.538318 4.011536
v -6.703838 2.612981 4.055235
v -6.776804 1.538318 4.011536
v -6.766082 2.611072 4.117449
v -6.776805 1.535725 4.095184
v -6.766082 2.612981 4.055235
v -6.776805 1.535725 4.095184
v -6.703838 2.611072 4.117449
v -6.693117 1.535725 4.095184
v -6.766082 2.611072 4.117449
v -6.693117 1.535725 4.095184
v -6.703838 2.612981 4.055235
v -6.693117 1.538318 4.011536
v -6.703838 2.611072 4.117449
v -3.808139 20.914940 1.999991
v -3.908530 19.307505 1.999993
v -3.908151 20.914923 1.999991
v -1.302466 22.664438 1.999994
v -3.807962 24.029003 1.999991
v -3.071055 24.029003 2.000059
v 0.000001 30.166367 1.999993
v -3.070965 24.128733 2.000057
v 0.000001 22.664438 1.999994
v -3.907772 24.128765 1.999990
v -3.907393 30.166267 1.999988
v -1.302463 33.523190 1.999988
v 0.000002 33.523190 1.999988
v 1.302466 33.523190 1.999988
v 3.907396 30.166267 1.999988
v 3.907775 24.128765 1.999989
v 3.070967 24.128733 2.000057
v 3.071057 24.029003 2.000058
v 1.302468 22.664438 1.999994
v 3.807964 24.029003 1.999990
v 3.808141 20.914940 1.999991
v 3.908532 19.307505 1.999992
v 3.908153 20.914923 1.999991
v 7.205050 3.080360 3.321536
v 7.262347 1.816830 3.982783
v 6.976989 1.900080 3.589777
v 7.562564 3.080364 3.900434
v 7.774094 4.482686 3.857830
v 7.432955 4.482685 3.136740
v 7.528389 5.475402 3.080155
v 7.840737 5.475404 3.850837
v 7.826955 6.373147 3.864555
v 7.549532 6.373146 3.092685
v 7.449211 7.362274 3.148883
v 7.718306 7.362275 3.903095
v 7.287983 8.085011 3.218711
v 7.567674 8.109755 3.949365
v 7.234289 8.696024 4.040108
v 7.058517 8.501453 3.254970
v 7.058517 8.501453 3.254970
v 6.734898 9.084364 4.125147
v 7.234289 8.696024 4.040108
v 6.734898 8.868713 3.265360
v 6.411283 8.501453 3.254970
v 6.235512 8.696024 4.040108
v 6.976989 1.900080 3.589777
v 7.262347 1.816830 3.982783
v 6.734961 1.816830 3.982783
v 6.492814 1.900078 3.589777
v 6.207456 1.816830 3.982783
v 6.264753 3.080360 3.321536
v 6.976989 1.900080 3.589777
v 6.492814 1.900078 3.589777
v 7.205050 3.080360 3.321536
v 6.036847 4.482685 3.136740
v 7.432955 4.482685 3.136740
v 7.528389 5.475402 3.080155
v 5.941412 5.475402 3.080155
v 5.920269 6.373146 3.092685
v 7.549532 6.373146 3.092685
v 6.020590 7.362274 3.148883
v 7.449211 7.362274 3.148883
v 7.287983 8.085011 3.218711
v 6.181818 8.085011 3.218711
v 7.058517 8.501453 3.254970
v 6.411283 8.501453 3.254970
v 6.734898 8.868713 3.265360
v 6.207456 1.816830 3.982783
v 6.264753 3.080360 3.321536
v 6.492814 1.900078 3.589777
v 5.907238 3.080364 3.900434
v 5.695708 4.482686 3.857830
v 6.036847 4.482685 3.136740
v 5.629065 5.475404 3.850837
v 5.941412 5.475402 3.080155
v 5.642846 6.373147 3.864555
v 5.920269 6.373146 3.092685
v 5.751496 7.362275 3.903095
v 6.020590 7.362274 3.148883
v 6.181818 8.085011 3.218711
v 5.902127 8.109755 3.949365
v 6.235512 8.696024 4.040108
v 6.411283 8.501453 3.254970
v 6.703839 2.612980 4.055234
v 6.766083 2.611071 4.117448
v 6.703839 2.611071 4.117448
v 6.766083 2.612980 4.055234
v 6.693118 1.538317 4.011535
v 6.766083 2.612980 4.055234
v 6.703839 2.612980 4.055234
v 6.776805 1.538317 4.011535
v 6.776805 1.538317 4.011535
v 6.766083 2.611071 4.117448
v 6.766083 2.612980 4.055234
v 6.776806 1.535725 4.095183
v 6.776806 1.535725 4.095183
v 6.703839 2.611071 4.117448
v 6.766083 2.611071 4.117448
v 6.693118 1.535725 4.095183
v 6.693118 1.535725 4.095183
v 6.703839 2.612980 4.055234
v 6.703839 2.611071 4.117448
v 6.693118 1.538317 4.011535
vn -0.0000 -0.0000 1.0000
vn 0.7472 0.2812 0.6021
vn 0.8362 0.2006 0.5105
vn 0.7755 0.2648 0.5731
vn 0.8361 0.1849 0.5164
vn 0.8944 0.1363 0.4260
vn 0.8931 0.1542 0.4225
vn 0.9249 0.0412 0.3779
vn 0.9266 0.0220 0.3755
vn 0.9364 -0.0578 0.3461
vn 0.9400 -0.0475 0.3379
vn 0.9271 -0.1750 0.3313
vn 0.9259 -0.1681 0.3383
vn 0.8721 -0.3614 0.3299
vn 0.8672 -0.3598 0.3442
vn 0.6769 -0.6623 0.3212
vn 0.7588 -0.5924 0.2707
vn 0.6763 -0.6629 0.3212
vn 0.7584 -0.5930 0.2704
vn -0.0000 -0.9415 0.3371
vn -0.0000 -0.9700 0.2433
vn -0.7584 -0.5930 0.2705
vn -0.6763 -0.6629 0.3213
vn -0.0000 0.9783 0.2072
vn -0.0000 0.2216 0.9751
vn -0.0000 0.1713 0.9852
vn -0.0000 0.0908 0.9959
vn -0.0000 0.0201 0.9998
vn -0.0000 -0.0348 0.9994
vn -0.0000 -0.0744 0.9972
vn -0.0000 -0.0926 0.9957
vn -0.0000 -0.0698 0.9976
vn -0.0000 -0.0283 0.9996
vn -0.7472 0.2812 0.6021
vn -0.7755 0.2648 0.5731
vn -0.8362 0.2006 0.5105
vn -0.8361 0.1849 0.5164
vn -0.8904 0.1226 0.4383
vn -0.9003 0.1408 0.4118
vn -0.9216 0.0346 0.3866
vn -0.9289 0.0539 0.3663
vn -0.9362 -0.0583 0.3466
vn -0.9401 -0.0480 0.3374
vn -0.9258 -0.1676 0.3388
vn -0.9274 -0.1745 0.3309
vn -0.8721 -0.3614 0.3299
vn -0.8672 -0.3598 0.3442
vn -0.6769 -0.6623 0.3213
vn -0.7588 -0.5924 0.2707
vn -0.0000 0.9995 0.0307
vn -0.0000 0.0406 -0.9992
vn -1.0000 0.0100 0.0003
vn -0.0000 -0.0207 0.9998
vn 1.0000 0.0100 0.0003
vn -0.0000 -0.0001 1.0000
vn -0.0001 -0.0000 1.0000
vn 0.0001 -0.0000 1.0000
vn -0.8944 0.1363 0.4260
vn -0.8931 0.1542 0.4225
vn -0.9249 0.0412 0.3779
vn -0.9266 0.0220 0.3755
vn -0.9364 -0.0578 0.3461
vn -0.9400 -0.0475 0.3379
vn -0.9271 -0.1750 0.3313
vn -0.9259 -0.1681 0.3383
vn -0.7583 -0.5931 0.2705
vn 0.6763 -0.6629 0.3211
vn 0.8904 0.1226 0.4383
vn 0.9003 0.1408 0.4118
vn 0.9216 0.0346 0.3866
vn 0.9289 0.0539 0.3663
vn 0.9362 -0.0583 0.3466
vn 0.9401 -0.0480 0.3374
vn 0.9258 -0.1676 0.3388
vn 0.9274 -0.1745 0.3309
vt 0.500000 0.568955
vt 0.557700 0.495968
vt 0.442300 0.495968
vt -2.767644 0.375415
vt -2.749721 0.371381
vt -2.768908 0.381325
vt -2.749721 0.380087
vt -2.728426 0.379446
vt -2.728426 0.368602
vt -2.713351 0.367751
vt -2.713351 0.379341
vt -2.699718 0.379548
vt -2.699718 0.367940
vt -2.684698 0.368785
vt -2.684698 0.380127
vt -2.673723 0.369835
vt -2.673347 0.380823
vt -2.664445 0.382188
vt -2.667399 0.370380
vt 0.390527 0.382188
vt 0.393187 0.370380
vt 0.398084 0.383466
vt 0.398084 0.370537
vt 0.402981 0.370380
vt 0.405640 0.382188
vt 0.609898 0.381325
vt 0.601918 0.381325
vt 0.605580 0.375415
vt 0.598253 0.375415
vt 0.593935 0.381325
vt 0.598253 3.767644
vt 0.594802 3.749721
vt 0.605580 3.767644
vt 0.609031 3.749721
vt 0.591354 3.728426
vt 0.612479 3.728426
vt 0.613924 3.713351
vt 0.589909 3.713351
vt 0.589589 3.699718
vt 0.614243 3.699718
vt 0.591108 3.684698
vt 0.612725 3.684698
vt 0.610286 3.673723
vt 0.593547 3.673723
vt 0.606813 3.667399
vt 0.597019 3.667399
vt 0.601916 3.661822
vt 3.767644 0.375415
vt 3.768908 0.381325
vt 3.749721 0.371381
vt 3.749721 0.380087
vt 3.728426 0.379446
vt 3.728426 0.368602
vt 3.713351 0.379341
vt 3.713351 0.367751
vt 3.699718 0.379548
vt 3.699718 0.367940
vt 3.684698 0.380127
vt 3.684698 0.368785
vt 3.673723 0.369835
vt 3.673347 0.380823
vt 3.664445 0.382188
vt 3.667399 0.370380
vt 0.602388 0.382415
vt 0.602388 0.383351
vt 0.601447 0.382415
vt 0.601447 0.383351
vt 0.397449 3.773137
vt 0.397612 3.756818
vt 0.398716 3.773137
vt 0.398553 3.756818
vt 3.773176 0.383016
vt 3.756847 0.383351
vt 3.773137 0.381758
vt 3.756818 0.382415
vt 0.601284 3.773176
vt 0.601447 3.756847
vt 0.602551 3.773176
vt 0.602388 3.756847
vt -2.773137 0.381758
vt -2.756818 0.382415
vt -2.773176 0.383016
vt -2.756847 0.383351
vt 0.559142 3.478896
vt 0.559148 3.503305
vt 0.557629 3.478896
vt 0.519713 3.452329
vt 0.557626 3.431607
vt 0.546475 3.431607
vt 0.500004 3.338409
vt 0.546474 3.430093
vt 0.500004 3.452329
vt 0.559136 3.430092
vt 0.559130 3.338411
vt 0.519713 3.287435
vt 0.500004 3.287435
vt 0.480295 3.287435
vt 0.440877 3.338411
vt 0.440872 3.430092
vt 0.453534 3.430093
vt 0.453533 3.431607
vt 0.480295 3.452329
vt 0.442382 3.431607
vt 0.442379 3.478896
vt 0.440860 3.503305
vt 0.440866 3.478896
vt 3.699718 0.379547
vt 0.609465 0.382188
vt 0.601908 0.383466
vt 0.606805 0.370380
vt 0.601908 0.370537
vt 0.597011 0.370380
vt 0.594351 0.382188
vt 0.398091 0.381325
vt 0.390111 0.381325
vt 0.394429 0.375415
vt 0.401755 0.375415
vt 0.406073 0.381325
vt 0.401755 3.767644
vt 0.394429 3.767644
vt 0.405206 3.749721
vt 0.390978 3.749721
vt 0.408655 3.728426
vt 0.387529 3.728426
vt 0.386085 3.713351
vt 0.410099 3.713351
vt 0.410419 3.699718
vt 0.385765 3.699718
vt 0.408901 3.684698
vt 0.387283 3.684698
vt 0.389723 3.673723
vt 0.406461 3.673723
vt 0.393195 3.667399
vt 0.402989 3.667399
vt 0.398092 3.661822
vt 0.398562 0.383351
vt 0.397620 0.383351
vt 0.398562 0.382415
vt 0.397620 0.382415
vt 0.601438 3.756818
vt 0.602380 3.756818
vt 0.601276 3.773137
vt 0.602542 3.773137
vt 0.397620 3.756847
vt 0.398562 3.756847
vt 0.397458 3.773176
vt 0.398724 3.773176
vt 0.519734 0.568955
vt 0.559218 0.543524
vt 0.559216 0.496664
vt 0.559213 0.406941
vt 0.500000 0.406941
vt 0.440787 0.406941
vt 0.440784 0.496664
vt 0.440782 0.543524
vt 0.480266 0.568955
s 1
g DidoX_Deckhouse_A1_001_2_DidoX_Deckhouse_A1_001_2_wood_deck_1
usemtl wood_deck_1
f 1/1/1 8/2/1 12/3/1
f 15/4/2 14/5/3 13/6/4
f 16/7/5 13/6/4 14/5/3
f 16/7/5 14/5/3 17/8/6
f 18/9/7 17/8/6 14/5/3
f 18/9/7 19/10/8 17/8/6
f 20/11/9 17/8/6 19/10/8
f 20/11/9 19/10/8 21/12/10
f 22/13/11 21/12/10 19/10/8
f 22/13/11 23/14/12 21/12/10
f 24/15/13 21/12/10 23/14/12
f 23/14/12 25/16/14 24/15/13
f 26/17/15 24/15/13 25/16/14
f 26/17/15 25/16/14 27/18/16
f 28/19/17 27/18/16 25/16/14
f 31/20/18 30/21/19 29/22/20
f 32/23/21 29/22/20 30/21/19
f 32/23/21 33/24/22 29/22/20
f 34/25/23 29/22/20 33/24/22
f 37/26/24 36/27/24 35/28/24
f 38/29/24 35/28/24 36/27/24
f 38/29/24 36/27/24 39/30/24
f 42/31/25 41/32/26 40/33/25
f 43/34/26 40/33/25 41/32/26
f 41/32/26 44/35/27 43/34/26
f 45/36/27 43/34/26 44/35/27
f 45/36/27 44/35/27 46/37/28
f 47/38/28 46/37/28 44/35/27
f 47/38/28 48/39/29 46/37/28
f 49/40/29 46/37/28 48/39/29
f 48/39/29 50/41/30 49/40/29
f 51/42/30 49/40/29 50/41/30
f 51/42/30 50/41/30 52/43/31
f 53/44/31 52/43/31 50/41/30
f 52/43/31 53/44/31 54/45/32
f 55/46/32 54/45/32 53/44/31
f 55/46/32 56/47/33 54/45/32
f 59/48/34 58/49/35 57/50/36
f 60/51/37 57/50/36 58/49/35
f 60/51/37 61/52/38 57/50/36
f 62/53/39 57/50/36 61/52/38
f 61/52/38 63/54/40 62/53/39
f 64/55/41 62/53/39 63/54/40
f 63/54/40 65/56/42 64/55/41
f 66/57/43 64/55/41 65/56/42
f 65/56/42 67/58/44 66/57/43
f 68/59/45 66/57/43 67/58/44
f 68/59/45 67/58/44 69/60/46
f 70/61/47 69/60/46 67/58/44
f 70/61/47 71/62/48 69/60/46
f 72/63/49 69/60/46 71/62/48
f 75/64/50 74/65/50 73/66/50
f 76/67/50 73/66/50 74/65/50
f 79/68/51 78/69/51 77/70/51
f 80/71/51 77/70/51 78/69/51
f 83/72/52 82/73/52 81/74/52
f 84/75/52 81/74/52 82/73/52
f 87/76/53 86/77/53 85/78/53
f 88/79/53 85/78/53 86/77/53
f 91/80/54 90/81/54 89/82/54
f 92/83/54 89/82/54 90/81/54
f 95/84/1 94/85/1 93/86/1
f 96/87/1 93/86/1 94/85/1
f 93/86/1 96/87/1 97/88/55
f 98/89/55 97/88/55 96/87/1
f 96/87/1 99/90/1 98/89/55
f 100/91/1 98/89/55 99/90/1
f 96/87/1 101/92/1 99/90/1
f 100/91/1 99/90/1 102/93/56
f 103/94/1 102/93/56 99/90/1
f 103/94/1 99/90/1 104/95/1
f 105/96/1 104/95/1 99/90/1
f 105/96/1 99/90/1 106/97/1
f 107/98/1 106/97/1 99/90/1
f 107/98/1 99/90/1 108/99/57
f 109/100/1 108/99/57 99/90/1
f 109/100/1 99/90/1 110/101/55
f 101/92/1 111/102/1 99/90/1
f 111/102/1 110/101/55 99/90/1
f 110/101/55 111/102/1 112/103/55
f 113/104/1 112/103/55 111/102/1
f 111/102/1 114/105/1 113/104/1
f 115/106/1 113/104/1 114/105/1
f 118/48/34 117/49/35 116/50/36
f 119/51/37 116/50/36 117/49/35
f 119/51/37 120/52/58 116/50/36
f 121/53/59 116/50/36 120/52/58
f 121/53/59 120/52/58 122/55/60
f 123/54/61 122/55/60 120/52/58
f 123/54/61 124/107/62 122/55/60
f 125/57/63 122/55/60 124/107/62
f 125/57/63 124/107/62 126/59/64
f 127/58/65 126/59/64 124/107/62
f 126/59/64 127/58/65 128/60/46
f 129/61/47 128/60/46 127/58/65
f 129/61/47 130/62/48 128/60/46
f 131/63/49 128/60/46 130/62/48
f 134/108/23 133/109/20 132/110/66
f 135/111/21 132/110/66 133/109/20
f 135/111/21 133/109/20 136/112/19
f 137/113/67 136/112/19 133/109/20
f 140/114/24 139/115/24 138/116/24
f 138/116/24 141/117/24 140/114/24
f 140/114/24 141/117/24 142/118/24
f 145/119/25 144/120/25 143/121/26
f 146/122/26 143/121/26 144/120/25
f 143/121/26 146/122/26 147/123/27
f 148/124/27 147/123/27 146/122/26
f 148/124/27 149/125/28 147/123/27
f 150/126/28 147/123/27 149/125/28
f 150/126/28 149/125/28 151/127/29
f 152/128/29 151/127/29 149/125/28
f 151/127/29 152/128/29 153/129/30
f 154/130/30 153/129/30 152/128/29
f 154/130/30 155/131/31 153/129/30
f 156/132/31 153/129/30 155/131/31
f 155/131/31 157/133/32 156/132/31
f 158/134/32 156/132/31 157/133/32
f 159/135/33 158/134/32 157/133/32
f 162/4/2 161/5/3 160/6/4
f 163/7/5 160/6/4 161/5/3
f 163/7/5 161/5/3 164/8/68
f 165/9/69 164/8/68 161/5/3
f 164/8/68 165/9/69 166/11/70
f 167/10/71 166/11/70 165/9/69
f 166/11/70 167/10/71 168/12/72
f 169/13/73 168/12/72 167/10/71
f 168/12/72 169/13/73 170/15/74
f 171/14/75 170/15/74 169/13/73
f 171/14/75 172/16/14 170/15/74
f 173/17/15 170/15/74 172/16/14
f 173/17/15 172/16/14 174/18/16
f 175/19/17 174/18/16 172/16/14
f 178/136/50 177/137/50 176/138/50
f 179/139/50 176/138/50 177/137/50
f 182/140/51 181/141/51 180/142/51
f 183/143/51 180/142/51 181/141/51
f 186/81/54 185/83/54 184/80/54
f 187/82/54 184/80/54 185/83/54
f 190/144/53 189/145/53 188/146/53
f 191/147/53 188/146/53 189/145/53
f 194/73/52 193/75/52 192/72/52
f 195/74/52 192/72/52 193/75/52
f 1/1/1 3/148/1 2/149/1
f 2/149/1 4/150/1 8/2/1
f 8/2/1 7/151/1 9/152/1
f 9/152/1 10/153/1 12/3/1
f 12/3/1 11/154/1 5/155/1
f 5/155/1 6/156/1 1/1/1
f 1/1/1 2/149/1 8/2/1
f 8/2/1 9/152/1 12/3/1
f 12/3/1 5/155/1 1/1/1
