# Blender 5.1.0
# www.blender.org
mtllib DidoX_Deckhouse_A1_001_1_DidoX_Deckhouse_A1_001_1.mtl
o DidoX_Deckhouse_A1_001_1_DidoX_Deckhouse_A1_001_1
v -3.757301 30.119568 1.849989
v -1.235952 33.387424 1.849983
v -3.750692 32.999546 2.490268
v -1.235952 33.387424 1.849983
v -2.898963 35.591984 3.026307
v -3.750692 32.999546 2.490268
v 3.757298 30.119568 1.849989
v 3.746684 32.999542 2.490267
v 1.235959 33.387424 1.849983
v 1.235959 33.387424 1.849983
v 3.746684 32.999542 2.490267
v 2.898970 35.591984 3.026306
v -3.748963 11.099935 1.847583
v -2.604942 11.099936 0.000000
v -3.748963 11.099935 0.000000
v -2.604942 11.099935 1.847583
v -3.907671 4.483245 1.847572
v -3.748963 8.286299 1.847583
v -3.907760 8.286232 1.847584
v -2.604942 4.483331 1.847583
v -2.604942 11.099935 1.847583
v -3.748963 11.099935 1.847583
v -3.748963 11.099935 0.000000
v -3.748963 8.286299 1.847583
v -3.748963 11.099935 1.847583
v -3.748963 8.286300 0.000000
v -2.604942 4.483331 1.847583
v -2.604942 11.099936 0.000000
v -2.604942 11.099935 1.847583
v -2.604930 4.483333 0.000017
v -6.989688 9.232023 1.847586
v -6.989689 1.278337 1.847586
v -3.907638 1.278369 1.847570
v -3.907671 4.483245 1.847572
v -3.907760 8.286232 1.847584
v -3.907954 11.216530 1.854524
v -5.448918 11.216524 1.854525
v -1.128176 1.488679 1.426491
v 0.000000 1.488665 -0.000013
v -1.128167 1.488698 -0.000010
v 0.000000 1.488660 1.426487
v 1.128176 1.488679 1.426491
v 1.128168 1.488698 -0.000010
v 3.748964 11.099935 1.847582
v 2.604943 11.099936 0.000000
v 2.604943 11.099935 1.847582
v 3.748964 11.099935 0.000000
v 3.748964 8.286299 1.847583
v 3.907671 4.483245 1.847572
v 3.907761 8.286232 1.847584
v 2.604943 4.483331 1.847582
v 2.604943 11.099935 1.847582
v 3.748964 11.099935 1.847582
v 3.748964 11.099935 0.000000
v 3.748964 8.286299 1.847583
v 3.748964 8.286300 0.000000
v 3.748964 11.099935 1.847582
v 2.604943 4.483331 1.847582
v 2.604943 11.099936 0.000000
v 2.604930 4.483333 0.000016
v 2.604943 11.099935 1.847582
v 6.989689 9.232023 1.847585
v 3.907638 1.278369 1.847570
v 6.989689 1.278336 1.847585
v 3.907671 4.483245 1.847572
v 3.907761 8.286232 1.847584
v 3.907955 11.216530 1.854524
v 5.448919 11.216524 1.854524
v -1.235952 33.387424 1.849983
v 0.000003 35.592152 3.026209
v -2.898963 35.591984 3.026307
v 0.000003 33.387424 1.849983
v 1.235959 33.387424 1.849983
v 2.898970 35.591984 3.026306
v 0.000000 -0.000011 1.426474
v -1.128176 1.488679 1.426491
v -1.128176 0.000008 1.426478
v 0.000000 1.488660 1.426487
v 1.128176 0.000008 1.426478
v 1.128176 1.488679 1.426491
v -1.128176 0.000008 1.426478
v -1.128167 1.488698 -0.000010
v -1.128168 0.000027 -0.000022
v -1.128176 1.488679 1.426491
v 1.128168 0.000027 -0.000022
v 1.128176 1.488679 1.426491
v 1.128176 0.000008 1.426478
v 1.128168 1.488698 -0.000010
vn -0.2715 0.2095 -0.9394
vn -0.2773 0.2811 -0.9188
vn 0.2719 0.2098 -0.9392
vn 0.2777 0.2808 -0.9187
vn -0.0000 -1.0000 -0.0000
vn -0.0000 -0.0000 -1.0000
vn 1.0000 -0.0000 -0.0000
vn -1.0000 -0.0000 -0.0000
vn -0.0000 -0.0001 -1.0000
vn 0.0003 0.0031 -1.0000
vn -0.0000 0.0035 -1.0000
vn -0.0005 0.0028 -1.0000
vn -0.0001 0.4707 -0.8823
vn -0.0000 0.4707 -0.8823
vn 0.0001 0.4707 -0.8823
vt 0.443241 3.295386
vt 0.481294 3.289496
vt 0.443141 3.339120
vt 0.456129 3.256019
vt 0.518699 3.289496
vt 0.556691 3.295386
vt 0.556852 3.339120
vt 0.543863 3.256019
vt 0.443267 0.321430
vt 0.460578 0.321430
vt 0.443267 0.349215
vt 0.460578 0.349215
vt 0.440864 3.670667
vt 0.443267 3.670666
vt 0.440865 3.728417
vt 0.460578 3.728416
vt 0.460578 3.627940
vt 0.443267 3.627940
vt -2.627940 0.349215
vt -2.670666 0.349215
vt -2.627940 0.321430
vt -2.670666 0.321430
vt 3.627940 0.349215
vt 3.627940 0.321430
vt 3.728416 0.349215
vt 3.728416 0.321431
vt 0.440865 3.777085
vt 0.394228 3.777085
vt 0.394228 3.656305
vt 0.440861 3.626170
vt 0.417543 3.626170
vt 0.482924 0.321430
vt 0.499996 0.321430
vt 0.482924 0.342883
vt 0.499996 0.342883
vt 0.517067 0.342883
vt 0.517067 0.321430
vt 0.539414 0.349215
vt 0.539414 0.321430
vt 0.556725 0.349215
vt 0.556725 0.321430
vt 0.559128 3.670667
vt 0.559126 3.728417
vt 0.556725 3.670666
vt 0.539414 3.728416
vt 0.539414 3.627940
vt 0.556725 3.627940
vt 3.670666 0.321430
vt 3.670666 0.349215
vt -2.728416 0.321431
vt -2.728416 0.349215
vt 0.605763 3.777085
vt 0.559126 3.777085
vt 0.605764 3.656305
vt 0.559131 3.626170
vt 0.582449 3.626170
vt 0.499996 3.256016
vt 0.499996 3.289496
vt 0.482924 3.796497
vt 0.482924 3.773891
vt 0.499996 3.796497
vt 0.499996 3.773891
vt 0.517067 3.796497
vt 0.517067 3.773891
vt -2.796497 0.321430
vt -2.773891 0.321430
vt -2.796497 0.342883
vt -2.773891 0.342883
vt 3.796497 0.342883
vt 3.773891 0.342883
vt 3.796497 0.321430
vt 3.773891 0.321430
s 1
g DidoX_Deckhouse_A1_001_1_DidoX_Deckhouse_A1_001_1_steel_deck_1
usemtl steel_deck_1
f 3/1/1 2/2/1 1/3/1
f 6/1/2 5/4/2 4/2/2
f 9/5/3 8/6/3 7/7/3
f 12/8/4 11/6/4 10/5/4
f 15/9/5 14/10/5 13/11/5
f 16/12/5 13/11/5 14/10/5
f 19/13/6 18/14/6 17/15/6
f 20/16/6 17/15/6 18/14/6
f 21/17/6 20/16/6 18/14/6
f 18/14/6 22/18/6 21/17/6
f 25/19/7 24/20/7 23/21/7
f 26/22/7 23/21/7 24/20/7
f 29/23/8 28/24/8 27/25/8
f 30/26/8 27/25/8 28/24/8
f 33/27/6 32/28/6 31/29/6
f 34/15/6 33/27/6 31/29/6
f 35/13/9 34/15/6 31/29/6
f 35/13/9 31/29/6 36/30/10
f 37/31/11 36/30/10 31/29/6
f 40/32/5 39/33/5 38/34/5
f 41/35/5 38/34/5 39/33/5
f 41/35/5 39/33/5 42/36/5
f 43/37/5 42/36/5 39/33/5
f 46/38/5 45/39/5 44/40/5
f 47/41/5 44/40/5 45/39/5
f 50/42/6 49/43/6 48/44/6
f 51/45/6 48/44/6 49/43/6
f 51/45/6 52/46/6 48/44/6
f 53/47/6 48/44/6 52/46/6
f 56/48/8 55/49/8 54/24/8
f 57/23/8 54/24/8 55/49/8
f 60/50/7 59/21/7 58/51/7
f 61/19/7 58/51/7 59/21/7
f 64/52/6 63/53/6 62/54/6
f 63/53/6 65/43/6 62/54/6
f 65/43/6 66/42/9 62/54/6
f 66/42/9 67/55/12 62/54/6
f 68/56/11 62/54/6 67/55/12
f 71/4/13 70/57/14 69/2/14
f 72/58/14 69/2/14 70/57/14
f 72/58/14 70/57/14 73/5/14
f 74/8/15 73/5/14 70/57/14
f 77/59/6 76/60/6 75/61/6
f 78/62/6 75/61/6 76/60/6
f 75/61/6 78/62/6 79/63/6
f 80/64/6 79/63/6 78/62/6
f 83/65/7 82/66/7 81/67/7
f 84/68/7 81/67/7 82/66/7
f 87/69/8 86/70/8 85/71/8
f 88/72/8 85/71/8 86/70/8
