# Blender 5.1.0
# www.blender.org
mtllib DidoX_Deckhouse_A1_001_8_DidoX_Deckhouse_A1_001_8.mtl
o DidoX_Deckhouse_A1_001_8_DidoX_Deckhouse_A1_001_8
v -6.682789 9.284037 4.158859
v -6.787024 9.284037 4.158859
v 6.682790 9.284037 4.158858
v 6.787025 9.284037 4.158858
v -7.743370 4.063440 3.775910
v -5.674106 4.434309 3.766637
v -5.726431 4.063440 3.775910
v -7.795694 4.434311 3.766637
v -7.844368 5.025991 3.760154
v -5.598648 5.396997 3.759410
v -5.625433 5.025991 3.760154
v -7.871152 5.396997 3.759410
v -7.761832 7.314505 3.802160
v -5.662815 6.943499 3.789633
v -7.806985 6.943499 3.789633
v -5.707968 7.314505 3.802160
v -7.743370 4.062141 3.665765
v -5.726431 4.063440 3.775910
v -5.726431 4.062141 3.665765
v -7.743370 4.063440 3.775910
v -7.876674 6.342733 3.659596
v -5.593126 6.342115 3.769753
v -7.876674 6.342115 3.769753
v -5.593126 6.342733 3.659596
v -7.844368 5.025888 3.649994
v -5.625433 5.025991 3.760154
v -5.625433 5.025888 3.649994
v -7.844368 5.025991 3.760154
v -7.806985 6.945250 3.679503
v -5.662815 6.943499 3.789633
v -5.662815 6.945250 3.679503
v -7.806985 6.943499 3.789633
v -7.232131 3.116379 3.698533
v -6.237670 3.118572 3.808647
v -6.237670 3.116379 3.698533
v -7.232131 3.118572 3.808647
v -7.048441 2.054925 3.756331
v -6.421360 2.058236 3.866386
v -7.048441 2.058236 3.866386
v -6.421360 2.054925 3.756331
v -7.662992 3.487120 3.682413
v -5.806808 3.489313 3.792526
v -7.662992 3.489313 3.792526
v -5.806808 3.487120 3.682413
v -7.048441 2.054925 3.756331
v -7.232131 3.118572 3.808647
v -7.232131 3.116379 3.698533
v -7.048441 2.058236 3.866386
v -7.876674 6.342115 3.769753
v -5.593860 5.970961 3.765320
v -7.875940 5.970963 3.765320
v -5.593126 6.342115 3.769753
v -5.674106 4.434309 3.766637
v -7.795694 4.433012 3.656493
v -5.674106 4.433012 3.656493
v -7.795694 4.434311 3.766637
v -7.875940 5.971582 3.655163
v -5.593860 5.970961 3.765320
v -5.593860 5.971582 3.655163
v -7.875940 5.970963 3.765320
v -5.598648 5.396997 3.759410
v -7.871152 5.396894 3.649250
v -5.598648 5.396894 3.649250
v -7.871152 5.396997 3.759410
v -5.707968 7.314505 3.802160
v -7.761832 7.316257 3.692029
v -5.707968 7.316257 3.692029
v -7.761832 7.314505 3.802160
v -6.421360 2.054925 3.756331
v -6.237670 3.118572 3.808647
v -6.421360 2.058236 3.866386
v -6.237670 3.116379 3.698533
v -7.510853 8.395868 3.878135
v -6.734898 7.956335 3.829991
v -7.651183 7.956335 3.829991
v -6.734897 9.196589 3.965840
v -5.958946 8.395868 3.878135
v -5.818616 7.956335 3.829991
v -6.734898 7.956335 3.829991
v -7.651183 7.956335 3.721916
v -7.651183 7.956335 3.829991
v -6.734898 7.956335 3.721916
v -5.818616 7.956335 3.721916
v -5.818616 7.956335 3.829991
v 7.743371 4.063439 3.775909
v 5.674107 4.434308 3.766637
v 7.795695 4.434310 3.766637
v 5.726432 4.063439 3.775909
v 7.844368 5.025990 3.760154
v 5.598649 5.396996 3.759409
v 7.871153 5.396996 3.759409
v 5.625434 5.025990 3.760154
v 7.761833 7.314504 3.802159
v 5.662816 6.943498 3.789633
v 5.707969 7.314504 3.802159
v 7.806986 6.943498 3.789633
v 7.743371 4.062140 3.665765
v 5.726432 4.063439 3.775909
v 7.743371 4.063439 3.775909
v 5.726432 4.062140 3.665765
v 7.876675 6.342732 3.659596
v 5.593127 6.342114 3.769753
v 5.593127 6.342732 3.659596
v 7.876675 6.342114 3.769753
v 7.844368 5.025887 3.649994
v 5.625434 5.025990 3.760154
v 7.844368 5.025990 3.760154
v 5.625434 5.025887 3.649994
v 7.806986 6.945249 3.679502
v 5.662816 6.943498 3.789633
v 7.806986 6.943498 3.789633
v 5.662816 6.945249 3.679502
v 7.232132 3.116378 3.698532
v 6.237671 3.118572 3.808646
v 7.232132 3.118572 3.808646
v 6.237671 3.116378 3.698532
v 7.048442 2.054924 3.756331
v 6.421361 2.058236 3.866385
v 6.421361 2.054924 3.756331
v 7.048442 2.058236 3.866385
v 7.662993 3.487119 3.682412
v 5.806809 3.489313 3.792526
v 5.806809 3.487119 3.682412
v 7.662993 3.489313 3.792526
v 7.048442 2.054924 3.756331
v 7.232132 3.118572 3.808646
v 7.048442 2.058236 3.866385
v 7.232132 3.116378 3.698532
v 7.876675 6.342114 3.769753
v 5.593861 5.970960 3.765319
v 5.593127 6.342114 3.769753
v 7.875941 5.970962 3.765319
v 5.674107 4.434308 3.766637
v 7.795695 4.433011 3.656492
v 7.795695 4.434310 3.766637
v 5.674107 4.433011 3.656492
v 7.875941 5.971581 3.655163
v 5.593861 5.970960 3.765319
v 7.875941 5.970962 3.765319
v 5.593861 5.971581 3.655163
v 5.598649 5.396996 3.759409
v 7.871153 5.396894 3.649249
v 7.871153 5.396996 3.759409
v 5.598649 5.396894 3.649249
v 5.707969 7.314504 3.802159
v 7.761833 7.316257 3.692029
v 7.761833 7.314504 3.802159
v 5.707969 7.316257 3.692029
v 6.421361 2.054924 3.756331
v 6.237671 3.118572 3.808646
v 6.237671 3.116378 3.698532
v 6.421361 2.058236 3.866385
v 7.510854 8.395868 3.878135
v 7.651184 7.956334 3.829991
v 6.734899 7.956334 3.829991
v 6.734898 9.196589 3.965840
v 5.958947 8.395868 3.878135
v 5.818617 7.956334 3.829991
v 7.651184 7.956334 3.721915
v 6.734899 7.956334 3.829991
v 7.651184 7.956334 3.829991
v 6.734899 7.956334 3.721915
v 5.818617 7.956334 3.721915
v 5.818617 7.956334 3.829991
v -7.691992 3.080364 3.916146
v -7.262346 1.816831 3.982784
v -7.330882 1.591954 4.007974
v -6.787026 1.591960 4.007976
v -7.562563 3.080364 3.900435
v -6.734960 1.816831 3.982784
v -6.682790 1.591960 4.007976
v -7.894763 4.482687 3.876752
v -7.774093 4.482687 3.857831
v -6.207455 1.816831 3.982784
v -6.138920 1.591954 4.007974
v -5.777809 3.080364 3.916146
v -5.907237 3.080364 3.900435
v -5.575037 4.482687 3.876752
v -5.695707 4.482687 3.857831
v -7.840736 5.475405 3.850838
v -7.958620 5.475405 3.870931
v -5.511180 5.475405 3.870931
v -5.629064 5.475405 3.850838
v -7.946060 6.373148 3.885135
v -7.826954 6.373148 3.864555
v -7.718305 7.362276 3.903095
v -7.841760 7.362276 3.921594
v -7.567673 8.109755 3.949365
v -7.669256 8.223381 3.972129
v -7.234288 8.696024 4.040109
v -7.306342 8.861872 4.067751
v -5.642845 6.373148 3.864555
v -5.523740 6.373148 3.885135
v -6.734897 9.084364 4.125148
v -5.628039 7.362276 3.921594
v -5.751495 7.362276 3.903095
v -5.902126 8.109755 3.949365
v -5.800543 8.223379 3.972129
v -6.235511 8.696024 4.040109
v -6.163456 8.861872 4.067751
v -5.806808 3.489313 3.792526
v -7.232131 3.118572 3.808647
v -7.662992 3.489313 3.792526
v -7.286919 1.730262 3.886786
v -6.237670 3.118572 3.808647
v -7.048441 2.058236 3.866386
v -6.182882 1.730262 3.886786
v -6.421360 2.058236 3.866386
v 7.262347 1.816830 3.982783
v 7.691993 3.080364 3.916145
v 7.330883 1.591954 4.007973
v 6.787027 1.591959 4.007975
v 7.562564 3.080364 3.900434
v 6.734961 1.816830 3.982783
v 6.682791 1.591959 4.007975
v 7.894763 4.482686 3.876752
v 7.774094 4.482686 3.857830
v 6.207456 1.816830 3.982783
v 6.138921 1.591954 4.007973
v 5.777810 3.080364 3.916145
v 5.907238 3.080364 3.900434
v 5.575038 4.482686 3.876752
v 5.695708 4.482686 3.857830
v 7.840737 5.475404 3.850837
v 7.958621 5.475404 3.870930
v 5.511181 5.475404 3.870930
v 5.629065 5.475404 3.850837
v 7.946061 6.373147 3.885135
v 7.826955 6.373147 3.864555
v 7.718306 7.362275 3.903095
v 7.841761 7.362275 3.921594
v 7.567674 8.109755 3.949365
v 7.669257 8.223381 3.972129
v 7.234289 8.696024 4.040108
v 7.306343 8.861872 4.067750
v 5.642846 6.373147 3.864555
v 5.523741 6.373147 3.885135
v 6.734898 9.084364 4.125147
v 5.628040 7.362275 3.921594
v 5.751496 7.362275 3.903095
v 5.902127 8.109755 3.949365
v 5.800544 8.223379 3.972129
v 6.235512 8.696024 4.040108
v 6.163457 8.861872 4.067750
v 7.232132 3.118572 3.808646
v 5.806809 3.489313 3.792526
v 7.662993 3.489313 3.792526
v 7.286920 1.730261 3.886786
v 6.237671 3.118572 3.808646
v 7.048442 2.058236 3.866385
v 6.182883 1.730261 3.886786
v 6.421361 2.058236 3.866385
vn -0.0000 0.0250 0.9997
vn -0.0000 0.0020 1.0000
vn -0.0000 -0.0337 0.9994
vn -0.0000 -0.9999 0.0118
vn -0.0000 1.0000 0.0056
vn -0.0000 -1.0000 0.0009
vn -0.0000 -0.9999 -0.0159
vn -0.0000 -0.9998 0.0199
vn -0.0000 0.9995 -0.0301
vn -0.0000 0.9998 -0.0199
vn 0.9854 0.1703 -0.0034
vn 0.9854 0.1703 -0.0035
vn 0.9854 0.1704 -0.0050
vn 0.9854 0.1704 -0.0051
vn -0.0000 -0.0119 0.9999
vn -0.0000 0.9999 -0.0118
vn -0.0000 -1.0000 -0.0056
vn -0.0000 1.0000 -0.0009
vn -0.0000 0.9999 0.0159
vn -0.9854 0.1704 -0.0051
vn -0.9854 0.1703 -0.0035
vn -0.9854 0.1704 -0.0050
vn -0.9854 0.1703 -0.0034
vn -0.0000 -0.1089 0.9941
vn -0.0000 -1.0000 -0.0000
vn 0.0269 0.1032 0.9943
vn 0.0539 0.0953 0.9940
vn 0.1194 0.0660 0.9907
vn -0.0000 0.1113 0.9938
vn 0.1211 0.0721 0.9900
vn 0.1543 0.0339 0.9874
vn 0.1548 0.0365 0.9873
vn -0.0539 0.0953 0.9940
vn -0.0269 0.1032 0.9943
vn -0.1194 0.0660 0.9907
vn -0.1211 0.0721 0.9900
vn -0.1538 0.0331 0.9875
vn -0.1553 0.0358 0.9872
vn 0.1676 -0.0004 0.9859
vn 0.1680 -0.0010 0.9858
vn -0.1676 -0.0001 0.9859
vn -0.1680 0.0006 0.9858
vn 0.1692 -0.0365 0.9849
vn 0.1701 -0.0380 0.9847
vn 0.1486 -0.0733 0.9862
vn 0.1468 -0.0692 0.9867
vn 0.0942 -0.1150 0.9889
vn 0.0614 -0.1410 0.9881
vn 0.0003 -0.1654 0.9862
vn -0.0147 -0.1702 0.9853
vn -0.1692 -0.0367 0.9849
vn -0.1702 -0.0354 0.9848
vn -0.0000 -0.1738 0.9848
vn -0.1477 -0.0707 0.9865
vn -0.1478 -0.0743 0.9862
vn -0.0942 -0.1150 0.9889
vn -0.0614 -0.1410 0.9881
vn -0.0003 -0.1655 0.9862
vn 0.0147 -0.1702 0.9853
vn -0.0088 -0.1040 0.9945
vn 0.0088 -0.1040 0.9945
vn -0.0000 0.0434 0.9991
vn -0.0000 0.0435 0.9991
vn -0.0000 0.0621 0.9981
vn -0.1543 0.0339 0.9874
vn -0.1548 0.0365 0.9873
vn 0.1538 0.0331 0.9875
vn 0.1553 0.0358 0.9872
vn -0.1676 -0.0004 0.9859
vn -0.1680 -0.0010 0.9858
vn 0.1676 -0.0001 0.9859
vn 0.1680 0.0006 0.9858
vn -0.1692 -0.0365 0.9849
vn -0.1701 -0.0380 0.9847
vn -0.1486 -0.0733 0.9862
vn -0.1468 -0.0692 0.9867
vn -0.0003 -0.1654 0.9862
vn 0.1692 -0.0367 0.9849
vn 0.1702 -0.0354 0.9848
vn 0.1477 -0.0707 0.9865
vn 0.1478 -0.0743 0.9862
vn -0.0087 -0.1040 0.9945
vt 0.586656 3.734792
vt 0.585865 3.729160
vt 0.617177 3.734792
vt 0.617968 3.729160
vt 0.585128 3.720176
vt 0.584723 3.714542
vt 0.618705 3.720176
vt 0.619110 3.714542
vt 0.618139 3.691057
vt 0.585694 3.691057
vt 0.617456 3.685423
vt 0.586377 3.685424
vt 0.413344 0.376558
vt 0.413344 0.378214
vt 0.382823 0.376558
vt 0.382823 0.378214
vt 0.619194 0.378122
vt 0.584639 0.378122
vt 0.619194 0.376465
vt 0.584639 0.376465
vt 0.414872 0.376321
vt 0.414872 0.377977
vt 0.381295 0.376321
vt 0.381295 0.377977
vt 0.414306 0.376765
vt 0.414306 0.378421
vt 0.381861 0.376765
vt 0.381861 0.378421
vt 0.405608 0.377051
vt 0.405608 0.378707
vt 0.390559 0.377051
vt 0.390559 0.378707
vt 0.606661 0.379575
vt 0.597172 0.379575
vt 0.606661 0.377920
vt 0.597172 0.377920
vt 0.615960 0.378464
vt 0.587873 0.378464
vt 0.615960 0.376808
vt 0.587873 0.376808
vt -2.749174 0.377051
vt -2.749140 0.378707
vt -2.765292 0.377920
vt -2.765242 0.379575
vt 0.619183 3.705826
vt 0.584650 3.705826
vt 0.619194 3.700190
vt 0.584639 3.700190
vt 0.585865 0.376419
vt 0.617968 0.376419
vt 0.585865 0.378075
vt 0.617968 0.378075
vt 0.415350 0.376399
vt 0.415350 0.378055
vt 0.380817 0.376399
vt 0.380817 0.378055
vt 0.584723 0.376310
vt 0.619110 0.376310
vt 0.584723 0.377966
vt 0.619110 0.377966
vt 0.586377 0.376953
vt 0.617456 0.376953
vt 0.586377 0.378609
vt 0.617456 0.378609
vt 3.765242 0.379575
vt 3.749140 0.378707
vt 3.765292 0.377920
vt 3.749174 0.377051
vt 0.615782 3.675677
vt 0.601916 3.675677
vt 0.613658 3.669003
vt 0.601916 3.656843
vt 0.590175 3.669003
vt 0.588051 3.675677
vt 0.384218 0.379028
vt 0.384218 0.377402
vt 0.398084 0.379028
vt 0.398084 0.377402
vt 0.411949 0.377402
vt 0.411949 0.379028
vt 0.382040 3.729160
vt 0.414144 3.729160
vt 0.382832 3.734792
vt 0.413352 3.734792
vt 0.380898 3.714542
vt 0.415286 3.714542
vt 0.381304 3.720176
vt 0.414880 3.720176
vt 0.413631 3.685424
vt 0.414315 3.691057
vt 0.382552 3.685424
vt 0.381869 3.691057
vt 0.617168 0.378214
vt 0.586648 0.378214
vt 0.617168 0.376558
vt 0.586648 0.376558
vt 0.415369 0.376465
vt 0.415369 0.378122
vt 0.380815 0.376465
vt 0.380815 0.378122
vt 0.618696 0.377977
vt 0.585120 0.377977
vt 0.618696 0.376321
vt 0.585120 0.376321
vt 0.618131 0.378421
vt 0.585685 0.378421
vt 0.618131 0.376765
vt 0.585685 0.376765
vt 0.609432 0.378707
vt 0.594384 0.378707
vt 0.609432 0.377051
vt 0.594384 0.377051
vt 0.402837 0.377920
vt 0.402837 0.379575
vt 0.393348 0.377920
vt 0.393348 0.379575
vt 0.412136 0.376808
vt 0.412136 0.378464
vt 0.384048 0.376808
vt 0.384048 0.378464
vt 3.749141 0.378707
vt 0.415369 3.700190
vt 0.415358 3.705826
vt 0.380815 3.700190
vt 0.380826 3.705826
vt 0.382040 0.378075
vt 0.382040 0.376419
vt 0.414144 0.378075
vt 0.414144 0.376419
vt 0.619174 0.378055
vt 0.584642 0.378055
vt 0.619174 0.376399
vt 0.584642 0.376399
vt 0.380898 0.377966
vt 0.380898 0.376310
vt 0.415286 0.377966
vt 0.415286 0.376310
vt 0.382552 0.378609
vt 0.382552 0.376953
vt 0.413631 0.378609
vt 0.413631 0.376953
vt -2.749141 0.378707
vt 0.398092 3.675677
vt 0.384227 3.675677
vt 0.386350 3.669003
vt 0.398092 3.656843
vt 0.409834 3.669003
vt 0.411957 3.675677
vt 0.615773 0.379028
vt 0.601908 0.379028
vt 0.615773 0.377402
vt 0.601908 0.377402
vt 0.588043 0.377402
vt 0.588043 0.379028
vt 0.610935 3.772323
vt 0.609898 3.768908
vt 0.616399 3.749721
vt 0.602705 3.772323
vt 0.614441 3.749721
vt 0.601918 3.768908
vt 0.601128 3.772323
vt 0.619467 3.728426
vt 0.617642 3.728426
vt 0.593935 3.768908
vt 0.592898 3.772323
vt 0.587434 3.749721
vt 0.589392 3.749721
vt 0.584365 3.728426
vt 0.586191 3.728426
vt 0.618650 3.713351
vt 0.620434 3.713351
vt 0.583399 3.713351
vt 0.585183 3.713351
vt 0.620244 3.699718
vt 0.618441 3.699718
vt 0.616797 3.684698
vt 0.618665 3.684698
vt 0.614518 3.673347
vt 0.616055 3.671622
vt 0.609473 3.664445
vt 0.610563 3.661926
vt 0.585392 3.699718
vt 0.583589 3.699718
vt 0.601916 3.658547
vt 0.585167 3.684698
vt 0.587036 3.684698
vt 0.589315 3.673347
vt 0.587778 3.671622
vt 0.594360 3.664445
vt 0.593269 3.661926
vt 0.602705 3.655515
vt 0.601128 3.655515
vt 0.615960 3.743510
vt 0.609441 3.749140
vt 0.587873 3.743510
vt 0.610270 3.770222
vt 0.594392 3.749140
vt 0.606661 3.765242
vt 0.593563 3.770222
vt 0.597172 3.765242
vt 0.389074 3.772323
vt 0.383609 3.749721
vt 0.390111 3.768908
vt 0.397303 3.772323
vt 0.385568 3.749721
vt 0.398091 3.768908
vt 0.398881 3.772323
vt 0.380541 3.728426
vt 0.382367 3.728426
vt 0.406073 3.768908
vt 0.407110 3.772323
vt 0.412575 3.749721
vt 0.410616 3.749721
vt 0.415643 3.728426
vt 0.413817 3.728426
vt 0.381359 3.713351
vt 0.379575 3.713351
vt 0.416609 3.713351
vt 0.414825 3.713351
vt 0.379765 3.699718
vt 0.381567 3.699718
vt 0.383211 3.684698
vt 0.381343 3.684698
vt 0.385490 3.673347
vt 0.383953 3.671622
vt 0.390535 3.664445
vt 0.389445 3.661926
vt 0.414617 3.699718
vt 0.416419 3.699718
vt 0.398092 3.658548
vt 0.414841 3.684698
vt 0.412973 3.684698
vt 0.410693 3.673347
vt 0.412231 3.671622
vt 0.405649 3.664445
vt 0.406739 3.661926
vt 0.397303 3.655515
vt 0.398880 3.655515
vt 0.384048 3.743510
vt 0.412136 3.743510
vt 0.390568 3.749141
vt 0.389739 3.770222
vt 0.405616 3.749141
vt 0.393348 3.765242
vt 0.406445 3.770222
vt 0.402837 3.765242
s 1
g DidoX_Deckhouse_A1_001_8_DidoX_Deckhouse_A1_001_8_wood_deck_2
usemtl wood_deck_2
f 7/1/1 6/2/1 5/3/1
f 8/4/1 5/3/1 6/2/1
f 11/5/2 10/6/2 9/7/2
f 12/8/2 9/7/2 10/6/2
f 15/9/3 14/10/3 13/11/3
f 16/12/3 13/11/3 14/10/3
f 19/13/4 18/14/4 17/15/4
f 20/16/4 17/15/4 18/14/4
f 23/17/5 22/18/5 21/19/5
f 24/20/5 21/19/5 22/18/5
f 27/21/6 26/22/6 25/23/6
f 28/24/6 25/23/6 26/22/6
f 31/25/7 30/26/7 29/27/7
f 32/28/7 29/27/7 30/26/7
f 35/29/8 34/30/8 33/31/8
f 36/32/8 33/31/8 34/30/8
f 39/33/9 38/34/9 37/35/9
f 40/36/9 37/35/9 38/34/9
f 43/37/10 42/38/10 41/39/10
f 44/40/10 41/39/10 42/38/10
f 47/41/11 46/42/12 45/43/13
f 48/44/14 45/43/13 46/42/12
f 51/45/15 50/46/15 49/47/15
f 52/48/15 49/47/15 50/46/15
f 55/49/16 54/50/16 53/51/16
f 56/52/16 53/51/16 54/50/16
f 59/53/17 58/54/17 57/55/17
f 60/56/17 57/55/17 58/54/17
f 63/57/18 62/58/18 61/59/18
f 64/60/18 61/59/18 62/58/18
f 67/61/19 66/62/19 65/63/19
f 68/64/19 65/63/19 66/62/19
f 71/65/20 70/66/21 69/67/22
f 72/68/23 69/67/22 70/66/21
f 75/69/24 74/70/24 73/71/24
f 73/71/24 74/70/24 76/72/24
f 76/72/24 74/70/24 77/73/24
f 74/70/24 78/74/24 77/73/24
f 81/75/25 80/76/25 79/77/25
f 82/78/25 79/77/25 80/76/25
f 82/78/25 83/79/25 79/77/25
f 84/80/25 79/77/25 83/79/25
f 87/81/1 86/82/1 85/83/1
f 88/84/1 85/83/1 86/82/1
f 91/85/2 90/86/2 89/87/2
f 92/88/2 89/87/2 90/86/2
f 95/89/3 94/90/3 93/91/3
f 96/92/3 93/91/3 94/90/3
f 99/93/4 98/94/4 97/95/4
f 100/96/4 97/95/4 98/94/4
f 103/97/5 102/98/5 101/99/5
f 104/100/5 101/99/5 102/98/5
f 107/101/6 106/102/6 105/103/6
f 108/104/6 105/103/6 106/102/6
f 111/105/7 110/106/7 109/107/7
f 112/108/7 109/107/7 110/106/7
f 115/109/8 114/110/8 113/111/8
f 116/112/8 113/111/8 114/110/8
f 119/113/9 118/114/9 117/115/9
f 120/116/9 117/115/9 118/114/9
f 123/117/10 122/118/10 121/119/10
f 124/120/10 121/119/10 122/118/10
f 127/65/20 126/121/21 125/67/22
f 128/68/23 125/67/22 126/121/21
f 131/122/15 130/123/15 129/124/15
f 132/125/15 129/124/15 130/123/15
f 135/126/16 134/127/16 133/128/16
f 136/129/16 133/128/16 134/127/16
f 139/130/17 138/131/17 137/132/17
f 140/133/17 137/132/17 138/131/17
f 143/134/18 142/135/18 141/136/18
f 144/137/18 141/136/18 142/135/18
f 147/138/19 146/139/19 145/140/19
f 148/141/19 145/140/19 146/139/19
f 151/41/11 150/142/12 149/43/13
f 152/44/14 149/43/13 150/142/12
f 155/143/24 154/144/24 153/145/24
f 155/143/24 153/145/24 156/146/24
f 155/143/24 156/146/24 157/147/24
f 158/148/24 155/143/24 157/147/24
f 161/149/25 160/150/25 159/151/25
f 162/152/25 159/151/25 160/150/25
f 162/152/25 160/150/25 163/153/25
f 164/154/25 163/153/25 160/150/25
f 167/155/26 166/156/27 165/157/28
f 167/155/26 168/158/29 166/156/27
f 169/159/30 165/157/28 166/156/27
f 170/160/29 166/156/27 168/158/29
f 171/161/29 170/160/29 168/158/29
f 165/157/28 169/159/30 172/162/31
f 173/163/32 172/162/31 169/159/30
f 170/160/29 171/161/29 174/164/33
f 175/165/34 174/164/33 171/161/29
f 175/165/34 176/166/35 174/164/33
f 177/167/36 174/164/33 176/166/35
f 176/166/35 178/168/37 177/167/36
f 179/169/38 177/167/36 178/168/37
f 173/163/32 180/170/39 172/162/31
f 181/171/40 172/162/31 180/170/39
f 178/168/37 182/172/41 179/169/38
f 183/173/42 179/169/38 182/172/41
f 181/171/40 180/170/39 184/174/43
f 185/175/44 184/174/43 180/170/39
f 185/175/44 186/176/45 184/174/43
f 187/177/46 184/174/43 186/176/45
f 186/176/45 188/178/47 187/177/46
f 189/179/48 187/177/46 188/178/47
f 188/178/47 190/180/49 189/179/48
f 191/181/50 189/179/48 190/180/49
f 183/173/42 182/172/41 192/182/51
f 193/183/52 192/182/51 182/172/41
f 190/180/49 194/184/53 191/181/50
f 193/183/52 195/185/54 192/182/51
f 196/186/55 192/182/51 195/185/54
f 196/186/55 195/185/54 197/187/56
f 198/188/57 197/187/56 195/185/54
f 197/187/56 198/188/57 199/189/58
f 200/190/59 199/189/58 198/188/57
f 199/189/58 200/190/59 194/184/53
f 2/191/60 191/181/50 194/184/53
f 1/192/61 194/184/53 200/190/59
f 2/191/60 194/184/53 1/192/61
f 203/193/62 202/194/62 201/195/63
f 203/193/62 204/196/64 202/194/62
f 205/197/62 201/195/63 202/194/62
f 206/198/64 202/194/62 204/196/64
f 201/195/63 205/197/62 207/199/64
f 206/198/64 204/196/64 208/200/64
f 207/199/64 208/200/64 204/196/64
f 208/200/64 207/199/64 205/197/62
f 211/201/34 210/202/35 209/203/33
f 211/201/34 209/203/33 212/204/29
f 213/205/36 209/203/33 210/202/35
f 214/206/29 212/204/29 209/203/33
f 214/206/29 215/207/29 212/204/29
f 210/202/35 216/208/65 213/205/36
f 217/209/66 213/205/36 216/208/65
f 214/206/29 218/210/27 215/207/29
f 219/211/26 215/207/29 218/210/27
f 219/211/26 218/210/27 220/212/28
f 221/213/30 220/212/28 218/210/27
f 220/212/28 221/213/30 222/214/67
f 223/215/68 222/214/67 221/213/30
f 217/209/66 216/208/65 224/216/69
f 225/217/70 224/216/69 216/208/65
f 222/214/67 223/215/68 226/218/71
f 227/219/72 226/218/71 223/215/68
f 225/217/70 228/220/73 224/216/69
f 229/221/74 224/216/69 228/220/73
f 229/221/74 228/220/73 230/222/75
f 231/223/76 230/222/75 228/220/73
f 230/222/75 231/223/76 232/224/56
f 233/225/57 232/224/56 231/223/76
f 232/224/56 233/225/57 234/226/77
f 235/227/59 234/226/77 233/225/57
f 227/219/72 236/228/78 226/218/71
f 237/229/79 226/218/71 236/228/78
f 234/226/77 235/227/59 238/230/53
f 237/229/79 236/228/78 239/231/80
f 240/232/81 239/231/80 236/228/78
f 240/232/81 241/233/47 239/231/80
f 242/234/48 239/231/80 241/233/47
f 241/233/47 243/235/49 242/234/48
f 244/236/50 242/234/48 243/235/49
f 243/235/49 238/230/53 244/236/50
f 4/237/61 238/230/53 235/227/59
f 3/238/82 244/236/50 238/230/53
f 238/230/53 4/237/61 3/238/82
f 247/239/62 246/240/63 245/241/62
f 247/239/62 245/241/62 248/242/64
f 249/243/62 245/241/62 246/240/63
f 250/244/64 248/242/64 245/241/62
f 246/240/63 251/245/64 249/243/62
f 250/244/64 252/246/64 248/242/64
f 252/246/64 249/243/62 251/245/64
f 251/245/64 248/242/64 252/246/64
