# Blender 5.1.0
# www.blender.org
mtllib DidoX_Deckhouse_A1_001_6_DidoX_Deckhouse_A1_001_6.mtl
o DidoX_Deckhouse_A1_001_6_DidoX_Deckhouse_A1_001_6
v -6.670148 7.787165 5.791639
v -6.771867 7.686708 5.732911
v -6.771868 7.787163 5.732911
v -6.670147 7.686697 5.791639
v -6.568427 7.787165 5.732911
v -6.568427 7.686697 5.732911
v -6.771868 7.787163 5.732911
v -6.771868 7.686708 5.615453
v -6.771868 7.787165 5.615453
v -6.771867 7.686708 5.732911
v -6.670148 7.686697 5.556725
v -6.771868 7.787165 5.615453
v -6.771868 7.686708 5.615453
v -6.670149 7.787165 5.556725
v -6.568429 7.686697 5.615453
v -6.568429 7.787165 5.615453
v -6.568429 7.787165 5.615453
v -6.568427 7.686697 5.732911
v -6.568427 7.787165 5.732911
v -6.568429 7.686697 5.615453
v -5.178375 7.787162 3.800957
v -5.280094 7.686708 3.742229
v -5.280094 7.787160 3.742229
v -5.178374 7.686697 3.800957
v -5.076653 7.787162 3.742229
v -5.076653 7.686697 3.742229
v -5.280094 7.787160 3.742229
v -5.280094 7.686708 3.624770
v -5.280095 7.787162 3.624770
v -5.280094 7.686708 3.742229
v -5.178375 7.686697 3.566042
v -5.280095 7.787162 3.624770
v -5.280094 7.686708 3.624770
v -5.178376 7.787162 3.566042
v -5.076655 7.686697 3.624770
v -5.076655 7.787162 3.624770
v -5.076655 7.787162 3.624770
v -5.076653 7.686697 3.742229
v -5.076653 7.787162 3.742229
v -5.076655 7.686697 3.624770
v -6.670148 3.107168 5.791640
v -6.771867 3.006712 5.732913
v -6.771868 3.107166 5.732913
v -6.670147 3.006702 5.791640
v -6.568427 3.107168 5.732913
v -6.568427 3.006700 5.732913
v -6.771868 3.107166 5.732913
v -6.771868 3.006712 5.615453
v -6.771868 3.107168 5.615453
v -6.771867 3.006712 5.732913
v -6.670148 3.006700 5.556726
v -6.771868 3.107168 5.615453
v -6.771868 3.006712 5.615453
v -6.670149 3.107168 5.556726
v -6.568429 3.006702 5.615453
v -6.568429 3.107168 5.615453
v -6.568429 3.107168 5.615453
v -6.568427 3.006700 5.732913
v -6.568427 3.107168 5.732913
v -6.568429 3.006702 5.615453
v -5.178375 3.107166 3.800958
v -5.280094 3.006712 3.742230
v -5.280094 3.107166 3.742230
v -5.178374 3.006701 3.800958
v -5.076653 3.107166 3.742230
v -5.076653 3.006701 3.742230
v -5.280094 3.107166 3.742230
v -5.280094 3.006712 3.624771
v -5.280095 3.107166 3.624771
v -5.280094 3.006712 3.742230
v -5.178375 3.006701 3.566044
v -5.280095 3.107166 3.624771
v -5.280094 3.006712 3.624771
v -5.178376 3.107166 3.566044
v -5.076655 3.006701 3.624771
v -5.076655 3.107166 3.624771
v -5.076655 3.107166 3.624771
v -5.076653 3.006701 3.742230
v -5.076653 3.107166 3.742230
v -5.076655 3.006701 3.624771
v 6.771868 7.686707 5.732910
v 6.670149 7.787164 5.791638
v 6.771869 7.787162 5.732910
v 6.670148 7.686696 5.791638
v 6.568428 7.787164 5.732910
v 6.568428 7.686696 5.732910
v 6.771869 7.787162 5.732910
v 6.771869 7.686707 5.615452
v 6.771868 7.686707 5.732910
v 6.771869 7.787164 5.615452
v 6.771869 7.787164 5.615452
v 6.670149 7.686696 5.556724
v 6.771869 7.686707 5.615452
v 6.670150 7.787164 5.556724
v 6.568429 7.686696 5.615452
v 6.568429 7.787164 5.615452
v 6.568429 7.787164 5.615452
v 6.568428 7.686696 5.732910
v 6.568429 7.686696 5.615452
v 6.568428 7.787164 5.732910
v 5.280095 7.686708 3.742228
v 5.178376 7.787162 3.800956
v 5.280095 7.787160 3.742228
v 5.178375 7.686697 3.800956
v 5.076654 7.787162 3.742228
v 5.076654 7.686697 3.742228
v 5.280095 7.787160 3.742228
v 5.280095 7.686708 3.624769
v 5.280095 7.686708 3.742228
v 5.280096 7.787162 3.624769
v 5.280096 7.787162 3.624769
v 5.178376 7.686697 3.566042
v 5.280095 7.686708 3.624769
v 5.178377 7.787162 3.566042
v 5.076656 7.686697 3.624769
v 5.076656 7.787162 3.624769
v 5.076656 7.787162 3.624769
v 5.076654 7.686697 3.742228
v 5.076656 7.686697 3.624769
v 5.076654 7.787162 3.742228
v 6.771868 3.006711 5.732912
v 6.670149 3.107167 5.791639
v 6.771869 3.107166 5.732912
v 6.670148 3.006702 5.791639
v 6.568428 3.107167 5.732912
v 6.568428 3.006700 5.732912
v 6.771869 3.107166 5.732912
v 6.771869 3.006711 5.615452
v 6.771868 3.006711 5.732912
v 6.771869 3.107167 5.615452
v 6.771869 3.107167 5.615452
v 6.670149 3.006700 5.556725
v 6.771869 3.006711 5.615452
v 6.670150 3.107167 5.556725
v 6.568429 3.006702 5.615452
v 6.568429 3.107167 5.615452
v 6.568429 3.107167 5.615452
v 6.568428 3.006700 5.732912
v 6.568429 3.006702 5.615452
v 6.568428 3.107167 5.732912
v 5.280095 3.006711 3.742229
v 5.178376 3.107166 3.800958
v 5.280095 3.107166 3.742229
v 5.178375 3.006700 3.800958
v 5.076654 3.107166 3.742229
v 5.076654 3.006700 3.742229
v 5.280095 3.107166 3.742229
v 5.280095 3.006711 3.624771
v 5.280095 3.006711 3.742229
v 5.280096 3.107166 3.624771
v 5.280096 3.107166 3.624771
v 5.178376 3.006700 3.566043
v 5.280095 3.006711 3.624771
v 5.178377 3.107166 3.566043
v 5.076656 3.006700 3.624771
v 5.076656 3.107166 3.624771
v 5.076656 3.107166 3.624771
v 5.076654 3.006700 3.742229
v 5.076656 3.006700 3.624771
v 5.076654 3.107166 3.742229
v -6.670148 7.787165 5.791639
v -6.670149 7.787157 5.674182
v -6.568427 7.787165 5.732911
v -6.771868 7.787163 5.732911
v -6.568429 7.787165 5.615453
v -6.771868 7.787165 5.615453
v -6.670149 7.787165 5.556725
v -5.178375 7.787162 3.800957
v -5.178376 7.787157 3.683500
v -5.076653 7.787162 3.742229
v -5.280094 7.787160 3.742229
v -5.076655 7.787162 3.624770
v -5.280095 7.787162 3.624770
v -5.178376 7.787162 3.566042
v -6.670148 3.107168 5.791640
v -6.670149 3.107162 5.674183
v -6.568427 3.107168 5.732913
v -6.771868 3.107166 5.732913
v -6.568429 3.107168 5.615453
v -6.771868 3.107168 5.615453
v -6.670149 3.107168 5.556726
v -5.178375 3.107166 3.800958
v -5.178376 3.107161 3.683501
v -5.076653 3.107166 3.742230
v -5.280094 3.107166 3.742230
v -5.076655 3.107166 3.624771
v -5.280095 3.107166 3.624771
v -5.178376 3.107166 3.566044
v 6.670149 7.787164 5.791638
v 6.568428 7.787164 5.732910
v 6.670150 7.787156 5.674181
v 6.771869 7.787162 5.732910
v 6.568429 7.787164 5.615452
v 6.771869 7.787164 5.615452
v 6.670150 7.787164 5.556724
v 5.178376 7.787162 3.800956
v 5.076654 7.787162 3.742228
v 5.178377 7.787157 3.683499
v 5.280095 7.787160 3.742228
v 5.076656 7.787162 3.624769
v 5.280096 7.787162 3.624769
v 5.178377 7.787162 3.566042
v 6.670149 3.107167 5.791639
v 6.568428 3.107167 5.732912
v 6.670150 3.107162 5.674182
v 6.771869 3.107166 5.732912
v 6.568429 3.107167 5.615452
v 6.771869 3.107167 5.615452
v 6.670150 3.107167 5.556725
v 5.178376 3.107166 3.800958
v 5.076654 3.107166 3.742229
v 5.178377 3.107160 3.683500
v 5.280095 3.107166 3.742229
v 5.076656 3.107166 3.624771
v 5.280096 3.107166 3.624771
v 5.178377 3.107166 3.566043
v -6.568427 7.686697 5.732911
v -6.670148 7.686697 5.674182
v -6.670147 7.686697 5.791639
v -6.568429 7.686697 5.615453
v -6.771867 7.686708 5.732911
v -6.670148 7.686697 5.556725
v -6.771868 7.686708 5.615453
v -5.076653 7.686697 3.742229
v -5.178375 7.686697 3.683500
v -5.178374 7.686697 3.800957
v -5.076655 7.686697 3.624770
v -5.280094 7.686708 3.742229
v -5.178375 7.686697 3.566042
v -5.280094 7.686708 3.624770
v -6.568427 3.006700 5.732913
v -6.670148 3.006700 5.674183
v -6.670147 3.006702 5.791640
v -6.568429 3.006702 5.615453
v -6.771867 3.006712 5.732913
v -6.670148 3.006700 5.556726
v -6.771868 3.006712 5.615453
v -5.076653 3.006701 3.742230
v -5.178375 3.006701 3.683501
v -5.178374 3.006701 3.800958
v -5.076655 3.006701 3.624771
v -5.280094 3.006712 3.742230
v -5.178375 3.006701 3.566044
v -5.280094 3.006712 3.624771
v 6.568428 7.686696 5.732910
v 6.670148 7.686696 5.791638
v 6.670149 7.686696 5.674181
v 6.568429 7.686696 5.615452
v 6.771868 7.686707 5.732910
v 6.670149 7.686696 5.556724
v 6.771869 7.686707 5.615452
v 5.076654 7.686697 3.742228
v 5.178375 7.686697 3.800956
v 5.178376 7.686697 3.683499
v 5.076656 7.686697 3.624769
v 5.280095 7.686708 3.742228
v 5.178376 7.686697 3.566042
v 5.280095 7.686708 3.624769
v 6.568428 3.006700 5.732912
v 6.670148 3.006702 5.791639
v 6.670149 3.006700 5.674182
v 6.568429 3.006702 5.615452
v 6.771868 3.006711 5.732912
v 6.670149 3.006700 5.556725
v 6.771869 3.006711 5.615452
v 5.076654 3.006700 3.742229
v 5.178375 3.006700 3.800958
v 5.178376 3.006700 3.683500
v 5.076656 3.006700 3.624771
v 5.280095 3.006711 3.742229
v 5.178376 3.006700 3.566043
v 5.280095 3.006711 3.624771
vn -0.8660 -0.0000 0.5000
vn -0.0000 -0.0000 1.0000
vn 0.8660 -0.0000 0.5000
vn -0.8660 -0.0000 -0.5000
vn -0.0000 -0.0000 -1.0000
vn 0.8660 -0.0000 -0.5000
vn -0.8660 0.0002 0.5000
vn -0.0001 1.0000 -0.0000
vn -0.0000 1.0000 -0.0000
vn -0.0000 1.0000 -0.0001
vn 0.0001 1.0000 -0.0000
vn -0.0000 1.0000 0.0001
vn -0.0001 -1.0000 -0.0000
vn -0.0000 -1.0000 -0.0000
vn 0.0001 -1.0000 -0.0000
vt 0.602476 3.678246
vt 0.602476 3.679771
vt 0.600937 3.678246
vt 0.600937 3.679772
vt 0.599397 3.678246
vt 0.599397 3.679772
vt 3.678246 0.405878
vt 3.679771 0.405878
vt 3.678246 0.407645
vt 3.679771 0.407645
vt 0.397524 3.679771
vt 0.397524 3.678246
vt 0.399063 3.679772
vt 0.399063 3.678246
vt 0.400603 3.679772
vt 0.400603 3.678246
vt -2.678246 0.407645
vt -2.679772 0.407645
vt -2.678246 0.405878
vt -2.679772 0.405878
vt 0.579902 3.678246
vt 0.579902 3.679771
vt 0.578363 3.678246
vt 0.578363 3.679772
vt 0.576824 3.678246
vt 0.576824 3.679772
vt 3.678246 0.375942
vt 3.679771 0.375942
vt 3.678246 0.377708
vt 3.679771 0.377708
vt 0.420098 3.679771
vt 0.420098 3.678246
vt 0.421637 3.679772
vt 0.421637 3.678246
vt 0.423176 3.679772
vt 0.423176 3.678246
vt -2.678246 0.377708
vt -2.679772 0.377708
vt -2.678246 0.375942
vt -2.679772 0.375942
vt 0.602476 3.749314
vt 0.602476 3.750839
vt 0.600937 3.749314
vt 0.600937 3.750839
vt 0.599397 3.749314
vt 0.599397 3.750839
vt 3.749314 0.405878
vt 3.750839 0.405878
vt 3.749314 0.407645
vt 3.750839 0.407645
vt 0.397524 3.750839
vt 0.397524 3.749314
vt 0.399063 3.750839
vt 0.399063 3.749314
vt 0.400603 3.750839
vt 0.400603 3.749314
vt -2.749314 0.407645
vt -2.750839 0.407645
vt -2.749314 0.405878
vt -2.750839 0.405878
vt 0.579902 3.749314
vt 0.579902 3.750839
vt 0.578363 3.749314
vt 0.578363 3.750839
vt 0.576824 3.749314
vt 0.576824 3.750839
vt 3.749314 0.375942
vt 3.750839 0.375942
vt 3.749314 0.377708
vt 3.750839 0.377708
vt 0.420098 3.750839
vt 0.420098 3.749314
vt 0.421637 3.750839
vt 0.421637 3.749314
vt 0.423176 3.750839
vt 0.423176 3.749314
vt -2.749314 0.377708
vt -2.750839 0.377708
vt -2.749314 0.375942
vt -2.750839 0.375942
vt 0.397533 3.678246
vt 0.399072 3.678246
vt 0.397533 3.679771
vt 0.399072 3.679772
vt 0.400611 3.678246
vt 0.400611 3.679772
vt -2.679771 0.407645
vt -2.679771 0.405878
vt 0.602467 3.679771
vt 0.600928 3.679772
vt 0.602467 3.678246
vt 0.600928 3.678246
vt 0.599389 3.679772
vt 0.599389 3.678246
vt 3.679772 0.405878
vt 3.679772 0.407645
vt 0.420106 3.678246
vt 0.421645 3.678246
vt 0.420106 3.679771
vt 0.421645 3.679772
vt 0.423184 3.678246
vt 0.423184 3.679772
vt -2.679771 0.377708
vt -2.679771 0.375941
vt -2.678246 0.375941
vt 0.579894 3.679771
vt 0.578355 3.679772
vt 0.579894 3.678246
vt 0.578355 3.678246
vt 0.576816 3.679772
vt 0.576816 3.678246
vt 3.679772 0.375941
vt 3.679772 0.377708
vt 3.678246 0.375941
vt 0.397533 3.749314
vt 0.399072 3.749314
vt 0.397533 3.750839
vt 0.399072 3.750839
vt 0.400611 3.749314
vt 0.400611 3.750839
vt 0.602467 3.750839
vt 0.600928 3.750839
vt 0.602467 3.749314
vt 0.600928 3.749314
vt 0.599389 3.750839
vt 0.599389 3.749314
vt 0.420106 3.749314
vt 0.421645 3.749314
vt 0.420106 3.750839
vt 0.421645 3.750839
vt 0.423185 3.749314
vt 0.423185 3.750839
vt 0.579894 3.750839
vt 0.578355 3.750839
vt 0.579894 3.749314
vt 0.578355 3.749314
vt 0.576815 3.750839
vt 0.576815 3.749314
vt 0.599397 0.407645
vt 0.600937 0.406762
vt 0.600937 0.408528
vt 0.602476 0.407645
vt 0.599397 0.405878
vt 0.602476 0.405878
vt 0.600937 0.404995
vt 0.576824 0.377708
vt 0.578363 0.376825
vt 0.578363 0.378591
vt 0.579902 0.377708
vt 0.576824 0.375942
vt 0.579902 0.375942
vt 0.578363 0.375058
vt 0.399072 0.406762
vt 0.400611 0.407645
vt 0.399072 0.408528
vt 0.397533 0.407645
vt 0.400611 0.405878
vt 0.397533 0.405878
vt 0.399072 0.404995
vt 0.421645 0.376825
vt 0.423184 0.377708
vt 0.421645 0.378591
vt 0.420106 0.377708
vt 0.423184 0.375941
vt 0.420106 0.375941
vt 0.421645 0.375058
vt 0.423185 0.377708
vt 0.423185 0.375942
vt 0.420106 0.375942
vt 0.399063 0.408528
vt 0.399063 0.406762
vt 0.400603 0.407645
vt 0.400603 0.405878
vt 0.397524 0.407645
vt 0.399063 0.404995
vt 0.397524 0.405878
vt 0.421637 0.378591
vt 0.421637 0.376825
vt 0.423176 0.377708
vt 0.423176 0.375942
vt 0.420098 0.377708
vt 0.421637 0.375058
vt 0.420098 0.375942
vt 0.600928 0.406762
vt 0.600928 0.408528
vt 0.599389 0.407645
vt 0.599389 0.405878
vt 0.602467 0.407645
vt 0.600928 0.404995
vt 0.602467 0.405878
vt 0.578355 0.376825
vt 0.578355 0.378591
vt 0.576816 0.377708
vt 0.576816 0.375941
vt 0.579894 0.377708
vt 0.578355 0.375058
vt 0.579894 0.375941
vt 0.576815 0.377708
vt 0.576815 0.375942
vt 0.579894 0.375942
s 1
g DidoX_Deckhouse_A1_001_6_DidoX_Deckhouse_A1_001_6_details_4
usemtl details_4
f 3/1/1 2/2/1 1/3/2
f 4/4/2 1/3/2 2/2/1
f 1/3/2 4/4/2 5/5/3
f 6/6/3 5/5/3 4/4/2
f 9/7/4 8/8/4 7/9/1
f 10/10/1 7/9/1 8/8/4
f 13/11/4 12/12/4 11/13/5
f 14/14/5 11/13/5 12/12/4
f 11/13/5 14/14/5 15/15/6
f 16/16/6 15/15/6 14/14/5
f 19/17/3 18/18/3 17/19/6
f 20/20/6 17/19/6 18/18/3
f 23/21/1 22/22/1 21/23/2
f 24/24/2 21/23/2 22/22/1
f 21/23/2 24/24/2 25/25/3
f 26/26/3 25/25/3 24/24/2
f 29/27/4 28/28/4 27/29/1
f 30/30/1 27/29/1 28/28/4
f 33/31/4 32/32/4 31/33/5
f 34/34/5 31/33/5 32/32/4
f 31/33/5 34/34/5 35/35/6
f 36/36/6 35/35/6 34/34/5
f 39/37/3 38/38/3 37/39/6
f 40/40/6 37/39/6 38/38/3
f 43/41/1 42/42/1 41/43/2
f 44/44/2 41/43/2 42/42/1
f 41/43/2 44/44/2 45/45/3
f 46/46/3 45/45/3 44/44/2
f 49/47/4 48/48/4 47/49/1
f 50/50/1 47/49/1 48/48/4
f 53/51/4 52/52/4 51/53/5
f 54/54/5 51/53/5 52/52/4
f 51/53/5 54/54/5 55/55/6
f 56/56/6 55/55/6 54/54/5
f 59/57/3 58/58/3 57/59/6
f 60/60/6 57/59/6 58/58/3
f 63/61/1 62/62/1 61/63/2
f 64/64/2 61/63/2 62/62/1
f 61/63/2 64/64/2 65/65/3
f 66/66/3 65/65/3 64/64/2
f 69/67/4 68/68/4 67/69/1
f 70/70/1 67/69/1 68/68/4
f 73/71/4 72/72/4 71/73/5
f 74/74/5 71/73/5 72/72/4
f 71/73/5 74/74/5 75/75/6
f 76/76/6 75/75/6 74/74/5
f 79/77/3 78/78/3 77/79/6
f 80/80/6 77/79/6 78/78/3
f 83/81/3 82/82/2 81/83/3
f 84/84/2 81/83/3 82/82/2
f 82/82/2 85/85/1 84/84/2
f 86/86/1 84/84/2 85/85/1
f 89/87/3 88/88/6 87/17/3
f 90/19/6 87/17/3 88/88/6
f 93/89/6 92/90/5 91/91/6
f 94/92/5 91/91/6 92/90/5
f 92/90/5 95/93/4 94/92/5
f 96/94/4 94/92/5 95/93/4
f 99/95/4 98/96/1 97/7/4
f 100/9/1 97/7/4 98/96/1
f 103/97/3 102/98/2 101/99/3
f 104/100/2 101/99/3 102/98/2
f 102/98/2 105/101/1 104/100/2
f 106/102/7 104/100/2 105/101/1
f 109/103/3 108/104/6 107/37/3
f 110/105/6 107/37/3 108/104/6
f 113/106/6 112/107/5 111/108/6
f 114/109/5 111/108/6 112/107/5
f 112/107/5 115/110/4 114/109/5
f 116/111/4 114/109/5 115/110/4
f 119/112/4 118/113/1 117/114/4
f 120/29/1 117/114/4 118/113/1
f 123/115/3 122/116/2 121/117/3
f 124/118/2 121/117/3 122/116/2
f 122/116/2 125/119/1 124/118/2
f 126/120/1 124/118/2 125/119/1
f 129/58/3 128/60/6 127/57/3
f 130/59/6 127/57/3 128/60/6
f 133/121/6 132/122/5 131/123/6
f 134/124/5 131/123/6 132/122/5
f 132/122/5 135/125/4 134/124/5
f 136/126/4 134/124/5 135/125/4
f 139/48/4 138/50/1 137/47/4
f 140/49/1 137/47/4 138/50/1
f 143/127/3 142/128/2 141/129/3
f 144/130/2 141/129/3 142/128/2
f 142/128/2 145/131/1 144/130/2
f 146/132/7 144/130/2 145/131/1
f 149/78/3 148/80/6 147/77/3
f 150/79/6 147/77/3 148/80/6
f 153/133/6 152/134/5 151/135/6
f 154/136/5 151/135/6 152/134/5
f 152/134/5 155/137/4 154/136/5
f 156/138/4 154/136/5 155/137/4
f 159/68/4 158/70/1 157/67/4
f 160/69/1 157/67/4 158/70/1
f 163/139/8 162/140/9 161/141/10
f 161/141/10 162/140/9 164/142/9
f 165/143/8 162/140/9 163/139/8
f 164/142/9 162/140/9 166/144/11
f 167/145/12 162/140/9 165/143/8
f 166/144/11 162/140/9 167/145/12
f 170/146/9 169/147/9 168/148/9
f 168/148/9 169/147/9 171/149/9
f 172/150/9 169/147/9 170/146/9
f 171/149/9 169/147/9 173/151/9
f 174/152/9 169/147/9 172/150/9
f 173/151/9 169/147/9 174/152/9
f 177/139/9 176/140/9 175/141/10
f 175/141/10 176/140/9 178/142/9
f 179/143/9 176/140/9 177/139/9
f 178/142/9 176/140/9 180/144/9
f 181/145/12 176/140/9 179/143/9
f 180/144/9 176/140/9 181/145/12
f 184/146/9 183/147/9 182/148/9
f 182/148/9 183/147/9 185/149/9
f 186/150/9 183/147/9 184/146/9
f 185/149/9 183/147/9 187/151/9
f 188/152/9 183/147/9 186/150/9
f 187/151/9 183/147/9 188/152/9
f 191/153/9 190/154/11 189/155/10
f 191/153/9 189/155/10 192/156/9
f 191/153/9 193/157/11 190/154/11
f 191/153/9 192/156/9 194/158/8
f 191/153/9 195/159/12 193/157/11
f 191/153/9 194/158/8 195/159/12
f 198/160/9 197/161/9 196/162/9
f 198/160/9 196/162/9 199/163/9
f 198/160/9 200/164/9 197/161/9
f 198/160/9 199/163/9 201/165/9
f 198/160/9 202/166/9 200/164/9
f 198/160/9 201/165/9 202/166/9
f 205/153/9 204/154/9 203/155/9
f 205/153/9 203/155/9 206/156/9
f 205/153/9 207/157/9 204/154/9
f 205/153/9 206/156/9 208/158/9
f 205/153/9 209/159/9 207/157/9
f 205/153/9 208/158/9 209/159/9
f 212/160/9 211/167/9 210/162/10
f 212/160/9 210/162/10 213/163/9
f 212/160/9 214/168/9 211/167/9
f 212/160/9 213/163/9 215/169/9
f 212/160/9 216/166/12 214/168/9
f 212/160/9 215/169/9 216/166/12
f 219/170/13 218/171/13 217/172/14
f 217/172/14 218/171/13 220/173/14
f 221/174/13 218/171/13 219/170/13
f 220/173/14 218/171/13 222/175/13
f 223/176/13 218/171/13 221/174/13
f 222/175/13 218/171/13 223/176/13
f 226/177/13 225/178/13 224/179/14
f 224/179/14 225/178/13 227/180/14
f 228/181/13 225/178/13 226/177/13
f 227/180/14 225/178/13 229/182/13
f 230/183/13 225/178/13 228/181/13
f 229/182/13 225/178/13 230/183/13
f 233/170/13 232/171/13 231/172/14
f 231/172/14 232/171/13 234/173/14
f 235/174/13 232/171/13 233/170/13
f 234/173/14 232/171/13 236/175/14
f 237/176/13 232/171/13 235/174/13
f 236/175/14 232/171/13 237/176/13
f 240/177/13 239/178/13 238/179/14
f 238/179/14 239/178/13 241/180/14
f 242/181/13 239/178/13 240/177/13
f 241/180/14 239/178/13 243/182/13
f 244/183/13 239/178/13 242/181/13
f 243/182/13 239/178/13 244/183/13
f 247/184/15 246/185/15 245/186/14
f 247/184/15 245/186/14 248/187/14
f 247/184/15 249/188/15 246/185/15
f 247/184/15 248/187/14 250/189/15
f 247/184/15 251/190/15 249/188/15
f 247/184/15 250/189/15 251/190/15
f 254/191/15 253/192/15 252/193/14
f 254/191/15 252/193/14 255/194/14
f 254/191/15 256/195/15 253/192/15
f 254/191/15 255/194/14 257/196/15
f 254/191/15 258/197/15 256/195/15
f 254/191/15 257/196/15 258/197/15
f 261/184/14 260/185/15 259/186/14
f 261/184/14 259/186/14 262/187/14
f 261/184/14 263/188/15 260/185/15
f 261/184/14 262/187/14 264/189/14
f 261/184/14 265/190/15 263/188/15
f 261/184/14 264/189/14 265/190/15
f 268/191/15 267/192/15 266/198/14
f 268/191/15 266/198/14 269/199/14
f 268/191/15 270/195/15 267/192/15
f 268/191/15 269/199/14 271/196/15
f 268/191/15 272/200/15 270/195/15
f 268/191/15 271/196/15 272/200/15
