# Blender 5.1.0
# www.blender.org
mtllib Nel_gun_cal152x2_001_0_steel_4.mtl
o Nel_gun_cal152x2_001_0_steel_4
v -2.431900 0.433005 0.483729
v -1.948272 0.433007 -3.138769
v -2.480014 0.433005 0.000003
v -1.391624 0.433007 -3.581003
v -2.291231 0.433007 0.949049
v -2.061666 0.433007 1.377550
v -1.753634 0.433004 1.753626
v -1.377563 0.433007 2.061657
v -0.949063 0.433007 2.291221
v -0.483736 0.433007 2.431892
v -0.706648 0.433007 -3.767804
v -0.000002 0.433007 2.480004
v 0.000000 0.433007 -3.822436
v 0.706648 0.433007 -3.767804
v 0.483729 0.433007 2.431895
v 1.391623 0.433006 -3.581003
v 0.949054 0.433007 2.291224
v 1.377558 0.433006 2.061660
v 1.753625 0.433007 1.753623
v 2.061659 0.433007 1.377556
v 2.291223 0.433006 0.949061
v 2.431892 0.433006 0.483735
v 1.948272 0.433006 -3.138769
v 2.468110 0.433006 -0.000003
v -1.093476 1.580430 1.900964
v -1.753634 0.433004 1.753626
v -1.501632 1.973892 1.570809
v -1.377563 0.433007 2.061657
v -0.693344 1.355220 2.089936
v -0.949063 0.433007 2.291221
v -0.325052 1.271214 2.160426
v -0.483736 0.433007 2.431892
v 0.000000 1.250522 2.177788
v -0.000002 0.433007 2.480004
v 0.483729 0.433007 2.431895
v 0.325052 1.271214 2.160426
v 0.949054 0.433007 2.291224
v 0.693345 1.355220 2.089936
v 1.377558 0.433006 2.061660
v 1.093477 1.580430 1.900964
v 1.753625 0.433007 1.753623
v 1.501632 1.973892 1.570809
v -2.147718 2.751241 0.496303
v -2.480014 0.433005 0.000003
v -2.214795 2.751241 -0.001357
v -2.431900 0.433005 0.483729
v -2.291231 0.433007 0.949049
v -2.000134 2.672180 0.866609
v -2.061666 0.433007 1.377550
v -1.883634 2.556451 1.081986
v -1.501632 1.973892 1.570809
v -1.753634 0.433004 1.753626
v -1.391624 0.433007 -3.581003
v -1.778751 2.398338 -3.108928
v -1.948272 0.433007 -3.138769
v -1.270537 2.398338 -3.512682
v -0.706648 0.433007 -3.767804
v -0.645162 2.398338 -3.683229
v 0.000000 0.433007 -3.822436
v 0.000000 2.398338 -3.733108
v 0.645162 2.398338 -3.683229
v 0.706648 0.433007 -3.767804
v 1.270537 2.398338 -3.512682
v 1.391623 0.433006 -3.581003
v 1.778751 2.398338 -3.108928
v 1.948272 0.433006 -3.138769
v -1.948272 0.433007 -3.138769
v -1.778751 2.398338 -3.108928
v -2.480014 0.433005 0.000003
v -2.214795 2.751241 -0.001357
v -1.761152 2.751241 -3.018177
v -1.883634 2.556451 1.081986
v -1.139589 2.556452 1.081985
v -1.501632 1.973892 1.570809
v -1.139589 1.777161 1.735886
v -1.093476 1.580430 1.900964
v -0.980443 1.678795 1.818425
v -0.662150 1.678795 1.818425
v 0.000000 1.580430 1.900964
v -0.693344 1.355220 2.089936
v -0.503004 1.777161 1.735886
v -0.325052 1.271214 2.160426
v -0.503004 2.556452 1.081985
v 0.000000 1.250522 2.177788
v 0.000000 2.556453 1.081984
v 0.325052 1.271214 2.160426
v 0.503004 2.556452 1.081985
v 0.693345 1.355220 2.089936
v 0.503004 1.777161 1.735886
v 0.662151 1.678795 1.818425
v 1.093477 1.580430 1.900964
v 0.980443 1.678795 1.818425
v 1.139590 1.777161 1.735886
v 1.501632 1.973892 1.570809
v 1.139590 2.556452 1.081985
v 1.883634 2.556451 1.081986
v -1.883634 2.556451 1.081986
v -1.139589 2.672180 0.866609
v -1.139589 2.556452 1.081985
v -2.000134 2.672180 0.866609
v -1.139589 2.751241 0.496303
v -2.147718 2.751241 0.496303
v -2.214795 2.751241 -0.001357
v -0.980442 2.751241 0.371888
v 0.000000 2.751241 -0.001358
v -0.662149 2.751241 0.371888
v -1.761152 2.751241 -3.018177
v 0.000000 2.751241 -3.103569
v -0.503004 2.751241 0.496303
v -1.248794 2.751241 -3.377396
v -0.634121 2.751241 -3.545026
v 0.000000 2.751241 -3.594050
v 0.634121 2.751241 -3.545026
v 1.248794 2.751241 -3.377396
v 1.761152 2.751241 -3.018177
v 2.214796 2.751241 -0.001358
v 0.000000 2.751241 0.496303
v -0.503004 2.672180 0.866609
v 0.000000 2.672180 0.866609
v -0.503004 2.556452 1.081985
v 0.000000 2.556453 1.081984
v 0.503004 2.556452 1.081985
v 0.503004 2.672180 0.866609
v 0.503004 2.751241 0.496303
v 0.662149 2.751241 0.371888
v 0.980442 2.751241 0.371888
v 1.139590 2.751241 0.496303
v 2.147719 2.751241 0.496303
v 2.000134 2.672180 0.866609
v 1.139590 2.672180 0.866609
v 1.883634 2.556451 1.081986
v 1.139590 2.556452 1.081985
v 2.468110 0.433006 -0.000003
v 2.147719 2.751241 0.496303
v 2.214796 2.751241 -0.001358
v 2.431892 0.433006 0.483735
v 2.291223 0.433006 0.949061
v 2.000134 2.672180 0.866609
v 2.061659 0.433007 1.377556
v 1.883634 2.556451 1.081986
v 1.501632 1.973892 1.570809
v 1.753625 0.433007 1.753623
v 1.948272 0.433006 -3.138769
v 2.468110 0.433006 -0.000003
v 1.778751 2.398338 -3.108928
v 1.761152 2.751241 -3.018177
v 2.214796 2.751241 -0.001358
v 0.299637 2.157916 1.545681
v -0.299637 1.840822 1.811755
v -0.299637 2.157916 1.545681
v 0.299637 1.840822 1.811755
v -0.299637 2.252803 1.336776
v -0.299637 2.316463 1.412645
v -0.299637 2.292473 1.491383
v -0.299637 2.239624 1.535729
v -0.299637 2.157916 1.545681
v -0.299637 1.840822 1.811755
v -0.299637 1.777161 1.735886
v -0.299637 1.777161 1.735886
v 0.299637 1.840822 1.811755
v 0.299637 1.777161 1.735886
v -0.299637 1.840822 1.811755
v 0.299637 2.157916 1.545681
v 0.299637 1.777161 1.735886
v 0.299637 1.840822 1.811755
v 0.299637 2.252803 1.336776
v 0.299637 2.316463 1.412645
v 0.299637 2.292473 1.491383
v 0.299637 2.239624 1.535729
v 0.299637 2.252803 1.336776
v -0.299637 2.316463 1.412645
v -0.299637 2.252803 1.336776
v 0.299637 2.316463 1.412645
v 0.299637 2.292473 1.491383
v -0.299637 2.239624 1.535729
v -0.299637 2.292473 1.491383
v 0.299637 2.239624 1.535729
v -0.299637 2.157916 1.545681
v 0.299637 2.157916 1.545681
v 0.299637 2.316463 1.412645
v -0.299637 2.292473 1.491383
v -0.299637 2.316463 1.412645
v 0.299637 2.292473 1.491383
v -0.363944 2.207888 1.374773
v 0.363950 2.271587 1.421053
v -0.363944 2.271587 1.421053
v 0.363950 2.207888 1.374773
v -0.363944 2.271587 1.421053
v 0.363950 2.247257 1.495936
v -0.363944 2.247257 1.495936
v 0.363950 2.271587 1.421053
v -0.363944 2.247257 1.495936
v 0.363950 2.168520 1.495936
v -0.363944 2.168520 1.495936
v 0.363950 2.247257 1.495936
v -0.363944 2.168520 1.495936
v 0.363950 2.144189 1.421053
v -0.363944 2.144189 1.421053
v 0.363950 2.168520 1.495936
v -0.363944 2.207888 1.374773
v -0.363944 2.168520 1.495936
v -0.363944 2.144189 1.421053
v -0.363944 2.271587 1.421053
v -0.363944 2.247257 1.495936
v 0.363950 2.144189 1.421053
v 0.363950 2.271587 1.421053
v 0.363950 2.207888 1.374773
v 0.363950 2.168520 1.495936
v 0.363950 2.247257 1.495936
v 1.946601 1.704006 0.159988
v 1.952610 3.041191 0.286781
v 1.913714 3.041192 0.192877
v 1.999119 1.704005 0.286780
v 1.913714 3.041191 0.380685
v 1.946601 1.704004 0.413571
v 1.819810 3.041192 0.153980
v 1.946601 1.704006 0.159988
v 1.913714 3.041192 0.192877
v 1.819809 1.704006 0.107470
v 1.693018 1.704005 0.159988
v 1.725905 3.041192 0.192877
v 1.725905 3.041192 0.192877
v 1.640499 1.704005 0.286780
v 1.693018 1.704005 0.159988
v 1.687009 3.041191 0.286781
v 1.725905 3.041191 0.380685
v 1.693018 1.704005 0.413571
v 1.819809 3.041191 0.419582
v 1.693018 1.704005 0.413571
v 1.725905 3.041191 0.380685
v 1.819809 1.704004 0.466090
v 1.913714 3.041191 0.380685
v 1.946601 1.704004 0.413571
v -1.270537 2.398338 -3.512682
v -1.761152 2.751241 -3.018177
v -1.778751 2.398338 -3.108928
v -1.248794 2.751241 -3.377396
v -0.645162 2.398338 -3.683229
v -0.634121 2.751241 -3.545026
v 0.000000 2.398338 -3.733108
v 0.000000 2.751241 -3.594050
v 0.634121 2.751241 -3.545026
v 0.645162 2.398338 -3.683229
v 1.248794 2.751241 -3.377396
v 1.270537 2.398338 -3.512682
v 1.761152 2.751241 -3.018177
v 1.778751 2.398338 -3.108928
v 1.913714 3.041192 0.192877
v 1.819810 3.041191 0.286782
v 1.819810 3.041192 0.153980
v 1.952610 3.041191 0.286781
v 1.725905 3.041192 0.192877
v 1.913714 3.041191 0.380685
v 1.687009 3.041191 0.286781
v 1.819809 3.041191 0.419582
v 1.725905 3.041191 0.380685
vn -0.0000 -1.0000 -0.0000
vn -0.6379 0.1694 0.7513
vn -0.6777 0.2183 0.7022
vn -0.4504 0.2021 0.8696
vn -0.5238 0.2687 0.8084
vn -0.2503 0.2396 0.9380
vn -0.3553 0.3141 0.8804
vn -0.1003 0.2945 0.9504
vn -0.1831 0.3421 0.9216
vn -0.0000 0.3238 0.9461
vn -0.0000 0.3467 0.9380
vn 0.1831 0.3421 0.9216
vn 0.1003 0.2945 0.9504
vn 0.3553 0.3141 0.8804
vn 0.2503 0.2396 0.9380
vn 0.5238 0.2687 0.8084
vn 0.4505 0.2021 0.8696
vn 0.6777 0.2182 0.7022
vn 0.6379 0.1694 0.7513
vn -0.9847 0.1127 0.1327
vn -0.9875 0.1195 0.1029
vn -0.9606 0.1227 0.2493
vn -0.9742 0.1184 0.1920
vn -0.9148 0.1244 0.3843
vn -0.8860 0.1366 0.4431
vn -0.8086 0.1625 0.5654
vn -0.7984 0.1482 0.5836
vn -0.6380 0.1694 0.7512
vn -0.6778 0.2182 0.7021
vn -0.6207 0.0654 -0.7813
vn -0.4554 0.0589 -0.8883
vn -0.4465 0.0585 -0.8929
vn -0.1720 0.0477 -0.9839
vn -0.1693 0.0477 -0.9844
vn -0.0000 0.0454 -0.9990
vn 0.1693 0.0477 -0.9844
vn 0.1720 0.0477 -0.9839
vn 0.4465 0.0585 -0.8929
vn 0.4554 0.0589 -0.8883
vn 0.6207 0.0654 -0.7813
vn -0.9823 0.1033 -0.1562
vn -0.9835 0.0930 -0.1551
vn -0.9822 0.0872 -0.1664
vn -0.9824 0.1105 -0.1504
vn -0.9851 0.0872 -0.1481
vn -0.0000 0.6428 0.7660
vn -0.0000 0.7757 0.6311
vn -0.0000 0.8098 0.5867
vn 0.0001 0.7757 0.6311
vn -0.0000 0.7759 0.6309
vn -0.0000 0.9388 0.3445
vn -0.0000 0.8099 0.5866
vn -0.0000 0.9511 0.3087
vn -0.0000 0.9967 0.0814
vn -0.0000 0.9962 0.0867
vn -0.0000 1.0000 -0.0000
vn -0.0000 0.9945 0.1050
vn -0.0001 0.7759 0.6309
vn 0.9853 0.1077 0.1328
vn 0.9613 0.1205 0.2478
vn 0.9895 0.1192 0.0821
vn 0.9765 0.1187 0.1800
vn 0.9148 0.1244 0.3843
vn 0.8860 0.1366 0.4431
vn 0.8086 0.1625 0.5654
vn 0.7984 0.1482 0.5836
vn 0.6380 0.1694 0.7512
vn 0.6778 0.2182 0.7021
vn 0.9828 0.0893 -0.1615
vn 0.9831 0.0992 -0.1539
vn 0.9828 0.0872 -0.1628
vn 0.9830 0.0964 -0.1562
vn 0.9832 0.1073 -0.1478
vn -1.0000 -0.0000 -0.0000
vn -0.0000 -0.7660 0.6428
vn 1.0000 -0.0000 -0.0000
vn -0.0000 0.7661 -0.6428
vn -0.0000 0.8341 0.5516
vn -0.0000 0.3983 0.9173
vn -0.0000 0.1209 0.9927
vn -0.0000 0.9566 0.2915
vn -0.0000 0.8343 0.5514
vn -0.0000 0.9511 -0.3090
vn -0.0000 0.5878 -0.8090
vn -0.0000 0.5877 0.8091
vn -0.0000 0.9510 -0.3091
vn -0.0000 -0.5878 0.8090
vn -0.0000 0.5878 0.8090
vn -0.0000 -0.9511 0.3090
vn -0.0000 -0.5877 0.8091
vn 0.7068 0.0347 -0.7066
vn 0.9994 0.0348 -0.0000
vn 0.7068 0.0347 0.7066
vn 0.7066 0.0347 -0.7068
vn -0.0000 0.0348 -0.9994
vn -0.7066 0.0347 -0.7068
vn -0.7068 0.0347 -0.7066
vn -0.9994 0.0348 -0.0000
vn -0.7068 0.0347 0.7066
vn -0.7066 0.0347 0.7068
vn -0.0000 0.0348 0.9994
vn 0.7066 0.0347 0.7068
vn -0.6059 0.2263 -0.7627
vn -0.5852 0.2619 -0.7675
vn -0.3999 0.3348 -0.8532
vn -0.4081 0.3486 -0.8438
vn -0.1573 0.3644 -0.9179
vn -0.1610 0.3643 -0.9173
vn -0.0000 0.3666 -0.9304
vn 0.1610 0.3643 -0.9173
vn 0.1573 0.3644 -0.9179
vn 0.4081 0.3486 -0.8438
vn 0.3999 0.3348 -0.8532
vn 0.5852 0.2619 -0.7675
vn 0.6059 0.2263 -0.7627
vt 1.144546 2.892328
vt 1.136478 2.939898
vt 1.143816 2.884997
vt 1.128032 2.946600
vt 1.141682 2.877945
vt 1.138199 2.871450
vt 1.133525 2.865751
vt 1.127819 2.861082
vt 1.121317 2.857603
vt 1.114257 2.855471
vt 1.117639 2.949431
vt 1.106917 2.854742
vt 1.106917 2.950259
vt 1.096195 2.949431
vt 1.099578 2.855471
vt 1.085802 2.946600
vt 1.092517 2.857603
vt 1.086016 2.861082
vt 1.080310 2.865751
vt 1.075636 2.871450
vt 1.072153 2.877944
vt 1.070019 2.884997
vt 1.077356 2.939898
vt 1.069469 2.892328
vt -0.129701 0.529932
vt -0.133525 0.506566
vt -0.123508 0.523965
vt -0.127819 0.506566
vt -0.117437 0.520550
vt -0.121317 0.506566
vt -0.111849 0.519276
vt -0.114257 0.506566
vt -0.106917 0.518963
vt -0.106917 0.506566
vt -0.099578 0.506566
vt -0.101985 0.519276
vt -0.092517 0.506566
vt -0.096397 0.520550
vt -0.086016 0.506566
vt -0.090326 0.523965
vt -0.080310 0.506566
vt -0.084133 0.529932
vt -1.892349 0.541719
vt -1.892328 0.506566
vt -1.884806 0.541719
vt -1.884997 0.506566
vt -1.877945 0.506566
vt -1.879194 0.540520
vt -1.871450 0.506566
vt -1.875930 0.538765
vt -1.868521 0.529932
vt -1.865751 0.506566
vt 1.136478 0.506566
vt 1.133906 0.536368
vt 1.128032 0.506566
vt 1.126195 0.536368
vt 1.117639 0.506566
vt 1.116706 0.536368
vt 1.106917 0.506566
vt 1.106917 0.536368
vt 1.097128 0.536368
vt 1.096195 0.506566
vt 1.087640 0.536368
vt 1.085802 0.506566
vt 1.079929 0.536368
vt 1.077356 0.506566
vt -1.939446 0.536368
vt -1.939898 0.506566
vt -1.938070 0.541719
vt -0.124208 0.538765
vt -0.135497 0.538765
vt -0.124208 0.526948
vt -0.121793 0.525457
vt -0.116964 0.525457
vt -0.106917 0.523965
vt -0.114549 0.526948
vt -0.114549 0.538765
vt -0.106917 0.538765
vt -0.099285 0.538765
vt -0.099285 0.526948
vt -0.096871 0.525457
vt -0.092041 0.525457
vt -0.089626 0.526948
vt -0.089626 0.538765
vt -0.078337 0.538765
vt -0.124208 2.875930
vt -0.124208 2.879194
vt -0.135497 2.875930
vt -0.137265 2.879194
vt -0.124208 2.884806
vt -0.139504 2.884806
vt -0.140522 2.892349
vt -0.121793 2.886692
vt -0.106917 2.892349
vt -0.116964 2.886692
vt -0.133639 2.938070
vt -0.106917 2.939364
vt -0.114549 2.884806
vt -0.125865 2.943515
vt -0.116539 2.946055
vt -0.106917 2.946798
vt -0.097296 2.946055
vt -0.087969 2.943515
vt -0.080196 2.938070
vt -0.073313 2.892349
vt -0.106917 2.884806
vt -0.114549 2.879194
vt -0.106917 2.879194
vt -0.114549 2.875930
vt -0.106917 2.875930
vt -0.099285 2.875930
vt -0.099285 2.879194
vt -0.099285 2.884806
vt -0.096871 2.886692
vt -0.092041 2.886692
vt -0.089626 2.884806
vt -0.074330 2.884806
vt -0.076570 2.879194
vt -0.089626 2.879194
vt -0.078337 2.875930
vt -0.089626 2.875930
vt 2.892349 0.541719
vt 2.884806 0.541719
vt 2.892328 0.506566
vt 2.884997 0.506566
vt 2.877944 0.506566
vt 2.879194 0.540520
vt 2.871450 0.506566
vt 2.875930 0.538765
vt 2.868521 0.529932
vt 2.865751 0.506566
vt 2.939446 0.536368
vt 2.939898 0.506566
vt 2.938070 0.541719
vt -0.111464 0.532722
vt -0.111464 0.527914
vt -0.102371 0.532722
vt -0.102371 0.527914
vt -1.869725 0.534762
vt -1.870919 0.535126
vt -1.872068 0.534161
vt -1.869053 0.533961
vt -1.868902 0.532722
vt -1.864870 0.527914
vt -1.866020 0.526948
vt 1.102371 2.866020
vt 1.102371 2.864870
vt 1.111464 2.866020
vt 1.111464 2.864870
vt 2.864870 0.527914
vt 2.866020 0.526948
vt 2.868902 0.532722
vt 2.872068 0.534161
vt 2.870919 0.535126
vt 2.869725 0.534762
vt 2.869053 0.533961
vt -0.111464 2.872068
vt -0.111464 2.870919
vt -0.102371 2.872068
vt -0.102371 2.870919
vt -0.111464 0.534762
vt -0.111464 0.533961
vt -0.102371 0.534762
vt -0.102371 0.533961
vt -0.111464 2.869725
vt -0.102371 2.869725
vt 1.112439 0.534446
vt 1.101395 0.534446
vt 1.112439 0.533480
vt 1.101395 0.533480
vt -0.112439 2.869656
vt -0.101395 2.869656
vt -0.112439 2.870791
vt -0.101395 2.870791
vt -0.112439 0.532883
vt -0.101395 0.532883
vt -0.112439 0.534077
vt -0.101395 0.534077
vt 1.112439 2.870791
vt 1.101395 2.870791
vt 1.112439 2.869656
vt 1.101395 2.869656
vt -1.870791 0.532514
vt -1.869656 0.532883
vt -1.871492 0.533480
vt -1.870791 0.534446
vt -1.869656 0.534077
vt 2.871492 0.533480
vt 2.870791 0.534446
vt 2.870791 0.532514
vt 2.869656 0.532883
vt 2.869656 0.534077
vt 2.889405 0.546116
vt 2.887982 0.546116
vt 2.889903 0.525839
vt 2.887982 0.525839
vt 2.886559 0.546116
vt 2.886060 0.525839
vt 1.077881 0.546116
vt 1.077382 0.525839
vt 1.079306 0.546116
vt 1.079306 0.525839
vt 1.081229 0.525839
vt 1.080730 0.546116
vt -1.889903 0.525839
vt -1.887982 0.525839
vt -1.889405 0.546116
vt -1.887982 0.546116
vt -1.886559 0.546116
vt -1.886060 0.525839
vt -0.080730 0.546116
vt -0.081229 0.525839
vt -0.079306 0.546116
vt -0.079306 0.525839
vt -0.077881 0.546116
vt -0.077382 0.525839
vt 1.133639 0.541719
vt 1.125865 0.541719
vt 1.116539 0.541719
vt 1.106917 0.541719
vt 1.097296 0.541719
vt 1.087970 0.541719
vt 1.080196 0.541719
vt -0.079306 2.889994
vt -0.079306 2.887982
vt -0.077881 2.889405
vt -0.077291 2.887982
vt -0.080730 2.889405
vt -0.077881 2.886559
vt -0.081321 2.887982
vt -0.079306 2.885969
vt -0.080730 2.886559
s 1
g Nel_gun_cal152x2_001_0_steel_4_steel_4
usemtl steel_4
f 3/1/1 2/2/1 1/3/1
f 4/4/1 1/3/1 2/2/1
f 5/5/1 1/3/1 4/4/1
f 5/5/1 4/4/1 6/6/1
f 4/4/1 7/7/1 6/6/1
f 7/7/1 4/4/1 8/8/1
f 4/4/1 9/9/1 8/8/1
f 9/9/1 4/4/1 10/10/1
f 11/11/1 10/10/1 4/4/1
f 10/10/1 11/11/1 12/12/1
f 13/13/1 12/12/1 11/11/1
f 13/13/1 14/14/1 12/12/1
f 15/15/1 12/12/1 14/14/1
f 14/14/1 16/16/1 15/15/1
f 17/17/1 15/15/1 16/16/1
f 17/17/1 16/16/1 18/18/1
f 16/16/1 19/19/1 18/18/1
f 19/19/1 16/16/1 20/20/1
f 16/16/1 21/21/1 20/20/1
f 22/22/1 21/21/1 16/16/1
f 16/16/1 23/23/1 22/22/1
f 24/24/1 22/22/1 23/23/1
f 27/25/2 26/26/3 25/27/4
f 28/28/5 25/27/4 26/26/3
f 25/27/4 28/28/5 29/29/6
f 30/30/7 29/29/6 28/28/5
f 29/29/6 30/30/7 31/31/8
f 32/32/9 31/31/8 30/30/7
f 31/31/8 32/32/9 33/33/10
f 34/34/11 33/33/10 32/32/9
f 34/34/11 35/35/12 33/33/10
f 36/36/13 33/33/10 35/35/12
f 35/35/12 37/37/14 36/36/13
f 38/38/15 36/36/13 37/37/14
f 37/37/14 39/39/16 38/38/15
f 40/40/17 38/38/15 39/39/16
f 39/39/16 41/41/18 40/40/17
f 42/42/19 40/40/17 41/41/18
f 45/43/20 44/44/21 43/45/22
f 46/46/23 43/45/22 44/44/21
f 46/46/23 47/47/24 43/45/22
f 48/48/25 43/45/22 47/47/24
f 47/47/24 49/49/26 48/48/25
f 50/50/27 48/48/25 49/49/26
f 50/50/27 49/49/26 51/51/28
f 52/52/29 51/51/28 49/49/26
f 55/53/30 54/54/30 53/55/31
f 56/56/32 53/55/31 54/54/30
f 53/55/31 56/56/32 57/57/33
f 58/58/34 57/57/33 56/56/32
f 57/57/33 58/58/34 59/59/35
f 60/60/35 59/59/35 58/58/34
f 60/60/35 61/61/36 59/59/35
f 62/62/37 59/59/35 61/61/36
f 61/61/36 63/63/38 62/62/37
f 64/64/39 62/62/37 63/63/38
f 63/63/38 65/65/40 64/64/39
f 66/66/40 64/64/39 65/65/40
f 69/44/41 68/67/42 67/68/43
f 69/44/41 70/43/44 68/67/42
f 71/69/45 68/67/42 70/43/44
f 74/25/46 73/70/47 72/71/48
f 75/72/46 73/70/47 74/25/46
f 76/27/46 75/72/46 74/25/46
f 77/73/46 75/72/46 76/27/46
f 77/73/46 76/27/46 78/74/46
f 79/75/46 78/74/46 76/27/46
f 80/29/46 79/75/46 76/27/46
f 81/76/46 78/74/46 79/75/46
f 82/31/46 79/75/46 80/29/46
f 81/76/46 79/75/46 83/77/49
f 84/33/46 79/75/46 82/31/46
f 85/78/47 83/77/49 79/75/46
f 79/75/46 84/33/46 86/36/46
f 85/78/47 79/75/46 87/79/47
f 79/75/46 86/36/46 88/38/46
f 89/80/46 87/79/47 79/75/46
f 90/81/46 89/80/46 79/75/46
f 79/75/46 88/38/46 91/40/46
f 79/75/46 91/40/46 90/81/46
f 92/82/46 90/81/46 91/40/46
f 93/83/46 92/82/46 91/40/46
f 93/83/46 91/40/46 94/42/46
f 95/84/47 93/83/46 94/42/46
f 95/84/47 94/42/46 96/85/48
f 99/86/50 98/87/51 97/88/52
f 100/89/53 97/88/52 98/87/51
f 98/87/51 101/90/54 100/89/53
f 102/91/55 100/89/53 101/90/54
f 102/91/55 101/90/54 103/92/56
f 104/93/56 103/92/56 101/90/54
f 103/92/56 104/93/56 105/94/56
f 106/95/56 105/94/56 104/93/56
f 103/92/56 105/94/56 107/96/56
f 108/97/56 107/96/56 105/94/56
f 106/95/56 109/98/54 105/94/56
f 110/99/56 107/96/56 108/97/56
f 111/100/56 110/99/56 108/97/56
f 111/100/56 108/97/56 112/101/56
f 108/97/56 113/102/56 112/101/56
f 114/103/56 113/102/56 108/97/56
f 115/104/56 114/103/56 108/97/56
f 108/97/56 105/94/56 115/104/56
f 116/105/56 115/104/56 105/94/56
f 117/106/57 105/94/56 109/98/54
f 109/98/54 118/107/51 117/106/57
f 119/108/51 117/106/57 118/107/51
f 118/107/51 120/109/50 119/108/51
f 121/110/50 119/108/51 120/109/50
f 121/110/50 122/111/58 119/108/51
f 123/112/51 119/108/51 122/111/58
f 119/108/51 123/112/51 117/106/57
f 124/113/54 117/106/57 123/112/51
f 117/106/57 124/113/54 105/94/56
f 125/114/56 105/94/56 124/113/54
f 125/114/56 126/115/56 105/94/56
f 116/105/56 105/94/56 126/115/56
f 126/115/56 127/116/54 116/105/56
f 128/117/55 116/105/56 127/116/54
f 128/117/55 127/116/54 129/118/53
f 130/119/51 129/118/53 127/116/54
f 129/118/53 130/119/51 131/120/52
f 132/121/50 131/120/52 130/119/51
f 135/122/59 134/123/60 133/124/61
f 136/125/62 133/124/61 134/123/60
f 136/125/62 134/123/60 137/126/63
f 138/127/64 137/126/63 134/123/60
f 137/126/63 138/127/64 139/128/65
f 140/129/66 139/128/65 138/127/64
f 140/129/66 141/130/67 139/128/65
f 142/131/68 139/128/65 141/130/67
f 145/132/69 144/124/70 143/133/71
f 145/132/69 146/134/72 144/124/70
f 147/122/73 144/124/70 146/134/72
f 150/135/46 149/136/46 148/137/46
f 151/138/46 148/137/46 149/136/46
f 154/139/74 153/140/74 152/141/74
f 155/142/74 154/139/74 152/141/74
f 156/143/74 155/142/74 152/141/74
f 156/143/74 152/141/74 157/144/74
f 158/145/74 157/144/74 152/141/74
f 161/146/75 160/147/75 159/148/75
f 162/149/75 159/148/75 160/147/75
f 165/150/76 164/151/76 163/152/76
f 166/153/76 163/152/76 164/151/76
f 167/154/76 163/152/76 166/153/76
f 168/155/76 163/152/76 167/154/76
f 169/156/76 163/152/76 168/155/76
f 172/157/77 171/158/77 170/159/77
f 173/160/77 170/159/77 171/158/77
f 176/161/78 175/162/79 174/163/78
f 177/164/79 174/163/78 175/162/79
f 175/162/79 178/135/80 177/164/79
f 179/137/80 177/164/79 178/135/80
f 182/158/81 181/165/82 180/160/81
f 183/166/82 180/160/81 181/165/82
f 186/167/83 185/168/83 184/169/84
f 187/170/84 184/169/84 185/168/83
f 190/171/85 189/172/85 188/173/86
f 191/174/86 188/173/86 189/172/85
f 194/175/87 193/176/87 192/177/88
f 195/178/88 192/177/88 193/176/87
f 198/179/89 197/180/89 196/181/90
f 199/182/90 196/181/90 197/180/89
f 202/183/74 201/184/74 200/185/74
f 203/186/74 200/185/74 201/184/74
f 204/187/74 203/186/74 201/184/74
f 207/188/76 206/189/76 205/190/76
f 208/191/76 205/190/76 206/189/76
f 209/192/76 208/191/76 206/189/76
f 212/193/91 211/194/92 210/195/91
f 213/196/92 210/195/91 211/194/92
f 211/194/92 214/197/93 213/196/92
f 215/198/93 213/196/92 214/197/93
f 218/199/94 217/200/94 216/201/95
f 219/202/95 216/201/95 217/200/94
f 219/202/95 220/203/96 216/201/95
f 221/204/96 216/201/95 220/203/96
f 224/205/97 223/206/98 222/207/97
f 225/208/98 222/207/97 223/206/98
f 225/208/98 223/206/98 226/209/99
f 227/210/99 226/209/99 223/206/98
f 230/211/100 229/212/100 228/213/101
f 231/214/101 228/213/101 229/212/100
f 228/213/101 231/214/101 232/215/102
f 233/216/102 232/215/102 231/214/101
f 236/54/103 235/217/104 234/56/105
f 237/218/106 234/56/105 235/217/104
f 234/56/105 237/218/106 238/58/107
f 239/219/108 238/58/107 237/218/106
f 238/58/107 239/219/108 240/60/109
f 241/220/109 240/60/109 239/219/108
f 241/220/109 242/221/110 240/60/109
f 243/61/111 240/60/109 242/221/110
f 242/221/110 244/222/112 243/61/111
f 245/63/113 243/61/111 244/222/112
f 244/222/112 246/223/114 245/63/113
f 247/65/115 245/63/113 246/223/114
f 250/224/56 249/225/56 248/226/56
f 248/226/56 249/225/56 251/227/56
f 252/228/56 249/225/56 250/224/56
f 251/227/56 249/225/56 253/229/56
f 254/230/56 249/225/56 252/228/56
f 253/229/56 249/225/56 255/231/56
f 256/232/56 249/225/56 254/230/56
f 255/231/56 249/225/56 256/232/56
