# Blender 5.1.0
# www.blender.org
mtllib Dr_Hull_Midsection_destroyer_A_001_1.mtl
o Dr_Hull_Midsection_destroyer_A_001_1
v -3.849903 5.000002 0.547794
v -3.815455 0.000002 -0.001700
v -3.815455 5.000002 -0.001700
v -3.849903 0.000002 0.547794
v -3.815455 -4.999998 -0.001700
v -3.849903 -4.999998 0.547794
v 3.815455 0.000002 -0.001700
v 3.849903 5.000002 0.547794
v 3.815455 5.000002 -0.001700
v 3.849903 0.000002 0.547794
v 3.849903 -4.999998 0.547794
v 3.815455 -4.999998 -0.001700
vn -0.9980 -0.0000 -0.0626
vn 0.9980 -0.0000 -0.0626
vt -11.305529 0.145447
vt -11.214584 0.145447
vt -11.305529 0.155784
vt -11.214584 0.155784
vt -11.123640 0.145447
vt -11.123640 0.155784
vt 12.305529 0.145447
vt 12.305529 0.155784
vt 12.214584 0.145447
vt 12.214584 0.155784
vt 12.123640 0.155784
vt 12.123640 0.145447
s 1
g Dr_Hull_Midsection_destroyer_A_001_1_waterline
usemtl waterline
f 3/1/1 2/2/1 1/3/1
f 4/4/1 1/3/1 2/2/1
f 2/2/1 5/5/1 4/4/1
f 6/6/1 4/4/1 5/5/1
f 9/7/2 8/8/2 7/9/2
f 10/10/2 7/9/2 8/8/2
f 10/10/2 11/11/2 7/9/2
f 12/12/2 7/9/2 11/11/2
