# Blender 5.1.0
# www.blender.org
mtllib Dr_Hull_Rostrum_destroyer_A_001_3.mtl
o Dr_Hull_Rostrum_destroyer_A_001_3
v -2.356009 9.999998 2.693636
v -0.000001 4.999987 2.693636
v -2.356008 4.999983 2.693636
v -0.000001 9.999998 2.693636
v 2.356007 9.999998 2.693636
v 2.356007 4.999983 2.693636
v -3.626125 26.748545 4.693459
v -3.417743 29.442095 4.693459
v -2.356008 26.745176 4.693459
v -0.000002 32.048782 4.693459
v -2.958948 32.048782 4.693459
v -0.961815 33.645386 4.693458
v -1.181303 33.645363 4.693460
v -0.788137 34.105911 4.693460
v -0.721223 34.643814 4.693460
v -2.367543 34.362991 4.693459
v -0.000002 36.887383 4.693459
v 0.721220 34.643814 4.693460
v -0.788141 35.035812 4.693459
v -0.963300 35.278168 4.693460
v 0.788138 35.035812 4.693459
v -1.354992 34.105919 4.693459
v -1.421898 34.643814 4.693459
v -1.354987 35.035812 4.693458
v 0.788134 34.105911 4.693460
v -1.544305 36.887383 4.693459
v -1.179817 35.278168 4.693460
v 0.963296 35.278168 4.693460
v 0.961812 33.645386 4.693458
v -0.484949 39.472305 4.693459
v 1.544301 36.887383 4.693459
v 1.179814 35.278168 4.693460
v 1.354984 35.035812 4.693458
v 2.367539 34.362991 4.693459
v 1.421894 34.643814 4.693459
v 1.354989 34.105919 4.693459
v 1.181299 33.645363 4.693460
v 2.958945 32.048782 4.693459
v 0.484945 39.472305 4.693459
v 3.417740 29.442095 4.693459
v -0.000002 39.472305 4.693459
v -0.127591 40.005493 4.693459
v 0.127587 40.005493 4.693459
v -0.000002 40.021271 4.693459
v 2.356005 26.745176 4.693459
v 3.626122 26.748545 4.693459
v -0.000002 26.745138 4.693459
v -0.000001 9.999998 4.693460
v 2.356005 9.999998 4.693460
v -2.356007 9.999998 4.693460
vn -0.0000 -0.0000 1.0000
vt 0.544863 -11.305528
vt 0.499965 -11.305528
vt 0.544863 -11.396472
vt 0.499965 -11.396472
vt 0.455067 -11.396472
vt 0.455067 -11.305528
vt 0.544862 -11.555536
vt 0.565096 -11.604590
vt 0.569067 -11.555597
vt 0.499964 -11.652002
vt 0.556352 -11.652002
vt 0.518293 -11.681044
vt 0.522476 -11.681043
vt 0.514983 -11.689420
vt 0.513708 -11.699203
vt 0.545082 -11.694096
vt 0.499964 -11.740011
vt 0.486220 -11.699203
vt 0.514984 -11.706333
vt 0.518321 -11.710741
vt 0.484945 -11.706333
vt 0.525786 -11.689420
vt 0.527061 -11.699203
vt 0.525786 -11.706333
vt 0.484945 -11.689420
vt 0.529393 -11.740011
vt 0.522448 -11.710741
vt 0.481607 -11.710741
vt 0.481635 -11.681044
vt 0.509205 -11.787027
vt 0.470535 -11.740011
vt 0.477481 -11.710741
vt 0.474142 -11.706333
vt 0.454846 -11.694096
vt 0.472867 -11.699203
vt 0.474142 -11.689420
vt 0.477452 -11.681043
vt 0.443576 -11.652002
vt 0.490722 -11.787027
vt 0.434833 -11.604590
vt 0.499964 -11.787027
vt 0.502395 -11.796726
vt 0.497532 -11.796726
vt 0.499964 -11.797013
vt 0.455067 -11.555536
vt 0.430862 -11.555597
vt 0.499965 -11.555535
vt 0.455067 -11.396472
vt 0.544863 -11.396472
s 1
g Dr_Hull_Rostrum_destroyer_A_001_3_steel_deck_1
usemtl steel_deck_1
f 3/1/1 2/2/1 1/3/1
f 4/4/1 1/3/1 2/2/1
f 4/4/1 2/2/1 5/5/1
f 6/6/1 5/5/1 2/2/1
f 9/7/1 8/8/1 7/9/1
f 9/7/1 10/10/1 8/8/1
f 11/11/1 8/8/1 10/10/1
f 10/10/1 12/12/1 11/11/1
f 13/13/1 11/11/1 12/12/1
f 14/14/1 12/12/1 10/10/1
f 14/14/1 10/10/1 15/15/1
f 11/11/1 13/13/1 16/16/1
f 17/17/1 15/15/1 10/10/1
f 17/17/1 10/10/1 18/18/1
f 15/15/1 17/17/1 19/19/1
f 19/19/1 17/17/1 20/20/1
f 17/17/1 18/18/1 21/21/1
f 22/22/1 16/16/1 13/13/1
f 23/23/1 16/16/1 22/22/1
f 23/23/1 24/24/1 16/16/1
f 25/25/1 18/18/1 10/10/1
f 26/26/1 16/16/1 24/24/1
f 17/17/1 26/26/1 20/20/1
f 27/27/1 26/26/1 24/24/1
f 27/27/1 20/20/1 26/26/1
f 17/17/1 21/21/1 28/28/1
f 29/29/1 25/25/1 10/10/1
f 26/26/1 17/17/1 30/30/1
f 17/17/1 28/28/1 31/31/1
f 32/32/1 31/31/1 28/28/1
f 31/31/1 32/32/1 33/33/1
f 31/31/1 33/33/1 34/34/1
f 35/35/1 34/34/1 33/33/1
f 34/34/1 35/35/1 36/36/1
f 36/36/1 37/37/1 34/34/1
f 38/38/1 34/34/1 37/37/1
f 37/37/1 29/29/1 38/38/1
f 10/10/1 38/38/1 29/29/1
f 31/31/1 39/39/1 17/17/1
f 38/38/1 10/10/1 40/40/1
f 41/41/1 30/30/1 17/17/1
f 41/41/1 17/17/1 39/39/1
f 30/30/1 41/41/1 42/42/1
f 39/39/1 43/43/1 41/41/1
f 44/44/1 42/42/1 41/41/1
f 44/44/1 41/41/1 43/43/1
f 45/45/1 40/40/1 10/10/1
f 40/40/1 45/45/1 46/46/1
f 10/10/1 47/47/1 45/45/1
f 47/47/1 10/10/1 9/7/1
f 47/47/1 48/4/1 45/45/1
f 47/47/1 9/7/1 48/4/1
f 49/48/1 45/45/1 48/4/1
f 50/49/1 48/4/1 9/7/1
