# Blender 5.1.0
# www.blender.org
mtllib Dr_Hull_Rostrum_destroyer_A_001_2.mtl
o Dr_Hull_Rostrum_destroyer_A_001_2
v -0.000002 39.436111 -0.000482
v -1.226709 36.887383 -0.001205
v -0.408147 38.954002 -0.000634
v 1.226705 36.887383 -0.001205
v 0.408143 38.954002 -0.000634
v -0.698177 34.362991 -3.274984
v -1.961441 32.048782 -2.282813
v -0.888440 32.048782 -3.278100
v -1.572217 34.362991 -2.282345
v -0.785952 36.887383 -2.854193
v -0.505994 36.887383 -3.212355
v -0.455403 37.614532 -3.176578
v -0.396370 38.195709 -2.829144
v -0.120238 37.934532 -3.332438
v -0.098753 38.589111 -2.913581
v -0.104188 38.944519 -2.283537
v -0.887819 36.887383 -2.553745
v -0.392401 38.529442 -2.278608
v -0.952693 36.887383 -2.280629
v -0.400274 38.781746 -1.139621
v -0.114605 39.222458 -1.142010
v -1.089701 36.887383 -1.140918
v -0.125023 39.420334 -0.000482
v -2.007740 34.362991 -0.001588
v -2.530408 32.048782 -0.001661
v -2.962295 29.443285 -0.001701
v -2.273547 29.439425 -2.283058
v -2.471803 26.747835 -2.283058
v -3.249925 26.743975 -0.001701
v -3.457294 24.115801 -0.001701
v -2.622205 24.115152 -2.283058
v -2.905475 9.012060 -2.283057
v -3.815456 9.012060 -0.001700
v -2.905475 4.999983 -2.283057
v -3.815456 4.999983 -0.001700
v -0.000002 38.610023 -2.914008
v -0.104188 38.944519 -2.283537
v -0.098753 38.589111 -2.913581
v -0.000002 38.958862 -2.287433
v -0.000002 39.237511 -1.143958
v -0.114605 39.222458 -1.142010
v -0.125023 39.420334 -0.000482
v 0.125019 39.420334 -0.000482
v 0.114602 39.222458 -1.142010
v 0.104185 38.944519 -2.283537
v 0.098749 38.589111 -2.913581
v -1.221074 4.999983 -3.278141
v -2.905475 9.012060 -2.283057
v -2.905475 4.999983 -2.283057
v -1.221074 9.012060 -3.278140
v -2.622205 24.115152 -2.283058
v -0.000001 4.999983 -3.468548
v -1.171620 24.114100 -3.278141
v -2.471803 26.747835 -2.283058
v -0.000001 9.012060 -3.468548
v -1.121114 26.750757 -3.278141
v -2.273547 29.439425 -2.283058
v 1.221072 9.012060 -3.278140
v 1.221072 4.999983 -3.278141
v -0.000002 24.114065 -3.468549
v 2.905473 9.012060 -2.283057
v 2.905473 4.999983 -2.283057
v 2.622201 24.115152 -2.283058
v 1.171617 24.114100 -3.278141
v 2.471800 26.747835 -2.283058
v 1.121110 26.750757 -3.278141
v 2.273544 29.439425 -2.283058
v -1.037258 29.436502 -3.278141
v -1.961441 32.048782 -2.282813
v -0.888440 32.048782 -3.278100
v -0.000002 29.435862 -3.468549
v -0.000002 26.751398 -3.468549
v 1.037255 29.436502 -3.278141
v 1.961438 32.048782 -2.282813
v 0.888437 32.048782 -3.278100
v -0.075822 32.048782 -3.460062
v -0.698177 34.362991 -3.274984
v 0.075818 32.048782 -3.460062
v 0.698174 34.362991 -3.274984
v -0.201425 34.362991 -3.442625
v -0.505994 36.887383 -3.212355
v -0.000002 32.048782 -3.468549
v 0.201422 34.362991 -3.442625
v 0.505990 36.887383 -3.212355
v -0.189642 36.887383 -3.378483
v -0.455403 37.614532 -3.176578
v -0.120238 37.934532 -3.332438
v -0.000002 37.938950 -3.360247
v -0.098753 38.589111 -2.913581
v -0.000002 38.610023 -2.914008
v 0.098749 38.589111 -2.913581
v 0.120235 37.934532 -3.332438
v -0.000002 34.362991 -3.465533
v 0.189639 36.887383 -3.378483
v 0.455399 37.614532 -3.176578
v -0.000002 36.887383 -3.407888
v 1.961438 32.048782 -2.282813
v 0.698174 34.362991 -3.274984
v 0.888437 32.048782 -3.278100
v 1.572214 34.362991 -2.282345
v 0.785949 36.887383 -2.854193
v 0.505990 36.887383 -3.212355
v 0.455399 37.614532 -3.176578
v 0.396367 38.195709 -2.829144
v 0.120235 37.934532 -3.332438
v 0.098749 38.589111 -2.913581
v 0.104185 38.944519 -2.283537
v 0.887815 36.887383 -2.553745
v 0.392397 38.529442 -2.278608
v 0.952690 36.887383 -2.280629
v 0.400270 38.781746 -1.139621
v 0.114602 39.222458 -1.142010
v 1.089697 36.887383 -1.140918
v 0.125019 39.420334 -0.000482
v 2.007737 34.362991 -0.001588
v 2.530405 32.048782 -0.001661
v 2.962292 29.443285 -0.001701
v 2.273544 29.439425 -2.283058
v 2.471800 26.747835 -2.283058
v 3.249922 26.743975 -0.001701
v 3.457291 24.115801 -0.001701
v 2.622201 24.115152 -2.283058
v 2.905473 9.012060 -2.283057
v 3.815454 9.012060 -0.001700
v 2.905473 4.999983 -2.283057
v 3.815454 4.999983 -0.001700
vn -0.4645 0.0299 -0.8851
vn -0.8564 0.1197 -0.5023
vn -0.5406 0.0580 -0.8393
vn -0.8935 0.1700 -0.4156
vn -0.8679 0.1759 -0.4646
vn -0.6342 0.0670 -0.7703
vn -0.7358 0.2211 -0.6401
vn -0.8327 0.3993 -0.3837
vn -0.4298 0.3216 -0.8437
vn -0.4694 0.6496 -0.5980
vn -0.5015 0.8070 -0.3119
vn -0.9285 0.2618 -0.2633
vn -0.8699 0.4539 -0.1929
vn -0.9461 0.2767 -0.1685
vn -0.8867 0.4519 -0.0977
vn -0.5281 0.8312 -0.1739
vn -0.9465 0.2996 -0.1199
vn -0.8876 0.4537 -0.0801
vn -0.5195 0.8412 -0.1501
vn -0.9413 0.3209 -0.1052
vn -0.9551 0.2290 -0.1880
vn -0.9534 0.1857 -0.2378
vn -0.9523 0.1090 -0.2849
vn -0.8257 0.0750 -0.5591
vn -0.8048 0.0561 -0.5909
vn -0.9429 0.0872 -0.3215
vn -0.9396 0.0405 -0.3400
vn -0.7876 0.0258 -0.6157
vn -0.7621 0.0074 -0.6474
vn -0.9288 0.0110 -0.3705
vn -0.7594 -0.0000 -0.6506
vn -0.9288 -0.0000 -0.3705
vn -0.4693 0.6497 -0.5980
vn -0.5014 0.8071 -0.3119
vn -0.0000 0.7456 -0.6664
vn -0.0000 0.9315 -0.3637
vn -0.0000 0.9788 -0.2047
vn -0.5194 0.8412 -0.1501
vn -0.0000 0.9880 -0.1546
vn 0.5194 0.8412 -0.1501
vn 0.5281 0.8312 -0.1739
vn 0.5014 0.8071 -0.3118
vn 0.4693 0.6497 -0.5981
vn -0.7615 0.0093 -0.6481
vn -0.3374 -0.0000 -0.9414
vn -0.3387 0.0024 -0.9409
vn -0.7906 0.0294 -0.6116
vn -0.0000 -0.0000 -1.0000
vn -0.3757 0.0077 -0.9267
vn -0.8047 0.0561 -0.5910
vn -0.0000 0.0002 -1.0000
vn -0.3952 0.0127 -0.9185
vn -0.8257 0.0750 -0.5592
vn 0.3387 0.0024 -0.9409
vn 0.3374 -0.0000 -0.9414
vn -0.0000 0.0012 -1.0000
vn 0.7615 0.0093 -0.6481
vn 0.7594 -0.0000 -0.6506
vn 0.7906 0.0294 -0.6116
vn 0.3757 0.0077 -0.9267
vn 0.8047 0.0561 -0.5910
vn 0.3952 0.0127 -0.9185
vn 0.8257 0.0750 -0.5592
vn -0.4232 0.0258 -0.9057
vn -0.4645 0.0298 -0.8851
vn -0.0000 0.0059 -1.0000
vn 0.4232 0.0258 -0.9057
vn 0.8564 0.1197 -0.5023
vn 0.4645 0.0298 -0.8851
vn -0.1683 0.0032 -0.9857
vn -0.5405 0.0580 -0.8394
vn 0.1683 0.0032 -0.9857
vn 0.5405 0.0580 -0.8394
vn -0.2227 0.0156 -0.9748
vn -0.6341 0.0669 -0.7704
vn -0.0000 0.0007 -1.0000
vn 0.2227 0.0156 -0.9748
vn 0.6341 0.0669 -0.7704
vn -0.3173 0.0425 -0.9474
vn -0.7357 0.2211 -0.6402
vn -0.4297 0.3215 -0.8438
vn -0.0000 0.3063 -0.9519
vn -0.4693 0.6497 -0.5981
vn 0.4693 0.6496 -0.5981
vn 0.4297 0.3215 -0.8438
vn -0.0000 0.0135 -0.9999
vn 0.3173 0.0425 -0.9474
vn 0.7357 0.2211 -0.6402
vn -0.0000 0.0340 -0.9994
vn 0.4645 0.0299 -0.8851
vn 0.5406 0.0580 -0.8393
vn 0.8935 0.1700 -0.4156
vn 0.8679 0.1759 -0.4646
vn 0.6342 0.0670 -0.7703
vn 0.7358 0.2211 -0.6401
vn 0.8327 0.3993 -0.3837
vn 0.4298 0.3216 -0.8437
vn 0.4694 0.6497 -0.5980
vn 0.5015 0.8070 -0.3118
vn 0.9285 0.2618 -0.2633
vn 0.8699 0.4539 -0.1929
vn 0.9461 0.2767 -0.1685
vn 0.8867 0.4519 -0.0977
vn 0.5281 0.8312 -0.1738
vn 0.9465 0.2996 -0.1199
vn 0.8876 0.4537 -0.0801
vn 0.5195 0.8412 -0.1501
vn 0.9413 0.3209 -0.1052
vn 0.9551 0.2290 -0.1880
vn 0.9534 0.1857 -0.2378
vn 0.9523 0.1090 -0.2849
vn 0.8257 0.0750 -0.5591
vn 0.8048 0.0561 -0.5909
vn 0.9429 0.0872 -0.3215
vn 0.9396 0.0405 -0.3400
vn 0.7876 0.0258 -0.6157
vn 0.7621 0.0074 -0.6474
vn 0.9288 0.0110 -0.3705
vn 0.9288 -0.0000 -0.3705
vt -11.652002 0.083809
vt -11.652002 0.102533
vt -11.694096 0.083868
vt -11.694096 0.102542
vt -11.740011 0.091784
vt -11.740011 0.085046
vt -11.753238 0.085719
vt -11.763808 0.092255
vt -11.759058 0.082787
vt -11.770964 0.090667
vt -11.777428 0.102519
vt -11.740011 0.097436
vt -11.769878 0.102612
vt -11.740011 0.102574
vt -11.774467 0.124039
vt -11.782483 0.123995
vt -11.740011 0.124015
vt -11.777600 0.145467
vt -11.786082 0.145470
vt -11.740011 0.145456
vt -11.694096 0.145449
vt -11.652002 0.145447
vt -11.604612 0.145447
vt -11.604542 0.102528
vt -11.555585 0.102528
vt -11.555514 0.145447
vt -11.507711 0.145447
vt -11.507699 0.102528
vt -11.378503 0.102529
vt -11.378503 0.145447
vt -11.305528 0.102529
vt -11.305528 0.145447
vt 0.501846 0.090667
vt 0.501949 0.102519
vt 0.499964 0.090659
vt 0.499964 0.102446
vt 0.499964 0.123958
vt 0.502148 0.123995
vt 0.502346 0.145470
vt 0.499964 0.145470
vt 0.497581 0.145470
vt 0.497780 0.123995
vt 0.497978 0.102519
vt 0.498082 0.090667
vt 0.444666 -11.305528
vt 0.444666 -11.378503
vt 0.476765 -11.305528
vt 0.476765 -11.378503
vt 0.450065 -11.507699
vt 0.500035 -11.305528
vt 0.477708 -11.507680
vt 0.452931 -11.555585
vt 0.500035 -11.378503
vt 0.478671 -11.555638
vt 0.456709 -11.604542
vt 0.523305 -11.378503
vt 0.523304 -11.305528
vt 0.500035 -11.507680
vt 0.555404 -11.378503
vt 0.555404 -11.305528
vt 0.550006 -11.507699
vt 0.522363 -11.507680
vt 0.547140 -11.555585
vt 0.521400 -11.555638
vt 0.543362 -11.604542
vt 0.480269 -11.604488
vt 0.462657 -11.652002
vt 0.483105 -11.652002
vt 0.500036 -11.604477
vt 0.500035 -11.555650
vt 0.519802 -11.604488
vt 0.537415 -11.652002
vt 0.516967 -11.652002
vt 0.498591 -11.652002
vt 0.486731 -11.694096
vt 0.501481 -11.652002
vt 0.513341 -11.694096
vt 0.496197 -11.694096
vt 0.490393 -11.740011
vt 0.500036 -11.652002
vt 0.503874 -11.694096
vt 0.509679 -11.740011
vt 0.496422 -11.740011
vt 0.491358 -11.753238
vt 0.497745 -11.759058
vt 0.500036 -11.759138
vt 0.498154 -11.770964
vt 0.500036 -11.771344
vt 0.501918 -11.770964
vt 0.502327 -11.759058
vt 0.500036 -11.694096
vt 0.503650 -11.740011
vt 0.508715 -11.753238
vt 0.500036 -11.740011
vt 12.652002 0.083809
vt 12.694096 0.083868
vt 12.652002 0.102533
vt 12.694096 0.102542
vt 12.740011 0.091784
vt 12.740011 0.085046
vt 12.753238 0.085719
vt 12.763808 0.092255
vt 12.759058 0.082787
vt 12.770964 0.090667
vt 12.777428 0.102519
vt 12.740011 0.097436
vt 12.769878 0.102612
vt 12.740011 0.102574
vt 12.774467 0.124039
vt 12.782483 0.123995
vt 12.740011 0.124015
vt 12.777600 0.145467
vt 12.786082 0.145470
vt 12.740011 0.145456
vt 12.694096 0.145449
vt 12.652002 0.145447
vt 12.604612 0.145447
vt 12.604542 0.102528
vt 12.555585 0.102528
vt 12.555514 0.145447
vt 12.507711 0.145447
vt 12.507699 0.102528
vt 12.378503 0.102529
vt 12.378503 0.145447
vt 12.305528 0.102529
vt 12.305528 0.145447
s 1
g Dr_Hull_Rostrum_destroyer_A_001_2_hull_bottom
usemtl hull_bottom
f 8/1/1 7/2/2 6/3/3
f 9/4/4 6/3/3 7/2/2
f 9/4/4 10/5/5 6/3/3
f 11/6/6 6/3/3 10/5/5
f 12/7/7 11/6/6 10/5/5
f 12/7/7 10/5/5 13/8/8
f 12/7/7 13/8/8 14/9/9
f 15/10/10 14/9/9 13/8/8
f 15/10/10 13/8/8 16/11/11
f 17/12/12 13/8/8 10/5/5
f 9/4/4 17/12/12 10/5/5
f 18/13/13 16/11/11 13/8/8
f 13/8/8 17/12/12 18/13/13
f 9/4/4 19/14/14 17/12/12
f 19/14/14 18/13/13 17/12/12
f 18/13/13 20/15/15 16/11/11
f 21/16/16 16/11/11 20/15/15
f 19/14/14 22/17/17 18/13/13
f 19/14/14 9/4/4 22/17/17
f 20/15/15 18/13/13 22/17/17
f 20/15/15 3/18/18 21/16/16
f 23/19/19 21/16/16 3/18/18
f 3/18/18 20/15/15 2/20/20
f 22/17/17 2/20/20 20/15/15
f 22/17/17 24/21/21 2/20/20
f 9/4/4 24/21/21 22/17/17
f 9/4/4 7/2/2 24/21/21
f 25/22/22 24/21/21 7/2/2
f 25/22/22 7/2/2 26/23/23
f 27/24/24 26/23/23 7/2/2
f 27/24/24 28/25/25 26/23/23
f 29/26/26 26/23/23 28/25/25
f 29/26/26 28/25/25 30/27/27
f 31/28/28 30/27/27 28/25/25
f 31/28/28 32/29/29 30/27/27
f 33/30/30 30/27/27 32/29/29
f 32/29/29 34/31/31 33/30/30
f 35/32/32 33/30/30 34/31/31
f 38/33/33 37/34/34 36/35/35
f 39/36/36 36/35/35 37/34/34
f 39/36/36 37/34/34 40/37/37
f 41/38/16 40/37/37 37/34/34
f 41/38/16 42/39/38 40/37/37
f 1/40/39 40/37/37 42/39/38
f 1/40/39 43/41/40 40/37/37
f 44/42/41 40/37/37 43/41/40
f 44/42/41 45/43/42 40/37/37
f 39/36/36 40/37/37 45/43/42
f 39/36/36 45/43/42 36/35/35
f 46/44/43 36/35/35 45/43/42
f 49/45/31 48/46/44 47/47/45
f 50/48/46 47/47/45 48/46/44
f 48/46/44 51/49/47 50/48/46
f 47/47/45 50/48/46 52/50/48
f 53/51/49 50/48/46 51/49/47
f 51/49/47 54/52/50 53/51/49
f 55/53/51 52/50/48 50/48/46
f 50/48/46 53/51/49 55/53/51
f 56/54/52 53/51/49 54/52/50
f 54/52/50 57/55/53 56/54/52
f 55/53/51 58/56/54 52/50/48
f 59/57/55 52/50/48 58/56/54
f 60/58/56 55/53/51 53/51/49
f 53/51/49 56/54/52 60/58/56
f 58/56/54 61/59/57 59/57/55
f 62/60/58 59/57/55 61/59/57
f 61/59/57 58/56/54 63/61/59
f 58/56/54 55/53/51 64/62/60
f 64/62/60 63/61/59 58/56/54
f 60/58/56 64/62/60 55/53/51
f 63/61/59 64/62/60 65/63/61
f 66/64/62 65/63/61 64/62/60
f 64/62/60 60/58/56 66/64/62
f 65/63/61 66/64/62 67/65/63
f 68/66/64 56/54/52 57/55/53
f 57/55/53 69/67/2 68/66/64
f 70/68/65 68/66/64 69/67/2
f 68/66/64 71/69/66 56/54/52
f 68/66/64 70/68/65 71/69/66
f 72/70/48 56/54/52 71/69/66
f 72/70/48 60/58/56 56/54/52
f 72/70/48 66/64/62 60/58/56
f 72/70/48 71/69/66 66/64/62
f 73/71/67 67/65/63 66/64/62
f 73/71/67 66/64/62 71/69/66
f 67/65/63 73/71/67 74/72/68
f 75/73/69 74/72/68 73/71/67
f 73/71/67 71/69/66 75/73/69
f 76/74/70 71/69/66 70/68/65
f 70/68/65 77/75/71 76/74/70
f 78/76/72 75/73/69 71/69/66
f 75/73/69 78/76/72 79/77/73
f 80/78/74 76/74/70 77/75/71
f 77/75/71 81/79/75 80/78/74
f 71/69/66 76/74/70 82/80/76
f 78/76/72 71/69/66 82/80/76
f 76/74/70 80/78/74 82/80/76
f 83/81/77 79/77/73 78/76/72
f 78/76/72 82/80/76 83/81/77
f 79/77/73 83/81/77 84/82/78
f 85/83/79 80/78/74 81/79/75
f 81/79/75 86/84/80 85/83/79
f 87/85/81 85/83/79 86/84/80
f 87/85/81 88/86/82 85/83/79
f 87/85/81 89/87/83 88/86/82
f 90/88/35 88/86/82 89/87/83
f 90/88/35 91/89/84 88/86/82
f 92/90/85 88/86/82 91/89/84
f 93/91/86 82/80/76 80/78/74
f 93/91/86 83/81/77 82/80/76
f 80/78/74 85/83/79 93/91/86
f 94/92/87 84/82/78 83/81/77
f 83/81/77 93/91/86 94/92/87
f 92/90/85 94/92/87 88/86/82
f 84/82/78 94/92/87 95/93/88
f 92/90/85 95/93/88 94/92/87
f 96/94/89 85/83/79 88/86/82
f 96/94/89 93/91/86 85/83/79
f 96/94/89 88/86/82 94/92/87
f 96/94/89 94/92/87 93/91/86
f 99/95/90 98/96/91 97/97/68
f 100/98/92 97/97/68 98/96/91
f 100/98/92 98/96/91 101/99/93
f 102/100/94 101/99/93 98/96/91
f 102/100/94 103/101/95 101/99/93
f 103/101/95 104/102/96 101/99/93
f 103/101/95 105/103/97 104/102/96
f 106/104/98 104/102/96 105/103/97
f 106/104/98 107/105/99 104/102/96
f 108/106/100 101/99/93 104/102/96
f 108/106/100 100/98/92 101/99/93
f 109/107/101 104/102/96 107/105/99
f 104/102/96 109/107/101 108/106/100
f 110/108/102 100/98/92 108/106/100
f 110/108/102 108/106/100 109/107/101
f 109/107/101 107/105/99 111/109/103
f 112/110/104 111/109/103 107/105/99
f 110/108/102 109/107/101 113/111/105
f 100/98/92 110/108/102 113/111/105
f 111/109/103 113/111/105 109/107/101
f 111/109/103 112/110/104 5/112/106
f 114/113/107 5/112/106 112/110/104
f 5/112/106 4/114/108 111/109/103
f 113/111/105 111/109/103 4/114/108
f 115/115/109 113/111/105 4/114/108
f 115/115/109 100/98/92 113/111/105
f 100/98/92 115/115/109 97/97/68
f 116/116/110 97/97/68 115/115/109
f 116/116/110 117/117/111 97/97/68
f 118/118/112 97/97/68 117/117/111
f 118/118/112 117/117/111 119/119/113
f 120/120/114 119/119/113 117/117/111
f 120/120/114 121/121/115 119/119/113
f 122/122/116 119/119/113 121/121/115
f 122/122/116 121/121/115 123/123/117
f 124/124/118 123/123/117 121/121/115
f 123/123/117 124/124/118 125/125/58
f 126/126/119 125/125/58 124/124/118
