# Blender 5.1.0
# www.blender.org
mtllib Dr_Hull_Stern_destroyer_A_001_4.mtl
o Dr_Hull_Stern_destroyer_A_001_4
v -2.022372 -26.305086 0.547794
v -1.167616 -27.159845 0.547794
v -2.335234 -25.156549 0.547794
v -2.851381 -22.155840 0.547794
v -3.627148 -14.749010 0.547794
v -3.849902 -9.999996 0.547795
v -3.849902 -4.999997 0.547795
v -1.167616 -27.159845 0.547794
v 0.000001 -27.472704 0.547794
v 1.167618 -27.159845 0.547794
v 2.022373 -26.305086 0.547794
v 1.167618 -27.159845 0.547794
v 2.335235 -25.156549 0.547794
v 2.851382 -22.155840 0.547794
v 3.627149 -14.749010 0.547794
v 3.849904 -9.999996 0.547795
v 3.849904 -4.999997 0.547795
v -1.141054 -27.160196 1.176350
v -1.945971 -26.289118 1.816738
v -1.075808 -27.101892 1.807024
v -2.004147 -26.316629 1.176350
v -2.289044 -25.156549 1.989940
v -1.882686 -25.900507 2.693640
v -1.503548 -26.396471 2.693641
v -2.205404 -25.156549 2.693638
v -2.861565 -22.155840 2.693638
v -3.753887 -14.749002 2.693637
v -3.984425 -9.999996 2.693637
v -3.984424 -4.999998 2.693637
v -1.141054 -27.160196 1.176350
v 0.000001 -27.455339 1.176350
v -1.075808 -27.101892 1.807024
v 1.141056 -27.160196 1.176350
v 1.075809 -27.101892 1.807025
v 0.000001 -27.359045 1.802140
v 0.000000 -27.061251 2.693643
v -0.870074 -26.903212 2.693643
v -1.945971 -26.289118 1.816738
v -1.503548 -26.396471 2.693641
v 0.870075 -26.903212 2.693644
v 1.945972 -26.289118 1.816739
v 1.503549 -26.396471 2.693644
v 1.945972 -26.289118 1.816739
v 1.141056 -27.160196 1.176350
v 1.075809 -27.101892 1.807025
v 2.004148 -26.316629 1.176350
v 2.289045 -25.156549 1.989941
v 1.882687 -25.900507 2.693642
v 1.503549 -26.396471 2.693644
v 2.205404 -25.156549 2.693639
v 2.861566 -22.155840 2.693638
v 3.753888 -14.749002 2.693637
v 3.984426 -9.999996 2.693637
v 3.984426 -4.999997 2.693638
vn -0.4615 -0.8600 0.2179
vn -0.8247 -0.5367 0.1787
vn -0.4882 -0.8697 0.0724
vn -0.8581 -0.5108 0.0530
vn -0.4985 -0.8661 -0.0363
vn -0.8638 -0.5031 -0.0262
vn -0.9750 -0.2219 -0.0073
vn -0.9615 -0.2599 0.0888
vn -0.8670 -0.4424 0.2294
vn -0.6698 -0.6984 0.2524
vn -0.9449 -0.3074 0.1123
vn -0.9895 -0.1446 0.0036
vn -0.9906 -0.1369 -0.0047
vn -0.9954 -0.0777 -0.0557
vn -0.9948 -0.0832 -0.0592
vn -0.9978 -0.0236 -0.0623
vn -0.9977 -0.0242 -0.0625
vn -0.9980 -0.0000 -0.0626
vn -0.4984 -0.8662 -0.0363
vn -0.0000 -0.9993 -0.0376
vn -0.4881 -0.8698 0.0724
vn -0.0000 -0.9965 0.0837
vn -0.4614 -0.8600 0.2179
vn 0.4881 -0.8698 0.0724
vn 0.4984 -0.8662 -0.0363
vn 0.4614 -0.8600 0.2179
vn -0.0000 -0.9727 0.2323
vn -0.0000 -0.9568 0.2906
vn -0.4012 -0.8754 0.2697
vn -0.8246 -0.5367 0.1787
vn -0.6697 -0.6984 0.2524
vn 0.4012 -0.8754 0.2697
vn 0.8246 -0.5367 0.1787
vn 0.6697 -0.6984 0.2524
vn 0.4615 -0.8600 0.2179
vn 0.4882 -0.8697 0.0724
vn 0.8247 -0.5367 0.1787
vn 0.8581 -0.5108 0.0530
vn 0.4985 -0.8661 -0.0363
vn 0.8638 -0.5031 -0.0262
vn 0.9750 -0.2219 -0.0073
vn 0.9615 -0.2599 0.0888
vn 0.8670 -0.4424 0.2294
vn 0.6698 -0.6984 0.2524
vn 0.9449 -0.3074 0.1123
vn 0.9895 -0.1446 0.0036
vn 0.9906 -0.1369 -0.0047
vn 0.9954 -0.0777 -0.0557
vn 0.9948 -0.0832 -0.0592
vn 0.9978 -0.0235 -0.0623
vn 0.9977 -0.0242 -0.0625
vn 0.9980 -0.0000 -0.0626
vt -10.357857 0.179473
vt -10.372640 0.179656
vt -10.356796 0.167609
vt -10.372139 0.167609
vt -10.356802 0.155784
vt -10.372349 0.155784
vt -10.393240 0.155784
vt -10.393240 0.182914
vt -10.379708 0.196153
vt -10.370687 0.196153
vt -10.393240 0.196153
vt -10.447819 0.196153
vt -10.447819 0.155784
vt -10.582541 0.155784
vt -10.582541 0.196153
vt -10.668920 0.155784
vt -10.668920 0.196153
vt -10.759864 0.196153
vt -10.759864 0.155784
vt 0.477781 0.155784
vt 0.500032 0.155784
vt 0.478287 0.167609
vt 0.500032 0.167609
vt 0.479530 0.179473
vt 0.521777 0.167609
vt 0.522283 0.155784
vt 0.520533 0.179473
vt 0.500032 0.179381
vt 0.500032 0.196153
vt 0.483451 0.196153
vt 0.462948 0.179656
vt 0.471379 0.196153
vt 0.516613 0.196153
vt 0.537116 0.179656
vt 0.528685 0.196153
vt 11.357857 0.179473
vt 11.356796 0.167609
vt 11.372640 0.179656
vt 11.372139 0.167609
vt 11.356802 0.155784
vt 11.372349 0.155784
vt 11.393240 0.155784
vt 11.393240 0.182914
vt 11.379708 0.196153
vt 11.370687 0.196153
vt 11.393240 0.196153
vt 11.447819 0.196153
vt 11.447819 0.155784
vt 11.582541 0.155784
vt 11.582541 0.196153
vt 11.668920 0.155784
vt 11.668920 0.196153
vt 11.759864 0.155784
vt 11.759864 0.196153
s 1
g Dr_Hull_Stern_destroyer_A_001_4_steel_board_1
usemtl steel_board_1
f 20/1/1 19/2/2 18/3/3
f 21/4/4 18/3/3 19/2/2
f 18/3/3 21/4/4 2/5/5
f 1/6/6 2/5/5 21/4/4
f 21/4/4 3/7/7 1/6/6
f 19/2/2 22/8/8 21/4/4
f 3/7/7 21/4/4 22/8/8
f 19/2/2 23/9/9 22/8/8
f 19/2/2 24/10/10 23/9/9
f 25/11/11 22/8/8 23/9/9
f 25/11/11 26/12/12 22/8/8
f 22/8/8 26/12/12 3/7/7
f 4/13/13 3/7/7 26/12/12
f 4/13/13 26/12/12 5/14/14
f 27/15/15 5/14/14 26/12/12
f 5/14/14 27/15/15 6/16/16
f 28/17/17 6/16/16 27/15/15
f 28/17/17 29/18/18 6/16/16
f 7/19/18 6/16/16 29/18/18
f 8/20/19 9/21/20 30/22/21
f 31/23/22 30/22/21 9/21/20
f 30/22/21 31/23/22 32/24/23
f 31/23/22 9/21/20 33/25/24
f 10/26/25 33/25/24 9/21/20
f 33/25/24 34/27/26 31/23/22
f 35/28/27 32/24/23 31/23/22
f 35/28/27 31/23/22 34/27/26
f 35/28/27 36/29/28 32/24/23
f 35/28/27 34/27/26 36/29/28
f 37/30/29 32/24/23 36/29/28
f 32/24/23 37/30/29 38/31/30
f 39/32/31 38/31/30 37/30/29
f 40/33/32 36/29/28 34/27/26
f 34/27/26 41/34/33 40/33/32
f 42/35/34 40/33/32 41/34/33
f 45/36/35 44/37/36 43/38/37
f 46/39/38 43/38/37 44/37/36
f 44/37/36 12/40/39 46/39/38
f 11/41/40 46/39/38 12/40/39
f 13/42/41 46/39/38 11/41/40
f 43/38/37 46/39/38 47/43/42
f 13/42/41 47/43/42 46/39/38
f 43/38/37 47/43/42 48/44/43
f 49/45/44 43/38/37 48/44/43
f 50/46/45 48/44/43 47/43/42
f 51/47/46 50/46/45 47/43/42
f 47/43/42 13/42/41 51/47/46
f 14/48/47 51/47/46 13/42/41
f 14/48/47 15/49/48 51/47/46
f 52/50/49 51/47/46 15/49/48
f 15/49/48 16/51/50 52/50/49
f 53/52/51 52/50/49 16/51/50
f 16/51/50 17/53/52 53/52/51
f 54/54/52 53/52/51 17/53/52
