# Blender 5.1.0
# www.blender.org
mtllib Dr_Hull_Stern_destroyer_A_001_6.mtl
o Dr_Hull_Stern_destroyer_A_001_6
v 0.000001 -26.954008 5.345423
v 0.079295 -26.680723 2.086155
v 0.049885 -26.982698 5.342913
v 0.000001 -26.635111 2.090144
v -0.049884 -26.982698 5.342913
v -0.079293 -26.680723 2.086155
v -0.079293 -26.680723 2.086155
v -0.049884 -27.040079 5.337893
v -0.079293 -26.771929 2.078174
v -0.049884 -26.982698 5.342913
v 0.000001 -27.068773 5.335382
v -0.079293 -26.771929 2.078174
v -0.049884 -27.040079 5.337893
v 0.000001 -26.817533 2.074185
v 0.049885 -27.040079 5.337893
v 0.079295 -26.771929 2.078174
v 0.079295 -26.771929 2.078174
v 0.049885 -26.982698 5.342913
v 0.079295 -26.680723 2.086155
v 0.049885 -27.040079 5.337893
v 0.000001 -26.817533 2.074185
v -0.079293 -26.680723 2.086155
v -0.079293 -26.771929 2.078174
v 0.079295 -26.680723 2.086155
v 0.079295 -26.771929 2.078174
v 0.000001 -26.635111 2.090144
v 0.049885 -27.040079 5.337893
v 0.000001 -26.954008 5.345423
v 0.049885 -26.982698 5.342913
v 0.000001 -27.068773 5.335382
v -0.049884 -26.982698 5.342913
v -0.049884 -27.040079 5.337893
v 0.054463 -25.849264 2.484127
v 0.024198 -26.887358 4.349834
v 0.029561 -25.812246 2.506265
v 0.043731 -26.916845 4.333242
v 0.029564 -25.886278 2.461986
v 0.024196 -26.946337 4.316650
v 0.029561 -25.812246 2.506265
v -0.014871 -26.887358 4.349832
v -0.020237 -25.812246 2.506265
v 0.024198 -26.887358 4.349834
v -0.034404 -26.916845 4.333241
v -0.020237 -25.812246 2.506265
v -0.014871 -26.887358 4.349832
v -0.045139 -25.849264 2.484127
v -0.014869 -26.946337 4.316650
v -0.020240 -25.886278 2.461986
v -0.020240 -25.886278 2.461986
v 0.024196 -26.946337 4.316650
v 0.029564 -25.886278 2.461986
v -0.014869 -26.946337 4.316650
v -0.913310 -24.149218 3.499148
v -1.057319 -24.203390 3.255793
v -1.079680 -24.103956 3.412812
v -0.913310 -24.273539 3.300297
v -1.043061 -24.224028 3.085836
v -0.769302 -24.203390 3.255793
v -0.746941 -24.103956 3.412812
v -0.783561 -24.224028 3.085836
v -0.913310 -24.298903 3.085836
v -1.039401 -24.221907 2.693638
v -0.913310 -24.294683 2.693638
v -0.787220 -24.221907 2.693638
v -1.057352 -24.063120 3.166786
v -0.913310 -23.968149 3.154102
v -1.079680 -24.013411 3.240435
v -0.913310 -23.992971 3.122284
v -1.043317 -24.074171 3.085836
v -0.769269 -24.063120 3.166786
v -0.746941 -24.013411 3.240436
v -0.913310 -23.999197 3.085838
v -0.783303 -24.074171 3.085836
v -0.786970 -24.076292 2.693638
v -0.913310 -24.003428 2.693638
v -1.039651 -24.076292 2.693638
v -0.913310 -23.890940 3.659554
v -1.079680 -24.103956 3.412812
v -1.108073 -23.890940 3.537712
v -0.913310 -24.149218 3.499148
v -0.746941 -24.103956 3.412812
v -0.718548 -23.890940 3.537713
v -1.108073 -23.890940 3.537712
v -1.079680 -24.013411 3.240435
v -1.107537 -23.890940 3.295606
v -1.079680 -24.103956 3.412812
v -1.057352 -24.063120 3.166786
v -1.057319 -24.203390 3.255793
v -1.043317 -24.074171 3.085836
v -1.043061 -24.224028 3.085836
v -1.039401 -24.221907 2.693638
v -1.039651 -24.076292 2.693638
v -1.079680 -24.013411 3.240435
v -0.913310 -23.890940 3.174957
v -1.107537 -23.890940 3.295606
v -0.913310 -23.968149 3.154102
v -0.746941 -24.013411 3.240436
v -0.719084 -23.890940 3.295607
v -0.719084 -23.890940 3.295607
v -0.746941 -24.103956 3.412812
v -0.718548 -23.890940 3.537713
v -0.746941 -24.013411 3.240436
v -0.769302 -24.203390 3.255793
v -0.769269 -24.063120 3.166786
v -0.783561 -24.224028 3.085836
v -0.783303 -24.074171 3.085836
v -0.787220 -24.221907 2.693638
v -0.786970 -24.076292 2.693638
v 1.057320 -24.203390 3.255793
v 0.913312 -24.149218 3.499148
v 1.079681 -24.103956 3.412812
v 0.913312 -24.273539 3.300297
v 1.043062 -24.224028 3.085836
v 0.769304 -24.203390 3.255793
v 0.746943 -24.103956 3.412812
v 0.783563 -24.224028 3.085836
v 0.913312 -24.298903 3.085836
v 1.039402 -24.221907 2.693638
v 0.913312 -24.294683 2.693638
v 0.787222 -24.221907 2.693638
v 0.913312 -23.968149 3.154102
v 1.057353 -24.063120 3.166786
v 1.079681 -24.013411 3.240435
v 0.913312 -23.992971 3.122284
v 1.043319 -24.074171 3.085836
v 0.769271 -24.063120 3.166786
v 0.746943 -24.013411 3.240436
v 0.913312 -23.999197 3.085838
v 0.783305 -24.074171 3.085836
v 0.786972 -24.076292 2.693638
v 0.913312 -24.003428 2.693638
v 1.039652 -24.076292 2.693638
v 1.079681 -24.103956 3.412812
v 0.913312 -23.890940 3.659554
v 1.108075 -23.890940 3.537712
v 0.913312 -24.149218 3.499148
v 0.746943 -24.103956 3.412812
v 0.718550 -23.890940 3.537713
v 1.079681 -24.013411 3.240435
v 1.108075 -23.890940 3.537712
v 1.107539 -23.890940 3.295606
v 1.079681 -24.103956 3.412812
v 1.057353 -24.063120 3.166786
v 1.057320 -24.203390 3.255793
v 1.043319 -24.074171 3.085836
v 1.043062 -24.224028 3.085836
v 1.039402 -24.221907 2.693638
v 1.039652 -24.076292 2.693638
v 0.913312 -23.890940 3.174957
v 1.079681 -24.013411 3.240435
v 1.107539 -23.890940 3.295606
v 0.913312 -23.968149 3.154102
v 0.746943 -24.013411 3.240436
v 0.719086 -23.890940 3.295607
v 0.746943 -24.103956 3.412812
v 0.719086 -23.890940 3.295607
v 0.718550 -23.890940 3.537713
v 0.746943 -24.013411 3.240436
v 0.769304 -24.203390 3.255793
v 0.769271 -24.063120 3.166786
v 0.783563 -24.224028 3.085836
v 0.783305 -24.074171 3.085836
v 0.787222 -24.221907 2.693638
v 0.786972 -24.076292 2.693638
v -0.405761 -24.436094 2.808336
v -0.405761 -23.648012 2.693637
v -0.405761 -23.648012 2.808335
v -0.405761 -24.436094 2.693637
v 0.405762 -24.436110 2.808336
v -0.405761 -23.648012 2.808335
v 0.405762 -23.648012 2.808336
v -0.405761 -24.436094 2.808336
v 0.405762 -23.648012 2.693637
v -0.405761 -23.648012 2.808335
v -0.405761 -23.648012 2.693637
v 0.405762 -23.648012 2.808336
v 0.405762 -24.436110 2.808336
v 0.405762 -23.648012 2.693637
v 0.405762 -24.436110 2.693637
v 0.405762 -23.648012 2.808336
v 0.405762 -24.436110 2.808336
v -0.405761 -24.436094 2.693637
v -0.405761 -24.436094 2.808336
v 0.405762 -24.436110 2.693637
v -3.880010 -4.999997 2.789020
v -4.079807 -9.999996 2.798051
v -4.079806 -4.999997 2.798051
v -3.880011 -9.999996 2.789020
v -3.649777 -14.740217 2.789020
v -3.848992 -14.757030 2.798051
v -2.758497 -22.138399 2.789020
v -2.955718 -22.171766 2.798051
v -2.105571 -25.124319 2.789020
v -2.296601 -25.185991 2.798051
v -1.914565 -25.564646 2.789022
v -1.975762 -25.925619 2.798055
v -1.875029 -25.898466 2.793389
v -4.079806 -4.999997 2.798051
v -4.088838 -9.999996 2.598255
v -4.088838 -4.999997 2.598255
v -4.079807 -9.999996 2.798051
v -3.848992 -14.757030 2.798051
v -3.857997 -14.757792 2.598255
v -2.955718 -22.171766 2.798051
v -2.964633 -22.173277 2.598255
v -2.296601 -25.185991 2.798051
v -2.305237 -25.188780 2.598255
v -1.983155 -25.931273 2.598259
v -1.975762 -25.925619 2.798055
v -4.088838 -4.999997 2.598255
v -3.889043 -9.999996 2.589224
v -3.889041 -4.999997 2.589224
v -4.088838 -9.999996 2.598255
v -3.857997 -14.757792 2.598255
v -3.658782 -14.740976 2.589224
v -2.964633 -22.173277 2.598255
v -2.767412 -22.139910 2.589224
v -2.305237 -25.188780 2.598255
v -2.114206 -25.127104 2.589224
v -1.983155 -25.931273 2.598259
v -1.922579 -25.568865 2.589226
v -1.882651 -25.904142 2.593603
v -3.889041 -4.999997 2.589224
v -3.880011 -9.999996 2.789020
v -3.880010 -4.999997 2.789020
v -3.889043 -9.999996 2.589224
v -3.658782 -14.740976 2.589224
v -3.649777 -14.740217 2.789020
v -2.767412 -22.139910 2.589224
v -2.758497 -22.138399 2.789020
v -2.114206 -25.127104 2.589224
v -2.105571 -25.124319 2.789020
v -1.914565 -25.564646 2.789022
v -1.922579 -25.568865 2.589226
v 4.079809 -4.999998 2.798051
v 3.880013 -9.999996 2.789020
v 3.880012 -4.999997 2.789020
v 4.079809 -9.999996 2.798051
v 3.848993 -14.757030 2.798051
v 3.649778 -14.740217 2.789020
v 2.955719 -22.171766 2.798051
v 2.758498 -22.138399 2.789020
v 2.296602 -25.185991 2.798053
v 2.105572 -25.124319 2.789021
v 1.914566 -25.564646 2.789024
v 1.975763 -25.925619 2.798058
v 1.875030 -25.898466 2.793391
v 4.088840 -4.999998 2.598255
v 4.079809 -9.999996 2.798051
v 4.079809 -4.999998 2.798051
v 4.088840 -9.999996 2.598255
v 3.857998 -14.757792 2.598255
v 3.848993 -14.757030 2.798051
v 2.964634 -22.173277 2.598255
v 2.955719 -22.171766 2.798051
v 2.305237 -25.188780 2.598257
v 2.296602 -25.185991 2.798053
v 1.983156 -25.931273 2.598262
v 1.975763 -25.925619 2.798058
v 3.889044 -4.999998 2.589224
v 4.088840 -9.999996 2.598255
v 4.088840 -4.999998 2.598255
v 3.889044 -9.999996 2.589224
v 3.658783 -14.740976 2.589224
v 3.857998 -14.757792 2.598255
v 2.767413 -22.139910 2.589224
v 2.964634 -22.173277 2.598255
v 2.114207 -25.127104 2.589225
v 2.305237 -25.188780 2.598257
v 1.983156 -25.931273 2.598262
v 1.922580 -25.568865 2.589228
v 1.882652 -25.904142 2.593606
v 3.880012 -4.999997 2.789020
v 3.889044 -9.999996 2.589224
v 3.889044 -4.999998 2.589224
v 3.880013 -9.999996 2.789020
v 3.649778 -14.740217 2.789020
v 3.658783 -14.740976 2.589224
v 2.758498 -22.138399 2.789020
v 2.767413 -22.139910 2.589224
v 2.105572 -25.124319 2.789021
v 2.114207 -25.127104 2.589225
v 1.914566 -25.564646 2.789024
v 1.922580 -25.568865 2.589228
v 0.000000 -27.158194 2.798057
v -0.914698 -27.001230 2.598262
v -0.910838 -26.992754 2.798058
v 0.000000 -27.167372 2.598261
v 0.914699 -27.001230 2.598265
v 0.910839 -26.992754 2.798061
v -0.825451 -26.805197 2.789026
v -0.910838 -26.992754 2.798058
v -0.926259 -26.853498 2.793579
v 0.000000 -26.955130 2.789025
v 0.000000 -27.158194 2.798057
v 0.910839 -26.992754 2.798061
v 0.825452 -26.805197 2.789029
v 0.926260 -26.853498 2.793581
v -0.914698 -27.001230 2.598262
v -0.829311 -26.813673 2.589230
v -0.931088 -26.860472 2.593757
v 0.000000 -27.167372 2.598261
v 0.000000 -26.964308 2.589229
v 0.829312 -26.813673 2.589233
v 0.914699 -27.001230 2.598265
v 0.931089 -26.860472 2.593759
v -0.931088 -26.860472 2.593757
v -0.825451 -26.805197 2.789026
v -0.926259 -26.853498 2.793579
v -0.829311 -26.813673 2.589230
v 0.000000 -26.964308 2.589229
v 0.000000 -26.955130 2.789025
v 0.825452 -26.805197 2.789029
v 0.829312 -26.813673 2.589233
v 0.931089 -26.860472 2.593759
v 0.926260 -26.853498 2.793581
v -1.882651 -25.904142 2.593603
v -1.914565 -25.564646 2.789022
v -1.922579 -25.568865 2.589226
v -1.875029 -25.898466 2.793389
v -0.926259 -26.853498 2.793579
v -0.914698 -27.001230 2.598262
v -0.931088 -26.860472 2.593757
v -0.910838 -26.992754 2.798058
v -1.983155 -25.931273 2.598259
v -1.875029 -25.898466 2.793389
v -1.882651 -25.904142 2.593603
v -1.975762 -25.925619 2.798055
v 1.882652 -25.904142 2.593606
v 1.914566 -25.564646 2.789024
v 1.875030 -25.898466 2.793391
v 1.922580 -25.568865 2.589228
v 0.926260 -26.853498 2.793581
v 0.914699 -27.001230 2.598265
v 0.910839 -26.992754 2.798061
v 0.931089 -26.860472 2.593759
v 1.983156 -25.931273 2.598262
v 1.875030 -25.898466 2.793391
v 1.975763 -25.925619 2.798058
v 1.882652 -25.904142 2.593606
v -0.930056 -26.207163 2.693639
v -0.930056 -25.975275 3.197582
v -0.930056 -26.100737 3.145614
v -0.930056 -25.849821 3.145614
v -0.930056 -25.743395 2.693639
v -0.136628 -25.743402 2.693639
v -0.136629 -25.975275 3.197582
v -0.136628 -25.849821 3.145614
v -0.136628 -26.207163 2.693639
v -0.136629 -26.100737 3.145614
v -0.930056 -26.100737 3.145614
v -0.851514 -25.975275 3.197582
v -0.851514 -26.100737 3.145614
v -0.930056 -25.975275 3.197582
v -0.851514 -25.849821 3.145614
v -0.930056 -25.849821 3.145614
v -0.930056 -26.207163 2.693639
v -0.851514 -26.100737 3.145614
v -0.851514 -26.207163 2.693639
v -0.930056 -26.100737 3.145614
v -0.930056 -25.849821 3.145614
v -0.851514 -25.743395 2.693639
v -0.851514 -25.849821 3.145614
v -0.930056 -25.743395 2.693639
v -0.136628 -25.743402 2.693639
v -0.215171 -25.849821 3.145614
v -0.215171 -25.743402 2.693639
v -0.136628 -25.849821 3.145614
v -0.136629 -26.100737 3.145614
v -0.215171 -26.207163 2.693639
v -0.215171 -26.100737 3.145614
v -0.136628 -26.207163 2.693639
v -0.215171 -26.100737 3.145614
v -0.136629 -25.975275 3.197582
v -0.136629 -26.100737 3.145614
v -0.215171 -25.975275 3.197582
v -0.136628 -25.849821 3.145614
v -0.215171 -25.849821 3.145614
v -0.215171 -25.849821 3.145614
v -0.215171 -26.207163 2.693639
v -0.215171 -25.743402 2.693639
v -0.215171 -26.100737 3.145614
v -0.851514 -26.100737 3.145614
v -0.851514 -25.743395 2.693639
v -0.851514 -26.207163 2.693639
v -0.851514 -25.849821 3.145614
v 0.930058 -26.207163 2.693639
v 0.930058 -25.849821 3.145614
v 0.930058 -25.743395 2.693639
v 0.930058 -25.975275 3.197582
v 0.930058 -26.100737 3.145614
v 0.136630 -26.207163 2.693639
v 0.136630 -25.975275 3.197582
v 0.136630 -26.100737 3.145614
v 0.136630 -25.743402 2.693639
v 0.136630 -25.849821 3.145614
v 0.851516 -25.975275 3.197582
v 0.930058 -26.100737 3.145614
v 0.851516 -26.100737 3.145614
v 0.930058 -25.975275 3.197582
v 0.851516 -25.849821 3.145614
v 0.930058 -25.849821 3.145614
v 0.930058 -26.207163 2.693639
v 0.851516 -26.100737 3.145614
v 0.930058 -26.100737 3.145614
v 0.851515 -26.207163 2.693639
v 0.930058 -25.849821 3.145614
v 0.851515 -25.743395 2.693639
v 0.930058 -25.743395 2.693639
v 0.851516 -25.849821 3.145614
v 0.136630 -25.743402 2.693639
v 0.215173 -25.849821 3.145614
v 0.136630 -25.849821 3.145614
v 0.215173 -25.743402 2.693639
v 0.136630 -26.100737 3.145614
v 0.215173 -26.207163 2.693639
v 0.136630 -26.207163 2.693639
v 0.215173 -26.100737 3.145614
v 0.136630 -25.975275 3.197582
v 0.215173 -26.100737 3.145614
v 0.136630 -26.100737 3.145614
v 0.215173 -25.975275 3.197582
v 0.136630 -25.849821 3.145614
v 0.215173 -25.849821 3.145614
v 0.215173 -25.849821 3.145614
v 0.215173 -26.207163 2.693639
v 0.215173 -26.100737 3.145614
v 0.215173 -25.743402 2.693639
v 0.851516 -26.100737 3.145614
v 0.851515 -25.743395 2.693639
v 0.851516 -25.849821 3.145614
v 0.851515 -26.207163 2.693639
v -1.058788 -23.887583 3.323174
v -0.913310 -23.890940 3.174957
v -0.913310 -23.887583 3.232164
v -0.767834 -23.887583 3.323174
v -1.107537 -23.890940 3.295606
v -0.719084 -23.890940 3.295607
v -1.108073 -23.890940 3.537712
v -1.060314 -23.887583 3.509707
v -0.766307 -23.887583 3.509707
v -0.718548 -23.890940 3.537713
v -0.913310 -23.890940 3.659554
v -0.913310 -23.887583 3.603711
v 0.913312 -23.890940 3.174957
v 1.058790 -23.887583 3.323174
v 0.913312 -23.887583 3.232164
v 0.767835 -23.887583 3.323174
v 1.107539 -23.890940 3.295606
v 0.719086 -23.890940 3.295607
v 1.108075 -23.890940 3.537712
v 1.060316 -23.887583 3.509707
v 0.766309 -23.887583 3.509707
v 0.718550 -23.890940 3.537713
v 0.913312 -23.890940 3.659554
v 0.913312 -23.887583 3.603711
vn 0.8659 0.4972 0.0539
vn 0.8660 0.4971 0.0539
vn -0.0000 0.9952 0.0975
vn -0.8660 0.4972 0.0539
vn -0.8660 0.4971 0.0539
vn -0.8660 -0.4990 -0.0332
vn -0.8660 -0.4990 -0.0333
vn -0.8659 -0.4991 -0.0333
vn -0.0000 -0.9970 -0.0768
vn 0.8660 -0.4990 -0.0333
vn 0.8659 -0.4991 -0.0332
vn 0.8660 0.4972 0.0539
vn 0.8660 -0.4990 -0.0332
vn -0.0000 0.0872 -0.9962
vn -0.0000 0.0871 -0.9962
vn -0.0000 -0.0871 0.9962
vn -0.0000 -0.0872 0.9962
vn 0.5021 0.7464 0.4368
vn 0.5015 0.7467 0.4370
vn 1.0000 -0.0068 0.0019
vn 1.0000 -0.0055 0.0026
vn 0.4979 -0.7535 -0.4293
vn 0.4985 -0.7533 -0.4291
vn -0.5021 0.7464 0.4367
vn -0.5014 0.7468 0.4369
vn 0.5016 0.7467 0.4369
vn -0.5015 0.7467 0.4369
vn -0.5021 0.7464 0.4368
vn -1.0000 -0.0055 0.0026
vn -1.0000 -0.0068 0.0019
vn -0.4985 -0.7532 -0.4291
vn -0.4978 -0.7536 -0.4293
vn 0.4978 -0.7536 -0.4293
vn 0.4985 -0.7532 -0.4291
vn -0.8150 -0.4688 0.3407
vn -0.8183 -0.5633 0.1140
vn -0.0000 -0.7006 0.7136
vn -0.0000 -0.9416 0.3367
vn -0.8508 -0.5255 0.0002
vn 0.8073 -0.5785 0.1165
vn 0.8048 -0.4785 0.3513
vn 0.8467 -0.5321 -0.0064
vn -0.0000 -0.9986 0.0524
vn -0.8655 -0.5008 -0.0108
vn -0.0000 -0.9999 -0.0108
vn 0.8655 -0.5008 -0.0108
vn -0.9003 0.0717 -0.4294
vn -0.0000 0.5530 -0.8332
vn -0.8940 0.3167 -0.3171
vn -0.0062 0.9178 -0.3969
vn -0.8698 0.4835 -0.0984
vn 0.8817 0.3425 -0.3245
vn 0.8898 0.1059 -0.4438
vn -0.0055 0.9953 -0.0972
vn 0.8632 0.4912 -0.1163
vn 0.8663 0.4994 -0.0108
vn -0.0000 0.9999 -0.0108
vn -0.8663 0.4994 -0.0108
vn -0.7521 -0.4153 0.5117
vn -0.8150 -0.4687 0.3407
vn -0.0000 -0.5443 0.8389
vn -0.0000 -0.7005 0.7137
vn 0.7495 -0.4063 0.5226
vn -0.9327 -0.0514 -0.3569
vn -0.8940 0.3166 -0.3171
vn -0.8508 -0.5256 0.0002
vn -0.0000 0.2734 -0.9619
vn 0.9246 -0.0025 -0.3810
vn 0.8048 -0.4784 0.3513
vn 0.9246 -0.0025 -0.3809
vn 0.8899 0.1059 -0.4438
vn 0.8073 -0.5785 0.1166
vn 0.8150 -0.4688 0.3407
vn 0.8183 -0.5633 0.1140
vn 0.8508 -0.5255 0.0002
vn -0.8073 -0.5785 0.1165
vn -0.8048 -0.4785 0.3513
vn -0.8467 -0.5321 -0.0064
vn 0.9003 0.0717 -0.4293
vn 0.8940 0.3167 -0.3171
vn 0.0062 0.9178 -0.3969
vn 0.8698 0.4835 -0.0984
vn -0.8817 0.3425 -0.3245
vn -0.8898 0.1059 -0.4438
vn 0.0055 0.9953 -0.0972
vn -0.8632 0.4912 -0.1163
vn 0.7521 -0.4154 0.5117
vn -0.8048 -0.4784 0.3513
vn -0.7495 -0.4063 0.5226
vn 0.9327 -0.0514 -0.3569
vn 0.9003 0.0717 -0.4294
vn 0.8940 0.3166 -0.3171
vn 0.8508 -0.5256 0.0001
vn 0.9327 -0.0514 -0.3568
vn -0.8898 0.1060 -0.4438
vn -0.9246 -0.0024 -0.3809
vn -0.9246 -0.0025 -0.3809
vn -0.8048 -0.4785 0.3512
vn -0.8899 0.1059 -0.4438
vn -0.8817 0.3424 -0.3245
vn -0.8467 -0.5321 -0.0063
vn -1.0000 -0.0000 -0.0000
vn -0.0000 -0.0000 1.0000
vn -0.0000 1.0000 -0.0000
vn 1.0000 -0.0000 -0.0000
vn -0.0000 -1.0000 -0.0000
vn 0.0452 -0.0000 0.9990
vn 0.0452 0.0011 0.9990
vn 0.0450 0.0038 0.9990
vn 0.0445 0.0075 0.9990
vn 0.0428 0.0138 0.9990
vn 0.0414 0.0180 0.9990
vn -0.9990 -0.0000 0.0452
vn -0.9987 -0.0242 0.0451
vn -0.9954 -0.0840 0.0452
vn -0.9850 -0.1666 0.0452
vn -0.9507 -0.3069 0.0454
vn -0.9165 -0.3975 0.0452
vn -0.0452 -0.0000 -0.9990
vn -0.0452 -0.0011 -0.9990
vn -0.0450 -0.0038 -0.9990
vn -0.0445 -0.0075 -0.9990
vn -0.0428 -0.0138 -0.9990
vn -0.0414 -0.0180 -0.9990
vn 0.9990 -0.0000 -0.0452
vn 0.9987 0.0243 -0.0451
vn 0.9987 0.0242 -0.0451
vn 0.9954 0.0840 -0.0452
vn 0.9850 0.1666 -0.0452
vn 0.9507 0.3069 -0.0454
vn 0.9165 0.3975 -0.0452
vn -0.0452 -0.0000 0.9990
vn -0.0452 0.0011 0.9990
vn -0.0450 0.0038 0.9990
vn -0.0445 0.0075 0.9990
vn -0.0428 0.0138 0.9990
vn -0.0414 0.0180 0.9990
vn 0.9990 -0.0000 0.0452
vn 0.9987 -0.0242 0.0451
vn 0.9954 -0.0840 0.0452
vn 0.9850 -0.1666 0.0452
vn 0.9507 -0.3069 0.0454
vn 0.9165 -0.3975 0.0452
vn 0.0452 -0.0000 -0.9990
vn 0.0452 -0.0011 -0.9990
vn 0.0450 -0.0038 -0.9990
vn 0.0445 -0.0075 -0.9990
vn 0.0428 -0.0138 -0.9990
vn 0.0414 -0.0180 -0.9990
vn -0.9990 -0.0000 -0.0452
vn -0.9987 0.0242 -0.0451
vn -0.9987 0.0243 -0.0451
vn -0.9954 0.0840 -0.0452
vn -0.9850 0.1666 -0.0452
vn -0.9507 0.3069 -0.0454
vn -0.9165 0.3975 -0.0452
vn -0.1785 -0.9829 0.0451
vn -0.0000 -0.9989 0.0459
vn 0.1785 -0.9829 0.0451
vn 0.0282 0.0353 0.9990
vn 0.0139 0.0418 0.9990
vn 0.0137 0.0419 0.9990
vn -0.0000 0.0444 0.9990
vn -0.0139 0.0418 0.9990
vn -0.0137 0.0419 0.9990
vn -0.0282 0.0353 0.9990
vn -0.0282 -0.0353 -0.9990
vn -0.0137 -0.0419 -0.9990
vn -0.0139 -0.0418 -0.9990
vn -0.0000 -0.0444 -0.9990
vn 0.0137 -0.0419 -0.9990
vn 0.0139 -0.0418 -0.9990
vn 0.0282 -0.0353 -0.9990
vn -0.4328 0.9013 -0.0210
vn -0.1305 0.9908 -0.0364
vn -0.4233 0.9056 -0.0274
vn -0.1266 0.9912 -0.0396
vn -0.0000 0.9989 -0.0459
vn 0.1305 0.9908 -0.0364
vn 0.1266 0.9912 -0.0396
vn 0.4233 0.9056 -0.0274
vn 0.4328 0.9013 -0.0210
vn 0.9922 0.1176 -0.0423
vn 0.9922 0.1176 -0.0422
vn 0.9923 0.1170 -0.0412
vn -0.9930 -0.1147 0.0280
vn -0.9930 -0.1148 0.0280
vn -0.9937 -0.1093 0.0238
vn 0.2613 -0.9651 0.0175
vn 0.2611 -0.9651 0.0176
vn 0.2612 -0.9651 0.0175
vn 0.2610 -0.9652 0.0177
vn -0.9923 0.1170 -0.0412
vn -0.9923 0.1170 -0.0413
vn -0.9922 0.1176 -0.0423
vn 0.9937 -0.1093 0.0238
vn 0.9937 -0.1093 0.0239
vn 0.9930 -0.1147 0.0280
vn -0.2610 -0.9652 0.0177
vn -0.2608 -0.9652 0.0177
vn -0.2609 -0.9652 0.0177
vn -0.2613 -0.9651 0.0174
vn -0.0000 -0.7618 0.6478
vn -0.0000 0.7618 0.6478
vn -0.0000 -0.9734 0.2292
vn -0.0000 0.9734 0.2292
vn -0.0000 0.7619 0.6478
vn 0.0002 -0.7618 0.6478
vn -0.0000 0.9983 -0.0586
vn -0.0000 0.9983 -0.0584
vn -0.0525 0.9982 -0.0290
vn 0.0523 0.9982 -0.0292
vn -0.0522 0.9982 -0.0292
vn 0.0523 0.9982 -0.0294
vn -0.0528 0.9982 0.0294
vn -0.0538 0.9982 0.0283
vn 0.0536 0.9982 0.0285
vn 0.0529 0.9982 0.0296
vn -0.0000 0.9982 0.0595
vn -0.0000 0.9982 0.0600
vn 0.0525 0.9982 -0.0290
vn -0.0523 0.9982 -0.0292
vn 0.0522 0.9982 -0.0292
vn -0.0523 0.9982 -0.0294
vn 0.0528 0.9982 0.0294
vn 0.0538 0.9982 0.0283
vn -0.0536 0.9982 0.0285
vn -0.0529 0.9982 0.0296
vt 0.499017 0.245992
vt 0.498457 0.184725
vt 0.499968 0.246040
vt 0.499968 0.184800
vt 0.500919 0.245992
vt 0.501479 0.184725
vt -10.363858 0.184574
vt -10.358980 0.245898
vt -10.365517 0.184725
vt -10.360024 0.245992
vt 0.499081 0.245898
vt 0.498521 0.184574
vt 0.500032 0.245851
vt 0.500032 0.184499
vt 0.500983 0.245898
vt 0.501543 0.184574
vt 11.365517 0.184725
vt 11.360024 0.245992
vt 11.363858 0.184574
vt 11.358980 0.245898
vt 0.498521 -10.363858
vt 0.498521 -10.365517
vt 0.500032 -10.363029
vt 0.501543 -10.365517
vt 0.501543 -10.363858
vt 0.500032 -10.366346
vt 0.499017 -10.360024
vt 0.499968 -10.360546
vt 0.499017 -10.358980
vt 0.499968 -10.358459
vt 0.500919 -10.360024
vt 0.500919 -10.358980
vt 11.381313 0.192628
vt 11.361758 0.227310
vt 11.380640 0.192211
vt 11.361222 0.226998
vt 11.379967 0.191795
vt 11.360685 0.226686
vt 0.500354 0.192628
vt 0.500251 0.227310
vt 0.499405 0.192628
vt 0.499507 0.227310
vt -10.361758 0.227310
vt -10.381313 0.192628
vt -10.361222 0.226998
vt -10.380640 0.192211
vt -10.360685 0.226686
vt -10.379967 0.191795
vt 0.500595 0.191795
vt 0.500493 0.226686
vt 0.499646 0.191795
vt 0.499749 0.226686
vt 0.479457 0.209682
vt 0.479883 0.206728
vt 0.482627 0.211307
vt 0.482627 0.207566
vt 0.480155 0.203531
vt 0.485372 0.206728
vt 0.485798 0.209682
vt 0.485100 0.203531
vt 0.482627 0.203531
vt 0.480224 0.196153
vt 0.482627 0.196153
vt 0.485030 0.196153
vt 0.520543 0.206439
vt 0.517373 0.204815
vt 0.520118 0.205054
vt 0.517373 0.204217
vt 0.519850 0.203531
vt 0.514628 0.205054
vt 0.514202 0.206439
vt 0.517373 0.203531
vt 0.514895 0.203531
vt 0.514965 0.196153
vt 0.517373 0.196153
vt 0.519780 0.196153
vt 0.521084 -10.416260
vt 0.520543 -10.412385
vt 0.517373 -10.416260
vt 0.517373 -10.411562
vt 0.514202 -10.412385
vt 0.513661 -10.416260
vt -10.416260 0.207477
vt -10.414032 0.206439
vt -10.416260 0.212032
vt -10.412385 0.209682
vt -10.413128 0.205054
vt -10.410577 0.206728
vt -10.412927 0.203531
vt -10.410201 0.203531
vt -10.410240 0.196153
vt -10.412889 0.196153
vt 0.478926 -10.416260
vt 0.482627 -10.416260
vt 0.479457 -10.414032
vt 0.482627 -10.414855
vt 0.485798 -10.414032
vt 0.486329 -10.416260
vt 11.416260 0.212032
vt 11.412385 0.209682
vt 11.416260 0.207477
vt 11.414032 0.206439
vt 11.410577 0.206728
vt 11.413128 0.205054
vt 11.410201 0.203531
vt 11.412927 0.203531
vt 11.410240 0.196153
vt 11.412889 0.196153
vt 0.520607 0.209682
vt 0.517437 0.211307
vt 0.520181 0.206728
vt 0.517437 0.207566
vt 0.519910 0.203531
vt 0.514693 0.206728
vt 0.514266 0.209682
vt 0.514964 0.203531
vt 0.517437 0.203531
vt 0.519840 0.196153
vt 0.517437 0.196153
vt 0.515034 0.196153
vt 0.479393 0.206439
vt 0.479818 0.205054
vt 0.482563 0.204815
vt 0.482563 0.204217
vt 0.480086 0.203531
vt 0.485308 0.205054
vt 0.485734 0.206439
vt 0.482563 0.203531
vt 0.485041 0.203531
vt 0.484971 0.196153
vt 0.482563 0.196153
vt 0.480155 0.196153
vt 0.478852 -10.416260
vt 0.482563 -10.416260
vt 0.479393 -10.412385
vt 0.482563 -10.411562
vt 0.485734 -10.412385
vt 0.486275 -10.416260
vt 11.416260 0.207477
vt 11.416260 0.212032
vt 0.521138 -10.416260
vt 0.520607 -10.414032
vt 0.517437 -10.416260
vt 0.517437 -10.414855
vt 0.514266 -10.414032
vt 0.513736 -10.416260
vt -10.416260 0.212032
vt -10.416260 0.207477
vt -10.420678 0.198311
vt -10.420678 0.196153
vt -10.406344 0.198311
vt -10.406344 0.196153
vt 0.492235 -10.420678
vt 0.507700 -10.420678
vt 0.492235 -10.406343
vt 0.507700 -10.406344
vt 0.507700 0.196153
vt 0.507700 0.198311
vt 0.492235 0.196153
vt 0.492235 0.198311
vt 11.406343 0.196153
vt 11.420678 0.196153
vt 11.406343 0.198311
vt 11.420678 0.198311
vt 0.492300 0.198311
vt 0.492300 0.196153
vt 0.507765 0.198311
vt 0.507765 0.196153
vt 0.577715 -10.759864
vt 0.577715 -10.668920
vt 0.573907 -10.759864
vt 0.573908 -10.668920
vt 0.569520 -10.582701
vt 0.573317 -10.582395
vt 0.552536 -10.448136
vt 0.556294 -10.447530
vt 0.540093 -10.393826
vt 0.543734 -10.392704
vt 0.536453 -10.385817
vt 0.537620 -10.379251
vt 0.535700 -10.379745
vt -10.759864 0.194358
vt -10.668920 0.194358
vt -10.759864 0.198117
vt -10.668920 0.198117
vt -10.582395 0.198117
vt -10.582381 0.194358
vt -10.447530 0.198117
vt -10.447502 0.194358
vt -10.392704 0.198117
vt -10.392653 0.194358
vt -10.379148 0.194359
vt -10.379251 0.198117
vt 0.425920 -10.759864
vt 0.425920 -10.668920
vt 0.422113 -10.759864
vt 0.422113 -10.668920
vt 0.426512 -10.582381
vt 0.430308 -10.582686
vt 0.443536 -10.447502
vt 0.447294 -10.448109
vt 0.456102 -10.392653
vt 0.459742 -10.393775
vt 0.462239 -10.379148
vt 0.463394 -10.385740
vt 0.464155 -10.379642
vt 11.759864 0.197947
vt 11.668920 0.197947
vt 11.759864 0.194189
vt 11.668920 0.194189
vt 11.582686 0.194189
vt 11.582701 0.197947
vt 11.448109 0.194189
vt 11.448136 0.197947
vt 11.393775 0.194189
vt 11.393826 0.197947
vt 11.385817 0.197947
vt 11.385740 0.194189
vt 0.426026 -10.759864
vt 0.426027 -10.668920
vt 0.422219 -10.759864
vt 0.422219 -10.668920
vt 0.426618 -10.582395
vt 0.430414 -10.582701
vt 0.443641 -10.447530
vt 0.447400 -10.448136
vt 0.456202 -10.392704
vt 0.459843 -10.393826
vt 0.463482 -10.385817
vt 0.462316 -10.379251
vt 0.464236 -10.379745
vt 11.759864 0.198117
vt 11.668920 0.198117
vt 11.759864 0.194358
vt 11.668920 0.194358
vt 11.582381 0.194358
vt 11.582395 0.198117
vt 11.447502 0.194358
vt 11.447530 0.198117
vt 11.392653 0.194358
vt 11.392704 0.198117
vt 11.379148 0.194359
vt 11.379251 0.198117
vt 0.577953 -10.759864
vt 0.577953 -10.668920
vt 0.574146 -10.759864
vt 0.574146 -10.668920
vt 0.569757 -10.582686
vt 0.573554 -10.582381
vt 0.552770 -10.448109
vt 0.556529 -10.447502
vt 0.540322 -10.393775
vt 0.543962 -10.392653
vt 0.537825 -10.379148
vt 0.536670 -10.385740
vt 0.535909 -10.379642
vt -10.759864 0.194189
vt -10.668920 0.194189
vt -10.759864 0.197947
vt -10.668920 0.197947
vt -10.582701 0.197947
vt -10.582686 0.194189
vt -10.448136 0.197947
vt -10.448109 0.194189
vt -10.393826 0.197947
vt -10.393775 0.194189
vt -10.385817 0.197947
vt -10.385740 0.194189
vt 0.482674 0.198117
vt 0.482601 0.194359
vt 0.500032 0.198117
vt 0.500032 0.194359
vt 0.517463 0.194359
vt 0.517390 0.198117
vt 0.517620 -10.362374
vt 0.517326 -10.359841
vt 0.515698 -10.363253
vt 0.499968 -10.360526
vt 0.499968 -10.356833
vt 0.482610 -10.359841
vt 0.484238 -10.363253
vt 0.482316 -10.362374
vt 0.482288 -10.362247
vt 0.484228 -10.363098
vt 0.482601 -10.359687
vt 0.500032 -10.356666
vt 0.500032 -10.360359
vt 0.515836 -10.363098
vt 0.517463 -10.359687
vt 0.517776 -10.362247
vt 0.517620 0.198033
vt 0.515698 0.197947
vt 0.517712 0.194274
vt 0.515772 0.194189
vt 0.499968 0.194189
vt 0.499968 0.197947
vt 0.484238 0.197947
vt 0.484164 0.194189
vt 0.482224 0.194274
vt 0.482316 0.198033
vt 11.379642 0.194271
vt 11.379745 0.198029
vt -10.362247 0.194274
vt -10.359687 0.194359
vt -10.362374 0.198033
vt -10.359841 0.198117
vt 0.464155 0.194271
vt 0.464300 0.198029
vt 0.462239 0.194359
vt 0.462380 0.198117
vt -10.379745 0.198029
vt -10.379642 0.194271
vt 11.359841 0.198117
vt 11.359687 0.194359
vt 11.362374 0.198033
vt 11.362247 0.194274
vt 0.537684 0.198117
vt 0.535764 0.198029
vt 0.537825 0.194359
vt 0.535909 0.194271
vt -10.376066 0.204656
vt -10.378348 0.205633
vt -10.374130 0.196153
vt -10.380630 0.204656
vt -10.382565 0.196153
vt 11.380630 0.204656
vt 11.378348 0.205633
vt 11.382565 0.196153
vt 11.374130 0.196153
vt 11.376066 0.204656
vt 0.516195 -10.376066
vt 0.516195 -10.378348
vt 0.517692 -10.376066
vt 0.517692 -10.378348
vt 0.516195 -10.380630
vt 0.517692 -10.380630
vt 0.483805 0.196153
vt 0.483805 0.204656
vt 0.482308 0.196153
vt 0.482308 0.204656
vt 0.516195 0.204656
vt 0.516195 0.196153
vt 0.517692 0.204656
vt 0.517692 0.196153
vt 0.504068 0.196153
vt 0.504068 0.204656
vt 0.502572 0.196153
vt 0.502572 0.204656
vt 0.495932 0.204656
vt 0.495932 0.196153
vt 0.497428 0.204656
vt 0.497428 0.196153
vt 0.502572 -10.376066
vt 0.502572 -10.378348
vt 0.504068 -10.376066
vt 0.504068 -10.378348
vt 0.502572 -10.380630
vt 0.504068 -10.380630
vt -10.380630 0.204656
vt 11.380630 0.204656
vt 0.483741 -10.376066
vt 0.482244 -10.376066
vt 0.483741 -10.378348
vt 0.482244 -10.378348
vt 0.483741 -10.380630
vt 0.482244 -10.380630
vt 0.517756 0.204656
vt 0.516259 0.204656
vt 0.517756 0.196153
vt 0.516259 0.196153
vt 0.482244 0.196153
vt 0.483741 0.196153
vt 0.482244 0.204656
vt 0.483741 0.204656
vt 0.497364 0.204656
vt 0.495867 0.204656
vt 0.497364 0.196153
vt 0.495867 0.196153
vt 0.502636 0.196153
vt 0.504133 0.196153
vt 0.502636 0.204656
vt 0.504133 0.204656
vt 0.497364 -10.376066
vt 0.495867 -10.376066
vt 0.497364 -10.378348
vt 0.495867 -10.378348
vt 0.497364 -10.380630
vt 0.495867 -10.380630
vt 0.517373 0.206284
vt 0.517373 0.205208
vt 0.520145 0.207996
vt 0.514600 0.207996
vt 0.521074 0.207477
vt 0.513671 0.207477
vt 0.521084 0.212032
vt 0.520174 0.211505
vt 0.514571 0.211505
vt 0.513661 0.212032
vt 0.517373 0.214324
vt 0.517373 0.213274
vt 0.482563 0.206284
vt 0.479791 0.207996
vt 0.482563 0.205208
vt 0.485335 0.207996
vt 0.478862 0.207477
vt 0.486264 0.207477
vt 0.478852 0.212032
vt 0.479762 0.211505
vt 0.485364 0.211505
vt 0.486275 0.212032
vt 0.482563 0.214324
vt 0.482563 0.213274
s 1
g Dr_Hull_Stern_destroyer_A_001_6_steel_4
usemtl steel_4
f 3/1/1 2/2/2 1/3/3
f 4/4/3 1/3/3 2/2/2
f 1/3/3 4/4/3 5/5/4
f 6/6/5 5/5/4 4/4/3
f 9/7/6 8/8/7 7/9/4
f 10/10/4 7/9/4 8/8/7
f 13/11/8 12/12/6 11/13/9
f 14/14/9 11/13/9 12/12/6
f 11/13/9 14/14/9 15/15/10
f 16/16/11 15/15/10 14/14/9
f 19/17/12 18/18/12 17/19/13
f 20/20/10 17/19/13 18/18/12
f 23/21/14 22/22/14 21/23/14
f 22/22/14 24/24/14 21/23/14
f 21/23/14 24/24/14 25/25/14
f 26/26/15 24/24/14 22/22/14
f 29/27/16 28/28/17 27/29/17
f 30/30/17 27/29/17 28/28/17
f 28/28/17 31/31/17 30/30/17
f 32/32/17 30/30/17 31/31/17
f 35/33/18 34/34/19 33/35/20
f 36/36/21 33/35/20 34/34/19
f 33/35/20 36/36/21 37/37/22
f 38/38/23 37/37/22 36/36/21
f 41/39/24 40/40/25 39/41/18
f 42/42/26 39/41/18 40/40/25
f 45/43/27 44/44/28 43/45/29
f 46/46/30 43/45/29 44/44/28
f 43/45/29 46/46/30 47/47/31
f 48/48/32 47/47/31 46/46/30
f 51/49/33 50/50/34 49/51/32
f 52/52/31 49/51/32 50/50/34
f 55/53/35 54/54/36 53/55/37
f 56/56/38 53/55/37 54/54/36
f 54/54/36 57/57/39 56/56/38
f 56/56/38 58/58/40 53/55/37
f 59/59/41 53/55/37 58/58/40
f 58/58/40 56/56/38 60/60/42
f 61/61/43 56/56/38 57/57/39
f 61/61/43 60/60/42 56/56/38
f 57/57/39 62/62/44 61/61/43
f 63/63/45 61/61/43 62/62/44
f 61/61/43 63/63/45 60/60/42
f 64/64/46 60/60/42 63/63/45
f 67/65/47 66/66/48 65/67/49
f 68/68/50 65/67/49 66/66/48
f 65/67/49 68/68/50 69/69/51
f 68/68/50 66/66/48 70/70/52
f 71/71/53 70/70/52 66/66/48
f 68/68/50 70/70/52 72/72/54
f 72/72/54 69/69/51 68/68/50
f 73/73/55 72/72/54 70/70/52
f 73/73/55 74/74/56 72/72/54
f 75/75/57 72/72/54 74/74/56
f 72/72/54 75/75/57 69/69/51
f 76/76/58 69/69/51 75/75/57
f 79/77/59 78/78/60 77/79/61
f 80/80/62 77/79/61 78/78/60
f 80/80/62 81/81/41 77/79/61
f 82/82/63 77/79/61 81/81/41
f 85/83/64 84/84/47 83/85/59
f 86/86/35 83/85/59 84/84/47
f 84/84/47 87/87/65 86/86/35
f 88/88/36 86/86/35 87/87/65
f 87/87/65 89/89/51 88/88/36
f 90/90/66 88/88/36 89/89/51
f 90/90/66 89/89/51 91/91/44
f 92/92/58 91/91/44 89/89/51
f 95/93/64 94/94/67 93/95/47
f 96/96/48 93/95/47 94/94/67
f 96/96/48 94/94/67 97/97/53
f 98/98/68 97/97/53 94/94/67
f 101/99/63 100/100/69 99/101/70
f 102/102/71 99/101/70 100/100/69
f 100/100/69 103/103/72 102/102/71
f 104/104/52 102/102/71 103/103/72
f 103/103/72 105/105/42 104/104/52
f 106/106/55 104/104/52 105/105/42
f 105/105/42 107/107/46 106/106/55
f 108/108/56 106/106/55 107/107/46
f 111/109/73 110/110/37 109/111/74
f 112/112/38 109/111/74 110/110/37
f 109/111/74 112/112/38 113/113/75
f 112/112/38 110/110/37 114/114/76
f 115/115/77 114/114/76 110/110/37
f 114/114/76 116/116/78 112/112/38
f 117/117/43 113/113/75 112/112/38
f 117/117/43 112/112/38 116/116/78
f 113/113/75 117/117/43 118/118/46
f 119/119/45 118/118/46 117/117/43
f 117/117/43 116/116/78 119/119/45
f 120/120/44 119/119/45 116/116/78
f 123/121/79 122/122/80 121/123/48
f 124/124/81 121/123/48 122/122/80
f 122/122/80 125/125/82 124/124/81
f 124/124/81 126/126/83 121/123/48
f 127/127/84 121/123/48 126/126/83
f 124/124/81 128/128/85 126/126/83
f 128/128/85 124/124/81 125/125/82
f 129/129/86 126/126/83 128/128/85
f 129/129/86 128/128/85 130/130/58
f 131/131/57 130/130/58 128/128/85
f 128/128/85 125/125/82 131/131/57
f 132/132/56 131/131/57 125/125/82
f 135/133/87 134/134/61 133/135/73
f 136/136/62 133/135/73 134/134/61
f 136/136/62 134/134/61 137/137/88
f 138/138/89 137/137/88 134/134/61
f 141/139/90 140/140/87 139/102/91
f 142/100/73 139/102/91 140/140/87
f 139/102/91 142/100/73 143/104/92
f 144/103/74 143/104/92 142/100/73
f 143/104/92 144/103/74 145/106/82
f 146/105/93 145/106/82 144/103/74
f 146/105/93 147/107/46 145/106/82
f 148/108/56 145/106/82 147/107/46
f 151/141/94 150/142/91 149/143/67
f 152/144/48 149/143/67 150/142/91
f 152/144/48 153/145/95 149/143/67
f 154/146/96 149/143/67 153/145/95
f 157/147/89 156/148/97 155/86/98
f 158/84/99 155/86/98 156/148/97
f 155/86/98 158/84/99 159/88/76
f 160/87/100 159/88/76 158/84/99
f 159/88/76 160/87/100 161/90/101
f 162/89/86 161/90/101 160/87/100
f 161/90/101 162/89/86 163/91/44
f 164/92/58 163/91/44 162/89/86
f 167/149/102 166/150/102 165/151/102
f 168/152/102 165/151/102 166/150/102
f 171/153/103 170/154/103 169/155/103
f 172/156/103 169/155/103 170/154/103
f 175/157/104 174/158/104 173/159/104
f 176/160/104 173/159/104 174/158/104
f 179/161/105 178/162/105 177/163/105
f 180/164/105 177/163/105 178/162/105
f 183/165/106 182/166/106 181/167/106
f 184/168/106 181/167/106 182/166/106
f 187/169/107 186/170/108 185/171/107
f 188/172/108 185/171/107 186/170/108
f 188/172/108 186/170/108 189/173/109
f 190/174/109 189/173/109 186/170/108
f 189/173/109 190/174/109 191/175/110
f 192/176/110 191/175/110 190/174/109
f 191/175/110 192/176/110 193/177/111
f 194/178/111 193/177/111 192/176/110
f 193/177/111 194/178/111 195/179/112
f 196/180/112 195/179/112 194/178/111
f 196/180/112 197/181/112 195/179/112
f 200/182/113 199/183/114 198/184/113
f 201/185/114 198/184/113 199/183/114
f 201/185/114 199/183/114 202/186/115
f 203/187/115 202/186/115 199/183/114
f 202/186/115 203/187/115 204/188/116
f 205/189/116 204/188/116 203/187/115
f 204/188/116 205/189/116 206/190/117
f 207/191/117 206/190/117 205/189/116
f 207/191/117 208/192/118 206/190/117
f 209/193/118 206/190/117 208/192/118
f 212/194/119 211/195/120 210/196/119
f 213/197/120 210/196/119 211/195/120
f 213/197/120 211/195/120 214/198/121
f 215/199/121 214/198/121 211/195/120
f 214/198/121 215/199/121 216/200/122
f 217/201/122 216/200/122 215/199/121
f 216/200/122 217/201/122 218/202/123
f 219/203/123 218/202/123 217/201/122
f 218/202/123 219/203/123 220/204/124
f 221/205/124 220/204/124 219/203/123
f 220/204/124 221/205/124 222/206/124
f 225/207/125 224/208/126 223/209/125
f 226/210/127 223/209/125 224/208/126
f 226/210/127 224/208/126 227/211/128
f 228/212/128 227/211/128 224/208/126
f 227/211/128 228/212/128 229/213/129
f 230/214/129 229/213/129 228/212/128
f 229/213/129 230/214/129 231/215/130
f 232/216/130 231/215/130 230/214/129
f 232/216/130 233/217/131 231/215/130
f 234/218/131 231/215/130 233/217/131
f 237/219/132 236/220/133 235/221/132
f 238/222/133 235/221/132 236/220/133
f 238/222/133 236/220/133 239/223/134
f 240/224/134 239/223/134 236/220/133
f 239/223/134 240/224/134 241/225/135
f 242/226/135 241/225/135 240/224/134
f 241/225/135 242/226/135 243/227/136
f 244/228/136 243/227/136 242/226/135
f 244/228/136 245/229/137 243/227/136
f 246/230/137 243/227/136 245/229/137
f 247/231/137 246/230/137 245/229/137
f 250/232/138 249/233/139 248/234/138
f 251/235/139 248/234/138 249/233/139
f 251/235/139 249/233/139 252/236/140
f 253/237/140 252/236/140 249/233/139
f 252/236/140 253/237/140 254/238/141
f 255/239/141 254/238/141 253/237/140
f 254/238/141 255/239/141 256/240/142
f 257/241/142 256/240/142 255/239/141
f 256/240/142 257/241/142 258/242/143
f 259/243/143 258/242/143 257/241/142
f 262/244/144 261/245/145 260/246/144
f 263/247/145 260/246/144 261/245/145
f 263/247/145 261/245/145 264/248/146
f 265/249/146 264/248/146 261/245/145
f 264/248/146 265/249/146 266/250/147
f 267/251/147 266/250/147 265/249/146
f 266/250/147 267/251/147 268/252/148
f 269/253/148 268/252/148 267/251/147
f 269/253/148 270/254/149 268/252/148
f 271/255/149 268/252/148 270/254/149
f 271/255/149 270/254/149 272/256/149
f 275/257/150 274/258/151 273/259/150
f 276/260/152 273/259/150 274/258/151
f 276/260/152 274/258/151 277/261/153
f 278/262/153 277/261/153 274/258/151
f 277/261/153 278/262/153 279/263/154
f 280/264/154 279/263/154 278/262/153
f 279/263/154 280/264/154 281/265/155
f 282/266/155 281/265/155 280/264/154
f 281/265/155 282/266/155 283/267/156
f 284/268/156 283/267/156 282/266/155
f 287/269/157 286/270/157 285/271/158
f 288/272/158 285/271/158 286/270/157
f 288/272/158 289/273/159 285/271/158
f 290/274/159 285/271/158 289/273/159
f 293/275/160 292/276/161 291/277/162
f 291/277/162 292/276/161 294/278/163
f 295/279/163 294/278/163 292/276/161
f 295/279/163 296/280/164 294/278/163
f 297/281/165 294/278/163 296/280/164
f 296/280/164 298/282/166 297/281/165
f 301/283/167 300/284/168 299/285/169
f 299/285/169 300/284/168 302/286/170
f 303/287/170 302/286/170 300/284/168
f 303/287/170 304/288/171 302/286/170
f 305/289/172 302/286/170 304/288/171
f 304/288/171 306/290/173 305/289/172
f 309/291/174 308/292/175 307/293/176
f 310/294/177 307/293/176 308/292/175
f 310/294/177 308/292/175 311/295/178
f 312/296/178 311/295/178 308/292/175
f 312/296/178 313/297/179 311/295/178
f 314/298/180 311/295/178 313/297/179
f 314/298/180 313/297/179 315/299/181
f 316/300/182 315/299/181 313/297/179
f 319/218/183 318/217/184 317/301/184
f 320/302/185 317/301/184 318/217/184
f 323/303/186 322/304/187 321/305/186
f 324/306/188 321/305/186 322/304/187
f 327/307/189 326/308/190 325/309/191
f 328/310/192 325/309/191 326/308/190
f 331/311/193 330/267/193 329/312/194
f 332/268/195 329/312/194 330/267/193
f 335/313/196 334/314/196 333/315/197
f 336/316/198 333/315/197 334/314/196
f 339/317/199 338/318/200 337/319/201
f 340/320/202 337/319/201 338/318/200
f 343/321/102 342/322/102 341/323/102
f 342/322/102 344/324/102 341/323/102
f 344/324/102 345/325/102 341/323/102
f 348/326/105 347/327/105 346/328/105
f 346/328/105 347/327/105 349/329/105
f 347/327/105 350/330/105 349/329/105
f 353/331/203 352/332/103 351/333/203
f 354/334/103 351/333/203 352/332/103
f 352/332/103 355/335/204 354/334/103
f 356/336/204 354/334/103 355/335/204
f 359/337/205 358/338/203 357/339/205
f 360/340/203 357/339/205 358/338/203
f 363/341/204 362/342/206 361/343/204
f 364/344/206 361/343/204 362/342/206
f 367/345/206 366/346/207 365/347/206
f 368/348/207 365/347/206 366/346/207
f 371/349/208 370/350/205 369/351/203
f 372/352/205 369/351/203 370/350/205
f 375/353/203 374/354/103 373/355/203
f 376/356/103 373/355/203 374/354/103
f 374/354/103 377/357/204 376/356/103
f 378/358/204 376/356/103 377/357/204
f 381/325/102 380/323/102 379/359/102
f 382/321/102 379/359/102 380/323/102
f 385/329/105 384/328/105 383/330/105
f 386/360/105 383/330/105 384/328/105
f 389/328/105 388/360/105 387/329/105
f 388/360/105 390/327/105 387/329/105
f 390/327/105 391/330/105 387/329/105
f 394/321/102 393/322/102 392/323/102
f 393/322/102 395/325/102 392/323/102
f 396/359/102 395/325/102 393/322/102
f 399/361/203 398/362/203 397/363/103
f 400/364/103 397/363/103 398/362/203
f 397/363/103 400/364/103 401/365/204
f 402/366/204 401/365/204 400/364/103
f 405/367/203 404/368/203 403/369/205
f 406/370/205 403/369/205 404/368/203
f 409/371/206 408/372/206 407/373/204
f 410/374/204 407/373/204 408/372/206
f 413/375/207 412/376/207 411/377/206
f 414/378/206 411/377/206 412/376/207
f 417/379/205 416/380/205 415/381/203
f 418/382/203 415/381/203 416/380/205
f 421/383/203 420/384/203 419/385/103
f 422/386/103 419/385/103 420/384/203
f 419/385/103 422/386/103 423/387/204
f 424/388/204 423/387/204 422/386/103
f 427/330/105 426/329/105 425/326/105
f 428/328/105 425/326/105 426/329/105
f 431/324/102 430/325/102 429/321/102
f 432/323/102 429/321/102 430/325/102
f 435/389/209 434/390/210 433/391/211
f 435/389/209 436/392/212 434/390/210
f 437/393/213 433/391/211 434/390/210
f 438/394/214 434/390/210 436/392/212
f 437/393/213 439/395/215 433/391/211
f 440/396/216 433/391/211 439/395/215
f 436/392/212 441/397/217 438/394/214
f 442/398/218 438/394/214 441/397/217
f 439/395/215 443/399/219 440/396/216
f 442/398/218 441/397/217 443/399/219
f 444/400/220 440/396/216 443/399/219
f 444/400/220 443/399/219 441/397/217
f 447/401/209 446/402/221 445/403/210
f 447/401/209 445/403/210 448/404/222
f 449/405/223 445/403/210 446/402/221
f 450/406/224 448/404/222 445/403/210
f 449/405/223 446/402/221 451/407/225
f 452/408/226 451/407/225 446/402/221
f 448/404/222 450/406/224 453/409/227
f 454/410/228 453/409/227 450/406/224
f 451/407/225 452/408/226 455/411/219
f 454/410/228 455/411/219 453/409/227
f 456/412/220 455/411/219 452/408/226
f 456/412/220 453/409/227 455/411/219
