# Blender 5.1.0
# www.blender.org
mtllib Dr_Hull_Midsection_destroyer_A_001_4.mtl
o Dr_Hull_Midsection_destroyer_A_001_4
v 4.079807 5.000001 2.798050
v 3.880011 0.000002 2.789019
v 3.880011 5.000001 2.789019
v 4.079807 0.000002 2.798050
v 3.880012 -4.999998 2.789019
v 4.079807 -4.999998 2.798050
v 4.088839 5.000001 2.598254
v 4.079807 0.000002 2.798050
v 4.079807 5.000001 2.798050
v 4.088839 0.000002 2.598254
v 4.079807 -4.999998 2.798050
v 4.088839 -4.999998 2.598254
v 3.889043 5.000001 2.589223
v 4.088839 0.000002 2.598254
v 4.088839 5.000001 2.598254
v 3.889043 0.000002 2.589223
v 4.088839 -4.999998 2.598254
v 3.889043 -4.999998 2.589223
v 3.880011 5.000001 2.789019
v 3.889043 0.000002 2.589223
v 3.889043 5.000001 2.589223
v 3.880011 0.000002 2.789019
v 3.889043 -4.999998 2.589223
v 3.880012 -4.999998 2.789019
v -4.079807 -4.999998 2.798050
v -3.880011 0.000002 2.789019
v -3.880012 -4.999998 2.789019
v -4.079807 0.000002 2.798050
v -3.880011 5.000002 2.789019
v -4.079807 5.000001 2.798050
v -4.088839 -4.999998 2.598254
v -4.079807 0.000002 2.798050
v -4.079807 -4.999998 2.798050
v -4.088839 0.000002 2.598254
v -4.079807 5.000001 2.798050
v -4.088839 5.000001 2.598254
v -3.889043 -4.999998 2.589223
v -4.088839 0.000002 2.598254
v -4.088839 -4.999998 2.598254
v -3.889042 0.000002 2.589223
v -4.088839 5.000001 2.598254
v -3.889042 5.000001 2.589223
v -3.880012 -4.999998 2.789019
v -3.889042 0.000002 2.589223
v -3.889043 -4.999998 2.589223
v -3.880011 0.000002 2.789019
v -3.889042 5.000001 2.589223
v -3.880011 5.000002 2.789019
vn -0.0452 -0.0000 0.9990
vn 0.9990 -0.0000 0.0452
vn 0.0452 -0.0000 -0.9990
vn -0.9990 -0.0000 -0.0452
vn 0.0452 -0.0000 0.9990
vn -0.9990 -0.0000 0.0452
vn -0.0452 -0.0000 -0.9990
vn 0.9990 -0.0000 -0.0452
vt 0.426025 -11.305529
vt 0.426025 -11.214584
vt 0.422217 -11.305529
vt 0.422217 -11.214584
vt 0.426025 -11.123640
vt 0.422218 -11.123640
vt 12.305529 0.198117
vt 12.214584 0.198117
vt 12.305529 0.194358
vt 12.214584 0.194358
vt 12.123640 0.198117
vt 12.123640 0.194358
vt 0.577955 -11.305529
vt 0.577955 -11.214584
vt 0.574147 -11.305529
vt 0.574147 -11.214584
vt 0.577954 -11.123640
vt 0.574147 -11.123640
vt -11.305529 0.194189
vt -11.214584 0.194189
vt -11.305529 0.197947
vt -11.214584 0.197947
vt -11.123640 0.194189
vt -11.123640 0.197947
vt 0.573906 -11.123640
vt 0.573906 -11.214584
vt 0.577714 -11.123640
vt 0.577714 -11.214584
vt 0.573906 -11.305529
vt 0.577713 -11.305529
vt -11.123640 0.198117
vt -11.214584 0.198117
vt -11.123640 0.194358
vt -11.214584 0.194358
vt -11.305529 0.198117
vt -11.305529 0.194358
vt 0.422114 -11.123640
vt 0.422114 -11.214584
vt 0.425921 -11.123640
vt 0.425922 -11.214584
vt 0.422115 -11.305529
vt 0.425922 -11.305529
vt 12.123640 0.194189
vt 12.214584 0.194189
vt 12.123640 0.197947
vt 12.214584 0.197947
vt 12.305529 0.194189
vt 12.305529 0.197947
s 1
g Dr_Hull_Midsection_destroyer_A_001_4_steel_4
usemtl steel_4
f 3/1/1 2/2/1 1/3/1
f 4/4/1 1/3/1 2/2/1
f 2/2/1 5/5/1 4/4/1
f 6/6/1 4/4/1 5/5/1
f 9/7/2 8/8/2 7/9/2
f 10/10/2 7/9/2 8/8/2
f 8/8/2 11/11/2 10/10/2
f 12/12/2 10/10/2 11/11/2
f 15/13/3 14/14/3 13/15/3
f 16/16/3 13/15/3 14/14/3
f 14/14/3 17/17/3 16/16/3
f 18/18/3 16/16/3 17/17/3
f 21/19/4 20/20/4 19/21/4
f 22/22/4 19/21/4 20/20/4
f 20/20/4 23/23/4 22/22/4
f 24/24/4 22/22/4 23/23/4
f 27/25/5 26/26/5 25/27/5
f 28/28/5 25/27/5 26/26/5
f 26/26/5 29/29/5 28/28/5
f 30/30/5 28/28/5 29/29/5
f 33/31/6 32/32/6 31/33/6
f 34/34/6 31/33/6 32/32/6
f 32/32/6 35/35/6 34/34/6
f 36/36/6 34/34/6 35/35/6
f 39/37/7 38/38/7 37/39/7
f 40/40/7 37/39/7 38/38/7
f 38/38/7 41/41/7 40/40/7
f 42/42/7 40/40/7 41/41/7
f 45/43/8 44/44/8 43/45/8
f 46/46/8 43/45/8 44/44/8
f 44/44/8 47/47/8 46/46/8
f 48/48/8 46/46/8 47/47/8
