# Blender 5.1.0
# www.blender.org
mtllib Dr_Hull_Midsection_destroyer_A_001_6.mtl
o Dr_Hull_Midsection_destroyer_A_001_6
v -3.511980 -4.324804 2.764553
v -3.838745 -3.384725 2.763359
v -3.511864 -3.384765 2.763656
v -3.838862 -4.324764 2.764255
v -3.511908 -4.324882 2.685539
v -3.838862 -4.324764 2.764255
v -3.511980 -4.324804 2.764553
v -3.838790 -4.324839 2.685240
v -3.838790 -4.324839 2.685240
v -3.838745 -3.384725 2.763359
v -3.838862 -4.324764 2.764255
v -3.838673 -3.384798 2.684345
v -3.838673 -3.384798 2.684345
v -3.511864 -3.384765 2.763656
v -3.838745 -3.384725 2.763359
v -3.511792 -3.384838 2.684641
v -3.511792 -3.384838 2.684641
v -3.511980 -4.324804 2.764553
v -3.511864 -3.384765 2.763656
v -3.511908 -4.324882 2.685539
v -3.740024 -4.184287 2.703349
v -3.767071 -4.119334 2.994060
v -3.740288 -4.184011 2.994146
v -3.766807 -4.119610 2.703263
v -3.740272 -4.054657 2.994023
v -3.740008 -4.054935 2.703226
v -3.740288 -4.184011 2.994146
v -3.675352 -4.211088 2.703433
v -3.740024 -4.184287 2.703349
v -3.675616 -4.210810 2.994230
v -3.610672 -4.184300 2.703466
v -3.610936 -4.184024 2.994263
v -3.610936 -4.184024 2.994263
v -3.583875 -4.119632 2.703429
v -3.610672 -4.184300 2.703466
v -3.584139 -4.119354 2.994226
v -3.610656 -4.054949 2.703343
v -3.610920 -4.054673 2.994140
v -3.610920 -4.054673 2.994140
v -3.675331 -4.028152 2.703258
v -3.610656 -4.054949 2.703343
v -3.675595 -4.027874 2.994056
v -3.740008 -4.054935 2.703226
v -3.740272 -4.054657 2.994023
v -3.761568 -4.205284 2.994148
v -3.797209 -4.119276 3.050975
v -3.761620 -4.205230 3.051089
v -3.797158 -4.119329 2.994034
v -3.761599 -4.033327 3.050925
v -3.761547 -4.033382 2.993984
v -3.761620 -4.205230 3.051089
v -3.675619 -4.240899 2.994259
v -3.761568 -4.205284 2.994148
v -3.675671 -4.240846 3.051201
v -3.589664 -4.205306 2.994303
v -3.589716 -4.205253 3.051245
v -3.589716 -4.205253 3.051245
v -3.554051 -4.119359 2.994254
v -3.589664 -4.205306 2.994303
v -3.554103 -4.119306 3.051196
v -3.589643 -4.033402 2.994138
v -3.589695 -4.033349 3.051081
v -3.589695 -4.033349 3.051081
v -3.675590 -3.997789 2.994027
v -3.589643 -4.033402 2.994138
v -3.675642 -3.997736 3.050970
v -3.761547 -4.033382 2.993984
v -3.761599 -4.033327 3.050925
v -3.767005 -3.589731 2.993554
v -3.739942 -3.525340 2.702719
v -3.740206 -3.525062 2.993517
v -3.766741 -3.590009 2.702757
v -3.740222 -3.654411 2.993640
v -3.739959 -3.654689 2.702842
v -3.675264 -3.498553 2.702752
v -3.740206 -3.525062 2.993517
v -3.739942 -3.525340 2.702719
v -3.675528 -3.498276 2.993550
v -3.610590 -3.525357 2.702837
v -3.610854 -3.525079 2.993634
v -3.583809 -3.590033 2.702923
v -3.610854 -3.525079 2.993634
v -3.610590 -3.525357 2.702837
v -3.584073 -3.589755 2.993721
v -3.610606 -3.654706 2.702960
v -3.610870 -3.654427 2.993757
v -3.675287 -3.681488 2.702927
v -3.610870 -3.654427 2.993757
v -3.610606 -3.654706 2.702960
v -3.675551 -3.681210 2.993724
v -3.739959 -3.654689 2.702842
v -3.740222 -3.654411 2.993640
v -3.797143 -3.589672 3.050469
v -3.761481 -3.503781 2.993477
v -3.761533 -3.503730 3.050419
v -3.797092 -3.589727 2.993528
v -3.761554 -3.675631 3.050583
v -3.761502 -3.675686 2.993641
v -3.675524 -3.468188 2.993522
v -3.761533 -3.503730 3.050419
v -3.761481 -3.503781 2.993477
v -3.675575 -3.468132 3.050464
v -3.589577 -3.503803 2.993633
v -3.589629 -3.503747 3.050574
v -3.553986 -3.589757 2.993748
v -3.589629 -3.503747 3.050574
v -3.589577 -3.503803 2.993633
v -3.554037 -3.589701 3.050689
v -3.589598 -3.675704 2.993797
v -3.589650 -3.675648 3.050739
v -3.675554 -3.711298 2.993753
v -3.589650 -3.675648 3.050739
v -3.589598 -3.675704 2.993797
v -3.675606 -3.711242 3.050694
v -3.761502 -3.675686 2.993641
v -3.761554 -3.675631 3.050583
v 3.511980 -4.324804 2.764553
v 3.838745 -3.384725 2.763359
v 3.838862 -4.324764 2.764255
v 3.511864 -3.384765 2.763656
v 3.511908 -4.324882 2.685539
v 3.838862 -4.324764 2.764255
v 3.838790 -4.324839 2.685240
v 3.511980 -4.324804 2.764553
v 3.838790 -4.324839 2.685240
v 3.838745 -3.384725 2.763359
v 3.838673 -3.384798 2.684345
v 3.838862 -4.324764 2.764255
v 3.838673 -3.384798 2.684345
v 3.511864 -3.384765 2.763656
v 3.511792 -3.384838 2.684641
v 3.838745 -3.384725 2.763359
v 3.511792 -3.384838 2.684641
v 3.511980 -4.324804 2.764553
v 3.511908 -4.324882 2.685539
v 3.511864 -3.384765 2.763656
v 3.767071 -4.119334 2.994060
v 3.740024 -4.184287 2.703349
v 3.740288 -4.184011 2.994146
v 3.766807 -4.119610 2.703263
v 3.740272 -4.054657 2.994023
v 3.740008 -4.054935 2.703226
v 3.675352 -4.211088 2.703433
v 3.740288 -4.184011 2.994146
v 3.740024 -4.184287 2.703349
v 3.675616 -4.210810 2.994230
v 3.610672 -4.184300 2.703466
v 3.610936 -4.184024 2.994263
v 3.583875 -4.119632 2.703429
v 3.610936 -4.184024 2.994263
v 3.610672 -4.184300 2.703466
v 3.584139 -4.119354 2.994226
v 3.610656 -4.054949 2.703343
v 3.610920 -4.054673 2.994140
v 3.675331 -4.028152 2.703258
v 3.610920 -4.054673 2.994140
v 3.610656 -4.054949 2.703343
v 3.675595 -4.027874 2.994056
v 3.740008 -4.054935 2.703226
v 3.740272 -4.054657 2.994023
v 3.797209 -4.119276 3.050975
v 3.761568 -4.205284 2.994148
v 3.761620 -4.205230 3.051089
v 3.797158 -4.119329 2.994034
v 3.761599 -4.033327 3.050925
v 3.761547 -4.033382 2.993984
v 3.675619 -4.240899 2.994259
v 3.761620 -4.205230 3.051089
v 3.761568 -4.205284 2.994148
v 3.675671 -4.240846 3.051201
v 3.589664 -4.205306 2.994303
v 3.589716 -4.205253 3.051245
v 3.554051 -4.119359 2.994254
v 3.589716 -4.205253 3.051245
v 3.589664 -4.205306 2.994303
v 3.554103 -4.119306 3.051196
v 3.589643 -4.033402 2.994138
v 3.589695 -4.033349 3.051081
v 3.675590 -3.997789 2.994027
v 3.589695 -4.033349 3.051081
v 3.589643 -4.033402 2.994138
v 3.675642 -3.997736 3.050970
v 3.761547 -4.033382 2.993984
v 3.761599 -4.033327 3.050925
v 3.739942 -3.525340 2.702719
v 3.767005 -3.589731 2.993554
v 3.740206 -3.525062 2.993517
v 3.766741 -3.590009 2.702757
v 3.740222 -3.654411 2.993640
v 3.739959 -3.654689 2.702842
v 3.740206 -3.525062 2.993517
v 3.675264 -3.498553 2.702752
v 3.739942 -3.525340 2.702719
v 3.675528 -3.498276 2.993550
v 3.610590 -3.525357 2.702837
v 3.610854 -3.525079 2.993634
v 3.610854 -3.525079 2.993634
v 3.583809 -3.590033 2.702923
v 3.610590 -3.525357 2.702837
v 3.584073 -3.589755 2.993721
v 3.610606 -3.654706 2.702960
v 3.610870 -3.654427 2.993757
v 3.610870 -3.654427 2.993757
v 3.675287 -3.681488 2.702927
v 3.610606 -3.654706 2.702960
v 3.675551 -3.681210 2.993724
v 3.739959 -3.654689 2.702842
v 3.740222 -3.654411 2.993640
v 3.761481 -3.503781 2.993477
v 3.797143 -3.589672 3.050469
v 3.761533 -3.503730 3.050419
v 3.797092 -3.589727 2.993528
v 3.761554 -3.675631 3.050583
v 3.761502 -3.675686 2.993641
v 3.761533 -3.503730 3.050419
v 3.675524 -3.468188 2.993522
v 3.761481 -3.503781 2.993477
v 3.675575 -3.468132 3.050464
v 3.589577 -3.503803 2.993633
v 3.589629 -3.503747 3.050574
v 3.589629 -3.503747 3.050574
v 3.553986 -3.589757 2.993748
v 3.589577 -3.503803 2.993633
v 3.554037 -3.589701 3.050689
v 3.589598 -3.675704 2.993797
v 3.589650 -3.675648 3.050739
v 3.589650 -3.675648 3.050739
v 3.675554 -3.711298 2.993753
v 3.589598 -3.675704 2.993797
v 3.675606 -3.711242 3.050694
v 3.761502 -3.675686 2.993641
v 3.761554 -3.675631 3.050583
v -3.761568 -4.205284 2.994148
v -3.675605 -4.119341 2.994143
v -3.797158 -4.119329 2.994034
v -3.675619 -4.240899 2.994259
v -3.761547 -4.033382 2.993984
v -3.589664 -4.205306 2.994303
v -3.675590 -3.997789 2.994027
v -3.554051 -4.119359 2.994254
v -3.589643 -4.033402 2.994138
v -3.761481 -3.503781 2.993477
v -3.797092 -3.589727 2.993528
v -3.675539 -3.589743 2.993637
v -3.675524 -3.468188 2.993522
v -3.761502 -3.675686 2.993641
v -3.589577 -3.503803 2.993633
v -3.675554 -3.711298 2.993753
v -3.553986 -3.589757 2.993748
v -3.589598 -3.675704 2.993797
v 3.761568 -4.205284 2.994148
v 3.797158 -4.119329 2.994034
v 3.675605 -4.119341 2.994143
v 3.675619 -4.240899 2.994259
v 3.761547 -4.033382 2.993984
v 3.589664 -4.205306 2.994303
v 3.675590 -3.997789 2.994027
v 3.554051 -4.119359 2.994254
v 3.589643 -4.033402 2.994138
v 3.761481 -3.503781 2.993477
v 3.675539 -3.589743 2.993637
v 3.797092 -3.589727 2.993528
v 3.675524 -3.468188 2.993522
v 3.761502 -3.675686 2.993641
v 3.589577 -3.503803 2.993633
v 3.675554 -3.711298 2.993753
v 3.553986 -3.589757 2.993748
v 3.589598 -3.675704 2.993797
v -3.797209 -4.119276 3.050975
v -3.761599 -4.033327 3.050925
v -3.675690 -4.119256 3.087849
v -3.761620 -4.205230 3.051089
v -3.675642 -3.997736 3.050970
v -3.675671 -4.240846 3.051201
v -3.589695 -4.033349 3.051081
v -3.589716 -4.205253 3.051245
v -3.554103 -4.119306 3.051196
v -3.797143 -3.589672 3.050469
v -3.675624 -3.589650 3.087342
v -3.761554 -3.675631 3.050583
v -3.761533 -3.503730 3.050419
v -3.675606 -3.711242 3.050694
v -3.675575 -3.468132 3.050464
v -3.589650 -3.675648 3.050739
v -3.589629 -3.503747 3.050574
v -3.554037 -3.589701 3.050689
v 3.797209 -4.119276 3.050975
v 3.675690 -4.119256 3.087849
v 3.761599 -4.033327 3.050925
v 3.761620 -4.205230 3.051089
v 3.675642 -3.997736 3.050970
v 3.675671 -4.240846 3.051201
v 3.589695 -4.033349 3.051081
v 3.589716 -4.205253 3.051245
v 3.554103 -4.119306 3.051196
v 3.797143 -3.589672 3.050469
v 3.761554 -3.675631 3.050583
v 3.675624 -3.589650 3.087342
v 3.761533 -3.503730 3.050419
v 3.675606 -3.711242 3.050694
v 3.675575 -3.468132 3.050464
v 3.589650 -3.675648 3.050739
v 3.589629 -3.503747 3.050574
v 3.554037 -3.589701 3.050689
vn -0.0009 0.0010 1.0000
vn -0.0001 -1.0000 0.0010
vn -1.0000 0.0001 -0.0009
vn 0.0001 1.0000 -0.0009
vn 1.0000 -0.0001 0.0009
vn -0.7072 -0.7070 -0.0000
vn -0.7070 0.7072 -0.0013
vn 0.7070 -0.7072 0.0013
vn 0.7071 -0.7071 0.0013
vn 0.7072 0.7070 -0.0000
vn 0.7072 0.7071 -0.0002
vn 0.0001 1.0000 -0.0010
vn 0.7072 0.7070 -0.0001
vn -0.7071 0.7072 -0.0013
vn -0.0001 -1.0000 0.0009
vn -0.7070 0.7072 -0.0014
vn -0.7072 -0.7070 0.0001
vn 0.7073 0.7070 -0.0000
vn 0.7073 0.7070 -0.0001
vn 0.7071 -0.7072 0.0013
vn 0.7070 -0.7072 0.0014
vn -0.7072 -0.7071 0.0001
vn 0.0009 0.0010 1.0000
vn 0.0001 -1.0000 0.0010
vn 1.0000 0.0001 -0.0009
vn -0.0001 1.0000 -0.0009
vn -1.0000 -0.0001 0.0009
vn 0.7072 -0.7070 -0.0000
vn 0.7070 0.7072 -0.0013
vn -0.7070 -0.7072 0.0013
vn -0.7071 -0.7071 0.0013
vn -0.7072 0.7070 -0.0000
vn -0.7072 0.7071 -0.0000
vn -0.7072 0.7070 0.0002
vn -0.0001 1.0000 -0.0010
vn 0.7071 0.7072 -0.0013
vn 0.0001 -1.0000 0.0009
vn 0.7072 -0.7070 0.0001
vn -0.7072 0.7070 -0.0001
vn -0.7073 0.7070 -0.0000
vn -0.7073 0.7070 -0.0001
vn -0.7071 -0.7072 0.0013
vn 0.7070 0.7072 -0.0014
vn -0.7070 -0.7072 0.0014
vn 0.7072 -0.7071 0.0001
vn 0.0009 -0.0010 -1.0000
vn 0.0009 -0.0009 -1.0000
vn -0.0009 -0.0010 -1.0000
vn -0.0009 -0.0009 -1.0000
vn -0.0009 0.0009 1.0000
vn -0.2055 0.2056 0.9568
vn -0.2904 0.0009 0.9569
vn -0.2056 -0.2038 0.9572
vn -0.0008 0.2904 0.9569
vn -0.0009 -0.2886 0.9575
vn 0.2039 0.2056 0.9572
vn 0.2038 -0.2038 0.9576
vn 0.2886 0.0009 0.9574
vn -0.2904 0.0010 0.9569
vn -0.2056 0.2056 0.9568
vn 0.2055 0.2056 0.9568
vn 0.0009 0.0009 1.0000
vn 0.2904 0.0009 0.9569
vn 0.2056 -0.2038 0.9572
vn 0.0008 0.2904 0.9569
vn 0.0009 -0.2886 0.9575
vn -0.2039 0.2056 0.9572
vn -0.2038 -0.2038 0.9576
vn -0.2886 0.0009 0.9574
vn 0.2904 0.0010 0.9569
vn 0.2056 0.2056 0.9568
vt 0.566891 -11.153020
vt 0.573120 -11.153020
vt 0.566893 -11.135921
vt 0.573122 -11.135922
vt 0.433107 0.197487
vt 0.426878 0.197481
vt 0.433109 0.196000
vt 0.426879 0.195995
vt -11.135922 0.197481
vt -11.153020 0.197464
vt -11.135921 0.195995
vt -11.153019 0.195978
vt 0.573120 0.197464
vt 0.566891 0.197470
vt 0.573119 0.195978
vt 0.566889 0.195984
vt 12.153020 0.197470
vt 12.135921 0.197487
vt 12.153018 0.195984
vt 12.135920 0.196000
vt -11.138482 0.201806
vt -11.139659 0.201805
vt -11.138477 0.196336
vt -11.139653 0.196334
vt -11.140835 0.201804
vt -11.140830 0.196333
vt 0.428761 0.196336
vt 0.429994 0.196337
vt 0.428756 0.201806
vt 0.429989 0.201808
vt 0.431226 0.196338
vt 0.431221 0.201808
vt 12.138477 0.196338
vt 12.139653 0.196337
vt 12.138482 0.201808
vt 12.139658 0.201808
vt 12.140830 0.196335
vt 12.140835 0.201806
vt 0.568773 0.196335
vt 0.570006 0.196334
vt 0.568778 0.201806
vt 0.570011 0.201804
vt 0.571238 0.196333
vt 0.571243 0.201804
vt -11.138096 0.202877
vt -11.139660 0.202875
vt -11.138095 0.201806
vt -11.139659 0.201804
vt -11.141223 0.202874
vt -11.141222 0.201803
vt 0.428351 0.201806
vt 0.429989 0.201808
vt 0.428350 0.202877
vt 0.429988 0.202880
vt 0.431627 0.201809
vt 0.431626 0.202880
vt 12.138095 0.201809
vt 12.139658 0.201808
vt 12.138096 0.202880
vt 12.139659 0.202879
vt 12.141222 0.201806
vt 12.141223 0.202877
vt 0.568373 0.201806
vt 0.570011 0.201804
vt 0.568374 0.202877
vt 0.570012 0.202875
vt 0.571649 0.201803
vt 0.571650 0.202874
vt -11.150468 0.201794
vt -11.150462 0.196324
vt -11.149291 0.201795
vt -11.149286 0.196324
vt -11.148115 0.201797
vt -11.148109 0.196326
vt 0.571237 0.196324
vt 0.571242 0.201794
vt 0.570004 0.196324
vt 0.570009 0.201795
vt 0.568772 0.196326
vt 0.568777 0.201797
vt 12.150462 0.196326
vt 12.150467 0.201797
vt 12.149286 0.196328
vt 12.149291 0.201798
vt 12.148109 0.196328
vt 12.148114 0.201799
vt 0.431228 0.196328
vt 0.431223 0.201799
vt 0.429995 0.196328
vt 0.429990 0.201798
vt 0.428763 0.196326
vt 0.428758 0.201797
vt -11.150856 0.202865
vt -11.150855 0.201794
vt -11.149293 0.202866
vt -11.149291 0.201795
vt -11.147729 0.202868
vt -11.147728 0.201797
vt 0.571648 0.201794
vt 0.571648 0.202865
vt 0.570009 0.201794
vt 0.570010 0.202866
vt 0.568372 0.201797
vt 0.568373 0.202868
vt 12.150854 0.201797
vt 12.150855 0.202868
vt 12.149291 0.201799
vt 12.149292 0.202870
vt 12.147728 0.201800
vt 12.147729 0.202871
vt 0.431628 0.201800
vt 0.431627 0.202871
vt 0.429990 0.201799
vt 0.429989 0.202870
vt 0.428352 0.201797
vt 0.428351 0.202868
vt 0.426809 -11.135922
vt 0.426812 -11.153020
vt 0.433039 -11.135921
vt 0.433041 -11.153020
vt 0.573189 0.195995
vt 0.573191 0.197481
vt 0.566960 0.196000
vt 0.566961 0.197487
vt 12.153019 0.195978
vt 12.153020 0.197464
vt 12.135921 0.195995
vt 12.135922 0.197481
vt 0.433042 0.195984
vt 0.433041 0.197470
vt 0.426813 0.195978
vt 0.426812 0.197464
vt -11.135920 0.196000
vt -11.135921 0.197487
vt -11.153018 0.195984
vt -11.153020 0.197470
vt 12.138482 0.201806
vt 12.138477 0.196336
vt 12.139659 0.201805
vt 12.139653 0.196334
vt 12.140835 0.201804
vt 12.140830 0.196333
vt 0.571307 0.196336
vt 0.571312 0.201806
vt 0.570075 0.196337
vt 0.570080 0.201808
vt 0.568842 0.196338
vt 0.568847 0.201808
vt -11.138477 0.196338
vt -11.138482 0.201808
vt -11.139653 0.196337
vt -11.139658 0.201808
vt -11.140830 0.196335
vt -11.140835 0.201806
vt 0.431158 0.196335
vt 0.431153 0.201806
vt 0.429926 0.196334
vt 0.429921 0.201804
vt 0.428693 0.196333
vt 0.428688 0.201804
vt 12.138096 0.202877
vt 12.138095 0.201806
vt 12.139660 0.202875
vt 12.139659 0.201804
vt 12.141223 0.202874
vt 12.141222 0.201803
vt 0.571718 0.201806
vt 0.571719 0.202877
vt 0.570080 0.201808
vt 0.570081 0.202880
vt 0.568442 0.201809
vt 0.568443 0.202880
vt -11.138095 0.201809
vt -11.138096 0.202880
vt -11.139658 0.201808
vt -11.139659 0.202879
vt -11.141222 0.201806
vt -11.141223 0.202877
vt 0.431559 0.201806
vt 0.431558 0.202877
vt 0.429921 0.201804
vt 0.429920 0.202875
vt 0.428283 0.201803
vt 0.428282 0.202874
vt 12.150468 0.201794
vt 12.149291 0.201795
vt 12.150462 0.196324
vt 12.149286 0.196324
vt 12.148115 0.201797
vt 12.148109 0.196326
vt 0.428694 0.196324
vt 0.429927 0.196324
vt 0.428689 0.201794
vt 0.429922 0.201795
vt 0.431159 0.196326
vt 0.431154 0.201797
vt -11.150462 0.196326
vt -11.149286 0.196328
vt -11.150467 0.201797
vt -11.149291 0.201798
vt -11.148109 0.196328
vt -11.148114 0.201799
vt 0.568841 0.196328
vt 0.570073 0.196328
vt 0.568846 0.201799
vt 0.570078 0.201798
vt 0.571306 0.196326
vt 0.571311 0.201797
vt 12.150856 0.202865
vt 12.149292 0.202866
vt 12.150855 0.201794
vt 12.149291 0.201795
vt 12.147729 0.202868
vt 12.147728 0.201797
vt 0.428284 0.201794
vt 0.429922 0.201794
vt 0.428283 0.202865
vt 0.429921 0.202866
vt 0.431560 0.201797
vt 0.431559 0.202868
vt -11.150854 0.201797
vt -11.149291 0.201799
vt -11.150855 0.202868
vt -11.149292 0.202870
vt -11.147728 0.201800
vt -11.147729 0.202871
vt 0.568441 0.201800
vt 0.570079 0.201799
vt 0.568442 0.202871
vt 0.570080 0.202870
vt 0.571716 0.201797
vt 0.571717 0.202868
vt 0.427673 -11.139659
vt 0.429989 -11.139658
vt 0.428351 -11.138095
vt 0.429989 -11.137447
vt 0.428351 -11.141222
vt 0.431627 -11.138095
vt 0.429989 -11.141870
vt 0.432305 -11.139658
vt 0.431627 -11.141222
vt 0.429990 -11.149291
vt 0.427674 -11.149291
vt 0.428352 -11.150855
vt 0.429991 -11.151503
vt 0.428352 -11.147728
vt 0.431628 -11.150854
vt 0.429990 -11.147080
vt 0.432307 -11.149291
vt 0.431628 -11.147728
vt 0.570080 -11.139658
vt 0.572396 -11.139659
vt 0.571718 -11.138095
vt 0.570080 -11.137447
vt 0.571717 -11.141222
vt 0.568442 -11.138095
vt 0.570079 -11.141870
vt 0.567763 -11.139658
vt 0.568441 -11.141222
vt 0.572395 -11.149291
vt 0.570078 -11.149291
vt 0.571716 -11.150855
vt 0.570078 -11.151502
vt 0.571716 -11.147728
vt 0.568440 -11.150854
vt 0.570079 -11.147080
vt 0.567762 -11.149291
vt 0.568441 -11.147728
vt 0.570013 -11.139660
vt 0.571650 -11.141223
vt 0.572328 -11.139660
vt 0.571650 -11.138096
vt 0.570012 -11.141870
vt 0.570012 -11.137448
vt 0.568374 -11.141223
vt 0.568374 -11.138096
vt 0.567696 -11.139659
vt 0.571649 -11.147729
vt 0.570011 -11.149293
vt 0.572327 -11.149293
vt 0.571648 -11.150856
vt 0.570011 -11.147081
vt 0.570010 -11.151504
vt 0.568373 -11.147729
vt 0.568373 -11.150855
vt 0.567694 -11.149292
vt 0.428282 -11.141223
vt 0.429919 -11.139660
vt 0.427603 -11.139660
vt 0.428281 -11.138096
vt 0.429920 -11.141870
vt 0.429919 -11.137448
vt 0.431558 -11.141223
vt 0.431557 -11.138096
vt 0.432236 -11.139659
vt 0.429920 -11.149293
vt 0.428283 -11.147729
vt 0.427604 -11.149292
vt 0.428283 -11.150856
vt 0.429920 -11.147081
vt 0.429921 -11.151504
vt 0.431558 -11.147729
vt 0.431559 -11.150855
vt 0.432237 -11.149292
s 1
g Dr_Hull_Midsection_destroyer_A_001_6_details_2
usemtl details_2
f 3/1/1 2/2/1 1/3/1
f 4/4/1 1/3/1 2/2/1
f 7/5/2 6/6/2 5/7/2
f 8/8/2 5/7/2 6/6/2
f 11/9/3 10/10/3 9/11/3
f 12/12/3 9/11/3 10/10/3
f 15/13/4 14/14/4 13/15/4
f 16/16/4 13/15/4 14/14/4
f 19/17/5 18/18/5 17/19/5
f 20/20/5 17/19/5 18/18/5
f 23/21/6 22/22/3 21/23/6
f 24/24/3 21/23/6 22/22/3
f 22/22/3 25/25/7 24/24/3
f 26/26/7 24/24/3 25/25/7
f 29/27/6 28/28/2 27/29/6
f 30/30/2 27/29/6 28/28/2
f 28/28/2 31/31/8 30/30/2
f 32/32/8 30/30/2 31/31/8
f 35/33/9 34/34/5 33/35/8
f 36/36/5 33/35/8 34/34/5
f 34/34/5 37/37/10 36/36/5
f 38/38/10 36/36/5 37/37/10
f 41/39/11 40/40/12 39/41/13
f 42/42/12 39/41/13 40/40/12
f 40/40/12 43/43/7 42/42/12
f 44/44/7 42/42/12 43/43/7
f 47/45/6 46/46/3 45/47/6
f 48/48/3 45/47/6 46/46/3
f 46/46/3 49/49/14 48/48/3
f 50/50/14 48/48/3 49/49/14
f 53/51/6 52/52/15 51/53/6
f 54/54/15 51/53/6 52/52/15
f 52/52/15 55/55/8 54/54/15
f 56/56/8 54/54/15 55/55/8
f 59/57/8 58/58/5 57/59/8
f 60/60/5 57/59/8 58/58/5
f 58/58/5 61/61/10 60/60/5
f 62/62/10 60/60/5 61/61/10
f 65/63/10 64/64/4 63/65/10
f 66/66/4 63/65/10 64/64/4
f 64/64/4 67/67/7 66/66/4
f 68/68/16 66/66/4 67/67/7
f 71/69/7 70/70/14 69/71/3
f 72/72/3 69/71/3 70/70/14
f 69/71/3 72/72/3 73/73/6
f 74/74/17 73/73/6 72/72/3
f 77/75/7 76/76/7 75/77/12
f 78/78/12 75/77/12 76/76/7
f 75/77/12 78/78/12 79/79/10
f 80/80/13 79/79/10 78/78/12
f 83/81/18 82/82/19 81/83/5
f 84/84/5 81/83/5 82/82/19
f 81/83/5 84/84/5 85/85/20
f 86/86/8 85/85/20 84/84/5
f 89/87/8 88/88/8 87/89/2
f 90/90/2 87/89/2 88/88/8
f 87/89/2 90/90/2 91/91/17
f 92/92/6 91/91/17 90/90/2
f 95/93/7 94/94/14 93/95/3
f 96/96/3 93/95/3 94/94/14
f 93/95/3 96/96/3 97/97/6
f 98/98/17 97/97/6 96/96/3
f 101/99/7 100/100/7 99/101/12
f 102/102/12 99/101/12 100/100/7
f 99/101/12 102/102/12 103/103/10
f 104/104/13 103/103/10 102/102/12
f 107/105/10 106/106/13 105/107/5
f 108/108/5 105/107/5 106/106/13
f 105/107/5 108/108/5 109/109/21
f 110/110/21 109/109/21 108/108/5
f 113/111/21 112/112/8 111/113/2
f 114/114/2 111/113/2 112/112/8
f 111/113/2 114/114/2 115/115/22
f 116/116/6 115/115/22 114/114/2
f 119/117/23 118/118/23 117/119/23
f 120/120/23 117/119/23 118/118/23
f 123/121/24 122/122/24 121/123/24
f 124/124/24 121/123/24 122/122/24
f 127/125/25 126/126/25 125/127/25
f 128/128/25 125/127/25 126/126/25
f 131/129/26 130/130/26 129/131/26
f 132/132/26 129/131/26 130/130/26
f 135/133/27 134/134/27 133/135/27
f 136/136/27 133/135/27 134/134/27
f 139/137/28 138/138/28 137/139/25
f 140/140/25 137/139/25 138/138/28
f 137/139/25 140/140/25 141/141/29
f 142/142/29 141/141/29 140/140/25
f 145/143/28 144/144/28 143/145/24
f 146/146/24 143/145/24 144/144/28
f 143/145/24 146/146/24 147/147/30
f 148/148/30 147/147/30 146/146/24
f 151/149/31 150/150/30 149/151/27
f 152/152/27 149/151/27 150/150/30
f 149/151/27 152/152/27 153/153/32
f 154/154/32 153/153/32 152/152/27
f 157/155/33 156/156/34 155/157/35
f 158/158/35 155/157/35 156/156/34
f 155/157/35 158/158/35 159/159/29
f 160/160/29 159/159/29 158/158/35
f 163/161/28 162/162/28 161/163/25
f 164/164/25 161/163/25 162/162/28
f 161/163/25 164/164/25 165/165/36
f 166/166/36 165/165/36 164/164/25
f 169/167/28 168/168/28 167/169/37
f 170/170/37 167/169/37 168/168/28
f 167/169/37 170/170/37 171/171/30
f 172/172/30 171/171/30 170/170/37
f 175/173/30 174/174/30 173/175/27
f 176/176/27 173/175/27 174/174/30
f 173/175/27 176/176/27 177/177/32
f 178/178/32 177/177/32 176/176/27
f 181/179/32 180/180/32 179/181/26
f 182/182/26 179/181/26 180/180/32
f 179/181/26 182/182/26 183/183/29
f 184/184/29 183/183/29 182/182/26
f 187/185/29 186/186/25 185/187/36
f 188/188/25 185/187/36 186/186/25
f 186/186/25 189/189/28 188/188/25
f 190/190/38 188/188/25 189/189/28
f 193/191/29 192/192/35 191/193/29
f 194/194/35 191/193/29 192/192/35
f 192/192/35 195/195/32 194/194/35
f 196/196/39 194/194/35 195/195/32
f 199/197/40 198/198/27 197/199/41
f 200/200/27 197/199/41 198/198/27
f 198/198/27 201/201/42 200/200/27
f 202/202/30 200/200/27 201/201/42
f 205/203/30 204/204/24 203/205/30
f 206/206/24 203/205/30 204/204/24
f 204/204/24 207/207/38 206/206/24
f 208/208/28 206/206/24 207/207/38
f 211/209/29 210/210/25 209/211/36
f 212/212/25 209/211/36 210/210/25
f 210/210/25 213/213/28 212/212/25
f 214/214/28 212/212/25 213/213/28
f 217/215/43 216/216/35 215/217/29
f 218/218/35 215/217/29 216/216/35
f 216/216/35 219/219/32 218/218/35
f 220/220/39 218/218/35 219/219/32
f 223/221/32 222/222/27 221/223/39
f 224/224/27 221/223/39 222/222/27
f 222/222/27 225/225/44 224/224/27
f 226/226/30 224/224/27 225/225/44
f 229/227/44 228/228/24 227/229/30
f 230/230/24 227/229/30 228/228/24
f 228/228/24 231/231/45 230/230/24
f 232/232/28 230/230/24 231/231/45
f 235/233/46 234/234/46 233/235/46
f 233/235/46 234/234/46 236/236/46
f 237/237/47 234/234/46 235/233/46
f 236/236/46 234/234/46 238/238/46
f 237/237/47 239/239/47 234/234/46
f 238/238/46 234/234/46 240/240/46
f 241/241/46 234/234/46 239/239/47
f 240/240/46 234/234/46 241/241/46
f 244/242/46 243/243/46 242/244/46
f 244/242/46 242/244/46 245/245/47
f 244/242/46 246/246/47 243/243/46
f 244/242/46 245/245/47 247/247/47
f 248/248/46 246/246/47 244/242/46
f 244/242/46 247/247/47 249/249/46
f 244/242/46 250/250/46 248/248/46
f 244/242/46 249/249/46 250/250/46
f 253/251/48 252/252/48 251/253/48
f 253/251/48 251/253/48 254/254/48
f 253/251/48 255/255/49 252/252/48
f 253/251/48 254/254/48 256/256/48
f 257/257/49 255/255/49 253/251/48
f 253/251/48 256/256/48 258/258/48
f 253/251/48 259/259/48 257/257/49
f 253/251/48 258/258/48 259/259/48
f 262/260/48 261/261/48 260/262/48
f 260/262/48 261/261/48 263/263/49
f 264/264/49 261/261/48 262/260/48
f 263/263/49 261/261/48 265/265/49
f 264/264/49 266/266/48 261/261/48
f 265/265/49 261/261/48 267/267/48
f 268/268/48 261/261/48 266/266/48
f 267/267/48 261/261/48 268/268/48
f 271/269/50 270/270/51 269/271/52
f 271/269/50 269/271/52 272/272/53
f 271/269/50 273/273/54 270/270/51
f 271/269/50 272/272/53 274/274/55
f 271/269/50 275/275/56 273/273/54
f 271/269/50 274/274/55 276/276/57
f 271/269/50 277/277/58 275/275/56
f 271/269/50 276/276/57 277/277/58
f 280/278/53 279/279/1 278/280/59
f 278/280/59 279/279/1 281/281/60
f 282/282/55 279/279/1 280/278/53
f 281/281/60 279/279/1 283/283/54
f 284/284/57 279/279/1 282/282/55
f 283/283/54 279/279/1 285/285/56
f 286/286/58 279/279/1 284/284/57
f 285/285/56 279/279/1 286/286/58
f 289/287/61 288/288/62 287/289/63
f 287/289/63 288/288/62 290/290/64
f 291/291/65 288/288/62 289/287/61
f 290/290/64 288/288/62 292/292/66
f 293/293/67 288/288/62 291/291/65
f 292/292/66 288/288/62 294/294/68
f 295/295/69 288/288/62 293/293/67
f 294/294/68 288/288/62 295/295/69
f 298/296/23 297/297/64 296/298/70
f 298/296/23 296/298/70 299/299/71
f 298/296/23 300/300/66 297/297/64
f 298/296/23 299/299/71 301/301/65
f 298/296/23 302/302/68 300/300/66
f 298/296/23 301/301/65 303/303/67
f 298/296/23 304/304/69 302/302/68
f 298/296/23 303/303/67 304/304/69
