# Blender 5.1.0
# www.blender.org
mtllib Dr_Hull_Rostrum_destroyer_A_001_5.mtl
o Dr_Hull_Rostrum_destroyer_A_001_5
v -2.356009 10.515450 4.562951
v -2.356009 10.515450 2.693636
v -3.495519 10.515450 4.562950
v -3.711939 10.515448 4.363834
v -3.813830 10.515448 4.077893
v -3.813830 10.515448 2.693636
v -3.853378 9.012060 2.693637
v -3.852360 9.683193 3.141404
v -3.813830 10.515448 2.693636
v -3.851313 9.943333 3.604753
v -3.850830 9.999998 4.077893
v -3.813830 10.515448 4.077893
v -3.748938 9.999998 4.363834
v -3.711939 10.515448 4.363834
v -3.495519 10.515450 4.562950
v -2.356009 9.999998 4.562951
v -2.356009 10.515450 4.562951
v -3.532518 9.999998 4.562981
v -3.711939 10.515448 4.363834
v -3.748938 9.999998 4.363834
v 2.356007 10.515450 4.562951
v 3.495517 10.515450 4.562950
v 2.356007 10.515450 2.693636
v 3.711937 10.515448 4.363834
v 3.813828 10.515448 4.077893
v 3.813828 10.515448 2.693636
v 3.853376 9.012060 2.693637
v 3.813828 10.515448 2.693636
v 3.852358 9.683193 3.141404
v 3.851311 9.943333 3.604753
v 3.850827 9.999998 4.077893
v 3.813828 10.515448 4.077893
v 3.748936 9.999998 4.363834
v 3.711937 10.515448 4.363834
v 2.356007 9.999998 4.562951
v 3.495517 10.515450 4.562950
v 2.356007 10.515450 4.562951
v 3.532516 9.999998 4.562981
v 3.711937 10.515448 4.363834
v 3.748936 9.999998 4.363834
vn -0.0000 -1.0000 -0.0000
vn 0.9989 -0.0438 0.0184
vn 0.9991 -0.0307 0.0290
vn 0.9990 -0.0263 0.0371
vn 0.9987 -0.0503 0.0095
vn 0.9845 -0.0684 -0.1616
vn 0.9827 -0.0705 -0.1712
vn 0.8357 -0.0600 -0.5459
vn 0.8291 -0.0595 -0.5560
vn -0.0000 -0.0000 -1.0000
vn 0.3487 -0.0251 -0.9369
vn 0.3775 -0.0271 -0.9256
vn 0.8290 -0.0595 -0.5560
vn 0.8357 -0.0600 -0.5460
vn -0.9991 -0.0307 0.0290
vn -0.9989 -0.0438 0.0184
vn -0.9990 -0.0263 0.0371
vn -0.9987 -0.0503 0.0095
vn -0.9845 -0.0684 -0.1616
vn -0.9827 -0.0705 -0.1712
vn -0.8357 -0.0600 -0.5459
vn -0.8291 -0.0595 -0.5560
vn -0.3487 -0.0251 -0.9369
vn -0.3775 -0.0271 -0.9256
vn -0.8290 -0.0595 -0.5560
vn -0.8357 -0.0600 -0.5460
vt 0.433422 0.231319
vt 0.455137 0.196153
vt 0.455137 0.231319
vt 0.429297 0.227574
vt 0.427356 0.222194
vt 0.427356 0.196153
vt 12.405848 0.196153
vt 12.390710 0.204576
vt 12.378503 0.196153
vt 12.395441 0.213293
vt 12.396472 0.222194
vt 12.405848 0.222194
vt 12.396472 0.227574
vt 12.405848 0.227574
vt 0.455137 -11.405848
vt 0.455137 -11.396472
vt 0.433422 -11.405848
vt 0.432717 -11.396472
vt 0.429297 -11.405848
vt 0.428592 -11.396472
vt 0.544933 0.196153
vt 0.566648 0.231319
vt 0.544933 0.231319
vt 0.570773 0.227574
vt 0.572714 0.222194
vt 0.572714 0.196153
vt -11.390710 0.204576
vt -11.405848 0.196153
vt -11.378503 0.196153
vt -11.395441 0.213293
vt -11.396472 0.222194
vt -11.405848 0.222194
vt -11.396472 0.227574
vt -11.405848 0.227574
vt 0.544933 -11.405848
vt 0.566648 -11.405848
vt 0.544933 -11.396472
vt 0.567353 -11.396472
vt 0.570773 -11.405848
vt 0.571478 -11.396472
s 1
g Dr_Hull_Rostrum_destroyer_A_001_5_steel_board_2
usemtl steel_board_2
f 3/1/1 2/2/1 1/3/1
f 4/4/1 2/2/1 3/1/1
f 5/5/1 2/2/1 4/4/1
f 6/6/1 2/2/1 5/5/1
f 9/7/2 8/8/3 7/9/4
f 10/10/5 8/8/3 9/7/2
f 10/10/5 9/7/2 11/11/6
f 12/12/7 11/11/6 9/7/2
f 11/11/6 12/12/7 13/13/8
f 14/14/9 13/13/8 12/12/7
f 17/15/10 16/16/10 15/17/11
f 18/18/12 15/17/11 16/16/10
f 15/17/11 18/18/12 19/19/13
f 20/20/14 19/19/13 18/18/12
f 23/21/1 22/22/1 21/23/1
f 23/21/1 24/24/1 22/22/1
f 23/21/1 25/25/1 24/24/1
f 23/21/1 26/26/1 25/25/1
f 29/27/15 28/28/16 27/29/17
f 29/27/15 30/30/18 28/28/16
f 30/30/18 31/31/19 28/28/16
f 32/32/20 28/28/16 31/31/19
f 31/31/19 33/33/21 32/32/20
f 34/34/22 32/32/20 33/33/21
f 37/35/10 36/36/23 35/37/10
f 38/38/24 35/37/10 36/36/23
f 36/36/23 39/39/25 38/38/24
f 40/40/26 38/38/24 39/39/25
