# Blender 5.1.0
# www.blender.org
mtllib Dr_Hull_Rostrum_destroyer_A_001_4.mtl
o Dr_Hull_Rostrum_destroyer_A_001_4
v -2.356009 9.999998 2.693636
v -2.356008 4.999983 2.693636
v 2.356007 9.999998 2.693636
v 2.356007 4.999983 2.693636
v -3.626125 26.748545 4.693459
v -2.356008 26.745176 4.693459
v 2.356005 26.745176 4.693459
v 3.626122 26.748545 4.693459
v 2.356005 9.999998 4.693460
v -2.356007 9.999998 4.693460
v -3.984427 9.012062 2.693637
v -3.853378 9.012060 2.693637
v -3.984426 5.000002 2.693636
v -3.813830 10.515448 2.693636
v -2.356009 10.515450 2.693636
v -3.583461 9.999998 4.693460
v -3.685467 24.114092 4.693459
v 3.984425 9.012062 2.693637
v 3.984424 5.000002 2.693636
v 3.853376 9.012060 2.693637
v 3.813828 10.515448 2.693636
v 2.356007 10.515450 2.693636
v 3.583458 9.999998 4.693460
v 3.685464 24.114092 4.693459
vn -0.0000 -0.0000 1.0000
vt 0.579688 0.420075
vt 0.577068 0.460196
vt 0.579688 0.460196
vt 0.547120 0.420075
vt 0.547120 0.470075
vt 0.576277 0.475230
vt 0.547120 0.475230
vt 0.547120 0.470075
vt 0.547120 0.637527
vt 0.571669 0.470075
vt 0.573709 0.611216
vt 0.572522 0.637561
vt 0.422932 0.460196
vt 0.420312 0.420075
vt 0.420311 0.460196
vt 0.452880 0.420075
vt 0.452880 0.470075
vt 0.423723 0.475230
vt 0.452880 0.475230
vt 0.452880 0.470075
vt 0.428331 0.470075
vt 0.452880 0.637527
vt 0.426291 0.611216
vt 0.427478 0.637561
s 1
g Dr_Hull_Rostrum_destroyer_A_001_4_wood_deck_1
usemtl wood_deck_1
f 13/1/1 12/2/1 11/3/1
f 13/1/1 2/4/1 12/2/1
f 1/5/1 12/2/1 2/4/1
f 12/2/1 1/5/1 14/6/1
f 15/7/1 14/6/1 1/5/1
f 10/8/1 6/9/1 16/10/1
f 17/11/1 16/10/1 6/9/1
f 5/12/1 17/11/1 6/9/1
f 20/13/1 19/14/1 18/15/1
f 19/14/1 20/13/1 4/16/1
f 3/17/1 4/16/1 20/13/1
f 20/13/1 21/18/1 3/17/1
f 22/19/1 3/17/1 21/18/1
f 9/20/1 23/21/1 7/22/1
f 24/23/1 7/22/1 23/21/1
f 24/23/1 8/24/1 7/22/1
