# Blender 5.1.0
# www.blender.org
mtllib Dr_Hull_Rostrum_destroyer_A_001_8.mtl
o Dr_Hull_Rostrum_destroyer_A_001_8
v -2.537535 9.506958 2.693637
v -2.595752 10.187248 4.562981
v -2.595749 9.506958 2.693637
v -2.537538 10.187250 4.562981
v -2.595749 9.506958 2.693637
v -2.595751 9.999996 4.562981
v -2.595749 9.319708 2.693637
v -2.595752 10.187248 4.562981
v -2.595749 9.319708 2.693637
v -2.537538 9.999376 4.562981
v -2.537535 9.319700 2.693637
v -2.595751 9.999996 4.562981
v -3.131160 9.506960 2.693637
v -3.189372 10.187250 4.562981
v -3.189373 9.506960 2.693637
v -3.131159 10.187250 4.562981
v -3.189373 9.506960 2.693637
v -3.189373 9.999996 4.562981
v -3.189373 9.319708 2.693637
v -3.189372 10.187250 4.562981
v -3.189373 9.319708 2.693637
v -3.131160 9.999998 4.562981
v -3.131160 9.319708 2.693637
v -3.189373 9.999996 4.562981
v -3.131160 9.999998 4.562981
v -3.131160 9.506960 2.693637
v -3.131160 9.319708 2.693637
v -3.131159 10.187250 4.562981
v -2.537538 9.999376 4.562981
v -2.537535 9.506958 2.693637
v -2.537535 9.319700 2.693637
v -2.537538 10.187250 4.562981
v -3.881978 26.683779 4.616317
v -0.000002 26.683779 4.115153
v -3.998627 26.683779 4.115152
v -3.734811 26.683779 4.982782
v -3.438476 26.683779 5.245892
v -2.993204 26.683779 5.367749
v -1.525957 26.683779 5.517081
v -0.000002 26.683779 5.552512
v 1.525953 26.683779 5.517081
v 2.993201 26.683779 5.367749
v 3.438472 26.683779 5.245892
v 3.734808 26.683779 4.982782
v 3.881974 26.683779 4.616317
v 3.998624 26.683779 4.115152
v -3.881978 26.803255 4.616317
v -3.998627 26.683779 4.115152
v -3.998627 26.803255 4.115152
v -3.881978 26.683779 4.616317
v -3.734811 26.803255 4.982782
v -3.734811 26.683779 4.982782
v -3.438476 26.803255 5.245892
v -3.734811 26.683779 4.982782
v -3.734811 26.803255 4.982782
v -3.438476 26.683779 5.245892
v -2.993204 26.803255 5.367749
v -2.993204 26.683779 5.367749
v -1.525957 26.683779 5.517081
v -1.525957 26.803255 5.517081
v -0.000002 26.683779 5.552512
v -0.000002 26.803255 5.552512
v 1.525953 26.803255 5.517081
v 1.525953 26.683779 5.517081
v 2.993201 26.803255 5.367749
v 2.993201 26.683779 5.367749
v 3.438472 26.683779 5.245892
v 3.438472 26.803255 5.245892
v 3.734808 26.683779 4.982782
v 3.734808 26.803255 4.982782
v -0.000002 26.683779 4.115153
v -3.998627 26.803255 4.115152
v -3.998627 26.683779 4.115152
v -0.000002 26.803259 4.115153
v 3.998624 26.803255 4.115152
v 3.998624 26.683779 4.115152
v -3.881978 26.803255 4.616317
v -3.998627 26.803255 4.115152
v -0.000002 26.803259 4.115153
v -3.734811 26.803255 4.982782
v -3.438476 26.803255 5.245892
v -2.993204 26.803255 5.367749
v -1.525957 26.803255 5.517081
v -0.000002 26.803255 5.552512
v 1.525953 26.803255 5.517081
v 2.993201 26.803255 5.367749
v 3.438472 26.803255 5.245892
v 3.734808 26.803255 4.982782
v 3.881974 26.803255 4.616317
v 3.998624 26.803255 4.115152
v -1.546200 30.522013 4.689425
v -1.692875 30.534838 4.892076
v -1.586740 30.525545 4.814668
v -1.930197 30.555590 4.814669
v -1.970737 30.559122 4.689426
v -1.824062 30.546297 4.892076
v -1.827781 30.822733 4.689425
v -1.645345 30.759134 4.799713
v -1.831917 30.775454 4.799714
v -1.641210 30.806398 4.689425
v -1.831917 30.775454 4.799714
v -1.999475 30.598768 4.689426
v -1.827781 30.822733 4.689425
v -2.002030 30.569551 4.757587
v -1.843696 30.640879 4.893213
v -2.009308 30.486345 4.815373
v -2.090704 30.220011 4.689426
v -2.020200 30.361834 4.853984
v -2.033051 30.214968 4.867542
v -1.645345 30.759134 4.799713
v -1.520857 30.443605 4.815371
v -1.657123 30.624559 4.893213
v -1.513580 30.526819 4.757586
v -1.641210 30.806398 4.689425
v -1.511024 30.556032 4.689425
v -1.486946 30.167192 4.689425
v -1.531749 30.319094 4.853984
v -1.544599 30.172235 4.867542
v -1.657123 30.624559 4.893213
v -1.831917 30.775454 4.799714
v -1.645345 30.759134 4.799713
v -1.843696 30.640879 4.893213
v -1.674746 30.423075 4.955688
v -1.531749 30.319094 4.853984
v -1.520857 30.443605 4.815371
v -1.544599 30.172235 4.867542
v -1.695539 30.185442 4.977626
v -1.861320 30.439394 4.955688
v -2.009308 30.486345 4.815373
v -1.882110 30.201761 4.977626
v -2.020200 30.361834 4.853984
v -2.033051 30.214968 4.867542
v -2.090704 30.220011 4.689426
v -1.960555 30.208643 4.814670
v -2.001093 30.212172 4.689426
v -2.033051 30.214968 4.867542
v -1.854419 30.199350 4.892076
v -1.882110 30.201761 4.977626
v -1.723231 30.187868 4.892076
v -1.695539 30.185442 4.977626
v -1.617096 30.178583 4.814669
v -1.544599 30.172235 4.867542
v -1.576556 30.175051 4.689425
v -1.486946 30.167192 4.689425
v -2.001093 30.212172 4.689426
v -1.930197 30.555590 4.814669
v -1.970737 30.559122 4.689426
v -1.960555 30.208643 4.814670
v -1.960555 30.208643 4.814670
v -1.824062 30.546297 4.892076
v -1.930197 30.555590 4.814669
v -1.854419 30.199350 4.892076
v -1.692875 30.534838 4.892076
v -1.723231 30.187868 4.892076
v -1.586740 30.525545 4.814668
v -1.617096 30.178583 4.814669
v -1.617096 30.178583 4.814669
v -1.546200 30.522013 4.689425
v -1.586740 30.525545 4.814668
v -1.576556 30.175051 4.689425
v -1.197939 28.426706 5.259660
v -1.255812 28.604830 5.338257
v -1.255812 28.604830 5.259659
v -1.197939 28.426706 5.338257
v -1.255813 28.248587 5.259660
v -1.255813 28.248587 5.338257
v -1.407328 28.714914 5.338260
v -1.255812 28.604830 5.259659
v -1.255812 28.604830 5.338257
v -1.407328 28.714914 5.259661
v -1.594612 28.714914 5.338260
v -1.594612 28.714914 5.259662
v -1.746129 28.604830 5.338260
v -1.746129 28.604830 5.259662
v -1.804004 28.426706 5.338260
v -1.746129 28.604830 5.259662
v -1.746129 28.604830 5.338260
v -1.804004 28.426706 5.259662
v -1.746130 28.248587 5.338260
v -1.746130 28.248587 5.259662
v -1.594614 28.138498 5.338260
v -1.746130 28.248587 5.259662
v -1.746130 28.248587 5.338260
v -1.594614 28.138498 5.259662
v -1.407329 28.138498 5.338260
v -1.407329 28.138498 5.259662
v -1.255813 28.248587 5.338257
v -1.255813 28.248587 5.259660
v -0.000002 28.917814 4.836407
v -2.399508 27.935598 4.836412
v -2.399508 28.917814 4.836412
v -0.000002 27.935598 4.836408
v 2.399505 27.935598 4.836412
v 2.399505 28.917814 4.836412
v -2.399508 27.935598 4.836412
v -0.000002 27.935598 4.693456
v -2.399508 27.935598 4.693460
v -0.000002 27.935598 4.836408
v 2.399505 27.935598 4.836412
v 2.399505 27.935598 4.693460
v -0.890029 28.672968 4.988484
v -0.659219 28.212679 4.988485
v -0.890031 28.212679 4.988487
v -0.659217 28.672968 4.988483
v -0.890031 28.212679 4.988487
v -0.890030 28.672968 4.806096
v -0.890029 28.672968 4.988484
v -0.890031 28.212679 4.806097
v -0.659219 28.212679 4.988485
v -0.890031 28.212679 4.806097
v -0.890031 28.212679 4.988487
v -0.659220 28.212679 4.806096
v -0.659217 28.672968 4.988483
v -0.659220 28.212679 4.806096
v -0.659219 28.212679 4.988485
v -0.659218 28.672968 4.806096
v -0.890029 28.672968 4.988484
v -0.659218 28.672968 4.806096
v -0.659217 28.672968 4.988483
v -0.890030 28.672968 4.806096
v -0.890024 29.621630 4.948933
v -0.659214 29.161333 4.948933
v -0.890026 29.161333 4.948933
v -0.659212 29.621630 4.948933
v -0.890026 29.161333 4.948933
v -0.890025 29.621630 4.693458
v -0.890024 29.621630 4.948933
v -0.890027 29.161333 4.693458
v -0.659214 29.161333 4.948933
v -0.890027 29.161333 4.693458
v -0.890026 29.161333 4.948933
v -0.659215 29.161333 4.693458
v -0.659212 29.621630 4.948933
v -0.659215 29.161333 4.693458
v -0.659214 29.161333 4.948933
v -0.659213 29.621630 4.693458
v -0.890024 29.621630 4.948933
v -0.659213 29.621630 4.693458
v -0.659212 29.621630 4.948933
v -0.890025 29.621630 4.693458
v -0.000002 28.917814 4.693455
v -2.399508 28.917814 4.836412
v -2.399508 28.917814 4.693460
v -0.000002 28.917814 4.836407
v 2.399505 28.917814 4.836412
v 2.399505 28.917814 4.693460
v -2.399508 28.917814 4.836412
v -2.399508 27.935598 4.693460
v -2.399508 28.917814 4.693460
v -2.399508 27.935598 4.836412
v -0.788137 34.105911 4.693460
v -0.961815 33.645386 4.693458
v -0.820119 34.116974 4.839376
v -0.721223 34.643814 4.693460
v -0.754282 34.645935 4.826676
v -0.788141 35.035812 4.693459
v -0.819102 35.025452 4.817567
v -0.963300 35.278168 4.693460
v -0.980012 35.247879 4.812227
v -1.163106 35.247879 4.812227
v -1.354987 35.035812 4.693458
v -1.179817 35.278168 4.693460
v -1.324021 35.025452 4.817568
v -1.421898 34.643814 4.693459
v -1.388837 34.645920 4.826681
v -1.354992 34.105919 4.693459
v -1.323009 34.116974 4.839377
v -1.181303 33.645363 4.693460
v -0.980012 35.247879 4.812227
v -1.179817 35.278168 4.693460
v -0.963300 35.278168 4.693460
v -1.163106 35.247879 4.812227
v -0.820119 34.116974 4.839376
v -0.961815 33.645386 4.693458
v -0.874077 34.130302 4.839056
v -0.754282 34.645935 4.826676
v -0.835564 34.644669 4.826708
v -0.819102 35.025452 4.817567
v -0.920448 35.003510 4.818094
v -0.980012 35.247879 4.812227
v -1.008209 35.078049 4.816304
v -1.163106 35.247879 4.812227
v -1.134910 35.078049 4.816305
v -1.324021 35.025452 4.817568
v -1.222677 35.003510 4.818095
v -1.388837 34.645920 4.826681
v -1.307555 34.644646 4.826711
v -1.323009 34.116974 4.839377
v -1.269050 34.130302 4.839058
v -1.181303 33.645363 4.693460
v -2.357493 26.086092 4.115152
v -2.357493 26.683779 5.302241
v -2.357493 26.086092 4.889734
v -2.357493 26.683775 4.115152
v -2.238733 26.086092 4.889735
v -2.357493 26.683779 5.302241
v -2.238733 26.683779 5.302241
v -2.357493 26.086092 4.889734
v -2.238733 26.086092 4.889735
v -2.238733 26.683775 4.115154
v -2.238733 26.086092 4.115154
v -2.238733 26.683779 5.302241
v -2.238733 26.086092 4.889735
v -2.357493 26.086092 4.115152
v -2.357493 26.086092 4.889734
v -2.238733 26.086092 4.115154
v -2.633678 26.448435 4.685163
v -2.565104 26.237379 4.816353
v -2.633678 26.448435 4.816353
v -2.565104 26.237379 4.685163
v -2.633678 26.026331 4.816353
v -2.633678 26.026331 4.685163
v -2.633678 26.026331 4.685163
v -2.813207 25.895899 4.816354
v -2.633678 26.026331 4.816353
v -2.813207 25.895899 4.685163
v -3.035117 25.895899 4.816354
v -3.035117 25.895899 4.685163
v -3.214646 26.026331 4.816353
v -3.214646 26.026331 4.685163
v -3.214646 26.026331 4.685163
v -3.283219 26.237379 4.816353
v -3.214646 26.026331 4.816353
v -3.283219 26.237379 4.685163
v -3.214646 26.448431 4.816353
v -3.214646 26.448431 4.685163
v -3.214646 26.448431 4.685163
v -3.035117 26.578867 4.816352
v -3.214646 26.448431 4.816353
v -3.035117 26.578867 4.685162
v -2.813206 26.578867 4.816352
v -2.813206 26.578867 4.685162
v -2.633678 26.448435 4.816353
v -2.633678 26.448435 4.685163
v -2.059036 26.412210 4.693634
v -0.854949 26.412210 5.005642
v -0.854949 26.412210 4.693634
v -2.059036 26.412210 5.005642
v -0.854948 26.683779 4.693634
v -0.854949 26.412210 5.005642
v -0.854949 26.683779 5.190647
v -0.854949 26.412210 4.693634
v -0.854949 26.683779 5.190647
v -2.059036 26.412210 5.005642
v -2.059036 26.683779 5.190649
v -0.854949 26.412210 5.005642
v -2.059036 26.683779 5.190649
v -2.059036 26.412210 4.693634
v -2.059036 26.683779 4.693634
v -2.059036 26.412210 5.005642
v 2.537533 9.506958 2.693637
v 2.595750 10.187248 4.562981
v 2.537536 10.187250 4.562981
v 2.595747 9.506958 2.693637
v 2.595747 9.506958 2.693637
v 2.595750 9.999996 4.562981
v 2.595750 10.187248 4.562981
v 2.595747 9.319708 2.693637
v 2.595747 9.319708 2.693637
v 2.537536 9.999376 4.562981
v 2.595750 9.999996 4.562981
v 2.537534 9.319700 2.693637
v 3.131158 9.506960 2.693637
v 3.189371 10.187250 4.562981
v 3.131157 10.187250 4.562981
v 3.189372 9.506960 2.693637
v 3.189372 9.506960 2.693637
v 3.189371 9.999996 4.562981
v 3.189371 10.187250 4.562981
v 3.189372 9.319708 2.693637
v 3.189372 9.319708 2.693637
v 3.131158 9.999998 4.562981
v 3.189371 9.999996 4.562981
v 3.131158 9.319708 2.693637
v 3.131158 9.999998 4.562981
v 3.131158 9.506960 2.693637
v 3.131157 10.187250 4.562981
v 3.131158 9.319708 2.693637
v 2.537536 9.999376 4.562981
v 2.537533 9.506958 2.693637
v 2.537536 10.187250 4.562981
v 2.537534 9.319700 2.693637
v 3.998624 26.683779 4.115152
v 3.881974 26.803255 4.616317
v 3.998624 26.803255 4.115152
v 3.881974 26.683779 4.616317
v 3.734808 26.803255 4.982782
v 3.734808 26.683779 4.982782
v 1.930194 30.555590 4.814669
v 1.692871 30.534838 4.892076
v 1.824059 30.546297 4.892076
v 1.546196 30.522013 4.689425
v 1.970734 30.559122 4.689426
v 1.586737 30.525545 4.814668
v 1.827778 30.822733 4.689425
v 1.645341 30.759134 4.799713
v 1.641207 30.806398 4.689425
v 1.831913 30.775454 4.799714
v 1.999471 30.598768 4.689426
v 1.831913 30.775454 4.799714
v 1.827778 30.822733 4.689425
v 2.002027 30.569551 4.757587
v 1.843692 30.640879 4.893213
v 2.009305 30.486345 4.815373
v 2.090701 30.220011 4.689426
v 2.020196 30.361834 4.853984
v 2.033048 30.214968 4.867542
v 1.520853 30.443605 4.815371
v 1.645341 30.759134 4.799713
v 1.657120 30.624559 4.893213
v 1.513576 30.526819 4.757586
v 1.641207 30.806398 4.689425
v 1.511020 30.556032 4.689425
v 1.486942 30.167192 4.689425
v 1.531746 30.319094 4.853984
v 1.544596 30.172235 4.867542
v 1.831913 30.775454 4.799714
v 1.657120 30.624559 4.893213
v 1.645341 30.759134 4.799713
v 1.843692 30.640879 4.893213
v 1.674743 30.423075 4.955688
v 1.531746 30.319094 4.853984
v 1.520853 30.443605 4.815371
v 1.544596 30.172235 4.867542
v 1.695535 30.185442 4.977626
v 1.861317 30.439394 4.955688
v 2.009305 30.486345 4.815373
v 1.882106 30.201761 4.977626
v 2.020196 30.361834 4.853984
v 2.033048 30.214968 4.867542
v 1.960551 30.208643 4.814670
v 2.090701 30.220011 4.689426
v 2.001090 30.212172 4.689426
v 2.033048 30.214968 4.867542
v 1.854415 30.199350 4.892076
v 1.882106 30.201761 4.977626
v 1.723227 30.187868 4.892076
v 1.695535 30.185442 4.977626
v 1.617093 30.178583 4.814669
v 1.544596 30.172235 4.867542
v 1.576553 30.175051 4.689425
v 1.486942 30.167192 4.689425
v 2.001090 30.212172 4.689426
v 1.930194 30.555590 4.814669
v 1.960551 30.208643 4.814670
v 1.970734 30.559122 4.689426
v 1.824059 30.546297 4.892076
v 1.960551 30.208643 4.814670
v 1.930194 30.555590 4.814669
v 1.854415 30.199350 4.892076
v 1.692871 30.534838 4.892076
v 1.723227 30.187868 4.892076
v 1.586737 30.525545 4.814668
v 1.617093 30.178583 4.814669
v 1.617093 30.178583 4.814669
v 1.546196 30.522013 4.689425
v 1.576553 30.175051 4.689425
v 1.586737 30.525545 4.814668
v 1.255808 28.604830 5.338257
v 1.197935 28.426706 5.259660
v 1.255808 28.604830 5.259659
v 1.197935 28.426706 5.338257
v 1.255810 28.248587 5.259660
v 1.255809 28.248587 5.338257
v 1.255808 28.604830 5.259659
v 1.407324 28.714914 5.338260
v 1.255808 28.604830 5.338257
v 1.407324 28.714914 5.259661
v 1.594609 28.714914 5.338260
v 1.594609 28.714914 5.259662
v 1.746125 28.604830 5.338260
v 1.746126 28.604830 5.259662
v 1.746126 28.604830 5.259662
v 1.804000 28.426706 5.338260
v 1.746125 28.604830 5.338260
v 1.804000 28.426706 5.259662
v 1.746127 28.248587 5.338260
v 1.746127 28.248587 5.259662
v 1.746127 28.248587 5.259662
v 1.594610 28.138498 5.338260
v 1.746127 28.248587 5.338260
v 1.594611 28.138498 5.259662
v 1.407326 28.138498 5.338260
v 1.407326 28.138498 5.259662
v 1.255809 28.248587 5.338257
v 1.255810 28.248587 5.259660
v 0.890025 28.672968 4.988484
v 0.659216 28.212679 4.988485
v 0.659214 28.672968 4.988483
v 0.890027 28.212679 4.988487
v 0.890027 28.212679 4.988487
v 0.890026 28.672968 4.806096
v 0.890028 28.212679 4.806097
v 0.890025 28.672968 4.988484
v 0.659216 28.212679 4.988485
v 0.890028 28.212679 4.806097
v 0.659217 28.212679 4.806096
v 0.890027 28.212679 4.988487
v 0.659214 28.672968 4.988483
v 0.659217 28.212679 4.806096
v 0.659214 28.672968 4.806096
v 0.659216 28.212679 4.988485
v 0.890025 28.672968 4.988484
v 0.659214 28.672968 4.806096
v 0.890026 28.672968 4.806096
v 0.659214 28.672968 4.988483
v 0.890021 29.621630 4.948933
v 0.659211 29.161333 4.948933
v 0.659208 29.621630 4.948933
v 0.890023 29.161333 4.948933
v 0.890023 29.161333 4.948933
v 0.890021 29.621630 4.693458
v 0.890024 29.161333 4.693458
v 0.890021 29.621630 4.948933
v 0.659211 29.161333 4.948933
v 0.890024 29.161333 4.693458
v 0.659211 29.161333 4.693458
v 0.890023 29.161333 4.948933
v 0.659208 29.621630 4.948933
v 0.659211 29.161333 4.693458
v 0.659210 29.621630 4.693458
v 0.659211 29.161333 4.948933
v 0.890021 29.621630 4.948933
v 0.659210 29.621630 4.693458
v 0.890021 29.621630 4.693458
v 0.659208 29.621630 4.948933
v 2.399505 28.917814 4.836412
v 2.399505 27.935598 4.693460
v 2.399505 27.935598 4.836412
v 2.399505 28.917814 4.693460
v 0.788134 34.105911 4.693460
v 0.820115 34.116974 4.839376
v 0.961812 33.645386 4.693458
v 0.721220 34.643814 4.693460
v 0.754279 34.645935 4.826676
v 0.788138 35.035812 4.693459
v 0.819099 35.025452 4.817567
v 0.963296 35.278168 4.693460
v 0.980008 35.247879 4.812227
v 1.354984 35.035812 4.693458
v 1.163103 35.247879 4.812227
v 1.179814 35.278168 4.693460
v 1.324018 35.025452 4.817568
v 1.421894 34.643814 4.693459
v 1.388833 34.645920 4.826681
v 1.354989 34.105919 4.693459
v 1.323005 34.116974 4.839377
v 1.181299 33.645363 4.693460
v 0.980008 35.247879 4.812227
v 1.179814 35.278168 4.693460
v 1.163103 35.247879 4.812227
v 0.963296 35.278168 4.693460
v 0.820115 34.116974 4.839376
v 0.874074 34.130302 4.839056
v 0.961812 33.645386 4.693458
v 0.754279 34.645935 4.826676
v 0.835561 34.644669 4.826708
v 0.819099 35.025452 4.817567
v 0.920444 35.003510 4.818094
v 0.980008 35.247879 4.812227
v 1.008205 35.078049 4.816304
v 1.163103 35.247879 4.812227
v 1.134906 35.078049 4.816305
v 1.324018 35.025452 4.817568
v 1.222673 35.003510 4.818095
v 1.388833 34.645920 4.826681
v 1.307551 34.644646 4.826711
v 1.323005 34.116974 4.839377
v 1.269046 34.130302 4.839058
v 1.181299 33.645363 4.693460
v 2.357490 26.086092 4.115152
v 2.357490 26.683779 5.302241
v 2.357490 26.683775 4.115152
v 2.357490 26.086092 4.889734
v 2.238730 26.086092 4.889735
v 2.357490 26.683779 5.302241
v 2.357490 26.086092 4.889734
v 2.238730 26.683779 5.302241
v 2.238730 26.086092 4.889735
v 2.238730 26.683775 4.115154
v 2.238730 26.683779 5.302241
v 2.238730 26.086092 4.115154
v 2.238730 26.086092 4.889735
v 2.357490 26.086092 4.115152
v 2.238730 26.086092 4.115154
v 2.357490 26.086092 4.889734
v 2.565101 26.237379 4.816353
v 2.633675 26.448435 4.685163
v 2.633675 26.448435 4.816353
v 2.565101 26.237379 4.685163
v 2.633675 26.026331 4.816353
v 2.633675 26.026331 4.685163
v 2.813204 25.895899 4.816354
v 2.633675 26.026331 4.685163
v 2.633675 26.026331 4.816353
v 2.813204 25.895899 4.685163
v 3.035114 25.895899 4.816354
v 3.035114 25.895899 4.685163
v 3.214643 26.026331 4.816353
v 3.214643 26.026331 4.685163
v 3.283216 26.237379 4.816353
v 3.214643 26.026331 4.685163
v 3.214643 26.026331 4.816353
v 3.283216 26.237379 4.685163
v 3.214643 26.448431 4.816353
v 3.214643 26.448431 4.685163
v 3.035114 26.578867 4.816352
v 3.214643 26.448431 4.685163
v 3.214643 26.448431 4.816353
v 3.035114 26.578867 4.685162
v 2.813204 26.578867 4.816352
v 2.813204 26.578867 4.685162
v 2.633675 26.448435 4.816353
v 2.633675 26.448435 4.685163
v 2.059033 26.412210 4.693634
v 0.854945 26.412210 5.005642
v 2.059033 26.412210 5.005642
v 0.854945 26.412210 4.693634
v 0.854945 26.683779 4.693634
v 0.854945 26.412210 5.005642
v 0.854945 26.412210 4.693634
v 0.854945 26.683779 5.190647
v 0.854945 26.683779 5.190647
v 2.059033 26.412210 5.005642
v 0.854945 26.412210 5.005642
v 2.059033 26.683779 5.190649
v 2.059033 26.683779 5.190649
v 2.059033 26.412210 4.693634
v 2.059033 26.412210 5.005642
v 2.059033 26.683779 4.693634
v -0.000002 39.653801 7.560189
v -0.079296 39.665627 4.289504
v -0.049886 39.682610 7.560189
v -0.000002 39.619843 4.289504
v 0.049883 39.682610 7.560189
v 0.079292 39.665627 4.289504
v 0.079292 39.665627 4.289504
v 0.049883 39.740204 7.560189
v 0.079292 39.757187 4.289504
v 0.049883 39.682610 7.560189
v -0.000002 39.769012 7.560189
v 0.079292 39.757187 4.289504
v 0.049883 39.740204 7.560189
v -0.000002 39.802963 4.289504
v -0.049886 39.740204 7.560189
v -0.079296 39.757187 4.289504
v -0.079296 39.757187 4.289504
v -0.049886 39.682610 7.560189
v -0.079296 39.665627 4.289504
v -0.049886 39.740204 7.560189
v -0.000002 39.802963 4.289504
v 0.079292 39.665627 4.289504
v 0.079292 39.757187 4.289504
v -0.079296 39.665627 4.289504
v -0.079296 39.757187 4.289504
v -0.000002 39.619843 4.289504
v -0.049886 39.740204 7.560189
v -0.000002 39.653801 7.560189
v -0.049886 39.682610 7.560189
v -0.000002 39.769012 7.560189
v 0.049883 39.682610 7.560189
v 0.049883 39.740204 7.560189
v -0.054464 38.802643 4.613496
v -0.024199 39.674187 6.562579
v -0.029562 38.763840 4.632325
v -0.043732 39.705009 6.548621
v -0.029565 38.841454 4.594666
v -0.024198 39.735832 6.534663
v -0.029562 38.763840 4.632325
v 0.014870 39.674187 6.562579
v 0.020236 38.763840 4.632325
v -0.024199 39.674187 6.562579
v 0.034403 39.705009 6.548620
v 0.020236 38.763840 4.632325
v 0.014870 39.674187 6.562579
v 0.045138 38.802643 4.613496
v 0.014868 39.735832 6.534663
v 0.020239 38.841454 4.594666
v 0.020239 38.841454 4.594666
v -0.024198 39.735832 6.534663
v -0.029565 38.841454 4.594666
v 0.014868 39.735832 6.534663
v -0.387926 26.947020 4.836414
v -0.387926 27.735102 4.693459
v -0.387926 27.735102 4.836414
v -0.387926 26.947020 4.693459
v 0.387775 26.947008 4.836414
v -0.387926 27.735102 4.836414
v 0.387775 27.735102 4.836414
v -0.387926 26.947020 4.836414
v 0.387775 27.735102 4.693459
v -0.387926 27.735102 4.836414
v -0.387926 27.735102 4.693459
v 0.387775 27.735102 4.836414
v 0.387775 26.947008 4.836414
v 0.387775 27.735102 4.693459
v 0.387775 26.947008 4.693459
v 0.387775 27.735102 4.836414
v 0.387775 26.947008 4.836414
v -0.387926 26.947020 4.693459
v -0.387926 26.947020 4.836414
v 0.387775 26.947008 4.693459
v 0.602859 11.509310 4.693118
v -0.601229 11.509310 5.005642
v -0.601229 11.509310 4.693116
v 0.000815 11.509310 5.210161
v 0.602859 11.509310 5.005643
v -0.601229 10.184032 4.693117
v -0.601229 11.509310 5.005642
v -0.601229 10.184032 5.005643
v -0.601229 11.509310 4.693116
v 0.000815 10.184032 5.210162
v -0.601229 11.509310 5.005642
v 0.000815 11.509310 5.210161
v -0.601229 10.184032 5.005643
v 0.602859 10.184032 5.005644
v 0.602859 11.509310 4.693118
v 0.602859 10.184032 4.693119
v 0.602859 11.509310 5.005643
v 0.000815 10.184032 5.210162
v -0.601229 10.184032 4.693117
v -0.601229 10.184032 5.005643
v 0.602859 10.184032 5.005644
v 0.602859 10.184032 4.693119
v 0.602859 10.184032 5.005644
v 0.000815 11.509310 5.210161
v 0.602859 11.509310 5.005643
v 0.000815 10.184032 5.210162
v 0.421441 30.877901 4.693117
v -0.419812 30.877901 5.005641
v -0.419812 30.877901 4.693116
v 0.421441 30.877901 5.005642
v -0.419812 29.161325 4.693117
v -0.419812 30.877901 5.005641
v -0.419812 29.161325 5.005642
v -0.419812 30.877901 4.693116
v 0.421441 29.161325 5.005643
v -0.419812 30.877901 5.005641
v 0.421441 30.877901 5.005642
v -0.419812 29.161325 5.005642
v 0.421441 29.161325 5.005643
v 0.421441 30.877901 4.693117
v 0.421441 29.161325 4.693118
v 0.421441 30.877901 5.005642
v 0.421441 29.161325 5.005643
v -0.419812 29.161325 4.693117
v -0.419812 29.161325 5.005642
v 0.421441 29.161325 4.693118
v 0.303031 27.348833 5.259660
v 0.245158 27.526949 5.338257
v 0.245158 27.526949 5.259659
v 0.303031 27.348833 5.338257
v 0.245156 27.170710 5.259660
v 0.245157 27.170710 5.338257
v 0.093642 27.637037 5.338260
v 0.245158 27.526949 5.259659
v 0.245158 27.526949 5.338257
v 0.093642 27.637037 5.259661
v -0.093643 27.637037 5.338260
v -0.093643 27.637037 5.259662
v -0.245159 27.526949 5.338260
v -0.245160 27.526949 5.259662
v -0.303034 27.348833 5.338260
v -0.245160 27.526949 5.259662
v -0.245159 27.526949 5.338260
v -0.303034 27.348833 5.259662
v -0.245161 27.170710 5.338260
v -0.245161 27.170710 5.259662
v -0.093644 27.060617 5.338260
v -0.245161 27.170710 5.259662
v -0.245161 27.170710 5.338260
v -0.093645 27.060617 5.259662
v 0.093640 27.060617 5.338260
v 0.093640 27.060617 5.259662
v 0.245157 27.170710 5.338257
v 0.245156 27.170710 5.259660
v -4.078640 9.899202 4.099891
v -3.949010 10.099979 4.493126
v -3.948979 9.899981 4.493106
v -4.084093 10.099195 4.088535
v -4.077582 9.842333 3.637889
v -4.086266 10.036009 3.574714
v -4.078709 9.604603 3.214438
v -4.087580 9.755371 3.074840
v -4.079423 9.199511 2.944167
v -4.088408 9.285780 2.761538
v -4.079810 8.717230 2.798050
v -4.088841 8.746836 2.598254
v -4.079809 5.000002 2.798050
v -4.088840 5.000002 2.598254
v -3.884207 10.100794 4.055895
v -3.775467 9.900015 4.380965
v -3.775498 10.100016 4.380985
v -3.878753 9.900801 4.067252
v -3.886454 10.044334 3.571617
v -3.877770 9.850658 3.634792
v -3.887776 9.761784 3.068370
v -3.878906 9.611015 3.207968
v -3.888610 9.289450 2.753237
v -3.879625 9.203180 2.935866
v -3.889044 8.748095 2.589223
v -3.880013 8.718489 2.789019
v -3.889043 5.000002 2.589223
v -3.880012 5.000002 2.789019
v -3.622463 10.099979 4.793478
v -3.948979 9.899981 4.493106
v -3.949010 10.099979 4.493126
v -3.622450 9.899981 4.793441
v -3.544457 9.900015 4.593441
v -3.775498 10.100016 4.380985
v -3.775467 9.900015 4.380965
v -3.544472 10.100016 4.593478
v -2.356007 10.099979 4.793478
v -3.622450 9.899981 4.793441
v -3.622463 10.099979 4.793478
v -2.356007 9.899981 4.793441
v -0.000001 10.099979 4.793478
v -0.000001 9.899981 4.793441
v 2.356005 10.099979 4.793478
v 2.356005 9.899981 4.793441
v 3.622462 10.099979 4.793478
v 3.622447 9.899981 4.793441
v -2.356007 9.900015 4.593441
v -3.544472 10.100016 4.593478
v -3.544457 9.900015 4.593441
v -2.356007 10.100016 4.593478
v -0.000001 9.900015 4.593441
v -0.000001 10.100016 4.593478
v 2.356005 9.900015 4.593441
v 2.356005 10.100016 4.593478
v 3.544456 9.900015 4.593441
v 3.544469 10.100016 4.593478
v 3.949008 10.099979 4.493126
v 3.622447 9.899981 4.793441
v 3.622462 10.099979 4.793478
v 3.948977 9.899981 4.493106
v 3.775465 9.900015 4.380965
v 3.544469 10.100016 4.593478
v 3.544456 9.900015 4.593441
v 3.775496 10.100016 4.380985
v 4.084090 10.099195 4.088535
v 3.948977 9.899981 4.493106
v 3.949008 10.099979 4.493126
v 4.078636 9.899202 4.099891
v 4.086263 10.036009 3.574714
v 4.077579 9.842333 3.637889
v 4.087576 9.755371 3.074840
v 4.078706 9.604603 3.214438
v 4.088405 9.285780 2.761539
v 4.079420 9.199511 2.944168
v 4.088838 8.746836 2.598254
v 4.079806 8.717230 2.798050
v 4.088837 5.000002 2.598254
v 4.079805 5.000002 2.798050
v 3.878751 9.900801 4.067252
v 3.775496 10.100016 4.380985
v 3.775465 9.900015 4.380965
v 3.884204 10.100794 4.055895
v 3.877769 9.850658 3.634792
v 3.886452 10.044334 3.571616
v 3.878904 9.611015 3.207968
v 3.887774 9.761784 3.068370
v 3.879623 9.203180 2.935867
v 3.888608 9.289450 2.753238
v 3.880011 8.718489 2.789019
v 3.889042 8.748095 2.589223
v 3.880010 5.000002 2.789019
v 3.889042 5.000002 2.589223
v 3.877769 9.850658 3.634792
v 4.078706 9.604603 3.214438
v 3.878904 9.611015 3.207968
v 4.077579 9.842333 3.637889
v 3.878751 9.900801 4.067252
v 4.078636 9.899202 4.099891
v 3.775465 9.900015 4.380965
v 3.948977 9.899981 4.493106
v 3.544456 9.900015 4.593441
v 3.622447 9.899981 4.793441
v 2.356005 9.900015 4.593441
v 2.356005 9.899981 4.793441
v -0.000001 9.900015 4.593441
v -0.000001 9.899981 4.793441
v -2.356007 9.900015 4.593441
v -2.356007 9.899981 4.793441
v -3.544457 9.900015 4.593441
v -3.622450 9.899981 4.793441
v -3.775467 9.900015 4.380965
v -3.948979 9.899981 4.493106
v -3.878753 9.900801 4.067252
v -4.078640 9.899202 4.099891
v -3.877770 9.850658 3.634792
v -4.077582 9.842333 3.637889
v -3.878906 9.611015 3.207968
v -4.078709 9.604603 3.214438
v 4.086263 10.036009 3.574714
v 3.887774 9.761784 3.068370
v 4.087576 9.755371 3.074840
v 3.886452 10.044334 3.571616
v 4.084090 10.099195 4.088535
v 3.884204 10.100794 4.055895
v 3.949008 10.099979 4.493126
v 3.775496 10.100016 4.380985
v 3.622462 10.099979 4.793478
v 3.544469 10.100016 4.593478
v 2.356005 10.099979 4.793478
v 2.356005 10.100016 4.593478
v -0.000001 10.099979 4.793478
v -0.000001 10.100016 4.593478
v -2.356007 10.099979 4.793478
v -2.356007 10.100016 4.593478
v -3.622463 10.099979 4.793478
v -3.544472 10.100016 4.593478
v -3.949010 10.099979 4.493126
v -3.775498 10.100016 4.380985
v -4.084093 10.099195 4.088535
v -3.884207 10.100794 4.055895
v -4.086266 10.036009 3.574714
v -3.886454 10.044334 3.571617
v -4.087580 9.755371 3.074840
v -3.887776 9.761784 3.068370
v 4.079420 9.199511 2.944168
v 3.878904 9.611015 3.207968
v 4.078706 9.604603 3.214438
v 3.879623 9.203180 2.935867
v 4.079806 8.717230 2.798050
v 3.880011 8.718489 2.789019
v 4.079805 5.000002 2.798050
v 3.880010 5.000002 2.789019
v 3.888608 9.289450 2.753238
v 4.087576 9.755371 3.074840
v 3.887774 9.761784 3.068370
v 4.088405 9.285780 2.761539
v 3.889042 8.748095 2.589223
v 4.088838 8.746836 2.598254
v 3.889042 5.000002 2.589223
v 4.088837 5.000002 2.598254
v -4.079810 8.717230 2.798050
v -3.880012 5.000002 2.789019
v -4.079809 5.000002 2.798050
v -3.880013 8.718489 2.789019
v -4.079423 9.199511 2.944167
v -3.879625 9.203180 2.935866
v -4.078709 9.604603 3.214438
v -3.878906 9.611015 3.207968
v -3.889044 8.748095 2.589223
v -4.088840 5.000002 2.598254
v -3.889043 5.000002 2.589223
v -4.088841 8.746836 2.598254
v -3.888610 9.289450 2.753237
v -4.088408 9.285780 2.761538
v -3.887776 9.761784 3.068370
v -4.087580 9.755371 3.074840
v -1.197939 28.426706 5.338257
v -1.255813 28.248587 5.338257
v -1.500971 28.426706 5.423565
v -1.255812 28.604830 5.338257
v -1.407329 28.138498 5.338260
v -1.407328 28.714914 5.338260
v -1.594614 28.138498 5.338260
v -1.594612 28.714914 5.338260
v -1.746130 28.248587 5.338260
v -1.746129 28.604830 5.338260
v -1.804004 28.426706 5.338260
v -2.633678 26.448435 4.816353
v -2.924162 26.237383 4.878358
v -2.813206 26.578867 4.816352
v -2.565104 26.237379 4.816353
v -3.035117 26.578867 4.816352
v -2.633678 26.026331 4.816353
v -3.214646 26.448431 4.816353
v -2.813207 25.895899 4.816354
v -3.283219 26.237379 4.816353
v -3.035117 25.895899 4.816354
v -3.214646 26.026331 4.816353
v 1.197935 28.426706 5.338257
v 1.500968 28.426706 5.423565
v 1.255809 28.248587 5.338257
v 1.255808 28.604830 5.338257
v 1.407326 28.138498 5.338260
v 1.407324 28.714914 5.338260
v 1.594610 28.138498 5.338260
v 1.594609 28.714914 5.338260
v 1.746127 28.248587 5.338260
v 1.746125 28.604830 5.338260
v 1.804000 28.426706 5.338260
v 2.633675 26.448435 4.816353
v 2.813204 26.578867 4.816352
v 2.924159 26.237383 4.878358
v 2.565101 26.237379 4.816353
v 3.035114 26.578867 4.816352
v 2.633675 26.026331 4.816353
v 3.214643 26.448431 4.816353
v 2.813204 25.895899 4.816354
v 3.283216 26.237379 4.816353
v 3.035114 25.895899 4.816354
v 3.214643 26.026331 4.816353
v 0.303031 27.348833 5.338257
v 0.245157 27.170710 5.338257
v -0.000002 27.348833 5.423565
v 0.245158 27.526949 5.338257
v 0.093640 27.060617 5.338260
v 0.093642 27.637037 5.338260
v -0.093644 27.060617 5.338260
v -0.093643 27.637037 5.338260
v -0.245161 27.170710 5.338260
v -0.245159 27.526949 5.338260
v -0.303034 27.348833 5.338260
v -1.306527 28.426706 5.170986
v -1.255812 28.604830 5.259659
v -1.343663 28.540987 5.170989
v -1.197939 28.426706 5.259660
v -1.407328 28.714914 5.259661
v -1.343663 28.312426 5.170988
v -1.440884 28.611635 5.170989
v -1.255813 28.248587 5.259660
v -1.594612 28.714914 5.259662
v -1.440885 28.241777 5.170988
v -1.561057 28.611635 5.170989
v -1.407329 28.138498 5.259662
v -1.746129 28.604830 5.259662
v -1.561058 28.241777 5.170989
v -1.658280 28.541010 5.170989
v -1.594614 28.138498 5.259662
v -1.804004 28.426706 5.259662
v -1.658280 28.312426 5.170989
v -1.695416 28.426706 5.170989
v -1.746130 28.248587 5.259662
v 1.255808 28.604830 5.259659
v 1.306524 28.426706 5.170986
v 1.343659 28.540987 5.170989
v 1.197935 28.426706 5.259660
v 1.407324 28.714914 5.259661
v 1.343660 28.312426 5.170988
v 1.440880 28.611635 5.170989
v 1.255810 28.248587 5.259660
v 1.594609 28.714914 5.259662
v 1.440881 28.241777 5.170988
v 1.561054 28.611635 5.170989
v 1.407326 28.138498 5.259662
v 1.746126 28.604830 5.259662
v 1.561055 28.241777 5.170989
v 1.658276 28.541010 5.170989
v 1.594611 28.138498 5.259662
v 1.804000 28.426706 5.259662
v 1.658277 28.312426 5.170989
v 1.695412 28.426706 5.170989
v 1.746127 28.248587 5.259662
v 0.194442 27.348833 5.170986
v 0.245158 27.526949 5.259659
v 0.157307 27.463114 5.170989
v 0.303031 27.348833 5.259660
v 0.093642 27.637037 5.259661
v 0.157306 27.234552 5.170988
v 0.060086 27.533754 5.170989
v 0.245156 27.170710 5.259660
v -0.093643 27.637037 5.259662
v 0.060085 27.163904 5.170988
v -0.060088 27.533754 5.170989
v 0.093640 27.060617 5.259662
v -0.245160 27.526949 5.259662
v -0.060089 27.163904 5.170989
v -0.157310 27.463129 5.170989
v -0.093645 27.060617 5.259662
v -0.303034 27.348833 5.259662
v -0.157311 27.234552 5.170989
v -0.194446 27.348833 5.170989
v -0.245161 27.170710 5.259662
vn -0.0000 0.9397 -0.3420
vn -1.0000 -0.0000 -0.0000
vn -0.0001 -0.9398 0.3417
vn -0.0098 -0.9397 0.3420
vn -0.0003 -0.9398 0.3417
vn -0.0100 -0.9397 0.3420
vn -0.0000 -0.9397 0.3420
vn 1.0000 -0.0000 -0.0000
vn -0.0000 -1.0000 -0.0000
vn -0.9740 -0.0000 0.2267
vn -0.9538 -0.0000 0.3006
vn -0.8178 -0.0000 0.5755
vn -0.8177 -0.0000 0.5756
vn -0.4764 -0.0000 0.8792
vn -0.1832 -0.0000 0.9831
vn -0.0623 -0.0000 0.9981
vn -0.0000 -0.0000 1.0000
vn 0.0623 -0.0000 0.9981
vn 0.1832 -0.0000 0.9831
vn 0.4764 -0.0000 0.8792
vn 0.8177 -0.0000 0.5756
vn -0.0000 -0.0000 -1.0000
vn -0.0000 1.0000 -0.0000
vn -0.0873 -0.9962 -0.0002
vn -0.0871 -0.9962 -0.0001
vn -0.0872 -0.9962 -0.0000
vn -0.0871 -0.9962 -0.0000
vn -0.0871 -0.9962 0.0001
vn -0.0870 -0.9962 -0.0003
vn -0.3556 0.7479 0.5604
vn 0.4801 0.6749 0.5604
vn -0.3321 0.8714 0.3611
vn 0.4785 0.8005 0.3610
vn -0.8681 0.4673 0.1677
vn -0.3557 0.7479 0.5604
vn -0.8609 0.4063 0.3062
vn -0.3282 0.4523 0.8293
vn -0.8259 0.2898 0.4837
vn -0.9560 0.1564 0.2481
vn -0.8009 0.1775 0.5718
vn -0.7915 0.1245 0.5984
vn 0.4017 0.3884 0.8293
vn 0.8637 0.1420 0.4837
vn 0.4801 0.6748 0.5604
vn 0.9184 0.2506 0.3062
vn 0.9360 0.3094 0.1677
vn 0.9687 -0.0120 0.2481
vn 0.8196 0.0357 0.5718
vn 0.8011 -0.0149 0.5984
vn -0.3556 0.7479 0.5605
vn -0.3281 0.4523 0.8293
vn 0.3358 0.1642 0.9275
vn 0.8196 0.0357 0.5719
vn 0.8636 0.1421 0.4837
vn 0.8010 -0.0148 0.5985
vn 0.3091 0.0606 0.9491
vn -0.3022 0.2200 0.9275
vn -0.8258 0.2898 0.4838
vn -0.2939 0.1133 0.9491
vn -0.8009 0.1775 0.5719
vn -0.7914 0.1245 0.5985
vn -0.0870 -0.9962 -0.0001
vn -0.0872 -0.9962 -0.0001
vn -0.0873 -0.9962 -0.0001
vn 0.9474 -0.0829 -0.3090
vn 0.8060 -0.0705 -0.5878
vn 0.8060 -0.0706 -0.5877
vn 0.8059 -0.0705 -0.5878
vn 0.3078 -0.0269 -0.9511
vn -0.3079 0.0269 -0.9510
vn -0.3078 0.0269 -0.9511
vn -0.8059 0.0705 -0.5878
vn -0.8060 0.0706 -0.5877
vn -0.9474 0.0829 -0.3090
vn -0.8060 0.0705 -0.5878
vn 0.8091 0.5877 -0.0000
vn 0.8091 -0.5877 -0.0000
vn 0.8090 0.5878 -0.0000
vn 0.3090 0.9511 -0.0000
vn -0.3090 0.9511 -0.0000
vn -0.8090 0.5878 -0.0000
vn -0.8091 0.5877 -0.0000
vn -0.8091 -0.5877 -0.0000
vn -0.8090 -0.5878 -0.0000
vn -0.3090 -0.9511 -0.0000
vn 0.3090 -0.9511 -0.0000
vn 0.8090 -0.5878 -0.0000
vn 0.9486 -0.2208 0.2265
vn 0.9115 -0.3438 0.2258
vn 0.9456 -0.2351 0.2251
vn 0.9708 0.0225 0.2387
vn 0.9699 0.0253 0.2421
vn 0.8924 0.3744 0.2519
vn 0.8902 0.3775 0.2552
vn 0.4376 0.8552 0.2777
vn 0.4345 0.8562 0.2795
vn -0.4389 0.8540 0.2795
vn -0.8918 0.3736 0.2553
vn -0.4367 0.8556 0.2779
vn -0.8912 0.3773 0.2519
vn -0.9700 0.0223 0.2422
vn -0.9708 0.0251 0.2387
vn -0.9457 -0.2330 0.2266
vn -0.9496 -0.2185 0.2247
vn -0.9115 -0.3438 0.2258
vn 0.4376 0.8552 0.2778
vn -0.4389 0.8539 0.2795
vn 0.4344 0.8562 0.2795
vn -0.4367 0.8556 0.2778
vn -0.0346 -0.1163 0.9926
vn -0.0735 -0.2746 0.9588
vn -0.0381 -0.1303 0.9907
vn -0.0000 0.0240 0.9997
vn 0.0381 -0.1303 0.9907
vn 0.0346 -0.1163 0.9926
vn 0.0735 -0.2746 0.9588
vn -0.0000 -0.5680 0.8230
vn -0.0000 -0.5630 0.8264
vn 0.0100 -0.9397 0.3420
vn 0.0098 -0.9397 0.3420
vn 0.0003 -0.9398 0.3417
vn 0.0001 -0.9398 0.3417
vn 0.9740 -0.0000 0.2267
vn 0.9538 -0.0000 0.3006
vn 0.8178 -0.0000 0.5755
vn 0.0870 -0.9962 -0.0003
vn 0.0871 -0.9962 -0.0001
vn 0.0871 -0.9962 -0.0000
vn 0.0872 -0.9962 -0.0000
vn 0.0871 -0.9962 0.0001
vn 0.0873 -0.9962 -0.0002
vn -0.4785 0.8005 0.3610
vn -0.4801 0.6749 0.5604
vn 0.3321 0.8714 0.3611
vn 0.3556 0.7479 0.5604
vn 0.3321 0.8714 0.3610
vn 0.3556 0.7479 0.5605
vn 0.8681 0.4673 0.1677
vn 0.8609 0.4063 0.3062
vn 0.3282 0.4523 0.8293
vn 0.8259 0.2898 0.4837
vn 0.9560 0.1564 0.2481
vn 0.8009 0.1774 0.5718
vn 0.7914 0.1245 0.5984
vn -0.4017 0.3884 0.8293
vn -0.4801 0.6748 0.5604
vn -0.8637 0.1420 0.4837
vn -0.9184 0.2506 0.3062
vn -0.9360 0.3094 0.1677
vn -0.9687 -0.0120 0.2481
vn -0.8196 0.0357 0.5718
vn -0.8011 -0.0149 0.5984
vn 0.3281 0.4523 0.8293
vn -0.3358 0.1642 0.9275
vn -0.8196 0.0357 0.5719
vn -0.8636 0.1421 0.4837
vn -0.8010 -0.0148 0.5985
vn -0.3091 0.0606 0.9491
vn 0.3022 0.2200 0.9275
vn 0.8258 0.2899 0.4838
vn 0.2939 0.1133 0.9491
vn 0.8009 0.1774 0.5719
vn 0.7914 0.1245 0.5985
vn 0.0870 -0.9962 -0.0001
vn 0.0872 -0.9962 -0.0001
vn 0.0873 -0.9962 -0.0001
vn -0.8060 -0.0705 -0.5877
vn -0.8059 -0.0706 -0.5878
vn -0.9474 -0.0829 -0.3090
vn -0.8059 -0.0705 -0.5878
vn -0.3078 -0.0269 -0.9511
vn 0.3079 0.0269 -0.9510
vn 0.3078 0.0269 -0.9511
vn 0.8059 0.0705 -0.5878
vn 0.9474 0.0829 -0.3090
vn 0.8060 0.0705 -0.5877
vn -0.8091 -0.5877 -0.0001
vn 0.3090 -0.9510 -0.0000
vn -0.8090 -0.5878 0.0001
vn -0.9115 -0.3437 0.2258
vn -0.9486 -0.2208 0.2265
vn -0.9456 -0.2351 0.2251
vn -0.9708 0.0225 0.2387
vn -0.9699 0.0253 0.2421
vn -0.8924 0.3744 0.2519
vn -0.8902 0.3775 0.2552
vn -0.4376 0.8552 0.2777
vn -0.4345 0.8562 0.2795
vn 0.4389 0.8540 0.2795
vn 0.4367 0.8556 0.2778
vn 0.8918 0.3736 0.2553
vn 0.8912 0.3773 0.2519
vn 0.9700 0.0223 0.2422
vn 0.9708 0.0251 0.2387
vn 0.9457 -0.2330 0.2266
vn 0.9496 -0.2185 0.2247
vn 0.4389 0.8539 0.2795
vn -0.4344 0.8562 0.2795
vn -0.4376 0.8552 0.2778
vn -0.8660 -0.4999 0.0104
vn -0.0000 -0.9999 0.0104
vn 0.8661 -0.4998 0.0104
vn 0.8660 -0.5000 0.0104
vn 0.8660 0.5000 0.0104
vn 0.8660 0.4999 0.0104
vn 0.8660 -0.4999 0.0104
vn 0.8661 0.4998 0.0104
vn 0.8659 0.5000 0.0104
vn -0.0000 0.9999 0.0104
vn -0.8660 0.4999 0.0103
vn -0.8660 0.5000 0.0104
vn -0.8660 -0.5000 0.0104
vn -0.8660 0.4999 0.0104
vn -0.5022 -0.7816 0.3700
vn -0.5015 -0.7820 0.3702
vn -1.0000 0.0065 0.0025
vn -1.0000 0.0052 0.0031
vn -0.4979 0.7881 -0.3620
vn -0.4986 0.7877 -0.3618
vn 0.5021 -0.7817 0.3700
vn 0.5016 -0.7819 0.3702
vn -0.5021 -0.7816 0.3701
vn -0.5014 -0.7820 0.3702
vn 0.5014 -0.7820 0.3702
vn 0.5022 -0.7816 0.3700
vn 1.0000 0.0053 0.0031
vn 1.0000 0.0066 0.0025
vn 0.4984 0.7878 -0.3618
vn 0.4979 0.7881 -0.3620
vn -0.4978 0.7881 -0.3620
vn -0.4985 0.7878 -0.3618
vn 0.4978 0.7881 -0.3620
vn 0.4985 0.7878 -0.3618
vn -0.3217 -0.0000 0.9469
vn 0.3217 -0.0000 0.9469
vn 0.3090 0.9510 -0.0000
vn -0.3091 -0.9510 -0.0000
vn -0.8405 -0.0002 0.5419
vn -0.8400 -0.0013 0.5426
vn -0.9869 -0.0167 0.1602
vn -0.9865 -0.0197 0.1623
vn -0.9992 -0.0378 0.0155
vn -0.9991 -0.0394 0.0164
vn -0.9991 -0.0303 0.0307
vn -0.9990 -0.0180 0.0407
vn -0.9990 -0.0062 0.0442
vn -0.9990 -0.0000 0.0452
vn 0.8393 0.0002 -0.5436
vn 0.8396 0.0034 -0.5433
vn 0.9865 0.0163 -0.1627
vn 0.9866 0.0198 -0.1619
vn 0.9992 0.0380 -0.0139
vn 0.9991 0.0405 -0.0131
vn 0.9991 0.0303 -0.0307
vn 0.9990 0.0180 -0.0407
vn 0.9990 0.0062 -0.0442
vn 0.9990 -0.0000 -0.0452
vn -0.8404 -0.0002 0.5419
vn -0.6770 -0.0002 0.7360
vn 0.8395 0.0016 -0.5433
vn 0.8393 0.0002 -0.5437
vn 0.6770 0.0002 -0.7360
vn -0.0000 -0.0002 1.0000
vn -0.0000 0.0002 -1.0000
vn 0.6770 -0.0002 0.7360
vn 0.8392 -0.0002 0.5438
vn 0.8397 -0.0013 0.5430
vn -0.6770 0.0002 -0.7360
vn -0.8404 0.0002 -0.5420
vn -0.8401 0.0015 -0.5424
vn 0.8393 -0.0002 0.5437
vn 0.9865 -0.0165 0.1631
vn 0.9867 -0.0197 0.1616
vn 0.9992 -0.0381 0.0139
vn 0.9991 -0.0404 0.0133
vn 0.9991 -0.0303 0.0307
vn 0.9990 -0.0180 0.0407
vn 0.9990 -0.0062 0.0442
vn 0.9990 -0.0000 0.0452
vn -0.8404 0.0002 -0.5419
vn -0.8402 0.0033 -0.5423
vn -0.9869 0.0164 -0.1606
vn -0.9866 0.0198 -0.1620
vn -0.9992 0.0377 -0.0155
vn -0.9991 0.0394 -0.0165
vn -0.9991 0.0303 -0.0307
vn -0.9990 0.0180 -0.0407
vn -0.9990 0.0062 -0.0442
vn -0.9990 -0.0000 -0.0452
vn -0.0455 -0.7331 0.6786
vn -0.0432 -0.7331 0.6787
vn -0.0444 -0.9503 0.3083
vn -0.0422 -0.9502 0.3088
vn -0.0195 -0.9981 0.0580
vn -0.0165 -0.9981 0.0598
vn -0.0015 -1.0000 -0.0002
vn -0.0007 -1.0000 0.0007
vn -0.0001 -1.0000 -0.0001
vn -0.0000 -1.0000 -0.0002
vn 0.0001 -1.0000 -0.0001
vn -0.0005 -1.0000 -0.0011
vn 0.0011 -1.0000 -0.0008
vn 0.0161 -0.9982 0.0573
vn 0.0197 -0.9981 0.0583
vn 0.0422 -0.9495 0.3108
vn 0.0444 -0.9493 0.3112
vn 0.0432 -0.7331 0.6787
vn 0.0455 -0.7331 0.6786
vn 0.0455 0.7330 -0.6787
vn 0.0444 0.9492 -0.3114
vn 0.0424 0.9497 -0.3104
vn 0.0195 0.9981 -0.0585
vn 0.0161 0.9982 -0.0573
vn 0.0011 1.0000 0.0008
vn -0.0005 1.0000 0.0011
vn 0.0001 1.0000 0.0002
vn -0.0000 1.0000 0.0002
vn -0.0001 1.0000 0.0002
vn -0.0007 1.0000 -0.0007
vn -0.0015 1.0000 0.0002
vn -0.0165 0.9981 -0.0599
vn -0.0193 0.9981 -0.0578
vn -0.0424 0.9501 -0.3092
vn -0.0444 0.9503 -0.3080
vn -0.0455 0.7331 -0.6786
vn -0.0455 -0.7330 0.6787
vn -0.0431 -0.7330 0.6788
vn -0.0454 -0.4267 0.9033
vn -0.0456 -0.1464 0.9882
vn -0.0452 -0.0000 0.9990
vn 0.0454 0.4267 -0.9033
vn 0.0456 0.1464 -0.9882
vn 0.0452 -0.0000 -0.9990
vn 0.0452 -0.0000 0.9990
vn 0.0456 -0.1464 0.9882
vn 0.0454 -0.4267 0.9033
vn 0.0431 -0.7331 0.6788
vn 0.0455 -0.7330 0.6787
vn -0.0452 -0.0000 -0.9990
vn -0.0456 0.1464 -0.9882
vn -0.0454 0.4267 -0.9033
vn -0.0455 0.7330 -0.6787
vn 0.2192 -0.1593 0.9626
vn 0.2710 -0.0000 0.9626
vn 0.2192 0.1593 0.9626
vn 0.0837 -0.2577 0.9626
vn 0.0837 0.2577 0.9626
vn -0.0837 -0.2577 0.9626
vn -0.0837 0.2577 0.9626
vn -0.2192 -0.1593 0.9626
vn -0.2192 0.1593 0.9626
vn -0.2710 -0.0000 0.9626
vn 0.0526 0.1618 0.9854
vn 0.1377 0.1000 0.9854
vn 0.1702 -0.0000 0.9854
vn -0.0526 0.1618 0.9854
vn 0.1377 -0.1000 0.9854
vn -0.1377 0.1000 0.9854
vn 0.0526 -0.1618 0.9854
vn -0.1702 -0.0000 0.9854
vn -0.0526 -0.1618 0.9854
vn -0.1377 -0.1000 0.9854
vn 0.7399 0.5375 -0.4046
vn 0.5117 0.3718 -0.7746
vn 0.9145 -0.0000 -0.4046
vn 0.6325 -0.0000 -0.7746
vn 0.1955 0.6015 -0.7746
vn 0.7398 -0.5375 -0.4046
vn 0.2827 0.8697 -0.4046
vn 0.5117 -0.3718 -0.7746
vn -0.1954 0.6015 -0.7746
vn 0.2826 -0.8697 -0.4046
vn -0.2826 0.8698 -0.4046
vn 0.1955 -0.6015 -0.7746
vn -0.5117 0.3718 -0.7746
vn -0.2826 -0.8697 -0.4046
vn -0.7398 0.5375 -0.4046
vn -0.1955 -0.6015 -0.7746
vn -0.6325 -0.0000 -0.7746
vn -0.7399 -0.5375 -0.4046
vn -0.9145 -0.0000 -0.4046
vn -0.5117 -0.3718 -0.7746
vn -0.1955 0.6015 -0.7746
vn -0.7398 -0.5375 -0.4046
vn -0.2826 0.8697 -0.4046
vn 0.1954 0.6015 -0.7746
vn 0.2826 0.8697 -0.4046
vn 0.7398 0.5375 -0.4046
vn 0.7399 -0.5375 -0.4046
vn 0.2826 -0.8697 -0.4047
vn 0.1954 -0.6015 -0.7746
vt 0.549432 0.196153
vt 0.549432 0.231320
vt 0.548322 0.196153
vt 0.548322 0.231320
vt -11.384098 0.196153
vt -11.396472 0.231320
vt -11.387505 0.196153
vt -11.399878 0.231320
vt 0.451678 0.196153
vt 0.451678 0.231320
vt 0.450568 0.196153
vt 0.450568 0.231320
vt 0.560744 0.196153
vt 0.560744 0.231320
vt 0.559635 0.196153
vt 0.559635 0.231320
vt 0.440365 0.196153
vt 0.440365 0.231320
vt 0.439256 0.196153
vt 0.439256 0.231320
vt 12.384098 0.196153
vt 12.387505 0.196153
vt 12.396472 0.231320
vt 12.399878 0.231320
vt 12.396461 0.231320
vt 0.423834 0.222895
vt 0.500035 0.222895
vt 0.426057 0.232323
vt 0.428862 0.239217
vt 0.434509 0.244167
vt 0.442995 0.246460
vt 0.470956 0.249269
vt 0.500035 0.249936
vt 0.529115 0.249269
vt 0.557076 0.246460
vt 0.565562 0.244167
vt 0.571209 0.239217
vt 0.574013 0.232323
vt 0.576236 0.222895
vt -11.556593 0.222895
vt -11.554420 0.222895
vt -11.556593 0.232323
vt -11.554420 0.232323
vt -11.556593 0.239217
vt -11.554420 0.239217
vt 0.571138 -11.556593
vt 0.571138 -11.554420
vt 0.565491 -11.556593
vt 0.565491 -11.554420
vt 0.557005 -11.556593
vt 0.557005 -11.554420
vt 0.529044 -11.554420
vt 0.529044 -11.556593
vt 0.499965 -11.554420
vt 0.499965 -11.556593
vt 0.470885 -11.556593
vt 0.470885 -11.554420
vt 0.442924 -11.556593
vt 0.442924 -11.554420
vt 0.434438 -11.554420
vt 0.434438 -11.556593
vt 0.428791 -11.554420
vt 0.428791 -11.556593
vt 0.423834 -11.554420
vt 0.423834 -11.556593
vt 0.500035 -11.554420
vt 0.500035 -11.556593
vt 0.576236 -11.556593
vt 0.576236 -11.554420
vt 0.499965 0.222895
vt 0.576166 0.222895
vt 0.573943 0.232323
vt 0.571138 0.239217
vt 0.565491 0.244167
vt 0.557005 0.246460
vt 0.529044 0.249269
vt 0.499965 0.249936
vt 0.470885 0.249269
vt 0.442924 0.246460
vt 0.434438 0.244167
vt 0.428791 0.239217
vt 0.425986 0.232323
vt 0.423764 0.222895
vt 0.469797 0.236055
vt 0.467775 0.237511
vt 0.470570 0.233699
vt 0.463252 0.236055
vt 0.462480 0.233699
vt 0.465275 0.237511
vt 0.534875 0.235774
vt 0.531319 0.235774
vt 0.534796 0.233699
vt 0.531240 0.233699
vt -11.629703 0.233699
vt -11.625628 0.233699
vt -11.628842 0.235774
vt -11.625097 0.234981
vt -11.626394 0.237532
vt -11.623584 0.236068
vt -11.618740 0.233699
vt -11.621319 0.236794
vt -11.618648 0.237050
vt 12.626098 0.237532
vt 12.622807 0.236068
vt 12.628546 0.235774
vt 12.624320 0.234981
vt 12.629405 0.233699
vt 12.624851 0.233699
vt 12.617779 0.233699
vt 12.620542 0.236794
vt 12.617870 0.237050
vt 0.531319 -11.628546
vt 0.534875 -11.628842
vt 0.531544 -11.626098
vt 0.535099 -11.626394
vt 0.531880 -11.622433
vt 0.529155 -11.620542
vt 0.528947 -11.622807
vt 0.529399 -11.617870
vt 0.532276 -11.618111
vt 0.535435 -11.622730
vt 0.538255 -11.623584
vt 0.535831 -11.618407
vt 0.538463 -11.621319
vt 0.538708 -11.618648
vt 0.461901 0.233699
vt 0.462674 0.236055
vt 0.460194 0.233699
vt 0.461292 0.237050
vt 0.464696 0.237511
vt 0.464169 0.239120
vt 0.467196 0.237511
vt 0.467724 0.239120
vt 0.469219 0.236055
vt 0.470601 0.237050
vt 0.469992 0.233699
vt 0.471699 0.233699
vt 12.624907 0.233699
vt 12.624844 0.236055
vt 12.618597 0.233699
vt 12.618533 0.236055
vt 0.463252 -11.624844
vt 0.465275 -11.624675
vt 0.462674 -11.618533
vt 0.464696 -11.618363
vt 0.467775 -11.624466
vt 0.467196 -11.618155
vt 0.469797 -11.624297
vt 0.469219 -11.617986
vt -11.624297 0.236055
vt -11.624232 0.233699
vt -11.617986 0.236055
vt -11.617922 0.233699
vt 12.589361 0.244426
vt 12.589361 0.245905
vt 12.586122 0.244426
vt 12.586122 0.245905
vt 12.582882 0.244426
vt 12.582882 0.245905
vt 0.523896 0.245905
vt 0.523896 0.244426
vt 0.526784 0.245905
vt 0.526784 0.244426
vt 0.530353 0.245905
vt 0.530353 0.244426
vt 0.533240 0.245905
vt 0.533240 0.244426
vt -11.589361 0.245905
vt -11.589361 0.244426
vt -11.586122 0.245905
vt -11.586122 0.244426
vt -11.582882 0.245905
vt -11.582882 0.244426
vt 0.466760 0.245905
vt 0.466760 0.244426
vt 0.469647 0.245905
vt 0.469647 0.244426
vt 0.473216 0.245905
vt 0.473216 0.244426
vt 0.476104 0.245905
vt 0.476104 0.244426
vt 0.545691 -11.595055
vt 0.545691 -11.577188
vt 0.499964 -11.595055
vt 0.499964 -11.577188
vt 0.454238 -11.577188
vt 0.454238 -11.595055
vt 0.454309 0.233775
vt 0.500036 0.233775
vt 0.454309 0.236464
vt 0.500036 0.236464
vt 0.545762 0.236464
vt 0.545762 0.233775
vt 0.516926 -11.582229
vt 0.512527 -11.582229
vt 0.516926 -11.590601
vt 0.512527 -11.590601
vt -11.590601 0.239325
vt -11.590601 0.235894
vt -11.582229 0.239325
vt -11.582229 0.235894
vt 0.483074 0.239325
vt 0.483074 0.235894
vt 0.487473 0.239325
vt 0.487473 0.235894
vt 12.582229 0.239325
vt 12.582229 0.235894
vt 12.590601 0.239325
vt 12.590601 0.235894
vt 0.512527 0.239325
vt 0.512527 0.235894
vt 0.516926 0.239325
vt 0.516926 0.235894
vt 0.516925 -11.599483
vt 0.512527 -11.599483
vt 0.516925 -11.607856
vt 0.512527 -11.607856
vt -11.607856 0.238581
vt -11.607856 0.233775
vt -11.599483 0.238581
vt -11.599483 0.233775
vt 0.483075 0.238581
vt 0.483075 0.233775
vt 0.487473 0.238581
vt 0.487473 0.233775
vt 12.599483 0.238581
vt 12.599483 0.233775
vt 12.607856 0.238581
vt 12.607856 0.233775
vt 0.512527 0.238581
vt 0.512527 0.233775
vt 0.516925 0.238581
vt 0.516925 0.233775
vt 0.545691 0.233775
vt 0.545691 0.236464
vt 0.499964 0.233775
vt 0.499964 0.236464
vt 0.454238 0.236464
vt 0.454238 0.233775
vt -11.595055 0.233775
vt -11.577188 0.233775
vt -11.595055 0.236464
vt -11.577188 0.236464
vt 12.689621 0.236520
vt 12.681044 0.233775
vt 12.689420 0.233775
vt 12.699203 0.233775
vt 12.699242 0.236281
vt 12.706333 0.233775
vt 12.706145 0.236109
vt 12.710741 0.233775
vt 12.710191 0.236009
vt -11.710741 0.233775
vt -11.706333 0.233775
vt -11.710191 0.236009
vt -11.706145 0.236109
vt -11.699203 0.233775
vt -11.699242 0.236281
vt -11.689420 0.233775
vt -11.689621 0.236520
vt -11.681043 0.233775
vt 0.518321 0.233775
vt 0.522448 0.233775
vt 0.518640 0.236009
vt 0.522129 0.236009
vt 0.516621 -11.689863
vt 0.518293 -11.681044
vt 0.515593 -11.689621
vt 0.514338 -11.699242
vt 0.515887 -11.699219
vt 0.515574 -11.706145
vt 0.517505 -11.705746
vt 0.518640 -11.710191
vt 0.519177 -11.707102
vt 0.522129 -11.710191
vt 0.521592 -11.707102
vt 0.525196 -11.706145
vt 0.523264 -11.705746
vt 0.526431 -11.699242
vt 0.524882 -11.699219
vt 0.525176 -11.689621
vt 0.524148 -11.689863
vt 0.522476 -11.681043
vt -11.543549 0.237467
vt -11.554420 0.245227
vt -11.543549 0.222895
vt 0.542628 -11.554420
vt 0.544891 -11.554420
vt 0.542628 -11.543549
vt 0.544891 -11.543549
vt 12.543549 0.222895
vt 12.554420 0.222895
vt 12.543549 0.237467
vt 12.554420 0.245227
vt 0.455109 0.237467
vt 0.455109 0.222895
vt 0.457372 0.237467
vt 0.457372 0.222895
vt 12.550139 0.236087
vt 12.546300 0.236087
vt 12.550139 0.233619
vt 12.546300 0.233619
vt 12.542461 0.236087
vt 12.542461 0.233619
vt 0.449846 0.236087
vt 0.446425 0.236087
vt 0.449846 0.233619
vt 0.446425 0.233619
vt 0.442196 0.236087
vt 0.442196 0.233619
vt 0.438775 0.236087
vt 0.438775 0.233619
vt -11.542461 0.236087
vt -11.546300 0.236087
vt -11.542461 0.233619
vt -11.546300 0.233619
vt -11.550139 0.236087
vt -11.550139 0.233619
vt 0.561225 0.236087
vt 0.557804 0.236087
vt 0.561225 0.233619
vt 0.557804 0.233619
vt 0.553575 0.236087
vt 0.553575 0.233619
vt 0.550154 0.236087
vt 0.550154 0.233619
vt 0.483743 0.233778
vt 0.483743 0.239648
vt 0.460797 0.233778
vt 0.460797 0.239648
vt 12.554420 0.243128
vt 12.549480 0.239648
vt 12.554420 0.233778
vt 12.549480 0.233778
vt 0.539203 -11.554420
vt 0.539203 -11.549480
vt 0.516257 -11.554420
vt 0.516257 -11.549480
vt -11.554420 0.233778
vt -11.549480 0.233778
vt -11.554420 0.243128
vt -11.549480 0.239648
vt 0.451608 0.231320
vt 0.450498 0.231320
vt 0.451608 0.196153
vt 0.450498 0.196153
vt 0.549502 0.231320
vt 0.548392 0.231320
vt 0.549502 0.196153
vt 0.548392 0.196153
vt 0.440295 0.231320
vt 0.439186 0.231320
vt 0.440295 0.196153
vt 0.439186 0.196153
vt 0.560814 0.231320
vt 0.559705 0.231320
vt 0.560814 0.196153
vt 0.559705 0.196153
vt -11.396461 0.231320
vt 12.556593 0.222895
vt 12.556593 0.232323
vt 12.554420 0.222895
vt 12.554420 0.232323
vt 12.556593 0.239217
vt 12.554420 0.239217
vt 0.534796 0.237511
vt 0.532296 0.237511
vt 0.536819 0.236055
vt 0.529501 0.233699
vt 0.537592 0.233699
vt 0.530274 0.236055
vt 0.468688 0.233699
vt 0.468609 0.235774
vt 0.465133 0.233699
vt 0.465054 0.235774
vt 12.629703 0.233699
vt 12.628842 0.235774
vt 12.625628 0.233699
vt 12.625097 0.234981
vt 12.626394 0.237532
vt 12.623584 0.236068
vt 12.618740 0.233699
vt 12.621319 0.236794
vt 12.618648 0.237050
vt -11.626098 0.237532
vt -11.628546 0.235774
vt -11.622807 0.236068
vt -11.624320 0.234981
vt -11.629405 0.233699
vt -11.624851 0.233699
vt -11.617779 0.233699
vt -11.620542 0.236794
vt -11.617870 0.237050
vt 0.468609 -11.628546
vt 0.468385 -11.626098
vt 0.465054 -11.628842
vt 0.464829 -11.626394
vt 0.468049 -11.622433
vt 0.470774 -11.620542
vt 0.470982 -11.622807
vt 0.470529 -11.617870
vt 0.467653 -11.618111
vt 0.464494 -11.622730
vt 0.461673 -11.623584
vt 0.464097 -11.618407
vt 0.461466 -11.621319
vt 0.461221 -11.618648
vt 0.538170 0.233699
vt 0.539878 0.233699
vt 0.537398 0.236055
vt 0.538779 0.237050
vt 0.535375 0.237511
vt 0.535903 0.239120
vt 0.532875 0.237511
vt 0.532347 0.239120
vt 0.530852 0.236055
vt 0.529471 0.237050
vt 0.530080 0.233699
vt 0.528372 0.233699
vt -11.618533 0.236055
vt -11.624844 0.236055
vt -11.618597 0.233699
vt -11.624907 0.233699
vt 0.536819 -11.624844
vt 0.537398 -11.618533
vt 0.534796 -11.624675
vt 0.535375 -11.618363
vt 0.532296 -11.624466
vt 0.532875 -11.618155
vt 0.530274 -11.624297
vt 0.530852 -11.617986
vt 12.617922 0.233699
vt 12.624232 0.233699
vt 12.617986 0.236055
vt 12.624297 0.236055
vt -11.589361 0.244426
vt -11.586122 0.244426
vt -11.589361 0.245905
vt -11.582882 0.244426
vt 0.476033 0.245905
vt 0.473145 0.245905
vt 0.476033 0.244426
vt 0.473145 0.244426
vt 0.469576 0.245905
vt 0.469576 0.244426
vt 0.466689 0.245905
vt 0.466689 0.244426
vt 12.589361 0.245905
vt 12.589361 0.244426
vt 12.586122 0.244426
vt 12.582882 0.244426
vt 0.533311 0.245905
vt 0.530424 0.245905
vt 0.533311 0.244426
vt 0.530424 0.244426
vt 0.526855 0.245905
vt 0.526855 0.244426
vt 0.523967 0.245905
vt 0.523967 0.244426
vt 0.487402 -11.590601
vt 0.487402 -11.582229
vt 0.483003 -11.590601
vt 0.483003 -11.582229
vt 12.582229 0.239325
vt 12.590601 0.239325
vt 0.512598 0.235894
vt 0.516997 0.235894
vt 0.512598 0.239325
vt 0.516997 0.239325
vt -11.590601 0.239325
vt -11.582229 0.239325
vt 0.483003 0.235894
vt 0.487402 0.235894
vt 0.483003 0.239325
vt 0.487402 0.239325
vt 0.487402 -11.607856
vt 0.487402 -11.599483
vt 0.483003 -11.607856
vt 0.483003 -11.599483
vt 0.512598 0.233775
vt 0.516997 0.233775
vt 0.512598 0.238581
vt 0.516997 0.238581
vt 0.483003 0.233775
vt 0.487402 0.233775
vt 0.483003 0.238581
vt 0.487402 0.238581
vt 12.577188 0.236464
vt 12.577188 0.233775
vt 12.595055 0.236464
vt 12.595055 0.233775
vt -11.681044 0.233775
vt -11.689621 0.236520
vt -11.699242 0.236281
vt -11.706333 0.233775
vt -11.706145 0.236109
vt 12.706333 0.233775
vt 12.706145 0.236109
vt 12.699242 0.236281
vt 12.689621 0.236520
vt 12.681043 0.233775
vt 0.477799 0.236009
vt 0.477481 0.233775
vt 0.481288 0.236009
vt 0.481607 0.233775
vt 0.481635 -11.681044
vt 0.483307 -11.689863
vt 0.484335 -11.689621
vt 0.485590 -11.699242
vt 0.484041 -11.699219
vt 0.484355 -11.706145
vt 0.482423 -11.705746
vt 0.481288 -11.710191
vt 0.480751 -11.707102
vt 0.477799 -11.710191
vt 0.478336 -11.707102
vt 0.474733 -11.706145
vt 0.476664 -11.705746
vt 0.473497 -11.699242
vt 0.475046 -11.699219
vt 0.474752 -11.689621
vt 0.475780 -11.689863
vt 0.477452 -11.681043
vt 12.543549 0.222895
vt 0.455038 -11.543549
vt 0.455038 -11.554420
vt 0.457302 -11.543549
vt 0.457301 -11.554420
vt -11.554420 0.222895
vt -11.543549 0.222895
vt 0.542699 0.222895
vt 0.544962 0.222895
vt 0.542699 0.237467
vt 0.544962 0.237467
vt 0.550225 0.236087
vt 0.550225 0.233619
vt 0.553646 0.236087
vt 0.553646 0.233619
vt 0.557875 0.236087
vt 0.557875 0.233619
vt 0.561296 0.236087
vt 0.561296 0.233619
vt 0.438704 0.236087
vt 0.438704 0.233619
vt 0.442125 0.236087
vt 0.442125 0.233619
vt 0.446354 0.236087
vt 0.446354 0.233619
vt 0.449775 0.236087
vt 0.449775 0.233619
vt 0.539274 0.239648
vt 0.516328 0.239648
vt 0.539274 0.233778
vt 0.516328 0.233778
vt -11.554420 0.243128
vt 0.483672 -11.549480
vt 0.460726 -11.549480
vt 0.483672 -11.554420
vt 0.460726 -11.554420
vt 12.554420 0.243128
vt 0.499086 0.287705
vt 0.498525 0.226175
vt 0.500036 0.287705
vt 0.500036 0.226175
vt 0.500987 0.287705
vt 0.501547 0.226175
vt 12.792210 0.226175
vt 12.791901 0.287705
vt 12.790545 0.226175
vt 12.790854 0.287705
vt 0.499013 0.287705
vt 0.498453 0.226175
vt 0.499964 0.287705
vt 0.499964 0.226175
vt 0.500914 0.287705
vt 0.501475 0.226175
vt -11.790545 0.226175
vt -11.790854 0.287705
vt -11.792210 0.226175
vt -11.791901 0.287705
vt 0.501547 -11.792210
vt 0.501547 -11.790545
vt 0.500036 -11.793042
vt 0.498525 -11.790545
vt 0.498525 -11.792210
vt 0.500036 -11.789711
vt 0.500914 -11.790854
vt 0.499964 -11.790329
vt 0.500914 -11.791901
vt 0.499964 -11.792424
vt 0.499013 -11.790854
vt 0.499013 -11.791901
vt -11.774141 0.232625
vt -11.790700 0.268938
vt -11.774848 0.232270
vt -11.791261 0.268675
vt -11.775554 0.231916
vt -11.791821 0.268412
vt 0.500422 0.232625
vt 0.500320 0.268937
vt 0.499473 0.232625
vt 0.499575 0.268938
vt 12.790700 0.268937
vt 12.774141 0.232625
vt 12.791261 0.268675
vt 12.774848 0.232270
vt 12.791821 0.268412
vt 12.775554 0.231916
vt 0.500527 0.231916
vt 0.500425 0.268412
vt 0.499578 0.231916
vt 0.499680 0.268412
vt -11.573542 0.236464
vt -11.573542 0.233775
vt -11.559208 0.236464
vt -11.559208 0.233775
vt 0.492575 -11.573542
vt 0.507357 -11.573542
vt 0.492575 -11.559208
vt 0.507357 -11.559208
vt 0.507357 0.233775
vt 0.507357 0.236464
vt 0.492575 0.233775
vt 0.492575 0.236464
vt 12.559208 0.233775
vt 12.573542 0.233775
vt 12.559208 0.236464
vt 12.573542 0.236464
vt 0.492643 0.236464
vt 0.492643 0.233775
vt 0.507425 0.236464
vt 0.507425 0.233775
vt 0.511422 0.233768
vt 0.511422 0.239648
vt 0.488476 0.233768
vt 0.499949 0.243495
vt 0.488476 0.239648
vt -11.399819 0.239648
vt -11.423924 0.239648
vt -11.399819 0.233768
vt -11.423924 0.233768
vt 0.499949 -11.423924
vt 0.511422 -11.423924
vt 0.499949 -11.399819
vt 0.511422 -11.399819
vt 12.399819 0.233768
vt 12.423924 0.233768
vt 12.399819 0.239648
vt 12.423924 0.239648
vt 0.488578 0.239648
vt 0.488578 0.233768
vt 0.500051 0.243495
vt 0.511524 0.239648
vt 0.511524 0.233768
vt 0.488476 -11.423924
vt 0.488476 -11.399819
vt 0.507965 0.233768
vt 0.507965 0.239648
vt 0.491933 0.233768
vt 0.491933 0.239648
vt -11.599483 0.239648
vt -11.630706 0.239648
vt -11.599483 0.233768
vt -11.630706 0.233768
vt 0.491933 -11.630706
vt 0.507965 -11.630706
vt 0.491933 -11.599483
vt 0.507965 -11.599483
vt 12.599483 0.233768
vt 12.630706 0.233768
vt 12.599483 0.239648
vt 12.630706 0.239648
vt 0.492035 0.239648
vt 0.492035 0.233768
vt 0.508067 0.239648
vt 0.508067 0.233768
vt 12.569756 0.244426
vt 12.569756 0.245905
vt 12.566516 0.244426
vt 12.566516 0.245905
vt 12.563276 0.244426
vt 12.563276 0.245905
vt 0.495293 0.245905
vt 0.495293 0.244426
vt 0.498180 0.245905
vt 0.498180 0.244426
vt 0.501749 0.245905
vt 0.501749 0.244426
vt 0.504636 0.245905
vt 0.504636 0.244426
vt -11.569756 0.245905
vt -11.569756 0.244426
vt -11.566516 0.245905
vt -11.566516 0.244426
vt -11.563276 0.245905
vt -11.563276 0.244426
vt 0.495364 0.245905
vt 0.495364 0.244426
vt 0.498251 0.245905
vt 0.498251 0.244426
vt 0.501820 0.245905
vt 0.501820 0.244426
vt 0.504707 0.245905
vt 0.504707 0.244426
vt -11.394652 0.230005
vt -11.398291 0.230006
vt -11.394639 0.222608
vt -11.398276 0.222394
vt -11.393604 0.213917
vt -11.397127 0.212728
vt -11.389280 0.205950
vt -11.392022 0.203324
vt -11.381912 0.200866
vt -11.383481 0.197430
vt -11.373140 0.198117
vt -11.373678 0.194358
vt -11.305528 0.198117
vt -11.305528 0.194358
vt 12.398292 0.227896
vt 12.394653 0.227896
vt 12.398305 0.221780
vt 12.394668 0.221994
vt 12.397279 0.212670
vt 12.393756 0.213858
vt 12.392139 0.203202
vt 12.389397 0.205829
vt 12.383548 0.197274
vt 12.381979 0.200710
vt 12.373701 0.194189
vt 12.373163 0.197947
vt 12.305528 0.194189
vt 12.305528 0.197947
vt 0.575220 -11.398291
vt 0.575220 -11.394652
vt 0.568998 -11.398291
vt 0.568997 -11.394652
vt 0.428087 -11.394653
vt 0.428086 -11.398292
vt 0.432489 -11.394653
vt 0.432489 -11.398292
vt 0.544863 -11.398291
vt 0.544863 -11.394652
vt 0.499965 -11.398291
vt 0.499965 -11.394652
vt 0.455067 -11.398291
vt 0.455067 -11.394652
vt 0.430932 -11.398291
vt 0.430933 -11.394652
vt 0.455137 -11.394653
vt 0.455137 -11.398292
vt 0.500035 -11.394653
vt 0.500035 -11.398292
vt 0.544933 -11.394653
vt 0.544933 -11.398292
vt 0.567581 -11.394653
vt 0.567581 -11.398292
vt 0.424710 -11.398291
vt 0.424710 -11.394652
vt 0.571983 -11.394653
vt 0.571984 -11.398292
vt 12.398291 0.230006
vt 12.394652 0.230005
vt 12.398276 0.222394
vt 12.394639 0.222608
vt 12.397127 0.212728
vt 12.393604 0.213917
vt 12.392022 0.203324
vt 12.389280 0.205950
vt 12.383481 0.197430
vt 12.381912 0.200866
vt 12.373678 0.194358
vt 12.373140 0.198117
vt 12.305528 0.194358
vt 12.305528 0.198117
vt -11.394653 0.227896
vt -11.398292 0.227896
vt -11.394668 0.221994
vt -11.398305 0.221780
vt -11.393756 0.213858
vt -11.397279 0.212670
vt -11.389397 0.205829
vt -11.392139 0.203202
vt -11.381979 0.200710
vt -11.383548 0.197274
vt -11.373163 0.197947
vt -11.373701 0.194189
vt -11.305528 0.197947
vt -11.305528 0.194189
vt 0.573954 0.205829
vt 0.577762 0.205950
vt 0.573933 0.213858
vt 0.577741 0.213917
vt 0.573952 0.221994
vt 0.577761 0.222608
vt 0.571983 0.227896
vt 0.575290 0.230005
vt 0.567581 0.231893
vt 0.569067 0.235656
vt 0.544933 0.231893
vt 0.544933 0.235656
vt 0.500035 0.231893
vt 0.500035 0.235656
vt 0.455137 0.231893
vt 0.455137 0.235656
vt 0.432489 0.231893
vt 0.431003 0.235656
vt 0.428087 0.227896
vt 0.424780 0.230005
vt 0.426118 0.221994
vt 0.422309 0.222608
vt 0.426137 0.213858
vt 0.422329 0.213917
vt 0.426115 0.205829
vt 0.422308 0.205950
vt 0.422069 0.203324
vt 0.425876 0.203202
vt 0.422094 0.212728
vt 0.425902 0.212670
vt 0.422135 0.222394
vt 0.425944 0.221780
vt 0.424710 0.230006
vt 0.428016 0.227896
vt 0.430932 0.235656
vt 0.432419 0.231894
vt 0.455067 0.235656
vt 0.455067 0.231894
vt 0.499965 0.235656
vt 0.499965 0.231894
vt 0.544863 0.235656
vt 0.544863 0.231894
vt 0.568998 0.235656
vt 0.567511 0.231894
vt 0.575220 0.230006
vt 0.571914 0.227896
vt 0.577795 0.222394
vt 0.573986 0.221780
vt 0.577836 0.212728
vt 0.574028 0.212670
vt 0.577861 0.203324
vt 0.574054 0.203202
vt 0.422238 -11.389280
vt 0.426046 -11.389397
vt 0.422224 -11.381912
vt 0.426032 -11.381979
vt 0.422217 -11.373140
vt 0.426024 -11.373163
vt 0.422217 -11.305528
vt 0.426025 -11.305528
vt 0.574124 -11.392139
vt 0.577931 -11.392022
vt 0.574139 -11.383548
vt 0.577947 -11.383481
vt 0.574148 -11.373701
vt 0.577955 -11.373678
vt 0.574147 -11.305528
vt 0.577955 -11.305528
vt 0.577713 -11.305528
vt 0.573906 -11.305528
vt 0.577713 -11.373140
vt 0.573906 -11.373163
vt 0.577706 -11.381912
vt 0.573898 -11.381979
vt 0.577692 -11.389280
vt 0.573885 -11.389397
vt 0.425922 -11.305528
vt 0.422115 -11.305528
vt 0.425922 -11.373701
vt 0.422115 -11.373678
vt 0.425931 -11.383548
vt 0.422123 -11.383481
vt 0.425946 -11.392139
vt 0.422139 -11.392022
vt 0.528568 -11.586122
vt 0.523896 -11.582882
vt 0.522793 -11.586122
vt 0.523896 -11.589361
vt 0.526784 -11.580879
vt 0.526784 -11.591364
vt 0.530353 -11.580879
vt 0.530353 -11.591364
vt 0.533240 -11.582882
vt 0.533240 -11.589361
vt 0.534343 -11.586122
vt 0.553575 -11.552511
vt 0.555690 -11.546300
vt 0.550154 -11.550139
vt 0.548847 -11.546300
vt 0.557804 -11.552511
vt 0.550154 -11.542461
vt 0.561225 -11.550139
vt 0.553575 -11.540089
vt 0.562532 -11.546300
vt 0.557804 -11.540089
vt 0.561225 -11.542461
vt 0.476033 -11.582882
vt 0.471361 -11.586122
vt 0.477136 -11.586122
vt 0.476033 -11.589361
vt 0.473145 -11.580879
vt 0.473145 -11.591364
vt 0.469576 -11.580879
vt 0.469576 -11.591364
vt 0.466689 -11.582882
vt 0.466689 -11.589361
vt 0.465586 -11.586122
vt 0.444239 -11.546300
vt 0.446354 -11.552511
vt 0.449775 -11.550139
vt 0.451082 -11.546300
vt 0.442125 -11.552511
vt 0.449775 -11.542461
vt 0.438704 -11.550139
vt 0.446354 -11.540089
vt 0.437397 -11.546300
vt 0.442125 -11.540089
vt 0.438704 -11.542461
vt 0.499965 -11.566516
vt 0.495293 -11.563276
vt 0.494190 -11.566516
vt 0.495293 -11.569756
vt 0.498180 -11.561274
vt 0.498180 -11.571758
vt 0.501749 -11.561274
vt 0.501749 -11.571758
vt 0.504636 -11.563276
vt 0.504636 -11.569756
vt 0.505739 -11.566516
vt 0.474430 -11.588201
vt 0.476104 -11.589361
vt 0.475137 -11.586122
vt 0.477207 -11.586122
vt 0.473216 -11.591364
vt 0.474430 -11.584043
vt 0.472577 -11.589485
vt 0.476104 -11.582882
vt 0.469647 -11.591364
vt 0.472577 -11.582758
vt 0.470287 -11.589485
vt 0.473216 -11.580879
vt 0.466760 -11.589361
vt 0.470287 -11.582758
vt 0.468434 -11.588201
vt 0.469647 -11.580879
vt 0.465657 -11.586122
vt 0.468434 -11.584043
vt 0.467726 -11.586122
vt 0.466760 -11.582882
vt 0.525641 -11.588201
vt 0.524934 -11.586122
vt 0.523967 -11.589361
vt 0.522864 -11.586122
vt 0.526855 -11.591364
vt 0.525641 -11.584043
vt 0.527494 -11.589485
vt 0.523967 -11.582882
vt 0.530424 -11.591364
vt 0.527494 -11.582758
vt 0.529784 -11.589485
vt 0.526855 -11.580879
vt 0.533311 -11.589361
vt 0.529784 -11.582758
vt 0.531637 -11.588201
vt 0.530424 -11.580879
vt 0.534414 -11.586122
vt 0.531637 -11.584043
vt 0.532345 -11.586122
vt 0.533311 -11.582882
vt 0.503033 -11.568595
vt 0.504707 -11.569756
vt 0.503741 -11.566516
vt 0.505810 -11.566516
vt 0.501820 -11.571758
vt 0.503033 -11.564438
vt 0.501181 -11.569880
vt 0.504707 -11.563276
vt 0.498251 -11.571758
vt 0.501181 -11.563152
vt 0.498890 -11.569880
vt 0.501820 -11.561274
vt 0.495364 -11.569756
vt 0.498890 -11.563152
vt 0.497038 -11.568595
vt 0.498251 -11.561274
vt 0.494261 -11.566516
vt 0.497038 -11.564438
vt 0.496330 -11.566516
vt 0.495364 -11.563276
s 1
g Dr_Hull_Rostrum_destroyer_A_001_8_steel_4
usemtl steel_4
f 3/1/1 2/2/1 1/3/1
f 4/4/1 1/3/1 2/2/1
f 7/5/2 6/6/2 5/7/2
f 8/8/2 5/7/2 6/6/2
f 11/9/3 10/10/4 9/11/5
f 12/12/6 9/11/5 10/10/4
f 15/13/1 14/14/1 13/15/1
f 16/16/1 13/15/1 14/14/1
f 19/5/2 18/6/2 17/7/2
f 20/8/2 17/7/2 18/6/2
f 23/17/7 22/18/7 21/19/7
f 24/20/7 21/19/7 22/18/7
f 27/21/8 26/22/8 25/23/8
f 28/24/8 25/23/8 26/22/8
f 31/21/8 30/22/8 29/25/8
f 32/24/8 29/25/8 30/22/8
f 35/26/9 34/27/9 33/28/9
f 34/27/9 36/29/9 33/28/9
f 34/27/9 37/30/9 36/29/9
f 34/27/9 38/31/9 37/30/9
f 38/31/9 34/27/9 39/32/9
f 39/32/9 34/27/9 40/33/9
f 34/27/9 41/34/9 40/33/9
f 34/27/9 42/35/9 41/34/9
f 42/35/9 34/27/9 43/36/9
f 43/36/9 34/27/9 44/37/9
f 44/37/9 34/27/9 45/38/9
f 34/27/9 46/39/9 45/38/9
f 49/40/10 48/41/10 47/42/11
f 50/43/11 47/42/11 48/41/10
f 47/42/11 50/43/11 51/44/12
f 52/45/12 51/44/12 50/43/11
f 55/46/13 54/47/13 53/48/14
f 56/49/14 53/48/14 54/47/13
f 53/48/14 56/49/14 57/50/15
f 58/51/15 57/50/15 56/49/14
f 58/51/15 59/52/16 57/50/15
f 60/53/16 57/50/15 59/52/16
f 59/52/16 61/54/17 60/53/16
f 62/55/17 60/53/16 61/54/17
f 62/55/17 61/54/17 63/56/18
f 64/57/18 63/56/18 61/54/17
f 63/56/18 64/57/18 65/58/19
f 66/59/19 65/58/19 64/57/18
f 66/59/19 67/60/20 65/58/19
f 68/61/20 65/58/19 67/60/20
f 67/60/20 69/62/21 68/61/20
f 70/63/21 68/61/20 69/62/21
f 73/64/22 72/65/22 71/66/22
f 74/67/22 71/66/22 72/65/22
f 74/67/22 75/68/22 71/66/22
f 76/69/22 71/66/22 75/68/22
f 79/70/23 78/71/23 77/72/23
f 80/73/23 79/70/23 77/72/23
f 80/73/23 81/74/23 79/70/23
f 81/74/23 82/75/23 79/70/23
f 82/75/23 83/76/23 79/70/23
f 79/70/23 83/76/23 84/77/23
f 85/78/23 79/70/23 84/77/23
f 85/78/23 86/79/23 79/70/23
f 86/79/23 87/80/23 79/70/23
f 87/80/23 88/81/23 79/70/23
f 79/70/23 88/81/23 89/82/23
f 90/83/23 79/70/23 89/82/23
f 93/84/24 92/85/25 91/86/26
f 92/85/25 94/87/27 91/86/26
f 91/86/26 94/87/27 95/88/28
f 96/89/29 94/87/27 92/85/25
f 99/90/30 98/91/31 97/92/32
f 100/93/33 97/92/32 98/91/31
f 103/94/32 102/95/34 101/96/35
f 104/97/36 101/96/35 102/95/34
f 101/96/35 104/97/36 105/98/37
f 106/99/38 105/98/37 104/97/36
f 107/100/39 104/97/36 102/95/34
f 107/100/39 106/99/38 104/97/36
f 107/100/39 108/101/40 106/99/38
f 107/100/39 109/102/41 108/101/40
f 112/103/42 111/104/43 110/105/44
f 113/106/45 110/105/44 111/104/43
f 110/105/44 113/106/45 114/107/33
f 115/108/46 114/107/33 113/106/45
f 115/108/46 113/106/45 116/109/47
f 113/106/45 111/104/43 116/109/47
f 111/104/43 117/110/48 116/109/47
f 117/110/48 118/111/49 116/109/47
f 121/112/31 120/113/50 119/114/42
f 122/115/51 119/114/42 120/113/50
f 119/114/42 122/115/51 123/116/52
f 123/116/52 124/117/53 119/114/42
f 125/118/54 119/114/42 124/117/53
f 124/117/53 123/116/52 126/119/55
f 127/120/56 126/119/55 123/116/52
f 128/121/57 123/116/52 122/115/51
f 123/116/52 128/121/57 127/120/56
f 122/115/51 129/122/58 128/121/57
f 130/123/59 127/120/56 128/121/57
f 131/124/60 128/121/57 129/122/58
f 128/121/57 131/124/60 130/123/59
f 132/125/61 130/123/59 131/124/60
f 135/126/28 134/127/62 133/128/28
f 136/129/62 133/128/28 134/127/62
f 134/127/62 137/130/25 136/129/62
f 138/131/25 136/129/62 137/130/25
f 137/130/25 139/132/63 138/131/25
f 140/133/26 138/131/25 139/132/63
f 139/132/63 141/134/63 140/133/26
f 142/135/63 140/133/26 141/134/63
f 141/134/63 143/136/64 142/135/63
f 144/137/64 142/135/63 143/136/64
f 147/138/65 146/139/66 145/140/65
f 148/141/67 145/140/65 146/139/66
f 151/142/68 150/143/69 149/144/68
f 152/145/69 149/144/68 150/143/69
f 150/143/69 153/146/70 152/145/69
f 154/147/71 152/145/69 153/146/70
f 153/146/70 155/148/72 154/147/71
f 156/149/72 154/147/71 155/148/72
f 159/150/73 158/151/74 157/152/75
f 160/153/74 157/152/75 158/151/74
f 163/154/76 162/155/76 161/156/8
f 164/157/8 161/156/8 162/155/76
f 161/156/8 164/157/8 165/158/77
f 166/159/77 165/158/77 164/157/8
f 169/160/78 168/161/78 167/162/79
f 170/163/79 167/162/79 168/161/78
f 167/162/79 170/163/79 171/164/80
f 172/165/80 171/164/80 170/163/79
f 171/164/80 172/165/80 173/166/81
f 174/167/81 173/166/81 172/165/80
f 177/168/82 176/169/82 175/170/2
f 178/171/2 175/170/2 176/169/82
f 175/170/2 178/171/2 179/172/83
f 180/173/83 179/172/83 178/171/2
f 183/174/84 182/175/84 181/176/85
f 184/177/85 181/176/85 182/175/84
f 181/176/85 184/177/85 185/178/86
f 186/179/86 185/178/86 184/177/85
f 185/178/86 186/179/86 187/180/87
f 188/181/87 187/180/87 186/179/86
f 191/182/17 190/183/17 189/184/17
f 192/185/17 189/184/17 190/183/17
f 192/185/17 193/186/17 189/184/17
f 194/187/17 189/184/17 193/186/17
f 197/188/9 196/189/9 195/190/9
f 198/191/9 195/190/9 196/189/9
f 198/191/9 196/189/9 199/192/9
f 200/193/9 199/192/9 196/189/9
f 203/194/17 202/195/17 201/196/17
f 204/197/17 201/196/17 202/195/17
f 207/198/2 206/199/2 205/200/2
f 208/201/2 205/200/2 206/199/2
f 211/202/9 210/203/9 209/204/9
f 212/205/9 209/204/9 210/203/9
f 215/206/8 214/207/8 213/208/8
f 216/209/8 213/208/8 214/207/8
f 219/210/23 218/211/23 217/212/23
f 220/213/23 217/212/23 218/211/23
f 223/214/17 222/215/17 221/216/17
f 224/217/17 221/216/17 222/215/17
f 227/218/2 226/219/2 225/220/2
f 228/221/2 225/220/2 226/219/2
f 231/222/9 230/223/9 229/224/9
f 232/225/9 229/224/9 230/223/9
f 235/226/8 234/227/8 233/228/8
f 236/229/8 233/228/8 234/227/8
f 239/230/23 238/231/23 237/232/23
f 240/233/23 237/232/23 238/231/23
f 243/234/23 242/235/23 241/236/23
f 244/237/23 241/236/23 242/235/23
f 244/237/23 245/238/23 241/236/23
f 246/239/23 241/236/23 245/238/23
f 249/240/2 248/241/2 247/242/2
f 250/243/2 247/242/2 248/241/2
f 253/244/88 252/245/89 251/246/90
f 251/246/90 254/247/91 253/244/88
f 255/248/92 253/244/88 254/247/91
f 254/247/91 256/249/93 255/248/92
f 257/250/94 255/248/92 256/249/93
f 256/249/93 258/251/95 257/250/94
f 259/252/96 257/250/94 258/251/95
f 262/253/97 261/254/98 260/255/99
f 263/256/100 260/255/99 261/254/98
f 261/254/98 264/257/101 263/256/100
f 265/258/102 263/256/100 264/257/101
f 264/257/101 266/259/103 265/258/102
f 267/260/104 265/258/102 266/259/103
f 267/260/104 266/259/103 268/261/105
f 271/262/106 270/263/107 269/264/108
f 272/265/109 269/264/108 270/263/107
f 275/266/110 274/267/111 273/268/112
f 273/268/112 276/269/113 275/266/110
f 277/270/113 275/266/110 276/269/113
f 276/269/113 278/271/113 277/270/113
f 279/272/113 277/270/113 278/271/113
f 278/271/113 280/273/113 279/272/113
f 281/274/113 279/272/113 280/273/113
f 280/273/113 282/275/113 281/274/113
f 283/276/113 281/274/113 282/275/113
f 282/275/113 284/277/113 283/276/113
f 285/278/113 283/276/113 284/277/113
f 284/277/113 286/279/113 285/278/113
f 287/280/113 285/278/113 286/279/113
f 286/279/113 288/281/114 287/280/113
f 289/282/115 287/280/113 288/281/114
f 289/282/115 288/281/114 290/283/116
f 293/284/2 292/285/2 291/286/2
f 294/41/2 291/286/2 292/285/2
f 297/287/117 296/288/117 295/289/117
f 298/290/117 295/289/117 296/288/117
f 301/291/8 300/292/8 299/293/8
f 302/294/8 299/293/8 300/292/8
f 305/295/9 304/296/9 303/297/9
f 306/298/9 303/297/9 304/296/9
f 309/299/78 308/300/8 307/301/78
f 310/302/8 307/301/78 308/300/8
f 308/300/8 311/303/77 310/302/8
f 312/304/77 310/302/8 311/303/77
f 315/305/87 314/306/86 313/307/87
f 316/308/86 313/307/87 314/306/86
f 314/306/86 317/309/85 316/308/86
f 318/310/85 316/308/86 317/309/85
f 317/309/85 319/311/84 318/310/85
f 320/312/84 318/310/85 319/311/84
f 323/313/84 322/314/2 321/315/84
f 324/316/2 321/315/84 322/314/2
f 322/314/2 325/317/81 324/316/2
f 326/318/81 324/316/2 325/317/81
f 329/319/81 328/320/80 327/321/81
f 330/322/80 327/321/81 328/320/80
f 328/320/80 331/323/79 330/322/80
f 332/324/79 330/322/80 331/323/79
f 331/323/79 333/325/78 332/324/79
f 334/326/78 332/324/79 333/325/78
f 337/327/9 336/328/9 335/329/9
f 338/330/9 335/329/9 336/328/9
f 341/331/8 340/332/8 339/333/8
f 342/334/8 339/333/8 340/332/8
f 345/335/118 344/336/118 343/337/118
f 346/338/118 343/337/118 344/336/118
f 349/339/2 348/340/2 347/341/2
f 350/342/2 347/341/2 348/340/2
f 353/343/1 352/344/1 351/345/1
f 354/346/1 351/345/1 352/344/1
f 357/24/8 356/23/8 355/22/8
f 358/21/8 355/22/8 356/23/8
f 361/347/119 360/348/120 359/349/121
f 362/350/122 359/349/121 360/348/120
f 365/351/1 364/352/1 363/353/1
f 366/354/1 363/353/1 364/352/1
f 369/24/8 368/23/8 367/22/8
f 370/21/8 367/22/8 368/23/8
f 373/355/7 372/356/7 371/357/7
f 374/358/7 371/357/7 372/356/7
f 377/8/2 376/7/2 375/6/2
f 378/5/2 375/6/2 376/7/2
f 381/8/2 380/7/2 379/359/2
f 382/5/2 379/359/2 380/7/2
f 385/360/123 384/361/124 383/362/123
f 386/363/124 383/362/123 384/361/124
f 384/361/124 387/364/125 386/363/124
f 388/365/125 386/363/124 387/364/125
f 391/366/126 390/367/127 389/368/128
f 390/367/127 392/369/129 389/368/128
f 389/368/128 392/369/129 393/370/130
f 394/371/131 392/369/129 390/367/127
f 397/372/132 396/373/133 395/374/134
f 398/375/135 395/374/134 396/373/133
f 401/376/136 400/377/137 399/378/138
f 402/379/139 399/378/138 400/377/137
f 400/377/137 403/380/140 402/379/139
f 404/381/141 402/379/139 403/380/140
f 402/379/139 405/382/142 399/378/138
f 404/381/141 405/382/142 402/379/139
f 406/383/143 405/382/142 404/381/141
f 407/384/144 405/382/142 406/383/143
f 410/385/145 409/386/146 408/387/147
f 411/388/148 408/387/147 409/386/146
f 409/386/146 412/389/132 411/388/148
f 413/390/149 411/388/148 412/389/132
f 411/388/148 413/390/149 414/391/150
f 408/387/147 411/388/148 414/391/150
f 415/392/151 408/387/147 414/391/150
f 416/393/152 415/392/151 414/391/150
f 419/394/133 418/395/145 417/396/137
f 420/397/153 417/396/137 418/395/145
f 418/395/145 421/398/154 420/397/153
f 421/398/154 418/395/145 422/399/155
f 423/400/156 422/399/155 418/395/145
f 422/399/155 424/401/157 421/398/154
f 425/402/158 421/398/154 424/401/157
f 426/403/159 420/397/153 421/398/154
f 421/398/154 425/402/158 426/403/159
f 420/397/153 426/403/159 427/404/160
f 428/405/161 426/403/159 425/402/158
f 429/406/162 427/404/160 426/403/159
f 426/403/159 428/405/161 429/406/162
f 430/407/163 429/406/162 428/405/161
f 433/408/130 432/409/130 431/410/164
f 434/411/164 431/410/164 432/409/130
f 431/410/164 434/411/164 435/412/127
f 436/413/127 435/412/127 434/411/164
f 435/412/127 436/413/127 437/414/165
f 438/415/129 437/414/165 436/413/127
f 437/414/165 438/415/129 439/416/165
f 440/417/165 439/416/165 438/415/129
f 439/416/165 440/417/165 441/418/166
f 442/419/166 441/418/166 440/417/165
f 445/420/167 444/421/168 443/422/169
f 446/423/169 443/422/169 444/421/168
f 449/424/170 448/425/170 447/426/171
f 450/427/171 447/426/171 448/425/170
f 447/426/171 450/427/171 451/428/172
f 452/429/173 451/428/172 450/427/171
f 451/428/172 452/429/173 453/430/174
f 454/431/174 453/430/174 452/429/173
f 457/432/175 456/433/175 455/434/174
f 458/435/176 455/434/174 456/433/175
f 461/436/82 460/437/2 459/438/82
f 462/170/2 459/438/82 460/437/2
f 460/437/2 463/439/83 462/170/2
f 464/172/177 462/170/2 463/439/83
f 467/440/81 466/441/80 465/442/81
f 468/443/80 465/442/81 466/441/80
f 466/441/80 469/444/79 468/443/80
f 470/445/79 468/443/80 469/444/79
f 469/444/79 471/446/78 470/445/79
f 472/447/78 470/445/79 471/446/78
f 475/448/76 474/157/8 473/449/76
f 476/450/8 473/449/76 474/157/8
f 474/157/8 477/159/77 476/450/8
f 478/451/77 476/450/8 477/159/77
f 481/452/87 480/453/86 479/454/87
f 482/455/178 479/454/87 480/453/86
f 480/453/86 483/456/85 482/455/178
f 484/457/85 482/455/178 483/456/85
f 483/456/85 485/458/84 484/457/85
f 486/459/179 484/457/85 485/458/84
f 489/460/17 488/461/17 487/462/17
f 490/463/17 487/462/17 488/461/17
f 493/207/8 492/209/8 491/464/8
f 494/465/8 491/464/8 492/209/8
f 497/466/9 496/467/9 495/468/9
f 498/469/9 495/468/9 496/467/9
f 501/199/2 500/201/2 499/470/2
f 502/471/2 499/470/2 500/201/2
f 505/472/23 504/473/23 503/474/23
f 506/475/23 503/474/23 504/473/23
f 509/476/17 508/477/17 507/478/17
f 510/479/17 507/478/17 508/477/17
f 513/227/8 512/229/8 511/226/8
f 514/228/8 511/226/8 512/229/8
f 517/480/9 516/481/9 515/482/9
f 518/483/9 515/482/9 516/481/9
f 521/219/2 520/221/2 519/218/2
f 522/220/2 519/218/2 520/221/2
f 525/484/23 524/485/23 523/486/23
f 526/487/23 523/486/23 524/485/23
f 529/488/8 528/489/8 527/490/8
f 530/491/8 527/490/8 528/489/8
f 533/492/180 532/493/181 531/259/182
f 531/259/182 532/493/181 534/257/183
f 535/494/184 534/257/183 532/493/181
f 534/257/183 535/494/184 536/495/185
f 537/496/186 536/495/185 535/494/184
f 536/495/185 537/496/186 538/253/187
f 539/255/188 538/253/187 537/496/186
f 542/251/189 541/252/190 540/497/191
f 543/498/192 540/497/191 541/252/190
f 540/497/191 543/498/192 544/247/193
f 545/499/194 544/247/193 543/498/192
f 544/247/193 545/499/194 546/246/195
f 547/500/196 546/246/195 545/499/194
f 546/246/195 547/500/196 548/501/89
f 551/502/190 550/503/197 549/504/198
f 552/505/199 549/504/198 550/503/197
f 555/506/116 554/507/115 553/508/114
f 553/508/114 554/507/115 556/509/113
f 557/510/113 556/509/113 554/507/115
f 556/509/113 557/510/113 558/511/113
f 559/512/113 558/511/113 557/510/113
f 558/511/113 559/512/113 560/513/113
f 561/514/113 560/513/113 559/512/113
f 560/513/113 561/514/113 562/515/113
f 563/516/113 562/515/113 561/514/113
f 562/515/113 563/516/113 564/517/113
f 565/518/113 564/517/113 563/516/113
f 564/517/113 565/518/113 566/519/113
f 567/520/113 566/519/113 565/518/113
f 566/519/113 567/520/113 568/521/112
f 569/522/110 568/521/112 567/520/113
f 568/521/112 569/522/110 570/523/111
f 573/362/8 572/294/8 571/524/8
f 574/293/8 571/524/8 572/294/8
f 577/525/117 576/526/117 575/527/117
f 578/528/117 575/527/117 576/526/117
f 581/285/2 580/529/2 579/284/2
f 582/530/2 579/284/2 580/529/2
f 585/531/9 584/532/9 583/533/9
f 586/534/9 583/533/9 584/532/9
f 589/317/81 588/318/81 587/314/2
f 590/316/2 587/314/2 588/318/81
f 587/314/2 590/316/2 591/313/83
f 592/315/83 591/313/83 590/316/2
f 595/535/84 594/536/84 593/537/85
f 596/538/85 593/537/85 594/536/84
f 593/537/85 596/538/85 597/539/86
f 598/540/86 597/539/86 596/538/85
f 597/539/86 598/540/86 599/541/87
f 600/542/87 599/541/87 598/540/86
f 603/303/87 602/304/87 601/300/8
f 604/302/8 601/300/8 602/304/87
f 601/300/8 604/302/8 605/299/78
f 606/301/78 605/299/78 604/302/8
f 609/543/78 608/544/78 607/545/79
f 610/546/79 607/545/79 608/544/78
f 607/545/79 610/546/79 611/547/80
f 612/548/80 611/547/80 610/546/79
f 611/547/80 612/548/80 613/549/81
f 614/550/81 613/549/81 612/548/80
f 617/551/9 616/552/9 615/553/9
f 618/554/9 615/553/9 616/552/9
f 621/340/2 620/342/2 619/339/2
f 622/555/2 619/339/2 620/342/2
f 625/556/118 624/557/118 623/558/118
f 626/559/118 623/558/118 624/557/118
f 629/332/8 628/334/8 627/560/8
f 630/333/8 627/560/8 628/334/8
f 633/561/200 632/562/200 631/563/201
f 634/564/201 631/563/201 632/562/200
f 631/563/201 634/564/201 635/565/202
f 636/566/203 635/565/202 634/564/201
f 639/567/204 638/568/205 637/569/203
f 640/570/206 637/569/203 638/568/205
f 643/571/207 642/572/208 641/573/209
f 644/574/209 641/573/209 642/572/208
f 641/573/209 644/574/209 645/575/210
f 646/576/211 645/575/210 644/574/209
f 649/577/212 648/578/200 647/579/211
f 650/580/213 647/579/211 648/578/200
f 653/581/22 652/582/22 651/583/22
f 652/582/22 654/584/22 651/583/22
f 651/583/22 654/584/22 655/585/22
f 656/586/22 654/584/22 652/582/22
f 659/587/17 658/588/17 657/589/17
f 660/590/17 657/589/17 658/588/17
f 658/588/17 661/591/17 660/590/17
f 662/592/17 660/590/17 661/591/17
f 665/593/214 664/594/215 663/595/216
f 666/596/217 663/595/216 664/594/215
f 663/595/216 666/596/217 667/597/218
f 668/598/219 667/597/218 666/596/217
f 671/599/220 670/600/221 669/601/222
f 672/602/223 669/601/222 670/600/221
f 675/603/224 674/604/225 673/605/226
f 676/606/227 673/605/226 674/604/225
f 673/605/226 676/606/227 677/607/228
f 678/608/229 677/607/228 676/606/227
f 681/609/230 680/610/231 679/611/232
f 682/612/233 679/611/232 680/610/231
f 685/613/2 684/614/2 683/615/2
f 686/616/2 683/615/2 684/614/2
f 689/617/17 688/618/17 687/619/17
f 690/620/17 687/619/17 688/618/17
f 693/621/23 692/622/23 691/623/23
f 694/624/23 691/623/23 692/622/23
f 697/625/8 696/626/8 695/627/8
f 698/628/8 695/627/8 696/626/8
f 701/629/9 700/630/9 699/631/9
f 702/632/9 699/631/9 700/630/9
f 705/633/23 704/634/23 703/635/23
f 704/634/23 706/636/23 703/635/23
f 706/636/23 707/637/23 703/635/23
f 710/638/2 709/639/2 708/640/2
f 711/641/2 708/640/2 709/639/2
f 714/642/234 713/643/234 712/644/234
f 715/645/234 712/644/234 713/643/234
f 718/646/8 717/647/8 716/648/8
f 719/649/8 716/648/8 717/647/8
f 722/650/9 721/651/9 720/652/9
f 720/652/9 721/651/9 723/653/9
f 723/653/9 721/651/9 724/654/9
f 727/655/235 726/642/235 725/656/235
f 728/644/235 725/656/235 726/642/235
f 731/657/23 730/658/23 729/659/23
f 732/660/23 729/659/23 730/658/23
f 735/661/2 734/662/2 733/663/2
f 736/664/2 733/663/2 734/662/2
f 739/665/17 738/666/17 737/667/17
f 740/668/17 737/667/17 738/666/17
f 743/669/8 742/670/8 741/671/8
f 744/672/8 741/671/8 742/670/8
f 747/673/9 746/674/9 745/675/9
f 748/676/9 745/675/9 746/674/9
f 751/677/76 750/678/76 749/679/8
f 752/680/8 749/679/8 750/678/76
f 749/679/8 752/680/8 753/681/77
f 754/682/77 753/681/77 752/680/8
f 757/683/78 756/684/78 755/685/79
f 758/686/236 755/685/79 756/684/78
f 755/685/79 758/686/236 759/687/80
f 760/688/80 759/687/80 758/686/236
f 759/687/80 760/688/80 761/689/81
f 762/690/81 761/689/81 760/688/80
f 765/691/82 764/692/82 763/693/2
f 766/694/2 763/693/2 764/692/82
f 763/693/2 766/694/2 767/695/83
f 768/696/83 767/695/83 766/694/2
f 771/697/84 770/698/84 769/699/85
f 772/700/237 769/699/85 770/698/84
f 769/699/85 772/700/237 773/701/178
f 774/702/86 773/701/178 772/700/237
f 773/701/178 774/702/86 775/703/87
f 776/704/87 775/703/87 774/702/86
f 779/705/238 778/706/239 777/707/240
f 780/708/241 777/707/240 778/706/239
f 777/707/240 780/708/241 781/709/242
f 782/710/243 781/709/242 780/708/241
f 781/709/242 782/710/243 783/711/244
f 784/712/244 783/711/244 782/710/243
f 783/711/244 784/712/244 785/713/245
f 786/714/245 785/713/245 784/712/244
f 785/713/245 786/714/245 787/715/246
f 788/716/246 787/715/246 786/714/245
f 787/715/246 788/716/246 789/717/247
f 790/718/247 789/717/247 788/716/246
f 793/719/248 792/720/249 791/721/250
f 794/722/251 791/721/250 792/720/249
f 791/721/250 794/722/251 795/723/252
f 796/724/253 795/723/252 794/722/251
f 795/723/252 796/724/253 797/725/254
f 798/726/254 797/725/254 796/724/253
f 797/725/254 798/726/254 799/727/255
f 800/728/255 799/727/255 798/726/254
f 799/727/255 800/728/255 801/729/256
f 802/730/256 801/729/256 800/728/255
f 801/729/256 802/730/256 803/731/257
f 804/732/257 803/731/257 802/730/256
f 807/733/239 806/734/258 805/735/259
f 808/736/259 805/735/259 806/734/258
f 811/737/260 810/738/261 809/739/262
f 812/740/262 809/739/262 810/738/261
f 815/735/263 814/736/263 813/741/263
f 816/742/263 813/741/263 814/736/263
f 813/741/263 816/742/263 817/743/263
f 818/744/263 817/743/263 816/742/263
f 817/743/263 818/744/263 819/745/263
f 820/746/263 819/745/263 818/744/263
f 819/745/263 820/746/263 821/747/263
f 822/748/263 821/747/263 820/746/263
f 825/739/264 824/740/264 823/749/264
f 826/750/264 823/749/264 824/740/264
f 823/749/264 826/750/264 827/751/264
f 828/752/264 827/751/264 826/750/264
f 827/751/264 828/752/264 829/753/264
f 830/754/264 829/753/264 828/752/264
f 829/753/264 830/754/264 831/755/264
f 832/756/264 831/755/264 830/754/264
f 835/747/265 834/748/265 833/757/266
f 836/758/267 833/757/266 834/748/265
f 839/755/268 838/756/268 837/759/269
f 840/760/270 837/759/269 838/756/268
f 843/761/271 842/762/267 841/763/272
f 844/764/273 841/763/272 842/762/267
f 841/763/272 844/764/273 845/765/274
f 846/766/275 845/765/274 844/764/273
f 845/765/274 846/766/275 847/767/276
f 848/768/276 847/767/276 846/766/275
f 847/767/276 848/768/276 849/769/277
f 850/770/277 849/769/277 848/768/276
f 849/769/277 850/770/277 851/771/278
f 852/772/278 851/771/278 850/770/277
f 851/771/278 852/772/278 853/773/279
f 854/774/279 853/773/279 852/772/278
f 857/775/280 856/776/281 855/777/282
f 858/778/283 855/777/282 856/776/281
f 855/777/282 858/778/283 859/779/284
f 860/780/285 859/779/284 858/778/283
f 859/779/284 860/780/285 861/781/286
f 862/782/286 861/781/286 860/780/285
f 861/781/286 862/782/286 863/783/287
f 864/784/287 863/783/287 862/782/286
f 863/783/287 864/784/287 865/785/288
f 866/786/288 865/785/288 864/784/287
f 865/785/288 866/786/288 867/787/289
f 868/788/289 867/787/289 866/786/288
f 871/789/290 870/790/291 869/791/292
f 872/792/293 869/791/292 870/790/291
f 869/791/292 872/792/293 873/793/294
f 874/794/295 873/793/294 872/792/293
f 873/793/294 874/794/295 875/795/296
f 876/796/297 875/795/296 874/794/295
f 875/795/296 876/796/297 877/797/298
f 878/798/298 877/797/298 876/796/297
f 877/797/298 878/798/298 879/799/299
f 880/800/299 879/799/299 878/798/298
f 879/799/299 880/800/299 881/801/299
f 882/802/299 881/801/299 880/800/299
f 881/801/299 882/802/299 883/803/299
f 884/804/299 883/803/299 882/802/299
f 883/803/299 884/804/299 885/805/300
f 886/806/300 885/805/300 884/804/299
f 885/805/300 886/806/300 887/807/301
f 888/808/302 887/807/301 886/806/300
f 887/807/301 888/808/302 889/809/303
f 890/810/304 889/809/303 888/808/302
f 889/809/303 890/810/304 891/811/305
f 892/812/306 891/811/305 890/810/304
f 891/811/305 892/812/306 893/813/307
f 894/814/308 893/813/307 892/812/306
f 897/815/309 896/816/309 895/817/310
f 898/818/311 895/817/310 896/816/309
f 895/817/310 898/818/311 899/819/312
f 900/820/313 899/819/312 898/818/311
f 899/819/312 900/820/313 901/821/314
f 902/822/315 901/821/314 900/820/313
f 901/821/314 902/822/315 903/823/316
f 904/824/316 903/823/316 902/822/315
f 903/823/316 904/824/316 905/825/317
f 906/826/317 905/825/317 904/824/316
f 905/825/317 906/826/317 907/827/317
f 908/828/317 907/827/317 906/826/317
f 907/827/317 908/828/317 909/829/317
f 910/830/317 909/829/317 908/828/317
f 909/829/317 910/830/317 911/831/318
f 912/832/318 911/831/318 910/830/317
f 911/831/318 912/832/318 913/833/319
f 914/834/320 913/833/319 912/832/318
f 913/833/319 914/834/320 915/835/321
f 916/836/322 915/835/321 914/834/320
f 915/835/321 916/836/322 917/837/323
f 918/838/324 917/837/323 916/836/322
f 917/837/323 918/838/324 919/839/325
f 920/840/325 919/839/325 918/838/324
f 923/841/326 922/842/327 921/843/328
f 924/844/328 921/843/328 922/842/327
f 921/843/328 924/844/328 925/845/329
f 926/846/329 925/845/329 924/844/328
f 925/845/329 926/846/329 927/847/330
f 928/848/330 927/847/330 926/846/329
f 931/849/309 930/850/309 929/851/331
f 932/852/331 929/851/331 930/850/309
f 929/851/331 932/852/331 933/853/332
f 934/854/332 933/853/332 932/852/331
f 933/853/332 934/854/332 935/855/333
f 936/856/333 935/855/333 934/854/332
f 939/857/334 938/858/334 937/859/335
f 940/860/335 937/859/335 938/858/334
f 937/859/335 940/860/335 941/861/336
f 942/862/336 941/861/336 940/860/335
f 941/861/336 942/862/336 943/863/337
f 944/864/338 943/863/337 942/862/336
f 947/865/339 946/866/339 945/867/340
f 948/868/340 945/867/340 946/866/339
f 945/867/340 948/868/340 949/869/341
f 950/870/341 949/869/341 948/868/340
f 949/869/341 950/870/341 951/871/342
f 952/872/342 951/871/342 950/870/341
f 955/873/17 954/874/343 953/875/344
f 955/873/17 953/875/344 956/876/345
f 955/873/17 957/877/346 954/874/343
f 955/873/17 956/876/345 958/878/347
f 955/873/17 959/879/348 957/877/346
f 955/873/17 958/878/347 960/880/349
f 955/873/17 961/881/350 959/879/348
f 955/873/17 960/880/349 962/882/351
f 955/873/17 963/883/352 961/881/350
f 955/873/17 962/882/351 963/883/352
f 966/884/353 965/885/17 964/886/354
f 964/886/354 965/885/17 967/887/355
f 968/888/356 965/885/17 966/884/353
f 967/887/355 965/885/17 969/889/357
f 970/890/358 965/885/17 968/888/356
f 969/889/357 965/885/17 971/891/359
f 972/892/360 965/885/17 970/890/358
f 971/891/359 965/885/17 973/893/361
f 974/894/362 965/885/17 972/892/360
f 973/893/361 965/885/17 974/894/362
f 977/895/350 976/896/17 975/897/352
f 975/897/352 976/896/17 978/898/351
f 979/899/348 976/896/17 977/895/350
f 978/898/351 976/896/17 980/900/349
f 981/901/346 976/896/17 979/899/348
f 980/900/349 976/896/17 982/902/347
f 983/903/343 976/896/17 981/901/346
f 982/902/347 976/896/17 984/904/345
f 985/905/344 976/896/17 983/903/343
f 984/904/345 976/896/17 985/905/344
f 988/906/17 987/907/356 986/908/358
f 988/906/17 986/908/358 989/909/360
f 988/906/17 990/910/353 987/907/356
f 988/906/17 989/909/360 991/911/362
f 988/906/17 992/912/354 990/910/353
f 988/906/17 991/911/362 993/913/361
f 988/906/17 994/914/355 992/912/354
f 988/906/17 993/913/361 995/915/359
f 988/906/17 996/916/357 994/914/355
f 988/906/17 995/915/359 996/916/357
f 999/917/17 998/918/343 997/919/344
f 999/917/17 997/919/344 1000/920/345
f 999/917/17 1001/921/346 998/918/343
f 999/917/17 1000/920/345 1002/922/347
f 999/917/17 1003/923/348 1001/921/346
f 999/917/17 1002/922/347 1004/924/349
f 999/917/17 1005/925/350 1003/923/348
f 999/917/17 1004/924/349 1006/926/351
f 999/917/17 1007/927/352 1005/925/350
f 999/917/17 1006/926/351 1007/927/352
f 1010/928/363 1009/929/364 1008/930/365
f 1011/931/366 1008/930/365 1009/929/364
f 1009/929/364 1010/928/363 1012/932/367
f 1008/930/365 1011/931/366 1013/933/368
f 1014/934/369 1012/932/367 1010/928/363
f 1015/935/370 1013/933/368 1011/931/366
f 1012/932/367 1014/934/369 1016/936/371
f 1013/933/368 1015/935/370 1017/937/372
f 1018/938/373 1016/936/371 1014/934/369
f 1019/939/374 1017/937/372 1015/935/370
f 1016/936/371 1018/938/373 1020/940/375
f 1017/937/372 1019/939/374 1021/941/376
f 1022/942/377 1020/940/375 1018/938/373
f 1023/943/378 1021/941/376 1019/939/374
f 1020/940/375 1022/942/377 1024/944/379
f 1021/941/376 1023/943/378 1025/945/380
f 1026/946/381 1024/944/379 1022/942/377
f 1027/947/382 1025/945/380 1023/943/378
f 1024/944/379 1026/946/381 1027/947/382
f 1025/945/380 1027/947/382 1026/946/381
f 1030/948/377 1029/949/381 1028/950/375
f 1031/951/379 1028/950/375 1029/949/381
f 1028/950/375 1032/952/383 1030/948/377
f 1029/949/381 1033/953/384 1031/951/379
f 1034/954/385 1030/948/377 1032/952/383
f 1035/955/382 1031/951/379 1033/953/384
f 1032/952/383 1036/956/386 1034/954/385
f 1033/953/384 1037/957/376 1035/955/382
f 1038/958/387 1034/954/385 1036/956/386
f 1039/959/378 1035/955/382 1037/957/376
f 1036/956/386 1040/960/364 1038/958/387
f 1037/957/376 1041/961/372 1039/959/378
f 1042/962/388 1038/958/387 1040/960/364
f 1043/963/374 1039/959/378 1041/961/372
f 1040/960/364 1044/964/366 1042/962/388
f 1041/961/372 1045/965/389 1043/963/374
f 1046/966/365 1042/962/388 1044/964/366
f 1047/967/370 1043/963/374 1045/965/389
f 1044/964/366 1047/967/370 1046/966/365
f 1045/965/389 1046/966/365 1047/967/370
f 1050/968/363 1049/969/364 1048/970/365
f 1051/971/366 1048/970/365 1049/969/364
f 1049/969/364 1050/968/363 1052/972/386
f 1048/970/365 1051/971/366 1053/973/389
f 1054/974/387 1052/972/386 1050/968/363
f 1055/975/370 1053/973/389 1051/971/366
f 1052/972/386 1054/974/387 1056/976/371
f 1053/973/389 1055/975/370 1057/977/390
f 1058/978/373 1056/976/371 1054/974/387
f 1059/979/391 1057/977/390 1055/975/370
f 1056/976/371 1058/978/373 1060/980/375
f 1057/977/390 1059/979/391 1061/981/376
f 1062/982/377 1060/980/375 1058/978/373
f 1063/983/378 1061/981/376 1059/979/391
f 1060/980/375 1062/982/377 1064/984/379
f 1061/981/376 1063/983/378 1065/985/380
f 1066/986/381 1064/984/379 1062/982/377
f 1067/987/382 1065/985/380 1063/983/378
f 1064/984/379 1066/986/381 1067/987/382
f 1065/985/380 1067/987/382 1066/986/381
