# Blender 5.1.0
# www.blender.org
mtllib Dr_Hull_Stern_destroyer_A_001_1.mtl
o Dr_Hull_Stern_destroyer_A_001_1
v -0.881186 -26.682810 -1.042816
v -2.004277 -26.261263 -0.001697
v -1.157169 -27.108370 -0.001696
v -1.526259 -26.037737 -1.042817
v -2.314340 -25.156549 -0.001699
v -1.762372 -25.156549 -1.042818
v -2.169344 -22.155840 -1.042818
v -2.848773 -22.155840 -0.001699
v -2.737363 -14.749006 -2.283056
v -3.594693 -14.749006 -0.001699
v -2.905474 -9.999996 -2.283056
v -3.815454 -9.999996 -0.001699
v -3.815454 -4.999997 -0.001699
v -2.905473 -4.999997 -2.283056
v -1.157169 -27.108370 -0.001696
v 0.000001 -26.918924 -1.042817
v -0.881186 -26.682810 -1.042816
v 0.000001 -27.418432 -0.001697
v 1.157170 -27.108370 -0.001696
v 0.881188 -26.682810 -1.042816
v 0.000001 -22.251226 -2.228309
v -0.088004 -22.154390 -3.691289
v -0.156463 -22.155840 -2.195632
v 0.000001 -22.251226 -3.724579
v 0.088005 -22.154390 -3.691289
v 0.156465 -22.155840 -2.195632
v -0.088004 -22.154390 -3.691289
v -0.156463 -19.342890 -2.669222
v -0.156463 -22.155840 -2.195632
v -0.088004 -19.342890 -3.691289
v -0.088004 -14.749006 -3.453982
v -1.606988 -22.671263 -2.394722
v -1.547692 -23.378340 -2.600284
v -1.606988 -23.390818 -2.457674
v -1.547692 -22.658789 -2.537332
v -1.606988 -23.365858 -2.742893
v -1.606988 -22.646318 -2.679943
v -1.606988 -23.390818 -2.457674
v -1.750143 -22.676435 -2.335652
v -1.606988 -22.671263 -2.394722
v -1.750143 -23.395983 -2.398603
v -1.893297 -22.671263 -2.394722
v -1.893298 -23.390818 -2.457674
v -1.893298 -23.390818 -2.457674
v -1.952594 -22.658789 -2.537332
v -1.893297 -22.671263 -2.394722
v -1.952594 -23.378340 -2.600284
v -1.893297 -22.646318 -2.679943
v -1.893297 -23.365858 -2.742893
v -1.893297 -23.365858 -2.742893
v -1.750143 -22.641146 -2.739013
v -1.893297 -22.646318 -2.679943
v -1.750143 -23.360697 -2.801965
v -1.606988 -22.646318 -2.679943
v -1.606988 -23.365858 -2.742893
v -1.625111 -21.977819 -2.477756
v -1.606988 -22.671263 -2.394722
v -1.661732 -21.985525 -2.389682
v -1.547692 -22.658789 -2.537332
v -1.661732 -21.970110 -2.565830
v -1.606988 -22.646318 -2.679943
v -1.750143 -21.966921 -2.602311
v -1.606988 -22.646318 -2.679943
v -1.661732 -21.970110 -2.565830
v -1.750143 -22.641146 -2.739013
v -1.838554 -21.970110 -2.565830
v -1.893297 -22.646318 -2.679943
v -1.875175 -21.977819 -2.477756
v -1.893297 -22.646318 -2.679943
v -1.838554 -21.970110 -2.565830
v -1.952594 -22.658789 -2.537332
v -1.838554 -21.985525 -2.389682
v -1.893297 -22.671263 -2.394722
v -1.750143 -21.988714 -2.353200
v -1.893297 -22.671263 -2.394722
v -1.838554 -21.985525 -2.389682
v -1.750143 -22.676435 -2.335652
v -1.661732 -21.985525 -2.389682
v -1.606988 -22.671263 -2.394722
v -1.901741 -22.876883 -2.442475
v -1.700748 -23.003839 -2.312236
v -1.799537 -23.003839 -2.312236
v -1.598546 -22.876883 -2.442475
v -1.598546 -22.876883 -2.442475
v -1.700748 -23.308607 -2.338898
v -1.700748 -23.003839 -2.312236
v -1.598546 -23.411020 -2.489206
v -1.901740 -23.411020 -2.489206
v -1.799537 -23.003839 -2.312236
v -1.799537 -23.308607 -2.338898
v -1.901741 -22.876883 -2.442475
v -1.598546 -23.411020 -2.489206
v -1.799537 -23.308607 -2.338898
v -1.700748 -23.308607 -2.338898
v -1.901740 -23.411020 -2.489206
v -1.799537 -23.114016 -1.052969
v -1.700748 -23.003839 -2.312236
v -1.700748 -23.114016 -1.052969
v -1.799537 -23.003839 -2.312236
v -1.700748 -23.114016 -1.052969
v -1.700748 -23.308607 -2.338898
v -1.700748 -23.418779 -1.079632
v -1.700748 -23.003839 -2.312236
v -1.799537 -23.418779 -1.079632
v -1.799537 -23.003839 -2.312236
v -1.799537 -23.114016 -1.052969
v -1.799537 -23.308607 -2.338898
v -1.700748 -23.418779 -1.079632
v -1.799537 -23.308607 -2.338898
v -1.799537 -23.418779 -1.079632
v -1.700748 -23.308607 -2.338898
v -1.694430 -23.087027 -2.469590
v -0.314416 -23.198511 -1.192624
v -0.363512 -23.202791 -1.143715
v -1.645334 -23.082750 -2.518499
v -1.645334 -23.082750 -2.518499
v -0.314416 -23.311300 -1.202491
v -0.314416 -23.198511 -1.192624
v -1.645334 -23.195082 -2.528327
v -1.694430 -23.199362 -2.479418
v -0.363512 -23.202791 -1.143715
v -0.363512 -23.315577 -1.153582
v -1.694430 -23.087027 -2.469590
v -1.645334 -23.195082 -2.528327
v -0.363512 -23.315577 -1.153582
v -0.314416 -23.311300 -1.202491
v -1.694430 -23.199362 -2.479418
v -1.484199 -19.726377 -2.280765
v -1.661732 -20.003368 -2.216250
v -1.562092 -19.742769 -2.093429
v -1.625111 -19.995661 -2.304325
v -1.562093 -19.709986 -2.468101
v -1.661732 -19.987951 -2.392398
v -1.750143 -19.703199 -2.545696
v -1.661732 -19.987951 -2.392398
v -1.562093 -19.709986 -2.468101
v -1.750143 -19.984764 -2.428880
v -1.938193 -19.709986 -2.468100
v -1.838554 -19.987951 -2.392398
v -2.016088 -19.726377 -2.280765
v -1.838554 -19.987951 -2.392398
v -1.938193 -19.709986 -2.468100
v -1.875175 -19.995661 -2.304325
v -1.938193 -19.742769 -2.093429
v -1.838554 -20.003368 -2.216250
v -1.750143 -19.749552 -2.015833
v -1.838554 -20.003368 -2.216250
v -1.938193 -19.742769 -2.093429
v -1.750143 -20.006552 -2.179768
v -1.562092 -19.742769 -2.093429
v -1.661732 -20.003368 -2.216250
v -1.484199 -14.227968 -1.799705
v -1.562092 -19.742769 -2.093429
v -1.562092 -14.244362 -1.612369
v -1.484199 -19.726377 -2.280765
v -1.562093 -14.211576 -1.987040
v -1.562093 -19.709986 -2.468101
v -1.750143 -14.204792 -2.064636
v -1.562093 -19.709986 -2.468101
v -1.562093 -14.211576 -1.987040
v -1.750143 -19.703199 -2.545696
v -1.938193 -14.211576 -1.987040
v -1.938193 -19.709986 -2.468100
v -2.016088 -14.227968 -1.799705
v -1.938193 -19.709986 -2.468100
v -1.938193 -14.211576 -1.987040
v -2.016088 -19.726377 -2.280765
v -1.938193 -14.244362 -1.612369
v -1.938193 -19.742769 -2.093429
v -1.750143 -14.251143 -1.534772
v -1.938193 -19.742769 -2.093429
v -1.938193 -14.244362 -1.612369
v -1.750143 -19.749552 -2.015833
v -1.562092 -14.244362 -1.612369
v -1.562092 -19.742769 -2.093429
v -1.380619 -19.445257 -2.280758
v -1.488851 -13.058401 -2.541063
v -1.488851 -19.445257 -2.541063
v -1.380619 -13.058401 -2.280758
v -1.380619 -13.058401 -1.488221
v -1.380619 -19.445257 -1.488221
v -1.750143 -13.058401 -2.648881
v -1.488851 -19.445257 -2.541063
v -1.488851 -13.058401 -2.541063
v -1.750143 -19.445257 -2.648881
v -2.011435 -13.058401 -2.541063
v -2.011435 -19.445257 -2.541063
v -2.119667 -13.058401 -2.280758
v -2.011435 -19.445257 -2.541063
v -2.011435 -13.058401 -2.541063
v -2.119667 -19.445257 -2.280758
v -2.119667 -19.445257 -1.488221
v -2.119667 -13.058401 -1.488221
v -1.380619 -19.445257 -1.488221
v -2.119667 -19.445257 -2.280758
v -2.119667 -19.445257 -1.488221
v -1.380619 -19.445257 -2.280758
v -2.011435 -19.445257 -2.541063
v -1.488851 -19.445257 -2.541063
v -1.750143 -19.445257 -2.648881
v 2.004278 -26.261263 -0.001697
v 0.881188 -26.682810 -1.042816
v 1.157170 -27.108370 -0.001696
v 1.526261 -26.037737 -1.042817
v 2.314341 -25.156549 -0.001699
v 1.762373 -25.156549 -1.042818
v 2.169345 -22.155840 -1.042818
v 2.848774 -22.155840 -0.001699
v 2.737364 -14.749006 -2.283056
v 3.594695 -14.749006 -0.001699
v 2.905475 -9.999996 -2.283056
v 3.815456 -9.999996 -0.001699
v 2.905475 -4.999997 -2.283056
v 3.815456 -4.999997 -0.001699
v 0.156465 -19.342890 -2.669222
v 0.088005 -22.154390 -3.691289
v 0.156465 -22.155840 -2.195632
v 0.088005 -19.342890 -3.691289
v 0.088005 -14.749006 -3.453982
v 1.547693 -23.378340 -2.600284
v 1.606990 -22.671263 -2.394722
v 1.606990 -23.390818 -2.457674
v 1.547693 -22.658789 -2.537332
v 1.606990 -23.365858 -2.742893
v 1.606990 -22.646318 -2.679943
v 1.750144 -22.676435 -2.335652
v 1.606990 -23.390818 -2.457674
v 1.606990 -22.671263 -2.394722
v 1.750144 -23.395983 -2.398603
v 1.893299 -22.671263 -2.394722
v 1.893299 -23.390818 -2.457674
v 1.952595 -22.658789 -2.537332
v 1.893299 -23.390818 -2.457674
v 1.893299 -22.671263 -2.394722
v 1.952595 -23.378340 -2.600284
v 1.893299 -22.646318 -2.679943
v 1.893299 -23.365858 -2.742893
v 1.750144 -22.641146 -2.739013
v 1.893299 -23.365858 -2.742893
v 1.893299 -22.646318 -2.679943
v 1.750144 -23.360697 -2.801965
v 1.606990 -22.646318 -2.679943
v 1.606990 -23.365858 -2.742893
v 1.606990 -22.671263 -2.394722
v 1.625113 -21.977819 -2.477756
v 1.661734 -21.985525 -2.389682
v 1.547693 -22.658789 -2.537332
v 1.661734 -21.970110 -2.565830
v 1.606990 -22.646318 -2.679943
v 1.606990 -22.646318 -2.679943
v 1.750144 -21.966921 -2.602311
v 1.661734 -21.970110 -2.565830
v 1.750144 -22.641146 -2.739013
v 1.838555 -21.970110 -2.565830
v 1.893299 -22.646318 -2.679943
v 1.893299 -22.646318 -2.679943
v 1.875176 -21.977819 -2.477756
v 1.838555 -21.970110 -2.565830
v 1.952595 -22.658789 -2.537332
v 1.838555 -21.985525 -2.389682
v 1.893299 -22.671263 -2.394722
v 1.893299 -22.671263 -2.394722
v 1.750144 -21.988714 -2.353200
v 1.838555 -21.985525 -2.389682
v 1.750144 -22.676435 -2.335652
v 1.661734 -21.985525 -2.389682
v 1.606990 -22.671263 -2.394722
v 1.901742 -22.876883 -2.442475
v 1.700750 -23.003839 -2.312236
v 1.598547 -22.876883 -2.442475
v 1.799538 -23.003839 -2.312236
v 1.598547 -22.876883 -2.442475
v 1.700750 -23.308607 -2.338898
v 1.598547 -23.411020 -2.489206
v 1.700750 -23.003839 -2.312236
v 1.901741 -23.411020 -2.489206
v 1.799538 -23.003839 -2.312236
v 1.901742 -22.876883 -2.442475
v 1.799538 -23.308607 -2.338898
v 1.598547 -23.411020 -2.489206
v 1.799538 -23.308607 -2.338898
v 1.901741 -23.411020 -2.489206
v 1.700750 -23.308607 -2.338898
v 1.799538 -23.114016 -1.052969
v 1.700750 -23.003839 -2.312236
v 1.799538 -23.003839 -2.312236
v 1.700750 -23.114016 -1.052969
v 1.700750 -23.114016 -1.052969
v 1.700750 -23.308607 -2.338898
v 1.700750 -23.003839 -2.312236
v 1.700750 -23.418779 -1.079632
v 1.799538 -23.418779 -1.079632
v 1.799538 -23.003839 -2.312236
v 1.799538 -23.308607 -2.338898
v 1.799538 -23.114016 -1.052969
v 1.700750 -23.418779 -1.079632
v 1.799538 -23.308607 -2.338898
v 1.700750 -23.308607 -2.338898
v 1.799538 -23.418779 -1.079632
v 1.694432 -23.087027 -2.469590
v 0.314417 -23.198511 -1.192624
v 1.645336 -23.082750 -2.518499
v 0.363513 -23.202791 -1.143715
v 1.645336 -23.082750 -2.518499
v 0.314417 -23.311300 -1.202491
v 1.645336 -23.195082 -2.528327
v 0.314417 -23.198511 -1.192624
v 1.694432 -23.199362 -2.479418
v 0.363513 -23.202791 -1.143715
v 1.694432 -23.087027 -2.469590
v 0.363513 -23.315577 -1.153582
v 1.645336 -23.195082 -2.528327
v 0.363513 -23.315577 -1.153582
v 1.694432 -23.199362 -2.479418
v 0.314417 -23.311300 -1.202491
v 1.661734 -20.003368 -2.216250
v 1.484200 -19.726377 -2.280765
v 1.562094 -19.742769 -2.093429
v 1.625113 -19.995661 -2.304325
v 1.562094 -19.709986 -2.468101
v 1.661734 -19.987951 -2.392398
v 1.661734 -19.987951 -2.392398
v 1.750144 -19.703199 -2.545696
v 1.562094 -19.709986 -2.468101
v 1.750144 -19.984764 -2.428880
v 1.938195 -19.709986 -2.468100
v 1.838555 -19.987951 -2.392398
v 1.838555 -19.987951 -2.392398
v 2.016088 -19.726377 -2.280765
v 1.938195 -19.709986 -2.468100
v 1.875176 -19.995661 -2.304325
v 1.938195 -19.742769 -2.093429
v 1.838555 -20.003368 -2.216250
v 1.838555 -20.003368 -2.216250
v 1.750144 -19.749552 -2.015833
v 1.938195 -19.742769 -2.093429
v 1.750144 -20.006552 -2.179768
v 1.562094 -19.742769 -2.093429
v 1.661734 -20.003368 -2.216250
v 1.562094 -19.742769 -2.093429
v 1.484200 -14.227968 -1.799705
v 1.562094 -14.244362 -1.612369
v 1.484200 -19.726377 -2.280765
v 1.562094 -14.211576 -1.987040
v 1.562094 -19.709986 -2.468101
v 1.562094 -19.709986 -2.468101
v 1.750144 -14.204792 -2.064636
v 1.562094 -14.211576 -1.987040
v 1.750144 -19.703199 -2.545696
v 1.938195 -14.211576 -1.987040
v 1.938195 -19.709986 -2.468100
v 1.938195 -19.709986 -2.468100
v 2.016088 -14.227968 -1.799705
v 1.938195 -14.211576 -1.987040
v 2.016088 -19.726377 -2.280765
v 1.938195 -14.244362 -1.612369
v 1.938195 -19.742769 -2.093429
v 1.938195 -19.742769 -2.093429
v 1.750144 -14.251143 -1.534772
v 1.938195 -14.244362 -1.612369
v 1.750144 -19.749552 -2.015833
v 1.562094 -14.244362 -1.612369
v 1.562094 -19.742769 -2.093429
v 1.488853 -13.058401 -2.541063
v 1.380621 -19.445257 -2.280758
v 1.488853 -19.445257 -2.541063
v 1.380621 -13.058401 -2.280758
v 1.380620 -13.058401 -1.488221
v 1.380621 -19.445257 -1.488221
v 1.488853 -19.445257 -2.541063
v 1.750145 -13.058401 -2.648881
v 1.488853 -13.058401 -2.541063
v 1.750145 -19.445257 -2.648881
v 2.011436 -13.058401 -2.541063
v 2.011436 -19.445257 -2.541063
v 2.011436 -19.445257 -2.541063
v 2.119668 -13.058401 -2.280758
v 2.011436 -13.058401 -2.541063
v 2.119668 -19.445257 -2.280758
v 2.119668 -19.445257 -1.488221
v 2.119668 -13.058401 -1.488221
v 2.119668 -19.445257 -2.280758
v 1.380621 -19.445257 -1.488221
v 2.119668 -19.445257 -1.488221
v 1.380621 -19.445257 -2.280758
v 2.011436 -19.445257 -2.541063
v 1.488853 -19.445257 -2.541063
v 1.750145 -19.445257 -2.648881
v 0.039424 -22.321081 -3.570951
v -0.039422 -22.321081 -2.468929
v -0.039422 -22.321081 -3.570951
v 0.039424 -22.321081 -2.468929
v -0.153990 -23.249929 -1.053823
v -0.118144 -23.092810 -3.698522
v -0.153990 -23.072119 -1.053823
v -0.118144 -23.229235 -3.698519
v 0.000001 -23.024591 -3.698521
v -0.153990 -23.072119 -1.053823
v -0.118144 -23.092810 -3.698522
v 0.000001 -22.983198 -1.053823
v 0.118147 -23.092810 -3.698522
v 0.153992 -23.072119 -1.053823
v 0.153992 -23.072119 -1.053823
v 0.118147 -23.229235 -3.698519
v 0.153992 -23.249929 -1.053823
v 0.118147 -23.092810 -3.698522
v 0.000001 -23.297438 -3.698519
v 0.153992 -23.249929 -1.053823
v 0.118147 -23.229235 -3.698519
v 0.000001 -23.338835 -1.053823
v -0.118144 -23.229235 -3.698519
v -0.153990 -23.249929 -1.053823
v 0.153992 -23.249929 -1.053823
v 0.000001 -22.983198 -1.053823
v 0.153992 -23.072119 -1.053823
v -0.153990 -23.249929 -1.053823
v 0.000001 -23.338835 -1.053823
v -0.153990 -23.072119 -1.053823
v -0.118144 -23.092810 -3.698522
v 0.118147 -23.092810 -3.698522
v 0.000001 -23.024591 -3.698521
v 0.000001 -23.297438 -3.698519
v -0.118144 -23.229235 -3.698519
v 0.118147 -23.229235 -3.698519
v 0.113095 -23.192476 -2.409726
v 0.065482 -24.740717 -2.314414
v 0.113095 -23.192476 -2.314415
v 0.065482 -24.740721 -2.409724
v -0.113093 -23.192476 -2.409726
v -0.065480 -24.740717 -2.314414
v -0.065480 -24.740721 -2.409724
v -0.113093 -23.192476 -2.314415
v 0.113095 -23.192476 -2.409726
v -0.065480 -24.740721 -2.409724
v 0.065482 -24.740721 -2.409724
v -0.113093 -23.192476 -2.409726
v 0.065482 -24.740721 -2.409724
v -0.065480 -24.740717 -2.314414
v 0.065482 -24.740717 -2.314414
v -0.065480 -24.740721 -2.409724
v 0.065482 -24.740717 -2.314414
v -0.113093 -23.192476 -2.314415
v 0.113095 -23.192476 -2.314415
v -0.065480 -24.740717 -2.314414
v 0.113095 -23.192476 -2.886242
v 0.065482 -24.740728 -2.790931
v 0.113095 -23.192469 -2.790931
v 0.065482 -24.740740 -2.886242
v -0.113093 -23.192476 -2.886242
v -0.065480 -24.740728 -2.790931
v -0.065480 -24.740740 -2.886242
v -0.113093 -23.192469 -2.790931
v 0.113095 -23.192476 -2.886242
v -0.065480 -24.740740 -2.886242
v 0.065482 -24.740740 -2.886242
v -0.113093 -23.192476 -2.886242
v 0.065482 -24.740740 -2.886242
v -0.065480 -24.740728 -2.790931
v 0.065482 -24.740728 -2.790931
v -0.065480 -24.740740 -2.886242
v 0.065482 -24.740728 -2.790931
v -0.113093 -23.192469 -2.790931
v 0.113095 -23.192469 -2.790931
v -0.065480 -24.740728 -2.790931
v 0.113095 -23.192476 -3.363408
v 0.065482 -24.740717 -3.268098
v 0.113095 -23.192480 -3.268098
v 0.065482 -24.740721 -3.363408
v -0.113093 -23.192476 -3.363408
v -0.065480 -24.740717 -3.268098
v -0.065480 -24.740721 -3.363408
v -0.113093 -23.192480 -3.268098
v 0.113095 -23.192476 -3.363408
v -0.065480 -24.740721 -3.363408
v 0.065482 -24.740721 -3.363408
v -0.113093 -23.192476 -3.363408
v 0.065482 -24.740721 -3.363408
v -0.065480 -24.740717 -3.268098
v 0.065482 -24.740717 -3.268098
v -0.065480 -24.740721 -3.363408
v 0.065482 -24.740717 -3.268098
v -0.113093 -23.192480 -3.268098
v 0.113095 -23.192480 -3.268098
v -0.065480 -24.740717 -3.268098
v -0.027301 -24.901922 -2.314414
v -0.032447 -24.703070 -2.020471
v -0.029041 -24.834707 -2.152117
v -0.036648 -24.540789 -1.953245
v -0.036647 -24.540796 -3.724578
v -0.027301 -24.901915 -3.363409
v -0.029041 -24.834715 -3.525707
v -0.032447 -24.703062 -3.657351
v -0.044303 -22.474684 -3.724578
v -0.044263 -22.473425 -2.295720
v -0.039422 -22.321081 -2.468929
v -0.039422 -22.321081 -3.570951
v 0.036650 -24.540789 -1.953245
v 0.029043 -24.834707 -2.152117
v 0.032450 -24.703070 -2.020471
v 0.027303 -24.901922 -2.314414
v 0.027303 -24.901915 -3.363409
v 0.036650 -24.540796 -3.724578
v 0.032450 -24.703062 -3.657351
v 0.029043 -24.834715 -3.525707
v 0.044305 -22.474684 -3.724578
v 0.044265 -22.473425 -2.295720
v 0.039424 -22.321081 -2.468929
v 0.039424 -22.321081 -3.570951
v -0.032447 -24.703070 -2.020471
v 0.029043 -24.834707 -2.152117
v -0.029041 -24.834707 -2.152117
v 0.032450 -24.703070 -2.020471
v -0.036648 -24.540789 -1.953245
v 0.036650 -24.540789 -1.953245
v 0.044265 -22.473425 -2.295720
v -0.044263 -22.473425 -2.295720
v 0.032450 -24.703062 -3.657351
v -0.029041 -24.834715 -3.525707
v 0.029043 -24.834715 -3.525707
v -0.032447 -24.703062 -3.657351
v 0.036650 -24.540796 -3.724578
v -0.036647 -24.540796 -3.724578
v 0.044305 -22.474684 -3.724578
v -0.044303 -22.474684 -3.724578
v 0.027303 -24.901922 -2.314414
v -0.029041 -24.834707 -2.152117
v 0.029043 -24.834707 -2.152117
v -0.027301 -24.901922 -2.314414
v -0.027301 -24.901915 -3.363409
v 0.027303 -24.901915 -3.363409
v 0.029043 -24.834715 -3.525707
v -0.029041 -24.834715 -3.525707
v 0.039424 -22.321081 -3.570951
v -0.044303 -22.474684 -3.724578
v 0.044305 -22.474684 -3.724578
v -0.039422 -22.321081 -3.570951
v -0.039422 -22.321081 -2.468929
v 0.044265 -22.473425 -2.295720
v -0.044263 -22.473425 -2.295720
v 0.039424 -22.321081 -2.468929
v 1.221074 -4.999997 -3.278140
v 2.905475 -9.999996 -2.283056
v 2.905475 -4.999997 -2.283056
v 1.221074 -9.999996 -3.278140
v 2.737364 -14.749006 -2.283056
v 0.000001 -4.999997 -3.468547
v 0.000001 -9.999996 -3.468547
v -1.221072 -4.999997 -3.278140
v 1.150422 -14.749010 -3.278140
v 2.169345 -22.155840 -1.042818
v 0.911703 -22.155844 -2.037902
v 1.762373 -25.156549 -1.042818
v -1.221072 -9.999996 -3.278140
v -2.905473 -4.999997 -2.283056
v -2.905474 -9.999996 -2.283056
v -2.737363 -14.749006 -2.283056
v -1.150421 -14.749010 -3.278140
v -2.169344 -22.155840 -1.042818
v -0.911701 -22.155844 -2.037902
v -1.762372 -25.156549 -1.042818
v 0.088005 -14.749006 -3.453982
v -0.088004 -14.749006 -3.453982
v 0.000001 -14.749006 -3.468547
v 0.156465 -19.342890 -2.669222
v 0.088005 -19.342890 -3.691289
v 0.156465 -22.155840 -2.195632
v -0.156463 -19.342890 -2.669222
v -0.088004 -19.342890 -3.691289
v -0.156463 -22.155840 -2.195632
v 0.000001 -19.342890 -3.724579
v 0.088005 -22.154390 -3.691289
v -0.088004 -22.154390 -3.691289
v 0.000001 -22.251226 -3.724579
v 0.740666 -25.156553 -1.537761
v 0.000001 -25.156549 -1.728168
v 0.000001 -22.251226 -2.228309
v -0.740665 -25.156553 -1.537761
v 0.641435 -25.526888 -1.537760
v 1.526261 -26.037737 -1.042817
v -0.641434 -25.526888 -1.537760
v -1.526259 -26.037737 -1.042817
v 0.370333 -25.797987 -1.537760
v 0.881188 -26.682810 -1.042816
v -0.370331 -25.797987 -1.537760
v -0.881186 -26.682810 -1.042816
v 0.000001 -25.897215 -1.537760
v 0.000001 -26.918924 -1.042817
vn -0.4522 -0.7772 -0.4376
vn -0.7731 -0.4462 -0.4508
vn -0.3640 -0.6348 -0.6815
vn -0.6256 -0.3674 -0.6882
vn -0.8650 -0.1780 -0.4692
vn -0.7026 -0.1634 -0.6925
vn -0.7379 -0.1364 -0.6610
vn -0.8406 -0.1450 -0.5220
vn -0.7608 -0.0852 -0.6434
vn -0.9330 -0.0646 -0.3539
vn -0.7619 -0.0154 -0.6475
vn -0.9286 -0.0215 -0.3704
vn -0.9288 -0.0000 -0.3705
vn -0.7594 -0.0000 -0.6506
vn -0.0000 -0.7337 -0.6794
vn -0.0000 -0.9016 -0.4326
vn 0.4522 -0.7772 -0.4376
vn 0.3640 -0.6348 -0.6815
vn -0.5242 -0.8513 -0.0248
vn -0.7274 -0.6862 -0.0017
vn -0.0000 -0.9996 -0.0280
vn -0.0000 -1.0000 -0.0000
vn 0.7274 -0.6862 -0.0017
vn 0.5242 -0.8513 -0.0248
vn -0.9989 -0.0077 -0.0457
vn -0.9980 0.0003 -0.0634
vn -0.9987 -0.0060 -0.0504
vn -0.9978 0.0017 -0.0668
vn -0.9978 0.0035 -0.0668
vn 0.7051 -0.1364 0.6959
vn 0.9972 -0.0750 -0.0066
vn 0.7071 -0.0616 0.7044
vn 1.0000 -0.0000 -0.0000
vn 0.7051 -0.0135 -0.7090
vn 0.7071 0.0616 -0.7044
vn -0.0000 -0.0872 0.9962
vn -0.0000 -0.1619 0.9868
vn -0.7071 -0.0616 0.7044
vn -0.7051 -0.1364 0.6959
vn -1.0000 -0.0000 -0.0000
vn -0.7051 -0.1364 0.6958
vn -0.9972 -0.0750 -0.0066
vn -0.7071 0.0616 -0.7044
vn -0.7051 -0.0135 -0.7090
vn -0.0000 0.0872 -0.9962
vn -0.0000 0.0119 -0.9999
vn 0.7026 0.0509 0.7097
vn 0.9936 0.1121 0.0098
vn 0.7026 0.1733 -0.6901
vn 0.7026 0.1734 -0.6901
vn 0.7026 0.1733 -0.6902
vn 0.7026 0.1734 -0.6902
vn -0.0000 0.1987 -0.9801
vn -0.7026 0.1733 -0.6902
vn -0.7026 0.1734 -0.6902
vn -0.7026 0.1733 -0.6901
vn -0.9936 0.1121 0.0098
vn -0.7026 0.0509 0.7097
vn -0.7026 0.0509 0.7098
vn -0.0000 0.0255 0.9997
vn 0.7026 0.0509 0.7098
vn 0.7026 0.0508 0.7098
vn -0.0000 0.7161 0.6980
vn 0.8093 -0.0512 0.5852
vn -0.8093 -0.0512 0.5852
vn -0.0000 -0.8264 0.5631
vn -0.0000 0.9962 0.0872
vn -0.0000 -0.9962 -0.0872
vn -0.0001 0.9962 0.0871
vn -0.0001 0.9962 0.0870
vn -0.0001 -0.9962 -0.0872
vn 0.6271 -0.5152 0.5843
vn 0.6271 -0.5151 0.5843
vn 0.8867 -0.4605 -0.0403
vn 0.6270 -0.4059 -0.6649
vn 0.6270 -0.4059 -0.6650
vn 0.6270 -0.4058 -0.6649
vn -0.0000 -0.3832 -0.9237
vn -0.6270 -0.4058 -0.6650
vn -0.6270 -0.4059 -0.6649
vn -0.8867 -0.4605 -0.0403
vn -0.6270 -0.5152 0.5843
vn -0.6270 -0.5152 0.5844
vn -0.6270 -0.5151 0.5844
vn -0.0000 -0.5378 0.8431
vn 0.6270 -0.5152 0.5844
vn 0.7071 0.0617 -0.7044
vn -0.7071 0.0617 -0.7044
vn -0.7071 -0.0617 0.7044
vn 0.7071 -0.0617 0.7044
vn 0.7062 -0.0000 -0.7080
vn 0.9807 -0.0000 -0.1958
vn 0.7061 -0.0000 -0.7081
vn -0.0000 -0.0000 -1.0000
vn -0.7061 -0.0001 -0.7081
vn -0.7061 -0.0000 -0.7081
vn -0.7062 -0.0000 -0.7080
vn -0.9807 -0.0000 -0.1958
vn 0.4522 -0.7772 -0.4375
vn 0.7731 -0.4462 -0.4508
vn 0.6256 -0.3675 -0.6882
vn 0.8650 -0.1780 -0.4692
vn 0.7026 -0.1634 -0.6925
vn 0.7379 -0.1364 -0.6610
vn 0.8406 -0.1450 -0.5220
vn 0.7608 -0.0852 -0.6434
vn 0.9330 -0.0646 -0.3539
vn 0.7619 -0.0154 -0.6476
vn 0.9286 -0.0215 -0.3704
vn 0.7594 -0.0000 -0.6506
vn 0.9288 -0.0000 -0.3705
vn 0.9989 -0.0077 -0.0457
vn 0.9987 -0.0060 -0.0504
vn 0.9980 0.0003 -0.0634
vn 0.9978 0.0017 -0.0668
vn 0.9978 0.0035 -0.0668
vn 0.0001 0.9962 0.0870
vn 0.0001 0.9962 0.0871
vn 0.0001 -0.9962 -0.0872
vn -0.6271 -0.5151 0.5843
vn -0.6271 -0.5152 0.5843
vn -0.6271 -0.4058 -0.6649
vn -0.6270 -0.4059 -0.6650
vn 0.6270 -0.5152 0.5843
vn 0.6270 -0.5151 0.5844
vn -0.9807 -0.0000 -0.1957
vn -0.0000 1.0000 -0.0000
vn -0.8659 0.4999 -0.0157
vn -0.8659 0.4999 -0.0156
vn -0.8659 -0.4999 -0.0157
vn -0.8659 -0.5000 -0.0157
vn -0.0000 0.9999 -0.0156
vn 0.8659 0.4999 -0.0156
vn 0.8659 0.4999 -0.0157
vn 0.8659 -0.4999 -0.0157
vn 0.8659 -0.5000 -0.0157
vn 0.8659 -0.5000 -0.0156
vn -0.0000 -0.9999 -0.0156
vn -0.8659 -0.4999 -0.0156
vn -0.0000 -0.0000 1.0000
vn 0.9995 -0.0307 -0.0000
vn -0.9995 -0.0307 -0.0000
vn -0.0000 -1.0000 0.0001
vn -0.9997 -0.0259 -0.0000
vn -0.9999 -0.0138 -0.0000
vn -0.9999 -0.0132 -0.0000
vn -1.0000 -0.0037 -0.0000
vn -0.9995 0.0318 -0.0000
vn 0.9997 -0.0259 -0.0000
vn 0.9999 -0.0138 -0.0000
vn 0.9999 -0.0132 -0.0000
vn 1.0000 -0.0037 -0.0000
vn 0.9995 0.0318 -0.0000
vn -0.0000 -0.8305 0.5571
vn -0.0000 -0.5534 0.8329
vn -0.0000 -0.1115 0.9938
vn -0.0000 0.1634 0.9866
vn -0.0000 -0.8305 -0.5571
vn -0.0000 -0.5534 -0.8329
vn -0.0000 -0.1934 -0.9811
vn -0.0000 -0.8305 0.5570
vn -0.0000 -0.9807 0.1957
vn -0.0000 -0.9807 -0.1956
vn -0.0000 -0.8305 -0.5570
vn -0.0000 0.7072 -0.7071
vn -0.0000 0.7072 -0.7070
vn -0.0000 0.7509 0.6604
vn 0.7618 -0.0154 -0.6476
vn 0.3374 -0.0000 -0.9414
vn 0.3397 -0.0046 -0.9405
vn 0.7607 -0.0852 -0.6434
vn -0.0000 -0.0010 -1.0000
vn -0.3374 -0.0000 -0.9414
vn 0.3532 -0.0891 -0.9313
vn 0.7378 -0.1364 -0.6611
vn 0.4093 -0.1514 -0.8998
vn 0.7026 -0.1634 -0.6926
vn -0.3397 -0.0046 -0.9405
vn -0.7594 -0.0001 -0.6506
vn -0.7618 -0.0154 -0.6476
vn -0.7607 -0.0852 -0.6434
vn -0.3532 -0.0891 -0.9313
vn -0.7378 -0.1364 -0.6611
vn -0.4093 -0.1514 -0.8998
vn -0.7026 -0.1634 -0.6926
vn 0.1639 -0.0285 -0.9861
vn -0.1639 -0.0285 -0.9861
vn -0.0000 0.0259 -0.9997
vn 0.2039 -0.1619 -0.9655
vn 0.3526 0.0262 -0.9354
vn 0.2271 -0.1656 -0.9597
vn -0.2039 -0.1619 -0.9655
vn -0.3526 0.0262 -0.9354
vn -0.2271 -0.1656 -0.9597
vn -0.0000 0.0277 -0.9996
vn 0.3538 -0.0000 -0.9353
vn -0.3538 -0.0000 -0.9353
vn 0.3467 -0.1326 -0.9286
vn -0.0000 -0.1679 -0.9858
vn -0.0000 -0.1697 -0.9855
vn -0.3467 -0.1326 -0.9286
vn 0.3106 -0.1793 -0.9335
vn 0.6256 -0.3674 -0.6882
vn -0.3106 -0.1793 -0.9335
vn 0.1793 -0.3106 -0.9335
vn 0.3640 -0.6348 -0.6816
vn -0.1793 -0.3106 -0.9335
vn -0.3640 -0.6348 -0.6816
vn -0.0000 -0.3586 -0.9335
vn -0.0000 -0.7337 -0.6795
vt -10.357738 0.145447
vt -10.373146 0.145447
vt -10.365479 0.125861
vt -10.377212 0.125861
vt -10.393240 0.145447
vt -10.393240 0.125861
vt -10.447819 0.125861
vt -10.447819 0.145447
vt -10.582541 0.102529
vt -10.582541 0.145447
vt -10.668920 0.102529
vt -10.668920 0.145447
vt -10.759864 0.145447
vt -10.759864 0.102529
vt 0.483239 0.125861
vt 0.500032 0.125861
vt 0.477980 0.145447
vt 0.500032 0.145447
vt 0.522084 0.145447
vt 0.516825 0.125861
vt 0.497051 0.104173
vt 0.498355 0.076036
vt 0.500032 0.103558
vt 0.500032 0.075410
vt 0.501709 0.076036
vt 0.503014 0.104173
vt -10.447819 0.104173
vt -10.498983 0.095264
vt -10.447845 0.076036
vt -10.498983 0.076036
vt -10.582541 0.080500
vt 11.425356 0.099244
vt 11.425583 0.096561
vt 11.438444 0.100428
vt 11.438671 0.097745
vt 11.425810 0.093878
vt 11.438898 0.095062
vt 0.530592 -10.438444
vt 0.533320 -10.438350
vt 0.530592 -10.425356
vt 0.533320 -10.425262
vt 0.536048 -10.438444
vt 0.536048 -10.425356
vt -10.438444 0.100428
vt -10.438671 0.097745
vt -10.425356 0.099244
vt -10.425583 0.096561
vt -10.438898 0.095062
vt -10.425810 0.093878
vt 0.463952 -10.438898
vt 0.466680 -10.438992
vt 0.463952 -10.425810
vt 0.466680 -10.425904
vt 0.469408 -10.438898
vt 0.469408 -10.425810
vt 11.450917 0.100523
vt 11.451057 0.098866
vt 11.451198 0.097209
vt 0.468365 -10.451198
vt 0.466680 -10.451255
vt 0.464995 -10.451198
vt -10.451198 0.097209
vt -10.451057 0.098866
vt -10.450917 0.100523
vt 0.535005 -10.450917
vt 0.533320 -10.450859
vt 0.531635 -10.450917
vt 0.534261 -10.432395
vt 0.532379 -10.432395
vt 0.536209 -10.434704
vt 0.530431 -10.434704
vt 11.432395 0.101980
vt 11.426851 0.101478
vt 11.434704 0.099529
vt 11.424989 0.098650
vt -10.426851 0.101478
vt -10.432395 0.101980
vt -10.424989 0.098650
vt -10.434704 0.099529
vt 0.467621 0.101478
vt 0.465739 0.101478
vt 0.469569 0.098650
vt 0.463791 0.098650
vt 0.532379 0.125670
vt 0.532379 0.101980
vt 0.534261 0.125670
vt 0.534261 0.101980
vt 11.424848 0.125168
vt 11.430391 0.125670
vt -10.430391 0.125670
vt -10.424848 0.125168
vt 0.465739 0.125168
vt 0.467621 0.125168
vt 0.506895 0.123962
vt 0.505960 0.123042
vt 0.532258 0.099019
vt 0.531323 0.098099
vt 11.428854 0.123042
vt 11.426803 0.122857
vt 11.430960 0.098099
vt 11.428917 0.097914
vt -10.426724 0.123777
vt -10.428777 0.123962
vt -10.428839 0.098834
vt -10.430882 0.099019
vt 0.494040 0.122857
vt 0.493105 0.123777
vt 0.468677 0.097914
vt 0.467742 0.098834
vt 11.491710 0.106096
vt 11.486970 0.103785
vt 11.492008 0.102572
vt 11.487110 0.102128
vt 11.492307 0.099047
vt 11.487250 0.100471
vt 0.470264 -10.492307
vt 0.468365 -10.487250
vt 0.466680 -10.492430
vt 0.466680 -10.487309
vt 0.463097 -10.492307
vt 0.464995 -10.487250
vt -10.492307 0.099047
vt -10.487250 0.100471
vt -10.492008 0.102572
vt -10.487110 0.102128
vt -10.491710 0.106096
vt -10.486970 0.103785
vt 0.536903 -10.491710
vt 0.535005 -10.486970
vt 0.533320 -10.491587
vt 0.533320 -10.486912
vt 0.529736 -10.491710
vt 0.531635 -10.486970
vt 11.591720 0.115146
vt 11.592018 0.111622
vt 11.592316 0.108097
vt 0.470264 -10.592316
vt 0.466681 -10.592440
vt 0.463097 -10.592316
vt -10.592316 0.108097
vt -10.592018 0.111622
vt -10.591720 0.115146
vt 0.536903 -10.591720
vt 0.533319 -10.591597
vt 0.529736 -10.591720
vt 11.497122 0.097675
vt 11.613291 0.097675
vt 11.497122 0.102572
vt 11.613291 0.102572
vt 11.613291 0.117481
vt 11.497122 0.117481
vt 0.471660 -10.613291
vt 0.471660 -10.497122
vt 0.466681 -10.613291
vt 0.466680 -10.497122
vt 0.461701 -10.613291
vt 0.461701 -10.497122
vt -10.613291 0.097675
vt -10.497122 0.097675
vt -10.613291 0.102572
vt -10.497122 0.102572
vt -10.497122 0.117481
vt -10.613291 0.117481
vt 0.459638 0.117481
vt 0.459638 0.102572
vt 0.473722 0.117481
vt 0.473722 0.102572
vt 0.461701 0.097675
vt 0.471660 0.097675
vt 0.466680 0.095646
vt 11.357738 0.145447
vt 11.365479 0.125861
vt 11.373146 0.145447
vt 11.377212 0.125861
vt 11.393240 0.145447
vt 11.393240 0.125861
vt 11.447819 0.125861
vt 11.447819 0.145447
vt 11.582541 0.102529
vt 11.582541 0.145447
vt 11.668920 0.102529
vt 11.668920 0.145447
vt 11.759864 0.102529
vt 11.759864 0.145447
vt 11.447819 0.104173
vt 11.447845 0.076036
vt 11.498983 0.095264
vt 11.498983 0.076036
vt 11.582541 0.080500
vt 0.469344 -10.438444
vt 0.469344 -10.425356
vt 0.466616 -10.438350
vt 0.466616 -10.425262
vt 0.463888 -10.438444
vt 0.463888 -10.425356
vt 0.536112 -10.438898
vt 0.536112 -10.425810
vt 0.533384 -10.438992
vt 0.533384 -10.425904
vt 0.530656 -10.438898
vt 0.530656 -10.425810
vt 0.531700 -10.451198
vt 0.533384 -10.451255
vt 0.535069 -10.451198
vt 0.464931 -10.450917
vt 0.466616 -10.450859
vt 0.468300 -10.450917
vt 0.469505 -10.434704
vt 0.467557 -10.432395
vt 0.463727 -10.434704
vt 0.465674 -10.432395
vt 0.536273 0.098650
vt 0.534326 0.101478
vt 0.530495 0.098650
vt 0.532443 0.101478
vt 0.465674 0.101980
vt 0.467557 0.101980
vt 0.465674 0.125670
vt 0.467557 0.125670
vt 0.532443 0.125168
vt 0.534326 0.125168
vt 0.468613 0.098099
vt 0.493976 0.123042
vt 0.467677 0.099019
vt 0.493040 0.123962
vt -10.428917 0.097914
vt -10.426803 0.122857
vt -10.430960 0.098099
vt -10.428854 0.123042
vt 11.430882 0.099019
vt 11.428777 0.123962
vt 11.428839 0.098834
vt 11.426724 0.123777
vt 0.532323 0.098834
vt 0.506960 0.123777
vt 0.531387 0.097914
vt 0.506024 0.122857
vt 0.529801 -10.492307
vt 0.533385 -10.492430
vt 0.531700 -10.487250
vt 0.533384 -10.487309
vt 0.536968 -10.492307
vt 0.535069 -10.487250
vt 0.463032 -10.491710
vt 0.466616 -10.491587
vt 0.464931 -10.486970
vt 0.466616 -10.486912
vt 0.470199 -10.491710
vt 0.468300 -10.486970
vt -10.592316 0.108097
vt 0.529801 -10.592316
vt 0.533385 -10.592440
vt 0.536968 -10.592316
vt 11.592316 0.108097
vt 0.463032 -10.591720
vt 0.466615 -10.591597
vt 0.470199 -10.591720
vt -10.497122 0.097675
vt 0.528405 -10.613291
vt 0.533385 -10.613291
vt 0.528405 -10.497122
vt 0.533385 -10.497122
vt 0.538364 -10.613291
vt 0.538364 -10.497122
vt 11.497122 0.097675
vt 0.540426 0.117481
vt 0.526343 0.117481
vt 0.540426 0.102572
vt 0.526343 0.102572
vt 0.538364 0.097675
vt 0.528405 0.097675
vt 0.533385 0.095646
vt 0.500719 0.078300
vt 0.500719 0.099032
vt 0.499216 0.078300
vt 0.499216 0.099032
vt -10.431153 0.125654
vt -10.430777 0.075900
vt -10.427919 0.125654
vt -10.428295 0.075900
vt 0.502219 0.075900
vt 0.502902 0.125654
vt 0.499968 0.075900
vt 0.499968 0.125654
vt 0.497716 0.075900
vt 0.497033 0.125654
vt 11.427919 0.125654
vt 11.428295 0.075900
vt 11.431153 0.125654
vt 11.430777 0.075900
vt 0.502284 0.075900
vt 0.502967 0.125654
vt 0.500032 0.075900
vt 0.500032 0.125654
vt 0.497781 0.075900
vt 0.497098 0.125654
vt 0.497033 -10.431153
vt 0.499968 -10.432771
vt 0.497033 -10.427919
vt 0.502902 -10.427919
vt 0.499968 -10.426302
vt 0.502902 -10.431153
vt 0.500032 -10.432017
vt 0.502284 -10.430777
vt 0.497781 -10.430777
vt 0.500032 -10.427054
vt 0.497781 -10.428295
vt 0.502284 -10.428295
vt 11.428964 0.101939
vt 11.400804 0.101939
vt 11.428964 0.100146
vt 11.400804 0.100146
vt -10.400804 0.100146
vt -10.400804 0.101939
vt -10.428964 0.100146
vt -10.428964 0.101939
vt 0.501280 -10.400804
vt 0.498784 -10.400804
vt 0.502187 -10.428964
vt 0.497877 -10.428964
vt 0.501280 0.101939
vt 0.498784 0.101939
vt 0.501280 0.100146
vt 0.498784 0.100146
vt 0.497813 -10.428964
vt 0.502123 -10.428964
vt 0.498720 -10.400804
vt 0.501216 -10.400804
vt 11.428964 0.092974
vt 11.400803 0.092974
vt 11.428964 0.091181
vt 11.400803 0.091181
vt -10.400803 0.091181
vt -10.400803 0.092974
vt -10.428964 0.091181
vt -10.428964 0.092974
vt 0.501280 -10.400803
vt 0.498784 -10.400803
vt 0.501280 0.092974
vt 0.498784 0.092974
vt 0.501280 0.091181
vt 0.498784 0.091181
vt 0.498720 -10.400803
vt 0.501216 -10.400803
vt 11.428964 0.083997
vt 11.400804 0.083997
vt 11.428964 0.082204
vt 11.400804 0.082204
vt -10.400804 0.082204
vt -10.400804 0.083997
vt -10.428964 0.082204
vt -10.428964 0.083997
vt 0.501280 0.083997
vt 0.498784 0.083997
vt 0.501280 0.082204
vt 0.498784 0.082204
vt -10.399094 0.104992
vt -10.401488 0.107468
vt -10.397871 0.101939
vt -10.404440 0.108733
vt -10.404440 0.075410
vt -10.397871 0.082204
vt -10.399094 0.079151
vt -10.401488 0.076675
vt -10.442019 0.075410
vt -10.442042 0.102290
vt -10.444814 0.099032
vt -10.444814 0.078300
vt 11.401488 0.107468
vt 11.399094 0.104992
vt 11.404440 0.108733
vt 11.397871 0.101939
vt 11.397871 0.082204
vt 11.404440 0.075410
vt 11.401488 0.076675
vt 11.399094 0.079151
vt 11.442019 0.075410
vt 11.442042 0.102290
vt 11.444814 0.099032
vt 11.444814 0.078300
vt 0.500521 -10.399094
vt 0.499414 -10.399094
vt 0.500586 -10.401488
vt 0.499350 -10.401488
vt 0.500666 -10.404440
vt 0.499269 -10.404440
vt 0.499124 -10.442042
vt 0.500811 -10.442042
vt 0.500586 -10.399094
vt 0.499479 -10.399094
vt 0.500650 -10.401488
vt 0.499414 -10.401488
vt 0.500731 -10.404440
vt 0.499334 -10.404440
vt 0.500876 -10.442019
vt 0.499188 -10.442019
vt 0.500586 0.104992
vt 0.499479 0.104992
vt 0.500552 0.101939
vt 0.499512 0.101939
vt 0.499512 0.082204
vt 0.500552 0.082204
vt 0.500586 0.079151
vt 0.499479 0.079151
vt 0.500784 -10.444814
vt 0.499281 -10.444814
vt 0.500811 0.102290
vt 0.499124 0.102290
vt 0.555402 -10.759864
vt 0.555402 -10.668920
vt 0.523303 -10.759864
vt 0.523303 -10.668920
vt 0.552198 -10.582541
vt 0.500033 -10.759864
vt 0.500033 -10.668920
vt 0.476763 -10.759864
vt 0.521956 -10.582541
vt 0.541373 -10.447819
vt 0.517406 -10.447819
vt 0.533617 -10.393240
vt 0.476763 -10.668920
vt 0.444664 -10.759864
vt 0.444664 -10.668920
vt 0.447867 -10.582541
vt 0.478109 -10.582541
vt 0.458691 -10.447819
vt 0.482658 -10.447819
vt 0.466447 -10.393240
vt 0.501710 -10.582541
vt 0.498356 -10.582541
vt 0.500033 -10.582541
vt 0.503014 -10.498983
vt 0.501709 -10.498983
vt 0.503014 -10.447819
vt 0.497051 -10.498983
vt 0.498355 -10.498983
vt 0.497051 -10.447819
vt 0.500032 -10.498983
vt 0.501709 -10.447845
vt 0.498355 -10.447845
vt 0.500032 -10.446084
vt 0.514147 -10.393240
vt 0.500032 -10.393240
vt 0.485917 -10.393240
vt 0.512256 -10.386504
vt 0.529118 -10.377212
vt 0.487808 -10.386504
vt 0.470946 -10.377212
vt 0.507089 -10.381573
vt 0.516825 -10.365479
vt 0.492975 -10.381573
vt 0.483239 -10.365479
vt 0.500032 -10.379768
vt 0.500032 -10.361184
s 1
g Dr_Hull_Stern_destroyer_A_001_1_hull_bottom
usemtl hull_bottom
f 3/1/1 2/2/2 1/3/3
f 4/4/4 1/3/3 2/2/2
f 2/2/2 5/5/5 4/4/4
f 6/6/6 4/4/4 5/5/5
f 6/6/6 5/5/5 7/7/7
f 8/8/8 7/7/7 5/5/5
f 7/7/7 8/8/8 9/9/9
f 10/10/10 9/9/9 8/8/8
f 9/9/9 10/10/10 11/11/11
f 12/12/12 11/11/11 10/10/10
f 12/12/12 13/13/13 11/11/11
f 14/14/14 11/11/11 13/13/13
f 17/15/3 16/16/15 15/17/1
f 18/18/16 15/17/1 16/16/15
f 18/18/16 16/16/15 19/19/17
f 20/20/18 19/19/17 16/16/15
f 23/21/19 22/22/20 21/23/21
f 24/24/22 21/23/21 22/22/20
f 24/24/22 25/25/23 21/23/21
f 26/26/24 21/23/21 25/25/23
f 29/27/25 28/28/26 27/29/27
f 30/30/28 27/29/27 28/28/26
f 31/31/29 30/30/28 28/28/26
f 34/32/30 33/33/31 32/34/32
f 35/35/33 32/34/32 33/33/31
f 33/33/31 36/36/34 35/35/33
f 37/37/35 35/35/33 36/36/34
f 40/38/32 39/39/36 38/40/30
f 41/41/37 38/40/30 39/39/36
f 39/39/36 42/42/38 41/41/37
f 43/43/39 41/41/37 42/42/38
f 46/44/38 45/45/40 44/46/41
f 47/47/42 44/46/41 45/45/40
f 45/45/40 48/48/43 47/47/42
f 49/49/44 47/47/42 48/48/43
f 52/50/43 51/51/45 50/52/44
f 53/53/46 50/52/44 51/51/45
f 51/51/45 54/54/35 53/53/46
f 55/55/34 53/53/46 54/54/35
f 58/56/47 57/34/47 56/57/48
f 59/35/48 56/57/48 57/34/47
f 56/57/48 59/35/48 60/58/49
f 61/37/50 60/58/49 59/35/48
f 64/59/51 63/54/52 62/60/53
f 65/51/53 62/60/53 63/54/52
f 62/60/53 65/51/53 66/61/54
f 67/50/55 66/61/54 65/51/53
f 70/62/56 69/48/56 68/63/57
f 71/45/57 68/63/57 69/48/56
f 68/63/57 71/45/57 72/64/58
f 73/44/58 72/64/58 71/45/57
f 76/65/59 75/42/59 74/66/60
f 77/39/60 74/66/60 75/42/59
f 74/66/60 77/39/60 78/67/61
f 79/38/62 78/67/61 77/39/60
f 82/68/63 81/69/63 80/70/63
f 83/71/63 80/70/63 81/69/63
f 86/72/64 85/73/64 84/74/64
f 87/75/64 84/74/64 85/73/64
f 90/76/65 89/77/65 88/78/65
f 91/79/65 88/78/65 89/77/65
f 94/80/66 93/81/66 92/82/66
f 95/83/66 92/82/66 93/81/66
f 98/84/67 97/85/67 96/86/67
f 99/87/67 96/86/67 97/85/67
f 102/88/33 101/73/33 100/89/33
f 103/72/33 100/89/33 101/73/33
f 106/90/40 105/77/40 104/91/40
f 107/76/40 104/91/40 105/77/40
f 110/92/68 109/81/68 108/93/68
f 111/80/68 108/93/68 109/81/68
f 114/94/69 113/95/69 112/96/70
f 115/97/70 112/96/70 113/95/69
f 118/98/35 117/99/35 116/100/35
f 119/101/35 116/100/35 117/99/35
f 122/102/38 121/103/38 120/104/38
f 123/105/38 120/104/38 121/103/38
f 126/106/71 125/107/71 124/108/71
f 127/109/71 124/108/71 125/107/71
f 130/110/72 129/111/73 128/112/74
f 131/113/74 128/112/74 129/111/73
f 128/112/74 131/113/74 132/114/75
f 133/115/75 132/114/75 131/113/74
f 136/116/76 135/117/77 134/118/78
f 137/119/78 134/118/78 135/117/77
f 134/118/78 137/119/78 138/120/79
f 139/121/80 138/120/79 137/119/78
f 142/122/80 141/123/80 140/124/81
f 143/125/81 140/124/81 141/123/80
f 140/124/81 143/125/81 144/126/82
f 145/127/82 144/126/82 143/125/81
f 148/128/83 147/129/84 146/130/85
f 149/131/85 146/130/85 147/129/84
f 146/130/85 149/131/85 150/132/86
f 151/133/86 150/132/86 149/131/85
f 154/134/32 153/110/32 152/135/33
f 155/112/33 152/135/33 153/110/32
f 152/135/33 155/112/33 156/136/35
f 157/114/35 156/136/35 155/112/33
f 160/137/35 159/116/87 158/138/45
f 161/118/45 158/138/45 159/116/87
f 158/138/45 161/118/45 162/139/43
f 163/120/88 162/139/43 161/118/45
f 166/140/43 165/122/43 164/141/40
f 167/124/40 164/141/40 165/122/43
f 164/141/40 167/124/40 168/142/38
f 169/126/38 168/142/38 167/124/40
f 172/143/89 171/128/89 170/144/36
f 173/130/36 170/144/36 171/128/89
f 170/144/36 173/130/36 174/145/90
f 175/132/32 174/145/90 173/130/36
f 178/146/91 177/147/91 176/148/92
f 179/149/92 176/148/92 177/147/91
f 179/149/92 180/150/33 176/148/92
f 181/151/33 176/148/92 180/150/33
f 184/152/93 183/153/93 182/154/94
f 185/155/94 182/154/94 183/153/93
f 182/154/94 185/155/94 186/156/95
f 187/157/96 186/156/95 185/155/94
f 190/158/97 189/159/97 188/160/98
f 191/161/98 188/160/98 189/159/97
f 191/161/98 192/162/40 188/160/98
f 193/163/40 188/160/98 192/162/40
f 196/164/22 195/165/22 194/166/22
f 197/167/22 194/166/22 195/165/22
f 195/165/22 198/168/22 197/167/22
f 199/169/22 197/167/22 198/168/22
f 200/170/22 199/169/22 198/168/22
f 203/171/99 202/172/18 201/173/100
f 204/174/101 201/173/100 202/172/18
f 201/173/100 204/174/101 205/175/102
f 206/176/103 205/175/102 204/174/101
f 206/176/103 207/177/104 205/175/102
f 208/178/105 205/175/102 207/177/104
f 207/177/104 209/179/106 208/178/105
f 210/180/107 208/178/105 209/179/106
f 209/179/106 211/181/108 210/180/107
f 212/182/109 210/180/107 211/181/108
f 211/181/108 213/183/110 212/182/109
f 214/184/111 212/182/109 213/183/110
f 217/185/112 216/186/113 215/187/114
f 218/188/115 215/187/114 216/186/113
f 218/188/115 219/189/116 215/187/114
f 222/46/39 221/44/38 220/47/42
f 223/45/40 220/47/42 221/44/38
f 220/47/42 223/45/40 224/49/44
f 225/48/43 224/49/44 223/45/40
f 228/190/38 227/191/39 226/192/36
f 229/193/37 226/192/36 227/191/39
f 226/192/36 229/193/37 230/194/32
f 231/195/30 230/194/32 229/193/37
f 234/34/32 233/32/30 232/35/33
f 235/33/31 232/35/33 233/32/30
f 232/35/33 235/33/31 236/37/35
f 237/36/34 236/37/35 235/33/31
f 240/196/35 239/197/34 238/198/45
f 241/199/46 238/198/45 239/197/34
f 238/198/45 241/199/46 242/200/43
f 243/201/44 242/200/43 241/199/46
f 246/64/58 245/63/57 244/44/58
f 247/45/57 244/44/58 245/63/57
f 245/63/57 248/62/56 247/45/57
f 249/48/56 247/45/57 248/62/56
f 252/202/54 251/203/53 250/200/55
f 253/198/53 250/200/55 251/203/53
f 251/203/53 254/204/52 253/198/53
f 255/196/52 253/198/53 254/204/52
f 258/58/49 257/57/48 256/37/50
f 259/35/48 256/37/50 257/57/48
f 257/57/48 260/56/47 259/35/48
f 261/34/47 259/35/48 260/56/47
f 264/205/61 263/206/60 262/194/62
f 265/192/60 262/194/62 263/206/60
f 263/206/60 266/207/59 265/192/60
f 267/190/59 265/192/60 266/207/59
f 270/208/63 269/209/63 268/210/63
f 271/211/63 268/210/63 269/209/63
f 274/78/65 273/76/65 272/79/65
f 275/77/65 272/79/65 273/76/65
f 278/74/64 277/72/64 276/75/64
f 279/73/64 276/75/64 277/72/64
f 282/212/66 281/213/66 280/214/66
f 283/215/66 280/214/66 281/213/66
f 286/216/67 285/217/67 284/218/67
f 287/219/67 284/218/67 285/217/67
f 290/77/40 289/76/40 288/90/40
f 291/91/40 288/90/40 289/76/40
f 294/73/33 293/72/33 292/88/33
f 295/89/33 292/88/33 293/72/33
f 298/215/68 297/213/68 296/220/68
f 299/221/68 296/220/68 297/213/68
f 302/222/117 301/223/118 300/224/117
f 303/225/118 300/224/117 301/223/118
f 306/226/43 305/227/43 304/228/43
f 307/229/43 304/228/43 305/227/43
f 310/230/32 309/231/32 308/232/32
f 311/233/32 308/232/32 309/231/32
f 314/234/119 313/235/119 312/236/119
f 315/237/119 312/236/119 313/235/119
f 318/126/120 317/124/81 316/127/121
f 319/125/81 316/127/121 317/124/81
f 317/124/81 320/122/80 319/125/81
f 321/123/122 319/125/81 320/122/80
f 324/238/123 323/239/78 322/240/80
f 325/241/78 322/240/80 323/239/78
f 323/239/78 326/242/75 325/241/78
f 327/243/75 325/241/78 326/242/75
f 330/114/75 329/112/74 328/115/75
f 331/113/74 328/115/75 329/112/74
f 329/112/74 332/110/124 331/113/74
f 333/111/124 331/113/74 332/110/124
f 336/244/86 335/245/85 334/246/125
f 337/247/85 334/246/125 335/245/85
f 335/245/85 338/248/83 337/247/85
f 339/249/84 337/247/85 338/248/83
f 342/142/38 341/141/40 340/126/38
f 343/124/40 340/126/38 341/141/40
f 341/141/40 344/250/43 343/124/40
f 345/122/43 343/124/40 344/250/43
f 348/251/43 347/252/45 346/238/88
f 349/239/45 346/238/88 347/252/45
f 347/252/45 350/253/35 349/239/45
f 351/242/87 349/239/45 350/253/35
f 354/254/35 353/135/33 352/114/35
f 355/112/33 352/114/35 353/135/33
f 353/135/33 356/134/32 355/112/33
f 357/110/32 355/112/33 356/134/32
f 360/255/90 359/256/36 358/244/32
f 361/245/36 358/244/32 359/256/36
f 359/256/36 362/257/89 361/245/36
f 363/248/89 361/245/36 362/257/89
f 366/258/97 365/161/98 364/158/97
f 367/160/126 364/158/97 365/161/98
f 367/160/126 365/161/98 368/163/40
f 369/162/40 368/163/40 365/161/98
f 372/259/96 371/260/94 370/261/96
f 373/262/94 370/261/96 371/260/94
f 371/260/94 374/263/93 373/262/94
f 375/264/93 373/262/94 374/263/93
f 378/147/91 377/149/92 376/265/91
f 379/148/92 376/265/91 377/149/92
f 379/148/92 377/149/92 380/151/33
f 381/150/33 380/151/33 377/149/92
f 384/266/22 383/267/22 382/268/22
f 385/269/22 382/268/22 383/267/22
f 382/268/22 385/269/22 386/270/22
f 387/271/22 386/270/22 385/269/22
f 387/271/22 388/272/22 386/270/22
f 391/273/127 390/274/127 389/275/127
f 392/276/127 389/275/127 390/274/127
f 395/277/128 394/278/129 393/279/130
f 396/280/131 393/279/130 394/278/129
f 399/281/129 398/282/128 397/283/132
f 400/284/132 397/283/132 398/282/128
f 397/283/132 400/284/132 401/285/133
f 402/286/134 401/285/133 400/284/132
f 405/287/135 404/288/136 403/289/134
f 406/290/133 403/289/134 404/288/136
f 409/291/137 408/292/135 407/293/138
f 410/294/138 407/293/138 408/292/135
f 407/293/138 410/294/138 411/295/139
f 412/296/130 411/295/139 410/294/138
f 415/297/140 414/298/140 413/299/140
f 414/298/140 416/300/140 413/299/140
f 413/299/140 416/300/140 417/301/140
f 418/302/140 416/300/140 414/298/140
f 421/303/94 420/304/94 419/305/94
f 420/304/94 422/306/94 419/305/94
f 419/305/94 422/306/94 423/307/94
f 424/308/94 422/306/94 420/304/94
f 427/309/141 426/310/141 425/311/141
f 428/312/141 425/311/141 426/310/141
f 431/313/142 430/314/142 429/315/142
f 432/316/142 429/315/142 430/314/142
f 435/317/94 434/318/94 433/319/94
f 436/320/94 433/319/94 434/318/94
f 439/321/22 438/322/22 437/323/22
f 440/324/22 437/323/22 438/322/22
f 443/325/140 442/326/140 441/327/140
f 444/328/140 441/327/140 442/326/140
f 447/329/141 446/330/141 445/331/141
f 448/332/141 445/331/141 446/330/141
f 451/333/142 450/334/142 449/335/142
f 452/336/142 449/335/142 450/334/142
f 455/337/94 454/338/94 453/319/94
f 456/320/94 453/319/94 454/338/94
f 459/339/143 458/340/143 457/341/143
f 460/342/143 457/341/143 458/340/143
f 463/325/140 462/326/140 461/343/140
f 464/344/140 461/343/140 462/326/140
f 467/345/141 466/346/141 465/347/141
f 468/348/141 465/347/141 466/346/141
f 471/349/142 470/350/142 469/351/142
f 472/352/142 469/351/142 470/350/142
f 475/317/94 474/318/94 473/319/94
f 476/320/94 473/319/94 474/318/94
f 479/353/22 478/354/22 477/355/22
f 480/356/22 477/355/22 478/354/22
f 483/325/140 482/326/140 481/327/140
f 484/328/140 481/327/140 482/326/140
f 487/357/144 486/358/144 485/359/144
f 488/360/145 485/359/144 486/358/144
f 488/360/145 489/361/146 485/359/144
f 490/362/144 485/359/144 489/361/146
f 490/362/144 489/361/146 491/363/144
f 492/364/144 491/363/144 489/361/146
f 489/361/146 488/360/145 493/365/147
f 494/366/147 493/365/147 488/360/145
f 494/366/147 495/367/148 493/365/147
f 496/368/148 493/365/147 495/367/148
f 499/369/149 498/370/149 497/371/150
f 500/372/149 497/371/150 498/370/149
f 500/372/149 501/373/149 497/371/150
f 502/374/151 497/371/150 501/373/149
f 502/374/151 501/373/149 503/375/149
f 504/376/149 503/375/149 501/373/149
f 502/374/151 505/377/152 497/371/150
f 506/378/152 497/371/150 505/377/152
f 506/378/152 505/377/152 507/379/153
f 508/380/153 507/379/153 505/377/152
f 511/381/154 510/382/154 509/383/155
f 512/384/155 509/383/155 510/382/154
f 509/383/155 512/384/155 513/385/156
f 514/386/156 513/385/156 512/384/155
f 514/386/156 515/387/157 513/385/156
f 516/388/157 513/385/156 515/387/157
f 519/389/158 518/390/158 517/391/159
f 520/392/159 517/391/159 518/390/158
f 517/391/159 520/392/159 521/393/160
f 522/394/160 521/393/160 520/392/159
f 521/393/160 522/394/160 523/395/94
f 524/396/94 523/395/94 522/394/160
f 527/397/161 526/398/161 525/399/162
f 528/400/162 525/399/162 526/398/161
f 528/400/162 529/401/163 525/399/162
f 530/402/163 525/399/162 529/401/163
f 530/402/163 529/401/163 531/403/164
f 532/404/164 531/403/164 529/401/163
f 535/395/165 534/396/165 533/405/165
f 536/406/166 533/405/165 534/396/165
f 539/407/167 538/408/167 537/274/167
f 540/276/167 537/274/167 538/408/167
f 543/409/110 542/410/168 541/411/169
f 544/412/170 541/411/169 542/410/168
f 542/410/168 545/413/171 544/412/170
f 541/411/169 544/412/170 546/414/94
f 547/415/172 546/414/94 544/412/170
f 546/414/94 547/415/172 548/416/173
f 549/417/174 544/412/170 545/413/171
f 544/412/170 549/417/174 547/415/172
f 545/413/171 550/418/175 549/417/174
f 551/419/176 549/417/174 550/418/175
f 550/418/175 552/420/177 551/419/176
f 553/421/178 548/416/173 547/415/172
f 548/416/173 553/421/178 554/422/179
f 555/423/180 554/422/179 553/421/178
f 555/423/180 553/421/178 556/424/181
f 557/425/182 556/424/181 553/421/178
f 553/421/178 547/415/172 557/425/182
f 556/424/181 557/425/182 558/426/183
f 559/427/184 558/426/183 557/425/182
f 558/426/183 559/427/184 560/428/185
f 561/429/186 547/415/172 549/417/174
f 549/417/174 551/419/176 561/429/186
f 562/430/187 557/425/182 547/415/172
f 557/425/182 562/430/187 559/427/184
f 547/415/172 561/429/186 563/431/188
f 562/430/187 547/415/172 563/431/188
f 561/429/186 551/419/176 564/432/189
f 561/429/186 565/433/190 563/431/188
f 564/432/189 551/419/176 566/434/191
f 562/430/187 567/435/192 559/427/184
f 562/430/187 563/431/188 568/436/193
f 559/427/184 567/435/192 569/437/194
f 570/438/195 563/431/188 565/433/190
f 570/438/195 568/436/193 563/431/188
f 565/433/190 571/439/196 570/438/195
f 568/436/193 570/438/195 572/440/197
f 573/441/94 570/438/195 571/439/196
f 573/441/94 572/440/197 570/438/195
f 551/419/176 574/442/198 566/434/191
f 574/442/198 551/419/176 552/420/177
f 575/443/199 566/434/191 574/442/198
f 566/434/191 575/443/199 576/441/200
f 575/443/199 569/437/194 576/441/200
f 559/427/184 569/437/194 577/444/201
f 575/443/199 577/444/201 569/437/194
f 577/444/201 560/428/185 559/427/184
f 574/442/198 552/420/177 578/445/202
f 574/442/198 578/445/202 575/443/199
f 579/446/203 578/445/202 552/420/177
f 577/444/201 580/447/204 560/428/185
f 580/447/204 577/444/201 575/443/199
f 581/448/4 560/428/185 580/447/204
f 578/445/202 579/446/203 582/449/205
f 578/445/202 582/449/205 575/443/199
f 583/450/206 582/449/205 579/446/203
f 580/447/204 584/451/207 581/448/4
f 584/451/207 580/447/204 575/443/199
f 585/452/208 581/448/4 584/451/207
f 582/449/205 586/453/209 575/443/199
f 582/449/205 583/450/206 586/453/209
f 586/453/209 584/451/207 575/443/199
f 584/451/207 586/453/209 585/452/208
f 587/454/210 586/453/209 583/450/206
f 587/454/210 585/452/208 586/453/209
