# Blender 5.1.0
# www.blender.org
mtllib Dr_Hull_Rostrum_destroyer_A_001_6.mtl
o Dr_Hull_Rostrum_destroyer_A_001_6
v -2.356007 9.999998 4.693460
v -2.356009 9.999998 4.562951
v 2.356005 9.999998 4.693460
v 2.356007 9.999998 4.562951
v -2.356009 10.515450 2.693636
v -2.356009 9.999998 4.562951
v -2.356009 9.999998 2.693636
v -2.356009 10.515450 4.562951
v -0.000001 9.999998 4.693460
v -0.000001 9.999998 2.693636
v -2.356009 9.999998 2.693636
v 2.356007 9.999998 2.693636
v 2.356007 10.515450 2.693636
v 2.356007 9.999998 4.562951
v 2.356007 10.515450 4.562951
v 2.356007 9.999998 2.693636
vn -1.0000 -0.0000 -0.0000
vn -0.0000 -1.0000 -0.0000
vn 1.0000 -0.0000 -0.0000
vt -11.396472 0.196153
vt -11.396472 0.231319
vt -11.405848 0.196153
vt -11.405848 0.231319
vt 0.455137 0.233775
vt 0.455137 0.231319
vt 0.500035 0.233775
vt 0.500035 0.196153
vt 0.455137 0.196153
vt 0.544933 0.231319
vt 0.544933 0.233775
vt 0.544933 0.196153
vt 12.405848 0.231319
vt 12.396472 0.231319
vt 12.405848 0.196153
vt 12.396472 0.196153
s 1
g Dr_Hull_Rostrum_destroyer_A_001_6_steel_board_2
usemtl steel_board_2
f 7/1/1 6/2/1 5/3/1
f 8/4/1 5/3/1 6/2/1
f 1/5/2 2/6/2 9/7/2
f 10/8/2 9/7/2 2/6/2
f 11/9/2 10/8/2 2/6/2
f 10/8/2 4/10/2 9/7/2
f 3/11/2 9/7/2 4/10/2
f 10/8/2 12/12/2 4/10/2
f 15/13/3 14/14/3 13/15/3
f 16/16/3 13/15/3 14/14/3
