# Blender 5.1.0
# www.blender.org
mtllib Dr_Hull_Rostrum_destroyer_A_001_9.mtl
o Dr_Hull_Rostrum_destroyer_A_001_9
v -1.290930 28.426706 5.055552
v -1.343663 28.540987 5.170989
v -1.331044 28.550169 5.055554
v -1.306527 28.426706 5.170986
v -1.331045 28.303244 5.055552
v -1.343663 28.312426 5.170988
v -1.440884 28.611635 5.170989
v -1.331044 28.550169 5.055554
v -1.343663 28.540987 5.170989
v -1.436064 28.626482 5.055552
v -1.561057 28.611635 5.170989
v -1.565877 28.626482 5.055554
v -1.658280 28.541010 5.170989
v -1.670899 28.550169 5.055554
v -1.695416 28.426706 5.170989
v -1.670899 28.550169 5.055554
v -1.658280 28.541010 5.170989
v -1.711013 28.426706 5.055554
v -1.658280 28.312426 5.170989
v -1.670899 28.303244 5.055554
v -1.561058 28.241777 5.170989
v -1.670899 28.303244 5.055554
v -1.658280 28.312426 5.170989
v -1.565879 28.226954 5.055554
v -1.440885 28.241777 5.170988
v -1.436065 28.226954 5.055554
v -1.343663 28.312426 5.170988
v -1.331045 28.303244 5.055552
v 1.343659 28.540987 5.170989
v 1.290927 28.426706 5.055552
v 1.331040 28.550169 5.055554
v 1.306524 28.426706 5.170986
v 1.331041 28.303244 5.055552
v 1.343660 28.312426 5.170988
v 1.331040 28.550169 5.055554
v 1.440880 28.611635 5.170989
v 1.343659 28.540987 5.170989
v 1.436060 28.626482 5.055552
v 1.561054 28.611635 5.170989
v 1.565874 28.626482 5.055554
v 1.658276 28.541010 5.170989
v 1.670895 28.550169 5.055554
v 1.670895 28.550169 5.055554
v 1.695412 28.426706 5.170989
v 1.658276 28.541010 5.170989
v 1.711010 28.426706 5.055554
v 1.658277 28.312426 5.170989
v 1.670896 28.303244 5.055554
v 1.670896 28.303244 5.055554
v 1.561055 28.241777 5.170989
v 1.658277 28.312426 5.170989
v 1.565875 28.226954 5.055554
v 1.440881 28.241777 5.170988
v 1.436061 28.226954 5.055554
v 1.343660 28.312426 5.170988
v 1.331041 28.303244 5.055552
v 0.210039 27.348833 5.055552
v 0.157307 27.463114 5.170989
v 0.169926 27.472292 5.055554
v 0.194442 27.348833 5.170986
v 0.169925 27.225367 5.055552
v 0.157306 27.234552 5.170988
v 0.060086 27.533754 5.170989
v 0.169926 27.472292 5.055554
v 0.157307 27.463114 5.170989
v 0.064906 27.548601 5.055552
v -0.060088 27.533754 5.170989
v -0.064907 27.548601 5.055554
v -0.157310 27.463129 5.170989
v -0.169929 27.472292 5.055554
v -0.194446 27.348833 5.170989
v -0.169929 27.472292 5.055554
v -0.157310 27.463129 5.170989
v -0.210044 27.348833 5.055554
v -0.157311 27.234552 5.170989
v -0.169930 27.225367 5.055554
v -0.060089 27.163904 5.170989
v -0.169930 27.225367 5.055554
v -0.157311 27.234552 5.170989
v -0.064909 27.149073 5.055554
v 0.060085 27.163904 5.170988
v 0.064905 27.149073 5.055554
v 0.157306 27.234552 5.170988
v 0.169925 27.225367 5.055552
vn 0.6024 0.4376 0.6675
vn 0.7398 0.5375 -0.4046
vn 0.7446 -0.0000 0.6675
vn 0.9145 -0.0000 -0.4046
vn 0.6024 -0.4378 0.6675
vn 0.7399 -0.5375 -0.4046
vn 0.7399 0.5375 -0.4046
vn 0.2826 0.8697 -0.4046
vn 0.2301 0.7081 0.6675
vn -0.2826 0.8698 -0.4046
vn -0.2301 0.7082 0.6675
vn -0.7399 0.5375 -0.4046
vn -0.6024 0.4377 0.6675
vn -0.7398 0.5375 -0.4046
vn -0.9145 -0.0000 -0.4046
vn -0.7446 -0.0000 0.6675
vn -0.7398 -0.5375 -0.4046
vn -0.6024 -0.4377 0.6675
vn -0.7399 -0.5375 -0.4046
vn -0.2826 -0.8697 -0.4046
vn -0.2301 -0.7082 0.6674
vn 0.2826 -0.8697 -0.4047
vn 0.2301 -0.7082 0.6675
vn 0.6024 -0.4377 0.6675
vn -0.2826 0.8697 -0.4046
vn 0.2826 0.8698 -0.4046
vn 0.2301 0.7082 0.6675
vn 0.6025 0.4377 0.6674
vn 0.7398 0.5376 -0.4046
vn 0.6024 0.4377 0.6675
vn 0.2826 -0.8697 -0.4046
vn 0.2301 -0.7082 0.6674
vn -0.2826 -0.8697 -0.4047
vn -0.2301 -0.7082 0.6675
vn 0.2827 0.8697 -0.4046
vn 0.7399 -0.5374 -0.4046
vt 12.588367 0.240587
vt 12.588201 0.242758
vt 12.586122 0.240586
vt 12.586122 0.242758
vt 12.583876 0.240587
vt 12.584043 0.242758
vt 0.525570 0.242758
vt 0.525330 0.240587
vt 0.527423 0.242758
vt 0.527331 0.240587
vt 0.529713 0.242758
vt 0.529805 0.240587
vt 0.531566 0.242758
vt 0.531806 0.240587
vt -11.588201 0.242758
vt -11.588367 0.240587
vt -11.586122 0.242758
vt -11.586122 0.240587
vt -11.584043 0.242758
vt -11.583876 0.240587
vt 0.468434 0.242758
vt 0.468194 0.240587
vt 0.470287 0.242758
vt 0.470195 0.240587
vt 0.472577 0.242758
vt 0.472669 0.240587
vt 0.474430 0.242758
vt 0.474670 0.240587
vt -11.586122 0.240586
vt -11.586122 0.242758
vt -11.584043 0.242758
vt 0.474359 0.242758
vt 0.472506 0.242758
vt 0.474599 0.240587
vt 0.472598 0.240587
vt 0.470216 0.242758
vt 0.470124 0.240587
vt 0.468363 0.242758
vt 0.468122 0.240587
vt 12.586122 0.242758
vt 12.586122 0.240587
vt 12.584043 0.242758
vt 0.531637 0.242758
vt 0.529784 0.242758
vt 0.531878 0.240587
vt 0.529876 0.240587
vt 0.527494 0.242758
vt 0.527402 0.240587
vt 0.525641 0.242758
vt 0.525401 0.240587
vt 12.568762 0.240587
vt 12.568595 0.242758
vt 12.566516 0.240586
vt 12.566516 0.242758
vt 12.564271 0.240587
vt 12.564438 0.242758
vt 0.496967 0.242758
vt 0.496726 0.240587
vt 0.498819 0.242758
vt 0.498728 0.240587
vt 0.501110 0.242758
vt 0.501201 0.240587
vt 0.502962 0.242758
vt 0.503203 0.240587
vt -11.568595 0.242758
vt -11.568762 0.240587
vt -11.566516 0.242758
vt -11.566516 0.240587
vt -11.564438 0.242758
vt -11.564271 0.240587
vt 0.497038 0.242758
vt 0.496797 0.240587
vt 0.498890 0.242758
vt 0.498799 0.240587
vt 0.501181 0.242758
vt 0.501272 0.240587
vt 0.503033 0.242758
vt 0.503274 0.240587
s 1
g Dr_Hull_Rostrum_destroyer_A_001_9_details_3
usemtl details_3
f 3/1/1 2/2/2 1/3/3
f 4/4/4 1/3/3 2/2/2
f 1/3/3 4/4/4 5/5/5
f 6/6/6 5/5/5 4/4/4
f 9/7/7 8/8/1 7/9/8
f 10/10/9 7/9/8 8/8/1
f 7/9/8 10/10/9 11/11/10
f 12/12/11 11/11/10 10/10/9
f 11/11/10 12/12/11 13/13/12
f 14/14/13 13/13/12 12/12/11
f 17/15/14 16/16/13 15/17/15
f 18/18/16 15/17/15 16/16/13
f 15/17/15 18/18/16 19/19/17
f 20/20/18 19/19/17 18/18/16
f 23/21/19 22/22/18 21/23/20
f 24/24/21 21/23/20 22/22/18
f 21/23/20 24/24/21 25/25/22
f 26/26/23 25/25/22 24/24/21
f 25/25/22 26/26/23 27/27/6
f 28/28/24 27/27/6 26/26/23
f 31/16/13 30/29/16 29/15/14
f 32/30/15 29/15/14 30/29/16
f 30/29/16 33/20/18 32/30/15
f 34/31/17 32/30/15 33/20/18
f 37/32/12 36/33/25 35/34/13
f 38/35/11 35/34/13 36/33/25
f 36/33/25 39/36/26 38/35/11
f 40/37/27 38/35/11 39/36/26
f 39/36/26 41/38/2 40/37/27
f 42/39/28 40/37/27 41/38/2
f 45/2/29 44/40/4 43/1/30
f 46/41/3 43/1/30 44/40/4
f 44/40/4 47/42/6 46/41/3
f 48/5/24 46/41/3 47/42/6
f 51/43/6 50/44/31 49/45/24
f 52/46/32 49/45/24 50/44/31
f 50/44/31 53/47/33 52/46/32
f 54/48/34 52/46/32 53/47/33
f 53/47/33 55/49/17 54/48/34
f 56/50/18 54/48/34 55/49/17
f 59/51/30 58/52/2 57/53/3
f 60/54/4 57/53/3 58/52/2
f 57/53/3 60/54/4 61/55/24
f 62/56/6 61/55/24 60/54/4
f 65/57/2 64/58/30 63/59/35
f 66/60/27 63/59/35 64/58/30
f 63/59/35 66/60/27 67/61/10
f 68/62/11 67/61/10 66/60/27
f 67/61/10 68/62/11 69/63/12
f 70/64/13 69/63/12 68/62/11
f 73/65/14 72/66/13 71/67/15
f 74/68/16 71/67/15 72/66/13
f 71/67/15 74/68/16 75/69/17
f 76/70/18 75/69/17 74/68/16
f 79/71/17 78/72/18 77/73/20
f 80/74/21 77/73/20 78/72/18
f 77/73/20 80/74/21 81/75/22
f 82/76/23 81/75/22 80/74/21
f 81/75/22 82/76/23 83/77/36
f 84/78/24 83/77/36 82/76/23
