# Blender 5.1.0
# www.blender.org
mtllib Dr_Hull_Stern_destroyer_A_001_5.mtl
o Dr_Hull_Stern_destroyer_A_001_5
v -1.547692 -23.378340 -2.600284
v -1.606988 -23.390818 -2.457674
v -1.606988 -23.365858 -2.742893
v -1.606988 -23.390818 -2.457674
v -1.750143 -23.395983 -2.398603
v -1.893298 -23.390818 -2.457674
v -1.893298 -23.390818 -2.457674
v -1.952594 -23.378340 -2.600284
v -1.893297 -23.365858 -2.742893
v -1.893297 -23.365858 -2.742893
v -1.750143 -23.360697 -2.801965
v -1.606988 -23.365858 -2.742893
v 1.547693 -23.378340 -2.600284
v 1.606990 -23.390818 -2.457674
v 1.606990 -23.365858 -2.742893
v 1.606990 -23.390818 -2.457674
v 1.750144 -23.395983 -2.398603
v 1.893299 -23.390818 -2.457674
v 1.893299 -23.390818 -2.457674
v 1.952595 -23.378340 -2.600284
v 1.893299 -23.365858 -2.742893
v 1.893299 -23.365858 -2.742893
v 1.750144 -23.360697 -2.801965
v 1.606990 -23.365858 -2.742893
v -1.959737 -23.501463 -2.059111
v -1.660311 -23.565771 -2.489301
v -1.867650 -23.445765 -2.482603
v -1.581652 -23.638765 -2.066739
v -1.591741 -23.633455 -1.706940
v -1.939816 -23.572039 -1.704459
v -1.696472 -23.601973 -1.500379
v -1.824102 -23.600397 -1.501931
v -1.654450 -23.551538 -2.488733
v -1.948618 -23.470358 -2.055382
v -1.860213 -23.433207 -2.478382
v -1.570340 -23.607504 -2.067381
v -1.584130 -23.601160 -1.704850
v -1.934828 -23.539557 -1.699460
v -1.694857 -23.588152 -1.498962
v -1.824102 -23.588152 -1.498962
v -1.581652 -23.638765 -2.066739
v -1.654450 -23.551538 -2.488733
v -1.660311 -23.565771 -2.489301
v -1.570340 -23.607504 -2.067381
v -1.591741 -23.633455 -1.706940
v -1.584130 -23.601160 -1.704850
v -1.696472 -23.601973 -1.500379
v -1.694857 -23.588152 -1.498962
v -1.948618 -23.470358 -2.055382
v -1.867650 -23.445765 -2.482603
v -1.860213 -23.433207 -2.478382
v -1.959737 -23.501463 -2.059111
v -1.934828 -23.539557 -1.699460
v -1.939816 -23.572039 -1.704459
v -1.824102 -23.588152 -1.498962
v -1.824102 -23.600397 -1.501931
v -1.694857 -23.588152 -1.498962
v -1.824102 -23.600397 -1.501931
v -1.824102 -23.588152 -1.498962
v -1.696472 -23.601973 -1.500379
v -2.121529 -23.413748 -3.061560
v -1.904951 -23.555990 -2.601428
v -1.798003 -23.420835 -2.767951
v -2.314354 -23.579023 -2.749529
v -2.619317 -23.526144 -2.933341
v -2.442784 -23.438845 -3.226851
v -2.742782 -23.460215 -3.120524
v -2.677510 -23.449232 -3.229670
v -1.907297 -23.542299 -2.594795
v -2.127957 -23.383364 -3.049739
v -1.804415 -23.408434 -2.761961
v -2.317096 -23.549078 -2.735387
v -2.622488 -23.494532 -2.923591
v -2.447140 -23.406462 -3.220760
v -2.743768 -23.446486 -3.118022
v -2.679146 -23.436731 -3.229525
v -2.314354 -23.579023 -2.749529
v -1.907297 -23.542299 -2.594795
v -1.904951 -23.555990 -2.601428
v -2.317096 -23.549078 -2.735387
v -2.619317 -23.526144 -2.933341
v -2.622488 -23.494532 -2.923591
v -2.127957 -23.383364 -3.049739
v -1.798003 -23.420835 -2.767951
v -1.804415 -23.408434 -2.761961
v -2.121529 -23.413748 -3.061560
v -2.447140 -23.406462 -3.220760
v -2.442784 -23.438845 -3.226851
v -2.679146 -23.436731 -3.229525
v -2.677510 -23.449232 -3.229670
v -2.743768 -23.446486 -3.118022
v -2.677510 -23.449232 -3.229670
v -2.679146 -23.436731 -3.229525
v -2.742782 -23.460215 -3.120524
v -2.622488 -23.494532 -2.923591
v -2.619317 -23.526144 -2.933341
v -1.169166 -23.445398 -2.699916
v -1.685160 -23.542429 -2.756417
v -1.584770 -23.438578 -2.565184
v -1.354426 -23.553587 -3.040255
v -1.039373 -23.502245 -3.206660
v -0.867831 -23.467474 -2.899578
v -0.811177 -23.452116 -3.213132
v -0.748820 -23.460402 -3.102060
v -1.688676 -23.527838 -2.759898
v -1.173856 -23.413328 -2.707280
v -1.585795 -23.425047 -2.572027
v -1.362995 -23.521929 -3.045631
v -1.043813 -23.469465 -3.210042
v -0.868464 -23.434336 -2.902096
v -0.811806 -23.438150 -3.213417
v -0.747183 -23.447897 -3.101915
v -1.354426 -23.553587 -3.040255
v -1.688676 -23.527838 -2.759898
v -1.685160 -23.542429 -2.756417
v -1.362995 -23.521929 -3.045631
v -1.039373 -23.502245 -3.206660
v -1.043813 -23.469465 -3.210042
v -0.811177 -23.452116 -3.213132
v -0.811806 -23.438150 -3.213417
v -1.173856 -23.413328 -2.707280
v -1.584770 -23.438578 -2.565184
v -1.585795 -23.425047 -2.572027
v -1.169166 -23.445398 -2.699916
v -0.868464 -23.434336 -2.902096
v -0.867831 -23.467474 -2.899578
v -0.748820 -23.460402 -3.102060
v -0.811806 -23.438150 -3.213417
v -0.811177 -23.452116 -3.213132
v -0.747183 -23.447897 -3.101915
v -0.867831 -23.467474 -2.899578
v -0.868464 -23.434336 -2.902096
v -1.589623 -23.648413 -2.623912
v -1.636638 -23.658304 -2.510840
v -1.636638 -23.638521 -2.736985
v -1.636638 -23.658304 -2.510840
v -1.750143 -23.662405 -2.464003
v -1.863647 -23.658304 -2.510840
v -1.863647 -23.658304 -2.510840
v -1.910662 -23.648413 -2.623912
v -1.863647 -23.638521 -2.736985
v -1.863647 -23.638521 -2.736985
v -1.750143 -23.634424 -2.783820
v -1.636638 -23.638521 -2.736985
v -1.625111 -19.995661 -2.304325
v -1.661732 -21.985525 -2.389682
v -1.661732 -20.003368 -2.216250
v -1.625111 -21.977819 -2.477756
v -1.661732 -19.987951 -2.392398
v -1.661732 -21.970110 -2.565830
v -1.750143 -19.984764 -2.428880
v -1.661732 -21.970110 -2.565830
v -1.661732 -19.987951 -2.392398
v -1.750143 -21.966921 -2.602311
v -1.838554 -19.987951 -2.392398
v -1.838554 -21.970110 -2.565830
v -1.875175 -19.995661 -2.304325
v -1.838554 -21.970110 -2.565830
v -1.838554 -19.987951 -2.392398
v -1.875175 -21.977819 -2.477756
v -1.838554 -20.003368 -2.216250
v -1.838554 -21.985525 -2.389682
v -1.750143 -20.006552 -2.179768
v -1.838554 -21.985525 -2.389682
v -1.838554 -20.003368 -2.216250
v -1.750143 -21.988714 -2.353200
v -1.661732 -20.003368 -2.216250
v -1.661732 -21.985525 -2.389682
v 1.660313 -23.565771 -2.489301
v 1.959738 -23.501463 -2.059111
v 1.867652 -23.445765 -2.482603
v 1.581653 -23.638765 -2.066739
v 1.591742 -23.633455 -1.706940
v 1.939817 -23.572039 -1.704459
v 1.696474 -23.601973 -1.500379
v 1.824103 -23.600397 -1.501931
v 1.948619 -23.470358 -2.055382
v 1.654451 -23.551538 -2.488733
v 1.860214 -23.433207 -2.478382
v 1.570342 -23.607504 -2.067381
v 1.584132 -23.601160 -1.704850
v 1.934829 -23.539557 -1.699460
v 1.694858 -23.588152 -1.498962
v 1.824103 -23.588152 -1.498962
v 1.654451 -23.551538 -2.488733
v 1.581653 -23.638765 -2.066739
v 1.660313 -23.565771 -2.489301
v 1.570342 -23.607504 -2.067381
v 1.591742 -23.633455 -1.706940
v 1.584132 -23.601160 -1.704850
v 1.696474 -23.601973 -1.500379
v 1.694858 -23.588152 -1.498962
v 1.867652 -23.445765 -2.482603
v 1.948619 -23.470358 -2.055382
v 1.860214 -23.433207 -2.478382
v 1.959738 -23.501463 -2.059111
v 1.934829 -23.539557 -1.699460
v 1.939817 -23.572039 -1.704459
v 1.824103 -23.588152 -1.498962
v 1.824103 -23.600397 -1.501931
v 1.694858 -23.588152 -1.498962
v 1.824103 -23.600397 -1.501931
v 1.696474 -23.601973 -1.500379
v 1.824103 -23.588152 -1.498962
v 1.904953 -23.555990 -2.601428
v 2.121529 -23.413748 -3.061560
v 1.798004 -23.420835 -2.767951
v 2.314355 -23.579023 -2.749529
v 2.619318 -23.526144 -2.933341
v 2.442785 -23.438845 -3.226851
v 2.742783 -23.460215 -3.120524
v 2.677510 -23.449232 -3.229670
v 2.127958 -23.383364 -3.049739
v 1.907298 -23.542299 -2.594795
v 1.804416 -23.408434 -2.761961
v 2.317097 -23.549078 -2.735387
v 2.622489 -23.494532 -2.923591
v 2.447140 -23.406462 -3.220760
v 2.743769 -23.446486 -3.118022
v 2.679147 -23.436731 -3.229525
v 1.907298 -23.542299 -2.594795
v 2.314355 -23.579023 -2.749529
v 1.904953 -23.555990 -2.601428
v 2.317097 -23.549078 -2.735387
v 2.619318 -23.526144 -2.933341
v 2.622489 -23.494532 -2.923591
v 1.798004 -23.420835 -2.767951
v 2.127958 -23.383364 -3.049739
v 1.804416 -23.408434 -2.761961
v 2.121529 -23.413748 -3.061560
v 2.447140 -23.406462 -3.220760
v 2.442785 -23.438845 -3.226851
v 2.679147 -23.436731 -3.229525
v 2.677510 -23.449232 -3.229670
v 2.677510 -23.449232 -3.229670
v 2.743769 -23.446486 -3.118022
v 2.679147 -23.436731 -3.229525
v 2.742783 -23.460215 -3.120524
v 2.622489 -23.494532 -2.923591
v 2.619318 -23.526144 -2.933341
v 1.685162 -23.542429 -2.756417
v 1.169168 -23.445398 -2.699916
v 1.584771 -23.438578 -2.565184
v 1.354427 -23.553587 -3.040255
v 1.039375 -23.502245 -3.206660
v 0.867833 -23.467474 -2.899578
v 0.811179 -23.452116 -3.213132
v 0.748822 -23.460402 -3.102060
v 1.173857 -23.413328 -2.707280
v 1.688678 -23.527838 -2.759898
v 1.585796 -23.425047 -2.572027
v 1.362996 -23.521929 -3.045631
v 1.043814 -23.469465 -3.210042
v 0.868465 -23.434336 -2.902096
v 0.811807 -23.438150 -3.213417
v 0.747185 -23.447897 -3.101915
v 1.688678 -23.527838 -2.759898
v 1.354427 -23.553587 -3.040255
v 1.685162 -23.542429 -2.756417
v 1.362996 -23.521929 -3.045631
v 1.039375 -23.502245 -3.206660
v 1.043814 -23.469465 -3.210042
v 0.811179 -23.452116 -3.213132
v 0.811807 -23.438150 -3.213417
v 1.584771 -23.438578 -2.565184
v 1.173857 -23.413328 -2.707280
v 1.585796 -23.425047 -2.572027
v 1.169168 -23.445398 -2.699916
v 0.868465 -23.434336 -2.902096
v 0.867833 -23.467474 -2.899578
v 0.811807 -23.438150 -3.213417
v 0.748822 -23.460402 -3.102060
v 0.811179 -23.452116 -3.213132
v 0.747185 -23.447897 -3.101915
v 0.867833 -23.467474 -2.899578
v 0.868465 -23.434336 -2.902096
v 1.589625 -23.648413 -2.623912
v 1.636639 -23.658304 -2.510840
v 1.636639 -23.638521 -2.736985
v 1.636639 -23.658304 -2.510840
v 1.750144 -23.662405 -2.464003
v 1.863649 -23.658304 -2.510840
v 1.863649 -23.658304 -2.510840
v 1.910663 -23.648413 -2.623912
v 1.863648 -23.638521 -2.736985
v 1.863648 -23.638521 -2.736985
v 1.750144 -23.634424 -2.783820
v 1.636639 -23.638521 -2.736985
v 1.661734 -21.985525 -2.389682
v 1.625113 -19.995661 -2.304325
v 1.661734 -20.003368 -2.216250
v 1.625113 -21.977819 -2.477756
v 1.661734 -19.987951 -2.392398
v 1.661734 -21.970110 -2.565830
v 1.661734 -21.970110 -2.565830
v 1.750144 -19.984764 -2.428880
v 1.661734 -19.987951 -2.392398
v 1.750144 -21.966921 -2.602311
v 1.838555 -19.987951 -2.392398
v 1.838555 -21.970110 -2.565830
v 1.838555 -21.970110 -2.565830
v 1.875176 -19.995661 -2.304325
v 1.838555 -19.987951 -2.392398
v 1.875176 -21.977819 -2.477756
v 1.838555 -20.003368 -2.216250
v 1.838555 -21.985525 -2.389682
v 1.838555 -21.985525 -2.389682
v 1.750144 -20.006552 -2.179768
v 1.838555 -20.003368 -2.216250
v 1.750144 -21.988714 -2.353200
v 1.661734 -20.003368 -2.216250
v 1.661734 -21.985525 -2.389682
v 0.105065 -24.118334 3.076788
v 0.140259 -24.042059 2.984166
v 0.113487 -24.124456 2.984169
v 0.129850 -24.042059 3.076786
v 0.113487 -23.959654 2.984169
v 0.105065 -23.965780 3.076788
v 0.113487 -24.124456 2.984169
v 0.040178 -24.165487 3.076788
v 0.105065 -24.118334 3.076788
v 0.043394 -24.175379 2.984169
v -0.040027 -24.165480 3.076788
v -0.043244 -24.175379 2.984169
v -0.104914 -24.118334 3.076788
v -0.113336 -24.124456 2.984169
v -0.113336 -24.124456 2.984169
v -0.129698 -24.042059 3.076788
v -0.104914 -24.118334 3.076788
v -0.140108 -24.042059 2.984169
v -0.104913 -23.965780 3.076790
v -0.113335 -23.959654 2.984169
v -0.113335 -23.959654 2.984169
v -0.040027 -23.918634 3.076790
v -0.104913 -23.965780 3.076790
v -0.043243 -23.908731 2.984169
v 0.040178 -23.918634 3.076788
v 0.043395 -23.908731 2.984169
v 0.105065 -23.965780 3.076788
v 0.113487 -23.959654 2.984169
v -1.589623 -23.648413 -2.623912
v -1.750143 -23.774157 -2.634913
v -1.636638 -23.658304 -2.510840
v -1.636638 -23.638521 -2.736985
v -1.750143 -23.662405 -2.464003
v -1.750143 -23.634424 -2.783820
v -1.863647 -23.658304 -2.510840
v -1.863647 -23.638521 -2.736985
v -1.910662 -23.648413 -2.623912
v 1.589625 -23.648413 -2.623912
v 1.636639 -23.658304 -2.510840
v 1.750144 -23.774157 -2.634913
v 1.636639 -23.638521 -2.736985
v 1.750144 -23.662405 -2.464003
v 1.750144 -23.634424 -2.783820
v 1.863649 -23.658304 -2.510840
v 1.863648 -23.638521 -2.736985
v 1.910663 -23.648413 -2.623912
vn -0.4941 -0.8416 -0.2181
vn -0.4253 -0.8903 -0.1629
vn -0.3261 -0.9385 -0.1133
vn -0.3418 -0.9387 -0.0440
vn -0.2287 -0.9732 -0.0252
vn -0.1524 -0.9818 -0.1136
vn -0.1192 -0.9929 -0.0035
vn -0.0106 -0.9911 -0.1327
vn 0.4973 0.8490 0.1785
vn 0.3254 0.9410 0.0930
vn 0.4263 0.8964 0.1215
vn 0.3414 0.9396 0.0251
vn 0.2289 0.9714 0.0629
vn 0.1501 0.9772 0.1504
vn 0.1154 0.9881 0.1014
vn -0.0000 0.9719 0.2356
vn 0.9029 -0.3626 -0.2307
vn 0.9035 -0.3613 -0.2305
vn 0.9355 -0.3408 -0.0931
vn 0.9359 -0.3373 -0.1021
vn 0.9379 -0.2407 0.2498
vn 0.9346 -0.2358 0.2662
vn 0.5061 -0.1503 0.8493
vn 0.5014 -0.1512 0.8519
vn -0.8342 0.5366 -0.1272
vn -0.8396 0.5277 -0.1287
vn -0.9392 0.3420 -0.0316
vn -0.9424 0.3336 -0.0229
vn -0.9500 0.1065 0.2934
vn -0.9515 0.0981 0.2916
vn -0.5037 -0.1949 0.8416
vn -0.5151 -0.1968 0.8342
vn -0.5038 -0.1948 0.8416
vn -0.5151 -0.1969 0.8342
vn 0.3716 -0.8231 -0.4294
vn 0.2859 -0.8693 -0.4033
vn 0.1900 -0.9180 -0.3482
vn 0.1380 -0.9080 -0.3957
vn 0.0626 -0.9481 -0.3118
vn 0.1001 -0.9739 -0.2038
vn -0.0123 -0.9730 -0.2304
vn 0.0450 -0.9963 -0.0734
vn -0.3385 0.8251 0.4524
vn -0.1719 0.9178 0.3579
vn -0.2502 0.8698 0.4252
vn -0.1214 0.9063 0.4047
vn -0.0954 0.9512 0.2933
vn -0.1310 0.9743 0.1832
vn -0.0705 0.9814 0.1788
vn -0.1298 0.9915 0.0115
vn -0.2797 -0.4570 0.8443
vn -0.2801 -0.4557 0.8449
vn -0.4131 -0.4199 0.8081
vn -0.4054 -0.4176 0.8132
vn -0.7026 -0.2763 0.6558
vn -0.7148 -0.2690 0.6456
vn 0.5672 0.5771 -0.5875
vn 0.5706 0.5685 -0.5926
vn 0.5227 0.4050 -0.7502
vn 0.5161 0.3981 -0.7584
vn 0.2300 0.2153 -0.9491
vn 0.2316 0.2068 -0.9506
vn -0.4889 -0.0448 -0.8712
vn -0.4770 -0.0470 -0.8776
vn -0.4889 -0.0449 -0.8712
vn -0.9971 -0.0763 -0.0033
vn -0.9971 -0.0761 0.0021
vn -0.7148 -0.2690 0.6455
vn -0.7026 -0.2763 0.6557
vn 0.1225 -0.8977 0.4232
vn 0.1393 -0.9335 0.3305
vn 0.1361 -0.9672 0.2145
vn 0.2038 -0.9596 0.1941
vn 0.1661 -0.9826 0.0829
vn 0.0523 -0.9969 0.0591
vn 0.1315 -0.9910 -0.0248
vn -0.0344 -0.9979 -0.0551
vn -0.1588 0.9002 -0.4056
vn -0.1536 0.9669 -0.2036
vn -0.1761 0.9342 -0.3103
vn -0.2200 0.9579 -0.1845
vn -0.1335 0.9858 -0.1017
vn -0.0190 0.9970 -0.0757
vn -0.0448 0.9988 -0.0204
vn 0.1298 0.9915 0.0115
vn -0.6232 -0.3204 -0.7135
vn -0.6234 -0.3190 -0.7139
vn -0.5224 -0.2786 -0.8059
vn -0.5305 -0.2762 -0.8014
vn -0.2353 -0.1346 -0.9625
vn -0.2199 -0.1279 -0.9671
vn 0.4911 0.0003 -0.8711
vn 0.4957 -0.0006 -0.8685
vn 0.2668 0.4510 0.8517
vn 0.2689 0.4416 0.8560
vn 0.4165 0.2632 0.8702
vn 0.4263 0.2557 0.8677
vn 0.7200 0.0718 0.6902
vn 0.7199 0.0631 0.6912
vn 0.4910 0.0003 -0.8712
vn 0.4956 -0.0006 -0.8685
vn 0.9921 -0.1247 0.0111
vn 0.9927 -0.1209 -0.0020
vn 0.7201 0.0718 0.6901
vn 0.6245 -0.5218 0.5812
vn 0.8831 -0.4673 -0.0409
vn 0.7051 -0.1364 0.6958
vn 0.9972 -0.0750 -0.0066
vn 0.6245 -0.4129 -0.6630
vn 0.7051 -0.0136 -0.7090
vn 0.7051 -0.1365 0.6959
vn -0.0000 -0.1619 0.9868
vn 0.6245 -0.5217 0.5812
vn -0.0000 -0.5443 0.8389
vn -0.7051 -0.1364 0.6959
vn -0.6245 -0.5218 0.5812
vn -0.7051 -0.1365 0.6958
vn -0.9972 -0.0750 -0.0066
vn -0.6245 -0.5217 0.5812
vn -0.8831 -0.4673 -0.0409
vn -0.7051 -0.0135 -0.7089
vn -0.6245 -0.4129 -0.6630
vn -0.7051 -0.0136 -0.7090
vn -0.0000 0.0119 -0.9999
vn -0.0000 -0.3903 -0.9207
vn 0.7051 -0.0135 -0.7090
vn 0.6244 -0.4129 -0.6630
vn 0.7071 -0.0617 0.7044
vn 0.7071 -0.0616 0.7044
vn 1.0000 -0.0000 -0.0000
vn 0.7071 0.0616 -0.7044
vn 0.7071 0.0617 -0.7044
vn -0.0000 0.0872 -0.9962
vn -0.7071 0.0615 -0.7045
vn -0.7071 0.0617 -0.7044
vn -0.7071 0.0616 -0.7044
vn -1.0000 -0.0000 -0.0000
vn -0.7071 -0.0615 0.7044
vn -0.7071 -0.0616 0.7044
vn -0.7071 -0.0617 0.7044
vn -0.0000 -0.0872 0.9962
vn 0.4941 -0.8416 -0.2181
vn 0.3261 -0.9385 -0.1133
vn 0.4253 -0.8903 -0.1629
vn 0.3418 -0.9387 -0.0440
vn 0.2287 -0.9732 -0.0252
vn 0.1524 -0.9818 -0.1136
vn 0.1192 -0.9929 -0.0035
vn 0.0106 -0.9911 -0.1327
vn -0.4973 0.8490 0.1785
vn -0.4263 0.8964 0.1215
vn -0.3254 0.9410 0.0930
vn -0.3414 0.9396 0.0251
vn -0.2289 0.9714 0.0629
vn -0.1501 0.9772 0.1504
vn -0.1154 0.9881 0.1014
vn -0.9029 -0.3626 -0.2307
vn -0.9355 -0.3408 -0.0931
vn -0.9035 -0.3613 -0.2305
vn -0.9359 -0.3373 -0.1021
vn -0.9379 -0.2407 0.2498
vn -0.9346 -0.2358 0.2662
vn -0.5061 -0.1503 0.8493
vn -0.5014 -0.1512 0.8519
vn 0.8342 0.5366 -0.1272
vn 0.9392 0.3420 -0.0316
vn 0.8396 0.5277 -0.1287
vn 0.9424 0.3336 -0.0229
vn 0.9500 0.1065 0.2934
vn 0.9515 0.0981 0.2916
vn 0.5037 -0.1948 0.8416
vn 0.5151 -0.1968 0.8342
vn 0.5151 -0.1969 0.8342
vn 0.5038 -0.1948 0.8416
vn -0.3716 -0.8231 -0.4294
vn -0.1900 -0.9180 -0.3482
vn -0.2859 -0.8693 -0.4033
vn -0.1380 -0.9080 -0.3957
vn -0.0626 -0.9481 -0.3118
vn -0.1001 -0.9739 -0.2038
vn 0.0123 -0.9730 -0.2304
vn -0.0450 -0.9963 -0.0734
vn 0.3385 0.8251 0.4524
vn 0.2502 0.8698 0.4252
vn 0.1719 0.9178 0.3579
vn 0.1214 0.9063 0.4047
vn 0.0954 0.9512 0.2933
vn 0.1310 0.9743 0.1832
vn 0.0705 0.9814 0.1788
vn 0.2797 -0.4570 0.8443
vn 0.4131 -0.4198 0.8081
vn 0.2801 -0.4557 0.8449
vn 0.4054 -0.4176 0.8132
vn 0.7026 -0.2763 0.6558
vn 0.7148 -0.2690 0.6456
vn -0.5672 0.5771 -0.5875
vn -0.5227 0.4050 -0.7502
vn -0.5706 0.5685 -0.5926
vn -0.5161 0.3981 -0.7584
vn -0.2300 0.2153 -0.9491
vn -0.2316 0.2068 -0.9506
vn 0.4889 -0.0448 -0.8712
vn 0.4770 -0.0470 -0.8776
vn 0.4889 -0.0449 -0.8712
vn 0.9971 -0.0763 -0.0033
vn 0.4770 -0.0469 -0.8776
vn 0.9971 -0.0761 0.0021
vn 0.7148 -0.2690 0.6455
vn 0.7026 -0.2763 0.6557
vn -0.1225 -0.8977 0.4232
vn -0.1361 -0.9672 0.2145
vn -0.1393 -0.9335 0.3305
vn -0.2038 -0.9596 0.1941
vn -0.1661 -0.9826 0.0829
vn -0.0523 -0.9969 0.0591
vn -0.1315 -0.9910 -0.0248
vn 0.0344 -0.9979 -0.0551
vn 0.1588 0.9002 -0.4056
vn 0.1761 0.9342 -0.3103
vn 0.1536 0.9669 -0.2036
vn 0.2200 0.9579 -0.1845
vn 0.1335 0.9858 -0.1017
vn 0.0190 0.9970 -0.0757
vn 0.0448 0.9988 -0.0204
vn 0.6229 -0.3204 -0.7137
vn 0.5224 -0.2786 -0.8059
vn 0.6234 -0.3190 -0.7139
vn 0.5305 -0.2762 -0.8014
vn 0.2353 -0.1346 -0.9625
vn 0.2199 -0.1279 -0.9671
vn -0.4911 0.0003 -0.8711
vn -0.4957 -0.0006 -0.8685
vn -0.2668 0.4509 0.8517
vn -0.4165 0.2632 0.8702
vn -0.2689 0.4415 0.8560
vn -0.4263 0.2557 0.8677
vn -0.7200 0.0719 0.6902
vn -0.7199 0.0631 0.6912
vn -0.4910 0.0004 -0.8712
vn -0.9921 -0.1247 0.0111
vn -0.4956 -0.0006 -0.8685
vn -0.9927 -0.1209 -0.0020
vn -0.7201 0.0718 0.6901
vn 0.6296 -0.4575 0.6280
vn 0.7782 -0.0000 0.6280
vn 0.7530 -0.5471 -0.3655
vn 0.9308 -0.0000 -0.3655
vn 0.6296 0.4574 0.6280
vn 0.7531 0.5471 -0.3655
vn 0.7531 -0.5471 -0.3655
vn 0.2876 -0.8852 -0.3655
vn 0.6296 -0.4574 0.6280
vn 0.2405 -0.7402 0.6280
vn -0.2877 -0.8852 -0.3655
vn -0.2405 -0.7401 0.6280
vn -0.7531 -0.5471 -0.3655
vn -0.6296 -0.4574 0.6280
vn -0.9308 -0.0000 -0.3655
vn -0.6296 -0.4574 0.6281
vn -0.7782 -0.0000 0.6280
vn -0.7531 0.5471 -0.3655
vn -0.6296 0.4574 0.6280
vn -0.2876 0.8853 -0.3655
vn -0.2405 0.7401 0.6280
vn 0.2876 0.8853 -0.3655
vn 0.2405 0.7401 0.6280
vn 0.6296 0.4573 0.6280
vn -0.0000 -0.9962 -0.0872
vn -0.0000 -0.3904 -0.9207
vt 0.464441 0.098775
vt 0.468392 0.098649
vt 0.462686 0.106742
vt 0.469891 0.106598
vt 0.469699 0.113367
vt 0.463065 0.113413
vt 0.467703 0.117253
vt 0.465271 0.117223
vt 0.535418 0.098854
vt 0.537102 0.106812
vt 0.531496 0.098659
vt 0.529894 0.106586
vt 0.530156 0.113406
vt 0.536839 0.113507
vt 0.532266 0.117279
vt 0.534729 0.117279
vt 11.422174 0.098649
vt 11.422433 0.098659
vt 11.420847 0.106598
vt 11.421415 0.106586
vt 11.420943 0.113367
vt 11.421531 0.113406
vt 11.421515 0.117253
vt 11.421767 0.117279
vt -10.424585 0.098854
vt -10.424356 0.098775
vt -10.423909 0.106812
vt -10.423344 0.106742
vt -10.422651 0.113507
vt -10.422060 0.113413
vt -10.421767 0.117279
vt -10.421544 0.117223
vt 0.534729 -10.421767
vt 0.534729 -10.421544
vt 0.532266 -10.421767
vt 0.532297 -10.421515
vt 0.465768 0.093406
vt 0.463730 0.096539
vt 0.459603 0.087883
vt 0.455928 0.093753
vt 0.450116 0.090295
vt 0.453480 0.084773
vt 0.447764 0.086774
vt 0.449007 0.084720
vt 0.534354 0.093519
vt 0.540520 0.088105
vt 0.536315 0.096664
vt 0.544124 0.094019
vt 0.549944 0.090478
vt 0.546602 0.084888
vt 0.552255 0.086821
vt 0.551024 0.084723
vt 0.536270 -10.422352
vt 0.536315 -10.422601
vt 0.544072 -10.421933
vt 0.544124 -10.422478
vt 0.549884 -10.422894
vt 0.549944 -10.423470
vt 0.465646 -10.425035
vt 0.465768 -10.424810
vt 0.459480 -10.425492
vt 0.459603 -10.424939
vt 0.453398 -10.425072
vt 0.453480 -10.424482
vt 0.448976 -10.424521
vt 0.449007 -10.424294
vt -10.424521 0.084723
vt -10.424294 0.084720
vt -10.424344 0.086821
vt -10.424094 0.086774
vt -10.423470 0.090478
vt -10.422894 0.090295
vt 0.469831 0.097221
vt 0.467918 0.093623
vt 0.477752 0.094686
vt 0.474221 0.088284
vt 0.480225 0.085153
vt 0.483494 0.090930
vt 0.484574 0.085031
vt 0.485762 0.087121
vt 0.530188 0.097092
vt 0.522338 0.094548
vt 0.532149 0.093558
vt 0.525942 0.088183
vt 0.519860 0.085090
vt 0.516518 0.090883
vt 0.515438 0.085026
vt 0.514207 0.087124
vt 0.467918 -10.422599
vt 0.467851 -10.422864
vt 0.474221 -10.422396
vt 0.474058 -10.422972
vt 0.480225 -10.423329
vt 0.480140 -10.423925
vt 0.484574 -10.424241
vt 0.484562 -10.424496
vt 0.530188 -10.424734
vt 0.530169 -10.424488
vt 0.522338 -10.424947
vt 0.522248 -10.424363
vt 0.516518 -10.424564
vt 0.516506 -10.423962
vt 11.424241 0.085031
vt 11.424496 0.085026
vt 11.424090 0.087121
vt 11.424318 0.087124
vt 11.423962 0.090930
vt 11.424564 0.090883
vt 11.420491 0.098243
vt 11.420671 0.096116
vt 11.425356 0.099244
vt 11.425583 0.096561
vt 11.420851 0.093989
vt 11.425810 0.093878
vt 0.530592 -10.425356
vt 0.533320 -10.425262
vt 0.531157 -10.420491
vt 0.533320 -10.420417
vt 0.536048 -10.425356
vt 0.535483 -10.420491
vt -10.425356 0.099244
vt -10.425583 0.096561
vt -10.420491 0.098243
vt -10.420671 0.096116
vt -10.425810 0.093878
vt -10.420851 0.093989
vt 0.463952 -10.425810
vt 0.466680 -10.425904
vt 0.464517 -10.420851
vt 0.466680 -10.420925
vt 0.469408 -10.425810
vt 0.468843 -10.420851
vt 11.486970 0.103785
vt 11.450917 0.100523
vt 11.487110 0.102128
vt 11.451057 0.098866
vt 11.487250 0.100471
vt 11.451198 0.097209
vt 0.468365 -10.487250
vt 0.468365 -10.451198
vt 0.466680 -10.487309
vt 0.466680 -10.451255
vt 0.464995 -10.487250
vt 0.464995 -10.451198
vt -10.487250 0.100471
vt -10.451198 0.097209
vt -10.487110 0.102128
vt -10.451057 0.098866
vt -10.486970 0.103785
vt -10.450917 0.100523
vt 0.535005 -10.486970
vt 0.535005 -10.450917
vt 0.533320 -10.486912
vt 0.533320 -10.450859
vt 0.531635 -10.486970
vt 0.531635 -10.450917
vt 0.535624 0.098775
vt 0.537378 0.106742
vt 0.531672 0.098649
vt 0.530173 0.106598
vt 0.530366 0.113367
vt 0.536999 0.113413
vt 0.532362 0.117253
vt 0.534794 0.117223
vt 0.464518 0.098854
vt 0.468439 0.098659
vt 0.462833 0.106812
vt 0.470042 0.106586
vt 0.469779 0.113406
vt 0.463096 0.113507
vt 0.467669 0.117279
vt 0.465206 0.117279
vt -10.422174 0.098649
vt -10.420847 0.106598
vt -10.422433 0.098659
vt -10.421415 0.106586
vt -10.420943 0.113367
vt -10.421531 0.113406
vt -10.421515 0.117253
vt 11.424585 0.098854
vt 11.423909 0.106812
vt 11.424356 0.098775
vt 11.423344 0.106742
vt 11.422651 0.113507
vt 11.422060 0.113413
vt 11.421544 0.117223
vt 0.467639 -10.421515
vt 0.465206 -10.421544
vt 0.467669 -10.421767
vt 0.465206 -10.421767
vt 0.534296 0.093406
vt 0.540462 0.087883
vt 0.536334 0.096539
vt 0.544136 0.093753
vt 0.549948 0.090295
vt 0.546584 0.084773
vt 0.552301 0.086774
vt 0.551057 0.084720
vt 0.465581 0.093519
vt 0.463621 0.096664
vt 0.459416 0.088105
vt 0.455811 0.094019
vt 0.449992 0.090478
vt 0.453333 0.084888
vt 0.447680 0.086821
vt 0.448912 0.084723
vt 0.463666 -10.422352
vt 0.455864 -10.421933
vt 0.463621 -10.422601
vt 0.455811 -10.422478
vt 0.450052 -10.422894
vt 0.449992 -10.423470
vt 0.534419 -10.425035
vt 0.540584 -10.425492
vt 0.534296 -10.424810
vt 0.540462 -10.424939
vt 0.546667 -10.425072
vt 0.546584 -10.424482
vt 0.551088 -10.424521
vt 0.551057 -10.424294
vt 11.424521 0.084723
vt 11.424344 0.086821
vt 11.424294 0.084720
vt 11.424094 0.086774
vt 11.423470 0.090478
vt 11.422894 0.090295
vt 0.530233 0.097221
vt 0.522313 0.094686
vt 0.532146 0.093623
vt 0.525843 0.088284
vt 0.519839 0.085153
vt 0.516570 0.090930
vt 0.515491 0.085031
vt 0.514302 0.087121
vt 0.469748 0.097092
vt 0.467787 0.093558
vt 0.477598 0.094548
vt 0.473994 0.088183
vt 0.480076 0.085090
vt 0.483418 0.090883
vt 0.484497 0.085026
vt 0.485729 0.087124
vt 0.532146 -10.422599
vt 0.525843 -10.422396
vt 0.532213 -10.422864
vt 0.526006 -10.422972
vt 0.519839 -10.423329
vt 0.519924 -10.423925
vt 0.515491 -10.424241
vt 0.515503 -10.424496
vt 0.469748 -10.424734
vt 0.477598 -10.424947
vt 0.469767 -10.424488
vt 0.477687 -10.424363
vt 0.483418 -10.424564
vt 0.483430 -10.423962
vt -10.424241 0.085031
vt -10.424090 0.087121
vt -10.424496 0.085026
vt -10.424318 0.087124
vt -10.423962 0.090930
vt -10.424564 0.090883
vt 0.469344 -10.425356
vt 0.468779 -10.420491
vt 0.466616 -10.425262
vt 0.466616 -10.420417
vt 0.463888 -10.425356
vt 0.464453 -10.420491
vt 0.536112 -10.425810
vt 0.535547 -10.420851
vt 0.533384 -10.425904
vt 0.533384 -10.420925
vt 0.530656 -10.425810
vt 0.531221 -10.420851
vt 0.531700 -10.487250
vt 0.533384 -10.487309
vt 0.531700 -10.451198
vt 0.533384 -10.451255
vt 0.535069 -10.487250
vt 0.535069 -10.451198
vt 0.464931 -10.486970
vt 0.466616 -10.486912
vt 0.464931 -10.450917
vt 0.466616 -10.450859
vt 0.468300 -10.486970
vt 0.468300 -10.450917
vt 11.412012 0.201618
vt 11.413511 0.201618
vt 11.412124 0.203361
vt 11.413511 0.203361
vt 11.415009 0.201618
vt 11.414899 0.203361
vt 0.502034 0.203361
vt 0.500798 0.203361
vt 0.502195 0.201618
vt 0.500859 0.201618
vt 0.499269 0.203361
vt 0.499208 0.201618
vt 0.498033 0.203361
vt 0.497872 0.201618
vt -10.412124 0.203361
vt -10.413511 0.203361
vt -10.412012 0.201618
vt -10.413511 0.201618
vt -10.414899 0.203361
vt -10.415009 0.201618
vt 0.501967 0.203361
vt 0.500731 0.203361
vt 0.502128 0.201618
vt 0.500792 0.201618
vt 0.499202 0.203361
vt 0.499141 0.201618
vt 0.497966 0.203361
vt 0.497805 0.201618
vt 0.468843 0.098243
vt 0.466680 0.095909
vt 0.469739 0.096116
vt 0.468843 0.093989
vt 0.466680 0.099124
vt 0.466680 0.093108
vt 0.464517 0.098243
vt 0.464517 0.093989
vt 0.463621 0.096116
vt 0.533384 0.095909
vt 0.531221 0.098243
vt 0.530325 0.096116
vt 0.531221 0.093989
vt 0.533384 0.099124
vt 0.533384 0.093108
vt 0.535547 0.098243
vt 0.535547 0.093989
vt 0.536443 0.096116
s 1
g Dr_Hull_Stern_destroyer_A_001_5_details_3
usemtl details_3
f 27/1/1 26/2/2 25/3/3
f 28/4/4 25/3/3 26/2/2
f 28/4/4 29/5/5 25/3/3
f 30/6/6 25/3/3 29/5/5
f 29/5/5 31/7/7 30/6/6
f 32/8/8 30/6/6 31/7/7
f 35/9/9 34/10/10 33/11/11
f 36/12/12 33/11/11 34/10/10
f 36/12/12 34/10/10 37/13/13
f 38/14/14 37/13/13 34/10/10
f 37/13/13 38/14/14 39/15/15
f 40/16/16 39/15/15 38/14/14
f 43/17/17 42/18/18 41/19/19
f 44/20/20 41/19/19 42/18/18
f 41/19/19 44/20/20 45/21/21
f 46/22/22 45/21/21 44/20/20
f 45/21/21 46/22/22 47/23/23
f 48/24/24 47/23/23 46/22/22
f 51/25/25 50/26/26 49/27/27
f 52/28/28 49/27/27 50/26/26
f 49/27/27 52/28/28 53/29/29
f 54/30/30 53/29/29 52/28/28
f 53/29/29 54/30/30 55/31/31
f 56/32/32 55/31/31 54/30/30
f 59/33/33 58/34/34 57/35/24
f 60/36/23 57/35/24 58/34/34
f 63/37/35 62/38/36 61/39/37
f 64/40/38 61/39/37 62/38/36
f 64/40/38 65/41/39 61/39/37
f 66/42/40 61/39/37 65/41/39
f 65/41/39 67/43/41 66/42/40
f 68/44/42 66/42/40 67/43/41
f 71/45/43 70/46/44 69/47/45
f 72/48/46 69/47/45 70/46/44
f 72/48/46 70/46/44 73/49/47
f 74/50/48 73/49/47 70/46/44
f 73/49/47 74/50/48 75/51/49
f 76/52/50 75/51/49 74/50/48
f 79/53/51 78/54/52 77/55/53
f 80/56/54 77/55/53 78/54/52
f 77/55/53 80/56/54 81/57/55
f 82/58/56 81/57/55 80/56/54
f 85/59/57 84/60/58 83/61/59
f 86/62/60 83/61/59 84/60/58
f 83/61/59 86/62/60 87/63/61
f 88/64/62 87/63/61 86/62/60
f 87/63/61 88/64/62 89/65/63
f 90/66/64 89/65/63 88/64/62
f 93/67/65 92/68/64 91/69/66
f 94/70/67 91/69/66 92/68/64
f 91/69/66 94/70/67 95/71/68
f 96/72/69 95/71/68 94/70/67
f 99/73/70 98/74/71 97/75/72
f 100/76/73 97/75/72 98/74/71
f 100/76/73 101/77/74 97/75/72
f 102/78/75 97/75/72 101/77/74
f 101/77/74 103/79/76 102/78/75
f 104/80/77 102/78/75 103/79/76
f 107/81/78 106/82/79 105/83/80
f 108/84/81 105/83/80 106/82/79
f 108/84/81 106/82/79 109/85/82
f 110/86/83 109/85/82 106/82/79
f 109/85/82 110/86/83 111/87/84
f 112/88/85 111/87/84 110/86/83
f 115/89/86 114/90/87 113/91/88
f 116/92/89 113/91/88 114/90/87
f 113/91/88 116/92/89 117/93/90
f 118/94/91 117/93/90 116/92/89
f 117/93/90 118/94/91 119/95/92
f 120/96/93 119/95/92 118/94/91
f 123/97/94 122/98/95 121/99/96
f 124/100/97 121/99/96 122/98/95
f 121/99/96 124/100/97 125/101/98
f 126/102/99 125/101/98 124/100/97
f 129/103/100 128/104/101 127/105/102
f 130/106/103 127/105/102 128/104/101
f 127/105/102 130/106/103 131/107/99
f 132/108/104 131/107/99 130/106/103
f 134/109/105 133/110/106 2/111/107
f 1/112/108 2/111/107 133/110/106
f 133/110/106 135/113/109 1/112/108
f 3/114/110 1/112/108 135/113/109
f 4/115/111 5/116/112 136/117/113
f 137/118/114 136/117/113 5/116/112
f 5/116/112 6/119/115 137/118/114
f 138/120/116 137/118/114 6/119/115
f 7/121/117 8/122/118 139/123/119
f 140/124/120 139/123/119 8/122/118
f 8/122/118 9/125/121 140/124/120
f 141/126/122 140/124/120 9/125/121
f 10/127/123 11/128/124 142/129/122
f 143/130/125 142/129/122 11/128/124
f 11/128/124 12/131/126 143/130/125
f 144/132/127 143/130/125 12/131/126
f 147/133/128 146/134/129 145/135/130
f 148/136/130 145/135/130 146/134/129
f 145/135/130 148/136/130 149/137/131
f 150/138/132 149/137/131 148/136/130
f 153/139/131 152/140/132 151/141/133
f 154/142/133 151/141/133 152/140/132
f 151/141/133 154/142/133 155/143/134
f 156/144/135 155/143/134 154/142/133
f 159/145/136 158/146/135 157/147/137
f 160/148/137 157/147/137 158/146/135
f 157/147/137 160/148/137 161/149/138
f 162/150/139 161/149/138 160/148/137
f 165/151/139 164/152/140 163/153/141
f 166/154/141 163/153/141 164/152/140
f 163/153/141 166/154/141 167/155/128
f 168/156/129 167/155/128 166/154/141
f 171/157/142 170/158/143 169/159/144
f 172/160/145 169/159/144 170/158/143
f 172/160/145 170/158/143 173/161/146
f 174/162/147 173/161/146 170/158/143
f 173/161/146 174/162/147 175/163/148
f 176/164/149 175/163/148 174/162/147
f 179/165/150 178/166/151 177/167/152
f 180/168/153 177/167/152 178/166/151
f 180/168/153 181/169/154 177/167/152
f 182/170/155 177/167/152 181/169/154
f 181/169/154 183/171/156 182/170/155
f 184/172/16 182/170/155 183/171/156
f 187/173/157 186/174/158 185/175/159
f 188/176/160 185/175/159 186/174/158
f 186/174/158 189/177/161 188/176/160
f 190/178/162 188/176/160 189/177/161
f 189/177/161 191/179/163 190/178/162
f 192/31/164 190/178/162 191/179/163
f 195/180/165 194/181/166 193/182/167
f 196/183/168 193/182/167 194/181/166
f 194/181/166 197/184/169 196/183/168
f 198/185/170 196/183/168 197/184/169
f 197/184/169 199/24/171 198/185/170
f 200/186/172 198/185/170 199/24/171
f 203/187/163 202/188/173 201/189/164
f 204/190/174 201/189/164 202/188/173
f 207/191/175 206/192/176 205/193/177
f 208/194/178 205/193/177 206/192/176
f 208/194/178 206/192/176 209/195/179
f 210/196/180 209/195/179 206/192/176
f 209/195/179 210/196/180 211/197/181
f 212/198/182 211/197/181 210/196/180
f 215/199/183 214/200/184 213/201/185
f 216/202/186 213/201/185 214/200/184
f 216/202/186 217/203/187 213/201/185
f 218/204/188 213/201/185 217/203/187
f 217/203/187 219/205/189 218/204/188
f 220/206/85 218/204/188 219/205/189
f 223/207/190 222/208/191 221/209/192
f 224/210/193 221/209/192 222/208/191
f 222/208/191 225/211/194 224/210/193
f 226/212/195 224/210/193 225/211/194
f 229/213/196 228/214/197 227/215/198
f 230/216/199 227/215/198 228/214/197
f 228/214/197 231/217/200 230/216/199
f 232/218/201 230/216/199 231/217/200
f 231/217/200 233/219/202 232/218/201
f 234/220/203 232/218/201 233/219/202
f 237/221/204 236/222/205 235/223/206
f 238/224/207 235/223/206 236/222/205
f 236/222/205 239/225/208 238/224/207
f 240/226/209 238/224/207 239/225/208
f 243/227/210 242/228/211 241/229/212
f 244/230/213 241/229/212 242/228/211
f 244/230/213 242/228/211 245/231/214
f 246/232/215 245/231/214 242/228/211
f 245/231/214 246/232/215 247/233/216
f 248/234/217 247/233/216 246/232/215
f 251/235/218 250/236/219 249/237/220
f 252/238/221 249/237/220 250/236/219
f 252/238/221 253/239/222 249/237/220
f 254/240/223 249/237/220 253/239/222
f 253/239/222 255/241/224 254/240/223
f 256/242/50 254/240/223 255/241/224
f 259/243/225 258/244/226 257/245/227
f 260/246/228 257/245/227 258/244/226
f 258/244/226 261/247/229 260/246/228
f 262/248/230 260/246/228 261/247/229
f 261/247/229 263/249/231 262/248/230
f 264/250/232 262/248/230 263/249/231
f 267/251/233 266/252/234 265/253/235
f 268/254/236 265/253/235 266/252/234
f 266/252/234 269/255/237 268/254/236
f 270/256/238 268/254/236 269/255/237
f 273/257/239 272/258/240 271/259/241
f 274/260/242 271/259/241 272/258/240
f 272/258/240 275/261/238 274/260/242
f 276/262/243 274/260/242 275/261/238
f 278/123/116 14/121/117 277/124/120
f 13/122/118 277/124/120 14/121/117
f 277/124/120 13/122/118 279/126/122
f 15/125/121 279/126/122 13/122/118
f 16/263/115 280/264/116 17/265/112
f 281/266/114 17/265/112 280/264/116
f 17/265/112 281/266/114 18/267/111
f 282/268/113 18/267/111 281/266/114
f 19/111/107 283/109/105 20/112/108
f 284/110/106 20/112/108 283/109/105
f 20/112/108 284/110/106 21/114/110
f 285/113/109 21/114/110 284/110/106
f 22/269/126 286/270/109 23/271/124
f 287/272/125 23/271/124 286/270/109
f 23/271/124 287/272/125 24/273/123
f 288/274/122 24/273/123 287/272/125
f 291/149/140 290/147/137 289/150/139
f 292/148/137 289/150/139 290/147/137
f 290/147/137 293/145/136 292/148/137
f 294/146/135 292/148/137 293/145/136
f 297/275/134 296/276/133 295/277/135
f 298/278/133 295/277/135 296/276/133
f 296/276/133 299/279/131 298/278/133
f 300/280/132 298/278/133 299/279/131
f 303/137/131 302/135/130 301/138/132
f 304/136/130 301/138/132 302/135/130
f 302/135/130 305/133/128 304/136/130
f 306/134/129 304/136/130 305/133/128
f 309/281/128 308/282/141 307/283/129
f 310/284/141 307/283/129 308/282/141
f 308/282/141 311/285/139 310/284/141
f 312/286/140 310/284/141 311/285/139
f 315/287/244 314/288/245 313/289/246
f 316/290/247 313/289/246 314/288/245
f 314/288/245 317/291/248 316/290/247
f 318/292/249 316/290/247 317/291/248
f 321/293/250 320/294/251 319/295/252
f 322/296/253 319/295/252 320/294/251
f 320/294/251 323/297/254 322/296/253
f 324/298/255 322/296/253 323/297/254
f 323/297/254 325/299/256 324/298/255
f 326/300/257 324/298/255 325/299/256
f 329/301/256 328/302/258 327/303/259
f 330/304/260 327/303/259 328/302/258
f 328/302/258 331/305/261 330/304/260
f 332/306/262 330/304/260 331/305/261
f 335/307/261 334/308/263 333/309/262
f 336/310/264 333/309/262 334/308/263
f 334/308/263 337/311/265 336/310/264
f 338/312/266 336/310/264 337/311/265
f 337/311/265 339/313/249 338/312/266
f 340/314/267 338/312/266 339/313/249
f 343/315/113 342/316/268 341/317/106
f 341/317/106 342/316/268 344/318/127
f 345/319/114 342/316/268 343/315/113
f 344/318/127 342/316/268 346/320/269
f 347/321/116 342/316/268 345/319/114
f 346/320/269 342/316/268 348/322/122
f 349/323/120 342/316/268 347/321/116
f 348/322/122 342/316/268 349/323/120
f 352/324/268 351/325/119 350/326/120
f 352/324/268 350/326/120 353/327/122
f 352/324/268 354/328/114 351/325/119
f 352/324/268 353/327/122 355/329/269
f 352/324/268 356/330/113 354/328/114
f 352/324/268 355/329/269 357/331/127
f 352/324/268 358/332/106 356/330/113
f 352/324/268 357/331/127 358/332/106
