# Blender 5.1.0
# www.blender.org
mtllib Dr_Hull_Stern_destroyer_A_001_2.mtl
o Dr_Hull_Stern_destroyer_A_001_2
v -2.356007 -4.999997 2.693637
v -3.984425 -9.999996 2.693637
v -3.984424 -4.999998 2.693637
v -2.356007 -9.999996 2.693637
v -3.753887 -14.749002 2.693637
v -2.123075 -14.749002 2.693637
v -2.861565 -22.155840 2.693638
v -1.230753 -22.155840 2.693638
v -2.205404 -25.156549 2.693638
v -1.065863 -22.771215 2.693638
v -0.615377 -23.221697 2.693638
v 0.000001 -23.386595 2.693638
v -1.882686 -25.900507 2.693640
v -1.503548 -26.396471 2.693641
v -0.870074 -26.903212 2.693643
v 0.000000 -27.061251 2.693643
v 0.870075 -26.903212 2.693644
v 1.503549 -26.396471 2.693644
v 1.882687 -25.900507 2.693642
v 2.205404 -25.156549 2.693639
v 0.615379 -23.221697 2.693638
v 1.065864 -22.771215 2.693638
v 1.230755 -22.155840 2.693638
v 2.861566 -22.155840 2.693638
v 2.123076 -14.749002 2.693637
v 3.753888 -14.749002 2.693637
v 2.356008 -9.999996 2.693637
v 3.984426 -9.999996 2.693637
v 3.984426 -4.999997 2.693638
v 2.356008 -4.999997 2.693637
vn -0.0000 -0.0000 1.0000
vt 0.579688 0.644427
vt 0.579688 0.594427
vt 0.547120 0.644427
vt 0.547120 0.594427
vt 0.575078 0.546937
vt 0.542462 0.546937
vt 0.557231 0.472868
vt 0.524615 0.472868
vt 0.544108 0.442861
vt 0.521317 0.466715
vt 0.512308 0.462210
vt 0.500000 0.460561
vt 0.537654 0.435422
vt 0.530071 0.430462
vt 0.517402 0.425395
vt 0.500000 0.423814
vt 0.482599 0.425395
vt 0.469929 0.430462
vt 0.462346 0.435422
vt 0.455892 0.442861
vt 0.487692 0.462210
vt 0.478683 0.466715
vt 0.475385 0.472868
vt 0.442769 0.472868
vt 0.457538 0.546937
vt 0.424922 0.546937
vt 0.452880 0.594427
vt 0.420311 0.594427
vt 0.420312 0.644427
vt 0.452880 0.644427
s 1
g Dr_Hull_Stern_destroyer_A_001_2_wood_deck_1
usemtl wood_deck_1
f 3/1/1 2/2/1 1/3/1
f 4/4/1 1/3/1 2/2/1
f 2/2/1 5/5/1 4/4/1
f 6/6/1 4/4/1 5/5/1
f 5/5/1 7/7/1 6/6/1
f 8/8/1 6/6/1 7/7/1
f 7/7/1 9/9/1 8/8/1
f 10/10/1 8/8/1 9/9/1
f 9/9/1 11/11/1 10/10/1
f 11/11/1 9/9/1 12/12/1
f 13/13/1 12/12/1 9/9/1
f 14/14/1 12/12/1 13/13/1
f 14/14/1 15/15/1 12/12/1
f 16/16/1 12/12/1 15/15/1
f 16/16/1 17/17/1 12/12/1
f 18/18/1 12/12/1 17/17/1
f 12/12/1 18/18/1 19/19/1
f 19/19/1 20/20/1 12/12/1
f 21/21/1 12/12/1 20/20/1
f 21/21/1 20/20/1 22/22/1
f 22/22/1 20/20/1 23/23/1
f 24/24/1 23/23/1 20/20/1
f 23/23/1 24/24/1 25/25/1
f 26/26/1 25/25/1 24/24/1
f 25/25/1 26/26/1 27/27/1
f 28/28/1 27/27/1 26/26/1
f 28/28/1 29/29/1 27/27/1
f 30/30/1 27/27/1 29/29/1
