# Blender 5.1.0
# www.blender.org
mtllib Dr_Hull_Stern_destroyer_A_001_0.mtl
o Dr_Hull_Stern_destroyer_A_001_0
v -1.157169 -27.108370 -0.001696
v -2.022372 -26.305086 0.547794
v -1.167616 -27.159845 0.547794
v -2.004277 -26.261263 -0.001697
v -2.335234 -25.156549 0.547794
v -2.314340 -25.156549 -0.001699
v -2.848773 -22.155840 -0.001699
v -2.851381 -22.155840 0.547794
v -3.627148 -14.749010 0.547794
v -3.594693 -14.749006 -0.001699
v -3.849902 -9.999996 0.547795
v -3.815454 -9.999996 -0.001699
v -3.849902 -4.999997 0.547795
v -3.815454 -4.999997 -0.001699
v -1.167616 -27.159845 0.547794
v 0.000001 -27.418432 -0.001697
v -1.157169 -27.108370 -0.001696
v 0.000001 -27.472704 0.547794
v 1.167618 -27.159845 0.547794
v 1.157170 -27.108370 -0.001696
v 2.022373 -26.305086 0.547794
v 1.157170 -27.108370 -0.001696
v 1.167618 -27.159845 0.547794
v 2.004278 -26.261263 -0.001697
v 2.335235 -25.156549 0.547794
v 2.314341 -25.156549 -0.001699
v 2.848774 -22.155840 -0.001699
v 2.851382 -22.155840 0.547794
v 3.627149 -14.749010 0.547794
v 3.594695 -14.749006 -0.001699
v 3.849904 -9.999996 0.547795
v 3.815456 -9.999996 -0.001699
v 3.815456 -4.999997 -0.001699
v 3.849904 -4.999997 0.547795
vn -0.4985 -0.8661 -0.0363
vn -0.8638 -0.5031 -0.0262
vn -0.5024 -0.8599 -0.0901
vn -0.8669 -0.4941 -0.0655
vn -0.9750 -0.2219 -0.0072
vn -0.9741 -0.2232 -0.0370
vn -0.9905 -0.1372 -0.0078
vn -0.9906 -0.1369 -0.0047
vn -0.9954 -0.0777 -0.0558
vn -0.9956 -0.0735 -0.0589
vn -0.9978 -0.0236 -0.0622
vn -0.9978 -0.0232 -0.0626
vn -0.9980 -0.0000 -0.0626
vn -0.5023 -0.8600 -0.0901
vn -0.0000 -0.9952 -0.0983
vn -0.4984 -0.8662 -0.0364
vn -0.0000 -0.9993 -0.0376
vn 0.4984 -0.8662 -0.0364
vn 0.5023 -0.8600 -0.0901
vn 0.4985 -0.8661 -0.0363
vn 0.5024 -0.8599 -0.0901
vn 0.8638 -0.5031 -0.0262
vn 0.8669 -0.4941 -0.0655
vn 0.9750 -0.2219 -0.0072
vn 0.9741 -0.2232 -0.0370
vn 0.9905 -0.1372 -0.0078
vn 0.9906 -0.1369 -0.0047
vn 0.9954 -0.0777 -0.0558
vn 0.9956 -0.0735 -0.0589
vn 0.9978 -0.0236 -0.0622
vn 0.9978 -0.0232 -0.0626
vn 0.9980 -0.0000 -0.0626
vt -10.356802 0.155784
vt -10.372349 0.155784
vt -10.357738 0.145447
vt -10.373146 0.145447
vt -10.393240 0.155784
vt -10.393240 0.145447
vt -10.447819 0.145447
vt -10.447819 0.155784
vt -10.582541 0.155784
vt -10.582541 0.145447
vt -10.668920 0.155784
vt -10.668920 0.145447
vt -10.759864 0.155784
vt -10.759864 0.145447
vt 0.477980 0.145447
vt 0.500032 0.145447
vt 0.477781 0.155784
vt 0.500032 0.155784
vt 0.522283 0.155784
vt 0.522084 0.145447
vt 11.356802 0.155784
vt 11.357738 0.145447
vt 11.372349 0.155784
vt 11.373146 0.145447
vt 11.393240 0.155784
vt 11.393240 0.145447
vt 11.447819 0.145447
vt 11.447819 0.155784
vt 11.582541 0.155784
vt 11.582541 0.145447
vt 11.668920 0.155784
vt 11.668920 0.145447
vt 11.759864 0.145447
vt 11.759864 0.155784
s 1
g Dr_Hull_Stern_destroyer_A_001_0_waterline
usemtl waterline
f 3/1/1 2/2/2 1/3/3
f 4/4/4 1/3/3 2/2/2
f 2/2/2 5/5/5 4/4/4
f 6/6/6 4/4/4 5/5/5
f 6/6/6 5/5/5 7/7/7
f 8/8/8 7/7/7 5/5/5
f 8/8/8 9/9/9 7/7/7
f 10/10/10 7/7/7 9/9/9
f 9/9/9 11/11/11 10/10/10
f 12/12/12 10/10/10 11/11/11
f 11/11/11 13/13/13 12/12/12
f 14/14/13 12/12/12 13/13/13
f 17/15/14 16/16/15 15/17/16
f 18/18/17 15/17/16 16/16/15
f 18/18/17 16/16/15 19/19/18
f 20/20/19 19/19/18 16/16/15
f 23/21/20 22/22/21 21/23/22
f 24/24/23 21/23/22 22/22/21
f 21/23/22 24/24/23 25/25/24
f 26/26/25 25/25/24 24/24/23
f 26/26/25 27/27/26 25/25/24
f 28/28/27 25/25/24 27/27/26
f 28/28/27 27/27/26 29/29/28
f 30/30/29 29/29/28 27/27/26
f 29/29/28 30/30/29 31/31/30
f 32/32/31 31/31/30 30/30/29
f 32/32/31 33/33/32 31/31/30
f 34/34/32 31/31/30 33/33/32
