# Blender 5.1.0
# www.blender.org
mtllib Dr_Hull_Midsection_destroyer_A_001_0.mtl
o Dr_Hull_Midsection_destroyer_A_001_0
v -3.815455 5.000002 -0.001700
v -2.905474 0.000002 -2.283057
v -2.905474 5.000002 -2.283057
v -3.815455 0.000002 -0.001700
v -2.905474 -4.999998 -2.283057
v -3.815455 -4.999998 -0.001700
v 2.905474 0.000002 -2.283057
v 3.815455 5.000002 -0.001700
v 2.905474 5.000002 -2.283057
v 3.815455 0.000002 -0.001700
v 3.815455 -4.999998 -0.001700
v 2.905474 -4.999998 -2.283057
v -1.221073 -4.999998 -3.278141
v -2.905474 0.000002 -2.283057
v -2.905474 -4.999998 -2.283057
v -1.221073 0.000002 -3.278141
v -2.905474 5.000002 -2.283057
v -0.000000 -4.999998 -3.468548
v -1.221073 5.000002 -3.278141
v -0.000000 0.000002 -3.468548
v -0.000000 5.000002 -3.468548
v 1.221073 -4.999998 -3.278141
v 1.221073 5.000002 -3.278141
v 1.221073 0.000002 -3.278141
v 2.905474 -4.999998 -2.283057
v 2.905474 5.000002 -2.283057
v 2.905474 0.000002 -2.283057
vn -0.7594 -0.0000 -0.6506
vn -0.9288 -0.0000 -0.3705
vn 0.7594 -0.0000 -0.6506
vn 0.9288 -0.0000 -0.3705
vn -0.3374 -0.0000 -0.9414
vn -0.7594 -0.0002 -0.6506
vn -0.0000 -0.0000 -1.0000
vn 0.3374 -0.0000 -0.9414
vt -11.305529 0.102529
vt -11.214584 0.102529
vt -11.305529 0.145447
vt -11.214584 0.145447
vt -11.123640 0.102529
vt -11.123640 0.145447
vt 12.305529 0.102529
vt 12.305529 0.145447
vt 12.214584 0.102529
vt 12.214584 0.145447
vt 12.123640 0.145447
vt 12.123640 0.102529
vt 0.444665 -11.123640
vt 0.444665 -11.214584
vt 0.476765 -11.123640
vt 0.476765 -11.214584
vt 0.444666 -11.305529
vt 0.500034 -11.123640
vt 0.476765 -11.305529
vt 0.500034 -11.214584
vt 0.500035 -11.305529
vt 0.523304 -11.123640
vt 0.523304 -11.305529
vt 0.523304 -11.214584
vt 0.555403 -11.123640
vt 0.555404 -11.305529
vt 0.555403 -11.214584
s 1
g Dr_Hull_Midsection_destroyer_A_001_0_hull_bottom
usemtl hull_bottom
f 3/1/1 2/2/1 1/3/2
f 4/4/2 1/3/2 2/2/1
f 2/2/1 5/5/1 4/4/2
f 6/6/2 4/4/2 5/5/1
f 9/7/3 8/8/4 7/9/3
f 10/10/4 7/9/3 8/8/4
f 10/10/4 11/11/4 7/9/3
f 12/12/3 7/9/3 11/11/4
f 15/13/1 14/14/1 13/15/5
f 16/16/5 13/15/5 14/14/1
f 14/14/1 17/17/6 16/16/5
f 13/15/5 16/16/5 18/18/7
f 19/19/5 16/16/5 17/17/6
f 20/20/7 18/18/7 16/16/5
f 16/16/5 19/19/5 20/20/7
f 21/21/7 20/20/7 19/19/5
f 18/18/7 20/20/7 22/22/8
f 21/21/7 23/23/8 20/20/7
f 24/24/8 22/22/8 20/20/7
f 24/24/8 20/20/7 23/23/8
f 22/22/8 24/24/8 25/25/3
f 23/23/8 26/26/3 24/24/8
f 27/27/3 25/25/3 24/24/8
f 27/27/3 24/24/8 26/26/3
