# Blender 5.1.0
# www.blender.org
mtllib Dr_Hull_Midsection_destroyer_A_001_3.mtl
o Dr_Hull_Midsection_destroyer_A_001_3
v -2.356007 0.000002 2.693636
v -2.356007 5.000002 2.693636
v -2.356008 -4.999998 2.693636
v 2.356007 0.000002 2.693636
v 2.356007 5.000001 2.693636
v 2.356007 -4.999998 2.693636
v -0.000000 -4.999998 2.693636
v -0.000000 0.000002 2.693636
v -0.000000 5.000001 2.693636
vn -0.0000 -0.0000 1.0000
vt 0.455068 -11.123640
vt 0.455068 -11.214584
vt 0.499966 -11.123640
vt 0.499966 -11.214584
vt 0.455067 -11.305529
vt 0.544864 -11.123640
vt 0.499965 -11.305529
vt 0.544863 -11.214584
vt 0.544863 -11.305529
s 1
g Dr_Hull_Midsection_destroyer_A_001_3_steel_deck_1
usemtl steel_deck_1
f 6/1/1 4/2/1 7/3/1
f 8/4/1 7/3/1 4/2/1
f 4/2/1 5/5/1 8/4/1
f 7/3/1 8/4/1 3/6/1
f 9/7/1 8/4/1 5/5/1
f 1/8/1 3/6/1 8/4/1
f 9/7/1 2/9/1 8/4/1
f 1/8/1 8/4/1 2/9/1
