# Blender 5.1.0
# www.blender.org
mtllib Bsh_Hull_Rostrum_Dredn_C_001_4.mtl
o Bsh_Hull_Rostrum_Dredn_C_001_4
v -12.177798 42.430588 5.099118
v 12.177794 42.430580 5.099140
v -7.437143 74.739227 5.099110
v -6.013288 78.561165 5.099106
v -6.013292 62.739197 5.099111
v -9.000109 68.739227 5.099107
v -10.156656 62.739220 5.099109
v -7.720667 60.744400 5.099118
v -8.028817 60.283188 5.099120
v -8.137026 59.739197 5.099116
v -10.957989 56.739212 5.099111
v -8.137024 53.739197 5.099122
v -9.844399 51.744400 5.099114
v -10.152548 51.283195 5.099117
v -11.566724 50.739220 5.099114
v -10.260752 50.739204 5.099113
v -10.260752 44.739197 5.099118
v -12.048531 44.739220 5.099117
v -11.968130 42.744408 5.099111
v -12.384500 34.970566 8.022878
v -12.384498 38.739227 8.022881
v -0.000010 34.970558 8.022915
v -12.384502 41.739212 8.022877
v -12.276298 42.283203 8.022879
v -11.968132 42.744400 8.022883
v -10.260762 44.739204 8.022888
v -10.260767 50.739197 8.022888
v -10.152558 51.283195 8.022889
v -9.844394 51.744392 8.022888
v -8.137025 53.739197 8.022891
v -0.000007 62.739212 8.022902
v -8.137031 59.739197 8.022890
v -8.028827 60.283188 8.022891
v -7.720662 60.744385 8.022890
v -6.013293 62.739197 8.022887
v -0.000006 80.548973 8.232558
v -6.013289 80.548981 8.232545
v -4.695562 86.756866 8.305631
v 8.137013 53.739197 8.022903
v 9.844381 51.744385 8.022903
v 10.152546 51.283195 8.022904
v 8.137021 59.739197 8.022902
v 10.260745 50.739197 8.022903
v 8.028817 60.283188 8.022902
v 7.720652 60.744377 8.022902
v 6.013284 62.739197 8.022900
v 10.260739 44.739204 8.022904
v 6.013282 80.548981 8.232554
v 4.695554 86.756866 8.305636
v 11.968108 42.744392 8.022908
v 12.276274 42.283203 8.022907
v 12.384478 41.739204 8.022904
v 12.384473 38.739220 8.022909
v 12.384475 34.970558 8.022907
v -0.000005 86.756866 8.305635
v 2.384456 88.524712 8.326428
v 2.725076 88.524719 8.326437
v 2.109057 89.247452 8.334936
v 2.998918 89.247452 8.334940
v 3.103948 90.091667 8.344875
v 2.998930 90.706825 8.352115
v 3.156647 92.742767 8.376074
v 2.004026 90.091660 8.344875
v 2.724497 91.086288 8.356586
v 2.301332 91.898643 8.366143
v 2.384321 91.087250 8.356600
v 2.406358 92.742783 8.376084
v 2.028683 91.175903 8.357633
v 2.441582 94.991638 8.402543
v 2.109061 90.706825 8.352115
v 2.301347 93.358017 8.383326
v 2.026344 93.738235 8.387802
v 1.684124 91.175911 8.357632
v 1.686450 93.738235 8.387798
v -0.000004 94.991653 8.402559
v 1.150643 99.228134 8.452426
v 1.411462 93.357994 8.383321
v 0.798940 99.929855 8.460692
v 0.516592 100.231934 8.464250
v -0.000004 100.446198 8.466776
v -0.516600 100.231934 8.464257
v -0.798949 99.929855 8.460700
v -1.150651 99.228134 8.452434
v 1.306426 92.742783 8.376082
v -2.441591 94.991638 8.402548
v -0.000005 90.706818 8.352116
v 1.411473 91.898651 8.366135
v -1.686459 93.738235 8.387806
v -1.411472 93.357994 8.383328
v -1.306436 92.742783 8.376089
v -2.026354 93.738235 8.387806
v -2.301357 93.358017 8.383330
v -2.406368 92.742783 8.376089
v -1.411483 91.898651 8.366142
v -3.156654 92.742767 8.376078
v -1.684134 91.175911 8.357638
v -2.301342 91.898643 8.366147
v -2.109071 90.706825 8.352119
v -2.028693 91.175903 8.357636
v -2.004036 90.091660 8.344879
v -2.384331 91.087250 8.356604
v -2.724505 91.086288 8.356589
v -2.998938 90.706825 8.352119
v -2.109068 89.247452 8.334940
v -2.384467 88.524712 8.326432
v -3.103956 90.091667 8.344879
v -2.725084 88.524719 8.326441
v -2.998926 89.247452 8.334944
v 7.437135 74.739227 5.099120
v 6.013282 62.739197 5.099122
v 6.013280 78.561165 5.099114
v 9.000099 68.739227 5.099123
v 10.156647 62.739220 5.099127
v 7.720657 60.744400 5.099130
v 8.028806 60.283188 5.099132
v 8.137014 59.739197 5.099128
v 10.957987 56.739212 5.099131
v 8.137012 53.739197 5.099134
v 9.844386 51.744400 5.099133
v 10.152535 51.283195 5.099137
v 11.566722 50.739212 5.099134
v 10.260750 50.739197 5.099133
v 10.260749 44.739197 5.099138
v 12.048527 44.739212 5.099139
v 11.968125 42.744408 5.099133
v -12.384479 18.000021 5.099122
v -12.384483 17.308599 5.099121
v 12.384479 18.000021 5.099122
v 12.384485 17.308599 5.099121
v -12.384476 24.970541 8.022914
v 0.000001 24.970541 8.022919
v -12.384475 20.999975 8.022914
v -12.384479 17.999989 8.022909
v -12.276274 17.455996 8.022910
v -11.968108 16.994799 8.022911
v -10.260739 14.999994 8.022906
v 10.260741 14.999994 8.022906
v 11.968110 16.994799 8.022911
v 12.276275 17.455994 8.022910
v 12.384479 17.999989 8.022909
v 12.384477 20.999975 8.022914
v 12.384477 24.970541 8.022914
v -12.276275 17.455992 5.099143
v -12.384481 14.999971 5.099110
v -11.968125 16.994785 5.099136
v -10.260747 14.999998 5.099141
v 12.276276 17.455992 5.099143
v 12.384483 14.999971 5.099110
v 11.968127 16.994785 5.099136
v 10.260748 14.999998 5.099141
v -0.000006 34.970558 8.022894
v -12.384518 34.598679 8.022891
v -12.384517 34.970558 8.022891
v -10.993739 29.888613 8.022892
v -11.840528 28.931273 8.022892
v -0.000007 24.970545 8.022894
v -12.206242 28.514265 8.022891
v -12.384529 27.989046 8.022890
v -12.384524 24.970545 8.022890
v 11.840514 28.931269 8.022899
v 10.993726 29.888613 8.022899
v 12.384503 34.598679 8.022898
v 12.384503 34.970558 8.022898
v 12.206228 28.514261 8.022898
v 12.384515 27.989042 8.022896
v 12.384508 24.970545 8.022898
v -12.206237 28.514273 5.099120
v -12.384522 27.989042 5.099118
v -12.384516 34.598694 5.099118
v -11.840524 28.931292 5.099117
v -10.995064 29.893248 5.099118
v 12.206223 28.514269 5.099127
v 12.384501 34.598694 5.099125
v 12.384510 27.989038 5.099125
v 11.840509 28.931292 5.099124
v 10.995050 29.893248 5.099125
v -10.260739 14.999952 5.099145
v -12.384520 4.999994 5.099130
v -12.384506 14.999971 5.099129
v -5.228716 9.862606 5.099147
v -3.000022 7.766863 5.099149
v 2.999967 7.766859 5.099149
v 12.384505 4.999983 5.099140
v 5.228707 9.862598 5.099154
v 10.260804 14.999947 5.099150
v 12.384500 14.999960 5.099138
v 5.228704 9.862589 8.022911
v -0.000003 14.999939 8.022918
v 10.260808 14.999937 8.022908
v -10.260747 14.999943 8.022908
v -5.228718 9.862595 8.022910
v -3.000026 7.766851 8.022914
v 2.999966 7.766846 8.022910
v -1.787539 6.626690 8.022914
v 1.787476 6.626682 8.022910
vn -0.0000 -0.0000 1.0000
vn -0.0000 -0.0059 1.0000
vn -0.0000 -0.0048 1.0000
vn -0.0000 -0.0118 0.9999
vn -0.0000 0.0248 0.9997
vn -0.0000 0.0241 0.9997
vn -0.0002 -0.0000 1.0000
vn 0.0002 -0.0000 1.0000
vn -0.0000 0.0220 0.9998
vn -0.0000 0.0929 0.9957
vn -0.0000 0.0370 0.9993
vt 0.584549 0.534681
vt 0.584549 0.646103
vt 0.604603 0.619188
vt 0.626617 0.576934
vt 0.642906 0.534681
vt 0.608597 0.520633
vt 0.612937 0.517385
vt 0.614461 0.513554
vt 0.654193 0.492427
vt 0.614461 0.471300
vt 0.638508 0.457253
vt 0.642848 0.454005
vt 0.662766 0.450174
vt 0.644373 0.450174
vt 0.644373 0.407920
vt 0.669553 0.407920
vt 0.668420 0.393872
vt 0.671373 0.391662
vt 0.499855 0.339127
vt 0.674284 0.365667
vt 0.674284 0.339127
vt 0.674284 0.386793
vt 0.672760 0.390624
vt 0.668420 0.393872
vt 0.644373 0.407920
vt 0.644373 0.450174
vt 0.642849 0.454005
vt 0.638508 0.457253
vt 0.614461 0.471300
vt 0.499855 0.534681
vt 0.614461 0.513554
vt 0.612937 0.517385
vt 0.608597 0.520633
vt 0.499855 0.660102
vt 0.584549 0.660102
vt 0.565990 0.703819
vt 0.385249 0.471300
vt 0.361202 0.457252
vt 0.356861 0.454005
vt 0.385249 0.513554
vt 0.355337 0.450174
vt 0.386773 0.517385
vt 0.391113 0.520633
vt 0.415161 0.534681
vt 0.355337 0.407920
vt 0.415161 0.660102
vt 0.433720 0.703819
vt 0.331290 0.393872
vt 0.326950 0.390624
vt 0.325426 0.386793
vt 0.325426 0.365667
vt 0.325426 0.339127
vt 0.499855 0.703819
vt 0.466271 0.716269
vt 0.461474 0.716269
vt 0.470150 0.721359
vt 0.457617 0.721359
vt 0.456137 0.727304
vt 0.457616 0.731636
vt 0.455395 0.745973
vt 0.471629 0.727304
vt 0.461482 0.734308
vt 0.467442 0.740029
vt 0.466273 0.734315
vt 0.465962 0.745974
vt 0.471282 0.734939
vt 0.465466 0.761811
vt 0.470150 0.731636
vt 0.467442 0.750306
vt 0.471315 0.752984
vt 0.476135 0.734939
vt 0.476102 0.752984
vt 0.499855 0.761811
vt 0.483649 0.791645
vt 0.479975 0.750306
vt 0.488602 0.796587
vt 0.492579 0.798714
vt 0.499855 0.800223
vt 0.507131 0.798714
vt 0.511108 0.796587
vt 0.516061 0.791645
vt 0.481455 0.745974
vt 0.534243 0.761811
vt 0.499855 0.731636
vt 0.479975 0.740029
vt 0.523608 0.752984
vt 0.519735 0.750306
vt 0.518255 0.745974
vt 0.528395 0.752984
vt 0.532268 0.750306
vt 0.533747 0.745974
vt 0.519735 0.740029
vt 0.544315 0.745973
vt 0.523575 0.734939
vt 0.532268 0.740029
vt 0.529560 0.731636
vt 0.528428 0.734939
vt 0.528081 0.727304
vt 0.533437 0.734315
vt 0.538228 0.734308
vt 0.542093 0.731636
vt 0.529560 0.721359
vt 0.533439 0.716269
vt 0.543573 0.727304
vt 0.538236 0.716269
vt 0.542093 0.721359
vt 0.415161 0.646103
vt 0.415161 0.534681
vt 0.395106 0.619188
vt 0.373093 0.576934
vt 0.356804 0.534681
vt 0.391113 0.520633
vt 0.386773 0.517385
vt 0.385249 0.513554
vt 0.345517 0.492427
vt 0.385249 0.471300
vt 0.361202 0.457253
vt 0.356861 0.454005
vt 0.336943 0.450174
vt 0.355337 0.450174
vt 0.355337 0.407920
vt 0.330157 0.407920
vt 0.331290 0.393872
vt 0.328337 0.391662
vt 0.674284 0.240743
vt 0.499855 0.268704
vt 0.674284 0.268704
vt 0.674284 0.219616
vt 0.672760 0.215785
vt 0.668420 0.212537
vt 0.644372 0.198489
vt 0.355337 0.198489
vt 0.331290 0.212537
vt 0.326950 0.215785
vt 0.325426 0.219616
vt 0.325426 0.240743
vt 0.325426 0.268704
vt 0.674284 0.219616
vt 0.674284 0.214747
vt 0.674284 0.198489
vt 0.668420 0.212537
vt 0.644372 0.198489
vt 0.325426 0.214747
vt 0.325426 0.219616
vt 0.325426 0.198489
vt 0.331290 0.212537
vt 0.355337 0.198489
vt 0.674285 0.339127
vt 0.674285 0.336508
vt 0.499855 0.339127
vt 0.654696 0.303339
vt 0.666623 0.296597
vt 0.499855 0.268704
vt 0.671774 0.293660
vt 0.674285 0.289961
vt 0.674285 0.268704
vt 0.333087 0.296597
vt 0.345014 0.303339
vt 0.325425 0.336508
vt 0.325425 0.339127
vt 0.327936 0.293660
vt 0.325425 0.289961
vt 0.325425 0.268704
vt 0.674285 0.336508
vt 0.674285 0.289961
vt 0.671774 0.293660
vt 0.666623 0.296597
vt 0.654715 0.303371
vt 0.325425 0.289961
vt 0.325425 0.336508
vt 0.327936 0.293660
vt 0.333087 0.296597
vt 0.344995 0.303371
vt 0.674285 0.198489
vt 0.674285 0.128067
vt 0.644372 0.198489
vt 0.573499 0.162310
vt 0.542109 0.147552
vt 0.457602 0.147552
vt 0.325425 0.128067
vt 0.426211 0.162310
vt 0.355337 0.198489
vt 0.325425 0.198489
vt 0.355336 0.198489
vt 0.499855 0.198489
vt 0.426211 0.162310
vt 0.644372 0.198489
vt 0.573499 0.162310
vt 0.542109 0.147552
vt 0.457602 0.147551
vt 0.525031 0.139522
vt 0.474679 0.139522
s 1
g Bsh_Hull_Rostrum_Dredn_C_001_4_wood_deck_1
usemtl wood_deck_1
f 5/1/1 4/2/1 3/3/1
f 5/1/1 3/3/1 6/4/1
f 5/1/1 6/4/1 7/5/1
f 5/1/1 7/5/1 8/6/1
f 8/6/1 7/5/1 9/7/1
f 9/7/1 7/5/1 10/8/1
f 7/5/1 11/9/1 10/8/1
f 12/10/1 10/8/1 11/9/1
f 12/10/1 11/9/1 13/11/1
f 14/12/1 13/11/1 11/9/1
f 11/9/1 15/13/1 14/12/1
f 16/14/1 14/12/1 15/13/1
f 16/14/1 15/13/1 17/15/1
f 18/16/1 17/15/1 15/13/1
f 17/15/1 18/16/1 19/17/1
f 19/17/1 18/16/1 1/18/1
f 22/19/1 21/20/1 20/21/1
f 21/20/1 22/19/1 23/22/1
f 23/22/1 22/19/1 24/23/1
f 22/19/1 25/24/1 24/23/1
f 22/19/1 26/25/1 25/24/1
f 26/25/1 22/19/1 27/26/1
f 27/26/1 22/19/1 28/27/1
f 28/27/1 22/19/1 29/28/1
f 29/28/1 22/19/1 30/29/1
f 22/19/1 31/30/2 30/29/1
f 30/29/1 31/30/2 32/31/1
f 32/31/1 31/30/2 33/32/1
f 33/32/1 31/30/2 34/33/1
f 34/33/1 31/30/2 35/1/3
f 31/30/2 36/34/4 35/1/3
f 37/35/4 35/1/3 36/34/4
f 37/35/4 36/34/4 38/36/4
f 31/30/2 22/19/1 39/37/1
f 22/19/1 40/38/1 39/37/1
f 22/19/1 41/39/1 40/38/1
f 31/30/2 39/37/1 42/40/1
f 22/19/1 43/41/1 41/39/1
f 31/30/2 42/40/1 44/42/1
f 31/30/2 44/42/1 45/43/1
f 31/30/2 45/43/1 46/44/3
f 31/30/2 46/44/3 36/34/4
f 22/19/1 47/45/1 43/41/1
f 48/46/4 36/34/4 46/44/3
f 48/46/4 49/47/4 36/34/4
f 47/45/1 22/19/1 50/48/1
f 50/48/1 22/19/1 51/49/1
f 22/19/1 52/50/1 51/49/1
f 22/19/1 53/51/1 52/50/1
f 53/51/1 22/19/1 54/52/1
f 55/53/4 36/34/4 49/47/4
f 55/53/4 38/36/4 36/34/4
f 55/53/4 49/47/4 56/54/4
f 57/55/4 56/54/4 49/47/4
f 58/56/4 55/53/4 56/54/4
f 59/57/4 57/55/4 49/47/4
f 60/58/4 59/57/4 49/47/4
f 60/58/4 49/47/4 61/59/4
f 62/60/4 61/59/4 49/47/4
f 58/56/4 63/61/4 55/53/4
f 61/59/4 62/60/4 64/62/4
f 62/60/4 65/63/4 64/62/4
f 66/64/4 64/62/4 65/63/4
f 65/63/4 62/60/4 67/65/4
f 65/63/4 68/66/4 66/64/4
f 62/60/4 69/67/4 67/65/4
f 70/68/4 66/64/4 68/66/4
f 71/69/4 67/65/4 69/67/4
f 71/69/4 69/67/4 72/70/4
f 68/66/4 73/71/4 70/68/4
f 72/70/4 69/67/4 74/72/4
f 75/73/4 74/72/4 69/67/4
f 76/74/4 75/73/4 69/67/4
f 77/75/4 74/72/4 75/73/4
f 78/76/4 75/73/4 76/74/4
f 78/76/4 79/77/4 75/73/4
f 80/78/4 75/73/4 79/77/4
f 80/78/4 81/79/4 75/73/4
f 82/80/4 75/73/4 81/79/4
f 75/73/4 82/80/4 83/81/4
f 75/73/4 84/82/4 77/75/4
f 75/73/4 83/81/4 85/83/4
f 75/73/4 86/84/4 84/82/4
f 87/85/4 84/82/4 86/84/4
f 86/84/4 73/71/4 87/85/4
f 86/84/4 70/68/4 73/71/4
f 86/84/4 63/61/4 70/68/4
f 86/84/4 55/53/4 63/61/4
f 75/73/4 85/83/4 88/86/4
f 88/86/4 89/87/4 75/73/4
f 90/88/4 75/73/4 89/87/4
f 75/73/4 90/88/4 86/84/4
f 91/89/4 88/86/4 85/83/4
f 85/83/4 92/90/4 91/89/4
f 92/90/4 85/83/4 93/91/4
f 94/92/4 86/84/4 90/88/4
f 95/93/4 93/91/4 85/83/4
f 96/94/4 86/84/4 94/92/4
f 95/93/4 97/95/4 93/91/4
f 86/84/4 96/94/4 98/96/4
f 99/97/4 98/96/4 96/94/4
f 100/98/4 86/84/4 98/96/4
f 98/96/4 99/97/4 101/99/4
f 97/95/4 101/99/4 99/97/4
f 101/99/4 97/95/4 102/100/4
f 95/93/4 102/100/4 97/95/4
f 95/93/4 103/101/4 102/100/4
f 86/84/4 100/98/4 55/53/4
f 104/102/4 55/53/4 100/98/4
f 55/53/4 104/102/4 105/103/4
f 95/93/4 38/36/4 103/101/4
f 55/53/4 105/103/4 38/36/4
f 106/104/4 103/101/4 38/36/4
f 107/105/4 38/36/4 105/103/4
f 108/106/4 106/104/4 38/36/4
f 107/105/4 108/106/4 38/36/4
f 111/107/1 110/108/1 109/109/1
f 109/109/1 110/108/1 112/110/1
f 112/110/1 110/108/1 113/111/1
f 113/111/1 110/108/1 114/112/1
f 113/111/1 114/112/1 115/113/1
f 113/111/1 115/113/1 116/114/1
f 113/111/1 116/114/1 117/115/1
f 118/116/1 117/115/1 116/114/1
f 117/115/1 118/116/1 119/117/1
f 119/117/1 120/118/1 117/115/1
f 117/115/1 120/118/1 121/119/1
f 122/120/1 121/119/1 120/118/1
f 122/120/1 123/121/1 121/119/1
f 124/122/1 121/119/1 123/121/1
f 124/122/1 123/121/1 125/123/1
f 124/122/1 125/123/1 2/124/1
f 132/125/1 131/126/1 130/127/1
f 131/126/1 132/125/1 133/128/1
f 131/126/1 133/128/1 134/129/1
f 135/130/1 131/126/1 134/129/1
f 136/131/5 131/126/1 135/130/1
f 131/126/1 137/132/6 138/133/1
f 131/126/1 138/133/1 139/134/1
f 140/135/1 131/126/1 139/134/1
f 141/136/1 131/126/1 140/135/1
f 131/126/1 141/136/1 142/137/1
f 126/138/7 127/139/7 143/129/7
f 127/139/7 144/140/1 143/129/7
f 145/141/1 143/129/7 144/140/1
f 146/142/1 145/141/1 144/140/1
f 129/143/8 128/144/8 147/134/8
f 129/143/8 147/134/8 148/145/1
f 149/146/1 148/145/1 147/134/8
f 149/146/1 150/147/1 148/145/1
f 153/148/1 152/149/1 151/150/1
f 152/149/1 154/151/1 151/150/1
f 154/151/1 155/152/1 151/150/1
f 156/153/1 151/150/1 155/152/1
f 156/153/1 155/152/1 157/154/1
f 158/155/1 156/153/1 157/154/1
f 159/156/1 156/153/1 158/155/1
f 156/153/1 160/157/1 151/150/1
f 161/158/1 151/150/1 160/157/1
f 161/158/1 162/159/1 151/150/1
f 162/159/1 163/160/1 151/150/1
f 160/157/1 156/153/1 164/161/1
f 156/153/1 165/162/1 164/161/1
f 156/153/1 166/163/1 165/162/1
f 169/164/1 168/165/1 167/166/1
f 170/167/1 169/164/1 167/166/1
f 171/168/1 169/164/1 170/167/1
f 174/169/1 173/170/1 172/171/1
f 173/170/1 175/172/1 172/171/1
f 173/170/1 176/173/1 175/172/1
f 179/174/1 178/175/1 177/176/1
f 180/177/1 177/176/1 178/175/1
f 180/177/1 178/175/1 181/178/1
f 181/178/1 178/175/1 182/179/1
f 183/180/1 182/179/1 178/175/1
f 182/179/1 183/180/1 184/181/1
f 184/181/1 183/180/1 185/182/1
f 186/183/1 185/182/1 183/180/1
f 189/184/9 188/185/10 187/186/1
f 188/185/10 190/187/11 187/186/1
f 190/187/11 191/188/1 187/186/1
f 191/188/1 192/189/1 187/186/1
f 193/190/1 187/186/1 192/189/1
f 192/189/1 194/191/1 193/190/1
f 195/192/1 193/190/1 194/191/1
f 136/131/5 188/185/10 137/132/6
f 137/132/6 131/126/1 136/131/5
f 136/131/5 190/187/11 188/185/10
f 188/185/10 189/184/9 137/132/6
