# Blender 5.1.0
# www.blender.org
mtllib Bsh_Hull_Rostrum_Dredn_C_001_9.mtl
o Bsh_Hull_Rostrum_Dredn_C_001_9
v -1.429295 79.978935 8.948204
v -1.512076 79.799515 8.766991
v -1.449104 79.993332 8.766994
v -1.487591 79.799515 8.948201
v -1.449104 79.605713 8.766993
v -1.429295 79.620102 8.948204
v -1.449104 79.993332 8.766994
v -1.276673 80.089821 8.948205
v -1.429295 79.978935 8.948204
v -1.284240 80.113113 8.766994
v -1.088023 80.089821 8.948204
v -1.080457 80.113113 8.766994
v -0.935402 79.978935 8.948204
v -0.915593 79.993332 8.766993
v -0.915593 79.993332 8.766993
v -0.877106 79.799515 8.948204
v -0.935402 79.978935 8.948204
v -0.852621 79.799515 8.766993
v -0.935403 79.620102 8.948204
v -0.915594 79.605713 8.766993
v -0.915594 79.605713 8.766993
v -1.088023 79.509216 8.948204
v -0.935403 79.620102 8.948204
v -1.080457 79.485931 8.766993
v -1.276674 79.509216 8.948204
v -1.284240 79.485931 8.766993
v -1.429295 79.620102 8.948204
v -1.449104 79.605713 8.766993
v 1.512056 79.799515 8.766986
v 1.429275 79.978935 8.948199
v 1.449084 79.993332 8.766989
v 1.487571 79.799515 8.948197
v 1.449084 79.605713 8.766989
v 1.429275 79.620102 8.948199
v 1.276654 80.089821 8.948199
v 1.449084 79.993332 8.766989
v 1.429275 79.978935 8.948199
v 1.284220 80.113113 8.766988
v 1.088003 80.089821 8.948199
v 1.080437 80.113113 8.766988
v 0.935383 79.978935 8.948199
v 0.915574 79.993332 8.766988
v 0.877087 79.799515 8.948199
v 0.915574 79.993332 8.766988
v 0.935383 79.978935 8.948199
v 0.852602 79.799515 8.766988
v 0.935383 79.620102 8.948199
v 0.915574 79.605713 8.766989
v 1.088004 79.509216 8.948199
v 0.915574 79.605713 8.766989
v 0.935383 79.620102 8.948199
v 1.080437 79.485931 8.766989
v 1.276654 79.509216 8.948199
v 1.284221 79.485931 8.766989
v 1.429275 79.620102 8.948199
v 1.449084 79.605713 8.766989
vn -0.6024 0.4377 0.6675
vn -0.7446 -0.0000 0.6675
vn -0.7398 0.5376 -0.4046
vn -0.9145 -0.0000 -0.4046
vn -0.6024 -0.4377 0.6675
vn -0.7398 -0.5375 -0.4046
vn -0.7399 0.5374 -0.4046
vn -0.2826 0.8697 -0.4046
vn -0.6025 0.4376 0.6675
vn -0.2301 0.7082 0.6675
vn 0.2827 0.8697 -0.4046
vn 0.2302 0.7082 0.6675
vn 0.7399 0.5375 -0.4046
vn 0.6025 0.4376 0.6675
vn 0.7398 0.5376 -0.4046
vn 0.9145 -0.0000 -0.4046
vn 0.6024 0.4377 0.6675
vn 0.7446 -0.0000 0.6675
vn 0.7398 -0.5375 -0.4046
vn 0.6024 -0.4377 0.6675
vn 0.7399 -0.5375 -0.4046
vn 0.2826 -0.8697 -0.4046
vn 0.2301 -0.7082 0.6675
vn -0.2826 -0.8697 -0.4046
vn -0.2301 -0.7082 0.6675
vn -0.6025 -0.4377 0.6675
vn 0.7398 0.5375 -0.4046
vn 0.2301 0.7082 0.6675
vn -0.7399 0.5375 -0.4046
vn -0.6024 -0.4376 0.6675
vn -0.7398 -0.5376 -0.4046
vn 0.2825 -0.8697 -0.4046
vt -16.896114 0.347879
vt -16.893179 0.347878
vt -16.895897 0.350614
vt -16.893179 0.350614
vt -16.890242 0.347879
vt -16.890459 0.350614
vt 0.521476 0.350614
vt 0.519177 0.350614
vt 0.521774 0.347879
vt 0.519291 0.347879
vt 0.516336 0.350614
vt 0.516222 0.347879
vt 0.514038 0.350614
vt 0.513740 0.347879
vt 17.895897 0.350614
vt 17.893179 0.350614
vt 17.896114 0.347879
vt 17.893179 0.347879
vt 17.890459 0.350614
vt 17.890242 0.347879
vt 0.485962 0.350614
vt 0.483664 0.350614
vt 0.486260 0.347879
vt 0.483778 0.347879
vt 0.480823 0.350614
vt 0.480709 0.347879
vt 0.478524 0.350614
vt 0.478226 0.347879
vt 17.896114 0.347878
vt 17.895897 0.350614
vt 17.893179 0.347878
vt 17.893179 0.350614
vt 17.890242 0.347878
vt 17.890459 0.350614
vt 0.478428 0.350614
vt 0.478129 0.347878
vt 0.480726 0.350614
vt 0.480612 0.347878
vt 0.483567 0.350614
vt 0.483681 0.347878
vt 0.485865 0.350614
vt 0.486164 0.347878
vt -16.895897 0.350614
vt -16.896114 0.347878
vt -16.893179 0.350614
vt -16.893179 0.347878
vt -16.890459 0.350614
vt -16.890242 0.347878
vt 0.514135 0.350614
vt 0.513836 0.347878
vt 0.516433 0.350614
vt 0.516319 0.347878
vt 0.519274 0.350614
vt 0.519388 0.347878
vt 0.521572 0.350614
vt 0.521871 0.347878
s 1
g Bsh_Hull_Rostrum_Dredn_C_001_9_details_3
usemtl details_3
f 3/1/1 2/2/2 1/3/3
f 4/4/4 1/3/3 2/2/2
f 2/2/2 5/5/5 4/4/4
f 6/6/6 4/4/4 5/5/5
f 9/7/7 8/8/8 7/9/9
f 10/10/10 7/9/9 8/8/8
f 8/8/8 11/11/11 10/10/10
f 12/12/12 10/10/10 11/11/11
f 11/11/11 13/13/13 12/12/12
f 14/14/14 12/12/12 13/13/13
f 17/15/15 16/16/16 15/17/17
f 18/18/18 15/17/17 16/16/16
f 16/16/16 19/19/19 18/18/18
f 20/20/20 18/18/18 19/19/19
f 23/21/21 22/22/22 21/23/20
f 24/24/23 21/23/20 22/22/22
f 22/22/22 25/25/24 24/24/23
f 26/26/25 24/24/23 25/25/24
f 25/25/24 27/27/6 26/26/25
f 28/28/26 26/26/25 27/27/6
f 31/29/17 30/30/27 29/31/18
f 32/32/16 29/31/18 30/30/27
f 29/31/18 32/32/16 33/33/20
f 34/34/19 33/33/20 32/32/16
f 37/35/13 36/36/14 35/37/11
f 38/38/28 35/37/11 36/36/14
f 35/37/11 38/38/28 39/39/8
f 40/40/10 39/39/8 38/38/28
f 39/39/8 40/40/10 41/41/29
f 42/42/9 41/41/29 40/40/10
f 45/43/3 44/44/1 43/45/4
f 46/46/2 43/45/4 44/44/1
f 43/45/4 46/46/2 47/47/6
f 48/48/30 47/47/6 46/46/2
f 51/49/31 50/50/26 49/51/24
f 52/52/25 49/51/24 50/50/26
f 49/51/24 52/52/25 53/53/32
f 54/54/23 53/53/32 52/52/25
f 53/53/32 54/54/23 55/55/19
f 56/56/20 55/55/19 54/54/23
