# Blender 5.1.0
# www.blender.org
mtllib Bsh_Hull_Stern_Dredn_AD1_002_6.mtl
o Bsh_Hull_Stern_Dredn_AD1_002_6
v -2.335218 -50.496201 -7.445093
v -2.435891 -50.496201 -7.202046
v -2.435891 -50.496201 -7.688138
v -2.435891 -50.496201 -7.202046
v -2.678937 -50.496201 -7.101373
v -2.921984 -50.496201 -7.202046
v -2.921984 -50.496201 -7.202046
v -3.022657 -50.496201 -7.445094
v -2.921984 -50.496201 -7.688141
v -2.921984 -50.496201 -7.688141
v -2.678937 -50.496201 -7.788814
v -2.435891 -50.496201 -7.688138
v -5.309917 -47.477032 -6.885317
v -5.410591 -47.477032 -6.642271
v -5.410591 -47.477032 -7.128363
v -5.410591 -47.477032 -6.642271
v -5.653637 -47.477032 -6.541597
v -5.896684 -47.477032 -6.642271
v -5.896684 -47.477032 -6.642271
v -5.997357 -47.477032 -6.885319
v -5.896683 -47.477032 -7.128366
v -5.896683 -47.477032 -7.128366
v -5.653636 -47.477032 -7.229039
v -5.410591 -47.477032 -7.128363
v 2.335231 -50.496201 -7.445093
v 2.435904 -50.496201 -7.202046
v 2.435904 -50.496201 -7.688138
v 2.435904 -50.496201 -7.202046
v 2.678950 -50.496201 -7.101373
v 2.921997 -50.496201 -7.202046
v 2.921997 -50.496201 -7.202046
v 3.022670 -50.496201 -7.445093
v 2.921997 -50.496201 -7.688141
v 2.921997 -50.496201 -7.688141
v 2.678950 -50.496201 -7.788814
v 2.435904 -50.496201 -7.688138
v 5.309931 -47.477032 -6.885318
v 5.410604 -47.477032 -6.642271
v 5.410604 -47.477032 -7.128363
v 5.410604 -47.477032 -6.642271
v 5.653650 -47.477032 -6.541597
v 5.896697 -47.477032 -6.642271
v 5.896697 -47.477032 -6.642271
v 5.997370 -47.477032 -6.885319
v 5.896697 -47.477032 -7.128366
v 5.896697 -47.477032 -7.128366
v 5.653650 -47.477032 -7.229039
v 5.410604 -47.477032 -7.128363
v 1.701603 -48.975113 5.637829
v 1.746799 -49.202690 5.850624
v 1.678342 -48.992008 5.850624
v 1.775551 -49.202690 5.637829
v 1.678343 -49.413372 5.850624
v 1.701604 -49.430286 5.637829
v 1.678342 -48.992008 5.850624
v 1.508007 -48.834450 5.637828
v 1.701603 -48.975113 5.637829
v 1.499122 -48.861794 5.850624
v 1.268708 -48.834450 5.637827
v 1.277591 -48.861794 5.850624
v 1.075111 -48.975113 5.637827
v 1.098371 -48.992008 5.850624
v 1.098371 -48.992008 5.850624
v 1.001163 -49.202690 5.637827
v 1.075111 -48.975113 5.637827
v 1.029915 -49.202690 5.850624
v 1.075111 -49.430286 5.637827
v 1.098371 -49.413372 5.850624
v 1.098371 -49.413372 5.850624
v 1.268708 -49.570930 5.637827
v 1.075111 -49.430286 5.637827
v 1.277592 -49.543587 5.850624
v 1.508007 -49.570930 5.637829
v 1.499122 -49.543587 5.850624
v 1.701604 -49.430286 5.637829
v 1.678343 -49.413372 5.850624
v -1.678333 -48.992001 5.850619
v -1.775542 -49.202686 5.637824
v -1.701595 -48.975109 5.637824
v -1.746790 -49.202686 5.850619
v -1.701595 -49.430283 5.637824
v -1.678334 -49.413368 5.850619
v -1.701595 -48.975109 5.637824
v -1.499113 -48.861786 5.850619
v -1.678333 -48.992001 5.850619
v -1.507998 -48.834442 5.637824
v -1.277584 -48.861786 5.850619
v -1.268698 -48.834442 5.637825
v -1.098363 -48.992001 5.850619
v -1.075101 -48.975109 5.637825
v -1.075101 -48.975109 5.637825
v -1.029907 -49.202686 5.850619
v -1.098363 -48.992001 5.850619
v -1.001153 -49.202686 5.637825
v -1.098364 -49.413368 5.850619
v -1.075101 -49.430283 5.637825
v -1.075101 -49.430283 5.637825
v -1.277584 -49.543583 5.850619
v -1.098364 -49.413368 5.850619
v -1.268698 -49.570927 5.637825
v -1.499113 -49.543583 5.850619
v -1.507998 -49.570927 5.637824
v -1.678334 -49.413368 5.850619
v -1.701595 -49.430283 5.637824
v -2.466658 -45.177746 -7.445096
v -2.528834 -48.109325 -7.294992
v -2.528833 -45.177746 -7.294992
v -2.466660 -48.109325 -7.445095
v -2.528833 -45.177746 -7.595198
v -2.528834 -48.109325 -7.595198
v -2.678936 -45.177746 -7.657374
v -2.528834 -48.109325 -7.595198
v -2.528833 -45.177746 -7.595198
v -2.678937 -48.109325 -7.657373
v -2.829039 -45.177746 -7.595198
v -2.829040 -48.109325 -7.595198
v -2.891213 -45.177746 -7.445096
v -2.829040 -48.109325 -7.595198
v -2.829039 -45.177746 -7.595198
v -2.891215 -48.109325 -7.445095
v -2.829039 -45.177746 -7.294993
v -2.829040 -48.109325 -7.294992
v -2.678936 -45.177746 -7.232817
v -2.829040 -48.109325 -7.294992
v -2.829039 -45.177746 -7.294993
v -2.678937 -48.109325 -7.232817
v -2.528833 -45.177746 -7.294992
v -2.528834 -48.109325 -7.294992
v -3.098560 -50.585175 -6.880646
v -2.462001 -50.823174 -7.234962
v -2.905974 -50.565948 -7.243070
v -2.288967 -50.879482 -6.871293
v -2.310571 -50.800995 -6.104780
v -3.055905 -50.669540 -6.110950
v -2.534833 -50.695301 -5.670029
v -2.808125 -50.692238 -5.673634
v -2.449450 -50.792713 -7.236409
v -3.074751 -50.518135 -6.878496
v -2.890049 -50.538361 -7.236409
v -2.264747 -50.812950 -6.878496
v -2.294276 -50.731747 -6.106349
v -3.045224 -50.599335 -6.106349
v -2.531374 -50.665546 -5.669586
v -2.808125 -50.665546 -5.669586
v -2.288967 -50.879482 -6.871293
v -2.449450 -50.792713 -7.236409
v -2.462001 -50.823174 -7.234962
v -2.264747 -50.812950 -6.878496
v -2.310571 -50.800995 -6.104780
v -2.294276 -50.731747 -6.106349
v -2.534833 -50.695301 -5.670029
v -2.531374 -50.665546 -5.669586
v -3.074751 -50.518135 -6.878496
v -2.905974 -50.565948 -7.243070
v -2.890049 -50.538361 -7.236409
v -3.098560 -50.585175 -6.880646
v -3.045224 -50.599335 -6.106349
v -3.055905 -50.669540 -6.110950
v -2.808125 -50.665546 -5.669586
v -2.808125 -50.692238 -5.673634
v -2.531374 -50.665546 -5.669586
v -2.808125 -50.692238 -5.673634
v -2.808125 -50.665546 -5.669586
v -2.534833 -50.695301 -5.670029
v -2.957953 -50.585175 -8.090722
v -2.969385 -50.823174 -7.362286
v -2.740377 -50.565948 -7.742726
v -3.370848 -50.879482 -7.394269
v -4.023868 -50.800995 -7.796237
v -3.645856 -50.669540 -8.438629
v -4.288241 -50.695301 -8.207828
v -4.148473 -50.692238 -8.442703
v -2.974408 -50.792713 -7.350692
v -2.971719 -50.518135 -8.071177
v -2.754108 -50.538361 -7.732265
v -3.376721 -50.812950 -7.369692
v -4.030657 -50.731747 -7.781339
v -3.655182 -50.599335 -8.431679
v -4.290355 -50.665546 -8.205053
v -4.151978 -50.665546 -8.444727
v -3.370848 -50.879482 -7.394269
v -2.974408 -50.792713 -7.350692
v -2.969385 -50.823174 -7.362286
v -3.376721 -50.812950 -7.369692
v -4.023868 -50.800995 -7.796237
v -4.030657 -50.731747 -7.781339
v -2.971719 -50.518135 -8.071177
v -2.740377 -50.565948 -7.742726
v -2.754108 -50.538361 -7.732265
v -2.957953 -50.585175 -8.090722
v -3.655182 -50.599335 -8.431679
v -2.957953 -50.585175 -8.090722
v -2.971719 -50.518135 -8.071177
v -3.645856 -50.669540 -8.438629
v -4.151978 -50.665546 -8.444727
v -4.148473 -50.692238 -8.442703
v -4.290355 -50.665546 -8.205053
v -4.148473 -50.692238 -8.442703
v -4.151978 -50.665546 -8.444727
v -4.288241 -50.695301 -8.207828
v -4.030657 -50.731747 -7.781339
v -4.023868 -50.800995 -7.796237
v -1.980300 -50.585175 -7.363912
v -2.605428 -50.823174 -7.738033
v -2.390462 -50.565948 -7.349483
v -2.376998 -50.879482 -8.069717
v -1.702376 -50.800995 -8.434264
v -1.335053 -50.669540 -7.785702
v -1.213739 -50.695301 -8.457422
v -1.080215 -50.692238 -8.218941
v -2.612957 -50.792713 -7.748178
v -1.990343 -50.518135 -7.385606
v -2.392657 -50.538361 -7.366606
v -2.395346 -50.812950 -8.087093
v -1.711882 -50.731747 -8.447592
v -1.336407 -50.599335 -7.797252
v -1.215085 -50.665546 -8.460639
v -1.076709 -50.665546 -8.220965
v -2.612957 -50.792713 -7.748178
v -2.376998 -50.879482 -8.069717
v -2.395346 -50.812950 -8.087093
v -2.605428 -50.823174 -7.738033
v -1.990343 -50.518135 -7.385606
v -2.390462 -50.565948 -7.349483
v -2.392657 -50.538361 -7.366606
v -1.980300 -50.585175 -7.363912
v -1.336407 -50.599335 -7.797252
v -1.335053 -50.669540 -7.785702
v -1.702376 -50.800995 -8.434264
v -2.395346 -50.812950 -8.087093
v -2.376998 -50.879482 -8.069717
v -1.711882 -50.731747 -8.447592
v -1.213739 -50.695301 -8.457422
v -1.215085 -50.665546 -8.460639
v -1.080215 -50.692238 -8.218941
v -1.215085 -50.665546 -8.460639
v -1.213739 -50.695301 -8.457422
v -1.076709 -50.665546 -8.220965
v -1.335053 -50.669540 -7.785702
v -1.336407 -50.599335 -7.797252
v -2.435891 -51.044804 -7.202046
v -2.335218 -51.044804 -7.445093
v -2.435891 -51.044804 -7.688139
v -2.678937 -51.044804 -7.101372
v -2.435891 -51.044804 -7.202046
v -2.921984 -51.044804 -7.202045
v -3.022657 -51.044804 -7.445093
v -2.921984 -51.044804 -7.202045
v -2.921984 -51.044804 -7.688139
v -2.678937 -51.044804 -7.788814
v -2.921984 -51.044804 -7.688139
v -2.435891 -51.044804 -7.688139
v -5.441357 -42.158566 -6.885320
v -5.503534 -45.090145 -6.735216
v -5.503532 -42.158566 -6.735217
v -5.441359 -45.090145 -6.885319
v -5.503532 -42.158566 -7.035422
v -5.503534 -45.090145 -7.035422
v -5.653635 -42.158566 -7.097599
v -5.503534 -45.090145 -7.035422
v -5.503532 -42.158566 -7.035422
v -5.653636 -45.090145 -7.097598
v -5.803738 -42.158566 -7.035422
v -5.803740 -45.090145 -7.035422
v -5.865913 -42.158566 -6.885320
v -5.803740 -45.090145 -7.035422
v -5.803738 -42.158566 -7.035422
v -5.865914 -45.090145 -6.885319
v -5.803739 -42.158566 -6.735218
v -5.803740 -45.090145 -6.735217
v -5.653635 -42.158566 -6.673043
v -5.803740 -45.090145 -6.735217
v -5.803739 -42.158566 -6.735218
v -5.653636 -45.090145 -6.673041
v -5.503532 -42.158566 -6.735217
v -5.503534 -45.090145 -6.735216
v -6.073260 -47.566006 -6.320870
v -5.436700 -47.803993 -6.675187
v -5.880674 -47.546768 -6.683295
v -5.263668 -47.860313 -6.311517
v -5.285272 -47.781826 -5.545004
v -6.030604 -47.650360 -5.551174
v -5.509532 -47.676132 -5.110254
v -5.782825 -47.673058 -5.113858
v -5.424149 -47.773544 -6.676634
v -6.049451 -47.498966 -6.318721
v -5.864749 -47.519188 -6.676634
v -5.239447 -47.793770 -6.318720
v -5.268976 -47.712566 -5.546573
v -6.019923 -47.580154 -5.546574
v -5.506073 -47.646378 -5.109810
v -5.782825 -47.646378 -5.109811
v -5.263668 -47.860313 -6.311517
v -5.424149 -47.773544 -6.676634
v -5.436700 -47.803993 -6.675187
v -5.239447 -47.793770 -6.318720
v -5.285272 -47.781826 -5.545004
v -5.268976 -47.712566 -5.546573
v -5.509532 -47.676132 -5.110254
v -5.506073 -47.646378 -5.109810
v -6.049451 -47.498966 -6.318721
v -5.880674 -47.546768 -6.683295
v -5.864749 -47.519188 -6.676634
v -6.073260 -47.566006 -6.320870
v -6.019923 -47.580154 -5.546574
v -6.030604 -47.650360 -5.551174
v -5.782825 -47.646378 -5.109811
v -5.782825 -47.673058 -5.113858
v -5.506073 -47.646378 -5.109810
v -5.782825 -47.673058 -5.113858
v -5.782825 -47.646378 -5.109811
v -5.509532 -47.676132 -5.110254
v -5.932652 -47.566006 -7.530948
v -5.944085 -47.803993 -6.802510
v -5.715076 -47.546768 -7.182950
v -6.345548 -47.860313 -6.834493
v -6.998567 -47.781826 -7.236461
v -6.620556 -47.650360 -7.878854
v -7.262940 -47.676132 -7.648052
v -7.123172 -47.673058 -7.882928
v -5.949108 -47.773544 -6.790916
v -5.946418 -47.498966 -7.511403
v -5.728807 -47.519188 -7.172490
v -6.351421 -47.793770 -6.809916
v -7.005356 -47.712566 -7.221563
v -6.629881 -47.580154 -7.871903
v -7.265054 -47.646378 -7.645279
v -7.126678 -47.646378 -7.884953
v -6.345548 -47.860313 -6.834493
v -5.949108 -47.773544 -6.790916
v -5.944085 -47.803993 -6.802510
v -6.351421 -47.793770 -6.809916
v -6.998567 -47.781826 -7.236461
v -7.005356 -47.712566 -7.221563
v -5.946418 -47.498966 -7.511403
v -5.715076 -47.546768 -7.182950
v -5.728807 -47.519188 -7.172490
v -5.932652 -47.566006 -7.530948
v -6.629881 -47.580154 -7.871903
v -5.932652 -47.566006 -7.530948
v -5.946418 -47.498966 -7.511403
v -6.620556 -47.650360 -7.878854
v -7.126678 -47.646378 -7.884953
v -7.123172 -47.673058 -7.882928
v -7.265054 -47.646378 -7.645279
v -7.123172 -47.673058 -7.882928
v -7.126678 -47.646378 -7.884953
v -7.262940 -47.676132 -7.648052
v -7.005356 -47.712566 -7.221563
v -6.998567 -47.781826 -7.236461
v -4.954999 -47.566006 -6.804137
v -5.580127 -47.803993 -7.178257
v -5.365161 -47.546768 -6.789708
v -5.351698 -47.860313 -7.509943
v -4.677075 -47.781826 -7.874488
v -4.309752 -47.650360 -7.225926
v -4.188438 -47.676132 -7.897648
v -4.054914 -47.673058 -7.659167
v -5.587656 -47.773544 -7.188403
v -4.965043 -47.498966 -6.825830
v -5.367357 -47.519188 -6.806830
v -5.370046 -47.793770 -7.527318
v -4.686581 -47.712566 -7.887816
v -4.311107 -47.580154 -7.237476
v -4.189785 -47.646378 -7.900864
v -4.051409 -47.646378 -7.661191
v -5.587656 -47.773544 -7.188403
v -5.351698 -47.860313 -7.509943
v -5.370046 -47.793770 -7.527318
v -5.580127 -47.803993 -7.178257
v -4.965043 -47.498966 -6.825830
v -5.365161 -47.546768 -6.789708
v -5.367357 -47.519188 -6.806830
v -4.954999 -47.566006 -6.804137
v -4.311107 -47.580154 -7.237476
v -4.309752 -47.650360 -7.225926
v -4.677075 -47.781826 -7.874488
v -5.370046 -47.793770 -7.527318
v -5.351698 -47.860313 -7.509943
v -4.686581 -47.712566 -7.887816
v -4.188438 -47.676132 -7.897648
v -4.189785 -47.646378 -7.900864
v -4.054914 -47.673058 -7.659167
v -4.189785 -47.646378 -7.900864
v -4.188438 -47.676132 -7.897648
v -4.051409 -47.646378 -7.661191
v -4.309752 -47.650360 -7.225926
v -4.311107 -47.580154 -7.237476
v -5.410590 -48.025623 -6.642271
v -5.309917 -48.025623 -6.885317
v -5.410590 -48.025623 -7.128364
v -5.653637 -48.025623 -6.541597
v -5.410590 -48.025623 -6.642271
v -5.896684 -48.025623 -6.642270
v -5.997356 -48.025623 -6.885317
v -5.896684 -48.025623 -6.642270
v -5.896683 -48.025623 -7.128364
v -5.653637 -48.025623 -7.229039
v -5.896683 -48.025623 -7.128364
v -5.410590 -48.025623 -7.128364
v 2.528849 -48.109325 -7.294992
v 2.466675 -45.177746 -7.445096
v 2.528850 -45.177746 -7.294992
v 2.466674 -48.109325 -7.445095
v 2.528850 -45.177746 -7.595198
v 2.528849 -48.109325 -7.595198
v 2.528849 -48.109325 -7.595198
v 2.678952 -45.177746 -7.657374
v 2.528850 -45.177746 -7.595198
v 2.678952 -48.109325 -7.657373
v 2.829055 -45.177746 -7.595198
v 2.829055 -48.109325 -7.595198
v 2.829055 -48.109325 -7.595198
v 2.891230 -45.177746 -7.445096
v 2.829055 -45.177746 -7.595198
v 2.891229 -48.109325 -7.445095
v 2.829055 -45.177746 -7.294992
v 2.829055 -48.109325 -7.294992
v 2.829055 -48.109325 -7.294992
v 2.678952 -45.177746 -7.232817
v 2.829055 -45.177746 -7.294992
v 2.678952 -48.109325 -7.232817
v 2.528850 -45.177746 -7.294992
v 2.528849 -48.109325 -7.294992
v 2.462014 -50.823174 -7.234962
v 3.098573 -50.585175 -6.880646
v 2.905987 -50.565948 -7.243070
v 2.288980 -50.879482 -6.871293
v 2.310584 -50.800995 -6.104780
v 3.055918 -50.669540 -6.110949
v 2.534846 -50.695301 -5.670029
v 2.808138 -50.692238 -5.673634
v 3.074764 -50.518135 -6.878496
v 2.449462 -50.792713 -7.236409
v 2.890062 -50.538361 -7.236409
v 2.264760 -50.812950 -6.878496
v 2.294289 -50.731747 -6.106349
v 3.045237 -50.599335 -6.106349
v 2.531387 -50.665546 -5.669586
v 2.808138 -50.665546 -5.669586
v 2.449462 -50.792713 -7.236409
v 2.288980 -50.879482 -6.871293
v 2.462014 -50.823174 -7.234962
v 2.264760 -50.812950 -6.878496
v 2.310584 -50.800995 -6.104780
v 2.294289 -50.731747 -6.106349
v 2.534846 -50.695301 -5.670029
v 2.531387 -50.665546 -5.669586
v 2.905987 -50.565948 -7.243070
v 3.074764 -50.518135 -6.878496
v 2.890062 -50.538361 -7.236409
v 3.098573 -50.585175 -6.880646
v 3.045237 -50.599335 -6.106349
v 3.055918 -50.669540 -6.110949
v 2.808138 -50.665546 -5.669586
v 2.808138 -50.692238 -5.673634
v 2.531387 -50.665546 -5.669586
v 2.808138 -50.692238 -5.673634
v 2.534846 -50.695301 -5.670029
v 2.808138 -50.665546 -5.669586
v 2.969398 -50.823174 -7.362286
v 2.957966 -50.585175 -8.090722
v 2.740390 -50.565948 -7.742726
v 3.370861 -50.879482 -7.394269
v 4.023880 -50.800995 -7.796237
v 3.645869 -50.669540 -8.438629
v 4.288253 -50.695301 -8.207828
v 4.148485 -50.692238 -8.442704
v 2.971732 -50.518135 -8.071177
v 2.974421 -50.792713 -7.350691
v 2.754121 -50.538361 -7.732265
v 3.376734 -50.812950 -7.369691
v 4.030669 -50.731747 -7.781339
v 3.655195 -50.599335 -8.431679
v 4.290367 -50.665546 -8.205053
v 4.151990 -50.665546 -8.444728
v 2.974421 -50.792713 -7.350691
v 3.370861 -50.879482 -7.394269
v 2.969398 -50.823174 -7.362286
v 3.376734 -50.812950 -7.369691
v 4.023880 -50.800995 -7.796237
v 4.030669 -50.731747 -7.781339
v 2.971732 -50.518135 -8.071177
v 2.740390 -50.565948 -7.742726
v 2.957966 -50.585175 -8.090722
v 2.754121 -50.538361 -7.732265
v 2.957966 -50.585175 -8.090722
v 3.655195 -50.599335 -8.431679
v 2.971732 -50.518135 -8.071177
v 3.645869 -50.669540 -8.438629
v 4.151990 -50.665546 -8.444728
v 4.148485 -50.692238 -8.442704
v 4.148485 -50.692238 -8.442704
v 4.290367 -50.665546 -8.205053
v 4.151990 -50.665546 -8.444728
v 4.288253 -50.695301 -8.207828
v 4.030669 -50.731747 -7.781339
v 4.023880 -50.800995 -7.796237
v 2.605440 -50.823174 -7.738033
v 1.980313 -50.585175 -7.363912
v 2.390475 -50.565948 -7.349483
v 2.377011 -50.879482 -8.069717
v 1.702388 -50.800995 -8.434263
v 1.335065 -50.669540 -7.785701
v 1.213752 -50.695301 -8.457422
v 1.080228 -50.692238 -8.218941
v 1.990357 -50.518135 -7.385606
v 2.612970 -50.792713 -7.748178
v 2.392670 -50.538361 -7.366606
v 2.395359 -50.812950 -8.087093
v 1.711895 -50.731747 -8.447591
v 1.336420 -50.599335 -7.797252
v 1.215098 -50.665546 -8.460639
v 1.076722 -50.665546 -8.220965
v 2.612970 -50.792713 -7.748178
v 2.377011 -50.879482 -8.069717
v 2.605440 -50.823174 -7.738033
v 2.395359 -50.812950 -8.087093
v 2.390475 -50.565948 -7.349483
v 1.990357 -50.518135 -7.385606
v 2.392670 -50.538361 -7.366606
v 1.980313 -50.585175 -7.363912
v 1.336420 -50.599335 -7.797252
v 1.335065 -50.669540 -7.785701
v 2.395359 -50.812950 -8.087093
v 1.702388 -50.800995 -8.434263
v 2.377011 -50.879482 -8.069717
v 1.711895 -50.731747 -8.447591
v 1.213752 -50.695301 -8.457422
v 1.215098 -50.665546 -8.460639
v 1.215098 -50.665546 -8.460639
v 1.080228 -50.692238 -8.218941
v 1.213752 -50.695301 -8.457422
v 1.076722 -50.665546 -8.220965
v 1.335065 -50.669540 -7.785701
v 1.336420 -50.599335 -7.797252
v 2.435903 -51.044804 -7.202046
v 2.335231 -51.044804 -7.445093
v 2.435904 -51.044804 -7.688139
v 2.678950 -51.044804 -7.101372
v 2.435903 -51.044804 -7.202046
v 2.921997 -51.044804 -7.202045
v 3.022670 -51.044804 -7.445093
v 2.921997 -51.044804 -7.202045
v 2.921997 -51.044804 -7.688139
v 2.678951 -51.044804 -7.788814
v 2.921997 -51.044804 -7.688139
v 2.435904 -51.044804 -7.688139
v 5.503549 -45.090145 -6.735217
v 5.441375 -42.158566 -6.885320
v 5.503550 -42.158566 -6.735218
v 5.441374 -45.090145 -6.885319
v 5.503550 -42.158566 -7.035422
v 5.503549 -45.090145 -7.035422
v 5.503549 -45.090145 -7.035422
v 5.653652 -42.158566 -7.097599
v 5.503550 -42.158566 -7.035422
v 5.653652 -45.090145 -7.097598
v 5.803756 -42.158566 -7.035422
v 5.803756 -45.090145 -7.035422
v 5.803756 -45.090145 -7.035422
v 5.865930 -42.158566 -6.885320
v 5.803756 -42.158566 -7.035422
v 5.865930 -45.090145 -6.885319
v 5.803756 -42.158566 -6.735218
v 5.803756 -45.090145 -6.735217
v 5.803756 -45.090145 -6.735217
v 5.653652 -42.158566 -6.673043
v 5.803756 -42.158566 -6.735218
v 5.653652 -45.090145 -6.673041
v 5.503550 -42.158566 -6.735218
v 5.503549 -45.090145 -6.735217
v 5.436714 -47.803993 -6.675188
v 6.073274 -47.566006 -6.320870
v 5.880688 -47.546768 -6.683295
v 5.263680 -47.860313 -6.311518
v 5.285285 -47.781826 -5.545005
v 6.030619 -47.650360 -5.551174
v 5.509546 -47.676132 -5.110254
v 5.782839 -47.673058 -5.113858
v 6.049465 -47.498966 -6.318721
v 5.424162 -47.773544 -6.676634
v 5.864762 -47.519188 -6.676634
v 5.239460 -47.793770 -6.318721
v 5.268989 -47.712566 -5.546574
v 6.019938 -47.580154 -5.546574
v 5.506087 -47.646378 -5.109811
v 5.782839 -47.646378 -5.109811
v 5.424162 -47.773544 -6.676634
v 5.263680 -47.860313 -6.311518
v 5.436714 -47.803993 -6.675188
v 5.239460 -47.793770 -6.318721
v 5.285285 -47.781826 -5.545005
v 5.268989 -47.712566 -5.546574
v 5.509546 -47.676132 -5.110254
v 5.506087 -47.646378 -5.109811
v 5.880688 -47.546768 -6.683295
v 6.049465 -47.498966 -6.318721
v 5.864762 -47.519188 -6.676634
v 6.073274 -47.566006 -6.320870
v 6.019938 -47.580154 -5.546574
v 6.030619 -47.650360 -5.551174
v 5.782839 -47.646378 -5.109811
v 5.782839 -47.673058 -5.113858
v 5.506087 -47.646378 -5.109811
v 5.782839 -47.673058 -5.113858
v 5.509546 -47.676132 -5.110254
v 5.782839 -47.646378 -5.109811
v 5.944098 -47.803993 -6.802510
v 5.932666 -47.566006 -7.530948
v 5.715090 -47.546768 -7.182950
v 6.345562 -47.860313 -6.834493
v 6.998581 -47.781826 -7.236462
v 6.620570 -47.650360 -7.878854
v 7.262954 -47.676132 -7.648052
v 7.123187 -47.673058 -7.882928
v 5.946433 -47.498966 -7.511403
v 5.949121 -47.773544 -6.790916
v 5.728821 -47.519188 -7.172490
v 6.351434 -47.793770 -6.809916
v 7.005370 -47.712566 -7.221564
v 6.629895 -47.580154 -7.871903
v 7.265068 -47.646378 -7.645279
v 7.126692 -47.646378 -7.884953
v 5.949121 -47.773544 -6.790916
v 6.345562 -47.860313 -6.834493
v 5.944098 -47.803993 -6.802510
v 6.351434 -47.793770 -6.809916
v 6.998581 -47.781826 -7.236462
v 7.005370 -47.712566 -7.221564
v 5.946433 -47.498966 -7.511403
v 5.715090 -47.546768 -7.182950
v 5.932666 -47.566006 -7.530948
v 5.728821 -47.519188 -7.172490
v 5.932666 -47.566006 -7.530948
v 6.629895 -47.580154 -7.871903
v 5.946433 -47.498966 -7.511403
v 6.620570 -47.650360 -7.878854
v 7.126692 -47.646378 -7.884953
v 7.123187 -47.673058 -7.882928
v 7.123187 -47.673058 -7.882928
v 7.265068 -47.646378 -7.645279
v 7.126692 -47.646378 -7.884953
v 7.262954 -47.676132 -7.648052
v 7.005370 -47.712566 -7.221564
v 6.998581 -47.781826 -7.236462
v 5.580141 -47.803993 -7.178257
v 4.955013 -47.566006 -6.804137
v 5.365174 -47.546768 -6.789708
v 5.351711 -47.860313 -7.509943
v 4.677089 -47.781826 -7.874488
v 4.309765 -47.650360 -7.225926
v 4.188452 -47.676132 -7.897648
v 4.054927 -47.673058 -7.659167
v 4.965056 -47.498966 -6.825830
v 5.587670 -47.773544 -7.188403
v 5.367371 -47.519188 -6.806830
v 5.370059 -47.793770 -7.527318
v 4.686595 -47.712566 -7.887816
v 4.311121 -47.580154 -7.237476
v 4.189798 -47.646378 -7.900864
v 4.051422 -47.646378 -7.661191
v 5.587670 -47.773544 -7.188403
v 5.351711 -47.860313 -7.509943
v 5.580141 -47.803993 -7.178257
v 5.370059 -47.793770 -7.527318
v 5.365174 -47.546768 -6.789708
v 4.965056 -47.498966 -6.825830
v 5.367371 -47.519188 -6.806830
v 4.955013 -47.566006 -6.804137
v 4.311121 -47.580154 -7.237476
v 4.309765 -47.650360 -7.225926
v 5.370059 -47.793770 -7.527318
v 4.677089 -47.781826 -7.874488
v 5.351711 -47.860313 -7.509943
v 4.686595 -47.712566 -7.887816
v 4.188452 -47.676132 -7.897648
v 4.189798 -47.646378 -7.900864
v 4.189798 -47.646378 -7.900864
v 4.054927 -47.673058 -7.659167
v 4.188452 -47.676132 -7.897648
v 4.051422 -47.646378 -7.661191
v 4.309765 -47.650360 -7.225926
v 4.311121 -47.580154 -7.237476
v 5.410604 -48.025623 -6.642271
v 5.309930 -48.025623 -6.885317
v 5.410604 -48.025623 -7.128364
v 5.653650 -48.025623 -6.541597
v 5.410604 -48.025623 -6.642271
v 5.896697 -48.025623 -6.642270
v 5.997370 -48.025623 -6.885317
v 5.896697 -48.025623 -6.642270
v 5.896697 -48.025623 -7.128364
v 5.653651 -48.025623 -7.229039
v 5.896697 -48.025623 -7.128364
v 5.410604 -48.025623 -7.128364
v -2.335218 -51.044804 -7.445093
v -2.678938 -51.315067 -7.445093
v -2.435891 -51.044804 -7.202046
v -2.435891 -51.044804 -7.688139
v -2.678937 -51.044804 -7.101372
v -2.678937 -51.044804 -7.788814
v -2.921984 -51.044804 -7.202045
v -2.921984 -51.044804 -7.688139
v -3.022657 -51.044804 -7.445093
v -5.309917 -48.025623 -6.885317
v -5.653637 -48.295887 -6.885317
v -5.410590 -48.025623 -6.642271
v -5.410590 -48.025623 -7.128364
v -5.653637 -48.025623 -6.541597
v -5.653637 -48.025623 -7.229039
v -5.896684 -48.025623 -6.642270
v -5.896683 -48.025623 -7.128364
v -5.997356 -48.025623 -6.885317
v 2.335231 -51.044804 -7.445093
v 2.435903 -51.044804 -7.202046
v 2.678950 -51.315067 -7.445093
v 2.435904 -51.044804 -7.688139
v 2.678950 -51.044804 -7.101372
v 2.678951 -51.044804 -7.788814
v 2.921997 -51.044804 -7.202045
v 2.921997 -51.044804 -7.688139
v 3.022670 -51.044804 -7.445093
v 5.309930 -48.025623 -6.885317
v 5.410604 -48.025623 -6.642271
v 5.653651 -48.295887 -6.885317
v 5.410604 -48.025623 -7.128364
v 5.653650 -48.025623 -6.541597
v 5.653651 -48.025623 -7.229039
v 5.896697 -48.025623 -6.642270
v 5.896697 -48.025623 -7.128364
v 5.997370 -48.025623 -6.885317
vn 0.7398 0.5375 -0.4046
vn 0.9145 -0.0000 -0.4046
vn 0.6024 0.4377 0.6675
vn 0.7446 -0.0000 0.6675
vn 0.7398 -0.5375 -0.4046
vn 0.6024 -0.4377 0.6675
vn 0.6025 0.4377 0.6674
vn 0.2301 0.7082 0.6675
vn 0.2826 0.8697 -0.4046
vn -0.2301 0.7082 0.6675
vn -0.2826 0.8697 -0.4046
vn -0.6024 0.4377 0.6675
vn -0.7398 0.5375 -0.4046
vn -0.7446 -0.0000 0.6675
vn -0.9145 -0.0000 -0.4046
vn -0.6024 -0.4377 0.6675
vn -0.7398 -0.5376 -0.4046
vn -0.2301 -0.7082 0.6675
vn -0.7398 -0.5375 -0.4046
vn -0.2826 -0.8697 -0.4046
vn 0.2301 -0.7082 0.6675
vn 0.2826 -0.8697 -0.4046
vn 0.7399 -0.5375 -0.4046
vn -0.7398 -0.5375 -0.4047
vn -0.7399 0.5375 -0.4046
vn -0.6025 0.4377 0.6675
vn 0.2302 0.7082 0.6675
vn -0.6024 -0.4376 0.6675
vn 0.7071 -0.0000 0.7071
vn 1.0000 -0.0000 -0.0000
vn 0.7071 -0.0000 -0.7071
vn -0.0000 -0.0000 -1.0000
vn -0.7071 -0.0000 -0.7071
vn -1.0000 -0.0000 -0.0000
vn -0.7071 -0.0000 0.7071
vn -0.0000 -0.0000 1.0000
vn -0.4748 -0.8288 -0.2962
vn -0.3798 -0.9230 -0.0624
vn -0.3346 -0.9393 -0.0760
vn -0.3417 -0.9381 0.0573
vn -0.2287 -0.9717 0.0598
vn -0.1523 -0.9879 -0.0276
vn -0.1192 -0.9894 0.0830
vn -0.0106 -0.9989 -0.0458
vn 0.4894 0.8477 0.2046
vn 0.3345 0.9419 0.0302
vn 0.3805 0.9237 -0.0439
vn 0.3403 0.9349 -0.1012
vn 0.2289 0.9732 -0.0220
vn 0.1501 0.9866 0.0646
vn 0.1154 0.9932 0.0148
vn -0.0000 0.9887 0.1499
vn 0.8199 -0.3591 -0.4458
vn 0.8205 -0.3580 -0.4457
vn 0.9154 -0.3542 -0.1914
vn 0.9151 -0.3509 -0.1988
vn 0.9379 -0.2181 0.2698
vn 0.9346 -0.2118 0.2858
vn 0.5060 -0.0757 0.8592
vn 0.5014 -0.0763 0.8619
vn -0.7421 0.5281 -0.4128
vn -0.7549 0.5070 -0.4160
vn -0.9195 0.3395 -0.1979
vn -0.9294 0.3290 -0.1672
vn -0.9500 0.1317 0.2830
vn -0.9515 0.1231 0.2820
vn -0.5037 -0.1207 0.8554
vn -0.5151 -0.1233 0.8482
vn -0.5038 -0.1206 0.8554
vn 0.5061 -0.0757 0.8592
vn 0.4939 -0.8288 -0.2630
vn 0.2440 -0.9230 -0.2977
vn 0.2331 -0.9393 -0.2518
vn 0.1212 -0.9381 -0.3246
vn 0.0626 -0.9717 -0.2279
vn 0.1001 -0.9879 -0.1181
vn -0.0123 -0.9894 -0.1447
vn 0.0450 -0.9989 0.0137
vn -0.4219 0.8477 0.3215
vn -0.1934 0.9419 0.2746
vn -0.1523 0.9237 0.3515
vn -0.0825 0.9349 0.3453
vn -0.0954 0.9732 0.2093
vn -0.1310 0.9866 0.0976
vn -0.0705 0.9932 0.0925
vn -0.1298 0.9887 -0.0749
vn -0.0240 -0.3590 0.9330
vn -0.0243 -0.3579 0.9334
vn -0.2919 -0.3543 0.8884
vn -0.2854 -0.3510 0.8918
vn -0.7026 -0.2180 0.6774
vn -0.7148 -0.2117 0.6665
vn 0.7285 0.5281 -0.4363
vn 0.7376 0.5071 -0.4458
vn 0.6312 0.3395 -0.6973
vn 0.6096 0.3291 -0.7212
vn 0.6311 0.3395 -0.6974
vn 0.6095 0.3290 -0.7213
vn 0.2300 0.1317 -0.9642
vn 0.2316 0.1232 -0.9650
vn -0.4889 -0.1207 -0.8639
vn -0.4770 -0.1234 -0.8702
vn -0.4891 -0.1206 -0.8638
vn -0.4773 -0.1233 -0.8701
vn -0.9971 -0.0763 0.0033
vn -0.9971 -0.0757 0.0087
vn -0.7148 -0.2118 0.6665
vn -0.7026 -0.2181 0.6773
vn -0.0192 -0.8288 0.5593
vn 0.1359 -0.9230 0.3601
vn 0.1015 -0.9393 0.3278
vn 0.2205 -0.9381 0.2672
vn 0.1661 -0.9717 0.1682
vn 0.0523 -0.9879 0.1457
vn 0.1314 -0.9894 0.0617
vn -0.0345 -0.9989 0.0321
vn -0.0674 0.8477 -0.5261
vn -0.1411 0.9419 -0.3048
vn -0.2282 0.9237 -0.3076
vn -0.2577 0.9349 -0.2441
vn -0.1335 0.9732 -0.1872
vn -0.0190 0.9866 -0.1623
vn -0.0449 0.9932 -0.1073
vn 0.1297 0.9887 -0.0749
vn -0.6297 -0.3510 -0.6931
vn -0.6234 -0.3543 -0.6970
vn -0.7962 -0.3580 -0.4878
vn -0.7960 -0.3591 -0.4873
vn 0.0135 0.5280 0.8491
vn 0.0172 0.5070 0.8618
vn 0.2884 0.3395 0.8953
vn 0.3199 0.3291 0.8885
vn 0.7201 0.1317 0.6813
vn 0.7199 0.1231 0.6830
vn -0.6235 -0.3543 -0.6970
vn -0.6297 -0.3509 -0.6930
vn -0.2353 -0.2181 -0.9471
vn -0.2199 -0.2118 -0.9523
vn 0.4911 -0.0756 -0.8678
vn 0.4957 -0.0763 -0.8651
vn 0.4911 -0.0757 -0.8678
vn 0.4958 -0.0763 -0.8651
vn 0.9921 -0.1232 0.0219
vn 0.9927 -0.1206 0.0085
vn 0.6481 -0.3999 0.6481
vn 0.9166 -0.3998 -0.0000
vn 0.6481 -0.3998 -0.6481
vn 0.6482 -0.3998 0.6481
vn -0.0000 -0.3998 0.9166
vn -0.6481 -0.3999 0.6481
vn -0.6481 -0.3998 0.6481
vn -0.9166 -0.3998 -0.0000
vn -0.6481 -0.3999 -0.6481
vn -0.6482 -0.3998 -0.6481
vn -0.0000 -0.3998 -0.9166
vn 0.6481 -0.3999 -0.6481
vn -0.4747 -0.8288 -0.2963
vn -0.1524 -0.9879 -0.0276
vn 0.4894 0.8477 0.2047
vn 0.3402 0.9349 -0.1012
vn 0.8200 -0.3591 -0.4457
vn 0.9346 -0.2117 0.2858
vn 0.5059 -0.0756 0.8593
vn 0.5012 -0.0763 0.8619
vn -0.7420 0.5282 -0.4128
vn -0.7548 0.5072 -0.4160
vn -0.9294 0.3291 -0.1672
vn -0.9515 0.1231 0.2819
vn -0.5151 -0.1234 0.8482
vn -0.5038 -0.1207 0.8554
vn 0.5061 -0.0756 0.8592
vn 0.1212 -0.9381 -0.3245
vn -0.1298 0.9887 -0.0750
vn -0.0239 -0.3592 0.9330
vn -0.0242 -0.3580 0.9334
vn -0.2919 -0.3542 0.8884
vn -0.2854 -0.3509 0.8919
vn -0.7026 -0.2181 0.6774
vn -0.7147 -0.2118 0.6666
vn 0.7284 0.5283 -0.4363
vn 0.7376 0.5072 -0.4458
vn 0.6313 0.3395 -0.6973
vn 0.6097 0.3290 -0.7212
vn 0.6312 0.3395 -0.6974
vn 0.6096 0.3290 -0.7212
vn -0.4889 -0.1208 -0.8639
vn -0.4890 -0.1207 -0.8639
vn -0.4771 -0.1234 -0.8701
vn -0.9971 -0.0763 0.0032
vn -0.9971 -0.0757 0.0086
vn 0.1358 -0.9230 0.3601
vn 0.1315 -0.9894 0.0617
vn -0.0344 -0.9989 0.0321
vn -0.0675 0.8477 -0.5261
vn -0.1411 0.9419 -0.3047
vn -0.0449 0.9932 -0.1074
vn 0.1298 0.9887 -0.0750
vn -0.6235 -0.3542 -0.6970
vn -0.7962 -0.3581 -0.4877
vn -0.7960 -0.3592 -0.4872
vn 0.0135 0.5282 0.8490
vn 0.0172 0.5071 0.8617
vn 0.7199 0.1231 0.6831
vn -0.6234 -0.3542 -0.6970
vn -0.6296 -0.3509 -0.6931
vn -0.2199 -0.2117 -0.9523
vn 0.4910 -0.0757 -0.8678
vn 0.9921 -0.1234 0.0219
vn 0.9927 -0.1207 0.0085
vn 0.7200 0.1231 0.6830
vn 0.7201 0.1317 0.6812
vn -0.6481 -0.3998 0.6482
vn 0.4748 -0.8288 -0.2962
vn 0.3346 -0.9393 -0.0760
vn 0.3798 -0.9230 -0.0624
vn 0.3417 -0.9381 0.0573
vn 0.2287 -0.9717 0.0598
vn 0.1523 -0.9879 -0.0276
vn 0.1192 -0.9894 0.0830
vn 0.0106 -0.9989 -0.0458
vn -0.4894 0.8477 0.2046
vn -0.3805 0.9237 -0.0439
vn -0.3345 0.9419 0.0302
vn -0.3403 0.9349 -0.1012
vn -0.2289 0.9732 -0.0220
vn -0.1501 0.9866 0.0646
vn -0.1154 0.9932 0.0148
vn -0.8199 -0.3591 -0.4458
vn -0.9154 -0.3543 -0.1914
vn -0.8205 -0.3580 -0.4458
vn -0.9151 -0.3509 -0.1988
vn -0.9379 -0.2181 0.2698
vn -0.9346 -0.2118 0.2858
vn -0.5060 -0.0757 0.8592
vn -0.5014 -0.0763 0.8619
vn 0.7421 0.5281 -0.4128
vn 0.9195 0.3395 -0.1979
vn 0.7549 0.5070 -0.4160
vn 0.9294 0.3290 -0.1672
vn 0.9500 0.1317 0.2830
vn 0.9515 0.1231 0.2820
vn 0.5040 -0.1207 0.8552
vn 0.5154 -0.1233 0.8480
vn -0.5061 -0.0757 0.8592
vn 0.5151 -0.1233 0.8482
vn 0.5038 -0.1206 0.8554
vn -0.4939 -0.8288 -0.2630
vn -0.2331 -0.9393 -0.2518
vn -0.2440 -0.9230 -0.2977
vn -0.1212 -0.9381 -0.3246
vn -0.0626 -0.9717 -0.2279
vn -0.1001 -0.9879 -0.1181
vn 0.0123 -0.9894 -0.1447
vn -0.0450 -0.9989 0.0137
vn 0.4219 0.8477 0.3215
vn 0.1523 0.9237 0.3515
vn 0.1934 0.9419 0.2746
vn 0.0825 0.9349 0.3453
vn 0.0954 0.9732 0.2093
vn 0.1310 0.9866 0.0976
vn 0.0705 0.9932 0.0925
vn 0.1298 0.9887 -0.0749
vn 0.0240 -0.3591 0.9330
vn 0.2919 -0.3543 0.8884
vn 0.0243 -0.3580 0.9334
vn 0.2854 -0.3510 0.8918
vn 0.7026 -0.2181 0.6773
vn 0.7148 -0.2118 0.6665
vn -0.6096 0.3290 -0.7212
vn -0.7376 0.5071 -0.4458
vn -0.6312 0.3395 -0.6973
vn -0.7285 0.5281 -0.4363
vn -0.6311 0.3395 -0.6974
vn -0.2300 0.1317 -0.9642
vn -0.6095 0.3290 -0.7213
vn -0.2316 0.1232 -0.9650
vn 0.4889 -0.1208 -0.8639
vn 0.4771 -0.1235 -0.8702
vn 0.4891 -0.1206 -0.8638
vn 0.9971 -0.0764 0.0033
vn 0.4773 -0.1232 -0.8701
vn 0.9971 -0.0757 0.0087
vn 0.0192 -0.8288 0.5593
vn -0.1015 -0.9393 0.3278
vn -0.1359 -0.9230 0.3601
vn -0.2205 -0.9381 0.2672
vn -0.1661 -0.9717 0.1682
vn -0.0523 -0.9879 0.1457
vn -0.1315 -0.9894 0.0617
vn 0.0344 -0.9989 0.0321
vn 0.0674 0.8477 -0.5261
vn 0.2282 0.9237 -0.3076
vn 0.1411 0.9419 -0.3048
vn 0.2577 0.9349 -0.2441
vn 0.1336 0.9732 -0.1872
vn 0.0190 0.9866 -0.1623
vn 0.0449 0.9932 -0.1073
vn 0.7960 -0.3591 -0.4873
vn 0.6234 -0.3543 -0.6970
vn 0.7962 -0.3580 -0.4878
vn 0.6297 -0.3510 -0.6931
vn -0.0135 0.5280 0.8491
vn -0.2883 0.3395 0.8953
vn -0.0172 0.5070 0.8618
vn -0.3199 0.3291 0.8885
vn -0.7200 0.1317 0.6813
vn -0.7199 0.1231 0.6831
vn 0.6235 -0.3543 -0.6970
vn 0.2353 -0.2181 -0.9471
vn 0.6297 -0.3510 -0.6930
vn 0.2199 -0.2118 -0.9523
vn -0.4910 -0.0756 -0.8678
vn -0.4957 -0.0762 -0.8651
vn -0.4911 -0.0756 -0.8678
vn -0.9921 -0.1233 0.0220
vn -0.4958 -0.0763 -0.8651
vn -0.9927 -0.1206 0.0086
vn -0.7199 0.1231 0.6830
vn -0.7201 0.1317 0.6813
vn 0.6481 -0.3998 0.6481
vn 0.4747 -0.8288 -0.2963
vn 0.1524 -0.9879 -0.0276
vn -0.4894 0.8477 0.2047
vn -0.3402 0.9349 -0.1012
vn -0.8200 -0.3591 -0.4457
vn -0.9154 -0.3542 -0.1914
vn -0.8205 -0.3580 -0.4457
vn -0.9379 -0.2180 0.2698
vn -0.9346 -0.2117 0.2858
vn 0.7420 0.5282 -0.4128
vn 0.7548 0.5072 -0.4160
vn 0.9294 0.3291 -0.1672
vn 0.9515 0.1231 0.2819
vn 0.5037 -0.1207 0.8554
vn 0.5151 -0.1234 0.8482
vn 0.5038 -0.1207 0.8554
vn -0.1212 -0.9381 -0.3245
vn 0.0239 -0.3592 0.9330
vn 0.2919 -0.3542 0.8884
vn 0.0242 -0.3580 0.9334
vn 0.2854 -0.3509 0.8919
vn 0.7025 -0.2181 0.6774
vn 0.7147 -0.2117 0.6666
vn -0.6097 0.3290 -0.7212
vn -0.7376 0.5072 -0.4458
vn -0.6313 0.3395 -0.6973
vn -0.7281 0.5286 -0.4365
vn -0.6312 0.3395 -0.6974
vn -0.6095 0.3290 -0.7212
vn 0.4770 -0.1234 -0.8702
vn 0.4890 -0.1207 -0.8639
vn 0.9971 -0.0763 0.0033
vn 0.4771 -0.1233 -0.8701
vn 0.9971 -0.0757 0.0086
vn 0.7148 -0.2118 0.6666
vn 0.7026 -0.2181 0.6774
vn -0.1358 -0.9230 0.3601
vn 0.0675 0.8477 -0.5261
vn 0.1411 0.9419 -0.3047
vn 0.1335 0.9732 -0.1872
vn 0.0449 0.9932 -0.1074
vn 0.7960 -0.3592 -0.4872
vn 0.6235 -0.3542 -0.6970
vn 0.7962 -0.3581 -0.4877
vn 0.6297 -0.3509 -0.6930
vn -0.0135 0.5282 0.8490
vn -0.2884 0.3395 0.8953
vn -0.0172 0.5071 0.8617
vn 0.6234 -0.3542 -0.6970
vn 0.6296 -0.3509 -0.6931
vn 0.2199 -0.2117 -0.9523
vn -0.4957 -0.0763 -0.8651
vn -0.4910 -0.0757 -0.8679
vn -0.9921 -0.1234 0.0219
vn -0.9926 -0.1207 0.0085
vn -0.0000 -1.0000 -0.0000
vn -0.6481 -0.3998 -0.6481
vt 19.087372 0.303857
vt 19.084179 0.303857
vt 19.087627 0.300645
vt 19.084179 0.300645
vt 19.080986 0.303857
vt 19.080730 0.300645
vt 0.474324 0.300645
vt 0.477239 0.300645
vt 0.474674 0.303857
vt 0.477373 0.303857
vt 0.480843 0.300645
vt 0.480709 0.303857
vt 0.483758 0.300645
vt 0.483408 0.303857
vt -18.087627 0.300645
vt -18.084179 0.300645
vt -18.087372 0.303857
vt -18.084179 0.303857
vt -18.080730 0.300645
vt -18.080986 0.303857
vt 0.516242 0.300645
vt 0.519157 0.300645
vt 0.516592 0.303857
vt 0.519291 0.303857
vt 0.522761 0.300645
vt 0.522627 0.303857
vt 0.525676 0.300645
vt 0.525326 0.303857
vt -18.087627 0.300645
vt -18.084179 0.300645
vt -18.087372 0.303857
vt -18.084179 0.303857
vt -18.080730 0.300645
vt -18.080986 0.303857
vt 0.525223 0.303857
vt 0.522524 0.303857
vt 0.525573 0.300645
vt 0.522658 0.300645
vt 0.519188 0.303857
vt 0.519054 0.300645
vt 0.516489 0.303857
vt 0.516139 0.300645
vt 19.087372 0.303857
vt 19.084179 0.303857
vt 19.087627 0.300645
vt 19.084179 0.300645
vt 19.080986 0.303857
vt 19.080730 0.300645
vt 0.483511 0.303857
vt 0.480812 0.303857
vt 0.483861 0.300645
vt 0.480946 0.300645
vt 0.477476 0.303857
vt 0.477342 0.300645
vt 0.474777 0.303857
vt 0.474427 0.300645
vt 19.145170 0.105431
vt 19.100746 0.105431
vt 19.145170 0.103165
vt 19.100746 0.103165
vt 19.145170 0.100899
vt 19.100746 0.100899
vt 0.461969 -18.145170
vt 0.461969 -18.100746
vt 0.459709 -18.145170
vt 0.459709 -18.100746
vt 0.457448 -18.145170
vt 0.457448 -18.100746
vt -18.145170 0.100899
vt -18.100746 0.100899
vt -18.145170 0.103165
vt -18.100746 0.103165
vt -18.145170 0.105431
vt -18.100746 0.105431
vt 0.542552 -18.145170
vt 0.542552 -18.100746
vt 0.540291 -18.145170
vt 0.540291 -18.100746
vt 0.538031 -18.145170
vt 0.538031 -18.100746
vt 0.456290 0.106215
vt 0.462976 0.106337
vt 0.453389 0.111685
vt 0.465581 0.111826
vt 0.465256 0.123397
vt 0.454032 0.123303
vt 0.461879 0.129959
vt 0.457763 0.129904
vt 0.543471 0.106315
vt 0.546252 0.111718
vt 0.536835 0.106315
vt 0.534054 0.111718
vt 0.534499 0.123373
vt 0.545807 0.123373
vt 0.538069 0.129966
vt 0.542237 0.129966
vt 19.059624 0.106337
vt 19.060085 0.106315
vt 19.058769 0.111826
vt 19.059778 0.111718
vt 19.059959 0.123397
vt 19.061008 0.123373
vt 19.061562 0.129959
vt 19.062012 0.129966
vt -18.063938 0.106315
vt -18.063520 0.106215
vt -18.064245 0.111718
vt -18.063229 0.111685
vt -18.063015 0.123373
vt -18.061951 0.123303
vt -18.062012 0.129966
vt -18.061607 0.129904
vt 0.542237 -18.062012
vt 0.542237 -18.061607
vt 0.538069 -18.062012
vt 0.538121 -18.061562
vt 0.458783 0.098673
vt 0.455335 0.104415
vt 0.455507 0.093420
vt 0.449289 0.103932
vt 0.439455 0.097865
vt 0.445148 0.088168
vt 0.435474 0.091652
vt 0.437578 0.088107
vt 0.541423 0.098830
vt 0.544701 0.093715
vt 0.544741 0.104590
vt 0.550800 0.104303
vt 0.560647 0.098090
vt 0.554993 0.088273
vt 0.564558 0.091694
vt 0.562474 0.088076
vt 0.544665 -18.059624
vt 0.544741 -18.060085
vt 0.550711 -18.058769
vt 0.550800 -18.059778
vt 0.560545 -18.059959
vt 0.560647 -18.061008
vt 19.063938 0.098830
vt 19.063520 0.098673
vt 19.064245 0.093715
vt 19.063229 0.093420
vt 0.455299 -18.064245
vt 0.455507 -18.063229
vt 0.445007 -18.063015
vt 0.445148 -18.061951
vt 0.437526 -18.062012
vt 0.437578 -18.061607
vt -18.062012 0.088076
vt -18.061607 0.088107
vt -18.062012 0.091694
vt -18.061562 0.091652
vt -18.061008 0.098090
vt -18.059959 0.097865
vt 0.464053 0.104608
vt 0.460816 0.098743
vt 0.470230 0.104391
vt 0.464256 0.093737
vt 0.474415 0.088234
vt 0.479947 0.098024
vt 0.481773 0.087885
vt 0.483784 0.091484
vt 0.535980 0.104350
vt 0.529922 0.104063
vt 0.539298 0.098590
vt 0.536021 0.093475
vt 0.525728 0.088033
vt 0.520074 0.097850
vt 0.518247 0.087836
vt 0.516163 0.091454
vt -18.059778 0.093475
vt -18.058769 0.093737
vt -18.060085 0.098590
vt -18.059624 0.098743
vt 0.535980 -18.063938
vt 0.535947 -18.063520
vt 0.529922 -18.064245
vt 0.529770 -18.063229
vt 0.520074 -18.063015
vt 0.520053 -18.061951
vt 0.464256 -18.058769
vt 0.463979 -18.059778
vt 0.474415 -18.059959
vt 0.474272 -18.061008
vt 0.481773 -18.061562
vt 0.481753 -18.062012
vt 19.061562 0.087885
vt 19.062012 0.087836
vt 19.061607 0.091484
vt 19.062012 0.091454
vt 19.061951 0.098024
vt 19.063015 0.097850
vt 19.064577 0.106834
vt 19.056265 0.106834
vt 19.064577 0.103165
vt 19.056265 0.103165
vt 19.064577 0.099497
vt 19.056265 0.099497
vt 0.536631 -18.056265
vt 0.536631 -18.064577
vt 0.540291 -18.056265
vt 0.540291 -18.064577
vt 0.543952 -18.056265
vt 0.543952 -18.064577
vt -18.056265 0.106834
vt -18.064577 0.106834
vt -18.056265 0.103165
vt -18.064577 0.103165
vt -18.056265 0.099497
vt -18.064577 0.099497
vt 0.456048 -18.056265
vt 0.456048 -18.064577
vt 0.459709 -18.056265
vt 0.459709 -18.064577
vt 0.463369 -18.056265
vt 0.463369 -18.064577
vt 19.190922 0.113880
vt 19.146498 0.113880
vt 19.190922 0.111615
vt 19.146498 0.111615
vt 19.190922 0.109349
vt 19.146498 0.109349
vt 0.417173 -18.190922
vt 0.417172 -18.146498
vt 0.414912 -18.190922
vt 0.414912 -18.146498
vt 0.412652 -18.190922
vt 0.412652 -18.146498
vt -18.190922 0.109349
vt -18.146498 0.109349
vt -18.190922 0.111615
vt -18.146498 0.111615
vt -18.190922 0.113880
vt -18.146498 0.113880
vt 0.587348 -18.190922
vt 0.587348 -18.146498
vt 0.585088 -18.190922
vt 0.585088 -18.146498
vt 0.582827 -18.190922
vt 0.582828 -18.146498
vt 0.411493 0.114664
vt 0.418179 0.114787
vt 0.408593 0.120135
vt 0.420785 0.120276
vt 0.420459 0.131846
vt 0.409235 0.131753
vt 0.417082 0.138408
vt 0.412966 0.138354
vt 0.588267 0.114765
vt 0.591049 0.120167
vt 0.581632 0.114765
vt 0.578851 0.120167
vt 0.579295 0.131822
vt 0.590604 0.131822
vt 0.582866 0.138415
vt 0.587034 0.138415
vt 19.105373 0.114787
vt 19.105835 0.114765
vt 19.104521 0.120276
vt 19.105528 0.120167
vt 19.105709 0.131846
vt 19.106760 0.131822
vt 19.107311 0.138408
vt 19.107761 0.138415
vt -18.109690 0.114765
vt -18.109272 0.114664
vt -18.109997 0.120167
vt -18.108980 0.120135
vt -18.108767 0.131822
vt -18.107702 0.131753
vt -18.107761 0.138415
vt -18.107357 0.138354
vt 0.587034 -18.107761
vt 0.587034 -18.107357
vt 0.582866 -18.107761
vt 0.582918 -18.107311
vt 0.413987 0.107122
vt 0.410538 0.112865
vt 0.410710 0.101869
vt 0.404492 0.112382
vt 0.394658 0.106314
vt 0.400351 0.096618
vt 0.390677 0.100102
vt 0.392782 0.096556
vt 0.586220 0.107280
vt 0.589497 0.102164
vt 0.589538 0.113040
vt 0.595596 0.112753
vt 0.605444 0.106539
vt 0.599790 0.096723
vt 0.609355 0.100143
vt 0.607271 0.096526
vt 0.589462 -18.105373
vt 0.589538 -18.105835
vt 0.595508 -18.104521
vt 0.595596 -18.105528
vt 0.605342 -18.105709
vt 0.605444 -18.106760
vt 19.109690 0.107280
vt 19.109272 0.107122
vt 19.109997 0.102164
vt 19.108980 0.101869
vt 0.410503 -18.109997
vt 0.410710 -18.108980
vt 0.400210 -18.108767
vt 0.400351 -18.107702
vt 0.392729 -18.107761
vt 0.392782 -18.107357
vt -18.107761 0.096526
vt -18.107357 0.096556
vt -18.107761 0.100143
vt -18.107311 0.100102
vt -18.106760 0.106539
vt -18.105709 0.106314
vt 0.419256 0.113058
vt 0.416019 0.107193
vt 0.425433 0.112840
vt 0.419459 0.102186
vt 0.429618 0.096684
vt 0.435150 0.106473
vt 0.436977 0.096334
vt 0.438987 0.099934
vt 0.580777 0.112799
vt 0.574718 0.112513
vt 0.584094 0.107040
vt 0.580817 0.101924
vt 0.570525 0.096483
vt 0.564871 0.106299
vt 0.563044 0.096286
vt 0.560960 0.099903
vt -18.105528 0.101924
vt -18.104521 0.102186
vt -18.105835 0.107040
vt -18.105373 0.107193
vt 0.580777 -18.109690
vt 0.580744 -18.109272
vt 0.574718 -18.109997
vt 0.574567 -18.108980
vt 0.564871 -18.108767
vt 0.564850 -18.107702
vt 0.419459 -18.104521
vt 0.419183 -18.105528
vt 0.429618 -18.105709
vt 0.429475 -18.106760
vt 0.436977 -18.107311
vt 0.436956 -18.107761
vt 19.107311 0.096334
vt 19.107761 0.096286
vt 19.107357 0.099934
vt 19.107761 0.099903
vt 19.107702 0.106473
vt 19.108767 0.106299
vt 19.110329 0.115283
vt 19.102015 0.115283
vt 19.110329 0.111615
vt 19.102015 0.111615
vt 19.110329 0.107946
vt 19.102015 0.107946
vt 0.581428 -18.102015
vt 0.581428 -18.110329
vt 0.585088 -18.102015
vt 0.585088 -18.110329
vt 0.588748 -18.102015
vt 0.588748 -18.110329
vt -18.102015 0.115283
vt -18.110329 0.115283
vt -18.102015 0.111615
vt -18.110329 0.111615
vt -18.102015 0.107946
vt -18.110329 0.107946
vt 0.411252 -18.102015
vt 0.411252 -18.110329
vt 0.414912 -18.102015
vt 0.414912 -18.110329
vt 0.418572 -18.102015
vt 0.418572 -18.110329
vt -18.145170 0.100899
vt 0.538134 -18.145170
vt 0.540395 -18.145170
vt 0.538134 -18.100746
vt 0.540395 -18.100746
vt 0.542655 -18.145170
vt 0.542655 -18.100746
vt 19.100746 0.103165
vt 19.145170 0.105431
vt 0.457345 -18.145170
vt 0.459605 -18.145170
vt 0.457345 -18.100746
vt 0.459605 -18.100746
vt 0.461866 -18.145170
vt 0.461866 -18.100746
vt 0.543814 0.106215
vt 0.546714 0.111685
vt 0.537128 0.106337
vt 0.534522 0.111826
vt 0.534847 0.123397
vt 0.546071 0.123303
vt 0.538224 0.129959
vt 0.542340 0.129904
vt 0.456426 0.106315
vt 0.463061 0.106315
vt 0.453645 0.111718
vt 0.465843 0.111718
vt 0.465398 0.123373
vt 0.454089 0.123373
vt 0.461828 0.129966
vt 0.457660 0.129966
vt -18.059624 0.106337
vt -18.058769 0.111826
vt -18.060085 0.106315
vt -18.059778 0.111718
vt -18.059959 0.123397
vt -18.061008 0.123373
vt -18.061562 0.129959
vt 19.063938 0.106315
vt 19.064245 0.111718
vt 19.063520 0.106215
vt 19.063229 0.111685
vt 19.063015 0.123373
vt 19.061951 0.123303
vt 19.061607 0.129904
vt 0.461776 -18.061562
vt 0.457660 -18.061607
vt 0.461828 -18.062012
vt 0.457660 -18.062012
vt 0.541320 0.098673
vt 0.544596 0.093420
vt 0.544768 0.104415
vt 0.550814 0.103932
vt 0.560648 0.097865
vt 0.554956 0.088168
vt 0.564629 0.091652
vt 0.562525 0.088107
vt 0.458473 0.098830
vt 0.455156 0.104590
vt 0.455196 0.093715
vt 0.449097 0.104303
vt 0.439250 0.098090
vt 0.444904 0.088273
vt 0.435339 0.091694
vt 0.437423 0.088076
vt 0.455232 -18.059624
vt 0.449186 -18.058769
vt 0.455156 -18.060085
vt 0.449097 -18.059778
vt 0.439352 -18.059959
vt 0.439250 -18.061008
vt -18.063229 0.093420
vt -18.063520 0.098673
vt -18.064245 0.093715
vt -18.063938 0.098830
vt 0.544804 -18.064245
vt 0.555096 -18.063015
vt 0.544596 -18.063229
vt 0.554956 -18.061951
vt 0.562577 -18.062012
vt 0.562525 -18.061607
vt 19.062012 0.088076
vt 19.062012 0.091694
vt 19.061607 0.088107
vt 19.061562 0.091652
vt 19.061008 0.098090
vt 19.059959 0.097865
vt 0.536050 0.104608
vt 0.529874 0.104391
vt 0.539288 0.098743
vt 0.535848 0.093737
vt 0.525688 0.088234
vt 0.520157 0.098024
vt 0.518330 0.087885
vt 0.516319 0.091484
vt 0.463917 0.104350
vt 0.460599 0.098590
vt 0.469975 0.104063
vt 0.463876 0.093475
vt 0.474169 0.088033
vt 0.479823 0.097850
vt 0.481650 0.087836
vt 0.483734 0.091454
vt 19.059624 0.098743
vt 19.058769 0.093737
vt 19.060085 0.098590
vt 19.059778 0.093475
vt 0.463917 -18.063938
vt 0.469975 -18.064245
vt 0.463950 -18.063520
vt 0.470126 -18.063229
vt 0.479823 -18.063015
vt 0.479843 -18.061951
vt 0.535848 -18.058769
vt 0.525688 -18.059959
vt 0.536124 -18.059778
vt 0.525831 -18.061008
vt 0.518330 -18.061562
vt 0.518350 -18.062012
vt -18.061562 0.087885
vt -18.061607 0.091484
vt -18.062012 0.087836
vt -18.062012 0.091454
vt -18.061951 0.098024
vt -18.063015 0.097850
vt -18.064577 0.099497
vt 0.463266 -18.056265
vt 0.459606 -18.056265
vt 0.463266 -18.064577
vt 0.459605 -18.064577
vt 0.455945 -18.056265
vt 0.455945 -18.064577
vt 19.056265 0.106834
vt 19.064577 0.106834
vt 19.064577 0.099497
vt 0.544055 -18.056265
vt 0.540394 -18.056265
vt 0.544055 -18.064577
vt 0.540395 -18.064577
vt 0.536734 -18.056265
vt 0.536734 -18.064577
vt -18.190920 0.113880
vt -18.190920 0.111615
vt -18.190920 0.109349
vt -18.146498 0.109349
vt 0.582931 -18.190920
vt 0.585192 -18.190920
vt 0.582931 -18.146498
vt 0.585192 -18.146498
vt 0.587452 -18.190920
vt 0.587452 -18.146498
vt 19.190920 0.109349
vt 19.190920 0.111615
vt 19.190920 0.113880
vt 0.412548 -18.190920
vt 0.414808 -18.190920
vt 0.412548 -18.146498
vt 0.414808 -18.146498
vt 0.417069 -18.190920
vt 0.417069 -18.146498
vt 0.588611 0.114664
vt 0.591511 0.120135
vt 0.581925 0.114787
vt 0.579319 0.120276
vt 0.579644 0.131846
vt 0.590868 0.131753
vt 0.583021 0.138408
vt 0.587137 0.138354
vt 0.411629 0.114765
vt 0.418264 0.114765
vt 0.408848 0.120167
vt 0.421046 0.120167
vt 0.420601 0.131822
vt 0.409292 0.131822
vt 0.417031 0.138415
vt 0.412863 0.138415
vt -18.105373 0.114787
vt -18.104521 0.120276
vt -18.105835 0.114765
vt -18.105528 0.120167
vt -18.105709 0.131846
vt -18.106760 0.131822
vt -18.107311 0.138408
vt 19.109690 0.114765
vt 19.109997 0.120167
vt 19.109272 0.114664
vt 19.108980 0.120135
vt 19.108765 0.131822
vt 19.107702 0.131753
vt 19.107761 0.138415
vt 19.107357 0.138354
vt 0.416979 -18.107311
vt 0.412863 -18.107357
vt 0.417031 -18.107761
vt 0.412863 -18.107761
vt 0.586117 0.107122
vt 0.589393 0.101869
vt 0.589565 0.112865
vt 0.595611 0.112382
vt 0.605445 0.106314
vt 0.599753 0.096618
vt 0.609426 0.100102
vt 0.607322 0.096556
vt 0.413677 0.107280
vt 0.410359 0.113040
vt 0.410399 0.102164
vt 0.404300 0.112753
vt 0.394453 0.106539
vt 0.400107 0.096723
vt 0.390542 0.100143
vt 0.392626 0.096526
vt 0.410435 -18.105373
vt 0.404389 -18.104521
vt 0.410359 -18.105835
vt 0.404300 -18.105528
vt 0.394555 -18.105709
vt 0.394453 -18.106758
vt -18.108980 0.101869
vt -18.109272 0.107122
vt -18.109997 0.102164
vt -18.109690 0.107280
vt 0.589601 -18.109997
vt 0.599893 -18.108765
vt 0.589393 -18.108980
vt 0.599753 -18.107702
vt 0.607374 -18.107761
vt 0.607322 -18.107357
vt 19.107761 0.096526
vt 19.107761 0.100143
vt 19.107357 0.096556
vt 19.107311 0.100102
vt 19.106758 0.106539
vt 19.105709 0.106314
vt 0.580847 0.113058
vt 0.574671 0.112840
vt 0.584085 0.107193
vt 0.580644 0.102186
vt 0.570485 0.096684
vt 0.564954 0.106473
vt 0.563127 0.096334
vt 0.561116 0.099934
vt 0.419120 0.112799
vt 0.415802 0.107040
vt 0.425178 0.112513
vt 0.419079 0.101924
vt 0.429372 0.096483
vt 0.435026 0.106299
vt 0.436853 0.096286
vt 0.438937 0.099903
vt 19.105373 0.107193
vt 19.104521 0.102186
vt 19.105835 0.107040
vt 19.105528 0.101924
vt 0.419120 -18.109690
vt 0.425178 -18.109997
vt 0.419153 -18.109272
vt 0.425329 -18.108980
vt 0.435026 -18.108765
vt 0.435046 -18.107702
vt 0.580644 -18.104521
vt 0.570485 -18.105709
vt 0.580921 -18.105528
vt 0.570628 -18.106760
vt 0.563127 -18.107311
vt 0.563147 -18.107761
vt -18.107311 0.096334
vt -18.107357 0.099934
vt -18.107761 0.096286
vt -18.107761 0.099903
vt -18.107702 0.106473
vt -18.108765 0.106299
vt -18.110329 0.107946
vt 0.418469 -18.102015
vt 0.414809 -18.102015
vt 0.418469 -18.110329
vt 0.414809 -18.110329
vt 0.411148 -18.102015
vt 0.411148 -18.110329
vt 19.110329 0.111615
vt 19.110329 0.107946
vt 0.588852 -18.102015
vt 0.585191 -18.102015
vt 0.588852 -18.110329
vt 0.585191 -18.110329
vt 0.581531 -18.102015
vt 0.581531 -18.110329
vt 0.463369 0.106834
vt 0.459709 0.103165
vt 0.464885 0.103165
vt 0.463369 0.099497
vt 0.459709 0.108353
vt 0.459709 0.097977
vt 0.456048 0.106834
vt 0.456048 0.099497
vt 0.454532 0.103165
vt 0.418572 0.115283
vt 0.414912 0.111615
vt 0.420088 0.111615
vt 0.418572 0.107946
vt 0.414912 0.116803
vt 0.414912 0.106426
vt 0.411252 0.115283
vt 0.411252 0.107946
vt 0.409736 0.111615
vt 0.540394 0.103165
vt 0.536734 0.106834
vt 0.535218 0.103165
vt 0.536734 0.099497
vt 0.540394 0.108353
vt 0.540394 0.097977
vt 0.544055 0.106834
vt 0.544055 0.099497
vt 0.545571 0.103165
vt 0.585191 0.111615
vt 0.581531 0.115283
vt 0.580015 0.111615
vt 0.581531 0.107946
vt 0.585191 0.116803
vt 0.585191 0.106426
vt 0.588852 0.115283
vt 0.588852 0.107946
vt 0.590368 0.111615
s 1
g Bsh_Hull_Stern_Dredn_AD1_002_6_details_3
usemtl details_3
f 51/1/1 50/2/2 49/3/3
f 52/4/4 49/3/3 50/2/2
f 50/2/2 53/5/5 52/4/4
f 54/6/6 52/4/4 53/5/5
f 57/7/7 56/8/8 55/9/1
f 58/10/9 55/9/1 56/8/8
f 56/8/8 59/11/10 58/10/9
f 60/12/11 58/10/9 59/11/10
f 59/11/10 61/13/12 60/12/11
f 62/14/13 60/12/11 61/13/12
f 65/15/12 64/16/14 63/17/13
f 66/18/15 63/17/13 64/16/14
f 64/16/14 67/19/16 66/18/15
f 68/20/17 66/18/15 67/19/16
f 71/21/16 70/22/18 69/23/19
f 72/24/20 69/23/19 70/22/18
f 70/22/18 73/25/21 72/24/20
f 74/26/22 72/24/20 73/25/21
f 73/25/21 75/27/6 74/26/22
f 76/28/23 74/26/22 75/27/6
f 79/29/12 78/30/14 77/31/13
f 80/32/15 77/31/13 78/30/14
f 78/30/14 81/33/16 80/32/15
f 82/34/24 80/32/15 81/33/16
f 85/35/25 84/36/11 83/37/26
f 86/38/10 83/37/26 84/36/11
f 84/36/11 87/39/9 86/38/10
f 88/40/27 86/38/10 87/39/9
f 87/39/9 89/41/1 88/40/27
f 90/42/3 88/40/27 89/41/1
f 93/43/1 92/44/2 91/45/3
f 94/46/4 91/45/3 92/44/2
f 92/44/2 95/47/5 94/46/4
f 96/48/6 94/46/4 95/47/5
f 99/49/23 98/50/22 97/51/6
f 100/52/21 97/51/6 98/50/22
f 98/50/22 101/53/20 100/52/21
f 102/54/18 100/52/21 101/53/20
f 101/53/20 103/55/19 102/54/18
f 104/56/28 102/54/18 103/55/19
f 107/57/29 106/58/29 105/59/30
f 108/60/30 105/59/30 106/58/29
f 105/59/30 108/60/30 109/61/31
f 110/62/31 109/61/31 108/60/30
f 113/63/31 112/64/31 111/65/32
f 114/66/32 111/65/32 112/64/31
f 111/65/32 114/66/32 115/67/33
f 116/68/33 115/67/33 114/66/32
f 119/69/33 118/70/33 117/71/34
f 120/72/34 117/71/34 118/70/33
f 117/71/34 120/72/34 121/73/35
f 122/74/35 121/73/35 120/72/34
f 125/75/35 124/76/35 123/77/36
f 126/78/36 123/77/36 124/76/35
f 123/77/36 126/78/36 127/79/29
f 128/80/29 127/79/29 126/78/36
f 131/81/37 130/82/38 129/83/39
f 132/84/40 129/83/39 130/82/38
f 132/84/40 133/85/41 129/83/39
f 134/86/42 129/83/39 133/85/41
f 133/85/41 135/87/43 134/86/42
f 136/88/44 134/86/42 135/87/43
f 139/89/45 138/90/46 137/91/47
f 140/92/48 137/91/47 138/90/46
f 140/92/48 138/90/46 141/93/49
f 142/94/50 141/93/49 138/90/46
f 141/93/49 142/94/50 143/95/51
f 144/96/52 143/95/51 142/94/50
f 147/97/53 146/98/54 145/99/55
f 148/100/56 145/99/55 146/98/54
f 145/99/55 148/100/56 149/101/57
f 150/102/58 149/101/57 148/100/56
f 149/101/57 150/102/58 151/103/59
f 152/104/60 151/103/59 150/102/58
f 155/105/61 154/106/62 153/107/63
f 156/108/64 153/107/63 154/106/62
f 153/107/63 156/108/64 157/109/65
f 158/110/66 157/109/65 156/108/64
f 157/109/65 158/110/66 159/111/67
f 160/112/68 159/111/67 158/110/66
f 163/113/69 162/114/68 161/115/60
f 164/116/70 161/115/60 162/114/68
f 167/117/71 166/118/72 165/119/73
f 168/120/74 165/119/73 166/118/72
f 168/120/74 169/121/75 165/119/73
f 170/122/76 165/119/73 169/121/75
f 169/121/75 171/123/77 170/122/76
f 172/124/78 170/122/76 171/123/77
f 175/125/79 174/126/80 173/127/81
f 176/128/82 173/127/81 174/126/80
f 176/128/82 174/126/80 177/129/83
f 178/130/84 177/129/83 174/126/80
f 177/129/83 178/130/84 179/131/85
f 180/132/86 179/131/85 178/130/84
f 183/133/87 182/134/88 181/135/89
f 184/136/90 181/135/89 182/134/88
f 181/135/89 184/136/90 185/137/91
f 186/138/92 185/137/91 184/136/90
f 189/139/93 188/140/94 187/141/95
f 190/142/96 187/141/95 188/140/94
f 193/143/97 192/144/98 191/145/99
f 194/146/100 191/145/99 192/144/98
f 191/145/99 194/146/100 195/147/101
f 196/148/102 195/147/101 194/146/100
f 199/149/103 198/150/104 197/151/105
f 200/152/106 197/151/105 198/150/104
f 197/151/105 200/152/106 201/153/107
f 202/154/108 201/153/107 200/152/106
f 205/155/109 204/156/110 203/157/111
f 206/158/112 203/157/111 204/156/110
f 206/158/112 207/159/113 203/157/111
f 208/160/114 203/157/111 207/159/113
f 207/159/113 209/161/115 208/160/114
f 210/162/116 208/160/114 209/161/115
f 213/163/117 212/164/118 211/165/119
f 214/166/120 211/165/119 212/164/118
f 214/166/120 212/164/118 215/167/121
f 216/168/122 215/167/121 212/164/118
f 215/167/121 216/168/122 217/169/123
f 218/170/124 217/169/123 216/168/122
f 221/171/125 220/172/126 219/173/127
f 222/174/128 219/173/127 220/172/126
f 225/175/129 224/176/130 223/177/131
f 226/178/132 223/177/131 224/176/130
f 223/177/131 226/178/132 227/179/133
f 228/180/134 227/179/133 226/178/132
f 231/181/135 230/182/136 229/183/137
f 232/184/138 229/183/137 230/182/136
f 229/183/137 232/184/138 233/185/139
f 234/186/140 233/185/139 232/184/138
f 237/187/141 236/188/142 235/189/143
f 238/190/144 235/189/143 236/188/142
f 235/189/143 238/190/144 239/191/134
f 240/192/133 239/191/134 238/190/144
f 2/193/29 241/194/145 1/195/30
f 242/196/146 1/195/30 241/194/145
f 1/195/30 242/196/146 3/197/31
f 243/198/147 3/197/31 242/196/146
f 245/199/148 4/200/29 244/201/149
f 5/202/36 244/201/149 4/200/29
f 244/201/149 5/202/36 246/203/150
f 6/204/35 246/203/150 5/202/36
f 248/205/151 7/206/35 247/207/152
f 8/208/34 247/207/152 7/206/35
f 247/207/152 8/208/34 249/209/153
f 9/210/33 249/209/153 8/208/34
f 251/211/154 10/212/33 250/213/155
f 11/214/32 250/213/155 10/212/33
f 250/213/155 11/214/32 252/215/156
f 12/216/31 252/215/156 11/214/32
f 255/217/29 254/218/29 253/219/30
f 256/220/30 253/219/30 254/218/29
f 253/219/30 256/220/30 257/221/31
f 258/222/31 257/221/31 256/220/30
f 261/223/31 260/224/31 259/225/32
f 262/226/32 259/225/32 260/224/31
f 259/225/32 262/226/32 263/227/33
f 264/228/33 263/227/33 262/226/32
f 267/229/33 266/230/33 265/231/34
f 268/232/34 265/231/34 266/230/33
f 265/231/34 268/232/34 269/233/35
f 270/234/35 269/233/35 268/232/34
f 273/235/35 272/236/35 271/237/36
f 274/238/36 271/237/36 272/236/35
f 271/237/36 274/238/36 275/239/29
f 276/240/29 275/239/29 274/238/36
f 279/241/157 278/242/38 277/243/39
f 280/244/40 277/243/39 278/242/38
f 280/244/40 281/245/41 277/243/39
f 282/246/158 277/243/39 281/245/41
f 281/245/41 283/247/43 282/246/158
f 284/248/44 282/246/158 283/247/43
f 287/249/159 286/250/46 285/251/47
f 288/252/160 285/251/47 286/250/46
f 288/252/160 286/250/46 289/253/49
f 290/254/50 289/253/49 286/250/46
f 289/253/49 290/254/50 291/255/51
f 292/256/52 291/255/51 290/254/50
f 295/257/161 294/258/54 293/259/55
f 296/260/56 293/259/55 294/258/54
f 293/259/55 296/260/56 297/261/57
f 298/262/162 297/261/57 296/260/56
f 297/261/57 298/262/162 299/263/163
f 300/264/164 299/263/163 298/262/162
f 303/265/165 302/266/166 301/267/63
f 304/268/167 301/267/63 302/266/166
f 301/267/63 304/268/167 305/269/65
f 306/270/168 305/269/65 304/268/167
f 305/269/65 306/270/168 307/271/67
f 308/272/169 307/271/67 306/270/168
f 311/273/170 310/274/68 309/275/60
f 312/276/171 309/275/60 310/274/68
f 315/277/71 314/278/72 313/279/73
f 316/280/172 313/279/73 314/278/72
f 316/280/172 317/281/75 313/279/73
f 318/282/76 313/279/73 317/281/75
f 317/281/75 319/283/77 318/282/76
f 320/284/78 318/282/76 319/283/77
f 323/285/79 322/286/80 321/287/81
f 324/288/82 321/287/81 322/286/80
f 324/288/82 322/286/80 325/289/83
f 326/290/84 325/289/83 322/286/80
f 325/289/83 326/290/84 327/291/85
f 328/292/173 327/291/85 326/290/84
f 331/293/174 330/294/175 329/295/176
f 332/296/177 329/295/176 330/294/175
f 329/295/176 332/296/177 333/297/178
f 334/298/179 333/297/178 332/296/177
f 337/299/180 336/300/181 335/301/182
f 338/302/183 335/301/182 336/300/181
f 341/303/184 340/304/185 339/305/99
f 342/306/100 339/305/99 340/304/185
f 339/305/99 342/306/100 343/307/186
f 344/308/102 343/307/186 342/306/100
f 347/309/187 346/310/188 345/311/189
f 348/312/190 345/311/189 346/310/188
f 345/311/189 348/312/190 349/313/107
f 350/314/108 349/313/107 348/312/190
f 353/315/109 352/316/191 351/317/111
f 354/318/112 351/317/111 352/316/191
f 354/318/112 355/319/113 351/317/111
f 356/320/114 351/317/111 355/319/113
f 355/319/113 357/321/192 356/320/114
f 358/322/193 356/320/114 357/321/192
f 361/323/194 360/324/195 359/325/119
f 362/326/120 359/325/119 360/324/195
f 362/326/120 360/324/195 363/327/121
f 364/328/122 363/327/121 360/324/195
f 363/327/121 364/328/122 365/329/196
f 366/330/197 365/329/196 364/328/122
f 369/331/136 368/332/198 367/333/199
f 370/334/200 367/333/199 368/332/198
f 373/335/201 372/336/202 371/337/131
f 374/338/132 371/337/131 372/336/202
f 371/337/131 374/338/132 375/339/133
f 376/340/203 375/339/133 374/338/132
f 379/341/204 378/342/205 377/343/137
f 380/344/206 377/343/137 378/342/205
f 377/343/137 380/344/206 381/345/139
f 382/346/140 381/345/139 380/344/206
f 385/347/207 384/348/140 383/349/208
f 386/350/209 383/349/208 384/348/140
f 383/349/208 386/350/209 387/351/210
f 388/352/211 387/351/210 386/350/209
f 14/353/29 389/354/145 13/355/30
f 390/356/146 13/355/30 389/354/145
f 13/355/30 390/356/146 15/357/31
f 391/358/147 15/357/31 390/356/146
f 393/359/148 16/360/29 392/361/149
f 17/362/36 392/361/149 16/360/29
f 392/361/149 17/362/36 394/363/150
f 18/364/35 394/363/150 17/362/36
f 396/365/212 19/366/35 395/367/152
f 20/368/34 395/367/152 19/366/35
f 395/367/152 20/368/34 397/369/153
f 21/370/33 397/369/153 20/368/34
f 399/371/154 22/372/33 398/373/155
f 23/374/32 398/373/155 22/372/33
f 398/373/155 23/374/32 400/375/156
f 24/376/31 400/375/156 23/374/32
f 403/73/35 402/71/34 401/74/35
f 404/72/34 401/74/35 402/71/34
f 402/71/34 405/377/33 404/72/34
f 406/70/33 404/72/34 405/377/33
f 409/378/33 408/379/32 407/380/33
f 410/381/32 407/380/33 408/379/32
f 408/379/32 411/382/31 410/381/32
f 412/383/31 410/381/32 411/382/31
f 415/61/31 414/59/30 413/62/31
f 416/384/30 413/62/31 414/59/30
f 414/59/30 417/385/29 416/384/30
f 418/58/29 416/384/30 417/385/29
f 421/386/29 420/387/36 419/388/29
f 422/389/36 419/388/29 420/387/36
f 420/387/36 423/390/35 422/389/36
f 424/391/35 422/389/36 423/390/35
f 427/392/213 426/393/214 425/394/215
f 428/395/216 425/394/215 426/393/214
f 428/395/216 426/393/214 429/396/217
f 430/397/218 429/396/217 426/393/214
f 429/396/217 430/397/218 431/398/219
f 432/399/220 431/398/219 430/397/218
f 435/400/221 434/401/222 433/402/223
f 436/403/224 433/402/223 434/401/222
f 436/403/224 437/404/225 433/402/223
f 438/405/226 433/402/223 437/404/225
f 437/404/225 439/406/227 438/405/226
f 440/407/52 438/405/226 439/406/227
f 443/408/228 442/409/229 441/410/230
f 444/411/231 441/410/230 442/409/229
f 442/409/229 445/412/232 444/411/231
f 446/413/233 444/411/231 445/412/232
f 445/412/232 447/414/234 446/413/233
f 448/111/235 446/413/233 447/414/234
f 451/415/236 450/416/237 449/417/238
f 452/418/239 449/417/238 450/416/237
f 450/416/237 453/419/240 452/418/239
f 454/420/241 452/418/239 453/419/240
f 453/419/240 455/104/242 454/420/241
f 456/421/243 454/420/241 455/104/242
f 459/422/244 458/423/245 457/424/235
f 460/425/246 457/424/235 458/423/245
f 463/426/247 462/427/248 461/428/249
f 464/429/250 461/428/249 462/427/248
f 464/429/250 462/427/248 465/430/251
f 466/431/252 465/430/251 462/427/248
f 465/430/251 466/431/252 467/432/253
f 468/433/254 467/432/253 466/431/252
f 471/434/255 470/435/256 469/436/257
f 472/437/258 469/436/257 470/435/256
f 472/437/258 473/438/259 469/436/257
f 474/439/260 469/436/257 473/438/259
f 473/438/259 475/440/261 474/439/260
f 476/441/262 474/439/260 475/440/261
f 479/442/263 478/443/264 477/444/265
f 480/445/266 477/444/265 478/443/264
f 478/443/264 481/446/267 480/445/266
f 482/447/268 480/445/266 481/446/267
f 485/448/269 484/449/270 483/450/271
f 486/451/272 483/450/271 484/449/270
f 489/452/273 488/453/274 487/454/275
f 490/455/276 487/454/275 488/453/274
f 488/453/274 491/456/277 490/455/276
f 492/457/278 490/455/276 491/456/277
f 495/458/279 494/459/280 493/460/281
f 496/461/282 493/460/281 494/459/280
f 494/459/280 497/462/268 496/461/282
f 498/463/267 496/461/282 497/462/268
f 501/464/283 500/465/284 499/466/285
f 502/467/286 499/466/285 500/465/284
f 502/467/286 500/465/284 503/468/287
f 504/469/288 503/468/287 500/465/284
f 503/468/287 504/469/288 505/470/289
f 506/471/290 505/470/289 504/469/288
f 509/472/291 508/473/292 507/474/293
f 510/475/294 507/474/293 508/473/292
f 510/475/294 511/476/295 507/474/293
f 512/477/296 507/474/293 511/476/295
f 511/476/295 513/478/297 512/477/296
f 514/479/86 512/477/296 513/478/297
f 517/480/298 516/481/299 515/482/300
f 518/483/301 515/482/300 516/481/299
f 521/484/302 520/485/303 519/486/304
f 522/487/305 519/486/304 520/485/303
f 520/485/303 523/488/306 522/487/305
f 524/489/307 522/487/305 523/488/306
f 527/490/308 526/491/309 525/492/310
f 528/493/311 525/492/310 526/491/309
f 526/491/309 529/494/312 528/493/311
f 530/495/313 528/493/311 529/494/312
f 533/496/314 532/497/315 531/498/316
f 534/499/317 531/498/316 532/497/315
f 532/497/315 535/500/318 534/499/317
f 536/501/319 534/499/317 535/500/318
f 26/206/35 25/208/34 537/205/151
f 538/207/152 537/205/151 25/208/34
f 25/208/34 27/502/33 538/207/152
f 539/209/153 538/207/152 27/502/33
f 541/503/150 540/504/149 28/505/35
f 29/506/36 28/505/35 540/504/149
f 540/504/149 542/507/320 29/506/36
f 30/508/29 29/506/36 542/507/320
f 544/509/145 543/196/146 31/510/29
f 32/195/30 31/510/29 543/196/146
f 543/196/146 545/198/147 32/195/30
f 33/511/31 32/195/30 545/198/147
f 547/512/156 546/513/155 34/514/31
f 35/515/32 34/514/31 546/513/155
f 546/513/155 548/516/154 35/515/32
f 36/517/33 35/515/32 548/516/154
f 551/518/35 550/519/34 549/234/35
f 552/232/34 549/234/35 550/519/34
f 550/519/34 553/520/33 552/232/34
f 554/521/33 552/232/34 553/520/33
f 557/522/33 556/523/32 555/524/33
f 558/525/32 555/524/33 556/523/32
f 556/523/32 559/526/31 558/525/32
f 560/527/31 558/525/32 559/526/31
f 563/528/31 562/529/30 561/222/31
f 564/220/30 561/222/31 562/529/30
f 562/529/30 565/530/29 564/220/30
f 566/218/29 564/220/30 565/530/29
f 569/531/29 568/532/36 567/533/29
f 570/534/36 567/533/29 568/532/36
f 568/532/36 571/535/35 570/534/36
f 572/536/35 570/534/36 571/535/35
f 575/537/321 574/538/214 573/539/215
f 576/540/216 573/539/215 574/538/214
f 576/540/216 574/538/214 577/541/217
f 578/542/322 577/541/217 574/538/214
f 577/541/217 578/542/322 579/543/219
f 580/544/220 579/543/219 578/542/322
f 583/545/323 582/546/222 581/547/223
f 584/548/324 581/547/223 582/546/222
f 584/548/324 585/549/225 581/547/223
f 586/550/226 581/547/223 585/549/225
f 585/549/225 587/551/227 586/550/226
f 588/552/52 586/550/226 587/551/227
f 591/553/325 590/554/326 589/555/327
f 592/556/231 589/555/327 590/554/326
f 590/554/326 593/557/328 592/556/231
f 594/558/329 592/556/231 593/557/328
f 593/557/328 595/559/234 594/558/329
f 596/271/235 594/558/329 595/559/234
f 599/560/330 598/561/237 597/562/331
f 600/563/332 597/562/331 598/561/237
f 598/561/237 601/564/240 600/563/332
f 602/565/333 600/563/332 601/564/240
f 601/564/240 603/566/334 602/565/333
f 604/567/335 602/565/333 603/566/334
f 607/568/244 606/569/335 605/570/235
f 608/571/336 605/570/235 606/569/335
f 611/572/247 610/573/248 609/574/249
f 612/575/337 609/574/249 610/573/248
f 612/575/337 610/573/248 613/576/251
f 614/577/252 613/576/251 610/573/248
f 613/576/251 614/577/252 615/578/253
f 616/579/254 615/578/253 614/577/252
f 619/580/255 618/581/256 617/582/257
f 620/583/258 617/582/257 618/581/256
f 620/583/258 621/584/259 617/582/257
f 622/585/260 617/582/257 621/584/259
f 621/584/259 623/586/261 622/585/260
f 624/587/197 622/585/260 623/586/261
f 627/588/338 626/589/339 625/590/340
f 628/591/341 625/590/340 626/589/339
f 626/589/339 629/592/342 628/591/341
f 630/593/343 628/591/341 629/592/342
f 633/594/344 632/595/345 631/596/346
f 634/597/347 631/596/346 632/595/345
f 637/598/348 636/599/274 635/600/349
f 638/601/276 635/600/349 636/599/274
f 636/599/274 639/602/277 638/601/276
f 640/603/350 638/601/276 639/602/277
f 643/604/351 642/605/352 641/606/353
f 644/607/354 641/606/353 642/605/352
f 642/605/352 645/608/355 644/607/354
f 646/609/356 644/607/354 645/608/355
f 649/610/283 648/611/284 647/612/357
f 650/613/286 647/612/357 648/611/284
f 650/613/286 648/611/284 651/614/287
f 652/615/288 651/614/287 648/611/284
f 651/614/287 652/615/288 653/616/289
f 654/617/290 653/616/289 652/615/288
f 657/618/358 656/619/292 655/620/359
f 658/621/294 655/620/359 656/619/292
f 658/621/294 659/622/360 655/620/359
f 660/623/296 655/620/359 659/622/360
f 659/622/360 661/624/361 660/623/296
f 662/625/173 660/623/296 661/624/361
f 665/626/362 664/627/363 663/628/364
f 666/629/365 663/628/364 664/627/363
f 669/630/366 668/631/367 667/632/368
f 670/633/305 667/632/368 668/631/367
f 668/631/367 671/634/319 670/633/305
f 672/635/318 670/633/305 671/634/319
f 675/636/369 674/637/309 673/638/370
f 676/639/371 673/638/370 674/637/309
f 674/637/309 677/640/314 676/639/371
f 678/641/372 676/639/371 677/640/314
f 681/642/373 680/643/374 679/644/372
f 682/645/375 679/644/372 680/643/374
f 680/643/374 683/646/307 682/645/375
f 684/647/319 682/645/375 683/646/307
f 38/366/35 37/368/34 685/365/151
f 686/367/152 685/365/151 37/368/34
f 37/368/34 39/648/33 686/367/152
f 687/369/153 686/367/152 39/648/33
f 689/649/150 688/650/149 40/651/35
f 41/652/36 40/651/35 688/650/149
f 688/650/149 690/653/148 41/652/36
f 42/654/29 41/652/36 690/653/148
f 692/354/145 691/356/146 43/353/29
f 44/655/30 43/353/29 691/356/146
f 691/356/146 693/358/147 44/655/30
f 45/656/31 44/655/30 693/358/147
f 695/657/156 694/658/155 46/659/31
f 47/660/32 46/659/31 694/658/155
f 694/658/155 696/661/154 47/660/32
f 48/662/33 47/660/32 696/661/154
f 699/663/320 698/664/376 697/665/146
f 697/665/146 698/664/376 700/666/147
f 701/667/149 698/664/376 699/663/320
f 700/666/147 698/664/376 702/668/155
f 703/669/151 698/664/376 701/667/149
f 702/668/155 698/664/376 704/670/377
f 705/671/152 698/664/376 703/669/151
f 704/670/377 698/664/376 705/671/152
f 708/672/320 707/673/376 706/674/146
f 706/674/146 707/673/376 709/675/147
f 710/676/149 707/673/376 708/672/320
f 709/675/147 707/673/376 711/677/155
f 712/678/151 707/673/376 710/676/149
f 711/677/155 707/673/376 713/679/154
f 714/680/152 707/673/376 712/678/151
f 713/679/154 707/673/376 714/680/152
f 717/681/376 716/682/151 715/683/152
f 717/681/376 715/683/152 718/684/377
f 717/681/376 719/685/149 716/682/151
f 717/681/376 718/684/377 720/686/155
f 717/681/376 721/687/320 719/685/149
f 717/681/376 720/686/155 722/688/147
f 717/681/376 723/689/146 721/687/320
f 717/681/376 722/688/147 723/689/146
f 726/690/376 725/691/151 724/692/152
f 726/690/376 724/692/152 727/693/154
f 726/690/376 728/694/149 725/691/151
f 726/690/376 727/693/154 729/695/155
f 726/690/376 730/696/320 728/694/149
f 726/690/376 729/695/155 731/697/147
f 726/690/376 732/698/146 730/696/320
f 726/690/376 731/697/147 732/698/146
