# Blender 5.1.0
# www.blender.org
mtllib Bsh_Hull_Stern_Dredn_AD1_002_5.mtl
o Bsh_Hull_Stern_Dredn_AD1_002_5
v -4.063277 -49.767422 5.339329
v -5.029035 -51.303917 5.339331
v -5.029037 -49.767426 5.339330
v -4.063274 -51.303905 5.339329
v -5.029037 -49.767426 5.339330
v -5.029035 -51.303917 5.099135
v -5.029038 -49.767426 5.099135
v -5.029035 -51.303917 5.339331
v -4.063277 -49.767422 5.339329
v -5.029038 -49.767426 5.099135
v -4.063278 -49.767422 5.099133
v -5.029037 -49.767426 5.339330
v -4.063274 -51.303905 5.339329
v -4.063278 -49.767422 5.099133
v -4.063275 -51.303905 5.099133
v -4.063277 -49.767422 5.339329
v -5.029035 -51.303917 5.339331
v -4.063275 -51.303905 5.099133
v -5.029035 -51.303917 5.099135
v -4.063274 -51.303905 5.339329
v -4.552846 -52.999947 5.099133
v -4.481087 -53.267757 5.261765
v -4.481087 -53.267757 5.099133
v -4.552846 -52.999947 5.261765
v -4.481086 -52.732140 5.099133
v -4.481086 -52.732140 5.261765
v -4.285037 -53.463810 5.261765
v -4.481087 -53.267757 5.099133
v -4.481087 -53.267757 5.261765
v -4.285037 -53.463810 5.099133
v -4.017227 -53.535564 5.261765
v -4.017227 -53.535564 5.099133
v -3.749416 -53.463810 5.261764
v -3.749416 -53.463810 5.099132
v -3.553366 -53.267757 5.261764
v -3.553366 -53.267757 5.099132
v -3.481606 -52.999947 5.261763
v -3.553366 -53.267757 5.099132
v -3.553366 -53.267757 5.261764
v -3.481606 -52.999947 5.099132
v -3.553365 -52.732140 5.261764
v -3.553365 -52.732140 5.099132
v -3.749416 -52.536087 5.261764
v -3.553365 -52.732140 5.099132
v -3.553365 -52.732140 5.261764
v -3.749416 -52.536087 5.099132
v -4.017226 -52.464325 5.261765
v -4.017226 -52.464325 5.099133
v -4.285036 -52.536087 5.261765
v -4.285036 -52.536087 5.099133
v -4.481086 -52.732140 5.261765
v -4.481086 -52.732140 5.099133
v -5.542906 -46.999981 5.410414
v -6.133918 -48.536465 5.410414
v -6.133918 -46.999977 5.410414
v -5.542906 -48.536465 5.410414
v -6.133918 -46.999977 5.410414
v -6.133920 -48.536465 5.099155
v -6.133920 -46.999977 5.099154
v -6.133918 -48.536465 5.410414
v -5.542906 -46.999981 5.410414
v -6.133920 -46.999977 5.099154
v -5.542908 -46.999981 5.099154
v -6.133918 -46.999977 5.410414
v -5.542906 -48.536465 5.410414
v -5.542908 -46.999981 5.099154
v -5.542908 -48.536465 5.099154
v -5.542906 -46.999981 5.410414
v -6.133918 -48.536465 5.410414
v -5.542908 -48.536465 5.099154
v -6.133920 -48.536465 5.099155
v -5.542906 -48.536465 5.410414
v 4.063283 -49.767426 5.339325
v 5.029042 -51.303921 5.339327
v 4.063280 -51.303917 5.339326
v 5.029045 -49.767433 5.339327
v 5.029045 -49.767433 5.339327
v 5.029042 -51.303921 5.099132
v 5.029042 -51.303921 5.339327
v 5.029044 -49.767433 5.099132
v 4.063283 -49.767426 5.339325
v 5.029044 -49.767433 5.099132
v 5.029045 -49.767433 5.339327
v 4.063283 -49.767426 5.099129
v 4.063280 -51.303917 5.339326
v 4.063283 -49.767426 5.099129
v 4.063283 -49.767426 5.339325
v 4.063282 -51.303917 5.099132
v 5.029042 -51.303921 5.339327
v 4.063282 -51.303917 5.099132
v 4.063280 -51.303917 5.339326
v 5.029042 -51.303921 5.099132
v 4.481086 -53.267765 5.261763
v 4.552846 -52.999954 5.099131
v 4.481086 -53.267765 5.099131
v 4.552846 -52.999954 5.261763
v 4.481088 -52.732143 5.099131
v 4.481088 -52.732143 5.261763
v 4.481086 -53.267765 5.099131
v 4.285037 -53.463814 5.261763
v 4.481086 -53.267765 5.261763
v 4.285037 -53.463814 5.099131
v 4.017227 -53.535576 5.261762
v 4.017227 -53.535576 5.099130
v 3.749419 -53.463814 5.261761
v 3.749419 -53.463814 5.099129
v 3.553367 -53.267765 5.261761
v 3.553367 -53.267765 5.099130
v 3.553367 -53.267765 5.099130
v 3.481608 -52.999954 5.261761
v 3.553367 -53.267765 5.261761
v 3.481607 -52.999954 5.099129
v 3.553366 -52.732143 5.261761
v 3.553366 -52.732143 5.099129
v 3.553366 -52.732143 5.099129
v 3.749418 -52.536095 5.261761
v 3.553366 -52.732143 5.261761
v 3.749418 -52.536095 5.099129
v 4.017227 -52.464336 5.261762
v 4.017227 -52.464336 5.099130
v 4.285037 -52.536095 5.261763
v 4.285037 -52.536095 5.099131
v 4.481088 -52.732143 5.261763
v 4.481088 -52.732143 5.099131
v 5.542900 -46.999985 5.410409
v 6.133910 -48.536476 5.410410
v 5.542899 -48.536469 5.410410
v 6.133912 -46.999989 5.410410
v 6.133912 -46.999989 5.410410
v 6.133912 -48.536476 5.099151
v 6.133910 -48.536476 5.410410
v 6.133914 -46.999989 5.099151
v 5.542900 -46.999985 5.410409
v 6.133914 -46.999989 5.099151
v 6.133912 -46.999989 5.410410
v 5.542903 -46.999985 5.099150
v 5.542899 -48.536469 5.410410
v 5.542903 -46.999985 5.099150
v 5.542900 -46.999985 5.410409
v 5.542900 -48.536469 5.099151
v 6.133910 -48.536476 5.410410
v 5.542900 -48.536469 5.099151
v 5.542899 -48.536469 5.410410
v 6.133912 -48.536476 5.099151
v 2.695673 -48.297359 5.233861
v 2.695677 -50.107998 5.099134
v 2.695677 -50.107998 5.233861
v 2.695674 -48.297359 5.099134
v -2.695664 -48.297352 5.233853
v 2.695677 -50.107998 5.233861
v -2.695665 -50.108002 5.233853
v 2.695673 -48.297359 5.233861
v 2.695673 -48.297359 5.233861
v -2.695663 -48.297352 5.099126
v 2.695674 -48.297359 5.099134
v -2.695664 -48.297352 5.233853
v -2.695665 -50.108002 5.233853
v 2.695677 -50.107998 5.099134
v -2.695664 -50.108002 5.099126
v 2.695677 -50.107998 5.233861
v -2.695664 -48.297352 5.233853
v -2.695664 -50.108002 5.099126
v -2.695663 -48.297352 5.099126
v -2.695665 -50.108002 5.233853
v 0.264671 -48.993843 5.570073
v -0.264661 -49.842339 5.570074
v -0.264662 -48.993843 5.570074
v 0.264672 -49.842339 5.570074
v 0.264672 -49.842339 5.570074
v 0.264672 -48.993843 5.233855
v 0.264673 -49.842339 5.233855
v 0.264671 -48.993843 5.570073
v -0.264661 -49.842339 5.570074
v 0.264673 -49.842339 5.233855
v -0.264660 -49.842339 5.233855
v 0.264672 -49.842339 5.570074
v -0.264662 -48.993843 5.570074
v -0.264660 -49.842339 5.233855
v -0.264661 -48.993843 5.233855
v -0.264661 -49.842339 5.570074
v 0.264671 -48.993843 5.570073
v -0.264661 -48.993843 5.233855
v 0.264672 -48.993843 5.233855
v -0.264662 -48.993843 5.570074
v 0.264670 -46.999977 5.570073
v -0.264662 -47.848454 5.570074
v -0.264663 -46.999977 5.570074
v 0.264671 -47.848454 5.570074
v 0.264671 -47.848454 5.570074
v 0.264671 -46.999977 5.099128
v 0.264671 -47.848454 5.099129
v 0.264670 -46.999977 5.570073
v -0.264662 -47.848454 5.570074
v 0.264671 -47.848454 5.099129
v -0.264662 -47.848454 5.099128
v 0.264671 -47.848454 5.570074
v -0.264663 -46.999977 5.570074
v -0.264662 -47.848454 5.099128
v -0.264662 -46.999977 5.099127
v -0.264662 -47.848454 5.570074
v 0.264670 -46.999977 5.570073
v -0.264662 -46.999977 5.099127
v 0.264671 -46.999977 5.099128
v -0.264663 -46.999977 5.570074
v -0.691609 -62.115093 4.954147
v 0.691621 -60.309227 4.954150
v 0.691622 -62.115101 4.954150
v -0.691610 -60.309223 4.954147
v -0.691609 -62.115093 4.954147
v 0.691623 -62.115101 4.737284
v -0.691608 -62.115093 4.737281
v 0.691622 -62.115101 4.954150
v 0.691622 -62.115101 4.954150
v 0.691622 -60.309227 4.737284
v 0.691623 -62.115101 4.737284
v 0.691621 -60.309227 4.954150
v -0.691610 -60.309223 4.954147
v -0.691608 -62.115093 4.737281
v -0.691609 -60.309223 4.737281
v -0.691609 -62.115093 4.954147
v -0.691608 -62.115093 4.737281
v 0.691622 -60.309227 4.737284
v -0.691609 -60.309223 4.737281
v 0.691623 -62.115101 4.737284
v -12.239457 -10.995888 5.244149
v -12.529469 -4.999946 5.244136
v -12.239469 -4.999945 5.244136
v -12.529457 -11.004002 5.244149
v -11.903835 -16.990070 5.244147
v -12.193186 -17.009785 5.244147
v -11.422297 -22.986811 5.244145
v -11.711123 -23.013056 5.244145
v -10.813951 -28.983004 5.244144
v -11.102007 -29.016846 5.244144
v -10.013474 -34.976593 5.244140
v -10.299816 -35.023273 5.244140
v -8.858606 -40.967896 5.244135
v -9.141597 -41.031960 5.244135
v -7.298612 -46.956512 5.244135
v -7.575669 -47.043354 5.244135
v -5.094409 -52.944942 5.244133
v -5.362951 -53.054913 5.244133
v -3.069787 -57.422207 5.244143
v -3.330215 -57.550125 5.244143
v -2.270965 -58.925369 5.244147
v -2.521550 -59.071812 5.244147
v -1.806760 -59.650669 5.244148
v -2.022055 -59.852249 5.244148
v -1.022370 -60.228661 5.244150
v -1.142360 -60.500473 5.244150
v -0.000011 -60.432014 5.244152
v -0.000011 -60.727699 5.244152
v 1.022350 -60.228661 5.244148
v 1.142336 -60.500477 5.244148
v 1.806738 -59.650673 5.244147
v 2.022032 -59.852257 5.244147
v 2.270947 -58.925369 5.244146
v 2.521526 -59.071819 5.244146
v 3.069770 -57.422207 5.244141
v 3.330194 -57.550137 5.244141
v 5.094392 -52.944946 5.244131
v 5.362935 -53.054916 5.244131
v 7.298602 -46.956520 5.244129
v 7.575658 -47.043365 5.244129
v 8.858603 -40.967911 5.244129
v 9.141593 -41.031967 5.244129
v 10.013476 -34.976604 5.244133
v 10.299818 -35.023281 5.244133
v 10.813959 -28.983011 5.244137
v 11.102014 -29.016863 5.244137
v 11.422309 -22.986820 5.244137
v 11.711135 -23.013073 5.244137
v 11.903853 -16.990082 5.244139
v 12.193204 -17.009802 5.244139
v 12.239481 -10.995901 5.244140
v 12.529481 -11.004015 5.244140
v 12.239499 -4.999959 5.244128
v 12.529499 -4.999959 5.244128
v -12.239457 -10.995888 4.954149
v -12.239469 -4.999945 5.244136
v -12.239469 -4.999947 4.954136
v -12.239457 -10.995888 5.244149
v -11.903835 -16.990070 4.954147
v -11.903835 -16.990070 5.244147
v -11.422297 -22.986811 4.954145
v -11.422297 -22.986811 5.244145
v -10.813951 -28.983004 4.954144
v -10.813951 -28.983004 5.244144
v -10.013474 -34.976593 4.954141
v -10.013474 -34.976593 5.244140
v -8.858606 -40.967896 4.954135
v -8.858606 -40.967896 5.244135
v -7.298612 -46.956512 4.954135
v -7.298612 -46.956512 5.244135
v -5.094409 -52.944942 4.954134
v -5.094409 -52.944942 5.244133
v -3.069788 -57.422207 4.954143
v -3.069787 -57.422207 5.244143
v -2.270965 -58.925369 4.954147
v -2.270965 -58.925369 5.244147
v -1.806760 -59.650669 4.954148
v -1.806760 -59.650669 5.244148
v -12.529457 -11.004002 4.954149
v -12.239469 -4.999947 4.954136
v -12.529469 -4.999948 4.954136
v -12.239457 -10.995888 4.954149
v -12.193186 -17.009785 4.954147
v -11.903835 -16.990070 4.954147
v -11.711123 -23.013056 4.954145
v -11.422297 -22.986811 4.954145
v -11.102007 -29.016846 4.954144
v -10.813951 -28.983004 4.954144
v -10.299816 -35.023273 4.954141
v -10.013474 -34.976593 4.954141
v -9.141597 -41.031960 4.954135
v -8.858606 -40.967896 4.954135
v -7.575669 -47.043354 4.954135
v -7.298612 -46.956512 4.954135
v -5.362951 -53.054913 4.954134
v -5.094409 -52.944942 4.954134
v -3.330215 -57.550125 4.954143
v -3.069788 -57.422207 4.954143
v -2.521550 -59.071812 4.954147
v -2.270965 -58.925369 4.954147
v -2.022055 -59.852249 4.954148
v -1.806760 -59.650669 4.954148
v -1.142360 -60.500473 4.954150
v -1.022370 -60.228661 4.954150
v -0.000011 -60.727699 4.954151
v -0.000011 -60.432014 4.954151
v 1.142336 -60.500477 4.954148
v 1.022350 -60.228661 4.954148
v 2.022033 -59.852257 4.954147
v 1.806739 -59.650673 4.954147
v 2.521526 -59.071819 4.954146
v 2.270947 -58.925369 4.954146
v 3.330194 -57.550137 4.954141
v 3.069770 -57.422207 4.954141
v 5.362935 -53.054916 4.954131
v 5.094392 -52.944946 4.954131
v 7.575658 -47.043365 4.954130
v 7.298602 -46.956520 4.954130
v 9.141593 -41.031967 4.954129
v 8.858603 -40.967911 4.954129
v 10.299818 -35.023281 4.954134
v 10.013476 -34.976604 4.954134
v 11.102014 -29.016863 4.954137
v 10.813959 -28.983011 4.954137
v 11.711135 -23.013073 4.954137
v 11.422309 -22.986820 4.954137
v 12.193204 -17.009802 4.954139
v 11.903853 -16.990082 4.954139
v 12.529481 -11.004015 4.954140
v 12.239481 -10.995901 4.954140
v 12.529499 -4.999959 4.954128
v 12.239499 -4.999959 4.954128
v -12.529457 -11.004002 5.244149
v -12.529469 -4.999948 4.954136
v -12.529469 -4.999946 5.244136
v -12.529457 -11.004002 4.954149
v -12.193186 -17.009785 5.244147
v -12.193186 -17.009785 4.954147
v -11.711123 -23.013056 5.244145
v -11.711123 -23.013056 4.954145
v -11.102007 -29.016846 5.244144
v -11.102007 -29.016846 4.954144
v -10.299816 -35.023273 5.244140
v -10.299816 -35.023273 4.954141
v -9.141597 -41.031960 5.244135
v -9.141597 -41.031960 4.954135
v -7.575669 -47.043354 5.244135
v -7.575669 -47.043354 4.954135
v -5.362951 -53.054913 5.244133
v -5.362951 -53.054913 4.954134
v -3.330215 -57.550125 5.244143
v -3.330215 -57.550125 4.954143
v -2.521550 -59.071812 5.244147
v -2.521550 -59.071812 4.954147
v -2.022055 -59.852249 5.244148
v -2.022055 -59.852249 4.954148
v -1.022370 -60.228661 4.954150
v -1.806760 -59.650669 5.244148
v -1.806760 -59.650669 4.954148
v -1.022370 -60.228661 5.244150
v -0.000011 -60.432014 4.954151
v -0.000011 -60.432014 5.244152
v 1.022350 -60.228661 4.954148
v 1.022350 -60.228661 5.244148
v 1.806739 -59.650673 4.954147
v 1.806738 -59.650673 5.244147
v -1.142360 -60.500473 5.244150
v -2.022055 -59.852249 4.954148
v -2.022055 -59.852249 5.244148
v -1.142360 -60.500473 4.954150
v -0.000011 -60.727699 5.244152
v -0.000011 -60.727699 4.954151
v 1.142336 -60.500477 5.244148
v 1.142336 -60.500477 4.954148
v 2.022032 -59.852257 5.244147
v 2.022033 -59.852257 4.954147
v 2.270947 -58.925369 4.954146
v 1.806738 -59.650673 5.244147
v 1.806739 -59.650673 4.954147
v 2.270947 -58.925369 5.244146
v 3.069770 -57.422207 4.954141
v 3.069770 -57.422207 5.244141
v 5.094392 -52.944946 4.954131
v 5.094392 -52.944946 5.244131
v 7.298602 -46.956520 4.954130
v 7.298602 -46.956520 5.244129
v 8.858603 -40.967911 4.954129
v 8.858603 -40.967911 5.244129
v 10.013476 -34.976604 4.954134
v 10.013476 -34.976604 5.244133
v 10.813959 -28.983011 4.954137
v 10.813959 -28.983011 5.244137
v 11.422309 -22.986820 4.954137
v 11.422309 -22.986820 5.244137
v 11.903853 -16.990082 4.954139
v 11.903853 -16.990082 5.244139
v 12.239481 -10.995901 4.954140
v 12.239481 -10.995901 5.244140
v 12.239499 -4.999959 4.954128
v 12.239499 -4.999959 5.244128
v 2.521526 -59.071819 5.244146
v 2.022033 -59.852257 4.954147
v 2.022032 -59.852257 5.244147
v 2.521526 -59.071819 4.954146
v 3.330194 -57.550137 5.244141
v 3.330194 -57.550137 4.954141
v 5.362935 -53.054916 5.244131
v 5.362935 -53.054916 4.954131
v 7.575658 -47.043365 5.244129
v 7.575658 -47.043365 4.954130
v 9.141593 -41.031967 5.244129
v 9.141593 -41.031967 4.954129
v 10.299818 -35.023281 5.244133
v 10.299818 -35.023281 4.954134
v 11.102014 -29.016863 5.244137
v 11.102014 -29.016863 4.954137
v 11.711135 -23.013073 5.244137
v 11.711135 -23.013073 4.954137
v 12.193204 -17.009802 5.244139
v 12.193204 -17.009802 4.954139
v 12.529481 -11.004015 5.244140
v 12.529481 -11.004015 4.954140
v 12.529499 -4.999959 5.244128
v 12.529499 -4.999959 4.954128
v -1.055909 -46.592144 5.470922
v 0.000043 -43.359997 5.725355
v 0.000043 -46.592144 5.725358
v -1.055909 -43.359997 5.470920
v -1.055909 -43.359997 5.470920
v -1.055908 -46.592144 5.099144
v -1.055908 -43.359997 5.099143
v -1.055909 -46.592144 5.470922
v 0.000044 -43.359997 5.099142
v -1.055909 -43.359997 5.470920
v -1.055908 -43.359997 5.099143
v 0.000043 -43.359997 5.725355
v 1.055995 -43.359997 5.470918
v 1.055996 -43.359997 5.099141
v 0.000043 -46.592144 5.725358
v -1.055908 -46.592144 5.099144
v -1.055909 -46.592144 5.470922
v 0.000044 -46.592144 5.099144
v 1.055996 -46.592144 5.099144
v 1.055995 -46.592144 5.470921
v 1.055995 -46.592144 5.470921
v 0.000043 -43.359997 5.725355
v 1.055995 -43.359997 5.470918
v 0.000043 -46.592144 5.725358
v 1.055995 -43.359997 5.470918
v 1.055996 -46.592144 5.099144
v 1.055995 -46.592144 5.470921
v 1.055996 -43.359997 5.099141
v 1.230370 -41.372807 5.514734
v -1.230335 -42.909290 5.514734
v -1.230349 -41.372807 5.514733
v 1.230379 -42.909290 5.514731
v 1.230371 -41.372807 5.099133
v 1.230379 -42.909290 5.514731
v 1.230370 -41.372807 5.514734
v 1.230380 -42.909290 5.099132
v 1.230380 -42.909290 5.099132
v -1.230335 -42.909290 5.514734
v 1.230379 -42.909290 5.514731
v -1.230335 -42.909290 5.099133
v -1.230335 -42.909290 5.099133
v -1.230349 -41.372807 5.514733
v -1.230335 -42.909290 5.514734
v -1.230348 -41.372807 5.099133
v -1.230348 -41.372807 5.099133
v 1.230370 -41.372807 5.514734
v -1.230349 -41.372807 5.514733
v 1.230371 -41.372807 5.099133
v 0.144003 -59.937687 4.880482
v 0.048219 -60.345196 10.588389
v 0.069684 -59.809444 4.891702
v 0.101064 -60.436375 10.580413
v 0.069685 -60.065907 4.869265
v 0.048219 -60.527557 10.572434
v 0.069684 -59.809444 4.891702
v -0.057471 -60.345196 10.588389
v -0.078952 -59.809444 4.891702
v 0.048219 -60.345196 10.588389
v -0.110316 -60.436375 10.580413
v -0.078952 -59.809444 4.891702
v -0.057471 -60.345196 10.588389
v -0.153270 -59.937687 4.880482
v -0.057471 -60.527557 10.572434
v -0.078952 -60.065907 4.869265
v -0.078952 -60.065907 4.869265
v 0.048219 -60.527557 10.572434
v 0.069685 -60.065907 4.869265
v -0.057471 -60.527557 10.572434
v 0.048219 -60.345196 10.588389
v -0.110316 -60.436375 10.580413
v -0.057471 -60.345196 10.588389
v 0.048219 -60.527557 10.572434
v 0.101064 -60.436375 10.580413
v -0.057471 -60.527557 10.572434
v 0.089494 -58.896992 4.845983
v 0.032294 -60.216953 8.659497
v 0.042426 -58.820831 4.875043
v 0.069213 -60.277287 8.638291
v 0.042433 -58.973164 4.816919
v 0.032291 -60.337627 8.617085
v 0.042426 -58.820831 4.875043
v -0.041551 -60.216953 8.659495
v -0.051696 -58.820831 4.875043
v 0.032294 -60.216953 8.659497
v -0.078470 -60.277287 8.638289
v -0.051696 -58.820831 4.875043
v -0.041551 -60.216953 8.659495
v -0.098764 -58.896992 4.845983
v -0.041548 -60.337627 8.617085
v -0.051702 -58.973164 4.816919
v -0.051702 -58.973164 4.816919
v 0.032291 -60.337627 8.617085
v 0.042433 -58.973164 4.816919
v -0.041548 -60.337627 8.617085
v -4.552846 -52.999947 5.261765
v -4.017226 -52.999947 5.261765
v -4.481087 -53.267757 5.261765
v -4.481086 -52.732140 5.261765
v -4.285037 -53.463810 5.261765
v -4.285036 -52.536087 5.261765
v -4.017227 -53.535564 5.261765
v -4.017226 -52.464325 5.261765
v -3.749416 -53.463810 5.261764
v -3.749416 -52.536087 5.261764
v -3.553366 -53.267757 5.261764
v -3.553365 -52.732140 5.261764
v -3.481606 -52.999947 5.261763
v 4.552846 -52.999954 5.261763
v 4.481086 -53.267765 5.261763
v 4.017225 -52.999954 5.261762
v 4.481088 -52.732143 5.261763
v 4.285037 -53.463814 5.261763
v 4.285037 -52.536095 5.261763
v 4.017227 -53.535576 5.261762
v 4.017227 -52.464336 5.261762
v 3.749419 -53.463814 5.261761
v 3.749418 -52.536095 5.261761
v 3.553367 -53.267765 5.261761
v 3.553366 -52.732143 5.261761
v 3.481608 -52.999954 5.261761
vn -0.0000 -0.0000 1.0000
vn -1.0000 -0.0000 -0.0000
vn -0.0000 1.0000 -0.0000
vn 1.0000 -0.0000 -0.0000
vn -0.0000 -1.0000 -0.0000
vn -0.8661 -0.5000 -0.0000
vn -0.8661 0.5000 -0.0000
vn -0.8660 -0.5000 -0.0000
vn -0.5000 -0.8660 -0.0000
vn 0.5000 -0.8660 -0.0000
vn 0.8660 -0.5001 -0.0000
vn 0.8661 -0.5000 -0.0000
vn 0.8661 0.5000 -0.0000
vn 0.8660 0.5001 -0.0000
vn 0.5000 0.8660 -0.0000
vn -0.5000 0.8660 -0.0000
vn -0.8660 0.5000 -0.0000
vn -0.8660 0.5001 -0.0000
vn 0.8661 -0.4999 -0.0000
vn 0.8661 0.4999 -0.0000
vn -0.8660 -0.5001 -0.0000
vn -0.8660 -0.5001 -0.0001
vn -0.8661 -0.4999 -0.0000
vn 0.8660 0.5000 -0.0000
vn -0.0000 -0.0000 -1.0000
vn 0.9996 0.0280 -0.0000
vn 0.9977 0.0680 -0.0000
vn 0.9959 0.0905 -0.0000
vn 0.9932 0.1167 -0.0000
vn 0.9870 0.1609 -0.0000
vn 0.9753 0.2208 -0.0000
vn 0.9542 0.2991 -0.0000
vn 0.9254 0.3790 -0.0000
vn 0.8976 0.4409 -0.0000
vn 0.8634 0.5046 -0.0000
vn 0.7300 0.6835 -0.0000
vn -0.9996 -0.0280 -0.0000
vn -0.9977 -0.0680 -0.0000
vn -0.9959 -0.0905 -0.0000
vn -0.9932 -0.1167 -0.0000
vn -0.9870 -0.1609 -0.0000
vn -0.9753 -0.2208 -0.0000
vn -0.9542 -0.2991 -0.0000
vn -0.9254 -0.3790 -0.0000
vn -0.8976 -0.4409 -0.0000
vn -0.8634 -0.5046 -0.0000
vn -0.7300 -0.6835 -0.0000
vn 0.7299 0.6835 -0.0000
vn 0.4038 0.9148 -0.0000
vn -0.4038 0.9148 -0.0000
vn -0.7299 0.6835 -0.0000
vn -0.7299 -0.6835 -0.0000
vn -0.4038 -0.9148 -0.0000
vn 0.4038 -0.9148 -0.0000
vn 0.7299 -0.6835 0.0001
vn 0.7299 -0.6835 -0.0000
vn -0.7300 0.6835 -0.0000
vn -0.8634 0.5046 -0.0000
vn -0.8976 0.4409 -0.0000
vn -0.9254 0.3790 -0.0000
vn -0.9542 0.2991 -0.0000
vn -0.9753 0.2208 -0.0000
vn -0.9870 0.1609 -0.0000
vn -0.9932 0.1167 -0.0000
vn -0.9959 0.0905 -0.0000
vn -0.9977 0.0680 -0.0000
vn -0.9996 0.0280 -0.0000
vn 0.7300 -0.6835 -0.0000
vn 0.8634 -0.5046 -0.0000
vn 0.8976 -0.4409 -0.0000
vn 0.9254 -0.3790 -0.0000
vn 0.9542 -0.2991 -0.0000
vn 0.9753 -0.2208 -0.0000
vn 0.9870 -0.1609 -0.0000
vn 0.9932 -0.1167 -0.0000
vn 0.9959 -0.0905 -0.0000
vn 0.9977 -0.0680 -0.0000
vn 0.9996 -0.0280 -0.0000
vn -0.2343 -0.0000 0.9722
vn -0.2342 -0.0000 0.9722
vn 0.2343 -0.0000 0.9722
vn 0.5000 0.8620 0.0829
vn 0.4999 0.8621 0.0830
vn 1.0000 -0.0007 0.0075
vn 0.5000 -0.8633 -0.0680
vn 0.4999 -0.8634 -0.0680
vn -0.5000 0.8621 0.0829
vn -0.5000 0.8621 0.0830
vn 0.5000 0.8621 0.0829
vn 0.5000 0.8621 0.0830
vn -0.5000 0.8620 0.0830
vn -0.4999 0.8621 0.0829
vn -1.0000 -0.0007 0.0075
vn -0.5000 -0.8634 -0.0680
vn 0.5000 -0.8634 -0.0680
vn -0.0000 -0.0872 0.9962
vn 0.5021 0.8109 0.3005
vn 0.5015 0.8112 0.3007
vn 1.0000 -0.0064 0.0030
vn 1.0000 -0.0050 0.0035
vn 0.4978 -0.8167 -0.2919
vn 0.4985 -0.8163 -0.2918
vn -0.5021 0.8109 0.3005
vn -0.5016 0.8112 0.3006
vn 0.5014 0.8113 0.3006
vn -0.5014 0.8113 0.3006
vn -0.5022 0.8109 0.3005
vn -1.0000 -0.0050 0.0035
vn -1.0000 -0.0064 0.0030
vn -0.4985 -0.8163 -0.2918
vn -0.4978 -0.8167 -0.2919
vt 0.575682 -18.075621
vt 0.575682 -18.052338
vt 0.561139 -18.075621
vt 0.561139 -18.052338
vt -18.075621 0.292514
vt -18.052338 0.292514
vt -18.075621 0.296140
vt -18.052338 0.296140
vt 0.561139 0.292514
vt 0.575682 0.292514
vt 0.561139 0.296140
vt 0.575682 0.296140
vt 19.052338 0.292514
vt 19.075621 0.292514
vt 19.052338 0.296140
vt 19.075621 0.296140
vt 0.424318 0.292514
vt 0.438861 0.292514
vt 0.424318 0.296140
vt 0.438861 0.296140
vt -18.022579 0.292514
vt -18.022579 0.294969
vt -18.026638 0.292514
vt -18.026638 0.294969
vt -18.030697 0.292514
vt -18.030697 0.294969
vt 0.432569 0.294969
vt 0.432569 0.292514
vt 0.435522 0.294969
vt 0.435522 0.292514
vt 0.439555 0.294969
vt 0.439555 0.292514
vt 0.443588 0.294969
vt 0.443588 0.292514
vt 0.446540 0.294969
vt 0.446540 0.292514
vt 19.022579 0.294969
vt 19.022579 0.292514
vt 19.026638 0.294969
vt 19.026638 0.292514
vt 19.030695 0.294969
vt 19.030695 0.292514
vt 0.553460 0.294969
vt 0.553460 0.292514
vt 0.556412 0.294969
vt 0.556412 0.292514
vt 0.560445 0.294969
vt 0.560445 0.292514
vt 0.564478 0.294969
vt 0.564478 0.292514
vt 0.567431 0.294969
vt 0.567431 0.292514
vt 0.592321 -18.117558
vt 0.592321 -18.094275
vt 0.583421 -18.117558
vt 0.583421 -18.094275
vt -18.117558 0.292514
vt -18.094275 0.292514
vt -18.117558 0.297213
vt -18.094275 0.297213
vt 0.583421 0.292514
vt 0.592321 0.292514
vt 0.583421 0.297213
vt 0.592321 0.297213
vt 19.094275 0.292514
vt 19.117558 0.292514
vt 19.094275 0.297213
vt 19.117558 0.297213
vt 0.407679 0.292514
vt 0.416579 0.292514
vt 0.407679 0.297213
vt 0.416579 0.297213
vt 0.438758 -18.052338
vt 0.424215 -18.052338
vt 0.438758 -18.075621
vt 0.424215 -18.075621
vt 0.424215 0.296140
vt 0.424215 0.292514
vt 0.438758 0.296140
vt 0.438758 0.292514
vt -18.075621 0.296140
vt -18.075621 0.292514
vt -18.052338 0.296140
vt -18.052338 0.292514
vt 0.561242 0.296140
vt 0.561242 0.292514
vt 0.575785 0.296140
vt 0.575785 0.292514
vt 0.567533 0.294969
vt 0.564581 0.294969
vt 0.567533 0.292514
vt 0.564581 0.292514
vt 0.560548 0.294969
vt 0.560548 0.292514
vt 0.556515 0.294969
vt 0.556515 0.292514
vt 0.553562 0.294969
vt 0.553562 0.292514
vt -18.022579 0.294969
vt -18.026638 0.294969
vt -18.022579 0.292514
vt -18.026638 0.292514
vt -18.030695 0.294969
vt -18.030695 0.292514
vt 0.446438 0.294969
vt 0.443485 0.294969
vt 0.446438 0.292514
vt 0.443485 0.292514
vt 0.439452 0.294969
vt 0.439452 0.292514
vt 0.435419 0.294969
vt 0.435419 0.292514
vt 0.432467 0.294969
vt 0.432467 0.292514
vt 0.416476 -18.094275
vt 0.407576 -18.094275
vt 0.416476 -18.117558
vt 0.407576 -18.117558
vt 19.094275 0.297213
vt 19.094275 0.292514
vt 19.117558 0.297213
vt 19.117558 0.292514
vt 0.407576 0.297213
vt 0.407576 0.292514
vt 0.416476 0.297213
vt 0.416476 0.292514
vt -18.117558 0.297213
vt -18.117558 0.292514
vt -18.094275 0.297213
vt -18.094275 0.292514
vt 0.583524 0.297213
vt 0.583524 0.292514
vt 0.592424 0.297213
vt 0.592424 0.292514
vt 19.070461 0.294548
vt 19.070461 0.292514
vt 19.097898 0.294548
vt 19.097898 0.292514
vt 0.540543 -18.070459
vt 0.459354 -18.070461
vt 0.540543 -18.097898
vt 0.459354 -18.097898
vt 0.459354 0.292514
vt 0.540543 0.292514
vt 0.459354 0.294548
vt 0.540543 0.294548
vt 0.459457 0.292514
vt 0.540646 0.292514
vt 0.459457 0.294548
vt 0.540646 0.294548
vt -18.097898 0.292514
vt -18.070459 0.292514
vt -18.097898 0.294548
vt -18.070459 0.294548
vt 0.503934 -18.087343
vt 0.503934 -18.074486
vt 0.495963 -18.087343
vt 0.495963 -18.074486
vt 19.074486 0.294548
vt 19.087343 0.294548
vt 19.074486 0.299623
vt 19.087343 0.299623
vt 0.496066 0.294548
vt 0.504037 0.294548
vt 0.496066 0.299623
vt 0.504037 0.299623
vt -18.087343 0.294548
vt -18.074486 0.294548
vt -18.087343 0.299623
vt -18.074486 0.299623
vt 0.495963 0.294548
vt 0.503934 0.294548
vt 0.495963 0.299623
vt 0.503934 0.299623
vt 0.503934 -18.117558
vt 0.503934 -18.104700
vt 0.495963 -18.117558
vt 0.495963 -18.104700
vt 19.104700 0.292514
vt 19.117558 0.292514
vt 19.104700 0.299623
vt 19.117558 0.299623
vt 0.496066 0.292514
vt 0.504037 0.292514
vt 0.496066 0.299623
vt 0.504037 0.299623
vt -18.117558 0.292514
vt -18.104700 0.292514
vt -18.117558 0.299623
vt -18.104700 0.299623
vt 0.495963 0.292514
vt 0.503934 0.292514
vt 0.495963 0.299623
vt 0.503934 0.299623
vt 0.489534 -17.888514
vt 0.489534 -17.915878
vt 0.510364 -17.888514
vt 0.510364 -17.915878
vt 0.489636 0.287052
vt 0.510466 0.287052
vt 0.489636 0.290326
vt 0.510466 0.290326
vt 18.888514 0.287052
vt 18.915878 0.287052
vt 18.888514 0.290326
vt 18.915878 0.290326
vt -17.915878 0.287052
vt -17.888514 0.287052
vt -17.915878 0.290326
vt -17.888514 0.290326
vt 0.489636 -17.915878
vt 0.510466 -17.915878
vt 0.489636 -17.888514
vt 0.510466 -17.888514
vt 0.684264 -18.753998
vt 0.688631 -18.753998
vt 0.684264 -18.663139
vt 0.688631 -18.663017
vt 0.679210 -18.572308
vt 0.683568 -18.572008
vt 0.671959 -18.481438
vt 0.676308 -18.481039
vt 0.662798 -18.390575
vt 0.667136 -18.390062
vt 0.650744 -18.299751
vt 0.655056 -18.299044
vt 0.633352 -18.208963
vt 0.637614 -18.207993
vt 0.609860 -18.118216
vt 0.614032 -18.116899
vt 0.576667 -18.027472
vt 0.580711 -18.025805
vt 0.546178 -17.959625
vt 0.550099 -17.957687
vt 0.534148 -17.936848
vt 0.537922 -17.934629
vt 0.527157 -17.925858
vt 0.530400 -17.922802
vt 0.515345 -17.917099
vt 0.517152 -17.912979
vt 0.499949 -17.914017
vt 0.499949 -17.909536
vt 0.484553 -17.917099
vt 0.482746 -17.912979
vt 0.472741 -17.925858
vt 0.469499 -17.922802
vt 0.465750 -17.936848
vt 0.461977 -17.934629
vt 0.453720 -17.959625
vt 0.449799 -17.957687
vt 0.423231 -18.027472
vt 0.419187 -18.025805
vt 0.390037 -18.118216
vt 0.385864 -18.116899
vt 0.366544 -18.208963
vt 0.362282 -18.207993
vt 0.349152 -18.299751
vt 0.344840 -18.299044
vt 0.337097 -18.390574
vt 0.332759 -18.390060
vt 0.327936 -18.481436
vt 0.323586 -18.481039
vt 0.320684 -18.572308
vt 0.316326 -18.572008
vt 0.315629 -18.663139
vt 0.311262 -18.663015
vt 0.315628 -18.753998
vt 0.311261 -18.753998
vt 19.753998 0.290325
vt 19.753998 0.294703
vt 19.663139 0.290326
vt 19.663139 0.294703
vt 19.572308 0.290326
vt 19.572308 0.294703
vt 19.481438 0.290326
vt 19.481438 0.294703
vt 19.390575 0.290326
vt 19.390575 0.294703
vt 19.299751 0.290325
vt 19.299751 0.294703
vt 19.208963 0.290325
vt 19.208963 0.294703
vt 19.118216 0.290325
vt 19.118216 0.294703
vt 19.027472 0.290325
vt 19.027472 0.294703
vt 18.959625 0.290325
vt 18.959625 0.294703
vt 18.936848 0.290326
vt 18.936848 0.294703
vt 18.925858 0.290326
vt 18.925858 0.294703
vt 0.311369 -18.753998
vt 0.315736 -18.753998
vt 0.311369 -18.663017
vt 0.315736 -18.663139
vt 0.316432 -18.572008
vt 0.320790 -18.572308
vt 0.323692 -18.481039
vt 0.328041 -18.481438
vt 0.332864 -18.390062
vt 0.337202 -18.390575
vt 0.344944 -18.299044
vt 0.349256 -18.299751
vt 0.362386 -18.207993
vt 0.366648 -18.208963
vt 0.385968 -18.116899
vt 0.390140 -18.118216
vt 0.419289 -18.025805
vt 0.423333 -18.027472
vt 0.449901 -17.957687
vt 0.453822 -17.959625
vt 0.462078 -17.934629
vt 0.465852 -17.936848
vt 0.469600 -17.922802
vt 0.472843 -17.925858
vt 0.482848 -17.912979
vt 0.484655 -17.917099
vt 0.500051 -17.909536
vt 0.500051 -17.914017
vt 0.517254 -17.912979
vt 0.515447 -17.917099
vt 0.530501 -17.922802
vt 0.527259 -17.925858
vt 0.538023 -17.934629
vt 0.534250 -17.936848
vt 0.550201 -17.957687
vt 0.546280 -17.959625
vt 0.580813 -18.025805
vt 0.576769 -18.027472
vt 0.614136 -18.116899
vt 0.609963 -18.118216
vt 0.637718 -18.207993
vt 0.633456 -18.208963
vt 0.655160 -18.299044
vt 0.650848 -18.299751
vt 0.667241 -18.390060
vt 0.662903 -18.390574
vt 0.676414 -18.481039
vt 0.672064 -18.481436
vt 0.683674 -18.572008
vt 0.679316 -18.572308
vt 0.688738 -18.663015
vt 0.684371 -18.663139
vt 0.688739 -18.753998
vt 0.684371 -18.753998
vt -18.753998 0.294703
vt -18.753998 0.290325
vt -18.663017 0.294703
vt -18.663017 0.290326
vt -18.572008 0.294703
vt -18.572008 0.290326
vt -18.481039 0.294703
vt -18.481039 0.290326
vt -18.390062 0.294703
vt -18.390062 0.290326
vt -18.299044 0.294703
vt -18.299044 0.290325
vt -18.207993 0.294703
vt -18.207993 0.290325
vt -18.116899 0.294703
vt -18.116899 0.290325
vt -18.025805 0.294703
vt -18.025805 0.290325
vt -17.957687 0.294703
vt -17.957687 0.290325
vt -17.934629 0.294703
vt -17.934629 0.290326
vt -17.922802 0.294703
vt -17.922802 0.290326
vt 0.527157 0.290326
vt 0.527157 0.294703
vt 0.515345 0.290326
vt 0.515345 0.294703
vt 0.499949 0.290326
vt 0.499949 0.294703
vt 0.484553 0.290326
vt 0.484553 0.294703
vt 0.472741 0.290326
vt 0.472741 0.294703
vt 0.469600 0.294703
vt 0.469600 0.290326
vt 0.482848 0.294703
vt 0.482848 0.290326
vt 0.500051 0.294703
vt 0.500051 0.290326
vt 0.517254 0.294703
vt 0.517254 0.290326
vt 0.530501 0.294703
vt 0.530501 0.290326
vt -17.925858 0.290326
vt -17.925858 0.294703
vt -17.936848 0.290326
vt -17.936848 0.294703
vt -17.959625 0.290325
vt -17.959625 0.294703
vt -18.027472 0.290325
vt -18.027472 0.294703
vt -18.118216 0.290325
vt -18.118216 0.294703
vt -18.208963 0.290325
vt -18.208963 0.294703
vt -18.299751 0.290325
vt -18.299751 0.294703
vt -18.390574 0.290325
vt -18.390574 0.294703
vt -18.481436 0.290325
vt -18.481436 0.294703
vt -18.572308 0.290325
vt -18.572308 0.294703
vt -18.663139 0.290325
vt -18.663139 0.294703
vt -18.753998 0.290325
vt -18.753998 0.294703
vt 18.922802 0.294703
vt 18.922802 0.290326
vt 18.934629 0.294703
vt 18.934629 0.290326
vt 18.957687 0.294703
vt 18.957687 0.290325
vt 19.025805 0.294703
vt 19.025805 0.290325
vt 19.116899 0.294703
vt 19.116899 0.290325
vt 19.207993 0.294703
vt 19.207993 0.290325
vt 19.299044 0.294703
vt 19.299044 0.290325
vt 19.390060 0.294703
vt 19.390060 0.290325
vt 19.481039 0.294703
vt 19.481039 0.290325
vt 19.572008 0.294703
vt 19.572008 0.290325
vt 19.663015 0.294703
vt 19.663015 0.290325
vt 19.753998 0.294703
vt 19.753998 0.290325
vt 0.499948 -18.123737
vt 0.499948 -18.172714
vt 0.515850 -18.123737
vt 0.515849 -18.172714
vt -18.172714 0.292514
vt -18.123737 0.292514
vt -18.172714 0.298126
vt -18.123737 0.298126
vt 0.515849 0.292514
vt 0.515849 0.298126
vt 0.499948 0.292514
vt 0.499948 0.301967
vt 0.484046 0.298126
vt 0.484046 0.292514
vt 0.484150 0.298126
vt 0.484150 0.292514
vt 0.500052 0.301967
vt 0.500052 0.292514
vt 0.515954 0.292514
vt 0.515954 0.298126
vt 0.484046 -18.172714
vt 0.484046 -18.123737
vt 19.123737 0.298126
vt 19.123737 0.292514
vt 19.172714 0.298126
vt 19.172714 0.292514
vt 0.518476 -18.202827
vt 0.518476 -18.179544
vt 0.481420 -18.202827
vt 0.481420 -18.179544
vt 19.202827 0.298787
vt 19.179544 0.298787
vt 19.202827 0.292514
vt 19.179544 0.292514
vt 0.518580 0.298787
vt 0.481524 0.298787
vt 0.518580 0.292514
vt 0.481524 0.292514
vt -18.179544 0.298787
vt -18.202827 0.298787
vt -18.179544 0.292514
vt -18.202827 0.292514
vt 0.518476 0.298787
vt 0.481420 0.298787
vt 0.518476 0.292514
vt 0.481420 0.292514
vt 18.923450 0.289383
vt 18.915333 0.375372
vt 18.921509 0.289214
vt 18.913952 0.375251
vt 18.919565 0.289044
vt 18.912569 0.375131
vt 0.501138 0.289383
vt 0.500814 0.375372
vt 0.498900 0.289383
vt 0.499223 0.375372
vt -17.915333 0.375372
vt -17.923450 0.289383
vt -17.913952 0.375251
vt -17.921509 0.289214
vt -17.912569 0.375131
vt -17.919565 0.289044
vt 0.501100 0.289044
vt 0.500777 0.375131
vt 0.498862 0.289044
vt 0.499186 0.375131
vt 0.500814 -17.915333
vt 0.501610 -17.913952
vt 0.499223 -17.915333
vt 0.499223 -17.912569
vt 0.498427 -17.913952
vt 0.500814 -17.912569
vt 18.938433 0.289132
vt 18.917276 0.346256
vt 18.937279 0.288693
vt 18.916361 0.345936
vt 18.936123 0.288254
vt 18.915447 0.345616
vt 0.500727 0.289132
vt 0.500575 0.346256
vt 0.499310 0.289132
vt 0.499463 0.346256
vt -17.917276 0.346256
vt -17.938433 0.289132
vt -17.916361 0.345936
vt -17.937279 0.288693
vt -17.915447 0.345616
vt -17.936123 0.288254
vt 0.500690 0.288254
vt 0.500537 0.345616
vt 0.499272 0.288254
vt 0.499425 0.345616
vt 0.567431 -18.022579
vt 0.560445 -18.026638
vt 0.568511 -18.026638
vt 0.567431 -18.030697
vt 0.564478 -18.019609
vt 0.564478 -18.033667
vt 0.560445 -18.018520
vt 0.560445 -18.034754
vt 0.556412 -18.019609
vt 0.556412 -18.033667
vt 0.553460 -18.022579
vt 0.553460 -18.030695
vt 0.552379 -18.026638
vt 0.439452 -18.026638
vt 0.432467 -18.022579
vt 0.431386 -18.026638
vt 0.432467 -18.030695
vt 0.435419 -18.019609
vt 0.435419 -18.033667
vt 0.439452 -18.018520
vt 0.439452 -18.034754
vt 0.443485 -18.019609
vt 0.443485 -18.033667
vt 0.446438 -18.022579
vt 0.446438 -18.030695
vt 0.447518 -18.026638
s 1
g Bsh_Hull_Stern_Dredn_AD1_002_5_steel_4
usemtl steel_4
f 3/1/1 2/2/1 1/3/1
f 4/4/1 1/3/1 2/2/1
f 7/5/2 6/6/2 5/7/2
f 8/8/2 5/7/2 6/6/2
f 11/9/3 10/10/3 9/11/3
f 12/12/3 9/11/3 10/10/3
f 15/13/4 14/14/4 13/15/4
f 16/16/4 13/15/4 14/14/4
f 19/17/5 18/18/5 17/19/5
f 20/20/5 17/19/5 18/18/5
f 23/21/6 22/22/6 21/23/2
f 24/24/2 21/23/2 22/22/6
f 21/23/2 24/24/2 25/25/7
f 26/26/7 25/25/7 24/24/2
f 29/27/8 28/28/8 27/29/9
f 30/30/9 27/29/9 28/28/8
f 27/29/9 30/30/9 31/31/5
f 32/32/5 31/31/5 30/30/9
f 31/31/5 32/32/5 33/33/10
f 34/34/10 33/33/10 32/32/5
f 33/33/10 34/34/10 35/35/11
f 36/36/11 35/35/11 34/34/10
f 39/37/12 38/38/12 37/39/4
f 40/40/4 37/39/4 38/38/12
f 37/39/4 40/40/4 41/41/13
f 42/42/13 41/41/13 40/40/4
f 45/43/14 44/44/14 43/45/15
f 46/46/15 43/45/15 44/44/14
f 43/45/15 46/46/15 47/47/3
f 48/48/3 47/47/3 46/46/15
f 47/47/3 48/48/3 49/49/16
f 50/50/16 49/49/16 48/48/3
f 49/49/16 50/50/16 51/51/17
f 52/52/18 51/51/17 50/50/16
f 55/53/1 54/54/1 53/55/1
f 56/56/1 53/55/1 54/54/1
f 59/57/2 58/58/2 57/59/2
f 60/60/2 57/59/2 58/58/2
f 63/61/3 62/62/3 61/63/3
f 64/64/3 61/63/3 62/62/3
f 67/65/4 66/66/4 65/67/4
f 68/68/4 65/67/4 66/66/4
f 71/69/5 70/70/5 69/71/5
f 72/72/5 69/71/5 70/70/5
f 75/73/1 74/74/1 73/75/1
f 76/76/1 73/75/1 74/74/1
f 79/15/4 78/13/4 77/16/4
f 80/14/4 77/16/4 78/13/4
f 83/77/3 82/78/3 81/79/3
f 84/80/3 81/79/3 82/78/3
f 87/81/2 86/82/2 85/83/2
f 88/84/2 85/83/2 86/82/2
f 91/85/5 90/86/5 89/87/5
f 92/88/5 89/87/5 90/86/5
f 95/38/19 94/40/4 93/37/19
f 96/39/4 93/37/19 94/40/4
f 94/40/4 97/42/20 96/39/4
f 98/41/20 96/39/4 97/42/20
f 101/89/11 100/90/10 99/91/11
f 102/92/10 99/91/11 100/90/10
f 100/90/10 103/93/5 102/92/10
f 104/94/5 102/92/10 103/93/5
f 103/93/5 105/95/9 104/94/5
f 106/96/9 104/94/5 105/95/9
f 105/95/9 107/97/21 106/96/9
f 108/98/22 106/96/9 107/97/21
f 111/99/23 110/100/2 109/101/23
f 112/102/2 109/101/23 110/100/2
f 110/100/2 113/103/7 112/102/2
f 114/104/7 112/102/2 113/103/7
f 117/105/17 116/106/16 115/107/17
f 118/108/16 115/107/17 116/106/16
f 116/106/16 119/109/3 118/108/16
f 120/110/3 118/108/16 119/109/3
f 119/109/3 121/111/15 120/110/3
f 122/112/15 120/110/3 121/111/15
f 121/111/15 123/113/24 122/112/15
f 124/114/24 122/112/15 123/113/24
f 127/115/1 126/116/1 125/117/1
f 128/118/1 125/117/1 126/116/1
f 131/119/4 130/120/4 129/121/4
f 132/122/4 129/121/4 130/120/4
f 135/123/3 134/124/3 133/125/3
f 136/126/3 133/125/3 134/124/3
f 139/127/2 138/128/2 137/129/2
f 140/130/2 137/129/2 138/128/2
f 143/131/5 142/132/5 141/133/5
f 144/134/5 141/133/5 142/132/5
f 147/135/4 146/136/4 145/137/4
f 148/138/4 145/137/4 146/136/4
f 151/139/1 150/140/1 149/141/1
f 152/142/1 149/141/1 150/140/1
f 155/143/3 154/144/3 153/145/3
f 156/146/3 153/145/3 154/144/3
f 159/147/5 158/148/5 157/149/5
f 160/150/5 157/149/5 158/148/5
f 163/151/2 162/152/2 161/153/2
f 164/154/2 161/153/2 162/152/2
f 167/155/1 166/156/1 165/157/1
f 168/158/1 165/157/1 166/156/1
f 171/159/4 170/160/4 169/161/4
f 172/162/4 169/161/4 170/160/4
f 175/163/5 174/164/5 173/165/5
f 176/166/5 173/165/5 174/164/5
f 179/167/2 178/168/2 177/169/2
f 180/170/2 177/169/2 178/168/2
f 183/171/3 182/172/3 181/173/3
f 184/174/3 181/173/3 182/172/3
f 187/175/1 186/176/1 185/177/1
f 188/178/1 185/177/1 186/176/1
f 191/179/4 190/180/4 189/181/4
f 192/182/4 189/181/4 190/180/4
f 195/183/5 194/184/5 193/185/5
f 196/186/5 193/185/5 194/184/5
f 199/187/2 198/188/2 197/189/2
f 200/190/2 197/189/2 198/188/2
f 203/191/3 202/192/3 201/193/3
f 204/194/3 201/193/3 202/192/3
f 207/195/1 206/196/1 205/197/1
f 208/198/1 205/197/1 206/196/1
f 211/199/5 210/200/5 209/201/5
f 212/202/5 209/201/5 210/200/5
f 215/203/4 214/204/4 213/205/4
f 216/206/4 213/205/4 214/204/4
f 219/207/2 218/208/2 217/209/2
f 220/210/2 217/209/2 218/208/2
f 223/211/25 222/212/25 221/213/25
f 224/214/25 221/213/25 222/212/25
f 227/215/1 226/216/1 225/217/1
f 228/218/1 225/217/1 226/216/1
f 225/217/1 228/218/1 229/219/1
f 230/220/1 229/219/1 228/218/1
f 229/219/1 230/220/1 231/221/1
f 232/222/1 231/221/1 230/220/1
f 231/221/1 232/222/1 233/223/1
f 234/224/1 233/223/1 232/222/1
f 233/223/1 234/224/1 235/225/1
f 236/226/1 235/225/1 234/224/1
f 235/225/1 236/226/1 237/227/1
f 238/228/1 237/227/1 236/226/1
f 237/227/1 238/228/1 239/229/1
f 240/230/1 239/229/1 238/228/1
f 239/229/1 240/230/1 241/231/1
f 242/232/1 241/231/1 240/230/1
f 241/231/1 242/232/1 243/233/1
f 244/234/1 243/233/1 242/232/1
f 243/233/1 244/234/1 245/235/1
f 246/236/1 245/235/1 244/234/1
f 245/235/1 246/236/1 247/237/1
f 248/238/1 247/237/1 246/236/1
f 247/237/1 248/238/1 249/239/1
f 250/240/1 249/239/1 248/238/1
f 249/239/1 250/240/1 251/241/1
f 252/242/1 251/241/1 250/240/1
f 251/241/1 252/242/1 253/243/1
f 254/244/1 253/243/1 252/242/1
f 253/243/1 254/244/1 255/245/1
f 256/246/1 255/245/1 254/244/1
f 255/245/1 256/246/1 257/247/1
f 258/248/1 257/247/1 256/246/1
f 257/247/1 258/248/1 259/249/1
f 260/250/1 259/249/1 258/248/1
f 259/249/1 260/250/1 261/251/1
f 262/252/1 261/251/1 260/250/1
f 261/251/1 262/252/1 263/253/1
f 264/254/1 263/253/1 262/252/1
f 263/253/1 264/254/1 265/255/1
f 266/256/1 265/255/1 264/254/1
f 265/255/1 266/256/1 267/257/1
f 268/258/1 267/257/1 266/256/1
f 267/257/1 268/258/1 269/259/1
f 270/260/1 269/259/1 268/258/1
f 269/259/1 270/260/1 271/261/1
f 272/262/1 271/261/1 270/260/1
f 271/261/1 272/262/1 273/263/1
f 274/264/1 273/263/1 272/262/1
f 273/263/1 274/264/1 275/265/1
f 276/266/1 275/265/1 274/264/1
f 275/265/1 276/266/1 277/267/1
f 278/268/1 277/267/1 276/266/1
f 281/269/4 280/270/4 279/271/26
f 282/272/26 279/271/26 280/270/4
f 279/271/26 282/272/26 283/273/27
f 284/274/27 283/273/27 282/272/26
f 283/273/27 284/274/27 285/275/28
f 286/276/28 285/275/28 284/274/27
f 285/275/28 286/276/28 287/277/29
f 288/278/29 287/277/29 286/276/28
f 287/277/29 288/278/29 289/279/30
f 290/280/30 289/279/30 288/278/29
f 289/279/30 290/280/30 291/281/31
f 292/282/31 291/281/31 290/280/30
f 291/281/31 292/282/31 293/283/32
f 294/284/32 293/283/32 292/282/31
f 293/283/32 294/284/32 295/285/33
f 296/286/33 295/285/33 294/284/32
f 295/285/33 296/286/33 297/287/34
f 298/288/34 297/287/34 296/286/33
f 297/287/34 298/288/34 299/289/35
f 300/290/35 299/289/35 298/288/34
f 299/289/35 300/290/35 301/291/36
f 302/292/36 301/291/36 300/290/35
f 305/293/25 304/294/25 303/295/25
f 306/296/25 303/295/25 304/294/25
f 303/295/25 306/296/25 307/297/25
f 308/298/25 307/297/25 306/296/25
f 307/297/25 308/298/25 309/299/25
f 310/300/25 309/299/25 308/298/25
f 309/299/25 310/300/25 311/301/25
f 312/302/25 311/301/25 310/300/25
f 311/301/25 312/302/25 313/303/25
f 314/304/25 313/303/25 312/302/25
f 313/303/25 314/304/25 315/305/25
f 316/306/25 315/305/25 314/304/25
f 315/305/25 316/306/25 317/307/25
f 318/308/25 317/307/25 316/306/25
f 317/307/25 318/308/25 319/309/25
f 320/310/25 319/309/25 318/308/25
f 319/309/25 320/310/25 321/311/25
f 322/312/25 321/311/25 320/310/25
f 321/311/25 322/312/25 323/313/25
f 324/314/25 323/313/25 322/312/25
f 323/313/25 324/314/25 325/315/25
f 326/316/25 325/315/25 324/314/25
f 325/315/25 326/316/25 327/317/25
f 328/318/25 327/317/25 326/316/25
f 327/317/25 328/318/25 329/319/25
f 330/320/25 329/319/25 328/318/25
f 329/319/25 330/320/25 331/321/25
f 332/322/25 331/321/25 330/320/25
f 331/321/25 332/322/25 333/323/25
f 334/324/25 333/323/25 332/322/25
f 333/323/25 334/324/25 335/325/25
f 336/326/25 335/325/25 334/324/25
f 335/325/25 336/326/25 337/327/25
f 338/328/25 337/327/25 336/326/25
f 337/327/25 338/328/25 339/329/25
f 340/330/25 339/329/25 338/328/25
f 339/329/25 340/330/25 341/331/25
f 342/332/25 341/331/25 340/330/25
f 341/331/25 342/332/25 343/333/25
f 344/334/25 343/333/25 342/332/25
f 343/333/25 344/334/25 345/335/25
f 346/336/25 345/335/25 344/334/25
f 345/335/25 346/336/25 347/337/25
f 348/338/25 347/337/25 346/336/25
f 347/337/25 348/338/25 349/339/25
f 350/340/25 349/339/25 348/338/25
f 349/339/25 350/340/25 351/341/25
f 352/342/25 351/341/25 350/340/25
f 351/341/25 352/342/25 353/343/25
f 354/344/25 353/343/25 352/342/25
f 353/343/25 354/344/25 355/345/25
f 356/346/25 355/345/25 354/344/25
f 359/347/2 358/348/2 357/349/37
f 360/350/37 357/349/37 358/348/2
f 357/349/37 360/350/37 361/351/38
f 362/352/38 361/351/38 360/350/37
f 361/351/38 362/352/38 363/353/39
f 364/354/39 363/353/39 362/352/38
f 363/353/39 364/354/39 365/355/40
f 366/356/40 365/355/40 364/354/39
f 365/355/40 366/356/40 367/357/41
f 368/358/41 367/357/41 366/356/40
f 367/357/41 368/358/41 369/359/42
f 370/360/42 369/359/42 368/358/41
f 369/359/42 370/360/42 371/361/43
f 372/362/43 371/361/43 370/360/42
f 371/361/43 372/362/43 373/363/44
f 374/364/44 373/363/44 372/362/43
f 373/363/44 374/364/44 375/365/45
f 376/366/45 375/365/45 374/364/44
f 375/365/45 376/366/45 377/367/46
f 378/368/46 377/367/46 376/366/45
f 377/367/46 378/368/46 379/369/47
f 380/370/47 379/369/47 378/368/46
f 383/371/48 382/372/48 381/373/49
f 384/374/49 381/373/49 382/372/48
f 381/373/49 384/374/49 385/375/3
f 386/376/3 385/375/3 384/374/49
f 385/375/3 386/376/3 387/377/50
f 388/378/50 387/377/50 386/376/3
f 387/377/50 388/378/50 389/379/51
f 390/380/51 389/379/51 388/378/50
f 393/381/52 392/382/52 391/383/53
f 394/384/53 391/383/53 392/382/52
f 391/383/53 394/384/53 395/385/5
f 396/386/5 395/385/5 394/384/53
f 395/385/5 396/386/5 397/387/54
f 398/388/54 397/387/54 396/386/5
f 397/387/54 398/388/54 399/389/55
f 400/390/56 399/389/55 398/388/54
f 403/391/57 402/392/57 401/393/58
f 404/394/58 401/393/58 402/392/57
f 401/393/58 404/394/58 405/395/59
f 406/396/59 405/395/59 404/394/58
f 405/395/59 406/396/59 407/397/60
f 408/398/60 407/397/60 406/396/59
f 407/397/60 408/398/60 409/399/61
f 410/400/61 409/399/61 408/398/60
f 409/399/61 410/400/61 411/401/62
f 412/402/62 411/401/62 410/400/61
f 411/401/62 412/402/62 413/403/63
f 414/404/63 413/403/63 412/402/62
f 413/403/63 414/404/63 415/405/64
f 416/406/64 415/405/64 414/404/63
f 415/405/64 416/406/64 417/407/65
f 418/408/65 417/407/65 416/406/64
f 417/407/65 418/408/65 419/409/66
f 420/410/66 419/409/66 418/408/65
f 419/409/66 420/410/66 421/411/67
f 422/412/67 421/411/67 420/410/66
f 421/411/67 422/412/67 423/413/2
f 424/414/2 423/413/2 422/412/67
f 427/415/68 426/416/68 425/417/69
f 428/418/69 425/417/69 426/416/68
f 425/417/69 428/418/69 429/419/70
f 430/420/70 429/419/70 428/418/69
f 429/419/70 430/420/70 431/421/71
f 432/422/71 431/421/71 430/420/70
f 431/421/71 432/422/71 433/423/72
f 434/424/72 433/423/72 432/422/71
f 433/423/72 434/424/72 435/425/73
f 436/426/73 435/425/73 434/424/72
f 435/425/73 436/426/73 437/427/74
f 438/428/74 437/427/74 436/426/73
f 437/427/74 438/428/74 439/429/75
f 440/430/75 439/429/75 438/428/74
f 439/429/75 440/430/75 441/431/76
f 442/432/76 441/431/76 440/430/75
f 441/431/76 442/432/76 443/433/77
f 444/434/77 443/433/77 442/432/76
f 443/433/77 444/434/77 445/435/78
f 446/436/78 445/435/78 444/434/77
f 445/435/78 446/436/78 447/437/4
f 448/438/4 447/437/4 446/436/78
f 451/439/79 450/440/80 449/441/79
f 452/442/80 449/441/79 450/440/80
f 455/443/2 454/444/2 453/445/2
f 456/446/2 453/445/2 454/444/2
f 459/447/3 458/448/3 457/449/3
f 460/450/3 457/449/3 458/448/3
f 460/450/3 461/451/3 457/449/3
f 462/452/3 457/449/3 461/451/3
f 465/453/5 464/454/5 463/455/5
f 466/456/5 463/455/5 464/454/5
f 466/456/5 467/457/5 463/455/5
f 468/458/5 463/455/5 467/457/5
f 471/459/81 470/440/81 469/460/81
f 472/439/81 469/460/81 470/440/81
f 475/461/4 474/462/4 473/463/4
f 476/464/4 473/463/4 474/462/4
f 479/465/1 478/466/1 477/467/1
f 480/468/1 477/467/1 478/466/1
f 483/469/4 482/470/4 481/471/4
f 484/472/4 481/471/4 482/470/4
f 487/473/5 486/474/5 485/475/5
f 488/476/5 485/475/5 486/474/5
f 491/477/2 490/478/2 489/479/2
f 492/480/2 489/479/2 490/478/2
f 495/481/3 494/482/3 493/483/3
f 496/484/3 493/483/3 494/482/3
f 499/485/82 498/486/83 497/487/84
f 500/488/84 497/487/84 498/486/83
f 497/487/84 500/488/84 501/489/85
f 502/490/86 501/489/85 500/488/84
f 505/491/87 504/492/88 503/493/89
f 506/494/90 503/493/89 504/492/88
f 509/495/91 508/496/92 507/497/93
f 510/498/93 507/497/93 508/496/92
f 507/497/93 510/498/93 511/499/94
f 512/500/94 511/499/94 510/498/93
f 515/501/95 514/502/95 513/503/94
f 516/504/94 513/503/94 514/502/95
f 519/505/96 518/506/96 517/507/96
f 518/506/96 520/508/96 517/507/96
f 517/507/96 520/508/96 521/509/96
f 522/510/96 520/508/96 518/506/96
f 525/511/97 524/512/98 523/513/99
f 526/514/100 523/513/99 524/512/98
f 523/513/99 526/514/100 527/515/101
f 528/516/102 527/515/101 526/514/100
f 531/517/103 530/518/104 529/519/97
f 532/520/105 529/519/97 530/518/104
f 535/521/106 534/522/107 533/523/108
f 536/524/109 533/523/108 534/522/107
f 533/523/108 536/524/109 537/525/110
f 538/526/111 537/525/110 536/524/109
f 541/527/101 540/528/102 539/529/111
f 542/530/110 539/529/111 540/528/102
f 545/531/1 544/532/1 543/533/1
f 543/533/1 544/532/1 546/534/1
f 547/535/1 544/532/1 545/531/1
f 546/534/1 544/532/1 548/536/1
f 549/537/1 544/532/1 547/535/1
f 548/536/1 544/532/1 550/538/1
f 551/539/1 544/532/1 549/537/1
f 550/538/1 544/532/1 552/540/1
f 553/541/1 544/532/1 551/539/1
f 552/540/1 544/532/1 554/542/1
f 555/543/1 544/532/1 553/541/1
f 554/542/1 544/532/1 555/543/1
f 558/544/1 557/545/1 556/546/1
f 558/544/1 556/546/1 559/547/1
f 558/544/1 560/548/1 557/545/1
f 558/544/1 559/547/1 561/549/1
f 558/544/1 562/550/1 560/548/1
f 558/544/1 561/549/1 563/551/1
f 558/544/1 564/552/1 562/550/1
f 558/544/1 563/551/1 565/553/1
f 558/544/1 566/554/1 564/552/1
f 558/544/1 565/553/1 567/555/1
f 558/544/1 568/556/1 566/554/1
f 558/544/1 567/555/1 568/556/1
