# Blender 5.1.0
# www.blender.org
mtllib Bsh_Hull_Midsection_Dredn_D3_001_4.mtl
o Bsh_Hull_Midsection_Dredn_D3_001_4
v -12.239519 -4.999985 5.244131
v -12.529506 5.000012 5.244130
v -12.239506 5.000011 5.244130
v -12.529519 -4.999984 5.244131
v -12.529519 -4.999984 5.244131
v -12.529506 5.000012 4.954130
v -12.529506 5.000012 5.244130
v -12.529519 -4.999984 4.954131
v -12.529519 -4.999984 4.954131
v -12.239506 5.000011 4.954130
v -12.529506 5.000012 4.954130
v -12.239519 -4.999985 4.954131
v -12.239519 -4.999985 4.954131
v -12.239506 5.000011 5.244130
v -12.239506 5.000011 4.954130
v -12.239519 -4.999985 5.244131
v 12.239507 -4.999998 5.244141
v 12.529500 5.000001 5.244138
v 12.529507 -4.999997 5.244141
v 12.239500 5.000000 5.244138
v 12.529507 -4.999997 5.244141
v 12.529500 5.000001 4.954138
v 12.529507 -4.999997 4.954141
v 12.529500 5.000001 5.244138
v 12.529507 -4.999997 4.954141
v 12.239500 5.000000 4.954138
v 12.239507 -4.999998 4.954141
v 12.529500 5.000001 4.954138
v 12.239507 -4.999998 4.954141
v 12.239500 5.000000 5.244138
v 12.239507 -4.999998 5.244141
v 12.239500 5.000000 4.954138
vn -0.0000 -0.0000 1.0000
vn -1.0000 -0.0000 -0.0000
vn -0.0000 -0.0000 -1.0000
vn 1.0000 -0.0000 -0.0000
vt 0.684281 -12.844641
vt 0.688648 -12.844641
vt 0.684281 -12.693108
vt 0.688649 -12.693108
vt -12.844641 0.294703
vt -12.844641 0.290325
vt -12.693108 0.294703
vt -12.693108 0.290325
vt 0.311352 -12.844641
vt 0.315719 -12.844641
vt 0.311351 -12.693108
vt 0.315719 -12.693108
vt 13.844641 0.290325
vt 13.844641 0.294703
vt 13.693108 0.290325
vt 13.693108 0.294703
vt 0.311278 -12.693108
vt 0.311277 -12.844641
vt 0.315645 -12.693108
vt 0.315645 -12.844641
vt 13.693108 0.290325
vt 13.844641 0.290325
vt 13.693108 0.294703
vt 13.844641 0.294703
vt 0.684355 -12.693108
vt 0.684355 -12.844641
vt 0.688722 -12.693108
vt 0.688723 -12.844641
vt -12.693108 0.294703
vt -12.844641 0.294703
vt -12.693108 0.290325
vt -12.844641 0.290325
s 1
g Bsh_Hull_Midsection_Dredn_D3_001_4_steel_4
usemtl steel_4
f 3/1/1 2/2/1 1/3/1
f 4/4/1 1/3/1 2/2/1
f 7/5/2 6/6/2 5/7/2
f 8/8/2 5/7/2 6/6/2
f 11/9/3 10/10/3 9/11/3
f 12/12/3 9/11/3 10/10/3
f 15/13/4 14/14/4 13/15/4
f 16/16/4 13/15/4 14/14/4
f 19/17/1 18/18/1 17/19/1
f 20/20/1 17/19/1 18/18/1
f 23/21/4 22/22/4 21/23/4
f 24/24/4 21/23/4 22/22/4
f 27/25/3 26/26/3 25/27/3
f 28/28/3 25/27/3 26/26/3
f 31/29/2 30/30/2 29/31/2
f 32/32/2 29/31/2 30/30/2
