# Blender 5.1.0
# www.blender.org
mtllib Bsh_Hull_Rostrum_Dredn_C_001_7.mtl
o Bsh_Hull_Rostrum_Dredn_C_001_7
v -3.550497 42.785805 5.099126
v -3.550502 35.129570 5.099134
v -10.536410 42.768921 5.099107
v -11.751060 40.951088 5.099106
v -11.885501 35.129578 5.099107
v -10.962941 42.853775 5.099106
v -11.992662 41.312691 5.099105
v -12.077504 41.739197 5.099105
v -11.389462 42.768936 5.099105
v -11.751060 42.527328 5.099105
v -11.992663 42.165741 5.099105
v -3.541955 51.785797 5.099128
v -3.546228 42.985779 5.099133
v -8.412679 51.768913 5.099113
v -9.627328 49.951073 5.099110
v -9.766040 42.985779 5.099110
v -8.839209 51.853767 5.099109
v -9.868931 50.312675 5.099108
v -9.953773 50.739189 5.099108
v -9.265730 51.768929 5.099109
v -9.627329 51.527328 5.099109
v -9.868934 51.165726 5.099109
v -3.541948 60.785789 5.099126
v -3.541952 51.985764 5.099128
v -6.288946 60.768906 5.099113
v -7.503596 58.951073 5.099113
v -7.638034 51.985771 5.099116
v -6.715477 60.853752 5.099112
v -7.745200 59.312675 5.099112
v -7.830041 59.739182 5.099111
v -7.141997 60.768921 5.099111
v -7.503598 60.527313 5.099112
v -7.745202 60.165726 5.099112
v 3.550488 42.785805 5.099133
v 10.536406 42.768921 5.099128
v 3.550492 35.129570 5.099142
v 11.751057 40.951088 5.099128
v 11.885495 35.129578 5.099130
v 10.962936 42.853767 5.099127
v 11.992658 41.312683 5.099128
v 12.077499 41.739197 5.099127
v 11.389458 42.768936 5.099127
v 11.751055 42.527328 5.099127
v 11.992660 42.165741 5.099127
v 3.541948 51.785797 5.099133
v 8.412666 51.768913 5.099127
v 3.546219 42.985779 5.099139
v 9.627316 49.951073 5.099130
v 9.766026 42.985771 5.099130
v 8.839196 51.853760 5.099128
v 9.868918 50.312675 5.099128
v 9.953760 50.739189 5.099128
v 9.265718 51.768929 5.099128
v 9.627316 51.527321 5.099128
v 9.868921 51.165726 5.099128
v 3.541942 60.785789 5.099130
v 6.288936 60.768906 5.099124
v 3.541945 51.985764 5.099133
v 7.503586 58.951065 5.099125
v 7.638022 51.985764 5.099129
v 6.715466 60.853752 5.099123
v 7.745189 59.312668 5.099123
v 7.830030 59.739182 5.099123
v 7.141987 60.768921 5.099123
v 7.503587 60.527313 5.099123
v 7.745191 60.165726 5.099123
v -3.550487 16.953390 5.099135
v -10.536405 16.970274 5.099131
v -3.550492 24.609629 5.099146
v -11.751057 18.788107 5.099132
v -11.885495 24.609617 5.099135
v -3.546219 16.753418 5.099141
v -9.766026 16.753424 5.099133
v 3.550489 16.953390 5.099135
v 3.550493 24.609629 5.099146
v 10.536407 16.970274 5.099131
v 11.751057 18.788107 5.099132
v 11.885495 24.609617 5.099135
v 3.546221 16.753418 5.099141
v 9.766027 16.753424 5.099133
v -3.550536 29.018736 5.099130
v -3.550540 25.170549 5.099129
v -11.859383 25.170549 5.099123
v -11.859382 27.124998 5.099117
v -10.829658 28.908525 5.099114
v -11.263610 28.880079 5.099116
v -12.051727 27.515020 5.099117
v -12.080169 27.948973 5.099116
v -11.653644 28.687742 5.099116
v -11.940377 28.360769 5.099116
v 3.550527 29.018732 5.099133
v 11.859367 25.170549 5.099131
v 3.550529 25.170549 5.099133
v 11.859365 27.124994 5.099125
v 10.829643 28.908522 5.099122
v 11.263597 28.880079 5.099124
v 12.051711 27.515017 5.099125
v 12.080154 27.948969 5.099124
v 11.653631 28.687738 5.099124
v 11.940364 28.360769 5.099124
vn -0.0000 -0.0000 1.0000
vt 0.658624 -16.332041
vt 0.553421 -16.216280
vt 0.553421 -16.332296
vt 0.676916 -16.304495
vt 0.678940 -16.216280
vt 0.665047 -16.333326
vt 0.680554 -16.309975
vt 0.681832 -16.316437
vt 0.671470 -16.332041
vt 0.676916 -16.328381
vt 0.680554 -16.322901
vt 0.626642 -16.468422
vt 0.553357 -16.335327
vt 0.553292 -16.468678
vt 0.644933 -16.440874
vt 0.647023 -16.335327
vt 0.633065 -16.469707
vt 0.648572 -16.446354
vt 0.649849 -16.452818
vt 0.639488 -16.468422
vt 0.644933 -16.464760
vt 0.648572 -16.459280
vt 0.594659 -16.604801
vt 0.553292 -16.471706
vt 0.553291 -16.605057
vt 0.612951 -16.577255
vt 0.614976 -16.471706
vt 0.601083 -16.606087
vt 0.616589 -16.582735
vt 0.617867 -16.589197
vt 0.607506 -16.604801
vt 0.612951 -16.601141
vt 0.616589 -16.595661
vt 0.446486 -16.216280
vt 0.341282 -16.332041
vt 0.446485 -16.332296
vt 0.322991 -16.304495
vt 0.320966 -16.216280
vt 0.334859 -16.333326
vt 0.319352 -16.309975
vt 0.318075 -16.316437
vt 0.328436 -16.332041
vt 0.322991 -16.328381
vt 0.319352 -16.322901
vt 0.446550 -16.335327
vt 0.373264 -16.468422
vt 0.446614 -16.468678
vt 0.354972 -16.440874
vt 0.352884 -16.335327
vt 0.366841 -16.469707
vt 0.351334 -16.446354
vt 0.350056 -16.452818
vt 0.360418 -16.468422
vt 0.354972 -16.464760
vt 0.351334 -16.459280
vt 0.446614 -16.471706
vt 0.405245 -16.604801
vt 0.446613 -16.605057
vt 0.386954 -16.577255
vt 0.384930 -16.471706
vt 0.398822 -16.606087
vt 0.383315 -16.582735
vt 0.382038 -16.589197
vt 0.392399 -16.604801
vt 0.386954 -16.601139
vt 0.383315 -16.595661
vt 0.553412 -19.354662
vt 0.658615 -19.238899
vt 0.553413 -19.238644
vt 0.676907 -19.266445
vt 0.678931 -19.354662
vt 0.341274 -19.238899
vt 0.446477 -19.354662
vt 0.446477 -19.238644
vt 0.322982 -19.266445
vt 0.320958 -19.354662
vt 0.678547 -16.031553
vt 0.553422 -16.031553
vt 0.553422 -16.089867
vt 0.678547 -16.061171
vt 0.663040 -16.088196
vt 0.669575 -16.087765
vt 0.681444 -16.067080
vt 0.681872 -16.073656
vt 0.675449 -16.084850
vt 0.679767 -16.079897
vt 0.446485 -16.031553
vt 0.321360 -16.031553
vt 0.446485 -16.089867
vt 0.321360 -16.061171
vt 0.336867 -16.088196
vt 0.330332 -16.087765
vt 0.318463 -16.067080
vt 0.318035 -16.073656
vt 0.324458 -16.084850
vt 0.320140 -16.079897
s 1
g Bsh_Hull_Rostrum_Dredn_C_001_7_steel_3
usemtl steel_3
f 3/1/1 2/2/1 1/3/1
f 4/4/1 2/2/1 3/1/1
f 5/5/1 2/2/1 4/4/1
f 3/1/1 6/6/1 4/4/1
f 7/7/1 4/4/1 6/6/1
f 7/7/1 6/6/1 8/8/1
f 9/9/1 8/8/1 6/6/1
f 9/9/1 10/10/1 8/8/1
f 11/11/1 8/8/1 10/10/1
f 14/12/1 13/13/1 12/14/1
f 15/15/1 13/13/1 14/12/1
f 16/16/1 13/13/1 15/15/1
f 14/12/1 17/17/1 15/15/1
f 18/18/1 15/15/1 17/17/1
f 18/18/1 17/17/1 19/19/1
f 20/20/1 19/19/1 17/17/1
f 20/20/1 21/21/1 19/19/1
f 22/22/1 19/19/1 21/21/1
f 25/23/1 24/24/1 23/25/1
f 26/26/1 24/24/1 25/23/1
f 27/27/1 24/24/1 26/26/1
f 25/23/1 28/28/1 26/26/1
f 29/29/1 26/26/1 28/28/1
f 29/29/1 28/28/1 30/30/1
f 31/31/1 30/30/1 28/28/1
f 31/31/1 32/32/1 30/30/1
f 33/33/1 30/30/1 32/32/1
f 36/34/1 35/35/1 34/36/1
f 36/34/1 37/37/1 35/35/1
f 36/34/1 38/38/1 37/37/1
f 35/35/1 37/37/1 39/39/1
f 40/40/1 39/39/1 37/37/1
f 40/40/1 41/41/1 39/39/1
f 42/42/1 39/39/1 41/41/1
f 42/42/1 41/41/1 43/43/1
f 44/44/1 43/43/1 41/41/1
f 47/45/1 46/46/1 45/47/1
f 47/45/1 48/48/1 46/46/1
f 47/45/1 49/49/1 48/48/1
f 46/46/1 48/48/1 50/50/1
f 51/51/1 50/50/1 48/48/1
f 51/51/1 52/52/1 50/50/1
f 53/53/1 50/50/1 52/52/1
f 53/53/1 52/52/1 54/54/1
f 55/55/1 54/54/1 52/52/1
f 58/56/1 57/57/1 56/58/1
f 58/56/1 59/59/1 57/57/1
f 58/56/1 60/60/1 59/59/1
f 57/57/1 59/59/1 61/61/1
f 62/62/1 61/61/1 59/59/1
f 62/62/1 63/63/1 61/61/1
f 64/64/1 61/61/1 63/63/1
f 64/64/1 63/63/1 65/65/1
f 66/66/1 65/65/1 63/63/1
g Bsh_Hull_Rostrum_Dredn_C_001_7_steel_deck_1
usemtl steel_deck_1
f 69/67/1 68/68/1 67/69/1
f 69/67/1 70/70/1 68/68/1
f 69/67/1 71/71/1 70/70/1
f 76/72/1 75/73/1 74/74/1
f 77/75/1 75/73/1 76/72/1
f 78/76/1 75/73/1 77/75/1
f 83/77/1 82/78/1 81/79/1
f 83/77/1 81/79/1 84/80/1
f 85/81/1 84/80/1 81/79/1
f 85/81/1 86/82/1 84/80/1
f 87/83/1 84/80/1 86/82/1
f 87/83/1 86/82/1 88/84/1
f 89/85/1 88/84/1 86/82/1
f 90/86/1 88/84/1 89/85/1
f 93/87/1 92/88/1 91/89/1
f 92/88/1 94/90/1 91/89/1
f 95/91/1 91/89/1 94/90/1
f 95/91/1 94/90/1 96/92/1
f 97/93/1 96/92/1 94/90/1
f 97/93/1 98/94/1 96/92/1
f 99/95/1 96/92/1 98/94/1
f 98/94/1 100/96/1 99/95/1
l 72 73
l 79 80
