# Blender 5.1.0
# www.blender.org
mtllib Bsh_Hull_Rostrum_Dredn_C_001_6.mtl
o Bsh_Hull_Rostrum_Dredn_C_001_6
v -10.962941 42.853775 5.951240
v -10.418937 43.052551 5.951246
v -10.536410 42.768921 5.951241
v -10.962939 43.160774 5.951240
v -11.389462 42.768936 5.951241
v -11.506950 43.052544 5.951241
v -11.968131 42.744400 5.951240
v -11.751060 42.527328 5.951240
v -12.276279 42.283203 5.951239
v -11.992663 42.165741 5.951239
v -12.077504 41.739197 5.951240
v -12.384489 41.739212 5.951240
v -11.992661 41.312691 5.951240
v -12.384485 40.736115 5.951240
v -11.751060 40.951088 5.951241
v -11.992661 41.312691 5.951240
v -11.751060 40.951088 5.099106
v -11.751060 40.951088 5.951241
v -11.992662 41.312691 5.099105
v -12.077504 41.739197 5.951240
v -12.077504 41.739197 5.099105
v -11.992663 42.165741 5.951239
v -11.992663 42.165741 5.099105
v -11.751060 42.527328 5.099105
v -11.751060 42.527328 5.951240
v -10.962941 42.853775 5.099106
v -10.536410 42.768921 5.951241
v -10.536410 42.768921 5.099107
v -10.962941 42.853775 5.951240
v -11.389462 42.768936 5.099105
v -11.389462 42.768936 5.951241
v -11.751060 42.527328 5.951240
v -11.751060 42.527328 5.099105
v -10.536410 42.768921 5.951241
v -3.550497 42.785805 5.099126
v -10.536410 42.768921 5.099107
v -3.550498 42.785805 7.822887
v -10.536421 42.768921 7.425361
v -10.536420 42.768929 7.822874
v -3.546228 42.985779 5.099133
v -9.766043 42.985771 7.822881
v -9.766040 42.985779 5.099110
v -3.546229 42.985771 7.822888
v -11.751071 40.951088 7.425360
v -11.885511 35.129578 7.822876
v -11.751071 40.951088 7.822876
v -11.751060 40.951088 5.951241
v -11.885501 35.129578 5.099107
v -11.751060 40.951088 5.099106
v -11.885511 35.129578 7.822876
v -3.550501 35.129578 7.822886
v -11.751071 40.951088 7.822876
v -10.536420 42.768929 7.822874
v -3.550498 42.785805 7.822887
v -12.384499 41.739204 7.425357
v -12.384496 40.736115 7.425360
v -11.751071 40.951088 7.425360
v -12.276294 42.283203 7.425357
v -11.968136 42.744400 7.425359
v -10.536421 42.768921 7.425361
v -11.506956 43.052544 7.425359
v -10.962951 43.160774 7.425359
v -10.418946 43.052551 7.425365
v -10.418937 43.052551 5.951246
v -10.536421 42.768921 7.425361
v -10.536410 42.768921 5.951241
v -10.418946 43.052551 7.425365
v -11.751060 40.951088 5.951241
v -12.384496 40.736115 7.425360
v -12.384485 40.736115 5.951240
v -11.751071 40.951088 7.425360
v -10.536421 42.768921 7.425361
v -11.751071 40.951088 7.822876
v -10.536420 42.768929 7.822874
v -11.751071 40.951088 7.425360
v -8.839209 51.853767 5.951249
v -8.295205 52.052544 5.951250
v -8.412679 51.768913 5.951249
v -8.839208 52.160767 5.951248
v -9.265730 51.768929 5.951248
v -9.383218 52.052536 5.951247
v -9.844400 51.744392 5.951248
v -9.627329 51.527321 5.951248
v -10.152548 51.283195 5.951248
v -9.868933 51.165726 5.951248
v -9.953773 50.739189 5.951248
v -10.260752 50.739197 5.951247
v -9.868931 50.312675 5.951248
v -10.260747 49.736099 5.951248
v -9.627327 49.951073 5.951249
v -9.868931 50.312675 5.951248
v -9.627328 49.951073 5.099110
v -9.627327 49.951073 5.951249
v -9.868931 50.312675 5.099108
v -9.953773 50.739189 5.951248
v -9.953773 50.739189 5.099108
v -9.868933 51.165726 5.951248
v -9.868934 51.165726 5.099109
v -9.627329 51.527328 5.099109
v -9.627329 51.527321 5.951248
v -8.839209 51.853767 5.099109
v -8.412679 51.768913 5.951249
v -8.412679 51.768913 5.099113
v -8.839209 51.853767 5.951249
v -9.265730 51.768929 5.099109
v -9.265730 51.768929 5.951248
v -9.627329 51.527321 5.951248
v -9.627329 51.527328 5.099109
v -8.412679 51.768913 5.951249
v -3.541955 51.785797 5.099128
v -8.412679 51.768913 5.099113
v -3.541957 51.785797 7.822887
v -8.412681 51.768913 7.425367
v -8.412681 51.768921 7.822883
v -9.627329 49.951073 7.425368
v -9.766043 42.985771 7.822881
v -9.627331 49.951073 7.822881
v -9.627327 49.951073 5.951249
v -9.766040 42.985779 5.099110
v -9.627328 49.951073 5.099110
v -9.766043 42.985771 7.822881
v -3.546229 42.985771 7.822888
v -9.627331 49.951073 7.822881
v -8.412681 51.768921 7.822883
v -3.541957 51.785797 7.822887
v -10.260762 50.739197 7.425368
v -10.260759 49.736099 7.425367
v -9.627329 49.951073 7.425368
v -10.152554 51.283188 7.425367
v -9.844397 51.744392 7.425367
v -8.412681 51.768913 7.425367
v -9.383214 52.052536 7.425368
v -8.839210 52.160767 7.425367
v -8.295205 52.052544 7.425367
v -8.295205 52.052544 5.951250
v -8.412681 51.768913 7.425367
v -8.412679 51.768913 5.951249
v -8.295205 52.052544 7.425367
v -9.627327 49.951073 5.951249
v -10.260759 49.736099 7.425367
v -10.260747 49.736099 5.951248
v -9.627329 49.951073 7.425368
v -8.412681 51.768913 7.425367
v -9.627331 49.951073 7.822881
v -8.412681 51.768921 7.822883
v -9.627329 49.951073 7.425368
v -6.715477 60.853752 5.951249
v -6.171473 61.052536 5.951250
v -6.288947 60.768906 5.951250
v -6.715476 61.160751 5.951249
v -7.141997 60.768921 5.951249
v -7.259486 61.052536 5.951249
v -7.720669 60.744385 5.951248
v -7.503598 60.527313 5.951248
v -8.028817 60.283188 5.951248
v -7.745201 60.165726 5.951248
v -7.830041 59.739182 5.951248
v -8.137027 59.739197 5.951248
v -7.745199 59.312675 5.951249
v -8.137021 58.736099 5.951249
v -7.503595 58.951073 5.951249
v -7.745199 59.312675 5.951249
v -7.503596 58.951073 5.099113
v -7.503595 58.951073 5.951249
v -7.745200 59.312675 5.099112
v -7.830041 59.739182 5.951248
v -7.830041 59.739182 5.099111
v -7.745201 60.165726 5.951248
v -7.745202 60.165726 5.099112
v -7.503598 60.527313 5.099112
v -7.503598 60.527313 5.951248
v -6.715477 60.853752 5.099112
v -6.288947 60.768906 5.951250
v -6.288946 60.768906 5.099113
v -6.715477 60.853752 5.951249
v -7.141997 60.768921 5.099111
v -7.141997 60.768921 5.951249
v -7.503598 60.527313 5.951248
v -7.503598 60.527313 5.099112
v -6.288947 60.768906 5.951250
v -3.541948 60.785789 5.099126
v -6.288946 60.768906 5.099113
v -3.541950 60.785782 7.822886
v -6.288949 60.768906 7.425370
v -6.288948 60.768906 7.822883
v -7.503597 58.951073 7.425370
v -7.638038 51.985764 7.822886
v -7.503599 58.951073 7.822883
v -7.503595 58.951073 5.951249
v -7.638034 51.985771 5.099116
v -7.503596 58.951073 5.099113
v -7.638038 51.985764 7.822886
v -3.541955 51.985764 7.822890
v -7.503599 58.951073 7.822883
v -6.288948 60.768906 7.822883
v -3.541950 60.785782 7.822886
v -8.137027 59.739197 7.425367
v -8.137024 58.736099 7.425367
v -7.503597 58.951073 7.425370
v -8.028823 60.283188 7.425367
v -7.720665 60.744385 7.425367
v -6.288949 60.768906 7.425370
v -7.259482 61.052536 7.425367
v -6.715478 61.160751 7.425367
v -6.171474 61.052536 7.425368
v -6.171473 61.052536 5.951250
v -6.288949 60.768906 7.425370
v -6.288947 60.768906 5.951250
v -6.171474 61.052536 7.425368
v -7.503595 58.951073 5.951249
v -8.137024 58.736099 7.425367
v -8.137021 58.736099 5.951249
v -7.503597 58.951073 7.425370
v -6.288949 60.768906 7.425370
v -7.503599 58.951073 7.822883
v -6.288948 60.768906 7.822883
v -7.503597 58.951073 7.425370
v -7.638034 51.985771 5.099116
v -3.541955 51.985764 7.822890
v -7.638038 51.985764 7.822886
v -3.541952 51.985764 5.099128
v -3.550502 35.129570 5.099134
v -11.885511 35.129578 7.822876
v -11.885501 35.129578 5.099107
v -3.550501 35.129578 7.822886
v -3.550501 35.129578 7.822886
v -3.550497 42.785805 5.099126
v -3.550498 42.785805 7.822887
v -3.550502 35.129570 5.099134
v -3.541955 51.985764 7.822890
v -3.541948 60.785789 5.099126
v -3.541950 60.785782 7.822886
v -3.541952 51.985764 5.099128
v -3.541957 51.785797 7.822887
v -3.546228 42.985779 5.099133
v -3.541955 51.785797 5.099128
v -3.546229 42.985771 7.822888
v 10.418933 43.052551 5.951262
v 10.962936 42.853767 5.951266
v 10.536406 42.768921 5.951267
v 10.962935 43.160774 5.951266
v 11.389458 42.768936 5.951267
v 11.506947 43.052544 5.951267
v 11.968126 42.744400 5.951267
v 11.751055 42.527328 5.951266
v 12.276275 42.283203 5.951266
v 11.992660 42.165741 5.951266
v 12.077499 41.739197 5.951267
v 12.384484 41.739212 5.951267
v 11.992657 41.312683 5.951267
v 12.384480 40.736107 5.951267
v 11.751055 40.951088 5.951267
v 11.751057 40.951088 5.099128
v 11.992657 41.312683 5.951267
v 11.751055 40.951088 5.951267
v 11.992658 41.312683 5.099128
v 12.077499 41.739197 5.951267
v 12.077499 41.739197 5.099127
v 11.992660 42.165741 5.951266
v 11.992660 42.165741 5.099127
v 11.751055 42.527328 5.099127
v 11.751055 42.527328 5.951266
v 10.536406 42.768921 5.951267
v 10.962936 42.853767 5.099127
v 10.536406 42.768921 5.099128
v 10.962936 42.853767 5.951266
v 11.389458 42.768936 5.099127
v 11.389458 42.768936 5.951267
v 11.751055 42.527328 5.951266
v 11.751055 42.527328 5.099127
v 10.536406 42.768921 5.951267
v 10.536406 42.768921 5.099128
v 3.550488 42.785805 5.099133
v 3.550481 42.785805 7.822898
v 10.536397 42.768921 7.425386
v 10.536396 42.768921 7.822900
v 3.546219 42.985779 5.099139
v 9.766029 42.985771 7.822898
v 3.546213 42.985771 7.822899
v 9.766026 42.985771 5.099130
v 11.751047 40.951088 7.425387
v 11.751047 40.951088 7.822902
v 11.885487 35.129578 7.822903
v 11.751055 40.951088 5.951267
v 11.885495 35.129578 5.099130
v 11.751057 40.951088 5.099128
v 11.885487 35.129578 7.822903
v 11.751047 40.951088 7.822902
v 3.550484 35.129578 7.822898
v 10.536396 42.768921 7.822900
v 3.550481 42.785805 7.822898
v 12.384475 41.739204 7.425385
v 11.751047 40.951088 7.425387
v 12.384472 40.736115 7.425387
v 12.276270 42.283195 7.425385
v 11.968112 42.744392 7.425385
v 10.536397 42.768921 7.425386
v 11.506931 43.052544 7.425385
v 10.962927 43.160774 7.425385
v 10.418922 43.052551 7.425381
v 10.418933 43.052551 5.951262
v 10.536397 42.768921 7.425386
v 10.418922 43.052551 7.425381
v 10.536406 42.768921 5.951267
v 11.751055 40.951088 5.951267
v 12.384472 40.736115 7.425387
v 11.751047 40.951088 7.425387
v 12.384480 40.736107 5.951267
v 10.536397 42.768921 7.425386
v 11.751047 40.951088 7.822902
v 11.751047 40.951088 7.425387
v 10.536396 42.768921 7.822900
v 8.295193 52.052544 5.951263
v 8.839196 51.853760 5.951262
v 8.412666 51.768913 5.951263
v 8.839195 52.160767 5.951262
v 9.265718 51.768929 5.951262
v 9.383206 52.052536 5.951262
v 9.844388 51.744392 5.951262
v 9.627316 51.527321 5.951263
v 10.152535 51.283188 5.951263
v 9.868920 51.165726 5.951263
v 9.953760 50.739182 5.951262
v 10.260750 50.739197 5.951262
v 9.868918 50.312675 5.951262
v 10.260744 49.736099 5.951263
v 9.627315 49.951073 5.951264
v 9.627316 49.951073 5.099130
v 9.868918 50.312675 5.951262
v 9.627315 49.951073 5.951264
v 9.868918 50.312675 5.099128
v 9.953760 50.739182 5.951262
v 9.953760 50.739189 5.099128
v 9.868920 51.165726 5.951263
v 9.868921 51.165726 5.099128
v 9.627316 51.527321 5.099128
v 9.627316 51.527321 5.951263
v 8.412666 51.768913 5.951263
v 8.839196 51.853760 5.099128
v 8.412666 51.768913 5.099127
v 8.839196 51.853760 5.951262
v 9.265718 51.768929 5.099128
v 9.265718 51.768929 5.951262
v 9.627316 51.527321 5.951263
v 9.627316 51.527321 5.099128
v 8.412666 51.768913 5.951263
v 8.412666 51.768913 5.099127
v 3.541948 51.785797 5.099133
v 3.541942 51.785797 7.822896
v 8.412669 51.768913 7.425381
v 8.412668 51.768921 7.822896
v 9.627316 49.951073 7.425383
v 9.627318 49.951073 7.822896
v 9.766029 42.985771 7.822898
v 9.627315 49.951073 5.951264
v 9.766026 42.985771 5.099130
v 9.627316 49.951073 5.099130
v 9.766029 42.985771 7.822898
v 9.627318 49.951073 7.822896
v 3.546213 42.985771 7.822899
v 8.412668 51.768921 7.822896
v 3.541942 51.785797 7.822896
v 10.260740 50.739197 7.425383
v 9.627316 49.951073 7.425383
v 10.260736 49.736099 7.425382
v 10.152542 51.283188 7.425382
v 9.844385 51.744385 7.425382
v 8.412669 51.768913 7.425381
v 9.383203 52.052536 7.425382
v 8.839199 52.160767 7.425381
v 8.295194 52.052544 7.425381
v 8.295193 52.052544 5.951263
v 8.412669 51.768913 7.425381
v 8.295194 52.052544 7.425381
v 8.412666 51.768913 5.951263
v 9.627315 49.951073 5.951264
v 10.260736 49.736099 7.425382
v 9.627316 49.951073 7.425383
v 10.260744 49.736099 5.951263
v 8.412669 51.768913 7.425381
v 9.627318 49.951073 7.822896
v 9.627316 49.951073 7.425383
v 8.412668 51.768921 7.822896
v 6.171463 61.052536 5.951261
v 6.715466 60.853752 5.951260
v 6.288936 60.768906 5.951261
v 6.715465 61.160751 5.951260
v 7.141987 60.768921 5.951260
v 7.259476 61.052528 5.951260
v 7.720659 60.744385 5.951260
v 7.503587 60.527313 5.951260
v 8.028806 60.283188 5.951260
v 7.745191 60.165726 5.951260
v 7.830030 59.739182 5.951260
v 8.137016 59.739197 5.951260
v 7.745189 59.312668 5.951261
v 8.137010 58.736092 5.951261
v 7.503584 58.951073 5.951262
v 7.503586 58.951065 5.099125
v 7.745189 59.312668 5.951261
v 7.503584 58.951073 5.951262
v 7.745189 59.312668 5.099123
v 7.830030 59.739182 5.951260
v 7.830030 59.739182 5.099123
v 7.745191 60.165726 5.951260
v 7.745191 60.165726 5.099123
v 7.503587 60.527313 5.099123
v 7.503587 60.527313 5.951260
v 6.288936 60.768906 5.951261
v 6.715466 60.853752 5.099123
v 6.288936 60.768906 5.099124
v 6.715466 60.853752 5.951260
v 7.141987 60.768921 5.099123
v 7.141987 60.768921 5.951260
v 7.503587 60.527313 5.951260
v 7.503587 60.527313 5.099123
v 6.288936 60.768906 5.951261
v 6.288936 60.768906 5.099124
v 3.541942 60.785789 5.099130
v 3.541937 60.785782 7.822895
v 6.288939 60.768906 7.425382
v 6.288938 60.768906 7.822896
v 7.503587 58.951073 7.425382
v 7.503589 58.951073 7.822896
v 7.638027 51.985764 7.822898
v 7.503584 58.951073 5.951262
v 7.638022 51.985764 5.099129
v 7.503586 58.951065 5.099125
v 7.638027 51.985764 7.822898
v 7.503589 58.951073 7.822896
v 3.541941 51.985764 7.822900
v 6.288938 60.768906 7.822896
v 3.541937 60.785782 7.822895
v 8.137017 59.739189 7.425380
v 7.503587 58.951073 7.425382
v 8.137013 58.736099 7.425380
v 8.028812 60.283188 7.425380
v 7.720655 60.744385 7.425379
v 6.288939 60.768906 7.425382
v 7.259472 61.052528 7.425379
v 6.715468 61.160751 7.425379
v 6.171463 61.052536 7.425381
v 6.171463 61.052536 5.951261
v 6.288939 60.768906 7.425382
v 6.171463 61.052536 7.425381
v 6.288936 60.768906 5.951261
v 7.503584 58.951073 5.951262
v 8.137013 58.736099 7.425380
v 7.503587 58.951073 7.425382
v 8.137010 58.736092 5.951261
v 6.288939 60.768906 7.425382
v 7.503589 58.951073 7.822896
v 7.503587 58.951073 7.425382
v 6.288938 60.768906 7.822896
v 7.638022 51.985764 5.099129
v 3.541941 51.985764 7.822900
v 3.541945 51.985764 5.099133
v 7.638027 51.985764 7.822898
v 3.550492 35.129570 5.099142
v 11.885487 35.129578 7.822903
v 3.550484 35.129578 7.822898
v 11.885495 35.129578 5.099130
v 3.550484 35.129578 7.822898
v 3.550488 42.785805 5.099133
v 3.550492 35.129570 5.099142
v 3.550481 42.785805 7.822898
v 3.541941 51.985764 7.822900
v 3.541942 60.785789 5.099130
v 3.541945 51.985764 5.099133
v 3.541937 60.785782 7.822895
v 3.541942 51.785797 7.822896
v 3.546219 42.985779 5.099139
v 3.546213 42.985771 7.822899
v 3.541948 51.785797 5.099133
v 11.286455 41.415634 5.099113
v 10.962897 41.281616 5.188959
v 11.286455 41.415634 5.188959
v 10.962897 41.281616 5.099114
v 10.639338 41.415642 5.188960
v 10.639338 41.415642 5.099114
v 11.286455 41.415634 5.188959
v 11.420474 41.739182 5.099113
v 11.286455 41.415634 5.099113
v 11.420474 41.739182 5.188958
v 11.286455 42.062752 5.099113
v 11.286455 42.062752 5.188959
v 11.286455 42.062752 5.188959
v 10.962894 42.196785 5.099114
v 11.286455 42.062752 5.099113
v 10.962894 42.196785 5.188958
v 10.639337 42.062752 5.099114
v 10.639337 42.062752 5.188959
v 10.639337 42.062752 5.188959
v 10.505320 41.739182 5.099114
v 10.639337 42.062752 5.099114
v 10.505320 41.739182 5.188959
v 10.639338 41.415642 5.099114
v 10.639338 41.415642 5.188960
v 9.162724 50.415634 5.099114
v 8.839165 50.281616 5.188958
v 9.162724 50.415634 5.188956
v 8.839165 50.281616 5.099114
v 8.515605 50.415649 5.188958
v 8.515605 50.415649 5.099113
v 9.162724 50.415634 5.188956
v 9.296741 50.739189 5.099113
v 9.162724 50.415634 5.099114
v 9.296741 50.739189 5.188956
v 9.162724 51.062752 5.099114
v 9.162724 51.062752 5.188956
v 9.162724 51.062752 5.188956
v 8.839163 51.196785 5.099114
v 9.162724 51.062752 5.099114
v 8.839163 51.196785 5.188956
v 8.515605 51.062752 5.099113
v 8.515605 51.062752 5.188957
v 8.515605 51.062752 5.188957
v 8.381587 50.739189 5.099113
v 8.515605 51.062752 5.099113
v 8.381587 50.739189 5.188958
v 8.515605 50.415649 5.099113
v 8.515605 50.415649 5.188958
v 7.038992 59.415634 5.099112
v 6.715434 59.281616 5.188957
v 7.038992 59.415634 5.188956
v 6.715434 59.281616 5.099113
v 6.391874 59.415649 5.188958
v 6.391874 59.415649 5.099113
v 7.038992 59.415634 5.188956
v 7.173011 59.739182 5.099112
v 7.038992 59.415634 5.099112
v 7.173011 59.739182 5.188955
v 7.038992 60.062752 5.099112
v 7.038992 60.062752 5.188956
v 7.038992 60.062752 5.188956
v 6.715432 60.196785 5.099113
v 7.038992 60.062752 5.099112
v 6.715432 60.196785 5.188956
v 6.391874 60.062752 5.099113
v 6.391874 60.062752 5.188956
v 6.391874 60.062752 5.188956
v 6.257856 59.739189 5.099113
v 6.391874 60.062752 5.099113
v 6.257856 59.739189 5.188957
v 6.391874 59.415649 5.099113
v 6.391874 59.415649 5.188958
v -10.962936 41.281616 5.188951
v -11.286494 41.415634 5.099108
v -11.286494 41.415634 5.188950
v -10.962936 41.281616 5.099109
v -10.639375 41.415649 5.188951
v -10.639375 41.415649 5.099109
v -11.420513 41.739189 5.099108
v -11.286494 41.415634 5.188950
v -11.286494 41.415634 5.099108
v -11.420513 41.739189 5.188950
v -11.286494 42.062752 5.099108
v -11.286494 42.062752 5.188950
v -10.962934 42.196785 5.099108
v -11.286494 42.062752 5.188950
v -11.286494 42.062752 5.099108
v -10.962934 42.196785 5.188950
v -10.639377 42.062752 5.099108
v -10.639377 42.062752 5.188951
v -10.505358 41.739189 5.099108
v -10.639377 42.062752 5.188951
v -10.639377 42.062752 5.099108
v -10.505358 41.739189 5.188951
v -10.639375 41.415649 5.099109
v -10.639375 41.415649 5.188951
v -8.839206 50.281616 5.188954
v -9.162765 50.415634 5.099108
v -9.162765 50.415634 5.188952
v -8.839206 50.281616 5.099109
v -8.515646 50.415649 5.188954
v -8.515646 50.415649 5.099110
v -9.296783 50.739189 5.099107
v -9.162765 50.415634 5.188952
v -9.162765 50.415634 5.099108
v -9.296783 50.739189 5.188952
v -9.162765 51.062752 5.099108
v -9.162765 51.062752 5.188952
v -8.839205 51.196785 5.099108
v -9.162765 51.062752 5.188952
v -9.162765 51.062752 5.099108
v -8.839205 51.196785 5.188952
v -8.515646 51.062752 5.099110
v -8.515646 51.062752 5.188953
v -8.381628 50.739189 5.099110
v -8.515646 51.062752 5.188953
v -8.515646 51.062752 5.099110
v -8.381628 50.739189 5.188953
v -8.515646 50.415649 5.099110
v -8.515646 50.415649 5.188954
v -6.715474 59.281616 5.188952
v -7.039032 59.415634 5.099108
v -7.039032 59.415634 5.188952
v -6.715474 59.281616 5.099109
v -6.391914 59.415649 5.188952
v -6.391914 59.415649 5.099109
v -7.173051 59.739189 5.099108
v -7.039032 59.415634 5.188952
v -7.039032 59.415634 5.099108
v -7.173051 59.739189 5.188951
v -7.039032 60.062759 5.099108
v -7.039032 60.062759 5.188952
v -6.715472 60.196785 5.099109
v -7.039032 60.062759 5.188952
v -7.039032 60.062759 5.099108
v -6.715472 60.196785 5.188951
v -6.391914 60.062752 5.099109
v -6.391914 60.062752 5.188952
v -6.257896 59.739189 5.099109
v -6.391914 60.062752 5.188952
v -6.391914 60.062752 5.099109
v -6.257896 59.739189 5.188952
v -6.391914 59.415649 5.099109
v -6.391914 59.415649 5.188952
v 11.286455 41.415634 5.188959
v 10.962897 41.281616 5.188959
v 10.962897 41.739182 5.188959
v 11.420474 41.739182 5.188958
v 10.639338 41.415642 5.188960
v 11.286455 42.062752 5.188959
v 10.505320 41.739182 5.188959
v 10.962894 42.196785 5.188958
v 10.639337 42.062752 5.188959
v 9.162724 50.415634 5.188956
v 8.839165 50.281616 5.188958
v 8.839165 50.739189 5.188956
v 9.296741 50.739189 5.188956
v 8.515605 50.415649 5.188958
v 9.162724 51.062752 5.188956
v 8.381587 50.739189 5.188958
v 8.839163 51.196785 5.188956
v 8.515605 51.062752 5.188957
v 7.038992 59.415634 5.188956
v 6.715434 59.281616 5.188957
v 6.715434 59.739189 5.188956
v 7.173011 59.739182 5.188955
v 6.391874 59.415649 5.188958
v 7.038992 60.062752 5.188956
v 6.257856 59.739189 5.188957
v 6.715432 60.196785 5.188956
v 6.391874 60.062752 5.188956
v -11.286494 41.415634 5.188950
v -10.962936 41.739189 5.188950
v -10.962936 41.281616 5.188951
v -11.420513 41.739189 5.188950
v -10.639375 41.415649 5.188951
v -11.286494 42.062752 5.188950
v -10.505358 41.739189 5.188951
v -10.962934 42.196785 5.188950
v -10.639377 42.062752 5.188951
v -9.162765 50.415634 5.188952
v -8.839206 50.739189 5.188952
v -8.839206 50.281616 5.188954
v -9.296783 50.739189 5.188952
v -8.515646 50.415649 5.188954
v -9.162765 51.062752 5.188952
v -8.381628 50.739189 5.188953
v -8.839205 51.196785 5.188952
v -8.515646 51.062752 5.188953
v -7.039032 59.415634 5.188952
v -6.715474 59.739189 5.188952
v -6.715474 59.281616 5.188952
v -7.173051 59.739189 5.188951
v -6.391914 59.415649 5.188952
v -7.039032 60.062759 5.188952
v -6.257896 59.739189 5.188952
v -6.715472 60.196785 5.188951
v -6.391914 60.062752 5.188952
v -10.418930 16.686647 5.951265
v -10.962934 16.885426 5.951270
v -10.536404 16.970276 5.951270
v -10.962933 16.578424 5.951270
v -11.389455 16.970259 5.951270
v -11.506944 16.686651 5.951270
v -11.968125 16.994795 5.951270
v -11.751053 17.211870 5.951270
v -12.276275 17.455996 5.951269
v -11.992660 17.573458 5.951270
v -12.077498 18.000002 5.951272
v -12.384483 17.999989 5.951272
v -11.992657 18.426512 5.951272
v -12.384480 19.003086 5.951271
v -11.751056 18.788111 5.951272
v -11.751057 18.788107 5.099132
v -11.992657 18.426512 5.951272
v -11.751056 18.788111 5.951272
v -11.992659 18.426508 5.099132
v -12.077498 18.000002 5.951272
v -12.077498 17.999998 5.099131
v -11.992660 17.573458 5.951270
v -11.992660 17.573458 5.099131
v -11.751056 17.211864 5.099130
v -11.751053 17.211870 5.951270
v -10.536404 16.970276 5.951270
v -10.962934 16.885424 5.099130
v -10.536405 16.970274 5.099131
v -10.962934 16.885426 5.951270
v -11.389456 16.970259 5.099130
v -11.389455 16.970259 5.951270
v -11.751053 17.211870 5.951270
v -11.751056 17.211864 5.099130
v -10.536404 16.970276 5.951270
v -10.536405 16.970274 5.099131
v -3.550487 16.953390 5.099135
v -3.550481 16.953394 7.822900
v -10.536397 16.970274 7.425390
v -10.536396 16.970270 7.822904
v -3.546219 16.753418 5.099141
v -9.766028 16.753424 7.822900
v -3.546213 16.753428 7.822901
v -9.766026 16.753424 5.099133
v -11.751048 18.788107 7.425391
v -11.751048 18.788107 7.822906
v -11.885488 24.609617 7.822907
v -11.751056 18.788111 5.951272
v -11.885495 24.609617 5.099135
v -11.751057 18.788107 5.099132
v -11.885488 24.609617 7.822907
v -11.751048 18.788107 7.822906
v -3.550485 24.609621 7.822902
v -10.536396 16.970270 7.822904
v -3.550481 16.953394 7.822900
v -12.384475 17.999990 7.425389
v -11.751048 18.788107 7.425391
v -12.384474 19.003080 7.425391
v -12.276270 17.455997 7.425387
v -11.968112 16.994799 7.425388
v -10.536397 16.970274 7.425390
v -11.506932 16.686651 7.425389
v -10.962927 16.578423 7.425389
v -10.418922 16.686647 7.425384
v -10.418930 16.686647 5.951265
v -10.536397 16.970274 7.425390
v -10.418922 16.686647 7.425384
v -10.536404 16.970276 5.951270
v -11.751056 18.788111 5.951272
v -12.384474 19.003080 7.425391
v -11.751048 18.788107 7.425391
v -12.384480 19.003086 5.951271
v -10.536397 16.970274 7.425390
v -11.751048 18.788107 7.822906
v -11.751048 18.788107 7.425391
v -10.536396 16.970270 7.822904
v -9.766028 16.753424 7.822900
v -9.766026 16.753424 5.099133
v -9.766028 16.753424 7.822900
v -3.546213 16.753428 7.822901
v -3.550492 24.609629 5.099146
v -11.885488 24.609617 7.822907
v -3.550485 24.609621 7.822902
v -11.885495 24.609617 5.099135
v -3.550485 24.609621 7.822902
v -3.550487 16.953390 5.099135
v -3.550492 24.609629 5.099146
v -3.550481 16.953394 7.822900
v -3.546219 16.753418 5.099141
v -3.546213 16.753428 7.822901
v -11.286456 18.323561 5.099117
v -10.962897 18.457582 5.188963
v -11.286456 18.323561 5.188962
v -10.962897 18.457582 5.099118
v -10.639338 18.323549 5.188963
v -10.639338 18.323549 5.099118
v -11.286456 18.323561 5.188962
v -11.420474 18.000010 5.099117
v -11.286456 18.323561 5.099117
v -11.420474 18.000010 5.188961
v -11.286456 17.676445 5.099117
v -11.286456 17.676445 5.188962
v -11.286456 17.676445 5.188962
v -10.962893 17.542412 5.099117
v -11.286456 17.676445 5.099117
v -10.962893 17.542412 5.188961
v -10.639337 17.676447 5.099117
v -10.639337 17.676447 5.188962
v -10.639337 17.676447 5.188962
v -10.505320 18.000010 5.099118
v -10.639337 17.676447 5.099117
v -10.505320 18.000010 5.188962
v -10.639338 18.323549 5.099118
v -10.639338 18.323549 5.188963
v 10.962935 16.885426 5.951270
v 10.418932 16.686647 5.951265
v 10.536405 16.970276 5.951270
v 10.962934 16.578424 5.951270
v 11.389457 16.970261 5.951270
v 11.506946 16.686651 5.951270
v 11.968127 16.994797 5.951270
v 11.751055 17.211870 5.951270
v 12.276276 17.455996 5.951269
v 11.992660 17.573460 5.951270
v 12.077498 18.000002 5.951272
v 12.384483 17.999987 5.951272
v 11.992658 18.426512 5.951272
v 12.384481 19.003086 5.951271
v 11.751056 18.788111 5.951272
v 11.992658 18.426512 5.951272
v 11.751057 18.788107 5.099132
v 11.751056 18.788111 5.951272
v 11.992659 18.426508 5.099132
v 12.077498 18.000002 5.951272
v 12.077498 17.999998 5.099131
v 11.992660 17.573460 5.951270
v 11.992660 17.573458 5.099131
v 11.751057 17.211866 5.099130
v 11.751055 17.211870 5.951270
v 10.962935 16.885424 5.099130
v 10.536405 16.970276 5.951270
v 10.536407 16.970274 5.099131
v 10.962935 16.885426 5.951270
v 11.389458 16.970259 5.099130
v 11.389457 16.970261 5.951270
v 11.751055 17.211870 5.951270
v 11.751057 17.211866 5.099130
v 10.536405 16.970276 5.951270
v 3.550489 16.953390 5.099135
v 10.536407 16.970274 5.099131
v 3.550483 16.953394 7.822900
v 10.536399 16.970274 7.425390
v 10.536398 16.970270 7.822904
v 3.546221 16.753418 5.099141
v 9.766029 16.753424 7.822900
v 9.766027 16.753424 5.099133
v 3.546215 16.753428 7.822901
v 11.751049 18.788107 7.425391
v 11.885489 24.609617 7.822907
v 11.751049 18.788107 7.822906
v 11.751056 18.788111 5.951272
v 11.885495 24.609617 5.099135
v 11.751057 18.788107 5.099132
v 11.885489 24.609617 7.822907
v 3.550486 24.609617 7.822902
v 11.751049 18.788107 7.822906
v 10.536398 16.970270 7.822904
v 3.550483 16.953394 7.822900
v 12.384475 17.999990 7.425389
v 12.384474 19.003080 7.425391
v 11.751049 18.788107 7.425391
v 12.276271 17.455996 7.425387
v 11.968114 16.994799 7.425388
v 10.536399 16.970274 7.425390
v 11.506933 16.686651 7.425389
v 10.962929 16.578423 7.425389
v 10.418924 16.686647 7.425384
v 10.418932 16.686647 5.951265
v 10.536399 16.970274 7.425390
v 10.536405 16.970276 5.951270
v 10.418924 16.686647 7.425384
v 11.751056 18.788111 5.951272
v 12.384474 19.003080 7.425391
v 12.384481 19.003086 5.951271
v 11.751049 18.788107 7.425391
v 10.536399 16.970274 7.425390
v 11.751049 18.788107 7.822906
v 10.536398 16.970270 7.822904
v 11.751049 18.788107 7.425391
v 9.766029 16.753424 7.822900
v 9.766027 16.753424 5.099133
v 9.766029 16.753424 7.822900
v 3.546215 16.753428 7.822901
v 3.550493 24.609629 5.099146
v 11.885489 24.609617 7.822907
v 11.885495 24.609617 5.099135
v 3.550486 24.609617 7.822902
v 3.550486 24.609617 7.822902
v 3.550489 16.953390 5.099135
v 3.550483 16.953394 7.822900
v 3.550493 24.609629 5.099146
v 3.546221 16.753418 5.099141
v 3.546215 16.753428 7.822901
v 10.962898 18.457582 5.188963
v 11.286456 18.323561 5.099117
v 11.286456 18.323561 5.188962
v 10.962898 18.457582 5.099118
v 10.639338 18.323549 5.188963
v 10.639338 18.323549 5.099118
v 11.420475 18.000010 5.099117
v 11.286456 18.323561 5.188962
v 11.286456 18.323561 5.099117
v 11.420475 18.000010 5.188961
v 11.286456 17.676445 5.099117
v 11.286456 17.676445 5.188962
v 10.962894 17.542412 5.099117
v 11.286456 17.676445 5.188962
v 11.286456 17.676445 5.099117
v 10.962894 17.542412 5.188961
v 10.639338 17.676447 5.099117
v 10.639338 17.676447 5.188962
v 10.505320 18.000010 5.099118
v 10.639338 17.676447 5.188962
v 10.639338 17.676447 5.099117
v 10.505320 18.000010 5.188962
v 10.639338 18.323549 5.099118
v 10.639338 18.323549 5.188963
v -11.286456 18.323561 5.188962
v -10.962897 18.457582 5.188963
v -10.962897 18.000010 5.188962
v -11.420474 18.000010 5.188961
v -10.639338 18.323549 5.188963
v -11.286456 17.676445 5.188962
v -10.505320 18.000010 5.188962
v -10.962893 17.542412 5.188961
v -10.639337 17.676447 5.188962
v 11.286456 18.323561 5.188962
v 10.962898 18.000010 5.188962
v 10.962898 18.457582 5.188963
v 11.420475 18.000010 5.188961
v 10.639338 18.323549 5.188963
v 11.286456 17.676445 5.188962
v 10.505320 18.000010 5.188962
v 10.962894 17.542412 5.188961
v 10.639338 17.676447 5.188962
v -11.263610 28.880079 5.951249
v -10.793793 29.211641 5.951246
v -10.829659 28.908525 5.951249
v -11.343063 29.176611 5.951249
v -11.840524 28.931284 5.951248
v -11.653644 28.687738 5.951248
v -12.206237 28.514269 5.951248
v -11.940380 28.360769 5.951248
v -12.080169 27.948973 5.951248
v -12.384525 27.989042 5.951249
v -12.051726 27.515020 5.951249
v -12.384524 26.985945 5.951249
v -11.859382 27.124998 5.951249
v -12.051726 27.515020 5.951249
v -11.859382 27.124998 5.099117
v -11.859382 27.124998 5.951249
v -12.051727 27.515020 5.099117
v -12.080169 27.948973 5.951248
v -12.080169 27.948973 5.099116
v -11.940380 28.360769 5.951248
v -11.940377 28.360769 5.099116
v -11.653644 28.687742 5.099116
v -11.653644 28.687738 5.951248
v -11.263610 28.880079 5.099116
v -10.829659 28.908525 5.951249
v -10.829658 28.908525 5.099114
v -11.263610 28.880079 5.951249
v -11.653644 28.687738 5.951248
v -11.653644 28.687742 5.099116
v -11.343065 29.176615 7.425370
v -10.829659 28.908525 7.425371
v -10.793793 29.211641 7.425376
v -11.840531 28.931273 7.425370
v -12.206239 28.514261 7.425368
v -11.859384 27.124998 7.425371
v -12.384525 27.989042 7.425368
v -12.384526 26.985949 7.425371
v -10.793793 29.211641 5.951246
v -10.829659 28.908525 7.425371
v -10.829659 28.908525 5.951249
v -10.793793 29.211641 7.425376
v -11.859382 27.124998 5.951249
v -12.384526 26.985949 7.425371
v -12.384524 26.985945 5.951249
v -11.859384 27.124998 7.425371
v -10.829659 28.908525 7.425371
v -11.859385 27.124998 7.822888
v -10.829659 28.908533 7.822888
v -11.859384 27.124998 7.425371
v -10.829658 28.908525 5.099114
v -10.829659 28.908525 5.951249
v -3.550536 29.018736 5.099130
v -10.829659 28.908525 7.425371
v -3.550533 29.018740 7.822892
v -10.829659 28.908533 7.822888
v -11.859382 27.124998 5.099117
v -11.859383 25.170549 5.099123
v -11.859382 27.124998 5.951249
v -11.859387 25.170553 7.822887
v -11.859384 27.124998 7.425371
v -11.859385 27.124998 7.822888
v -11.859385 27.124998 7.822888
v -11.859387 25.170553 7.822887
v -3.550535 25.170549 7.822890
v -10.829659 28.908533 7.822888
v -3.550533 29.018740 7.822892
v -11.859383 25.170549 5.099123
v -3.550535 25.170549 7.822890
v -11.859387 25.170553 7.822887
v -3.550540 25.170549 5.099129
v -3.550535 25.170549 7.822890
v -3.550536 29.018736 5.099130
v -3.550533 29.018740 7.822892
v -3.550540 25.170549 5.099129
v 10.793780 29.211637 5.951253
v 11.263597 28.880079 5.951256
v 10.829645 28.908522 5.951256
v 11.343050 29.176607 5.951256
v 11.840510 28.931280 5.951255
v 11.653631 28.687738 5.951256
v 12.206223 28.514265 5.951255
v 11.940367 28.360769 5.951255
v 12.080155 27.948973 5.951256
v 12.384512 27.989038 5.951256
v 12.051711 27.515017 5.951256
v 12.384508 26.985941 5.951256
v 11.859367 27.124994 5.951257
v 11.859365 27.124994 5.099125
v 12.051711 27.515017 5.951256
v 11.859367 27.124994 5.951257
v 12.051711 27.515017 5.099125
v 12.080155 27.948973 5.951256
v 12.080154 27.948969 5.099124
v 11.940367 28.360769 5.951255
v 11.940364 28.360769 5.099124
v 11.653631 28.687738 5.099124
v 11.653631 28.687738 5.951256
v 10.829645 28.908522 5.951256
v 11.263597 28.880079 5.099124
v 10.829643 28.908522 5.099122
v 11.263597 28.880079 5.951256
v 11.653631 28.687738 5.951256
v 11.653631 28.687738 5.099124
v 10.829645 28.908525 7.425377
v 11.343051 29.176611 7.425376
v 10.793778 29.211637 7.425382
v 11.840518 28.931273 7.425376
v 12.206226 28.514257 7.425375
v 11.859368 27.124994 7.425377
v 12.384512 27.989038 7.425375
v 12.384511 26.985945 7.425377
v 10.793780 29.211637 5.951253
v 10.829645 28.908525 7.425377
v 10.793778 29.211637 7.425382
v 10.829645 28.908522 5.951256
v 11.859367 27.124994 5.951257
v 12.384511 26.985945 7.425377
v 11.859368 27.124994 7.425377
v 12.384508 26.985941 5.951256
v 10.829645 28.908525 7.425377
v 11.859369 27.124994 7.822894
v 11.859368 27.124994 7.425377
v 10.829645 28.908533 7.822894
v 10.829643 28.908522 5.099122
v 3.550527 29.018732 5.099133
v 10.829645 28.908522 5.951256
v 10.829645 28.908525 7.425377
v 3.550522 29.018736 7.822892
v 10.829645 28.908533 7.822894
v 11.859365 27.124994 5.099125
v 11.859367 27.124994 5.951257
v 11.859367 25.170549 5.099131
v 11.859372 25.170549 7.822894
v 11.859368 27.124994 7.425377
v 11.859369 27.124994 7.822894
v 11.859369 27.124994 7.822894
v 3.550522 25.170549 7.822892
v 11.859372 25.170549 7.822894
v 10.829645 28.908533 7.822894
v 3.550522 29.018736 7.822892
v 11.859367 25.170549 5.099131
v 3.550522 25.170549 7.822892
v 3.550529 25.170549 5.099133
v 11.859372 25.170549 7.822894
v 3.550522 25.170549 7.822892
v 3.550527 29.018732 5.099133
v 3.550529 25.170549 5.099133
v 3.550522 29.018736 7.822892
v 11.298588 27.479921 5.099114
v 10.975029 27.345900 5.188959
v 11.298588 27.479921 5.188959
v 10.975029 27.345900 5.099115
v 10.651469 27.479933 5.188960
v 10.651469 27.479933 5.099115
v 11.298588 27.479921 5.188959
v 11.432607 27.803473 5.099114
v 11.298588 27.479921 5.099114
v 11.432607 27.803473 5.188958
v 11.298588 28.127035 5.099115
v 11.298588 28.127035 5.188959
v 11.298588 28.127035 5.188959
v 10.975027 28.261068 5.099114
v 11.298588 28.127035 5.099115
v 10.975027 28.261068 5.188958
v 10.651470 28.127035 5.099114
v 10.651470 28.127035 5.188959
v 10.651470 28.127035 5.188959
v 10.517450 27.803473 5.099115
v 10.651470 28.127035 5.099114
v 10.517450 27.803473 5.188959
v 10.651469 27.479933 5.099115
v 10.651469 27.479933 5.188960
v -10.975140 27.345903 5.188951
v -11.298697 27.479921 5.099107
v -11.298697 27.479921 5.188951
v -10.975140 27.345903 5.099108
v -10.651580 27.479933 5.188951
v -10.651580 27.479933 5.099108
v -11.432715 27.803473 5.099107
v -11.298697 27.479921 5.188951
v -11.298697 27.479921 5.099107
v -11.432715 27.803473 5.188950
v -11.298696 28.127039 5.099107
v -11.298696 28.127039 5.188951
v -10.975136 28.261072 5.099108
v -11.298696 28.127039 5.188951
v -11.298696 28.127039 5.099107
v -10.975136 28.261072 5.188950
v -10.651579 28.127039 5.099108
v -10.651579 28.127039 5.188951
v -10.517561 27.803473 5.099108
v -10.651579 28.127039 5.188951
v -10.651579 28.127039 5.099108
v -10.517561 27.803473 5.188951
v -10.651580 27.479933 5.099108
v -10.651580 27.479933 5.188951
v 11.298588 27.479921 5.188959
v 10.975029 27.345900 5.188959
v 10.975029 27.803473 5.188959
v 11.432607 27.803473 5.188958
v 10.651469 27.479933 5.188960
v 11.298588 28.127035 5.188959
v 10.517450 27.803473 5.188959
v 10.975027 28.261068 5.188958
v 10.651470 28.127035 5.188959
v -11.298697 27.479921 5.188951
v -10.975140 27.803473 5.188951
v -10.975140 27.345903 5.188951
v -11.432715 27.803473 5.188950
v -10.651580 27.479933 5.188951
v -11.298696 28.127039 5.188951
v -10.517561 27.803473 5.188951
v -10.975136 28.261072 5.188950
v -10.651579 28.127039 5.188951
vn -0.0000 -0.0000 1.0000
vn 0.8315 0.5556 -0.0000
vn 0.8315 0.5555 -0.0000
vn 0.9239 0.3827 -0.0000
vn 1.0000 -0.0000 -0.0000
vn 0.9239 -0.3827 -0.0000
vn 0.7071 -0.7071 -0.0000
vn -0.1951 -0.9808 -0.0000
vn -0.0000 -1.0000 -0.0000
vn 0.3827 -0.9239 -0.0000
vn 0.0024 -1.0000 -0.0000
vn -0.0000 1.0000 -0.0000
vn 0.9997 -0.0231 -0.0000
vn -0.0000 -0.0000 -1.0000
vn -0.9239 0.3827 -0.0000
vn -0.3214 0.9470 -0.0000
vn 0.8315 -0.5556 -0.0000
vn 0.7071 -0.7072 -0.0000
vn 0.0035 -1.0000 -0.0000
vn 0.9998 -0.0199 -0.0000
vn -0.3214 0.9469 -0.0000
vn 0.0061 -1.0000 -0.0000
vn 0.9998 -0.0193 -0.0000
vn -1.0000 -0.0000 -0.0000
vn -1.0000 0.0005 -0.0000
vn -0.8315 0.5556 -0.0000
vn -0.9239 -0.3827 -0.0000
vn -0.7071 -0.7071 -0.0000
vn 0.1951 -0.9808 -0.0000
vn -0.3827 -0.9239 -0.0000
vn -0.0024 -1.0000 -0.0000
vn -0.9997 -0.0231 -0.0000
vn 0.3214 0.9469 -0.0000
vn -0.8315 -0.5556 -0.0000
vn -0.8315 0.5555 -0.0000
vn -0.0035 -1.0000 -0.0000
vn -0.9998 -0.0199 -0.0000
vn 0.3214 0.9470 -0.0000
vn -0.0061 -1.0000 -0.0000
vn -0.9998 -0.0193 -0.0000
vn 1.0000 0.0005 -0.0000
vn 0.7071 0.7071 -0.0000
vn -0.7071 0.7071 -0.0000
vn -0.7072 0.7071 -0.0000
vn -0.7071 -0.7071 -0.0001
vn 0.7071 -0.7071 -0.0001
vn -0.7071 0.7071 0.0001
vn -0.7071 -0.7072 -0.0000
vn 0.7070 0.7072 -0.0000
vn 0.7071 0.7071 -0.0001
vn 0.7072 0.7070 -0.0000
vn -0.1951 0.9808 -0.0000
vn 0.3827 0.9239 -0.0000
vn 0.0024 1.0000 -0.0000
vn 0.9997 0.0231 -0.0000
vn -0.3214 -0.9470 -0.0000
vn -0.7070 0.7072 -0.0000
vn -0.7072 0.7070 -0.0000
vn -0.7072 -0.7070 -0.0000
vn 0.7072 -0.7070 -0.0000
vn 0.7072 0.7071 -0.0000
vn 0.7072 0.7071 -0.0001
vn 0.1951 0.9808 -0.0000
vn -0.3827 0.9239 -0.0000
vn -0.0024 1.0000 -0.0000
vn -0.9997 0.0231 -0.0000
vn 0.3214 -0.9470 -0.0000
vn -0.7072 0.7071 0.0001
vn 0.8969 0.4423 -0.0000
vn 0.9659 0.2588 -0.0000
vn 0.9914 -0.1305 -0.0000
vn 0.8660 -0.5000 -0.0000
vn 0.6088 -0.7933 -0.0000
vn 0.0654 -0.9979 -0.0000
vn 0.2588 -0.9659 -0.0000
vn 0.6087 -0.7934 -0.0000
vn -0.9931 0.1175 -0.0000
vn -0.2560 0.9667 -0.0000
vn 0.0151 -0.9999 -0.0000
vn -0.8969 0.4423 -0.0000
vn -0.9659 0.2588 -0.0000
vn -0.9914 -0.1305 -0.0000
vn -0.8660 -0.5000 -0.0000
vn -0.6088 -0.7933 -0.0000
vn -0.0654 -0.9979 -0.0000
vn -0.2588 -0.9659 -0.0000
vn -0.6087 -0.7934 -0.0000
vn 0.9931 0.1175 -0.0000
vn 0.2560 0.9667 -0.0000
vn -0.0151 -0.9999 -0.0000
vt 0.658624 -16.332041
vt 0.656855 -16.336340
vt 0.665047 -16.333326
vt 0.665047 -16.337978
vt 0.671470 -16.332041
vt 0.673239 -16.336340
vt 0.680184 -16.331669
vt 0.676916 -16.328381
vt 0.684825 -16.324680
vt 0.680554 -16.322901
vt 0.681832 -16.316437
vt 0.686455 -16.316437
vt 0.680554 -16.309975
vt 0.686455 -16.301237
vt 0.676916 -16.304495
vt 17.304495 0.305376
vt 17.304495 0.292514
vt 17.309975 0.305376
vt 17.309975 0.292514
vt 17.316437 0.305376
vt 17.316437 0.292514
vt 17.322901 0.305376
vt 17.322901 0.292514
vt 17.328381 0.292514
vt 17.328381 0.305376
vt 0.341376 0.292514
vt 0.341376 0.305376
vt 0.334953 0.292514
vt 0.334953 0.305376
vt 0.328530 0.292514
vt 0.328530 0.305376
vt 0.323084 0.305376
vt 0.323084 0.292514
vt 0.446579 0.292514
vt 0.446579 0.333628
vt 0.341376 0.327627
vt 0.341376 0.333628
vt 0.647023 0.292514
vt 0.647023 0.333628
vt 0.553357 0.292514
vt 0.553357 0.333628
vt 17.304495 0.333628
vt 17.216280 0.333628
vt 17.304495 0.327627
vt 17.216280 0.292514
vt 0.323084 -16.304495
vt 0.446579 -16.216280
vt 0.321059 -16.216280
vt 0.341376 -16.332041
vt 0.446579 -16.332296
vt 0.313545 -16.301237
vt 0.313545 -16.316437
vt 0.315175 -16.324680
vt 0.319815 -16.331669
vt 0.326761 -16.336340
vt 0.334953 -16.337978
vt 0.343145 -16.336340
vt -16.332041 0.305376
vt -16.332041 0.327627
vt -16.336340 0.305376
vt -16.336340 0.327627
vt 0.686455 0.305376
vt 0.686455 0.327627
vt 0.676916 0.305376
vt 0.676916 0.327627
vt 17.332041 0.333628
vt 17.332041 0.327627
vt 0.626642 -16.468422
vt 0.624872 -16.472719
vt 0.633065 -16.469707
vt 0.633065 -16.474360
vt 0.639488 -16.468422
vt 0.641257 -16.472719
vt 0.648202 -16.468050
vt 0.644933 -16.464760
vt 0.652843 -16.461061
vt 0.648572 -16.459280
vt 0.649849 -16.452818
vt 0.654472 -16.452818
vt 0.648572 -16.446354
vt 0.654472 -16.437616
vt 0.644933 -16.440874
vt 17.440874 0.305376
vt 17.440874 0.292514
vt 17.446354 0.305376
vt 17.446354 0.292514
vt 17.452818 0.305376
vt 17.452818 0.292514
vt 17.459280 0.305376
vt 17.459280 0.292514
vt 17.464760 0.292514
vt 17.464760 0.305376
vt 0.373358 0.292514
vt 0.373358 0.305376
vt 0.366935 0.292514
vt 0.366935 0.305376
vt 0.360512 0.292514
vt 0.360512 0.305376
vt 0.355067 0.305376
vt 0.355067 0.292514
vt 0.446708 0.292514
vt 0.446708 0.333628
vt 0.373358 0.327627
vt 0.373358 0.333628
vt 17.440874 0.333628
vt 17.335327 0.333628
vt 17.440874 0.327627
vt 17.335327 0.292514
vt 0.355067 -16.440874
vt 0.446643 -16.335327
vt 0.352977 -16.335327
vt 0.373358 -16.468422
vt 0.446708 -16.468678
vt 0.355067 -16.440874
vt 0.345528 -16.437616
vt 0.345528 -16.452818
vt 0.347157 -16.461061
vt 0.351798 -16.468050
vt 0.358743 -16.472719
vt 0.366935 -16.474360
vt 0.375128 -16.472719
vt -16.468422 0.305376
vt -16.468422 0.327627
vt -16.472719 0.305376
vt -16.472719 0.327627
vt 0.654472 0.305376
vt 0.654472 0.327627
vt 0.644933 0.305376
vt 0.644933 0.327627
vt 17.468422 0.333628
vt 17.468422 0.327627
vt 0.594659 -16.604801
vt 0.592890 -16.609098
vt 0.601083 -16.606087
vt 0.601083 -16.610739
vt 0.607506 -16.604801
vt 0.609275 -16.609098
vt 0.616220 -16.604429
vt 0.612951 -16.601141
vt 0.620860 -16.597441
vt 0.616589 -16.595661
vt 0.617867 -16.589197
vt 0.622490 -16.589197
vt 0.616589 -16.582735
vt 0.622490 -16.573997
vt 0.612951 -16.577255
vt 17.577255 0.305376
vt 17.577255 0.292514
vt 17.582735 0.305376
vt 17.582735 0.292514
vt 17.589197 0.305376
vt 17.589197 0.292514
vt 17.595661 0.305376
vt 17.595661 0.292514
vt 17.601141 0.292514
vt 17.601141 0.305376
vt 0.405341 0.292514
vt 0.405341 0.305376
vt 0.398917 0.292514
vt 0.398917 0.305376
vt 0.392494 0.292514
vt 0.392494 0.305376
vt 0.387049 0.305376
vt 0.387049 0.292514
vt 0.446709 0.292514
vt 0.446709 0.333628
vt 0.405341 0.327627
vt 0.405341 0.333628
vt 17.577255 0.333628
vt 17.471706 0.333628
vt 17.577255 0.327627
vt 17.471706 0.292514
vt 0.387049 -16.577255
vt 0.446708 -16.471706
vt 0.385024 -16.471706
vt 0.405341 -16.604801
vt 0.446709 -16.605057
vt 0.387049 -16.577255
vt 0.377510 -16.573997
vt 0.377510 -16.589197
vt 0.379139 -16.597441
vt 0.383780 -16.604429
vt 0.390725 -16.609098
vt 0.398917 -16.610739
vt 0.407110 -16.609098
vt -16.604801 0.305376
vt -16.604801 0.327627
vt -16.609098 0.305376
vt -16.609098 0.327627
vt 0.622490 0.305376
vt 0.622490 0.327627
vt 0.612951 0.305376
vt 0.612951 0.327627
vt 17.604801 0.333628
vt 17.604801 0.327627
vt 0.614976 0.333628
vt 0.553292 0.333628
vt 0.614976 0.292514
vt 0.553292 0.292514
vt 0.678940 0.292514
vt 0.678941 0.333628
vt 0.553421 0.292514
vt 0.553421 0.333628
vt -16.332296 0.333628
vt -16.332296 0.292514
vt -16.216280 0.333628
vt -16.216280 0.292514
vt -16.605057 0.333628
vt -16.605057 0.292514
vt -16.471706 0.333628
vt -16.471706 0.292514
vt -16.468678 0.292514
vt -16.335327 0.292514
vt -16.468678 0.333628
vt -16.335327 0.333628
vt 0.341282 -16.332041
vt 0.334859 -16.333326
vt 0.343051 -16.336340
vt 0.334859 -16.337978
vt 0.328436 -16.332041
vt 0.326667 -16.336338
vt 0.319722 -16.331669
vt 0.322991 -16.328381
vt 0.315081 -16.324680
vt 0.319352 -16.322901
vt 0.318075 -16.316437
vt 0.313452 -16.316437
vt 0.319352 -16.309975
vt 0.313452 -16.301237
vt 0.322991 -16.304495
vt -16.304495 0.305377
vt -16.309975 0.305377
vt -16.304495 0.292514
vt -16.309975 0.292514
vt -16.316437 0.305377
vt -16.316437 0.292514
vt -16.322901 0.305377
vt -16.322901 0.292514
vt -16.328381 0.292514
vt -16.328381 0.305377
vt 0.658718 0.292514
vt 0.665141 0.292514
vt 0.658718 0.305377
vt 0.665141 0.305377
vt 0.671564 0.292514
vt 0.671564 0.305377
vt 0.677009 0.305377
vt 0.677009 0.292514
vt 0.553515 0.292514
vt 0.553515 0.333628
vt 0.658717 0.327628
vt 0.658717 0.333628
vt 0.446550 0.333628
vt 0.352884 0.333628
vt 0.446550 0.292514
vt 0.352884 0.292514
vt -16.216280 0.333628
vt -16.304495 0.333628
vt -16.304495 0.327628
vt -16.216280 0.292514
vt 0.553514 -16.216280
vt 0.677009 -16.304495
vt 0.679033 -16.216280
vt 0.658717 -16.332041
vt 0.553515 -16.332296
vt 0.686548 -16.301237
vt 0.686548 -16.316437
vt 0.684919 -16.324680
vt 0.680278 -16.331669
vt 0.658717 -16.332041
vt 0.673333 -16.336338
vt 0.665141 -16.337978
vt 0.656948 -16.336340
vt 17.336340 0.327628
vt 17.332041 0.327628
vt 17.336340 0.305377
vt 17.332041 0.305377
vt 0.322991 0.327628
vt 0.313452 0.327628
vt 0.322991 0.305377
vt 0.313452 0.305377
vt -16.332041 0.327628
vt -16.332041 0.333628
vt 0.373264 -16.468422
vt 0.366841 -16.469707
vt 0.375033 -16.472719
vt 0.366841 -16.474360
vt 0.360418 -16.468422
vt 0.358648 -16.472719
vt 0.351703 -16.468050
vt 0.354972 -16.464760
vt 0.347063 -16.461061
vt 0.351334 -16.459280
vt 0.350056 -16.452818
vt 0.345433 -16.452818
vt 0.351334 -16.446354
vt 0.345433 -16.437616
vt 0.354972 -16.440874
vt -16.440874 0.305377
vt -16.446354 0.305377
vt -16.440874 0.292514
vt -16.446354 0.292514
vt -16.452818 0.305377
vt -16.452818 0.292514
vt -16.459280 0.305377
vt -16.459280 0.292514
vt -16.464760 0.292514
vt -16.464760 0.305377
vt 0.626736 0.292514
vt 0.633159 0.292514
vt 0.626736 0.305377
vt 0.633159 0.305377
vt 0.639582 0.292514
vt 0.639582 0.305377
vt 0.645028 0.305377
vt 0.645028 0.292514
vt 0.553386 0.292514
vt 0.553386 0.333628
vt 0.626736 0.327628
vt 0.626736 0.333628
vt -16.335327 0.333628
vt -16.440874 0.333628
vt -16.440874 0.327628
vt -16.335327 0.292514
vt 0.553450 -16.335327
vt 0.645028 -16.440874
vt 0.647116 -16.335327
vt 0.626736 -16.468422
vt 0.553386 -16.468678
vt 0.654567 -16.437616
vt 0.645028 -16.440874
vt 0.654567 -16.452818
vt 0.652937 -16.461061
vt 0.648297 -16.468050
vt 0.641352 -16.472719
vt 0.633159 -16.474360
vt 0.624967 -16.472719
vt 17.472719 0.327628
vt 17.468422 0.327628
vt 17.472719 0.305377
vt 17.468422 0.305377
vt 0.354972 0.327628
vt 0.345434 0.327628
vt 0.354972 0.305377
vt 0.345433 0.305377
vt -16.468422 0.327628
vt -16.468422 0.333628
vt 0.405245 -16.604801
vt 0.398822 -16.606087
vt 0.407015 -16.609098
vt 0.398822 -16.610739
vt 0.392399 -16.604801
vt 0.390630 -16.609098
vt 0.383685 -16.604429
vt 0.386954 -16.601139
vt 0.379044 -16.597441
vt 0.383315 -16.595661
vt 0.382038 -16.589197
vt 0.377415 -16.589197
vt 0.383315 -16.582735
vt 0.377415 -16.573997
vt 0.386954 -16.577255
vt -16.577255 0.305376
vt -16.582735 0.305376
vt -16.577255 0.292514
vt -16.582735 0.292514
vt -16.589197 0.305376
vt -16.589197 0.292514
vt -16.595661 0.305376
vt -16.595661 0.292514
vt -16.601139 0.292514
vt -16.601139 0.305376
vt 0.594755 0.292514
vt 0.601178 0.292514
vt 0.594755 0.305376
vt 0.601178 0.305376
vt 0.607601 0.292514
vt 0.607601 0.305376
vt 0.613046 0.305376
vt 0.613046 0.292514
vt 0.553387 0.292514
vt 0.553387 0.333628
vt 0.594755 0.327628
vt 0.594755 0.333628
vt -16.471706 0.333628
vt -16.577255 0.333628
vt -16.577255 0.327628
vt -16.471706 0.292514
vt 0.553386 -16.471706
vt 0.613046 -16.577255
vt 0.615070 -16.471706
vt 0.594755 -16.604801
vt 0.553387 -16.605057
vt 0.622585 -16.573997
vt 0.622585 -16.589197
vt 0.620956 -16.597441
vt 0.616315 -16.604429
vt 0.609370 -16.609098
vt 0.601178 -16.610739
vt 0.592986 -16.609098
vt 17.609098 0.327628
vt 17.604801 0.327628
vt 17.609098 0.305376
vt 17.604801 0.305376
vt 0.386954 0.327628
vt 0.377415 0.327628
vt 0.386954 0.305376
vt 0.377415 0.305376
vt -16.604801 0.327628
vt -16.604801 0.333628
vt 0.446614 0.292514
vt 0.446614 0.333628
vt 0.384930 0.292514
vt 0.384930 0.333628
vt 0.446486 0.333628
vt 0.320967 0.333628
vt 0.446486 0.292514
vt 0.320966 0.292514
vt 17.216280 0.292514
vt 17.332296 0.292514
vt 17.216280 0.333628
vt 17.332296 0.333628
vt 17.471706 0.292514
vt 17.605057 0.292514
vt 17.471706 0.333628
vt 17.605057 0.333628
vt 17.335327 0.333628
vt 17.335327 0.292514
vt 17.468678 0.333628
vt 17.468678 0.292514
vt 0.670013 0.293870
vt 0.665140 0.293870
vt 0.670013 0.292514
vt 0.665140 0.292514
vt 0.660268 0.293870
vt 0.660268 0.292514
vt 17.311535 0.292514
vt 17.316437 0.292514
vt 17.311535 0.293870
vt 17.316437 0.293870
vt 17.321341 0.292514
vt 17.321341 0.293870
vt 0.329987 0.292514
vt 0.334860 0.292514
vt 0.329987 0.293870
vt 0.334860 0.293870
vt 0.339732 0.292514
vt 0.339732 0.293870
vt -16.321341 0.292514
vt -16.316437 0.292514
vt -16.321341 0.293870
vt -16.316437 0.293870
vt -16.311535 0.292514
vt -16.311535 0.293870
vt 0.638031 0.293870
vt 0.633159 0.293870
vt 0.638031 0.292514
vt 0.633159 0.292514
vt 0.628286 0.293870
vt 0.628286 0.292514
vt 17.447914 0.292514
vt 17.452818 0.292514
vt 17.447914 0.293870
vt 17.452818 0.293870
vt 17.457720 0.292514
vt 17.457720 0.293870
vt 0.361969 0.292514
vt 0.366841 0.292514
vt 0.361969 0.293870
vt 0.366841 0.293870
vt 0.371714 0.292514
vt 0.371714 0.293870
vt -16.457720 0.292514
vt -16.452818 0.292514
vt -16.457720 0.293870
vt -16.452818 0.293870
vt -16.447914 0.292514
vt -16.447914 0.293870
vt 0.606050 0.293870
vt 0.601177 0.293870
vt 0.606050 0.292514
vt 0.601177 0.292514
vt 0.596305 0.293870
vt 0.596305 0.292514
vt 17.584295 0.292514
vt 17.589197 0.292514
vt 17.584295 0.293870
vt 17.589197 0.293870
vt 17.594101 0.292514
vt 17.594101 0.293870
vt 0.393950 0.292514
vt 0.398823 0.292514
vt 0.393950 0.293870
vt 0.398823 0.293870
vt 0.403695 0.292514
vt 0.403695 0.293870
vt -16.594101 0.292514
vt -16.589197 0.292514
vt -16.594101 0.293870
vt -16.589197 0.293870
vt -16.584295 0.292514
vt -16.584295 0.293870
vt 0.330080 0.293870
vt 0.330080 0.292514
vt 0.334953 0.293870
vt 0.334953 0.292514
vt 0.339826 0.293870
vt 0.339826 0.292514
vt -16.311535 0.292514
vt -16.311535 0.293870
vt -16.316437 0.292514
vt -16.316437 0.293870
vt -16.321341 0.292514
vt -16.321341 0.293870
vt 0.669920 0.292514
vt 0.669920 0.293870
vt 0.665047 0.292514
vt 0.665047 0.293870
vt 0.660174 0.292514
vt 0.660174 0.293870
vt 17.321341 0.292514
vt 17.321341 0.293870
vt 17.316437 0.292514
vt 17.316437 0.293870
vt 17.311535 0.292514
vt 17.311535 0.293870
vt 0.362063 0.293870
vt 0.362063 0.292514
vt 0.366935 0.293870
vt 0.366935 0.292514
vt 0.371808 0.293870
vt 0.371808 0.292514
vt -16.447914 0.292514
vt -16.447914 0.293870
vt -16.452818 0.292514
vt -16.452818 0.293870
vt -16.457720 0.292514
vt -16.457720 0.293870
vt 0.637937 0.292514
vt 0.637937 0.293870
vt 0.633065 0.292514
vt 0.633065 0.293870
vt 0.628192 0.292514
vt 0.628192 0.293870
vt 17.457720 0.292514
vt 17.457720 0.293870
vt 17.452818 0.293870
vt 17.447914 0.292514
vt 17.447914 0.293870
vt 0.394045 0.293870
vt 0.394045 0.292514
vt 0.398917 0.293870
vt 0.398917 0.292514
vt 0.403790 0.293870
vt 0.403790 0.292514
vt -16.584295 0.292514
vt -16.584295 0.293870
vt -16.589197 0.292514
vt -16.589197 0.293870
vt -16.594101 0.292514
vt -16.594101 0.293870
vt 0.605955 0.292514
vt 0.605955 0.293870
vt 0.601082 0.292514
vt 0.601082 0.293870
vt 0.596210 0.292514
vt 0.596210 0.293870
vt 17.594101 0.292514
vt 17.594101 0.293870
vt 17.589197 0.293870
vt 17.584295 0.292514
vt 17.584295 0.293870
vt 0.334860 -16.316437
vt 0.334860 -16.309504
vt 0.329987 -16.311535
vt 0.327969 -16.316437
vt 0.339732 -16.311535
vt 0.329987 -16.321341
vt 0.341751 -16.316437
vt 0.334860 -16.323372
vt 0.339732 -16.321341
vt 0.366841 -16.452818
vt 0.366841 -16.445883
vt 0.361969 -16.447914
vt 0.359951 -16.452818
vt 0.371714 -16.447914
vt 0.361969 -16.457720
vt 0.373732 -16.452818
vt 0.366841 -16.459751
vt 0.371714 -16.457720
vt 0.398823 -16.589197
vt 0.398823 -16.582264
vt 0.393950 -16.584295
vt 0.391932 -16.589197
vt 0.403695 -16.584295
vt 0.393950 -16.594101
vt 0.405714 -16.589197
vt 0.398823 -16.596132
vt 0.403695 -16.594101
vt 0.665047 -16.309504
vt 0.665047 -16.316437
vt 0.669920 -16.311535
vt 0.671938 -16.316437
vt 0.660174 -16.311535
vt 0.669920 -16.321341
vt 0.658156 -16.316437
vt 0.665047 -16.323372
vt 0.660174 -16.321341
vt 0.633065 -16.445883
vt 0.633065 -16.452818
vt 0.637937 -16.447914
vt 0.639956 -16.452818
vt 0.628192 -16.447914
vt 0.637937 -16.457720
vt 0.626174 -16.452818
vt 0.633065 -16.459751
vt 0.628192 -16.457720
vt 0.601083 -16.582264
vt 0.601083 -16.589197
vt 0.605955 -16.584295
vt 0.607973 -16.589197
vt 0.596210 -16.584295
vt 0.605955 -16.594101
vt 0.594192 -16.589197
vt 0.601082 -16.596132
vt 0.596210 -16.594101
vt 0.658615 -19.238899
vt 0.665039 -19.237614
vt 0.656846 -19.234602
vt 0.665039 -19.232962
vt 0.671462 -19.238899
vt 0.673231 -19.234602
vt 0.680176 -19.239271
vt 0.676907 -19.242561
vt 0.684817 -19.246260
vt 0.680546 -19.248039
vt 0.681823 -19.254503
vt 0.686446 -19.254503
vt 0.680546 -19.260967
vt 0.686446 -19.269703
vt 0.676907 -19.266445
vt 20.266445 0.305377
vt 20.260967 0.305377
vt 20.266445 0.292514
vt 20.260967 0.292514
vt 20.254503 0.305377
vt 20.254503 0.292514
vt 20.248039 0.305377
vt 20.248039 0.292514
vt 20.242561 0.292514
vt 20.242561 0.305377
vt 0.658615 0.292514
vt 0.665039 0.292514
vt 0.658615 0.305377
vt 0.665039 0.305377
vt 0.671462 0.292514
vt 0.671462 0.305377
vt 0.676907 0.305377
vt 0.676907 0.292514
vt 0.553413 0.292514
vt 0.553413 0.333628
vt 0.658615 0.327628
vt 0.658615 0.333628
vt 0.446652 0.333628
vt 0.352986 0.333628
vt 0.446652 0.292514
vt 0.352986 0.292514
vt 20.354662 0.333628
vt 20.266445 0.333628
vt 20.266445 0.327628
vt 20.354662 0.292514
vt 0.446588 -19.354662
vt 0.323093 -19.266445
vt 0.321069 -19.354662
vt 0.341385 -19.238899
vt 0.446587 -19.238644
vt 0.313554 -19.269703
vt 0.313554 -19.254503
vt 0.315183 -19.246260
vt 0.319824 -19.239271
vt 0.341385 -19.238899
vt 0.326769 -19.234602
vt 0.334961 -19.232962
vt 0.343154 -19.234602
vt -19.234602 0.327628
vt -19.238899 0.327628
vt -19.234602 0.305377
vt -19.238899 0.305377
vt 0.323093 0.327628
vt 0.313554 0.327628
vt 0.323093 0.305377
vt 0.313554 0.305377
vt 20.238899 0.327628
vt 20.238899 0.333628
vt 0.446588 0.333628
vt 0.321069 0.333628
vt 0.446588 0.292514
vt 0.321069 0.292514
vt -19.354662 0.292514
vt -19.238644 0.292514
vt -19.354662 0.333628
vt -19.238644 0.333628
vt 0.669911 0.293870
vt 0.665038 0.293870
vt 0.669911 0.292514
vt 0.665038 0.292514
vt 0.660166 0.293870
vt 0.660166 0.292514
vt -19.259407 0.292514
vt -19.254503 0.292514
vt -19.259407 0.293870
vt -19.254503 0.293870
vt -19.249601 0.292514
vt -19.249601 0.293870
vt 0.330089 0.292514
vt 0.334962 0.292514
vt 0.330089 0.293870
vt 0.334962 0.293870
vt 0.339834 0.292514
vt 0.339834 0.293870
vt 20.249601 0.292514
vt 20.254503 0.292514
vt 20.249601 0.293870
vt 20.254503 0.293870
vt 20.259407 0.292514
vt 20.259407 0.293870
vt 0.341274 -19.238899
vt 0.343043 -19.234602
vt 0.334851 -19.237614
vt 0.334851 -19.232962
vt 0.328428 -19.238899
vt 0.326659 -19.234602
vt 0.319714 -19.239271
vt 0.322982 -19.242561
vt 0.315073 -19.246260
vt 0.319344 -19.248039
vt 0.318066 -19.254503
vt 0.313443 -19.254503
vt 0.319344 -19.260967
vt 0.313443 -19.269703
vt 0.322982 -19.266445
vt -19.266445 0.305377
vt -19.266445 0.292514
vt -19.260967 0.305377
vt -19.260967 0.292514
vt -19.254503 0.305377
vt -19.254503 0.292514
vt -19.248039 0.305377
vt -19.248039 0.292514
vt -19.242561 0.292514
vt -19.242561 0.305377
vt 0.341274 0.292514
vt 0.341274 0.305377
vt 0.334851 0.292514
vt 0.334851 0.305377
vt 0.328428 0.292514
vt 0.328428 0.305377
vt 0.322982 0.305377
vt 0.322982 0.292514
vt 0.446477 0.292514
vt 0.446477 0.333628
vt 0.341274 0.327628
vt 0.341274 0.333628
vt 0.647124 0.292514
vt 0.647124 0.333628
vt 0.553459 0.292514
vt 0.553459 0.333628
vt -19.266445 0.333628
vt -19.354662 0.333628
vt -19.266445 0.327628
vt -19.354662 0.292514
vt 0.677018 -19.266445
vt 0.553523 -19.354662
vt 0.679042 -19.354662
vt 0.658726 -19.238899
vt 0.553523 -19.238644
vt 0.686556 -19.269703
vt 0.686556 -19.254503
vt 0.684927 -19.246260
vt 0.680286 -19.239271
vt 0.658726 -19.238899
vt 0.673341 -19.234602
vt 0.665149 -19.232962
vt 0.656957 -19.234602
vt 20.238899 0.305377
vt 20.238899 0.327628
vt 20.234602 0.305377
vt 20.234602 0.327628
vt 0.686557 0.305377
vt 0.686556 0.327628
vt 0.677018 0.305377
vt 0.677018 0.327628
vt -19.238899 0.333628
vt -19.238899 0.327628
vt 0.679042 0.292514
vt 0.679042 0.333628
vt 0.553523 0.292514
vt 0.553523 0.333628
vt 20.238644 0.333628
vt 20.238644 0.292514
vt 20.354662 0.333628
vt 20.354662 0.292514
vt 0.329979 0.293870
vt 0.329979 0.292514
vt 0.334851 0.293870
vt 0.334851 0.292514
vt 0.339724 0.293870
vt 0.339724 0.292514
vt 20.259407 0.292514
vt 20.259407 0.293870
vt 20.254503 0.292514
vt 20.249601 0.292514
vt 20.249601 0.293870
vt 0.670021 0.292514
vt 0.670021 0.293870
vt 0.665148 0.292514
vt 0.665148 0.293870
vt 0.660276 0.292514
vt 0.660276 0.293870
vt -19.249601 0.292514
vt -19.249601 0.293870
vt -19.254503 0.292514
vt -19.254503 0.293870
vt -19.259407 0.292514
vt -19.259407 0.293870
vt 0.665038 -19.254503
vt 0.665038 -19.261438
vt 0.669911 -19.259407
vt 0.671929 -19.254503
vt 0.660166 -19.259407
vt 0.669911 -19.249601
vt 0.658147 -19.254503
vt 0.665038 -19.247570
vt 0.660166 -19.249601
vt 0.334851 -19.261438
vt 0.334852 -19.254503
vt 0.329979 -19.259407
vt 0.327961 -19.254503
vt 0.339724 -19.259407
vt 0.329979 -19.249601
vt 0.341742 -19.254503
vt 0.334852 -19.247570
vt 0.339724 -19.249601
vt 0.663040 -16.088196
vt 0.662500 -16.092791
vt 0.669575 -16.087765
vt 0.670772 -16.092258
vt 0.678263 -16.088541
vt 0.675449 -16.084850
vt 0.683770 -16.082222
vt 0.679767 -16.079897
vt 0.681872 -16.073656
vt 0.686455 -16.074263
vt 0.681444 -16.067080
vt 0.686455 -16.059063
vt 0.678547 -16.061171
vt 17.061171 0.305376
vt 17.061171 0.292514
vt 17.067080 0.305376
vt 17.067080 0.292514
vt 17.073656 0.305376
vt 17.073656 0.292514
vt 17.079897 0.305376
vt 17.079897 0.292514
vt 17.084850 0.292514
vt 17.084850 0.305376
vt 0.336960 0.292514
vt 0.336960 0.305376
vt 0.330425 0.292514
vt 0.330425 0.305376
vt 0.324551 0.305376
vt 0.324551 0.292514
vt 0.337500 -16.092791
vt 0.336960 -16.088196
vt 0.329228 -16.092258
vt 0.321737 -16.088541
vt 0.316230 -16.082222
vt 0.321453 -16.061171
vt 0.313545 -16.074263
vt 0.313545 -16.059063
vt -16.088196 0.305376
vt -16.088196 0.327627
vt -16.092791 0.305376
vt -16.092791 0.327628
vt 0.686455 0.305376
vt 0.686455 0.327627
vt 0.678547 0.305376
vt 0.678547 0.327627
vt 17.088198 0.333628
vt 17.061171 0.333628
vt 17.088196 0.327627
vt 17.061171 0.327627
vt 0.446578 0.292514
vt 0.336960 0.327627
vt 0.446578 0.333628
vt 0.336960 0.333628
vt 17.031553 0.292514
vt 17.031553 0.333628
vt 0.446578 -16.031553
vt 0.321453 -16.031553
vt 0.336960 -16.088198
vt 0.446578 -16.089867
vt 0.678547 0.333628
vt 0.553422 0.333628
vt 0.678547 0.292514
vt 0.553422 0.292514
vt -16.089867 0.333628
vt -16.089867 0.292514
vt -16.031553 0.333628
vt -16.031553 0.292514
vt 0.336867 -16.088196
vt 0.330332 -16.087765
vt 0.337407 -16.092791
vt 0.329135 -16.092258
vt 0.321644 -16.088541
vt 0.324458 -16.084850
vt 0.316136 -16.082222
vt 0.320140 -16.079897
vt 0.318035 -16.073656
vt 0.313452 -16.074263
vt 0.318463 -16.067080
vt 0.313452 -16.059063
vt 0.321360 -16.061171
vt -16.061171 0.305377
vt -16.067080 0.305376
vt -16.061171 0.292514
vt -16.067080 0.292514
vt -16.073656 0.305376
vt -16.073656 0.292514
vt -16.079897 0.305376
vt -16.079897 0.292514
vt -16.084850 0.292514
vt -16.084850 0.305376
vt 0.663133 0.292514
vt 0.669668 0.292514
vt 0.663133 0.305376
vt 0.669668 0.305376
vt 0.675542 0.305376
vt 0.675542 0.292514
vt 0.662593 -16.092791
vt 0.670865 -16.092258
vt 0.663133 -16.088196
vt 0.678356 -16.088541
vt 0.683864 -16.082222
vt 0.678640 -16.061171
vt 0.686548 -16.074263
vt 0.686548 -16.059063
vt 17.092791 0.327628
vt 17.088196 0.327628
vt 17.092791 0.305376
vt 17.088196 0.305376
vt 0.321360 0.327628
vt 0.313452 0.327628
vt 0.321360 0.305377
vt 0.313452 0.305376
vt -16.061171 0.327628
vt -16.061171 0.333628
vt -16.088196 0.327628
vt -16.088196 0.333628
vt 0.553515 0.292514
vt 0.663133 0.327628
vt 0.553515 0.333628
vt 0.663133 0.333628
vt -16.031553 0.292514
vt -16.031553 0.333628
vt 0.678640 -16.031553
vt 0.553515 -16.031553
vt 0.553515 -16.089867
vt 0.446485 0.292514
vt 0.446485 0.333628
vt 0.321360 0.292514
vt 0.321360 0.333628
vt 17.031553 0.292514
vt 17.089867 0.292514
vt 17.031553 0.333628
vt 17.089867 0.333628
vt 0.670195 0.293870
vt 0.665323 0.293870
vt 0.670195 0.292514
vt 0.665323 0.292514
vt 0.660450 0.293870
vt 0.660450 0.292514
vt 17.066549 0.292514
vt 17.071451 0.292514
vt 17.066549 0.293870
vt 17.071451 0.293870
vt 17.076355 0.292514
vt 17.076355 0.293870
vt 0.329805 0.292514
vt 0.334677 0.292514
vt 0.329805 0.293870
vt 0.334677 0.293870
vt 0.339550 0.292514
vt 0.339550 0.293870
vt -16.076355 0.292514
vt -16.071451 0.292514
vt -16.076355 0.293870
vt -16.071451 0.293870
vt -16.066549 0.292514
vt -16.066549 0.293870
vt 0.329896 0.293870
vt 0.329896 0.292514
vt 0.334769 0.293870
vt 0.334769 0.292514
vt 0.339642 0.293870
vt 0.339642 0.292514
vt -16.066549 0.292514
vt -16.066549 0.293870
vt -16.071451 0.292514
vt -16.071451 0.293870
vt -16.076355 0.292514
vt -16.076355 0.293870
vt 0.670104 0.292514
vt 0.670104 0.293870
vt 0.665231 0.292514
vt 0.665231 0.293870
vt 0.660358 0.292514
vt 0.660358 0.293870
vt 17.076355 0.292514
vt 17.076355 0.293870
vt 17.071451 0.292514
vt 17.071451 0.293870
vt 17.066549 0.292514
vt 17.066549 0.293870
vt 0.334677 -16.071451
vt 0.334677 -16.064518
vt 0.329805 -16.066549
vt 0.327787 -16.071451
vt 0.339550 -16.066549
vt 0.329805 -16.076355
vt 0.341568 -16.071451
vt 0.334677 -16.078386
vt 0.339550 -16.076355
vt 0.665231 -16.064518
vt 0.665231 -16.071451
vt 0.670104 -16.066549
vt 0.672122 -16.071451
vt 0.660358 -16.066549
vt 0.670104 -16.076355
vt 0.658340 -16.071451
vt 0.665231 -16.078386
vt 0.660358 -16.076355
s 1
g Bsh_Hull_Rostrum_Dredn_C_001_6_steel_deck_1
usemtl steel_deck_1
f 3/1/1 2/2/1 1/3/1
f 4/4/1 1/3/1 2/2/1
f 1/3/1 4/4/1 5/5/1
f 6/6/1 5/5/1 4/4/1
f 6/6/1 7/7/1 5/5/1
f 8/8/1 5/5/1 7/7/1
f 7/7/1 9/9/1 8/8/1
f 10/10/1 8/8/1 9/9/1
f 10/10/1 9/9/1 11/11/1
f 12/12/1 11/11/1 9/9/1
f 11/11/1 12/12/1 13/13/1
f 14/14/1 13/13/1 12/12/1
f 15/15/1 13/13/1 14/14/1
f 18/16/2 17/17/3 16/18/4
f 19/19/4 16/18/4 17/17/3
f 16/18/4 19/19/4 20/20/5
f 21/21/5 20/20/5 19/19/4
f 20/20/5 21/21/5 22/22/6
f 23/23/6 22/22/6 21/21/5
f 23/23/6 24/24/7 22/22/6
f 25/25/7 22/22/6 24/24/7
f 28/26/8 27/27/8 26/28/9
f 29/29/9 26/28/9 27/27/8
f 26/28/9 29/29/9 30/30/10
f 31/31/10 30/30/10 29/29/9
f 31/31/10 32/32/7 30/30/10
f 33/33/7 30/30/10 32/32/7
f 36/26/11 35/34/11 34/27/11
f 35/34/11 37/35/11 34/27/11
f 38/36/11 34/27/11 37/35/11
f 39/37/11 38/36/11 37/35/11
f 42/38/12 41/39/12 40/40/12
f 43/41/12 40/40/12 41/39/12
f 46/42/13 45/43/13 44/44/13
f 44/44/13 45/43/13 47/16/13
f 48/45/13 47/16/13 45/43/13
f 47/16/13 48/45/13 49/17/13
f 52/46/14 51/47/14 50/48/14
f 53/49/14 51/47/14 52/46/14
f 54/50/14 51/47/14 53/49/14
f 57/46/14 56/51/14 55/52/14
f 57/46/14 55/52/14 58/53/14
f 58/53/14 59/54/14 57/46/14
f 57/46/14 59/54/14 60/49/14
f 60/49/14 59/54/14 61/55/14
f 60/49/14 61/55/14 62/56/14
f 60/49/14 62/56/14 63/57/14
f 66/58/15 65/59/15 64/60/15
f 67/61/15 64/60/15 65/59/15
f 70/62/16 69/63/16 68/64/16
f 71/65/16 68/64/16 69/63/16
f 74/66/17 73/42/17 72/67/17
f 75/44/17 72/67/17 73/42/17
f 78/68/1 77/69/1 76/70/1
f 79/71/1 76/70/1 77/69/1
f 76/70/1 79/71/1 80/72/1
f 81/73/1 80/72/1 79/71/1
f 81/73/1 82/74/1 80/72/1
f 83/75/1 80/72/1 82/74/1
f 82/74/1 84/76/1 83/75/1
f 85/77/1 83/75/1 84/76/1
f 85/77/1 84/76/1 86/78/1
f 87/79/1 86/78/1 84/76/1
f 86/78/1 87/79/1 88/80/1
f 89/81/1 88/80/1 87/79/1
f 90/82/1 88/80/1 89/81/1
f 93/83/2 92/84/2 91/85/4
f 94/86/4 91/85/4 92/84/2
f 91/85/4 94/86/4 95/87/5
f 96/88/5 95/87/5 94/86/4
f 95/87/5 96/88/5 97/89/6
f 98/90/6 97/89/6 96/88/5
f 98/90/6 99/91/7 97/89/6
f 100/92/7 97/89/6 99/91/7
f 103/93/8 102/94/8 101/95/9
f 104/96/9 101/95/9 102/94/8
f 101/95/9 104/96/9 105/97/10
f 106/98/10 105/97/10 104/96/9
f 106/98/10 107/99/7 105/97/10
f 108/100/18 105/97/10 107/99/7
f 111/93/19 110/101/19 109/94/19
f 110/101/19 112/102/19 109/94/19
f 113/103/19 109/94/19 112/102/19
f 114/104/19 113/103/19 112/102/19
f 117/105/20 116/106/20 115/107/20
f 115/107/20 116/106/20 118/83/20
f 119/108/20 118/83/20 116/106/20
f 118/83/20 119/108/20 120/84/20
f 123/109/14 122/110/14 121/111/14
f 124/112/14 122/110/14 123/109/14
f 125/113/14 122/110/14 124/112/14
f 128/114/14 127/115/14 126/116/14
f 128/114/14 126/116/14 129/117/14
f 129/117/14 130/118/14 128/114/14
f 128/114/14 130/118/14 131/112/14
f 131/112/14 130/118/14 132/119/14
f 131/112/14 132/119/14 133/120/14
f 131/112/14 133/120/14 134/121/14
f 137/122/15 136/123/15 135/124/15
f 138/125/15 135/124/15 136/123/15
f 141/126/16 140/127/21 139/128/16
f 142/129/21 139/128/16 140/127/21
f 145/130/17 144/105/17 143/131/17
f 146/107/17 143/131/17 144/105/17
f 149/132/1 148/133/1 147/134/1
f 150/135/1 147/134/1 148/133/1
f 147/134/1 150/135/1 151/136/1
f 152/137/1 151/136/1 150/135/1
f 152/137/1 153/138/1 151/136/1
f 154/139/1 151/136/1 153/138/1
f 153/138/1 155/140/1 154/139/1
f 156/141/1 154/139/1 155/140/1
f 156/141/1 155/140/1 157/142/1
f 158/143/1 157/142/1 155/140/1
f 157/142/1 158/143/1 159/144/1
f 160/145/1 159/144/1 158/143/1
f 161/146/1 159/144/1 160/145/1
f 164/147/2 163/148/2 162/149/4
f 165/150/4 162/149/4 163/148/2
f 162/149/4 165/150/4 166/151/5
f 167/152/5 166/151/5 165/150/4
f 166/151/5 167/152/5 168/153/6
f 169/154/6 168/153/6 167/152/5
f 169/154/6 170/155/7 168/153/6
f 171/156/7 168/153/6 170/155/7
f 174/157/8 173/158/8 172/159/9
f 175/160/9 172/159/9 173/158/8
f 172/159/9 175/160/9 176/161/10
f 177/162/10 176/161/10 175/160/9
f 177/162/10 178/163/7 176/161/10
f 179/164/18 176/161/10 178/163/7
f 182/157/22 181/165/22 180/158/22
f 181/165/22 183/166/22 180/158/22
f 184/167/22 180/158/22 183/166/22
f 185/168/22 184/167/22 183/166/22
f 188/169/23 187/170/23 186/171/23
f 186/171/23 187/170/23 189/147/23
f 190/172/23 189/147/23 187/170/23
f 189/147/23 190/172/23 191/148/23
f 194/173/14 193/174/14 192/175/14
f 195/176/14 193/174/14 194/173/14
f 196/177/14 193/174/14 195/176/14
f 199/178/14 198/179/14 197/180/14
f 199/178/14 197/180/14 200/181/14
f 200/181/14 201/182/14 199/178/14
f 199/178/14 201/182/14 202/176/14
f 202/176/14 201/182/14 203/183/14
f 202/176/14 203/183/14 204/184/14
f 202/176/14 204/184/14 205/185/14
f 208/186/15 207/187/15 206/188/15
f 209/189/15 206/188/15 207/187/15
f 212/190/16 211/191/21 210/192/16
f 213/193/21 210/192/16 211/191/21
f 216/194/17 215/169/17 214/195/17
f 217/171/17 214/195/17 215/169/17
f 220/196/12 219/197/12 218/198/12
f 221/199/12 218/198/12 219/197/12
f 224/200/12 223/201/12 222/202/12
f 225/203/12 222/202/12 223/201/12
f 228/204/24 227/205/24 226/206/24
f 229/207/24 226/206/24 227/205/24
f 232/208/24 231/209/24 230/210/24
f 233/211/24 230/210/24 231/209/24
f 236/212/25 235/213/25 234/214/25
f 237/215/25 234/214/25 235/213/25
f 240/216/1 239/217/1 238/218/1
f 241/219/1 238/218/1 239/217/1
f 239/217/1 242/220/1 241/219/1
f 243/221/1 241/219/1 242/220/1
f 243/221/1 242/220/1 244/222/1
f 245/223/1 244/222/1 242/220/1
f 244/222/1 245/223/1 246/224/1
f 247/225/1 246/224/1 245/223/1
f 247/225/1 248/226/1 246/224/1
f 249/227/1 246/224/1 248/226/1
f 248/226/1 250/228/1 249/227/1
f 251/229/1 249/227/1 250/228/1
f 250/228/1 252/230/1 251/229/1
f 255/231/26 254/232/15 253/233/26
f 256/234/15 253/233/26 254/232/15
f 254/232/15 257/235/24 256/234/15
f 258/236/24 256/234/15 257/235/24
f 257/235/24 259/237/27 258/236/24
f 260/238/27 258/236/24 259/237/27
f 260/238/27 259/237/27 261/239/28
f 262/240/28 261/239/28 259/237/27
f 265/241/29 264/242/9 263/243/29
f 266/244/9 263/243/29 264/242/9
f 264/242/9 267/245/30 266/244/9
f 268/246/30 266/244/9 267/245/30
f 268/246/30 267/245/30 269/247/28
f 270/248/28 269/247/28 267/245/30
f 273/249/31 272/241/31 271/243/31
f 273/249/31 271/243/31 274/250/31
f 275/251/31 274/250/31 271/243/31
f 275/251/31 276/252/31 274/250/31
f 279/253/12 278/254/12 277/255/12
f 280/256/12 277/255/12 278/254/12
f 283/257/32 282/258/32 281/259/32
f 281/259/32 284/231/32 283/257/32
f 285/260/32 283/257/32 284/231/32
f 285/260/32 284/231/32 286/233/32
f 289/261/14 288/262/14 287/263/14
f 289/261/14 290/264/14 288/262/14
f 289/261/14 291/265/14 290/264/14
f 294/266/14 293/262/14 292/267/14
f 292/267/14 293/262/14 295/268/14
f 296/269/14 295/268/14 293/262/14
f 296/269/14 293/262/14 297/270/14
f 296/269/14 297/270/14 298/271/14
f 298/271/14 297/270/14 299/272/14
f 299/272/14 297/270/14 300/273/14
f 303/274/4 302/275/4 301/276/4
f 304/277/4 301/276/4 302/275/4
f 307/278/33 306/279/33 305/280/33
f 308/281/33 305/280/33 306/279/33
f 311/259/34 310/258/34 309/282/34
f 312/283/34 309/282/34 310/258/34
f 315/284/1 314/285/1 313/286/1
f 316/287/1 313/286/1 314/285/1
f 314/285/1 317/288/1 316/287/1
f 318/289/1 316/287/1 317/288/1
f 318/289/1 317/288/1 319/290/1
f 320/291/1 319/290/1 317/288/1
f 319/290/1 320/291/1 321/292/1
f 322/293/1 321/292/1 320/291/1
f 322/293/1 323/294/1 321/292/1
f 324/295/1 321/292/1 323/294/1
f 323/294/1 325/296/1 324/295/1
f 326/297/1 324/295/1 325/296/1
f 325/296/1 327/298/1 326/297/1
f 330/299/35 329/300/15 328/301/35
f 331/302/15 328/301/35 329/300/15
f 329/300/15 332/303/24 331/302/15
f 333/304/24 331/302/15 332/303/24
f 332/303/24 334/305/27 333/304/24
f 335/306/27 333/304/24 334/305/27
f 335/306/27 334/305/27 336/307/28
f 337/308/28 336/307/28 334/305/27
f 340/309/29 339/310/9 338/311/29
f 341/312/9 338/311/29 339/310/9
f 339/310/9 342/313/30 341/312/9
f 343/314/30 341/312/9 342/313/30
f 343/314/30 342/313/30 344/315/28
f 345/316/28 344/315/28 342/313/30
f 348/317/36 347/309/36 346/311/36
f 348/317/36 346/311/36 349/318/36
f 350/319/36 349/318/36 346/311/36
f 350/319/36 351/320/36 349/318/36
f 354/321/37 353/322/37 352/323/37
f 352/323/37 355/299/37 354/321/37
f 356/324/37 354/321/37 355/299/37
f 356/324/37 355/299/37 357/301/37
f 360/325/14 359/326/14 358/327/14
f 360/325/14 361/328/14 359/326/14
f 360/325/14 362/329/14 361/328/14
f 365/330/14 364/331/14 363/332/14
f 363/332/14 364/331/14 366/333/14
f 367/334/14 366/333/14 364/331/14
f 367/334/14 364/331/14 368/328/14
f 367/334/14 368/328/14 369/335/14
f 369/335/14 368/328/14 370/336/14
f 370/336/14 368/328/14 371/337/14
f 374/338/4 373/339/4 372/340/4
f 375/341/4 372/340/4 373/339/4
f 378/342/38 377/343/38 376/344/38
f 379/345/38 376/344/38 377/343/38
f 382/323/34 381/322/34 380/346/34
f 383/347/34 380/346/34 381/322/34
f 386/348/1 385/349/1 384/350/1
f 387/351/1 384/350/1 385/349/1
f 385/349/1 388/352/1 387/351/1
f 389/353/1 387/351/1 388/352/1
f 389/353/1 388/352/1 390/354/1
f 391/355/1 390/354/1 388/352/1
f 390/354/1 391/355/1 392/356/1
f 393/357/1 392/356/1 391/355/1
f 393/357/1 394/358/1 392/356/1
f 395/359/1 392/356/1 394/358/1
f 394/358/1 396/360/1 395/359/1
f 397/361/1 395/359/1 396/360/1
f 396/360/1 398/362/1 397/361/1
f 401/363/26 400/364/15 399/365/26
f 402/366/15 399/365/26 400/364/15
f 400/364/15 403/367/24 402/366/15
f 404/368/24 402/366/15 403/367/24
f 403/367/24 405/369/27 404/368/24
f 406/370/27 404/368/24 405/369/27
f 406/370/27 405/369/27 407/371/28
f 408/372/28 407/371/28 405/369/27
f 411/373/29 410/374/9 409/375/29
f 412/376/9 409/375/29 410/374/9
f 410/374/9 413/377/30 412/376/9
f 414/378/30 412/376/9 413/377/30
f 414/378/30 413/377/30 415/379/28
f 416/380/28 415/379/28 413/377/30
f 419/381/39 418/373/39 417/375/39
f 419/381/39 417/375/39 420/382/39
f 421/383/39 420/382/39 417/375/39
f 421/383/39 422/384/39 420/382/39
f 425/385/40 424/386/40 423/387/40
f 423/387/40 426/363/40 425/385/40
f 427/388/40 425/385/40 426/363/40
f 427/388/40 426/363/40 428/365/40
f 431/389/14 430/390/14 429/391/14
f 431/389/14 432/392/14 430/390/14
f 431/389/14 433/393/14 432/392/14
f 436/394/14 435/390/14 434/395/14
f 434/395/14 435/390/14 437/396/14
f 438/397/14 437/396/14 435/390/14
f 438/397/14 435/390/14 439/392/14
f 438/397/14 439/392/14 440/398/14
f 440/398/14 439/392/14 441/399/14
f 441/399/14 439/392/14 442/400/14
f 445/401/4 444/402/4 443/403/4
f 446/404/4 443/403/4 444/402/4
f 449/405/38 448/406/38 447/407/33
f 450/408/33 447/407/33 448/406/38
f 453/387/34 452/386/34 451/409/34
f 454/410/34 451/409/34 452/386/34
f 457/411/12 456/412/12 455/413/12
f 458/414/12 455/413/12 456/412/12
f 461/415/12 460/416/12 459/417/12
f 462/418/12 459/417/12 460/416/12
f 465/419/5 464/420/5 463/421/5
f 466/422/5 463/421/5 464/420/5
f 469/423/5 468/424/5 467/425/5
f 470/426/5 467/425/5 468/424/5
f 473/427/41 472/428/41 471/429/41
f 474/430/41 471/429/41 472/428/41
f 477/431/7 476/432/9 475/433/7
f 478/434/9 475/433/7 476/432/9
f 476/432/9 479/435/28 478/434/9
f 480/436/28 478/434/9 479/435/28
f 483/437/7 482/438/5 481/439/7
f 484/440/5 481/439/7 482/438/5
f 482/438/5 485/441/42 484/440/5
f 486/442/42 484/440/5 485/441/42
f 489/443/42 488/444/12 487/445/42
f 490/446/12 487/445/42 488/444/12
f 488/444/12 491/447/43 490/446/12
f 492/448/43 490/446/12 491/447/43
f 495/449/44 494/450/24 493/451/44
f 496/452/24 493/451/44 494/450/24
f 494/450/24 497/453/28 496/452/24
f 498/454/45 496/452/24 497/453/28
f 501/455/18 500/456/9 499/457/7
f 502/458/9 499/457/7 500/456/9
f 500/456/9 503/459/28 502/458/9
f 504/460/28 502/458/9 503/459/28
f 507/461/46 506/462/5 505/463/7
f 508/464/5 505/463/7 506/462/5
f 506/462/5 509/465/42 508/464/5
f 510/466/42 508/464/5 509/465/42
f 513/467/42 512/468/12 511/469/42
f 514/470/12 511/469/42 512/468/12
f 512/468/12 515/471/43 514/470/12
f 516/472/43 514/470/12 515/471/43
f 519/473/47 518/474/24 517/475/43
f 520/476/24 517/475/43 518/474/24
f 518/474/24 521/477/28 520/476/24
f 522/478/28 520/476/24 521/477/28
f 525/479/7 524/480/9 523/481/7
f 526/482/9 523/481/7 524/480/9
f 524/480/9 527/483/28 526/482/9
f 528/484/48 526/482/9 527/483/28
f 531/485/7 530/486/5 529/487/7
f 532/488/5 529/487/7 530/486/5
f 530/486/5 533/489/42 532/488/5
f 534/490/42 532/488/5 533/489/42
f 537/491/49 536/492/12 535/493/49
f 538/494/12 535/493/49 536/492/12
f 536/492/12 539/495/43 538/494/12
f 540/496/43 538/494/12 539/495/43
f 543/497/47 542/498/24 541/499/43
f 544/500/24 541/499/43 542/498/24
f 542/498/24 545/501/28 544/500/24
f 546/502/28 544/500/24 545/501/28
f 549/503/28 548/504/28 547/505/9
f 550/506/9 547/505/9 548/504/28
f 547/505/9 550/506/9 551/507/7
f 552/508/7 551/507/7 550/506/9
f 555/509/28 554/510/28 553/511/24
f 556/512/24 553/511/24 554/510/28
f 553/511/24 556/512/24 557/513/43
f 558/514/43 557/513/43 556/512/24
f 561/515/43 560/516/43 559/517/12
f 562/518/12 559/517/12 560/516/43
f 559/517/12 562/518/12 563/519/42
f 564/520/42 563/519/42 562/518/12
f 567/521/42 566/522/42 565/523/5
f 568/524/5 565/523/5 566/522/42
f 565/523/5 568/524/5 569/525/7
f 570/526/7 569/525/7 568/524/5
f 573/527/28 572/528/28 571/529/9
f 574/530/9 571/529/9 572/528/28
f 571/529/9 574/530/9 575/531/7
f 576/532/7 575/531/7 574/530/9
f 579/533/28 578/534/28 577/535/24
f 580/536/24 577/535/24 578/534/28
f 577/535/24 580/536/24 581/537/43
f 582/538/43 581/537/43 580/536/24
f 585/539/43 584/540/43 583/541/12
f 586/542/12 583/541/12 584/540/43
f 583/541/12 586/542/12 587/543/42
f 588/544/42 587/543/42 586/542/12
f 591/545/42 590/546/50 589/88/5
f 592/547/5 589/88/5 590/546/50
f 589/88/5 592/547/5 593/548/7
f 594/549/7 593/548/7 592/547/5
f 597/550/28 596/551/28 595/552/9
f 598/553/9 595/552/9 596/551/28
f 595/552/9 598/553/9 599/554/7
f 600/555/7 599/554/7 598/553/9
f 603/556/28 602/557/28 601/558/24
f 604/559/24 601/558/24 602/557/28
f 601/558/24 604/559/24 605/560/43
f 606/561/43 605/560/43 604/559/24
f 609/562/43 608/563/43 607/564/12
f 610/565/12 607/564/12 608/563/43
f 607/564/12 610/565/12 611/566/42
f 612/567/42 611/566/42 610/565/12
f 615/568/42 614/569/42 613/152/5
f 616/570/5 613/152/5 614/569/42
f 613/152/5 616/570/5 617/571/7
f 618/572/7 617/571/7 616/570/5
f 621/573/1 620/574/1 619/575/1
f 621/573/1 619/575/1 622/576/1
f 621/573/1 623/577/1 620/574/1
f 621/573/1 622/576/1 624/578/1
f 621/573/1 625/579/1 623/577/1
f 621/573/1 624/578/1 626/580/1
f 621/573/1 627/581/1 625/579/1
f 621/573/1 626/580/1 627/581/1
f 630/582/1 629/583/1 628/584/1
f 630/582/1 628/584/1 631/585/1
f 630/582/1 632/586/1 629/583/1
f 630/582/1 631/585/1 633/587/1
f 630/582/1 634/588/1 632/586/1
f 630/582/1 633/587/1 635/589/1
f 630/582/1 636/590/1 634/588/1
f 630/582/1 635/589/1 636/590/1
f 639/591/1 638/592/1 637/593/1
f 639/591/1 637/593/1 640/594/1
f 639/591/1 641/595/1 638/592/1
f 639/591/1 640/594/1 642/596/1
f 639/591/1 643/597/1 641/595/1
f 639/591/1 642/596/1 644/598/1
f 639/591/1 645/599/1 643/597/1
f 639/591/1 644/598/1 645/599/1
f 648/600/1 647/601/1 646/602/1
f 646/602/1 647/601/1 649/603/1
f 650/604/1 647/601/1 648/600/1
f 649/603/1 647/601/1 651/605/1
f 652/606/1 647/601/1 650/604/1
f 651/605/1 647/601/1 653/607/1
f 654/608/1 647/601/1 652/606/1
f 653/607/1 647/601/1 654/608/1
f 657/609/1 656/610/1 655/611/1
f 655/611/1 656/610/1 658/612/1
f 659/613/1 656/610/1 657/609/1
f 658/612/1 656/610/1 660/614/1
f 661/615/1 656/610/1 659/613/1
f 660/614/1 656/610/1 662/616/1
f 663/617/1 656/610/1 661/615/1
f 662/616/1 656/610/1 663/617/1
f 666/618/1 665/619/1 664/620/1
f 664/620/1 665/619/1 667/621/1
f 668/622/1 665/619/1 666/618/1
f 667/621/1 665/619/1 669/623/1
f 670/624/1 665/619/1 668/622/1
f 669/623/1 665/619/1 671/625/1
f 672/626/1 665/619/1 670/624/1
f 671/625/1 665/619/1 672/626/1
g Bsh_Hull_Rostrum_Dredn_C_001_6_steel_3
usemtl steel_3
f 675/627/1 674/628/1 673/629/1
f 676/630/1 673/629/1 674/628/1
f 674/628/1 677/631/1 676/630/1
f 678/632/1 676/630/1 677/631/1
f 678/632/1 677/631/1 679/633/1
f 680/634/1 679/633/1 677/631/1
f 679/633/1 680/634/1 681/635/1
f 682/636/1 681/635/1 680/634/1
f 682/636/1 683/637/1 681/635/1
f 684/638/1 681/635/1 683/637/1
f 683/637/1 685/639/1 684/638/1
f 686/640/1 684/638/1 685/639/1
f 685/639/1 687/641/1 686/640/1
f 690/642/17 689/643/6 688/644/17
f 691/645/6 688/644/17 689/643/6
f 689/643/6 692/646/5 691/645/6
f 693/647/5 691/645/6 692/646/5
f 692/646/5 694/648/4 693/647/5
f 695/649/4 693/647/5 694/648/4
f 695/649/4 694/648/4 696/650/51
f 697/651/51 696/650/51 694/648/4
f 700/652/52 699/653/12 698/654/52
f 701/655/12 698/654/52 699/653/12
f 699/653/12 702/656/53 701/655/12
f 703/657/53 701/655/12 702/656/53
f 703/657/53 702/656/53 704/658/49
f 705/659/49 704/658/49 702/656/53
f 708/660/54 707/652/54 706/654/54
f 708/660/54 706/654/54 709/661/54
f 710/662/54 709/661/54 706/654/54
f 710/662/54 711/663/54 709/661/54
f 714/664/9 713/665/9 712/666/9
f 715/667/9 712/666/9 713/665/9
f 718/668/55 717/669/55 716/670/55
f 716/670/55 719/642/55 718/668/55
f 720/671/55 718/668/55 719/642/55
f 720/671/55 719/642/55 721/644/55
f 724/672/14 723/673/14 722/674/14
f 724/672/14 725/675/14 723/673/14
f 724/672/14 726/676/14 725/675/14
f 729/677/14 728/673/14 727/678/14
f 727/678/14 728/673/14 730/679/14
f 731/680/14 730/679/14 728/673/14
f 731/680/14 728/673/14 732/681/14
f 731/680/14 732/681/14 733/682/14
f 733/682/14 732/681/14 734/683/14
f 734/683/14 732/681/14 735/684/14
f 738/685/27 737/686/27 736/687/27
f 739/688/27 736/687/27 737/686/27
f 742/689/56 741/690/56 740/691/56
f 743/692/56 740/691/56 741/690/56
f 746/670/2 745/669/2 744/693/2
f 747/694/2 744/693/2 745/669/2
f 754/695/9 753/696/9 752/697/9
f 755/698/9 752/697/9 753/696/9
f 758/699/24 757/700/24 756/701/24
f 759/702/24 756/701/24 757/700/24
f 764/703/57 763/704/12 762/705/57
f 765/706/12 762/705/57 763/704/12
f 763/704/12 766/707/42 765/706/12
f 767/708/42 765/706/12 766/707/42
f 770/709/58 769/710/24 768/711/58
f 771/712/24 768/711/58 769/710/24
f 769/710/24 772/713/59 771/712/24
f 773/714/59 771/712/24 772/713/59
f 776/715/28 775/716/9 774/717/28
f 777/718/9 774/717/28 775/716/9
f 775/716/9 778/719/7 777/718/9
f 779/720/7 777/718/9 778/719/7
f 782/721/60 781/722/5 780/723/60
f 783/724/5 780/723/60 781/722/5
f 781/722/5 784/725/61 783/724/5
f 785/726/62 783/724/5 784/725/61
f 788/727/1 787/728/1 786/729/1
f 789/730/1 786/729/1 787/728/1
f 786/729/1 789/730/1 790/731/1
f 791/732/1 790/731/1 789/730/1
f 791/732/1 792/733/1 790/731/1
f 793/734/1 790/731/1 792/733/1
f 792/733/1 794/735/1 793/734/1
f 795/736/1 793/734/1 794/735/1
f 795/736/1 794/735/1 796/737/1
f 797/738/1 796/737/1 794/735/1
f 796/737/1 797/738/1 798/739/1
f 799/740/1 798/739/1 797/738/1
f 800/741/1 798/739/1 799/740/1
f 803/742/34 802/743/34 801/744/27
f 804/745/27 801/744/27 802/743/34
f 801/744/27 804/745/27 805/746/24
f 806/747/24 805/746/24 804/745/27
f 805/746/24 806/747/24 807/748/15
f 808/749/15 807/748/15 806/747/24
f 808/749/15 809/750/58 807/748/15
f 810/751/58 807/748/15 809/750/58
f 813/752/63 812/753/63 811/754/12
f 814/755/12 811/754/12 812/753/63
f 811/754/12 814/755/12 815/756/64
f 816/757/64 815/756/64 814/755/12
f 816/757/64 817/758/57 815/756/64
f 818/759/57 815/756/64 817/758/57
f 821/752/65 820/760/65 819/753/65
f 820/760/65 822/761/65 819/753/65
f 823/762/65 819/753/65 822/761/65
f 824/763/65 823/762/65 822/761/65
f 827/764/9 826/765/9 825/766/9
f 828/767/9 825/766/9 826/765/9
f 831/768/66 830/769/66 829/770/66
f 829/770/66 830/769/66 832/742/66
f 833/771/66 832/742/66 830/769/66
f 832/742/66 833/771/66 834/743/66
f 837/772/14 836/773/14 835/774/14
f 838/775/14 836/773/14 837/772/14
f 839/776/14 836/773/14 838/775/14
f 842/772/14 841/777/14 840/778/14
f 842/772/14 840/778/14 843/779/14
f 843/779/14 844/780/14 842/772/14
f 842/772/14 844/780/14 845/781/14
f 845/781/14 844/780/14 846/782/14
f 845/781/14 846/782/14 847/783/14
f 845/781/14 847/783/14 848/784/14
f 851/785/6 850/786/6 849/787/6
f 852/788/6 849/787/6 850/786/6
f 855/789/67 854/790/67 853/791/67
f 856/792/67 853/791/67 854/790/67
f 859/793/26 858/768/26 857/794/26
f 860/770/26 857/794/26 858/768/26
f 867/795/9 866/796/9 865/797/9
f 868/798/9 865/797/9 866/796/9
f 871/799/5 870/800/5 869/801/5
f 872/802/5 869/801/5 870/800/5
f 877/803/49 876/804/49 875/805/12
f 878/806/12 875/805/12 876/804/49
f 875/805/12 878/806/12 879/807/43
f 880/808/43 879/807/43 878/806/12
f 883/809/51 882/810/51 881/811/5
f 884/724/5 881/811/5 882/810/51
f 881/811/5 884/724/5 885/812/60
f 886/813/60 885/812/60 884/724/5
f 889/814/7 888/815/7 887/816/9
f 890/817/9 887/816/9 888/815/7
f 887/816/9 890/817/9 891/818/28
f 892/819/28 891/818/28 890/817/9
f 895/820/59 894/821/59 893/822/24
f 896/823/24 893/822/24 894/821/59
f 893/822/24 896/823/24 897/824/68
f 898/825/44 897/824/68 896/823/24
f 901/826/1 900/827/1 899/828/1
f 901/826/1 899/828/1 902/829/1
f 901/826/1 903/830/1 900/827/1
f 901/826/1 902/829/1 904/831/1
f 901/826/1 905/832/1 903/830/1
f 901/826/1 904/831/1 906/833/1
f 901/826/1 907/834/1 905/832/1
f 901/826/1 906/833/1 907/834/1
f 910/835/1 909/836/1 908/837/1
f 908/837/1 909/836/1 911/838/1
f 912/839/1 909/836/1 910/835/1
f 911/838/1 909/836/1 913/840/1
f 914/841/1 909/836/1 912/839/1
f 913/840/1 909/836/1 915/842/1
f 916/843/1 909/836/1 914/841/1
f 915/842/1 909/836/1 916/843/1
f 919/844/1 918/845/1 917/846/1
f 920/847/1 917/846/1 918/845/1
f 920/847/1 921/848/1 917/846/1
f 922/849/1 917/846/1 921/848/1
f 921/848/1 923/850/1 922/849/1
f 924/851/1 922/849/1 923/850/1
f 924/851/1 923/850/1 925/852/1
f 926/853/1 925/852/1 923/850/1
f 925/852/1 926/853/1 927/854/1
f 928/855/1 927/854/1 926/853/1
f 929/856/1 927/854/1 928/855/1
f 932/857/69 931/858/69 930/859/70
f 933/860/70 930/859/70 931/858/69
f 930/859/70 933/860/70 934/861/71
f 935/862/71 934/861/71 933/860/70
f 934/861/71 935/862/71 936/863/72
f 937/864/72 936/863/72 935/862/71
f 937/864/72 938/865/73 936/863/72
f 939/866/73 936/863/72 938/865/73
f 942/867/74 941/868/74 940/869/75
f 943/870/75 940/869/75 941/868/74
f 943/870/75 944/871/76 940/869/75
f 945/872/76 940/869/75 944/871/76
f 948/873/14 947/874/14 946/875/14
f 949/876/14 946/875/14 947/874/14
f 949/876/14 947/874/14 950/877/14
f 951/878/14 950/877/14 947/874/14
f 950/877/14 951/878/14 952/879/14
f 953/880/14 952/879/14 951/878/14
f 956/881/77 955/882/77 954/883/77
f 957/884/77 954/883/77 955/882/77
f 960/885/78 959/886/78 958/887/78
f 961/888/78 958/887/78 959/886/78
f 964/889/72 963/890/72 962/891/72
f 965/892/72 962/891/72 963/890/72
f 968/893/79 967/868/79 966/867/79
f 967/868/79 968/893/79 969/894/79
f 970/895/79 969/894/79 968/893/79
f 970/895/79 971/896/79 969/894/79
f 974/857/5 973/897/5 972/858/5
f 973/897/5 974/857/5 975/898/5
f 976/892/5 975/898/5 974/857/5
f 977/890/5 975/898/5 976/892/5
f 980/899/14 979/900/14 978/878/14
f 981/901/14 980/899/14 978/878/14
f 982/902/14 980/899/14 981/901/14
f 985/903/12 984/904/12 983/905/12
f 986/906/12 983/905/12 984/904/12
f 989/907/24 988/908/24 987/909/24
f 990/910/24 987/909/24 988/908/24
f 993/911/1 992/912/1 991/913/1
f 994/914/1 991/913/1 992/912/1
f 994/914/1 992/912/1 995/915/1
f 996/916/1 995/915/1 992/912/1
f 995/915/1 996/916/1 997/917/1
f 998/918/1 997/917/1 996/916/1
f 998/918/1 999/919/1 997/917/1
f 1000/920/1 997/917/1 999/919/1
f 999/919/1 1001/921/1 1000/920/1
f 1002/922/1 1000/920/1 1001/921/1
f 1001/921/1 1003/923/1 1002/922/1
f 1006/924/80 1005/925/81 1004/926/80
f 1007/927/81 1004/926/80 1005/925/81
f 1005/925/81 1008/928/82 1007/927/81
f 1009/929/82 1007/927/81 1008/928/82
f 1008/928/82 1010/930/83 1009/929/82
f 1011/931/83 1009/929/82 1010/930/83
f 1011/931/83 1010/930/83 1012/932/84
f 1013/933/84 1012/932/84 1010/930/83
f 1016/934/85 1015/935/86 1014/936/85
f 1017/937/86 1014/936/85 1015/935/86
f 1017/937/86 1015/935/86 1018/938/87
f 1019/939/87 1018/938/87 1015/935/86
f 1022/940/14 1021/941/14 1020/942/14
f 1023/943/14 1020/942/14 1021/941/14
f 1023/943/14 1024/944/14 1020/942/14
f 1025/945/14 1020/942/14 1024/944/14
f 1024/944/14 1026/946/14 1025/945/14
f 1027/947/14 1025/945/14 1026/946/14
f 1030/948/88 1029/949/88 1028/950/88
f 1031/951/88 1028/950/88 1029/949/88
f 1034/952/89 1033/953/89 1032/954/89
f 1035/955/89 1032/954/89 1033/953/89
f 1038/956/83 1037/957/83 1036/958/83
f 1039/959/83 1036/958/83 1037/957/83
f 1042/936/90 1041/960/90 1040/934/90
f 1042/936/90 1043/961/90 1041/960/90
f 1044/962/90 1041/960/90 1043/961/90
f 1045/963/90 1044/962/90 1043/961/90
f 1048/964/24 1047/924/24 1046/926/24
f 1048/964/24 1049/965/24 1047/924/24
f 1050/956/24 1047/924/24 1049/965/24
f 1049/965/24 1051/957/24 1050/956/24
f 1054/966/14 1053/967/14 1052/945/14
f 1053/967/14 1055/942/14 1052/945/14
f 1053/967/14 1056/968/14 1055/942/14
f 1059/969/12 1058/970/12 1057/971/12
f 1060/972/12 1057/971/12 1058/970/12
f 1063/973/5 1062/974/5 1061/975/5
f 1064/976/5 1061/975/5 1062/974/5
f 1067/977/7 1066/978/9 1065/979/7
f 1068/980/9 1065/979/7 1066/978/9
f 1066/978/9 1069/981/28 1068/980/9
f 1070/982/28 1068/980/9 1069/981/28
f 1073/983/7 1072/984/5 1071/985/7
f 1074/986/5 1071/985/7 1072/984/5
f 1072/984/5 1075/987/42 1074/986/5
f 1076/988/42 1074/986/5 1075/987/42
f 1079/989/42 1078/990/12 1077/991/42
f 1080/992/12 1077/991/42 1078/990/12
f 1078/990/12 1081/993/43 1080/992/12
f 1082/994/43 1080/992/12 1081/993/43
f 1085/995/43 1084/996/24 1083/997/43
f 1086/998/24 1083/997/43 1084/996/24
f 1084/996/24 1087/999/28 1086/998/24
f 1088/1000/28 1086/998/24 1087/999/28
f 1091/1001/28 1090/1002/28 1089/1003/9
f 1092/1004/9 1089/1003/9 1090/1002/28
f 1089/1003/9 1092/1004/9 1093/1005/7
f 1094/1006/7 1093/1005/7 1092/1004/9
f 1097/1007/28 1096/1008/28 1095/1009/24
f 1098/1010/24 1095/1009/24 1096/1008/28
f 1095/1009/24 1098/1010/24 1099/1011/43
f 1100/1012/43 1099/1011/43 1098/1010/24
f 1103/1013/43 1102/1014/43 1101/1015/12
f 1104/1016/12 1101/1015/12 1102/1014/43
f 1101/1015/12 1104/1016/12 1105/1017/42
f 1106/1018/42 1105/1017/42 1104/1016/12
f 1109/1019/42 1108/1020/42 1107/1021/5
f 1110/1022/5 1107/1021/5 1108/1020/42
f 1107/1021/5 1110/1022/5 1111/1023/7
f 1112/1024/7 1111/1023/7 1110/1022/5
f 1115/1025/1 1114/1026/1 1113/1027/1
f 1115/1025/1 1113/1027/1 1116/1028/1
f 1115/1025/1 1117/1029/1 1114/1026/1
f 1115/1025/1 1116/1028/1 1118/1030/1
f 1115/1025/1 1119/1031/1 1117/1029/1
f 1115/1025/1 1118/1030/1 1120/1032/1
f 1115/1025/1 1121/1033/1 1119/1031/1
f 1115/1025/1 1120/1032/1 1121/1033/1
f 1124/1034/1 1123/1035/1 1122/1036/1
f 1122/1036/1 1123/1035/1 1125/1037/1
f 1126/1038/1 1123/1035/1 1124/1034/1
f 1125/1037/1 1123/1035/1 1127/1039/1
f 1128/1040/1 1123/1035/1 1126/1038/1
f 1127/1039/1 1123/1035/1 1129/1041/1
f 1130/1042/1 1123/1035/1 1128/1040/1
f 1129/1041/1 1123/1035/1 1130/1042/1
l 748 749
l 750 751
l 760 761
l 861 862
l 863 864
l 873 874
