# Blender 5.1.0
# www.blender.org
mtllib Bsh_Hull_Rostrum_Dredn_C_001_2.mtl
o Bsh_Hull_Rostrum_Dredn_C_001_2
v -12.646021 38.739212 1.524252
v -12.646012 34.970566 1.524245
v -12.310070 44.739220 1.524251
v -11.828274 50.739220 1.524252
v -11.219557 56.739227 1.524248
v -10.218229 62.739258 1.524246
v -8.768117 68.739273 1.524244
v -6.985904 74.739265 1.524245
v -4.847435 80.548981 1.524245
v -3.006122 86.756866 1.524241
v -1.531547 92.743759 1.524226
v -0.766122 98.504150 1.524964
v -0.624664 99.568710 1.525102
v -0.454127 100.365814 1.526767
v -0.255222 100.634247 1.527435
v -0.255222 100.634247 1.527435
v 0.000003 100.721924 1.530223
v 0.255228 100.634247 1.527427
v 12.646015 38.739204 1.524278
v 12.646006 34.970558 1.524272
v 12.310065 44.739220 1.524277
v 11.828271 50.739220 1.524274
v 11.219554 56.739220 1.524267
v 10.218234 62.739250 1.524265
v 8.768123 68.739273 1.524260
v 6.985911 74.739265 1.524255
v 4.847440 80.548981 1.524249
v 3.006128 86.756866 1.524242
v 1.531552 92.743759 1.524221
v 0.766127 98.504150 1.524957
v 0.624671 99.568710 1.525094
v 0.454134 100.365814 1.526759
v 0.255228 100.634247 1.527427
v -12.646018 38.739212 -0.318321
v -12.646008 34.970566 -0.318328
v -12.310071 44.739220 -0.318322
v -11.828276 50.739220 -0.318325
v -11.219556 56.739227 -0.318329
v -10.218227 62.739250 -0.318322
v -8.618851 68.739273 -0.318322
v -6.805947 74.739265 -0.318327
v -4.667477 80.548981 -0.318331
v -2.854960 86.756851 -0.318335
v -1.386426 92.750961 -0.318348
v -0.718251 98.861160 -0.319664
v -0.557287 100.333099 -0.319978
v -0.363992 101.268219 -0.324465
v -0.165122 101.541611 -0.325113
v -0.165122 101.541611 -0.325113
v 0.000005 101.600723 -0.322619
v 0.165133 101.541611 -0.325121
v 12.646012 38.739204 -0.318294
v 12.646002 34.970558 -0.318301
v 12.310066 44.739212 -0.318296
v 11.828272 50.739220 -0.318301
v 11.219553 56.739220 -0.318306
v 10.218232 62.739243 -0.318306
v 8.618856 68.739265 -0.318310
v 6.805954 74.739265 -0.318318
v 4.667485 80.548981 -0.318324
v 2.854969 86.756851 -0.318338
v 1.386434 92.750961 -0.318354
v 0.718261 98.861160 -0.319670
v 0.557297 100.333099 -0.319985
v 0.364003 101.268219 -0.324472
v 0.165133 101.541611 -0.325121
v -12.646009 24.970461 1.524250
v -12.646008 21.000013 1.524249
v -12.646009 14.999969 1.524248
v 12.646009 24.970461 1.524250
v 12.646009 21.000013 1.524249
v 12.646010 14.999969 1.524248
v -12.646004 21.000013 -0.318324
v -12.646006 24.970461 -0.318324
v -12.646004 14.999968 -0.318325
v 12.646006 21.000013 -0.318324
v 12.646006 24.970461 -0.318324
v 12.646006 14.999968 -0.318325
v -12.646045 29.970549 -0.318305
v -12.646027 34.970558 -0.318309
v -12.646029 24.970545 -0.318311
v 12.646041 29.970545 -0.318297
v 12.646024 34.970558 -0.318303
v 12.646022 24.970541 -0.318303
v -12.646036 24.970545 1.524262
v -12.646049 29.970549 1.524269
v -12.646034 34.970558 1.524263
v 12.646029 24.970545 1.524270
v 12.646046 29.970545 1.524275
v 12.646029 34.970558 1.524270
v -12.646021 4.999937 -0.318307
v -12.646021 14.999968 -0.318306
v 12.646015 4.999924 -0.318298
v 12.646022 14.999954 -0.318299
v -12.646025 4.999937 1.524265
v -12.646024 14.999968 1.524267
v 12.646018 4.999924 1.524274
v 12.646024 14.999956 1.524274
vn -0.9998 -0.0000 -0.0218
vn -1.0000 -0.0000 -0.0000
vn -0.9994 0.0279 -0.0218
vn -0.9996 0.0273 0.0014
vn -0.9975 0.0680 -0.0217
vn -0.9977 0.0680 -0.0000
vn -0.9959 0.0905 -0.0000
vn -0.9957 0.0905 -0.0217
vn -0.9909 0.1328 -0.0216
vn -0.9911 0.1328 -0.0000
vn -0.9795 0.2014 -0.0060
vn -0.9761 0.2158 -0.0259
vn -0.9606 0.2672 -0.0765
vn -0.9628 0.2585 -0.0785
vn -0.9447 0.3150 -0.0913
vn -0.9408 0.3220 -0.1057
vn -0.9449 0.3143 -0.0918
vn -0.9430 0.3120 -0.1154
vn -0.9623 0.2601 -0.0796
vn -0.9602 0.2580 -0.1072
vn -0.9797 0.1853 -0.0768
vn -0.9827 0.1680 -0.0786
vn -0.9919 0.1264 -0.0161
vn -0.9938 0.1108 -0.0093
vn -0.9861 0.1657 0.0105
vn -0.9869 0.1610 0.0078
vn -0.9021 0.4221 0.0901
vn -0.9125 0.3966 0.1001
vn -0.5759 0.7931 0.1985
vn -0.5830 0.7691 0.2619
vn -0.5759 0.7930 0.1985
vn -0.5829 0.7692 0.2620
vn -0.0000 0.9686 0.2486
vn -0.0000 0.9389 0.3443
vn 0.5829 0.7692 0.2620
vn 0.5759 0.7931 0.1985
vn 0.9998 -0.0000 -0.0218
vn 0.9994 0.0279 -0.0218
vn 1.0000 -0.0000 -0.0000
vn 0.9996 0.0273 0.0014
vn 0.9975 0.0680 -0.0217
vn 0.9977 0.0680 -0.0000
vn 0.9959 0.0905 -0.0000
vn 0.9957 0.0905 -0.0217
vn 0.9909 0.1328 -0.0216
vn 0.9911 0.1328 -0.0000
vn 0.9795 0.2014 -0.0059
vn 0.9761 0.2158 -0.0259
vn 0.9606 0.2672 -0.0764
vn 0.9628 0.2586 -0.0783
vn 0.9447 0.3148 -0.0915
vn 0.9408 0.3221 -0.1057
vn 0.9448 0.3143 -0.0923
vn 0.9430 0.3120 -0.1154
vn 0.9623 0.2600 -0.0797
vn 0.9602 0.2580 -0.1072
vn 0.9797 0.1853 -0.0768
vn 0.9827 0.1680 -0.0786
vn 0.9919 0.1264 -0.0161
vn 0.9938 0.1108 -0.0093
vn 0.9861 0.1657 0.0105
vn 0.9869 0.1610 0.0078
vn 0.9021 0.4221 0.0901
vn 0.9125 0.3966 0.1001
vn 0.5759 0.7930 0.1985
vn 0.5830 0.7691 0.2619
vn -1.0000 -0.0000 0.0031
vn -1.0000 0.0010 -0.0022
vn 1.0000 -0.0009 -0.0000
vn 1.0000 -0.0000 0.0031
vn -0.9991 -0.0000 -0.0435
vn 0.9991 -0.0000 -0.0435
vt -16.180058 0.210740
vt -16.180058 0.238553
vt -16.270977 0.210740
vt -16.270977 0.238553
vt -16.361898 0.210740
vt -16.361898 0.238553
vt -16.452818 0.238553
vt -16.452818 0.210740
vt -16.543737 0.210740
vt -16.543737 0.238553
vt -16.634659 0.238553
vt -16.634659 0.210740
vt -16.725578 0.210740
vt -16.725578 0.238553
vt -16.816498 0.238553
vt -16.816498 0.210740
vt -16.904535 0.238553
vt -16.904535 0.210740
vt -16.998606 0.238553
vt -16.998606 0.210740
vt -17.089327 0.238553
vt -17.089436 0.210740
vt -17.176617 0.238564
vt -17.182026 0.210720
vt -17.192747 0.238566
vt -17.204330 0.210715
vt -17.218500 0.210647
vt -17.204826 0.238591
vt -17.222643 0.210638
vt -17.208895 0.238601
vt 0.502437 0.210638
vt 0.503794 0.238601
vt 0.499950 0.210675
vt 0.499950 0.238643
vt 0.496107 0.238601
vt 0.497464 0.210638
vt 17.180058 0.210741
vt 17.270977 0.210741
vt 17.180058 0.238553
vt 17.270977 0.238553
vt 17.361898 0.210741
vt 17.361898 0.238553
vt 17.452818 0.238553
vt 17.452818 0.210741
vt 17.543737 0.210741
vt 17.543737 0.238553
vt 17.634659 0.238553
vt 17.634659 0.210741
vt 17.725578 0.210740
vt 17.725578 0.238553
vt 17.816498 0.238553
vt 17.816498 0.210740
vt 17.904535 0.238553
vt 17.904535 0.210740
vt 17.998606 0.238553
vt 17.998606 0.210740
vt 18.089327 0.238552
vt 18.089436 0.210740
vt 18.176617 0.238564
vt 18.182026 0.210720
vt 18.192747 0.238566
vt 18.204330 0.210715
vt 18.218500 0.210647
vt 18.204826 0.238591
vt 18.222643 0.210638
vt 18.208895 0.238601
vt -19.360128 0.238553
vt -19.360128 0.210740
vt -19.299963 0.238553
vt -19.299963 0.210740
vt -19.209044 0.210740
vt -19.209044 0.238553
vt 20.360128 0.238553
vt 20.299963 0.238553
vt 20.360128 0.210740
vt 20.299963 0.210740
vt 20.209044 0.210740
vt 20.209044 0.238553
vt -16.028522 0.238553
vt -16.104290 0.238553
vt -16.028522 0.210740
vt -16.104290 0.210741
vt -16.180058 0.210740
vt -16.180058 0.238553
vt 17.028522 0.238553
vt 17.028522 0.210741
vt 17.104290 0.238553
vt 17.104290 0.210741
vt 17.180058 0.210741
vt 17.180058 0.238553
vt -12.844642 0.238553
vt -12.844642 0.210740
vt -12.693108 0.238553
vt -12.693108 0.210740
vt 13.693108 0.210741
vt 13.844641 0.210741
vt 13.693108 0.238553
vt 13.844641 0.238553
s 1
g Bsh_Hull_Rostrum_Dredn_C_001_2_waterline
usemtl waterline
f 35/1/1 2/2/2 34/3/3
f 1/4/4 34/3/3 2/2/2
f 34/3/3 1/4/4 36/5/5
f 3/6/6 36/5/5 1/4/4
f 3/6/6 4/7/7 36/5/5
f 37/8/8 36/5/5 4/7/7
f 37/8/8 4/7/7 38/9/9
f 5/10/10 38/9/9 4/7/7
f 5/10/10 6/11/11 38/9/9
f 39/12/12 38/9/9 6/11/11
f 39/12/12 6/11/11 40/13/13
f 7/14/14 40/13/13 6/11/11
f 7/14/14 8/15/15 40/13/13
f 41/16/16 40/13/13 8/15/15
f 8/15/15 9/17/17 41/16/16
f 42/18/18 41/16/16 9/17/17
f 9/17/17 10/19/19 42/18/18
f 43/20/20 42/18/18 10/19/19
f 10/19/19 11/21/21 43/20/20
f 44/22/22 43/20/20 11/21/21
f 11/21/21 12/23/23 44/22/22
f 45/24/24 44/22/22 12/23/23
f 12/23/23 13/25/25 45/24/24
f 46/26/26 45/24/24 13/25/25
f 46/26/26 13/25/25 47/27/27
f 14/28/28 47/27/27 13/25/25
f 47/27/27 14/28/28 48/29/29
f 15/30/30 48/29/29 14/28/28
f 49/31/31 16/32/32 50/33/33
f 17/34/34 50/33/33 16/32/32
f 17/34/34 18/35/35 50/33/33
f 51/36/36 50/33/33 18/35/35
f 53/37/37 52/38/38 20/39/39
f 19/40/40 20/39/39 52/38/38
f 52/38/38 54/41/41 19/40/40
f 21/42/42 19/40/40 54/41/41
f 21/42/42 54/41/41 22/43/43
f 55/44/44 22/43/43 54/41/41
f 55/44/44 56/45/45 22/43/43
f 23/46/46 22/43/43 56/45/45
f 23/46/46 56/45/45 24/47/47
f 57/48/48 24/47/47 56/45/45
f 57/48/48 58/49/49 24/47/47
f 25/50/50 24/47/47 58/49/49
f 25/50/50 58/49/49 26/51/51
f 59/52/52 26/51/51 58/49/49
f 26/51/51 59/52/52 27/53/53
f 60/54/54 27/53/53 59/52/52
f 27/53/53 60/54/54 28/55/55
f 61/56/56 28/55/55 60/54/54
f 28/55/55 61/56/56 29/57/57
f 62/58/58 29/57/57 61/56/56
f 29/57/57 62/58/58 30/59/59
f 63/60/60 30/59/59 62/58/58
f 30/59/59 63/60/60 31/61/61
f 64/62/62 31/61/61 63/60/60
f 64/62/62 65/63/63 31/61/61
f 32/64/64 31/61/61 65/63/63
f 65/63/63 66/65/65 32/64/64
f 33/66/66 32/64/64 66/65/65
f 67/67/67 74/68/1 68/69/67
f 73/70/1 68/69/67 74/68/1
f 73/70/1 75/71/1 68/69/67
f 69/72/68 68/69/67 75/71/1
f 70/73/69 71/74/70 77/75/37
f 76/76/37 77/75/37 71/74/70
f 76/76/37 71/74/70 78/77/37
f 72/78/70 78/77/37 71/74/70
f 85/79/2 86/80/2 81/81/71
f 79/82/71 81/81/71 86/80/2
f 79/82/71 86/80/2 80/83/71
f 87/84/2 80/83/71 86/80/2
f 88/85/39 84/86/72 89/87/39
f 82/88/72 89/87/39 84/86/72
f 82/88/72 83/89/72 89/87/39
f 90/90/39 89/87/39 83/89/72
f 96/91/2 92/92/71 95/93/2
f 91/94/71 95/93/2 92/92/71
f 93/95/72 94/96/72 97/97/39
f 98/98/39 97/97/39 94/96/72
