# Blender 5.1.0
# www.blender.org
mtllib Bsh_Hull_Midsection_Dredn_D3_001_0.mtl
o Bsh_Hull_Midsection_Dredn_D3_001_0
v -12.646020 -5.000003 -0.318306
v -12.384487 5.000022 -6.322208
v -12.646020 5.000026 -0.318305
v -12.384488 -4.999996 -6.322209
v -12.139357 5.000021 -8.095259
v -12.139358 -4.999994 -8.095261
v -10.423488 -4.999991 -9.320884
v -12.139357 5.000021 -8.095259
v -12.139358 -4.999994 -8.095261
v -10.423486 5.000015 -9.320883
v 0.000003 4.999978 -9.320874
v -0.000001 -4.999962 -9.320875
v 10.423489 5.000004 -9.320880
v 10.423483 -5.000004 -9.320881
v 12.139352 -5.000009 -8.095255
v 12.139358 5.000008 -8.095254
v 12.384487 5.000010 -6.322202
v 12.646016 -5.000017 -0.318298
v 12.646023 5.000013 -0.318298
v 12.384480 -5.000010 -6.322202
v 12.139352 -5.000009 -8.095255
v 12.139358 5.000008 -8.095254
vn -0.9991 -0.0000 -0.0435
vn -0.9959 -0.0000 -0.0903
vn -0.8557 -0.0000 -0.5175
vn -0.3052 -0.0000 -0.9523
vn -0.0000 -0.0000 -1.0000
vn 0.3052 -0.0000 -0.9523
vn 0.8557 -0.0000 -0.5175
vn 0.9991 -0.0000 -0.0435
vn 0.9959 -0.0000 -0.0903
vn 0.8557 0.0002 -0.5175
vt -12.844642 0.210740
vt -12.844642 0.120115
vt -12.693108 0.210740
vt -12.693108 0.120115
vt -12.844641 0.093351
vt -12.693108 0.093351
vt 0.317227 -12.693108
vt 0.317227 -12.844641
vt 0.343067 -12.693108
vt 0.343067 -12.844641
vt 0.500037 -12.844641
vt 0.500037 -12.693108
vt 0.657008 -12.844641
vt 0.657007 -12.693108
vt 0.682847 -12.693108
vt 0.682847 -12.844641
vt 13.844641 0.210741
vt 13.693108 0.210741
vt 13.844641 0.120115
vt 13.693108 0.120115
vt 13.693108 0.093351
vt 13.844641 0.093351
s 1
g Bsh_Hull_Midsection_Dredn_D3_001_0_hull_bottom
usemtl hull_bottom
f 3/1/1 2/2/2 1/3/1
f 4/4/2 1/3/1 2/2/2
f 2/2/2 5/5/3 4/4/2
f 6/6/3 4/4/2 5/5/3
f 9/7/3 8/8/3 7/9/4
f 10/10/4 7/9/4 8/8/3
f 10/10/4 11/11/5 7/9/4
f 12/12/5 7/9/4 11/11/5
f 11/11/5 13/13/6 12/12/5
f 14/14/6 12/12/5 13/13/6
f 14/14/6 13/13/6 15/15/7
f 16/16/7 15/15/7 13/13/6
f 19/17/8 18/18/8 17/19/9
f 20/20/9 17/19/9 18/18/8
f 20/20/9 21/21/7 17/19/9
f 22/22/10 17/19/9 21/21/7
