# Blender 5.1.0
# www.blender.org
mtllib Bsh_Hull_Stern_Dredn_AD1_002_3.mtl
o Bsh_Hull_Stern_Dredn_AD1_002_3
v 0.000001 -34.999931 5.099127
v -9.000101 -40.999928 5.099137
v -10.156645 -34.999931 5.099141
v -10.957980 -28.999926 5.099145
v -0.000001 -40.999928 5.099132
v -7.437139 -46.999935 5.099136
v -0.000003 -46.999954 5.099136
v -5.228678 -52.999928 5.099135
v 9.000099 -40.999935 5.099131
v 7.437131 -46.999943 5.099131
v 10.156648 -34.999943 5.099134
v 5.228666 -52.999931 5.099133
v 10.957987 -28.999935 5.099138
v 0.000003 -28.999922 5.099130
v 0.000006 -22.999924 5.099130
v -11.566709 -22.999933 5.099145
v 0.000009 -16.999933 5.099130
v 11.566722 -22.999945 5.099137
v -12.048512 -16.999928 5.099146
v 12.048529 -16.999939 5.099139
v -12.384458 -10.999945 5.099148
v 12.384480 -10.999956 5.099140
v 0.000011 -10.999943 5.099137
v -12.384472 -4.999947 5.099135
v 12.384498 -4.999958 5.099126
v 0.000013 -4.999950 5.099131
v -0.000006 -52.999931 5.099136
v -0.000008 -57.486195 5.099134
v -3.199999 -57.486168 5.099145
v 3.199984 -57.486172 5.099143
v -2.396255 -58.998589 5.099149
v -0.000008 -58.998589 5.099153
v 2.396239 -58.998592 5.099148
v -1.914405 -59.751461 5.099150
v 1.914388 -59.751465 5.099149
v -1.082363 -60.364567 5.099151
v 1.082345 -60.364571 5.099150
v -0.000008 -60.579857 5.099153
vn -0.0000 -0.0000 1.0000
vt 0.643051 0.519873
vt 0.626762 0.477620
vt 0.500000 0.519873
vt 0.654338 0.562127
vt 0.500000 0.477620
vt 0.604748 0.435366
vt 0.500000 0.435366
vt 0.573643 0.393113
vt 0.373238 0.477620
vt 0.395252 0.435366
vt 0.356949 0.519873
vt 0.426357 0.393113
vt 0.345662 0.562127
vt 0.500000 0.562127
vt 0.500000 0.604381
vt 0.662911 0.604380
vt 0.500000 0.646634
vt 0.337088 0.604380
vt 0.669697 0.646634
vt 0.330302 0.646634
vt 0.674429 0.688887
vt 0.325571 0.688887
vt 0.500000 0.688887
vt 0.674429 0.731141
vt 0.325570 0.731141
vt 0.500000 0.731141
vt 0.500000 0.393113
vt 0.500000 0.361520
vt 0.545070 0.361520
vt 0.454930 0.361520
vt 0.533750 0.350869
vt 0.500000 0.350869
vt 0.466250 0.350869
vt 0.526963 0.345567
vt 0.473037 0.345567
vt 0.515245 0.341249
vt 0.484756 0.341249
vt 0.500000 0.339733
s 1
g Bsh_Hull_Stern_Dredn_AD1_002_3_wood_deck_1
usemtl wood_deck_1
f 3/1/1 2/2/1 1/3/1
f 3/1/1 1/3/1 4/4/1
f 5/5/1 1/3/1 2/2/1
f 2/2/1 6/6/1 5/5/1
f 7/7/1 5/5/1 6/6/1
f 6/6/1 8/8/1 7/7/1
f 5/5/1 9/9/1 1/3/1
f 9/9/1 5/5/1 10/10/1
f 7/7/1 10/10/1 5/5/1
f 11/11/1 1/3/1 9/9/1
f 10/10/1 7/7/1 12/12/1
f 11/11/1 13/13/1 1/3/1
f 14/14/1 4/4/1 1/3/1
f 14/14/1 1/3/1 13/13/1
f 14/14/1 15/15/1 4/4/1
f 14/14/1 13/13/1 15/15/1
f 16/16/1 4/4/1 15/15/1
f 15/15/1 17/17/1 16/16/1
f 18/18/1 15/15/1 13/13/1
f 15/15/1 18/18/1 17/17/1
f 19/19/1 16/16/1 17/17/1
f 20/20/1 17/17/1 18/18/1
f 19/19/1 17/17/1 21/21/1
f 20/20/1 22/22/1 17/17/1
f 23/23/1 21/21/1 17/17/1
f 23/23/1 17/17/1 22/22/1
f 21/21/1 23/23/1 24/24/1
f 22/22/1 25/25/1 23/23/1
f 26/26/1 24/24/1 23/23/1
f 26/26/1 23/23/1 25/25/1
f 27/27/1 7/7/1 8/8/1
f 27/27/1 8/8/1 28/28/1
f 27/27/1 12/12/1 7/7/1
f 27/27/1 28/28/1 12/12/1
f 29/29/1 28/28/1 8/8/1
f 30/30/1 12/12/1 28/28/1
f 29/29/1 31/31/1 28/28/1
f 32/32/1 28/28/1 31/31/1
f 30/30/1 28/28/1 33/33/1
f 32/32/1 33/33/1 28/28/1
f 34/34/1 32/32/1 31/31/1
f 32/32/1 35/35/1 33/33/1
f 36/36/1 32/32/1 34/34/1
f 32/32/1 37/37/1 35/35/1
f 38/38/1 32/32/1 36/36/1
f 32/32/1 38/38/1 37/37/1
