# Blender 5.1.0
# www.blender.org
mtllib Bsh_Hull_Rostrum_Dredn_C_001_0.mtl
o Bsh_Hull_Rostrum_Dredn_C_001_0
v -12.384487 38.739227 5.099118
v -12.384491 34.970566 2.679094
v -12.384487 38.739227 2.679101
v -12.384492 34.970566 5.099108
v -12.646021 38.739212 1.524252
v -12.646012 34.970566 2.679092
v -12.646012 34.970566 1.524245
v -12.638825 38.867737 2.679101
v -12.310070 44.739220 1.524251
v -12.445978 42.311905 2.679100
v -12.310070 44.739220 2.679100
v -11.828274 50.739220 1.524252
v -11.828274 50.739220 2.679097
v -11.219556 56.739227 2.679097
v -11.219557 56.739227 1.524248
v -10.218229 62.739258 1.524246
v -10.218235 62.739258 2.679094
v -8.861674 68.739273 2.679094
v -8.768117 68.739273 1.524244
v -7.098698 74.739265 2.679090
v -6.985904 74.739265 1.524245
v -4.960227 80.548981 2.679089
v -4.847435 80.548981 1.524245
v -3.100830 86.756866 2.679094
v -3.006122 86.756866 1.524241
v -1.531547 92.743759 1.524226
v -1.621955 92.739227 2.679072
v -0.768733 98.493652 1.579124
v -0.766122 98.504150 1.524964
v -0.797961 98.445587 2.679061
v -0.683719 99.236740 2.679062
v -0.624664 99.568710 1.525102
v -0.515530 100.039978 2.679061
v -0.454127 100.365814 1.526767
v -0.316585 100.328873 2.679059
v -0.255222 100.634247 1.527435
v -12.384487 38.739227 2.679101
v -12.646012 34.970566 2.679092
v -12.638825 38.867737 2.679101
v -12.384491 34.970566 2.679094
v -12.177796 42.430580 2.679104
v -12.048531 44.739220 5.099117
v -12.177798 42.430588 5.099118
v -12.048531 44.739220 2.679105
v -11.566724 50.739220 5.099114
v -11.566723 50.739220 2.679101
v -10.957989 56.739212 5.099111
v -10.957987 56.739220 2.679100
v -10.156656 62.739220 5.099109
v -9.956650 62.739212 2.679095
v -8.600101 68.739204 2.679092
v -9.000109 68.739227 5.099107
v -7.437143 74.739227 5.099110
v -6.837137 74.739227 2.679094
v -6.013288 78.561165 5.099106
v -4.698683 80.548981 2.679099
v -5.298688 80.548981 5.099111
v -5.655988 80.548981 6.665829
v -6.013288 79.555069 6.665826
v -6.013289 80.548981 8.232545
v -4.695562 86.756866 8.305631
v -3.932814 86.756866 6.812271
v -3.000899 90.543915 6.802497
v -3.156654 92.742767 8.376078
v -2.862424 91.103683 6.800367
v -2.468885 92.741058 6.815773
v -2.187086 93.720566 6.798693
v -2.441591 94.991638 8.402548
v -2.033665 94.276451 6.801283
v -1.835178 94.991631 6.815770
v -0.734278 99.123581 6.815773
v -1.150651 99.228134 8.452434
v -0.546124 99.781494 6.815779
v -0.798949 99.929855 8.460700
v -0.411536 100.083435 6.815779
v -0.516600 100.231934 8.464257
v -12.813601 38.956047 5.099117
v -12.636513 42.227585 2.679101
v -12.636518 42.183014 5.099112
v -12.813599 38.956047 2.679103
v -12.638825 38.867737 2.679101
v -12.384487 38.739227 5.099118
v -12.384487 38.739227 2.679101
v -12.813601 38.956047 5.099117
v -12.813599 38.956047 2.679103
v -12.636518 42.183014 5.099112
v -12.384487 38.739227 5.099118
v -12.813601 38.956047 5.099117
v -12.384487 41.739212 5.099108
v -12.276279 42.283203 5.099111
v -12.177798 42.430588 5.099118
v -12.636518 42.183014 5.099112
v -12.636513 42.227585 2.679101
v -12.445978 42.311905 2.679100
v -12.177796 42.430580 2.679104
v -12.177798 42.430588 5.099118
v -12.310070 44.739220 2.679100
v -12.177796 42.430580 2.679104
v -12.445978 42.311905 2.679100
v -12.048531 44.739220 2.679105
v -11.828274 50.739220 2.679097
v -11.566723 50.739220 2.679101
v -11.219556 56.739227 2.679097
v -10.957987 56.739220 2.679100
v -10.218235 62.739258 2.679094
v -9.956650 62.739212 2.679095
v -8.861674 68.739273 2.679094
v -8.600101 68.739204 2.679092
v -7.098698 74.739265 2.679090
v -6.837137 74.739227 2.679094
v -4.960227 80.548981 2.679089
v -4.698683 80.548981 2.679099
v -3.100830 86.756866 2.679094
v -2.839309 86.756859 2.679095
v -1.621955 92.739227 2.679072
v -1.360463 92.739227 2.679086
v -0.797961 98.445587 2.679061
v -0.567667 98.445587 2.679076
v -0.683719 99.236740 2.679062
v -0.457749 99.236725 2.679082
v -0.367872 99.929199 2.679082
v -0.515530 100.039978 2.679061
v -0.242722 100.231339 2.679082
v -0.316585 100.328873 2.679059
v 0.000002 100.432098 2.679056
v 0.000002 100.320999 2.679080
v 0.242726 100.231339 2.679074
v 0.316589 100.328873 2.679051
v 0.515534 100.039978 2.679053
v 0.367876 99.929199 2.679075
v 0.683723 99.236740 2.679054
v 0.457754 99.236725 2.679075
v 0.567671 98.445587 2.679068
v 0.797965 98.445587 2.679053
v 1.360464 92.739227 2.679080
v 1.621956 92.739227 2.679067
v 2.839311 86.756859 2.679097
v 3.100832 86.756866 2.679095
v 4.698684 80.548981 2.679102
v 4.960228 80.548981 2.679093
v 6.837138 74.739227 2.679104
v 7.098699 74.739265 2.679100
v 8.600101 68.739204 2.679104
v 8.861674 68.739273 2.679110
v 9.956649 62.739212 2.679113
v 10.218234 62.739250 2.679113
v 10.957985 56.739212 2.679119
v 11.219554 56.739220 2.679116
v 11.566721 50.739220 2.679122
v 11.828272 50.739220 2.679119
v 12.048527 44.739220 2.679127
v 12.310066 44.739220 2.679127
v 12.177793 42.430580 2.679126
v 12.445973 42.311905 2.679127
v -12.638825 38.867737 2.679101
v -12.636513 42.227585 2.679101
v -12.813599 38.956047 2.679103
v -12.445978 42.311905 2.679100
v -0.255222 100.634247 1.527435
v 0.000002 100.432098 2.679056
v -0.316585 100.328873 2.679059
v 0.000003 100.721924 1.530223
v 0.255228 100.634247 1.527427
v 0.316589 100.328873 2.679051
v -0.272965 100.100342 3.911159
v -0.367872 99.929199 2.679082
v -0.242722 100.231339 2.679082
v -0.398114 99.798203 3.911159
v -0.317891 100.042450 5.099095
v -0.457749 99.236725 2.679082
v -0.443021 99.740356 5.099094
v -0.507182 99.120972 3.910863
v -0.567667 98.445587 2.679076
v -0.596440 98.578659 3.924184
v -1.360463 92.739227 2.679086
v -0.575403 99.075806 5.099093
v -1.341045 94.991638 5.099074
v -0.633285 98.767059 5.099088
v -1.542901 94.148727 5.100628
v -1.678867 93.588318 5.103556
v -1.879182 92.739197 5.099080
v -2.344209 90.968826 5.108387
v -2.488410 90.410545 5.108709
v -2.839309 86.756859 2.679095
v -3.432783 86.756866 5.099111
v -0.734278 99.123581 6.815773
v -1.341045 94.991638 5.099074
v -0.546124 99.781494 6.815779
v -0.411536 100.083435 6.815779
v -0.317891 100.042450 5.099095
v -3.932814 86.756866 6.812271
v -1.588110 94.991638 5.957422
v -1.835178 94.991631 6.815770
v -1.821663 94.703300 6.476737
v -2.033665 94.276451 6.801283
v -1.628890 94.834930 5.957422
v -1.527352 94.626709 5.422838
v -1.542901 94.148727 5.100628
v -2.901439 89.851921 5.957430
v -2.702031 89.984116 5.432743
v -2.488410 90.410545 5.108709
v -3.014873 90.069138 6.483165
v -3.000899 90.543915 6.802497
v -0.272965 100.100342 3.911159
v -0.000001 100.172379 5.099093
v -0.317891 100.042450 5.099095
v 0.000001 100.208191 3.909761
v -0.242722 100.231339 2.679082
v 0.000002 100.320999 2.679080
v 0.242726 100.231339 2.679074
v 0.272966 100.100342 3.911151
v 0.317890 100.042450 5.099087
v -0.317891 100.042450 5.099095
v -0.000002 100.253906 6.815774
v -0.411536 100.083435 6.815779
v -0.000001 100.172379 5.099093
v 0.317890 100.042450 5.099087
v 0.411531 100.083435 6.815772
v -0.000002 100.253906 6.815774
v -0.516600 100.231934 8.464257
v -0.411536 100.083435 6.815779
v -0.000004 100.446198 8.466776
v 0.516592 100.231934 8.464250
v 0.411531 100.083435 6.815772
v -2.647284 91.529716 6.476811
v -2.468885 92.741058 6.815773
v -2.862424 91.103683 6.800367
v -2.439770 91.659836 5.954754
v -2.174032 92.740128 5.957428
v -1.879182 92.739197 5.099080
v -2.324819 91.445053 5.429546
v -2.344209 90.968826 5.108387
v -2.091601 93.029587 5.952303
v -2.210040 93.244522 6.474151
v -2.187086 93.720566 6.798693
v -1.888374 93.160820 5.428886
v -1.678867 93.588318 5.103556
v 12.384483 38.739220 5.099145
v 12.384485 34.970558 2.679122
v 12.384486 34.970558 5.099136
v 12.384483 38.739220 2.679129
v 12.646007 34.970558 2.679120
v 12.646015 38.739204 1.524278
v 12.646006 34.970558 1.524272
v 12.638822 38.867737 2.679129
v 12.310065 44.739220 1.524277
v 12.445973 42.311905 2.679127
v 12.310066 44.739220 2.679127
v 11.828271 50.739220 1.524274
v 11.828272 50.739220 2.679119
v 11.219554 56.739220 2.679116
v 11.219554 56.739220 1.524267
v 10.218234 62.739250 1.524265
v 10.218234 62.739250 2.679113
v 8.861674 68.739273 2.679110
v 8.768123 68.739273 1.524260
v 7.098699 74.739265 2.679100
v 6.985911 74.739265 1.524255
v 4.960228 80.548981 2.679093
v 4.847440 80.548981 1.524249
v 3.100832 86.756866 2.679095
v 3.006128 86.756866 1.524242
v 1.531552 92.743759 1.524221
v 1.621956 92.739227 2.679067
v 0.768738 98.493652 1.579116
v 0.797965 98.445587 2.679053
v 0.766127 98.504150 1.524957
v 0.683723 99.236740 2.679054
v 0.624671 99.568710 1.525094
v 0.515534 100.039978 2.679053
v 0.454134 100.365814 1.526759
v 0.316589 100.328873 2.679051
v 0.255228 100.634247 1.527427
v 12.384483 38.739220 2.679129
v 12.646007 34.970558 2.679120
v 12.384485 34.970558 2.679122
v 12.638822 38.867737 2.679129
v 12.048527 44.739212 5.099139
v 12.177793 42.430580 2.679126
v 12.177794 42.430580 5.099140
v 12.048527 44.739220 2.679127
v 11.566722 50.739212 5.099134
v 11.566721 50.739220 2.679122
v 10.957987 56.739212 5.099131
v 10.957985 56.739212 2.679119
v 10.156647 62.739220 5.099127
v 9.956649 62.739212 2.679113
v 8.600101 68.739204 2.679104
v 9.000099 68.739227 5.099123
v 7.437135 74.739227 5.099120
v 6.837138 74.739227 2.679104
v 6.013280 78.561165 5.099114
v 4.698684 80.548981 2.679102
v 5.298681 80.548981 5.099119
v 3.432782 86.756866 5.099113
v 2.839311 86.756859 2.679097
v 5.655982 80.548981 6.665836
v 6.013281 79.555069 6.665833
v 6.013282 80.548981 8.232554
v 4.695554 86.756866 8.305636
v 3.932808 86.756866 6.812276
v 3.000894 90.543915 6.802493
v 3.932808 86.756866 6.812276
v 3.156647 92.742767 8.376074
v 2.862419 91.103683 6.800363
v 2.468879 92.741058 6.815767
v 2.187080 93.720566 6.798687
v 2.441582 94.991638 8.402543
v 2.033659 94.276451 6.801278
v 1.835172 94.991631 6.815764
v 0.734273 99.123581 6.815765
v 1.150643 99.228134 8.452426
v 0.546119 99.781494 6.815771
v 0.798940 99.929855 8.460692
v 0.411531 100.083435 6.815772
v 0.516592 100.231934 8.464250
v 2.702026 89.984116 5.432738
v 2.488407 90.410545 5.108709
v 2.901434 89.851921 5.957426
v 3.014868 90.069138 6.483160
v 3.000894 90.543915 6.802493
v 2.488407 90.410545 5.108709
v 1.360464 92.739227 2.679080
v 2.344207 90.968826 5.108387
v 1.879179 92.739197 5.099079
v 1.678864 93.588318 5.103550
v 1.542899 94.148727 5.100622
v 1.341042 94.991638 5.099068
v 0.596441 98.578659 3.924177
v 0.567671 98.445587 2.679068
v 0.633284 98.767059 5.099081
v 0.507184 99.120972 3.910856
v 0.457754 99.236725 2.679075
v 0.575402 99.075806 5.099087
v 0.398115 99.798203 3.911152
v 0.367876 99.929199 2.679075
v 0.272966 100.100342 3.911151
v 0.242726 100.231339 2.679074
v 0.317890 100.042450 5.099087
v 0.443019 99.740356 5.099087
v 0.734273 99.123581 6.815765
v 1.341042 94.991638 5.099068
v 0.546119 99.781494 6.815771
v 0.411531 100.083435 6.815772
v 0.317890 100.042450 5.099087
v 1.588108 94.991638 5.957417
v 1.835172 94.991631 6.815764
v 1.821657 94.703300 6.476732
v 2.033659 94.276451 6.801278
v 1.628888 94.834930 5.957417
v 1.527350 94.626709 5.422832
v 1.542899 94.148727 5.100622
v 12.813597 38.956039 5.099145
v 12.636508 42.227577 2.679128
v 12.813594 38.956039 2.679130
v 12.636513 42.183014 5.099139
v 12.384483 38.739220 5.099145
v 12.638822 38.867737 2.679129
v 12.384483 38.739220 2.679129
v 12.813597 38.956039 5.099145
v 12.813594 38.956039 2.679130
v 12.384483 38.739220 5.099145
v 12.636513 42.183014 5.099139
v 12.813597 38.956039 5.099145
v 12.384483 41.739212 5.099135
v 12.276275 42.283203 5.099138
v 12.177794 42.430580 5.099140
v 12.636513 42.183014 5.099139
v 12.445973 42.311905 2.679127
v 12.636508 42.227577 2.679128
v 12.177793 42.430580 2.679126
v 12.177794 42.430580 5.099140
v 12.638822 38.867737 2.679129
v 12.636508 42.227577 2.679128
v 12.445973 42.311905 2.679127
v 12.813594 38.956039 2.679130
v 2.647280 91.529716 6.476807
v 2.862419 91.103683 6.800363
v 2.468879 92.741058 6.815767
v 2.439767 91.659836 5.954749
v 2.174030 92.740128 5.957422
v 1.879179 92.739197 5.099079
v 2.324816 91.445053 5.429541
v 2.344207 90.968826 5.108387
v 2.091599 93.029587 5.952297
v 2.210034 93.244522 6.474145
v 2.187080 93.720566 6.798687
v 1.888372 93.160820 5.428881
v 1.678864 93.588318 5.103550
v -12.384488 24.970461 2.679098
v -12.384484 20.999983 5.099126
v -12.384484 20.999990 2.679101
v -12.384489 24.970503 5.099127
v -12.642414 20.871458 2.679100
v -12.646009 24.970461 1.524250
v -12.646009 24.970461 2.679096
v -12.646008 21.000013 1.524249
v -12.646009 14.999969 1.524248
v -12.646020 17.437458 2.679103
v -12.646009 14.999971 2.679096
v -12.646009 24.970461 2.679096
v -12.384484 20.999990 2.679101
v -12.642414 20.871458 2.679100
v -12.384488 24.970461 2.679098
v -12.384485 17.308607 2.679102
v -12.646009 14.999971 2.679096
v -12.646020 17.437458 2.679103
v -12.384488 14.999969 2.679097
v -12.384481 14.999971 5.099110
v -12.384488 14.999969 2.679097
v -12.384483 17.308599 5.099121
v -12.384485 17.308607 2.679102
v -12.813597 20.783148 5.099120
v -12.813583 17.511614 2.679103
v -12.813595 20.783148 2.679105
v -12.813588 17.556183 5.099114
v -12.384484 20.999983 5.099126
v -12.642414 20.871458 2.679100
v -12.384484 20.999990 2.679101
v -12.813597 20.783148 5.099120
v -12.813595 20.783148 2.679105
v -12.384484 20.999983 5.099126
v -12.813588 17.556183 5.099114
v -12.813597 20.783148 5.099120
v -12.384479 18.000021 5.099122
v -12.384483 17.308599 5.099121
v -12.813588 17.556183 5.099114
v -12.646020 17.437458 2.679103
v -12.813583 17.511614 2.679103
v -12.384485 17.308607 2.679102
v -12.384483 17.308599 5.099121
v -12.642414 20.871458 2.679100
v -12.813583 17.511614 2.679103
v -12.646020 17.437458 2.679103
v -12.813595 20.783148 2.679105
v 12.384488 24.970461 2.679098
v 12.384486 20.999983 5.099126
v 12.384490 24.970503 5.099127
v 12.384486 20.999990 2.679101
v 12.646009 24.970461 1.524250
v 12.642416 20.871458 2.679100
v 12.646009 24.970461 2.679096
v 12.646009 21.000013 1.524249
v 12.646010 14.999969 1.524248
v 12.646021 17.437456 2.679103
v 12.646010 14.999971 2.679096
v 12.646009 24.970461 2.679096
v 12.384486 20.999990 2.679101
v 12.384488 24.970461 2.679098
v 12.642416 20.871458 2.679100
v 12.646010 14.999971 2.679096
v 12.384487 17.308605 2.679102
v 12.646021 17.437456 2.679103
v 12.384490 14.999969 2.679097
v 12.384483 14.999971 5.099110
v 12.384490 14.999969 2.679097
v 12.384485 17.308599 5.099121
v 12.384487 17.308605 2.679102
v 12.813600 20.783148 5.099120
v 12.813584 17.511612 2.679103
v 12.813589 17.556183 5.099114
v 12.813598 20.783148 2.679105
v 12.642416 20.871458 2.679100
v 12.384486 20.999983 5.099126
v 12.384486 20.999990 2.679101
v 12.813600 20.783148 5.099120
v 12.813598 20.783148 2.679105
v 12.813589 17.556183 5.099114
v 12.384486 20.999983 5.099126
v 12.813600 20.783148 5.099120
v 12.384479 18.000021 5.099122
v 12.384485 17.308599 5.099121
v 12.813589 17.556183 5.099114
v 12.813584 17.511612 2.679103
v 12.646021 17.437456 2.679103
v 12.384487 17.308605 2.679102
v 12.384485 17.308599 5.099121
v 12.642416 20.871458 2.679100
v 12.813584 17.511612 2.679103
v 12.813598 20.783148 2.679105
v 12.646021 17.437456 2.679103
v -12.646036 24.970545 1.524262
v -12.646052 29.970549 2.679116
v -12.646036 24.970545 2.679110
v -12.646049 29.970549 1.524269
v -12.646033 34.970558 2.679112
v -12.646034 34.970558 1.524263
v -12.384513 34.970558 5.099118
v -12.384516 34.598694 5.099118
v -12.384511 34.970558 2.679108
v -12.384521 29.970549 2.679108
v -12.384522 27.989042 5.099118
v -12.384526 24.970545 2.679108
v -12.384526 24.970545 5.099123
v -12.384511 34.970558 2.679108
v -12.646052 29.970549 2.679116
v -12.646033 34.970558 2.679112
v -12.384521 29.970549 2.679108
v -12.646036 24.970545 2.679110
v -12.384526 24.970545 2.679108
v 12.646047 29.970545 2.679123
v 12.646029 24.970545 1.524270
v 12.646029 24.970545 2.679118
v 12.646046 29.970545 1.524275
v 12.646029 34.970558 2.679119
v 12.646029 34.970558 1.524270
v 12.384501 34.970558 5.099125
v 12.384506 34.970558 2.679114
v 12.384501 34.598694 5.099125
v 12.384516 29.970545 2.679115
v 12.384510 27.989038 5.099125
v 12.384520 24.970545 2.679116
v 12.384511 24.970545 5.099131
v 12.646047 29.970545 2.679123
v 12.384506 34.970558 2.679114
v 12.646029 34.970558 2.679119
v 12.384516 29.970545 2.679115
v 12.646029 24.970545 2.679118
v 12.384520 24.970545 2.679116
v -12.646025 4.999937 1.524265
v -12.646024 14.999968 1.524267
v 12.646018 4.999924 1.524274
v 12.646024 14.999956 1.524274
v -12.646024 14.999969 2.679116
v -12.646025 4.999935 2.679114
v -12.384506 14.999971 5.099129
v -12.384516 4.999994 2.679118
v -12.384502 14.999973 2.679117
v -12.384520 4.999994 5.099130
v -12.646024 14.999969 2.679116
v -12.384516 4.999994 2.679118
v -12.646025 4.999935 2.679114
v -12.384502 14.999973 2.679117
v 12.646024 14.999958 2.679123
v 12.646018 4.999922 2.679123
v 12.384500 14.999960 5.099138
v 12.384509 4.999981 2.679127
v 12.384505 4.999983 5.099140
v 12.384503 14.999962 2.679124
v 12.646024 14.999958 2.679123
v 12.384509 4.999981 2.679127
v 12.384503 14.999962 2.679124
v 12.646018 4.999922 2.679123
v -5.228718 9.862595 8.022910
v -3.000026 7.766851 8.022914
v -3.000027 7.766848 7.920275
v -1.787539 6.626690 8.022914
v -1.787539 6.626690 7.920275
v 1.787476 6.626682 8.022910
v 1.787476 6.626682 7.920271
v 2.999966 7.766846 8.022910
v 2.999966 7.766844 7.920271
v 5.228704 9.862589 8.022911
v -3.000027 7.766848 7.920275
v 1.787476 6.626682 7.920271
v 2.999966 7.766844 7.920271
v -1.787539 6.626690 7.920275
v -1.873888 7.154932 7.920275
v -1.701172 7.596987 7.318440
v -1.873887 7.596987 7.318440
v -1.701171 7.154932 7.920275
v -1.873887 7.766838 7.920275
v -1.873887 7.596987 7.318440
v -1.873889 7.766838 7.318440
v -1.873888 7.154932 7.920275
v -1.873889 7.766838 7.318440
v -1.701172 7.596987 7.318440
v -1.701172 7.766836 7.318440
v -1.873887 7.596987 7.318440
v -1.701172 7.766836 7.318440
v -1.701171 7.154932 7.920275
v -1.701170 7.766838 7.920275
v -1.701172 7.596987 7.318440
vn -1.0000 -0.0000 -0.0000
vn -1.0000 0.0003 0.0011
vn -0.9996 0.0275 0.0012
vn -0.9995 0.0308 0.0028
vn -0.9977 0.0680 -0.0000
vn -0.9984 0.0559 -0.0000
vn -0.9959 0.0905 -0.0000
vn -0.9911 0.1328 -0.0000
vn -0.9795 0.2013 -0.0059
vn -0.9813 0.1926 -0.0000
vn -0.9637 0.2566 -0.0734
vn -0.9628 0.2584 -0.0785
vn -0.9453 0.3132 -0.0914
vn -0.9447 0.3147 -0.0918
vn -0.9444 0.3156 -0.0922
vn -0.9449 0.3143 -0.0919
vn -0.9619 0.2615 -0.0795
vn -0.9623 0.2602 -0.0795
vn -0.9798 0.1852 -0.0761
vn -0.9796 0.1872 -0.0726
vn -0.9906 0.1353 -0.0217
vn -0.9918 0.1264 -0.0161
vn -0.9895 0.1429 -0.0201
vn -0.9862 0.1654 -0.0061
vn -0.9861 0.1657 0.0105
vn -0.9306 0.3620 0.0539
vn -0.9125 0.3966 0.1001
vn -0.6193 0.7654 0.1749
vn -0.5830 0.7691 0.2619
vn -0.0000 -0.0000 -1.0000
vn -0.0000 -0.0000 1.0000
vn -0.9932 0.1167 -0.0000
vn -0.9927 0.1206 -0.0099
vn -0.9796 0.1841 -0.0807
vn -0.9780 0.1923 -0.0808
vn -0.9611 0.2260 -0.1588
vn -0.9630 0.2173 -0.1592
vn -0.9273 0.3028 -0.2202
vn -0.9236 0.3083 -0.2278
vn -0.9152 0.3355 -0.2233
vn -0.9247 0.3055 -0.2273
vn -0.9240 0.3060 -0.2291
vn -0.9302 0.2997 -0.2121
vn -0.9201 0.3308 -0.2098
vn -0.9462 0.2410 -0.2158
vn -0.8768 0.2318 -0.4212
vn -0.8667 0.2302 -0.4427
vn -0.8828 0.2266 -0.4115
vn -0.8875 0.2469 -0.3891
vn -0.8925 0.2190 -0.3944
vn -0.8895 0.2343 -0.3923
vn -0.8921 0.2638 -0.3668
vn -0.9021 0.2635 -0.3418
vn -0.9041 0.2538 -0.3437
vn -0.9047 0.2491 -0.3457
vn -0.9257 0.2705 -0.2644
vn -0.9122 0.3423 -0.2253
vn -0.9111 0.3578 -0.2046
vn -0.8224 0.5496 -0.1471
vn -0.6741 0.7242 -0.1455
vn -0.5651 0.8177 -0.1097
vn -0.9985 0.0548 0.0010
vn -0.9985 0.0545 0.0006
vn -0.9985 0.0544 0.0004
vn -0.9985 0.0541 -0.0000
vn -0.4510 -0.8925 -0.0000
vn -0.4046 0.9143 0.0168
vn -0.4659 0.8848 0.0022
vn -0.4143 0.9100 0.0146
vn -0.4750 0.8800 -0.0000
vn -0.0001 -0.0000 1.0000
vn -0.0001 0.0001 1.0000
vn -0.0001 0.0002 1.0000
vn -0.0000 0.0002 1.0000
vn 0.0001 0.0001 1.0000
vn 0.0001 -0.0000 1.0000
vn -0.6194 0.7654 0.1749
vn -0.0000 0.9705 0.2411
vn -0.5829 0.7692 0.2620
vn -0.0000 0.9389 0.3442
vn 0.5829 0.7692 0.2619
vn 0.6193 0.7654 0.1749
vn -0.6767 0.7339 0.0588
vn -0.9638 0.2667 0.0047
vn -0.7042 0.7092 0.0321
vn -0.9632 0.2683 -0.0126
vn -0.7160 0.6980 0.0070
vn -0.9902 0.1380 -0.0206
vn -0.9547 0.2911 -0.0620
vn -0.9863 0.1609 -0.0366
vn -0.9895 0.1406 -0.0342
vn -0.9852 0.1622 -0.0551
vn -0.9594 0.2144 -0.1831
vn -0.9765 0.1987 -0.0836
vn -0.9725 0.1792 -0.1488
vn -0.9811 0.1839 -0.0603
vn -0.9518 0.2284 -0.2046
vn -0.9518 0.2281 -0.2049
vn -0.9499 0.2371 -0.2036
vn -0.9475 0.2455 -0.2048
vn -0.9468 0.2388 -0.2160
vn -0.9388 0.2592 -0.2270
vn -0.9371 0.2625 -0.2301
vn -0.9641 0.2375 -0.1184
vn -0.9396 0.2323 -0.2512
vn -0.9402 0.3319 -0.0767
vn -0.7013 0.7105 -0.0576
vn -0.7008 0.7112 -0.0558
vn -0.9287 0.2558 -0.2684
vn -0.9304 0.2473 -0.2704
vn -0.9291 0.2575 -0.2655
vn -0.9271 0.2651 -0.2651
vn -0.9289 0.2631 -0.2608
vn -0.9304 0.2413 -0.2761
vn -0.9328 0.2303 -0.2772
vn -0.9322 0.2227 -0.2854
vn -0.9279 0.2341 -0.2900
vn -0.9255 0.2399 -0.2932
vn -0.9251 0.2399 -0.2942
vn -0.9275 0.2276 -0.2964
vn -0.9272 0.2274 -0.2975
vn -0.7160 0.6981 0.0070
vn -0.0000 0.9995 0.0328
vn -0.7041 0.7093 0.0321
vn -0.0000 0.9980 0.0634
vn -0.6767 0.7339 0.0589
vn -0.0000 0.9958 0.0913
vn 0.6767 0.7339 0.0589
vn 0.7041 0.7093 0.0321
vn 0.7160 0.6981 0.0069
vn -0.7012 0.7106 -0.0577
vn -0.0000 0.9989 -0.0465
vn -0.7007 0.7112 -0.0558
vn -0.0000 0.9989 -0.0474
vn 0.7007 0.7113 -0.0558
vn 0.7012 0.7106 -0.0577
vn -0.6740 0.7242 -0.1455
vn -0.0000 0.9933 -0.1157
vn 0.5651 0.8177 -0.1097
vn 0.6740 0.7242 -0.1455
vn -0.9214 0.2244 -0.3171
vn -0.9183 0.2405 -0.3145
vn -0.9224 0.2239 -0.3148
vn -0.9224 0.2306 -0.3098
vn -0.9178 0.2411 -0.3155
vn -0.9230 0.2297 -0.3088
vn -0.9227 0.2409 -0.3010
vn -0.9226 0.2408 -0.3013
vn -0.9163 0.2499 -0.3129
vn -0.9141 0.2574 -0.3133
vn -0.9141 0.2575 -0.3131
vn -0.9264 0.2192 -0.3061
vn -0.9259 0.2200 -0.3071
vn 1.0000 -0.0000 -0.0000
vn 0.9996 0.0275 0.0012
vn 1.0000 0.0003 0.0011
vn 0.9995 0.0308 0.0028
vn 0.9977 0.0680 -0.0000
vn 0.9984 0.0559 -0.0000
vn 0.9959 0.0905 -0.0000
vn 0.9911 0.1328 -0.0000
vn 0.9795 0.2013 -0.0059
vn 0.9813 0.1926 -0.0000
vn 0.9637 0.2566 -0.0734
vn 0.9629 0.2582 -0.0789
vn 0.9453 0.3132 -0.0914
vn 0.9447 0.3149 -0.0915
vn 0.9444 0.3156 -0.0922
vn 0.9449 0.3143 -0.0914
vn 0.9619 0.2615 -0.0795
vn 0.9623 0.2602 -0.0796
vn 0.9798 0.1852 -0.0761
vn 0.9796 0.1872 -0.0726
vn 0.9906 0.1353 -0.0217
vn 0.9895 0.1429 -0.0200
vn 0.9919 0.1264 -0.0161
vn 0.9862 0.1654 -0.0061
vn 0.9861 0.1657 0.0105
vn 0.9306 0.3620 0.0540
vn 0.9125 0.3966 0.1001
vn 0.5830 0.7691 0.2619
vn 0.9932 0.1167 -0.0000
vn 0.9927 0.1206 -0.0099
vn 0.9796 0.1841 -0.0807
vn 0.9780 0.1923 -0.0808
vn 0.9611 0.2260 -0.1588
vn 0.9630 0.2173 -0.1592
vn 0.9273 0.3028 -0.2202
vn 0.9236 0.3083 -0.2278
vn 0.9152 0.3356 -0.2233
vn 0.9247 0.3055 -0.2273
vn 0.9240 0.3060 -0.2291
vn 0.9371 0.2625 -0.2301
vn 0.9388 0.2592 -0.2270
vn 0.9302 0.2997 -0.2121
vn 0.9201 0.3308 -0.2098
vn 0.9462 0.2410 -0.2158
vn 0.8768 0.2318 -0.4212
vn 0.8667 0.2302 -0.4426
vn 0.8828 0.2266 -0.4115
vn 0.9287 0.2558 -0.2684
vn 0.8875 0.2469 -0.3891
vn 0.8925 0.2190 -0.3944
vn 0.8895 0.2343 -0.3923
vn 0.8921 0.2638 -0.3668
vn 0.9021 0.2635 -0.3418
vn 0.9041 0.2538 -0.3437
vn 0.9047 0.2491 -0.3457
vn 0.9257 0.2705 -0.2644
vn 0.9122 0.3423 -0.2253
vn 0.9111 0.3578 -0.2046
vn 0.8224 0.5496 -0.1471
vn 0.9251 0.2399 -0.2942
vn 0.9255 0.2399 -0.2932
vn 0.9279 0.2341 -0.2900
vn 0.9275 0.2276 -0.2964
vn 0.9272 0.2274 -0.2975
vn 0.9468 0.2388 -0.2160
vn 0.9594 0.2144 -0.1831
vn 0.9475 0.2455 -0.2048
vn 0.9499 0.2371 -0.2036
vn 0.9518 0.2281 -0.2049
vn 0.9518 0.2284 -0.2046
vn 0.9725 0.1792 -0.1488
vn 0.9852 0.1622 -0.0551
vn 0.9895 0.1406 -0.0342
vn 0.9811 0.1839 -0.0603
vn 0.9863 0.1609 -0.0366
vn 0.9902 0.1380 -0.0206
vn 0.9765 0.1987 -0.0836
vn 0.9632 0.2683 -0.0126
vn 0.9638 0.2667 0.0047
vn 0.7042 0.7092 0.0321
vn 0.6767 0.7339 0.0588
vn 0.9547 0.2911 -0.0620
vn 0.9641 0.2375 -0.1184
vn 0.9396 0.2323 -0.2512
vn 0.9402 0.3319 -0.0767
vn 0.7013 0.7105 -0.0576
vn 0.7008 0.7112 -0.0558
vn 0.9304 0.2473 -0.2704
vn 0.9291 0.2575 -0.2655
vn 0.9271 0.2651 -0.2651
vn 0.9289 0.2631 -0.2608
vn 0.9304 0.2413 -0.2760
vn 0.9328 0.2303 -0.2772
vn 0.9322 0.2227 -0.2854
vn 0.9985 0.0541 -0.0000
vn 0.9985 0.0545 0.0006
vn 0.9985 0.0544 0.0004
vn 0.9985 0.0548 0.0010
vn 0.4510 -0.8925 -0.0000
vn 0.4047 0.9143 0.0168
vn 0.4046 0.9143 0.0168
vn 0.4659 0.8848 0.0022
vn 0.4142 0.9100 0.0146
vn 0.4749 0.8800 -0.0000
vn 0.9183 0.2405 -0.3145
vn 0.9214 0.2244 -0.3171
vn 0.9224 0.2239 -0.3148
vn 0.9224 0.2306 -0.3098
vn 0.9178 0.2411 -0.3155
vn 0.9230 0.2297 -0.3088
vn 0.9227 0.2409 -0.3010
vn 0.9226 0.2408 -0.3013
vn 0.9163 0.2499 -0.3129
vn 0.9141 0.2574 -0.3133
vn 0.9141 0.2575 -0.3131
vn 0.9264 0.2192 -0.3061
vn 0.9259 0.2200 -0.3071
vn -1.0000 -0.0009 -0.0000
vn -1.0000 -0.0000 0.0031
vn -1.0000 -0.0000 0.0028
vn -1.0000 0.0010 -0.0022
vn -1.0000 0.0009 -0.0019
vn -0.0022 0.0001 1.0000
vn -0.4460 0.8950 -0.0000
vn -0.4511 0.8925 0.0006
vn -0.4510 0.8925 0.0007
vn -0.4585 0.8887 -0.0000
vn -0.4046 -0.9143 0.0168
vn -0.4243 -0.9054 0.0150
vn -0.4910 -0.8712 0.0018
vn -0.4494 -0.8932 0.0117
vn -0.4998 -0.8662 -0.0000
vn 1.0000 -0.0009 -0.0000
vn 1.0000 -0.0008 0.0002
vn 1.0000 -0.0000 0.0031
vn 1.0000 0.0009 -0.0019
vn 0.0022 0.0001 1.0000
vn 0.4460 0.8950 -0.0000
vn 0.4514 0.8923 0.0006
vn 0.4585 0.8887 -0.0000
vn 0.4243 -0.9054 0.0150
vn 0.4046 -0.9143 0.0168
vn 0.4910 -0.8712 0.0018
vn 0.4494 -0.8932 0.0117
vn 0.4998 -0.8662 -0.0000
vn -0.9967 0.0812 -0.0000
vn 0.9967 0.0812 -0.0000
vn -0.6850 -0.7285 -0.0000
vn -0.3684 -0.9296 -0.0000
vn -0.3684 -0.9297 -0.0000
vn 0.3684 -0.9297 -0.0000
vn 0.3684 -0.9296 -0.0000
vn 0.6850 -0.7285 -0.0000
vn -0.0000 -0.8060 -0.5920
vt -16.270977 0.255985
vt -16.180058 0.255985
vt -16.270977 0.292514
vt -16.180058 0.292514
vt -16.180058 0.238553
vt -16.270977 0.238553
vt -16.272924 0.255985
vt -16.361898 0.238553
vt -16.325115 0.255985
vt -16.361898 0.255985
vt -16.452818 0.238553
vt -16.452818 0.255985
vt -16.543737 0.255985
vt -16.543737 0.238553
vt -16.634659 0.238553
vt -16.634659 0.255985
vt -16.725578 0.255985
vt -16.725578 0.238553
vt -16.816498 0.255985
vt -16.816498 0.238553
vt -16.904535 0.255985
vt -16.904535 0.238553
vt -16.998606 0.255985
vt -16.998606 0.238553
vt -17.089327 0.238553
vt -17.089258 0.255984
vt -17.176456 0.239381
vt -17.176617 0.238564
vt -17.175728 0.255984
vt -17.187717 0.255984
vt -17.192747 0.238566
vt -17.199888 0.255984
vt -17.204826 0.238591
vt -17.204266 0.255984
vt -17.208895 0.238601
vt 0.690285 -16.272924
vt 0.690393 -16.180058
vt 0.686455 -16.270977
vt 0.686455 -16.180058
vt -16.326914 0.292514
vt -16.361898 0.292514
vt -16.326914 0.255985
vt -16.361898 0.255985
vt -16.452818 0.292514
vt -16.452818 0.255985
vt -16.543737 0.292514
vt -16.543737 0.255985
vt -16.634657 0.292514
vt -16.634657 0.255985
vt -16.725578 0.255985
vt -16.725578 0.292514
vt -16.816498 0.292514
vt -16.816498 0.255985
vt -16.874413 0.292514
vt -16.904535 0.255985
vt -16.904535 0.292514
vt -16.904535 0.316162
vt -16.889475 0.316162
vt -16.904535 0.339811
vt -16.998606 0.340914
vt -16.998606 0.318373
vt -17.055992 0.318225
vt -17.089312 0.341978
vt -17.064474 0.318193
vt -17.089285 0.318426
vt -17.104128 0.318168
vt -17.123390 0.342377
vt -17.112553 0.318207
vt -17.123390 0.318426
vt -17.186003 0.318426
vt -17.187586 0.343130
vt -17.195972 0.318426
vt -17.198219 0.343255
vt -17.200546 0.318426
vt -17.202797 0.343309
vt -16.323162 0.292514
vt -16.323837 0.255985
vt -16.274263 0.292514
vt -16.274263 0.255985
vt 0.313545 0.255985
vt 0.313545 0.292514
vt 0.309715 0.255985
vt 0.307083 0.292514
vt 0.307083 0.255985
vt 0.692917 -16.274263
vt 0.690250 -16.323162
vt 0.686455 -16.316437
vt 0.684825 -16.324680
vt 0.683342 -16.326914
vt 0.687380 0.255985
vt 0.690250 0.255985
vt 0.690250 0.292514
vt 0.683342 0.255985
vt 0.683342 0.292514
vt 0.687380 -16.325115
vt 0.683342 -16.326914
vt 0.685334 -16.361898
vt 0.681395 -16.361898
vt 0.678078 -16.452818
vt 0.674139 -16.452818
vt 0.668911 -16.543737
vt 0.664972 -16.543737
vt 0.653831 -16.634659
vt 0.649892 -16.634657
vt 0.633402 -16.725578
vt 0.629463 -16.725578
vt 0.606853 -16.816498
vt 0.602914 -16.816498
vt 0.574649 -16.904535
vt 0.570710 -16.904535
vt 0.546647 -16.998606
vt 0.542709 -16.998606
vt 0.524376 -17.089258
vt 0.520438 -17.089258
vt 0.511967 -17.175728
vt 0.508499 -17.175728
vt 0.510247 -17.187717
vt 0.506844 -17.187717
vt 0.505490 -17.198210
vt 0.507714 -17.199888
vt 0.503606 -17.202789
vt 0.504718 -17.204266
vt 0.499950 -17.205830
vt 0.499950 -17.204147
vt 0.496295 -17.202789
vt 0.495183 -17.204266
vt 0.492187 -17.199888
vt 0.494411 -17.198210
vt 0.489654 -17.187717
vt 0.493057 -17.187717
vt 0.491402 -17.175728
vt 0.487934 -17.175728
vt 0.479463 -17.089258
vt 0.475525 -17.089258
vt 0.457193 -16.998606
vt 0.453255 -16.998606
vt 0.429193 -16.904535
vt 0.425254 -16.904535
vt 0.396989 -16.816498
vt 0.393050 -16.816498
vt 0.370441 -16.725578
vt 0.366502 -16.725578
vt 0.350012 -16.634657
vt 0.346073 -16.634659
vt 0.334933 -16.543737
vt 0.330994 -16.543737
vt 0.325766 -16.452818
vt 0.321828 -16.452818
vt 0.318511 -16.361898
vt 0.314572 -16.361898
vt 0.316564 -16.326914
vt 0.312526 -16.325115
vt 0.307083 -16.274263
vt 0.309750 -16.323837
vt 0.309715 -16.272924
vt 0.312620 -16.325115
vt 0.504718 0.255984
vt 0.499950 0.255984
vt 0.503794 0.238601
vt 0.499950 0.238643
vt 0.496107 0.238601
vt 0.495183 0.255984
vt -17.202789 0.255984
vt -17.198210 0.255984
vt -17.200804 0.274582
vt -17.196224 0.274582
vt -17.199926 0.292513
vt -17.187717 0.255984
vt -17.195349 0.292513
vt -17.185963 0.274578
vt -17.175728 0.255984
vt -17.177746 0.274779
vt -17.089258 0.255985
vt -17.185278 0.292513
vt -17.123390 0.292513
vt -17.180599 0.292513
vt -17.110617 0.292537
vt -17.102125 0.292581
vt -17.089258 0.292513
vt -17.062431 0.292654
vt -17.053970 0.292659
vt -16.998606 0.255985
vt -16.998606 0.292514
vt -17.123390 0.305469
vt -17.119020 0.313308
vt -17.121016 0.305469
vt -17.117859 0.297400
vt -17.045506 0.305470
vt -17.047508 0.297550
vt -17.048798 0.313405
vt 0.504738 0.292513
vt 0.499951 0.292513
vt 0.504061 0.274582
vt 0.499951 0.274561
vt 0.503606 0.255984
vt 0.499950 0.255984
vt 0.496295 0.255984
vt 0.495840 0.274582
vt 0.495163 0.292513
vt 0.506148 0.318426
vt 0.499951 0.318426
vt 0.493753 0.318426
vt 0.507730 0.343309
vt 0.499951 0.343347
vt 0.492171 0.343309
vt -17.070930 0.313309
vt -17.072901 0.305429
vt -17.089272 0.305470
vt -17.069647 0.297501
vt -17.093658 0.305392
vt -17.096914 0.313269
vt -17.095646 0.297491
vt 17.180058 0.292514
vt 17.180058 0.255985
vt 17.270977 0.292514
vt 17.270977 0.255985
vt 17.180058 0.238553
vt 17.270977 0.238553
vt 17.180058 0.255985
vt 17.272924 0.255985
vt 17.361898 0.238553
vt 17.325115 0.255985
vt 17.361898 0.255985
vt 17.452818 0.238553
vt 17.452818 0.255985
vt 17.543737 0.255985
vt 17.543737 0.238553
vt 17.634659 0.238553
vt 17.634659 0.255985
vt 17.725578 0.255985
vt 17.725578 0.238553
vt 17.816498 0.255985
vt 17.816498 0.238553
vt 17.904535 0.255985
vt 17.904535 0.238553
vt 17.998606 0.255985
vt 17.998606 0.238553
vt 18.089327 0.238552
vt 18.089258 0.255984
vt 18.176456 0.239381
vt 18.175728 0.255984
vt 18.176617 0.238564
vt 18.187717 0.255984
vt 18.192747 0.238566
vt 18.199888 0.255984
vt 18.204826 0.238591
vt 18.204266 0.255984
vt 18.208895 0.238601
vt 0.313452 -16.180058
vt 0.309514 -16.180058
vt 0.313452 -16.270977
vt 0.309622 -16.272924
vt 17.326914 0.292514
vt 17.326914 0.255985
vt 17.361898 0.292514
vt 17.452818 0.292514
vt 17.452818 0.255985
vt 17.543737 0.292514
vt 17.543737 0.255985
vt 17.634657 0.292514
vt 17.634657 0.255985
vt 17.725578 0.255985
vt 17.725578 0.292514
vt 17.816498 0.292514
vt 17.816498 0.255985
vt 17.874413 0.292514
vt 17.904535 0.255985
vt 17.904535 0.292514
vt 17.998606 0.292514
vt 17.904535 0.316163
vt 17.889473 0.316163
vt 17.904535 0.339811
vt 17.998606 0.340915
vt 17.998606 0.318373
vt 18.055992 0.318225
vt 18.089312 0.341978
vt 18.064474 0.318193
vt 18.089285 0.318426
vt 18.104128 0.318168
vt 18.123390 0.342377
vt 18.112553 0.318207
vt 18.123390 0.318426
vt 18.186003 0.318426
vt 18.187586 0.343130
vt 18.195972 0.318426
vt 18.198219 0.343255
vt 18.200546 0.318426
vt 18.202797 0.343309
vt 18.053970 0.292659
vt 18.047508 0.297550
vt 18.045506 0.305469
vt 18.048798 0.313405
vt 18.089258 0.255984
vt 18.062431 0.292654
vt 18.089258 0.292513
vt 18.102125 0.292581
vt 18.110617 0.292536
vt 18.123390 0.292513
vt 18.177746 0.274779
vt 18.175728 0.255984
vt 18.180599 0.292513
vt 18.185963 0.274577
vt 18.187717 0.255984
vt 18.185278 0.292513
vt 18.196224 0.274582
vt 18.198210 0.255984
vt 18.200804 0.274582
vt 18.202789 0.255984
vt 18.199926 0.292513
vt 18.195349 0.292513
vt 18.123390 0.305469
vt 18.119020 0.313308
vt 18.121016 0.305469
vt 18.117859 0.297400
vt 17.274263 0.255985
vt 17.323837 0.255985
vt 17.274263 0.292514
vt 17.323162 0.292514
vt 0.686548 0.255985
vt 0.690378 0.255985
vt 0.686548 0.292514
vt 0.693010 0.292514
vt 0.693010 0.255985
vt 0.306990 -16.274263
vt 0.309656 -16.323162
vt 0.313452 -16.316437
vt 0.315081 -16.324680
vt 0.309656 0.255985
vt 0.312526 0.255985
vt 0.309656 0.292514
vt 0.316564 0.255985
vt 0.316564 0.292514
vt 0.687474 -16.325115
vt 0.690344 -16.323837
vt 0.690378 -16.272924
vt 0.693010 -16.274263
vt 18.070930 0.313309
vt 18.072901 0.305429
vt 18.089272 0.305469
vt 18.069647 0.297501
vt 18.093658 0.305392
vt 18.096914 0.313269
vt 18.095646 0.297491
vt -19.299963 0.255985
vt -19.299963 0.292514
vt -19.360128 0.255985
vt -19.360130 0.292514
vt -19.360128 0.255985
vt -19.360128 0.238553
vt -19.298016 0.255985
vt -19.299963 0.238553
vt -19.209044 0.238553
vt -19.245979 0.255985
vt -19.209044 0.255985
vt 0.690330 -19.298016
vt 0.686446 -19.299963
vt 0.690384 -19.360128
vt 0.686446 -19.360128
vt 0.690385 -19.245979
vt 0.690385 -19.209044
vt 0.686446 -19.244026
vt 0.686446 -19.209044
vt -19.209044 0.292514
vt -19.244026 0.292514
vt -19.244026 0.255985
vt -19.296679 0.255985
vt -19.247103 0.255985
vt -19.296679 0.292514
vt -19.247778 0.292514
vt 0.686446 0.255985
vt 0.690330 0.255985
vt 0.686446 0.292514
vt 0.692908 0.292514
vt 0.692908 0.255985
vt 0.692908 -19.296679
vt 0.692908 -19.247778
vt 0.686446 -19.254503
vt 0.686446 -19.244026
vt 0.307092 0.255985
vt 0.309615 0.255985
vt 0.307092 0.292514
vt 0.313554 0.255985
vt 0.313554 0.292514
vt 0.309615 -19.245979
vt 0.307092 -19.247103
vt 0.309670 -19.298016
vt 0.307092 -19.296679
vt 20.360130 0.292514
vt 20.299963 0.292514
vt 20.360128 0.255985
vt 20.299963 0.255985
vt 20.360128 0.255985
vt 20.298016 0.255985
vt 20.360128 0.238553
vt 20.299963 0.238553
vt 20.209044 0.238553
vt 20.245979 0.255985
vt 20.209044 0.255985
vt 0.313443 -19.360128
vt 0.313443 -19.299963
vt 0.309505 -19.360128
vt 0.309559 -19.298016
vt 0.309505 -19.245979
vt 0.313443 -19.244026
vt 0.309505 -19.209044
vt 0.313443 -19.209044
vt 20.209044 0.292514
vt 20.209044 0.255985
vt 20.244026 0.292514
vt 20.244026 0.255985
vt 20.247778 0.292514
vt 20.247103 0.255985
vt 20.296677 0.292514
vt 20.296677 0.255985
vt 0.313443 0.255985
vt 0.313443 0.292514
vt 0.309559 0.255985
vt 0.306981 0.292514
vt 0.306981 0.255985
vt 0.306981 -19.296677
vt 0.306981 -19.247778
vt 0.313444 -19.254503
vt 0.313443 -19.244026
vt 0.690495 0.255985
vt 0.693018 0.255985
vt 0.693019 0.292514
vt 0.686557 0.255985
vt 0.686557 0.292514
vt 0.693019 -19.296677
vt 0.693018 -19.247103
vt 0.690441 -19.298016
vt 0.690495 -19.245979
vt -16.028522 0.255985
vt -16.104290 0.255985
vt -16.028522 0.238553
vt -16.104290 0.238553
vt -16.180058 0.255985
vt -16.180058 0.238553
vt -16.180058 0.255985
vt -16.174421 0.292514
vt -16.180058 0.292514
vt -16.104290 0.255985
vt -16.074263 0.292514
vt -16.028522 0.255985
vt -16.028522 0.292514
vt 0.690393 -16.180058
vt 0.690394 -16.104290
vt 0.686455 -16.180058
vt 0.686455 -16.104290
vt 0.690394 -16.028522
vt 0.686455 -16.028522
vt 17.028522 0.255985
vt 17.028522 0.238553
vt 17.104290 0.255985
vt 17.104290 0.238553
vt 17.180058 0.238553
vt 17.174421 0.292514
vt 17.180058 0.255985
vt 17.180058 0.292514
vt 17.104290 0.255985
vt 17.074263 0.292514
vt 17.028522 0.255985
vt 17.028522 0.292514
vt 0.309513 -16.180058
vt 0.313451 -16.180058
vt 0.309513 -16.104290
vt 0.313451 -16.104290
vt 0.309513 -16.028522
vt 0.313452 -16.028522
vt -12.693108 0.255985
vt -12.844642 0.255985
vt -12.693108 0.238553
vt -12.844642 0.238553
vt -12.844642 0.255985
vt -12.693109 0.255985
vt -12.844642 0.292514
vt -12.693109 0.292514
vt 0.690403 -12.693108
vt 0.686465 -12.693109
vt 0.690403 -12.844642
vt 0.686464 -12.844642
vt 13.844641 0.238553
vt 13.844641 0.255985
vt 13.693108 0.238553
vt 13.693108 0.255985
vt 13.693109 0.292514
vt 13.693108 0.255985
vt 13.844641 0.292514
vt 13.844641 0.255985
vt 0.313461 -12.844641
vt 0.313461 -12.693108
vt 0.309523 -12.844641
vt 0.309523 -12.693108
vt 0.454859 0.335098
vt 0.454859 0.336647
vt 0.421296 0.336647
vt 0.473118 0.336647
vt 0.473118 0.335098
vt 0.526955 0.336647
vt 0.526955 0.335098
vt 0.545214 0.336647
vt 0.545214 0.335098
vt 0.578778 0.336647
vt 0.545214 -12.710385
vt 0.526955 -12.693108
vt 0.454859 -12.710385
vt 0.473118 -12.693108
vt 0.471818 0.326013
vt 0.474419 0.326013
vt 0.471818 0.335098
vt 0.474419 0.335098
vt -12.710384 0.326013
vt -12.707811 0.326013
vt -12.710384 0.335098
vt -12.701113 0.335098
vt 0.474419 -12.710384
vt 0.474419 -12.707811
vt 0.471818 -12.710384
vt 0.471818 -12.707811
vt 13.710384 0.335098
vt 13.701113 0.335098
vt 13.710384 0.326013
vt 13.707811 0.326013
s 1
g Bsh_Hull_Rostrum_Dredn_C_001_0_steel_board_1
usemtl steel_board_1
f 3/1/1 2/2/1 1/3/1
f 4/4/1 1/3/1 2/2/1
f 7/5/1 6/2/2 5/6/3
f 8/7/4 5/6/3 6/2/2
f 5/6/3 8/7/4 9/8/5
f 10/9/6 9/8/5 8/7/4
f 10/9/6 11/10/5 9/8/5
f 9/8/5 11/10/5 12/11/7
f 13/12/7 12/11/7 11/10/5
f 13/12/7 14/13/8 12/11/7
f 15/14/8 12/11/7 14/13/8
f 15/14/8 14/13/8 16/15/9
f 17/16/10 16/15/9 14/13/8
f 17/16/10 18/17/11 16/15/9
f 19/18/12 16/15/9 18/17/11
f 18/17/11 20/19/13 19/18/12
f 21/20/14 19/18/12 20/19/13
f 20/19/13 22/21/15 21/20/14
f 23/22/16 21/20/14 22/21/15
f 22/21/15 24/23/17 23/22/16
f 25/24/18 23/22/16 24/23/17
f 25/24/18 24/23/17 26/25/19
f 27/26/20 26/25/19 24/23/17
f 26/25/19 27/26/20 28/27/21
f 29/28/22 26/25/19 28/27/21
f 27/26/20 30/29/23 28/27/21
f 28/27/21 30/29/23 31/30/24
f 29/28/22 28/27/21 32/31/25
f 32/31/25 28/27/21 31/30/24
f 31/30/24 33/32/26 32/31/25
f 34/33/27 32/31/25 33/32/26
f 33/32/26 35/34/28 34/33/27
f 36/35/29 34/33/27 35/34/28
f 39/36/30 38/37/31 37/38/31
f 40/39/31 37/38/31 38/37/31
f 43/40/6 42/41/5 41/42/6
f 44/43/5 41/42/6 42/41/5
f 42/41/5 45/44/7 44/43/5
f 46/45/7 44/43/5 45/44/7
f 45/44/7 47/46/32 46/45/7
f 48/47/33 46/45/7 47/46/32
f 47/46/32 49/48/34 48/47/33
f 50/49/35 48/47/33 49/48/34
f 50/49/35 49/48/34 51/50/36
f 52/51/37 51/50/36 49/48/34
f 52/51/37 53/52/38 51/50/36
f 54/53/39 51/50/36 53/52/38
f 54/53/39 53/52/38 55/54/40
f 54/53/39 55/54/40 56/55/41
f 57/56/42 56/55/41 55/54/40
f 57/56/42 55/54/40 58/57/43
f 59/58/44 58/57/43 55/54/40
f 60/59/45 58/57/43 59/58/44
f 60/59/45 61/60/46 58/57/43
f 62/61/47 58/57/43 61/60/46
f 61/60/46 63/62/48 62/61/47
f 61/60/46 64/63/49 63/62/48
f 65/64/50 63/62/48 64/63/49
f 65/64/50 64/63/49 66/65/51
f 66/65/51 64/63/49 67/66/52
f 64/63/49 68/67/53 67/66/52
f 69/68/54 67/66/52 68/67/53
f 69/68/54 68/67/53 70/69/55
f 70/69/55 68/67/53 71/70/56
f 72/71/57 71/70/56 68/67/53
f 71/70/56 72/71/57 73/72/58
f 74/73/59 73/72/58 72/71/57
f 73/72/58 74/73/59 75/74/60
f 76/75/61 75/74/60 74/73/59
f 79/76/62 78/77/63 77/78/64
f 80/79/65 77/78/64 78/77/63
f 83/80/66 82/81/66 81/82/66
f 84/83/66 81/82/66 82/81/66
f 84/83/66 85/84/66 81/82/66
f 88/85/31 87/38/31 86/86/31
f 89/87/31 86/86/31 87/38/31
f 90/88/31 86/86/31 89/87/31
f 91/89/31 86/86/31 90/88/31
f 94/90/67 93/91/67 92/92/68
f 94/90/67 92/92/68 95/93/69
f 96/94/70 95/93/69 92/92/68
f 99/95/31 98/96/31 97/97/31
f 100/98/31 97/97/31 98/96/31
f 97/97/31 100/98/31 101/99/31
f 102/100/31 101/99/31 100/98/31
f 101/99/31 102/100/31 103/101/31
f 104/102/31 103/101/31 102/100/31
f 103/101/31 104/102/31 105/103/31
f 106/104/31 105/103/31 104/102/31
f 105/103/31 106/104/31 107/105/31
f 108/106/31 107/105/31 106/104/31
f 107/105/31 108/106/31 109/107/31
f 110/108/31 109/107/31 108/106/31
f 109/107/31 110/108/31 111/109/31
f 112/110/31 111/109/31 110/108/31
f 111/109/31 112/110/31 113/111/31
f 114/112/31 113/111/31 112/110/31
f 113/111/31 114/112/31 115/113/71
f 116/114/71 115/113/71 114/112/31
f 115/113/71 116/114/71 117/115/71
f 118/116/71 117/115/71 116/114/71
f 117/115/71 118/116/71 119/117/71
f 120/118/71 119/117/71 118/116/71
f 120/118/71 121/119/71 119/117/71
f 122/120/71 119/117/71 121/119/71
f 121/119/71 123/121/72 122/120/71
f 124/122/73 122/120/71 123/121/72
f 124/122/73 123/121/72 125/123/74
f 126/124/74 125/123/74 123/121/72
f 126/124/74 127/125/75 125/123/74
f 128/126/75 125/123/74 127/125/75
f 128/126/75 127/125/75 129/127/76
f 130/128/76 129/127/76 127/125/75
f 129/127/76 130/128/76 131/129/76
f 132/130/76 131/129/76 130/128/76
f 132/130/76 133/131/76 131/129/76
f 134/132/76 131/129/76 133/131/76
f 133/131/76 135/133/76 134/132/76
f 136/134/76 134/132/76 135/133/76
f 135/133/76 137/135/31 136/134/76
f 138/136/31 136/134/76 137/135/31
f 137/135/31 139/137/31 138/136/31
f 140/138/31 138/136/31 139/137/31
f 139/137/31 141/139/31 140/138/31
f 142/140/31 140/138/31 141/139/31
f 141/139/31 143/141/31 142/140/31
f 144/142/31 142/140/31 143/141/31
f 143/141/31 145/143/31 144/142/31
f 146/144/31 144/142/31 145/143/31
f 145/143/31 147/145/31 146/144/31
f 148/146/31 146/144/31 147/145/31
f 147/145/31 149/147/31 148/146/31
f 150/148/31 148/146/31 149/147/31
f 149/147/31 151/149/31 150/148/31
f 152/150/31 150/148/31 151/149/31
f 151/149/31 153/151/31 152/150/31
f 154/152/31 152/150/31 153/151/31
f 157/153/30 156/154/30 155/155/30
f 158/156/30 155/155/30 156/154/30
f 161/157/77 160/158/78 159/159/79
f 162/160/80 159/159/79 160/158/78
f 162/160/80 160/158/78 163/161/81
f 164/162/82 163/161/81 160/158/78
f 167/163/83 166/164/84 165/165/85
f 168/166/86 165/165/85 166/164/84
f 165/165/85 168/166/86 169/167/87
f 166/164/84 170/168/88 168/166/86
f 171/169/89 169/167/87 168/166/86
f 172/170/90 168/166/86 170/168/88
f 168/166/86 172/170/90 171/169/89
f 170/168/88 173/171/91 172/170/90
f 174/172/92 172/170/90 173/171/91
f 174/172/92 173/171/91 175/173/93
f 176/174/94 171/169/89 172/170/90
f 172/170/90 174/172/92 176/174/94
f 175/173/93 177/175/95 174/172/92
f 174/172/92 177/175/95 178/176/96
f 178/176/96 176/174/94 174/172/92
f 179/177/97 177/175/95 175/173/93
f 180/178/98 179/177/97 175/173/93
f 175/173/93 181/179/99 180/178/98
f 182/180/100 181/179/99 175/173/93
f 182/180/100 175/173/93 183/181/101
f 184/182/102 183/181/101 175/173/93
f 183/181/101 184/182/102 185/183/103
f 184/182/102 56/55/41 185/183/103
f 57/56/42 185/183/103 56/55/41
f 186/70/104 176/174/94 178/176/96
f 187/175/105 186/70/104 178/176/96
f 186/70/104 188/72/106 176/174/94
f 171/169/89 176/174/94 188/72/106
f 188/72/106 189/74/107 171/169/89
f 190/167/108 171/169/89 189/74/107
f 185/183/103 57/56/42 191/61/109
f 58/57/43 191/61/109 57/56/42
f 186/70/104 187/175/105 192/184/110
f 192/184/110 193/69/111 186/70/104
f 193/69/111 192/184/110 194/185/112
f 195/68/113 193/69/111 194/185/112
f 196/186/114 194/185/112 192/184/110
f 192/184/110 187/175/105 196/186/114
f 197/187/115 196/186/114 187/175/105
f 197/187/115 187/175/105 198/177/116
f 191/61/109 199/188/117 185/183/103
f 200/189/118 185/183/103 199/188/117
f 201/181/119 185/183/103 200/189/118
f 202/190/120 199/188/117 191/61/109
f 203/62/121 202/190/120 191/61/109
f 206/191/122 205/192/123 204/193/124
f 207/194/125 204/193/124 205/192/123
f 204/193/124 207/194/125 208/195/126
f 209/196/127 208/195/126 207/194/125
f 209/196/127 207/194/125 210/197/128
f 211/198/129 210/197/128 207/194/125
f 207/194/125 205/192/123 211/198/129
f 212/199/130 211/198/129 205/192/123
f 215/200/131 214/201/132 213/191/133
f 216/192/134 213/191/133 214/201/132
f 216/192/134 214/201/132 217/199/135
f 218/202/136 217/199/135 214/201/132
f 221/200/137 220/203/61 219/201/138
f 222/204/138 219/201/138 220/203/61
f 222/204/138 223/205/139 219/201/138
f 224/202/140 219/201/138 223/205/139
f 227/64/141 226/65/142 225/206/143
f 225/206/143 226/65/142 228/207/144
f 229/208/145 228/207/144 226/65/142
f 229/208/145 230/179/146 228/207/144
f 231/209/147 228/207/144 230/179/146
f 231/209/147 230/179/146 232/180/148
f 229/208/145 226/65/142 233/210/149
f 229/208/145 233/210/149 230/179/146
f 234/211/150 233/210/149 226/65/142
f 234/211/150 226/65/142 235/66/151
f 236/212/152 230/179/146 233/210/149
f 237/178/153 230/179/146 236/212/152
f 240/213/154 239/214/154 238/215/154
f 241/216/154 238/215/154 239/214/154
f 244/217/154 243/218/155 242/219/156
f 245/220/157 242/219/156 243/218/155
f 243/218/155 246/221/158 245/220/157
f 247/222/159 245/220/157 246/221/158
f 248/223/158 247/222/159 246/221/158
f 246/221/158 249/224/160 248/223/158
f 250/225/160 248/223/158 249/224/160
f 250/225/160 249/224/160 251/226/161
f 252/227/161 251/226/161 249/224/160
f 252/227/161 253/228/162 251/226/161
f 254/229/163 251/226/161 253/228/162
f 254/229/163 253/228/162 255/230/164
f 256/231/165 255/230/164 253/228/162
f 255/230/164 256/231/165 257/232/166
f 258/233/167 257/232/166 256/231/165
f 257/232/166 258/233/167 259/234/168
f 260/235/169 259/234/168 258/233/167
f 259/234/168 260/235/169 261/236/170
f 262/237/171 261/236/170 260/235/169
f 262/237/171 263/238/172 261/236/170
f 264/239/173 261/236/170 263/238/172
f 264/239/173 263/238/172 265/240/174
f 266/241/175 264/239/173 265/240/174
f 263/238/172 267/242/176 265/240/174
f 266/241/175 265/240/174 268/243/177
f 267/242/176 269/244/178 265/240/174
f 265/240/174 269/244/178 268/243/177
f 268/243/177 269/244/178 270/245/179
f 271/246/180 270/245/179 269/244/178
f 270/245/179 271/246/180 272/247/82
f 273/248/181 272/247/82 271/246/180
f 276/249/31 275/250/31 274/251/31
f 277/252/30 274/251/31 275/250/31
f 280/253/159 279/254/159 278/255/158
f 281/223/158 278/255/158 279/254/159
f 278/255/158 281/223/158 282/256/160
f 283/257/160 282/256/160 281/223/158
f 282/256/160 283/257/160 284/258/182
f 285/259/183 284/258/182 283/257/160
f 284/258/182 285/259/183 286/260/184
f 287/261/185 286/260/184 285/259/183
f 287/261/185 288/262/186 286/260/184
f 289/263/187 286/260/184 288/262/186
f 289/263/187 288/262/186 290/264/188
f 291/265/189 290/264/188 288/262/186
f 290/264/188 291/265/189 292/266/190
f 291/265/189 293/267/191 292/266/190
f 294/268/192 292/266/190 293/267/191
f 294/268/192 293/267/191 295/269/193
f 296/236/194 295/269/193 293/267/191
f 294/268/192 297/270/195 292/266/190
f 298/271/196 292/266/190 297/270/195
f 297/270/195 299/272/197 298/271/196
f 299/272/197 297/270/195 300/273/198
f 301/274/199 300/273/198 297/270/195
f 302/275/200 300/273/198 301/274/199
f 297/270/195 294/268/192 303/274/201
f 295/269/193 303/274/201 294/268/192
f 300/273/198 302/275/200 304/276/202
f 305/277/203 304/276/202 302/275/200
f 304/276/202 305/277/203 306/278/204
f 304/276/202 306/278/204 307/279/205
f 304/276/202 307/279/205 308/280/206
f 309/281/207 308/280/206 307/279/205
f 308/280/206 309/281/207 310/282/208
f 310/282/208 311/283/209 308/280/206
f 312/284/210 308/280/206 311/283/209
f 311/283/209 313/285/211 312/284/210
f 314/286/212 312/284/210 313/285/211
f 313/285/211 315/287/140 314/286/212
f 316/288/139 314/286/212 315/287/140
f 295/269/193 318/289/213 317/290/214
f 317/290/214 319/291/215 295/269/193
f 303/274/201 295/269/193 319/291/215
f 319/291/215 320/292/216 303/274/201
f 320/292/216 321/275/217 303/274/201
f 296/236/194 322/289/218 295/269/193
f 296/236/194 323/293/219 322/289/218
f 324/294/220 322/289/218 323/293/219
f 325/295/221 324/294/220 323/293/219
f 325/295/221 323/293/219 326/296/222
f 327/297/223 326/296/222 323/293/219
f 327/297/223 323/293/219 328/298/224
f 328/298/224 323/293/219 329/299/225
f 330/300/226 329/299/225 323/293/219
f 328/298/224 329/299/225 331/301/227
f 329/299/225 330/300/226 332/302/228
f 333/303/229 332/302/228 330/300/226
f 331/301/227 329/299/225 334/304/230
f 332/302/228 334/304/230 329/299/225
f 332/302/228 333/303/229 335/305/231
f 336/306/232 335/305/231 333/303/229
f 335/305/231 336/306/232 337/307/233
f 338/308/234 337/307/233 336/306/232
f 337/307/233 339/309/130 335/305/231
f 340/310/235 335/305/231 339/309/130
f 335/305/231 340/310/235 332/302/228
f 334/304/230 332/302/228 340/310/235
f 334/304/230 341/283/236 331/301/227
f 341/283/236 342/298/237 331/301/227
f 340/310/235 343/285/238 334/304/230
f 341/283/236 334/304/230 343/285/238
f 343/285/238 340/310/235 344/287/239
f 345/309/240 344/287/239 340/310/235
f 342/298/237 341/283/236 346/311/241
f 347/282/242 346/311/241 341/283/236
f 347/282/242 348/312/243 346/311/241
f 347/282/242 349/281/244 348/312/243
f 350/313/245 346/311/241 348/312/243
f 346/311/241 350/313/245 342/298/237
f 351/314/246 342/298/237 350/313/245
f 342/298/237 351/314/246 352/297/247
f 355/315/248 354/316/249 353/317/250
f 356/318/251 353/317/250 354/316/249
f 359/319/252 358/320/252 357/321/252
f 360/322/252 357/321/252 358/320/252
f 361/323/252 360/322/252 358/320/252
f 364/324/31 363/325/31 362/251/31
f 365/326/31 362/251/31 363/325/31
f 363/325/31 366/327/31 365/326/31
f 363/325/31 367/151/31 366/327/31
f 370/328/253 369/329/254 368/330/255
f 369/329/254 371/331/256 368/330/255
f 372/332/257 368/330/255 371/331/256
f 375/333/30 374/334/30 373/335/30
f 376/336/30 373/335/30 374/334/30
f 379/278/258 378/277/259 377/337/260
f 377/337/260 380/338/261 379/278/258
f 381/339/262 379/278/258 380/338/261
f 381/339/262 380/338/261 382/295/263
f 383/340/264 382/295/263 380/338/261
f 382/295/263 383/340/264 384/294/265
f 381/339/262 385/341/266 379/278/258
f 381/339/262 382/295/263 385/341/266
f 386/342/267 379/278/258 385/341/266
f 379/278/258 386/342/267 387/279/268
f 388/343/269 385/341/266 382/295/263
f 382/295/263 389/296/270 388/343/269
f 392/344/1 391/345/1 390/346/1
f 393/347/1 390/346/1 391/345/1
f 396/348/271 395/349/272 394/350/273
f 397/351/272 394/350/273 395/349/272
f 397/351/272 398/352/274 394/350/273
f 399/353/275 394/350/273 398/352/274
f 400/354/1 399/353/275 398/352/274
f 403/355/276 402/356/31 401/357/31
f 404/358/31 401/357/31 402/356/31
f 407/359/30 406/360/31 405/361/31
f 408/362/31 405/361/31 406/360/31
f 409/363/1 411/364/1 410/354/1
f 412/365/1 410/354/1 411/364/1
f 415/366/1 414/367/1 413/368/1
f 416/369/1 413/368/1 414/367/1
f 419/370/277 418/371/278 417/372/279
f 420/373/279 417/372/279 418/371/278
f 421/374/280 420/373/279 418/371/278
f 424/375/31 423/376/31 422/356/31
f 425/377/31 422/356/31 423/376/31
f 423/376/31 426/378/31 425/377/31
f 429/379/281 428/380/282 427/381/283
f 428/380/282 430/382/284 427/381/283
f 431/383/285 427/381/283 430/382/284
f 434/384/30 433/385/30 432/386/276
f 435/387/30 432/386/276 433/385/30
f 438/388/154 437/389/154 436/390/154
f 439/391/154 436/390/154 437/389/154
f 442/392/286 441/393/286 440/394/287
f 443/395/288 440/394/287 441/393/286
f 443/395/288 441/393/286 444/396/288
f 445/397/289 444/396/288 441/393/286
f 445/397/289 446/398/154 444/396/288
f 449/399/31 448/400/31 447/401/31
f 450/402/290 447/401/31 448/400/31
f 453/403/30 452/404/31 451/405/31
f 454/406/31 451/405/31 452/404/31
f 455/407/154 456/408/154 457/409/154
f 458/410/154 457/409/154 456/408/154
f 461/411/154 460/412/154 459/413/154
f 462/414/154 459/413/154 460/412/154
f 465/415/291 464/416/291 463/417/291
f 466/418/292 463/417/291 464/416/291
f 466/418/292 467/419/293 463/417/291
f 470/420/31 469/400/31 468/421/31
f 471/422/31 468/421/31 469/400/31
f 472/423/31 468/421/31 471/422/31
f 475/424/294 474/425/295 473/426/296
f 475/424/294 473/426/296 476/427/297
f 477/428/298 476/427/297 473/426/296
f 480/429/30 479/430/30 478/431/290
f 481/432/30 478/431/290 479/430/30
f 484/433/1 483/434/1 482/435/1
f 485/436/1 482/435/1 483/434/1
f 483/434/1 486/437/1 485/436/1
f 487/438/1 485/436/1 486/437/1
f 490/439/1 489/440/1 488/441/1
f 490/439/1 491/442/1 489/440/1
f 492/443/299 489/440/1 491/442/1
f 491/442/1 493/444/1 492/443/299
f 494/445/1 492/443/299 493/444/1
f 497/446/31 496/447/31 495/448/31
f 498/449/31 495/448/31 496/447/31
f 496/447/31 499/450/31 498/449/31
f 500/451/31 498/449/31 499/450/31
f 503/452/154 502/453/154 501/454/154
f 504/455/154 501/454/154 502/453/154
f 501/454/154 504/455/154 505/219/154
f 506/456/154 505/219/154 504/455/154
f 509/457/154 508/458/154 507/459/154
f 508/458/154 509/457/154 510/460/154
f 511/461/300 510/460/154 509/457/154
f 510/460/154 511/461/300 512/462/154
f 513/463/154 512/462/154 511/461/300
f 516/464/31 515/465/31 514/466/31
f 517/467/31 514/466/31 515/465/31
f 514/466/31 517/467/31 518/468/31
f 519/469/31 518/468/31 517/467/31
f 525/470/1 524/471/1 520/472/1
f 521/473/1 520/472/1 524/471/1
f 528/474/1 527/475/1 526/476/1
f 529/477/1 526/476/1 527/475/1
f 532/478/31 531/479/31 530/480/31
f 533/481/31 530/480/31 531/479/31
f 523/482/154 534/483/154 522/484/154
f 535/485/154 522/484/154 534/483/154
f 538/486/154 537/487/154 536/488/154
f 539/489/154 536/488/154 537/487/154
f 542/490/31 541/491/31 540/492/31
f 543/493/31 540/492/31 541/491/31
f 546/494/301 545/495/301 544/496/301
f 545/495/301 546/494/301 547/497/302
f 548/498/303 547/497/302 546/494/301
f 547/497/302 548/498/303 549/499/304
f 550/500/305 549/499/304 548/498/303
f 549/499/304 550/500/305 551/501/306
f 552/502/306 551/501/306 550/500/305
f 552/502/306 553/503/306 551/501/306
f 556/504/30 555/505/30 554/506/30
f 557/507/30 554/506/30 555/505/30
f 560/508/307 559/509/307 558/510/307
f 561/511/307 558/510/307 559/509/307
f 564/512/1 563/513/1 562/514/1
f 565/515/1 562/514/1 563/513/1
f 568/516/30 567/517/30 566/518/30
f 569/519/30 566/518/30 567/517/30
f 572/520/154 571/521/154 570/522/154
f 573/523/154 570/522/154 571/521/154
