# Blender 5.1.0
# www.blender.org
mtllib Bsh_Hull_Stern_Dredn_AD1_002_1.mtl
o Bsh_Hull_Stern_Dredn_AD1_002_1
v -10.218232 -34.999931 1.524271
v -9.539934 -37.999893 2.679119
v -9.493157 -37.999893 1.524256
v -10.218231 -34.999931 2.679120
v -11.219544 -28.999956 2.679121
v -11.219544 -28.999956 1.524274
v -11.828257 -22.999960 1.524278
v -11.828257 -22.999960 2.679124
v -12.310045 -16.999958 2.679127
v -12.310045 -16.999956 1.524279
v -12.645984 -10.999952 2.679133
v -12.645984 -10.999952 1.524286
v -12.645983 -5.000024 2.679124
v -12.645984 -5.000024 1.524276
v -8.506576 -40.999893 1.524261
v -9.493157 -37.999893 1.524256
v -9.231623 -37.999893 1.524256
v -8.768110 -40.999893 1.524258
v -6.724379 -46.999912 1.524265
v -6.985914 -46.999912 1.524265
v -4.515882 -52.999908 1.524269
v -4.777417 -52.999908 1.524270
v -2.396312 -58.998535 1.524276
v -2.134778 -58.998535 1.524276
v -1.509002 -60.560982 1.524279
v -1.694443 -60.763702 1.524279
v -0.852736 -61.014526 1.524280
v -0.917018 -61.283154 1.524281
v -0.000010 -61.196949 1.524280
v -0.000011 -61.465572 1.524280
v 0.916998 -61.283154 1.524280
v 0.852716 -61.014530 1.524279
v 1.694424 -60.763706 1.524278
v 1.508982 -60.560986 1.524279
v 2.396293 -58.998539 1.524274
v 2.134759 -58.998539 1.524274
v 4.777403 -52.999912 1.524266
v 4.515869 -52.999912 1.524266
v 6.985904 -46.999920 1.524260
v 6.724370 -46.999916 1.524260
v 8.768106 -40.999905 1.524252
v 8.506571 -40.999901 1.524255
v 9.493155 -37.999905 1.524250
v 9.231621 -37.999905 1.524250
v -9.539934 -37.999893 2.679119
v -9.231623 -37.999893 1.524256
v -9.493157 -37.999893 1.524256
v -9.278392 -37.999912 2.679121
v -2.134778 -58.998535 1.524276
v -1.575669 -60.574234 2.679140
v -1.509002 -60.560982 1.524279
v -2.228337 -58.998558 2.679138
v -4.533237 -52.999908 1.701938
v -4.628681 -52.999920 2.679119
v -4.515882 -52.999908 1.524269
v -6.837157 -46.999908 2.679116
v -6.724379 -46.999912 1.524265
v -8.506576 -40.999893 1.524261
v -8.600118 -40.999893 2.679116
v -9.231623 -37.999893 1.524256
v -9.278392 -37.999912 2.679121
v -0.852742 -61.057281 2.679141
v -1.509002 -60.560982 1.524279
v -1.575669 -60.574234 2.679140
v -0.852736 -61.014526 1.524280
v -0.000010 -61.196949 1.524280
v -0.000010 -61.226902 2.679141
v 0.852723 -61.057285 2.679141
v 0.852716 -61.014530 1.524279
v 1.508982 -60.560986 1.524279
v 1.575650 -60.574238 2.679139
v -9.539934 -37.999893 2.679119
v -9.956649 -34.999920 2.679128
v -9.278392 -37.999912 2.679121
v -10.218231 -34.999931 2.679120
v -10.957981 -28.999926 2.679132
v -11.219544 -28.999956 2.679121
v -11.566711 -22.999933 2.679133
v -11.828257 -22.999960 2.679124
v -12.048513 -16.999928 2.679133
v -12.310045 -16.999958 2.679127
v -12.384459 -10.999947 2.679137
v -12.645984 -10.999952 2.679133
v -12.645983 -5.000024 2.679124
v -12.384461 -4.999966 2.679130
v -2.228337 -58.998558 2.679138
v -1.914405 -59.751461 5.099150
v -1.575669 -60.574234 2.679140
v -2.396255 -58.998589 5.099149
v -3.199999 -57.486168 5.099145
v -5.228678 -52.999928 5.099135
v -4.628681 -52.999920 2.679119
v -6.837157 -46.999908 2.679116
v -7.437139 -46.999935 5.099136
v -8.600118 -40.999893 2.679116
v -9.000101 -40.999928 5.099137
v -9.278392 -37.999912 2.679121
v -10.156645 -34.999931 5.099141
v -9.956649 -34.999920 2.679128
v -10.957981 -28.999926 2.679132
v -10.957980 -28.999926 5.099145
v -11.566711 -22.999933 2.679133
v -11.566709 -22.999933 5.099145
v -12.048513 -16.999928 2.679133
v -12.048512 -16.999928 5.099146
v -12.384459 -10.999947 2.679137
v -12.384458 -10.999945 5.099148
v -12.384461 -4.999966 2.679130
v -12.384472 -4.999947 5.099135
v -1.082363 -60.364567 5.099151
v -1.575669 -60.574234 2.679140
v -1.914405 -59.751461 5.099150
v -0.852742 -61.057281 2.679141
v -0.000008 -60.579857 5.099153
v -0.000010 -61.226902 2.679141
v 0.852723 -61.057285 2.679141
v 1.082345 -60.364571 5.099150
v 1.575650 -60.574238 2.679139
v 1.914388 -59.751465 5.099149
v 9.539933 -37.999905 2.679113
v 10.218233 -34.999939 1.524264
v 9.493155 -37.999905 1.524250
v 10.218232 -34.999939 2.679113
v 11.219550 -28.999969 2.679114
v 11.219551 -28.999969 1.524266
v 11.828267 -22.999971 1.524269
v 11.828267 -22.999971 2.679116
v 12.310061 -16.999969 2.679119
v 12.310061 -16.999969 1.524271
v 12.646006 -10.999964 2.679124
v 12.646006 -10.999964 1.524277
v 12.646009 -5.000036 2.679115
v 12.646008 -5.000036 1.524268
v 9.539933 -37.999905 2.679113
v 9.231621 -37.999905 1.524250
v 9.278392 -37.999924 2.679115
v 9.493155 -37.999905 1.524250
v 1.575650 -60.574238 2.679139
v 2.134759 -58.998539 1.524274
v 1.508982 -60.560986 1.524279
v 2.228319 -58.998566 2.679137
v 4.515869 -52.999912 1.524266
v 4.628668 -52.999928 2.679116
v 6.724370 -46.999916 1.524260
v 6.837146 -46.999916 2.679111
v 8.506571 -40.999901 1.524255
v 8.600115 -40.999905 2.679111
v 9.231621 -37.999905 1.524250
v 9.278392 -37.999924 2.679115
v 9.956650 -34.999931 2.679120
v 9.539933 -37.999905 2.679113
v 9.278392 -37.999924 2.679115
v 10.218232 -34.999939 2.679113
v 10.957987 -28.999935 2.679124
v 11.219550 -28.999969 2.679114
v 11.566723 -22.999945 2.679125
v 11.828267 -22.999971 2.679116
v 12.048530 -16.999939 2.679125
v 12.310061 -16.999969 2.679119
v 12.384480 -10.999958 2.679129
v 12.646006 -10.999964 2.679124
v 12.646009 -5.000036 2.679115
v 12.384488 -4.999978 2.679122
v 1.914388 -59.751465 5.099149
v 2.228319 -58.998566 2.679137
v 1.575650 -60.574238 2.679139
v 2.396239 -58.998592 5.099148
v 3.199984 -57.486172 5.099143
v 5.228666 -52.999931 5.099133
v 4.628668 -52.999928 2.679116
v 6.837146 -46.999916 2.679111
v 7.437131 -46.999943 5.099131
v 8.600115 -40.999905 2.679111
v 9.000099 -40.999935 5.099131
v 9.278392 -37.999924 2.679115
v 10.156648 -34.999943 5.099134
v 9.956650 -34.999931 2.679120
v 10.957987 -28.999935 2.679124
v 10.957987 -28.999935 5.099138
v 11.566723 -22.999945 2.679125
v 11.566722 -22.999945 5.099137
v 12.048530 -16.999939 2.679125
v 12.048529 -16.999939 5.099139
v 12.384480 -10.999958 2.679129
v 12.384480 -10.999956 5.099140
v 12.384488 -4.999978 2.679122
v 12.384498 -4.999958 5.099126
vn -0.9688 -0.2447 -0.0392
vn -0.9723 -0.2316 -0.0304
vn -0.9804 -0.1971 -0.0022
vn -0.9813 -0.1927 -0.0000
vn -0.9911 -0.1328 -0.0000
vn -0.9959 -0.0905 -0.0000
vn -0.9977 -0.0680 -0.0000
vn -0.9996 -0.0280 -0.0000
vn -1.0000 -0.0000 -0.0000
vn -0.0000 -0.0000 1.0000
vn -0.0000 -1.0000 -0.0000
vn -0.0001 -1.0000 -0.0000
vn -0.7755 -0.6295 -0.0483
vn -0.7773 -0.6267 -0.0556
vn -0.9250 -0.3731 -0.0717
vn -0.9240 -0.3749 -0.0756
vn 0.4158 -0.8775 -0.2389
vn -0.9298 -0.3567 -0.0908
vn -0.9301 -0.3560 -0.0908
vn -0.9453 -0.3132 -0.0914
vn -0.9448 -0.3145 -0.0923
vn -0.9629 -0.2582 -0.0789
vn -0.9639 -0.2558 -0.0735
vn -0.9735 -0.2236 -0.0484
vn -0.9746 -0.2204 -0.0395
vn -0.7773 -0.6267 -0.0555
vn -0.3863 -0.9217 -0.0342
vn -0.3980 -0.9168 -0.0339
vn -0.0000 -0.9995 -0.0324
vn -0.0000 -0.9997 -0.0259
vn 0.3863 -0.9217 -0.0342
vn 0.3980 -0.9168 -0.0339
vn 0.7755 -0.6295 -0.0483
vn 0.7773 -0.6267 -0.0555
vn -0.7323 -0.6710 0.1162
vn -0.7793 -0.6244 0.0534
vn -0.9047 -0.4212 -0.0638
vn -0.8623 -0.5029 -0.0598
vn -0.8992 -0.4274 -0.0939
vn -0.9107 -0.3541 -0.2128
vn -0.9092 -0.3500 -0.2254
vn -0.9237 -0.3070 -0.2290
vn -0.9278 -0.3011 -0.2203
vn -0.9569 -0.2370 -0.1677
vn -0.9623 -0.2266 -0.1503
vn -0.9721 -0.2012 -0.1207
vn -0.9802 -0.1813 -0.0796
vn -0.9780 -0.1923 -0.0808
vn -0.9927 -0.1206 -0.0099
vn -0.9932 -0.1167 -0.0000
vn -0.7322 -0.6711 0.1162
vn -0.4142 -0.8830 0.2209
vn -0.3522 -0.9081 0.2265
vn -0.0000 -0.9661 0.2583
vn 0.3523 -0.9081 0.2265
vn 0.4142 -0.8830 0.2209
vn 0.7322 -0.6711 0.1162
vn 0.7793 -0.6244 0.0534
vn 0.9688 -0.2447 -0.0392
vn 0.9804 -0.1971 -0.0022
vn 0.9723 -0.2316 -0.0304
vn 0.9813 -0.1927 -0.0000
vn 0.9911 -0.1328 -0.0000
vn 0.9959 -0.0905 -0.0000
vn 0.9977 -0.0680 -0.0000
vn 0.9996 -0.0280 -0.0000
vn 1.0000 -0.0000 -0.0000
vn 0.0001 -1.0000 -0.0000
vn 0.9251 -0.3729 -0.0716
vn 0.7773 -0.6267 -0.0556
vn 0.9240 -0.3748 -0.0757
vn 0.9297 -0.3572 -0.0899
vn 0.9298 -0.3567 -0.0908
vn 0.9448 -0.3145 -0.0923
vn 0.9453 -0.3132 -0.0914
vn 0.9629 -0.2582 -0.0789
vn 0.9639 -0.2558 -0.0735
vn 0.9735 -0.2236 -0.0484
vn 0.9746 -0.2204 -0.0395
vn 0.7323 -0.6710 0.1161
vn 0.9047 -0.4212 -0.0638
vn 0.7793 -0.6244 0.0533
vn 0.8623 -0.5029 -0.0598
vn 0.8992 -0.4274 -0.0939
vn 0.9107 -0.3541 -0.2128
vn 0.9092 -0.3500 -0.2254
vn 0.9237 -0.3070 -0.2290
vn 0.9278 -0.3011 -0.2203
vn 0.9569 -0.2370 -0.1677
vn 0.9623 -0.2266 -0.1503
vn 0.9721 -0.2012 -0.1207
vn 0.9802 -0.1813 -0.0796
vn 0.9780 -0.1923 -0.0808
vn 0.9927 -0.1206 -0.0099
vn 0.9932 -0.1167 -0.0000
vt -18.253939 0.238553
vt -18.253939 0.255985
vt -18.299398 0.238553
vt -18.299398 0.255985
vt -18.390318 0.255985
vt -18.390318 0.238553
vt -18.481237 0.238553
vt -18.481237 0.255985
vt -18.572157 0.255985
vt -18.572157 0.238553
vt -18.663078 0.255985
vt -18.663078 0.238554
vt -18.753996 0.255985
vt -18.753996 0.238553
vt 0.638970 -18.253939
vt 0.642908 -18.253939
vt 0.628051 -18.208479
vt 0.631989 -18.208479
vt 0.601213 -18.117558
vt 0.605151 -18.117558
vt 0.567955 -18.026638
vt 0.571893 -18.026638
vt 0.536036 -17.935740
vt 0.532097 -17.935740
vt 0.522673 -17.912064
vt 0.525466 -17.908991
vt 0.512791 -17.905190
vt 0.513759 -17.901119
vt 0.499949 -17.902426
vt 0.499949 -17.898355
vt 0.486140 -17.901119
vt 0.487108 -17.905190
vt 0.474432 -17.908991
vt 0.477225 -17.912064
vt 0.463862 -17.935740
vt 0.467801 -17.935740
vt 0.428004 -18.026638
vt 0.431943 -18.026638
vt 0.394746 -18.117558
vt 0.398684 -18.117558
vt 0.367907 -18.208479
vt 0.371845 -18.208479
vt 0.356988 -18.253939
vt 0.360926 -18.253939
vt 0.357092 0.238553
vt 0.361030 0.238553
vt 0.356387 0.255985
vt 0.360326 0.255985
vt -17.912064 0.238553
vt -17.911861 0.255985
vt -17.935740 0.238553
vt -17.935740 0.255985
vt -18.026638 0.241235
vt -18.026638 0.255985
vt -18.026638 0.238553
vt -18.117558 0.255985
vt -18.117558 0.238553
vt -18.208479 0.238553
vt -18.208479 0.255985
vt -18.253939 0.255985
vt 0.476323 0.255985
vt 0.477327 0.238553
vt 0.487209 0.255985
vt 0.487209 0.238553
vt 0.500051 0.238553
vt 0.500051 0.255985
vt 0.512892 0.255985
vt 0.512892 0.238553
vt 0.522775 0.238553
vt 0.523779 0.255985
vt 0.639674 -18.253939
vt 0.649888 -18.299398
vt 0.643613 -18.253939
vt 0.653827 -18.299398
vt 0.664967 -18.390318
vt 0.668906 -18.390318
vt 0.674134 -18.481237
vt 0.678072 -18.481237
vt 0.681389 -18.572159
vt 0.685327 -18.572157
vt 0.686448 -18.663078
vt 0.690386 -18.663078
vt 0.690386 -18.753996
vt 0.686448 -18.753998
vt -17.924330 0.292514
vt -17.935738 0.292514
vt -17.958656 0.292514
vt -18.026638 0.292514
vt -18.117558 0.292514
vt -18.208479 0.292514
vt -18.299398 0.292514
vt -18.299398 0.255985
vt -18.390318 0.255985
vt -18.390318 0.292514
vt -18.481237 0.255985
vt -18.481237 0.292514
vt -18.572159 0.255985
vt -18.572159 0.292514
vt -18.663078 0.255985
vt -18.663078 0.292514
vt -18.753998 0.255985
vt -18.753998 0.292514
vt 0.471222 0.292514
vt 0.483751 0.292514
vt 0.500051 0.292514
vt 0.516350 0.292514
vt 0.528880 0.292514
vt 19.253939 0.238553
vt 19.299398 0.238553
vt 19.253939 0.255985
vt 19.299398 0.255985
vt 19.390318 0.255985
vt 19.390318 0.238553
vt 19.481237 0.238553
vt 19.481237 0.255985
vt 19.572157 0.255985
vt 19.572157 0.238553
vt 19.663078 0.255985
vt 19.663078 0.238553
vt 19.753996 0.255985
vt 19.753996 0.238553
vt 0.639778 0.255985
vt 0.639074 0.238553
vt 0.643717 0.255985
vt 0.643012 0.238553
vt 18.912064 0.238553
vt 18.935740 0.238553
vt 18.911861 0.255985
vt 18.935740 0.255985
vt 19.026638 0.238553
vt 19.026638 0.255985
vt 19.117558 0.238553
vt 19.117558 0.255985
vt 19.208479 0.238553
vt 19.208479 0.255985
vt 19.253939 0.255985
vt 0.360222 -18.253939
vt 0.356283 -18.253939
vt 0.350008 -18.299398
vt 0.346069 -18.299398
vt 0.334928 -18.390318
vt 0.330989 -18.390318
vt 0.325761 -18.481237
vt 0.321822 -18.481237
vt 0.318505 -18.572157
vt 0.314566 -18.572157
vt 0.313445 -18.663078
vt 0.309507 -18.663078
vt 0.309507 -18.753996
vt 0.313445 -18.753998
vt 18.924330 0.292514
vt 18.935738 0.292514
vt 18.958656 0.292514
vt 19.026638 0.292514
vt 19.117558 0.292514
vt 19.208477 0.292514
vt 19.299398 0.292514
vt 19.299398 0.255985
vt 19.390318 0.255985
vt 19.390318 0.292514
vt 19.481237 0.255985
vt 19.481237 0.292514
vt 19.572157 0.255985
vt 19.572157 0.292514
vt 19.663078 0.255985
vt 19.663078 0.292514
vt 19.753998 0.255985
vt 19.753998 0.292514
s 1
g Bsh_Hull_Stern_Dredn_AD1_002_1_steel_board_1
usemtl steel_board_1
f 3/1/1 2/2/2 1/3/3
f 4/4/4 1/3/3 2/2/2
f 4/4/4 5/5/5 1/3/3
f 6/6/5 1/3/3 5/5/5
f 6/6/5 5/5/5 7/7/6
f 8/8/6 7/7/6 5/5/5
f 8/8/6 9/9/7 7/7/6
f 10/10/7 7/7/6 9/9/7
f 9/9/7 11/11/8 10/10/7
f 12/12/8 10/10/7 11/11/8
f 11/11/8 13/13/9 12/12/8
f 14/14/9 12/12/8 13/13/9
f 17/15/10 16/16/10 15/17/10
f 18/18/10 15/17/10 16/16/10
f 15/17/10 18/18/10 19/19/10
f 20/20/10 19/19/10 18/18/10
f 19/19/10 20/20/10 21/21/10
f 22/22/10 21/21/10 20/20/10
f 22/22/10 23/23/10 21/21/10
f 24/24/10 21/21/10 23/23/10
f 24/24/10 23/23/10 25/25/10
f 26/26/10 25/25/10 23/23/10
f 25/25/10 26/26/10 27/27/10
f 28/28/10 27/27/10 26/26/10
f 27/27/10 28/28/10 29/29/10
f 30/30/10 29/29/10 28/28/10
f 30/30/10 31/31/10 29/29/10
f 32/32/10 29/29/10 31/31/10
f 31/31/10 33/33/10 32/32/10
f 34/34/10 32/32/10 33/33/10
f 33/33/10 35/35/10 34/34/10
f 36/36/10 34/34/10 35/35/10
f 35/35/10 37/37/10 36/36/10
f 38/38/10 36/36/10 37/37/10
f 37/37/10 39/39/10 38/38/10
f 40/40/10 38/38/10 39/39/10
f 39/39/10 41/41/10 40/40/10
f 42/42/10 40/40/10 41/41/10
f 41/41/10 43/43/10 42/42/10
f 44/44/10 42/42/10 43/43/10
f 47/45/11 46/46/11 45/47/11
f 48/48/12 45/47/11 46/46/11
f 51/49/13 50/50/14 49/51/15
f 52/52/16 49/51/15 50/50/14
f 52/52/16 53/53/17 49/51/15
f 54/54/18 53/53/17 52/52/16
f 49/51/15 53/53/17 55/55/19
f 53/53/17 54/54/18 55/55/19
f 54/54/18 56/56/20 55/55/19
f 55/55/19 56/56/20 57/57/21
f 57/57/21 56/56/20 58/58/22
f 59/59/23 58/58/22 56/56/20
f 58/58/22 59/59/23 60/1/24
f 61/60/25 60/1/24 59/59/23
f 64/61/26 63/62/13 62/63/27
f 65/64/28 62/63/27 63/62/13
f 65/64/28 66/65/29 62/63/27
f 67/66/30 62/63/27 66/65/29
f 67/66/30 66/65/29 68/67/31
f 69/68/32 68/67/31 66/65/29
f 69/68/32 70/69/33 68/67/31
f 71/70/34 68/67/31 70/69/33
f 74/71/10 73/72/10 72/73/10
f 75/74/10 72/73/10 73/72/10
f 73/72/10 76/75/10 75/74/10
f 77/76/10 75/74/10 76/75/10
f 76/75/10 78/77/10 77/76/10
f 79/78/10 77/76/10 78/77/10
f 78/77/10 80/79/10 79/78/10
f 81/80/10 79/78/10 80/79/10
f 80/79/10 82/81/10 81/80/10
f 83/82/10 81/80/10 82/81/10
f 83/82/10 82/81/10 84/83/10
f 85/84/10 84/83/10 82/81/10
f 88/50/35 87/85/36 86/52/37
f 89/86/38 86/52/37 87/85/36
f 89/86/38 90/87/39 86/52/37
f 90/87/39 91/88/40 86/52/37
f 92/54/41 86/52/37 91/88/40
f 92/54/41 91/88/40 93/56/42
f 94/89/43 93/56/42 91/88/40
f 93/56/42 94/89/43 95/59/44
f 96/90/45 95/59/44 94/89/43
f 95/59/44 96/90/45 97/60/46
f 97/60/46 96/90/45 98/91/47
f 99/92/48 97/60/46 98/91/47
f 99/92/48 98/91/47 100/93/49
f 101/94/50 100/93/49 98/91/47
f 100/93/49 101/94/50 102/95/6
f 103/96/6 102/95/6 101/94/50
f 102/95/6 103/96/6 104/97/7
f 105/98/7 104/97/7 103/96/6
f 104/97/7 105/98/7 106/99/8
f 107/100/8 106/99/8 105/98/7
f 106/99/8 107/100/8 108/101/9
f 109/102/9 108/101/9 107/100/8
f 112/103/36 111/61/51 110/104/52
f 113/63/53 110/104/52 111/61/51
f 110/104/52 113/63/53 114/105/54
f 115/66/54 114/105/54 113/63/53
f 115/66/54 116/67/55 114/105/54
f 117/106/56 114/105/54 116/67/55
f 116/67/55 118/70/57 117/106/56
f 119/107/58 117/106/56 118/70/57
f 122/108/59 121/109/60 120/110/61
f 123/111/62 120/110/61 121/109/60
f 123/111/62 121/109/60 124/112/63
f 125/113/63 124/112/63 121/109/60
f 125/113/63 126/114/64 124/112/63
f 127/115/64 124/112/63 126/114/64
f 127/115/64 126/114/64 128/116/65
f 129/117/65 128/116/65 126/114/64
f 128/116/65 129/117/65 130/118/66
f 131/119/66 130/118/66 129/117/65
f 130/118/66 131/119/66 132/120/67
f 133/121/67 132/120/67 131/119/66
f 136/122/68 135/123/11 134/124/68
f 137/125/11 134/124/68 135/123/11
f 140/126/33 139/127/69 138/128/70
f 141/129/71 138/128/70 139/127/69
f 139/127/69 142/130/72 141/129/71
f 143/131/73 141/129/71 142/130/72
f 142/130/72 144/132/74 143/131/73
f 145/133/75 143/131/73 144/132/74
f 144/132/74 146/134/76 145/133/75
f 147/135/77 145/133/75 146/134/76
f 146/134/76 148/108/78 147/135/77
f 149/136/79 147/135/77 148/108/78
f 152/137/10 151/138/10 150/139/10
f 153/140/10 150/139/10 151/138/10
f 150/139/10 153/140/10 154/141/10
f 155/142/10 154/141/10 153/140/10
f 154/141/10 155/142/10 156/143/10
f 157/144/10 156/143/10 155/142/10
f 156/143/10 157/144/10 158/145/10
f 159/146/10 158/145/10 157/144/10
f 158/145/10 159/146/10 160/147/10
f 161/148/10 160/147/10 159/146/10
f 161/148/10 162/149/10 160/147/10
f 163/150/10 160/147/10 162/149/10
f 166/128/80 165/129/81 164/151/82
f 167/152/83 164/151/82 165/129/81
f 168/153/84 167/152/83 165/129/81
f 168/153/84 165/129/81 169/154/85
f 170/131/86 169/154/85 165/129/81
f 170/131/86 171/133/87 169/154/85
f 172/155/88 169/154/85 171/133/87
f 171/133/87 173/135/89 172/155/88
f 174/156/90 172/155/88 173/135/89
f 174/156/90 173/135/89 175/136/91
f 174/156/90 175/136/91 176/157/92
f 175/136/91 177/158/93 176/157/92
f 177/158/93 178/159/94 176/157/92
f 179/160/95 176/157/92 178/159/94
f 178/159/94 180/161/64 179/160/95
f 181/162/64 179/160/95 180/161/64
f 180/161/64 182/163/65 181/162/64
f 183/164/65 181/162/64 182/163/65
f 182/163/65 184/165/66 183/164/65
f 185/166/66 183/164/65 184/165/66
f 184/165/66 186/167/67 185/166/66
f 187/168/67 185/166/66 186/167/67
