# Blender 5.1.0
# www.blender.org
mtllib Bsh_Hull_Stern_Dredn_AD1_002_0.mtl
o Bsh_Hull_Stern_Dredn_AD1_002_0
v -3.339736 -52.999908 -4.005618
v -1.741991 -58.998535 -3.320859
v -1.208326 -58.998531 -3.858890
v -3.928813 -52.999908 -3.324454
v -4.892000 -48.631229 -4.112477
v -5.521432 -48.631229 -3.327072
v -6.031093 -45.419598 -4.508235
v -4.597462 -52.999908 -0.318305
v -2.247047 -58.998535 -0.318299
v -1.231767 -59.918648 -3.320858
v -1.588896 -60.679607 -0.318294
v -6.805953 -46.999912 -0.318310
v -6.645670 -45.419598 -3.589471
v -7.026986 -42.606178 -5.158250
v -7.586334 -42.606178 -4.066416
v -8.618840 -40.999912 -0.318311
v -8.140024 -39.456268 -6.189501
v -8.595004 -39.456268 -4.849248
v -9.635264 -36.051830 -5.974521
v -9.355957 -36.008842 -7.663792
v -10.218228 -34.999931 -0.318301
v -10.088757 -32.741535 -8.095251
v -10.333585 -32.741528 -6.322205
v -10.958013 -28.999956 -6.322203
v -11.219544 -28.999956 -0.318299
v -10.713263 -28.999954 -8.095251
v -11.566725 -22.999956 -6.322200
v -11.828259 -22.999960 -0.318296
v -11.321603 -22.999958 -8.095248
v -12.048513 -16.999954 -6.322198
v -12.310049 -16.999956 -0.318293
v -11.803391 -16.999956 -8.095247
v -12.384452 -10.999956 -6.322191
v -12.645969 -10.999962 -0.318289
v -12.139329 -10.999958 -8.095241
v -12.384439 -4.999966 -6.322194
v -12.645971 -4.999966 -0.318291
v -12.139310 -4.999966 -8.095245
v -1.231767 -59.918648 -3.320858
v -1.208326 -58.998531 -3.858890
v -1.741991 -58.998535 -3.320859
v -0.854409 -59.541294 -3.858889
v -0.666617 -60.296265 -3.320857
v -0.462392 -59.803226 -3.858889
v -0.000011 -58.998531 -4.096510
v -0.000012 -59.895210 -3.858889
v 0.462370 -59.803230 -3.858889
v 0.854387 -59.541298 -3.858890
v 0.666594 -60.296268 -3.320858
v 1.231743 -59.918652 -3.320859
v 1.208304 -58.998535 -3.858891
v 1.741969 -58.998539 -3.320860
v -1.577599 -52.999908 -4.571140
v -2.901631 -52.999912 -4.242168
v -3.339736 -52.999908 -4.005618
v -4.134831 -48.631229 -4.521303
v -4.892000 -48.631229 -4.112477
v -2.726523 -48.631237 -4.916803
v -5.042790 -45.419598 -5.063681
v -6.031093 -45.419598 -4.508235
v -3.715534 -45.419598 -5.455482
v -5.839511 -42.606178 -5.868346
v -7.026986 -42.606178 -5.158250
v -4.723657 -42.606182 -6.206737
v -6.732859 -39.456272 -7.097806
v -8.140024 -39.456268 -6.189501
v -9.355957 -36.008842 -7.663792
v -5.993729 -39.456272 -7.326490
v -7.714518 -36.000359 -8.821806
v -10.088757 -32.741535 -8.095251
v -0.409914 -42.606182 -6.486949
v -0.348560 -45.419601 -5.763625
v -0.444928 -39.456276 -7.523967
v -0.240533 -48.631229 -5.194216
v -0.445426 -36.069897 -8.889440
v -0.223170 -49.052635 -5.141013
v -0.276931 -32.728962 -9.320876
v -0.000009 -52.999908 -4.741743
v -0.000008 -49.214180 -5.148949
v 0.223154 -49.052643 -5.141013
v 1.577581 -52.999912 -4.571141
v 2.726508 -48.631241 -4.916805
v 0.240518 -48.631237 -5.194216
v 0.348548 -45.419605 -5.763626
v 2.901614 -52.999912 -4.242171
v 3.339720 -52.999912 -4.005620
v 4.134816 -48.631237 -4.521306
v 4.891985 -48.631237 -4.112480
v 3.715521 -45.419605 -5.455485
v 0.409901 -42.606186 -6.486949
v 5.042777 -45.419605 -5.063684
v 6.031080 -45.419605 -4.508239
v 4.723646 -42.606186 -6.206740
v 0.444919 -39.456280 -7.523967
v 5.839499 -42.606186 -5.868350
v 7.026975 -42.606186 -5.158256
v 5.993718 -39.456280 -7.326494
v 0.445418 -36.069897 -8.889441
v 6.732848 -39.456280 -7.097811
v 8.140016 -39.456280 -6.189506
v 9.355951 -36.008850 -7.663798
v 7.714509 -36.000370 -8.821811
v 0.276926 -32.728966 -9.320878
v 10.088753 -32.741543 -8.095258
v 8.375587 -32.741539 -9.320883
v -0.000002 -28.999981 -9.320879
v 9.000011 -28.999969 -9.320885
v -0.000002 -32.725796 -9.320876
v 10.713264 -28.999966 -8.095259
v 0.388781 -39.456280 -9.320880
v 11.321606 -22.999969 -8.095257
v 9.605731 -22.999971 -9.320883
v -0.000005 -39.456276 -9.320876
v 0.320354 -42.606186 -9.320880
v 10.087523 -16.999969 -9.320878
v 11.803399 -16.999968 -8.095255
v -0.000007 -42.606182 -9.320878
v 0.223155 -45.765751 -9.320880
v -0.000008 -45.927292 -9.320879
v -0.223172 -45.765747 -9.320879
v -0.320368 -42.606182 -9.320878
v -0.388791 -39.456276 -9.320878
v 10.423461 -10.999968 -9.320876
v 0.000006 -10.999981 -9.320865
v 12.139340 -10.999968 -8.095248
v 12.139329 -4.999978 -8.095254
v 10.423458 -4.999977 -9.320876
v 0.000008 -4.999995 -9.320883
v -10.423440 -4.999968 -9.320869
v -8.375591 -32.741528 -9.320876
v -9.000013 -28.999960 -9.320878
v -10.713263 -28.999954 -8.095251
v -11.321603 -22.999958 -8.095248
v -9.605729 -22.999962 -9.320876
v -10.423449 -10.999958 -9.320869
v -12.139310 -4.999966 -8.095245
v -12.139329 -10.999958 -8.095241
v -11.803391 -16.999956 -8.095247
v -10.087517 -16.999960 -9.320871
v 0.000004 -16.999979 -9.320876
v 0.000001 -22.999985 -9.320876
v -1.588896 -60.679607 -0.318294
v -0.666617 -60.296265 -3.320857
v -1.231767 -59.918648 -3.320858
v -0.859895 -61.166702 -0.318294
v -0.000010 -61.337749 -0.318295
v -0.000012 -60.428871 -3.320856
v -0.462392 -59.803226 -3.858889
v -0.000012 -59.895210 -3.858889
v 0.462370 -59.803230 -3.858889
v 0.666594 -60.296268 -3.320858
v 0.859874 -61.166710 -0.318294
v 1.588875 -60.679615 -0.318295
v 1.231743 -59.918652 -3.320859
v -0.223170 -46.791855 -7.486229
v -0.240533 -48.631229 -5.194216
v -0.223170 -49.052635 -5.141013
v -0.239443 -46.569027 -7.204750
v -0.348560 -45.419601 -5.763625
v -0.238530 -45.627609 -8.889306
v -0.334005 -42.606182 -8.889306
v -0.223172 -45.765747 -9.320879
v -0.409914 -42.606182 -6.486949
v -0.320368 -42.606182 -9.320878
v -0.444928 -39.456276 -7.523967
v -0.388791 -39.456276 -9.320878
v -0.402274 -39.456276 -8.889306
v -0.445426 -36.069897 -8.889440
v -0.276931 -32.728962 -9.320876
v -0.223170 -46.791855 -7.486229
v -0.000008 -45.927292 -9.320879
v -0.223172 -45.765747 -9.320879
v -0.000007 -46.890640 -7.603037
v -0.223170 -49.052635 -5.141013
v -0.000008 -49.214180 -5.148949
v 0.223154 -49.052643 -5.141013
v 0.223155 -46.791859 -7.486230
v 0.223155 -45.765751 -9.320880
v 1.741969 -58.998539 -3.320860
v 3.339720 -52.999912 -4.005620
v 1.208304 -58.998535 -3.858891
v 3.928797 -52.999912 -3.324457
v 4.891985 -48.631237 -4.112480
v 5.521418 -48.631237 -3.327076
v 6.031080 -45.419605 -4.508239
v 4.597446 -52.999912 -0.318307
v 2.247027 -58.998539 -0.318301
v 1.231743 -59.918652 -3.320859
v 1.588875 -60.679615 -0.318295
v 6.805941 -46.999920 -0.318314
v 6.645658 -45.419605 -3.589476
v 7.026975 -42.606186 -5.158256
v 7.586323 -42.606186 -4.066421
v 8.618836 -40.999924 -0.318317
v 8.140016 -39.456280 -6.189506
v 8.594997 -39.456280 -4.849254
v 9.635260 -36.051838 -5.974527
v 9.355951 -36.008850 -7.663798
v 10.218229 -34.999943 -0.318308
v 10.088753 -32.741543 -8.095258
v 10.333582 -32.741539 -6.322211
v 10.958014 -28.999966 -6.322211
v 11.219549 -28.999969 -0.318307
v 10.713264 -28.999966 -8.095259
v 11.566730 -22.999968 -6.322208
v 11.828268 -22.999971 -0.318304
v 11.321606 -22.999969 -8.095257
v 12.048525 -16.999968 -6.322207
v 12.310063 -16.999969 -0.318302
v 11.803399 -16.999968 -8.095255
v 12.384465 -10.999969 -6.322199
v 12.645987 -10.999973 -0.318297
v 12.139340 -10.999968 -8.095248
v 12.384458 -4.999978 -6.322203
v 12.645994 -4.999978 -0.318300
v 12.139329 -4.999978 -8.095254
v 0.240518 -48.631237 -5.194216
v 0.223155 -46.791859 -7.486230
v 0.223154 -49.052643 -5.141013
v 0.239429 -46.569035 -7.204751
v 0.348548 -45.419605 -5.763626
v 0.238516 -45.627613 -8.889307
v 0.333992 -42.606186 -8.889307
v 0.223155 -45.765751 -9.320880
v 0.409901 -42.606186 -6.486949
v 0.320354 -42.606186 -9.320880
v 0.444919 -39.456280 -7.523967
v 0.388781 -39.456280 -9.320880
v 0.402264 -39.456280 -8.889307
v 0.445418 -36.069897 -8.889441
v 0.276926 -32.728966 -9.320878
v -2.435890 -49.269894 -7.202046
v -2.335218 -50.496201 -7.445093
v -2.435891 -50.496201 -7.202046
v -2.335217 -49.269894 -7.445094
v -2.435891 -50.496201 -7.688138
v -2.435890 -49.269894 -7.688141
v -2.435891 -50.496201 -7.202046
v -2.678936 -49.269894 -7.101373
v -2.435890 -49.269894 -7.202046
v -2.678937 -50.496201 -7.101373
v -2.921984 -49.269894 -7.202047
v -2.921984 -50.496201 -7.202046
v -2.921984 -50.496201 -7.202046
v -3.022657 -49.269894 -7.445095
v -2.921984 -49.269894 -7.202047
v -3.022657 -50.496201 -7.445094
v -2.921984 -49.269894 -7.688141
v -2.921984 -50.496201 -7.688141
v -2.921984 -50.496201 -7.688141
v -2.678936 -49.269894 -7.788814
v -2.921984 -49.269894 -7.688141
v -2.678937 -50.496201 -7.788814
v -2.435890 -49.269894 -7.688141
v -2.435891 -50.496201 -7.688138
v -2.466660 -48.109325 -7.445095
v -2.435890 -49.269894 -7.202046
v -2.528834 -48.109325 -7.294992
v -2.335217 -49.269894 -7.445094
v -2.528834 -48.109325 -7.595198
v -2.435890 -49.269894 -7.688141
v -2.678937 -48.109325 -7.657373
v -2.435890 -49.269894 -7.688141
v -2.528834 -48.109325 -7.595198
v -2.678936 -49.269894 -7.788814
v -2.829040 -48.109325 -7.595198
v -2.921984 -49.269894 -7.688141
v -2.891215 -48.109325 -7.445095
v -2.921984 -49.269894 -7.688141
v -2.829040 -48.109325 -7.595198
v -3.022657 -49.269894 -7.445095
v -2.829040 -48.109325 -7.294992
v -2.921984 -49.269894 -7.202047
v -2.678937 -48.109325 -7.232817
v -2.921984 -49.269894 -7.202047
v -2.829040 -48.109325 -7.294992
v -2.678936 -49.269894 -7.101373
v -2.528834 -48.109325 -7.294992
v -2.435890 -49.269894 -7.202046
v -2.331109 -43.833721 -7.445096
v -2.528833 -45.177746 -7.294992
v -2.432985 -43.833721 -7.199144
v -2.466658 -45.177746 -7.445096
v -2.432985 -43.833721 -7.691049
v -2.528833 -45.177746 -7.595198
v -2.678936 -43.833721 -7.792923
v -2.528833 -45.177746 -7.595198
v -2.432985 -43.833721 -7.691049
v -2.678936 -45.177746 -7.657374
v -2.924887 -43.833721 -7.691049
v -2.829039 -45.177746 -7.595198
v -3.026763 -43.833721 -7.445097
v -2.829039 -45.177746 -7.595198
v -2.924887 -43.833721 -7.691049
v -2.891213 -45.177746 -7.445096
v -2.924887 -43.833721 -7.199145
v -2.829039 -45.177746 -7.294993
v -2.678936 -43.833721 -7.097268
v -2.829039 -45.177746 -7.294993
v -2.924887 -43.833721 -7.199145
v -2.678936 -45.177746 -7.232817
v -2.432985 -43.833721 -7.199144
v -2.528833 -45.177746 -7.294992
v -2.331108 -35.374756 -7.445101
v -2.432985 -43.833721 -7.199144
v -2.432984 -35.374756 -7.199149
v -2.331109 -43.833721 -7.445096
v -2.432984 -35.374756 -7.691052
v -2.432985 -43.833721 -7.691049
v -2.678934 -35.374756 -7.792928
v -2.432985 -43.833721 -7.691049
v -2.432984 -35.374756 -7.691052
v -2.678936 -43.833721 -7.792923
v -2.924886 -35.374756 -7.691052
v -2.924887 -43.833721 -7.691049
v -3.026762 -35.374756 -7.445101
v -2.924887 -43.833721 -7.691049
v -2.924886 -35.374756 -7.691052
v -3.026763 -43.833721 -7.445097
v -2.924886 -35.374756 -7.199149
v -2.924887 -43.833721 -7.199145
v -2.678935 -35.374756 -7.097272
v -2.924887 -43.833721 -7.199145
v -2.924886 -35.374756 -7.199149
v -2.678936 -43.833721 -7.097268
v -2.432984 -35.374756 -7.199149
v -2.432985 -43.833721 -7.199144
v -2.819876 -49.365147 -7.202047
v -2.633015 -49.611660 -6.900532
v -2.724859 -49.611660 -6.900531
v -2.537998 -49.365147 -7.202046
v -2.537998 -49.365147 -7.202046
v -2.633016 -50.266739 -6.900533
v -2.633015 -49.611660 -6.900532
v -2.537999 -50.513252 -7.202046
v -2.819876 -50.513252 -7.202047
v -2.724859 -49.611660 -6.900531
v -2.724859 -50.266739 -6.900533
v -2.819876 -49.365147 -7.202047
v -2.537999 -50.513252 -7.202046
v -2.724859 -50.266739 -6.900533
v -2.633016 -50.266739 -6.900533
v -2.819876 -50.513252 -7.202047
v -2.724859 -49.611660 -4.193768
v -2.633015 -49.611660 -6.900532
v -2.633016 -49.611660 -4.193768
v -2.724859 -49.611660 -6.900531
v -2.633016 -49.611660 -4.193768
v -2.633016 -50.266739 -6.900533
v -2.633016 -50.266739 -4.193767
v -2.633015 -49.611660 -6.900532
v -2.724860 -50.266739 -4.193767
v -2.724859 -49.611660 -6.900531
v -2.724859 -49.611660 -4.193768
v -2.724859 -50.266739 -6.900533
v -2.633016 -50.266739 -4.193767
v -2.724859 -50.266739 -6.900533
v -2.724860 -50.266739 -4.193767
v -2.633016 -50.266739 -6.900533
v -2.559641 -49.818478 -7.220668
v 0.395383 -49.817989 -4.475902
v 0.290254 -49.817989 -4.370774
v -2.454512 -49.818478 -7.325798
v -2.454512 -49.818478 -7.325798
v 0.395383 -50.060410 -4.475902
v 0.395383 -49.817989 -4.475902
v -2.454512 -50.059940 -7.325798
v -2.559641 -50.059940 -7.220668
v 0.290254 -49.817989 -4.370774
v 0.290254 -50.060410 -4.370773
v -2.559641 -49.818478 -7.220668
v -2.454512 -50.059940 -7.325798
v 0.290254 -50.060410 -4.370773
v 0.395383 -50.060410 -4.475902
v -2.559641 -50.059940 -7.220668
v -5.410590 -46.250713 -6.642271
v -5.309917 -47.477032 -6.885317
v -5.410591 -47.477032 -6.642271
v -5.309916 -46.250713 -6.885319
v -5.410591 -47.477032 -7.128363
v -5.410590 -46.250713 -7.128365
v -5.410591 -47.477032 -6.642271
v -5.653636 -46.250713 -6.541597
v -5.410590 -46.250713 -6.642271
v -5.653637 -47.477032 -6.541597
v -5.896683 -46.250713 -6.642272
v -5.896684 -47.477032 -6.642271
v -5.896684 -47.477032 -6.642271
v -5.997356 -46.250713 -6.885319
v -5.896683 -46.250713 -6.642272
v -5.997357 -47.477032 -6.885319
v -5.896683 -46.250713 -7.128366
v -5.896683 -47.477032 -7.128366
v -5.896683 -47.477032 -7.128366
v -5.653636 -46.250713 -7.229039
v -5.896683 -46.250713 -7.128366
v -5.653636 -47.477032 -7.229039
v -5.410590 -46.250713 -7.128365
v -5.410591 -47.477032 -7.128363
v -5.441359 -45.090145 -6.885319
v -5.410590 -46.250713 -6.642271
v -5.503534 -45.090145 -6.735216
v -5.309916 -46.250713 -6.885319
v -5.503534 -45.090145 -7.035422
v -5.410590 -46.250713 -7.128365
v -5.653636 -45.090145 -7.097598
v -5.410590 -46.250713 -7.128365
v -5.503534 -45.090145 -7.035422
v -5.653636 -46.250713 -7.229039
v -5.803740 -45.090145 -7.035422
v -5.896683 -46.250713 -7.128366
v -5.865914 -45.090145 -6.885319
v -5.896683 -46.250713 -7.128366
v -5.803740 -45.090145 -7.035422
v -5.997356 -46.250713 -6.885319
v -5.803740 -45.090145 -6.735217
v -5.896683 -46.250713 -6.642272
v -5.653636 -45.090145 -6.673041
v -5.896683 -46.250713 -6.642272
v -5.803740 -45.090145 -6.735217
v -5.653636 -46.250713 -6.541597
v -5.503534 -45.090145 -6.735216
v -5.410590 -46.250713 -6.642271
v -5.305809 -40.814552 -6.885321
v -5.503532 -42.158566 -6.735217
v -5.407685 -40.814552 -6.639369
v -5.441357 -42.158566 -6.885320
v -5.407685 -40.814552 -7.131273
v -5.503532 -42.158566 -7.035422
v -5.653635 -40.814552 -7.233148
v -5.503532 -42.158566 -7.035422
v -5.407685 -40.814552 -7.131273
v -5.653635 -42.158566 -7.097599
v -5.899586 -40.814552 -7.131273
v -5.803738 -42.158566 -7.035422
v -6.001463 -40.814552 -6.885322
v -5.803738 -42.158566 -7.035422
v -5.899586 -40.814552 -7.131273
v -5.865913 -42.158566 -6.885320
v -5.899587 -40.814552 -6.639369
v -5.803739 -42.158566 -6.735218
v -5.653635 -40.814552 -6.537493
v -5.803739 -42.158566 -6.735218
v -5.899587 -40.814552 -6.639369
v -5.653635 -42.158566 -6.673043
v -5.407685 -40.814552 -6.639369
v -5.503532 -42.158566 -6.735217
v -5.305807 -32.355576 -6.885326
v -5.407685 -40.814552 -6.639369
v -5.407683 -32.355576 -6.639373
v -5.305809 -40.814552 -6.885321
v -5.407683 -32.355576 -7.131276
v -5.407685 -40.814552 -7.131273
v -5.653635 -32.355576 -7.233152
v -5.407685 -40.814552 -7.131273
v -5.407683 -32.355576 -7.131276
v -5.653635 -40.814552 -7.233148
v -5.899585 -32.355576 -7.131277
v -5.899586 -40.814552 -7.131273
v -6.001462 -32.355576 -6.885324
v -5.899586 -40.814552 -7.131273
v -5.899585 -32.355576 -7.131277
v -6.001463 -40.814552 -6.885322
v -5.899585 -32.355576 -6.639373
v -5.899587 -40.814552 -6.639369
v -5.653635 -32.355576 -6.537497
v -5.899587 -40.814552 -6.639369
v -5.899585 -32.355576 -6.639373
v -5.653635 -40.814552 -6.537493
v -5.407683 -32.355576 -6.639373
v -5.407685 -40.814552 -6.639369
v -5.794575 -46.345978 -6.642272
v -5.607715 -46.592491 -6.340757
v -5.699559 -46.592491 -6.340756
v -5.512697 -46.345978 -6.642271
v -5.512697 -46.345978 -6.642271
v -5.607715 -47.247559 -6.340757
v -5.607715 -46.592491 -6.340757
v -5.512698 -47.494072 -6.642271
v -5.794576 -47.494072 -6.642272
v -5.699559 -46.592491 -6.340756
v -5.699559 -47.247559 -6.340758
v -5.794575 -46.345978 -6.642272
v -5.512698 -47.494072 -6.642271
v -5.699559 -47.247559 -6.340758
v -5.607715 -47.247559 -6.340757
v -5.794576 -47.494072 -6.642272
v -5.699559 -46.592491 -3.633993
v -5.607715 -46.592491 -6.340757
v -5.607715 -46.592491 -3.633993
v -5.699559 -46.592491 -6.340756
v -5.607715 -46.592491 -3.633993
v -5.607715 -47.247559 -6.340757
v -5.607716 -47.247559 -3.633992
v -5.607715 -46.592491 -6.340757
v -5.699560 -47.247559 -3.633992
v -5.699559 -46.592491 -6.340756
v -5.699559 -46.592491 -3.633993
v -5.699559 -47.247559 -6.340758
v -5.607716 -47.247559 -3.633992
v -5.699559 -47.247559 -6.340758
v -5.699560 -47.247559 -3.633992
v -5.607715 -47.247559 -6.340757
v -5.534340 -46.799297 -6.660892
v -2.579316 -46.798809 -3.916127
v -2.684445 -46.798809 -3.810998
v -5.429212 -46.799297 -6.766022
v -5.429212 -46.799297 -6.766022
v -2.579316 -47.041241 -3.916127
v -2.579316 -46.798809 -3.916127
v -5.429212 -47.040760 -6.766022
v -5.534340 -47.040760 -6.660892
v -2.684445 -46.798809 -3.810998
v -2.684445 -47.041241 -3.810998
v -5.534340 -46.799297 -6.660892
v -5.429212 -47.040760 -6.766022
v -2.684445 -47.041241 -3.810998
v -2.579316 -47.041241 -3.916127
v -5.534340 -47.040760 -6.660892
v -2.564938 -51.414043 -8.316918
v -2.792969 -51.414043 -4.630311
v -2.792967 -51.414043 -8.316918
v -2.564939 -51.414043 -4.630311
v -2.612392 -54.007732 -4.630310
v -2.792969 -51.414043 -4.630311
v -2.564939 -51.414043 -4.630311
v -2.745517 -54.007732 -4.630310
v -2.620021 -54.521980 -4.805252
v -2.737889 -54.521980 -4.805252
v -2.626207 -54.939121 -5.147833
v -2.731701 -54.939121 -5.147834
v -2.745515 -54.007732 -8.316917
v -2.564938 -51.414043 -8.316918
v -2.792967 -51.414043 -8.316918
v -2.612391 -54.007732 -8.316916
v -2.737887 -54.521980 -8.141974
v -2.620019 -54.521980 -8.141974
v -2.731700 -54.939121 -7.799393
v -2.626207 -54.939121 -7.799393
v -2.945472 -52.235909 -3.365221
v -2.883432 -51.963955 -8.249105
v -2.945472 -51.928143 -3.365221
v -2.883432 -52.200096 -8.249105
v -2.678952 -51.845867 -8.249107
v -2.945472 -51.928143 -3.365221
v -2.883432 -51.963955 -8.249105
v -2.678954 -51.774269 -3.365222
v -2.474473 -51.963955 -8.249107
v -2.412436 -51.928143 -3.365222
v -2.412436 -51.928143 -3.365222
v -2.474473 -52.200096 -8.249107
v -2.412436 -52.235909 -3.365222
v -2.474473 -51.963955 -8.249107
v -2.678952 -52.318146 -8.249105
v -2.412436 -52.235909 -3.365222
v -2.474473 -52.200096 -8.249107
v -2.678954 -52.389774 -3.365220
v -2.883432 -52.200096 -8.249105
v -2.945472 -52.235909 -3.365221
v -2.412436 -52.235909 -3.365222
v -2.678954 -51.774269 -3.365222
v -2.412436 -51.928143 -3.365222
v -2.945472 -52.235909 -3.365221
v -2.678954 -52.389774 -3.365220
v -2.945472 -51.928143 -3.365221
v -2.883432 -51.963955 -8.249105
v -2.474473 -51.963955 -8.249107
v -2.678952 -51.845867 -8.249107
v -2.678952 -52.318146 -8.249105
v -2.883432 -52.200096 -8.249105
v -2.474473 -52.200096 -8.249107
v -2.473548 -51.846424 -5.505384
v -2.560026 -54.641308 -5.257353
v -2.473548 -51.846424 -5.257354
v -2.560026 -54.641308 -5.505382
v -2.884359 -51.846424 -5.505384
v -2.797882 -54.641308 -5.257353
v -2.797882 -54.641308 -5.505382
v -2.884359 -51.846424 -5.257355
v -2.473548 -51.846424 -5.505384
v -2.797882 -54.641308 -5.505382
v -2.560026 -54.641308 -5.505382
v -2.884359 -51.846424 -5.505384
v -2.560026 -54.641308 -5.505382
v -2.797882 -54.641308 -5.257353
v -2.560026 -54.641308 -5.257353
v -2.797882 -54.641308 -5.505382
v -2.560026 -54.641308 -5.257353
v -2.884359 -51.846424 -5.257355
v -2.473548 -51.846424 -5.257354
v -2.797882 -54.641308 -5.257353
v -2.473548 -51.846424 -6.597628
v -2.560025 -54.641308 -6.349599
v -2.473548 -51.846424 -6.349600
v -2.560026 -54.641308 -6.597628
v -2.884359 -51.846424 -6.597628
v -2.797882 -54.641308 -6.349600
v -2.797882 -54.641308 -6.597628
v -2.884359 -51.846424 -6.349601
v -2.473548 -51.846424 -6.597628
v -2.797882 -54.641308 -6.597628
v -2.560026 -54.641308 -6.597628
v -2.884359 -51.846424 -6.597628
v -2.560026 -54.641308 -6.597628
v -2.797882 -54.641308 -6.349600
v -2.560025 -54.641308 -6.349599
v -2.797882 -54.641308 -6.597628
v -2.560025 -54.641308 -6.349599
v -2.884359 -51.846424 -6.349601
v -2.473548 -51.846424 -6.349600
v -2.797882 -54.641308 -6.349600
v -2.473548 -51.846424 -7.689873
v -2.560025 -54.641308 -7.441843
v -2.473548 -51.846424 -7.441845
v -2.560025 -54.641308 -7.689872
v -2.884358 -51.846424 -7.689873
v -2.797882 -54.641308 -7.441843
v -2.797882 -54.641308 -7.689872
v -2.884358 -51.846424 -7.441845
v -2.473548 -51.846424 -7.689873
v -2.797882 -54.641308 -7.689872
v -2.560025 -54.641308 -7.689872
v -2.884358 -51.846424 -7.689873
v -2.560025 -54.641308 -7.689872
v -2.797882 -54.641308 -7.441843
v -2.560025 -54.641308 -7.441843
v -2.797882 -54.641308 -7.689872
v -2.560025 -54.641308 -7.441843
v -2.884358 -51.846424 -7.441845
v -2.473548 -51.846424 -7.441845
v -2.797882 -54.641308 -7.441843
v -2.728541 -55.152119 -5.570182
v -2.737889 -54.521980 -4.805252
v -2.731701 -54.939121 -5.147834
v -2.745517 -54.007732 -4.630310
v -2.745515 -54.007732 -8.316917
v -2.728540 -55.152119 -7.377044
v -2.731700 -54.939121 -7.799393
v -2.737887 -54.521980 -8.141974
v -2.792967 -51.414043 -8.316918
v -2.792969 -51.414043 -4.630311
v -2.612392 -54.007732 -4.630310
v -2.626207 -54.939121 -5.147833
v -2.620021 -54.521980 -4.805252
v -2.629367 -55.152119 -5.570182
v -2.629367 -55.152119 -7.377044
v -2.612391 -54.007732 -8.316916
v -2.620019 -54.521980 -8.141974
v -2.626207 -54.939121 -7.799393
v -2.564938 -51.414043 -8.316918
v -2.564939 -51.414043 -4.630311
v -2.629367 -55.152119 -5.570182
v -2.731701 -54.939121 -5.147834
v -2.626207 -54.939121 -5.147833
v -2.728541 -55.152119 -5.570182
v -2.728540 -55.152119 -7.377044
v -2.629367 -55.152119 -7.377044
v -2.626207 -54.939121 -7.799393
v -2.731700 -54.939121 -7.799393
v 2.335231 -50.496201 -7.445093
v 2.435904 -49.269894 -7.202046
v 2.435904 -50.496201 -7.202046
v 2.335231 -49.269894 -7.445094
v 2.435904 -50.496201 -7.688138
v 2.435904 -49.269894 -7.688141
v 2.678950 -49.269894 -7.101373
v 2.435904 -50.496201 -7.202046
v 2.435904 -49.269894 -7.202046
v 2.678950 -50.496201 -7.101373
v 2.921998 -49.269894 -7.202046
v 2.921997 -50.496201 -7.202046
v 3.022671 -49.269894 -7.445094
v 2.921997 -50.496201 -7.202046
v 2.921998 -49.269894 -7.202046
v 3.022670 -50.496201 -7.445093
v 2.921998 -49.269894 -7.688141
v 2.921997 -50.496201 -7.688141
v 2.678950 -49.269894 -7.788814
v 2.921997 -50.496201 -7.688141
v 2.921998 -49.269894 -7.688141
v 2.678950 -50.496201 -7.788814
v 2.435904 -49.269894 -7.688141
v 2.435904 -50.496201 -7.688138
v 2.435904 -49.269894 -7.202046
v 2.466674 -48.109325 -7.445095
v 2.528849 -48.109325 -7.294992
v 2.335231 -49.269894 -7.445094
v 2.528849 -48.109325 -7.595198
v 2.435904 -49.269894 -7.688141
v 2.435904 -49.269894 -7.688141
v 2.678952 -48.109325 -7.657373
v 2.528849 -48.109325 -7.595198
v 2.678950 -49.269894 -7.788814
v 2.829055 -48.109325 -7.595198
v 2.921998 -49.269894 -7.688141
v 2.921998 -49.269894 -7.688141
v 2.891229 -48.109325 -7.445095
v 2.829055 -48.109325 -7.595198
v 3.022671 -49.269894 -7.445094
v 2.829055 -48.109325 -7.294992
v 2.921998 -49.269894 -7.202046
v 2.921998 -49.269894 -7.202046
v 2.678952 -48.109325 -7.232817
v 2.829055 -48.109325 -7.294992
v 2.678950 -49.269894 -7.101373
v 2.528849 -48.109325 -7.294992
v 2.435904 -49.269894 -7.202046
v 2.528850 -45.177746 -7.294992
v 2.331126 -43.833721 -7.445096
v 2.433002 -43.833721 -7.199144
v 2.466675 -45.177746 -7.445096
v 2.433002 -43.833721 -7.691049
v 2.528850 -45.177746 -7.595198
v 2.528850 -45.177746 -7.595198
v 2.678953 -43.833721 -7.792923
v 2.433002 -43.833721 -7.691049
v 2.678952 -45.177746 -7.657374
v 2.924904 -43.833721 -7.691049
v 2.829055 -45.177746 -7.595198
v 2.829055 -45.177746 -7.595198
v 3.026781 -43.833721 -7.445097
v 2.924904 -43.833721 -7.691049
v 2.891230 -45.177746 -7.445096
v 2.924904 -43.833721 -7.199144
v 2.829055 -45.177746 -7.294992
v 2.829055 -45.177746 -7.294992
v 2.678953 -43.833721 -7.097268
v 2.924904 -43.833721 -7.199144
v 2.678952 -45.177746 -7.232817
v 2.433002 -43.833721 -7.199144
v 2.528850 -45.177746 -7.294992
v 2.433002 -43.833721 -7.199144
v 2.331130 -35.374756 -7.445101
v 2.433006 -35.374756 -7.199149
v 2.331126 -43.833721 -7.445096
v 2.433006 -35.374756 -7.691052
v 2.433002 -43.833721 -7.691049
v 2.433002 -43.833721 -7.691049
v 2.678957 -35.374756 -7.792928
v 2.433006 -35.374756 -7.691052
v 2.678953 -43.833721 -7.792923
v 2.924908 -35.374756 -7.691052
v 2.924904 -43.833721 -7.691049
v 2.924904 -43.833721 -7.691049
v 3.026784 -35.374756 -7.445100
v 2.924908 -35.374756 -7.691052
v 3.026781 -43.833721 -7.445097
v 2.924908 -35.374756 -7.199149
v 2.924904 -43.833721 -7.199144
v 2.924904 -43.833721 -7.199144
v 2.678957 -35.374756 -7.097272
v 2.924908 -35.374756 -7.199149
v 2.678953 -43.833721 -7.097268
v 2.433006 -35.374756 -7.199149
v 2.433002 -43.833721 -7.199144
v 2.819889 -49.365147 -7.202046
v 2.633029 -49.611660 -6.900532
v 2.538012 -49.365147 -7.202046
v 2.724872 -49.611660 -6.900531
v 2.538012 -49.365147 -7.202046
v 2.633029 -50.266739 -6.900533
v 2.538012 -50.513252 -7.202046
v 2.633029 -49.611660 -6.900532
v 2.819889 -50.513252 -7.202046
v 2.724872 -49.611660 -6.900531
v 2.819889 -49.365147 -7.202046
v 2.724872 -50.266739 -6.900533
v 2.538012 -50.513252 -7.202046
v 2.724872 -50.266739 -6.900533
v 2.819889 -50.513252 -7.202046
v 2.633029 -50.266739 -6.900533
v 2.724873 -49.611660 -4.193768
v 2.633029 -49.611660 -6.900532
v 2.724872 -49.611660 -6.900531
v 2.633030 -49.611660 -4.193768
v 2.633030 -49.611660 -4.193768
v 2.633029 -50.266739 -6.900533
v 2.633029 -49.611660 -6.900532
v 2.633029 -50.266739 -4.193768
v 2.724873 -50.266739 -4.193768
v 2.724872 -49.611660 -6.900531
v 2.724872 -50.266739 -6.900533
v 2.724873 -49.611660 -4.193768
v 2.633029 -50.266739 -4.193768
v 2.724872 -50.266739 -6.900533
v 2.633029 -50.266739 -6.900533
v 2.724873 -50.266739 -4.193768
v 2.559654 -49.818478 -7.220668
v -0.395369 -49.817989 -4.475902
v 2.454526 -49.818478 -7.325798
v -0.290241 -49.817989 -4.370773
v 2.454526 -49.818478 -7.325798
v -0.395370 -50.060410 -4.475902
v 2.454526 -50.059940 -7.325798
v -0.395369 -49.817989 -4.475902
v 2.559654 -50.059940 -7.220668
v -0.290241 -49.817989 -4.370773
v 2.559654 -49.818478 -7.220668
v -0.290241 -50.060410 -4.370773
v 2.454526 -50.059940 -7.325798
v -0.290241 -50.060410 -4.370773
v 2.559654 -50.059940 -7.220668
v -0.395370 -50.060410 -4.475902
v 5.309931 -47.477032 -6.885318
v 5.410605 -46.250713 -6.642272
v 5.410604 -47.477032 -6.642271
v 5.309932 -46.250713 -6.885319
v 5.410604 -47.477032 -7.128363
v 5.410604 -46.250713 -7.128366
v 5.653651 -46.250713 -6.541597
v 5.410604 -47.477032 -6.642271
v 5.410605 -46.250713 -6.642272
v 5.653650 -47.477032 -6.541597
v 5.896698 -46.250713 -6.642272
v 5.896697 -47.477032 -6.642271
v 5.997371 -46.250713 -6.885319
v 5.896697 -47.477032 -6.642271
v 5.896698 -46.250713 -6.642272
v 5.997370 -47.477032 -6.885319
v 5.896697 -46.250713 -7.128366
v 5.896697 -47.477032 -7.128366
v 5.653650 -46.250713 -7.229039
v 5.896697 -47.477032 -7.128366
v 5.896697 -46.250713 -7.128366
v 5.653650 -47.477032 -7.229039
v 5.410604 -46.250713 -7.128366
v 5.410604 -47.477032 -7.128363
v 5.410605 -46.250713 -6.642272
v 5.441374 -45.090145 -6.885319
v 5.503549 -45.090145 -6.735217
v 5.309932 -46.250713 -6.885319
v 5.503549 -45.090145 -7.035422
v 5.410604 -46.250713 -7.128366
v 5.410604 -46.250713 -7.128366
v 5.653652 -45.090145 -7.097598
v 5.503549 -45.090145 -7.035422
v 5.653650 -46.250713 -7.229039
v 5.803756 -45.090145 -7.035422
v 5.896697 -46.250713 -7.128366
v 5.896697 -46.250713 -7.128366
v 5.865930 -45.090145 -6.885319
v 5.803756 -45.090145 -7.035422
v 5.997371 -46.250713 -6.885319
v 5.803756 -45.090145 -6.735217
v 5.896698 -46.250713 -6.642272
v 5.896698 -46.250713 -6.642272
v 5.653652 -45.090145 -6.673041
v 5.803756 -45.090145 -6.735217
v 5.653651 -46.250713 -6.541597
v 5.503549 -45.090145 -6.735217
v 5.410605 -46.250713 -6.642272
v 5.503550 -42.158566 -6.735218
v 5.305826 -40.814552 -6.885322
v 5.407702 -40.814552 -6.639369
v 5.441375 -42.158566 -6.885320
v 5.407702 -40.814552 -7.131273
v 5.503550 -42.158566 -7.035422
v 5.503550 -42.158566 -7.035422
v 5.653654 -40.814552 -7.233148
v 5.407702 -40.814552 -7.131273
v 5.653652 -42.158566 -7.097599
v 5.899605 -40.814552 -7.131273
v 5.803756 -42.158566 -7.035422
v 5.803756 -42.158566 -7.035422
v 6.001481 -40.814552 -6.885322
v 5.899605 -40.814552 -7.131273
v 5.865930 -42.158566 -6.885320
v 5.899605 -40.814552 -6.639369
v 5.803756 -42.158566 -6.735218
v 5.803756 -42.158566 -6.735218
v 5.653654 -40.814552 -6.537493
v 5.899605 -40.814552 -6.639369
v 5.653652 -42.158566 -6.673043
v 5.407702 -40.814552 -6.639369
v 5.503550 -42.158566 -6.735218
v 5.407702 -40.814552 -6.639369
v 5.305830 -32.355576 -6.885326
v 5.407707 -32.355576 -6.639373
v 5.305826 -40.814552 -6.885322
v 5.407706 -32.355576 -7.131276
v 5.407702 -40.814552 -7.131273
v 5.407702 -40.814552 -7.131273
v 5.653657 -32.355576 -7.233152
v 5.407706 -32.355576 -7.131276
v 5.653654 -40.814552 -7.233148
v 5.899608 -32.355576 -7.131276
v 5.899605 -40.814552 -7.131273
v 5.899605 -40.814552 -7.131273
v 6.001485 -32.355576 -6.885324
v 5.899608 -32.355576 -7.131276
v 6.001481 -40.814552 -6.885322
v 5.899609 -32.355576 -6.639373
v 5.899605 -40.814552 -6.639369
v 5.899605 -40.814552 -6.639369
v 5.653658 -32.355576 -6.537497
v 5.899609 -32.355576 -6.639373
v 5.653654 -40.814552 -6.537493
v 5.407707 -32.355576 -6.639373
v 5.407702 -40.814552 -6.639369
v 5.794590 -46.345978 -6.642272
v 5.607729 -46.592491 -6.340757
v 5.512712 -46.345978 -6.642272
v 5.699573 -46.592491 -6.340756
v 5.512712 -46.345978 -6.642272
v 5.607729 -47.247559 -6.340757
v 5.512712 -47.494072 -6.642272
v 5.607729 -46.592491 -6.340757
v 5.794590 -47.494072 -6.642272
v 5.699573 -46.592491 -6.340756
v 5.794590 -46.345978 -6.642272
v 5.699573 -47.247559 -6.340758
v 5.512712 -47.494072 -6.642272
v 5.699573 -47.247559 -6.340758
v 5.794590 -47.494072 -6.642272
v 5.607729 -47.247559 -6.340757
v 5.699573 -46.592491 -3.633993
v 5.607729 -46.592491 -6.340757
v 5.699573 -46.592491 -6.340756
v 5.607729 -46.592491 -3.633993
v 5.607729 -46.592491 -3.633993
v 5.607729 -47.247559 -6.340757
v 5.607729 -46.592491 -6.340757
v 5.607730 -47.247559 -3.633992
v 5.699574 -47.247559 -3.633992
v 5.699573 -46.592491 -6.340756
v 5.699573 -47.247559 -6.340758
v 5.699573 -46.592491 -3.633993
v 5.607730 -47.247559 -3.633992
v 5.699573 -47.247559 -6.340758
v 5.607729 -47.247559 -6.340757
v 5.699574 -47.247559 -3.633992
v 5.534354 -46.799297 -6.660893
v 2.579331 -46.798809 -3.916127
v 5.429226 -46.799297 -6.766022
v 2.684460 -46.798809 -3.810998
v 5.429226 -46.799297 -6.766022
v 2.579331 -47.041241 -3.916126
v 5.429226 -47.040760 -6.766022
v 2.579331 -46.798809 -3.916127
v 5.534354 -47.040760 -6.660893
v 2.684460 -46.798809 -3.810998
v 5.534354 -46.799297 -6.660893
v 2.684460 -47.041241 -3.810998
v 5.429226 -47.040760 -6.766022
v 2.684460 -47.041241 -3.810998
v 5.534354 -47.040760 -6.660893
v 2.579331 -47.041241 -3.916126
v 2.564950 -51.414043 -8.316918
v 2.792981 -51.414043 -4.630311
v 2.564951 -51.414043 -4.630310
v 2.792979 -51.414043 -8.316918
v 2.792981 -51.414043 -4.630311
v 2.612403 -54.007732 -4.630310
v 2.564951 -51.414043 -4.630310
v 2.745528 -54.007732 -4.630310
v 2.620031 -54.521980 -4.805252
v 2.737899 -54.521980 -4.805252
v 2.626217 -54.939121 -5.147833
v 2.731711 -54.939121 -5.147834
v 2.564950 -51.414043 -8.316918
v 2.745526 -54.007732 -8.316917
v 2.792979 -51.414043 -8.316918
v 2.612401 -54.007732 -8.316916
v 2.737898 -54.521980 -8.141974
v 2.620030 -54.521980 -8.141974
v 2.731711 -54.939121 -7.799393
v 2.626218 -54.939121 -7.799393
v 2.945484 -52.235909 -3.365221
v 2.883444 -51.963955 -8.249105
v 2.883444 -52.200096 -8.249105
v 2.945484 -51.928143 -3.365221
v 2.945484 -51.928143 -3.365221
v 2.678964 -51.845867 -8.249107
v 2.883444 -51.963955 -8.249105
v 2.678966 -51.774269 -3.365222
v 2.474486 -51.963955 -8.249107
v 2.412448 -51.928143 -3.365222
v 2.412448 -51.928143 -3.365222
v 2.474485 -52.200096 -8.249107
v 2.474486 -51.963955 -8.249107
v 2.412448 -52.235909 -3.365222
v 2.412448 -52.235909 -3.365222
v 2.678964 -52.318146 -8.249105
v 2.474485 -52.200096 -8.249107
v 2.678966 -52.389774 -3.365221
v 2.883444 -52.200096 -8.249105
v 2.945484 -52.235909 -3.365221
v 2.945484 -52.235909 -3.365221
v 2.678966 -51.774269 -3.365222
v 2.945484 -51.928143 -3.365221
v 2.412448 -52.235909 -3.365222
v 2.678966 -52.389774 -3.365221
v 2.412448 -51.928143 -3.365222
v 2.678964 -52.318146 -8.249105
v 2.474486 -51.963955 -8.249107
v 2.474485 -52.200096 -8.249107
v 2.883444 -51.963955 -8.249105
v 2.883444 -52.200096 -8.249105
v 2.678964 -51.845867 -8.249107
v 2.473560 -51.846424 -5.505384
v 2.560036 -54.641308 -5.257353
v 2.560036 -54.641308 -5.505382
v 2.473560 -51.846424 -5.257354
v 2.884371 -51.846424 -5.505384
v 2.797893 -54.641308 -5.257353
v 2.884371 -51.846424 -5.257355
v 2.797893 -54.641308 -5.505382
v 2.473560 -51.846424 -5.505384
v 2.797893 -54.641308 -5.505382
v 2.884371 -51.846424 -5.505384
v 2.560036 -54.641308 -5.505382
v 2.560036 -54.641308 -5.505382
v 2.797893 -54.641308 -5.257353
v 2.797893 -54.641308 -5.505382
v 2.560036 -54.641308 -5.257353
v 2.560036 -54.641308 -5.257353
v 2.884371 -51.846424 -5.257355
v 2.797893 -54.641308 -5.257353
v 2.473560 -51.846424 -5.257354
v 2.473560 -51.846424 -6.597628
v 2.560036 -54.641308 -6.349599
v 2.560036 -54.641308 -6.597628
v 2.473560 -51.846424 -6.349600
v 2.884371 -51.846424 -6.597628
v 2.797893 -54.641308 -6.349599
v 2.884371 -51.846424 -6.349600
v 2.797892 -54.641308 -6.597628
v 2.473560 -51.846424 -6.597628
v 2.797892 -54.641308 -6.597628
v 2.884371 -51.846424 -6.597628
v 2.560036 -54.641308 -6.597628
v 2.560036 -54.641308 -6.597628
v 2.797893 -54.641308 -6.349599
v 2.797892 -54.641308 -6.597628
v 2.560036 -54.641308 -6.349599
v 2.560036 -54.641308 -6.349599
v 2.884371 -51.846424 -6.349600
v 2.797893 -54.641308 -6.349599
v 2.473560 -51.846424 -6.349600
v 2.473560 -51.846424 -7.689873
v 2.560036 -54.641308 -7.441843
v 2.560036 -54.641308 -7.689872
v 2.473560 -51.846424 -7.441845
v 2.884370 -51.846424 -7.689873
v 2.797892 -54.641308 -7.441843
v 2.884370 -51.846424 -7.441845
v 2.797892 -54.641308 -7.689872
v 2.473560 -51.846424 -7.689873
v 2.797892 -54.641308 -7.689872
v 2.884370 -51.846424 -7.689873
v 2.560036 -54.641308 -7.689872
v 2.560036 -54.641308 -7.689872
v 2.797892 -54.641308 -7.441843
v 2.797892 -54.641308 -7.689872
v 2.560036 -54.641308 -7.441843
v 2.560036 -54.641308 -7.441843
v 2.884370 -51.846424 -7.441845
v 2.797892 -54.641308 -7.441843
v 2.473560 -51.846424 -7.441845
v 2.737899 -54.521980 -4.805252
v 2.728551 -55.152119 -5.570182
v 2.731711 -54.939121 -5.147834
v 2.745528 -54.007732 -4.630310
v 2.745526 -54.007732 -8.316917
v 2.728551 -55.152119 -7.377044
v 2.731711 -54.939121 -7.799393
v 2.737898 -54.521980 -8.141974
v 2.792979 -51.414043 -8.316918
v 2.792981 -51.414043 -4.630311
v 2.626217 -54.939121 -5.147833
v 2.612403 -54.007732 -4.630310
v 2.620031 -54.521980 -4.805252
v 2.629378 -55.152119 -5.570182
v 2.629378 -55.152119 -7.377044
v 2.612401 -54.007732 -8.316916
v 2.564950 -51.414043 -8.316918
v 2.564951 -51.414043 -4.630310
v 2.620030 -54.521980 -8.141974
v 2.626218 -54.939121 -7.799393
v 2.731711 -54.939121 -5.147834
v 2.629378 -55.152119 -5.570182
v 2.626217 -54.939121 -5.147833
v 2.728551 -55.152119 -5.570182
v 2.728551 -55.152119 -7.377044
v 2.629378 -55.152119 -7.377044
v 2.626218 -54.939121 -7.799393
v 2.731711 -54.939121 -7.799393
vn -0.4651 -0.2462 -0.8504
vn -0.8221 -0.3787 -0.4252
vn -0.6066 -0.2319 -0.7604
vn -0.8483 -0.3116 -0.4281
vn -0.6172 -0.2747 -0.7373
vn -0.8540 -0.3294 -0.4027
vn -0.6382 -0.3466 -0.6874
vn -0.9263 -0.3480 -0.1442
vn -0.9215 -0.3682 -0.1232
vn -0.6643 -0.5898 -0.4592
vn -0.7626 -0.6272 -0.1584
vn -0.9358 -0.3224 -0.1427
vn -0.8644 -0.3507 -0.3602
vn -0.6681 -0.4068 -0.6230
vn -0.8960 -0.3491 -0.2745
vn -0.9560 -0.2791 -0.0899
vn -0.7203 -0.4338 -0.5413
vn -0.9154 -0.3455 -0.2067
vn -0.9503 -0.2852 -0.1247
vn -0.7807 -0.3564 -0.5133
vn -0.9776 -0.2087 -0.0283
vn -0.8328 -0.1912 -0.5195
vn -0.9780 -0.1868 -0.0933
vn -0.9872 -0.1322 -0.0894
vn -0.9909 -0.1328 -0.0216
vn -0.8518 -0.1137 -0.5113
vn -0.9919 -0.0901 -0.0899
vn -0.9957 -0.0905 -0.0217
vn -0.8535 -0.0774 -0.5153
vn -0.9936 -0.0677 -0.0901
vn -0.9975 -0.0679 -0.0217
vn -0.8549 -0.0581 -0.5156
vn -0.9955 -0.0278 -0.0902
vn -0.9994 -0.0279 -0.0218
vn -0.8573 -0.0239 -0.5143
vn -0.9959 -0.0000 -0.0903
vn -0.9998 -0.0000 -0.0218
vn -0.8557 -0.0000 -0.5175
vn -0.8220 -0.3787 -0.4252
vn -0.4650 -0.2462 -0.8504
vn -0.6642 -0.5898 -0.4593
vn -0.3686 -0.3608 -0.8567
vn -0.3356 -0.8014 -0.4950
vn -0.2011 -0.4814 -0.8531
vn -0.0000 -0.1602 -0.9871
vn -0.0000 -0.5243 -0.8516
vn 0.2011 -0.4814 -0.8531
vn 0.3686 -0.3608 -0.8567
vn 0.3357 -0.8014 -0.4950
vn 0.6643 -0.5898 -0.4593
vn 0.4650 -0.2462 -0.8504
vn 0.8220 -0.3787 -0.4252
vn -0.1718 -0.1199 -0.9778
vn -0.3572 -0.1620 -0.9199
vn -0.6065 -0.2319 -0.7605
vn -0.3683 -0.2112 -0.9054
vn -0.1829 -0.1670 -0.9688
vn -0.3714 -0.3047 -0.8770
vn -0.6382 -0.3467 -0.6874
vn -0.1749 -0.2590 -0.9499
vn -0.3727 -0.3894 -0.8423
vn -0.6680 -0.4068 -0.6231
vn -0.1602 -0.3434 -0.9254
vn -0.3777 -0.4593 -0.8040
vn -0.7202 -0.4339 -0.5414
vn -0.1432 -0.4140 -0.8989
vn -0.2871 -0.3289 -0.8997
vn -0.8328 -0.1912 -0.5196
vn -0.0690 -0.2879 -0.9552
vn -0.0930 -0.2176 -0.9716
vn -0.0413 -0.3507 -0.9356
vn -0.1096 -0.1528 -0.9822
vn -0.0179 -0.2569 -0.9663
vn -0.1089 -0.1139 -0.9875
vn -0.0018 -0.0326 -0.9995
vn -0.0000 -0.1068 -0.9943
vn -0.0000 -0.1069 -0.9943
vn 0.1089 -0.1139 -0.9875
vn 0.1718 -0.1199 -0.9778
vn 0.1829 -0.1670 -0.9688
vn 0.1096 -0.1528 -0.9822
vn 0.0930 -0.2176 -0.9716
vn 0.3572 -0.1620 -0.9199
vn 0.6065 -0.2319 -0.7605
vn 0.3683 -0.2112 -0.9054
vn 0.6172 -0.2747 -0.7373
vn 0.1749 -0.2590 -0.9499
vn 0.0690 -0.2879 -0.9552
vn 0.3714 -0.3047 -0.8770
vn 0.6382 -0.3467 -0.6874
vn 0.1602 -0.3434 -0.9254
vn 0.0413 -0.3507 -0.9356
vn 0.3727 -0.3894 -0.8423
vn 0.6680 -0.4068 -0.6231
vn 0.1432 -0.4140 -0.8989
vn 0.0179 -0.2569 -0.9663
vn 0.3777 -0.4593 -0.8040
vn 0.7202 -0.4339 -0.5414
vn 0.7807 -0.3564 -0.5133
vn 0.2871 -0.3289 -0.8997
vn 0.0018 -0.0326 -0.9995
vn 0.8328 -0.1912 -0.5196
vn 0.2998 -0.1250 -0.9458
vn -0.0000 -0.0000 -1.0000
vn 0.3104 -0.0423 -0.9497
vn 0.8518 -0.1137 -0.5114
vn 0.8535 -0.0774 -0.5153
vn 0.3066 -0.0279 -0.9514
vn 0.3071 -0.0211 -0.9514
vn 0.8549 -0.0582 -0.5156
vn 0.3100 -0.0088 -0.9507
vn 0.8572 -0.0239 -0.5144
vn 0.8557 -0.0000 -0.5175
vn 0.3052 -0.0000 -0.9523
vn -0.3052 -0.0000 -0.9523
vn -0.2998 -0.1250 -0.9458
vn -0.3104 -0.0423 -0.9497
vn -0.8518 -0.1137 -0.5114
vn -0.3066 -0.0279 -0.9514
vn -0.3100 -0.0088 -0.9507
vn -0.8572 -0.0239 -0.5144
vn -0.8549 -0.0582 -0.5156
vn -0.3071 -0.0211 -0.9514
vn -0.3356 -0.8015 -0.4949
vn -0.7625 -0.6273 -0.1584
vn -0.3740 -0.9109 -0.1743
vn -0.0000 -0.9840 -0.1782
vn -0.0000 -0.8664 -0.4993
vn -0.2011 -0.4815 -0.8531
vn -0.0000 -0.5243 -0.8515
vn 0.2011 -0.4815 -0.8531
vn 0.3356 -0.8015 -0.4950
vn 0.3740 -0.9109 -0.1743
vn 0.7625 -0.6273 -0.1584
vn 0.6643 -0.5898 -0.4592
vn -0.6793 -0.5326 -0.5049
vn -0.9980 -0.0451 -0.0442
vn -0.8863 -0.3692 -0.2796
vn -0.9985 -0.0432 -0.0331
vn -0.9986 -0.0393 -0.0358
vn -0.9990 -0.0371 -0.0268
vn -0.9992 -0.0262 -0.0316
vn -0.9207 -0.3391 -0.1933
vn -0.9992 -0.0265 -0.0316
vn -0.9993 -0.0182 -0.0313
vn -0.9995 -0.0025 -0.0312
vn -0.9993 -0.0102 -0.0359
vn -0.9178 -0.0117 -0.3968
vn -0.9676 0.0018 -0.2523
vn -0.0000 -0.8727 -0.4882
vn -0.0000 -0.8094 -0.5872
vn -0.0000 -0.7262 -0.6875
vn 0.6792 -0.5326 -0.5049
vn 0.8863 -0.3693 -0.2795
vn 0.9207 -0.3392 -0.1932
vn 0.4651 -0.2462 -0.8504
vn 0.6066 -0.2319 -0.7604
vn 0.8221 -0.3787 -0.4252
vn 0.8483 -0.3117 -0.4281
vn 0.8540 -0.3294 -0.4027
vn 0.6382 -0.3466 -0.6874
vn 0.9263 -0.3480 -0.1442
vn 0.9215 -0.3682 -0.1232
vn 0.7626 -0.6272 -0.1584
vn 0.9358 -0.3223 -0.1427
vn 0.8644 -0.3507 -0.3602
vn 0.6681 -0.4068 -0.6230
vn 0.8960 -0.3491 -0.2745
vn 0.9560 -0.2792 -0.0899
vn 0.7203 -0.4338 -0.5413
vn 0.9154 -0.3455 -0.2067
vn 0.9503 -0.2852 -0.1247
vn 0.9776 -0.2087 -0.0283
vn 0.8328 -0.1912 -0.5195
vn 0.9780 -0.1868 -0.0933
vn 0.9872 -0.1322 -0.0894
vn 0.9909 -0.1328 -0.0216
vn 0.8518 -0.1137 -0.5113
vn 0.9919 -0.0901 -0.0899
vn 0.9957 -0.0905 -0.0217
vn 0.9936 -0.0677 -0.0901
vn 0.9975 -0.0679 -0.0217
vn 0.8549 -0.0581 -0.5156
vn 0.9955 -0.0278 -0.0902
vn 0.9994 -0.0279 -0.0218
vn 0.8573 -0.0239 -0.5143
vn 0.9959 -0.0000 -0.0903
vn 0.9998 -0.0000 -0.0218
vn 0.8557 -0.0001 -0.5175
vn 0.6793 -0.5326 -0.5049
vn 0.8863 -0.3692 -0.2795
vn 0.9980 -0.0451 -0.0442
vn 0.9985 -0.0432 -0.0331
vn 0.9986 -0.0393 -0.0359
vn 0.9990 -0.0371 -0.0268
vn 0.9992 -0.0262 -0.0316
vn 0.9207 -0.3391 -0.1933
vn 0.9992 -0.0265 -0.0316
vn 0.9993 -0.0182 -0.0313
vn 0.9995 -0.0025 -0.0312
vn 0.9993 -0.0102 -0.0359
vn 0.9178 -0.0117 -0.3968
vn 0.9676 0.0018 -0.2523
vn 0.7071 -0.0000 0.7071
vn 1.0000 -0.0000 -0.0000
vn 0.7071 -0.0000 -0.7071
vn -0.0000 -0.0000 1.0000
vn -0.7071 -0.0000 0.7071
vn -1.0000 -0.0000 -0.0000
vn -0.7071 -0.0000 -0.7071
vn 0.7026 0.1125 0.7026
vn 0.7026 0.1126 0.7026
vn 0.9936 0.1125 -0.0000
vn 0.7026 0.1125 -0.7026
vn 0.7026 0.1126 -0.7026
vn -0.0000 0.1125 -0.9936
vn -0.7026 0.1125 -0.7026
vn -0.7026 0.1126 -0.7026
vn -0.9936 0.1125 -0.0000
vn -0.7026 0.1125 0.7026
vn -0.7026 0.1126 0.7026
vn -0.0000 0.1125 0.9936
vn 0.7036 -0.1004 0.7035
vn 0.7036 -0.1003 0.7035
vn 0.9950 -0.1003 -0.0000
vn 0.7036 -0.1003 -0.7035
vn 0.7035 -0.1004 -0.7036
vn 0.7035 -0.1003 -0.7036
vn -0.0000 -0.1003 -0.9950
vn -0.7035 -0.1003 -0.7036
vn -0.7035 -0.1003 -0.7035
vn -0.7036 -0.1004 -0.7035
vn -0.7036 -0.1003 -0.7035
vn -0.9950 -0.1003 -0.0000
vn -0.7036 -0.1003 0.7035
vn -0.7035 -0.1004 0.7036
vn -0.7035 -0.1003 0.7036
vn -0.0000 -0.1003 0.9950
vn 0.7035 -0.1003 0.7036
vn -0.7071 -0.0001 -0.7071
vn 0.0001 0.7742 0.6330
vn -0.0000 0.7742 0.6330
vn 0.9538 -0.0000 0.3006
vn -0.9538 -0.0000 0.3006
vn -0.0000 -0.7742 0.6330
vn -0.0000 1.0000 -0.0000
vn -0.0000 -1.0000 -0.0000
vn -0.0001 -1.0000 -0.0000
vn -0.0001 1.0000 -0.0001
vn -0.0001 -1.0000 -0.0001
vn -0.0002 -1.0000 -0.0001
vn -0.7071 -0.0001 0.7071
vn 0.7035 -0.1003 -0.7035
vn -0.7071 0.0001 0.7071
vn -0.0000 -0.1615 0.9869
vn -0.0000 -0.4849 0.8746
vn -0.0001 -0.7798 0.6260
vn -0.0000 -0.1615 -0.9869
vn -0.0000 -0.4849 -0.8746
vn -0.0000 -0.7798 -0.6260
vn -0.8659 0.4999 -0.0147
vn -0.8660 0.4999 -0.0146
vn -0.8659 -0.5000 -0.0147
vn -0.8659 -0.5000 -0.0146
vn -0.8659 0.5000 -0.0147
vn -0.0000 0.9999 -0.0147
vn 0.8660 0.4999 -0.0146
vn 0.8660 0.4999 -0.0147
vn 0.8659 -0.5000 -0.0147
vn 0.8659 -0.5000 -0.0146
vn 0.8659 0.4999 -0.0147
vn 0.8659 -0.4999 -0.0146
vn -0.0000 -0.9999 -0.0147
vn -0.8660 -0.4999 -0.0147
vn 0.9995 -0.0309 -0.0000
vn -0.9995 -0.0309 -0.0000
vn -0.9999 -0.0148 -0.0000
vn -0.9999 -0.0168 -0.0000
vn -0.9998 -0.0183 -0.0000
vn 0.9999 -0.0148 -0.0000
vn 0.9999 -0.0168 -0.0000
vn 0.9998 -0.0183 -0.0000
vn 0.0001 -0.7799 0.6259
vn -0.0000 -0.9727 0.2319
vn -0.0000 -0.9727 -0.2319
vn -0.0000 -0.7799 -0.6259
vn 0.7071 0.0001 0.7071
vn -0.7035 -0.1003 0.7035
vn 0.0001 1.0000 -0.0001
vn 0.0002 -1.0000 -0.0001
vn 0.0001 -1.0000 -0.0001
vn 0.7071 -0.0001 0.7071
vn 0.0001 -0.7798 0.6260
vn 0.8659 0.5000 -0.0147
vn -0.8660 0.4999 -0.0147
vn -0.8659 -0.4999 -0.0146
vn -0.8659 -0.4999 -0.0147
vn 0.8660 -0.4999 -0.0147
vn -0.0001 -0.7799 0.6259
vt -17.935740 0.157297
vt -17.935740 0.165418
vt -18.026638 0.155082
vt -18.026638 0.165364
vt -18.092838 0.153469
vt -18.092838 0.165325
vt -18.141506 0.147496
vt -18.026638 0.210741
vt -17.935740 0.210741
vt -17.921797 0.165418
vt -17.910265 0.210741
vt -18.117558 0.210740
vt -18.141506 0.161364
vt -18.184137 0.137684
vt -18.184137 0.154165
vt -18.208479 0.210740
vt -18.231869 0.122118
vt -18.231869 0.142348
vt -18.283459 0.125363
vt -18.284109 0.099864
vt -18.299398 0.210741
vt -18.333620 0.093351
vt -18.333620 0.120115
vt -18.390318 0.120115
vt -18.390318 0.210741
vt -18.390318 0.093351
vt -18.481237 0.120115
vt -18.481237 0.210741
vt -18.481237 0.093351
vt -18.572157 0.120115
vt -18.572157 0.210741
vt -18.572157 0.093351
vt -18.663078 0.120115
vt -18.663078 0.210741
vt -18.663078 0.093352
vt -18.753998 0.120115
vt -18.753998 0.210741
vt -18.753998 0.093351
vt 0.473818 -17.935740
vt 0.481855 -17.935740
vt 0.481502 -17.921797
vt 0.487184 -17.927515
vt 0.490012 -17.916075
vt 0.493088 -17.923546
vt 0.500051 -17.935740
vt 0.500051 -17.922152
vt 0.507014 -17.923546
vt 0.512918 -17.927515
vt 0.510089 -17.916075
vt 0.518600 -17.921797
vt 0.518247 -17.935740
vt 0.526284 -17.935740
vt 0.476294 -18.026638
vt 0.456355 -18.026638
vt 0.449757 -18.026638
vt 0.437784 -18.092838
vt 0.426382 -18.092838
vt 0.458992 -18.092838
vt 0.424111 -18.141506
vt 0.409228 -18.141506
vt 0.444098 -18.141506
vt 0.412113 -18.184137
vt 0.394230 -18.184137
vt 0.428917 -18.184137
vt 0.398660 -18.231869
vt 0.377469 -18.231869
vt 0.359158 -18.284109
vt 0.409791 -18.231869
vt 0.383877 -18.284239
vt 0.348123 -18.333620
vt 0.493879 -18.184137
vt 0.494803 -18.141504
vt 0.493352 -18.231869
vt 0.496429 -18.092838
vt 0.493344 -18.283184
vt 0.496691 -18.086452
vt 0.495882 -18.333811
vt 0.500051 -18.026638
vt 0.500051 -18.084005
vt 0.503412 -18.086452
vt 0.523809 -18.026638
vt 0.541111 -18.092838
vt 0.503674 -18.092838
vt 0.505301 -18.141504
vt 0.543748 -18.026638
vt 0.550345 -18.026638
vt 0.562319 -18.092838
vt 0.573721 -18.092838
vt 0.556005 -18.141504
vt 0.506225 -18.184137
vt 0.575992 -18.141504
vt 0.590875 -18.141504
vt 0.571187 -18.184137
vt 0.506752 -18.231869
vt 0.587990 -18.184137
vt 0.605873 -18.184137
vt 0.590313 -18.231869
vt 0.506760 -18.283184
vt 0.601444 -18.231869
vt 0.622635 -18.231869
vt 0.640946 -18.284109
vt 0.616227 -18.284239
vt 0.504223 -18.333811
vt 0.651982 -18.333620
vt 0.626183 -18.333620
vt 0.500052 -18.390318
vt 0.635586 -18.390318
vt 0.500052 -18.333858
vt 0.661386 -18.390318
vt 0.505907 -18.231869
vt 0.670548 -18.481237
vt 0.644708 -18.481237
vt 0.500052 -18.231869
vt 0.504876 -18.184137
vt 0.651964 -18.572157
vt 0.677804 -18.572157
vt 0.500052 -18.184137
vt 0.503412 -18.136259
vt 0.500052 -18.133812
vt 0.496691 -18.136259
vt 0.495227 -18.184137
vt 0.494197 -18.231869
vt 0.657023 -18.663078
vt 0.500053 -18.663076
vt 0.682863 -18.663078
vt 0.682863 -18.753998
vt 0.657023 -18.753998
vt 0.500054 -18.753998
vt 0.343084 -18.753998
vt 0.373922 -18.333620
vt 0.364519 -18.390318
vt 0.338718 -18.390318
vt 0.329558 -18.481237
vt 0.355397 -18.481237
vt 0.343084 -18.663078
vt 0.317244 -18.753998
vt 0.317244 -18.663078
vt 0.322302 -18.572157
vt 0.348142 -18.572157
vt 0.500053 -18.572157
vt 0.500053 -18.481237
vt 0.481502 0.165418
vt 0.490012 0.165418
vt 0.476123 0.210741
vt 0.487102 0.210741
vt 0.500051 0.210741
vt 0.500051 0.165419
vt 0.493088 0.157297
vt 0.500051 0.157297
vt 0.507014 0.157297
vt 0.510089 0.165418
vt 0.513000 0.210741
vt 0.523978 0.210741
vt 0.518600 0.165418
vt -18.086452 0.137944
vt -18.092838 0.137141
vt -18.120710 0.102544
vt -18.124088 0.106793
vt -18.141504 0.128546
vt -18.138353 0.081365
vt -18.184137 0.081365
vt -18.136259 0.074851
vt -18.184137 0.117628
vt -18.184137 0.074851
vt -18.231869 0.101975
vt -18.231869 0.074851
vt -18.231869 0.081365
vt -18.283184 0.081363
vt -18.333811 0.074851
vt 0.496691 0.074851
vt 0.500052 0.074851
vt 0.496691 0.102544
vt 0.500051 0.100781
vt 0.496691 0.137944
vt 0.500051 0.137824
vt 0.503412 0.137944
vt 0.503412 0.102544
vt 0.503412 0.074851
vt 18.935740 0.157297
vt 19.026638 0.155082
vt 18.935740 0.165418
vt 19.026638 0.165364
vt 19.092838 0.153469
vt 19.092838 0.165325
vt 19.141504 0.147496
vt 19.026638 0.210740
vt 18.935740 0.210741
vt 18.921797 0.165418
vt 18.910265 0.210741
vt 19.117558 0.210740
vt 19.141504 0.161364
vt 19.184137 0.137684
vt 19.184137 0.154165
vt 19.208479 0.210740
vt 19.231869 0.122118
vt 19.231869 0.142348
vt 19.283459 0.125363
vt 19.284109 0.099864
vt 19.299398 0.210740
vt 19.333620 0.093351
vt 19.333620 0.120115
vt 19.390318 0.120115
vt 19.390318 0.210740
vt 19.390318 0.093351
vt 19.481237 0.120115
vt 19.481237 0.210741
vt 19.481237 0.093351
vt 19.572157 0.120115
vt 19.572157 0.210741
vt 19.572157 0.093351
vt 19.663078 0.120115
vt 19.663076 0.210741
vt 19.663078 0.093351
vt 19.753998 0.120115
vt 19.753998 0.210741
vt 19.753998 0.093351
vt 19.086452 0.137944
vt 19.120710 0.102544
vt 19.092838 0.137141
vt 19.124088 0.106793
vt 19.141504 0.128546
vt 19.138353 0.081365
vt 19.184137 0.081365
vt 19.136259 0.074851
vt 19.184137 0.117628
vt 19.184137 0.074851
vt 19.231869 0.101975
vt 19.231869 0.074851
vt 19.231869 0.081365
vt 19.283184 0.081363
vt 19.333811 0.074851
vt 19.064577 0.106834
vt 19.064577 0.103165
vt 19.083160 0.106834
vt 19.083160 0.103165
vt 19.064577 0.099497
vt 19.083160 0.099497
vt 0.536631 -18.083160
vt 0.540291 -18.083160
vt 0.536631 -18.064577
vt 0.540291 -18.064577
vt 0.543951 -18.083160
vt 0.543952 -18.064577
vt -18.083160 0.106834
vt -18.083160 0.103165
vt -18.064577 0.106834
vt -18.064577 0.103165
vt -18.083160 0.099497
vt -18.064577 0.099497
vt 0.456049 -18.083160
vt 0.459709 -18.083160
vt 0.456048 -18.064577
vt 0.459709 -18.064577
vt 0.463369 -18.083160
vt 0.463369 -18.064577
vt 19.100746 0.105431
vt 19.100746 0.103165
vt 19.100746 0.100899
vt 0.461969 -18.100746
vt 0.459709 -18.100746
vt 0.457448 -18.100746
vt -18.100746 0.100899
vt -18.100746 0.103165
vt -18.100746 0.105431
vt 0.542552 -18.100746
vt 0.540291 -18.100746
vt 0.538031 -18.100746
vt 19.165537 0.106878
vt 19.145170 0.105431
vt 19.165537 0.103165
vt 19.145170 0.103165
vt 19.165537 0.099453
vt 19.145170 0.100899
vt 0.463413 -18.165537
vt 0.461969 -18.145170
vt 0.459709 -18.165537
vt 0.459709 -18.145170
vt 0.456005 -18.165537
vt 0.457448 -18.145170
vt -18.165537 0.099453
vt -18.145170 0.100899
vt -18.165537 0.103165
vt -18.145170 0.103165
vt -18.165537 0.106878
vt -18.145170 0.105431
vt 0.543995 -18.165537
vt 0.542552 -18.145170
vt 0.540291 -18.165537
vt 0.540291 -18.145170
vt 0.536587 -18.165537
vt 0.538031 -18.145170
vt 19.293718 0.106878
vt 19.293718 0.103165
vt 19.293718 0.099453
vt 0.463413 -18.293718
vt 0.459709 -18.293718
vt 0.456005 -18.293718
vt -18.293718 0.099453
vt -18.293718 0.103165
vt -18.293718 0.106878
vt 0.543995 -18.293718
vt 0.540291 -18.293718
vt 0.536587 -18.293718
vt 0.540983 0.111385
vt 0.539600 0.111385
vt 0.542414 0.106834
vt 0.538169 0.106834
vt 19.077982 0.111385
vt 19.068054 0.111385
vt 19.081717 0.106834
vt 19.064320 0.106834
vt -18.068054 0.111385
vt -18.077982 0.111385
vt -18.064320 0.106834
vt -18.081717 0.106834
vt 0.460400 0.111385
vt 0.459017 0.111385
vt 0.461831 0.106834
vt 0.457586 0.106834
vt 0.539600 0.152242
vt 0.540983 0.152242
vt 19.068054 0.152242
vt 19.077982 0.152242
vt -18.077982 0.152242
vt -18.068054 0.152242
vt 0.459017 0.152242
vt 0.460400 0.152242
vt 0.495577 0.149571
vt 0.493994 0.147984
vt 0.538495 0.106553
vt 0.536912 0.104966
vt 0.506006 -18.074856
vt 0.506006 -18.071182
vt 0.463088 -18.074848
vt 0.463088 -18.071188
vt 0.495578 -18.071182
vt 0.495577 -18.074856
vt 0.538495 -18.071188
vt 0.538495 -18.074848
vt 0.506006 0.147984
vt 0.504422 0.149571
vt 0.463088 0.104966
vt 0.461505 0.106553
vt 19.110329 0.115283
vt 19.110329 0.111615
vt 19.128912 0.115283
vt 19.128912 0.111615
vt 19.110329 0.107946
vt 19.128912 0.107946
vt 0.581428 -18.128912
vt 0.585088 -18.128912
vt 0.581428 -18.110329
vt 0.585088 -18.110329
vt 0.588748 -18.128912
vt 0.588748 -18.110329
vt -18.128912 0.115283
vt -18.128912 0.111615
vt -18.110329 0.115283
vt -18.110329 0.111615
vt -18.128912 0.107946
vt -18.110329 0.107946
vt 0.411252 -18.128912
vt 0.414912 -18.128912
vt 0.411252 -18.110329
vt 0.414912 -18.110329
vt 0.418572 -18.128912
vt 0.418572 -18.110329
vt 19.146498 0.113880
vt 19.146498 0.111615
vt 19.146498 0.109349
vt 0.417172 -18.146498
vt 0.414912 -18.146498
vt 0.412652 -18.146498
vt -18.146498 0.109349
vt -18.146498 0.111615
vt -18.146498 0.113880
vt 0.587348 -18.146498
vt 0.585088 -18.146498
vt 0.582828 -18.146498
vt 19.211287 0.115327
vt 19.190922 0.113880
vt 19.211287 0.111615
vt 19.190922 0.111615
vt 19.211287 0.107902
vt 19.190922 0.109349
vt 0.418616 -18.211287
vt 0.417173 -18.190922
vt 0.414912 -18.211287
vt 0.414912 -18.190922
vt 0.411208 -18.211287
vt 0.412652 -18.190922
vt -18.211287 0.107902
vt -18.190922 0.109349
vt -18.211287 0.111615
vt -18.190922 0.111615
vt -18.211287 0.115327
vt -18.190922 0.113880
vt 0.588792 -18.211287
vt 0.587348 -18.190922
vt 0.585088 -18.211287
vt 0.585088 -18.190922
vt 0.581384 -18.211287
vt 0.582827 -18.190922
vt 19.339468 0.115327
vt 19.339468 0.111615
vt 19.339468 0.107902
vt 0.418616 -18.339468
vt 0.414913 -18.339468
vt 0.411209 -18.339468
vt -18.339468 0.107902
vt -18.339468 0.111615
vt -18.339468 0.115327
vt 0.588791 -18.339468
vt 0.585087 -18.339468
vt 0.581384 -18.339468
vt 0.585780 0.119835
vt 0.584396 0.119835
vt 0.587210 0.115283
vt 0.582966 0.115283
vt 19.123732 0.119835
vt 19.113806 0.119835
vt 19.127468 0.115283
vt 19.110069 0.115283
vt -18.113806 0.119835
vt -18.123732 0.119835
vt -18.110069 0.115283
vt -18.127468 0.115283
vt 0.415604 0.119835
vt 0.414220 0.119835
vt 0.417034 0.115283
vt 0.412789 0.115283
vt 0.584396 0.160692
vt 0.585780 0.160692
vt 19.113806 0.160692
vt 19.123732 0.160692
vt -18.123732 0.160692
vt -18.113806 0.160692
vt 0.414220 0.160692
vt 0.415603 0.160692
vt 0.540374 0.158020
vt 0.538791 0.156433
vt 0.583292 0.115002
vt 0.581708 0.113415
vt 0.461209 -18.120605
vt 0.461209 -18.116932
vt 0.418292 -18.120598
vt 0.418292 -18.116940
vt 0.540374 -18.116932
vt 0.540374 -18.120605
vt 0.583292 -18.116940
vt 0.583292 -18.120598
vt 0.461209 0.156433
vt 0.459626 0.158020
vt 0.418292 0.113415
vt 0.416708 0.115002
vt 0.542009 0.090005
vt 0.542009 0.145653
vt 0.538575 0.090005
vt 0.538575 0.145653
vt 0.538575 -18.050669
vt 0.542009 -18.050669
vt 0.539289 -18.011366
vt 0.541294 -18.011366
vt 0.539404 -18.003574
vt 0.541179 -18.003574
vt 0.539497 -17.997253
vt 0.541086 -17.997253
vt 0.457991 -18.050669
vt 0.461425 -18.050669
vt 0.458706 -18.011366
vt 0.460711 -18.011366
vt 0.458821 -18.003574
vt 0.460596 -18.003574
vt 0.458914 -17.997253
vt 0.460502 -17.997253
vt -18.042879 0.164749
vt -18.042336 0.091029
vt -18.038216 0.164749
vt -18.038757 0.091029
vt 0.543371 0.091029
vt 0.544305 0.164749
vt 0.540292 0.091029
vt 0.540292 0.164749
vt 0.537212 0.091029
vt 0.536278 0.164749
vt 19.038216 0.164749
vt 19.038757 0.091029
vt 19.042879 0.164749
vt 19.042336 0.091029
vt 0.462788 0.091029
vt 0.463722 0.164749
vt 0.459708 0.091029
vt 0.459708 0.164749
vt 0.456629 0.091029
vt 0.455695 0.164749
vt 0.536278 -18.042879
vt 0.540292 -18.045212
vt 0.536278 -18.038216
vt 0.544305 -18.038216
vt 0.540292 -18.035883
vt 0.544305 -18.042879
vt 0.459708 -18.044127
vt 0.462788 -18.042336
vt 0.456629 -18.042336
vt 0.459708 -18.036970
vt 0.456629 -18.038757
vt 0.462788 -18.038757
vt 19.044117 0.136188
vt 19.001766 0.136188
vt 19.044117 0.132444
vt 19.001766 0.132444
vt -18.001766 0.132444
vt -18.001766 0.136188
vt -18.044117 0.132444
vt -18.044117 0.136188
vt 0.461499 -18.001766
vt 0.457917 -18.001766
vt 0.462802 -18.044117
vt 0.456615 -18.044117
vt 0.461499 0.136188
vt 0.457917 0.136188
vt 0.461499 0.132444
vt 0.457917 0.132444
vt 0.537198 -18.044117
vt 0.543385 -18.044117
vt 0.538501 -18.001766
vt 0.542083 -18.001766
vt 19.044117 0.119701
vt 19.001766 0.119701
vt 19.044117 0.115957
vt 19.001766 0.115957
vt -18.001766 0.115957
vt -18.001766 0.119701
vt -18.044117 0.115957
vt -18.044117 0.119701
vt 0.461499 0.119701
vt 0.457917 0.119701
vt 0.461499 0.115957
vt 0.457917 0.115957
vt 19.044117 0.103214
vt 19.001766 0.103214
vt 19.044117 0.099470
vt 19.001766 0.099470
vt -18.001766 0.099470
vt -18.001766 0.103214
vt -18.044117 0.099470
vt -18.044117 0.103214
vt 0.461499 0.103214
vt 0.457917 0.103214
vt 0.461499 0.099470
vt 0.457917 0.099470
vt -17.997253 0.137841
vt -18.003574 0.143012
vt -17.994024 0.131466
vt -18.011366 0.145653
vt -18.011366 0.090005
vt -17.994024 0.104192
vt -17.997253 0.097817
vt -18.003574 0.092646
vt -18.050669 0.090005
vt -18.050669 0.145653
vt 19.003574 0.143012
vt 18.997253 0.137841
vt 19.011366 0.145653
vt 18.994024 0.131466
vt 18.994024 0.104192
vt 19.011366 0.090005
vt 19.003574 0.092646
vt 18.997253 0.097817
vt 19.050669 0.090005
vt 19.050669 0.145653
vt 0.460503 0.137841
vt 0.458914 0.137841
vt 0.460455 0.131466
vt 0.458961 0.131466
vt 0.458961 0.104192
vt 0.460455 0.104192
vt 0.460502 0.097817
vt 0.458914 0.097817
vt -18.064577 0.099497
vt 0.463266 -18.083160
vt 0.463266 -18.064577
vt 0.459605 -18.083160
vt 0.459605 -18.064577
vt 0.455945 -18.083160
vt 0.455945 -18.064577
vt 19.064577 0.106834
vt 19.064577 0.099497
vt 0.544055 -18.083160
vt 0.544055 -18.064577
vt 0.540395 -18.083160
vt 0.540395 -18.064577
vt 0.536734 -18.083160
vt 0.536734 -18.064577
vt 0.538134 -18.100746
vt 0.540395 -18.100746
vt 0.542655 -18.100746
vt 19.100746 0.103165
vt 0.457345 -18.100746
vt 0.459605 -18.100746
vt 0.461866 -18.100746
vt -18.165537 0.103165
vt -18.145170 0.100899
vt 0.536691 -18.165537
vt 0.540395 -18.165537
vt 0.538134 -18.145170
vt 0.540395 -18.145170
vt 0.544099 -18.165537
vt 0.542655 -18.145170
vt 19.165537 0.103165
vt 19.165537 0.106878
vt 19.145170 0.105431
vt 0.455901 -18.165537
vt 0.459605 -18.165537
vt 0.457345 -18.145170
vt 0.459605 -18.145170
vt 0.463309 -18.165537
vt 0.461866 -18.145170
vt -18.293718 0.103165
vt 0.536691 -18.293718
vt 0.540395 -18.293718
vt 0.544099 -18.293718
vt 19.293718 0.103165
vt 0.455901 -18.293718
vt 0.459605 -18.293718
vt 0.463309 -18.293718
vt 0.461728 0.106834
vt 0.460297 0.111385
vt 0.457483 0.106834
vt 0.458914 0.111385
vt 19.081717 0.106834
vt 0.542517 0.106834
vt 0.541086 0.111385
vt 0.538272 0.106834
vt 0.539703 0.111385
vt 0.458914 0.152242
vt 0.460297 0.152242
vt 0.539703 0.152242
vt 0.541086 0.152242
vt 0.462985 0.104966
vt 0.505902 0.147984
vt 0.461402 0.106553
vt 0.504319 0.149571
vt 0.537015 -18.071188
vt 0.494097 -18.071182
vt 0.537015 -18.074848
vt 0.494098 -18.074856
vt 0.461402 -18.074848
vt 0.504319 -18.074856
vt 0.461402 -18.071188
vt 0.504319 -18.071182
vt 0.538598 0.106553
vt 0.495681 0.149571
vt 0.537015 0.104966
vt 0.494097 0.147984
vt -18.110329 0.107946
vt 0.418469 -18.128912
vt 0.418469 -18.110329
vt 0.414808 -18.128912
vt 0.414809 -18.110329
vt 0.411148 -18.128912
vt 0.411148 -18.110329
vt 19.128912 0.115283
vt 19.110329 0.111615
vt 19.110329 0.107946
vt 0.588852 -18.128912
vt 0.588852 -18.110329
vt 0.585192 -18.128912
vt 0.585191 -18.110329
vt 0.581531 -18.128912
vt 0.581531 -18.110329
vt -18.146498 0.109349
vt 0.582931 -18.146498
vt 0.585192 -18.146498
vt 0.587452 -18.146498
vt 0.412548 -18.146498
vt 0.414808 -18.146498
vt 0.417069 -18.146498
vt -18.211287 0.111615
vt -18.190920 0.113880
vt -18.190920 0.111615
vt -18.190920 0.109349
vt 0.581488 -18.211287
vt 0.585192 -18.211287
vt 0.582931 -18.190920
vt 0.585192 -18.190920
vt 0.588896 -18.211287
vt 0.587452 -18.190920
vt 19.211287 0.107902
vt 19.211287 0.111615
vt 19.190920 0.109349
vt 19.190920 0.111615
vt 19.211287 0.115327
vt 19.190920 0.113880
vt 0.411104 -18.211287
vt 0.414808 -18.211287
vt 0.412548 -18.190920
vt 0.414808 -18.190920
vt 0.418512 -18.211287
vt 0.417069 -18.190920
vt 0.581488 -18.339468
vt 0.585192 -18.339468
vt 0.588896 -18.339468
vt 19.339468 0.111615
vt 0.411104 -18.339468
vt 0.414808 -18.339468
vt 0.418512 -18.339468
vt 0.416931 0.115283
vt 0.415500 0.119835
vt 0.412686 0.115283
vt 0.414117 0.119835
vt -18.113806 0.119835
vt 19.127468 0.115283
vt 19.110069 0.115283
vt 19.113806 0.119835
vt 0.587314 0.115283
vt 0.585883 0.119835
vt 0.583069 0.115283
vt 0.584500 0.119835
vt 0.414117 0.160692
vt 0.415500 0.160692
vt 0.584500 0.160692
vt 0.585883 0.160692
vt 0.418188 0.113415
vt 0.461105 0.156433
vt 0.416605 0.115002
vt 0.459522 0.158020
vt 0.581812 -18.116940
vt 0.538894 -18.116932
vt 0.581812 -18.120598
vt 0.538895 -18.120605
vt 0.416605 -18.120598
vt 0.459522 -18.120605
vt 0.416605 -18.116940
vt 0.459522 -18.116932
vt 0.583395 0.115002
vt 0.540478 0.158020
vt 0.581812 0.113415
vt 0.538894 0.156433
vt 0.461322 0.145653
vt 0.457888 0.145653
vt 0.461322 0.090005
vt 0.457888 0.090005
vt 0.461322 -18.050669
vt 0.460608 -18.011366
vt 0.457888 -18.050669
vt 0.458603 -18.011366
vt 0.460493 -18.003574
vt 0.458718 -18.003574
vt 0.460400 -17.997253
vt 0.458811 -17.997253
vt 0.542112 -18.050669
vt 0.541397 -18.011366
vt 0.538678 -18.050669
vt 0.539392 -18.011366
vt 0.541282 -18.003574
vt 0.539507 -18.003574
vt 0.541189 -17.997253
vt 0.539600 -17.997253
vt 19.038757 0.091029
vt 19.042336 0.091029
vt 19.038216 0.164749
vt 19.042879 0.164749
vt 0.456526 0.091029
vt 0.459605 0.091029
vt 0.455592 0.164749
vt 0.459605 0.164749
vt 0.462685 0.091029
vt 0.463619 0.164749
vt -18.042336 0.091029
vt -18.038757 0.091029
vt -18.042879 0.164749
vt -18.038216 0.164749
vt 0.537315 0.091029
vt 0.540395 0.091029
vt 0.536381 0.164749
vt 0.540395 0.164749
vt 0.543474 0.091029
vt 0.544408 0.164749
vt 0.455592 -18.042879
vt 0.459605 -18.045210
vt 0.455592 -18.038216
vt 0.463619 -18.038216
vt 0.459605 -18.035883
vt 0.463619 -18.042879
vt 0.537315 -18.038757
vt 0.537315 -18.042336
vt 0.540395 -18.036970
vt 0.543474 -18.042336
vt 0.543474 -18.038757
vt 0.540395 -18.044127
vt -18.001766 0.132444
vt -18.044117 0.136188
vt 19.044117 0.136188
vt 0.543488 -18.044117
vt 0.542186 -18.001766
vt 0.537301 -18.044117
vt 0.538604 -18.001766
vt 0.542186 0.132444
vt 0.542186 0.136188
vt 0.538604 0.132444
vt 0.538604 0.136188
vt 0.457814 -18.001766
vt 0.456512 -18.044117
vt 0.461396 -18.001766
vt 0.462699 -18.044117
vt -18.001766 0.119701
vt -18.044117 0.119701
vt 0.542186 0.115957
vt 0.542186 0.119701
vt 0.538604 0.115957
vt 0.538604 0.119701
vt -18.001766 0.103214
vt 0.542186 0.099470
vt 0.542186 0.103214
vt 0.538604 0.099470
vt 0.538604 0.103214
vt 0.461396 -18.001766
vt 18.997253 0.137841
vt 19.011366 0.090005
vt 19.050669 0.145653
vt -18.011366 0.090005
vt -18.050669 0.145653
vt 0.539600 0.137841
vt 0.539648 0.131466
vt 0.541189 0.137841
vt 0.541141 0.131466
vt 0.541141 0.104192
vt 0.539648 0.104192
vt 0.539600 0.097817
vt 0.541189 0.097817
s 1
g Bsh_Hull_Stern_Dredn_AD1_002_0_hull_bottom
usemtl hull_bottom
f 3/1/1 2/2/2 1/3/3
f 4/4/4 1/3/3 2/2/2
f 1/3/3 4/4/4 5/5/5
f 6/6/6 5/5/5 4/4/4
f 5/5/5 6/6/6 7/7/7
f 4/4/4 2/2/2 8/8/8
f 4/4/4 8/8/8 6/6/6
f 9/9/9 8/8/8 2/2/2
f 2/2/2 10/10/10 9/9/9
f 11/11/11 9/9/9 10/10/10
f 12/12/12 6/6/6 8/8/8
f 13/13/13 7/7/7 6/6/6
f 6/6/6 12/12/12 13/13/13
f 7/7/7 13/13/13 14/14/14
f 13/13/13 12/12/12 15/15/15
f 15/15/15 14/14/14 13/13/13
f 16/16/16 15/15/15 12/12/12
f 14/14/14 15/15/15 17/17/17
f 15/15/15 16/16/16 18/18/18
f 18/18/18 17/17/17 15/15/15
f 18/18/18 16/16/16 19/19/19
f 18/18/18 19/19/19 17/17/17
f 20/20/20 17/17/17 19/19/19
f 21/21/21 19/19/19 16/16/16
f 20/20/20 19/19/19 22/22/22
f 19/19/19 21/21/21 23/23/23
f 23/23/23 22/22/22 19/19/19
f 23/23/23 21/21/21 24/24/24
f 23/23/23 24/24/24 22/22/22
f 25/25/25 24/24/24 21/21/21
f 26/26/26 22/22/22 24/24/24
f 24/24/24 25/25/25 27/27/27
f 24/24/24 27/27/27 26/26/26
f 28/28/28 27/27/27 25/25/25
f 29/29/29 26/26/26 27/27/27
f 27/27/27 28/28/28 30/30/30
f 27/27/27 30/30/30 29/29/29
f 31/31/31 30/30/30 28/28/28
f 32/32/32 29/29/29 30/30/30
f 30/30/30 31/31/31 33/33/33
f 30/30/30 33/33/33 32/32/32
f 34/34/34 33/33/33 31/31/31
f 35/35/35 32/32/32 33/33/33
f 33/33/33 34/34/34 36/36/36
f 33/33/33 36/36/36 35/35/35
f 37/37/37 36/36/36 34/34/34
f 38/38/38 35/35/35 36/36/36
f 41/39/39 40/40/40 39/41/41
f 42/42/42 39/41/41 40/40/40
f 39/41/41 42/42/42 43/43/43
f 44/44/44 43/43/43 42/42/42
f 45/45/45 44/44/44 42/42/42
f 45/45/45 42/42/42 40/40/40
f 45/45/45 46/46/46 44/44/44
f 46/46/46 45/45/45 47/47/47
f 47/47/47 45/45/45 48/48/48
f 47/47/47 48/48/48 49/49/49
f 50/50/50 49/49/49 48/48/48
f 48/48/48 51/51/51 50/50/50
f 48/48/48 45/45/45 51/51/51
f 52/52/52 50/50/50 51/51/51
f 45/45/45 40/40/40 53/53/53
f 54/54/54 53/53/53 40/40/40
f 40/40/40 55/55/55 54/54/54
f 54/54/54 55/55/55 56/56/56
f 57/57/5 56/56/56 55/55/55
f 53/53/53 54/54/54 58/58/57
f 56/56/56 58/58/57 54/54/54
f 56/56/56 57/57/5 59/59/58
f 60/60/59 59/59/58 57/57/5
f 58/58/57 56/56/56 61/61/60
f 59/59/58 61/61/60 56/56/56
f 59/59/58 60/60/59 62/62/61
f 63/63/62 62/62/61 60/60/59
f 61/61/60 59/59/58 64/64/63
f 62/62/61 64/64/63 59/59/58
f 62/62/61 63/63/62 65/65/64
f 66/66/65 65/65/64 63/63/62
f 66/66/65 67/67/20 65/65/64
f 65/65/64 68/68/66 62/62/61
f 64/64/63 62/62/61 68/68/66
f 69/69/67 65/65/64 67/67/20
f 69/69/67 68/68/66 65/65/64
f 67/67/20 70/70/68 69/69/67
f 64/64/63 71/71/69 61/61/60
f 72/72/70 61/61/60 71/71/69
f 61/61/60 72/72/70 58/58/57
f 71/71/69 64/64/63 73/73/71
f 68/68/66 73/73/71 64/64/63
f 74/74/72 58/58/57 72/72/70
f 73/73/71 68/68/66 75/75/73
f 69/69/67 75/75/73 68/68/66
f 74/74/72 76/76/74 58/58/57
f 58/58/57 76/76/74 53/53/53
f 75/75/73 69/69/67 77/77/75
f 78/78/76 53/53/53 76/76/74
f 78/78/76 76/76/74 79/79/77
f 53/53/53 78/78/76 45/45/45
f 80/80/78 78/78/76 79/79/77
f 78/78/76 81/81/79 45/45/45
f 78/78/76 80/80/78 81/81/79
f 45/45/45 81/81/79 51/51/51
f 82/82/80 81/81/79 80/80/78
f 80/80/78 83/83/81 82/82/80
f 83/83/81 84/84/82 82/82/80
f 85/85/83 51/51/51 81/81/79
f 81/81/79 82/82/80 85/85/83
f 51/51/51 85/85/83 86/86/84
f 85/85/83 87/87/85 86/86/84
f 87/87/85 85/85/83 82/82/80
f 88/88/86 86/86/84 87/87/85
f 89/89/87 82/82/80 84/84/82
f 82/82/80 89/89/87 87/87/85
f 84/84/82 90/90/88 89/89/87
f 87/87/85 91/91/89 88/88/86
f 91/91/89 87/87/85 89/89/87
f 92/92/90 88/88/86 91/91/89
f 93/93/91 89/89/87 90/90/88
f 89/89/87 93/93/91 91/91/89
f 90/90/88 94/94/92 93/93/91
f 91/91/89 95/95/93 92/92/90
f 95/95/93 91/91/89 93/93/91
f 96/96/94 92/92/90 95/95/93
f 97/97/95 93/93/91 94/94/92
f 93/93/91 97/97/95 95/95/93
f 94/94/92 98/98/96 97/97/95
f 95/95/93 99/99/97 96/96/94
f 99/99/97 95/95/93 97/97/95
f 100/100/98 96/96/94 99/99/97
f 100/100/98 99/99/97 101/101/99
f 102/102/100 97/97/95 98/98/96
f 97/97/95 102/102/100 99/99/97
f 102/102/100 101/101/99 99/99/97
f 98/98/96 103/103/101 102/102/100
f 101/101/99 102/102/100 104/104/102
f 105/105/103 104/104/102 102/102/100
f 105/105/103 102/102/100 103/103/101
f 103/103/101 106/106/104 105/105/103
f 107/107/105 105/105/103 106/106/104
f 105/105/103 107/107/105 104/104/102
f 103/103/101 108/108/104 106/106/104
f 109/109/106 104/104/102 107/107/105
f 103/103/101 110/110/104 108/108/104
f 109/109/106 107/107/105 111/111/107
f 112/112/108 111/111/107 107/107/105
f 107/107/105 106/106/104 112/112/108
f 113/113/104 108/108/104 110/110/104
f 110/110/104 114/114/104 113/113/104
f 112/112/108 115/115/109 111/111/107
f 116/116/110 111/111/107 115/115/109
f 117/117/104 113/113/104 114/114/104
f 114/114/104 118/118/104 117/117/104
f 119/119/104 117/117/104 118/118/104
f 119/119/104 120/120/104 117/117/104
f 121/121/104 117/117/104 120/120/104
f 117/117/104 121/121/104 113/113/104
f 122/122/104 113/113/104 121/121/104
f 113/113/104 122/122/104 108/108/104
f 77/77/75 108/108/104 122/122/104
f 108/108/104 77/77/75 106/106/104
f 115/115/109 123/123/111 116/116/110
f 123/123/111 115/115/109 124/124/104
f 125/125/112 116/116/110 123/123/111
f 125/125/112 123/123/111 126/126/113
f 127/127/114 126/126/113 123/123/111
f 123/123/111 124/124/104 127/127/114
f 128/128/104 127/127/114 124/124/104
f 128/128/104 124/124/104 129/129/115
f 77/77/75 130/130/116 106/106/104
f 130/130/116 77/77/75 69/69/67
f 130/130/116 69/69/67 70/70/68
f 130/130/116 70/70/68 131/131/117
f 131/131/117 106/106/104 130/130/116
f 132/132/118 131/131/117 70/70/68
f 132/132/118 133/133/29 131/131/117
f 131/131/117 134/134/119 106/106/104
f 134/134/119 131/131/117 133/133/29
f 135/135/120 129/129/115 124/124/104
f 129/129/115 135/135/120 136/136/38
f 137/137/121 136/136/38 135/135/120
f 137/137/121 135/135/120 138/138/122
f 138/138/122 139/139/123 133/133/29
f 139/139/123 138/138/122 135/135/120
f 135/135/120 124/124/104 139/139/123
f 134/134/119 133/133/29 139/139/123
f 140/140/104 139/139/123 124/124/104
f 139/139/123 140/140/104 134/134/119
f 140/140/104 124/124/104 115/115/109
f 115/115/109 112/112/108 140/140/104
f 141/141/104 106/106/104 134/134/119
f 141/141/104 134/134/119 140/140/104
f 141/141/104 140/140/104 112/112/108
f 141/141/104 112/112/108 106/106/104
f 144/142/10 143/143/124 142/144/125
f 145/145/126 142/144/125 143/143/124
f 145/145/126 143/143/124 146/146/127
f 147/147/128 146/146/127 143/143/124
f 143/143/124 148/148/129 147/147/128
f 149/149/130 147/147/128 148/148/129
f 149/149/130 150/150/131 147/147/128
f 151/151/132 147/147/128 150/150/131
f 147/147/128 151/151/132 146/146/127
f 152/152/133 146/146/127 151/151/132
f 152/152/133 151/151/132 153/153/134
f 154/154/135 153/153/134 151/151/132
f 157/155/136 156/156/137 155/157/138
f 158/158/139 155/157/138 156/156/137
f 158/158/139 156/156/137 159/159/140
f 158/158/139 160/160/141 155/157/138
f 160/160/141 158/158/139 159/159/140
f 160/160/141 159/159/140 161/161/142
f 162/162/143 155/157/138 160/160/141
f 160/160/141 161/161/142 162/162/143
f 163/163/144 161/161/142 159/159/140
f 164/164/142 162/162/143 161/161/142
f 163/163/144 165/165/145 161/161/142
f 164/164/142 161/161/142 166/166/146
f 167/167/147 161/161/142 165/165/145
f 167/167/147 166/166/146 161/161/142
f 168/168/148 167/167/147 165/165/145
f 166/166/146 167/167/147 169/169/149
f 168/168/148 169/169/149 167/167/147
f 172/170/143 171/171/150 170/172/138
f 173/173/151 170/172/138 171/171/150
f 170/172/138 173/173/151 174/174/136
f 175/175/152 174/174/136 173/173/151
f 175/175/152 173/173/151 176/176/153
f 177/177/154 176/176/153 173/173/151
f 173/173/151 171/171/150 177/177/154
f 178/178/155 177/177/154 171/171/150
f 181/179/156 180/180/157 179/181/158
f 182/182/159 179/181/158 180/180/157
f 180/180/157 183/183/86 182/182/159
f 184/184/160 182/182/159 183/183/86
f 183/183/86 185/185/161 184/184/160
f 182/182/159 186/186/162 179/181/158
f 182/182/159 184/184/160 186/186/162
f 187/187/163 179/181/158 186/186/162
f 179/181/158 187/187/163 188/188/135
f 189/189/164 188/188/135 187/187/163
f 190/190/165 186/186/162 184/184/160
f 191/191/166 184/184/160 185/185/161
f 190/190/165 184/184/160 191/191/166
f 185/185/161 192/192/167 191/191/166
f 191/191/166 193/193/168 190/190/165
f 193/193/168 191/191/166 192/192/167
f 194/194/169 190/190/165 193/193/168
f 192/192/167 195/195/170 193/193/168
f 194/194/169 193/193/168 196/196/171
f 196/196/171 193/193/168 195/195/170
f 196/196/171 197/197/172 194/194/169
f 196/196/171 195/195/170 197/197/172
f 198/198/99 197/197/172 195/195/170
f 199/199/173 194/194/169 197/197/172
f 198/198/99 200/200/174 197/197/172
f 199/199/173 197/197/172 201/201/175
f 201/201/175 197/197/172 200/200/174
f 201/201/175 202/202/176 199/199/173
f 201/201/175 200/200/174 202/202/176
f 203/203/177 199/199/173 202/202/176
f 204/204/178 202/202/176 200/200/174
f 202/202/176 205/205/179 203/203/177
f 202/202/176 204/204/178 205/205/179
f 206/206/180 203/203/177 205/205/179
f 207/207/107 205/205/179 204/204/178
f 205/205/179 208/208/181 206/206/180
f 205/205/179 207/207/107 208/208/181
f 209/209/182 206/206/180 208/208/181
f 210/210/183 208/208/181 207/207/107
f 208/208/181 211/211/184 209/209/182
f 208/208/181 210/210/183 211/211/184
f 212/212/185 209/209/182 211/211/184
f 213/213/186 211/211/184 210/210/183
f 211/211/184 214/214/187 212/212/185
f 211/211/184 213/213/186 214/214/187
f 215/215/188 212/212/185 214/214/187
f 216/216/189 214/214/187 213/213/186
f 219/217/190 218/218/191 217/219/192
f 220/220/193 217/219/192 218/218/191
f 217/219/192 220/220/193 221/221/194
f 220/220/193 218/218/191 222/222/195
f 220/220/193 222/222/195 221/221/194
f 222/222/195 223/223/196 221/221/194
f 224/224/197 222/222/195 218/218/191
f 222/222/195 224/224/197 223/223/196
f 225/225/198 221/221/194 223/223/196
f 226/226/196 223/223/196 224/224/197
f 225/225/198 223/223/196 227/227/199
f 226/226/196 228/228/200 223/223/196
f 229/229/201 227/227/199 223/223/196
f 229/229/201 223/223/196 228/228/200
f 229/229/201 230/230/202 227/227/199
f 228/228/200 231/231/203 229/229/201
f 230/230/202 229/229/201 231/231/203
f 234/232/204 233/233/205 232/234/204
f 235/235/205 232/234/204 233/233/205
f 233/233/205 236/236/206 235/235/205
f 237/237/206 235/235/205 236/236/206
f 240/238/204 239/239/207 238/240/204
f 241/241/207 238/240/204 239/239/207
f 239/239/207 242/242/208 241/241/207
f 243/243/208 241/241/207 242/242/208
f 246/244/208 245/245/209 244/246/208
f 247/247/209 244/246/208 245/245/209
f 245/245/209 248/248/210 247/247/209
f 249/249/210 247/247/209 248/248/210
f 252/250/210 251/251/104 250/252/210
f 253/253/104 250/252/210 251/251/104
f 251/251/104 254/254/206 253/253/104
f 255/255/206 253/253/104 254/254/206
f 258/256/211 257/234/212 256/257/213
f 259/235/213 256/257/213 257/234/212
f 256/257/213 259/235/213 260/258/214
f 261/237/215 260/258/214 259/235/213
f 264/259/214 263/254/214 262/260/216
f 265/251/216 262/260/216 263/254/214
f 262/260/216 265/251/216 266/261/217
f 267/250/218 266/261/217 265/251/216
f 270/262/217 269/248/217 268/263/219
f 271/245/219 268/263/219 269/248/217
f 268/263/219 271/245/219 272/264/220
f 273/244/221 272/264/220 271/245/219
f 276/265/220 275/242/221 274/266/222
f 277/239/222 274/266/222 275/242/221
f 274/266/222 277/239/222 278/267/211
f 279/238/212 278/267/211 277/239/222
f 282/268/223 281/269/224 280/270/225
f 283/271/225 280/270/225 281/269/224
f 280/270/225 283/271/225 284/272/226
f 285/273/226 284/272/226 283/271/225
f 288/274/227 287/275/228 286/276/229
f 289/277/229 286/276/229 287/275/228
f 286/276/229 289/277/229 290/278/230
f 291/279/231 290/278/230 289/277/229
f 294/280/232 293/281/233 292/282/234
f 295/283/234 292/282/234 293/281/233
f 292/282/234 295/283/234 296/284/235
f 297/285/235 296/284/235 295/283/234
f 300/286/236 299/287/237 298/288/238
f 301/289/238 298/288/238 299/287/237
f 298/288/238 301/289/238 302/290/239
f 303/291/239 302/290/239 301/289/238
f 306/292/204 305/268/204 304/293/205
f 307/270/205 304/293/205 305/268/204
f 304/293/205 307/270/205 308/294/206
f 309/272/206 308/294/206 307/270/205
f 312/295/206 311/274/206 310/296/104
f 313/276/104 310/296/104 311/274/206
f 310/296/104 313/276/104 314/297/210
f 315/278/210 314/297/210 313/276/104
f 318/298/210 317/280/240 316/299/209
f 319/282/209 316/299/209 317/280/240
f 316/299/209 319/282/209 320/300/208
f 321/284/208 320/300/208 319/282/209
f 324/301/208 323/286/208 322/302/207
f 325/288/207 322/302/207 323/286/208
f 322/302/207 325/288/207 326/303/204
f 327/290/204 326/303/204 325/288/207
f 330/304/241 329/305/242 328/306/242
f 331/307/242 328/306/242 329/305/242
f 334/308/243 333/309/243 332/310/243
f 335/311/243 332/310/243 333/309/243
f 338/312/244 337/313/244 336/314/244
f 339/315/244 336/314/244 337/313/244
f 342/316/245 341/317/245 340/318/245
f 343/319/245 340/318/245 341/317/245
f 346/320/246 345/305/246 344/321/246
f 347/304/246 344/321/246 345/305/246
f 350/322/205 349/309/205 348/323/205
f 351/308/205 348/323/205 349/309/205
f 354/324/209 353/313/209 352/325/209
f 355/312/209 352/325/209 353/313/209
f 358/326/247 357/317/248 356/327/247
f 359/316/248 356/327/247 357/317/248
f 362/328/249 361/329/249 360/330/249
f 363/331/249 360/330/249 361/329/249
f 366/332/206 365/333/206 364/334/206
f 367/335/206 364/334/206 365/333/206
f 370/336/208 369/337/208 368/338/208
f 371/339/208 368/338/208 369/337/208
f 374/340/250 373/341/250 372/342/251
f 375/343/251 372/342/251 373/341/250
f 378/344/204 377/345/205 376/346/204
f 379/347/205 376/346/204 377/345/205
f 377/345/205 380/348/206 379/347/205
f 381/349/206 379/347/205 380/348/206
f 384/350/204 383/351/207 382/352/204
f 385/353/207 382/352/204 383/351/207
f 383/351/207 386/354/208 385/353/207
f 387/355/208 385/353/207 386/354/208
f 390/356/252 389/357/209 388/358/208
f 391/359/209 388/358/208 389/357/209
f 389/357/209 392/360/210 391/359/209
f 393/361/210 391/359/209 392/360/210
f 396/362/210 395/363/104 394/364/210
f 397/365/104 394/364/210 395/363/104
f 395/363/104 398/366/206 397/365/104
f 399/367/206 397/365/104 398/366/206
f 402/368/211 401/346/211 400/369/213
f 403/347/213 400/369/213 401/346/211
f 400/369/213 403/347/213 404/370/214
f 405/349/215 404/370/214 403/347/213
f 408/371/214 407/366/214 406/372/216
f 409/363/216 406/372/216 407/366/214
f 406/372/216 409/363/216 410/373/217
f 411/362/218 410/373/217 409/363/216
f 414/374/217 413/360/217 412/375/219
f 415/357/219 412/375/219 413/360/217
f 412/375/219 415/357/219 416/376/220
f 417/356/221 416/376/220 415/357/219
f 420/377/220 419/354/221 418/378/222
f 421/351/222 418/378/222 419/354/221
f 418/378/222 421/351/222 422/379/211
f 423/350/212 422/379/211 421/351/222
f 426/380/223 425/381/224 424/382/225
f 427/383/225 424/382/225 425/381/224
f 424/382/225 427/383/225 428/384/226
f 429/385/226 428/384/226 427/383/225
f 432/386/227 431/387/253 430/388/229
f 433/389/229 430/388/229 431/387/253
f 430/388/229 433/389/229 434/390/230
f 435/391/231 434/390/230 433/389/229
f 438/392/232 437/393/233 436/394/234
f 439/395/234 436/394/234 437/393/233
f 436/394/234 439/395/234 440/396/235
f 441/397/235 440/396/235 439/395/234
f 444/398/236 443/399/237 442/400/238
f 445/401/238 442/400/238 443/399/237
f 442/400/238 445/401/238 446/402/239
f 447/403/239 446/402/239 445/401/238
f 450/404/204 449/380/204 448/405/205
f 451/382/205 448/405/205 449/380/204
f 448/405/205 451/382/205 452/406/206
f 453/384/206 452/406/206 451/382/205
f 456/407/206 455/386/206 454/408/104
f 457/388/104 454/408/104 455/386/206
f 454/408/104 457/388/104 458/409/210
f 459/390/210 458/409/210 457/388/104
f 462/410/210 461/392/210 460/411/209
f 463/394/209 460/411/209 461/392/210
f 460/411/209 463/394/209 464/412/254
f 465/396/208 464/412/254 463/394/209
f 468/413/208 467/398/208 466/414/207
f 469/400/207 466/414/207 467/398/208
f 466/414/207 469/400/207 470/415/204
f 471/402/204 470/415/204 469/400/207
f 474/416/242 473/417/242 472/418/242
f 475/419/242 472/418/242 473/417/242
f 478/420/243 477/421/243 476/422/243
f 479/423/243 476/422/243 477/421/243
f 482/424/244 481/425/244 480/426/244
f 483/427/244 480/426/244 481/425/244
f 486/428/245 485/429/245 484/430/245
f 487/431/245 484/430/245 485/429/245
f 490/432/246 489/417/246 488/433/246
f 491/416/246 488/433/246 489/417/246
f 494/434/205 493/421/205 492/435/205
f 495/420/205 492/435/205 493/421/205
f 498/436/209 497/425/209 496/437/209
f 499/424/209 496/437/209 497/425/209
f 502/438/247 501/429/247 500/439/247
f 503/428/247 500/439/247 501/429/247
f 506/440/249 505/441/249 504/442/249
f 507/443/249 504/442/249 505/441/249
f 510/444/206 509/445/206 508/446/206
f 511/447/206 508/446/206 509/445/206
f 514/448/208 513/449/208 512/450/208
f 515/451/208 512/450/208 513/449/208
f 518/452/250 517/453/250 516/454/250
f 519/455/250 516/454/250 517/453/250
f 522/456/246 521/457/246 520/458/246
f 523/459/246 520/458/246 521/457/246
f 526/460/207 525/461/207 524/462/255
f 527/463/255 524/462/255 525/461/207
f 524/462/255 527/463/255 528/464/256
f 529/465/256 528/464/256 527/463/255
f 528/464/256 529/465/256 530/466/257
f 531/467/257 530/466/257 529/465/256
f 534/468/104 533/469/104 532/470/258
f 535/471/258 532/470/258 533/469/104
f 532/470/258 535/471/258 536/472/259
f 537/473/259 536/472/259 535/471/258
f 536/472/259 537/473/259 538/474/260
f 539/475/260 538/474/260 537/473/259
f 542/476/261 541/477/262 540/478/263
f 543/479/264 540/478/263 541/477/262
f 546/480/262 545/481/265 544/482/266
f 547/483/266 544/482/266 545/481/265
f 544/482/266 547/483/266 548/484/267
f 549/485/268 548/484/267 547/483/266
f 552/486/269 551/487/270 550/488/271
f 553/489/267 550/488/271 551/487/270
f 556/490/272 555/491/269 554/492/273
f 557/493/273 554/492/273 555/491/269
f 554/492/273 557/493/273 558/494/264
f 559/495/274 558/494/264 557/493/273
f 562/496/207 561/497/207 560/498/207
f 561/497/207 563/499/207 560/498/207
f 560/498/207 563/499/207 564/500/207
f 565/501/207 563/499/207 561/497/207
f 568/502/104 567/503/104 566/504/104
f 567/503/104 569/505/104 566/504/104
f 566/504/104 569/505/104 570/506/104
f 571/507/104 569/505/104 567/503/104
f 574/508/275 573/509/275 572/510/275
f 575/511/275 572/510/275 573/509/275
f 578/512/276 577/513/276 576/514/276
f 579/515/276 576/514/276 577/513/276
f 582/516/104 581/517/104 580/518/104
f 583/519/104 580/518/104 581/517/104
f 586/520/247 585/521/247 584/522/247
f 587/523/247 584/522/247 585/521/247
f 590/524/207 589/525/207 588/526/207
f 591/527/207 588/526/207 589/525/207
f 594/528/275 593/529/275 592/530/275
f 595/531/275 592/530/275 593/529/275
f 598/532/276 597/533/276 596/534/276
f 599/535/276 596/534/276 597/533/276
f 602/516/104 601/517/104 600/518/104
f 603/519/104 600/518/104 601/517/104
f 606/536/247 605/537/247 604/538/247
f 607/539/247 604/538/247 605/537/247
f 610/524/207 609/525/207 608/526/207
f 611/527/207 608/526/207 609/525/207
f 614/540/275 613/541/275 612/542/275
f 615/543/275 612/542/275 613/541/275
f 618/544/276 617/545/276 616/546/276
f 619/547/276 616/546/276 617/545/276
f 622/516/104 621/517/104 620/518/104
f 623/519/104 620/518/104 621/517/104
f 626/548/247 625/549/247 624/550/247
f 627/551/247 624/550/247 625/549/247
f 630/524/207 629/525/207 628/526/207
f 631/527/207 628/526/207 629/525/207
f 634/552/277 633/553/277 632/554/277
f 635/555/278 632/554/277 633/553/277
f 635/555/278 636/556/278 632/554/277
f 637/557/277 632/554/277 636/556/278
f 637/557/277 636/556/278 638/558/277
f 639/559/277 638/558/277 636/556/278
f 636/556/278 635/555/278 640/560/279
f 641/561/279 640/560/279 635/555/278
f 644/562/280 643/563/280 642/564/281
f 645/565/280 642/564/281 643/563/280
f 645/565/280 646/566/280 642/564/281
f 647/567/281 642/564/281 646/566/280
f 647/567/281 646/566/280 648/568/280
f 649/569/280 648/568/280 646/566/280
f 647/567/281 650/570/282 642/564/281
f 651/571/282 642/564/281 650/570/282
f 654/572/283 653/573/283 652/574/284
f 655/575/284 652/574/284 653/573/283
f 655/575/284 656/576/285 652/574/284
f 657/577/285 652/574/284 656/576/285
f 657/577/285 656/576/285 658/578/286
f 659/579/286 658/578/286 656/576/285
f 662/246/208 661/244/208 660/247/209
f 663/245/209 660/247/209 661/244/208
f 660/247/209 663/245/209 664/580/210
f 665/248/210 664/580/210 663/245/209
f 668/581/208 667/582/208 666/583/207
f 669/584/207 666/583/207 667/582/208
f 666/583/207 669/584/207 670/585/204
f 671/586/204 670/585/204 669/584/207
f 674/234/204 673/587/287 672/235/205
f 675/233/205 672/235/205 673/587/287
f 672/235/205 675/233/205 676/237/206
f 677/588/206 676/237/206 675/233/205
f 680/589/206 679/590/206 678/591/104
f 681/592/104 678/591/104 679/590/206
f 678/591/104 681/592/104 682/593/210
f 683/594/210 682/593/210 681/592/104
f 686/264/220 685/263/219 684/244/221
f 687/245/219 684/244/221 685/263/219
f 685/263/219 688/262/217 687/245/219
f 689/248/217 687/245/219 688/262/217
f 692/595/217 691/596/216 690/593/218
f 693/591/216 690/593/218 691/596/216
f 691/596/216 694/597/214 693/591/216
f 695/589/214 693/591/216 694/597/214
f 698/258/214 697/598/213 696/237/215
f 699/235/213 696/237/215 697/598/213
f 697/598/213 700/256/211 699/235/213
f 701/234/211 699/235/213 700/256/211
f 704/599/211 703/600/222 702/585/212
f 705/583/222 702/585/212 703/600/222
f 703/600/222 706/601/220 705/583/222
f 707/581/221 705/583/222 706/601/220
f 710/284/235 709/602/234 708/285/235
f 711/283/234 708/285/235 709/602/234
f 709/602/234 712/280/232 711/283/234
f 713/603/233 711/283/234 712/280/232
f 716/604/230 715/605/229 714/606/231
f 717/607/229 714/606/231 715/605/229
f 715/605/229 718/608/227 717/607/229
f 719/609/253 717/607/229 718/608/227
f 722/272/226 721/610/225 720/273/226
f 723/271/225 720/273/226 721/610/225
f 721/610/225 724/611/223 723/271/225
f 725/612/224 723/271/225 724/611/223
f 728/613/239 727/614/238 726/615/239
f 729/616/238 726/615/239 727/614/238
f 727/614/238 730/617/237 729/616/238
f 731/618/288 729/616/238 730/617/237
f 734/300/208 733/619/209 732/284/208
f 735/602/209 732/284/208 733/619/209
f 733/619/209 736/298/210 735/602/209
f 737/280/240 735/602/209 736/298/210
f 740/620/210 739/621/104 738/604/210
f 741/605/104 738/604/210 739/621/104
f 739/621/104 742/622/206 741/605/104
f 743/608/206 741/605/104 742/622/206
f 746/294/206 745/623/205 744/272/206
f 747/610/205 744/272/206 745/623/205
f 745/623/205 748/292/204 747/610/205
f 749/611/204 747/610/205 748/292/204
f 752/624/204 751/625/207 750/613/204
f 753/614/207 750/613/204 751/625/207
f 751/625/207 754/626/208 753/614/207
f 755/617/208 753/614/207 754/626/208
f 758/627/242 757/628/242 756/629/242
f 759/630/242 756/629/242 757/628/242
f 762/314/244 761/312/244 760/315/244
f 763/313/244 760/315/244 761/312/244
f 766/631/243 765/308/243 764/311/243
f 767/309/243 764/311/243 765/308/243
f 770/632/245 769/633/245 768/634/245
f 771/635/245 768/634/245 769/633/245
f 774/630/246 773/628/246 772/636/246
f 775/637/246 772/636/246 773/628/246
f 778/313/209 777/312/209 776/324/209
f 779/325/209 776/324/209 777/312/209
f 782/309/205 781/308/205 780/322/205
f 783/323/205 780/322/205 781/308/205
f 786/635/247 785/633/247 784/638/247
f 787/639/247 784/638/247 785/633/247
f 790/640/289 789/641/289 788/642/289
f 791/643/289 788/642/289 789/641/289
f 794/644/210 793/645/210 792/646/210
f 795/647/210 792/646/210 793/645/210
f 798/648/204 797/649/204 796/650/204
f 799/651/204 796/650/204 797/649/204
f 802/652/290 801/653/291 800/654/290
f 803/655/291 800/654/290 801/653/291
f 806/358/208 805/356/208 804/359/209
f 807/357/209 804/359/209 805/356/208
f 804/359/209 807/357/209 808/656/210
f 809/360/210 808/656/210 807/357/209
f 812/657/208 811/658/254 810/659/207
f 813/660/207 810/659/207 811/658/254
f 810/659/207 813/660/207 814/661/204
f 815/662/204 814/661/204 813/660/207
f 818/663/204 817/344/204 816/347/205
f 819/664/205 816/347/205 817/344/204
f 816/347/205 819/664/205 820/349/206
f 821/665/206 820/349/206 819/664/205
f 824/666/206 823/667/206 822/668/104
f 825/669/104 822/668/104 823/667/206
f 822/668/104 825/669/104 826/670/210
f 827/671/210 826/670/210 825/669/104
f 830/376/220 829/375/219 828/356/221
f 831/357/219 828/356/221 829/375/219
f 829/375/219 832/672/217 831/357/219
f 833/360/218 831/357/219 832/672/217
f 836/673/217 835/674/216 834/670/218
f 837/668/216 834/670/218 835/674/216
f 835/674/216 838/675/214 837/668/216
f 839/666/214 837/668/216 838/675/214
f 842/370/214 841/369/213 840/349/215
f 843/347/213 840/349/215 841/369/213
f 841/369/213 844/368/211 843/347/213
f 845/663/211 843/347/213 844/368/211
f 848/676/211 847/677/222 846/661/212
f 849/659/222 846/661/212 847/677/222
f 847/677/222 850/678/220 849/659/222
f 851/657/221 849/659/222 850/678/220
f 854/396/235 853/679/234 852/680/235
f 855/681/234 852/680/235 853/679/234
f 853/679/234 856/392/232 855/681/234
f 857/682/233 855/681/234 856/392/232
f 860/683/230 859/684/229 858/685/231
f 861/686/229 858/685/231 859/684/229
f 859/684/229 862/687/227 861/686/229
f 863/688/253 861/686/229 862/687/227
f 866/689/226 865/690/225 864/691/226
f 867/692/225 864/691/226 865/690/225
f 865/690/225 868/693/223 867/692/225
f 869/694/224 867/692/225 868/693/223
f 872/695/239 871/696/238 870/697/239
f 873/698/238 870/697/239 871/696/238
f 871/696/238 874/699/236 873/698/238
f 875/700/237 873/698/238 874/699/236
f 878/412/208 877/411/209 876/396/208
f 879/679/209 876/396/208 877/411/209
f 877/411/209 880/410/210 879/679/209
f 881/392/210 879/679/209 880/410/210
f 884/701/210 883/702/104 882/683/210
f 885/684/104 882/683/210 883/702/104
f 883/702/104 886/703/206 885/684/104
f 887/687/206 885/684/104 886/703/206
f 890/406/206 889/704/205 888/689/206
f 891/690/205 888/689/206 889/704/205
f 889/704/205 892/404/204 891/690/205
f 893/693/204 891/690/205 892/404/204
f 896/705/292 895/706/207 894/695/204
f 897/696/207 894/695/204 895/706/207
f 895/706/207 898/707/208 897/696/207
f 899/699/208 897/696/207 898/707/208
f 902/708/242 901/709/242 900/710/242
f 903/711/242 900/710/242 901/709/242
f 906/426/244 905/712/244 904/427/244
f 907/425/244 904/427/244 905/712/244
f 910/713/243 909/420/243 908/714/243
f 911/715/243 908/714/243 909/420/243
f 914/716/245 913/717/245 912/718/245
f 915/719/245 912/718/245 913/717/245
f 918/711/246 917/709/246 916/720/246
f 919/721/246 916/720/246 917/709/246
f 922/425/209 921/712/209 920/436/209
f 923/437/209 920/436/209 921/712/209
f 926/715/205 925/420/205 924/434/205
f 927/435/205 924/434/205 925/420/205
f 930/719/247 929/717/247 928/722/247
f 931/723/247 928/722/247 929/717/247
f 934/724/289 933/725/289 932/726/289
f 935/727/289 932/726/289 933/725/289
f 938/728/210 937/729/210 936/730/210
f 939/731/210 936/730/210 937/729/210
f 942/732/204 941/733/204 940/734/204
f 943/735/204 940/734/204 941/733/204
f 946/736/291 945/737/291 944/738/291
f 947/739/291 944/738/291 945/737/291
f 950/740/246 949/741/246 948/742/246
f 951/743/246 948/742/246 949/741/246
f 954/744/207 953/745/255 952/746/207
f 955/747/255 952/746/207 953/745/255
f 953/745/255 956/748/256 955/747/255
f 957/749/256 955/747/255 956/748/256
f 956/748/256 958/750/293 957/749/256
f 959/751/293 957/749/256 958/750/293
f 962/752/104 961/753/258 960/754/104
f 963/755/258 960/754/104 961/753/258
f 961/753/258 964/756/259 963/755/258
f 965/757/259 963/755/258 964/756/259
f 964/756/259 966/758/260 965/757/259
f 967/759/260 965/757/259 966/758/260
f 970/760/270 969/761/267 968/762/269
f 971/763/271 968/762/269 969/761/267
f 974/764/267 973/765/266 972/766/294
f 975/767/266 972/766/294 973/765/266
f 973/765/266 976/768/262 975/767/266
f 977/769/295 975/767/266 976/768/262
f 980/770/262 979/771/264 978/772/261
f 981/773/263 978/772/261 979/771/264
f 984/774/296 983/775/273 982/776/297
f 985/777/273 982/776/297 983/775/273
f 983/775/273 986/778/270 985/777/273
f 987/779/298 985/777/273 986/778/270
f 990/780/207 989/781/207 988/782/207
f 989/781/207 991/783/207 988/782/207
f 988/782/207 991/783/207 992/784/207
f 993/785/207 991/783/207 989/781/207
f 996/786/104 995/787/104 994/788/104
f 995/787/104 997/789/104 994/788/104
f 994/788/104 997/789/104 998/790/104
f 999/791/104 997/789/104 995/787/104
f 1002/792/276 1001/513/276 1000/514/276
f 1003/793/276 1000/514/276 1001/513/276
f 1006/794/275 1005/509/275 1004/510/275
f 1007/511/275 1004/510/275 1005/509/275
f 1010/795/104 1009/796/104 1008/797/104
f 1011/798/104 1008/797/104 1009/796/104
f 1014/799/247 1013/800/247 1012/801/247
f 1015/802/247 1012/801/247 1013/800/247
f 1018/803/207 1017/804/207 1016/805/207
f 1019/806/207 1016/805/207 1017/804/207
f 1022/532/276 1021/807/276 1020/534/276
f 1023/808/276 1020/534/276 1021/807/276
f 1026/528/275 1025/529/275 1024/530/275
f 1027/531/275 1024/530/275 1025/529/275
f 1030/795/104 1029/796/104 1028/797/104
f 1031/798/104 1028/797/104 1029/796/104
f 1034/809/247 1033/810/247 1032/811/247
f 1035/812/247 1032/811/247 1033/810/247
f 1038/803/207 1037/804/207 1036/805/207
f 1039/806/207 1036/805/207 1037/804/207
f 1042/544/276 1041/813/276 1040/546/276
f 1043/547/276 1040/546/276 1041/813/276
f 1046/540/275 1045/541/275 1044/542/275
f 1047/543/275 1044/542/275 1045/541/275
f 1050/795/104 1049/796/104 1048/797/104
f 1051/798/104 1048/797/104 1049/796/104
f 1054/814/247 1053/815/247 1052/816/247
f 1055/817/247 1052/816/247 1053/815/247
f 1058/803/207 1057/804/207 1056/818/207
f 1059/806/207 1056/818/207 1057/804/207
f 1062/819/280 1061/565/280 1060/562/280
f 1063/564/281 1060/562/280 1061/565/280
f 1063/564/281 1061/565/280 1064/820/281
f 1065/566/280 1064/820/281 1061/565/280
f 1065/566/280 1066/569/280 1064/820/281
f 1067/568/280 1064/820/281 1066/569/280
f 1064/820/281 1068/570/282 1063/564/281
f 1069/821/282 1063/564/281 1068/570/282
f 1072/553/277 1071/555/278 1070/552/277
f 1073/554/277 1070/552/277 1071/555/278
f 1073/554/277 1071/555/278 1074/557/277
f 1075/822/278 1074/557/277 1071/555/278
f 1075/822/278 1071/555/278 1076/560/279
f 1077/823/279 1076/560/279 1071/555/278
f 1075/822/278 1078/559/277 1074/557/277
f 1079/558/277 1074/557/277 1078/559/277
f 1082/824/299 1081/825/284 1080/826/299
f 1083/827/284 1080/826/299 1081/825/284
f 1083/827/284 1081/825/284 1084/828/285
f 1085/829/285 1084/828/285 1081/825/284
f 1085/829/285 1086/830/286 1084/828/285
f 1087/831/286 1084/828/285 1086/830/286
