# Blender 5.1.0
# www.blender.org
mtllib Bsh_Hull_Rostrum_Dredn_C_001_1.mtl
o Bsh_Hull_Rostrum_Dredn_C_001_1
v -12.384461 34.970566 -6.322232
v -12.646018 38.739212 -0.318321
v -12.646008 34.970566 -0.318328
v -12.384472 38.739220 -6.322227
v -12.139336 38.739220 -8.095278
v -12.139324 34.970566 -8.095284
v -11.803389 44.739220 -8.095279
v -12.048522 44.739220 -6.322229
v -12.310071 44.739220 -0.318322
v -11.321594 50.739220 -8.095281
v -11.828276 50.739220 -0.318325
v -11.566728 50.739220 -6.322231
v -10.713250 56.739220 -8.095284
v -11.219556 56.739227 -0.318329
v -10.958009 56.739220 -6.322235
v -9.711790 62.739250 -8.095279
v -9.956681 62.739250 -6.322231
v -10.218227 62.739250 -0.318322
v -8.113787 68.739265 -6.322234
v -8.618851 68.739273 -0.318322
v -7.869032 68.739258 -8.095279
v -6.805947 74.739265 -0.318327
v -5.954236 74.739258 -6.322225
v -5.533535 74.739258 -8.101221
v -4.667477 80.548981 -0.318331
v -3.738497 80.548981 -6.322229
v -3.271521 80.548981 -8.104695
v -2.007685 86.756866 -6.295698
v -2.854960 86.756851 -0.318335
v -1.386426 92.750961 -0.318348
v -1.473162 86.756851 -8.059413
v -1.907381 80.548981 -9.320888
v -0.986894 86.756874 -8.889241
v -0.682407 86.756866 -9.203204
v -0.296164 92.753914 -8.439222
v -0.495097 92.753914 -8.198718
v -0.231585 95.318604 -7.707552
v -0.712091 92.753922 -7.538473
v -0.430524 95.244362 -7.498819
v -0.978671 92.753922 -5.991252
v -0.615989 94.989334 -6.864768
v -0.365949 97.734818 -6.257874
v -0.167004 97.883301 -6.434835
v -0.765558 94.554794 -5.593890
v -0.519886 97.224747 -5.650017
v -0.688111 96.356247 -4.614964
v -0.326318 99.305206 -4.907684
v -0.127373 99.511185 -5.051909
v -0.676369 97.481857 -3.630967
v -0.505316 98.621536 -4.428976
v -0.326435 100.592545 -3.172461
v -0.127415 100.849854 -3.266111
v -0.143667 101.606613 -1.093129
v -0.684899 98.388824 -2.370370
v -0.515901 99.746979 -2.864699
v -0.705457 98.880981 -0.854665
v -0.718251 98.861160 -0.319664
v -0.557287 100.333099 -0.319978
v -0.541412 100.357697 -0.983863
v -0.363992 101.268219 -0.324465
v -0.165122 101.541611 -0.325113
v -0.343113 101.329163 -1.068854
v 0.000010 99.549591 -5.078811
v -0.127415 100.849854 -3.266111
v -0.127373 99.511185 -5.051909
v 0.000008 100.895721 -3.282809
v 0.000006 101.660553 -1.097849
v -0.143667 101.606613 -1.093129
v -0.165122 101.541611 -0.325113
v 0.000005 101.600723 -0.322619
v 0.165133 101.541611 -0.325121
v 0.143679 101.606613 -1.093137
v 0.127432 100.849854 -3.266119
v 0.127393 99.511185 -5.051917
v 12.646012 38.739204 -0.318294
v 12.384466 34.970558 -6.322203
v 12.646002 34.970558 -0.318301
v 12.384477 38.739212 -6.322197
v 12.139360 38.739212 -8.095248
v 12.139347 34.970558 -8.095254
v 11.803415 44.739212 -8.095250
v 12.048529 44.739212 -6.322201
v 12.310066 44.739212 -0.318296
v 11.321622 50.739212 -8.095253
v 11.828272 50.739220 -0.318301
v 11.566735 50.739212 -6.322203
v 10.713277 56.739220 -8.095257
v 11.219553 56.739220 -0.318306
v 10.958017 56.739220 -6.322208
v 9.711809 62.739243 -8.095262
v 9.956701 62.739243 -6.322214
v 10.218232 62.739243 -0.318306
v 8.113808 68.739258 -6.322218
v 8.618856 68.739265 -0.318310
v 7.869052 68.739258 -8.095262
v 6.805954 74.739265 -0.318318
v 5.954257 74.739258 -6.322221
v 5.533556 74.739258 -8.101217
v 4.667485 80.548981 -0.318324
v 3.738516 80.548981 -6.322225
v 3.271543 80.548981 -8.104701
v 2.007707 86.756866 -6.295704
v 2.854969 86.756851 -0.318338
v 1.386434 92.750961 -0.318354
v 1.473188 86.756851 -8.059420
v 1.907406 80.548981 -9.320894
v 0.986920 86.756874 -8.889247
v 0.682433 86.756866 -9.203211
v 0.296190 92.753914 -8.439230
v 0.495122 92.753914 -8.198726
v 0.231610 95.318604 -7.707560
v 0.712115 92.753922 -7.538480
v 0.430549 95.244362 -7.498827
v 0.978692 92.753922 -5.991260
v 0.616013 94.989334 -6.864775
v 0.365971 97.734818 -6.257882
v 0.167027 97.883301 -6.434842
v 0.765577 94.554794 -5.593897
v 0.519907 97.224747 -5.650024
v 0.688129 96.356247 -4.614971
v 0.326337 99.305206 -4.907691
v 0.127393 99.511185 -5.051917
v 0.676386 97.481857 -3.630974
v 0.505334 98.621536 -4.428983
v 0.326451 100.592545 -3.172469
v 0.127432 100.849854 -3.266119
v 0.143679 101.606613 -1.093137
v 0.684914 98.388824 -2.370377
v 0.515916 99.746979 -2.864707
v 0.705469 98.880981 -0.854671
v 0.718261 98.861160 -0.319670
v 0.557297 100.333099 -0.319985
v 0.541423 100.357697 -0.983870
v 0.364003 101.268219 -0.324472
v 0.165133 101.541611 -0.325121
v 0.343125 101.329163 -1.068862
v -12.139324 34.970566 -8.095284
v -10.423463 38.739220 -9.320896
v -12.139336 38.739220 -8.095278
v -10.423452 34.970566 -9.320904
v -11.803389 44.739220 -8.095279
v 0.000009 38.739243 -9.320870
v 0.000010 44.739227 -9.320875
v 0.000009 34.970558 -9.320875
v 10.423476 34.970558 -9.320883
v -10.087521 44.739220 -9.320896
v -11.321594 50.739220 -8.095281
v 10.423488 38.739212 -9.320877
v 12.139347 34.970558 -8.095254
v 12.139360 38.739212 -8.095248
v 11.803415 44.739212 -8.095250
v 10.087536 44.739220 -9.320878
v 11.321622 50.739212 -8.095253
v -9.605727 50.739220 -9.320902
v -9.000006 56.739227 -9.320905
v -10.713250 56.739220 -8.095284
v -9.711790 62.739250 -8.095279
v 9.605744 50.739220 -9.320884
v 9.000024 56.739220 -9.320888
v 10.713277 56.739220 -8.095257
v 9.711809 62.739243 -8.095262
v 0.000010 50.739235 -9.320880
v -7.998680 62.739243 -9.320904
v -7.869032 68.739258 -8.095279
v 0.000011 56.739235 -9.320887
v 0.000011 62.739227 -9.320886
v 7.998699 62.739243 -9.320887
v 7.869052 68.739258 -8.095262
v -6.155783 68.739250 -9.320889
v -5.533535 74.739258 -8.101221
v 0.000012 68.739227 -9.320883
v 0.000012 74.739227 -9.320883
v 6.155803 68.739250 -9.320884
v 5.533556 74.739258 -8.101217
v -3.836522 74.739243 -9.320892
v -3.271521 80.548981 -8.104695
v -1.907381 80.548981 -9.320888
v 3.836548 74.739243 -9.320888
v 3.271543 80.548981 -8.104701
v 1.907406 80.548981 -9.320894
v 0.000013 80.548973 -9.320892
v 0.000013 86.756844 -9.254147
v -0.682407 86.756866 -9.203204
v 0.682433 86.756866 -9.203211
v 0.000013 92.753914 -8.488381
v -0.296164 92.753914 -8.439222
v 0.296190 92.753914 -8.439230
v 0.000013 95.330040 -7.745766
v -0.231585 95.318604 -7.707552
v 0.000011 97.906174 -6.462104
v 0.231610 95.318604 -7.707560
v -0.167004 97.883301 -6.434835
v 0.167027 97.883301 -6.434842
v -0.127373 99.511185 -5.051909
v 0.127393 99.511185 -5.051917
v 0.000010 99.549591 -5.078811
v -12.646004 21.000013 -0.318324
v -12.384459 24.970461 -6.322228
v -12.646006 24.970461 -0.318324
v -12.384459 21.000013 -6.322229
v -12.139320 24.970461 -8.095279
v -12.139318 21.000013 -8.095279
v -12.139315 14.999966 -8.095283
v -12.384459 14.999968 -6.322230
v -12.646004 14.999968 -0.318325
v -12.139318 21.000013 -8.095279
v -10.423450 24.970461 -9.320899
v -12.139320 24.970461 -8.095279
v -10.423447 21.000013 -9.320899
v 0.000001 24.970457 -9.320871
v -10.423443 14.999968 -9.320900
v -12.139315 14.999966 -8.095283
v 0.000001 14.999966 -9.320871
v 0.000001 21.000010 -9.320873
v 10.423449 21.000013 -9.320899
v 10.423450 24.970461 -9.320899
v 10.423445 14.999968 -9.320900
v 12.139320 21.000013 -8.095279
v 12.139321 24.970461 -8.095279
v 12.139317 14.999966 -8.095283
v 12.384460 24.970461 -6.322228
v 12.646006 21.000013 -0.318324
v 12.646006 24.970461 -0.318324
v 12.384461 21.000013 -6.322229
v 12.139321 24.970461 -8.095279
v 12.139320 21.000013 -8.095279
v 12.139317 14.999966 -8.095283
v 12.384460 14.999968 -6.322230
v 12.646006 14.999968 -0.318325
v -10.423495 24.970545 -9.320889
v -12.139381 29.970549 -8.095258
v -12.139366 24.970545 -8.095265
v -10.423493 29.970552 -9.320888
v -0.000002 24.970541 -9.320877
v -10.423492 34.970558 -9.320887
v -12.139363 34.970558 -8.095263
v -0.000001 34.970558 -9.320875
v -0.000001 29.970549 -9.320875
v 10.423488 29.970549 -9.320884
v 10.423487 24.970541 -9.320884
v 10.423488 34.970558 -9.320884
v 12.139375 29.970545 -8.095253
v 12.139359 24.970541 -8.095261
v 12.139359 34.970558 -8.095259
v -12.646045 29.970549 -0.318305
v -12.384495 34.970558 -6.322213
v -12.646027 34.970558 -0.318309
v -12.384512 29.970549 -6.322208
v -12.139363 34.970558 -8.095263
v -12.646029 24.970545 -0.318311
v -12.139381 29.970549 -8.095258
v -12.384498 24.970545 -6.322214
v -12.139366 24.970545 -8.095265
v 12.384489 34.970558 -6.322207
v 12.646041 29.970545 -0.318297
v 12.646024 34.970558 -0.318303
v 12.384505 29.970545 -6.322201
v 12.646022 24.970541 -0.318303
v 12.139359 34.970558 -8.095259
v 12.384489 24.970541 -6.322207
v 12.139375 29.970545 -8.095253
v 12.139359 24.970541 -8.095261
v -12.646021 4.999937 -0.318307
v -12.384488 14.999964 -6.322208
v -12.646021 14.999968 -0.318306
v -12.384489 4.999945 -6.322210
v -12.139358 14.999962 -8.095260
v -12.139359 4.999947 -8.095262
v -10.423489 4.999950 -9.320885
v -12.139358 14.999962 -8.095260
v -12.139359 4.999947 -8.095262
v -10.423487 14.999956 -9.320884
v 0.000003 14.999918 -9.320875
v -0.000002 4.999979 -9.320876
v 10.423488 14.999945 -9.320881
v 10.423482 4.999937 -9.320882
v 12.139351 4.999933 -8.095256
v 12.139357 14.999949 -8.095255
v 12.384486 14.999950 -6.322203
v 12.646015 4.999924 -0.318298
v 12.646022 14.999954 -0.318299
v 12.384480 4.999931 -6.322203
v 12.139351 4.999933 -8.095256
v 12.139357 14.999949 -8.095255
vn -0.9998 -0.0000 -0.0218
vn -0.9994 0.0279 -0.0218
vn -0.9959 -0.0000 -0.0903
vn -0.9955 0.0278 -0.0902
vn -0.8573 0.0239 -0.5142
vn -0.8557 -0.0000 -0.5175
vn -0.8549 0.0581 -0.5156
vn -0.9936 0.0677 -0.0901
vn -0.9975 0.0680 -0.0217
vn -0.8535 0.0774 -0.5153
vn -0.9957 0.0905 -0.0217
vn -0.9919 0.0901 -0.0899
vn -0.8518 0.1137 -0.5113
vn -0.9909 0.1328 -0.0216
vn -0.9872 0.1322 -0.0894
vn -0.8414 0.1968 -0.5033
vn -0.9696 0.2283 -0.0877
vn -0.9761 0.2158 -0.0260
vn -0.9468 0.3034 -0.1070
vn -0.9606 0.2672 -0.0765
vn -0.8192 0.2768 -0.5023
vn -0.9408 0.3220 -0.1057
vn -0.9224 0.3460 -0.1715
vn -0.7869 0.3041 -0.5370
vn -0.9430 0.3120 -0.1154
vn -0.9304 0.3110 -0.1942
vn -0.8137 0.2694 -0.5151
vn -0.9539 0.2229 -0.2010
vn -0.9602 0.2580 -0.1072
vn -0.9827 0.1680 -0.0786
vn -0.8962 0.1765 -0.4070
vn -0.3461 0.1076 -0.9320
vn -0.7863 0.1451 -0.6006
vn -0.4037 0.1157 -0.9075
vn -0.4795 0.1966 -0.8553
vn -0.8580 0.1528 -0.4904
vn -0.4760 0.3268 -0.8165
vn -0.9601 0.1317 -0.2468
vn -0.8723 0.2031 -0.4448
vn -0.9828 0.1460 -0.1132
vn -0.9783 0.1210 -0.1684
vn -0.8906 0.2636 -0.3706
vn -0.4983 0.4867 -0.7175
vn -0.9907 0.1111 -0.0786
vn -0.9867 0.1063 -0.1233
vn -0.9923 0.0884 -0.0871
vn -0.8964 0.3277 -0.2983
vn -0.5729 0.5991 -0.5593
vn -0.9924 0.0916 -0.0819
vn -0.9857 0.1267 -0.1114
vn -0.9042 0.3740 -0.2061
vn -0.5917 0.7109 -0.3802
vn -0.5894 0.8001 -0.1111
vn -0.9930 0.1010 -0.0618
vn -0.9858 0.1452 -0.0842
vn -0.9936 0.1074 -0.0338
vn -0.9938 0.1108 -0.0093
vn -0.9869 0.1610 0.0078
vn -0.9867 0.1573 -0.0402
vn -0.9021 0.4221 0.0900
vn -0.5759 0.7931 0.1985
vn -0.9057 0.4180 -0.0710
vn -0.5730 0.5991 -0.5593
vn -0.5916 0.7109 -0.3802
vn -0.0000 0.7292 -0.6843
vn -0.0000 0.8845 -0.4665
vn -0.0000 0.9916 -0.1293
vn -0.5894 0.8002 -0.1111
vn -0.5758 0.7931 0.1985
vn -0.0000 0.9686 0.2485
vn 0.5759 0.7931 0.1985
vn 0.5893 0.8002 -0.1111
vn 0.5916 0.7110 -0.3802
vn 0.5729 0.5991 -0.5593
vn 0.9998 -0.0000 -0.0218
vn 0.9959 -0.0000 -0.0903
vn 0.9994 0.0279 -0.0218
vn 0.9955 0.0278 -0.0902
vn 0.8573 0.0239 -0.5142
vn 0.8557 -0.0000 -0.5175
vn 0.8549 0.0581 -0.5156
vn 0.9936 0.0677 -0.0901
vn 0.9975 0.0679 -0.0217
vn 0.8535 0.0774 -0.5153
vn 0.9957 0.0905 -0.0217
vn 0.9919 0.0901 -0.0899
vn 0.8518 0.1137 -0.5113
vn 0.9909 0.1328 -0.0216
vn 0.9872 0.1322 -0.0894
vn 0.8414 0.1968 -0.5033
vn 0.9696 0.2283 -0.0877
vn 0.9761 0.2158 -0.0260
vn 0.9468 0.3034 -0.1070
vn 0.9606 0.2672 -0.0765
vn 0.8192 0.2768 -0.5023
vn 0.9408 0.3220 -0.1057
vn 0.9224 0.3460 -0.1715
vn 0.7869 0.3040 -0.5370
vn 0.9430 0.3120 -0.1154
vn 0.9304 0.3110 -0.1942
vn 0.8137 0.2694 -0.5151
vn 0.9539 0.2229 -0.2010
vn 0.9602 0.2580 -0.1072
vn 0.9827 0.1680 -0.0786
vn 0.8962 0.1765 -0.4070
vn 0.3461 0.1076 -0.9320
vn 0.7863 0.1451 -0.6006
vn 0.4037 0.1158 -0.9075
vn 0.4794 0.1967 -0.8553
vn 0.8580 0.1528 -0.4904
vn 0.4759 0.3269 -0.8165
vn 0.9601 0.1317 -0.2468
vn 0.8723 0.2031 -0.4448
vn 0.9828 0.1460 -0.1132
vn 0.9783 0.1210 -0.1684
vn 0.8906 0.2636 -0.3706
vn 0.4983 0.4867 -0.7175
vn 0.9907 0.1111 -0.0786
vn 0.9867 0.1063 -0.1233
vn 0.9923 0.0884 -0.0871
vn 0.8964 0.3277 -0.2983
vn 0.9924 0.0916 -0.0819
vn 0.9857 0.1267 -0.1114
vn 0.9042 0.3740 -0.2061
vn 0.5917 0.7109 -0.3802
vn 0.5894 0.8002 -0.1111
vn 0.9930 0.1010 -0.0618
vn 0.9858 0.1452 -0.0842
vn 0.9936 0.1074 -0.0338
vn 0.9938 0.1108 -0.0093
vn 0.9869 0.1610 0.0078
vn 0.9867 0.1573 -0.0401
vn 0.9021 0.4221 0.0900
vn 0.9057 0.4180 -0.0710
vn -0.8572 0.0239 -0.5144
vn -0.3100 0.0088 -0.9507
vn -0.3052 -0.0000 -0.9523
vn -0.8549 0.0582 -0.5156
vn -0.0000 -0.0000 -1.0000
vn 0.3052 -0.0000 -0.9523
vn -0.3071 0.0211 -0.9514
vn 0.3101 0.0088 -0.9507
vn 0.8572 0.0239 -0.5144
vn 0.8549 0.0582 -0.5156
vn 0.3071 0.0211 -0.9514
vn -0.3066 0.0279 -0.9514
vn -0.3104 0.0423 -0.9497
vn -0.8518 0.1137 -0.5114
vn 0.3066 0.0279 -0.9514
vn 0.3104 0.0423 -0.9497
vn -0.3146 0.0770 -0.9461
vn 0.3146 0.0770 -0.9461
vn -0.3068 0.1086 -0.9456
vn -0.7869 0.3040 -0.5370
vn 0.3068 0.1086 -0.9456
vn 0.7869 0.3041 -0.5370
vn -0.3013 0.1149 -0.9466
vn -0.3460 0.1076 -0.9320
vn 0.3013 0.1149 -0.9466
vn 0.3460 0.1076 -0.9320
vn -0.0000 0.0054 -1.0000
vn -0.0000 0.0779 -0.9970
vn -0.4036 0.1157 -0.9076
vn 0.4036 0.1158 -0.9076
vn -0.0000 0.2056 -0.9786
vn -0.4794 0.1966 -0.8553
vn 0.4794 0.1966 -0.8553
vn -0.0000 0.3629 -0.9318
vn -0.4759 0.3268 -0.8165
vn -0.0000 0.5549 -0.8319
vn 0.4759 0.3268 -0.8165
vn -0.4982 0.4867 -0.7176
vn -0.5729 0.5991 -0.5594
vn 0.5728 0.5991 -0.5594
vn -0.0000 0.7291 -0.6844
vn -0.8556 -0.0000 -0.5176
vn 0.8556 -0.0000 -0.5176
vn -0.9991 -0.0000 -0.0435
vn 0.9991 -0.0000 -0.0435
vn 0.8557 0.0002 -0.5175
vt -16.180058 0.210740
vt -16.270977 0.210740
vt -16.180058 0.120114
vt -16.270977 0.120114
vt -16.270977 0.093351
vt -16.180058 0.093351
vt -16.361898 0.093351
vt -16.361898 0.120114
vt -16.361898 0.210740
vt -16.452818 0.093351
vt -16.452818 0.210740
vt -16.452818 0.120114
vt -16.543737 0.093351
vt -16.543737 0.210740
vt -16.543737 0.120114
vt -16.634659 0.093351
vt -16.634659 0.120114
vt -16.634659 0.210740
vt -16.725578 0.120114
vt -16.725578 0.210740
vt -16.725578 0.093351
vt -16.816498 0.210740
vt -16.816498 0.120114
vt -16.816498 0.093261
vt -16.904535 0.210740
vt -16.904535 0.120114
vt -16.904535 0.093209
vt -16.998606 0.120515
vt -16.998606 0.210740
vt -17.089436 0.210740
vt -16.998606 0.093892
vt -16.904535 0.074851
vt -16.998606 0.081366
vt -16.998606 0.076627
vt -17.089481 0.088159
vt -17.089481 0.091790
vt -17.128344 0.099203
vt -17.089481 0.101756
vt -17.127218 0.102354
vt -17.089481 0.125110
vt -17.123354 0.111925
vt -17.164957 0.121086
vt -17.167208 0.118414
vt -17.116770 0.131108
vt -17.157228 0.130261
vt -17.144068 0.145885
vt -17.188755 0.141466
vt -17.191875 0.139289
vt -17.161125 0.160737
vt -17.178394 0.148692
vt -17.208261 0.167658
vt -17.212160 0.166245
vt -17.223629 0.199045
vt -17.174868 0.179766
vt -17.195448 0.172304
vt -17.182325 0.202644
vt -17.182026 0.210720
vt -17.204330 0.210715
vt -17.204704 0.200694
vt -17.218500 0.210647
vt -17.222643 0.210638
vt -17.219423 0.199411
vt 0.501869 0.139289
vt 0.501869 0.166245
vt 0.499950 0.138883
vt 0.499950 0.165993
vt 0.499950 0.198974
vt 0.502114 0.199045
vt 0.502437 0.210638
vt 0.499950 0.210675
vt 0.497464 0.210638
vt 0.497787 0.199045
vt 0.498031 0.166245
vt 0.498032 0.139289
vt 17.180058 0.210741
vt 17.180058 0.120115
vt 17.270977 0.210741
vt 17.270977 0.120115
vt 17.270977 0.093351
vt 17.180058 0.093351
vt 17.361898 0.093351
vt 17.361898 0.120115
vt 17.361898 0.210741
vt 17.452818 0.093351
vt 17.452818 0.210741
vt 17.452818 0.120115
vt 17.543737 0.093351
vt 17.543737 0.210741
vt 17.543737 0.120115
vt 17.634659 0.093351
vt 17.634659 0.120114
vt 17.634659 0.210741
vt 17.725578 0.120114
vt 17.725578 0.210740
vt 17.725578 0.093351
vt 17.816498 0.210740
vt 17.816498 0.120114
vt 17.816498 0.093261
vt 17.904535 0.210740
vt 17.904535 0.120114
vt 17.904535 0.093209
vt 17.998606 0.120515
vt 17.998606 0.210740
vt 18.089436 0.210740
vt 17.998606 0.093892
vt 17.904535 0.074851
vt 17.998606 0.081366
vt 17.998606 0.076627
vt 18.089481 0.088159
vt 18.089481 0.091789
vt 18.128344 0.099203
vt 18.089481 0.101755
vt 18.127218 0.102354
vt 18.089481 0.125110
vt 18.123354 0.111925
vt 18.164957 0.121085
vt 18.167208 0.118414
vt 18.116770 0.131108
vt 18.157228 0.130261
vt 18.144068 0.145884
vt 18.188755 0.141466
vt 18.191875 0.139289
vt 18.161125 0.160737
vt 18.178394 0.148692
vt 18.208261 0.167658
vt 18.212160 0.166245
vt 18.223629 0.199045
vt 18.174868 0.179765
vt 18.195448 0.172304
vt 18.182325 0.202644
vt 18.182026 0.210720
vt 18.204330 0.210715
vt 18.204704 0.200694
vt 18.218500 0.210647
vt 18.222643 0.210638
vt 18.219423 0.199411
vt 0.317237 -16.270977
vt 0.343077 -16.270977
vt 0.317237 -16.180058
vt 0.343077 -16.180058
vt 0.322297 -16.361898
vt 0.500047 -16.270979
vt 0.500047 -16.361898
vt 0.500047 -16.180058
vt 0.657017 -16.180058
vt 0.348136 -16.361898
vt 0.329552 -16.452818
vt 0.657017 -16.270977
vt 0.682856 -16.180058
vt 0.682857 -16.270977
vt 0.677798 -16.361898
vt 0.651958 -16.361898
vt 0.670543 -16.452818
vt 0.355392 -16.452818
vt 0.364514 -16.543737
vt 0.338714 -16.543737
vt 0.353795 -16.634659
vt 0.644703 -16.452818
vt 0.635581 -16.543737
vt 0.661382 -16.543737
vt 0.646301 -16.634659
vt 0.500047 -16.452818
vt 0.379593 -16.634659
vt 0.381546 -16.725578
vt 0.500048 -16.543737
vt 0.500048 -16.634659
vt 0.620502 -16.634659
vt 0.618550 -16.725578
vt 0.407346 -16.725578
vt 0.416717 -16.816498
vt 0.500048 -16.725578
vt 0.500049 -16.816498
vt 0.592750 -16.725578
vt 0.583380 -16.816498
vt 0.442273 -16.816498
vt 0.450782 -16.904535
vt 0.471325 -16.904535
vt 0.557824 -16.816498
vt 0.549316 -16.904535
vt 0.528773 -16.904535
vt 0.500049 -16.904535
vt 0.500049 -16.998606
vt 0.489772 -16.998606
vt 0.510326 -16.998606
vt 0.500049 -17.089481
vt 0.495589 -17.089481
vt 0.504510 -17.089481
vt 0.500049 -17.128517
vt 0.496562 -17.128344
vt 0.500050 -17.167555
vt 0.503537 -17.128344
vt 0.497534 -17.167208
vt 0.502565 -17.167208
vt 0.498131 -17.191875
vt 0.501968 -17.191875
vt 0.500050 -17.192457
vt -19.360128 0.210740
vt -19.360128 0.120114
vt -19.299963 0.210740
vt -19.299963 0.120114
vt -19.360128 0.093351
vt -19.299963 0.093351
vt -19.209044 0.093351
vt -19.209044 0.120114
vt -19.209044 0.210740
vt 0.317246 -19.360128
vt 0.343086 -19.360128
vt 0.317246 -19.299963
vt 0.343086 -19.299963
vt 0.500055 -19.360128
vt 0.343086 -19.209044
vt 0.317246 -19.209044
vt 0.500055 -19.209044
vt 0.500055 -19.299963
vt 0.657025 -19.299963
vt 0.657025 -19.360128
vt 0.657025 -19.209044
vt 0.682865 -19.299963
vt 0.682865 -19.360128
vt 0.682864 -19.209044
vt 20.360128 0.210740
vt 20.299963 0.210740
vt 20.360128 0.120114
vt 20.299963 0.120114
vt 20.360128 0.093351
vt 20.299963 0.093351
vt 20.209044 0.093351
vt 20.209044 0.120114
vt 20.209044 0.210740
vt 0.317236 -16.028522
vt 0.317236 -16.104290
vt 0.343076 -16.028522
vt 0.343076 -16.104290
vt 0.500046 -16.028522
vt 0.343077 -16.180058
vt 0.317237 -16.180058
vt 0.500047 -16.180058
vt 0.500047 -16.104290
vt 0.657017 -16.104290
vt 0.657017 -16.028522
vt 0.657017 -16.180056
vt 0.682857 -16.104290
vt 0.682856 -16.028522
vt 0.682857 -16.180056
vt -16.180058 0.210740
vt -16.180058 0.120115
vt -16.104290 0.210741
vt -16.104290 0.120115
vt -16.180058 0.093351
vt -16.028522 0.210740
vt -16.104290 0.093351
vt -16.028522 0.120115
vt -16.028522 0.093351
vt 17.180058 0.210741
vt 17.104290 0.210741
vt 17.180056 0.120115
vt 17.104290 0.120115
vt 17.028522 0.210741
vt 17.180056 0.093351
vt 17.028522 0.120115
vt 17.104290 0.093351
vt 17.028522 0.093351
vt -12.844642 0.210740
vt -12.844642 0.120115
vt -12.693108 0.210740
vt -12.693108 0.120115
vt -12.844641 0.093351
vt -12.693108 0.093351
vt 0.317227 -12.693108
vt 0.317227 -12.844641
vt 0.343067 -12.693108
vt 0.343067 -12.844641
vt 0.500037 -12.844641
vt 0.500037 -12.693108
vt 0.657008 -12.844641
vt 0.657007 -12.693108
vt 0.682847 -12.693108
vt 0.682847 -12.844641
vt 13.844641 0.210741
vt 13.693108 0.210741
vt 13.844641 0.120115
vt 13.693108 0.120115
vt 13.693108 0.093351
vt 13.844641 0.093351
s 1
g Bsh_Hull_Rostrum_Dredn_C_001_1_hull_bottom
usemtl hull_bottom
f 3/1/1 2/2/2 1/3/3
f 4/4/4 1/3/3 2/2/2
f 4/4/4 5/5/5 1/3/3
f 6/6/6 1/3/3 5/5/5
f 5/5/5 4/4/4 7/7/7
f 4/4/4 2/2/2 8/8/8
f 8/8/8 7/7/7 4/4/4
f 9/9/9 8/8/8 2/2/2
f 7/7/7 8/8/8 10/10/10
f 9/9/9 11/11/11 8/8/8
f 12/12/12 10/10/10 8/8/8
f 12/12/12 8/8/8 11/11/11
f 10/10/10 12/12/12 13/13/13
f 11/11/11 14/14/14 12/12/12
f 15/15/15 13/13/13 12/12/12
f 15/15/15 12/12/12 14/14/14
f 13/13/13 15/15/15 16/16/16
f 15/15/15 14/14/14 17/17/17
f 17/17/17 16/16/16 15/15/15
f 18/18/18 17/17/17 14/14/14
f 17/17/17 19/19/19 16/16/16
f 17/17/17 18/18/18 19/19/19
f 20/20/20 19/19/19 18/18/18
f 21/21/21 16/16/16 19/19/19
f 20/20/20 22/22/22 19/19/19
f 19/19/19 23/23/23 21/21/21
f 23/23/23 19/19/19 22/22/22
f 24/24/24 21/21/21 23/23/23
f 22/22/22 25/25/25 23/23/23
f 23/23/23 26/26/26 24/24/24
f 26/26/26 23/23/23 25/25/25
f 27/27/27 24/24/24 26/26/26
f 26/26/26 25/25/25 28/28/28
f 29/29/29 28/28/28 25/25/25
f 29/29/29 30/30/30 28/28/28
f 27/27/27 26/26/26 31/31/31
f 28/28/28 31/31/31 26/26/26
f 27/27/27 31/31/31 32/32/32
f 33/33/33 32/32/32 31/31/31
f 34/34/34 32/32/32 33/33/33
f 34/34/34 33/33/33 35/35/35
f 36/36/36 35/35/35 33/33/33
f 33/33/33 31/31/31 36/36/36
f 35/35/35 36/36/36 37/37/37
f 31/31/31 28/28/28 38/38/38
f 38/38/38 36/36/36 31/31/31
f 39/39/39 37/37/37 36/36/36
f 36/36/36 38/38/38 39/39/39
f 40/40/40 38/38/38 28/28/28
f 40/40/40 28/28/28 30/30/30
f 38/38/38 40/40/40 41/41/41
f 41/41/41 39/39/39 38/38/38
f 39/39/39 42/42/42 37/37/37
f 43/43/43 37/37/37 42/42/42
f 40/40/40 30/30/30 44/44/44
f 44/44/44 41/41/41 40/40/40
f 41/41/41 45/45/45 39/39/39
f 42/42/42 39/39/39 45/45/45
f 44/44/44 46/46/46 41/41/41
f 44/44/44 30/30/30 46/46/46
f 45/45/45 41/41/41 46/46/46
f 42/42/42 47/47/47 43/43/43
f 48/48/48 43/43/43 47/47/47
f 46/46/46 49/49/49 45/45/45
f 46/46/46 30/30/30 49/49/49
f 45/45/45 50/50/50 42/42/42
f 50/50/50 45/45/45 49/49/49
f 47/47/47 42/42/42 50/50/50
f 47/47/47 51/51/51 48/48/48
f 52/52/52 48/48/48 51/51/51
f 52/52/52 51/51/51 53/53/53
f 49/49/49 30/30/30 54/54/54
f 49/49/49 54/54/54 50/50/50
f 50/50/50 55/55/55 47/47/47
f 55/55/55 50/50/50 54/54/54
f 51/51/51 47/47/47 55/55/55
f 30/30/30 56/56/56 54/54/54
f 54/54/54 56/56/56 55/55/55
f 56/56/56 30/30/30 57/57/57
f 57/57/57 58/58/58 56/56/56
f 59/59/59 55/55/55 56/56/56
f 59/59/59 56/56/56 58/58/58
f 55/55/55 59/59/59 51/51/51
f 58/58/58 60/60/60 59/59/59
f 61/61/61 53/53/53 60/60/60
f 62/62/62 53/53/53 51/51/51
f 62/62/62 51/51/51 59/59/59
f 62/62/62 59/59/59 60/60/60
f 62/62/62 60/60/60 53/53/53
f 65/63/63 64/64/64 63/65/65
f 66/66/66 63/65/65 64/64/64
f 66/66/66 64/64/64 67/67/67
f 68/68/68 67/67/67 64/64/64
f 68/68/68 69/69/69 67/67/67
f 70/70/70 67/67/67 69/69/69
f 70/70/70 71/71/71 67/67/67
f 72/72/72 67/67/67 71/71/71
f 72/72/72 73/73/73 67/67/67
f 66/66/66 67/67/67 73/73/73
f 66/66/66 73/73/73 63/65/65
f 74/74/74 63/65/65 73/73/73
f 77/75/75 76/76/76 75/77/77
f 78/78/78 75/77/77 76/76/76
f 78/78/78 76/76/76 79/79/79
f 80/80/80 79/79/79 76/76/76
f 79/79/79 81/81/81 78/78/78
f 78/78/78 82/82/82 75/77/77
f 82/82/82 78/78/78 81/81/81
f 83/83/83 75/77/77 82/82/82
f 81/81/81 84/84/84 82/82/82
f 83/83/83 82/82/82 85/85/85
f 86/86/86 82/82/82 84/84/84
f 86/86/86 85/85/85 82/82/82
f 84/84/84 87/87/87 86/86/86
f 85/85/85 86/86/86 88/88/88
f 89/89/89 86/86/86 87/87/87
f 89/89/89 88/88/88 86/86/86
f 87/87/87 90/90/90 89/89/89
f 89/89/89 91/91/91 88/88/88
f 91/91/91 89/89/89 90/90/90
f 92/92/92 88/88/88 91/91/91
f 91/91/91 90/90/90 93/93/93
f 91/91/91 93/93/93 92/92/92
f 94/94/94 92/92/92 93/93/93
f 95/95/95 93/93/93 90/90/90
f 94/94/94 93/93/93 96/96/96
f 93/93/93 95/95/95 97/97/97
f 97/97/97 96/96/96 93/93/93
f 98/98/98 97/97/97 95/95/95
f 96/96/96 97/97/97 99/99/99
f 97/97/97 98/98/98 100/100/100
f 100/100/100 99/99/99 97/97/97
f 101/101/101 100/100/100 98/98/98
f 100/100/100 102/102/102 99/99/99
f 103/103/103 99/99/99 102/102/102
f 103/103/103 102/102/102 104/104/104
f 101/101/101 105/105/105 100/100/100
f 102/102/102 100/100/100 105/105/105
f 101/101/101 106/106/106 105/105/105
f 107/107/107 105/105/105 106/106/106
f 106/106/106 108/108/108 107/107/107
f 108/108/108 109/109/109 107/107/107
f 110/110/110 107/107/107 109/109/109
f 107/107/107 110/110/110 105/105/105
f 109/109/109 111/111/111 110/110/110
f 105/105/105 112/112/112 102/102/102
f 112/112/112 105/105/105 110/110/110
f 113/113/113 110/110/110 111/111/111
f 110/110/110 113/113/113 112/112/112
f 114/114/114 102/102/102 112/112/112
f 114/114/114 104/104/104 102/102/102
f 112/112/112 115/115/115 114/114/114
f 115/115/115 112/112/112 113/113/113
f 113/113/113 111/111/111 116/116/116
f 117/117/117 116/116/116 111/111/111
f 104/104/104 114/114/114 118/118/118
f 118/118/118 114/114/114 115/115/115
f 115/115/115 113/113/113 119/119/119
f 116/116/116 119/119/119 113/113/113
f 118/118/118 115/115/115 120/120/120
f 104/104/104 118/118/118 120/120/120
f 119/119/119 120/120/120 115/115/115
f 116/116/116 117/117/117 121/121/121
f 122/122/74 121/121/121 117/117/117
f 120/120/120 119/119/119 123/123/122
f 104/104/104 120/120/120 123/123/122
f 119/119/119 116/116/116 124/124/123
f 124/124/123 123/123/122 119/119/119
f 121/121/121 124/124/123 116/116/116
f 121/121/121 122/122/74 125/125/124
f 126/126/125 125/125/124 122/122/74
f 126/126/125 127/127/126 125/125/124
f 104/104/104 123/123/122 128/128/127
f 123/123/122 124/124/123 128/128/127
f 124/124/123 121/121/121 129/129/128
f 129/129/128 128/128/127 124/124/123
f 125/125/124 129/129/128 121/121/121
f 130/130/129 104/104/104 128/128/127
f 128/128/127 129/129/128 130/130/129
f 104/104/104 130/130/129 131/131/130
f 131/131/130 130/130/129 132/132/131
f 133/133/132 130/130/129 129/129/128
f 133/133/132 132/132/131 130/130/129
f 129/129/128 125/125/124 133/133/132
f 132/132/131 133/133/132 134/134/133
f 135/135/71 134/134/133 127/127/126
f 136/136/134 125/125/124 127/127/126
f 136/136/134 133/133/132 125/125/124
f 136/136/134 134/134/133 133/133/132
f 136/136/134 127/127/126 134/134/133
f 139/137/135 138/138/136 137/139/6
f 140/140/137 137/139/6 138/138/136
f 139/137/135 141/141/138 138/138/136
f 138/138/136 142/142/139 140/140/137
f 142/142/139 138/138/136 143/143/139
f 144/144/139 140/140/137 142/142/139
f 144/144/139 142/142/139 145/145/140
f 146/146/141 138/138/136 141/141/138
f 146/146/141 143/143/139 138/138/136
f 141/141/138 147/147/10 146/146/141
f 148/148/142 145/145/140 142/142/139
f 142/142/139 143/143/139 148/148/142
f 145/145/140 148/148/142 149/149/80
f 150/150/143 149/149/80 148/148/142
f 150/150/143 148/148/142 151/151/144
f 152/152/145 151/151/144 148/148/142
f 152/152/145 148/148/142 143/143/139
f 151/151/144 152/152/145 153/153/84
f 154/154/146 146/146/141 147/147/10
f 146/146/141 154/154/146 143/143/139
f 154/154/146 147/147/10 155/155/147
f 156/156/148 155/155/147 147/147/10
f 156/156/148 157/157/16 155/155/147
f 158/158/149 153/153/84 152/152/145
f 152/152/145 143/143/139 158/158/149
f 158/158/149 159/159/150 153/153/84
f 160/160/87 153/153/84 159/159/150
f 160/160/87 159/159/150 161/161/90
f 162/162/139 143/143/139 154/154/146
f 162/162/139 158/158/149 143/143/139
f 154/154/146 155/155/147 162/162/139
f 158/158/149 162/162/139 159/159/150
f 163/163/151 155/155/147 157/157/16
f 157/157/16 164/164/21 163/163/151
f 165/165/139 162/162/139 155/155/147
f 165/165/139 159/159/150 162/162/139
f 165/165/139 155/155/147 166/166/139
f 165/165/139 166/166/139 159/159/150
f 163/163/151 166/166/139 155/155/147
f 167/167/152 161/161/90 159/159/150
f 167/167/152 159/159/150 166/166/139
f 161/161/90 167/167/152 168/168/95
f 169/169/153 163/163/151 164/164/21
f 164/164/21 170/170/154 169/169/153
f 166/166/139 163/163/151 171/171/139
f 166/166/139 171/171/139 167/167/152
f 169/169/153 171/171/139 163/163/151
f 171/171/139 169/169/153 172/172/139
f 173/173/155 168/168/95 167/167/152
f 173/173/155 167/167/152 171/171/139
f 171/171/139 172/172/139 173/173/155
f 168/168/95 173/173/155 174/174/156
f 175/175/157 169/169/153 170/170/154
f 175/175/157 172/172/139 169/169/153
f 170/170/154 176/176/27 175/175/157
f 177/177/158 175/175/157 176/176/27
f 175/175/157 177/177/158 172/172/139
f 178/178/159 174/174/156 173/173/155
f 178/178/159 173/173/155 172/172/139
f 174/174/156 178/178/159 179/179/101
f 180/180/160 179/179/101 178/178/159
f 178/178/159 172/172/139 180/180/160
f 181/181/161 172/172/139 177/177/158
f 181/181/161 180/180/160 172/172/139
f 181/181/161 177/177/158 182/182/162
f 181/181/161 182/182/162 180/180/160
f 183/183/163 182/182/162 177/177/158
f 184/184/164 180/180/160 182/182/162
f 182/182/162 183/183/163 185/185/165
f 182/182/162 185/185/165 184/184/164
f 186/186/166 185/185/165 183/183/163
f 187/187/167 184/184/164 185/185/165
f 185/185/165 186/186/166 188/188/168
f 185/185/165 188/188/168 187/187/167
f 189/189/169 188/188/168 186/186/166
f 188/188/168 189/189/169 190/190/170
f 191/191/171 187/187/167 188/188/168
f 188/188/168 190/190/170 191/191/171
f 192/192/172 190/190/170 189/189/169
f 193/193/117 191/191/171 190/190/170
f 192/192/172 194/194/173 190/190/170
f 193/193/117 190/190/170 195/195/174
f 196/196/175 190/190/170 194/194/173
f 196/196/175 195/195/174 190/190/170
f 199/197/1 198/198/3 197/199/1
f 200/200/3 197/199/1 198/198/3
f 198/198/3 201/201/6 200/200/3
f 202/202/6 200/200/3 201/201/6
f 202/202/6 203/203/6 200/200/3
f 200/200/3 204/204/3 197/199/1
f 204/204/3 200/200/3 203/203/6
f 205/205/1 197/199/1 204/204/3
f 208/206/176 207/207/137 206/208/176
f 209/209/137 206/208/176 207/207/137
f 207/207/137 210/210/139 209/209/137
f 209/209/137 211/211/137 206/208/176
f 212/212/176 206/208/176 211/211/137
f 211/211/137 209/209/137 213/213/139
f 214/214/139 209/209/137 210/210/139
f 214/214/139 213/213/139 209/209/137
f 214/214/139 210/210/139 215/215/140
f 214/214/139 215/215/140 213/213/139
f 216/216/140 215/215/140 210/210/139
f 217/217/140 213/213/139 215/215/140
f 215/215/140 216/216/140 218/218/177
f 215/215/140 218/218/177 217/217/140
f 219/219/177 218/218/177 216/216/140
f 220/220/177 217/217/140 218/218/177
f 223/221/75 222/222/75 221/223/76
f 224/224/76 221/223/76 222/222/75
f 221/223/76 224/224/76 225/225/80
f 226/226/80 225/225/80 224/224/76
f 226/226/80 224/224/76 227/227/80
f 224/224/76 222/222/75 228/228/76
f 228/228/76 227/227/80 224/224/76
f 229/229/75 228/228/76 222/222/75
f 232/230/6 231/231/6 230/232/137
f 233/233/137 230/232/137 231/231/6
f 230/232/137 233/233/137 234/234/139
f 233/233/137 231/231/6 235/235/137
f 236/236/6 235/235/137 231/231/6
f 235/235/137 237/237/139 233/233/137
f 238/238/139 234/234/139 233/233/137
f 238/238/139 233/233/137 237/237/139
f 238/238/139 239/239/140 234/234/139
f 238/238/139 237/237/139 239/239/140
f 240/240/140 234/234/139 239/239/140
f 241/241/140 239/239/140 237/237/139
f 239/239/140 242/242/80 240/240/140
f 239/239/140 241/241/140 242/242/80
f 243/243/80 240/240/140 242/242/80
f 244/244/80 242/242/80 241/241/140
f 247/245/178 246/246/3 245/247/178
f 248/248/3 245/247/178 246/246/3
f 246/246/3 249/249/6 248/248/3
f 245/247/178 248/248/3 250/250/178
f 251/251/6 248/248/3 249/249/6
f 252/252/3 250/250/178 248/248/3
f 251/251/6 253/253/6 248/248/3
f 252/252/3 248/248/3 253/253/6
f 256/254/179 255/255/179 254/256/76
f 257/257/76 254/256/76 255/255/179
f 255/255/179 258/258/179 257/257/76
f 254/256/76 257/257/76 259/259/80
f 260/260/76 257/257/76 258/258/179
f 261/261/80 259/259/80 257/257/76
f 260/260/76 262/262/80 257/257/76
f 261/261/80 257/257/76 262/262/80
f 265/263/178 264/264/3 263/265/178
f 266/266/3 263/265/178 264/264/3
f 264/264/3 267/267/6 266/266/3
f 268/268/6 266/266/3 267/267/6
f 271/269/6 270/270/6 269/271/137
f 272/272/137 269/271/137 270/270/6
f 272/272/137 273/273/139 269/271/137
f 274/274/139 269/271/137 273/273/139
f 273/273/139 275/275/140 274/274/139
f 276/276/140 274/274/139 275/275/140
f 276/276/140 275/275/140 277/277/80
f 278/278/80 277/277/80 275/275/140
f 281/279/179 280/280/179 279/281/76
f 282/282/76 279/281/76 280/280/179
f 282/282/76 283/283/80 279/281/76
f 284/284/180 279/281/76 283/283/80
