# Blender 5.1.0
# www.blender.org
mtllib Bsh_Hull_Midsection_Dredn_D3_001_3.mtl
o Bsh_Hull_Midsection_Dredn_D3_001_3
v -5.228706 5.000011 5.099145
v -12.384519 -4.999946 5.099131
v -12.384505 5.000031 5.099130
v 12.384506 -4.999958 5.099141
v 5.228706 5.000006 5.099150
v 12.384501 5.000020 5.099138
vn -0.0000 -0.0000 1.0000
vt 0.674430 0.527387
vt 0.674430 0.456964
vt 0.573644 0.527386
vt 0.426356 0.527386
vt 0.325570 0.527386
vt 0.325570 0.456964
s 1
g Bsh_Hull_Midsection_Dredn_D3_001_3_wood_deck_1
usemtl wood_deck_1
f 3/1/1 2/2/1 1/3/1
f 2/2/1 5/4/1 1/3/1
f 6/5/1 5/4/1 4/6/1
f 2/2/1 4/6/1 5/4/1
