# Blender 5.1.0
# www.blender.org
mtllib Bsh_Hull_Stern_Dredn_AD1_002_4.mtl
o Bsh_Hull_Stern_Dredn_AD1_002_4
v -9.634126 -34.641064 5.534392
v -9.581402 -34.513767 5.099143
v -9.581400 -34.513767 5.534392
v -9.634127 -34.641064 5.099143
v -9.581398 -34.768360 5.534392
v -9.581400 -34.768360 5.099143
v -9.454107 -34.461040 5.099143
v -9.581400 -34.513767 5.534392
v -9.581402 -34.513767 5.099143
v -9.454104 -34.461040 5.534392
v -9.326812 -34.513767 5.099143
v -9.326810 -34.513767 5.534392
v -9.274083 -34.641060 5.099143
v -9.326810 -34.513767 5.534392
v -9.326812 -34.513767 5.099143
v -9.274081 -34.641060 5.534392
v -9.326810 -34.768356 5.099143
v -9.326809 -34.768356 5.534392
v -9.454104 -34.821087 5.099142
v -9.326809 -34.768356 5.534392
v -9.326810 -34.768356 5.099143
v -9.454103 -34.821087 5.534392
v -9.581400 -34.768360 5.099143
v -9.581398 -34.768360 5.534392
v -9.581398 -34.768360 5.534392
v -9.326809 -34.768356 5.534392
v -9.454103 -34.821087 5.534392
v -9.581400 -34.513767 5.534392
v -9.634126 -34.641064 5.534392
v -9.326810 -34.513767 5.534392
v -9.274081 -34.641060 5.534392
v -9.454104 -34.461040 5.534392
v 9.581405 -34.513779 5.099137
v 9.634129 -34.641075 5.534386
v 9.581403 -34.513779 5.534386
v 9.634130 -34.641075 5.099136
v 9.581402 -34.768372 5.534386
v 9.581403 -34.768372 5.099137
v 9.581403 -34.513779 5.534386
v 9.454110 -34.461048 5.099137
v 9.581405 -34.513779 5.099137
v 9.454108 -34.461048 5.534386
v 9.326816 -34.513779 5.099137
v 9.326813 -34.513779 5.534386
v 9.326813 -34.513779 5.534386
v 9.274086 -34.641071 5.099137
v 9.326816 -34.513779 5.099137
v 9.274085 -34.641071 5.534386
v 9.326813 -34.768364 5.099137
v 9.326812 -34.768364 5.534386
v 9.326812 -34.768364 5.534386
v 9.454109 -34.821098 5.099135
v 9.326813 -34.768364 5.099137
v 9.454106 -34.821098 5.534386
v 9.581403 -34.768372 5.099137
v 9.581402 -34.768372 5.534386
v 9.581403 -34.513779 5.534386
v 9.326813 -34.513779 5.534386
v 9.454108 -34.461048 5.534386
v 9.326812 -34.768364 5.534386
v 9.274085 -34.641071 5.534386
v 9.581402 -34.768372 5.534386
v 9.634129 -34.641075 5.534386
v 9.454106 -34.821098 5.534386
v 1.923589 -48.813824 5.233860
v 2.049937 -49.202690 5.527712
v 1.923588 -48.813824 5.527711
v 2.049940 -49.202690 5.233861
v 1.923587 -49.591553 5.527712
v 1.923589 -49.591553 5.233861
v 1.923588 -48.813824 5.527711
v 1.592799 -48.573490 5.233860
v 1.923589 -48.813824 5.233860
v 1.592797 -48.573490 5.527712
v 1.183918 -48.573490 5.233859
v 1.183918 -48.573490 5.527711
v 0.853128 -48.813824 5.233859
v 0.853128 -48.813824 5.527710
v 0.853128 -48.813824 5.527710
v 0.726778 -49.202690 5.233859
v 0.853128 -48.813824 5.233859
v 0.726777 -49.202690 5.527710
v 0.853128 -49.591557 5.233859
v 0.853128 -49.591557 5.527711
v 0.853128 -49.591557 5.527711
v 1.183920 -49.831890 5.233859
v 0.853128 -49.591557 5.233859
v 1.183919 -49.831890 5.527711
v 1.592799 -49.831890 5.233860
v 1.592796 -49.831890 5.527712
v 1.923589 -49.591553 5.233861
v 1.923587 -49.591553 5.527712
v 1.946972 -49.202690 6.014087
v 1.840286 -48.874352 6.158974
v 1.840286 -48.874352 6.014087
v 1.946972 -49.202690 6.158976
v 1.840286 -49.531044 6.014087
v 1.840286 -49.531044 6.158975
v 1.560979 -48.671421 6.158974
v 1.840286 -48.874352 6.014087
v 1.840286 -48.874352 6.158974
v 1.560979 -48.671421 6.014087
v 1.215734 -48.671421 6.158974
v 1.215735 -48.671421 6.014086
v 0.936426 -48.874352 6.158974
v 0.936426 -48.874352 6.014086
v 0.829741 -49.202690 6.158973
v 0.936426 -48.874352 6.014086
v 0.936426 -48.874352 6.158974
v 0.829741 -49.202690 6.014085
v 0.936427 -49.531048 6.158974
v 0.936427 -49.531048 6.014087
v 1.215735 -49.733978 6.158974
v 0.936427 -49.531048 6.014087
v 0.936427 -49.531048 6.158974
v 1.215735 -49.733978 6.014087
v 1.560978 -49.733978 6.158975
v 1.560978 -49.733978 6.014087
v 1.840286 -49.531044 6.158975
v 1.840286 -49.531044 6.014087
v -2.049929 -49.202686 5.527707
v -1.923576 -48.813820 5.233855
v -1.923578 -48.813820 5.527707
v -2.049927 -49.202686 5.233855
v -1.923579 -49.591557 5.527707
v -1.923576 -49.591557 5.233855
v -1.592786 -48.573486 5.233855
v -1.923578 -48.813820 5.527707
v -1.923576 -48.813820 5.233855
v -1.592788 -48.573486 5.527707
v -1.183908 -48.573486 5.233856
v -1.183908 -48.573486 5.527708
v -0.853118 -48.813820 5.233857
v -0.853118 -48.813820 5.527708
v -0.726767 -49.202686 5.233857
v -0.853118 -48.813820 5.527708
v -0.853118 -48.813820 5.233857
v -0.726767 -49.202686 5.527709
v -0.853118 -49.591553 5.233857
v -0.853118 -49.591553 5.527709
v -1.183907 -49.831886 5.233857
v -0.853118 -49.591553 5.527709
v -0.853118 -49.591553 5.233857
v -1.183907 -49.831886 5.527708
v -1.592786 -49.831886 5.233855
v -1.592788 -49.831886 5.527707
v -1.923576 -49.591557 5.233855
v -1.923579 -49.591557 5.527707
v -1.840278 -48.874344 6.158969
v -1.946964 -49.202686 6.014081
v -1.840278 -48.874344 6.014081
v -1.946964 -49.202686 6.158969
v -1.840278 -49.531048 6.014082
v -1.840278 -49.531048 6.158969
v -1.840278 -48.874344 6.014081
v -1.560971 -48.671417 6.158969
v -1.840278 -48.874344 6.158969
v -1.560971 -48.671417 6.014082
v -1.215728 -48.671417 6.158970
v -1.215727 -48.671417 6.014082
v -0.936420 -48.874344 6.158970
v -0.936420 -48.874344 6.014082
v -0.936420 -48.874344 6.014082
v -0.829733 -49.202686 6.158972
v -0.936420 -48.874344 6.158970
v -0.829733 -49.202686 6.014084
v -0.936419 -49.531044 6.158970
v -0.936419 -49.531044 6.014082
v -0.936419 -49.531044 6.014082
v -1.215727 -49.733974 6.158970
v -0.936419 -49.531044 6.158970
v -1.215727 -49.733974 6.014082
v -1.560971 -49.733974 6.158970
v -1.560971 -49.733974 6.014082
v -1.840278 -49.531048 6.158969
v -1.840278 -49.531048 6.014082
v -0.285812 -55.180984 5.205572
v 0.285833 -56.824924 5.205572
v -0.285812 -56.824932 5.205573
v 0.285833 -55.180992 5.205572
v -0.285812 -55.180984 5.099134
v 0.285833 -55.180992 5.205572
v -0.285812 -55.180984 5.205572
v 0.285833 -55.180992 5.099136
v 0.285833 -55.180992 5.099136
v 0.285833 -56.824924 5.205572
v 0.285833 -55.180992 5.205572
v 0.285833 -56.824924 5.099136
v 0.285833 -56.824924 5.099136
v -0.285812 -56.824932 5.205573
v 0.285833 -56.824924 5.205572
v -0.285812 -56.824932 5.099135
v -0.285812 -56.824932 5.099135
v -0.285812 -55.180984 5.205572
v -0.285812 -56.824932 5.205573
v -0.285812 -55.180984 5.099134
v 0.113114 -55.426773 5.099134
v 0.159966 -55.539879 5.607677
v 0.113113 -55.426773 5.607677
v 0.159966 -55.539879 5.099134
v 0.113114 -55.652985 5.607677
v 0.113115 -55.652985 5.099134
v 0.113113 -55.426773 5.607677
v 0.000012 -55.379925 5.099134
v 0.113114 -55.426773 5.099134
v 0.000010 -55.379925 5.607677
v -0.113096 -55.426765 5.099134
v -0.113097 -55.426765 5.607677
v -0.113097 -55.426765 5.607677
v -0.159943 -55.539883 5.099134
v -0.113096 -55.426765 5.099134
v -0.159943 -55.539883 5.607677
v -0.113095 -55.652988 5.099134
v -0.113096 -55.652988 5.607678
v -0.113096 -55.652988 5.607678
v 0.000012 -55.699837 5.099134
v -0.113095 -55.652988 5.099134
v 0.000011 -55.699837 5.607677
v 0.113115 -55.652985 5.099134
v 0.113114 -55.652985 5.607677
v 0.150322 -55.389565 5.607677
v 0.212580 -55.539879 5.707255
v 0.150321 -55.389565 5.707256
v 0.212580 -55.539879 5.607677
v 0.150321 -55.690189 5.707255
v 0.150322 -55.690189 5.607677
v 0.150321 -55.389565 5.707256
v 0.000009 -55.327309 5.607677
v 0.150322 -55.389565 5.607677
v 0.000009 -55.327309 5.707255
v -0.150300 -55.389561 5.607677
v -0.150300 -55.389561 5.707256
v -0.150300 -55.389561 5.707256
v -0.212561 -55.539871 5.607677
v -0.150300 -55.389561 5.607677
v -0.212561 -55.539871 5.707256
v -0.150300 -55.690186 5.607677
v -0.150300 -55.690186 5.707256
v -0.150300 -55.690186 5.707256
v 0.000010 -55.752457 5.607677
v -0.150300 -55.690186 5.607677
v 0.000010 -55.752457 5.707256
v 0.150322 -55.690189 5.607677
v 0.150321 -55.690189 5.707255
v 0.113116 -56.372711 5.099134
v 0.159966 -56.485813 5.607677
v 0.113116 -56.372711 5.607677
v 0.159967 -56.485813 5.099135
v 0.113114 -56.598919 5.607677
v 0.113115 -56.598919 5.099135
v 0.113116 -56.372711 5.607677
v 0.000011 -56.325863 5.099134
v 0.113116 -56.372711 5.099134
v 0.000011 -56.325863 5.607677
v -0.113094 -56.372704 5.099134
v -0.113095 -56.372704 5.607678
v -0.113095 -56.372704 5.607678
v -0.159942 -56.485809 5.099134
v -0.113094 -56.372704 5.099134
v -0.159943 -56.485809 5.607678
v -0.113095 -56.598915 5.099134
v -0.113096 -56.598915 5.607678
v -0.113096 -56.598915 5.607678
v 0.000012 -56.645767 5.099134
v -0.113095 -56.598915 5.099134
v 0.000011 -56.645767 5.607677
v 0.113115 -56.598919 5.099135
v 0.113114 -56.598919 5.607677
v 0.150322 -56.335503 5.607677
v 0.212581 -56.485813 5.707256
v 0.150322 -56.335503 5.707256
v 0.212580 -56.485813 5.607677
v 0.150322 -56.636127 5.707256
v 0.150322 -56.636127 5.607678
v 0.150322 -56.335503 5.707256
v 0.000012 -56.273247 5.607677
v 0.150322 -56.335503 5.607677
v 0.000012 -56.273247 5.707256
v -0.150300 -56.335499 5.607678
v -0.150300 -56.335499 5.707256
v -0.150300 -56.335499 5.707256
v -0.212560 -56.485809 5.607678
v -0.150300 -56.335499 5.607678
v -0.212560 -56.485809 5.707257
v -0.150299 -56.636124 5.607678
v -0.150300 -56.636124 5.707256
v -0.150300 -56.636124 5.707256
v 0.000010 -56.698395 5.607677
v -0.150299 -56.636124 5.607678
v 0.000010 -56.698395 5.707256
v 0.150322 -56.636127 5.607678
v 0.150322 -56.636127 5.707256
v -10.384751 -27.214760 5.205580
v -10.789023 -28.907648 5.205581
v -10.953529 -27.271961 5.205581
v -10.220244 -28.850443 5.205580
v -10.384753 -27.214760 5.099144
v -10.953529 -27.271961 5.205581
v -10.953529 -27.271961 5.099144
v -10.384751 -27.214760 5.205580
v -10.953529 -27.271961 5.099144
v -10.789023 -28.907648 5.205581
v -10.789023 -28.907648 5.099144
v -10.953529 -27.271961 5.205581
v -10.789023 -28.907648 5.099144
v -10.220244 -28.850443 5.205580
v -10.220246 -28.850443 5.099144
v -10.789023 -28.907648 5.205581
v -10.220246 -28.850443 5.099144
v -10.384751 -27.214760 5.205580
v -10.384753 -27.214760 5.099144
v -10.220244 -28.850443 5.205580
v -10.792380 -27.616455 5.607687
v -10.757080 -27.499233 5.099143
v -10.757080 -27.499233 5.607687
v -10.792380 -27.616455 5.099143
v -10.734445 -27.724304 5.607687
v -10.734446 -27.724304 5.099143
v -10.649235 -27.441298 5.099143
v -10.757080 -27.499233 5.607687
v -10.757080 -27.499233 5.099143
v -10.649234 -27.441298 5.607687
v -10.532007 -27.476595 5.099143
v -10.532005 -27.476595 5.607685
v -10.474080 -27.584444 5.099143
v -10.532005 -27.476595 5.607685
v -10.532007 -27.476595 5.099143
v -10.474077 -27.584444 5.607685
v -10.509370 -27.701672 5.099143
v -10.509369 -27.701672 5.607685
v -10.617222 -27.759598 5.099143
v -10.509369 -27.701672 5.607685
v -10.509370 -27.701672 5.099143
v -10.617222 -27.759598 5.607687
v -10.734446 -27.724304 5.099143
v -10.734445 -27.724304 5.607687
v -10.844730 -27.621719 5.707265
v -10.797826 -27.465937 5.607687
v -10.797826 -27.465937 5.707265
v -10.844730 -27.621719 5.607687
v -10.767743 -27.765045 5.707265
v -10.767743 -27.765045 5.607687
v -10.654498 -27.388947 5.607687
v -10.797826 -27.465937 5.707265
v -10.797826 -27.465937 5.607687
v -10.654498 -27.388947 5.707265
v -10.498713 -27.435852 5.607685
v -10.498713 -27.435852 5.707263
v -10.421723 -27.579178 5.607684
v -10.498713 -27.435852 5.707263
v -10.498713 -27.435852 5.607685
v -10.421723 -27.579178 5.707263
v -10.468629 -27.734964 5.607684
v -10.468629 -27.734964 5.707263
v -10.611956 -27.811951 5.607687
v -10.468629 -27.734964 5.707263
v -10.468629 -27.734964 5.607684
v -10.611956 -27.811951 5.707265
v -10.767743 -27.765045 5.607687
v -10.767743 -27.765045 5.707265
v -10.697721 -28.557644 5.607687
v -10.662424 -28.440416 5.099143
v -10.662424 -28.440416 5.607687
v -10.697721 -28.557644 5.099143
v -10.639787 -28.665489 5.607687
v -10.639788 -28.665489 5.099143
v -10.554575 -28.382486 5.099143
v -10.662424 -28.440416 5.607687
v -10.662424 -28.440416 5.099143
v -10.554575 -28.382486 5.607685
v -10.437351 -28.417782 5.099143
v -10.437348 -28.417782 5.607685
v -10.379419 -28.525631 5.099143
v -10.437348 -28.417782 5.607685
v -10.437351 -28.417782 5.099143
v -10.379416 -28.525631 5.607684
v -10.414712 -28.642853 5.099143
v -10.414711 -28.642853 5.607684
v -10.522565 -28.700785 5.099143
v -10.414711 -28.642853 5.607684
v -10.414712 -28.642853 5.099143
v -10.522564 -28.700785 5.607685
v -10.639788 -28.665489 5.099143
v -10.639787 -28.665489 5.607687
v -10.750071 -28.562908 5.707265
v -10.703167 -28.407120 5.607687
v -10.703167 -28.407120 5.707265
v -10.750071 -28.562908 5.607687
v -10.673083 -28.706234 5.707265
v -10.673083 -28.706234 5.607687
v -10.559841 -28.330130 5.607685
v -10.703167 -28.407120 5.707265
v -10.703167 -28.407120 5.607687
v -10.559841 -28.330130 5.707264
v -10.404053 -28.377039 5.607685
v -10.404053 -28.377039 5.707263
v -10.327063 -28.520365 5.607684
v -10.404053 -28.377039 5.707263
v -10.404053 -28.377039 5.607685
v -10.327063 -28.520365 5.707263
v -10.373970 -28.676151 5.607684
v -10.373970 -28.676151 5.707263
v -10.517296 -28.753139 5.607685
v -10.373970 -28.676151 5.707263
v -10.373970 -28.676151 5.607684
v -10.517296 -28.753139 5.707263
v -10.673083 -28.706234 5.607687
v -10.673083 -28.706234 5.707265
v 10.384765 -27.214766 5.205573
v 10.789034 -28.907658 5.205572
v 10.220257 -28.850451 5.205574
v 10.953542 -27.271971 5.205572
v 10.384767 -27.214766 5.099136
v 10.953542 -27.271971 5.205572
v 10.384765 -27.214766 5.205573
v 10.953542 -27.271971 5.099136
v 10.953542 -27.271971 5.099136
v 10.789034 -28.907658 5.205572
v 10.953542 -27.271971 5.205572
v 10.789034 -28.907658 5.099136
v 10.789034 -28.907658 5.099136
v 10.220257 -28.850451 5.205574
v 10.789034 -28.907658 5.205572
v 10.220259 -28.850451 5.099136
v 10.220259 -28.850451 5.099136
v 10.384765 -27.214766 5.205573
v 10.220257 -28.850451 5.205574
v 10.384767 -27.214766 5.099136
v 10.757094 -27.499241 5.099135
v 10.792394 -27.616467 5.607678
v 10.757093 -27.499241 5.607678
v 10.792394 -27.616467 5.099135
v 10.734458 -27.724316 5.607678
v 10.734458 -27.724316 5.099136
v 10.757093 -27.499241 5.607678
v 10.649247 -27.441307 5.099135
v 10.757094 -27.499241 5.099135
v 10.649247 -27.441307 5.607678
v 10.532020 -27.476604 5.099135
v 10.532020 -27.476604 5.607677
v 10.532020 -27.476604 5.607677
v 10.474092 -27.584454 5.099135
v 10.532020 -27.476604 5.099135
v 10.474090 -27.584454 5.607677
v 10.509384 -27.701677 5.099136
v 10.509383 -27.701677 5.607677
v 10.509383 -27.701677 5.607677
v 10.617234 -27.759607 5.099135
v 10.509384 -27.701677 5.099136
v 10.617234 -27.759607 5.607678
v 10.734458 -27.724316 5.099136
v 10.734458 -27.724316 5.607678
v 10.797839 -27.465946 5.607678
v 10.844745 -27.621729 5.707257
v 10.797839 -27.465946 5.707257
v 10.844745 -27.621729 5.607678
v 10.767755 -27.765055 5.707257
v 10.767755 -27.765055 5.607678
v 10.797839 -27.465946 5.707257
v 10.654511 -27.388954 5.607678
v 10.797839 -27.465946 5.607678
v 10.654511 -27.388954 5.707257
v 10.498726 -27.435860 5.607677
v 10.498726 -27.435860 5.707255
v 10.498726 -27.435860 5.707255
v 10.421737 -27.579185 5.607677
v 10.498726 -27.435860 5.607677
v 10.421737 -27.579185 5.707256
v 10.468642 -27.734974 5.607677
v 10.468642 -27.734974 5.707256
v 10.468642 -27.734974 5.707256
v 10.611967 -27.811962 5.607678
v 10.468642 -27.734974 5.607677
v 10.611967 -27.811962 5.707257
v 10.767755 -27.765055 5.607678
v 10.767755 -27.765055 5.707257
v 10.662437 -28.440426 5.099136
v 10.697734 -28.557652 5.607678
v 10.662437 -28.440426 5.607679
v 10.697734 -28.557652 5.099135
v 10.639799 -28.665499 5.607678
v 10.639798 -28.665499 5.099135
v 10.662437 -28.440426 5.607679
v 10.554589 -28.382496 5.099136
v 10.662437 -28.440426 5.099136
v 10.554588 -28.382496 5.607677
v 10.437363 -28.417789 5.099136
v 10.437362 -28.417789 5.607678
v 10.437362 -28.417789 5.607678
v 10.379431 -28.525639 5.099135
v 10.437363 -28.417789 5.099136
v 10.379430 -28.525639 5.607677
v 10.414726 -28.642862 5.099135
v 10.414723 -28.642862 5.607677
v 10.414723 -28.642862 5.607677
v 10.522575 -28.700794 5.099135
v 10.414726 -28.642862 5.099135
v 10.522576 -28.700794 5.607677
v 10.639798 -28.665499 5.099135
v 10.639799 -28.665499 5.607678
v 10.703179 -28.407129 5.607679
v 10.750085 -28.562918 5.707257
v 10.703179 -28.407129 5.707257
v 10.750085 -28.562918 5.607678
v 10.673098 -28.706244 5.707257
v 10.673098 -28.706244 5.607678
v 10.703179 -28.407129 5.707257
v 10.559855 -28.330139 5.607677
v 10.703179 -28.407129 5.607679
v 10.559855 -28.330139 5.707256
v 10.404067 -28.377047 5.607678
v 10.404066 -28.377047 5.707257
v 10.404066 -28.377047 5.707257
v 10.327076 -28.520374 5.607677
v 10.404067 -28.377047 5.607678
v 10.327076 -28.520374 5.707256
v 10.373982 -28.676159 5.607677
v 10.373982 -28.676159 5.707256
v 10.373982 -28.676159 5.707256
v 10.517309 -28.753151 5.607677
v 10.373982 -28.676159 5.607677
v 10.517309 -28.753151 5.707255
v 10.673098 -28.706244 5.607678
v 10.673098 -28.706244 5.707257
v 1.946972 -49.202690 6.158976
v 1.388356 -49.202690 6.377636
v 1.840286 -48.874352 6.158974
v 1.840286 -49.531044 6.158975
v 1.560979 -48.671421 6.158974
v 1.560978 -49.733978 6.158975
v 1.215734 -48.671421 6.158974
v 1.215735 -49.733978 6.158974
v 0.936426 -48.874352 6.158974
v 0.936427 -49.531048 6.158974
v 0.829741 -49.202690 6.158973
v -1.946964 -49.202686 6.158969
v -1.388348 -49.202686 6.377632
v -1.840278 -49.531048 6.158969
v -1.840278 -48.874344 6.158969
v -1.560971 -49.733974 6.158970
v -1.560971 -48.671417 6.158969
v -1.215727 -49.733974 6.158970
v -1.215728 -48.671417 6.158970
v -0.936419 -49.531044 6.158970
v -0.936420 -48.874344 6.158970
v -0.829733 -49.202686 6.158972
v 0.212580 -55.539879 5.707255
v 0.150321 -55.690189 5.707255
v 0.000011 -55.539886 5.771546
v 0.150321 -55.389565 5.707256
v 0.000010 -55.752457 5.707256
v 0.000009 -55.327309 5.707255
v -0.150300 -55.690186 5.707256
v -0.150300 -55.389561 5.707256
v -0.212561 -55.539871 5.707256
v 0.212581 -56.485813 5.707256
v 0.150322 -56.636127 5.707256
v 0.000011 -56.485813 5.771547
v 0.150322 -56.335503 5.707256
v 0.000010 -56.698395 5.707256
v 0.000012 -56.273247 5.707256
v -0.150300 -56.636124 5.707256
v -0.150300 -56.335499 5.707256
v -0.212560 -56.485809 5.707257
v -10.844730 -27.621719 5.707265
v -10.633227 -27.600451 5.771556
v -10.767743 -27.765045 5.707265
v -10.797826 -27.465937 5.707265
v -10.611956 -27.811951 5.707265
v -10.654498 -27.388947 5.707265
v -10.468629 -27.734964 5.707263
v -10.498713 -27.435852 5.707263
v -10.421723 -27.579178 5.707263
v -10.750071 -28.562908 5.707265
v -10.538569 -28.541634 5.771554
v -10.673083 -28.706234 5.707265
v -10.703167 -28.407120 5.707265
v -10.517296 -28.753139 5.707263
v -10.559841 -28.330130 5.707264
v -10.373970 -28.676151 5.707263
v -10.404053 -28.377039 5.707263
v -10.327063 -28.520365 5.707263
v 10.844745 -27.621729 5.707257
v 10.767755 -27.765055 5.707257
v 10.633242 -27.600460 5.771548
v 10.797839 -27.465946 5.707257
v 10.611967 -27.811962 5.707257
v 10.654511 -27.388954 5.707257
v 10.468642 -27.734974 5.707256
v 10.498726 -27.435860 5.707255
v 10.421737 -27.579185 5.707256
v 10.750085 -28.562918 5.707257
v 10.673098 -28.706244 5.707257
v 10.538582 -28.541643 5.771546
v 10.703179 -28.407129 5.707257
v 10.517309 -28.753151 5.707255
v 10.559855 -28.330139 5.707256
v 10.373982 -28.676159 5.707256
v 10.404066 -28.377047 5.707257
v 10.327076 -28.520374 5.707256
v 1.701603 -48.975113 5.637829
v 2.049937 -49.202690 5.527712
v 1.775551 -49.202690 5.637829
v 1.923588 -48.813824 5.527711
v 1.923587 -49.591553 5.527712
v 1.508007 -48.834450 5.637828
v 1.701604 -49.430286 5.637829
v 1.592797 -48.573490 5.527712
v 1.592796 -49.831890 5.527712
v 1.268708 -48.834450 5.637827
v 1.508007 -49.570930 5.637829
v 1.183918 -48.573490 5.527711
v 1.183919 -49.831890 5.527711
v 1.075111 -48.975113 5.637827
v 1.268708 -49.570930 5.637827
v 0.853128 -48.813824 5.527710
v 0.853128 -49.591557 5.527711
v 1.001163 -49.202690 5.637827
v 1.075111 -49.430286 5.637827
v 0.726777 -49.202690 5.527710
v 1.746799 -49.202690 5.850624
v 1.840286 -48.874352 6.014087
v 1.678342 -48.992008 5.850624
v 1.946972 -49.202690 6.014087
v 1.560979 -48.671421 6.014087
v 1.678343 -49.413372 5.850624
v 1.499122 -48.861794 5.850624
v 1.840286 -49.531044 6.014087
v 1.215735 -48.671421 6.014086
v 1.499122 -49.543587 5.850624
v 1.277591 -48.861794 5.850624
v 1.560978 -49.733978 6.014087
v 0.936426 -48.874352 6.014086
v 1.277592 -49.543587 5.850624
v 1.098371 -48.992008 5.850624
v 1.215735 -49.733978 6.014087
v 0.829741 -49.202690 6.014085
v 1.098371 -49.413372 5.850624
v 1.029915 -49.202690 5.850624
v 0.936427 -49.531048 6.014087
v -1.701595 -48.975109 5.637824
v -2.049929 -49.202686 5.527707
v -1.923578 -48.813820 5.527707
v -1.775542 -49.202686 5.637824
v -1.507998 -48.834442 5.637824
v -1.923579 -49.591557 5.527707
v -1.592788 -48.573486 5.527707
v -1.701595 -49.430283 5.637824
v -1.268698 -48.834442 5.637825
v -1.592788 -49.831886 5.527707
v -1.183908 -48.573486 5.527708
v -1.507998 -49.570927 5.637824
v -1.075101 -48.975109 5.637825
v -1.183907 -49.831886 5.527708
v -0.853118 -48.813820 5.527708
v -1.268698 -49.570927 5.637825
v -1.001153 -49.202686 5.637825
v -0.853118 -49.591553 5.527709
v -0.726767 -49.202686 5.527709
v -1.075101 -49.430283 5.637825
v -1.840278 -48.874344 6.014081
v -1.746790 -49.202686 5.850619
v -1.678333 -48.992001 5.850619
v -1.946964 -49.202686 6.014081
v -1.560971 -48.671417 6.014082
v -1.678334 -49.413368 5.850619
v -1.499113 -48.861786 5.850619
v -1.840278 -49.531048 6.014082
v -1.215727 -48.671417 6.014082
v -1.499113 -49.543583 5.850619
v -1.277584 -48.861786 5.850619
v -1.560971 -49.733974 6.014082
v -0.936420 -48.874344 6.014082
v -1.277584 -49.543583 5.850619
v -1.098363 -48.992001 5.850619
v -1.215727 -49.733974 6.014082
v -0.829733 -49.202686 6.014084
v -1.098364 -49.413368 5.850619
v -1.029907 -49.202686 5.850619
v -0.936419 -49.531044 6.014082
v 0.113113 -55.426773 5.607677
v 0.212580 -55.539879 5.607677
v 0.150322 -55.389565 5.607677
v 0.159966 -55.539879 5.607677
v 0.000010 -55.379925 5.607677
v 0.150322 -55.690189 5.607677
v 0.000009 -55.327309 5.607677
v 0.113114 -55.652985 5.607677
v -0.113097 -55.426765 5.607677
v 0.000010 -55.752457 5.607677
v -0.150300 -55.389561 5.607677
v 0.000011 -55.699837 5.607677
v -0.159943 -55.539883 5.607677
v -0.150300 -55.690186 5.607677
v -0.212561 -55.539871 5.607677
v -0.113096 -55.652988 5.607678
v 0.113116 -56.372711 5.607677
v 0.212580 -56.485813 5.607677
v 0.150322 -56.335503 5.607677
v 0.159966 -56.485813 5.607677
v 0.000011 -56.325863 5.607677
v 0.150322 -56.636127 5.607678
v 0.000012 -56.273247 5.607677
v 0.113114 -56.598919 5.607677
v -0.113095 -56.372704 5.607678
v 0.000010 -56.698395 5.607677
v -0.150300 -56.335499 5.607678
v 0.000011 -56.645767 5.607677
v -0.159943 -56.485809 5.607678
v -0.150299 -56.636124 5.607678
v -0.212560 -56.485809 5.607678
v -0.113096 -56.598915 5.607678
v -10.844730 -27.621719 5.607687
v -10.757080 -27.499233 5.607687
v -10.797826 -27.465937 5.607687
v -10.792380 -27.616455 5.607687
v -10.649234 -27.441298 5.607687
v -10.767743 -27.765045 5.607687
v -10.654498 -27.388947 5.607687
v -10.734445 -27.724304 5.607687
v -10.532005 -27.476595 5.607685
v -10.611956 -27.811951 5.607687
v -10.498713 -27.435852 5.607685
v -10.617222 -27.759598 5.607687
v -10.474077 -27.584444 5.607685
v -10.468629 -27.734964 5.607684
v -10.421723 -27.579178 5.607684
v -10.509369 -27.701672 5.607685
v -10.750071 -28.562908 5.607687
v -10.662424 -28.440416 5.607687
v -10.703167 -28.407120 5.607687
v -10.697721 -28.557644 5.607687
v -10.554575 -28.382486 5.607685
v -10.673083 -28.706234 5.607687
v -10.559841 -28.330130 5.607685
v -10.639787 -28.665489 5.607687
v -10.437348 -28.417782 5.607685
v -10.517296 -28.753139 5.607685
v -10.404053 -28.377039 5.607685
v -10.522564 -28.700785 5.607685
v -10.379416 -28.525631 5.607684
v -10.373970 -28.676151 5.607684
v -10.327063 -28.520365 5.607684
v -10.414711 -28.642853 5.607684
v 10.757093 -27.499241 5.607678
v 10.844745 -27.621729 5.607678
v 10.797839 -27.465946 5.607678
v 10.792394 -27.616467 5.607678
v 10.649247 -27.441307 5.607678
v 10.767755 -27.765055 5.607678
v 10.654511 -27.388954 5.607678
v 10.734458 -27.724316 5.607678
v 10.532020 -27.476604 5.607677
v 10.611967 -27.811962 5.607678
v 10.498726 -27.435860 5.607677
v 10.617234 -27.759607 5.607678
v 10.474090 -27.584454 5.607677
v 10.468642 -27.734974 5.607677
v 10.421737 -27.579185 5.607677
v 10.509383 -27.701677 5.607677
v 10.662437 -28.440426 5.607679
v 10.750085 -28.562918 5.607678
v 10.703179 -28.407129 5.607679
v 10.697734 -28.557652 5.607678
v 10.554588 -28.382496 5.607677
v 10.673098 -28.706244 5.607678
v 10.559855 -28.330139 5.607677
v 10.639799 -28.665499 5.607678
v 10.437362 -28.417789 5.607678
v 10.517309 -28.753151 5.607677
v 10.404067 -28.377047 5.607678
v 10.522576 -28.700794 5.607677
v 10.379430 -28.525639 5.607677
v 10.373982 -28.676159 5.607677
v 10.327076 -28.520374 5.607677
v 10.414723 -28.642862 5.607677
vn -0.7071 0.7071 -0.0000
vn -1.0000 -0.0000 -0.0000
vn -0.7071 -0.7071 0.0002
vn -0.7071 -0.7071 -0.0000
vn -0.0000 1.0000 -0.0000
vn 0.7071 0.7071 -0.0000
vn 0.7071 0.7071 0.0001
vn 1.0000 -0.0000 -0.0000
vn 0.7071 -0.7071 -0.0000
vn 0.7072 -0.7071 -0.0000
vn 0.7071 -0.7072 -0.0000
vn -0.0000 -1.0000 -0.0000
vn -0.0000 -0.0000 1.0000
vn -0.7071 -0.7071 -0.0001
vn 0.8090 0.5878 -0.0000
vn 0.8091 -0.5877 -0.0000
vn 0.3090 0.9511 -0.0000
vn -0.3090 0.9511 -0.0000
vn -0.8090 0.5878 -0.0000
vn -0.8090 -0.5878 -0.0000
vn -0.8090 -0.5878 -0.0001
vn -0.3090 -0.9511 -0.0000
vn 0.3090 -0.9511 -0.0000
vn 0.8090 -0.5878 -0.0000
vn 0.8091 0.5877 -0.0000
vn -0.8090 0.5879 -0.0000
vn -0.8091 0.5877 -0.0000
vn -0.8091 -0.5877 -0.0000
vn -0.8090 0.5878 -0.0001
vn -0.8090 -0.5878 0.0001
vn 0.7072 -0.7070 -0.0000
vn 0.7070 0.7072 -0.0000
vn 0.0001 1.0000 -0.0000
vn -0.7070 0.7072 -0.0000
vn -0.7071 0.7071 -0.0001
vn -0.7072 -0.7071 -0.0000
vn -0.7071 -0.7072 -0.0000
vn 0.7071 -0.7071 -0.0001
vn 0.7071 0.7072 -0.0000
vn -0.7072 0.7071 -0.0000
vn 0.7070 -0.7072 -0.0000
vn 0.7071 0.7071 -0.0002
vn -0.7071 0.7071 0.0001
vn -0.1001 0.9950 -0.0000
vn -0.9950 -0.1001 -0.0000
vn 0.1001 -0.9950 -0.0000
vn 0.9950 0.1001 -0.0000
vn -0.7743 0.6328 -0.0000
vn -0.9950 -0.1000 -0.0000
vn -0.6328 -0.7743 -0.0000
vn -0.7743 0.6329 -0.0000
vn 0.6328 0.7743 -0.0000
vn 0.7743 -0.6328 -0.0001
vn 0.7743 -0.6328 -0.0000
vn 0.1000 -0.9950 -0.0000
vn -0.6328 -0.7744 -0.0000
vn -0.6328 -0.7743 0.0001
vn 0.6327 0.7744 -0.0000
vn 0.7743 -0.6329 -0.0000
vn -0.7744 0.6327 -0.0000
vn -0.7744 0.6328 -0.0000
vn -0.7742 0.6329 -0.0000
vn 0.1001 0.9950 -0.0000
vn 0.9950 -0.1001 -0.0000
vn -0.1001 -0.9950 -0.0000
vn -0.9950 0.1001 -0.0000
vn 0.7743 0.6328 -0.0000
vn 0.6328 -0.7743 -0.0000
vn 0.7743 0.6329 -0.0000
vn -0.6328 0.7743 -0.0000
vn -0.7743 -0.6328 -0.0000
vn 0.6327 -0.7744 -0.0000
vn -0.6328 0.7744 -0.0000
vn -0.7743 -0.6328 0.0001
vn -0.7743 -0.6329 -0.0000
vn 0.6328 -0.7744 -0.0000
vn 0.6328 -0.7743 -0.0001
vn 0.2949 0.2143 0.9312
vn 0.3645 -0.0000 0.9312
vn 0.2949 -0.2142 0.9312
vn 0.1126 0.3467 0.9312
vn 0.1126 -0.3467 0.9312
vn -0.1126 0.3467 0.9312
vn -0.1126 -0.3467 0.9312
vn -0.2949 0.2142 0.9312
vn -0.2949 -0.2142 0.9312
vn -0.3645 -0.0000 0.9312
vn -0.2949 0.2143 0.9312
vn 0.2047 -0.2047 0.9572
vn 0.2895 -0.0000 0.9572
vn 0.2047 0.2047 0.9572
vn -0.0000 -0.2895 0.9572
vn -0.0000 0.2895 0.9572
vn -0.2047 -0.2047 0.9572
vn -0.2047 0.2047 0.9572
vn -0.2895 -0.0000 0.9572
vn -0.1832 -0.2242 0.9572
vn -0.2880 -0.0290 0.9572
vn -0.2242 0.1832 0.9572
vn 0.0290 -0.2880 0.9572
vn -0.0290 0.2880 0.9572
vn 0.2242 -0.1832 0.9572
vn 0.1832 0.2242 0.9572
vn 0.2881 0.0290 0.9572
vn -0.2241 0.1832 0.9572
vn 0.2880 0.0290 0.9572
vn 0.1832 -0.2242 0.9572
vn 0.2880 -0.0290 0.9572
vn 0.2242 0.1832 0.9572
vn -0.0290 -0.2880 0.9572
vn 0.0290 0.2880 0.9572
vn -0.2242 -0.1832 0.9572
vn -0.1832 0.2242 0.9572
vn -0.2880 0.0290 0.9572
vn -0.2241 -0.1832 0.9572
vn 0.7446 -0.0000 0.6675
vn 0.3724 -0.0000 0.9281
vn 0.6024 0.4377 0.6674
vn 0.3013 0.2189 0.9281
vn 0.3013 -0.2189 0.9281
vn 0.2301 0.7082 0.6675
vn 0.6024 -0.4377 0.6675
vn 0.1151 0.3542 0.9281
vn 0.1151 -0.3542 0.9281
vn -0.2301 0.7082 0.6675
vn 0.2301 -0.7082 0.6675
vn -0.1151 0.3542 0.9281
vn -0.1151 -0.3542 0.9281
vn -0.6024 0.4377 0.6675
vn -0.2301 -0.7082 0.6675
vn -0.3013 0.2189 0.9281
vn -0.3013 -0.2189 0.9281
vn -0.7446 -0.0000 0.6675
vn -0.6024 -0.4377 0.6675
vn -0.3725 -0.0000 0.9281
vn 0.7399 0.5375 -0.4046
vn 0.5117 0.3718 -0.7746
vn 0.9145 -0.0000 -0.4046
vn 0.6325 -0.0000 -0.7746
vn 0.1955 0.6016 -0.7746
vn 0.7399 -0.5375 -0.4046
vn 0.2826 0.8697 -0.4046
vn 0.5117 -0.3718 -0.7746
vn -0.1954 0.6016 -0.7746
vn 0.2826 -0.8697 -0.4046
vn -0.2826 0.8697 -0.4046
vn 0.1954 -0.6015 -0.7746
vn -0.5117 0.3718 -0.7746
vn -0.2826 -0.8697 -0.4046
vn -0.7398 0.5375 -0.4046
vn -0.1955 -0.6015 -0.7746
vn -0.6325 -0.0000 -0.7746
vn -0.7399 -0.5375 -0.4046
vn -0.9145 -0.0000 -0.4046
vn -0.5117 -0.3718 -0.7746
vn -0.3724 -0.0000 0.9281
vn -0.6024 0.4376 0.6675
vn 0.6024 0.4377 0.6675
vn -0.1955 0.6016 -0.7745
vn 0.1955 0.6016 -0.7745
vn -0.1954 -0.6015 -0.7746
vn 0.1955 -0.6015 -0.7746
vn 0.7398 -0.5375 -0.4046
vn -0.0000 -0.0000 -1.0000
vt -18.306765 0.299084
vt -18.306765 0.292514
vt -18.304836 0.299084
vt -18.304836 0.292514
vt -18.302908 0.299084
vt -18.302908 0.292514
vt 0.644237 0.292514
vt 0.644237 0.299084
vt 0.642320 0.292514
vt 0.642320 0.299084
vt 0.640403 0.292514
vt 0.640403 0.299084
vt 19.306765 0.292514
vt 19.306765 0.299084
vt 19.304836 0.292514
vt 19.304836 0.299084
vt 19.302908 0.292514
vt 19.302908 0.299084
vt 0.359597 0.292514
vt 0.359597 0.299084
vt 0.357680 0.292514
vt 0.357680 0.299084
vt 0.355763 0.292514
vt 0.355763 0.299084
vt 0.642320 -18.302109
vt 0.640403 -18.302908
vt 0.644237 -18.302908
vt 0.644237 -18.306765
vt 0.645031 -18.304836
vt 0.640403 -18.306765
vt 0.639609 -18.304836
vt 0.642320 -18.307564
vt 19.306765 0.299084
vt 19.304836 0.299084
vt 19.306765 0.292514
vt 19.304836 0.292514
vt 19.302906 0.299084
vt 19.302906 0.292514
vt 0.355659 0.292514
vt 0.357576 0.292514
vt 0.355659 0.299084
vt 0.357576 0.299084
vt 0.359493 0.292514
vt 0.359493 0.299084
vt -18.306765 0.292514
vt -18.304836 0.292514
vt -18.306765 0.299084
vt -18.304836 0.299084
vt -18.302906 0.292514
vt -18.302906 0.299084
vt 0.640507 0.292514
vt 0.642424 0.292514
vt 0.640507 0.299084
vt 0.642424 0.299084
vt 0.644341 0.292514
vt 0.644341 0.299084
vt 0.357576 -18.307564
vt 0.359493 -18.306765
vt 0.355659 -18.306765
vt 0.359493 -18.302906
vt 0.360287 -18.304836
vt 0.355659 -18.302906
vt 0.354865 -18.304836
vt 0.357576 -18.302109
vt 19.090071 0.298983
vt 19.084179 0.298983
vt 19.090071 0.294548
vt 19.084179 0.294548
vt 19.078287 0.298983
vt 19.078287 0.294548
vt 0.470981 0.294548
vt 0.475962 0.294548
vt 0.470981 0.298983
vt 0.475962 0.298983
vt 0.482120 0.294548
vt 0.482120 0.298983
vt 0.487101 0.294548
vt 0.487101 0.298983
vt -18.090071 0.294548
vt -18.084179 0.294548
vt -18.090071 0.298983
vt -18.084179 0.298983
vt -18.078287 0.294548
vt -18.078287 0.298983
vt 0.512899 0.294548
vt 0.517880 0.294548
vt 0.512899 0.298983
vt 0.517880 0.298983
vt 0.524038 0.294548
vt 0.524038 0.298983
vt 0.529019 0.294548
vt 0.529019 0.298983
vt 19.089155 0.306325
vt 19.089155 0.308512
vt 19.084179 0.306325
vt 19.084179 0.308512
vt 19.079203 0.306325
vt 19.079203 0.308512
vt 0.472235 0.308512
vt 0.472235 0.306325
vt 0.476441 0.308512
vt 0.476441 0.306325
vt 0.481640 0.308512
vt 0.481640 0.306325
vt 0.485847 0.308512
vt 0.485847 0.306325
vt -18.089155 0.308512
vt -18.089155 0.306325
vt -18.084179 0.308512
vt -18.084179 0.306325
vt -18.079203 0.308512
vt -18.079203 0.306325
vt 0.514153 0.308512
vt 0.514153 0.306325
vt 0.518360 0.308512
vt 0.518360 0.306325
vt 0.523559 0.308512
vt 0.523559 0.306325
vt 0.527765 0.308512
vt 0.527765 0.306325
vt -18.090071 0.298983
vt -18.090071 0.294548
vt -18.084179 0.298983
vt -18.084179 0.294548
vt -18.078285 0.298983
vt -18.078285 0.294548
vt 0.528916 0.294548
vt 0.528916 0.298983
vt 0.523935 0.294548
vt 0.523935 0.298983
vt 0.517777 0.294548
vt 0.517777 0.298983
vt 0.512796 0.294548
vt 0.512796 0.298983
vt 19.090071 0.294548
vt 19.090071 0.298983
vt 19.084179 0.294548
vt 19.084179 0.298983
vt 19.078287 0.294548
vt 19.078287 0.298983
vt 0.487204 0.294548
vt 0.487204 0.298983
vt 0.482223 0.294548
vt 0.482223 0.298983
vt 0.476065 0.294548
vt 0.476065 0.298983
vt 0.471084 0.294548
vt 0.471084 0.298983
vt -18.089155 0.306325
vt -18.084179 0.306325
vt -18.089155 0.308512
vt -18.084179 0.308512
vt -18.079203 0.306325
vt -18.079203 0.308512
vt 0.527662 0.308512
vt 0.523456 0.308512
vt 0.527662 0.306325
vt 0.523456 0.306325
vt 0.518256 0.308512
vt 0.518256 0.306325
vt 0.514050 0.308512
vt 0.514050 0.306325
vt 19.089155 0.308512
vt 19.084179 0.308512
vt 19.089155 0.306325
vt 19.084179 0.306325
vt 19.079203 0.308512
vt 19.079203 0.306325
vt 0.485950 0.308512
vt 0.481744 0.308512
vt 0.485950 0.306325
vt 0.481744 0.306325
vt 0.476544 0.308512
vt 0.476544 0.306325
vt 0.472338 0.308512
vt 0.472338 0.306325
vt 0.504253 -17.968676
vt 0.495644 -17.968676
vt 0.504253 -17.993587
vt 0.495644 -17.993587
vt 0.504253 0.294121
vt 0.495644 0.294121
vt 0.504253 0.292514
vt 0.495644 0.292514
vt 18.993587 0.294121
vt 18.968676 0.294121
vt 18.993587 0.292514
vt 18.968676 0.292514
vt 0.504356 0.294121
vt 0.495747 0.294121
vt 0.504356 0.292514
vt 0.495747 0.292514
vt -17.968676 0.294121
vt -17.993587 0.294121
vt -17.968676 0.292514
vt -17.993587 0.292514
vt 18.989862 0.300190
vt 18.988150 0.300190
vt 18.989862 0.292514
vt 18.988150 0.292514
vt 18.986435 0.300190
vt 18.986435 0.292514
vt 0.498245 0.292514
vt 0.499949 0.292514
vt 0.498245 0.300190
vt 0.499949 0.300190
vt 0.501652 0.292514
vt 0.501652 0.300190
vt -17.989862 0.292514
vt -17.988150 0.292514
vt -17.989862 0.300190
vt -17.988150 0.300190
vt -17.986435 0.292514
vt -17.986435 0.300190
vt 0.498348 0.292514
vt 0.500051 0.292514
vt 0.498348 0.300190
vt 0.500051 0.300190
vt 0.501755 0.292514
vt 0.501755 0.300190
vt 18.990427 0.301693
vt 18.988150 0.301693
vt 18.990427 0.300190
vt 18.985872 0.301693
vt 18.985872 0.300190
vt 0.497685 0.300190
vt 0.499949 0.300190
vt 0.497685 0.301693
vt 0.499949 0.301693
vt 0.502212 0.300190
vt 0.502212 0.301693
vt -17.990427 0.300190
vt -17.990427 0.301693
vt -17.988150 0.301693
vt -17.985872 0.300190
vt -17.985872 0.301693
vt 0.497788 0.300190
vt 0.497788 0.301693
vt 0.500051 0.301693
vt 0.502315 0.300190
vt 0.502315 0.301693
vt 18.975529 0.300190
vt 18.973816 0.300190
vt 18.975529 0.292514
vt 18.973816 0.292514
vt 18.972101 0.300190
vt 18.972101 0.292514
vt 0.499949 0.292514
vt 0.499949 0.300190
vt 0.501652 0.292514
vt -17.975529 0.292514
vt -17.973816 0.292514
vt -17.975529 0.300190
vt -17.973816 0.300190
vt -17.972101 0.292514
vt -17.972101 0.300190
vt 0.498348 0.292514
vt 0.501755 0.300190
vt 18.976093 0.301693
vt 18.973816 0.301693
vt 18.976093 0.300190
vt 18.971537 0.301693
vt 18.971537 0.300190
vt 0.497685 0.300190
vt 0.497685 0.301693
vt 0.502212 0.300190
vt 0.502212 0.301693
vt -17.976093 0.300190
vt -17.976093 0.301693
vt -17.973816 0.301693
vt -17.971537 0.300190
vt -17.971537 0.301693
vt 0.497788 0.300190
vt 0.500051 0.300190
vt 0.497788 0.301693
vt 0.500051 0.301693
vt 0.664900 -18.416502
vt 0.662422 -18.391716
vt 0.656334 -18.417370
vt 0.653857 -18.392584
vt 0.664900 0.292514
vt 0.664900 0.294121
vt 0.656334 0.292514
vt 0.656334 0.294121
vt -18.391716 0.292514
vt -18.391716 0.294121
vt -18.416502 0.292514
vt -18.416502 0.294121
vt 0.346143 0.292514
vt 0.346143 0.294121
vt 0.337578 0.292514
vt 0.337578 0.294121
vt 19.417370 0.292514
vt 19.417370 0.294121
vt 19.392584 0.292514
vt 19.392584 0.294121
vt -18.413059 0.300190
vt -18.413059 0.292514
vt -18.411282 0.300190
vt -18.411282 0.292514
vt -18.409649 0.300190
vt -18.409649 0.292514
vt 0.661941 0.292514
vt 0.661941 0.300190
vt 0.660317 0.292514
vt 0.660317 0.300190
vt 0.658552 0.292514
vt 0.658552 0.300190
vt 19.413403 0.292514
vt 19.413403 0.300190
vt 19.411768 0.292514
vt 19.411768 0.300190
vt 19.409990 0.292514
vt 19.409990 0.300190
vt 0.341789 0.292514
vt 0.341789 0.300190
vt 0.340165 0.292514
vt 0.340165 0.300190
vt 0.338399 0.292514
vt 0.338400 0.300190
vt -18.413563 0.301693
vt -18.413563 0.300190
vt -18.411203 0.301693
vt -18.411203 0.300190
vt -18.409031 0.301693
vt -18.409031 0.300190
vt 0.662555 0.300190
vt 0.662555 0.301693
vt 0.660397 0.300190
vt 0.660397 0.301693
vt 0.658051 0.300190
vt 0.658051 0.301693
vt 19.414019 0.300190
vt 19.414019 0.301693
vt 19.411848 0.300190
vt 19.411848 0.301693
vt 19.409487 0.300190
vt 19.409487 0.301693
vt 0.342403 0.300190
vt 0.342403 0.301693
vt 0.340244 0.300190
vt 0.340244 0.301693
vt 0.337898 0.300190
vt 0.337898 0.301693
vt -18.398796 0.300190
vt -18.398796 0.292514
vt -18.397020 0.300190
vt -18.397020 0.292514
vt -18.395386 0.300190
vt -18.395386 0.292514
vt 0.660516 0.292514
vt 0.660516 0.300190
vt 0.658892 0.292514
vt 0.658892 0.300190
vt 0.657127 0.292514
vt 0.657126 0.300190
vt 19.399139 0.292514
vt 19.399139 0.300190
vt 19.397505 0.292514
vt 19.397505 0.300190
vt 19.395729 0.292514
vt 19.395729 0.300190
vt 0.343214 0.292514
vt 0.343214 0.300190
vt 0.341590 0.292514
vt 0.341590 0.300190
vt 0.339825 0.292514
vt 0.339825 0.300190
vt -18.399302 0.301693
vt -18.399302 0.300190
vt -18.396940 0.301693
vt -18.396940 0.300190
vt -18.394768 0.301693
vt -18.394768 0.300190
vt 0.661129 0.300190
vt 0.661129 0.301693
vt 0.658971 0.300190
vt 0.658971 0.301693
vt 0.656625 0.300190
vt 0.656625 0.301693
vt 19.399757 0.300190
vt 19.399757 0.301693
vt 19.397585 0.300190
vt 19.397585 0.301693
vt 19.395224 0.300190
vt 19.395224 0.301693
vt 0.343828 0.300190
vt 0.343828 0.301693
vt 0.341670 0.300190
vt 0.341670 0.301693
vt 0.339324 0.300190
vt 0.339324 0.301693
vt 0.346038 -18.392584
vt 0.337472 -18.391716
vt 0.343560 -18.417370
vt 0.334995 -18.416502
vt 0.343560 0.294121
vt 0.334995 0.294121
vt 0.343560 0.292514
vt 0.334995 0.292514
vt 19.416502 0.294121
vt 19.391716 0.294121
vt 19.416502 0.292514
vt 19.391716 0.292514
vt 0.662528 0.294121
vt 0.653962 0.294121
vt 0.662527 0.292514
vt 0.653962 0.292514
vt -18.392584 0.294121
vt -18.417370 0.294121
vt -18.392584 0.292514
vt -18.417370 0.292514
vt 19.413059 0.300190
vt 19.411282 0.300190
vt 19.413059 0.292514
vt 19.411282 0.292514
vt 19.409647 0.300190
vt 19.409647 0.292514
vt 0.337953 0.292514
vt 0.339578 0.292514
vt 0.337953 0.300190
vt 0.339578 0.300190
vt 0.341343 0.292514
vt 0.341343 0.300190
vt -18.413401 0.292514
vt -18.411768 0.292514
vt -18.413401 0.300190
vt -18.411768 0.300190
vt -18.409990 0.292514
vt -18.409990 0.300190
vt 0.658316 0.292514
vt 0.659940 0.292514
vt 0.658316 0.300190
vt 0.659940 0.300190
vt 0.661706 0.292514
vt 0.661706 0.300190
vt 19.413563 0.301693
vt 19.411201 0.301693
vt 19.413563 0.300190
vt 19.411201 0.300190
vt 19.409031 0.301693
vt 19.409031 0.300190
vt 0.337340 0.300190
vt 0.339498 0.300190
vt 0.337340 0.301693
vt 0.339498 0.301693
vt 0.341844 0.300190
vt 0.341844 0.301693
vt -18.414019 0.300190
vt -18.411846 0.300190
vt -18.414019 0.301693
vt -18.411846 0.301693
vt -18.409487 0.300190
vt -18.409487 0.301693
vt 0.657703 0.300190
vt 0.659861 0.300190
vt 0.657703 0.301693
vt 0.659861 0.301693
vt 0.662207 0.300190
vt 0.662207 0.301693
vt 19.398796 0.300190
vt 19.397020 0.300190
vt 19.398796 0.292514
vt 19.397020 0.292514
vt 19.395386 0.300190
vt 19.395386 0.292514
vt 0.339379 0.292514
vt 0.341003 0.292514
vt 0.339379 0.300190
vt 0.341003 0.300190
vt 0.342768 0.292514
vt 0.342768 0.300190
vt -18.399139 0.292514
vt -18.397505 0.292514
vt -18.399139 0.300190
vt -18.397505 0.300190
vt -18.395729 0.292514
vt -18.395729 0.300190
vt 0.656891 0.292514
vt 0.658515 0.292514
vt 0.656891 0.300190
vt 0.658515 0.300190
vt 0.660280 0.292514
vt 0.660280 0.300190
vt 19.399302 0.301693
vt 19.396940 0.301693
vt 19.399302 0.300190
vt 19.396940 0.300190
vt 19.394768 0.301693
vt 19.394768 0.300190
vt 0.338765 0.300190
vt 0.340924 0.300190
vt 0.338765 0.301693
vt 0.340924 0.301693
vt 0.343270 0.300190
vt 0.343270 0.301693
vt -18.399757 0.300190
vt -18.397585 0.300190
vt -18.399757 0.301693
vt -18.397585 0.301693
vt -18.395224 0.300190
vt -18.395224 0.301693
vt 0.656277 0.300190
vt 0.658435 0.300190
vt 0.656277 0.301693
vt 0.658435 0.301693
vt 0.660782 0.300190
vt 0.660782 0.301693
vt 0.472235 -18.089155
vt 0.479041 -18.084179
vt 0.470628 -18.084179
vt 0.472235 -18.079203
vt 0.476441 -18.092230
vt 0.476441 -18.076128
vt 0.481640 -18.092230
vt 0.481640 -18.076128
vt 0.485847 -18.089155
vt 0.485847 -18.079203
vt 0.487453 -18.084179
vt 0.527662 -18.079203
vt 0.520856 -18.084179
vt 0.529268 -18.084179
vt 0.527662 -18.089155
vt 0.523456 -18.076128
vt 0.523456 -18.092230
vt 0.518256 -18.076128
vt 0.518256 -18.092230
vt 0.514050 -18.079203
vt 0.514050 -18.089155
vt 0.512444 -18.084179
vt 0.499949 -17.988150
vt 0.497685 -17.985872
vt 0.496747 -17.988150
vt 0.497685 -17.990427
vt 0.499949 -17.984928
vt 0.499949 -17.991371
vt 0.502212 -17.985872
vt 0.502212 -17.990427
vt 0.503150 -17.988150
vt 0.499949 -17.973816
vt 0.497685 -17.971537
vt 0.496747 -17.973816
vt 0.497685 -17.976093
vt 0.499949 -17.970594
vt 0.499949 -17.977036
vt 0.502212 -17.971537
vt 0.502212 -17.976093
vt 0.503150 -17.973816
vt 0.662102 -18.409031
vt 0.660076 -18.411526
vt 0.663261 -18.411203
vt 0.662555 -18.413563
vt 0.659756 -18.408319
vt 0.660397 -18.414730
vt 0.657597 -18.409487
vt 0.658051 -18.414019
vt 0.656891 -18.411848
vt 0.660676 -18.394768
vt 0.658651 -18.397263
vt 0.661836 -18.396940
vt 0.661129 -18.399302
vt 0.658330 -18.394058
vt 0.658971 -18.400467
vt 0.656172 -18.395224
vt 0.656625 -18.399757
vt 0.655466 -18.397585
vt 0.339819 -18.411524
vt 0.337793 -18.409031
vt 0.336634 -18.411201
vt 0.337340 -18.413563
vt 0.340139 -18.408319
vt 0.339498 -18.414730
vt 0.342297 -18.409487
vt 0.341844 -18.414019
vt 0.343004 -18.411846
vt 0.341244 -18.397263
vt 0.339218 -18.394768
vt 0.338059 -18.396940
vt 0.338765 -18.399302
vt 0.341565 -18.394058
vt 0.340924 -18.400467
vt 0.343723 -18.395224
vt 0.343270 -18.399757
vt 0.344429 -18.397585
vt 0.473210 -18.084179
vt 0.469078 -18.084179
vt 0.474324 -18.087627
vt 0.470981 -18.090071
vt 0.470981 -18.078287
vt 0.477239 -18.089760
vt 0.474324 -18.080730
vt 0.475962 -18.093714
vt 0.475962 -18.074644
vt 0.480843 -18.089760
vt 0.477239 -18.078598
vt 0.482120 -18.093714
vt 0.482120 -18.074644
vt 0.483758 -18.087627
vt 0.480843 -18.078598
vt 0.487101 -18.090071
vt 0.487101 -18.078287
vt 0.484872 -18.084179
vt 0.483758 -18.080730
vt 0.489004 -18.084179
vt 0.525326 -18.087372
vt 0.527765 -18.089155
vt 0.526357 -18.084179
vt 0.529372 -18.084179
vt 0.523559 -18.092230
vt 0.525326 -18.080986
vt 0.522627 -18.089344
vt 0.527765 -18.079203
vt 0.518360 -18.092230
vt 0.522627 -18.079014
vt 0.519291 -18.089344
vt 0.523559 -18.076128
vt 0.514153 -18.089155
vt 0.519291 -18.079014
vt 0.516592 -18.087372
vt 0.518360 -18.076128
vt 0.512547 -18.084179
vt 0.516592 -18.080986
vt 0.515561 -18.084179
vt 0.514153 -18.079203
vt 0.528916 -18.090071
vt 0.530819 -18.084179
vt 0.525573 -18.087627
vt 0.526687 -18.084179
vt 0.522658 -18.089760
vt 0.528916 -18.078285
vt 0.523935 -18.093714
vt 0.525573 -18.080730
vt 0.519054 -18.089760
vt 0.523935 -18.074644
vt 0.517777 -18.093714
vt 0.522658 -18.078598
vt 0.516139 -18.087627
vt 0.517777 -18.074644
vt 0.512796 -18.090071
vt 0.519054 -18.078598
vt 0.515025 -18.084179
vt 0.512796 -18.078287
vt 0.510893 -18.084179
vt 0.516139 -18.080730
vt 0.474777 -18.087372
vt 0.473746 -18.084179
vt 0.472338 -18.089155
vt 0.470732 -18.084179
vt 0.476544 -18.092230
vt 0.474777 -18.080986
vt 0.477476 -18.089344
vt 0.472338 -18.079203
vt 0.481744 -18.092230
vt 0.477476 -18.079014
vt 0.480812 -18.089344
vt 0.476544 -18.076128
vt 0.485950 -18.089155
vt 0.480812 -18.079014
vt 0.483511 -18.087372
vt 0.481744 -18.076128
vt 0.487556 -18.084179
vt 0.483511 -18.080986
vt 0.484542 -18.084179
vt 0.485950 -18.079203
vt 0.502315 -17.990427
vt 0.503253 -17.988150
vt 0.501755 -17.989862
vt 0.502460 -17.988150
vt 0.500051 -17.990574
vt 0.502315 -17.985872
vt 0.500051 -17.991371
vt 0.501755 -17.986435
vt 0.498348 -17.989862
vt 0.500051 -17.984928
vt 0.497788 -17.990427
vt 0.500051 -17.985725
vt 0.497643 -17.988150
vt 0.497788 -17.985872
vt 0.496850 -17.988150
vt 0.498348 -17.986435
vt 0.502315 -17.976093
vt 0.503253 -17.973816
vt 0.501755 -17.975529
vt 0.502460 -17.973816
vt 0.500051 -17.976238
vt 0.502315 -17.971537
vt 0.500051 -17.977036
vt 0.501755 -17.972101
vt 0.498348 -17.975529
vt 0.500051 -17.970594
vt 0.497788 -17.976093
vt 0.500051 -17.971392
vt 0.497643 -17.973816
vt 0.497788 -17.971537
vt 0.496850 -17.973816
vt 0.498348 -17.972101
vt 0.337445 -18.413563
vt 0.338059 -18.413059
vt 0.336739 -18.411203
vt 0.337527 -18.411282
vt 0.339683 -18.413937
vt 0.337898 -18.409031
vt 0.339603 -18.414730
vt 0.338400 -18.409649
vt 0.341448 -18.413403
vt 0.340244 -18.408319
vt 0.341949 -18.414019
vt 0.340165 -18.409113
vt 0.342320 -18.411768
vt 0.342403 -18.409487
vt 0.343109 -18.411848
vt 0.341789 -18.409990
vt 0.338871 -18.399302
vt 0.339484 -18.398796
vt 0.338164 -18.396940
vt 0.338952 -18.397020
vt 0.341108 -18.399673
vt 0.339324 -18.394768
vt 0.341029 -18.400467
vt 0.339825 -18.395386
vt 0.342874 -18.399139
vt 0.341670 -18.394058
vt 0.343375 -18.399757
vt 0.341590 -18.394852
vt 0.343746 -18.397505
vt 0.343828 -18.395224
vt 0.344534 -18.397585
vt 0.343214 -18.395729
vt 0.662660 -18.413563
vt 0.663366 -18.411201
vt 0.662047 -18.413059
vt 0.662578 -18.411282
vt 0.660422 -18.413937
vt 0.662207 -18.409031
vt 0.660502 -18.414730
vt 0.661706 -18.409647
vt 0.658657 -18.413401
vt 0.659861 -18.408319
vt 0.658156 -18.414019
vt 0.659940 -18.409113
vt 0.657785 -18.411768
vt 0.657703 -18.409487
vt 0.656996 -18.411846
vt 0.658316 -18.409990
vt 0.661235 -18.399302
vt 0.661941 -18.396940
vt 0.660621 -18.398796
vt 0.661153 -18.397020
vt 0.658997 -18.399673
vt 0.660782 -18.394768
vt 0.659076 -18.400467
vt 0.660280 -18.395386
vt 0.657232 -18.399139
vt 0.658435 -18.394058
vt 0.656730 -18.399757
vt 0.658515 -18.394852
vt 0.656359 -18.397505
vt 0.656277 -18.395224
vt 0.655571 -18.397585
vt 0.656891 -18.395729
s 1
g Bsh_Hull_Stern_Dredn_AD1_002_4_details_2
usemtl details_2
f 3/1/1 2/2/1 1/3/2
f 4/4/2 1/3/2 2/2/1
f 1/3/2 4/4/2 5/5/3
f 6/6/4 5/5/3 4/4/2
f 9/7/1 8/8/1 7/9/5
f 10/10/5 7/9/5 8/8/1
f 7/9/5 10/10/5 11/11/6
f 12/12/6 11/11/6 10/10/5
f 15/13/6 14/14/7 13/15/8
f 16/16/8 13/15/8 14/14/7
f 13/15/8 16/16/8 17/17/9
f 18/18/10 17/17/9 16/16/8
f 21/19/9 20/20/11 19/21/12
f 22/22/12 19/21/12 20/20/11
f 19/21/12 22/22/12 23/23/4
f 24/24/4 23/23/4 22/22/12
f 27/25/13 26/26/13 25/27/13
f 26/26/13 28/28/13 25/27/13
f 25/27/13 28/28/13 29/29/13
f 30/30/13 28/28/13 26/26/13
f 31/31/13 30/30/13 26/26/13
f 32/32/13 28/28/13 30/30/13
f 35/33/6 34/34/8 33/35/6
f 36/36/8 33/35/6 34/34/8
f 34/34/8 37/37/9 36/36/8
f 38/38/9 36/36/8 37/37/9
f 41/39/6 40/40/5 39/41/6
f 42/42/5 39/41/6 40/40/5
f 40/40/5 43/43/1 42/42/5
f 44/44/1 42/42/5 43/43/1
f 47/45/1 46/46/2 45/47/1
f 48/48/2 45/47/1 46/46/2
f 46/46/2 49/49/4 48/48/2
f 50/50/4 48/48/2 49/49/4
f 53/51/14 52/52/12 51/53/4
f 54/54/12 51/53/4 52/52/12
f 52/52/12 55/55/9 54/54/12
f 56/56/9 54/54/12 55/55/9
f 59/57/13 58/58/13 57/59/13
f 58/58/13 60/60/13 57/59/13
f 61/61/13 60/60/13 58/58/13
f 60/60/13 62/62/13 57/59/13
f 57/59/13 62/62/13 63/63/13
f 64/64/13 62/62/13 60/60/13
f 67/65/15 66/66/8 65/67/15
f 68/68/8 65/67/15 66/66/8
f 66/66/8 69/69/16 68/68/8
f 70/70/16 68/68/8 69/69/16
f 73/71/15 72/72/17 71/73/15
f 74/74/17 71/73/15 72/72/17
f 72/72/17 75/75/18 74/74/17
f 76/76/18 74/74/17 75/75/18
f 75/75/18 77/77/19 76/76/18
f 78/78/19 76/76/18 77/77/19
f 81/79/19 80/80/2 79/81/19
f 82/82/2 79/81/19 80/80/2
f 80/80/2 83/83/20 82/82/2
f 84/84/21 82/82/2 83/83/20
f 87/85/20 86/86/22 85/87/20
f 88/88/22 85/87/20 86/86/22
f 86/86/22 89/89/23 88/88/22
f 90/90/23 88/88/22 89/89/23
f 89/89/23 91/91/24 90/90/23
f 92/92/24 90/90/23 91/91/24
f 95/93/25 94/94/25 93/95/8
f 96/96/8 93/95/8 94/94/25
f 93/95/8 96/96/8 97/97/16
f 98/98/16 97/97/16 96/96/8
f 101/99/15 100/100/15 99/101/17
f 102/102/17 99/101/17 100/100/15
f 99/101/17 102/102/17 103/103/18
f 104/104/18 103/103/18 102/102/17
f 103/103/18 104/104/18 105/105/26
f 106/106/26 105/105/26 104/104/18
f 109/107/27 108/108/27 107/109/2
f 110/110/2 107/109/2 108/108/27
f 107/109/2 110/110/2 111/111/28
f 112/112/28 111/111/28 110/110/2
f 115/113/20 114/114/20 113/115/22
f 116/116/22 113/115/22 114/114/20
f 113/115/22 116/116/22 117/117/23
f 118/118/23 117/117/23 116/116/22
f 117/117/23 118/118/23 119/119/24
f 120/120/24 119/119/24 118/118/23
f 123/121/27 122/122/19 121/123/2
f 124/124/2 121/123/2 122/122/19
f 121/123/2 124/124/2 125/125/20
f 126/126/20 125/125/20 124/124/2
f 129/127/19 128/128/29 127/129/18
f 130/130/18 127/129/18 128/128/29
f 127/129/18 130/130/18 131/131/17
f 132/132/17 131/131/17 130/130/18
f 131/131/17 132/132/17 133/133/15
f 134/134/15 133/133/15 132/132/17
f 137/135/25 136/136/25 135/137/8
f 138/138/8 135/137/8 136/136/25
f 135/137/8 138/138/8 139/139/16
f 140/140/16 139/139/16 138/138/8
f 143/141/24 142/142/24 141/143/23
f 144/144/23 141/143/23 142/142/24
f 141/143/23 144/144/23 145/145/22
f 146/146/22 145/145/22 144/144/23
f 145/145/22 146/146/22 147/147/20
f 148/148/20 147/147/20 146/146/22
f 151/149/27 150/150/2 149/151/27
f 152/152/2 149/151/27 150/150/2
f 150/150/2 153/153/20 152/152/2
f 154/154/30 152/152/2 153/153/20
f 157/155/19 156/156/18 155/157/19
f 158/158/18 155/157/19 156/156/18
f 156/156/18 159/159/17 158/158/18
f 160/160/17 158/158/18 159/159/17
f 159/159/17 161/161/15 160/160/17
f 162/162/15 160/160/17 161/161/15
f 165/163/15 164/164/8 163/165/15
f 166/166/8 163/165/15 164/164/8
f 164/164/8 167/167/24 166/166/8
f 168/168/24 166/166/8 167/167/24
f 171/169/24 170/170/23 169/171/24
f 172/172/23 169/171/24 170/170/23
f 170/170/23 173/173/22 172/172/23
f 174/174/22 172/172/23 173/173/22
f 173/173/22 175/175/20 174/174/22
f 176/176/20 174/174/22 175/175/20
f 179/177/13 178/178/13 177/179/13
f 180/180/13 177/179/13 178/178/13
f 183/181/5 182/182/5 181/183/5
f 184/184/5 181/183/5 182/182/5
f 187/185/8 186/186/8 185/187/8
f 188/188/8 185/187/8 186/186/8
f 191/189/12 190/190/12 189/191/12
f 192/192/12 189/191/12 190/190/12
f 195/193/2 194/194/2 193/195/2
f 196/196/2 193/195/2 194/194/2
f 199/197/6 198/198/8 197/199/6
f 200/200/8 197/199/6 198/198/8
f 198/198/8 201/201/10 200/200/8
f 202/202/31 200/200/8 201/201/10
f 205/203/32 204/204/5 203/205/6
f 206/206/33 203/205/6 204/204/5
f 204/204/5 207/207/34 206/206/33
f 208/208/35 206/206/33 207/207/34
f 211/209/1 210/210/2 209/211/1
f 212/212/2 209/211/1 210/210/2
f 210/210/2 213/213/4 212/212/2
f 214/214/36 212/212/2 213/213/4
f 217/215/4 216/216/12 215/217/37
f 218/218/12 215/217/37 216/216/12
f 216/216/12 219/219/9 218/218/12
f 220/220/9 218/218/12 219/219/9
f 223/221/6 222/222/8 221/223/6
f 224/198/8 221/223/6 222/222/8
f 222/222/8 225/224/9 224/198/8
f 226/225/9 224/198/8 225/224/9
f 229/226/6 228/227/5 227/228/6
f 230/229/5 227/228/6 228/227/5
f 228/227/5 231/230/1 230/229/5
f 232/231/1 230/229/5 231/230/1
f 235/232/1 234/212/2 233/233/1
f 236/234/2 233/233/1 234/212/2
f 234/212/2 237/235/4 236/234/2
f 238/236/4 236/234/2 237/235/4
f 241/237/37 240/218/12 239/238/37
f 242/239/12 239/238/37 240/218/12
f 240/218/12 243/240/9 242/239/12
f 244/241/9 242/239/12 243/240/9
f 247/242/6 246/243/8 245/244/6
f 248/245/8 245/244/6 246/243/8
f 246/243/8 249/246/9 248/245/8
f 250/247/38 248/245/8 249/246/9
f 253/203/32 252/248/33 251/205/39
f 254/249/5 251/205/39 252/248/33
f 252/248/33 255/250/34 254/249/5
f 256/208/1 254/249/5 255/250/34
f 259/251/40 258/252/2 257/253/1
f 260/254/2 257/253/1 258/252/2
f 258/252/2 261/255/4 260/254/2
f 262/256/4 260/254/2 261/255/4
f 265/257/14 264/216/12 263/217/37
f 266/218/12 263/217/37 264/216/12
f 264/216/12 267/219/41 266/218/12
f 268/258/31 266/218/12 267/219/41
f 271/259/42 270/260/8 269/261/6
f 272/243/8 269/261/6 270/260/8
f 270/260/8 273/262/10 272/243/8
f 274/263/9 272/243/8 273/262/10
f 277/264/6 276/227/5 275/265/6
f 278/229/5 275/265/6 276/227/5
f 276/227/5 279/266/1 278/229/5
f 280/267/43 278/229/5 279/266/1
f 283/268/1 282/254/2 281/269/1
f 284/270/2 281/269/1 282/254/2
f 282/254/2 285/271/4 284/270/2
f 286/272/4 284/270/2 285/271/4
f 289/273/4 288/274/12 287/275/4
f 290/276/12 287/275/4 288/274/12
f 288/274/12 291/240/9 290/276/12
f 292/241/41 290/276/12 291/240/9
f 295/277/13 294/278/13 293/279/13
f 296/280/13 293/279/13 294/278/13
f 299/281/44 298/282/44 297/283/44
f 300/284/44 297/283/44 298/282/44
f 303/285/45 302/286/45 301/287/45
f 304/288/45 301/287/45 302/286/45
f 307/289/46 306/290/46 305/291/46
f 308/292/46 305/291/46 306/290/46
f 311/293/47 310/294/47 309/295/47
f 312/296/47 309/295/47 310/294/47
f 315/297/48 314/298/48 313/299/45
f 316/300/49 313/299/45 314/298/48
f 313/299/45 316/300/49 317/301/50
f 318/302/50 317/301/50 316/300/49
f 321/303/48 320/304/51 319/305/44
f 322/306/44 319/305/44 320/304/51
f 319/305/44 322/306/44 323/307/52
f 324/308/52 323/307/52 322/306/44
f 327/309/52 326/310/52 325/311/47
f 328/312/47 325/311/47 326/310/52
f 325/311/47 328/312/47 329/313/53
f 330/314/54 329/313/53 328/312/47
f 333/315/54 332/316/54 331/317/55
f 334/318/46 331/317/55 332/316/54
f 331/317/55 334/318/46 335/319/56
f 336/320/56 335/319/56 334/318/46
f 339/321/48 338/322/48 337/323/45
f 340/324/45 337/323/45 338/322/48
f 337/323/45 340/324/45 341/325/50
f 342/326/50 341/325/50 340/324/45
f 345/327/48 344/328/48 343/329/44
f 346/330/44 343/329/44 344/328/48
f 343/329/44 346/330/44 347/331/52
f 348/332/52 347/331/52 346/330/44
f 351/333/52 350/334/52 349/335/47
f 352/336/47 349/335/47 350/334/52
f 349/335/47 352/336/47 353/337/54
f 354/338/54 353/337/54 352/336/47
f 357/339/54 356/340/54 355/341/46
f 358/342/46 355/341/46 356/340/54
f 355/341/46 358/342/46 359/343/57
f 360/344/50 359/343/57 358/342/46
f 363/345/48 362/346/48 361/347/45
f 364/348/45 361/347/45 362/346/48
f 361/347/45 364/348/45 365/349/50
f 366/350/50 365/349/50 364/348/45
f 369/351/48 368/352/48 367/353/44
f 370/354/44 367/353/44 368/352/48
f 367/353/44 370/354/44 371/355/52
f 372/356/58 371/355/52 370/354/44
f 375/357/52 374/358/52 373/359/47
f 376/360/47 373/359/47 374/358/52
f 373/359/47 376/360/47 377/361/54
f 378/362/54 377/361/54 376/360/47
f 381/363/59 380/364/54 379/365/55
f 382/366/46 379/365/55 380/364/54
f 379/365/55 382/366/46 383/367/50
f 384/368/56 383/367/50 382/366/46
f 387/369/60 386/370/61 385/371/45
f 388/372/45 385/371/45 386/370/61
f 385/371/45 388/372/45 389/373/50
f 390/374/50 389/373/50 388/372/45
f 393/375/62 392/376/48 391/377/44
f 394/378/44 391/377/44 392/376/48
f 391/377/44 394/378/44 395/379/52
f 396/380/52 395/379/52 394/378/44
f 399/381/52 398/382/52 397/383/47
f 400/384/47 397/383/47 398/382/52
f 397/383/47 400/384/47 401/385/54
f 402/386/54 401/385/54 400/384/47
f 405/387/54 404/388/54 403/389/46
f 406/390/46 403/389/46 404/388/54
f 403/389/46 406/390/46 407/391/50
f 408/392/50 407/391/50 406/390/46
f 411/393/13 410/394/13 409/395/13
f 412/396/13 409/395/13 410/394/13
f 415/397/63 414/398/63 413/399/63
f 416/400/63 413/399/63 414/398/63
f 419/401/64 418/402/64 417/403/64
f 420/404/64 417/403/64 418/402/64
f 423/405/65 422/406/65 421/407/65
f 424/408/65 421/407/65 422/406/65
f 427/409/66 426/410/66 425/411/66
f 428/412/66 425/411/66 426/410/66
f 431/413/67 430/414/64 429/415/67
f 432/416/64 429/415/67 430/414/64
f 430/414/64 433/417/68 432/416/64
f 434/418/68 432/416/64 433/417/68
f 437/419/69 436/420/63 435/421/67
f 438/422/63 435/421/67 436/420/63
f 436/420/63 439/423/70 438/422/63
f 440/424/70 438/422/63 439/423/70
f 443/425/70 442/426/66 441/427/70
f 444/428/66 441/427/70 442/426/66
f 442/426/66 445/429/71 444/428/66
f 446/430/71 444/428/66 445/429/71
f 449/431/71 448/432/65 447/433/71
f 450/434/65 447/433/71 448/432/65
f 448/432/65 451/435/72 450/434/65
f 452/436/68 450/434/65 451/435/72
f 455/437/67 454/438/64 453/439/67
f 456/440/64 453/439/67 454/438/64
f 454/438/64 457/441/68 456/440/64
f 458/442/68 456/440/64 457/441/68
f 461/443/67 460/444/63 459/445/67
f 462/446/63 459/445/67 460/444/63
f 460/444/63 463/447/70 462/446/63
f 464/448/73 462/446/63 463/447/70
f 467/449/70 466/450/66 465/451/70
f 468/452/66 465/451/70 466/450/66
f 466/450/66 469/453/71 468/452/66
f 470/454/74 468/452/66 469/453/71
f 473/455/71 472/456/65 471/457/71
f 474/458/65 471/457/71 472/456/65
f 472/456/65 475/459/68 474/458/65
f 476/460/68 474/458/65 475/459/68
f 479/461/67 478/462/64 477/463/67
f 480/464/64 477/463/67 478/462/64
f 478/462/64 481/465/68 480/464/64
f 482/466/68 480/464/64 481/465/68
f 485/467/67 484/468/63 483/469/67
f 486/470/63 483/469/67 484/468/63
f 484/468/63 487/471/73 486/470/63
f 488/472/73 486/470/63 487/471/73
f 491/473/70 490/474/66 489/475/70
f 492/476/66 489/475/70 490/474/66
f 490/474/66 493/477/71 492/476/66
f 494/478/71 492/476/66 493/477/71
f 497/479/71 496/480/65 495/481/75
f 498/482/65 495/481/75 496/480/65
f 496/480/65 499/483/76 498/482/65
f 500/484/76 498/482/65 499/483/76
f 503/485/67 502/486/64 501/487/67
f 504/488/64 501/487/67 502/486/64
f 502/486/64 505/489/68 504/488/64
f 506/490/77 504/488/64 505/489/68
f 509/491/67 508/492/63 507/493/67
f 510/494/63 507/493/67 508/492/63
f 508/492/63 511/495/70 510/494/63
f 512/496/70 510/494/63 511/495/70
f 515/497/70 514/498/66 513/499/70
f 516/500/66 513/499/70 514/498/66
f 514/498/66 517/501/71 516/500/66
f 518/502/71 516/500/66 517/501/71
f 521/503/75 520/504/65 519/505/71
f 522/506/65 519/505/71 520/504/65
f 520/504/65 523/507/68 522/506/65
f 524/508/68 522/506/65 523/507/68
f 527/509/78 526/510/13 525/511/79
f 525/511/79 526/510/13 528/512/80
f 529/513/81 526/510/13 527/509/78
f 528/512/80 526/510/13 530/514/82
f 531/515/83 526/510/13 529/513/81
f 530/514/82 526/510/13 532/516/84
f 533/517/85 526/510/13 531/515/83
f 532/516/84 526/510/13 534/518/86
f 535/519/87 526/510/13 533/517/85
f 534/518/86 526/510/13 535/519/87
f 538/520/86 537/521/13 536/522/87
f 536/522/87 537/521/13 539/523/88
f 540/524/84 537/521/13 538/520/86
f 539/523/88 537/521/13 541/525/83
f 542/526/82 537/521/13 540/524/84
f 541/525/83 537/521/13 543/527/81
f 544/528/80 537/521/13 542/526/82
f 543/527/81 537/521/13 545/529/78
f 546/530/79 537/521/13 544/528/80
f 545/529/78 537/521/13 546/530/79
f 549/531/13 548/532/89 547/533/90
f 549/531/13 547/533/90 550/534/91
f 549/531/13 551/535/92 548/532/89
f 549/531/13 550/534/91 552/536/93
f 549/531/13 553/537/94 551/535/92
f 549/531/13 552/536/93 554/538/95
f 549/531/13 555/539/96 553/537/94
f 549/531/13 554/538/95 555/539/96
f 558/540/13 557/541/89 556/542/90
f 558/540/13 556/542/90 559/543/91
f 558/540/13 560/544/92 557/541/89
f 558/540/13 559/543/91 561/545/93
f 558/540/13 562/546/94 560/544/92
f 558/540/13 561/545/93 563/547/95
f 558/540/13 564/548/96 562/546/94
f 558/540/13 563/547/95 564/548/96
f 567/549/97 566/550/13 565/551/98
f 565/551/98 566/550/13 568/552/99
f 569/553/100 566/550/13 567/549/97
f 568/552/99 566/550/13 570/554/101
f 571/555/102 566/550/13 569/553/100
f 570/554/101 566/550/13 572/556/103
f 573/557/104 566/550/13 571/555/102
f 572/556/103 566/550/13 573/557/104
f 576/558/97 575/559/13 574/560/98
f 574/560/98 575/559/13 577/561/105
f 578/562/100 575/559/13 576/558/97
f 577/561/105 575/559/13 579/563/101
f 580/564/102 575/559/13 578/562/100
f 579/563/101 575/559/13 581/565/103
f 582/566/106 575/559/13 580/564/102
f 581/565/103 575/559/13 582/566/106
f 585/567/13 584/568/107 583/569/108
f 585/567/13 583/569/108 586/570/109
f 585/567/13 587/571/110 584/568/107
f 585/567/13 586/570/109 588/572/111
f 585/567/13 589/573/112 587/571/110
f 585/567/13 588/572/111 590/574/113
f 585/567/13 591/575/114 589/573/112
f 585/567/13 590/574/113 591/575/114
f 594/576/13 593/577/107 592/578/108
f 594/576/13 592/578/108 595/579/109
f 594/576/13 596/580/110 593/577/107
f 594/576/13 595/579/109 597/581/111
f 594/576/13 598/582/115 596/580/110
f 594/576/13 597/581/111 599/583/113
f 594/576/13 600/584/114 598/582/115
f 594/576/13 599/583/113 600/584/114
f 603/585/116 602/586/117 601/587/118
f 604/588/119 601/587/118 602/586/117
f 602/586/117 603/585/116 605/589/120
f 601/587/118 604/588/119 606/590/121
f 607/591/122 605/589/120 603/585/116
f 608/592/123 606/590/121 604/588/119
f 605/589/120 607/591/122 609/593/124
f 606/590/121 608/592/123 610/594/125
f 611/595/126 609/593/124 607/591/122
f 612/596/127 610/594/125 608/592/123
f 609/593/124 611/595/126 613/597/128
f 610/594/125 612/596/127 614/598/129
f 615/599/130 613/597/128 611/595/126
f 616/600/131 614/598/129 612/596/127
f 613/597/128 615/599/130 617/601/132
f 614/598/129 616/600/131 618/602/133
f 619/603/134 617/601/132 615/599/130
f 620/604/135 618/602/133 616/600/131
f 617/601/132 619/603/134 620/604/135
f 618/602/133 620/604/135 619/603/134
f 623/605/136 622/606/137 621/607/138
f 624/608/139 621/607/138 622/606/137
f 622/606/137 623/605/136 625/609/140
f 621/607/138 624/608/139 626/610/141
f 627/611/142 625/609/140 623/605/136
f 628/612/143 626/610/141 624/608/139
f 625/609/140 627/611/142 629/613/144
f 626/610/141 628/612/143 630/614/145
f 631/615/146 629/613/144 627/611/142
f 632/616/147 630/614/145 628/612/143
f 629/613/144 631/615/146 633/617/148
f 630/614/145 632/616/147 634/618/149
f 635/619/150 633/617/148 631/615/146
f 636/620/151 634/618/149 632/616/147
f 633/617/148 635/619/150 637/621/152
f 634/618/149 636/620/151 638/622/153
f 639/623/154 637/621/152 635/619/150
f 640/624/155 638/622/153 636/620/151
f 637/621/152 639/623/154 640/624/155
f 638/622/153 640/624/155 639/623/154
f 643/625/131 642/626/156 641/627/157
f 644/628/133 641/627/157 642/626/156
f 641/627/157 645/629/125 643/625/131
f 642/626/156 646/630/132 644/628/133
f 647/631/127 643/625/131 645/629/125
f 648/632/134 644/628/133 646/630/132
f 645/629/125 649/633/121 647/631/127
f 646/630/132 650/634/128 648/632/134
f 651/635/123 647/631/127 649/633/121
f 652/636/130 648/632/134 650/634/128
f 649/633/121 653/637/158 651/635/123
f 650/634/128 654/638/124 652/636/130
f 655/639/119 651/635/123 653/637/158
f 656/640/126 652/636/130 654/638/124
f 653/637/158 657/641/116 655/639/119
f 654/638/124 658/642/120 656/640/126
f 659/643/117 655/639/119 657/641/116
f 660/644/122 656/640/126 658/642/120
f 657/641/116 660/644/122 659/643/117
f 658/642/120 659/643/117 660/644/122
f 663/645/150 662/646/154 661/647/148
f 664/648/152 661/647/148 662/646/154
f 661/647/148 665/649/159 663/645/150
f 662/646/154 666/650/153 664/648/152
f 667/651/146 663/645/150 665/649/159
f 668/652/155 664/648/152 666/650/153
f 665/649/159 669/653/160 667/651/146
f 666/650/153 670/654/149 668/652/155
f 671/655/142 667/651/146 669/653/160
f 672/656/161 668/652/155 670/654/149
f 669/653/160 673/657/137 671/655/142
f 670/654/149 674/658/145 672/656/161
f 675/659/136 671/655/142 673/657/137
f 676/660/162 672/656/161 674/658/145
f 673/657/137 677/661/139 675/659/136
f 674/658/145 678/662/163 676/660/162
f 679/663/138 675/659/136 677/661/139
f 680/664/143 676/660/162 678/662/163
f 677/661/139 680/664/143 679/663/138
f 678/662/163 679/663/138 680/664/143
f 683/665/164 682/666/164 681/667/164
f 684/668/164 681/667/164 682/666/164
f 681/667/164 685/669/164 683/665/164
f 682/666/164 686/670/164 684/668/164
f 687/671/164 683/665/164 685/669/164
f 688/672/164 684/668/164 686/670/164
f 685/669/164 689/673/164 687/671/164
f 686/670/164 690/674/164 688/672/164
f 691/675/164 687/671/164 689/673/164
f 692/676/164 688/672/164 690/674/164
f 689/673/164 693/677/164 691/675/164
f 690/674/164 694/678/164 692/676/164
f 695/679/164 691/675/164 693/677/164
f 696/680/164 692/676/164 694/678/164
f 693/677/164 696/680/164 695/679/164
f 694/678/164 695/679/164 696/680/164
f 699/681/164 698/682/164 697/683/164
f 700/684/164 697/683/164 698/682/164
f 697/683/164 701/685/164 699/681/164
f 698/682/164 702/686/164 700/684/164
f 703/687/164 699/681/164 701/685/164
f 704/688/164 700/684/164 702/686/164
f 701/685/164 705/689/164 703/687/164
f 702/686/164 706/690/164 704/688/164
f 707/691/164 703/687/164 705/689/164
f 708/692/164 704/688/164 706/690/164
f 705/689/164 709/693/164 707/691/164
f 706/690/164 710/694/164 708/692/164
f 711/695/164 707/691/164 709/693/164
f 712/696/164 708/692/164 710/694/164
f 709/693/164 712/696/164 711/695/164
f 710/694/164 711/695/164 712/696/164
f 715/697/164 714/698/164 713/699/164
f 716/700/164 713/699/164 714/698/164
f 714/698/164 715/697/164 717/701/164
f 713/699/164 716/700/164 718/702/164
f 719/703/164 717/701/164 715/697/164
f 720/704/164 718/702/164 716/700/164
f 717/701/164 719/703/164 721/705/164
f 718/702/164 720/704/164 722/706/164
f 723/707/164 721/705/164 719/703/164
f 724/708/164 722/706/164 720/704/164
f 721/705/164 723/707/164 725/709/164
f 722/706/164 724/708/164 726/710/164
f 727/711/164 725/709/164 723/707/164
f 728/712/164 726/710/164 724/708/164
f 725/709/164 727/711/164 728/712/164
f 726/710/164 728/712/164 727/711/164
f 731/713/164 730/714/164 729/715/164
f 732/716/164 729/715/164 730/714/164
f 730/714/164 731/713/164 733/717/164
f 729/715/164 732/716/164 734/718/164
f 735/719/164 733/717/164 731/713/164
f 736/720/164 734/718/164 732/716/164
f 733/717/164 735/719/164 737/721/164
f 734/718/164 736/720/164 738/722/164
f 739/723/164 737/721/164 735/719/164
f 740/724/164 738/722/164 736/720/164
f 737/721/164 739/723/164 741/725/164
f 738/722/164 740/724/164 742/726/164
f 743/727/164 741/725/164 739/723/164
f 744/728/164 742/726/164 740/724/164
f 741/725/164 743/727/164 744/728/164
f 742/726/164 744/728/164 743/727/164
f 747/729/164 746/730/164 745/731/164
f 748/732/164 745/731/164 746/730/164
f 745/731/164 749/733/164 747/729/164
f 746/730/164 750/734/164 748/732/164
f 751/735/164 747/729/164 749/733/164
f 752/736/164 748/732/164 750/734/164
f 749/733/164 753/737/164 751/735/164
f 750/734/164 754/738/164 752/736/164
f 755/739/164 751/735/164 753/737/164
f 756/740/164 752/736/164 754/738/164
f 753/737/164 757/741/164 755/739/164
f 754/738/164 758/742/164 756/740/164
f 759/743/164 755/739/164 757/741/164
f 760/744/164 756/740/164 758/742/164
f 757/741/164 760/744/164 759/743/164
f 758/742/164 759/743/164 760/744/164
f 763/745/164 762/746/164 761/747/164
f 764/748/164 761/747/164 762/746/164
f 761/747/164 765/749/164 763/745/164
f 762/746/164 766/750/164 764/748/164
f 767/751/164 763/745/164 765/749/164
f 768/752/164 764/748/164 766/750/164
f 765/749/164 769/753/164 767/751/164
f 766/750/164 770/754/164 768/752/164
f 771/755/164 767/751/164 769/753/164
f 772/756/164 768/752/164 770/754/164
f 769/753/164 773/757/164 771/755/164
f 770/754/164 774/758/164 772/756/164
f 775/759/164 771/755/164 773/757/164
f 776/760/164 772/756/164 774/758/164
f 773/757/164 776/760/164 775/759/164
f 774/758/164 775/759/164 776/760/164
