# Blender 5.1.0
# www.blender.org
mtllib vir_gun_305_x2_001_1.mtl
o vir_gun_305_x2_001_1
v 2.524120 3.088360 1.924670
v 0.000000 3.482780 -2.554846
v 3.043524 3.482780 -2.554847
v 0.000000 3.088360 1.924670
v -2.524117 3.088360 1.924670
v -3.043522 3.482780 -2.554847
v 0.000000 3.482780 -2.554846
v 3.360604 3.416595 -3.311355
v 3.043524 3.482780 -2.554847
v 3.107777 3.340159 -4.185016
v 2.801427 3.307228 -4.561419
v 2.234064 3.279004 -4.884013
v 1.554675 3.257768 -5.126735
v 0.797328 3.244586 -5.277412
v 0.000000 3.240117 -5.328493
v -0.797327 3.244586 -5.277412
v -1.554675 3.257768 -5.126735
v -2.234062 3.279004 -4.884013
v -2.801426 3.307228 -4.561419
v -3.107777 3.340159 -4.185016
v -3.360604 3.416595 -3.311355
v -3.043522 3.482780 -2.554847
vn -0.0000 0.9961 0.0877
vn -0.0000 0.9962 -0.0872
vt 0.450911 0.507986
vt 0.500000 0.507986
vt 0.459288 0.580236
vt 0.500000 0.580236
vt 0.540712 0.580236
vt 0.549089 0.507986
vt 0.445797 0.495784
vt 0.449875 0.481693
vt 0.454816 0.475622
vt 0.463967 0.470419
vt 0.474925 0.466504
vt 0.487140 0.464074
vt 0.500000 0.463250
vt 0.512860 0.464074
vt 0.525075 0.466504
vt 0.536033 0.470419
vt 0.545184 0.475622
vt 0.550125 0.481693
vt 0.554203 0.495784
s 1
g vir_gun_305_x2_001_1_steel_3
usemtl steel_3
f 3/1/1 2/2/1 1/3/1
f 4/4/1 1/3/1 2/2/1
f 4/4/1 2/2/1 5/5/1
f 6/6/1 5/5/1 2/2/1
f 9/1/2 8/7/2 7/2/2
f 8/7/2 10/8/2 7/2/2
f 10/8/2 11/9/2 7/2/2
f 11/9/2 12/10/2 7/2/2
f 12/10/2 13/11/2 7/2/2
f 13/11/2 14/12/2 7/2/2
f 14/12/2 15/13/2 7/2/2
f 15/13/2 16/14/2 7/2/2
f 16/14/2 17/15/2 7/2/2
f 17/15/2 18/16/2 7/2/2
f 18/16/2 19/17/2 7/2/2
f 19/17/2 20/18/2 7/2/2
f 20/18/2 21/19/2 7/2/2
f 21/19/2 22/6/2 7/2/2
