# Blender 5.1.0
# www.blender.org
mtllib vir_gun_305_barrel_001_vir_gun_305_barrel_001.mtl
o vir_gun_305_barrel_001_vir_gun_305_barrel_001
v 0.000001 0.490458 -0.774732
v -0.265177 0.365005 4.469647
v -0.288282 0.396788 -0.774731
v 0.000015 0.451171 4.469647
v 0.288284 0.396788 -0.774733
v 0.265205 0.365005 4.469644
v -0.429076 0.139420 4.469647
v -0.288282 0.396788 -0.774731
v -0.265177 0.365005 4.469647
v -0.466450 0.151560 -0.774730
v -0.429076 -0.139418 4.469647
v -0.466451 -0.151558 -0.774729
v -0.265179 -0.365005 4.469646
v -0.288284 -0.396788 -0.774731
v 0.000013 -0.451170 4.469646
v -0.288284 -0.396788 -0.774731
v -0.265179 -0.365005 4.469646
v -0.000001 -0.490456 -0.774732
v 0.265205 -0.365005 4.469643
v 0.288282 -0.396787 -0.774733
v 0.429103 -0.139418 4.469643
v 0.288282 -0.396787 -0.774733
v 0.265205 -0.365005 4.469643
v 0.466451 -0.151559 -0.774733
v 0.429103 0.139421 4.469643
v 0.466453 0.151560 -0.774733
v 0.265205 0.365005 4.469644
v 0.288284 0.396788 -0.774733
v 0.000015 0.361308 4.469646
v -0.150331 0.206961 10.396406
v -0.212357 0.292305 4.469645
v 0.000033 0.255817 10.396406
v -0.171993 0.236777 10.619424
v 0.212387 0.292305 4.469644
v 0.000034 0.292672 10.619424
v 0.150397 0.206961 10.396403
v 0.172061 0.236776 10.619421
v -0.343610 -0.111650 4.469646
v -0.150332 -0.206955 10.396403
v -0.212358 -0.292303 4.469646
v -0.243260 -0.079048 10.396403
v -0.171995 -0.236771 10.619424
v -0.343610 0.111650 4.469646
v -0.278311 -0.090436 10.619424
v -0.243260 0.079053 10.396403
v -0.212357 0.292305 4.469645
v -0.278311 0.090443 10.619424
v -0.150331 0.206961 10.396406
v -0.171993 0.236777 10.619424
v 0.000013 -0.361307 4.469645
v 0.150397 -0.206956 10.396406
v 0.212385 -0.292303 4.469645
v 0.000033 -0.255811 10.396406
v 0.172059 -0.236773 10.619424
v -0.212358 -0.292303 4.469646
v 0.000033 -0.292665 10.619424
v -0.150332 -0.206955 10.396403
v -0.171995 -0.236771 10.619424
v 0.343638 0.111651 4.469644
v 0.150397 0.206961 10.396403
v 0.212387 0.292305 4.469644
v 0.243326 0.079053 10.396403
v 0.172061 0.236776 10.619421
v 0.343638 -0.111650 4.469644
v 0.278378 0.090441 10.619421
v 0.243326 -0.079048 10.396403
v 0.212385 -0.292303 4.469645
v 0.278378 -0.090439 10.619421
v 0.150397 -0.206956 10.396406
v 0.172059 -0.236773 10.619424
v -0.265177 0.365005 4.469647
v 0.000013 0.000003 4.846623
v -0.429076 0.139420 4.469647
v 0.000015 0.451171 4.469647
v -0.429076 -0.139418 4.469647
v 0.265205 0.365005 4.469644
v -0.265179 -0.365005 4.469646
v 0.429103 0.139421 4.469643
v 0.000013 -0.451170 4.469646
v 0.429103 -0.139418 4.469643
v 0.265205 -0.365005 4.469643
v 0.000034 0.292672 10.619424
v -0.108116 0.148858 10.664387
v -0.171993 0.236777 10.619424
v 0.000033 0.183997 10.664387
v -0.174957 0.056860 10.664387
v 0.172061 0.236776 10.619421
v -0.278311 0.090443 10.619424
v 0.108182 0.148857 10.664387
v -0.174956 -0.056855 10.664387
v 0.278378 0.090441 10.619421
v -0.278311 -0.090436 10.619424
v 0.175022 0.056859 10.664385
v -0.108116 -0.148852 10.664387
v 0.278378 -0.090439 10.619421
v -0.171995 -0.236771 10.619424
v 0.175022 -0.056856 10.664385
v 0.000033 -0.183992 10.664387
v 0.172059 -0.236773 10.619424
v 0.000033 -0.292665 10.619424
v 0.108182 -0.148853 10.664387
v 0.000033 0.183997 10.664387
v 0.000013 0.000001 4.469644
v -0.108116 0.148858 10.664387
v 0.108182 0.148857 10.664387
v -0.108116 0.148858 10.664387
v 0.000013 0.000001 4.469644
v -0.174957 0.056860 10.664387
v -0.174956 -0.056855 10.664387
v -0.108116 -0.148852 10.664387
v -0.108116 -0.148852 10.664387
v 0.000013 0.000001 4.469644
v 0.000033 -0.183992 10.664387
v 0.108182 -0.148853 10.664387
v 0.108182 -0.148853 10.664387
v 0.000013 0.000001 4.469644
v 0.175022 -0.056856 10.664385
v 0.175022 0.056859 10.664385
v 0.108182 0.148857 10.664387
vn -0.5877 0.8091 0.0075
vn -0.0000 1.0000 0.0075
vn 0.5877 0.8091 0.0075
vn -0.5878 0.8090 0.0075
vn -0.9510 0.3090 0.0075
vn -0.9510 -0.3090 0.0075
vn -0.5878 -0.8090 0.0075
vn -0.5877 -0.8091 0.0075
vn -0.0000 -1.0000 0.0075
vn 0.5877 -0.8091 0.0075
vn 0.5878 -0.8090 0.0075
vn 0.9510 -0.3090 0.0075
vn 0.9510 0.3090 0.0075
vn 0.5878 0.8090 0.0075
vn -0.5877 0.8089 0.0178
vn -0.5861 0.8068 -0.0743
vn -0.0000 0.9998 0.0178
vn -0.0000 0.9972 -0.0743
vn -0.5799 0.7982 -0.1630
vn 0.5877 0.8089 0.0178
vn -0.0000 0.9866 -0.1630
vn 0.5861 0.8068 -0.0743
vn 0.5799 0.7982 -0.1630
vn -0.5877 -0.8089 0.0178
vn -0.5862 -0.8068 -0.0743
vn -0.9509 -0.3090 0.0178
vn -0.9484 -0.3082 -0.0743
vn -0.5800 -0.7981 -0.1630
vn -0.9509 0.3090 0.0178
vn -0.9383 -0.3049 -0.1630
vn -0.9484 0.3082 -0.0743
vn -0.9383 0.3049 -0.1630
vn -0.5862 0.8068 -0.0743
vn -0.5800 0.7981 -0.1630
vn 0.5877 -0.8089 0.0178
vn 0.5861 -0.8068 -0.0743
vn -0.0000 -0.9998 0.0178
vn -0.0000 -0.9972 -0.0743
vn 0.5799 -0.7982 -0.1630
vn -0.5876 -0.8089 0.0178
vn -0.0000 -0.9866 -0.1630
vn -0.5861 -0.8068 -0.0743
vn -0.5799 -0.7982 -0.1630
vn 0.5862 0.8068 -0.0743
vn 0.9509 0.3090 0.0178
vn 0.9484 0.3082 -0.0743
vn 0.5800 0.7981 -0.1630
vn 0.9509 -0.3090 0.0178
vn 0.9383 0.3049 -0.1630
vn 0.9484 -0.3082 -0.0743
vn 0.9383 -0.3049 -0.1630
vn 0.5862 -0.8067 -0.0743
vn -0.6098 0.1981 0.7674
vn -0.0000 -0.0000 1.0000
vn -0.3769 0.5187 0.7674
vn -0.0000 0.6412 0.7674
vn -0.6098 -0.1981 0.7674
vn 0.3769 0.5187 0.7674
vn -0.3769 -0.5187 0.7674
vn 0.6098 0.1981 0.7674
vn -0.0000 -0.6412 0.7674
vn 0.6098 -0.1981 0.7674
vn 0.3769 -0.5187 0.7674
vn -0.2247 0.3093 0.9240
vn -0.0000 0.3823 0.9240
vn -0.3636 0.1181 0.9240
vn 0.2247 0.3093 0.9240
vn -0.3636 -0.1181 0.9240
vn 0.3636 0.1181 0.9240
vn -0.2247 -0.3093 0.9240
vn 0.3636 -0.1181 0.9240
vn -0.0000 -0.3823 0.9240
vn 0.2247 -0.3093 0.9240
vn 0.5875 -0.8087 0.0297
vn 0.0011 -0.0030 1.0000
vn -0.0000 -0.9996 0.0297
vn -0.5875 -0.8088 0.0269
vn 0.9506 -0.3089 0.0297
vn 0.5876 -0.8087 0.0269
vn 0.9506 0.3089 0.0297
vn 0.5876 0.8086 0.0297
vn -0.0000 0.9996 0.0297
vn 0.5875 0.8088 0.0269
vn -0.5875 0.8087 0.0297
vn -0.9506 0.3089 0.0297
vn -0.5876 0.8087 0.0269
vn -0.9506 -0.3089 0.0297
vn -0.5876 -0.8086 0.0297
vt 28.147528 0.533839
vt 28.147877 0.454151
vt 28.151901 0.533839
vt 28.151901 0.454151
vt 28.156275 0.533839
vt 28.155926 0.454151
vt 0.545849 0.533254
vt 0.466161 0.533735
vt 0.545848 0.529836
vt 0.466161 0.530020
vt 0.545848 0.525612
vt 0.466161 0.525428
vt 0.545848 0.522195
vt 0.466161 0.521714
vt -27.147877 0.454151
vt -27.147528 0.533839
vt -27.151901 0.454151
vt -27.151901 0.533839
vt -27.155926 0.454152
vt -27.156275 0.533839
vt 0.454152 0.522195
vt 0.533839 0.521714
vt 0.454152 0.525612
vt 0.533839 0.525428
vt 0.454152 0.529836
vt 0.533839 0.530020
vt 0.454151 0.533254
vt 0.533839 0.533735
vt 28.148680 0.454151
vt 28.149620 0.364095
vt 28.151901 0.364095
vt 28.149292 0.360706
vt 28.155125 0.454151
vt 28.151901 0.360706
vt 28.154182 0.364095
vt 28.154512 0.360706
vt 0.545848 0.523296
vt 0.635905 0.524589
vt 0.545848 0.526033
vt 0.635905 0.526527
vt 0.639294 0.524138
vt 0.545848 0.529416
vt 0.639294 0.526354
vt 0.635905 0.528922
vt 0.545848 0.532152
vt 0.639294 0.529094
vt 0.635905 0.530859
vt 0.639294 0.531311
vt -27.155125 0.454151
vt -27.154182 0.364095
vt -27.151901 0.364095
vt -27.154512 0.360706
vt -27.148680 0.454151
vt -27.151901 0.360706
vt -27.149620 0.364095
vt -27.149292 0.360706
vt 0.454151 0.532152
vt 0.364095 0.530859
vt 0.454151 0.529416
vt 0.364095 0.528922
vt 0.360706 0.531311
vt 0.454151 0.526033
vt 0.360706 0.529094
vt 0.364095 0.526527
vt 0.454151 0.523296
vt 0.360706 0.526354
vt 0.364095 0.524589
vt 0.360706 0.524138
vt 28.145391 0.529836
vt 28.151901 0.527724
vt 28.147877 0.533254
vt 28.151901 0.534559
vt 28.145391 0.525612
vt 28.155926 0.533254
vt 28.147877 0.522195
vt 28.158413 0.529836
vt 28.151901 0.520890
vt 28.158413 0.525612
vt 28.155926 0.522195
vt 28.149292 0.531311
vt 28.150261 0.529979
vt 28.151901 0.532158
vt 28.151901 0.530512
vt 28.149246 0.528586
vt 28.154512 0.531311
vt 28.147678 0.529094
vt 28.153543 0.529979
vt 28.149246 0.526863
vt 28.156126 0.529094
vt 28.147678 0.526354
vt 28.154556 0.528586
vt 28.150261 0.525469
vt 28.156126 0.526354
vt 28.149292 0.524138
vt 28.154556 0.526863
vt 28.151901 0.524937
vt 28.154512 0.524138
vt 28.151901 0.523291
vt 28.153543 0.525469
vt -27.150261 0.360023
vt -27.151901 0.454152
vt -27.151901 0.360023
vt -27.153543 0.360023
vt 0.360023 0.528586
vt 0.454152 0.527724
vt 0.360023 0.529979
vt 0.360023 0.526863
vt 0.360023 0.525469
vt 28.151901 0.360023
vt 28.151901 0.454152
vt 28.150261 0.360023
vt 28.153543 0.360023
vt 0.639977 0.526863
vt 0.545848 0.527724
vt 0.639977 0.525469
vt 0.639977 0.528586
vt 0.639977 0.529979
s 1
g vir_gun_305_barrel_001_vir_gun_305_barrel_001_details_4
usemtl details_4
f 3/1/1 2/2/1 1/3/2
f 4/4/2 1/3/2 2/2/1
f 1/3/2 4/4/2 5/5/3
f 6/6/3 5/5/3 4/4/2
f 9/7/4 8/8/4 7/9/5
f 10/10/5 7/9/5 8/8/4
f 7/9/5 10/10/5 11/11/6
f 12/12/6 11/11/6 10/10/5
f 11/11/6 12/12/6 13/13/7
f 14/14/7 13/13/7 12/12/6
f 17/15/8 16/16/8 15/17/9
f 18/18/9 15/17/9 16/16/8
f 15/17/9 18/18/9 19/19/10
f 20/20/10 19/19/10 18/18/9
f 23/21/11 22/22/11 21/23/12
f 24/24/12 21/23/12 22/22/11
f 21/23/12 24/24/12 25/25/13
f 26/26/13 25/25/13 24/24/12
f 25/25/13 26/26/13 27/27/14
f 28/28/14 27/27/14 26/26/13
f 31/29/15 30/30/16 29/4/17
f 32/31/18 29/4/17 30/30/16
f 30/30/16 33/32/19 32/31/18
f 29/4/17 32/31/18 34/33/20
f 35/34/21 32/31/18 33/32/19
f 36/35/22 34/33/20 32/31/18
f 32/31/18 35/34/21 36/35/22
f 37/36/23 36/35/22 35/34/21
f 40/37/24 39/38/25 38/39/26
f 41/40/27 38/39/26 39/38/25
f 39/38/25 42/41/28 41/40/27
f 38/39/26 41/40/27 43/42/29
f 44/43/30 41/40/27 42/41/28
f 45/44/31 43/42/29 41/40/27
f 41/40/27 44/43/30 45/44/31
f 43/42/29 45/44/31 46/45/15
f 47/46/32 45/44/31 44/43/30
f 48/47/33 46/45/15 45/44/31
f 45/44/31 47/46/32 48/47/33
f 49/48/34 48/47/33 47/46/32
f 52/49/35 51/50/36 50/17/37
f 53/51/38 50/17/37 51/50/36
f 51/50/36 54/52/39 53/51/38
f 50/17/37 53/51/38 55/53/40
f 56/54/41 53/51/38 54/52/39
f 57/55/42 55/53/40 53/51/38
f 53/51/38 56/54/41 57/55/42
f 58/56/43 57/55/42 56/54/41
f 61/57/20 60/58/44 59/59/45
f 62/60/46 59/59/45 60/58/44
f 60/58/44 63/61/47 62/60/46
f 59/59/45 62/60/46 64/62/48
f 65/63/49 62/60/46 63/61/47
f 66/64/50 64/62/48 62/60/46
f 62/60/46 65/63/49 66/64/50
f 64/62/48 66/64/50 67/65/35
f 68/66/51 66/64/50 65/63/49
f 69/67/52 67/65/35 66/64/50
f 66/64/50 68/66/51 69/67/52
f 70/68/39 69/67/52 68/66/51
f 73/69/53 72/70/54 71/71/55
f 71/71/55 72/70/54 74/72/56
f 75/73/57 72/70/54 73/69/53
f 74/72/56 72/70/54 76/74/58
f 77/75/59 72/70/54 75/73/57
f 76/74/58 72/70/54 78/76/60
f 79/77/61 72/70/54 77/75/59
f 78/76/60 72/70/54 80/78/62
f 81/79/63 72/70/54 79/77/61
f 80/78/62 72/70/54 81/79/63
f 84/80/64 83/81/64 82/82/65
f 85/83/65 82/82/65 83/81/64
f 83/81/64 84/80/64 86/84/66
f 82/82/65 85/83/65 87/85/67
f 88/86/66 86/84/66 84/80/64
f 89/87/67 87/85/67 85/83/65
f 86/84/66 88/86/66 90/88/68
f 87/85/67 89/87/67 91/89/69
f 92/90/68 90/88/68 88/86/66
f 93/91/69 91/89/69 89/87/67
f 90/88/68 92/90/68 94/92/70
f 91/89/69 93/91/69 95/93/71
f 96/94/70 94/92/70 92/90/68
f 97/95/71 95/93/71 93/91/69
f 94/92/70 96/94/70 98/96/72
f 95/93/71 97/95/71 99/97/73
f 100/98/72 98/96/72 96/94/70
f 101/99/73 99/97/73 97/95/71
f 98/96/72 100/98/72 101/99/73
f 99/97/73 101/99/73 100/98/72
f 104/100/74 103/101/75 102/102/76
f 105/103/77 102/102/76 103/101/75
f 108/104/78 107/105/75 106/106/79
f 109/107/80 107/105/75 108/104/78
f 110/108/81 107/105/75 109/107/80
f 113/109/82 112/110/75 111/111/83
f 114/112/84 112/110/75 113/109/82
f 117/113/85 116/114/75 115/115/86
f 118/116/87 116/114/75 117/113/85
f 119/117/88 116/114/75 118/116/87
