# Blender 5.1.0
# www.blender.org
mtllib vir_gun_305_003.mtl
o vir_gun_305_x2_001_2
v 0.495199 1.201879 4.091141
v 0.571552 1.486843 3.757945
v 0.285900 1.031323 4.120032
v -0.571550 1.663426 3.553032
v -0.495199 1.201879 4.091141
v -0.571552 1.486843 3.757945
v -0.285900 1.031323 4.120032
v 0.000000 0.954401 4.155396
v 0.495198 2.628902 2.902547
v 0.571550 1.663426 3.553032
v 0.571806 2.342996 3.362392
v 0.571586 1.791214 4.249867
v 0.571552 1.525263 4.249867
v 0.495200 1.240300 4.249867
v 0.285909 2.838197 2.565922
v 0.000000 2.914804 2.442707
v 0.000000 2.895593 2.144450
v -0.285909 2.838197 2.565922
v -0.495198 2.628902 2.902547
v 0.285900 1.031007 4.249867
v 0.000000 0.954401 4.249867
v -0.285900 1.031007 4.249867
v -0.495199 1.240300 4.249867
v 0.455657 1.791214 4.249867
v 0.455623 1.540524 4.249867
v 0.391260 1.300309 4.249867
v 0.225891 1.134946 4.249867
v 0.000000 1.074419 4.249867
v -0.225890 1.134946 4.249867
v -0.391260 1.300309 4.249867
v -0.455623 1.540524 4.249867
v -0.571552 1.525263 4.249867
v -0.455656 1.791214 4.249867
v -0.571586 1.791214 4.249867
v 0.391260 1.300310 2.078410
v 0.225891 1.134946 2.078410
v 0.000000 1.074419 4.249867
v 0.000000 1.074420 2.078410
v -0.225890 1.134946 2.078410
v -0.225890 1.134946 4.249867
v -0.391260 1.300310 2.078410
v 0.455623 1.540524 2.078410
v 0.391260 1.300310 2.078410
v 0.455870 2.327756 2.078410
v 0.455870 2.327756 3.386903
v 0.391259 2.568893 2.999063
v 0.391259 2.568893 2.078410
v 0.391259 2.568893 2.078410
v 0.225900 2.734258 2.733095
v 0.391259 2.568893 2.999063
v 0.225900 2.734258 2.078410
v 0.000000 2.794786 2.635743
v 0.000000 2.794786 2.078410
v -0.225898 2.734258 2.078410
v -0.225898 2.734258 2.733095
v -0.391257 2.568893 2.078410
v -0.391257 2.568893 2.999063
v 0.455870 2.327756 3.386903
v 0.391259 2.568893 2.999063
v 0.225900 2.734258 2.733095
v 0.000000 2.794786 2.635743
v -0.225898 2.734258 2.733095
v -0.391257 2.568893 2.999063
v -0.571805 2.342996 3.362392
v -0.455869 2.327756 3.386903
v -0.455623 1.540524 2.078410
v -0.391260 1.300310 2.078410
v -0.455869 2.327756 2.078410
v -0.455869 2.327756 3.386903
v -0.391257 2.568893 2.999063
v -0.391257 2.568893 2.078410
v 0.285909 2.794471 2.253823
v -0.285909 2.794471 2.253823
v -0.495198 2.495093 2.592539
v -0.571805 2.095543 3.052382
v 0.495198 2.495093 2.592539
v 0.571805 2.095543 3.052382
v -1.880797 1.508219 3.695196
v -2.166449 1.031323 3.514325
v -3.023899 1.487108 2.817230
v -2.947548 1.201880 2.900000
v -3.023900 1.486843 2.817035
v -2.738248 1.031323 3.125000
v -2.452349 0.954401 3.334900
v -1.987150 2.628902 2.676182
v -1.880798 1.663426 3.512506
v -1.880543 2.342996 3.056124
v -1.880762 1.791214 3.776863
v -1.880797 1.525263 3.776863
v -1.957149 1.240300 3.776863
v -2.166439 2.838197 2.405221
v -2.452349 2.914804 2.282006
v -2.452349 2.895593 2.136348
v -2.738258 2.838197 2.405221
v -2.917550 2.628902 2.676182
v -2.166449 1.031007 3.776863
v -2.452349 0.954401 3.776863
v -2.738248 1.031007 3.776863
v -2.947548 1.240300 3.776863
v -1.996692 1.791214 3.776863
v -1.996726 1.540524 3.776863
v -2.061089 1.300310 3.776863
v -2.226458 1.134946 3.776863
v -2.452349 1.074419 3.776863
v -2.678239 1.134946 3.776863
v -2.843608 1.300310 3.776863
v -2.907971 1.540524 3.776863
v -3.023900 1.525263 3.776863
v -2.908004 1.791214 3.776863
v -3.023934 1.791214 3.776863
v -2.061089 1.300310 1.700000
v -2.226458 1.134946 1.700000
v -2.452349 1.074419 3.776863
v -2.452349 1.074420 1.700000
v -2.678239 1.134946 1.700000
v -2.678239 1.134946 3.776863
v -2.843608 1.300310 1.700000
v -1.996726 1.540524 1.700000
v -2.061089 1.300310 1.700000
v -1.996478 2.327756 1.700000
v -1.996478 2.327756 3.080635
v -2.061090 2.568893 2.767496
v -2.061090 2.568893 1.700000
v -2.061090 2.568893 1.700000
v -2.226449 2.734258 2.552667
v -2.226449 2.734258 1.700000
v -2.452349 2.794786 2.475042
v -2.452349 2.794786 1.700000
v -2.678247 2.734258 1.700000
v -2.678247 2.734258 2.552667
v -2.843606 2.568893 1.700000
v -2.843606 2.568893 2.767496
v -2.452349 2.794786 2.475042
v -3.024154 2.342996 3.056124
v -2.908218 2.327756 3.080635
v -2.907971 1.540524 1.700000
v -2.843608 1.300310 1.700000
v -2.908218 2.327756 1.700000
v -2.843606 2.568893 1.700000
v -2.166439 2.794471 2.255000
v -2.738258 2.794471 2.258076
v -2.947546 2.495093 2.595323
v -3.024154 2.292452 2.817547
v -1.957151 2.495093 2.587092
v -1.880543 2.095543 3.028647
v 1.957149 1.201880 3.659083
v 1.880797 1.508219 3.695196
v 2.166449 1.031323 3.514325
v 3.023899 1.487108 2.817230
v 2.947548 1.201880 2.900000
v 3.023900 1.486843 2.817035
v 2.738248 1.031323 3.125000
v 2.452349 0.954401 3.334900
v 2.947546 2.495093 2.595323
v 1.880798 1.663426 3.512506
v 2.738258 2.794471 2.258076
v 1.880762 1.791214 3.776863
v 1.880797 1.525263 3.776863
v 1.957149 1.240300 3.776863
v 2.166439 2.794471 2.255000
v 2.908218 2.327756 3.080635
v 2.452349 2.895593 2.136348
v 3.024154 2.342996 3.056124
v 2.452349 2.794786 2.475042
v 2.166449 1.031007 3.776863
v 2.452349 0.954401 3.776863
v 2.738248 1.031007 3.776863
v 2.947548 1.240300 3.776863
v 1.996692 1.791214 3.776863
v 1.996726 1.540524 3.776863
v 2.061089 1.300310 3.776863
v 2.226458 1.134946 3.776863
v 2.452349 1.074419 3.776863
v 2.678239 1.134946 3.776863
v 2.843608 1.300310 3.776863
v 2.907971 1.540524 3.776863
v 3.023900 1.525263 3.776863
v 2.908004 1.791214 3.776863
v 3.023934 1.791214 3.776863
v 2.061091 1.300310 1.700000
v 2.226459 1.134946 1.700000
v 2.452349 1.074419 3.776863
v 2.452350 1.074420 1.700000
v 2.678240 1.134946 1.700000
v 2.678239 1.134946 3.776863
v 2.843610 1.300310 1.700000
v 1.996728 1.540524 1.700000
v 2.061091 1.300310 1.700000
v 1.996480 2.327756 1.700000
v 2.843606 2.568893 2.767496
v 2.678247 2.734258 2.552667
v 2.061092 2.568893 1.700000
v 2.061092 2.568893 1.700000
v 2.452349 2.794786 2.475042
v 2.226449 2.734258 2.552667
v 2.226451 2.734258 1.700000
v 2.061090 2.568893 2.767496
v 2.452350 2.794786 1.700000
v 2.678249 2.734258 1.700000
v 1.996478 2.327756 3.080635
v 2.843608 2.568893 1.700000
v 2.917550 2.628902 2.676182
v 2.738258 2.838197 2.405221
v 2.452349 2.914804 2.282006
v 2.166439 2.838197 2.405221
v 2.907973 1.540524 1.700000
v 2.843610 1.300310 1.700000
v 2.908220 2.327756 1.700000
v 1.880543 2.342996 3.056124
v 1.987150 2.628902 2.676182
v 2.843608 2.568893 1.700000
v 3.024154 2.292452 2.817547
v 1.957151 2.495093 2.587092
v 1.880543 2.095543 3.028647
v 3.024154 2.292452 2.817547
vn 1.0000 -0.0001 -0.0000
vn 0.9975 0.0553 -0.0442
vn 1.0000 -0.0002 -0.0000
vn 0.9985 0.0454 -0.0297
vn 0.9376 0.3170 -0.1430
vn 0.9981 -0.0608 0.0048
vn 1.0000 -0.0000 -0.0000
vn 0.9779 -0.2074 0.0269
vn 0.9586 0.2681 -0.0962
vn 0.5001 -0.8660 -0.0019
vn 0.5050 -0.8626 0.0299
vn 0.6597 -0.7405 0.1283
vn -0.0000 -1.0000 -0.0006
vn -0.0000 -1.0000 -0.0000
vn -0.5001 -0.8660 -0.0019
vn -0.5050 -0.8626 0.0299
vn -0.6597 -0.7405 0.1283
vn -0.9710 -0.2384 0.0186
vn -0.0000 -0.0000 1.0000
vn -0.7071 0.7071 -0.0000
vn -0.5000 0.8660 -0.0000
vn -0.0000 1.0000 -0.0000
vn 0.5000 0.8660 -0.0000
vn 0.7071 0.7071 -0.0000
vn -0.9659 0.2588 -0.0000
vn -0.9914 0.1307 -0.0000
vn -0.9914 0.1306 -0.0000
vn -1.0000 0.0002 -0.0000
vn -0.9915 -0.1304 -0.0000
vn -0.9989 -0.0468 -0.0000
vn -0.9659 -0.2588 -0.0000
vn -0.7071 -0.7071 -0.0000
vn -0.2588 -0.9659 -0.0000
vn -0.0001 -1.0000 -0.0000
vn 0.2588 -0.9659 -0.0000
vn 0.7071 -0.7071 -0.0000
vn -0.0000 0.8492 0.5280
vn 0.6361 -0.7499 0.1815
vn 0.9659 0.2588 -0.0000
vn 0.9914 0.1307 -0.0000
vn 0.9914 0.1306 -0.0000
vn 1.0000 0.0002 -0.0000
vn 0.9915 -0.1304 -0.0000
vn 0.9989 -0.0468 -0.0000
vn 1.0000 0.0004 -0.0000
vn 0.9659 -0.2588 -0.0000
vn 0.9640 0.2583 -0.0625
vn 0.2830 0.9571 -0.0616
vn 0.6416 0.7612 -0.0945
vn 0.3294 0.9393 -0.0955
vn -0.6362 -0.7499 0.1815
vn -0.4728 0.8128 -0.3404
vn -0.2955 0.9443 -0.1445
vn -0.6609 0.7306 0.1714
vn -0.2830 0.9571 -0.0616
vn 0.5517 0.8229 -0.1361
vn -0.9586 0.2681 -0.0962
vn -0.9376 0.3170 -0.1430
vn -0.9985 0.0454 -0.0297
vn -0.9975 0.0553 -0.0442
vn -1.0000 -0.0002 -0.0000
vn -1.0000 -0.0004 -0.0000
vn -1.0000 -0.0001 -0.0000
vn -1.0000 -0.0000 -0.0000
vn 0.9684 -0.2466 0.0366
vn 0.9640 -0.2583 0.0625
vn 1.0000 -0.0003 -0.0000
vn 0.9989 0.0052 -0.0471
vn 0.9946 0.0379 -0.0961
vn 0.9479 0.2763 -0.1585
vn 0.9300 0.3328 -0.1562
vn 0.5002 -0.8659 -0.0007
vn 0.3990 -0.9169 -0.0011
vn 0.7071 -0.7071 -0.0009
vn -0.0965 -0.9953 -0.0004
vn -0.5001 -0.8660 -0.0003
vn -0.5559 -0.8310 0.0192
vn -0.4351 -0.8135 -0.3860
vn -0.9894 -0.0501 0.1362
vn -0.7461 -0.5276 -0.4062
vn -0.9666 -0.2560 0.0102
vn 0.5162 -0.0817 0.8526
vn -0.0028 0.4703 0.8825
vn -0.9985 -0.0552 -0.0000
vn 0.0001 -1.0000 -0.0000
vn -0.0000 0.7921 0.6104
vn 0.0020 0.7922 0.6102
vn 0.0231 0.7940 0.6074
vn 0.0278 0.7952 0.6057
vn 0.0625 0.8074 0.5867
vn 0.0603 0.8096 0.5839
vn 0.0389 0.8100 0.5851
vn 0.0233 0.8225 0.5683
vn -0.0000 0.8373 0.5468
vn -0.0233 0.8225 0.5683
vn -0.0389 0.8100 0.5851
vn -0.0603 0.8096 0.5839
vn -0.0625 0.8074 0.5867
vn -0.0278 0.7952 0.6057
vn -0.0231 0.7940 0.6074
vn -0.0020 0.7922 0.6102
vn 0.9915 -0.1303 -0.0000
vn 0.9985 -0.0552 -0.0000
vn -0.9581 0.1551 -0.2408
vn 0.3065 0.9437 -0.1245
vn 0.3857 0.8963 -0.2188
vn 0.3415 0.9252 -0.1656
vn -0.5599 -0.7882 0.2553
vn -0.1266 0.9132 -0.3874
vn -0.2724 0.9343 -0.2298
vn -0.3171 0.9484 0.0053
vn -0.3065 0.9437 -0.1245
vn 0.4146 0.8738 -0.2543
vn 0.3415 0.9252 -0.1657
vn 0.8392 0.5221 -0.1520
vn 0.8616 0.4744 -0.1803
vn -0.8580 0.3311 -0.3928
vn -0.9463 0.3178 0.0588
vn -0.9306 0.3277 -0.1630
vn -0.9409 0.3052 -0.1468
vn -0.9968 0.0783 -0.0186
vn -0.9861 0.1626 -0.0344
vn -1.0000 -0.0003 0.0001
vn -1.0000 -0.0003 -0.0000
vn -0.9989 0.0052 -0.0471
vn -0.9932 -0.1141 0.0238
vn -0.9850 -0.1678 0.0401
vn -0.5002 -0.8659 -0.0007
vn -0.6143 -0.7783 0.1298
vn -0.4075 -0.9130 0.0205
vn 0.0965 -0.9953 -0.0004
vn 0.5001 -0.8660 -0.0003
vn 0.5558 -0.8311 0.0192
vn 0.6935 -0.7204 0.0083
vn 0.9687 -0.0675 0.2388
vn 0.9666 -0.2560 0.0102
vn 0.9535 0.3005 -0.0245
vn -0.5301 0.2817 0.7997
vn 0.5199 -0.1362 0.8433
vn -0.3415 0.9252 -0.1656
vn -0.3857 0.8963 -0.2188
vn 0.9409 0.3052 -0.1468
vn 0.9968 0.0783 -0.0186
vn 0.9735 0.2239 -0.0474
vn -0.8616 0.4744 -0.1803
vn -0.9479 0.2763 -0.1585
vn -0.9300 0.3328 -0.1562
vn 0.7440 0.4877 -0.4568
vn 0.9306 0.3277 -0.1630
vn 0.2724 0.9343 -0.2298
vn 0.5317 0.8456 0.0486
vn -0.4146 0.8738 -0.2543
vn -0.4888 -0.8294 0.2706
vn -0.9946 0.0379 -0.0961
vn 0.8870 0.2020 -0.4152
vn -1.0000 -0.0001 -0.0001
vn 0.5560 -0.8310 0.0192
vn 0.5010 -0.8189 0.2802
vn 0.4347 -0.7062 -0.5589
vn 0.6588 0.7491 -0.0696
vn 1.0000 -0.0003 0.0001
vn 0.6152 0.6907 -0.3801
vn -0.8392 0.5221 -0.1520
vn -0.9636 -0.2558 0.0777
vn -0.9625 -0.2579 0.0841
vn 0.9245 -0.3811 -0.0000
vn 0.8660 -0.5000 -0.0000
vn -0.8660 -0.5000 -0.0000
vn -0.9245 -0.3811 -0.0000
vt 0.507152 0.495946
vt 0.499077 0.502916
vt 0.518391 0.498008
vt 0.504077 0.506907
vt 0.491660 0.509360
vt 0.510457 0.493098
vt 0.518391 0.493718
vt 0.496660 0.511519
vt 0.495730 0.518391
vt 0.495730 0.516297
vt 0.492354 0.518391
vt 0.500341 0.516867
vt 0.500341 0.518391
vt 0.504953 0.518391
vt 0.504953 0.516297
vt 0.508329 0.518391
vt 0.515831 0.488502
vt 0.491122 0.498008
vt 0.492992 0.498008
vt 0.491123 0.493718
vt 0.492993 0.493964
vt 0.492354 0.489122
vt 0.494031 0.490090
vt 0.495730 0.485746
vt 0.496698 0.487423
vt 0.500341 0.484511
vt 0.500341 0.486446
vt 0.503985 0.487423
vt 0.504953 0.485746
vt 0.506652 0.490090
vt 0.508329 0.489122
vt 0.507690 0.493964
vt 0.509560 0.493718
vt 0.507691 0.498008
vt 0.509561 0.498008
vt 0.494031 0.518391
vt 0.494031 0.483367
vt 0.496698 0.518391
vt 0.496698 0.483367
vt 0.500341 0.483367
vt 0.503985 0.483367
vt 0.503985 0.518391
vt 0.506652 0.483367
vt 0.506652 0.518391
vt 0.483367 0.490090
vt 0.518391 0.490090
vt 0.483367 0.493964
vt 0.518391 0.493964
vt 0.483367 0.506661
vt 0.504472 0.506661
vt 0.498217 0.510551
vt 0.483367 0.510551
vt 0.493927 0.513218
vt 0.483367 0.513218
vt 0.496698 0.493927
vt 0.500341 0.492357
vt 0.496698 0.483367
vt 0.503985 0.483367
vt 0.503985 0.493927
vt 0.492992 0.518391
vt 0.491122 0.518391
vt 0.492989 0.504472
vt 0.491119 0.504077
vt 0.494031 0.498217
vt 0.492354 0.496660
vt 0.495730 0.491230
vt 0.500341 0.489243
vt 0.504953 0.491230
vt 0.508329 0.496660
vt 0.506652 0.498217
vt 0.509564 0.504077
vt 0.507694 0.504472
vt 0.509561 0.518391
vt 0.507691 0.518391
vt 0.492354 0.515831
vt 0.518391 0.489122
vt 0.500341 0.484433
vt 0.508329 0.515831
vt 0.504953 0.486197
vt 0.495730 0.486197
vt 0.491230 0.514894
vt 0.486197 0.514189
vt 0.506498 0.495946
vt 0.498694 0.502916
vt 0.510762 0.498008
vt 0.499137 0.506907
vt 0.491572 0.509360
vt 0.509445 0.493443
vt 0.510762 0.493718
vt 0.493009 0.511519
vt 0.535284 0.510762
vt 0.535284 0.506527
vt 0.531908 0.510762
vt 0.539896 0.503633
vt 0.539896 0.510762
vt 0.544507 0.510762
vt 0.544507 0.500248
vt 0.547883 0.510762
vt 0.496619 0.488502
vt 0.495281 0.493098
vt 0.530676 0.498008
vt 0.532546 0.498008
vt 0.530677 0.493718
vt 0.532547 0.493964
vt 0.531908 0.489122
vt 0.533585 0.490090
vt 0.535284 0.485746
vt 0.536252 0.487423
vt 0.539896 0.484511
vt 0.539896 0.486446
vt 0.543539 0.487423
vt 0.544507 0.485746
vt 0.546206 0.490090
vt 0.547883 0.489122
vt 0.547244 0.493964
vt 0.549114 0.493718
vt 0.547245 0.498008
vt 0.549115 0.498008
vt 0.533585 0.510762
vt 0.533585 0.477264
vt 0.536252 0.510762
vt 0.536252 0.477264
vt 0.539896 0.477264
vt 0.543539 0.477264
vt 0.543539 0.510762
vt 0.546206 0.477264
vt 0.546206 0.510762
vt 0.477264 0.490090
vt 0.510762 0.490090
vt 0.477264 0.493964
vt 0.510762 0.493964
vt 0.477264 0.506661
vt 0.499532 0.506661
vt 0.494482 0.510551
vt 0.477264 0.510551
vt 0.491017 0.513218
vt 0.477264 0.513218
vt 0.536252 0.491017
vt 0.539896 0.489765
vt 0.536252 0.477264
vt 0.543539 0.477264
vt 0.543539 0.491017
vt 0.532546 0.510762
vt 0.530676 0.510762
vt 0.532543 0.499532
vt 0.530673 0.499137
vt 0.533585 0.494482
vt 0.532392 0.493009
vt 0.535284 0.488639
vt 0.539896 0.486651
vt 0.544507 0.488639
vt 0.547399 0.493009
vt 0.546206 0.494482
vt 0.549118 0.499137
vt 0.547248 0.499532
vt 0.549115 0.510762
vt 0.547245 0.510762
vt 0.510762 0.489122
vt 0.539896 0.484302
vt 0.547883 0.496619
vt 0.544507 0.486265
vt 0.535284 0.486216
vt 0.488639 0.514894
vt 0.486216 0.514189
vt 0.486265 0.514189
vt 0.491705 0.509360
vt 0.495289 0.506092
vt 0.495284 0.493103
vt 0.465399 0.510762
vt 0.468775 0.510762
vt 0.465399 0.506527
vt 0.460787 0.503633
vt 0.460787 0.510762
vt 0.456176 0.510762
vt 0.456176 0.500248
vt 0.452800 0.510762
vt 0.470007 0.498008
vt 0.470006 0.493718
vt 0.468137 0.498008
vt 0.468136 0.493964
vt 0.468775 0.489122
vt 0.467098 0.490090
vt 0.465399 0.485746
vt 0.464431 0.487423
vt 0.460787 0.484511
vt 0.460787 0.486446
vt 0.457144 0.487423
vt 0.456176 0.485746
vt 0.454477 0.490090
vt 0.452800 0.489122
vt 0.453439 0.493964
vt 0.451569 0.493718
vt 0.453438 0.498008
vt 0.451568 0.498008
vt 0.467098 0.510762
vt 0.464431 0.510762
vt 0.467098 0.477264
vt 0.464431 0.477264
vt 0.460787 0.477264
vt 0.457144 0.477264
vt 0.457144 0.510762
vt 0.454477 0.477264
vt 0.454477 0.510762
vt 0.453438 0.510762
vt 0.451568 0.510762
vt 0.453435 0.499532
vt 0.460787 0.486651
vt 0.460787 0.484302
vt 0.465399 0.488639
vt 0.451565 0.499137
vt 0.454477 0.494482
vt 0.453284 0.493009
vt 0.457144 0.491017
vt 0.456176 0.488639
vt 0.460787 0.489765
vt 0.464431 0.491017
vt 0.468291 0.493009
vt 0.465399 0.486216
vt 0.467098 0.494482
vt 0.470010 0.499137
vt 0.468137 0.510762
vt 0.468140 0.499532
vt 0.470007 0.510762
vt 0.468775 0.508862
vt 0.452800 0.496619
vt 0.456176 0.486265
vt 0.508862 0.488502
vt 0.464431 0.477264
vt 0.457144 0.477264
s 1
g vir_gun_305_x2_001_2_steel_4
usemtl steel_4
f 10/1/1 77/2/2 12/3/3
f 11/4/4 12/3/3 77/2/2
f 76/5/5 11/4/4 77/2/2
f 2/6/6 10/1/7 13/7/8
f 9/8/9 11/4/4 76/5/5
f 20/9/10 3/10/11 14/11/12
f 3/10/11 20/9/10 8/12/13
f 21/13/14 8/12/13 20/9/10
f 21/13/14 22/14/15 8/12/13
f 7/15/16 8/12/13 22/14/15
f 22/14/15 23/16/17 7/15/16
f 5/17/18 32/7/18 6/6/18
f 12/18/19 24/19/19 13/20/19
f 25/21/19 13/20/19 24/19/19
f 13/20/19 25/21/19 14/22/19
f 26/23/19 14/22/19 25/21/19
f 14/22/19 26/23/19 20/24/19
f 27/25/19 20/24/19 26/23/19
f 20/24/19 27/25/19 21/26/19
f 28/27/19 21/26/19 27/25/19
f 28/27/19 29/28/19 21/26/19
f 22/29/19 21/26/19 29/28/19
f 29/28/19 30/30/19 22/29/19
f 23/31/19 22/29/19 30/30/19
f 30/30/19 31/32/19 23/31/19
f 32/33/19 23/31/19 31/32/19
f 31/32/19 33/34/19 32/33/19
f 34/35/19 32/33/19 33/34/19
f 26/36/20 35/37/20 27/38/21
f 36/39/21 27/38/21 35/37/20
f 27/38/21 36/39/21 37/13/22
f 38/40/22 37/13/22 36/39/21
f 38/40/22 39/41/23 37/13/22
f 40/42/23 37/13/22 39/41/23
f 39/41/23 41/43/24 40/42/23
f 30/44/24 40/42/23 41/43/24
f 43/45/25 26/46/25 42/47/26
f 25/48/27 42/47/26 26/46/25
f 24/3/28 42/47/26 25/48/27
f 42/47/26 24/3/28 44/49/29
f 45/50/30 44/49/29 24/3/28
f 45/50/30 46/51/31 44/49/29
f 47/52/31 44/49/29 46/51/31
f 50/51/32 49/53/32 48/52/32
f 51/54/32 48/52/32 49/53/32
f 49/55/33 52/56/34 51/57/33
f 53/40/14 51/57/33 52/56/14
f 53/40/14 52/56/14 54/58/35
f 55/59/35 54/58/35 52/56/14
f 54/54/36 55/53/36 56/52/36
f 57/51/36 56/52/36 55/53/36
f 24/60/37 12/61/37 58/62/37
f 11/63/37 58/62/37 12/61/37
f 58/62/37 11/63/37 59/64/37
f 9/65/37 59/64/37 11/63/37
f 59/64/37 9/65/37 60/55/37
f 15/66/37 60/55/37 9/65/37
f 60/55/37 15/66/37 61/56/37
f 16/67/37 61/56/37 15/66/37
f 16/67/37 18/68/37 61/56/37
f 62/59/37 61/56/37 18/68/37
f 18/68/37 19/69/37 62/59/37
f 63/70/37 62/59/37 19/69/37
f 19/69/37 64/71/37 63/70/37
f 65/72/37 63/70/37 64/71/37
f 64/71/37 34/73/37 65/72/37
f 33/74/37 65/72/37 34/73/37
f 1/75/38 14/11/12 3/10/11
f 67/45/39 66/47/40 30/46/39
f 31/48/41 30/46/39 66/47/40
f 66/47/40 33/3/42 31/48/41
f 66/47/40 68/49/43 33/3/42
f 69/50/44 33/3/45 68/49/43
f 69/50/44 68/49/43 70/51/46
f 71/52/46 70/51/46 68/49/43
f 5/17/47 32/7/47 23/76/47
f 16/67/48 15/66/49 17/77/50
f 13/7/1 10/1/1 12/3/3
f 7/15/16 23/16/17 5/78/51
f 18/68/52 17/77/53 73/79/54
f 17/77/53 18/68/52 16/67/55
f 15/66/49 72/80/56 17/77/50
f 15/81/49 9/8/9 72/82/56
f 72/82/56 9/8/9 76/5/5
f 18/81/52 73/82/54 19/8/57
f 73/82/54 74/5/58 19/8/57
f 19/8/57 74/5/58 64/4/59
f 74/5/58 75/2/60 64/4/59
f 64/4/59 75/2/60 34/3/61
f 4/1/62 34/3/61 75/2/60
f 32/7/63 34/3/61 4/1/62
f 6/6/64 32/7/63 4/1/62
f 1/17/65 13/7/8 14/76/66
f 2/6/6 13/7/8 1/17/65
f 86/83/67 145/84/68 88/85/67
f 87/86/69 88/85/67 145/84/68
f 144/87/70 87/86/69 145/84/68
f 78/88/7 86/83/67 89/89/1
f 85/90/71 87/86/69 144/87/70
f 96/91/72 79/92/73 90/93/74
f 79/92/73 96/91/72 84/94/75
f 97/95/14 84/94/75 96/91/72
f 97/95/14 98/96/76 84/94/75
f 83/97/77 84/94/75 98/96/76
f 98/96/76 99/98/78 83/97/77
f 81/99/79 108/89/80 82/100/81
f 88/101/19 100/102/19 89/103/19
f 101/104/19 89/103/19 100/102/19
f 89/103/19 101/104/19 90/105/19
f 102/106/19 90/105/19 101/104/19
f 90/105/19 102/106/19 96/107/19
f 103/108/19 96/107/19 102/106/19
f 96/107/19 103/108/19 97/109/19
f 104/110/19 97/109/19 103/108/19
f 104/110/19 105/111/19 97/109/19
f 98/112/19 97/109/19 105/111/19
f 105/111/19 106/113/19 98/112/19
f 99/114/19 98/112/19 106/113/19
f 106/113/19 107/115/19 99/114/19
f 108/116/82 99/114/83 107/115/19
f 107/115/19 109/117/19 108/116/82
f 110/118/19 108/116/82 109/117/19
f 102/119/20 111/120/20 103/121/21
f 112/122/21 103/121/21 111/120/20
f 103/121/21 112/122/21 113/95/22
f 114/123/22 113/95/22 112/122/21
f 114/123/22 115/124/23 113/95/22
f 116/125/23 113/95/22 115/124/23
f 115/124/23 117/126/24 116/125/23
f 106/127/24 116/125/23 117/126/24
f 119/128/25 102/129/25 118/130/26
f 101/131/27 118/130/26 102/129/25
f 100/85/28 118/130/26 101/131/27
f 118/130/26 100/85/28 120/132/29
f 121/133/84 120/132/29 100/85/28
f 121/133/84 122/134/31 120/132/29
f 123/135/31 120/132/29 122/134/31
f 122/134/32 125/136/32 124/135/32
f 126/137/32 124/135/32 125/136/32
f 125/138/33 127/139/34 126/140/33
f 128/123/14 126/140/33 127/139/85
f 128/123/14 127/139/85 129/141/35
f 130/142/35 129/141/35 127/139/85
f 129/137/36 130/136/36 131/135/36
f 132/134/36 131/135/36 130/136/36
f 100/143/86 88/144/87 121/145/88
f 87/146/89 121/145/88 88/144/87
f 121/145/88 87/146/89 122/147/90
f 85/148/91 122/147/90 87/146/89
f 122/147/90 85/148/91 125/138/92
f 91/149/93 125/138/92 85/148/91
f 125/138/92 91/149/93 133/139/94
f 92/150/37 133/139/94 91/149/93
f 92/150/37 94/151/95 133/139/94
f 130/142/96 133/139/94 94/151/95
f 94/151/95 95/152/97 130/142/96
f 132/153/98 130/142/96 95/152/97
f 95/152/97 134/154/99 132/153/98
f 135/155/100 132/153/98 134/154/99
f 134/154/99 110/156/101 135/155/100
f 109/157/86 135/155/100 110/156/101
f 137/128/39 136/130/40 106/129/39
f 107/131/41 106/129/39 136/130/40
f 136/130/40 109/85/42 107/131/41
f 136/130/40 138/132/102 109/85/42
f 135/133/103 109/85/42 138/132/102
f 135/133/103 138/132/102 132/134/46
f 139/135/46 132/134/46 138/132/43
f 81/99/79 99/158/104 108/89/80
f 92/150/105 91/149/106 93/159/107
f 89/89/1 86/83/67 88/85/67
f 83/97/77 99/98/78 81/160/108
f 94/151/109 93/159/110 141/161/111
f 93/159/110 94/151/109 92/150/112
f 91/149/106 140/162/113 93/159/114
f 91/163/115 85/90/71 140/164/116
f 140/164/116 85/90/71 144/87/70
f 94/163/117 141/165/118 95/90/119
f 141/165/118 142/166/120 95/90/119
f 95/90/119 142/166/120 134/86/121
f 142/166/120 143/167/122 134/86/121
f 134/86/121 143/167/122 110/85/61
f 80/168/123 110/85/61 143/167/122
f 110/85/61 80/168/123 108/89/63
f 155/83/62 157/85/124 214/84/125
f 147/88/126 158/89/127 155/83/64
f 165/169/128 159/170/129 148/171/130
f 148/171/130 153/172/131 165/169/128
f 166/173/14 165/169/128 153/172/131
f 166/173/14 153/172/131 167/174/132
f 152/175/133 167/174/132 153/172/131
f 167/174/132 152/175/133 168/176/134
f 150/99/135 151/100/136 177/89/137
f 157/177/19 158/178/19 169/179/19
f 170/180/19 169/179/19 158/178/19
f 158/178/19 159/181/19 170/180/19
f 171/182/19 170/180/19 159/181/19
f 159/181/19 165/183/19 171/182/19
f 172/184/19 171/182/19 165/183/19
f 165/183/19 166/185/19 172/184/19
f 173/186/19 172/184/19 166/185/19
f 173/186/19 166/185/19 174/187/19
f 167/188/19 174/187/19 166/185/19
f 174/187/19 167/188/19 175/189/19
f 168/190/138 175/189/19 167/188/19
f 175/189/19 168/190/138 176/191/19
f 177/192/139 176/191/19 168/190/138
f 176/191/19 177/192/19 178/193/19
f 179/194/19 178/193/19 177/192/19
f 171/195/24 172/196/23 180/197/24
f 181/198/23 180/197/24 172/196/23
f 172/196/23 182/173/22 181/198/23
f 183/199/22 181/198/23 182/173/22
f 183/199/22 182/173/22 184/200/21
f 185/201/21 184/200/21 182/173/22
f 184/200/21 185/201/21 186/202/20
f 175/203/20 186/202/20 185/201/21
f 188/128/39 187/130/40 171/129/39
f 170/131/41 171/129/39 187/130/40
f 169/85/42 170/131/41 187/130/40
f 187/130/40 189/132/43 169/85/42
f 178/204/86 179/205/87 161/206/88
f 204/207/112 162/208/140 205/209/141
f 163/210/89 161/206/88 179/205/87
f 161/206/88 163/210/89 190/211/90
f 202/212/91 190/211/90 163/210/89
f 190/211/90 202/212/91 191/213/92
f 203/214/93 191/213/92 202/212/91
f 191/213/92 203/214/93 164/215/94
f 204/207/37 164/215/94 203/214/93
f 204/207/37 205/209/95 164/215/94
f 195/216/96 164/215/94 205/209/95
f 205/209/95 210/217/97 195/216/96
f 154/166/142 163/86/143 215/167/144
f 160/164/145 213/87/146 210/90/147
f 156/165/148 202/90/149 154/166/142
f 162/208/150 204/207/105 203/214/151
f 205/209/141 162/208/140 160/218/152
f 197/219/98 195/216/96 210/217/97
f 210/217/97 209/220/99 197/219/98
f 169/221/86 200/222/100 157/223/101
f 146/224/153 148/171/130 159/170/129
f 207/128/25 175/129/25 206/130/26
f 176/131/27 206/130/26 175/129/25
f 206/130/26 176/131/27 178/85/28
f 206/130/26 178/85/28 208/132/29
f 210/90/147 213/87/146 209/86/154
f 213/87/146 214/84/125 209/86/154
f 209/86/154 214/84/125 157/85/124
f 150/99/135 177/89/137 168/158/155
f 158/89/156 157/85/124 155/83/62
f 152/175/157 150/225/158 168/176/159
f 203/163/160 202/90/149 156/165/148
f 163/86/143 179/85/161 215/167/144
f 202/90/149 163/86/143 154/166/142
f 203/214/151 156/226/162 162/208/150
f 205/163/163 160/164/145 210/90/147
f 200/222/100 197/219/98 209/220/99
f 209/220/99 157/223/101 200/222/100
f 149/168/161 212/167/161 179/85/3
f 146/227/164 159/158/165 158/89/127
f 147/88/126 146/227/164 158/89/127
f 179/85/3 177/89/1 149/168/161
f 189/132/43 200/133/103 169/85/42
f 200/133/103 189/132/43 197/134/166
f 197/134/166 189/132/43 193/135/167
f 197/134/166 193/135/167 195/136/36
f 196/137/36 195/136/36 193/135/167
f 195/216/35 196/228/35 194/215/85
f 196/228/35 198/199/14 194/215/85
f 199/229/33 194/215/85 198/199/14
f 194/215/34 199/229/33 191/213/33
f 211/135/168 191/136/32 199/137/32
f 191/136/32 211/135/168 190/134/169
f 211/135/168 208/132/29 190/134/169
f 190/134/169 208/132/29 161/133/84
f 178/85/28 161/133/84 208/132/29
l 82 80
l 80 81
l 189 192
l 199 201
l 194 164
l 149 150
l 127 133
l 154 212
