# Blender 5.1.0
# www.blender.org
mtllib vir_gun_305_x2_001_3.mtl
o vir_gun_305_x2_001_3
v 4.044391 0.736297 0.043941
v 4.142056 0.736297 0.956625
v 4.249074 0.736297 0.006801
v 3.942467 0.736297 0.948536
v 1.742996 0.736296 3.706591
v 0.930410 0.736296 4.168279
v 1.832611 0.736296 3.852583
v -2.680796 0.736297 3.344044
v -1.784694 0.736296 3.706591
v -2.555488 0.736297 3.222269
v -4.086087 0.736297 0.043941
v -4.180903 0.736297 -0.943030
v -4.287925 0.736297 0.006801
v -4.051278 0.736297 -0.924678
v -3.984161 0.736297 -0.860659
v 3.942465 0.736297 -0.860659
v -3.683502 0.736298 -1.719899
v 3.641804 0.736298 -1.719899
v 4.051278 0.736297 -0.924678
v 3.157482 0.736298 -2.490693
v 4.142056 -0.000001 0.956624
v 0.930410 -0.000002 4.168279
v 1.832611 -0.000002 3.852583
v -0.019426 -0.000002 4.275300
v -0.019426 0.736296 4.275300
v -0.969260 -0.000002 4.168279
v -0.969260 0.736296 4.168279
v -1.871463 -0.000002 3.852583
v -1.871463 0.736296 3.852583
v -2.680796 -0.000001 3.344044
v -3.356678 -0.000001 2.668162
v -3.356678 0.736297 2.668162
v -3.865213 -0.000001 1.858827
v -3.865213 0.736297 1.858827
v -4.180907 -0.000001 0.956624
v -4.180907 0.736297 0.956625
v -4.287925 0.000000 0.006800
v -4.180903 -0.000001 -0.943030
v -3.865211 0.000000 -1.845232
v -3.865211 0.736298 -1.845232
v 4.142053 0.736297 -0.943030
v 4.249074 0.000000 0.006800
v -3.199179 0.736298 -2.490693
v -2.801426 0.736297 -4.561419
v -3.107777 0.736298 -4.185015
v 3.826363 0.736297 1.858827
v 3.641807 0.736297 1.807776
v 3.317826 0.736297 2.668162
v 3.157486 0.736297 2.578571
v 2.641946 0.736297 3.344044
v 2.513791 0.736297 3.222269
v 0.883757 0.736296 4.007254
v -0.020849 0.736296 4.109179
v -0.925453 0.736296 4.007254
v -3.199184 0.736297 2.578571
v -3.683503 0.736297 1.807776
v -3.984164 0.736297 0.948536
v -2.555482 0.736298 -3.134390
v -2.234062 0.736297 -4.884012
v -1.784690 0.736299 -3.618711
v -1.554675 0.736297 -5.126733
v -0.925449 0.736299 -3.919372
v -0.797327 0.736297 -5.277411
v -0.020849 0.736299 -4.021296
v 0.000000 0.736297 -5.328492
v 0.797328 0.736297 -5.277411
v 0.883752 0.736299 -3.919372
v 1.554675 0.736297 -5.126733
v 1.742992 0.736299 -3.618711
v 2.234064 0.736297 -4.884012
v 2.513785 0.736298 -3.134390
v 2.801427 0.736297 -4.561419
v 3.107777 0.736298 -4.185015
v 4.142053 -0.000001 -0.943030
v 3.826363 -0.000001 1.858827
v 3.317826 -0.000001 2.668162
v 2.641946 -0.000001 3.344044
v -3.356673 0.000000 -2.654566
v -3.356673 0.736298 -2.654566
v -2.680791 0.000000 -3.330447
v -2.680791 0.736298 -3.330447
v -1.871458 0.000001 -3.838984
v -1.871458 0.736299 -3.838984
v -0.969256 0.000001 -4.154678
v -0.969256 0.736299 -4.154678
v -0.019426 0.000001 -4.261698
v -0.019426 0.736299 -4.261698
v 0.930406 0.000001 -4.154678
v 0.930406 0.736299 -4.154678
v 1.832607 0.000001 -3.838984
v 1.832607 0.736299 -3.838984
v 2.641939 0.000000 -3.330447
v 2.641939 0.736298 -3.330447
v 3.317822 0.000000 -2.654566
v 3.317822 0.736298 -2.654566
v 3.826360 0.000000 -1.845232
v 3.826360 0.736298 -1.845232
v 0.225900 2.734258 2.078410
v -0.225898 2.734258 2.078410
v 0.000000 2.794786 2.078410
v -0.391257 2.568893 2.078410
v 0.391259 2.568893 2.078410
v -0.455869 2.327756 2.078410
v 0.455870 2.327756 2.078410
v 0.455623 1.540524 2.078410
v -0.455623 1.540524 2.078410
v -0.391260 1.300310 2.078410
v 0.391260 1.300310 2.078410
v -0.225890 1.134946 2.078410
v 0.225891 1.134946 2.078410
v 0.000000 1.074420 2.078410
v -2.226450 2.734258 1.700000
v -2.678248 2.734258 1.700000
v -2.452350 2.794786 1.700000
v -2.843607 2.568893 1.700000
v -2.061091 2.568893 1.700000
v -2.908219 2.327756 1.700000
v -1.996480 2.327756 1.700000
v -1.996728 1.540524 1.700000
v -2.907973 1.540524 1.700000
v -2.843610 1.300310 1.700000
v -2.061090 1.300310 1.700000
v -2.678240 1.134946 1.700000
v -2.226459 1.134946 1.700000
v -2.452350 1.074420 1.700000
v 2.678249 2.734258 1.700000
v 2.226451 2.734258 1.700000
v 2.452350 2.794786 1.700000
v 2.061092 2.568893 1.700000
v 2.843608 2.568893 1.700000
v 1.996480 2.327756 1.700000
v 2.908220 2.327756 1.700000
v 2.907972 1.540524 1.700000
v 1.996727 1.540524 1.700000
v 2.061090 1.300310 1.700000
v 2.843609 1.300310 1.700000
v 2.226460 1.134946 1.700000
v 2.678241 1.134946 1.700000
v 2.452350 1.074420 1.700000
v -0.737255 3.598871 -3.899156
v -0.969939 3.776084 -3.899157
v -0.737255 3.776084 -3.899156
v -0.969939 3.598871 -3.899157
v -0.969939 3.776084 -3.674392
v -0.737255 3.776084 -3.674392
v -0.737255 3.552053 -3.674391
v -0.969939 3.552053 -3.674392
v 0.737261 3.598871 -3.899156
v 0.969943 3.776084 -3.899157
v 0.969943 3.598871 -3.899157
v 0.737261 3.776084 -3.899156
v 0.969943 3.776084 -3.674392
v 0.737261 3.776084 -3.674392
v 0.737261 3.552053 -3.674391
v 0.969943 3.552053 -3.674392
v 0.115247 3.598871 -3.899156
v 0.347929 3.776084 -3.899157
v 0.347929 3.598871 -3.899157
v 0.115247 3.776084 -3.899156
v 0.347929 3.776084 -3.674392
v 0.115247 3.776084 -3.674392
v 0.115247 3.552053 -3.674391
v 0.347929 3.552053 -3.674392
vn 0.2225 -0.0000 0.9749
vn 0.4339 -0.0000 0.9010
vn 0.6235 -0.0000 0.7818
vn 0.7818 -0.0000 0.6235
vn 0.9010 -0.0000 0.4339
vn -0.9503 0.2743 0.1474
vn 0.0782 -0.9969 -0.0000
vn 0.6993 0.6995 0.1474
vn -0.0000 -0.0000 1.0000
vn 0.9749 -0.0000 0.2225
vn -0.3822 -0.6534 -0.6534
vn -0.1474 0.1110 0.9828
vn -0.3871 0.1880 -0.9027
vn 0.6994 0.6994 0.1474
vn -0.9024 -0.4309 -0.0000
vn 0.7672 -0.6414 -0.0000
vn 0.6534 -0.3822 -0.6534
vn -0.9393 -0.0000 0.3431
vn -0.0103 -0.3822 -0.9240
vn -0.0000 -1.0000 -0.0000
vn -0.6534 -0.3822 -0.6534
vn 0.6414 -0.0000 0.7672
vn -0.4309 -0.0000 0.9024
vn 0.3822 -0.9240 -0.0103
vn 0.1474 0.9395 0.3091
vn -0.0000 -0.9850 0.1728
vn 0.6994 0.0017 0.7147
vn -0.9220 0.3789 0.0789
vn -0.2743 -0.0494 0.9604
vn 0.1728 -0.0000 0.9850
vn -0.9969 -0.0000 0.0782
vn -0.1474 0.9395 0.3091
vn -0.3822 -0.9240 -0.0103
vn -0.0000 -0.3431 0.9393
vn 0.3822 -0.6534 -0.6534
vn 0.1474 0.6239 0.7675
vn -0.0000 -0.0782 0.9969
vn 0.2743 -0.0494 0.9604
vn -0.9503 0.0884 0.2987
vn 0.1474 0.6240 0.7674
vn -0.0000 -0.7672 0.6414
vn -0.1474 0.9396 0.3090
vn 0.9220 0.3789 0.0789
vn 0.6995 0.0017 0.7147
vn 0.9503 0.2743 0.1474
vn -0.0782 -0.9969 -0.0000
vn 0.9850 -0.1728 -0.0000
vn 1.0000 -0.0000 -0.0000
vn 0.9749 -0.0000 -0.2225
vn -0.7818 -0.0000 -0.6235
vn -0.9010 -0.0000 -0.4339
vn -0.9749 -0.0000 0.2225
vn -0.9010 -0.0000 0.4339
vn -0.9749 -0.0000 -0.2225
vn -1.0000 -0.0000 -0.0000
vn -0.6235 -0.0000 0.7818
vn -0.4339 -0.0000 0.9010
vn -0.2225 -0.0000 0.9749
vn 0.9010 -0.0000 -0.4339
vn 0.7818 -0.0000 -0.6235
vn 0.6235 -0.0000 -0.7818
vn -0.6235 -0.0000 -0.7818
vn -0.4339 -0.0000 -0.9010
vn -0.2225 -0.0000 -0.9749
vn -0.0000 -0.0000 -1.0000
vn 0.4339 -0.0000 -0.9010
vn 0.2225 -0.0000 -0.9749
vn -0.7818 -0.0000 0.6235
vn -0.9240 -0.0103 -0.3822
vn -0.0000 0.9220 -0.3871
vn 0.6534 -0.6534 -0.3822
vn 0.9240 -0.0103 -0.3822
vn -0.6534 -0.6534 -0.3822
vn -0.0000 1.0000 -0.0000
vn -0.3431 -0.9393 -0.0000
vn -0.9503 0.2743 0.1475
vn 0.9969 -0.0000 0.0782
vn -0.9262 -0.0000 0.3771
vn 0.0103 -0.3822 -0.9240
vn 0.3871 0.1880 -0.9027
vn -0.0000 -0.9024 0.4309
vn -0.2743 0.9503 0.1474
vn 0.0015 1.0000 0.0005
vn -0.0044 1.0000 -0.0017
vt 0.477835 0.483748
vt 0.459250 0.468580
vt 0.459250 0.483748
vt 0.442577 0.468580
vt 0.442577 0.483748
vt 0.593969 0.483748
vt 0.580046 0.468580
vt 0.580046 0.483748
vt 0.563374 0.483748
vt 0.512189 0.542717
vt 0.516982 0.546367
vt 0.516982 0.542717
vt 0.506839 0.473929
vt 0.511847 0.519755
vt 0.488153 0.519755
vt 0.513795 0.486891
vt 0.500000 0.526974
vt 0.486204 0.486891
vt 0.563374 0.468580
vt 0.544788 0.483748
vt 0.449389 0.546367
vt 0.444759 0.542717
vt 0.449389 0.541752
vt 0.513803 0.512049
vt 0.493160 0.525040
vt 0.488153 0.479214
vt 0.481814 0.542717
vt 0.477021 0.546367
vt 0.481814 0.546367
vt 0.516982 0.449389
vt 0.512189 0.444759
vt 0.512189 0.449389
vt 0.497431 0.442243
vt 0.516066 0.444343
vt 0.543023 0.424471
vt 0.477021 0.449389
vt 0.481814 0.444759
vt 0.477021 0.444759
vt 0.444759 0.542717
vt 0.444759 0.546367
vt 0.489834 0.449389
vt 0.494627 0.444759
vt 0.489834 0.444759
vt 0.444759 0.546367
vt 0.516982 0.444759
vt 0.494627 0.542717
vt 0.489834 0.546367
vt 0.494627 0.546367
vt 0.525222 0.483748
vt 0.544788 0.468580
vt 0.525222 0.468580
vt 0.497402 0.468580
vt 0.497402 0.483748
vt 0.505655 0.483748
vt 0.572881 0.489652
vt 0.579075 0.507352
vt 0.580458 0.506033
vt 0.581175 0.525987
vt 0.470398 0.483748
vt 0.487070 0.468580
vt 0.487070 0.483748
vt 0.552226 0.468580
vt 0.535553 0.483748
vt 0.552226 0.483748
vt 0.516968 0.483748
vt 0.535553 0.468580
vt 0.516968 0.468580
vt 0.505655 0.468580
vt 0.428654 0.468580
vt 0.442578 0.483748
vt 0.428654 0.483748
vt 0.552226 0.483748
vt 0.566149 0.468580
vt 0.566149 0.483748
vt 0.535553 0.468580
vt 0.535553 0.483748
vt 0.516968 0.483748
vt 0.516968 0.468580
vt 0.497402 0.483748
vt 0.497402 0.468580
vt 0.459250 0.468580
vt 0.442578 0.468580
vt 0.477835 0.468580
vt 0.459250 0.483748
vt 0.477835 0.483748
vt 0.512189 0.546367
vt 0.516982 0.541752
vt 0.477021 0.541752
vt 0.489834 0.541752
vt 0.431957 0.578200
vt 0.442577 0.593969
vt 0.418178 0.563374
vt 0.549644 0.591460
vt 0.566149 0.580046
vt 0.552226 0.593969
vt 0.585332 0.525222
vt 0.579075 0.544622
vt 0.497402 0.613153
vt 0.516066 0.607631
vt 0.535553 0.604445
vt 0.421980 0.489652
vt 0.411675 0.505655
vt 0.418179 0.487070
vt 0.477835 0.468580
vt 0.593969 0.468580
vt 0.493160 0.473929
vt 0.500000 0.471995
vt 0.511847 0.479214
vt 0.506840 0.525040
vt 0.486196 0.512049
vt 0.477021 0.542717
vt 0.561021 0.438871
vt 0.554711 0.431117
vt 0.529028 0.419471
vt 0.513426 0.416367
vt 0.497001 0.415315
vt 0.480576 0.416367
vt 0.464975 0.419471
vt 0.450980 0.424471
vt 0.439292 0.431117
vt 0.432981 0.438871
vt 0.413545 0.506033
vt 0.431957 0.473774
vt 0.562904 0.473774
vt 0.445218 0.460513
vt 0.461096 0.450536
vt 0.549644 0.460513
vt 0.533766 0.450536
vt 0.478796 0.444343
vt 0.481814 0.449389
vt 0.449389 0.541752
vt 0.481814 0.449389
vt 0.494627 0.449389
vt 0.494627 0.449389
vt 0.512189 0.449389
vt 0.489834 0.542717
vt 0.470398 0.468580
vt 0.552226 0.468580
vt 0.512189 0.541752
vt 0.481814 0.541752
vt 0.494627 0.541752
vt 0.411675 0.544788
vt 0.409471 0.525222
vt 0.415787 0.507352
vt 0.413687 0.525987
vt 0.415787 0.544622
vt 0.428654 0.580046
vt 0.477835 0.610948
vt 0.459250 0.604445
vt 0.461096 0.601437
vt 0.421980 0.562322
vt 0.445217 0.591460
vt 0.576625 0.563374
vt 0.533766 0.601437
vt 0.576625 0.487070
vt 0.583128 0.505655
vt 0.583128 0.544788
vt 0.562904 0.578200
vt 0.572881 0.562322
vt 0.566149 0.470398
vt 0.478796 0.607631
vt 0.497431 0.609731
vt 0.516968 0.610948
vt 0.428654 0.470398
s 1
g vir_gun_305_x2_001_3_steel_5
usemtl steel_5
f 6/1/1 23/2/2 7/3/2
f 7/3/2 77/4/3 50/5/3
f 50/6/3 76/7/4 48/8/4
f 76/7/4 46/9/5 48/8/4
f 140/10/6 141/11/7 143/12/8
f 75/19/5 2/20/10 46/9/5
f 160/21/11 158/22/12 163/23/13
f 148/27/14 149/28/15 151/29/16
f 144/30/17 142/31/18 145/32/19
f 64/33/20 62/34/20 59/35/20
f 152/36/21 151/37/22 149/38/23
f 161/21/24 156/39/25 159/40/26
f 148/37/27 155/36/28 150/38/29
f 160/41/21 159/42/30 157/43/31
f 140/39/32 145/21/33 142/40/34
f 144/21/35 143/22/36 141/44/37
f 156/42/38 163/41/28 158/43/39
f 153/21/24 148/39/40 151/40/41
f 152/21/11 150/22/42 155/23/13
f 147/30/43 140/31/29 143/45/44
f 156/46/45 157/47/46 159/48/47
f 3/49/48 21/50/10 42/51/48
f 24/52/9 6/1/1 25/53/9
f 42/51/48 41/54/49 3/49/48
f 17/55/20 15/56/20 14/57/20
f 14/57/20 15/56/20 11/58/20
f 79/59/50 39/60/51 40/61/51
f 36/20/52 33/19/53 34/9/53
f 39/60/51 12/54/54 40/61/51
f 13/49/55 35/50/52 36/20/52
f 12/54/54 37/51/55 13/49/55
f 30/62/56 29/63/57 8/64/56
f 27/65/58 28/66/57 26/67/58
f 27/65/58 24/52/9 25/53/9
f 96/60/59 41/54/49 74/68/49
f 96/60/59 95/59/60 97/61/59
f 94/69/60 93/70/61 95/71/60
f 81/72/62 78/73/50 79/74/50
f 82/75/63 81/72/62 83/76/63
f 82/75/63 85/77/64 84/78/64
f 84/78/64 87/79/65 86/80/65
f 90/81/66 93/70/61 92/82/61
f 88/83/67 91/84/66 90/81/66
f 86/80/65 89/85/67 88/83/67
f 31/7/68 8/6/56 32/8/68
f 34/9/53 31/7/68 32/8/68
f 145/86/69 147/87/70 144/11/71
f 155/88/70 153/29/72 152/28/73
f 163/89/70 161/48/72 160/47/73
f 49/90/74 50/91/74 46/92/74
f 10/93/74 32/94/74 8/95/74
f 13/96/74 57/97/74 11/58/74
f 25/98/74 54/99/74 29/100/74
f 18/101/74 41/102/74 97/103/74
f 6/1/1 22/104/1 23/2/2
f 7/3/2 23/2/2 77/4/3
f 50/6/3 77/105/3 76/7/4
f 76/7/4 75/19/5 46/9/5
f 140/10/6 142/86/75 141/11/7
f 75/19/5 21/50/10 2/20/10
f 160/21/11 157/44/37 158/22/12
f 148/27/14 150/111/76 149/28/15
f 144/30/17 141/45/77 142/31/18
f 17/55/20 14/57/20 45/112/20
f 45/112/20 44/113/20 59/35/20
f 59/35/20 61/114/20 63/115/20
f 63/115/20 65/116/20 66/117/20
f 66/117/20 68/118/20 70/119/20
f 70/119/20 72/120/20 73/121/20
f 73/121/20 19/122/74 18/101/78
f 73/121/20 18/101/78 20/123/20
f 66/117/20 70/119/20 73/121/20
f 59/35/20 63/115/20 66/117/20
f 17/55/20 45/112/20 59/35/20
f 43/124/20 17/55/20 59/35/20
f 59/35/20 66/117/20 73/121/20
f 73/121/20 20/123/20 71/125/20
f 73/121/20 71/125/20 69/126/20
f 58/127/20 43/124/20 59/35/20
f 60/128/20 58/127/20 59/35/20
f 73/121/20 69/126/20 67/129/20
f 73/121/20 67/129/20 64/33/20
f 62/34/20 60/128/20 59/35/20
f 59/35/20 73/121/20 64/33/20
f 152/36/21 153/130/79 151/37/22
f 161/21/24 162/131/80 156/39/25
f 148/37/27 154/132/43 155/36/28
f 160/41/21 161/133/79 159/42/30
f 140/39/32 146/131/13 145/21/33
f 144/21/35 147/23/80 143/22/36
f 156/42/38 162/134/43 163/41/28
f 153/21/24 154/131/80 148/39/40
f 152/21/11 149/44/81 150/22/42
f 147/30/43 146/135/28 140/31/29
f 156/46/45 158/136/82 157/47/46
f 3/49/48 2/20/10 21/50/10
f 24/52/9 22/104/1 6/1/1
f 42/51/48 74/68/49 41/54/49
f 79/59/50 78/137/50 39/60/51
f 36/20/52 35/50/52 33/19/53
f 39/60/51 38/68/54 12/54/54
f 13/49/55 37/51/55 35/50/52
f 12/54/54 38/68/54 37/51/55
f 30/62/56 28/66/57 29/63/57
f 27/65/58 29/63/57 28/66/57
f 27/65/58 26/67/58 24/52/9
f 96/60/59 97/61/59 41/54/49
f 96/60/59 94/137/60 95/59/60
f 94/69/60 92/82/61 93/70/61
f 81/72/62 80/138/62 78/73/50
f 82/75/63 80/138/62 81/72/62
f 82/75/63 83/76/63 85/77/64
f 84/78/64 85/77/64 87/79/65
f 90/81/66 91/84/66 93/70/61
f 88/83/67 89/85/67 91/84/66
f 86/80/65 87/79/65 89/85/67
f 31/7/68 30/105/56 8/6/56
f 34/9/53 33/19/53 31/7/68
f 145/86/69 146/139/70 147/87/70
f 155/88/70 154/140/70 153/29/72
f 163/89/70 162/141/70 161/48/72
f 46/92/74 2/142/74 3/143/74
f 3/143/74 16/144/74 1/145/74
f 3/143/74 1/145/74 4/146/74
f 50/91/74 48/147/74 46/92/74
f 6/148/74 7/149/74 50/91/74
f 5/150/74 25/98/74 6/148/74
f 5/150/74 6/148/74 50/91/74
f 46/92/74 3/143/74 4/146/74
f 46/92/74 4/146/74 47/151/74
f 51/152/74 5/150/74 50/91/74
f 46/92/74 47/151/74 49/90/74
f 49/90/74 51/152/74 50/91/74
f 10/93/74 34/153/74 32/94/74
f 8/95/74 9/154/74 10/93/74
f 40/155/74 12/156/74 13/96/74
f 13/96/74 36/157/74 34/153/74
f 34/153/74 55/158/74 56/159/74
f 34/153/74 56/159/74 57/97/74
f 79/160/74 40/155/74 13/96/74
f 15/56/83 17/55/84 79/160/74
f 15/56/83 79/160/74 13/96/74
f 13/96/74 34/153/74 57/97/74
f 11/58/74 15/56/83 13/96/74
f 25/98/74 52/161/74 53/162/74
f 54/99/74 8/95/74 29/100/74
f 25/98/74 53/162/74 54/99/74
f 29/100/74 27/163/74 25/98/74
f 97/103/74 95/164/74 18/101/74
f 18/101/74 3/143/74 41/102/74
g vir_gun_305_x2_001_3_details_2
usemtl details_2
f 138/13/9 130/14/9 129/15/9
f 105/16/9 100/17/9 106/18/9
f 118/24/9 113/25/9 121/26/9
f 134/18/9 135/26/9 137/106/9
f 137/106/9 139/107/9 138/13/9
f 138/13/9 136/108/9 133/16/9
f 133/16/9 132/24/9 130/14/9
f 130/14/9 126/109/9 128/17/9
f 128/17/9 127/25/9 129/15/9
f 129/15/9 131/110/9 134/18/9
f 134/18/9 137/106/9 138/13/9
f 138/13/9 133/16/9 130/14/9
f 130/14/9 128/17/9 129/15/9
f 129/15/9 134/18/9 138/13/9
f 109/106/9 111/107/9 110/13/9
f 110/13/9 108/108/9 105/16/9
f 105/16/9 104/24/9 102/14/9
f 102/14/9 98/109/9 100/17/9
f 100/17/9 99/25/9 101/15/9
f 101/15/9 103/110/9 106/18/9
f 106/18/9 107/26/9 109/106/9
f 109/106/9 110/13/9 105/16/9
f 105/16/9 102/14/9 100/17/9
f 100/17/9 101/15/9 106/18/9
f 106/18/9 109/106/9 105/16/9
f 125/107/9 124/13/9 122/108/9
f 122/108/9 119/16/9 118/24/9
f 118/24/9 116/14/9 112/109/9
f 112/109/9 114/17/9 113/25/9
f 113/25/9 115/15/9 117/110/9
f 117/110/9 120/18/9 121/26/9
f 121/26/9 123/106/9 125/107/9
f 125/107/9 122/108/9 118/24/9
f 118/24/9 112/109/9 113/25/9
f 113/25/9 117/110/9 121/26/9
f 121/26/9 125/107/9 118/24/9
