# Blender 5.1.0
# www.blender.org
mtllib vir_gun_305_barrel_003.mtl
o vir_gun_305_barrel_003
v -0.000001 0.611287 -7.817481
v 0.265177 0.736740 -2.573102
v 0.288282 0.704957 -7.817479
v -0.000015 0.650573 -2.573102
v -0.288284 0.704957 -7.817482
v -0.265205 0.736740 -2.573105
v 0.429076 0.962324 -2.573102
v 0.288282 0.704957 -7.817479
v 0.265177 0.736740 -2.573102
v 0.466450 0.950184 -7.817479
v 0.429076 1.241162 -2.573102
v 0.466451 1.253303 -7.817478
v 0.265179 1.466749 -2.573103
v 0.288284 1.498532 -7.817480
v -0.000013 1.552915 -2.573103
v 0.288284 1.498532 -7.817480
v 0.265179 1.466749 -2.573103
v 0.000001 1.592200 -7.817481
v -0.265205 1.466749 -2.573106
v -0.288282 1.498532 -7.817482
v -0.429103 1.241162 -2.573106
v -0.288282 1.498532 -7.817482
v -0.265205 1.466749 -2.573106
v -0.466451 1.253304 -7.817482
v -0.429103 0.962323 -2.573106
v -0.466453 0.950185 -7.817482
v -0.265205 0.736740 -2.573105
v -0.288284 0.704957 -7.817482
v -0.000015 0.740437 -2.573103
v 0.150331 0.894783 3.353657
v 0.212357 0.809440 -2.573104
v -0.000033 0.845927 3.353657
v 0.171993 0.864967 3.576675
v -0.212387 0.809439 -2.573105
v -0.000034 0.809072 3.576675
v -0.150397 0.894783 3.353655
v -0.172061 0.864969 3.576672
v 0.343610 1.213395 -2.573103
v 0.150332 1.308699 3.353655
v 0.212358 1.394048 -2.573103
v 0.243260 1.180792 3.353655
v 0.171995 1.338515 3.576675
v 0.343610 0.990094 -2.573103
v 0.278311 1.192181 3.576675
v 0.243260 1.022691 3.353655
v 0.212357 0.809440 -2.573104
v 0.278310 1.011302 3.576675
v 0.150331 0.894783 3.353657
v 0.171993 0.864967 3.576675
v -0.000013 1.463051 -2.573104
v -0.150397 1.308700 3.353657
v -0.212385 1.394047 -2.573104
v -0.000033 1.357555 3.353657
v -0.172059 1.338517 3.576675
v 0.212358 1.394048 -2.573103
v -0.000033 1.394410 3.576675
v 0.150332 1.308699 3.353655
v 0.171995 1.338515 3.576675
v -0.343638 0.990093 -2.573105
v -0.150397 0.894783 3.353655
v -0.212387 0.809439 -2.573105
v -0.243326 1.022691 3.353655
v -0.172061 0.864969 3.576672
v -0.343638 1.213394 -2.573105
v -0.278378 1.011303 3.576672
v -0.243326 1.180792 3.353655
v -0.212385 1.394047 -2.573104
v -0.278378 1.192183 3.576672
v -0.150397 1.308700 3.353657
v -0.172059 1.338517 3.576675
v 0.265177 0.736740 -2.573102
v -0.000013 1.101741 -2.196126
v 0.429076 0.962324 -2.573102
v -0.000015 0.650573 -2.573102
v 0.429076 1.241162 -2.573102
v -0.265205 0.736740 -2.573105
v 0.265179 1.466749 -2.573103
v -0.429103 0.962323 -2.573106
v -0.000013 1.552915 -2.573103
v -0.429103 1.241162 -2.573106
v -0.265205 1.466749 -2.573106
v -0.000034 0.809072 3.576675
v 0.108116 0.952886 3.621638
v 0.171993 0.864967 3.576675
v -0.000033 0.917747 3.621638
v 0.174957 1.044884 3.621638
v -0.172061 0.864969 3.576672
v 0.278310 1.011302 3.576675
v -0.108182 0.952887 3.621638
v 0.174956 1.158599 3.621638
v -0.278378 1.011303 3.576672
v 0.278311 1.192181 3.576675
v -0.175022 1.044886 3.621636
v 0.108116 1.250596 3.621638
v -0.278378 1.192183 3.576672
v 0.171995 1.338515 3.576675
v -0.175022 1.158600 3.621636
v -0.000033 1.285737 3.621638
v -0.172059 1.338517 3.576675
v -0.000033 1.394410 3.576675
v -0.108182 1.250597 3.621638
v -0.000033 0.917747 3.621638
v -0.000013 1.101744 -2.573105
v 0.108116 0.952886 3.621638
v -0.108182 0.952887 3.621638
v 0.108116 0.952886 3.621638
v -0.000013 1.101744 -2.573105
v 0.174957 1.044884 3.621638
v 0.174956 1.158599 3.621638
v 0.108116 1.250596 3.621638
v 0.108116 1.250596 3.621638
v -0.000013 1.101744 -2.573105
v -0.000033 1.285737 3.621638
v -0.108182 1.250597 3.621638
v -0.108182 1.250597 3.621638
v -0.000013 1.101744 -2.573105
v -0.175022 1.158600 3.621636
v -0.175022 1.044886 3.621636
v -0.108182 0.952887 3.621638
vn 0.5877 -0.8090 0.0075
vn -0.0000 -1.0000 0.0075
vn -0.5877 -0.8090 0.0075
vn 0.5878 -0.8090 0.0075
vn 0.9510 -0.3090 0.0075
vn 0.9510 0.3090 0.0075
vn 0.5878 0.8090 0.0075
vn 0.5877 0.8090 0.0075
vn -0.0000 1.0000 0.0075
vn -0.5877 0.8090 0.0075
vn -0.5878 0.8090 0.0075
vn -0.9510 0.3090 0.0075
vn -0.9510 -0.3090 0.0075
vn -0.5878 -0.8090 0.0075
vn 0.5877 -0.8089 0.0178
vn 0.5861 -0.8068 -0.0743
vn -0.0000 -0.9998 0.0178
vn -0.0000 -0.9972 -0.0743
vn 0.5799 -0.7982 -0.1630
vn -0.5877 -0.8089 0.0178
vn -0.0000 -0.9866 -0.1630
vn -0.5861 -0.8068 -0.0743
vn -0.5799 -0.7982 -0.1630
vn 0.5877 0.8089 0.0178
vn 0.5862 0.8068 -0.0743
vn 0.9509 0.3090 0.0178
vn 0.9484 0.3082 -0.0743
vn 0.5800 0.7982 -0.1630
vn 0.9509 -0.3090 0.0178
vn 0.9383 0.3049 -0.1630
vn 0.9484 -0.3082 -0.0743
vn 0.9383 -0.3049 -0.1630
vn 0.5862 -0.8068 -0.0743
vn 0.5800 -0.7982 -0.1630
vn -0.5877 0.8089 0.0178
vn -0.5861 0.8068 -0.0743
vn -0.0000 0.9998 0.0178
vn -0.0000 0.9972 -0.0743
vn -0.5799 0.7982 -0.1630
vn -0.0000 0.9866 -0.1630
vn 0.5861 0.8068 -0.0743
vn 0.5799 0.7982 -0.1630
vn -0.5862 -0.8068 -0.0743
vn -0.9509 -0.3090 0.0178
vn -0.9484 -0.3082 -0.0743
vn -0.5800 -0.7982 -0.1630
vn -0.9509 0.3090 0.0178
vn -0.9383 -0.3049 -0.1630
vn -0.9484 0.3082 -0.0743
vn -0.9383 0.3049 -0.1630
vn -0.5862 0.8068 -0.0743
vn 0.6098 -0.1981 0.7674
vn -0.0000 -0.0000 1.0000
vn 0.3769 -0.5187 0.7674
vn -0.0000 -0.6412 0.7674
vn 0.6098 0.1981 0.7674
vn -0.3769 -0.5187 0.7674
vn 0.3769 0.5187 0.7674
vn -0.6098 -0.1981 0.7674
vn -0.0000 0.6412 0.7674
vn -0.6098 0.1981 0.7674
vn -0.3769 0.5187 0.7674
vn 0.2247 -0.3093 0.9240
vn -0.0000 -0.3823 0.9240
vn 0.3636 -0.1181 0.9240
vn -0.2247 -0.3093 0.9240
vn 0.3636 0.1181 0.9240
vn -0.3636 -0.1181 0.9240
vn 0.2247 0.3093 0.9240
vn -0.3636 0.1181 0.9240
vn -0.0000 0.3823 0.9240
vn -0.2247 0.3093 0.9240
vn -0.5875 0.8087 0.0297
vn -0.0011 0.0030 1.0000
vn -0.0000 0.9996 0.0297
vn 0.5875 0.8088 0.0269
vn -0.9506 0.3089 0.0297
vn -0.5876 0.8087 0.0269
vn -0.9506 -0.3089 0.0297
vn -0.5876 -0.8086 0.0297
vn -0.0000 -0.9996 0.0297
vn -0.5875 -0.8087 0.0269
vn 0.5875 -0.8087 0.0297
vn 0.9506 -0.3089 0.0297
vn 0.5876 -0.8087 0.0269
vn 0.9506 0.3089 0.0297
vn 0.5876 0.8086 0.0297
vt 28.147528 0.533839
vt 28.147877 0.454151
vt 28.151901 0.533839
vt 28.151901 0.454151
vt 28.156275 0.533839
vt 28.155926 0.454151
vt 0.545849 0.533254
vt 0.466161 0.533735
vt 0.545848 0.529836
vt 0.466161 0.530020
vt 0.545848 0.525612
vt 0.466161 0.525428
vt 0.545848 0.522195
vt 0.466161 0.521714
vt -27.147877 0.454151
vt -27.147528 0.533839
vt -27.151901 0.454151
vt -27.151901 0.533839
vt -27.155926 0.454152
vt -27.156275 0.533839
vt 0.454152 0.522195
vt 0.533839 0.521714
vt 0.454152 0.525612
vt 0.533839 0.525428
vt 0.454152 0.529836
vt 0.533839 0.530020
vt 0.454151 0.533254
vt 0.533839 0.533735
vt 28.148680 0.454151
vt 28.149620 0.364095
vt 28.151901 0.364095
vt 28.149292 0.360706
vt 28.155125 0.454151
vt 28.151901 0.360706
vt 28.154182 0.364095
vt 28.154512 0.360706
vt 0.545848 0.523296
vt 0.635905 0.524589
vt 0.545848 0.526033
vt 0.635905 0.526527
vt 0.639294 0.524138
vt 0.545848 0.529416
vt 0.639294 0.526354
vt 0.635905 0.528922
vt 0.545848 0.532152
vt 0.639294 0.529094
vt 0.635905 0.530859
vt 0.639294 0.531311
vt -27.155125 0.454151
vt -27.154182 0.364095
vt -27.151901 0.364095
vt -27.154512 0.360706
vt -27.148680 0.454151
vt -27.151901 0.360706
vt -27.149620 0.364095
vt -27.149292 0.360706
vt 0.454151 0.532152
vt 0.364095 0.530859
vt 0.454151 0.529416
vt 0.364095 0.528922
vt 0.360706 0.531311
vt 0.454151 0.526033
vt 0.360706 0.529094
vt 0.364095 0.526527
vt 0.454151 0.523296
vt 0.360706 0.526354
vt 0.364095 0.524589
vt 0.360706 0.524138
vt 28.145391 0.529836
vt 28.151901 0.527724
vt 28.147877 0.533254
vt 28.151901 0.534559
vt 28.145391 0.525612
vt 28.155926 0.533254
vt 28.147877 0.522195
vt 28.158413 0.529836
vt 28.151901 0.520890
vt 28.158413 0.525612
vt 28.155926 0.522195
vt 28.149292 0.531311
vt 28.150261 0.529979
vt 28.151901 0.532158
vt 28.151901 0.530512
vt 28.149246 0.528586
vt 28.154512 0.531311
vt 28.147678 0.529094
vt 28.153543 0.529979
vt 28.149246 0.526863
vt 28.156126 0.529094
vt 28.147678 0.526354
vt 28.154556 0.528586
vt 28.150261 0.525469
vt 28.156126 0.526354
vt 28.149292 0.524138
vt 28.154556 0.526863
vt 28.151901 0.524937
vt 28.154512 0.524138
vt 28.151901 0.523291
vt 28.153543 0.525469
vt -27.150261 0.360023
vt -27.151901 0.454152
vt -27.151901 0.360023
vt -27.153543 0.360023
vt 0.360023 0.528586
vt 0.454152 0.527724
vt 0.360023 0.529979
vt 0.360023 0.526863
vt 0.360023 0.525469
vt 28.151901 0.360023
vt 28.151901 0.454152
vt 28.150261 0.360023
vt 28.153543 0.360023
vt 0.639977 0.526863
vt 0.545848 0.527724
vt 0.639977 0.525469
vt 0.639977 0.528586
vt 0.639977 0.529979
s 1
g vir_gun_305_barrel_003_details_4
usemtl details_4
f 3/1/1 2/2/1 1/3/2
f 4/4/2 1/3/2 2/2/1
f 1/3/2 4/4/2 5/5/3
f 6/6/3 5/5/3 4/4/2
f 9/7/4 8/8/4 7/9/5
f 10/10/5 7/9/5 8/8/4
f 7/9/5 10/10/5 11/11/6
f 12/12/6 11/11/6 10/10/5
f 11/11/6 12/12/6 13/13/7
f 14/14/7 13/13/7 12/12/6
f 17/15/8 16/16/8 15/17/9
f 18/18/9 15/17/9 16/16/8
f 15/17/9 18/18/9 19/19/10
f 20/20/10 19/19/10 18/18/9
f 23/21/11 22/22/11 21/23/12
f 24/24/12 21/23/12 22/22/11
f 21/23/12 24/24/12 25/25/13
f 26/26/13 25/25/13 24/24/12
f 25/25/13 26/26/13 27/27/14
f 28/28/14 27/27/14 26/26/13
f 31/29/15 30/30/16 29/4/17
f 32/31/18 29/4/17 30/30/16
f 29/4/17 32/31/18 34/33/20
f 36/35/22 34/33/20 32/31/18
f 40/37/24 39/38/25 38/39/26
f 41/40/27 38/39/26 39/38/25
f 38/39/26 41/40/27 43/42/29
f 45/44/31 43/42/29 41/40/27
f 43/42/29 45/44/31 46/45/15
f 48/47/33 46/45/15 45/44/31
f 52/49/35 51/50/36 50/17/37
f 53/51/38 50/17/37 51/50/36
f 50/17/37 53/51/38 55/53/24
f 57/55/41 55/53/24 53/51/38
f 61/57/20 60/58/43 59/59/44
f 62/60/45 59/59/44 60/58/43
f 59/59/44 62/60/45 64/62/47
f 66/64/49 64/62/47 62/60/45
f 64/62/47 66/64/49 67/65/35
f 69/67/51 67/65/35 66/64/49
f 73/69/52 72/70/53 71/71/54
f 71/71/54 72/70/53 74/72/55
f 75/73/56 72/70/53 73/69/52
f 74/72/55 72/70/53 76/74/57
f 77/75/58 72/70/53 75/73/56
f 76/74/57 72/70/53 78/76/59
f 79/77/60 72/70/53 77/75/58
f 78/76/59 72/70/53 80/78/61
f 81/79/62 72/70/53 79/77/60
f 80/78/61 72/70/53 81/79/62
g vir_gun_305_barrel_003_details_5
usemtl details_5
f 30/30/16 33/32/19 32/31/18
f 35/34/21 32/31/18 33/32/19
f 32/31/18 35/34/21 36/35/22
f 37/36/23 36/35/22 35/34/21
f 39/38/25 42/41/28 41/40/27
f 44/43/30 41/40/27 42/41/28
f 41/40/27 44/43/30 45/44/31
f 47/46/32 45/44/31 44/43/30
f 45/44/31 47/46/32 48/47/33
f 49/48/34 48/47/33 47/46/32
f 51/50/36 54/52/39 53/51/38
f 56/54/40 53/51/38 54/52/39
f 53/51/38 56/54/40 57/55/41
f 58/56/42 57/55/41 56/54/40
f 60/58/43 63/61/46 62/60/45
f 65/63/48 62/60/45 63/61/46
f 62/60/45 65/63/48 66/64/49
f 68/66/50 66/64/49 65/63/48
f 66/64/49 68/66/50 69/67/51
f 70/68/39 69/67/51 68/66/50
f 84/80/63 83/81/63 82/82/64
f 85/83/64 82/82/64 83/81/63
f 83/81/63 84/80/63 86/84/65
f 82/82/64 85/83/64 87/85/66
f 88/86/65 86/84/65 84/80/63
f 89/87/66 87/85/66 85/83/64
f 86/84/65 88/86/65 90/88/67
f 87/85/66 89/87/66 91/89/68
f 92/90/67 90/88/67 88/86/65
f 93/91/68 91/89/68 89/87/66
f 90/88/67 92/90/67 94/92/69
f 91/89/68 93/91/68 95/93/70
f 96/94/69 94/92/69 92/90/67
f 97/95/70 95/93/70 93/91/68
f 94/92/69 96/94/69 98/96/71
f 95/93/70 97/95/70 99/97/72
f 100/98/71 98/96/71 96/94/69
f 101/99/72 99/97/72 97/95/70
f 98/96/71 100/98/71 101/99/72
f 99/97/72 101/99/72 100/98/71
g vir_gun_305_barrel_003_details_2
usemtl details_2
f 104/100/73 103/101/74 102/102/75
f 105/103/76 102/102/75 103/101/74
f 108/104/77 107/105/74 106/106/78
f 109/107/79 107/105/74 108/104/77
f 110/108/80 107/105/74 109/107/79
f 113/109/81 112/110/74 111/111/82
f 114/112/83 112/110/74 113/109/81
f 117/113/84 116/114/74 115/115/85
f 118/116/86 116/114/74 117/113/84
f 119/117/87 116/114/74 118/116/86
