# Blender 5.1.0
# www.blender.org
mtllib vir_gun_305_x2_001_0.mtl
o vir_gun_305_x2_001_0
v -4.297553 1.830182 0.260894
v 4.297562 2.019037 0.369930
v -4.297553 2.019037 0.369930
v 4.297562 1.830181 0.260894
v -4.297553 1.641326 0.369930
v 4.297562 1.641326 0.369930
v -4.297553 2.019037 0.369930
v 4.297562 2.019037 0.588002
v -4.297553 2.019037 0.588002
v 4.297562 2.019037 0.369930
v 4.297562 1.830181 0.697038
v -4.297553 2.019037 0.588002
v 4.297562 2.019037 0.588002
v -4.297553 1.830182 0.697038
v 4.297562 1.641326 0.588002
v -4.297553 1.641326 0.588002
v -4.297553 1.641326 0.588002
v 4.297562 1.641326 0.369930
v -4.297553 1.641326 0.369930
v 4.297562 1.641326 0.588002
v -4.297553 1.641326 0.588002
v -4.297553 2.019037 0.588002
v -4.297553 1.830182 0.697038
v -4.297553 1.830182 0.260894
v -4.297553 1.641326 0.369930
v -4.297553 2.019037 0.369930
v 4.297562 2.019037 0.369930
v 4.297562 1.830181 0.697038
v 4.297562 2.019037 0.588002
v 4.297562 1.641326 0.369930
v 4.297562 1.830181 0.260894
v 4.297562 1.641326 0.588002
v 0.800812 2.932512 -5.481383
v 1.248578 1.048404 -5.392179
v 1.248578 2.940307 -5.392180
v 0.797328 1.048404 -5.481957
v 0.000000 2.928024 -5.532928
v 0.000000 1.048404 -5.533038
v -0.797327 1.048404 -5.481957
v -0.800811 2.932512 -5.481383
v -1.248577 1.048404 -5.392179
v -1.248577 2.940307 -5.392180
v 0.800812 2.932502 -5.217873
v 1.248578 2.940307 -5.392180
v 1.248578 2.940297 -5.128670
v 0.800812 2.932512 -5.481383
v 0.000000 2.928015 -5.269417
v 0.000000 2.928024 -5.532928
v -0.800811 2.932502 -5.217873
v -0.800811 2.932512 -5.481383
v -1.248577 2.940297 -5.128670
v -1.248577 2.940307 -5.392180
v 1.248578 2.940297 -5.128670
v 1.248578 1.048404 -5.392179
v 1.248578 1.048394 -5.128669
v 1.248578 2.940307 -5.392180
v 0.797328 1.048404 -5.481957
v 1.248578 1.048394 -5.128669
v 1.248578 1.048404 -5.392179
v 0.797328 1.048394 -5.218447
v 0.000000 1.048404 -5.533038
v 0.000000 1.048394 -5.269527
v -0.797327 1.048404 -5.481957
v -0.797327 1.048394 -5.218447
v -1.248577 1.048404 -5.392179
v -1.248577 1.048394 -5.128669
v -1.248577 1.048394 -5.128669
v -1.248577 2.940307 -5.392180
v -1.248577 2.940297 -5.128670
v -1.248577 1.048404 -5.392179
v 3.414137 0.736298 -3.126365
v 3.107777 3.340159 -4.185016
v 3.107777 0.736298 -4.185015
v 3.360604 3.416595 -3.311355
v 4.051278 2.528960 -0.924679
v 4.051278 0.736297 -0.924678
v 4.155465 2.291011 -0.000001
v 4.155465 0.736298 -0.000001
v 4.051280 2.188167 0.924670
v 4.051280 0.736298 0.924671
v 3.743949 0.736297 1.802982
v 3.743947 2.275590 1.802981
v 3.248875 2.501390 2.590884
v 3.248875 0.736298 2.590884
v 3.107777 0.736298 -4.185015
v 2.801427 3.307228 -4.561419
v 2.801427 0.736297 -4.561419
v 3.107777 3.340159 -4.185016
v 2.234064 3.279004 -4.884013
v 2.801427 0.736297 -4.561419
v 2.801427 3.307228 -4.561419
v 2.234064 0.736297 -4.884012
v 1.554675 3.257768 -5.126735
v 1.554675 0.736297 -5.126733
v 0.797328 3.244586 -5.277412
v 0.797328 0.736297 -5.277411
v 0.000000 3.240117 -5.328493
v 0.000000 0.736297 -5.328492
v -0.797327 0.736297 -5.277411
v -0.797327 3.244586 -5.277412
v -1.554675 0.736297 -5.126733
v -1.554675 3.257768 -5.126735
v -2.234062 0.736297 -4.884012
v -2.234062 3.279004 -4.884013
v -2.801426 0.736297 -4.561419
v -2.801426 3.307228 -4.561419
v 3.743947 2.275590 1.802981
v 2.524766 3.088360 1.924670
v 4.051280 2.188167 0.924670
v 4.155465 2.291011 -0.000001
v 4.051278 2.528960 -0.924679
v 3.043524 3.482780 -2.554847
v 3.360604 3.416595 -3.311355
v 1.802985 1.463710 3.743939
v 0.495199 1.201879 4.091141
v 1.802991 0.736298 3.743941
v 0.924683 0.736297 4.051276
v 0.924682 1.220407 4.051275
v 0.571550 1.201853 4.091064
v 0.000000 0.736297 4.155463
v -0.924681 0.736297 4.051276
v -0.924681 1.220407 4.051275
v -0.571550 1.201853 4.091064
v -1.802985 1.463710 3.743939
v -1.802991 0.736298 3.743941
v -2.590895 0.736298 3.248869
v 0.571552 1.486843 3.757945
v 0.285900 1.031323 4.120032
v 0.000000 3.088360 1.924670
v -3.248874 2.501390 2.590884
v -0.571550 1.663426 3.553032
v -3.107777 3.340159 -4.185016
v -3.414137 0.736298 -3.126365
v -3.107777 0.736298 -4.185015
v -3.360604 3.416595 -3.311355
v -4.051276 2.528960 -0.924679
v -4.051278 0.736297 -0.924678
v -4.155464 2.291011 -0.000001
v -4.155465 0.736298 -0.000001
v -4.051279 2.188167 0.924670
v -4.051279 0.736298 0.924671
v -3.743947 0.736297 1.802982
v -3.743945 2.275590 1.802981
v -0.495199 1.201879 4.091141
v -3.248874 0.736298 2.590884
v -0.571552 1.486843 3.757945
v -2.590895 0.736298 3.248869
v -3.107777 0.736298 -4.185015
v -2.801426 3.307228 -4.561419
v -3.107777 3.340159 -4.185016
v -2.801426 0.736297 -4.561419
v -3.743945 2.275590 1.802981
v -2.524120 3.088360 1.924670
v -0.285900 1.031323 4.120032
v -4.051279 2.188167 0.924670
v -4.155464 2.291011 -0.000001
v -4.051276 2.528960 -0.924679
v -3.043522 3.482780 -2.554847
v -3.360604 3.416595 -3.311355
v 0.000000 0.954401 4.155396
v 0.571550 1.663426 3.553032
v 0.000000 2.895593 2.144450
v 0.285909 2.794471 2.253823
v -0.285909 2.794471 2.253823
v -0.495198 2.495093 2.592539
v -0.571805 2.095543 3.052382
v 0.495198 2.495093 2.592539
v 0.571805 2.095543 3.052382
v -1.957149 1.201880 3.659083
v -1.880797 1.508219 3.695196
v -2.166449 1.031323 3.514325
v -3.023899 1.487108 2.817230
v -2.947548 1.201880 2.900000
v -2.738248 1.031323 3.125000
v -2.452349 0.954401 3.334900
v -1.880798 1.663426 3.512506
v -1.880797 1.525263 3.776863
v -1.957149 1.240300 3.776863
v -2.452349 2.895593 2.136348
v -2.166439 2.794471 2.255000
v -2.738258 2.794471 2.258076
v -2.947546 2.495093 2.595323
v -3.024154 2.292452 2.817547
v -1.957151 2.495093 2.587092
v -1.880543 2.095543 3.028647
v 2.590895 0.736298 3.248869
v 1.957149 1.201880 3.659083
v 1.880797 1.508219 3.695196
v 2.166449 1.031323 3.514325
v 3.023899 1.487108 2.817230
v 2.947548 1.201880 2.900000
v 2.738248 1.031323 3.125000
v 2.452349 0.954401 3.334900
v 2.947546 2.495093 2.595323
v 1.880798 1.663426 3.512506
v 2.738258 2.794471 2.258076
v 2.166439 2.794471 2.255000
v 2.452349 2.895593 2.136348
v 3.024154 2.292452 2.817547
v 1.957151 2.495093 2.587092
v 1.880543 2.095543 3.028647
v -1.261748 3.255774 -4.775596
v 1.261755 3.451193 -4.775589
v -1.261748 3.451193 -4.775589
v 1.261755 3.255774 -4.775596
v -1.261748 3.451193 -4.775589
v 1.261755 3.526492 -3.990993
v -1.261748 3.526492 -3.990993
v 1.261755 3.451193 -4.775589
v -1.261748 3.526492 -3.990993
v 1.261754 3.444065 -2.917220
v -1.261748 3.444065 -2.917220
v 1.261755 3.526492 -3.990993
v -1.261748 3.444065 -2.917220
v -1.261748 3.451193 -4.775589
v -1.261748 3.526492 -3.990993
v -1.261748 3.255774 -4.775596
v 1.261755 3.451193 -4.775589
v 1.261754 3.444065 -2.917220
v 1.261755 3.526492 -3.990993
v 1.261755 3.255774 -4.775596
v -1.043780 3.380497 -3.674912
v -1.043780 3.849661 -4.583062
v -1.043780 3.849661 -3.674913
v -1.043780 3.380497 -4.583099
v -1.043780 3.849661 -4.583062
v -0.663413 3.849661 -3.674911
v -1.043780 3.849661 -3.674913
v -0.663413 3.849661 -4.583061
v -0.663413 3.380497 -3.674911
v -0.663413 3.849661 -4.583061
v -0.663413 3.380497 -4.583098
v -0.663413 3.849661 -3.674911
v -0.969939 3.552053 -3.674912
v -1.043780 3.849661 -3.674913
v -0.969939 3.776084 -3.674912
v -0.737255 3.776084 -3.674912
v -1.043780 3.380497 -3.674912
v -0.663413 3.849661 -3.674911
v -0.663413 3.380497 -3.674911
v -0.737255 3.552053 -3.674911
v 1.261755 3.863916 -4.775589
v -1.261748 3.863916 -4.775589
v -1.261748 3.863916 -4.775589
v 1.261755 3.863916 -3.990992
v -1.261748 3.863916 -3.990992
v 1.261755 3.863916 -4.775589
v -1.261748 3.863916 -3.990992
v 1.261755 3.863916 -3.990992
v -1.261748 3.863916 -4.775589
v -1.261748 3.863916 -3.990992
v 1.261755 3.863916 -4.775589
v 1.261755 3.863916 -3.990992
v 1.043784 3.380497 -3.674913
v 1.043784 3.849661 -4.583062
v 1.043784 3.380497 -4.583099
v 1.043784 3.849661 -3.674913
v 1.043784 3.849661 -4.583062
v 0.663419 3.849661 -3.674911
v 0.663419 3.849661 -4.583061
v 1.043784 3.849661 -3.674913
v 0.663419 3.380497 -3.674911
v 0.663419 3.849661 -4.583061
v 0.663419 3.849661 -3.674911
v 0.663419 3.380497 -4.583098
v 1.043784 3.849661 -3.674913
v 0.969943 3.552053 -3.674912
v 0.969943 3.776084 -3.674912
v 0.737261 3.776084 -3.674912
v 1.043784 3.380497 -3.674913
v 0.663419 3.849661 -3.674911
v 0.663419 3.380497 -3.674911
v 0.737261 3.552053 -3.674911
v 0.421771 3.380497 -3.674913
v 0.421771 3.849661 -4.583062
v 0.421771 3.380497 -4.583099
v 0.421771 3.849661 -3.674913
v 0.421771 3.849661 -4.583062
v 0.041406 3.849661 -3.674911
v 0.041406 3.849661 -4.583061
v 0.421771 3.849661 -3.674913
v 0.041406 3.380497 -3.674911
v 0.041406 3.849661 -4.583061
v 0.041406 3.849661 -3.674911
v 0.041406 3.380497 -4.583098
v 0.421771 3.849661 -3.674913
v 0.347929 3.552053 -3.674912
v 0.347929 3.776084 -3.674912
v 0.115247 3.776084 -3.674912
v 0.421771 3.380497 -3.674913
v 0.041406 3.849661 -3.674911
v 0.041406 3.380497 -3.674911
v 0.115247 3.552053 -3.674911
v -0.773334 3.180559 -0.002674
v -0.773334 3.280559 0.026586
v -0.700175 3.180559 0.004532
v -0.705883 3.280559 0.033229
v -0.629827 3.180559 0.025872
v -0.641024 3.280559 0.052904
v -0.564995 3.180559 0.060525
v -0.581251 3.280559 0.084854
v -0.508169 3.180559 0.107161
v -0.528858 3.280559 0.127851
v -0.461533 3.180559 0.163988
v -0.485861 3.280559 0.180243
v -0.426879 3.180559 0.228820
v -0.453911 3.280559 0.240017
v -0.405539 3.180559 0.299168
v -0.434236 3.280559 0.304876
v -0.398334 3.180559 0.372326
v -0.427593 3.280559 0.372326
v -0.405539 3.180559 0.445485
v -0.434236 3.280559 0.439777
v -0.426879 3.180559 0.515833
v -0.453911 3.280559 0.504636
v -0.461533 3.180559 0.580665
v -0.485861 3.280559 0.564410
v -0.508169 3.180559 0.637491
v -0.528858 3.280559 0.616802
v -0.564995 3.180559 0.684128
v -0.581251 3.280559 0.659799
v -0.629827 3.180559 0.718781
v -0.641024 3.280559 0.691749
v -0.700175 3.180559 0.740121
v -0.705883 3.280559 0.711424
v -0.773334 3.180559 0.747326
v -0.773334 3.280560 0.718067
v -0.846493 3.180559 0.740121
v -0.840784 3.280560 0.711424
v -0.916840 3.180559 0.718781
v -0.905643 3.280559 0.691749
v -0.981673 3.180559 0.684128
v -0.965417 3.280559 0.659799
v -1.038499 3.180559 0.637491
v -1.017809 3.280559 0.616802
v -1.085135 3.180559 0.580665
v -1.060806 3.280559 0.564410
v -1.119788 3.180559 0.515833
v -1.092756 3.280559 0.504636
v -1.141128 3.180559 0.445485
v -1.112431 3.280559 0.439777
v -1.148334 3.180559 0.372326
v -1.119074 3.280559 0.372326
v -1.141128 3.180559 0.299168
v -1.112431 3.280559 0.304876
v -1.119788 3.180559 0.228820
v -1.092756 3.280559 0.240017
v -1.085135 3.180559 0.163988
v -1.060806 3.280559 0.180243
v -1.038499 3.180559 0.107161
v -1.017809 3.280559 0.127851
v -0.981673 3.180559 0.060525
v -0.965417 3.280559 0.084854
v -0.916840 3.180559 0.025872
v -0.905643 3.280559 0.052904
v -0.846493 3.180559 0.004532
v -0.840784 3.280559 0.033229
v -0.700175 3.280559 0.004532
v -0.773334 3.280559 -0.002674
v -0.629827 3.280559 0.025872
v -0.564995 3.280559 0.060525
v -0.508169 3.280559 0.107161
v -0.461533 3.280559 0.163988
v -0.426879 3.280559 0.228820
v -0.405539 3.280559 0.299168
v -0.398334 3.280559 0.372326
v -0.405539 3.280559 0.445485
v -0.426879 3.280559 0.515833
v -0.461533 3.280559 0.580665
v -0.508169 3.280559 0.637491
v -0.564995 3.280559 0.684128
v -0.629827 3.280559 0.718781
v -0.700175 3.280559 0.740121
v -0.773334 3.280560 0.747326
v -0.846493 3.280560 0.740121
v -0.916840 3.280559 0.718781
v -0.981673 3.280559 0.684128
v -1.038499 3.280559 0.637491
v -1.085135 3.280559 0.580665
v -1.119788 3.280559 0.515833
v -1.141128 3.280559 0.445485
v -1.148334 3.280559 0.372326
v -1.141128 3.280559 0.299168
v -1.119788 3.280559 0.228820
v -1.085135 3.280559 0.163988
v -1.038499 3.280559 0.107161
v -0.981673 3.280559 0.060525
v -0.916840 3.280559 0.025872
v -0.846493 3.280559 0.004532
v -0.711664 3.350000 0.062291
v -0.773334 3.350000 0.056217
v -0.652364 3.350000 0.080280
v -0.597713 3.350000 0.109491
v -0.549811 3.350000 0.148804
v -0.510499 3.350000 0.196706
v -0.481287 3.350000 0.251357
v -0.463299 3.350000 0.310657
v -0.457225 3.350000 0.372326
v -0.463299 3.350000 0.433996
v -0.481287 3.350000 0.493296
v -0.510499 3.350000 0.547947
v -0.549811 3.350000 0.595849
v -0.597713 3.350000 0.635161
v -0.652364 3.350000 0.664373
v -0.711664 3.350000 0.682361
v -0.773334 3.350000 0.688435
v -0.835003 3.350000 0.682361
v -0.894303 3.350000 0.664373
v -0.948954 3.350000 0.635161
v -0.996856 3.350000 0.595849
v -1.036169 3.350000 0.547947
v -1.065380 3.350000 0.493296
v -1.083369 3.350000 0.433996
v -1.089443 3.350000 0.372326
v -1.083369 3.350000 0.310657
v -1.065380 3.350000 0.251357
v -1.036169 3.350000 0.196706
v -0.996856 3.350000 0.148804
v -0.948954 3.350000 0.109491
v -0.894303 3.350000 0.080280
v -0.835003 3.350000 0.062291
v -0.705883 3.350000 0.033229
v -0.773334 3.350000 0.026586
v -0.641024 3.350000 0.052904
v -0.581251 3.350000 0.084854
v -0.528858 3.350000 0.127851
v -0.485861 3.350000 0.180243
v -0.453911 3.350000 0.240017
v -0.434236 3.350000 0.304876
v -0.427593 3.350000 0.372326
v -0.434236 3.350000 0.439777
v -0.453911 3.350000 0.504636
v -0.485861 3.350000 0.564410
v -0.528858 3.350000 0.616802
v -0.581251 3.350000 0.659799
v -0.641024 3.350000 0.691749
v -0.705883 3.350000 0.711424
v -0.773334 3.350000 0.718067
v -0.840784 3.350000 0.711424
v -0.905643 3.350000 0.691749
v -0.965417 3.350000 0.659799
v -1.017809 3.350000 0.616802
v -1.060806 3.350000 0.564410
v -1.092756 3.350000 0.504636
v -1.112431 3.350000 0.439777
v -1.119074 3.350000 0.372326
v -1.112431 3.350000 0.304876
v -1.092756 3.350000 0.240017
v -1.060806 3.350000 0.180243
v -1.017809 3.350000 0.127851
v -0.965417 3.350000 0.084854
v -0.905643 3.350000 0.052904
v -0.840784 3.350000 0.033229
v -0.711664 3.280560 0.062291
v -0.773334 3.280560 0.056217
v -0.652364 3.280560 0.080280
v -0.597713 3.280560 0.109491
v -0.549811 3.280560 0.148804
v -0.510499 3.280560 0.196706
v -0.481287 3.280560 0.251357
v -0.463299 3.280560 0.310657
v -0.457225 3.280560 0.372326
v -0.463299 3.280560 0.433996
v -0.481287 3.280560 0.493296
v -0.510499 3.280560 0.547947
v -0.549811 3.280560 0.595849
v -0.597713 3.280560 0.635161
v -0.652364 3.280560 0.664373
v -0.711664 3.280560 0.682361
v -0.773334 3.280560 0.688435
v -0.835003 3.280560 0.682361
v -0.894303 3.280560 0.664373
v -0.948954 3.280560 0.635161
v -0.996856 3.280560 0.595849
v -1.036169 3.280560 0.547947
v -1.065380 3.280560 0.493296
v -1.083369 3.280560 0.433996
v -1.089443 3.280560 0.372326
v -1.083369 3.280560 0.310657
v -1.065380 3.280560 0.251357
v -1.036169 3.280560 0.196706
v -0.996856 3.280560 0.148804
v -0.948954 3.280560 0.109491
v -0.894303 3.280560 0.080280
v -0.835003 3.280560 0.062291
v -2.307076 3.180559 -0.002674
v -2.307076 3.280559 0.026586
v -2.233918 3.180559 0.004532
v -2.239626 3.280559 0.033229
v -2.163570 3.180559 0.025872
v -2.174767 3.280559 0.052904
v -2.098738 3.180559 0.060525
v -2.114994 3.280559 0.084854
v -2.041912 3.180559 0.107161
v -2.062601 3.280559 0.127851
v -1.995275 3.180559 0.163988
v -2.019604 3.280559 0.180243
v -1.960622 3.180559 0.228820
v -1.987654 3.280559 0.240017
v -1.939282 3.180559 0.299168
v -1.967979 3.280559 0.304876
v -1.932077 3.180559 0.372326
v -1.961336 3.280559 0.372326
v -1.939282 3.180559 0.445485
v -1.967979 3.280559 0.439777
v -1.960622 3.180559 0.515833
v -1.987654 3.280559 0.504636
v -1.995275 3.180559 0.580665
v -2.019604 3.280559 0.564410
v -2.041912 3.180559 0.637491
v -2.062601 3.280559 0.616802
v -2.098738 3.180559 0.684128
v -2.114994 3.280559 0.659799
v -2.163570 3.180559 0.718781
v -2.174767 3.280559 0.691749
v -2.233918 3.180559 0.740121
v -2.239626 3.280559 0.711424
v -2.307076 3.180559 0.747326
v -2.307076 3.280560 0.718067
v -2.380235 3.180559 0.740121
v -2.374527 3.280560 0.711424
v -2.450583 3.180559 0.718781
v -2.439386 3.280559 0.691749
v -2.515415 3.180559 0.684128
v -2.499160 3.280559 0.659799
v -2.572242 3.180559 0.637491
v -2.551552 3.280559 0.616802
v -2.618878 3.180559 0.580665
v -2.594549 3.280559 0.564410
v -2.653532 3.180559 0.515833
v -2.626499 3.280559 0.504636
v -2.674871 3.180559 0.445485
v -2.646174 3.280559 0.439777
v -2.682076 3.180559 0.372326
v -2.652817 3.280559 0.372326
v -2.674871 3.180559 0.299168
v -2.646174 3.280559 0.304876
v -2.653532 3.180559 0.228820
v -2.626499 3.280559 0.240017
v -2.618878 3.180559 0.163988
v -2.594549 3.280559 0.180243
v -2.572242 3.180559 0.107161
v -2.551552 3.280559 0.127851
v -2.515415 3.180559 0.060525
v -2.499160 3.280559 0.084854
v -2.450583 3.180559 0.025872
v -2.439386 3.280559 0.052904
v -2.380235 3.180559 0.004532
v -2.374527 3.280559 0.033229
v -2.233918 3.280559 0.004532
v -2.307076 3.280559 -0.002674
v -2.163570 3.280559 0.025872
v -2.098738 3.280559 0.060525
v -2.041912 3.280559 0.107161
v -1.995275 3.280559 0.163988
v -1.960622 3.280559 0.228820
v -1.939282 3.280559 0.299168
v -1.932077 3.280559 0.372326
v -1.939282 3.280559 0.445485
v -1.960622 3.280559 0.515833
v -1.995275 3.280559 0.580665
v -2.041912 3.280559 0.637491
v -2.098738 3.280559 0.684128
v -2.163570 3.280559 0.718781
v -2.233918 3.280559 0.740121
v -2.307076 3.280560 0.747326
v -2.380235 3.280560 0.740121
v -2.450583 3.280559 0.718781
v -2.515415 3.280559 0.684128
v -2.572242 3.280559 0.637491
v -2.618878 3.280559 0.580665
v -2.653532 3.280559 0.515833
v -2.674871 3.280559 0.445485
v -2.682076 3.280559 0.372326
v -2.674871 3.280559 0.299168
v -2.653532 3.280559 0.228820
v -2.618878 3.280559 0.163988
v -2.572242 3.280559 0.107161
v -2.515415 3.280559 0.060525
v -2.450583 3.280559 0.025872
v -2.380235 3.280559 0.004532
v -2.245407 3.350000 0.062291
v -2.307076 3.350000 0.056217
v -2.186107 3.350000 0.080280
v -2.131456 3.350000 0.109491
v -2.083554 3.350000 0.148804
v -2.044241 3.350000 0.196706
v -2.015030 3.350000 0.251357
v -1.997042 3.350000 0.310657
v -1.990968 3.350000 0.372326
v -1.997042 3.350000 0.433996
v -2.015030 3.350000 0.493296
v -2.044241 3.350000 0.547947
v -2.083554 3.350000 0.595849
v -2.131456 3.350000 0.635161
v -2.186107 3.350000 0.664373
v -2.245407 3.350000 0.682361
v -2.307076 3.350000 0.688435
v -2.368746 3.350000 0.682361
v -2.428046 3.350000 0.664373
v -2.482697 3.350000 0.635161
v -2.530599 3.350000 0.595849
v -2.569911 3.350000 0.547947
v -2.599123 3.350000 0.493296
v -2.617112 3.350000 0.433996
v -2.623186 3.350000 0.372326
v -2.617112 3.350000 0.310657
v -2.599123 3.350000 0.251357
v -2.569911 3.350000 0.196706
v -2.530599 3.350000 0.148804
v -2.482697 3.350000 0.109491
v -2.428046 3.350000 0.080280
v -2.368746 3.350000 0.062291
v -2.239626 3.350000 0.033229
v -2.307076 3.350000 0.026586
v -2.174767 3.350000 0.052904
v -2.114994 3.350000 0.084854
v -2.062601 3.350000 0.127851
v -2.019604 3.350000 0.180243
v -1.987654 3.350000 0.240017
v -1.967979 3.350000 0.304876
v -1.961336 3.350000 0.372326
v -1.967979 3.350000 0.439777
v -1.987654 3.350000 0.504636
v -2.019604 3.350000 0.564410
v -2.062601 3.350000 0.616802
v -2.114994 3.350000 0.659799
v -2.174767 3.350000 0.691749
v -2.239626 3.350000 0.711424
v -2.307076 3.350000 0.718067
v -2.374527 3.350000 0.711424
v -2.439386 3.350000 0.691749
v -2.499160 3.350000 0.659799
v -2.551552 3.350000 0.616802
v -2.594549 3.350000 0.564410
v -2.626499 3.350000 0.504636
v -2.646174 3.350000 0.439777
v -2.652817 3.350000 0.372326
v -2.646174 3.350000 0.304876
v -2.626499 3.350000 0.240017
v -2.594549 3.350000 0.180243
v -2.551552 3.350000 0.127851
v -2.499160 3.350000 0.084854
v -2.439386 3.350000 0.052904
v -2.374527 3.350000 0.033229
v -2.245407 3.280560 0.062291
v -2.307076 3.280560 0.056217
v -2.186107 3.280560 0.080280
v -2.131456 3.280560 0.109491
v -2.083554 3.280560 0.148804
v -2.044241 3.280560 0.196706
v -2.015030 3.280560 0.251357
v -1.997042 3.280560 0.310657
v -1.990968 3.280560 0.372326
v -1.997042 3.280560 0.433996
v -2.015030 3.280560 0.493296
v -2.044241 3.280560 0.547947
v -2.083554 3.280560 0.595849
v -2.131456 3.280560 0.635161
v -2.186107 3.280560 0.664373
v -2.245407 3.280560 0.682361
v -2.307076 3.280560 0.688435
v -2.368746 3.280560 0.682361
v -2.428046 3.280560 0.664373
v -2.482697 3.280560 0.635161
v -2.530599 3.280560 0.595849
v -2.569911 3.280560 0.547947
v -2.599123 3.280560 0.493296
v -2.617112 3.280560 0.433996
v -2.623186 3.280560 0.372326
v -2.617112 3.280560 0.310657
v -2.599123 3.280560 0.251357
v -2.569911 3.280560 0.196706
v -2.530599 3.280560 0.148804
v -2.482697 3.280560 0.109491
v -2.428046 3.280560 0.080280
v -2.368746 3.280560 0.062291
v 2.307080 3.180559 -0.002674
v 2.307080 3.280559 0.026586
v 2.380239 3.180559 0.004532
v 2.374531 3.280559 0.033229
v 2.450586 3.180559 0.025872
v 2.439389 3.280559 0.052904
v 2.515419 3.180559 0.060525
v 2.499163 3.280559 0.084854
v 2.572245 3.180559 0.107161
v 2.551556 3.280559 0.127851
v 2.618881 3.180559 0.163988
v 2.594553 3.280559 0.180243
v 2.653535 3.180559 0.228820
v 2.626503 3.280559 0.240017
v 2.674875 3.180559 0.299168
v 2.646177 3.280559 0.304876
v 2.682080 3.180559 0.372326
v 2.652821 3.280559 0.372326
v 2.674875 3.180559 0.445485
v 2.646177 3.280559 0.439777
v 2.653535 3.180559 0.515833
v 2.626503 3.280559 0.504636
v 2.618881 3.180559 0.580665
v 2.594553 3.280559 0.564410
v 2.572245 3.180559 0.637491
v 2.551556 3.280559 0.616802
v 2.515419 3.180559 0.684128
v 2.499163 3.280559 0.659799
v 2.450586 3.180559 0.718781
v 2.439389 3.280559 0.691749
v 2.380239 3.180559 0.740121
v 2.374531 3.280559 0.711424
v 2.307080 3.180559 0.747326
v 2.307080 3.280560 0.718067
v 2.233921 3.180559 0.740121
v 2.239629 3.280560 0.711424
v 2.163574 3.180559 0.718781
v 2.174771 3.280559 0.691749
v 2.098741 3.180559 0.684128
v 2.114997 3.280559 0.659799
v 2.041915 3.180559 0.637491
v 2.062604 3.280559 0.616802
v 1.995279 3.180559 0.580665
v 2.019608 3.280559 0.564410
v 1.960625 3.180559 0.515833
v 1.987657 3.280559 0.504636
v 1.939286 3.180559 0.445485
v 1.967983 3.280559 0.439777
v 1.932080 3.180559 0.372326
v 1.961340 3.280559 0.372326
v 1.939286 3.180559 0.299168
v 1.967983 3.280559 0.304876
v 1.960625 3.180559 0.228820
v 1.987657 3.280559 0.240017
v 1.995279 3.180559 0.163988
v 2.019608 3.280559 0.180243
v 2.041915 3.180559 0.107161
v 2.062604 3.280559 0.127851
v 2.098741 3.180559 0.060525
v 2.114997 3.280559 0.084854
v 2.163574 3.180559 0.025872
v 2.174771 3.280559 0.052904
v 2.233921 3.180559 0.004532
v 2.239629 3.280559 0.033229
v 2.380239 3.280559 0.004532
v 2.307080 3.280559 -0.002674
v 2.450586 3.280559 0.025872
v 2.515419 3.280559 0.060525
v 2.572245 3.280559 0.107161
v 2.618881 3.280559 0.163988
v 2.653535 3.280559 0.228820
v 2.674875 3.280559 0.299168
v 2.682080 3.280559 0.372326
v 2.674875 3.280559 0.445485
v 2.653535 3.280559 0.515833
v 2.618881 3.280559 0.580665
v 2.572245 3.280559 0.637491
v 2.515419 3.280559 0.684128
v 2.450586 3.280559 0.718781
v 2.380239 3.280559 0.740121
v 2.307080 3.280560 0.747326
v 2.233921 3.280560 0.740121
v 2.163574 3.280559 0.718781
v 2.098741 3.280559 0.684128
v 2.041915 3.280559 0.637491
v 1.995279 3.280559 0.580665
v 1.960625 3.280559 0.515833
v 1.939286 3.280559 0.445485
v 1.932080 3.280559 0.372326
v 1.939286 3.280559 0.299168
v 1.960625 3.280559 0.228820
v 1.995279 3.280559 0.163988
v 2.041915 3.280559 0.107161
v 2.098741 3.280559 0.060525
v 2.163574 3.280559 0.025872
v 2.233921 3.280559 0.004532
v 2.368750 3.350000 0.062291
v 2.307080 3.350000 0.056217
v 2.428050 3.350000 0.080280
v 2.482701 3.350000 0.109491
v 2.530603 3.350000 0.148804
v 2.569915 3.350000 0.196706
v 2.599126 3.350000 0.251357
v 2.617115 3.350000 0.310657
v 2.623189 3.350000 0.372326
v 2.617115 3.350000 0.433996
v 2.599126 3.350000 0.493296
v 2.569915 3.350000 0.547947
v 2.530603 3.350000 0.595849
v 2.482701 3.350000 0.635161
v 2.428050 3.350000 0.664373
v 2.368750 3.350000 0.682361
v 2.307080 3.350000 0.688435
v 2.245410 3.350000 0.682361
v 2.186110 3.350000 0.664373
v 2.131459 3.350000 0.635161
v 2.083557 3.350000 0.595849
v 2.044245 3.350000 0.547947
v 2.015033 3.350000 0.493296
v 1.997045 3.350000 0.433996
v 1.990971 3.350000 0.372326
v 1.997045 3.350000 0.310657
v 2.015033 3.350000 0.251357
v 2.044245 3.350000 0.196706
v 2.083557 3.350000 0.148804
v 2.131459 3.350000 0.109491
v 2.186110 3.350000 0.080280
v 2.245410 3.350000 0.062291
v 2.374531 3.350000 0.033229
v 2.307080 3.350000 0.026586
v 2.439389 3.350000 0.052904
v 2.499163 3.350000 0.084854
v 2.551556 3.350000 0.127851
v 2.594553 3.350000 0.180243
v 2.626503 3.350000 0.240017
v 2.646177 3.350000 0.304876
v 2.652821 3.350000 0.372326
v 2.646177 3.350000 0.439777
v 2.626503 3.350000 0.504636
v 2.594553 3.350000 0.564410
v 2.551556 3.350000 0.616802
v 2.499163 3.350000 0.659799
v 2.439389 3.350000 0.691749
v 2.374531 3.350000 0.711424
v 2.307080 3.350000 0.718067
v 2.239629 3.350000 0.711424
v 2.174771 3.350000 0.691749
v 2.114997 3.350000 0.659799
v 2.062604 3.350000 0.616802
v 2.019608 3.350000 0.564410
v 1.987657 3.350000 0.504636
v 1.967983 3.350000 0.439777
v 1.961340 3.350000 0.372326
v 1.967983 3.350000 0.304876
v 1.987657 3.350000 0.240017
v 2.019608 3.350000 0.180243
v 2.062604 3.350000 0.127851
v 2.114997 3.350000 0.084854
v 2.174771 3.350000 0.052904
v 2.239629 3.350000 0.033229
v 2.368750 3.280560 0.062291
v 2.307080 3.280560 0.056217
v 2.428050 3.280560 0.080280
v 2.482701 3.280560 0.109491
v 2.530603 3.280560 0.148804
v 2.569915 3.280560 0.196706
v 2.599126 3.280560 0.251357
v 2.617115 3.280560 0.310657
v 2.623189 3.280560 0.372326
v 2.617115 3.280560 0.433996
v 2.599126 3.280560 0.493296
v 2.569915 3.280560 0.547947
v 2.530603 3.280560 0.595849
v 2.482701 3.280560 0.635161
v 2.428050 3.280560 0.664373
v 2.368750 3.280560 0.682361
v 2.307080 3.280560 0.688435
v 2.245410 3.280560 0.682361
v 2.186110 3.280560 0.664373
v 2.131459 3.280560 0.635161
v 2.083557 3.280560 0.595849
v 2.044245 3.280560 0.547947
v 2.015033 3.280560 0.493296
v 1.997045 3.280560 0.433996
v 1.990971 3.280560 0.372326
v 1.997045 3.280560 0.310657
v 2.015033 3.280560 0.251357
v 2.044245 3.280560 0.196706
v 2.083557 3.280560 0.148804
v 2.131459 3.280560 0.109491
v 2.186110 3.280560 0.080280
v 2.245410 3.280560 0.062291
vn -0.0000 0.5000 -0.8660
vn -0.0000 -0.5000 -0.8660
vn -0.0000 1.0000 -0.0000
vn -0.0000 0.5000 0.8660
vn -0.0000 -0.5000 0.8660
vn -0.0000 -1.0000 -0.0000
vn -1.0000 -0.0000 -0.0000
vn 1.0000 -0.0000 -0.0000
vn 0.1954 -0.0000 -0.9807
vn 0.1952 -0.0001 -0.9808
vn 0.1306 0.0001 -0.9914
vn 0.1298 -0.0000 -0.9915
vn -0.0000 0.0002 -1.0000
vn -0.0000 0.0001 -1.0000
vn -0.1298 -0.0000 -0.9915
vn -0.1306 0.0001 -0.9914
vn -0.1952 -0.0001 -0.9808
vn -0.1954 -0.0000 -0.9807
vn -0.0174 0.9998 -0.0000
vn -0.0120 0.9999 -0.0000
vn -0.0110 0.9999 -0.0000
vn 0.0120 0.9999 -0.0000
vn 0.0110 0.9999 -0.0000
vn 0.0174 0.9998 -0.0000
vn 0.9606 -0.0000 -0.2780
vn 0.9775 -0.0000 -0.2109
vn 0.9807 -0.0000 -0.1957
vn 0.9999 -0.0000 -0.0124
vn 0.9751 -0.0000 0.2220
vn 0.9749 -0.0000 0.2225
vn 0.9010 -0.0000 0.4338
vn 0.8960 -0.0000 0.4441
vn 0.7931 -0.0001 0.6091
vn 0.7860 -0.0040 0.6182
vn 0.9010 -0.0000 0.4339
vn 0.7756 -0.0000 -0.6312
vn 0.4943 -0.0000 -0.8693
vn 0.4188 -0.0000 -0.9081
vn 0.4169 -0.0000 -0.9089
vn 0.2675 -0.0000 -0.9635
vn 0.2665 -0.0000 -0.9638
vn 0.1303 -0.0000 -0.9915
vn -0.0000 -0.0000 -1.0000
vn -0.1303 -0.0000 -0.9915
vn -0.2665 -0.0000 -0.9638
vn -0.2675 -0.0000 -0.9635
vn -0.4169 -0.0000 -0.9089
vn -0.4188 -0.0000 -0.9081
vn -0.4943 -0.0000 -0.8693
vn 0.5615 0.8174 0.1286
vn 0.5589 0.8211 0.1159
vn 0.5589 0.8213 0.1145
vn 0.5709 0.8083 0.1439
vn 0.5691 0.8090 0.1471
vn 0.5567 0.8188 0.1401
vn 0.5424 0.8269 0.1485
vn 0.5376 0.8292 0.1528
vn 0.4320 -0.0053 0.9019
vn 0.4402 0.0123 0.8978
vn 0.2225 -0.0000 0.9749
vn 0.2326 -0.0000 0.9726
vn -0.2326 -0.0000 0.9726
vn -0.4402 0.0123 0.8978
vn -0.2225 -0.0000 0.9749
vn -0.4320 -0.0053 0.9019
vn -0.9606 -0.0000 -0.2780
vn -0.9775 -0.0000 -0.2109
vn -0.9807 -0.0000 -0.1957
vn -0.9999 -0.0000 -0.0124
vn -0.9751 -0.0000 0.2220
vn -0.9749 -0.0000 0.2225
vn -0.9010 -0.0000 0.4339
vn -0.8960 -0.0000 0.4441
vn -0.7931 -0.0001 0.6091
vn -0.7860 -0.0040 0.6182
vn -0.5099 -0.0083 0.8602
vn -0.5188 0.0286 0.8544
vn -0.7756 -0.0000 -0.6312
vn -0.5587 0.8212 0.1157
vn -0.5613 0.8175 0.1286
vn -0.5587 0.8214 0.1144
vn -0.5707 0.8084 0.1439
vn -0.5690 0.8091 0.1471
vn -0.5567 0.8188 0.1402
vn -0.5423 0.8269 0.1486
vn -0.5376 0.8292 0.1528
vn 0.0915 0.0306 0.9953
vn -0.0915 0.0306 0.9953
vn -0.0000 0.0040 1.0000
vn 0.0753 0.0486 0.9960
vn 0.0011 0.1658 0.9862
vn -0.0000 0.0003 1.0000
vn -0.0753 0.0486 0.9960
vn -0.0011 0.1658 0.9862
vn -0.0000 0.7518 0.6594
vn -0.0005 0.7464 0.6654
vn 0.0014 0.7484 0.6633
vn -0.0070 0.7490 0.6625
vn -0.0179 0.7548 0.6557
vn -0.0211 0.7565 0.6536
vn -0.0215 0.7571 0.6530
vn -0.0231 0.7568 0.6532
vn -0.0165 0.7598 0.6500
vn -0.0009 0.7599 0.6501
vn -0.0256 0.7551 0.6551
vn 0.0028 0.7442 0.6680
vn 0.0070 0.7490 0.6625
vn 0.0179 0.7548 0.6557
vn 0.0211 0.7565 0.6536
vn 0.0215 0.7571 0.6530
vn 0.0231 0.7568 0.6532
vn 0.0009 0.7599 0.6501
vn 0.0165 0.7598 0.6500
vn 0.0256 0.7551 0.6551
vn 0.4888 -0.8294 0.2706
vn 0.9636 -0.2558 0.0777
vn 0.9664 -0.2499 0.0597
vn 0.9625 -0.2579 0.0841
vn 0.9676 -0.2472 0.0516
vn -0.7104 -0.0005 0.7038
vn -0.7121 0.0016 0.7020
vn 0.0055 0.7380 0.6748
vn 0.0057 0.7428 0.6695
vn 0.0052 0.7424 0.6700
vn 0.0053 0.7542 0.6567
vn 0.0052 0.7380 0.6748
vn 0.0196 0.7413 0.6709
vn -0.0003 0.7466 0.6653
vn -0.0016 0.7523 0.6588
vn 0.0017 0.7423 0.6700
vn -0.0012 0.7445 0.6676
vn -0.0243 0.7582 0.6516
vn -0.0050 0.7487 0.6629
vn -0.7241 0.0108 0.6896
vn -0.6857 -0.0139 0.7277
vn -0.6098 0.0027 0.7926
vn -0.5485 0.0185 0.8360
vn -0.5389 -0.0083 0.8423
vn 0.5099 -0.0083 0.8602
vn 0.5188 0.0286 0.8544
vn 0.7104 -0.0005 0.7038
vn 0.7121 0.0016 0.7020
vn -0.0055 0.7380 0.6748
vn -0.0052 0.7424 0.6700
vn -0.0057 0.7428 0.6695
vn 0.0009 0.7439 0.6683
vn -0.0122 0.7402 0.6722
vn -0.0065 0.7367 0.6762
vn 0.0016 0.7523 0.6588
vn -0.0017 0.7423 0.6700
vn 0.0012 0.7445 0.6676
vn 0.0243 0.7582 0.6516
vn 0.0050 0.7487 0.6629
vn 0.7241 0.0108 0.6896
vn 0.6857 -0.0139 0.7277
vn 0.6098 0.0027 0.7926
vn 0.5485 0.0185 0.8360
vn 0.5389 -0.0083 0.8423
vn -0.0000 0.9971 0.0765
vn -0.0000 -0.0000 1.0000
vn 0.0980 -0.0000 -0.9952
vn 0.2903 -0.0000 -0.9569
vn 0.4714 -0.0000 -0.8819
vn 0.6344 -0.0000 -0.7730
vn 0.7730 -0.0000 -0.6344
vn 0.8819 -0.0000 -0.4714
vn 0.9569 -0.0000 -0.2903
vn 0.9952 -0.0000 -0.0980
vn 0.9952 -0.0000 0.0980
vn 0.9569 -0.0000 0.2903
vn 0.8819 -0.0000 0.4714
vn 0.7730 -0.0000 0.6344
vn 0.6344 -0.0000 0.7730
vn 0.4714 -0.0000 0.8819
vn 0.2903 -0.0000 0.9569
vn 0.0980 -0.0000 0.9952
vn -0.0980 -0.0000 0.9952
vn -0.2903 -0.0000 0.9569
vn -0.4714 -0.0000 0.8819
vn -0.6344 -0.0000 0.7730
vn -0.7730 -0.0000 0.6344
vn -0.8819 -0.0000 0.4714
vn -0.9569 -0.0000 0.2903
vn -0.9952 -0.0000 0.0980
vn -0.9952 -0.0000 -0.0980
vn -0.9569 -0.0000 -0.2903
vn -0.8819 -0.0000 -0.4714
vn -0.7730 -0.0000 -0.6344
vn -0.6344 -0.0000 -0.7730
vn -0.4714 -0.0000 -0.8819
vn -0.2903 -0.0000 -0.9569
vn -0.0980 -0.0000 -0.9952
vt 0.566478 0.484673
vt 0.427847 0.484673
vt 0.566478 0.481627
vt 0.427847 0.481627
vt 0.566478 0.478581
vt 0.427847 0.478581
vt 0.566478 0.510753
vt 0.427847 0.510753
vt 0.566478 0.507236
vt 0.427847 0.507236
vt 0.512511 0.481627
vt 0.510753 0.484673
vt 0.510753 0.478581
vt 0.505477 0.481627
vt 0.507236 0.478581
vt 0.507236 0.484673
vt 0.512511 0.481627
vt 0.505477 0.481627
vt 0.477024 0.499532
vt 0.477024 0.469018
vt 0.484246 0.499407
vt 0.484302 0.469018
vt 0.497162 0.499334
vt 0.497162 0.469018
vt 0.510023 0.469018
vt 0.510079 0.499407
vt 0.517301 0.469018
vt 0.517301 0.499532
vt 0.477024 0.418548
vt 0.477024 0.414298
vt 0.484246 0.417110
vt 0.484246 0.412860
vt 0.497162 0.416278
vt 0.497162 0.412028
vt 0.510079 0.417110
vt 0.510079 0.412860
vt 0.517301 0.418548
vt 0.517301 0.414298
vt 0.418548 0.469018
vt 0.414298 0.469018
vt 0.418548 0.499532
vt 0.414298 0.499532
vt 0.484302 0.412850
vt 0.484302 0.417100
vt 0.497162 0.412026
vt 0.497162 0.416277
vt 0.510023 0.412850
vt 0.510023 0.417100
vt 0.433769 0.463984
vt 0.433769 0.505982
vt 0.450844 0.463984
vt 0.447860 0.507214
vt 0.486355 0.492898
vt 0.486355 0.463984
vt 0.501269 0.489060
vt 0.501269 0.463984
vt 0.516183 0.487401
vt 0.516183 0.463984
vt 0.530349 0.463984
vt 0.530349 0.488811
vt 0.543057 0.492453
vt 0.543057 0.463984
vt 0.427698 0.463984
vt 0.427698 0.505450
vt 0.451978 0.505450
vt 0.451978 0.463984
vt 0.461129 0.504995
vt 0.461129 0.463984
vt 0.472087 0.504653
vt 0.472087 0.463984
vt 0.484302 0.504440
vt 0.484302 0.463984
vt 0.497162 0.504368
vt 0.497162 0.463984
vt 0.510023 0.463984
vt 0.510023 0.504440
vt 0.522238 0.463984
vt 0.522238 0.504653
vt 0.533196 0.463984
vt 0.533196 0.504995
vt 0.542347 0.463984
vt 0.542347 0.505450
vt 0.456440 0.532312
vt 0.444761 0.543057
vt 0.436776 0.530349
vt 0.431819 0.516183
vt 0.430139 0.501269
vt 0.431819 0.486355
vt 0.448073 0.460062
vt 0.442959 0.447860
vt 0.468082 0.463984
vt 0.468082 0.475716
vt 0.482248 0.463984
vt 0.482248 0.471792
vt 0.512077 0.471792
vt 0.526243 0.475716
vt 0.512077 0.463984
vt 0.526243 0.463984
vt 0.528729 0.471493
vt 0.527498 0.476434
vt 0.549564 0.543057
vt 0.537874 0.532312
vt 0.557549 0.530349
vt 0.562506 0.516183
vt 0.564186 0.501269
vt 0.562506 0.486355
vt 0.546252 0.460062
vt 0.551366 0.447860
vt 0.487944 0.471493
vt 0.506381 0.471493
vt 0.492551 0.468742
vt 0.489175 0.471493
vt 0.497162 0.467502
vt 0.501774 0.468742
vt 0.505150 0.471493
vt 0.497162 0.535857
vt 0.497162 0.532312
vt 0.501774 0.537621
vt 0.526243 0.561655
vt 0.505149 0.543084
vt 0.506385 0.550501
vt 0.506381 0.558576
vt 0.506381 0.561881
vt 0.506381 0.567254
vt 0.505150 0.567255
vt 0.512077 0.566612
vt 0.492551 0.537621
vt 0.468082 0.561655
vt 0.489175 0.543084
vt 0.487940 0.550501
vt 0.487944 0.558576
vt 0.487944 0.561881
vt 0.489175 0.567255
vt 0.487944 0.567254
vt 0.482248 0.566612
vt 0.528729 0.560286
vt 0.528729 0.562186
vt 0.532105 0.557952
vt 0.560286 0.471493
vt 0.562186 0.476709
vt 0.562186 0.472113
vt 0.560869 0.476434
vt 0.546713 0.489083
vt 0.546708 0.476094
vt 0.545939 0.546713
vt 0.544703 0.543129
vt 0.541328 0.537690
vt 0.536716 0.535726
vt 0.532105 0.537640
vt 0.528729 0.542996
vt 0.527494 0.550118
vt 0.527498 0.557922
vt 0.527498 0.560869
vt 0.548043 0.471493
vt 0.551672 0.468742
vt 0.553670 0.463984
vt 0.541328 0.468742
vt 0.538951 0.463984
vt 0.536716 0.467502
vt 0.532105 0.468742
vt 0.465596 0.471493
vt 0.466827 0.476434
vt 0.448386 0.546713
vt 0.449621 0.543129
vt 0.452997 0.537690
vt 0.457608 0.535726
vt 0.462220 0.537640
vt 0.465595 0.542996
vt 0.466831 0.550118
vt 0.466827 0.557922
vt 0.466827 0.560869
vt 0.452997 0.468742
vt 0.457608 0.467502
vt 0.455374 0.463984
vt 0.462220 0.468742
vt 0.517513 0.507772
vt 0.476812 0.507772
vt 0.517513 0.504620
vt 0.476812 0.504620
vt 0.476812 0.514429
vt 0.436898 0.508987
vt 0.424243 0.514429
vt 0.436898 0.514429
vt 0.517513 0.454217
vt 0.476812 0.454217
vt 0.517513 0.436898
vt 0.476812 0.436898
vt 0.424243 0.507772
vt 0.454217 0.507657
vt 0.424243 0.504620
vt 0.441996 0.514199
vt 0.427349 0.514199
vt 0.441996 0.506632
vt 0.427348 0.506632
vt 0.513998 0.441996
vt 0.507863 0.441996
vt 0.513998 0.427349
vt 0.507863 0.427349
vt 0.427348 0.506632
vt 0.427349 0.514199
vt 0.441996 0.506632
vt 0.441996 0.514199
vt 0.512807 0.513013
vt 0.513998 0.514199
vt 0.512807 0.509399
vt 0.509054 0.513013
vt 0.513998 0.506632
vt 0.507863 0.514199
vt 0.507863 0.506632
vt 0.509054 0.509399
vt 0.517513 0.436898
vt 0.476812 0.436898
vt 0.517513 0.424243
vt 0.476812 0.424243
vt 0.476812 0.508987
vt 0.517513 0.514429
vt 0.517513 0.508987
vt 0.486462 0.427349
vt 0.486462 0.441996
vt 0.480327 0.427349
vt 0.480327 0.441996
vt 0.481518 0.513013
vt 0.481518 0.509399
vt 0.480327 0.514199
vt 0.485271 0.513013
vt 0.480327 0.506632
vt 0.486462 0.514199
vt 0.486462 0.506632
vt 0.485271 0.509399
vt 0.496495 0.427349
vt 0.496495 0.441996
vt 0.490360 0.427349
vt 0.490360 0.441996
vt 0.491551 0.513013
vt 0.491551 0.509399
vt 0.490360 0.514199
vt 0.495304 0.513013
vt 0.490360 0.506632
vt 0.496495 0.514199
vt 0.496495 0.506632
vt 0.495304 0.509399
vt 0.509636 0.505020
vt 0.508456 0.503407
vt 0.509636 0.503407
vt 0.508456 0.505020
vt 0.507321 0.503407
vt 0.507321 0.505020
vt 0.506275 0.503407
vt 0.506275 0.505020
vt 0.505359 0.503407
vt 0.502997 0.505020
vt 0.503914 0.503407
vt 0.502997 0.503407
vt 0.503914 0.505020
vt 0.504960 0.503407
vt 0.504960 0.505020
vt 0.506094 0.503407
vt 0.506094 0.505020
vt 0.507274 0.503407
vt 0.507274 0.505020
vt 0.508454 0.503407
vt 0.508454 0.505020
vt 0.509589 0.503407
vt 0.509589 0.505020
vt 0.510634 0.503407
vt 0.510634 0.505020
vt 0.511551 0.503407
vt 0.505359 0.505020
vt 0.510816 0.503407
vt 0.511950 0.505020
vt 0.511950 0.503407
vt 0.512996 0.503407
vt 0.512996 0.505020
vt 0.513912 0.503407
vt 0.511551 0.505020
vt 0.513912 0.505020
vt 0.510372 0.505020
vt 0.511217 0.506140
vt 0.511217 0.505020
vt 0.510816 0.505020
vt 0.508456 0.513206
vt 0.515568 0.508454
vt 0.510816 0.501342
vt 0.509636 0.501698
vt 0.508456 0.501342
vt 0.509636 0.501226
vt 0.508548 0.501805
vt 0.507321 0.501686
vt 0.507502 0.502122
vt 0.506275 0.502245
vt 0.506537 0.502638
vt 0.505359 0.502997
vt 0.505692 0.503331
vt 0.504607 0.503914
vt 0.504484 0.505140
vt 0.504999 0.504176
vt 0.504166 0.506186
vt 0.504048 0.504960
vt 0.503587 0.507274
vt 0.503703 0.506094
vt 0.504166 0.508362
vt 0.504059 0.507274
vt 0.504048 0.509589
vt 0.503703 0.508454
vt 0.504484 0.509408
vt 0.504607 0.510634
vt 0.504999 0.510372
vt 0.505359 0.511551
vt 0.506537 0.511911
vt 0.505692 0.511217
vt 0.507502 0.512426
vt 0.506275 0.512303
vt 0.508548 0.512744
vt 0.507321 0.512862
vt 0.509636 0.513323
vt 0.510723 0.512744
vt 0.509636 0.512851
vt 0.511770 0.512426
vt 0.510816 0.513206
vt 0.512734 0.511911
vt 0.511950 0.512862
vt 0.513579 0.511217
vt 0.512996 0.512303
vt 0.514272 0.510372
vt 0.513912 0.511551
vt 0.514788 0.509408
vt 0.514665 0.510634
vt 0.515105 0.508362
vt 0.515224 0.509589
vt 0.515212 0.507274
vt 0.515568 0.506094
vt 0.515684 0.507274
vt 0.515105 0.506186
vt 0.515224 0.504960
vt 0.514788 0.505140
vt 0.514665 0.503914
vt 0.514272 0.504176
vt 0.513912 0.502997
vt 0.512734 0.502638
vt 0.513579 0.503331
vt 0.511950 0.501686
vt 0.512996 0.502245
vt 0.511770 0.502122
vt 0.510723 0.501805
vt 0.507274 0.506140
vt 0.506280 0.505020
vt 0.506280 0.506140
vt 0.506186 0.505020
vt 0.505140 0.506140
vt 0.505140 0.505020
vt 0.505692 0.505020
vt 0.506537 0.506140
vt 0.506537 0.505020
vt 0.504176 0.506140
vt 0.504176 0.505020
vt 0.507502 0.506140
vt 0.507502 0.505020
vt 0.508548 0.506140
vt 0.508548 0.505020
vt 0.503331 0.506140
vt 0.503331 0.505020
vt 0.513579 0.505020
vt 0.512734 0.506140
vt 0.512734 0.505020
vt 0.509636 0.506140
vt 0.511770 0.506140
vt 0.511770 0.505020
vt 0.510723 0.506140
vt 0.510723 0.505020
vt 0.505692 0.506140
vt 0.513579 0.506140
vt 0.506186 0.506140
vt 0.510372 0.506140
vt 0.509408 0.506140
vt 0.509408 0.505020
vt 0.508362 0.506140
vt 0.508362 0.505020
vt 0.508641 0.502274
vt 0.509636 0.502176
vt 0.507684 0.502564
vt 0.506803 0.503035
vt 0.506030 0.503669
vt 0.505396 0.504442
vt 0.504925 0.505323
vt 0.504635 0.506280
vt 0.504635 0.508269
vt 0.504537 0.507274
vt 0.504925 0.509225
vt 0.505396 0.510107
vt 0.506030 0.510879
vt 0.506803 0.511513
vt 0.507684 0.511985
vt 0.508641 0.512275
vt 0.510630 0.512275
vt 0.509636 0.512373
vt 0.511587 0.511985
vt 0.512468 0.511513
vt 0.513241 0.510879
vt 0.513875 0.510107
vt 0.514346 0.509225
vt 0.514636 0.508269
vt 0.514636 0.506280
vt 0.514734 0.507274
vt 0.514346 0.505323
vt 0.513875 0.504442
vt 0.513241 0.503669
vt 0.512468 0.503035
vt 0.511587 0.502564
vt 0.510630 0.502274
vt 0.510107 0.506140
vt 0.510879 0.505020
vt 0.510879 0.506140
vt 0.505323 0.505020
vt 0.505323 0.506140
vt 0.506030 0.506140
vt 0.506803 0.505020
vt 0.506803 0.506140
vt 0.504442 0.505020
vt 0.504442 0.506140
vt 0.507684 0.505020
vt 0.507684 0.506140
vt 0.508641 0.505020
vt 0.508641 0.506140
vt 0.503669 0.505020
vt 0.503669 0.506140
vt 0.513241 0.506140
vt 0.512468 0.505020
vt 0.512468 0.506140
vt 0.511587 0.505020
vt 0.511587 0.506140
vt 0.510630 0.505020
vt 0.510630 0.506140
vt 0.506030 0.505020
vt 0.513241 0.505020
vt 0.510107 0.505020
vt 0.509225 0.505020
vt 0.509225 0.506140
vt 0.508269 0.505020
vt 0.508269 0.506140
vt 0.534373 0.505020
vt 0.533193 0.503407
vt 0.534373 0.503407
vt 0.533193 0.505020
vt 0.532059 0.503407
vt 0.532059 0.505020
vt 0.531013 0.503407
vt 0.531013 0.505020
vt 0.530097 0.503407
vt 0.530097 0.505020
vt 0.535553 0.503407
vt 0.536688 0.505020
vt 0.536688 0.503407
vt 0.537734 0.503407
vt 0.537734 0.505020
vt 0.538650 0.503407
vt 0.538650 0.505020
vt 0.535553 0.505020
vt 0.533193 0.513206
vt 0.540305 0.508454
vt 0.535553 0.501342
vt 0.534373 0.501698
vt 0.533193 0.501342
vt 0.534373 0.501226
vt 0.533285 0.501805
vt 0.532059 0.501686
vt 0.532239 0.502122
vt 0.531013 0.502245
vt 0.531275 0.502638
vt 0.530097 0.502997
vt 0.529737 0.504176
vt 0.530430 0.503331
vt 0.529221 0.505140
vt 0.529344 0.503914
vt 0.528904 0.506186
vt 0.528785 0.504960
vt 0.528325 0.507274
vt 0.528441 0.506094
vt 0.528904 0.508362
vt 0.528797 0.507274
vt 0.528785 0.509589
vt 0.528441 0.508454
vt 0.529221 0.509408
vt 0.529344 0.510634
vt 0.529737 0.510372
vt 0.530097 0.511551
vt 0.531275 0.511911
vt 0.530430 0.511217
vt 0.532239 0.512426
vt 0.531013 0.512303
vt 0.533285 0.512744
vt 0.532059 0.512862
vt 0.534373 0.513323
vt 0.535461 0.512744
vt 0.534373 0.512851
vt 0.536688 0.512862
vt 0.535553 0.513206
vt 0.536507 0.512426
vt 0.537734 0.512303
vt 0.537471 0.511911
vt 0.538650 0.511551
vt 0.539010 0.510372
vt 0.538316 0.511217
vt 0.539525 0.509408
vt 0.539402 0.510634
vt 0.539843 0.508362
vt 0.539961 0.509589
vt 0.540422 0.507274
vt 0.539843 0.506186
vt 0.539950 0.507274
vt 0.539961 0.504960
vt 0.540305 0.506094
vt 0.539525 0.505140
vt 0.539402 0.503914
vt 0.539010 0.504176
vt 0.538650 0.502997
vt 0.537471 0.502638
vt 0.538316 0.503331
vt 0.536507 0.502122
vt 0.537734 0.502245
vt 0.535461 0.501805
vt 0.536688 0.501686
vt 0.530430 0.505020
vt 0.531275 0.506140
vt 0.531275 0.505020
vt 0.532239 0.506140
vt 0.532239 0.505020
vt 0.533285 0.506140
vt 0.533285 0.505020
vt 0.538316 0.505020
vt 0.537471 0.506140
vt 0.537471 0.505020
vt 0.534373 0.506140
vt 0.536507 0.506140
vt 0.536507 0.505020
vt 0.535461 0.506140
vt 0.535461 0.505020
vt 0.530430 0.506140
vt 0.538316 0.506140
vt 0.533379 0.502274
vt 0.534373 0.502176
vt 0.532422 0.502564
vt 0.531541 0.503035
vt 0.530768 0.503669
vt 0.530134 0.504442
vt 0.529663 0.505323
vt 0.529373 0.506280
vt 0.529373 0.508269
vt 0.529275 0.507274
vt 0.529663 0.509225
vt 0.530134 0.510107
vt 0.530768 0.510879
vt 0.531541 0.511513
vt 0.532422 0.511985
vt 0.533379 0.512275
vt 0.535368 0.512275
vt 0.534373 0.512373
vt 0.536325 0.511985
vt 0.537206 0.511513
vt 0.537979 0.510879
vt 0.538613 0.510107
vt 0.539084 0.509225
vt 0.539374 0.508269
vt 0.539374 0.506280
vt 0.539472 0.507274
vt 0.539084 0.505323
vt 0.538613 0.504442
vt 0.537979 0.503669
vt 0.537206 0.503035
vt 0.536325 0.502564
vt 0.535368 0.502274
vt 0.530768 0.506140
vt 0.531541 0.505020
vt 0.531541 0.506140
vt 0.532422 0.505020
vt 0.532422 0.506140
vt 0.533379 0.505020
vt 0.533379 0.506140
vt 0.537979 0.506140
vt 0.537206 0.505020
vt 0.537206 0.506140
vt 0.536325 0.505020
vt 0.536325 0.506140
vt 0.535368 0.505020
vt 0.535368 0.506140
vt 0.530768 0.505020
vt 0.537979 0.505020
vt 0.459951 0.505020
vt 0.458771 0.503407
vt 0.459951 0.503407
vt 0.458771 0.505020
vt 0.457637 0.503407
vt 0.457637 0.505020
vt 0.456591 0.503407
vt 0.456591 0.505020
vt 0.455675 0.503407
vt 0.455675 0.505020
vt 0.461131 0.503407
vt 0.462266 0.505020
vt 0.462266 0.503407
vt 0.463312 0.503407
vt 0.463312 0.505020
vt 0.464228 0.503407
vt 0.464228 0.505020
vt 0.461131 0.505020
vt 0.458771 0.513206
vt 0.465884 0.508454
vt 0.461131 0.501342
vt 0.459951 0.501698
vt 0.458771 0.501342
vt 0.459951 0.501226
vt 0.458864 0.501805
vt 0.457637 0.501686
vt 0.456853 0.502638
vt 0.457817 0.502122
vt 0.455675 0.502997
vt 0.456591 0.502245
vt 0.456008 0.503331
vt 0.454922 0.503914
vt 0.454800 0.505140
vt 0.455315 0.504176
vt 0.454482 0.506186
vt 0.454363 0.504960
vt 0.454375 0.507274
vt 0.454019 0.506094
vt 0.454019 0.508454
vt 0.453903 0.507274
vt 0.454482 0.508362
vt 0.454363 0.509589
vt 0.454800 0.509408
vt 0.454922 0.510634
vt 0.455315 0.510372
vt 0.455675 0.511551
vt 0.456853 0.511911
vt 0.456008 0.511217
vt 0.457637 0.512862
vt 0.456591 0.512303
vt 0.458864 0.512744
vt 0.457817 0.512426
vt 0.459951 0.513323
vt 0.461039 0.512744
vt 0.459951 0.512851
vt 0.462266 0.512862
vt 0.461131 0.513206
vt 0.463050 0.511911
vt 0.462085 0.512426
vt 0.464228 0.511551
vt 0.463312 0.512303
vt 0.464588 0.510372
vt 0.463895 0.511217
vt 0.465103 0.509408
vt 0.464981 0.510634
vt 0.465539 0.509589
vt 0.465528 0.507274
vt 0.465421 0.508362
vt 0.465884 0.506094
vt 0.466000 0.507274
vt 0.465103 0.505140
vt 0.465421 0.506186
vt 0.464981 0.503914
vt 0.465539 0.504960
vt 0.463895 0.503331
vt 0.464588 0.504176
vt 0.463050 0.502638
vt 0.464228 0.502997
vt 0.462266 0.501686
vt 0.463312 0.502245
vt 0.461039 0.501805
vt 0.462085 0.502122
vt 0.456008 0.505020
vt 0.456853 0.506140
vt 0.456853 0.505020
vt 0.457817 0.506140
vt 0.457817 0.505020
vt 0.458864 0.506140
vt 0.458864 0.505020
vt 0.463895 0.505020
vt 0.463050 0.506140
vt 0.463050 0.505020
vt 0.459951 0.506140
vt 0.462085 0.506140
vt 0.462085 0.505020
vt 0.461039 0.506140
vt 0.461039 0.505020
vt 0.456008 0.506140
vt 0.463895 0.506140
vt 0.458957 0.502274
vt 0.459951 0.502176
vt 0.458000 0.502564
vt 0.456346 0.503669
vt 0.457119 0.503035
vt 0.455712 0.504442
vt 0.455241 0.505323
vt 0.454853 0.507274
vt 0.454951 0.506280
vt 0.455241 0.509225
vt 0.454951 0.508269
vt 0.455712 0.510107
vt 0.456346 0.510879
vt 0.457119 0.511513
vt 0.458000 0.511985
vt 0.458957 0.512275
vt 0.460946 0.512275
vt 0.459951 0.512373
vt 0.461903 0.511985
vt 0.462784 0.511513
vt 0.463557 0.510879
vt 0.464191 0.510107
vt 0.464662 0.509225
vt 0.464952 0.508269
vt 0.464952 0.506280
vt 0.465050 0.507274
vt 0.464662 0.505323
vt 0.464191 0.504442
vt 0.463557 0.503669
vt 0.461903 0.502564
vt 0.462784 0.503035
vt 0.460946 0.502274
vt 0.456346 0.506140
vt 0.457119 0.505020
vt 0.457119 0.506140
vt 0.458000 0.505020
vt 0.458000 0.506140
vt 0.458957 0.505020
vt 0.458957 0.506140
vt 0.463557 0.506140
vt 0.462784 0.505020
vt 0.462784 0.506140
vt 0.461903 0.505020
vt 0.461903 0.506140
vt 0.460946 0.505020
vt 0.460946 0.506140
vt 0.456346 0.505020
vt 0.463557 0.505020
s 1
g vir_gun_305_x2_001_0_steel_4
usemtl steel_4
f 3/1/1 2/2/1 1/3/1
f 4/4/1 1/3/1 2/2/1
f 1/3/2 4/4/2 5/5/2
f 6/6/2 5/5/2 4/4/2
f 9/7/3 8/8/3 7/9/3
f 10/10/3 7/9/3 8/8/3
f 13/2/4 12/1/4 11/4/4
f 14/3/4 11/4/4 12/1/4
f 11/4/5 14/3/5 15/6/5
f 16/5/5 15/6/5 14/3/5
f 19/9/6 18/10/6 17/7/6
f 20/8/6 17/7/6 18/10/6
f 23/11/7 22/12/7 21/13/7
f 22/12/7 24/14/7 21/13/7
f 21/13/7 24/14/7 25/15/7
f 26/16/7 24/14/7 22/12/7
f 29/12/8 28/17/8 27/16/8
f 28/17/8 30/15/8 27/16/8
f 27/16/8 30/15/8 31/18/8
f 32/13/8 30/15/8 28/17/8
f 35/19/9 34/20/10 33/21/11
f 36/22/12 33/21/11 34/20/10
f 33/21/11 36/22/12 37/23/13
f 38/24/14 37/23/13 36/22/12
f 38/24/14 39/25/15 37/23/13
f 40/26/16 37/23/13 39/25/15
f 39/25/15 41/27/17 40/26/16
f 42/28/18 40/26/16 41/27/17
f 45/29/19 44/30/19 43/31/20
f 46/32/21 43/31/20 44/30/19
f 43/31/20 46/32/21 47/33/3
f 48/34/3 47/33/3 46/32/21
f 47/33/3 48/34/3 49/35/22
f 50/36/23 49/35/22 48/34/3
f 49/35/22 50/36/23 51/37/24
f 52/38/24 51/37/24 50/36/23
f 55/39/8 54/40/8 53/41/8
f 56/42/8 53/41/8 54/40/8
f 59/30/6 58/29/6 57/43/6
f 60/44/6 57/43/6 58/29/6
f 57/43/6 60/44/6 61/45/6
f 62/46/6 61/45/6 60/44/6
f 61/45/6 62/46/6 63/47/6
f 64/48/6 63/47/6 62/46/6
f 63/47/6 64/48/6 65/38/6
f 66/37/6 65/38/6 64/48/6
f 69/41/7 68/42/7 67/39/7
f 70/40/7 67/39/7 68/42/7
f 73/49/25 72/50/25 71/51/25
f 74/52/25 71/51/25 72/50/25
f 74/52/25 75/53/26 71/51/25
f 76/54/27 71/51/25 75/53/26
f 75/53/26 77/55/28 76/54/27
f 78/56/8 76/54/27 77/55/28
f 77/55/28 79/57/29 78/56/8
f 80/58/30 78/56/8 79/57/29
f 80/58/30 79/57/29 81/59/31
f 82/60/32 81/59/31 79/57/29
f 82/60/32 83/61/33 81/59/31
f 84/62/34 81/59/35 83/61/33
f 87/63/36 86/64/36 85/49/36
f 88/50/36 85/49/36 86/64/36
f 91/65/37 90/66/37 89/67/38
f 92/68/39 89/67/38 90/66/37
f 89/67/38 92/68/39 93/69/40
f 94/70/41 93/69/40 92/68/39
f 93/69/40 94/70/41 95/71/42
f 96/72/12 95/71/42 94/70/41
f 95/71/42 96/72/12 97/73/43
f 98/74/43 97/73/43 96/72/12
f 98/74/43 99/75/15 97/73/43
f 100/76/44 97/73/43 99/75/15
f 99/75/15 101/77/45 100/76/44
f 102/78/46 100/76/44 101/77/45
f 101/77/45 103/79/47 102/78/46
f 104/80/48 102/78/46 103/79/47
f 103/79/47 105/81/49 104/80/48
f 106/82/49 104/80/48 105/81/49
f 108/83/50 83/84/51 107/85/52
f 108/83/50 107/85/52 109/86/53
f 108/83/50 109/86/53 110/87/54
f 111/88/55 108/83/50 110/87/54
f 108/83/50 111/88/55 112/89/56
f 113/90/57 112/89/56 111/88/55
f 116/91/58 114/92/59 117/93/60
f 118/94/61 117/93/60 114/92/59
f 122/95/62 124/96/63 121/97/64
f 125/98/65 121/97/64 124/96/63
f 134/49/66 133/51/66 132/50/66
f 135/52/66 132/50/66 133/51/66
f 135/52/66 133/51/66 136/53/67
f 137/54/68 136/53/67 133/51/66
f 136/53/67 137/54/68 138/55/69
f 139/56/7 138/55/69 137/54/68
f 138/55/69 139/56/7 140/57/70
f 141/58/71 140/57/70 139/56/7
f 141/58/71 142/59/72 140/57/70
f 143/60/73 140/57/70 142/59/72
f 143/60/73 142/59/72 130/61/74
f 145/62/75 130/61/74 142/59/72
f 125/98/65 124/96/63 169/99/76
f 169/99/76 124/96/63 170/100/77
f 150/50/78 149/64/78 148/49/78
f 151/63/78 148/49/78 149/64/78
f 130/101/79 153/102/80 152/103/81
f 152/103/81 153/102/80 155/104/82
f 155/104/82 153/102/80 156/105/83
f 153/102/80 157/106/84 156/105/83
f 153/102/80 158/107/85 157/106/84
f 159/108/86 157/106/84 158/107/85
f 119/109/87 117/93/60 118/94/61
f 123/110/88 121/97/64 120/74/89
f 128/111/90 119/109/87 115/112/91
f 160/113/92 120/74/89 128/111/90
f 120/74/89 119/109/87 128/111/90
f 154/114/93 120/74/89 160/113/92
f 120/74/89 154/114/93 123/110/88
f 123/110/88 154/114/93 144/115/94
f 162/116/95 129/117/96 164/118/97
f 129/117/96 124/119/98 164/118/97
f 164/118/97 124/119/98 165/120/99
f 165/120/99 124/119/98 166/121/100
f 166/121/100 124/119/98 131/122/101
f 131/122/101 124/119/98 146/123/102
f 146/123/102 123/124/103 144/125/104
f 123/124/103 146/123/102 122/126/105
f 124/119/98 122/126/105 146/123/102
f 162/116/95 163/127/106 129/117/96
f 129/117/96 163/127/106 114/128/107
f 163/127/106 167/129/108 114/128/107
f 167/129/108 168/130/109 114/128/107
f 168/130/109 161/131/110 114/128/107
f 161/131/110 127/132/111 114/128/107
f 127/132/111 115/133/112 119/134/113
f 119/134/113 118/135/114 127/132/111
f 114/128/107 127/132/111 118/135/114
f 169/136/115 178/137/115 171/138/115
f 169/139/116 177/140/117 178/141/118
f 170/142/119 177/140/117 169/139/116
f 183/143/120 130/61/74 172/144/121
f 145/62/75 172/144/121 130/61/74
f 183/145/122 182/146/123 130/101/124
f 182/146/123 181/147/125 130/101/124
f 130/101/124 181/147/125 153/102/126
f 181/147/125 179/148/127 153/102/126
f 153/102/126 179/148/127 129/117/128
f 179/148/127 180/149/129 129/117/128
f 184/150/130 129/117/128 180/149/129
f 185/151/131 129/117/128 184/150/130
f 176/152/132 129/117/128 185/151/131
f 176/152/132 170/153/133 129/117/128
f 129/117/96 170/153/133 124/119/98
f 145/62/75 173/154/134 172/144/121
f 173/154/134 145/62/75 174/155/135
f 145/62/75 147/156/136 174/155/135
f 174/157/135 147/158/136 175/159/137
f 147/158/136 125/98/65 175/159/137
f 175/159/137 125/98/65 171/160/138
f 125/98/65 169/99/76 171/160/138
f 116/91/58 187/161/139 114/92/59
f 187/161/139 188/162/140 114/92/59
f 199/143/141 190/144/142 83/61/33
f 84/62/34 83/61/33 190/144/142
f 199/163/143 83/84/144 194/164/145
f 194/164/145 83/84/144 196/165/146
f 83/84/144 108/83/147 196/165/146
f 196/165/146 108/83/147 198/166/148
f 108/83/147 129/117/96 198/166/148
f 198/166/148 129/117/96 197/167/149
f 200/168/150 197/167/149 129/117/96
f 201/169/151 200/168/150 129/117/96
f 195/170/152 201/169/151 129/117/96
f 195/170/152 129/117/96 188/171/153
f 129/117/96 114/128/107 188/171/153
f 84/62/34 190/144/142 191/154/154
f 191/154/154 192/155/155 84/62/34
f 84/62/34 192/155/155 186/156/156
f 192/172/155 193/173/157 186/174/156
f 186/174/156 193/173/157 116/91/58
f 193/173/157 189/175/158 116/91/58
f 116/91/58 189/175/158 187/161/139
f 204/176/43 203/177/43 202/178/43
f 205/179/43 202/178/43 203/177/43
f 206/176/43 247/180/43 209/177/43
f 220/181/8 252/182/8 253/183/8
f 212/184/159 211/185/159 210/186/159
f 213/187/159 210/186/159 211/185/159
f 216/181/7 215/188/7 214/189/7
f 217/190/7 214/189/7 215/188/7
f 220/181/8 219/189/8 218/188/8
f 221/190/8 218/188/8 219/189/8
f 224/191/7 223/192/7 222/193/7
f 225/194/7 222/193/7 223/192/7
f 228/195/3 227/196/3 226/197/3
f 229/198/3 226/197/3 227/196/3
f 232/199/8 231/200/8 230/201/8
f 233/202/8 230/201/8 231/200/8
f 236/203/160 235/204/160 234/205/160
f 236/203/160 237/206/160 235/204/160
f 238/207/160 234/205/160 235/204/160
f 239/208/160 235/204/160 237/206/160
f 238/207/160 240/209/160 234/205/160
f 237/206/160 241/210/160 239/208/160
f 241/210/160 234/205/160 240/209/160
f 240/209/160 239/208/160 241/210/160
f 246/211/3 245/212/3 244/213/3
f 247/214/3 244/213/3 245/212/3
f 216/181/7 250/182/7 215/188/7
f 208/181/7 244/182/7 206/188/7
f 213/215/160 248/216/160 210/217/160
f 204/176/43 242/180/43 203/177/43
f 207/181/8 247/182/8 245/183/8
f 207/215/160 246/216/160 208/217/160
f 256/194/8 255/192/8 254/193/8
f 257/191/8 254/193/8 255/192/8
f 260/218/3 259/219/3 258/220/3
f 261/221/3 258/220/3 259/219/3
f 264/202/7 263/200/7 262/201/7
f 265/199/7 262/201/7 263/200/7
f 268/222/160 267/223/160 266/224/160
f 268/222/160 266/224/160 269/225/160
f 270/226/160 266/224/160 267/223/160
f 271/227/160 269/225/160 266/224/160
f 270/226/160 267/223/160 272/228/160
f 269/225/160 271/227/160 273/229/160
f 272/228/160 273/229/160 271/227/160
f 273/229/160 272/228/160 267/223/160
f 276/194/8 275/192/8 274/193/8
f 277/191/8 274/193/8 275/192/8
f 280/230/3 279/231/3 278/232/3
f 281/233/3 278/232/3 279/231/3
f 284/202/7 283/200/7 282/201/7
f 285/199/7 282/201/7 283/200/7
f 288/234/160 287/235/160 286/236/160
f 288/234/160 286/236/160 289/237/160
f 290/238/160 286/236/160 287/235/160
f 291/239/160 289/237/160 286/236/160
f 290/238/160 287/235/160 292/240/160
f 289/237/160 291/239/160 293/241/160
f 292/240/160 293/241/160 291/239/160
f 293/241/160 292/240/160 287/235/160
f 359/242/161 296/243/161 294/244/161
f 358/245/162 298/246/162 296/243/162
f 360/247/163 300/248/163 298/246/163
f 361/249/164 302/250/164 300/248/164
f 362/251/165 304/252/165 302/253/165
f 363/254/166 306/255/166 304/252/166
f 364/256/167 308/257/167 306/255/167
f 365/258/168 310/259/168 308/257/168
f 366/260/169 312/261/169 310/259/169
f 367/262/170 314/263/170 312/261/170
f 368/264/171 316/265/171 314/263/171
f 369/266/172 318/267/172 316/265/172
f 370/268/173 320/248/173 318/250/173
f 371/249/174 322/246/174 320/248/174
f 372/247/175 324/243/175 322/246/175
f 373/245/176 326/244/176 324/243/176
f 374/242/177 328/269/177 326/244/177
f 328/269/178 376/270/178 330/271/178
f 376/270/179 332/272/179 330/271/179
f 377/273/180 334/274/180 332/272/180
f 378/275/181 336/265/181 334/267/181
f 379/266/182 338/263/182 336/265/182
f 380/264/183 340/261/183 338/263/183
f 381/262/184 342/259/184 340/261/184
f 382/260/185 344/257/185 342/259/185
f 383/258/186 346/255/186 344/257/186
f 384/256/187 348/252/187 346/255/187
f 385/254/188 350/253/188 348/252/188
f 386/276/189 352/272/189 350/274/189
f 387/273/190 354/271/190 352/272/190
f 317/277/172 434/278/172 319/279/172
f 388/270/191 356/269/191 354/271/191
f 389/280/192 294/244/192 356/269/192
f 324/281/6 340/282/6 356/283/6
f 295/284/3 358/285/3 359/286/3
f 297/287/3 360/288/3 358/285/3
f 299/289/3 361/290/3 360/288/3
f 301/291/3 362/292/3 361/290/3
f 303/293/3 363/294/3 362/292/3
f 307/295/3 363/294/3 305/296/3
f 309/297/3 364/298/3 307/295/3
f 309/297/3 366/299/3 365/300/3
f 313/301/3 366/299/3 311/302/3
f 313/301/3 368/303/3 367/304/3
f 315/305/3 369/306/3 368/303/3
f 317/307/3 370/308/3 369/306/3
f 321/309/3 370/308/3 319/310/3
f 323/311/3 371/312/3 321/309/3
f 325/313/3 372/314/3 323/311/3
f 325/313/3 374/315/3 373/281/3
f 329/316/3 374/315/3 327/317/3
f 331/318/3 375/319/3 329/316/3
f 333/320/3 376/321/3 331/318/3
f 335/322/3 377/323/3 333/320/3
f 337/324/3 378/325/3 335/322/3
f 339/326/3 379/327/3 337/324/3
f 341/328/3 380/329/3 339/326/3
f 343/330/3 381/282/3 341/328/3
f 343/330/3 383/331/3 382/332/3
f 345/333/3 384/334/3 383/331/3
f 347/335/3 385/336/3 384/334/3
f 349/337/3 386/338/3 385/336/3
f 353/339/3 386/338/3 351/340/3
f 353/339/3 388/341/3 387/342/3
f 355/343/3 389/283/3 388/341/3
f 357/344/3 359/286/3 389/283/3
f 414/345/169 479/346/169 415/347/169
f 345/348/186 448/349/186 347/350/186
f 319/351/173 435/352/173 321/353/173
f 347/350/187 449/354/187 349/355/187
f 321/353/174 436/356/174 323/357/174
f 295/242/161 422/358/161 297/359/161
f 349/355/188 450/360/188 351/361/188
f 323/357/175 437/358/175 325/359/175
f 297/359/162 424/356/162 299/357/162
f 351/362/189 451/363/189 353/364/189
f 327/242/176 437/358/176 438/365/176
f 299/357/163 425/352/163 301/353/163
f 353/364/190 452/366/190 355/367/190
f 327/242/177 439/368/177 329/369/177
f 301/353/164 426/370/164 303/351/164
f 355/367/191 453/368/191 357/369/191
f 329/369/178 440/366/178 331/367/178
f 303/361/165 427/354/165 305/355/165
f 357/369/192 423/365/192 295/242/192
f 331/367/179 441/363/179 333/364/179
f 305/355/166 428/349/166 307/350/166
f 333/364/180 442/371/180 335/362/180
f 307/350/167 429/372/167 309/348/167
f 335/279/181 443/373/181 337/277/181
f 309/348/168 430/345/168 311/260/168
f 337/277/182 444/374/182 339/375/182
f 311/260/169 431/376/169 313/377/169
f 339/375/183 445/376/183 341/377/183
f 313/377/170 432/374/170 315/375/170
f 341/377/184 446/345/184 343/260/184
f 315/375/171 433/373/171 317/277/171
f 343/260/185 447/372/185 345/348/185
f 390/378/3 423/284/3 391/379/3
f 392/380/3 422/287/3 390/378/3
f 393/381/3 424/289/3 392/380/3
f 394/382/3 425/291/3 393/381/3
f 394/382/3 427/296/3 426/293/3
f 395/383/3 428/295/3 427/296/3
f 396/384/3 429/297/3 428/295/3
f 397/385/3 430/302/3 429/297/3
f 399/386/3 430/302/3 398/387/3
f 400/388/3 431/301/3 399/386/3
f 401/389/3 432/305/3 400/388/3
f 402/390/3 433/307/3 401/389/3
f 403/391/3 434/310/3 402/390/3
f 404/392/3 435/309/3 403/391/3
f 404/392/3 437/313/3 436/311/3
f 405/393/3 438/317/3 437/313/3
f 407/394/3 438/317/3 406/395/3
f 408/396/3 439/316/3 407/394/3
f 409/397/3 440/318/3 408/396/3
f 410/398/3 441/320/3 409/397/3
f 410/398/3 443/324/3 442/322/3
f 411/399/3 444/326/3 443/324/3
f 412/400/3 445/328/3 444/326/3
f 413/401/3 446/330/3 445/328/3
f 415/402/3 446/330/3 414/403/3
f 416/404/3 447/333/3 415/402/3
f 417/405/3 448/335/3 416/404/3
f 418/406/3 449/337/3 417/405/3
f 418/406/3 451/339/3 450/340/3
f 419/407/3 452/343/3 451/339/3
f 420/408/3 453/344/3 452/343/3
f 421/409/3 423/284/3 453/344/3
f 472/396/3 464/388/3 456/380/3
f 401/410/188 466/411/188 402/412/188
f 415/347/170 480/413/170 416/414/170
f 402/415/189 467/416/189 403/417/189
f 416/414/171 481/418/171 417/419/171
f 403/417/190 468/420/190 404/421/190
f 391/365/177 454/422/177 390/423/177
f 417/419/172 482/424/172 418/425/172
f 404/421/191 469/422/191 405/423/191
f 390/423/178 456/420/178 392/421/178
f 418/426/173 483/427/173 419/428/173
f 405/423/192 470/242/192 406/365/192
f 392/421/179 457/416/179 393/417/179
f 419/428/174 484/429/174 420/430/174
f 406/365/161 471/431/161 407/432/161
f 393/417/180 458/433/180 394/415/180
f 420/430/175 485/431/175 421/432/175
f 407/432/162 472/429/162 408/430/162
f 394/425/181 459/418/181 395/419/181
f 421/432/176 455/242/176 391/365/176
f 408/430/163 473/427/163 409/428/163
f 395/419/182 460/413/182 396/414/182
f 409/428/164 474/434/164 410/426/164
f 396/414/183 461/346/183 397/347/183
f 410/412/165 475/435/165 411/410/165
f 397/347/184 462/260/184 398/345/184
f 411/410/166 476/436/166 412/437/166
f 398/345/185 463/438/185 399/439/185
f 412/437/167 477/438/167 413/439/167
f 399/439/186 464/436/186 400/437/186
f 413/439/168 478/260/168 414/345/168
f 400/437/187 465/435/187 401/410/187
f 551/440/161 488/441/161 486/442/161
f 550/443/162 490/444/162 488/441/162
f 552/445/163 492/446/163 490/444/163
f 553/447/164 494/448/164 492/446/164
f 554/251/165 496/252/165 494/253/165
f 555/254/166 498/255/166 496/252/166
f 556/256/167 500/257/167 498/255/167
f 557/258/168 502/259/168 500/257/168
f 558/260/169 504/261/169 502/259/169
f 559/262/170 506/263/170 504/261/170
f 560/264/171 508/265/171 506/263/171
f 561/266/172 510/267/172 508/265/172
f 562/449/173 512/446/173 510/448/173
f 563/447/174 514/444/174 512/446/174
f 564/445/175 516/441/175 514/444/175
f 565/443/176 518/442/176 516/441/176
f 566/440/177 520/450/177 518/442/177
f 520/450/178 568/451/178 522/452/178
f 568/451/179 524/453/179 522/452/179
f 569/454/180 526/455/180 524/453/180
f 570/275/181 528/265/181 526/267/181
f 571/266/182 530/263/182 528/265/182
f 572/264/183 532/261/183 530/263/183
f 573/262/184 534/259/184 532/261/184
f 574/260/185 536/257/185 534/259/185
f 575/258/186 538/255/186 536/257/186
f 576/256/187 540/252/187 538/255/187
f 577/254/188 542/253/188 540/252/188
f 578/456/189 544/453/189 542/455/189
f 579/454/190 546/452/190 544/453/190
f 509/277/172 626/278/172 511/279/172
f 580/451/191 548/450/191 546/452/191
f 581/457/192 486/442/192 548/450/192
f 516/458/6 532/459/6 548/460/6
f 487/461/3 550/462/3 551/463/3
f 489/464/3 552/465/3 550/462/3
f 491/466/3 553/467/3 552/465/3
f 493/468/3 554/469/3 553/467/3
f 497/470/3 554/469/3 495/471/3
f 499/472/3 555/473/3 497/470/3
f 501/474/3 556/475/3 499/472/3
f 501/474/3 558/476/3 557/477/3
f 505/478/3 558/476/3 503/479/3
f 505/478/3 560/480/3 559/481/3
f 507/482/3 561/483/3 560/480/3
f 509/484/3 562/485/3 561/483/3
f 513/486/3 562/485/3 511/487/3
f 515/488/3 563/489/3 513/486/3
f 517/490/3 564/491/3 515/488/3
f 517/490/3 566/492/3 565/458/3
f 521/493/3 566/492/3 519/494/3
f 521/493/3 568/495/3 567/496/3
f 523/497/3 569/498/3 568/495/3
f 525/499/3 570/500/3 569/498/3
f 529/501/3 570/500/3 527/502/3
f 531/503/3 571/504/3 529/501/3
f 533/505/3 572/506/3 531/503/3
f 533/505/3 574/507/3 573/459/3
f 537/508/3 574/507/3 535/509/3
f 537/508/3 576/510/3 575/511/3
f 539/512/3 577/513/3 576/510/3
f 541/514/3 578/515/3 577/513/3
f 545/516/3 578/515/3 543/517/3
f 547/518/3 579/519/3 545/516/3
f 549/520/3 580/521/3 547/518/3
f 487/461/3 581/460/3 549/520/3
f 606/345/169 671/346/169 607/347/169
f 537/348/186 640/349/186 539/350/186
f 511/522/173 627/523/173 513/524/173
f 539/350/187 641/354/187 541/355/187
f 513/524/174 628/525/174 515/526/174
f 487/440/161 614/527/161 489/528/161
f 541/355/188 642/360/188 543/361/188
f 515/526/175 629/527/175 517/528/175
f 489/528/162 616/525/162 491/526/162
f 543/529/189 643/530/189 545/531/189
f 519/440/176 629/527/176 630/532/176
f 491/526/163 617/523/163 493/524/163
f 545/531/190 644/533/190 547/534/190
f 519/440/177 631/535/177 521/536/177
f 493/524/164 618/537/164 495/522/164
f 547/534/191 645/535/191 549/536/191
f 521/536/178 632/533/178 523/534/178
f 495/361/165 619/354/165 497/355/165
f 549/536/192 615/532/192 487/440/192
f 523/534/179 633/530/179 525/531/179
f 497/355/166 620/349/166 499/350/166
f 525/531/180 634/538/180 527/529/180
f 499/350/167 621/372/167 501/348/167
f 527/279/181 635/373/181 529/277/181
f 501/348/168 622/345/168 503/260/168
f 529/277/182 636/374/182 531/375/182
f 503/260/169 623/376/169 505/377/169
f 531/375/183 637/376/183 533/377/183
f 505/377/170 624/374/170 507/375/170
f 533/377/184 638/345/184 535/260/184
f 507/375/171 625/373/171 509/277/171
f 535/260/185 639/372/185 537/348/185
f 582/539/3 615/461/3 583/540/3
f 584/541/3 614/464/3 582/539/3
f 585/542/3 616/466/3 584/541/3
f 585/542/3 618/471/3 617/468/3
f 586/543/3 619/470/3 618/471/3
f 587/544/3 620/472/3 619/470/3
f 588/545/3 621/474/3 620/472/3
f 589/546/3 622/479/3 621/474/3
f 591/547/3 622/479/3 590/548/3
f 592/549/3 623/478/3 591/547/3
f 593/550/3 624/482/3 592/549/3
f 594/551/3 625/484/3 593/550/3
f 595/552/3 626/487/3 594/551/3
f 596/553/3 627/486/3 595/552/3
f 596/553/3 629/490/3 628/488/3
f 597/554/3 630/494/3 629/490/3
f 599/555/3 630/494/3 598/556/3
f 600/557/3 631/493/3 599/555/3
f 601/558/3 632/497/3 600/557/3
f 602/559/3 633/499/3 601/558/3
f 602/559/3 635/501/3 634/502/3
f 603/560/3 636/503/3 635/501/3
f 604/561/3 637/505/3 636/503/3
f 605/562/3 638/509/3 637/505/3
f 607/563/3 638/509/3 606/564/3
f 608/565/3 639/508/3 607/563/3
f 609/566/3 640/512/3 608/565/3
f 610/567/3 641/514/3 609/566/3
f 610/567/3 643/516/3 642/517/3
f 611/568/3 644/518/3 643/516/3
f 612/569/3 645/520/3 644/518/3
f 613/570/3 615/461/3 645/520/3
f 664/557/3 656/549/3 648/541/3
f 593/410/188 658/411/188 594/412/188
f 607/347/170 672/413/170 608/414/170
f 594/571/189 659/572/189 595/573/189
f 608/414/171 673/418/171 609/419/171
f 595/573/190 660/574/190 596/575/190
f 583/532/177 646/576/177 582/577/177
f 609/419/172 674/424/172 610/425/172
f 596/575/191 661/576/191 597/577/191
f 582/577/178 648/574/178 584/575/178
f 610/578/173 675/579/173 611/580/173
f 597/577/192 662/440/192 598/532/192
f 584/575/179 649/572/179 585/573/179
f 611/580/174 676/581/174 612/582/174
f 598/532/161 663/583/161 599/584/161
f 585/573/180 650/585/180 586/571/180
f 612/582/175 677/583/175 613/584/175
f 599/584/162 664/581/162 600/582/162
f 586/425/181 651/418/181 587/419/181
f 613/584/176 647/440/176 583/532/176
f 600/582/163 665/579/163 601/580/163
f 587/419/182 652/413/182 588/414/182
f 601/580/164 666/586/164 602/578/164
f 588/414/183 653/346/183 589/347/183
f 602/412/165 667/435/165 603/410/165
f 589/347/184 654/260/184 590/345/184
f 603/410/166 668/436/166 604/437/166
f 590/345/185 655/438/185 591/439/185
f 604/437/167 669/438/167 605/439/167
f 591/439/186 656/436/186 592/437/186
f 605/439/168 670/260/168 606/345/168
f 592/437/187 657/435/187 593/410/187
f 743/587/161 680/588/161 678/589/161
f 742/590/162 682/591/162 680/588/162
f 744/592/163 684/593/163 682/591/163
f 745/594/164 686/595/164 684/593/164
f 746/251/165 688/252/165 686/253/165
f 747/254/166 690/255/166 688/252/166
f 748/256/167 692/257/167 690/255/167
f 749/258/168 694/259/168 692/257/168
f 750/260/169 696/261/169 694/259/169
f 751/262/170 698/263/170 696/261/170
f 752/264/171 700/265/171 698/263/171
f 753/266/172 702/267/172 700/265/172
f 754/596/173 704/593/173 702/595/173
f 755/594/174 706/591/174 704/593/174
f 756/592/175 708/588/175 706/591/175
f 757/590/176 710/589/176 708/588/176
f 758/587/177 712/597/177 710/589/177
f 712/597/178 760/598/178 714/599/178
f 760/598/179 716/600/179 714/599/179
f 761/601/180 718/602/180 716/600/180
f 762/275/181 720/265/181 718/267/181
f 763/266/182 722/263/182 720/265/182
f 764/264/183 724/261/183 722/263/183
f 765/262/184 726/259/184 724/261/184
f 766/260/185 728/257/185 726/259/185
f 767/258/186 730/255/186 728/257/186
f 768/256/187 732/252/187 730/255/187
f 769/254/188 734/253/188 732/252/188
f 770/603/189 736/600/189 734/602/189
f 771/601/190 738/599/190 736/600/190
f 701/277/172 818/278/172 703/279/172
f 772/598/191 740/597/191 738/599/191
f 773/604/192 678/589/192 740/597/192
f 708/605/6 724/606/6 740/607/6
f 679/608/3 742/609/3 743/610/3
f 681/611/3 744/612/3 742/609/3
f 685/613/3 744/612/3 683/614/3
f 685/613/3 746/615/3 745/616/3
f 687/617/3 747/618/3 746/615/3
f 691/619/3 747/618/3 689/620/3
f 693/621/3 748/622/3 691/619/3
f 695/623/3 749/624/3 693/621/3
f 695/623/3 751/625/3 750/626/3
f 697/627/3 752/628/3 751/625/3
f 699/629/3 753/630/3 752/628/3
f 701/631/3 754/632/3 753/630/3
f 705/633/3 754/632/3 703/634/3
f 705/633/3 756/635/3 755/636/3
f 709/637/3 756/635/3 707/638/3
f 709/637/3 758/639/3 757/605/3
f 713/640/3 758/639/3 711/641/3
f 713/640/3 760/642/3 759/643/3
f 717/644/3 760/642/3 715/645/3
f 717/644/3 762/646/3 761/647/3
f 721/648/3 762/646/3 719/649/3
f 723/650/3 763/651/3 721/648/3
f 723/650/3 765/606/3 764/652/3
f 727/653/3 765/606/3 725/654/3
f 727/653/3 767/655/3 766/656/3
f 731/657/3 767/655/3 729/658/3
f 731/657/3 769/659/3 768/660/3
f 735/661/3 769/659/3 733/662/3
f 737/663/3 770/664/3 735/661/3
f 737/663/3 772/665/3 771/666/3
f 741/667/3 772/665/3 739/668/3
f 679/608/3 773/607/3 741/667/3
f 798/345/169 863/346/169 799/347/169
f 729/348/186 832/349/186 731/350/186
f 703/669/173 819/670/173 705/671/173
f 731/350/187 833/354/187 733/355/187
f 705/671/174 820/672/174 707/673/174
f 679/587/161 806/674/161 681/675/161
f 733/355/188 834/360/188 735/361/188
f 707/673/175 821/674/175 709/675/175
f 681/675/162 808/672/162 683/673/162
f 735/676/189 835/677/189 737/678/189
f 711/587/176 821/674/176 822/679/176
f 683/673/163 809/670/163 685/671/163
f 737/678/190 836/680/190 739/681/190
f 711/587/177 823/682/177 713/683/177
f 685/671/164 810/684/164 687/669/164
f 739/681/191 837/682/191 741/683/191
f 713/683/178 824/680/178 715/681/178
f 687/361/165 811/354/165 689/355/165
f 741/683/192 807/679/192 679/587/192
f 715/681/179 825/677/179 717/678/179
f 689/355/166 812/349/166 691/350/166
f 717/678/180 826/685/180 719/676/180
f 691/350/167 813/372/167 693/348/167
f 719/279/181 827/373/181 721/277/181
f 693/348/168 814/345/168 695/260/168
f 721/277/182 828/374/182 723/375/182
f 695/260/169 815/376/169 697/377/169
f 723/375/183 829/376/183 725/377/183
f 697/377/170 816/374/170 699/375/170
f 725/377/184 830/345/184 727/260/184
f 699/375/171 817/373/171 701/277/171
f 727/260/185 831/372/185 729/348/185
f 774/686/3 807/608/3 775/687/3
f 774/686/3 808/614/3 806/611/3
f 776/688/3 809/613/3 808/614/3
f 778/689/3 809/613/3 777/690/3
f 778/689/3 811/620/3 810/617/3
f 779/691/3 812/619/3 811/620/3
f 780/692/3 813/621/3 812/619/3
f 782/693/3 813/621/3 781/694/3
f 782/693/3 815/627/3 814/623/3
f 784/695/3 815/627/3 783/696/3
f 785/697/3 816/629/3 784/695/3
f 786/698/3 817/631/3 785/697/3
f 787/699/3 818/634/3 786/698/3
f 788/700/3 819/633/3 787/699/3
f 789/701/3 820/638/3 788/700/3
f 789/701/3 822/641/3 821/637/3
f 791/702/3 822/641/3 790/703/3
f 791/702/3 824/645/3 823/640/3
f 792/704/3 825/644/3 824/645/3
f 793/705/3 826/649/3 825/644/3
f 794/706/3 827/648/3 826/649/3
f 795/707/3 828/650/3 827/648/3
f 796/708/3 829/654/3 828/650/3
f 797/709/3 830/653/3 829/654/3
f 799/710/3 830/653/3 798/711/3
f 800/712/3 831/658/3 799/710/3
f 801/713/3 832/657/3 800/712/3
f 802/714/3 833/662/3 801/713/3
f 802/714/3 835/663/3 834/661/3
f 804/715/3 835/663/3 803/716/3
f 805/717/3 836/668/3 804/715/3
f 805/717/3 807/608/3 837/667/3
f 856/704/3 848/695/3 840/688/3
f 785/410/188 850/411/188 786/412/188
f 799/347/170 864/413/170 800/414/170
f 786/718/189 851/719/189 787/720/189
f 800/414/171 865/418/171 801/419/171
f 787/720/190 852/721/190 788/722/190
f 775/679/177 838/723/177 774/724/177
f 801/419/172 866/424/172 802/425/172
f 788/722/191 853/723/191 789/724/191
f 774/724/178 840/721/178 776/722/178
f 802/725/173 867/726/173 803/727/173
f 789/724/192 854/587/192 790/679/192
f 776/722/179 841/719/179 777/720/179
f 803/727/174 868/728/174 804/729/174
f 790/679/161 855/730/161 791/731/161
f 777/720/180 842/732/180 778/718/180
f 804/729/175 869/730/175 805/731/175
f 791/731/162 856/728/162 792/729/162
f 778/425/181 843/418/181 779/419/181
f 805/731/176 839/587/176 775/679/176
f 792/729/163 857/726/163 793/727/163
f 779/419/182 844/413/182 780/414/182
f 793/727/164 858/733/164 794/725/164
f 780/414/183 845/346/183 781/347/183
f 794/412/165 859/435/165 795/410/165
f 781/347/184 846/260/184 782/345/184
f 795/410/166 860/436/166 796/437/166
f 782/345/185 847/438/185 783/439/185
f 796/437/167 861/438/167 797/439/167
f 783/439/186 848/436/186 784/437/186
f 797/439/168 862/260/168 798/345/168
f 784/437/187 849/435/187 785/410/187
f 119/109/87 120/74/89 117/93/60
f 123/110/88 122/95/62 121/97/64
f 206/176/43 244/216/43 247/180/43
f 220/181/8 218/188/8 252/182/8
f 216/181/7 251/183/7 250/182/7
f 208/181/7 246/183/7 244/182/7
f 213/215/160 249/180/160 248/216/160
f 204/176/43 243/216/43 242/180/43
f 207/181/8 209/188/8 247/182/8
f 207/215/160 245/180/160 246/216/160
f 359/242/161 358/245/161 296/243/161
f 358/245/162 360/247/162 298/246/162
f 360/247/163 361/249/163 300/248/163
f 361/249/164 362/268/164 302/250/164
f 362/251/165 363/254/165 304/252/165
f 363/254/166 364/256/166 306/255/166
f 364/256/167 365/258/167 308/257/167
f 365/258/168 366/260/168 310/259/168
f 366/260/169 367/262/169 312/261/169
f 367/262/170 368/264/170 314/263/170
f 368/264/171 369/266/171 316/265/171
f 369/266/172 370/275/172 318/267/172
f 370/268/173 371/249/173 320/248/173
f 371/249/174 372/247/174 322/246/174
f 372/247/175 373/245/175 324/243/175
f 373/245/176 374/242/176 326/244/176
f 374/242/177 375/280/177 328/269/177
f 328/269/178 375/280/178 376/270/178
f 376/270/179 377/273/179 332/272/179
f 377/273/180 378/276/180 334/274/180
f 378/275/181 379/266/181 336/265/181
f 379/266/182 380/264/182 338/263/182
f 380/264/183 381/262/183 340/261/183
f 381/262/184 382/260/184 342/259/184
f 382/260/185 383/258/185 344/257/185
f 383/258/186 384/256/186 346/255/186
f 384/256/187 385/254/187 348/252/187
f 385/254/188 386/251/188 350/253/188
f 386/276/189 387/273/189 352/272/189
f 387/273/190 388/270/190 354/271/190
f 317/277/172 433/373/172 434/278/172
f 388/270/191 389/280/191 356/269/191
f 389/280/192 359/242/192 294/244/192
f 356/283/6 294/286/6 296/285/6
f 296/285/6 298/288/6 300/290/6
f 300/290/6 302/292/6 304/294/6
f 304/294/6 306/298/6 308/300/6
f 308/300/6 310/299/6 312/304/6
f 312/304/6 314/303/6 316/306/6
f 316/306/6 318/308/6 320/312/6
f 320/312/6 322/314/6 324/281/6
f 324/281/6 326/315/6 328/319/6
f 328/319/6 330/321/6 332/323/6
f 332/323/6 334/325/6 336/327/6
f 336/327/6 338/329/6 340/282/6
f 340/282/6 342/332/6 344/331/6
f 344/331/6 346/334/6 348/336/6
f 348/336/6 350/338/6 352/342/6
f 352/342/6 354/341/6 356/283/6
f 356/283/6 296/285/6 300/290/6
f 300/290/6 304/294/6 308/300/6
f 308/300/6 312/304/6 316/306/6
f 316/306/6 320/312/6 324/281/6
f 324/281/6 328/319/6 332/323/6
f 332/323/6 336/327/6 340/282/6
f 340/282/6 344/331/6 348/336/6
f 348/336/6 352/342/6 356/283/6
f 356/283/6 300/290/6 308/300/6
f 308/300/6 316/306/6 324/281/6
f 324/281/6 332/323/6 340/282/6
f 340/282/6 348/336/6 356/283/6
f 356/283/6 308/300/6 324/281/6
f 295/284/3 297/287/3 358/285/3
f 297/287/3 299/289/3 360/288/3
f 299/289/3 301/291/3 361/290/3
f 301/291/3 303/293/3 362/292/3
f 303/293/3 305/296/3 363/294/3
f 307/295/3 364/298/3 363/294/3
f 309/297/3 365/300/3 364/298/3
f 309/297/3 311/302/3 366/299/3
f 313/301/3 367/304/3 366/299/3
f 313/301/3 315/305/3 368/303/3
f 315/305/3 317/307/3 369/306/3
f 317/307/3 319/310/3 370/308/3
f 321/309/3 371/312/3 370/308/3
f 323/311/3 372/314/3 371/312/3
f 325/313/3 373/281/3 372/314/3
f 325/313/3 327/317/3 374/315/3
f 329/316/3 375/319/3 374/315/3
f 331/318/3 376/321/3 375/319/3
f 333/320/3 377/323/3 376/321/3
f 335/322/3 378/325/3 377/323/3
f 337/324/3 379/327/3 378/325/3
f 339/326/3 380/329/3 379/327/3
f 341/328/3 381/282/3 380/329/3
f 343/330/3 382/332/3 381/282/3
f 343/330/3 345/333/3 383/331/3
f 345/333/3 347/335/3 384/334/3
f 347/335/3 349/337/3 385/336/3
f 349/337/3 351/340/3 386/338/3
f 353/339/3 387/342/3 386/338/3
f 353/339/3 355/343/3 388/341/3
f 355/343/3 357/344/3 389/283/3
f 357/344/3 295/284/3 359/286/3
f 414/345/169 478/260/169 479/346/169
f 345/348/186 447/372/186 448/349/186
f 319/351/173 434/370/173 435/352/173
f 347/350/187 448/349/187 449/354/187
f 321/353/174 435/352/174 436/356/174
f 295/242/161 423/365/161 422/358/161
f 349/355/188 449/354/188 450/360/188
f 323/357/175 436/356/175 437/358/175
f 297/359/162 422/358/162 424/356/162
f 351/362/189 450/371/189 451/363/189
f 327/242/176 325/359/176 437/358/176
f 299/357/163 424/356/163 425/352/163
f 353/364/190 451/363/190 452/366/190
f 327/242/177 438/365/177 439/368/177
f 301/353/164 425/352/164 426/370/164
f 355/367/191 452/366/191 453/368/191
f 329/369/178 439/368/178 440/366/178
f 303/361/165 426/360/165 427/354/165
f 357/369/192 453/368/192 423/365/192
f 331/367/179 440/366/179 441/363/179
f 305/355/166 427/354/166 428/349/166
f 333/364/180 441/363/180 442/371/180
f 307/350/167 428/349/167 429/372/167
f 335/279/181 442/278/181 443/373/181
f 309/348/168 429/372/168 430/345/168
f 337/277/182 443/373/182 444/374/182
f 311/260/169 430/345/169 431/376/169
f 339/375/183 444/374/183 445/376/183
f 313/377/170 431/376/170 432/374/170
f 341/377/184 445/376/184 446/345/184
f 315/375/171 432/374/171 433/373/171
f 343/260/185 446/345/185 447/372/185
f 390/378/3 422/287/3 423/284/3
f 392/380/3 424/289/3 422/287/3
f 393/381/3 425/291/3 424/289/3
f 394/382/3 426/293/3 425/291/3
f 394/382/3 395/383/3 427/296/3
f 395/383/3 396/384/3 428/295/3
f 396/384/3 397/385/3 429/297/3
f 397/385/3 398/387/3 430/302/3
f 399/386/3 431/301/3 430/302/3
f 400/388/3 432/305/3 431/301/3
f 401/389/3 433/307/3 432/305/3
f 402/390/3 434/310/3 433/307/3
f 403/391/3 435/309/3 434/310/3
f 404/392/3 436/311/3 435/309/3
f 404/392/3 405/393/3 437/313/3
f 405/393/3 406/395/3 438/317/3
f 407/394/3 439/316/3 438/317/3
f 408/396/3 440/318/3 439/316/3
f 409/397/3 441/320/3 440/318/3
f 410/398/3 442/322/3 441/320/3
f 410/398/3 411/399/3 443/324/3
f 411/399/3 412/400/3 444/326/3
f 412/400/3 413/401/3 445/328/3
f 413/401/3 414/403/3 446/330/3
f 415/402/3 447/333/3 446/330/3
f 416/404/3 448/335/3 447/333/3
f 417/405/3 449/337/3 448/335/3
f 418/406/3 450/340/3 449/337/3
f 418/406/3 419/407/3 451/339/3
f 419/407/3 420/408/3 452/343/3
f 420/408/3 421/409/3 453/344/3
f 421/409/3 391/379/3 423/284/3
f 456/380/3 454/378/3 455/379/3
f 455/379/3 485/409/3 484/408/3
f 484/408/3 483/407/3 482/406/3
f 482/406/3 481/405/3 480/404/3
f 480/404/3 479/402/3 478/403/3
f 478/403/3 477/401/3 476/400/3
f 476/400/3 475/399/3 474/398/3
f 474/398/3 473/397/3 472/396/3
f 472/396/3 471/394/3 470/395/3
f 470/395/3 469/393/3 468/392/3
f 468/392/3 467/391/3 466/390/3
f 466/390/3 465/389/3 464/388/3
f 464/388/3 463/386/3 462/387/3
f 462/387/3 461/385/3 460/384/3
f 460/384/3 459/383/3 458/382/3
f 458/382/3 457/381/3 456/380/3
f 456/380/3 455/379/3 484/408/3
f 484/408/3 482/406/3 480/404/3
f 480/404/3 478/403/3 476/400/3
f 476/400/3 474/398/3 472/396/3
f 472/396/3 470/395/3 468/392/3
f 468/392/3 466/390/3 464/388/3
f 464/388/3 462/387/3 460/384/3
f 460/384/3 458/382/3 456/380/3
f 456/380/3 484/408/3 480/404/3
f 480/404/3 476/400/3 472/396/3
f 472/396/3 468/392/3 464/388/3
f 464/388/3 460/384/3 456/380/3
f 456/380/3 480/404/3 472/396/3
f 401/410/188 465/435/188 466/411/188
f 415/347/170 479/346/170 480/413/170
f 402/415/189 466/433/189 467/416/189
f 416/414/171 480/413/171 481/418/171
f 403/417/190 467/416/190 468/420/190
f 391/365/177 455/242/177 454/422/177
f 417/419/172 481/418/172 482/424/172
f 404/421/191 468/420/191 469/422/191
f 390/423/178 454/422/178 456/420/178
f 418/426/173 482/434/173 483/427/173
f 405/423/192 469/422/192 470/242/192
f 392/421/179 456/420/179 457/416/179
f 419/428/174 483/427/174 484/429/174
f 406/365/161 470/242/161 471/431/161
f 393/417/180 457/416/180 458/433/180
f 420/430/175 484/429/175 485/431/175
f 407/432/162 471/431/162 472/429/162
f 394/425/181 458/424/181 459/418/181
f 421/432/176 485/431/176 455/242/176
f 408/430/163 472/429/163 473/427/163
f 395/419/182 459/418/182 460/413/182
f 409/428/164 473/427/164 474/434/164
f 396/414/183 460/413/183 461/346/183
f 410/412/165 474/411/165 475/435/165
f 397/347/184 461/346/184 462/260/184
f 411/410/166 475/435/166 476/436/166
f 398/345/185 462/260/185 463/438/185
f 412/437/167 476/436/167 477/438/167
f 399/439/186 463/438/186 464/436/186
f 413/439/168 477/438/168 478/260/168
f 400/437/187 464/436/187 465/435/187
f 551/440/161 550/443/161 488/441/161
f 550/443/162 552/445/162 490/444/162
f 552/445/163 553/447/163 492/446/163
f 553/447/164 554/449/164 494/448/164
f 554/251/165 555/254/165 496/252/165
f 555/254/166 556/256/166 498/255/166
f 556/256/167 557/258/167 500/257/167
f 557/258/168 558/260/168 502/259/168
f 558/260/169 559/262/169 504/261/169
f 559/262/170 560/264/170 506/263/170
f 560/264/171 561/266/171 508/265/171
f 561/266/172 562/275/172 510/267/172
f 562/449/173 563/447/173 512/446/173
f 563/447/174 564/445/174 514/444/174
f 564/445/175 565/443/175 516/441/175
f 565/443/176 566/440/176 518/442/176
f 566/440/177 567/457/177 520/450/177
f 520/450/178 567/457/178 568/451/178
f 568/451/179 569/454/179 524/453/179
f 569/454/180 570/456/180 526/455/180
f 570/275/181 571/266/181 528/265/181
f 571/266/182 572/264/182 530/263/182
f 572/264/183 573/262/183 532/261/183
f 573/262/184 574/260/184 534/259/184
f 574/260/185 575/258/185 536/257/185
f 575/258/186 576/256/186 538/255/186
f 576/256/187 577/254/187 540/252/187
f 577/254/188 578/251/188 542/253/188
f 578/456/189 579/454/189 544/453/189
f 579/454/190 580/451/190 546/452/190
f 509/277/172 625/373/172 626/278/172
f 580/451/191 581/457/191 548/450/191
f 581/457/192 551/440/192 486/442/192
f 548/460/6 486/463/6 488/462/6
f 488/462/6 490/465/6 492/467/6
f 492/467/6 494/469/6 496/473/6
f 496/473/6 498/475/6 500/477/6
f 500/477/6 502/476/6 504/481/6
f 504/481/6 506/480/6 508/483/6
f 508/483/6 510/485/6 512/489/6
f 512/489/6 514/491/6 516/458/6
f 516/458/6 518/492/6 520/496/6
f 520/496/6 522/495/6 524/498/6
f 524/498/6 526/500/6 528/504/6
f 528/504/6 530/506/6 532/459/6
f 532/459/6 534/507/6 536/511/6
f 536/511/6 538/510/6 540/513/6
f 540/513/6 542/515/6 544/519/6
f 544/519/6 546/521/6 548/460/6
f 548/460/6 488/462/6 492/467/6
f 492/467/6 496/473/6 500/477/6
f 500/477/6 504/481/6 508/483/6
f 508/483/6 512/489/6 516/458/6
f 516/458/6 520/496/6 524/498/6
f 524/498/6 528/504/6 532/459/6
f 532/459/6 536/511/6 540/513/6
f 540/513/6 544/519/6 548/460/6
f 548/460/6 492/467/6 500/477/6
f 500/477/6 508/483/6 516/458/6
f 516/458/6 524/498/6 532/459/6
f 532/459/6 540/513/6 548/460/6
f 548/460/6 500/477/6 516/458/6
f 487/461/3 489/464/3 550/462/3
f 489/464/3 491/466/3 552/465/3
f 491/466/3 493/468/3 553/467/3
f 493/468/3 495/471/3 554/469/3
f 497/470/3 555/473/3 554/469/3
f 499/472/3 556/475/3 555/473/3
f 501/474/3 557/477/3 556/475/3
f 501/474/3 503/479/3 558/476/3
f 505/478/3 559/481/3 558/476/3
f 505/478/3 507/482/3 560/480/3
f 507/482/3 509/484/3 561/483/3
f 509/484/3 511/487/3 562/485/3
f 513/486/3 563/489/3 562/485/3
f 515/488/3 564/491/3 563/489/3
f 517/490/3 565/458/3 564/491/3
f 517/490/3 519/494/3 566/492/3
f 521/493/3 567/496/3 566/492/3
f 521/493/3 523/497/3 568/495/3
f 523/497/3 525/499/3 569/498/3
f 525/499/3 527/502/3 570/500/3
f 529/501/3 571/504/3 570/500/3
f 531/503/3 572/506/3 571/504/3
f 533/505/3 573/459/3 572/506/3
f 533/505/3 535/509/3 574/507/3
f 537/508/3 575/511/3 574/507/3
f 537/508/3 539/512/3 576/510/3
f 539/512/3 541/514/3 577/513/3
f 541/514/3 543/517/3 578/515/3
f 545/516/3 579/519/3 578/515/3
f 547/518/3 580/521/3 579/519/3
f 549/520/3 581/460/3 580/521/3
f 487/461/3 551/463/3 581/460/3
f 606/345/169 670/260/169 671/346/169
f 537/348/186 639/372/186 640/349/186
f 511/522/173 626/537/173 627/523/173
f 539/350/187 640/349/187 641/354/187
f 513/524/174 627/523/174 628/525/174
f 487/440/161 615/532/161 614/527/161
f 541/355/188 641/354/188 642/360/188
f 515/526/175 628/525/175 629/527/175
f 489/528/162 614/527/162 616/525/162
f 543/529/189 642/538/189 643/530/189
f 519/440/176 517/528/176 629/527/176
f 491/526/163 616/525/163 617/523/163
f 545/531/190 643/530/190 644/533/190
f 519/440/177 630/532/177 631/535/177
f 493/524/164 617/523/164 618/537/164
f 547/534/191 644/533/191 645/535/191
f 521/536/178 631/535/178 632/533/178
f 495/361/165 618/360/165 619/354/165
f 549/536/192 645/535/192 615/532/192
f 523/534/179 632/533/179 633/530/179
f 497/355/166 619/354/166 620/349/166
f 525/531/180 633/530/180 634/538/180
f 499/350/167 620/349/167 621/372/167
f 527/279/181 634/278/181 635/373/181
f 501/348/168 621/372/168 622/345/168
f 529/277/182 635/373/182 636/374/182
f 503/260/169 622/345/169 623/376/169
f 531/375/183 636/374/183 637/376/183
f 505/377/170 623/376/170 624/374/170
f 533/377/184 637/376/184 638/345/184
f 507/375/171 624/374/171 625/373/171
f 535/260/185 638/345/185 639/372/185
f 582/539/3 614/464/3 615/461/3
f 584/541/3 616/466/3 614/464/3
f 585/542/3 617/468/3 616/466/3
f 585/542/3 586/543/3 618/471/3
f 586/543/3 587/544/3 619/470/3
f 587/544/3 588/545/3 620/472/3
f 588/545/3 589/546/3 621/474/3
f 589/546/3 590/548/3 622/479/3
f 591/547/3 623/478/3 622/479/3
f 592/549/3 624/482/3 623/478/3
f 593/550/3 625/484/3 624/482/3
f 594/551/3 626/487/3 625/484/3
f 595/552/3 627/486/3 626/487/3
f 596/553/3 628/488/3 627/486/3
f 596/553/3 597/554/3 629/490/3
f 597/554/3 598/556/3 630/494/3
f 599/555/3 631/493/3 630/494/3
f 600/557/3 632/497/3 631/493/3
f 601/558/3 633/499/3 632/497/3
f 602/559/3 634/502/3 633/499/3
f 602/559/3 603/560/3 635/501/3
f 603/560/3 604/561/3 636/503/3
f 604/561/3 605/562/3 637/505/3
f 605/562/3 606/564/3 638/509/3
f 607/563/3 639/508/3 638/509/3
f 608/565/3 640/512/3 639/508/3
f 609/566/3 641/514/3 640/512/3
f 610/567/3 642/517/3 641/514/3
f 610/567/3 611/568/3 643/516/3
f 611/568/3 612/569/3 644/518/3
f 612/569/3 613/570/3 645/520/3
f 613/570/3 583/540/3 615/461/3
f 648/541/3 646/539/3 647/540/3
f 647/540/3 677/570/3 676/569/3
f 676/569/3 675/568/3 674/567/3
f 674/567/3 673/566/3 672/565/3
f 672/565/3 671/563/3 670/564/3
f 670/564/3 669/562/3 668/561/3
f 668/561/3 667/560/3 666/559/3
f 666/559/3 665/558/3 664/557/3
f 664/557/3 663/555/3 662/556/3
f 662/556/3 661/554/3 660/553/3
f 660/553/3 659/552/3 658/551/3
f 658/551/3 657/550/3 656/549/3
f 656/549/3 655/547/3 654/548/3
f 654/548/3 653/546/3 652/545/3
f 652/545/3 651/544/3 650/543/3
f 650/543/3 649/542/3 648/541/3
f 648/541/3 647/540/3 676/569/3
f 676/569/3 674/567/3 672/565/3
f 672/565/3 670/564/3 668/561/3
f 668/561/3 666/559/3 664/557/3
f 664/557/3 662/556/3 660/553/3
f 660/553/3 658/551/3 656/549/3
f 656/549/3 654/548/3 652/545/3
f 652/545/3 650/543/3 648/541/3
f 648/541/3 676/569/3 672/565/3
f 672/565/3 668/561/3 664/557/3
f 664/557/3 660/553/3 656/549/3
f 656/549/3 652/545/3 648/541/3
f 648/541/3 672/565/3 664/557/3
f 593/410/188 657/435/188 658/411/188
f 607/347/170 671/346/170 672/413/170
f 594/571/189 658/585/189 659/572/189
f 608/414/171 672/413/171 673/418/171
f 595/573/190 659/572/190 660/574/190
f 583/532/177 647/440/177 646/576/177
f 609/419/172 673/418/172 674/424/172
f 596/575/191 660/574/191 661/576/191
f 582/577/178 646/576/178 648/574/178
f 610/578/173 674/586/173 675/579/173
f 597/577/192 661/576/192 662/440/192
f 584/575/179 648/574/179 649/572/179
f 611/580/174 675/579/174 676/581/174
f 598/532/161 662/440/161 663/583/161
f 585/573/180 649/572/180 650/585/180
f 612/582/175 676/581/175 677/583/175
f 599/584/162 663/583/162 664/581/162
f 586/425/181 650/424/181 651/418/181
f 613/584/176 677/583/176 647/440/176
f 600/582/163 664/581/163 665/579/163
f 587/419/182 651/418/182 652/413/182
f 601/580/164 665/579/164 666/586/164
f 588/414/183 652/413/183 653/346/183
f 602/412/165 666/411/165 667/435/165
f 589/347/184 653/346/184 654/260/184
f 603/410/166 667/435/166 668/436/166
f 590/345/185 654/260/185 655/438/185
f 604/437/167 668/436/167 669/438/167
f 591/439/186 655/438/186 656/436/186
f 605/439/168 669/438/168 670/260/168
f 592/437/187 656/436/187 657/435/187
f 743/587/161 742/590/161 680/588/161
f 742/590/162 744/592/162 682/591/162
f 744/592/163 745/594/163 684/593/163
f 745/594/164 746/596/164 686/595/164
f 746/251/165 747/254/165 688/252/165
f 747/254/166 748/256/166 690/255/166
f 748/256/167 749/258/167 692/257/167
f 749/258/168 750/260/168 694/259/168
f 750/260/169 751/262/169 696/261/169
f 751/262/170 752/264/170 698/263/170
f 752/264/171 753/266/171 700/265/171
f 753/266/172 754/275/172 702/267/172
f 754/596/173 755/594/173 704/593/173
f 755/594/174 756/592/174 706/591/174
f 756/592/175 757/590/175 708/588/175
f 757/590/176 758/587/176 710/589/176
f 758/587/177 759/604/177 712/597/177
f 712/597/178 759/604/178 760/598/178
f 760/598/179 761/601/179 716/600/179
f 761/601/180 762/603/180 718/602/180
f 762/275/181 763/266/181 720/265/181
f 763/266/182 764/264/182 722/263/182
f 764/264/183 765/262/183 724/261/183
f 765/262/184 766/260/184 726/259/184
f 766/260/185 767/258/185 728/257/185
f 767/258/186 768/256/186 730/255/186
f 768/256/187 769/254/187 732/252/187
f 769/254/188 770/251/188 734/253/188
f 770/603/189 771/601/189 736/600/189
f 771/601/190 772/598/190 738/599/190
f 701/277/172 817/373/172 818/278/172
f 772/598/191 773/604/191 740/597/191
f 773/604/192 743/587/192 678/589/192
f 740/607/6 678/610/6 680/609/6
f 680/609/6 682/612/6 684/616/6
f 684/616/6 686/615/6 688/618/6
f 688/618/6 690/622/6 692/624/6
f 692/624/6 694/626/6 696/625/6
f 696/625/6 698/628/6 700/630/6
f 700/630/6 702/632/6 704/636/6
f 704/636/6 706/635/6 708/605/6
f 708/605/6 710/639/6 712/643/6
f 712/643/6 714/642/6 716/647/6
f 716/647/6 718/646/6 720/651/6
f 720/651/6 722/652/6 724/606/6
f 724/606/6 726/656/6 728/655/6
f 728/655/6 730/660/6 732/659/6
f 732/659/6 734/664/6 736/666/6
f 736/666/6 738/665/6 740/607/6
f 740/607/6 680/609/6 684/616/6
f 684/616/6 688/618/6 692/624/6
f 692/624/6 696/625/6 700/630/6
f 700/630/6 704/636/6 708/605/6
f 708/605/6 712/643/6 716/647/6
f 716/647/6 720/651/6 724/606/6
f 724/606/6 728/655/6 732/659/6
f 732/659/6 736/666/6 740/607/6
f 740/607/6 684/616/6 692/624/6
f 692/624/6 700/630/6 708/605/6
f 708/605/6 716/647/6 724/606/6
f 724/606/6 732/659/6 740/607/6
f 740/607/6 692/624/6 708/605/6
f 679/608/3 681/611/3 742/609/3
f 681/611/3 683/614/3 744/612/3
f 685/613/3 745/616/3 744/612/3
f 685/613/3 687/617/3 746/615/3
f 687/617/3 689/620/3 747/618/3
f 691/619/3 748/622/3 747/618/3
f 693/621/3 749/624/3 748/622/3
f 695/623/3 750/626/3 749/624/3
f 695/623/3 697/627/3 751/625/3
f 697/627/3 699/629/3 752/628/3
f 699/629/3 701/631/3 753/630/3
f 701/631/3 703/634/3 754/632/3
f 705/633/3 755/636/3 754/632/3
f 705/633/3 707/638/3 756/635/3
f 709/637/3 757/605/3 756/635/3
f 709/637/3 711/641/3 758/639/3
f 713/640/3 759/643/3 758/639/3
f 713/640/3 715/645/3 760/642/3
f 717/644/3 761/647/3 760/642/3
f 717/644/3 719/649/3 762/646/3
f 721/648/3 763/651/3 762/646/3
f 723/650/3 764/652/3 763/651/3
f 723/650/3 725/654/3 765/606/3
f 727/653/3 766/656/3 765/606/3
f 727/653/3 729/658/3 767/655/3
f 731/657/3 768/660/3 767/655/3
f 731/657/3 733/662/3 769/659/3
f 735/661/3 770/664/3 769/659/3
f 737/663/3 771/666/3 770/664/3
f 737/663/3 739/668/3 772/665/3
f 741/667/3 773/607/3 772/665/3
f 679/608/3 743/610/3 773/607/3
f 798/345/169 862/260/169 863/346/169
f 729/348/186 831/372/186 832/349/186
f 703/669/173 818/684/173 819/670/173
f 731/350/187 832/349/187 833/354/187
f 705/671/174 819/670/174 820/672/174
f 679/587/161 807/679/161 806/674/161
f 733/355/188 833/354/188 834/360/188
f 707/673/175 820/672/175 821/674/175
f 681/675/162 806/674/162 808/672/162
f 735/676/189 834/685/189 835/677/189
f 711/587/176 709/675/176 821/674/176
f 683/673/163 808/672/163 809/670/163
f 737/678/190 835/677/190 836/680/190
f 711/587/177 822/679/177 823/682/177
f 685/671/164 809/670/164 810/684/164
f 739/681/191 836/680/191 837/682/191
f 713/683/178 823/682/178 824/680/178
f 687/361/165 810/360/165 811/354/165
f 741/683/192 837/682/192 807/679/192
f 715/681/179 824/680/179 825/677/179
f 689/355/166 811/354/166 812/349/166
f 717/678/180 825/677/180 826/685/180
f 691/350/167 812/349/167 813/372/167
f 719/279/181 826/278/181 827/373/181
f 693/348/168 813/372/168 814/345/168
f 721/277/182 827/373/182 828/374/182
f 695/260/169 814/345/169 815/376/169
f 723/375/183 828/374/183 829/376/183
f 697/377/170 815/376/170 816/374/170
f 725/377/184 829/376/184 830/345/184
f 699/375/171 816/374/171 817/373/171
f 727/260/185 830/345/185 831/372/185
f 774/686/3 806/611/3 807/608/3
f 774/686/3 776/688/3 808/614/3
f 776/688/3 777/690/3 809/613/3
f 778/689/3 810/617/3 809/613/3
f 778/689/3 779/691/3 811/620/3
f 779/691/3 780/692/3 812/619/3
f 780/692/3 781/694/3 813/621/3
f 782/693/3 814/623/3 813/621/3
f 782/693/3 783/696/3 815/627/3
f 784/695/3 816/629/3 815/627/3
f 785/697/3 817/631/3 816/629/3
f 786/698/3 818/634/3 817/631/3
f 787/699/3 819/633/3 818/634/3
f 788/700/3 820/638/3 819/633/3
f 789/701/3 821/637/3 820/638/3
f 789/701/3 790/703/3 822/641/3
f 791/702/3 823/640/3 822/641/3
f 791/702/3 792/704/3 824/645/3
f 792/704/3 793/705/3 825/644/3
f 793/705/3 794/706/3 826/649/3
f 794/706/3 795/707/3 827/648/3
f 795/707/3 796/708/3 828/650/3
f 796/708/3 797/709/3 829/654/3
f 797/709/3 798/711/3 830/653/3
f 799/710/3 831/658/3 830/653/3
f 800/712/3 832/657/3 831/658/3
f 801/713/3 833/662/3 832/657/3
f 802/714/3 834/661/3 833/662/3
f 802/714/3 803/716/3 835/663/3
f 804/715/3 836/668/3 835/663/3
f 805/717/3 837/667/3 836/668/3
f 805/717/3 775/687/3 807/608/3
f 840/688/3 838/686/3 839/687/3
f 839/687/3 869/717/3 868/715/3
f 868/715/3 867/716/3 866/714/3
f 866/714/3 865/713/3 864/712/3
f 864/712/3 863/710/3 862/711/3
f 862/711/3 861/709/3 860/708/3
f 860/708/3 859/707/3 858/706/3
f 858/706/3 857/705/3 856/704/3
f 856/704/3 855/702/3 854/703/3
f 854/703/3 853/701/3 852/700/3
f 852/700/3 851/699/3 850/698/3
f 850/698/3 849/697/3 848/695/3
f 848/695/3 847/696/3 846/693/3
f 846/693/3 845/694/3 844/692/3
f 844/692/3 843/691/3 842/689/3
f 842/689/3 841/690/3 840/688/3
f 840/688/3 839/687/3 868/715/3
f 868/715/3 866/714/3 864/712/3
f 864/712/3 862/711/3 860/708/3
f 860/708/3 858/706/3 856/704/3
f 856/704/3 854/703/3 852/700/3
f 852/700/3 850/698/3 848/695/3
f 848/695/3 846/693/3 844/692/3
f 844/692/3 842/689/3 840/688/3
f 840/688/3 868/715/3 864/712/3
f 864/712/3 860/708/3 856/704/3
f 856/704/3 852/700/3 848/695/3
f 848/695/3 844/692/3 840/688/3
f 840/688/3 864/712/3 856/704/3
f 785/410/188 849/435/188 850/411/188
f 799/347/170 863/346/170 864/413/170
f 786/718/189 850/732/189 851/719/189
f 800/414/171 864/413/171 865/418/171
f 787/720/190 851/719/190 852/721/190
f 775/679/177 839/587/177 838/723/177
f 801/419/172 865/418/172 866/424/172
f 788/722/191 852/721/191 853/723/191
f 774/724/178 838/723/178 840/721/178
f 802/725/173 866/733/173 867/726/173
f 789/724/192 853/723/192 854/587/192
f 776/722/179 840/721/179 841/719/179
f 803/727/174 867/726/174 868/728/174
f 790/679/161 854/587/161 855/730/161
f 777/720/180 841/719/180 842/732/180
f 804/729/175 868/728/175 869/730/175
f 791/731/162 855/730/162 856/728/162
f 778/425/181 842/424/181 843/418/181
f 805/731/176 869/730/176 839/587/176
f 792/729/163 856/728/163 857/726/163
f 779/419/182 843/418/182 844/413/182
f 793/727/164 857/726/164 858/733/164
f 780/414/183 844/413/183 845/346/183
f 794/412/165 858/411/165 859/435/165
f 781/347/184 845/346/184 846/260/184
f 795/410/166 859/435/166 860/436/166
f 782/345/185 846/260/185 847/438/185
f 796/437/167 860/436/167 861/438/167
f 783/439/186 847/438/186 848/436/186
f 797/439/168 861/438/168 862/260/168
f 784/437/187 848/436/187 849/435/187
l 125 126
