# Blender 5.1.0
# www.blender.org
mtllib vir_gun_305_x1_001_0.mtl
o vir_gun_305_x1_001_0.001_vir_gun_305_x1_001_0.001
v 0.495199 1.201879 4.091141
v 0.571552 1.486843 3.757945
v 0.285900 1.031323 4.120032
v -0.571550 1.663426 3.553032
v -0.495199 1.201879 4.091141
v -0.571552 1.486843 3.757945
v -0.285900 1.031323 4.120032
v 0.000000 0.954401 4.155396
v 0.495198 2.628902 2.902547
v 0.571550 1.663426 3.553032
v 0.571806 2.342996 3.362392
v 0.571586 1.791214 4.249867
v 0.571552 1.525263 4.249867
v 0.495200 1.240300 4.249867
v 0.285909 2.838197 2.565922
v 0.000000 2.914804 2.442707
v 0.000000 2.895593 2.144450
v -0.285909 2.838197 2.565922
v -0.495198 2.628902 2.902547
v 0.285900 1.031007 4.249867
v 0.000000 0.954401 4.249867
v -0.285900 1.031007 4.249867
v -0.495199 1.240300 4.249867
v 0.455657 1.791214 4.249867
v 0.455623 1.540524 4.249867
v 0.391260 1.300309 4.249867
v 0.225891 1.134946 4.249867
v 0.000000 1.074419 4.249867
v -0.225890 1.134946 4.249867
v -0.391260 1.300309 4.249867
v -0.455623 1.540524 4.249867
v -0.571552 1.525263 4.249867
v -0.455656 1.791214 4.249867
v -0.571586 1.791214 4.249867
v 0.391260 1.300310 2.078410
v 0.225891 1.134946 2.078410
v 0.000000 1.074419 4.249867
v 0.000000 1.074420 2.078410
v -0.225890 1.134946 2.078410
v -0.225890 1.134946 4.249867
v -0.391260 1.300310 2.078410
v 0.455623 1.540524 2.078410
v 0.391260 1.300310 2.078410
v 0.455870 2.327756 2.078410
v 0.455870 2.327756 3.386903
v 0.391259 2.568893 2.999063
v 0.391259 2.568893 2.078410
v 0.391259 2.568893 2.078410
v 0.225900 2.734258 2.733095
v 0.391259 2.568893 2.999063
v 0.225900 2.734258 2.078410
v 0.000000 2.794786 2.635743
v 0.000000 2.794786 2.078410
v -0.225898 2.734258 2.078410
v -0.225898 2.734258 2.733095
v -0.391257 2.568893 2.078410
v -0.391257 2.568893 2.999063
v 0.455870 2.327756 3.386903
v 0.391259 2.568893 2.999063
v 0.225900 2.734258 2.733095
v 0.000000 2.794786 2.635743
v -0.225898 2.734258 2.733095
v -0.391257 2.568893 2.999063
v -0.571805 2.342996 3.362392
v -0.455869 2.327756 3.386903
v -0.455623 1.540524 2.078410
v -0.391260 1.300310 2.078410
v -0.455869 2.327756 2.078410
v -0.455869 2.327756 3.386903
v -0.391257 2.568893 2.999063
v -0.391257 2.568893 2.078410
v 0.285909 2.794471 2.253823
v -0.285909 2.794471 2.253823
v -0.495198 2.495093 2.592539
v -0.571805 2.095543 3.052382
v 0.495198 2.495093 2.592539
v 0.571805 2.095543 3.052382
v -1.880797 1.508219 3.695196
v -2.166449 1.031323 3.514325
v -3.023899 1.487108 2.817230
v -2.947548 1.201880 2.900000
v -3.023900 1.486843 2.817035
v -2.738248 1.031323 3.125000
v -2.452349 0.954401 3.334900
v -1.987150 2.628902 2.676182
v -1.880798 1.663426 3.512506
v -1.880543 2.342996 3.056124
v -1.880762 1.791214 3.776863
v -1.880797 1.525263 3.776863
v -1.957149 1.240300 3.776863
v -2.166439 2.838197 2.405221
v -2.452349 2.914804 2.282006
v -2.452349 2.895593 2.136348
v -2.738258 2.838197 2.405221
v -2.917550 2.628902 2.676182
v -2.166449 1.031007 3.776863
v -2.452349 0.954401 3.776863
v -2.738248 1.031007 3.776863
v -2.947548 1.240300 3.776863
v -1.996692 1.791214 3.776863
v -1.996726 1.540524 3.776863
v -2.061089 1.300310 3.776863
v -2.226458 1.134946 3.776863
v -2.452349 1.074419 3.776863
v -2.678239 1.134946 3.776863
v -2.843608 1.300310 3.776863
v -2.907971 1.540524 3.776863
v -3.023900 1.525263 3.776863
v -2.908004 1.791214 3.776863
v -3.023934 1.791214 3.776863
v -2.061089 1.300310 1.700000
v -2.226458 1.134946 1.700000
v -2.452349 1.074419 3.776863
v -2.452349 1.074420 1.700000
v -2.678239 1.134946 1.700000
v -2.678239 1.134946 3.776863
v -2.843608 1.300310 1.700000
v -1.996726 1.540524 1.700000
v -2.061089 1.300310 1.700000
v -1.996478 2.327756 1.700000
v -1.996478 2.327756 3.080635
v -2.061090 2.568893 2.767496
v -2.061090 2.568893 1.700000
v -2.061090 2.568893 1.700000
v -2.226449 2.734258 2.552667
v -2.226449 2.734258 1.700000
v -2.452349 2.794786 2.475042
v -2.452349 2.794786 1.700000
v -2.678247 2.734258 1.700000
v -2.678247 2.734258 2.552667
v -2.843606 2.568893 1.700000
v -2.843606 2.568893 2.767496
v -2.452349 2.794786 2.475042
v -3.024154 2.342996 3.056124
v -2.908218 2.327756 3.080635
v -2.907971 1.540524 1.700000
v -2.843608 1.300310 1.700000
v -2.908218 2.327756 1.700000
v -2.843606 2.568893 1.700000
v -2.166439 2.794471 2.255000
v -2.738258 2.794471 2.258076
v -2.947546 2.495093 2.595323
v -3.024154 2.292452 2.817547
v -1.957151 2.495093 2.587092
v -1.880543 2.095543 3.028647
v 1.957149 1.201880 3.659083
v 1.880797 1.508219 3.695196
v 2.166449 1.031323 3.514325
v 3.023899 1.487108 2.817230
v 2.947548 1.201880 2.900000
v 3.023900 1.486843 2.817035
v 2.738248 1.031323 3.125000
v 2.452349 0.954401 3.334900
v 2.947546 2.495093 2.595323
v 1.880798 1.663426 3.512506
v 2.738258 2.794471 2.258076
v 1.880762 1.791214 3.776863
v 1.880797 1.525263 3.776863
v 1.957149 1.240300 3.776863
v 2.166439 2.794471 2.255000
v 2.908218 2.327756 3.080635
v 2.452349 2.895593 2.136348
v 3.024154 2.342996 3.056124
v 2.452349 2.794786 2.475042
v 2.166449 1.031007 3.776863
v 2.452349 0.954401 3.776863
v 2.738248 1.031007 3.776863
v 2.947548 1.240300 3.776863
v 1.996692 1.791214 3.776863
v 1.996726 1.540524 3.776863
v 2.061089 1.300310 3.776863
v 2.226458 1.134946 3.776863
v 2.452349 1.074419 3.776863
v 2.678239 1.134946 3.776863
v 2.843608 1.300310 3.776863
v 2.907971 1.540524 3.776863
v 3.023900 1.525263 3.776863
v 2.908004 1.791214 3.776863
v 3.023934 1.791214 3.776863
v 2.061091 1.300310 1.700000
v 2.226459 1.134946 1.700000
v 2.452349 1.074419 3.776863
v 2.452350 1.074420 1.700000
v 2.678240 1.134946 1.700000
v 2.678239 1.134946 3.776863
v 2.843610 1.300310 1.700000
v 1.996728 1.540524 1.700000
v 2.061091 1.300310 1.700000
v 1.996480 2.327756 1.700000
v 2.843606 2.568893 2.767496
v 2.678247 2.734258 2.552667
v 2.061092 2.568893 1.700000
v 2.061092 2.568893 1.700000
v 2.452349 2.794786 2.475042
v 2.226449 2.734258 2.552667
v 2.226451 2.734258 1.700000
v 2.061090 2.568893 2.767496
v 2.452350 2.794786 1.700000
v 2.678249 2.734258 1.700000
v 1.996478 2.327756 3.080635
v 2.843608 2.568893 1.700000
v 2.917550 2.628902 2.676182
v 2.738258 2.838197 2.405221
v 2.452349 2.914804 2.282006
v 2.166439 2.838197 2.405221
v 2.907973 1.540524 1.700000
v 2.843610 1.300310 1.700000
v 2.908220 2.327756 1.700000
v 1.880543 2.342996 3.056124
v 1.987150 2.628902 2.676182
v 2.843608 2.568893 1.700000
v 3.024154 2.292452 2.817547
v 1.957151 2.495093 2.587092
v 1.880543 2.095543 3.028647
v 3.024154 2.292452 2.817547
vn 1.0000 -0.0001 -0.0000
vn 0.9975 0.0553 -0.0442
vn 1.0000 -0.0002 -0.0000
vn 0.9985 0.0454 -0.0297
vn 0.9376 0.3170 -0.1430
vn 0.9981 -0.0608 0.0048
vn 1.0000 -0.0000 -0.0000
vn 0.9779 -0.2074 0.0269
vn 0.9586 0.2681 -0.0962
vn 0.5001 -0.8660 -0.0019
vn 0.5050 -0.8626 0.0299
vn 0.6597 -0.7405 0.1283
vn -0.0000 -1.0000 -0.0006
vn -0.0000 -1.0000 -0.0000
vn -0.5001 -0.8660 -0.0019
vn -0.5050 -0.8626 0.0299
vn -0.6597 -0.7405 0.1283
vn -0.9710 -0.2384 0.0186
vn -0.0000 -0.0000 1.0000
vn -0.7071 0.7071 -0.0000
vn -0.5000 0.8660 -0.0000
vn -0.0000 1.0000 -0.0000
vn 0.5000 0.8660 -0.0000
vn 0.7071 0.7071 -0.0000
vn -0.9659 0.2588 -0.0000
vn -0.9914 0.1307 -0.0000
vn -0.9914 0.1306 -0.0000
vn -1.0000 0.0002 -0.0000
vn -0.9915 -0.1304 -0.0000
vn -0.9989 -0.0468 -0.0000
vn -0.9659 -0.2588 -0.0000
vn -0.7071 -0.7071 -0.0000
vn -0.2588 -0.9659 -0.0000
vn -0.0001 -1.0000 -0.0000
vn 0.2588 -0.9659 -0.0000
vn 0.7071 -0.7071 -0.0000
vn -0.0000 0.8492 0.5280
vn 0.6361 -0.7499 0.1815
vn 0.9659 0.2588 -0.0000
vn 0.9914 0.1307 -0.0000
vn 0.9914 0.1306 -0.0000
vn 1.0000 0.0002 -0.0000
vn 0.9915 -0.1304 -0.0000
vn 0.9989 -0.0468 -0.0000
vn 1.0000 0.0004 -0.0000
vn 0.9659 -0.2588 -0.0000
vn 0.9640 0.2583 -0.0625
vn 0.2830 0.9571 -0.0616
vn 0.6416 0.7612 -0.0945
vn 0.3294 0.9393 -0.0955
vn -0.6362 -0.7499 0.1815
vn 0.3741 -0.9184 0.1287
vn -0.2830 0.9571 -0.0616
vn 0.5517 0.8229 -0.1361
vn -0.7717 0.6298 -0.0882
vn -0.8363 0.5316 -0.1341
vn -0.9586 0.2681 -0.0962
vn -0.9376 0.3170 -0.1430
vn -0.9985 0.0454 -0.0297
vn -0.9975 0.0553 -0.0442
vn -1.0000 -0.0002 -0.0000
vn -1.0000 -0.0004 -0.0000
vn -1.0000 -0.0001 -0.0000
vn -1.0000 -0.0000 -0.0000
vn 0.9684 -0.2466 0.0366
vn 0.9640 -0.2583 0.0625
vn 1.0000 -0.0003 -0.0000
vn 0.9989 0.0052 -0.0471
vn 0.9946 0.0379 -0.0961
vn 0.9479 0.2763 -0.1585
vn 0.9300 0.3328 -0.1562
vn 0.5002 -0.8659 -0.0007
vn 0.3990 -0.9169 -0.0011
vn 0.7071 -0.7071 -0.0009
vn -0.0965 -0.9953 -0.0004
vn -0.5001 -0.8660 -0.0003
vn -0.5559 -0.8310 0.0192
vn -0.6935 -0.7204 0.0083
vn -0.9666 -0.2560 0.0102
vn -0.9985 -0.0552 -0.0000
vn 0.0001 -1.0000 -0.0000
vn -0.0000 0.7921 0.6104
vn 0.0020 0.7922 0.6102
vn 0.0231 0.7940 0.6074
vn 0.0278 0.7952 0.6057
vn 0.0625 0.8074 0.5867
vn 0.0603 0.8096 0.5839
vn 0.0389 0.8100 0.5851
vn 0.0233 0.8225 0.5683
vn -0.0000 0.8373 0.5468
vn -0.0233 0.8225 0.5683
vn -0.0389 0.8100 0.5851
vn -0.0603 0.8096 0.5839
vn -0.0625 0.8074 0.5867
vn -0.0278 0.7952 0.6057
vn -0.0231 0.7940 0.6074
vn -0.0020 0.7922 0.6102
vn 0.9915 -0.1303 -0.0000
vn 0.9985 -0.0552 -0.0000
vn 0.9659 0.2588 -0.0113
vn 0.3065 0.9437 -0.1245
vn 0.3857 0.8963 -0.2188
vn 0.3415 0.9252 -0.1656
vn -0.6525 -0.7570 0.0332
vn 0.4181 -0.8708 0.2588
vn -0.3065 0.9437 -0.1245
vn 0.4146 0.8738 -0.2543
vn 0.8392 0.5221 -0.1520
vn 0.8616 0.4744 -0.1803
vn -0.8402 0.5198 -0.1545
vn -0.8628 0.4712 -0.1834
vn -0.9306 0.3277 -0.1630
vn -0.9409 0.3052 -0.1468
vn -0.9968 0.0783 -0.0186
vn -0.9861 0.1626 -0.0344
vn -1.0000 -0.0003 0.0001
vn -1.0000 -0.0003 -0.0000
vn -0.9989 0.0052 -0.0471
vn -0.9932 -0.1141 0.0238
vn -0.9850 -0.1678 0.0401
vn -0.5002 -0.8659 -0.0007
vn -0.6143 -0.7783 0.1298
vn -0.4075 -0.9130 0.0205
vn 0.0965 -0.9953 -0.0004
vn 0.5001 -0.8660 -0.0003
vn 0.5559 -0.8310 0.0192
vn 0.6935 -0.7204 0.0083
vn 0.9666 -0.2560 0.0102
vn -0.3415 0.9252 -0.1656
vn -0.3857 0.8963 -0.2188
vn 0.9409 0.3052 -0.1468
vn 0.9968 0.0783 -0.0186
vn 0.9735 0.2239 -0.0474
vn -0.8616 0.4744 -0.1803
vn -0.9479 0.2763 -0.1585
vn -0.9300 0.3328 -0.1562
vn 0.8628 0.4712 -0.1834
vn 0.9306 0.3277 -0.1630
vn -0.4146 0.8738 -0.2543
vn -0.4888 -0.8294 0.2706
vn -0.9946 0.0379 -0.0961
vn -0.9659 0.2588 -0.0113
vn -1.0000 -0.0001 -0.0001
vn 0.6525 -0.7570 0.0332
vn 0.8402 0.5198 -0.1545
vn 1.0000 -0.0003 0.0001
vn -0.4181 -0.8708 0.2588
vn -0.8392 0.5221 -0.1520
vn -0.9636 -0.2558 0.0777
vn -0.9625 -0.2579 0.0841
vn 0.9245 -0.3811 -0.0000
vn 0.8660 -0.5000 -0.0000
vn -0.8660 -0.5000 -0.0000
vn -0.9245 -0.3811 -0.0000
vt 0.000000 0.000000
vt 0.482693 -0.075966
vt 0.482686 -0.043814
vt 1.016776 0.521673
vt 0.485006 -0.027155
vt 0.491344 -0.075966
vt 0.491344 -0.071668
vt 0.485006 -0.075966
vt 0.500000 -0.072543
vt 0.500000 -0.075966
vt 0.508657 -0.075966
vt 0.508657 -0.071668
vt 0.514995 -0.075966
vt 0.517307 0.494902
vt 0.513796 0.494902
vt 0.517306 0.486403
vt 0.513795 0.486891
vt 0.514994 0.477296
vt 0.511847 0.479214
vt 0.508656 0.470608
vt 0.506839 0.473929
vt 0.500000 0.468159
vt 0.500000 0.471995
vt 0.493160 0.473929
vt 0.491343 0.470608
vt 0.488153 0.479214
vt 0.485005 0.477296
vt 0.486204 0.486891
vt 0.482694 0.486403
vt 0.486203 0.494902
vt 0.482693 0.494902
vt 0.511847 -0.075966
vt 0.511847 -0.016108
vt 0.506839 -0.075966
vt 0.506839 -0.016108
vt 0.500000 -0.016108
vt 0.493160 -0.016108
vt 0.493160 -0.075966
vt 0.488153 -0.016108
vt 0.488153 -0.075966
vt 1.016108 0.479214
vt 1.075966 0.479214
vt 1.016108 0.486891
vt 1.075966 0.486891
vt 1.075966 0.494902
vt 1.016108 0.512049
vt 1.044702 0.512049
vt 1.030652 0.519755
vt 1.016108 0.519755
vt 0.488153 -0.030652
vt 0.493160 -0.021016
vt 0.500000 -0.017490
vt 0.506840 -0.016108
vt 0.506840 -0.021016
vt 0.511847 -0.030652
vt 0.513796 -0.075966
vt 0.517307 -0.075966
vt 0.513803 -0.044702
vt 0.517313 -0.043814
vt 0.514994 -0.027155
vt 0.508657 -0.014960
vt 0.500000 -0.010496
vt 0.491343 -0.014960
vt 0.486196 -0.044702
vt 0.486203 -0.075966
vt -0.016108 0.479214
vt -0.016108 0.486891
vt -0.075966 0.479214
vt -0.075966 0.486891
vt -0.075966 0.494902
vt -0.016108 0.512049
vt -0.044702 0.512049
vt -0.030652 0.519755
vt -0.016108 0.519755
s 1
g vir_gun_305_x1_001_0.001_vir_gun_305_x1_001_0.001_steel_4
usemtl steel_4
f 10/1/1 77/1/2 12/2/3
f 11/3/4 12/1/3 77/1/2
f 76/4/5 11/3/4 77/1/2
f 2/1/6 10/1/7 13/1/8
f 9/5/9 11/3/4 76/4/5
f 20/6/10 3/7/11 14/8/12
f 3/7/11 20/6/10 8/9/13
f 21/10/14 8/9/13 20/6/10
f 21/10/14 22/11/15 8/9/13
f 7/12/16 8/9/13 22/11/15
f 22/11/15 23/13/17 7/12/16
f 5/1/18 32/1/18 6/1/18
f 12/14/19 24/15/19 13/16/19
f 25/17/19 13/16/19 24/15/19
f 13/16/19 25/17/19 14/18/19
f 26/19/19 14/18/19 25/17/19
f 14/18/19 26/19/19 20/20/19
f 27/21/19 20/20/19 26/19/19
f 20/20/19 27/21/19 21/22/19
f 28/23/19 21/22/19 27/21/19
f 28/23/19 29/24/19 21/22/19
f 22/25/19 21/22/19 29/24/19
f 29/24/19 30/26/19 22/25/19
f 23/27/19 22/25/19 30/26/19
f 30/26/19 31/28/19 23/27/19
f 32/29/19 23/27/19 31/28/19
f 31/28/19 33/30/19 32/29/19
f 34/31/19 32/29/19 33/30/19
f 26/32/20 35/33/20 27/34/21
f 36/35/21 27/34/21 35/33/20
f 27/34/21 36/35/21 37/10/22
f 38/36/22 37/10/22 36/35/21
f 38/36/22 39/37/23 37/10/22
f 40/38/23 37/10/22 39/37/23
f 39/37/23 41/39/24 40/38/23
f 30/40/24 40/38/23 41/39/24
f 43/41/25 26/42/25 42/43/26
f 25/44/27 42/43/26 26/42/25
f 24/45/28 42/43/26 25/44/27
f 42/43/26 24/45/28 44/46/29
f 45/47/30 44/46/29 24/45/28
f 45/47/30 46/48/31 44/46/29
f 47/49/31 44/46/29 46/48/31
f 50/50/32 49/51/32 48/39/32
f 51/37/32 48/39/32 49/51/32
f 49/51/33 52/52/34 51/37/33
f 53/36/14 51/37/33 52/52/14
f 53/36/14 52/52/14 54/53/35
f 55/54/35 54/53/35 52/52/14
f 54/53/36 55/54/36 56/33/36
f 57/55/36 56/33/36 55/54/36
f 24/56/37 12/57/37 58/58/37
f 11/59/37 58/58/37 12/57/37
f 58/58/37 11/59/37 59/55/37
f 9/60/37 59/55/37 11/59/37
f 59/55/37 9/60/37 60/54/37
f 15/61/37 60/54/37 9/60/37
f 60/54/37 15/61/37 61/52/37
f 16/62/37 61/52/37 15/61/37
f 16/62/37 18/63/37 61/52/37
f 62/51/37 61/52/37 18/63/37
f 18/63/37 19/5/37 62/51/37
f 63/50/37 62/51/37 19/5/37
f 19/5/37 64/3/37 63/50/37
f 65/64/37 63/50/37 64/3/37
f 64/3/37 34/2/37 65/64/37
f 33/65/37 65/64/37 34/2/37
f 1/1/38 14/1/12 3/7/11
f 67/66/39 66/67/40 30/68/39
f 31/69/41 30/68/39 66/67/40
f 66/67/40 33/70/42 31/69/41
f 66/67/40 68/71/43 33/70/42
f 69/72/44 33/70/45 68/71/43
f 69/72/44 68/71/43 70/73/46
f 71/74/46 70/73/46 68/71/43
f 5/1/47 32/1/47 23/1/47
f 16/62/48 15/61/49 17/1/50
f 13/1/1 10/1/1 12/1/3
f 7/1/16 23/1/17 5/1/51
f 18/1/52 73/1/52 17/1/52
f 17/1/53 18/1/53 16/62/53
f 15/1/49 72/1/54 17/1/50
f 15/1/49 9/5/9 72/1/54
f 72/1/54 9/5/9 76/4/5
f 18/1/55 73/1/56 19/5/57
f 73/1/56 74/4/58 19/5/57
f 19/5/57 74/4/58 64/3/59
f 74/4/58 75/1/60 64/3/59
f 64/3/59 75/1/60 34/2/61
f 4/1/62 34/1/61 75/1/60
f 32/1/63 34/1/61 4/1/62
f 6/1/64 32/1/63 4/1/62
f 1/1/65 13/1/8 14/1/66
f 2/1/6 13/1/8 1/1/65
f 86/1/67 145/1/68 88/2/67
f 87/3/69 88/1/67 145/1/68
f 144/4/70 87/3/69 145/1/68
f 78/1/7 86/1/67 89/1/1
f 85/5/71 87/3/69 144/4/70
f 96/6/72 79/7/73 90/8/74
f 79/7/73 96/6/72 84/9/75
f 97/10/14 84/9/75 96/6/72
f 97/10/14 98/11/76 84/9/75
f 83/12/77 84/9/75 98/11/76
f 98/11/76 99/13/78 83/12/77
f 81/1/79 108/1/79 82/1/79
f 88/14/19 100/15/19 89/16/19
f 101/17/19 89/16/19 100/15/19
f 89/16/19 101/17/19 90/18/19
f 102/19/19 90/18/19 101/17/19
f 90/18/19 102/19/19 96/20/19
f 103/21/19 96/20/19 102/19/19
f 96/20/19 103/21/19 97/22/19
f 104/23/19 97/22/19 103/21/19
f 104/23/19 105/24/19 97/22/19
f 98/25/19 97/22/19 105/24/19
f 105/24/19 106/26/19 98/25/19
f 99/27/19 98/25/19 106/26/19
f 106/26/19 107/28/19 99/27/19
f 108/29/19 99/27/19 107/28/19
f 107/28/19 109/30/19 108/29/19
f 110/31/19 108/29/19 109/30/19
f 102/32/20 111/33/20 103/34/21
f 112/35/21 103/34/21 111/33/20
f 103/34/21 112/35/21 113/10/22
f 114/36/22 113/10/22 112/35/21
f 114/36/22 115/37/23 113/10/22
f 116/38/23 113/10/22 115/37/23
f 115/37/23 117/39/24 116/38/23
f 106/40/24 116/38/23 117/39/24
f 119/41/25 102/42/25 118/43/26
f 101/44/27 118/43/26 102/42/25
f 100/45/28 118/43/26 101/44/27
f 118/43/26 100/45/28 120/46/29
f 121/47/80 120/46/29 100/45/28
f 121/47/80 122/48/31 120/46/29
f 123/49/31 120/46/29 122/48/31
f 122/50/32 125/51/32 124/39/32
f 126/37/32 124/39/32 125/51/32
f 125/51/33 127/52/34 126/37/33
f 128/36/14 126/37/33 127/52/81
f 128/36/14 127/52/81 129/53/35
f 130/54/35 129/53/35 127/52/81
f 129/53/36 130/54/36 131/33/36
f 132/55/36 131/33/36 130/54/36
f 100/56/82 88/57/83 121/58/84
f 87/59/85 121/58/84 88/57/83
f 121/58/84 87/59/85 122/55/86
f 85/60/87 122/55/86 87/59/85
f 122/55/86 85/60/87 125/54/88
f 91/61/89 125/54/88 85/60/87
f 125/54/88 91/61/89 133/52/90
f 92/62/37 133/52/90 91/61/89
f 92/62/37 94/63/91 133/52/90
f 130/51/92 133/52/90 94/63/91
f 94/63/91 95/5/93 130/51/92
f 132/50/94 130/51/92 95/5/93
f 95/5/93 134/3/95 132/50/94
f 135/64/96 132/50/94 134/3/95
f 134/3/95 110/2/97 135/64/96
f 109/65/82 135/64/96 110/2/97
f 137/66/39 136/67/40 106/68/39
f 107/69/41 106/68/39 136/67/40
f 136/67/40 109/70/42 107/69/41
f 136/67/40 138/71/98 109/70/42
f 135/72/99 109/70/42 138/71/98
f 135/72/99 138/71/98 132/73/46
f 139/74/46 132/73/46 138/71/43
f 81/1/100 108/1/100 99/1/100
f 92/62/101 91/61/102 93/1/103
f 89/1/1 86/1/67 88/1/67
f 83/1/77 99/1/78 81/1/104
f 94/1/105 141/1/105 93/1/105
f 93/1/106 94/1/106 92/62/106
f 91/1/102 140/1/107 93/1/103
f 91/1/108 85/5/71 140/1/109
f 140/1/109 85/5/71 144/4/70
f 94/1/110 141/1/111 95/5/112
f 141/1/111 142/4/113 95/5/112
f 95/5/112 142/4/113 134/3/114
f 142/4/113 143/1/115 134/3/114
f 134/3/114 143/1/115 110/2/61
f 80/1/116 110/1/61 143/1/115
f 110/1/61 80/1/116 108/29/63
f 155/1/62 157/2/117 214/1/118
f 147/1/119 158/1/120 155/1/64
f 165/6/121 159/8/122 148/7/123
f 148/7/123 153/9/124 165/6/121
f 166/10/14 165/6/121 153/9/124
f 166/10/14 153/9/124 167/11/125
f 152/12/126 167/11/125 153/9/124
f 167/11/125 152/12/126 168/13/127
f 150/1/128 151/1/128 177/1/128
f 157/14/19 158/16/19 169/15/19
f 170/17/19 169/15/19 158/16/19
f 158/16/19 159/18/19 170/17/19
f 171/19/19 170/17/19 159/18/19
f 159/18/19 165/20/19 171/19/19
f 172/21/19 171/19/19 165/20/19
f 165/20/19 166/22/19 172/21/19
f 173/23/19 172/21/19 166/22/19
f 173/23/19 166/22/19 174/24/19
f 167/25/19 174/24/19 166/22/19
f 174/24/19 167/25/19 175/26/19
f 168/27/19 175/26/19 167/25/19
f 175/26/19 168/27/19 176/28/19
f 177/29/19 176/28/19 168/27/19
f 176/28/19 177/29/19 178/30/19
f 179/31/19 178/30/19 177/29/19
f 171/32/24 172/34/23 180/33/24
f 181/35/23 180/33/24 172/34/23
f 172/34/23 182/10/22 181/35/23
f 183/36/22 181/35/23 182/10/22
f 183/36/22 182/10/22 184/37/21
f 185/38/21 184/37/21 182/10/22
f 184/37/21 185/38/21 186/39/20
f 175/40/20 186/39/20 185/38/21
f 188/41/39 187/43/40 171/42/39
f 170/44/41 171/42/39 187/43/40
f 169/45/42 170/44/41 187/43/40
f 187/43/40 189/46/43 169/45/42
f 178/65/82 179/2/83 161/64/84
f 204/62/106 162/1/129 205/61/130
f 163/3/85 161/64/84 179/2/83
f 161/64/84 163/3/85 190/50/86
f 202/5/87 190/50/86 163/3/85
f 190/50/86 202/5/87 191/51/88
f 203/63/89 191/51/88 202/5/87
f 191/51/88 203/63/89 164/52/90
f 204/62/37 164/52/90 203/63/89
f 204/62/37 205/61/91 164/52/90
f 195/54/92 164/52/90 205/61/91
f 205/61/91 210/60/93 195/54/92
f 154/4/131 163/3/132 215/1/133
f 160/1/134 213/4/135 210/5/136
f 156/1/137 202/5/138 154/4/131
f 162/1/101 204/62/101 203/1/101
f 205/1/130 162/1/129 160/1/139
f 197/55/94 195/54/92 210/60/93
f 210/60/93 209/59/95 197/55/94
f 169/56/82 200/58/96 157/57/97
f 146/1/140 148/7/123 159/1/122
f 207/66/25 175/68/25 206/67/26
f 176/69/27 206/67/26 175/68/25
f 206/67/26 176/69/27 178/70/28
f 206/67/26 178/70/28 208/71/29
f 210/5/136 213/4/135 209/3/141
f 213/4/135 214/1/118 209/3/141
f 209/3/141 214/1/118 157/1/117
f 150/1/142 168/1/142 177/1/142
f 158/1/143 157/1/117 155/1/62
f 152/1/126 150/1/144 168/1/127
f 203/1/145 202/5/138 156/1/137
f 163/3/132 179/2/146 215/1/133
f 202/5/138 163/3/132 154/4/131
f 203/1/147 162/1/147 156/1/147
f 205/1/148 160/1/134 210/5/136
f 200/58/96 197/55/94 209/59/95
f 209/59/95 157/57/97 200/58/96
f 149/1/146 212/1/146 179/1/3
f 146/1/149 159/1/150 158/1/120
f 147/1/119 146/1/149 158/1/120
f 179/1/3 177/29/1 149/1/146
f 189/46/43 200/58/99 169/56/42
f 200/58/99 189/46/43 197/55/151
f 197/55/151 189/46/43 193/1/152
f 197/55/151 193/1/152 195/54/36
f 196/1/36 195/54/36 193/1/152
f 195/54/35 196/1/35 194/1/81
f 196/1/35 198/1/14 194/1/81
f 199/1/33 194/1/81 198/1/14
f 194/1/34 199/1/33 191/1/33
f 211/1/153 191/1/32 199/1/32
f 191/1/32 211/1/153 190/50/154
f 211/1/153 208/1/29 190/50/154
f 190/50/154 208/1/29 161/64/80
f 178/65/28 161/64/80 208/1/29
l 82 80
l 80 81
l 189 192
l 199 201
l 194 164
l 149 150
l 127 133
l 154 212
