# Blender 5.1.0
# www.blender.org
mtllib vir_gun_305_x1_001_0_vir_gun_305_x1_001_0.mtl
o vir_gun_305_x1_001_0_vir_gun_305_x1_001_0
v -4.297553 1.830182 0.260894
v 4.297562 2.019037 0.369930
v -4.297553 2.019037 0.369930
v 4.297562 1.830181 0.260894
v -4.297553 1.641326 0.369930
v 4.297562 1.641326 0.369930
v -4.297553 2.019037 0.369930
v 4.297562 2.019037 0.588002
v -4.297553 2.019037 0.588002
v 4.297562 2.019037 0.369930
v 4.297562 1.830181 0.697038
v -4.297553 2.019037 0.588002
v 4.297562 2.019037 0.588002
v -4.297553 1.830182 0.697038
v 4.297562 1.641326 0.588002
v -4.297553 1.641326 0.588002
v -4.297553 1.641326 0.588002
v 4.297562 1.641326 0.369930
v -4.297553 1.641326 0.369930
v 4.297562 1.641326 0.588002
v -4.297553 1.641326 0.588002
v -4.297553 2.019037 0.588002
v -4.297553 1.830182 0.697038
v -4.297553 1.830182 0.260894
v -4.297553 1.641326 0.369930
v -4.297553 2.019037 0.369930
v 4.297562 2.019037 0.369930
v 4.297562 1.830181 0.697038
v 4.297562 2.019037 0.588002
v 4.297562 1.641326 0.369930
v 4.297562 1.830181 0.260894
v 4.297562 1.641326 0.588002
v 0.800812 2.932512 -5.481383
v 1.248578 1.048404 -5.392179
v 1.248578 2.940307 -5.392180
v 0.797328 1.048404 -5.481957
v 0.000000 2.928024 -5.532928
v 0.000000 1.048404 -5.533038
v -0.797327 1.048404 -5.481957
v -0.800811 2.932512 -5.481383
v -1.248577 1.048404 -5.392179
v -1.248577 2.940307 -5.392180
v 0.800812 2.932502 -5.217873
v 1.248578 2.940307 -5.392180
v 1.248578 2.940297 -5.128670
v 0.800812 2.932512 -5.481383
v 0.000000 2.928015 -5.269417
v 0.000000 2.928024 -5.532928
v -0.800811 2.932502 -5.217873
v -0.800811 2.932512 -5.481383
v -1.248577 2.940297 -5.128670
v -1.248577 2.940307 -5.392180
v 1.248578 2.940297 -5.128670
v 1.248578 1.048404 -5.392179
v 1.248578 1.048394 -5.128669
v 1.248578 2.940307 -5.392180
v 0.797328 1.048404 -5.481957
v 1.248578 1.048394 -5.128669
v 1.248578 1.048404 -5.392179
v 0.797328 1.048394 -5.218447
v 0.000000 1.048404 -5.533038
v 0.000000 1.048394 -5.269527
v -0.797327 1.048404 -5.481957
v -0.797327 1.048394 -5.218447
v -1.248577 1.048404 -5.392179
v -1.248577 1.048394 -5.128669
v -1.248577 1.048394 -5.128669
v -1.248577 2.940307 -5.392180
v -1.248577 2.940297 -5.128670
v -1.248577 1.048404 -5.392179
v 3.414137 0.736298 -3.126365
v 3.107777 3.340159 -4.185016
v 3.107777 0.736298 -4.185015
v 3.360604 3.416595 -3.311355
v 4.051278 2.528960 -0.924679
v 4.051278 0.736297 -0.924678
v 4.155465 2.291011 -0.000001
v 4.155465 0.736298 -0.000001
v 4.051280 2.188167 0.924670
v 4.051280 0.736298 0.924671
v 3.743949 0.736297 1.802982
v 3.743947 2.275590 1.802981
v 3.248875 2.501390 2.590884
v 3.248875 0.736298 2.590884
v 3.107777 0.736298 -4.185015
v 2.801427 3.307228 -4.561419
v 2.801427 0.736297 -4.561419
v 3.107777 3.340159 -4.185016
v 2.234064 3.279004 -4.884013
v 2.801427 0.736297 -4.561419
v 2.801427 3.307228 -4.561419
v 2.234064 0.736297 -4.884012
v 1.554675 3.257768 -5.126735
v 1.554675 0.736297 -5.126733
v 0.797328 3.244586 -5.277412
v 0.797328 0.736297 -5.277411
v 0.000000 3.240117 -5.328493
v 0.000000 0.736297 -5.328492
v -0.797327 0.736297 -5.277411
v -0.797327 3.244586 -5.277412
v -1.554675 0.736297 -5.126733
v -1.554675 3.257768 -5.126735
v -2.234062 0.736297 -4.884012
v -2.234062 3.279004 -4.884013
v -2.801426 0.736297 -4.561419
v -2.801426 3.307228 -4.561419
v 3.743947 2.275590 1.802981
v 2.524766 3.088360 1.924670
v 4.051280 2.188167 0.924670
v 4.155465 2.291011 -0.000001
v 4.051278 2.528960 -0.924679
v 3.043524 3.482780 -2.554847
v 3.360604 3.416595 -3.311355
v 1.802985 1.463710 3.743939
v 0.495199 1.201879 4.091141
v 1.802991 0.736298 3.743941
v 0.924683 0.736297 4.051276
v 0.924682 1.220407 4.051275
v 0.571550 1.201853 4.091064
v 0.000000 0.736297 4.155463
v -0.924681 0.736297 4.051276
v -0.924681 1.220407 4.051275
v -0.571550 1.201853 4.091064
v -1.802985 1.463710 3.743939
v -1.802991 0.736298 3.743941
v -2.590895 0.736298 3.248869
v 0.571552 1.486843 3.757945
v 0.285900 1.031323 4.120032
v 0.000000 3.088360 1.924670
v -3.248874 2.501390 2.590884
v -0.571550 1.663426 3.553032
v -3.107777 3.340159 -4.185016
v -3.414137 0.736298 -3.126365
v -3.107777 0.736298 -4.185015
v -3.360604 3.416595 -3.311355
v -4.051276 2.528960 -0.924679
v -4.051278 0.736297 -0.924678
v -4.155464 2.291011 -0.000001
v -4.155465 0.736298 -0.000001
v -4.051279 2.188167 0.924670
v -4.051279 0.736298 0.924671
v -3.743947 0.736297 1.802982
v -3.743945 2.275590 1.802981
v -0.495199 1.201879 4.091141
v -3.248874 0.736298 2.590884
v -0.571552 1.486843 3.757945
v -2.590895 0.736298 3.248869
v -3.107777 0.736298 -4.185015
v -2.801426 3.307228 -4.561419
v -3.107777 3.340159 -4.185016
v -2.801426 0.736297 -4.561419
v -3.743945 2.275590 1.802981
v -2.524120 3.088360 1.924670
v -0.285900 1.031323 4.120032
v -4.051279 2.188167 0.924670
v -4.155464 2.291011 -0.000001
v -4.051276 2.528960 -0.924679
v -3.043522 3.482780 -2.554847
v -3.360604 3.416595 -3.311355
v 0.000000 0.954401 4.155396
v 0.571550 1.663426 3.553032
v 0.000000 2.895593 2.144450
v 0.285909 2.794471 2.253823
v -0.285909 2.794471 2.253823
v -0.495198 2.495093 2.592539
v -0.571805 2.095543 3.052382
v 0.495198 2.495093 2.592539
v 0.571805 2.095543 3.052382
v -1.957149 1.201880 3.659083
v -1.880797 1.508219 3.695196
v -2.166449 1.031323 3.514325
v -3.023899 1.487108 2.817230
v -2.947548 1.201880 2.900000
v -2.738248 1.031323 3.125000
v -2.452349 0.954401 3.334900
v -1.880798 1.663426 3.512506
v -1.880797 1.525263 3.776863
v -1.957149 1.240300 3.776863
v -2.452349 2.895593 2.136348
v -2.166439 2.794471 2.255000
v -2.738258 2.794471 2.258076
v -2.947546 2.495093 2.595323
v -3.024154 2.292452 2.817547
v -1.957151 2.495093 2.587092
v -1.880543 2.095543 3.028647
v 2.590895 0.736298 3.248869
v 1.957149 1.201880 3.659083
v 1.880797 1.508219 3.695196
v 2.166449 1.031323 3.514325
v 3.023899 1.487108 2.817230
v 2.947548 1.201880 2.900000
v 2.738248 1.031323 3.125000
v 2.452349 0.954401 3.334900
v 2.947546 2.495093 2.595323
v 1.880798 1.663426 3.512506
v 2.738258 2.794471 2.258076
v 2.166439 2.794471 2.255000
v 2.452349 2.895593 2.136348
v 3.024154 2.292452 2.817547
v 1.957151 2.495093 2.587092
v 1.880543 2.095543 3.028647
v -1.261748 3.255774 -4.775596
v 1.261755 3.451193 -4.775589
v -1.261748 3.451193 -4.775589
v 1.261755 3.255774 -4.775596
v -1.261748 3.451193 -4.775589
v 1.261755 3.526492 -3.990993
v -1.261748 3.526492 -3.990993
v 1.261755 3.451193 -4.775589
v -1.261748 3.526492 -3.990993
v 1.261754 3.444065 -2.917220
v -1.261748 3.444065 -2.917220
v 1.261755 3.526492 -3.990993
v -1.261748 3.444065 -2.917220
v -1.261748 3.451193 -4.775589
v -1.261748 3.526492 -3.990993
v -1.261748 3.255774 -4.775596
v 1.261755 3.451193 -4.775589
v 1.261754 3.444065 -2.917220
v 1.261755 3.526492 -3.990993
v 1.261755 3.255774 -4.775596
v -1.043780 3.380497 -3.674912
v -1.043780 3.849661 -4.583062
v -1.043780 3.849661 -3.674913
v -1.043780 3.380497 -4.583099
v -1.043780 3.849661 -4.583062
v -0.663413 3.849661 -3.674911
v -1.043780 3.849661 -3.674913
v -0.663413 3.849661 -4.583061
v -0.663413 3.380497 -3.674911
v -0.663413 3.849661 -4.583061
v -0.663413 3.380497 -4.583098
v -0.663413 3.849661 -3.674911
v -0.969939 3.552053 -3.674912
v -1.043780 3.849661 -3.674913
v -0.969939 3.776084 -3.674912
v -0.737255 3.776084 -3.674912
v -1.043780 3.380497 -3.674912
v -0.663413 3.849661 -3.674911
v -0.663413 3.380497 -3.674911
v -0.737255 3.552053 -3.674911
v 1.261755 3.863916 -4.775589
v -1.261748 3.863916 -4.775589
v -1.261748 3.863916 -4.775589
v 1.261755 3.863916 -3.990992
v -1.261748 3.863916 -3.990992
v 1.261755 3.863916 -4.775589
v -1.261748 3.863916 -3.990992
v 1.261755 3.863916 -3.990992
v -1.261748 3.863916 -4.775589
v -1.261748 3.863916 -3.990992
v 1.261755 3.863916 -4.775589
v 1.261755 3.863916 -3.990992
v 1.043784 3.380497 -3.674913
v 1.043784 3.849661 -4.583062
v 1.043784 3.380497 -4.583099
v 1.043784 3.849661 -3.674913
v 1.043784 3.849661 -4.583062
v 0.663419 3.849661 -3.674911
v 0.663419 3.849661 -4.583061
v 1.043784 3.849661 -3.674913
v 0.663419 3.380497 -3.674911
v 0.663419 3.849661 -4.583061
v 0.663419 3.849661 -3.674911
v 0.663419 3.380497 -4.583098
v 1.043784 3.849661 -3.674913
v 0.969943 3.552053 -3.674912
v 0.969943 3.776084 -3.674912
v 0.737261 3.776084 -3.674912
v 1.043784 3.380497 -3.674913
v 0.663419 3.849661 -3.674911
v 0.663419 3.380497 -3.674911
v 0.737261 3.552053 -3.674911
v 0.421771 3.380497 -3.674913
v 0.421771 3.849661 -4.583062
v 0.421771 3.380497 -4.583099
v 0.421771 3.849661 -3.674913
v 0.421771 3.849661 -4.583062
v 0.041406 3.849661 -3.674911
v 0.041406 3.849661 -4.583061
v 0.421771 3.849661 -3.674913
v 0.041406 3.380497 -3.674911
v 0.041406 3.849661 -4.583061
v 0.041406 3.849661 -3.674911
v 0.041406 3.380497 -4.583098
v 0.421771 3.849661 -3.674913
v 0.347929 3.552053 -3.674912
v 0.347929 3.776084 -3.674912
v 0.115247 3.776084 -3.674912
v 0.421771 3.380497 -3.674913
v 0.041406 3.849661 -3.674911
v 0.041406 3.380497 -3.674911
v 0.115247 3.552053 -3.674911
v -0.773334 3.180559 -0.002674
v -0.773334 3.280559 0.026586
v -0.700175 3.180559 0.004532
v -0.705883 3.280559 0.033229
v -0.629827 3.180559 0.025872
v -0.641024 3.280559 0.052904
v -0.564995 3.180559 0.060525
v -0.581251 3.280559 0.084854
v -0.508169 3.180559 0.107161
v -0.528858 3.280559 0.127851
v -0.461533 3.180559 0.163988
v -0.485861 3.280559 0.180243
v -0.426879 3.180559 0.228820
v -0.453911 3.280559 0.240017
v -0.405539 3.180559 0.299168
v -0.434236 3.280559 0.304876
v -0.398334 3.180559 0.372326
v -0.427593 3.280559 0.372326
v -0.405539 3.180559 0.445485
v -0.434236 3.280559 0.439777
v -0.426879 3.180559 0.515833
v -0.453911 3.280559 0.504636
v -0.461533 3.180559 0.580665
v -0.485861 3.280559 0.564410
v -0.508169 3.180559 0.637491
v -0.528858 3.280559 0.616802
v -0.564995 3.180559 0.684128
v -0.581251 3.280559 0.659799
v -0.629827 3.180559 0.718781
v -0.641024 3.280559 0.691749
v -0.700175 3.180559 0.740121
v -0.705883 3.280559 0.711424
v -0.773334 3.180559 0.747326
v -0.773334 3.280560 0.718067
v -0.846493 3.180559 0.740121
v -0.840784 3.280560 0.711424
v -0.916840 3.180559 0.718781
v -0.905643 3.280559 0.691749
v -0.981673 3.180559 0.684128
v -0.965417 3.280559 0.659799
v -1.038499 3.180559 0.637491
v -1.017809 3.280559 0.616802
v -1.085135 3.180559 0.580665
v -1.060806 3.280559 0.564410
v -1.119788 3.180559 0.515833
v -1.092756 3.280559 0.504636
v -1.141128 3.180559 0.445485
v -1.112431 3.280559 0.439777
v -1.148334 3.180559 0.372326
v -1.119074 3.280559 0.372326
v -1.141128 3.180559 0.299168
v -1.112431 3.280559 0.304876
v -1.119788 3.180559 0.228820
v -1.092756 3.280559 0.240017
v -1.085135 3.180559 0.163988
v -1.060806 3.280559 0.180243
v -1.038499 3.180559 0.107161
v -1.017809 3.280559 0.127851
v -0.981673 3.180559 0.060525
v -0.965417 3.280559 0.084854
v -0.916840 3.180559 0.025872
v -0.905643 3.280559 0.052904
v -0.846493 3.180559 0.004532
v -0.840784 3.280559 0.033229
v -0.700175 3.280559 0.004532
v -0.773334 3.280559 -0.002674
v -0.629827 3.280559 0.025872
v -0.564995 3.280559 0.060525
v -0.508169 3.280559 0.107161
v -0.461533 3.280559 0.163988
v -0.426879 3.280559 0.228820
v -0.405539 3.280559 0.299168
v -0.398334 3.280559 0.372326
v -0.405539 3.280559 0.445485
v -0.426879 3.280559 0.515833
v -0.461533 3.280559 0.580665
v -0.508169 3.280559 0.637491
v -0.564995 3.280559 0.684128
v -0.629827 3.280559 0.718781
v -0.700175 3.280559 0.740121
v -0.773334 3.280560 0.747326
v -0.846493 3.280560 0.740121
v -0.916840 3.280559 0.718781
v -0.981673 3.280559 0.684128
v -1.038499 3.280559 0.637491
v -1.085135 3.280559 0.580665
v -1.119788 3.280559 0.515833
v -1.141128 3.280559 0.445485
v -1.148334 3.280559 0.372326
v -1.141128 3.280559 0.299168
v -1.119788 3.280559 0.228820
v -1.085135 3.280559 0.163988
v -1.038499 3.280559 0.107161
v -0.981673 3.280559 0.060525
v -0.916840 3.280559 0.025872
v -0.846493 3.280559 0.004532
v -0.711664 3.350000 0.062291
v -0.773334 3.350000 0.056217
v -0.652364 3.350000 0.080280
v -0.597713 3.350000 0.109491
v -0.549811 3.350000 0.148804
v -0.510499 3.350000 0.196706
v -0.481287 3.350000 0.251357
v -0.463299 3.350000 0.310657
v -0.457225 3.350000 0.372326
v -0.463299 3.350000 0.433996
v -0.481287 3.350000 0.493296
v -0.510499 3.350000 0.547947
v -0.549811 3.350000 0.595849
v -0.597713 3.350000 0.635161
v -0.652364 3.350000 0.664373
v -0.711664 3.350000 0.682361
v -0.773334 3.350000 0.688435
v -0.835003 3.350000 0.682361
v -0.894303 3.350000 0.664373
v -0.948954 3.350000 0.635161
v -0.996856 3.350000 0.595849
v -1.036169 3.350000 0.547947
v -1.065380 3.350000 0.493296
v -1.083369 3.350000 0.433996
v -1.089443 3.350000 0.372326
v -1.083369 3.350000 0.310657
v -1.065380 3.350000 0.251357
v -1.036169 3.350000 0.196706
v -0.996856 3.350000 0.148804
v -0.948954 3.350000 0.109491
v -0.894303 3.350000 0.080280
v -0.835003 3.350000 0.062291
v -0.705883 3.350000 0.033229
v -0.773334 3.350000 0.026586
v -0.641024 3.350000 0.052904
v -0.581251 3.350000 0.084854
v -0.528858 3.350000 0.127851
v -0.485861 3.350000 0.180243
v -0.453911 3.350000 0.240017
v -0.434236 3.350000 0.304876
v -0.427593 3.350000 0.372326
v -0.434236 3.350000 0.439777
v -0.453911 3.350000 0.504636
v -0.485861 3.350000 0.564410
v -0.528858 3.350000 0.616802
v -0.581251 3.350000 0.659799
v -0.641024 3.350000 0.691749
v -0.705883 3.350000 0.711424
v -0.773334 3.350000 0.718067
v -0.840784 3.350000 0.711424
v -0.905643 3.350000 0.691749
v -0.965417 3.350000 0.659799
v -1.017809 3.350000 0.616802
v -1.060806 3.350000 0.564410
v -1.092756 3.350000 0.504636
v -1.112431 3.350000 0.439777
v -1.119074 3.350000 0.372326
v -1.112431 3.350000 0.304876
v -1.092756 3.350000 0.240017
v -1.060806 3.350000 0.180243
v -1.017809 3.350000 0.127851
v -0.965417 3.350000 0.084854
v -0.905643 3.350000 0.052904
v -0.840784 3.350000 0.033229
v -0.711664 3.280560 0.062291
v -0.773334 3.280560 0.056217
v -0.652364 3.280560 0.080280
v -0.597713 3.280560 0.109491
v -0.549811 3.280560 0.148804
v -0.510499 3.280560 0.196706
v -0.481287 3.280560 0.251357
v -0.463299 3.280560 0.310657
v -0.457225 3.280560 0.372326
v -0.463299 3.280560 0.433996
v -0.481287 3.280560 0.493296
v -0.510499 3.280560 0.547947
v -0.549811 3.280560 0.595849
v -0.597713 3.280560 0.635161
v -0.652364 3.280560 0.664373
v -0.711664 3.280560 0.682361
v -0.773334 3.280560 0.688435
v -0.835003 3.280560 0.682361
v -0.894303 3.280560 0.664373
v -0.948954 3.280560 0.635161
v -0.996856 3.280560 0.595849
v -1.036169 3.280560 0.547947
v -1.065380 3.280560 0.493296
v -1.083369 3.280560 0.433996
v -1.089443 3.280560 0.372326
v -1.083369 3.280560 0.310657
v -1.065380 3.280560 0.251357
v -1.036169 3.280560 0.196706
v -0.996856 3.280560 0.148804
v -0.948954 3.280560 0.109491
v -0.894303 3.280560 0.080280
v -0.835003 3.280560 0.062291
v -2.307076 3.180559 -0.002674
v -2.307076 3.280559 0.026586
v -2.233918 3.180559 0.004532
v -2.239626 3.280559 0.033229
v -2.163570 3.180559 0.025872
v -2.174767 3.280559 0.052904
v -2.098738 3.180559 0.060525
v -2.114994 3.280559 0.084854
v -2.041912 3.180559 0.107161
v -2.062601 3.280559 0.127851
v -1.995275 3.180559 0.163988
v -2.019604 3.280559 0.180243
v -1.960622 3.180559 0.228820
v -1.987654 3.280559 0.240017
v -1.939282 3.180559 0.299168
v -1.967979 3.280559 0.304876
v -1.932077 3.180559 0.372326
v -1.961336 3.280559 0.372326
v -1.939282 3.180559 0.445485
v -1.967979 3.280559 0.439777
v -1.960622 3.180559 0.515833
v -1.987654 3.280559 0.504636
v -1.995275 3.180559 0.580665
v -2.019604 3.280559 0.564410
v -2.041912 3.180559 0.637491
v -2.062601 3.280559 0.616802
v -2.098738 3.180559 0.684128
v -2.114994 3.280559 0.659799
v -2.163570 3.180559 0.718781
v -2.174767 3.280559 0.691749
v -2.233918 3.180559 0.740121
v -2.239626 3.280559 0.711424
v -2.307076 3.180559 0.747326
v -2.307076 3.280560 0.718067
v -2.380235 3.180559 0.740121
v -2.374527 3.280560 0.711424
v -2.450583 3.180559 0.718781
v -2.439386 3.280559 0.691749
v -2.515415 3.180559 0.684128
v -2.499160 3.280559 0.659799
v -2.572242 3.180559 0.637491
v -2.551552 3.280559 0.616802
v -2.618878 3.180559 0.580665
v -2.594549 3.280559 0.564410
v -2.653532 3.180559 0.515833
v -2.626499 3.280559 0.504636
v -2.674871 3.180559 0.445485
v -2.646174 3.280559 0.439777
v -2.682076 3.180559 0.372326
v -2.652817 3.280559 0.372326
v -2.674871 3.180559 0.299168
v -2.646174 3.280559 0.304876
v -2.653532 3.180559 0.228820
v -2.626499 3.280559 0.240017
v -2.618878 3.180559 0.163988
v -2.594549 3.280559 0.180243
v -2.572242 3.180559 0.107161
v -2.551552 3.280559 0.127851
v -2.515415 3.180559 0.060525
v -2.499160 3.280559 0.084854
v -2.450583 3.180559 0.025872
v -2.439386 3.280559 0.052904
v -2.380235 3.180559 0.004532
v -2.374527 3.280559 0.033229
v -2.233918 3.280559 0.004532
v -2.307076 3.280559 -0.002674
v -2.163570 3.280559 0.025872
v -2.098738 3.280559 0.060525
v -2.041912 3.280559 0.107161
v -1.995275 3.280559 0.163988
v -1.960622 3.280559 0.228820
v -1.939282 3.280559 0.299168
v -1.932077 3.280559 0.372326
v -1.939282 3.280559 0.445485
v -1.960622 3.280559 0.515833
v -1.995275 3.280559 0.580665
v -2.041912 3.280559 0.637491
v -2.098738 3.280559 0.684128
v -2.163570 3.280559 0.718781
v -2.233918 3.280559 0.740121
v -2.307076 3.280560 0.747326
v -2.380235 3.280560 0.740121
v -2.450583 3.280559 0.718781
v -2.515415 3.280559 0.684128
v -2.572242 3.280559 0.637491
v -2.618878 3.280559 0.580665
v -2.653532 3.280559 0.515833
v -2.674871 3.280559 0.445485
v -2.682076 3.280559 0.372326
v -2.674871 3.280559 0.299168
v -2.653532 3.280559 0.228820
v -2.618878 3.280559 0.163988
v -2.572242 3.280559 0.107161
v -2.515415 3.280559 0.060525
v -2.450583 3.280559 0.025872
v -2.380235 3.280559 0.004532
v -2.245407 3.350000 0.062291
v -2.307076 3.350000 0.056217
v -2.186107 3.350000 0.080280
v -2.131456 3.350000 0.109491
v -2.083554 3.350000 0.148804
v -2.044241 3.350000 0.196706
v -2.015030 3.350000 0.251357
v -1.997042 3.350000 0.310657
v -1.990968 3.350000 0.372326
v -1.997042 3.350000 0.433996
v -2.015030 3.350000 0.493296
v -2.044241 3.350000 0.547947
v -2.083554 3.350000 0.595849
v -2.131456 3.350000 0.635161
v -2.186107 3.350000 0.664373
v -2.245407 3.350000 0.682361
v -2.307076 3.350000 0.688435
v -2.368746 3.350000 0.682361
v -2.428046 3.350000 0.664373
v -2.482697 3.350000 0.635161
v -2.530599 3.350000 0.595849
v -2.569911 3.350000 0.547947
v -2.599123 3.350000 0.493296
v -2.617112 3.350000 0.433996
v -2.623186 3.350000 0.372326
v -2.617112 3.350000 0.310657
v -2.599123 3.350000 0.251357
v -2.569911 3.350000 0.196706
v -2.530599 3.350000 0.148804
v -2.482697 3.350000 0.109491
v -2.428046 3.350000 0.080280
v -2.368746 3.350000 0.062291
v -2.239626 3.350000 0.033229
v -2.307076 3.350000 0.026586
v -2.174767 3.350000 0.052904
v -2.114994 3.350000 0.084854
v -2.062601 3.350000 0.127851
v -2.019604 3.350000 0.180243
v -1.987654 3.350000 0.240017
v -1.967979 3.350000 0.304876
v -1.961336 3.350000 0.372326
v -1.967979 3.350000 0.439777
v -1.987654 3.350000 0.504636
v -2.019604 3.350000 0.564410
v -2.062601 3.350000 0.616802
v -2.114994 3.350000 0.659799
v -2.174767 3.350000 0.691749
v -2.239626 3.350000 0.711424
v -2.307076 3.350000 0.718067
v -2.374527 3.350000 0.711424
v -2.439386 3.350000 0.691749
v -2.499160 3.350000 0.659799
v -2.551552 3.350000 0.616802
v -2.594549 3.350000 0.564410
v -2.626499 3.350000 0.504636
v -2.646174 3.350000 0.439777
v -2.652817 3.350000 0.372326
v -2.646174 3.350000 0.304876
v -2.626499 3.350000 0.240017
v -2.594549 3.350000 0.180243
v -2.551552 3.350000 0.127851
v -2.499160 3.350000 0.084854
v -2.439386 3.350000 0.052904
v -2.374527 3.350000 0.033229
v -2.245407 3.280560 0.062291
v -2.307076 3.280560 0.056217
v -2.186107 3.280560 0.080280
v -2.131456 3.280560 0.109491
v -2.083554 3.280560 0.148804
v -2.044241 3.280560 0.196706
v -2.015030 3.280560 0.251357
v -1.997042 3.280560 0.310657
v -1.990968 3.280560 0.372326
v -1.997042 3.280560 0.433996
v -2.015030 3.280560 0.493296
v -2.044241 3.280560 0.547947
v -2.083554 3.280560 0.595849
v -2.131456 3.280560 0.635161
v -2.186107 3.280560 0.664373
v -2.245407 3.280560 0.682361
v -2.307076 3.280560 0.688435
v -2.368746 3.280560 0.682361
v -2.428046 3.280560 0.664373
v -2.482697 3.280560 0.635161
v -2.530599 3.280560 0.595849
v -2.569911 3.280560 0.547947
v -2.599123 3.280560 0.493296
v -2.617112 3.280560 0.433996
v -2.623186 3.280560 0.372326
v -2.617112 3.280560 0.310657
v -2.599123 3.280560 0.251357
v -2.569911 3.280560 0.196706
v -2.530599 3.280560 0.148804
v -2.482697 3.280560 0.109491
v -2.428046 3.280560 0.080280
v -2.368746 3.280560 0.062291
v 2.307080 3.180559 -0.002674
v 2.307080 3.280559 0.026586
v 2.380239 3.180559 0.004532
v 2.374531 3.280559 0.033229
v 2.450586 3.180559 0.025872
v 2.439389 3.280559 0.052904
v 2.515419 3.180559 0.060525
v 2.499163 3.280559 0.084854
v 2.572245 3.180559 0.107161
v 2.551556 3.280559 0.127851
v 2.618881 3.180559 0.163988
v 2.594553 3.280559 0.180243
v 2.653535 3.180559 0.228820
v 2.626503 3.280559 0.240017
v 2.674875 3.180559 0.299168
v 2.646177 3.280559 0.304876
v 2.682080 3.180559 0.372326
v 2.652821 3.280559 0.372326
v 2.674875 3.180559 0.445485
v 2.646177 3.280559 0.439777
v 2.653535 3.180559 0.515833
v 2.626503 3.280559 0.504636
v 2.618881 3.180559 0.580665
v 2.594553 3.280559 0.564410
v 2.572245 3.180559 0.637491
v 2.551556 3.280559 0.616802
v 2.515419 3.180559 0.684128
v 2.499163 3.280559 0.659799
v 2.450586 3.180559 0.718781
v 2.439389 3.280559 0.691749
v 2.380239 3.180559 0.740121
v 2.374531 3.280559 0.711424
v 2.307080 3.180559 0.747326
v 2.307080 3.280560 0.718067
v 2.233921 3.180559 0.740121
v 2.239629 3.280560 0.711424
v 2.163574 3.180559 0.718781
v 2.174771 3.280559 0.691749
v 2.098741 3.180559 0.684128
v 2.114997 3.280559 0.659799
v 2.041915 3.180559 0.637491
v 2.062604 3.280559 0.616802
v 1.995279 3.180559 0.580665
v 2.019608 3.280559 0.564410
v 1.960625 3.180559 0.515833
v 1.987657 3.280559 0.504636
v 1.939286 3.180559 0.445485
v 1.967983 3.280559 0.439777
v 1.932080 3.180559 0.372326
v 1.961340 3.280559 0.372326
v 1.939286 3.180559 0.299168
v 1.967983 3.280559 0.304876
v 1.960625 3.180559 0.228820
v 1.987657 3.280559 0.240017
v 1.995279 3.180559 0.163988
v 2.019608 3.280559 0.180243
v 2.041915 3.180559 0.107161
v 2.062604 3.280559 0.127851
v 2.098741 3.180559 0.060525
v 2.114997 3.280559 0.084854
v 2.163574 3.180559 0.025872
v 2.174771 3.280559 0.052904
v 2.233921 3.180559 0.004532
v 2.239629 3.280559 0.033229
v 2.380239 3.280559 0.004532
v 2.307080 3.280559 -0.002674
v 2.450586 3.280559 0.025872
v 2.515419 3.280559 0.060525
v 2.572245 3.280559 0.107161
v 2.618881 3.280559 0.163988
v 2.653535 3.280559 0.228820
v 2.674875 3.280559 0.299168
v 2.682080 3.280559 0.372326
v 2.674875 3.280559 0.445485
v 2.653535 3.280559 0.515833
v 2.618881 3.280559 0.580665
v 2.572245 3.280559 0.637491
v 2.515419 3.280559 0.684128
v 2.450586 3.280559 0.718781
v 2.380239 3.280559 0.740121
v 2.307080 3.280560 0.747326
v 2.233921 3.280560 0.740121
v 2.163574 3.280559 0.718781
v 2.098741 3.280559 0.684128
v 2.041915 3.280559 0.637491
v 1.995279 3.280559 0.580665
v 1.960625 3.280559 0.515833
v 1.939286 3.280559 0.445485
v 1.932080 3.280559 0.372326
v 1.939286 3.280559 0.299168
v 1.960625 3.280559 0.228820
v 1.995279 3.280559 0.163988
v 2.041915 3.280559 0.107161
v 2.098741 3.280559 0.060525
v 2.163574 3.280559 0.025872
v 2.233921 3.280559 0.004532
v 2.368750 3.350000 0.062291
v 2.307080 3.350000 0.056217
v 2.428050 3.350000 0.080280
v 2.482701 3.350000 0.109491
v 2.530603 3.350000 0.148804
v 2.569915 3.350000 0.196706
v 2.599126 3.350000 0.251357
v 2.617115 3.350000 0.310657
v 2.623189 3.350000 0.372326
v 2.617115 3.350000 0.433996
v 2.599126 3.350000 0.493296
v 2.569915 3.350000 0.547947
v 2.530603 3.350000 0.595849
v 2.482701 3.350000 0.635161
v 2.428050 3.350000 0.664373
v 2.368750 3.350000 0.682361
v 2.307080 3.350000 0.688435
v 2.245410 3.350000 0.682361
v 2.186110 3.350000 0.664373
v 2.131459 3.350000 0.635161
v 2.083557 3.350000 0.595849
v 2.044245 3.350000 0.547947
v 2.015033 3.350000 0.493296
v 1.997045 3.350000 0.433996
v 1.990971 3.350000 0.372326
v 1.997045 3.350000 0.310657
v 2.015033 3.350000 0.251357
v 2.044245 3.350000 0.196706
v 2.083557 3.350000 0.148804
v 2.131459 3.350000 0.109491
v 2.186110 3.350000 0.080280
v 2.245410 3.350000 0.062291
v 2.374531 3.350000 0.033229
v 2.307080 3.350000 0.026586
v 2.439389 3.350000 0.052904
v 2.499163 3.350000 0.084854
v 2.551556 3.350000 0.127851
v 2.594553 3.350000 0.180243
v 2.626503 3.350000 0.240017
v 2.646177 3.350000 0.304876
v 2.652821 3.350000 0.372326
v 2.646177 3.350000 0.439777
v 2.626503 3.350000 0.504636
v 2.594553 3.350000 0.564410
v 2.551556 3.350000 0.616802
v 2.499163 3.350000 0.659799
v 2.439389 3.350000 0.691749
v 2.374531 3.350000 0.711424
v 2.307080 3.350000 0.718067
v 2.239629 3.350000 0.711424
v 2.174771 3.350000 0.691749
v 2.114997 3.350000 0.659799
v 2.062604 3.350000 0.616802
v 2.019608 3.350000 0.564410
v 1.987657 3.350000 0.504636
v 1.967983 3.350000 0.439777
v 1.961340 3.350000 0.372326
v 1.967983 3.350000 0.304876
v 1.987657 3.350000 0.240017
v 2.019608 3.350000 0.180243
v 2.062604 3.350000 0.127851
v 2.114997 3.350000 0.084854
v 2.174771 3.350000 0.052904
v 2.239629 3.350000 0.033229
v 2.368750 3.280560 0.062291
v 2.307080 3.280560 0.056217
v 2.428050 3.280560 0.080280
v 2.482701 3.280560 0.109491
v 2.530603 3.280560 0.148804
v 2.569915 3.280560 0.196706
v 2.599126 3.280560 0.251357
v 2.617115 3.280560 0.310657
v 2.623189 3.280560 0.372326
v 2.617115 3.280560 0.433996
v 2.599126 3.280560 0.493296
v 2.569915 3.280560 0.547947
v 2.530603 3.280560 0.595849
v 2.482701 3.280560 0.635161
v 2.428050 3.280560 0.664373
v 2.368750 3.280560 0.682361
v 2.307080 3.280560 0.688435
v 2.245410 3.280560 0.682361
v 2.186110 3.280560 0.664373
v 2.131459 3.280560 0.635161
v 2.083557 3.280560 0.595849
v 2.044245 3.280560 0.547947
v 2.015033 3.280560 0.493296
v 1.997045 3.280560 0.433996
v 1.990971 3.280560 0.372326
v 1.997045 3.280560 0.310657
v 2.015033 3.280560 0.251357
v 2.044245 3.280560 0.196706
v 2.083557 3.280560 0.148804
v 2.131459 3.280560 0.109491
v 2.186110 3.280560 0.080280
v 2.245410 3.280560 0.062291
vn -0.0000 0.5000 -0.8660
vn -0.0000 -0.5000 -0.8660
vn -0.0000 1.0000 -0.0000
vn -0.0000 0.5000 0.8660
vn -0.0000 -0.5000 0.8660
vn -0.0000 -1.0000 -0.0000
vn -1.0000 -0.0000 -0.0000
vn 1.0000 -0.0000 -0.0000
vn 0.1954 -0.0000 -0.9807
vn 0.1952 -0.0001 -0.9808
vn 0.1306 0.0001 -0.9914
vn 0.1298 -0.0000 -0.9915
vn -0.0000 0.0002 -1.0000
vn -0.0000 0.0001 -1.0000
vn -0.1298 -0.0000 -0.9915
vn -0.1306 0.0001 -0.9914
vn -0.1952 -0.0001 -0.9808
vn -0.1954 -0.0000 -0.9807
vn -0.0174 0.9998 -0.0000
vn -0.0120 0.9999 -0.0000
vn -0.0110 0.9999 -0.0000
vn 0.0120 0.9999 -0.0000
vn 0.0110 0.9999 -0.0000
vn 0.0174 0.9998 -0.0000
vn 0.9606 -0.0000 -0.2780
vn 0.9775 -0.0000 -0.2109
vn 0.9807 -0.0000 -0.1957
vn 0.9999 -0.0000 -0.0124
vn 0.9751 -0.0000 0.2220
vn 0.9749 -0.0000 0.2225
vn 0.9010 -0.0000 0.4338
vn 0.8960 -0.0000 0.4441
vn 0.7931 -0.0001 0.6091
vn 0.7860 -0.0040 0.6182
vn 0.9010 -0.0000 0.4339
vn 0.7756 -0.0000 -0.6312
vn 0.4943 -0.0000 -0.8693
vn 0.4188 -0.0000 -0.9081
vn 0.4169 -0.0000 -0.9089
vn 0.2675 -0.0000 -0.9635
vn 0.2665 -0.0000 -0.9638
vn 0.1303 -0.0000 -0.9915
vn -0.0000 -0.0000 -1.0000
vn -0.1303 -0.0000 -0.9915
vn -0.2665 -0.0000 -0.9638
vn -0.2675 -0.0000 -0.9635
vn -0.4169 -0.0000 -0.9089
vn -0.4188 -0.0000 -0.9081
vn -0.4943 -0.0000 -0.8693
vn 0.5615 0.8174 0.1286
vn 0.5589 0.8211 0.1159
vn 0.5589 0.8213 0.1145
vn 0.5709 0.8083 0.1439
vn 0.5691 0.8090 0.1471
vn 0.5567 0.8188 0.1401
vn 0.5424 0.8269 0.1485
vn 0.5376 0.8292 0.1528
vn 0.4320 -0.0053 0.9019
vn 0.4402 0.0123 0.8978
vn 0.2225 -0.0000 0.9749
vn 0.2326 -0.0000 0.9726
vn -0.2326 -0.0000 0.9726
vn -0.4402 0.0123 0.8978
vn -0.2225 -0.0000 0.9749
vn -0.4320 -0.0053 0.9019
vn -0.9606 -0.0000 -0.2780
vn -0.9775 -0.0000 -0.2109
vn -0.9807 -0.0000 -0.1957
vn -0.9999 -0.0000 -0.0124
vn -0.9751 -0.0000 0.2220
vn -0.9749 -0.0000 0.2225
vn -0.9010 -0.0000 0.4339
vn -0.8960 -0.0000 0.4441
vn -0.7931 -0.0001 0.6091
vn -0.7860 -0.0040 0.6182
vn -0.5099 -0.0083 0.8602
vn -0.5188 0.0286 0.8544
vn -0.7756 -0.0000 -0.6312
vn -0.5587 0.8212 0.1157
vn -0.5613 0.8175 0.1286
vn -0.5587 0.8214 0.1144
vn -0.5707 0.8084 0.1439
vn -0.5690 0.8091 0.1471
vn -0.5567 0.8188 0.1402
vn -0.5423 0.8269 0.1486
vn -0.5376 0.8292 0.1528
vn 0.0915 0.0306 0.9953
vn -0.0915 0.0306 0.9953
vn -0.0000 0.0040 1.0000
vn 0.0753 0.0486 0.9960
vn 0.0011 0.1658 0.9862
vn -0.0000 0.0003 1.0000
vn -0.0753 0.0486 0.9960
vn -0.0011 0.1658 0.9862
vn -0.0000 -0.7518 -0.6594
vn 0.0136 -0.7517 -0.6593
vn -0.0016 0.7460 0.6659
vn -0.0070 0.7490 0.6625
vn -0.0020 0.7469 0.6649
vn -0.0179 0.7548 0.6557
vn -0.0211 0.7565 0.6536
vn -0.0215 0.7571 0.6530
vn -0.0231 0.7568 0.6532
vn -0.0165 0.7598 0.6500
vn -0.0009 0.7599 0.6501
vn -0.0256 0.7551 0.6551
vn -0.0136 -0.7517 -0.6593
vn 0.0016 0.7460 0.6659
vn 0.0020 0.7469 0.6649
vn 0.0070 0.7490 0.6625
vn 0.0179 0.7548 0.6557
vn 0.0211 0.7565 0.6536
vn 0.0215 0.7571 0.6530
vn 0.0231 0.7568 0.6532
vn 0.0009 0.7599 0.6501
vn 0.0165 0.7598 0.6500
vn 0.0256 0.7551 0.6551
vn 0.4888 -0.8294 0.2706
vn 0.9636 -0.2558 0.0777
vn 0.9664 -0.2499 0.0597
vn 0.9625 -0.2579 0.0841
vn 0.9676 -0.2472 0.0516
vn -0.7104 -0.0005 0.7038
vn -0.7121 0.0016 0.7020
vn 0.0055 0.7380 0.6748
vn 0.0057 0.7428 0.6695
vn 0.0052 0.7424 0.6700
vn 0.0014 0.7494 0.6621
vn 0.0007 0.7499 0.6615
vn -0.0221 -0.7429 -0.6690
vn -0.0076 -0.7406 -0.6719
vn -0.0115 -0.7412 -0.6711
vn -0.0000 -0.7394 -0.6733
vn -0.0032 0.7573 0.6530
vn -0.0016 0.7523 0.6588
vn 0.0017 0.7423 0.6700
vn -0.0012 0.7445 0.6676
vn -0.0243 0.7582 0.6516
vn -0.0050 0.7487 0.6629
vn -0.7241 0.0108 0.6896
vn -0.6857 -0.0139 0.7277
vn -0.6098 0.0027 0.7926
vn -0.5485 0.0185 0.8360
vn -0.5389 -0.0083 0.8423
vn 0.5099 -0.0083 0.8602
vn 0.5188 0.0286 0.8544
vn 0.7104 -0.0005 0.7038
vn 0.7121 0.0016 0.7020
vn -0.0055 0.7380 0.6748
vn -0.0052 0.7424 0.6700
vn -0.0057 0.7428 0.6695
vn -0.0014 0.7494 0.6621
vn -0.0007 0.7499 0.6615
vn 0.0221 -0.7429 -0.6690
vn 0.0114 -0.7413 -0.6711
vn 0.0076 -0.7406 -0.6719
vn 0.0032 0.7573 0.6530
vn 0.0016 0.7523 0.6588
vn -0.0017 0.7423 0.6700
vn 0.0012 0.7445 0.6676
vn 0.0243 0.7582 0.6516
vn 0.0050 0.7487 0.6629
vn 0.7241 0.0108 0.6896
vn 0.6857 -0.0139 0.7277
vn 0.6098 0.0027 0.7926
vn 0.5485 0.0185 0.8360
vn 0.5389 -0.0083 0.8423
vn -0.0000 0.9971 0.0765
vn -0.0000 -0.0000 1.0000
vn 0.0980 -0.0000 -0.9952
vn 0.2903 -0.0000 -0.9569
vn 0.4714 -0.0000 -0.8819
vn 0.6344 -0.0000 -0.7730
vn 0.7730 -0.0000 -0.6344
vn 0.8819 -0.0000 -0.4714
vn 0.9569 -0.0000 -0.2903
vn 0.9952 -0.0000 -0.0980
vn 0.9952 -0.0000 0.0980
vn 0.9569 -0.0000 0.2903
vn 0.8819 -0.0000 0.4714
vn 0.7730 -0.0000 0.6344
vn 0.6344 -0.0000 0.7730
vn 0.4714 -0.0000 0.8819
vn 0.2903 -0.0000 0.9569
vn 0.0980 -0.0000 0.9952
vn -0.0980 -0.0000 0.9952
vn -0.2903 -0.0000 0.9569
vn -0.4714 -0.0000 0.8819
vn -0.6344 -0.0000 0.7730
vn -0.7730 -0.0000 0.6344
vn -0.8819 -0.0000 0.4714
vn -0.9569 -0.0000 0.2903
vn -0.9952 -0.0000 0.0980
vn -0.9952 -0.0000 -0.0980
vn -0.9569 -0.0000 -0.2903
vn -0.8819 -0.0000 -0.4714
vn -0.7730 -0.0000 -0.6344
vn -0.6344 -0.0000 -0.7730
vn -0.4714 -0.0000 -0.8819
vn -0.2903 -0.0000 -0.9569
vn -0.0980 -0.0000 -0.9952
vt 0.630126 0.502183
vt 0.369874 0.502183
vt 0.630126 0.496148
vt 0.369874 0.496148
vt 0.630126 0.490112
vt 0.369874 0.490112
vt 0.369874 0.024388
vt 0.630126 0.024388
vt 0.369874 0.030313
vt 0.630126 0.030313
vt 0.978575 0.496148
vt 0.975612 0.502183
vt 0.975612 0.490112
vt 0.966725 0.496148
vt 0.969687 0.490112
vt 0.969687 0.502183
vt 0.024388 0.502183
vt 0.021425 0.496148
vt 0.030313 0.502183
vt 0.030313 0.490112
vt 0.033275 0.496148
vt 0.024388 0.490112
vt 0.462195 0.531625
vt 0.462195 0.471164
vt 0.475752 0.531376
vt 0.475858 0.471164
vt 0.500000 0.531233
vt 0.500000 0.471164
vt 0.524143 0.471164
vt 0.524248 0.531376
vt 0.537806 0.471164
vt 0.537806 0.531625
vt 0.537805 0.179714
vt 0.537805 0.186874
vt 0.524248 0.182138
vt 0.524248 0.189298
vt 0.500000 0.183539
vt 0.500000 0.190698
vt 0.475752 0.182138
vt 0.475752 0.189298
vt 0.462194 0.179714
vt 0.462194 0.186874
vt 0.179714 0.471163
vt 0.186874 0.471164
vt 0.179714 0.531625
vt 0.186874 0.531625
vt 0.462195 0.186874
vt 0.462195 0.179714
vt 0.475858 0.189314
vt 0.475858 0.182154
vt 0.500000 0.190701
vt 0.500000 0.183542
vt 0.524143 0.189314
vt 0.524143 0.182154
vt 0.537806 0.186874
vt 0.537806 0.179714
vt 0.820286 0.531625
vt 0.813126 0.531625
vt 0.820286 0.471163
vt 0.813126 0.471164
vt 0.154074 0.461189
vt 0.154074 0.544404
vt 0.125310 0.461189
vt 0.130336 0.546846
vt 0.065488 0.518479
vt 0.065488 0.461189
vt 0.040364 0.510875
vt 0.040364 0.461189
vt 0.015240 0.507588
vt 0.015240 0.461189
vt -0.008624 0.461189
vt -0.008624 0.508784
vt -0.030032 0.514402
vt -0.030032 0.461189
vt 0.164302 0.461189
vt 0.164302 0.543351
vt 0.415176 0.543351
vt 0.415176 0.461189
vt 0.432355 0.542449
vt 0.432355 0.461189
vt 0.452926 0.541771
vt 0.452926 0.461189
vt 0.475858 0.541349
vt 0.475858 0.461189
vt 0.500000 0.541206
vt 0.500000 0.461189
vt 0.524143 0.461189
vt 0.524143 0.541349
vt 0.547074 0.461189
vt 0.547074 0.541771
vt 0.567645 0.461189
vt 0.567645 0.542449
vt 0.584825 0.461189
vt 0.584825 0.543351
vt 0.576428 0.015240
vt 0.598372 -0.030032
vt 0.613363 -0.008624
vt 0.622668 0.015240
vt 0.625823 0.040364
vt 0.622668 0.065488
vt 0.592155 0.109781
vt 0.601756 0.130336
vt 0.554592 0.461189
vt 0.554592 0.497219
vt 0.527998 0.461189
vt 0.527998 0.492639
vt 0.472001 0.492639
vt 0.445407 0.497219
vt 0.472001 0.461189
vt 0.445407 0.461189
vt 0.845925 0.461189
vt 0.874690 0.461189
vt 0.845925 0.544404
vt 0.869664 0.546846
vt 0.934512 0.518479
vt 0.934512 0.461189
vt 0.959636 0.510875
vt 0.959636 0.461189
vt 0.984760 0.507588
vt 0.984760 0.461189
vt 1.008624 0.461189
vt 1.008624 0.508784
vt 1.030032 0.514402
vt 1.030032 0.461189
vt 0.000000 0.000000
vt 0.835698 0.543351
vt 0.835698 0.461189
vt 0.401627 -0.030032
vt 0.423572 0.015240
vt 0.386637 -0.008624
vt 0.377331 0.015240
vt 0.374176 0.040364
vt 0.377331 0.065488
vt 0.407845 0.109781
vt 0.398244 0.130336
vt 0.491344 -0.071668
vt 0.500000 -0.072543
vt 0.508657 -0.071668
vt 1.016776 0.521673
vt 0.538205 0.562341
vt 0.461796 0.562341
vt 0.538205 0.541707
vt 0.461796 0.541707
vt 0.137356 0.562341
vt 0.170121 0.562341
vt 0.461795 0.119627
vt 0.538204 0.119627
vt 0.461795 0.137356
vt 0.538204 0.137356
vt 0.862644 0.562341
vt 0.829879 0.562341
vt 0.880373 0.545205
vt 0.829879 0.541707
vt 0.119627 0.545205
vt 0.170121 0.541707
vt 0.879503 0.560686
vt 0.854828 0.560686
vt 0.879503 0.545693
vt 0.854827 0.545693
vt 0.468395 0.120497
vt 0.479912 0.120497
vt 0.468395 0.145172
vt 0.479912 0.145172
vt 0.145173 0.545693
vt 0.145172 0.560686
vt 0.120497 0.545693
vt 0.120497 0.560686
vt 0.470631 0.558335
vt 0.468395 0.560686
vt 0.470631 0.551175
vt 0.477676 0.558335
vt 0.468395 0.545693
vt 0.479912 0.560686
vt 0.479912 0.545693
vt 0.477676 0.551175
vt 0.461795 0.170121
vt 0.538204 0.170121
vt 0.520087 0.145172
vt 0.520087 0.120497
vt 0.531605 0.145172
vt 0.531604 0.120497
vt 0.529369 0.558335
vt 0.529369 0.551175
vt 0.531604 0.560686
vt 0.522323 0.558335
vt 0.531604 0.545693
vt 0.520087 0.560686
vt 0.520087 0.545693
vt 0.522323 0.551175
vt 1.000000 1.000000
vt 0.968750 0.500000
vt 1.000000 0.500000
vt 0.968750 1.000000
vt 0.937500 0.500000
vt 0.937500 1.000000
vt 0.906250 0.500000
vt 0.906250 1.000000
vt 0.875000 0.500000
vt 0.875000 1.000000
vt 0.843750 0.500000
vt 0.843750 1.000000
vt 0.812500 0.500000
vt 0.812500 1.000000
vt 0.781250 0.500000
vt 0.781250 1.000000
vt 0.750000 0.500000
vt 0.750000 1.000000
vt 0.718750 0.500000
vt 0.718750 1.000000
vt 0.687500 0.500000
vt 0.687500 1.000000
vt 0.656250 0.500000
vt 0.656250 1.000000
vt 0.625000 0.500000
vt 0.625000 1.000000
vt 0.593750 0.500000
vt 0.593750 1.000000
vt 0.562500 0.500000
vt 0.562500 1.000000
vt 0.531250 0.500000
vt 0.531250 1.000000
vt 0.500000 0.500000
vt 0.500000 1.000000
vt 0.468750 0.500000
vt 0.437500 1.000000
vt 0.437500 0.500000
vt 0.406250 0.500000
vt 0.406250 1.000000
vt 0.375000 0.500000
vt 0.375000 1.000000
vt 0.343750 0.500000
vt 0.343750 1.000000
vt 0.312500 0.500000
vt 0.312500 1.000000
vt 0.281250 0.500000
vt 0.281250 1.000000
vt 0.250000 0.500000
vt 0.250000 1.000000
vt 0.218750 0.500000
vt 0.218750 1.000000
vt 0.187500 0.500000
vt 0.187500 1.000000
vt 0.156250 0.500000
vt 0.156250 1.000000
vt 0.125000 0.500000
vt 0.125000 1.000000
vt 0.093750 0.500000
vt 0.093750 1.000000
vt 0.062500 0.500000
vt 0.433983 0.127067
vt 0.406464 0.093536
vt 0.062500 1.000000
vt 0.031250 0.500000
vt 0.031250 1.000000
vt 0.000000 0.500000
vt 0.796822 0.014612
vt 0.514612 0.203178
vt 0.703178 0.485388
vt 0.250000 0.471274
vt 0.296822 0.485388
vt 0.250000 0.490000
vt 0.293168 0.467022
vt 0.341844 0.471731
vt 0.334678 0.454430
vt 0.383337 0.449553
vt 0.372933 0.433983
vt 0.419706 0.419706
vt 0.406464 0.406464
vt 0.449553 0.383337
vt 0.454430 0.334678
vt 0.433983 0.372933
vt 0.467022 0.293168
vt 0.471731 0.341844
vt 0.490000 0.250000
vt 0.485388 0.296822
vt 0.467022 0.206832
vt 0.471274 0.250000
vt 0.471731 0.158156
vt 0.485388 0.203178
vt 0.454430 0.165322
vt 0.449553 0.116663
vt 0.419706 0.080294
vt 0.372933 0.066017
vt 0.334678 0.045570
vt 0.383337 0.050447
vt 0.293168 0.032978
vt 0.341844 0.028269
vt 0.250000 0.010000
vt 0.296822 0.014612
vt 0.206832 0.032978
vt 0.250000 0.028726
vt 0.165322 0.045570
vt 0.203178 0.014612
vt 0.127067 0.066017
vt 0.158156 0.028269
vt 0.093536 0.093536
vt 0.116663 0.050447
vt 0.066017 0.127067
vt 0.080294 0.080294
vt 0.045570 0.165322
vt 0.050447 0.116663
vt 0.032978 0.206832
vt 0.028269 0.158156
vt 0.028726 0.250000
vt 0.014612 0.203178
vt 0.014612 0.296822
vt 0.010000 0.250000
vt 0.032978 0.293168
vt 0.028269 0.341844
vt 0.045570 0.334678
vt 0.050447 0.383337
vt 0.066017 0.372933
vt 0.080294 0.419706
vt 0.127067 0.433983
vt 0.093536 0.406464
vt 0.158156 0.471731
vt 0.116663 0.449553
vt 0.165322 0.454430
vt 0.203178 0.485388
vt 0.206832 0.467022
vt 0.047690 0.250000
vt 0.051578 0.289469
vt 0.289469 0.448422
vt 0.250000 0.452310
vt 0.327421 0.436910
vt 0.362397 0.418214
vt 0.393055 0.393055
vt 0.418214 0.362397
vt 0.436910 0.327421
vt 0.448422 0.289469
vt 0.448422 0.210531
vt 0.452310 0.250000
vt 0.436910 0.172579
vt 0.418214 0.137603
vt 0.393055 0.106945
vt 0.362397 0.081786
vt 0.327421 0.063090
vt 0.289469 0.051578
vt 0.210531 0.051578
vt 0.250000 0.047690
vt 0.172579 0.063090
vt 0.137603 0.081786
vt 0.106945 0.106945
vt 0.081786 0.137603
vt 0.063090 0.172579
vt 0.051578 0.210531
vt 0.063090 0.327421
vt 0.081786 0.362397
vt 0.106945 0.393055
vt 0.137603 0.418214
vt 0.172579 0.436910
vt 0.210531 0.448422
vt 0.468750 1.000000
vt 0.000000 1.000000
vt 0.750000 0.490000
vt 0.796822 0.485388
vt 0.841844 0.471731
vt 0.883337 0.449553
vt 0.919706 0.419706
vt 0.949553 0.383337
vt 0.971731 0.341844
vt 0.985388 0.296822
vt 0.990000 0.250000
vt 0.985388 0.203178
vt 0.971731 0.158156
vt 0.949553 0.116663
vt 0.919706 0.080294
vt 0.883337 0.050447
vt 0.841844 0.028269
vt 0.750000 0.010000
vt 0.703178 0.014612
vt 0.658156 0.028269
vt 0.616663 0.050447
vt 0.580294 0.080294
vt 0.550447 0.116663
vt 0.528269 0.158156
vt 0.510000 0.250000
vt 0.514612 0.296822
vt 0.528269 0.341844
vt 0.550447 0.383337
vt 0.580294 0.419706
vt 0.616663 0.449553
vt 0.658156 0.471731
s 1
g vir_gun_305_x1_001_0_vir_gun_305_x1_001_0_steel_4
usemtl steel_4
f 3/1/1 2/2/1 1/3/1
f 4/4/1 1/3/1 2/2/1
f 1/3/2 4/4/2 5/5/2
f 6/6/2 5/5/2 4/4/2
f 9/7/3 8/8/3 7/9/3
f 10/10/3 7/9/3 8/8/3
f 13/1/4 12/2/4 11/3/4
f 14/4/4 11/3/4 12/2/4
f 11/3/5 14/4/5 15/5/5
f 16/6/5 15/5/5 14/4/5
f 19/10/6 18/9/6 17/8/6
f 20/7/6 17/8/6 18/9/6
f 23/11/7 22/12/7 21/13/7
f 22/12/7 24/14/7 21/13/7
f 21/13/7 24/14/7 25/15/7
f 26/16/7 24/14/7 22/12/7
f 29/17/8 28/18/8 27/19/8
f 28/18/8 30/20/8 27/19/8
f 27/19/8 30/20/8 31/21/8
f 32/22/8 30/20/8 28/18/8
f 35/23/9 34/24/10 33/25/11
f 36/26/12 33/25/11 34/24/10
f 33/25/11 36/26/12 37/27/13
f 38/28/14 37/27/13 36/26/12
f 38/28/14 39/29/15 37/27/13
f 40/30/16 37/27/13 39/29/15
f 39/29/15 41/31/17 40/30/16
f 42/32/18 40/30/16 41/31/17
f 45/33/19 44/34/19 43/35/20
f 46/36/21 43/35/20 44/34/19
f 43/35/20 46/36/21 47/37/3
f 48/38/3 47/37/3 46/36/21
f 47/37/3 48/38/3 49/39/22
f 50/40/23 49/39/22 48/38/3
f 49/39/22 50/40/23 51/41/24
f 52/42/24 51/41/24 50/40/23
f 55/43/8 54/44/8 53/45/8
f 56/46/8 53/45/8 54/44/8
f 59/47/6 58/48/6 57/49/6
f 60/50/6 57/49/6 58/48/6
f 57/49/6 60/50/6 61/51/6
f 62/52/6 61/51/6 60/50/6
f 61/51/6 62/52/6 63/53/6
f 64/54/6 63/53/6 62/52/6
f 63/53/6 64/54/6 65/55/6
f 66/56/6 65/55/6 64/54/6
f 69/57/7 68/58/7 67/59/7
f 70/60/7 67/59/7 68/58/7
f 73/61/25 72/62/25 71/63/25
f 74/64/25 71/63/25 72/62/25
f 74/64/25 75/65/26 71/63/25
f 76/66/27 71/63/25 75/65/26
f 75/65/26 77/67/28 76/66/27
f 78/68/8 76/66/27 77/67/28
f 77/67/28 79/69/29 78/68/8
f 80/70/30 78/68/8 79/69/29
f 80/70/30 79/69/29 81/71/31
f 82/72/32 81/71/31 79/69/29
f 82/72/32 83/73/33 81/71/31
f 84/74/34 81/71/35 83/73/33
f 87/75/36 86/76/36 85/61/36
f 88/62/36 85/61/36 86/76/36
f 91/77/37 90/78/37 89/79/38
f 92/80/39 89/79/38 90/78/37
f 89/79/38 92/80/39 93/81/40
f 94/82/41 93/81/40 92/80/39
f 93/81/40 94/82/41 95/83/42
f 96/84/12 95/83/42 94/82/41
f 95/83/42 96/84/12 97/85/43
f 98/86/43 97/85/43 96/84/12
f 98/86/43 99/87/15 97/85/43
f 100/88/44 97/85/43 99/87/15
f 99/87/15 101/89/45 100/88/44
f 102/90/46 100/88/44 101/89/45
f 101/89/45 103/91/47 102/90/46
f 104/92/48 102/90/46 103/91/47
f 103/91/47 105/93/49 104/92/48
f 106/94/49 104/92/48 105/93/49
f 108/95/50 83/96/51 107/97/52
f 108/95/50 107/97/52 109/98/53
f 108/95/50 109/98/53 110/99/54
f 111/100/55 108/95/50 110/99/54
f 108/95/50 111/100/55 112/101/56
f 113/102/57 112/101/56 111/100/55
f 116/103/58 114/104/59 117/105/60
f 118/106/61 117/105/60 114/104/59
f 122/107/62 124/108/63 121/109/64
f 125/110/65 121/109/64 124/108/63
f 134/111/66 133/112/66 132/113/66
f 135/114/66 132/113/66 133/112/66
f 135/114/66 133/112/66 136/115/67
f 137/116/68 136/115/67 133/112/66
f 136/115/67 137/116/68 138/117/69
f 139/118/7 138/117/69 137/116/68
f 138/117/69 139/118/7 140/119/70
f 141/120/71 140/119/70 139/118/7
f 141/120/71 142/121/72 140/119/70
f 143/122/73 140/119/70 142/121/72
f 143/122/73 142/121/72 130/123/74
f 145/124/75 130/123/74 142/121/72
f 125/110/65 124/125/63 169/125/76
f 169/125/76 124/125/63 170/125/77
f 150/113/78 149/126/78 148/111/78
f 151/127/78 148/111/78 149/126/78
f 130/128/79 153/129/80 152/130/81
f 152/130/81 153/129/80 155/131/82
f 155/131/82 153/129/80 156/132/83
f 153/129/80 157/133/84 156/132/83
f 153/129/80 158/134/85 157/133/84
f 159/135/86 157/133/84 158/134/85
f 119/125/87 117/105/60 118/106/61
f 123/125/88 121/109/64 120/125/89
f 128/136/90 119/125/87 115/125/91
f 160/137/92 120/125/89 128/136/90
f 120/125/89 119/125/87 128/136/90
f 154/138/93 120/125/89 160/137/92
f 120/125/89 154/138/93 123/125/88
f 123/125/88 154/125/93 144/125/94
f 162/125/95 164/125/96 129/125/95
f 129/125/97 124/125/98 164/125/99
f 164/125/99 124/125/98 165/139/100
f 165/139/100 124/125/98 166/125/101
f 166/125/101 124/125/98 131/125/102
f 131/125/102 124/125/98 146/125/103
f 146/125/103 123/125/104 144/125/105
f 123/125/104 146/125/103 122/107/106
f 124/125/98 122/107/106 146/125/103
f 162/125/95 129/125/95 163/125/107
f 129/125/108 163/125/109 114/125/110
f 163/125/109 167/139/111 114/125/110
f 167/139/111 168/125/112 114/125/110
f 168/125/112 161/125/113 114/125/110
f 161/125/113 127/125/114 114/125/110
f 127/125/114 115/125/115 119/125/116
f 119/125/116 118/107/117 127/125/114
f 114/125/110 127/125/114 118/107/117
f 169/125/118 178/125/118 171/136/118
f 169/125/119 177/125/120 178/125/121
f 170/125/122 177/125/120 169/125/119
f 183/125/123 130/125/74 172/125/124
f 145/124/75 172/125/124 130/125/74
f 183/125/125 182/139/126 130/125/127
f 182/139/126 181/125/128 130/125/127
f 130/125/127 181/125/128 153/129/129
f 181/125/130 153/129/131 179/125/132
f 153/129/131 129/125/133 179/125/132
f 179/125/134 180/125/135 129/125/97
f 184/139/136 129/125/97 180/125/135
f 185/125/137 129/125/97 184/139/136
f 176/125/138 129/125/97 185/125/137
f 176/125/138 170/125/139 129/125/97
f 129/125/97 170/125/139 124/125/98
f 145/124/75 173/125/140 172/125/124
f 173/125/140 145/124/75 174/125/141
f 145/124/75 147/125/142 174/125/141
f 174/125/141 147/125/142 175/137/143
f 147/125/142 125/125/65 175/137/143
f 175/137/143 125/125/65 171/136/144
f 125/125/65 169/125/76 171/136/144
f 116/110/58 187/125/145 114/125/59
f 187/125/145 188/125/146 114/125/59
f 199/125/147 190/125/148 83/125/33
f 84/124/34 83/125/33 190/125/148
f 199/125/149 83/125/150 194/139/151
f 194/139/151 83/125/150 196/125/152
f 83/125/150 108/129/153 196/125/152
f 196/125/154 198/125/155 108/129/156
f 108/129/156 198/125/155 129/125/133
f 198/125/157 129/125/108 197/125/158
f 200/139/159 197/125/158 129/125/108
f 201/125/160 200/139/159 129/125/108
f 195/125/161 201/125/160 129/125/108
f 195/125/161 129/125/108 188/125/162
f 129/125/108 114/125/110 188/125/162
f 84/124/34 190/125/148 191/125/163
f 191/125/163 192/125/164 84/124/34
f 84/124/34 192/125/164 186/125/165
f 192/125/164 193/137/166 186/125/165
f 186/125/165 193/137/166 116/125/58
f 193/137/166 189/136/167 116/125/58
f 116/125/58 189/136/167 187/125/145
f 204/140/43 203/141/43 202/142/43
f 205/143/43 202/142/43 203/141/43
f 206/125/43 247/125/43 209/125/43
f 220/144/8 252/145/8 253/144/8
f 212/146/168 211/147/168 210/148/168
f 213/149/168 210/148/168 211/147/168
f 216/150/7 215/151/7 214/152/7
f 217/153/7 214/152/7 215/151/7
f 220/144/8 219/154/8 218/145/8
f 221/155/8 218/145/8 219/154/8
f 224/156/7 223/157/7 222/158/7
f 225/159/7 222/158/7 223/157/7
f 228/160/3 227/161/3 226/162/3
f 229/163/3 226/162/3 227/161/3
f 232/164/8 231/165/8 230/166/8
f 233/167/8 230/166/8 231/165/8
f 236/168/169 235/169/169 234/170/169
f 236/168/169 237/171/169 235/169/169
f 238/172/169 234/170/169 235/169/169
f 239/173/169 235/169/169 237/171/169
f 238/172/169 240/174/169 234/170/169
f 237/171/169 241/175/169 239/173/169
f 241/175/169 234/170/169 240/174/169
f 240/174/169 239/173/169 241/175/169
f 246/148/3 245/149/3 244/176/3
f 247/177/3 244/176/3 245/149/3
f 216/150/7 250/151/7 215/151/7
f 208/125/7 244/125/7 206/125/7
f 213/149/169 248/148/169 210/148/169
f 204/140/43 242/141/43 203/141/43
f 207/125/8 247/125/8 245/125/8
f 207/125/169 246/125/169 208/125/169
f 256/164/8 255/165/8 254/166/8
f 257/167/8 254/166/8 255/165/8
f 260/178/3 259/179/3 258/180/3
f 261/181/3 258/180/3 259/179/3
f 264/156/7 263/157/7 262/158/7
f 265/159/7 262/158/7 263/157/7
f 268/182/169 267/183/169 266/184/169
f 268/182/169 266/184/169 269/185/169
f 270/186/169 266/184/169 267/183/169
f 271/187/169 269/185/169 266/184/169
f 270/186/169 267/183/169 272/188/169
f 269/185/169 271/187/169 273/189/169
f 272/188/169 273/189/169 271/187/169
f 273/189/169 272/188/169 267/183/169
f 276/164/8 275/165/8 274/166/8
f 277/167/8 274/166/8 275/165/8
f 280/178/3 279/179/3 278/180/3
f 281/181/3 278/180/3 279/179/3
f 284/156/7 283/157/7 282/158/7
f 285/159/7 282/158/7 283/157/7
f 288/182/169 287/183/169 286/184/169
f 288/182/169 286/184/169 289/185/169
f 290/186/169 286/184/169 287/183/169
f 291/187/169 289/185/169 286/184/169
f 290/186/169 287/183/169 292/188/169
f 289/185/169 291/187/169 293/189/169
f 292/188/169 293/189/169 291/187/169
f 293/189/169 292/188/169 287/183/169
f 359/190/170 296/191/170 294/192/170
f 358/193/171 298/194/171 296/191/171
f 360/195/172 300/196/172 298/194/172
f 361/197/173 302/198/173 300/196/173
f 362/199/174 304/200/174 302/198/174
f 363/201/175 306/202/175 304/200/175
f 364/203/176 308/204/176 306/202/176
f 365/205/177 310/206/177 308/204/177
f 366/207/178 312/208/178 310/206/178
f 367/209/179 314/210/179 312/208/179
f 368/211/180 316/212/180 314/210/180
f 369/213/181 318/214/181 316/212/181
f 370/215/182 320/216/182 318/214/182
f 371/217/183 322/218/183 320/216/183
f 372/219/184 324/220/184 322/218/184
f 373/221/185 326/222/185 324/220/185
f 374/223/186 328/224/186 326/222/186
f 328/224/187 376/225/187 330/226/187
f 376/225/188 332/227/188 330/226/188
f 377/228/189 334/229/189 332/227/189
f 378/230/190 336/231/190 334/229/190
f 379/232/191 338/233/191 336/231/191
f 380/234/192 340/235/192 338/233/192
f 381/236/193 342/237/193 340/235/193
f 382/238/194 344/239/194 342/237/194
f 383/240/195 346/241/195 344/239/195
f 384/242/196 348/243/196 346/241/196
f 385/244/197 350/245/197 348/243/197
f 386/246/198 352/247/198 350/245/198
f 387/248/199 354/249/199 352/247/199
f 317/250/181 434/251/181 319/251/181
f 388/252/200 356/253/200 354/249/200
f 389/254/201 294/255/201 356/253/201
f 324/256/6 340/257/6 356/258/6
f 295/259/3 358/260/3 359/261/3
f 297/262/3 360/263/3 358/260/3
f 299/264/3 361/265/3 360/263/3
f 301/266/3 362/267/3 361/265/3
f 303/268/3 363/269/3 362/267/3
f 307/270/3 363/269/3 305/271/3
f 309/272/3 364/273/3 307/270/3
f 309/272/3 366/274/3 365/275/3
f 313/276/3 366/274/3 311/277/3
f 313/276/3 368/278/3 367/279/3
f 315/280/3 369/281/3 368/278/3
f 317/250/3 370/282/3 369/281/3
f 321/283/3 370/282/3 319/251/3
f 323/284/3 371/285/3 321/283/3
f 325/286/3 372/287/3 323/284/3
f 325/286/3 374/288/3 373/289/3
f 329/290/3 374/288/3 327/291/3
f 331/292/3 375/293/3 329/290/3
f 333/294/3 376/295/3 331/292/3
f 335/296/3 377/297/3 333/294/3
f 337/298/3 378/299/3 335/296/3
f 339/300/3 379/301/3 337/298/3
f 341/302/3 380/303/3 339/300/3
f 343/304/3 381/305/3 341/302/3
f 343/304/3 383/306/3 382/307/3
f 345/308/3 384/309/3 383/306/3
f 347/310/3 385/311/3 384/309/3
f 349/312/3 386/313/3 385/311/3
f 353/314/3 386/313/3 351/315/3
f 353/314/3 388/316/3 387/317/3
f 355/318/3 389/319/3 388/316/3
f 357/320/3 359/261/3 389/319/3
f 414/321/178 479/322/178 415/322/178
f 345/308/195 448/310/195 347/310/195
f 319/251/182 435/283/182 321/283/182
f 347/310/196 449/312/196 349/312/196
f 321/283/183 436/284/183 323/284/183
f 295/259/170 422/262/170 297/262/170
f 349/312/197 450/315/197 351/315/197
f 323/284/184 437/286/184 325/286/184
f 297/262/171 424/264/171 299/264/171
f 351/315/198 451/314/198 353/314/198
f 327/291/185 437/286/185 438/291/185
f 299/264/172 425/266/172 301/266/172
f 353/314/199 452/318/199 355/318/199
f 327/291/186 439/290/186 329/290/186
f 301/266/173 426/268/173 303/268/173
f 355/318/200 453/320/200 357/320/200
f 329/290/187 440/292/187 331/292/187
f 303/268/174 427/271/174 305/271/174
f 357/320/201 423/259/201 295/259/201
f 331/292/188 441/294/188 333/294/188
f 305/271/175 428/270/175 307/270/175
f 333/294/189 442/296/189 335/296/189
f 307/270/176 429/272/176 309/272/176
f 335/296/190 443/298/190 337/298/190
f 309/272/177 430/277/177 311/277/177
f 337/298/191 444/300/191 339/300/191
f 311/277/178 431/276/178 313/276/178
f 339/300/192 445/302/192 341/302/192
f 313/276/179 432/280/179 315/280/179
f 341/302/193 446/304/193 343/304/193
f 315/280/180 433/250/180 317/250/180
f 343/304/194 447/308/194 345/308/194
f 390/323/3 423/259/3 391/324/3
f 392/325/3 422/262/3 390/323/3
f 393/326/3 424/264/3 392/325/3
f 394/327/3 425/266/3 393/326/3
f 394/327/3 427/271/3 426/268/3
f 395/328/3 428/270/3 427/271/3
f 396/329/3 429/272/3 428/270/3
f 397/330/3 430/277/3 429/272/3
f 399/331/3 430/277/3 398/332/3
f 400/333/3 431/276/3 399/331/3
f 401/334/3 432/280/3 400/333/3
f 402/335/3 433/250/3 401/334/3
f 403/336/3 434/251/3 402/335/3
f 404/337/3 435/283/3 403/336/3
f 404/337/3 437/286/3 436/284/3
f 405/338/3 438/291/3 437/286/3
f 407/339/3 438/291/3 406/340/3
f 408/341/3 439/290/3 407/339/3
f 409/342/3 440/292/3 408/341/3
f 410/343/3 441/294/3 409/342/3
f 410/343/3 443/298/3 442/296/3
f 411/344/3 444/300/3 443/298/3
f 412/345/3 445/302/3 444/300/3
f 413/346/3 446/304/3 445/302/3
f 415/322/3 446/304/3 414/321/3
f 416/347/3 447/308/3 415/322/3
f 417/348/3 448/310/3 416/347/3
f 418/349/3 449/312/3 417/348/3
f 418/349/3 451/314/3 450/315/3
f 419/350/3 452/318/3 451/314/3
f 420/351/3 453/320/3 452/318/3
f 421/352/3 423/259/3 453/320/3
f 472/341/3 464/333/3 456/325/3
f 401/334/197 466/335/197 402/335/197
f 415/322/179 480/347/179 416/347/179
f 402/335/198 467/336/198 403/336/198
f 416/347/180 481/348/180 417/348/180
f 403/336/199 468/337/199 404/337/199
f 391/324/186 454/323/186 390/323/186
f 417/348/181 482/349/181 418/349/181
f 404/337/200 469/338/200 405/338/200
f 390/323/187 456/325/187 392/325/187
f 418/349/182 483/350/182 419/350/182
f 405/338/201 470/340/201 406/340/201
f 392/325/188 457/326/188 393/326/188
f 419/350/183 484/351/183 420/351/183
f 406/340/170 471/339/170 407/339/170
f 393/326/189 458/327/189 394/327/189
f 420/351/184 485/352/184 421/352/184
f 407/339/171 472/341/171 408/341/171
f 394/327/190 459/328/190 395/328/190
f 421/352/185 455/324/185 391/324/185
f 408/341/172 473/342/172 409/342/172
f 395/328/191 460/329/191 396/329/191
f 409/342/173 474/343/173 410/343/173
f 396/329/192 461/330/192 397/330/192
f 410/343/174 475/344/174 411/344/174
f 397/330/193 462/332/193 398/332/193
f 411/344/175 476/345/175 412/345/175
f 398/332/194 463/331/194 399/331/194
f 412/345/176 477/346/176 413/346/176
f 399/331/195 464/333/195 400/333/195
f 413/346/177 478/321/177 414/321/177
f 400/333/196 465/334/196 401/334/196
f 551/190/170 488/191/170 486/192/170
f 550/193/171 490/194/171 488/191/171
f 552/195/172 492/196/172 490/194/172
f 553/197/173 494/198/173 492/196/173
f 554/199/174 496/200/174 494/198/174
f 555/201/175 498/202/175 496/200/175
f 556/203/176 500/204/176 498/202/176
f 557/205/177 502/206/177 500/204/177
f 558/207/178 504/208/178 502/206/178
f 559/209/179 506/210/179 504/208/179
f 560/211/180 508/212/180 506/210/180
f 561/213/181 510/214/181 508/212/181
f 562/215/182 512/216/182 510/214/182
f 563/217/183 514/218/183 512/216/183
f 564/219/184 516/220/184 514/218/184
f 565/221/185 518/222/185 516/220/185
f 566/223/186 520/224/186 518/222/186
f 520/224/187 568/225/187 522/226/187
f 568/225/188 524/227/188 522/226/188
f 569/228/189 526/229/189 524/227/189
f 570/230/190 528/231/190 526/229/190
f 571/232/191 530/233/191 528/231/191
f 572/234/192 532/235/192 530/233/192
f 573/236/193 534/237/193 532/235/193
f 574/238/194 536/239/194 534/237/194
f 575/240/195 538/241/195 536/239/195
f 576/242/196 540/243/196 538/241/196
f 577/244/197 542/245/197 540/243/197
f 578/246/198 544/247/198 542/245/198
f 579/248/199 546/249/199 544/247/199
f 509/250/181 626/251/181 511/251/181
f 580/252/200 548/253/200 546/249/200
f 581/254/201 486/255/201 548/253/201
f 516/256/6 532/257/6 548/258/6
f 487/259/3 550/260/3 551/261/3
f 489/262/3 552/263/3 550/260/3
f 491/264/3 553/265/3 552/263/3
f 493/266/3 554/267/3 553/265/3
f 497/271/3 554/267/3 495/268/3
f 499/270/3 555/269/3 497/271/3
f 501/272/3 556/273/3 499/270/3
f 501/272/3 558/274/3 557/275/3
f 505/276/3 558/274/3 503/277/3
f 505/276/3 560/278/3 559/279/3
f 507/280/3 561/281/3 560/278/3
f 509/250/3 562/282/3 561/281/3
f 513/283/3 562/282/3 511/251/3
f 515/284/3 563/285/3 513/283/3
f 517/286/3 564/287/3 515/284/3
f 517/286/3 566/288/3 565/289/3
f 521/290/3 566/288/3 519/291/3
f 521/290/3 568/295/3 567/293/3
f 523/292/3 569/297/3 568/295/3
f 525/294/3 570/299/3 569/297/3
f 529/298/3 570/299/3 527/296/3
f 531/300/3 571/301/3 529/298/3
f 533/302/3 572/303/3 531/300/3
f 533/302/3 574/307/3 573/305/3
f 537/308/3 574/307/3 535/304/3
f 537/308/3 576/309/3 575/306/3
f 539/310/3 577/311/3 576/309/3
f 541/312/3 578/313/3 577/311/3
f 545/314/3 578/313/3 543/315/3
f 547/318/3 579/317/3 545/314/3
f 549/320/3 580/316/3 547/318/3
f 487/259/3 581/319/3 549/320/3
f 606/321/178 671/322/178 607/322/178
f 537/308/195 640/310/195 539/310/195
f 511/251/182 627/283/182 513/283/182
f 539/310/196 641/312/196 541/312/196
f 513/283/183 628/284/183 515/284/183
f 487/259/170 614/262/170 489/262/170
f 541/312/197 642/315/197 543/315/197
f 515/284/184 629/286/184 517/286/184
f 489/262/171 616/264/171 491/264/171
f 543/315/198 643/314/198 545/314/198
f 519/291/185 629/286/185 630/291/185
f 491/264/172 617/266/172 493/266/172
f 545/314/199 644/318/199 547/318/199
f 519/291/186 631/290/186 521/290/186
f 493/266/173 618/268/173 495/268/173
f 547/318/200 645/320/200 549/320/200
f 521/290/187 632/292/187 523/292/187
f 495/268/174 619/271/174 497/271/174
f 549/320/201 615/259/201 487/259/201
f 523/292/188 633/294/188 525/294/188
f 497/271/175 620/270/175 499/270/175
f 525/294/189 634/296/189 527/296/189
f 499/270/176 621/272/176 501/272/176
f 527/296/190 635/298/190 529/298/190
f 501/272/177 622/277/177 503/277/177
f 529/298/191 636/300/191 531/300/191
f 503/277/178 623/276/178 505/276/178
f 531/300/192 637/302/192 533/302/192
f 505/276/179 624/280/179 507/280/179
f 533/302/193 638/304/193 535/304/193
f 507/280/180 625/250/180 509/250/180
f 535/304/194 639/308/194 537/308/194
f 582/323/3 615/259/3 583/324/3
f 584/325/3 614/262/3 582/323/3
f 585/326/3 616/264/3 584/325/3
f 585/326/3 618/268/3 617/266/3
f 586/327/3 619/271/3 618/268/3
f 587/328/3 620/270/3 619/271/3
f 588/329/3 621/272/3 620/270/3
f 589/330/3 622/277/3 621/272/3
f 591/331/3 622/277/3 590/332/3
f 592/333/3 623/276/3 591/331/3
f 593/334/3 624/280/3 592/333/3
f 594/335/3 625/250/3 593/334/3
f 595/336/3 626/251/3 594/335/3
f 596/337/3 627/283/3 595/336/3
f 596/337/3 629/286/3 628/284/3
f 597/338/3 630/291/3 629/286/3
f 599/339/3 630/291/3 598/340/3
f 600/341/3 631/290/3 599/339/3
f 601/342/3 632/292/3 600/341/3
f 602/343/3 633/294/3 601/342/3
f 602/343/3 635/298/3 634/296/3
f 603/344/3 636/300/3 635/298/3
f 604/345/3 637/302/3 636/300/3
f 605/346/3 638/304/3 637/302/3
f 607/322/3 638/304/3 606/321/3
f 608/347/3 639/308/3 607/322/3
f 609/348/3 640/310/3 608/347/3
f 610/349/3 641/312/3 609/348/3
f 610/349/3 643/314/3 642/315/3
f 611/350/3 644/318/3 643/314/3
f 612/351/3 645/320/3 644/318/3
f 613/352/3 615/259/3 645/320/3
f 664/341/3 656/333/3 648/325/3
f 593/334/197 658/335/197 594/335/197
f 607/322/179 672/347/179 608/347/179
f 594/335/198 659/336/198 595/336/198
f 608/347/180 673/348/180 609/348/180
f 595/336/199 660/337/199 596/337/199
f 583/324/186 646/323/186 582/323/186
f 609/348/181 674/349/181 610/349/181
f 596/337/200 661/338/200 597/338/200
f 582/323/187 648/325/187 584/325/187
f 610/349/182 675/350/182 611/350/182
f 597/338/201 662/340/201 598/340/201
f 584/325/188 649/326/188 585/326/188
f 611/350/183 676/351/183 612/351/183
f 598/340/170 663/339/170 599/339/170
f 585/326/189 650/327/189 586/327/189
f 612/351/184 677/352/184 613/352/184
f 599/339/171 664/341/171 600/341/171
f 586/327/190 651/328/190 587/328/190
f 613/352/185 647/324/185 583/324/185
f 600/341/172 665/342/172 601/342/172
f 587/328/191 652/329/191 588/329/191
f 601/342/173 666/343/173 602/343/173
f 588/329/192 653/330/192 589/330/192
f 602/343/174 667/344/174 603/344/174
f 589/330/193 654/332/193 590/332/193
f 603/344/175 668/345/175 604/345/175
f 590/332/194 655/331/194 591/331/194
f 604/345/176 669/346/176 605/346/176
f 591/331/195 656/333/195 592/333/195
f 605/346/177 670/321/177 606/321/177
f 592/333/196 657/334/196 593/334/196
f 743/190/170 680/191/170 678/192/170
f 742/193/171 682/194/171 680/191/171
f 744/195/172 684/196/172 682/194/172
f 745/197/173 686/198/173 684/196/173
f 746/199/174 688/200/174 686/198/174
f 747/201/175 690/202/175 688/200/175
f 748/203/176 692/204/176 690/202/176
f 749/205/177 694/206/177 692/204/177
f 750/207/178 696/208/178 694/206/178
f 751/209/179 698/210/179 696/208/179
f 752/211/180 700/212/180 698/210/180
f 753/213/181 702/214/181 700/212/181
f 754/215/182 704/216/182 702/214/182
f 755/217/183 706/218/183 704/216/183
f 756/219/184 708/220/184 706/218/184
f 757/221/185 710/222/185 708/220/185
f 758/223/186 712/224/186 710/222/186
f 712/224/187 760/225/187 714/226/187
f 760/225/188 716/227/188 714/226/188
f 761/228/189 718/229/189 716/227/189
f 762/230/190 720/231/190 718/229/190
f 763/232/191 722/233/191 720/231/191
f 764/234/192 724/235/192 722/233/192
f 765/236/193 726/237/193 724/235/193
f 766/238/194 728/239/194 726/237/194
f 767/240/195 730/241/195 728/239/195
f 768/242/196 732/243/196 730/241/196
f 769/244/197 734/245/197 732/243/197
f 770/246/198 736/247/198 734/245/198
f 771/248/199 738/249/199 736/247/199
f 701/250/181 818/251/181 703/251/181
f 772/252/200 740/253/200 738/249/200
f 773/254/201 678/255/201 740/253/201
f 708/256/6 724/257/6 740/258/6
f 679/259/3 742/260/3 743/261/3
f 681/262/3 744/263/3 742/260/3
f 685/266/3 744/263/3 683/264/3
f 685/266/3 746/267/3 745/265/3
f 687/268/3 747/269/3 746/267/3
f 691/270/3 747/269/3 689/271/3
f 693/272/3 748/273/3 691/270/3
f 695/277/3 749/275/3 693/272/3
f 695/277/3 751/279/3 750/274/3
f 697/276/3 752/278/3 751/279/3
f 699/280/3 753/281/3 752/278/3
f 701/250/3 754/282/3 753/281/3
f 705/283/3 754/282/3 703/251/3
f 705/283/3 756/287/3 755/285/3
f 709/286/3 756/287/3 707/284/3
f 709/286/3 758/288/3 757/289/3
f 713/290/3 758/288/3 711/291/3
f 713/290/3 760/295/3 759/293/3
f 717/294/3 760/295/3 715/292/3
f 717/294/3 762/299/3 761/297/3
f 721/298/3 762/299/3 719/296/3
f 723/300/3 763/301/3 721/298/3
f 723/300/3 765/305/3 764/303/3
f 727/304/3 765/305/3 725/302/3
f 727/304/3 767/306/3 766/307/3
f 731/310/3 767/306/3 729/308/3
f 731/310/3 769/311/3 768/309/3
f 735/315/3 769/311/3 733/312/3
f 737/314/3 770/313/3 735/315/3
f 737/314/3 772/316/3 771/317/3
f 741/320/3 772/316/3 739/318/3
f 679/259/3 773/319/3 741/320/3
f 798/321/178 863/322/178 799/322/178
f 729/308/195 832/310/195 731/310/195
f 703/251/182 819/283/182 705/283/182
f 731/310/196 833/312/196 733/312/196
f 705/283/183 820/284/183 707/284/183
f 679/259/170 806/262/170 681/262/170
f 733/312/197 834/315/197 735/315/197
f 707/284/184 821/286/184 709/286/184
f 681/262/171 808/264/171 683/264/171
f 735/315/198 835/314/198 737/314/198
f 711/291/185 821/286/185 822/291/185
f 683/264/172 809/266/172 685/266/172
f 737/314/199 836/318/199 739/318/199
f 711/291/186 823/290/186 713/290/186
f 685/266/173 810/268/173 687/268/173
f 739/318/200 837/320/200 741/320/200
f 713/290/187 824/292/187 715/292/187
f 687/268/174 811/271/174 689/271/174
f 741/320/201 807/259/201 679/259/201
f 715/292/188 825/294/188 717/294/188
f 689/271/175 812/270/175 691/270/175
f 717/294/189 826/296/189 719/296/189
f 691/270/176 813/272/176 693/272/176
f 719/296/190 827/298/190 721/298/190
f 693/272/177 814/277/177 695/277/177
f 721/298/191 828/300/191 723/300/191
f 695/277/178 815/276/178 697/276/178
f 723/300/192 829/302/192 725/302/192
f 697/276/179 816/280/179 699/280/179
f 725/302/193 830/304/193 727/304/193
f 699/280/180 817/250/180 701/250/180
f 727/304/194 831/308/194 729/308/194
f 774/323/3 807/259/3 775/324/3
f 774/323/3 808/264/3 806/262/3
f 776/325/3 809/266/3 808/264/3
f 778/327/3 809/266/3 777/326/3
f 778/327/3 811/271/3 810/268/3
f 779/328/3 812/270/3 811/271/3
f 780/329/3 813/272/3 812/270/3
f 782/332/3 813/272/3 781/330/3
f 782/332/3 815/276/3 814/277/3
f 784/333/3 815/276/3 783/331/3
f 785/334/3 816/280/3 784/333/3
f 786/335/3 817/250/3 785/334/3
f 787/336/3 818/251/3 786/335/3
f 788/337/3 819/283/3 787/336/3
f 789/338/3 820/284/3 788/337/3
f 789/338/3 822/291/3 821/286/3
f 791/339/3 822/291/3 790/340/3
f 791/339/3 824/292/3 823/290/3
f 792/341/3 825/294/3 824/292/3
f 793/342/3 826/296/3 825/294/3
f 794/343/3 827/298/3 826/296/3
f 795/344/3 828/300/3 827/298/3
f 796/345/3 829/302/3 828/300/3
f 797/346/3 830/304/3 829/302/3
f 799/322/3 830/304/3 798/321/3
f 800/347/3 831/308/3 799/322/3
f 801/348/3 832/310/3 800/347/3
f 802/349/3 833/312/3 801/348/3
f 802/349/3 835/314/3 834/315/3
f 804/351/3 835/314/3 803/350/3
f 805/352/3 836/318/3 804/351/3
f 805/352/3 807/259/3 837/320/3
f 856/341/3 848/333/3 840/325/3
f 785/334/197 850/335/197 786/335/197
f 799/322/179 864/347/179 800/347/179
f 786/335/198 851/336/198 787/336/198
f 800/347/180 865/348/180 801/348/180
f 787/336/199 852/337/199 788/337/199
f 775/324/186 838/323/186 774/323/186
f 801/348/181 866/349/181 802/349/181
f 788/337/200 853/338/200 789/338/200
f 774/323/187 840/325/187 776/325/187
f 802/349/182 867/350/182 803/350/182
f 789/338/201 854/340/201 790/340/201
f 776/325/188 841/326/188 777/326/188
f 803/350/183 868/351/183 804/351/183
f 790/340/170 855/339/170 791/339/170
f 777/326/189 842/327/189 778/327/189
f 804/351/184 869/352/184 805/352/184
f 791/339/171 856/341/171 792/341/171
f 778/327/190 843/328/190 779/328/190
f 805/352/185 839/324/185 775/324/185
f 792/341/172 857/342/172 793/342/172
f 779/328/191 844/329/191 780/329/191
f 793/342/173 858/343/173 794/343/173
f 780/329/192 845/330/192 781/330/192
f 794/343/174 859/344/174 795/344/174
f 781/330/193 846/332/193 782/332/193
f 795/344/175 860/345/175 796/345/175
f 782/332/194 847/331/194 783/331/194
f 796/345/176 861/346/176 797/346/176
f 783/331/195 848/333/195 784/333/195
f 797/346/177 862/321/177 798/321/177
f 784/333/196 849/334/196 785/334/196
f 119/125/87 120/125/89 117/105/60
f 123/125/88 122/107/62 121/109/64
f 206/125/43 244/125/43 247/125/43
f 220/144/8 218/145/8 252/145/8
f 216/150/7 251/150/7 250/151/7
f 208/125/7 246/125/7 244/125/7
f 213/149/169 249/149/169 248/148/169
f 204/140/43 243/140/43 242/141/43
f 207/125/8 209/125/8 247/125/8
f 207/125/169 245/125/169 246/125/169
f 359/190/170 358/193/170 296/191/170
f 358/193/171 360/195/171 298/194/171
f 360/195/172 361/197/172 300/196/172
f 361/197/173 362/199/173 302/198/173
f 362/199/174 363/201/174 304/200/174
f 363/201/175 364/203/175 306/202/175
f 364/203/176 365/205/176 308/204/176
f 365/205/177 366/207/177 310/206/177
f 366/207/178 367/209/178 312/208/178
f 367/209/179 368/211/179 314/210/179
f 368/211/180 369/213/180 316/212/180
f 369/213/181 370/215/181 318/214/181
f 370/215/182 371/217/182 320/216/182
f 371/217/183 372/219/183 322/218/183
f 372/219/184 373/221/184 324/220/184
f 373/221/185 374/223/185 326/222/185
f 374/223/186 375/353/186 328/224/186
f 328/224/187 375/353/187 376/225/187
f 376/225/188 377/228/188 332/227/188
f 377/228/189 378/230/189 334/229/189
f 378/230/190 379/232/190 336/231/190
f 379/232/191 380/234/191 338/233/191
f 380/234/192 381/236/192 340/235/192
f 381/236/193 382/238/193 342/237/193
f 382/238/194 383/240/194 344/239/194
f 383/240/195 384/242/195 346/241/195
f 384/242/196 385/244/196 348/243/196
f 385/244/197 386/246/197 350/245/197
f 386/246/198 387/248/198 352/247/198
f 387/248/199 388/252/199 354/249/199
f 317/250/181 433/250/181 434/251/181
f 388/252/200 389/254/200 356/253/200
f 389/254/201 359/354/201 294/255/201
f 356/258/6 294/355/6 296/356/6
f 296/356/6 298/357/6 300/358/6
f 300/358/6 302/359/6 304/360/6
f 304/360/6 306/361/6 308/362/6
f 308/362/6 310/363/6 312/364/6
f 312/364/6 314/365/6 316/366/6
f 316/366/6 318/367/6 320/368/6
f 320/368/6 322/369/6 324/256/6
f 324/256/6 326/370/6 328/371/6
f 328/371/6 330/372/6 332/373/6
f 332/373/6 334/374/6 336/375/6
f 336/375/6 338/376/6 340/257/6
f 340/257/6 342/377/6 344/378/6
f 344/378/6 346/379/6 348/380/6
f 348/380/6 350/381/6 352/382/6
f 352/382/6 354/383/6 356/258/6
f 356/258/6 296/356/6 300/358/6
f 300/358/6 304/360/6 308/362/6
f 308/362/6 312/364/6 316/366/6
f 316/366/6 320/368/6 324/256/6
f 324/256/6 328/371/6 332/373/6
f 332/373/6 336/375/6 340/257/6
f 340/257/6 344/378/6 348/380/6
f 348/380/6 352/382/6 356/258/6
f 356/258/6 300/358/6 308/362/6
f 308/362/6 316/366/6 324/256/6
f 324/256/6 332/373/6 340/257/6
f 340/257/6 348/380/6 356/258/6
f 356/258/6 308/362/6 324/256/6
f 295/259/3 297/262/3 358/260/3
f 297/262/3 299/264/3 360/263/3
f 299/264/3 301/266/3 361/265/3
f 301/266/3 303/268/3 362/267/3
f 303/268/3 305/271/3 363/269/3
f 307/270/3 364/273/3 363/269/3
f 309/272/3 365/275/3 364/273/3
f 309/272/3 311/277/3 366/274/3
f 313/276/3 367/279/3 366/274/3
f 313/276/3 315/280/3 368/278/3
f 315/280/3 317/250/3 369/281/3
f 317/250/3 319/251/3 370/282/3
f 321/283/3 371/285/3 370/282/3
f 323/284/3 372/287/3 371/285/3
f 325/286/3 373/289/3 372/287/3
f 325/286/3 327/291/3 374/288/3
f 329/290/3 375/293/3 374/288/3
f 331/292/3 376/295/3 375/293/3
f 333/294/3 377/297/3 376/295/3
f 335/296/3 378/299/3 377/297/3
f 337/298/3 379/301/3 378/299/3
f 339/300/3 380/303/3 379/301/3
f 341/302/3 381/305/3 380/303/3
f 343/304/3 382/307/3 381/305/3
f 343/304/3 345/308/3 383/306/3
f 345/308/3 347/310/3 384/309/3
f 347/310/3 349/312/3 385/311/3
f 349/312/3 351/315/3 386/313/3
f 353/314/3 387/317/3 386/313/3
f 353/314/3 355/318/3 388/316/3
f 355/318/3 357/320/3 389/319/3
f 357/320/3 295/259/3 359/261/3
f 414/321/178 478/321/178 479/322/178
f 345/308/195 447/308/195 448/310/195
f 319/251/182 434/251/182 435/283/182
f 347/310/196 448/310/196 449/312/196
f 321/283/183 435/283/183 436/284/183
f 295/259/170 423/259/170 422/262/170
f 349/312/197 449/312/197 450/315/197
f 323/284/184 436/284/184 437/286/184
f 297/262/171 422/262/171 424/264/171
f 351/315/198 450/315/198 451/314/198
f 327/291/185 325/286/185 437/286/185
f 299/264/172 424/264/172 425/266/172
f 353/314/199 451/314/199 452/318/199
f 327/291/186 438/291/186 439/290/186
f 301/266/173 425/266/173 426/268/173
f 355/318/200 452/318/200 453/320/200
f 329/290/187 439/290/187 440/292/187
f 303/268/174 426/268/174 427/271/174
f 357/320/201 453/320/201 423/259/201
f 331/292/188 440/292/188 441/294/188
f 305/271/175 427/271/175 428/270/175
f 333/294/189 441/294/189 442/296/189
f 307/270/176 428/270/176 429/272/176
f 335/296/190 442/296/190 443/298/190
f 309/272/177 429/272/177 430/277/177
f 337/298/191 443/298/191 444/300/191
f 311/277/178 430/277/178 431/276/178
f 339/300/192 444/300/192 445/302/192
f 313/276/179 431/276/179 432/280/179
f 341/302/193 445/302/193 446/304/193
f 315/280/180 432/280/180 433/250/180
f 343/304/194 446/304/194 447/308/194
f 390/323/3 422/262/3 423/259/3
f 392/325/3 424/264/3 422/262/3
f 393/326/3 425/266/3 424/264/3
f 394/327/3 426/268/3 425/266/3
f 394/327/3 395/328/3 427/271/3
f 395/328/3 396/329/3 428/270/3
f 396/329/3 397/330/3 429/272/3
f 397/330/3 398/332/3 430/277/3
f 399/331/3 431/276/3 430/277/3
f 400/333/3 432/280/3 431/276/3
f 401/334/3 433/250/3 432/280/3
f 402/335/3 434/251/3 433/250/3
f 403/336/3 435/283/3 434/251/3
f 404/337/3 436/284/3 435/283/3
f 404/337/3 405/338/3 437/286/3
f 405/338/3 406/340/3 438/291/3
f 407/339/3 439/290/3 438/291/3
f 408/341/3 440/292/3 439/290/3
f 409/342/3 441/294/3 440/292/3
f 410/343/3 442/296/3 441/294/3
f 410/343/3 411/344/3 443/298/3
f 411/344/3 412/345/3 444/300/3
f 412/345/3 413/346/3 445/302/3
f 413/346/3 414/321/3 446/304/3
f 415/322/3 447/308/3 446/304/3
f 416/347/3 448/310/3 447/308/3
f 417/348/3 449/312/3 448/310/3
f 418/349/3 450/315/3 449/312/3
f 418/349/3 419/350/3 451/314/3
f 419/350/3 420/351/3 452/318/3
f 420/351/3 421/352/3 453/320/3
f 421/352/3 391/324/3 423/259/3
f 456/325/3 454/323/3 455/324/3
f 455/324/3 485/352/3 484/351/3
f 484/351/3 483/350/3 482/349/3
f 482/349/3 481/348/3 480/347/3
f 480/347/3 479/322/3 478/321/3
f 478/321/3 477/346/3 476/345/3
f 476/345/3 475/344/3 474/343/3
f 474/343/3 473/342/3 472/341/3
f 472/341/3 471/339/3 470/340/3
f 470/340/3 469/338/3 468/337/3
f 468/337/3 467/336/3 466/335/3
f 466/335/3 465/334/3 464/333/3
f 464/333/3 463/331/3 462/332/3
f 462/332/3 461/330/3 460/329/3
f 460/329/3 459/328/3 458/327/3
f 458/327/3 457/326/3 456/325/3
f 456/325/3 455/324/3 484/351/3
f 484/351/3 482/349/3 480/347/3
f 480/347/3 478/321/3 476/345/3
f 476/345/3 474/343/3 472/341/3
f 472/341/3 470/340/3 468/337/3
f 468/337/3 466/335/3 464/333/3
f 464/333/3 462/332/3 460/329/3
f 460/329/3 458/327/3 456/325/3
f 456/325/3 484/351/3 480/347/3
f 480/347/3 476/345/3 472/341/3
f 472/341/3 468/337/3 464/333/3
f 464/333/3 460/329/3 456/325/3
f 456/325/3 480/347/3 472/341/3
f 401/334/197 465/334/197 466/335/197
f 415/322/179 479/322/179 480/347/179
f 402/335/198 466/335/198 467/336/198
f 416/347/180 480/347/180 481/348/180
f 403/336/199 467/336/199 468/337/199
f 391/324/186 455/324/186 454/323/186
f 417/348/181 481/348/181 482/349/181
f 404/337/200 468/337/200 469/338/200
f 390/323/187 454/323/187 456/325/187
f 418/349/182 482/349/182 483/350/182
f 405/338/201 469/338/201 470/340/201
f 392/325/188 456/325/188 457/326/188
f 419/350/183 483/350/183 484/351/183
f 406/340/170 470/340/170 471/339/170
f 393/326/189 457/326/189 458/327/189
f 420/351/184 484/351/184 485/352/184
f 407/339/171 471/339/171 472/341/171
f 394/327/190 458/327/190 459/328/190
f 421/352/185 485/352/185 455/324/185
f 408/341/172 472/341/172 473/342/172
f 395/328/191 459/328/191 460/329/191
f 409/342/173 473/342/173 474/343/173
f 396/329/192 460/329/192 461/330/192
f 410/343/174 474/343/174 475/344/174
f 397/330/193 461/330/193 462/332/193
f 411/344/175 475/344/175 476/345/175
f 398/332/194 462/332/194 463/331/194
f 412/345/176 476/345/176 477/346/176
f 399/331/195 463/331/195 464/333/195
f 413/346/177 477/346/177 478/321/177
f 400/333/196 464/333/196 465/334/196
f 551/190/170 550/193/170 488/191/170
f 550/193/171 552/195/171 490/194/171
f 552/195/172 553/197/172 492/196/172
f 553/197/173 554/199/173 494/198/173
f 554/199/174 555/201/174 496/200/174
f 555/201/175 556/203/175 498/202/175
f 556/203/176 557/205/176 500/204/176
f 557/205/177 558/207/177 502/206/177
f 558/207/178 559/209/178 504/208/178
f 559/209/179 560/211/179 506/210/179
f 560/211/180 561/213/180 508/212/180
f 561/213/181 562/215/181 510/214/181
f 562/215/182 563/217/182 512/216/182
f 563/217/183 564/219/183 514/218/183
f 564/219/184 565/221/184 516/220/184
f 565/221/185 566/223/185 518/222/185
f 566/223/186 567/353/186 520/224/186
f 520/224/187 567/353/187 568/225/187
f 568/225/188 569/228/188 524/227/188
f 569/228/189 570/230/189 526/229/189
f 570/230/190 571/232/190 528/231/190
f 571/232/191 572/234/191 530/233/191
f 572/234/192 573/236/192 532/235/192
f 573/236/193 574/238/193 534/237/193
f 574/238/194 575/240/194 536/239/194
f 575/240/195 576/242/195 538/241/195
f 576/242/196 577/244/196 540/243/196
f 577/244/197 578/246/197 542/245/197
f 578/246/198 579/248/198 544/247/198
f 579/248/199 580/252/199 546/249/199
f 509/250/181 625/250/181 626/251/181
f 580/252/200 581/254/200 548/253/200
f 581/254/201 551/354/201 486/255/201
f 548/258/6 486/355/6 488/356/6
f 488/356/6 490/357/6 492/358/6
f 492/358/6 494/359/6 496/360/6
f 496/360/6 498/361/6 500/362/6
f 500/362/6 502/363/6 504/364/6
f 504/364/6 506/365/6 508/366/6
f 508/366/6 510/367/6 512/368/6
f 512/368/6 514/369/6 516/256/6
f 516/256/6 518/370/6 520/371/6
f 520/371/6 522/372/6 524/373/6
f 524/373/6 526/374/6 528/375/6
f 528/375/6 530/376/6 532/257/6
f 532/257/6 534/377/6 536/378/6
f 536/378/6 538/379/6 540/380/6
f 540/380/6 542/381/6 544/382/6
f 544/382/6 546/383/6 548/258/6
f 548/258/6 488/356/6 492/358/6
f 492/358/6 496/360/6 500/362/6
f 500/362/6 504/364/6 508/366/6
f 508/366/6 512/368/6 516/256/6
f 516/256/6 520/371/6 524/373/6
f 524/373/6 528/375/6 532/257/6
f 532/257/6 536/378/6 540/380/6
f 540/380/6 544/382/6 548/258/6
f 548/258/6 492/358/6 500/362/6
f 500/362/6 508/366/6 516/256/6
f 516/256/6 524/373/6 532/257/6
f 532/257/6 540/380/6 548/258/6
f 548/258/6 500/362/6 516/256/6
f 487/259/3 489/262/3 550/260/3
f 489/262/3 491/264/3 552/263/3
f 491/264/3 493/266/3 553/265/3
f 493/266/3 495/268/3 554/267/3
f 497/271/3 555/269/3 554/267/3
f 499/270/3 556/273/3 555/269/3
f 501/272/3 557/275/3 556/273/3
f 501/272/3 503/277/3 558/274/3
f 505/276/3 559/279/3 558/274/3
f 505/276/3 507/280/3 560/278/3
f 507/280/3 509/250/3 561/281/3
f 509/250/3 511/251/3 562/282/3
f 513/283/3 563/285/3 562/282/3
f 515/284/3 564/287/3 563/285/3
f 517/286/3 565/289/3 564/287/3
f 517/286/3 519/291/3 566/288/3
f 521/290/3 567/293/3 566/288/3
f 521/290/3 523/292/3 568/295/3
f 523/292/3 525/294/3 569/297/3
f 525/294/3 527/296/3 570/299/3
f 529/298/3 571/301/3 570/299/3
f 531/300/3 572/303/3 571/301/3
f 533/302/3 573/305/3 572/303/3
f 533/302/3 535/304/3 574/307/3
f 537/308/3 575/306/3 574/307/3
f 537/308/3 539/310/3 576/309/3
f 539/310/3 541/312/3 577/311/3
f 541/312/3 543/315/3 578/313/3
f 545/314/3 579/317/3 578/313/3
f 547/318/3 580/316/3 579/317/3
f 549/320/3 581/319/3 580/316/3
f 487/259/3 551/261/3 581/319/3
f 606/321/178 670/321/178 671/322/178
f 537/308/195 639/308/195 640/310/195
f 511/251/182 626/251/182 627/283/182
f 539/310/196 640/310/196 641/312/196
f 513/283/183 627/283/183 628/284/183
f 487/259/170 615/259/170 614/262/170
f 541/312/197 641/312/197 642/315/197
f 515/284/184 628/284/184 629/286/184
f 489/262/171 614/262/171 616/264/171
f 543/315/198 642/315/198 643/314/198
f 519/291/185 517/286/185 629/286/185
f 491/264/172 616/264/172 617/266/172
f 545/314/199 643/314/199 644/318/199
f 519/291/186 630/291/186 631/290/186
f 493/266/173 617/266/173 618/268/173
f 547/318/200 644/318/200 645/320/200
f 521/290/187 631/290/187 632/292/187
f 495/268/174 618/268/174 619/271/174
f 549/320/201 645/320/201 615/259/201
f 523/292/188 632/292/188 633/294/188
f 497/271/175 619/271/175 620/270/175
f 525/294/189 633/294/189 634/296/189
f 499/270/176 620/270/176 621/272/176
f 527/296/190 634/296/190 635/298/190
f 501/272/177 621/272/177 622/277/177
f 529/298/191 635/298/191 636/300/191
f 503/277/178 622/277/178 623/276/178
f 531/300/192 636/300/192 637/302/192
f 505/276/179 623/276/179 624/280/179
f 533/302/193 637/302/193 638/304/193
f 507/280/180 624/280/180 625/250/180
f 535/304/194 638/304/194 639/308/194
f 582/323/3 614/262/3 615/259/3
f 584/325/3 616/264/3 614/262/3
f 585/326/3 617/266/3 616/264/3
f 585/326/3 586/327/3 618/268/3
f 586/327/3 587/328/3 619/271/3
f 587/328/3 588/329/3 620/270/3
f 588/329/3 589/330/3 621/272/3
f 589/330/3 590/332/3 622/277/3
f 591/331/3 623/276/3 622/277/3
f 592/333/3 624/280/3 623/276/3
f 593/334/3 625/250/3 624/280/3
f 594/335/3 626/251/3 625/250/3
f 595/336/3 627/283/3 626/251/3
f 596/337/3 628/284/3 627/283/3
f 596/337/3 597/338/3 629/286/3
f 597/338/3 598/340/3 630/291/3
f 599/339/3 631/290/3 630/291/3
f 600/341/3 632/292/3 631/290/3
f 601/342/3 633/294/3 632/292/3
f 602/343/3 634/296/3 633/294/3
f 602/343/3 603/344/3 635/298/3
f 603/344/3 604/345/3 636/300/3
f 604/345/3 605/346/3 637/302/3
f 605/346/3 606/321/3 638/304/3
f 607/322/3 639/308/3 638/304/3
f 608/347/3 640/310/3 639/308/3
f 609/348/3 641/312/3 640/310/3
f 610/349/3 642/315/3 641/312/3
f 610/349/3 611/350/3 643/314/3
f 611/350/3 612/351/3 644/318/3
f 612/351/3 613/352/3 645/320/3
f 613/352/3 583/324/3 615/259/3
f 648/325/3 646/323/3 647/324/3
f 647/324/3 677/352/3 676/351/3
f 676/351/3 675/350/3 674/349/3
f 674/349/3 673/348/3 672/347/3
f 672/347/3 671/322/3 670/321/3
f 670/321/3 669/346/3 668/345/3
f 668/345/3 667/344/3 666/343/3
f 666/343/3 665/342/3 664/341/3
f 664/341/3 663/339/3 662/340/3
f 662/340/3 661/338/3 660/337/3
f 660/337/3 659/336/3 658/335/3
f 658/335/3 657/334/3 656/333/3
f 656/333/3 655/331/3 654/332/3
f 654/332/3 653/330/3 652/329/3
f 652/329/3 651/328/3 650/327/3
f 650/327/3 649/326/3 648/325/3
f 648/325/3 647/324/3 676/351/3
f 676/351/3 674/349/3 672/347/3
f 672/347/3 670/321/3 668/345/3
f 668/345/3 666/343/3 664/341/3
f 664/341/3 662/340/3 660/337/3
f 660/337/3 658/335/3 656/333/3
f 656/333/3 654/332/3 652/329/3
f 652/329/3 650/327/3 648/325/3
f 648/325/3 676/351/3 672/347/3
f 672/347/3 668/345/3 664/341/3
f 664/341/3 660/337/3 656/333/3
f 656/333/3 652/329/3 648/325/3
f 648/325/3 672/347/3 664/341/3
f 593/334/197 657/334/197 658/335/197
f 607/322/179 671/322/179 672/347/179
f 594/335/198 658/335/198 659/336/198
f 608/347/180 672/347/180 673/348/180
f 595/336/199 659/336/199 660/337/199
f 583/324/186 647/324/186 646/323/186
f 609/348/181 673/348/181 674/349/181
f 596/337/200 660/337/200 661/338/200
f 582/323/187 646/323/187 648/325/187
f 610/349/182 674/349/182 675/350/182
f 597/338/201 661/338/201 662/340/201
f 584/325/188 648/325/188 649/326/188
f 611/350/183 675/350/183 676/351/183
f 598/340/170 662/340/170 663/339/170
f 585/326/189 649/326/189 650/327/189
f 612/351/184 676/351/184 677/352/184
f 599/339/171 663/339/171 664/341/171
f 586/327/190 650/327/190 651/328/190
f 613/352/185 677/352/185 647/324/185
f 600/341/172 664/341/172 665/342/172
f 587/328/191 651/328/191 652/329/191
f 601/342/173 665/342/173 666/343/173
f 588/329/192 652/329/192 653/330/192
f 602/343/174 666/343/174 667/344/174
f 589/330/193 653/330/193 654/332/193
f 603/344/175 667/344/175 668/345/175
f 590/332/194 654/332/194 655/331/194
f 604/345/176 668/345/176 669/346/176
f 591/331/195 655/331/195 656/333/195
f 605/346/177 669/346/177 670/321/177
f 592/333/196 656/333/196 657/334/196
f 743/190/170 742/193/170 680/191/170
f 742/193/171 744/195/171 682/194/171
f 744/195/172 745/197/172 684/196/172
f 745/197/173 746/199/173 686/198/173
f 746/199/174 747/201/174 688/200/174
f 747/201/175 748/203/175 690/202/175
f 748/203/176 749/205/176 692/204/176
f 749/205/177 750/207/177 694/206/177
f 750/207/178 751/209/178 696/208/178
f 751/209/179 752/211/179 698/210/179
f 752/211/180 753/213/180 700/212/180
f 753/213/181 754/215/181 702/214/181
f 754/215/182 755/217/182 704/216/182
f 755/217/183 756/219/183 706/218/183
f 756/219/184 757/221/184 708/220/184
f 757/221/185 758/223/185 710/222/185
f 758/223/186 759/353/186 712/224/186
f 712/224/187 759/353/187 760/225/187
f 760/225/188 761/228/188 716/227/188
f 761/228/189 762/230/189 718/229/189
f 762/230/190 763/232/190 720/231/190
f 763/232/191 764/234/191 722/233/191
f 764/234/192 765/236/192 724/235/192
f 765/236/193 766/238/193 726/237/193
f 766/238/194 767/240/194 728/239/194
f 767/240/195 768/242/195 730/241/195
f 768/242/196 769/244/196 732/243/196
f 769/244/197 770/246/197 734/245/197
f 770/246/198 771/248/198 736/247/198
f 771/248/199 772/252/199 738/249/199
f 701/250/181 817/250/181 818/251/181
f 772/252/200 773/254/200 740/253/200
f 773/254/201 743/354/201 678/255/201
f 740/258/6 678/355/6 680/356/6
f 680/356/6 682/357/6 684/358/6
f 684/358/6 686/359/6 688/360/6
f 688/360/6 690/361/6 692/362/6
f 692/362/6 694/363/6 696/364/6
f 696/364/6 698/365/6 700/366/6
f 700/366/6 702/367/6 704/368/6
f 704/368/6 706/369/6 708/256/6
f 708/256/6 710/370/6 712/371/6
f 712/371/6 714/372/6 716/373/6
f 716/373/6 718/374/6 720/375/6
f 720/375/6 722/376/6 724/257/6
f 724/257/6 726/377/6 728/378/6
f 728/378/6 730/379/6 732/380/6
f 732/380/6 734/381/6 736/382/6
f 736/382/6 738/383/6 740/258/6
f 740/258/6 680/356/6 684/358/6
f 684/358/6 688/360/6 692/362/6
f 692/362/6 696/364/6 700/366/6
f 700/366/6 704/368/6 708/256/6
f 708/256/6 712/371/6 716/373/6
f 716/373/6 720/375/6 724/257/6
f 724/257/6 728/378/6 732/380/6
f 732/380/6 736/382/6 740/258/6
f 740/258/6 684/358/6 692/362/6
f 692/362/6 700/366/6 708/256/6
f 708/256/6 716/373/6 724/257/6
f 724/257/6 732/380/6 740/258/6
f 740/258/6 692/362/6 708/256/6
f 679/259/3 681/262/3 742/260/3
f 681/262/3 683/264/3 744/263/3
f 685/266/3 745/265/3 744/263/3
f 685/266/3 687/268/3 746/267/3
f 687/268/3 689/271/3 747/269/3
f 691/270/3 748/273/3 747/269/3
f 693/272/3 749/275/3 748/273/3
f 695/277/3 750/274/3 749/275/3
f 695/277/3 697/276/3 751/279/3
f 697/276/3 699/280/3 752/278/3
f 699/280/3 701/250/3 753/281/3
f 701/250/3 703/251/3 754/282/3
f 705/283/3 755/285/3 754/282/3
f 705/283/3 707/284/3 756/287/3
f 709/286/3 757/289/3 756/287/3
f 709/286/3 711/291/3 758/288/3
f 713/290/3 759/293/3 758/288/3
f 713/290/3 715/292/3 760/295/3
f 717/294/3 761/297/3 760/295/3
f 717/294/3 719/296/3 762/299/3
f 721/298/3 763/301/3 762/299/3
f 723/300/3 764/303/3 763/301/3
f 723/300/3 725/302/3 765/305/3
f 727/304/3 766/307/3 765/305/3
f 727/304/3 729/308/3 767/306/3
f 731/310/3 768/309/3 767/306/3
f 731/310/3 733/312/3 769/311/3
f 735/315/3 770/313/3 769/311/3
f 737/314/3 771/317/3 770/313/3
f 737/314/3 739/318/3 772/316/3
f 741/320/3 773/319/3 772/316/3
f 679/259/3 743/261/3 773/319/3
f 798/321/178 862/321/178 863/322/178
f 729/308/195 831/308/195 832/310/195
f 703/251/182 818/251/182 819/283/182
f 731/310/196 832/310/196 833/312/196
f 705/283/183 819/283/183 820/284/183
f 679/259/170 807/259/170 806/262/170
f 733/312/197 833/312/197 834/315/197
f 707/284/184 820/284/184 821/286/184
f 681/262/171 806/262/171 808/264/171
f 735/315/198 834/315/198 835/314/198
f 711/291/185 709/286/185 821/286/185
f 683/264/172 808/264/172 809/266/172
f 737/314/199 835/314/199 836/318/199
f 711/291/186 822/291/186 823/290/186
f 685/266/173 809/266/173 810/268/173
f 739/318/200 836/318/200 837/320/200
f 713/290/187 823/290/187 824/292/187
f 687/268/174 810/268/174 811/271/174
f 741/320/201 837/320/201 807/259/201
f 715/292/188 824/292/188 825/294/188
f 689/271/175 811/271/175 812/270/175
f 717/294/189 825/294/189 826/296/189
f 691/270/176 812/270/176 813/272/176
f 719/296/190 826/296/190 827/298/190
f 693/272/177 813/272/177 814/277/177
f 721/298/191 827/298/191 828/300/191
f 695/277/178 814/277/178 815/276/178
f 723/300/192 828/300/192 829/302/192
f 697/276/179 815/276/179 816/280/179
f 725/302/193 829/302/193 830/304/193
f 699/280/180 816/280/180 817/250/180
f 727/304/194 830/304/194 831/308/194
f 774/323/3 806/262/3 807/259/3
f 774/323/3 776/325/3 808/264/3
f 776/325/3 777/326/3 809/266/3
f 778/327/3 810/268/3 809/266/3
f 778/327/3 779/328/3 811/271/3
f 779/328/3 780/329/3 812/270/3
f 780/329/3 781/330/3 813/272/3
f 782/332/3 814/277/3 813/272/3
f 782/332/3 783/331/3 815/276/3
f 784/333/3 816/280/3 815/276/3
f 785/334/3 817/250/3 816/280/3
f 786/335/3 818/251/3 817/250/3
f 787/336/3 819/283/3 818/251/3
f 788/337/3 820/284/3 819/283/3
f 789/338/3 821/286/3 820/284/3
f 789/338/3 790/340/3 822/291/3
f 791/339/3 823/290/3 822/291/3
f 791/339/3 792/341/3 824/292/3
f 792/341/3 793/342/3 825/294/3
f 793/342/3 794/343/3 826/296/3
f 794/343/3 795/344/3 827/298/3
f 795/344/3 796/345/3 828/300/3
f 796/345/3 797/346/3 829/302/3
f 797/346/3 798/321/3 830/304/3
f 799/322/3 831/308/3 830/304/3
f 800/347/3 832/310/3 831/308/3
f 801/348/3 833/312/3 832/310/3
f 802/349/3 834/315/3 833/312/3
f 802/349/3 803/350/3 835/314/3
f 804/351/3 836/318/3 835/314/3
f 805/352/3 837/320/3 836/318/3
f 805/352/3 775/324/3 807/259/3
f 840/325/3 838/323/3 839/324/3
f 839/324/3 869/352/3 868/351/3
f 868/351/3 867/350/3 866/349/3
f 866/349/3 865/348/3 864/347/3
f 864/347/3 863/322/3 862/321/3
f 862/321/3 861/346/3 860/345/3
f 860/345/3 859/344/3 858/343/3
f 858/343/3 857/342/3 856/341/3
f 856/341/3 855/339/3 854/340/3
f 854/340/3 853/338/3 852/337/3
f 852/337/3 851/336/3 850/335/3
f 850/335/3 849/334/3 848/333/3
f 848/333/3 847/331/3 846/332/3
f 846/332/3 845/330/3 844/329/3
f 844/329/3 843/328/3 842/327/3
f 842/327/3 841/326/3 840/325/3
f 840/325/3 839/324/3 868/351/3
f 868/351/3 866/349/3 864/347/3
f 864/347/3 862/321/3 860/345/3
f 860/345/3 858/343/3 856/341/3
f 856/341/3 854/340/3 852/337/3
f 852/337/3 850/335/3 848/333/3
f 848/333/3 846/332/3 844/329/3
f 844/329/3 842/327/3 840/325/3
f 840/325/3 868/351/3 864/347/3
f 864/347/3 860/345/3 856/341/3
f 856/341/3 852/337/3 848/333/3
f 848/333/3 844/329/3 840/325/3
f 840/325/3 864/347/3 856/341/3
f 785/334/197 849/334/197 850/335/197
f 799/322/179 863/322/179 864/347/179
f 786/335/198 850/335/198 851/336/198
f 800/347/180 864/347/180 865/348/180
f 787/336/199 851/336/199 852/337/199
f 775/324/186 839/324/186 838/323/186
f 801/348/181 865/348/181 866/349/181
f 788/337/200 852/337/200 853/338/200
f 774/323/187 838/323/187 840/325/187
f 802/349/182 866/349/182 867/350/182
f 789/338/201 853/338/201 854/340/201
f 776/325/188 840/325/188 841/326/188
f 803/350/183 867/350/183 868/351/183
f 790/340/170 854/340/170 855/339/170
f 777/326/189 841/326/189 842/327/189
f 804/351/184 868/351/184 869/352/184
f 791/339/171 855/339/171 856/341/171
f 778/327/190 842/327/190 843/328/190
f 805/352/185 869/352/185 839/324/185
f 792/341/172 856/341/172 857/342/172
f 779/328/191 843/328/191 844/329/191
f 793/342/173 857/342/173 858/343/173
f 780/329/192 844/329/192 845/330/192
f 794/343/174 858/343/174 859/344/174
f 781/330/193 845/330/193 846/332/193
f 795/344/175 859/344/175 860/345/175
f 782/332/194 846/332/194 847/331/194
f 796/345/176 860/345/176 861/346/176
f 783/331/195 847/331/195 848/333/195
f 797/346/177 861/346/177 862/321/177
f 784/333/196 848/333/196 849/334/196
l 125 126
