# Blender 5.1.0
# www.blender.org
mtllib vir_gun_305_x1_001_1_vir_gun_305_x1_001_1.mtl
o vir_gun_305_x1_001_1_vir_gun_305_x1_001_1
v 4.044390 0.736297 0.043941
v 4.142056 0.736297 0.956625
v 4.249074 0.736297 0.006801
v 4.142056 0.736297 0.956625
v 4.044390 0.736297 0.043941
v 3.942467 0.736297 0.948536
v 1.742996 0.736296 3.706591
v 0.930410 0.736296 4.168279
v 1.832611 0.736296 3.852583
v -2.680796 0.736297 3.344044
v -1.784694 0.736296 3.706591
v -2.555488 0.736297 3.222269
v -4.086087 0.736297 0.043941
v -4.180903 0.736297 -0.943030
v -4.287925 0.736297 0.006801
v -4.051278 0.736297 -0.924678
v -3.984161 0.736297 -0.860659
v 4.249074 0.736297 0.006801
v 3.942465 0.736297 -0.860659
v 4.044390 0.736297 0.043941
v -3.683502 0.736298 -1.719899
v -4.051278 0.736297 -0.924678
v -3.984161 0.736297 -0.860659
v -4.051278 0.736297 -0.924678
v -3.683502 0.736298 -1.719899
v -3.414137 0.736298 -3.126365
v 3.641804 0.736298 -1.719899
v 4.051278 0.736297 -0.924678
v 3.414137 0.736298 -3.126365
v 3.414137 0.736298 -3.126365
v 3.157482 0.736298 -2.490693
v 3.641804 0.736298 -1.719899
v 4.249074 0.736297 0.006801
v 4.142056 -0.000001 0.956624
v 4.142056 0.736297 0.956625
v 1.832611 0.736296 3.852583
v 0.930410 -0.000002 4.168279
v 0.930410 0.736296 4.168279
v 0.930410 -0.000002 4.168279
v 1.832611 0.736296 3.852583
v 1.832611 -0.000002 3.852583
v -0.019426 -0.000002 4.275300
v 0.930410 0.736296 4.168279
v -0.019426 0.736296 4.275300
v -0.969260 -0.000002 4.168279
v -0.969260 0.736296 4.168279
v -1.871463 -0.000002 3.852583
v -0.969260 0.736296 4.168279
v -0.969260 -0.000002 4.168279
v -0.019426 0.736296 4.275300
v -0.019426 -0.000002 4.275300
v 0.930410 0.736296 4.168279
v -1.871463 0.736296 3.852583
v -2.680796 -0.000001 3.344044
v -2.680796 0.736297 3.344044
v -2.680796 0.736297 3.344044
v -3.356678 -0.000001 2.668162
v -3.356678 0.736297 2.668162
v -3.356678 -0.000001 2.668162
v -2.680796 0.736297 3.344044
v -2.680796 -0.000001 3.344044
v -3.865213 -0.000001 1.858827
v -3.356678 0.736297 2.668162
v -3.865213 0.736297 1.858827
v -4.180907 -0.000001 0.956624
v -4.180907 0.736297 0.956625
v -4.287925 0.000000 0.006800
v -4.287925 0.736297 0.006801
v -4.287925 0.736297 0.006801
v -4.180903 -0.000001 -0.943030
v -4.180903 0.736297 -0.943030
v -3.865211 0.000000 -1.845232
v -3.865211 0.736298 -1.845232
v -4.180903 -0.000001 -0.943030
v -4.287925 0.736297 0.006801
v -4.287925 0.000000 0.006800
v -3.865211 0.000000 -1.845232
v -4.180903 0.736297 -0.943030
v 4.142053 0.736297 -0.943030
v 4.249074 0.000000 0.006800
v 4.249074 0.736297 0.006801
v -3.199179 0.736298 -2.490693
v -2.801426 0.736297 -4.561419
v -3.107777 0.736298 -4.185015
v -3.414137 0.736298 -3.126365
v -3.683502 0.736298 -1.719899
v 3.942467 0.736297 0.948536
v 3.826363 0.736297 1.858827
v 4.142056 0.736297 0.956625
v 3.641807 0.736297 1.807776
v 3.317826 0.736297 2.668162
v 3.157486 0.736297 2.578571
v 3.157486 0.736297 2.578571
v 2.641946 0.736297 3.344044
v 3.317826 0.736297 2.668162
v 2.513791 0.736297 3.222269
v 2.513791 0.736297 3.222269
v 1.832611 0.736296 3.852583
v 2.641946 0.736297 3.344044
v 1.742996 0.736296 3.706591
v 0.930410 0.736296 4.168279
v 1.742996 0.736296 3.706591
v 0.883757 0.736296 4.007254
v -0.019426 0.736296 4.275300
v -0.019426 0.736296 4.275300
v 0.883757 0.736296 4.007254
v -0.020849 0.736296 4.109179
v -0.969260 0.736296 4.168279
v -0.925453 0.736296 4.007254
v -0.925453 0.736296 4.007254
v -1.871463 0.736296 3.852583
v -0.969260 0.736296 4.168279
v -1.784694 0.736296 3.706591
v -2.680796 0.736297 3.344044
v -2.555488 0.736297 3.222269
v -3.356678 0.736297 2.668162
v -2.680796 0.736297 3.344044
v -3.199184 0.736297 2.578571
v -3.865213 0.736297 1.858827
v -3.865213 0.736297 1.858827
v -3.199184 0.736297 2.578571
v -3.683503 0.736297 1.807776
v -4.180907 0.736297 0.956625
v -3.984164 0.736297 0.948536
v -4.287925 0.736297 0.006801
v -4.086087 0.736297 0.043941
v 3.942465 0.736297 -0.860659
v 4.051278 0.736297 -0.924678
v 3.641804 0.736298 -1.719899
v -2.555482 0.736298 -3.134390
v -2.801426 0.736297 -4.561419
v -3.199179 0.736298 -2.490693
v -2.234062 0.736297 -4.884012
v -1.784690 0.736299 -3.618711
v -1.554675 0.736297 -5.126733
v -0.925449 0.736299 -3.919372
v -0.797327 0.736297 -5.277411
v -0.020849 0.736299 -4.021296
v 0.000000 0.736297 -5.328492
v 0.797328 0.736297 -5.277411
v 0.883752 0.736299 -3.919372
v 1.554675 0.736297 -5.126733
v 1.742992 0.736299 -3.618711
v 2.234064 0.736297 -4.884012
v 2.513785 0.736298 -3.134390
v 2.801427 0.736297 -4.561419
v 3.157482 0.736298 -2.490693
v 3.107777 0.736298 -4.185015
v 3.414137 0.736298 -3.126365
v 4.142056 -0.000001 0.956624
v 4.249074 0.736297 0.006801
v 4.249074 0.000000 0.006800
v 4.142053 0.736297 -0.943030
v 4.142053 -0.000001 -0.943030
v 3.826363 -0.000001 1.858827
v 4.142056 0.736297 0.956625
v 3.826363 0.736297 1.858827
v 3.317826 -0.000001 2.668162
v 3.317826 0.736297 2.668162
v 3.317826 0.736297 2.668162
v 2.641946 -0.000001 3.344044
v 2.641946 0.736297 3.344044
v 3.317826 -0.000001 2.668162
v 2.641946 0.736297 3.344044
v 1.832611 -0.000002 3.852583
v 1.832611 0.736296 3.852583
v 2.641946 -0.000001 3.344044
v -0.969260 0.736296 4.168279
v -1.871463 -0.000002 3.852583
v -1.871463 0.736296 3.852583
v -2.680796 -0.000001 3.344044
v -3.356673 0.000000 -2.654566
v -3.865211 0.000000 -1.845232
v -3.356673 0.736298 -2.654566
v -2.680791 0.000000 -3.330447
v -2.680791 0.736298 -3.330447
v -1.871458 0.000001 -3.838984
v -1.871458 0.736299 -3.838984
v -0.969256 0.000001 -4.154678
v -0.969256 0.736299 -4.154678
v -0.019426 0.000001 -4.261698
v -0.019426 0.736299 -4.261698
v 0.930406 0.000001 -4.154678
v 0.930406 0.736299 -4.154678
v 1.832607 0.000001 -3.838984
v 1.832607 0.736299 -3.838984
v 2.641939 0.000000 -3.330447
v 2.641939 0.736298 -3.330447
v 3.317822 0.000000 -2.654566
v 3.317822 0.736298 -2.654566
v 3.826360 0.000000 -1.845232
v 3.826360 0.736298 -1.845232
v 4.142053 -0.000001 -0.943030
v 0.225900 2.734258 2.078410
v -0.225898 2.734258 2.078410
v 0.000000 2.794786 2.078410
v -0.391257 2.568893 2.078410
v 0.391259 2.568893 2.078410
v -0.455869 2.327756 2.078410
v 0.455870 2.327756 2.078410
v 0.455623 1.540524 2.078410
v -0.455623 1.540524 2.078410
v -0.391260 1.300310 2.078410
v 0.391260 1.300310 2.078410
v -0.225890 1.134946 2.078410
v 0.225891 1.134946 2.078410
v 0.000000 1.074420 2.078410
v -2.226450 2.734258 1.700000
v -2.678248 2.734258 1.700000
v -2.452350 2.794786 1.700000
v -2.843607 2.568893 1.700000
v -2.061091 2.568893 1.700000
v -2.908219 2.327756 1.700000
v -1.996480 2.327756 1.700000
v -1.996728 1.540524 1.700000
v -2.907973 1.540524 1.700000
v -2.843610 1.300310 1.700000
v -2.061090 1.300310 1.700000
v -2.678240 1.134946 1.700000
v -2.226459 1.134946 1.700000
v -2.452350 1.074420 1.700000
v 2.678249 2.734258 1.700000
v 2.226451 2.734258 1.700000
v 2.452350 2.794786 1.700000
v 2.061092 2.568893 1.700000
v 2.843608 2.568893 1.700000
v 1.996480 2.327756 1.700000
v 2.908220 2.327756 1.700000
v 2.907972 1.540524 1.700000
v 1.996727 1.540524 1.700000
v 2.061090 1.300310 1.700000
v 2.843609 1.300310 1.700000
v 2.226460 1.134946 1.700000
v 2.678241 1.134946 1.700000
v 2.452350 1.074420 1.700000
v -0.737255 3.598871 -3.899156
v -0.969939 3.776084 -3.899157
v -0.737255 3.776084 -3.899156
v -0.969939 3.598871 -3.899157
v -0.969939 3.776084 -3.674392
v -0.737255 3.776084 -3.899156
v -0.969939 3.776084 -3.899157
v -0.737255 3.776084 -3.674392
v -0.737255 3.552053 -3.674391
v -0.737255 3.776084 -3.899156
v -0.737255 3.776084 -3.674392
v -0.737255 3.598871 -3.899156
v -0.969939 3.776084 -3.674392
v -0.969939 3.598871 -3.899157
v -0.969939 3.552053 -3.674392
v -0.969939 3.776084 -3.899157
v -0.737255 3.552053 -3.674391
v -0.969939 3.598871 -3.899157
v -0.737255 3.598871 -3.899156
v -0.969939 3.552053 -3.674392
v 0.737261 3.598871 -3.899156
v 0.969943 3.776084 -3.899157
v 0.969943 3.598871 -3.899157
v 0.737261 3.776084 -3.899156
v 0.969943 3.776084 -3.674392
v 0.737261 3.776084 -3.899156
v 0.737261 3.776084 -3.674392
v 0.969943 3.776084 -3.899157
v 0.737261 3.552053 -3.674391
v 0.737261 3.776084 -3.899156
v 0.737261 3.598871 -3.899156
v 0.737261 3.776084 -3.674392
v 0.969943 3.776084 -3.674392
v 0.969943 3.598871 -3.899157
v 0.969943 3.776084 -3.899157
v 0.969943 3.552053 -3.674392
v 0.737261 3.552053 -3.674391
v 0.969943 3.598871 -3.899157
v 0.969943 3.552053 -3.674392
v 0.737261 3.598871 -3.899156
v 0.115247 3.598871 -3.899156
v 0.347929 3.776084 -3.899157
v 0.347929 3.598871 -3.899157
v 0.115247 3.776084 -3.899156
v 0.347929 3.776084 -3.674392
v 0.115247 3.776084 -3.899156
v 0.115247 3.776084 -3.674392
v 0.347929 3.776084 -3.899157
v 0.115247 3.552053 -3.674391
v 0.115247 3.776084 -3.899156
v 0.115247 3.598871 -3.899156
v 0.115247 3.776084 -3.674392
v 0.347929 3.776084 -3.674392
v 0.347929 3.598871 -3.899157
v 0.347929 3.776084 -3.899157
v 0.347929 3.552053 -3.674392
v 0.115247 3.552053 -3.674391
v 0.347929 3.598871 -3.899157
v 0.347929 3.552053 -3.674392
v 0.115247 3.598871 -3.899156
vn -0.0000 -1.0000 -0.0000
vn 0.9937 -0.0000 0.1120
vn 0.3303 -0.0000 0.9439
vn 0.1120 -0.0000 0.9937
vn -0.1120 -0.0000 0.9937
vn -0.3303 -0.0000 0.9439
vn -0.0297 -0.0000 0.9996
vn 0.0297 -0.0000 0.9996
vn -0.5320 -0.0000 0.8467
vn -0.7071 -0.0000 0.7071
vn -0.8467 -0.0000 0.5320
vn -0.9010 -0.0000 0.4339
vn -0.9749 -0.0000 0.2225
vn -0.9937 -0.0000 0.1120
vn -0.9937 -0.0000 -0.1120
vn -0.9439 -0.0000 -0.3303
vn 0.9937 -0.0000 -0.1120
vn 0.9811 -0.0000 -0.1934
vn 0.9679 -0.0000 -0.2514
vn 0.9439 -0.0000 -0.3303
vn 0.9439 -0.0000 0.3303
vn 0.9010 -0.0000 0.4339
vn 0.8467 -0.0000 0.5320
vn 0.7071 -0.0000 0.7071
vn 0.5320 -0.0000 0.8467
vn -0.4069 -0.0000 0.9135
vn -0.4605 -0.0000 0.8877
vn -0.8467 -0.0000 -0.5320
vn -0.7818 -0.0000 -0.6235
vn -0.6235 -0.0000 -0.7818
vn -0.4339 -0.0000 -0.9010
vn -0.2225 -0.0000 -0.9749
vn -0.0000 -0.0000 -1.0000
vn 0.2225 -0.0000 -0.9749
vn 0.4339 -0.0000 -0.9010
vn 0.6235 -0.0000 -0.7818
vn 0.7818 -0.0000 -0.6235
vn 0.9010 -0.0000 -0.4339
vn 0.8877 -0.0000 -0.4605
vn -0.0000 -0.0000 1.0000
vn -1.0000 -0.0000 -0.0000
vn 1.0000 -0.0000 -0.0000
vn -0.0000 0.9790 0.2039
vn -0.0000 1.0000 -0.0000
vt 0.432355 0.461189
vt 0.432355 0.542449
vt 0.531604 0.560686
vt 0.531604 0.545693
vt 0.500000 -0.000117
vt 0.508657 -0.004581
vt 0.468395 0.145172
vt 0.529369 0.126604
vt 0.879503 0.545693
vt 0.486203 0.494902
vt 0.835698 0.543351
vt 0.567645 0.542449
vt 0.873396 0.552672
vt 0.520087 0.560686
vt 0.873396 0.558335
vt 0.482694 0.492046
vt 0.578449 0.504597
vt 0.452926 0.461189
vt 0.470631 0.120497
vt 0.119208 0.461189
vt 0.396624 0.125310
vt 0.012225 0.461189
vt 0.468395 0.120497
vt 0.531358 0.461189
vt 0.561143 0.461189
vt 0.500000 0.461189
vt 0.879503 0.560686
vt 0.468641 0.461189
vt 0.854828 0.560686
vt 0.438856 0.461189
vt 1.058503 0.461189
vt 0.529369 0.120497
vt 1.038480 0.461189
vt 1.014503 0.461189
vt 0.522323 0.120497
vt 0.987775 0.461189
vt 0.522323 0.126604
vt 0.959636 0.461189
vt 0.931497 0.461189
vt 0.889082 0.509762
vt 0.904769 0.461189
vt 0.481980 0.510938
vt 0.040364 0.461189
vt 0.450338 0.068532
vt 0.504353 -0.162218
vt 0.880792 0.461189
vt 0.164302 0.543351
vt 0.468395 0.545693
vt 0.154074 0.544404
vt 0.468395 0.560686
vt 0.508656 0.470608
vt 0.479912 0.560686
vt 0.514995 -0.075966
vt 1.075966 0.494902
vt 1.075966 0.486403
vt 0.934512 0.518479
vt 1.008624 0.508784
vt 0.984760 0.507588
vt 0.584825 0.164302
vt 0.587863 0.461189
vt 0.567645 0.173067
vt 0.561144 0.461189
vt 0.547074 0.179662
vt 0.524143 0.183756
vt 0.500000 0.185144
vt 0.475858 0.183756
vt 0.468642 0.461189
vt 0.452926 0.179662
vt 0.438857 0.461189
vt 0.432355 0.173067
vt 0.139231 0.461189
vt 0.415176 0.164302
vt 0.405900 0.154074
vt 0.068503 0.461189
vt -0.014503 0.461189
vt -0.038480 0.461189
vt 0.095231 0.461189
vt 0.500000 0.526974
vt 0.493160 0.525040
vt 0.506840 0.525040
vt 0.488153 0.519755
vt 0.511847 0.519755
vt 0.486196 0.512049
vt 0.513803 0.512049
vt 0.513795 0.486891
vt 0.486204 0.486891
vt 0.488153 0.479214
vt 0.511847 0.479214
vt 0.493160 0.473929
vt 0.506839 0.473929
vt 0.500000 0.471995
vt 0.477676 0.558335
vt 0.470631 0.558335
vt 0.477676 0.552672
vt 0.470631 0.552672
vt 0.522324 0.126604
vt 0.522324 0.120497
vt 0.879503 0.558335
vt 0.879503 0.551175
vt 0.120497 0.551175
vt 0.126604 0.552672
vt 0.120497 0.558335
vt 0.126604 0.558335
vt 0.477676 0.126604
vt 0.470631 0.126604
vt 0.477676 0.120497
vt 0.529369 0.552672
vt 0.529369 0.558335
vt 0.522323 0.552672
vt 0.522323 0.558335
vt 0.477677 0.120497
vt 0.477677 0.126604
s 1
g vir_gun_305_x1_001_1_vir_gun_305_x1_001_1_steel_5
usemtl steel_5
f 3/1/1 2/2/1 1/3/1
f 6/4/1 5/3/1 4/2/1
f 9/5/1 8/6/1 7/7/1
f 12/8/1 11/9/1 10/10/1
f 15/11/1 14/12/1 13/4/1
f 17/13/1 13/4/1 16/12/1
f 20/3/1 19/14/1 18/1/1
f 23/13/1 22/12/1 21/15/1
f 26/16/1 25/15/1 24/12/1
f 29/17/1 28/18/1 27/19/1
f 32/19/1 31/20/1 30/21/1
f 35/4/2 34/22/2 33/3/2
f 38/23/3 37/24/3 36/7/3
f 41/25/3 40/7/3 39/24/3
f 39/24/4 43/23/4 42/26/4
f 46/27/5 45/28/5 44/29/5
f 49/28/6 48/27/6 47/30/6
f 51/26/7 50/29/8 49/28/5
f 50/29/8 51/26/7 52/23/4
f 55/8/9 54/31/9 53/9/9
f 58/32/10 57/33/10 56/8/10
f 61/31/10 60/8/10 59/33/10
f 59/33/11 63/32/11 62/34/12
f 64/35/12 62/34/12 63/32/11
f 62/34/12 64/35/12 65/36/13
f 66/37/13 65/36/13 64/35/12
f 65/36/13 66/37/13 67/38/14
f 68/4/14 67/38/14 66/37/13
f 71/13/15 70/39/15 69/4/15
f 73/40/16 72/41/16 71/13/16
f 76/38/15 75/4/15 74/39/15
f 74/39/16 78/13/16 77/41/16
f 81/42/17 80/43/17 79/14/17
f 84/44/1 83/45/1 82/46/1
f 84/44/1 82/46/1 85/16/1
f 86/41/1 85/16/1 82/46/1
f 89/2/1 88/47/1 87/4/1
f 90/48/1 87/4/1 88/47/1
f 88/47/1 91/49/1 90/48/1
f 92/50/1 90/48/1 91/49/1
f 95/49/1 94/51/1 93/50/1
f 96/52/1 93/50/1 94/51/1
f 99/51/1 98/5/1 97/52/1
f 100/7/1 97/52/1 98/5/1
f 103/23/1 102/7/1 101/6/1
f 101/6/1 104/53/1 103/23/1
f 107/29/1 106/23/1 105/53/1
f 105/53/1 108/54/1 107/29/1
f 109/27/1 107/29/1 108/54/1
f 112/54/1 111/55/1 110/27/1
f 113/9/1 110/27/1 111/55/1
f 111/55/1 114/10/1 113/9/1
f 117/10/1 116/56/1 115/8/1
f 118/32/1 115/8/1 116/56/1
f 116/56/1 119/57/1 118/32/1
f 122/35/1 121/32/1 120/57/1
f 120/57/1 123/58/1 122/35/1
f 124/37/1 122/35/1 123/58/1
f 123/58/1 125/11/1 124/37/1
f 126/4/1 124/37/1 125/11/1
f 128/18/1 81/42/1 127/14/1
f 127/14/1 129/19/1 128/18/1
f 132/46/1 131/59/1 130/60/1
f 133/61/1 130/60/1 131/59/1
f 130/60/1 133/61/1 134/62/1
f 135/63/1 134/62/1 133/61/1
f 134/62/1 135/63/1 136/24/1
f 137/64/1 136/24/1 135/63/1
f 136/24/1 137/64/1 138/26/1
f 139/65/1 138/26/1 137/64/1
f 139/65/1 140/66/1 138/26/1
f 141/67/1 138/26/1 140/66/1
f 140/66/1 142/68/1 141/67/1
f 143/69/1 141/67/1 142/68/1
f 142/68/1 144/70/1 143/69/1
f 145/71/1 143/69/1 144/70/1
f 144/70/1 146/72/1 145/71/1
f 147/20/1 145/71/1 146/72/1
f 148/73/1 147/20/1 146/72/1
f 148/73/1 149/21/1 147/20/1
f 152/43/2 151/3/2 150/22/2
f 154/74/18 153/14/19 152/43/17
f 153/14/19 154/74/18 192/19/20
f 150/22/21 156/4/21 155/75/22
f 157/48/22 155/75/22 156/4/21
f 155/75/22 157/48/22 158/76/23
f 159/50/23 158/76/23 157/48/22
f 162/52/24 161/60/24 160/50/24
f 163/76/24 160/50/24 161/60/24
f 166/7/25 165/25/25 164/52/25
f 167/60/25 164/52/25 165/25/25
f 170/9/26 169/30/27 168/27/6
f 169/30/27 170/9/26 171/31/9
f 173/41/28 73/40/28 172/46/29
f 174/46/29 172/46/29 73/40/28
f 172/46/29 174/46/29 175/60/30
f 176/60/30 175/60/30 174/46/29
f 175/60/30 176/60/30 177/62/31
f 178/62/31 177/62/31 176/60/30
f 177/62/31 178/62/31 179/24/32
f 180/24/32 179/24/32 178/62/31
f 179/24/32 180/24/32 181/26/33
f 182/26/33 181/26/33 180/24/32
f 181/26/33 182/26/33 183/67/34
f 184/67/34 183/67/34 182/26/33
f 183/67/34 184/67/34 185/69/35
f 186/69/35 185/69/35 184/67/34
f 185/69/35 186/69/35 187/71/36
f 188/71/36 187/71/36 186/69/35
f 187/71/36 188/71/36 189/20/37
f 190/20/37 189/20/37 188/71/36
f 189/20/37 190/20/37 191/77/38
f 192/19/39 191/77/38 190/20/37
f 191/77/38 192/19/39 193/74/20
f 196/78/40 195/79/40 194/80/40
f 195/79/40 197/81/40 194/80/40
f 198/82/40 194/80/40 197/81/40
f 197/81/40 199/83/40 198/82/40
f 200/84/40 198/82/40 199/83/40
f 200/84/40 199/83/40 201/85/40
f 202/86/40 201/85/40 199/83/40
f 202/86/40 203/87/40 201/85/40
f 204/88/40 201/85/40 203/87/40
f 203/87/40 205/89/40 204/88/40
f 206/90/40 204/88/40 205/89/40
f 207/91/40 206/90/40 205/89/40
f 210/78/40 209/79/40 208/80/40
f 209/79/40 211/81/40 208/80/40
f 212/82/40 208/80/40 211/81/40
f 211/81/40 213/83/40 212/82/40
f 214/84/40 212/82/40 213/83/40
f 214/84/40 213/83/40 215/85/40
f 216/86/40 215/85/40 213/83/40
f 216/86/40 217/87/40 215/85/40
f 218/88/40 215/85/40 217/87/40
f 217/87/40 219/89/40 218/88/40
f 220/90/40 218/88/40 219/89/40
f 221/91/40 220/90/40 219/89/40
f 224/78/40 223/79/40 222/80/40
f 223/79/40 225/81/40 222/80/40
f 226/82/40 222/80/40 225/81/40
f 225/81/40 227/83/40 226/82/40
f 228/84/40 226/82/40 227/83/40
f 228/84/40 227/83/40 229/85/40
f 230/86/40 229/85/40 227/83/40
f 230/86/40 231/87/40 229/85/40
f 232/88/40 229/85/40 231/87/40
f 231/87/40 233/89/40 232/88/40
f 234/90/40 232/88/40 233/89/40
f 235/91/40 234/90/40 233/89/40
f 238/92/40 237/93/40 236/94/40
f 239/95/40 236/94/40 237/93/40
f 242/8/1 241/96/1 240/32/1
f 243/97/1 240/32/1 241/96/1
f 246/98/41 245/15/41 244/99/41
f 247/13/41 244/99/41 245/15/41
f 250/100/42 249/101/42 248/102/42
f 251/103/42 248/102/42 249/101/42
f 254/104/43 253/105/43 252/106/43
f 255/19/43 252/106/43 253/105/43
f 258/107/40 257/108/40 256/109/40
f 259/110/40 256/109/40 257/108/40
f 262/111/1 261/112/1 260/19/1
f 263/105/1 260/19/1 261/112/1
f 266/101/42 265/103/42 264/100/42
f 267/102/42 264/100/42 265/103/42
f 270/15/41 269/13/41 268/98/41
f 271/99/41 268/98/41 269/13/41
f 274/32/43 273/8/43 272/35/43
f 275/37/43 272/35/43 273/8/43
f 278/107/40 277/108/40 276/109/40
f 279/110/40 276/109/40 277/108/40
f 282/111/1 281/112/1 280/19/1
f 283/105/1 280/19/1 281/112/1
f 286/101/42 285/103/42 284/100/42
f 287/102/42 284/100/42 285/103/42
f 290/15/41 289/13/41 288/98/41
f 291/99/41 288/98/41 289/13/41
f 294/32/43 293/8/43 292/35/43
f 295/37/43 292/35/43 293/8/43
f 79/14/44 128/18/44 81/42/44
f 28/18/44 192/19/44 27/19/44
f 192/19/44 190/20/44 27/19/44
f 16/12/44 14/12/44 13/4/44
f 22/12/1 73/40/1 21/15/1
f 21/15/44 174/46/44 73/40/44
f 28/18/44 153/14/44 192/19/44
f 22/12/1 71/13/1 73/40/1
