# Blender 5.1.0
# www.blender.org
mtllib Base.mtl
o Base
v 0.001177 0.305291 1.741344
v -1.161257 0.305291 1.318252
v -1.779776 0.305291 0.246948
v -1.564967 0.305291 -0.971295
v -0.617342 0.305291 -1.766447
v 1.163611 0.305291 1.318252
v 1.782130 0.305291 0.246948
v 1.567321 0.305291 -0.971295
v 0.001177 0.005291 1.741344
v 0.619696 0.305291 -1.766447
v 0.619696 0.005291 -1.766447
v 1.567321 0.005291 -0.971295
v -0.617342 0.005291 -1.766447
v -1.564967 0.005291 -0.971295
v -1.779776 0.005291 0.246948
v -1.161257 0.005291 1.318252
v -1.161257 0.155291 1.318252
v -0.641063 0.305291 1.604796
v -0.641063 0.005291 1.604796
v 0.001177 0.155291 1.741344
v 1.782130 0.005291 0.246948
v 1.163611 0.005291 1.318252
v 1.163611 0.155291 1.318252
v 0.643417 0.305291 1.604796
v 0.643417 0.005291 1.604796
v 0.619696 0.155291 -1.766447
v 1.153507 0.005291 -1.428872
v 1.567321 0.155291 -0.971295
v 1.153507 0.305291 -1.428872
v 0.001177 0.005291 -1.856447
v -0.617342 0.155291 -1.766447
v 0.001177 0.305291 -1.856447
v -1.151153 0.005291 -1.428872
v -1.564967 0.155291 -0.971295
v -1.151153 0.305291 -1.428872
v -1.762370 0.005291 -0.362175
v -1.779776 0.155291 0.246948
v -1.762370 0.305291 -0.362175
v -1.530515 0.005291 0.842598
v -1.530515 0.305291 0.842598
v -0.641063 0.155291 1.604796
v -1.530515 0.155291 0.842598
v -1.762370 0.155291 -0.362175
v -1.151153 0.155291 -1.428872
v 0.001177 0.155291 -1.856447
v 1.764724 0.005291 -0.362175
v 1.782130 0.155291 0.246948
v 1.764724 0.305291 -0.362175
v 1.532869 0.005291 0.842598
v 0.001177 0.305291 1.318252
v 0.001177 0.305291 0.895161
v 0.001177 0.305291 -0.401268
v 0.001177 0.305291 -1.541325
v 0.001177 0.005291 1.318252
v 0.001177 0.005291 0.895161
v 0.001177 0.005291 -0.401268
v 0.001177 0.005291 -1.541325
v 0.001177 0.005291 -0.993897
v 0.001177 0.005291 0.261849
v 0.001177 0.005291 1.565428
v 0.001177 0.305291 -0.993897
v 0.001177 0.305291 0.261849
v 0.001177 0.305291 1.565428
v 1.532869 0.305291 0.842598
v 0.643417 0.155291 1.604796
v 1.532869 0.155291 0.842598
v 1.764724 0.155291 -0.362175
v 1.153507 0.155291 -1.428872
vn -0.0000 -0.6632 0.7485
vn -0.3490 -0.0000 0.9371
vn -0.2573 -0.6756 0.6909
vn -0.4856 0.6643 0.5683
vn -0.6496 -0.0000 0.7603
vn -0.4856 -0.6643 0.5683
vn 0.7364 0.6626 0.1369
vn -0.0000 1.0000 -0.0000
vn 0.2573 -0.6756 0.6909
vn -0.0000 -1.0000 -0.0000
vn 0.4856 -0.6643 0.5683
vn 0.6481 0.6629 -0.3748
vn 0.6440 -0.0000 -0.7650
vn 0.4735 0.6779 -0.5624
vn -0.0000 -0.6761 -0.7368
vn -0.3468 -0.0000 -0.9379
vn -0.0000 -0.0000 -1.0000
vn -0.4735 -0.6779 -0.5624
vn -0.8657 -0.0000 -0.5006
vn -0.6440 -0.0000 -0.7650
vn -0.7257 -0.6765 -0.1253
vn -0.9831 -0.0000 0.1828
vn -0.9854 -0.0000 -0.1702
vn -0.6343 -0.6787 0.3702
vn -0.8637 -0.0000 0.5040
vn -0.2573 0.6756 0.6909
vn 0.3490 -0.0000 0.9371
vn 0.6343 -0.6787 0.3702
vn 0.2596 -0.6631 -0.7021
vn 0.8637 -0.0000 0.5040
vn 0.7364 -0.6626 0.1369
vn 0.9831 -0.0000 0.1828
vn 0.7257 -0.6765 -0.1253
vn 0.9854 -0.0000 -0.1702
vn -0.7364 -0.6626 0.1369
vn -0.2596 -0.6631 -0.7021
vn -0.0000 -0.0000 1.0000
vn 0.7257 0.6765 -0.1253
vn 0.4735 -0.6779 -0.5624
vn 0.6481 -0.6629 -0.3748
vn 0.6496 -0.0000 0.7603
vn -0.6343 0.6787 0.3702
vn -0.7364 0.6626 0.1370
vn -0.7257 0.6765 -0.1253
vn -0.6481 0.6629 -0.3748
vn -0.6481 -0.6629 -0.3748
vn -0.4735 0.6779 -0.5624
vn -0.2596 0.6631 -0.7021
vn -0.0000 0.6761 -0.7368
vn 0.4856 0.6643 0.5683
vn 0.6343 0.6787 0.3702
vn 0.3468 -0.0000 -0.9379
vn 0.2596 0.6631 -0.7021
vn 0.8657 -0.0000 -0.5006
vn 0.2573 0.6756 0.6909
vn -0.0000 0.6632 0.7485
s 1
g Base_details_3
usemtl details_3
f 9//1 41//2 19//3
f 41//2 2//4 17//5
f 19//3 17//5 16//6
f 7//7 62//8 51//8
f 25//9 54//10 22//11
f 8//12 68//13 29//14
f 30//15 31//16 45//17
f 33//18 34//19 44//20
f 36//21 37//22 43//23
f 39//24 17//5 42//25
f 50//8 18//26 63//8
f 65//27 9//1 25//9
f 55//10 49//28 22//11
f 57//10 30//15 11//29
f 66//30 21//31 47//32
f 47//32 46//33 67//34
f 16//6 15//35 55//10
f 36//21 56//10 59//10
f 58//10 13//36 57//10
f 9//1 60//10 25//9
f 20//37 18//26 41//2
f 57//10 13//36 30//15
f 56//10 33//18 58//10
f 15//35 59//10 55//10
f 9//1 19//3 60//10
f 7//7 67//34 48//38
f 56//10 27//39 12//40
f 56//10 46//33 59//10
f 23//41 25//9 22//11
f 42//25 2//4 40//42
f 37//22 40//42 3//43
f 15//35 42//25 37//22
f 43//23 3//43 38//44
f 34//19 38//44 4//45
f 14//46 43//23 34//19
f 44//20 4//45 35//47
f 31//16 35//47 5//48
f 13//36 44//20 31//16
f 45//17 5//48 32//49
f 6//50 66//30 64//51
f 64//51 47//32 7//7
f 29//14 26//52 10//53
f 48//38 28//54 8//12
f 67//34 12//40 28//54
f 10//53 61//8 29//14
f 68//13 11//29 26//52
f 10//53 45//17 32//49
f 64//51 51//8 50//8
f 48//38 52//8 62//8
f 29//14 52//8 8//12
f 10//53 32//49 53//8
f 24//55 63//8 1//56
f 24//55 20//37 65//27
f 24//55 50//8 63//8
f 58//10 11//29 27//39
f 23//41 49//28 66//30
f 19//3 54//10 60//10
f 6//50 65//27 23//41
f 61//8 5//48 35//47
f 38//44 52//8 4//45
f 52//8 35//47 4//45
f 3//43 62//8 38//44
f 26//52 30//15 45//17
f 50//8 3//43 40//42
f 5//48 53//8 32//49
f 59//10 21//31 55//10
f 28//54 27//39 68//13
f 18//26 1//56 63//8
f 9//1 20//37 41//2
f 41//2 18//26 2//4
f 19//3 41//2 17//5
f 7//7 48//38 62//8
f 25//9 60//10 54//10
f 8//12 28//54 68//13
f 30//15 13//36 31//16
f 33//18 14//46 34//19
f 36//21 15//35 37//22
f 39//24 16//6 17//5
f 50//8 2//4 18//26
f 65//27 20//37 9//1
f 22//11 54//10 55//10
f 55//10 21//31 49//28
f 66//30 49//28 21//31
f 47//32 21//31 46//33
f 55//10 54//10 16//6
f 16//6 39//24 15//35
f 36//21 14//46 56//10
f 58//10 33//18 13//36
f 20//37 1//56 18//26
f 56//10 14//46 33//18
f 15//35 36//21 59//10
f 7//7 47//32 67//34
f 56//10 58//10 27//39
f 56//10 12//40 46//33
f 23//41 65//27 25//9
f 42//25 17//5 2//4
f 37//22 42//25 40//42
f 15//35 39//24 42//25
f 43//23 37//22 3//43
f 34//19 43//23 38//44
f 14//46 36//21 43//23
f 44//20 34//19 4//45
f 31//16 44//20 35//47
f 13//36 33//18 44//20
f 45//17 31//16 5//48
f 6//50 23//41 66//30
f 64//51 66//30 47//32
f 29//14 68//13 26//52
f 48//38 67//34 28//54
f 67//34 46//33 12//40
f 10//53 53//8 61//8
f 68//13 27//39 11//29
f 10//53 26//52 45//17
f 50//8 6//50 64//51
f 64//51 7//7 51//8
f 48//38 8//12 52//8
f 29//14 61//8 52//8
f 24//55 1//56 20//37
f 24//55 6//50 50//8
f 58//10 57//10 11//29
f 23//41 22//11 49//28
f 19//3 16//6 54//10
f 6//50 24//55 65//27
f 61//8 53//8 5//48
f 38//44 62//8 52//8
f 52//8 61//8 35//47
f 3//43 51//8 62//8
f 26//52 11//29 30//15
f 40//42 2//4 50//8
f 50//8 51//8 3//43
f 59//10 46//33 21//31
f 28//54 12//40 27//39
