# Blender 5.1.0
# www.blender.org
mtllib Cylinder.mtl
o Cylinder
v 0.000000 -1.000000 1.000000
v 0.000000 1.000000 1.000000
v -0.195090 -1.000000 0.980785
v -0.195090 1.000000 0.980785
v -0.382683 -1.000000 0.923880
v -0.382683 1.000000 0.923880
v -0.555570 -1.000000 0.831470
v -0.555570 1.000000 0.831470
v -0.707107 -1.000000 0.707107
v -0.707107 1.000000 0.707107
v -0.831470 -1.000000 0.555570
v -0.831470 1.000000 0.555570
v -0.923880 -1.000000 0.382683
v -0.923880 1.000000 0.382683
v -0.980785 -1.000000 0.195090
v -0.980785 1.000000 0.195090
v -1.000000 -1.000000 0.000000
v -1.000000 1.000000 0.000000
v -0.980785 -1.000000 -0.195090
v -0.980785 1.000000 -0.195090
v -0.923880 -1.000000 -0.382683
v -0.923880 1.000000 -0.382683
v -0.831470 -1.000000 -0.555570
v -0.831470 1.000000 -0.555570
v -0.707107 -1.000000 -0.707107
v -0.707107 1.000000 -0.707107
v -0.555570 -1.000000 -0.831470
v -0.555570 1.000000 -0.831470
v -0.382683 -1.000000 -0.923880
v -0.382683 1.000000 -0.923880
v -0.195090 -1.000000 -0.980785
v -0.195090 1.000000 -0.980785
v 0.000000 -1.000000 -1.000000
v 0.000000 1.000000 -1.000000
v 0.195090 -1.000000 0.980785
v 0.195090 1.000000 0.980785
v 0.382683 -1.000000 0.923880
v 0.382683 1.000000 0.923880
v 0.555570 -1.000000 0.831470
v 0.555570 1.000000 0.831470
v 0.707107 -1.000000 0.707107
v 0.707107 1.000000 0.707107
v 0.831470 -1.000000 0.555570
v 0.831470 1.000000 0.555570
v 0.923880 -1.000000 0.382683
v 0.923880 1.000000 0.382683
v 0.980785 -1.000000 0.195090
v 0.980785 1.000000 0.195090
v 1.000000 -1.000000 0.000000
v 1.000000 1.000000 0.000000
v 0.980785 -1.000000 -0.195090
v 0.980785 1.000000 -0.195090
v 0.923880 -1.000000 -0.382683
v 0.923880 1.000000 -0.382683
v 0.831470 -1.000000 -0.555570
v 0.831470 1.000000 -0.555570
v 0.707107 -1.000000 -0.707107
v 0.707107 1.000000 -0.707107
v 0.555570 -1.000000 -0.831470
v 0.555570 1.000000 -0.831470
v 0.382683 -1.000000 -0.923880
v 0.382683 1.000000 -0.923880
v 0.195090 -1.000000 -0.980785
v 0.195090 1.000000 -0.980785
vn -0.0000 -0.0000 1.0000
vn -0.1951 -0.0000 0.9808
vn -0.3827 -0.0000 0.9239
vn -0.5556 -0.0000 0.8315
vn -0.7071 -0.0000 0.7071
vn -0.8315 -0.0000 0.5556
vn -0.9239 -0.0000 0.3827
vn -0.9808 -0.0000 0.1951
vn -1.0000 -0.0000 -0.0000
vn -0.9808 -0.0000 -0.1951
vn -0.9239 -0.0000 -0.3827
vn -0.8315 -0.0000 -0.5556
vn -0.7071 -0.0000 -0.7071
vn -0.5556 -0.0000 -0.8315
vn -0.3827 -0.0000 -0.9239
vn -0.1951 -0.0000 -0.9808
vn -0.0000 -0.0000 -1.0000
vn 0.1951 -0.0000 0.9808
vn 0.3827 -0.0000 0.9239
vn 0.5556 -0.0000 0.8315
vn 0.7071 -0.0000 0.7071
vn 0.8315 -0.0000 0.5556
vn 0.9239 -0.0000 0.3827
vn 0.9808 -0.0000 0.1951
vn 1.0000 -0.0000 -0.0000
vn 0.9808 -0.0000 -0.1951
vn 0.9239 -0.0000 -0.3827
vn 0.8315 -0.0000 -0.5556
vn 0.7071 -0.0000 -0.7071
vn 0.5556 -0.0000 -0.8315
vn 0.3827 -0.0000 -0.9239
vn 0.1951 -0.0000 -0.9808
vt 0.500000 1.000000
vt 0.597545 0.000000
vt 0.500000 0.000000
vt 0.597545 1.000000
vt 0.691342 0.000000
vt 0.691342 1.000000
vt 0.777785 0.000000
vt 0.777785 1.000000
vt 0.853553 0.000000
vt 0.853553 1.000000
vt 0.402455 0.000000
vt 0.402455 1.000000
vt 0.308658 0.000000
vt 0.308658 1.000000
vt 0.222215 0.000000
vt 0.222215 1.000000
vt 0.146447 0.000000
vt 0.146447 1.000000
s 1
g Cylinder_details_3
usemtl details_3
f 2/1/1 3/2/2 1/3/1
f 4/4/2 5/5/3 3/2/2
f 6/6/3 7/7/4 5/5/3
f 8/8/4 9/9/5 7/7/4
f 10/10/5 11/7/6 9/9/5
f 12/8/6 13/5/7 11/7/6
f 14/6/7 15/2/8 13/5/7
f 16/4/8 17/3/9 15/2/8
f 18/1/9 19/11/10 17/3/9
f 20/12/10 21/13/11 19/11/10
f 22/14/11 23/15/12 21/13/11
f 24/16/12 25/17/13 23/15/12
f 26/10/13 27/7/14 25/9/13
f 28/8/14 29/5/15 27/7/14
f 30/6/15 31/2/16 29/5/15
f 32/4/16 33/3/17 31/2/16
f 35/11/18 2/1/1 1/3/1
f 37/13/19 36/12/18 35/11/18
f 39/15/20 38/14/19 37/13/19
f 41/17/21 40/16/20 39/15/20
f 43/7/22 42/10/21 41/9/21
f 45/5/23 44/8/22 43/7/22
f 47/2/24 46/6/23 45/5/23
f 49/3/25 48/4/24 47/2/24
f 51/11/26 50/1/25 49/3/25
f 53/13/27 52/12/26 51/11/26
f 55/15/28 54/14/27 53/13/27
f 57/17/29 56/16/28 55/15/28
f 59/15/30 58/18/29 57/17/29
f 61/13/31 60/16/30 59/15/30
f 33/3/17 64/12/32 63/11/32
f 63/11/32 62/14/31 61/13/31
f 2/1/1 4/4/2 3/2/2
f 4/4/2 6/6/3 5/5/3
f 6/6/3 8/8/4 7/7/4
f 8/8/4 10/10/5 9/9/5
f 10/10/5 12/8/6 11/7/6
f 12/8/6 14/6/7 13/5/7
f 14/6/7 16/4/8 15/2/8
f 16/4/8 18/1/9 17/3/9
f 18/1/9 20/12/10 19/11/10
f 20/12/10 22/14/11 21/13/11
f 22/14/11 24/16/12 23/15/12
f 24/16/12 26/18/13 25/17/13
f 26/10/13 28/8/14 27/7/14
f 28/8/14 30/6/15 29/5/15
f 30/6/15 32/4/16 31/2/16
f 32/4/16 34/1/17 33/3/17
f 35/11/18 36/12/18 2/1/1
f 37/13/19 38/14/19 36/12/18
f 39/15/20 40/16/20 38/14/19
f 41/17/21 42/18/21 40/16/20
f 43/7/22 44/8/22 42/10/21
f 45/5/23 46/6/23 44/8/22
f 47/2/24 48/4/24 46/6/23
f 49/3/25 50/1/25 48/4/24
f 51/11/26 52/12/26 50/1/25
f 53/13/27 54/14/27 52/12/26
f 55/15/28 56/16/28 54/14/27
f 57/17/29 58/18/29 56/16/28
f 59/15/30 60/16/30 58/18/29
f 61/13/31 62/14/31 60/16/30
f 33/3/17 34/1/17 64/12/32
f 63/11/32 64/12/32 62/14/31
