# Blender 5.0.1
# www.blender.org
mtllib Bis_Hull_Midsection_V_Panzerschiffe.mtl
o Bis_Hull_Midsection_V_Panzerschiffe
v 16.174549 -8.224712 -9.999971
v 13.923409 -9.168516 10.000166
v 16.174549 -8.224710 10.000181
v 13.923410 -9.168518 -9.999971
v 8.959003 -9.552118 10.000181
v 8.959005 -9.552122 -9.999971
v -0.000004 -9.682690 10.000180
v -0.000002 -9.682692 -9.999972
v -8.959005 -9.552118 10.000172
v -8.959003 -9.552122 -9.999973
v -13.923405 -9.168516 10.000163
v -13.923403 -9.168518 -9.999974
v -16.174549 -8.224710 10.000194
v -16.174549 -8.224712 -9.999974
v 16.174549 -8.224710 10.000181
v 17.481503 -5.138528 -9.999971
v 16.174549 -8.224712 -9.999971
v 17.481503 -5.138525 10.000174
v 17.694473 -1.663946 -9.999971
v 17.694473 -1.663944 10.000166
v 17.695026 -0.561475 -9.999971
v 17.695026 -0.561473 10.000174
v -16.174549 -8.224712 -9.999974
v -17.481503 -5.138525 10.000194
v -16.174549 -8.224710 10.000194
v -17.481503 -5.138528 -9.999974
v -17.694466 -1.663944 10.000170
v -17.694466 -1.663946 -9.999975
v -17.695023 -0.561473 10.000170
v -17.695023 -0.561475 -9.999975
v 17.687008 4.212475 10.000165
v 17.138496 4.887345 -9.999972
v 17.687008 4.212472 -9.999972
v 17.138496 4.887348 10.000173
v 17.138496 4.887348 10.000173
v 17.129639 8.447312 -9.999972
v 17.138496 4.887345 -9.999972
v 17.129639 8.447315 10.000012
v 17.687008 4.212472 -9.999972
v 17.695812 1.005412 10.000174
v 17.687008 4.212475 10.000165
v 17.695812 1.005411 -9.999971
v 17.695312 0.012788 10.000174
v 17.695312 0.012786 -9.999971
v -17.695312 0.012786 -9.999975
v -17.695812 1.005412 10.000170
v -17.695312 0.012788 10.000170
v -17.695812 1.005411 -9.999975
v -17.687008 4.212475 10.000162
v -17.687008 4.212472 -9.999975
v -17.138493 4.887348 10.000162
v -17.687008 4.212472 -9.999975
v -17.138493 4.887345 -9.999975
v -17.687008 4.212475 10.000162
v -17.129635 8.447317 9.999994
v -17.138493 4.887345 -9.999975
v -17.129635 8.447313 -9.999975
v -17.138493 4.887348 10.000162
v 17.129639 8.447315 10.000012
v 0.000002 8.447311 -9.999974
v 17.129639 8.447312 -9.999972
v 0.000000 8.447313 10.000026
v -17.129635 8.447313 -9.999975
v -17.129635 8.447317 9.999994
v 17.287712 8.687317 10.000012
v 16.971565 8.687314 -9.999969
v 17.287712 8.687314 -9.999969
v 16.971565 8.687317 10.000012
v 17.287712 8.207315 10.000012
v 17.287712 8.687314 -9.999969
v 17.287712 8.207314 -9.999969
v 17.287712 8.687317 10.000012
v 16.971565 8.207314 10.000012
v 17.287712 8.207314 -9.999969
v 16.971565 8.207312 -9.999969
v 17.287712 8.207315 10.000012
v 16.971565 8.687317 10.000012
v 16.971565 8.207312 -9.999969
v 16.971565 8.687314 -9.999969
v 16.971565 8.207314 10.000012
v -16.971565 8.687318 10.000010
v -17.287704 8.687317 -9.999971
v -16.971565 8.687315 -9.999971
v -17.287704 8.687319 10.000010
v -17.287704 8.687319 10.000010
v -17.287704 8.207317 -9.999971
v -17.287704 8.687317 -9.999971
v -17.287704 8.207321 10.000010
v -17.287704 8.207321 10.000010
v -16.971565 8.207314 -9.999971
v -17.287704 8.207317 -9.999971
v -16.971565 8.207317 10.000010
v -16.971565 8.207317 10.000010
v -16.971565 8.687315 -9.999971
v -16.971565 8.207314 -9.999971
v -16.971565 8.687318 10.000010
vn 0.7027 -0.7115 -0.0000
vn 0.2348 -0.9720 -0.0000
vn 0.0458 -0.9989 -0.0000
vn -0.0000 -1.0000 -0.0000
vn -0.0458 -0.9989 -0.0000
vn -0.2348 -0.9720 -0.0000
vn -0.7027 -0.7115 -0.0000
vn 0.7089 -0.7053 -0.0000
vn 0.9735 -0.2289 -0.0000
vn 0.9995 -0.0309 -0.0000
vn 1.0000 -0.0005 -0.0000
vn -0.7089 -0.7053 0.0001
vn -0.9735 -0.2289 -0.0000
vn -0.7089 -0.7053 -0.0000
vn -0.9995 -0.0309 -0.0000
vn -1.0000 -0.0005 -0.0000
vn 0.7760 0.6307 -0.0000
vn 1.0000 0.0025 -0.0000
vn 1.0000 0.0027 -0.0000
vn 1.0000 0.0031 -0.0000
vn -1.0000 -0.0009 -0.0000
vn -1.0000 0.0027 -0.0000
vn -0.7760 0.6307 -0.0000
vn -1.0000 0.0025 -0.0000
vn -0.0000 1.0000 -0.0000
vn 1.0000 -0.0000 -0.0000
vn -1.0000 -0.0000 -0.0000
vt 0.255386 2.981369
vt 0.289431 2.981369
vt 0.255386 3.285711
vt 0.289430 3.285711
vt 0.364508 2.981369
vt 0.364508 3.285711
vt 0.499997 2.981369
vt 0.499996 3.285711
vt 0.635485 2.981369
vt 0.635484 3.285711
vt 0.710562 2.981369
vt 0.710562 3.285711
vt 0.744607 2.981368
vt 0.744606 3.285711
vt 3.285711 0.098540
vt 3.285711 0.137307
vt 2.981369 0.098540
vt 2.981369 0.137307
vt 3.285711 0.195603
vt 2.981369 0.195603
vt 3.285711 0.212221
vt 2.981369 0.212221
vt -1.981368 0.098540
vt -1.981368 0.137307
vt -2.285711 0.098540
vt -2.285711 0.137307
vt -1.981369 0.195603
vt -2.285711 0.195603
vt -1.981369 0.212221
vt -2.285711 0.212221
vt 0.767487 3.285711
vt 0.759192 3.285711
vt 0.767487 2.981369
vt 0.759192 2.981369
vt 3.285711 0.278818
vt 3.285711 0.312357
vt 2.981369 0.278818
vt 2.981371 0.312357
vt 2.981369 0.272460
vt 2.981369 0.235840
vt 3.285711 0.272460
vt 3.285711 0.235840
vt 2.981369 0.220877
vt 3.285711 0.220877
vt -1.981369 0.220877
vt -1.981369 0.235840
vt -2.285711 0.220877
vt -2.285711 0.235840
vt -1.981369 0.272460
vt -2.285711 0.272460
vt 0.240816 3.285711
vt 0.232521 3.285711
vt 0.240816 2.981369
vt 0.232520 2.981369
vt -2.285711 0.312357
vt -2.285711 0.278818
vt -1.981371 0.312357
vt -1.981369 0.278818
vt 0.759058 3.285711
vt 0.500004 3.285711
vt 0.759058 2.981371
vt 0.500004 2.981371
vt 0.240950 3.285711
vt 0.240949 2.981371
vt 0.761449 3.285710
vt 0.756667 3.285710
vt 0.761448 2.981371
vt 0.756667 2.981371
vt 3.285710 0.310096
vt 3.285710 0.314618
vt 2.981371 0.310096
vt 2.981371 0.314618
vt 0.243333 3.285710
vt 0.238551 3.285710
vt 0.243333 2.981371
vt 0.238552 2.981371
vt -2.285710 0.314618
vt -2.285710 0.310096
vt -1.981371 0.314618
vt -1.981371 0.310096
vt 0.243340 3.285711
vt 0.238559 3.285711
vt 0.243340 2.981371
vt 0.238559 2.981371
vt -2.285711 0.314618
vt -2.285711 0.310096
vt -1.981371 0.314618
vt -1.981371 0.310096
vt 0.761441 3.285711
vt 0.756660 3.285711
vt 0.761441 2.981371
vt 0.756660 2.981371
vt 3.285711 0.310096
vt 3.285711 0.314618
s 1
g Bis_Hull_Midsection_V_Panzerschiffe_hull_bottom
usemtl hull_bottom
f 3/1/1 2/2/2 1/3/1
f 4/4/2 1/3/1 2/2/2
f 2/2/2 5/5/3 4/4/2
f 6/6/3 4/4/2 5/5/3
f 5/5/3 7/7/4 6/6/3
f 8/8/4 6/6/3 7/7/4
f 7/7/4 9/9/5 8/8/4
f 10/10/5 8/8/4 9/9/5
f 9/9/5 11/11/6 10/10/5
f 12/12/6 10/10/5 11/11/6
f 11/11/6 13/13/7 12/12/6
f 14/14/7 12/12/6 13/13/7
f 17/15/8 16/16/9 15/17/8
f 18/18/9 15/17/8 16/16/9
f 16/16/9 19/19/10 18/18/9
f 20/20/10 18/18/9 19/19/10
f 19/19/10 21/21/11 20/20/10
f 22/22/11 20/20/10 21/21/11
f 25/23/12 24/24/13 23/25/14
f 26/26/13 23/25/14 24/24/13
f 24/24/13 27/27/15 26/26/13
f 28/28/15 26/26/13 27/27/15
f 27/27/15 29/29/16 28/28/15
f 30/30/16 28/28/15 29/29/16
g Bis_Hull_Midsection_V_Panzerschiffe_steel_board_1
usemtl steel_board_1
f 33/31/17 32/32/17 31/33/17
f 34/34/17 31/33/17 32/32/17
f 37/35/18 36/36/18 35/37/18
f 38/38/18 35/37/18 36/36/18
f 41/39/19 40/40/20 39/41/19
f 42/42/20 39/41/19 40/40/20
f 40/40/20 43/43/11 42/42/20
f 44/44/11 42/42/20 43/43/11
f 47/45/16 46/46/21 45/47/16
f 48/48/21 45/47/16 46/46/21
f 46/46/21 49/49/22 48/48/21
f 50/50/22 48/48/21 49/49/22
f 53/51/23 52/52/23 51/53/23
f 54/54/23 51/53/23 52/52/23
f 57/55/24 56/56/24 55/57/24
f 58/58/24 55/57/24 56/56/24
g Bis_Hull_Midsection_V_Panzerschiffe_wood_deck_1
usemtl wood_deck_1
f 61/59/25 60/60/25 59/61/25
f 62/62/25 59/61/25 60/60/25
f 60/60/25 63/63/25 62/62/25
f 64/64/25 62/62/25 63/63/25
g Bis_Hull_Midsection_V_Panzerschiffe_waterline
usemtl waterline
f 45/47/16 30/30/16 47/45/16
f 29/29/16 47/45/16 30/30/16
f 21/21/11 44/44/11 22/22/11
f 43/43/11 22/22/11 44/44/11
g Bis_Hull_Midsection_V_Panzerschiffe_steel_4
usemtl steel_4
f 67/65/25 66/66/25 65/67/25
f 68/68/25 65/67/25 66/66/25
f 71/69/26 70/70/26 69/71/26
f 72/72/26 69/71/26 70/70/26
f 75/73/4 74/74/4 73/75/4
f 76/76/4 73/75/4 74/74/4
f 79/77/27 78/78/27 77/79/27
f 80/80/27 77/79/27 78/78/27
f 83/81/25 82/82/25 81/83/25
f 84/84/25 81/83/25 82/82/25
f 87/85/27 86/86/27 85/87/27
f 88/88/27 85/87/27 86/86/27
f 91/89/4 90/90/4 89/91/4
f 92/92/4 89/91/4 90/90/4
f 95/93/26 94/94/26 93/71/26
f 96/72/26 93/71/26 94/94/26
