# Blender 5.0.1
# www.blender.org
mtllib Misc_Bow_Flag_Pole.mtl
o Misc_Bow_Flag_Pole
v 0.192072 -0.128810 -0.401581
v 0.062334 9.193058 -0.481537
v 0.098339 -0.128810 -0.531479
v 0.120049 9.193058 -0.401558
v 0.098340 -0.128811 -0.271698
v 0.062334 9.193058 -0.321579
v 0.098339 -0.128810 -0.531479
v -0.053096 9.193058 -0.481537
v -0.089126 -0.128810 -0.531479
v 0.062334 9.193058 -0.481537
v -0.110811 9.193058 -0.401558
v -0.089126 -0.128810 -0.531479
v -0.053096 9.193058 -0.481537
v -0.182858 -0.128810 -0.401581
v -0.053096 9.193058 -0.321579
v -0.089125 -0.128811 -0.271698
v -0.089125 -0.128811 -0.271698
v 0.062334 9.193058 -0.321579
v 0.098340 -0.128811 -0.271698
v -0.053096 9.193058 -0.321579
v 0.062334 9.193058 -0.481537
v -0.110811 9.193058 -0.401558
v -0.053096 9.193058 -0.481537
v 0.062334 9.193058 -0.321579
v 0.120049 9.193058 -0.401558
v -0.053096 9.193058 -0.321579
v -1.012300 -0.237995 -1.848976
v -0.148052 4.562753 -0.394386
v -0.087725 4.531487 -0.330681
v -1.088665 -0.195580 -1.929390
v -0.118271 4.584691 -0.479851
v -1.050703 -0.167619 -2.038322
v -1.050703 -0.167619 -2.038322
v -0.028166 4.575355 -0.501610
v -0.118271 4.584691 -0.479851
v -0.936378 -0.182071 -2.066872
v -0.936378 -0.182071 -2.066872
v 0.032103 4.544091 -0.437889
v -0.028166 4.575355 -0.501610
v -0.859968 -0.224483 -1.986458
v 0.002321 4.522151 -0.352394
v -0.897928 -0.252447 -1.877480
v -0.897928 -0.252447 -1.877480
v -0.087725 4.531487 -0.330681
v 0.002321 4.522151 -0.352394
v -1.012300 -0.237995 -1.848976
v 0.148015 4.562753 -0.394386
v 1.012264 -0.237995 -1.848976
v 0.087688 4.531487 -0.330681
v 1.088628 -0.195580 -1.929390
v 0.118234 4.584691 -0.479851
v 1.050666 -0.167619 -2.038322
v 1.050666 -0.167619 -2.038322
v 0.028129 4.575355 -0.501610
v 0.936342 -0.182071 -2.066872
v 0.118234 4.584691 -0.479851
v -0.032140 4.544091 -0.437889
v 0.936342 -0.182071 -2.066872
v 0.028129 4.575355 -0.501610
v 0.859931 -0.224483 -1.986458
v -0.002358 4.522151 -0.352394
v 0.897891 -0.252447 -1.877480
v 0.897891 -0.252447 -1.877480
v 0.087688 4.531487 -0.330681
v 1.012264 -0.237995 -1.848976
v -0.002358 4.522151 -0.352394
vn 0.4097 0.0068 -0.9122
vn 0.4098 0.0067 -0.9122
vn 1.0000 0.0077 -0.0000
vn 0.4096 0.0066 0.9122
vn 0.4096 0.0067 0.9122
vn -0.5000 0.0066 -0.8660
vn -0.5000 0.0065 -0.8660
vn 0.5000 0.0066 -0.8660
vn 0.5000 0.0065 -0.8660
vn -0.4096 0.0067 -0.9122
vn -0.4097 0.0067 -0.9122
vn -1.0000 0.0077 -0.0000
vn -0.4097 0.0067 0.9122
vn -0.4096 0.0068 0.9123
vn 0.5000 0.0066 0.8660
vn 0.5000 0.0065 0.8660
vn -0.5000 0.0066 0.8660
vn -0.5000 0.0065 0.8660
vn -0.0000 1.0000 -0.0000
vn -0.3156 -0.2317 0.9202
vn -0.9642 0.1133 0.2397
vn -0.3145 -0.2321 0.9205
vn -0.9641 0.1131 0.2402
vn -0.6435 0.3497 -0.6809
vn -0.6430 0.3496 -0.6814
vn -0.6436 0.3496 -0.6808
vn 0.3239 0.2393 -0.9153
vn -0.6429 0.3496 -0.6815
vn 0.3254 0.2390 -0.9149
vn 0.3240 0.2392 -0.9153
vn 0.9667 -0.1051 -0.2332
vn 0.3252 0.2390 -0.9150
vn 0.9668 -0.1053 -0.2327
vn 0.6479 -0.3398 0.6817
vn 0.6483 -0.3399 0.6813
vn 0.6479 -0.3399 0.6817
vn -0.3154 -0.2317 0.9202
vn 0.6484 -0.3399 0.6813
vn -0.3144 -0.2320 0.9205
vn 0.3156 -0.2316 0.9202
vn 0.3144 -0.2320 0.9205
vn 0.9642 0.1133 0.2397
vn 0.9641 0.1131 0.2402
vn 0.6436 0.3496 -0.6809
vn 0.6430 0.3496 -0.6814
vn -0.3252 0.2389 -0.9150
vn -0.3239 0.2393 -0.9153
vn 0.6429 0.3496 -0.6815
vn 0.6436 0.3496 -0.6808
vn -0.3252 0.2390 -0.9150
vn -0.9667 -0.1051 -0.2332
vn -0.9668 -0.1053 -0.2327
vn -0.6479 -0.3399 0.6817
vn -0.6483 -0.3399 0.6813
vn 0.3154 -0.2317 0.9202
vn -0.6484 -0.3399 0.6813
vt 6.298072 0.321960
vt 6.297123 0.463871
vt 6.295605 0.321960
vt 6.295604 0.463871
vt 6.293138 0.321960
vt 6.294085 0.463871
vt 0.501338 0.321960
vt 0.500790 0.463871
vt 0.498486 0.321960
vt 0.499034 0.463871
vt -5.297123 0.463871
vt -5.298072 0.321960
vt -5.295604 0.463871
vt -5.295605 0.321960
vt -5.294085 0.463871
vt -5.293138 0.321960
vt 0.501514 0.321960
vt 0.500966 0.463871
vt 0.498662 0.321960
vt 0.499210 0.463871
vt 0.499210 6.297123
vt 0.498332 6.295604
vt 0.500966 6.297123
vt 0.500966 6.294085
vt 0.501844 6.295604
vt 0.499210 6.294085
vt -5.294527 0.392906
vt -5.295495 0.393382
vt -5.317598 0.320298
vt -5.318820 0.320944
vt -5.296794 0.393716
vt -5.320476 0.321369
vt 0.501781 0.393716
vt 0.500410 0.393574
vt 0.515965 0.321369
vt 0.514226 0.321149
vt 6.297125 0.393574
vt 6.296156 0.393098
vt 6.320909 0.321149
vt 6.319687 0.320504
vt 6.294857 0.392764
vt 6.318031 0.320078
vt 0.500053 0.392764
vt 0.498684 0.392906
vt 0.486359 0.320078
vt 0.484619 0.320298
vt 6.294527 0.392906
vt 6.317598 0.320298
vt 6.295495 0.393382
vt 6.318820 0.320944
vt 6.296794 0.393716
vt 6.320476 0.321369
vt 0.485738 0.321149
vt 0.499554 0.393574
vt 0.483999 0.321369
vt 0.498183 0.393716
vt -5.297125 0.393574
vt -5.320909 0.321149
vt -5.296156 0.393098
vt -5.319687 0.320504
vt -5.294857 0.392764
vt -5.318031 0.320078
vt 0.515417 0.320298
vt 0.501352 0.392906
vt 0.513677 0.320078
vt 0.499982 0.392764
s 1
g Misc_Bow_Flag_Pole_steel_4
usemtl steel_4
f 3/1/1 2/2/2 1/3/3
f 4/4/3 1/3/3 2/2/2
f 1/3/3 4/4/3 5/5/4
f 6/6/5 5/5/4 4/4/3
f 9/7/6 8/8/7 7/9/8
f 10/10/9 7/9/8 8/8/7
f 13/11/10 12/12/11 11/13/12
f 14/14/12 11/13/12 12/12/11
f 11/13/12 14/14/12 15/15/13
f 16/16/14 15/15/13 14/14/12
f 19/17/15 18/18/16 17/19/17
f 20/20/18 17/19/17 18/18/16
f 23/21/19 22/22/19 21/23/19
f 22/22/19 24/24/19 21/23/19
f 21/23/19 24/24/19 25/25/19
f 26/26/19 24/24/19 22/22/19
f 29/27/20 28/28/21 27/29/22
f 30/30/23 27/29/22 28/28/21
f 28/28/21 31/31/24 30/30/23
f 32/32/25 30/30/23 31/31/24
f 35/33/26 34/34/27 33/35/28
f 36/36/29 33/35/28 34/34/27
f 39/37/30 38/38/31 37/39/32
f 40/40/33 37/39/32 38/38/31
f 38/38/31 41/41/34 40/40/33
f 42/42/35 40/40/33 41/41/34
f 45/43/36 44/44/37 43/45/38
f 46/46/39 43/45/38 44/44/37
f 49/47/40 48/48/41 47/49/42
f 50/50/43 47/49/42 48/48/41
f 47/49/42 50/50/43 51/51/44
f 52/52/45 51/51/44 50/50/43
f 55/53/46 54/54/47 53/55/48
f 56/56/49 53/55/48 54/54/47
f 59/57/47 58/58/50 57/59/51
f 60/60/52 57/59/51 58/58/50
f 57/59/51 60/60/52 61/61/53
f 62/62/54 61/61/53 60/60/52
f 65/63/41 64/64/55 63/65/56
f 66/66/53 63/65/56 64/64/55
