# Blender 5.1.0
# www.blender.org
mtllib vir_gun_305_x1_001_0.mtl
o vir_gun_305_x1_001_0.001_vir_gun_305_x1_001_0.004
v -1.796550 1.461970 3.746080
v -0.729801 1.212703 4.073605
v -0.653449 1.486843 3.756094
v -0.939100 1.031323 4.046408
v -1.796550 1.663426 3.518082
v -1.720199 1.201879 3.772716
v -1.510900 1.031323 3.845953
v -1.225000 0.954401 3.945985
v -0.729802 2.628902 2.902547
v -0.653450 1.663426 3.550131
v -0.653194 2.342996 3.362392
v -0.653414 1.791214 4.249867
v -0.653448 1.525263 4.249867
v -0.729800 1.240300 4.249867
v -0.939091 2.838197 2.565922
v -1.225000 2.914804 2.442707
v -1.225000 2.895593 2.144450
v -1.510909 2.838197 2.565922
v -1.720198 2.628902 2.902547
v -0.939100 1.031007 4.249867
v -1.225000 0.954401 4.249867
v -1.510900 1.031007 4.249867
v -1.720199 1.240300 4.249867
v -0.769343 1.791214 4.249867
v -0.769377 1.540524 4.249867
v -0.833740 1.300309 4.249867
v -0.999109 1.134946 4.249867
v -1.225000 1.074419 4.249867
v -1.450890 1.134946 4.249867
v -1.616260 1.300309 4.249867
v -1.680623 1.540524 4.249867
v -1.796551 1.525263 4.249867
v -1.680655 1.791214 4.249867
v -1.796586 1.791214 4.249867
v -0.833740 1.300310 2.078410
v -0.999109 1.134946 2.078410
v -1.225000 1.074419 4.249867
v -1.225000 1.074420 2.078410
v -1.450890 1.134946 2.078410
v -1.450890 1.134946 4.249867
v -1.616260 1.300310 2.078410
v -0.769377 1.540524 2.078410
v -0.833740 1.300310 2.078410
v -0.769130 2.327756 2.078410
v -0.769130 2.327756 3.386903
v -0.833741 2.568893 2.999063
v -0.833741 2.568893 2.078410
v -0.833741 2.568893 2.078410
v -0.999100 2.734258 2.733095
v -0.833741 2.568893 2.999063
v -0.999100 2.734258 2.078410
v -1.225000 2.794786 2.635743
v -1.225000 2.794786 2.078410
v -1.450898 2.734258 2.078410
v -1.450898 2.734258 2.733095
v -1.616257 2.568893 2.078410
v -1.616257 2.568893 2.999063
v -0.769130 2.327756 3.386903
v -0.833741 2.568893 2.999063
v -0.999100 2.734258 2.733095
v -1.225000 2.794786 2.635743
v -1.450898 2.734258 2.733095
v -1.616257 2.568893 2.999063
v -1.796805 2.342996 3.362392
v -1.680869 2.327756 3.386903
v -1.680623 1.540524 2.078410
v -1.616260 1.300310 2.078410
v -1.680869 2.327756 2.078410
v -1.680869 2.327756 3.386903
v -1.616257 2.568893 2.999063
v -1.616257 2.568893 2.078410
v -0.939091 2.794471 2.252731
v -1.510909 2.794471 2.257385
v -1.720198 2.495093 2.586981
v -1.796805 2.095543 3.028972
v -0.729802 2.495093 2.588032
v -0.653195 2.095543 3.049968
v 1.796550 1.461970 3.746080
v 0.729801 1.212703 4.073605
v 0.653449 1.486843 3.756094
v 0.939100 1.031323 4.046408
v 1.796550 1.663426 3.518082
v 1.720199 1.201879 3.772716
v 1.510900 1.031323 3.845953
v 1.225000 0.954401 3.945985
v 0.729802 2.628902 2.902547
v 0.653450 1.663426 3.550131
v 0.653194 2.342996 3.362392
v 0.653414 1.791214 4.249867
v 0.653448 1.525263 4.249867
v 0.729800 1.240300 4.249867
v 0.939091 2.838197 2.565922
v 1.225000 2.914804 2.442707
v 1.225000 2.895593 2.144450
v 1.510909 2.838197 2.565922
v 1.720198 2.628902 2.902547
v 0.939100 1.031007 4.249867
v 1.225000 0.954401 4.249867
v 1.510900 1.031007 4.249867
v 1.720199 1.240300 4.249867
v 0.769343 1.791214 4.249867
v 0.769377 1.540524 4.249867
v 0.833740 1.300309 4.249867
v 0.999109 1.134946 4.249867
v 1.225000 1.074419 4.249867
v 1.450890 1.134946 4.249867
v 1.616260 1.300309 4.249867
v 1.680623 1.540524 4.249867
v 1.796551 1.525263 4.249867
v 1.680655 1.791214 4.249867
v 1.796586 1.791214 4.249867
v 0.833740 1.300310 2.078410
v 0.999109 1.134946 2.078410
v 1.225000 1.074419 4.249867
v 1.225000 1.074420 2.078410
v 1.450890 1.134946 2.078410
v 1.450890 1.134946 4.249867
v 1.616260 1.300310 2.078410
v 0.769377 1.540524 2.078410
v 0.833740 1.300310 2.078410
v 0.769130 2.327756 2.078410
v 0.769130 2.327756 3.386903
v 0.833741 2.568893 2.999063
v 0.833741 2.568893 2.078410
v 0.833741 2.568893 2.078410
v 0.999100 2.734258 2.733095
v 0.833741 2.568893 2.999063
v 0.999100 2.734258 2.078410
v 1.225000 2.794786 2.635743
v 1.225000 2.794786 2.078410
v 1.450898 2.734258 2.078410
v 1.450898 2.734258 2.733095
v 1.616257 2.568893 2.078410
v 1.616257 2.568893 2.999063
v 0.769130 2.327756 3.386903
v 0.833741 2.568893 2.999063
v 0.999100 2.734258 2.733095
v 1.225000 2.794786 2.635743
v 1.450898 2.734258 2.733095
v 1.616257 2.568893 2.999063
v 1.796805 2.342996 3.362392
v 1.680869 2.327756 3.386903
v 1.680623 1.540524 2.078410
v 1.616260 1.300310 2.078410
v 1.680869 2.327756 2.078410
v 1.680869 2.327756 3.386903
v 1.616257 2.568893 2.999063
v 1.616257 2.568893 2.078410
v 0.939091 2.794471 2.252731
v 1.510909 2.794471 2.257385
v 1.720198 2.495093 2.586981
v 1.796805 2.095543 3.028972
v 0.729802 2.495093 2.588032
v 0.653195 2.095543 3.049968
vn 1.0000 -0.0004 -0.0000
vn 0.9975 0.0555 -0.0441
vn 1.0000 -0.0002 -0.0000
vn 0.9985 0.0454 -0.0294
vn 0.9369 0.3195 -0.1421
vn 0.9980 -0.0635 0.0049
vn 0.9926 -0.1206 0.0126
vn 0.9584 0.2690 -0.0953
vn 0.5002 -0.8659 -0.0009
vn 0.4603 -0.8876 0.0173
vn 0.6701 -0.7390 0.0696
vn -0.0557 -0.9984 -0.0005
vn -0.0000 -1.0000 -0.0000
vn -0.5001 -0.8660 -0.0005
vn -0.5155 -0.8566 0.0243
vn -0.4230 -0.8294 -0.3649
vn -0.9881 -0.0412 0.1485
vn -0.7498 -0.5204 -0.4086
vn -0.9932 -0.1152 0.0145
vn -0.0000 -0.0000 1.0000
vn 0.4990 -0.1716 0.8494
vn -0.0037 0.4704 0.8824
vn -0.7071 0.7071 -0.0000
vn -0.5000 0.8660 -0.0000
vn -0.0000 1.0000 -0.0000
vn 0.5000 0.8660 -0.0000
vn 0.7071 0.7071 -0.0000
vn -0.9659 0.2588 -0.0000
vn -0.9914 0.1307 -0.0000
vn -0.9914 0.1306 -0.0000
vn -1.0000 0.0002 -0.0000
vn -0.9915 -0.1304 -0.0000
vn -0.9989 -0.0468 -0.0000
vn -0.9659 -0.2588 -0.0000
vn -0.7071 -0.7071 -0.0000
vn -0.2588 -0.9659 -0.0000
vn -0.0001 -1.0000 -0.0000
vn 0.2588 -0.9659 -0.0000
vn 0.7071 -0.7071 -0.0000
vn -0.0000 0.8492 0.5280
vn 0.6414 -0.7580 0.1187
vn 0.9659 0.2588 -0.0000
vn 0.9914 0.1307 -0.0000
vn 0.9914 0.1306 -0.0000
vn 1.0000 0.0002 -0.0000
vn 0.9915 -0.1304 -0.0000
vn 0.9989 -0.0468 -0.0000
vn 1.0000 0.0004 -0.0000
vn 0.9659 -0.2588 -0.0000
vn -0.9590 0.1496 -0.2406
vn 0.2830 0.9571 -0.0616
vn 0.6414 0.7614 -0.0942
vn 0.3292 0.9394 -0.0954
vn -0.5275 -0.7974 0.2931
vn -0.4734 0.8121 -0.3412
vn -0.2954 0.9442 -0.1459
vn -0.6641 0.7287 0.1673
vn -0.2830 0.9571 -0.0616
vn 0.5519 0.8228 -0.1357
vn -0.9583 0.2693 -0.0954
vn -0.9367 0.3202 -0.1416
vn -0.9985 0.0459 -0.0283
vn -0.9973 0.0589 -0.0438
vn -1.0000 -0.0002 -0.0000
vn -1.0000 -0.0004 -0.0000
vn -0.9980 -0.0626 0.0078
vn 0.9673 -0.2520 0.0279
vn 0.9651 -0.2586 0.0405
vn -0.9980 -0.0635 0.0049
vn -0.9673 -0.2520 0.0279
vn -0.9926 -0.1206 0.0126
vn -0.9651 -0.2586 0.0405
vn 0.9932 -0.0870 -0.0769
vn 0.9980 -0.0001 0.0629
vn -0.9985 0.0454 -0.0294
vn -0.9975 0.0555 -0.0441
vn 0.0557 -0.9984 -0.0005
vn 0.5001 -0.8660 -0.0005
vn -0.5002 -0.8659 -0.0009
vn 0.5155 -0.8566 0.0243
vn 0.9661 -0.1093 0.2337
vn 0.9474 -0.2916 -0.1316
vn 0.7026 -0.6743 -0.2270
vn 0.3183 -0.9229 -0.2168
vn 0.6830 0.6830 0.2588
vn 0.6830 0.6830 -0.2588
vn -0.4376 0.2949 0.8494
vn 0.0576 0.4669 0.8824
vn 0.2500 0.9330 0.2588
vn 0.9615 0.2423 0.1295
vn 0.9937 0.0053 0.1123
vn 0.0721 -0.9807 -0.1818
vn -0.1668 -0.9703 -0.1750
vn -0.6414 -0.7580 0.1187
vn -0.4603 -0.8876 0.0173
vn -0.6701 -0.7390 0.0696
vn -0.9914 -0.0311 0.1268
vn -0.9648 -0.2459 0.0934
vn -1.0000 0.0004 -0.0000
vn -0.9584 0.2690 -0.0953
vn -0.9369 0.3195 -0.1421
vn 0.9194 -0.0105 -0.3931
vn -0.2251 0.9723 -0.0626
vn -0.3096 0.8876 0.3411
vn 0.4706 -0.8498 0.2372
vn 0.8359 0.5489 0.0009
vn 0.2468 0.9601 -0.1313
vn 0.2955 0.9441 -0.1460
vn 0.2500 0.9330 -0.2588
vn -0.6809 0.7319 -0.0257
vn -0.5519 0.8228 -0.1357
vn -0.3887 0.9030 -0.1830
vn 0.9973 0.0589 -0.0438
vn 0.9583 0.2693 -0.0954
vn 0.9367 0.3202 -0.1416
vn 0.9985 0.0459 -0.0283
vt 0.504416 0.494643
vt 0.493322 0.504228
vt 0.519937 0.497478
vt 0.500252 0.509717
vt 0.483075 0.513090
vt 0.508984 0.490726
vt 0.519937 0.491579
vt 0.490052 0.516059
vt 0.520830 0.519937
vt 0.520830 0.515424
vt 0.516188 0.519937
vt 0.527172 0.513196
vt 0.527172 0.519937
vt 0.533513 0.519937
vt 0.533513 0.510977
vt 0.538156 0.519937
vt 0.509353 0.484406
vt 0.508762 0.490175
vt 0.514493 0.497478
vt 0.517065 0.497478
vt 0.514494 0.491579
vt 0.517066 0.491917
vt 0.516188 0.485258
vt 0.518493 0.486589
vt 0.520830 0.480616
vt 0.522161 0.482921
vt 0.527172 0.478916
vt 0.527172 0.481578
vt 0.532182 0.482921
vt 0.533513 0.480616
vt 0.535850 0.486589
vt 0.538156 0.485258
vt 0.537278 0.491917
vt 0.539849 0.491579
vt 0.537279 0.497478
vt 0.539850 0.497478
vt 0.518493 0.519937
vt 0.518493 0.471772
vt 0.522161 0.519937
vt 0.522161 0.471772
vt 0.527172 0.471772
vt 0.532182 0.471772
vt 0.532182 0.519937
vt 0.535850 0.471772
vt 0.535850 0.519937
vt 0.471772 0.486589
vt 0.519937 0.486589
vt 0.471772 0.491917
vt 0.519937 0.491917
vt 0.471772 0.509379
vt 0.500795 0.509379
vt 0.492193 0.514727
vt 0.471772 0.514727
vt 0.486293 0.518395
vt 0.471772 0.518395
vt 0.522161 0.486293
vt 0.527172 0.484134
vt 0.522161 0.471772
vt 0.532182 0.471772
vt 0.532182 0.486293
vt 0.517065 0.519937
vt 0.514493 0.519937
vt 0.517060 0.500795
vt 0.514489 0.500252
vt 0.518493 0.492193
vt 0.516188 0.490052
vt 0.520830 0.482585
vt 0.527172 0.479852
vt 0.533513 0.482585
vt 0.538156 0.490052
vt 0.535850 0.492193
vt 0.539855 0.500252
vt 0.537283 0.500795
vt 0.539850 0.519937
vt 0.537279 0.519937
vt 0.516188 0.516027
vt 0.519937 0.485258
vt 0.527172 0.473236
vt 0.538156 0.509353
vt 0.533513 0.475741
vt 0.520830 0.475638
vt 0.482585 0.520701
vt 0.475638 0.519731
vt 0.475741 0.519731
vt 0.483052 0.513090
vt 0.492856 0.504228
vt 0.503705 0.494643
vt 0.516027 0.484646
s 1
g vir_gun_305_x1_001_0.001_vir_gun_305_x1_001_0.004_steel_4
usemtl steel_4
f 10/1/1 77/2/2 12/3/3
f 11/4/4 12/3/3 77/2/2
f 76/5/5 11/4/4 77/2/2
f 3/6/6 10/1/1 13/7/7
f 9/8/8 11/4/4 76/5/5
f 20/9/9 4/10/10 14/11/11
f 4/10/10 20/9/9 8/12/12
f 21/13/13 8/12/12 20/9/9
f 21/13/13 22/14/14 8/12/12
f 7/15/15 8/12/12 22/14/14
f 22/14/14 23/16/16 7/15/15
f 6/17/17 32/7/18 1/18/19
f 12/19/20 24/20/20 13/21/20
f 25/22/20 13/21/20 24/20/20
f 13/21/20 25/22/20 14/23/20
f 26/24/20 14/23/20 25/22/20
f 14/23/20 26/24/20 20/25/20
f 27/26/20 20/25/20 26/24/20
f 20/25/20 27/26/20 21/27/20
f 28/28/20 21/27/20 27/26/20
f 28/28/20 29/29/20 21/27/20
f 22/30/20 21/27/20 29/29/20
f 29/29/20 30/31/20 22/30/20
f 23/32/20 22/30/20 30/31/20
f 30/31/20 31/33/20 23/32/20
f 32/34/21 23/32/22 31/33/20
f 31/33/20 33/35/20 32/34/21
f 34/36/20 32/34/21 33/35/20
f 26/37/23 35/38/23 27/39/24
f 36/40/24 27/39/24 35/38/23
f 27/39/24 36/40/24 37/13/25
f 38/41/25 37/13/25 36/40/24
f 38/41/25 39/42/26 37/13/25
f 40/43/26 37/13/25 39/42/26
f 39/42/26 41/44/27 40/43/26
f 30/45/27 40/43/26 41/44/27
f 43/46/28 26/47/28 42/48/29
f 25/49/30 42/48/29 26/47/28
f 24/3/31 42/48/29 25/49/30
f 42/48/29 24/3/31 44/50/32
f 45/51/33 44/50/32 24/3/31
f 45/51/33 46/52/34 44/50/32
f 47/53/34 44/50/32 46/52/34
f 50/52/35 49/54/35 48/53/35
f 51/55/35 48/53/35 49/54/35
f 49/56/36 52/57/37 51/58/36
f 53/41/13 51/58/36 52/57/13
f 53/41/13 52/57/13 54/59/38
f 55/60/38 54/59/38 52/57/13
f 54/55/39 55/54/39 56/53/39
f 57/52/39 56/53/39 55/54/39
f 24/61/40 12/62/40 58/63/40
f 11/64/40 58/63/40 12/62/40
f 58/63/40 11/64/40 59/65/40
f 9/66/40 59/65/40 11/64/40
f 59/65/40 9/66/40 60/56/40
f 15/67/40 60/56/40 9/66/40
f 60/56/40 15/67/40 61/57/40
f 16/68/40 61/57/40 15/67/40
f 16/68/40 18/69/40 61/57/40
f 62/60/40 61/57/40 18/69/40
f 18/69/40 19/70/40 62/60/40
f 63/71/40 62/60/40 19/70/40
f 19/70/40 64/72/40 63/71/40
f 65/73/40 63/71/40 64/72/40
f 64/72/40 34/74/40 65/73/40
f 33/75/40 65/73/40 34/74/40
f 2/76/41 14/11/11 4/10/10
f 67/46/42 66/48/43 30/47/42
f 31/49/44 30/47/42 66/48/43
f 66/48/43 33/3/45 31/49/44
f 66/48/43 68/50/46 33/3/45
f 69/51/47 33/3/48 68/50/46
f 69/51/47 68/50/46 70/52/49
f 71/53/49 70/52/49 68/50/46
f 6/17/17 23/77/50 32/7/18
f 16/68/51 15/67/52 17/78/53
f 13/7/7 10/1/1 12/3/3
f 7/15/15 23/16/16 6/79/54
f 18/69/55 17/78/56 73/80/57
f 17/78/56 18/69/55 16/68/58
f 15/67/52 72/81/59 17/78/53
f 15/82/52 9/8/8 72/83/59
f 72/83/59 9/8/8 76/5/5
f 18/82/55 73/84/57 19/8/60
f 73/84/57 74/85/61 19/8/60
f 19/8/60 74/85/61 64/4/62
f 74/85/61 75/86/63 64/4/62
f 64/4/62 75/86/63 34/3/64
f 5/87/65 34/3/64 75/86/63
f 32/7/66 34/3/64 5/87/65
f 1/18/19 32/7/66 5/87/65
f 2/88/67 13/7/7 14/77/68
f 3/6/6 13/7/7 2/88/67
f 80/6/69 79/88/70 90/7/71
f 79/88/70 91/77/72 90/7/71
f 78/18/73 82/87/1 109/7/74
f 88/4/75 154/2/76 89/3/64
f 109/7/74 82/87/1 111/3/3
f 98/13/13 85/12/77 99/14/78
f 98/13/13 97/9/79 85/12/77
f 84/15/80 99/14/78 85/12/77
f 83/17/81 78/18/82 109/7/83
f 99/14/78 84/15/80 100/16/84
f 102/22/20 101/20/20 90/21/20
f 113/40/85 112/38/27 104/39/86
f 90/21/20 91/23/20 102/22/20
f 91/23/20 97/25/20 103/24/20
f 103/24/20 102/22/20 91/23/20
f 97/25/20 98/27/20 104/26/20
f 104/26/20 103/24/20 97/25/20
f 105/28/20 98/27/20 106/29/20
f 105/28/20 104/26/20 98/27/20
f 99/30/20 106/29/20 98/27/20
f 100/32/20 107/31/20 99/30/20
f 106/29/20 99/30/20 107/31/20
f 109/34/87 108/33/20 100/32/88
f 107/31/20 100/32/20 108/33/20
f 108/33/20 109/34/87 110/35/20
f 111/36/20 110/35/20 109/34/87
f 115/41/25 113/40/89 114/13/25
f 117/43/24 116/42/24 114/13/25
f 116/42/24 117/43/24 118/44/23
f 107/45/23 118/44/23 117/43/24
f 120/46/42 119/48/90 103/47/42
f 102/49/44 103/47/42 119/48/91
f 101/3/45 102/49/44 119/48/91
f 119/48/91 121/50/46 101/3/45
f 122/51/47 121/50/46 123/52/49
f 122/51/47 101/3/45 121/50/46
f 128/55/39 126/54/39 125/53/39
f 127/52/39 125/53/39 126/54/39
f 124/53/49 123/52/49 121/50/46
f 126/56/38 128/58/38 129/57/92
f 130/41/13 129/57/93 128/58/38
f 130/41/13 131/59/36 129/57/93
f 132/60/36 129/57/93 131/59/36
f 131/55/35 133/53/35 132/54/35
f 134/52/35 132/54/35 133/53/35
f 101/61/40 135/63/40 89/62/40
f 88/64/40 89/62/40 135/63/40
f 135/63/40 136/65/40 88/64/40
f 86/66/40 88/64/40 136/65/40
f 136/65/40 137/56/40 86/66/40
f 92/67/40 86/66/40 137/56/40
f 93/68/40 92/67/40 138/57/40
f 137/56/40 138/57/40 92/67/40
f 139/60/40 95/69/40 138/57/40
f 93/68/40 138/57/40 95/69/40
f 140/71/40 96/70/40 139/60/40
f 95/69/40 139/60/40 96/70/40
f 141/72/40 142/73/40 111/74/40
f 142/73/40 141/72/40 140/71/40
f 96/70/40 140/71/40 141/72/40
f 110/75/40 111/74/40 142/73/40
f 79/76/94 81/10/95 91/11/96
f 144/46/28 107/47/28 143/48/29
f 108/49/30 143/48/29 107/47/28
f 143/48/29 110/3/31 145/50/97
f 146/51/33 145/50/98 110/3/99
f 143/48/29 108/49/30 110/3/31
f 86/8/100 153/5/101 88/4/75
f 83/17/81 109/7/83 100/77/102
f 148/53/34 145/50/98 147/52/34
f 146/51/33 147/52/34 145/50/98
f 93/68/58 94/78/103 92/67/104
f 90/7/71 89/3/64 87/1/65
f 84/15/80 83/79/105 100/16/84
f 95/69/106 150/80/107 94/78/108
f 104/39/109 114/13/25 113/40/89
f 97/9/79 91/11/96 81/10/95
f 87/1/65 89/3/64 154/2/76
f 89/19/20 90/21/20 101/20/20
f 92/82/110 149/83/111 86/8/100
f 81/10/95 85/12/77 97/9/79
f 94/78/108 93/68/51 95/69/106
f 92/67/110 94/78/112 149/81/111
f 82/87/1 152/86/113 111/3/3
f 149/83/111 153/5/101 86/8/100
f 150/84/107 96/8/114 151/85/115
f 95/82/106 96/8/114 150/84/107
f 141/4/116 111/3/3 152/86/113
f 151/85/115 141/4/116 152/86/113
f 96/8/114 141/4/116 151/85/115
f 115/41/25 114/13/25 116/42/24
f 103/37/27 104/39/86 112/38/27
f 80/6/69 90/7/71 87/1/65
f 153/5/101 154/2/76 88/4/75
