# Blender 5.1.0
# www.blender.org
mtllib vir_gun_305_x1_001_2_vir_gun_305_x1_001_2.mtl
o vir_gun_305_x1_001_2_vir_gun_305_x1_001_2
v 2.524120 3.088360 1.924670
v 0.000000 3.482780 -2.554846
v 3.043524 3.482780 -2.554847
v 0.000000 3.088360 1.924670
v -2.524117 3.088360 1.924670
v -3.043522 3.482780 -2.554847
v 0.000000 3.482780 -2.554846
v 3.360604 3.416595 -3.311355
v 3.043524 3.482780 -2.554847
v 3.107777 3.340159 -4.185016
v 2.801427 3.307228 -4.561419
v 2.234064 3.279004 -4.884013
v 1.554675 3.257768 -5.126735
v 0.797328 3.244586 -5.277412
v 0.000000 3.240117 -5.328493
v -0.797327 3.244586 -5.277412
v -1.554675 3.257768 -5.126735
v -2.234062 3.279004 -4.884013
v -2.801426 3.307228 -4.561419
v -3.107777 3.340159 -4.185016
v -3.360604 3.416595 -3.311355
v -3.043522 3.482780 -2.554847
vn -0.0000 0.9961 0.0877
vn -0.0000 0.9962 -0.0872
vt 0.451000 0.507972
vt 0.500000 0.507972
vt 0.459363 0.580090
vt 0.500000 0.580090
vt 0.540637 0.580090
vt 0.549000 0.507972
vt 0.445895 0.495792
vt 0.449966 0.481726
vt 0.454898 0.475666
vt 0.464032 0.470473
vt 0.474970 0.466565
vt 0.487163 0.464139
vt 0.500000 0.463317
vt 0.512837 0.464139
vt 0.525030 0.466565
vt 0.535968 0.470473
vt 0.545102 0.475666
vt 0.550034 0.481726
vt 0.554105 0.495792
s 1
g vir_gun_305_x1_001_2_vir_gun_305_x1_001_2_steel_3
usemtl steel_3
f 3/1/1 2/2/1 1/3/1
f 4/4/1 1/3/1 2/2/1
f 4/4/1 2/2/1 5/5/1
f 6/6/1 5/5/1 2/2/1
f 9/1/2 8/7/2 7/2/2
f 8/7/2 10/8/2 7/2/2
f 10/8/2 11/9/2 7/2/2
f 11/9/2 12/10/2 7/2/2
f 12/10/2 13/11/2 7/2/2
f 13/11/2 14/12/2 7/2/2
f 14/12/2 15/13/2 7/2/2
f 15/13/2 16/14/2 7/2/2
f 16/14/2 17/15/2 7/2/2
f 17/15/2 18/16/2 7/2/2
f 18/16/2 19/17/2 7/2/2
f 19/17/2 20/18/2 7/2/2
f 20/18/2 21/19/2 7/2/2
f 21/19/2 22/6/2 7/2/2
