# Blender 5.1.0
# www.blender.org
mtllib vir_gun_305_x1_001_1_vir_gun_305_x1_001_1.mtl
o vir_gun_305_x1_001_1_vir_gun_305_x1_001_1
v 4.044390 0.736297 0.043941
v 4.142056 0.736297 0.956625
v 4.249075 0.736297 0.006800
v 4.142056 0.736297 0.956625
v 4.044390 0.736297 0.043941
v 3.942467 0.736297 0.948536
v 1.742996 0.736296 3.706591
v 0.930410 0.736296 4.168279
v 1.832611 0.736296 3.852582
v -2.680797 0.736297 3.344045
v -1.784694 0.736296 3.706591
v -2.555488 0.736297 3.222269
v -4.086087 0.736297 0.043941
v -4.180903 0.736297 -0.943030
v -4.287926 0.736297 0.006800
v -4.051278 0.736297 -0.924678
v -4.086087 0.736297 0.043941
v -3.984161 0.736297 -0.860659
v 4.249075 0.736297 0.006800
v 3.942465 0.736297 -0.860659
v 4.044390 0.736297 0.043941
v -3.683502 0.736298 -1.719899
v -4.051278 0.736297 -0.924678
v -3.984161 0.736297 -0.860659
v -4.051278 0.736297 -0.924678
v -3.683502 0.736298 -1.719899
v -3.414137 0.736298 -3.126365
v 3.641804 0.736298 -1.719899
v 4.051278 0.736297 -0.924678
v 3.414137 0.736298 -3.126365
v 3.414137 0.736298 -3.126365
v 3.157482 0.736298 -2.490693
v 3.641804 0.736298 -1.719899
v 4.249075 0.736297 0.006800
v 4.142056 -0.000001 0.956624
v 4.142056 0.736297 0.956625
v 1.832611 0.736296 3.852582
v 0.930410 -0.000002 4.168279
v 0.930411 0.736296 4.168279
v 1.832611 -0.000002 3.852582
v -0.019426 -0.000002 4.275300
v -0.019426 0.736296 4.275300
v -0.969260 -0.000002 4.168279
v -0.969260 0.736296 4.168279
v -1.871463 -0.000002 3.852582
v -1.871463 0.736296 3.852582
v -2.680797 -0.000001 3.344045
v -2.680797 0.736297 3.344045
v -3.356677 -0.000001 2.668162
v -3.356677 0.736297 2.668162
v -3.865212 -0.000001 1.858827
v -3.865212 0.736297 1.858827
v -4.180906 -0.000001 0.956624
v -4.180906 0.736297 0.956625
v -4.287926 0.000000 0.006800
v -4.287926 0.736297 0.006800
v -4.180903 -0.000001 -0.943030
v -4.180903 0.736297 -0.943030
v -3.865211 0.000000 -1.845232
v -3.865211 0.736298 -1.845232
v 4.142054 0.736297 -0.943030
v 4.249075 0.000000 0.006800
v -3.199179 0.736298 -2.490693
v -2.801426 0.736297 -4.561419
v -3.107777 0.736298 -4.185015
v -3.414137 0.736298 -3.126365
v -3.683502 0.736298 -1.719899
v 3.942467 0.736297 0.948536
v 3.826363 0.736297 1.858827
v 4.142056 0.736297 0.956625
v 3.641807 0.736297 1.807776
v 3.317826 0.736297 2.668162
v 3.157486 0.736297 2.578571
v 3.157486 0.736297 2.578571
v 2.641946 0.736297 3.344045
v 3.317826 0.736297 2.668162
v 2.513791 0.736297 3.222269
v 2.513791 0.736297 3.222269
v 1.832611 0.736296 3.852582
v 2.641946 0.736297 3.344045
v 1.742996 0.736296 3.706591
v 0.930410 0.736296 4.168279
v 1.742996 0.736296 3.706591
v 0.883757 0.736296 4.007254
v -0.019426 0.736296 4.275300
v -0.019426 0.736296 4.275300
v 0.883757 0.736296 4.007254
v -0.020849 0.736296 4.109179
v -0.969260 0.736296 4.168279
v -0.925453 0.736296 4.007254
v -0.925453 0.736296 4.007254
v -1.871463 0.736296 3.852582
v -0.969260 0.736296 4.168279
v -1.784694 0.736296 3.706591
v -2.680797 0.736297 3.344045
v -2.555488 0.736297 3.222269
v -3.356677 0.736297 2.668162
v -2.680797 0.736297 3.344045
v -3.199184 0.736297 2.578571
v -3.865212 0.736297 1.858827
v -3.865212 0.736297 1.858827
v -3.199184 0.736297 2.578571
v -3.683503 0.736297 1.807776
v -4.180906 0.736297 0.956625
v -3.984164 0.736297 0.948536
v -4.287926 0.736297 0.006800
v -4.086087 0.736297 0.043941
v 3.942465 0.736297 -0.860659
v 4.249075 0.736297 0.006800
v 4.142054 0.736297 -0.943030
v 3.641804 0.736298 -1.719899
v -2.555482 0.736298 -3.134390
v -2.801426 0.736297 -4.561419
v -3.199179 0.736298 -2.490693
v -2.234062 0.736297 -4.884012
v -1.784690 0.736299 -3.618711
v -1.554675 0.736297 -5.126733
v -0.925449 0.736299 -3.919372
v -0.797327 0.736297 -5.277411
v -0.020849 0.736299 -4.021296
v 0.000000 0.736297 -5.328492
v 0.797328 0.736297 -5.277411
v 0.883752 0.736299 -3.919372
v 1.554675 0.736297 -5.126733
v 1.742992 0.736299 -3.618711
v 2.234064 0.736297 -4.884012
v 2.513785 0.736298 -3.134390
v 2.801427 0.736297 -4.561419
v 3.157482 0.736298 -2.490693
v 3.107777 0.736298 -4.185015
v 3.414137 0.736298 -3.126365
v 4.142054 -0.000001 -0.943030
v 3.826360 0.736298 -1.845232
v 3.826363 -0.000001 1.858827
v 3.826363 0.736297 1.858827
v 3.317826 -0.000001 2.668162
v 3.317826 0.736297 2.668162
v 2.641946 -0.000001 3.344045
v 2.641946 0.736297 3.344045
v -3.356672 0.000000 -2.654565
v -3.356672 0.736298 -2.654565
v -2.680790 0.000000 -3.330447
v -2.680790 0.736298 -3.330447
v -1.871459 0.000001 -3.838984
v -1.871459 0.736299 -3.838984
v -0.969256 0.000001 -4.154678
v -0.969256 0.736299 -4.154678
v -0.019426 0.000001 -4.261698
v -0.019426 0.736299 -4.261698
v 0.930405 0.000001 -4.154678
v 0.930405 0.736299 -4.154678
v 1.832607 0.000001 -3.838984
v 1.832607 0.736299 -3.838984
v 2.641940 0.000000 -3.330447
v 2.641940 0.736298 -3.330447
v 3.317822 0.000000 -2.654565
v 3.317822 0.736298 -2.654565
v 3.826360 0.000000 -1.845232
v 1.450900 2.734258 2.078410
v 0.999102 2.734258 2.078410
v 1.225000 2.794786 2.078410
v 0.833743 2.568893 2.078410
v 1.616259 2.568893 2.078410
v 0.769131 2.327756 2.078410
v 1.680870 2.327756 2.078410
v 1.680623 1.540524 2.078410
v 0.769377 1.540524 2.078410
v 0.833740 1.300310 2.078410
v 1.616260 1.300310 2.078410
v 0.999110 1.134946 2.078410
v 1.450891 1.134946 2.078410
v 1.225000 1.074420 2.078410
v -0.999100 2.734258 2.078410
v -1.450898 2.734258 2.078410
v -1.225000 2.794786 2.078410
v -1.616257 2.568893 2.078410
v -0.833741 2.568893 2.078410
v -1.680869 2.327756 2.078410
v -0.769130 2.327756 2.078410
v -0.769377 1.540524 2.078410
v -1.680623 1.540524 2.078410
v -1.616260 1.300310 2.078410
v -0.833740 1.300310 2.078410
v -1.450890 1.134946 2.078410
v -0.999109 1.134946 2.078410
v -1.225000 1.074420 2.078410
v -0.737255 3.598871 -3.899156
v -0.969939 3.776084 -3.899157
v -0.737255 3.776084 -3.899156
v -0.969939 3.598871 -3.899157
v -0.969939 3.776084 -3.674392
v -0.737255 3.776084 -3.899156
v -0.969939 3.776084 -3.899157
v -0.737255 3.776084 -3.674392
v -0.737255 3.552053 -3.674391
v -0.737255 3.776084 -3.899156
v -0.737255 3.776084 -3.674392
v -0.737255 3.598871 -3.899156
v -0.969939 3.776084 -3.674392
v -0.969939 3.598871 -3.899157
v -0.969939 3.552053 -3.674392
v -0.969939 3.776084 -3.899157
v -0.737255 3.552053 -3.674391
v -0.969939 3.598871 -3.899157
v -0.737255 3.598871 -3.899156
v -0.969939 3.552053 -3.674392
v 0.737261 3.598871 -3.899156
v 0.969943 3.776084 -3.899157
v 0.969943 3.598871 -3.899157
v 0.737261 3.776084 -3.899156
v 0.969943 3.776084 -3.674392
v 0.737261 3.776084 -3.899156
v 0.737261 3.776084 -3.674392
v 0.969943 3.776084 -3.899157
v 0.737261 3.552053 -3.674391
v 0.737261 3.776084 -3.899156
v 0.737261 3.598871 -3.899156
v 0.737261 3.776084 -3.674392
v 0.969943 3.776084 -3.674392
v 0.969943 3.598871 -3.899157
v 0.969943 3.776084 -3.899157
v 0.969943 3.552053 -3.674392
v 0.737261 3.552053 -3.674391
v 0.969943 3.598871 -3.899157
v 0.969943 3.552053 -3.674392
v 0.737261 3.598871 -3.899156
v 0.115247 3.598871 -3.899156
v 0.347929 3.776084 -3.899157
v 0.347929 3.598871 -3.899157
v 0.115247 3.776084 -3.899156
v 0.347929 3.776084 -3.674392
v 0.115247 3.776084 -3.899156
v 0.115247 3.776084 -3.674392
v 0.347929 3.776084 -3.899157
v 0.115247 3.552053 -3.674391
v 0.115247 3.776084 -3.899156
v 0.115247 3.598871 -3.899156
v 0.115247 3.776084 -3.674392
v 0.347929 3.776084 -3.674392
v 0.347929 3.598871 -3.899157
v 0.347929 3.776084 -3.899157
v 0.347929 3.552053 -3.674392
v 0.115247 3.552053 -3.674391
v 0.347929 3.598871 -3.899157
v 0.347929 3.552053 -3.674392
v 0.115247 3.598871 -3.899156
vn -0.0000 1.0000 -0.0000
vn -0.0000 -1.0000 -0.0000
vn 0.9931 0.0250 0.1145
vn 0.9887 0.0066 0.1499
vn 0.9937 -0.0000 0.1119
vn 0.1120 -0.0000 0.9937
vn 0.2939 0.0066 0.9558
vn 0.3302 -0.0000 0.9439
vn 0.4959 0.0858 0.8641
vn 0.0691 -0.0000 0.9976
vn -0.3303 -0.0000 0.9439
vn -0.1499 0.0066 0.9887
vn -0.0691 -0.0000 0.9976
vn -0.3706 -0.0000 0.9288
vn -0.7071 -0.0000 0.7071
vn -0.5320 -0.0000 0.8467
vn -0.4951 -0.0000 0.8688
vn -0.7333 -0.0877 0.6742
vn -0.7336 0.0066 0.6795
vn -0.0000 -0.0000 1.0000
vn 0.9010 -0.0000 0.4339
vn -0.9749 -0.0000 0.2225
vn -0.9010 -0.0000 0.4339
vn -0.9558 -0.0064 -0.2939
vn -0.9887 0.0066 -0.1499
vn -0.9937 -0.0000 -0.1121
vn -0.5054 -0.4240 -0.7515
vn -0.9439 -0.0000 -0.3303
vn -0.9937 -0.0000 -0.1120
vn 0.9972 0.0064 -0.0738
vn 0.7704 -0.4251 -0.4752
vn -1.0000 -0.0000 -0.0000
vn 0.9572 -0.0000 -0.2894
vn 0.7521 -0.2246 -0.6196
vn 0.6235 -0.0000 -0.7818
vn 0.4339 -0.0000 -0.9010
vn 0.7333 -0.0877 0.6742
vn 0.7042 0.0300 0.7094
vn 0.7333 0.0877 0.6742
vn -0.7818 -0.0000 -0.6235
vn 0.2225 -0.0000 -0.9749
vn -0.0000 -0.0000 -1.0000
vn 0.7818 -0.0000 -0.6235
vn -0.2225 -0.0000 -0.9749
vn -0.4339 -0.0000 -0.9010
vn -0.6235 -0.0000 -0.7818
vn 0.9010 -0.0000 -0.4339
vn 1.0000 -0.0000 -0.0000
vn -0.0000 0.9790 0.2039
vn 0.2093 0.8010 0.5609
vn -0.4880 0.8698 -0.0728
vn -0.1136 0.9514 0.2863
vn 0.6016 0.1096 0.7913
vt 0.381197 0.508398
vt 0.386850 0.509424
vt 0.384153 0.534633
vt 0.389666 0.534410
vt 0.447943 0.614624
vt 0.450418 0.610591
vt 0.472863 0.623344
vt 0.569148 0.597214
vt 0.572610 0.600577
vt 0.547858 0.610591
vt 0.617001 0.508398
vt 0.611426 0.509424
vt 0.614045 0.482162
vt 0.608610 0.484437
vt 0.610464 0.482669
vt 0.389666 0.484437
vt 0.600306 0.460704
vt 0.592865 0.421855
vt 0.404259 0.421855
vt 0.386660 0.482669
vt 0.397970 0.460704
vt 0.411348 0.439413
vt 0.534633 0.489423
vt 0.534633 0.469085
vt 0.508398 0.489423
vt 0.472863 0.489423
vt 0.472863 0.469085
vt 0.447943 0.489423
vt 0.447943 0.469085
vt 0.499099 0.469085
vt 0.525334 0.489423
vt 0.525334 0.469085
vt 0.499099 0.489423
vt 0.550255 0.469085
vt 0.572610 0.489423
vt 0.572610 0.469085
vt 0.550255 0.489423
vt 0.581908 0.489423
vt 0.581908 0.469085
vt 0.600577 0.489423
vt 0.600577 0.469085
vt 0.518926 0.568491
vt 0.525353 0.573386
vt 0.525353 0.568491
vt 0.559553 0.469085
vt 0.559553 0.489423
vt 0.482162 0.489423
vt 0.482162 0.469085
vt 0.457242 0.489423
vt 0.457242 0.469085
vt 0.508398 0.469085
vt 0.550255 0.614624
vt 0.524124 0.618896
vt 0.600306 0.558143
vt 0.608610 0.534410
vt 0.605325 0.559553
vt 0.429128 0.597214
vt 0.397970 0.558143
vt 0.406919 0.581908
vt 0.474151 0.618896
vt 0.499099 0.626300
vt 0.425588 0.600577
vt 0.411348 0.579434
vt 0.586928 0.579434
vt 0.499138 0.397136
vt 0.575941 0.382217
vt 0.421183 0.382217
vt 0.406718 0.573386
vt 0.400510 0.568491
vt 0.406718 0.567198
vt 0.519813 0.511637
vt 0.532398 0.546281
vt 0.544983 0.511637
vt 0.425588 0.489423
vt 0.447943 0.469085
vt 0.447943 0.489423
vt 0.525353 0.406718
vt 0.518926 0.400510
vt 0.518926 0.406718
vt 0.434887 0.469085
vt 0.434887 0.489423
vt 0.425588 0.469085
vt 0.472863 0.469085
vt 0.499099 0.489423
vt 0.472863 0.489423
vt 0.416218 0.489423
vt 0.499099 0.469085
vt 0.525334 0.489423
vt 0.550254 0.469085
vt 0.572609 0.489423
vt 0.550254 0.489423
vt 0.478198 0.568491
vt 0.471771 0.573386
vt 0.478198 0.573386
vt 0.525334 0.623344
vt 0.499138 0.621711
vt 0.584403 0.392614
vt 0.586928 0.439413
vt 0.384153 0.482162
vt 0.453919 0.540042
vt 0.475533 0.540042
vt 0.470965 0.500434
vt 0.416218 0.469085
vt 0.471771 0.406718
vt 0.478198 0.400510
vt 0.471771 0.400510
vt 0.400510 0.568491
vt 0.400510 0.573386
vt 0.495379 0.400510
vt 0.488952 0.406718
vt 0.488952 0.400510
vt 0.525334 0.469085
vt 0.400510 0.573386
vt 0.525353 0.400510
vt 0.495379 0.568491
vt 0.488952 0.573386
vt 0.495379 0.573386
vt 0.605325 0.457242
vt 0.591278 0.434887
vt 0.392873 0.457242
vt 0.406919 0.434887
vt 0.518926 0.573386
vt 0.614045 0.534633
vt 0.392873 0.559553
vt 0.591278 0.581908
vt 0.429128 0.421634
vt 0.450418 0.408256
vt 0.412721 0.392614
vt 0.455620 0.366602
vt 0.436854 0.373307
vt 0.498562 0.361029
vt 0.476539 0.362440
vt 0.541504 0.366602
vt 0.520585 0.362440
vt 0.560270 0.373307
vt 0.569148 0.421634
vt 0.547858 0.408256
vt 0.474152 0.399951
vt 0.524124 0.399951
vt 0.538638 0.500434
vt 0.532398 0.498762
vt 0.526159 0.500434
vt 0.521591 0.505002
vt 0.519807 0.533381
vt 0.521591 0.540042
vt 0.526159 0.544610
vt 0.538638 0.544610
vt 0.543205 0.540042
vt 0.544990 0.533381
vt 0.543205 0.505002
vt 0.425588 0.469085
vt 0.425588 0.489423
vt 0.572609 0.469085
vt 0.471771 0.568491
vt 0.458486 0.500434
vt 0.453919 0.505002
vt 0.452141 0.511637
vt 0.452134 0.533381
vt 0.458486 0.544610
vt 0.464726 0.546281
vt 0.470966 0.544610
vt 0.477318 0.533381
vt 0.477311 0.511637
vt 0.475533 0.505002
vt 0.464726 0.498762
vt 0.478198 0.406718
vt 0.406718 0.567198
vt 0.495379 0.406718
vt 0.495379 0.406718
vt 0.518926 0.406718
vt 0.478198 0.406718
vt 0.488952 0.568491
s 1
g vir_gun_305_x1_001_1_vir_gun_305_x1_001_1_steel_5
usemtl steel_5
f 3/1/1 1/2/1 2/3/1
f 6/4/1 4/3/1 5/2/1
f 9/5/1 7/6/1 8/7/1
f 12/8/1 10/9/1 11/10/1
f 15/11/1 13/12/1 14/13/1
f 18/14/2 17/12/2 16/15/2
f 21/2/1 19/1/1 20/16/1
f 24/14/2 23/15/2 22/17/2
f 27/18/2 26/17/2 25/15/2
f 30/19/2 29/20/2 28/21/2
f 33/21/2 32/22/2 31/19/2
f 36/23/3 35/24/4 34/25/5
f 39/26/6 38/27/7 37/28/8
f 40/29/9 37/28/8 38/27/7
f 38/27/7 39/26/6 41/30/10
f 44/31/11 43/32/12 42/33/13
f 43/32/12 44/31/11 45/34/14
f 41/30/10 42/33/13 43/32/12
f 42/33/13 41/30/10 39/26/6
f 48/35/15 47/36/16 46/37/17
f 50/38/18 49/39/19 48/40/15
f 47/41/16 48/40/15 49/39/19
f 187/42/20 188/43/20 190/44/20
f 134/45/21 36/23/3 135/46/21
f 54/23/22 51/45/23 52/46/23
f 58/47/24 57/48/25 56/25/26
f 60/49/27 59/50/28 58/47/24
f 55/51/29 56/25/26 57/48/25
f 57/48/25 58/47/24 59/50/28
f 34/25/5 62/51/30 61/47/31
f 94/10/1 92/52/1 91/53/1
f 103/54/1 105/55/1 101/56/1
f 79/5/1 78/57/1 81/6/1
f 71/58/1 72/59/1 70/3/1
f 82/7/1 84/60/1 85/61/1
f 75/62/1 74/63/1 77/57/1
f 98/9/1 99/64/1 100/56/1
f 120/65/2 113/66/2 128/67/2
f 239/68/32 240/69/32 242/70/32
f 62/51/30 34/25/5 35/24/4
f 132/48/33 61/47/31 62/51/30
f 61/47/31 132/48/33 133/49/34
f 155/74/35 152/75/36 153/76/36
f 51/45/23 50/38/18 52/46/23
f 56/25/26 53/24/22 54/23/22
f 191/77/2 192/78/2 194/79/2
f 46/37/17 45/34/14 44/31/11
f 45/34/14 46/37/17 47/36/16
f 137/38/37 138/41/38 136/39/39
f 140/80/40 60/49/27 141/81/40
f 138/82/38 37/28/8 40/29/9
f 136/39/39 135/46/21 137/38/37
f 150/83/41 149/84/42 151/85/41
f 156/80/43 155/86/35 157/81/43
f 148/87/42 147/88/44 149/84/42
f 144/89/45 143/90/46 145/91/45
f 207/92/20 208/93/20 210/94/20
f 152/75/36 151/85/41 153/76/36
f 158/50/47 133/49/34 132/48/33
f 89/95/1 86/61/1 88/96/1
f 65/97/2 63/98/2 67/17/2
f 108/16/1 110/99/1 111/21/1
f 142/103/46 141/81/40 143/86/46
f 211/104/2 212/105/2 214/106/2
f 238/68/48 237/107/48 236/108/48
f 246/109/49 245/110/49 244/111/49
f 146/112/44 145/91/45 147/88/44
f 231/110/2 232/109/2 234/111/2
f 198/107/32 197/68/32 196/108/32
f 199/68/48 200/69/48 202/113/48
f 206/77/49 205/78/49 204/114/49
f 158/50/47 157/81/43 133/49/34
f 226/105/49 225/104/49 224/106/49
f 218/68/48 217/107/48 216/108/48
f 219/68/32 220/69/32 222/70/32
f 227/115/20 228/116/20 230/117/20
f 17/12/1 13/12/1 14/13/1
f 16/15/1 60/118/50 14/13/1
f 22/17/1 141/119/1 60/118/50
f 111/21/1 61/99/51 133/120/52
f 133/120/52 157/121/1 111/21/1
f 187/42/20 189/122/20 188/43/20
f 134/45/21 35/24/4 36/23/3
f 54/23/22 53/24/22 51/45/23
f 94/10/1 95/9/1 92/52/1
f 92/52/1 93/95/1 91/53/1
f 105/55/1 107/12/1 106/11/1
f 106/11/1 104/123/1 101/56/1
f 101/56/1 102/64/1 103/54/1
f 105/55/1 106/11/1 101/56/1
f 79/5/1 80/62/1 78/57/1
f 71/58/1 73/63/1 72/59/1
f 72/59/1 69/124/1 70/3/1
f 70/3/1 68/4/1 71/58/1
f 82/7/1 83/6/1 84/60/1
f 75/62/1 76/59/1 74/63/1
f 100/56/1 97/125/1 98/9/1
f 98/9/1 96/8/1 99/64/1
f 131/19/2 129/22/2 127/126/2
f 131/19/2 127/126/2 125/127/2
f 128/67/2 130/128/2 131/19/2
f 124/129/2 126/130/2 128/67/2
f 121/131/2 122/132/2 124/129/2
f 117/133/2 119/134/2 121/131/2
f 113/66/2 115/135/2 117/133/2
f 112/136/2 114/98/2 113/66/2
f 116/137/2 112/136/2 113/66/2
f 113/66/2 117/133/2 121/131/2
f 121/131/2 124/129/2 128/67/2
f 128/67/2 131/19/2 125/127/2
f 128/67/2 125/127/2 123/138/2
f 113/66/2 121/131/2 128/67/2
f 118/139/2 116/137/2 113/66/2
f 128/67/2 123/138/2 120/65/2
f 120/65/2 118/139/2 113/66/2
f 239/68/32 241/113/32 240/69/32
f 155/74/35 154/151/35 152/75/36
f 51/45/23 49/39/19 50/38/18
f 56/25/26 55/51/29 53/24/22
f 191/77/2 193/114/2 192/78/2
f 137/38/37 139/40/53 138/41/38
f 140/80/40 59/50/28 60/49/27
f 138/82/38 139/152/53 37/28/8
f 136/39/39 134/45/21 135/46/21
f 150/83/41 148/87/42 149/84/42
f 156/80/43 154/103/35 155/86/35
f 148/87/42 146/112/44 147/88/44
f 144/89/45 142/153/46 143/90/46
f 207/92/20 209/154/20 208/93/20
f 152/75/36 150/83/41 151/85/41
f 88/96/1 90/53/1 89/95/1
f 86/61/1 87/60/1 88/96/1
f 67/17/2 66/18/2 65/97/2
f 65/97/2 64/66/2 63/98/2
f 108/16/1 109/1/1 110/99/1
f 142/103/46 140/80/40 141/81/40
f 211/104/2 213/166/2 212/105/2
f 238/68/48 235/167/48 237/107/48
f 246/109/49 243/168/49 245/110/49
f 146/112/44 144/89/45 145/91/45
f 231/110/2 233/169/2 232/109/2
f 198/107/32 195/167/32 197/68/32
f 199/68/48 201/70/48 200/69/48
f 206/77/49 203/170/49 205/78/49
f 158/50/47 156/80/43 157/81/43
f 226/105/49 223/171/49 225/104/49
f 218/68/48 215/167/48 217/107/48
f 219/68/32 221/113/32 220/69/32
f 227/115/20 229/172/20 228/116/20
f 17/12/1 16/15/1 13/12/1
f 16/15/1 14/13/1 13/12/1
f 16/15/1 22/17/1 60/118/50
f 111/21/1 110/99/1 61/99/51
g vir_gun_305_x1_001_1_vir_gun_305_x1_001_1_details_2
usemtl details_2
f 180/71/20 175/72/20 181/73/20
f 163/100/20 162/101/20 170/102/20
f 184/140/20 186/141/20 185/142/20
f 185/142/20 183/143/20 180/71/20
f 180/71/20 179/144/20 177/145/20
f 177/145/20 173/146/20 175/72/20
f 175/72/20 174/147/20 176/148/20
f 176/148/20 178/149/20 181/73/20
f 181/73/20 182/150/20 184/140/20
f 184/140/20 185/142/20 180/71/20
f 180/71/20 177/145/20 175/72/20
f 175/72/20 176/148/20 181/73/20
f 181/73/20 184/140/20 180/71/20
f 171/155/20 169/156/20 166/157/20
f 166/157/20 165/158/20 163/100/20
f 163/100/20 159/159/20 161/160/20
f 161/160/20 160/161/20 162/101/20
f 162/101/20 164/162/20 167/163/20
f 167/163/20 168/164/20 170/102/20
f 170/102/20 172/165/20 171/155/20
f 171/155/20 166/157/20 163/100/20
f 163/100/20 161/160/20 162/101/20
f 162/101/20 167/163/20 170/102/20
f 170/102/20 171/155/20 163/100/20
