# Blender 5.1.0
# www.blender.org
mtllib vir_gun_305_x1_001_0_vir_gun_305_x1_001_0.mtl
o vir_gun_305_x1_001_0_vir_gun_305_x1_001_0
v -4.297553 1.830182 0.260894
v 4.297562 2.019037 0.369930
v -4.297553 2.019037 0.369930
v 4.297562 1.830181 0.260894
v -4.297553 1.641326 0.369930
v 4.297562 1.641326 0.369930
v -4.297553 2.019037 0.369930
v 4.297562 2.019037 0.588002
v -4.297553 2.019037 0.588002
v 4.297562 2.019037 0.369930
v 4.297562 1.830181 0.697038
v -4.297553 2.019037 0.588002
v 4.297562 2.019037 0.588002
v -4.297553 1.830182 0.697038
v 4.297562 1.641326 0.588002
v -4.297553 1.641326 0.588002
v -4.297553 1.641326 0.588002
v 4.297562 1.641326 0.369930
v -4.297553 1.641326 0.369930
v 4.297562 1.641326 0.588002
v -4.297553 1.641326 0.588002
v -4.297553 2.019037 0.588002
v -4.297553 1.830182 0.697038
v -4.297553 1.830182 0.260894
v -4.297553 1.641326 0.369930
v -4.297553 2.019037 0.369930
v 4.297562 2.019037 0.369930
v 4.297562 1.830181 0.697038
v 4.297562 2.019037 0.588002
v 4.297562 1.641326 0.369930
v 4.297562 1.830181 0.260894
v 4.297562 1.641326 0.588002
v 0.800812 2.932512 -5.481383
v 1.248578 1.048404 -5.392179
v 1.248578 2.940307 -5.392180
v 0.797328 1.048404 -5.481957
v 0.000000 2.928024 -5.532928
v 0.000000 1.048404 -5.533038
v -0.797327 1.048404 -5.481957
v -0.800811 2.932512 -5.481383
v -1.248577 1.048404 -5.392179
v -1.248577 2.940307 -5.392180
v 0.800812 2.932502 -5.217873
v 1.248578 2.940307 -5.392180
v 1.248578 2.940297 -5.128670
v 0.800812 2.932512 -5.481383
v 0.000000 2.928015 -5.269417
v 0.000000 2.928024 -5.532928
v -0.800811 2.932502 -5.217873
v -0.800811 2.932512 -5.481383
v -1.248577 2.940297 -5.128670
v -1.248577 2.940307 -5.392180
v 1.248578 2.940297 -5.128670
v 1.248578 1.048404 -5.392179
v 1.248578 1.048394 -5.128669
v 1.248578 2.940307 -5.392180
v 0.797328 1.048404 -5.481957
v 1.248578 1.048394 -5.128669
v 1.248578 1.048404 -5.392179
v 0.797328 1.048394 -5.218447
v 0.000000 1.048404 -5.533038
v 0.000000 1.048394 -5.269527
v -0.797327 1.048404 -5.481957
v -0.797327 1.048394 -5.218447
v -1.248577 1.048404 -5.392179
v -1.248577 1.048394 -5.128669
v -1.248577 1.048394 -5.128669
v -1.248577 2.940307 -5.392180
v -1.248577 2.940297 -5.128670
v -1.248577 1.048404 -5.392179
v 3.414137 0.736298 -3.126365
v 3.107777 3.340159 -4.185016
v 3.107777 0.736298 -4.185015
v 3.360604 3.416595 -3.311355
v 4.051278 2.528960 -0.924679
v 4.051278 0.736297 -0.924678
v 4.155465 2.291011 -0.000001
v 4.155465 0.736298 -0.000001
v 4.051280 2.188167 0.924670
v 4.051280 0.736298 0.924671
v 3.743949 0.736297 1.802982
v 3.743947 2.275590 1.802981
v 3.248875 2.501390 2.590884
v 3.248876 0.736298 2.590884
v 2.590894 1.894570 3.248868
v 2.590895 0.736298 3.248869
v 3.107777 0.736298 -4.185015
v 2.801427 3.307228 -4.561419
v 2.801427 0.736297 -4.561419
v 3.107777 3.340159 -4.185016
v 2.234064 3.279004 -4.884013
v 2.801427 0.736297 -4.561419
v 2.801427 3.307228 -4.561419
v 2.234064 0.736297 -4.884012
v 1.554675 3.257768 -5.126735
v 1.554675 0.736297 -5.126733
v 0.797328 3.244586 -5.277412
v 0.797328 0.736297 -5.277411
v 0.000000 3.240117 -5.328493
v 0.000000 0.736297 -5.328492
v -0.797327 0.736297 -5.277411
v -0.797327 3.244586 -5.277412
v -1.554675 0.736297 -5.126733
v -1.554675 3.257768 -5.126735
v -2.234062 0.736297 -4.884012
v -2.234062 3.279004 -4.884013
v -2.801426 0.736297 -4.561419
v -2.801426 3.307228 -4.561419
v 3.743947 2.275590 1.802981
v 2.524766 3.088360 1.924670
v 4.051280 2.188167 0.924670
v 4.155465 2.291011 -0.000001
v 4.051278 2.528960 -0.924679
v 3.043524 3.482780 -2.554847
v 3.360604 3.416595 -3.311355
v 1.802991 0.736298 3.743941
v 1.796550 1.461970 3.746080
v 0.924681 0.736297 4.051276
v 0.000000 0.736297 4.155460
v -0.924681 0.736297 4.051276
v -1.796550 1.461970 3.746080
v -1.802991 0.736298 3.743941
v -2.590895 0.736298 3.248869
v -2.590894 1.894570 3.248868
v 0.000000 3.088360 1.924670
v -3.248874 2.501390 2.590884
v -3.107777 3.340159 -4.185016
v -3.414137 0.736298 -3.126365
v -3.107777 0.736298 -4.185015
v -3.360604 3.416595 -3.311355
v -4.051276 2.528960 -0.924679
v -4.051278 0.736297 -0.924678
v -4.155464 2.291011 -0.000001
v -4.155465 0.736298 -0.000001
v -4.051279 2.188167 0.924670
v -4.051279 0.736298 0.924671
v -3.743947 0.736297 1.802982
v -3.743945 2.275590 1.802981
v -3.248874 0.736298 2.590884
v -2.590895 0.736298 3.248869
v -3.107777 0.736298 -4.185015
v -2.801426 3.307228 -4.561419
v -3.107777 3.340159 -4.185016
v -2.801426 0.736297 -4.561419
v -3.743945 2.275590 1.802981
v -2.524120 3.088360 1.924670
v -4.051279 2.188167 0.924670
v -4.155464 2.291011 -0.000001
v -4.051276 2.528960 -0.924679
v -3.043522 3.482780 -2.554847
v -3.360604 3.416595 -3.311355
v 0.000000 1.178500 4.155460
v -0.729801 1.212703 4.073605
v -0.653449 1.486843 3.756094
v -0.939100 1.031323 4.046408
v -1.796550 1.663426 3.518082
v -1.720199 1.201879 3.772716
v -1.510900 1.031323 3.845953
v -1.225000 0.954401 3.945985
v -0.653450 1.663426 3.550131
v -1.225000 2.895593 2.144450
v -0.939091 2.794471 2.252731
v -1.510909 2.794471 2.257385
v -1.720198 2.495093 2.586981
v -1.796805 2.095543 3.028972
v -0.729802 2.495093 2.588032
v -0.653195 2.095543 3.049968
v 0.729801 1.212703 4.073605
v 0.653449 1.486843 3.756094
v 0.939100 1.031323 4.046408
v 1.796550 1.663426 3.518082
v 1.720199 1.201879 3.772716
v 1.510900 1.031323 3.845953
v 1.225000 0.954401 3.945985
v 0.653450 1.663426 3.550131
v 1.225000 2.895593 2.144450
v 0.939091 2.794471 2.252731
v 1.510909 2.794471 2.257385
v 1.720198 2.495093 2.586981
v 1.796805 2.095543 3.028972
v 0.729802 2.495093 2.588032
v 0.653195 2.095543 3.049968
v -1.261748 3.255774 -4.775596
v 1.261755 3.451193 -4.775589
v -1.261748 3.451193 -4.775589
v 1.261755 3.255774 -4.775596
v -1.261748 3.451193 -4.775589
v 1.261755 3.526492 -3.990993
v -1.261748 3.526492 -3.990993
v 1.261755 3.451193 -4.775589
v -1.261748 3.526492 -3.990993
v 1.261754 3.444065 -2.917220
v -1.261748 3.444065 -2.917220
v 1.261755 3.526492 -3.990993
v -1.261748 3.444065 -2.917220
v -1.261748 3.451193 -4.775589
v -1.261748 3.526492 -3.990993
v -1.261748 3.255774 -4.775596
v 1.261755 3.451193 -4.775589
v 1.261754 3.444065 -2.917220
v 1.261755 3.526492 -3.990993
v 1.261755 3.255774 -4.775596
v -1.043780 3.380497 -3.674912
v -1.043780 3.849661 -4.583062
v -1.043780 3.849661 -3.674913
v -1.043780 3.380497 -4.583099
v -1.043780 3.849661 -4.583062
v -0.663413 3.849661 -3.674911
v -1.043780 3.849661 -3.674913
v -0.663413 3.849661 -4.583061
v -0.663413 3.380497 -3.674911
v -0.663413 3.849661 -4.583061
v -0.663413 3.380497 -4.583098
v -0.663413 3.849661 -3.674911
v -0.969939 3.552053 -3.674912
v -1.043780 3.849661 -3.674913
v -0.969939 3.776084 -3.674912
v -0.737255 3.776084 -3.674912
v -1.043780 3.380497 -3.674912
v -0.663413 3.849661 -3.674911
v -0.663413 3.380497 -3.674911
v -0.737255 3.552053 -3.674911
v 1.261755 3.863916 -4.775589
v -1.261748 3.863916 -4.775589
v -1.261748 3.863916 -4.775589
v 1.261755 3.863916 -3.990992
v -1.261748 3.863916 -3.990992
v 1.261755 3.863916 -4.775589
v -1.261748 3.863916 -3.990992
v 1.261755 3.863916 -3.990992
v -1.261748 3.863916 -4.775589
v -1.261748 3.863916 -3.990992
v 1.261755 3.863916 -4.775589
v 1.261755 3.863916 -3.990992
v 1.043784 3.380497 -3.674913
v 1.043784 3.849661 -4.583062
v 1.043784 3.380497 -4.583099
v 1.043784 3.849661 -3.674913
v 1.043784 3.849661 -4.583062
v 0.663419 3.849661 -3.674911
v 0.663419 3.849661 -4.583061
v 1.043784 3.849661 -3.674913
v 0.663419 3.380497 -3.674911
v 0.663419 3.849661 -4.583061
v 0.663419 3.849661 -3.674911
v 0.663419 3.380497 -4.583098
v 1.043784 3.849661 -3.674913
v 0.969943 3.552053 -3.674912
v 0.969943 3.776084 -3.674912
v 0.737261 3.776084 -3.674912
v 1.043784 3.380497 -3.674913
v 0.663419 3.849661 -3.674911
v 0.663419 3.380497 -3.674911
v 0.737261 3.552053 -3.674911
v 0.421771 3.380497 -3.674913
v 0.421771 3.849661 -4.583062
v 0.421771 3.380497 -4.583099
v 0.421771 3.849661 -3.674913
v 0.421771 3.849661 -4.583062
v 0.041406 3.849661 -3.674911
v 0.041406 3.849661 -4.583061
v 0.421771 3.849661 -3.674913
v 0.041406 3.380497 -3.674911
v 0.041406 3.849661 -4.583061
v 0.041406 3.849661 -3.674911
v 0.041406 3.380497 -4.583098
v 0.421771 3.849661 -3.674913
v 0.347929 3.552053 -3.674912
v 0.347929 3.776084 -3.674912
v 0.115247 3.776084 -3.674912
v 0.421771 3.380497 -3.674913
v 0.041406 3.849661 -3.674911
v 0.041406 3.380497 -3.674911
v 0.115247 3.552053 -3.674911
v -0.773334 3.180559 -0.002674
v -0.773334 3.280559 0.026586
v -0.700175 3.180559 0.004532
v -0.705883 3.280559 0.033229
v -0.629827 3.180559 0.025872
v -0.641024 3.280559 0.052904
v -0.564995 3.180559 0.060525
v -0.581251 3.280559 0.084854
v -0.508169 3.180559 0.107161
v -0.528858 3.280559 0.127851
v -0.461533 3.180559 0.163988
v -0.485861 3.280559 0.180243
v -0.426879 3.180559 0.228820
v -0.453911 3.280559 0.240017
v -0.405539 3.180559 0.299168
v -0.434236 3.280559 0.304876
v -0.398334 3.180559 0.372326
v -0.427593 3.280559 0.372326
v -0.405539 3.180559 0.445485
v -0.434236 3.280559 0.439777
v -0.426879 3.180559 0.515833
v -0.453911 3.280559 0.504636
v -0.461533 3.180559 0.580665
v -0.485861 3.280559 0.564410
v -0.508169 3.180559 0.637491
v -0.528858 3.280559 0.616802
v -0.564995 3.180559 0.684128
v -0.581251 3.280559 0.659799
v -0.629827 3.180559 0.718781
v -0.641024 3.280559 0.691749
v -0.700175 3.180559 0.740121
v -0.705883 3.280559 0.711424
v -0.773334 3.180559 0.747326
v -0.773334 3.280560 0.718067
v -0.846493 3.180559 0.740121
v -0.840784 3.280560 0.711424
v -0.916840 3.180559 0.718781
v -0.905643 3.280559 0.691749
v -0.981673 3.180559 0.684128
v -0.965417 3.280559 0.659799
v -1.038499 3.180559 0.637491
v -1.017809 3.280559 0.616802
v -1.085135 3.180559 0.580665
v -1.060806 3.280559 0.564410
v -1.119788 3.180559 0.515833
v -1.092756 3.280559 0.504636
v -1.141128 3.180559 0.445485
v -1.112431 3.280559 0.439777
v -1.148334 3.180559 0.372326
v -1.119074 3.280559 0.372326
v -1.141128 3.180559 0.299168
v -1.112431 3.280559 0.304876
v -1.119788 3.180559 0.228820
v -1.092756 3.280559 0.240017
v -1.085135 3.180559 0.163988
v -1.060806 3.280559 0.180243
v -1.038499 3.180559 0.107161
v -1.017809 3.280559 0.127851
v -0.981673 3.180559 0.060525
v -0.965417 3.280559 0.084854
v -0.916840 3.180559 0.025872
v -0.905643 3.280559 0.052904
v -0.846493 3.180559 0.004532
v -0.840784 3.280559 0.033229
v -0.700175 3.280559 0.004532
v -0.773334 3.280559 -0.002674
v -0.629827 3.280559 0.025872
v -0.564995 3.280559 0.060525
v -0.508169 3.280559 0.107161
v -0.461533 3.280559 0.163988
v -0.426879 3.280559 0.228820
v -0.405539 3.280559 0.299168
v -0.398334 3.280559 0.372326
v -0.405539 3.280559 0.445485
v -0.426879 3.280559 0.515833
v -0.461533 3.280559 0.580665
v -0.508169 3.280559 0.637491
v -0.564995 3.280559 0.684128
v -0.629827 3.280559 0.718781
v -0.700175 3.280559 0.740121
v -0.773334 3.280560 0.747326
v -0.846493 3.280560 0.740121
v -0.916840 3.280559 0.718781
v -0.981673 3.280559 0.684128
v -1.038499 3.280559 0.637491
v -1.085135 3.280559 0.580665
v -1.119788 3.280559 0.515833
v -1.141128 3.280559 0.445485
v -1.148334 3.280559 0.372326
v -1.141128 3.280559 0.299168
v -1.119788 3.280559 0.228820
v -1.085135 3.280559 0.163988
v -1.038499 3.280559 0.107161
v -0.981673 3.280559 0.060525
v -0.916840 3.280559 0.025872
v -0.846493 3.280559 0.004532
v -0.711664 3.350000 0.062291
v -0.773334 3.350000 0.056217
v -0.652364 3.350000 0.080280
v -0.597713 3.350000 0.109491
v -0.549811 3.350000 0.148804
v -0.510499 3.350000 0.196706
v -0.481287 3.350000 0.251357
v -0.463299 3.350000 0.310657
v -0.457225 3.350000 0.372326
v -0.463299 3.350000 0.433996
v -0.481287 3.350000 0.493296
v -0.510499 3.350000 0.547947
v -0.549811 3.350000 0.595849
v -0.597713 3.350000 0.635161
v -0.652364 3.350000 0.664373
v -0.711664 3.350000 0.682361
v -0.773334 3.350000 0.688435
v -0.835003 3.350000 0.682361
v -0.894303 3.350000 0.664373
v -0.948954 3.350000 0.635161
v -0.996856 3.350000 0.595849
v -1.036169 3.350000 0.547947
v -1.065380 3.350000 0.493296
v -1.083369 3.350000 0.433996
v -1.089443 3.350000 0.372326
v -1.083369 3.350000 0.310657
v -1.065380 3.350000 0.251357
v -1.036169 3.350000 0.196706
v -0.996856 3.350000 0.148804
v -0.948954 3.350000 0.109491
v -0.894303 3.350000 0.080280
v -0.835003 3.350000 0.062291
v -0.705883 3.350000 0.033229
v -0.773334 3.350000 0.026586
v -0.641024 3.350000 0.052904
v -0.581251 3.350000 0.084854
v -0.528858 3.350000 0.127851
v -0.485861 3.350000 0.180243
v -0.453911 3.350000 0.240017
v -0.434236 3.350000 0.304876
v -0.427593 3.350000 0.372326
v -0.434236 3.350000 0.439777
v -0.453911 3.350000 0.504636
v -0.485861 3.350000 0.564410
v -0.528858 3.350000 0.616802
v -0.581251 3.350000 0.659799
v -0.641024 3.350000 0.691749
v -0.705883 3.350000 0.711424
v -0.773334 3.350000 0.718067
v -0.840784 3.350000 0.711424
v -0.905643 3.350000 0.691749
v -0.965417 3.350000 0.659799
v -1.017809 3.350000 0.616802
v -1.060806 3.350000 0.564410
v -1.092756 3.350000 0.504636
v -1.112431 3.350000 0.439777
v -1.119074 3.350000 0.372326
v -1.112431 3.350000 0.304876
v -1.092756 3.350000 0.240017
v -1.060806 3.350000 0.180243
v -1.017809 3.350000 0.127851
v -0.965417 3.350000 0.084854
v -0.905643 3.350000 0.052904
v -0.840784 3.350000 0.033229
v -0.711664 3.280560 0.062291
v -0.773334 3.280560 0.056217
v -0.652364 3.280560 0.080280
v -0.597713 3.280560 0.109491
v -0.549811 3.280560 0.148804
v -0.510499 3.280560 0.196706
v -0.481287 3.280560 0.251357
v -0.463299 3.280560 0.310657
v -0.457225 3.280560 0.372326
v -0.463299 3.280560 0.433996
v -0.481287 3.280560 0.493296
v -0.510499 3.280560 0.547947
v -0.549811 3.280560 0.595849
v -0.597713 3.280560 0.635161
v -0.652364 3.280560 0.664373
v -0.711664 3.280560 0.682361
v -0.773334 3.280560 0.688435
v -0.835003 3.280560 0.682361
v -0.894303 3.280560 0.664373
v -0.948954 3.280560 0.635161
v -0.996856 3.280560 0.595849
v -1.036169 3.280560 0.547947
v -1.065380 3.280560 0.493296
v -1.083369 3.280560 0.433996
v -1.089443 3.280560 0.372326
v -1.083369 3.280560 0.310657
v -1.065380 3.280560 0.251357
v -1.036169 3.280560 0.196706
v -0.996856 3.280560 0.148804
v -0.948954 3.280560 0.109491
v -0.894303 3.280560 0.080280
v -0.835003 3.280560 0.062291
v -2.307076 3.180559 -0.002674
v -2.307076 3.280559 0.026586
v -2.233918 3.180559 0.004532
v -2.239626 3.280559 0.033229
v -2.163570 3.180559 0.025872
v -2.174767 3.280559 0.052904
v -2.098738 3.180559 0.060525
v -2.114994 3.280559 0.084854
v -2.041912 3.180559 0.107161
v -2.062601 3.280559 0.127851
v -1.995275 3.180559 0.163988
v -2.019604 3.280559 0.180243
v -1.960622 3.180559 0.228820
v -1.987654 3.280559 0.240017
v -1.939282 3.180559 0.299168
v -1.967979 3.280559 0.304876
v -1.932077 3.180559 0.372326
v -1.961336 3.280559 0.372326
v -1.939282 3.180559 0.445485
v -1.967979 3.280559 0.439777
v -1.960622 3.180559 0.515833
v -1.987654 3.280559 0.504636
v -1.995275 3.180559 0.580665
v -2.019604 3.280559 0.564410
v -2.041912 3.180559 0.637491
v -2.062601 3.280559 0.616802
v -2.098738 3.180559 0.684128
v -2.114994 3.280559 0.659799
v -2.163570 3.180559 0.718781
v -2.174767 3.280559 0.691749
v -2.233918 3.180559 0.740121
v -2.239626 3.280559 0.711424
v -2.307076 3.180559 0.747326
v -2.307076 3.280560 0.718067
v -2.380235 3.180559 0.740121
v -2.374527 3.280560 0.711424
v -2.450583 3.180559 0.718781
v -2.439386 3.280559 0.691749
v -2.515415 3.180559 0.684128
v -2.499160 3.280559 0.659799
v -2.572242 3.180559 0.637491
v -2.551552 3.280559 0.616802
v -2.618878 3.180559 0.580665
v -2.594549 3.280559 0.564410
v -2.653532 3.180559 0.515833
v -2.626499 3.280559 0.504636
v -2.674871 3.180559 0.445485
v -2.646174 3.280559 0.439777
v -2.682076 3.180559 0.372326
v -2.652817 3.280559 0.372326
v -2.674871 3.180559 0.299168
v -2.646174 3.280559 0.304876
v -2.653532 3.180559 0.228820
v -2.626499 3.280559 0.240017
v -2.618878 3.180559 0.163988
v -2.594549 3.280559 0.180243
v -2.572242 3.180559 0.107161
v -2.551552 3.280559 0.127851
v -2.515415 3.180559 0.060525
v -2.499160 3.280559 0.084854
v -2.450583 3.180559 0.025872
v -2.439386 3.280559 0.052904
v -2.380235 3.180559 0.004532
v -2.374527 3.280559 0.033229
v -2.233918 3.280559 0.004532
v -2.307076 3.280559 -0.002674
v -2.163570 3.280559 0.025872
v -2.098738 3.280559 0.060525
v -2.041912 3.280559 0.107161
v -1.995275 3.280559 0.163988
v -1.960622 3.280559 0.228820
v -1.939282 3.280559 0.299168
v -1.932077 3.280559 0.372326
v -1.939282 3.280559 0.445485
v -1.960622 3.280559 0.515833
v -1.995275 3.280559 0.580665
v -2.041912 3.280559 0.637491
v -2.098738 3.280559 0.684128
v -2.163570 3.280559 0.718781
v -2.233918 3.280559 0.740121
v -2.307076 3.280560 0.747326
v -2.380235 3.280560 0.740121
v -2.450583 3.280559 0.718781
v -2.515415 3.280559 0.684128
v -2.572242 3.280559 0.637491
v -2.618878 3.280559 0.580665
v -2.653532 3.280559 0.515833
v -2.674871 3.280559 0.445485
v -2.682076 3.280559 0.372326
v -2.674871 3.280559 0.299168
v -2.653532 3.280559 0.228820
v -2.618878 3.280559 0.163988
v -2.572242 3.280559 0.107161
v -2.515415 3.280559 0.060525
v -2.450583 3.280559 0.025872
v -2.380235 3.280559 0.004532
v -2.245407 3.350000 0.062291
v -2.307076 3.350000 0.056217
v -2.186107 3.350000 0.080280
v -2.131456 3.350000 0.109491
v -2.083554 3.350000 0.148804
v -2.044241 3.350000 0.196706
v -2.015030 3.350000 0.251357
v -1.997042 3.350000 0.310657
v -1.990968 3.350000 0.372326
v -1.997042 3.350000 0.433996
v -2.015030 3.350000 0.493296
v -2.044241 3.350000 0.547947
v -2.083554 3.350000 0.595849
v -2.131456 3.350000 0.635161
v -2.186107 3.350000 0.664373
v -2.245407 3.350000 0.682361
v -2.307076 3.350000 0.688435
v -2.368746 3.350000 0.682361
v -2.428046 3.350000 0.664373
v -2.482697 3.350000 0.635161
v -2.530599 3.350000 0.595849
v -2.569911 3.350000 0.547947
v -2.599123 3.350000 0.493296
v -2.617112 3.350000 0.433996
v -2.623186 3.350000 0.372326
v -2.617112 3.350000 0.310657
v -2.599123 3.350000 0.251357
v -2.569911 3.350000 0.196706
v -2.530599 3.350000 0.148804
v -2.482697 3.350000 0.109491
v -2.428046 3.350000 0.080280
v -2.368746 3.350000 0.062291
v -2.239626 3.350000 0.033229
v -2.307076 3.350000 0.026586
v -2.174767 3.350000 0.052904
v -2.114994 3.350000 0.084854
v -2.062601 3.350000 0.127851
v -2.019604 3.350000 0.180243
v -1.987654 3.350000 0.240017
v -1.967979 3.350000 0.304876
v -1.961336 3.350000 0.372326
v -1.967979 3.350000 0.439777
v -1.987654 3.350000 0.504636
v -2.019604 3.350000 0.564410
v -2.062601 3.350000 0.616802
v -2.114994 3.350000 0.659799
v -2.174767 3.350000 0.691749
v -2.239626 3.350000 0.711424
v -2.307076 3.350000 0.718067
v -2.374527 3.350000 0.711424
v -2.439386 3.350000 0.691749
v -2.499160 3.350000 0.659799
v -2.551552 3.350000 0.616802
v -2.594549 3.350000 0.564410
v -2.626499 3.350000 0.504636
v -2.646174 3.350000 0.439777
v -2.652817 3.350000 0.372326
v -2.646174 3.350000 0.304876
v -2.626499 3.350000 0.240017
v -2.594549 3.350000 0.180243
v -2.551552 3.350000 0.127851
v -2.499160 3.350000 0.084854
v -2.439386 3.350000 0.052904
v -2.374527 3.350000 0.033229
v -2.245407 3.280560 0.062291
v -2.307076 3.280560 0.056217
v -2.186107 3.280560 0.080280
v -2.131456 3.280560 0.109491
v -2.083554 3.280560 0.148804
v -2.044241 3.280560 0.196706
v -2.015030 3.280560 0.251357
v -1.997042 3.280560 0.310657
v -1.990968 3.280560 0.372326
v -1.997042 3.280560 0.433996
v -2.015030 3.280560 0.493296
v -2.044241 3.280560 0.547947
v -2.083554 3.280560 0.595849
v -2.131456 3.280560 0.635161
v -2.186107 3.280560 0.664373
v -2.245407 3.280560 0.682361
v -2.307076 3.280560 0.688435
v -2.368746 3.280560 0.682361
v -2.428046 3.280560 0.664373
v -2.482697 3.280560 0.635161
v -2.530599 3.280560 0.595849
v -2.569911 3.280560 0.547947
v -2.599123 3.280560 0.493296
v -2.617112 3.280560 0.433996
v -2.623186 3.280560 0.372326
v -2.617112 3.280560 0.310657
v -2.599123 3.280560 0.251357
v -2.569911 3.280560 0.196706
v -2.530599 3.280560 0.148804
v -2.482697 3.280560 0.109491
v -2.428046 3.280560 0.080280
v -2.368746 3.280560 0.062291
v 2.307080 3.180559 -0.002674
v 2.307080 3.280559 0.026586
v 2.380239 3.180559 0.004532
v 2.374531 3.280559 0.033229
v 2.450586 3.180559 0.025872
v 2.439389 3.280559 0.052904
v 2.515419 3.180559 0.060525
v 2.499163 3.280559 0.084854
v 2.572245 3.180559 0.107161
v 2.551556 3.280559 0.127851
v 2.618881 3.180559 0.163988
v 2.594553 3.280559 0.180243
v 2.653535 3.180559 0.228820
v 2.626503 3.280559 0.240017
v 2.674875 3.180559 0.299168
v 2.646177 3.280559 0.304876
v 2.682080 3.180559 0.372326
v 2.652821 3.280559 0.372326
v 2.674875 3.180559 0.445485
v 2.646177 3.280559 0.439777
v 2.653535 3.180559 0.515833
v 2.626503 3.280559 0.504636
v 2.618881 3.180559 0.580665
v 2.594553 3.280559 0.564410
v 2.572245 3.180559 0.637491
v 2.551556 3.280559 0.616802
v 2.515419 3.180559 0.684128
v 2.499163 3.280559 0.659799
v 2.450586 3.180559 0.718781
v 2.439389 3.280559 0.691749
v 2.380239 3.180559 0.740121
v 2.374531 3.280559 0.711424
v 2.307080 3.180559 0.747326
v 2.307080 3.280560 0.718067
v 2.233921 3.180559 0.740121
v 2.239629 3.280560 0.711424
v 2.163574 3.180559 0.718781
v 2.174771 3.280559 0.691749
v 2.098741 3.180559 0.684128
v 2.114997 3.280559 0.659799
v 2.041915 3.180559 0.637491
v 2.062604 3.280559 0.616802
v 1.995279 3.180559 0.580665
v 2.019608 3.280559 0.564410
v 1.960625 3.180559 0.515833
v 1.987657 3.280559 0.504636
v 1.939286 3.180559 0.445485
v 1.967983 3.280559 0.439777
v 1.932080 3.180559 0.372326
v 1.961340 3.280559 0.372326
v 1.939286 3.180559 0.299168
v 1.967983 3.280559 0.304876
v 1.960625 3.180559 0.228820
v 1.987657 3.280559 0.240017
v 1.995279 3.180559 0.163988
v 2.019608 3.280559 0.180243
v 2.041915 3.180559 0.107161
v 2.062604 3.280559 0.127851
v 2.098741 3.180559 0.060525
v 2.114997 3.280559 0.084854
v 2.163574 3.180559 0.025872
v 2.174771 3.280559 0.052904
v 2.233921 3.180559 0.004532
v 2.239629 3.280559 0.033229
v 2.380239 3.280559 0.004532
v 2.307080 3.280559 -0.002674
v 2.450586 3.280559 0.025872
v 2.515419 3.280559 0.060525
v 2.572245 3.280559 0.107161
v 2.618881 3.280559 0.163988
v 2.653535 3.280559 0.228820
v 2.674875 3.280559 0.299168
v 2.682080 3.280559 0.372326
v 2.674875 3.280559 0.445485
v 2.653535 3.280559 0.515833
v 2.618881 3.280559 0.580665
v 2.572245 3.280559 0.637491
v 2.515419 3.280559 0.684128
v 2.450586 3.280559 0.718781
v 2.380239 3.280559 0.740121
v 2.307080 3.280560 0.747326
v 2.233921 3.280560 0.740121
v 2.163574 3.280559 0.718781
v 2.098741 3.280559 0.684128
v 2.041915 3.280559 0.637491
v 1.995279 3.280559 0.580665
v 1.960625 3.280559 0.515833
v 1.939286 3.280559 0.445485
v 1.932080 3.280559 0.372326
v 1.939286 3.280559 0.299168
v 1.960625 3.280559 0.228820
v 1.995279 3.280559 0.163988
v 2.041915 3.280559 0.107161
v 2.098741 3.280559 0.060525
v 2.163574 3.280559 0.025872
v 2.233921 3.280559 0.004532
v 2.368750 3.350000 0.062291
v 2.307080 3.350000 0.056217
v 2.428050 3.350000 0.080280
v 2.482701 3.350000 0.109491
v 2.530603 3.350000 0.148804
v 2.569915 3.350000 0.196706
v 2.599126 3.350000 0.251357
v 2.617115 3.350000 0.310657
v 2.623189 3.350000 0.372326
v 2.617115 3.350000 0.433996
v 2.599126 3.350000 0.493296
v 2.569915 3.350000 0.547947
v 2.530603 3.350000 0.595849
v 2.482701 3.350000 0.635161
v 2.428050 3.350000 0.664373
v 2.368750 3.350000 0.682361
v 2.307080 3.350000 0.688435
v 2.245410 3.350000 0.682361
v 2.186110 3.350000 0.664373
v 2.131459 3.350000 0.635161
v 2.083557 3.350000 0.595849
v 2.044245 3.350000 0.547947
v 2.015033 3.350000 0.493296
v 1.997045 3.350000 0.433996
v 1.990971 3.350000 0.372326
v 1.997045 3.350000 0.310657
v 2.015033 3.350000 0.251357
v 2.044245 3.350000 0.196706
v 2.083557 3.350000 0.148804
v 2.131459 3.350000 0.109491
v 2.186110 3.350000 0.080280
v 2.245410 3.350000 0.062291
v 2.374531 3.350000 0.033229
v 2.307080 3.350000 0.026586
v 2.439389 3.350000 0.052904
v 2.499163 3.350000 0.084854
v 2.551556 3.350000 0.127851
v 2.594553 3.350000 0.180243
v 2.626503 3.350000 0.240017
v 2.646177 3.350000 0.304876
v 2.652821 3.350000 0.372326
v 2.646177 3.350000 0.439777
v 2.626503 3.350000 0.504636
v 2.594553 3.350000 0.564410
v 2.551556 3.350000 0.616802
v 2.499163 3.350000 0.659799
v 2.439389 3.350000 0.691749
v 2.374531 3.350000 0.711424
v 2.307080 3.350000 0.718067
v 2.239629 3.350000 0.711424
v 2.174771 3.350000 0.691749
v 2.114997 3.350000 0.659799
v 2.062604 3.350000 0.616802
v 2.019608 3.350000 0.564410
v 1.987657 3.350000 0.504636
v 1.967983 3.350000 0.439777
v 1.961340 3.350000 0.372326
v 1.967983 3.350000 0.304876
v 1.987657 3.350000 0.240017
v 2.019608 3.350000 0.180243
v 2.062604 3.350000 0.127851
v 2.114997 3.350000 0.084854
v 2.174771 3.350000 0.052904
v 2.239629 3.350000 0.033229
v 2.368750 3.280560 0.062291
v 2.307080 3.280560 0.056217
v 2.428050 3.280560 0.080280
v 2.482701 3.280560 0.109491
v 2.530603 3.280560 0.148804
v 2.569915 3.280560 0.196706
v 2.599126 3.280560 0.251357
v 2.617115 3.280560 0.310657
v 2.623189 3.280560 0.372326
v 2.617115 3.280560 0.433996
v 2.599126 3.280560 0.493296
v 2.569915 3.280560 0.547947
v 2.530603 3.280560 0.595849
v 2.482701 3.280560 0.635161
v 2.428050 3.280560 0.664373
v 2.368750 3.280560 0.682361
v 2.307080 3.280560 0.688435
v 2.245410 3.280560 0.682361
v 2.186110 3.280560 0.664373
v 2.131459 3.280560 0.635161
v 2.083557 3.280560 0.595849
v 2.044245 3.280560 0.547947
v 2.015033 3.280560 0.493296
v 1.997045 3.280560 0.433996
v 1.990971 3.280560 0.372326
v 1.997045 3.280560 0.310657
v 2.015033 3.280560 0.251357
v 2.044245 3.280560 0.196706
v 2.083557 3.280560 0.148804
v 2.131459 3.280560 0.109491
v 2.186110 3.280560 0.080280
v 2.245410 3.280560 0.062291
vn -0.0000 0.5000 -0.8660
vn -0.0000 -0.5000 -0.8660
vn -0.0000 1.0000 -0.0000
vn -0.0000 0.5000 0.8660
vn -0.0000 -0.5000 0.8660
vn -0.0000 -1.0000 -0.0000
vn -1.0000 -0.0000 -0.0000
vn 1.0000 -0.0000 -0.0000
vn 0.1954 -0.0000 -0.9807
vn 0.1952 -0.0001 -0.9808
vn 0.1306 0.0001 -0.9914
vn 0.1298 -0.0000 -0.9915
vn -0.0000 0.0002 -1.0000
vn -0.0000 0.0001 -1.0000
vn -0.1298 -0.0000 -0.9915
vn -0.1306 0.0001 -0.9914
vn -0.1952 -0.0001 -0.9808
vn -0.1954 -0.0000 -0.9807
vn -0.0174 0.9998 -0.0000
vn -0.0120 0.9999 -0.0000
vn -0.0110 0.9999 -0.0000
vn 0.0120 0.9999 -0.0000
vn 0.0110 0.9999 -0.0000
vn 0.0174 0.9998 -0.0000
vn 0.9606 -0.0000 -0.2780
vn 0.9775 -0.0000 -0.2109
vn 0.9807 -0.0000 -0.1957
vn 0.9999 -0.0000 -0.0124
vn 0.9751 -0.0000 0.2220
vn 0.9749 -0.0000 0.2225
vn 0.9010 -0.0000 0.4338
vn 0.8960 -0.0000 0.4441
vn 0.7920 -0.0000 0.6105
vn 0.7818 -0.0000 0.6235
vn 0.9010 -0.0000 0.4339
vn 0.6497 -0.0000 0.7602
vn 0.6231 0.0005 0.7821
vn 0.7756 -0.0000 -0.6312
vn 0.4943 -0.0000 -0.8693
vn 0.4188 -0.0000 -0.9081
vn 0.4169 -0.0000 -0.9089
vn 0.2675 -0.0000 -0.9635
vn 0.2665 -0.0000 -0.9638
vn 0.1303 -0.0000 -0.9915
vn -0.0000 -0.0000 -1.0000
vn -0.1303 -0.0000 -0.9915
vn -0.2665 -0.0000 -0.9638
vn -0.2675 -0.0000 -0.9635
vn -0.4169 -0.0000 -0.9089
vn -0.4188 -0.0000 -0.9081
vn -0.4943 -0.0000 -0.8693
vn 0.5615 0.8174 0.1286
vn 0.5589 0.8211 0.1159
vn 0.5589 0.8213 0.1145
vn 0.5709 0.8083 0.1439
vn 0.5691 0.8090 0.1471
vn 0.5567 0.8188 0.1401
vn 0.5424 0.8269 0.1485
vn 0.5376 0.8292 0.1528
vn -0.0000 -0.0003 1.0000
vn 0.2227 0.0011 0.9749
vn 0.1168 0.0015 0.9932
vn -0.0000 -0.0000 1.0000
vn 0.3306 0.0005 0.9438
vn 0.2121 0.0058 0.9772
vn 0.3301 0.0004 0.9440
vn -0.5320 0.0022 0.8467
vn -0.5312 0.0010 0.8472
vn -0.5312 0.0009 0.8473
vn -0.5306 -0.0000 0.8476
vn -0.9606 -0.0000 -0.2780
vn -0.9775 -0.0000 -0.2109
vn -0.9807 -0.0000 -0.1957
vn -0.9999 -0.0000 -0.0124
vn -0.9751 -0.0000 0.2220
vn -0.9749 -0.0000 0.2225
vn -0.9010 -0.0000 0.4339
vn -0.8960 -0.0000 0.4441
vn -0.7920 -0.0000 0.6105
vn -0.7818 -0.0000 0.6235
vn -0.7071 -0.0000 0.7071
vn -0.7756 -0.0000 -0.6312
vn -0.5587 0.8212 0.1157
vn -0.5613 0.8175 0.1286
vn -0.5587 0.8214 0.1144
vn -0.5707 0.8084 0.1439
vn -0.5690 0.8091 0.1471
vn -0.5567 0.8188 0.1402
vn -0.5423 0.8269 0.1486
vn -0.5376 0.8292 0.1528
vn 0.3301 0.0004 0.9439
vn 0.3301 0.0005 0.9439
vn 0.3294 0.0004 0.9442
vn 0.3298 0.0002 0.9440
vn 0.3290 0.0001 0.9443
vn 0.0063 0.7494 0.6621
vn 0.0015 0.7408 0.6718
vn 0.5312 0.0010 0.8472
vn 0.5320 0.0022 0.8467
vn -0.0063 0.7494 0.6621
vn -0.0015 0.7408 0.6718
vn -0.3290 0.0001 0.9443
vn -0.3296 0.0003 0.9441
vn -0.3298 0.0002 0.9440
vn -0.3301 0.0004 0.9439
vn -0.3305 0.0005 0.9438
vn -0.2227 0.0011 0.9749
vn -0.2121 0.0058 0.9772
vn -0.1168 0.0015 0.9932
vn -0.0001 0.7431 0.6692
vn 0.0037 0.7428 0.6695
vn 0.0014 0.7431 0.6692
vn 0.0025 0.7464 0.6655
vn 0.0006 0.7435 0.6687
vn 0.0009 0.7488 0.6628
vn 0.0075 0.7513 0.6600
vn -0.0001 0.7507 0.6606
vn 0.0027 0.7409 0.6716
vn -0.0120 0.7519 0.6592
vn -0.0327 0.7581 0.6513
vn -0.0000 0.7596 0.6503
vn -0.0430 0.7566 0.6525
vn -0.0387 0.7593 0.6496
vn -0.0370 0.7608 0.6480
vn 0.0001 0.7431 0.6692
vn -0.0037 0.7428 0.6695
vn -0.0014 0.7431 0.6692
vn -0.0048 0.7474 0.6644
vn 0.0069 0.7460 0.6659
vn 0.0074 0.7477 0.6639
vn -0.0027 0.7409 0.6716
vn 0.0120 0.7519 0.6592
vn 0.0327 0.7581 0.6513
vn 0.0430 0.7566 0.6525
vn 0.0387 0.7593 0.6496
vn 0.0370 0.7608 0.6480
vn -0.0000 0.9971 0.0765
vn 0.0980 -0.0000 -0.9952
vn 0.2903 -0.0000 -0.9569
vn 0.4714 -0.0000 -0.8819
vn 0.6344 -0.0000 -0.7730
vn 0.7730 -0.0000 -0.6344
vn 0.8819 -0.0000 -0.4714
vn 0.9569 -0.0000 -0.2903
vn 0.9952 -0.0000 -0.0980
vn 0.9952 -0.0000 0.0980
vn 0.9569 -0.0000 0.2903
vn 0.8819 -0.0000 0.4714
vn 0.7730 -0.0000 0.6344
vn 0.6344 -0.0000 0.7730
vn 0.4714 -0.0000 0.8819
vn 0.2903 -0.0000 0.9569
vn 0.0980 -0.0000 0.9952
vn -0.0980 -0.0000 0.9952
vn -0.2903 -0.0000 0.9569
vn -0.4714 -0.0000 0.8819
vn -0.6344 -0.0000 0.7730
vn -0.7730 -0.0000 0.6344
vn -0.8819 -0.0000 0.4714
vn -0.9569 -0.0000 0.2903
vn -0.9952 -0.0000 0.0980
vn -0.9952 -0.0000 -0.0980
vn -0.9569 -0.0000 -0.2903
vn -0.8819 -0.0000 -0.4714
vn -0.7730 -0.0000 -0.6344
vn -0.6344 -0.0000 -0.7730
vn -0.4714 -0.0000 -0.8819
vn -0.2903 -0.0000 -0.9569
vn -0.0980 -0.0000 -0.9952
vt 0.566398 0.484010
vt 0.428020 0.484010
vt 0.566398 0.480970
vt 0.428020 0.480970
vt 0.566398 0.477929
vt 0.428020 0.477929
vt 0.566398 0.512384
vt 0.428020 0.512384
vt 0.566398 0.508874
vt 0.428020 0.508874
vt 0.514140 0.480970
vt 0.512384 0.484010
vt 0.512384 0.477929
vt 0.507118 0.480970
vt 0.508874 0.477929
vt 0.508874 0.484010
vt 0.514140 0.480970
vt 0.507118 0.480970
vt 0.477108 0.498843
vt 0.477108 0.468384
vt 0.484316 0.498717
vt 0.484372 0.468384
vt 0.497209 0.498645
vt 0.497209 0.468384
vt 0.510046 0.468384
vt 0.510102 0.498717
vt 0.517311 0.468384
vt 0.517311 0.498843
vt 0.477108 0.420348
vt 0.477108 0.416106
vt 0.484316 0.418912
vt 0.484316 0.414670
vt 0.497209 0.418082
vt 0.497209 0.413840
vt 0.510102 0.418912
vt 0.510102 0.414670
vt 0.517311 0.420348
vt 0.517311 0.416106
vt 0.420348 0.468383
vt 0.416106 0.468384
vt 0.420348 0.498842
vt 0.416106 0.498843
vt 0.477108 0.416106
vt 0.477108 0.420348
vt 0.484372 0.414660
vt 0.484372 0.418903
vt 0.497209 0.413838
vt 0.497209 0.418080
vt 0.510046 0.414660
vt 0.510046 0.418903
vt 0.517311 0.416106
vt 0.517311 0.420348
vt 0.435541 0.463359
vt 0.435541 0.505280
vt 0.452584 0.463359
vt 0.449606 0.506511
vt 0.488031 0.492220
vt 0.488031 0.463359
vt 0.502918 0.488389
vt 0.502918 0.463359
vt 0.517805 0.486733
vt 0.517805 0.463359
vt 0.531945 0.463359
vt 0.531945 0.488141
vt 0.544630 0.491776
vt 0.544630 0.463359
vt 0.555223 0.482007
vt 0.555223 0.463359
vt 0.429481 0.463359
vt 0.429481 0.504750
vt 0.452107 0.504750
vt 0.452107 0.463359
vt 0.461242 0.504296
vt 0.461242 0.463359
vt 0.472179 0.503954
vt 0.472179 0.463359
vt 0.484372 0.503741
vt 0.484372 0.463359
vt 0.497209 0.503669
vt 0.497209 0.463359
vt 0.510046 0.463359
vt 0.510046 0.503741
vt 0.522239 0.463359
vt 0.522239 0.503954
vt 0.533177 0.463359
vt 0.533177 0.504296
vt 0.542311 0.463359
vt 0.542311 0.504750
vt 0.456561 0.533904
vt 0.444903 0.544630
vt 0.436933 0.531945
vt 0.431985 0.517805
vt 0.430308 0.502918
vt 0.431985 0.488031
vt 0.448210 0.461786
vt 0.443105 0.449606
vt 0.482322 0.463359
vt 0.485460 0.471029
vt 0.497209 0.470478
vt 0.477487 0.466870
vt 0.482090 0.468109
vt 0.468182 0.463359
vt 0.526237 0.463359
vt 0.526133 0.475042
vt 0.538922 0.463359
vt 0.538922 0.482007
vt 0.549515 0.544630
vt 0.537847 0.533904
vt 0.557485 0.531945
vt 0.562433 0.517805
vt 0.564111 0.502918
vt 0.562433 0.488031
vt 0.546209 0.461786
vt 0.551314 0.449606
vt 0.472884 0.468109
vt 0.469515 0.470855
vt 0.468285 0.475042
vt 0.468285 0.559558
vt 0.468285 0.563228
vt 0.455497 0.555223
vt 0.455497 0.482007
vt 0.455497 0.463359
vt 0.526133 0.559558
vt 0.538922 0.555223
vt 0.526133 0.563228
vt 0.524904 0.470855
vt 0.521534 0.468109
vt 0.516931 0.466870
vt 0.512096 0.463359
vt 0.512328 0.468109
vt 0.508959 0.471029
vt 0.526137 0.551683
vt 0.524904 0.544567
vt 0.521534 0.539261
vt 0.516931 0.537443
vt 0.497209 0.533904
vt 0.512328 0.539186
vt 0.508959 0.544584
vt 0.507725 0.552021
vt 0.497209 0.569819
vt 0.507730 0.560074
vt 0.507730 0.563390
vt 0.508959 0.568501
vt 0.468281 0.551683
vt 0.469515 0.544567
vt 0.472884 0.539261
vt 0.477487 0.537443
vt 0.482090 0.539186
vt 0.485460 0.544584
vt 0.486693 0.552021
vt 0.486689 0.560074
vt 0.486689 0.563390
vt 0.485460 0.568501
vt 0.517523 0.507068
vt 0.476895 0.507068
vt 0.517523 0.503922
vt 0.476895 0.503922
vt 0.476895 0.513712
vt 0.438664 0.508280
vt 0.426033 0.513712
vt 0.438664 0.513712
vt 0.517523 0.455952
vt 0.476895 0.455952
vt 0.517523 0.438664
vt 0.476895 0.438664
vt 0.426033 0.507068
vt 0.455952 0.506953
vt 0.426032 0.503922
vt 0.443753 0.513483
vt 0.429132 0.513483
vt 0.443753 0.505930
vt 0.429132 0.505930
vt 0.514014 0.443753
vt 0.507890 0.443753
vt 0.514014 0.429132
vt 0.507890 0.429132
vt 0.443753 0.513483
vt 0.512825 0.512298
vt 0.514014 0.513483
vt 0.512825 0.508691
vt 0.509079 0.512298
vt 0.514014 0.505930
vt 0.507890 0.513483
vt 0.507890 0.505930
vt 0.509079 0.508691
vt 0.517523 0.426033
vt 0.476895 0.426033
vt 0.476895 0.508280
vt 0.517523 0.513712
vt 0.517523 0.508280
vt 0.443753 0.505930
vt 0.486528 0.429132
vt 0.486528 0.443753
vt 0.480405 0.429132
vt 0.480405 0.443753
vt 0.481593 0.512298
vt 0.481593 0.508691
vt 0.480405 0.513483
vt 0.485340 0.512298
vt 0.480405 0.505930
vt 0.486528 0.513483
vt 0.486528 0.505930
vt 0.485340 0.508691
vt 0.496543 0.429132
vt 0.496543 0.443753
vt 0.490419 0.429132
vt 0.490419 0.443753
vt 0.491608 0.512298
vt 0.491608 0.508691
vt 0.490419 0.513483
vt 0.495354 0.512298
vt 0.490419 0.505930
vt 0.496543 0.513483
vt 0.496543 0.505930
vt 0.495354 0.508691
vt 0.509660 0.504321
vt 0.508482 0.502711
vt 0.509660 0.502711
vt 0.508482 0.504321
vt 0.507349 0.502711
vt 0.507349 0.504321
vt 0.506305 0.502711
vt 0.506305 0.504321
vt 0.505391 0.502711
vt 0.504643 0.504321
vt 0.505558 0.502711
vt 0.504643 0.502711
vt 0.505558 0.504321
vt 0.506602 0.502711
vt 0.506602 0.504321
vt 0.507734 0.502711
vt 0.507734 0.504321
vt 0.508912 0.502711
vt 0.508912 0.504321
vt 0.510090 0.502711
vt 0.510090 0.504321
vt 0.511223 0.502711
vt 0.511223 0.504321
vt 0.512266 0.502711
vt 0.512266 0.504321
vt 0.513181 0.502711
vt 0.505391 0.504321
vt 0.510837 0.502711
vt 0.511970 0.504321
vt 0.511970 0.502711
vt 0.513014 0.502711
vt 0.513014 0.504321
vt 0.513929 0.502711
vt 0.513181 0.504321
vt 0.513929 0.504321
vt 0.512005 0.504321
vt 0.512848 0.505439
vt 0.512848 0.504321
vt 0.510837 0.504321
vt 0.508482 0.514834
vt 0.515581 0.510090
vt 0.510837 0.502991
vt 0.509660 0.503346
vt 0.508482 0.502991
vt 0.509660 0.502875
vt 0.508574 0.503453
vt 0.507349 0.503334
vt 0.507529 0.503770
vt 0.506305 0.503892
vt 0.506567 0.504284
vt 0.505391 0.504643
vt 0.505724 0.504976
vt 0.504640 0.505558
vt 0.504517 0.506782
vt 0.505031 0.505820
vt 0.504200 0.507826
vt 0.504082 0.506602
vt 0.503622 0.508912
vt 0.503738 0.507734
vt 0.504200 0.509998
vt 0.504093 0.508912
vt 0.504082 0.511223
vt 0.503738 0.510090
vt 0.504517 0.511042
vt 0.504640 0.512266
vt 0.505031 0.512005
vt 0.505391 0.513181
vt 0.506567 0.513540
vt 0.505724 0.512848
vt 0.507529 0.514055
vt 0.506305 0.513932
vt 0.508574 0.514372
vt 0.507349 0.514490
vt 0.509660 0.514950
vt 0.510746 0.514372
vt 0.509660 0.514478
vt 0.511790 0.514055
vt 0.510837 0.514834
vt 0.512752 0.513540
vt 0.511970 0.514490
vt 0.513596 0.512848
vt 0.513014 0.513932
vt 0.514288 0.512005
vt 0.513929 0.513181
vt 0.514802 0.511042
vt 0.514679 0.512266
vt 0.515119 0.509998
vt 0.515237 0.511223
vt 0.515226 0.508912
vt 0.515581 0.507734
vt 0.515697 0.508912
vt 0.515119 0.507826
vt 0.515237 0.506602
vt 0.514802 0.506782
vt 0.514679 0.505558
vt 0.514288 0.505820
vt 0.513929 0.504643
vt 0.512752 0.504284
vt 0.513596 0.504976
vt 0.511970 0.503334
vt 0.513014 0.503892
vt 0.511790 0.503770
vt 0.510746 0.503453
vt 0.508912 0.505439
vt 0.507919 0.504321
vt 0.507919 0.505439
vt 0.507826 0.504321
vt 0.506782 0.505439
vt 0.506782 0.504321
vt 0.505724 0.504321
vt 0.506567 0.505439
vt 0.506567 0.504321
vt 0.505820 0.505439
vt 0.505820 0.504321
vt 0.507529 0.505439
vt 0.507529 0.504321
vt 0.508574 0.505439
vt 0.508574 0.504321
vt 0.504976 0.505439
vt 0.504976 0.504321
vt 0.513596 0.504321
vt 0.512752 0.505439
vt 0.512752 0.504321
vt 0.509660 0.505439
vt 0.511790 0.505439
vt 0.511790 0.504321
vt 0.510746 0.505439
vt 0.510746 0.504321
vt 0.505724 0.505439
vt 0.513596 0.505439
vt 0.507826 0.505439
vt 0.512005 0.505439
vt 0.511042 0.505439
vt 0.511042 0.504321
vt 0.509998 0.505439
vt 0.509998 0.504321
vt 0.508667 0.503921
vt 0.509660 0.503823
vt 0.507712 0.504210
vt 0.506832 0.504681
vt 0.506061 0.505314
vt 0.505428 0.506085
vt 0.504958 0.506965
vt 0.504668 0.507919
vt 0.504668 0.509905
vt 0.504570 0.508912
vt 0.504958 0.510860
vt 0.505428 0.511740
vt 0.506061 0.512511
vt 0.506832 0.513144
vt 0.507712 0.513614
vt 0.508667 0.513904
vt 0.510652 0.513904
vt 0.509660 0.514001
vt 0.511607 0.513614
vt 0.512487 0.513144
vt 0.513258 0.512511
vt 0.513891 0.511740
vt 0.514361 0.510860
vt 0.514651 0.509905
vt 0.514651 0.507919
vt 0.514749 0.508912
vt 0.514361 0.506965
vt 0.513891 0.506085
vt 0.513258 0.505314
vt 0.512487 0.504681
vt 0.511607 0.504210
vt 0.510652 0.503921
vt 0.511740 0.505439
vt 0.512511 0.504321
vt 0.512511 0.505439
vt 0.506965 0.504321
vt 0.506965 0.505439
vt 0.506061 0.505439
vt 0.506832 0.504321
vt 0.506832 0.505439
vt 0.506085 0.504321
vt 0.506085 0.505439
vt 0.507712 0.504321
vt 0.507712 0.505439
vt 0.508667 0.504321
vt 0.508667 0.505439
vt 0.505314 0.504321
vt 0.505314 0.505439
vt 0.513258 0.505439
vt 0.512487 0.504321
vt 0.512487 0.505439
vt 0.511607 0.504321
vt 0.511607 0.505439
vt 0.510652 0.504321
vt 0.510652 0.505439
vt 0.506061 0.504321
vt 0.513258 0.504321
vt 0.511740 0.504321
vt 0.510860 0.504321
vt 0.510860 0.505439
vt 0.509905 0.504321
vt 0.509905 0.505439
vt 0.534352 0.504321
vt 0.533175 0.502711
vt 0.534352 0.502711
vt 0.533175 0.504321
vt 0.532042 0.502711
vt 0.532042 0.504321
vt 0.530998 0.502711
vt 0.530998 0.504321
vt 0.530083 0.502711
vt 0.530083 0.504321
vt 0.535530 0.502711
vt 0.536663 0.504321
vt 0.536663 0.502711
vt 0.537706 0.502711
vt 0.537706 0.504321
vt 0.538621 0.502711
vt 0.538621 0.504321
vt 0.535530 0.504321
vt 0.533175 0.514834
vt 0.540274 0.510090
vt 0.535530 0.502991
vt 0.534352 0.503346
vt 0.533175 0.502991
vt 0.534352 0.502875
vt 0.533266 0.503453
vt 0.532042 0.503334
vt 0.532222 0.503770
vt 0.530998 0.503892
vt 0.531260 0.504284
vt 0.530083 0.504643
vt 0.529724 0.505820
vt 0.530416 0.504976
vt 0.529210 0.506782
vt 0.529332 0.505558
vt 0.528893 0.507826
vt 0.528774 0.506602
vt 0.528315 0.508912
vt 0.528431 0.507734
vt 0.528893 0.509998
vt 0.528786 0.508912
vt 0.528774 0.511223
vt 0.528431 0.510090
vt 0.529210 0.511042
vt 0.529332 0.512266
vt 0.529724 0.512005
vt 0.530083 0.513181
vt 0.531260 0.513540
vt 0.530416 0.512848
vt 0.532222 0.514055
vt 0.530998 0.513932
vt 0.533266 0.514372
vt 0.532042 0.514490
vt 0.534352 0.514950
vt 0.535438 0.514372
vt 0.534352 0.514478
vt 0.536663 0.514490
vt 0.535530 0.514834
vt 0.536482 0.514055
vt 0.537706 0.513932
vt 0.537445 0.513540
vt 0.538621 0.513181
vt 0.538981 0.512005
vt 0.538288 0.512848
vt 0.539495 0.511042
vt 0.539372 0.512266
vt 0.539812 0.509998
vt 0.539930 0.511223
vt 0.540390 0.508912
vt 0.539812 0.507826
vt 0.539919 0.508912
vt 0.539930 0.506602
vt 0.540274 0.507734
vt 0.539495 0.506782
vt 0.539372 0.505558
vt 0.538981 0.505820
vt 0.538621 0.504643
vt 0.537445 0.504284
vt 0.538288 0.504976
vt 0.536482 0.503770
vt 0.537706 0.503892
vt 0.535438 0.503453
vt 0.536663 0.503334
vt 0.530416 0.504321
vt 0.531260 0.505439
vt 0.531260 0.504321
vt 0.532222 0.505439
vt 0.532222 0.504321
vt 0.533266 0.505439
vt 0.533266 0.504321
vt 0.538288 0.504321
vt 0.537445 0.505439
vt 0.537445 0.504321
vt 0.534352 0.505439
vt 0.536482 0.505439
vt 0.536482 0.504321
vt 0.535438 0.505439
vt 0.535438 0.504321
vt 0.530416 0.505439
vt 0.538288 0.505439
vt 0.533359 0.503921
vt 0.534352 0.503823
vt 0.532405 0.504210
vt 0.531525 0.504681
vt 0.530754 0.505314
vt 0.530121 0.506085
vt 0.529650 0.506965
vt 0.529361 0.507919
vt 0.529361 0.509905
vt 0.529263 0.508912
vt 0.529650 0.510860
vt 0.530121 0.511740
vt 0.530754 0.512511
vt 0.531525 0.513144
vt 0.532405 0.513614
vt 0.533359 0.513904
vt 0.535345 0.513904
vt 0.534352 0.514001
vt 0.536300 0.513614
vt 0.537180 0.513144
vt 0.537951 0.512511
vt 0.538584 0.511740
vt 0.539054 0.510860
vt 0.539344 0.509905
vt 0.539344 0.507919
vt 0.539442 0.508912
vt 0.539054 0.506965
vt 0.538584 0.506085
vt 0.537951 0.505314
vt 0.537180 0.504681
vt 0.536300 0.504210
vt 0.535345 0.503921
vt 0.530754 0.505439
vt 0.531525 0.504321
vt 0.531525 0.505439
vt 0.532405 0.504321
vt 0.532405 0.505439
vt 0.533359 0.504321
vt 0.533359 0.505439
vt 0.537951 0.505439
vt 0.537180 0.504321
vt 0.537180 0.505439
vt 0.536300 0.504321
vt 0.536300 0.505439
vt 0.535345 0.504321
vt 0.535345 0.505439
vt 0.530754 0.504321
vt 0.537951 0.504321
vt 0.460066 0.504321
vt 0.458888 0.502711
vt 0.460066 0.502711
vt 0.458888 0.504321
vt 0.457756 0.502711
vt 0.457756 0.504321
vt 0.456712 0.502711
vt 0.456712 0.504321
vt 0.455797 0.502711
vt 0.455797 0.504321
vt 0.461244 0.502711
vt 0.462376 0.504321
vt 0.462376 0.502711
vt 0.463420 0.502711
vt 0.463420 0.504321
vt 0.464335 0.502711
vt 0.464335 0.504321
vt 0.461244 0.504321
vt 0.458888 0.514834
vt 0.465987 0.510090
vt 0.461244 0.502991
vt 0.460066 0.503346
vt 0.458888 0.502991
vt 0.460066 0.502875
vt 0.458980 0.503453
vt 0.457756 0.503334
vt 0.456974 0.504284
vt 0.457936 0.503770
vt 0.455797 0.504643
vt 0.456712 0.503892
vt 0.456130 0.504976
vt 0.455046 0.505558
vt 0.454923 0.506782
vt 0.455438 0.505820
vt 0.454607 0.507826
vt 0.454488 0.506602
vt 0.454500 0.508912
vt 0.454145 0.507734
vt 0.454145 0.510090
vt 0.454029 0.508912
vt 0.454607 0.509998
vt 0.454488 0.511223
vt 0.454923 0.511042
vt 0.455046 0.512266
vt 0.455438 0.512005
vt 0.455797 0.513181
vt 0.456974 0.513540
vt 0.456130 0.512848
vt 0.457756 0.514490
vt 0.456712 0.513932
vt 0.458980 0.514372
vt 0.457936 0.514055
vt 0.460066 0.514950
vt 0.461152 0.514372
vt 0.460066 0.514478
vt 0.462376 0.514490
vt 0.461244 0.514834
vt 0.463158 0.513540
vt 0.462196 0.514055
vt 0.464335 0.513181
vt 0.463420 0.513932
vt 0.464694 0.512005
vt 0.464002 0.512848
vt 0.465209 0.511042
vt 0.465086 0.512266
vt 0.465644 0.511223
vt 0.465632 0.508912
vt 0.465525 0.509998
vt 0.465987 0.507734
vt 0.466103 0.508912
vt 0.465209 0.506782
vt 0.465525 0.507826
vt 0.465086 0.505558
vt 0.465644 0.506602
vt 0.464002 0.504976
vt 0.464694 0.505820
vt 0.463158 0.504284
vt 0.464335 0.504643
vt 0.462376 0.503334
vt 0.463420 0.503892
vt 0.461152 0.503453
vt 0.462196 0.503770
vt 0.456130 0.504321
vt 0.456974 0.505439
vt 0.456974 0.504321
vt 0.457936 0.505439
vt 0.457936 0.504321
vt 0.458980 0.505439
vt 0.458980 0.504321
vt 0.464002 0.504321
vt 0.463158 0.505439
vt 0.463158 0.504321
vt 0.460066 0.505439
vt 0.462196 0.505439
vt 0.462196 0.504321
vt 0.461152 0.505439
vt 0.461152 0.504321
vt 0.456130 0.505439
vt 0.464002 0.505439
vt 0.459073 0.503921
vt 0.460066 0.503823
vt 0.458118 0.504210
vt 0.456467 0.505314
vt 0.457239 0.504681
vt 0.455834 0.506085
vt 0.455364 0.506965
vt 0.454977 0.508912
vt 0.455075 0.507919
vt 0.455364 0.510860
vt 0.455075 0.509905
vt 0.455834 0.511740
vt 0.456467 0.512511
vt 0.457239 0.513144
vt 0.458118 0.513614
vt 0.459073 0.513904
vt 0.461059 0.513904
vt 0.460066 0.514001
vt 0.462014 0.513614
vt 0.462893 0.513144
vt 0.463665 0.512511
vt 0.464298 0.511740
vt 0.464768 0.510860
vt 0.465057 0.509905
vt 0.465057 0.507919
vt 0.465155 0.508912
vt 0.464768 0.506965
vt 0.464298 0.506085
vt 0.463665 0.505314
vt 0.462014 0.504210
vt 0.462893 0.504681
vt 0.461059 0.503921
vt 0.456467 0.505439
vt 0.457239 0.504321
vt 0.457239 0.505439
vt 0.458118 0.504321
vt 0.458118 0.505439
vt 0.459073 0.504321
vt 0.459073 0.505439
vt 0.463665 0.505439
vt 0.462893 0.504321
vt 0.462893 0.505439
vt 0.462014 0.504321
vt 0.462014 0.505439
vt 0.461059 0.504321
vt 0.461059 0.505439
vt 0.456467 0.504321
vt 0.463665 0.504321
s 1
g vir_gun_305_x1_001_0_vir_gun_305_x1_001_0_steel_4
usemtl steel_4
f 3/1/1 2/2/1 1/3/1
f 4/4/1 1/3/1 2/2/1
f 1/3/2 4/4/2 5/5/2
f 6/6/2 5/5/2 4/4/2
f 9/7/3 8/8/3 7/9/3
f 10/10/3 7/9/3 8/8/3
f 13/2/4 12/1/4 11/4/4
f 14/3/4 11/4/4 12/1/4
f 11/4/5 14/3/5 15/6/5
f 16/5/5 15/6/5 14/3/5
f 19/9/6 18/10/6 17/7/6
f 20/8/6 17/7/6 18/10/6
f 23/11/7 22/12/7 21/13/7
f 22/12/7 24/14/7 21/13/7
f 21/13/7 24/14/7 25/15/7
f 26/16/7 24/14/7 22/12/7
f 29/12/8 28/17/8 27/16/8
f 28/17/8 30/15/8 27/16/8
f 27/16/8 30/15/8 31/18/8
f 32/13/8 30/15/8 28/17/8
f 35/19/9 34/20/10 33/21/11
f 36/22/12 33/21/11 34/20/10
f 33/21/11 36/22/12 37/23/13
f 38/24/14 37/23/13 36/22/12
f 38/24/14 39/25/15 37/23/13
f 40/26/16 37/23/13 39/25/15
f 39/25/15 41/27/17 40/26/16
f 42/28/18 40/26/16 41/27/17
f 45/29/19 44/30/19 43/31/20
f 46/32/21 43/31/20 44/30/19
f 43/31/20 46/32/21 47/33/3
f 48/34/3 47/33/3 46/32/21
f 47/33/3 48/34/3 49/35/22
f 50/36/23 49/35/22 48/34/3
f 49/35/22 50/36/23 51/37/24
f 52/38/24 51/37/24 50/36/23
f 55/39/8 54/40/8 53/41/8
f 56/42/8 53/41/8 54/40/8
f 59/43/6 58/44/6 57/45/6
f 60/46/6 57/45/6 58/44/6
f 57/45/6 60/46/6 61/47/6
f 62/48/6 61/47/6 60/46/6
f 61/47/6 62/48/6 63/49/6
f 64/50/6 63/49/6 62/48/6
f 63/49/6 64/50/6 65/51/6
f 66/52/6 65/51/6 64/50/6
f 69/41/7 68/42/7 67/39/7
f 70/40/7 67/39/7 68/42/7
f 73/53/25 72/54/25 71/55/25
f 74/56/25 71/55/25 72/54/25
f 74/56/25 75/57/26 71/55/25
f 76/58/27 71/55/25 75/57/26
f 75/57/26 77/59/28 76/58/27
f 78/60/8 76/58/27 77/59/28
f 77/59/28 79/61/29 78/60/8
f 80/62/30 78/60/8 79/61/29
f 80/62/30 79/61/29 81/63/31
f 82/64/32 81/63/31 79/61/29
f 82/64/32 83/65/33 81/63/31
f 84/66/34 81/63/35 83/65/33
f 83/65/33 85/67/36 84/66/34
f 86/68/37 84/66/34 85/67/36
f 89/69/38 88/70/38 87/53/38
f 90/54/38 87/53/38 88/70/38
f 93/71/39 92/72/39 91/73/40
f 94/74/41 91/73/40 92/72/39
f 91/73/40 94/74/41 95/75/42
f 96/76/43 95/75/42 94/74/41
f 95/75/42 96/76/43 97/77/44
f 98/78/12 97/77/44 96/76/43
f 97/77/44 98/78/12 99/79/45
f 100/80/45 99/79/45 98/78/12
f 100/80/45 101/81/15 99/79/45
f 102/82/46 99/79/45 101/81/15
f 101/81/15 103/83/47 102/82/46
f 104/84/48 102/82/46 103/83/47
f 103/83/47 105/85/49 104/84/48
f 106/86/50 104/84/48 105/85/49
f 105/85/49 107/87/51 106/86/50
f 108/88/51 106/86/50 107/87/51
f 110/89/52 83/90/53 109/91/54
f 110/89/52 109/91/54 111/92/55
f 110/89/52 111/92/55 112/93/56
f 113/94/57 110/89/52 112/93/56
f 110/89/52 113/94/57 114/95/58
f 115/96/59 114/95/58 113/94/57
f 119/80/60 118/97/61 168/98/62
f 152/99/63 119/80/60 168/98/62
f 174/100/64 170/101/65 118/97/61
f 116/102/66 174/100/64 118/97/61
f 122/103/67 121/104/68 123/105/69
f 124/106/70 123/105/69 121/104/68
f 129/53/71 128/55/71 127/54/71
f 130/56/71 127/54/71 128/55/71
f 130/56/71 128/55/71 131/57/72
f 132/58/73 131/57/72 128/55/71
f 131/57/72 132/58/73 133/59/74
f 134/60/7 133/59/74 132/58/73
f 133/59/74 134/60/7 135/61/75
f 136/62/76 135/61/75 134/60/7
f 136/62/76 137/63/77 135/61/75
f 138/64/78 135/61/75 137/63/77
f 138/64/78 137/63/77 126/65/79
f 139/66/80 126/65/79 137/63/77
f 126/65/79 139/66/80 124/67/81
f 140/68/81 124/67/81 139/66/80
f 143/54/82 142/70/82 141/53/82
f 144/69/82 141/53/82 142/70/82
f 126/107/83 146/108/84 145/109/85
f 145/109/85 146/108/84 147/110/86
f 147/110/86 146/108/84 148/111/87
f 146/108/84 149/112/88 148/111/87
f 146/108/84 150/113/89 149/112/88
f 151/114/90 149/112/88 150/113/89
f 173/115/91 174/100/92 116/102/93
f 172/116/94 173/115/91 116/102/93
f 117/117/95 172/116/94 116/102/93
f 171/118/96 117/119/96 85/120/97
f 85/121/36 117/117/98 86/122/37
f 116/102/99 86/122/37 117/117/98
f 156/123/100 124/124/101 121/125/100
f 121/104/102 122/103/103 157/126/104
f 157/126/104 122/103/103 158/127/105
f 158/127/105 122/103/103 159/128/106
f 122/103/103 120/129/107 159/128/106
f 159/128/106 120/129/107 155/130/108
f 152/99/63 153/131/109 119/80/60
f 119/80/60 153/131/109 120/129/107
f 153/131/109 155/130/108 120/129/107
f 156/123/100 165/132/110 124/124/101
f 124/124/101 165/132/110 126/107/111
f 164/133/112 126/107/111 165/132/110
f 126/107/111 164/133/112 146/108/113
f 164/133/112 163/134/114 146/108/115
f 163/134/114 161/135/116 146/108/115
f 146/108/115 161/135/116 125/136/117
f 161/135/116 162/137/118 125/136/117
f 166/138/119 125/136/117 162/137/118
f 167/139/120 125/136/117 166/138/119
f 125/136/117 167/139/120 152/140/121
f 167/139/120 160/141/122 152/140/121
f 160/141/122 154/142/123 152/140/121
f 153/143/124 152/140/121 154/142/123
f 168/98/62 118/97/61 170/101/65
f 171/118/96 85/120/97 180/144/125
f 85/120/97 83/90/126 180/144/125
f 179/145/127 180/144/125 83/90/126
f 83/90/126 110/89/128 179/145/127
f 179/145/127 110/89/128 178/146/129
f 178/146/129 110/89/128 176/147/130
f 110/89/128 125/136/117 176/147/130
f 176/147/130 125/136/117 177/148/131
f 181/149/132 177/148/131 125/136/117
f 182/150/133 181/149/132 125/136/117
f 125/136/117 152/140/121 182/150/133
f 182/150/133 152/140/121 175/151/134
f 175/151/134 152/140/121 169/152/135
f 168/153/136 169/152/135 152/140/121
f 185/154/45 184/155/45 183/156/45
f 186/157/45 183/156/45 184/155/45
f 187/154/45 228/158/45 190/155/45
f 201/159/8 233/160/8 234/161/8
f 193/162/137 192/163/137 191/164/137
f 194/165/137 191/164/137 192/163/137
f 197/159/7 196/166/7 195/167/7
f 198/168/7 195/167/7 196/166/7
f 201/159/8 200/167/8 199/166/8
f 202/168/8 199/166/8 200/167/8
f 205/169/7 204/170/7 203/171/7
f 206/172/7 203/171/7 204/170/7
f 209/173/3 208/174/3 207/175/3
f 210/176/3 207/175/3 208/174/3
f 213/172/8 212/170/8 211/171/8
f 214/177/8 211/171/8 212/170/8
f 217/178/63 216/179/63 215/180/63
f 217/178/63 218/181/63 216/179/63
f 219/182/63 215/180/63 216/179/63
f 220/183/63 216/179/63 218/181/63
f 219/182/63 221/184/63 215/180/63
f 218/181/63 222/185/63 220/183/63
f 222/185/63 215/180/63 221/184/63
f 221/184/63 220/183/63 222/185/63
f 227/164/3 226/165/3 225/186/3
f 228/187/3 225/186/3 226/165/3
f 197/159/7 231/160/7 196/166/7
f 189/159/7 225/160/7 187/166/7
f 194/188/63 229/189/63 191/190/63
f 185/154/45 223/158/45 184/155/45
f 188/159/8 228/160/8 226/161/8
f 188/188/63 227/189/63 189/190/63
f 237/172/8 236/170/8 235/191/8
f 238/169/8 235/191/8 236/170/8
f 241/192/3 240/193/3 239/194/3
f 242/195/3 239/194/3 240/193/3
f 245/177/7 244/170/7 243/171/7
f 246/172/7 243/171/7 244/170/7
f 249/196/63 248/197/63 247/198/63
f 249/196/63 247/198/63 250/199/63
f 251/200/63 247/198/63 248/197/63
f 252/201/63 250/199/63 247/198/63
f 251/200/63 248/197/63 253/202/63
f 250/199/63 252/201/63 254/203/63
f 253/202/63 254/203/63 252/201/63
f 254/203/63 253/202/63 248/197/63
f 257/172/8 256/170/8 255/191/8
f 258/169/8 255/191/8 256/170/8
f 261/204/3 260/205/3 259/206/3
f 262/207/3 259/206/3 260/205/3
f 265/177/7 264/170/7 263/171/7
f 266/172/7 263/171/7 264/170/7
f 269/208/63 268/209/63 267/210/63
f 269/208/63 267/210/63 270/211/63
f 271/212/63 267/210/63 268/209/63
f 272/213/63 270/211/63 267/210/63
f 271/212/63 268/209/63 273/214/63
f 270/211/63 272/213/63 274/215/63
f 273/214/63 274/215/63 272/213/63
f 274/215/63 273/214/63 268/209/63
f 340/216/138 277/217/138 275/218/138
f 339/219/139 279/220/139 277/217/139
f 341/221/140 281/222/140 279/220/140
f 342/223/141 283/224/141 281/222/141
f 343/225/142 285/226/142 283/227/142
f 344/228/143 287/229/143 285/226/143
f 345/230/144 289/231/144 287/229/144
f 346/232/145 291/233/145 289/231/145
f 347/234/146 293/235/146 291/233/146
f 348/236/147 295/237/147 293/235/147
f 349/238/148 297/239/148 295/237/148
f 350/240/149 299/241/149 297/239/149
f 351/242/150 301/222/150 299/224/150
f 352/223/151 303/220/151 301/222/151
f 353/221/152 305/217/152 303/220/152
f 354/219/153 307/218/153 305/217/153
f 355/216/154 309/243/154 307/218/154
f 309/243/155 357/244/155 311/245/155
f 357/244/156 313/246/156 311/245/156
f 358/247/157 315/248/157 313/246/157
f 359/249/158 317/239/158 315/241/158
f 360/240/159 319/237/159 317/239/159
f 361/238/160 321/235/160 319/237/160
f 362/236/161 323/233/161 321/235/161
f 363/234/162 325/231/162 323/233/162
f 364/232/163 327/229/163 325/231/163
f 365/230/164 329/226/164 327/229/164
f 366/228/165 331/227/165 329/226/165
f 367/250/166 333/246/166 331/248/166
f 368/247/167 335/245/167 333/246/167
f 298/251/149 415/252/149 300/253/149
f 369/244/168 337/243/168 335/245/168
f 370/254/169 275/218/169 337/243/169
f 305/255/6 321/256/6 337/257/6
f 276/258/3 339/259/3 340/260/3
f 278/261/3 341/262/3 339/259/3
f 280/263/3 342/264/3 341/262/3
f 282/265/3 343/266/3 342/264/3
f 284/267/3 344/268/3 343/266/3
f 288/269/3 344/268/3 286/270/3
f 290/271/3 345/272/3 288/269/3
f 290/271/3 347/273/3 346/274/3
f 294/275/3 347/273/3 292/276/3
f 294/275/3 349/277/3 348/278/3
f 296/279/3 350/280/3 349/277/3
f 298/281/3 351/282/3 350/280/3
f 302/283/3 351/282/3 300/284/3
f 304/285/3 352/286/3 302/283/3
f 306/287/3 353/288/3 304/285/3
f 306/287/3 355/289/3 354/255/3
f 310/290/3 355/289/3 308/291/3
f 312/292/3 356/293/3 310/290/3
f 314/294/3 357/295/3 312/292/3
f 316/296/3 358/297/3 314/294/3
f 318/298/3 359/299/3 316/296/3
f 320/300/3 360/301/3 318/298/3
f 322/302/3 361/303/3 320/300/3
f 324/304/3 362/256/3 322/302/3
f 324/304/3 364/305/3 363/306/3
f 326/307/3 365/308/3 364/305/3
f 328/309/3 366/310/3 365/308/3
f 330/311/3 367/312/3 366/310/3
f 334/313/3 367/312/3 332/314/3
f 334/313/3 369/315/3 368/316/3
f 336/317/3 370/257/3 369/315/3
f 338/318/3 340/260/3 370/257/3
f 395/319/146 460/320/146 396/321/146
f 326/322/163 429/323/163 328/324/163
f 300/325/150 416/326/150 302/327/150
f 328/324/164 430/328/164 330/329/164
f 302/327/151 417/330/151 304/331/151
f 276/216/138 403/332/138 278/333/138
f 330/329/165 431/334/165 332/335/165
f 304/331/152 418/332/152 306/333/152
f 278/333/139 405/330/139 280/331/139
f 332/336/166 432/337/166 334/338/166
f 308/216/153 418/332/153 419/339/153
f 280/331/140 406/326/140 282/327/140
f 334/338/167 433/340/167 336/341/167
f 308/216/154 420/342/154 310/343/154
f 282/327/141 407/344/141 284/325/141
f 336/341/168 434/342/168 338/343/168
f 310/343/155 421/340/155 312/341/155
f 284/335/142 408/328/142 286/329/142
f 338/343/169 404/339/169 276/216/169
f 312/341/156 422/337/156 314/338/156
f 286/329/143 409/323/143 288/324/143
f 314/338/157 423/345/157 316/336/157
f 288/324/144 410/346/144 290/322/144
f 316/253/158 424/347/158 318/251/158
f 290/322/145 411/319/145 292/234/145
f 318/251/159 425/348/159 320/349/159
f 292/234/146 412/350/146 294/351/146
f 320/349/160 426/350/160 322/351/160
f 294/351/147 413/348/147 296/349/147
f 322/351/161 427/319/161 324/234/161
f 296/349/148 414/347/148 298/251/148
f 324/234/162 428/346/162 326/322/162
f 371/352/3 404/258/3 372/353/3
f 373/354/3 403/261/3 371/352/3
f 374/355/3 405/263/3 373/354/3
f 375/356/3 406/265/3 374/355/3
f 375/356/3 408/270/3 407/267/3
f 376/357/3 409/269/3 408/270/3
f 377/358/3 410/271/3 409/269/3
f 378/359/3 411/276/3 410/271/3
f 380/360/3 411/276/3 379/361/3
f 381/362/3 412/275/3 380/360/3
f 382/363/3 413/279/3 381/362/3
f 383/364/3 414/281/3 382/363/3
f 384/365/3 415/284/3 383/364/3
f 385/366/3 416/283/3 384/365/3
f 385/366/3 418/287/3 417/285/3
f 386/367/3 419/291/3 418/287/3
f 388/368/3 419/291/3 387/369/3
f 389/370/3 420/290/3 388/368/3
f 390/371/3 421/292/3 389/370/3
f 391/372/3 422/294/3 390/371/3
f 391/372/3 424/298/3 423/296/3
f 392/373/3 425/300/3 424/298/3
f 393/374/3 426/302/3 425/300/3
f 394/375/3 427/304/3 426/302/3
f 396/376/3 427/304/3 395/377/3
f 397/378/3 428/307/3 396/376/3
f 398/379/3 429/309/3 397/378/3
f 399/380/3 430/311/3 398/379/3
f 399/380/3 432/313/3 431/314/3
f 400/381/3 433/317/3 432/313/3
f 401/382/3 434/318/3 433/317/3
f 402/383/3 404/258/3 434/318/3
f 453/370/3 445/362/3 437/354/3
f 382/384/165 447/385/165 383/386/165
f 396/321/147 461/387/147 397/388/147
f 383/389/166 448/390/166 384/391/166
f 397/388/148 462/392/148 398/393/148
f 384/391/167 449/394/167 385/395/167
f 372/339/154 435/396/154 371/397/154
f 398/393/149 463/398/149 399/399/149
f 385/395/168 450/396/168 386/397/168
f 371/397/155 437/394/155 373/395/155
f 399/400/150 464/401/150 400/402/150
f 386/397/169 451/216/169 387/339/169
f 373/395/156 438/390/156 374/391/156
f 400/402/151 465/403/151 401/404/151
f 387/339/138 452/405/138 388/406/138
f 374/391/157 439/407/157 375/389/157
f 401/404/152 466/405/152 402/406/152
f 388/406/139 453/403/139 389/404/139
f 375/399/158 440/392/158 376/393/158
f 402/406/153 436/216/153 372/339/153
f 389/404/140 454/401/140 390/402/140
f 376/393/159 441/387/159 377/388/159
f 390/402/141 455/408/141 391/400/141
f 377/388/160 442/320/160 378/321/160
f 391/386/142 456/409/142 392/384/142
f 378/321/161 443/234/161 379/319/161
f 392/384/143 457/410/143 393/411/143
f 379/319/162 444/412/162 380/413/162
f 393/411/144 458/412/144 394/413/144
f 380/413/163 445/410/163 381/411/163
f 394/413/145 459/234/145 395/319/145
f 381/411/164 446/409/164 382/384/164
f 532/414/138 469/415/138 467/416/138
f 531/417/139 471/418/139 469/415/139
f 533/419/140 473/420/140 471/418/140
f 534/421/141 475/422/141 473/420/141
f 535/225/142 477/226/142 475/227/142
f 536/228/143 479/229/143 477/226/143
f 537/230/144 481/231/144 479/229/144
f 538/232/145 483/233/145 481/231/145
f 539/234/146 485/235/146 483/233/146
f 540/236/147 487/237/147 485/235/147
f 541/238/148 489/239/148 487/237/148
f 542/240/149 491/241/149 489/239/149
f 543/423/150 493/420/150 491/422/150
f 544/421/151 495/418/151 493/420/151
f 545/419/152 497/415/152 495/418/152
f 546/417/153 499/416/153 497/415/153
f 547/414/154 501/424/154 499/416/154
f 501/424/155 549/425/155 503/426/155
f 549/425/156 505/427/156 503/426/156
f 550/428/157 507/429/157 505/427/157
f 551/249/158 509/239/158 507/241/158
f 552/240/159 511/237/159 509/239/159
f 553/238/160 513/235/160 511/237/160
f 554/236/161 515/233/161 513/235/161
f 555/234/162 517/231/162 515/233/162
f 556/232/163 519/229/163 517/231/163
f 557/230/164 521/226/164 519/229/164
f 558/228/165 523/227/165 521/226/165
f 559/430/166 525/427/166 523/429/166
f 560/428/167 527/426/167 525/427/167
f 490/251/149 607/252/149 492/253/149
f 561/425/168 529/424/168 527/426/168
f 562/431/169 467/416/169 529/424/169
f 497/432/6 513/433/6 529/434/6
f 468/435/3 531/436/3 532/437/3
f 470/438/3 533/439/3 531/436/3
f 472/440/3 534/441/3 533/439/3
f 474/442/3 535/443/3 534/441/3
f 478/444/3 535/443/3 476/445/3
f 480/446/3 536/447/3 478/444/3
f 482/448/3 537/449/3 480/446/3
f 482/448/3 539/450/3 538/451/3
f 486/452/3 539/450/3 484/453/3
f 486/452/3 541/454/3 540/455/3
f 488/456/3 542/457/3 541/454/3
f 490/458/3 543/459/3 542/457/3
f 494/460/3 543/459/3 492/461/3
f 496/462/3 544/463/3 494/460/3
f 498/464/3 545/465/3 496/462/3
f 498/464/3 547/466/3 546/432/3
f 502/467/3 547/466/3 500/468/3
f 502/467/3 549/469/3 548/470/3
f 504/471/3 550/472/3 549/469/3
f 506/473/3 551/474/3 550/472/3
f 510/475/3 551/474/3 508/476/3
f 512/477/3 552/478/3 510/475/3
f 514/479/3 553/480/3 512/477/3
f 514/479/3 555/481/3 554/433/3
f 518/482/3 555/481/3 516/483/3
f 518/482/3 557/484/3 556/485/3
f 520/486/3 558/487/3 557/484/3
f 522/488/3 559/489/3 558/487/3
f 526/490/3 559/489/3 524/491/3
f 528/492/3 560/493/3 526/490/3
f 530/494/3 561/495/3 528/492/3
f 468/435/3 562/434/3 530/494/3
f 587/319/146 652/320/146 588/321/146
f 518/322/163 621/323/163 520/324/163
f 492/496/150 608/497/150 494/498/150
f 520/324/164 622/328/164 522/329/164
f 494/498/151 609/499/151 496/500/151
f 468/414/138 595/501/138 470/502/138
f 522/329/165 623/334/165 524/335/165
f 496/500/152 610/501/152 498/502/152
f 470/502/139 597/499/139 472/500/139
f 524/503/166 624/504/166 526/505/166
f 500/414/153 610/501/153 611/506/153
f 472/500/140 598/497/140 474/498/140
f 526/505/167 625/507/167 528/508/167
f 500/414/154 612/509/154 502/510/154
f 474/498/141 599/511/141 476/496/141
f 528/508/168 626/509/168 530/510/168
f 502/510/155 613/507/155 504/508/155
f 476/335/142 600/328/142 478/329/142
f 530/510/169 596/506/169 468/414/169
f 504/508/156 614/504/156 506/505/156
f 478/329/143 601/323/143 480/324/143
f 506/505/157 615/512/157 508/503/157
f 480/324/144 602/346/144 482/322/144
f 508/253/158 616/347/158 510/251/158
f 482/322/145 603/319/145 484/234/145
f 510/251/159 617/348/159 512/349/159
f 484/234/146 604/350/146 486/351/146
f 512/349/160 618/350/160 514/351/160
f 486/351/147 605/348/147 488/349/147
f 514/351/161 619/319/161 516/234/161
f 488/349/148 606/347/148 490/251/148
f 516/234/162 620/346/162 518/322/162
f 563/513/3 596/435/3 564/514/3
f 565/515/3 595/438/3 563/513/3
f 566/516/3 597/440/3 565/515/3
f 566/516/3 599/445/3 598/442/3
f 567/517/3 600/444/3 599/445/3
f 568/518/3 601/446/3 600/444/3
f 569/519/3 602/448/3 601/446/3
f 570/520/3 603/453/3 602/448/3
f 572/521/3 603/453/3 571/522/3
f 573/523/3 604/452/3 572/521/3
f 574/524/3 605/456/3 573/523/3
f 575/525/3 606/458/3 574/524/3
f 576/526/3 607/461/3 575/525/3
f 577/527/3 608/460/3 576/526/3
f 577/527/3 610/464/3 609/462/3
f 578/528/3 611/468/3 610/464/3
f 580/529/3 611/468/3 579/530/3
f 581/531/3 612/467/3 580/529/3
f 582/532/3 613/471/3 581/531/3
f 583/533/3 614/473/3 582/532/3
f 583/533/3 616/475/3 615/476/3
f 584/534/3 617/477/3 616/475/3
f 585/535/3 618/479/3 617/477/3
f 586/536/3 619/483/3 618/479/3
f 588/537/3 619/483/3 587/538/3
f 589/539/3 620/482/3 588/537/3
f 590/540/3 621/486/3 589/539/3
f 591/541/3 622/488/3 590/540/3
f 591/541/3 624/490/3 623/491/3
f 592/542/3 625/492/3 624/490/3
f 593/543/3 626/494/3 625/492/3
f 594/544/3 596/435/3 626/494/3
f 645/531/3 637/523/3 629/515/3
f 574/384/165 639/385/165 575/386/165
f 588/321/147 653/387/147 589/388/147
f 575/545/166 640/546/166 576/547/166
f 589/388/148 654/392/148 590/393/148
f 576/547/167 641/548/167 577/549/167
f 564/506/154 627/550/154 563/551/154
f 590/393/149 655/398/149 591/399/149
f 577/549/168 642/550/168 578/551/168
f 563/551/155 629/548/155 565/549/155
f 591/552/150 656/553/150 592/554/150
f 578/551/169 643/414/169 579/506/169
f 565/549/156 630/546/156 566/547/156
f 592/554/151 657/555/151 593/556/151
f 579/506/138 644/557/138 580/558/138
f 566/547/157 631/559/157 567/545/157
f 593/556/152 658/557/152 594/558/152
f 580/558/139 645/555/139 581/556/139
f 567/399/158 632/392/158 568/393/158
f 594/558/153 628/414/153 564/506/153
f 581/556/140 646/553/140 582/554/140
f 568/393/159 633/387/159 569/388/159
f 582/554/141 647/560/141 583/552/141
f 569/388/160 634/320/160 570/321/160
f 583/386/142 648/409/142 584/384/142
f 570/321/161 635/234/161 571/319/161
f 584/384/143 649/410/143 585/411/143
f 571/319/162 636/412/162 572/413/162
f 585/411/144 650/412/144 586/413/144
f 572/413/163 637/410/163 573/411/163
f 586/413/145 651/234/145 587/319/145
f 573/411/164 638/409/164 574/384/164
f 724/561/138 661/562/138 659/563/138
f 723/564/139 663/565/139 661/562/139
f 725/566/140 665/567/140 663/565/140
f 726/568/141 667/569/141 665/567/141
f 727/225/142 669/226/142 667/227/142
f 728/228/143 671/229/143 669/226/143
f 729/230/144 673/231/144 671/229/144
f 730/232/145 675/233/145 673/231/145
f 731/234/146 677/235/146 675/233/146
f 732/236/147 679/237/147 677/235/147
f 733/238/148 681/239/148 679/237/148
f 734/240/149 683/241/149 681/239/149
f 735/570/150 685/567/150 683/569/150
f 736/568/151 687/565/151 685/567/151
f 737/566/152 689/562/152 687/565/152
f 738/564/153 691/563/153 689/562/153
f 739/561/154 693/571/154 691/563/154
f 693/571/155 741/572/155 695/573/155
f 741/572/156 697/574/156 695/573/156
f 742/575/157 699/576/157 697/574/157
f 743/249/158 701/239/158 699/241/158
f 744/240/159 703/237/159 701/239/159
f 745/238/160 705/235/160 703/237/160
f 746/236/161 707/233/161 705/235/161
f 747/234/162 709/231/162 707/233/162
f 748/232/163 711/229/163 709/231/163
f 749/230/164 713/226/164 711/229/164
f 750/228/165 715/227/165 713/226/165
f 751/577/166 717/574/166 715/576/166
f 752/575/167 719/573/167 717/574/167
f 682/251/149 799/252/149 684/253/149
f 753/572/168 721/571/168 719/573/168
f 754/578/169 659/563/169 721/571/169
f 689/579/6 705/580/6 721/581/6
f 660/582/3 723/583/3 724/584/3
f 662/585/3 725/586/3 723/583/3
f 666/587/3 725/586/3 664/588/3
f 666/587/3 727/589/3 726/590/3
f 668/591/3 728/592/3 727/589/3
f 672/593/3 728/592/3 670/594/3
f 674/595/3 729/596/3 672/593/3
f 676/597/3 730/598/3 674/595/3
f 676/597/3 732/599/3 731/600/3
f 678/601/3 733/602/3 732/599/3
f 680/603/3 734/604/3 733/602/3
f 682/605/3 735/606/3 734/604/3
f 686/607/3 735/606/3 684/608/3
f 686/607/3 737/609/3 736/610/3
f 690/611/3 737/609/3 688/612/3
f 690/611/3 739/613/3 738/579/3
f 694/614/3 739/613/3 692/615/3
f 694/614/3 741/616/3 740/617/3
f 698/618/3 741/616/3 696/619/3
f 698/618/3 743/620/3 742/621/3
f 702/622/3 743/620/3 700/623/3
f 704/624/3 744/625/3 702/622/3
f 704/624/3 746/580/3 745/626/3
f 708/627/3 746/580/3 706/628/3
f 708/627/3 748/629/3 747/630/3
f 712/631/3 748/629/3 710/632/3
f 712/631/3 750/633/3 749/634/3
f 716/635/3 750/633/3 714/636/3
f 718/637/3 751/638/3 716/635/3
f 718/637/3 753/639/3 752/640/3
f 722/641/3 753/639/3 720/642/3
f 660/582/3 754/581/3 722/641/3
f 779/319/146 844/320/146 780/321/146
f 710/322/163 813/323/163 712/324/163
f 684/643/150 800/644/150 686/645/150
f 712/324/164 814/328/164 714/329/164
f 686/645/151 801/646/151 688/647/151
f 660/561/138 787/648/138 662/649/138
f 714/329/165 815/334/165 716/335/165
f 688/647/152 802/648/152 690/649/152
f 662/649/139 789/646/139 664/647/139
f 716/650/166 816/651/166 718/652/166
f 692/561/153 802/648/153 803/653/153
f 664/647/140 790/644/140 666/645/140
f 718/652/167 817/654/167 720/655/167
f 692/561/154 804/656/154 694/657/154
f 666/645/141 791/658/141 668/643/141
f 720/655/168 818/656/168 722/657/168
f 694/657/155 805/654/155 696/655/155
f 668/335/142 792/328/142 670/329/142
f 722/657/169 788/653/169 660/561/169
f 696/655/156 806/651/156 698/652/156
f 670/329/143 793/323/143 672/324/143
f 698/652/157 807/659/157 700/650/157
f 672/324/144 794/346/144 674/322/144
f 700/253/158 808/347/158 702/251/158
f 674/322/145 795/319/145 676/234/145
f 702/251/159 809/348/159 704/349/159
f 676/234/146 796/350/146 678/351/146
f 704/349/160 810/350/160 706/351/160
f 678/351/147 797/348/147 680/349/147
f 706/351/161 811/319/161 708/234/161
f 680/349/148 798/347/148 682/251/148
f 708/234/162 812/346/162 710/322/162
f 755/660/3 788/582/3 756/661/3
f 755/660/3 789/588/3 787/585/3
f 757/662/3 790/587/3 789/588/3
f 759/663/3 790/587/3 758/664/3
f 759/663/3 792/594/3 791/591/3
f 760/665/3 793/593/3 792/594/3
f 761/666/3 794/595/3 793/593/3
f 763/667/3 794/595/3 762/668/3
f 763/667/3 796/601/3 795/597/3
f 765/669/3 796/601/3 764/670/3
f 766/671/3 797/603/3 765/669/3
f 767/672/3 798/605/3 766/671/3
f 768/673/3 799/608/3 767/672/3
f 769/674/3 800/607/3 768/673/3
f 770/675/3 801/612/3 769/674/3
f 770/675/3 803/615/3 802/611/3
f 772/676/3 803/615/3 771/677/3
f 772/676/3 805/619/3 804/614/3
f 773/678/3 806/618/3 805/619/3
f 774/679/3 807/623/3 806/618/3
f 775/680/3 808/622/3 807/623/3
f 776/681/3 809/624/3 808/622/3
f 777/682/3 810/628/3 809/624/3
f 778/683/3 811/627/3 810/628/3
f 780/684/3 811/627/3 779/685/3
f 781/686/3 812/632/3 780/684/3
f 782/687/3 813/631/3 781/686/3
f 783/688/3 814/636/3 782/687/3
f 783/688/3 816/637/3 815/635/3
f 785/689/3 816/637/3 784/690/3
f 786/691/3 817/642/3 785/689/3
f 786/691/3 788/582/3 818/641/3
f 837/678/3 829/669/3 821/662/3
f 766/384/165 831/385/165 767/386/165
f 780/321/147 845/387/147 781/388/147
f 767/692/166 832/693/166 768/694/166
f 781/388/148 846/392/148 782/393/148
f 768/694/167 833/695/167 769/696/167
f 756/653/154 819/697/154 755/698/154
f 782/393/149 847/398/149 783/399/149
f 769/696/168 834/697/168 770/698/168
f 755/698/155 821/695/155 757/696/155
f 783/699/150 848/700/150 784/701/150
f 770/698/169 835/561/169 771/653/169
f 757/696/156 822/693/156 758/694/156
f 784/701/151 849/702/151 785/703/151
f 771/653/138 836/704/138 772/705/138
f 758/694/157 823/706/157 759/692/157
f 785/703/152 850/704/152 786/705/152
f 772/705/139 837/702/139 773/703/139
f 759/399/158 824/392/158 760/393/158
f 786/705/153 820/561/153 756/653/153
f 773/703/140 838/700/140 774/701/140
f 760/393/159 825/387/159 761/388/159
f 774/701/141 839/707/141 775/699/141
f 761/388/160 826/320/160 762/321/160
f 775/386/142 840/409/142 776/384/142
f 762/321/161 827/234/161 763/319/161
f 776/384/143 841/410/143 777/411/143
f 763/319/162 828/412/162 764/413/162
f 777/411/144 842/412/144 778/413/144
f 764/413/163 829/410/163 765/411/163
f 778/413/145 843/234/145 779/319/145
f 765/411/164 830/409/164 766/384/164
f 187/154/45 225/189/45 228/158/45
f 201/159/8 199/166/8 233/160/8
f 197/159/7 232/161/7 231/160/7
f 189/159/7 227/161/7 225/160/7
f 194/188/63 230/158/63 229/189/63
f 185/154/45 224/189/45 223/158/45
f 188/159/8 190/166/8 228/160/8
f 188/188/63 226/158/63 227/189/63
f 340/216/138 339/219/138 277/217/138
f 339/219/139 341/221/139 279/220/139
f 341/221/140 342/223/140 281/222/140
f 342/223/141 343/242/141 283/224/141
f 343/225/142 344/228/142 285/226/142
f 344/228/143 345/230/143 287/229/143
f 345/230/144 346/232/144 289/231/144
f 346/232/145 347/234/145 291/233/145
f 347/234/146 348/236/146 293/235/146
f 348/236/147 349/238/147 295/237/147
f 349/238/148 350/240/148 297/239/148
f 350/240/149 351/249/149 299/241/149
f 351/242/150 352/223/150 301/222/150
f 352/223/151 353/221/151 303/220/151
f 353/221/152 354/219/152 305/217/152
f 354/219/153 355/216/153 307/218/153
f 355/216/154 356/254/154 309/243/154
f 309/243/155 356/254/155 357/244/155
f 357/244/156 358/247/156 313/246/156
f 358/247/157 359/250/157 315/248/157
f 359/249/158 360/240/158 317/239/158
f 360/240/159 361/238/159 319/237/159
f 361/238/160 362/236/160 321/235/160
f 362/236/161 363/234/161 323/233/161
f 363/234/162 364/232/162 325/231/162
f 364/232/163 365/230/163 327/229/163
f 365/230/164 366/228/164 329/226/164
f 366/228/165 367/225/165 331/227/165
f 367/250/166 368/247/166 333/246/166
f 368/247/167 369/244/167 335/245/167
f 298/251/149 414/347/149 415/252/149
f 369/244/168 370/254/168 337/243/168
f 370/254/169 340/216/169 275/218/169
f 337/257/6 275/260/6 277/259/6
f 277/259/6 279/262/6 281/264/6
f 281/264/6 283/266/6 285/268/6
f 285/268/6 287/272/6 289/274/6
f 289/274/6 291/273/6 293/278/6
f 293/278/6 295/277/6 297/280/6
f 297/280/6 299/282/6 301/286/6
f 301/286/6 303/288/6 305/255/6
f 305/255/6 307/289/6 309/293/6
f 309/293/6 311/295/6 313/297/6
f 313/297/6 315/299/6 317/301/6
f 317/301/6 319/303/6 321/256/6
f 321/256/6 323/306/6 325/305/6
f 325/305/6 327/308/6 329/310/6
f 329/310/6 331/312/6 333/316/6
f 333/316/6 335/315/6 337/257/6
f 337/257/6 277/259/6 281/264/6
f 281/264/6 285/268/6 289/274/6
f 289/274/6 293/278/6 297/280/6
f 297/280/6 301/286/6 305/255/6
f 305/255/6 309/293/6 313/297/6
f 313/297/6 317/301/6 321/256/6
f 321/256/6 325/305/6 329/310/6
f 329/310/6 333/316/6 337/257/6
f 337/257/6 281/264/6 289/274/6
f 289/274/6 297/280/6 305/255/6
f 305/255/6 313/297/6 321/256/6
f 321/256/6 329/310/6 337/257/6
f 337/257/6 289/274/6 305/255/6
f 276/258/3 278/261/3 339/259/3
f 278/261/3 280/263/3 341/262/3
f 280/263/3 282/265/3 342/264/3
f 282/265/3 284/267/3 343/266/3
f 284/267/3 286/270/3 344/268/3
f 288/269/3 345/272/3 344/268/3
f 290/271/3 346/274/3 345/272/3
f 290/271/3 292/276/3 347/273/3
f 294/275/3 348/278/3 347/273/3
f 294/275/3 296/279/3 349/277/3
f 296/279/3 298/281/3 350/280/3
f 298/281/3 300/284/3 351/282/3
f 302/283/3 352/286/3 351/282/3
f 304/285/3 353/288/3 352/286/3
f 306/287/3 354/255/3 353/288/3
f 306/287/3 308/291/3 355/289/3
f 310/290/3 356/293/3 355/289/3
f 312/292/3 357/295/3 356/293/3
f 314/294/3 358/297/3 357/295/3
f 316/296/3 359/299/3 358/297/3
f 318/298/3 360/301/3 359/299/3
f 320/300/3 361/303/3 360/301/3
f 322/302/3 362/256/3 361/303/3
f 324/304/3 363/306/3 362/256/3
f 324/304/3 326/307/3 364/305/3
f 326/307/3 328/309/3 365/308/3
f 328/309/3 330/311/3 366/310/3
f 330/311/3 332/314/3 367/312/3
f 334/313/3 368/316/3 367/312/3
f 334/313/3 336/317/3 369/315/3
f 336/317/3 338/318/3 370/257/3
f 338/318/3 276/258/3 340/260/3
f 395/319/146 459/234/146 460/320/146
f 326/322/163 428/346/163 429/323/163
f 300/325/150 415/344/150 416/326/150
f 328/324/164 429/323/164 430/328/164
f 302/327/151 416/326/151 417/330/151
f 276/216/138 404/339/138 403/332/138
f 330/329/165 430/328/165 431/334/165
f 304/331/152 417/330/152 418/332/152
f 278/333/139 403/332/139 405/330/139
f 332/336/166 431/345/166 432/337/166
f 308/216/153 306/333/153 418/332/153
f 280/331/140 405/330/140 406/326/140
f 334/338/167 432/337/167 433/340/167
f 308/216/154 419/339/154 420/342/154
f 282/327/141 406/326/141 407/344/141
f 336/341/168 433/340/168 434/342/168
f 310/343/155 420/342/155 421/340/155
f 284/335/142 407/334/142 408/328/142
f 338/343/169 434/342/169 404/339/169
f 312/341/156 421/340/156 422/337/156
f 286/329/143 408/328/143 409/323/143
f 314/338/157 422/337/157 423/345/157
f 288/324/144 409/323/144 410/346/144
f 316/253/158 423/252/158 424/347/158
f 290/322/145 410/346/145 411/319/145
f 318/251/159 424/347/159 425/348/159
f 292/234/146 411/319/146 412/350/146
f 320/349/160 425/348/160 426/350/160
f 294/351/147 412/350/147 413/348/147
f 322/351/161 426/350/161 427/319/161
f 296/349/148 413/348/148 414/347/148
f 324/234/162 427/319/162 428/346/162
f 371/352/3 403/261/3 404/258/3
f 373/354/3 405/263/3 403/261/3
f 374/355/3 406/265/3 405/263/3
f 375/356/3 407/267/3 406/265/3
f 375/356/3 376/357/3 408/270/3
f 376/357/3 377/358/3 409/269/3
f 377/358/3 378/359/3 410/271/3
f 378/359/3 379/361/3 411/276/3
f 380/360/3 412/275/3 411/276/3
f 381/362/3 413/279/3 412/275/3
f 382/363/3 414/281/3 413/279/3
f 383/364/3 415/284/3 414/281/3
f 384/365/3 416/283/3 415/284/3
f 385/366/3 417/285/3 416/283/3
f 385/366/3 386/367/3 418/287/3
f 386/367/3 387/369/3 419/291/3
f 388/368/3 420/290/3 419/291/3
f 389/370/3 421/292/3 420/290/3
f 390/371/3 422/294/3 421/292/3
f 391/372/3 423/296/3 422/294/3
f 391/372/3 392/373/3 424/298/3
f 392/373/3 393/374/3 425/300/3
f 393/374/3 394/375/3 426/302/3
f 394/375/3 395/377/3 427/304/3
f 396/376/3 428/307/3 427/304/3
f 397/378/3 429/309/3 428/307/3
f 398/379/3 430/311/3 429/309/3
f 399/380/3 431/314/3 430/311/3
f 399/380/3 400/381/3 432/313/3
f 400/381/3 401/382/3 433/317/3
f 401/382/3 402/383/3 434/318/3
f 402/383/3 372/353/3 404/258/3
f 437/354/3 435/352/3 436/353/3
f 436/353/3 466/383/3 465/382/3
f 465/382/3 464/381/3 463/380/3
f 463/380/3 462/379/3 461/378/3
f 461/378/3 460/376/3 459/377/3
f 459/377/3 458/375/3 457/374/3
f 457/374/3 456/373/3 455/372/3
f 455/372/3 454/371/3 453/370/3
f 453/370/3 452/368/3 451/369/3
f 451/369/3 450/367/3 449/366/3
f 449/366/3 448/365/3 447/364/3
f 447/364/3 446/363/3 445/362/3
f 445/362/3 444/360/3 443/361/3
f 443/361/3 442/359/3 441/358/3
f 441/358/3 440/357/3 439/356/3
f 439/356/3 438/355/3 437/354/3
f 437/354/3 436/353/3 465/382/3
f 465/382/3 463/380/3 461/378/3
f 461/378/3 459/377/3 457/374/3
f 457/374/3 455/372/3 453/370/3
f 453/370/3 451/369/3 449/366/3
f 449/366/3 447/364/3 445/362/3
f 445/362/3 443/361/3 441/358/3
f 441/358/3 439/356/3 437/354/3
f 437/354/3 465/382/3 461/378/3
f 461/378/3 457/374/3 453/370/3
f 453/370/3 449/366/3 445/362/3
f 445/362/3 441/358/3 437/354/3
f 437/354/3 461/378/3 453/370/3
f 382/384/165 446/409/165 447/385/165
f 396/321/147 460/320/147 461/387/147
f 383/389/166 447/407/166 448/390/166
f 397/388/148 461/387/148 462/392/148
f 384/391/167 448/390/167 449/394/167
f 372/339/154 436/216/154 435/396/154
f 398/393/149 462/392/149 463/398/149
f 385/395/168 449/394/168 450/396/168
f 371/397/155 435/396/155 437/394/155
f 399/400/150 463/408/150 464/401/150
f 386/397/169 450/396/169 451/216/169
f 373/395/156 437/394/156 438/390/156
f 400/402/151 464/401/151 465/403/151
f 387/339/138 451/216/138 452/405/138
f 374/391/157 438/390/157 439/407/157
f 401/404/152 465/403/152 466/405/152
f 388/406/139 452/405/139 453/403/139
f 375/399/158 439/398/158 440/392/158
f 402/406/153 466/405/153 436/216/153
f 389/404/140 453/403/140 454/401/140
f 376/393/159 440/392/159 441/387/159
f 390/402/141 454/401/141 455/408/141
f 377/388/160 441/387/160 442/320/160
f 391/386/142 455/385/142 456/409/142
f 378/321/161 442/320/161 443/234/161
f 392/384/143 456/409/143 457/410/143
f 379/319/162 443/234/162 444/412/162
f 393/411/144 457/410/144 458/412/144
f 380/413/163 444/412/163 445/410/163
f 394/413/145 458/412/145 459/234/145
f 381/411/164 445/410/164 446/409/164
f 532/414/138 531/417/138 469/415/138
f 531/417/139 533/419/139 471/418/139
f 533/419/140 534/421/140 473/420/140
f 534/421/141 535/423/141 475/422/141
f 535/225/142 536/228/142 477/226/142
f 536/228/143 537/230/143 479/229/143
f 537/230/144 538/232/144 481/231/144
f 538/232/145 539/234/145 483/233/145
f 539/234/146 540/236/146 485/235/146
f 540/236/147 541/238/147 487/237/147
f 541/238/148 542/240/148 489/239/148
f 542/240/149 543/249/149 491/241/149
f 543/423/150 544/421/150 493/420/150
f 544/421/151 545/419/151 495/418/151
f 545/419/152 546/417/152 497/415/152
f 546/417/153 547/414/153 499/416/153
f 547/414/154 548/431/154 501/424/154
f 501/424/155 548/431/155 549/425/155
f 549/425/156 550/428/156 505/427/156
f 550/428/157 551/430/157 507/429/157
f 551/249/158 552/240/158 509/239/158
f 552/240/159 553/238/159 511/237/159
f 553/238/160 554/236/160 513/235/160
f 554/236/161 555/234/161 515/233/161
f 555/234/162 556/232/162 517/231/162
f 556/232/163 557/230/163 519/229/163
f 557/230/164 558/228/164 521/226/164
f 558/228/165 559/225/165 523/227/165
f 559/430/166 560/428/166 525/427/166
f 560/428/167 561/425/167 527/426/167
f 490/251/149 606/347/149 607/252/149
f 561/425/168 562/431/168 529/424/168
f 562/431/169 532/414/169 467/416/169
f 529/434/6 467/437/6 469/436/6
f 469/436/6 471/439/6 473/441/6
f 473/441/6 475/443/6 477/447/6
f 477/447/6 479/449/6 481/451/6
f 481/451/6 483/450/6 485/455/6
f 485/455/6 487/454/6 489/457/6
f 489/457/6 491/459/6 493/463/6
f 493/463/6 495/465/6 497/432/6
f 497/432/6 499/466/6 501/470/6
f 501/470/6 503/469/6 505/472/6
f 505/472/6 507/474/6 509/478/6
f 509/478/6 511/480/6 513/433/6
f 513/433/6 515/481/6 517/485/6
f 517/485/6 519/484/6 521/487/6
f 521/487/6 523/489/6 525/493/6
f 525/493/6 527/495/6 529/434/6
f 529/434/6 469/436/6 473/441/6
f 473/441/6 477/447/6 481/451/6
f 481/451/6 485/455/6 489/457/6
f 489/457/6 493/463/6 497/432/6
f 497/432/6 501/470/6 505/472/6
f 505/472/6 509/478/6 513/433/6
f 513/433/6 517/485/6 521/487/6
f 521/487/6 525/493/6 529/434/6
f 529/434/6 473/441/6 481/451/6
f 481/451/6 489/457/6 497/432/6
f 497/432/6 505/472/6 513/433/6
f 513/433/6 521/487/6 529/434/6
f 529/434/6 481/451/6 497/432/6
f 468/435/3 470/438/3 531/436/3
f 470/438/3 472/440/3 533/439/3
f 472/440/3 474/442/3 534/441/3
f 474/442/3 476/445/3 535/443/3
f 478/444/3 536/447/3 535/443/3
f 480/446/3 537/449/3 536/447/3
f 482/448/3 538/451/3 537/449/3
f 482/448/3 484/453/3 539/450/3
f 486/452/3 540/455/3 539/450/3
f 486/452/3 488/456/3 541/454/3
f 488/456/3 490/458/3 542/457/3
f 490/458/3 492/461/3 543/459/3
f 494/460/3 544/463/3 543/459/3
f 496/462/3 545/465/3 544/463/3
f 498/464/3 546/432/3 545/465/3
f 498/464/3 500/468/3 547/466/3
f 502/467/3 548/470/3 547/466/3
f 502/467/3 504/471/3 549/469/3
f 504/471/3 506/473/3 550/472/3
f 506/473/3 508/476/3 551/474/3
f 510/475/3 552/478/3 551/474/3
f 512/477/3 553/480/3 552/478/3
f 514/479/3 554/433/3 553/480/3
f 514/479/3 516/483/3 555/481/3
f 518/482/3 556/485/3 555/481/3
f 518/482/3 520/486/3 557/484/3
f 520/486/3 522/488/3 558/487/3
f 522/488/3 524/491/3 559/489/3
f 526/490/3 560/493/3 559/489/3
f 528/492/3 561/495/3 560/493/3
f 530/494/3 562/434/3 561/495/3
f 468/435/3 532/437/3 562/434/3
f 587/319/146 651/234/146 652/320/146
f 518/322/163 620/346/163 621/323/163
f 492/496/150 607/511/150 608/497/150
f 520/324/164 621/323/164 622/328/164
f 494/498/151 608/497/151 609/499/151
f 468/414/138 596/506/138 595/501/138
f 522/329/165 622/328/165 623/334/165
f 496/500/152 609/499/152 610/501/152
f 470/502/139 595/501/139 597/499/139
f 524/503/166 623/512/166 624/504/166
f 500/414/153 498/502/153 610/501/153
f 472/500/140 597/499/140 598/497/140
f 526/505/167 624/504/167 625/507/167
f 500/414/154 611/506/154 612/509/154
f 474/498/141 598/497/141 599/511/141
f 528/508/168 625/507/168 626/509/168
f 502/510/155 612/509/155 613/507/155
f 476/335/142 599/334/142 600/328/142
f 530/510/169 626/509/169 596/506/169
f 504/508/156 613/507/156 614/504/156
f 478/329/143 600/328/143 601/323/143
f 506/505/157 614/504/157 615/512/157
f 480/324/144 601/323/144 602/346/144
f 508/253/158 615/252/158 616/347/158
f 482/322/145 602/346/145 603/319/145
f 510/251/159 616/347/159 617/348/159
f 484/234/146 603/319/146 604/350/146
f 512/349/160 617/348/160 618/350/160
f 486/351/147 604/350/147 605/348/147
f 514/351/161 618/350/161 619/319/161
f 488/349/148 605/348/148 606/347/148
f 516/234/162 619/319/162 620/346/162
f 563/513/3 595/438/3 596/435/3
f 565/515/3 597/440/3 595/438/3
f 566/516/3 598/442/3 597/440/3
f 566/516/3 567/517/3 599/445/3
f 567/517/3 568/518/3 600/444/3
f 568/518/3 569/519/3 601/446/3
f 569/519/3 570/520/3 602/448/3
f 570/520/3 571/522/3 603/453/3
f 572/521/3 604/452/3 603/453/3
f 573/523/3 605/456/3 604/452/3
f 574/524/3 606/458/3 605/456/3
f 575/525/3 607/461/3 606/458/3
f 576/526/3 608/460/3 607/461/3
f 577/527/3 609/462/3 608/460/3
f 577/527/3 578/528/3 610/464/3
f 578/528/3 579/530/3 611/468/3
f 580/529/3 612/467/3 611/468/3
f 581/531/3 613/471/3 612/467/3
f 582/532/3 614/473/3 613/471/3
f 583/533/3 615/476/3 614/473/3
f 583/533/3 584/534/3 616/475/3
f 584/534/3 585/535/3 617/477/3
f 585/535/3 586/536/3 618/479/3
f 586/536/3 587/538/3 619/483/3
f 588/537/3 620/482/3 619/483/3
f 589/539/3 621/486/3 620/482/3
f 590/540/3 622/488/3 621/486/3
f 591/541/3 623/491/3 622/488/3
f 591/541/3 592/542/3 624/490/3
f 592/542/3 593/543/3 625/492/3
f 593/543/3 594/544/3 626/494/3
f 594/544/3 564/514/3 596/435/3
f 629/515/3 627/513/3 628/514/3
f 628/514/3 658/544/3 657/543/3
f 657/543/3 656/542/3 655/541/3
f 655/541/3 654/540/3 653/539/3
f 653/539/3 652/537/3 651/538/3
f 651/538/3 650/536/3 649/535/3
f 649/535/3 648/534/3 647/533/3
f 647/533/3 646/532/3 645/531/3
f 645/531/3 644/529/3 643/530/3
f 643/530/3 642/528/3 641/527/3
f 641/527/3 640/526/3 639/525/3
f 639/525/3 638/524/3 637/523/3
f 637/523/3 636/521/3 635/522/3
f 635/522/3 634/520/3 633/519/3
f 633/519/3 632/518/3 631/517/3
f 631/517/3 630/516/3 629/515/3
f 629/515/3 628/514/3 657/543/3
f 657/543/3 655/541/3 653/539/3
f 653/539/3 651/538/3 649/535/3
f 649/535/3 647/533/3 645/531/3
f 645/531/3 643/530/3 641/527/3
f 641/527/3 639/525/3 637/523/3
f 637/523/3 635/522/3 633/519/3
f 633/519/3 631/517/3 629/515/3
f 629/515/3 657/543/3 653/539/3
f 653/539/3 649/535/3 645/531/3
f 645/531/3 641/527/3 637/523/3
f 637/523/3 633/519/3 629/515/3
f 629/515/3 653/539/3 645/531/3
f 574/384/165 638/409/165 639/385/165
f 588/321/147 652/320/147 653/387/147
f 575/545/166 639/559/166 640/546/166
f 589/388/148 653/387/148 654/392/148
f 576/547/167 640/546/167 641/548/167
f 564/506/154 628/414/154 627/550/154
f 590/393/149 654/392/149 655/398/149
f 577/549/168 641/548/168 642/550/168
f 563/551/155 627/550/155 629/548/155
f 591/552/150 655/560/150 656/553/150
f 578/551/169 642/550/169 643/414/169
f 565/549/156 629/548/156 630/546/156
f 592/554/151 656/553/151 657/555/151
f 579/506/138 643/414/138 644/557/138
f 566/547/157 630/546/157 631/559/157
f 593/556/152 657/555/152 658/557/152
f 580/558/139 644/557/139 645/555/139
f 567/399/158 631/398/158 632/392/158
f 594/558/153 658/557/153 628/414/153
f 581/556/140 645/555/140 646/553/140
f 568/393/159 632/392/159 633/387/159
f 582/554/141 646/553/141 647/560/141
f 569/388/160 633/387/160 634/320/160
f 583/386/142 647/385/142 648/409/142
f 570/321/161 634/320/161 635/234/161
f 584/384/143 648/409/143 649/410/143
f 571/319/162 635/234/162 636/412/162
f 585/411/144 649/410/144 650/412/144
f 572/413/163 636/412/163 637/410/163
f 586/413/145 650/412/145 651/234/145
f 573/411/164 637/410/164 638/409/164
f 724/561/138 723/564/138 661/562/138
f 723/564/139 725/566/139 663/565/139
f 725/566/140 726/568/140 665/567/140
f 726/568/141 727/570/141 667/569/141
f 727/225/142 728/228/142 669/226/142
f 728/228/143 729/230/143 671/229/143
f 729/230/144 730/232/144 673/231/144
f 730/232/145 731/234/145 675/233/145
f 731/234/146 732/236/146 677/235/146
f 732/236/147 733/238/147 679/237/147
f 733/238/148 734/240/148 681/239/148
f 734/240/149 735/249/149 683/241/149
f 735/570/150 736/568/150 685/567/150
f 736/568/151 737/566/151 687/565/151
f 737/566/152 738/564/152 689/562/152
f 738/564/153 739/561/153 691/563/153
f 739/561/154 740/578/154 693/571/154
f 693/571/155 740/578/155 741/572/155
f 741/572/156 742/575/156 697/574/156
f 742/575/157 743/577/157 699/576/157
f 743/249/158 744/240/158 701/239/158
f 744/240/159 745/238/159 703/237/159
f 745/238/160 746/236/160 705/235/160
f 746/236/161 747/234/161 707/233/161
f 747/234/162 748/232/162 709/231/162
f 748/232/163 749/230/163 711/229/163
f 749/230/164 750/228/164 713/226/164
f 750/228/165 751/225/165 715/227/165
f 751/577/166 752/575/166 717/574/166
f 752/575/167 753/572/167 719/573/167
f 682/251/149 798/347/149 799/252/149
f 753/572/168 754/578/168 721/571/168
f 754/578/169 724/561/169 659/563/169
f 721/581/6 659/584/6 661/583/6
f 661/583/6 663/586/6 665/590/6
f 665/590/6 667/589/6 669/592/6
f 669/592/6 671/596/6 673/598/6
f 673/598/6 675/600/6 677/599/6
f 677/599/6 679/602/6 681/604/6
f 681/604/6 683/606/6 685/610/6
f 685/610/6 687/609/6 689/579/6
f 689/579/6 691/613/6 693/617/6
f 693/617/6 695/616/6 697/621/6
f 697/621/6 699/620/6 701/625/6
f 701/625/6 703/626/6 705/580/6
f 705/580/6 707/630/6 709/629/6
f 709/629/6 711/634/6 713/633/6
f 713/633/6 715/638/6 717/640/6
f 717/640/6 719/639/6 721/581/6
f 721/581/6 661/583/6 665/590/6
f 665/590/6 669/592/6 673/598/6
f 673/598/6 677/599/6 681/604/6
f 681/604/6 685/610/6 689/579/6
f 689/579/6 693/617/6 697/621/6
f 697/621/6 701/625/6 705/580/6
f 705/580/6 709/629/6 713/633/6
f 713/633/6 717/640/6 721/581/6
f 721/581/6 665/590/6 673/598/6
f 673/598/6 681/604/6 689/579/6
f 689/579/6 697/621/6 705/580/6
f 705/580/6 713/633/6 721/581/6
f 721/581/6 673/598/6 689/579/6
f 660/582/3 662/585/3 723/583/3
f 662/585/3 664/588/3 725/586/3
f 666/587/3 726/590/3 725/586/3
f 666/587/3 668/591/3 727/589/3
f 668/591/3 670/594/3 728/592/3
f 672/593/3 729/596/3 728/592/3
f 674/595/3 730/598/3 729/596/3
f 676/597/3 731/600/3 730/598/3
f 676/597/3 678/601/3 732/599/3
f 678/601/3 680/603/3 733/602/3
f 680/603/3 682/605/3 734/604/3
f 682/605/3 684/608/3 735/606/3
f 686/607/3 736/610/3 735/606/3
f 686/607/3 688/612/3 737/609/3
f 690/611/3 738/579/3 737/609/3
f 690/611/3 692/615/3 739/613/3
f 694/614/3 740/617/3 739/613/3
f 694/614/3 696/619/3 741/616/3
f 698/618/3 742/621/3 741/616/3
f 698/618/3 700/623/3 743/620/3
f 702/622/3 744/625/3 743/620/3
f 704/624/3 745/626/3 744/625/3
f 704/624/3 706/628/3 746/580/3
f 708/627/3 747/630/3 746/580/3
f 708/627/3 710/632/3 748/629/3
f 712/631/3 749/634/3 748/629/3
f 712/631/3 714/636/3 750/633/3
f 716/635/3 751/638/3 750/633/3
f 718/637/3 752/640/3 751/638/3
f 718/637/3 720/642/3 753/639/3
f 722/641/3 754/581/3 753/639/3
f 660/582/3 724/584/3 754/581/3
f 779/319/146 843/234/146 844/320/146
f 710/322/163 812/346/163 813/323/163
f 684/643/150 799/658/150 800/644/150
f 712/324/164 813/323/164 814/328/164
f 686/645/151 800/644/151 801/646/151
f 660/561/138 788/653/138 787/648/138
f 714/329/165 814/328/165 815/334/165
f 688/647/152 801/646/152 802/648/152
f 662/649/139 787/648/139 789/646/139
f 716/650/166 815/659/166 816/651/166
f 692/561/153 690/649/153 802/648/153
f 664/647/140 789/646/140 790/644/140
f 718/652/167 816/651/167 817/654/167
f 692/561/154 803/653/154 804/656/154
f 666/645/141 790/644/141 791/658/141
f 720/655/168 817/654/168 818/656/168
f 694/657/155 804/656/155 805/654/155
f 668/335/142 791/334/142 792/328/142
f 722/657/169 818/656/169 788/653/169
f 696/655/156 805/654/156 806/651/156
f 670/329/143 792/328/143 793/323/143
f 698/652/157 806/651/157 807/659/157
f 672/324/144 793/323/144 794/346/144
f 700/253/158 807/252/158 808/347/158
f 674/322/145 794/346/145 795/319/145
f 702/251/159 808/347/159 809/348/159
f 676/234/146 795/319/146 796/350/146
f 704/349/160 809/348/160 810/350/160
f 678/351/147 796/350/147 797/348/147
f 706/351/161 810/350/161 811/319/161
f 680/349/148 797/348/148 798/347/148
f 708/234/162 811/319/162 812/346/162
f 755/660/3 787/585/3 788/582/3
f 755/660/3 757/662/3 789/588/3
f 757/662/3 758/664/3 790/587/3
f 759/663/3 791/591/3 790/587/3
f 759/663/3 760/665/3 792/594/3
f 760/665/3 761/666/3 793/593/3
f 761/666/3 762/668/3 794/595/3
f 763/667/3 795/597/3 794/595/3
f 763/667/3 764/670/3 796/601/3
f 765/669/3 797/603/3 796/601/3
f 766/671/3 798/605/3 797/603/3
f 767/672/3 799/608/3 798/605/3
f 768/673/3 800/607/3 799/608/3
f 769/674/3 801/612/3 800/607/3
f 770/675/3 802/611/3 801/612/3
f 770/675/3 771/677/3 803/615/3
f 772/676/3 804/614/3 803/615/3
f 772/676/3 773/678/3 805/619/3
f 773/678/3 774/679/3 806/618/3
f 774/679/3 775/680/3 807/623/3
f 775/680/3 776/681/3 808/622/3
f 776/681/3 777/682/3 809/624/3
f 777/682/3 778/683/3 810/628/3
f 778/683/3 779/685/3 811/627/3
f 780/684/3 812/632/3 811/627/3
f 781/686/3 813/631/3 812/632/3
f 782/687/3 814/636/3 813/631/3
f 783/688/3 815/635/3 814/636/3
f 783/688/3 784/690/3 816/637/3
f 785/689/3 817/642/3 816/637/3
f 786/691/3 818/641/3 817/642/3
f 786/691/3 756/661/3 788/582/3
f 821/662/3 819/660/3 820/661/3
f 820/661/3 850/691/3 849/689/3
f 849/689/3 848/690/3 847/688/3
f 847/688/3 846/687/3 845/686/3
f 845/686/3 844/684/3 843/685/3
f 843/685/3 842/683/3 841/682/3
f 841/682/3 840/681/3 839/680/3
f 839/680/3 838/679/3 837/678/3
f 837/678/3 836/676/3 835/677/3
f 835/677/3 834/675/3 833/674/3
f 833/674/3 832/673/3 831/672/3
f 831/672/3 830/671/3 829/669/3
f 829/669/3 828/670/3 827/667/3
f 827/667/3 826/668/3 825/666/3
f 825/666/3 824/665/3 823/663/3
f 823/663/3 822/664/3 821/662/3
f 821/662/3 820/661/3 849/689/3
f 849/689/3 847/688/3 845/686/3
f 845/686/3 843/685/3 841/682/3
f 841/682/3 839/680/3 837/678/3
f 837/678/3 835/677/3 833/674/3
f 833/674/3 831/672/3 829/669/3
f 829/669/3 827/667/3 825/666/3
f 825/666/3 823/663/3 821/662/3
f 821/662/3 849/689/3 845/686/3
f 845/686/3 841/682/3 837/678/3
f 837/678/3 833/674/3 829/669/3
f 829/669/3 825/666/3 821/662/3
f 821/662/3 845/686/3 837/678/3
f 766/384/165 830/409/165 831/385/165
f 780/321/147 844/320/147 845/387/147
f 767/692/166 831/706/166 832/693/166
f 781/388/148 845/387/148 846/392/148
f 768/694/167 832/693/167 833/695/167
f 756/653/154 820/561/154 819/697/154
f 782/393/149 846/392/149 847/398/149
f 769/696/168 833/695/168 834/697/168
f 755/698/155 819/697/155 821/695/155
f 783/699/150 847/707/150 848/700/150
f 770/698/169 834/697/169 835/561/169
f 757/696/156 821/695/156 822/693/156
f 784/701/151 848/700/151 849/702/151
f 771/653/138 835/561/138 836/704/138
f 758/694/157 822/693/157 823/706/157
f 785/703/152 849/702/152 850/704/152
f 772/705/139 836/704/139 837/702/139
f 759/399/158 823/398/158 824/392/158
f 786/705/153 850/704/153 820/561/153
f 773/703/140 837/702/140 838/700/140
f 760/393/159 824/392/159 825/387/159
f 774/701/141 838/700/141 839/707/141
f 761/388/160 825/387/160 826/320/160
f 775/386/142 839/385/142 840/409/142
f 762/321/161 826/320/161 827/234/161
f 776/384/143 840/409/143 841/410/143
f 763/319/162 827/234/162 828/412/162
f 777/411/144 841/410/144 842/412/144
f 764/413/163 828/412/163 829/410/163
f 778/413/145 842/412/145 843/234/145
f 765/411/164 829/410/164 830/409/164
