# Blender 5.1.0
# www.blender.org
mtllib Bsh_Hull_Rostrum_Dredn_C_001_6.mtl
o Bsh_Hull_Rostrum_Dredn_C_001_6
v -10.962939 20.114567 5.951241
v -10.418935 20.313347 5.951248
v -10.536408 20.029720 5.951243
v -10.962937 20.421570 5.951241
v -11.389460 20.029736 5.951242
v -11.506948 20.313343 5.951242
v -11.968129 20.005199 5.951241
v -11.751058 19.788124 5.951241
v -12.276278 19.543999 5.951241
v -11.992661 19.426537 5.951241
v -12.077502 18.999992 5.951241
v -12.384487 19.000008 5.951241
v -11.992660 18.573483 5.951241
v -12.384483 17.996910 5.951241
v -11.751058 18.211884 5.951242
v -11.992660 18.573483 5.951241
v -11.751059 18.211884 5.099107
v -11.751058 18.211884 5.951242
v -11.992661 18.573483 5.099107
v -12.077502 18.999992 5.951241
v -12.077502 18.999992 5.099107
v -11.992661 19.426537 5.951241
v -11.992661 19.426537 5.099106
v -11.751058 19.788128 5.099107
v -11.751058 19.788124 5.951241
v -10.962939 20.114567 5.099107
v -10.536408 20.029720 5.951243
v -10.536408 20.029720 5.099108
v -10.962939 20.114567 5.951241
v -11.389460 20.029736 5.099107
v -11.389460 20.029736 5.951242
v -11.751058 19.788124 5.951241
v -11.751058 19.788128 5.099107
v -10.536408 20.029720 5.951243
v -3.550495 20.046604 5.099128
v -10.536408 20.029720 5.099108
v -3.550496 20.046597 7.822888
v -10.536419 20.029720 7.425362
v -10.536418 20.029720 7.822875
v -3.546226 20.246578 5.099134
v -9.766041 20.246571 7.822883
v -9.766038 20.246571 5.099111
v -3.546227 20.246567 7.822889
v -11.751069 18.211884 7.425362
v -11.885509 12.390376 7.822878
v -11.751069 18.211884 7.822878
v -11.751058 18.211884 5.951242
v -11.885499 12.390376 5.099108
v -11.751059 18.211884 5.099107
v -11.885509 12.390376 7.822878
v -3.550499 12.390372 7.822887
v -11.751069 18.211884 7.822878
v -10.536418 20.029720 7.822875
v -3.550496 20.046597 7.822888
v -12.384497 19.000004 7.425359
v -12.384494 17.996914 7.425362
v -11.751069 18.211884 7.425362
v -12.276292 19.543995 7.425359
v -11.968134 20.005192 7.425360
v -10.536419 20.029720 7.425362
v -11.506954 20.313343 7.425360
v -10.962949 20.421570 7.425361
v -10.418944 20.313347 7.425367
v -10.418935 20.313347 5.951248
v -10.536419 20.029720 7.425362
v -10.536408 20.029720 5.951243
v -10.418944 20.313347 7.425367
v -11.751058 18.211884 5.951242
v -12.384494 17.996914 7.425362
v -12.384483 17.996910 5.951241
v -11.751069 18.211884 7.425362
v -10.536419 20.029720 7.425362
v -11.751069 18.211884 7.822878
v -10.536418 20.029720 7.822875
v -11.751069 18.211884 7.425362
v -8.839207 29.114559 5.951250
v -8.295203 29.313339 5.951252
v -8.412677 29.029709 5.951251
v -8.839206 29.421562 5.951250
v -9.265728 29.029724 5.951249
v -9.383216 29.313335 5.951248
v -9.844398 29.005188 5.951249
v -9.627327 28.788116 5.951250
v -10.152546 28.543987 5.951249
v -9.868931 28.426525 5.951250
v -9.953771 27.999981 5.951249
v -10.260750 27.999992 5.951248
v -9.868929 27.573471 5.951249
v -10.260745 26.996895 5.951250
v -9.627325 27.211872 5.951251
v -9.868929 27.573471 5.951249
v -9.627326 27.211872 5.099112
v -9.627325 27.211872 5.951251
v -9.868929 27.573471 5.099110
v -9.953771 27.999981 5.951249
v -9.953771 27.999985 5.099110
v -9.868931 28.426525 5.951250
v -9.868932 28.426525 5.099110
v -9.627327 28.788120 5.099111
v -9.627327 28.788116 5.951250
v -8.839207 29.114559 5.099111
v -8.412677 29.029709 5.951251
v -8.412677 29.029709 5.099114
v -8.839207 29.114559 5.951250
v -9.265728 29.029724 5.099110
v -9.265728 29.029724 5.951249
v -9.627327 28.788116 5.951250
v -9.627327 28.788120 5.099111
v -8.412677 29.029709 5.951251
v -3.541953 29.046597 5.099129
v -8.412677 29.029709 5.099114
v -3.541955 29.046593 7.822888
v -8.412679 29.029709 7.425369
v -8.412679 29.029716 7.822885
v -9.627327 27.211872 7.425369
v -9.766041 20.246571 7.822883
v -9.627329 27.211872 7.822883
v -9.627325 27.211872 5.951251
v -9.766038 20.246571 5.099111
v -9.627326 27.211872 5.099112
v -9.766041 20.246571 7.822883
v -3.546227 20.246567 7.822889
v -9.627329 27.211872 7.822883
v -8.412679 29.029716 7.822885
v -3.541955 29.046593 7.822888
v -10.260760 27.999992 7.425369
v -10.260757 26.996899 7.425368
v -9.627327 27.211872 7.425369
v -10.152552 28.543987 7.425368
v -9.844395 29.005184 7.425368
v -8.412679 29.029709 7.425369
v -9.383212 29.313335 7.425370
v -8.839208 29.421562 7.425369
v -8.295203 29.313339 7.425369
v -8.295203 29.313339 5.951252
v -8.412679 29.029709 7.425369
v -8.412677 29.029709 5.951251
v -8.295203 29.313339 7.425369
v -9.627325 27.211872 5.951251
v -10.260757 26.996899 7.425368
v -10.260745 26.996895 5.951250
v -9.627327 27.211872 7.425369
v -8.412679 29.029709 7.425369
v -9.627329 27.211872 7.822883
v -8.412679 29.029716 7.822885
v -9.627327 27.211872 7.425369
v -6.715475 38.114544 5.951250
v -6.171471 38.313328 5.951252
v -6.288945 38.029697 5.951252
v -6.715474 38.421547 5.951250
v -7.141995 38.029720 5.951250
v -7.259484 38.313328 5.951250
v -7.720667 38.005184 5.951250
v -7.503596 37.788109 5.951250
v -8.028815 37.543983 5.951250
v -7.745199 37.426521 5.951250
v -7.830039 36.999977 5.951250
v -8.137025 36.999989 5.951249
v -7.745197 36.573467 5.951250
v -8.137019 35.996891 5.951250
v -7.503593 36.211868 5.951251
v -7.745197 36.573467 5.951250
v -7.503594 36.211864 5.099114
v -7.503593 36.211868 5.951251
v -7.745198 36.573467 5.099113
v -7.830039 36.999977 5.951250
v -7.830039 36.999981 5.099112
v -7.745199 37.426521 5.951250
v -7.745200 37.426521 5.099113
v -7.503596 37.788113 5.099113
v -7.503596 37.788109 5.951250
v -6.715475 38.114548 5.099113
v -6.288945 38.029697 5.951252
v -6.288944 38.029697 5.099115
v -6.715475 38.114544 5.951250
v -7.141995 38.029720 5.099113
v -7.141995 38.029720 5.951250
v -7.503596 37.788109 5.951250
v -7.503596 37.788113 5.099113
v -6.288945 38.029697 5.951252
v -3.541946 38.046581 5.099127
v -6.288944 38.029697 5.099115
v -3.541949 38.046581 7.822887
v -6.288947 38.029701 7.425371
v -6.288946 38.029705 7.822885
v -7.503595 36.211868 7.425371
v -7.638036 29.246559 7.822887
v -7.503597 36.211868 7.822885
v -7.503593 36.211868 5.951251
v -7.638032 29.246563 5.099117
v -7.503594 36.211864 5.099114
v -7.638036 29.246559 7.822887
v -3.541953 29.246559 7.822892
v -7.503597 36.211868 7.822885
v -6.288946 38.029705 7.822885
v -3.541949 38.046581 7.822887
v -8.137025 36.999989 7.425369
v -8.137022 35.996891 7.425369
v -7.503595 36.211868 7.425371
v -8.028821 37.543983 7.425369
v -7.720663 38.005177 7.425369
v -6.288947 38.029701 7.425371
v -7.259480 38.313328 7.425369
v -6.715476 38.421547 7.425369
v -6.171472 38.313328 7.425370
v -6.171471 38.313328 5.951252
v -6.288947 38.029701 7.425371
v -6.288945 38.029697 5.951252
v -6.171472 38.313328 7.425370
v -7.503593 36.211868 5.951251
v -8.137022 35.996891 7.425369
v -8.137019 35.996891 5.951250
v -7.503595 36.211868 7.425371
v -6.288947 38.029701 7.425371
v -7.503597 36.211868 7.822885
v -6.288946 38.029705 7.822885
v -7.503595 36.211868 7.425371
v -7.638032 29.246563 5.099117
v -3.541953 29.246559 7.822892
v -7.638036 29.246559 7.822887
v -3.541950 29.246563 5.099129
v -3.550500 12.390365 5.099136
v -11.885509 12.390376 7.822878
v -11.885499 12.390376 5.099108
v -3.550499 12.390372 7.822887
v -3.550499 12.390372 7.822887
v -3.550495 20.046604 5.099128
v -3.550496 20.046597 7.822888
v -3.550500 12.390365 5.099136
v -3.541953 29.246559 7.822892
v -3.541946 38.046581 5.099127
v -3.541949 38.046581 7.822887
v -3.541950 29.246563 5.099129
v -3.541955 29.046593 7.822888
v -3.546226 20.246578 5.099134
v -3.541953 29.046597 5.099129
v -3.546227 20.246567 7.822889
v 10.418935 20.313343 5.951263
v 10.962938 20.114567 5.951268
v 10.536407 20.029716 5.951269
v 10.962937 20.421566 5.951268
v 11.389460 20.029732 5.951269
v 11.506948 20.313339 5.951269
v 11.968128 20.005196 5.951269
v 11.751057 19.788124 5.951268
v 12.276277 19.543995 5.951267
v 11.992661 19.426533 5.951268
v 12.077501 18.999989 5.951269
v 12.384486 19.000004 5.951269
v 11.992659 18.573483 5.951269
v 12.384482 17.996906 5.951269
v 11.751057 18.211884 5.951269
v 11.751059 18.211884 5.099129
v 11.992659 18.573483 5.951269
v 11.751057 18.211884 5.951269
v 11.992660 18.573483 5.099129
v 12.077501 18.999989 5.951269
v 12.077501 18.999992 5.099129
v 11.992661 19.426533 5.951268
v 11.992661 19.426533 5.099128
v 11.751057 19.788124 5.099128
v 11.751057 19.788124 5.951268
v 10.536407 20.029716 5.951269
v 10.962938 20.114567 5.099129
v 10.536407 20.029716 5.099129
v 10.962938 20.114567 5.951268
v 11.389460 20.029732 5.099128
v 11.389460 20.029732 5.951269
v 11.751057 19.788124 5.951268
v 11.751057 19.788124 5.099128
v 10.536407 20.029716 5.951269
v 10.536407 20.029716 5.099129
v 3.550490 20.046600 5.099134
v 3.550483 20.046597 7.822899
v 10.536399 20.029716 7.425388
v 10.536398 20.029720 7.822901
v 3.546221 20.246578 5.099141
v 9.766031 20.246567 7.822899
v 3.546215 20.246567 7.822900
v 9.766027 20.246571 5.099131
v 11.751049 18.211884 7.425389
v 11.751049 18.211884 7.822904
v 11.885489 12.390372 7.822904
v 11.751057 18.211884 5.951269
v 11.885497 12.390372 5.099131
v 11.751059 18.211884 5.099129
v 11.885489 12.390372 7.822904
v 11.751049 18.211884 7.822904
v 3.550486 12.390372 7.822899
v 10.536398 20.029720 7.822901
v 3.550483 20.046597 7.822899
v 12.384477 19.000000 7.425386
v 11.751049 18.211884 7.425389
v 12.384474 17.996910 7.425389
v 12.276272 19.543995 7.425386
v 11.968114 20.005192 7.425387
v 10.536399 20.029716 7.425388
v 11.506933 20.313339 7.425387
v 10.962929 20.421566 7.425386
v 10.418924 20.313343 7.425383
v 10.418935 20.313343 5.951263
v 10.536399 20.029716 7.425388
v 10.418924 20.313343 7.425383
v 10.536407 20.029716 5.951269
v 11.751057 18.211884 5.951269
v 12.384474 17.996910 7.425389
v 11.751049 18.211884 7.425389
v 12.384482 17.996906 5.951269
v 10.536399 20.029716 7.425388
v 11.751049 18.211884 7.822904
v 11.751049 18.211884 7.425389
v 10.536398 20.029720 7.822901
v 8.295195 29.313339 5.951265
v 8.839198 29.114559 5.951263
v 8.412668 29.029709 5.951264
v 8.839197 29.421558 5.951263
v 9.265719 29.029724 5.951263
v 9.383208 29.313332 5.951263
v 9.844390 29.005188 5.951263
v 9.627318 28.788116 5.951264
v 10.152537 28.543987 5.951264
v 9.868922 28.426525 5.951264
v 9.953762 27.999981 5.951263
v 10.260752 27.999992 5.951263
v 9.868920 27.573471 5.951263
v 10.260746 26.996895 5.951265
v 9.627316 27.211868 5.951265
v 9.627317 27.211868 5.099131
v 9.868920 27.573471 5.951263
v 9.627316 27.211868 5.951265
v 9.868920 27.573471 5.099129
v 9.953762 27.999981 5.951263
v 9.953762 27.999985 5.099129
v 9.868922 28.426525 5.951264
v 9.868923 28.426525 5.099130
v 9.627318 28.788116 5.099130
v 9.627318 28.788116 5.951264
v 8.412668 29.029709 5.951264
v 8.839198 29.114559 5.099129
v 8.412668 29.029709 5.099128
v 8.839198 29.114559 5.951263
v 9.265719 29.029724 5.099129
v 9.265719 29.029724 5.951263
v 9.627318 28.788116 5.951264
v 9.627318 28.788116 5.099130
v 8.412668 29.029709 5.951264
v 8.412668 29.029709 5.099128
v 3.541950 29.046593 5.099134
v 3.541944 29.046593 7.822898
v 8.412671 29.029709 7.425382
v 8.412670 29.029713 7.822897
v 9.627318 27.211868 7.425385
v 9.627320 27.211868 7.822898
v 9.766031 20.246567 7.822899
v 9.627316 27.211868 5.951265
v 9.766027 20.246571 5.099131
v 9.627317 27.211868 5.099131
v 9.766031 20.246567 7.822899
v 9.627320 27.211868 7.822898
v 3.546215 20.246567 7.822900
v 8.412670 29.029713 7.822897
v 3.541944 29.046593 7.822898
v 10.260742 27.999989 7.425385
v 9.627318 27.211868 7.425385
v 10.260738 26.996899 7.425384
v 10.152544 28.543983 7.425384
v 9.844387 29.005184 7.425384
v 8.412671 29.029709 7.425382
v 9.383204 29.313332 7.425384
v 8.839201 29.421558 7.425382
v 8.295196 29.313339 7.425382
v 8.295195 29.313339 5.951265
v 8.412671 29.029709 7.425382
v 8.295196 29.313339 7.425382
v 8.412668 29.029709 5.951264
v 9.627316 27.211868 5.951265
v 10.260738 26.996899 7.425384
v 9.627318 27.211868 7.425385
v 10.260746 26.996895 5.951265
v 8.412671 29.029709 7.425382
v 9.627320 27.211868 7.822898
v 9.627318 27.211868 7.425385
v 8.412670 29.029713 7.822897
v 6.171464 38.313328 5.951262
v 6.715467 38.114544 5.951261
v 6.288938 38.029697 5.951262
v 6.715467 38.421547 5.951261
v 7.141989 38.029716 5.951261
v 7.259478 38.313324 5.951262
v 7.720661 38.005180 5.951262
v 7.503589 37.788105 5.951262
v 8.028808 37.543983 5.951262
v 7.745193 37.426517 5.951262
v 7.830032 36.999977 5.951262
v 8.137018 36.999989 5.951261
v 7.745191 36.573467 5.951262
v 8.137012 35.996887 5.951262
v 7.503586 36.211864 5.951263
v 7.503588 36.211864 5.099126
v 7.745191 36.573467 5.951262
v 7.503586 36.211864 5.951263
v 7.745191 36.573467 5.099125
v 7.830032 36.999977 5.951262
v 7.830032 36.999977 5.099124
v 7.745193 37.426517 5.951262
v 7.745193 37.426517 5.099125
v 7.503589 37.788109 5.099125
v 7.503589 37.788105 5.951262
v 6.288938 38.029697 5.951262
v 6.715467 38.114548 5.099124
v 6.288938 38.029697 5.099126
v 6.715467 38.114544 5.951261
v 7.141989 38.029716 5.099124
v 7.141989 38.029716 5.951261
v 7.503589 37.788105 5.951262
v 7.503589 37.788109 5.099125
v 6.288938 38.029697 5.951262
v 6.288938 38.029697 5.099126
v 3.541944 38.046581 5.099132
v 3.541939 38.046581 7.822896
v 6.288940 38.029701 7.425384
v 6.288940 38.029705 7.822897
v 7.503589 36.211864 7.425384
v 7.503591 36.211864 7.822897
v 7.638029 29.246559 7.822899
v 7.503586 36.211864 5.951263
v 7.638024 29.246563 5.099130
v 7.503588 36.211864 5.099126
v 7.638029 29.246559 7.822899
v 7.503591 36.211864 7.822897
v 3.541943 29.246559 7.822902
v 6.288940 38.029705 7.822897
v 3.541939 38.046581 7.822896
v 8.137019 36.999985 7.425382
v 7.503589 36.211864 7.425384
v 8.137015 35.996891 7.425382
v 8.028814 37.543980 7.425382
v 7.720657 38.005177 7.425380
v 6.288940 38.029701 7.425384
v 7.259474 38.313324 7.425380
v 6.715470 38.421547 7.425380
v 6.171465 38.313328 7.425382
v 6.171464 38.313328 5.951262
v 6.288940 38.029701 7.425384
v 6.171465 38.313328 7.425382
v 6.288938 38.029697 5.951262
v 7.503586 36.211864 5.951263
v 8.137015 35.996891 7.425382
v 7.503589 36.211864 7.425384
v 8.137012 35.996887 5.951262
v 6.288940 38.029701 7.425384
v 7.503591 36.211864 7.822897
v 7.503589 36.211864 7.425384
v 6.288940 38.029705 7.822897
v 7.638024 29.246563 5.099130
v 3.541943 29.246559 7.822902
v 3.541946 29.246559 5.099134
v 7.638029 29.246559 7.822899
v 3.550494 12.390363 5.099143
v 11.885489 12.390372 7.822904
v 3.550486 12.390372 7.822899
v 11.885497 12.390372 5.099131
v 3.550486 12.390372 7.822899
v 3.550490 20.046600 5.099134
v 3.550494 12.390363 5.099143
v 3.550483 20.046597 7.822899
v 3.541943 29.246559 7.822902
v 3.541944 38.046581 5.099132
v 3.541946 29.246559 5.099134
v 3.541939 38.046581 7.822896
v 3.541944 29.046593 7.822898
v 3.546221 20.246578 5.099141
v 3.546215 20.246567 7.822900
v 3.541950 29.046593 5.099134
v 11.286457 18.676430 5.099114
v 10.962899 18.542408 5.188961
v 11.286457 18.676430 5.188960
v 10.962899 18.542408 5.099116
v 10.639339 18.676441 5.188962
v 10.639339 18.676441 5.099116
v 11.286457 18.676430 5.188960
v 11.420476 18.999981 5.099114
v 11.286457 18.676430 5.099114
v 11.420476 18.999981 5.188959
v 11.286457 19.323544 5.099115
v 11.286457 19.323544 5.188960
v 11.286457 19.323544 5.188960
v 10.962896 19.457577 5.099115
v 11.286457 19.323544 5.099115
v 10.962896 19.457577 5.188960
v 10.639338 19.323544 5.099115
v 10.639338 19.323544 5.188960
v 10.639338 19.323544 5.188960
v 10.505322 18.999981 5.099116
v 10.639338 19.323544 5.099115
v 10.505322 18.999981 5.188961
v 10.639339 18.676441 5.099116
v 10.639339 18.676441 5.188962
v 9.162725 27.676430 5.099115
v 8.839167 27.542408 5.188959
v 9.162725 27.676430 5.188958
v 8.839167 27.542408 5.099116
v 8.515607 27.676441 5.188959
v 8.515607 27.676441 5.099115
v 9.162725 27.676430 5.188958
v 9.296743 27.999985 5.099115
v 9.162725 27.676430 5.099115
v 9.296743 27.999985 5.188957
v 9.162725 28.323547 5.099115
v 9.162725 28.323547 5.188958
v 9.162725 28.323547 5.188958
v 8.839165 28.457581 5.099116
v 9.162725 28.323547 5.099115
v 8.839165 28.457581 5.188958
v 8.515607 28.323547 5.099114
v 8.515607 28.323547 5.188958
v 8.515607 28.323547 5.188958
v 8.381589 27.999981 5.099115
v 8.515607 28.323547 5.099114
v 8.381589 27.999981 5.188959
v 8.515607 27.676441 5.099115
v 8.515607 27.676441 5.188959
v 7.038994 36.676430 5.099113
v 6.715436 36.542408 5.188958
v 7.038994 36.676430 5.188958
v 6.715436 36.542408 5.099114
v 6.391876 36.676441 5.188959
v 6.391876 36.676441 5.099114
v 7.038994 36.676430 5.188958
v 7.173013 36.999981 5.099113
v 7.038994 36.676430 5.099113
v 7.173013 36.999981 5.188956
v 7.038994 37.323544 5.099113
v 7.038994 37.323544 5.188958
v 7.038994 37.323544 5.188958
v 6.715434 37.457581 5.099114
v 7.038994 37.323544 5.099113
v 6.715434 37.457581 5.188957
v 6.391876 37.323547 5.099114
v 6.391876 37.323547 5.188958
v 6.391876 37.323547 5.188958
v 6.257858 36.999981 5.099114
v 6.391876 37.323547 5.099114
v 6.257858 36.999981 5.188958
v 6.391876 36.676441 5.099114
v 6.391876 36.676441 5.188959
v -10.962934 18.542412 5.188953
v -11.286492 18.676430 5.099109
v -11.286492 18.676430 5.188951
v -10.962934 18.542412 5.099110
v -10.639373 18.676445 5.188953
v -10.639373 18.676445 5.099110
v -11.420511 18.999985 5.099109
v -11.286492 18.676430 5.188951
v -11.286492 18.676430 5.099109
v -11.420511 18.999985 5.188951
v -11.286492 19.323547 5.099109
v -11.286492 19.323547 5.188951
v -10.962933 19.457581 5.099110
v -11.286492 19.323547 5.188951
v -11.286492 19.323547 5.099109
v -10.962933 19.457581 5.188951
v -10.639375 19.323547 5.099110
v -10.639375 19.323547 5.188952
v -10.505356 18.999985 5.099110
v -10.639375 19.323547 5.188952
v -10.639375 19.323547 5.099110
v -10.505356 18.999985 5.188952
v -10.639373 18.676445 5.099110
v -10.639373 18.676445 5.188953
v -8.839204 27.542412 5.188955
v -9.162763 27.676434 5.099109
v -9.162763 27.676434 5.188954
v -8.839204 27.542412 5.099110
v -8.515644 27.676445 5.188955
v -8.515644 27.676445 5.099111
v -9.296782 27.999985 5.099109
v -9.162763 27.676434 5.188954
v -9.162763 27.676434 5.099109
v -9.296782 27.999985 5.188953
v -9.162763 28.323547 5.099109
v -9.162763 28.323547 5.188954
v -8.839203 28.457581 5.099110
v -9.162763 28.323547 5.188954
v -9.162763 28.323547 5.099109
v -8.839203 28.457581 5.188954
v -8.515644 28.323547 5.099111
v -8.515644 28.323547 5.188955
v -8.381626 27.999985 5.099111
v -8.515644 28.323547 5.188955
v -8.515644 28.323547 5.099111
v -8.381626 27.999985 5.188955
v -8.515644 27.676445 5.099111
v -8.515644 27.676445 5.188955
v -6.715472 36.542408 5.188954
v -7.039031 36.676434 5.099109
v -7.039031 36.676434 5.188953
v -6.715472 36.542408 5.099110
v -6.391912 36.676441 5.188954
v -6.391912 36.676441 5.099110
v -7.173049 36.999985 5.099109
v -7.039031 36.676434 5.188953
v -7.039031 36.676434 5.099109
v -7.173049 36.999985 5.188953
v -7.039031 37.323551 5.099110
v -7.039031 37.323551 5.188953
v -6.715470 37.457581 5.099110
v -7.039031 37.323551 5.188953
v -7.039031 37.323551 5.099110
v -6.715470 37.457581 5.188953
v -6.391912 37.323547 5.099110
v -6.391912 37.323547 5.188954
v -6.257894 36.999981 5.099110
v -6.391912 37.323547 5.188954
v -6.391912 37.323547 5.099110
v -6.257894 36.999981 5.188954
v -6.391912 36.676441 5.099110
v -6.391912 36.676441 5.188954
v 11.286457 18.676430 5.188960
v 10.962899 18.542408 5.188961
v 10.962899 18.999981 5.188960
v 11.420476 18.999981 5.188959
v 10.639339 18.676441 5.188962
v 11.286457 19.323544 5.188960
v 10.505322 18.999981 5.188961
v 10.962896 19.457577 5.188960
v 10.639338 19.323544 5.188960
v 9.162725 27.676430 5.188958
v 8.839167 27.542408 5.188959
v 8.839167 27.999981 5.188958
v 9.296743 27.999985 5.188957
v 8.515607 27.676441 5.188959
v 9.162725 28.323547 5.188958
v 8.381589 27.999981 5.188959
v 8.839165 28.457581 5.188958
v 8.515607 28.323547 5.188958
v 7.038994 36.676430 5.188958
v 6.715436 36.542408 5.188958
v 6.715436 36.999981 5.188958
v 7.173013 36.999981 5.188956
v 6.391876 36.676441 5.188959
v 7.038994 37.323544 5.188958
v 6.257858 36.999981 5.188958
v 6.715434 37.457581 5.188957
v 6.391876 37.323547 5.188958
v -11.286492 18.676430 5.188951
v -10.962934 18.999985 5.188951
v -10.962934 18.542412 5.188953
v -11.420511 18.999985 5.188951
v -10.639373 18.676445 5.188953
v -11.286492 19.323547 5.188951
v -10.505356 18.999985 5.188952
v -10.962933 19.457581 5.188951
v -10.639375 19.323547 5.188952
v -9.162763 27.676434 5.188954
v -8.839204 27.999985 5.188954
v -8.839204 27.542412 5.188955
v -9.296782 27.999985 5.188953
v -8.515644 27.676445 5.188955
v -9.162763 28.323547 5.188954
v -8.381626 27.999985 5.188955
v -8.839203 28.457581 5.188954
v -8.515644 28.323547 5.188955
v -7.039031 36.676434 5.188953
v -6.715472 36.999981 5.188953
v -6.715472 36.542408 5.188954
v -7.173049 36.999985 5.188953
v -6.391912 36.676441 5.188954
v -7.039031 37.323551 5.188953
v -6.257894 36.999981 5.188954
v -6.715470 37.457581 5.188953
v -6.391912 37.323547 5.188954
vn -0.0000 -0.0000 1.0000
vn 0.8315 0.5556 -0.0000
vn 0.9239 0.3827 -0.0000
vn 1.0000 -0.0000 -0.0000
vn 0.9239 -0.3827 -0.0000
vn 0.7071 -0.7071 -0.0000
vn -0.1951 -0.9808 -0.0000
vn -0.0000 -1.0000 -0.0000
vn 0.3827 -0.9239 -0.0000
vn 0.0024 -1.0000 -0.0000
vn -0.0000 1.0000 -0.0000
vn 0.9997 -0.0231 -0.0000
vn -0.0000 -0.0000 -1.0000
vn -0.9239 0.3827 -0.0000
vn -0.3214 0.9470 -0.0000
vn 0.8315 -0.5556 -0.0000
vn 0.0035 -1.0000 -0.0000
vn 0.9998 -0.0199 -0.0000
vn -0.3214 0.9469 -0.0000
vn 0.7071 -0.7072 -0.0000
vn 0.0061 -1.0000 -0.0000
vn 0.9998 -0.0193 -0.0000
vn -1.0000 -0.0000 -0.0000
vn -1.0000 0.0005 -0.0000
vn -0.8315 0.5556 -0.0000
vn -0.9239 -0.3827 -0.0000
vn -0.7071 -0.7071 -0.0000
vn 0.1951 -0.9808 -0.0000
vn -0.3827 -0.9239 -0.0000
vn -0.0024 -1.0000 -0.0000
vn -0.9997 -0.0231 -0.0000
vn 0.3214 0.9470 -0.0000
vn 0.3214 0.9469 -0.0000
vn -0.8315 -0.5556 -0.0000
vn -0.0035 -1.0000 -0.0000
vn -0.9998 -0.0199 -0.0000
vn -0.0061 -1.0000 -0.0000
vn -0.9998 -0.0193 -0.0000
vn 1.0000 0.0005 -0.0000
vn 0.7071 0.7071 -0.0000
vn -0.7071 0.7071 -0.0000
vn -0.7071 -0.7071 -0.0001
vn 0.7071 -0.7071 -0.0001
vn -0.7071 0.7071 0.0001
vn 0.7071 0.7071 -0.0001
vn -0.7072 0.7071 -0.0000
vt 0.658624 -16.332041
vt 0.656855 -16.336340
vt 0.665047 -16.333326
vt 0.665047 -16.337978
vt 0.671470 -16.332041
vt 0.673239 -16.336340
vt 0.680184 -16.331669
vt 0.676916 -16.328381
vt 0.684825 -16.324680
vt 0.680554 -16.322901
vt 0.681832 -16.316437
vt 0.686455 -16.316437
vt 0.680554 -16.309975
vt 0.686455 -16.301237
vt 0.676916 -16.304495
vt 17.304495 0.305376
vt 17.304495 0.292514
vt 17.309975 0.305376
vt 17.309975 0.292514
vt 17.316437 0.305376
vt 17.316437 0.292514
vt 17.322901 0.305376
vt 17.322901 0.292514
vt 17.328381 0.292514
vt 17.328381 0.305376
vt 0.341376 0.292514
vt 0.341376 0.305376
vt 0.334953 0.292514
vt 0.334953 0.305376
vt 0.328530 0.292514
vt 0.328530 0.305376
vt 0.323084 0.305376
vt 0.323084 0.292514
vt 0.446579 0.292514
vt 0.446579 0.333628
vt 0.341376 0.327627
vt 0.341376 0.333628
vt 0.647023 0.292514
vt 0.647023 0.333628
vt 0.553357 0.292514
vt 0.553357 0.333628
vt 17.304495 0.333628
vt 17.216280 0.333628
vt 17.304495 0.327627
vt 17.216280 0.292514
vt 0.323084 -16.304495
vt 0.446579 -16.216280
vt 0.321059 -16.216280
vt 0.341376 -16.332041
vt 0.446579 -16.332296
vt 0.313545 -16.301237
vt 0.313545 -16.316437
vt 0.315175 -16.324680
vt 0.319815 -16.331669
vt 0.326761 -16.336340
vt 0.334953 -16.337978
vt 0.343145 -16.336340
vt -16.332041 0.305376
vt -16.332041 0.327627
vt -16.336340 0.305376
vt -16.336340 0.327627
vt 0.686455 0.305376
vt 0.686455 0.327627
vt 0.676916 0.305376
vt 0.676916 0.327627
vt 17.332041 0.333628
vt 17.332041 0.327627
vt 0.626642 -16.468422
vt 0.624872 -16.472719
vt 0.633065 -16.469707
vt 0.633065 -16.474360
vt 0.639488 -16.468422
vt 0.641257 -16.472719
vt 0.648202 -16.468050
vt 0.644933 -16.464760
vt 0.652843 -16.461061
vt 0.648572 -16.459280
vt 0.649849 -16.452818
vt 0.654472 -16.452818
vt 0.648572 -16.446354
vt 0.654472 -16.437616
vt 0.644933 -16.440874
vt 17.440874 0.305376
vt 17.440874 0.292514
vt 17.446354 0.305376
vt 17.446354 0.292514
vt 17.452818 0.305376
vt 17.452818 0.292514
vt 17.459280 0.305376
vt 17.459280 0.292514
vt 17.464760 0.292514
vt 17.464760 0.305376
vt 0.373358 0.292514
vt 0.373358 0.305376
vt 0.366935 0.292514
vt 0.366935 0.305376
vt 0.360512 0.292514
vt 0.360512 0.305376
vt 0.355067 0.305376
vt 0.355067 0.292514
vt 0.446708 0.292514
vt 0.446708 0.333628
vt 0.373358 0.327627
vt 0.373358 0.333628
vt 17.440874 0.333628
vt 17.335327 0.333628
vt 17.440874 0.327627
vt 17.335327 0.292514
vt 0.355067 -16.440874
vt 0.446643 -16.335327
vt 0.352977 -16.335327
vt 0.373358 -16.468422
vt 0.446708 -16.468678
vt 0.355067 -16.440874
vt 0.345528 -16.437616
vt 0.345528 -16.452818
vt 0.347157 -16.461061
vt 0.351798 -16.468050
vt 0.358743 -16.472719
vt 0.366935 -16.474360
vt 0.375128 -16.472719
vt -16.468422 0.305376
vt -16.468422 0.327627
vt -16.472719 0.305376
vt -16.472719 0.327627
vt 0.654472 0.305376
vt 0.654472 0.327627
vt 0.644933 0.305376
vt 0.644933 0.327627
vt 17.468422 0.333628
vt 17.468422 0.327627
vt 0.594659 -16.604801
vt 0.592890 -16.609098
vt 0.601083 -16.606087
vt 0.601083 -16.610739
vt 0.607506 -16.604801
vt 0.609275 -16.609098
vt 0.616220 -16.604429
vt 0.612951 -16.601141
vt 0.620860 -16.597441
vt 0.616589 -16.595661
vt 0.617867 -16.589197
vt 0.622490 -16.589197
vt 0.616589 -16.582735
vt 0.622490 -16.573997
vt 0.612951 -16.577255
vt 17.577255 0.305376
vt 17.577255 0.292514
vt 17.582735 0.305376
vt 17.582735 0.292514
vt 17.589197 0.305376
vt 17.589197 0.292514
vt 17.595661 0.305376
vt 17.595661 0.292514
vt 17.601141 0.292514
vt 17.601141 0.305376
vt 0.405341 0.292514
vt 0.405341 0.305376
vt 0.398917 0.292514
vt 0.398917 0.305376
vt 0.392494 0.292514
vt 0.392494 0.305376
vt 0.387049 0.305376
vt 0.387049 0.292514
vt 0.446709 0.292514
vt 0.446709 0.333628
vt 0.405341 0.327627
vt 0.405341 0.333628
vt 17.577255 0.333628
vt 17.471706 0.333628
vt 17.577255 0.327627
vt 17.471706 0.292514
vt 0.387049 -16.577255
vt 0.446708 -16.471706
vt 0.385024 -16.471706
vt 0.405341 -16.604801
vt 0.446709 -16.605057
vt 0.387049 -16.577255
vt 0.377510 -16.573997
vt 0.377510 -16.589197
vt 0.379139 -16.597441
vt 0.383780 -16.604429
vt 0.390725 -16.609098
vt 0.398917 -16.610739
vt 0.407110 -16.609098
vt -16.604801 0.305376
vt -16.604801 0.327627
vt -16.609098 0.305376
vt -16.609098 0.327627
vt 0.622490 0.305376
vt 0.622490 0.327627
vt 0.612951 0.305376
vt 0.612951 0.327627
vt 17.604801 0.333628
vt 17.604801 0.327627
vt 0.614976 0.333628
vt 0.553292 0.333628
vt 0.614976 0.292514
vt 0.553292 0.292514
vt 0.678940 0.292514
vt 0.678941 0.333628
vt 0.553421 0.292514
vt 0.553421 0.333628
vt -16.332296 0.333628
vt -16.332296 0.292514
vt -16.216280 0.333628
vt -16.216280 0.292514
vt -16.605057 0.333628
vt -16.605057 0.292514
vt -16.471706 0.333628
vt -16.471706 0.292514
vt -16.468678 0.292514
vt -16.335327 0.292514
vt -16.468678 0.333628
vt -16.335327 0.333628
vt 0.341282 -16.332041
vt 0.334859 -16.333326
vt 0.343051 -16.336340
vt 0.334859 -16.337978
vt 0.328436 -16.332041
vt 0.326667 -16.336338
vt 0.319722 -16.331669
vt 0.322991 -16.328381
vt 0.315081 -16.324680
vt 0.319352 -16.322901
vt 0.318075 -16.316437
vt 0.313452 -16.316437
vt 0.319352 -16.309975
vt 0.313452 -16.301237
vt 0.322991 -16.304495
vt -16.304495 0.305377
vt -16.309975 0.305377
vt -16.304495 0.292514
vt -16.309975 0.292514
vt -16.316437 0.305377
vt -16.316437 0.292514
vt -16.322901 0.305377
vt -16.322901 0.292514
vt -16.328381 0.292514
vt -16.328381 0.305377
vt 0.658718 0.292514
vt 0.665141 0.292514
vt 0.658718 0.305377
vt 0.665141 0.305377
vt 0.671564 0.292514
vt 0.671564 0.305377
vt 0.677009 0.305377
vt 0.677009 0.292514
vt 0.553515 0.292514
vt 0.553515 0.333628
vt 0.658717 0.327628
vt 0.658717 0.333628
vt 0.446550 0.333628
vt 0.352884 0.333628
vt 0.446550 0.292514
vt 0.352884 0.292514
vt -16.216280 0.333628
vt -16.304495 0.333628
vt -16.304495 0.327628
vt -16.216280 0.292514
vt 0.553514 -16.216280
vt 0.677009 -16.304495
vt 0.679033 -16.216280
vt 0.658717 -16.332041
vt 0.553515 -16.332296
vt 0.686548 -16.301237
vt 0.686548 -16.316437
vt 0.684919 -16.324680
vt 0.680278 -16.331669
vt 0.658717 -16.332041
vt 0.673333 -16.336338
vt 0.665141 -16.337978
vt 0.656948 -16.336340
vt 17.336340 0.327628
vt 17.332041 0.327628
vt 17.336340 0.305377
vt 17.332041 0.305377
vt 0.322991 0.327628
vt 0.313452 0.327628
vt 0.322991 0.305377
vt 0.313452 0.305377
vt -16.332041 0.327628
vt -16.332041 0.333628
vt 0.373264 -16.468422
vt 0.366841 -16.469707
vt 0.375033 -16.472719
vt 0.366841 -16.474360
vt 0.360418 -16.468422
vt 0.358648 -16.472719
vt 0.351703 -16.468050
vt 0.354972 -16.464760
vt 0.347063 -16.461061
vt 0.351334 -16.459280
vt 0.350056 -16.452818
vt 0.345433 -16.452818
vt 0.351334 -16.446354
vt 0.345433 -16.437616
vt 0.354972 -16.440874
vt -16.440874 0.305377
vt -16.446354 0.305377
vt -16.440874 0.292514
vt -16.446354 0.292514
vt -16.452818 0.305377
vt -16.452818 0.292514
vt -16.459280 0.305377
vt -16.459280 0.292514
vt -16.464760 0.292514
vt -16.464760 0.305377
vt 0.626736 0.292514
vt 0.633159 0.292514
vt 0.626736 0.305377
vt 0.633159 0.305377
vt 0.639582 0.292514
vt 0.639582 0.305377
vt 0.645028 0.305377
vt 0.645028 0.292514
vt 0.553386 0.292514
vt 0.553386 0.333628
vt 0.626736 0.327628
vt 0.626736 0.333628
vt -16.335327 0.333628
vt -16.440874 0.333628
vt -16.440874 0.327628
vt -16.335327 0.292514
vt 0.553450 -16.335327
vt 0.645028 -16.440874
vt 0.647116 -16.335327
vt 0.626736 -16.468422
vt 0.553386 -16.468678
vt 0.654567 -16.437616
vt 0.645028 -16.440874
vt 0.654567 -16.452818
vt 0.652937 -16.461061
vt 0.648297 -16.468050
vt 0.641352 -16.472719
vt 0.633159 -16.474360
vt 0.624967 -16.472719
vt 17.472719 0.327628
vt 17.468422 0.327628
vt 17.472719 0.305377
vt 17.468422 0.305377
vt 0.354972 0.327628
vt 0.345434 0.327628
vt 0.354972 0.305377
vt 0.345433 0.305377
vt -16.468422 0.327628
vt -16.468422 0.333628
vt 0.405245 -16.604801
vt 0.398822 -16.606087
vt 0.407015 -16.609098
vt 0.398822 -16.610739
vt 0.392399 -16.604801
vt 0.390630 -16.609098
vt 0.383685 -16.604429
vt 0.386954 -16.601139
vt 0.379044 -16.597441
vt 0.383315 -16.595661
vt 0.382038 -16.589197
vt 0.377415 -16.589197
vt 0.383315 -16.582735
vt 0.377415 -16.573997
vt 0.386954 -16.577255
vt -16.577255 0.305376
vt -16.582735 0.305376
vt -16.577255 0.292514
vt -16.582735 0.292514
vt -16.589197 0.305376
vt -16.589197 0.292514
vt -16.595661 0.305376
vt -16.595661 0.292514
vt -16.601139 0.292514
vt -16.601139 0.305376
vt 0.594755 0.292514
vt 0.601178 0.292514
vt 0.594755 0.305376
vt 0.601178 0.305376
vt 0.607601 0.292514
vt 0.607601 0.305376
vt 0.613046 0.305376
vt 0.613046 0.292514
vt 0.553387 0.292514
vt 0.553387 0.333628
vt 0.594755 0.327628
vt 0.594755 0.333628
vt -16.471706 0.333628
vt -16.577255 0.333628
vt -16.577255 0.327628
vt -16.471706 0.292514
vt 0.553386 -16.471706
vt 0.613046 -16.577255
vt 0.615070 -16.471706
vt 0.594755 -16.604801
vt 0.553387 -16.605057
vt 0.622585 -16.573997
vt 0.622585 -16.589197
vt 0.620956 -16.597441
vt 0.616315 -16.604429
vt 0.609370 -16.609098
vt 0.601178 -16.610739
vt 0.592986 -16.609098
vt 17.609098 0.327628
vt 17.604801 0.327628
vt 17.609098 0.305376
vt 17.604801 0.305376
vt 0.386954 0.327628
vt 0.377415 0.327628
vt 0.386954 0.305376
vt 0.377415 0.305376
vt -16.604801 0.327628
vt -16.604801 0.333628
vt 0.446614 0.292514
vt 0.446614 0.333628
vt 0.384930 0.292514
vt 0.384930 0.333628
vt 0.446486 0.333628
vt 0.320967 0.333628
vt 0.446486 0.292514
vt 0.320966 0.292514
vt 17.216280 0.292514
vt 17.332296 0.292514
vt 17.216280 0.333628
vt 17.332296 0.333628
vt 17.471706 0.292514
vt 17.605057 0.292514
vt 17.471706 0.333628
vt 17.605057 0.333628
vt 17.335327 0.333628
vt 17.335327 0.292514
vt 17.468678 0.333628
vt 17.468678 0.292514
vt 0.670013 0.293870
vt 0.665140 0.293870
vt 0.670013 0.292514
vt 0.665140 0.292514
vt 0.660268 0.293870
vt 0.660268 0.292514
vt 17.311535 0.292514
vt 17.316437 0.292514
vt 17.311535 0.293870
vt 17.316437 0.293870
vt 17.321341 0.292514
vt 17.321341 0.293870
vt 0.329987 0.292514
vt 0.334860 0.292514
vt 0.329987 0.293870
vt 0.334860 0.293870
vt 0.339732 0.292514
vt 0.339732 0.293870
vt -16.321341 0.292514
vt -16.316437 0.292514
vt -16.321341 0.293870
vt -16.316437 0.293870
vt -16.311535 0.292514
vt -16.311535 0.293870
vt 0.638031 0.293870
vt 0.633159 0.293870
vt 0.638031 0.292514
vt 0.633159 0.292514
vt 0.628286 0.293870
vt 0.628286 0.292514
vt 17.447914 0.292514
vt 17.452818 0.292514
vt 17.447914 0.293870
vt 17.452818 0.293870
vt 17.457720 0.292514
vt 17.457720 0.293870
vt 0.361969 0.292514
vt 0.366841 0.292514
vt 0.361969 0.293870
vt 0.366841 0.293870
vt 0.371714 0.292514
vt 0.371714 0.293870
vt -16.457720 0.292514
vt -16.452818 0.292514
vt -16.457720 0.293870
vt -16.452818 0.293870
vt -16.447914 0.292514
vt -16.447914 0.293870
vt 0.606050 0.293870
vt 0.601177 0.293870
vt 0.606050 0.292514
vt 0.601177 0.292514
vt 0.596305 0.293870
vt 0.596305 0.292514
vt 17.584295 0.292514
vt 17.589197 0.292514
vt 17.584295 0.293870
vt 17.589197 0.293870
vt 17.594101 0.292514
vt 17.594101 0.293870
vt 0.393950 0.292514
vt 0.398823 0.292514
vt 0.393950 0.293870
vt 0.398823 0.293870
vt 0.403695 0.292514
vt 0.403695 0.293870
vt -16.594101 0.292514
vt -16.589197 0.292514
vt -16.594101 0.293870
vt -16.589197 0.293870
vt -16.584295 0.292514
vt -16.584295 0.293870
vt 0.330080 0.293870
vt 0.330080 0.292514
vt 0.334953 0.293870
vt 0.334953 0.292514
vt 0.339826 0.293870
vt 0.339826 0.292514
vt -16.311535 0.292514
vt -16.311535 0.293870
vt -16.316437 0.292514
vt -16.316437 0.293870
vt -16.321341 0.292514
vt -16.321341 0.293870
vt 0.669920 0.292514
vt 0.669920 0.293870
vt 0.665047 0.292514
vt 0.665047 0.293870
vt 0.660174 0.292514
vt 0.660174 0.293870
vt 17.321341 0.292514
vt 17.321341 0.293870
vt 17.316437 0.292514
vt 17.316437 0.293870
vt 17.311535 0.292514
vt 17.311535 0.293870
vt 0.362063 0.293870
vt 0.362063 0.292514
vt 0.366935 0.293870
vt 0.366935 0.292514
vt 0.371808 0.293870
vt 0.371808 0.292514
vt -16.447914 0.292514
vt -16.447914 0.293870
vt -16.452818 0.292514
vt -16.452818 0.293870
vt -16.457720 0.292514
vt -16.457720 0.293870
vt 0.637937 0.292514
vt 0.637937 0.293870
vt 0.633065 0.292514
vt 0.633065 0.293870
vt 0.628192 0.292514
vt 0.628192 0.293870
vt 17.457720 0.292514
vt 17.457720 0.293870
vt 17.452818 0.293870
vt 17.447914 0.292514
vt 17.447914 0.293870
vt 0.394045 0.293870
vt 0.394045 0.292514
vt 0.398917 0.293870
vt 0.398917 0.292514
vt 0.403790 0.293870
vt 0.403790 0.292514
vt -16.584295 0.292514
vt -16.584295 0.293870
vt -16.589197 0.292514
vt -16.589197 0.293870
vt -16.594101 0.292514
vt -16.594101 0.293870
vt 0.605955 0.292514
vt 0.605955 0.293870
vt 0.601082 0.292514
vt 0.601082 0.293870
vt 0.596210 0.292514
vt 0.596210 0.293870
vt 17.594101 0.292514
vt 17.594101 0.293870
vt 17.589197 0.293870
vt 17.584295 0.292514
vt 17.584295 0.293870
vt 0.334860 -16.316437
vt 0.334860 -16.309504
vt 0.329987 -16.311535
vt 0.327969 -16.316437
vt 0.339732 -16.311535
vt 0.329987 -16.321341
vt 0.341751 -16.316437
vt 0.334860 -16.323372
vt 0.339732 -16.321341
vt 0.366841 -16.452818
vt 0.366841 -16.445883
vt 0.361969 -16.447914
vt 0.359951 -16.452818
vt 0.371714 -16.447914
vt 0.361969 -16.457720
vt 0.373732 -16.452818
vt 0.366841 -16.459751
vt 0.371714 -16.457720
vt 0.398823 -16.589197
vt 0.398823 -16.582264
vt 0.393950 -16.584295
vt 0.391932 -16.589197
vt 0.403695 -16.584295
vt 0.393950 -16.594101
vt 0.405714 -16.589197
vt 0.398823 -16.596132
vt 0.403695 -16.594101
vt 0.665047 -16.309504
vt 0.665047 -16.316437
vt 0.669920 -16.311535
vt 0.671938 -16.316437
vt 0.660174 -16.311535
vt 0.669920 -16.321341
vt 0.658156 -16.316437
vt 0.665047 -16.323372
vt 0.660174 -16.321341
vt 0.633065 -16.445883
vt 0.633065 -16.452818
vt 0.637937 -16.447914
vt 0.639956 -16.452818
vt 0.628192 -16.447914
vt 0.637937 -16.457720
vt 0.626174 -16.452818
vt 0.633065 -16.459751
vt 0.628192 -16.457720
vt 0.601083 -16.582264
vt 0.601083 -16.589197
vt 0.605955 -16.584295
vt 0.607973 -16.589197
vt 0.596210 -16.584295
vt 0.605955 -16.594101
vt 0.594192 -16.589197
vt 0.601082 -16.596132
vt 0.596210 -16.594101
s 1
g Bsh_Hull_Rostrum_Dredn_C_001_6_steel_3
usemtl steel_3
f 3/1/1 2/2/1 1/3/1
f 4/4/1 1/3/1 2/2/1
f 1/3/1 4/4/1 5/5/1
f 6/6/1 5/5/1 4/4/1
f 6/6/1 7/7/1 5/5/1
f 8/8/1 5/5/1 7/7/1
f 7/7/1 9/9/1 8/8/1
f 10/10/1 8/8/1 9/9/1
f 10/10/1 9/9/1 11/11/1
f 12/12/1 11/11/1 9/9/1
f 11/11/1 12/12/1 13/13/1
f 14/14/1 13/13/1 12/12/1
f 15/15/1 13/13/1 14/14/1
f 18/16/2 17/17/2 16/18/3
f 19/19/3 16/18/3 17/17/2
f 16/18/3 19/19/3 20/20/4
f 21/21/4 20/20/4 19/19/3
f 20/20/4 21/21/4 22/22/5
f 23/23/5 22/22/5 21/21/4
f 23/23/5 24/24/6 22/22/5
f 25/25/6 22/22/5 24/24/6
f 28/26/7 27/27/7 26/28/8
f 29/29/8 26/28/8 27/27/7
f 26/28/8 29/29/8 30/30/9
f 31/31/9 30/30/9 29/29/8
f 31/31/9 32/32/6 30/30/9
f 33/33/6 30/30/9 32/32/6
f 36/26/10 35/34/10 34/27/10
f 35/34/10 37/35/10 34/27/10
f 38/36/10 34/27/10 37/35/10
f 39/37/10 38/36/10 37/35/10
f 42/38/11 41/39/11 40/40/11
f 43/41/11 40/40/11 41/39/11
f 46/42/12 45/43/12 44/44/12
f 44/44/12 45/43/12 47/16/12
f 48/45/12 47/16/12 45/43/12
f 47/16/12 48/45/12 49/17/12
f 52/46/13 51/47/13 50/48/13
f 53/49/13 51/47/13 52/46/13
f 54/50/13 51/47/13 53/49/13
f 57/46/13 56/51/13 55/52/13
f 57/46/13 55/52/13 58/53/13
f 58/53/13 59/54/13 57/46/13
f 57/46/13 59/54/13 60/49/13
f 60/49/13 59/54/13 61/55/13
f 60/49/13 61/55/13 62/56/13
f 60/49/13 62/56/13 63/57/13
f 66/58/14 65/59/14 64/60/14
f 67/61/14 64/60/14 65/59/14
f 70/62/15 69/63/15 68/64/15
f 71/65/15 68/64/15 69/63/15
f 74/66/16 73/42/16 72/67/16
f 75/44/16 72/67/16 73/42/16
f 78/68/1 77/69/1 76/70/1
f 79/71/1 76/70/1 77/69/1
f 76/70/1 79/71/1 80/72/1
f 81/73/1 80/72/1 79/71/1
f 81/73/1 82/74/1 80/72/1
f 83/75/1 80/72/1 82/74/1
f 82/74/1 84/76/1 83/75/1
f 85/77/1 83/75/1 84/76/1
f 85/77/1 84/76/1 86/78/1
f 87/79/1 86/78/1 84/76/1
f 86/78/1 87/79/1 88/80/1
f 89/81/1 88/80/1 87/79/1
f 90/82/1 88/80/1 89/81/1
f 93/83/2 92/84/2 91/85/3
f 94/86/3 91/85/3 92/84/2
f 91/85/3 94/86/3 95/87/4
f 96/88/4 95/87/4 94/86/3
f 95/87/4 96/88/4 97/89/5
f 98/90/5 97/89/5 96/88/4
f 98/90/5 99/91/6 97/89/5
f 100/92/6 97/89/5 99/91/6
f 103/93/7 102/94/7 101/95/8
f 104/96/8 101/95/8 102/94/7
f 101/95/8 104/96/8 105/97/9
f 106/98/9 105/97/9 104/96/8
f 106/98/9 107/99/6 105/97/9
f 108/100/6 105/97/9 107/99/6
f 111/93/17 110/101/17 109/94/17
f 110/101/17 112/102/17 109/94/17
f 113/103/17 109/94/17 112/102/17
f 114/104/17 113/103/17 112/102/17
f 117/105/18 116/106/18 115/107/18
f 115/107/18 116/106/18 118/83/18
f 119/108/18 118/83/18 116/106/18
f 118/83/18 119/108/18 120/84/18
f 123/109/13 122/110/13 121/111/13
f 124/112/13 122/110/13 123/109/13
f 125/113/13 122/110/13 124/112/13
f 128/114/13 127/115/13 126/116/13
f 128/114/13 126/116/13 129/117/13
f 129/117/13 130/118/13 128/114/13
f 128/114/13 130/118/13 131/112/13
f 131/112/13 130/118/13 132/119/13
f 131/112/13 132/119/13 133/120/13
f 131/112/13 133/120/13 134/121/13
f 137/122/14 136/123/14 135/124/14
f 138/125/14 135/124/14 136/123/14
f 141/126/19 140/127/15 139/128/19
f 142/129/15 139/128/19 140/127/15
f 145/130/16 144/105/16 143/131/16
f 146/107/16 143/131/16 144/105/16
f 149/132/1 148/133/1 147/134/1
f 150/135/1 147/134/1 148/133/1
f 147/134/1 150/135/1 151/136/1
f 152/137/1 151/136/1 150/135/1
f 152/137/1 153/138/1 151/136/1
f 154/139/1 151/136/1 153/138/1
f 153/138/1 155/140/1 154/139/1
f 156/141/1 154/139/1 155/140/1
f 156/141/1 155/140/1 157/142/1
f 158/143/1 157/142/1 155/140/1
f 157/142/1 158/143/1 159/144/1
f 160/145/1 159/144/1 158/143/1
f 161/146/1 159/144/1 160/145/1
f 164/147/2 163/148/2 162/149/3
f 165/150/3 162/149/3 163/148/2
f 162/149/3 165/150/3 166/151/4
f 167/152/4 166/151/4 165/150/3
f 166/151/4 167/152/4 168/153/5
f 169/154/5 168/153/5 167/152/4
f 169/154/5 170/155/6 168/153/5
f 171/156/6 168/153/5 170/155/6
f 174/157/7 173/158/7 172/159/8
f 175/160/8 172/159/8 173/158/7
f 172/159/8 175/160/8 176/161/9
f 177/162/9 176/161/9 175/160/8
f 177/162/9 178/163/6 176/161/9
f 179/164/20 176/161/9 178/163/6
f 182/157/21 181/165/21 180/158/21
f 181/165/21 183/166/21 180/158/21
f 184/167/21 180/158/21 183/166/21
f 185/168/21 184/167/21 183/166/21
f 188/169/22 187/170/22 186/171/22
f 186/171/22 187/170/22 189/147/22
f 190/172/22 189/147/22 187/170/22
f 189/147/22 190/172/22 191/148/22
f 194/173/13 193/174/13 192/175/13
f 195/176/13 193/174/13 194/173/13
f 196/177/13 193/174/13 195/176/13
f 199/178/13 198/179/13 197/180/13
f 199/178/13 197/180/13 200/181/13
f 200/181/13 201/182/13 199/178/13
f 199/178/13 201/182/13 202/176/13
f 202/176/13 201/182/13 203/183/13
f 202/176/13 203/183/13 204/184/13
f 202/176/13 204/184/13 205/185/13
f 208/186/14 207/187/14 206/188/14
f 209/189/14 206/188/14 207/187/14
f 212/190/19 211/191/19 210/192/19
f 213/193/19 210/192/19 211/191/19
f 216/194/16 215/169/16 214/195/16
f 217/171/16 214/195/16 215/169/16
f 220/196/11 219/197/11 218/198/11
f 221/199/11 218/198/11 219/197/11
f 224/200/11 223/201/11 222/202/11
f 225/203/11 222/202/11 223/201/11
f 228/204/23 227/205/23 226/206/23
f 229/207/23 226/206/23 227/205/23
f 232/208/23 231/209/23 230/210/23
f 233/211/23 230/210/23 231/209/23
f 236/212/24 235/213/24 234/214/24
f 237/215/24 234/214/24 235/213/24
f 240/216/1 239/217/1 238/218/1
f 241/219/1 238/218/1 239/217/1
f 239/217/1 242/220/1 241/219/1
f 243/221/1 241/219/1 242/220/1
f 243/221/1 242/220/1 244/222/1
f 245/223/1 244/222/1 242/220/1
f 244/222/1 245/223/1 246/224/1
f 247/225/1 246/224/1 245/223/1
f 247/225/1 248/226/1 246/224/1
f 249/227/1 246/224/1 248/226/1
f 248/226/1 250/228/1 249/227/1
f 251/229/1 249/227/1 250/228/1
f 250/228/1 252/230/1 251/229/1
f 255/231/25 254/232/14 253/233/25
f 256/234/14 253/233/25 254/232/14
f 254/232/14 257/235/23 256/234/14
f 258/236/23 256/234/14 257/235/23
f 257/235/23 259/237/26 258/236/23
f 260/238/26 258/236/23 259/237/26
f 260/238/26 259/237/26 261/239/27
f 262/240/27 261/239/27 259/237/26
f 265/241/28 264/242/8 263/243/28
f 266/244/8 263/243/28 264/242/8
f 264/242/8 267/245/29 266/244/8
f 268/246/29 266/244/8 267/245/29
f 268/246/29 267/245/29 269/247/27
f 270/248/27 269/247/27 267/245/29
f 273/249/30 272/241/30 271/243/30
f 273/249/30 271/243/30 274/250/30
f 275/251/30 274/250/30 271/243/30
f 275/251/30 276/252/30 274/250/30
f 279/253/11 278/254/11 277/255/11
f 280/256/11 277/255/11 278/254/11
f 283/257/31 282/258/31 281/259/31
f 281/259/31 284/231/31 283/257/31
f 285/260/31 283/257/31 284/231/31
f 285/260/31 284/231/31 286/233/31
f 289/261/13 288/262/13 287/263/13
f 289/261/13 290/264/13 288/262/13
f 289/261/13 291/265/13 290/264/13
f 294/266/13 293/262/13 292/267/13
f 292/267/13 293/262/13 295/268/13
f 296/269/13 295/268/13 293/262/13
f 296/269/13 293/262/13 297/270/13
f 296/269/13 297/270/13 298/271/13
f 298/271/13 297/270/13 299/272/13
f 299/272/13 297/270/13 300/273/13
f 303/274/3 302/275/3 301/276/3
f 304/277/3 301/276/3 302/275/3
f 307/278/32 306/279/33 305/280/33
f 308/281/33 305/280/33 306/279/33
f 311/259/34 310/258/34 309/282/34
f 312/283/34 309/282/34 310/258/34
f 315/284/1 314/285/1 313/286/1
f 316/287/1 313/286/1 314/285/1
f 314/285/1 317/288/1 316/287/1
f 318/289/1 316/287/1 317/288/1
f 318/289/1 317/288/1 319/290/1
f 320/291/1 319/290/1 317/288/1
f 319/290/1 320/291/1 321/292/1
f 322/293/1 321/292/1 320/291/1
f 322/293/1 323/294/1 321/292/1
f 324/295/1 321/292/1 323/294/1
f 323/294/1 325/296/1 324/295/1
f 326/297/1 324/295/1 325/296/1
f 325/296/1 327/298/1 326/297/1
f 330/299/25 329/300/14 328/301/25
f 331/302/14 328/301/25 329/300/14
f 329/300/14 332/303/23 331/302/14
f 333/304/23 331/302/14 332/303/23
f 332/303/23 334/305/26 333/304/23
f 335/306/26 333/304/23 334/305/26
f 335/306/26 334/305/26 336/307/27
f 337/308/27 336/307/27 334/305/26
f 340/309/28 339/310/8 338/311/28
f 341/312/8 338/311/28 339/310/8
f 339/310/8 342/313/29 341/312/8
f 343/314/29 341/312/8 342/313/29
f 343/314/29 342/313/29 344/315/27
f 345/316/27 344/315/27 342/313/29
f 348/317/35 347/309/35 346/311/35
f 348/317/35 346/311/35 349/318/35
f 350/319/35 349/318/35 346/311/35
f 350/319/35 351/320/35 349/318/35
f 354/321/36 353/322/36 352/323/36
f 352/323/36 355/299/36 354/321/36
f 356/324/36 354/321/36 355/299/36
f 356/324/36 355/299/36 357/301/36
f 360/325/13 359/326/13 358/327/13
f 360/325/13 361/328/13 359/326/13
f 360/325/13 362/329/13 361/328/13
f 365/330/13 364/331/13 363/332/13
f 363/332/13 364/331/13 366/333/13
f 367/334/13 366/333/13 364/331/13
f 367/334/13 364/331/13 368/328/13
f 367/334/13 368/328/13 369/335/13
f 369/335/13 368/328/13 370/336/13
f 370/336/13 368/328/13 371/337/13
f 374/338/3 373/339/3 372/340/3
f 375/341/3 372/340/3 373/339/3
f 378/342/32 377/343/32 376/344/32
f 379/345/32 376/344/32 377/343/32
f 382/323/34 381/322/34 380/346/34
f 383/347/34 380/346/34 381/322/34
f 386/348/1 385/349/1 384/350/1
f 387/351/1 384/350/1 385/349/1
f 385/349/1 388/352/1 387/351/1
f 389/353/1 387/351/1 388/352/1
f 389/353/1 388/352/1 390/354/1
f 391/355/1 390/354/1 388/352/1
f 390/354/1 391/355/1 392/356/1
f 393/357/1 392/356/1 391/355/1
f 393/357/1 394/358/1 392/356/1
f 395/359/1 392/356/1 394/358/1
f 394/358/1 396/360/1 395/359/1
f 397/361/1 395/359/1 396/360/1
f 396/360/1 398/362/1 397/361/1
f 401/363/25 400/364/14 399/365/25
f 402/366/14 399/365/25 400/364/14
f 400/364/14 403/367/23 402/366/14
f 404/368/23 402/366/14 403/367/23
f 403/367/23 405/369/26 404/368/23
f 406/370/26 404/368/23 405/369/26
f 406/370/26 405/369/26 407/371/27
f 408/372/27 407/371/27 405/369/26
f 411/373/28 410/374/8 409/375/28
f 412/376/8 409/375/28 410/374/8
f 410/374/8 413/377/29 412/376/8
f 414/378/29 412/376/8 413/377/29
f 414/378/29 413/377/29 415/379/27
f 416/380/27 415/379/27 413/377/29
f 419/381/37 418/373/37 417/375/37
f 419/381/37 417/375/37 420/382/37
f 421/383/37 420/382/37 417/375/37
f 421/383/37 422/384/37 420/382/37
f 425/385/38 424/386/38 423/387/38
f 423/387/38 426/363/38 425/385/38
f 427/388/38 425/385/38 426/363/38
f 427/388/38 426/363/38 428/365/38
f 431/389/13 430/390/13 429/391/13
f 431/389/13 432/392/13 430/390/13
f 431/389/13 433/393/13 432/392/13
f 436/394/13 435/390/13 434/395/13
f 434/395/13 435/390/13 437/396/13
f 438/397/13 437/396/13 435/390/13
f 438/397/13 435/390/13 439/392/13
f 438/397/13 439/392/13 440/398/13
f 440/398/13 439/392/13 441/399/13
f 441/399/13 439/392/13 442/400/13
f 445/401/3 444/402/3 443/403/3
f 446/404/3 443/403/3 444/402/3
f 449/405/33 448/406/33 447/407/33
f 450/408/33 447/407/33 448/406/33
f 453/387/34 452/386/34 451/409/34
f 454/410/34 451/409/34 452/386/34
f 457/411/11 456/412/11 455/413/11
f 458/414/11 455/413/11 456/412/11
f 461/415/11 460/416/11 459/417/11
f 462/418/11 459/417/11 460/416/11
f 465/419/4 464/420/4 463/421/4
f 466/422/4 463/421/4 464/420/4
f 469/423/4 468/424/4 467/425/4
f 470/426/4 467/425/4 468/424/4
f 473/427/39 472/428/39 471/429/39
f 474/430/39 471/429/39 472/428/39
f 477/431/6 476/432/8 475/433/6
f 478/434/8 475/433/6 476/432/8
f 476/432/8 479/435/27 478/434/8
f 480/436/27 478/434/8 479/435/27
f 483/437/6 482/438/4 481/439/6
f 484/440/4 481/439/6 482/438/4
f 482/438/4 485/441/40 484/440/4
f 486/442/40 484/440/4 485/441/40
f 489/443/40 488/444/11 487/445/40
f 490/446/11 487/445/40 488/444/11
f 488/444/11 491/447/41 490/446/11
f 492/448/41 490/446/11 491/447/41
f 495/449/41 494/450/23 493/451/41
f 496/452/23 493/451/41 494/450/23
f 494/450/23 497/453/27 496/452/23
f 498/454/42 496/452/23 497/453/27
f 501/455/6 500/456/8 499/457/6
f 502/458/8 499/457/6 500/456/8
f 500/456/8 503/459/27 502/458/8
f 504/460/27 502/458/8 503/459/27
f 507/461/43 506/462/4 505/463/6
f 508/464/4 505/463/6 506/462/4
f 506/462/4 509/465/40 508/464/4
f 510/466/40 508/464/4 509/465/40
f 513/467/40 512/468/11 511/469/40
f 514/470/11 511/469/40 512/468/11
f 512/468/11 515/471/41 514/470/11
f 516/472/41 514/470/11 515/471/41
f 519/473/44 518/474/23 517/475/41
f 520/476/23 517/475/41 518/474/23
f 518/474/23 521/477/27 520/476/23
f 522/478/27 520/476/23 521/477/27
f 525/479/6 524/480/8 523/481/6
f 526/482/8 523/481/6 524/480/8
f 524/480/8 527/483/27 526/482/8
f 528/484/27 526/482/8 527/483/27
f 531/485/6 530/486/4 529/487/6
f 532/488/4 529/487/6 530/486/4
f 530/486/4 533/489/40 532/488/4
f 534/490/40 532/488/4 533/489/40
f 537/491/40 536/492/11 535/493/40
f 538/494/11 535/493/40 536/492/11
f 536/492/11 539/495/41 538/494/11
f 540/496/41 538/494/11 539/495/41
f 543/497/44 542/498/23 541/499/41
f 544/500/23 541/499/41 542/498/23
f 542/498/23 545/501/27 544/500/23
f 546/502/27 544/500/23 545/501/27
f 549/503/27 548/504/27 547/505/8
f 550/506/8 547/505/8 548/504/27
f 547/505/8 550/506/8 551/507/6
f 552/508/6 551/507/6 550/506/8
f 555/509/27 554/510/27 553/511/23
f 556/512/23 553/511/23 554/510/27
f 553/511/23 556/512/23 557/513/41
f 558/514/41 557/513/41 556/512/23
f 561/515/41 560/516/41 559/517/11
f 562/518/11 559/517/11 560/516/41
f 559/517/11 562/518/11 563/519/40
f 564/520/40 563/519/40 562/518/11
f 567/521/40 566/522/40 565/523/4
f 568/524/4 565/523/4 566/522/40
f 565/523/4 568/524/4 569/525/6
f 570/526/6 569/525/6 568/524/4
f 573/527/27 572/528/27 571/529/8
f 574/530/8 571/529/8 572/528/27
f 571/529/8 574/530/8 575/531/6
f 576/532/6 575/531/6 574/530/8
f 579/533/27 578/534/27 577/535/23
f 580/536/23 577/535/23 578/534/27
f 577/535/23 580/536/23 581/537/41
f 582/538/41 581/537/41 580/536/23
f 585/539/41 584/540/41 583/541/11
f 586/542/11 583/541/11 584/540/41
f 583/541/11 586/542/11 587/543/40
f 588/544/40 587/543/40 586/542/11
f 591/545/40 590/546/45 589/88/4
f 592/547/4 589/88/4 590/546/45
f 589/88/4 592/547/4 593/548/6
f 594/549/6 593/548/6 592/547/4
f 597/550/27 596/551/27 595/552/8
f 598/553/8 595/552/8 596/551/27
f 595/552/8 598/553/8 599/554/6
f 600/555/6 599/554/6 598/553/8
f 603/556/27 602/557/27 601/558/23
f 604/559/23 601/558/23 602/557/27
f 601/558/23 604/559/23 605/560/46
f 606/561/46 605/560/46 604/559/23
f 609/562/41 608/563/41 607/564/11
f 610/565/11 607/564/11 608/563/41
f 607/564/11 610/565/11 611/566/40
f 612/567/40 611/566/40 610/565/11
f 615/568/40 614/569/40 613/152/4
f 616/570/4 613/152/4 614/569/40
f 613/152/4 616/570/4 617/571/6
f 618/572/6 617/571/6 616/570/4
f 621/573/1 620/574/1 619/575/1
f 621/573/1 619/575/1 622/576/1
f 621/573/1 623/577/1 620/574/1
f 621/573/1 622/576/1 624/578/1
f 621/573/1 625/579/1 623/577/1
f 621/573/1 624/578/1 626/580/1
f 621/573/1 627/581/1 625/579/1
f 621/573/1 626/580/1 627/581/1
f 630/582/1 629/583/1 628/584/1
f 630/582/1 628/584/1 631/585/1
f 630/582/1 632/586/1 629/583/1
f 630/582/1 631/585/1 633/587/1
f 630/582/1 634/588/1 632/586/1
f 630/582/1 633/587/1 635/589/1
f 630/582/1 636/590/1 634/588/1
f 630/582/1 635/589/1 636/590/1
f 639/591/1 638/592/1 637/593/1
f 639/591/1 637/593/1 640/594/1
f 639/591/1 641/595/1 638/592/1
f 639/591/1 640/594/1 642/596/1
f 639/591/1 643/597/1 641/595/1
f 639/591/1 642/596/1 644/598/1
f 639/591/1 645/599/1 643/597/1
f 639/591/1 644/598/1 645/599/1
f 648/600/1 647/601/1 646/602/1
f 646/602/1 647/601/1 649/603/1
f 650/604/1 647/601/1 648/600/1
f 649/603/1 647/601/1 651/605/1
f 652/606/1 647/601/1 650/604/1
f 651/605/1 647/601/1 653/607/1
f 654/608/1 647/601/1 652/606/1
f 653/607/1 647/601/1 654/608/1
f 657/609/1 656/610/1 655/611/1
f 655/611/1 656/610/1 658/612/1
f 659/613/1 656/610/1 657/609/1
f 658/612/1 656/610/1 660/614/1
f 661/615/1 656/610/1 659/613/1
f 660/614/1 656/610/1 662/616/1
f 663/617/1 656/610/1 661/615/1
f 662/616/1 656/610/1 663/617/1
f 666/618/1 665/619/1 664/620/1
f 664/620/1 665/619/1 667/621/1
f 668/622/1 665/619/1 666/618/1
f 667/621/1 665/619/1 669/623/1
f 670/624/1 665/619/1 668/622/1
f 669/623/1 665/619/1 671/625/1
f 672/626/1 665/619/1 670/624/1
f 671/625/1 665/619/1 672/626/1
