# Blender 5.1.0
# www.blender.org
mtllib Bsh_Hull_Midsection_Dredn_BCD1_001_5.mtl
o Bsh_Hull_Midsection_Dredn_BCD1_001_5
v -10.418926 -28.283846 5.951268
v -10.962931 -28.085070 5.951273
v -10.536400 -28.000216 5.951273
v -10.962929 -28.392069 5.951273
v -11.389451 -28.000235 5.951273
v -11.506940 -28.283842 5.951273
v -11.968122 -27.975698 5.951273
v -11.751049 -27.758623 5.951273
v -12.276271 -27.514498 5.951272
v -11.992656 -27.397036 5.951273
v -12.077495 -26.970491 5.951275
v -12.384480 -26.970507 5.951275
v -11.992653 -26.543982 5.951275
v -12.384477 -25.967409 5.951274
v -11.751052 -26.182383 5.951275
v -11.751053 -26.182386 5.099135
v -11.992653 -26.543982 5.951275
v -11.751052 -26.182383 5.951275
v -11.992655 -26.543985 5.099135
v -12.077495 -26.970491 5.951275
v -12.077495 -26.970495 5.099134
v -11.992656 -27.397036 5.951273
v -11.992656 -27.397036 5.099134
v -11.751052 -27.758631 5.099133
v -11.751049 -27.758623 5.951273
v -10.536400 -28.000216 5.951273
v -10.962931 -28.085070 5.099133
v -10.536401 -28.000219 5.099134
v -10.962931 -28.085070 5.951273
v -11.389452 -28.000235 5.099133
v -11.389451 -28.000235 5.951273
v -11.751049 -27.758623 5.951273
v -11.751052 -27.758631 5.099133
v -10.536400 -28.000216 5.951273
v -10.536401 -28.000219 5.099134
v -3.550483 -28.017103 5.099138
v -3.550477 -28.017099 7.822903
v -10.536393 -28.000219 7.425393
v -10.536392 -28.000223 7.822907
v -3.546215 -28.217073 5.099144
v -9.766025 -28.217070 7.822904
v -3.546210 -28.217066 7.822904
v -9.766023 -28.217070 5.099136
v -11.751044 -26.182386 7.425395
v -11.751044 -26.182386 7.822909
v -11.885484 -20.360872 7.822911
v -11.751052 -26.182383 5.951275
v -11.885491 -20.360872 5.099139
v -11.751053 -26.182386 5.099135
v -11.885484 -20.360872 7.822911
v -11.751044 -26.182386 7.822909
v -3.550481 -20.360872 7.822906
v -10.536392 -28.000223 7.822907
v -3.550477 -28.017099 7.822903
v -12.384471 -26.970503 7.425392
v -11.751044 -26.182386 7.425395
v -12.384470 -25.967413 7.425395
v -12.276266 -27.514498 7.425391
v -11.968108 -27.975695 7.425392
v -10.536393 -28.000219 7.425393
v -11.506928 -28.283842 7.425392
v -10.962923 -28.392069 7.425392
v -10.418919 -28.283846 7.425387
v -10.418926 -28.283846 5.951268
v -10.536393 -28.000219 7.425393
v -10.418919 -28.283846 7.425387
v -10.536400 -28.000216 5.951273
v -11.751052 -26.182383 5.951275
v -12.384470 -25.967413 7.425395
v -11.751044 -26.182386 7.425395
v -12.384477 -25.967409 5.951274
v -10.536393 -28.000219 7.425393
v -11.751044 -26.182386 7.822909
v -11.751044 -26.182386 7.425395
v -10.536392 -28.000223 7.822907
v -8.295187 -37.283836 5.951266
v -8.839190 -37.085060 5.951265
v -8.412662 -37.000214 5.951265
v -8.839190 -37.392059 5.951264
v -9.265712 -37.000221 5.951265
v -9.383201 -37.283829 5.951264
v -9.844383 -36.975685 5.951266
v -9.627310 -36.758614 5.951266
v -10.152530 -36.514488 5.951266
v -9.868915 -36.397018 5.951267
v -9.953755 -35.970482 5.951265
v -10.260743 -35.970490 5.951265
v -9.868914 -35.543976 5.951265
v -10.260736 -34.967400 5.951267
v -9.627310 -35.182373 5.951268
v -9.627312 -35.182373 5.099133
v -9.868914 -35.543976 5.951265
v -9.627310 -35.182373 5.951268
v -9.868915 -35.543968 5.099132
v -9.953755 -35.970482 5.951265
v -9.953756 -35.970482 5.099132
v -9.868915 -36.397018 5.951267
v -9.868916 -36.397018 5.099132
v -9.627311 -36.758614 5.099132
v -9.627310 -36.758614 5.951266
v -8.412662 -37.000214 5.951265
v -8.839191 -37.085052 5.099131
v -8.412662 -37.000206 5.099130
v -8.839190 -37.085060 5.951265
v -9.265713 -37.000221 5.099132
v -9.265712 -37.000221 5.951265
v -9.627310 -36.758614 5.951266
v -9.627311 -36.758614 5.099132
v -8.412662 -37.000214 5.951265
v -8.412662 -37.000206 5.099130
v -3.541942 -37.017090 5.099135
v -3.541936 -37.017090 7.822899
v -8.412663 -37.000214 7.425383
v -8.412663 -37.000214 7.822897
v -9.627311 -35.182373 7.425387
v -9.627313 -35.182373 7.822901
v -9.766025 -28.217070 7.822904
v -9.627310 -35.182373 5.951268
v -9.766023 -28.217070 5.099136
v -9.627312 -35.182373 5.099133
v -9.766025 -28.217070 7.822904
v -9.627313 -35.182373 7.822901
v -3.546210 -28.217066 7.822904
v -8.412663 -37.000214 7.822897
v -3.541936 -37.017090 7.822899
v -10.260736 -35.970490 7.425386
v -9.627311 -35.182373 7.425387
v -10.260732 -34.967400 7.425385
v -10.152536 -36.514481 7.425385
v -9.844379 -36.975685 7.425386
v -8.412663 -37.000214 7.425383
v -9.383197 -37.283829 7.425385
v -8.839193 -37.392059 7.425383
v -8.295189 -37.283836 7.425383
v -8.295187 -37.283836 5.951266
v -8.412663 -37.000214 7.425383
v -8.295189 -37.283836 7.425383
v -8.412662 -37.000214 5.951265
v -9.627310 -35.182373 5.951268
v -10.260732 -34.967400 7.425385
v -9.627311 -35.182373 7.425387
v -10.260736 -34.967400 5.951267
v -8.412663 -37.000214 7.425383
v -9.627313 -35.182373 7.822901
v -9.627311 -35.182373 7.425387
v -8.412663 -37.000214 7.822897
v -6.171454 -46.283829 5.951261
v -6.715458 -46.085045 5.951260
v -6.288929 -46.000198 5.951261
v -6.715456 -46.392044 5.951260
v -7.141980 -46.000214 5.951260
v -7.259469 -46.283829 5.951261
v -7.720652 -45.975677 5.951260
v -7.503580 -45.758606 5.951260
v -8.028799 -45.514481 5.951261
v -7.745183 -45.397018 5.951261
v -7.830023 -44.970474 5.951261
v -8.137010 -44.970490 5.951260
v -7.745182 -44.543968 5.951261
v -8.137004 -43.967392 5.951261
v -7.503578 -44.182365 5.951262
v -7.503580 -44.182358 5.099126
v -7.745182 -44.543968 5.951261
v -7.503578 -44.182365 5.951262
v -7.745183 -44.543968 5.099124
v -7.830023 -44.970474 5.951261
v -7.830024 -44.970474 5.099123
v -7.745183 -45.397018 5.951261
v -7.745184 -45.397018 5.099124
v -7.503581 -45.758614 5.099123
v -7.503580 -45.758606 5.951260
v -6.288929 -46.000198 5.951261
v -6.715459 -46.085052 5.099123
v -6.288929 -46.000198 5.099124
v -6.715458 -46.085045 5.951260
v -7.141980 -46.000214 5.099123
v -7.141980 -46.000214 5.951260
v -7.503580 -45.758606 5.951260
v -7.503581 -45.758614 5.099123
v -6.288929 -46.000198 5.951261
v -6.288929 -46.000198 5.099124
v -3.541935 -46.017082 5.099130
v -3.541931 -46.017075 7.822894
v -6.288930 -46.000198 7.425382
v -6.288929 -46.000198 7.822896
v -7.503581 -44.182365 7.425382
v -7.503582 -44.182358 7.822895
v -7.638021 -37.217056 7.822900
v -7.503578 -44.182365 5.951262
v -7.638017 -37.217056 5.099132
v -7.503580 -44.182358 5.099126
v -7.638021 -37.217056 7.822900
v -7.503582 -44.182358 7.822895
v -3.541935 -37.217056 7.822903
v -6.288929 -46.000198 7.822896
v -3.541931 -46.017075 7.822894
v -8.137011 -44.970490 7.425381
v -7.503581 -44.182365 7.425382
v -8.137008 -43.967392 7.425381
v -8.028806 -45.514481 7.425381
v -7.720646 -45.975677 7.425379
v -6.288930 -46.000198 7.425382
v -7.259464 -46.283829 7.425379
v -6.715460 -46.392052 7.425379
v -6.171455 -46.283829 7.425381
v -6.171454 -46.283829 5.951261
v -6.288930 -46.000198 7.425382
v -6.171455 -46.283829 7.425381
v -6.288929 -46.000198 5.951261
v -7.503578 -44.182365 5.951262
v -8.137008 -43.967392 7.425381
v -7.503581 -44.182365 7.425382
v -8.137004 -43.967392 5.951261
v -6.288930 -46.000198 7.425382
v -7.503582 -44.182358 7.822895
v -7.503581 -44.182365 7.425382
v -6.288929 -46.000198 7.822896
v -7.638017 -37.217056 5.099132
v -3.541935 -37.217056 7.822903
v -3.541938 -37.217056 5.099135
v -7.638021 -37.217056 7.822900
v -3.550488 -20.360865 5.099150
v -11.885484 -20.360872 7.822911
v -3.550481 -20.360872 7.822906
v -11.885491 -20.360872 5.099139
v -3.550481 -20.360872 7.822906
v -3.550483 -28.017103 5.099138
v -3.550488 -20.360865 5.099150
v -3.550477 -28.017099 7.822903
v -3.541935 -37.217056 7.822903
v -3.541935 -46.017082 5.099130
v -3.541938 -37.217056 5.099135
v -3.541931 -46.017075 7.822894
v -3.541936 -37.017090 7.822899
v -3.546215 -28.217073 5.099144
v -3.546210 -28.217066 7.822904
v -3.541942 -37.017090 5.099135
v -11.286452 -26.646933 5.099120
v -10.962893 -26.512911 5.188966
v -11.286452 -26.646933 5.188966
v -10.962893 -26.512911 5.099122
v -10.639334 -26.646944 5.188966
v -10.639334 -26.646944 5.099122
v -11.286452 -26.646933 5.188966
v -11.420470 -26.970484 5.099121
v -11.286452 -26.646933 5.099120
v -11.420470 -26.970484 5.188964
v -11.286452 -27.294046 5.099121
v -11.286452 -27.294046 5.188965
v -11.286452 -27.294046 5.188965
v -10.962890 -27.428080 5.099121
v -11.286452 -27.294046 5.099121
v -10.962890 -27.428080 5.188964
v -10.639333 -27.294046 5.099121
v -10.639333 -27.294046 5.188965
v -10.639333 -27.294046 5.188965
v -10.505316 -26.970484 5.099121
v -10.639333 -27.294046 5.099121
v -10.505316 -26.970484 5.188966
v -10.639334 -26.646944 5.099122
v -10.639334 -26.646944 5.188966
v -9.162719 -35.646927 5.099117
v -8.839161 -35.512909 5.188961
v -9.162719 -35.646927 5.188960
v -8.839161 -35.512909 5.099118
v -8.515600 -35.646942 5.188961
v -8.515600 -35.646942 5.099117
v -9.162719 -35.646927 5.188960
v -9.296739 -35.970482 5.099117
v -9.162719 -35.646927 5.099117
v -9.296739 -35.970482 5.188959
v -9.162718 -36.294044 5.099117
v -9.162718 -36.294044 5.188960
v -9.162718 -36.294044 5.188960
v -8.839158 -36.428078 5.099118
v -9.162718 -36.294044 5.099117
v -8.839158 -36.428078 5.188960
v -8.515600 -36.294044 5.099116
v -8.515599 -36.294044 5.188960
v -8.515599 -36.294044 5.188960
v -8.381583 -35.970482 5.099117
v -8.515600 -36.294044 5.099116
v -8.381582 -35.970482 5.188962
v -8.515600 -35.646942 5.099117
v -8.515600 -35.646942 5.188961
v -7.038986 -44.646927 5.099113
v -6.715427 -44.512909 5.188957
v -7.038986 -44.646927 5.188957
v -6.715427 -44.512909 5.099114
v -6.391867 -44.646942 5.188958
v -6.391867 -44.646942 5.099113
v -7.038986 -44.646927 5.188957
v -7.173004 -44.970474 5.099112
v -7.038986 -44.646927 5.099113
v -7.173004 -44.970474 5.188955
v -7.038986 -45.294044 5.099113
v -7.038986 -45.294044 5.188956
v -7.038986 -45.294044 5.188956
v -6.715425 -45.428085 5.099113
v -7.038986 -45.294044 5.099113
v -6.715425 -45.428085 5.188955
v -6.391867 -45.294052 5.099113
v -6.391867 -45.294052 5.188956
v -6.391867 -45.294052 5.188956
v -6.257849 -44.970482 5.099113
v -6.391867 -45.294052 5.099113
v -6.257849 -44.970482 5.188957
v -6.391867 -44.646942 5.099113
v -6.391867 -44.646942 5.188958
v 10.962939 -28.085070 5.951273
v 10.418936 -28.283846 5.951268
v 10.536408 -28.000216 5.951273
v 10.962938 -28.392069 5.951273
v 11.389461 -28.000231 5.951273
v 11.506949 -28.283842 5.951273
v 11.968131 -27.975695 5.951273
v 11.751059 -27.758623 5.951273
v 12.276279 -27.514498 5.951272
v 11.992663 -27.397036 5.951273
v 12.077502 -26.970491 5.951275
v 12.384487 -26.970507 5.951275
v 11.992661 -26.543982 5.951275
v 12.384485 -25.967409 5.951274
v 11.751060 -26.182383 5.951275
v 11.992661 -26.543982 5.951275
v 11.751060 -26.182386 5.099135
v 11.751060 -26.182383 5.951275
v 11.992662 -26.543985 5.099135
v 12.077502 -26.970491 5.951275
v 12.077502 -26.970495 5.099134
v 11.992663 -27.397036 5.951273
v 11.992663 -27.397036 5.099134
v 11.751060 -27.758627 5.099133
v 11.751059 -27.758623 5.951273
v 10.962939 -28.085070 5.099133
v 10.536408 -28.000216 5.951273
v 10.536410 -28.000219 5.099134
v 10.962939 -28.085070 5.951273
v 11.389462 -28.000235 5.099133
v 11.389461 -28.000231 5.951273
v 11.751059 -27.758623 5.951273
v 11.751060 -27.758627 5.099133
v 10.536408 -28.000216 5.951273
v 3.550493 -28.017103 5.099138
v 10.536410 -28.000219 5.099134
v 3.550486 -28.017099 7.822903
v 10.536403 -28.000219 7.425393
v 10.536402 -28.000223 7.822907
v 3.546225 -28.217073 5.099144
v 9.766033 -28.217070 7.822904
v 9.766031 -28.217070 5.099136
v 3.546219 -28.217066 7.822904
v 11.751053 -26.182386 7.425395
v 11.885492 -20.360872 7.822911
v 11.751053 -26.182386 7.822909
v 11.751060 -26.182383 5.951275
v 11.885499 -20.360872 5.099139
v 11.751060 -26.182386 5.099135
v 11.885492 -20.360872 7.822911
v 3.550490 -20.360872 7.822906
v 11.751053 -26.182386 7.822909
v 10.536402 -28.000223 7.822907
v 3.550486 -28.017099 7.822903
v 12.384479 -26.970503 7.425392
v 12.384478 -25.967413 7.425395
v 11.751053 -26.182386 7.425395
v 12.276275 -27.514498 7.425391
v 11.968118 -27.975695 7.425392
v 10.536403 -28.000219 7.425393
v 11.506937 -28.283842 7.425392
v 10.962933 -28.392069 7.425392
v 10.418928 -28.283846 7.425387
v 10.418936 -28.283846 5.951268
v 10.536403 -28.000219 7.425393
v 10.536408 -28.000216 5.951273
v 10.418928 -28.283846 7.425387
v 11.751060 -26.182383 5.951275
v 12.384478 -25.967413 7.425395
v 12.384485 -25.967409 5.951274
v 11.751053 -26.182386 7.425395
v 10.536403 -28.000219 7.425393
v 11.751053 -26.182386 7.822909
v 10.536402 -28.000223 7.822907
v 11.751053 -26.182386 7.425395
v 8.839199 -37.085052 5.951265
v 8.295197 -37.283836 5.951266
v 8.412669 -37.000214 5.951265
v 8.839199 -37.392059 5.951264
v 9.265719 -37.000221 5.951265
v 9.383209 -37.283829 5.951264
v 9.844391 -36.975685 5.951266
v 9.627319 -36.758614 5.951266
v 10.152538 -36.514488 5.951266
v 9.868923 -36.397018 5.951267
v 9.953765 -35.970482 5.951265
v 10.260752 -35.970490 5.951265
v 9.868923 -35.543968 5.951265
v 10.260746 -34.967400 5.951267
v 9.627318 -35.182373 5.951268
v 9.868923 -35.543968 5.951265
v 9.627320 -35.182365 5.099133
v 9.627318 -35.182373 5.951268
v 9.868923 -35.543968 5.099132
v 9.953765 -35.970482 5.951265
v 9.953766 -35.970482 5.099132
v 9.868923 -36.397018 5.951267
v 9.868925 -36.397018 5.099132
v 9.627320 -36.758614 5.099132
v 9.627319 -36.758614 5.951266
v 8.839199 -37.085052 5.099131
v 8.412669 -37.000214 5.951265
v 8.412669 -37.000206 5.099130
v 8.839199 -37.085052 5.951265
v 9.265720 -37.000221 5.099132
v 9.265719 -37.000221 5.951265
v 9.627319 -36.758614 5.951266
v 9.627320 -36.758614 5.099132
v 8.412669 -37.000214 5.951265
v 3.541951 -37.017090 5.099135
v 8.412669 -37.000206 5.099130
v 3.541946 -37.017090 7.822899
v 8.412672 -37.000214 7.425383
v 8.412671 -37.000214 7.822897
v 9.627319 -35.182373 7.425387
v 9.766033 -28.217070 7.822904
v 9.627321 -35.182373 7.822901
v 9.627318 -35.182373 5.951268
v 9.766031 -28.217070 5.099136
v 9.627320 -35.182365 5.099133
v 9.766033 -28.217070 7.822904
v 3.546219 -28.217066 7.822904
v 9.627321 -35.182373 7.822901
v 8.412671 -37.000214 7.822897
v 3.541946 -37.017090 7.822899
v 10.260745 -35.970490 7.425386
v 10.260741 -34.967400 7.425385
v 9.627319 -35.182373 7.425387
v 10.152545 -36.514481 7.425385
v 9.844387 -36.975685 7.425386
v 8.412672 -37.000214 7.425383
v 9.383205 -37.283829 7.425385
v 8.839202 -37.392059 7.425383
v 8.295197 -37.283836 7.425383
v 8.295197 -37.283836 5.951266
v 8.412672 -37.000214 7.425383
v 8.412669 -37.000214 5.951265
v 8.295197 -37.283836 7.425383
v 9.627318 -35.182373 5.951268
v 10.260741 -34.967400 7.425385
v 10.260746 -34.967400 5.951267
v 9.627319 -35.182373 7.425387
v 8.412672 -37.000214 7.425383
v 9.627321 -35.182373 7.822901
v 8.412671 -37.000214 7.822897
v 9.627319 -35.182373 7.425387
v 6.715469 -46.085045 5.951260
v 6.171465 -46.283829 5.951261
v 6.288939 -46.000198 5.951261
v 6.715467 -46.392044 5.951260
v 7.141990 -46.000214 5.951260
v 7.259479 -46.283829 5.951261
v 7.720662 -45.975677 5.951260
v 7.503590 -45.758606 5.951260
v 8.028809 -45.514481 5.951261
v 7.745193 -45.397018 5.951261
v 7.830033 -44.970474 5.951261
v 8.137018 -44.970490 5.951260
v 7.745191 -44.543968 5.951261
v 8.137012 -43.967392 5.951261
v 7.503587 -44.182365 5.951262
v 7.745191 -44.543968 5.951261
v 7.503589 -44.182358 5.099126
v 7.503587 -44.182365 5.951262
v 7.745193 -44.543968 5.099124
v 7.830033 -44.970474 5.951261
v 7.830034 -44.970474 5.099123
v 7.745193 -45.397018 5.951261
v 7.745194 -45.397018 5.099124
v 7.503590 -45.758614 5.099123
v 7.503590 -45.758606 5.951260
v 6.715469 -46.085052 5.099123
v 6.288939 -46.000198 5.951261
v 6.288939 -46.000198 5.099124
v 6.715469 -46.085045 5.951260
v 7.141991 -46.000214 5.099123
v 7.141990 -46.000214 5.951260
v 7.503590 -45.758606 5.951260
v 7.503590 -45.758614 5.099123
v 6.288939 -46.000198 5.951261
v 3.541945 -46.017082 5.099130
v 6.288939 -46.000198 5.099124
v 3.541941 -46.017075 7.822894
v 6.288940 -46.000198 7.425382
v 6.288940 -46.000198 7.822896
v 7.503590 -44.182365 7.425382
v 7.638031 -37.217056 7.822900
v 7.503592 -44.182358 7.822895
v 7.503587 -44.182365 5.951262
v 7.638027 -37.217064 5.099132
v 7.503589 -44.182358 5.099126
v 7.638031 -37.217056 7.822900
v 3.541945 -37.217056 7.822903
v 7.503592 -44.182358 7.822895
v 6.288940 -46.000198 7.822896
v 3.541941 -46.017075 7.822894
v 8.137019 -44.970490 7.425381
v 8.137015 -43.967392 7.425381
v 7.503590 -44.182365 7.425382
v 8.028815 -45.514481 7.425381
v 7.720657 -45.975677 7.425379
v 6.288940 -46.000198 7.425382
v 7.259474 -46.283829 7.425379
v 6.715470 -46.392052 7.425379
v 6.171465 -46.283829 7.425381
v 6.171465 -46.283829 5.951261
v 6.288940 -46.000198 7.425382
v 6.288939 -46.000198 5.951261
v 6.171465 -46.283829 7.425381
v 7.503587 -44.182365 5.951262
v 8.137015 -43.967392 7.425381
v 8.137012 -43.967392 5.951261
v 7.503590 -44.182365 7.425382
v 6.288940 -46.000198 7.425382
v 7.503592 -44.182358 7.822895
v 6.288940 -46.000198 7.822896
v 7.503590 -44.182365 7.425382
v 7.638027 -37.217064 5.099132
v 3.541945 -37.217056 7.822903
v 7.638031 -37.217056 7.822900
v 3.541948 -37.217056 5.099135
v 3.550497 -20.360865 5.099150
v 11.885492 -20.360872 7.822911
v 11.885499 -20.360872 5.099139
v 3.550490 -20.360872 7.822906
v 3.550490 -20.360872 7.822906
v 3.550493 -28.017103 5.099138
v 3.550486 -28.017099 7.822903
v 3.550497 -20.360865 5.099150
v 3.541945 -37.217056 7.822903
v 3.541945 -46.017082 5.099130
v 3.541941 -46.017075 7.822894
v 3.541948 -37.217056 5.099135
v 3.541946 -37.017090 7.822899
v 3.546225 -28.217073 5.099144
v 3.541951 -37.017090 5.099135
v 3.546219 -28.217066 7.822904
v 10.962902 -26.512911 5.188966
v 11.286460 -26.646933 5.099120
v 11.286460 -26.646933 5.188966
v 10.962902 -26.512911 5.099122
v 10.639342 -26.646944 5.188966
v 10.639342 -26.646944 5.099122
v 11.420479 -26.970484 5.099121
v 11.286460 -26.646933 5.188966
v 11.286460 -26.646933 5.099120
v 11.420479 -26.970484 5.188964
v 11.286460 -27.294046 5.099121
v 11.286460 -27.294046 5.188965
v 10.962898 -27.428080 5.099121
v 11.286460 -27.294046 5.188965
v 11.286460 -27.294046 5.099121
v 10.962898 -27.428080 5.188964
v 10.639341 -27.294046 5.099121
v 10.639341 -27.294046 5.188965
v 10.505323 -26.970484 5.099121
v 10.639341 -27.294046 5.188965
v 10.639341 -27.294046 5.099121
v 10.505323 -26.970484 5.188966
v 10.639342 -26.646944 5.099122
v 10.639342 -26.646944 5.188966
v 8.839170 -35.512909 5.188961
v 9.162728 -35.646927 5.099117
v 9.162728 -35.646927 5.188960
v 8.839170 -35.512909 5.099118
v 8.515610 -35.646942 5.188961
v 8.515610 -35.646942 5.099117
v 9.296747 -35.970482 5.099117
v 9.162728 -35.646927 5.188960
v 9.162728 -35.646927 5.099117
v 9.296747 -35.970482 5.188959
v 9.162727 -36.294044 5.099117
v 9.162727 -36.294044 5.188960
v 8.839167 -36.428078 5.099118
v 9.162727 -36.294044 5.188960
v 9.162727 -36.294044 5.099117
v 8.839167 -36.428078 5.188960
v 8.515610 -36.294044 5.099116
v 8.515609 -36.294044 5.188960
v 8.381593 -35.970482 5.099117
v 8.515609 -36.294044 5.188960
v 8.515610 -36.294044 5.099116
v 8.381592 -35.970482 5.188962
v 8.515610 -35.646942 5.099117
v 8.515610 -35.646942 5.188961
v 6.715437 -44.512909 5.188957
v 7.038995 -44.646927 5.099113
v 7.038995 -44.646927 5.188957
v 6.715437 -44.512909 5.099114
v 6.391877 -44.646942 5.188958
v 6.391877 -44.646942 5.099113
v 7.173014 -44.970474 5.099112
v 7.038995 -44.646927 5.188957
v 7.038995 -44.646927 5.099113
v 7.173014 -44.970474 5.188955
v 7.038995 -45.294044 5.099113
v 7.038995 -45.294044 5.188956
v 6.715436 -45.428085 5.099113
v 7.038995 -45.294044 5.188956
v 7.038995 -45.294044 5.099113
v 6.715436 -45.428085 5.188955
v 6.391877 -45.294052 5.099113
v 6.391877 -45.294052 5.188956
v 6.257859 -44.970482 5.099113
v 6.391877 -45.294052 5.188956
v 6.391877 -45.294052 5.099113
v 6.257859 -44.970482 5.188957
v 6.391877 -44.646942 5.099113
v 6.391877 -44.646942 5.188958
v -11.286452 -26.646933 5.188966
v -10.962893 -26.512911 5.188966
v -10.962893 -26.970484 5.188965
v -11.420470 -26.970484 5.188964
v -10.639334 -26.646944 5.188966
v -11.286452 -27.294046 5.188965
v -10.505316 -26.970484 5.188966
v -10.962890 -27.428080 5.188964
v -10.639333 -27.294046 5.188965
v -9.162719 -35.646927 5.188960
v -8.839161 -35.512909 5.188961
v -8.839161 -35.970482 5.188960
v -9.296739 -35.970482 5.188959
v -8.515600 -35.646942 5.188961
v -9.162718 -36.294044 5.188960
v -8.381582 -35.970482 5.188962
v -8.839158 -36.428078 5.188960
v -8.515599 -36.294044 5.188960
v -7.038986 -44.646927 5.188957
v -6.715427 -44.512909 5.188957
v -6.715427 -44.970482 5.188957
v -7.173004 -44.970474 5.188955
v -6.391867 -44.646942 5.188958
v -7.038986 -45.294044 5.188956
v -6.257849 -44.970482 5.188957
v -6.715425 -45.428085 5.188955
v -6.391867 -45.294052 5.188956
v 11.286460 -26.646933 5.188966
v 10.962902 -26.970484 5.188965
v 10.962902 -26.512911 5.188966
v 11.420479 -26.970484 5.188964
v 10.639342 -26.646944 5.188966
v 11.286460 -27.294046 5.188965
v 10.505323 -26.970484 5.188966
v 10.962898 -27.428080 5.188964
v 10.639341 -27.294046 5.188965
v 9.162728 -35.646927 5.188960
v 8.839170 -35.970482 5.188960
v 8.839170 -35.512909 5.188961
v 9.296747 -35.970482 5.188959
v 8.515610 -35.646942 5.188961
v 9.162727 -36.294044 5.188960
v 8.381592 -35.970482 5.188962
v 8.839167 -36.428078 5.188960
v 8.515609 -36.294044 5.188960
v 7.038995 -44.646927 5.188957
v 6.715437 -44.970482 5.188957
v 6.715437 -44.512909 5.188957
v 7.173014 -44.970474 5.188955
v 6.391877 -44.646942 5.188958
v 7.038995 -45.294044 5.188956
v 6.257859 -44.970482 5.188957
v 6.715436 -45.428085 5.188955
v 6.391877 -45.294052 5.188956
vn -0.0000 -0.0000 1.0000
vn 0.8315 -0.5556 -0.0000
vn 0.9239 -0.3827 -0.0000
vn 1.0000 -0.0000 -0.0000
vn 0.9239 0.3827 -0.0000
vn 0.7071 0.7071 -0.0000
vn -0.1951 0.9808 -0.0000
vn -0.0000 1.0000 -0.0000
vn 0.3827 0.9239 -0.0000
vn 0.7071 0.7072 -0.0000
vn 0.0024 1.0000 -0.0000
vn -0.0000 -1.0000 -0.0000
vn 0.9997 0.0231 -0.0000
vn -0.0000 -0.0000 -1.0000
vn -0.9239 -0.3827 -0.0000
vn -0.3214 -0.9470 -0.0000
vn -0.3214 -0.9469 -0.0000
vn 0.8315 0.5556 -0.0000
vn 0.0035 1.0000 -0.0000
vn 0.9998 0.0199 -0.0000
vn 0.8315 -0.5555 -0.0000
vn 0.0061 1.0000 -0.0000
vn 0.9998 0.0193 -0.0000
vn -1.0000 -0.0000 -0.0000
vn -1.0000 -0.0005 -0.0000
vn -0.7071 0.7071 -0.0000
vn -0.7071 -0.7071 -0.0000
vn -0.7071 -0.7071 0.0001
vn 0.7071 -0.7071 -0.0000
vn 0.7071 -0.7071 -0.0001
vn -0.7072 -0.7071 -0.0000
vn 0.7072 -0.7071 -0.0000
vn -0.8315 -0.5556 -0.0000
vn -0.9239 0.3827 -0.0000
vn 0.1951 0.9808 -0.0000
vn -0.3827 0.9239 -0.0000
vn -0.0024 1.0000 -0.0000
vn -0.9997 0.0231 -0.0000
vn 0.3214 -0.9469 -0.0000
vn 0.3214 -0.9470 -0.0000
vn -0.8315 0.5556 -0.0000
vn -0.0035 1.0000 -0.0000
vn -0.9998 0.0199 -0.0000
vn -0.8315 -0.5555 -0.0000
vn -0.7071 0.7072 -0.0000
vn -0.0061 1.0000 -0.0000
vn -0.9998 0.0193 -0.0000
vn 1.0000 -0.0005 -0.0000
vn -0.7071 -0.7071 -0.0002
vn -0.7071 0.7071 -0.0001
vt 0.658615 -19.238899
vt 0.665039 -19.237614
vt 0.656846 -19.234602
vt 0.665039 -19.232962
vt 0.671462 -19.238899
vt 0.673231 -19.234602
vt 0.680176 -19.239271
vt 0.676907 -19.242561
vt 0.684817 -19.246260
vt 0.680546 -19.248039
vt 0.681823 -19.254503
vt 0.686446 -19.254503
vt 0.680546 -19.260967
vt 0.686446 -19.269703
vt 0.676907 -19.266445
vt 20.266445 0.305377
vt 20.260967 0.305377
vt 20.266445 0.292514
vt 20.260967 0.292514
vt 20.254503 0.305377
vt 20.254503 0.292514
vt 20.248039 0.305377
vt 20.248039 0.292514
vt 20.242561 0.292514
vt 20.242561 0.305377
vt 0.658615 0.292514
vt 0.665039 0.292514
vt 0.658615 0.305377
vt 0.665039 0.305377
vt 0.671462 0.292514
vt 0.671462 0.305377
vt 0.676907 0.305377
vt 0.676907 0.292514
vt 0.553413 0.292514
vt 0.553413 0.333628
vt 0.658615 0.327628
vt 0.658615 0.333628
vt 0.446652 0.333628
vt 0.352986 0.333628
vt 0.446652 0.292514
vt 0.352986 0.292514
vt 20.354662 0.333628
vt 20.266445 0.333628
vt 20.266445 0.327628
vt 20.354662 0.292514
vt 0.446588 -19.354662
vt 0.323093 -19.266445
vt 0.321069 -19.354662
vt 0.341385 -19.238899
vt 0.446587 -19.238644
vt 0.313554 -19.269703
vt 0.313554 -19.254503
vt 0.315183 -19.246260
vt 0.319824 -19.239271
vt 0.341385 -19.238899
vt 0.326769 -19.234602
vt 0.334961 -19.232962
vt 0.343154 -19.234602
vt -19.234602 0.327628
vt -19.238899 0.327628
vt -19.234602 0.305377
vt -19.238899 0.305377
vt 0.323093 0.327628
vt 0.313554 0.327628
vt 0.323093 0.305377
vt 0.313554 0.305377
vt 20.238899 0.327628
vt 20.238899 0.333628
vt 0.626634 -19.102520
vt 0.633057 -19.101234
vt 0.624865 -19.098223
vt 0.633057 -19.096582
vt 0.639480 -19.102520
vt 0.641250 -19.098223
vt 0.648195 -19.102892
vt 0.644926 -19.106180
vt 0.652835 -19.109880
vt 0.648564 -19.111660
vt 0.649842 -19.118124
vt 0.654465 -19.118124
vt 0.648564 -19.124586
vt 0.654464 -19.133324
vt 0.644926 -19.130066
vt 20.130066 0.305377
vt 20.124586 0.305377
vt 20.130066 0.292514
vt 20.124586 0.292514
vt 20.118124 0.305377
vt 20.118124 0.292514
vt 20.111660 0.305377
vt 20.111660 0.292514
vt 20.106180 0.292514
vt 20.106180 0.305377
vt 0.626634 0.292514
vt 0.633057 0.292514
vt 0.626634 0.305377
vt 0.633057 0.305377
vt 0.639480 0.292514
vt 0.639480 0.305377
vt 0.644926 0.305377
vt 0.644926 0.292514
vt 0.553284 0.292514
vt 0.553284 0.333628
vt 0.626634 0.327628
vt 0.626634 0.333628
vt 20.235615 0.333628
vt 20.130066 0.333628
vt 20.130066 0.327628
vt 20.235615 0.292514
vt 0.446652 -19.235615
vt 0.355074 -19.130066
vt 0.352986 -19.235615
vt 0.373366 -19.102520
vt 0.446716 -19.102264
vt 0.345536 -19.133324
vt 0.345535 -19.118124
vt 0.347165 -19.109880
vt 0.351805 -19.102892
vt 0.358751 -19.098223
vt 0.366943 -19.096582
vt 0.375135 -19.098223
vt -19.098223 0.327628
vt -19.102520 0.327628
vt -19.098223 0.305377
vt -19.102520 0.305377
vt 0.355074 0.327628
vt 0.345536 0.327628
vt 0.355074 0.305377
vt 0.345536 0.305377
vt 20.102520 0.327628
vt 20.102520 0.333628
vt 0.594652 -18.966141
vt 0.601076 -18.964855
vt 0.592883 -18.961842
vt 0.601076 -18.960201
vt 0.607499 -18.966141
vt 0.609268 -18.961842
vt 0.616213 -18.966511
vt 0.612944 -18.969801
vt 0.620854 -18.973501
vt 0.616583 -18.975281
vt 0.617860 -18.981743
vt 0.622483 -18.981743
vt 0.616582 -18.988207
vt 0.622483 -18.996944
vt 0.612944 -18.993687
vt 19.993687 0.305376
vt 19.988207 0.305376
vt 19.993687 0.292514
vt 19.988207 0.292514
vt 19.981743 0.305376
vt 19.981743 0.292514
vt 19.975281 0.305376
vt 19.975281 0.292514
vt 19.969801 0.292514
vt 19.969801 0.305376
vt 0.594652 0.292514
vt 0.601076 0.292514
vt 0.594652 0.305376
vt 0.601076 0.305376
vt 0.607499 0.292514
vt 0.607499 0.305376
vt 0.612944 0.305376
vt 0.612944 0.292514
vt 0.553285 0.292514
vt 0.553285 0.333628
vt 0.594652 0.327628
vt 0.594652 0.333628
vt 20.099234 0.333628
vt 19.993687 0.333628
vt 19.993687 0.327628
vt 20.099234 0.292514
vt 0.446716 -19.099234
vt 0.387056 -18.993687
vt 0.385032 -19.099234
vt 0.405348 -18.966141
vt 0.446715 -18.965885
vt 0.377517 -18.996944
vt 0.377517 -18.981743
vt 0.379146 -18.973501
vt 0.383787 -18.966511
vt 0.390732 -18.961842
vt 0.398924 -18.960201
vt 0.407117 -18.961842
vt -18.961842 0.327628
vt -18.966141 0.327628
vt -18.961842 0.305376
vt -18.966141 0.305376
vt 0.387056 0.327628
vt 0.377517 0.327628
vt 0.387056 0.305376
vt 0.377517 0.305376
vt 19.966141 0.327628
vt 19.966141 0.333628
vt 0.446716 0.292514
vt 0.446716 0.333628
vt 0.385032 0.292514
vt 0.385032 0.333628
vt 0.446588 0.333628
vt 0.321069 0.333628
vt 0.446588 0.292514
vt 0.321069 0.292514
vt -19.354662 0.292514
vt -19.238644 0.292514
vt -19.354662 0.333628
vt -19.238644 0.333628
vt -19.099234 0.292514
vt -18.965883 0.292514
vt -19.099234 0.333628
vt -18.965885 0.333628
vt -19.235615 0.333628
vt -19.235613 0.292514
vt -19.102264 0.333628
vt -19.102264 0.292514
vt 0.669911 0.293870
vt 0.665038 0.293870
vt 0.669911 0.292514
vt 0.665038 0.292514
vt 0.660166 0.293870
vt 0.660166 0.292514
vt -19.259407 0.292514
vt -19.254503 0.292514
vt -19.259407 0.293870
vt -19.254503 0.293870
vt -19.249601 0.292514
vt -19.249601 0.293870
vt 0.330089 0.292514
vt 0.334962 0.292514
vt 0.330089 0.293870
vt 0.334962 0.293870
vt 0.339834 0.292514
vt 0.339834 0.293870
vt 20.249601 0.292514
vt 20.254503 0.292514
vt 20.249601 0.293870
vt 20.254503 0.293870
vt 20.259407 0.292514
vt 20.259407 0.293870
vt 0.637929 0.293870
vt 0.633057 0.293870
vt 0.637929 0.292514
vt 0.633057 0.292514
vt 0.628184 0.293870
vt 0.628184 0.292514
vt -19.123026 0.292514
vt -19.118124 0.292514
vt -19.123026 0.293870
vt -19.118124 0.293870
vt -19.113220 0.292514
vt -19.113220 0.293870
vt 0.362071 0.292514
vt 0.366943 0.292514
vt 0.362071 0.293870
vt 0.366943 0.293870
vt 0.371816 0.292514
vt 0.371816 0.293870
vt 20.113220 0.292514
vt 20.118124 0.292514
vt 20.113220 0.293870
vt 20.118124 0.293870
vt 20.123026 0.292514
vt 20.123026 0.293870
vt 0.605948 0.293870
vt 0.601075 0.293870
vt 0.605948 0.292514
vt 0.601075 0.292514
vt 0.596203 0.293870
vt 0.596203 0.292514
vt -18.986647 0.292514
vt -18.981743 0.292514
vt -18.986647 0.293870
vt -18.981743 0.293870
vt -18.976841 0.292514
vt -18.976841 0.293870
vt 0.394052 0.292514
vt 0.398925 0.292514
vt 0.394052 0.293870
vt 0.398925 0.293870
vt 0.403797 0.292514
vt 0.403797 0.293870
vt 19.976841 0.292514
vt 19.981743 0.292514
vt 19.976841 0.293870
vt 19.981743 0.293870
vt 19.986647 0.292514
vt 19.986647 0.293870
vt 0.341274 -19.238899
vt 0.343043 -19.234602
vt 0.334851 -19.237614
vt 0.334851 -19.232962
vt 0.328428 -19.238899
vt 0.326659 -19.234602
vt 0.319714 -19.239271
vt 0.322982 -19.242561
vt 0.315073 -19.246260
vt 0.319344 -19.248039
vt 0.318066 -19.254503
vt 0.313443 -19.254503
vt 0.319344 -19.260967
vt 0.313443 -19.269703
vt 0.322982 -19.266445
vt -19.266445 0.305377
vt -19.266445 0.292514
vt -19.260967 0.305377
vt -19.260967 0.292514
vt -19.254503 0.305377
vt -19.254503 0.292514
vt -19.248039 0.305377
vt -19.248039 0.292514
vt -19.242561 0.292514
vt -19.242561 0.305377
vt 0.341274 0.292514
vt 0.341274 0.305377
vt 0.334851 0.292514
vt 0.334851 0.305377
vt 0.328428 0.292514
vt 0.328428 0.305377
vt 0.322982 0.305377
vt 0.322982 0.292514
vt 0.446477 0.292514
vt 0.446477 0.333628
vt 0.341274 0.327628
vt 0.341274 0.333628
vt 0.647124 0.292514
vt 0.647124 0.333628
vt 0.553459 0.292514
vt 0.553459 0.333628
vt -19.266445 0.333628
vt -19.354662 0.333628
vt -19.266445 0.327628
vt -19.354662 0.292514
vt 0.677018 -19.266445
vt 0.553523 -19.354662
vt 0.679042 -19.354662
vt 0.658726 -19.238899
vt 0.553523 -19.238644
vt 0.686556 -19.269703
vt 0.686556 -19.254503
vt 0.684927 -19.246260
vt 0.680286 -19.239271
vt 0.658726 -19.238899
vt 0.673341 -19.234602
vt 0.665149 -19.232962
vt 0.656957 -19.234602
vt 20.238899 0.305377
vt 20.238899 0.327628
vt 20.234602 0.305377
vt 20.234602 0.327628
vt 0.686557 0.305377
vt 0.686556 0.327628
vt 0.677018 0.305377
vt 0.677018 0.327628
vt -19.238899 0.333628
vt -19.238899 0.327628
vt 0.373257 -19.102520
vt 0.375026 -19.098223
vt 0.366833 -19.101234
vt 0.366833 -19.096582
vt 0.360410 -19.102520
vt 0.358641 -19.098223
vt 0.351696 -19.102892
vt 0.354965 -19.106180
vt 0.347055 -19.109880
vt 0.351326 -19.111660
vt 0.350049 -19.118124
vt 0.345426 -19.118124
vt 0.351326 -19.124586
vt 0.345426 -19.133324
vt 0.354965 -19.130066
vt -19.130066 0.305377
vt -19.130066 0.292514
vt -19.124586 0.305377
vt -19.124586 0.292514
vt -19.118124 0.305377
vt -19.118124 0.292514
vt -19.111660 0.305377
vt -19.111660 0.292514
vt -19.106180 0.292514
vt -19.106180 0.305377
vt 0.373257 0.292514
vt 0.373257 0.305377
vt 0.366833 0.292514
vt 0.366833 0.305377
vt 0.360410 0.292514
vt 0.360410 0.305377
vt 0.354965 0.305377
vt 0.354965 0.292514
vt 0.446606 0.292514
vt 0.446606 0.333628
vt 0.373257 0.327628
vt 0.373257 0.333628
vt -19.130066 0.333628
vt -19.235613 0.333628
vt -19.130066 0.327628
vt -19.235613 0.292514
vt 0.645035 -19.130066
vt 0.553459 -19.235615
vt 0.647124 -19.235613
vt 0.626743 -19.102520
vt 0.553394 -19.102264
vt 0.645035 -19.130066
vt 0.654574 -19.133324
vt 0.654574 -19.118124
vt 0.652945 -19.109880
vt 0.648304 -19.102892
vt 0.641359 -19.098223
vt 0.633167 -19.096582
vt 0.624974 -19.098223
vt 20.102520 0.305377
vt 20.098223 0.305377
vt 20.098223 0.327628
vt 0.654574 0.305377
vt 0.654574 0.327628
vt 0.645035 0.305377
vt 0.645035 0.327628
vt -19.102520 0.333628
vt 0.405239 -18.966141
vt 0.407008 -18.961842
vt 0.398816 -18.964855
vt 0.398816 -18.960201
vt 0.392393 -18.966139
vt 0.390623 -18.961842
vt 0.383678 -18.966511
vt 0.386947 -18.969801
vt 0.379038 -18.973501
vt 0.383309 -18.975281
vt 0.382031 -18.981743
vt 0.377408 -18.981743
vt 0.383309 -18.988207
vt 0.377408 -18.996944
vt 0.386947 -18.993687
vt -18.993687 0.305376
vt -18.993687 0.292514
vt -18.988207 0.305376
vt -18.988207 0.292514
vt -18.981743 0.305376
vt -18.981743 0.292514
vt -18.975281 0.305376
vt -18.975281 0.292514
vt -18.969801 0.292514
vt -18.969801 0.305376
vt 0.405239 0.292514
vt 0.405239 0.305376
vt 0.398816 0.292514
vt 0.398816 0.305376
vt 0.392392 0.292514
vt 0.392393 0.305376
vt 0.386947 0.305376
vt 0.386947 0.292514
vt 0.446607 0.292514
vt 0.446607 0.333628
vt 0.405239 0.327628
vt 0.405239 0.333628
vt -18.993687 0.333628
vt -19.099234 0.333628
vt -18.993687 0.327628
vt -19.099234 0.292514
vt 0.613053 -18.993687
vt 0.553394 -19.099234
vt 0.615078 -19.099234
vt 0.594761 -18.966141
vt 0.553393 -18.965885
vt 0.622592 -18.996944
vt 0.622592 -18.981743
vt 0.620963 -18.973501
vt 0.616322 -18.966511
vt 0.609377 -18.961842
vt 0.601184 -18.960201
vt 0.592992 -18.961842
vt 19.966141 0.305376
vt 19.966141 0.327628
vt 19.961842 0.305376
vt 19.961842 0.327628
vt 0.622592 0.305376
vt 0.622592 0.327628
vt 0.613053 0.305376
vt 0.613053 0.327628
vt -18.966141 0.333628
vt -18.966141 0.327628
vt 0.615078 0.333628
vt 0.553394 0.333628
vt 0.615078 0.292514
vt 0.553394 0.292514
vt 0.679042 0.292514
vt 0.679042 0.333628
vt 0.553523 0.292514
vt 0.553523 0.333628
vt 20.238644 0.333628
vt 20.238644 0.292514
vt 20.354662 0.333628
vt 20.354662 0.292514
vt 19.965885 0.333628
vt 19.965883 0.292514
vt 20.099234 0.333628
vt 20.099234 0.292514
vt 20.102264 0.292514
vt 20.235613 0.292514
vt 20.102264 0.333628
vt 20.235615 0.333628
vt 0.329979 0.293870
vt 0.329979 0.292514
vt 0.334851 0.293870
vt 0.334851 0.292514
vt 0.339724 0.293870
vt 0.339724 0.292514
vt 20.259407 0.292514
vt 20.259407 0.293870
vt 20.254503 0.292514
vt 20.249601 0.292514
vt 20.249601 0.293870
vt 0.670021 0.292514
vt 0.670021 0.293870
vt 0.665148 0.292514
vt 0.665148 0.293870
vt 0.660276 0.292514
vt 0.660276 0.293870
vt -19.249601 0.292514
vt -19.249601 0.293870
vt -19.254503 0.292514
vt -19.254503 0.293870
vt -19.259407 0.292514
vt -19.259407 0.293870
vt 0.361961 0.293870
vt 0.361961 0.292514
vt 0.366834 0.293870
vt 0.366834 0.292514
vt 0.371706 0.293870
vt 0.371706 0.292514
vt 20.123026 0.292514
vt 20.118124 0.292514
vt 20.113220 0.292514
vt 0.638039 0.292514
vt 0.638039 0.293870
vt 0.633166 0.292514
vt 0.633166 0.293870
vt 0.628294 0.292514
vt 0.628294 0.293870
vt -19.113220 0.292514
vt -19.118124 0.292514
vt -19.118124 0.293870
vt -19.123026 0.292514
vt -19.123026 0.293870
vt 0.393943 0.293870
vt 0.393943 0.292514
vt 0.398816 0.293870
vt 0.398816 0.292514
vt 0.403689 0.293870
vt 0.403689 0.292514
vt 19.976841 0.293870
vt 0.606057 0.292514
vt 0.606057 0.293870
vt 0.601184 0.292514
vt 0.601184 0.293870
vt 0.596311 0.292514
vt 0.596311 0.293870
vt -18.976841 0.293870
vt -18.981743 0.292514
vt -18.981743 0.293870
vt -18.986647 0.292514
vt -18.986647 0.293870
vt 0.665038 -19.254503
vt 0.665038 -19.261438
vt 0.669911 -19.259407
vt 0.671929 -19.254503
vt 0.660166 -19.259407
vt 0.669911 -19.249601
vt 0.658147 -19.254503
vt 0.665038 -19.247570
vt 0.660166 -19.249601
vt 0.633057 -19.118124
vt 0.633057 -19.125057
vt 0.637929 -19.123026
vt 0.639947 -19.118124
vt 0.628184 -19.123026
vt 0.637929 -19.113220
vt 0.626166 -19.118124
vt 0.633057 -19.111189
vt 0.628184 -19.113220
vt 0.601075 -18.981743
vt 0.601075 -18.988678
vt 0.605948 -18.986647
vt 0.607966 -18.981743
vt 0.596203 -18.986647
vt 0.605948 -18.976841
vt 0.594184 -18.981743
vt 0.601075 -18.974810
vt 0.596203 -18.976841
vt 0.334851 -19.261438
vt 0.334852 -19.254503
vt 0.329979 -19.259407
vt 0.327961 -19.254503
vt 0.339724 -19.259407
vt 0.329979 -19.249601
vt 0.341742 -19.254503
vt 0.334852 -19.247570
vt 0.339724 -19.249601
vt 0.366834 -19.125057
vt 0.366834 -19.118124
vt 0.361961 -19.123026
vt 0.359943 -19.118124
vt 0.371706 -19.123026
vt 0.361961 -19.113220
vt 0.373725 -19.118124
vt 0.366834 -19.111189
vt 0.371706 -19.113220
vt 0.398816 -18.988678
vt 0.398816 -18.981743
vt 0.393943 -18.986647
vt 0.391925 -18.981743
vt 0.403689 -18.986647
vt 0.393943 -18.976841
vt 0.405707 -18.981743
vt 0.398816 -18.974810
vt 0.403689 -18.976841
s 1
g Bsh_Hull_Midsection_Dredn_BCD1_001_5_steel_3
usemtl steel_3
f 3/1/1 2/2/1 1/3/1
f 4/4/1 1/3/1 2/2/1
f 2/2/1 5/5/1 4/4/1
f 6/6/1 4/4/1 5/5/1
f 6/6/1 5/5/1 7/7/1
f 8/8/1 7/7/1 5/5/1
f 7/7/1 8/8/1 9/9/1
f 10/10/1 9/9/1 8/8/1
f 10/10/1 11/11/1 9/9/1
f 12/12/1 9/9/1 11/11/1
f 11/11/1 13/13/1 12/12/1
f 14/14/1 12/12/1 13/13/1
f 13/13/1 15/15/1 14/14/1
f 18/16/2 17/17/3 16/18/2
f 19/19/3 16/18/2 17/17/3
f 17/17/3 20/20/4 19/19/3
f 21/21/4 19/19/3 20/20/4
f 20/20/4 22/22/5 21/21/4
f 23/23/5 21/21/4 22/22/5
f 23/23/5 22/22/5 24/24/6
f 25/25/6 24/24/6 22/22/5
f 28/26/7 27/27/8 26/28/7
f 29/29/8 26/28/7 27/27/8
f 27/27/8 30/30/9 29/29/8
f 31/31/9 29/29/8 30/30/9
f 31/31/9 30/30/9 32/32/6
f 33/33/10 32/32/6 30/30/9
f 36/34/11 35/26/11 34/28/11
f 36/34/11 34/28/11 37/35/11
f 38/36/11 37/35/11 34/28/11
f 38/36/11 39/37/11 37/35/11
f 42/38/12 41/39/12 40/40/12
f 43/41/12 40/40/12 41/39/12
f 46/42/13 45/43/13 44/44/13
f 44/44/13 47/16/13 46/42/13
f 48/45/13 46/42/13 47/16/13
f 48/45/13 47/16/13 49/18/13
f 52/46/14 51/47/14 50/48/14
f 52/46/14 53/49/14 51/47/14
f 52/46/14 54/50/14 53/49/14
f 57/51/14 56/47/14 55/52/14
f 55/52/14 56/47/14 58/53/14
f 59/54/14 58/53/14 56/47/14
f 59/54/14 56/47/14 60/55/14
f 59/54/14 60/55/14 61/56/14
f 61/56/14 60/55/14 62/57/14
f 62/57/14 60/55/14 63/58/14
f 66/59/15 65/60/15 64/61/15
f 67/62/15 64/61/15 65/60/15
f 70/63/16 69/64/16 68/65/17
f 71/66/17 68/65/17 69/64/16
f 74/44/18 73/43/18 72/67/18
f 75/68/18 72/67/18 73/43/18
f 78/69/1 77/70/1 76/71/1
f 79/72/1 76/71/1 77/70/1
f 77/70/1 80/73/1 79/72/1
f 81/74/1 79/72/1 80/73/1
f 81/74/1 80/73/1 82/75/1
f 83/76/1 82/75/1 80/73/1
f 82/75/1 83/76/1 84/77/1
f 85/78/1 84/77/1 83/76/1
f 85/78/1 86/79/1 84/77/1
f 87/80/1 84/77/1 86/79/1
f 86/79/1 88/81/1 87/80/1
f 89/82/1 87/80/1 88/81/1
f 88/81/1 90/83/1 89/82/1
f 93/84/2 92/85/3 91/86/2
f 94/87/3 91/86/2 92/85/3
f 92/85/3 95/88/4 94/87/3
f 96/89/4 94/87/3 95/88/4
f 95/88/4 97/90/5 96/89/4
f 98/91/5 96/89/4 97/90/5
f 98/91/5 97/90/5 99/92/6
f 100/93/6 99/92/6 97/90/5
f 103/94/7 102/95/8 101/96/7
f 104/97/8 101/96/7 102/95/8
f 102/95/8 105/98/9 104/97/8
f 106/99/9 104/97/8 105/98/9
f 106/99/9 105/98/9 107/100/6
f 108/101/6 107/100/6 105/98/9
f 111/102/19 110/94/19 109/96/19
f 111/102/19 109/96/19 112/103/19
f 113/104/19 112/103/19 109/96/19
f 113/104/19 114/105/19 112/103/19
f 117/106/20 116/107/20 115/108/20
f 115/108/20 118/84/20 117/106/20
f 119/109/20 117/106/20 118/84/20
f 119/109/20 118/84/20 120/86/20
f 123/110/14 122/111/14 121/112/14
f 123/110/14 124/113/14 122/111/14
f 123/110/14 125/114/14 124/113/14
f 128/115/14 127/111/14 126/116/14
f 126/116/14 127/111/14 129/117/14
f 130/118/14 129/117/14 127/111/14
f 130/118/14 127/111/14 131/113/14
f 130/118/14 131/113/14 132/119/14
f 132/119/14 131/113/14 133/120/14
f 133/120/14 131/113/14 134/121/14
f 137/122/15 136/123/15 135/124/15
f 138/125/15 135/124/15 136/123/15
f 141/126/16 140/127/16 139/128/16
f 142/129/16 139/128/16 140/127/16
f 145/108/18 144/107/18 143/130/18
f 146/131/18 143/130/18 144/107/18
f 149/132/1 148/133/1 147/134/1
f 150/135/1 147/134/1 148/133/1
f 148/133/1 151/136/1 150/135/1
f 152/137/1 150/135/1 151/136/1
f 152/137/1 151/136/1 153/138/1
f 154/139/1 153/138/1 151/136/1
f 153/138/1 154/139/1 155/140/1
f 156/141/1 155/140/1 154/139/1
f 156/141/1 157/142/1 155/140/1
f 158/143/1 155/140/1 157/142/1
f 157/142/1 159/144/1 158/143/1
f 160/145/1 158/143/1 159/144/1
f 159/144/1 161/146/1 160/145/1
f 164/147/2 163/148/3 162/149/21
f 165/150/3 162/149/21 163/148/3
f 163/148/3 166/151/4 165/150/3
f 167/152/4 165/150/3 166/151/4
f 166/151/4 168/153/5 167/152/4
f 169/154/5 167/152/4 168/153/5
f 169/154/5 168/153/5 170/155/6
f 171/156/6 170/155/6 168/153/5
f 174/157/7 173/158/8 172/159/7
f 175/160/8 172/159/7 173/158/8
f 173/158/8 176/161/9 175/160/8
f 177/162/9 175/160/8 176/161/9
f 177/162/9 176/161/9 178/163/6
f 179/164/10 178/163/6 176/161/9
f 182/165/22 181/157/22 180/159/22
f 182/165/22 180/159/22 183/166/22
f 184/167/22 183/166/22 180/159/22
f 184/167/22 185/168/22 183/166/22
f 188/169/23 187/170/23 186/171/23
f 186/171/23 189/147/23 188/169/23
f 190/172/23 188/169/23 189/147/23
f 190/172/23 189/147/23 191/149/23
f 194/173/14 193/174/14 192/175/14
f 194/173/14 195/176/14 193/174/14
f 194/173/14 196/177/14 195/176/14
f 199/178/14 198/174/14 197/179/14
f 197/179/14 198/174/14 200/180/14
f 201/181/14 200/180/14 198/174/14
f 201/181/14 198/174/14 202/176/14
f 201/181/14 202/176/14 203/182/14
f 203/182/14 202/176/14 204/183/14
f 204/183/14 202/176/14 205/184/14
f 208/185/15 207/186/15 206/187/15
f 209/188/15 206/187/15 207/186/15
f 212/189/16 211/190/16 210/191/17
f 213/192/17 210/191/17 211/190/16
f 216/171/18 215/170/18 214/193/18
f 217/194/18 214/193/18 215/170/18
f 220/195/12 219/196/12 218/197/12
f 221/198/12 218/197/12 219/196/12
f 224/199/12 223/200/12 222/201/12
f 225/202/12 222/201/12 223/200/12
f 228/203/24 227/204/24 226/205/24
f 229/206/24 226/205/24 227/204/24
f 232/207/24 231/208/24 230/209/24
f 233/210/24 230/209/24 231/208/24
f 236/211/25 235/212/25 234/213/25
f 237/214/25 234/213/25 235/212/25
f 240/215/26 239/216/8 238/217/26
f 241/218/8 238/217/26 239/216/8
f 239/216/8 242/219/6 241/218/8
f 243/220/6 241/218/8 242/219/6
f 246/221/26 245/222/24 244/223/26
f 247/224/24 244/223/26 245/222/24
f 245/222/24 248/225/27 247/224/24
f 249/226/27 247/224/24 248/225/27
f 252/227/28 251/228/12 250/229/27
f 253/230/12 250/229/27 251/228/12
f 251/228/12 254/231/29 253/230/12
f 255/232/29 253/230/12 254/231/29
f 258/233/29 257/234/4 256/235/29
f 259/236/4 256/235/29 257/234/4
f 257/234/4 260/237/6 259/236/4
f 261/238/6 259/236/4 260/237/6
f 264/239/26 263/240/8 262/241/26
f 265/242/8 262/241/26 263/240/8
f 263/240/8 266/243/6 265/242/8
f 267/244/6 265/242/8 266/243/6
f 270/245/26 269/246/24 268/247/26
f 271/248/24 268/247/26 269/246/24
f 269/246/24 272/249/27 271/248/24
f 273/250/27 271/248/24 272/249/27
f 276/251/27 275/252/12 274/253/27
f 277/254/12 274/253/27 275/252/12
f 275/252/12 278/255/29 277/254/12
f 279/256/30 277/254/12 278/255/29
f 282/257/29 281/258/4 280/259/29
f 283/260/4 280/259/29 281/258/4
f 281/258/4 284/261/6 283/260/4
f 285/262/6 283/260/4 284/261/6
f 288/263/26 287/264/8 286/265/26
f 289/266/8 286/265/26 287/264/8
f 287/264/8 290/267/6 289/266/8
f 291/268/6 289/266/8 290/267/6
f 294/269/26 293/270/24 292/271/26
f 295/272/24 292/271/26 293/270/24
f 293/270/24 296/273/31 295/272/24
f 297/274/31 295/272/24 296/273/31
f 300/275/27 299/276/12 298/277/27
f 301/278/12 298/277/27 299/276/12
f 299/276/12 302/279/29 301/278/12
f 303/280/29 301/278/12 302/279/29
f 306/281/32 305/282/4 304/283/32
f 307/284/4 304/283/32 305/282/4
f 305/282/4 308/285/6 307/284/4
f 309/286/6 307/284/4 308/285/6
f 312/287/1 311/288/1 310/289/1
f 313/290/1 310/289/1 311/288/1
f 310/289/1 313/290/1 314/291/1
f 315/292/1 314/291/1 313/290/1
f 315/292/1 316/293/1 314/291/1
f 317/294/1 314/291/1 316/293/1
f 316/293/1 318/295/1 317/294/1
f 319/296/1 317/294/1 318/295/1
f 319/296/1 318/295/1 320/297/1
f 321/298/1 320/297/1 318/295/1
f 320/297/1 321/298/1 322/299/1
f 323/300/1 322/299/1 321/298/1
f 324/301/1 322/299/1 323/300/1
f 327/302/33 326/303/33 325/304/15
f 328/305/15 325/304/15 326/303/33
f 325/304/15 328/305/15 329/306/24
f 330/307/24 329/306/24 328/305/15
f 329/306/24 330/307/24 331/308/34
f 332/309/34 331/308/34 330/307/24
f 332/309/34 333/310/26 331/308/34
f 334/311/26 331/308/34 333/310/26
f 337/312/35 336/313/35 335/314/8
f 338/315/8 335/314/8 336/313/35
f 335/314/8 338/315/8 339/316/36
f 340/317/36 339/316/36 338/315/8
f 340/317/36 341/318/26 339/316/36
f 342/319/26 339/316/36 341/318/26
f 345/312/37 344/320/37 343/313/37
f 344/320/37 346/321/37 343/313/37
f 347/322/37 343/313/37 346/321/37
f 348/323/37 347/322/37 346/321/37
f 351/324/12 350/325/12 349/326/12
f 352/327/12 349/326/12 350/325/12
f 355/328/38 354/329/38 353/330/38
f 353/330/38 354/329/38 356/302/38
f 357/331/38 356/302/38 354/329/38
f 356/302/38 357/331/38 358/303/38
f 361/332/14 360/333/14 359/334/14
f 362/335/14 360/333/14 361/332/14
f 363/336/14 360/333/14 362/335/14
f 366/332/14 365/337/14 364/338/14
f 366/332/14 364/338/14 367/339/14
f 367/339/14 368/340/14 366/332/14
f 366/332/14 368/340/14 369/341/14
f 369/341/14 368/340/14 370/342/14
f 369/341/14 370/342/14 371/343/14
f 369/341/14 371/343/14 372/344/14
f 375/345/3 374/346/3 373/347/3
f 376/348/3 373/347/3 374/346/3
f 379/349/39 378/350/40 377/351/39
f 380/352/40 377/351/39 378/350/40
f 383/353/41 382/328/41 381/354/41
f 384/330/41 381/354/41 382/328/41
f 387/355/1 386/356/1 385/357/1
f 388/358/1 385/357/1 386/356/1
f 385/357/1 388/358/1 389/359/1
f 390/360/1 389/359/1 388/358/1
f 390/360/1 391/361/1 389/359/1
f 392/362/1 389/359/1 391/361/1
f 391/361/1 393/363/1 392/362/1
f 394/364/1 392/362/1 393/363/1
f 394/364/1 393/363/1 395/365/1
f 396/366/1 395/365/1 393/363/1
f 395/365/1 396/366/1 397/367/1
f 398/368/1 397/367/1 396/366/1
f 399/369/1 397/367/1 398/368/1
f 402/370/33 401/371/33 400/372/15
f 403/373/15 400/372/15 401/371/33
f 400/372/15 403/373/15 404/374/24
f 405/375/24 404/374/24 403/373/15
f 404/374/24 405/375/24 406/376/34
f 407/377/34 406/376/34 405/375/24
f 407/377/34 408/378/26 406/376/34
f 409/379/26 406/376/34 408/378/26
f 412/380/35 411/381/35 410/382/8
f 413/383/8 410/382/8 411/381/35
f 410/382/8 413/383/8 414/384/36
f 415/385/36 414/384/36 413/383/8
f 415/385/36 416/386/26 414/384/36
f 417/387/26 414/384/36 416/386/26
f 420/380/42 419/388/42 418/381/42
f 419/388/42 421/389/42 418/381/42
f 422/390/42 418/381/42 421/389/42
f 423/391/42 422/390/42 421/389/42
f 426/392/43 425/393/43 424/394/43
f 424/394/43 425/393/43 427/370/43
f 428/395/43 427/370/43 425/393/43
f 427/370/43 428/395/43 429/371/43
f 432/396/14 431/397/14 430/398/14
f 433/399/14 431/397/14 432/396/14
f 434/400/14 431/397/14 433/399/14
f 437/401/14 436/402/14 435/403/14
f 437/401/14 435/403/14 438/404/14
f 438/404/14 439/405/14 437/401/14
f 437/401/14 439/405/14 440/399/14
f 440/399/14 439/405/14 441/406/14
f 440/399/14 441/406/14 442/407/14
f 440/399/14 442/407/14 443/408/14
f 446/409/3 445/130/3 444/410/3
f 447/411/3 444/410/3 445/130/3
f 450/412/40 449/413/40 448/414/40
f 451/415/40 448/414/40 449/413/40
f 454/416/41 453/392/41 452/123/41
f 455/394/41 452/123/41 453/392/41
f 458/417/1 457/418/1 456/419/1
f 459/420/1 456/419/1 457/418/1
f 456/419/1 459/420/1 460/421/1
f 461/422/1 460/421/1 459/420/1
f 461/422/1 462/423/1 460/421/1
f 463/424/1 460/421/1 462/423/1
f 462/423/1 464/425/1 463/424/1
f 465/426/1 463/424/1 464/425/1
f 465/426/1 464/425/1 466/427/1
f 467/428/1 466/427/1 464/425/1
f 466/427/1 467/428/1 468/429/1
f 469/430/1 468/429/1 467/428/1
f 470/431/1 468/429/1 469/430/1
f 473/432/33 472/433/44 471/434/15
f 474/435/15 471/434/15 472/433/44
f 471/434/15 474/435/15 475/436/24
f 476/437/24 475/436/24 474/435/15
f 475/436/24 476/437/24 477/438/34
f 478/439/34 477/438/34 476/437/24
f 478/439/34 479/440/26 477/438/34
f 480/441/26 477/438/34 479/440/26
f 483/442/35 482/443/35 481/444/8
f 484/445/8 481/444/8 482/443/35
f 481/444/8 484/445/8 485/446/36
f 486/447/36 485/446/36 484/445/8
f 486/447/36 487/448/26 485/446/36
f 488/449/45 485/446/36 487/448/26
f 491/442/46 490/450/46 489/443/46
f 490/450/46 492/451/46 489/443/46
f 493/452/46 489/443/46 492/451/46
f 494/453/46 493/452/46 492/451/46
f 497/454/47 496/455/47 495/456/47
f 495/456/47 496/455/47 498/432/47
f 499/457/47 498/432/47 496/455/47
f 498/432/47 499/457/47 500/433/47
f 503/458/14 502/459/14 501/460/14
f 504/461/14 502/459/14 503/458/14
f 505/462/14 502/459/14 504/461/14
f 508/458/14 507/463/14 506/464/14
f 508/458/14 506/464/14 509/465/14
f 509/465/14 510/466/14 508/458/14
f 508/458/14 510/466/14 511/461/14
f 511/461/14 510/466/14 512/467/14
f 511/461/14 512/467/14 513/468/14
f 511/461/14 513/468/14 514/469/14
f 517/470/3 516/471/3 515/472/3
f 518/473/3 515/472/3 516/471/3
f 521/474/39 520/475/40 519/476/39
f 522/477/40 519/476/39 520/475/40
f 525/478/41 524/454/41 523/479/41
f 526/456/41 523/479/41 524/454/41
f 529/480/12 528/481/12 527/482/12
f 530/483/12 527/482/12 528/481/12
f 533/484/12 532/485/12 531/486/12
f 534/487/12 531/486/12 532/485/12
f 537/488/4 536/489/4 535/490/4
f 538/491/4 535/490/4 536/489/4
f 541/492/4 540/493/4 539/494/4
f 542/495/4 539/494/4 540/493/4
f 545/496/48 544/497/48 543/498/48
f 546/499/48 543/498/48 544/497/48
f 549/500/6 548/501/6 547/502/8
f 550/503/8 547/502/8 548/501/6
f 547/502/8 550/503/8 551/504/26
f 552/505/26 551/504/26 550/503/8
f 555/506/6 554/507/6 553/508/4
f 556/236/4 553/508/4 554/507/6
f 553/508/4 556/236/4 557/509/29
f 558/510/29 557/509/29 556/236/4
f 561/511/29 560/512/29 559/513/12
f 562/514/12 559/513/12 560/512/29
f 559/513/12 562/514/12 563/515/27
f 564/516/27 563/515/27 562/514/12
f 567/517/27 566/518/27 565/519/24
f 568/520/24 565/519/24 566/518/27
f 565/519/24 568/520/24 569/521/26
f 570/522/26 569/521/26 568/520/24
f 573/523/6 572/524/6 571/525/8
f 574/526/8 571/525/8 572/524/6
f 571/525/8 574/526/8 575/527/26
f 576/528/26 575/527/26 574/526/8
f 579/529/6 578/262/6 577/530/4
f 580/260/4 577/530/4 578/262/6
f 577/530/4 580/260/4 581/531/29
f 582/259/29 581/531/29 580/260/4
f 585/532/29 584/533/30 583/534/12
f 586/535/12 583/534/12 584/533/30
f 583/534/12 586/535/12 587/536/49
f 588/537/27 587/536/49 586/535/12
f 591/538/27 590/250/28 589/539/24
f 592/540/24 589/539/24 590/250/28
f 589/539/24 592/540/24 593/541/26
f 594/542/26 593/541/26 592/540/24
f 597/543/6 596/544/6 595/545/8
f 598/546/8 595/545/8 596/544/6
f 595/545/8 598/546/8 599/547/50
f 600/548/26 599/547/50 598/546/8
f 603/285/6 602/286/6 601/282/4
f 604/284/4 601/282/4 602/286/6
f 601/282/4 604/284/4 605/281/32
f 606/549/32 605/281/32 604/284/4
f 609/550/29 608/551/30 607/552/12
f 610/553/12 607/552/12 608/551/30
f 607/552/12 610/553/12 611/554/27
f 612/555/27 611/554/27 610/553/12
f 615/273/31 614/556/31 613/557/24
f 616/558/24 613/557/24 614/556/31
f 613/557/24 616/558/24 617/559/26
f 618/560/26 617/559/26 616/558/24
f 621/561/1 620/562/1 619/563/1
f 621/561/1 619/563/1 622/564/1
f 621/561/1 623/565/1 620/562/1
f 621/561/1 622/564/1 624/566/1
f 621/561/1 625/567/1 623/565/1
f 621/561/1 624/566/1 626/568/1
f 621/561/1 627/569/1 625/567/1
f 621/561/1 626/568/1 627/569/1
f 630/570/1 629/571/1 628/572/1
f 630/570/1 628/572/1 631/573/1
f 630/570/1 632/574/1 629/571/1
f 630/570/1 631/573/1 633/575/1
f 630/570/1 634/576/1 632/574/1
f 630/570/1 633/575/1 635/577/1
f 630/570/1 636/578/1 634/576/1
f 630/570/1 635/577/1 636/578/1
f 639/579/1 638/580/1 637/581/1
f 639/579/1 637/581/1 640/582/1
f 639/579/1 641/583/1 638/580/1
f 639/579/1 640/582/1 642/584/1
f 639/579/1 643/585/1 641/583/1
f 639/579/1 642/584/1 644/586/1
f 639/579/1 645/587/1 643/585/1
f 639/579/1 644/586/1 645/587/1
f 648/588/1 647/589/1 646/590/1
f 646/590/1 647/589/1 649/591/1
f 650/592/1 647/589/1 648/588/1
f 649/591/1 647/589/1 651/593/1
f 652/594/1 647/589/1 650/592/1
f 651/593/1 647/589/1 653/595/1
f 654/596/1 647/589/1 652/594/1
f 653/595/1 647/589/1 654/596/1
f 657/597/1 656/598/1 655/599/1
f 655/599/1 656/598/1 658/600/1
f 659/601/1 656/598/1 657/597/1
f 658/600/1 656/598/1 660/602/1
f 661/603/1 656/598/1 659/601/1
f 660/602/1 656/598/1 662/604/1
f 663/605/1 656/598/1 661/603/1
f 662/604/1 656/598/1 663/605/1
f 666/606/1 665/607/1 664/608/1
f 664/608/1 665/607/1 667/609/1
f 668/610/1 665/607/1 666/606/1
f 667/609/1 665/607/1 669/611/1
f 670/612/1 665/607/1 668/610/1
f 669/611/1 665/607/1 671/613/1
f 672/614/1 665/607/1 670/612/1
f 671/613/1 665/607/1 672/614/1
