# Blender 5.1.0
# www.blender.org
mtllib Bsh_Hull_Midsection_Dredn_BC4_001_1.mtl
o Bsh_Hull_Midsection_Dredn_BC4_001_1
v 10.423512 -9.999939 -9.320886
v 12.139398 -14.999942 -8.095254
v 12.139382 -9.999939 -8.095263
v 10.423510 -14.999947 -9.320884
v 0.000019 -9.999937 -9.320874
v 10.423509 -19.999954 -9.320882
v 12.139381 -19.999954 -8.095259
v 0.000019 -19.999950 -9.320870
v 0.000019 -14.999943 -9.320871
v -10.423471 -14.999945 -9.320880
v -10.423470 -9.999937 -9.320881
v -10.423470 -19.999952 -9.320879
v -12.139359 -14.999940 -8.095249
v -12.139342 -9.999937 -8.095258
v -12.139342 -19.999952 -8.095254
v 12.646061 -14.999939 -0.318301
v 12.384511 -19.999954 -6.322209
v 12.646043 -19.999952 -0.318305
v 12.384528 -14.999942 -6.322205
v 12.139381 -19.999954 -8.095259
v 12.646046 -9.999937 -0.318308
v 12.139398 -14.999942 -8.095254
v 12.384514 -9.999939 -6.322211
v 12.139382 -9.999939 -8.095263
v -12.384473 -19.999950 -6.322203
v -12.646025 -14.999939 -0.318293
v -12.646006 -19.999952 -0.318299
v -12.384489 -14.999940 -6.322197
v -12.646006 -9.999937 -0.318301
v -12.139342 -19.999952 -8.095254
v -12.384473 -9.999937 -6.322205
v -12.139359 -14.999940 -8.095249
v -12.139342 -9.999937 -8.095258
vn 0.8557 -0.0000 -0.5175
vn 0.3052 -0.0000 -0.9523
vn -0.0000 -0.0000 -1.0000
vn -0.3052 -0.0000 -0.9523
vn -0.8557 -0.0000 -0.5175
vn 0.9991 -0.0000 -0.0435
vn 0.9959 -0.0000 -0.0903
vn -0.9991 -0.0000 -0.0435
vn -0.9959 -0.0000 -0.0903
vt 0.317236 -16.028522
vt 0.317236 -16.104290
vt 0.343076 -16.028522
vt 0.343076 -16.104290
vt 0.500046 -16.028522
vt 0.343077 -16.180058
vt 0.317237 -16.180058
vt 0.500047 -16.180058
vt 0.500047 -16.104290
vt 0.657017 -16.104290
vt 0.657017 -16.028522
vt 0.657017 -16.180056
vt 0.682857 -16.104290
vt 0.682856 -16.028522
vt 0.682857 -16.180056
vt -16.180058 0.210740
vt -16.180058 0.120115
vt -16.104290 0.210741
vt -16.104290 0.120115
vt -16.180058 0.093351
vt -16.028522 0.210740
vt -16.104290 0.093351
vt -16.028522 0.120115
vt -16.028522 0.093351
vt 17.180058 0.210741
vt 17.104290 0.210741
vt 17.180056 0.120115
vt 17.104290 0.120115
vt 17.028522 0.210741
vt 17.180056 0.093351
vt 17.028522 0.120115
vt 17.104290 0.093351
vt 17.028522 0.093351
s 1
g Bsh_Hull_Midsection_Dredn_BC4_001_1_hull_bottom
usemtl hull_bottom
f 3/1/1 2/2/1 1/3/2
f 4/4/2 1/3/2 2/2/1
f 1/3/2 4/4/2 5/5/3
f 4/4/2 2/2/1 6/6/2
f 7/7/1 6/6/2 2/2/1
f 6/6/2 8/8/3 4/4/2
f 9/9/3 5/5/3 4/4/2
f 9/9/3 4/4/2 8/8/3
f 9/9/3 10/10/4 5/5/3
f 9/9/3 8/8/3 10/10/4
f 11/11/4 5/5/3 10/10/4
f 12/12/4 10/10/4 8/8/3
f 10/10/4 13/13/5 11/11/4
f 10/10/4 12/12/4 13/13/5
f 14/14/5 11/11/4 13/13/5
f 15/15/5 13/13/5 12/12/4
f 18/16/6 17/17/7 16/18/6
f 19/19/7 16/18/6 17/17/7
f 17/17/7 20/20/1 19/19/7
f 16/18/6 19/19/7 21/21/6
f 22/22/1 19/19/7 20/20/1
f 23/23/7 21/21/6 19/19/7
f 22/22/1 24/24/1 19/19/7
f 23/23/7 19/19/7 24/24/1
f 27/25/8 26/26/8 25/27/9
f 28/28/9 25/27/9 26/26/8
f 26/26/8 29/29/8 28/28/9
f 25/27/9 28/28/9 30/30/5
f 31/31/9 28/28/9 29/29/8
f 32/32/5 30/30/5 28/28/9
f 31/31/9 33/33/5 28/28/9
f 32/32/5 28/28/9 33/33/5
