# Blender 5.1.0
# www.blender.org
mtllib Bsh_Hull_Midsection_Dredn_BC2_001_6.mtl
o Bsh_Hull_Midsection_Dredn_BC2_001_6
v -3.550534 4.048190 5.099132
v -3.550538 0.200006 5.099131
v -11.859380 0.200006 5.099124
v -11.859379 2.154452 5.099119
v -10.829655 3.937980 5.099116
v -11.263607 3.909535 5.099118
v -12.051724 2.544475 5.099119
v -12.080166 2.978428 5.099118
v -11.653641 3.717197 5.099118
v -11.940374 3.390226 5.099118
v 3.550529 4.048189 5.099135
v 11.859370 0.200004 5.099133
v 3.550532 0.200005 5.099135
v 11.859368 2.154449 5.099127
v 10.829646 3.937978 5.099123
v 11.263599 3.909534 5.099126
v 12.051714 2.544473 5.099127
v 12.080157 2.978425 5.099126
v 11.653634 3.717195 5.099126
v 11.940367 3.390224 5.099126
vn -0.0000 -0.0000 1.0000
vt 0.678547 -16.031553
vt 0.553422 -16.031553
vt 0.553422 -16.089867
vt 0.678547 -16.061171
vt 0.663040 -16.088196
vt 0.669575 -16.087765
vt 0.681444 -16.067080
vt 0.681872 -16.073656
vt 0.675449 -16.084850
vt 0.679767 -16.079897
vt 0.446485 -16.031553
vt 0.321360 -16.031553
vt 0.446485 -16.089867
vt 0.321360 -16.061171
vt 0.336867 -16.088196
vt 0.330332 -16.087765
vt 0.318463 -16.067080
vt 0.318035 -16.073656
vt 0.324458 -16.084850
vt 0.320140 -16.079897
s 1
g Bsh_Hull_Midsection_Dredn_BC2_001_6_steel_deck_1
usemtl steel_deck_1
f 3/1/1 2/2/1 1/3/1
f 3/1/1 1/3/1 4/4/1
f 5/5/1 4/4/1 1/3/1
f 5/5/1 6/6/1 4/4/1
f 7/7/1 4/4/1 6/6/1
f 7/7/1 6/6/1 8/8/1
f 9/9/1 8/8/1 6/6/1
f 10/10/1 8/8/1 9/9/1
f 13/11/1 12/12/1 11/13/1
f 12/12/1 14/14/1 11/13/1
f 15/15/1 11/13/1 14/14/1
f 15/15/1 14/14/1 16/16/1
f 17/17/1 16/16/1 14/14/1
f 17/17/1 18/18/1 16/16/1
f 19/19/1 16/16/1 18/18/1
f 18/18/1 20/20/1 19/19/1
