# Blender 5.1.0
# www.blender.org
mtllib Bsh_Hull_Midsection_Dredn_BF1_001_4.mtl
o Bsh_Hull_Midsection_Dredn_BF1_001_4
v -12.239520 -10.000021 8.167893
v -12.529515 -0.000005 8.167895
v -12.239515 -0.000005 8.167895
v -12.529520 -10.000021 8.167893
v -12.529520 -10.000021 8.167893
v -12.529515 -0.000005 7.877894
v -12.529515 -0.000005 8.167895
v -12.529520 -10.000021 7.877893
v -12.529520 -10.000021 7.877893
v -12.239515 -0.000005 7.877894
v -12.529515 -0.000005 7.877894
v -12.239520 -10.000021 7.877893
v -12.239520 -10.000021 7.877893
v -12.239515 -0.000005 8.167895
v -12.239515 -0.000005 7.877894
v -12.239520 -10.000021 8.167893
v 12.239526 -10.000017 8.167893
v 12.529517 -0.000001 8.167893
v 12.529526 -10.000017 8.167893
v 12.239517 -0.000001 8.167893
v 12.529526 -10.000017 8.167893
v 12.529517 -0.000001 7.877893
v 12.529526 -10.000017 7.877893
v 12.529517 -0.000001 8.167893
v 12.529526 -10.000017 7.877893
v 12.239517 -0.000001 7.877893
v 12.239526 -10.000017 7.877893
v 12.529517 -0.000001 7.877893
v 12.239526 -10.000017 7.877893
v 12.239517 -0.000001 8.167893
v 12.239526 -10.000017 8.167893
v 12.239517 -0.000001 7.877893
vn -0.0000 -0.0000 1.0000
vn -1.0000 -0.0000 -0.0000
vn -0.0000 -0.0000 -1.0000
vn 1.0000 -0.0000 -0.0000
vt 0.684276 -14.597174
vt 0.688643 -14.597174
vt 0.684276 -14.445641
vt 0.688644 -14.445641
vt -14.597174 0.338835
vt -14.597174 0.334458
vt -14.445641 0.338835
vt -14.445641 0.334458
vt 0.311357 -14.597174
vt 0.315724 -14.597174
vt 0.311356 -14.445641
vt 0.315724 -14.445641
vt 15.597174 0.334458
vt 15.597174 0.338835
vt 15.445641 0.334458
vt 15.445641 0.338835
vt 0.311272 -14.445641
vt 0.311272 -14.597174
vt 0.315640 -14.445641
vt 0.315639 -14.597174
vt 15.445641 0.334458
vt 15.597174 0.334458
vt 15.445641 0.338835
vt 0.684360 -14.445641
vt 0.684361 -14.597174
vt 0.688728 -14.445641
vt 0.688728 -14.597174
vt -14.445641 0.338835
vt -14.445641 0.334458
vt -14.597174 0.334458
s 1
g Bsh_Hull_Midsection_Dredn_BF1_001_4_steel_4
usemtl steel_4
f 3/1/1 2/2/1 1/3/1
f 4/4/1 1/3/1 2/2/1
f 7/5/2 6/6/2 5/7/2
f 8/8/2 5/7/2 6/6/2
f 11/9/3 10/10/3 9/11/3
f 12/12/3 9/11/3 10/10/3
f 15/13/4 14/14/4 13/15/4
f 16/16/4 13/15/4 14/14/4
f 19/17/1 18/18/1 17/19/1
f 20/20/1 17/19/1 18/18/1
f 23/21/4 22/22/4 21/23/4
f 24/14/4 21/23/4 22/22/4
f 27/24/3 26/25/3 25/26/3
f 28/27/3 25/26/3 26/25/3
f 31/28/2 30/5/2 29/29/2
f 32/30/2 29/29/2 30/5/2
