# Blender 5.1.0
# www.blender.org
mtllib Bsh_Hull_Midsection_Dredn_BF1_001_1.mtl
o Bsh_Hull_Midsection_Dredn_BF1_001_1
v -12.646032 -10.000021 2.679112
v -12.646031 -0.000005 1.524266
v -12.646030 -0.000005 2.679114
v -12.646032 -10.000021 1.524265
v -12.384508 -0.000005 2.679110
v -12.384522 -10.000021 5.099125
v -12.384522 -10.000019 2.679110
v -12.384510 -0.000005 5.099121
v -12.384508 -0.000005 2.679110
v -12.646032 -10.000021 2.679112
v -12.646030 -0.000005 2.679114
v -12.384522 -10.000019 2.679110
v 12.646037 -10.000017 2.679111
v 12.646032 -0.000002 1.524263
v 12.646037 -10.000017 1.524263
v 12.646031 -0.000002 2.679112
v 12.384509 -0.000002 2.679107
v 12.384527 -10.000017 5.099125
v 12.384511 -0.000001 5.099119
v 12.384527 -10.000017 2.679109
v 12.384509 -0.000002 2.679107
v 12.646037 -10.000017 2.679111
v 12.384527 -10.000017 2.679109
v 12.646031 -0.000002 2.679112
vn -1.0000 -0.0000 -0.0000
vn -0.0000 -0.0000 1.0000
vn 1.0000 -0.0000 -0.0000
vt -14.597174 0.255985
vt -14.597174 0.238553
vt -14.445641 0.255985
vt -14.445641 0.238553
vt -14.445641 0.255985
vt -14.445641 0.292514
vt -14.597174 0.255985
vt -14.597174 0.292514
vt 0.690398 -14.597174
vt 0.690398 -14.445641
vt 0.686459 -14.597174
vt 0.686460 -14.445641
vt 15.445641 0.238553
vt 15.597174 0.238553
vt 15.445641 0.255985
vt 15.597174 0.255985
vt 15.597174 0.292514
vt 15.445641 0.292514
vt 15.597174 0.255985
vt 15.445641 0.255985
vt 0.313456 -14.445641
vt 0.309518 -14.445641
vt 0.313456 -14.597174
vt 0.309518 -14.597174
s 1
g Bsh_Hull_Midsection_Dredn_BF1_001_1_steel_board_1
usemtl steel_board_1
f 3/1/1 2/2/1 1/3/1
f 4/4/1 1/3/1 2/2/1
f 7/5/1 6/6/1 5/7/1
f 8/8/1 5/7/1 6/6/1
f 11/9/2 10/10/2 9/11/2
f 12/12/2 9/11/2 10/10/2
f 15/13/3 14/14/3 13/15/3
f 16/16/3 13/15/3 14/14/3
f 19/17/3 18/18/3 17/19/3
f 20/20/3 17/19/3 18/18/3
f 23/21/2 22/22/2 21/23/2
f 24/24/2 21/23/2 22/22/2
