# Blender 5.1.0
# www.blender.org
mtllib Bsh_Hull_Midsection_Dredn_BF1_001_0.mtl
o Bsh_Hull_Midsection_Dredn_BF1_001_0
v -12.646026 -10.000021 -0.318308
v -12.384492 -0.000006 -6.322210
v -12.646024 -0.000005 -0.318307
v -12.384494 -10.000021 -6.322211
v -12.139360 -0.000006 -8.095260
v -12.139362 -10.000021 -8.095262
v -12.139362 -10.000021 -8.095262
v -10.423490 -0.000006 -9.320883
v -12.139360 -0.000006 -8.095260
v -10.423491 -10.000021 -9.320885
v 0.000000 -10.000027 -9.320871
v -0.000001 -0.000010 -9.320873
v 10.423489 -0.000004 -9.320887
v 10.423493 -10.000021 -9.320887
v 12.139364 -10.000019 -8.095263
v 12.139359 -0.000004 -8.095263
v 12.384492 -0.000003 -6.322214
v 12.646029 -10.000017 -0.318310
v 12.646024 -0.000002 -0.318310
v 12.384497 -10.000019 -6.322214
v 12.139359 -0.000004 -8.095263
v 12.139364 -10.000019 -8.095263
vn -0.9991 -0.0000 -0.0435
vn -0.9959 -0.0000 -0.0903
vn -0.8557 -0.0000 -0.5175
vn -0.3052 -0.0000 -0.9523
vn -0.0000 -0.0000 -1.0000
vn 0.3052 -0.0000 -0.9523
vn 0.8557 -0.0000 -0.5175
vn 0.9991 -0.0000 -0.0435
vn 0.9959 -0.0000 -0.0903
vn 0.8557 0.0002 -0.5175
vt -14.597174 0.210740
vt -14.597174 0.120115
vt -14.445641 0.210740
vt -14.445641 0.120115
vt -14.597174 0.093351
vt -14.445641 0.093351
vt 0.317232 -14.597174
vt 0.343072 -14.597174
vt 0.317232 -14.445641
vt 0.343072 -14.445641
vt 0.500042 -14.445641
vt 0.500042 -14.597174
vt 0.657013 -14.597174
vt 0.657012 -14.445641
vt 0.682852 -14.445641
vt 0.682852 -14.597174
vt 15.597174 0.210740
vt 15.445641 0.210740
vt 15.597174 0.120115
vt 15.445641 0.120115
vt 15.597174 0.093351
vt 15.445641 0.093351
s 1
g Bsh_Hull_Midsection_Dredn_BF1_001_0_hull_bottom
usemtl hull_bottom
f 3/1/1 2/2/2 1/3/1
f 4/4/2 1/3/1 2/2/2
f 2/2/2 5/5/3 4/4/2
f 6/6/3 4/4/2 5/5/3
f 9/7/3 8/8/4 7/9/3
f 10/10/4 7/9/3 8/8/4
f 10/10/4 8/8/4 11/11/5
f 12/12/5 11/11/5 8/8/4
f 12/12/5 13/13/6 11/11/5
f 14/14/6 11/11/5 13/13/6
f 14/14/6 13/13/6 15/15/7
f 16/16/7 15/15/7 13/13/6
f 19/17/8 18/18/8 17/19/9
f 20/20/9 17/19/9 18/18/8
f 17/19/9 20/20/9 21/21/10
f 22/22/7 21/21/10 20/20/9
