# Blender 5.1.0
# www.blender.org
mtllib Bsh_Hull_Midsection_Dredn_BC4_001_2.mtl
o Bsh_Hull_Midsection_Dredn_BC4_001_2
v 12.646052 -9.999937 1.524264
v 12.646069 -14.999939 2.679119
v 12.646052 -9.999937 2.679112
v 12.646066 -14.999939 1.524272
v 12.646051 -19.999952 2.679116
v 12.646050 -19.999952 1.524267
v 12.384531 -19.999950 5.099123
v 12.384532 -19.628086 5.099123
v 12.384529 -19.999952 2.679111
v 12.384538 -14.999939 2.679111
v 12.384539 -13.018432 5.099122
v 12.384542 -9.999939 2.679110
v 12.384542 -9.999935 5.099125
v 12.384529 -19.999952 2.679111
v 12.646069 -14.999939 2.679119
v 12.646051 -19.999952 2.679116
v 12.384538 -14.999939 2.679111
v 12.646052 -9.999937 2.679112
v 12.384542 -9.999939 2.679110
v -12.646030 -14.999939 2.679127
v -12.646013 -9.999937 1.524272
v -12.646013 -9.999937 2.679120
v -12.646029 -14.999939 1.524279
v -12.646011 -19.999952 2.679122
v -12.646011 -19.999952 1.524274
v -12.384483 -19.999954 5.099129
v -12.384490 -19.999952 2.679118
v -12.384483 -19.628086 5.099129
v -12.384500 -14.999939 2.679118
v -12.384494 -13.018432 5.099129
v -12.384503 -9.999937 2.679118
v -12.384495 -9.999937 5.099133
v -12.646030 -14.999939 2.679127
v -12.384490 -19.999952 2.679118
v -12.646011 -19.999952 2.679122
v -12.384500 -14.999939 2.679118
v -12.646013 -9.999937 2.679120
v -12.384503 -9.999937 2.679118
vn 1.0000 -0.0000 -0.0000
vn 0.9967 -0.0812 -0.0000
vn -0.0000 -0.0000 1.0000
vn -1.0000 -0.0000 -0.0000
vn -0.9967 -0.0812 -0.0000
vt -16.028522 0.255985
vt -16.104290 0.255985
vt -16.028522 0.238553
vt -16.104290 0.238553
vt -16.180058 0.255985
vt -16.180058 0.238553
vt -16.180058 0.255985
vt -16.174421 0.292514
vt -16.180058 0.292514
vt -16.104290 0.255985
vt -16.074263 0.292514
vt -16.028522 0.255985
vt -16.028522 0.292514
vt 0.690393 -16.180058
vt 0.690394 -16.104290
vt 0.686455 -16.180058
vt 0.686455 -16.104290
vt 0.690394 -16.028522
vt 0.686455 -16.028522
vt 17.028522 0.255985
vt 17.028522 0.238553
vt 17.104290 0.255985
vt 17.104290 0.238553
vt 17.180058 0.255985
vt 17.180058 0.238553
vt 17.174421 0.292514
vt 17.180058 0.255985
vt 17.180058 0.292514
vt 17.104290 0.255985
vt 17.074263 0.292514
vt 17.028522 0.255985
vt 17.028522 0.292514
vt 0.309513 -16.180058
vt 0.313451 -16.180058
vt 0.309513 -16.104290
vt 0.313451 -16.104290
vt 0.309513 -16.028522
vt 0.313452 -16.028522
s 1
g Bsh_Hull_Midsection_Dredn_BC4_001_2_steel_board_1
usemtl steel_board_1
f 3/1/1 2/2/1 1/3/1
f 4/4/1 1/3/1 2/2/1
f 2/2/1 5/5/1 4/4/1
f 6/6/1 4/4/1 5/5/1
f 9/7/1 8/8/1 7/9/1
f 9/7/1 10/10/1 8/8/1
f 11/11/2 8/8/1 10/10/1
f 10/10/1 12/12/1 11/11/2
f 13/13/1 11/11/2 12/12/1
f 16/14/3 15/15/3 14/16/3
f 17/17/3 14/16/3 15/15/3
f 15/15/3 18/18/3 17/17/3
f 19/19/3 17/17/3 18/18/3
f 22/20/4 21/21/4 20/22/4
f 23/23/4 20/22/4 21/21/4
f 20/22/4 23/23/4 24/24/4
f 25/25/4 24/24/4 23/23/4
f 28/26/4 27/27/4 26/28/4
f 27/27/4 28/26/4 29/29/4
f 30/30/5 29/29/4 28/26/4
f 29/29/4 30/30/5 31/31/4
f 32/32/4 31/31/4 30/30/5
f 35/33/3 34/34/3 33/35/3
f 36/36/3 33/35/3 34/34/3
f 33/35/3 36/36/3 37/37/3
f 38/38/3 37/37/3 36/36/3
