# Blender 5.1.0
# www.blender.org
mtllib Bsh_Hull_Midsection_Dredn_BC2_001_0.mtl
o Bsh_Hull_Midsection_Dredn_BC2_001_0
v -10.423492 0.000000 -9.320886
v -12.139379 5.000003 -8.095255
v -12.139363 0.000001 -8.095263
v -10.423491 5.000008 -9.320885
v 0.000001 -0.000002 -9.320874
v -10.423490 10.000015 -9.320884
v -12.139360 10.000015 -8.095261
v 0.000001 10.000011 -9.320872
v 0.000001 5.000005 -9.320872
v 10.423491 5.000005 -9.320881
v 10.423490 -0.000003 -9.320881
v 10.423491 10.000011 -9.320881
v 12.139378 5.000000 -8.095250
v 12.139361 -0.000003 -8.095258
v 12.139361 10.000011 -8.095256
v -12.646042 5.000002 -0.318303
v -12.384492 10.000015 -6.322211
v -12.646024 10.000016 -0.318308
v -12.384509 5.000003 -6.322206
v -12.139360 10.000015 -8.095261
v -12.646027 0.000001 -0.318309
v -12.139379 5.000003 -8.095255
v -12.384495 0.000001 -6.322212
v -12.139363 0.000001 -8.095263
v 12.384492 10.000011 -6.322205
v 12.646044 4.999999 -0.318295
v 12.646027 10.000013 -0.318301
v 12.384508 5.000000 -6.322199
v 12.646025 -0.000002 -0.318301
v 12.139361 10.000011 -8.095256
v 12.384492 -0.000003 -6.322205
v 12.139378 5.000000 -8.095250
v 12.139361 -0.000003 -8.095258
vn -0.8557 -0.0000 -0.5175
vn -0.3052 -0.0000 -0.9523
vn -0.0000 -0.0000 -1.0000
vn 0.3052 -0.0000 -0.9523
vn 0.8557 -0.0000 -0.5175
vn -0.9991 -0.0000 -0.0435
vn -0.9959 -0.0000 -0.0903
vn 0.9991 -0.0000 -0.0435
vn 0.9959 -0.0000 -0.0903
vt 0.317236 -16.028522
vt 0.317236 -16.104290
vt 0.343076 -16.028522
vt 0.343076 -16.104290
vt 0.500046 -16.028522
vt 0.343077 -16.180058
vt 0.317237 -16.180058
vt 0.500047 -16.180058
vt 0.500047 -16.104290
vt 0.657017 -16.104290
vt 0.657017 -16.028522
vt 0.657017 -16.180056
vt 0.682857 -16.104290
vt 0.682856 -16.028522
vt 0.682857 -16.180056
vt -16.180058 0.210740
vt -16.180058 0.120115
vt -16.104290 0.210741
vt -16.104290 0.120115
vt -16.180058 0.093351
vt -16.028522 0.210740
vt -16.104290 0.093351
vt -16.028522 0.120115
vt -16.028522 0.093351
vt 17.180058 0.210741
vt 17.104290 0.210741
vt 17.180056 0.120115
vt 17.104290 0.120115
vt 17.028522 0.210741
vt 17.180056 0.093351
vt 17.028522 0.120115
vt 17.104290 0.093351
vt 17.028522 0.093351
s 1
g Bsh_Hull_Midsection_Dredn_BC2_001_0_hull_bottom
usemtl hull_bottom
f 3/1/1 2/2/1 1/3/2
f 4/4/2 1/3/2 2/2/1
f 1/3/2 4/4/2 5/5/3
f 4/4/2 2/2/1 6/6/2
f 7/7/1 6/6/2 2/2/1
f 6/6/2 8/8/3 4/4/2
f 9/9/3 5/5/3 4/4/2
f 9/9/3 4/4/2 8/8/3
f 9/9/3 10/10/4 5/5/3
f 9/9/3 8/8/3 10/10/4
f 11/11/4 5/5/3 10/10/4
f 12/12/4 10/10/4 8/8/3
f 10/10/4 13/13/5 11/11/4
f 10/10/4 12/12/4 13/13/5
f 14/14/5 11/11/4 13/13/5
f 15/15/5 13/13/5 12/12/4
f 18/16/6 17/17/7 16/18/6
f 19/19/7 16/18/6 17/17/7
f 17/17/7 20/20/1 19/19/7
f 16/18/6 19/19/7 21/21/6
f 22/22/1 19/19/7 20/20/1
f 23/23/7 21/21/6 19/19/7
f 22/22/1 24/24/1 19/19/7
f 23/23/7 19/19/7 24/24/1
f 27/25/8 26/26/8 25/27/9
f 28/28/9 25/27/9 26/26/8
f 26/26/8 29/29/8 28/28/9
f 25/27/9 28/28/9 30/30/5
f 31/31/9 28/28/9 29/29/8
f 32/32/5 30/30/5 28/28/9
f 31/31/9 33/33/5 28/28/9
f 32/32/5 28/28/9 33/33/5
