# Blender 5.1.0
# www.blender.org
mtllib Bsh_Hull_Midsection_Dredn_BC4_001_6.mtl
o Bsh_Hull_Midsection_Dredn_BC4_001_6
v 0.000024 -19.999950 8.022899
v 12.384534 -19.628069 8.022896
v 12.384535 -19.999950 8.022896
v 10.993755 -14.918004 8.022896
v 11.840545 -13.960662 8.022896
v 0.000024 -9.999937 8.022898
v 12.206258 -13.543656 8.022895
v 12.384545 -13.018437 8.022894
v 12.384541 -9.999935 8.022894
v -11.840498 -13.960662 8.022902
v -10.993710 -14.918004 8.022902
v -12.384485 -19.628071 8.022902
v -12.384485 -19.999954 8.022902
v -12.206212 -13.543656 8.022902
v -12.384499 -13.018437 8.022900
v -12.384492 -9.999939 8.022902
v 12.206253 -13.543662 5.099123
v 12.384539 -13.018432 5.099122
v 12.384532 -19.628086 5.099123
v 11.840540 -13.960683 5.099121
v 10.995080 -14.922639 5.099122
v -12.206206 -13.543662 5.099130
v -12.384483 -19.628086 5.099129
v -12.384494 -13.018432 5.099129
v -11.840493 -13.960683 5.099128
v -10.995034 -14.922639 5.099129
vn -0.0000 -0.0000 1.0000
vt 0.325570 0.463396
vt 0.325570 0.466015
vt 0.500000 0.463396
vt 0.345159 0.499184
vt 0.333232 0.505926
vt 0.500000 0.533818
vt 0.328081 0.508863
vt 0.325570 0.512561
vt 0.325570 0.533818
vt 0.666768 0.505926
vt 0.654841 0.499184
vt 0.674430 0.466015
vt 0.674430 0.463396
vt 0.671919 0.508863
vt 0.674430 0.512561
vt 0.674430 0.533818
vt 0.325570 0.466015
vt 0.325570 0.512561
vt 0.328081 0.508863
vt 0.333232 0.505926
vt 0.345140 0.499152
vt 0.674430 0.512561
vt 0.674430 0.466015
vt 0.671919 0.508863
vt 0.666768 0.505926
vt 0.654860 0.499152
s 1
g Bsh_Hull_Midsection_Dredn_BC4_001_6_wood_deck_1
usemtl wood_deck_1
f 3/1/1 2/2/1 1/3/1
f 2/2/1 4/4/1 1/3/1
f 4/4/1 5/5/1 1/3/1
f 6/6/1 1/3/1 5/5/1
f 6/6/1 5/5/1 7/7/1
f 8/8/1 6/6/1 7/7/1
f 9/9/1 6/6/1 8/8/1
f 6/6/1 10/10/1 1/3/1
f 11/11/1 1/3/1 10/10/1
f 11/11/1 12/12/1 1/3/1
f 12/12/1 13/13/1 1/3/1
f 10/10/1 6/6/1 14/14/1
f 6/6/1 15/15/1 14/14/1
f 6/6/1 16/16/1 15/15/1
f 19/17/1 18/18/1 17/19/1
f 20/20/1 19/17/1 17/19/1
f 21/21/1 19/17/1 20/20/1
f 24/22/1 23/23/1 22/24/1
f 23/23/1 25/25/1 22/24/1
f 23/23/1 26/26/1 25/25/1
