# Blender 5.1.0
# www.blender.org
mtllib Bsh_Hull_Rostrum_Dredn_C_001_9.mtl
o Bsh_Hull_Rostrum_Dredn_C_001_9
v -1.429293 57.239735 8.948206
v -1.512074 57.060314 8.766993
v -1.449102 57.254124 8.766995
v -1.487589 57.060314 8.948203
v -1.449102 56.866505 8.766994
v -1.429293 56.880901 8.948206
v -1.449102 57.254124 8.766995
v -1.276671 57.350620 8.948207
v -1.429293 57.239735 8.948206
v -1.284238 57.373905 8.766995
v -1.088021 57.350620 8.948206
v -1.080455 57.373905 8.766995
v -0.935400 57.239735 8.948206
v -0.915591 57.254124 8.766994
v -0.915591 57.254124 8.766994
v -0.877105 57.060314 8.948206
v -0.935400 57.239735 8.948206
v -0.852619 57.060314 8.766994
v -0.935401 56.880901 8.948206
v -0.915592 56.866505 8.766994
v -0.915592 56.866505 8.766994
v -1.088021 56.770008 8.948206
v -0.935401 56.880901 8.948206
v -1.080455 56.746723 8.766994
v -1.276672 56.770008 8.948206
v -1.284238 56.746723 8.766994
v -1.429293 56.880901 8.948206
v -1.449102 56.866505 8.766994
v 1.512058 57.060314 8.766988
v 1.429277 57.239735 8.948201
v 1.449086 57.254124 8.766991
v 1.487573 57.060314 8.948199
v 1.449086 56.866505 8.766991
v 1.429277 56.880901 8.948201
v 1.276656 57.350620 8.948201
v 1.449086 57.254124 8.766991
v 1.429277 57.239735 8.948201
v 1.284222 57.373905 8.766990
v 1.088005 57.350620 8.948201
v 1.080439 57.373905 8.766990
v 0.935385 57.239735 8.948201
v 0.915576 57.254124 8.766990
v 0.877089 57.060314 8.948201
v 0.915576 57.254124 8.766990
v 0.935385 57.239735 8.948201
v 0.852604 57.060314 8.766990
v 0.935385 56.880901 8.948201
v 0.915576 56.866505 8.766991
v 1.088006 56.770008 8.948201
v 0.915576 56.866505 8.766991
v 0.935385 56.880901 8.948201
v 1.080439 56.746723 8.766991
v 1.276656 56.770008 8.948201
v 1.284223 56.746723 8.766991
v 1.429277 56.880901 8.948201
v 1.449086 56.866505 8.766991
vn -0.6024 0.4377 0.6675
vn -0.7446 -0.0000 0.6675
vn -0.7398 0.5375 -0.4046
vn -0.9145 -0.0000 -0.4046
vn -0.6024 -0.4377 0.6675
vn -0.7398 -0.5376 -0.4046
vn -0.7399 0.5375 -0.4046
vn -0.2826 0.8697 -0.4046
vn -0.2301 0.7082 0.6675
vn 0.2826 0.8697 -0.4046
vn 0.2301 0.7082 0.6675
vn 0.7399 0.5375 -0.4046
vn 0.6025 0.4377 0.6675
vn 0.7398 0.5375 -0.4046
vn 0.9145 -0.0000 -0.4046
vn 0.6024 0.4377 0.6675
vn 0.7446 -0.0000 0.6675
vn 0.7398 -0.5375 -0.4046
vn 0.6024 -0.4377 0.6675
vn 0.7399 -0.5375 -0.4046
vn 0.2826 -0.8697 -0.4046
vn 0.2301 -0.7082 0.6675
vn -0.2826 -0.8697 -0.4046
vn -0.2302 -0.7082 0.6675
vn -0.7398 -0.5375 -0.4046
vn -0.6025 -0.4376 0.6675
vn 0.6025 0.4376 0.6675
vn -0.6024 -0.4376 0.6675
vn -0.2301 -0.7082 0.6675
vn 0.6024 -0.4376 0.6675
vt -16.896114 0.347879
vt -16.893179 0.347878
vt -16.895897 0.350614
vt -16.893179 0.350614
vt -16.890242 0.347879
vt -16.890459 0.350614
vt 0.521476 0.350614
vt 0.519177 0.350614
vt 0.521774 0.347879
vt 0.519291 0.347879
vt 0.516336 0.350614
vt 0.516222 0.347879
vt 0.514038 0.350614
vt 0.513740 0.347879
vt 17.895897 0.350614
vt 17.893179 0.350614
vt 17.896114 0.347879
vt 17.893179 0.347879
vt 17.890459 0.350614
vt 17.890242 0.347879
vt 0.485962 0.350614
vt 0.483664 0.350614
vt 0.486260 0.347879
vt 0.483778 0.347879
vt 0.480823 0.350614
vt 0.480709 0.347879
vt 0.478524 0.350614
vt 0.478226 0.347879
vt 17.896114 0.347878
vt 17.895897 0.350614
vt 17.893179 0.347878
vt 17.893179 0.350614
vt 17.890242 0.347878
vt 17.890459 0.350614
vt 0.478428 0.350614
vt 0.478129 0.347878
vt 0.480726 0.350614
vt 0.480612 0.347878
vt 0.483567 0.350614
vt 0.483681 0.347878
vt 0.485865 0.350614
vt 0.486164 0.347878
vt -16.895897 0.350614
vt -16.896114 0.347878
vt -16.893179 0.350614
vt -16.893179 0.347878
vt -16.890459 0.350614
vt -16.890242 0.347878
vt 0.514135 0.350614
vt 0.513836 0.347878
vt 0.516433 0.350614
vt 0.516319 0.347878
vt 0.519274 0.350614
vt 0.519388 0.347878
vt 0.521572 0.350614
vt 0.521871 0.347878
s 1
g Bsh_Hull_Rostrum_Dredn_C_001_9_details_3
usemtl details_3
f 3/1/1 2/2/2 1/3/3
f 4/4/4 1/3/3 2/2/2
f 2/2/2 5/5/5 4/4/4
f 6/6/6 4/4/4 5/5/5
f 9/7/7 8/8/8 7/9/1
f 10/10/9 7/9/1 8/8/8
f 8/8/8 11/11/10 10/10/9
f 12/12/11 10/10/9 11/11/10
f 11/11/10 13/13/12 12/12/11
f 14/14/13 12/12/11 13/13/12
f 17/15/14 16/16/15 15/17/16
f 18/18/17 15/17/16 16/16/15
f 16/16/15 19/19/18 18/18/17
f 20/20/19 18/18/17 19/19/18
f 23/21/20 22/22/21 21/23/19
f 24/24/22 21/23/19 22/22/21
f 22/22/21 25/25/23 24/24/22
f 26/26/24 24/24/22 25/25/23
f 25/25/23 27/27/25 26/26/24
f 28/28/26 26/26/24 27/27/25
f 31/29/16 30/30/14 29/31/17
f 32/32/15 29/31/17 30/30/14
f 29/31/17 32/32/15 33/33/19
f 34/34/18 33/33/19 32/32/15
f 37/35/14 36/36/27 35/37/10
f 38/38/11 35/37/10 36/36/27
f 35/37/10 38/38/11 39/39/8
f 40/40/9 39/39/8 38/38/11
f 39/39/8 40/40/9 41/41/7
f 42/42/1 41/41/7 40/40/9
f 45/43/3 44/44/1 43/45/4
f 46/46/2 43/45/4 44/44/1
f 43/45/4 46/46/2 47/47/25
f 48/48/28 47/47/25 46/46/2
f 51/49/6 50/50/26 49/51/23
f 52/52/29 49/51/23 50/50/26
f 49/51/23 52/52/29 53/53/21
f 54/54/22 53/53/21 52/52/29
f 53/53/21 54/54/22 55/55/20
f 56/56/30 55/55/20 54/54/22
