# Blender 5.1.1
# www.blender.org
mtllib DidoX_gun_cal133_x2_barrel_001_0_DidoX_gun_cal133_x2_barrel_001_0.mtl
o DidoX_gun_cal133_x2_barrel_001_0_DidoX_gun_cal133_x2_barrel_001_0
v -1.242628 0.107326 5.081561
v -1.162504 0.226334 5.053304
v -1.163638 0.132996 5.081561
v -1.295445 0.183137 5.053304
v -1.029564 0.183137 5.053304
v -1.291448 0.040132 5.081565
v -1.084644 0.107326 5.081561
v -1.377605 0.070053 5.053304
v -0.947404 0.070053 5.053304
v -1.291448 -0.042923 5.081565
v -1.035826 0.040133 5.081560
v -1.377605 -0.069728 5.053304
v -0.947404 -0.069728 5.053304
v -1.242628 -0.110116 5.081565
v -1.035826 -0.042923 5.081560
v -1.295445 -0.182814 5.053304
v -1.029568 -0.182814 5.053304
v -1.163638 -0.135784 5.081563
v -1.084646 -0.110116 5.081563
v -1.162506 -0.226009 5.053304
v 1.082644 0.107326 5.081561
v 1.162766 0.226333 5.053304
v 1.161633 0.132995 5.081561
v 1.029826 0.183136 5.053304
v 1.295706 0.183136 5.053304
v 1.033823 0.040131 5.081565
v 1.240626 0.107326 5.081561
v 0.947666 0.070052 5.053304
v 1.377867 0.070052 5.053304
v 1.033823 -0.042924 5.081565
v 1.289445 0.040132 5.081560
v 0.947666 -0.069728 5.053304
v 1.377867 -0.069728 5.053304
v 1.082644 -0.110117 5.081565
v 1.289445 -0.042924 5.081560
v 1.029826 -0.182815 5.053304
v 1.295702 -0.182815 5.053304
v 1.161633 -0.135785 5.081563
v 1.240625 -0.110117 5.081563
v 1.162766 -0.226010 5.053304
v -1.163638 0.132996 5.081561
v -1.162614 0.000026 3.609834
v -1.242628 0.107326 5.081561
v -1.084644 0.107326 5.081561
v -1.242628 0.107326 5.081561
v -1.162614 0.000026 3.609834
v -1.291448 0.040132 5.081565
v -1.291448 -0.042923 5.081565
v -1.242628 -0.110116 5.081565
v -1.242628 -0.110116 5.081565
v -1.162614 0.000026 3.609834
v -1.163638 -0.135784 5.081563
v -1.084646 -0.110116 5.081563
v -1.084646 -0.110116 5.081563
v -1.162614 0.000026 3.609834
v -1.035826 -0.042923 5.081560
v -1.035826 0.040133 5.081560
v -1.084644 0.107326 5.081561
v 1.161633 0.132995 5.081561
v 1.162656 0.000025 4.090012
v 1.082644 0.107326 5.081561
v 1.240626 0.107326 5.081561
v 1.082644 0.107326 5.081561
v 1.162656 0.000025 4.090012
v 1.033823 0.040131 5.081565
v 1.033823 -0.042924 5.081565
v 1.082644 -0.110117 5.081565
v 1.082644 -0.110117 5.081565
v 1.162656 0.000025 4.090012
v 1.161633 -0.135785 5.081563
v 1.240625 -0.110117 5.081563
v 1.240625 -0.110117 5.081563
v 1.162656 0.000025 4.090012
v 1.289445 -0.042924 5.081560
v 1.289445 0.040132 5.081560
v 1.240626 0.107326 5.081561
v 1.603180 0.533529 0.308032
v -1.612007 0.616067 -0.000001
v 1.603180 0.616067 -0.000001
v -1.612007 0.533529 0.308032
v 1.603180 0.308033 0.533527
v -1.612007 0.533529 0.308032
v 1.603180 0.533529 0.308032
v -1.612007 0.308033 0.533527
v 1.603180 0.000000 0.616065
v -1.612007 0.000000 0.616065
v 1.603180 -0.308033 0.533527
v -1.612007 -0.308032 0.533527
v 1.603180 -0.533528 0.308031
v -1.612007 -0.533528 0.308031
v 1.603180 -0.616065 -0.000002
v -1.612007 -0.533528 0.308031
v 1.603180 -0.533528 0.308031
v -1.612007 -0.616065 -0.000002
v 1.603180 -0.533528 -0.308035
v -1.612007 -0.533528 -0.308035
v -1.306485 0.197994 2.324473
v -1.162635 -0.000002 2.583477
v -1.395391 0.075625 2.324473
v -1.395391 -0.075629 2.324473
v -1.306486 -0.197996 2.324473
v -1.018784 -0.197996 2.324473
v -0.929878 -0.075629 2.324473
v -0.929878 0.075624 2.324473
v -1.018783 0.197994 2.324473
v -1.395391 0.075625 2.324473
v -1.162635 -0.000002 2.583477
v -1.395391 -0.075629 2.324473
v -0.929878 -0.075629 2.324473
v -1.162635 -0.000002 2.583477
v -0.929878 0.075624 2.324473
v 1.018785 0.197994 2.324473
v 1.162635 -0.000003 2.583477
v 0.929879 0.075625 2.324474
v 0.929879 -0.075630 2.324473
v 1.018784 -0.197996 2.324473
v 1.306486 -0.197996 2.324473
v 1.395393 -0.075630 2.324473
v 1.395392 0.075624 2.324474
v 1.306487 0.197994 2.324473
v 0.929879 0.075625 2.324474
v 1.162635 -0.000003 2.583477
v 0.929879 -0.075630 2.324473
v 1.395393 -0.075630 2.324473
v 1.162635 -0.000003 2.583477
v 1.395392 0.075624 2.324474
v -1.162513 0.188017 4.831184
v -1.295445 0.183137 5.053304
v -1.272936 0.152141 4.831184
v -1.162504 0.226334 5.053304
v -1.052089 0.152137 4.831184
v -1.029564 0.183137 5.053304
v -1.377605 0.070053 5.053304
v -1.272936 0.152141 4.831184
v -1.295445 0.183137 5.053304
v -1.341182 0.058206 4.831183
v -1.377605 -0.069728 5.053304
v -1.341182 -0.057903 4.831183
v -1.295445 -0.182814 5.053304
v -1.272936 -0.151831 4.831183
v -1.162506 -0.226009 5.053304
v -1.272936 -0.151831 4.831183
v -1.295445 -0.182814 5.053304
v -1.162513 -0.187711 4.831184
v -1.029568 -0.182814 5.053304
v -1.052091 -0.151832 4.831183
v -0.947404 -0.069728 5.053304
v -1.052091 -0.151832 4.831183
v -1.029568 -0.182814 5.053304
v -0.983844 -0.057903 4.831183
v -0.947404 0.070053 5.053304
v -0.983844 0.058206 4.831183
v -1.029564 0.183137 5.053304
v -1.052089 0.152137 4.831184
v -1.306486 -0.197996 2.324473
v -1.162635 -0.000002 2.583477
v -1.162635 -0.244736 2.324473
v -1.018784 -0.197996 2.324473
v -1.018783 0.197994 2.324473
v -1.162635 -0.000002 2.583477
v -1.162633 0.244736 2.324473
v -1.306485 0.197994 2.324473
v -1.456745 0.095561 1.428121
v -1.344403 0.250186 -0.381297
v -1.344403 0.250185 1.428121
v -1.456745 0.095562 -0.381297
v -1.456745 -0.095565 1.428121
v -1.456745 -0.095563 -0.381297
v -1.344405 -0.250187 1.428121
v -1.344405 -0.250186 -0.381297
v -1.162635 -0.309249 1.428121
v -1.344405 -0.250186 -0.381297
v -1.344405 -0.250187 1.428121
v -1.162635 -0.309248 -0.381297
v -0.980865 -0.250187 1.428121
v -0.980865 -0.250186 -0.381297
v -0.868523 -0.095565 1.428121
v -0.980865 -0.250186 -0.381297
v -0.980865 -0.250187 1.428121
v -0.868523 -0.095563 -0.381297
v -0.868523 0.095560 1.428121
v -0.868523 0.095561 -0.381297
v -0.980864 0.250185 1.428121
v -0.980864 0.250186 -0.381297
v -1.162633 0.309248 1.428121
v -0.980864 0.250186 -0.381297
v -0.980864 0.250185 1.428121
v -1.162633 0.309249 -0.381297
v -1.344403 0.250185 1.428121
v -1.344403 0.250186 -0.381297
v -1.162513 0.188019 1.930165
v -1.272936 0.152141 4.831184
v -1.272935 0.152143 1.930165
v -1.162513 0.188017 4.831184
v -1.052089 0.152139 1.930165
v -1.052089 0.152137 4.831184
v -1.341182 0.058206 4.831183
v -1.272935 0.152143 1.930165
v -1.272936 0.152141 4.831184
v -1.341182 0.058208 1.930165
v -1.341182 -0.057903 4.831183
v -1.341182 -0.057901 1.930165
v -1.272936 -0.151831 4.831183
v -1.272936 -0.151829 1.930165
v -1.162513 -0.187711 4.831184
v -1.272936 -0.151829 1.930165
v -1.272936 -0.151831 4.831183
v -1.162513 -0.187708 1.930165
v -1.052091 -0.151832 4.831183
v -1.052090 -0.151830 1.930165
v -0.983844 -0.057903 4.831183
v -1.052090 -0.151830 1.930165
v -1.052091 -0.151832 4.831183
v -0.983844 -0.057901 1.930165
v -0.983844 0.058206 4.831183
v -0.983844 0.058208 1.930165
v -1.052089 0.152137 4.831184
v -1.052089 0.152139 1.930165
v -1.395391 0.075625 2.324473
v -1.306485 0.197996 0.149848
v -1.306485 0.197994 2.324473
v -1.395391 0.075627 0.149848
v -1.395391 -0.075629 2.324473
v -1.395391 -0.075628 0.149848
v -1.306486 -0.197996 2.324473
v -1.306486 -0.197995 0.149847
v -1.162635 -0.244736 2.324473
v -1.306486 -0.197995 0.149847
v -1.306486 -0.197996 2.324473
v -1.162635 -0.244735 0.149847
v -1.018784 -0.197996 2.324473
v -1.018784 -0.197995 0.149847
v -0.929878 -0.075629 2.324473
v -1.018784 -0.197995 0.149847
v -1.018784 -0.197996 2.324473
v -0.929877 -0.075628 0.149848
v -0.929878 0.075624 2.324473
v -0.929878 0.075625 0.149848
v -1.018783 0.197994 2.324473
v -1.018783 0.197996 0.149848
v -1.162633 0.244736 2.324473
v -1.018783 0.197996 0.149848
v -1.018783 0.197994 2.324473
v -1.162633 0.244737 0.149848
v -1.306485 0.197994 2.324473
v -1.306485 0.197996 0.149848
v 1.162758 0.188016 4.831184
v 1.029826 0.183136 5.053304
v 1.052335 0.152140 4.831184
v 1.162766 0.226333 5.053304
v 1.273182 0.152137 4.831184
v 1.295706 0.183136 5.053304
v 0.947666 0.070052 5.053304
v 1.052335 0.152140 4.831184
v 1.029826 0.183136 5.053304
v 0.984088 0.058205 4.831184
v 0.947666 -0.069728 5.053304
v 0.984088 -0.057904 4.831184
v 1.029826 -0.182815 5.053304
v 1.052335 -0.151832 4.831184
v 1.162766 -0.226010 5.053304
v 1.052335 -0.151832 4.831184
v 1.029826 -0.182815 5.053304
v 1.162758 -0.187711 4.831184
v 1.295702 -0.182815 5.053304
v 1.273180 -0.151833 4.831184
v 1.377867 -0.069728 5.053304
v 1.273180 -0.151833 4.831184
v 1.295702 -0.182815 5.053304
v 1.341426 -0.057904 4.831184
v 1.377867 0.070052 5.053304
v 1.341426 0.058205 4.831184
v 1.295706 0.183136 5.053304
v 1.273182 0.152137 4.831184
v 1.018784 -0.197996 2.324473
v 1.162635 -0.000003 2.583477
v 1.162635 -0.244737 2.324473
v 1.306486 -0.197996 2.324473
v 1.306487 0.197994 2.324473
v 1.162635 -0.000003 2.583477
v 1.162637 0.244735 2.324473
v 1.018785 0.197994 2.324473
v 0.868525 0.095561 1.428122
v 0.980867 0.250186 -0.381296
v 0.980867 0.250184 1.428121
v 0.868525 0.095562 -0.381296
v 0.868525 -0.095565 1.428121
v 0.868525 -0.095564 -0.381297
v 0.980865 -0.250188 1.428121
v 0.980865 -0.250186 -0.381297
v 1.162635 -0.309249 1.428121
v 0.980865 -0.250186 -0.381297
v 0.980865 -0.250188 1.428121
v 1.162635 -0.309248 -0.381297
v 1.344405 -0.250188 1.428121
v 1.344405 -0.250186 -0.381297
v 1.456747 -0.095565 1.428122
v 1.344405 -0.250186 -0.381297
v 1.344405 -0.250188 1.428121
v 1.456747 -0.095564 -0.381297
v 1.456746 0.095559 1.428122
v 1.456746 0.095561 -0.381296
v 1.344406 0.250184 1.428121
v 1.344406 0.250186 -0.381296
v 1.162637 0.309248 1.428121
v 1.344406 0.250186 -0.381296
v 1.344406 0.250184 1.428121
v 1.162637 0.309249 -0.381296
v 0.980867 0.250184 1.428121
v 0.980867 0.250186 -0.381296
v 1.162757 0.188018 1.930166
v 1.052335 0.152140 4.831184
v 1.052336 0.152142 1.930166
v 1.162758 0.188016 4.831184
v 1.273182 0.152139 1.930166
v 1.273182 0.152137 4.831184
v 0.984088 0.058205 4.831184
v 1.052336 0.152142 1.930166
v 1.052335 0.152140 4.831184
v 0.984088 0.058207 1.930166
v 0.984088 -0.057904 4.831184
v 0.984088 -0.057902 1.930165
v 1.052335 -0.151832 4.831184
v 1.052335 -0.151829 1.930165
v 1.162758 -0.187711 4.831184
v 1.052335 -0.151829 1.930165
v 1.052335 -0.151832 4.831184
v 1.162757 -0.187708 1.930165
v 1.273180 -0.151833 4.831184
v 1.273181 -0.151830 1.930165
v 1.341426 -0.057904 4.831184
v 1.273181 -0.151830 1.930165
v 1.273180 -0.151833 4.831184
v 1.341426 -0.057902 1.930165
v 1.341426 0.058205 4.831184
v 1.341426 0.058207 1.930166
v 1.273182 0.152137 4.831184
v 1.273182 0.152139 1.930166
v 0.929879 0.075625 2.324474
v 1.018785 0.197996 0.149848
v 1.018785 0.197994 2.324473
v 0.929879 0.075626 0.149848
v 0.929879 -0.075630 2.324473
v 0.929879 -0.075628 0.149848
v 1.018784 -0.197996 2.324473
v 1.018784 -0.197995 0.149847
v 1.162635 -0.244737 2.324473
v 1.018784 -0.197995 0.149847
v 1.018784 -0.197996 2.324473
v 1.162635 -0.244736 0.149847
v 1.306486 -0.197996 2.324473
v 1.306487 -0.197995 0.149847
v 1.395393 -0.075630 2.324473
v 1.306487 -0.197995 0.149847
v 1.306486 -0.197996 2.324473
v 1.395393 -0.075628 0.149848
v 1.395392 0.075624 2.324474
v 1.395392 0.075625 0.149848
v 1.306487 0.197994 2.324473
v 1.306487 0.197996 0.149848
v 1.162637 0.244735 2.324473
v 1.306487 0.197996 0.149848
v 1.306487 0.197994 2.324473
v 1.162638 0.244736 0.149848
v 1.018785 0.197994 2.324473
v 1.018785 0.197996 0.149848
v -1.344403 0.250185 1.428121
v -1.162636 -0.000002 1.687123
v -1.456745 0.095561 1.428121
v -1.162633 0.309248 1.428121
v -1.456745 -0.095565 1.428121
v -0.980864 0.250185 1.428121
v -1.344405 -0.250187 1.428121
v -0.868523 0.095560 1.428121
v -1.162635 -0.309249 1.428121
v -0.868523 -0.095565 1.428121
v -0.980865 -0.250187 1.428121
v 0.980867 0.250184 1.428121
v 1.162635 -0.000002 1.687124
v 0.868525 0.095561 1.428122
v 1.162637 0.309248 1.428121
v 0.868525 -0.095565 1.428121
v 1.344406 0.250184 1.428121
v 0.980865 -0.250188 1.428121
v 1.456746 0.095559 1.428122
v 1.162635 -0.309249 1.428121
v 1.456747 -0.095565 1.428122
v 1.344405 -0.250188 1.428121
vn -0.0009 0.2898 0.9571
vn 0.0005 0.2897 0.9571
vn -0.1732 0.2358 0.9563
vn -0.1712 0.2371 0.9563
vn 0.1697 0.2336 0.9574
vn -0.2820 0.0900 0.9552
vn -0.2813 0.0923 0.9552
vn 0.2754 0.0900 0.9571
vn -0.2840 -0.0933 0.9543
vn 0.2758 0.0887 0.9571
vn -0.2844 -0.0918 0.9543
vn 0.2784 -0.0896 0.9563
vn -0.1763 -0.2427 0.9539
vn 0.2777 -0.0918 0.9563
vn 0.1747 -0.2389 0.9552
vn -0.0010 -0.2989 0.9543
vn 0.1728 -0.2404 0.9552
vn 0.0006 -0.2989 0.9543
vn 0.2759 0.0887 0.9571
vn 0.5855 -0.8056 0.0906
vn -0.0005 -0.0006 1.0000
vn 0.0001 -0.9959 0.0900
vn -0.5852 -0.8059 0.0898
vn 0.9472 -0.3075 0.0913
vn -0.0007 -0.0008 1.0000
vn 0.5856 -0.8055 0.0906
vn 0.9470 0.3078 0.0919
vn 0.5854 0.8055 0.0921
vn 0.0001 0.9958 0.0919
vn -0.0006 -0.0009 1.0000
vn 0.5853 0.8056 0.0921
vn -0.5851 0.8058 0.0913
vn -0.9471 0.3080 0.0906
vn -0.0004 -0.0009 1.0000
vn -0.5852 0.8057 0.0913
vn -0.9472 -0.3076 0.0900
vn -0.5855 -0.8057 0.0898
vn 0.5827 -0.8016 0.1338
vn -0.0010 -0.0014 1.0000
vn 0.0002 -0.9911 0.1329
vn -0.5825 -0.8019 0.1326
vn 0.9425 -0.3059 0.1348
vn 0.5828 -0.8015 0.1338
vn 0.9422 0.3064 0.1357
vn 0.5825 0.8014 0.1360
vn 0.0002 0.9907 0.1357
vn 0.5823 0.8015 0.1360
vn -0.5821 0.8019 0.1348
vn -0.9424 0.3065 0.1338
vn -0.5822 0.8018 0.1348
vn -0.9427 -0.3061 0.1329
vn -0.5827 -0.8018 0.1326
vn -0.0000 0.9659 0.2588
vn -0.0000 0.8661 0.4999
vn -0.0000 0.8659 0.5002
vn -0.0000 0.5000 0.8660
vn -0.0000 -0.0000 1.0000
vn -0.0000 -0.5000 0.8660
vn -0.0000 -0.8660 0.5000
vn -0.0000 -0.8661 0.4999
vn -0.0000 -1.0000 -0.0000
vn -0.0000 -0.9659 -0.2588
vn -0.6913 0.2246 0.6868
vn -0.0000 -0.0001 1.0000
vn -0.4274 0.5880 0.6868
vn -0.4274 -0.5880 0.6868
vn 0.0001 -0.0000 1.0000
vn -0.6913 -0.2247 0.6868
vn 0.6912 -0.2247 0.6868
vn -0.0000 0.0001 1.0000
vn 0.4273 -0.5880 0.6868
vn 0.4274 0.5880 0.6868
vn -0.0001 -0.0000 1.0000
vn 0.6913 0.2246 0.6868
vn -0.6913 -0.2246 0.6868
vn 0.0002 -0.0001 1.0000
vn -0.0002 0.0001 1.0000
vn 0.6913 -0.2246 0.6868
vn -0.6912 0.2247 0.6868
vn -0.4273 0.5880 0.6868
vn -0.4273 -0.5880 0.6868
vn -0.6912 -0.2248 0.6868
vn 0.6912 -0.2248 0.6868
vn 0.4273 0.5880 0.6868
vn -0.6913 -0.2243 0.6868
vn -0.0003 0.0001 1.0000
vn -0.5790 0.7974 -0.1699
vn -0.5792 0.7973 -0.1700
vn -0.0000 0.9854 -0.1700
vn 0.5792 0.7973 -0.1700
vn -0.5793 0.7972 -0.1700
vn -0.9372 0.3045 -0.1699
vn -0.9372 -0.3045 -0.1699
vn -0.5793 -0.7972 -0.1699
vn -0.5792 -0.7973 -0.1699
vn -0.0000 -0.9855 -0.1699
vn 0.5792 -0.7973 -0.1699
vn 0.5795 -0.7971 -0.1699
vn 0.5793 -0.7972 -0.1699
vn 0.9372 -0.3045 -0.1700
vn 0.9372 0.3045 -0.1700
vn 0.5793 0.7972 -0.1700
vn -0.0000 -0.7268 0.6868
vn -0.4272 -0.5881 0.6868
vn 0.4272 -0.5880 0.6868
vn -0.0000 0.7268 0.6868
vn 0.4272 0.5880 0.6868
vn -0.4272 0.5880 0.6868
vn -0.5878 0.8090 -0.0000
vn -0.9511 0.3090 -0.0000
vn -0.9511 -0.3090 -0.0000
vn -0.5878 -0.8090 -0.0000
vn -0.5877 -0.8091 -0.0000
vn 0.5877 -0.8091 -0.0000
vn 0.5878 -0.8090 -0.0000
vn 0.9511 -0.3090 -0.0000
vn 0.9511 0.3090 -0.0000
vn 0.5878 0.8090 -0.0000
vn 0.5877 0.8091 -0.0000
vn -0.0000 1.0000 -0.0000
vn -0.5877 0.8091 -0.0000
vn -0.5877 -0.8091 0.0001
vn 0.5875 -0.8092 -0.0000
vn 0.5877 -0.8091 0.0001
vn 0.5880 0.8089 -0.0000
vn -0.5794 0.7971 -0.1699
vn -0.4271 -0.5881 0.6868
vn 0.5877 0.8091 -0.0002
vn -0.5878 0.8090 -0.0001
vn -0.5879 -0.8089 -0.0000
vn 0.5876 -0.8091 -0.0000
vn -0.5878 0.8090 -0.0002
vn -0.5877 0.8091 -0.0001
vn -0.6107 0.1984 0.7666
vn -0.3774 0.5195 0.7666
vn -0.0000 0.6421 0.7666
vn -0.6107 -0.1984 0.7666
vn 0.3774 0.5194 0.7666
vn -0.3774 -0.5195 0.7666
vn 0.6107 0.1984 0.7666
vn -0.0000 -0.6421 0.7666
vn 0.6107 -0.1984 0.7666
vn 0.3774 -0.5195 0.7666
vn 0.3774 0.5195 0.7666
vt 0.179665 0.531000
vt 0.179682 0.532414
vt 0.178469 0.530611
vt 0.177670 0.531760
vt 0.181694 0.531760
vt 0.177730 0.529593
vt 0.180861 0.530611
vt 0.176426 0.530047
vt 0.182938 0.530047
vt 0.177730 0.528335
vt 0.181600 0.529593
vt 0.176426 0.527929
vt 0.182938 0.527929
vt 0.178469 0.527317
vt 0.181600 0.528335
vt 0.177670 0.526215
vt 0.181694 0.526215
vt 0.179665 0.526928
vt 0.180861 0.527317
vt 0.179682 0.525561
vt 0.214861 0.531000
vt 0.214878 0.532414
vt 0.213665 0.530611
vt 0.212866 0.531760
vt 0.216890 0.531760
vt 0.212926 0.529593
vt 0.216056 0.530611
vt 0.211622 0.530047
vt 0.218134 0.530047
vt 0.212926 0.528335
vt 0.216795 0.529593
vt 0.211622 0.527929
vt 0.218134 0.527929
vt 0.213665 0.527317
vt 0.216795 0.528335
vt 0.212866 0.526215
vt 0.216890 0.526215
vt 0.214861 0.526928
vt 0.216056 0.527317
vt 0.214878 0.525561
vt 0.821531 4.424490
vt 0.820319 4.446862
vt 0.820335 4.424490
vt 0.819139 4.424490
vt 4.424490 0.529593
vt 4.446862 0.528986
vt 4.424490 0.530611
vt 4.424490 0.528335
vt 4.424490 0.527317
vt 0.179665 4.424490
vt 0.179681 4.446862
vt 0.178469 4.424490
vt 0.180861 4.424490
vt -3.424490 0.528335
vt -3.446862 0.528986
vt -3.424490 0.527317
vt -3.424490 0.529593
vt -3.424490 0.530611
vt 0.786335 4.424490
vt 0.785124 4.439563
vt 0.785139 4.424490
vt 0.783944 4.424490
vt 4.439563 0.528986
vt 0.214861 4.424490
vt 0.214876 4.439563
vt 0.213665 4.424490
vt 0.216056 4.424490
vt -3.439563 0.528986
vt 0.221544 4.501735
vt 0.172878 4.501735
vt 0.221544 4.497052
vt 0.172878 4.497052
vt 0.221544 0.537069
vt 0.172878 0.537069
vt 0.221544 0.533652
vt 0.172878 0.533652
vt 0.221544 0.528985
vt 0.172878 0.528985
vt 0.221544 0.524318
vt 0.172878 0.524318
vt 0.221544 0.520901
vt 0.172878 0.520901
vt 0.778456 4.497052
vt 0.827122 4.497052
vt 0.778456 4.501735
vt 0.827122 4.501735
vt 0.778456 4.506417
vt 0.827122 4.506417
vt 0.176157 0.530131
vt 0.179680 0.528985
vt 0.177503 0.531985
vt 0.177503 0.525985
vt 0.176157 0.527839
vt 0.183203 0.527839
vt 0.181858 0.525985
vt 0.181858 0.531985
vt 0.183203 0.530131
vt -3.466401 0.527839
vt -3.462463 0.528985
vt -3.466401 0.530131
vt 4.466401 0.530131
vt 4.462463 0.528985
vt 4.466401 0.527839
vt 0.211353 0.530131
vt 0.214876 0.528985
vt 0.212699 0.531985
vt 0.212699 0.525985
vt 0.211353 0.527839
vt 0.218399 0.527839
vt 0.217053 0.525985
vt 0.217053 0.531985
vt 0.218399 0.530131
vt 0.178011 4.428296
vt 0.177670 4.424920
vt 0.179682 4.428296
vt 0.179682 4.424920
vt 0.181353 4.428296
vt 0.181694 4.424920
vt -3.424920 0.531760
vt -3.428296 0.531290
vt -3.424920 0.530047
vt -3.428296 0.529867
vt -3.424920 0.527929
vt -3.428296 0.528108
vt -3.424920 0.526215
vt -3.428296 0.526685
vt 0.822330 4.424920
vt 0.821989 4.428296
vt 0.820318 4.424920
vt 0.820318 4.428296
vt 0.818306 4.424920
vt 0.818647 4.428296
vt 4.424920 0.526215
vt 4.428296 0.526685
vt 4.424920 0.527929
vt 4.428296 0.528108
vt 4.424920 0.530047
vt 4.428296 0.529867
vt 4.424920 0.531760
vt 4.428296 0.531290
vt 0.820320 4.466401
vt 0.820320 4.462463
vt 0.822497 4.466401
vt 0.818142 4.466401
vt 0.179680 4.466401
vt 0.179680 4.462463
vt 0.181858 4.466401
vt 0.177503 4.466401
vt -3.480026 0.532776
vt -3.507531 0.532776
vt -3.480026 0.530433
vt -3.507531 0.530433
vt -3.480026 0.527537
vt -3.507531 0.527537
vt -3.480026 0.525194
vt -3.507531 0.525194
vt 0.823071 4.480026
vt 0.823071 4.507531
vt 0.820320 4.480026
vt 0.820320 4.507531
vt 0.817568 4.480026
vt 0.817568 4.507531
vt 4.480026 0.525194
vt 4.507531 0.525194
vt 4.480026 0.527537
vt 4.507531 0.527537
vt 4.480026 0.530433
vt 4.507531 0.530433
vt 4.480026 0.532776
vt 4.507531 0.532776
vt 0.182432 4.480026
vt 0.182432 4.507531
vt 0.179680 4.480026
vt 0.179680 4.507531
vt 0.176929 4.480026
vt 0.176929 4.507531
vt 0.178011 4.472394
vt 0.179682 4.472394
vt 0.181353 4.472394
vt -3.472394 0.531290
vt -3.472394 0.529867
vt -3.472394 0.528108
vt -3.472394 0.526685
vt 0.821989 4.472394
vt 0.820318 4.472394
vt 0.818647 4.472394
vt 4.472394 0.526685
vt 4.472394 0.528108
vt 4.472394 0.529867
vt 4.472394 0.531290
vt -3.466401 0.531985
vt -3.499457 0.531985
vt -3.499457 0.530131
vt -3.499457 0.527839
vt -3.466401 0.525985
vt -3.499457 0.525985
vt 0.822497 4.499457
vt 0.820320 4.499457
vt 0.818142 4.499457
vt 4.466401 0.525985
vt 4.499457 0.525985
vt 4.499457 0.527839
vt 4.499457 0.530131
vt 4.466401 0.531985
vt 4.499457 0.531985
vt 0.181858 4.499457
vt 0.179680 4.499457
vt 0.177503 4.499457
vt 0.213206 4.428296
vt 0.212866 4.424920
vt 0.214878 4.428296
vt 0.214878 4.424920
vt 0.216549 4.428296
vt 0.216890 4.424920
vt 0.787134 4.424920
vt 0.786794 4.428296
vt 0.785122 4.424920
vt 0.785122 4.428296
vt 0.783110 4.424920
vt 0.783451 4.428296
vt 0.785124 4.466401
vt 0.785124 4.462463
vt 0.787301 4.466401
vt 0.782947 4.466401
vt 0.214876 4.466401
vt 0.214876 4.462463
vt 0.217053 4.466401
vt 0.212699 4.466401
vt 0.787875 4.480026
vt 0.787875 4.507531
vt 0.785124 4.480026
vt 0.785124 4.507531
vt 0.782373 4.480026
vt 0.782373 4.507531
vt 0.217627 4.480026
vt 0.217627 4.507531
vt 0.214876 4.480026
vt 0.214876 4.507531
vt 0.212125 4.480026
vt 0.212125 4.507531
vt 0.213206 4.472394
vt 0.214878 4.472394
vt 0.216549 4.472394
vt 0.786793 4.472394
vt 0.785122 4.472394
vt 0.783451 4.472394
vt 0.787301 4.499457
vt 0.785124 4.499457
vt 0.782947 4.499457
vt 0.217053 4.499457
vt 0.214876 4.499457
vt 0.212699 4.499457
vt 0.175229 0.530433
vt 0.176929 0.532776
vt 0.179680 0.533671
vt 0.175229 0.527537
vt 0.182432 0.532776
vt 0.176929 0.525194
vt 0.184132 0.530433
vt 0.179680 0.524300
vt 0.184132 0.527537
vt 0.182432 0.525194
vt 0.210424 0.530433
vt 0.212125 0.532776
vt 0.214876 0.533671
vt 0.210424 0.527537
vt 0.217627 0.532776
vt 0.212125 0.525194
vt 0.219328 0.530433
vt 0.214876 0.524300
vt 0.219328 0.527537
vt 0.217627 0.525194
s 1
g DidoX_gun_cal133_x2_barrel_001_0_DidoX_gun_cal133_x2_barrel_001_0_details_3
usemtl details_3
f 3/1/1 2/2/2 1/3/3
f 4/4/4 1/3/3 2/2/2
f 2/2/2 3/1/1 5/5/5
f 1/3/3 4/4/4 6/6/6
f 7/7/5 5/5/5 3/1/1
f 8/8/7 6/6/6 4/4/4
f 5/5/5 7/7/5 9/9/8
f 6/6/6 8/8/7 10/10/9
f 11/11/10 9/9/8 7/7/5
f 12/12/11 10/10/9 8/8/7
f 9/9/8 11/11/10 13/13/12
f 10/10/9 12/12/11 14/14/13
f 15/15/14 13/13/12 11/11/10
f 16/16/13 14/14/13 12/12/11
f 13/13/12 15/15/14 17/17/15
f 14/14/13 16/16/13 18/18/16
f 19/19/17 17/17/15 15/15/14
f 20/20/18 18/18/16 16/16/13
f 17/17/15 19/19/17 20/20/18
f 18/18/16 20/20/18 19/19/17
f 23/21/1 22/22/2 21/23/3
f 24/24/4 21/23/3 22/22/2
f 22/22/2 23/21/1 25/25/5
f 21/23/3 24/24/4 26/26/6
f 27/27/5 25/25/5 23/21/1
f 28/28/7 26/26/6 24/24/4
f 25/25/5 27/27/5 29/29/8
f 26/26/6 28/28/7 30/30/9
f 31/31/19 29/29/8 27/27/5
f 32/32/11 30/30/9 28/28/7
f 29/29/8 31/31/19 33/33/12
f 30/30/9 32/32/11 34/34/13
f 35/35/14 33/33/12 31/31/19
f 36/36/13 34/34/13 32/32/11
f 33/33/12 35/35/14 37/37/15
f 34/34/13 36/36/13 38/38/16
f 39/39/17 37/37/15 35/35/14
f 40/40/18 38/38/16 36/36/13
f 37/37/15 39/39/17 40/40/18
f 38/38/16 40/40/18 39/39/17
g DidoX_gun_cal133_x2_barrel_001_0_DidoX_gun_cal133_x2_barrel_001_0_details_2
usemtl details_2
f 43/41/20 42/42/21 41/43/22
f 44/44/23 41/43/22 42/42/21
f 47/45/24 46/46/25 45/47/26
f 48/48/27 46/46/25 47/45/24
f 49/49/28 46/46/25 48/48/27
f 52/50/29 51/51/30 50/52/31
f 53/53/32 51/51/30 52/50/29
f 56/54/33 55/55/34 54/56/35
f 57/57/36 55/55/34 56/54/33
f 58/58/37 55/55/34 57/57/36
f 61/59/38 60/60/39 59/61/40
f 62/62/41 59/61/40 60/60/39
f 65/45/42 64/63/39 63/47/43
f 66/48/44 64/63/39 65/45/42
f 67/49/45 64/63/39 66/48/44
f 70/64/46 69/65/39 68/66/47
f 71/67/48 69/65/39 70/64/46
f 74/54/49 73/68/39 72/56/50
f 75/57/51 73/68/39 74/54/49
f 76/58/52 73/68/39 75/57/51
f 79/69/53 78/70/53 77/71/54
f 80/72/54 77/71/54 78/70/53
f 83/73/55 82/74/55 81/75/56
f 84/76/56 81/75/56 82/74/55
f 81/75/56 84/76/56 85/77/57
f 86/78/57 85/77/57 84/76/56
f 85/77/57 86/78/57 87/79/58
f 88/80/58 87/79/58 86/78/57
f 87/79/58 88/80/58 89/81/59
f 90/82/59 89/81/59 88/80/58
f 93/83/60 92/84/60 91/85/61
f 94/86/61 91/85/61 92/84/60
f 91/85/61 94/86/61 95/87/62
f 96/88/62 95/87/62 94/86/61
g DidoX_gun_cal133_x2_barrel_001_0_DidoX_gun_cal133_x2_barrel_001_0_details_4
usemtl details_4
f 99/89/63 98/90/64 97/91/65
f 101/92/66 98/90/67 100/93/68
f 103/94/69 98/90/70 102/95/71
f 105/96/72 98/90/73 104/97/74
f 108/98/75 107/99/76 106/100/63
f 111/101/74 110/102/77 109/103/78
f 114/104/79 113/105/64 112/106/80
f 116/107/81 113/105/67 115/108/82
f 118/109/83 113/105/70 117/110/71
f 120/111/84 113/105/73 119/112/74
f 123/98/85 122/99/76 121/100/63
f 126/101/74 125/102/86 124/103/78
f 129/113/87 128/114/88 127/115/89
f 130/116/89 127/115/89 128/114/88
f 127/115/89 130/116/89 131/117/90
f 132/118/90 131/117/90 130/116/89
f 135/119/91 134/120/91 133/121/92
f 136/122/92 133/121/92 134/120/91
f 133/121/92 136/122/92 137/123/93
f 138/124/93 137/123/93 136/122/92
f 137/123/93 138/124/93 139/125/94
f 140/126/94 139/125/94 138/124/93
f 143/127/95 142/128/95 141/129/96
f 144/130/96 141/129/96 142/128/95
f 141/129/96 144/130/96 145/131/97
f 146/132/97 145/131/97 144/130/96
f 149/133/98 148/134/99 147/135/100
f 150/136/100 147/135/100 148/134/99
f 147/135/100 150/136/100 151/137/101
f 152/138/101 151/137/101 150/136/100
f 151/137/101 152/138/101 153/139/102
f 154/140/102 153/139/102 152/138/101
f 157/141/103 156/142/57 155/143/104
f 158/144/105 156/142/57 157/141/103
f 161/145/106 160/146/57 159/147/107
f 162/148/108 160/146/57 161/145/106
f 165/149/109 164/150/109 163/151/110
f 166/152/110 163/151/110 164/150/109
f 163/151/110 166/152/110 167/153/111
f 168/154/111 167/153/111 166/152/110
f 167/153/111 168/154/111 169/155/112
f 170/156/112 169/155/112 168/154/111
f 173/157/113 172/158/113 171/159/61
f 174/160/61 171/159/61 172/158/113
f 171/159/61 174/160/61 175/161/114
f 176/162/114 175/161/114 174/160/61
f 179/163/115 178/164/115 177/165/116
f 180/166/116 177/165/116 178/164/115
f 177/165/116 180/166/116 181/167/117
f 182/168/117 181/167/117 180/166/116
f 181/167/117 182/168/117 183/169/118
f 184/170/118 183/169/118 182/168/117
f 187/171/119 186/172/119 185/173/120
f 188/174/120 185/173/120 186/172/119
f 185/173/120 188/174/120 189/175/121
f 190/176/121 189/175/121 188/174/120
f 193/177/109 192/113/109 191/178/120
f 194/115/120 191/178/120 192/113/109
f 191/178/120 194/115/120 195/179/118
f 196/117/118 195/179/118 194/115/120
f 199/120/109 198/180/109 197/122/110
f 200/181/110 197/122/110 198/180/109
f 197/122/110 200/181/110 201/124/111
f 202/182/111 201/124/111 200/181/110
f 201/124/111 202/182/111 203/126/112
f 204/183/112 203/126/112 202/182/111
f 207/128/113 206/184/122 205/130/61
f 208/185/61 205/130/61 206/184/122
f 205/130/61 208/185/61 209/132/114
f 210/186/123 209/132/114 208/185/61
f 213/134/115 212/187/115 211/136/116
f 214/188/116 211/136/116 212/187/115
f 211/136/116 214/188/116 215/138/117
f 216/189/117 215/138/117 214/188/116
f 215/138/117 216/189/117 217/140/118
f 218/190/118 217/140/118 216/189/117
f 221/191/109 220/192/109 219/100/110
f 222/193/110 219/100/110 220/192/109
f 219/100/110 222/193/110 223/98/111
f 224/194/111 223/98/111 222/193/110
f 223/98/111 224/194/111 225/195/112
f 226/196/112 225/195/112 224/194/111
f 229/143/113 228/197/113 227/141/61
f 230/198/61 227/141/61 228/197/113
f 227/141/61 230/198/61 231/144/124
f 232/199/114 231/144/124 230/198/61
f 235/200/115 234/201/115 233/103/116
f 236/202/116 233/103/116 234/201/115
f 233/103/116 236/202/116 237/101/117
f 238/203/117 237/101/117 236/202/116
f 237/101/117 238/203/117 239/204/118
f 240/205/125 239/204/118 238/203/117
f 243/147/119 242/206/119 241/145/120
f 244/207/120 241/145/120 242/206/119
f 241/145/120 244/207/120 245/148/121
f 246/208/121 245/148/121 244/207/120
f 249/209/87 248/210/88 247/211/89
f 250/212/89 247/211/89 248/210/88
f 247/211/89 250/212/89 251/213/90
f 252/214/90 251/213/90 250/212/89
f 255/119/126 254/120/91 253/121/92
f 256/122/92 253/121/92 254/120/91
f 253/121/92 256/122/92 257/123/93
f 258/124/93 257/123/93 256/122/92
f 257/123/93 258/124/93 259/125/94
f 260/126/94 259/125/94 258/124/93
f 263/215/95 262/216/95 261/217/96
f 264/218/96 261/217/96 262/216/95
f 261/217/96 264/218/96 265/219/97
f 266/220/97 265/219/97 264/218/96
f 269/133/99 268/134/99 267/135/100
f 270/136/100 267/135/100 268/134/99
f 267/135/100 270/136/100 271/137/101
f 272/138/101 271/137/101 270/136/100
f 271/137/101 272/138/101 273/139/102
f 274/140/102 273/139/102 272/138/101
f 277/221/103 276/222/57 275/223/127
f 278/224/105 276/222/57 277/221/103
f 281/225/106 280/226/57 279/227/107
f 282/228/108 280/226/57 281/225/106
f 285/149/109 284/150/109 283/151/110
f 286/152/110 283/151/110 284/150/109
f 283/151/110 286/152/110 287/153/111
f 288/154/111 287/153/111 286/152/110
f 287/153/111 288/154/111 289/155/112
f 290/156/112 289/155/112 288/154/111
f 293/229/113 292/230/113 291/231/61
f 294/232/61 291/231/61 292/230/113
f 291/231/61 294/232/61 295/233/114
f 296/234/114 295/233/114 294/232/61
f 299/163/115 298/164/115 297/165/116
f 300/166/116 297/165/116 298/164/115
f 297/165/116 300/166/116 301/167/117
f 302/168/117 301/167/117 300/166/116
f 301/167/117 302/168/117 303/169/118
f 304/170/118 303/169/118 302/168/117
f 307/235/119 306/236/128 305/237/120
f 308/238/120 305/237/120 306/236/128
f 305/237/120 308/238/120 309/239/121
f 310/240/121 309/239/121 308/238/120
f 313/241/109 312/209/129 311/242/120
f 314/211/120 311/242/120 312/209/129
f 311/242/120 314/211/120 315/243/118
f 316/213/118 315/243/118 314/211/120
f 319/120/109 318/180/109 317/122/110
f 320/181/110 317/122/110 318/180/109
f 317/122/110 320/181/110 321/124/111
f 322/182/111 321/124/111 320/181/110
f 321/124/111 322/182/111 323/126/130
f 324/183/112 323/126/130 322/182/111
f 327/216/113 326/244/113 325/218/61
f 328/245/61 325/218/61 326/244/113
f 325/218/61 328/245/61 329/220/114
f 330/246/131 329/220/114 328/245/61
f 333/134/115 332/187/115 331/136/116
f 334/188/116 331/136/116 332/187/115
f 331/136/116 334/188/116 335/138/117
f 336/189/117 335/138/117 334/188/116
f 335/138/117 336/189/117 337/140/118
f 338/190/118 337/140/118 336/189/117
f 341/191/109 340/192/132 339/100/110
f 342/193/110 339/100/110 340/192/132
f 339/100/110 342/193/110 343/98/111
f 344/194/111 343/98/111 342/193/110
f 343/98/111 344/194/111 345/195/112
f 346/196/112 345/195/112 344/194/111
f 349/223/113 348/247/113 347/221/61
f 350/248/61 347/221/61 348/247/113
f 347/221/61 350/248/61 351/224/114
f 352/249/114 351/224/114 350/248/61
f 355/200/115 354/201/115 353/103/116
f 356/202/116 353/103/116 354/201/115
f 353/103/116 356/202/116 357/101/117
f 358/203/117 357/101/117 356/202/116
f 357/101/117 358/203/117 359/204/118
f 360/205/125 359/204/118 358/203/117
f 363/227/119 362/250/118 361/225/120
f 364/251/120 361/225/120 362/250/118
f 361/225/120 364/251/120 365/228/133
f 366/252/109 365/228/133 364/251/120
f 369/253/134 368/90/57 367/254/135
f 367/254/135 368/90/57 370/255/136
f 371/256/137 368/90/57 369/253/134
f 370/255/136 368/90/57 372/257/138
f 373/258/139 368/90/57 371/256/137
f 372/257/138 368/90/57 374/259/140
f 375/260/141 368/90/57 373/258/139
f 374/259/140 368/90/57 376/261/142
f 377/262/143 368/90/57 375/260/141
f 376/261/142 368/90/57 377/262/143
f 380/263/134 379/105/57 378/264/135
f 378/264/135 379/105/57 381/265/136
f 382/266/137 379/105/57 380/263/134
f 381/265/136 379/105/57 383/267/144
f 384/268/139 379/105/57 382/266/137
f 383/267/144 379/105/57 385/269/140
f 386/270/141 379/105/57 384/268/139
f 385/269/140 379/105/57 387/271/142
f 388/272/143 379/105/57 386/270/141
f 387/271/142 379/105/57 388/272/143
