# Blender 5.1.0
# www.blender.org
mtllib DidoX_gun_cal133_x2_barrel_001_2_DidoX_gun_cal133_x2_barrel_001_2.mtl
o DidoX_gun_cal133_x2_barrel_001_2_DidoX_gun_cal133_x2_barrel_001_2
v -1.306485 0.197994 2.324473
v -1.162635 -0.000002 2.583477
v -1.395391 0.075625 2.324473
v -1.395391 -0.075629 2.324473
v -1.306486 -0.197996 2.324473
v -1.018784 -0.197996 2.324473
v -0.929878 -0.075629 2.324473
v -0.929878 0.075624 2.324473
v -1.018783 0.197994 2.324473
v -1.395391 0.075625 2.324473
v -1.162635 -0.000002 2.583477
v -1.395391 -0.075629 2.324473
v -0.929878 -0.075629 2.324473
v -1.162635 -0.000002 2.583477
v -0.929878 0.075624 2.324473
v 1.018785 0.197994 2.324473
v 1.162635 -0.000003 2.583477
v 0.929879 0.075625 2.324474
v 0.929879 -0.075630 2.324473
v 1.018784 -0.197996 2.324473
v 1.306486 -0.197996 2.324473
v 1.395393 -0.075630 2.324473
v 1.395392 0.075624 2.324474
v 1.306487 0.197994 2.324473
v 0.929879 0.075625 2.324474
v 1.162635 -0.000003 2.583477
v 0.929879 -0.075630 2.324473
v 1.395393 -0.075630 2.324473
v 1.162635 -0.000003 2.583477
v 1.395392 0.075624 2.324474
v -1.162513 0.188017 4.831184
v -1.295445 0.183137 5.053304
v -1.272935 0.152141 4.831184
v -1.162504 0.226334 5.053304
v -1.052089 0.152137 4.831184
v -1.029564 0.183137 5.053304
v -1.377605 0.070053 5.053304
v -1.272935 0.152141 4.831184
v -1.295445 0.183137 5.053304
v -1.341182 0.058206 4.831183
v -1.377605 -0.069728 5.053304
v -1.341182 -0.057903 4.831183
v -1.295445 -0.182814 5.053304
v -1.272936 -0.151831 4.831183
v -1.162505 -0.226009 5.053304
v -1.272936 -0.151831 4.831183
v -1.295445 -0.182814 5.053304
v -1.162513 -0.187711 4.831184
v -1.029568 -0.182814 5.053304
v -1.052090 -0.151832 4.831183
v -0.947404 -0.069728 5.053304
v -1.052090 -0.151832 4.831183
v -1.029568 -0.182814 5.053304
v -0.983844 -0.057903 4.831183
v -0.947404 0.070053 5.053304
v -0.983844 0.058206 4.831183
v -1.029564 0.183137 5.053304
v -1.052089 0.152137 4.831184
v -1.306486 -0.197996 2.324473
v -1.162635 -0.000002 2.583477
v -1.162635 -0.244736 2.324473
v -1.018784 -0.197996 2.324473
v -1.018783 0.197994 2.324473
v -1.162635 -0.000002 2.583477
v -1.162633 0.244736 2.324473
v -1.306485 0.197994 2.324473
v -1.456745 0.095561 1.428121
v -1.344403 0.250186 -0.381297
v -1.344403 0.250185 1.428121
v -1.456745 0.095562 -0.381297
v -1.456745 -0.095565 1.428121
v -1.456745 -0.095563 -0.381297
v -1.344405 -0.250187 1.428121
v -1.344405 -0.250186 -0.381297
v -1.162635 -0.309249 1.428121
v -1.344405 -0.250186 -0.381297
v -1.344405 -0.250187 1.428121
v -1.162635 -0.309248 -0.381297
v -0.980865 -0.250187 1.428121
v -0.980865 -0.250186 -0.381297
v -0.868523 -0.095565 1.428121
v -0.980865 -0.250186 -0.381297
v -0.980865 -0.250187 1.428121
v -0.868523 -0.095563 -0.381297
v -0.868523 0.095560 1.428121
v -0.868523 0.095561 -0.381297
v -0.980864 0.250185 1.428121
v -0.980864 0.250186 -0.381297
v -1.162633 0.309248 1.428121
v -0.980864 0.250186 -0.381297
v -0.980864 0.250185 1.428121
v -1.162633 0.309249 -0.381297
v -1.344403 0.250185 1.428121
v -1.344403 0.250186 -0.381297
v -1.162513 0.188019 1.930165
v -1.272935 0.152141 4.831184
v -1.272935 0.152143 1.930165
v -1.162513 0.188017 4.831184
v -1.052089 0.152139 1.930165
v -1.052089 0.152137 4.831184
v -1.341182 0.058206 4.831183
v -1.272935 0.152143 1.930165
v -1.272935 0.152141 4.831184
v -1.341182 0.058208 1.930165
v -1.341182 -0.057903 4.831183
v -1.341182 -0.057901 1.930165
v -1.272936 -0.151831 4.831183
v -1.272936 -0.151829 1.930165
v -1.162513 -0.187711 4.831184
v -1.272936 -0.151829 1.930165
v -1.272936 -0.151831 4.831183
v -1.162513 -0.187708 1.930165
v -1.052090 -0.151832 4.831183
v -1.052090 -0.151830 1.930165
v -0.983844 -0.057903 4.831183
v -1.052090 -0.151830 1.930165
v -1.052090 -0.151832 4.831183
v -0.983844 -0.057901 1.930165
v -0.983844 0.058206 4.831183
v -0.983844 0.058208 1.930165
v -1.052089 0.152137 4.831184
v -1.052089 0.152139 1.930165
v -1.395391 0.075625 2.324473
v -1.306485 0.197996 0.149848
v -1.306485 0.197994 2.324473
v -1.395391 0.075627 0.149848
v -1.395391 -0.075629 2.324473
v -1.395391 -0.075628 0.149848
v -1.306486 -0.197996 2.324473
v -1.306486 -0.197995 0.149847
v -1.162635 -0.244736 2.324473
v -1.306486 -0.197995 0.149847
v -1.306486 -0.197996 2.324473
v -1.162635 -0.244735 0.149847
v -1.018784 -0.197996 2.324473
v -1.018784 -0.197995 0.149847
v -0.929878 -0.075629 2.324473
v -1.018784 -0.197995 0.149847
v -1.018784 -0.197996 2.324473
v -0.929877 -0.075628 0.149848
v -0.929878 0.075624 2.324473
v -0.929878 0.075625 0.149848
v -1.018783 0.197994 2.324473
v -1.018783 0.197996 0.149848
v -1.162633 0.244736 2.324473
v -1.018783 0.197996 0.149848
v -1.018783 0.197994 2.324473
v -1.162633 0.244737 0.149848
v -1.306485 0.197994 2.324473
v -1.306485 0.197996 0.149848
v 1.162758 0.188016 4.831184
v 1.029826 0.183136 5.053304
v 1.052335 0.152140 4.831184
v 1.162766 0.226333 5.053304
v 1.273182 0.152137 4.831184
v 1.295706 0.183136 5.053304
v 0.947666 0.070052 5.053304
v 1.052335 0.152140 4.831184
v 1.029826 0.183136 5.053304
v 0.984088 0.058205 4.831184
v 0.947666 -0.069728 5.053304
v 0.984088 -0.057904 4.831184
v 1.029826 -0.182815 5.053304
v 1.052335 -0.151832 4.831184
v 1.162766 -0.226010 5.053304
v 1.052335 -0.151832 4.831184
v 1.029826 -0.182815 5.053304
v 1.162758 -0.187711 4.831184
v 1.295702 -0.182815 5.053304
v 1.273180 -0.151833 4.831184
v 1.377867 -0.069728 5.053304
v 1.273180 -0.151833 4.831184
v 1.295702 -0.182815 5.053304
v 1.341426 -0.057904 4.831184
v 1.377867 0.070052 5.053304
v 1.341426 0.058205 4.831184
v 1.295706 0.183136 5.053304
v 1.273182 0.152137 4.831184
v 1.018784 -0.197996 2.324473
v 1.162635 -0.000003 2.583477
v 1.162635 -0.244737 2.324473
v 1.306486 -0.197996 2.324473
v 1.306487 0.197994 2.324473
v 1.162635 -0.000003 2.583477
v 1.162637 0.244735 2.324473
v 1.018785 0.197994 2.324473
v 0.868525 0.095561 1.428122
v 0.980867 0.250186 -0.381296
v 0.980867 0.250184 1.428121
v 0.868525 0.095562 -0.381296
v 0.868525 -0.095565 1.428121
v 0.868525 -0.095564 -0.381297
v 0.980865 -0.250188 1.428121
v 0.980865 -0.250186 -0.381297
v 1.162635 -0.309249 1.428121
v 0.980865 -0.250186 -0.381297
v 0.980865 -0.250188 1.428121
v 1.162635 -0.309248 -0.381297
v 1.344405 -0.250188 1.428121
v 1.344405 -0.250186 -0.381297
v 1.456747 -0.095565 1.428122
v 1.344405 -0.250186 -0.381297
v 1.344405 -0.250188 1.428121
v 1.456747 -0.095564 -0.381297
v 1.456746 0.095559 1.428122
v 1.456746 0.095561 -0.381296
v 1.344406 0.250184 1.428121
v 1.344406 0.250186 -0.381296
v 1.162637 0.309248 1.428121
v 1.344406 0.250186 -0.381296
v 1.344406 0.250184 1.428121
v 1.162637 0.309249 -0.381296
v 0.980867 0.250184 1.428121
v 0.980867 0.250186 -0.381296
v 1.162757 0.188018 1.930166
v 1.052335 0.152140 4.831184
v 1.052336 0.152142 1.930166
v 1.162758 0.188016 4.831184
v 1.273182 0.152139 1.930166
v 1.273182 0.152137 4.831184
v 0.984088 0.058205 4.831184
v 1.052336 0.152142 1.930166
v 1.052335 0.152140 4.831184
v 0.984088 0.058207 1.930166
v 0.984088 -0.057904 4.831184
v 0.984088 -0.057902 1.930165
v 1.052335 -0.151832 4.831184
v 1.052335 -0.151829 1.930165
v 1.162758 -0.187711 4.831184
v 1.052335 -0.151829 1.930165
v 1.052335 -0.151832 4.831184
v 1.162757 -0.187708 1.930165
v 1.273180 -0.151833 4.831184
v 1.273181 -0.151830 1.930165
v 1.341426 -0.057904 4.831184
v 1.273181 -0.151830 1.930165
v 1.273180 -0.151833 4.831184
v 1.341426 -0.057902 1.930165
v 1.341426 0.058205 4.831184
v 1.341426 0.058207 1.930166
v 1.273182 0.152137 4.831184
v 1.273182 0.152139 1.930166
v 0.929879 0.075625 2.324474
v 1.018785 0.197996 0.149848
v 1.018785 0.197994 2.324473
v 0.929879 0.075626 0.149848
v 0.929879 -0.075630 2.324473
v 0.929879 -0.075628 0.149848
v 1.018784 -0.197996 2.324473
v 1.018784 -0.197995 0.149847
v 1.162635 -0.244737 2.324473
v 1.018784 -0.197995 0.149847
v 1.018784 -0.197996 2.324473
v 1.162635 -0.244736 0.149847
v 1.306486 -0.197996 2.324473
v 1.306487 -0.197995 0.149847
v 1.395393 -0.075630 2.324473
v 1.306487 -0.197995 0.149847
v 1.306486 -0.197996 2.324473
v 1.395393 -0.075628 0.149848
v 1.395392 0.075624 2.324474
v 1.395392 0.075625 0.149848
v 1.306487 0.197994 2.324473
v 1.306487 0.197996 0.149848
v 1.162637 0.244735 2.324473
v 1.306487 0.197996 0.149848
v 1.306487 0.197994 2.324473
v 1.162638 0.244736 0.149848
v 1.018785 0.197994 2.324473
v 1.018785 0.197996 0.149848
v -1.344403 0.250185 1.428121
v -1.162636 -0.000002 1.687123
v -1.456745 0.095561 1.428121
v -1.162633 0.309248 1.428121
v -1.456745 -0.095565 1.428121
v -0.980864 0.250185 1.428121
v -1.344405 -0.250187 1.428121
v -0.868523 0.095560 1.428121
v -1.162635 -0.309249 1.428121
v -0.868523 -0.095565 1.428121
v -0.980865 -0.250187 1.428121
v 0.980867 0.250184 1.428121
v 1.162635 -0.000002 1.687124
v 0.868525 0.095561 1.428122
v 1.162637 0.309248 1.428121
v 0.868525 -0.095565 1.428121
v 1.344406 0.250184 1.428121
v 0.980865 -0.250188 1.428121
v 1.456746 0.095559 1.428122
v 1.162635 -0.309249 1.428121
v 1.456747 -0.095565 1.428122
v 1.344405 -0.250188 1.428121
vn -0.6913 0.2246 0.6868
vn -0.0000 -0.0001 1.0000
vn -0.4274 0.5880 0.6868
vn -0.4274 -0.5880 0.6868
vn 0.0001 -0.0000 1.0000
vn -0.6913 -0.2247 0.6868
vn 0.6913 -0.2247 0.6868
vn -0.0000 0.0001 1.0000
vn 0.4273 -0.5880 0.6868
vn 0.4274 0.5880 0.6868
vn -0.0001 -0.0000 1.0000
vn 0.6913 0.2246 0.6868
vn -0.6913 -0.2246 0.6868
vn 0.0002 -0.0001 1.0000
vn -0.0002 0.0001 1.0000
vn 0.6913 -0.2246 0.6868
vn -0.6913 0.2247 0.6868
vn -0.4273 0.5880 0.6868
vn -0.4273 -0.5880 0.6868
vn 0.4273 0.5880 0.6868
vn -0.6913 -0.2245 0.6868
vn -0.5791 0.7973 -0.1699
vn -0.5792 0.7973 -0.1700
vn -0.0000 0.9854 -0.1700
vn 0.5792 0.7973 -0.1700
vn -0.5793 0.7972 -0.1700
vn -0.9372 0.3045 -0.1699
vn -0.9372 -0.3045 -0.1699
vn -0.5793 -0.7972 -0.1699
vn -0.5792 -0.7973 -0.1699
vn -0.0000 -0.9855 -0.1699
vn 0.5792 -0.7973 -0.1699
vn 0.5794 -0.7972 -0.1699
vn 0.5793 -0.7972 -0.1699
vn 0.9372 -0.3045 -0.1700
vn 0.9372 0.3045 -0.1700
vn 0.5793 0.7972 -0.1700
vn -0.0000 -0.7268 0.6868
vn -0.0000 -0.0000 1.0000
vn -0.4272 -0.5881 0.6868
vn 0.4272 -0.5880 0.6868
vn -0.0000 0.7268 0.6868
vn 0.4272 0.5880 0.6868
vn -0.4272 0.5880 0.6868
vn -0.5878 0.8090 -0.0000
vn -0.9511 0.3090 -0.0000
vn -0.9511 -0.3090 -0.0000
vn -0.5878 -0.8090 -0.0000
vn -0.5877 -0.8091 -0.0000
vn -0.0000 -1.0000 -0.0000
vn 0.5877 -0.8091 -0.0000
vn 0.5878 -0.8090 -0.0000
vn 0.9511 -0.3090 -0.0000
vn 0.9511 0.3090 -0.0000
vn 0.5878 0.8090 -0.0000
vn 0.5877 0.8091 -0.0000
vn -0.0000 1.0000 -0.0000
vn -0.5877 0.8091 -0.0000
vn 0.5878 0.8090 -0.0001
vn -0.5877 -0.8091 0.0001
vn 0.5876 -0.8091 -0.0000
vn 0.5879 0.8090 -0.0000
vn -0.5794 0.7972 -0.1699
vn -0.4271 -0.5881 0.6868
vn 0.5877 0.8091 -0.0001
vn -0.5878 0.8090 -0.0001
vn -0.5879 -0.8090 -0.0000
vn 0.5878 -0.8090 0.0001
vn -0.6107 0.1984 0.7666
vn -0.3774 0.5195 0.7666
vn -0.0000 0.6421 0.7666
vn -0.6107 -0.1984 0.7666
vn 0.3774 0.5194 0.7666
vn -0.3774 -0.5195 0.7666
vn 0.6107 0.1984 0.7666
vn -0.0000 -0.6421 0.7666
vn 0.6107 -0.1984 0.7666
vn 0.3774 -0.5195 0.7666
vn 0.3774 0.5195 0.7666
vt 0.176157 0.530131
vt 0.179680 0.528985
vt 0.177503 0.531985
vt 0.177503 0.525985
vt 0.176157 0.527839
vt 0.183203 0.527839
vt 0.181858 0.525985
vt 0.181858 0.531985
vt 0.183203 0.530131
vt -3.466401 0.527839
vt -3.462463 0.528985
vt -3.466401 0.530131
vt 4.466401 0.530131
vt 4.462463 0.528985
vt 4.466401 0.527839
vt 0.211353 0.530131
vt 0.214876 0.528985
vt 0.212699 0.531985
vt 0.212699 0.525985
vt 0.211353 0.527839
vt 0.218399 0.527839
vt 0.217053 0.525985
vt 0.217053 0.531985
vt 0.218399 0.530131
vt 0.178011 4.428296
vt 0.177670 4.424920
vt 0.179682 4.428296
vt 0.179682 4.424920
vt 0.181353 4.428296
vt 0.181694 4.424920
vt -3.424920 0.531760
vt -3.428296 0.531290
vt -3.424920 0.530047
vt -3.428296 0.529867
vt -3.424920 0.527929
vt -3.428296 0.528108
vt -3.424920 0.526215
vt -3.428296 0.526685
vt 0.822330 4.424920
vt 0.821989 4.428296
vt 0.820318 4.424920
vt 0.820318 4.428296
vt 0.818306 4.424920
vt 0.818647 4.428296
vt 4.424920 0.526215
vt 4.428296 0.526685
vt 4.424920 0.527929
vt 4.428296 0.528108
vt 4.424920 0.530047
vt 4.428296 0.529867
vt 4.424920 0.531760
vt 4.428296 0.531290
vt 0.820320 4.466401
vt 0.820320 4.462463
vt 0.822497 4.466401
vt 0.818142 4.466401
vt 0.179680 4.466401
vt 0.179680 4.462463
vt 0.181858 4.466401
vt 0.177503 4.466401
vt -3.480026 0.532776
vt -3.507531 0.532776
vt -3.480026 0.530433
vt -3.507531 0.530433
vt -3.480026 0.527537
vt -3.507531 0.527537
vt -3.480026 0.525194
vt -3.507531 0.525194
vt 0.823071 4.480026
vt 0.823071 4.507531
vt 0.820320 4.480026
vt 0.820320 4.507531
vt 0.817568 4.480026
vt 0.817568 4.507531
vt 4.480026 0.525194
vt 4.507531 0.525194
vt 4.480026 0.527537
vt 4.507531 0.527537
vt 4.480026 0.530433
vt 4.507531 0.530433
vt 4.480026 0.532776
vt 4.507531 0.532776
vt 0.182432 4.480026
vt 0.182432 4.507531
vt 0.179680 4.480026
vt 0.179680 4.507531
vt 0.176929 4.480026
vt 0.176929 4.507531
vt 0.178011 4.472394
vt 0.179682 4.472394
vt 0.181353 4.472394
vt -3.472394 0.531290
vt -3.472394 0.529867
vt -3.472394 0.528108
vt -3.472394 0.526685
vt 0.821989 4.472394
vt 0.820318 4.472394
vt 0.818647 4.472394
vt 4.472394 0.526685
vt 4.472394 0.528108
vt 4.472394 0.529867
vt 4.472394 0.531290
vt -3.466401 0.531985
vt -3.499457 0.531985
vt -3.499457 0.530131
vt -3.499457 0.527839
vt -3.466401 0.525985
vt -3.499457 0.525985
vt 0.822497 4.499457
vt 0.820320 4.499457
vt 0.818142 4.499457
vt 4.466401 0.525985
vt 4.499457 0.525985
vt 4.499457 0.527839
vt 4.499457 0.530131
vt 4.466401 0.531985
vt 4.499457 0.531985
vt 0.181858 4.499457
vt 0.179680 4.499457
vt 0.177503 4.499457
vt 0.213206 4.428296
vt 0.212866 4.424920
vt 0.214878 4.428296
vt 0.214878 4.424920
vt 0.216549 4.428296
vt 0.216890 4.424920
vt 0.787134 4.424920
vt 0.786794 4.428296
vt 0.785122 4.424920
vt 0.785122 4.428296
vt 0.783110 4.424920
vt 0.783451 4.428296
vt 0.785124 4.466401
vt 0.785124 4.462463
vt 0.787301 4.466401
vt 0.782947 4.466401
vt 0.214876 4.466401
vt 0.214876 4.462463
vt 0.217053 4.466401
vt 0.212699 4.466401
vt 0.787875 4.480026
vt 0.787875 4.507531
vt 0.785124 4.480026
vt 0.785124 4.507531
vt 0.782373 4.480026
vt 0.782373 4.507531
vt 0.217627 4.480026
vt 0.217627 4.507531
vt 0.214876 4.480026
vt 0.214876 4.507531
vt 0.212125 4.480026
vt 0.212125 4.507531
vt 0.213206 4.472394
vt 0.214878 4.472394
vt 0.216549 4.472394
vt 0.786793 4.472394
vt 0.785122 4.472394
vt 0.783451 4.472394
vt 0.787301 4.499457
vt 0.785124 4.499457
vt 0.782947 4.499457
vt 0.217053 4.499457
vt 0.214876 4.499457
vt 0.212699 4.499457
vt 0.175229 0.530433
vt 0.176929 0.532776
vt 0.179680 0.533671
vt 0.175229 0.527537
vt 0.182432 0.532776
vt 0.176929 0.525194
vt 0.184132 0.530433
vt 0.179680 0.524300
vt 0.184132 0.527537
vt 0.182432 0.525194
vt 0.210424 0.530433
vt 0.212125 0.532776
vt 0.214876 0.533671
vt 0.210424 0.527537
vt 0.217627 0.532776
vt 0.212125 0.525194
vt 0.219328 0.530433
vt 0.214876 0.524300
vt 0.219328 0.527537
vt 0.217627 0.525194
s 1
g DidoX_gun_cal133_x2_barrel_001_2_DidoX_gun_cal133_x2_barrel_001_2_details_4
usemtl details_4
f 3/1/1 2/2/2 1/3/3
f 5/4/4 2/2/5 4/5/6
f 7/6/7 2/2/8 6/7/9
f 9/8/10 2/2/11 8/9/12
f 12/10/13 11/11/14 10/12/1
f 15/13/12 14/14/15 13/15/16
f 18/16/17 17/17/2 16/18/18
f 20/19/19 17/17/5 19/20/6
f 22/21/7 17/17/8 21/22/9
f 24/23/20 17/17/11 23/24/12
f 27/10/21 26/11/14 25/12/1
f 30/13/12 29/14/15 28/15/16
f 33/25/22 32/26/23 31/27/24
f 34/28/24 31/27/24 32/26/23
f 31/27/24 34/28/24 35/29/25
f 36/30/25 35/29/25 34/28/24
f 39/31/26 38/32/26 37/33/27
f 40/34/27 37/33/27 38/32/26
f 37/33/27 40/34/27 41/35/28
f 42/36/28 41/35/28 40/34/27
f 41/35/28 42/36/28 43/37/29
f 44/38/29 43/37/29 42/36/28
f 47/39/30 46/40/30 45/41/31
f 48/42/31 45/41/31 46/40/30
f 45/41/31 48/42/31 49/43/32
f 50/44/32 49/43/32 48/42/31
f 53/45/33 52/46/34 51/47/35
f 54/48/35 51/47/35 52/46/34
f 51/47/35 54/48/35 55/49/36
f 56/50/36 55/49/36 54/48/35
f 55/49/36 56/50/36 57/51/37
f 58/52/37 57/51/37 56/50/36
f 61/53/38 60/54/39 59/55/40
f 62/56/41 60/54/39 61/53/38
f 65/57/42 64/58/39 63/59/43
f 66/60/44 64/58/39 65/57/42
f 69/61/45 68/62/45 67/63/46
f 70/64/46 67/63/46 68/62/45
f 67/63/46 70/64/46 71/65/47
f 72/66/47 71/65/47 70/64/46
f 71/65/47 72/66/47 73/67/48
f 74/68/48 73/67/48 72/66/47
f 77/69/49 76/70/49 75/71/50
f 78/72/50 75/71/50 76/70/49
f 75/71/50 78/72/50 79/73/51
f 80/74/51 79/73/51 78/72/50
f 83/75/52 82/76/52 81/77/53
f 84/78/53 81/77/53 82/76/52
f 81/77/53 84/78/53 85/79/54
f 86/80/54 85/79/54 84/78/53
f 85/79/54 86/80/54 87/81/55
f 88/82/55 87/81/55 86/80/54
f 91/83/56 90/84/56 89/85/57
f 92/86/57 89/85/57 90/84/56
f 89/85/57 92/86/57 93/87/58
f 94/88/58 93/87/58 92/86/57
f 97/89/45 96/25/45 95/90/57
f 98/27/57 95/90/57 96/25/45
f 95/90/57 98/27/57 99/91/59
f 100/29/55 99/91/59 98/27/57
f 103/32/45 102/92/45 101/34/46
f 104/93/46 101/34/46 102/92/45
f 101/34/46 104/93/46 105/36/47
f 106/94/47 105/36/47 104/93/46
f 105/36/47 106/94/47 107/38/48
f 108/95/48 107/38/48 106/94/47
f 111/40/49 110/96/60 109/42/50
f 112/97/50 109/42/50 110/96/60
f 109/42/50 112/97/50 113/44/51
f 114/98/61 113/44/51 112/97/50
f 117/46/52 116/99/52 115/48/53
f 118/100/53 115/48/53 116/99/52
f 115/48/53 118/100/53 119/50/54
f 120/101/54 119/50/54 118/100/53
f 119/50/54 120/101/54 121/52/55
f 122/102/55 121/52/55 120/101/54
f 125/103/45 124/104/45 123/12/46
f 126/105/46 123/12/46 124/104/45
f 123/12/46 126/105/46 127/10/47
f 128/106/47 127/10/47 126/105/46
f 127/10/47 128/106/47 129/107/48
f 130/108/48 129/107/48 128/106/47
f 133/55/49 132/109/49 131/53/50
f 134/110/50 131/53/50 132/109/49
f 131/53/50 134/110/50 135/56/51
f 136/111/51 135/56/51 134/110/50
f 139/112/52 138/113/52 137/15/53
f 140/114/53 137/15/53 138/113/52
f 137/15/53 140/114/53 141/13/54
f 142/115/54 141/13/54 140/114/53
f 141/13/54 142/115/54 143/116/55
f 144/117/62 143/116/55 142/115/54
f 147/59/56 146/118/56 145/57/57
f 148/119/57 145/57/57 146/118/56
f 145/57/57 148/119/57 149/60/58
f 150/120/58 149/60/58 148/119/57
f 153/121/22 152/122/23 151/123/24
f 154/124/24 151/123/24 152/122/23
f 151/123/24 154/124/24 155/125/25
f 156/126/25 155/125/25 154/124/24
f 159/31/63 158/32/26 157/33/27
f 160/34/27 157/33/27 158/32/26
f 157/33/27 160/34/27 161/35/28
f 162/36/28 161/35/28 160/34/27
f 161/35/28 162/36/28 163/37/29
f 164/38/29 163/37/29 162/36/28
f 167/127/30 166/128/30 165/129/31
f 168/130/31 165/129/31 166/128/30
f 165/129/31 168/130/31 169/131/32
f 170/132/32 169/131/32 168/130/31
f 173/45/34 172/46/34 171/47/35
f 174/48/35 171/47/35 172/46/34
f 171/47/35 174/48/35 175/49/36
f 176/50/36 175/49/36 174/48/35
f 175/49/36 176/50/36 177/51/37
f 178/52/37 177/51/37 176/50/36
f 181/133/38 180/134/39 179/135/64
f 182/136/41 180/134/39 181/133/38
f 185/137/42 184/138/39 183/139/43
f 186/140/44 184/138/39 185/137/42
f 189/61/45 188/62/45 187/63/46
f 190/64/46 187/63/46 188/62/45
f 187/63/46 190/64/46 191/65/47
f 192/66/47 191/65/47 190/64/46
f 191/65/47 192/66/47 193/67/48
f 194/68/48 193/67/48 192/66/47
f 197/141/49 196/142/49 195/143/50
f 198/144/50 195/143/50 196/142/49
f 195/143/50 198/144/50 199/145/51
f 200/146/51 199/145/51 198/144/50
f 203/75/52 202/76/52 201/77/53
f 204/78/53 201/77/53 202/76/52
f 201/77/53 204/78/53 205/79/54
f 206/80/54 205/79/54 204/78/53
f 205/79/54 206/80/54 207/81/55
f 208/82/55 207/81/55 206/80/54
f 211/147/56 210/148/65 209/149/57
f 212/150/57 209/149/57 210/148/65
f 209/149/57 212/150/57 213/151/58
f 214/152/58 213/151/58 212/150/57
f 217/153/45 216/121/45 215/154/57
f 218/123/57 215/154/57 216/121/45
f 215/154/57 218/123/57 219/155/55
f 220/125/55 219/155/55 218/123/57
f 223/32/45 222/92/66 221/34/46
f 224/93/46 221/34/46 222/92/66
f 221/34/46 224/93/46 225/36/47
f 226/94/47 225/36/47 224/93/46
f 225/36/47 226/94/47 227/38/67
f 228/95/48 227/38/67 226/94/47
f 231/128/49 230/156/49 229/130/50
f 232/157/50 229/130/50 230/156/49
f 229/130/50 232/157/50 233/132/51
f 234/158/61 233/132/51 232/157/50
f 237/46/52 236/99/68 235/48/53
f 238/100/53 235/48/53 236/99/68
f 235/48/53 238/100/53 239/50/54
f 240/101/54 239/50/54 238/100/53
f 239/50/54 240/101/54 241/52/55
f 242/102/55 241/52/55 240/101/54
f 245/103/45 244/104/66 243/12/46
f 246/105/46 243/12/46 244/104/66
f 243/12/46 246/105/46 247/10/47
f 248/106/47 247/10/47 246/105/46
f 247/10/47 248/106/47 249/107/48
f 250/108/48 249/107/48 248/106/47
f 253/135/49 252/159/49 251/133/50
f 254/160/50 251/133/50 252/159/49
f 251/133/50 254/160/50 255/136/51
f 256/161/51 255/136/51 254/160/50
f 259/112/52 258/113/52 257/15/53
f 260/114/53 257/15/53 258/113/52
f 257/15/53 260/114/53 261/13/54
f 262/115/54 261/13/54 260/114/53
f 261/13/54 262/115/54 263/116/55
f 264/117/62 263/116/55 262/115/54
f 267/139/56 266/162/55 265/137/57
f 268/163/57 265/137/57 266/162/55
f 265/137/57 268/163/57 269/140/58
f 270/164/45 269/140/58 268/163/57
f 273/165/69 272/2/39 271/166/70
f 271/166/70 272/2/39 274/167/71
f 275/168/72 272/2/39 273/165/69
f 274/167/71 272/2/39 276/169/73
f 277/170/74 272/2/39 275/168/72
f 276/169/73 272/2/39 278/171/75
f 279/172/76 272/2/39 277/170/74
f 278/171/75 272/2/39 280/173/77
f 281/174/78 272/2/39 279/172/76
f 280/173/77 272/2/39 281/174/78
f 284/175/69 283/17/39 282/176/70
f 282/176/70 283/17/39 285/177/71
f 286/178/72 283/17/39 284/175/69
f 285/177/71 283/17/39 287/179/79
f 288/180/74 283/17/39 286/178/72
f 287/179/79 283/17/39 289/181/75
f 290/182/76 283/17/39 288/180/74
f 289/181/75 283/17/39 291/183/77
f 292/184/78 283/17/39 290/182/76
f 291/183/77 283/17/39 292/184/78
