# Blender 5.1.0
# www.blender.org
mtllib Dido_gun_cal133_x2_001_Dido_gun_cal133_x2_001_Material.mtl
o Dido_gun_cal133_x2_001_Dido_gun_cal133_x2_001_Material.007_Material.007
v 0.315084 1.368674 2.484300
v 0.635927 1.368674 2.484270
v 0.327221 1.368674 2.530000
v -0.327221 1.974500 2.529999
v -0.327221 1.368674 2.530000
v -0.635927 1.368674 2.484270
v -0.648064 1.974500 2.530002
v -0.635927 1.974500 2.484270
v -0.648064 1.368674 2.530002
v 0.635927 1.974500 2.484270
v 0.648064 1.368674 2.530002
v -0.315084 1.974500 2.484299
v 0.315084 1.974500 2.484299
v 0.648064 1.974500 2.530002
v -0.315084 1.368674 2.484300
v -0.160250 1.368674 2.530000
v -0.160250 1.368674 2.484300
v 0.327221 1.974500 2.529999
v 0.160250 1.368674 2.484300
v -0.160250 1.974500 2.484300
v -0.160250 1.974500 2.530000
v 0.160250 1.974500 2.530000
v 0.160250 1.974500 2.484300
v 0.160250 1.368674 2.530000
v 0.000000 1.974500 2.530000
v 0.000000 1.368674 2.484300
v 0.000000 1.368674 2.507150
v 0.000000 1.368674 2.530000
v 0.000000 1.974500 2.484300
v 0.000000 1.974500 2.507150
v 0.327221 1.368674 2.530000
v -0.327221 1.974500 2.529999
v -0.327221 1.368674 2.530000
v -0.648064 1.974500 2.530002
v -0.648064 1.368674 2.530002
v 0.648064 1.368674 2.530002
v 0.648064 1.974500 2.530002
v -0.160250 1.368674 2.530000
v 0.327221 1.974500 2.529999
v -0.160250 1.974500 2.530000
v 0.160250 1.974500 2.530000
v 0.160250 1.368674 2.530000
v 0.000000 1.974500 2.530000
v 0.000000 1.671587 2.530000
v 0.000000 1.368674 2.530000
v 1.612010 2.700000 1.587308
v 2.195172 2.699999 -0.700000
v 1.356691 2.699999 -2.060000
v 2.195173 0.670579 0.713251
v 2.195173 1.249994 0.713251
v 2.195173 2.700000 0.713252
v -2.195173 0.670579 0.713251
v 1.356691 0.294551 -2.060000
v -2.195173 1.249994 0.713251
v 0.713255 0.294551 -2.060000
v 0.000000 1.249994 2.504600
v 0.000000 2.400000 2.504600
v -1.356691 0.294551 -2.060000
v -1.356691 2.699999 -2.060000
v -0.713255 0.294551 -2.060000
v 0.713255 2.699999 -2.060000
v 1.000000 1.249994 2.504600
v 1.000000 0.294551 2.504600
v 1.612010 1.250001 1.587307
v -0.713258 0.294551 2.504634
v -1.000000 1.249994 2.504600
v 1.612010 1.250008 0.434996
v 0.000000 3.000006 0.435000
v -1.000000 0.294551 2.504600
v -0.713258 1.249994 2.504634
v 0.713257 3.000006 0.434997
v 0.000000 3.000006 -1.900000
v -0.713258 2.400000 2.504634
v 1.200000 3.000006 -1.900000
v 2.000000 3.000006 -0.550000
v 2.000000 3.000006 0.435000
v 2.080000 2.870000 0.800000
v 0.569897 3.000006 -1.900000
v -1.612010 1.250008 0.434996
v -1.612010 2.999973 0.434997
v -2.000000 3.000006 -0.550000
v -0.569897 3.000006 -1.900000
v -0.713257 3.000006 0.434997
v -2.195172 2.699999 -0.700000
v -2.000000 3.000006 0.435000
v -1.200000 3.000006 -1.900000
v -0.713255 2.699999 -2.060000
v 2.195173 0.294551 0.713251
v -2.195173 2.700000 0.713252
v -1.612010 1.250001 1.587307
v -2.080000 2.870000 0.800000
v -1.612010 2.700000 1.587308
v -0.713257 1.250008 0.434996
v 0.713258 1.249994 2.504634
v 0.000000 0.294551 2.504600
v -2.195172 0.294551 -0.700000
v -2.195173 0.294551 0.713251
v -1.612010 0.294558 1.587306
v 0.713258 2.400000 2.504634
v 1.612010 2.999973 0.434997
v 0.713257 1.250008 0.434996
v 2.195172 0.294551 -0.700000
v 1.612010 0.294558 1.587306
v -2.188931 2.120512 0.378182
v -2.352779 2.164414 0.378184
v 0.713258 0.294551 2.504634
v -2.352779 2.164414 0.089597
v -2.188931 2.120512 0.089597
v -2.135188 2.976476 0.089597
v -2.135188 2.976476 0.378184
v -1.971338 2.932572 0.089597
v -1.971338 2.932572 0.378182
v -0.766679 2.096111 -2.053139
v -0.766677 2.140014 -2.216988
v -0.766677 2.952076 -1.999397
v 2.188931 2.120512 0.378182
v 1.971338 2.932572 0.089597
v 1.971338 2.932572 0.378182
v 2.352779 2.164414 0.378184
v 2.135188 2.976476 0.378184
v 2.352779 2.164414 0.089597
v -1.055264 2.140014 -2.216988
v -1.055264 2.096111 -2.053139
v 2.188931 2.120512 0.089597
v 2.135188 2.976476 0.089597
v -1.055264 2.952076 -1.999396
v -1.055264 2.908172 -1.835547
v -0.766679 2.908172 -1.835547
v -1.055264 2.800000 -2.100000
v -0.766677 2.800000 -2.100000
v -2.250000 2.800000 0.378184
v -2.250000 2.800000 0.089597
v -1.462721 0.500046 -1.966965
v -1.784742 0.500046 -1.236324
v -1.367032 0.500046 -1.907404
v 0.766679 2.908172 -1.835547
v 1.055264 2.096111 -2.053139
v 0.766679 2.096111 -2.053139
v 1.055264 2.908172 -1.835547
v 0.766677 2.140014 -2.216988
v 0.766677 2.952076 -1.999397
v 1.055264 2.140014 -2.216988
v 1.055264 2.952076 -1.999396
v 0.000000 2.699999 -2.060000
v 0.000000 0.294551 -2.060000
v -1.367031 2.455154 -1.907404
v -1.880431 2.455154 -1.295886
v -1.462721 2.455154 -1.966965
v -1.784741 2.455154 -1.236325
v -1.880431 0.500046 -1.295886
v 1.055264 2.800000 -2.100000
v 0.766677 2.800000 -2.100000
v 2.250000 2.800000 0.378184
v 2.250000 2.800000 0.089597
v 1.367032 0.500046 -1.907404
v 1.880431 0.500046 -1.295886
v 1.462721 2.455154 -1.966965
v 1.462721 0.500046 -1.966965
v 1.367031 2.455154 -1.907404
v 1.880431 2.455154 -1.295886
v 1.784741 2.455154 -1.236325
v 1.784742 0.500046 -1.236324
v -0.645999 2.948832 0.543879
v -0.154004 3.108832 0.600000
v -0.645994 3.108832 0.600000
v -0.154004 2.948832 0.543880
v -0.154004 2.958832 1.081900
v -0.645994 2.958832 1.081920
v -0.154004 2.770000 1.150000
v -0.645994 2.770000 1.150000
vn -0.0000 1.0000 -0.0000
vn -0.9665 -0.0000 0.2565
vn -0.9665 -0.0000 0.2567
vn -0.0000 -1.0000 -0.0000
vn 1.0000 -0.0000 -0.0000
vn 0.9665 -0.0000 0.2565
vn 0.9665 -0.0000 0.2567
vn -1.0000 -0.0000 -0.0000
vn -0.0000 -0.0000 1.0000
vn -0.0000 -0.0000 -1.0000
vn 0.8010 0.2700 0.5344
vn 0.7941 0.2482 0.5548
vn 0.8036 0.2698 0.5305
vn -0.8051 0.2713 0.5275
vn -0.8010 0.2700 0.5344
vn -0.8004 0.2744 0.5329
vn 1.0000 -0.0007 0.0048
vn 0.8519 -0.0047 -0.5237
vn 0.8512 -0.0000 -0.5248
vn 0.8504 -0.0046 -0.5261
vn 0.8535 0.0023 -0.5211
vn 0.0001 -0.0000 1.0000
vn -0.0001 -0.0000 1.0000
vn -0.8341 0.0022 0.5516
vn -0.8318 -0.0000 0.5550
vn 0.8318 -0.0000 0.5550
vn 0.8323 -0.0046 0.5543
vn -0.0043 1.0000 0.0087
vn 0.0112 0.9999 -0.0104
vn -0.0039 1.0000 0.0062
vn -0.0015 1.0000 0.0071
vn -0.0062 1.0000 0.0034
vn 0.0040 1.0000 -0.0009
vn 0.0021 1.0000 -0.0094
vn -0.0042 0.9998 -0.0211
vn -0.0000 0.9605 0.2784
vn 0.0381 0.9557 0.2918
vn 0.0275 0.9655 0.2588
vn -0.0211 0.9402 0.3399
vn -0.8512 -0.0000 -0.5248
vn -0.8490 -0.0020 -0.5284
vn -0.8505 -0.0047 -0.5260
vn -1.0000 -0.0044 0.0016
vn 0.8315 0.5554 0.0156
vn 0.8363 0.5471 0.0349
vn 0.8421 0.5393 -0.0081
vn 0.8489 0.5284 0.0081
vn 0.8356 0.5493 0.0007
vn 0.8341 0.5516 0.0061
vn -0.0046 0.4689 -0.8832
vn -0.0000 0.4706 -0.8824
vn 0.0020 0.4745 -0.8803
vn 0.0073 0.4707 -0.8823
vn 0.0048 0.4660 -0.8848
vn 0.0047 -0.0015 -1.0000
vn 0.0021 -0.0045 -1.0000
vn 0.6685 0.6244 -0.4040
vn 0.6886 0.5951 -0.4144
vn 0.6741 0.6269 -0.3905
vn -0.8315 0.5554 0.0156
vn -0.8269 0.5622 0.0158
vn -0.8400 0.5417 0.0299
vn -0.8413 0.5402 -0.0207
vn -0.8383 0.5452 0.0047
vn -0.8382 0.5453 -0.0000
vn -0.0079 -0.0130 0.9999
vn -0.5284 -0.0000 -0.8490
vn 0.9659 0.2588 -0.0000
vn -0.2588 0.9659 -0.0000
vn -0.0000 0.2588 -0.9659
vn 0.5284 -0.0000 -0.8490
vn 1.0000 -0.0030 0.0036
vn 0.9872 0.1596 -0.0000
vn 0.8382 0.5453 -0.0000
vn -0.0000 -0.9659 -0.2588
vn 0.8490 -0.0000 -0.5284
vn -0.9659 0.2588 -0.0000
vn 0.2588 0.9659 -0.0000
vn -0.0000 0.9659 0.2588
vn -0.0000 0.1745 -0.9847
vn -0.0000 0.5517 -0.8340
vn -0.9872 0.1596 -0.0000
vn -1.0000 0.0013 -0.0045
vn -0.0040 0.0008 1.0000
vn -0.8490 -0.0000 -0.5284
vn -0.0555 0.9578 0.2821
vn -0.0522 0.9587 0.2796
vn 0.0005 0.9346 0.3557
vn -0.6681 0.6289 -0.3977
vn -0.6893 0.5874 -0.4241
vn -0.6925 0.5855 -0.4214
vn -0.0000 0.3392 0.9407
vn -0.0000 0.3310 -0.9436
vn -0.0000 0.3393 0.9407
vn -0.0000 0.9548 0.2972
vn -0.0000 -0.9591 -0.2830
vn 0.0211 0.9998 -0.0042
vn 0.0117 0.9999 0.0098
vn 0.0746 0.9660 0.2474
vn 0.6861 0.5905 -0.4250
vn -0.8413 0.5405 -0.0078
vn 0.9999 0.0067 0.0137
vn -1.0000 -0.0032 -0.0025
vn -0.0679 0.9660 0.2494
vn -0.6599 0.6358 -0.4004
vt 0.493439 0.522561
vt 0.496647 0.522562
vt 0.493318 0.523019
vt 0.496526 0.523019
vt 0.523019 0.500060
vt 0.522561 0.494002
vt 0.523019 0.494002
vt 0.522561 0.500060
vt 0.522562 0.494002
vt 0.523019 0.494002
vt 0.522562 0.500060
vt 0.523019 0.500060
vt 0.499798 0.523019
vt 0.498196 0.523019
vt 0.499798 0.522790
vt 0.498196 0.522562
vt 0.501401 0.522562
vt 0.499798 0.522562
vt 0.501401 0.523019
vt 0.506279 0.523019
vt 0.502949 0.522562
vt 0.506157 0.522561
vt 0.503070 0.523019
vt 0.493318 0.500060
vt 0.496526 0.500060
vt 0.493318 0.494002
vt 0.496526 0.494002
vt 0.499798 0.497031
vt 0.499798 0.494002
vt 0.498196 0.494002
vt 0.501401 0.494002
vt 0.501401 0.500060
vt 0.499798 0.500060
vt 0.498196 0.500060
vt 0.503070 0.500060
vt 0.506279 0.500060
vt 0.506279 0.494002
vt 0.503070 0.494002
vt 0.504851 0.507315
vt 0.505719 0.509015
vt 0.513592 0.507315
vt 0.504851 0.492815
vt 0.490719 0.507315
vt 0.490719 0.483261
vt 0.477119 0.483261
vt 0.477119 0.507315
vt 0.504851 0.487021
vt 0.504851 0.483261
vt 0.489798 0.483261
vt 0.489798 0.492815
vt 0.492666 0.483261
vt 0.492666 0.492815
vt 0.499798 0.483261
vt 0.499798 0.492815
vt 0.506931 0.492815
vt 0.506931 0.483261
vt 0.509798 0.492815
vt 0.509798 0.483261
vt 0.513592 0.492815
vt 0.522765 0.483261
vt 0.506931 0.504315
vt 0.499798 0.504315
vt 0.492666 0.504315
vt 0.492666 0.502069
vt 0.483678 0.513592
vt 0.483678 0.502069
vt 0.519798 0.492219
vt 0.515918 0.502069
vt 0.511798 0.478719
vt 0.506931 0.502069
vt 0.505497 0.478719
vt 0.499798 0.502069
vt 0.499798 0.478719
vt 0.487798 0.478719
vt 0.479798 0.492219
vt 0.479798 0.502069
vt 0.499798 0.522765
vt 0.506931 0.522765
vt 0.478998 0.505719
vt 0.494099 0.478719
vt 0.502069 0.510315
vt 0.492219 0.510315
vt 0.486231 0.507315
vt 0.492666 0.507315
vt 0.494099 0.510315
vt 0.499798 0.510315
vt 0.499798 0.507315
vt 0.506931 0.507315
vt 0.505497 0.510315
vt 0.513365 0.507315
vt 0.511798 0.510315
vt 0.487798 0.510315
vt 0.506931 0.483261
vt 0.513365 0.483261
vt 0.492666 0.483261
vt 0.486231 0.483261
vt 0.477909 0.501520
vt 0.478446 0.510080
vt 0.480085 0.509641
vt 0.477298 0.508315
vt 0.476270 0.501959
vt 0.478719 0.510315
vt 0.515918 0.513592
vt 0.522765 0.504315
vt 0.522765 0.492815
vt 0.502069 0.510315
vt 0.502069 0.492815
vt 0.485171 0.478049
vt 0.481951 0.485355
vt 0.480994 0.484760
vt 0.486128 0.478645
vt 0.492666 0.522765
vt 0.492666 0.477119
vt 0.486231 0.477119
vt 0.489798 0.522765
vt 0.477846 0.504851
vt 0.477846 0.490719
vt 0.499798 0.477119
vt 0.506931 0.477119
vt 0.513365 0.477119
vt 0.509798 0.522765
vt 0.521750 0.490719
vt 0.521750 0.504851
vt 0.506931 0.492815
vt 0.506931 0.510315
vt 0.515918 0.510315
vt 0.515918 0.492815
vt 0.481951 0.485316
vt 0.481951 0.504867
vt 0.480994 0.485316
vt 0.480994 0.504867
vt 0.501501 0.501520
vt 0.498615 0.501520
vt 0.501501 0.509641
vt 0.498615 0.509641
vt 0.476270 0.498615
vt 0.477909 0.498615
vt 0.477909 0.501501
vt 0.476270 0.501501
vt 0.480085 0.498615
vt 0.478446 0.501501
vt 0.478446 0.498615
vt 0.480085 0.501501
vt 0.477187 0.501276
vt 0.476719 0.508315
vt 0.477725 0.509836
vt 0.475549 0.501715
vt 0.479363 0.509397
vt 0.492131 0.501276
vt 0.492131 0.509397
vt 0.489246 0.501276
vt 0.489246 0.509397
vt 0.518602 0.484760
vt 0.517646 0.485355
vt 0.514425 0.478049
vt 0.513469 0.478645
vt 0.518602 0.504867
vt 0.517646 0.504867
vt 0.518602 0.485316
vt 0.517646 0.485316
vt 0.498615 0.501959
vt 0.501501 0.508315
vt 0.501501 0.501959
vt 0.498615 0.508315
vt 0.498615 0.510080
vt 0.501501 0.510080
vt 0.489246 0.475549
vt 0.489246 0.477187
vt 0.492131 0.477187
vt 0.492131 0.475549
vt 0.484760 0.504867
vt 0.484760 0.485316
vt 0.478049 0.485316
vt 0.478049 0.504867
vt 0.521687 0.501520
vt 0.522298 0.508315
vt 0.523326 0.501959
vt 0.519512 0.509641
vt 0.521150 0.510080
vt 0.523326 0.498615
vt 0.521687 0.501501
vt 0.521687 0.498615
vt 0.523326 0.501501
vt 0.521150 0.501501
vt 0.519512 0.498615
vt 0.521150 0.498615
vt 0.519512 0.501501
vt 0.510351 0.501276
vt 0.507465 0.509397
vt 0.507465 0.501276
vt 0.510351 0.509397
vt 0.507465 0.477725
vt 0.510351 0.477725
vt 0.510351 0.479363
vt 0.507465 0.479363
vt 0.477725 0.509836
vt 0.510351 0.475549
vt 0.507465 0.477187
vt 0.510351 0.477187
vt 0.507465 0.475549
vt 0.489246 0.501715
vt 0.492131 0.501715
vt 0.492131 0.508315
vt 0.489246 0.508315
vt 0.489246 0.509836
vt 0.492131 0.509836
vt 0.486128 0.504867
vt 0.485171 0.504867
vt 0.486128 0.485316
vt 0.485171 0.485316
vt 0.514425 0.504867
vt 0.513469 0.504867
vt 0.513469 0.485316
vt 0.514425 0.485316
vt 0.507465 0.508315
vt 0.507465 0.501715
vt 0.510351 0.501715
vt 0.510351 0.508315
vt 0.510351 0.509836
vt 0.507465 0.509836
vt 0.489246 0.479363
vt 0.489246 0.477725
vt 0.492131 0.477725
vt 0.492131 0.479363
vt 0.492666 0.510315
vt 0.492666 0.492815
vt 0.483678 0.510315
vt 0.483678 0.492815
vt 0.520598 0.505719
vt 0.519798 0.502069
vt 0.503158 0.509803
vt 0.503719 0.511403
vt 0.508538 0.509903
vt 0.509219 0.508015
vt 0.501338 0.508015
vt 0.506258 0.509903
vt 0.506258 0.508015
vt 0.508538 0.509903
vt 0.501338 0.509803
vt 0.506258 0.509803
vt 0.501338 0.511403
vt 0.501338 0.509903
vt 0.501338 0.508538
vt 0.506258 0.503719
vt 0.506258 0.508538
vt 0.506258 0.511403
vt 0.501338 0.503719
vt 0.506258 0.509219
vt 0.501338 0.503158
vt 0.501338 0.509219
vt 0.522765 0.492815
vt 0.502069 0.510315
vt 0.506258 0.503158
s 1
g Dido_gun_cal133_x2_001_Dido_gun_cal133_x2_001_Material.007_Material.007_steel_4
usemtl steel_4
f 2/1/1 1/2/1 11/3/1
f 11/3/1 1/2/1 3/4/1
f 13/2/1 18/4/1 10/1/1
f 18/4/1 14/3/1 10/1/1
f 14/5/2 2/6/2 11/7/2
f 14/5/2 10/8/2 2/6/2
f 1/9/3 3/10/3 13/11/3
f 3/10/3 18/12/3 13/11/3
f 28/13/1 24/14/1 27/15/1
f 19/16/1 27/15/1 24/14/1
f 17/17/1 27/15/1 26/18/1
f 28/13/1 27/15/1 16/19/1
f 26/18/4 24/14/4 28/13/4
f 23/11/5 22/12/5 19/9/5
f 22/12/5 24/10/5 19/9/5
f 9/20/1 15/21/1 6/22/1
f 9/20/1 5/23/1 15/21/1
f 7/5/6 6/6/6 8/8/6
f 7/5/6 9/7/6 6/6/6
f 4/23/1 12/21/1 8/22/1
f 4/23/1 8/22/1 7/20/1
f 5/10/7 15/9/7 12/11/7
f 5/10/7 12/11/7 4/12/7
f 21/12/8 20/11/8 17/9/8
f 21/12/8 17/9/8 16/10/8
f 29/18/1 20/17/1 30/15/1
f 29/18/1 30/15/1 23/16/1
f 22/14/1 30/15/1 25/13/1
f 30/15/1 21/19/1 25/13/1
f 25/13/4 29/18/4 22/14/4
f 37/24/9 39/25/9 36/26/9
f 39/25/9 31/27/9 36/26/9
f 44/28/9 45/29/9 42/30/9
f 44/28/9 38/31/9 45/29/9
f 40/32/9 44/28/9 43/33/9
f 44/28/9 41/34/9 43/33/9
f 43/33/10 45/29/10 40/32/10
f 32/35/9 34/36/9 35/37/9
f 32/35/9 35/37/9 33/38/9
f 51/39/11 77/40/12 46/41/13
f 91/40/14 89/39/15 92/41/16
f 50/42/5 47/43/17 51/39/5
f 50/42/5 102/44/5 47/43/17
f 47/43/18 102/44/19 53/45/19
f 47/43/20 53/45/19 48/46/21
f 50/42/5 49/47/5 102/44/5
f 49/47/5 88/48/5 102/44/5
f 63/49/22 62/50/22 106/51/9
f 62/50/22 94/52/9 106/51/9
f 106/51/9 94/52/9 95/53/9
f 94/52/9 56/54/9 95/53/9
f 56/54/9 70/55/9 95/53/9
f 70/55/9 65/56/9 95/53/9
f 70/55/9 66/57/23 65/56/9
f 66/57/23 69/58/23 65/56/9
f 92/41/24 97/48/25 90/59/25
f 69/60/25 90/59/25 97/48/25
f 92/41/24 89/39/25 97/48/25
f 70/55/9 56/54/9 73/61/9
f 73/61/9 56/54/9 57/62/9
f 57/62/9 56/54/9 99/63/9
f 99/63/9 56/54/9 94/52/9
f 101/64/1 64/65/1 67/66/1
f 64/59/26 63/60/26 88/48/26
f 46/41/27 88/48/26 51/39/26
f 81/67/28 80/68/29 86/69/30
f 86/69/31 83/70/1 82/71/1
f 82/71/1 68/72/1 72/73/1
f 74/74/32 71/64/1 100/66/33
f 75/75/34 100/66/33 76/76/35
f 57/77/36 83/70/36 73/78/36
f 100/66/37 77/79/38 76/76/39
f 96/44/40 84/43/41 58/45/40
f 84/43/41 59/46/42 58/45/40
f 96/44/8 54/42/8 84/43/43
f 54/42/8 89/39/8 84/43/43
f 54/42/8 96/44/8 52/47/8
f 52/47/8 96/44/8 97/48/8
f 68/72/1 78/80/1 72/73/1
f 51/39/44 76/81/45 77/40/46
f 76/81/47 47/43/48 75/82/49
f 48/83/50 61/84/51 78/85/51
f 78/85/51 61/84/51 72/86/51
f 61/84/51 144/87/51 72/86/51
f 144/87/51 87/88/51 72/86/51
f 87/88/51 82/89/51 72/86/51
f 87/88/51 59/90/52 82/89/51
f 59/90/52 86/91/53 82/89/51
f 48/83/50 78/85/51 74/92/54
f 60/93/10 58/94/10 59/90/55
f 60/93/10 59/90/55 87/88/10
f 87/88/10 145/53/10 60/93/10
f 55/95/10 61/84/10 48/83/56
f 145/53/10 61/84/10 55/95/10
f 48/83/56 53/96/10 55/95/10
f 57/77/36 71/64/36 68/72/36
f 116/97/9 120/98/9 118/99/9
f 153/100/9 116/97/9 119/101/9
f 47/43/57 74/102/58 75/82/59
f 89/39/60 91/40/61 85/81/62
f 85/81/63 84/43/64 89/39/65
f 79/68/1 90/103/1 93/70/1
f 99/104/5 94/105/5 71/106/5
f 94/105/5 101/107/5 71/106/5
f 158/108/1 162/109/1 156/110/1
f 158/108/1 155/111/1 162/109/1
f 70/105/8 73/104/8 83/106/8
f 70/105/8 83/106/8 93/107/8
f 106/112/1 55/113/1 95/77/1
f 106/112/1 53/114/1 55/113/1
f 53/114/1 106/112/1 63/115/1
f 103/65/1 88/116/1 102/117/1
f 53/114/1 103/65/1 102/117/1
f 55/113/1 145/118/1 95/77/1
f 145/118/1 60/119/1 95/77/1
f 60/119/1 65/78/1 95/77/1
f 65/78/1 60/119/1 58/120/1
f 58/120/1 69/121/1 65/78/1
f 98/103/1 96/122/1 97/123/1
f 98/103/1 58/120/1 96/122/1
f 93/124/9 83/125/9 80/126/66
f 93/124/9 80/126/66 79/127/9
f 162/128/67 161/129/67 156/130/67
f 156/130/67 161/129/67 160/131/67
f 101/64/1 94/112/1 64/65/1
f 46/41/27 64/59/26 88/48/26
f 94/112/1 62/115/1 64/65/1
f 116/132/68 124/133/68 118/134/68
f 124/133/68 117/135/68 118/134/68
f 124/97/9 121/101/9 117/99/9
f 154/100/9 117/99/9 121/101/9
f 121/136/69 124/137/69 116/138/69
f 121/136/69 116/138/69 119/139/69
f 117/140/69 120/141/69 125/142/69
f 117/140/69 118/143/69 120/141/69
f 138/144/5 152/145/5 141/146/5
f 152/145/5 138/144/5 140/147/5
f 138/144/5 141/146/5 136/148/5
f 138/149/70 136/150/70 137/151/70
f 137/151/70 136/150/70 139/152/70
f 150/153/1 134/154/1 133/155/1
f 133/155/1 134/154/1 135/156/1
f 147/157/71 149/158/71 150/159/71
f 150/159/71 149/158/71 134/160/71
f 79/107/5 92/41/72 90/59/5
f 70/78/1 93/70/1 90/103/1
f 70/78/1 90/103/1 66/121/1
f 121/161/73 153/162/73 119/163/73
f 153/162/73 121/161/73 154/164/73
f 153/162/74 154/164/74 125/165/74
f 125/165/74 120/166/74 153/162/74
f 137/144/5 142/147/5 139/148/5
f 151/145/5 139/148/5 142/147/5
f 142/167/75 137/168/75 138/169/75
f 142/167/75 138/169/75 140/170/75
f 160/171/76 156/172/76 158/173/76
f 160/171/76 158/173/76 157/174/76
f 108/133/77 104/132/77 112/134/77
f 108/133/77 112/134/77 111/135/77
f 104/175/9 131/176/9 105/177/9
f 104/175/9 112/178/9 110/179/9
f 107/177/9 108/175/9 111/178/9
f 107/180/78 104/181/78 108/182/78
f 107/180/78 105/183/78 104/181/78
f 111/178/9 132/176/9 107/177/9
f 110/184/78 111/185/78 109/186/78
f 111/185/78 110/184/78 112/187/78
f 113/144/8 115/146/8 130/145/8
f 113/144/8 128/148/8 115/146/8
f 130/145/8 114/147/8 113/144/8
f 123/188/70 128/189/70 113/190/70
f 123/188/70 127/191/70 128/189/70
f 115/192/79 126/193/79 127/194/79
f 127/194/79 128/195/79 115/192/79
f 129/145/8 127/148/8 126/196/8
f 122/147/8 123/144/8 127/148/8
f 122/197/75 113/198/75 123/199/75
f 122/197/75 114/200/75 113/198/75
f 142/201/80 140/202/80 152/203/80
f 152/203/80 151/204/80 142/201/80
f 151/204/81 152/203/81 143/205/81
f 143/205/81 152/203/81 141/206/81
f 147/153/1 149/154/1 146/156/1
f 147/153/1 146/156/1 148/155/1
f 159/207/67 157/208/67 155/209/67
f 157/208/67 158/210/67 155/209/67
f 148/211/71 146/212/71 135/213/71
f 148/211/71 135/213/71 133/214/71
f 109/165/65 131/162/65 110/166/65
f 131/162/65 109/165/65 132/164/65
f 131/162/82 132/164/82 107/161/82
f 107/161/82 105/163/82 131/162/82
f 130/215/80 114/216/80 122/217/80
f 130/215/80 122/217/80 129/218/80
f 129/218/81 126/219/81 130/215/81
f 126/219/81 115/220/81 130/215/81
f 46/41/83 67/107/8 64/59/8
f 139/221/79 143/222/79 141/223/79
f 139/221/79 141/223/79 136/224/79
f 71/225/9 101/226/9 100/227/84
f 101/226/9 67/228/9 100/227/84
f 150/172/85 147/171/85 133/173/85
f 147/171/85 148/174/85 133/173/85
f 161/109/1 160/110/1 159/111/1
f 160/110/1 157/108/1 159/111/1
f 91/229/86 80/68/87 85/230/88
f 84/43/89 86/102/90 59/46/91
f 166/231/5 164/232/5 167/233/5
f 167/233/5 169/234/5 166/231/5
f 169/235/92 168/236/92 170/237/92
f 168/238/8 163/231/8 170/234/8
f 166/239/93 163/240/93 164/241/93
f 168/236/92 169/235/92 167/242/94
f 167/243/95 165/244/95 168/245/95
f 165/232/8 163/231/8 168/238/8
f 165/246/93 164/241/93 163/240/93
f 165/244/95 167/243/95 164/247/95
f 170/248/96 166/249/96 169/250/96
f 19/16/1 26/18/1 27/15/1
f 17/17/1 16/19/1 27/15/1
f 28/13/4 16/19/4 17/17/4
f 26/18/4 19/16/4 24/14/4
f 28/13/4 17/17/4 26/18/4
f 22/14/1 23/16/1 30/15/1
f 30/15/1 20/17/1 21/19/1
f 25/13/4 21/19/4 20/17/4
f 29/18/4 23/16/4 22/14/4
f 25/13/4 20/17/4 29/18/4
f 40/32/9 38/31/9 44/28/9
f 44/28/9 42/30/9 41/34/9
f 43/33/10 41/34/10 42/30/10
f 45/29/10 38/31/10 40/32/10
f 43/33/10 42/30/10 45/29/10
f 69/60/25 66/251/25 90/59/25
f 64/59/26 62/251/26 63/60/26
f 81/67/28 85/230/97 80/68/29
f 86/69/31 80/68/98 83/70/1
f 82/71/1 83/70/1 68/72/1
f 74/74/32 78/80/1 71/64/1
f 75/75/34 74/74/32 100/66/33
f 57/77/36 68/72/36 83/70/36
f 100/66/37 46/65/99 77/79/38
f 68/72/1 71/64/1 78/80/1
f 76/81/47 51/39/74 47/43/48
f 87/88/10 144/87/10 145/53/10
f 145/53/10 144/87/10 61/84/10
f 57/77/36 99/112/36 71/64/36
f 153/100/9 120/98/9 116/97/9
f 47/43/57 48/46/100 74/102/58
f 85/81/63 81/82/101 84/43/64
f 53/114/1 63/115/1 103/65/1
f 98/103/1 69/121/1 58/120/1
f 154/100/9 125/98/9 117/99/9
f 79/107/5 80/252/102 92/41/72
f 151/145/5 143/196/5 139/148/5
f 104/175/9 110/179/9 131/176/9
f 111/178/9 109/179/9 132/176/9
f 129/145/8 122/147/8 127/148/8
f 46/41/83 100/252/103 67/107/8
f 91/229/86 92/103/104 80/68/87
f 84/43/89 81/82/105 86/102/90
f 170/248/96 163/253/96 166/249/96
