# Blender 5.1.1
# www.blender.org
mtllib Hood_gun_140_x1_001_3_Hood_gun_140_x1_001_3.mtl
o Hood_gun_140_x1_001_3_Hood_gun_140_x1_001_3
v 1.171488 2.336554 -1.034867
v 1.171488 2.336554 -1.088807
v 1.171488 2.336554 -1.088807
v 1.107241 2.274710 -1.088807
v 1.107241 0.616103 -1.088807
v -1.171488 2.336554 -1.034867
v -1.171488 2.336554 -1.088807
v 1.171488 0.616160 -1.088807
v 1.107240 0.616103 1.102414
v 1.171488 0.616103 1.164356
v 1.107241 0.616103 -1.088807
v 1.171488 0.616160 -1.088807
v 1.171488 0.616103 1.164356
v 0.320292 0.923755 1.164356
v 1.171488 0.929871 1.164356
v 0.320292 0.929871 1.164356
v 0.320292 2.336554 0.424517
v 1.171488 2.336554 -1.034867
v -1.171488 2.336554 -1.088807
v -1.107241 2.274710 -1.088807
v -1.107241 0.616103 -1.088807
v -1.171488 0.616160 -1.088807
v 1.171488 2.336554 0.424517
v 1.107240 0.616103 1.102414
v 0.320292 0.923755 1.102414
v 1.107240 0.923755 1.102414
v 0.320292 0.923755 1.102414
v 1.107241 2.274710 -1.088807
v -1.107240 0.616103 1.102414
v -1.171488 0.616103 1.164356
v -1.107241 0.616103 -1.088807
v -1.171488 0.616160 -1.088807
v 0.320292 2.274458 0.422185
v 1.107240 2.274458 0.422185
v 1.171488 0.929871 1.164356
v 1.171488 0.616103 1.164356
v 1.171488 0.616103 -1.034867
v 1.171488 2.336554 0.424517
v 1.171488 2.336554 -1.034867
v 1.171488 0.616160 -1.034867
v -1.171488 0.616103 1.164356
v -0.320292 0.923755 1.164356
v -1.171488 0.929871 1.164356
v -0.320292 0.929871 1.164356
v 1.171488 2.336554 -1.088807
v 1.171488 2.336554 -1.034867
v 1.171488 0.616160 -1.088807
v 0.320292 2.336554 0.424517
v 0.320292 2.274458 0.422185
v 0.320292 0.929871 1.164356
v 0.320292 0.923755 1.102414
v -0.320292 2.336554 0.424517
v -1.171488 2.336554 -1.034867
v -1.171488 2.336554 0.424517
v 0.320292 0.923755 1.164356
v 0.320292 0.923755 1.102414
v 0.320292 2.274458 0.422185
v 0.320292 2.336554 0.424517
v 0.320292 0.923755 1.164356
v 0.320292 0.923755 1.102414
v 1.107241 0.616103 -1.088807
v 1.107240 2.274458 0.422185
v -1.107240 0.616103 1.102414
v -0.320292 0.923755 1.102414
v -1.107240 0.923755 1.102414
v -0.320292 0.923755 1.102414
v 1.107241 2.274710 -1.088807
v 1.107240 0.923755 1.102414
v 1.107240 0.616103 1.102414
v 1.062071 1.285843 0.649497
v 0.546622 1.285902 0.094395
v 0.546620 1.285847 0.649492
v 1.062077 1.285902 0.094396
v -1.107241 2.274710 -1.088807
v -0.320292 2.274458 0.422185
v -1.107240 2.274458 0.422185
v -1.171488 0.929871 1.164356
v -1.171488 0.616103 1.164356
v -1.171488 0.616103 -1.034867
v -1.171488 2.336554 0.424517
v -1.171488 2.336554 -1.034867
v -1.171488 0.616160 -1.034867
v -1.171488 2.336554 -1.088807
v -1.171488 2.336554 -1.034867
v -1.171488 0.616160 -1.088807
v -0.320292 2.336554 0.424517
v -0.320292 2.274458 0.422185
v -0.320292 0.929871 1.164356
v -0.320292 0.923755 1.102414
v -0.320292 0.923755 1.164356
v -0.320292 0.923755 1.102414
v 1.062071 0.735609 0.649497
v 0.546620 1.285847 0.649492
v 0.546620 0.735613 0.649492
v 1.062071 1.285843 0.649497
v 0.546620 0.735613 0.649492
v 0.546622 1.285902 0.094395
v 0.546622 0.735668 0.094395
v 0.546620 1.285847 0.649492
v 0.546622 0.735668 0.094395
v 1.062077 1.285902 0.094396
v 1.062077 0.735668 0.094396
v 0.546622 1.285902 0.094395
v -0.320292 2.274458 0.422185
v 1.062077 0.735668 0.094396
v 1.062071 1.285843 0.649497
v -0.320292 2.336554 0.424517
v 1.062071 0.735609 0.649497
v -0.320292 0.923755 1.164356
v -0.320292 0.923755 1.102414
v 1.062077 1.285902 0.094396
v -1.107241 0.616103 -1.088807
v -1.107240 2.274458 0.422185
v -1.107241 2.274710 -1.088807
v -1.107240 0.923755 1.102414
v -1.107240 0.616103 1.102414
v -1.062071 1.285843 0.649497
v -0.546622 1.285902 0.094395
v -0.546620 1.285847 0.649492
v -1.062077 1.285902 0.094396
v -1.062071 0.735609 0.649497
v -0.546620 1.285847 0.649492
v -0.546620 0.735613 0.649492
v -1.062071 1.285843 0.649497
v -0.546620 0.735613 0.649492
v -0.546622 1.285902 0.094395
v -0.546622 0.735668 0.094395
v -0.546620 1.285847 0.649492
v -0.546622 0.735668 0.094395
v -1.062077 1.285902 0.094396
v -1.062077 0.735668 0.094396
v -0.546622 1.285902 0.094395
v -1.062077 0.735668 0.094396
v -1.062071 1.285843 0.649497
v -1.062071 0.735609 0.649497
v -1.062077 1.285902 0.094396
vn -0.0000 -0.0000 1.0000
vn -0.0444 0.0856 0.9953
vn -0.0000 -0.0375 0.9993
vn 1.0000 -0.0000 -0.0000
vn 0.0625 0.9980 -0.0000
vn 0.7770 0.6295 -0.0000
vn -0.0000 1.0000 -0.0000
vn -0.0190 0.9993 0.0330
vn 0.0353 0.9993 0.0144
vn -0.0005 -1.0000 -0.0000
vn -0.0000 -1.0000 -0.0000
vn 0.0005 -1.0000 -0.0000
vn -0.0000 -0.0000 -1.0000
vn -1.0000 -0.0000 -0.0000
vn -0.7919 0.6106 -0.0000
vn -0.0000 0.4934 -0.8698
vn -0.0000 0.4472 -0.8944
vn -0.0000 -1.0000 -0.0002
vn -0.0202 -0.9992 -0.0334
vn 0.0357 -0.9992 -0.0156
vn 0.0093 -0.4832 -0.8755
vn -0.0452 -0.3701 -0.9279
vn -0.0000 -0.3602 -0.9329
vn -0.0000 1.0000 0.0001
vn 0.0979 -0.4476 -0.8889
vn -0.0093 -0.4832 -0.8755
vn -0.0979 -0.4476 -0.8888
vn 0.0913 0.4908 0.8665
vn -0.0531 0.4824 0.8743
vn -0.0964 0.4633 0.8809
vn -0.0374 0.5025 0.8638
vn -0.0158 0.3791 0.9252
vn 0.0001 0.3780 0.9258
vn 0.0086 0.0961 0.9953
vn 0.0964 0.0001 0.9953
vn -0.0664 -0.0699 0.9953
vn -0.0958 0.0114 0.9953
vn -0.0000 0.0964 0.9953
vn 0.0558 0.9984 0.0105
vn -0.0000 0.9984 0.0568
vn 0.0330 0.9993 0.0190
vn -0.0144 0.9993 0.0353
vn 0.0443 0.9984 -0.0355
vn -0.0017 -1.0000 -0.0005
vn -0.0007 -1.0000 0.0005
vn 0.0007 -1.0000 0.0005
vn 0.0017 -1.0000 -0.0005
vn 0.0979 0.9952 -0.0000
vn -0.0977 -0.0059 -0.9952
vn -0.0000 -0.0979 -0.9952
vn -0.0912 -0.0356 -0.9952
vn -0.0000 -0.9982 -0.0593
vn -0.0591 -0.9983 -0.0002
vn 0.0333 -0.9992 -0.0204
vn -0.0154 -0.9992 -0.0359
vn 0.0489 -0.9982 -0.0335
vn 0.0333 -0.4675 -0.8834
vn -0.0000 -0.5018 -0.8650
vn 0.0452 -0.3701 -0.9279
vn 0.0592 -0.4490 -0.8916
vn -0.0333 -0.4675 -0.8834
vn 0.0903 0.4333 0.8967
vn 0.0270 0.4890 0.8719
vn -0.0538 0.4486 0.8921
vn 0.0092 0.5143 0.8575
vn -0.0270 0.4890 0.8719
vn 0.0635 0.3991 0.9147
vt 0.073403 0.172159
vt 0.117216 0.164084
vt 0.142215 0.162944
vt 0.503827 0.740830
vt 0.502002 0.759644
vt 0.502002 0.740830
vt 0.699336 0.516395
vt 0.701472 0.516174
vt 0.701048 0.517036
vt 0.142215 0.073403
vt 0.117216 0.116264
vt 0.098402 0.116264
vt 0.290840 0.744817
vt 0.289021 0.763631
vt 0.289021 0.744817
vt 0.355196 0.386850
vt 0.353377 0.319925
vt 0.355196 0.318038
vt 0.073403 0.925015
vt 0.088542 0.908855
vt 0.088542 0.925015
vt 0.543315 0.529434
vt 0.552531 0.594024
vt 0.502002 0.594024
vt 0.328698 0.598012
vt 0.289021 0.533656
vt 0.337734 0.533656
vt 0.073403 0.745746
vt 0.089563 0.762047
vt 0.073403 0.762049
vt 0.699760 0.711528
vt 0.700969 0.709863
vt 0.701472 0.710886
vt 0.502002 0.360899
vt 0.552531 0.318038
vt 0.552531 0.382628
vt 0.330947 0.081478
vt 0.312133 0.081478
vt 0.354060 0.073403
vt 0.847726 0.334341
vt 0.863887 0.318040
vt 0.863887 0.334343
vt 0.650840 0.123930
vt 0.649255 0.073403
vt 0.650840 0.073403
vt 0.122116 0.598938
vt 0.073410 0.554561
vt 0.113080 0.534583
vt 0.289021 0.171232
vt 0.312133 0.126855
vt 0.330947 0.126855
vt 0.289021 0.082439
vt 0.312133 0.082439
vt 0.848278 0.694785
vt 0.863417 0.678482
vt 0.863417 0.694785
vt 0.289021 0.910437
vt 0.304160 0.926597
vt 0.289021 0.926597
vt 0.686334 0.904354
vt 0.701472 0.920514
vt 0.686334 0.920514
vt 0.122116 0.320852
vt 0.123932 0.318965
vt 0.123932 0.387777
vt 0.864438 0.531674
vt 0.848278 0.515373
vt 0.864438 0.515371
vt 0.502002 0.922610
vt 0.517140 0.906450
vt 0.517140 0.922610
vt 0.700921 0.318038
vt 0.699336 0.368565
vt 0.699336 0.318038
vt 0.863417 0.857894
vt 0.848278 0.841590
vt 0.863417 0.841590
vt 0.797645 0.089706
vt 0.813806 0.073405
vt 0.813806 0.089708
vt 0.354060 0.082439
vt 0.330947 0.082439
vt 0.117216 0.162944
vt 0.142215 0.116264
vt 0.073403 0.116264
vt 0.098402 0.162944
vt 0.073403 0.162944
vt 0.502450 0.073403
vt 0.500865 0.142215
vt 0.500865 0.073403
vt 0.142215 0.172159
vt 0.098402 0.164084
vt 0.503827 0.759644
vt 0.701472 0.561450
vt 0.700606 0.563057
vt 0.699840 0.515371
vt 0.073403 0.073403
vt 0.290840 0.763631
vt 0.289021 0.386850
vt 0.289021 0.384963
vt 0.353376 0.384963
vt 0.289021 0.319925
vt 0.289021 0.318038
vt 0.073403 0.908855
vt 0.502002 0.551163
vt 0.552531 0.529434
vt 0.337734 0.598012
vt 0.289028 0.578034
vt 0.089563 0.745744
vt 0.700203 0.757548
vt 0.699336 0.755942
vt 0.699336 0.710665
vt 0.543315 0.382628
vt 0.502002 0.318038
vt 0.289021 0.073403
vt 0.847726 0.318038
vt 0.649255 0.123930
vt 0.122116 0.534583
vt 0.073403 0.598938
vt 0.354060 0.126855
vt 0.354060 0.171232
vt 0.289021 0.126855
vt 0.848278 0.678482
vt 0.304160 0.910437
vt 0.701472 0.904354
vt 0.073403 0.320852
vt 0.073405 0.318965
vt 0.073405 0.387777
vt 0.073403 0.385890
vt 0.122116 0.385890
vt 0.848278 0.531676
vt 0.502002 0.906450
vt 0.700921 0.368565
vt 0.848278 0.857893
vt 0.797645 0.073403
vt 0.502450 0.142215
s 1
g Hood_gun_140_x1_001_3_Hood_gun_140_x1_001_3_steel_4
usemtl steel_4
f 13/1/1 42/2/1 43/3/2
f 104/4/3 58/5/3 107/6/3
f 88/7/4 91/8/5 89/9/6
f 53/10/7 52/11/8 17/12/9
f 109/13/7 60/14/7 110/15/7
f 30/16/10 9/17/11 10/18/12
f 101/19/13 100/20/13 103/21/13
f 35/22/4 37/23/4 39/24/4
f 68/25/14 67/26/14 61/27/14
f 106/28/4 105/29/4 111/30/4
f 51/31/15 55/32/14 50/33/14
f 80/34/14 79/35/14 78/36/14
f 64/37/16 25/38/17 63/39/13
f 99/40/14 98/41/14 96/42/14
f 45/43/4 40/44/4 47/45/4
f 112/46/4 113/47/4 115/48/4
f 28/49/18 33/50/19 75/51/20
f 33/50/21 26/52/22 27/53/23
f 71/54/24 70/55/24 73/56/24
f 129/57/13 130/58/13 132/59/13
f 95/60/1 94/61/1 92/62/1
f 20/63/13 19/64/13 3/65/13
f 128/66/4 127/67/4 126/68/4
f 124/69/1 123/70/1 122/71/1
f 82/72/14 83/73/14 85/74/14
f 117/75/24 118/76/24 120/77/24
f 133/78/14 134/79/14 136/80/14
f 65/81/25 75/51/26 66/82/27
f 44/83/28 54/84/29 43/3/30
f 23/85/31 16/86/32 15/87/33
f 6/88/7 2/89/7 7/90/7
f 43/3/34 41/91/1 13/1/1
f 13/1/1 15/87/35 16/86/36
f 13/1/1 16/86/37 14/92/1
f 42/2/1 44/83/38 43/3/2
f 13/1/1 14/92/1 42/2/1
f 104/4/3 57/93/3 58/5/3
f 87/94/4 86/95/4 88/7/4
f 88/7/4 90/96/4 91/8/5
f 89/9/6 87/94/4 88/7/4
f 23/85/39 18/97/7 53/10/7
f 53/10/7 54/84/40 52/11/41
f 17/12/42 23/85/43 53/10/7
f 109/13/7 59/98/7 60/14/7
f 30/16/10 32/99/44 31/100/45
f 30/16/10 31/100/45 29/101/11
f 11/102/46 12/103/47 10/18/12
f 30/16/10 29/101/11 9/17/11
f 9/17/11 11/102/46 10/18/12
f 101/19/13 102/104/13 100/20/13
f 39/24/4 38/105/4 35/22/4
f 35/22/4 36/106/4 37/23/4
f 61/27/14 69/107/14 68/25/14
f 68/25/14 62/108/14 67/26/14
f 106/28/4 108/109/4 105/29/4
f 50/33/14 48/110/14 49/111/14
f 51/31/15 56/112/7 55/32/14
f 50/33/14 49/111/14 51/31/15
f 78/36/14 77/113/14 80/34/14
f 80/34/14 81/114/14 79/35/14
f 25/38/17 27/53/48 26/52/49
f 26/52/49 24/115/13 63/39/13
f 63/39/13 65/81/50 66/82/51
f 63/39/13 66/82/7 64/37/16
f 25/38/17 26/52/49 63/39/13
f 99/40/14 97/116/14 98/41/14
f 45/43/4 46/117/4 40/44/4
f 115/48/4 116/118/4 112/46/4
f 112/46/4 114/119/4 113/47/4
f 76/120/52 74/121/18 28/49/18
f 28/49/18 34/122/53 33/50/54
f 75/51/55 76/120/56 28/49/18
f 33/50/57 34/122/58 26/52/23
f 71/54/24 72/123/24 70/55/24
f 129/57/13 131/124/13 130/58/13
f 95/60/1 93/125/1 94/61/1
f 20/63/13 21/126/13 22/127/13
f 3/65/13 8/128/13 5/129/13
f 3/65/13 5/129/13 4/130/13
f 20/63/13 22/127/13 19/64/13
f 3/65/13 4/130/13 20/63/13
f 128/66/4 125/131/4 127/67/4
f 124/69/1 121/132/1 123/70/1
f 82/72/14 84/133/14 83/73/14
f 117/75/24 119/134/24 118/76/24
f 133/78/14 135/135/14 134/79/14
f 65/81/59 76/120/60 75/51/61
f 44/83/62 52/11/63 54/84/64
f 23/85/65 17/12/66 16/86/67
f 6/88/7 1/136/7 2/89/7
