# Blender 5.1.0
# www.blender.org
mtllib Arizona_B_SKSG_RADAR_Base.mtl
o Arizona_B_SKSG_RADAR_Base
v -0.000022 0.243975 0.727638
v -0.207533 0.243975 0.641677
v 0.207491 0.243975 0.641677
v 0.293445 0.243975 0.434165
v 0.207491 0.243975 0.641677
v 0.207491 0.243975 0.226653
v -0.000022 0.243975 0.140701
v 0.207491 0.243975 0.226653
v -0.207533 0.243975 0.226653
v -0.293489 0.243975 0.434165
v -0.207533 0.243975 0.226653
v -0.207533 0.243975 0.641677
v -0.000022 0.501196 2.754096
v -0.295816 -0.004179 2.631576
v -0.295816 0.501196 2.631576
v -0.000022 -0.004179 2.754096
v 0.295774 0.501196 2.631576
v 0.295774 -0.004179 2.631576
v 0.418295 0.501196 2.335777
v 0.295774 -0.004179 2.631576
v 0.295774 0.501196 2.631576
v 0.418295 -0.004179 2.335777
v 0.295774 0.501196 2.039985
v 0.295774 -0.004179 2.039985
v -0.000022 0.501196 1.917464
v 0.295774 -0.004179 2.039985
v 0.295774 0.501196 2.039985
v -0.000022 -0.004179 1.917464
v -0.295816 0.501196 2.039985
v -0.295816 -0.004179 2.039985
v -0.418339 0.501196 2.335777
v -0.295816 -0.004179 2.039985
v -0.295816 0.501196 2.039985
v -0.418339 -0.004179 2.335777
v -0.295816 0.501196 2.631576
v -0.295816 -0.004179 2.631576
v -1.129722 0.091093 0.473258
v -0.333044 0.380308 2.316322
v -0.333044 0.091093 2.316322
v -1.129722 0.380308 0.473258
v -1.222800 0.232718 0.005325
v -1.129722 0.696795 0.473258
v -1.222800 0.696795 0.005328
v -1.129722 0.696798 -0.462609
v -1.129722 0.232721 -0.462613
v -0.864657 0.232721 -0.859311
v -0.864657 0.696798 -0.859307
v 1.129678 0.380308 0.473258
v 0.333000 0.091093 2.316322
v 0.333000 0.380308 2.316322
v 1.129678 0.091093 0.473258
v 1.222757 0.232718 0.005325
v 1.222757 0.696795 0.005328
v 1.129678 0.696795 0.473258
v 1.129678 0.696798 -0.462609
v 1.129678 0.232721 -0.462617
v 0.864614 0.696798 -0.859307
v 0.864613 0.232721 -0.859311
v 1.120798 0.696795 0.005328
v 1.129678 0.696795 0.473258
v 1.033672 0.696795 0.443332
v 1.222757 0.696795 0.005328
v 1.035480 0.696798 -0.423592
v 1.129678 0.696798 -0.462609
v 0.792518 0.696798 -0.787209
v 0.864614 0.696798 -0.859307
v 0.428898 0.696798 -1.030175
v 0.467916 0.696798 -1.124371
v -0.000022 0.696798 -1.115491
v -0.000022 0.696798 -1.217450
v -0.428941 0.696798 -1.030175
v -0.467959 0.696798 -1.124371
v -0.792561 0.696798 -0.787209
v -0.864657 0.696798 -0.859307
v -1.035524 0.696798 -0.423592
v -1.129722 0.696798 -0.462609
v -1.120841 0.696795 0.005328
v -1.222800 0.696795 0.005328
v -1.033716 0.696795 0.443332
v -1.129722 0.696795 0.473258
v -1.129722 0.380308 0.473258
v -1.033716 0.696795 0.443332
v -1.033716 0.380308 0.443332
v -1.129722 0.696795 0.473258
v 1.033672 0.380308 0.443332
v 1.129678 0.696795 0.473258
v 1.129678 0.380308 0.473258
v 1.033672 0.696795 0.443332
v 0.467916 0.696798 -1.124371
v 0.864613 0.232721 -0.859311
v 0.864614 0.696798 -0.859307
v 0.467916 0.232721 -1.124375
v -0.000022 0.696798 -1.217450
v -0.000022 0.232721 -1.217454
v -0.467959 0.696798 -1.124371
v -0.467959 0.232721 -1.124375
v -0.864657 0.696798 -0.859307
v -0.864657 0.232721 -0.859311
v -0.057782 -0.344187 0.294387
v -0.057782 0.232733 -0.984627
v -0.057782 0.232729 0.294387
v -0.057782 0.092436 -0.984627
v 0.057777 -0.344187 0.294387
v -0.057782 0.092436 -0.984627
v -0.057782 -0.344187 0.294387
v 0.057777 0.092436 -0.984627
v 0.057777 -0.344187 0.294387
v 0.057777 0.232733 -0.984627
v 0.057777 0.092436 -0.984627
v 0.057777 0.232729 0.294387
v -0.057782 0.092436 -0.984627
v 0.057777 0.232733 -0.984627
v -0.057782 0.232733 -0.984627
v 0.057777 0.092436 -0.984627
v 0.092174 -0.344187 0.314216
v 0.908666 0.232729 -0.157185
v 0.092174 0.232729 0.314216
v 0.908666 -0.022341 -0.157185
v 0.149953 -0.344187 0.414298
v 0.908666 -0.022341 -0.157185
v 0.092174 -0.344187 0.314216
v 0.966443 -0.022341 -0.057107
v 0.149953 -0.344187 0.414298
v 0.966443 0.232729 -0.057107
v 0.966443 -0.022341 -0.057107
v 0.149953 0.232729 0.414298
v 0.908666 -0.022341 -0.157185
v 0.966443 0.232729 -0.057107
v 0.908666 0.232729 -0.157185
v 0.966443 -0.022341 -0.057107
v -0.092179 -0.344187 0.314224
v -0.908669 0.232729 -0.157182
v -0.908669 -0.022341 -0.157182
v -0.092179 0.232729 0.314224
v -0.149958 -0.344187 0.414298
v -0.908669 -0.022341 -0.157182
v -0.966447 -0.022341 -0.057099
v -0.092179 -0.344187 0.314224
v -0.149958 -0.344187 0.414298
v -0.966447 0.232729 -0.057099
v -0.149958 0.232729 0.414298
v -0.966447 -0.022341 -0.057099
v -0.908669 -0.022341 -0.157182
v -0.966447 0.232729 -0.057099
v -0.966447 -0.022341 -0.057099
v -0.908669 0.232729 -0.157182
v 0.251931 0.380312 0.005405
v 0.203278 1.768663 -0.144540
v 0.203223 0.380312 -0.144501
v 0.251998 1.768663 0.005409
v 0.203223 0.380312 0.155311
v 0.203278 1.768663 0.155360
v 0.075726 1.768663 -0.237206
v 0.203223 0.380312 -0.144501
v 0.203278 1.768663 -0.144540
v 0.075704 0.380312 -0.237153
v -0.081937 1.768663 -0.237206
v -0.081917 0.380312 -0.237153
v -0.209490 1.768663 -0.144540
v -0.209437 0.380312 -0.144501
v -0.258212 1.768663 0.005409
v -0.209437 0.380312 -0.144501
v -0.209490 1.768663 -0.144540
v -0.258145 0.380312 0.005405
v -0.209490 1.768663 0.155360
v -0.209437 0.380312 0.155311
v -0.081939 1.768663 0.248031
v -0.209437 0.380312 0.155311
v -0.209490 1.768663 0.155360
v -0.081919 0.380312 0.247955
v 0.075726 1.768663 0.248031
v 0.075704 0.380312 0.247955
v 0.203278 1.768663 0.155360
v 0.203223 0.380312 0.155311
v 0.251998 1.768663 0.005409
v 0.075726 1.768663 -0.237206
v 0.203278 1.768663 -0.144540
v 0.075726 1.768663 0.248031
v 0.203278 1.768663 0.155360
v -0.081937 1.768663 -0.237206
v -0.081939 1.768663 0.248031
v -0.209490 1.768663 -0.144540
v -0.258212 1.768663 0.005409
v -0.209490 1.768663 0.155360
v 0.435139 0.380312 0.005420
v 0.351536 1.316738 -0.252232
v 0.351442 0.380312 -0.252167
v 0.435253 1.316738 0.005431
v 0.351442 0.380312 0.263015
v 0.351536 1.316738 0.263099
v 0.132355 1.316742 -0.411469
v 0.351442 0.380312 -0.252167
v 0.351536 1.316738 -0.252232
v 0.132318 0.380316 -0.411374
v -0.138566 1.316742 -0.411469
v -0.138532 0.380316 -0.411374
v -0.357747 1.316738 -0.252232
v -0.357655 0.380312 -0.252167
v -0.441468 1.316738 0.005431
v -0.357655 0.380312 -0.252167
v -0.357747 1.316738 -0.252232
v -0.441353 0.380312 0.005420
v -0.357747 1.316738 0.263099
v -0.357655 0.380312 0.263015
v -0.138569 1.316738 0.422336
v -0.357655 0.380312 0.263015
v -0.357747 1.316738 0.263099
v -0.138534 0.380312 0.422210
v 0.132355 1.316738 0.422336
v 0.132318 0.380312 0.422210
v 0.351536 1.316738 0.263099
v 0.351442 0.380312 0.263015
v 0.435253 1.316738 0.005431
v 0.132355 1.316742 -0.411469
v 0.351536 1.316738 -0.252232
v 0.132355 1.316738 0.422336
v 0.351536 1.316738 0.263099
v -0.138566 1.316742 -0.411469
v -0.138569 1.316738 0.422336
v -0.357747 1.316738 -0.252232
v -0.441468 1.316738 0.005431
v -0.357747 1.316738 0.263099
v -0.000022 0.501196 2.754096
v -0.000022 0.603239 2.335777
v 0.295774 0.501196 2.631576
v -0.295816 0.501196 2.631576
v 0.418295 0.501196 2.335777
v -0.418339 0.501196 2.335777
v 0.295774 0.501196 2.039985
v -0.295816 0.501196 2.039985
v -0.000022 0.501196 1.917464
v -1.129722 0.091093 0.473258
v 1.222757 0.232718 0.005325
v -1.222800 0.232718 0.005325
v 1.129678 0.091093 0.473258
v 1.222757 0.232718 0.005325
v -1.129722 0.232721 -0.462613
v -1.222800 0.232718 0.005325
v 1.129678 0.232721 -0.462617
v 0.864613 0.232721 -0.859311
v -0.864657 0.232721 -0.859311
v 0.467916 0.232721 -1.124375
v -0.467959 0.232721 -1.124375
v -0.000022 0.232721 -1.217454
v 0.333000 0.091093 2.316322
v -1.129722 0.091093 0.473258
v -0.333044 0.091093 2.316322
v 1.129678 0.091093 0.473258
v -1.120841 0.696795 0.005328
v -1.033716 0.380308 0.443332
v -1.033716 0.696795 0.443332
v -1.120841 0.380308 0.005328
v -1.035524 0.696798 -0.423592
v -1.035524 0.380312 -0.423592
v -0.792561 0.696798 -0.787209
v -0.792561 0.380312 -0.787209
v -0.428941 0.696798 -1.030175
v -0.792561 0.380312 -0.787209
v -0.792561 0.696798 -0.787209
v -0.428941 0.380312 -1.030175
v -0.000022 0.696798 -1.115491
v -0.000022 0.380312 -1.115491
v 0.428898 0.696798 -1.030175
v 0.428898 0.380312 -1.030175
v 0.792518 0.696798 -0.787209
v 0.792518 0.380312 -0.787209
v 1.035480 0.696798 -0.423592
v 0.792518 0.380312 -0.787209
v 0.792518 0.696798 -0.787209
v 1.035480 0.380312 -0.423592
v 1.120798 0.696795 0.005328
v 1.120798 0.380308 0.005328
v 1.033672 0.696795 0.443332
v 1.033672 0.380308 0.443332
v -1.129722 0.380308 0.473258
v -1.033716 0.380308 0.443332
v -0.333044 0.380308 2.316322
v 1.033672 0.380308 0.443332
v 0.333000 0.380308 2.316322
v 1.129678 0.380308 0.473258
v 1.120798 0.380308 0.005328
v -1.120841 0.380308 0.005328
v -1.035524 0.380312 -0.423592
v 1.035480 0.380312 -0.423592
v -0.792561 0.380312 -0.787209
v 0.792518 0.380312 -0.787209
v -0.428941 0.380312 -1.030175
v 0.428898 0.380312 -1.030175
v -0.000022 0.380312 -1.115491
vn -0.7064 -0.0000 0.7078
vn -0.0000 -0.0000 1.0000
vn 0.7064 -0.0002 0.7078
vn 0.7064 -0.0000 0.7078
vn 0.7078 -0.0000 0.7064
vn 1.0000 -0.0000 -0.0000
vn 0.7078 -0.0003 -0.7064
vn 0.7078 -0.0000 -0.7064
vn 0.7064 -0.0000 -0.7078
vn 0.7064 0.0003 -0.7078
vn -0.0000 -0.0000 -1.0000
vn -0.7064 -0.0000 -0.7078
vn -0.7078 -0.0000 -0.7064
vn -1.0000 -0.0000 -0.0000
vn -0.7078 -0.0000 0.7064
vn -0.9179 -0.0000 0.3968
vn -0.9514 -0.0000 0.3078
vn -0.9646 -0.0000 0.2636
vn -0.9999 -0.0000 0.0167
vn -0.9808 -0.0000 0.1951
vn -0.9239 -0.0000 -0.3827
vn -0.7078 0.0002 -0.7064
vn 0.9179 -0.0000 0.3968
vn 0.9646 -0.0000 0.2636
vn 0.9514 -0.0000 0.3078
vn 0.9999 -0.0000 0.0167
vn 0.9808 -0.0000 0.1951
vn 0.9239 -0.0000 -0.3827
vn 0.7078 -0.0002 -0.7064
vn -0.0000 1.0000 -0.0000
vn 0.2976 -0.0000 0.9547
vn -0.2976 -0.0000 0.9547
vn 0.3827 -0.0000 -0.9239
vn -0.3827 -0.0000 -0.9239
vn -0.7064 -0.0001 -0.7078
vn -0.0000 -0.9464 -0.3231
vn -0.5000 -0.0000 -0.8660
vn 0.2798 -0.9464 -0.1615
vn 0.5000 -0.0000 0.8660
vn 0.8660 -0.0000 -0.5000
vn 0.5000 -0.0000 -0.8660
vn -0.2798 -0.9464 -0.1615
vn -0.5000 -0.0000 0.8660
vn -0.8660 -0.0000 -0.5000
vn 0.8096 -0.0000 -0.5870
vn 0.8096 -0.0002 -0.5870
vn 0.8096 0.0002 0.5870
vn 0.8096 -0.0001 0.5870
vn 0.8084 -0.0001 -0.5886
vn 0.8084 -0.0000 -0.5886
vn 0.3090 -0.0000 -0.9511
vn -0.3090 -0.0000 -0.9511
vn -0.8084 -0.0001 -0.5886
vn -0.8084 -0.0000 -0.5886
vn -0.8096 -0.0001 -0.5870
vn -0.8096 -0.0000 -0.5870
vn -0.8096 -0.0001 0.5870
vn -0.8096 -0.0000 0.5870
vn -0.8084 -0.0001 0.5886
vn -0.8084 -0.0000 0.5886
vn -0.3090 -0.0001 0.9511
vn 0.3090 -0.0001 0.9511
vn 0.8084 -0.0001 0.5886
vn 0.8084 -0.0000 0.5886
vn 0.8096 -0.0001 -0.5870
vn 1.0000 -0.0001 -0.0000
vn 0.3090 -0.0001 -0.9511
vn -0.3090 -0.0001 -0.9511
vn -0.8084 -0.0003 -0.5886
vn -0.8096 0.0002 -0.5870
vn -1.0000 -0.0001 -0.0000
vn 0.1676 0.9715 0.1676
vn -0.0000 0.9715 0.2370
vn -0.1676 0.9715 0.1676
vn 0.2370 0.9715 -0.0000
vn -0.2370 0.9715 -0.0000
vn 0.1676 0.9715 -0.1676
vn -0.1676 0.9715 -0.1676
vn -0.0000 0.9715 -0.2370
vn -0.0000 -0.9571 -0.2897
vn -0.0000 -1.0000 -0.0000
vn 0.9808 -0.0000 -0.1951
vn 0.9239 -0.0000 0.3827
vn 0.3827 -0.0000 0.9239
vn -0.3827 -0.0000 0.9239
vn -0.9239 -0.0000 0.3827
vn -0.9808 -0.0000 -0.1951
vt 0.495500 0.794594
vt 0.495500 0.786839
vt 0.500002 0.794594
vt 0.500002 0.786839
vt 0.504504 0.794594
vt 0.504504 0.786839
vt 10.670717 0.794594
vt 10.670717 0.786839
vt 10.675157 0.794594
vt 10.675157 0.786839
vt 10.679597 0.794594
vt 10.679597 0.786839
vt 0.495496 0.794594
vt 0.495496 0.786839
vt 0.499998 0.794594
vt 0.499998 0.786839
vt 0.504500 0.794594
vt 0.504500 0.786839
vt -9.679597 0.794594
vt -9.679597 0.786839
vt -9.675157 0.794594
vt -9.675157 0.786839
vt -9.670717 0.794594
vt -9.670717 0.786839
vt -9.675448 0.788301
vt -9.675448 0.792739
vt -9.703113 0.788301
vt -9.703113 0.792739
vt -9.710135 0.790475
vt -9.703113 0.797596
vt -9.710135 0.797596
vt -9.717159 0.797596
vt -9.717159 0.790475
vt -9.723114 0.790475
vt -9.723114 0.797596
vt 10.675448 0.792739
vt 10.675448 0.788301
vt 10.703113 0.792739
vt 10.703113 0.788301
vt 10.710135 0.790475
vt 10.710135 0.797596
vt 10.703113 0.797596
vt 10.717159 0.797596
vt 10.717159 0.790475
vt 10.723114 0.797596
vt 10.723114 0.790475
vt 0.515734 10.703562
vt 0.517196 10.703113
vt 0.517060 10.710135
vt 0.518612 10.710135
vt 0.515762 10.716574
vt 0.517196 10.717159
vt 0.512064 10.722032
vt 0.513161 10.723114
vt 0.506530 10.725678
vt 0.507124 10.727092
vt 0.500002 10.726959
vt 0.500002 10.728489
vt 0.493474 10.725678
vt 0.492881 10.727092
vt 0.487940 10.722032
vt 0.486843 10.723114
vt 0.484243 10.716574
vt 0.482809 10.717159
vt 0.482944 10.710135
vt 0.481392 10.710135
vt 0.484270 10.703562
vt 0.482809 10.703113
vt 0.484270 0.792739
vt 0.484270 0.797596
vt 0.482809 0.792739
vt 0.482809 0.797596
vt 0.517196 0.792739
vt 0.517196 0.797596
vt 0.515734 0.792739
vt 0.515734 0.797596
vt 0.486839 0.797596
vt 0.486839 0.790475
vt 0.492876 0.797596
vt 0.492876 0.790475
vt 0.499998 0.797596
vt 0.499998 0.790475
vt 0.507119 0.797596
vt 0.507119 0.790475
vt 0.513157 0.797596
vt 0.513157 0.790475
vt -9.705797 0.790475
vt -9.724995 0.790475
vt -9.705797 0.781622
vt -9.724995 0.788322
vt 0.500877 10.705797
vt 0.500877 10.724995
vt 0.499118 10.705797
vt 0.499118 10.724995
vt 10.724995 0.788322
vt 10.724995 0.790475
vt 10.705797 0.781622
vt 10.705797 0.790475
vt 0.500877 0.790475
vt 0.499118 0.790475
vt 0.500877 0.788322
vt 0.499118 0.788322
vt 0.498595 0.790475
vt 0.486168 0.790475
vt 0.498595 0.781622
vt 0.486168 0.786561
vt 0.498595 10.705500
vt 0.486168 10.712575
vt 0.497715 10.703998
vt 0.485289 10.711073
vt 0.514711 0.786561
vt 0.514711 0.790475
vt 0.502285 0.781622
vt 0.502285 0.790475
vt 10.712575 0.790475
vt 10.711073 0.790475
vt 10.712575 0.786561
vt 10.711073 0.786561
vt 0.513827 0.786561
vt 0.513827 0.790475
vt 0.501400 0.781622
vt 0.501400 0.790475
vt 0.514706 10.711073
vt 0.513827 10.712575
vt 0.502280 10.703998
vt 0.501400 10.705500
vt 0.497720 0.790475
vt 0.485294 0.790475
vt 0.497720 0.781622
vt 0.485294 0.786561
vt -9.711073 0.786561
vt -9.711073 0.790475
vt -9.712575 0.786561
vt -9.712575 0.790475
vt 10.712384 0.792739
vt 10.712385 0.814044
vt 10.710135 0.792739
vt 10.710135 0.814044
vt 10.707885 0.792739
vt 10.707884 0.814044
vt 0.496904 0.814044
vt 0.496904 0.792739
vt 0.498845 0.814044
vt 0.498845 0.792739
vt 0.501244 0.814044
vt 0.501244 0.792739
vt 0.503186 0.814044
vt 0.503185 0.792739
vt -9.712385 0.814044
vt -9.712384 0.792739
vt -9.710135 0.814044
vt -9.710135 0.792739
vt -9.707884 0.814044
vt -9.707885 0.792739
vt 0.496814 0.814044
vt 0.496815 0.792739
vt 0.498756 0.814044
vt 0.498756 0.792739
vt 0.501155 0.814044
vt 0.501155 0.792739
vt 0.503096 0.814044
vt 0.503096 0.792739
vt 0.503096 10.712385
vt 0.501155 10.713777
vt 0.503838 10.710135
vt 0.501155 10.706493
vt 0.503096 10.707884
vt 0.498756 10.713777
vt 0.498756 10.706493
vt 0.496814 10.712385
vt 0.496073 10.710135
vt 0.496814 10.707884
vt 10.714001 0.792739
vt 10.714002 0.807109
vt 10.710135 0.807109
vt 10.706268 0.792739
vt 10.706266 0.807109
vt 0.494647 0.807109
vt 0.494649 0.792739
vt 0.497983 0.807109
vt 0.497984 0.792739
vt 0.502106 0.807109
vt 0.502106 0.792739
vt 0.505442 0.807109
vt 0.505441 0.792739
vt -9.714002 0.807109
vt -9.714001 0.792739
vt -9.710135 0.807109
vt -9.706266 0.807109
vt -9.706268 0.792739
vt 0.494558 0.807109
vt 0.494559 0.792739
vt 0.497894 0.807109
vt 0.497894 0.792739
vt 0.502017 0.807109
vt 0.502016 0.792739
vt 0.505353 0.807109
vt 0.505351 0.792739
vt 0.505353 10.714002
vt 0.502017 10.716392
vt 0.506627 10.710135
vt 0.502017 10.703876
vt 0.505353 10.706266
vt 0.497894 10.716392
vt 0.497894 10.703876
vt 0.494558 10.714002
vt 0.493284 10.710135
vt 0.494558 10.706266
vt 0.504504 10.670717
vt 0.500002 10.675157
vt 0.500002 10.668878
vt 0.495500 10.670717
vt 0.506369 10.675157
vt 0.493636 10.675157
vt 0.504504 10.679597
vt 0.495500 10.679597
vt 0.500002 10.681436
vt 0.518608 10.710135
vt 0.481388 10.710135
vt 0.517191 10.703113
vt 0.482804 10.703113
vt 0.517191 10.717159
vt 0.482804 10.717159
vt 0.486839 10.723114
vt 0.513157 10.723114
vt 0.492876 10.727092
vt 0.507119 10.727092
vt 0.499998 10.728489
vt 0.505066 10.675448
vt 0.494929 10.675448
vt 10.703562 0.797596
vt 10.703562 0.792739
vt 10.710135 0.792739
vt 10.716574 0.797596
vt 10.716574 0.792739
vt 10.722032 0.797596
vt 10.722032 0.792739
vt 0.487940 0.797596
vt 0.487940 0.792739
vt 0.493474 0.797596
vt 0.493474 0.792739
vt 0.500002 0.797596
vt 0.500002 0.792739
vt 0.506530 0.797596
vt 0.506530 0.792739
vt 0.512064 0.797596
vt 0.512064 0.792739
vt -9.722032 0.797596
vt -9.722032 0.792739
vt -9.716574 0.797596
vt -9.716574 0.792739
vt -9.710135 0.792739
vt -9.703562 0.797596
vt -9.703562 0.792739
vt 0.494934 10.675448
vt 0.505071 10.675448
s 1
g Arizona_B_SKSG_RADAR_Base_steel_4
usemtl steel_4
f 15/1/1 14/2/1 13/3/2
f 16/4/2 13/3/2 14/2/1
f 13/3/2 16/4/2 17/5/3
f 18/6/4 17/5/3 16/4/2
f 21/7/5 20/8/5 19/9/6
f 22/10/6 19/9/6 20/8/5
f 19/9/6 22/10/6 23/11/7
f 24/12/8 23/11/7 22/10/6
f 27/13/9 26/14/10 25/15/11
f 28/16/11 25/15/11 26/14/10
f 25/15/11 28/16/11 29/17/12
f 30/18/12 29/17/12 28/16/11
f 33/19/13 32/20/13 31/21/14
f 34/22/14 31/21/14 32/20/13
f 31/21/14 34/22/14 35/23/15
f 36/24/15 35/23/15 34/22/14
f 39/25/16 38/26/16 37/27/17
f 40/28/18 37/27/17 38/26/16
f 41/29/19 37/27/17 40/28/18
f 40/28/18 42/30/20 41/29/19
f 43/31/14 41/29/19 42/30/20
f 43/31/14 44/32/21 41/29/19
f 45/33/21 41/29/19 44/32/21
f 45/33/21 44/32/21 46/34/22
f 47/35/13 46/34/22 44/32/21
f 50/36/23 49/37/23 48/38/24
f 51/39/25 48/38/24 49/37/23
f 48/38/24 51/39/25 52/40/26
f 52/40/26 53/41/6 48/38/24
f 54/42/27 48/38/24 53/41/6
f 53/41/6 52/40/26 55/43/28
f 56/44/28 55/43/28 52/40/26
f 55/43/28 56/44/28 57/45/29
f 58/46/8 57/45/29 56/44/28
f 61/47/30 60/48/30 59/49/30
f 62/50/30 59/49/30 60/48/30
f 59/49/30 62/50/30 63/51/30
f 64/52/30 63/51/30 62/50/30
f 63/51/30 64/52/30 65/53/30
f 66/54/30 65/53/30 64/52/30
f 65/53/30 66/54/30 67/55/30
f 68/56/30 67/55/30 66/54/30
f 67/55/30 68/56/30 69/57/30
f 70/58/30 69/57/30 68/56/30
f 69/57/30 70/58/30 71/59/30
f 72/60/30 71/59/30 70/58/30
f 71/59/30 72/60/30 73/61/30
f 74/62/30 73/61/30 72/60/30
f 73/61/30 74/62/30 75/63/30
f 76/64/30 75/63/30 74/62/30
f 75/63/30 76/64/30 77/65/30
f 78/66/30 77/65/30 76/64/30
f 77/65/30 78/66/30 79/67/30
f 80/68/30 79/67/30 78/66/30
f 83/69/31 82/70/31 81/71/31
f 84/72/31 81/71/31 82/70/31
f 87/73/32 86/74/32 85/75/32
f 88/76/32 85/75/32 86/74/32
f 91/77/9 90/78/9 89/79/33
f 92/80/33 89/79/33 90/78/9
f 89/79/33 92/80/33 93/81/11
f 94/82/11 93/81/11 92/80/33
f 93/81/11 94/82/11 95/83/34
f 96/84/34 95/83/34 94/82/11
f 95/83/34 96/84/34 97/85/35
f 98/86/12 97/85/35 96/84/34
f 101/87/14 100/88/14 99/89/14
f 102/90/14 99/89/14 100/88/14
f 105/91/36 104/92/36 103/93/36
f 106/94/36 103/93/36 104/92/36
f 109/95/6 108/96/6 107/97/6
f 110/98/6 107/97/6 108/96/6
f 113/99/11 112/100/11 111/101/11
f 114/102/11 111/101/11 112/100/11
f 117/103/37 116/104/37 115/105/37
f 118/106/37 115/105/37 116/104/37
f 121/107/38 120/108/38 119/109/38
f 122/110/38 119/109/38 120/108/38
f 125/111/39 124/112/39 123/113/39
f 126/114/39 123/113/39 124/112/39
f 129/115/40 128/116/40 127/117/40
f 130/118/40 127/117/40 128/116/40
f 133/119/41 132/120/41 131/121/41
f 134/122/41 131/121/41 132/120/41
f 137/123/42 136/124/42 135/125/42
f 138/126/42 135/125/42 136/124/42
f 141/127/43 140/128/43 139/129/43
f 142/130/43 139/129/43 140/128/43
f 145/131/44 144/132/44 143/133/44
f 146/134/44 143/133/44 144/132/44
f 149/135/45 148/136/46 147/137/6
f 150/138/6 147/137/6 148/136/46
f 147/137/6 150/138/6 151/139/47
f 152/140/48 151/139/47 150/138/6
f 155/141/49 154/142/50 153/143/51
f 156/144/51 153/143/51 154/142/50
f 153/143/51 156/144/51 157/145/52
f 158/146/52 157/145/52 156/144/51
f 157/145/52 158/146/52 159/147/53
f 160/148/54 159/147/53 158/146/52
f 163/149/55 162/150/56 161/151/14
f 164/152/14 161/151/14 162/150/56
f 161/151/14 164/152/14 165/153/57
f 166/154/58 165/153/57 164/152/14
f 169/155/59 168/156/60 167/157/61
f 170/158/61 167/157/61 168/156/60
f 167/157/61 170/158/61 171/159/62
f 172/160/62 171/159/62 170/158/61
f 171/159/62 172/160/62 173/161/63
f 174/162/64 173/161/63 172/160/62
f 177/163/30 176/164/30 175/165/30
f 176/164/30 178/166/30 175/165/30
f 175/165/30 178/166/30 179/167/30
f 176/164/30 180/168/30 178/166/30
f 181/169/30 178/166/30 180/168/30
f 182/170/30 181/169/30 180/168/30
f 183/171/30 181/169/30 182/170/30
f 184/172/30 181/169/30 183/171/30
f 187/173/65 186/174/65 185/137/66
f 188/175/66 185/137/66 186/174/65
f 185/137/66 188/175/66 189/176/48
f 190/177/48 189/176/48 188/175/66
f 193/178/49 192/179/49 191/180/67
f 194/181/67 191/180/67 192/179/49
f 191/180/67 194/181/67 195/182/68
f 196/183/68 195/182/68 194/181/67
f 195/182/68 196/183/68 197/184/69
f 198/185/53 197/184/69 196/183/68
f 201/186/55 200/187/70 199/188/71
f 202/152/71 199/188/71 200/187/70
f 199/188/71 202/152/71 203/189/57
f 204/190/57 203/189/57 202/152/71
f 207/191/59 206/192/59 205/193/61
f 208/194/61 205/193/61 206/192/59
f 205/193/61 208/194/61 209/195/62
f 210/196/62 209/195/62 208/194/61
f 209/195/62 210/196/62 211/197/63
f 212/198/63 211/197/63 210/196/62
f 215/199/30 214/200/30 213/201/30
f 214/200/30 216/202/30 213/201/30
f 213/201/30 216/202/30 217/203/30
f 214/200/30 218/204/30 216/202/30
f 219/205/30 216/202/30 218/204/30
f 220/206/30 219/205/30 218/204/30
f 221/207/30 219/205/30 220/206/30
f 222/208/30 219/205/30 221/207/30
f 225/209/72 224/210/30 223/211/73
f 223/211/73 224/210/30 226/212/74
f 227/213/75 224/210/30 225/209/72
f 226/212/74 224/210/30 228/214/76
f 229/215/77 224/210/30 227/213/75
f 228/214/76 224/210/30 230/216/78
f 231/217/79 224/210/30 229/215/77
f 230/216/78 224/210/30 231/217/79
g Arizona_B_SKSG_RADAR_Base_steel_3
usemtl steel_3
f 234/218/80 233/219/80 232/220/80
f 235/221/80 232/220/80 233/219/80
f 238/218/81 237/222/81 236/219/81
f 239/223/81 236/219/81 237/222/81
f 239/223/81 237/222/81 240/224/81
f 241/225/81 240/224/81 237/222/81
f 240/224/81 241/225/81 242/226/81
f 243/227/81 242/226/81 241/225/81
f 244/228/81 242/226/81 243/227/81
f 247/229/81 246/220/81 245/230/81
f 248/221/81 245/230/81 246/220/81
f 251/231/82 250/232/82 249/41/6
f 252/233/6 249/41/6 250/232/82
f 249/41/6 252/233/6 253/234/83
f 254/235/83 253/234/83 252/233/6
f 253/234/83 254/235/83 255/236/5
f 256/237/5 255/236/5 254/235/83
f 259/238/4 258/239/4 257/240/84
f 260/241/84 257/240/84 258/239/4
f 257/240/84 260/241/84 261/242/2
f 262/243/2 261/242/2 260/241/84
f 261/242/2 262/243/2 263/244/85
f 264/245/85 263/244/85 262/243/2
f 263/244/85 264/245/85 265/246/1
f 266/247/1 265/246/1 264/245/85
f 269/248/15 268/249/15 267/250/86
f 270/251/86 267/250/86 268/249/15
f 267/250/86 270/251/86 271/31/14
f 272/252/14 271/31/14 270/251/86
f 271/31/14 272/252/14 273/253/87
f 274/254/87 273/253/87 272/252/14
g Arizona_B_SKSG_RADAR_Base_steel_deck_1
usemtl steel_deck_1
f 277/255/30 276/67/30 275/68/30
f 276/67/30 277/255/30 278/47/30
f 279/256/30 278/47/30 277/255/30
f 280/48/30 278/47/30 279/256/30
f 278/47/30 281/49/30 276/67/30
f 282/65/30 276/67/30 281/49/30
f 282/65/30 281/49/30 283/63/30
f 284/51/30 283/63/30 281/49/30
f 283/63/30 284/51/30 285/61/30
f 286/53/30 285/61/30 284/51/30
f 285/61/30 286/53/30 287/59/30
f 288/55/30 287/59/30 286/53/30
f 289/57/30 287/59/30 288/55/30
l 1 2
l 1 3
l 10 11
l 10 12
l 7 8
l 7 9
l 4 5
l 4 6
