# Blender 5.1.0
# www.blender.org
mtllib Arizona_B_SKSG_RADAR_Antenna_SK.mtl
o Arizona_B_SKSG_RADAR_Antenna_SK
v -0.000001 1.163060 0.709263
v -1.046872 2.243971 0.563755
v -0.000000 1.163060 0.649463
v -1.046872 2.243971 0.563755
v -0.000001 1.163060 0.709263
v -1.051755 2.243971 0.623554
v -0.000000 1.163060 0.649463
v -1.089700 2.202094 0.560257
v -0.042282 1.120633 0.649418
v -1.089700 2.202094 0.560257
v -0.000000 1.163060 0.649463
v -1.046872 2.243971 0.563755
v -0.042282 1.120633 0.649418
v -1.094583 2.202094 0.620060
v -0.042283 1.120633 0.709217
v -1.094583 2.202094 0.620060
v -0.042282 1.120633 0.649418
v -1.089700 2.202094 0.560257
v -0.042283 1.120633 0.709217
v -1.051755 2.243971 0.623554
v -0.000001 1.163060 0.709263
v -1.051755 2.243971 0.623554
v -0.042283 1.120633 0.709217
v -1.094583 2.202094 0.620060
v -0.000000 1.163060 0.649463
v 1.051722 2.243971 0.623558
v -0.000001 1.163060 0.709263
v 1.051722 2.243971 0.623558
v -0.000000 1.163060 0.649463
v 1.046841 2.243971 0.563755
v -0.000001 1.163060 0.709263
v 1.094552 2.202101 0.620060
v 0.042281 1.120640 0.709221
v 1.094552 2.202101 0.620060
v -0.000001 1.163060 0.709263
v 1.051722 2.243971 0.623558
v 0.042281 1.120640 0.709221
v 1.089670 2.202101 0.560261
v 0.042282 1.120640 0.649418
v 1.089670 2.202101 0.560261
v 0.042281 1.120640 0.709221
v 1.094552 2.202101 0.620060
v 0.042282 1.120640 0.649418
v 1.046841 2.243971 0.563755
v -0.000000 1.163060 0.649463
v 1.046841 2.243971 0.563755
v 0.042282 1.120640 0.649418
v 1.089670 2.202101 0.560261
v 1.089652 0.039196 0.798412
v 0.042282 1.120640 0.649418
v 1.094535 0.039196 0.738613
v 0.042282 1.120640 0.649418
v 1.089652 0.039196 0.798412
v 0.042281 1.120640 0.709221
v 1.094535 0.039196 0.738613
v 0.000001 1.078213 0.649372
v 1.051706 -0.002674 0.735111
v 0.000001 1.078213 0.649372
v 1.094535 0.039196 0.738613
v 0.042282 1.120640 0.649418
v 1.051706 -0.002674 0.735111
v -0.000000 1.078213 0.709175
v 1.046823 -0.002674 0.794914
v -0.000000 1.078213 0.709175
v 1.051706 -0.002674 0.735111
v 0.000001 1.078213 0.649372
v 1.046823 -0.002674 0.794914
v 0.042281 1.120640 0.709221
v 1.089652 0.039196 0.798412
v 0.042281 1.120640 0.709221
v 1.046823 -0.002674 0.794914
v -0.000000 1.078213 0.709175
v -1.094504 0.039158 0.738544
v -0.042283 1.120633 0.709217
v -1.089623 0.039158 0.798347
v -0.042283 1.120633 0.709217
v -1.094504 0.039158 0.738544
v -0.042282 1.120633 0.649418
v -1.089623 0.039158 0.798347
v -0.000000 1.078213 0.709175
v -1.046793 -0.002719 0.794849
v -0.000000 1.078213 0.709175
v -1.089623 0.039158 0.798347
v -0.042283 1.120633 0.709217
v -1.046793 -0.002719 0.794849
v 0.000001 1.078213 0.649372
v -1.051675 -0.002719 0.735050
v 0.000001 1.078213 0.649372
v -1.046793 -0.002719 0.794849
v -0.000000 1.078213 0.709175
v -1.051675 -0.002719 0.735050
v -0.042282 1.120633 0.649418
v -1.094504 0.039158 0.738544
v -0.042282 1.120633 0.649418
v -1.051675 -0.002719 0.735050
v 0.000001 1.078213 0.649372
v 0.486768 0.659741 0.153583
v 0.279526 0.506405 -0.148220
v 0.486768 0.659741 -0.148220
v 0.279526 0.506405 0.153583
v -0.279527 0.506413 0.153583
v -0.279527 0.506413 -0.148220
v -0.486775 0.659749 0.153583
v -0.486775 0.659749 -0.148220
v 0.346999 0.350144 0.153583
v 0.572848 0.625870 -0.148220
v 0.346999 0.350144 -0.148220
v 0.572848 0.625870 0.153583
v 0.572842 1.128914 -0.148220
v 0.572842 1.192067 0.072681
v 0.572842 1.128914 0.153583
v 0.572842 1.192067 -0.067318
v 0.572848 0.625870 0.153583
v 0.486762 1.128911 0.153583
v 0.572842 1.128914 0.153583
v 0.486768 0.659741 0.153583
v 0.279526 0.506405 0.153583
v 0.346999 0.350144 0.153583
v -0.346997 0.350152 0.153583
v -0.279527 0.506413 0.153583
v -0.572855 0.625874 0.153583
v -0.486775 0.659749 0.153583
v -0.486781 1.128918 0.153583
v -0.572858 1.128922 0.153583
v 0.486768 0.659741 -0.148220
v 0.572842 1.128914 -0.148220
v 0.486762 1.128911 -0.148220
v 0.572848 0.625870 -0.148220
v 0.279526 0.506405 -0.148220
v 0.346999 0.350144 -0.148220
v -0.279527 0.506413 -0.148220
v -0.346997 0.350152 -0.148220
v -0.572855 0.625874 -0.148220
v -0.486775 0.659749 -0.148220
v -0.572858 1.128922 -0.148220
v -0.486781 1.128918 -0.148220
v 0.486762 1.128911 0.153583
v 0.486762 1.192063 -0.067318
v 0.486762 1.192063 0.072681
v 0.486768 0.659741 -0.148220
v 0.486768 0.659741 0.153583
v 0.486762 1.128911 -0.148220
v -0.572855 0.625874 -0.148220
v -0.346997 0.350152 0.153583
v -0.346997 0.350152 -0.148220
v -0.572855 0.625874 0.153583
v -0.572858 1.128922 -0.148220
v -0.572858 1.192074 -0.067318
v -0.572858 1.128922 0.153583
v -0.572858 1.192074 0.072681
v 0.346999 0.350144 -0.148220
v -0.346997 0.350152 0.153583
v 0.346999 0.350144 0.153583
v -0.346997 0.350152 -0.148220
v -0.486781 1.128918 0.153583
v -0.486775 0.659749 -0.148220
v -0.486775 0.659749 0.153583
v -0.486781 1.192070 0.072681
v -0.486781 1.128918 -0.148220
v -0.486781 1.192070 -0.067318
v 0.572842 1.192067 -0.067318
v 0.486762 1.128911 -0.148220
v 0.572842 1.128914 -0.148220
v 0.486762 1.192063 -0.067318
v 0.572842 1.192067 0.072681
v 0.486762 1.192063 0.072681
v 0.486762 1.128911 0.153583
v 0.572842 1.128914 0.153583
v -0.572858 1.192074 0.072681
v -0.486781 1.128918 0.153583
v -0.572858 1.128922 0.153583
v -0.486781 1.192070 0.072681
v -0.572858 1.192074 -0.067318
v -0.486781 1.192070 -0.067318
v -0.486781 1.128918 -0.148220
v -0.572858 1.128922 -0.148220
v -0.486814 1.203690 -0.312195
v 0.486785 1.246930 0.233040
v -0.486815 1.246930 0.233040
v 0.486786 1.203690 -0.312191
v 0.486786 0.715020 -0.273434
v -0.486814 1.203690 -0.312195
v -0.486813 0.715020 -0.273438
v 0.486786 1.203690 -0.312191
v -0.486814 0.758259 0.271793
v -0.486814 1.203690 -0.312195
v -0.486815 1.246930 0.233040
v -0.486813 0.715020 -0.273438
v 0.486785 0.758267 0.271793
v -0.486815 1.246930 0.233040
v 0.486785 1.246930 0.233040
v -0.486814 0.758259 0.271793
v 0.486785 1.246930 0.233040
v 0.486786 0.715020 -0.273434
v 0.486785 0.758267 0.271793
v 0.486786 1.203690 -0.312191
v 0.486785 0.758267 0.271793
v -0.486813 0.715020 -0.273438
v -0.486814 0.758259 0.271793
v 0.486786 0.715020 -0.273434
v -0.353591 1.161152 0.726253
v -0.353589 1.025258 -0.059300
v -0.353591 1.088017 0.732055
v -0.353589 1.098393 -0.065098
v -0.353591 1.088017 0.732055
v -0.413589 1.025258 -0.059300
v -0.413591 1.088017 0.732055
v -0.353589 1.025258 -0.059300
v -0.413591 1.088017 0.732055
v -0.413589 1.098393 -0.065098
v -0.413591 1.161152 0.726253
v -0.413589 1.025258 -0.059300
v -0.413591 1.161152 0.726253
v -0.353589 1.098393 -0.065098
v -0.353591 1.161152 0.726253
v -0.413589 1.098393 -0.065098
v 0.353547 1.088017 0.732055
v 0.353549 1.098393 -0.065098
v 0.353547 1.161152 0.726253
v 0.353549 1.025258 -0.059300
v 0.353547 1.161152 0.726253
v 0.413549 1.098393 -0.065098
v 0.413547 1.161152 0.726253
v 0.353549 1.098393 -0.065098
v 0.413547 1.161152 0.726253
v 0.413549 1.025258 -0.059300
v 0.413547 1.088017 0.732055
v 0.413549 1.098393 -0.065098
v 0.413547 1.088017 0.732055
v 0.353549 1.025258 -0.059300
v 0.353547 1.088017 0.732055
v 0.413549 1.025258 -0.059300
v 1.150685 2.298834 0.535717
v -1.150728 2.306738 0.635402
v -1.150728 2.298834 0.535717
v 1.150685 2.306738 0.635406
v -1.150728 2.298834 0.535717
v -1.150728 -0.057575 0.822902
v -1.150728 -0.065479 0.723217
v -1.150728 2.306738 0.635402
v -1.150728 -0.065479 0.723217
v 1.150685 -0.057575 0.822910
v 1.150685 -0.065479 0.723221
v -1.150728 -0.057575 0.822902
v 1.150685 -0.065479 0.723221
v 1.150685 2.306738 0.635406
v 1.150685 2.298834 0.535717
v 1.150685 -0.057575 0.822910
v 1.070685 2.219084 0.542042
v -1.070729 2.226988 0.641727
v 1.070685 2.226988 0.641731
v -1.070728 2.219084 0.542042
v 1.070685 0.014271 0.716896
v 1.070685 2.226988 0.641731
v 1.070685 0.022175 0.816585
v 1.070685 2.219084 0.542042
v -1.070728 0.014271 0.716892
v 1.070685 0.022175 0.816585
v -1.070729 0.022175 0.816578
v 1.070685 0.014271 0.716896
v -1.070728 2.219084 0.542042
v -1.070729 0.022175 0.816578
v -1.070729 2.226988 0.641727
v -1.070728 0.014271 0.716892
v 0.042282 1.120640 0.649418
v -0.042282 1.120633 0.649418
v 0.000001 1.078213 0.649372
v -0.000000 1.163060 0.649463
v -0.000000 1.078213 0.709175
v -0.000001 1.163060 0.709263
v 0.042281 1.120640 0.709221
v -0.042283 1.120633 0.709217
v -0.737160 2.314642 0.735088
v -0.797160 -0.049663 0.922592
v -0.797160 2.314642 0.735088
v -0.737160 -0.049663 0.922592
v -0.353591 2.314642 0.735088
v -0.413591 -0.049663 0.922596
v -0.413591 2.314642 0.735088
v -0.353591 -0.049663 0.922596
v 0.029978 2.314642 0.735092
v -0.030022 -0.049663 0.922596
v -0.030022 2.314642 0.735092
v 0.029978 -0.049663 0.922596
v 0.737116 -0.049663 0.922596
v 0.797116 2.314642 0.735092
v 0.797116 -0.049663 0.922596
v 0.737116 2.314642 0.735092
v 0.353547 -0.049663 0.922596
v 0.413547 2.314642 0.735092
v 0.413547 -0.049663 0.922596
v 0.353547 2.314642 0.735092
v -0.737160 -0.057575 0.822906
v -0.737160 2.314642 0.735088
v -0.737160 2.306738 0.635402
v -0.737160 -0.049663 0.922592
v -0.737160 2.306738 0.635402
v -0.797160 2.314642 0.735088
v -0.797160 2.306738 0.635402
v -0.737160 2.314642 0.735088
v -0.797160 2.306738 0.635402
v -0.797160 -0.049663 0.922592
v -0.797160 -0.057575 0.822906
v -0.797160 2.314642 0.735088
v -0.797160 -0.057575 0.822906
v -0.737160 -0.049663 0.922592
v -0.737160 -0.057575 0.822906
v -0.797160 -0.049663 0.922592
v -0.353591 -0.057575 0.822906
v -0.353591 2.314642 0.735088
v -0.353591 2.306738 0.635402
v -0.353591 -0.049663 0.922596
v -0.353591 2.306738 0.635402
v -0.413591 2.314642 0.735088
v -0.413591 2.306738 0.635402
v -0.353591 2.314642 0.735088
v -0.413591 2.306738 0.635402
v -0.413591 -0.049663 0.922596
v -0.413591 -0.057575 0.822906
v -0.413591 2.314642 0.735088
v -0.413591 -0.057575 0.822906
v -0.353591 -0.049663 0.922596
v -0.353591 -0.057575 0.822906
v -0.413591 -0.049663 0.922596
v 0.029978 -0.057575 0.822906
v 0.029978 2.314642 0.735092
v 0.029978 2.306738 0.635402
v 0.029978 -0.049663 0.922596
v 0.029978 2.306738 0.635402
v -0.030022 2.314642 0.735092
v -0.030022 2.306738 0.635402
v 0.029978 2.314642 0.735092
v -0.030022 2.306738 0.635402
v -0.030022 -0.049663 0.922596
v -0.030022 -0.057575 0.822906
v -0.030022 2.314642 0.735092
v -0.030022 -0.057575 0.822906
v 0.029978 -0.049663 0.922596
v 0.029978 -0.057575 0.822906
v -0.030022 -0.049663 0.922596
v 0.737116 2.306738 0.635406
v 0.737116 -0.049663 0.922596
v 0.737116 -0.057575 0.822910
v 0.737116 2.314642 0.735092
v 0.737116 -0.057575 0.822910
v 0.797116 -0.049663 0.922596
v 0.797116 -0.057575 0.822910
v 0.737116 -0.049663 0.922596
v 0.797116 -0.057575 0.822910
v 0.797116 2.314642 0.735092
v 0.797116 2.306738 0.635406
v 0.797116 -0.049663 0.922596
v 0.797116 2.306738 0.635406
v 0.737116 2.314642 0.735092
v 0.737116 2.306738 0.635406
v 0.797116 2.314642 0.735092
v 0.353547 2.306738 0.635402
v 0.353547 -0.049663 0.922596
v 0.353547 -0.057575 0.822906
v 0.353547 2.314642 0.735092
v 0.353547 -0.057575 0.822906
v 0.413547 -0.049663 0.922596
v 0.413547 -0.057575 0.822910
v 0.353547 -0.049663 0.922596
v 0.413547 -0.057575 0.822910
v 0.413547 2.314642 0.735092
v 0.413547 2.306738 0.635402
v 0.413547 -0.049663 0.922596
v 0.413547 2.306738 0.635402
v 0.353547 2.314642 0.735092
v 0.353547 2.306738 0.635402
v 0.413547 2.314642 0.735092
v -0.797160 -0.057575 0.822906
v -0.737160 2.306738 0.635402
v -0.797160 2.306738 0.635402
v -0.737160 -0.057575 0.822906
v -0.413591 -0.057575 0.822906
v -0.353591 2.306738 0.635402
v -0.413591 2.306738 0.635402
v -0.353591 -0.057575 0.822906
v -0.030022 -0.057575 0.822906
v 0.029978 2.306738 0.635402
v -0.030022 2.306738 0.635402
v 0.029978 -0.057575 0.822906
v 0.797116 2.306738 0.635406
v 0.737116 -0.057575 0.822910
v 0.797116 -0.057575 0.822910
v 0.737116 2.306738 0.635406
v 0.413547 2.306738 0.635402
v 0.353547 -0.057575 0.822906
v 0.413547 -0.057575 0.822910
v 0.353547 2.306738 0.635402
v 0.115924 0.607331 -0.036000
v 0.070459 0.607331 0.103924
v -0.003106 0.607331 -0.122479
v -0.076671 0.607331 0.103924
v -0.122137 0.607331 -0.036000
v 0.115924 0.607331 -0.036000
v 0.070459 -0.004741 0.103924
v 0.070459 0.607331 0.103924
v 0.115924 -0.004741 -0.036000
v -0.003106 0.607331 -0.122479
v 0.115924 -0.004741 -0.036000
v 0.115924 0.607331 -0.036000
v -0.003106 -0.004741 -0.122479
v -0.122137 0.607331 -0.036000
v -0.122137 -0.004741 -0.036000
v -0.076671 0.607331 0.103924
v -0.122137 -0.004741 -0.036000
v -0.122137 0.607331 -0.036000
v -0.076671 -0.004741 0.103924
v 0.070459 0.607331 0.103924
v -0.076671 -0.004741 0.103924
v -0.076671 0.607331 0.103924
v 0.070459 -0.004741 0.103924
v -1.070728 0.014271 0.716892
v -1.150728 2.298834 0.535717
v -1.150728 -0.065479 0.723217
v 1.150685 -0.065479 0.723221
v -1.070728 2.219084 0.542042
v 1.070685 0.014271 0.716896
v 1.150685 2.298834 0.535717
v 1.070685 2.219084 0.542042
v 1.150685 2.306738 0.635406
v -1.070729 2.226988 0.641727
v -1.150728 2.306738 0.635402
v 1.070685 2.226988 0.641731
v -1.070729 0.022175 0.816578
v 1.150685 -0.057575 0.822910
v -1.150728 -0.057575 0.822902
v 1.070685 0.022175 0.816585
v -0.158333 1.175831 0.031780
v -1.054901 2.232737 0.571838
v -0.149364 1.171086 -0.006443
v -1.054901 2.232737 0.571838
v -0.158333 1.175831 0.031780
v -1.061969 2.241927 0.611412
v -0.181477 1.149567 0.031727
v -1.078011 2.206576 0.570221
v -1.090528 2.212016 0.608181
v -1.078011 2.206576 0.570221
v -0.181477 1.149567 0.031727
v -0.177351 1.141304 -0.007595
v -0.158333 1.175831 0.031780
v -1.090528 2.212016 0.608181
v -1.061969 2.241927 0.611412
v -1.090528 2.212016 0.608181
v -0.158333 1.175831 0.031780
v -0.181477 1.149567 0.031727
v 0.149359 1.171086 -0.006443
v 1.061936 2.241927 0.611416
v 0.158326 1.175831 0.031780
v 1.061936 2.241927 0.611416
v 0.149359 1.171086 -0.006443
v 1.054870 2.232737 0.571842
v 0.158326 1.175831 0.031780
v 1.090496 2.212023 0.608185
v 0.181472 1.149567 0.031727
v 1.090496 2.212023 0.608185
v 0.158326 1.175831 0.031780
v 1.061936 2.241927 0.611416
v 0.181472 1.149567 0.031727
v 1.077981 2.206583 0.570225
v 0.177346 1.141304 -0.007595
v 1.077981 2.206583 0.570225
v 0.181472 1.149567 0.031727
v 1.090496 2.212023 0.608185
v 1.088758 0.027855 0.787159
v 0.177917 0.835824 0.017364
v 1.082272 0.032155 0.746097
v 0.177917 0.835824 0.017364
v 1.088758 0.027855 0.787159
v 0.183443 0.824551 0.057194
v 1.055533 0.009953 0.744167
v 0.157953 0.801556 0.056968
v 1.057971 -0.000370 0.783672
v 0.157953 0.801556 0.056968
v 1.055533 0.009953 0.744167
v 0.147421 0.806458 0.016361
v 0.157953 0.801556 0.056968
v 1.088758 0.027855 0.787159
v 1.057971 -0.000370 0.783672
v 1.088758 0.027855 0.787159
v 0.157953 0.801556 0.056968
v 0.183443 0.824551 0.057194
v -1.082242 0.032116 0.746032
v -0.183439 0.824536 0.057182
v -1.088730 0.027817 0.787094
v -0.183439 0.824536 0.057182
v -1.082242 0.032116 0.746032
v -0.177914 0.835808 0.017353
v -0.183439 0.824536 0.057182
v -1.057941 -0.000415 0.783607
v -1.088730 0.027817 0.787094
v -1.057941 -0.000415 0.783607
v -0.183439 0.824536 0.057182
v -0.157949 0.801548 0.056957
v -0.157949 0.801548 0.056957
v -1.055503 0.009907 0.744102
v -1.057941 -0.000415 0.783607
v -1.055503 0.009907 0.744102
v -0.157949 0.801548 0.056957
v -0.147417 0.806450 0.016353
v 0.618303 1.072899 0.079487
v -0.618317 1.126965 0.057087
v 0.618303 1.126973 0.057094
v -0.618317 1.072899 0.079487
v 0.618303 1.018834 0.057094
v -0.618317 1.018834 0.057087
v -0.618317 1.149369 0.003025
v 0.618303 1.126973 0.057094
v -0.618317 1.126965 0.057087
v 0.618304 1.149369 0.003025
v -0.618317 1.126973 -0.051045
v 0.618304 1.126973 -0.051045
v -0.618317 1.072899 -0.073437
v 0.618304 1.126973 -0.051045
v -0.618317 1.126973 -0.051045
v 0.618303 1.072899 -0.073437
v -0.618317 1.018834 -0.051041
v 0.618303 1.018834 -0.051045
v -0.618317 0.996438 0.003025
v 0.618303 1.018834 -0.051045
v -0.618317 1.018834 -0.051041
v 0.618303 0.996438 0.003025
v -0.618317 1.018834 0.057087
v 0.618303 1.018834 0.057094
v 0.618303 0.996438 0.003025
v 0.618303 1.072899 -0.073437
v 0.618303 1.018834 -0.051045
v 0.618303 1.072899 0.079487
v 0.618303 1.018834 0.057094
v 0.618304 1.149369 0.003025
v 0.618304 1.126973 -0.051045
v 0.618303 1.126973 0.057094
v -0.618317 1.018834 -0.051041
v -0.618317 1.018834 0.057087
v -0.618317 0.996438 0.003025
v -0.618317 1.072899 -0.073437
v -0.618317 1.072899 0.079487
v -0.618317 1.126965 0.057087
v -0.618317 1.149369 0.003025
v -0.618317 1.126973 -0.051045
v -0.149364 1.171086 -0.006443
v -1.078011 2.206576 0.570221
v -0.177351 1.141304 -0.007595
v -1.054901 2.232737 0.571838
v 0.149359 1.171086 -0.006443
v 1.077981 2.206583 0.570225
v 1.054870 2.232737 0.571842
v 0.177346 1.141304 -0.007595
v 0.177917 0.835824 0.017364
v 1.055533 0.009953 0.744167
v 1.082272 0.032155 0.746097
v 0.147421 0.806458 0.016361
v -0.147417 0.806450 0.016353
v -1.082242 0.032116 0.746032
v -1.055503 0.009907 0.744102
v -0.177914 0.835808 0.017353
vn 0.7183 0.6957 -0.0000
vn 0.7132 0.6986 0.0582
vn 0.0424 -0.0412 -0.9982
vn 0.0815 -0.0001 -0.9967
vn -0.7167 -0.6974 -0.0000
vn -0.7147 -0.6970 -0.0584
vn -0.0407 0.0395 0.9984
vn -0.0828 0.0016 0.9966
vn -0.7167 0.6974 -0.0000
vn -0.7148 0.6969 0.0583
vn 0.0423 0.0412 0.9983
vn 0.0813 -0.0001 0.9967
vn 0.7183 -0.6957 -0.0000
vn 0.7131 -0.6986 -0.0582
vn -0.0408 -0.0396 -0.9984
vn -0.0830 -0.0018 -0.9965
vn 0.7131 0.6986 0.0582
vn 0.0814 0.0001 -0.9967
vn 0.0423 -0.0411 -0.9983
vn -0.7148 -0.6969 -0.0584
vn -0.0831 0.0017 0.9965
vn -0.0408 0.0396 0.9984
vn -0.7147 0.6970 0.0583
vn -0.7167 0.6973 -0.0000
vn 0.0815 0.0001 0.9967
vn 0.0424 0.0412 0.9983
vn 0.7132 -0.6985 -0.0582
vn 0.7184 -0.6957 -0.0000
vn -0.0828 -0.0015 -0.9966
vn -0.0407 -0.0395 -0.9984
vn -0.8930 0.4501 -0.0000
vn -0.3131 0.9497 -0.0000
vn 0.3131 0.9497 -0.0000
vn 0.8929 0.4502 -0.0000
vn 0.4280 -0.9038 -0.0000
vn 0.9417 -0.3364 -0.0000
vn 0.9417 -0.3365 -0.0000
vn 1.0000 -0.0000 -0.0000
vn -0.0000 -0.0000 1.0000
vn -0.0000 -0.0000 -1.0000
vn -1.0000 -0.0000 -0.0000
vn -0.4280 -0.9038 -0.0000
vn -0.9417 -0.3365 -0.0000
vn 0.4279 -0.9038 -0.0000
vn 0.8930 0.4501 -0.0000
vn -0.0000 0.7883 -0.6153
vn -0.0000 0.9456 -0.3254
vn -0.0000 0.9456 0.3254
vn -0.0000 0.7883 0.6153
vn -0.0000 0.9969 -0.0791
vn -0.0000 -0.0791 -0.9969
vn -0.0000 0.0791 0.9969
vn -0.0000 -0.9969 0.0791
vn -0.0000 0.9969 -0.0790
vn -0.0000 -0.9969 0.0790
vn -0.0000 0.0011 -1.0000
vn -0.0000 -0.0010 1.0000
vn 0.0001 -0.0791 -0.9969
vn -0.0000 1.0000 -0.0000
vn 0.5871 -0.0000 0.8095
vn 0.5870 -0.0000 0.8096
vn 0.9508 -0.0000 -0.3099
vn 0.9508 -0.0000 -0.3098
vn 0.9513 -0.0000 -0.3081
vn 0.9513 -0.0000 -0.3082
vn -0.9513 -0.0000 -0.3082
vn -0.9513 -0.0000 -0.3081
vn -0.9508 -0.0000 -0.3098
vn -0.9508 0.0002 -0.3099
vn -0.5871 -0.0005 0.8095
vn -0.5871 -0.0000 0.8095
vn -0.5885 -0.0000 0.8085
vn 0.5885 -0.0000 0.8085
vn 0.7847 0.6103 0.1084
vn 0.7585 0.6515 -0.0158
vn -0.7933 -0.5821 -0.1782
vn -0.7456 -0.6636 0.0612
vn 0.2232 -0.3128 0.9232
vn 0.2873 -0.2551 0.9232
vn -0.7868 0.6075 0.1092
vn -0.7562 0.6542 -0.0169
vn -0.2873 -0.2551 0.9232
vn -0.2231 -0.3128 0.9232
vn 0.7456 -0.6636 0.0612
vn 0.7933 -0.5821 -0.1781
vn 0.6774 0.7350 -0.0301
vn 0.5854 0.7977 0.1446
vn -0.5731 -0.8008 -0.1739
vn -0.6986 -0.7091 0.0956
vn -0.3984 0.3288 0.8563
vn -0.3524 0.3823 0.8542
vn -0.3519 0.3823 0.8544
vn -0.6735 0.7386 -0.0291
vn -0.5907 0.7942 0.1428
vn 0.3994 0.3299 0.8554
vn 0.3511 0.3810 0.8553
vn 0.5732 -0.8008 -0.1739
vn 0.6986 -0.7091 0.0956
vn -0.0000 0.7064 0.7078
vn -0.0000 -0.7065 0.7077
vn -0.0000 0.7078 0.7065
vn -0.0000 0.7077 0.7065
vn -0.0000 1.0000 0.0001
vn 0.0002 0.7077 -0.7065
vn -0.0000 0.7077 -0.7065
vn -0.0000 0.7065 -0.7077
vn -0.0000 0.7064 -0.7078
vn -0.0000 -0.0001 -1.0000
vn 0.0001 -0.7065 -0.7077
vn -0.0000 -0.7064 -0.7078
vn -0.0000 -0.7077 -0.7065
vn -0.0001 -0.7077 -0.7065
vn -0.0000 -1.0000 -0.0000
vn -0.0000 -0.7077 0.7065
vn -0.2606 0.2807 -0.9237
vn -0.2606 0.2808 -0.9237
vn -0.2569 0.2840 -0.9238
vn 0.2568 0.2841 -0.9238
vn 0.2569 0.2840 -0.9238
vn 0.2570 0.2840 -0.9237
vn 0.2606 0.2807 -0.9237
vn 0.3652 -0.3654 -0.8562
vn 0.3653 -0.3653 -0.8562
vn 0.3726 -0.3577 -0.8563
vn -0.3654 -0.3655 -0.8561
vn -0.3656 -0.3654 -0.8561
vn -0.3655 -0.3656 -0.8560
vn -0.3723 -0.3576 -0.8565
vt 10.700427 0.827963
vt 10.701714 0.844550
vt 10.699529 0.827963
vt 10.700815 0.844550
vt 0.500641 0.827312
vt 0.516582 0.843907
vt 0.499997 0.827963
vt 0.515930 0.844550
vt -9.699530 0.827312
vt -9.700868 0.843907
vt -9.700427 0.827312
vt -9.701766 0.843907
vt 0.500003 0.827963
vt 0.483996 0.844550
vt 0.499359 0.827312
vt 0.483344 0.843907
vt -9.699529 0.827963
vt -9.700815 0.844550
vt -9.700427 0.827963
vt -9.701714 0.844550
vt 0.500646 0.827312
vt 0.516661 0.843907
vt 0.516009 0.844550
vt 10.700427 0.827312
vt 10.701766 0.843907
vt 10.699530 0.827312
vt 10.700868 0.843907
vt 0.484065 0.844550
vt 0.499354 0.827312
vt 0.483413 0.843907
vt 10.699089 0.810718
vt 10.698191 0.810718
vt 0.483991 0.810075
vt 0.499997 0.826661
vt 0.483339 0.810718
vt -9.698243 0.810075
vt -9.699531 0.826661
vt -9.699142 0.810075
vt -9.700428 0.826661
vt 0.516586 0.810718
vt 0.515935 0.810075
vt 0.500003 0.826661
vt -9.698192 0.810717
vt -9.699090 0.810717
vt 0.484071 0.810074
vt 0.483419 0.810717
vt 10.699142 0.810074
vt 10.700428 0.826661
vt 10.698244 0.810074
vt 10.699531 0.826661
vt 0.516655 0.810717
vt 0.516003 0.810074
vt 0.507411 10.712399
vt 0.504257 10.712399
vt 0.507411 10.707870
vt 0.504257 10.707870
vt 0.495748 10.707870
vt 0.495748 10.712399
vt 0.492594 10.707870
vt 0.492594 10.712399
vt 10.712399 0.815489
vt 10.712399 0.819720
vt 10.707870 0.815489
vt 10.707870 0.819720
vt 10.712399 0.827439
vt 10.709084 0.828408
vt 10.707870 0.827439
vt 10.711185 0.828408
vt 0.508721 0.827439
vt 0.507411 0.827439
vt 0.508721 0.819720
vt 0.507411 0.820240
vt 0.504257 0.817887
vt 0.505284 0.815489
vt 0.494722 0.815489
vt 0.495748 0.817887
vt 0.491284 0.819720
vt 0.492594 0.820240
vt 0.492594 0.827439
vt 0.491284 0.827439
vt 0.492589 0.827439
vt 0.491279 0.827439
vt 0.492589 0.820240
vt 0.491279 0.819720
vt 0.495743 0.817887
vt 0.494716 0.815489
vt 0.504252 0.817887
vt 0.505278 0.815489
vt 0.508716 0.819720
vt 0.507406 0.820240
vt 0.508716 0.827439
vt 0.507406 0.827439
vt -9.709084 0.828408
vt -9.711185 0.828408
vt -9.707870 0.827439
vt -9.712399 0.820240
vt -9.707870 0.820240
vt -9.712399 0.827439
vt -9.712399 0.815489
vt -9.707870 0.815489
vt -9.712399 0.819720
vt -9.707870 0.819720
vt -9.712399 0.827439
vt -9.711185 0.828408
vt -9.707870 0.827439
vt -9.709084 0.828408
vt 0.494716 10.707870
vt 0.505278 10.707870
vt 0.494716 10.712399
vt 0.505278 10.712399
vt 10.707870 0.820240
vt 10.712399 0.820240
vt 10.707870 0.827439
vt 10.709084 0.828408
vt 10.712399 0.827439
vt 10.711185 0.828408
vt 0.508721 10.712399
vt 0.507411 10.712399
vt 0.508721 10.711185
vt 0.507411 10.711185
vt 0.508721 10.709084
vt 0.507411 10.709084
vt 0.507411 10.707870
vt 0.508721 10.707870
vt 0.491284 10.707870
vt 0.492594 10.707870
vt 0.491284 10.709084
vt 0.492594 10.709084
vt 0.491284 10.711185
vt 0.492594 10.711185
vt 0.492594 10.712399
vt 0.491284 10.712399
vt 0.492594 10.706677
vt 0.507411 10.706677
vt 0.492594 10.714861
vt 0.507411 10.714861
vt 0.507406 0.821088
vt 0.507406 0.828587
vt 0.492589 0.821088
vt 0.492589 0.828587
vt -9.706677 0.829250
vt -9.714861 0.828587
vt -9.706096 0.821752
vt -9.714279 0.821088
vt 0.507411 0.829250
vt 0.492594 0.829250
vt 0.507411 0.821752
vt 0.492594 0.821752
vt 10.706096 0.821752
vt 10.714279 0.821088
vt 10.706677 0.829250
vt 10.714861 0.828587
vt 0.507406 10.706096
vt 0.507406 10.714279
vt 0.492589 10.706096
vt 0.492589 10.714279
vt 10.699187 0.826812
vt 10.711065 0.825849
vt 10.699274 0.827934
vt 10.711152 0.826971
vt 0.506292 10.699187
vt 0.506292 10.711065
vt 0.505379 10.699187
vt 0.505379 10.711065
vt -9.699274 0.827934
vt -9.711152 0.826971
vt -9.699187 0.826812
vt -9.711065 0.825849
vt 0.494621 10.699274
vt 0.494621 10.711152
vt 0.493708 10.699274
vt 0.493708 10.711152
vt 0.506297 10.699274
vt 0.506297 10.711152
vt 0.505383 10.699274
vt 0.505383 10.711152
vt 0.494617 10.699187
vt 0.494617 10.711065
vt 0.493703 10.699187
vt 0.493703 10.711065
vt 0.482489 10.702134
vt 0.482489 10.700638
vt 0.517515 10.702134
vt 0.517515 10.700638
vt -9.699320 0.809111
vt -9.697824 0.809233
vt -9.702134 0.845392
vt -9.700638 0.845513
vt 0.482485 10.699320
vt 0.482485 10.697824
vt 0.517511 10.699320
vt 0.517511 10.697824
vt 10.702134 0.845392
vt 10.700638 0.845513
vt 10.699320 0.809111
vt 10.697824 0.809233
vt 0.483702 10.700542
vt 0.516293 10.700542
vt 0.483702 10.702039
vt 0.516293 10.702039
vt -9.697918 0.810456
vt -9.700542 0.844289
vt -9.699414 0.810335
vt -9.702039 0.844168
vt 0.483707 10.697918
vt 0.516298 10.697918
vt 0.483707 10.699414
vt 0.516298 10.699414
vt 10.700542 0.844289
vt 10.697918 0.810456
vt 10.702039 0.844168
vt 10.699414 0.810335
vt 0.487870 0.845634
vt 0.487870 0.809354
vt 0.488783 0.845634
vt 0.488783 0.809354
vt 0.493708 0.845634
vt 0.493708 0.809354
vt 0.494621 0.845634
vt 0.494621 0.809354
vt 0.499546 0.845634
vt 0.499546 0.809354
vt 0.500459 0.845634
vt 0.500459 0.809354
vt 0.512134 0.809354
vt 0.512134 0.845634
vt 0.511221 0.809354
vt 0.511221 0.845634
vt 0.506297 0.809354
vt 0.506297 0.845634
vt 0.505383 0.809354
vt 0.505383 0.845634
vt 10.699142 0.845634
vt 10.696327 0.809354
vt 0.487870 10.700638
vt 0.487870 10.699142
vt 0.488783 10.700638
vt 0.488783 10.699142
vt -9.696327 0.809354
vt -9.699142 0.845634
vt 0.511217 10.697824
vt 0.511217 10.696327
vt 0.512130 10.697824
vt 0.512130 10.696327
vt 0.493708 10.700638
vt 0.493708 10.699142
vt 0.494621 10.700638
vt 0.494621 10.699142
vt 0.505379 10.697824
vt 0.505379 10.696327
vt 0.506292 10.697824
vt 0.506292 10.696327
vt 0.499546 10.700638
vt 0.499546 10.699142
vt 0.500459 10.700638
vt 0.500459 10.699142
vt 0.499541 10.697824
vt 0.499541 10.696327
vt 0.500454 10.697824
vt 0.500454 10.696327
vt 0.487866 10.697824
vt 0.487866 10.696327
vt 0.488779 10.697824
vt 0.488779 10.696327
vt 0.511221 10.700638
vt 0.511221 10.699142
vt 0.512134 10.700638
vt 0.512134 10.699142
vt 0.493703 10.697824
vt 0.493703 10.696327
vt 0.494617 10.697824
vt 0.494617 10.696327
vt 0.505383 10.700638
vt 0.505383 10.699142
vt 0.506297 10.700638
vt 0.506297 10.699142
vt 0.512130 0.845513
vt 0.511217 0.845513
vt 0.512130 0.809233
vt 0.511217 0.809233
vt 0.506292 0.845513
vt 0.505379 0.845513
vt 0.506292 0.809233
vt 0.505379 0.809233
vt 0.500454 0.845513
vt 0.499541 0.845513
vt 0.500454 0.809233
vt 0.499541 0.809233
vt 0.487866 0.809233
vt 0.488779 0.809233
vt 0.487866 0.845513
vt 0.488779 0.845513
vt 0.493703 0.809233
vt 0.494617 0.809233
vt 0.493703 0.845513
vt 0.494617 0.845513
vt 0.499955 10.712013
vt 0.501075 10.708615
vt 0.501767 10.710715
vt 0.498836 10.708615
vt 0.498144 10.710715
vt 10.708615 0.819436
vt 10.708615 0.810043
vt 10.710715 0.819436
vt 10.710715 0.810043
vt 0.498233 0.819436
vt 0.498233 0.810043
vt 0.500045 0.819436
vt 0.500045 0.810043
vt 0.501856 0.819436
vt 0.501856 0.810043
vt -9.710715 0.819436
vt -9.710715 0.810043
vt -9.708615 0.819436
vt -9.708615 0.810043
vt 0.498836 0.819436
vt 0.498836 0.810043
vt 0.501075 0.819436
vt 0.501075 0.810043
vt 0.517511 0.809111
vt 0.517511 0.845392
vt 0.516293 0.810335
vt 0.482485 0.809111
vt 0.516293 0.844168
vt 0.483702 0.810335
vt 0.482485 0.845392
vt 0.483702 0.844168
vt 0.482489 0.845513
vt 0.483707 0.844289
vt 0.517515 0.845513
vt 0.516298 0.844289
vt 0.483707 0.810456
vt 0.517515 0.809233
vt 0.482489 0.809233
vt 0.516298 0.810456
vt 10.710272 0.828086
vt 10.701591 0.844377
vt 10.709698 0.828159
vt 10.700997 0.844518
vt -9.701046 0.844059
vt -9.701616 0.843976
vt -9.709699 0.827756
vt -9.710289 0.827629
vt 0.483840 0.844518
vt 0.483405 0.844059
vt 0.497593 0.828159
vt 0.497241 0.827756
vt -9.709698 0.828159
vt -9.700997 0.844518
vt -9.710272 0.828086
vt -9.701591 0.844377
vt 0.502764 0.827756
vt 0.516599 0.844059
vt 0.502412 0.828159
vt 0.516165 0.844518
vt 10.710289 0.827629
vt 10.701616 0.843976
vt 10.709699 0.827756
vt 10.701046 0.844059
vt 0.516474 10.698977
vt 0.502710 10.709914
vt 0.516573 10.698359
vt 0.502795 10.709316
vt 0.483896 10.698412
vt 0.497593 10.709320
vt 0.483933 10.699005
vt 0.497754 10.709929
vt 0.516104 0.810111
vt 0.516573 0.810544
vt 0.502407 0.822416
vt 0.502795 0.822769
vt 0.483433 10.698360
vt 0.497211 10.709316
vt 0.483532 10.698977
vt 0.497295 10.709914
vt 0.483433 0.810543
vt 0.483901 0.810110
vt 0.497211 0.822769
vt 0.497599 0.822416
vt 0.516099 10.698413
vt 0.516062 10.699006
vt 0.502401 10.709320
vt 0.502241 10.709929
vt 0.509413 0.827409
vt 0.490592 0.827409
vt 0.509413 0.826580
vt 0.490592 0.826580
vt 0.509413 0.825750
vt 0.490592 0.825750
vt 0.490592 10.709318
vt 0.509413 10.709318
vt 0.490592 10.710130
vt 0.509413 10.710130
vt 0.490592 10.710941
vt 0.509413 10.710941
vt 0.509408 0.827409
vt 0.490587 0.827409
vt 0.509408 0.826580
vt 0.490587 0.826580
vt 0.509408 0.825750
vt 0.490587 0.825750
vt 0.509408 10.710941
vt 0.490587 10.710941
vt 0.509408 10.710130
vt 0.490587 10.710130
vt 0.509408 10.709318
vt 0.490587 10.709318
vt 10.710941 0.825750
vt 10.711277 0.826580
vt 10.710130 0.825406
vt 10.708982 0.826580
vt 10.709318 0.825750
vt 10.710130 0.827753
vt 10.710941 0.827409
vt 10.709318 0.827409
vt -9.710130 0.825406
vt -9.709318 0.825750
vt -9.710941 0.825750
vt -9.711277 0.826580
vt -9.708982 0.826580
vt -9.709318 0.827409
vt -9.710130 0.827753
vt -9.710941 0.827409
vt 0.502697 0.827629
vt 0.516404 0.843976
vt 0.502271 0.828086
vt 0.516052 0.844377
vt 0.483943 0.844377
vt 0.483591 0.843976
vt 0.497724 0.828086
vt 0.497298 0.827629
vt 0.483526 0.810610
vt 0.483933 0.810269
vt 0.497290 0.822942
vt 0.497754 0.822491
vt 0.516062 0.810268
vt 0.516468 0.810609
vt 0.502241 0.822491
vt 0.502705 0.822942
s 1
g Arizona_B_SKSG_RADAR_Antenna_SK_steel_4
usemtl steel_4
f 3/1/1 2/2/1 1/3/1
f 6/4/2 5/3/2 4/2/2
f 9/5/3 8/6/3 7/7/3
f 12/8/4 11/7/4 10/6/4
f 15/9/5 14/10/5 13/11/5
f 18/12/6 17/11/6 16/10/6
f 21/13/7 20/14/7 19/15/7
f 24/16/8 23/15/8 22/14/8
f 27/17/9 26/18/9 25/19/9
f 30/20/10 29/19/10 28/18/10
f 33/21/11 32/22/11 31/13/11
f 36/23/12 35/13/12 34/22/12
f 39/24/13 38/25/13 37/26/13
f 42/27/14 41/26/14 40/25/14
f 45/7/15 44/28/15 43/29/15
f 48/30/16 47/29/16 46/28/16
f 51/31/17 50/24/17 49/32/17
f 54/26/1 53/32/1 52/24/1
f 57/33/18 56/34/18 55/35/18
f 60/29/19 59/35/19 58/34/19
f 63/36/20 62/37/20 61/38/20
f 66/39/5 65/38/5 64/37/5
f 69/40/21 68/21/21 67/41/21
f 72/42/22 71/41/22 70/21/22
f 75/43/23 74/9/23 73/44/23
f 78/11/24 77/44/24 76/9/24
f 81/45/25 80/42/25 79/46/25
f 84/15/26 83/46/26 82/42/26
f 87/47/27 86/48/27 85/49/27
f 90/50/28 89/49/28 88/48/28
f 93/51/29 92/5/29 91/52/29
f 96/34/30 95/52/30 94/5/30
f 99/53/31 98/54/32 97/55/31
f 100/56/32 97/55/31 98/54/32
f 100/56/32 98/54/32 101/57/33
f 102/58/33 101/57/33 98/54/32
f 101/57/33 102/58/33 103/59/34
f 104/60/34 103/59/34 102/58/33
f 107/61/35 106/62/36 105/63/35
f 108/64/37 105/63/35 106/62/36
f 106/62/36 109/65/38 108/64/37
f 109/65/38 110/66/38 108/64/37
f 108/64/37 110/66/38 111/67/38
f 112/68/38 110/66/38 109/65/38
f 115/69/39 114/70/39 113/71/39
f 116/72/39 113/71/39 114/70/39
f 116/72/39 117/73/39 113/71/39
f 118/74/39 113/71/39 117/73/39
f 118/74/39 117/73/39 119/75/39
f 120/76/39 119/75/39 117/73/39
f 119/75/39 120/76/39 121/77/39
f 122/78/39 121/77/39 120/76/39
f 122/78/39 123/79/39 121/77/39
f 124/80/39 121/77/39 123/79/39
f 127/81/40 126/82/40 125/83/40
f 128/84/40 125/83/40 126/82/40
f 125/83/40 128/84/40 129/85/40
f 130/86/40 129/85/40 128/84/40
f 129/85/40 130/86/40 131/87/40
f 132/88/40 131/87/40 130/86/40
f 132/88/40 133/89/40 131/87/40
f 134/90/40 131/87/40 133/89/40
f 133/89/40 135/91/40 134/90/40
f 136/92/40 134/90/40 135/91/40
f 139/93/41 138/94/41 137/95/41
f 138/94/41 140/96/31 137/95/41
f 140/96/31 141/97/31 137/95/41
f 142/98/41 140/96/31 138/94/41
f 145/99/42 144/100/42 143/101/43
f 146/102/43 143/101/43 144/100/42
f 143/101/43 146/102/43 147/103/41
f 147/103/41 146/102/43 148/104/41
f 148/104/41 146/102/43 149/105/41
f 150/106/41 148/104/41 149/105/41
f 153/107/44 152/108/42 151/109/44
f 154/110/42 151/109/44 152/108/42
f 157/111/45 156/112/45 155/113/38
f 156/112/45 158/114/38 155/113/38
f 159/115/38 158/114/38 156/112/45
f 160/116/38 158/114/38 159/115/38
f 163/117/46 162/118/46 161/119/47
f 164/120/47 161/119/47 162/118/46
f 161/119/47 164/120/47 165/121/48
f 166/122/48 165/121/48 164/120/47
f 166/122/48 167/123/49 165/121/48
f 168/124/49 165/121/48 167/123/49
f 171/125/49 170/126/49 169/127/48
f 172/128/48 169/127/48 170/126/49
f 169/127/48 172/128/48 173/129/47
f 174/130/47 173/129/47 172/128/48
f 174/130/47 175/131/46 173/129/47
f 176/132/46 173/129/47 175/131/46
f 179/133/50 178/134/50 177/135/50
f 180/136/50 177/135/50 178/134/50
f 183/137/51 182/138/51 181/139/51
f 184/140/51 181/139/51 182/138/51
f 187/141/41 186/142/41 185/143/41
f 188/144/41 185/143/41 186/142/41
f 191/145/52 190/146/52 189/147/52
f 192/148/52 189/147/52 190/146/52
f 195/149/38 194/150/38 193/151/38
f 196/152/38 193/151/38 194/150/38
f 199/153/53 198/154/53 197/155/53
f 200/156/53 197/155/53 198/154/53
f 203/157/38 202/158/38 201/159/38
f 204/160/38 201/159/38 202/158/38
f 207/161/53 206/162/53 205/163/53
f 208/164/53 205/163/53 206/162/53
f 211/165/41 210/166/41 209/167/41
f 212/168/41 209/167/41 210/166/41
f 215/169/50 214/170/50 213/171/50
f 216/172/50 213/171/50 214/170/50
f 219/165/41 218/166/41 217/167/41
f 220/168/41 217/167/41 218/166/41
f 223/173/50 222/174/50 221/175/50
f 224/176/50 221/175/50 222/174/50
f 227/157/38 226/158/38 225/159/38
f 228/160/38 225/159/38 226/158/38
f 231/177/53 230/178/53 229/179/53
f 232/180/53 229/179/53 230/178/53
f 235/181/54 234/182/54 233/183/54
f 236/184/54 233/183/54 234/182/54
f 239/185/41 238/186/41 237/187/41
f 240/188/41 237/187/41 238/186/41
f 243/189/55 242/190/55 241/191/55
f 244/192/55 241/191/55 242/190/55
f 247/193/38 246/194/38 245/195/38
f 248/196/38 245/195/38 246/194/38
f 251/197/55 250/198/55 249/199/55
f 252/200/55 249/199/55 250/198/55
f 255/201/41 254/202/41 253/203/41
f 256/204/41 253/203/41 254/202/41
f 259/205/54 258/206/54 257/207/54
f 260/208/54 257/207/54 258/206/54
f 263/209/38 262/210/38 261/211/38
f 264/212/38 261/211/38 262/210/38
f 267/34/56 266/5/56 265/29/56
f 268/7/56 265/29/56 266/5/56
f 271/21/57 270/13/57 269/42/57
f 272/15/57 269/42/57 270/13/57
f 275/213/52 274/214/52 273/215/52
f 276/216/52 273/215/52 274/214/52
f 279/217/52 278/218/52 277/219/52
f 280/220/52 277/219/52 278/218/52
f 283/221/52 282/222/52 281/223/52
f 284/224/52 281/223/52 282/222/52
f 287/225/52 286/226/52 285/227/52
f 288/228/52 285/227/52 286/226/52
f 291/229/52 290/230/52 289/231/52
f 292/232/52 289/231/52 290/230/52
f 295/194/38 294/233/38 293/196/38
f 296/234/38 293/196/38 294/233/38
f 299/235/54 298/236/54 297/237/54
f 300/238/54 297/237/54 298/236/54
f 303/186/41 302/239/41 301/188/41
f 304/240/41 301/188/41 302/239/41
f 307/241/53 306/242/53 305/243/53
f 308/244/53 305/243/53 306/242/53
f 311/194/38 310/233/38 309/196/38
f 312/234/38 309/196/38 310/233/38
f 315/245/54 314/246/54 313/247/54
f 316/248/54 313/247/54 314/246/54
f 319/186/41 318/239/41 317/188/41
f 320/240/41 317/188/41 318/239/41
f 323/249/53 322/250/53 321/251/53
f 324/252/53 321/251/53 322/250/53
f 327/194/38 326/233/38 325/196/38
f 328/234/38 325/196/38 326/233/38
f 331/253/54 330/254/54 329/255/54
f 332/256/54 329/255/54 330/254/54
f 335/186/41 334/239/41 333/188/41
f 336/240/41 333/188/41 334/239/41
f 339/257/53 338/258/53 337/259/53
f 340/260/53 337/259/53 338/258/53
f 343/186/41 342/239/41 341/188/41
f 344/240/41 341/188/41 342/239/41
f 347/261/53 346/262/53 345/263/53
f 348/264/53 345/263/53 346/262/53
f 351/194/38 350/233/38 349/196/38
f 352/234/38 349/196/38 350/233/38
f 355/265/54 354/266/54 353/267/54
f 356/268/54 353/267/54 354/266/54
f 359/186/41 358/239/41 357/188/41
f 360/240/41 357/188/41 358/239/41
f 363/269/53 362/270/53 361/271/53
f 364/272/53 361/271/53 362/270/53
f 367/194/38 366/233/38 365/196/38
f 368/234/38 365/196/38 366/233/38
f 371/273/54 370/274/54 369/275/54
f 372/276/54 369/275/54 370/274/54
f 375/277/51 374/278/51 373/279/51
f 376/280/51 373/279/51 374/278/51
f 379/281/51 378/282/51 377/283/51
f 380/284/51 377/283/51 378/282/51
f 383/285/51 382/286/51 381/287/51
f 384/288/51 381/287/51 382/286/51
f 387/289/51 386/290/51 385/291/51
f 388/292/51 385/291/51 386/290/51
f 391/293/58 390/294/58 389/295/51
f 392/296/51 389/295/51 390/294/58
f 395/297/59 394/298/59 393/299/59
f 396/300/59 394/298/59 395/297/59
f 397/301/59 396/300/59 395/297/59
f 400/302/60 399/303/61 398/304/62
f 401/305/63 398/304/62 399/303/61
f 404/306/64 403/307/65 402/308/40
f 405/309/40 402/308/40 403/307/65
f 402/308/40 405/309/40 406/310/66
f 407/311/67 406/310/66 405/309/40
f 410/312/68 409/313/69 408/314/70
f 411/315/71 408/314/70 409/313/69
f 414/316/72 413/317/72 412/318/73
f 415/319/73 412/318/73 413/317/72
f 418/320/51 417/321/51 416/322/51
f 418/320/51 416/322/51 419/323/51
f 420/324/51 416/322/51 417/321/51
f 421/325/51 419/323/51 416/322/51
f 417/321/51 422/326/51 420/324/51
f 419/323/51 421/325/51 422/326/51
f 423/327/51 420/324/51 422/326/51
f 423/327/51 422/326/51 421/325/51
f 426/328/52 425/329/52 424/330/52
f 427/331/52 424/330/52 425/329/52
f 425/329/52 426/328/52 428/332/52
f 424/330/52 427/331/52 429/333/52
f 430/334/52 428/332/52 426/328/52
f 431/335/52 429/333/52 427/331/52
f 428/332/52 430/334/52 431/335/52
f 429/333/52 431/335/52 430/334/52
g Arizona_B_SKSG_RADAR_Antenna_SK_details_2
usemtl details_2
f 434/336/74 433/337/74 432/338/74
f 437/339/75 436/338/75 435/337/75
f 440/340/76 439/341/76 438/342/76
f 443/343/77 442/342/77 441/341/77
f 446/344/78 445/345/78 444/346/78
f 449/347/79 448/346/79 447/345/79
f 452/348/80 451/349/80 450/350/80
f 455/351/81 454/350/81 453/349/81
f 458/352/82 457/353/82 456/354/82
f 461/355/83 460/354/83 459/353/83
f 464/356/84 463/357/84 462/358/84
f 467/359/85 466/358/85 465/357/85
f 470/360/86 469/361/86 468/362/86
f 473/363/87 472/362/87 471/361/87
f 476/364/88 475/365/88 474/366/88
f 479/367/89 478/366/89 477/365/89
f 482/368/90 481/369/90 480/370/90
f 485/371/91 484/370/92 483/369/91
f 488/372/93 487/373/93 486/374/93
f 491/375/94 490/374/94 489/373/94
f 494/376/95 493/377/95 492/378/95
f 497/379/96 496/378/96 495/377/96
f 500/380/97 499/381/97 498/382/97
f 503/383/98 502/382/98 501/381/98
f 506/384/99 505/385/99 504/386/39
f 507/387/39 504/386/39 505/385/99
f 504/386/39 507/387/39 508/388/100
f 509/389/100 508/388/100 507/387/39
f 512/390/101 511/391/102 510/392/103
f 513/393/59 510/392/103 511/391/102
f 510/392/103 513/393/59 514/394/104
f 515/395/105 514/394/104 513/393/59
f 518/396/106 517/397/107 516/398/108
f 519/399/40 516/398/108 517/397/107
f 516/398/108 519/399/40 520/400/109
f 521/401/110 520/400/109 519/399/40
f 524/402/111 523/403/112 522/404/113
f 525/405/113 522/404/113 523/403/112
f 522/404/113 525/405/113 526/406/114
f 527/407/114 526/406/114 525/405/113
f 530/408/38 529/409/38 528/410/38
f 529/409/38 531/411/38 528/410/38
f 528/410/38 531/411/38 532/412/38
f 533/413/38 531/411/38 529/409/38
f 534/414/38 533/413/38 529/409/38
f 535/415/38 531/411/38 533/413/38
f 538/416/41 537/417/41 536/418/41
f 536/418/41 537/417/41 539/419/41
f 539/419/41 537/417/41 540/420/41
f 541/421/41 539/419/41 540/420/41
f 542/422/41 539/419/41 541/421/41
f 543/423/41 539/419/41 542/422/41
f 546/424/115 545/425/116 544/426/115
f 547/427/117 544/426/115 545/425/116
f 550/428/118 549/429/119 548/430/120
f 551/431/121 548/430/120 549/429/119
f 554/432/122 553/433/123 552/434/122
f 555/435/124 552/434/122 553/433/123
f 558/436/125 557/437/126 556/438/127
f 559/439/128 556/438/127 557/437/126
