# Blender 5.1.0
# www.blender.org
mtllib Arizona_B_SKSG_RADAR_Antenna_SG.mtl
o Arizona_B_SKSG_RADAR_Antenna_SG
v -0.333044 0.034854 -0.015497
v 0.333000 0.034854 -0.015497
v -1.655628 0.925276 -0.336137
v 1.655623 1.139838 -0.273134
v -1.655628 1.139838 -0.273134
v 1.655623 0.925276 -0.336137
v -1.655628 0.710715 -0.273134
v 1.655623 0.710715 -0.273134
v 1.655623 1.286276 -0.104135
v -1.655628 1.139838 -0.273134
v 1.655623 1.139838 -0.273134
v -1.655628 1.286276 -0.104135
v 1.655623 1.339659 0.112342
v -1.655628 1.339659 0.112342
v 1.655623 0.564276 -0.104135
v -1.655628 0.510893 0.112342
v 1.655623 0.510893 0.112342
v -1.655628 0.564276 -0.104135
v 1.655623 0.710715 -0.273134
v -1.655628 0.710715 -0.273134
v -1.655628 0.564276 -0.104135
v -1.655628 0.553366 0.112342
v -1.655628 0.510893 0.112342
v -1.655628 0.626513 -0.075708
v -1.655628 0.710715 -0.273134
v -1.655628 0.747706 -0.215577
v -1.655628 0.925276 -0.336137
v -1.655628 0.925276 -0.267709
v -1.655628 1.139838 -0.273134
v -1.655628 1.102847 -0.215577
v -1.655628 1.286276 -0.104135
v -1.655628 1.224040 -0.075708
v -1.655628 1.339659 0.112342
v -1.655628 1.297186 0.112342
v 1.655623 1.286276 -0.104135
v 1.655623 1.297186 0.112342
v 1.655623 1.339659 0.112342
v 1.655623 1.224040 -0.075708
v 1.655623 1.139838 -0.273134
v 1.655623 1.102847 -0.215577
v 1.655623 0.925276 -0.336137
v 1.655623 0.925276 -0.267717
v 1.655623 0.710715 -0.273134
v 1.655623 0.747706 -0.215577
v 1.655623 0.564276 -0.104135
v 1.655623 0.626513 -0.075708
v 1.655623 0.510893 0.112342
v 1.655623 0.553366 0.112342
v -1.655628 1.297186 0.112342
v 1.655623 1.339659 0.112342
v 1.655623 1.297186 0.112342
v -1.655628 1.339659 0.112342
v 1.655623 0.553366 0.112342
v -1.655628 0.510893 0.112342
v -1.655628 0.553366 0.112342
v 1.655623 0.510893 0.112342
v -0.000003 0.561740 0.054724
v -1.576314 0.466143 0.054717
v -1.576314 0.561740 0.054724
v -0.185969 0.214182 0.054717
v 0.185964 0.214182 0.054717
v 1.576309 0.466143 0.054717
v 1.576309 0.561740 0.054724
v -1.576314 0.466143 -0.051828
v -0.000003 0.561740 -0.051812
v -1.576314 0.561740 -0.051820
v -0.185969 0.214182 -0.051828
v 0.185964 0.214182 -0.051828
v 1.576309 0.466143 -0.051828
v 1.576309 0.561740 -0.051820
v -0.185969 0.214182 -0.051828
v -1.576314 0.466143 0.054717
v -0.185969 0.214182 0.054717
v -1.576314 0.466143 -0.051828
v -1.576314 0.466143 -0.051828
v -1.576314 0.561740 0.054724
v -1.576314 0.466143 0.054717
v -1.576314 0.561740 -0.051820
v -0.185969 0.214182 0.054717
v 0.185964 0.214182 -0.051828
v -0.185969 0.214182 -0.051828
v 0.185964 0.214182 0.054717
v 0.185964 0.214182 -0.051828
v 1.576309 0.466143 0.054717
v 1.576309 0.466143 -0.051828
v 0.185964 0.214182 0.054717
v 1.576309 0.466143 -0.051828
v 1.576309 0.561740 0.054724
v 1.576309 0.561740 -0.051820
v 1.576309 0.466143 0.054717
v -0.345164 0.925276 -0.453348
v 0.345159 1.159182 -0.453348
v -0.345164 1.159182 -0.453348
v 0.345159 0.925276 -0.453348
v -0.345164 0.691371 -0.453348
v 0.345159 0.691371 -0.453348
v -0.345164 1.139838 -0.273134
v -0.345164 1.159182 -0.453348
v -0.345164 1.286276 -0.104135
v -0.345164 0.925276 -0.336137
v -0.345164 0.925276 -0.453348
v -0.345164 0.710715 -0.273134
v -0.345164 0.691371 -0.453348
v -0.345164 0.564276 -0.104135
v -0.345164 1.286276 -0.104135
v 0.345159 1.159182 -0.453348
v 0.345159 1.286276 -0.104135
v -0.345164 1.159182 -0.453348
v 0.345159 1.286276 -0.104135
v 0.345159 1.159182 -0.453348
v 0.345159 1.139838 -0.273134
v 0.345159 0.925276 -0.453348
v 0.345159 0.925276 -0.336137
v 0.345159 0.691371 -0.453348
v 0.345159 0.710715 -0.273134
v 0.345159 0.564276 -0.104135
v 0.345159 0.564276 -0.104135
v -0.345164 0.691371 -0.453348
v -0.345164 0.564276 -0.104135
v 0.345159 0.691371 -0.453348
v -0.000022 0.257784 0.003958
v 1.655623 1.297186 0.112342
v -1.655628 1.224040 -0.075708
v -1.655628 1.297186 0.112342
v 1.655623 1.224040 -0.075708
v -1.655628 1.102847 -0.215577
v 1.655623 1.102847 -0.215577
v 1.655623 1.102847 -0.215577
v -1.655628 0.925276 -0.267709
v -1.655628 1.102847 -0.215577
v 1.655623 0.925276 -0.267717
v -1.655628 0.747706 -0.215577
v 1.655623 0.747706 -0.215577
v 1.655623 0.747706 -0.215577
v -1.655628 0.626513 -0.075708
v -1.655628 0.747706 -0.215577
v 1.655623 0.626513 -0.075708
v -1.655628 0.553366 0.112342
v 1.655623 0.553366 0.112342
v -0.000022 0.299681 0.200614
v -0.139079 0.007372 0.143019
v -0.139079 0.299681 0.143019
v -0.000022 0.007372 0.200614
v 0.139036 0.299681 0.143019
v 0.139037 0.007372 0.143019
v 0.196636 0.299681 0.003958
v 0.139037 0.007372 0.143019
v 0.139036 0.299681 0.143019
v 0.196636 0.007372 0.003958
v 0.139037 0.299681 -0.135103
v 0.139037 0.007372 -0.135103
v -0.000022 0.299681 -0.192697
v 0.139037 0.007372 -0.135103
v 0.139037 0.299681 -0.135103
v -0.000022 0.007372 -0.192697
v -0.139079 0.299681 -0.135103
v -0.139079 0.007372 -0.135103
v -0.196679 0.299681 0.003958
v -0.139079 0.007372 -0.135103
v -0.139079 0.299681 -0.135103
v -0.196679 0.007372 0.003958
v -0.139079 0.299681 0.143019
v -0.139079 0.007372 0.143019
v 0.139036 0.299681 0.143019
v 0.139037 0.299681 -0.135103
v 0.196636 0.299681 0.003958
v -0.139079 0.299681 0.143019
v -0.000022 0.299681 0.200614
v -0.139079 0.299681 -0.135103
v -0.000022 0.299681 -0.192697
v -0.196679 0.299681 0.003958
v -0.333044 0.034854 -0.015497
v 0.333000 0.034854 -0.015497
vn -0.0000 0.5399 -0.8417
vn -0.0000 -0.0000 -1.0000
vn -0.0000 -0.5399 -0.8417
vn -0.0000 0.5414 -0.8408
vn -0.0000 0.8880 -0.4599
vn -0.0000 0.9709 -0.2394
vn -0.0000 -0.9709 -0.2394
vn -0.0000 -0.8880 -0.4599
vn -0.0000 -0.5414 -0.8408
vn -1.0000 -0.0000 -0.0000
vn 1.0000 -0.0000 -0.0000
vn -0.0000 -0.0000 1.0000
vn -0.0000 -0.0001 1.0000
vn -0.0000 0.0001 -1.0000
vn -0.1783 -0.9840 -0.0000
vn -0.0000 -1.0000 -0.0000
vn 0.1783 -0.9840 -0.0000
vn -0.0000 0.9397 -0.3420
vn -0.0000 -0.9397 -0.3420
vn -0.0000 -0.9320 0.3625
vn -0.0000 -0.8564 0.5163
vn -0.0000 -0.5414 0.8408
vn -0.0000 -0.5399 0.8418
vn -0.0000 -0.5399 0.8417
vn -0.0000 0.5399 0.8418
vn -0.0000 0.5399 0.8417
vn -0.0000 0.5414 0.8408
vn -0.0000 0.8564 0.5163
vn -0.0000 0.9320 0.3625
vn -0.7064 -0.0000 0.7078
vn 0.7064 -0.0000 0.7078
vn 0.7077 -0.0000 0.7065
vn 0.7077 -0.0000 -0.7065
vn 0.7064 -0.0000 -0.7078
vn 0.7064 0.0003 -0.7078
vn -0.7064 -0.0000 -0.7078
vn -0.7077 -0.0000 -0.7065
vn -0.7077 -0.0000 0.7065
vn -0.0000 1.0000 -0.0000
vt 0.525195 0.809695
vt 0.474800 0.809695
vt 0.525195 0.806403
vt 0.474800 0.806403
vt 0.525195 0.803110
vt 0.474800 0.803110
vt 0.525200 10.679316
vt 0.474805 10.679316
vt 0.525200 10.676779
vt 0.474805 10.676779
vt 0.525200 10.673530
vt 0.474805 10.673530
vt 0.474800 10.673530
vt 0.525195 10.673530
vt 0.474800 10.676779
vt 0.525195 10.676779
vt 0.474800 10.679316
vt 0.525195 10.679316
vt -9.673530 0.800044
vt -9.673530 0.800696
vt -9.676779 0.800863
vt -9.676353 0.801818
vt -9.679316 0.803110
vt -9.678452 0.803678
vt -9.680262 0.806403
vt -9.679235 0.806403
vt -9.679316 0.809695
vt -9.678452 0.809128
vt -9.676779 0.811942
vt -9.676353 0.810987
vt -9.673530 0.812761
vt -9.673530 0.812110
vt 10.673530 0.812761
vt 10.673530 0.812110
vt 10.676779 0.811942
vt 10.676353 0.810987
vt 10.679316 0.809695
vt 10.678452 0.809128
vt 10.680262 0.806403
vt 10.679235 0.806403
vt 10.679316 0.803110
vt 10.678452 0.803678
vt 10.676779 0.800863
vt 10.676353 0.801818
vt 10.673530 0.800044
vt 10.673530 0.800696
vt 0.525200 0.812110
vt 0.525200 0.812761
vt 0.474805 0.812110
vt 0.474805 0.812761
vt 0.474805 0.800696
vt 0.474805 0.800044
vt 0.525200 0.800696
vt 0.525200 0.800044
vt 0.476012 0.800824
vt 0.476012 0.799357
vt 0.500003 0.800824
vt 0.497172 0.795491
vt 0.502833 0.795491
vt 0.523993 0.799357
vt 0.523993 0.800824
vt 0.523988 0.800824
vt 0.499997 0.800824
vt 0.523988 0.799357
vt 0.502828 0.795491
vt 0.497167 0.795491
vt 0.476007 0.799357
vt 0.476007 0.800824
vt 0.502828 10.674395
vt 0.523988 10.674395
vt 0.502828 10.675994
vt 0.523988 10.675994
vt -9.674395 0.799357
vt -9.674395 0.800824
vt -9.675994 0.799357
vt -9.675994 0.800824
vt 0.497167 10.675994
vt 0.497167 10.674395
vt 0.476007 10.675994
vt 0.476007 10.674395
vt 10.675994 0.800824
vt 10.674395 0.800824
vt 10.675994 0.799357
vt 10.674395 0.799357
vt 0.505251 0.809992
vt 0.494744 0.809992
vt 0.505251 0.806403
vt 0.494744 0.806403
vt 0.505251 0.802814
vt 0.494744 0.802814
vt -9.682021 0.809992
vt -9.682021 0.806403
vt -9.682021 0.802814
vt 0.505256 10.676779
vt 0.505256 10.682021
vt 0.494749 10.676779
vt 0.494749 10.682021
vt 10.682021 0.809992
vt 10.682021 0.806403
vt 10.682021 0.802814
vt 0.505251 10.676779
vt 0.505251 10.682021
vt 0.494744 10.676779
vt 0.494744 10.682021
vt 0.525195 10.676353
vt 0.474800 10.676353
vt 0.525195 10.678452
vt 0.474800 10.678452
vt 0.474805 0.809128
vt 0.474805 0.806403
vt 0.525200 0.809128
vt 0.525200 0.806403
vt 0.474805 0.803678
vt 0.525200 0.803678
vt 0.474805 10.678452
vt 0.474805 10.676353
vt 0.525200 10.678452
vt 0.525200 10.676353
vt 0.497886 0.796803
vt 0.497886 0.792318
vt 0.500002 0.796803
vt 0.500002 0.792318
vt 0.502119 0.796803
vt 0.502119 0.792318
vt 10.673069 0.796803
vt 10.673069 0.792318
vt 10.675157 0.796803
vt 10.675157 0.792318
vt 10.677244 0.796803
vt 10.677244 0.792318
vt 0.497881 0.796803
vt 0.497881 0.792318
vt 0.499998 0.796803
vt 0.499998 0.792318
vt 0.502114 0.796803
vt 0.502114 0.792318
vt -9.677244 0.796803
vt -9.677244 0.792318
vt -9.675157 0.796803
vt -9.675157 0.792318
vt -9.673069 0.796803
vt -9.673069 0.792318
vt 0.502995 10.675157
vt 0.502119 10.677244
vt 0.502119 10.673069
vt 0.497886 10.673069
vt 0.500002 10.672205
vt 0.497886 10.677244
vt 0.500002 10.678108
vt 0.497009 10.675157
s 1
g Arizona_B_SKSG_RADAR_Antenna_SG_steel_4
usemtl steel_4
f 5/1/1 4/2/1 3/3/2
f 6/4/2 3/3/2 4/2/1
f 3/3/2 6/4/2 7/5/3
f 8/6/3 7/5/3 6/4/2
f 11/7/4 10/8/4 9/9/5
f 12/10/5 9/9/5 10/8/4
f 9/9/5 12/10/5 13/11/6
f 14/12/6 13/11/6 12/10/5
f 17/13/7 16/14/7 15/15/8
f 18/16/8 15/15/8 16/14/7
f 15/15/8 18/16/8 19/17/9
f 20/18/9 19/17/9 18/16/8
f 23/19/10 22/20/10 21/21/10
f 24/22/10 21/21/10 22/20/10
f 21/21/10 24/22/10 25/23/10
f 26/24/10 25/23/10 24/22/10
f 25/23/10 26/24/10 27/25/10
f 28/26/10 27/25/10 26/24/10
f 27/25/10 28/26/10 29/27/10
f 30/28/10 29/27/10 28/26/10
f 29/27/10 30/28/10 31/29/10
f 32/30/10 31/29/10 30/28/10
f 31/29/10 32/30/10 33/31/10
f 34/32/10 33/31/10 32/30/10
f 37/33/11 36/34/11 35/35/11
f 38/36/11 35/35/11 36/34/11
f 35/35/11 38/36/11 39/37/11
f 40/38/11 39/37/11 38/36/11
f 39/37/11 40/38/11 41/39/11
f 42/40/11 41/39/11 40/38/11
f 41/39/11 42/40/11 43/41/11
f 44/42/11 43/41/11 42/40/11
f 43/41/11 44/42/11 45/43/11
f 46/44/11 45/43/11 44/42/11
f 45/43/11 46/44/11 47/45/11
f 48/46/11 47/45/11 46/44/11
f 51/47/12 50/48/12 49/49/12
f 52/50/12 49/49/12 50/48/12
f 55/51/12 54/52/12 53/53/12
f 56/54/12 53/53/12 54/52/12
f 59/55/13 58/56/13 57/57/12
f 60/58/12 57/57/12 58/56/13
f 60/58/12 61/59/12 57/57/12
f 61/59/12 62/60/13 57/57/12
f 63/61/13 57/57/12 62/60/13
f 66/62/14 65/63/2 64/64/14
f 67/65/2 64/64/14 65/63/2
f 67/65/2 65/63/2 68/66/2
f 68/66/2 65/63/2 69/67/14
f 70/68/14 69/67/14 65/63/2
f 73/69/15 72/70/15 71/71/15
f 74/72/15 71/71/15 72/70/15
f 77/73/10 76/74/10 75/75/10
f 78/76/10 75/75/10 76/74/10
f 81/71/16 80/77/16 79/69/16
f 82/78/16 79/69/16 80/77/16
f 85/79/17 84/80/17 83/77/17
f 86/78/17 83/77/17 84/80/17
f 89/81/11 88/82/11 87/83/11
f 90/84/11 87/83/11 88/82/11
f 93/85/2 92/86/2 91/87/2
f 94/88/2 91/87/2 92/86/2
f 91/87/2 94/88/2 95/89/2
f 96/90/2 95/89/2 94/88/2
f 99/29/10 98/91/10 97/27/10
f 97/27/10 98/91/10 100/25/10
f 101/92/10 100/25/10 98/91/10
f 100/25/10 101/92/10 102/23/10
f 103/93/10 102/23/10 101/92/10
f 102/23/10 103/93/10 104/21/10
f 107/94/18 106/95/18 105/96/18
f 108/97/18 105/96/18 106/95/18
f 111/37/11 110/98/11 109/35/11
f 110/98/11 111/37/11 112/99/11
f 113/39/11 112/99/11 111/37/11
f 112/99/11 113/39/11 114/100/11
f 115/41/11 114/100/11 113/39/11
f 116/43/11 114/100/11 115/41/11
f 119/101/19 118/102/19 117/103/19
f 120/104/19 117/103/19 118/102/19
g Arizona_B_SKSG_RADAR_Antenna_SG_steel_3
usemtl steel_3
f 124/14/20 123/105/21 122/13/20
f 125/106/21 122/13/20 123/105/21
f 123/105/21 126/107/22 125/106/21
f 127/108/22 125/106/21 126/107/22
f 130/109/23 129/110/12 128/111/24
f 131/112/12 128/111/24 129/110/12
f 129/110/12 132/113/25 131/112/12
f 133/114/26 131/112/12 132/113/25
f 136/115/27 135/116/28 134/117/27
f 137/118/28 134/117/27 135/116/28
f 135/116/28 138/12/29 137/118/28
f 139/11/29 137/118/28 138/12/29
g Arizona_B_SKSG_RADAR_Antenna_SG_details_3
usemtl details_3
f 142/119/30 141/120/30 140/121/12
f 143/122/12 140/121/12 141/120/30
f 140/121/12 143/122/12 144/123/31
f 145/124/31 144/123/31 143/122/12
f 148/125/32 147/126/32 146/127/11
f 149/128/11 146/127/11 147/126/32
f 146/127/11 149/128/11 150/129/33
f 151/130/33 150/129/33 149/128/11
f 154/131/34 153/132/35 152/133/2
f 155/134/2 152/133/2 153/132/35
f 152/133/2 155/134/2 156/135/36
f 157/136/36 156/135/36 155/134/2
f 160/137/37 159/138/37 158/139/10
f 161/140/10 158/139/10 159/138/37
f 158/139/10 161/140/10 162/141/38
f 163/142/38 162/141/38 161/140/10
f 166/143/39 165/144/39 164/145/39
f 165/144/39 167/146/39 164/145/39
f 164/145/39 167/146/39 168/147/39
f 169/148/39 167/146/39 165/144/39
f 170/149/39 169/148/39 165/144/39
f 171/150/39 167/146/39 169/148/39
l 172 173
