# Blender 5.1.0
# www.blender.org
mtllib Litt_Deckhouse_A1_Side_Platforms_FlatMod.mtl
o Litt_Deckhouse_A1_Side_Platforms_FlatMod
v -7.702240 4.922034 0.016771
v -4.873230 4.922799 0.034782
v -7.714049 4.922799 0.034781
v -7.702240 4.922034 0.016771
v -4.873271 4.922034 -5.536432
v -7.648783 4.922034 -0.555204
v -7.896452 4.922034 -1.154509
v -8.113591 4.922034 -1.824808
v -8.114139 4.922034 -2.574530
v -7.892796 4.922034 -3.414362
v -7.343613 4.922035 -6.007965
v -4.863180 4.922034 -6.150818
v -7.176166 4.922034 -6.437906
v -6.963766 4.922034 -6.765703
v -5.010365 4.922034 -6.612343
v -5.249352 4.922034 -6.935093
v -6.704201 4.922034 -6.999590
v -5.587096 4.922034 -7.129412
v -6.394183 4.922034 -7.142292
v -6.031783 4.922034 -7.192785
v 7.702232 4.922034 0.016775
v 7.714042 4.922799 0.034782
v 4.873222 4.922799 0.034782
v 7.702232 4.922034 0.016775
v 4.873265 4.922034 -5.536432
v 7.648777 4.922034 -0.555201
v 7.896445 4.922034 -1.154505
v 8.113584 4.922034 -1.824804
v 8.114131 4.922034 -2.574526
v 7.892789 4.922034 -3.414358
v 7.343609 4.922035 -6.007963
v 4.863174 4.922034 -6.150816
v 7.176163 4.922034 -6.437906
v 6.963761 4.922034 -6.765703
v 5.010360 4.922034 -6.612341
v 5.249347 4.922034 -6.935091
v 6.704196 4.922034 -6.999590
v 5.587090 4.922034 -7.129412
v 6.394177 4.922034 -7.142290
v 6.031778 4.922034 -7.192783
v -4.873231 4.923820 6.587032
v -4.068618 4.923820 5.164803
v -4.068620 4.923820 6.587032
v -4.873230 4.923820 5.164803
v -7.574593 4.923820 7.694696
v -8.147088 4.923820 6.886728
v -7.249413 4.923820 8.327808
v -6.520476 4.923819 10.397682
v -4.873231 4.923819 10.397682
v -8.363611 4.923820 6.485401
v -8.461344 4.923820 6.065380
v -8.444200 4.923820 5.617090
v -8.154284 4.923818 4.606232
v -8.062519 4.923818 4.117821
v -8.067544 4.923818 3.624849
v -4.873230 4.922799 0.034782
v -8.169037 4.923818 3.139503
v -8.363394 4.923818 2.445896
v -8.424266 4.923818 1.996181
v -8.349923 4.923818 1.580154
v -8.136910 4.923818 1.178440
v -7.714049 4.922799 0.034781
v 4.068610 4.923820 5.164803
v 4.873219 4.923820 6.587032
v 4.068608 4.923820 6.587032
v 4.873220 4.923820 5.164803
v 7.574581 4.923820 7.694700
v 8.147077 4.923820 6.886732
v 7.249401 4.923820 8.327808
v 6.520464 4.923819 10.397682
v 4.873219 4.923819 10.397682
v 8.363600 4.923820 6.485405
v 8.461332 4.923820 6.065384
v 8.444188 4.923820 5.617094
v 8.154273 4.923818 4.606236
v 8.062507 4.923818 4.117825
v 8.067533 4.923818 3.624853
v 4.873222 4.922799 0.034782
v 8.169029 4.923818 3.139507
v 8.363386 4.923818 2.445900
v 8.424258 4.923818 1.996185
v 8.349916 4.923818 1.580158
v 8.136903 4.923818 1.178444
v 7.714042 4.922799 0.034782
v -5.567576 5.342826 -7.227177
v -5.249352 5.847598 -6.935093
v -5.587096 5.342825 -7.129412
v -5.249352 5.847598 -6.935093
v -5.567576 5.342826 -7.227177
v -5.205774 5.847598 -7.018969
v 5.567570 5.342826 -7.227175
v 5.249347 5.847598 -6.935091
v 5.205769 5.847598 -7.018965
v 5.249347 5.847598 -6.935091
v 5.567570 5.342826 -7.227175
v 5.587090 5.342825 -7.129412
v -8.510618 5.847609 1.125483
v -8.445621 4.771402 1.547001
v -8.222013 4.771402 1.125340
v -8.734208 5.847608 1.547146
v -8.525455 4.771402 1.993870
v -8.814067 5.847608 1.994041
v -8.461558 4.771402 2.466019
v -8.750157 5.847608 2.466192
v -8.554832 5.847608 3.163254
v -8.266283 4.771402 3.163080
v -8.167439 4.771402 3.635525
v -8.456038 5.847608 3.635696
v -8.162614 4.771402 4.108845
v -8.451213 5.847608 4.109013
v -8.251737 4.771402 4.583017
v -8.540299 5.847608 4.583166
v -8.832263 5.847610 5.601166
v -8.543626 4.771402 5.601023
v -8.561783 4.771402 6.074778
v -8.850383 5.847610 6.074970
v -8.457951 4.771402 6.520929
v -8.746574 5.847610 6.521101
v -8.232191 4.771402 6.939426
v -8.520802 5.847610 6.939575
v -7.946798 5.847610 7.749670
v -7.658236 4.771402 7.749525
v -7.338498 4.771402 8.373528
v -7.627148 5.847610 8.373699
v -6.603007 4.771402 10.497540
v -6.891606 5.847609 10.497684
v -8.145125 5.847609 0.034433
v -8.222013 4.771402 1.125340
v -7.820699 4.771401 0.034349
v -8.510618 5.847609 1.125483
v -6.603007 4.771402 10.497540
v -4.773232 5.847609 10.497684
v -4.773231 4.771402 10.497540
v -6.891606 5.847609 10.497684
v -4.773232 5.847609 10.497684
v -4.773231 4.771402 6.686880
v -4.773231 4.771402 10.497540
v -4.773231 5.847610 6.687023
v -8.425509 5.847609 1.178440
v -8.734208 5.847608 1.547146
v -8.510618 5.847609 1.125483
v -8.638523 5.847608 1.580154
v -8.814067 5.847608 1.994041
v -8.712865 5.847608 1.996181
v -8.750157 5.847608 2.466192
v -8.651993 5.847608 2.445896
v -8.554832 5.847608 3.163254
v -8.457637 5.847608 3.139503
v -8.456038 5.847608 3.635696
v -8.356143 5.847608 3.624849
v -8.451213 5.847608 4.109013
v -8.351118 5.847608 4.117821
v -8.540299 5.847608 4.583166
v -8.442883 5.847608 4.606232
v -8.832263 5.847610 5.601166
v -8.732800 5.847610 5.617090
v -8.850383 5.847610 6.074970
v -8.749943 5.847610 6.065380
v -8.746574 5.847610 6.521101
v -8.652211 5.847610 6.485401
v -8.520802 5.847610 6.939575
v -8.435687 5.847610 6.886728
v -7.946798 5.847610 7.749670
v -7.863192 5.847610 7.694696
v -7.627148 5.847610 8.373699
v -7.538012 5.847610 8.327808
v -6.891606 5.847609 10.497684
v -6.809075 5.847609 10.397682
v -4.773232 5.847609 10.497684
v -4.873231 5.847609 10.397682
v -4.773231 5.847610 6.687023
v -4.873232 5.847610 6.587032
v -8.033455 5.847605 0.034781
v -8.510618 5.847609 1.125483
v -8.145125 5.847609 0.034433
v -8.145125 5.847609 0.034433
v -7.714049 4.922799 0.034781
v -4.873230 5.847609 0.034782
v -4.873230 4.922799 0.034782
v -4.773231 5.847609 0.034531
v -4.773231 5.847610 5.064791
v -4.773231 5.847609 0.034531
v -4.873230 5.847610 5.164803
v -4.068618 5.847610 5.064791
v -4.068618 5.847610 5.164803
v -4.773231 5.847609 0.034531
v -4.773231 4.771402 5.064791
v -4.773231 5.847610 5.064791
v -4.773230 4.771401 0.034399
v -4.773231 4.771402 6.686880
v -4.068620 5.847610 6.687023
v -4.068620 4.771402 6.686880
v -4.773231 5.847610 6.687023
v -4.773231 5.847610 5.064791
v -4.068618 4.771402 5.064791
v -4.068618 5.847610 5.064791
v -4.773231 4.771402 5.064791
v -4.068618 5.847610 5.064791
v -4.068618 4.923820 5.164803
v -4.068618 5.847610 5.164803
v -4.068618 4.771402 5.064791
v -4.068620 4.771402 6.686880
v -4.068620 4.923820 6.587032
v -4.068620 5.847610 6.687023
v -4.068620 5.847610 6.587032
v -4.068620 5.847610 6.587032
v -4.773231 5.847610 6.687023
v -4.873232 5.847610 6.587032
v -4.068620 5.847610 6.687023
v -4.873231 4.923819 4.364353
v -5.288533 5.562459 4.364414
v -4.873231 5.562459 4.364344
v -5.288533 4.923819 4.364368
v -5.288533 4.923816 3.635702
v -5.288533 5.562459 4.364414
v -5.288533 4.923819 4.364368
v -5.288533 5.562456 3.635702
v -5.288533 4.923816 3.635702
v -4.873231 5.562456 3.635702
v -5.288533 5.562456 3.635702
v -4.873231 4.923816 3.635702
v -4.873231 4.923816 3.635702
v -4.873231 5.562459 4.364344
v -4.873231 5.562456 3.635702
v -4.873231 4.923819 4.364353
v -5.288533 5.562456 3.635702
v -4.873231 5.562459 4.364344
v -5.288533 5.562459 4.364414
v -4.873231 5.562456 3.635702
v -4.873231 4.923819 3.340809
v -5.288533 5.562459 3.340870
v -4.873231 5.562459 3.340796
v -5.288533 4.923819 3.340820
v -5.288533 4.923816 2.612158
v -5.288533 5.562459 3.340870
v -5.288533 4.923819 3.340820
v -5.288533 5.562456 2.612158
v -5.288533 4.923816 2.612158
v -4.873231 5.562456 2.612158
v -5.288533 5.562456 2.612158
v -4.873231 4.923816 2.612158
v -4.873231 4.923816 2.612158
v -4.873231 5.562459 3.340796
v -4.873231 5.562456 2.612158
v -4.873231 4.923819 3.340809
v -5.288533 5.562456 2.612158
v -4.873231 5.562459 3.340796
v -5.288533 5.562459 3.340870
v -4.873231 5.562456 2.612158
v -4.873231 4.923819 2.317263
v -5.288533 5.562459 2.317324
v -4.873231 5.562459 2.317253
v -5.288533 4.923819 2.317278
v -5.288533 4.923816 1.588612
v -5.288533 5.562459 2.317324
v -5.288533 4.923819 2.317278
v -5.288533 5.562456 1.588612
v -5.288533 4.923816 1.588612
v -4.873231 5.562456 1.588612
v -5.288533 5.562456 1.588612
v -4.873231 4.923816 1.588612
v -4.873231 4.923816 1.588612
v -4.873231 5.562459 2.317253
v -4.873231 5.562456 1.588612
v -4.873231 4.923819 2.317263
v -5.288533 5.562456 1.588612
v -4.873231 5.562459 2.317253
v -5.288533 5.562459 2.317324
v -4.873231 5.562456 1.588612
v -4.873231 4.923819 1.293716
v -5.288533 5.562459 1.293779
v -4.873231 5.562459 1.293707
v -5.288533 4.923819 1.293732
v -5.288532 4.923816 0.565067
v -5.288533 5.562459 1.293779
v -5.288533 4.923819 1.293732
v -5.288532 5.562456 0.565067
v -5.288532 4.923816 0.565067
v -4.873230 5.562456 0.565067
v -5.288532 5.562456 0.565067
v -4.873230 4.923816 0.565067
v -4.873230 4.923816 0.565067
v -4.873231 5.562459 1.293707
v -4.873230 5.562456 0.565067
v -4.873231 4.923819 1.293716
v -5.288532 5.562456 0.565067
v -4.873231 5.562459 1.293707
v -5.288533 5.562459 1.293779
v -4.873230 5.562456 0.565067
v -8.143595 5.847600 0.060759
v -7.677733 4.768808 0.031794
v -7.819252 4.768807 0.060675
v -8.145125 5.847609 0.034433
v -8.145125 5.847600 0.034479
v -7.725384 4.768808 0.031794
v -7.773036 4.768808 0.031794
v -7.820699 4.771401 0.034349
v -7.981972 4.768807 -1.106913
v -8.100784 5.847600 -0.483847
v -7.718781 4.768807 -0.483927
v -8.377026 5.847600 -1.106836
v -8.615463 5.847600 -1.808207
v -8.209177 4.768807 -1.808287
v -8.616048 5.847600 -2.587942
v -8.209746 4.768807 -2.588022
v -8.378693 5.847600 -3.446062
v -7.983585 4.768807 -3.446142
v -7.958683 5.342825 -4.096884
v -7.412392 5.342826 -6.049314
v -7.412410 4.768807 -6.049395
v -7.239180 5.342826 -6.494127
v -7.239180 4.768807 -6.494127
v -7.014495 5.342826 -6.840883
v -7.014495 4.768807 -6.840883
v -8.100784 5.847600 -0.483847
v -7.819252 4.768807 0.060675
v -7.718781 4.768807 -0.483927
v -8.143595 5.847600 0.060759
v -5.205785 4.768807 -7.019047
v -4.946408 5.847598 -6.668715
v -5.205774 5.847598 -7.018969
v -4.946431 4.768807 -6.668793
v -4.789418 5.847598 -6.176386
v -4.789422 4.768807 -6.176466
v -4.773250 5.847600 -5.542036
v -4.773271 4.768807 -5.542116
v -4.773233 4.768808 0.031794
v -4.773231 5.847609 0.034531
v -4.773225 5.847600 0.034525
v -4.773230 4.768808 0.031794
v -4.773230 4.768808 0.031794
v -4.773230 4.771401 0.034399
v -5.205774 5.847598 -7.018969
v -5.567585 4.768807 -7.227209
v -5.205785 4.768807 -7.019047
v -5.567576 5.342826 -7.227177
v -6.031683 4.768807 -7.293316
v -6.031683 5.342826 -7.293316
v -6.410731 4.768807 -7.240498
v -6.410731 5.342826 -7.240498
v -6.738379 4.768807 -7.089674
v -6.738379 5.342826 -7.089674
v -7.014495 4.768807 -6.840883
v -7.014495 5.342826 -6.840883
v -8.145125 5.847600 0.034479
v -8.021754 5.847600 0.016771
v -8.034502 5.847605 0.034781
v -8.143595 5.847600 0.060759
v -8.143595 5.847600 0.060759
v -8.027349 5.847600 -0.555204
v -8.021754 5.847600 0.016771
v -8.100784 5.847600 -0.483847
v -8.287278 5.847600 -1.154509
v -8.377026 5.847600 -1.106836
v -8.515164 5.847600 -1.824808
v -8.615463 5.847600 -1.808207
v -8.515738 5.847600 -2.574530
v -8.616048 5.847600 -2.587942
v -8.283441 5.847600 -3.414362
v -8.378693 5.847600 -3.446062
v -5.205774 5.847598 -7.018969
v -5.010365 5.847598 -6.612343
v -5.249352 5.847598 -6.935093
v -4.946408 5.847598 -6.668715
v -4.863180 5.847598 -6.150818
v -4.789418 5.847598 -6.176386
v -4.873271 5.847600 -5.536432
v -4.773250 5.847600 -5.542036
v -4.873230 5.847600 0.034782
v -4.773225 5.847600 0.034525
v -7.412392 5.342826 -6.049314
v -7.176166 5.342825 -6.437906
v -7.343613 5.342825 -6.007965
v -7.239180 5.342826 -6.494127
v -7.866260 5.342824 -4.062761
v -7.343613 5.342825 -6.007965
v -7.958683 5.342825 -4.096884
v -7.014495 5.342826 -6.840883
v -7.176166 5.342825 -6.437906
v -6.963766 5.342825 -6.765703
v -6.738379 5.342826 -7.089674
v -6.963766 5.342825 -6.765703
v -6.704201 5.342825 -6.999590
v -6.410731 5.342826 -7.240498
v -6.704201 5.342825 -6.999590
v -6.394183 5.342825 -7.142292
v -6.031683 5.342826 -7.293316
v -6.394183 5.342825 -7.142292
v -6.031783 5.342825 -7.192785
v -5.567576 5.342826 -7.227177
v -6.031783 5.342825 -7.192785
v -5.587096 5.342825 -7.129412
v -7.714049 4.922799 0.034781
v -8.145125 5.847600 0.034479
v -8.034502 5.847605 0.034781
v -8.145125 5.847609 0.034433
v -4.873230 5.847600 0.034782
v -4.773231 5.847609 0.034531
v -4.873230 4.922799 0.034782
v -4.773225 5.847600 0.034525
v -8.283441 5.847600 -3.414362
v -7.958683 5.342825 -4.096884
v -7.866260 5.342824 -4.062761
v -8.378693 5.847600 -3.446062
v -6.745484 4.771403 8.963123
v -6.656790 0.000000 8.749001
v -6.656790 4.771403 8.749001
v -6.745484 0.000000 8.963123
v -6.656792 4.771403 9.177250
v -6.656792 0.000001 9.177250
v -6.442666 4.771403 8.660309
v -6.228542 0.000000 8.749001
v -6.228542 4.771403 8.749001
v -6.442666 0.000000 8.660305
v -6.656790 4.771403 8.749001
v -6.656790 0.000000 8.749001
v -6.442666 0.000001 9.265942
v -6.228542 4.771403 9.177250
v -6.228542 0.000001 9.177250
v -6.442666 4.771403 9.265942
v -6.656792 0.000001 9.177250
v -6.656792 4.771403 9.177250
v -6.139848 0.000000 8.963123
v -6.228542 4.771403 8.749001
v -6.228542 0.000000 8.749001
v -6.139848 4.771403 8.963123
v -6.228542 0.000001 9.177250
v -6.228542 4.771403 9.177250
v -6.745481 4.768807 -5.414007
v -6.656786 -0.000002 -5.628130
v -6.656786 4.768807 -5.628134
v -6.745481 -0.000001 -5.414003
v -6.656788 4.768807 -5.199884
v -6.656788 -0.000001 -5.199884
v -6.442663 4.768807 -5.716825
v -6.228539 -0.000002 -5.628130
v -6.228539 4.768807 -5.628134
v -6.442663 -0.000002 -5.716825
v -6.656786 4.768807 -5.628134
v -6.656786 -0.000002 -5.628130
v -6.442663 -0.000001 -5.111185
v -6.228539 4.768807 -5.199884
v -6.228539 -0.000001 -5.199884
v -6.442663 4.768807 -5.111193
v -6.656788 -0.000001 -5.199884
v -6.656788 4.768807 -5.199884
v -6.139844 -0.000001 -5.414003
v -6.228539 4.768807 -5.628134
v -6.228539 -0.000002 -5.628130
v -6.139844 4.768807 -5.414007
v -6.228539 -0.000001 -5.199884
v -6.228539 4.768807 -5.199884
v 8.445613 4.771402 1.547005
v 8.510610 5.847609 1.125486
v 8.222005 4.771402 1.125343
v 8.734200 5.847608 1.547150
v 8.525447 4.771402 1.993874
v 8.814059 5.847608 1.994045
v 8.461551 4.771402 2.466022
v 8.750150 5.847608 2.466196
v 8.554825 5.847608 3.163258
v 8.266275 4.771402 3.163084
v 8.167427 4.771402 3.635529
v 8.456026 5.847608 3.635700
v 8.162602 4.771402 4.108849
v 8.451201 5.847608 4.109016
v 8.251725 4.771402 4.583021
v 8.540288 5.847608 4.583170
v 8.832252 5.847610 5.601170
v 8.543614 4.771402 5.601027
v 8.561771 4.771402 6.074781
v 8.850371 5.847610 6.074974
v 8.457939 4.771402 6.520933
v 8.746564 5.847610 6.521105
v 8.232181 4.771402 6.939430
v 8.520791 5.847610 6.939579
v 7.946786 5.847610 7.749674
v 7.658224 4.771402 7.749529
v 7.338487 4.771402 8.373528
v 7.627136 5.847610 8.373699
v 6.602995 4.771402 10.497540
v 6.891595 5.847609 10.497684
v 8.145119 5.847609 0.034437
v 8.222005 4.771402 1.125343
v 8.510610 5.847609 1.125486
v 7.820691 4.771401 0.034353
v 6.602995 4.771402 10.497540
v 4.773220 5.847609 10.497684
v 6.891595 5.847609 10.497684
v 4.773219 4.771402 10.497540
v 4.773220 5.847609 10.497684
v 4.773219 4.771402 6.686880
v 4.773219 5.847610 6.687023
v 4.773219 4.771402 10.497540
v 8.734200 5.847608 1.547150
v 8.425502 5.847609 1.178444
v 8.510610 5.847609 1.125486
v 8.638515 5.847608 1.580158
v 8.814059 5.847608 1.994045
v 8.712857 5.847608 1.996185
v 8.750150 5.847608 2.466196
v 8.651985 5.847608 2.445900
v 8.554825 5.847608 3.163258
v 8.457629 5.847608 3.139507
v 8.456026 5.847608 3.635700
v 8.356132 5.847608 3.624853
v 8.451201 5.847608 4.109016
v 8.351108 5.847608 4.117825
v 8.540288 5.847608 4.583170
v 8.442872 5.847608 4.606236
v 8.832252 5.847610 5.601170
v 8.732788 5.847610 5.617094
v 8.850371 5.847610 6.074974
v 8.749931 5.847610 6.065384
v 8.746564 5.847610 6.521105
v 8.652200 5.847610 6.485405
v 8.520791 5.847610 6.939579
v 8.435675 5.847610 6.886732
v 7.946786 5.847610 7.749674
v 7.863180 5.847610 7.694700
v 7.627136 5.847610 8.373699
v 7.538000 5.847610 8.327808
v 6.891595 5.847609 10.497684
v 6.809064 5.847609 10.397682
v 4.773220 5.847609 10.497684
v 4.873219 5.847609 10.397682
v 4.773219 5.847610 6.687023
v 4.873220 5.847610 6.587032
v 8.510610 5.847609 1.125486
v 8.033972 5.847609 0.034782
v 8.145119 5.847609 0.034437
v 8.145119 5.847609 0.034437
v 7.714042 4.922799 0.034782
v 4.873222 5.847609 0.034782
v 4.873222 4.922799 0.034782
v 4.773223 5.847609 0.034531
v 4.773221 5.847610 5.064791
v 4.773223 5.847609 0.034531
v 4.873220 5.847610 5.164803
v 4.068610 5.847610 5.064791
v 4.068610 5.847610 5.164803
v 4.773223 5.847609 0.034531
v 4.773221 4.771402 5.064791
v 4.773222 4.771401 0.034399
v 4.773221 5.847610 5.064791
v 4.773219 4.771402 6.686880
v 4.068608 5.847610 6.687023
v 4.773219 5.847610 6.687023
v 4.068608 4.771402 6.686880
v 4.773221 5.847610 5.064791
v 4.068610 4.771402 5.064791
v 4.773221 4.771402 5.064791
v 4.068610 5.847610 5.064791
v 4.068610 4.923820 5.164803
v 4.068610 5.847610 5.064791
v 4.068610 5.847610 5.164803
v 4.068610 4.771402 5.064791
v 4.068608 4.771402 6.686880
v 4.068608 4.923820 6.587032
v 4.068608 5.847610 6.687023
v 4.068608 5.847610 6.587032
v 4.068608 5.847610 6.587032
v 4.773219 5.847610 6.687023
v 4.068608 5.847610 6.687023
v 4.873220 5.847610 6.587032
v 4.873221 4.923819 4.364353
v 5.288524 5.562459 4.364414
v 5.288524 4.923819 4.364368
v 4.873221 5.562459 4.364344
v 5.288524 4.923816 3.635702
v 5.288524 5.562459 4.364414
v 5.288524 5.562456 3.635702
v 5.288524 4.923819 4.364368
v 5.288524 4.923816 3.635702
v 4.873221 5.562456 3.635702
v 4.873221 4.923816 3.635702
v 5.288524 5.562456 3.635702
v 4.873221 4.923816 3.635702
v 4.873221 5.562459 4.364344
v 4.873221 4.923819 4.364353
v 4.873221 5.562456 3.635702
v 5.288524 5.562456 3.635702
v 4.873221 5.562459 4.364344
v 4.873221 5.562456 3.635702
v 5.288524 5.562459 4.364414
v 4.873221 4.923819 3.340809
v 5.288524 5.562459 3.340870
v 5.288524 4.923819 3.340820
v 4.873221 5.562459 3.340796
v 5.288524 4.923816 2.612158
v 5.288524 5.562459 3.340870
v 5.288524 5.562456 2.612158
v 5.288524 4.923819 3.340820
v 5.288524 4.923816 2.612158
v 4.873221 5.562456 2.612158
v 4.873221 4.923816 2.612158
v 5.288524 5.562456 2.612158
v 4.873221 4.923816 2.612158
v 4.873221 5.562459 3.340796
v 4.873221 4.923819 3.340809
v 4.873221 5.562456 2.612158
v 5.288524 5.562456 2.612158
v 4.873221 5.562459 3.340796
v 4.873221 5.562456 2.612158
v 5.288524 5.562459 3.340870
v 4.873221 4.923819 2.317263
v 5.288524 5.562459 2.317324
v 5.288524 4.923819 2.317278
v 4.873221 5.562459 2.317253
v 5.288524 4.923816 1.588612
v 5.288524 5.562459 2.317324
v 5.288524 5.562456 1.588612
v 5.288524 4.923819 2.317278
v 5.288524 4.923816 1.588612
v 4.873221 5.562456 1.588612
v 4.873221 4.923816 1.588612
v 5.288524 5.562456 1.588612
v 4.873221 4.923816 1.588612
v 4.873221 5.562459 2.317253
v 4.873221 4.923819 2.317263
v 4.873221 5.562456 1.588612
v 5.288524 5.562456 1.588612
v 4.873221 5.562459 2.317253
v 4.873221 5.562456 1.588612
v 5.288524 5.562459 2.317324
v 4.873221 4.923819 1.293716
v 5.288524 5.562459 1.293779
v 5.288524 4.923819 1.293732
v 4.873221 5.562459 1.293707
v 5.288525 4.923816 0.565067
v 5.288524 5.562459 1.293779
v 5.288525 5.562456 0.565067
v 5.288524 4.923819 1.293732
v 5.288525 4.923816 0.565067
v 4.873222 5.562456 0.565067
v 4.873222 4.923816 0.565067
v 5.288525 5.562456 0.565067
v 4.873222 4.923816 0.565067
v 4.873221 5.562459 1.293707
v 4.873221 4.923819 1.293716
v 4.873222 5.562456 0.565067
v 5.288525 5.562456 0.565067
v 4.873221 5.562459 1.293707
v 4.873222 5.562456 0.565067
v 5.288524 5.562459 1.293779
v 8.143588 5.847600 0.060762
v 7.819245 4.768807 0.060678
v 7.677725 4.768808 0.031794
v 8.145119 5.847609 0.034437
v 8.145119 5.847600 0.034483
v 7.725376 4.768808 0.031794
v 7.773028 4.768808 0.031794
v 7.820691 4.771401 0.034353
v 8.100779 5.847600 -0.483843
v 7.981965 4.768807 -1.106909
v 7.718773 4.768807 -0.483923
v 8.377018 5.847600 -1.106833
v 8.615456 5.847600 -1.808203
v 8.209169 4.768807 -1.808283
v 8.616041 5.847600 -2.587938
v 8.209739 4.768807 -2.588018
v 8.378685 5.847600 -3.446058
v 7.983578 4.768807 -3.446138
v 7.958676 5.342825 -4.096880
v 7.412388 5.342826 -6.049314
v 7.412406 4.768807 -6.049393
v 7.239176 5.342826 -6.494125
v 7.239176 4.768807 -6.494125
v 7.014490 5.342826 -6.840881
v 7.014490 4.768807 -6.840881
v 8.100779 5.847600 -0.483843
v 7.819245 4.768807 0.060678
v 8.143588 5.847600 0.060762
v 7.718773 4.768807 -0.483923
v 4.946402 5.847598 -6.668711
v 5.205781 4.768807 -7.019045
v 5.205769 5.847598 -7.018965
v 4.946425 4.768807 -6.668791
v 4.789412 5.847598 -6.176386
v 4.789416 4.768807 -6.176464
v 4.773243 5.847600 -5.542036
v 4.773264 4.768807 -5.542116
v 4.773225 4.768808 0.031794
v 4.773223 5.847609 0.034531
v 4.773218 5.847600 0.034525
v 4.773222 4.768808 0.031794
v 4.773222 4.768808 0.031794
v 4.773222 4.771401 0.034399
v 5.567580 4.768807 -7.227209
v 5.205769 5.847598 -7.018965
v 5.205781 4.768807 -7.019045
v 5.567570 5.342826 -7.227175
v 6.031679 4.768807 -7.293314
v 6.031679 5.342826 -7.293314
v 6.410725 4.768807 -7.240496
v 6.410725 5.342826 -7.240496
v 6.738374 4.768807 -7.089674
v 6.738374 5.342826 -7.089674
v 7.014490 4.768807 -6.840881
v 7.014490 5.342826 -6.840881
v 8.145119 5.847600 0.034483
v 8.021748 5.847600 0.016775
v 8.143588 5.847600 0.060762
v 8.033972 5.847600 0.034782
v 8.027345 5.847600 -0.555201
v 8.143588 5.847600 0.060762
v 8.021748 5.847600 0.016775
v 8.100779 5.847600 -0.483843
v 8.287270 5.847600 -1.154505
v 8.377018 5.847600 -1.106833
v 8.515156 5.847600 -1.824804
v 8.615456 5.847600 -1.808203
v 8.515730 5.847600 -2.574526
v 8.616041 5.847600 -2.587938
v 8.283433 5.847600 -3.414358
v 8.378685 5.847600 -3.446058
v 5.010360 5.847598 -6.612341
v 5.205769 5.847598 -7.018965
v 5.249347 5.847598 -6.935091
v 4.946402 5.847598 -6.668711
v 4.863174 5.847598 -6.150816
v 4.789412 5.847598 -6.176386
v 4.873265 5.847600 -5.536432
v 4.773243 5.847600 -5.542036
v 4.873222 5.847600 0.034782
v 4.773218 5.847600 0.034525
v 7.176163 5.342825 -6.437906
v 7.412388 5.342826 -6.049314
v 7.343609 5.342825 -6.007963
v 7.239176 5.342826 -6.494125
v 7.866254 5.342824 -4.062757
v 7.958676 5.342825 -4.096880
v 7.343609 5.342825 -6.007963
v 7.176163 5.342825 -6.437906
v 7.014490 5.342826 -6.840881
v 6.963761 5.342825 -6.765703
v 6.963761 5.342825 -6.765703
v 6.738374 5.342826 -7.089674
v 6.704196 5.342825 -6.999590
v 6.704196 5.342825 -6.999590
v 6.410725 5.342826 -7.240496
v 6.394177 5.342825 -7.142290
v 6.394177 5.342825 -7.142290
v 6.031679 5.342826 -7.293314
v 6.031778 5.342825 -7.192783
v 6.031778 5.342825 -7.192783
v 5.567570 5.342826 -7.227175
v 5.587090 5.342825 -7.129412
v 7.714042 4.922799 0.034782
v 8.145119 5.847600 0.034483
v 8.145119 5.847609 0.034437
v 8.033972 5.847600 0.034782
v 4.873222 5.847600 0.034782
v 4.773223 5.847609 0.034531
v 4.773218 5.847600 0.034525
v 4.873222 4.922799 0.034782
v 8.283433 5.847600 -3.414358
v 7.958676 5.342825 -4.096880
v 8.378685 5.847600 -3.446058
v 7.866254 5.342824 -4.062757
v 7.013629 -0.000000 -1.835627
v 7.161345 4.771403 -1.479013
v 7.013629 4.771403 -1.835630
v 7.161345 -0.000000 -1.479013
v 7.013632 4.771403 -1.122400
v 7.013632 -0.000000 -1.122400
v 6.300403 -0.000000 -1.835627
v 6.657017 4.771403 -1.983343
v 6.300403 4.771403 -1.835630
v 6.657017 -0.000000 -1.983343
v 7.013629 4.771403 -1.835630
v 7.013629 -0.000000 -1.835627
v 6.300402 4.771403 -1.122400
v 6.657017 -0.000000 -0.974684
v 6.300402 -0.000000 -1.122400
v 6.657017 4.771403 -0.974688
v 7.013632 -0.000000 -1.122400
v 7.013632 4.771403 -1.122400
v 6.300403 4.771403 -1.835630
v 6.152687 -0.000000 -1.479013
v 6.300403 -0.000000 -1.835627
v 6.152687 4.771403 -1.479013
v 6.300402 -0.000000 -1.122400
v 6.300402 4.771403 -1.122400
v 7.013627 0.000000 3.067667
v 7.161344 4.771402 3.424280
v 7.013627 4.771402 3.067667
v 7.161344 0.000000 3.424280
v 7.013630 4.771403 3.780895
v 7.013630 0.000001 3.780895
v 6.300402 0.000000 3.067667
v 6.657017 4.771402 2.919952
v 6.300402 4.771402 3.067667
v 6.657017 0.000000 2.919952
v 7.013627 4.771402 3.067667
v 7.013627 0.000000 3.067667
v 6.300402 4.771403 3.780895
v 6.657017 0.000001 3.928610
v 6.300402 0.000001 3.780895
v 6.657017 4.771403 3.928606
v 7.013630 0.000001 3.780895
v 7.013630 4.771403 3.780895
v 6.300402 4.771402 3.067667
v 6.152687 0.000000 3.424280
v 6.300402 0.000000 3.067667
v 6.152687 4.771402 3.424280
v 6.300402 0.000001 3.780895
v 6.300402 4.771403 3.780895
v 6.656778 0.000000 8.749001
v 6.745472 4.771403 8.963123
v 6.656778 4.771403 8.749001
v 6.745472 0.000000 8.963123
v 6.656780 4.771403 9.177250
v 6.656780 0.000001 9.177250
v 6.228530 0.000000 8.749001
v 6.442654 4.771403 8.660309
v 6.228530 4.771403 8.749001
v 6.442654 0.000000 8.660305
v 6.656778 4.771403 8.749001
v 6.656778 0.000000 8.749001
v 6.228530 4.771403 9.177250
v 6.442654 0.000001 9.265942
v 6.228530 0.000001 9.177250
v 6.442654 4.771403 9.265942
v 6.656780 0.000001 9.177250
v 6.656780 4.771403 9.177250
v 6.228530 4.771403 8.749001
v 6.139836 0.000000 8.963123
v 6.228530 0.000000 8.749001
v 6.139836 4.771403 8.963123
v 6.228530 0.000001 9.177250
v 6.228530 4.771403 9.177250
v 6.656782 -0.000002 -5.628130
v 6.745476 4.768807 -5.414003
v 6.656782 4.768807 -5.628134
v 6.745476 -0.000001 -5.414003
v 6.656784 4.768807 -5.199884
v 6.656784 -0.000001 -5.199884
v 6.228533 -0.000002 -5.628130
v 6.442657 4.768807 -5.716825
v 6.228533 4.768807 -5.628134
v 6.442657 -0.000002 -5.716825
v 6.656782 4.768807 -5.628134
v 6.656782 -0.000002 -5.628130
v 6.228533 4.768807 -5.199881
v 6.442657 -0.000001 -5.111185
v 6.228533 -0.000001 -5.199884
v 6.442657 4.768807 -5.111189
v 6.656784 -0.000001 -5.199884
v 6.656784 4.768807 -5.199884
v 6.228533 4.768807 -5.628134
v 6.139840 -0.000001 -5.414003
v 6.228533 -0.000002 -5.628130
v 6.139840 4.768807 -5.414003
v 6.228533 -0.000001 -5.199884
v 6.228533 4.768807 -5.199881
v -7.161353 4.771403 -1.479017
v -7.013637 -0.000000 -1.835627
v -7.013637 4.771403 -1.835634
v -7.161353 -0.000000 -1.479013
v -7.013639 4.771403 -1.122404
v -7.013639 -0.000000 -1.122400
v -6.657025 4.771403 -1.983347
v -6.300410 -0.000000 -1.835627
v -6.300410 4.771403 -1.835634
v -6.657025 -0.000000 -1.983343
v -7.013637 4.771403 -1.835634
v -7.013637 -0.000000 -1.835627
v -6.657025 -0.000000 -0.974684
v -6.300411 4.771403 -1.122404
v -6.300411 -0.000000 -1.122400
v -6.657025 4.771403 -0.974691
v -7.013639 -0.000000 -1.122400
v -7.013639 4.771403 -1.122404
v -6.152695 -0.000000 -1.479013
v -6.300410 4.771403 -1.835634
v -6.300410 -0.000000 -1.835627
v -6.152695 4.771403 -1.479017
v -6.300411 -0.000000 -1.122400
v -6.300411 4.771403 -1.122404
v -7.161355 4.771402 3.424276
v -7.013638 0.000000 3.067667
v -7.013638 4.771402 3.067663
v -7.161355 0.000000 3.424280
v -7.013640 4.771403 3.780891
v -7.013640 0.000001 3.780895
v -6.657025 4.771402 2.919949
v -6.300411 0.000000 3.067667
v -6.300411 4.771402 3.067663
v -6.657025 0.000000 2.919952
v -7.013638 4.771402 3.067663
v -7.013638 0.000000 3.067667
v -6.657025 0.000001 3.928610
v -6.300411 4.771403 3.780891
v -6.300411 0.000001 3.780895
v -6.657025 4.771403 3.928602
v -7.013640 0.000001 3.780895
v -7.013640 4.771403 3.780891
v -6.152697 0.000000 3.424280
v -6.300411 4.771402 3.067663
v -6.300411 0.000000 3.067667
v -6.152697 4.771402 3.424276
v -6.300411 0.000001 3.780895
v -6.300411 4.771403 3.780891
v -7.714049 4.922799 0.034781
v -8.425509 5.847609 1.178440
v -8.033455 5.847605 0.034781
v -8.136910 4.923818 1.178440
v -8.638523 5.847608 1.580154
v -8.349923 4.923818 1.580154
v -8.712865 5.847608 1.996181
v -8.424266 4.923818 1.996181
v -8.651993 5.847608 2.445896
v -8.363394 4.923818 2.445896
v -8.457637 5.847608 3.139503
v -8.169037 4.923818 3.139503
v -8.356143 5.847608 3.624849
v -8.067544 4.923818 3.624849
v -8.351118 5.847608 4.117821
v -8.062519 4.923818 4.117821
v -8.442883 5.847608 4.606232
v -8.154284 4.923818 4.606232
v -8.732800 5.847610 5.617090
v -8.444200 4.923820 5.617090
v -8.749943 5.847610 6.065380
v -8.461344 4.923820 6.065380
v -8.652211 5.847610 6.485401
v -8.363611 4.923820 6.485401
v -8.435687 5.847610 6.886728
v -8.147088 4.923820 6.886728
v -7.863192 5.847610 7.694696
v -7.574593 4.923820 7.694696
v -7.538012 5.847610 8.327808
v -7.249413 4.923820 8.327808
v -6.809075 5.847609 10.397682
v -6.520476 4.923819 10.397682
v -8.033455 5.847605 0.034781
v -4.873230 4.922799 0.034782
v -7.714049 4.922799 0.034781
v -4.873230 5.847609 0.034782
v -4.873230 5.847610 5.164803
v -4.873230 4.922799 0.034782
v -4.873230 5.847609 0.034782
v -4.873230 4.923820 5.164803
v -4.873231 5.847609 10.397682
v -6.520476 4.923819 10.397682
v -4.873231 4.923819 10.397682
v -6.809075 5.847609 10.397682
v -4.873231 5.847609 10.397682
v -4.873231 4.923820 6.587032
v -4.873232 5.847610 6.587032
v -4.873231 4.923819 10.397682
v -4.873232 5.847610 6.587032
v -4.068620 4.923820 6.587032
v -4.068620 5.847610 6.587032
v -4.873231 4.923820 6.587032
v -4.773231 4.771402 5.064791
v -4.068620 4.771402 6.686880
v -4.068618 4.771402 5.064791
v -4.773231 4.771402 6.686880
v -8.232191 4.771402 6.939426
v -7.658236 4.771402 7.749525
v -7.338498 4.771402 8.373528
v -6.603007 4.771402 10.497540
v -4.773231 4.771402 10.497540
v -8.457951 4.771402 6.520929
v -8.561783 4.771402 6.074778
v -8.543626 4.771402 5.601023
v -8.251737 4.771402 4.583017
v -8.162614 4.771402 4.108845
v -8.167439 4.771402 3.635525
v -4.773230 4.771401 0.034399
v -8.266283 4.771402 3.163080
v -8.461558 4.771402 2.466019
v -8.525455 4.771402 1.993870
v -8.445621 4.771402 1.547001
v -8.222013 4.771402 1.125340
v -7.820699 4.771401 0.034349
v -4.873230 4.923820 5.164803
v -4.068618 5.847610 5.164803
v -4.068618 4.923820 5.164803
v -4.873230 5.847610 5.164803
v -7.773036 4.768808 0.031794
v -4.773230 4.771401 0.034399
v -4.773230 4.768808 0.031794
v -7.820699 4.771401 0.034349
v -4.773230 4.768808 0.031794
v -7.725384 4.768808 0.031794
v -7.773036 4.768808 0.031794
v -4.773230 4.768808 0.031794
v -7.677733 4.768808 0.031794
v -4.773233 4.768808 0.031794
v -7.819252 4.768807 0.060675
v -7.819252 4.768807 0.060675
v -4.773271 4.768807 -5.542116
v -7.718781 4.768807 -0.483927
v -7.981972 4.768807 -1.106913
v -8.209177 4.768807 -1.808287
v -8.209746 4.768807 -2.588022
v -7.983585 4.768807 -3.446142
v -7.412410 4.768807 -6.049395
v -4.789422 4.768807 -6.176466
v -7.239180 4.768807 -6.494127
v -7.014495 4.768807 -6.840883
v -4.946431 4.768807 -6.668793
v -5.205785 4.768807 -7.019047
v -6.738379 4.768807 -7.089674
v -5.567585 4.768807 -7.227209
v -6.410731 4.768807 -7.240498
v -6.031683 4.768807 -7.293316
v -8.034502 5.847605 0.034781
v -7.702240 4.922034 0.016771
v -7.714049 4.922799 0.034781
v -8.021754 5.847600 0.016771
v -8.021754 5.847600 0.016771
v -7.648783 4.922034 -0.555204
v -7.702240 4.922034 0.016771
v -8.027349 5.847600 -0.555204
v -8.027349 5.847600 -0.555204
v -7.896452 4.922034 -1.154509
v -7.648783 4.922034 -0.555204
v -8.287278 5.847600 -1.154509
v -8.113591 4.922034 -1.824808
v -8.515164 5.847600 -1.824808
v -8.114139 4.922034 -2.574530
v -8.515738 5.847600 -2.574530
v -7.892796 4.922034 -3.414362
v -8.283441 5.847600 -3.414362
v -7.866260 5.342824 -4.062761
v -7.343613 5.342825 -6.007965
v -7.343613 4.922035 -6.007965
v -7.176166 4.922034 -6.437906
v -7.176166 5.342825 -6.437906
v -6.963766 4.922034 -6.765703
v -6.963766 5.342825 -6.765703
v -5.249352 4.922034 -6.935093
v -5.587096 5.342825 -7.129412
v -5.249352 5.847598 -6.935093
v -5.587096 4.922034 -7.129412
v -6.031783 5.342825 -7.192785
v -6.031783 4.922034 -7.192785
v -6.394183 5.342825 -7.142292
v -6.394183 4.922034 -7.142292
v -6.704201 5.342825 -6.999590
v -6.704201 4.922034 -6.999590
v -6.963766 5.342825 -6.765703
v -6.963766 4.922034 -6.765703
v -5.249352 5.847598 -6.935093
v -5.010365 4.922034 -6.612343
v -5.249352 4.922034 -6.935093
v -5.010365 5.847598 -6.612343
v -4.863180 4.922034 -6.150818
v -4.863180 5.847598 -6.150818
v -4.873271 4.922034 -5.536432
v -4.873271 5.847600 -5.536432
v -4.873271 5.847600 -5.536432
v -4.873230 4.922799 0.034782
v -4.873271 4.922034 -5.536432
v -4.873230 5.847600 0.034782
v 8.425502 5.847609 1.178444
v 7.714042 4.922799 0.034782
v 8.033972 5.847609 0.034782
v 8.136903 4.923818 1.178444
v 8.638515 5.847608 1.580158
v 8.349916 4.923818 1.580158
v 8.712857 5.847608 1.996185
v 8.424258 4.923818 1.996185
v 8.651985 5.847608 2.445900
v 8.363386 4.923818 2.445900
v 8.457629 5.847608 3.139507
v 8.169029 4.923818 3.139507
v 8.356132 5.847608 3.624853
v 8.067533 4.923818 3.624853
v 8.351108 5.847608 4.117825
v 8.062507 4.923818 4.117825
v 8.442872 5.847608 4.606236
v 8.154273 4.923818 4.606236
v 8.732788 5.847610 5.617094
v 8.444188 4.923820 5.617094
v 8.749931 5.847610 6.065384
v 8.461332 4.923820 6.065384
v 8.652200 5.847610 6.485405
v 8.363600 4.923820 6.485405
v 8.435675 5.847610 6.886732
v 8.147077 4.923820 6.886732
v 7.863180 5.847610 7.694700
v 7.574581 4.923820 7.694700
v 7.538000 5.847610 8.327808
v 7.249401 4.923820 8.327808
v 6.809064 5.847609 10.397682
v 6.520464 4.923819 10.397682
v 8.033972 5.847609 0.034782
v 4.873222 4.922799 0.034782
v 4.873222 5.847609 0.034782
v 7.714042 4.922799 0.034782
v 4.873220 5.847610 5.164803
v 4.873222 4.922799 0.034782
v 4.873220 4.923820 5.164803
v 4.873222 5.847609 0.034782
v 4.873219 5.847609 10.397682
v 6.520464 4.923819 10.397682
v 6.809064 5.847609 10.397682
v 4.873219 4.923819 10.397682
v 4.873219 5.847609 10.397682
v 4.873219 4.923820 6.587032
v 4.873219 4.923819 10.397682
v 4.873220 5.847610 6.587032
v 4.873220 5.847610 6.587032
v 4.068608 4.923820 6.587032
v 4.873219 4.923820 6.587032
v 4.068608 5.847610 6.587032
v 4.068608 4.771402 6.686880
v 4.773221 4.771402 5.064791
v 4.068610 4.771402 5.064791
v 4.773219 4.771402 6.686880
v 8.232181 4.771402 6.939430
v 7.658224 4.771402 7.749529
v 7.338487 4.771402 8.373528
v 6.602995 4.771402 10.497540
v 4.773219 4.771402 10.497540
v 8.457939 4.771402 6.520933
v 8.561771 4.771402 6.074781
v 8.543614 4.771402 5.601027
v 8.251725 4.771402 4.583021
v 8.162602 4.771402 4.108849
v 8.167427 4.771402 3.635529
v 4.773222 4.771401 0.034399
v 8.266275 4.771402 3.163084
v 8.461551 4.771402 2.466022
v 8.525447 4.771402 1.993874
v 8.445613 4.771402 1.547005
v 8.222005 4.771402 1.125343
v 7.820691 4.771401 0.034353
v 4.873220 4.923820 5.164803
v 4.068610 5.847610 5.164803
v 4.873220 5.847610 5.164803
v 4.068610 4.923820 5.164803
v 7.773028 4.768808 0.031794
v 4.773222 4.771401 0.034399
v 7.820691 4.771401 0.034353
v 4.773222 4.768808 0.031794
v 7.725376 4.768808 0.031794
v 4.773222 4.768808 0.031794
v 7.773028 4.768808 0.031794
v 4.773222 4.768808 0.031794
v 7.677725 4.768808 0.031794
v 4.773225 4.768808 0.031794
v 7.819245 4.768807 0.060678
v 7.819245 4.768807 0.060678
v 4.773264 4.768807 -5.542116
v 7.718773 4.768807 -0.483923
v 7.981965 4.768807 -1.106909
v 8.209169 4.768807 -1.808283
v 8.209739 4.768807 -2.588018
v 7.983578 4.768807 -3.446138
v 7.412406 4.768807 -6.049393
v 4.789416 4.768807 -6.176464
v 7.239176 4.768807 -6.494125
v 7.014490 4.768807 -6.840881
v 4.946425 4.768807 -6.668791
v 5.205781 4.768807 -7.019045
v 6.738374 4.768807 -7.089674
v 5.567580 4.768807 -7.227209
v 6.410725 4.768807 -7.240496
v 6.031679 4.768807 -7.293314
v 8.033972 5.847600 0.034782
v 7.702232 4.922034 0.016775
v 8.021748 5.847600 0.016775
v 7.714042 4.922799 0.034782
v 8.021748 5.847600 0.016775
v 7.648777 4.922034 -0.555201
v 8.027345 5.847600 -0.555201
v 7.702232 4.922034 0.016775
v 7.896445 4.922034 -1.154505
v 8.027345 5.847600 -0.555201
v 7.648777 4.922034 -0.555201
v 8.287270 5.847600 -1.154505
v 8.113584 4.922034 -1.824804
v 8.515156 5.847600 -1.824804
v 8.114131 4.922034 -2.574526
v 8.515730 5.847600 -2.574526
v 7.892789 4.922034 -3.414358
v 8.283433 5.847600 -3.414358
v 7.866254 5.342824 -4.062757
v 7.343609 5.342825 -6.007963
v 7.343609 4.922035 -6.007963
v 7.176163 4.922034 -6.437906
v 7.176163 5.342825 -6.437906
v 6.963761 4.922034 -6.765703
v 6.963761 5.342825 -6.765703
v 5.587090 5.342825 -7.129412
v 5.249347 4.922034 -6.935091
v 5.249347 5.847598 -6.935091
v 5.587090 4.922034 -7.129412
v 6.031778 5.342825 -7.192783
v 6.031778 4.922034 -7.192783
v 6.394177 5.342825 -7.142290
v 6.394177 4.922034 -7.142290
v 6.704196 5.342825 -6.999590
v 6.704196 4.922034 -6.999590
v 6.963761 5.342825 -6.765703
v 6.963761 4.922034 -6.765703
v 5.010360 4.922034 -6.612341
v 5.249347 5.847598 -6.935091
v 5.249347 4.922034 -6.935091
v 5.010360 5.847598 -6.612341
v 4.863174 4.922034 -6.150816
v 4.863174 5.847598 -6.150816
v 4.873265 4.922034 -5.536432
v 4.873265 5.847600 -5.536432
v 4.873265 5.847600 -5.536432
v 4.873222 4.922799 0.034782
v 4.873222 5.847600 0.034782
v 4.873265 4.922034 -5.536432
vn -0.0000 0.9991 -0.0424
vn -0.0003 1.0000 -0.0001
vn -0.0000 1.0000 -0.0000
vn -0.0002 1.0000 -0.0001
vn 0.0003 1.0000 -0.0001
vn 0.0002 1.0000 -0.0001
vn 0.0001 1.0000 -0.0001
vn 0.0001 1.0000 -0.0003
vn 0.0003 1.0000 -0.0000
vn 0.0003 1.0000 0.0001
vn -0.0000 1.0000 -0.0009
vn -0.0001 1.0000 -0.0001
vn -0.0001 1.0000 -0.0003
vn -0.0003 1.0000 -0.0000
vn -0.0003 1.0000 0.0001
vn -0.7915 0.5904 -0.1580
vn -0.6841 0.6369 -0.3554
vn 0.6841 0.6369 -0.3554
vn 0.7915 0.5904 -0.1580
vn -0.8056 -0.1696 -0.5677
vn -0.9138 -0.2450 -0.3241
vn -0.7959 -0.2133 -0.5666
vn -0.9187 -0.2463 -0.3087
vn -0.9657 -0.2590 -0.0210
vn -0.9657 -0.2590 -0.0199
vn -0.9467 -0.2539 0.1980
vn -0.9476 -0.2541 0.1937
vn -0.9398 -0.2520 0.2310
vn -0.9403 -0.2522 0.2285
vn -0.9608 -0.2576 0.1027
vn -0.9604 -0.2576 0.1060
vn -0.9625 -0.2581 -0.0834
vn -0.9623 -0.2580 -0.0861
vn -0.9419 -0.2526 -0.2213
vn -0.9412 -0.2523 -0.2247
vn -0.9550 -0.2561 -0.1499
vn -0.9541 -0.2559 -0.1559
vn -0.9616 -0.2579 0.0939
vn -0.9620 -0.2580 0.0899
vn -0.9046 -0.2426 0.3505
vn -0.9096 -0.2440 0.3363
vn -0.8257 -0.2215 0.5188
vn -0.8309 -0.2229 0.5098
vn -0.8305 -0.2228 0.5105
vn -0.8364 -0.2243 0.5001
vn -0.8945 -0.2400 0.3771
vn -0.8913 -0.2391 0.3852
vn -0.9160 -0.2457 0.3172
vn -0.9031 -0.2722 -0.3322
vn -0.9285 -0.3065 -0.2098
vn -0.9110 -0.2597 -0.3204
vn -0.9529 -0.2608 -0.1546
vn -0.0000 -0.0001 1.0000
vn 1.0000 -0.0000 -0.0000
vn 0.0031 0.0011 -1.0000
vn 0.3522 0.0266 -0.9356
vn -0.0025 -0.0000 -1.0000
vn 0.6564 0.0225 -0.7541
vn -0.0000 -0.0000 -1.0000
vn 0.0002 -0.0000 1.0000
vn 0.0001 -0.0000 1.0000
vn -1.0000 -0.0000 -0.0000
vn 0.1996 0.0599 0.9780
vn 0.9485 0.3057 -0.0828
vn 0.9181 0.3959 0.0201
vn 0.8419 0.5213 -0.1394
vn -0.9538 0.2994 0.0239
vn -0.0000 0.0024 -1.0000
vn -0.0209 -0.0048 -0.9998
vn -0.0544 -0.0163 -0.9984
vn -0.8200 -0.2965 0.4895
vn -0.8131 -0.3011 0.4982
vn -0.8840 -0.3227 0.3384
vn -0.8826 -0.3232 0.3413
vn -0.9268 -0.3462 0.1459
vn -0.9250 -0.3484 0.1519
vn -0.9288 -0.3498 -0.1221
vn -0.9293 -0.3471 -0.1263
vn -0.9025 -0.3342 -0.2716
vn -0.9169 -0.2969 -0.2667
vn -0.9169 -0.2813 -0.2832
vn -0.9559 -0.0178 -0.2931
vn -0.9572 -0.0000 -0.2895
vn -0.8901 -0.0000 -0.4557
vn -0.7607 -0.0000 -0.6491
vn -0.8983 -0.3209 -0.3001
vn -0.9372 -0.3175 -0.1445
vn -0.9266 -0.2933 -0.2353
vn -0.9550 -0.2871 -0.0751
vn 0.7205 -0.0001 -0.6934
vn 0.8902 -0.0000 -0.4556
vn 0.6754 0.0001 -0.7375
vn 0.9861 -0.0000 -0.1663
vn 0.9999 -0.0000 -0.0127
vn 0.7077 0.0019 -0.7065
vn 0.7688 -0.6395 -0.0002
vn -0.8754 -0.4834 -0.0000
vn -0.0000 0.7081 -0.7061
vn 0.4472 0.8945 -0.0000
vn 1.0000 -0.0000 -0.0001
vn 0.6549 0.0001 -0.7558
vn 0.3257 0.0001 -0.9455
vn 0.7011 0.0082 -0.7130
vn 0.3653 -0.0000 -0.9309
vn 0.0015 -0.0000 -1.0000
vn -0.2811 -0.0000 -0.9597
vn -0.5500 -0.0000 -0.8351
vn -0.7610 -0.0000 -0.6488
vn -0.7610 -0.0001 -0.6488
vn -0.0000 1.0000 -0.0003
vn -0.0001 1.0000 -0.0004
vn -0.0000 -1.0000 -0.0001
vn -0.0000 -1.0000 -0.0000
vn -0.0027 -0.0009 1.0000
vn -0.7901 -0.3606 0.4957
vn -0.0058 -0.0023 1.0000
vn -0.9072 -0.4128 -0.0813
vn 0.0025 -0.0000 1.0000
vn -0.0017 0.9535 -0.3015
vn -0.0024 0.4861 -0.8739
vn 0.1929 0.8306 -0.5225
vn 0.1925 0.8305 -0.5227
vn 0.1906 0.8299 -0.5243
vn 0.1763 0.8297 -0.5297
vn -0.7076 -0.0000 -0.7066
vn -0.7076 -0.0000 0.7066
vn 0.7066 -0.0000 -0.7076
vn -0.7066 -0.0000 -0.7076
vn 0.7066 -0.0000 0.7076
vn 0.7066 -0.0001 0.7076
vn -0.0000 -0.0000 1.0000
vn -0.7066 -0.0000 0.7076
vn 0.7076 -0.0000 -0.7066
vn 0.7076 -0.0000 0.7066
vn 0.8056 -0.1697 -0.5677
vn 0.7959 -0.2133 -0.5666
vn 0.9138 -0.2450 -0.3241
vn 0.9187 -0.2463 -0.3087
vn 0.9657 -0.2590 -0.0210
vn 0.9657 -0.2590 -0.0199
vn 0.9467 -0.2539 0.1980
vn 0.9476 -0.2541 0.1937
vn 0.9398 -0.2520 0.2310
vn 0.9403 -0.2522 0.2285
vn 0.9608 -0.2576 0.1027
vn 0.9604 -0.2576 0.1060
vn 0.9625 -0.2581 -0.0834
vn 0.9623 -0.2580 -0.0861
vn 0.9419 -0.2526 -0.2213
vn 0.9412 -0.2523 -0.2247
vn 0.9550 -0.2561 -0.1499
vn 0.9541 -0.2559 -0.1559
vn 0.9616 -0.2579 0.0939
vn 0.9620 -0.2580 0.0899
vn 0.9046 -0.2426 0.3505
vn 0.9096 -0.2440 0.3363
vn 0.8257 -0.2215 0.5188
vn 0.8309 -0.2229 0.5098
vn 0.8305 -0.2228 0.5105
vn 0.8364 -0.2243 0.5001
vn 0.8945 -0.2400 0.3771
vn 0.8913 -0.2391 0.3852
vn 0.9160 -0.2457 0.3172
vn 0.9529 -0.2608 -0.1546
vn 0.9285 -0.3065 -0.2098
vn 0.9110 -0.2597 -0.3204
vn 0.9031 -0.2722 -0.3322
vn -0.0031 0.0011 -1.0000
vn 0.0025 -0.0000 -1.0000
vn -0.3523 0.0266 -0.9355
vn -0.6563 0.0225 -0.7541
vn -0.0001 -0.0000 1.0000
vn -0.0002 -0.0000 1.0000
vn -0.9485 0.3057 -0.0828
vn -0.1996 0.0599 0.9780
vn -0.9181 0.3959 0.0202
vn -0.8796 0.4547 -0.1395
vn 0.9506 0.2987 0.0843
vn -0.0000 0.0025 -1.0000
vn 0.0209 -0.0048 -0.9998
vn 0.0545 -0.0164 -0.9984
vn 0.8200 -0.2965 0.4895
vn 0.8840 -0.3227 0.3384
vn 0.8131 -0.3012 0.4982
vn 0.8826 -0.3232 0.3413
vn 0.9268 -0.3462 0.1459
vn 0.9250 -0.3484 0.1519
vn 0.9288 -0.3498 -0.1221
vn 0.9293 -0.3471 -0.1263
vn 0.9025 -0.3342 -0.2716
vn 0.9169 -0.2969 -0.2667
vn 0.9169 -0.2813 -0.2832
vn 0.9559 -0.0178 -0.2931
vn 0.9572 -0.0000 -0.2895
vn 0.8901 -0.0000 -0.4557
vn 0.7607 -0.0000 -0.6491
vn 0.9550 -0.2871 -0.0751
vn 0.9372 -0.3175 -0.1445
vn 0.9266 -0.2934 -0.2353
vn 0.8983 -0.3209 -0.3001
vn -0.7205 -0.0000 -0.6934
vn -0.6754 -0.0000 -0.7375
vn -0.8902 -0.0000 -0.4556
vn -0.9861 -0.0000 -0.1663
vn -0.9999 -0.0000 -0.0127
vn -0.7077 0.0023 -0.7065
vn -0.7351 -0.6780 -0.0000
vn 0.8151 -0.5794 0.0001
vn -0.0000 0.7082 -0.7060
vn -0.4472 0.8945 -0.0000
vn -0.6549 -0.0000 -0.7557
vn -0.7011 0.0081 -0.7130
vn -0.3257 0.0001 -0.9455
vn -0.3653 -0.0000 -0.9309
vn -0.0015 -0.0000 -1.0000
vn 0.2811 -0.0000 -0.9597
vn 0.5500 -0.0000 -0.8351
vn 0.7610 0.0001 -0.6488
vn 0.7610 -0.0000 -0.6488
vn 0.9025 -0.4230 -0.0812
vn 0.7876 -0.3684 0.4939
vn 0.0016 -0.0005 1.0000
vn 0.0027 -0.0009 1.0000
vn 0.0026 0.5291 -0.8486
vn 0.0039 0.9716 -0.2366
vn -0.0025 -0.0000 1.0000
vn -0.1763 0.8297 -0.5297
vn -0.1786 0.8303 -0.5280
vn -0.1765 0.8298 -0.5295
vn -0.1929 0.8306 -0.5225
vn 0.7076 0.0001 -0.7066
vn 0.7066 -0.0003 0.7076
vn -0.7076 0.0002 -0.7066
vn 0.7076 0.0002 0.7066
vn 0.7066 0.0001 -0.7076
vn -0.7066 0.0001 0.7076
vn -0.7076 0.0001 -0.7066
vn -0.7076 -0.0001 0.7066
vn 0.8992 0.3106 0.3082
vn 0.8761 0.2797 0.3926
vn 0.8998 0.2979 0.3188
vn 0.8796 0.2748 0.3882
vn 0.9092 0.2841 0.3043
vn 0.9037 0.2823 0.3219
vn 0.9543 0.2981 0.0196
vn 0.9543 0.2981 0.0208
vn 0.9369 0.2927 -0.1911
vn 0.9360 0.2924 -0.1962
vn 0.9292 0.2903 -0.2286
vn 0.9299 0.2905 -0.2258
vn 0.9492 0.2965 -0.1051
vn 0.9496 0.2967 -0.1012
vn 0.9510 0.2971 0.0853
vn 0.9513 0.2972 0.0822
vn 0.9306 0.2907 0.2224
vn 0.9314 0.2910 0.2186
vn 0.9440 0.2949 0.1478
vn 0.9430 0.2946 0.1546
vn 0.9508 0.2970 -0.0886
vn 0.9504 0.2969 -0.0931
vn 0.9004 0.2813 -0.3318
vn 0.8948 0.2796 -0.3480
vn 0.8240 0.2574 -0.5047
vn 0.8182 0.2556 -0.5150
vn 0.8226 0.2570 -0.5073
vn 0.8291 0.2590 -0.4954
vn 0.8810 0.2752 -0.3847
vn 0.8846 0.2764 -0.3756
vn 0.9048 0.2827 -0.3186
vn -0.0000 -0.6231 0.7822
vn -0.0000 -0.7088 0.7054
vn -0.1046 -0.6801 0.7256
vn -0.0000 -0.7021 0.7121
vn 0.1222 0.9925 -0.0000
vn -0.0000 0.9934 0.1149
vn 0.1122 -0.9937 -0.0000
vn -0.0001 -0.9879 -0.1552
vn 0.8082 0.2800 0.5181
vn 0.8078 0.2799 0.5187
vn 0.7860 0.2713 0.5555
vn 0.7856 0.2712 0.5561
vn 0.9416 0.3250 0.0880
vn 0.9206 0.3420 0.1886
vn 0.9322 0.3613 0.0232
vn 0.9187 0.3752 0.1233
vn 0.8064 0.3505 -0.4764
vn 0.8718 0.3642 -0.3276
vn 0.7990 0.3556 -0.4849
vn 0.8688 0.3703 -0.3289
vn 0.9078 0.3906 -0.1527
vn 0.9077 0.3938 -0.1445
vn 0.9106 0.3951 0.1217
vn 0.9121 0.3930 0.1171
vn 0.9007 0.3528 0.2534
vn 0.8903 0.3757 0.2574
vn 0.9052 0.3386 0.2568
vn 0.9573 0.0170 0.2885
vn 0.9582 -0.0000 0.2860
vn 0.8901 -0.0000 0.4557
vn 0.7608 -0.0000 0.6490
vn -0.7029 -0.0242 0.7109
vn -0.3664 -0.0000 0.9304
vn -0.6549 -0.0000 0.7557
vn -0.3258 -0.0000 0.9455
vn -0.0016 -0.0000 1.0000
vn 0.2811 -0.0000 0.9597
vn 0.5500 -0.0000 0.8351
vn 0.7609 -0.0000 0.6488
vn -0.6754 -0.0000 0.7375
vn -0.8902 -0.0000 0.4556
vn -0.7231 -0.0000 0.6908
vn -0.9893 -0.0000 0.1456
vn -0.9999 -0.0000 -0.0164
vn -0.8992 0.3111 0.3078
vn -0.8998 0.2982 0.3186
vn -0.8761 0.2798 0.3926
vn -0.8796 0.2748 0.3882
vn -0.9092 0.2841 0.3043
vn -0.9037 0.2823 0.3219
vn -0.9543 0.2981 0.0196
vn -0.9543 0.2981 0.0208
vn -0.9369 0.2927 -0.1911
vn -0.9360 0.2924 -0.1962
vn -0.9292 0.2903 -0.2286
vn -0.9299 0.2905 -0.2258
vn -0.9492 0.2965 -0.1051
vn -0.9496 0.2967 -0.1013
vn -0.9510 0.2971 0.0853
vn -0.9513 0.2972 0.0822
vn -0.9306 0.2907 0.2224
vn -0.9314 0.2910 0.2186
vn -0.9440 0.2949 0.1478
vn -0.9430 0.2946 0.1546
vn -0.9508 0.2970 -0.0886
vn -0.9504 0.2969 -0.0931
vn -0.9004 0.2813 -0.3318
vn -0.8948 0.2796 -0.3480
vn -0.8240 0.2574 -0.5047
vn -0.8182 0.2556 -0.5150
vn -0.8226 0.2570 -0.5073
vn -0.8291 0.2590 -0.4954
vn -0.8810 0.2752 -0.3848
vn -0.8846 0.2764 -0.3756
vn -0.9048 0.2827 -0.3186
vn -0.0000 -0.7026 0.7116
vn 0.1046 -0.6806 0.7251
vn -0.1222 0.9925 -0.0000
vn -0.1122 -0.9937 -0.0000
vn -0.0000 -0.9879 -0.1552
vn -0.7956 0.2746 0.5400
vn -0.8081 0.2795 0.5186
vn -0.7958 0.2747 0.5397
vn -0.8083 0.2796 0.5182
vn -0.9187 0.3752 0.1233
vn -0.9206 0.3420 0.1886
vn -0.9322 0.3613 0.0232
vn -0.9416 0.3250 0.0880
vn -0.8064 0.3505 -0.4764
vn -0.7990 0.3556 -0.4849
vn -0.8718 0.3642 -0.3276
vn -0.8688 0.3703 -0.3289
vn -0.9078 0.3906 -0.1527
vn -0.9077 0.3938 -0.1445
vn -0.9106 0.3951 0.1217
vn -0.9121 0.3929 0.1171
vn -0.9007 0.3528 0.2534
vn -0.8903 0.3757 0.2574
vn -0.9052 0.3386 0.2568
vn -0.9573 0.0170 0.2885
vn -0.9582 -0.0000 0.2860
vn -0.8901 -0.0000 0.4557
vn -0.7608 -0.0000 0.6490
vn 0.7029 -0.0242 0.7109
vn 0.6549 -0.0000 0.7557
vn 0.3664 -0.0000 0.9304
vn 0.3258 -0.0000 0.9455
vn 0.0016 -0.0000 1.0000
vn -0.2811 -0.0000 0.9597
vn -0.5500 -0.0000 0.8351
vn -0.7609 -0.0000 0.6488
vn 0.6754 -0.0000 0.7375
vn 0.7231 -0.0000 0.6908
vn 0.8902 -0.0000 0.4556
vn 0.9893 -0.0000 0.1456
vn 0.9999 -0.0000 -0.0164
vt 0.353545 3.694296
vt 0.406180 3.694295
vt 0.357764 3.723862
vt 0.406180 3.807466
vt 0.346388 3.732473
vt 0.339440 3.741496
vt 0.335984 3.751587
vt 0.335976 3.762874
vt 0.339498 3.775518
vt 0.355115 3.814564
vt 0.405114 3.816715
vt 0.358490 3.821037
vt 0.362772 3.825972
vt 0.402147 3.823663
vt 0.397330 3.828522
vt 0.368004 3.829493
vt 0.390522 3.831448
vt 0.374253 3.831641
vt 0.381558 3.832402
vt 0.554462 3.694295
vt 0.607097 3.694296
vt 0.602879 3.723862
vt 0.554463 3.807465
vt 0.614254 3.732473
vt 0.621203 3.741496
vt 0.624658 3.751587
vt 0.624667 3.762874
vt 0.621145 3.775518
vt 0.605528 3.814564
vt 0.555529 3.816715
vt 0.602153 3.821037
vt 0.597871 3.825972
vt 0.558496 3.823663
vt 0.563313 3.828522
vt 0.592639 3.829493
vt 0.570121 3.831448
vt 0.586390 3.831641
vt 0.579085 3.832402
vt 0.418421 3.595648
vt 0.418421 3.617059
vt 0.406180 3.595648
vt 0.406180 3.617059
vt 0.349868 3.578972
vt 0.341158 3.591136
vt 0.354815 3.569440
vt 0.365905 3.538279
vt 0.406180 3.538279
vt 0.337864 3.597178
vt 0.336377 3.603501
vt 0.336638 3.610250
vt 0.341049 3.625468
vt 0.342445 3.632822
vt 0.342368 3.640243
vt 0.406180 3.692789
vt 0.340824 3.647550
vt 0.337867 3.657992
vt 0.336941 3.664762
vt 0.338072 3.671026
vt 0.341313 3.677074
vt 0.352787 3.692791
vt 0.542221 3.595648
vt 0.554462 3.595648
vt 0.542221 3.617059
vt 0.554462 3.617059
vt 0.610774 3.578972
vt 0.619484 3.591136
vt 0.605827 3.569440
vt 0.594737 3.538279
vt 0.554462 3.538279
vt 0.622778 3.597178
vt 0.624265 3.603501
vt 0.624004 3.610250
vt 0.619594 3.625468
vt 0.618198 3.632821
vt 0.618274 3.640243
vt 0.554462 3.692789
vt 0.619818 3.647550
vt 0.622775 3.657992
vt 0.623701 3.664762
vt 0.622570 3.671026
vt 0.619330 3.677073
vt 0.607855 3.692790
vt 0.390915 3.832919
vt 0.398208 3.829785
vt 0.562435 3.829785
vt 0.569728 3.832919
vt -2.677873 0.430156
vt -2.671525 0.430156
vt -2.677871 0.446583
vt -2.671523 0.446583
vt -2.664797 0.430156
vt -2.664795 0.446583
vt -2.657689 0.430156
vt -2.657687 0.446583
vt -2.647192 0.446583
vt -2.647195 0.430156
vt -2.640082 0.430156
vt -2.640080 0.446583
vt -2.632957 0.430156
vt -2.632954 0.446583
vt -2.625818 0.430156
vt -2.625816 0.446583
vt -2.610490 0.446583
vt -2.610492 0.430156
vt -2.603360 0.430156
vt -2.603357 0.446583
vt -2.596643 0.430156
vt -2.596640 0.446583
vt -2.590342 0.430156
vt -2.590340 0.446583
vt -2.578144 0.446583
vt -2.578146 0.430156
vt -2.568752 0.430156
vt -2.568750 0.446583
vt -2.536775 0.430156
vt -2.536773 0.446583
vt -2.694298 0.430156
vt -2.694297 0.446583
vt 0.407701 0.430156
vt 0.407701 0.446583
vt 0.364649 0.430156
vt 0.360259 0.446583
vt 3.536775 0.430156
vt 3.594144 0.430156
vt 3.536773 0.446583
vt 3.594142 0.446583
vt 0.335627 3.677871
vt 0.332226 3.671523
vt 0.336922 3.677074
vt 0.333681 3.671026
vt 0.331011 3.664795
vt 0.332550 3.664762
vt 0.331983 3.657687
vt 0.333476 3.657992
vt 0.334955 3.647192
vt 0.336433 3.647550
vt 0.336458 3.640080
vt 0.337977 3.640243
vt 0.336531 3.632954
vt 0.338054 3.632822
vt 0.335176 3.625816
vt 0.336658 3.625468
vt 0.330734 3.610490
vt 0.332247 3.610250
vt 0.330458 3.603357
vt 0.331986 3.603501
vt 0.332037 3.596640
vt 0.333473 3.597178
vt 0.335472 3.590340
vt 0.336767 3.591136
vt 0.344205 3.578144
vt 0.345477 3.578972
vt 0.349068 3.568750
vt 0.350424 3.569440
vt 0.360259 3.536773
vt 0.361514 3.538279
vt 0.407701 3.536773
vt 0.407701 3.594142
vt 0.352009 3.694297
vt 0.406180 3.692790
vt 0.407702 3.694295
vt 0.407702 3.618565
vt 0.418421 3.618565
vt 3.618565 0.446583
vt 3.618565 0.430156
vt 3.694295 0.446583
vt 3.694297 0.430156
vt 0.418421 0.430156
vt 0.418421 0.446583
vt 0.581578 0.446583
vt 0.581578 0.430156
vt 0.592298 0.446583
vt 0.592298 0.430156
vt 3.617059 0.446583
vt 3.617059 0.432483
vt 3.595648 0.432483
vt 3.595648 0.446583
vt 0.418421 3.594142
vt 0.406180 0.442231
vt 0.399862 0.442231
vt 0.406180 0.432483
vt 0.399862 0.432483
vt -2.629110 0.432483
vt -2.629109 0.442231
vt -2.640080 0.432483
vt -2.640080 0.442230
vt 0.600138 0.442230
vt 0.593820 0.442230
vt 0.600138 0.432483
vt 0.593820 0.432483
vt 3.640080 0.442230
vt 3.629110 0.442231
vt 3.640080 0.432483
vt 3.629110 0.432483
vt 0.399862 3.629109
vt 0.406180 3.629110
vt 0.399862 3.640080
vt 0.406180 3.640080
vt -2.644519 0.432483
vt -2.644518 0.442231
vt -2.655489 0.432483
vt -2.655489 0.442230
vt 3.655489 0.442230
vt 3.644520 0.442231
vt 3.655489 0.432483
vt 3.644519 0.432483
vt 0.399862 3.644518
vt 0.406180 3.644520
vt 0.399862 3.655489
vt 0.406180 3.655489
vt -2.659929 0.432483
vt -2.659928 0.442231
vt -2.670898 0.432483
vt -2.670898 0.442230
vt 3.670898 0.442230
vt 3.659929 0.442231
vt 3.670898 0.432483
vt 3.659929 0.432483
vt 0.399862 3.659928
vt 0.406180 3.659929
vt 0.399862 3.670898
vt 0.406180 3.670898
vt -2.675338 0.432483
vt -2.675337 0.442231
vt -2.686308 0.432483
vt -2.686308 0.442230
vt 3.686308 0.442230
vt 3.675338 0.442231
vt 3.686308 0.432483
vt 3.675338 0.432483
vt 0.399862 3.675337
vt 0.406180 3.675338
vt 0.399862 3.686308
vt 0.406180 3.686308
vt -2.723201 0.441933
vt -2.708790 0.441933
vt -2.723200 0.464879
vt -2.694296 0.464879
vt -2.703959 0.440349
vt -2.699129 0.436423
vt -2.731400 0.441933
vt -2.731399 0.464879
vt -2.740779 0.441933
vt -2.740778 0.464879
vt -2.751337 0.464879
vt -2.751338 0.441933
vt -2.763076 0.464879
vt -2.763077 0.441933
vt -2.775995 0.464879
vt -2.775996 0.441933
vt -2.785793 0.457175
vt -2.815187 0.457175
vt -2.815188 0.441933
vt -2.821883 0.457175
vt -2.821883 0.441933
vt -2.827104 0.457175
vt -2.827104 0.441933
vt 0.345302 0.441933
vt 0.356133 0.441933
vt 0.345302 0.464879
vt 0.356133 0.464879
vt 3.829785 0.464879
vt 3.824512 0.464879
vt 3.829786 0.441933
vt 3.824513 0.441933
vt 3.817100 0.464879
vt 3.817101 0.441933
vt 3.807550 0.464879
vt 3.807551 0.441933
vt 3.708790 0.441933
vt 3.694295 0.464879
vt 3.703959 0.440349
vt 3.699129 0.436423
vt 0.601792 0.441933
vt 0.609085 0.441933
vt 0.601792 0.464879
vt 0.609085 0.457175
vt 0.618440 0.441933
vt 0.618440 0.457175
vt 0.626081 0.441933
vt 0.626081 0.457175
vt 0.632685 0.441933
vt 0.632685 0.457175
vt 0.638251 0.441933
vt 0.638251 0.457175
vt 0.352009 3.694296
vt 0.356133 3.723200
vt 0.345302 3.731399
vt 0.338079 3.740778
vt 0.334463 3.751337
vt 0.334455 3.763076
vt 0.338054 3.775995
vt 0.403436 3.824512
vt 0.406601 3.817100
vt 0.407702 3.807550
vt 0.353729 3.815187
vt 0.357220 3.821883
vt 0.343402 3.785279
vt 0.341973 3.785793
vt 0.361749 3.827104
vt 0.367315 3.830849
vt 0.373919 3.833120
vt 0.381560 3.833915
vt 0.353545 0.464879
vt 0.352009 0.464879
vt 0.353545 0.446583
vt 0.352009 0.446583
vt 0.406180 0.446583
vt 0.407702 0.446583
vt 0.406180 0.464879
vt 0.407702 0.464879
vt -2.563099 0.430156
vt -2.563099 0.357328
vt -2.559876 0.430156
vt -2.559876 0.357328
vt -2.556652 0.430156
vt -2.556652 0.357328
vt 0.614440 0.430156
vt 0.614440 0.357328
vt 0.617697 0.430156
vt 0.617697 0.357328
vt 0.620955 0.430156
vt 0.620955 0.357328
vt 0.385560 0.357328
vt 0.385560 0.430156
vt 0.382303 0.357328
vt 0.382303 0.430156
vt 0.379045 0.357328
vt 0.379045 0.430156
vt 3.563099 0.357328
vt 3.563099 0.430156
vt 3.559876 0.357328
vt 3.559876 0.430156
vt 3.556652 0.357328
vt 3.556652 0.430156
vt -2.808846 0.441933
vt -2.808846 0.357328
vt -2.805622 0.441933
vt -2.805622 0.357328
vt -2.802399 0.441933
vt -2.802399 0.357328
vt 0.614439 0.441933
vt 0.614439 0.357328
vt 0.617697 0.441933
vt 0.620954 0.441933
vt 0.620954 0.357328
vt 0.385561 0.357328
vt 0.385561 0.441933
vt 0.382303 0.441933
vt 0.379046 0.357328
vt 0.379046 0.441933
vt 3.808846 0.357328
vt 3.808846 0.441933
vt 3.805622 0.357328
vt 3.805622 0.441933
vt 3.802399 0.357328
vt 3.802399 0.441933
vt 3.677873 0.430156
vt 3.677871 0.446583
vt 3.671525 0.430156
vt 3.671523 0.446583
vt 3.664797 0.430156
vt 3.664795 0.446583
vt 3.657689 0.430156
vt 3.657686 0.446583
vt 3.647192 0.446583
vt 3.647195 0.430156
vt 3.640082 0.430156
vt 3.640080 0.446583
vt 3.632957 0.430156
vt 3.632954 0.446583
vt 3.625818 0.430156
vt 3.625816 0.446583
vt 3.610490 0.446583
vt 3.610492 0.430156
vt 3.603359 0.430156
vt 3.603357 0.446583
vt 3.596643 0.430156
vt 3.596640 0.446583
vt 3.590342 0.430156
vt 3.590340 0.446583
vt 3.578144 0.446583
vt 3.578146 0.430156
vt 3.568752 0.430156
vt 3.568749 0.446583
vt 3.694297 0.446583
vt 3.694298 0.430156
vt 0.600383 0.446583
vt 0.552940 0.446583
vt 0.595992 0.430156
vt 0.552940 0.430156
vt -2.594142 0.446583
vt -2.594144 0.430156
vt 0.625015 3.677871
vt 0.623720 3.677073
vt 0.628417 3.671523
vt 0.626961 3.671026
vt 0.629632 3.664795
vt 0.628092 3.664762
vt 0.628659 3.657686
vt 0.627166 3.657992
vt 0.625688 3.647192
vt 0.624209 3.647550
vt 0.624185 3.640080
vt 0.622665 3.640243
vt 0.624111 3.632954
vt 0.622588 3.632821
vt 0.625466 3.625816
vt 0.623984 3.625468
vt 0.629908 3.610490
vt 0.628395 3.610250
vt 0.630184 3.603357
vt 0.628656 3.603501
vt 0.628605 3.596640
vt 0.627169 3.597178
vt 0.625170 3.590340
vt 0.623875 3.591136
vt 0.616437 3.578144
vt 0.615165 3.578972
vt 0.611574 3.568749
vt 0.610218 3.569440
vt 0.600383 3.536773
vt 0.599128 3.538279
vt 0.552940 3.536773
vt 0.552941 3.594142
vt 0.608633 3.694297
vt 0.552941 3.694295
vt 0.554462 3.692790
vt 0.552941 3.618565
vt 0.542221 3.618565
vt -2.694297 0.430156
vt -2.618565 0.430156
vt -2.694295 0.446583
vt -2.618565 0.446583
vt 0.552941 0.446583
vt 0.542221 0.446583
vt 0.552941 0.430156
vt 0.542221 0.430156
vt 0.447059 0.430156
vt 0.457779 0.430156
vt 0.447059 0.446583
vt 0.457779 0.446583
vt -2.617059 0.446583
vt -2.617059 0.432483
vt -2.595648 0.432483
vt -2.595648 0.446583
vt 0.542221 3.594142
vt 0.560780 0.432483
vt 0.560780 0.442231
vt 0.554462 0.432483
vt 0.554462 0.442231
vt 3.629109 0.442231
vt 0.445538 0.432483
vt 0.445538 0.442230
vt 0.439220 0.432483
vt 0.439220 0.442230
vt -2.629110 0.442231
vt 0.554462 3.640080
vt 0.554462 3.629110
vt 0.560780 3.640080
vt 0.560780 3.629109
vt 3.644518 0.442231
vt -2.644520 0.442231
vt 0.554462 3.655489
vt 0.554462 3.644520
vt 0.560780 3.655489
vt 0.560780 3.644518
vt 3.659928 0.442231
vt 0.439219 0.432483
vt 0.439219 0.442230
vt -2.659929 0.442231
vt 0.554462 3.670898
vt 0.554462 3.659929
vt 0.560781 3.670898
vt 0.560780 3.659928
vt 0.560781 0.432483
vt 0.560781 0.442231
vt 3.675337 0.442231
vt -2.675338 0.442231
vt 0.554462 3.686308
vt 0.554462 3.675338
vt 0.560781 3.686308
vt 0.560781 3.675337
vt 3.723201 0.441933
vt 3.723200 0.464879
vt 3.694296 0.464879
vt 3.731400 0.441933
vt 3.740779 0.441933
vt 3.731399 0.464879
vt 3.740778 0.464879
vt 3.751337 0.464879
vt 3.751338 0.441933
vt 3.763076 0.464879
vt 3.763077 0.441933
vt 3.775995 0.464879
vt 3.775996 0.441933
vt 3.785793 0.457175
vt 3.815187 0.457175
vt 3.815188 0.441933
vt 3.821883 0.457175
vt 3.821883 0.441933
vt 3.827104 0.457175
vt 3.827104 0.441933
vt 0.604510 0.464879
vt 0.604510 0.441933
vt 0.615340 0.464879
vt 0.615341 0.441933
vt -2.829785 0.464879
vt -2.829786 0.441933
vt -2.824512 0.464879
vt -2.824513 0.441933
vt -2.817100 0.464879
vt -2.817101 0.441933
vt -2.807550 0.464879
vt -2.807551 0.441933
vt -2.694295 0.464879
vt 0.437565 0.441933
vt 0.437565 0.464879
vt 0.430272 0.441933
vt 0.430272 0.457175
vt 0.420917 0.441933
vt 0.420917 0.457175
vt 0.413276 0.441933
vt 0.413276 0.457175
vt 0.406672 0.441933
vt 0.406672 0.457175
vt 0.401106 0.441933
vt 0.401106 0.457175
vt 0.604510 3.723200
vt 0.608633 3.694296
vt 0.615340 3.731399
vt 0.622564 3.740778
vt 0.626179 3.751337
vt 0.626188 3.763076
vt 0.622589 3.775995
vt 0.557207 3.824512
vt 0.554042 3.817100
vt 0.552941 3.807550
vt 0.606914 3.815187
vt 0.603423 3.821883
vt 0.618670 3.785793
vt 0.617240 3.785279
vt 0.598894 3.827104
vt 0.593328 3.830849
vt 0.586724 3.833120
vt 0.579083 3.833915
vt 0.608633 0.446583
vt 0.608633 0.464879
vt 0.607097 0.446583
vt 0.607097 0.464879
vt 0.552941 0.464879
vt 0.554462 0.464879
vt 0.554462 0.446583
vt 3.691530 0.430156
vt 3.686162 0.430156
vt 3.691530 0.357328
vt 3.686162 0.357328
vt 3.680793 0.430156
vt 3.680793 0.357328
vt 0.408611 0.430156
vt 0.403185 0.430156
vt 0.408611 0.357328
vt 0.403185 0.357328
vt 0.397760 0.430156
vt 0.397760 0.357328
vt 0.591389 0.357328
vt 0.596815 0.357328
vt 0.591389 0.430156
vt 0.596815 0.430156
vt 0.602240 0.357328
vt 0.602240 0.430156
vt -2.691530 0.357328
vt -2.686162 0.357328
vt -2.691530 0.430156
vt -2.686162 0.430156
vt -2.680793 0.357328
vt -2.680793 0.430156
vt 3.633576 0.430156
vt 3.628208 0.430156
vt 3.633576 0.357328
vt 3.628208 0.357328
vt 3.622839 0.430156
vt 3.622839 0.357328
vt -2.633576 0.357328
vt -2.628208 0.357328
vt -2.633576 0.430156
vt -2.628208 0.430156
vt -2.622839 0.357328
vt -2.622839 0.430156
vt 0.424919 0.430156
vt 0.421661 0.430156
vt 0.424919 0.357328
vt 0.421661 0.357328
vt 0.418403 0.430156
vt 0.418403 0.357328
vt 0.575081 0.357328
vt 0.578339 0.357328
vt 0.575081 0.430156
vt 0.578339 0.430156
vt 0.581597 0.357328
vt 0.581597 0.430156
vt 0.424918 0.441933
vt 0.421660 0.441933
vt 0.424918 0.357328
vt 0.421660 0.357328
vt 0.418403 0.441933
vt 0.575082 0.357328
vt 0.578340 0.357328
vt 0.575082 0.441933
vt 0.578340 0.441933
vt 0.581597 0.441933
vt 0.630747 0.430156
vt 0.630747 0.357328
vt 0.636172 0.430156
vt 0.636172 0.357328
vt 0.641598 0.430156
vt 0.641598 0.357328
vt 0.369253 0.357328
vt 0.369253 0.430156
vt 0.363828 0.357328
vt 0.363828 0.430156
vt 0.358402 0.357328
vt 0.358402 0.430156
vt -2.633577 0.430156
vt -2.633577 0.357328
vt 3.633577 0.357328
vt 3.633577 0.430156
vt 3.692791 0.446583
vt 3.677074 0.446583
vt 3.692791 0.432483
vt 3.677074 0.432483
vt 3.671026 0.446583
vt 3.671026 0.432483
vt 3.664762 0.446583
vt 3.664762 0.432483
vt 3.657992 0.446583
vt 3.657992 0.432483
vt 3.647550 0.446583
vt 3.647550 0.432483
vt 3.640243 0.446583
vt 3.640243 0.432483
vt 3.632822 0.446583
vt 3.632822 0.432483
vt 3.625468 0.446583
vt 3.625468 0.432483
vt 3.610250 0.446583
vt 3.610250 0.432483
vt 3.603501 0.446583
vt 3.603501 0.432483
vt 3.597178 0.446583
vt 3.597178 0.432483
vt 3.591136 0.446583
vt 3.591136 0.432483
vt 3.578972 0.446583
vt 3.578972 0.432483
vt 3.569440 0.446583
vt 3.569440 0.432483
vt 3.538279 0.446583
vt 3.538279 0.432483
vt -2.692790 0.446583
vt -2.692789 0.432483
vt 0.634095 0.432483
vt 0.593820 0.446583
vt 0.638486 0.446583
vt -2.538279 0.446583
vt -2.538279 0.432483
vt 0.581579 0.446583
vt 0.581579 0.432483
vt 0.581578 3.618565
vt 0.581579 3.594144
vt 0.592298 3.618565
vt 0.592299 3.594144
vt 0.660137 3.590342
vt 0.651405 3.578146
vt 0.646540 3.568752
vt 0.635351 3.536775
vt 0.592299 3.536775
vt 0.663571 3.596643
vt 0.665151 3.603360
vt 0.664875 3.610492
vt 0.660434 3.625818
vt 0.659078 3.632957
vt 0.659152 3.640082
vt 0.592298 3.694297
vt 0.660655 3.647195
vt 0.663626 3.657689
vt 0.664598 3.664797
vt 0.663384 3.671525
vt 0.659982 3.677873
vt 0.647991 3.694298
vt 0.418421 0.432483
vt 0.592298 0.436423
vt 0.647301 0.436423
vt 0.647991 0.430156
vt 0.647301 3.699129
vt 0.646612 3.703959
vt 0.592298 3.699129
vt 0.592298 3.703959
vt 0.645923 3.708790
vt 0.592298 3.708790
vt 0.643867 3.723201
vt 0.592299 3.807551
vt 0.654698 3.731400
vt 0.661921 3.740779
vt 0.665537 3.751338
vt 0.665546 3.763077
vt 0.661947 3.775996
vt 0.646272 3.815188
vt 0.593399 3.817101
vt 0.642780 3.821883
vt 0.638251 3.827104
vt 0.596564 3.824513
vt 0.601792 3.829786
vt 0.632685 3.830849
vt 0.609085 3.832920
vt 0.626081 3.833120
vt 0.618440 3.833915
vt 3.694296 0.446583
vt 3.723862 0.446583
vt 3.723862 0.464879
vt 0.642236 0.446583
vt 0.653612 0.446583
vt 0.642236 0.464879
vt 0.653612 0.464879
vt 3.732473 0.446583
vt 3.741496 0.446583
vt 3.732473 0.464879
vt 3.741496 0.464879
vt 3.751587 0.446583
vt 3.751587 0.464879
vt 3.762874 0.446583
vt 3.762874 0.464879
vt 3.775518 0.446583
vt 3.775518 0.464879
vt 3.785279 0.457174
vt 3.814564 0.457175
vt 3.814564 0.446583
vt 3.821037 0.446583
vt 3.821037 0.457175
vt 3.825972 0.446583
vt 3.825972 0.457175
vt 0.397330 0.464879
vt 0.390522 0.457175
vt 0.397330 0.446583
vt 0.390522 0.446583
vt 0.381558 0.457175
vt 0.381558 0.446583
vt 0.374253 0.457175
vt 0.374253 0.446583
vt 0.368004 0.457175
vt 0.368004 0.446583
vt 0.362772 0.457175
vt 0.362772 0.446583
vt -2.828522 0.446583
vt -2.823663 0.446583
vt -2.828522 0.464879
vt -2.823663 0.464879
vt -2.816715 0.446583
vt -2.816715 0.464879
vt -2.807466 0.446583
vt -2.807466 0.464879
vt -2.692790 0.432483
vt -2.677073 0.446583
vt -2.677073 0.432483
vt -2.671026 0.446583
vt -2.671026 0.432483
vt -2.664762 0.446583
vt -2.664762 0.432483
vt -2.657992 0.446583
vt -2.657992 0.432483
vt -2.647550 0.446583
vt -2.647550 0.432483
vt -2.640243 0.446583
vt -2.640243 0.432483
vt -2.632821 0.446583
vt -2.632821 0.432483
vt -2.625468 0.446583
vt -2.625468 0.432483
vt -2.610250 0.446583
vt -2.610250 0.432483
vt -2.603501 0.446583
vt -2.603501 0.432483
vt -2.597178 0.446583
vt -2.597178 0.432483
vt -2.591136 0.446583
vt -2.591136 0.432483
vt -2.578972 0.446583
vt -2.578972 0.432483
vt -2.569440 0.446583
vt -2.569440 0.432483
vt 3.692789 0.432483
vt 3.692790 0.446583
vt 0.400872 0.446583
vt 0.405263 0.432483
vt 0.445538 0.446583
vt 0.457779 0.432483
vt 0.457779 3.618565
vt 0.447059 3.618565
vt 0.457779 3.594144
vt 0.447059 3.594144
vt 0.379221 3.590342
vt 0.387953 3.578146
vt 0.392818 3.568752
vt 0.404008 3.536775
vt 0.447060 3.536775
vt 0.375786 3.596643
vt 0.374207 3.603359
vt 0.374483 3.610492
vt 0.378924 3.625818
vt 0.380280 3.632957
vt 0.380206 3.640082
vt 0.447059 3.694297
vt 0.378702 3.647195
vt 0.375731 3.657689
vt 0.374759 3.664797
vt 0.375974 3.671525
vt 0.379376 3.677873
vt 0.391367 3.694298
vt 0.542221 0.432483
vt 0.391367 0.430156
vt 0.392056 0.436423
vt 0.447059 0.436423
vt 0.392056 3.699129
vt 0.447059 3.699129
vt 0.392745 3.703959
vt 0.447059 3.703959
vt 0.393434 3.708790
vt 0.447059 3.708790
vt 0.395490 3.723201
vt 0.447058 3.807551
vt 0.384659 3.731400
vt 0.377436 3.740779
vt 0.373820 3.751338
vt 0.373811 3.763077
vt 0.377411 3.775996
vt 0.393085 3.815188
vt 0.445958 3.817101
vt 0.396577 3.821883
vt 0.401106 3.827104
vt 0.442793 3.824513
vt 0.437565 3.829786
vt 0.406672 3.830849
vt 0.430272 3.832920
vt 0.413276 3.833120
vt 0.420917 3.833915
vt -2.723862 0.464879
vt -2.723862 0.446583
vt -2.694296 0.446583
vt 0.385746 0.464879
vt 0.385746 0.446583
vt 0.397121 0.464879
vt 0.397121 0.446583
vt -2.732473 0.446583
vt -2.732473 0.464879
vt -2.741496 0.446583
vt -2.741496 0.464879
vt -2.751587 0.446583
vt -2.751587 0.464879
vt -2.762874 0.446583
vt -2.762874 0.464879
vt -2.775518 0.446583
vt -2.775518 0.464879
vt -2.785279 0.457174
vt -2.814564 0.457175
vt -2.814564 0.446583
vt -2.821037 0.446583
vt -2.821037 0.457175
vt -2.825972 0.446583
vt -2.825972 0.457175
vt 0.563313 0.464879
vt 0.563313 0.446583
vt 0.570121 0.457175
vt 0.570121 0.446583
vt 0.579085 0.457175
vt 0.579085 0.446583
vt 0.586390 0.457175
vt 0.586390 0.446583
vt 0.592639 0.457175
vt 0.592639 0.446583
vt 0.597871 0.457175
vt 0.597871 0.446583
vt 3.828522 0.446583
vt 3.828522 0.464879
vt 3.823663 0.446583
vt 3.823663 0.464879
vt 3.816715 0.446583
vt 3.816715 0.464879
vt 3.807465 0.446583
vt 3.807465 0.464879
s 1
g Litt_Deckhouse_A1_Side_Platforms_FlatMod_steel_deck_1
usemtl steel_deck_1
f 3/1/1 2/2/1 1/3/1
f 2/2/2 5/4/3 4/3/4
f 4/3/4 5/4/3 6/5/3
f 6/5/3 5/4/3 7/6/3
f 7/6/3 5/4/3 8/7/3
f 8/7/3 5/4/3 9/8/3
f 9/8/3 5/4/3 10/9/3
f 5/4/3 11/10/3 10/9/3
f 5/4/3 12/11/3 11/10/3
f 13/12/3 11/10/3 12/11/3
f 13/12/3 12/11/3 14/13/3
f 15/14/3 14/13/3 12/11/3
f 15/14/3 16/15/3 14/13/3
f 17/16/3 14/13/3 16/15/3
f 16/15/3 18/17/3 17/16/3
f 19/18/3 17/16/3 18/17/3
f 20/19/3 19/18/3 18/17/3
f 23/20/1 22/21/1 21/22/1
f 25/23/3 23/20/5 24/22/6
f 25/23/3 24/22/6 26/24/3
f 25/23/3 26/24/3 27/25/3
f 25/23/3 27/25/3 28/26/3
f 25/23/3 28/26/3 29/27/3
f 25/23/3 29/27/3 30/28/3
f 31/29/3 25/23/3 30/28/3
f 25/23/3 31/29/3 32/30/3
f 33/31/3 32/30/3 31/29/3
f 33/31/3 34/32/3 32/30/3
f 35/33/3 32/30/3 34/32/3
f 35/33/3 34/32/3 36/34/3
f 37/35/3 36/34/3 34/32/3
f 36/34/3 37/35/3 38/36/3
f 39/37/3 38/36/3 37/35/3
f 39/37/3 40/38/3 38/36/3
f 43/39/3 42/40/3 41/41/3
f 44/42/3 41/41/3 42/40/3
f 41/41/3 44/42/3 45/43/3
f 46/44/3 45/43/3 44/42/3
f 45/43/3 47/45/3 41/41/3
f 47/45/3 48/46/3 41/41/3
f 49/47/3 41/41/3 48/46/3
f 50/48/3 46/44/3 44/42/3
f 51/49/3 50/48/3 44/42/3
f 52/50/3 51/49/3 44/42/3
f 53/51/3 52/50/3 44/42/3
f 54/52/3 53/51/3 44/42/3
f 54/52/3 44/42/3 55/53/7
f 56/54/8 55/53/7 44/42/3
f 57/55/5 55/53/7 56/54/8
f 58/56/5 57/55/5 56/54/8
f 59/57/9 58/56/5 56/54/8
f 60/58/10 59/57/9 56/54/8
f 60/58/10 56/54/8 61/59/5
f 56/54/8 62/60/11 61/59/5
f 65/61/3 64/62/3 63/63/3
f 66/64/3 63/63/3 64/62/3
f 64/62/3 67/65/3 66/64/3
f 68/66/3 66/64/3 67/65/3
f 69/67/3 67/65/3 64/62/3
f 69/67/3 64/62/3 70/68/3
f 71/69/3 70/68/3 64/62/3
f 68/66/3 72/70/3 66/64/3
f 72/70/3 73/71/3 66/64/3
f 73/71/3 74/72/3 66/64/3
f 74/72/3 75/73/3 66/64/3
f 75/73/3 76/74/3 66/64/3
f 76/74/3 77/75/12 66/64/3
f 78/76/13 66/64/3 77/75/12
f 77/75/12 79/77/2 78/76/13
f 79/77/2 80/78/2 78/76/13
f 80/78/2 81/79/14 78/76/13
f 81/79/14 82/80/15 78/76/13
f 78/76/13 82/80/15 83/81/2
f 84/82/11 78/76/13 83/81/2
g Litt_Deckhouse_A1_Side_Platforms_FlatMod_steel_4
usemtl steel_4
f 87/17/16 86/15/16 85/83/16
f 90/84/17 89/83/17 88/15/17
f 93/85/18 92/34/18 91/86/18
f 96/36/19 95/86/19 94/34/19
f 99/87/20 98/88/21 97/89/22
f 100/90/23 97/89/22 98/88/21
f 98/88/21 101/91/24 100/90/23
f 102/92/25 100/90/23 101/91/24
f 101/91/24 103/93/26 102/92/25
f 104/94/27 102/92/25 103/93/26
f 104/94/27 103/93/26 105/95/28
f 106/96/29 105/95/28 103/93/26
f 106/96/29 107/97/30 105/95/28
f 108/98/31 105/95/28 107/97/30
f 107/97/30 109/99/32 108/98/31
f 110/100/33 108/98/31 109/99/32
f 109/99/32 111/101/34 110/100/33
f 112/102/35 110/100/33 111/101/34
f 112/102/35 111/101/34 113/103/36
f 114/104/37 113/103/36 111/101/34
f 114/104/37 115/105/38 113/103/36
f 116/106/39 113/103/36 115/105/38
f 115/105/38 117/107/40 116/106/39
f 118/108/41 116/106/39 117/107/40
f 117/107/40 119/109/42 118/108/41
f 120/110/43 118/108/41 119/109/42
f 120/110/43 119/109/42 121/111/44
f 122/112/45 121/111/44 119/109/42
f 122/112/45 123/113/46 121/111/44
f 124/114/47 121/111/44 123/113/46
f 123/113/46 125/115/48 124/114/47
f 126/116/48 124/114/47 125/115/48
f 129/117/49 128/87/50 127/118/51
f 130/89/52 127/118/51 128/87/50
f 133/119/53 132/120/53 131/121/53
f 134/122/53 131/121/53 132/120/53
f 137/123/54 136/124/54 135/125/54
f 138/126/54 135/125/54 136/124/54
f 141/127/3 140/128/3 139/129/3
f 142/130/3 139/129/3 140/128/3
f 140/128/3 143/131/3 142/130/3
f 144/132/3 142/130/3 143/131/3
f 143/131/3 145/133/3 144/132/3
f 146/134/3 144/132/3 145/133/3
f 145/133/3 147/135/3 146/134/3
f 148/136/3 146/134/3 147/135/3
f 147/135/3 149/137/3 148/136/3
f 150/138/3 148/136/3 149/137/3
f 149/137/3 151/139/3 150/138/3
f 152/140/3 150/138/3 151/139/3
f 151/139/3 153/141/3 152/140/3
f 154/142/3 152/140/3 153/141/3
f 153/141/3 155/143/3 154/142/3
f 156/144/3 154/142/3 155/143/3
f 155/143/3 157/145/3 156/144/3
f 158/146/3 156/144/3 157/145/3
f 157/145/3 159/147/3 158/146/3
f 160/148/3 158/146/3 159/147/3
f 159/147/3 161/149/3 160/148/3
f 162/150/3 160/148/3 161/149/3
f 161/149/3 163/151/3 162/150/3
f 164/152/3 162/150/3 163/151/3
f 163/151/3 165/153/3 164/152/3
f 166/154/3 164/152/3 165/153/3
f 165/153/3 167/155/3 166/154/3
f 168/156/3 166/154/3 167/155/3
f 167/155/3 169/157/3 168/156/3
f 170/47/3 168/156/3 169/157/3
f 169/157/3 171/158/3 170/47/3
f 172/41/3 170/47/3 171/158/3
f 175/159/3 174/127/3 173/60/3
f 139/129/3 173/60/3 174/127/3
f 173/60/55 177/1/55 176/159/55
f 178/160/56 180/161/57 179/2/58
f 182/161/3 178/160/3 181/162/3
f 183/42/3 181/162/3 178/160/3
f 181/162/3 183/42/3 184/163/3
f 185/40/3 184/163/3 183/42/3
f 188/164/54 187/165/54 186/166/54
f 189/167/54 186/166/54 187/165/54
f 192/168/53 191/169/53 190/119/53
f 193/120/53 190/119/53 191/169/53
f 196/170/59 195/171/59 194/172/59
f 197/173/59 194/172/59 195/171/59
f 200/174/54 199/175/54 198/164/54
f 201/165/54 198/164/54 199/175/54
f 201/165/54 199/175/54 202/124/54
f 203/176/54 202/124/54 199/175/54
f 202/124/54 203/176/54 204/126/54
f 205/177/54 204/126/54 203/176/54
f 208/41/3 207/158/3 206/39/3
f 209/178/3 206/39/3 207/158/3
f 212/179/60 211/180/61 210/181/61
f 213/182/53 210/181/61 211/180/61
f 216/183/62 215/184/62 214/185/62
f 217/186/62 214/185/62 215/184/62
f 220/187/59 219/188/59 218/189/59
f 221/190/59 218/189/59 219/188/59
f 224/191/54 223/192/54 222/193/54
f 225/194/54 222/193/54 223/192/54
f 228/195/3 227/196/3 226/197/3
f 229/198/3 226/197/3 227/196/3
f 232/179/60 231/180/61 230/181/61
f 233/182/53 230/181/61 231/180/61
f 236/199/62 235/200/62 234/201/62
f 237/202/62 234/201/62 235/200/62
f 240/187/59 239/188/59 238/189/59
f 241/190/59 238/189/59 239/188/59
f 244/203/54 243/204/54 242/205/54
f 245/206/54 242/205/54 243/204/54
f 248/207/3 247/208/3 246/209/3
f 249/210/3 246/209/3 247/208/3
f 252/179/60 251/180/61 250/181/61
f 253/182/53 250/181/61 251/180/61
f 256/211/62 255/212/62 254/213/62
f 257/214/62 254/213/62 255/212/62
f 260/187/59 259/188/59 258/189/59
f 261/190/59 258/189/59 259/188/59
f 264/215/54 263/216/54 262/217/54
f 265/218/54 262/217/54 263/216/54
f 268/219/3 267/220/3 266/221/3
f 269/222/3 266/221/3 267/220/3
f 272/179/60 271/180/61 270/181/61
f 273/182/53 270/181/61 271/180/61
f 276/223/62 275/224/62 274/225/62
f 277/226/62 274/225/62 275/224/62
f 280/187/59 279/188/59 278/189/59
f 281/190/59 278/189/59 279/188/59
f 284/227/54 283/228/54 282/229/54
f 285/230/54 282/229/54 283/228/54
f 288/231/3 287/232/3 286/233/3
f 289/234/3 286/233/3 287/232/3
f 292/235/63 291/236/64 290/237/65
f 291/236/64 293/118/66 290/237/65
f 294/238/67 290/237/65 293/118/66
f 291/236/64 295/239/68 293/118/66
f 295/239/68 296/240/69 293/118/66
f 296/240/69 297/117/70 293/118/66
f 300/241/71 299/242/72 298/243/73
f 301/244/74 298/243/73 299/242/72
f 301/244/74 302/245/75 298/243/73
f 303/246/76 298/243/73 302/245/75
f 302/245/75 304/247/77 303/246/76
f 305/248/78 303/246/76 304/247/77
f 304/247/77 306/249/79 305/248/78
f 307/250/80 305/248/78 306/249/79
f 307/250/80 306/249/79 308/251/81
f 308/251/81 309/252/82 307/250/80
f 310/253/83 307/250/80 309/252/82
f 309/252/82 311/254/84 310/253/83
f 312/255/84 310/253/83 311/254/84
f 311/254/84 313/256/85 312/255/84
f 314/257/85 312/255/84 313/256/85
f 317/258/86 316/259/87 315/260/88
f 318/261/89 315/260/88 316/259/87
f 321/262/90 320/263/91 319/264/92
f 322/265/91 319/264/92 320/263/91
f 320/263/91 323/266/93 322/265/91
f 324/267/93 322/265/91 323/266/93
f 323/266/93 325/268/94 324/267/93
f 326/269/94 324/267/93 325/268/94
f 326/269/94 325/268/94 327/270/95
f 328/166/96 327/270/95 325/268/94
f 328/166/96 325/268/94 329/271/97
f 330/272/98 327/270/95 328/166/96
f 331/273/99 330/272/98 328/166/96
f 328/166/96 332/167/100 331/273/99
f 335/274/101 334/275/102 333/276/103
f 336/277/104 333/276/103 334/275/102
f 334/275/102 337/278/105 336/277/104
f 338/279/105 336/277/104 337/278/105
f 337/278/105 339/280/106 338/279/105
f 340/281/106 338/279/105 339/280/106
f 339/280/106 341/282/107 340/281/106
f 342/283/107 340/281/106 341/282/107
f 341/282/107 343/284/108 342/283/107
f 344/285/109 342/283/107 343/284/108
f 347/1/110 346/3/111 345/286/112
f 348/287/113 345/286/112 346/3/111
f 351/3/3 350/5/3 349/287/3
f 352/288/3 349/287/3 350/5/3
f 350/5/3 353/6/3 352/288/3
f 354/289/3 352/288/3 353/6/3
f 353/6/3 355/7/3 354/289/3
f 356/290/3 354/289/3 355/7/3
f 355/7/3 357/8/3 356/290/3
f 358/291/3 356/290/3 357/8/3
f 357/8/3 359/9/3 358/291/3
f 360/292/3 358/291/3 359/9/3
f 363/15/3 362/14/3 361/84/3
f 364/293/3 361/84/3 362/14/3
f 362/14/3 365/11/3 364/293/3
f 366/294/3 364/293/3 365/11/3
f 365/11/3 367/4/3 366/294/3
f 368/295/3 366/294/3 367/4/3
f 367/4/3 369/2/3 368/295/3
f 370/161/3 368/295/3 369/2/3
f 373/10/3 372/12/3 371/296/3
f 374/297/3 371/296/3 372/12/3
f 376/10/3 371/296/3 375/298/3
f 377/299/3 375/298/3 371/296/3
f 374/297/3 379/12/3 378/300/3
f 380/13/3 378/300/3 379/12/3
f 378/300/3 382/13/3 381/301/3
f 383/16/3 381/301/3 382/13/3
f 381/301/3 385/16/3 384/302/3
f 386/18/3 384/302/3 385/16/3
f 384/302/3 388/18/3 387/303/3
f 389/19/3 387/303/3 388/18/3
f 387/303/3 391/19/3 390/83/3
f 392/17/3 390/83/3 391/19/3
f 395/304/114 394/305/115 393/306/116
f 396/307/117 393/306/116 394/305/115
f 399/308/118 398/309/119 397/310/118
f 400/311/120 397/310/118 398/309/119
f 403/298/121 402/299/122 401/9/123
f 404/292/124 401/9/123 402/299/122
f 407/312/125 406/313/125 405/314/62
f 408/315/62 405/314/62 406/313/125
f 405/314/62 408/315/62 409/316/126
f 410/317/126 409/316/126 408/315/62
f 413/318/127 412/319/127 411/320/59
f 414/321/59 411/320/59 412/319/127
f 411/320/59 414/321/59 415/322/128
f 416/323/128 415/322/128 414/321/59
f 419/324/129 418/325/130 417/326/131
f 420/327/131 417/326/131 418/325/130
f 417/326/131 420/327/131 421/328/132
f 422/329/132 421/328/132 420/327/131
f 425/330/133 424/331/133 423/332/54
f 426/333/54 423/332/54 424/331/133
f 423/332/54 426/333/54 427/334/134
f 428/335/134 427/334/134 426/333/54
f 431/336/125 430/337/125 429/338/62
f 432/339/62 429/338/62 430/337/125
f 429/338/62 432/339/62 433/340/126
f 434/341/126 433/340/126 432/339/62
f 437/342/127 436/343/127 435/344/59
f 438/321/59 435/344/59 436/343/127
f 435/344/59 438/321/59 439/345/128
f 440/346/128 439/345/128 438/321/59
f 443/347/129 442/348/130 441/326/131
f 444/349/131 441/326/131 442/348/130
f 441/326/131 444/349/131 445/350/132
f 446/351/132 445/350/132 444/349/131
f 449/352/133 448/353/133 447/354/54
f 450/355/54 447/354/54 448/353/133
f 447/354/54 450/355/54 451/356/134
f 452/357/134 451/356/134 450/355/54
f 455/358/135 454/359/136 453/360/137
f 456/361/138 453/360/137 454/359/136
f 453/360/137 456/361/138 457/362/139
f 458/363/140 457/362/139 456/361/138
f 457/362/139 458/363/140 459/364/141
f 460/365/142 459/364/141 458/363/140
f 460/365/142 461/366/143 459/364/141
f 462/367/144 459/364/141 461/366/143
f 462/367/144 461/366/143 463/368/145
f 464/369/146 463/368/145 461/366/143
f 463/368/145 464/369/146 465/370/147
f 466/371/148 465/370/147 464/369/146
f 465/370/147 466/371/148 467/372/149
f 468/373/150 467/372/149 466/371/148
f 468/373/150 469/374/151 467/372/149
f 470/375/152 467/372/149 469/374/151
f 470/375/152 469/374/151 471/376/153
f 472/377/154 471/376/153 469/374/151
f 471/376/153 472/377/154 473/378/155
f 474/379/156 473/378/155 472/377/154
f 473/378/155 474/379/156 475/380/157
f 476/381/158 475/380/157 474/379/156
f 476/381/158 477/382/159 475/380/157
f 478/383/160 475/380/157 477/382/159
f 478/383/160 477/382/159 479/384/161
f 480/385/162 479/384/161 477/382/159
f 479/384/161 480/385/162 481/123/163
f 482/125/163 481/123/163 480/385/162
f 485/359/164 484/358/165 483/386/166
f 486/387/167 483/386/166 484/358/165
f 489/388/53 488/389/53 487/390/53
f 490/391/53 487/390/53 488/389/53
f 493/392/62 492/393/62 491/116/62
f 494/115/62 491/116/62 492/393/62
f 497/394/3 496/395/3 495/396/3
f 498/397/3 495/396/3 496/395/3
f 495/396/3 498/397/3 499/398/3
f 500/399/3 499/398/3 498/397/3
f 499/398/3 500/399/3 501/400/3
f 502/401/3 501/400/3 500/399/3
f 501/400/3 502/401/3 503/402/3
f 504/403/3 503/402/3 502/401/3
f 503/402/3 504/403/3 505/404/3
f 506/405/3 505/404/3 504/403/3
f 505/404/3 506/405/3 507/406/3
f 508/407/3 507/406/3 506/405/3
f 507/406/3 508/407/3 509/408/3
f 510/409/3 509/408/3 508/407/3
f 509/408/3 510/409/3 511/410/3
f 512/411/3 511/410/3 510/409/3
f 511/410/3 512/411/3 513/412/3
f 514/413/3 513/412/3 512/411/3
f 513/412/3 514/413/3 515/414/3
f 516/415/3 515/414/3 514/413/3
f 515/414/3 516/415/3 517/416/3
f 518/417/3 517/416/3 516/415/3
f 517/416/3 518/417/3 519/418/3
f 520/419/3 519/418/3 518/417/3
f 519/418/3 520/419/3 521/420/3
f 522/421/3 521/420/3 520/419/3
f 521/420/3 522/421/3 523/422/3
f 524/423/3 523/422/3 522/421/3
f 523/422/3 524/423/3 525/424/3
f 526/69/3 525/424/3 524/423/3
f 525/424/3 526/69/3 527/425/3
f 528/62/3 527/425/3 526/69/3
f 531/426/3 530/82/3 529/394/3
f 496/395/3 529/394/3 530/82/3
f 533/21/168 530/82/168 532/426/168
f 536/427/169 534/428/170 535/20/171
f 538/427/3 537/429/3 534/428/3
f 539/64/3 534/428/3 537/429/3
f 537/429/3 540/430/3 539/64/3
f 541/63/3 539/64/3 540/430/3
f 544/431/62 543/432/62 542/433/62
f 545/434/62 542/433/62 543/432/62
f 548/435/53 547/436/53 546/437/53
f 549/438/53 546/437/53 547/436/53
f 552/439/59 551/440/59 550/441/59
f 553/442/59 550/441/59 551/440/59
f 556/443/62 555/434/62 554/444/62
f 557/432/62 554/444/62 555/434/62
f 557/432/62 558/393/62 554/444/62
f 559/445/62 554/444/62 558/393/62
f 558/393/62 560/392/62 559/445/62
f 561/446/62 559/445/62 560/392/62
f 564/447/3 563/425/3 562/61/3
f 565/62/3 562/61/3 563/425/3
f 568/448/53 567/449/172 566/450/172
f 569/451/173 566/450/172 567/449/172
f 572/191/54 571/452/54 570/193/54
f 573/194/54 570/193/54 571/452/54
f 576/453/59 575/454/59 574/455/59
f 577/456/59 574/455/59 575/454/59
f 580/183/62 579/457/62 578/185/62
f 581/186/62 578/185/62 579/457/62
f 584/458/3 583/459/3 582/460/3
f 585/461/3 582/460/3 583/459/3
f 588/448/53 587/449/172 586/450/172
f 589/451/173 586/450/172 587/449/172
f 592/203/54 591/462/54 590/205/54
f 593/206/54 590/205/54 591/462/54
f 596/453/59 595/454/59 594/455/59
f 597/456/59 594/455/59 595/454/59
f 600/199/62 599/463/62 598/201/62
f 601/202/62 598/201/62 599/463/62
f 604/464/3 603/465/3 602/466/3
f 605/467/3 602/466/3 603/465/3
f 608/448/53 607/449/172 606/450/172
f 609/451/173 606/450/172 607/449/172
f 612/215/54 611/468/54 610/217/54
f 613/218/54 610/217/54 611/468/54
f 616/453/59 615/454/59 614/469/59
f 617/470/59 614/469/59 615/454/59
f 620/211/62 619/471/62 618/213/62
f 621/214/62 618/213/62 619/471/62
f 624/472/3 623/473/3 622/474/3
f 625/475/3 622/474/3 623/473/3
f 628/476/53 627/477/172 626/450/172
f 629/451/173 626/450/172 627/477/172
f 632/227/54 631/478/54 630/229/54
f 633/230/54 630/229/54 631/478/54
f 636/453/59 635/454/59 634/469/59
f 637/470/59 634/469/59 635/454/59
f 640/223/62 639/479/62 638/225/62
f 641/226/62 638/225/62 639/479/62
f 644/480/3 643/481/3 642/482/3
f 645/483/3 642/482/3 643/481/3
f 648/270/174 647/484/175 646/485/176
f 648/270/174 646/485/176 649/386/177
f 650/486/178 649/386/177 646/485/176
f 651/272/179 648/270/174 649/386/177
f 652/273/180 651/272/179 649/386/177
f 653/387/181 652/273/180 649/386/177
f 656/487/182 655/488/183 654/489/184
f 657/490/185 654/489/184 655/488/183
f 657/490/185 655/488/183 658/491/186
f 659/492/187 658/491/186 655/488/183
f 658/491/186 659/492/187 660/493/188
f 661/494/189 660/493/188 659/492/187
f 660/493/188 661/494/189 662/495/190
f 663/496/191 662/495/190 661/494/189
f 662/495/190 663/496/191 664/497/192
f 664/497/192 663/496/191 665/498/193
f 666/499/194 665/498/193 663/496/191
f 665/498/193 666/499/194 667/500/195
f 668/501/195 667/500/195 666/499/194
f 667/500/195 668/501/195 669/502/196
f 670/503/196 669/502/196 668/501/195
f 673/504/197 672/505/198 671/506/199
f 674/507/200 671/506/199 672/505/198
f 677/508/201 676/509/202 675/510/203
f 678/511/203 675/510/203 676/509/202
f 675/510/203 678/511/203 679/512/204
f 680/513/204 679/512/204 678/511/203
f 679/512/204 680/513/204 681/514/205
f 682/515/205 681/514/205 680/513/204
f 682/515/205 683/236/206 681/514/205
f 684/433/207 681/514/205 683/236/206
f 681/514/205 684/433/207 685/516/208
f 683/236/206 686/239/209 684/433/207
f 686/239/209 687/240/210 684/433/207
f 688/431/62 684/433/207 687/240/210
f 691/517/211 690/518/212 689/519/213
f 692/520/214 689/519/213 690/518/212
f 689/519/213 692/520/214 693/521/215
f 694/522/215 693/521/215 692/520/214
f 693/521/215 694/522/215 695/523/216
f 696/524/216 695/523/216 694/522/215
f 695/523/216 696/524/216 697/525/217
f 698/526/217 697/525/217 696/524/216
f 697/525/217 698/526/217 699/527/218
f 700/528/219 699/527/218 698/526/217
f 703/529/113 702/22/3 701/530/113
f 704/21/3 701/530/113 702/22/3
f 707/22/3 706/529/3 705/24/3
f 708/531/3 705/24/3 706/529/3
f 705/24/3 708/531/3 709/25/3
f 710/532/3 709/25/3 708/531/3
f 709/25/3 710/532/3 711/26/3
f 712/533/3 711/26/3 710/532/3
f 711/26/3 712/533/3 713/27/3
f 714/534/3 713/27/3 712/533/3
f 713/27/3 714/534/3 715/28/3
f 716/535/3 715/28/3 714/534/3
f 719/34/3 718/85/3 717/33/3
f 720/536/3 717/33/3 718/85/3
f 717/33/3 720/536/3 721/30/3
f 722/537/3 721/30/3 720/536/3
f 721/30/3 722/537/3 723/23/3
f 724/538/3 723/23/3 722/537/3
f 723/23/3 724/538/3 725/20/3
f 726/427/3 725/20/3 724/538/3
f 729/29/3 728/539/3 727/31/3
f 730/540/3 727/31/3 728/539/3
f 732/541/3 728/539/3 731/542/3
f 733/29/3 731/542/3 728/539/3
f 730/540/3 735/543/3 734/31/3
f 736/32/3 734/31/3 735/543/3
f 735/543/3 738/544/3 737/32/3
f 739/35/3 737/32/3 738/544/3
f 738/544/3 741/545/3 740/35/3
f 742/37/3 740/35/3 741/545/3
f 741/545/3 744/546/3 743/37/3
f 745/38/3 743/37/3 744/546/3
f 744/546/3 747/86/3 746/38/3
f 748/36/3 746/38/3 747/86/3
f 751/547/220 750/548/221 749/549/222
f 752/550/223 749/549/222 750/548/221
f 755/551/224 754/435/225 753/552/226
f 756/553/226 753/552/226 754/435/225
f 759/535/227 758/541/228 757/28/229
f 760/542/230 757/28/229 758/541/228
f 763/554/231 762/555/54 761/556/133
f 764/557/54 761/556/133 762/555/54
f 762/555/54 765/558/134 764/557/54
f 766/559/134 764/557/54 765/558/134
f 769/560/128 768/561/59 767/562/128
f 770/563/59 767/562/128 768/561/59
f 768/561/59 771/564/127 770/563/59
f 772/565/127 770/563/59 771/564/127
f 775/566/132 774/567/131 773/568/132
f 776/569/131 773/568/132 774/567/131
f 774/567/131 777/570/129 776/569/131
f 778/571/232 776/569/131 777/570/129
f 781/572/233 780/573/62 779/574/125
f 782/575/62 779/574/125 780/573/62
f 780/573/62 783/576/126 782/575/62
f 784/577/126 782/575/62 783/576/126
f 787/578/133 786/579/54 785/580/133
f 788/581/54 785/580/133 786/579/54
f 786/579/54 789/582/134 788/581/54
f 790/583/134 788/581/54 789/582/134
f 793/560/128 792/561/59 791/562/128
f 794/563/59 791/562/128 792/561/59
f 792/561/59 795/564/127 794/563/59
f 796/565/127 794/563/59 795/564/127
f 799/566/132 798/567/131 797/568/132
f 800/569/131 797/568/132 798/567/131
f 798/567/131 801/570/129 800/569/131
f 802/571/129 800/569/131 801/570/129
f 805/584/233 804/585/62 803/586/125
f 806/587/62 803/586/125 804/585/62
f 804/585/62 807/588/126 806/587/62
f 808/589/126 806/587/62 807/588/126
f 811/331/133 810/333/54 809/330/133
f 812/332/54 809/330/133 810/333/54
f 810/333/54 813/335/134 812/332/54
f 814/334/134 812/332/54 813/335/134
f 817/590/128 816/591/59 815/592/128
f 818/593/59 815/592/128 816/591/59
f 816/591/59 819/594/127 818/593/59
f 820/595/127 818/593/59 819/594/127
f 823/596/132 822/597/131 821/598/132
f 824/599/131 821/598/132 822/597/131
f 822/597/131 825/600/129 824/599/131
f 826/601/129 824/599/131 825/600/129
f 829/313/125 828/315/62 827/312/125
f 830/314/62 827/312/125 828/315/62
f 828/315/62 831/317/126 830/314/62
f 832/316/126 830/314/62 831/317/126
f 835/353/133 834/355/54 833/352/133
f 836/354/54 833/352/133 834/355/54
f 834/355/54 837/357/134 836/354/54
f 838/356/234 836/354/54 837/357/134
f 841/602/128 840/603/59 839/604/128
f 842/605/59 839/604/128 840/603/59
f 840/603/59 843/606/127 842/605/59
f 844/595/235 842/605/59 843/606/127
f 847/607/236 846/608/131 845/609/132
f 848/610/131 845/609/132 846/608/131
f 846/608/131 849/600/129 848/610/131
f 850/611/129 848/610/131 849/600/129
f 853/337/125 852/339/62 851/336/125
f 854/338/62 851/336/125 852/339/62
f 852/339/62 855/341/126 854/338/62
f 856/340/126 854/338/62 855/341/126
f 859/574/125 858/572/237 857/575/62
f 860/573/62 857/575/62 858/572/237
f 857/575/62 860/573/62 861/577/238
f 862/576/126 861/577/238 860/573/62
f 865/612/127 864/613/127 863/614/59
f 866/615/59 863/614/59 864/613/127
f 863/614/59 866/615/59 867/616/128
f 868/617/128 867/616/128 866/615/59
f 871/618/129 870/619/129 869/620/131
f 872/621/131 869/620/131 870/619/129
f 869/620/131 872/621/131 873/622/132
f 874/623/132 873/622/132 872/621/131
f 877/556/133 876/554/133 875/557/54
f 878/555/54 875/557/54 876/554/133
f 875/557/54 878/555/54 879/559/134
f 880/558/134 879/559/134 878/555/54
f 883/624/125 882/625/125 881/587/62
f 884/585/62 881/587/62 882/625/125
f 881/587/62 884/585/62 885/589/126
f 886/588/126 885/589/126 884/585/62
f 889/612/127 888/613/127 887/614/59
f 890/615/59 887/614/59 888/613/127
f 887/614/59 890/615/59 891/616/128
f 892/617/128 891/616/128 890/615/59
f 895/618/129 894/619/129 893/620/131
f 896/621/131 893/620/131 894/619/129
f 893/620/131 896/621/131 897/622/132
f 898/623/132 897/622/132 896/621/131
f 901/626/133 900/627/133 899/581/54
f 902/579/54 899/581/54 900/627/133
f 899/581/54 902/579/54 903/583/134
f 904/582/134 903/583/134 902/579/54
g Litt_Deckhouse_A1_Side_Platforms_FlatMod_steel_3
usemtl steel_3
f 907/628/239 906/629/240 905/630/241
f 908/631/242 905/630/241 906/629/240
f 906/629/240 909/632/243 908/631/242
f 910/633/244 908/631/242 909/632/243
f 909/632/243 911/634/245 910/633/244
f 912/635/246 910/633/244 911/634/245
f 911/634/245 913/636/247 912/635/246
f 914/637/248 912/635/246 913/636/247
f 913/636/247 915/638/249 914/637/248
f 916/639/250 914/637/248 915/638/249
f 915/638/249 917/640/251 916/639/250
f 918/641/252 916/639/250 917/640/251
f 917/640/251 919/642/253 918/641/252
f 920/643/254 918/641/252 919/642/253
f 919/642/253 921/644/255 920/643/254
f 922/645/256 920/643/254 921/644/255
f 921/644/255 923/646/257 922/645/256
f 924/647/258 922/645/256 923/646/257
f 923/646/257 925/648/259 924/647/258
f 926/649/260 924/647/258 925/648/259
f 925/648/259 927/650/261 926/649/260
f 928/651/262 926/649/260 927/650/261
f 927/650/261 929/652/263 928/651/262
f 930/653/264 928/651/262 929/652/263
f 929/652/263 931/654/265 930/653/264
f 932/655/266 930/653/264 931/654/265
f 931/654/265 933/656/267 932/655/266
f 934/657/268 932/655/266 933/656/267
f 933/656/267 935/658/269 934/657/268
f 936/659/269 934/657/268 935/658/269
f 943/660/62 942/661/62 941/443/62
f 944/444/62 941/443/62 942/661/62
f 947/190/59 946/662/59 945/663/59
f 948/664/59 945/663/59 946/662/59
f 951/446/62 950/445/62 949/665/62
f 952/666/62 949/665/62 950/445/62
f 955/667/59 954/668/59 953/663/59
f 956/190/59 953/663/59 954/668/59
f 959/669/113 958/670/113 957/671/113
f 960/672/113 957/671/113 958/670/113
f 957/671/113 960/672/113 961/673/113
f 962/674/113 961/673/113 960/672/113
f 960/672/113 963/675/113 962/674/113
f 963/675/113 960/672/113 964/676/113
f 965/677/113 964/676/113 960/672/113
f 957/671/113 961/673/113 966/678/113
f 957/671/113 966/678/113 967/679/113
f 957/671/113 967/679/113 968/680/113
f 957/671/113 968/680/113 969/681/113
f 957/671/113 969/681/113 970/682/113
f 970/682/113 971/683/113 957/671/113
f 972/684/113 957/671/113 971/683/113
f 972/684/113 971/683/113 973/685/113
f 972/684/113 973/685/113 974/686/113
f 972/684/113 974/686/113 975/687/113
f 976/688/113 972/684/113 975/687/113
f 976/688/113 977/689/113 972/684/113
f 977/689/113 978/690/113 972/684/113
f 981/691/131 980/169/131 979/181/131
f 982/308/131 979/181/131 980/169/131
f 985/692/270 984/173/271 983/693/272
f 986/694/273 983/693/272 984/173/271
f 989/695/274 988/696/3 987/697/275
f 990/698/3 987/697/275 988/696/3
f 988/696/3 991/699/3 990/698/3
f 992/700/276 990/698/3 991/699/3
f 992/700/276 991/699/3 993/701/3
f 995/702/113 992/700/277 994/701/113
f 995/702/113 994/701/113 996/703/113
f 995/702/113 996/703/113 997/704/113
f 995/702/113 997/704/113 998/705/113
f 995/702/113 998/705/113 999/706/113
f 995/702/113 999/706/113 1000/707/113
f 1001/708/113 995/702/113 1000/707/113
f 995/702/113 1001/708/113 1002/709/113
f 1003/710/113 1002/709/113 1001/708/113
f 1003/710/113 1004/711/113 1002/709/113
f 1005/712/113 1002/709/113 1004/711/113
f 1005/712/113 1004/711/113 1006/713/113
f 1007/714/113 1006/713/113 1004/711/113
f 1006/713/113 1007/714/113 1008/715/113
f 1009/716/113 1008/715/113 1007/714/113
f 1009/716/113 1010/717/113 1008/715/113
f 1013/718/278 1012/719/279 1011/486/280
f 1014/720/281 1011/486/280 1012/719/279
f 1017/721/282 1016/722/283 1015/723/284
f 1018/724/285 1015/723/284 1016/722/283
f 1021/725/286 1020/726/287 1019/727/288
f 1022/728/289 1019/727/288 1020/726/287
f 1020/726/287 1023/729/290 1022/728/289
f 1024/730/291 1022/728/289 1023/729/290
f 1023/729/290 1025/731/292 1024/730/291
f 1026/732/293 1024/730/291 1025/731/292
f 1025/731/292 1027/733/294 1026/732/293
f 1028/734/295 1026/732/293 1027/733/294
f 1027/733/294 1029/735/296 1028/734/295
f 1029/735/296 1027/733/294 1030/736/297
f 1031/737/298 1030/736/297 1027/733/294
f 1031/737/298 1032/738/299 1030/736/297
f 1033/739/299 1030/736/297 1032/738/299
f 1032/738/299 1034/740/300 1033/739/299
f 1035/741/300 1033/739/299 1034/740/300
f 1038/742/301 1037/743/302 1036/744/303
f 1039/745/304 1036/744/303 1037/743/302
f 1037/743/302 1040/746/305 1039/745/304
f 1041/747/305 1039/745/304 1040/746/305
f 1040/746/305 1042/748/306 1041/747/305
f 1043/749/306 1041/747/305 1042/748/306
f 1042/748/306 1044/750/307 1043/749/306
f 1045/751/307 1043/749/306 1044/750/307
f 1044/750/307 1046/752/308 1045/751/307
f 1047/753/308 1045/751/307 1046/752/308
f 1050/754/309 1049/755/310 1048/756/311
f 1051/757/310 1048/756/311 1049/755/310
f 1049/755/310 1052/758/312 1051/757/310
f 1053/759/312 1051/757/310 1052/758/312
f 1052/758/312 1054/760/313 1053/759/312
f 1055/761/313 1053/759/312 1054/760/313
f 1058/760/62 1057/433/62 1056/761/62
f 1059/516/62 1056/761/62 1057/433/62
f 1062/660/314 1061/762/315 1060/763/316
f 1063/764/317 1060/763/316 1061/762/315
f 1060/763/316 1063/764/317 1064/765/318
f 1065/766/319 1064/765/318 1063/764/317
f 1064/765/318 1065/766/319 1066/767/320
f 1067/768/321 1066/767/320 1065/766/319
f 1066/767/320 1067/768/321 1068/769/322
f 1069/770/323 1068/769/322 1067/768/321
f 1068/769/322 1069/770/323 1070/771/324
f 1071/772/325 1070/771/324 1069/770/323
f 1070/771/324 1071/772/325 1072/773/326
f 1073/774/327 1072/773/326 1071/772/325
f 1072/773/326 1073/774/327 1074/775/328
f 1075/776/329 1074/775/328 1073/774/327
f 1074/775/328 1075/776/329 1076/777/330
f 1077/778/331 1076/777/330 1075/776/329
f 1076/777/330 1077/778/331 1078/779/332
f 1079/780/333 1078/779/332 1077/778/331
f 1078/779/332 1079/780/333 1080/781/334
f 1081/782/335 1080/781/334 1079/780/333
f 1080/781/334 1081/782/335 1082/783/336
f 1083/784/337 1082/783/336 1081/782/335
f 1082/783/336 1083/784/337 1084/785/338
f 1085/786/339 1084/785/338 1083/784/337
f 1084/785/338 1085/786/339 1086/787/340
f 1087/788/341 1086/787/340 1085/786/339
f 1086/787/340 1087/788/341 1088/789/342
f 1089/790/343 1088/789/342 1087/788/341
f 1088/789/342 1089/790/343 1090/665/344
f 1091/666/344 1090/665/344 1089/790/343
f 1098/175/54 1097/791/54 1096/174/54
f 1099/792/54 1096/174/54 1097/791/54
f 1102/793/59 1101/794/59 1100/795/59
f 1103/453/59 1100/795/59 1101/794/59
f 1106/659/54 1105/176/54 1104/658/54
f 1107/177/54 1104/658/54 1105/176/54
f 1110/453/59 1109/796/59 1108/795/59
f 1111/442/59 1108/795/59 1109/796/59
f 1114/797/113 1113/798/113 1112/799/113
f 1115/800/113 1112/799/113 1113/798/113
f 1113/798/113 1116/801/113 1115/800/113
f 1117/802/113 1115/800/113 1116/801/113
f 1118/803/113 1115/800/113 1117/802/113
f 1118/803/113 1119/804/113 1115/800/113
f 1120/805/113 1115/800/113 1119/804/113
f 1116/801/113 1113/798/113 1121/806/113
f 1121/806/113 1113/798/113 1122/807/113
f 1122/807/113 1113/798/113 1123/808/113
f 1123/808/113 1113/798/113 1124/809/113
f 1124/809/113 1113/798/113 1125/810/113
f 1125/810/113 1113/798/113 1126/811/113
f 1127/812/113 1126/811/113 1113/798/113
f 1126/811/113 1127/812/113 1128/813/113
f 1128/813/113 1127/812/113 1129/814/113
f 1129/814/113 1127/812/113 1130/815/113
f 1127/812/113 1131/816/113 1130/815/113
f 1132/817/113 1131/816/113 1127/812/113
f 1133/818/113 1132/817/113 1127/812/113
f 1136/553/131 1135/436/131 1134/450/131
f 1137/819/131 1134/450/131 1135/436/131
f 1140/820/345 1139/439/271 1138/821/346
f 1141/822/270 1138/821/346 1139/439/271
f 1144/823/347 1143/824/3 1142/825/3
f 1145/826/3 1142/825/3 1143/824/3
f 1142/825/3 1145/826/3 1146/827/3
f 1147/828/348 1146/827/3 1145/826/3
f 1146/827/3 1147/828/348 1148/829/3
f 1147/828/349 1150/830/113 1149/829/113
f 1149/829/113 1150/830/113 1151/831/113
f 1151/831/113 1150/830/113 1152/832/113
f 1152/832/113 1150/830/113 1153/833/113
f 1153/833/113 1150/830/113 1154/834/113
f 1154/834/113 1150/830/113 1155/835/113
f 1150/830/113 1156/836/113 1155/835/113
f 1150/830/113 1157/837/113 1156/836/113
f 1158/838/113 1156/836/113 1157/837/113
f 1158/838/113 1157/837/113 1159/839/113
f 1160/840/113 1159/839/113 1157/837/113
f 1160/840/113 1161/841/113 1159/839/113
f 1162/842/113 1159/839/113 1161/841/113
f 1161/841/113 1163/843/113 1162/842/113
f 1164/844/113 1162/842/113 1163/843/113
f 1165/845/113 1164/844/113 1163/843/113
f 1168/846/350 1167/847/351 1166/238/352
f 1169/848/353 1166/238/352 1167/847/351
f 1172/849/354 1171/850/355 1170/851/356
f 1173/852/357 1170/851/356 1171/850/355
f 1176/853/358 1175/854/359 1174/855/360
f 1177/856/361 1174/855/360 1175/854/359
f 1174/855/360 1177/856/361 1178/857/362
f 1179/858/363 1178/857/362 1177/856/361
f 1178/857/362 1179/858/363 1180/859/364
f 1181/860/365 1180/859/364 1179/858/363
f 1180/859/364 1181/860/365 1182/861/366
f 1183/862/367 1182/861/366 1181/860/365
f 1184/863/368 1182/861/366 1183/862/367
f 1184/863/368 1185/864/369 1182/861/366
f 1186/865/370 1182/861/366 1185/864/369
f 1186/865/370 1185/864/369 1187/866/371
f 1188/867/371 1187/866/371 1185/864/369
f 1187/866/371 1188/867/371 1189/868/372
f 1190/869/372 1189/868/372 1188/867/371
f 1193/870/373 1192/871/374 1191/872/375
f 1194/873/376 1191/872/375 1192/871/374
f 1191/872/375 1194/873/376 1195/874/377
f 1196/875/377 1195/874/377 1194/873/376
f 1195/874/377 1196/875/377 1197/876/378
f 1198/877/378 1197/876/378 1196/875/377
f 1197/876/378 1198/877/378 1199/878/379
f 1200/879/379 1199/878/379 1198/877/378
f 1199/878/379 1200/879/379 1201/880/380
f 1202/881/380 1201/880/380 1200/879/379
f 1205/882/381 1204/883/382 1203/884/383
f 1206/885/383 1203/884/383 1204/883/382
f 1203/884/383 1206/885/383 1207/886/384
f 1208/887/384 1207/886/384 1206/885/383
f 1207/886/384 1208/887/384 1209/888/385
f 1210/889/385 1209/888/385 1208/887/384
f 1213/271/54 1212/166/54 1211/889/54
f 1214/888/54 1211/889/54 1212/166/54
l 1093 1094
l 1093 1095
l 533 535
l 937 939
l 938 939
l 938 940
l 177 179
l 1092 1095
