# Blender 5.1.0
# www.blender.org
mtllib Litt_Deckhouse_A1_Tower_Main_RangeFinder_High.mtl
o Litt_Deckhouse_A1_Tower_Main_RangeFinder_High
v -2.462045 0.140945 -3.711599
v -0.000006 0.140945 -2.836050
v -2.462045 0.140945 -2.590769
v -0.000006 0.140945 -3.711599
v 2.462032 0.140945 -3.711599
v 2.462032 0.140945 -2.590769
v -1.969275 2.279245 1.534216
v -1.092868 -0.011477 2.233129
v -1.969275 -0.011477 1.534220
v -1.092868 2.279245 2.233125
v -0.000007 -0.011477 2.482569
v -0.000007 2.279245 2.482569
v 1.092854 2.279245 2.233129
v 1.092854 -0.011477 2.233129
v 1.969261 2.279245 1.534220
v 1.969261 -0.011477 1.534220
v -1.969275 -0.011477 1.534220
v -2.455644 2.279245 0.524259
v -1.969275 2.279245 1.534216
v -2.455644 -0.011477 0.524263
v -2.455644 -0.011480 -0.420443
v -2.455644 2.279242 -0.420447
v -3.218357 2.279242 -2.515424
v -3.530546 -0.011480 -2.295854
v -3.218357 -0.011480 -2.515424
v -3.530546 2.279242 -2.295854
v -3.530546 2.279242 -2.295854
v -3.722341 -0.011480 -1.943170
v -3.530546 -0.011480 -2.295854
v -3.722341 2.279242 -1.943174
v -3.754330 2.279242 -1.519854
v -3.754330 -0.011480 -1.519850
v -3.614283 -0.011480 -1.135164
v -3.614283 2.279242 -1.135168
v -3.218357 2.279242 -2.515424
v -3.722341 2.279242 -1.943174
v -3.530546 2.279242 -2.295854
v -3.754330 2.279242 -1.519854
v -3.614283 2.279242 -1.135168
v -2.455644 2.279242 -0.420447
v -0.000006 2.279242 -2.836050
v -2.455644 2.279245 0.524259
v -1.969275 2.279245 1.534216
v -1.092868 2.279245 2.233125
v -0.000007 2.279245 2.482569
v 1.092854 2.279245 2.233129
v 1.969261 2.279245 1.534220
v 2.455631 2.279245 0.524263
v 2.455631 2.279242 -0.420443
v 3.218344 2.279242 -2.515421
v 3.614270 2.279242 -1.135161
v 3.754317 2.279242 -1.519846
v 3.722329 2.279242 -1.943166
v 3.530534 2.279242 -2.295851
v -3.685648 0.039423 -1.019472
v -3.518107 2.228338 -0.916125
v -3.518107 0.039423 -0.916125
v -3.685648 2.228338 -1.019476
v -3.614283 0.039423 -1.135164
v -3.685648 2.228338 -1.019476
v -3.685648 0.039423 -1.019472
v -3.614283 2.228338 -1.135164
v -3.614283 2.228338 -1.135164
v -3.518107 2.228338 -0.916125
v -3.685648 2.228338 -1.019476
v -3.446742 2.228338 -1.031817
v -3.446742 2.228338 -1.031817
v -3.518107 0.039423 -0.916125
v -3.518107 2.228338 -0.916125
v -3.446742 0.039423 -1.031817
v -3.446742 0.039423 -1.031817
v -3.685648 0.039423 -1.019472
v -3.518107 0.039423 -0.916125
v -3.614283 0.039423 -1.135164
v -2.462045 -0.011480 -2.590769
v -3.218357 2.279242 -2.515424
v -3.218357 -0.011480 -2.515424
v -2.462045 0.140945 -2.590769
v -0.000006 2.279242 -2.836050
v -0.000006 0.140945 -2.836050
v 2.462032 0.140945 -2.590769
v 3.218344 2.279242 -2.515421
v 2.462032 -0.011480 -2.590769
v 3.218344 -0.011480 -2.515421
v -2.462045 -0.011480 -2.590769
v -2.462045 0.140945 -3.711599
v -2.462045 0.140945 -2.590769
v -2.462045 -0.011480 -3.826681
v -2.462045 1.093658 -3.826685
v -2.462045 1.093658 -3.711603
v 2.455631 2.279245 0.524263
v 1.969261 -0.011477 1.534220
v 1.969261 2.279245 1.534220
v 2.455631 -0.011477 0.524263
v 2.455631 -0.011480 -0.420443
v 2.455631 2.279242 -0.420443
v 3.218344 2.279242 -2.515421
v 3.530534 -0.011480 -2.295851
v 3.530534 2.279242 -2.295851
v 3.218344 -0.011480 -2.515421
v 3.722329 -0.011480 -1.943166
v 3.530534 2.279242 -2.295851
v 3.530534 -0.011480 -2.295851
v 3.722329 2.279242 -1.943166
v 3.754317 2.279242 -1.519846
v 3.754317 -0.011480 -1.519846
v 3.614270 -0.011480 -1.135161
v 3.614270 2.279242 -1.135161
v 3.685635 0.039423 -1.019472
v 3.518094 2.228338 -0.916121
v 3.685635 2.228338 -1.019472
v 3.518094 0.039423 -0.916121
v 3.614270 0.039423 -1.135161
v 3.685635 2.228338 -1.019472
v 3.614270 2.228338 -1.135161
v 3.685635 0.039423 -1.019472
v 3.614270 2.228338 -1.135161
v 3.518094 2.228338 -0.916121
v 3.446729 2.228338 -1.031813
v 3.685635 2.228338 -1.019472
v 3.446729 2.228338 -1.031813
v 3.518094 0.039423 -0.916121
v 3.446729 0.039423 -1.031813
v 3.518094 2.228338 -0.916121
v 3.446729 0.039423 -1.031813
v 3.685635 0.039423 -1.019472
v 3.614270 0.039423 -1.135161
v 3.518094 0.039423 -0.916121
v 2.462032 0.140945 -3.711599
v 2.462032 -0.011480 -2.590769
v 2.462032 0.140945 -2.590769
v 2.462032 -0.011480 -3.826681
v 2.462032 1.093658 -3.711599
v 2.462032 1.093658 -3.826681
v -0.000006 1.093658 -3.711599
v 2.462032 1.093658 -3.826681
v 2.462032 1.093658 -3.711599
v -0.000006 1.093658 -3.826681
v -2.462045 1.093658 -3.826685
v -2.462045 1.093658 -3.711603
v -2.462045 -0.011480 -3.826681
v -0.000006 1.093658 -3.826681
v -2.462045 1.093658 -3.826685
v -0.000006 -0.011480 -3.826681
v 2.462032 1.093658 -3.826681
v 2.462032 -0.011480 -3.826681
v 2.359029 0.792902 -2.916803
v 2.359029 0.140942 -3.538061
v 2.359029 0.140942 -2.916803
v 2.359029 0.792902 -3.538061
v 1.773042 0.792902 -3.538061
v 2.359029 0.792902 -2.916803
v 1.773042 0.792902 -2.916799
v 2.359029 0.792902 -3.538061
v 1.773042 0.792902 -2.916799
v 2.359029 0.140942 -2.916803
v 1.773042 0.140942 -2.916803
v 2.359029 0.792902 -2.916803
v 1.773042 0.140942 -3.538061
v 2.359029 0.792902 -3.538061
v 1.773042 0.792902 -3.538061
v 2.359029 0.140942 -3.538061
v 1.773042 0.140942 -3.538061
v 1.773042 0.792902 -2.916799
v 1.773042 0.140942 -2.916803
v 1.773042 0.792902 -3.538061
v -2.359042 0.792902 -2.916807
v -2.359041 0.140942 -3.538061
v -2.359041 0.792902 -3.538065
v -2.359042 0.140942 -2.916803
v -1.773054 0.792902 -3.538061
v -2.359042 0.792902 -2.916807
v -2.359041 0.792902 -3.538065
v -1.773054 0.792902 -2.916803
v -1.773054 0.792902 -2.916803
v -2.359042 0.140942 -2.916803
v -2.359042 0.792902 -2.916807
v -1.773054 0.140942 -2.916803
v -1.773054 0.140942 -3.538061
v -2.359041 0.792902 -3.538065
v -2.359041 0.140942 -3.538061
v -1.773054 0.792902 -3.538061
v -1.773054 0.140942 -3.538061
v -1.773054 0.792902 -2.916803
v -1.773054 0.792902 -3.538061
v -1.773054 0.140942 -2.916803
v 0.650841 1.572697 2.569902
v 1.160683 2.098810 2.453535
v 1.160683 1.572697 2.453535
v 0.650841 2.098810 2.569902
v 0.583014 1.572697 2.272726
v 0.650841 2.098810 2.569902
v 0.650841 1.572697 2.569902
v 0.583014 2.098810 2.272726
v 0.583014 2.098810 2.272726
v 1.160683 2.098810 2.453535
v 0.650841 2.098810 2.569902
v 1.092854 2.098810 2.156358
v 1.092854 2.098810 2.156358
v 1.160683 1.572697 2.453535
v 1.160683 2.098810 2.453535
v 1.092854 1.572697 2.156358
v 1.092854 1.572697 2.156358
v 0.650841 1.572697 2.569902
v 1.160683 1.572697 2.453535
v 0.583014 1.572697 2.272726
v -0.650856 1.572697 2.569902
v -1.160697 2.098810 2.453531
v -0.650856 2.098810 2.569902
v -1.160697 1.572697 2.453535
v -0.583027 1.572697 2.272726
v -0.650856 2.098810 2.569902
v -0.583027 2.098810 2.272726
v -0.650856 1.572697 2.569902
v -0.583027 2.098810 2.272726
v -1.160697 2.098810 2.453531
v -1.092868 2.098810 2.156358
v -0.650856 2.098810 2.569902
v -1.092868 2.098810 2.156358
v -1.160697 1.572697 2.453535
v -1.092867 1.572697 2.156358
v -1.160697 2.098810 2.453531
v -1.092867 1.572697 2.156358
v -0.650856 1.572697 2.569902
v -0.583027 1.572697 2.272726
v -1.160697 1.572697 2.453535
v -2.455644 -0.011480 -0.420443
v -3.344457 0.375782 -0.968718
v -2.725470 0.375782 -0.586889
v -2.725470 1.086843 -0.586889
v -3.614283 -0.011480 -1.135164
v -3.344456 1.086843 -0.968718
v -3.614283 2.279242 -1.135168
v -2.455644 2.279242 -0.420447
v -3.344456 1.256462 -0.968718
v -2.725470 1.256462 -0.586889
v -3.344455 1.967524 -0.968718
v -2.725470 1.967524 -0.586889
v 3.344445 0.375782 -0.968714
v 2.455631 -0.011480 -0.420443
v 2.725457 0.375782 -0.586886
v 2.725457 1.086843 -0.586886
v 3.614270 -0.011480 -1.135161
v 3.344444 1.086843 -0.968714
v 3.614270 2.279242 -1.135161
v 2.455631 2.279242 -0.420443
v 3.344444 1.256462 -0.968714
v 2.725457 1.256462 -0.586886
v 3.344443 1.967524 -0.968714
v 2.725457 1.967524 -0.586886
v -3.614283 -0.011480 -1.135164
v -3.722341 -0.011480 -1.943170
v -3.754330 -0.011480 -1.519850
v -3.530546 -0.011480 -2.295854
v -3.218357 -0.011480 -2.515424
v -2.455644 -0.011480 -0.420443
v -2.462045 -0.011480 -2.590769
v -0.000006 -0.011480 -2.836050
v -2.455644 -0.011477 0.524263
v -2.462045 -0.011480 -3.826681
v -1.969275 -0.011477 1.534220
v -0.000006 -0.011480 -3.826681
v -1.092868 -0.011477 2.233129
v 2.462032 -0.011480 -3.826681
v -0.000007 -0.011477 2.482569
v 1.092854 -0.011477 2.233129
v 1.969261 -0.011477 1.534220
v 2.455631 -0.011477 0.524263
v 2.462032 -0.011480 -2.590769
v 2.455631 -0.011480 -0.420443
v 3.218344 -0.011480 -2.515421
v 3.614270 -0.011480 -1.135161
v 3.530534 -0.011480 -2.295851
v 3.722329 -0.011480 -1.943166
v 3.754317 -0.011480 -1.519846
v -2.725470 1.256462 -0.586889
v -2.725470 1.967524 -1.260180
v -2.725470 1.967524 -0.586889
v -2.725470 1.256460 -1.260180
v -2.725470 0.375782 -0.586889
v -3.344456 0.375778 -1.260180
v -2.725470 0.375778 -1.260180
v -3.344457 0.375782 -0.968718
v -3.344456 1.086843 -0.968718
v -3.344456 0.375778 -1.260180
v -3.344457 0.375782 -0.968718
v -3.344456 1.086842 -1.260180
v -3.344455 1.967524 -0.968718
v -2.725470 1.967524 -1.260180
v -3.344456 1.967524 -1.260180
v -2.725470 1.967524 -0.586889
v -2.725470 0.375782 -0.586889
v -2.725470 1.086842 -1.260180
v -2.725470 1.086843 -0.586889
v -2.725470 0.375778 -1.260180
v -3.344455 1.967524 -0.968718
v -3.344456 1.256460 -1.260180
v -3.344456 1.256462 -0.968718
v -3.344456 1.967524 -1.260180
v -3.344456 1.256462 -0.968718
v -2.725470 1.256460 -1.260180
v -2.725470 1.256462 -0.586889
v -3.344456 1.256460 -1.260180
v 2.725457 1.256462 -0.586886
v 2.725458 1.967524 -1.260176
v 2.725458 1.256460 -1.260176
v 2.725457 1.967524 -0.586886
v 2.725457 0.375782 -0.586886
v 3.344444 0.375778 -1.260176
v 3.344445 0.375782 -0.968714
v 2.725458 0.375778 -1.260176
v 3.344444 1.086843 -0.968714
v 3.344444 0.375778 -1.260176
v 3.344444 1.086842 -1.260176
v 3.344445 0.375782 -0.968714
v 3.344443 1.967524 -0.968714
v 2.725458 1.967524 -1.260176
v 2.725457 1.967524 -0.586886
v 3.344444 1.967524 -1.260176
v 2.725457 0.375782 -0.586886
v 2.725458 1.086842 -1.260176
v 2.725458 0.375778 -1.260176
v 2.725457 1.086843 -0.586886
v 3.344443 1.967524 -0.968714
v 3.344444 1.256460 -1.260176
v 3.344444 1.967524 -1.260176
v 3.344444 1.256462 -0.968714
v 3.344444 1.256462 -0.968714
v 2.725458 1.256460 -1.260176
v 3.344444 1.256460 -1.260176
v 2.725457 1.256462 -0.586886
v 2.462032 0.140945 -3.711599
v -0.000006 1.093658 -3.711599
v 2.462032 1.093658 -3.711599
v -0.000006 0.140945 -3.711599
v -2.462045 1.093658 -3.711603
v -2.462045 0.140945 -3.711599
v -3.344456 1.086842 -1.260180
v -2.725470 0.375778 -1.260180
v -3.344456 0.375778 -1.260180
v -2.725470 1.086842 -1.260180
v -3.344456 1.967524 -1.260180
v -2.725470 1.256460 -1.260180
v -3.344456 1.256460 -1.260180
v -2.725470 1.967524 -1.260180
v -3.344456 1.086843 -0.968718
v -2.725470 1.086842 -1.260180
v -3.344456 1.086842 -1.260180
v -2.725470 1.086843 -0.586889
v 3.344444 1.086842 -1.260176
v 2.725458 0.375778 -1.260176
v 2.725458 1.086842 -1.260176
v 3.344444 0.375778 -1.260176
v 3.344444 1.967524 -1.260176
v 2.725458 1.256460 -1.260176
v 2.725458 1.967524 -1.260176
v 3.344444 1.256460 -1.260176
v 3.344444 1.086843 -0.968714
v 2.725458 1.086842 -1.260176
v 2.725457 1.086843 -0.586886
v 3.344444 1.086842 -1.260176
vn -0.0000 1.0000 -0.0000
vn -0.7812 0.0002 0.6243
vn -0.4339 -0.0000 0.9010
vn -0.7812 -0.0000 0.6243
vn -0.0000 -0.0000 1.0000
vn 0.4339 -0.0000 0.9010
vn 0.7812 -0.0000 0.6243
vn -0.7825 -0.0000 0.6226
vn -0.9749 -0.0000 0.2225
vn -1.0000 -0.0000 -0.0000
vn -0.5753 -0.0000 -0.8180
vn -0.7458 -0.0000 -0.6662
vn -0.7459 -0.0001 -0.6661
vn -0.7472 0.0001 -0.6646
vn -0.9592 -0.0000 -0.2828
vn -0.7472 -0.0000 -0.6646
vn -0.9906 -0.0000 0.1364
vn -0.9397 -0.0000 0.3421
vn -0.5250 -0.0000 0.8511
vn -0.8511 -0.0000 -0.5250
vn 0.8511 -0.0000 0.5250
vn -0.0000 -1.0000 -0.0000
vn -0.0991 -0.0000 -0.9951
vn -0.0000 -0.0000 -1.0000
vn 0.0991 -0.0000 -0.9951
vn 0.7825 -0.0000 0.6226
vn 0.7825 0.0001 0.6226
vn 0.9749 -0.0000 0.2225
vn 1.0000 -0.0000 -0.0000
vn 0.7459 -0.0000 -0.6661
vn 0.7458 0.0001 -0.6662
vn 0.5753 -0.0000 -0.8180
vn 0.7472 -0.0000 -0.6646
vn 0.9592 -0.0000 -0.2828
vn 0.9906 -0.0000 0.1364
vn 0.9397 -0.0000 0.3421
vn 0.5250 -0.0000 0.8511
vn 0.8511 -0.0000 -0.5250
vn -0.8511 -0.0000 0.5250
vn 0.2225 -0.0000 0.9749
vn 0.9749 -0.0000 -0.2225
vn -0.2225 -0.0000 0.9749
vn -0.9749 -0.0000 -0.2225
vt 0.442864 3.526222
vt 0.480321 3.529914
vt 0.442864 3.543096
vt 0.480321 3.543096
vt 0.517778 3.543096
vt 0.517778 3.526222
vt 0.450360 0.690659
vt 0.463694 0.690659
vt 0.450360 0.725623
vt 0.463694 0.725623
vt 0.480321 0.690659
vt 0.480321 0.725623
vt 0.496947 0.725623
vt 0.496947 0.690659
vt 0.510281 0.725623
vt 0.510281 0.690659
vt -2.464120 0.725623
vt -2.479325 0.725623
vt -2.464120 0.690659
vt -2.479325 0.690659
vt -2.493548 0.690659
vt -2.493548 0.725623
vt 0.568643 0.690659
vt 0.573393 0.690659
vt 0.568643 0.725623
vt 0.573393 0.725623
vt -2.521782 0.690659
vt -2.516472 0.690659
vt -2.521782 0.725623
vt -2.516472 0.725623
vt -2.510099 0.725623
vt -2.510099 0.690659
vt -2.504308 0.690659
vt -2.504308 0.725623
vt 0.426607 3.521782
vt 0.423690 3.516472
vt 0.431357 3.525087
vt 0.423203 3.510099
vt 0.425333 3.504308
vt 0.442961 3.493548
vt 0.442961 3.479325
vt 0.450360 3.464120
vt 0.463694 3.453598
vt 0.480321 3.449843
vt 0.496947 3.453598
vt 0.510281 3.464120
vt 0.517681 3.479325
vt 0.517681 3.493548
vt 0.529285 3.525087
vt 0.535308 3.504308
vt 0.537439 3.510099
vt 0.536952 3.516472
vt 0.534034 3.521782
vt 0.426797 0.691435
vt 0.426797 0.724846
vt 0.424248 0.691435
vt 0.424248 0.724846
vt -2.502566 0.691435
vt -2.502566 0.724846
vt -2.504308 0.691435
vt -2.504308 0.724846
vt 0.424248 3.502566
vt 0.426797 3.501010
vt 0.427882 3.502752
vt 3.501010 0.724846
vt 3.501010 0.691435
vt 3.502752 0.724846
vt 3.502752 0.691435
vt 0.573203 3.501010
vt 0.575752 3.502566
vt 0.572118 3.502752
vt 0.574667 3.504308
vt 0.557136 0.690659
vt 0.557136 0.692985
vt 0.519679 0.725623
vt 0.519679 0.692985
vt 0.482222 0.692985
vt 0.470715 0.725623
vt 0.482222 0.690659
vt 0.470715 0.690659
vt -2.526222 0.692985
vt -2.543096 0.692985
vt -2.526222 0.690659
vt -2.544828 0.690659
vt -2.544828 0.707527
vt -2.543096 0.707527
vt 3.464120 0.725623
vt 3.464120 0.690659
vt 3.479325 0.725623
vt 3.479325 0.690659
vt 3.493548 0.690659
vt 3.493548 0.725623
vt 0.465966 0.725623
vt 0.465966 0.690659
vt 3.521782 0.690659
vt 3.521782 0.725623
vt 3.516472 0.690659
vt 3.516472 0.725623
vt 3.510099 0.725623
vt 3.510099 0.690659
vt 3.504308 0.690659
vt 3.504308 0.725623
vt 0.536394 0.724846
vt 0.533845 0.724846
vt 0.536394 0.691435
vt 0.533845 0.691435
vt 3.504308 0.724846
vt 3.502566 0.724846
vt 3.504308 0.691435
vt 3.502566 0.691435
vt 0.532759 3.502752
vt 0.533845 3.501010
vt 0.536394 3.502566
vt -2.502752 0.691435
vt -2.501010 0.691435
vt -2.502752 0.724846
vt -2.501010 0.724846
vt 0.464692 3.504308
vt 0.463606 3.502566
vt 0.467241 3.502752
vt 0.466155 3.501010
vt 3.526222 0.692985
vt 3.526222 0.690659
vt 3.543096 0.692985
vt 3.544828 0.690659
vt 3.543096 0.707527
vt 3.544828 0.707527
vt 0.517778 3.544828
vt 0.480321 3.544828
vt 0.442864 3.544828
vt 0.557136 0.707527
vt 0.519679 0.707527
vt 0.519679 0.690659
vt 0.482222 0.707527
vt 3.531130 0.692985
vt 3.540483 0.692985
vt 3.531130 0.702936
vt 3.540483 0.702936
vt 0.507296 3.531130
vt 0.516211 3.531130
vt 0.507296 3.540483
vt 0.516211 3.540483
vt 0.507296 0.692985
vt 0.516211 0.692985
vt 0.507296 0.702936
vt 0.516211 0.702936
vt 0.492704 0.702936
vt 0.483789 0.702936
vt 0.492704 0.692985
vt 0.483789 0.692985
vt -2.531130 0.692985
vt -2.531130 0.702936
vt -2.540483 0.692985
vt -2.540483 0.702936
vt 0.444431 3.540483
vt 0.444431 3.531130
vt 0.453346 3.540483
vt 0.453346 3.531130
vt 0.444431 0.702936
vt 0.444431 0.692985
vt 0.453346 0.702936
vt 0.453346 0.692985
vt 0.555569 0.692985
vt 0.555569 0.702936
vt 0.546654 0.692985
vt 0.546654 0.702936
vt 0.497979 0.714838
vt 0.497979 0.722869
vt 0.490223 0.714838
vt 0.490223 0.722869
vt -2.448528 0.714838
vt -2.448528 0.722869
vt -2.453002 0.714838
vt -2.453002 0.722869
vt 0.490223 3.448528
vt 0.497979 3.450280
vt 0.489191 3.453002
vt 0.496947 3.454754
vt 3.450280 0.722869
vt 3.450280 0.714838
vt 3.454754 0.722869
vt 3.454754 0.714838
vt 0.502021 3.450280
vt 0.509777 3.448528
vt 0.503053 3.454754
vt 0.510809 3.453002
vt 0.470419 0.722869
vt 0.462662 0.722869
vt 0.470419 0.714838
vt 0.462662 0.714838
vt 3.453002 0.722869
vt 3.448528 0.722869
vt 3.453002 0.714838
vt 3.448528 0.714838
vt 0.463694 3.454754
vt 0.462662 3.450280
vt 0.471451 3.453002
vt 0.470419 3.448528
vt -2.454754 0.714838
vt -2.450280 0.714838
vt -2.454754 0.722869
vt -2.450280 0.722869
vt 0.528549 3.453002
vt 0.529581 3.448528
vt 0.536306 3.454754
vt 0.537338 3.450280
vt 0.438856 0.696569
vt 0.429439 0.696569
vt 0.442961 0.690659
vt 0.438856 0.707423
vt 0.425333 0.690659
vt 0.429439 0.707423
vt 0.425333 0.725623
vt 0.442961 0.725623
vt 0.429439 0.710012
vt 0.438856 0.710012
vt 0.429439 0.720865
vt 0.438856 0.720865
vt 0.521786 0.696569
vt 0.517681 0.690659
vt 0.531203 0.696569
vt 0.521786 0.707423
vt 0.535308 0.690659
vt 0.531203 0.707423
vt 0.535308 0.725623
vt 0.517681 0.725623
vt 0.531203 0.710012
vt 0.521786 0.710012
vt 0.531203 0.720865
vt 0.521786 0.720865
vt 0.576797 3.510099
vt 0.576311 3.516472
vt 0.573393 3.521782
vt 0.568643 3.525087
vt 0.557039 3.493548
vt 0.557136 3.526222
vt 0.519679 3.529914
vt 0.557039 3.479325
vt 0.557136 3.544828
vt 0.549640 3.464120
vt 0.519679 3.544828
vt 0.536306 3.453598
vt 0.482222 3.544828
vt 0.519679 3.449843
vt 0.503053 3.453598
vt 0.489719 3.464120
vt 0.482319 3.479325
vt 0.482222 3.526222
vt 0.482319 3.493548
vt 0.470715 3.525087
vt 0.465966 3.521782
vt 0.463048 3.516472
vt 0.462561 3.510099
vt -2.496053 0.720865
vt -2.506190 0.720865
vt -2.496053 0.710012
vt -2.506190 0.710012
vt 0.438856 3.506190
vt 0.429439 3.506190
vt 0.438856 3.496053
vt 0.429439 3.501802
vt 3.501802 0.696569
vt 3.506190 0.696569
vt 3.501802 0.707423
vt 3.506190 0.707423
vt 0.570561 3.506190
vt 0.561144 3.506190
vt 0.570561 3.501802
vt 0.561144 3.496053
vt -2.496053 0.707423
vt -2.506190 0.707423
vt -2.496053 0.696569
vt -2.506190 0.696569
vt 3.501802 0.710012
vt 3.506190 0.710012
vt 3.501802 0.720865
vt 3.506190 0.720865
vt 3.496053 0.710012
vt 3.496053 0.720865
vt 0.531203 3.501802
vt 0.531203 3.506190
vt 0.521786 3.496053
vt 0.521786 3.506190
vt -2.501802 0.707423
vt -2.501802 0.696569
vt 0.478214 3.496053
vt 0.478214 3.506190
vt 0.468797 3.501802
vt 0.468797 3.506190
vt 3.496053 0.696569
vt 3.496053 0.707423
vt -2.501802 0.720865
vt -2.501802 0.710012
vt 0.517778 0.707527
vt 0.480321 0.707527
vt 0.517778 0.692985
vt 0.480321 0.692985
vt 0.442864 0.707527
vt 0.442864 0.692985
s 1
g Litt_Deckhouse_A1_Tower_Main_RangeFinder_High_steel_deck_1
usemtl steel_deck_1
f 3/1/1 2/2/1 1/3/1
f 4/4/1 1/3/1 2/2/1
f 4/4/1 2/2/1 5/5/1
f 6/6/1 5/5/1 2/2/1
g Litt_Deckhouse_A1_Tower_Main_RangeFinder_High_steel_4
usemtl steel_4
f 9/7/2 8/8/3 7/9/4
f 10/10/3 7/9/4 8/8/3
f 8/8/3 11/11/5 10/10/3
f 12/12/5 10/10/3 11/11/5
f 12/12/5 11/11/5 13/13/6
f 14/14/6 13/13/6 11/11/5
f 13/13/6 14/14/6 15/15/7
f 16/16/7 15/15/7 14/14/6
f 19/17/8 18/18/9 17/19/8
f 20/20/9 17/19/8 18/18/9
f 20/20/9 18/18/9 21/21/10
f 22/22/10 21/21/10 18/18/9
f 25/23/11 24/24/12 23/25/11
f 26/26/13 23/25/11 24/24/12
f 29/27/14 28/28/15 27/29/16
f 30/30/15 27/29/16 28/28/15
f 30/30/15 28/28/15 31/31/17
f 32/32/17 31/31/17 28/28/15
f 32/32/17 33/33/18 31/31/17
f 34/34/18 31/31/17 33/33/18
f 37/35/1 36/36/1 35/37/1
f 36/36/1 38/38/1 35/37/1
f 35/37/1 38/38/1 39/39/1
f 39/39/1 40/40/1 35/37/1
f 41/2/1 35/37/1 40/40/1
f 40/40/1 42/41/1 41/2/1
f 42/41/1 43/42/1 41/2/1
f 41/2/1 43/42/1 44/43/1
f 41/2/1 44/43/1 45/44/1
f 46/45/1 41/2/1 45/44/1
f 47/46/1 41/2/1 46/45/1
f 47/46/1 48/47/1 41/2/1
f 48/47/1 49/48/1 41/2/1
f 41/2/1 49/48/1 50/49/1
f 51/50/1 50/49/1 49/48/1
f 52/51/1 50/49/1 51/50/1
f 53/52/1 50/49/1 52/51/1
f 54/53/1 50/49/1 53/52/1
f 57/54/19 56/55/19 55/56/19
f 58/57/19 55/56/19 56/55/19
f 61/58/20 60/59/20 59/60/20
f 62/61/20 59/60/20 60/59/20
f 65/62/1 64/63/1 63/39/1
f 66/64/1 63/39/1 64/63/1
f 69/65/21 68/66/21 67/67/21
f 70/68/21 67/67/21 68/66/21
f 73/69/22 72/70/22 71/71/22
f 74/72/22 71/71/22 72/70/22
f 77/23/23 76/25/23 75/73/23
f 78/74/23 75/73/23 76/25/23
f 76/25/23 79/75/24 78/74/23
f 80/76/24 78/74/23 79/75/24
f 80/76/24 79/75/24 81/77/25
f 82/78/25 81/77/25 79/75/24
f 81/77/25 82/78/25 83/79/25
f 84/80/25 83/79/25 82/78/25
f 87/81/10 86/82/10 85/83/10
f 88/84/10 85/83/10 86/82/10
f 88/84/10 86/82/10 89/85/10
f 90/86/10 89/85/10 86/82/10
f 93/87/26 92/88/27 91/89/28
f 94/90/28 91/89/28 92/88/27
f 94/90/28 95/91/29 91/89/28
f 96/92/29 91/89/28 95/91/29
f 99/93/30 98/94/31 97/78/32
f 100/80/32 97/78/32 98/94/31
f 103/95/33 102/96/33 101/97/34
f 104/98/34 101/97/34 102/96/33
f 104/98/34 105/99/35 101/97/34
f 106/100/35 101/97/34 105/99/35
f 106/100/35 105/99/35 107/101/36
f 108/102/36 107/101/36 105/99/35
f 111/103/37 110/104/37 109/105/37
f 112/106/37 109/105/37 110/104/37
f 115/107/38 114/108/38 113/109/38
f 116/110/38 113/109/38 114/108/38
f 119/111/1 118/112/1 117/50/1
f 120/113/1 117/50/1 118/112/1
f 123/114/39 122/115/39 121/116/39
f 124/117/39 121/116/39 122/115/39
f 127/118/22 126/119/22 125/120/22
f 128/121/22 125/120/22 126/119/22
f 131/122/29 130/123/29 129/124/29
f 132/125/29 129/124/29 130/123/29
f 129/124/29 132/125/29 133/126/29
f 134/127/29 133/126/29 132/125/29
f 137/5/1 136/128/1 135/4/1
f 138/129/1 135/4/1 136/128/1
f 138/129/1 139/130/1 135/4/1
f 140/3/1 135/4/1 139/130/1
f 143/131/24 142/132/24 141/73/24
f 144/133/24 141/73/24 142/132/24
f 142/132/24 145/134/24 144/133/24
f 146/79/24 144/133/24 145/134/24
f 149/135/29 148/136/29 147/137/29
f 150/138/29 147/137/29 148/136/29
f 153/139/1 152/140/1 151/141/1
f 154/142/1 151/141/1 152/140/1
f 157/143/5 156/144/5 155/145/5
f 158/146/5 155/145/5 156/144/5
f 161/147/24 160/148/24 159/149/24
f 162/150/24 159/149/24 160/148/24
f 165/151/10 164/152/10 163/153/10
f 166/154/10 163/153/10 164/152/10
f 169/154/10 168/153/10 167/152/10
f 170/151/10 167/152/10 168/153/10
f 173/155/1 172/156/1 171/157/1
f 174/158/1 171/157/1 172/156/1
f 177/159/5 176/160/5 175/161/5
f 178/162/5 175/161/5 176/160/5
f 181/163/24 180/164/24 179/165/24
f 182/166/24 179/165/24 180/164/24
f 185/138/29 184/137/29 183/136/29
f 186/135/29 183/136/29 184/137/29
f 189/167/40 188/168/40 187/169/40
f 190/170/40 187/169/40 188/168/40
f 193/171/9 192/172/9 191/173/9
f 194/174/9 191/173/9 192/172/9
f 197/175/1 196/176/1 195/177/1
f 198/178/1 195/177/1 196/176/1
f 201/179/41 200/180/41 199/181/41
f 202/182/41 199/181/41 200/180/41
f 205/183/22 204/184/22 203/185/22
f 206/186/22 203/185/22 204/184/22
f 209/187/42 208/188/42 207/189/42
f 210/190/42 207/189/42 208/188/42
f 213/191/28 212/192/28 211/193/28
f 214/194/28 211/193/28 212/192/28
f 217/195/1 216/196/1 215/197/1
f 218/198/1 215/197/1 216/196/1
f 221/199/43 220/200/43 219/201/43
f 222/202/43 219/201/43 220/200/43
f 225/203/22 224/204/22 223/205/22
f 226/206/22 223/205/22 224/204/22
f 229/207/19 228/208/19 227/209/19
f 230/210/19 229/207/19 227/209/19
f 231/211/19 227/209/19 228/208/19
f 228/208/19 232/212/19 231/211/19
f 231/211/19 232/212/19 233/213/19
f 227/209/19 234/214/19 230/210/19
f 232/212/19 230/210/19 235/215/19
f 235/215/19 233/213/19 232/212/19
f 236/216/19 235/215/19 230/210/19
f 236/216/19 230/210/19 234/214/19
f 235/215/19 237/217/19 233/213/19
f 238/218/19 236/216/19 234/214/19
f 237/217/19 238/218/19 233/213/19
f 234/214/19 233/213/19 238/218/19
f 241/219/37 240/220/37 239/221/37
f 241/219/37 242/222/37 240/220/37
f 243/223/37 239/221/37 240/220/37
f 244/224/37 239/221/37 243/223/37
f 243/223/37 245/225/37 244/224/37
f 240/220/37 242/222/37 246/226/37
f 244/224/37 247/227/37 242/222/37
f 247/227/37 244/224/37 245/225/37
f 248/228/37 242/222/37 247/227/37
f 248/228/37 246/226/37 242/222/37
f 249/229/37 247/227/37 245/225/37
f 248/228/37 250/230/37 246/226/37
f 246/226/37 250/230/37 245/225/37
f 249/229/37 245/225/37 250/230/37
g Litt_Deckhouse_A1_Tower_Main_RangeFinder_High_steel_3
usemtl steel_3
f 253/231/22 252/232/22 251/72/22
f 252/232/22 254/233/22 251/72/22
f 251/72/22 254/233/22 255/234/22
f 251/72/22 255/234/22 256/235/22
f 257/236/22 256/235/22 255/234/22
f 257/236/22 258/237/22 256/235/22
f 258/237/22 259/238/22 256/235/22
f 257/236/22 260/239/22 258/237/22
f 258/237/22 261/240/22 259/238/22
f 262/241/22 258/237/22 260/239/22
f 258/237/22 263/242/22 261/240/22
f 262/241/22 264/243/22 258/237/22
f 258/237/22 265/244/22 263/242/22
f 265/244/22 258/237/22 266/245/22
f 266/245/22 258/237/22 267/246/22
f 267/246/22 258/237/22 268/247/22
f 269/248/22 258/237/22 264/243/22
f 268/247/22 258/237/22 270/249/22
f 258/237/22 269/248/22 270/249/22
f 269/248/22 271/250/22 270/249/22
f 272/118/22 270/249/22 271/250/22
f 273/251/22 272/118/22 271/250/22
f 274/252/22 272/118/22 273/251/22
f 275/253/22 272/118/22 274/252/22
f 278/254/10 277/255/10 276/256/10
f 279/257/10 276/256/10 277/255/10
f 282/258/1 281/259/1 280/260/1
f 283/261/1 280/260/1 281/259/1
f 286/262/29 285/263/29 284/264/29
f 287/265/29 284/264/29 285/263/29
f 290/266/22 289/267/22 288/268/22
f 291/269/22 288/268/22 289/267/22
f 294/270/10 293/271/10 292/272/10
f 295/273/10 292/272/10 293/271/10
f 298/274/29 297/275/29 296/276/29
f 299/277/29 296/276/29 297/275/29
f 302/260/1 301/258/1 300/261/1
f 303/259/1 300/261/1 301/258/1
f 306/275/29 305/277/29 304/278/29
f 307/279/29 304/278/29 305/277/29
f 310/280/1 309/281/1 308/282/1
f 311/283/1 308/282/1 309/281/1
f 314/271/10 313/273/10 312/284/10
f 315/285/10 312/284/10 313/273/10
f 318/286/22 317/287/22 316/288/22
f 319/289/22 316/288/22 317/287/22
f 322/263/29 321/265/29 320/290/29
f 323/291/29 320/290/29 321/265/29
f 326/255/10 325/257/10 324/292/10
f 327/293/10 324/292/10 325/257/10
f 330/281/1 329/283/1 328/280/1
f 331/282/1 328/280/1 329/283/1
f 334/294/5 333/295/5 332/296/5
f 335/297/5 332/296/5 333/295/5
f 333/295/5 336/298/5 335/297/5
f 337/299/5 335/297/5 336/298/5
g Litt_Deckhouse_A1_Tower_Main_RangeFinder_High_details_2
usemtl details_2
f 340/208/5 339/207/5 338/212/5
f 341/210/5 338/212/5 339/207/5
f 344/215/5 343/216/5 342/217/5
f 345/218/5 342/217/5 343/216/5
f 348/266/22 347/267/22 346/268/22
f 349/269/22 346/268/22 347/267/22
f 352/222/5 351/219/5 350/224/5
f 353/221/5 350/224/5 351/219/5
f 356/230/5 355/228/5 354/229/5
f 357/227/5 354/229/5 355/228/5
f 360/286/22 359/287/22 358/288/22
f 361/289/22 358/288/22 359/287/22
