# Blender 5.1.0
# www.blender.org
mtllib Litt_Deckhouse_B1_Base_mod.mtl
o Litt_Deckhouse_B1_Base_mod
v 5.007916 2.923818 30.187897
v 5.734352 2.923924 29.840157
v 5.063241 2.923924 30.271212
v 5.679027 2.923818 29.756840
v -0.000004 2.923818 23.717398
v 6.972487 2.923818 28.926050
v 3.351215 2.923818 31.251999
v 6.972488 2.923816 -6.000029
v -0.000006 2.923818 31.251999
v 0.000000 2.923816 -6.000031
v -3.351226 2.923818 31.251999
v -6.972491 2.923816 -6.000031
v -6.972497 2.923818 28.926050
v -5.679037 2.923818 29.756840
v -5.007928 2.923818 30.187897
v -5.734360 2.923924 29.840157
v -5.063253 2.923924 30.271212
v 5.063242 3.847622 30.271212
v 3.351215 3.847622 31.251999
v 5.007916 3.847622 30.187897
v 3.380563 3.847622 31.351999
v -0.000006 3.847622 31.351999
v -0.000006 3.847622 31.251999
v -3.351226 3.847622 31.251999
v -3.380574 3.847622 31.351999
v -5.063254 3.847622 30.271212
v -5.007928 3.847622 30.187897
v 7.072488 3.847623 28.980671
v 6.972491 3.847620 -6.000031
v 7.072491 3.847620 -6.000031
v 6.972487 3.847623 28.926050
v 5.734353 3.847623 29.840157
v 5.679027 3.847623 29.756840
v 7.072491 3.847620 -6.000031
v 7.072488 0.000003 28.980671
v 7.072488 3.847623 28.980671
v 7.072491 2.923814 -6.000029
v 7.072491 -0.000000 -6.000029
v -0.000006 0.000003 31.351999
v 3.380563 3.847622 31.351999
v 3.380551 0.000003 31.351999
v -0.000006 3.847622 31.351999
v -3.380574 3.847622 31.351999
v -3.380562 0.000003 31.351999
v 5.063241 2.923924 30.271212
v 3.380563 3.847622 31.351999
v 5.063242 3.847622 30.271212
v 3.380551 0.000003 31.351999
v 7.072488 0.000003 28.980671
v 5.734352 2.923924 29.840157
v 7.072488 3.847623 28.980671
v 5.734353 3.847623 29.840157
v 5.634084 -0.000003 29.900667
v 5.729358 2.923923 30.048559
v 5.729380 0.000003 30.048584
v 5.634075 2.923923 29.900642
v 5.729380 0.000003 30.048584
v 5.778316 2.923924 30.017061
v 5.778322 0.000003 30.017061
v 5.729358 2.923923 30.048559
v 5.778322 0.000003 30.017061
v 5.683017 2.923923 29.869116
v 5.683026 -0.000003 29.869141
v 5.778316 2.923924 30.017061
v 5.135049 0.000029 30.222149
v 5.230312 2.923924 30.370041
v 5.230335 0.000028 30.370066
v 5.135032 2.923924 30.222124
v 5.230335 0.000028 30.370066
v 5.279249 2.923924 30.338539
v 5.279270 0.000028 30.338539
v 5.230312 2.923924 30.370041
v 5.279270 0.000028 30.338539
v 5.183980 2.923925 30.190609
v 5.183991 0.000029 30.190622
v 5.279249 2.923924 30.338539
v 5.279270 0.000028 30.338539
v 5.135049 0.000029 30.222149
v 5.230335 0.000028 30.370066
v 5.183991 0.000029 30.190622
v 5.778322 0.000003 30.017061
v 5.634084 -0.000003 29.900667
v 5.729380 0.000003 30.048584
v 5.683026 -0.000003 29.869141
v 5.183980 2.923925 30.190609
v 5.230312 2.923924 30.370041
v 5.135032 2.923924 30.222124
v 5.279249 2.923924 30.338539
v 5.683017 2.923923 29.869116
v 5.729358 2.923923 30.048559
v 5.634075 2.923923 29.900642
v 5.778316 2.923924 30.017061
v 5.314906 0.000001 30.999844
v 3.968353 2.613099 31.864742
v 5.314908 2.613100 30.999847
v 3.968350 0.000001 31.864740
v 4.910086 0.000002 30.369581
v 5.314908 2.613100 30.999847
v 4.910088 2.613100 30.369581
v 5.314906 0.000001 30.999844
v 4.910088 2.613100 30.369581
v 3.968353 2.613099 31.864742
v 3.563533 2.613100 31.234478
v 5.314908 2.613100 30.999847
v 3.563533 2.613100 31.234478
v 3.968350 0.000001 31.864740
v 3.563530 0.000002 31.234474
v 3.968353 2.613099 31.864742
v 7.072490 1.049365 -3.550002
v 7.317412 0.939017 -4.781575
v 7.317423 0.939015 -3.550011
v 7.072477 1.049366 -4.781567
v 7.072490 1.650687 -3.549949
v 7.317411 1.540339 -4.781519
v 7.317423 1.540337 -3.549954
v 7.072477 1.650687 -4.781513
v 7.072490 1.350026 -3.549973
v 7.317410 1.239679 -4.781548
v 7.317423 1.239676 -3.549983
v 7.072477 1.350027 -4.781542
v 7.317412 0.337695 -4.781627
v 7.072490 0.448041 -3.550054
v 7.072477 0.448043 -4.781619
v 7.317423 0.337692 -3.550064
v 7.317412 0.638357 -4.781600
v 7.072490 0.748703 -3.550025
v 7.072477 0.748706 -4.781590
v 7.317426 0.638353 -3.550035
v 7.317410 1.239679 -4.781548
v 7.317422 1.191586 -3.549983
v 7.317423 1.239676 -3.549983
v 7.317410 1.191589 -4.781548
v 7.317423 1.239676 -3.549983
v 7.072488 1.191589 -3.549989
v 7.072490 1.350026 -3.549973
v 7.317422 1.191586 -3.549983
v 7.072477 1.350027 -4.781542
v 7.317410 1.191589 -4.781548
v 7.317410 1.239679 -4.781548
v 7.072477 1.191592 -4.781553
v 7.317411 1.540339 -4.781519
v 7.317422 1.492248 -3.549954
v 7.317423 1.540337 -3.549954
v 7.317411 1.492251 -4.781519
v 7.317423 1.540337 -3.549954
v 7.072488 1.492250 -3.549961
v 7.072490 1.650687 -3.549949
v 7.317422 1.492248 -3.549954
v 7.072477 1.650687 -4.781513
v 7.317411 1.492251 -4.781519
v 7.317411 1.540339 -4.781519
v 7.072477 1.492252 -4.781526
v 7.317412 0.337695 -4.781627
v 7.317424 0.289603 -3.550064
v 7.317423 0.337692 -3.550064
v 7.317413 0.289605 -4.781627
v 7.317423 0.337692 -3.550064
v 7.072491 0.289605 -3.550066
v 7.072490 0.448041 -3.550054
v 7.317424 0.289603 -3.550064
v 7.072477 0.448043 -4.781619
v 7.317413 0.289605 -4.781627
v 7.317412 0.337695 -4.781627
v 7.072478 0.289607 -4.781631
v 7.317412 0.638357 -4.781600
v 7.317424 0.590264 -3.550035
v 7.317426 0.638353 -3.550035
v 7.317411 0.590266 -4.781600
v 7.317426 0.638353 -3.550035
v 7.072490 0.590266 -3.550038
v 7.072490 0.748703 -3.550025
v 7.317424 0.590264 -3.550035
v 7.072477 0.748706 -4.781590
v 7.317411 0.590266 -4.781600
v 7.317412 0.638357 -4.781600
v 7.072477 0.590270 -4.781604
v 7.317412 0.939017 -4.781575
v 7.317423 0.890925 -3.550011
v 7.317423 0.939015 -3.550011
v 7.317411 0.890928 -4.781575
v 7.317423 0.939015 -3.550011
v 7.072490 0.890927 -3.550014
v 7.072490 1.049365 -3.550002
v 7.317423 0.890925 -3.550011
v 7.072477 1.049366 -4.781567
v 7.317411 0.890928 -4.781575
v 7.317412 0.939017 -4.781575
v 7.072477 0.890931 -4.781579
v -6.972497 3.847623 28.926050
v -7.072491 3.847620 -6.000033
v -6.972491 3.847620 -6.000033
v -7.072497 3.847623 28.980671
v -5.734363 3.847623 29.840157
v -5.679037 3.847623 29.756840
v -7.072497 0.000003 28.980671
v -7.072491 3.847620 -6.000033
v -7.072497 3.847623 28.980671
v -7.072491 2.923814 -6.000031
v -7.072491 -0.000000 -6.000031
v -3.380574 3.847622 31.351999
v -5.063253 2.923924 30.271212
v -5.063254 3.847622 30.271212
v -3.380562 0.000003 31.351999
v -7.072497 0.000003 28.980671
v -5.734360 2.923924 29.840157
v -7.072497 3.847623 28.980671
v -5.734363 3.847623 29.840157
v -5.634093 -0.000003 29.900667
v -5.729369 2.923923 30.048559
v -5.634084 2.923923 29.900642
v -5.729392 0.000003 30.048584
v -5.729392 0.000003 30.048584
v -5.778328 2.923924 30.017061
v -5.729369 2.923923 30.048559
v -5.778334 0.000003 30.017061
v -5.778334 0.000003 30.017061
v -5.683025 2.923923 29.869116
v -5.778328 2.923924 30.017061
v -5.683035 -0.000003 29.869141
v -5.135060 0.000029 30.222149
v -5.230324 2.923924 30.370041
v -5.135044 2.923924 30.222124
v -5.230346 0.000028 30.370066
v -5.230346 0.000028 30.370066
v -5.279260 2.923924 30.338539
v -5.230324 2.923924 30.370041
v -5.279281 0.000028 30.338539
v -5.279281 0.000028 30.338539
v -5.183992 2.923925 30.190609
v -5.279260 2.923924 30.338539
v -5.184003 0.000029 30.190622
v -5.279281 0.000028 30.338539
v -5.135060 0.000029 30.222149
v -5.184003 0.000029 30.190622
v -5.230346 0.000028 30.370066
v -5.778334 0.000003 30.017061
v -5.634093 -0.000003 29.900667
v -5.683035 -0.000003 29.869141
v -5.729392 0.000003 30.048584
v -5.183992 2.923925 30.190609
v -5.230324 2.923924 30.370041
v -5.279260 2.923924 30.338539
v -5.135044 2.923924 30.222124
v -5.683025 2.923923 29.869116
v -5.729369 2.923923 30.048559
v -5.778328 2.923924 30.017061
v -5.634084 2.923923 29.900642
v -5.314917 0.000001 30.999844
v -3.968364 2.613099 31.864742
v -3.968361 0.000001 31.864740
v -5.314920 2.613100 30.999847
v -4.910098 0.000002 30.369581
v -5.314920 2.613100 30.999847
v -5.314917 0.000001 30.999844
v -4.910100 2.613100 30.369581
v -4.910100 2.613100 30.369581
v -3.968364 2.613099 31.864742
v -5.314920 2.613100 30.999847
v -3.563544 2.613100 31.234478
v -3.563544 2.613100 31.234478
v -3.968361 0.000001 31.864740
v -3.968364 2.613099 31.864742
v -3.563541 0.000002 31.234474
v -7.072492 1.049365 -3.550004
v -7.317414 0.939017 -4.781578
v -7.072479 1.049366 -4.781569
v -7.317425 0.939015 -3.550013
v -7.072492 1.650687 -3.549951
v -7.317413 1.540339 -4.781522
v -7.072479 1.650687 -4.781516
v -7.317425 1.540337 -3.549957
v -7.072492 1.350026 -3.549976
v -7.317412 1.239679 -4.781549
v -7.072479 1.350027 -4.781544
v -7.317425 1.239676 -3.549985
v -7.317414 0.337695 -4.781631
v -7.072492 0.448041 -3.550056
v -7.317425 0.337692 -3.550066
v -7.072479 0.448043 -4.781622
v -7.317414 0.638357 -4.781603
v -7.072492 0.748703 -3.550027
v -7.317428 0.638353 -3.550036
v -7.072479 0.748706 -4.781594
v -7.317412 1.239679 -4.781549
v -7.317424 1.191586 -3.549985
v -7.317412 1.191589 -4.781549
v -7.317425 1.239676 -3.549985
v -7.317425 1.239676 -3.549985
v -7.072491 1.191589 -3.549991
v -7.317424 1.191586 -3.549985
v -7.072492 1.350026 -3.549976
v -7.072479 1.350027 -4.781544
v -7.317412 1.191589 -4.781549
v -7.072479 1.191592 -4.781556
v -7.317412 1.239679 -4.781549
v -7.317413 1.540339 -4.781522
v -7.317424 1.492248 -3.549957
v -7.317413 1.492251 -4.781522
v -7.317425 1.540337 -3.549957
v -7.317425 1.540337 -3.549957
v -7.072491 1.492250 -3.549964
v -7.317424 1.492248 -3.549957
v -7.072492 1.650687 -3.549951
v -7.072479 1.650687 -4.781516
v -7.317413 1.492251 -4.781522
v -7.072479 1.492252 -4.781528
v -7.317413 1.540339 -4.781522
v -7.317414 0.337695 -4.781631
v -7.317427 0.289603 -3.550066
v -7.317416 0.289605 -4.781631
v -7.317425 0.337692 -3.550066
v -7.317425 0.337692 -3.550066
v -7.072493 0.289605 -3.550067
v -7.317427 0.289603 -3.550066
v -7.072492 0.448041 -3.550056
v -7.072479 0.448043 -4.781622
v -7.317416 0.289605 -4.781631
v -7.072481 0.289607 -4.781633
v -7.317414 0.337695 -4.781631
v -7.317414 0.638357 -4.781603
v -7.317427 0.590264 -3.550036
v -7.317413 0.590266 -4.781603
v -7.317428 0.638353 -3.550036
v -7.317428 0.638353 -3.550036
v -7.072492 0.590266 -3.550040
v -7.317427 0.590264 -3.550036
v -7.072492 0.748703 -3.550027
v -7.072479 0.748706 -4.781594
v -7.317413 0.590266 -4.781603
v -7.072479 0.590270 -4.781606
v -7.317414 0.638357 -4.781603
v -7.317414 0.939017 -4.781578
v -7.317425 0.890925 -3.550013
v -7.317413 0.890928 -4.781578
v -7.317425 0.939015 -3.550013
v -7.317425 0.939015 -3.550013
v -7.072492 0.890927 -3.550015
v -7.317425 0.890925 -3.550013
v -7.072492 1.049365 -3.550004
v -7.072479 1.049366 -4.781569
v -7.317413 0.890928 -4.781578
v -7.072479 0.890931 -4.781581
v -7.317414 0.939017 -4.781578
v -6.972491 2.923816 -6.000031
v -7.072491 3.847620 -6.000033
v -7.072491 2.923814 -6.000031
v -6.972491 3.847620 -6.000033
v 5.810653 2.923811 -4.919661
v 5.810640 4.410783 -3.452811
v 5.810653 4.410785 -4.919661
v 5.810640 2.923810 -3.452809
v 5.810640 2.923810 -3.452809
v 4.847754 4.410783 -3.452811
v 5.810640 4.410783 -3.452811
v 4.847753 2.923810 -3.452811
v 5.810653 4.410785 -4.919661
v 4.847754 4.410783 -3.452811
v 4.847764 4.410785 -4.919661
v 5.810640 4.410783 -3.452811
v 5.810653 4.410785 -4.919661
v 4.847764 2.923811 -4.919661
v 5.810653 2.923811 -4.919661
v 4.847764 4.410785 -4.919661
v 4.847764 2.923811 -4.919661
v 4.847754 4.410783 -3.452811
v 4.847753 2.923810 -3.452811
v 4.847764 4.410785 -4.919661
v -7.072491 2.923814 -6.000031
v -7.072491 -0.000000 -6.000031
v -6.972491 2.923816 -6.000031
v -4.714993 2.463763 -6.000030
v -4.714993 0.000001 -6.000029
v -2.357497 2.463764 -6.000029
v 0.000000 2.923816 -6.000031
v 0.000000 1.741917 -6.000028
v -1.178748 1.741917 -6.000028
v -2.357497 0.000002 -6.000028
v -1.178748 0.000003 -6.000028
v 2.357497 2.463764 -6.000028
v 1.178749 0.000002 -6.000028
v 2.357497 0.000002 -6.000028
v 1.178749 1.741917 -6.000028
v 0.000000 1.741917 -6.000028
v 0.000000 2.923816 -6.000031
v 6.972488 2.923816 -6.000029
v 4.714994 2.463763 -6.000028
v 7.072491 -0.000000 -6.000029
v 4.714994 0.000001 -6.000027
v 7.072491 2.923814 -6.000029
v -0.457352 4.232597 -4.226323
v 0.457353 3.650435 -4.967338
v 0.457352 4.232597 -4.226326
v -0.457352 3.650434 -4.967332
v -0.457352 2.923811 -4.967338
v 0.457353 3.650435 -4.967338
v -0.457352 3.650434 -4.967332
v 0.457353 2.923813 -4.967338
v 0.457353 2.923813 -4.967338
v 0.457352 4.232597 -4.226326
v 0.457353 3.650435 -4.967338
v 0.457352 4.232592 -3.485311
v 0.457352 2.923809 -3.485311
v -0.457353 2.923810 -3.485307
v -0.457352 4.232597 -4.226323
v -0.457353 4.232593 -3.485308
v -0.457352 3.650434 -4.967332
v -0.457352 2.923811 -4.967338
v -0.457353 4.232593 -3.485308
v 0.457352 4.232597 -4.226326
v 0.457352 4.232592 -3.485311
v -0.457352 4.232597 -4.226323
v -0.457353 2.923810 -3.485307
v 0.457352 4.232592 -3.485311
v 0.457352 2.923809 -3.485311
v -0.457353 4.232593 -3.485308
v -0.000000 0.000003 -5.591182
v -1.178748 1.277889 -5.591182
v -1.178748 0.000003 -5.591182
v -0.000000 1.277889 -5.591182
v 1.178749 1.277889 -5.591182
v -0.000000 1.277889 -5.591182
v 1.178749 0.000002 -5.591181
v -1.178748 0.000003 -6.000028
v -1.178748 1.277889 -5.591182
v -1.178748 1.741917 -6.000028
v -1.178748 0.000003 -5.591182
v -1.178748 1.741917 -6.000028
v -0.000000 1.277889 -5.591182
v 0.000000 1.741917 -6.000028
v -1.178748 1.277889 -5.591182
v 0.000000 1.741917 -6.000028
v 1.178749 1.277889 -5.591182
v 1.178749 1.741917 -6.000028
v -0.000000 1.277889 -5.591182
v 1.178749 1.741917 -6.000028
v 1.178749 0.000002 -5.591181
v 1.178749 0.000002 -6.000028
v 1.178749 1.277889 -5.591182
v 5.810653 2.923811 -2.748133
v 5.810640 4.410783 -1.281284
v 5.810653 4.410787 -2.748134
v 5.810640 2.923811 -1.281282
v 5.810640 2.923811 -1.281282
v 4.847754 4.410783 -1.281284
v 5.810640 4.410783 -1.281284
v 4.847753 2.923811 -1.281284
v 5.810653 4.410787 -2.748134
v 4.847754 4.410783 -1.281284
v 4.847764 4.410787 -2.748134
v 5.810640 4.410783 -1.281284
v 5.810653 4.410787 -2.748134
v 4.847764 2.923811 -2.748134
v 5.810653 2.923811 -2.748133
v 4.847764 4.410787 -2.748134
v 4.847764 2.923811 -2.748134
v 4.847754 4.410783 -1.281284
v 4.847753 2.923811 -1.281284
v 4.847764 4.410787 -2.748134
v -5.810655 2.923809 -4.919662
v -5.810642 4.410781 -3.452813
v -5.810642 2.923809 -3.452813
v -5.810655 4.410783 -4.919663
v -5.810642 2.923809 -3.452813
v -4.847755 4.410781 -3.452813
v -4.847754 2.923809 -3.452811
v -5.810642 4.410781 -3.452813
v -5.810655 4.410783 -4.919663
v -4.847755 4.410781 -3.452813
v -5.810642 4.410781 -3.452813
v -4.847766 4.410783 -4.919662
v -5.810655 4.410783 -4.919663
v -4.847766 2.923809 -4.919662
v -4.847766 4.410783 -4.919662
v -5.810655 2.923809 -4.919662
v -4.847766 2.923809 -4.919662
v -4.847755 4.410781 -3.452813
v -4.847766 4.410783 -4.919662
v -4.847754 2.923809 -3.452811
v -5.810655 2.923810 -2.748136
v -5.810642 4.410781 -1.281286
v -5.810642 2.923810 -1.281286
v -5.810655 4.410783 -2.748136
v -5.810642 2.923810 -1.281286
v -4.847755 4.410781 -1.281286
v -4.847754 2.923810 -1.281284
v -5.810642 4.410781 -1.281286
v -5.810655 4.410783 -2.748136
v -4.847755 4.410781 -1.281286
v -5.810642 4.410781 -1.281286
v -4.847766 4.410783 -2.748136
v -5.810655 4.410783 -2.748136
v -4.847766 2.923810 -2.748135
v -4.847766 4.410783 -2.748136
v -5.810655 2.923810 -2.748136
v -4.847766 2.923810 -2.748135
v -4.847755 4.410781 -1.281286
v -4.847766 4.410783 -2.748136
v -4.847754 2.923810 -1.281284
v 7.072490 1.049366 -1.354109
v 7.317412 0.939018 -2.585683
v 7.317423 0.939016 -1.354118
v 7.072477 1.049366 -2.585674
v 7.072490 1.650688 -1.354056
v 7.317411 1.540339 -2.585629
v 7.317423 1.540338 -1.354063
v 7.072477 1.650689 -2.585621
v 7.072490 1.350027 -1.354082
v 7.317410 1.239679 -2.585656
v 7.317423 1.239677 -1.354091
v 7.072477 1.350027 -2.585649
v 7.317412 0.337695 -2.585737
v 7.072490 0.448042 -1.354162
v 7.072477 0.448044 -2.585728
v 7.317423 0.337693 -1.354172
v 7.317412 0.638357 -2.585709
v 7.072490 0.748704 -1.354135
v 7.072477 0.748706 -2.585700
v 7.317426 0.638355 -1.354144
v 7.317410 1.239679 -2.585656
v 7.317422 1.191588 -1.354091
v 7.317423 1.239677 -1.354091
v 7.317410 1.191590 -2.585656
v 7.317423 1.239677 -1.354091
v 7.072488 1.191590 -1.354096
v 7.072490 1.350027 -1.354082
v 7.317422 1.191588 -1.354091
v 7.072477 1.350027 -2.585649
v 7.317410 1.191590 -2.585656
v 7.317410 1.239679 -2.585656
v 7.072477 1.191592 -2.585661
v 7.317411 1.540339 -2.585629
v 7.317422 1.492249 -1.354063
v 7.317423 1.540338 -1.354063
v 7.317411 1.492252 -2.585629
v 7.317423 1.540338 -1.354063
v 7.072488 1.492251 -1.354069
v 7.072490 1.650688 -1.354056
v 7.317422 1.492249 -1.354063
v 7.072477 1.650689 -2.585621
v 7.317411 1.492252 -2.585629
v 7.317411 1.540339 -2.585629
v 7.072477 1.492253 -2.585635
v 7.317412 0.337695 -2.585737
v 7.317424 0.289604 -1.354172
v 7.317423 0.337693 -1.354172
v 7.317413 0.289605 -2.585737
v 7.317423 0.337693 -1.354172
v 7.072491 0.289606 -1.354175
v 7.072490 0.448042 -1.354162
v 7.317424 0.289604 -1.354172
v 7.072477 0.448044 -2.585728
v 7.317413 0.289605 -2.585737
v 7.317412 0.337695 -2.585737
v 7.072478 0.289608 -2.585740
v 7.317412 0.638357 -2.585709
v 7.317424 0.590266 -1.354144
v 7.317426 0.638355 -1.354144
v 7.317411 0.590267 -2.585709
v 7.317426 0.638355 -1.354144
v 7.072490 0.590267 -1.354146
v 7.072490 0.748704 -1.354135
v 7.317424 0.590266 -1.354144
v 7.072477 0.748706 -2.585700
v 7.317411 0.590267 -2.585709
v 7.317412 0.638357 -2.585709
v 7.072477 0.590270 -2.585711
v 7.317412 0.939018 -2.585683
v 7.317423 0.890926 -1.354118
v 7.317423 0.939016 -1.354118
v 7.317411 0.890928 -2.585683
v 7.317423 0.939016 -1.354118
v 7.072490 0.890928 -1.354122
v 7.072490 1.049366 -1.354109
v 7.317423 0.890926 -1.354118
v 7.072477 1.049366 -2.585674
v 7.317411 0.890928 -2.585683
v 7.317412 0.939018 -2.585683
v 7.072477 0.890931 -2.585687
v -7.072492 1.049366 -1.354112
v -7.317414 0.939018 -2.585685
v -7.072479 1.049366 -2.585677
v -7.317425 0.939016 -1.354120
v -7.072492 1.650688 -1.354059
v -7.317413 1.540339 -2.585631
v -7.072479 1.650689 -2.585625
v -7.317425 1.540338 -1.354065
v -7.072492 1.350027 -1.354084
v -7.317412 1.239679 -2.585659
v -7.072479 1.350027 -2.585652
v -7.317425 1.239677 -1.354094
v -7.317414 0.337695 -2.585739
v -7.072492 0.448042 -1.354164
v -7.317425 0.337693 -1.354174
v -7.072479 0.448044 -2.585730
v -7.317414 0.638357 -2.585711
v -7.072492 0.748704 -1.354136
v -7.317428 0.638355 -1.354146
v -7.072479 0.748706 -2.585701
v -7.317412 1.239679 -2.585659
v -7.317424 1.191588 -1.354094
v -7.317412 1.191590 -2.585659
v -7.317425 1.239677 -1.354094
v -7.317425 1.239677 -1.354094
v -7.072491 1.191590 -1.354098
v -7.317424 1.191588 -1.354094
v -7.072492 1.350027 -1.354084
v -7.072479 1.350027 -2.585652
v -7.317412 1.191590 -2.585659
v -7.072479 1.191592 -2.585663
v -7.317412 1.239679 -2.585659
v -7.317413 1.540339 -2.585631
v -7.317424 1.492249 -1.354065
v -7.317413 1.492252 -2.585631
v -7.317425 1.540338 -1.354065
v -7.317425 1.540338 -1.354065
v -7.072491 1.492251 -1.354072
v -7.317424 1.492249 -1.354065
v -7.072492 1.650688 -1.354059
v -7.072479 1.650689 -2.585625
v -7.317413 1.492252 -2.585631
v -7.072479 1.492253 -2.585637
v -7.317413 1.540339 -2.585631
v -7.317414 0.337695 -2.585739
v -7.317427 0.289604 -1.354174
v -7.317416 0.289605 -2.585739
v -7.317425 0.337693 -1.354174
v -7.317425 0.337693 -1.354174
v -7.072493 0.289606 -1.354177
v -7.317427 0.289604 -1.354174
v -7.072492 0.448042 -1.354164
v -7.072479 0.448044 -2.585730
v -7.317416 0.289605 -2.585739
v -7.072481 0.289608 -2.585742
v -7.317414 0.337695 -2.585739
v -7.317414 0.638357 -2.585711
v -7.317427 0.590266 -1.354146
v -7.317413 0.590267 -2.585711
v -7.317428 0.638355 -1.354146
v -7.317428 0.638355 -1.354146
v -7.072492 0.590267 -1.354148
v -7.317427 0.590266 -1.354146
v -7.072492 0.748704 -1.354136
v -7.072479 0.748706 -2.585701
v -7.317413 0.590267 -2.585711
v -7.072479 0.590270 -2.585713
v -7.317414 0.638357 -2.585711
v -7.317414 0.939018 -2.585685
v -7.317425 0.890926 -1.354120
v -7.317413 0.890928 -2.585685
v -7.317425 0.939016 -1.354120
v -7.317425 0.939016 -1.354120
v -7.072492 0.890928 -1.354124
v -7.317425 0.890926 -1.354120
v -7.072492 1.049366 -1.354112
v -7.072479 1.049366 -2.585677
v -7.317413 0.890928 -2.585685
v -7.072479 0.890931 -2.585689
v -7.317414 0.939018 -2.585685
v 5.679027 2.923818 29.756840
v 6.972487 3.847623 28.926050
v 5.679027 3.847623 29.756840
v 6.972487 2.923818 28.926050
v -0.000006 3.847622 31.251999
v 3.351215 2.923818 31.251999
v 3.351215 3.847622 31.251999
v -0.000006 2.923818 31.251999
v -3.351226 2.923818 31.251999
v -3.351226 3.847622 31.251999
v 3.351215 2.923818 31.251999
v 5.007916 3.847622 30.187897
v 3.351215 3.847622 31.251999
v 5.007916 2.923818 30.187897
v -6.972497 3.847623 28.926050
v -5.679037 2.923818 29.756840
v -5.679037 3.847623 29.756840
v -6.972497 2.923818 28.926050
v -3.351226 2.923818 31.251999
v -5.007928 3.847622 30.187897
v -5.007928 2.923818 30.187897
v -3.351226 3.847622 31.251999
v 6.972487 2.923818 28.926050
v 6.972491 3.847620 -6.000031
v 6.972487 3.847623 28.926050
v 6.972488 2.923816 -6.000029
v -6.972497 3.847623 28.926050
v -6.972491 2.923816 -6.000031
v -6.972497 2.923818 28.926050
v -6.972491 3.847620 -6.000033
v 4.714994 2.463763 -4.326744
v 2.357497 0.000002 -4.326744
v 4.714994 0.000002 -4.326744
v 2.357497 1.277889 -4.326744
v 2.357497 2.463764 -4.326744
v -2.357497 1.277889 -4.326744
v -4.714993 0.000002 -4.326744
v -2.357497 0.000002 -4.326744
v -2.357497 2.463764 -4.326744
v -4.714993 2.463763 -4.326746
v 2.357497 2.463764 -6.000028
v 4.714994 2.463763 -4.326744
v 4.714994 2.463763 -6.000028
v 2.357497 2.463764 -4.326744
v 4.714994 2.463763 -6.000028
v 4.714994 0.000002 -4.326744
v 4.714994 0.000001 -6.000027
v 4.714994 2.463763 -4.326744
v 2.357497 2.463764 -6.000028
v 2.357497 1.277889 -4.326744
v 2.357497 2.463764 -4.326744
v 2.357497 0.000002 -4.326744
v 2.357497 0.000002 -6.000028
v -4.714993 2.463763 -6.000030
v -2.357497 2.463764 -4.326744
v -2.357497 2.463764 -6.000029
v -4.714993 2.463763 -4.326746
v -2.357497 0.000002 -6.000028
v -2.357497 1.277889 -4.326744
v -2.357497 0.000002 -4.326744
v -2.357497 2.463764 -6.000029
v -2.357497 2.463764 -4.326744
v -4.714993 0.000001 -6.000029
v -4.714993 2.463763 -4.326746
v -4.714993 2.463763 -6.000030
v -4.714993 0.000002 -4.326744
v 5.734352 2.923924 29.840157
v 5.679027 3.847623 29.756840
v 5.734353 3.847623 29.840157
v 5.679027 2.923818 29.756840
v 5.063241 2.923924 30.271212
v 5.007916 3.847622 30.187897
v 5.007916 2.923818 30.187897
v 5.063242 3.847622 30.271212
v -5.679037 2.923818 29.756840
v -5.734363 3.847623 29.840157
v -5.679037 3.847623 29.756840
v -5.734360 2.923924 29.840157
v -5.063253 2.923924 30.271212
v -5.007928 3.847622 30.187897
v -5.063254 3.847622 30.271212
v -5.007928 2.923818 30.187897
v 5.268772 0.781147 30.322229
v 5.644590 0.781147 29.916952
v 5.194486 0.781147 30.206905
v 5.718870 0.781147 30.032274
v 5.268782 0.831253 30.322243
v 5.718870 0.781147 30.032274
v 5.268772 0.781147 30.322229
v 5.718881 0.831251 30.032288
v 5.194486 0.831253 30.206905
v 5.718881 0.831251 30.032288
v 5.268782 0.831253 30.322243
v 5.644590 0.831253 29.916952
v 5.268782 1.098438 30.322243
v 5.644590 1.098438 29.916952
v 5.194486 1.098438 30.206905
v 5.718881 1.098438 30.032288
v 5.268776 1.148544 30.322243
v 5.718881 1.098438 30.032288
v 5.268782 1.098438 30.322243
v 5.718874 1.148544 30.032288
v 5.194486 1.148544 30.206905
v 5.718874 1.148544 30.032288
v 5.268776 1.148544 30.322243
v 5.644590 1.148544 29.916952
v 5.268788 1.415731 30.322254
v 5.644590 1.415731 29.916952
v 5.194486 1.415731 30.206905
v 5.718886 1.415729 30.032299
v 5.268782 1.465836 30.322243
v 5.718886 1.415729 30.032299
v 5.268788 1.415731 30.322254
v 5.718881 1.465836 30.032288
v 5.194486 1.465835 30.206905
v 5.718881 1.465836 30.032288
v 5.268782 1.465836 30.322243
v 5.644590 1.465835 29.916952
v 5.268772 0.146553 30.322229
v 5.644590 0.146553 29.916952
v 5.194486 0.146553 30.206905
v 5.718870 0.146553 30.032274
v 5.268782 0.196659 30.322243
v 5.718870 0.146553 30.032274
v 5.268772 0.146553 30.322229
v 5.718881 0.196657 30.032288
v 5.194486 0.196659 30.206905
v 5.718881 0.196657 30.032288
v 5.268782 0.196659 30.322243
v 5.644590 0.196659 29.916952
v 5.268782 0.463844 30.322243
v 5.644590 0.463844 29.916952
v 5.194486 0.463844 30.206905
v 5.718881 0.463844 30.032288
v 5.268772 0.513950 30.322229
v 5.718881 0.463844 30.032288
v 5.268782 0.463844 30.322243
v 5.718870 0.513950 30.032274
v 5.194486 0.513950 30.206905
v 5.718870 0.513950 30.032274
v 5.268772 0.513950 30.322229
v 5.644590 0.513950 29.916952
v 5.268782 1.733013 30.322243
v 5.644590 1.733013 29.916952
v 5.194486 1.733013 30.206905
v 5.718881 1.733013 30.032288
v 5.268772 1.783119 30.322229
v 5.718881 1.733013 30.032288
v 5.268782 1.733013 30.322243
v 5.718870 1.783119 30.032274
v 5.194486 1.783119 30.206905
v 5.718870 1.783119 30.032274
v 5.268772 1.783119 30.322229
v 5.644590 1.783119 29.916952
v 5.268788 2.050289 30.322254
v 5.644590 2.050289 29.916952
v 5.194486 2.050289 30.206905
v 5.718886 2.050287 30.032299
v 5.268782 2.100394 30.322243
v 5.718886 2.050287 30.032299
v 5.268788 2.050289 30.322254
v 5.718881 2.100394 30.032288
v 5.194486 2.100393 30.206905
v 5.718881 2.100394 30.032288
v 5.268782 2.100394 30.322243
v 5.644590 2.100392 29.916952
v 5.268770 2.684884 30.322229
v 5.644589 2.684884 29.916952
v 5.194484 2.684884 30.206905
v 5.718868 2.684884 30.032274
v 5.268780 2.734990 30.322245
v 5.718868 2.684884 30.032274
v 5.268770 2.684884 30.322229
v 5.718878 2.734988 30.032288
v 5.194484 2.734990 30.206905
v 5.718878 2.734988 30.032288
v 5.268780 2.734990 30.322245
v 5.644589 2.734990 29.916952
v 5.268780 2.367582 30.322245
v 5.644589 2.367581 29.916952
v 5.194484 2.367582 30.206905
v 5.718878 2.367582 30.032288
v 5.268770 2.417687 30.322229
v 5.718878 2.367582 30.032288
v 5.268780 2.367582 30.322245
v 5.718868 2.417687 30.032274
v 5.194484 2.417687 30.206905
v 5.718868 2.417687 30.032274
v 5.268770 2.417687 30.322229
v 5.644589 2.417687 29.916952
v 7.317422 1.191586 -3.549983
v 7.072477 1.191592 -4.781553
v 7.072488 1.191589 -3.549989
v 7.317410 1.191589 -4.781548
v 7.317422 1.492248 -3.549954
v 7.072477 1.492252 -4.781526
v 7.072488 1.492250 -3.549961
v 7.317411 1.492251 -4.781519
v 7.317424 0.289603 -3.550064
v 7.072478 0.289607 -4.781631
v 7.072491 0.289605 -3.550066
v 7.317413 0.289605 -4.781627
v 7.072477 0.590270 -4.781604
v 7.317424 0.590264 -3.550035
v 7.317411 0.590266 -4.781600
v 7.072490 0.590266 -3.550038
v 7.072477 0.890931 -4.781579
v 7.317423 0.890925 -3.550011
v 7.317411 0.890928 -4.781575
v 7.072490 0.890927 -3.550014
v -5.268783 0.781147 30.322229
v -5.644600 0.781147 29.916952
v -5.718882 0.781147 30.032274
v -5.194497 0.781147 30.206905
v -5.268794 0.831253 30.322243
v -5.718882 0.781147 30.032274
v -5.718892 0.831251 30.032288
v -5.268783 0.781147 30.322229
v -5.194497 0.831253 30.206905
v -5.718892 0.831251 30.032288
v -5.644600 0.831253 29.916952
v -5.268794 0.831253 30.322243
v -5.268794 1.098438 30.322243
v -5.644600 1.098438 29.916952
v -5.718892 1.098438 30.032288
v -5.194497 1.098438 30.206905
v -5.268788 1.148544 30.322243
v -5.718892 1.098438 30.032288
v -5.718886 1.148544 30.032288
v -5.268794 1.098438 30.322243
v -5.194497 1.148544 30.206905
v -5.718886 1.148544 30.032288
v -5.644600 1.148544 29.916952
v -5.268788 1.148544 30.322243
v -5.268800 1.415731 30.322254
v -5.644600 1.415731 29.916952
v -5.718898 1.415729 30.032299
v -5.194497 1.415731 30.206905
v -5.268794 1.465836 30.322243
v -5.718898 1.415729 30.032299
v -5.718892 1.465836 30.032288
v -5.268800 1.415731 30.322254
v -5.194497 1.465835 30.206905
v -5.718892 1.465836 30.032288
v -5.644600 1.465835 29.916952
v -5.268794 1.465836 30.322243
v -5.268783 0.146553 30.322229
v -5.644600 0.146553 29.916952
v -5.718882 0.146553 30.032274
v -5.194497 0.146553 30.206905
v -5.268794 0.196659 30.322243
v -5.718882 0.146553 30.032274
v -5.718892 0.196657 30.032288
v -5.268783 0.146553 30.322229
v -5.194497 0.196659 30.206905
v -5.718892 0.196657 30.032288
v -5.644600 0.196659 29.916952
v -5.268794 0.196659 30.322243
v -5.268794 0.463844 30.322243
v -5.644600 0.463844 29.916952
v -5.718892 0.463844 30.032288
v -5.194497 0.463844 30.206905
v -5.268783 0.513950 30.322229
v -5.718892 0.463844 30.032288
v -5.718882 0.513950 30.032274
v -5.268794 0.463844 30.322243
v -5.194497 0.513950 30.206905
v -5.718882 0.513950 30.032274
v -5.644600 0.513950 29.916952
v -5.268783 0.513950 30.322229
v -5.268794 1.733013 30.322243
v -5.644600 1.733013 29.916952
v -5.718892 1.733013 30.032288
v -5.194497 1.733013 30.206905
v -5.268783 1.783119 30.322229
v -5.718892 1.733013 30.032288
v -5.718882 1.783119 30.032274
v -5.268794 1.733013 30.322243
v -5.194497 1.783119 30.206905
v -5.718882 1.783119 30.032274
v -5.644600 1.783119 29.916952
v -5.268783 1.783119 30.322229
v -5.268800 2.050289 30.322254
v -5.644600 2.050289 29.916952
v -5.718898 2.050287 30.032299
v -5.194497 2.050289 30.206905
v -5.268794 2.100394 30.322243
v -5.718898 2.050287 30.032299
v -5.718892 2.100394 30.032288
v -5.268800 2.050289 30.322254
v -5.194497 2.100393 30.206905
v -5.718892 2.100394 30.032288
v -5.644600 2.100392 29.916952
v -5.268794 2.100394 30.322243
v -5.268782 2.684884 30.322229
v -5.644599 2.684884 29.916952
v -5.718879 2.684884 30.032274
v -5.194496 2.684884 30.206905
v -5.268791 2.734990 30.322245
v -5.718879 2.684884 30.032274
v -5.718889 2.734988 30.032288
v -5.268782 2.684884 30.322229
v -5.194496 2.734990 30.206905
v -5.718889 2.734988 30.032288
v -5.644599 2.734990 29.916952
v -5.268791 2.734990 30.322245
v -5.268791 2.367582 30.322245
v -5.644599 2.367581 29.916952
v -5.718889 2.367582 30.032288
v -5.194496 2.367582 30.206905
v -5.268782 2.417687 30.322229
v -5.718889 2.367582 30.032288
v -5.718879 2.417687 30.032274
v -5.268791 2.367582 30.322245
v -5.194496 2.417687 30.206905
v -5.718879 2.417687 30.032274
v -5.644599 2.417687 29.916952
v -5.268782 2.417687 30.322229
v -7.317424 1.191586 -3.549985
v -7.072479 1.191592 -4.781556
v -7.317412 1.191589 -4.781549
v -7.072491 1.191589 -3.549991
v -7.317424 1.492248 -3.549957
v -7.072479 1.492252 -4.781528
v -7.317413 1.492251 -4.781522
v -7.072491 1.492250 -3.549964
v -7.317427 0.289603 -3.550066
v -7.072481 0.289607 -4.781633
v -7.317416 0.289605 -4.781631
v -7.072493 0.289605 -3.550067
v -7.072479 0.590270 -4.781606
v -7.317427 0.590264 -3.550036
v -7.072492 0.590266 -3.550040
v -7.317413 0.590266 -4.781603
v -7.072479 0.890931 -4.781581
v -7.317425 0.890925 -3.550013
v -7.072492 0.890927 -3.550015
v -7.317413 0.890928 -4.781578
v 7.317422 1.191588 -1.354091
v 7.072477 1.191592 -2.585661
v 7.072488 1.191590 -1.354096
v 7.317410 1.191590 -2.585656
v 7.317422 1.492249 -1.354063
v 7.072477 1.492253 -2.585635
v 7.072488 1.492251 -1.354069
v 7.317411 1.492252 -2.585629
v 7.317424 0.289604 -1.354172
v 7.072478 0.289608 -2.585740
v 7.072491 0.289606 -1.354175
v 7.317413 0.289605 -2.585737
v 7.072477 0.590270 -2.585711
v 7.317424 0.590266 -1.354144
v 7.317411 0.590267 -2.585709
v 7.072490 0.590267 -1.354146
v 7.072477 0.890931 -2.585687
v 7.317423 0.890926 -1.354118
v 7.317411 0.890928 -2.585683
v 7.072490 0.890928 -1.354122
v -7.317424 1.191588 -1.354094
v -7.072479 1.191592 -2.585663
v -7.317412 1.191590 -2.585659
v -7.072491 1.191590 -1.354098
v -7.317424 1.492249 -1.354065
v -7.072479 1.492253 -2.585637
v -7.317413 1.492252 -2.585631
v -7.072491 1.492251 -1.354072
v -7.317427 0.289604 -1.354174
v -7.072481 0.289608 -2.585742
v -7.317416 0.289605 -2.585739
v -7.072493 0.289606 -1.354177
v -7.072479 0.590270 -2.585713
v -7.317427 0.590266 -1.354146
v -7.072492 0.590267 -1.354148
v -7.317413 0.590267 -2.585711
v -7.072479 0.890931 -2.585689
v -7.317425 0.890926 -1.354120
v -7.072492 0.890928 -1.354124
v -7.317413 0.890928 -2.585685
v 7.072491 2.923814 -6.000029
v 6.972491 3.847620 -6.000031
v 6.972488 2.923816 -6.000029
v 7.072491 3.847620 -6.000031
vn -0.0006 1.0000 -0.0009
vn -0.0002 1.0000 -0.0003
vn -0.0000 1.0000 -0.0000
vn 0.0002 1.0000 -0.0003
vn 0.0006 1.0000 -0.0009
vn 1.0000 -0.0000 -0.0000
vn -0.0000 -0.0000 1.0000
vn 0.5404 -0.0000 0.8414
vn -0.8406 -0.0000 0.5416
vn -0.8407 -0.0000 0.5415
vn 0.5415 -0.0000 0.8407
vn 0.5411 -0.0000 0.8410
vn 0.8407 -0.0000 -0.5416
vn 0.8407 -0.0000 -0.5415
vn 0.5416 -0.0000 0.8406
vn 0.5413 -0.0000 0.8408
vn 0.8407 -0.0000 -0.5414
vn -0.0000 -1.0000 -0.0000
vn 0.8414 -0.0000 -0.5404
vn -0.8414 -0.0000 0.5404
vn 0.4108 0.9117 -0.0000
vn -0.0000 -0.0001 1.0000
vn -0.0000 -0.0000 -1.0000
vn -0.0000 0.0001 -1.0000
vn -1.0000 -0.0000 -0.0000
vn -0.5404 -0.0000 0.8414
vn 0.8407 -0.0000 0.5415
vn 0.8406 -0.0000 0.5416
vn -0.5410 -0.0000 0.8410
vn -0.5411 -0.0000 0.8410
vn -0.5415 -0.0000 0.8407
vn -0.8407 -0.0000 -0.5415
vn -0.8406 -0.0000 -0.5416
vn 0.8407 -0.0000 0.5416
vn -0.5413 -0.0000 0.8408
vn -0.5416 -0.0000 0.8406
vn -0.8407 -0.0000 -0.5414
vn -0.8414 -0.0000 -0.5404
vn 0.8414 -0.0000 0.5404
vn -0.4108 0.9117 -0.0000
vn -0.0000 0.7864 -0.6178
vn -0.0000 0.7863 -0.6178
vn -0.0000 -0.6611 -0.7503
vn -0.5404 -0.0000 -0.8414
vn 0.5404 -0.0000 -0.8414
vn -0.8331 -0.0000 0.5532
vn 0.8331 -0.0000 -0.5532
vn 0.8331 -0.0000 0.5532
vn -0.8331 -0.0000 -0.5532
vn 0.5416 -0.0003 0.8407
vn 0.5416 -0.0004 0.8407
vn 0.5416 0.0001 0.8407
vn 0.5416 0.0003 0.8407
vn 0.5416 0.0002 0.8407
vn 0.5416 0.0004 0.8407
vn -0.5416 -0.0004 0.8407
vn -0.5416 0.0001 0.8407
vn -0.5416 -0.0000 0.8407
vn -0.5416 0.0003 0.8407
vn -0.5416 0.0004 0.8407
vn -0.5416 -0.0003 0.8407
vt 0.557362 7.703263
vt 0.567572 7.709753
vt 0.556520 7.704517
vt 0.566730 7.711007
vt 0.480330 7.801930
vt 0.586409 7.723515
vt 0.531315 7.688498
vt 0.586410 8.158995
vt 0.480330 7.688498
vt 0.480331 8.158995
vt 0.429344 7.688498
vt 0.374252 8.158995
vt 0.374251 7.723515
vt 0.393929 7.711007
vt 0.404140 7.704517
vt 0.393088 7.709753
vt 0.403298 7.703263
vt 0.531761 7.686992
vt 0.480330 7.686992
vt 0.428898 7.686992
vt 0.587931 8.158995
vt 0.587930 7.722692
vt 7.722692 0.416056
vt 7.722692 0.357328
vt 8.158995 0.416056
vt 8.158995 0.401956
vt 8.158995 0.357329
vt 0.531761 0.357328
vt 0.531761 0.416056
vt 0.480330 0.357328
vt 0.480330 0.416056
vt 0.428898 0.416056
vt 0.428898 0.357328
vt 0.557362 0.416056
vt 0.557362 0.401957
vt 0.587930 0.357328
vt 0.567572 0.401957
vt 0.587930 0.416056
vt 0.567572 0.416056
vt -6.706615 0.357328
vt -6.706615 0.401957
vt -6.708842 0.357328
vt -6.708842 0.401957
vt 0.568241 0.357329
vt 0.568241 0.401957
vt 0.567496 0.357328
vt 0.567496 0.401957
vt 7.709316 0.357328
vt 7.709317 0.401957
vt 7.707089 0.357329
vt 7.707089 0.401957
vt -6.701775 0.357329
vt -6.701776 0.401957
vt -6.704002 0.357329
vt -6.704002 0.401957
vt 0.560648 0.357329
vt 0.560648 0.401957
vt 0.559904 0.357329
vt 0.559903 0.401957
vt 7.704476 0.357329
vt 7.704477 0.401957
vt 7.702250 0.357329
vt 7.702250 0.401957
vt 0.440096 7.701775
vt 0.441546 7.704002
vt 0.439352 7.702250
vt 0.440801 7.704476
vt 0.432504 7.706615
vt 0.433954 7.708842
vt 0.431759 7.707089
vt 0.433209 7.709316
vt 0.558454 7.704002
vt 0.559903 7.701776
vt 0.559198 7.704477
vt 0.560648 7.702250
vt 0.566046 7.708842
vt 0.567496 7.706615
vt 0.566791 7.709317
vt 0.568241 7.707089
vt 0.561190 0.397213
vt 0.540704 0.397213
vt 0.561190 0.357328
vt 0.540704 0.357328
vt 7.701782 0.397213
vt 7.692294 0.397213
vt 7.701782 0.357328
vt 7.692294 0.357328
vt 0.534545 7.688761
vt 0.540704 7.679273
vt 0.555032 7.701782
vt 0.561190 7.692294
vt -6.688761 0.357328
vt -6.679273 0.357328
vt -6.688761 0.397213
vt -6.679273 0.397213
vt 0.591657 8.092000
vt 0.591657 8.110541
vt 0.587931 8.092000
vt 0.587931 8.110540
vt 0.591657 8.091999
vt 0.591657 8.110540
vt 0.587931 8.091999
vt 0.587931 8.110542
vt 0.587931 8.092001
vt 0.591657 8.110542
vt 0.591657 8.092001
vt 0.587931 8.110541
vt 8.091999 0.376250
vt 8.091999 0.375516
vt 8.110540 0.376250
vt 8.110540 0.375516
vt 0.587931 0.377935
vt 0.587931 0.375516
vt 0.591657 0.376250
vt 0.591657 0.375516
vt 0.408343 0.376250
vt 0.408343 0.375516
vt 0.412069 0.377935
vt 0.412069 0.375516
vt 8.091999 0.380839
vt 8.091999 0.380105
vt 8.110540 0.380839
vt 8.110540 0.380105
vt 0.587931 0.382524
vt 0.587931 0.380105
vt 0.591657 0.380839
vt 0.591657 0.380105
vt 0.408343 0.380839
vt 0.408343 0.380105
vt 0.412069 0.382524
vt 0.412069 0.380105
vt 8.092001 0.362483
vt 8.092001 0.361749
vt 8.110542 0.362483
vt 8.110542 0.361749
vt 0.587931 0.364167
vt 0.587931 0.361749
vt 0.591657 0.362483
vt 0.591657 0.361749
vt 0.408343 0.362483
vt 0.408343 0.361749
vt 0.412069 0.364167
vt 0.412069 0.361749
vt 8.092001 0.367072
vt 8.092001 0.366338
vt 8.110541 0.367072
vt 8.110541 0.366338
vt 0.587931 0.368756
vt 0.587931 0.366338
vt 0.591657 0.367072
vt 0.591657 0.366338
vt 0.408343 0.367072
vt 0.408343 0.366338
vt 0.412069 0.368756
vt 0.412069 0.366338
vt 8.092000 0.371661
vt 8.092000 0.370927
vt 8.110541 0.371661
vt 8.110541 0.370927
vt 0.587931 0.373345
vt 0.587931 0.370927
vt 0.591657 0.371661
vt 0.591657 0.370927
vt 0.408343 0.371661
vt 0.408343 0.370927
vt 0.412069 0.373345
vt 0.412069 0.370927
vt 0.372730 8.158995
vt 0.372729 7.722692
vt -6.722692 0.416056
vt -7.158995 0.416056
vt -6.722692 0.357328
vt -7.158995 0.401956
vt -7.158995 0.357329
vt 0.403298 0.416056
vt 0.403298 0.401957
vt 0.372729 0.357328
vt 0.393088 0.401957
vt 0.372729 0.416056
vt 0.393088 0.416056
vt 7.708842 0.401957
vt 7.706615 0.401957
vt 7.708842 0.357328
vt 7.706615 0.357328
vt 0.393164 0.401957
vt 0.392419 0.401957
vt 0.393163 0.357328
vt 0.392419 0.357329
vt -6.707089 0.401957
vt -6.709317 0.401957
vt -6.707089 0.357329
vt -6.709316 0.357328
vt 7.704002 0.401957
vt 7.701776 0.401957
vt 7.704002 0.357329
vt 7.701775 0.357329
vt 0.400756 0.401957
vt 0.400011 0.401957
vt 0.400756 0.357329
vt 0.400011 0.357329
vt -6.702250 0.401957
vt -6.704477 0.401957
vt -6.702250 0.357329
vt -6.704476 0.357329
vt 0.598539 7.704476
vt 0.597795 7.704002
vt 0.599989 7.702250
vt 0.599244 7.701775
vt 0.606132 7.709316
vt 0.605387 7.708842
vt 0.607581 7.707089
vt 0.606837 7.706615
vt 0.400011 7.702250
vt 0.400756 7.701776
vt 0.401461 7.704477
vt 0.402206 7.704002
vt 0.392419 7.707089
vt 0.393164 7.706615
vt 0.393869 7.709317
vt 0.394613 7.708842
vt 0.419955 0.357328
vt 0.419955 0.397213
vt 0.399469 0.357328
vt 0.399469 0.397213
vt -6.692294 0.357328
vt -6.692294 0.397213
vt -6.701782 0.357328
vt -6.701782 0.397213
vt 0.399469 7.692294
vt 0.419955 7.679273
vt 0.405628 7.701782
vt 0.426114 7.688761
vt 7.679273 0.397213
vt 7.679273 0.357328
vt 7.688761 0.397213
vt 7.688761 0.357328
vt 0.372730 8.110540
vt 0.369004 8.110541
vt 0.372730 8.092000
vt 0.369004 8.092000
vt 0.369004 8.110540
vt 0.372730 8.091999
vt 0.369004 8.091999
vt 0.369004 8.092001
vt 0.372730 8.092001
vt 0.369004 8.110542
vt 0.372730 8.110542
vt 0.372730 8.110541
vt -7.110540 0.375516
vt -7.091999 0.375516
vt -7.110540 0.376250
vt -7.091999 0.376250
vt 0.369004 0.375516
vt 0.372730 0.375516
vt 0.369004 0.376250
vt 0.372730 0.377935
vt 0.627270 0.375516
vt 0.630996 0.375516
vt 0.627270 0.377935
vt 0.630996 0.376250
vt -7.110540 0.380105
vt -7.091999 0.380105
vt -7.110540 0.380839
vt -7.091999 0.380839
vt 0.369004 0.380105
vt 0.372730 0.380105
vt 0.369004 0.380839
vt 0.372730 0.382524
vt 0.627270 0.380105
vt 0.630996 0.380105
vt 0.627270 0.382524
vt 0.630996 0.380839
vt -7.110542 0.361749
vt -7.092001 0.361749
vt -7.110542 0.362483
vt -7.092001 0.362483
vt 0.369004 0.361749
vt 0.372730 0.361749
vt 0.369004 0.362483
vt 0.372730 0.364167
vt 0.627270 0.361749
vt 0.630996 0.361749
vt 0.627270 0.364167
vt 0.630996 0.362483
vt -7.110541 0.366338
vt -7.092001 0.366338
vt -7.110541 0.367072
vt -7.092001 0.367072
vt 0.369004 0.366338
vt 0.372730 0.366338
vt 0.369004 0.367072
vt 0.372730 0.368756
vt 0.627270 0.366338
vt 0.630996 0.366338
vt 0.627270 0.368756
vt 0.630996 0.367072
vt -7.110541 0.370927
vt -7.092000 0.370927
vt -7.110541 0.371661
vt -7.092000 0.371661
vt 0.369004 0.370927
vt 0.372730 0.370927
vt 0.369004 0.371661
vt 0.372730 0.373345
vt 0.627270 0.370927
vt 0.630996 0.370927
vt 0.627270 0.373345
vt 0.630996 0.371661
vt 0.627270 0.401956
vt 0.627270 0.416056
vt 0.625748 0.401956
vt 0.625748 0.416056
vt 8.112619 0.424652
vt 8.090536 0.424652
vt 8.112619 0.401956
vt 8.090536 0.401956
vt 0.568733 0.424652
vt 0.554084 0.424652
vt 0.568733 0.401956
vt 0.554084 0.401956
vt 0.554084 8.112619
vt 0.554084 8.090536
vt 0.568733 8.112619
vt 0.568733 8.090536
vt 0.431267 0.401956
vt 0.445916 0.401956
vt 0.431267 0.424652
vt 0.445916 0.424652
vt -7.090536 0.401956
vt -7.090536 0.424652
vt -7.112619 0.401956
vt -7.112619 0.424652
vt 0.627270 0.357329
vt 0.591403 0.394934
vt 0.591403 0.357329
vt 0.555536 0.394934
vt 0.519669 0.401956
vt 0.519669 0.383916
vt 0.537603 0.383916
vt 0.555536 0.357329
vt 0.537603 0.357329
vt 0.483803 0.357329
vt 0.501736 0.357329
vt 0.483803 0.394934
vt 0.501736 0.383916
vt 0.413590 0.401956
vt 0.447936 0.394934
vt 0.412069 0.357329
vt 0.447936 0.357329
vt 0.412069 0.401956
vt 0.487289 8.130346
vt 0.487289 8.141502
vt 0.473372 8.130346
vt 0.473372 8.141502
vt 0.526628 0.413047
vt 0.512711 0.413047
vt 0.526628 0.401956
vt 0.512711 0.401956
vt 8.141502 0.413047
vt 8.130346 0.421932
vt 8.141502 0.401956
vt 8.119190 0.421932
vt 8.119190 0.401956
vt -7.119190 0.421932
vt -7.130346 0.421932
vt -7.119190 0.401956
vt -7.141502 0.413047
vt -7.141502 0.401956
vt 0.487289 8.119190
vt 0.473372 8.119190
vt 0.487289 0.401956
vt 0.487289 0.421932
vt 0.473372 0.401956
vt 0.473372 0.421932
vt 0.537603 0.376833
vt 0.519669 0.357329
vt 0.519669 0.376833
vt 0.501736 0.376833
vt 8.158995 0.383916
vt 8.152840 0.376833
vt 8.152840 0.357329
vt -7.152840 0.357329
vt -7.158995 0.383916
vt -7.152840 0.376833
vt 8.064873 0.424652
vt 8.042789 0.424652
vt 8.064873 0.401956
vt 8.042789 0.401956
vt 0.554084 8.064873
vt 0.554084 8.042789
vt 0.568733 8.064873
vt 0.568733 8.042789
vt -7.042789 0.401956
vt -7.042789 0.424652
vt -7.064873 0.401956
vt -7.064873 0.424652
vt 0.406577 0.401956
vt 0.406577 0.424652
vt 0.391928 0.401956
vt 0.391928 0.424652
vt 0.391928 8.090536
vt 0.406577 8.090536
vt 0.391928 8.112619
vt 0.406577 8.112619
vt 0.593423 0.424652
vt 0.593423 0.401956
vt 0.608072 0.424652
vt 0.608072 0.401956
vt 0.391928 8.042789
vt 0.406577 8.042789
vt 0.391928 8.064873
vt 0.406577 8.064873
vt 0.591657 8.043886
vt 0.591657 8.062428
vt 0.587931 8.043886
vt 0.587931 8.062428
vt 0.591657 8.043885
vt 0.591657 8.062427
vt 0.587931 8.043885
vt 0.587931 8.062426
vt 0.587931 8.062427
vt 8.043886 0.376250
vt 8.043886 0.375516
vt 8.062427 0.376250
vt 8.062427 0.375516
vt 8.043885 0.380839
vt 8.043885 0.380105
vt 8.062427 0.380839
vt 8.062427 0.380105
vt 8.043886 0.362483
vt 8.043886 0.361749
vt 8.062428 0.362483
vt 8.062428 0.361749
vt 8.043886 0.367072
vt 8.043886 0.366338
vt 8.062428 0.367072
vt 8.062428 0.366338
vt 8.043886 0.371661
vt 8.043886 0.370927
vt 8.062428 0.371661
vt 8.062428 0.370927
vt 0.372730 8.062428
vt 0.369004 8.062428
vt 0.372730 8.043886
vt 0.369004 8.043886
vt 0.372730 8.062426
vt 0.369004 8.062427
vt 0.372730 8.043885
vt 0.369004 8.043885
vt 0.372730 8.062427
vt 0.369004 8.043887
vt -7.062427 0.375516
vt -7.043886 0.375516
vt -7.062427 0.376250
vt -7.043886 0.376250
vt -7.062427 0.380105
vt -7.043885 0.380105
vt -7.062427 0.380839
vt -7.043885 0.380839
vt -7.062428 0.361749
vt -7.043887 0.361749
vt -7.062428 0.362483
vt -7.043887 0.362483
vt -7.062428 0.366338
vt -7.043886 0.366338
vt -7.062428 0.367072
vt -7.043886 0.367072
vt -7.062428 0.370927
vt -7.043886 0.370927
vt -7.062428 0.371661
vt -7.043886 0.371661
vt 0.433270 0.416056
vt 0.413591 0.416056
vt 0.433270 0.401956
vt 0.413591 0.401956
vt 0.468685 0.416056
vt 0.468685 0.401956
vt 0.519670 0.416056
vt 0.519670 0.401956
vt 0.570656 0.401956
vt 0.570656 0.416056
vt 0.443480 0.416056
vt 0.443480 0.401956
vt 0.606071 0.416056
vt 0.606071 0.401956
vt 0.625749 0.416056
vt 0.625749 0.401956
vt 0.595860 0.401956
vt 0.595860 0.416056
vt -6.723515 0.416056
vt -6.723515 0.401956
vt 7.723515 0.401956
vt 7.723515 0.416056
vt 0.483803 0.376833
vt 0.555536 0.376833
vt 0.447936 8.158995
vt 0.447936 8.133803
vt 0.483803 8.158995
vt 0.483803 8.133803
vt -7.133803 0.357329
vt -7.158995 0.394934
vt -7.133803 0.394934
vt 8.133803 0.394934
vt 8.133803 0.376833
vt 8.158995 0.394934
vt 8.133803 0.357329
vt 0.555536 8.158995
vt 0.555536 8.133803
vt 0.591403 8.158995
vt 0.591403 8.133803
vt -7.133803 0.376833
vt -6.709753 0.416056
vt -6.711007 0.416056
vt -6.709753 0.401957
vt -6.711007 0.401956
vt 7.704517 0.401956
vt 7.704517 0.416056
vt 7.703263 0.401957
vt 7.703263 0.416056
vt 7.711007 0.416056
vt 7.709753 0.416056
vt 7.711007 0.401956
vt 7.709753 0.401957
vt -6.703263 0.416056
vt -6.704517 0.416056
vt -6.703263 0.401957
vt -6.704517 0.401956
vt 0.440642 7.704231
vt 0.433794 7.708597
vt 0.439511 7.702495
vt 0.432664 7.706861
vt 0.560489 0.369251
vt 0.567336 0.369251
vt 0.560489 0.370016
vt 0.567336 0.370016
vt 0.560489 7.702495
vt 0.567336 7.706860
vt 0.559358 7.704231
vt 0.566206 7.708597
vt 0.432664 7.706860
vt 0.560489 0.374094
vt 0.567336 0.374094
vt 0.560489 0.374859
vt 0.567336 0.374859
vt 0.432663 7.706860
vt 0.560489 0.378937
vt 0.567337 0.378937
vt 0.560489 0.379702
vt 0.567336 0.379702
vt 0.560489 0.359565
vt 0.567336 0.359565
vt 0.560489 0.360330
vt 0.567336 0.360330
vt 0.560489 0.364408
vt 0.567336 0.364408
vt 0.560489 0.365173
vt 0.567336 0.365173
vt 0.567336 7.706861
vt 0.560489 0.383780
vt 0.567336 0.383780
vt 0.560489 0.384545
vt 0.567336 0.384545
vt 0.560489 0.388623
vt 0.567337 0.388623
vt 0.560489 0.389388
vt 0.567336 0.389388
vt 0.439512 7.702495
vt 0.560488 0.398309
vt 0.567336 0.398309
vt 0.560489 0.399074
vt 0.567336 0.399074
vt 0.560489 0.393466
vt 0.567336 0.393466
vt 0.560488 0.394231
vt 0.567336 0.394231
vt 0.560488 7.702495
vt 0.412069 8.091999
vt 0.412069 8.110540
vt 0.408343 8.091999
vt 0.408343 8.110540
vt 0.412069 8.092001
vt 0.412069 8.110542
vt 0.408343 8.092001
vt 0.408343 8.110542
vt 0.408343 8.110541
vt 0.412069 8.110541
vt 0.408343 8.092000
vt 0.412069 8.092000
vt 0.606677 7.706861
vt 0.605547 7.708597
vt 0.599829 7.702495
vt 0.598699 7.704231
vt 0.393323 0.370016
vt 0.393323 0.369251
vt 0.400171 0.370016
vt 0.400171 0.369251
vt 0.394453 7.708597
vt 0.393323 7.706860
vt 0.401301 7.704231
vt 0.400171 7.702495
vt 0.606677 7.706860
vt 0.393323 0.374859
vt 0.393323 0.374094
vt 0.400171 0.374859
vt 0.400171 0.374094
vt 0.393323 0.379702
vt 0.393323 0.378937
vt 0.400171 0.379702
vt 0.400171 0.378937
vt 0.393323 0.360330
vt 0.393323 0.359565
vt 0.400171 0.360330
vt 0.400171 0.359565
vt 0.393323 0.365173
vt 0.393323 0.364408
vt 0.400171 0.365173
vt 0.400171 0.364408
vt 0.393323 7.706861
vt 0.393323 0.384545
vt 0.393323 0.383780
vt 0.400171 0.384545
vt 0.400171 0.383780
vt 0.393323 0.389388
vt 0.393323 0.388623
vt 0.400171 0.389388
vt 0.400171 0.388623
vt 0.393323 0.399074
vt 0.393323 0.398309
vt 0.400171 0.399074
vt 0.400171 0.398309
vt 0.393323 0.394231
vt 0.393323 0.393466
vt 0.400171 0.394231
vt 0.400171 0.393466
vt 0.630996 8.110540
vt 0.627270 8.110540
vt 0.630996 8.091999
vt 0.627270 8.091999
vt 0.630996 8.110542
vt 0.627270 8.110542
vt 0.630996 8.092001
vt 0.627270 8.092001
vt 0.627270 8.110541
vt 0.630996 8.110541
vt 0.627270 8.092000
vt 0.630996 8.092000
vt 0.412069 8.043886
vt 0.412069 8.062428
vt 0.408343 8.043886
vt 0.408343 8.062427
vt 0.412069 8.043885
vt 0.412069 8.062427
vt 0.408343 8.043885
vt 0.412069 8.043887
vt 0.408343 8.062428
vt 0.630996 8.062427
vt 0.627270 8.062428
vt 0.630996 8.043886
vt 0.627270 8.043886
vt 0.627270 8.062427
vt 0.630996 8.043885
vt 0.627270 8.043885
vt 0.630996 8.062428
vt 0.630996 8.043887
vt 0.627270 8.043887
vt 0.413590 0.416056
vt 0.412069 0.416056
s 1
g Litt_Deckhouse_B1_Base_mod_steel_deck_1
usemtl steel_deck_1
f 3/1/1 2/2/1 1/3/2
f 4/4/2 1/3/2 2/2/1
f 1/3/2 4/4/2 5/5/3
f 5/5/3 4/4/2 6/6/3
f 7/7/3 1/3/2 5/5/3
f 6/6/3 8/8/3 5/5/3
f 9/9/3 7/7/3 5/5/3
f 10/10/3 5/5/3 8/8/3
f 11/11/3 9/9/3 5/5/3
f 10/10/3 12/12/3 5/5/3
f 13/13/3 5/5/3 12/12/3
f 14/14/4 5/5/3 13/13/3
f 15/15/4 11/11/3 5/5/3
f 14/14/4 15/15/4 5/5/3
f 14/14/4 16/16/5 15/15/4
f 17/17/5 15/15/4 16/16/5
g Litt_Deckhouse_B1_Base_mod_steel_4
usemtl steel_4
f 20/3/3 19/7/3 18/1/3
f 21/18/3 18/1/3 19/7/3
f 21/18/3 19/7/3 22/19/3
f 23/9/3 22/19/3 19/7/3
f 23/9/3 24/11/3 22/19/3
f 25/20/3 22/19/3 24/11/3
f 25/20/3 24/11/3 26/17/3
f 27/15/3 26/17/3 24/11/3
f 30/21/3 29/8/3 28/22/3
f 31/6/3 28/22/3 29/8/3
f 28/22/3 31/6/3 32/2/3
f 33/4/3 32/2/3 31/6/3
f 36/23/6 35/24/6 34/25/6
f 37/26/6 34/25/6 35/24/6
f 38/27/6 37/26/6 35/24/6
f 41/28/7 40/29/7 39/30/7
f 42/31/7 39/30/7 40/29/7
f 42/31/7 43/32/7 39/30/7
f 44/33/7 39/30/7 43/32/7
f 47/34/8 46/29/8 45/35/8
f 48/28/8 45/35/8 46/29/8
f 48/28/8 49/36/8 45/35/8
f 50/37/8 45/35/8 49/36/8
f 49/36/8 51/38/8 50/37/8
f 52/39/8 50/37/8 51/38/8
f 55/40/9 54/41/10 53/42/9
f 56/43/10 53/42/9 54/41/10
f 59/44/11 58/45/12 57/46/11
f 60/47/12 57/46/11 58/45/12
f 63/48/13 62/49/14 61/50/13
f 64/51/14 61/50/13 62/49/14
f 67/52/10 66/53/10 65/54/10
f 68/55/10 65/54/10 66/53/10
f 71/56/15 70/57/16 69/58/15
f 72/59/16 69/58/15 70/57/16
f 75/60/14 74/61/17 73/62/14
f 76/63/17 73/62/14 74/61/17
f 79/64/18 78/65/18 77/66/18
f 80/67/18 77/66/18 78/65/18
f 83/68/18 82/69/18 81/70/18
f 84/71/18 81/70/18 82/69/18
f 87/72/3 86/73/3 85/74/3
f 88/75/3 85/74/3 86/73/3
f 91/76/3 90/77/3 89/78/3
f 92/79/3 89/78/3 90/77/3
f 95/80/8 94/81/8 93/82/8
f 96/83/8 93/82/8 94/81/8
f 99/84/19 98/85/19 97/86/19
f 100/87/19 97/86/19 98/85/19
f 103/88/3 102/89/3 101/90/3
f 104/91/3 101/90/3 102/89/3
f 107/92/20 106/93/20 105/94/20
f 108/95/20 105/94/20 106/93/20
f 111/96/21 110/97/21 109/98/21
f 112/99/21 109/98/21 110/97/21
f 115/100/21 114/101/21 113/102/21
f 116/99/21 113/102/21 114/101/21
f 119/100/21 118/101/21 117/102/21
f 120/99/21 117/102/21 118/101/21
f 123/103/21 122/104/21 121/105/21
f 124/106/21 121/105/21 122/104/21
f 127/107/21 126/98/21 125/97/21
f 128/106/21 125/97/21 126/98/21
f 131/108/6 130/109/6 129/110/6
f 132/111/6 129/110/6 130/109/6
f 135/112/22 134/113/22 133/114/7
f 136/115/7 133/114/7 134/113/22
f 139/116/23 138/117/23 137/118/24
f 140/119/24 137/118/24 138/117/23
f 143/120/6 142/121/6 141/122/6
f 144/123/6 141/122/6 142/121/6
f 147/124/22 146/125/22 145/126/7
f 148/127/7 145/126/7 146/125/22
f 151/128/23 150/129/23 149/130/24
f 152/131/24 149/130/24 150/129/23
f 155/132/6 154/133/6 153/134/6
f 156/135/6 153/134/6 154/133/6
f 159/136/22 158/137/22 157/138/7
f 160/139/7 157/138/7 158/137/22
f 163/140/23 162/141/23 161/142/24
f 164/143/24 161/142/24 162/141/23
f 167/144/6 166/145/6 165/146/6
f 168/147/6 165/146/6 166/145/6
f 171/148/22 170/149/22 169/150/7
f 172/151/7 169/150/7 170/149/22
f 175/152/23 174/153/23 173/154/24
f 176/155/24 173/154/24 174/153/23
f 179/156/6 178/157/6 177/158/6
f 180/159/6 177/158/6 178/157/6
f 183/160/22 182/161/22 181/162/7
f 184/163/7 181/162/7 182/161/22
f 187/164/23 186/165/23 185/166/24
f 188/167/24 185/166/24 186/165/23
f 191/12/3 190/168/3 189/13/3
f 192/169/3 189/13/3 190/168/3
f 192/169/3 193/16/3 189/13/3
f 194/14/3 189/13/3 193/16/3
f 197/170/25 196/171/25 195/172/25
f 198/173/25 195/172/25 196/171/25
f 198/173/25 199/174/25 195/172/25
f 202/175/26 201/176/26 200/32/26
f 203/33/26 200/32/26 201/176/26
f 203/33/26 201/176/26 204/177/26
f 205/178/26 204/177/26 201/176/26
f 204/177/26 205/178/26 206/179/26
f 207/180/26 206/179/26 205/178/26
f 210/181/27 209/182/27 208/183/28
f 211/184/28 208/183/28 209/182/27
f 214/185/29 213/186/30 212/187/31
f 215/188/31 212/187/31 213/186/30
f 218/189/32 217/190/32 216/191/33
f 219/192/33 216/191/33 217/190/32
f 222/193/27 221/194/27 220/195/27
f 223/196/34 220/195/27 221/194/27
f 226/197/35 225/198/35 224/199/36
f 227/200/36 224/199/36 225/198/35
f 230/201/37 229/202/37 228/203/32
f 231/204/32 228/203/32 229/202/37
f 234/205/18 233/206/18 232/207/18
f 235/208/18 232/207/18 233/206/18
f 238/209/18 237/210/18 236/211/18
f 239/212/18 236/211/18 237/210/18
f 242/213/3 241/214/3 240/215/3
f 243/216/3 240/215/3 241/214/3
f 246/217/3 245/218/3 244/219/3
f 247/220/3 244/219/3 245/218/3
f 250/221/26 249/222/26 248/223/26
f 251/224/26 248/223/26 249/222/26
f 254/225/38 253/226/38 252/227/38
f 255/228/38 252/227/38 253/226/38
f 258/229/3 257/230/3 256/231/3
f 259/232/3 256/231/3 257/230/3
f 262/233/39 261/234/39 260/235/39
f 263/236/39 260/235/39 261/234/39
f 266/237/40 265/238/40 264/239/40
f 267/240/40 264/239/40 265/238/40
f 270/237/40 269/241/40 268/242/40
f 271/243/40 268/242/40 269/241/40
f 274/237/40 273/241/40 272/242/40
f 275/243/40 272/242/40 273/241/40
f 278/244/40 277/245/40 276/246/40
f 279/247/40 276/246/40 277/245/40
f 282/244/40 281/245/40 280/238/40
f 283/248/40 280/238/40 281/245/40
f 286/249/25 285/250/25 284/251/25
f 287/252/25 284/251/25 285/250/25
f 290/253/7 289/254/22 288/255/7
f 291/256/22 288/255/7 289/254/22
f 294/257/24 293/258/23 292/259/24
f 295/260/23 292/259/24 293/258/23
f 298/261/25 297/262/25 296/263/25
f 299/264/25 296/263/25 297/262/25
f 302/265/7 301/266/22 300/267/7
f 303/268/22 300/267/7 301/266/22
f 306/269/24 305/270/23 304/271/24
f 307/272/23 304/271/24 305/270/23
f 310/273/25 309/274/25 308/275/25
f 311/276/25 308/275/25 309/274/25
f 314/277/7 313/278/22 312/279/7
f 315/280/22 312/279/7 313/278/22
f 318/281/24 317/282/23 316/283/24
f 319/284/23 316/283/24 317/282/23
f 322/285/25 321/286/25 320/287/25
f 323/288/25 320/287/25 321/286/25
f 326/289/7 325/290/22 324/291/7
f 327/292/22 324/291/7 325/290/22
f 330/293/24 329/294/23 328/295/24
f 331/296/23 328/295/24 329/294/23
f 334/297/25 333/298/25 332/299/25
f 335/300/25 332/299/25 333/298/25
f 338/301/7 337/302/22 336/303/7
f 339/304/22 336/303/7 337/302/22
f 342/305/24 341/306/23 340/307/24
f 343/308/23 340/307/24 341/306/23
f 346/309/23 345/310/23 344/311/23
f 347/312/23 344/311/23 345/310/23
f 350/313/6 349/314/6 348/315/6
f 351/316/6 348/315/6 349/314/6
f 354/317/7 353/318/7 352/319/7
f 355/320/7 352/319/7 353/318/7
f 358/321/3 357/322/3 356/323/3
f 359/324/3 356/323/3 357/322/3
f 362/325/23 361/326/23 360/327/23
f 363/328/23 360/327/23 361/326/23
f 366/329/25 365/330/25 364/331/25
f 367/332/25 364/331/25 365/330/25
f 370/311/23 369/333/23 368/309/23
f 370/311/23 371/334/23 369/333/23
f 372/335/23 369/333/23 371/334/23
f 371/334/23 370/311/23 373/336/23
f 374/337/23 373/336/23 370/311/23
f 374/337/23 375/338/23 373/336/23
f 376/339/23 373/336/23 375/338/23
f 373/336/23 376/339/23 377/340/23
f 378/341/23 377/340/23 376/339/23
f 381/342/23 380/343/23 379/344/23
f 382/345/23 379/344/23 380/343/23
f 382/345/23 383/338/23 379/344/23
f 384/337/23 379/344/23 383/338/23
f 384/337/23 385/346/23 379/344/23
f 386/347/23 379/344/23 385/346/23
f 385/346/23 387/348/23 386/347/23
f 388/349/23 386/347/23 387/348/23
f 389/350/23 387/348/23 385/346/23
f 392/351/41 391/352/42 390/353/42
f 393/354/42 390/353/42 391/352/42
f 396/355/23 395/356/23 394/357/23
f 397/358/23 394/357/23 395/356/23
f 400/359/6 399/360/6 398/361/6
f 399/360/6 401/362/6 398/361/6
f 401/362/6 402/363/6 398/361/6
f 405/364/25 404/365/25 403/366/25
f 404/365/25 406/367/25 403/366/25
f 406/367/25 407/368/25 403/366/25
f 410/369/3 409/351/3 408/370/3
f 411/353/3 408/370/3 409/351/3
f 414/371/7 413/372/7 412/373/7
f 415/374/7 412/373/7 413/372/7
f 418/341/23 417/375/23 416/376/23
f 419/377/23 416/376/23 417/375/23
f 421/377/23 420/378/23 416/376/23
f 422/343/23 416/376/23 420/378/23
f 425/379/6 424/380/6 423/27/6
f 426/381/6 423/27/6 424/380/6
f 429/338/43 428/377/43 427/339/43
f 430/375/43 427/339/43 428/377/43
f 433/345/43 432/378/43 431/338/43
f 434/377/43 431/338/43 432/378/43
f 437/174/25 436/382/25 435/383/25
f 438/384/25 435/383/25 436/382/25
f 441/385/6 440/386/6 439/387/6
f 442/388/6 439/387/6 440/386/6
f 445/317/7 444/318/7 443/319/7
f 446/320/7 443/319/7 444/318/7
f 449/389/3 448/390/3 447/391/3
f 450/392/3 447/391/3 448/390/3
f 453/325/23 452/326/23 451/327/23
f 454/328/23 451/327/23 452/326/23
f 457/393/25 456/394/25 455/395/25
f 458/396/25 455/395/25 456/394/25
f 461/329/25 460/330/25 459/331/25
f 462/332/25 459/331/25 460/330/25
f 465/397/7 464/398/7 463/399/7
f 466/400/7 463/399/7 464/398/7
f 469/401/3 468/402/3 467/403/3
f 470/404/3 467/403/3 468/402/3
f 473/405/23 472/406/23 471/407/23
f 474/408/23 471/407/23 472/406/23
f 477/313/6 476/314/6 475/315/6
f 478/316/6 475/315/6 476/314/6
f 481/393/25 480/394/25 479/395/25
f 482/396/25 479/395/25 480/394/25
f 485/397/7 484/398/7 483/399/7
f 486/400/7 483/399/7 484/398/7
f 489/409/3 488/410/3 487/411/3
f 490/412/3 487/411/3 488/410/3
f 493/405/23 492/406/23 491/407/23
f 494/408/23 491/407/23 492/406/23
f 497/385/6 496/386/6 495/387/6
f 498/388/6 495/387/6 496/386/6
f 501/413/21 500/414/21 499/415/21
f 502/416/21 499/415/21 500/414/21
f 505/417/21 504/418/21 503/419/21
f 506/420/21 503/419/21 504/418/21
f 509/413/21 508/418/21 507/415/21
f 510/421/21 507/415/21 508/418/21
f 513/416/21 512/415/21 511/414/21
f 514/413/21 511/414/21 512/415/21
f 517/416/21 516/415/21 515/414/21
f 518/413/21 515/414/21 516/415/21
f 521/422/6 520/423/6 519/424/6
f 522/425/6 519/424/6 520/423/6
f 525/112/22 524/113/22 523/114/7
f 526/115/7 523/114/7 524/113/22
f 529/116/23 528/117/23 527/118/24
f 530/119/24 527/118/24 528/117/23
f 533/426/6 532/427/6 531/428/6
f 534/429/6 531/428/6 532/427/6
f 537/124/22 536/125/22 535/126/7
f 538/127/7 535/126/7 536/125/22
f 541/128/23 540/129/23 539/130/24
f 542/131/24 539/130/24 540/129/23
f 545/430/6 544/431/6 543/432/6
f 546/433/6 543/432/6 544/431/6
f 549/136/22 548/137/22 547/138/7
f 550/139/7 547/138/7 548/137/22
f 553/140/23 552/141/23 551/142/24
f 554/143/24 551/142/24 552/141/23
f 557/434/6 556/435/6 555/436/6
f 558/437/6 555/436/6 556/435/6
f 561/148/22 560/149/22 559/150/7
f 562/151/7 559/150/7 560/149/22
f 565/152/23 564/153/23 563/154/24
f 566/155/24 563/154/24 564/153/23
f 569/438/6 568/439/6 567/440/6
f 570/441/6 567/440/6 568/439/6
f 573/160/22 572/161/22 571/162/7
f 574/163/7 571/162/7 572/161/22
f 577/164/23 576/165/23 575/166/24
f 578/167/24 575/166/24 576/165/23
f 581/442/40 580/443/40 579/444/40
f 582/445/40 579/444/40 580/443/40
f 585/446/40 584/447/40 583/448/40
f 586/449/40 583/448/40 584/447/40
f 589/450/40 588/447/40 587/444/40
f 590/445/40 587/444/40 588/447/40
f 593/451/40 592/444/40 591/443/40
f 594/442/40 591/443/40 592/444/40
f 597/445/40 596/444/40 595/443/40
f 598/442/40 595/443/40 596/444/40
f 601/452/25 600/453/25 599/454/25
f 602/455/25 599/454/25 600/453/25
f 605/253/7 604/254/22 603/255/7
f 606/256/22 603/255/7 604/254/22
f 609/257/24 608/258/23 607/259/24
f 610/260/23 607/259/24 608/258/23
f 613/456/25 612/457/25 611/458/25
f 614/459/25 611/458/25 612/457/25
f 617/265/7 616/266/22 615/267/7
f 618/268/22 615/267/7 616/266/22
f 621/269/24 620/270/23 619/271/24
f 622/272/23 619/271/24 620/270/23
f 625/460/25 624/461/25 623/462/25
f 626/463/25 623/462/25 624/461/25
f 629/277/7 628/278/22 627/279/7
f 630/280/22 627/279/7 628/278/22
f 633/281/24 632/282/23 631/283/24
f 634/284/23 631/283/24 632/282/23
f 637/464/25 636/465/25 635/466/25
f 638/467/25 635/466/25 636/465/25
f 641/289/7 640/290/22 639/291/7
f 642/292/22 639/291/7 640/290/22
f 645/293/24 644/294/23 643/295/24
f 646/296/23 643/295/24 644/294/23
f 649/468/25 648/469/25 647/470/25
f 650/471/25 647/470/25 648/469/25
f 653/301/7 652/302/22 651/303/7
f 654/304/22 651/303/7 652/302/22
f 657/305/24 656/306/23 655/307/24
f 658/308/23 655/307/24 656/306/23
g Litt_Deckhouse_B1_Base_mod_steel_3
usemtl steel_3
f 661/472/44 660/473/44 659/474/44
f 662/475/44 659/474/44 660/473/44
f 665/476/23 664/477/23 663/478/23
f 666/479/23 663/478/23 664/477/23
f 666/479/23 667/480/23 663/478/23
f 668/481/23 663/478/23 667/480/23
f 671/476/44 670/482/44 669/477/44
f 672/483/44 669/477/44 670/482/44
f 675/484/45 674/485/45 673/486/45
f 676/487/45 673/486/45 674/485/45
f 679/488/45 678/489/45 677/480/45
f 680/481/45 677/480/45 678/489/45
f 683/490/25 682/171/25 681/491/25
f 684/173/25 681/491/25 682/171/25
f 687/492/6 686/26/6 685/493/6
f 688/25/6 685/493/6 686/26/6
f 691/349/23 690/342/23 689/347/23
f 690/342/23 692/494/23 689/347/23
f 689/347/23 692/494/23 693/344/23
f 696/340/23 695/335/23 694/495/23
f 694/495/23 695/335/23 697/336/23
f 697/336/23 695/335/23 698/334/23
f 701/496/18 700/497/18 699/498/18
f 702/499/18 699/498/18 700/497/18
f 705/174/25 704/500/25 703/501/25
f 706/502/25 703/501/25 704/500/25
f 709/503/6 708/504/6 707/505/6
f 708/504/6 710/506/6 707/505/6
f 707/505/6 710/506/6 711/27/6
f 714/507/18 713/508/18 712/509/18
f 715/510/18 712/509/18 713/508/18
f 718/500/25 717/511/25 716/174/25
f 716/174/25 717/511/25 719/501/25
f 717/511/25 720/502/25 719/501/25
f 723/505/6 722/503/6 721/27/6
f 724/506/6 721/27/6 722/503/6
g Litt_Deckhouse_B1_Base_mod_steel_board_1
usemtl steel_board_1
f 727/512/46 726/513/46 725/514/46
f 728/515/46 725/514/46 726/513/46
f 731/516/47 730/517/47 729/518/47
f 732/519/47 729/518/47 730/517/47
f 735/520/48 734/521/48 733/522/48
f 736/523/48 733/522/48 734/521/48
f 739/524/49 738/525/49 737/526/49
f 740/527/49 737/526/49 738/525/49
g Litt_Deckhouse_B1_Base_mod_details_2
usemtl details_2
f 743/528/18 742/529/18 741/530/18
f 744/531/18 741/530/18 742/529/18
f 747/532/50 746/533/51 745/534/50
f 748/535/51 745/534/50 746/533/51
f 751/536/3 750/537/3 749/538/3
f 752/539/3 749/538/3 750/537/3
f 755/528/18 754/529/18 753/530/18
f 756/540/18 753/530/18 754/529/18
f 759/541/52 758/542/52 757/543/52
f 760/544/52 757/543/52 758/542/52
f 763/536/3 762/537/3 761/538/3
f 764/539/3 761/538/3 762/537/3
f 767/528/18 766/529/18 765/530/18
f 768/545/18 765/530/18 766/529/18
f 771/546/53 770/547/54 769/548/53
f 772/549/54 769/548/53 770/547/54
f 775/536/3 774/537/3 773/538/3
f 776/539/3 773/538/3 774/537/3
f 779/528/18 778/529/18 777/530/18
f 780/531/18 777/530/18 778/529/18
f 783/550/50 782/551/51 781/552/50
f 784/553/51 781/552/50 782/551/51
f 787/536/3 786/537/3 785/538/3
f 788/539/3 785/538/3 786/537/3
f 791/528/18 790/529/18 789/530/18
f 792/540/18 789/530/18 790/529/18
f 795/554/55 794/555/55 793/556/55
f 796/557/55 793/556/55 794/555/55
f 799/536/3 798/558/3 797/538/3
f 800/539/3 797/538/3 798/558/3
f 803/528/18 802/529/18 801/530/18
f 804/540/18 801/530/18 802/529/18
f 807/559/55 806/560/55 805/561/55
f 808/562/55 805/561/55 806/560/55
f 811/536/3 810/558/3 809/538/3
f 812/539/3 809/538/3 810/558/3
f 815/528/18 814/529/18 813/530/18
f 816/545/18 813/530/18 814/529/18
f 819/563/53 818/564/54 817/565/53
f 820/566/54 817/565/53 818/564/54
f 823/536/3 822/537/3 821/538/3
f 824/539/3 821/538/3 822/537/3
f 827/528/18 826/529/18 825/567/18
f 828/531/18 825/567/18 826/529/18
f 831/568/51 830/569/50 829/570/51
f 832/571/50 829/570/51 830/569/50
f 835/536/3 834/537/3 833/538/3
f 836/539/3 833/538/3 834/537/3
f 839/528/18 838/529/18 837/530/18
f 840/540/18 837/530/18 838/529/18
f 843/572/53 842/573/55 841/574/53
f 844/575/55 841/574/53 842/573/55
f 847/576/3 846/558/3 845/538/3
f 848/539/3 845/538/3 846/558/3
f 851/577/18 850/578/18 849/579/18
f 852/580/18 849/579/18 850/578/18
f 855/577/18 854/578/18 853/579/18
f 856/580/18 853/579/18 854/578/18
f 859/581/18 858/582/18 857/583/18
f 860/584/18 857/583/18 858/582/18
f 863/585/18 862/583/18 861/586/18
f 864/581/18 861/586/18 862/583/18
f 867/585/18 866/587/18 865/586/18
f 868/588/18 865/586/18 866/587/18
f 871/589/18 870/590/18 869/591/18
f 872/592/18 869/591/18 870/590/18
f 875/593/56 874/594/56 873/595/56
f 876/596/56 873/595/56 874/594/56
f 879/597/3 878/598/3 877/599/3
f 880/600/3 877/599/3 878/598/3
f 883/601/18 882/590/18 881/591/18
f 884/592/18 881/591/18 882/590/18
f 887/602/57 886/603/57 885/604/58
f 888/605/58 885/604/58 886/603/57
f 891/597/3 890/598/3 889/599/3
f 892/600/3 889/599/3 890/598/3
f 895/601/18 894/590/18 893/591/18
f 896/592/18 893/591/18 894/590/18
f 899/606/59 898/607/59 897/608/59
f 900/609/59 897/608/59 898/607/59
f 903/597/3 902/598/3 901/599/3
f 904/600/3 901/599/3 902/598/3
f 907/589/18 906/590/18 905/591/18
f 908/592/18 905/591/18 906/590/18
f 911/610/56 910/611/56 909/612/56
f 912/613/56 909/612/56 910/611/56
f 915/597/3 914/598/3 913/599/3
f 916/600/3 913/599/3 914/598/3
f 919/601/18 918/590/18 917/591/18
f 920/592/18 917/591/18 918/590/18
f 923/614/60 922/615/60 921/616/60
f 924/617/60 921/616/60 922/615/60
f 927/597/3 926/618/3 925/599/3
f 928/600/3 925/599/3 926/618/3
f 931/601/18 930/590/18 929/591/18
f 932/592/18 929/591/18 930/590/18
f 935/619/60 934/620/60 933/621/60
f 936/622/60 933/621/60 934/620/60
f 939/597/3 938/618/3 937/599/3
f 940/600/3 937/599/3 938/618/3
f 943/601/18 942/590/18 941/591/18
f 944/592/18 941/591/18 942/590/18
f 947/623/59 946/624/59 945/625/59
f 948/626/59 945/625/59 946/624/59
f 951/597/3 950/598/3 949/599/3
f 952/600/3 949/599/3 950/598/3
f 955/589/18 954/590/18 953/591/18
f 956/592/18 953/591/18 954/590/18
f 959/627/61 958/628/61 957/629/56
f 960/630/56 957/629/56 958/628/61
f 963/597/3 962/598/3 961/599/3
f 964/600/3 961/599/3 962/598/3
f 967/601/18 966/590/18 965/591/18
f 968/592/18 965/591/18 966/590/18
f 971/631/60 970/632/60 969/633/59
f 972/634/59 969/633/59 970/632/60
f 975/597/3 974/618/3 973/599/3
f 976/600/3 973/599/3 974/618/3
f 979/635/18 978/636/18 977/637/18
f 980/638/18 977/637/18 978/636/18
f 983/635/18 982/636/18 981/637/18
f 984/638/18 981/637/18 982/636/18
f 987/639/18 986/640/18 985/641/18
f 988/642/18 985/641/18 986/640/18
f 991/642/18 990/641/18 989/643/18
f 992/644/18 989/643/18 990/641/18
f 995/645/18 994/646/18 993/643/18
f 996/644/18 993/643/18 994/646/18
f 999/647/18 998/648/18 997/649/18
f 1000/650/18 997/649/18 998/648/18
f 1003/651/18 1002/652/18 1001/653/18
f 1004/650/18 1001/653/18 1002/652/18
f 1007/654/18 1006/648/18 1005/649/18
f 1008/655/18 1005/649/18 1006/648/18
f 1011/655/18 1010/649/18 1009/648/18
f 1012/647/18 1009/648/18 1010/649/18
f 1015/655/18 1014/649/18 1013/648/18
f 1016/647/18 1013/648/18 1014/649/18
f 1019/656/18 1018/657/18 1017/658/18
f 1020/659/18 1017/658/18 1018/657/18
f 1023/656/18 1022/660/18 1021/661/18
f 1024/662/18 1021/661/18 1022/660/18
f 1027/663/18 1026/657/18 1025/664/18
f 1028/665/18 1025/664/18 1026/657/18
f 1031/659/18 1030/658/18 1029/657/18
f 1032/663/18 1029/657/18 1030/658/18
f 1035/659/18 1034/658/18 1033/657/18
f 1036/663/18 1033/657/18 1034/658/18
g Litt_Deckhouse_B1_Base_mod_steel_5
usemtl steel_5
f 1039/346/23 1038/666/23 1037/350/23
f 1040/667/23 1037/350/23 1038/666/23
