# Blender 5.1.0
# www.blender.org
mtllib Litt_Deckhouse_V_AAFireControl.mtl
o Litt_Deckhouse_V_AAFireControl_Front
v -0.000002 -0.165154 -2.391425
v 1.325592 0.193712 -0.545076
v 1.014563 2.270357 -1.010567
v 1.014563 0.193710 -1.010561
v 1.325592 2.270357 -0.545082
v 1.434810 0.193712 0.004002
v 1.434810 2.270357 0.004005
v 1.325591 1.138968 0.553083
v 1.325591 0.193712 0.553083
v 1.325591 1.441740 0.553083
v 1.151509 0.925430 0.813614
v 1.014564 0.193712 1.018568
v 1.014564 0.925430 1.018562
v 1.325591 1.748363 0.553083
v 1.151509 1.655602 0.813612
v 1.014564 1.748363 1.018560
v 1.014564 1.655602 1.018560
v 0.549076 2.270357 -1.321594
v 1.014563 0.193710 -1.010561
v 1.014563 2.270357 -1.010567
v 0.549076 0.193710 -1.321593
v -0.000001 2.270357 -1.430809
v -0.000001 0.193710 -1.430809
v -0.549080 0.193710 -1.321593
v -0.549080 2.270357 -1.321594
v -1.014566 0.193710 -1.010561
v -1.014566 2.270357 -1.010568
v 0.868655 1.655602 1.116062
v 1.014564 1.748363 1.018560
v 1.014564 1.655602 1.018560
v 0.549077 1.748363 1.329594
v 0.548256 1.441904 1.329754
v 0.168156 1.617172 1.405470
v 0.548256 1.139130 1.329754
v -0.000002 1.748363 1.438814
v -0.000002 1.617273 1.439913
v -0.168161 1.617172 1.405470
v 0.168156 0.981945 1.403574
v -0.549081 1.748363 1.329594
v 0.549077 0.193712 1.329594
v 0.868655 0.925430 1.116062
v 1.014564 0.193712 1.018568
v 1.014564 0.925430 1.018562
v -0.000002 0.193714 1.438814
v -0.000002 0.982035 1.437748
v -0.168161 0.981945 1.403574
v -0.549081 0.193712 1.329594
v -0.548259 1.441904 1.329754
v -0.548259 1.139130 1.329754
v -0.868658 1.655602 1.116062
v -1.014567 1.748363 1.018560
v -1.014567 1.655602 1.018560
v -0.868658 0.925430 1.116062
v -1.014567 0.193712 1.018568
v -1.014567 0.925430 1.018560
v 1.325592 2.270357 -0.545082
v 0.549076 2.270357 -1.321594
v 1.014563 2.270357 -1.010567
v -0.000002 2.270357 0.004005
v 1.434810 2.270357 0.004005
v -0.000001 2.270357 -1.430809
v -0.549080 2.270357 -1.321594
v -1.325594 2.270357 -0.545078
v -1.434813 2.270357 0.004005
v -1.014566 2.270357 -1.010568
v 1.432551 1.655602 0.813614
v 1.325591 1.441740 0.553083
v 1.432551 1.441738 0.599754
v 1.151509 1.655602 0.813612
v 1.432551 1.655602 1.116062
v 1.014564 1.655602 1.018560
v 0.868655 1.655602 1.116062
v 1.432551 1.441904 1.329756
v 0.548256 1.441904 1.329754
v 0.548256 1.441904 1.329754
v 1.432551 1.139130 1.329756
v 0.548256 1.139130 1.329754
v 1.432551 1.441904 1.329756
v 1.432551 0.925430 1.116062
v 0.548256 1.139130 1.329754
v 1.432551 1.139130 1.329756
v 0.868655 0.925430 1.116062
v 1.014564 0.925430 1.018562
v 1.432551 0.925430 0.813614
v 1.151509 0.925430 0.813614
v 1.432551 1.139130 0.599915
v 1.325591 1.138968 0.553083
v 1.325591 1.138968 0.553083
v 1.432551 1.441738 0.599754
v 1.325591 1.441740 0.553083
v 1.432551 1.139130 0.599915
v 1.014564 1.748363 1.018560
v -0.000002 1.748363 0.553083
v 1.325591 1.748363 0.553083
v 0.549077 1.748363 1.329594
v -0.000002 1.748363 1.438814
v -0.549081 1.748363 1.329594
v -1.014567 1.748363 1.018560
v -1.325594 1.748363 0.553076
v 1.508205 1.441738 0.599754
v 1.632338 1.565001 0.851143
v 1.508205 1.655602 0.813614
v 1.632338 1.404259 0.690403
v 1.702688 1.290514 0.964817
v 1.632338 1.565001 1.078533
v 1.632338 1.176657 0.690527
v 1.632338 1.404428 1.239107
v 1.508205 1.655602 1.116062
v 1.508205 1.441904 1.329756
v 1.632338 1.176613 1.239107
v 1.632338 1.016037 1.078533
v 1.508205 1.139130 1.329756
v 1.508205 0.925430 1.116062
v 1.632338 1.016037 0.851143
v 1.508205 0.925430 0.813614
v 1.508205 1.139130 0.599915
v 1.508205 1.655602 0.813614
v 1.632338 1.565001 1.078533
v 1.508205 1.655602 1.116062
v 1.632338 1.565001 0.851143
v 1.508205 1.441904 1.329756
v 1.632338 1.176613 1.239107
v 1.508205 1.139130 1.329756
v 1.632338 1.404428 1.239107
v 1.508205 0.925430 1.116062
v 1.632338 1.016037 0.851143
v 1.508205 0.925430 0.813614
v 1.632338 1.016037 1.078533
v 1.508205 1.139130 0.599915
v 1.632338 1.404259 0.690403
v 1.508205 1.441738 0.599754
v 1.632338 1.176657 0.690527
v -1.014566 2.270357 -1.010568
v -1.325594 0.193712 -0.545076
v -1.014566 0.193710 -1.010561
v -1.325594 2.270357 -0.545078
v -1.434813 0.193712 0.004002
v -1.434813 2.270357 0.004005
v -1.325594 1.138968 0.553076
v -1.325594 0.193712 0.553076
v -1.325594 1.441740 0.553076
v -1.151512 0.925430 0.813612
v -1.014567 0.193712 1.018568
v -1.014567 0.925430 1.018560
v -1.325594 1.748363 0.553076
v -1.151512 1.655602 0.813612
v -1.014567 1.748363 1.018560
v -1.014567 1.655602 1.018560
v -1.325594 1.441740 0.553076
v -1.432554 1.655602 0.813612
v -1.432554 1.441738 0.599752
v -1.151512 1.655602 0.813612
v -1.432554 1.655602 1.116056
v -1.014567 1.655602 1.018560
v -0.868658 1.655602 1.116062
v -1.432555 1.441904 1.329754
v -0.548259 1.441904 1.329754
v -0.548259 1.441904 1.329754
v -1.432555 1.139130 1.329754
v -1.432555 1.441904 1.329754
v -0.548259 1.139130 1.329754
v -0.548259 1.139130 1.329754
v -1.432554 0.925430 1.116056
v -1.432555 1.139130 1.329754
v -0.868658 0.925430 1.116062
v -1.014567 0.925430 1.018560
v -1.432554 0.925430 0.813612
v -1.151512 0.925430 0.813612
v -1.432554 1.139130 0.599915
v -1.325594 1.138968 0.553076
v -1.325594 1.138968 0.553076
v -1.432554 1.441738 0.599752
v -1.432554 1.139130 0.599915
v -1.325594 1.441740 0.553076
v -1.632341 1.565001 0.851141
v -1.508208 1.441738 0.599752
v -1.508208 1.655602 0.813612
v -1.632341 1.404259 0.690401
v -1.702692 1.290514 0.964815
v -1.632341 1.565001 1.078526
v -1.632341 1.176657 0.690525
v -1.632342 1.404428 1.239100
v -1.508208 1.655602 1.116056
v -1.508208 1.441904 1.329754
v -1.632342 1.176613 1.239100
v -1.632341 1.016037 1.078526
v -1.508208 1.139130 1.329754
v -1.508208 0.925430 1.116056
v -1.632341 1.016037 0.851141
v -1.508208 0.925430 0.813612
v -1.508208 1.139130 0.599915
v -1.508208 1.655602 0.813612
v -1.632341 1.565001 1.078526
v -1.632341 1.565001 0.851141
v -1.508208 1.655602 1.116056
v -1.508208 1.441904 1.329754
v -1.632342 1.176613 1.239100
v -1.632342 1.404428 1.239100
v -1.508208 1.139130 1.329754
v -1.508208 0.925430 1.116056
v -1.632341 1.016037 0.851141
v -1.632341 1.016037 1.078526
v -1.508208 0.925430 0.813612
v -1.508208 1.139130 0.599915
v -1.632341 1.404259 0.690401
v -1.632341 1.176657 0.690525
v -1.508208 1.441738 0.599752
v -0.000001 2.270357 -0.224079
v 0.339787 2.601158 -0.678234
v 0.339773 2.270357 -0.224079
v -0.000001 2.601170 -0.678346
v -0.339790 2.601158 -0.678234
v -0.339776 2.270357 -0.224079
v 0.339790 2.270357 -0.781179
v 0.339787 2.601158 -0.678234
v 0.339790 2.601156 -0.781179
v 0.339773 2.270357 -0.224079
v -0.000001 2.601156 -0.781298
v 0.339790 2.270357 -0.781179
v 0.339790 2.601156 -0.781179
v -0.000001 2.402716 -0.781298
v -0.339793 2.601156 -0.781179
v -0.339793 2.270357 -0.781179
v -0.339776 2.270357 -0.224079
v -0.339793 2.601156 -0.781179
v -0.339790 2.601158 -0.678234
v -0.339793 2.270357 -0.781179
v 0.339787 2.601158 -0.678234
v -0.000001 2.601156 -0.781298
v 0.339790 2.601156 -0.781179
v -0.000001 2.601170 -0.678346
v -0.339793 2.601156 -0.781179
v -0.339790 2.601158 -0.678234
v -0.000002 2.270357 0.004005
v 0.530257 1.832661 0.464405
v -0.000002 1.748363 0.553083
v 0.530257 2.186060 0.092670
v 0.781101 1.832661 0.464405
v 1.434810 2.270357 0.004005
v 0.781101 2.186060 0.092670
v 1.325591 1.748363 0.553083
v -0.530260 2.186060 0.092670
v -0.530260 1.832661 0.464405
v -0.781107 2.186060 0.092670
v -1.325594 1.748363 0.553076
v -1.434813 2.270357 0.004005
v -0.781105 1.832661 0.464405
v 0.530257 2.186060 0.092670
v 0.530257 1.832661 0.092731
v 0.530257 1.832661 0.464405
v 0.781101 1.832661 0.464405
v 0.781101 1.832661 0.092731
v 0.781101 2.186060 0.092670
v -0.781107 2.186060 0.092670
v -0.781105 1.832661 0.092731
v -0.781105 1.832661 0.464405
v -0.530260 1.832661 0.464405
v -0.530260 1.832661 0.092731
v -0.530260 2.186060 0.092670
v 1.432551 1.441738 0.599754
v 1.432551 1.655602 1.116062
v 1.432551 1.655602 0.813614
v 1.432551 1.441904 1.329756
v 1.432551 1.139130 1.329756
v 1.432551 1.139130 0.599915
v 1.432551 0.925430 1.116062
v 1.432551 0.925430 0.813614
v 1.508205 1.441904 1.329756
v 1.508205 1.655602 0.813614
v 1.508205 1.655602 1.116062
v 1.508205 1.441738 0.599754
v 1.508205 1.139130 0.599915
v 1.508205 1.139130 1.329756
v 1.508205 0.925430 0.813614
v 1.508205 0.925430 1.116062
v -1.432554 1.655602 1.116056
v -1.432554 1.441738 0.599752
v -1.432554 1.655602 0.813612
v -1.432555 1.441904 1.329754
v -1.432555 1.139130 1.329754
v -1.432554 1.139130 0.599915
v -1.432554 0.925430 1.116056
v -1.432554 0.925430 0.813612
v -1.508208 1.655602 0.813612
v -1.508208 1.441904 1.329754
v -1.508208 1.655602 1.116056
v -1.508208 1.441738 0.599752
v -1.508208 1.139130 0.599915
v -1.508208 1.139130 1.329754
v -1.508208 0.925430 0.813612
v -1.508208 0.925430 1.116056
v 0.168156 0.981945 1.403574
v 0.168157 1.618216 1.109266
v 0.168156 1.617172 1.405470
v 0.168157 0.982992 1.107368
v -0.000002 1.618317 1.143707
v 0.168156 1.617172 1.405470
v 0.168157 1.618216 1.109266
v -0.000002 1.617273 1.439913
v -0.168161 1.618216 1.109266
v -0.168161 1.617172 1.405470
v -0.168161 1.617172 1.405470
v -0.168161 0.982992 1.107368
v -0.168161 0.981945 1.403574
v -0.168161 1.618216 1.109266
v -0.000002 0.983080 1.141537
v -0.168161 0.981945 1.403574
v -0.168161 0.982992 1.107368
v -0.000002 0.982035 1.437748
v 0.168157 0.982992 1.107368
v 0.168156 0.981945 1.403574
v 0.530257 1.832661 0.464405
v 0.781101 1.832661 0.092731
v 0.781101 1.832661 0.464405
v 0.530257 1.832661 0.092731
v -0.781105 1.832661 0.464405
v -0.530260 1.832661 0.092731
v -0.530260 1.832661 0.464405
v -0.781105 1.832661 0.092731
v 1.434810 0.193712 0.004002
v 1.325592 0.193712 -0.545076
v 1.325591 0.193712 0.553083
v 1.014563 0.193710 -1.010561
v 1.014564 0.193712 1.018568
v 0.549076 0.193710 -1.321593
v 0.549077 0.193712 1.329594
v -0.000001 0.193710 -1.430809
v -0.000002 0.193714 1.438814
v -0.549080 0.193710 -1.321593
v -0.549081 0.193712 1.329594
v -1.014566 0.193710 -1.010561
v -1.014567 0.193712 1.018568
v -1.325594 0.193712 -0.545076
v -1.325594 0.193712 0.553076
v -1.434813 0.193712 0.004002
v 0.530257 2.186060 0.092670
v 0.781101 1.832661 0.092731
v 0.530257 1.832661 0.092731
v 0.781101 2.186060 0.092670
v 0.168157 0.982992 1.107368
v -0.000002 1.618317 1.143707
v 0.168157 1.618216 1.109266
v -0.000002 0.983080 1.141537
v -0.168161 0.982992 1.107368
v -0.168161 1.618216 1.109266
v 1.432551 1.563499 1.077908
v 1.508205 1.403709 1.237705
v 1.432551 1.403709 1.237705
v 1.508205 1.563499 1.077908
v 1.432551 1.563499 0.851763
v 1.508205 1.563499 0.851763
v 1.432551 1.403585 0.691853
v 1.508205 1.403585 0.691853
v 1.432551 1.403709 1.237705
v 1.508205 1.177313 1.237705
v 1.432551 1.177313 1.237705
v 1.508205 1.403709 1.237705
v 1.508205 1.017523 1.077908
v 1.432551 1.177313 1.237705
v 1.508205 1.177313 1.237705
v 1.432551 1.017523 1.077908
v 1.508205 1.017523 0.851763
v 1.432551 1.017523 0.851763
v 1.508205 1.177313 0.691971
v 1.432551 1.177313 0.691971
v 1.432551 1.177313 0.691971
v 1.508205 1.403585 0.691853
v 1.432551 1.403585 0.691853
v 1.508205 1.177313 0.691971
v -0.530260 2.186060 0.092670
v -0.781105 1.832661 0.092731
v -0.781107 2.186060 0.092670
v -0.530260 1.832661 0.092731
v -1.508208 1.403709 1.237698
v -1.432554 1.563499 1.077906
v -1.432555 1.403709 1.237698
v -1.508208 1.563499 1.077906
v -1.432554 1.563499 0.851755
v -1.508208 1.563499 0.851755
v -1.432554 1.403585 0.691847
v -1.508208 1.403585 0.691847
v -1.432555 1.403709 1.237698
v -1.508208 1.177313 1.237698
v -1.508208 1.403709 1.237698
v -1.432555 1.177313 1.237698
v -1.432555 1.177313 1.237698
v -1.508208 1.017523 1.077906
v -1.508208 1.177313 1.237698
v -1.432554 1.017523 1.077906
v -1.508208 1.017523 0.851755
v -1.432554 1.017523 0.851755
v -1.508208 1.177313 0.691971
v -1.432554 1.177313 0.691971
v -1.432554 1.177313 0.691971
v -1.508208 1.403585 0.691847
v -1.508208 1.177313 0.691971
v -1.432554 1.403585 0.691847
v 0.518089 1.290514 1.018618
v 0.474803 1.395018 1.544390
v 0.474803 1.395016 1.018618
v 0.518088 1.290516 1.544390
v 0.474803 1.186014 1.018618
v 0.474803 1.186014 1.544390
v 0.370301 1.438301 1.544390
v 0.474803 1.395016 1.018618
v 0.474803 1.395018 1.544390
v 0.370302 1.438301 1.018618
v 0.265801 1.395018 1.544390
v 0.265801 1.395016 1.018618
v 0.222515 1.290516 1.544390
v 0.265801 1.395016 1.018618
v 0.265801 1.395018 1.544390
v 0.222516 1.290514 1.018618
v 0.265801 1.186014 1.544390
v 0.265801 1.186014 1.018618
v 0.370301 1.142729 1.544390
v 0.265801 1.186014 1.018618
v 0.265801 1.186014 1.544390
v 0.370302 1.142727 1.018618
v 0.474803 1.186014 1.544390
v 0.474803 1.186014 1.018618
v -0.474808 1.395018 1.544390
v -0.518093 1.290514 1.018618
v -0.474807 1.395016 1.018618
v -0.518093 1.290516 1.544390
v -0.474807 1.186014 1.018618
v -0.474808 1.186014 1.544390
v -0.474807 1.395016 1.018618
v -0.370307 1.438301 1.544390
v -0.474808 1.395018 1.544390
v -0.370306 1.438301 1.018618
v -0.265805 1.395018 1.544390
v -0.265805 1.395016 1.018618
v -0.265805 1.395016 1.018618
v -0.222520 1.290516 1.544390
v -0.265805 1.395018 1.544390
v -0.222519 1.290514 1.018618
v -0.265805 1.186014 1.544390
v -0.265805 1.186014 1.018618
v -0.265805 1.186014 1.018618
v -0.370307 1.142729 1.544390
v -0.265805 1.186014 1.544390
v -0.370306 1.142727 1.018618
v -0.474808 1.186014 1.544390
v -0.474807 1.186014 1.018618
v 0.518088 1.290516 1.544390
v 0.370301 1.290516 1.595041
v 0.474803 1.395018 1.544390
v 0.474803 1.186014 1.544390
v 0.370301 1.438301 1.544390
v 0.370301 1.142729 1.544390
v 0.265801 1.395018 1.544390
v 0.265801 1.186014 1.544390
v 0.222515 1.290516 1.544390
v -0.518093 1.290516 1.544390
v -0.474808 1.395018 1.544390
v -0.370307 1.290516 1.595041
v -0.474808 1.186014 1.544390
v -0.370307 1.438301 1.544390
v -0.370307 1.142729 1.544390
v -0.265805 1.395018 1.544390
v -0.265805 1.186014 1.544390
v -0.222520 1.290516 1.544390
v -0.490694 0.004023 -0.486692
v -0.000001 0.193703 -0.689942
v -0.490694 0.193703 -0.486692
v -0.000001 0.004023 -0.689942
v 0.490691 0.193703 -0.486692
v 0.490691 0.004023 -0.486692
v -0.490694 0.193703 -0.486692
v -0.693945 0.004023 0.004002
v -0.490694 0.004023 -0.486692
v -0.693945 0.193705 0.004002
v -0.490694 0.004023 0.494692
v -0.490694 0.193705 0.494692
v -0.490694 0.193705 0.494692
v -0.000002 0.004023 0.697943
v -0.490694 0.004023 0.494692
v -0.000002 0.193707 0.697943
v 0.490690 0.004023 0.494694
v 0.490690 0.193705 0.494694
v 0.490691 0.004023 -0.486692
v 0.693942 0.193705 0.004002
v 0.490691 0.193703 -0.486692
v 0.693942 0.004023 0.004007
v 0.490690 0.004023 0.494694
v 0.490690 0.193705 0.494694
vn 0.7075 -0.0000 -0.7067
vn 0.9239 -0.0000 -0.3827
vn 1.0000 -0.0000 -0.0000
vn 0.9981 -0.0000 -0.0623
vn 0.9588 -0.0000 0.2842
vn 0.9239 -0.0000 0.3827
vn 0.8315 -0.0000 0.5556
vn 0.7075 -0.0000 0.7067
vn 0.9379 -0.0000 0.3470
vn 0.7067 -0.0000 -0.7075
vn 0.3827 -0.0000 -0.9239
vn -0.0000 -0.0000 -1.0000
vn -0.3827 -0.0000 -0.9239
vn -0.7067 -0.0000 -0.7075
vn -0.7067 -0.0001 -0.7075
vn 0.7068 -0.0000 0.7074
vn 0.7068 -0.0000 0.7075
vn 0.5555 -0.0002 0.8315
vn 0.3830 -0.0004 0.9238
vn 0.2904 -0.0003 0.9569
vn 0.1955 0.0011 0.9807
vn 0.2881 -0.0008 0.9576
vn -0.0000 0.0052 1.0000
vn -0.0000 0.0084 1.0000
vn -0.1957 0.0008 0.9807
vn 0.1940 -0.0000 0.9810
vn -0.3830 -0.0004 0.9238
vn 0.3821 0.0009 0.9241
vn 0.5553 0.0002 0.8316
vn 0.7067 -0.0000 0.7075
vn -0.0000 0.0021 1.0000
vn -0.0000 0.0014 1.0000
vn -0.1942 0.0003 0.9810
vn -0.3821 0.0009 0.9241
vn -0.2893 -0.0012 0.9573
vn -0.2870 0.0001 0.9579
vn -0.5555 -0.0002 0.8315
vn -0.7068 -0.0000 0.7075
vn -0.7068 -0.0000 0.7074
vn -0.5553 0.0002 0.8316
vn -0.7067 -0.0000 0.7075
vn -0.0000 1.0000 -0.0000
vn 0.3679 0.3930 -0.8428
vn 0.3021 0.4168 -0.8574
vn 0.0322 0.9378 -0.3457
vn -0.0000 0.9744 -0.2250
vn -0.0000 0.9239 0.3827
vn -0.0000 0.8034 0.5954
vn -0.0000 0.3832 0.9237
vn -0.0000 0.2461 0.9692
vn -0.0000 -0.2456 0.9694
vn -0.0000 -0.3823 0.9241
vn -0.0000 0.2456 0.9694
vn -0.0000 0.3823 0.9241
vn -0.0000 -0.3832 0.9237
vn -0.0000 -0.2462 0.9692
vn -0.0000 -0.9239 0.3827
vn -0.0000 -0.8034 0.5954
vn -0.0000 -1.0000 -0.0000
vn -0.0000 -0.9239 -0.3827
vn 0.0212 -0.9710 -0.2379
vn 0.2889 -0.4762 -0.8305
vn 0.3512 -0.4851 -0.8008
vn 0.3023 0.4163 -0.8575
vn 0.3681 0.3920 -0.8431
vn 0.3512 -0.4851 -0.8009
vn 0.2890 -0.4758 -0.8307
vn 0.6199 0.7248 -0.3007
vn 0.8073 0.5451 -0.2263
vn 0.6200 0.3005 -0.7248
vn 0.8073 0.2261 -0.5451
vn 0.8073 0.5451 0.2263
vn 0.8073 -0.2264 -0.5450
vn 0.8073 0.2263 0.5450
vn 0.6199 0.7248 0.3008
vn 0.6200 0.3007 0.7247
vn 0.8073 -0.2263 0.5450
vn 0.8073 -0.5451 0.2263
vn 0.6200 -0.3007 0.7247
vn 0.6199 -0.7247 0.3008
vn 0.8073 -0.5451 -0.2263
vn 0.6199 -0.7248 -0.3007
vn 0.6199 -0.3009 -0.7247
vn 0.6199 0.7251 0.2998
vn 0.8069 0.5459 0.2257
vn 0.6199 0.7251 -0.2998
vn 0.8068 0.5459 -0.2258
vn 0.6200 -0.2997 0.7251
vn 0.8069 -0.2257 0.5459
vn 0.6200 0.2997 0.7251
vn 0.8069 0.2257 0.5459
vn 0.6199 -0.7251 -0.2998
vn 0.8069 -0.5459 -0.2257
vn 0.6199 -0.7251 0.2998
vn 0.8068 -0.5460 0.2257
vn 0.6200 0.2995 -0.7252
vn 0.8069 0.2256 -0.5460
vn 0.6199 -0.3000 -0.7251
vn 0.8069 -0.2260 -0.5458
vn -0.7075 -0.0000 -0.7067
vn -0.9239 -0.0000 -0.3827
vn -1.0000 -0.0000 -0.0000
vn -0.9981 -0.0000 -0.0623
vn -0.9588 -0.0000 0.2842
vn -0.9239 -0.0000 0.3827
vn -0.8315 -0.0000 0.5556
vn -0.7075 -0.0000 0.7067
vn -0.9379 -0.0000 0.3470
vn -0.7075 -0.0001 0.7067
vn -0.3679 0.3930 -0.8428
vn -0.0322 0.9378 -0.3457
vn -0.3020 0.4168 -0.8574
vn -0.0000 -0.2461 0.9692
vn -0.0000 -0.8034 0.5955
vn -0.0212 -0.9710 -0.2379
vn -0.2889 -0.4763 -0.8305
vn -0.3512 -0.4851 -0.8008
vn -0.2890 -0.4758 -0.8307
vn -0.3681 0.3921 -0.8431
vn -0.3023 0.4163 -0.8575
vn -0.6199 0.7248 -0.3008
vn -0.6200 0.3005 -0.7248
vn -0.8072 0.5451 -0.2263
vn -0.8073 0.2262 -0.5451
vn -0.8073 0.5451 0.2263
vn -0.8073 -0.2264 -0.5450
vn -0.8073 0.2263 0.5450
vn -0.6199 0.7247 0.3008
vn -0.6199 0.3007 0.7247
vn -0.8073 -0.2263 0.5450
vn -0.8073 -0.5451 0.2263
vn -0.6200 -0.3007 0.7247
vn -0.6199 -0.7248 0.3007
vn -0.8073 -0.5451 -0.2263
vn -0.6199 -0.7248 -0.3007
vn -0.6199 -0.3009 -0.7247
vn -0.8069 0.5459 -0.2257
vn -0.8069 0.5459 0.2258
vn -0.6199 0.7251 -0.2998
vn -0.6199 0.7251 0.2998
vn -0.8069 0.2258 0.5459
vn -0.8069 -0.2258 0.5459
vn -0.6200 0.2997 0.7251
vn -0.6200 -0.2997 0.7251
vn -0.8068 -0.5460 0.2257
vn -0.8068 -0.5460 -0.2257
vn -0.6199 -0.7251 0.2998
vn -0.6199 -0.7251 -0.2998
vn -0.8069 -0.2259 -0.5458
vn -0.8068 0.2257 -0.5460
vn -0.6199 -0.3000 -0.7250
vn -0.6200 0.2995 -0.7252
vn -0.0000 0.8083 0.5888
vn -0.0001 0.8083 0.5887
vn -0.0000 0.8083 0.5887
vn -0.0000 0.8084 0.5887
vn 0.0001 0.8083 0.5887
vn 0.0003 -0.0000 -1.0000
vn -0.0003 -0.0000 -1.0000
vn -0.0000 1.0000 -0.0001
vn -0.0000 0.7248 0.6890
vn -0.0000 0.7247 0.6890
vn -0.0013 -1.0000 -0.0035
vn -0.0011 -1.0000 -0.0035
vn 0.0013 -1.0000 -0.0035
vn -0.0012 1.0000 0.0035
vn -0.0009 1.0000 0.0035
vn -0.0000 1.0000 0.0035
vn 0.0012 1.0000 0.0035
vn 0.0013 1.0000 0.0035
vn -0.0000 0.0002 1.0000
vn 0.2006 -0.0029 0.9797
vn -0.0000 -0.0031 1.0000
vn 0.1994 -0.0033 0.9799
vn -0.0000 -0.0034 1.0000
vn -0.1994 -0.0033 0.9799
vn -0.2006 -0.0029 0.9797
vn -0.0000 0.9239 -0.3827
vn -0.0000 0.3829 -0.9238
vn -0.0002 -0.3834 -0.9236
vn -0.0000 -0.3834 -0.9236
vn -0.0000 0.3819 -0.9242
vn -0.0000 -0.3825 -0.9240
vn 0.0002 -0.3832 0.9237
vn -0.0000 -0.3824 -0.9240
vn -0.0000 0.3821 -0.9241
vn 0.7075 0.7067 -0.0000
vn 0.7075 0.7067 -0.0002
vn 0.7075 -0.7067 0.0001
vn 0.7075 -0.7067 -0.0000
vn 0.7068 0.7075 -0.0000
vn 0.7067 0.7075 -0.0000
vn -0.7068 0.7074 -0.0000
vn -0.7067 0.7075 -0.0000
vn -0.7075 0.7067 -0.0000
vn -0.7075 0.7067 0.0002
vn -0.7075 -0.7067 -0.0000
vn -0.7067 -0.7075 -0.0000
vn -0.7068 -0.7075 -0.0000
vn 0.7067 -0.7075 -0.0001
vn 0.7068 -0.7075 -0.0000
vn -0.7068 0.7075 -0.0000
vn 0.7067 -0.7075 -0.0000
vn 0.2293 0.2293 0.9460
vn -0.0000 -0.0000 1.0000
vn 0.3242 -0.0000 0.9460
vn 0.2293 -0.2293 0.9460
vn -0.0000 0.3242 0.9460
vn -0.0000 -0.3242 0.9460
vn -0.2293 0.2293 0.9460
vn -0.2293 -0.2293 0.9460
vn -0.3242 -0.0000 0.9460
vn 0.7067 0.0001 -0.7075
vn -0.7075 0.0002 -0.7067
vn 0.7075 0.0002 0.7067
vt 11.738399 0.647840
vt 11.738399 0.679537
vt 11.731391 0.647840
vt 11.731391 0.679537
vt 11.723125 0.647840
vt 11.723125 0.679537
vt 11.714858 0.662268
vt 11.714858 0.647840
vt 11.714858 0.666889
vt 11.710936 0.659009
vt 11.707850 0.647840
vt 11.707850 0.659009
vt 11.714858 0.671569
vt 11.710936 0.670153
vt 11.707850 0.671569
vt 11.707850 0.670153
vt 0.504226 0.679537
vt 0.504226 0.647840
vt 0.511308 0.679537
vt 0.511308 0.647840
vt 0.519662 0.679537
vt 0.519662 0.647840
vt 0.528015 0.647840
vt 0.528015 0.679537
vt 0.535097 0.647840
vt 0.535097 0.679537
vt 0.495774 0.670153
vt 0.495774 0.671569
vt 0.493554 0.670153
vt 0.488692 0.671569
vt 0.488679 0.666892
vt 0.482896 0.669567
vt 0.488679 0.662270
vt 0.480338 0.671569
vt 0.480338 0.669569
vt 0.477780 0.669567
vt 0.482896 0.659871
vt 0.471984 0.671569
vt 0.488692 0.647840
vt 0.493554 0.659009
vt 0.495774 0.647840
vt 0.495774 0.659009
vt 0.480338 0.647840
vt 0.480338 0.659873
vt 0.477780 0.659871
vt 0.471984 0.647840
vt 0.471997 0.666892
vt 0.471997 0.662270
vt 0.467122 0.670153
vt 0.464903 0.671569
vt 0.464903 0.670153
vt 0.467122 0.659009
vt 0.464903 0.647840
vt 0.464903 0.659009
vt 0.495774 11.738399
vt 0.488692 11.743081
vt 0.500506 11.731391
vt 0.480338 11.723125
vt 0.502167 11.723125
vt 0.480338 11.744725
vt 0.471985 11.743081
vt 0.460171 11.731391
vt 0.458509 11.723125
vt 0.464903 11.738399
vt 0.502133 11.714155
vt 0.500506 11.714858
vt 0.502133 11.710936
vt 0.497857 11.710936
vt 0.502133 11.706383
vt 0.495774 11.707850
vt 0.493554 11.706383
vt 0.502133 11.703165
vt 0.488679 11.703165
vt 0.502133 0.662270
vt 0.502133 0.666892
vt 0.497867 11.703165
vt 0.511321 11.703165
vt 0.497867 11.706383
vt 0.506446 11.706383
vt 0.504226 11.707850
vt 0.497867 11.710936
vt 0.502143 11.710936
vt 0.497867 11.714153
vt 0.499494 11.714858
vt 0.499494 0.666889
vt 0.497867 0.666889
vt 0.499494 0.662268
vt 0.497867 0.662270
vt 0.480338 11.714858
vt 0.488692 11.703168
vt 0.480338 11.701524
vt 0.471984 11.703168
vt 0.464903 11.707850
vt 0.460171 11.714858
vt 11.710371 0.668771
vt 11.714155 0.666889
vt 11.712790 0.666317
vt 11.708660 0.664581
vt 11.706947 0.668771
vt 11.712790 0.662843
vt 11.704530 0.666320
vt 11.706383 0.670153
vt 11.703165 0.666892
vt 11.704530 0.662843
vt 11.706947 0.660392
vt 11.703165 0.662270
vt 11.706383 0.659009
vt 11.710371 0.660392
vt 11.714153 0.662270
vt 0.503284 11.706383
vt 0.505172 11.706947
vt 0.503284 11.710936
vt 0.505172 11.710371
vt 0.503284 0.662270
vt 0.505172 0.662843
vt 0.503284 0.666892
vt 0.505172 0.666320
vt 0.496716 11.710936
vt 0.494828 11.710371
vt 0.496716 11.706383
vt 0.494828 11.706947
vt 0.496716 0.666889
vt 0.494828 0.666317
vt 0.496716 0.662270
vt 0.494828 0.662843
vt -10.738399 0.647840
vt -10.731391 0.647840
vt -10.738399 0.679537
vt -10.731391 0.679537
vt -10.723125 0.647840
vt -10.723125 0.679537
vt -10.714858 0.662268
vt -10.714858 0.647840
vt -10.714858 0.666889
vt -10.710936 0.659009
vt -10.707850 0.647840
vt -10.707850 0.659009
vt -10.714858 0.671569
vt -10.710936 0.670153
vt -10.707850 0.671569
vt -10.707850 0.670153
vt 0.458543 11.714155
vt 0.458543 11.710936
vt 0.462819 11.710936
vt 0.458543 11.706383
vt 0.467122 11.706383
vt 0.458543 11.703165
vt 0.471997 11.703165
vt 0.458543 0.666892
vt 0.458543 0.662270
vt 0.541457 11.703165
vt 0.541457 11.706383
vt 0.528003 11.703165
vt 0.532878 11.706383
vt 0.535097 11.707850
vt 0.541457 11.710936
vt 0.537181 11.710936
vt 0.541457 11.714153
vt 0.539829 11.714858
vt 0.541457 0.662270
vt 0.541457 0.666889
vt 0.539829 0.662268
vt 0.539829 0.666889
vt -10.714155 0.666889
vt -10.710371 0.668771
vt -10.712790 0.666317
vt -10.708660 0.664581
vt -10.706947 0.668771
vt -10.712790 0.662843
vt -10.704531 0.666320
vt -10.706383 0.670153
vt -10.703165 0.666892
vt -10.704531 0.662843
vt -10.706947 0.660392
vt -10.703165 0.662270
vt -10.706383 0.659009
vt -10.710371 0.660392
vt -10.714153 0.662270
vt 0.455504 11.710371
vt 0.455504 11.706947
vt 0.457392 11.710936
vt 0.457392 11.706383
vt 0.455504 0.666320
vt 0.455504 0.662843
vt 0.457392 0.666892
vt 0.457392 0.662270
vt 0.544496 11.706947
vt 0.544496 11.710371
vt 0.542608 11.706383
vt 0.542608 11.710936
vt 0.544496 0.662843
vt 0.544496 0.666317
vt 0.542608 0.662270
vt 0.542608 0.666889
vt 0.485507 11.731223
vt 0.485508 11.738061
vt 0.480338 11.731223
vt 0.480338 11.738062
vt 0.475169 11.738061
vt 0.475169 11.731223
vt 11.739611 0.686113
vt 11.738061 0.686113
vt 11.739611 0.679537
vt 11.731223 0.679537
vt 0.514492 0.686113
vt 0.514492 0.679537
vt 0.519662 0.686113
vt 0.519662 0.681557
vt 0.524831 0.686113
vt 0.524831 0.679537
vt -10.738061 0.686113
vt -10.739611 0.686113
vt -10.731223 0.679537
vt -10.739611 0.679537
vt 0.485508 11.739611
vt 0.480338 11.739613
vt 0.475169 11.739611
vt 0.488405 11.716193
vt 0.488405 11.721789
vt 0.492222 11.716193
vt 0.492222 11.721789
vt 0.472271 11.721789
vt 0.472271 11.716193
vt 0.468454 11.721789
vt 0.468454 11.716193
vt 11.716193 0.672856
vt 11.721788 0.672856
vt 11.721789 0.678250
vt -10.721789 0.678250
vt -10.721788 0.672856
vt -10.716193 0.672856
vt -10.702025 0.669567
vt -10.706485 0.669583
vt -10.702054 0.659871
vt -10.706513 0.659887
vt 0.517104 11.706485
vt 0.517104 11.702025
vt 0.519662 11.705966
vt 0.519662 11.701508
vt 0.522220 11.706485
vt 0.522220 11.702025
vt 11.702054 0.659871
vt 11.706513 0.659887
vt 11.702025 0.669567
vt 11.706485 0.669583
vt 0.477780 11.706513
vt 0.477780 11.702054
vt 0.480338 11.705999
vt 0.480338 11.701540
vt 0.482896 11.706513
vt 0.482896 11.702054
vt 0.492222 11.721788
vt 0.488405 11.721788
vt 0.472271 11.721788
vt 0.468455 11.721788
vt 0.499494 11.731391
vt 0.497833 11.723125
vt 0.504226 11.738399
vt 0.511308 11.743081
vt 0.511308 11.703168
vt 0.519662 11.744725
vt 0.519662 11.701524
vt 0.528015 11.743081
vt 0.528015 11.703168
vt 0.535097 11.738399
vt 0.539829 11.731391
vt 0.541491 11.723125
vt 0.488405 0.672856
vt 0.492222 0.672856
vt 0.488405 0.678250
vt 0.492222 0.678250
vt 0.482896 0.669583
vt 0.480338 0.669584
vt 0.482896 0.659887
vt 0.480338 0.659889
vt 0.477780 0.659887
vt 0.477780 0.669583
vt 0.502133 11.704552
vt 0.503284 11.704552
vt 0.502133 11.706957
vt 0.503284 11.706957
vt 0.502133 11.710361
vt 0.503284 11.710361
vt 0.502133 11.712770
vt 0.503284 11.712770
vt 0.502133 0.662853
vt 0.503284 0.662853
vt 0.502133 0.666309
vt 0.503284 0.666309
vt 0.496716 11.704552
vt 0.497867 11.704552
vt 0.496716 11.706957
vt 0.497867 11.706957
vt 0.496716 11.710361
vt 0.497867 11.710361
vt 0.496716 11.712768
vt 0.497867 11.712768
vt 0.497867 0.666307
vt 0.496716 0.666307
vt 0.497867 0.662853
vt 0.496716 0.662853
vt 0.468454 0.678250
vt 0.468455 0.672856
vt 0.472271 0.678250
vt 0.472271 0.672856
vt 0.458543 11.704552
vt 0.458543 11.706957
vt 0.457392 11.704552
vt 0.457392 11.706957
vt 0.458543 11.710361
vt 0.457392 11.710361
vt 0.458543 11.712770
vt 0.457392 11.712770
vt 0.457392 0.666309
vt 0.457392 0.662853
vt 0.458543 0.666309
vt 0.458543 0.662853
vt 0.542608 11.704552
vt 0.542608 11.706957
vt 0.541457 11.704552
vt 0.541457 11.706957
vt 0.542608 11.710361
vt 0.541457 11.710361
vt 0.542608 11.712768
vt 0.541457 11.712768
vt 0.542608 0.662853
vt 0.542608 0.666307
vt 0.541457 0.662853
vt 0.541457 0.666307
vt 11.707850 0.666176
vt 11.699934 0.666176
vt 11.707850 0.664581
vt 11.699934 0.664581
vt 11.707850 0.662986
vt 11.699934 0.662986
vt 0.487562 11.699934
vt 0.487562 11.707850
vt 0.485972 11.699934
vt 0.485972 11.707850
vt 0.484382 11.699934
vt 0.484382 11.707850
vt -10.699934 0.666176
vt -10.707850 0.666176
vt -10.699934 0.664581
vt -10.707850 0.664581
vt -10.699934 0.662986
vt -10.707850 0.662986
vt 0.515618 11.699934
vt 0.515618 11.707850
vt 0.514028 11.699934
vt 0.514028 11.707850
vt 0.512438 11.699934
vt 0.512438 11.707850
vt 0.473114 11.699934
vt 0.474704 11.699934
vt 0.473114 11.707850
vt 0.474704 11.707850
vt 0.476294 11.699934
vt 0.476294 11.707850
vt 0.523706 11.699934
vt 0.525296 11.699934
vt 0.523706 11.707850
vt 0.525296 11.707850
vt 0.526886 11.699934
vt 0.526886 11.707850
vt 0.487562 0.666176
vt 0.485972 0.664581
vt 0.488220 0.664581
vt 0.487562 0.662986
vt 0.485972 0.666837
vt 0.485972 0.662325
vt 0.484382 0.666176
vt 0.484382 0.662986
vt 0.483723 0.664581
vt 0.474704 0.664581
vt 0.473114 0.666176
vt 0.472456 0.664581
vt 0.473114 0.662986
vt 0.474704 0.666837
vt 0.474704 0.662325
vt 0.476294 0.666176
vt 0.476294 0.662986
vt 0.476953 0.664581
vt 0.527127 0.647840
vt 0.527127 0.644945
vt 0.519662 0.644945
vt 0.512196 0.647840
vt 0.512196 0.644945
vt -10.730512 0.644945
vt -10.723125 0.644945
vt -10.730512 0.647840
vt -10.715737 0.644945
vt -10.715737 0.647840
vt 0.472873 0.644945
vt 0.480338 0.644945
vt 0.472873 0.647840
vt 0.487804 0.644945
vt 0.487804 0.647840
vt 11.730512 0.647840
vt 11.730512 0.644945
vt 11.723125 0.644945
vt 11.715737 0.644945
vt 11.715737 0.647840
s 1
g Litt_Deckhouse_V_AAFireControl_Front_steel_4
usemtl steel_4
f 4/1/1 3/2/1 2/3/2
f 5/4/2 2/3/2 3/2/1
f 2/3/2 5/4/2 6/5/3
f 7/6/4 6/5/3 5/4/2
f 6/5/3 7/6/4 8/7/5
f 6/5/3 8/7/5 9/8/6
f 10/9/5 8/7/5 7/6/4
f 8/7/5 11/10/7 9/8/6
f 9/8/6 11/10/7 12/11/8
f 13/12/8 12/11/8 11/10/7
f 14/13/9 10/9/5 7/6/4
f 10/9/5 14/13/9 15/14/7
f 14/13/9 16/15/8 15/14/7
f 17/16/8 15/14/7 16/15/8
f 20/17/10 19/18/10 18/19/11
f 21/20/11 18/19/11 19/18/10
f 18/19/11 21/20/11 22/21/12
f 23/22/12 22/21/12 21/20/11
f 23/22/12 24/23/13 22/21/12
f 25/24/13 22/21/12 24/23/13
f 24/23/13 26/25/14 25/24/13
f 27/26/15 25/24/13 26/25/14
f 30/27/16 29/28/17 28/29/18
f 31/30/19 28/29/18 29/28/17
f 32/31/20 28/29/18 31/30/19
f 31/30/19 33/32/21 32/31/20
f 32/31/20 33/32/21 34/33/22
f 31/30/19 35/34/23 33/32/21
f 36/35/24 33/32/21 35/34/23
f 36/35/24 35/34/23 37/36/25
f 38/37/26 34/33/22 33/32/21
f 39/38/27 37/36/25 35/34/23
f 34/33/22 38/37/26 40/39/28
f 40/39/28 41/40/29 34/33/22
f 40/39/28 42/41/30 41/40/29
f 43/42/17 41/40/29 42/41/30
f 40/39/28 38/37/26 44/43/31
f 45/44/32 44/43/31 38/37/26
f 45/44/32 46/45/33 44/43/31
f 47/46/34 44/43/31 46/45/33
f 37/36/25 48/47/35 46/45/33
f 48/47/35 37/36/25 39/38/27
f 49/48/36 46/45/33 48/47/35
f 47/46/34 46/45/33 49/48/36
f 50/49/37 48/47/35 39/38/27
f 39/38/27 51/50/38 50/49/37
f 52/51/39 50/49/37 51/50/38
f 53/52/40 47/46/34 49/48/36
f 47/46/34 53/52/40 54/53/41
f 55/54/41 54/53/41 53/52/40
f 58/55/42 57/56/42 56/57/42
f 57/56/42 59/58/42 56/57/42
f 56/57/42 59/58/42 60/59/42
f 61/60/42 59/58/42 57/56/42
f 61/60/42 62/61/42 59/58/42
f 62/61/42 63/62/42 59/58/42
f 59/58/42 63/62/42 64/63/42
f 65/64/42 63/62/42 62/61/42
f 68/65/43 67/66/44 66/67/45
f 69/68/46 66/67/45 67/66/44
f 66/67/45 69/68/46 70/69/47
f 71/70/42 70/69/47 69/68/46
f 72/71/48 70/69/47 71/70/42
f 70/69/47 72/71/48 73/72/49
f 74/73/50 73/72/49 72/71/48
f 77/33/51 76/74/52 75/31/53
f 78/75/54 75/31/53 76/74/52
f 81/76/55 80/77/56 79/78/57
f 82/79/58 79/78/57 80/77/56
f 83/80/59 79/78/57 82/79/58
f 79/78/57 83/80/59 84/81/60
f 85/82/61 84/81/60 83/80/59
f 84/81/60 85/82/61 86/83/62
f 87/84/63 86/83/62 85/82/61
f 90/85/64 89/86/65 88/87/66
f 91/88/67 88/87/66 89/86/65
f 94/66/42 93/89/42 92/70/42
f 92/70/42 93/89/42 95/90/42
f 95/90/42 93/89/42 96/91/42
f 93/89/42 97/92/42 96/91/42
f 93/89/42 98/93/42 97/92/42
f 93/89/42 99/94/42 98/93/42
f 102/14/68 101/95/69 100/96/70
f 103/97/71 100/96/70 101/95/69
f 101/95/69 104/98/3 103/97/71
f 105/99/72 104/98/3 101/95/69
f 103/97/71 104/98/3 106/100/73
f 107/101/74 104/98/3 105/99/72
f 105/99/72 108/102/75 107/101/74
f 109/103/76 107/101/74 108/102/75
f 110/104/77 104/98/3 107/101/74
f 111/105/78 104/98/3 110/104/77
f 110/104/77 112/106/79 111/105/78
f 113/107/80 111/105/78 112/106/79
f 114/108/81 104/98/3 111/105/78
f 106/100/73 104/98/3 114/108/81
f 114/108/81 115/10/82 106/100/73
f 116/109/83 106/100/73 115/10/82
f 119/110/84 118/111/85 117/112/86
f 120/113/87 117/112/86 118/111/85
f 123/114/88 122/115/89 121/116/90
f 124/117/91 121/116/90 122/115/89
f 127/118/92 126/119/93 125/120/94
f 128/121/95 125/120/94 126/119/93
f 131/122/96 130/123/97 129/124/98
f 132/125/99 129/124/98 130/123/97
f 135/126/100 134/127/101 133/128/100
f 136/129/101 133/128/100 134/127/101
f 134/127/101 137/130/102 136/129/101
f 138/131/103 136/129/101 137/130/102
f 137/130/102 139/132/104 138/131/103
f 139/132/104 137/130/102 140/133/105
f 141/134/104 138/131/103 139/132/104
f 142/135/106 139/132/104 140/133/105
f 140/133/105 143/136/107 142/135/106
f 144/137/107 142/135/106 143/136/107
f 141/134/104 145/138/108 138/131/103
f 145/138/108 141/134/104 146/139/106
f 145/138/108 146/139/106 147/140/109
f 148/141/107 147/140/109 146/139/106
f 151/142/110 150/143/111 149/94/112
f 152/144/46 149/94/112 150/143/111
f 150/143/111 153/145/47 152/144/46
f 154/93/42 152/144/46 153/145/47
f 153/145/47 155/146/48 154/93/42
f 153/145/47 156/147/49 155/146/48
f 157/148/50 155/146/48 156/147/49
f 160/149/54 159/150/52 158/47/53
f 161/48/51 158/47/53 159/150/52
f 164/151/55 163/152/57 162/153/113
f 165/154/114 162/153/113 163/152/57
f 163/152/57 166/155/59 165/154/114
f 163/152/57 167/156/60 166/155/59
f 168/157/115 166/155/59 167/156/60
f 167/156/60 169/158/116 168/157/115
f 170/159/117 168/157/115 169/158/116
f 173/160/118 172/161/119 171/162/117
f 174/163/120 171/162/117 172/161/119
f 177/139/121 176/164/122 175/165/123
f 178/166/124 175/165/123 176/164/122
f 179/167/102 175/165/123 178/166/124
f 179/167/102 180/168/125 175/165/123
f 179/167/102 178/166/124 181/169/126
f 179/167/102 182/170/127 180/168/125
f 180/168/125 182/170/127 183/171/128
f 184/172/129 183/171/128 182/170/127
f 179/167/102 185/173/130 182/170/127
f 179/167/102 186/174/131 185/173/130
f 185/173/130 186/174/131 187/175/132
f 188/176/133 187/175/132 186/174/131
f 179/167/102 189/177/134 186/174/131
f 179/167/102 181/169/126 189/177/134
f 189/177/134 181/169/126 190/135/135
f 191/178/136 190/135/135 181/169/126
f 194/179/137 193/180/138 192/181/139
f 195/182/140 192/181/139 193/180/138
f 198/183/141 197/184/142 196/185/143
f 199/186/144 196/185/143 197/184/142
f 202/187/145 201/188/146 200/189/147
f 203/190/148 200/189/147 201/188/146
f 206/191/149 205/192/150 204/193/151
f 207/194/152 204/193/151 205/192/150
f 210/195/153 209/196/154 208/197/155
f 211/198/156 208/197/155 209/196/154
f 211/198/156 212/199/157 208/197/155
f 213/200/153 208/197/155 212/199/157
f 216/201/3 215/202/3 214/203/3
f 217/204/3 214/203/3 215/202/3
f 220/205/158 219/206/158 218/207/12
f 221/208/12 218/207/12 219/206/158
f 218/207/12 221/208/12 222/209/159
f 223/210/159 222/209/159 221/208/12
f 226/211/102 225/212/102 224/213/102
f 227/214/102 224/213/102 225/212/102
f 230/215/42 229/216/160 228/196/42
f 231/198/160 228/196/42 229/216/160
f 229/216/160 232/217/42 231/198/160
f 233/199/42 231/198/160 232/217/42
f 236/89/161 235/218/161 234/58/161
f 237/219/162 234/58/161 235/218/161
f 235/218/161 236/89/161 238/220/161
f 234/58/161 237/219/162 239/59/161
f 240/221/162 239/59/161 237/219/162
f 239/59/161 240/221/162 241/66/161
f 238/220/161 241/66/161 240/221/162
f 241/66/161 238/220/161 236/89/161
f 234/58/161 242/222/162 236/89/161
f 243/223/161 236/89/161 242/222/162
f 242/222/162 234/58/161 244/224/162
f 236/89/161 243/223/161 245/94/161
f 246/63/161 244/224/162 234/58/161
f 247/225/161 245/94/161 243/223/161
f 244/224/162 246/63/161 247/225/161
f 245/94/161 247/225/161 246/63/161
g Litt_Deckhouse_V_AAFireControl_Front_steel_3
usemtl steel_3
f 250/226/3 249/227/3 248/228/3
f 253/229/102 252/230/102 251/231/102
f 256/226/3 255/227/3 254/228/3
f 259/229/102 258/230/102 257/231/102
f 262/14/3 261/102/3 260/96/3
f 263/103/3 260/96/3 261/102/3
f 263/103/3 264/106/3 260/96/3
f 265/109/3 260/96/3 264/106/3
f 264/106/3 266/107/3 265/109/3
f 267/10/3 265/109/3 266/107/3
f 270/171/102 269/139/102 268/172/102
f 271/164/102 268/172/102 269/139/102
f 271/164/102 272/178/102 268/172/102
f 273/175/102 268/172/102 272/178/102
f 272/178/102 274/135/102 273/175/102
f 275/176/102 273/175/102 274/135/102
f 278/139/102 277/164/102 276/171/102
f 279/172/102 276/171/102 277/164/102
f 279/172/102 277/164/102 280/175/102
f 281/178/102 280/175/102 277/164/102
f 280/175/102 281/178/102 282/176/102
f 283/135/102 282/176/102 281/178/102
f 286/102/3 285/103/3 284/14/3
f 287/96/3 284/14/3 285/103/3
f 287/96/3 285/103/3 288/109/3
f 289/106/3 288/109/3 285/103/3
f 288/109/3 289/106/3 290/10/3
f 291/107/3 290/10/3 289/106/3
f 294/232/102 293/233/102 292/234/102
f 295/235/102 292/234/102 293/233/102
f 298/236/163 297/237/163 296/238/163
f 299/239/164 296/238/163 297/237/163
f 296/238/163 299/239/164 300/240/165
f 301/241/165 300/240/165 299/239/164
f 304/242/3 303/243/3 302/244/3
f 305/245/3 302/244/3 303/243/3
f 308/246/166 307/247/166 306/248/167
f 309/249/168 306/248/167 307/247/166
f 306/248/167 309/249/168 310/250/169
f 311/251/170 310/250/169 309/249/168
f 314/220/42 313/252/42 312/218/42
f 315/253/42 312/218/42 313/252/42
f 318/223/42 317/254/42 316/225/42
f 319/255/42 316/225/42 317/254/42
f 322/84/59 321/256/59 320/257/59
f 321/256/59 322/84/59 323/258/59
f 324/80/59 323/258/59 322/84/59
f 323/258/59 324/80/59 325/259/59
f 326/260/59 325/259/59 324/80/59
f 325/259/59 326/260/59 327/261/59
f 328/262/59 327/261/59 326/260/59
f 327/261/59 328/262/59 329/263/59
f 330/264/59 329/263/59 328/262/59
f 329/263/59 330/264/59 331/265/59
f 332/155/59 331/265/59 330/264/59
f 331/265/59 332/155/59 333/266/59
f 334/159/59 333/266/59 332/155/59
f 334/159/59 335/267/59 333/266/59
g Litt_Deckhouse_V_AAFireControl_Front_details_2
usemtl details_2
f 338/268/171 337/269/171 336/270/171
f 339/271/171 336/270/171 337/269/171
f 342/272/172 341/273/173 340/274/174
f 343/275/175 340/274/174 341/273/173
f 343/275/175 341/273/173 344/276/176
f 345/277/177 344/276/176 341/273/173
f 348/278/49 347/279/49 346/280/47
f 349/281/47 346/280/47 347/279/49
f 346/280/47 349/281/47 350/282/178
f 351/283/178 350/282/178 349/281/47
f 350/282/178 351/283/178 352/284/179
f 353/285/179 352/284/179 351/283/178
f 356/286/52 355/287/52 354/288/54
f 357/289/54 354/288/54 355/287/52
f 360/290/55 359/291/55 358/292/57
f 361/293/57 358/292/57 359/291/55
f 358/292/57 361/293/57 362/294/60
f 363/295/60 362/294/60 361/293/57
f 362/294/60 363/295/60 364/296/180
f 365/297/181 364/296/180 363/295/60
f 368/298/182 367/299/182 366/300/183
f 369/301/183 366/300/183 367/299/182
f 372/302/171 371/303/171 370/304/171
f 373/305/171 370/304/171 371/303/171
f 376/306/49 375/307/47 374/308/49
f 377/309/47 374/308/49 375/307/47
f 375/307/47 378/310/178 377/309/47
f 379/311/178 377/309/47 378/310/178
f 378/310/178 380/312/179 379/311/178
f 381/313/179 379/311/178 380/312/179
f 384/314/54 383/315/52 382/316/54
f 385/317/52 382/316/54 383/315/52
f 388/318/184 387/319/57 386/320/55
f 389/321/57 386/320/55 387/319/57
f 387/319/57 390/322/60 389/321/57
f 391/323/60 389/321/57 390/322/60
f 390/322/60 392/324/181 391/323/60
f 393/325/181 391/323/60 392/324/181
f 396/326/185 395/327/186 394/328/185
f 397/329/186 394/328/185 395/327/186
g Litt_Deckhouse_V_AAFireControl_Front_details_4
usemtl details_4
f 400/330/187 399/331/188 398/332/3
f 401/333/3 398/332/3 399/331/188
f 398/332/3 401/333/3 402/334/189
f 403/335/190 402/334/189 401/333/3
f 406/336/191 405/337/192 404/338/42
f 407/339/42 404/338/42 405/337/192
f 404/338/42 407/339/42 408/340/193
f 409/341/194 408/340/193 407/339/42
f 412/342/195 411/343/196 410/344/102
f 413/345/102 410/344/102 411/343/196
f 410/344/102 413/345/102 414/346/197
f 415/347/197 414/346/197 413/345/102
f 418/348/198 417/349/199 416/350/59
f 419/351/59 416/350/59 417/349/199
f 416/350/59 419/351/59 420/352/200
f 421/353/201 420/352/200 419/351/59
f 424/343/195 423/345/102 422/342/195
f 425/344/102 422/342/195 423/345/102
f 423/345/102 426/347/197 425/344/102
f 427/346/197 425/344/102 426/347/197
f 430/354/202 429/355/42 428/356/194
f 431/357/42 428/356/194 429/355/42
f 429/355/42 432/358/191 431/357/42
f 433/359/192 431/357/42 432/358/191
f 436/331/187 435/333/3 434/330/187
f 437/332/3 434/330/187 435/333/3
f 435/333/3 438/335/190 437/332/3
f 439/334/190 437/332/3 438/335/190
f 442/360/203 441/361/59 440/362/203
f 443/363/59 440/362/203 441/361/59
f 441/361/59 444/364/198 443/363/59
f 445/365/199 443/363/59 444/364/198
f 448/366/204 447/367/205 446/368/206
f 446/368/206 447/367/205 449/369/207
f 450/370/208 447/367/205 448/366/204
f 449/369/207 447/367/205 451/371/209
f 452/372/210 447/367/205 450/370/208
f 451/371/209 447/367/205 453/373/211
f 454/374/212 447/367/205 452/372/210
f 453/373/211 447/367/205 454/374/212
f 457/375/205 456/376/210 455/377/212
f 457/375/205 455/377/212 458/378/211
f 457/375/205 459/379/208 456/376/210
f 457/375/205 458/378/211 460/380/209
f 457/375/205 461/381/204 459/379/208
f 457/375/205 460/380/209 462/382/207
f 457/375/205 463/383/206 461/381/204
f 457/375/205 462/382/207 463/383/206
g Litt_Deckhouse_V_AAFireControl_Front_details_3
usemtl details_3
f 466/384/14 465/22/12 464/385/14
f 467/386/12 464/385/14 465/22/12
f 465/22/12 468/387/10 467/386/12
f 469/388/213 467/386/12 468/387/10
f 472/389/214 471/390/102 470/391/100
f 473/130/102 470/391/100 471/390/102
f 471/390/102 474/392/107 473/130/102
f 475/393/109 473/130/102 474/392/107
f 478/394/41 477/395/205 476/396/41
f 479/43/205 476/396/41 477/395/205
f 477/395/205 480/397/30 479/43/205
f 481/398/30 479/43/205 480/397/30
f 484/399/1 483/5/3 482/400/1
f 485/401/3 482/400/1 483/5/3
f 485/401/3 483/5/3 486/402/215
f 487/403/8 486/402/215 483/5/3
