# Blender 5.1.0
# www.blender.org
mtllib Litt_Deckhouse_A1_Tower_Main_RangeFinder_Low.mtl
o Litt_Deckhouse_A1_Tower_Main_RangeFinder_Low
v -2.462045 0.152851 -3.711599
v -0.000006 0.152851 -2.836050
v -2.462045 0.152851 -2.590769
v -0.000006 0.152851 -3.711599
v 2.462032 0.152851 -3.711599
v 2.462032 0.152851 -2.590769
v -2.521497 -1.534401 -9.638406
v -2.521497 -1.534401 -9.638406
v -1.969275 1.924385 1.534220
v -1.092868 0.000431 2.233129
v -1.969275 0.000431 1.534220
v -1.092868 1.924385 2.233129
v -0.000007 0.000431 2.482569
v -0.000007 1.924385 2.482569
v 1.092854 1.924385 2.233129
v 1.092854 0.000431 2.233129
v 1.969261 1.924385 1.534220
v 1.969261 0.000431 1.534220
v -1.969275 0.000431 1.534220
v -2.455644 1.924385 0.524263
v -1.969275 1.924385 1.534220
v -2.455644 0.000431 0.524263
v -2.455644 0.000427 -0.420443
v -2.455644 1.924381 -0.420443
v -3.218357 1.924381 -2.515424
v -3.530546 0.000427 -2.295851
v -3.218357 0.000427 -2.515421
v -3.530546 1.924381 -2.295854
v -3.530546 1.924381 -2.295854
v -3.722340 0.000427 -1.943166
v -3.530546 0.000427 -2.295851
v -3.722341 1.924381 -1.943170
v -3.754330 1.924381 -1.519850
v -3.754330 0.000427 -1.519846
v -3.614283 0.000427 -1.135161
v -3.614283 1.924381 -1.135164
v -3.218357 1.924381 -2.515424
v -3.722341 1.924381 -1.943170
v -3.530546 1.924381 -2.295854
v -3.754330 1.924381 -1.519850
v -3.614283 1.924381 -1.135164
v -2.455644 1.924381 -0.420443
v -0.000006 1.924381 -2.836050
v -2.455644 1.924385 0.524263
v -1.969275 1.924385 1.534220
v -1.092868 1.924385 2.233129
v -0.000007 1.924385 2.482569
v 1.092854 1.924385 2.233129
v 1.969261 1.924385 1.534220
v 2.455631 1.924385 0.524263
v 2.455631 1.924381 -0.420443
v 3.218344 1.924381 -2.515421
v 3.614270 1.924381 -1.135161
v 3.754317 1.924381 -1.519846
v 3.722329 1.924381 -1.943166
v 3.530534 1.924381 -2.295851
v -3.685647 0.051329 -1.019469
v -3.518107 1.873478 -0.916125
v -3.518106 0.051329 -0.916121
v -3.685648 1.873478 -1.019472
v -3.614283 0.051329 -1.135161
v -3.685648 1.873478 -1.019472
v -3.685647 0.051329 -1.019469
v -3.614283 1.873478 -1.135164
v -3.614283 1.873478 -1.135164
v -3.518107 1.873478 -0.916125
v -3.685648 1.873478 -1.019472
v -3.446742 1.873478 -1.031817
v -3.446742 1.873478 -1.031817
v -3.518106 0.051329 -0.916121
v -3.518107 1.873478 -0.916125
v -3.446742 0.051329 -1.031813
v -3.446742 0.051329 -1.031813
v -3.685647 0.051329 -1.019469
v -3.518106 0.051329 -0.916121
v -3.614283 0.051329 -1.135161
v -2.462045 0.000427 -2.590769
v -3.218357 1.924381 -2.515424
v -3.218357 0.000427 -2.515421
v -2.462045 0.152851 -2.590769
v -0.000006 1.924381 -2.836050
v -0.000006 0.152851 -2.836050
v 2.462032 0.152851 -2.590769
v 3.218344 1.924381 -2.515421
v 2.462032 0.000427 -2.590769
v 3.218344 0.000427 -2.515421
v -2.462045 0.000427 -2.590769
v -2.462045 0.152851 -3.711599
v -2.462045 0.152851 -2.590769
v -2.462045 0.000427 -3.826681
v -2.462045 1.105566 -3.826681
v -2.462045 1.105566 -3.711599
v 2.455631 1.924385 0.524263
v 1.969261 0.000431 1.534220
v 1.969261 1.924385 1.534220
v 2.455631 0.000431 0.524263
v 2.455631 0.000427 -0.420443
v 2.455631 1.924381 -0.420443
v 3.218344 1.924381 -2.515421
v 3.530535 0.000427 -2.295851
v 3.530534 1.924381 -2.295851
v 3.218344 0.000427 -2.515421
v 3.722329 0.000427 -1.943166
v 3.530534 1.924381 -2.295851
v 3.530535 0.000427 -2.295851
v 3.722329 1.924381 -1.943166
v 3.754317 1.924381 -1.519846
v 3.754318 0.000427 -1.519846
v 3.614271 0.000427 -1.135161
v 3.614270 1.924381 -1.135161
v 3.685635 0.051329 -1.019472
v 3.518094 1.873478 -0.916121
v 3.685635 1.873478 -1.019472
v 3.518094 0.051329 -0.916121
v 3.614271 0.051329 -1.135161
v 3.685635 1.873478 -1.019472
v 3.614270 1.873478 -1.135161
v 3.685635 0.051329 -1.019472
v 3.614270 1.873478 -1.135161
v 3.518094 1.873478 -0.916121
v 3.446729 1.873478 -1.031813
v 3.685635 1.873478 -1.019472
v 3.446729 1.873478 -1.031813
v 3.518094 0.051329 -0.916121
v 3.446730 0.051329 -1.031813
v 3.518094 1.873478 -0.916121
v 3.446730 0.051329 -1.031813
v 3.685635 0.051329 -1.019472
v 3.614271 0.051329 -1.135161
v 3.518094 0.051329 -0.916121
v 2.462032 0.152851 -3.711599
v 2.462032 0.000427 -2.590769
v 2.462032 0.152851 -2.590769
v 2.462032 0.000427 -3.826681
v 2.462032 1.105566 -3.711599
v 2.462032 1.105566 -3.826681
v -2.462045 1.105566 -3.826681
v -0.000006 1.105566 -3.711599
v -2.462045 1.105566 -3.711599
v -0.000006 1.105566 -3.826681
v 2.462032 1.105566 -3.826681
v 2.462032 1.105566 -3.711599
v -2.462045 0.000427 -3.826681
v -0.000006 1.105566 -3.826681
v -2.462045 1.105566 -3.826681
v -0.000006 0.000427 -3.826681
v 2.462032 1.105566 -3.826681
v 2.462032 0.000427 -3.826681
v 2.359028 0.804811 -2.916803
v 2.359029 0.152851 -3.538061
v 2.359028 0.152851 -2.916803
v 2.359029 0.804811 -3.538061
v 1.773042 0.804811 -3.538061
v 2.359028 0.804811 -2.916803
v 1.773041 0.804811 -2.916803
v 2.359029 0.804811 -3.538061
v 1.773041 0.804811 -2.916803
v 2.359028 0.152851 -2.916803
v 1.773041 0.152851 -2.916803
v 2.359028 0.804811 -2.916803
v 1.773042 0.152851 -3.538061
v 2.359029 0.804811 -3.538061
v 1.773042 0.804811 -3.538061
v 2.359029 0.152851 -3.538061
v 1.773042 0.152851 -3.538061
v 1.773041 0.804811 -2.916803
v 1.773041 0.152851 -2.916803
v 1.773042 0.804811 -3.538061
v -2.359042 0.804811 -2.916803
v -2.359042 0.152851 -3.538061
v -2.359042 0.804811 -3.538061
v -2.359042 0.152851 -2.916803
v -1.773054 0.804811 -3.538061
v -2.359042 0.804811 -2.916803
v -2.359042 0.804811 -3.538061
v -1.773055 0.804811 -2.916803
v -1.773055 0.804811 -2.916803
v -2.359042 0.152851 -2.916803
v -2.359042 0.804811 -2.916803
v -1.773055 0.152851 -2.916803
v -1.773054 0.152851 -3.538061
v -2.359042 0.804811 -3.538061
v -2.359042 0.152851 -3.538061
v -1.773054 0.804811 -3.538061
v -1.773054 0.152851 -3.538061
v -1.773055 0.804811 -2.916803
v -1.773054 0.804811 -3.538061
v -1.773055 0.152851 -2.916803
v 0.650841 1.217836 2.569902
v 1.160683 1.743950 2.453535
v 1.160681 1.217836 2.453535
v 0.650841 1.743950 2.569902
v 0.583014 1.217836 2.272726
v 0.650841 1.743950 2.569902
v 0.650841 1.217836 2.569902
v 0.583014 1.743950 2.272726
v 0.583014 1.743950 2.272726
v 1.160683 1.743950 2.453535
v 0.650841 1.743950 2.569902
v 1.092854 1.743950 2.156358
v 1.092854 1.743950 2.156358
v 1.160681 1.217836 2.453535
v 1.160683 1.743950 2.453535
v 1.092854 1.217836 2.156358
v 1.092854 1.217836 2.156358
v 0.650841 1.217836 2.569902
v 1.160681 1.217836 2.453535
v 0.583014 1.217836 2.272726
v -0.650856 1.217836 2.569902
v -1.160697 1.743950 2.453535
v -0.650856 1.743950 2.569902
v -1.160697 1.217836 2.453535
v -0.583027 1.217836 2.272726
v -0.650856 1.743950 2.569902
v -0.583028 1.743950 2.272726
v -0.650856 1.217836 2.569902
v -0.583028 1.743950 2.272726
v -1.160697 1.743950 2.453535
v -1.092868 1.743950 2.156358
v -0.650856 1.743950 2.569902
v -1.092868 1.743950 2.156358
v -1.160697 1.217836 2.453535
v -1.092868 1.217836 2.156358
v -1.160697 1.743950 2.453535
v -1.092868 1.217836 2.156358
v -0.650856 1.217836 2.569902
v -0.583027 1.217836 2.272726
v -1.160697 1.217836 2.453535
v -0.661112 1.743950 3.468714
v 0.184325 1.743950 2.372537
v 0.661095 1.743942 3.468714
v -0.184338 1.743942 2.372537
v 0.661095 0.252501 3.468714
v 0.661095 0.998222 3.468714
v 0.184325 0.252506 2.372537
v 0.184325 1.743950 2.372537
v 0.661095 1.743942 3.468714
v -0.661112 0.998226 3.468714
v -0.184338 1.743942 2.372537
v -0.661112 1.743950 3.468714
v -0.184338 0.252506 2.372537
v -0.661112 0.252504 3.468714
v -2.455644 1.924381 -0.420443
v -2.863341 0.585566 -0.671934
v -2.863341 1.699530 -0.671934
v -2.455644 0.000427 -0.420443
v -3.614283 1.924381 -1.135164
v -3.206585 0.585566 -0.883665
v -3.206585 1.699530 -0.883665
v -3.614283 0.000427 -1.135161
v 2.863328 0.585566 -0.671934
v 2.455631 1.924381 -0.420443
v 2.863328 1.699530 -0.671934
v 2.455631 0.000427 -0.420443
v 3.614270 1.924381 -1.135161
v 3.206573 0.585566 -0.883669
v 3.206573 1.699530 -0.883669
v 3.614271 0.000427 -1.135161
v -0.661112 0.252504 3.468714
v 0.610030 0.303566 3.468714
v 0.661095 0.252501 3.468714
v -0.610047 0.303570 3.468714
v 0.610030 0.964968 3.468714
v -0.661112 0.998226 3.468714
v -0.610047 0.964970 3.468714
v 0.661095 0.998222 3.468714
v -0.610047 1.031481 3.468714
v -0.661112 1.743950 3.468714
v 0.610030 1.031479 3.468714
v -0.610047 1.692883 3.468714
v 0.610030 1.692883 3.468714
v 0.661095 1.743942 3.468714
v -3.614283 0.000427 -1.135161
v -3.722340 0.000427 -1.943166
v -3.754330 0.000427 -1.519846
v -3.530546 0.000427 -2.295851
v -3.218357 0.000427 -2.515421
v -2.455644 0.000427 -0.420443
v -2.462045 0.000427 -2.590769
v -0.000006 0.000427 -2.836050
v -2.455644 0.000431 0.524263
v -2.462045 0.000427 -3.826681
v -1.969275 0.000431 1.534220
v -0.000006 0.000427 -3.826681
v -1.092868 0.000431 2.233129
v 2.462032 0.000427 -3.826681
v -0.000007 0.000431 2.482569
v 1.092854 0.000431 2.233129
v 1.969261 0.000431 1.534220
v 2.455631 0.000431 0.524263
v 2.462032 0.000427 -2.590769
v 2.455631 0.000427 -0.420443
v 3.218344 0.000427 -2.515421
v 3.614271 0.000427 -1.135161
v 3.530535 0.000427 -2.295851
v 3.722329 0.000427 -1.943166
v 3.754318 0.000427 -1.519846
v -2.863341 1.699530 -0.671934
v -2.863341 0.585566 -1.260176
v -2.863341 1.699530 -1.260176
v -2.863341 0.585566 -0.671934
v -2.863341 0.585566 -0.671934
v -3.206585 0.585566 -1.260176
v -2.863341 0.585566 -1.260176
v -3.206585 0.585566 -0.883665
v -3.206585 0.585566 -0.883665
v -3.206585 1.699530 -1.260176
v -3.206585 0.585566 -1.260176
v -3.206585 1.699530 -0.883665
v -3.206585 1.699530 -0.883665
v -2.863341 1.699530 -1.260176
v -3.206585 1.699530 -1.260176
v -2.863341 1.699530 -0.671934
v 2.863328 1.699530 -0.671934
v 2.863329 0.585566 -1.260176
v 2.863328 0.585566 -0.671934
v 2.863329 1.699530 -1.260176
v 2.863328 0.585566 -0.671934
v 3.206573 0.585566 -1.260176
v 3.206573 0.585566 -0.883669
v 2.863329 0.585566 -1.260176
v 3.206573 0.585566 -0.883669
v 3.206573 1.699530 -1.260176
v 3.206573 1.699530 -0.883669
v 3.206573 0.585566 -1.260176
v 3.206573 1.699530 -0.883669
v 2.863329 1.699530 -1.260176
v 2.863328 1.699530 -0.671934
v 3.206573 1.699530 -1.260176
v 2.462032 0.152851 -3.711599
v -0.000006 1.105566 -3.711599
v 2.462032 1.105566 -3.711599
v -0.000006 0.152851 -3.711599
v -2.462045 1.105566 -3.711599
v -2.462045 0.152851 -3.711599
v -0.661112 0.252504 3.468714
v 0.184325 0.252506 2.372537
v -0.184338 0.252506 2.372537
v 0.661095 0.252501 3.468714
v -0.610047 0.303570 3.468714
v 0.160815 0.303566 2.582296
v 0.610030 0.303566 3.468714
v -0.160831 0.303570 2.582296
v 0.610030 0.303566 3.468714
v 0.160815 0.964968 2.582296
v 0.610030 0.964968 3.468714
v 0.160815 0.303566 2.582296
v 0.610030 0.964968 3.468714
v -0.160831 0.964970 2.582296
v -0.610047 0.964970 3.468714
v 0.160815 0.964968 2.582296
v -0.610047 0.964970 3.468714
v -0.160831 0.303570 2.582296
v -0.610047 0.303570 3.468714
v -0.160831 0.964970 2.582296
v 0.610030 1.031479 3.468714
v 0.160815 1.692883 2.582296
v 0.610030 1.692883 3.468714
v 0.160815 1.031479 2.582296
v 0.610030 1.692883 3.468714
v -0.160831 1.692883 2.582296
v -0.610047 1.692883 3.468714
v 0.160815 1.692883 2.582296
v -0.610047 1.692883 3.468714
v -0.160831 1.031481 2.582296
v -0.610047 1.031481 3.468714
v -0.160831 1.692883 2.582296
v -0.610047 1.031481 3.468714
v 0.160815 1.031479 2.582296
v 0.610030 1.031479 3.468714
v -0.160831 1.031481 2.582296
v -3.206585 1.699530 -1.260176
v -2.863341 0.585566 -1.260176
v -3.206585 0.585566 -1.260176
v -2.863341 1.699530 -1.260176
v 3.206573 1.699530 -1.260176
v 2.863329 0.585566 -1.260176
v 2.863329 1.699530 -1.260176
v 3.206573 0.585566 -1.260176
v 0.160815 0.303566 2.582296
v -0.160831 0.964970 2.582296
v 0.160815 0.964968 2.582296
v -0.160831 0.303570 2.582296
v 0.160815 1.692883 2.582296
v -0.160831 1.031481 2.582296
v -0.160831 1.692883 2.582296
v 0.160815 1.031479 2.582296
vn -0.0000 1.0000 -0.0000
vn -0.7812 -0.0000 0.6243
vn -0.4339 -0.0000 0.9010
vn -0.0000 -0.0000 1.0000
vn 0.4339 -0.0000 0.9010
vn 0.7812 -0.0000 0.6243
vn -0.7825 -0.0000 0.6226
vn -0.9749 -0.0000 0.2225
vn -1.0000 -0.0000 -0.0000
vn -0.5753 -0.0000 -0.8180
vn -0.7458 -0.0000 -0.6661
vn -0.7459 -0.0001 -0.6661
vn -0.7472 -0.0000 -0.6646
vn -0.9592 -0.0000 -0.2828
vn -0.9906 -0.0000 0.1364
vn -0.9397 -0.0000 0.3421
vn -0.5250 -0.0000 0.8511
vn -0.8511 -0.0000 -0.5250
vn 0.8511 -0.0000 0.5250
vn -0.0000 -1.0000 -0.0000
vn -0.0991 -0.0000 -0.9951
vn -0.0000 -0.0000 -1.0000
vn 0.0991 -0.0000 -0.9951
vn 0.7825 -0.0000 0.6226
vn 0.9749 -0.0000 0.2225
vn 1.0000 -0.0000 -0.0000
vn 0.7459 -0.0000 -0.6661
vn 0.7458 -0.0000 -0.6662
vn 0.5753 -0.0000 -0.8180
vn 0.7472 -0.0000 -0.6646
vn 0.9592 -0.0000 -0.2828
vn 0.9906 -0.0000 0.1364
vn 0.9397 -0.0000 0.3421
vn 0.5250 -0.0000 0.8511
vn 0.8511 -0.0000 -0.5250
vn -0.8511 -0.0000 0.5250
vn 0.2225 -0.0000 0.9749
vn 0.9749 -0.0000 -0.2225
vn -0.2225 -0.0000 0.9749
vn -0.9749 -0.0000 -0.2225
vn 0.9170 -0.0000 -0.3988
vn -0.9170 -0.0000 -0.3988
vn -0.8920 -0.0000 0.4520
vn 0.8920 -0.0000 0.4520
vt 0.442864 3.526222
vt 0.480321 3.529914
vt 0.442864 3.543096
vt 0.480321 3.543096
vt 0.517778 3.543096
vt 0.517778 3.526222
vt 0.450360 0.657261
vt 0.463694 0.657261
vt 0.450360 0.686627
vt 0.463694 0.686627
vt 0.480321 0.657261
vt 0.480321 0.686627
vt 0.496947 0.686627
vt 0.496947 0.657261
vt 0.510281 0.686627
vt 0.510281 0.657261
vt -2.464120 0.686627
vt -2.479325 0.686627
vt -2.464120 0.657261
vt -2.479325 0.657261
vt -2.493548 0.657261
vt -2.493548 0.686627
vt 0.568643 0.657261
vt 0.573393 0.657261
vt 0.568643 0.686627
vt 0.573393 0.686627
vt -2.521782 0.657261
vt -2.516472 0.657261
vt -2.521782 0.686627
vt -2.516472 0.686627
vt -2.510099 0.686627
vt -2.510099 0.657261
vt -2.504308 0.657261
vt -2.504308 0.686627
vt 0.426607 3.521782
vt 0.423690 3.516472
vt 0.431357 3.525087
vt 0.423203 3.510099
vt 0.425333 3.504308
vt 0.442961 3.493548
vt 0.442961 3.479325
vt 0.450360 3.464120
vt 0.463694 3.453598
vt 0.480321 3.449843
vt 0.496947 3.453598
vt 0.510281 3.464120
vt 0.517681 3.479325
vt 0.517681 3.493548
vt 0.529285 3.525087
vt 0.535308 3.504308
vt 0.537439 3.510099
vt 0.536952 3.516472
vt 0.534034 3.521782
vt 0.426797 0.658038
vt 0.426797 0.685850
vt 0.424248 0.658038
vt 0.424248 0.685850
vt -2.502566 0.658038
vt -2.502566 0.685850
vt -2.504308 0.658038
vt -2.504308 0.685850
vt 0.424248 3.502566
vt 0.426797 3.501010
vt 0.427882 3.502752
vt 3.501010 0.685850
vt 3.501010 0.658038
vt 3.502752 0.685850
vt 3.502752 0.658038
vt 0.573203 3.501010
vt 0.575752 3.502566
vt 0.572118 3.502752
vt 0.574667 3.504308
vt 0.557136 0.657261
vt 0.557136 0.659587
vt 0.519679 0.686627
vt 0.519679 0.659587
vt 0.482222 0.659587
vt 0.470715 0.686627
vt 0.482222 0.657261
vt 0.470715 0.657261
vt -2.526222 0.659587
vt -2.543096 0.659587
vt -2.526222 0.657261
vt -2.544828 0.657261
vt -2.544828 0.674129
vt -2.543096 0.674129
vt 3.464120 0.686627
vt 3.464120 0.657261
vt 3.479325 0.686627
vt 3.479325 0.657261
vt 3.493548 0.657261
vt 3.493548 0.686627
vt 0.465966 0.686627
vt 0.465966 0.657261
vt 3.521782 0.657261
vt 3.521782 0.686627
vt 3.516472 0.657261
vt 3.516472 0.686627
vt 3.510099 0.686627
vt 3.510099 0.657261
vt 3.504308 0.657261
vt 3.504308 0.686627
vt 0.536394 0.685850
vt 0.533845 0.685850
vt 0.536394 0.658038
vt 0.533845 0.658038
vt 3.504308 0.685850
vt 3.502566 0.685850
vt 3.504308 0.658038
vt 3.502566 0.658038
vt 0.532759 3.502752
vt 0.533845 3.501010
vt 0.536394 3.502566
vt -2.502752 0.658038
vt -2.501010 0.658038
vt -2.502752 0.685850
vt -2.501010 0.685850
vt 0.464692 3.504308
vt 0.463606 3.502566
vt 0.467241 3.502752
vt 0.466155 3.501010
vt 3.526222 0.659587
vt 3.526222 0.657261
vt 3.543096 0.659587
vt 3.544828 0.657261
vt 3.543096 0.674129
vt 3.544828 0.674129
vt 0.442864 3.544828
vt 0.480321 3.544828
vt 0.517778 3.544828
vt 0.557136 0.674129
vt 0.519679 0.674129
vt 0.519679 0.657261
vt 0.482222 0.674129
vt 3.531130 0.659587
vt 3.540483 0.659587
vt 3.531130 0.669539
vt 3.540483 0.669539
vt 0.507296 3.531130
vt 0.516211 3.531130
vt 0.507296 3.540483
vt 0.516211 3.540483
vt 0.507296 0.659587
vt 0.516211 0.659587
vt 0.507296 0.669539
vt 0.516211 0.669539
vt 0.492704 0.669539
vt 0.483789 0.669539
vt 0.492704 0.659587
vt 0.483789 0.659587
vt -2.531130 0.659587
vt -2.531130 0.669539
vt -2.540483 0.659587
vt -2.540483 0.669539
vt 0.444431 3.540483
vt 0.444431 3.531130
vt 0.453346 3.540483
vt 0.453346 3.531130
vt 0.444431 0.669539
vt 0.444431 0.659587
vt 0.453346 0.669539
vt 0.453346 0.659587
vt 0.555569 0.659587
vt 0.555569 0.669539
vt 0.546654 0.659587
vt 0.546654 0.669539
vt 0.497979 0.675843
vt 0.497979 0.683873
vt 0.490223 0.675843
vt 0.490223 0.683873
vt -2.448528 0.675843
vt -2.448528 0.683873
vt -2.453002 0.675843
vt -2.453002 0.683873
vt 0.490223 3.448528
vt 0.497979 3.450280
vt 0.489191 3.453002
vt 0.496947 3.454754
vt 3.450280 0.683873
vt 3.450280 0.675843
vt 3.454754 0.683873
vt 3.454754 0.675843
vt 0.502021 3.450280
vt 0.509777 3.448528
vt 0.503053 3.454754
vt 0.510809 3.453002
vt 0.470419 0.683873
vt 0.462662 0.683873
vt 0.470419 0.675843
vt 0.462662 0.675843
vt 3.453002 0.683873
vt 3.448528 0.683873
vt 3.453002 0.675843
vt 3.448528 0.675843
vt 0.463694 3.454754
vt 0.462662 3.450280
vt 0.471451 3.453002
vt 0.470419 3.448528
vt -2.454754 0.675843
vt -2.450280 0.675843
vt -2.454754 0.683873
vt -2.450280 0.683873
vt 0.528549 3.453002
vt 0.529581 3.448528
vt 0.536306 3.454754
vt 0.537338 3.450280
vt 0.490379 3.434997
vt 0.483125 3.451499
vt 0.470263 3.434997
vt 0.477516 3.451499
vt 3.451499 0.661108
vt 3.434997 0.672491
vt 3.434997 0.661108
vt 3.451499 0.683873
vt 3.434997 0.683873
vt -2.434997 0.683873
vt -2.451499 0.683873
vt -2.434997 0.672491
vt -2.451499 0.661108
vt -2.434997 0.661108
vt 0.436758 0.683195
vt 0.436758 0.666192
vt 0.442961 0.686627
vt 0.442961 0.657261
vt 0.425333 0.686627
vt 0.431536 0.666192
vt 0.431536 0.683195
vt 0.425333 0.657261
vt 0.523883 0.683195
vt 0.517681 0.686627
vt 0.523883 0.666192
vt 0.517681 0.657261
vt 0.535308 0.686627
vt 0.529105 0.666192
vt 0.529105 0.683195
vt 0.535308 0.657261
vt 0.490379 0.661108
vt 0.489602 0.661888
vt 0.470263 0.661108
vt 0.471040 0.661888
vt 0.489602 0.671983
vt 0.470263 0.672491
vt 0.471040 0.671983
vt 0.490379 0.672491
vt 0.471040 0.672998
vt 0.470263 0.683873
vt 0.489602 0.672998
vt 0.471040 0.683093
vt 0.489602 0.683093
vt 0.490379 0.683873
vt 0.576797 3.510099
vt 0.576310 3.516472
vt 0.573393 3.521782
vt 0.568643 3.525087
vt 0.557039 3.493548
vt 0.557136 3.526222
vt 0.519679 3.529914
vt 0.557039 3.479325
vt 0.557136 3.544828
vt 0.549640 3.464120
vt 0.519679 3.544828
vt 0.536306 3.453598
vt 0.482222 3.544828
vt 0.519679 3.449843
vt 0.503053 3.453598
vt 0.489719 3.464120
vt 0.482319 3.479325
vt 0.482222 3.526222
vt 0.482319 3.493548
vt 0.470715 3.525087
vt 0.465966 3.521782
vt 0.463048 3.516472
vt 0.462561 3.510099
vt -2.506190 0.683195
vt -2.506190 0.666192
vt -2.497334 0.683195
vt -2.497334 0.666192
vt 0.436758 3.506190
vt 0.431536 3.506190
vt 0.436758 3.497334
vt 0.431536 3.500521
vt 3.506190 0.666192
vt 3.506190 0.683195
vt 3.500521 0.666192
vt 3.500521 0.683195
vt 0.568464 3.506190
vt 0.563242 3.506190
vt 0.568464 3.500521
vt 0.563242 3.497334
vt 3.497334 0.666192
vt 3.497334 0.683195
vt 0.529105 3.500521
vt 0.529106 3.506190
vt 0.523883 3.497334
vt 0.523883 3.506190
vt -2.500521 0.683195
vt -2.500521 0.666192
vt 0.476117 3.497334
vt 0.476117 3.506190
vt 0.470895 3.500521
vt 0.470894 3.506190
vt 0.517778 0.674129
vt 0.480321 0.674129
vt 0.517778 0.659587
vt 0.480321 0.659587
vt 0.442864 0.674129
vt 0.442864 0.659587
vt 0.522484 3.451499
vt 0.516875 3.451499
vt 0.529737 3.434997
vt 0.509621 3.434997
vt 0.489602 3.434997
vt 0.482767 3.448342
vt 0.471040 3.434997
vt 0.477874 3.448342
vt -2.434997 0.671983
vt -2.448342 0.671983
vt -2.434997 0.661888
vt -2.448342 0.661888
vt 0.528960 3.434997
vt 0.522126 3.448342
vt 0.510398 3.434997
vt 0.517233 3.448342
vt 3.434997 0.661888
vt 3.448342 0.661888
vt 3.434997 0.671983
vt 3.448342 0.671983
vt -2.434997 0.683093
vt -2.448342 0.683093
vt -2.434997 0.672998
vt -2.448342 0.672998
vt 3.434997 0.672998
vt 3.448342 0.672998
vt 3.434997 0.683093
vt 3.448342 0.683093
vt 0.529106 0.683195
vt 0.529106 0.666192
vt 0.482767 0.671983
vt 0.477874 0.671983
vt 0.482767 0.661888
vt 0.477874 0.661888
vt 0.477874 0.683093
vt 0.477874 0.672998
vt 0.482767 0.683093
vt 0.482767 0.672998
s 1
g Litt_Deckhouse_A1_Tower_Main_RangeFinder_Low_steel_deck_1
usemtl steel_deck_1
f 3/1/1 2/2/1 1/3/1
f 4/4/1 1/3/1 2/2/1
f 4/4/1 2/2/1 5/5/1
f 6/6/1 5/5/1 2/2/1
g Litt_Deckhouse_A1_Tower_Main_RangeFinder_Low_steel_4
usemtl steel_4
f 11/7/2 10/8/3 9/9/2
f 12/10/3 9/9/2 10/8/3
f 10/8/3 13/11/4 12/10/3
f 14/12/4 12/10/3 13/11/4
f 14/12/4 13/11/4 15/13/5
f 16/14/5 15/13/5 13/11/4
f 15/13/5 16/14/5 17/15/6
f 18/16/6 17/15/6 16/14/5
f 21/17/7 20/18/8 19/19/7
f 22/20/8 19/19/7 20/18/8
f 22/20/8 20/18/8 23/21/9
f 24/22/9 23/21/9 20/18/8
f 27/23/10 26/24/11 25/25/10
f 28/26/12 25/25/10 26/24/11
f 31/27/13 30/28/14 29/29/13
f 32/30/14 29/29/13 30/28/14
f 32/30/14 30/28/14 33/31/15
f 34/32/15 33/31/15 30/28/14
f 34/32/15 35/33/16 33/31/15
f 36/34/16 33/31/15 35/33/16
f 39/35/1 38/36/1 37/37/1
f 38/36/1 40/38/1 37/37/1
f 37/37/1 40/38/1 41/39/1
f 41/39/1 42/40/1 37/37/1
f 43/2/1 37/37/1 42/40/1
f 42/40/1 44/41/1 43/2/1
f 44/41/1 45/42/1 43/2/1
f 43/2/1 45/42/1 46/43/1
f 43/2/1 46/43/1 47/44/1
f 48/45/1 43/2/1 47/44/1
f 49/46/1 43/2/1 48/45/1
f 49/46/1 50/47/1 43/2/1
f 50/47/1 51/48/1 43/2/1
f 43/2/1 51/48/1 52/49/1
f 53/50/1 52/49/1 51/48/1
f 54/51/1 52/49/1 53/50/1
f 55/52/1 52/49/1 54/51/1
f 56/53/1 52/49/1 55/52/1
f 59/54/17 58/55/17 57/56/17
f 60/57/17 57/56/17 58/55/17
f 63/58/18 62/59/18 61/60/18
f 64/61/18 61/60/18 62/59/18
f 67/62/1 66/63/1 65/39/1
f 68/64/1 65/39/1 66/63/1
f 71/65/19 70/66/19 69/67/19
f 72/68/19 69/67/19 70/66/19
f 75/69/20 74/70/20 73/71/20
f 76/72/20 73/71/20 74/70/20
f 79/23/21 78/25/21 77/73/21
f 80/74/21 77/73/21 78/25/21
f 78/25/21 81/75/22 80/74/21
f 82/76/22 80/74/21 81/75/22
f 82/76/22 81/75/22 83/77/23
f 84/78/23 83/77/23 81/75/22
f 83/77/23 84/78/23 85/79/23
f 86/80/23 85/79/23 84/78/23
f 89/81/9 88/82/9 87/83/9
f 90/84/9 87/83/9 88/82/9
f 90/84/9 88/82/9 91/85/9
f 92/86/9 91/85/9 88/82/9
f 95/87/24 94/88/24 93/89/25
f 96/90/25 93/89/25 94/88/24
f 96/90/25 97/91/26 93/89/25
f 98/92/26 93/89/25 97/91/26
f 101/93/27 100/94/28 99/78/29
f 102/80/29 99/78/29 100/94/28
f 105/95/30 104/96/30 103/97/31
f 106/98/31 103/97/31 104/96/30
f 106/98/31 107/99/32 103/97/31
f 108/100/32 103/97/31 107/99/32
f 108/100/32 107/99/32 109/101/33
f 110/102/33 109/101/33 107/99/32
f 113/103/34 112/104/34 111/105/34
f 114/106/34 111/105/34 112/104/34
f 117/107/35 116/108/35 115/109/35
f 118/110/35 115/109/35 116/108/35
f 121/111/1 120/112/1 119/50/1
f 122/113/1 119/50/1 120/112/1
f 125/114/36 124/115/36 123/116/36
f 126/117/36 123/116/36 124/115/36
f 129/118/20 128/119/20 127/120/20
f 130/121/20 127/120/20 128/119/20
f 133/122/26 132/123/26 131/124/26
f 134/125/26 131/124/26 132/123/26
f 131/124/26 134/125/26 135/126/26
f 136/127/26 135/126/26 134/125/26
f 139/3/1 138/4/1 137/128/1
f 140/129/1 137/128/1 138/4/1
f 140/129/1 138/4/1 141/130/1
f 142/5/1 141/130/1 138/4/1
f 145/131/22 144/132/22 143/73/22
f 146/133/22 143/73/22 144/132/22
f 144/132/22 147/134/22 146/133/22
f 148/79/22 146/133/22 147/134/22
f 151/135/26 150/136/26 149/137/26
f 152/138/26 149/137/26 150/136/26
f 155/139/1 154/140/1 153/141/1
f 156/142/1 153/141/1 154/140/1
f 159/143/4 158/144/4 157/145/4
f 160/146/4 157/145/4 158/144/4
f 163/147/22 162/148/22 161/149/22
f 164/150/22 161/149/22 162/148/22
f 167/151/9 166/152/9 165/153/9
f 168/154/9 165/153/9 166/152/9
f 171/154/9 170/153/9 169/152/9
f 172/151/9 169/152/9 170/153/9
f 175/155/1 174/156/1 173/157/1
f 176/158/1 173/157/1 174/156/1
f 179/159/4 178/160/4 177/161/4
f 180/162/4 177/161/4 178/160/4
f 183/163/22 182/164/22 181/165/22
f 184/166/22 181/165/22 182/164/22
f 187/138/26 186/137/26 185/136/26
f 188/135/26 185/136/26 186/137/26
f 191/167/37 190/168/37 189/169/37
f 192/170/37 189/169/37 190/168/37
f 195/171/8 194/172/8 193/173/8
f 196/174/8 193/173/8 194/172/8
f 199/175/1 198/176/1 197/177/1
f 200/178/1 197/177/1 198/176/1
f 203/179/38 202/180/38 201/181/38
f 204/182/38 201/181/38 202/180/38
f 207/183/20 206/184/20 205/185/20
f 208/186/20 205/185/20 206/184/20
f 211/187/39 210/188/39 209/189/39
f 212/190/39 209/189/39 210/188/39
f 215/191/25 214/192/25 213/193/25
f 216/194/25 213/193/25 214/192/25
f 219/195/1 218/196/1 217/197/1
f 220/198/1 217/197/1 218/196/1
f 223/199/40 222/200/40 221/201/40
f 224/202/40 221/201/40 222/200/40
f 227/203/20 226/204/20 225/205/20
f 228/206/20 225/205/20 226/204/20
f 231/207/1 230/208/1 229/209/1
f 232/210/1 229/209/1 230/208/1
f 235/211/41 234/212/41 233/213/41
f 234/212/41 235/211/41 236/214/41
f 237/215/41 234/212/41 236/214/41
f 240/216/42 239/217/42 238/218/42
f 239/217/42 241/219/42 238/218/42
f 238/218/42 241/219/42 242/220/42
f 245/221/17 244/222/17 243/223/17
f 246/224/17 243/223/17 244/222/17
f 243/223/17 247/225/17 245/221/17
f 244/222/17 248/226/17 246/224/17
f 249/227/17 245/221/17 247/225/17
f 250/228/17 246/224/17 248/226/17
f 247/225/17 250/228/17 249/227/17
f 248/226/17 249/227/17 250/228/17
f 253/229/34 252/230/34 251/231/34
f 254/232/34 251/231/34 252/230/34
f 252/230/34 253/229/34 255/233/34
f 251/231/34 254/232/34 256/234/34
f 257/235/34 255/233/34 253/229/34
f 258/236/34 256/234/34 254/232/34
f 255/233/34 257/235/34 258/236/34
f 256/234/34 258/236/34 257/235/34
f 261/237/4 260/238/4 259/239/4
f 262/240/4 259/239/4 260/238/4
f 260/238/4 261/237/4 263/241/4
f 259/239/4 262/240/4 264/242/4
f 265/243/4 264/242/4 262/240/4
f 266/244/4 263/241/4 261/237/4
f 264/242/4 265/243/4 267/245/4
f 265/243/4 263/241/4 267/245/4
f 264/242/4 267/245/4 268/246/4
f 269/247/4 267/245/4 263/241/4
f 269/247/4 263/241/4 266/244/4
f 270/248/4 268/246/4 267/245/4
f 269/247/4 266/244/4 271/249/4
f 268/246/4 270/248/4 272/250/4
f 272/250/4 271/249/4 266/244/4
f 271/249/4 272/250/4 270/248/4
g Litt_Deckhouse_A1_Tower_Main_RangeFinder_Low_steel_3
usemtl steel_3
f 275/251/20 274/252/20 273/72/20
f 274/252/20 276/253/20 273/72/20
f 273/72/20 276/253/20 277/254/20
f 273/72/20 277/254/20 278/255/20
f 279/256/20 278/255/20 277/254/20
f 279/256/20 280/257/20 278/255/20
f 280/257/20 281/258/20 278/255/20
f 279/256/20 282/259/20 280/257/20
f 280/257/20 283/260/20 281/258/20
f 284/261/20 280/257/20 282/259/20
f 280/257/20 285/262/20 283/260/20
f 284/261/20 286/263/20 280/257/20
f 280/257/20 287/264/20 285/262/20
f 287/264/20 280/257/20 288/265/20
f 288/265/20 280/257/20 289/266/20
f 289/266/20 280/257/20 290/267/20
f 291/268/20 280/257/20 286/263/20
f 290/267/20 280/257/20 292/269/20
f 280/257/20 291/268/20 292/269/20
f 291/268/20 293/270/20 292/269/20
f 294/118/20 292/269/20 293/270/20
f 295/271/20 294/118/20 293/270/20
f 296/272/20 294/118/20 295/271/20
f 297/273/20 294/118/20 296/272/20
f 300/274/9 299/275/9 298/276/9
f 301/277/9 298/276/9 299/275/9
f 304/278/1 303/279/1 302/280/1
f 305/281/1 302/280/1 303/279/1
f 308/282/26 307/283/26 306/284/26
f 309/285/26 306/284/26 307/283/26
f 312/286/20 311/287/20 310/288/20
f 313/289/20 310/288/20 311/287/20
f 316/290/26 315/282/26 314/291/26
f 317/283/26 314/291/26 315/282/26
f 320/292/1 319/293/1 318/294/1
f 321/295/1 318/294/1 319/293/1
f 324/296/9 323/274/9 322/297/9
f 325/275/9 322/297/9 323/274/9
f 328/298/20 327/299/20 326/300/20
f 329/301/20 326/300/20 327/299/20
f 332/302/4 331/303/4 330/304/4
f 333/305/4 330/304/4 331/303/4
f 331/303/4 334/306/4 333/305/4
f 335/307/4 333/305/4 334/306/4
f 338/308/20 337/309/20 336/310/20
f 339/311/20 336/310/20 337/309/20
f 342/312/1 341/313/1 340/314/1
f 343/315/1 340/314/1 341/313/1
f 346/316/43 345/317/43 344/318/43
f 347/319/43 344/318/43 345/317/43
f 350/320/20 349/321/20 348/322/20
f 351/323/20 348/322/20 349/321/20
f 354/324/44 353/325/44 352/326/44
f 355/327/44 352/326/44 353/325/44
f 358/328/43 357/329/43 356/330/43
f 359/331/43 356/330/43 357/329/43
f 362/320/20 361/321/20 360/322/20
f 363/323/20 360/322/20 361/321/20
f 366/332/44 365/333/44 364/334/44
f 367/335/44 364/334/44 365/333/44
f 370/312/1 369/313/1 368/314/1
f 371/315/1 368/314/1 369/313/1
g Litt_Deckhouse_A1_Tower_Main_RangeFinder_Low_details_2
usemtl details_2
f 374/226/4 373/222/4 372/227/4
f 375/221/4 372/227/4 373/222/4
f 378/229/4 377/231/4 376/336/4
f 379/337/4 376/336/4 377/231/4
f 382/338/4 381/339/4 380/340/4
f 383/341/4 380/340/4 381/339/4
f 386/342/4 385/343/4 384/344/4
f 387/345/4 384/344/4 385/343/4
