# Blender 5.1.1
# www.blender.org
mtllib Torus.mtl
o Torus
v 0.000924 -0.000000 0.025873
v 0.004362 0.011743 0.025873
v 0.013753 0.020339 0.025873
v 0.026583 0.023485 0.025873
v 0.039412 0.020339 0.025873
v 0.048804 0.011743 0.025873
v 0.052242 -0.000000 0.025873
v 0.048804 -0.011743 0.025873
v 0.039412 -0.020339 0.025873
v 0.026583 -0.023485 0.025873
v 0.013753 -0.020339 0.025873
v 0.004362 -0.011743 0.025873
v 0.002021 -0.000000 0.048978
v 0.005430 0.011743 0.048358
v 0.014741 0.020339 0.046667
v 0.027461 0.023485 0.044357
v 0.040180 0.020339 0.042046
v 0.049492 0.011743 0.040355
v 0.052900 -0.000000 0.039736
v 0.049492 -0.011743 0.040355
v 0.040180 -0.020339 0.042046
v 0.027461 -0.023485 0.044357
v 0.014741 -0.020339 0.046667
v 0.005430 -0.011743 0.048358
v 0.005295 -0.000000 0.071687
v 0.008616 0.011743 0.070459
v 0.017688 0.020339 0.067106
v 0.030080 0.023485 0.062524
v 0.042472 0.020339 0.057943
v 0.051544 0.011743 0.054589
v 0.054865 -0.000000 0.053361
v 0.051544 -0.011743 0.054589
v 0.042472 -0.020339 0.057943
v 0.030080 -0.023485 0.062524
v 0.017688 -0.020339 0.067106
v 0.008616 -0.011743 0.070459
v 0.010690 -0.000000 0.093612
v 0.013866 0.011743 0.091797
v 0.022542 0.020339 0.086838
v 0.034395 0.023485 0.080065
v 0.046248 0.020339 0.073291
v 0.054925 0.011743 0.068332
v 0.058101 -0.000000 0.066517
v 0.054925 -0.011743 0.068332
v 0.046248 -0.020339 0.073291
v 0.034395 -0.023485 0.080065
v 0.022542 -0.020339 0.086838
v 0.013866 -0.011743 0.091797
v 0.018112 -0.000000 0.114379
v 0.021089 0.011743 0.112007
v 0.029223 0.020339 0.105528
v 0.040333 0.023485 0.096678
v 0.051444 0.020339 0.087827
v 0.059577 0.011743 0.081348
v 0.062555 -0.000000 0.078976
v 0.059577 -0.011743 0.081348
v 0.051444 -0.020339 0.087827
v 0.040333 -0.023485 0.096678
v 0.029223 -0.020339 0.105528
v 0.021089 -0.011743 0.112007
v 0.027435 -0.000000 0.133631
v 0.030163 0.011743 0.130744
v 0.037614 0.020339 0.122855
v 0.047792 0.023485 0.112079
v 0.057970 0.020339 0.101304
v 0.065421 0.011743 0.093415
v 0.068149 -0.000000 0.090528
v 0.065421 -0.011743 0.093415
v 0.057970 -0.020339 0.101304
v 0.047792 -0.023485 0.112079
v 0.037614 -0.020339 0.122855
v 0.030163 -0.011743 0.130744
v 0.038500 -0.000000 0.151039
v 0.040931 0.011743 0.147686
v 0.047572 0.020339 0.138523
v 0.056644 0.023485 0.126006
v 0.065716 0.020339 0.113489
v 0.072357 0.011743 0.104327
v 0.074788 -0.000000 0.100973
v 0.072357 -0.011743 0.104327
v 0.065716 -0.020339 0.113489
v 0.056644 -0.023485 0.126006
v 0.047572 -0.020339 0.138523
v 0.040931 -0.011743 0.147686
v 0.051118 -0.000000 0.166306
v 0.053210 0.011743 0.162543
v 0.058928 0.020339 0.152263
v 0.066738 0.023485 0.138219
v 0.074548 0.020339 0.124176
v 0.080265 0.011743 0.113896
v 0.082358 -0.000000 0.110133
v 0.080265 -0.011743 0.113896
v 0.074548 -0.020339 0.124176
v 0.066738 -0.023485 0.138219
v 0.058928 -0.020339 0.152263
v 0.053210 -0.011743 0.162543
v 0.065071 -0.000000 0.174571
v 0.066790 0.009981 0.171080
v 0.071486 0.017288 0.161541
v 0.077900 0.019962 0.148510
v 0.084315 0.017288 0.135480
v 0.089011 0.009981 0.125941
v 0.090730 -0.000000 0.122450
v 0.089011 -0.009981 0.125941
v 0.084315 -0.017288 0.135480
v 0.077900 -0.019962 0.148510
v 0.071486 -0.017288 0.161541
v 0.066790 -0.009981 0.171080
v 0.178314 -0.000000 -0.137665
v 0.176999 0.011743 -0.133283
v 0.173405 0.020339 -0.121311
v 0.168495 0.023485 -0.104957
v 0.163586 0.020339 -0.088604
v 0.159991 0.011743 -0.076632
v 0.158676 -0.000000 -0.072250
v 0.159991 -0.011743 -0.076632
v 0.163586 -0.020339 -0.088604
v 0.168495 -0.023485 -0.104957
v 0.173405 -0.020339 -0.121311
v 0.176999 -0.011743 -0.133283
v 0.162423 -0.000000 -0.145108
v 0.161533 0.011743 -0.140526
v 0.159103 0.020339 -0.128010
v 0.155782 0.023485 -0.110912
v 0.152462 0.020339 -0.093814
v 0.150031 0.011743 -0.081297
v 0.149141 -0.000000 -0.076715
v 0.150031 -0.011743 -0.081297
v 0.152462 -0.020339 -0.093814
v 0.155782 -0.023485 -0.110912
v 0.159103 -0.020339 -0.128010
v 0.161533 -0.011743 -0.140526
v 0.145964 -0.000000 -0.149625
v 0.145515 0.011743 -0.144923
v 0.144289 0.020339 -0.132075
v 0.142615 0.023485 -0.114525
v 0.140940 0.020339 -0.096976
v 0.139714 0.011743 -0.084128
v 0.139266 -0.000000 -0.079426
v 0.139714 -0.011743 -0.084128
v 0.140940 -0.020339 -0.096976
v 0.142615 -0.023485 -0.114525
v 0.144289 -0.020339 -0.132075
v 0.145515 -0.011743 -0.144923
v 0.129218 -0.000000 -0.151139
v 0.129218 0.011743 -0.146396
v 0.129218 0.020339 -0.133438
v 0.129218 0.023485 -0.115737
v 0.129218 0.020339 -0.098036
v 0.129218 0.011743 -0.085077
v 0.129218 -0.000000 -0.080334
v 0.129218 -0.011743 -0.085077
v 0.129218 -0.020339 -0.098036
v 0.129218 -0.023485 -0.115737
v 0.129218 -0.020339 -0.133438
v 0.129218 -0.011743 -0.146396
v 0.112472 -0.000000 -0.149625
v 0.112921 0.011743 -0.144923
v 0.114147 0.020339 -0.132075
v 0.115822 0.023485 -0.114525
v 0.117496 0.020339 -0.096976
v 0.118722 0.011743 -0.084128
v 0.119171 -0.000000 -0.079426
v 0.118722 -0.011743 -0.084128
v 0.117496 -0.020339 -0.096976
v 0.115822 -0.023485 -0.114525
v 0.114147 -0.020339 -0.132075
v 0.112921 -0.011743 -0.144923
v 0.096013 -0.000000 -0.145108
v 0.096903 0.011743 -0.140526
v 0.099334 0.020339 -0.128010
v 0.102654 0.023485 -0.110912
v 0.105975 0.020339 -0.093814
v 0.108405 0.011743 -0.081297
v 0.109295 -0.000000 -0.076716
v 0.108405 -0.011743 -0.081297
v 0.105975 -0.020339 -0.093814
v 0.102654 -0.023485 -0.110912
v 0.099334 -0.020339 -0.128010
v 0.096903 -0.011743 -0.140526
v 0.080122 -0.000000 -0.137665
v 0.081438 0.011743 -0.133283
v 0.085032 0.020339 -0.121311
v 0.089941 0.023485 -0.104957
v 0.094851 0.020339 -0.088604
v 0.098445 0.011743 -0.076632
v 0.099760 -0.000000 -0.072250
v 0.098445 -0.011743 -0.076632
v 0.094851 -0.020339 -0.088604
v 0.089941 -0.023485 -0.104957
v 0.085032 -0.020339 -0.121311
v 0.081438 -0.011743 -0.133283
v 0.065071 -0.000000 -0.127424
v 0.066790 0.011743 -0.123317
v 0.071486 0.020339 -0.112094
v 0.077900 0.023485 -0.096765
v 0.084315 0.020339 -0.081435
v 0.089011 0.011743 -0.070213
v 0.090730 -0.000000 -0.066105
v 0.089011 -0.011743 -0.070213
v 0.084315 -0.020339 -0.081435
v 0.077900 -0.023485 -0.096765
v 0.071486 -0.020339 -0.112094
v 0.066790 -0.011743 -0.123317
v 0.051118 -0.000000 -0.114560
v 0.053210 0.011743 -0.110798
v 0.058928 0.020339 -0.100517
v 0.066738 0.023485 -0.086474
v 0.074548 0.020339 -0.072430
v 0.080265 0.011743 -0.062150
v 0.082358 -0.000000 -0.058387
v 0.080265 -0.011743 -0.062150
v 0.074548 -0.020339 -0.072430
v 0.066738 -0.023485 -0.086474
v 0.058928 -0.020339 -0.100517
v 0.053210 -0.011743 -0.110798
v 0.038500 -0.000000 -0.099294
v 0.040931 0.011743 -0.095940
v 0.047572 0.020339 -0.086777
v 0.056644 0.023485 -0.074260
v 0.065716 0.020339 -0.061744
v 0.072357 0.011743 -0.052581
v 0.074788 -0.000000 -0.049227
v 0.072357 -0.011743 -0.052581
v 0.065716 -0.020339 -0.061744
v 0.056644 -0.023485 -0.074260
v 0.047572 -0.020339 -0.086777
v 0.040931 -0.011743 -0.095940
v 0.027435 -0.000000 -0.081885
v 0.030163 0.011743 -0.078998
v 0.037614 0.020339 -0.071109
v 0.047792 0.023485 -0.060334
v 0.057970 0.020339 -0.049558
v 0.065421 0.011743 -0.041669
v 0.068149 -0.000000 -0.038782
v 0.065421 -0.011743 -0.041669
v 0.057970 -0.020339 -0.049558
v 0.047792 -0.023485 -0.060334
v 0.037614 -0.020339 -0.071109
v 0.030163 -0.011743 -0.078998
v 0.018112 -0.000000 -0.062633
v 0.021089 0.011743 -0.060262
v 0.029223 0.020339 -0.053783
v 0.040333 0.023485 -0.044932
v 0.051444 0.020339 -0.036081
v 0.059577 0.011743 -0.029602
v 0.062555 -0.000000 -0.027231
v 0.059577 -0.011743 -0.029602
v 0.051444 -0.020339 -0.036081
v 0.040333 -0.023485 -0.044932
v 0.029223 -0.020339 -0.053783
v 0.021089 -0.011743 -0.060262
v 0.010690 -0.000000 -0.041867
v 0.013866 0.011743 -0.040052
v 0.022542 0.020339 -0.035093
v 0.034395 0.023485 -0.028319
v 0.046248 0.020339 -0.021545
v 0.054925 0.011743 -0.016586
v 0.058101 -0.000000 -0.014771
v 0.054925 -0.011743 -0.016586
v 0.046248 -0.020339 -0.021545
v 0.034395 -0.023485 -0.028319
v 0.022542 -0.020339 -0.035093
v 0.013866 -0.011743 -0.040052
v 0.005295 -0.000000 -0.019941
v 0.008616 0.011743 -0.018714
v 0.017688 0.020339 -0.015360
v 0.030080 0.023485 -0.010778
v 0.042472 0.020339 -0.006197
v 0.051544 0.011743 -0.002843
v 0.054865 -0.000000 -0.001616
v 0.051544 -0.011743 -0.002843
v 0.042472 -0.020339 -0.006197
v 0.030080 -0.023485 -0.010778
v 0.017688 -0.020339 -0.015360
v 0.008616 -0.011743 -0.018714
v 0.002021 -0.000000 0.002768
v 0.005430 0.011743 0.003387
v 0.014741 0.020339 0.005079
v 0.027461 0.023485 0.007389
v 0.040180 0.020339 0.009700
v 0.049492 0.011743 0.011391
v 0.052900 -0.000000 0.012010
v 0.049492 -0.011743 0.011391
v 0.040180 -0.020339 0.009700
v 0.027461 -0.023485 0.007389
v 0.014741 -0.020339 0.005079
v 0.005430 -0.011743 0.003387
v 0.065931 0.004991 0.172825
v 0.069138 0.013635 0.166310
v 0.074693 0.018625 0.155026
v 0.081108 0.018625 0.141995
v 0.086663 0.013635 0.130711
v 0.089870 0.004991 0.124196
v 0.089870 -0.004991 0.124196
v 0.086663 -0.013635 0.130711
v 0.081108 -0.018625 0.141995
v 0.074693 -0.018625 0.155026
v 0.069138 -0.013635 0.166310
v 0.065931 -0.004991 0.172825
v 0.066360 0.007486 0.171952
v 0.070312 0.015461 0.163925
v 0.076297 0.019294 0.151768
v 0.082711 0.017957 0.138738
v 0.087837 0.011808 0.128326
v 0.090300 0.002495 0.123323
v 0.089441 -0.007486 0.125069
v 0.085489 -0.015461 0.133095
v 0.079504 -0.019294 0.145253
v 0.073089 -0.017957 0.158283
v 0.067964 -0.011808 0.168695
v 0.066360 -0.007486 0.171952
v 0.065501 0.002495 0.173698
v 0.067964 0.011808 0.168695
v 0.073089 0.017957 0.158283
v 0.079504 0.019294 0.145253
v 0.085489 0.015461 0.133095
v 0.089441 0.007486 0.125069
v 0.090300 -0.002495 0.123323
v 0.087837 -0.011808 0.128326
v 0.082711 -0.017957 0.138738
v 0.076297 -0.019294 0.151768
v 0.070312 -0.015461 0.163925
v 0.065501 -0.002495 0.173698
v 0.096660 -0.000000 0.164006
v 0.177657 0.005871 -0.135474
v 0.175202 0.016041 -0.127297
v 0.170950 0.021912 -0.113134
v 0.166040 0.021912 -0.096781
v 0.161788 0.016041 -0.082618
v 0.159334 0.005871 -0.074441
v 0.159334 -0.005871 -0.074441
v 0.161788 -0.016041 -0.082618
v 0.166040 -0.021912 -0.096781
v 0.170950 -0.021912 -0.113134
v 0.175202 -0.016041 -0.127297
v 0.177657 -0.005871 -0.135474
v 0.228796 -0.000000 -0.071463
v 0.181133 -0.011743 -0.096427
v 0.181133 0.011743 -0.096427
v 0.178678 -0.010169 -0.088250
v 0.176881 -0.005871 -0.082264
v 0.176224 -0.000000 -0.080073
v 0.176881 0.005871 -0.082264
v 0.178678 0.010169 -0.088250
v 0.183588 0.010169 -0.104604
v 0.185385 0.005871 -0.110590
v 0.186043 -0.000000 -0.112781
v 0.185385 -0.005871 -0.110590
v 0.183588 -0.010169 -0.104604
v 0.090935 -0.011743 0.158968
v 0.090935 0.011743 0.158968
v 0.094143 0.010169 0.151303
v 0.096491 0.005871 0.145692
v 0.097350 -0.000000 0.143638
v 0.096491 -0.005871 0.145692
v 0.094143 -0.010169 0.151303
v 0.087728 -0.010169 0.166633
v 0.085380 -0.005871 0.172244
v 0.084521 -0.000000 0.174298
v 0.085380 0.005871 0.172244
v 0.087728 0.010169 0.166633
v 0.223506 0.005871 -0.074141
v 0.222278 -0.005085 -0.070052
v 0.221380 -0.002936 -0.067059
v 0.221051 -0.000000 -0.065964
v 0.221380 0.002936 -0.067059
v 0.222278 0.005085 -0.070052
v 0.224733 0.005085 -0.078229
v 0.225631 0.002936 -0.081222
v 0.225960 -0.000000 -0.082317
v 0.225631 -0.002936 -0.081222
v 0.224733 -0.005085 -0.078229
v 0.223506 -0.005871 -0.074141
vn -0.9597 0.2810 -0.0000
vn -0.9551 0.2820 0.0906
vn -0.6752 0.7377 -0.0000
vn -0.4738 0.8795 0.0449
vn -0.4772 0.8788 -0.0000
vn -0.0073 1.0000 0.0001
vn -0.0072 1.0000 -0.0000
vn 0.4620 0.8858 -0.0445
vn 0.4655 0.8850 -0.0000
vn 0.6708 0.7390 -0.0628
vn 0.6752 0.7377 -0.0000
vn 0.9597 0.2810 -0.0000
vn 0.9551 0.2820 -0.0906
vn 0.9551 -0.2820 -0.0906
vn 0.9597 -0.2810 -0.0000
vn 0.6708 -0.7390 -0.0628
vn 0.4655 -0.8850 -0.0000
vn 0.6752 -0.7377 -0.0000
vn 0.4620 -0.8858 -0.0445
vn -0.0072 -1.0000 -0.0000
vn -0.0073 -1.0000 0.0001
vn -0.4772 -0.8788 -0.0000
vn -0.4738 -0.8795 0.0449
vn -0.6752 -0.7377 -0.0000
vn -0.9551 -0.2820 0.0906
vn -0.9597 -0.2810 -0.0000
vn -0.9550 0.2820 0.0920
vn -0.9411 0.2851 0.1817
vn -0.6704 0.7391 0.0653
vn -0.4637 0.8815 0.0894
vn -0.0076 1.0000 0.0003
vn 0.4515 0.8879 -0.0885
vn 0.6576 0.7429 -0.1253
vn 0.9550 0.2820 -0.0920
vn 0.9411 0.2851 -0.1817
vn 0.9411 -0.2851 -0.1817
vn 0.9550 -0.2820 -0.0920
vn 0.6576 -0.7429 -0.1253
vn 0.4515 -0.8879 -0.0885
vn -0.0076 -1.0000 0.0003
vn -0.4637 -0.8815 0.0894
vn -0.6704 -0.7391 0.0653
vn -0.9411 -0.2851 0.1817
vn -0.9550 -0.2820 0.0920
vn -0.9405 0.2852 0.1844
vn -0.9170 0.2903 0.2737
vn -0.6562 0.7433 0.1302
vn -0.4467 0.8847 0.1331
vn -0.0080 1.0000 0.0006
vn 0.4339 0.8913 -0.1315
vn 0.6353 0.7492 -0.1872
vn 0.9405 0.2852 -0.1844
vn 0.9170 0.2903 -0.2737
vn 0.9170 -0.2903 -0.2737
vn 0.9405 -0.2852 -0.1844
vn 0.6353 -0.7492 -0.1872
vn 0.4339 -0.8913 -0.1315
vn -0.0080 -1.0000 0.0006
vn -0.4467 -0.8847 0.1331
vn -0.6562 -0.7433 0.1302
vn -0.9170 -0.2903 0.2737
vn -0.9405 -0.2852 0.1844
vn -0.9157 0.2906 0.2776
vn -0.8815 0.2975 0.3667
vn -0.6323 0.7501 0.1939
vn -0.4228 0.8890 0.1756
vn -0.0084 1.0000 0.0012
vn 0.4093 0.8958 -0.1729
vn 0.6035 0.7578 -0.2478
vn 0.9157 0.2906 -0.2776
vn 0.8815 0.2975 -0.3667
vn 0.8815 -0.2975 -0.3667
vn 0.9157 -0.2906 -0.2776
vn 0.6035 -0.7578 -0.2478
vn 0.4093 -0.8958 -0.1729
vn -0.0084 -1.0000 0.0012
vn -0.4228 -0.8890 0.1756
vn -0.6323 -0.7501 0.1939
vn -0.8815 -0.2975 0.3667
vn -0.9157 -0.2906 0.2776
vn -0.8792 0.2980 0.3717
vn -0.8330 0.3067 0.4605
vn -0.5985 0.7592 0.2559
vn -0.3920 0.8942 0.2163
vn -0.0088 1.0000 0.0021
vn 0.3777 0.9013 -0.2121
vn 0.5619 0.7683 -0.3066
vn 0.8792 0.2980 -0.3717
vn 0.8330 0.3067 -0.4605
vn 0.8330 -0.3067 -0.4605
vn 0.8792 -0.2980 -0.3717
vn 0.5618 -0.7683 -0.3066
vn 0.3777 -0.9013 -0.2121
vn -0.0088 -1.0000 0.0021
vn -0.3920 -0.8942 0.2163
vn -0.5985 -0.7592 0.2559
vn -0.8330 -0.3067 0.4605
vn -0.8792 -0.2980 0.3717
vn -0.8295 0.3073 0.4663
vn -0.7694 0.3176 0.5542
vn -0.5546 0.7701 0.3153
vn -0.3540 0.8999 0.2545
vn -0.0089 1.0000 0.0032
vn 0.3393 0.9073 -0.2484
vn 0.5098 0.7802 -0.3625
vn 0.8295 0.3073 -0.4663
vn 0.7694 0.3176 -0.5542
vn 0.7694 -0.3176 -0.5542
vn 0.8295 -0.3073 -0.4663
vn 0.5098 -0.7802 -0.3625
vn 0.3393 -0.9073 -0.2484
vn -0.0089 -1.0000 0.0032
vn -0.3540 -0.8999 0.2545
vn -0.5546 -0.7701 0.3153
vn -0.7694 -0.3176 0.5542
vn -0.8295 -0.3073 0.4663
vn -0.7646 0.3183 0.5604
vn -0.6194 0.3407 0.7073
vn -0.5005 0.7822 0.3710
vn -0.2162 0.9134 0.3449
vn 0.0903 0.9941 0.0596
vn 0.3884 0.8953 -0.2183
vn 0.5195 0.7763 -0.3571
vn 0.7646 0.3183 -0.5604
vn 0.7567 0.3196 -0.5703
vn 0.7559 -0.3181 -0.5722
vn 0.7646 -0.3183 -0.5604
vn 0.5190 -0.7754 -0.3597
vn 0.3863 -0.8962 -0.2180
vn 0.0913 -0.9939 0.0620
vn -0.2114 -0.9133 0.3482
vn -0.5005 -0.7822 0.3710
vn -0.6174 -0.3377 0.7104
vn -0.7646 -0.3183 0.5604
vn -0.4618 0.3627 0.8095
vn -0.1948 0.8226 0.5342
vn 0.0841 0.9672 0.2399
vn 0.3304 0.9433 -0.0309
vn 0.4429 0.8844 -0.1473
vn 0.5711 0.7628 -0.3032
vn 0.7833 0.3211 -0.5324
vn 0.7832 0.3211 -0.5324
vn 0.7873 -0.3160 -0.5294
vn 0.7884 -0.3196 -0.5257
vn 0.7605 -0.3190 -0.5656
vn 0.5798 -0.7591 -0.2960
vn 0.5797 -0.7591 -0.2961
vn 0.3278 -0.9442 -0.0324
vn 0.1785 -0.9752 0.1312
vn 0.0650 -0.9707 0.2312
vn -0.2213 -0.8237 0.5220
vn -0.3323 -0.8106 0.4821
vn -0.4750 -0.3623 0.8019
vn -0.6024 -0.3425 0.7210
vn 0.3190 0.3654 -0.8745
vn 0.3958 0.3597 -0.8450
vn 0.1912 0.8260 -0.5302
vn 0.1565 0.9295 -0.3341
vn 0.2421 0.8211 -0.5169
vn 0.1364 0.9208 -0.3654
vn -0.0072 0.9999 0.0154
vn 0.0777 0.9831 -0.1658
vn 0.0049 0.9999 -0.0088
vn -0.1706 0.9155 0.3643
vn -0.0777 0.9831 0.1658
vn -0.1272 0.9288 0.3480
vn -0.2421 0.8211 0.5169
vn -0.3190 0.3654 0.8745
vn -0.3958 0.3597 0.8450
vn -0.3247 -0.3650 0.8725
vn -0.3958 -0.3597 0.8450
vn -0.1992 -0.8254 0.5282
vn -0.1706 -0.9155 0.3643
vn -0.2421 -0.8211 0.5169
vn -0.1272 -0.9288 0.3480
vn -0.0072 -0.9999 0.0155
vn -0.0777 -0.9831 0.1658
vn 0.0049 -0.9999 -0.0088
vn 0.1565 -0.9295 -0.3341
vn 0.0777 -0.9831 -0.1658
vn 0.1364 -0.9208 -0.3654
vn 0.2421 -0.8211 -0.5169
vn 0.3247 -0.3650 -0.8725
vn 0.3958 -0.3597 -0.8450
vn 0.1669 0.3720 -0.9131
vn 0.3247 0.3650 -0.8725
vn 0.0692 0.9234 -0.3775
vn 0.0026 0.9999 -0.0097
vn -0.0643 0.9315 0.3581
vn -0.1013 0.8313 0.5465
vn -0.1992 0.8254 0.5282
vn -0.1669 0.3720 0.9131
vn -0.3247 0.3650 0.8725
vn -0.1669 -0.3720 0.9131
vn -0.3190 -0.3654 0.8745
vn -0.1013 -0.8313 0.5465
vn -0.0643 -0.9315 0.3581
vn 0.0026 -0.9999 -0.0097
vn 0.0692 -0.9234 -0.3775
vn 0.1912 -0.8260 -0.5302
vn 0.1669 -0.3720 -0.9131
vn 0.3190 -0.3654 -0.8745
vn 0.1637 0.3721 -0.9136
vn -0.0000 0.3745 -0.9272
vn 0.0969 0.8315 -0.5471
vn -0.0000 0.9243 -0.3817
vn -0.0000 0.9999 -0.0100
vn -0.0000 0.9324 0.3615
vn -0.0000 0.8333 0.5528
vn -0.1637 0.3721 0.9136
vn -0.0000 0.3745 0.9272
vn -0.0000 -0.3745 0.9272
vn -0.1637 -0.3721 0.9136
vn -0.0000 -0.8333 0.5528
vn -0.0000 -0.9324 0.3615
vn -0.0000 -0.9999 -0.0100
vn -0.0000 -0.9243 -0.3817
vn 0.0969 -0.8315 -0.5471
vn -0.0000 -0.3745 -0.9272
vn 0.1637 -0.3721 -0.9136
vn -0.1637 0.3721 -0.9136
vn -0.0969 0.8315 -0.5471
vn -0.0000 0.8333 -0.5528
vn -0.0692 0.9234 -0.3775
vn -0.0026 0.9999 -0.0097
vn 0.0643 0.9315 0.3581
vn 0.1637 0.3721 0.9136
vn 0.1637 -0.3721 0.9136
vn 0.0643 -0.9315 0.3581
vn -0.0026 -0.9999 -0.0097
vn -0.0692 -0.9234 -0.3775
vn -0.0969 -0.8315 -0.5471
vn -0.0000 -0.8333 -0.5528
vn -0.1637 -0.3721 -0.9136
vn -0.3190 0.3654 -0.8745
vn -0.1669 0.3720 -0.9131
vn -0.1912 0.8260 -0.5302
vn -0.1364 0.9208 -0.3654
vn -0.0049 0.9999 -0.0088
vn 0.1272 0.9288 0.3480
vn 0.1013 0.8313 0.5465
vn 0.3190 0.3654 0.8745
vn 0.1669 0.3720 0.9131
vn 0.1669 -0.3720 0.9131
vn 0.3190 -0.3654 0.8745
vn 0.1013 -0.8313 0.5465
vn 0.1272 -0.9288 0.3480
vn -0.0049 -0.9999 -0.0088
vn -0.1364 -0.9208 -0.3654
vn -0.1912 -0.8260 -0.5302
vn -0.1669 -0.3720 -0.9131
vn -0.3190 -0.3654 -0.8745
vn -0.4594 0.3553 -0.8141
vn -0.3247 0.3650 -0.8725
vn -0.2805 0.8176 -0.5029
vn -0.1996 0.9168 -0.3460
vn -0.0068 0.9999 -0.0075
vn 0.1873 0.9247 0.3314
vn 0.1992 0.8254 0.5282
vn 0.4594 0.3553 0.8141
vn 0.3247 0.3650 0.8725
vn 0.3247 -0.3650 0.8725
vn 0.4594 -0.3553 0.8141
vn 0.1992 -0.8254 0.5282
vn 0.1873 -0.9247 0.3314
vn -0.0068 -0.9999 -0.0075
vn -0.1996 -0.9168 -0.3460
vn -0.2805 -0.8176 -0.5029
vn -0.3247 -0.3650 -0.8725
vn -0.4594 -0.3553 -0.8141
vn -0.5808 0.3432 -0.7381
vn -0.4662 0.3547 -0.8105
vn -0.3628 0.8069 -0.4663
vn -0.2574 0.9116 -0.3204
vn -0.0080 0.9999 -0.0061
vn 0.2434 0.9195 0.3088
vn 0.2908 0.8164 0.4989
vn 0.5808 0.3432 0.7381
vn 0.4662 0.3547 0.8105
vn 0.4662 -0.3547 0.8105
vn 0.5808 -0.3432 0.7381
vn 0.2908 -0.8164 0.4989
vn 0.2434 -0.9195 0.3088
vn -0.0080 -0.9999 -0.0061
vn -0.2574 -0.9116 -0.3204
vn -0.3628 -0.8069 -0.4663
vn -0.4662 -0.3547 -0.8105
vn -0.5808 -0.3432 -0.7381
vn -0.6823 0.3305 -0.6520
vn -0.5877 0.3424 -0.7331
vn -0.4364 0.7947 -0.4218
vn -0.3091 0.9059 -0.2895
vn -0.0087 1.0000 -0.0046
vn 0.2943 0.9135 0.2809
vn 0.3739 0.8052 0.4603
vn 0.6823 0.3305 0.6520
vn 0.5877 0.3424 0.7331
vn 0.5877 -0.3424 0.7331
vn 0.6823 -0.3305 0.6520
vn 0.3739 -0.8052 0.4603
vn 0.2943 -0.9135 0.2809
vn -0.0087 -1.0000 -0.0046
vn -0.3091 -0.9059 -0.2895
vn -0.4364 -0.7947 -0.4218
vn -0.5877 -0.3424 -0.7331
vn -0.6823 -0.3305 -0.6520
vn -0.7646 0.3183 -0.5604
vn -0.6883 0.3297 -0.6461
vn -0.5005 0.7822 -0.3710
vn -0.3540 0.8999 -0.2545
vn -0.0089 1.0000 -0.0032
vn 0.3393 0.9073 0.2484
vn 0.4471 0.7928 0.4142
vn 0.7646 0.3183 0.5604
vn 0.6883 0.3297 0.6461
vn 0.6883 -0.3297 0.6461
vn 0.7646 -0.3183 0.5604
vn 0.4471 -0.7928 0.4142
vn 0.3393 -0.9073 0.2484
vn -0.0089 -1.0000 -0.0032
vn -0.3540 -0.8999 -0.2545
vn -0.5005 -0.7822 -0.3710
vn -0.6883 -0.3297 -0.6461
vn -0.7646 -0.3183 -0.5604
vn -0.8295 0.3073 -0.4663
vn -0.7694 0.3176 -0.5542
vn -0.5546 0.7701 -0.3153
vn -0.3920 0.8942 -0.2163
vn -0.0088 1.0000 -0.0021
vn 0.3777 0.9013 0.2121
vn 0.5098 0.7802 0.3625
vn 0.8295 0.3073 0.4663
vn 0.7694 0.3176 0.5542
vn 0.7694 -0.3176 0.5542
vn 0.8295 -0.3073 0.4663
vn 0.5098 -0.7802 0.3625
vn 0.3777 -0.9013 0.2121
vn -0.0088 -1.0000 -0.0021
vn -0.3920 -0.8942 -0.2163
vn -0.5546 -0.7701 -0.3153
vn -0.7694 -0.3176 -0.5542
vn -0.8295 -0.3073 -0.4663
vn -0.8792 0.2980 -0.3717
vn -0.8330 0.3067 -0.4605
vn -0.5985 0.7592 -0.2559
vn -0.4228 0.8890 -0.1756
vn -0.0084 1.0000 -0.0012
vn 0.4093 0.8958 0.1729
vn 0.5618 0.7683 0.3066
vn 0.8792 0.2980 0.3717
vn 0.8330 0.3067 0.4605
vn 0.8330 -0.3067 0.4605
vn 0.8792 -0.2980 0.3717
vn 0.5618 -0.7683 0.3066
vn 0.4093 -0.8958 0.1729
vn -0.0084 -1.0000 -0.0012
vn -0.4228 -0.8890 -0.1756
vn -0.5985 -0.7592 -0.2559
vn -0.8330 -0.3067 -0.4605
vn -0.8792 -0.2980 -0.3717
vn -0.9157 0.2906 -0.2776
vn -0.8815 0.2975 -0.3667
vn -0.6323 0.7501 -0.1939
vn -0.4467 0.8847 -0.1331
vn -0.0080 1.0000 -0.0006
vn 0.4339 0.8913 0.1315
vn 0.6035 0.7578 0.2478
vn 0.9157 0.2906 0.2776
vn 0.8815 0.2975 0.3667
vn 0.8815 -0.2975 0.3667
vn 0.9157 -0.2906 0.2776
vn 0.6035 -0.7578 0.2478
vn 0.4339 -0.8913 0.1315
vn -0.0080 -1.0000 -0.0006
vn -0.4467 -0.8847 -0.1331
vn -0.6323 -0.7501 -0.1939
vn -0.8815 -0.2975 -0.3667
vn -0.9157 -0.2906 -0.2776
vn -0.9405 0.2852 -0.1844
vn -0.9170 0.2903 -0.2737
vn -0.6562 0.7433 -0.1302
vn -0.4637 0.8815 -0.0894
vn -0.0076 1.0000 -0.0003
vn 0.4515 0.8879 0.0885
vn 0.6353 0.7492 0.1872
vn 0.9405 0.2852 0.1844
vn 0.9170 0.2903 0.2737
vn 0.9170 -0.2903 0.2737
vn 0.9405 -0.2852 0.1844
vn 0.6353 -0.7492 0.1872
vn 0.4515 -0.8879 0.0885
vn -0.0076 -1.0000 -0.0003
vn -0.4637 -0.8815 -0.0894
vn -0.6562 -0.7433 -0.1302
vn -0.9170 -0.2903 -0.2737
vn -0.9405 -0.2852 -0.1844
vn -0.9550 0.2820 -0.0920
vn -0.9411 0.2851 -0.1817
vn -0.6704 0.7391 -0.0653
vn -0.4738 0.8795 -0.0449
vn -0.0073 1.0000 -0.0001
vn 0.4620 0.8858 0.0445
vn 0.6576 0.7429 0.1253
vn 0.9550 0.2820 0.0920
vn 0.9411 0.2851 0.1817
vn 0.9411 -0.2851 0.1817
vn 0.9550 -0.2820 0.0920
vn 0.6576 -0.7429 0.1253
vn 0.4620 -0.8858 0.0445
vn -0.0073 -1.0000 -0.0001
vn -0.4738 -0.8795 -0.0449
vn -0.6704 -0.7391 -0.0653
vn -0.9411 -0.2851 -0.1817
vn -0.9550 -0.2820 -0.0920
vn -0.9551 0.2820 -0.0906
vn 0.6708 0.7390 0.0628
vn 0.9551 0.2820 0.0906
vn 0.9551 -0.2820 0.0906
vn 0.6708 -0.7390 0.0628
vn -0.9551 -0.2820 -0.0906
vn -0.2187 -0.8437 -0.4902
vn -0.6016 -0.7527 -0.2674
vn -0.2164 -0.8443 -0.4902
vn -0.4227 -0.8877 -0.1823
vn -0.7656 -0.6412 -0.0517
vn -0.6604 -0.7482 0.0641
vn -0.9174 -0.3836 0.1064
vn -0.8709 -0.4308 0.2366
vn -0.9854 -0.0000 0.1705
vn -0.8709 0.4308 0.2366
vn -0.9174 0.3836 0.1064
vn -0.6604 0.7482 0.0641
vn -0.7656 0.6412 -0.0517
vn -0.4227 0.8877 -0.1823
vn -0.6016 0.7527 -0.2674
vn -0.2187 0.8437 -0.4902
vn -0.2164 0.8443 -0.4902
vn -0.1307 0.7581 -0.6389
vn -0.0133 0.3282 -0.9445
vn -0.0134 0.3283 -0.9445
vn -0.0134 0.3284 -0.9444
vn -0.0134 -0.3283 -0.9445
vn -0.0133 -0.3282 -0.9445
vn -0.0134 -0.3284 -0.9444
vn -0.1307 -0.7581 -0.6389
vn 0.6102 -0.7753 0.1631
vn 0.7294 -0.6834 -0.0286
vn 0.5899 -0.7818 0.2022
vn 0.4873 -0.7394 0.4646
vn 0.4867 -0.7385 0.4666
vn 0.4251 -0.4979 0.7559
vn 0.3905 -0.2831 0.8760
vn 0.4225 -0.4746 0.7722
vn 0.4225 0.4746 0.7722
vn 0.3905 0.2831 0.8760
vn 0.4251 0.4979 0.7559
vn 0.4873 0.7394 0.4646
vn 0.4867 0.7385 0.4666
vn 0.5899 0.7818 0.2022
vn 0.7294 0.6834 -0.0286
vn 0.6102 0.7753 0.1631
vn 0.8805 0.4218 -0.2163
vn 0.7671 0.6366 -0.0801
vn 0.9550 -0.0000 -0.2966
vn 0.9034 0.3537 -0.2423
vn 0.9034 -0.3537 -0.2423
vn 0.8805 -0.4218 -0.2163
vn 0.7671 -0.6366 -0.0801
vn 0.3161 -0.8927 -0.3210
vn 0.3913 -0.7991 -0.4564
vn 0.2901 -0.9163 -0.2760
vn 0.5700 -0.3426 -0.7469
vn 0.5700 -0.3426 -0.7468
vn 0.5700 0.3426 -0.7468
vn 0.5700 0.3426 -0.7469
vn 0.3913 0.7991 -0.4564
vn 0.3161 0.8927 -0.3210
vn 0.2901 0.9163 -0.2760
vn 0.1288 0.9915 0.0163
vn 0.1082 0.9926 0.0558
vn -0.0451 0.9289 0.3676
vn -0.0595 0.9153 0.3983
vn -0.1340 0.8236 0.5511
vn -0.2798 0.3630 0.8888
vn -0.2798 -0.3630 0.8888
vn -0.1340 -0.8236 0.5511
vn -0.0595 -0.9153 0.3983
vn -0.0451 -0.9289 0.3676
vn 0.1082 -0.9926 0.0558
vn 0.1288 -0.9915 0.0163
vn -0.8992 -0.0000 -0.4376
vn -0.6576 -0.2852 -0.6972
vn -0.7027 -0.4821 -0.5232
vn -0.6467 -0.0000 -0.7628
vn -0.6576 0.2852 -0.6972
vn -0.7027 0.4821 -0.5232
vn 0.9391 -0.0000 0.3436
vn 0.6826 -0.7042 0.1954
vn 0.8061 -0.5904 -0.0404
vn 0.6038 -0.6434 0.4707
vn 0.5793 -0.3885 0.7166
vn 0.5789 -0.0000 0.8154
vn 0.5793 0.3885 0.7166
vn 0.6038 0.6434 0.4707
vn 0.6826 0.7042 0.1954
vn 0.8061 0.5904 -0.0404
vn 0.9223 0.3308 -0.1996
vn 0.9675 -0.0000 -0.2527
vn 0.9223 -0.3308 -0.1996
vn -0.6064 0.3386 0.7194
vn -0.3431 0.8057 0.4829
vn 0.7624 0.3167 -0.5644
vn -0.4689 0.3549 0.8088
vn 0.0118 0.3303 0.9438
vn -0.2149 0.8149 0.5383
vn 0.5674 0.4364 0.6983
vn -0.0844 0.9041 0.4189
vn -0.0000 0.9812 0.1927
vn 0.1884 0.9735 0.1298
vn 0.1467 0.9782 -0.1467
vn 0.3657 0.9308 -0.0000
vn 0.7809 -0.0000 0.6247
vn 0.8350 0.5475 -0.0548
vn 0.7864 0.3162 -0.5306
vn 0.1352 -0.2403 -0.9612
vn 0.0054 -0.2833 -0.9590
vn 0.0098 -0.3396 -0.9405
vn 0.5791 -0.7571 -0.3025
vn 0.8682 -0.4961 -0.0000
vn 0.4420 -0.8854 -0.1441
vn 0.3657 -0.9308 -0.0000
vn 0.1467 -0.9782 -0.1467
vn -0.0000 -0.9812 0.1927
vn -0.0994 -0.9037 0.4164
vn 0.6422 -0.3723 0.6701
vn -0.4718 -0.3549 0.8071
vn -0.0015 -0.3304 0.9439
vn -0.9545 -0.0000 0.2982
vn -0.1270 0.7563 -0.6418
vn -0.0133 0.3281 -0.9445
vn -0.0133 -0.3281 -0.9445
vn -0.1270 -0.7563 -0.6418
vt 0.500536 0.500000
vt 0.500854 0.500125
vt 0.500536 0.500125
vt 0.501344 0.500268
vt 0.501142 0.500415
vt 0.501161 0.500268
vt 0.500894 0.500399
vt 0.500911 0.500268
vt 0.500646 0.500382
vt 0.500661 0.500268
vt 0.500465 0.500370
vt 0.500478 0.500268
vt 0.500732 0.500000
vt 0.500536 0.499875
vt 0.500854 0.499875
vt 0.500863 0.500000
vt 0.501166 0.500125
vt 0.501323 0.500427
vt 0.501084 0.500559
vt 0.500843 0.500527
vt 0.500601 0.500495
vt 0.500425 0.500471
vt 0.500741 0.500125
vt 0.500925 0.500000
vt 0.500741 0.499875
vt 0.501166 0.499875
vt 0.501183 0.500000
vt 0.501467 0.500125
vt 0.501261 0.500583
vt 0.500990 0.500699
vt 0.500759 0.500651
vt 0.500528 0.500603
vt 0.500359 0.500568
vt 0.500942 0.500125
vt 0.501110 0.500000
vt 0.500942 0.499875
vt 0.501467 0.499875
vt 0.501493 0.500000
vt 0.501753 0.500125
vt 0.501159 0.500734
vt 0.500860 0.500831
vt 0.500643 0.500768
vt 0.500427 0.500706
vt 0.500268 0.500660
vt 0.501136 0.500125
vt 0.501286 0.500000
vt 0.501136 0.499875
vt 0.501753 0.499875
vt 0.501786 0.500000
vt 0.502017 0.500125
vt 0.501018 0.500876
vt 0.500696 0.500953
vt 0.500498 0.500877
vt 0.500300 0.500801
vt 0.500154 0.500745
vt 0.501320 0.500125
vt 0.501450 0.500000
vt 0.501320 0.499875
vt 0.502017 0.499875
vt 0.502058 0.500000
vt 0.502257 0.500125
vt 0.500841 0.501009
vt 0.500502 0.501064
vt 0.500325 0.500975
vt 0.500149 0.500887
vt 0.500019 0.500822
vt 0.501490 0.500125
vt 0.501597 0.500000
vt 0.501490 0.499875
vt 0.502257 0.499875
vt 0.500679 0.500000
vt 0.500392 0.500125
vt 0.500632 0.500125
vt 0.500632 0.501128
vt 0.500281 0.501161
vt 0.500129 0.501062
vt 0.499976 0.500962
vt 0.499865 0.500890
vt 0.500019 0.500125
vt 0.499824 0.500000
vt 0.499972 0.500000
vt 0.500019 0.499875
vt 0.500392 0.499875
vt 0.500632 0.499875
vt 0.500153 0.500031
vt 0.500136 0.500094
vt 0.500105 0.501302
vt 0.500059 0.501262
vt 0.500005 0.501215
vt 0.499942 0.501161
vt 0.499849 0.501080
vt 0.499786 0.501026
vt 0.499718 0.500967
vt 0.499686 0.500094
vt 0.499669 0.500031
vt 0.499661 0.500000
vt 0.499686 0.499906
vt 0.499865 0.499875
vt 0.499763 0.501006
vt 0.499911 0.501134
vt 0.500392 0.501233
vt 0.500136 0.499906
vt 0.500153 0.499969
vt 0.500433 0.500000
vt 0.498264 0.500000
vt 0.497980 0.500125
vt 0.497967 0.500062
vt 0.498281 0.499093
vt 0.498050 0.499229
vt 0.498015 0.499187
vt 0.498329 0.499182
vt 0.498146 0.499344
vt 0.498098 0.499287
vt 0.498393 0.499302
vt 0.498241 0.499460
vt 0.498194 0.499402
vt 0.498458 0.499423
vt 0.498311 0.499544
vt 0.498276 0.499502
vt 0.498506 0.500125
vt 0.498337 0.500000
vt 0.498324 0.500062
vt 0.498523 0.500000
vt 0.498311 0.499875
vt 0.498324 0.499938
vt 0.498506 0.499511
vt 0.497980 0.499144
vt 0.498281 0.499875
vt 0.497954 0.500000
vt 0.497967 0.499938
vt 0.498594 0.500125
vt 0.498281 0.500125
vt 0.498617 0.499153
vt 0.498650 0.499277
vt 0.498683 0.499401
vt 0.498707 0.499491
vt 0.498715 0.500000
vt 0.498506 0.499875
vt 0.498594 0.499875
vt 0.498585 0.500000
vt 0.498911 0.500125
vt 0.498594 0.499062
vt 0.498911 0.499143
vt 0.498911 0.499268
vt 0.498911 0.499393
vt 0.498911 0.499485
vt 0.498707 0.500125
vt 0.498911 0.500000
vt 0.498707 0.499875
vt 0.498911 0.499875
vt 0.499237 0.500000
vt 0.499229 0.499062
vt 0.498911 0.499052
vt 0.499205 0.499153
vt 0.499172 0.499277
vt 0.499140 0.499401
vt 0.499116 0.500125
vt 0.499116 0.499875
vt 0.499558 0.500000
vt 0.499229 0.500125
vt 0.499541 0.499093
vt 0.499493 0.499182
vt 0.499429 0.499302
vt 0.499364 0.499423
vt 0.499116 0.499491
vt 0.499317 0.500125
vt 0.499107 0.500000
vt 0.499317 0.499875
vt 0.499229 0.499875
vt 0.499868 0.500000
vt 0.499541 0.500125
vt 0.499842 0.499144
vt 0.499772 0.499229
vt 0.499676 0.499344
vt 0.499581 0.499460
vt 0.499317 0.499511
vt 0.499511 0.500125
vt 0.499299 0.500000
vt 0.499511 0.499875
vt 0.499541 0.499875
vt 0.500161 0.500000
vt 0.499842 0.500125
vt 0.500128 0.499215
vt 0.500036 0.499294
vt 0.499911 0.499402
vt 0.499786 0.499510
vt 0.499511 0.499544
vt 0.499695 0.500125
vt 0.499485 0.500000
vt 0.499695 0.499875
vt 0.499842 0.499875
vt 0.500128 0.500125
vt 0.500392 0.499303
vt 0.500281 0.499376
vt 0.500129 0.499475
vt 0.499976 0.499574
vt 0.499695 0.499590
vt 0.499865 0.500125
vt 0.500128 0.499875
vt 0.500632 0.499408
vt 0.500502 0.499473
vt 0.500325 0.499561
vt 0.500149 0.499649
vt 0.499865 0.499647
vt 0.499014 0.500000
vt 0.498816 0.500125
vt 0.498769 0.500000
vt 0.500841 0.499528
vt 0.500696 0.499583
vt 0.500498 0.499659
vt 0.500300 0.499736
vt 0.500019 0.499714
vt 0.499582 0.500125
vt 0.499476 0.500000
vt 0.499428 0.500125
vt 0.499582 0.499875
vt 0.499428 0.499875
vt 0.498816 0.499875
vt 0.499286 0.500000
vt 0.499055 0.500125
vt 0.501018 0.499660
vt 0.500860 0.499706
vt 0.500643 0.499768
vt 0.500427 0.499831
vt 0.500154 0.499791
vt 0.499753 0.500125
vt 0.499623 0.500000
vt 0.499753 0.499875
vt 0.499055 0.499875
vt 0.499580 0.500000
vt 0.499320 0.500125
vt 0.501159 0.499803
vt 0.500990 0.499838
vt 0.500759 0.499885
vt 0.500528 0.499933
vt 0.500268 0.499876
vt 0.499937 0.500125
vt 0.499786 0.500000
vt 0.499937 0.499875
vt 0.499320 0.499875
vt 0.499889 0.500000
vt 0.499605 0.500125
vt 0.501261 0.499953
vt 0.501084 0.499977
vt 0.500843 0.500009
vt 0.500601 0.500042
vt 0.500359 0.499968
vt 0.500131 0.500125
vt 0.499962 0.500000
vt 0.500131 0.499875
vt 0.499605 0.499875
vt 0.500210 0.500000
vt 0.499907 0.500125
vt 0.501323 0.500109
vt 0.501142 0.500121
vt 0.500894 0.500138
vt 0.500646 0.500154
vt 0.500425 0.500065
vt 0.500332 0.500125
vt 0.500148 0.500000
vt 0.500332 0.499875
vt 0.499907 0.499875
vt 0.500219 0.500125
vt 0.500465 0.500166
vt 0.500341 0.500000
vt 0.500219 0.499875
vt 0.500036 0.501242
vt 0.499657 0.501208
vt 0.499720 0.501262
vt 0.499595 0.501154
vt 0.502052 0.500216
vt 0.502229 0.500062
vt 0.502308 0.500108
vt 0.501893 0.500125
vt 0.502200 0.500000
vt 0.501893 0.499875
vt 0.502229 0.499938
vt 0.502052 0.499784
vt 0.502308 0.499892
vt 0.500036 0.499784
vt 0.499765 0.499938
vt 0.499720 0.499892
vt 0.499782 0.500000
vt 0.499765 0.500062
vt 0.500036 0.500216
vt 0.499720 0.500108
vt 0.497852 0.499347
vt 0.497900 0.499405
vt 0.497947 0.499462
vt 0.497982 0.499938
vt 0.498241 0.499784
vt 0.497947 0.499892
vt 0.497995 0.500000
vt 0.498311 0.500125
vt 0.497982 0.500062
vt 0.498241 0.500216
vt 0.497947 0.500108
vt 0.498609 0.500062
vt 0.498458 0.500216
vt 0.498694 0.500108
vt 0.498578 0.500000
vt 0.498289 0.500125
vt 0.498289 0.499875
vt 0.498609 0.499938
vt 0.498458 0.499784
vt 0.498694 0.499892
vt -98.010826 -743.157654
vt -507.648651 -578.042847
vt -498.894135 -556.907654
vt -115.519806 -61.999981
vt -510.852997 0.499989
vt -507.648651 -30.750010
vt -115.519806 63.000011
vt -507.648651 31.749987
vt -74.093155 -685.415222
vt -486.935303 -528.036377
vt -50.175388 -627.672729
vt -474.976440 -499.165192
vt -474.976440 54.626568
vt -32.666409 63.000011
vt -466.221954 31.749987
vt -26.257687 0.500016
vt -463.017609 0.499989
vt -466.221954 -30.750010
vt -32.666409 -61.999981
vt -474.976440 -53.626598
vt 748.946045 0.500004
vt 858.850891 63.000011
vt 835.974304 108.753181
vt 867.224304 0.500012
vt 858.850891 -61.999989
vt 835.974304 -107.753151
vt 1153.677856 0.500004
vt 1118.098877 -124.499985
vt 1172.225464 -107.753151
vt 1063.972168 -107.753151
vt 1024.348877 -61.999989
vt 1009.845703 0.500012
vt 1024.348877 63.000011
vt 1063.972168 108.753181
vt 1118.098877 125.500008
vt 1172.225464 108.753181
vt -509.125641 0.499985
vt -528.036377 -62.000011
vt -556.907654 -53.626598
vt -538.481079 -509.125641
vt -538.481079 0.499985
vt -556.907654 54.626568
vt -528.036377 62.999985
vt -578.042847 31.749987
vt -585.778809 0.499989
vt -578.042847 -30.750010
vt 0.502304 0.500000
vt 0.501644 0.500125
vt 0.501644 0.499875
vt 0.500144 0.500062
vt 0.500128 0.501322
vt 0.500082 0.501282
vt 0.499974 0.501188
vt 0.499880 0.501107
vt 0.499817 0.501053
vt 0.499740 0.500986
vt 0.499695 0.500947
vt 0.499678 0.500062
vt 0.499669 0.499969
vt 0.499678 0.499938
vt 0.500144 0.499938
vt 0.497980 0.499875
vt 0.501835 0.500000
vt 0.498227 0.500000
vt -115.519806 -785.428101
vt -121.928558 0.500016
vt -50.175388 108.753181
vt -50.175388 -107.753151
s 1
g Torus_banner
usemtl banner
f 1/1/1 14/2/2 2/3/1
f 2/4/3 15/5/4 3/6/5
f 3/6/5 16/7/6 4/8/7
f 4/8/7 17/9/8 5/10/9
f 5/10/9 18/11/10 6/12/11
f 6/3/12 19/13/13 7/1/12
f 19/13/14 8/14/15 7/1/15
f 20/11/16 9/10/17 8/12/18
f 21/9/19 10/8/20 9/10/17
f 22/7/21 11/6/22 10/8/20
f 23/5/23 12/4/24 11/6/22
f 24/15/25 1/1/26 12/14/26
f 13/16/27 26/17/28 14/2/2
f 14/18/29 27/19/30 15/5/4
f 15/5/4 28/20/31 16/7/6
f 16/7/6 29/21/32 17/9/8
f 17/9/8 30/22/33 18/11/10
f 18/23/34 31/24/35 19/13/13
f 31/24/36 20/25/37 19/13/14
f 32/22/38 21/9/19 20/11/16
f 33/21/39 22/7/21 21/9/19
f 34/20/40 23/5/23 22/7/21
f 35/19/41 24/18/42 23/5/23
f 36/26/43 13/16/44 24/15/25
f 25/27/45 38/28/46 26/17/28
f 26/29/47 39/30/48 27/19/30
f 27/19/30 40/31/49 28/20/31
f 28/20/31 41/32/50 29/21/32
f 29/21/32 42/33/51 30/22/33
f 30/34/52 43/35/53 31/24/35
f 43/35/54 32/36/55 31/24/36
f 44/33/56 33/21/39 32/22/38
f 45/32/57 34/20/40 33/21/39
f 46/31/58 35/19/41 34/20/40
f 47/30/59 36/29/60 35/19/41
f 48/37/61 25/27/62 36/26/43
f 37/38/63 50/39/64 38/28/46
f 38/40/65 51/41/66 39/30/48
f 39/30/48 52/42/67 40/31/49
f 40/31/49 53/43/68 41/32/50
f 41/32/50 54/44/69 42/33/51
f 42/45/70 55/46/71 43/35/53
f 55/46/72 44/47/73 43/35/54
f 56/44/74 45/32/57 44/33/56
f 57/43/75 46/31/58 45/32/57
f 58/42/76 47/30/59 46/31/58
f 59/41/77 48/40/78 47/30/59
f 60/48/79 37/38/80 48/37/61
f 49/49/81 62/50/82 50/39/64
f 50/51/83 63/52/84 51/41/66
f 51/41/66 64/53/85 52/42/67
f 52/42/67 65/54/86 53/43/68
f 53/43/68 66/55/87 54/44/69
f 54/56/88 67/57/89 55/46/71
f 67/57/90 56/58/91 55/46/72
f 68/55/92 57/43/75 56/44/74
f 69/54/93 58/42/76 57/43/75
f 70/53/94 59/41/77 58/42/76
f 71/52/95 60/51/96 59/41/77
f 72/59/97 49/49/98 60/48/79
f 61/60/99 74/61/100 62/50/82
f 62/62/101 75/63/102 63/52/84
f 63/52/84 76/64/103 64/53/85
f 64/53/85 77/65/104 65/54/86
f 65/54/86 78/66/105 66/55/87
f 66/67/106 79/68/107 67/57/89
f 79/68/108 68/69/109 67/57/90
f 80/66/110 69/54/93 68/55/92
f 81/65/111 70/53/94 69/54/93
f 82/64/112 71/52/95 70/53/94
f 83/63/113 72/62/114 71/52/95
f 84/70/115 61/60/116 72/59/97
f 73/71/117 86/72/118 74/73/100
f 74/74/119 87/75/120 75/63/102
f 75/63/102 88/76/121 76/64/103
f 76/64/103 89/77/122 77/65/104
f 77/65/104 90/78/123 78/66/105
f 78/79/124 91/80/125 79/81/107
f 91/80/126 80/82/127 79/81/108
f 92/78/128 81/65/111 80/66/110
f 93/77/129 82/64/112 81/65/111
f 94/76/130 83/63/113 82/64/112
f 95/75/131 84/74/132 83/63/113
f 96/83/133 73/71/134 84/84/115
f 313/85/135 301/86/135 86/72/118
f 314/87/136 302/88/136 87/75/120
f 315/89/137 303/90/137 88/76/121
f 292/91/138 101/92/139 89/77/122
f 101/92/139 305/93/140 90/78/123
f 318/94/141 306/95/142 91/80/125
f 103/96/143 307/97/144 92/98/145
f 320/93/146 308/99/147 93/77/129
f 297/91/148 106/100/149 94/76/130
f 322/90/150 310/89/150 95/75/131
f 323/88/151 311/87/151 96/101/152
f 312/102/153 324/103/153 85/104/154
f 121/105/155 110/106/156 326/107/156
f 122/108/157 111/109/158 327/110/159
f 123/111/160 112/112/161 328/113/162
f 124/114/163 113/115/164 329/116/165
f 125/117/166 114/118/167 330/119/167
f 126/120/168 115/121/169 331/122/169
f 127/123/170 116/124/171 332/125/171
f 128/126/172 117/115/173 333/119/174
f 129/117/175 118/112/176 334/116/177
f 130/114/178 119/109/179 335/113/180
f 131/111/181 120/127/182 336/110/182
f 132/128/183 109/129/184 337/130/184
f 121/105/155 134/131/185 122/132/186
f 122/108/157 135/133/187 123/111/160
f 123/111/160 136/134/188 124/114/163
f 124/114/163 137/135/189 125/117/166
f 125/117/166 138/136/190 126/126/191
f 126/120/168 139/137/192 127/123/193
f 139/137/194 128/138/195 127/123/170
f 140/136/196 129/117/175 128/126/172
f 141/135/197 130/114/178 129/117/175
f 142/134/198 131/111/181 130/114/178
f 143/133/199 132/108/200 131/111/181
f 144/139/201 121/105/202 132/128/183
f 133/140/203 146/141/204 134/131/185
f 134/142/205 147/143/206 135/133/187
f 135/133/187 148/144/207 136/134/188
f 136/134/188 149/145/208 137/135/189
f 137/135/189 150/146/209 138/136/190
f 138/147/210 151/148/211 139/137/192
f 151/148/212 140/149/213 139/137/194
f 152/146/214 141/135/197 140/136/196
f 153/145/215 142/134/198 141/135/197
f 154/144/216 143/133/199 142/134/198
f 155/143/217 144/142/218 143/133/199
f 156/150/219 133/140/220 144/139/201
f 157/151/221 146/141/204 145/148/204
f 158/152/222 147/143/206 146/153/223
f 159/154/224 148/144/207 147/143/206
f 160/155/225 149/145/208 148/144/207
f 161/156/226 150/146/209 149/145/208
f 162/157/227 151/148/211 150/141/211
f 151/148/212 164/158/228 152/150/212
f 152/146/214 165/156/229 153/145/215
f 153/145/215 166/155/230 154/144/216
f 154/144/216 167/154/231 155/143/217
f 155/143/217 168/152/232 156/153/233
f 156/150/219 157/151/234 145/148/219
f 169/159/235 158/160/236 157/151/221
f 170/161/237 159/154/224 158/152/222
f 171/162/238 160/155/225 159/154/224
f 172/163/239 161/156/226 160/155/225
f 173/164/240 162/165/241 161/156/226
f 174/166/242 163/167/243 162/157/227
f 163/167/244 176/168/245 164/158/228
f 164/165/246 177/164/247 165/156/229
f 165/156/229 178/163/248 166/155/230
f 166/155/230 179/162/249 167/154/231
f 167/154/231 180/161/250 168/152/232
f 168/169/251 169/159/252 157/151/234
f 181/170/253 170/171/254 169/159/235
f 182/172/255 171/162/238 170/161/237
f 183/173/256 172/163/239 171/162/238
f 184/174/257 173/164/240 172/163/239
f 185/175/258 174/176/259 173/164/240
f 186/177/260 175/178/261 174/166/242
f 175/178/262 188/179/263 176/168/245
f 176/176/264 189/175/265 177/164/247
f 177/164/247 190/174/266 178/163/248
f 178/163/248 191/173/267 179/162/249
f 179/162/249 192/172/268 180/161/250
f 180/180/269 181/170/270 169/159/252
f 193/181/271 182/182/272 181/170/253
f 194/183/273 183/173/256 182/172/255
f 195/184/274 184/174/257 183/173/256
f 196/185/275 185/175/258 184/174/257
f 197/186/276 186/187/277 185/175/258
f 198/188/278 187/189/279 186/177/260
f 187/189/280 200/190/281 188/179/263
f 188/187/282 201/186/283 189/175/265
f 189/175/265 202/185/284 190/174/266
f 190/174/266 203/184/285 191/173/267
f 191/173/267 204/183/286 192/172/268
f 192/191/287 193/181/288 181/170/270
f 205/104/289 194/192/290 193/181/271
f 206/193/291 195/184/274 194/183/273
f 207/194/292 196/185/275 195/184/274
f 208/195/293 197/186/276 196/185/275
f 209/196/294 198/197/295 197/186/276
f 210/198/296 199/96/297 198/188/278
f 199/96/298 212/98/299 200/190/281
f 200/197/300 213/196/301 201/186/283
f 201/186/283 214/195/302 202/185/284
f 202/185/284 215/194/303 203/184/285
f 203/184/285 216/193/304 204/183/286
f 204/199/305 205/104/306 193/181/288
f 217/71/307 206/72/308 205/104/289
f 218/200/309 207/194/292 206/193/291
f 219/201/310 208/195/293 207/194/292
f 220/202/311 209/196/294 208/195/293
f 221/203/312 210/204/313 209/196/294
f 222/79/314 211/80/315 210/198/296
f 211/80/316 224/82/317 212/98/299
f 212/204/318 225/203/319 213/196/301
f 213/196/301 226/202/320 214/195/302
f 214/195/302 227/201/321 215/194/303
f 215/194/303 228/200/322 216/193/304
f 216/83/323 217/71/324 205/104/306
f 229/205/325 218/206/326 217/207/307
f 230/208/327 219/201/310 218/200/309
f 231/209/328 220/202/311 219/201/310
f 232/210/329 221/203/312 220/202/311
f 233/211/330 222/212/331 221/203/312
f 234/213/332 223/214/333 222/215/314
f 223/214/334 236/216/335 224/217/317
f 224/212/336 237/211/337 225/203/319
f 225/203/319 238/210/338 226/202/320
f 226/202/320 239/209/339 227/201/321
f 227/201/321 240/208/340 228/200/322
f 228/218/341 229/205/342 217/207/324
f 241/219/343 230/220/344 229/205/325
f 242/221/345 231/209/328 230/208/327
f 243/222/346 232/210/329 231/209/328
f 244/223/347 233/211/330 232/210/329
f 245/224/348 234/225/349 233/211/330
f 246/226/350 235/227/351 234/213/332
f 235/227/352 248/228/353 236/216/335
f 236/225/354 249/224/355 237/211/337
f 237/211/337 250/223/356 238/210/338
f 238/210/338 251/222/357 239/209/339
f 239/209/339 252/221/358 240/208/340
f 240/229/359 241/219/360 229/205/342
f 253/230/361 242/231/362 241/219/343
f 254/232/363 243/222/346 242/221/345
f 255/233/364 244/223/347 243/222/346
f 256/234/365 245/224/348 244/223/347
f 257/235/366 246/236/367 245/224/348
f 258/237/368 247/238/369 246/226/350
f 247/238/370 260/239/371 248/228/353
f 248/236/372 261/235/373 249/224/355
f 249/224/355 262/234/374 250/223/356
f 250/223/356 263/233/375 251/222/357
f 251/222/357 264/232/376 252/221/358
f 252/240/377 253/230/378 241/219/360
f 265/241/379 254/242/380 253/230/361
f 266/243/381 255/233/364 254/232/363
f 267/244/382 256/234/365 255/233/364
f 268/245/383 257/235/366 256/234/365
f 269/246/384 258/247/385 257/235/366
f 270/248/386 259/249/387 258/237/368
f 259/249/388 272/250/389 260/239/371
f 260/247/390 273/246/391 261/235/373
f 261/235/373 274/245/392 262/234/374
f 262/234/374 275/244/393 263/233/375
f 263/233/375 276/243/394 264/232/376
f 264/251/395 265/241/396 253/230/378
f 277/252/397 266/253/398 265/241/379
f 278/254/399 267/244/382 266/243/381
f 279/255/400 268/245/383 267/244/382
f 280/256/401 269/246/384 268/245/383
f 281/257/402 270/258/403 269/246/384
f 282/259/404 271/260/405 270/248/386
f 271/260/406 284/261/407 272/250/389
f 272/258/408 285/257/409 273/246/391
f 273/246/391 286/256/410 274/245/392
f 274/245/392 287/255/411 275/244/393
f 275/244/393 288/254/412 276/243/394
f 276/262/413 277/252/414 265/241/396
f 1/1/1 278/263/415 277/252/397
f 2/4/3 279/255/400 278/254/399
f 3/6/5 280/256/401 279/255/400
f 4/8/7 281/257/402 280/256/401
f 5/10/9 282/264/416 281/257/402
f 6/3/12 283/265/417 282/259/404
f 283/265/418 8/14/15 284/261/407
f 284/264/419 9/10/17 285/257/409
f 285/257/409 10/8/20 286/256/410
f 286/256/410 11/6/22 287/255/411
f 287/255/411 12/4/24 288/254/412
f 288/266/420 1/1/26 277/252/414
f 99/267/421 352/268/422 362/269/423
f 100/100/424 353/270/425 352/268/422
f 101/271/426 354/272/427 353/273/425
f 102/274/428 355/275/429 354/272/427
f 355/275/429 104/276/430 356/277/431
f 356/277/431 105/278/432 357/279/433
f 357/270/433 106/100/434 351/268/435
f 351/268/435 107/267/436 358/269/437
f 107/280/436 359/281/438 358/282/437
f 108/199/439 360/283/440 359/281/441
f 360/283/442 98/192/443 361/284/444
f 361/284/445 99/285/421 362/286/423
f 118/112/446 350/287/447 339/288/448
f 117/115/449 339/288/448 341/289/450
f 342/290/451 117/291/449 341/292/450
f 343/293/452 116/124/453 342/290/451
f 114/294/454 343/293/455 344/295/456
f 113/296/457 344/295/456 345/297/458
f 340/288/459 113/115/457 345/289/458
f 346/287/460 112/112/461 340/288/459
f 347/298/462 111/299/463 346/300/460
f 348/301/464 110/302/465 347/298/462
f 120/303/466 348/301/464 349/304/467
f 119/305/468 349/304/467 350/306/447
f 1/1/1 13/16/27 14/2/2
f 2/4/3 14/18/29 15/5/4
f 3/6/5 15/5/4 16/7/6
f 4/8/7 16/7/6 17/9/8
f 5/10/9 17/9/8 18/11/10
f 6/3/12 18/23/34 19/13/13
f 19/13/14 20/25/37 8/14/15
f 20/11/16 21/9/19 9/10/17
f 21/9/19 22/7/21 10/8/20
f 22/7/21 23/5/23 11/6/22
f 23/5/23 24/18/42 12/4/24
f 24/15/25 13/16/44 1/1/26
f 13/16/27 25/27/45 26/17/28
f 14/18/29 26/29/47 27/19/30
f 15/5/4 27/19/30 28/20/31
f 16/7/6 28/20/31 29/21/32
f 17/9/8 29/21/32 30/22/33
f 18/23/34 30/34/52 31/24/35
f 31/24/36 32/36/55 20/25/37
f 32/22/38 33/21/39 21/9/19
f 33/21/39 34/20/40 22/7/21
f 34/20/40 35/19/41 23/5/23
f 35/19/41 36/29/60 24/18/42
f 36/26/43 25/27/62 13/16/44
f 25/27/45 37/38/63 38/28/46
f 26/29/47 38/40/65 39/30/48
f 27/19/30 39/30/48 40/31/49
f 28/20/31 40/31/49 41/32/50
f 29/21/32 41/32/50 42/33/51
f 30/34/52 42/45/70 43/35/53
f 43/35/54 44/47/73 32/36/55
f 44/33/56 45/32/57 33/21/39
f 45/32/57 46/31/58 34/20/40
f 46/31/58 47/30/59 35/19/41
f 47/30/59 48/40/78 36/29/60
f 48/37/61 37/38/80 25/27/62
f 37/38/63 49/49/81 50/39/64
f 38/40/65 50/51/83 51/41/66
f 39/30/48 51/41/66 52/42/67
f 40/31/49 52/42/67 53/43/68
f 41/32/50 53/43/68 54/44/69
f 42/45/70 54/56/88 55/46/71
f 55/46/72 56/58/91 44/47/73
f 56/44/74 57/43/75 45/32/57
f 57/43/75 58/42/76 46/31/58
f 58/42/76 59/41/77 47/30/59
f 59/41/77 60/51/96 48/40/78
f 60/48/79 49/49/98 37/38/80
f 49/49/81 61/60/99 62/50/82
f 50/51/83 62/62/101 63/52/84
f 51/41/66 63/52/84 64/53/85
f 52/42/67 64/53/85 65/54/86
f 53/43/68 65/54/86 66/55/87
f 54/56/88 66/67/106 67/57/89
f 67/57/90 68/69/109 56/58/91
f 68/55/92 69/54/93 57/43/75
f 69/54/93 70/53/94 58/42/76
f 70/53/94 71/52/95 59/41/77
f 71/52/95 72/62/114 60/51/96
f 72/59/97 61/60/116 49/49/98
f 61/60/99 73/353/117 74/61/100
f 62/62/101 74/74/119 75/63/102
f 63/52/84 75/63/102 76/64/103
f 64/53/85 76/64/103 77/65/104
f 65/54/86 77/65/104 78/66/105
f 66/67/106 78/354/124 79/68/107
f 79/68/108 80/355/127 68/69/109
f 80/66/110 81/65/111 69/54/93
f 81/65/111 82/64/112 70/53/94
f 82/64/112 83/63/113 71/52/95
f 83/63/113 84/74/132 72/62/114
f 84/70/115 73/353/134 61/60/116
f 73/71/117 85/104/510 86/72/118
f 74/74/119 86/101/511 87/75/120
f 75/63/102 87/75/120 88/76/121
f 76/64/103 88/76/121 89/77/122
f 77/65/104 89/77/122 90/78/123
f 78/79/124 90/198/512 91/80/125
f 91/80/126 92/98/145 80/82/127
f 92/78/128 93/77/129 81/65/111
f 93/77/129 94/76/130 82/64/112
f 94/76/130 95/75/131 83/63/113
f 95/75/131 96/101/152 84/74/132
f 96/83/133 85/104/154 73/71/134
f 86/72/118 85/104/510 97/181/513
f 313/85/135 289/356/514 301/86/135
f 86/72/118 97/181/513 313/85/135
f 301/86/135 98/192/135 86/72/118
f 87/75/120 86/101/511 98/357/515
f 314/87/136 290/358/516 302/88/136
f 87/75/120 98/357/515 314/87/136
f 302/88/136 99/267/517 87/75/120
f 88/76/121 87/75/120 99/267/517
f 315/89/137 291/359/518 303/90/137
f 88/76/121 99/267/517 315/89/137
f 303/90/137 100/100/519 88/76/121
f 89/77/122 88/76/121 100/100/519
f 100/100/519 316/360/520 292/91/138
f 292/91/138 304/361/521 101/92/139
f 89/77/122 100/100/519 292/91/138
f 90/78/123 89/77/122 101/92/139
f 101/92/139 317/99/522 293/362/523
f 305/93/140 102/363/140 90/78/123
f 101/92/139 293/362/523 305/93/140
f 91/80/125 90/198/512 102/188/524
f 318/94/141 294/364/525 306/95/142
f 91/80/125 102/188/524 318/94/141
f 306/95/142 103/96/141 91/80/125
f 92/98/145 91/80/126 103/96/143
f 103/96/143 319/365/526 295/366/527
f 307/97/144 104/190/144 92/98/145
f 103/96/143 295/366/527 307/97/144
f 93/77/129 92/78/128 104/363/528
f 320/93/146 296/362/529 308/99/147
f 93/77/129 104/363/528 320/93/146
f 308/99/147 105/92/530 93/77/129
f 94/76/130 93/77/129 105/92/530
f 105/92/530 321/361/531 297/91/148
f 297/91/148 309/360/532 106/100/149
f 94/76/130 105/92/530 297/91/148
f 95/75/131 94/76/130 106/100/149
f 322/90/150 298/359/533 310/89/150
f 95/75/131 106/100/149 322/90/150
f 310/89/150 107/267/534 95/75/131
f 96/101/152 95/75/131 107/267/534
f 323/88/151 299/358/535 311/87/151
f 96/101/152 107/267/534 323/88/151
f 311/87/151 108/357/151 96/101/152
f 85/104/154 96/83/133 108/199/536
f 312/102/153 300/367/537 324/103/153
f 85/104/154 108/199/536 312/102/153
f 324/103/153 97/181/153 85/104/154
f 326/107/156 109/129/156 121/105/155
f 121/105/155 122/132/186 110/106/156
f 327/110/159 110/127/159 122/108/157
f 122/108/157 123/111/160 111/109/158
f 328/113/162 111/109/158 123/111/160
f 123/111/160 124/114/163 112/112/161
f 329/116/165 112/112/161 124/114/163
f 124/114/163 125/117/166 113/115/164
f 330/119/167 113/115/164 125/117/166
f 125/117/166 126/126/191 114/118/167
f 331/122/169 114/294/169 126/120/168
f 126/120/168 127/123/193 115/121/169
f 332/125/171 115/121/171 127/123/170
f 127/123/170 128/138/195 116/124/171
f 333/119/174 116/118/174 128/126/172
f 128/126/172 129/117/175 117/115/173
f 334/116/177 117/115/173 129/117/175
f 129/117/175 130/114/178 118/112/176
f 335/113/180 118/112/176 130/114/178
f 130/114/178 131/111/181 119/109/179
f 336/110/182 119/109/179 131/111/181
f 131/111/181 132/108/200 120/127/182
f 337/130/184 120/368/184 132/128/183
f 132/128/183 121/105/202 109/129/184
f 121/105/155 133/140/203 134/131/185
f 122/108/157 134/142/205 135/133/187
f 123/111/160 135/133/187 136/134/188
f 124/114/163 136/134/188 137/135/189
f 125/117/166 137/135/189 138/136/190
f 126/120/168 138/147/210 139/137/192
f 139/137/194 140/149/213 128/138/195
f 140/136/196 141/135/197 129/117/175
f 141/135/197 142/134/198 130/114/178
f 142/134/198 143/133/199 131/111/181
f 143/133/199 144/142/218 132/108/200
f 144/139/201 133/140/220 121/105/202
f 133/140/203 145/148/204 146/141/204
f 134/142/205 146/153/223 147/143/206
f 135/133/187 147/143/206 148/144/207
f 136/134/188 148/144/207 149/145/208
f 137/135/189 149/145/208 150/146/209
f 138/147/210 150/141/211 151/148/211
f 151/148/212 152/150/212 140/149/213
f 152/146/214 153/145/215 141/135/197
f 153/145/215 154/144/216 142/134/198
f 154/144/216 155/143/217 143/133/199
f 155/143/217 156/153/233 144/142/218
f 156/150/219 145/148/219 133/140/220
f 157/151/221 158/160/236 146/141/204
f 158/152/222 159/154/224 147/143/206
f 159/154/224 160/155/225 148/144/207
f 160/155/225 161/156/226 149/145/208
f 161/156/226 162/165/241 150/146/209
f 162/157/227 163/167/243 151/148/211
f 151/148/212 163/167/244 164/158/228
f 152/146/214 164/165/246 165/156/229
f 153/145/215 165/156/229 166/155/230
f 154/144/216 166/155/230 167/154/231
f 155/143/217 167/154/231 168/152/232
f 156/150/219 168/169/251 157/151/234
f 169/159/235 170/171/254 158/160/236
f 170/161/237 171/162/238 159/154/224
f 171/162/238 172/163/239 160/155/225
f 172/163/239 173/164/240 161/156/226
f 173/164/240 174/176/259 162/165/241
f 174/166/242 175/178/261 163/167/243
f 163/167/244 175/178/262 176/168/245
f 164/165/246 176/176/264 177/164/247
f 165/156/229 177/164/247 178/163/248
f 166/155/230 178/163/248 179/162/249
f 167/154/231 179/162/249 180/161/250
f 168/169/251 180/180/269 169/159/252
f 181/170/253 182/182/272 170/171/254
f 182/172/255 183/173/256 171/162/238
f 183/173/256 184/174/257 172/163/239
f 184/174/257 185/175/258 173/164/240
f 185/175/258 186/187/277 174/176/259
f 186/177/260 187/189/279 175/178/261
f 175/178/262 187/189/280 188/179/263
f 176/176/264 188/187/282 189/175/265
f 177/164/247 189/175/265 190/174/266
f 178/163/248 190/174/266 191/173/267
f 179/162/249 191/173/267 192/172/268
f 180/180/269 192/191/287 181/170/270
f 193/181/271 194/192/290 182/182/272
f 194/183/273 195/184/274 183/173/256
f 195/184/274 196/185/275 184/174/257
f 196/185/275 197/186/276 185/175/258
f 197/186/276 198/197/295 186/187/277
f 198/188/278 199/96/297 187/189/279
f 187/189/280 199/96/298 200/190/281
f 188/187/282 200/197/300 201/186/283
f 189/175/265 201/186/283 202/185/284
f 190/174/266 202/185/284 203/184/285
f 191/173/267 203/184/285 204/183/286
f 192/191/287 204/199/305 193/181/288
f 205/104/289 206/72/308 194/192/290
f 206/193/291 207/194/292 195/184/274
f 207/194/292 208/195/293 196/185/275
f 208/195/293 209/196/294 197/186/276
f 209/196/294 210/204/313 198/197/295
f 210/198/296 211/80/315 199/96/297
f 199/96/298 211/80/316 212/98/299
f 200/197/300 212/204/318 213/196/301
f 201/186/283 213/196/301 214/195/302
f 202/185/284 214/195/302 215/194/303
f 203/184/285 215/194/303 216/193/304
f 204/199/305 216/83/323 205/104/306
f 217/71/307 218/73/326 206/72/308
f 218/200/309 219/201/310 207/194/292
f 219/201/310 220/202/311 208/195/293
f 220/202/311 221/203/312 209/196/294
f 221/203/312 222/212/331 210/204/313
f 222/79/314 223/81/333 211/80/315
f 211/80/316 223/81/334 224/82/317
f 212/204/318 224/212/336 225/203/319
f 213/196/301 225/203/319 226/202/320
f 214/195/302 226/202/320 227/201/321
f 215/194/303 227/201/321 228/200/322
f 216/83/323 228/84/341 217/71/324
f 229/205/325 230/220/344 218/206/326
f 230/208/327 231/209/328 219/201/310
f 231/209/328 232/210/329 220/202/311
f 232/210/329 233/211/330 221/203/312
f 233/211/330 234/225/349 222/212/331
f 234/213/332 235/227/351 223/214/333
f 223/214/334 235/227/352 236/216/335
f 224/212/336 236/225/354 237/211/337
f 225/203/319 237/211/337 238/210/338
f 226/202/320 238/210/338 239/209/339
f 227/201/321 239/209/339 240/208/340
f 228/218/341 240/229/359 229/205/342
f 241/219/343 242/231/362 230/220/344
f 242/221/345 243/222/346 231/209/328
f 243/222/346 244/223/347 232/210/329
f 244/223/347 245/224/348 233/211/330
f 245/224/348 246/236/367 234/225/349
f 246/226/350 247/238/369 235/227/351
f 235/227/352 247/238/370 248/228/353
f 236/225/354 248/236/372 249/224/355
f 237/211/337 249/224/355 250/223/356
f 238/210/338 250/223/356 251/222/357
f 239/209/339 251/222/357 252/221/358
f 240/229/359 252/240/377 241/219/360
f 253/230/361 254/242/380 242/231/362
f 254/232/363 255/233/364 243/222/346
f 255/233/364 256/234/365 244/223/347
f 256/234/365 257/235/366 245/224/348
f 257/235/366 258/247/385 246/236/367
f 258/237/368 259/249/387 247/238/369
f 247/238/370 259/249/388 260/239/371
f 248/236/372 260/247/390 261/235/373
f 249/224/355 261/235/373 262/234/374
f 250/223/356 262/234/374 263/233/375
f 251/222/357 263/233/375 264/232/376
f 252/240/377 264/251/395 253/230/378
f 265/241/379 266/253/398 254/242/380
f 266/243/381 267/244/382 255/233/364
f 267/244/382 268/245/383 256/234/365
f 268/245/383 269/246/384 257/235/366
f 269/246/384 270/258/403 258/247/385
f 270/248/386 271/260/405 259/249/387
f 259/249/388 271/260/406 272/250/389
f 260/247/390 272/258/408 273/246/391
f 261/235/373 273/246/391 274/245/392
f 262/234/374 274/245/392 275/244/393
f 263/233/375 275/244/393 276/243/394
f 264/251/395 276/262/413 265/241/396
f 277/252/397 278/263/415 266/253/398
f 278/254/399 279/255/400 267/244/382
f 279/255/400 280/256/401 268/245/383
f 280/256/401 281/257/402 269/246/384
f 281/257/402 282/264/416 270/258/403
f 282/259/404 283/265/417 271/260/405
f 271/260/406 283/265/418 284/261/407
f 272/258/408 284/264/419 285/257/409
f 273/246/391 285/257/409 286/256/410
f 274/245/392 286/256/410 287/255/411
f 275/244/393 287/255/411 288/254/412
f 276/262/413 288/266/420 277/252/414
f 1/1/1 2/3/1 278/263/415
f 2/4/3 3/6/5 279/255/400
f 3/6/5 4/8/7 280/256/401
f 4/8/7 5/10/9 281/257/402
f 5/10/9 6/12/11 282/264/416
f 6/3/12 7/1/12 283/265/417
f 283/265/418 7/1/15 8/14/15
f 284/264/419 8/12/18 9/10/17
f 285/257/409 9/10/17 10/8/20
f 286/256/410 10/8/20 11/6/22
f 287/255/411 11/6/22 12/4/24
f 288/266/420 12/14/26 1/1/26
f 99/267/421 100/100/424 352/268/422
f 100/100/424 101/92/426 353/270/425
f 101/271/426 102/274/428 354/272/427
f 102/274/428 103/369/538 355/275/429
f 355/275/429 103/369/538 104/276/430
f 356/277/431 104/276/430 105/278/432
f 357/270/433 105/92/432 106/100/434
f 351/268/435 106/100/434 107/267/436
f 107/280/436 108/199/539 359/281/438
f 108/199/439 97/181/540 360/283/440
f 360/283/442 97/181/541 98/192/443
f 361/284/445 98/192/542 99/285/421
f 118/112/446 119/109/468 350/287/447
f 117/115/449 118/112/446 339/288/448
f 342/290/451 116/124/453 117/291/449
f 343/293/452 115/121/452 116/124/453
f 114/294/454 115/121/455 343/293/455
f 113/296/457 114/294/454 344/295/456
f 340/288/459 112/112/461 113/115/457
f 346/287/460 111/109/463 112/112/461
f 347/298/462 110/302/465 111/299/463
f 348/301/464 109/370/464 110/302/465
f 120/303/466 109/370/464 348/301/464
f 119/305/468 120/303/466 349/304/467
g Torus_hull_copper_bottom
usemtl hull_copper_bottom
f 350/307/469 372/308/470 373/309/471
f 349/310/472 371/311/473 372/312/473
f 371/311/474 347/313/475 370/314/474
f 370/308/476 346/307/477 369/309/478
f 369/309/478 340/315/479 363/316/480
f 363/316/480 345/317/481 368/318/482
f 368/319/482 344/320/483 367/321/483
f 367/321/484 343/322/484 366/323/484
f 343/322/485 365/324/485 366/323/485
f 342/325/486 364/326/487 365/324/486
f 341/317/488 374/316/489 364/318/487
f 339/315/490 373/309/471 374/316/489
f 325/327/491 361/328/492 362/329/493
f 325/327/491 360/330/494 361/328/492
f 325/327/491 359/331/495 360/330/494
f 325/327/491 358/332/496 359/331/495
f 325/333/491 351/334/435 358/335/496
f 325/333/491 357/336/433 351/334/435
f 325/333/491 356/337/431 357/336/433
f 325/333/491 355/338/429 356/337/431
f 325/333/491 354/339/427 355/338/429
f 325/333/491 353/340/425 354/339/427
f 325/333/491 352/341/422 353/340/425
f 325/333/491 362/342/493 352/341/422
f 338/343/497 374/344/498 373/345/499
f 338/346/497 364/318/500 374/316/498
f 338/347/497 365/324/501 364/326/500
f 338/347/497 366/323/502 365/324/501
f 338/347/497 367/321/503 366/323/502
f 338/347/497 368/319/504 367/321/503
f 338/346/497 363/316/505 368/318/504
f 338/343/497 369/348/506 363/349/505
f 338/343/497 370/350/507 369/348/506
f 338/343/497 371/351/508 370/350/507
f 338/343/497 372/352/509 371/351/508
f 338/343/497 373/345/499 372/352/509
f 350/307/469 349/371/470 372/308/470
f 349/310/472 348/372/472 371/311/473
f 371/311/474 348/372/475 347/313/475
f 370/308/476 347/371/476 346/307/477
f 369/309/478 346/307/477 340/315/479
f 363/316/480 340/315/479 345/317/481
f 368/319/482 345/373/481 344/320/483
f 367/321/484 344/320/484 343/322/484
f 343/322/485 342/325/485 365/324/485
f 342/325/486 341/374/488 364/326/487
f 341/317/488 339/315/490 374/316/489
f 339/315/490 350/307/469 373/309/471
