# Blender 5.1.0
# www.blender.org
mtllib Montana_deckhouse_A1_001_3_Iowa_Deckhouse_A1_001_2.mtl
o Montana_deckhouse_A1_001_3_Iowa_Deckhouse_A1_001_2.005
v 7.533099 3.636023 18.163845
v 7.444479 3.636023 17.891090
v 7.533098 3.636023 17.618351
v 7.765105 3.636023 18.332409
v 7.533099 3.636023 18.163845
v 8.051883 3.636023 18.332409
v 8.283888 3.636023 18.163845
v 8.372507 3.636023 17.891090
v 8.283888 3.636023 18.163845
v 8.283888 3.636023 17.618351
v 8.051882 3.636024 17.449787
v 8.283888 3.636023 17.618351
v 7.765105 3.636024 17.449787
v 7.533098 3.636023 17.618351
v -7.533096 3.636023 18.163845
v -7.444477 3.636023 17.891090
v -7.533095 3.636023 17.618351
v -7.765102 3.636023 18.332409
v -7.533096 3.636023 18.163845
v -8.051879 3.636023 18.332409
v -8.283884 3.636023 18.163845
v -8.372503 3.636023 17.891090
v -8.283884 3.636023 18.163845
v -8.283884 3.636023 17.618351
v -8.051878 3.636024 17.449787
v -8.283884 3.636023 17.618351
v -7.765102 3.636024 17.449787
v -7.533095 3.636023 17.618351
v 1.345688 12.761288 11.758896
v 1.442665 12.761290 11.590927
v 1.442665 12.761286 11.702904
v 1.248711 12.761288 11.590927
v 1.248711 12.761288 11.702904
v 1.345688 12.761290 11.534927
v 0.637716 12.761288 11.758881
v 0.734693 12.761290 11.590927
v 0.734693 12.761286 11.702904
v 0.540738 12.761288 11.590927
v 0.540738 12.761288 11.702904
v 0.637716 12.761290 11.534927
v 2.906072 13.051066 8.062050
v 2.737826 13.146870 8.446980
v 2.906072 13.146874 8.062050
v 2.737826 13.051067 8.446980
v 2.441476 13.146875 8.752056
v 2.441476 13.051067 8.752056
v 2.555365 13.146873 8.571815
v 2.441476 13.146875 8.752056
v 2.409636 13.146875 8.721325
v 2.737826 13.146870 8.446980
v 2.664361 13.146870 8.397629
v 2.521079 13.146873 8.544113
v 2.783339 13.146872 8.233250
v 2.744728 13.146872 8.211987
v 2.906072 13.146874 8.062050
v 2.865583 13.146874 8.044197
v 2.441476 13.472001 8.752056
v 2.737825 13.366872 8.446980
v 2.441476 13.366877 8.752056
v 2.737825 13.472001 8.446980
v 2.906072 13.366875 8.062050
v 2.906072 13.471998 8.062050
v 2.783338 13.366874 8.233250
v 2.906072 13.366875 8.062050
v 2.865583 13.366875 8.044197
v 2.737825 13.366872 8.446980
v 2.664361 13.366872 8.397629
v 2.744728 13.366874 8.211987
v 2.555365 13.366874 8.571815
v 2.521079 13.366874 8.544113
v 2.441476 13.366877 8.752056
v 2.409636 13.366877 8.721325
v 2.013124 13.051067 9.073029
v 1.635680 13.146902 9.291466
v 2.013124 13.146892 9.073029
v 1.635680 13.051067 9.291466
v 1.241007 13.146892 9.410881
v 1.241007 13.051067 9.410881
v 1.423102 13.146896 9.309708
v 1.241007 13.146892 9.410881
v 1.228133 13.146892 9.368546
v 1.635680 13.146902 9.291466
v 1.600463 13.146902 9.210274
v 1.407861 13.146896 9.268242
v 1.804541 13.146896 9.142784
v 1.784680 13.146896 9.103325
v 2.013124 13.146892 9.073029
v 1.991010 13.146892 9.034698
v 1.241007 13.472001 9.410881
v 1.635680 13.366876 9.291466
v 1.241007 13.366879 9.410881
v 1.635680 13.472001 9.291466
v 2.013124 13.366879 9.073029
v 2.013124 13.472001 9.073029
v 1.804541 13.366877 9.142784
v 2.013124 13.366879 9.073029
v 1.991010 13.366879 9.034698
v 1.635680 13.366876 9.291466
v 1.600463 13.366876 9.210274
v 1.784680 13.366877 9.103325
v 1.423102 13.366877 9.309708
v 1.407861 13.366877 9.268242
v 1.241007 13.366879 9.410881
v 1.228133 13.366879 9.368546
v 0.427745 13.366866 9.569485
v 0.000002 13.471956 9.610840
v 0.427745 13.471956 9.569485
v 0.000002 13.366852 9.610840
v -0.427742 13.366866 9.569485
v -0.427742 13.471956 9.569485
v 0.211769 13.366859 9.546013
v 0.427745 13.366866 9.569485
v 0.423528 13.366866 9.525436
v 0.000002 13.366852 9.610840
v 0.000002 13.366852 9.522339
v 0.209660 13.366859 9.501862
v -0.211766 13.366859 9.546013
v -0.209657 13.366859 9.501862
v -0.427742 13.366866 9.569485
v -0.423525 13.366866 9.525436
v 0.427745 13.051076 9.569485
v 0.000002 13.146852 9.610840
v 0.427745 13.146866 9.569485
v 0.000002 13.051076 9.610840
v -0.427742 13.051076 9.569485
v -0.427742 13.146866 9.569485
v 0.427745 13.146866 9.569485
v 0.211769 13.146859 9.546013
v 0.423528 13.146866 9.525436
v 0.000002 13.146852 9.610840
v 0.000002 13.146852 9.522339
v 0.209660 13.146859 9.501862
v -0.211766 13.146859 9.546013
v -0.209657 13.146859 9.501862
v -0.427742 13.146866 9.569485
v -0.423525 13.146866 9.525436
v 1.224578 18.761236 -1.332596
v 1.321555 18.761238 -1.500565
v 1.321555 18.761234 -1.388580
v 1.127601 18.761236 -1.500565
v 1.127601 18.761236 -1.388580
v 1.224579 18.761238 -1.556564
v 0.516606 18.761236 -1.332603
v 0.613583 18.761238 -1.500565
v 0.613583 18.761234 -1.388580
v 0.419629 18.761236 -1.500565
v 0.419629 18.761236 -1.388580
v 0.516607 18.761238 -1.556564
v 6.957048 15.065758 -15.142336
v 6.476722 14.905062 -14.540026
v 6.476722 15.065758 -14.540026
v 6.957046 14.905062 -15.142336
v 7.128475 15.065754 -15.893435
v 7.128473 14.905060 -15.893435
v 6.957046 14.905062 -16.644533
v 6.957048 15.065758 -16.644533
v 6.476722 14.905062 -17.246843
v 6.476722 15.065758 -17.246843
v 5.782629 14.905062 -14.205770
v 6.476722 15.065758 -14.540026
v 6.476722 14.905062 -14.540026
v 5.782630 15.065758 -14.205770
v 5.012243 14.905062 -14.205770
v 5.012245 15.065758 -14.205770
v 4.318153 14.905064 -14.540026
v 4.318155 15.065758 -14.540026
v 3.837825 14.905064 -15.142336
v 4.318155 15.065758 -14.540026
v 4.318153 14.905064 -14.540026
v 3.837827 15.065758 -15.142336
v 3.666397 14.905064 -15.893435
v 3.666399 15.065758 -15.893435
v 3.837827 15.065758 -16.644533
v 3.837825 14.905064 -16.644533
v 4.318155 15.065758 -17.246843
v 4.318153 14.905064 -17.246843
v 6.476722 15.065758 -17.246843
v 5.782629 14.905062 -17.581099
v 6.476722 14.905062 -17.246843
v 5.782630 15.065758 -17.581099
v 5.012243 14.905062 -17.581099
v 5.012245 15.065758 -17.581099
v 4.318153 14.905064 -17.246843
v 4.318155 15.065758 -17.246843
v 7.527353 3.817235 18.168011
v 7.437376 3.817231 17.891090
v 7.527352 3.817235 17.614185
v 7.762911 3.817235 18.339169
v 7.527353 3.817235 18.168011
v 8.054078 3.817235 18.339169
v 8.289634 3.817235 18.168011
v 8.379609 3.817235 17.891090
v 8.289634 3.817235 18.168011
v 8.289634 3.817235 17.614185
v 8.054076 3.817236 17.443027
v 8.289634 3.817235 17.614185
v 7.762909 3.817236 17.443027
v 7.527352 3.817235 17.614185
v -1.345685 12.761288 11.758896
v -1.248708 12.761288 11.590927
v -1.248707 12.761288 11.702904
v -1.442662 12.761290 11.590927
v -1.442662 12.761286 11.702904
v -1.345685 12.761290 11.534927
v -0.637713 12.761288 11.758881
v -0.540735 12.761288 11.590927
v -0.540735 12.761288 11.702904
v -0.734690 12.761290 11.590927
v -0.734689 12.761286 11.702904
v -0.637713 12.761290 11.534927
v -2.737823 13.146870 8.446980
v -2.906069 13.051066 8.062050
v -2.906069 13.146874 8.062050
v -2.737823 13.051067 8.446980
v -2.441473 13.146875 8.752056
v -2.441473 13.051067 8.752056
v -2.441473 13.146875 8.752056
v -2.555362 13.146873 8.571815
v -2.409634 13.146875 8.721325
v -2.737823 13.146870 8.446980
v -2.664358 13.146870 8.397629
v -2.521076 13.146873 8.544113
v -2.783336 13.146872 8.233250
v -2.744725 13.146872 8.211987
v -2.906069 13.146874 8.062050
v -2.865581 13.146874 8.044197
v -2.737823 13.366872 8.446980
v -2.441473 13.472001 8.752056
v -2.441473 13.366877 8.752056
v -2.737823 13.472001 8.446980
v -2.906069 13.366875 8.062050
v -2.906069 13.471998 8.062050
v -2.906069 13.366875 8.062050
v -2.783335 13.366874 8.233250
v -2.865581 13.366875 8.044197
v -2.737823 13.366872 8.446980
v -2.664358 13.366872 8.397629
v -2.744725 13.366874 8.211987
v -2.555362 13.366874 8.571815
v -2.521076 13.366874 8.544113
v -2.441473 13.366877 8.752056
v -2.409634 13.366877 8.721325
v -1.635677 13.146902 9.291466
v -2.013121 13.051067 9.073029
v -2.013121 13.146892 9.073029
v -1.635677 13.051067 9.291466
v -1.241004 13.146892 9.410881
v -1.241004 13.051067 9.410881
v -1.241004 13.146892 9.410881
v -1.423099 13.146896 9.309708
v -1.228130 13.146892 9.368546
v -1.635677 13.146902 9.291466
v -1.600460 13.146902 9.210274
v -1.407858 13.146896 9.268242
v -1.804538 13.146896 9.142784
v -1.784676 13.146896 9.103325
v -2.013121 13.146892 9.073029
v -1.991007 13.146892 9.034698
v -1.635677 13.366876 9.291466
v -1.241004 13.472001 9.410881
v -1.241004 13.366879 9.410881
v -1.635677 13.472001 9.291466
v -2.013121 13.366879 9.073029
v -2.013121 13.472001 9.073029
v -2.013121 13.366879 9.073029
v -1.804538 13.366877 9.142784
v -1.991007 13.366879 9.034698
v -1.635677 13.366876 9.291466
v -1.600460 13.366876 9.210274
v -1.784676 13.366877 9.103325
v -1.423099 13.366877 9.309708
v -1.407858 13.366877 9.268242
v -1.241004 13.366879 9.410881
v -1.228130 13.366879 9.368546
v -1.224575 18.761236 -1.332596
v -1.127598 18.761236 -1.500565
v -1.127598 18.761236 -1.388580
v -1.321552 18.761238 -1.500565
v -1.321552 18.761234 -1.388580
v -1.224576 18.761238 -1.556564
v -0.516603 18.761236 -1.332603
v -0.419626 18.761236 -1.500565
v -0.419626 18.761236 -1.388580
v -0.613580 18.761238 -1.500565
v -0.613580 18.761234 -1.388580
v -0.516603 18.761238 -1.556564
v -6.476719 14.905062 -14.540026
v -6.957045 15.065758 -15.142336
v -6.476719 15.065758 -14.540026
v -6.957043 14.905062 -15.142336
v -7.128472 15.065754 -15.893435
v -7.128470 14.905060 -15.893435
v -6.957043 14.905062 -16.644533
v -6.957045 15.065758 -16.644533
v -6.476719 14.905062 -17.246843
v -6.476719 15.065758 -17.246843
v -6.476719 15.065758 -14.540026
v -5.782626 14.905062 -14.205770
v -6.476719 14.905062 -14.540026
v -5.782628 15.065758 -14.205770
v -5.012240 14.905062 -14.205770
v -5.012242 15.065758 -14.205770
v -4.318150 14.905064 -14.540026
v -4.318152 15.065758 -14.540026
v -4.318152 15.065758 -14.540026
v -3.837822 14.905064 -15.142336
v -4.318150 14.905064 -14.540026
v -3.837824 15.065758 -15.142336
v -3.666394 14.905064 -15.893435
v -3.666396 15.065758 -15.893435
v -3.837824 15.065758 -16.644533
v -3.837822 14.905064 -16.644533
v -4.318152 15.065758 -17.246843
v -4.318150 14.905064 -17.246843
v -5.782626 14.905062 -17.581099
v -6.476719 15.065758 -17.246843
v -6.476719 14.905062 -17.246843
v -5.782628 15.065758 -17.581099
v -5.012240 14.905062 -17.581099
v -5.012242 15.065758 -17.581099
v -4.318150 14.905064 -17.246843
v -4.318152 15.065758 -17.246843
v -7.527350 3.817235 18.168011
v -7.437374 3.817231 17.891090
v -7.527349 3.817235 17.614185
v -7.762908 3.817235 18.339169
v -7.527350 3.817235 18.168011
v -8.054074 3.817235 18.339169
v -8.289630 3.817235 18.168011
v -8.379605 3.817235 17.891090
v -8.289630 3.817235 18.168011
v -8.289630 3.817235 17.614185
v -8.054072 3.817236 17.443027
v -8.289630 3.817235 17.614185
v -7.762907 3.817236 17.443027
v -7.527349 3.817235 17.614185
v -0.751125 15.065757 3.465660
v -1.353436 14.905061 2.985336
v -1.353436 15.065757 2.985336
v -0.751126 14.905061 3.465660
v -0.000028 15.065754 3.637085
v -0.000028 14.905060 3.637085
v 0.751069 14.905061 3.465660
v 0.751069 15.065757 3.465660
v 1.353379 14.905061 2.985336
v 1.353379 15.065757 2.985336
v -1.687693 14.905061 2.291241
v -1.353436 15.065757 2.985336
v -1.353436 14.905061 2.985336
v -1.687693 15.065757 2.291245
v -1.687693 14.905062 1.520859
v -1.687693 15.065758 1.520859
v -1.353437 14.905065 0.826767
v -1.353437 15.065758 0.826767
v -0.751127 14.905065 0.346439
v -1.353437 15.065758 0.826767
v -1.353437 14.905065 0.826767
v -0.751127 15.065758 0.346439
v -0.000028 14.905065 0.175011
v -0.000028 15.065758 0.175011
v 0.751071 15.065758 0.346439
v 0.751071 14.905065 0.346439
v 1.353381 15.065758 0.826767
v 1.353381 14.905065 0.826767
v 1.353379 15.065757 2.985336
v 1.687637 14.905061 2.291241
v 1.353379 14.905061 2.985336
v 1.687637 15.065757 2.291245
v 1.687637 14.905062 1.520859
v 1.687637 15.065758 1.520859
v 1.353381 14.905065 0.826767
v 1.353381 15.065758 0.826767
v -0.619003 27.770123 -7.008085
v -1.072132 27.931665 -6.554956
v -1.072132 27.770119 -6.554956
v -0.619003 27.931669 -7.008085
v -0.000018 27.770123 -7.173941
v -0.000018 27.931669 -7.173941
v 0.618966 27.770123 -7.008085
v 0.618966 27.931669 -7.008085
v 1.072095 27.770119 -6.554956
v 1.072095 27.931665 -6.554956
v -1.237988 27.931665 -5.935972
v -1.072132 27.770119 -6.554956
v -1.072132 27.931665 -6.554956
v -1.237988 27.770119 -5.935972
v -1.072132 27.931664 -5.316988
v -1.072132 27.770115 -5.316988
v -0.619004 27.931664 -4.863861
v -1.072132 27.770115 -5.316988
v -1.072132 27.931664 -5.316988
v -0.619004 27.770115 -4.863861
v -0.000018 27.931664 -4.698004
v -0.000018 27.770115 -4.698004
v 0.618967 27.931664 -4.863861
v 0.618967 27.770115 -4.863861
v 1.072095 27.931664 -5.316988
v 1.072095 27.770115 -5.316988
v 1.237951 27.770119 -5.935972
v 1.072095 27.931665 -6.554956
v 1.072095 27.770119 -6.554956
v 1.237951 27.931665 -5.935972
v 1.072095 27.770115 -5.316988
v 1.072095 27.931664 -5.316988
v 0.991712 13.110874 11.636391
v 0.991713 13.180082 11.462410
v 1.142384 13.110874 11.549393
v 0.841043 13.110873 11.549393
v 1.142384 13.110874 11.375420
v 0.841043 13.110874 11.375420
v 0.991712 13.110874 11.288422
v 0.870602 19.110823 -1.455093
v 0.870603 19.180031 -1.629082
v 1.021274 19.110823 -1.542099
v 0.719933 19.110821 -1.542099
v 1.021274 19.110823 -1.716072
v 0.719934 19.110823 -1.716072
v 0.870603 19.110823 -1.803062
v 0.755244 26.107052 -3.046959
v 0.604572 26.107052 -3.133961
v 0.755243 26.176262 -3.220943
v 0.905913 26.107052 -3.133961
v 0.604572 26.107052 -3.307934
v 0.905913 26.107052 -3.307934
v 0.755244 26.107052 -3.394928
v -0.991709 13.110874 11.636391
v -1.142381 13.110874 11.549393
v -0.991710 13.180082 11.462410
v -0.841040 13.110873 11.549393
v -1.142381 13.110874 11.375420
v -0.841040 13.110874 11.375420
v -0.991709 13.110874 11.288422
v -0.870599 19.110823 -1.455093
v -1.021271 19.110823 -1.542099
v -0.870600 19.180031 -1.629082
v -0.719930 19.110821 -1.542099
v -1.021271 19.110823 -1.716072
v -0.719931 19.110823 -1.716072
v -0.870599 19.110823 -1.803062
v -0.755241 26.107052 -3.046959
v -0.755240 26.176262 -3.220943
v -0.604569 26.107052 -3.133961
v -0.905910 26.107052 -3.133961
v -0.604569 26.107052 -3.307934
v -0.905910 26.107052 -3.307934
v -0.755241 26.107052 -3.394928
vn -0.0000 1.0000 -0.0000
vn 0.9163 -0.0000 0.4005
vn 0.8301 -0.0000 0.5576
vn 0.7173 -0.0000 0.6968
vn 0.0001 1.0000 -0.0000
vn -0.0001 1.0000 -0.0000
vn 0.0001 -1.0000 -0.0000
vn -0.0000 -1.0000 -0.0000
vn 0.5009 -0.0000 0.8655
vn 0.3979 -0.0000 0.9174
vn 0.2896 -0.0000 0.9571
vn 0.0962 -0.0000 0.9954
vn -0.0000 -0.0000 1.0000
vn -0.0962 -0.0000 0.9954
vn 0.6236 -0.0000 0.7818
vn 0.9010 -0.0000 0.4339
vn 1.0000 -0.0000 -0.0000
vn 0.9010 -0.0000 -0.4339
vn 0.6236 -0.0000 -0.7818
vn 0.6234 -0.0000 0.7819
vn 0.2225 -0.0000 0.9749
vn -0.2225 -0.0000 0.9749
vn -0.6234 -0.0000 0.7819
vn -0.6235 -0.0000 0.7818
vn -0.6235 -0.0001 0.7818
vn -0.9010 -0.0000 0.4339
vn -1.0000 -0.0000 -0.0000
vn -0.9010 -0.0000 -0.4339
vn -0.6235 -0.0000 -0.7818
vn 0.6234 -0.0000 -0.7819
vn 0.2225 -0.0000 -0.9749
vn -0.2225 -0.0000 -0.9749
vn -0.6234 -0.0000 -0.7819
vn -0.6234 -0.0001 -0.7819
vn -0.7824 0.2543 0.5685
vn -0.6577 -0.5822 0.4780
vn -0.9671 0.2543 -0.0000
vn -0.8130 -0.5822 -0.0000
vn -0.7825 0.2544 -0.5684
vn -0.6577 -0.5823 -0.4779
vn -0.6577 -0.5822 0.4779
vn -0.2513 -0.5823 0.7732
vn -0.2989 0.2541 0.9198
vn 0.2513 -0.5823 0.7732
vn 0.2989 0.2542 0.9198
vn 0.6578 -0.5822 0.4778
vn 0.7824 0.2543 0.5685
vn 0.6577 -0.5822 0.4779
vn 0.7825 0.2543 0.5684
vn 0.8130 -0.5822 -0.0000
vn 0.9671 0.2543 -0.0000
vn 0.6577 -0.5822 -0.4780
vn 0.7824 0.2544 -0.5684
vn 0.6577 -0.5822 -0.4779
vn 0.2512 -0.5822 -0.7732
vn 0.2988 0.2544 -0.9198
vn -0.2513 -0.5823 -0.7732
vn -0.2989 0.2543 -0.9198
vn -0.6578 -0.5822 -0.4777
vn -0.7824 0.2544 -0.5684
vn -0.9163 -0.0000 0.4005
vn -0.8301 -0.0000 0.5576
vn -0.7173 -0.0000 0.6968
vn -0.0001 -1.0000 -0.0000
vn -0.5009 -0.0000 0.8655
vn -0.3979 -0.0000 0.9174
vn -0.2896 -0.0000 0.9571
vn -0.6236 -0.0000 0.7818
vn -0.6236 -0.0000 -0.7818
vn 0.6234 -0.0001 0.7819
vn 0.6235 -0.0000 0.7818
vn 0.6235 -0.0000 -0.7818
vn 0.6578 -0.5822 0.4779
vn 0.2513 -0.5822 0.7732
vn 0.7824 0.2542 0.5685
vn 0.2989 0.2541 0.9198
vn -0.2512 -0.5823 0.7732
vn -0.2989 0.2542 0.9198
vn -0.6578 -0.5822 0.4778
vn -0.7824 0.2545 -0.5684
vn -0.6578 -0.5822 -0.4778
vn -0.2513 -0.5822 -0.7732
vn -0.2989 0.2544 -0.9198
vn 0.2512 -0.5823 -0.7732
vn 0.7823 0.2545 -0.5685
vn -0.7818 -0.0000 0.6235
vn -0.4339 -0.0000 0.9010
vn 0.4339 -0.0000 0.9010
vn 0.7818 -0.0000 0.6235
vn 0.7818 -0.0000 0.6236
vn -0.7819 -0.0000 0.6234
vn -0.9749 -0.0000 0.2225
vn -0.9749 -0.0000 -0.2225
vn -0.7819 -0.0000 -0.6234
vn -0.7818 -0.0000 -0.6235
vn -0.4339 -0.0000 -0.9010
vn -0.0000 -0.0000 -1.0000
vn 0.4339 -0.0000 -0.9010
vn 0.7818 -0.0000 -0.6235
vn 0.7819 -0.0000 0.6234
vn 0.9749 -0.0000 0.2225
vn 0.9749 -0.0000 -0.2225
vn 0.7819 -0.0000 -0.6234
vn -0.8660 -0.0000 -0.5001
vn -0.5000 -0.0000 -0.8660
vn 0.5000 -0.0000 -0.8660
vn 0.8660 -0.0000 -0.5001
vn -0.8661 -0.0000 -0.4999
vn -0.8661 -0.0000 0.4999
vn -0.8660 -0.0000 0.5000
vn -0.5000 -0.0000 0.8660
vn 0.5000 -0.0000 0.8660
vn 0.8660 -0.0001 0.5000
vn 0.8660 -0.0000 0.5000
vn 0.8661 -0.0000 -0.4998
vn 0.8661 -0.0000 0.4999
vn 0.3201 0.9292 0.1848
vn -0.0000 0.9292 0.3696
vn -0.3201 0.9292 0.1848
vn 0.3201 0.9292 -0.1848
vn -0.3201 0.9292 -0.1848
vn -0.0000 0.9292 -0.3696
vt 0.521790 3.396179
vt 0.521790 3.397885
vt 0.520325 3.395326
vt 0.518861 3.397885
vt 0.518861 3.396179
vt 0.520325 3.398739
vt 0.511098 3.396179
vt 0.511098 3.397885
vt 0.509633 3.395326
vt 0.508169 3.397885
vt 0.508169 3.396179
vt 0.509633 3.398739
vt 3.451663 0.578869
vt 3.445797 0.578869
vt 3.451663 0.577414
vt 3.445797 0.577414
vt 3.441148 0.578869
vt 3.441148 0.577414
vt 0.536394 3.441617
vt 0.536875 3.441148
vt 0.538595 3.443895
vt 0.541350 3.445797
vt 0.540241 3.446549
vt 0.538077 3.444317
vt 0.542038 3.449055
vt 0.541454 3.449379
vt 0.543891 3.451663
vt 0.543280 3.451936
vt 3.441148 0.582212
vt 3.445797 0.582212
vt 3.441148 0.583810
vt 3.445797 0.583810
vt 3.451663 0.582212
vt 3.451663 0.583810
vt 0.456720 3.451936
vt 0.456109 3.451663
vt 0.457962 3.449055
vt 0.458650 3.445797
vt 0.459759 3.446549
vt 0.458546 3.449379
vt 0.461405 3.443895
vt 0.461923 3.444317
vt 0.463125 3.441148
vt 0.463606 3.441617
vt 0.530405 0.578870
vt 0.524705 0.578870
vt 0.530405 0.577414
vt 0.524705 0.577414
vt 0.518745 0.578870
vt 0.518745 0.577414
vt 0.518550 3.431753
vt 0.518745 3.431108
vt 0.521495 3.432650
vt 0.524705 3.432928
vt 0.524173 3.434165
vt 0.521264 3.433282
vt 0.527255 3.435194
vt 0.526955 3.435795
vt 0.530405 3.436257
vt 0.530071 3.436841
vt 0.518745 0.582212
vt 0.524705 0.582212
vt 0.518745 0.583810
vt 0.524705 0.583810
vt 0.530405 0.582212
vt 0.530405 0.583810
vt 0.469929 3.436841
vt 0.469595 3.436257
vt 0.472745 3.435194
vt 0.475295 3.432928
vt 0.475827 3.434165
vt 0.473045 3.435795
vt 0.478505 3.432650
vt 0.478736 3.433282
vt 0.481255 3.431108
vt 0.481450 3.431753
vt 0.506462 0.583809
vt 0.500002 0.583809
vt 0.506462 0.582212
vt 0.500002 0.582212
vt 0.493542 0.582212
vt 0.493542 0.583809
vt 0.493601 3.429362
vt 0.493538 3.428691
vt 0.496800 3.429049
vt 0.499998 3.428061
vt 0.499998 3.429410
vt 0.496831 3.429722
vt 0.503196 3.429049
vt 0.503164 3.429722
vt 0.506458 3.428691
vt 0.506394 3.429362
vt 0.506462 0.578869
vt 0.500002 0.578869
vt 0.506462 0.577414
vt 0.500002 0.577414
vt 0.493542 0.577414
vt 0.493542 0.578869
vt 0.506399 3.429362
vt 0.503200 3.429049
vt 0.506462 3.428691
vt 0.500002 3.428061
vt 0.500002 3.429410
vt 0.503169 3.429722
vt 0.496804 3.429049
vt 0.496836 3.429722
vt 0.493542 3.428691
vt 0.493606 3.429362
vt 0.519961 3.595686
vt 0.519961 3.597393
vt 0.518497 3.594833
vt 0.517032 3.597393
vt 0.517032 3.595686
vt 0.518497 3.598246
vt 0.509269 3.595686
vt 0.509269 3.597393
vt 0.507804 3.594833
vt 0.506340 3.597393
vt 0.506340 3.595686
vt 0.507804 3.598246
vt 3.796108 0.608027
vt 3.796108 0.605585
vt 3.805286 0.608027
vt 3.805286 0.605585
vt 3.816733 0.608027
vt 3.816733 0.605585
vt 3.828179 0.605585
vt 3.828179 0.608027
vt 3.837358 0.605585
vt 3.837358 0.608027
vt 0.597817 0.605585
vt 0.597817 0.608027
vt 0.587335 0.605585
vt 0.587335 0.608027
vt 0.575700 0.605585
vt 0.575700 0.608027
vt 0.565217 0.605585
vt 0.565217 0.608027
vt -2.796108 0.605585
vt -2.796108 0.608027
vt -2.805286 0.605585
vt -2.805286 0.608027
vt -2.816733 0.605585
vt -2.816733 0.608027
vt -2.828179 0.608027
vt -2.828179 0.605585
vt -2.837358 0.608027
vt -2.837358 0.605585
vt 0.402183 0.605585
vt 0.412665 0.605585
vt 0.402183 0.608027
vt 0.412665 0.608027
vt 0.424300 0.605585
vt 0.424300 0.608027
vt 0.434783 0.605585
vt 0.434783 0.608027
vt -2.434873 0.434353
vt -2.434810 0.437106
vt -2.439030 0.434353
vt -2.439030 0.437106
vt -2.443186 0.434353
vt -2.443250 0.437106
vt 0.613684 0.437106
vt 0.613771 0.434353
vt 0.617242 0.437106
vt 0.617275 0.434353
vt 0.621639 0.437106
vt 0.621606 0.434353
vt 0.625197 0.437106
vt 0.625110 0.434353
vt 3.434810 0.437106
vt 3.434873 0.434353
vt 3.439030 0.437106
vt 3.439030 0.434353
vt 3.443250 0.437106
vt 3.443186 0.434353
vt 0.374803 0.437106
vt 0.374890 0.434353
vt 0.378361 0.437106
vt 0.378394 0.434353
vt 0.382758 0.437106
vt 0.382725 0.434353
vt 0.386316 0.437106
vt 0.386229 0.434353
vt 0.481144 3.396179
vt 0.481144 3.397885
vt 0.479679 3.395326
vt 0.478214 3.397885
vt 0.478214 3.396179
vt 0.479679 3.398739
vt 0.491836 3.396179
vt 0.491836 3.397885
vt 0.490371 3.395326
vt 0.488907 3.397885
vt 0.488907 3.396179
vt 0.490371 3.398739
vt -2.451663 0.578869
vt -2.451663 0.577414
vt -2.445797 0.578869
vt -2.445797 0.577414
vt -2.441148 0.578869
vt -2.441148 0.577414
vt 0.463611 3.441617
vt 0.461410 3.443895
vt 0.463130 3.441148
vt 0.458654 3.445797
vt 0.459764 3.446549
vt 0.461928 3.444317
vt 0.457967 3.449055
vt 0.458550 3.449379
vt 0.456113 3.451663
vt 0.456725 3.451936
vt -2.441148 0.582212
vt -2.441148 0.583810
vt -2.445797 0.582212
vt -2.445797 0.583810
vt -2.451663 0.582212
vt -2.451663 0.583810
vt 0.543275 3.451936
vt 0.542033 3.449055
vt 0.543887 3.451663
vt 0.541346 3.445797
vt 0.540236 3.446549
vt 0.541450 3.449379
vt 0.538590 3.443895
vt 0.538072 3.444317
vt 0.536870 3.441148
vt 0.536389 3.441617
vt 0.469599 0.578870
vt 0.469599 0.577414
vt 0.475299 0.578870
vt 0.475299 0.577414
vt 0.481260 0.578870
vt 0.481260 0.577414
vt 0.481454 3.431753
vt 0.478510 3.432650
vt 0.481260 3.431108
vt 0.475299 3.432928
vt 0.475831 3.434165
vt 0.478740 3.433282
vt 0.472749 3.435194
vt 0.473049 3.435795
vt 0.469599 3.436257
vt 0.469933 3.436841
vt 0.481260 0.582212
vt 0.481260 0.583810
vt 0.475299 0.582212
vt 0.475299 0.583810
vt 0.469599 0.582212
vt 0.469599 0.583810
vt 0.530067 3.436841
vt 0.527251 3.435194
vt 0.530401 3.436257
vt 0.524701 3.432928
vt 0.524169 3.434165
vt 0.526951 3.435795
vt 0.521490 3.432650
vt 0.521260 3.433282
vt 0.518740 3.431108
vt 0.518546 3.431753
vt 0.482973 3.595686
vt 0.482973 3.597393
vt 0.481508 3.594833
vt 0.480044 3.597393
vt 0.480044 3.595686
vt 0.481508 3.598246
vt 0.493665 3.595686
vt 0.493665 3.597393
vt 0.492200 3.594833
vt 0.490736 3.597393
vt 0.490736 3.595686
vt 0.492200 3.598246
vt 0.402188 0.605585
vt 0.412670 0.605585
vt 0.402188 0.608027
vt 0.412670 0.608027
vt 0.424305 0.605585
vt 0.424305 0.608027
vt 0.434788 0.605585
vt 0.434788 0.608027
vt 0.597812 0.605585
vt 0.597812 0.608027
vt 0.587330 0.605585
vt 0.587330 0.608027
vt 0.575695 0.605585
vt 0.575695 0.608027
vt 0.565212 0.605585
vt 0.565212 0.608027
vt 0.386320 0.437106
vt 0.382763 0.437106
vt 0.386234 0.434353
vt 0.382730 0.434353
vt 0.378365 0.437106
vt 0.378399 0.434353
vt 0.374808 0.437106
vt 0.374895 0.434353
vt 0.625192 0.437106
vt 0.621634 0.437106
vt 0.625105 0.434353
vt 0.621601 0.434353
vt 0.617237 0.437106
vt 0.617270 0.434353
vt 0.613680 0.437106
vt 0.613766 0.434353
vt 0.479562 0.608027
vt 0.479562 0.605585
vt 0.488658 0.608027
vt 0.488658 0.605585
vt 0.500002 0.608027
vt 0.500002 0.605585
vt 0.511345 0.605585
vt 0.511345 0.608027
vt 0.520442 0.605585
vt 0.520442 0.608027
vt -2.529030 0.605585
vt -2.529030 0.608027
vt -2.539608 0.605585
vt -2.539608 0.608027
vt -2.551348 0.605585
vt -2.551348 0.608027
vt -2.561926 0.605585
vt -2.561926 0.608027
vt 0.520438 0.605585
vt 0.520438 0.608027
vt 0.511342 0.605585
vt 0.511342 0.608027
vt 0.499998 0.605585
vt 0.499998 0.608027
vt 0.488655 0.608027
vt 0.488655 0.605585
vt 0.479558 0.608027
vt 0.479558 0.605585
vt 3.529030 0.605585
vt 3.539608 0.605585
vt 3.529030 0.608027
vt 3.539608 0.608027
vt 3.551348 0.605585
vt 3.551348 0.608027
vt 3.561926 0.605585
vt 3.561926 0.608027
vt 0.516189 0.801069
vt 0.516189 0.803524
vt 0.509346 0.801069
vt 0.509346 0.803524
vt 0.499998 0.801069
vt 0.499998 0.803524
vt 0.490650 0.801069
vt 0.490650 0.803524
vt 0.483806 0.801069
vt 0.483806 0.803524
vt -2.674419 0.803524
vt -2.674419 0.801069
vt -2.664986 0.803524
vt -2.664986 0.801069
vt -2.655553 0.803524
vt -2.655553 0.801069
vt 0.483810 0.803524
vt 0.483810 0.801069
vt 0.490654 0.803524
vt 0.490654 0.801069
vt 0.500002 0.803524
vt 0.500002 0.801069
vt 0.509350 0.803524
vt 0.509350 0.801069
vt 0.516194 0.803524
vt 0.516194 0.801069
vt 3.674419 0.801069
vt 3.674419 0.803524
vt 3.664986 0.801069
vt 3.664986 0.803524
vt 3.655553 0.801069
vt 3.655553 0.803524
vt 0.517255 3.398518
vt 0.514980 3.399844
vt 0.514980 3.397192
vt 0.512704 3.398518
vt 0.517255 3.401170
vt 0.512704 3.401170
vt 0.514980 3.402495
vt 0.515426 3.598026
vt 0.513151 3.599351
vt 0.513151 3.596700
vt 0.510875 3.598026
vt 0.515426 3.600677
vt 0.510875 3.600677
vt 0.513151 3.602003
vt 0.511408 3.623610
vt 0.509133 3.622285
vt 0.511408 3.620959
vt 0.513684 3.622285
vt 0.509133 3.624936
vt 0.513684 3.624936
vt 0.511408 3.626262
vt 0.485025 3.399844
vt 0.482749 3.398518
vt 0.485025 3.397192
vt 0.487300 3.398518
vt 0.482749 3.401170
vt 0.487300 3.401170
vt 0.485025 3.402495
vt 0.486854 3.599351
vt 0.484579 3.598026
vt 0.486854 3.596700
vt 0.489130 3.598026
vt 0.484579 3.600677
vt 0.489130 3.600677
vt 0.486854 3.602003
vt 0.490872 3.622285
vt 0.488596 3.623610
vt 0.488596 3.620959
vt 0.486321 3.622285
vt 0.490872 3.624936
vt 0.486321 3.624936
vt 0.488596 3.626262
s 1
g Montana_deckhouse_A1_001_3_Iowa_Deckhouse_A1_001_2.005_details_3
usemtl details_3
f 31/1/1 30/2/1 29/3/1
f 30/2/1 32/4/1 29/3/1
f 32/4/1 33/5/1 29/3/1
f 34/6/1 32/4/1 30/2/1
f 37/7/1 36/8/1 35/9/1
f 36/8/1 38/10/1 35/9/1
f 38/10/1 39/11/1 35/9/1
f 40/12/1 38/10/1 36/8/1
f 43/13/2 42/14/3 41/15/2
f 44/16/3 41/15/2 42/14/3
f 42/14/3 45/17/4 44/16/3
f 46/18/4 44/16/3 45/17/4
f 49/19/1 48/20/1 47/21/1
f 50/22/1 47/21/1 48/20/1
f 50/22/1 51/23/1 47/21/1
f 52/24/5 47/21/1 51/23/1
f 50/22/1 53/25/1 51/23/1
f 54/26/6 51/23/1 53/25/1
f 50/22/1 55/27/1 53/25/1
f 56/28/6 53/25/1 55/27/1
f 59/29/4 58/30/3 57/31/4
f 60/32/3 57/31/4 58/30/3
f 58/30/3 61/33/2 60/32/3
f 62/34/2 60/32/3 61/33/2
f 65/35/7 64/36/8 63/37/8
f 66/38/8 63/37/8 64/36/8
f 66/38/8 67/39/8 63/37/8
f 68/40/8 63/37/8 67/39/8
f 66/38/8 69/41/8 67/39/8
f 70/42/8 67/39/8 69/41/8
f 66/38/8 71/43/8 69/41/8
f 72/44/8 69/41/8 71/43/8
f 75/45/9 74/46/10 73/47/9
f 76/48/10 73/47/9 74/46/10
f 74/46/10 77/49/11 76/48/10
f 78/50/11 76/48/10 77/49/11
f 81/51/1 80/52/1 79/53/1
f 82/54/1 79/53/1 80/52/1
f 82/54/1 83/55/1 79/53/1
f 84/56/1 79/53/1 83/55/1
f 82/54/1 85/57/1 83/55/1
f 86/58/1 83/55/1 85/57/1
f 82/54/1 87/59/1 85/57/1
f 88/60/1 85/57/1 87/59/1
f 91/61/11 90/62/10 89/63/11
f 92/64/10 89/63/11 90/62/10
f 90/62/10 93/65/9 92/64/10
f 94/66/9 92/64/10 93/65/9
f 97/67/8 96/68/8 95/69/8
f 98/70/8 95/69/8 96/68/8
f 98/70/8 99/71/8 95/69/8
f 100/72/8 95/69/8 99/71/8
f 98/70/8 101/73/8 99/71/8
f 102/74/8 99/71/8 101/73/8
f 98/70/8 103/75/8 101/73/8
f 104/76/8 101/73/8 103/75/8
f 107/77/12 106/78/13 105/79/12
f 108/80/13 105/79/12 106/78/13
f 108/80/13 106/78/13 109/81/14
f 110/82/14 109/81/14 106/78/13
f 113/83/8 112/84/8 111/85/8
f 114/86/8 111/85/8 112/84/8
f 114/86/8 115/87/8 111/85/8
f 116/88/8 111/85/8 115/87/8
f 114/86/8 117/89/8 115/87/8
f 118/90/8 115/87/8 117/89/8
f 114/86/8 119/91/8 117/89/8
f 120/92/8 117/89/8 119/91/8
f 123/93/12 122/94/13 121/95/12
f 124/96/13 121/95/12 122/94/13
f 124/96/13 122/94/13 125/97/14
f 126/98/14 125/97/14 122/94/13
f 129/99/1 128/100/1 127/101/1
f 130/102/1 127/101/1 128/100/1
f 130/102/1 128/100/1 131/103/1
f 132/104/1 131/103/1 128/100/1
f 130/102/1 131/103/1 133/105/1
f 134/106/1 133/105/1 131/103/1
f 130/102/1 133/105/1 135/107/1
f 136/108/1 135/107/1 133/105/1
f 139/109/1 138/110/1 137/111/1
f 138/110/1 140/112/1 137/111/1
f 140/112/1 141/113/1 137/111/1
f 142/114/1 140/112/1 138/110/1
f 145/115/1 144/116/1 143/117/1
f 144/116/1 146/118/1 143/117/1
f 146/118/1 147/119/1 143/117/1
f 148/120/1 146/118/1 144/116/1
f 151/121/15 150/122/15 149/123/16
f 152/124/16 149/123/16 150/122/15
f 149/123/16 152/124/16 153/125/17
f 154/126/17 153/125/17 152/124/16
f 154/126/17 155/127/18 153/125/17
f 156/128/18 153/125/17 155/127/18
f 155/127/18 157/129/19 156/128/18
f 158/130/19 156/128/18 157/129/19
f 161/131/20 160/132/20 159/133/21
f 162/134/21 159/133/21 160/132/20
f 159/133/21 162/134/21 163/135/22
f 164/136/22 163/135/22 162/134/21
f 163/135/22 164/136/22 165/137/23
f 166/138/23 165/137/23 164/136/22
f 169/139/24 168/140/25 167/141/26
f 170/142/26 167/141/26 168/140/25
f 167/141/26 170/142/26 171/143/27
f 172/144/27 171/143/27 170/142/26
f 172/144/27 173/145/28 171/143/27
f 174/146/28 171/143/27 173/145/28
f 173/145/28 175/147/29 174/146/28
f 176/148/29 174/146/28 175/147/29
f 179/149/30 178/150/31 177/151/30
f 180/152/31 177/151/30 178/150/31
f 178/150/31 181/153/32 180/152/31
f 182/154/32 180/152/31 181/153/32
f 181/153/32 183/155/33 182/154/32
f 184/156/34 182/154/32 183/155/33
f 1/157/35 185/158/36 2/159/37
f 186/160/38 2/159/37 185/158/36
f 2/159/37 186/160/38 3/161/39
f 187/162/40 3/161/39 186/160/38
f 189/163/41 5/164/35 188/165/42
f 4/166/43 188/165/42 5/164/35
f 188/165/42 4/166/43 190/167/44
f 6/168/45 190/167/44 4/166/43
f 190/167/44 6/168/45 191/169/46
f 7/170/47 191/169/46 6/168/45
f 193/171/48 9/172/49 192/173/50
f 8/174/51 192/173/50 9/172/49
f 192/173/50 8/174/51 194/175/52
f 10/176/53 194/175/52 8/174/51
f 196/177/54 12/178/53 195/179/55
f 11/180/56 195/179/55 12/178/53
f 195/179/55 11/180/56 197/181/57
f 13/182/58 197/181/57 11/180/56
f 197/181/57 13/182/58 198/183/59
f 14/184/60 198/183/59 13/182/58
f 201/185/1 200/186/1 199/187/1
f 200/186/1 202/188/1 199/187/1
f 202/188/1 203/189/1 199/187/1
f 204/190/1 202/188/1 200/186/1
f 207/191/1 206/192/1 205/193/1
f 206/192/1 208/194/1 205/193/1
f 208/194/1 209/195/1 205/193/1
f 210/196/1 208/194/1 206/192/1
f 213/197/61 212/198/61 211/199/62
f 214/200/62 211/199/62 212/198/61
f 211/199/62 214/200/62 215/201/63
f 216/202/63 215/201/63 214/200/62
f 219/203/1 218/204/1 217/205/1
f 220/206/1 217/205/1 218/204/1
f 220/206/1 218/204/1 221/207/1
f 222/208/6 221/207/1 218/204/1
f 220/206/1 221/207/1 223/209/1
f 224/210/5 223/209/1 221/207/1
f 220/206/1 223/209/1 225/211/1
f 226/212/5 225/211/1 223/209/1
f 229/213/63 228/214/63 227/215/62
f 230/216/62 227/215/62 228/214/63
f 227/215/62 230/216/62 231/217/61
f 232/218/61 231/217/61 230/216/62
f 235/219/64 234/220/8 233/221/8
f 236/222/8 233/221/8 234/220/8
f 236/222/8 234/220/8 237/223/8
f 238/224/8 237/223/8 234/220/8
f 236/222/8 237/223/8 239/225/8
f 240/226/8 239/225/8 237/223/8
f 236/222/8 239/225/8 241/227/8
f 242/228/8 241/227/8 239/225/8
f 245/229/65 244/230/65 243/231/66
f 246/232/66 243/231/66 244/230/65
f 243/231/66 246/232/66 247/233/67
f 248/234/67 247/233/67 246/232/66
f 251/235/1 250/236/1 249/237/1
f 252/238/1 249/237/1 250/236/1
f 252/238/1 250/236/1 253/239/1
f 254/240/1 253/239/1 250/236/1
f 252/238/1 253/239/1 255/241/1
f 256/242/1 255/241/1 253/239/1
f 252/238/1 255/241/1 257/243/1
f 258/244/1 257/243/1 255/241/1
f 261/245/67 260/246/67 259/247/66
f 262/248/66 259/247/66 260/246/67
f 259/247/66 262/248/66 263/249/65
f 264/250/65 263/249/65 262/248/66
f 267/251/8 266/252/8 265/253/8
f 268/254/8 265/253/8 266/252/8
f 268/254/8 266/252/8 269/255/8
f 270/256/8 269/255/8 266/252/8
f 268/254/8 269/255/8 271/257/8
f 272/258/8 271/257/8 269/255/8
f 268/254/8 271/257/8 273/259/8
f 274/260/8 273/259/8 271/257/8
f 277/261/1 276/262/1 275/263/1
f 276/262/1 278/264/1 275/263/1
f 278/264/1 279/265/1 275/263/1
f 280/266/1 278/264/1 276/262/1
f 283/267/1 282/268/1 281/269/1
f 282/268/1 284/270/1 281/269/1
f 284/270/1 285/271/6 281/269/1
f 286/272/1 284/270/1 282/268/1
f 289/140/68 288/142/26 287/139/68
f 290/141/26 287/139/68 288/142/26
f 288/142/26 291/144/27 290/141/26
f 292/143/27 290/141/26 291/144/27
f 292/143/27 291/144/27 293/146/28
f 294/145/28 293/146/28 291/144/27
f 293/146/28 294/145/28 295/148/69
f 296/147/69 295/148/69 294/145/28
f 299/273/23 298/274/22 297/275/23
f 300/276/22 297/275/23 298/274/22
f 298/274/22 301/277/21 300/276/22
f 302/278/21 300/276/22 301/277/21
f 301/277/21 303/279/20 302/278/21
f 304/280/70 302/278/21 303/279/20
f 307/122/71 306/124/16 305/121/71
f 308/123/16 305/121/71 306/124/16
f 306/124/16 309/126/17 308/123/16
f 310/125/17 308/123/16 309/126/17
f 310/125/17 309/126/17 311/128/18
f 312/127/18 311/128/18 309/126/17
f 311/128/18 312/127/18 313/130/72
f 314/129/72 313/130/72 312/127/18
f 317/281/33 316/282/33 315/283/32
f 318/284/32 315/283/32 316/282/33
f 315/283/32 318/284/32 319/285/31
f 320/286/31 319/285/31 318/284/32
f 319/285/31 320/286/31 321/287/30
f 322/288/30 321/287/30 320/286/31
f 15/172/49 16/174/51 323/171/73
f 324/173/50 323/171/73 16/174/51
f 16/174/51 17/176/53 324/173/50
f 325/175/52 324/173/50 17/176/53
f 327/289/46 326/290/74 19/291/75
f 18/292/76 19/291/75 326/290/74
f 326/290/74 328/293/77 18/292/76
f 20/294/78 18/292/76 328/293/77
f 328/293/77 329/295/79 20/294/78
f 21/296/35 20/294/78 329/295/79
f 331/158/41 330/160/38 23/157/35
f 22/159/37 23/157/35 330/160/38
f 330/160/38 332/162/40 22/159/37
f 24/161/80 22/159/37 332/162/40
f 334/297/81 333/298/82 26/299/60
f 25/300/83 26/299/60 333/298/82
f 333/298/82 335/301/84 25/300/83
f 27/302/56 25/300/83 335/301/84
f 335/301/84 336/303/54 27/302/56
f 28/304/85 27/302/56 336/303/54
f 339/305/86 338/306/86 337/307/87
f 340/308/87 337/307/87 338/306/86
f 337/307/87 340/308/87 341/309/13
f 342/310/13 341/309/13 340/308/87
f 342/310/13 343/311/88 341/309/13
f 344/312/88 341/309/13 343/311/88
f 343/311/88 345/313/89 344/312/88
f 346/314/90 344/312/88 345/313/89
f 349/315/91 348/316/91 347/317/92
f 350/318/92 347/317/92 348/316/91
f 347/317/92 350/318/92 351/319/93
f 352/320/93 351/319/93 350/318/92
f 351/319/93 352/320/93 353/321/94
f 354/322/94 353/321/94 352/320/93
f 357/323/95 356/324/95 355/325/96
f 358/326/96 355/325/96 356/324/95
f 355/325/96 358/326/96 359/327/97
f 360/328/97 359/327/97 358/326/96
f 360/328/97 361/329/98 359/327/97
f 362/330/98 359/327/97 361/329/98
f 361/329/98 363/331/99 362/330/98
f 364/332/99 362/330/98 363/331/99
f 367/333/100 366/334/101 365/335/100
f 368/336/101 365/335/100 366/334/101
f 366/334/101 369/337/102 368/336/101
f 370/338/102 368/336/101 369/337/102
f 369/337/102 371/339/103 370/338/102
f 372/340/103 370/338/102 371/339/103
f 375/341/104 374/342/104 373/343/105
f 376/344/105 373/343/105 374/342/104
f 373/343/105 376/344/105 377/345/97
f 378/346/97 377/345/97 376/344/105
f 377/345/97 378/346/97 379/347/106
f 380/348/106 379/347/106 378/346/97
f 379/347/106 380/348/106 381/349/107
f 382/350/107 381/349/107 380/348/106
f 385/351/108 384/352/108 383/353/27
f 386/354/27 383/353/27 384/352/108
f 383/353/27 386/354/27 387/355/109
f 388/356/109 387/355/109 386/354/27
f 391/357/110 390/358/110 389/359/111
f 392/360/111 389/359/111 390/358/110
f 389/359/111 392/360/111 393/361/13
f 394/362/13 393/361/13 392/360/111
f 393/361/13 394/362/13 395/363/112
f 396/364/112 395/363/112 394/362/13
f 395/363/112 396/364/112 397/365/113
f 398/366/114 397/365/113 396/364/112
f 401/367/115 400/368/115 399/369/17
f 402/370/17 399/369/17 400/368/115
f 399/369/17 402/370/17 403/371/116
f 404/372/116 403/371/116 402/370/17
f 407/373/117 406/374/1 405/375/118
f 405/375/118 406/374/1 408/376/119
f 409/377/120 406/374/1 407/373/117
f 408/376/119 406/374/1 410/378/121
f 411/379/122 406/374/1 409/377/120
f 410/378/121 406/374/1 411/379/122
f 414/380/117 413/381/1 412/382/118
f 412/382/118 413/381/1 415/383/119
f 416/384/120 413/381/1 414/380/117
f 415/383/119 413/381/1 417/385/121
f 418/386/122 413/381/1 416/384/120
f 417/385/121 413/381/1 418/386/122
f 421/387/1 420/388/119 419/389/118
f 421/387/1 419/389/118 422/390/117
f 421/387/1 423/391/121 420/388/119
f 421/387/1 422/390/117 424/392/120
f 421/387/1 425/393/122 423/391/121
f 421/387/1 424/392/120 425/393/122
f 428/394/1 427/395/119 426/396/118
f 428/394/1 426/396/118 429/397/117
f 428/394/1 430/398/121 427/395/119
f 428/394/1 429/397/117 431/399/120
f 428/394/1 432/400/122 430/398/121
f 428/394/1 431/399/120 432/400/122
f 435/401/1 434/402/119 433/403/118
f 435/401/1 433/403/118 436/404/117
f 435/401/1 437/405/121 434/402/119
f 435/401/1 436/404/117 438/406/120
f 435/401/1 439/407/122 437/405/121
f 435/401/1 438/406/120 439/407/122
f 442/408/117 441/409/1 440/410/118
f 440/410/118 441/409/1 443/411/119
f 444/412/120 441/409/1 442/408/117
f 443/411/119 441/409/1 445/413/121
f 446/414/122 441/409/1 444/412/120
f 445/413/121 441/409/1 446/414/122
