# Blender 5.1.0
# www.blender.org
mtllib Montana_deckhouse_A1_001_5_Iowa_Deckhouse_A1_001_4.mtl
o Montana_deckhouse_A1_001_5_Iowa_Deckhouse_A1_001_4.003
v 4.824694 7.847507 3.791870
v 4.762990 7.847551 4.895119
v 1.384429 15.087084 -2.551311
v 1.384423 15.087079 -3.392864
v 1.485473 14.015966 1.044613
v 1.373734 14.015967 0.810432
v 0.762354 14.015966 0.322945
v 0.000002 14.015967 0.148903
v -0.762351 14.015966 0.322945
v -1.373731 14.015967 0.810432
v -1.485470 14.015966 1.044613
v 2.982340 24.010925 -6.272268
v 2.380989 24.010925 -6.447472
v -2.982337 24.010925 -6.272268
v -2.380986 24.010925 -6.447472
v -7.476808 7.847582 3.791996
v -7.850670 7.847585 3.791828
v -1.384426 15.087084 -2.551311
v -1.384420 15.087079 -3.392864
v 2.885924 12.342900 7.897823
v 2.664361 12.342900 6.885262
v 2.885924 12.342900 7.385071
v 2.664362 12.342900 8.397629
v 2.226736 12.342899 6.433292
v 2.226734 12.342900 8.849602
v 1.600465 12.342899 6.072620
v 1.600465 12.342900 9.210274
v 0.836372 12.342899 5.840546
v 0.836370 12.342900 9.442345
v 0.000002 12.342899 5.760551
v 0.000002 12.342900 9.522339
v -0.836367 12.342900 9.442345
v -0.836369 12.342899 5.840546
v -1.600461 12.342900 9.210274
v -1.600462 12.342899 6.072620
v -2.226731 12.342900 8.849602
v -2.226733 12.342899 6.433292
v -2.664359 12.342900 8.397629
v -2.664358 12.342900 6.885262
v -2.885921 12.342900 7.897823
v -2.885921 12.342900 7.385071
v 5.060049 23.882397 -5.102951
v 3.594404 23.882391 -5.634378
v 4.849016 23.882397 -5.680771
v 4.070855 23.882391 -4.329828
v 4.024095 23.882391 -4.166363
v 4.134035 23.882391 -4.252289
v 3.453302 23.882391 -5.729229
v 3.592741 23.882391 -5.734385
v 3.453297 23.882391 -3.680561
v 3.833822 23.882387 -3.680584
v 4.024086 23.882387 -3.871281
v 3.947042 7.847597 6.489990
v 5.381190 7.847586 6.490002
v 7.850670 7.847585 3.791828
v 7.476808 7.847582 3.791996
v 2.374995 9.999704 11.718143
v 4.504404 10.000182 4.455933
v 3.563204 10.000394 9.851425
v 0.000002 9.999807 4.455940
v 0.000002 9.999707 11.718094
v -2.374992 9.999704 11.718143
v -4.504401 10.000182 4.455933
v -3.563201 10.000394 9.851425
v 6.147901 6.923769 -3.925667
v 6.047901 6.923775 -3.273949
v 6.047901 6.923774 -3.925667
v 6.147901 6.923768 -3.273911
v 6.147901 2.923734 -10.190626
v 8.374971 2.923738 -3.015484
v 6.147901 2.923734 -3.015474
v 8.833552 2.923739 -10.190626
v 9.309918 2.923738 -3.015423
v 9.309951 2.923739 -10.192457
v 9.821487 2.923738 -3.186016
v 9.991875 2.923739 -9.510538
v 9.991941 2.923738 -3.697525
v 9.821496 2.923739 -10.021925
v 2.877244 10.000203 -3.015402
v 4.896343 10.000192 3.586014
v 2.876881 10.000192 3.586044
v 6.054237 10.000192 -3.070560
v 2.877385 10.000217 -11.690668
v 6.064445 10.000192 -8.230844
v 6.047901 10.000192 -14.552984
v 2.877385 10.000217 -14.552984
v 6.731735 10.000192 -8.032396
v 6.731735 10.000192 -3.269157
v 6.801195 10.000192 -3.374378
v 6.801195 10.000192 -7.927172
v 6.047901 10.000192 -17.233694
v 2.877385 10.000217 -17.233690
v 4.640302 10.000200 -19.996326
v 6.047948 10.000195 -19.996330
v 2.877385 10.000175 -27.550396
v 4.640301 10.000117 -28.392797
v 2.993789 10.000133 -28.392847
v 2.877386 10.000134 -28.392851
v 5.136783 10.000120 -34.225899
v 6.147900 10.000038 -31.309401
v 6.147900 10.000035 -28.392847
v 6.147900 10.000040 -34.225918
v 2.993793 10.000155 -34.226051
v 5.136756 10.000109 -35.000324
v 2.877393 10.000158 -34.226051
v 1.438348 10.000000 -35.000397
v 1.438371 10.000000 -31.690561
v 2.877386 10.000106 -31.690540
v 4.746208 12.010846 -0.185188
v 3.554680 12.010881 -0.920303
v 4.746208 12.010878 -0.920303
v 1.526985 12.010929 1.557449
v 4.746221 12.010844 -0.092434
v 1.224547 12.010929 0.929428
v 1.526986 12.010928 2.254498
v 1.484437 12.010920 -0.546600
v 0.679572 12.010927 0.494827
v 3.554680 12.010906 -1.850983
v 5.076606 12.010784 2.547581
v 5.028955 12.010843 -0.092434
v 1.224547 12.010929 2.882519
v 5.335420 12.010838 0.115318
v 5.406919 12.010823 0.656036
v 5.453902 12.010829 0.386986
v 3.782577 12.011065 9.934887
v 0.679571 12.010929 3.317123
v 2.527602 12.010866 11.941402
v 0.000002 12.010868 11.941402
v 0.000002 12.010929 3.472229
v -0.679568 12.010929 3.317123
v -2.527599 12.010866 11.941402
v -3.782574 12.011065 9.934887
v -1.224544 12.010929 2.882519
v -5.076603 12.010784 2.547581
v -1.526982 12.010928 2.254498
v -4.746218 12.010844 -0.092434
v -1.526982 12.010929 1.557449
v -5.028952 12.010843 -0.092434
v -5.335417 12.010838 0.115318
v -5.406916 12.010823 0.656036
v -5.453899 12.010829 0.386986
v -4.746205 12.010846 -0.185188
v -3.554677 12.010881 -0.920303
v -4.746205 12.010878 -0.920303
v -1.224544 12.010929 0.929428
v -1.484434 12.010920 -0.546600
v -0.679569 12.010927 0.494827
v -3.554677 12.010906 -1.850983
v 0.000002 12.010898 -0.546585
v 0.000002 12.010927 0.339714
v -1.484382 12.010942 -3.953964
v -2.324948 12.010942 -3.953964
v -2.738950 12.010943 -4.091965
v -5.179998 12.010902 -2.724403
v -2.876955 12.010941 -4.506012
v -5.179997 12.010906 -2.624340
v -5.179956 12.010906 -1.850983
v -5.868533 12.010884 -5.640993
v -6.534211 12.010882 -2.724442
v -7.733738 12.010880 -3.302061
v -8.563831 12.010885 -4.343018
v -8.860077 12.010886 -5.641020
v -8.563806 12.010884 -6.939020
v -7.733743 12.010886 -7.979883
v -6.534212 12.010886 -8.557508
v -5.074176 12.010947 -8.557440
v -2.877016 12.011024 -9.252024
v -5.074134 12.010943 -11.790728
v -2.877033 12.010917 -11.136614
v -2.877401 12.010915 -11.690622
v -2.738537 12.010893 -11.552114
v -2.323039 12.010885 -11.690615
v -5.036250 12.010929 -14.366385
v -5.733295 12.010918 -14.366354
v -4.408232 12.010929 -14.668825
v -3.973628 12.010927 -15.213800
v -3.818522 12.010927 -15.893373
v -2.877351 12.010930 -21.590487
v -3.973628 12.010927 -16.572950
v -4.408232 12.010929 -17.117922
v -7.006127 12.010925 -11.790720
v -5.036250 12.010929 -17.420362
v -7.651642 12.010906 -13.351225
v -7.651476 12.010906 -12.437197
v -7.005262 12.010906 -13.997770
v -4.640312 12.010943 -19.996325
v -4.640312 12.010943 -21.590506
v -5.733305 12.010918 -17.420252
v -7.006127 12.010925 -19.996332
v -7.651476 12.010906 -19.349855
v -7.005262 12.010906 -17.789282
v -7.651642 12.010906 -18.435827
v 5.179959 12.010906 -1.850983
v 5.180000 12.010906 -2.624340
v 5.180001 12.010910 -2.724358
v 2.738952 12.010943 -4.091965
v 2.324951 12.010942 -3.953964
v 1.484385 12.010942 -3.953964
v 2.876958 12.010948 -4.505964
v 5.868536 12.010892 -5.640945
v 6.534214 12.010890 -2.724392
v 7.733741 12.010888 -3.302013
v 8.563835 12.010893 -4.342970
v 8.860081 12.010894 -5.640972
v 8.563809 12.010892 -6.938972
v 7.733746 12.010894 -7.979836
v 6.534215 12.010894 -8.557461
v 5.074179 12.010955 -8.557392
v 2.877018 12.011024 -9.252024
v 5.074137 12.010943 -11.790728
v 2.877036 12.010917 -11.136614
v 2.877404 12.010915 -11.690622
v 2.738540 12.010893 -11.552114
v 2.323041 12.010885 -11.690615
v 5.036252 12.010929 -14.366385
v 4.408235 12.010929 -14.668825
v 3.973630 12.010927 -15.213800
v 3.818525 12.010927 -15.893373
v 5.733298 12.010918 -14.366354
v 2.877354 12.010930 -21.590487
v 3.973630 12.010927 -16.572950
v 4.408235 12.010929 -17.117922
v 7.006130 12.010925 -11.790720
v 5.036252 12.010929 -17.420362
v 7.651645 12.010906 -13.351225
v 7.005265 12.010906 -13.997770
v 7.651479 12.010906 -12.437197
v 4.640315 12.010943 -19.996325
v 4.640315 12.010943 -21.590506
v 5.733307 12.010918 -17.420252
v 7.006130 12.010925 -19.996332
v 7.651479 12.010906 -19.349855
v 7.005265 12.010906 -17.789282
v 7.651645 12.010906 -18.435827
v 0.000002 15.087070 -3.953945
v 1.384409 15.087070 -3.953945
v 0.000002 15.087088 -0.646584
v 1.384436 15.087088 -0.646584
v -1.384406 15.087070 -3.953945
v -1.384433 15.087088 -0.646584
v 1.484424 14.015977 -0.546608
v 0.000002 14.015977 -0.546600
v -1.484420 14.015977 -0.546608
v 2.982340 22.010895 -6.272270
v 1.804088 22.010910 -5.341616
v 1.804066 22.010899 -6.615561
v 3.233653 22.010895 -6.040949
v 3.380194 22.010872 -5.687788
v 3.380195 22.010893 -3.296326
v 1.256017 22.010916 -2.942947
v 3.233653 22.010895 -2.943123
v 1.482443 22.010895 -1.387360
v 1.128902 22.010895 -1.241135
v 0.000002 22.010895 -1.240997
v 0.000002 22.010918 -2.942886
v -1.256014 22.010916 -2.942947
v -1.128899 22.010895 -1.241135
v -1.482440 22.010895 -1.387360
v -3.233650 22.010895 -2.943123
v -3.380192 22.010893 -3.296326
v -1.804085 22.010910 -5.341616
v -3.380191 22.010872 -5.687788
v -3.233650 22.010895 -6.040949
v -2.982337 22.010895 -6.272270
v -1.804063 22.010899 -6.615561
v 0.000002 25.007042 -2.842941
v 1.821846 25.007036 -5.241615
v 1.265088 25.007036 -2.843040
v 1.202830 25.007036 -5.241621
v 0.694462 25.007036 -4.733200
v 0.000002 25.007036 -4.547167
v -0.694459 25.007036 -4.733200
v -1.202827 25.007036 -5.241621
v -1.821843 25.007036 -5.241615
v -1.265085 25.007036 -2.843040
v 2.017355 20.010895 -9.491224
v 2.836740 20.010895 -8.887590
v 2.017363 20.010895 -8.887472
v 2.476198 20.010895 -11.276522
v 1.845150 20.010895 -10.124716
v 1.328556 20.010895 -10.504812
v 0.613940 20.010895 -10.609972
v 0.613940 20.010895 -11.276442
v 2.982340 24.010925 -6.014105
v 1.590736 24.010918 -6.014080
v 2.280706 24.010925 -6.476688
v 2.280705 24.010925 -6.573038
v 1.590729 24.010925 -6.777910
v 2.276033 24.010931 -8.872618
v 1.590702 24.010929 -8.810125
v 1.454916 24.010929 -9.443621
v 2.116187 24.010931 -9.515608
v 1.868538 24.010931 -9.940317
v 1.047577 24.010929 -9.823717
v 1.539571 24.010931 -10.252131
v 1.102298 24.010931 -10.483557
v 0.429250 24.010931 -10.630472
v 0.368686 24.010929 -9.950411
v 0.000002 24.010931 -10.633085
v 0.000002 24.010929 -9.950411
v -0.368682 24.010929 -9.950411
v -0.429247 24.010931 -10.630472
v -1.047574 24.010929 -9.823717
v -1.102295 24.010931 -10.483557
v -1.539568 24.010931 -10.252131
v -1.868535 24.010931 -9.940317
v -1.454913 24.010929 -9.443621
v -2.116184 24.010931 -9.515608
v -2.276030 24.010931 -8.872618
v -1.590699 24.010929 -8.810125
v -1.590726 24.010925 -6.777910
v -2.280702 24.010925 -6.573038
v -1.590733 24.010918 -6.014080
v -2.280704 24.010925 -6.476688
v -2.982337 24.010925 -6.014105
v 6.047887 7.995189 -14.638292
v 3.963058 7.995189 -14.638292
v 6.047887 7.995190 -15.893290
v 3.963058 7.995191 -17.148294
v 6.047887 7.995191 -17.148294
v 2.877392 7.995214 -11.690619
v 6.899351 7.995204 -11.790741
v 6.899351 7.995204 -11.690611
v 2.877392 7.995214 -14.552965
v 0.000002 7.995228 -11.690630
v 8.155159 7.995200 -11.790672
v 6.147889 7.995200 -14.553034
v 2.877381 7.995224 -17.233568
v 8.980537 7.995202 -17.133543
v 9.796583 7.995202 -17.133543
v 6.147889 7.995201 -15.893290
v 6.147874 7.995202 -17.233541
v 8.980537 7.995202 -19.518454
v 6.147865 7.995203 -19.518429
v 2.877398 7.995222 -19.518381
v 0.000002 7.996441 -28.292841
v 2.877412 7.995220 -19.618416
v 2.877404 7.995224 -28.292841
v 6.147898 7.995481 -28.292864
v 6.147902 7.995409 -19.618444
v 2.877396 7.995228 -31.690561
v 1.438243 7.997689 -31.690559
v 0.340568 8.000081 -33.933163
v 0.000002 8.000081 -33.933163
v 0.340568 8.000081 -34.879955
v 1.438264 7.995409 -35.000401
v 0.000002 7.995423 -35.000404
v 0.000002 8.000081 -34.879955
v -0.340565 8.000081 -34.879955
v -1.438260 7.995409 -35.000401
v -1.438239 7.997689 -31.690559
v -0.340565 8.000081 -33.933163
v -2.877393 7.995228 -31.690561
v -2.877401 7.995224 -28.292841
v -2.877409 7.995220 -19.618416
v -6.147895 7.995481 -28.292864
v -6.147899 7.995409 -19.618444
v -2.877395 7.995222 -19.518381
v -2.877378 7.995224 -17.233568
v -2.877389 7.995214 -14.552965
v -6.147871 7.995202 -17.233541
v -6.147862 7.995203 -19.518429
v -8.980534 7.995202 -19.518454
v -8.980534 7.995202 -17.133543
v -6.147886 7.995201 -15.893290
v -6.147886 7.995200 -14.553034
v -2.877389 7.995214 -11.690619
v -8.155155 7.995200 -11.790672
v -9.796579 7.995202 -17.133543
v -6.899348 7.995204 -11.790741
v -6.899348 7.995204 -11.690611
v 6.147901 2.923734 -28.292892
v 7.833533 2.923740 -21.117809
v 6.147901 2.923734 -21.117870
v 7.833533 2.923739 -28.292978
v 8.309895 2.923738 -21.117775
v 8.309927 2.923739 -28.294809
v 8.991918 2.923738 -21.799877
v 8.821464 2.923738 -21.288368
v 8.991851 2.923739 -27.612890
v 8.821472 2.923739 -28.124277
v 2.876712 6.000073 -33.416451
v 0.340569 6.000073 -34.879959
v 2.876712 6.000073 -34.879959
v 0.340568 6.000073 -33.933167
v 0.000002 6.000073 -33.416451
v 0.000002 6.000073 -33.933167
v -0.340565 6.000073 -33.933167
v -2.876709 6.000073 -33.416451
v -0.340565 6.000073 -34.879959
v -2.876709 6.000073 -34.879959
v 0.000002 4.000073 -33.416451
v 2.876713 4.000074 -34.879963
v 2.876713 4.000073 -33.416451
v 0.000002 4.000074 -34.879963
v -2.876710 4.000074 -34.879963
v -2.876710 4.000073 -33.416451
v 17.049068 2.923740 -12.198338
v 17.219584 2.923739 -18.522770
v 17.219584 2.923741 -12.709885
v 16.537519 2.923738 -19.204834
v 17.049068 2.923738 -19.034317
v 16.537519 2.923740 -12.027821
v 14.852617 2.923740 -12.027821
v 13.110397 2.923738 -19.204834
v 8.347500 2.923739 -12.027981
v 8.347500 2.923738 -19.204830
v -3.594402 23.882391 -5.634378
v -5.060046 23.882397 -5.102951
v -4.849013 23.882397 -5.680771
v -4.070852 23.882391 -4.329828
v -4.024092 23.882391 -4.166363
v -4.134032 23.882391 -4.252289
v -3.453300 23.882391 -5.729229
v -3.592738 23.882391 -5.734385
v -3.453294 23.882391 -3.680561
v -3.833819 23.882387 -3.680584
v -4.024084 23.882387 -3.871281
v -5.381190 7.847586 6.490002
v -3.947042 7.847597 6.489990
v -4.762990 7.847551 4.895119
v -4.824694 7.847507 3.791870
v -6.147898 6.923769 -3.925667
v -6.047898 6.923775 -3.273949
v -6.147898 6.923768 -3.273911
v -6.047898 6.923774 -3.925667
v -8.374973 2.923738 -3.015484
v -6.147898 2.923734 -10.190626
v -6.147898 2.923734 -3.015474
v -8.833554 2.923739 -10.190626
v -9.309920 2.923738 -3.015423
v -9.309953 2.923739 -10.192457
v -9.821489 2.923738 -3.186016
v -9.991877 2.923739 -9.510538
v -9.991943 2.923738 -3.697525
v -9.821498 2.923739 -10.021925
v -4.896340 10.000192 3.586014
v -2.877241 10.000203 -3.015402
v -2.876878 10.000192 3.586044
v -6.054234 10.000192 -3.070560
v -2.877382 10.000217 -11.690668
v -6.064442 10.000192 -8.230844
v -6.047898 10.000192 -14.552984
v -2.877382 10.000217 -14.552984
v -6.731732 10.000192 -8.032396
v -6.731732 10.000192 -3.269157
v -6.801192 10.000192 -3.374378
v -6.801192 10.000192 -7.927172
v -6.047898 10.000192 -17.233694
v -2.877382 10.000217 -17.233690
v -4.640299 10.000200 -19.996326
v -6.047945 10.000195 -19.996330
v -2.877383 10.000175 -27.550396
v -4.640298 10.000117 -28.392797
v -2.993787 10.000133 -28.392847
v -2.877383 10.000134 -28.392851
v -5.136783 10.000120 -34.225899
v -6.147900 10.000038 -31.309401
v -6.147900 10.000035 -28.392847
v -6.147900 10.000040 -34.225918
v -2.993790 10.000155 -34.226051
v -5.136756 10.000109 -35.000324
v -2.877390 10.000158 -34.226051
v -1.438344 10.000000 -35.000397
v -1.438368 10.000000 -31.690561
v -2.877383 10.000106 -31.690540
v -2.836737 20.010895 -8.887590
v -2.017352 20.010895 -9.491224
v -2.017360 20.010895 -8.887472
v -2.476195 20.010895 -11.276522
v -1.845146 20.010895 -10.124716
v -1.328553 20.010895 -10.504812
v -0.613937 20.010895 -10.609972
v -0.613937 20.010895 -11.276442
v -6.047884 7.995189 -14.638292
v -6.047884 7.995190 -15.893290
v -3.963055 7.995189 -14.638292
v -3.963055 7.995191 -17.148294
v -6.047884 7.995191 -17.148294
v -7.833534 2.923740 -21.117809
v -6.147898 2.923734 -28.292892
v -6.147898 2.923734 -21.117870
v -7.833534 2.923739 -28.292978
v -8.309896 2.923738 -21.117775
v -8.309928 2.923739 -28.294809
v -8.991919 2.923738 -21.799877
v -8.821465 2.923738 -21.288368
v -8.991852 2.923739 -27.612890
v -8.821473 2.923739 -28.124277
v -16.537516 2.923737 -19.204834
v -17.219580 2.923738 -18.522770
v -17.049065 2.923737 -19.034317
v -17.049065 2.923740 -12.198338
v -17.219580 2.923740 -12.709885
v -16.537516 2.923740 -12.027821
v -14.852613 2.923740 -12.027821
v -13.110394 2.923737 -19.204834
v -8.347500 2.923738 -12.027981
v -8.347500 2.923737 -19.204830
v 3.233653 18.010889 -2.943127
v 1.482443 18.010889 -1.387360
v 1.469144 18.010889 -4.328001
v 1.128902 18.010889 -1.241135
v 0.517120 18.010889 -4.201275
v 2.040354 18.010887 -4.708115
v 3.380195 18.010887 -3.296328
v 3.380193 18.010881 -5.687857
v 2.230750 18.010887 -5.341616
v 2.775705 18.010880 -9.251932
v 0.000002 18.010889 -1.240997
v 0.000002 18.010889 -4.201258
v -0.517117 18.010889 -4.201275
v -1.128899 18.010889 -1.241135
v 2.230681 18.010876 -9.831774
v 2.877031 18.010878 -9.251974
v 2.877039 18.010874 -11.136606
v 2.040267 18.010876 -10.465265
v 2.738541 18.010874 -11.552107
v 1.469045 18.010874 -10.845362
v 2.323041 18.010874 -11.690603
v 0.517017 18.010874 -10.972059
v -1.469141 18.010889 -4.328001
v -1.482440 18.010889 -1.387360
v -3.233650 18.010889 -2.943127
v 0.000002 18.010874 -11.690397
v 0.000002 18.010874 -10.972059
v -0.517014 18.010874 -10.972059
v -2.323039 18.010874 -11.690603
v -1.469042 18.010874 -10.845362
v -2.738538 18.010874 -11.552107
v -2.040264 18.010876 -10.465265
v -2.877036 18.010874 -11.136606
v -2.040351 18.010887 -4.708115
v -3.380192 18.010887 -3.296328
v -3.380190 18.010881 -5.687857
v -2.230747 18.010887 -5.341616
v -2.775702 18.010880 -9.251932
v -2.230679 18.010876 -9.831774
v -2.877028 18.010878 -9.251974
v 8.257224 4.000007 22.459602
v 0.000002 4.000007 24.672119
v 7.403224 4.000007 20.397865
v 8.548509 4.000007 24.672119
v 6.044708 4.000008 18.627415
v 8.257223 4.000006 26.884644
v 4.274255 4.000008 17.268898
v 7.403223 4.000006 28.946381
v 2.212518 4.000008 16.414898
v 6.044705 4.000006 30.716827
v 0.000002 4.000008 16.123611
v 4.274250 4.000005 32.075348
v -2.212515 4.000008 16.414898
v 2.212513 4.000005 32.929344
v -4.274252 4.000008 17.268898
v 0.000002 4.000005 33.220627
v -6.044705 4.000008 18.627415
v -2.212511 4.000005 32.929344
v -7.403222 4.000007 20.397865
v -4.274247 4.000005 32.075348
v -8.257220 4.000007 22.459602
v -6.044703 4.000006 30.716827
v -8.548505 4.000007 24.672119
v -7.403220 4.000006 28.946381
v -8.257219 4.000006 26.884644
v 12.829778 2.923801 16.082752
v 12.164099 2.923802 13.166203
v 14.029304 2.923799 15.505131
v 14.859399 2.923804 14.464176
v 15.155644 2.923804 13.166176
v 14.859372 2.923802 11.868176
v 14.029309 2.923805 10.827312
v 12.829778 2.923805 10.249687
v 11.498420 2.923801 16.082752
v 12.164099 2.923802 13.166203
v 11.498419 2.923805 10.249687
v 10.298894 2.923799 15.505131
v 10.298888 2.923805 10.827312
v 9.468799 2.923804 14.464176
v 9.468824 2.923802 11.868176
v 9.172553 2.923804 13.166176
v -12.829778 2.923801 16.082752
v -14.029304 2.923799 15.505131
v -12.164099 2.923802 13.166203
v -14.859399 2.923804 14.464176
v -15.155644 2.923804 13.166176
v -14.859372 2.923802 11.868176
v -14.029309 2.923805 10.827312
v -12.829778 2.923805 10.249687
v -11.498420 2.923801 16.082752
v -12.164099 2.923802 13.166203
v -11.498419 2.923805 10.249687
v -10.298894 2.923799 15.505131
v -10.298888 2.923805 10.827312
v -9.468799 2.923804 14.464176
v -9.468824 2.923802 11.868176
v -9.172553 2.923804 13.166176
vn -0.0000 1.0000 -0.0000
vn -0.0009 1.0000 -0.0002
vn -0.0001 1.0000 -0.0000
vn 0.0001 1.0000 -0.0000
vn 0.0009 1.0000 -0.0002
vn -0.0001 1.0000 -0.0001
vn 0.0001 1.0000 0.0001
vn -0.0001 1.0000 0.0001
vn -0.0000 1.0000 0.0002
vn 0.0003 1.0000 -0.0000
vn 0.0011 1.0000 0.0006
vn 0.0014 1.0000 0.0007
vn 0.0013 1.0000 0.0003
vn -0.0000 1.0000 0.0006
vn 0.0014 0.9997 -0.0251
vn 0.0039 1.0000 -0.0033
vn -0.0000 0.9993 -0.0387
vn -0.0000 0.9993 -0.0386
vn -0.0014 0.9997 -0.0251
vn -0.0039 1.0000 -0.0033
vn -0.0014 1.0000 0.0007
vn -0.0013 1.0000 0.0003
vn -0.0011 1.0000 0.0006
vn -0.0003 1.0000 -0.0000
vn 0.0001 1.0000 -0.0001
vn -0.7818 -0.0000 0.6235
vn -0.2224 -0.0000 -0.9749
vn -0.0000 -1.0000 -0.0000
vn -0.2224 -0.0000 0.9749
vn -0.7818 -0.0000 -0.6235
vn 0.2224 -0.0000 -0.9749
vn 0.7818 -0.0000 0.6235
vn 0.2224 -0.0000 0.9749
vt 0.543587 3.461980
vt 0.540241 3.469597
vt 0.543587 3.454166
vt 0.540241 3.446549
vt 0.533632 3.476485
vt 0.533632 3.439662
vt 0.524173 3.481982
vt 0.524173 3.434165
vt 0.512634 3.485518
vt 0.512634 3.430629
vt 0.500002 3.486737
vt 0.500002 3.429410
vt 0.487371 3.430629
vt 0.487371 3.485518
vt 0.475831 3.434165
vt 0.475831 3.481982
vt 0.466373 3.439662
vt 0.466373 3.476485
vt 0.459764 3.446549
vt 0.459764 3.469597
vt 0.456418 3.454166
vt 0.456418 3.461980
vt 0.573235 3.661097
vt 0.554287 3.660390
vt 0.576422 3.652291
vt 0.561482 3.640509
vt 0.560776 3.638018
vt 0.562437 3.639328
vt 0.552156 3.661836
vt 0.554262 3.661914
vt 0.552156 3.630615
vt 0.557903 3.630615
vt 0.560776 3.633521
vt 0.405829 3.450379
vt 0.428069 3.499926
vt 0.440392 3.475621
vt 0.427137 3.505762
vt 0.387084 3.505760
vt 0.385472 3.505763
vt 0.553816 3.424394
vt 0.568030 3.506619
vt 0.535871 3.395947
vt 0.500002 3.506619
vt 0.500002 3.395947
vt 0.464134 3.395947
vt 0.431975 3.506619
vt 0.446189 3.424394
vt 0.591341 3.596251
vt 0.591341 3.586319
vt 0.592851 3.596251
vt 0.592851 3.586318
vt 0.592851 3.620479
vt 0.656691 3.620480
vt 0.592851 3.729825
vt 0.663616 3.729825
vt 0.670811 3.620479
vt 0.670811 3.729853
vt 0.678537 3.623078
vt 0.681110 3.719461
vt 0.681111 3.630873
vt 0.678537 3.727254
vt 0.543450 3.519876
vt 0.573949 3.519876
vt 0.543456 3.620478
vt 0.591437 3.621319
vt 0.543458 3.752685
vt 0.591591 3.699959
vt 0.591341 3.796305
vt 0.543458 3.796305
vt 0.601669 3.696935
vt 0.601668 3.624345
vt 0.602718 3.625949
vt 0.602718 3.695331
vt 0.591341 3.837158
vt 0.543458 3.837158
vt 0.570083 3.879259
vt 0.591342 3.879259
vt 0.543458 3.994379
vt 0.570083 4.007216
vt 0.545216 4.007217
vt 0.543458 4.007217
vt 0.570083 4.096110
vt 0.588631 4.051664
vt 0.598685 4.007217
vt 0.598685 4.096110
vt 0.545217 4.096112
vt 0.570082 4.107912
vt 0.543459 4.096112
vt 0.521725 4.107913
vt 0.521726 4.057473
vt 0.543458 4.057473
vt 0.571682 3.588550
vt 0.553687 3.588550
vt 0.571682 3.577347
vt 0.523064 3.550790
vt 0.571682 3.575934
vt 0.518496 3.560361
vt 0.523064 3.540168
vt 0.522421 3.582855
vt 0.510266 3.566984
vt 0.553687 3.602733
vt 0.576672 3.535701
vt 0.575952 3.575934
vt 0.518496 3.530597
vt 0.580581 3.572768
vt 0.581660 3.564527
vt 0.582370 3.568628
vt 0.557129 3.423122
vt 0.510266 3.523974
vt 0.538175 3.392544
vt 0.500002 3.392544
vt 0.500002 3.521610
vt 0.489739 3.523974
vt 0.461829 3.392544
vt 0.442876 3.423123
vt 0.481509 3.530597
vt 0.423333 3.535701
vt 0.476941 3.540168
vt 0.428322 3.575934
vt 0.476941 3.550790
vt 0.424053 3.575934
vt 0.419424 3.572768
vt 0.418344 3.564528
vt 0.417635 3.568628
vt 0.428323 3.577347
vt 0.446318 3.588550
vt 0.428323 3.588550
vt 0.481509 3.560361
vt 0.477584 3.582855
vt 0.489739 3.566984
vt 0.446318 3.602733
vt 0.500002 3.582855
vt 0.500002 3.569348
vt 0.477584 3.634781
vt 0.464890 3.634781
vt 0.458637 3.636884
vt 0.421771 3.616043
vt 0.456553 3.643194
vt 0.421771 3.614519
vt 0.421772 3.602733
vt 0.411373 3.660490
vt 0.401319 3.616043
vt 0.383203 3.624846
vt 0.370667 3.640710
vt 0.366193 3.660491
vt 0.370667 3.680271
vt 0.383203 3.696134
vt 0.401319 3.704936
vt 0.423370 3.704935
vt 0.456552 3.715521
vt 0.423370 3.754210
vt 0.456552 3.744241
vt 0.456546 3.752684
vt 0.458644 3.750573
vt 0.464919 3.752684
vt 0.423942 3.793461
vt 0.413415 3.793461
vt 0.433427 3.798070
vt 0.439991 3.806376
vt 0.442333 3.816732
vt 0.456547 3.903553
vt 0.439991 3.827088
vt 0.433427 3.835393
vt 0.394192 3.754210
vt 0.423943 3.840003
vt 0.384443 3.777991
vt 0.384446 3.764062
vt 0.394205 3.787844
vt 0.429922 3.879259
vt 0.429922 3.903553
vt 0.413415 3.840001
vt 0.394192 3.879259
vt 0.384446 3.869407
vt 0.394205 3.845625
vt 0.384444 3.855478
vt 0.578233 3.614519
vt 0.578233 3.602733
vt 0.578233 3.616043
vt 0.541367 3.636884
vt 0.535115 3.634781
vt 0.522420 3.634781
vt 0.543452 3.643194
vt 0.588632 3.660490
vt 0.598685 3.616043
vt 0.616801 3.624846
vt 0.629338 3.640710
vt 0.633812 3.660491
vt 0.629337 3.680271
vt 0.616801 3.696134
vt 0.598686 3.704936
vt 0.576635 3.704935
vt 0.543453 3.715521
vt 0.576635 3.754210
vt 0.543453 3.744241
vt 0.543458 3.752684
vt 0.541361 3.750573
vt 0.535086 3.752684
vt 0.576063 3.793461
vt 0.566578 3.798070
vt 0.560014 3.806376
vt 0.557672 3.816732
vt 0.586590 3.793461
vt 0.543458 3.903553
vt 0.560014 3.827088
vt 0.566578 3.835393
vt 0.605813 3.754210
vt 0.576063 3.840003
vt 0.615562 3.777991
vt 0.605800 3.787844
vt 0.615559 3.764061
vt 0.570083 3.903553
vt 0.586590 3.840001
vt 0.605813 3.879259
vt 0.615559 3.869407
vt 0.605800 3.845624
vt 0.615562 3.855478
vt 0.520911 3.626230
vt 0.520910 3.634781
vt 0.500002 3.634781
vt 0.500002 3.584379
vt 0.520911 3.613406
vt 0.520911 3.584379
vt 0.479094 3.626230
vt 0.479094 3.634781
vt 0.479094 3.613406
vt 0.479094 3.584379
vt 0.522437 3.558606
vt 0.520749 3.562175
vt 0.511516 3.569604
vt 0.500002 3.572256
vt 0.488489 3.569604
vt 0.479256 3.562175
vt 0.477568 3.558606
vt 0.527248 3.675343
vt 0.527249 3.655929
vt 0.545043 3.670111
vt 0.548839 3.666586
vt 0.551052 3.661204
vt 0.551052 3.624759
vt 0.518971 3.619374
vt 0.548839 3.619377
vt 0.522391 3.595668
vt 0.517052 3.593439
vt 0.500002 3.593437
vt 0.500002 3.619373
vt 0.481033 3.619374
vt 0.482953 3.593439
vt 0.477614 3.595668
vt 0.451166 3.619377
vt 0.448953 3.624759
vt 0.472756 3.655929
vt 0.448953 3.661204
vt 0.451166 3.666586
vt 0.454962 3.670111
vt 0.472757 3.675343
vt 0.519108 3.617851
vt 0.527517 3.654405
vt 0.500002 3.617850
vt 0.518168 3.654405
vt 0.510490 3.646657
vt 0.500002 3.643821
vt 0.489514 3.646657
vt 0.481837 3.654405
vt 0.472488 3.654405
vt 0.480896 3.617851
vt 0.530470 3.709965
vt 0.542844 3.709967
vt 0.530470 3.719167
vt 0.537399 3.746373
vt 0.527869 3.728821
vt 0.520067 3.734613
vt 0.509274 3.736216
vt 0.509274 3.746372
vt 0.535961 3.672781
vt 0.545043 3.666177
vt 0.524027 3.666177
vt 0.534447 3.673226
vt 0.534447 3.674695
vt 0.524026 3.677817
vt 0.534376 3.709739
vt 0.524026 3.708787
vt 0.521975 3.718441
vt 0.531962 3.719538
vt 0.528222 3.726010
vt 0.515823 3.724233
vt 0.523254 3.730762
vt 0.516650 3.734289
vt 0.506485 3.736528
vt 0.505571 3.726164
vt 0.500002 3.736568
vt 0.500002 3.726164
vt 0.494434 3.726164
vt 0.493520 3.736528
vt 0.484181 3.724233
vt 0.483355 3.734289
vt 0.476751 3.730762
vt 0.471783 3.726010
vt 0.478030 3.718441
vt 0.468043 3.719538
vt 0.465629 3.709739
vt 0.475979 3.708787
vt 0.475978 3.677817
vt 0.465558 3.674695
vt 0.475978 3.666177
vt 0.465558 3.673227
vt 0.464044 3.672781
vt 0.454962 3.666177
vt 0.591341 3.816730
vt 0.559855 3.797605
vt 0.591341 3.797605
vt 0.559855 3.835856
vt 0.591341 3.835856
vt 0.604200 3.752684
vt 0.604200 3.754210
vt 0.500002 3.752684
vt 0.623166 3.754209
vt 0.592851 3.796306
vt 0.543458 3.837156
vt 0.635631 3.835631
vt 0.647956 3.835631
vt 0.592851 3.816730
vt 0.592851 3.837155
vt 0.635631 3.871976
vt 0.592851 3.871976
vt 0.543458 3.871975
vt 0.500003 4.005693
vt 0.543459 3.873500
vt 0.543459 4.005693
vt 0.592851 4.005693
vt 0.592851 3.873500
vt 0.543459 4.057473
vt 0.521724 4.057473
vt 0.505146 4.091649
vt 0.500003 4.091649
vt 0.505146 4.106078
vt 0.521724 4.107913
vt 0.500003 4.107913
vt 0.500003 4.106078
vt 0.494859 4.106078
vt 0.478281 4.107913
vt 0.478282 4.057473
vt 0.494859 4.091649
vt 0.456547 4.057473
vt 0.456547 4.005693
vt 0.456546 3.873500
vt 0.407154 4.005694
vt 0.407154 3.873500
vt 0.456547 3.871975
vt 0.456547 3.837156
vt 0.456547 3.796305
vt 0.407154 3.837155
vt 0.407154 3.871976
vt 0.364374 3.871976
vt 0.364374 3.835631
vt 0.407154 3.816731
vt 0.407154 3.796306
vt 0.456547 3.752684
vt 0.376839 3.754209
vt 0.352050 3.835631
vt 0.395805 3.754210
vt 0.395805 3.752684
vt 0.592851 3.896351
vt 0.663617 3.896350
vt 0.592851 4.005694
vt 0.663617 4.005695
vt 0.670811 3.896349
vt 0.670811 4.005723
vt 0.681111 3.906744
vt 0.678537 3.898949
vt 0.681110 3.995331
vt 0.678537 4.003124
vt 0.543448 4.106078
vt 0.543448 4.083775
vt 0.500003 4.083775
vt 0.456557 4.083775
vt 0.456557 4.106078
vt 0.760061 3.768217
vt 0.760062 3.856802
vt 0.757486 3.760422
vt 0.749761 3.867197
vt 0.757486 3.864598
vt 0.749761 3.757823
vt 0.724314 3.757823
vt 0.698002 3.867197
vt 0.671378 3.757825
vt 0.671378 3.867197
vt 0.426770 3.661097
vt 0.423583 3.652292
vt 0.445718 3.660390
vt 0.438522 3.640509
vt 0.439228 3.638018
vt 0.437568 3.639328
vt 0.447849 3.661836
vt 0.445743 3.661914
vt 0.447849 3.630615
vt 0.442102 3.630615
vt 0.439229 3.633521
vt 0.407154 3.586318
vt 0.408664 3.586319
vt 0.407154 3.596251
vt 0.408664 3.596251
vt 0.407154 3.620479
vt 0.407154 3.729825
vt 0.343314 3.620480
vt 0.336389 3.729825
vt 0.329194 3.620479
vt 0.329194 3.729853
vt 0.321468 3.623078
vt 0.318895 3.719461
vt 0.318894 3.630873
vt 0.321468 3.727254
vt 0.456554 3.519876
vt 0.456549 3.620478
vt 0.426055 3.519876
vt 0.408568 3.621319
vt 0.456547 3.752685
vt 0.408414 3.699959
vt 0.408664 3.796305
vt 0.398336 3.696935
vt 0.398336 3.624345
vt 0.397287 3.625949
vt 0.397287 3.695331
vt 0.408664 3.837158
vt 0.456547 3.837158
vt 0.408663 3.879259
vt 0.456547 3.994379
vt 0.429922 4.007216
vt 0.454789 4.007217
vt 0.456547 4.007217
vt 0.429923 4.096110
vt 0.411374 4.051664
vt 0.401321 4.007217
vt 0.401321 4.096110
vt 0.454789 4.096112
vt 0.429923 4.107912
vt 0.456547 4.096112
vt 0.478280 4.107913
vt 0.478280 4.057473
vt 0.469535 3.709965
vt 0.469535 3.719167
vt 0.457161 3.709967
vt 0.462606 3.746373
vt 0.472136 3.728821
vt 0.479938 3.734613
vt 0.490730 3.736216
vt 0.490730 3.746372
vt 0.440150 3.797605
vt 0.408664 3.816731
vt 0.408664 3.797605
vt 0.440150 3.835856
vt 0.408664 3.835856
vt 0.407154 3.896351
vt 0.336389 3.896350
vt 0.336389 4.005695
vt 0.329194 3.896349
vt 0.329194 4.005723
vt 0.318894 3.906744
vt 0.321468 3.898949
vt 0.318895 3.995331
vt 0.321468 4.003125
vt 0.242519 3.864598
vt 0.239944 3.856803
vt 0.250244 3.867197
vt 0.242519 3.760422
vt 0.239944 3.768217
vt 0.250244 3.757823
vt 0.275691 3.757823
vt 0.302003 3.867197
vt 0.328627 3.757825
vt 0.328627 3.867197
vt 0.522190 3.640481
vt 0.507812 3.638550
vt 0.530817 3.646274
vt 0.551052 3.661205
vt 0.533692 3.655929
vt 0.541923 3.715520
vt 0.500002 3.638550
vt 0.492193 3.638550
vt 0.533691 3.724356
vt 0.543453 3.715520
vt 0.530816 3.734010
vt 0.522189 3.739803
vt 0.507811 3.741734
vt 0.477815 3.640481
vt 0.500002 3.752681
vt 0.500002 3.741734
vt 0.492194 3.741734
vt 0.477816 3.739803
vt 0.469189 3.734010
vt 0.469188 3.646274
vt 0.448953 3.661205
vt 0.466312 3.655929
vt 0.458082 3.715520
vt 0.466314 3.724356
vt 0.456552 3.715520
vt 0.611809 3.263672
vt 0.500002 3.198535
vt 0.624707 3.232252
vt 0.629106 3.198535
vt 0.591292 3.290653
vt 0.624707 3.164817
vt 0.564554 3.311356
vt 0.611809 3.133397
vt 0.533417 3.324370
vt 0.591292 3.106416
vt 0.500002 3.328809
vt 0.564554 3.085713
vt 0.466588 3.324370
vt 0.533416 3.072699
vt 0.435450 3.311356
vt 0.500002 3.068260
vt 0.408712 3.290653
vt 0.466587 3.072699
vt 0.388195 3.263672
vt 0.435450 3.085713
vt 0.375297 3.232252
vt 0.408712 3.106416
vt 0.370898 3.198535
vt 0.388195 3.133397
vt 0.375297 3.164817
vt 0.742085 3.475390
vt 0.713916 3.511034
vt 0.723969 3.466588
vt 0.754622 3.491254
vt 0.759096 3.511035
vt 0.754621 3.530816
vt 0.742085 3.546678
vt 0.723969 3.555481
vt 0.703862 3.466588
vt 0.703862 3.555481
vt 0.685747 3.475390
vt 0.685747 3.546678
vt 0.673210 3.491254
vt 0.673210 3.530816
vt 0.668736 3.511035
vt 0.286089 3.511035
vt 0.257919 3.475391
vt 0.276035 3.466588
vt 0.245383 3.491254
vt 0.240909 3.511035
vt 0.245383 3.530816
vt 0.257919 3.546678
vt 0.276035 3.555481
vt 0.296142 3.466588
vt 0.296142 3.555481
vt 0.314258 3.475390
vt 0.314258 3.546678
vt 0.326795 3.491254
vt 0.326794 3.530816
vt 0.331269 3.511035
s 1
g Montana_deckhouse_A1_001_5_Iowa_Deckhouse_A1_001_4.003_steel_deck_1
usemtl steel_deck_1
f 22/1/1 21/2/1 20/3/1
f 23/4/1 20/3/1 21/2/1
f 21/2/1 24/5/1 23/4/1
f 25/6/1 23/4/1 24/5/1
f 24/5/1 26/7/1 25/6/1
f 27/8/1 25/6/1 26/7/1
f 26/7/1 28/9/1 27/8/1
f 29/10/1 27/8/1 28/9/1
f 28/9/1 30/11/1 29/10/1
f 31/12/1 29/10/1 30/11/1
f 31/12/1 30/11/1 32/13/1
f 33/14/1 32/13/1 30/11/1
f 32/13/1 33/14/1 34/15/1
f 35/16/1 34/15/1 33/14/1
f 34/15/1 35/16/1 36/17/1
f 37/18/1 36/17/1 35/16/1
f 36/17/1 37/18/1 38/19/1
f 39/20/1 38/19/1 37/18/1
f 38/19/1 39/20/1 40/21/1
f 41/22/1 40/21/1 39/20/1
f 44/23/1 43/24/1 42/25/1
f 45/26/1 42/25/1 43/24/1
f 45/26/1 43/24/1 46/27/1
f 47/28/1 45/26/1 46/27/1
f 48/29/1 46/27/1 43/24/1
f 48/29/1 43/24/1 49/30/1
f 50/31/1 46/27/1 48/29/1
f 50/31/1 51/32/1 46/27/1
f 52/33/1 46/27/1 51/32/1
f 54/34/1 2/35/1 53/36/1
f 1/37/1 2/35/1 56/38/1
f 54/34/1 56/38/1 2/35/1
f 56/38/1 54/34/1 55/39/1
f 59/40/2 58/41/3 57/42/3
f 60/43/1 57/42/3 58/41/3
f 57/42/3 60/43/1 61/44/1
f 60/43/1 62/45/4 61/44/1
f 60/43/1 63/46/4 62/45/4
f 64/47/5 62/45/4 63/46/4
f 67/48/4 66/49/4 65/50/4
f 68/51/4 65/50/4 66/49/4
f 71/52/1 70/53/1 69/54/1
f 72/55/1 69/54/1 70/53/1
f 70/53/1 73/56/1 72/55/1
f 74/57/1 72/55/1 73/56/1
f 74/57/1 73/56/1 75/58/1
f 76/59/1 74/57/1 75/58/1
f 77/60/1 76/59/1 75/58/1
f 78/61/1 74/57/1 76/59/1
f 81/62/1 80/63/1 79/64/1
f 82/65/1 79/64/1 80/63/1
f 79/64/1 82/65/1 83/66/1
f 84/67/1 83/66/1 82/65/1
f 84/67/1 85/68/1 83/66/1
f 86/69/1 83/66/1 85/68/1
f 84/67/1 82/65/1 87/70/1
f 88/71/1 87/70/1 82/65/1
f 88/71/1 89/72/1 87/70/1
f 90/73/1 87/70/1 89/72/1
f 85/68/1 91/74/1 86/69/1
f 92/75/1 86/69/1 91/74/1
f 92/75/1 91/74/1 93/76/1
f 94/77/1 93/76/1 91/74/1
f 92/75/1 93/76/1 95/78/1
f 96/79/1 95/78/1 93/76/1
f 96/79/1 97/80/1 95/78/1
f 95/78/1 97/80/1 98/81/1
f 96/79/1 99/82/1 97/80/1
f 99/82/1 96/79/1 100/83/4
f 96/79/1 101/84/4 100/83/4
f 102/85/4 99/82/1 100/83/4
f 103/86/1 97/80/1 99/82/1
f 104/87/1 103/86/1 99/82/1
f 103/86/1 104/87/1 105/88/6
f 106/89/3 105/88/6 104/87/1
f 106/89/3 107/90/3 105/88/6
f 108/91/3 105/88/6 107/90/3
f 111/92/1 110/93/1 109/94/1
f 109/94/1 110/93/1 112/95/1
f 109/94/1 112/95/1 113/96/1
f 114/97/1 112/95/1 110/93/1
f 112/95/1 115/98/1 113/96/1
f 110/93/1 116/99/1 114/97/1
f 117/100/1 114/97/1 116/99/1
f 110/93/1 118/101/1 116/99/1
f 115/98/1 119/102/1 113/96/1
f 113/96/1 119/102/1 120/103/1
f 115/98/1 121/104/1 119/102/1
f 120/103/1 119/102/1 122/105/1
f 122/105/1 119/102/1 123/106/1
f 124/107/1 122/105/1 123/106/1
f 125/108/3 119/102/1 121/104/1
f 121/104/1 126/109/1 125/108/3
f 127/110/1 125/108/3 126/109/1
f 127/110/1 126/109/1 128/111/1
f 129/112/1 128/111/1 126/109/1
f 129/112/1 130/113/1 128/111/1
f 131/114/1 128/111/1 130/113/1
f 131/114/1 130/113/1 132/115/4
f 133/116/1 132/115/4 130/113/1
f 132/115/4 133/116/1 134/117/1
f 135/118/1 134/117/1 133/116/1
f 134/117/1 135/118/1 136/119/1
f 135/118/1 137/120/1 136/119/1
f 136/119/1 138/121/1 134/117/1
f 138/121/1 139/122/1 134/117/1
f 134/117/1 139/122/1 140/123/1
f 139/122/1 141/124/1 140/123/1
f 137/120/1 142/125/1 136/119/1
f 142/125/1 137/120/1 143/126/1
f 143/126/1 144/127/1 142/125/1
f 145/128/1 143/126/1 137/120/1
f 143/126/1 145/128/1 146/129/1
f 147/130/1 146/129/1 145/128/1
f 143/126/1 146/129/1 148/131/1
f 146/129/1 147/130/1 149/132/1
f 150/133/1 149/132/1 147/130/1
f 150/133/1 117/100/1 149/132/1
f 116/99/1 149/132/1 117/100/1
f 151/134/1 148/131/1 146/129/1
f 148/131/1 151/134/1 152/135/1
f 152/135/1 153/136/1 148/131/1
f 148/131/1 153/136/1 154/137/1
f 153/136/1 155/138/1 154/137/1
f 156/139/1 148/131/1 154/137/1
f 148/131/1 156/139/1 157/140/1
f 155/138/1 158/141/1 154/137/1
f 159/142/1 154/137/1 158/141/1
f 158/141/1 160/143/1 159/142/1
f 158/141/1 161/144/1 160/143/1
f 158/141/1 162/145/1 161/144/1
f 158/141/1 163/146/1 162/145/1
f 158/141/1 164/147/1 163/146/1
f 158/141/1 165/148/1 164/147/1
f 166/149/1 165/148/1 158/141/1
f 158/141/1 155/138/1 166/149/1
f 167/150/1 166/149/1 155/138/1
f 166/149/1 167/150/1 168/151/1
f 169/152/1 168/151/1 167/150/1
f 170/153/1 168/151/1 169/152/1
f 170/153/1 169/152/1 171/154/7
f 170/153/1 171/154/7 172/155/7
f 168/151/1 170/153/1 173/156/1
f 173/156/1 174/157/1 168/151/1
f 175/158/1 173/156/1 170/153/1
f 170/153/1 176/159/1 175/158/1
f 170/153/1 177/160/1 176/159/1
f 170/153/1 178/161/1 177/160/1
f 178/161/1 179/162/1 177/160/1
f 178/161/1 180/163/1 179/162/1
f 181/164/1 168/151/1 174/157/1
f 180/163/1 178/161/1 182/165/1
f 181/164/1 174/157/1 183/166/1
f 184/167/1 181/164/1 183/166/1
f 174/157/1 185/168/1 183/166/1
f 186/169/1 182/165/1 178/161/1
f 178/161/1 187/170/1 186/169/1
f 182/165/1 186/169/1 188/171/1
f 189/172/1 188/171/1 186/169/1
f 188/171/1 189/172/1 190/173/1
f 191/174/1 188/171/1 190/173/1
f 192/175/1 191/174/1 190/173/1
f 194/176/1 118/101/1 193/177/1
f 118/101/1 194/176/1 195/178/1
f 196/179/1 118/101/1 195/178/1
f 196/179/1 197/180/1 118/101/1
f 198/181/1 118/101/1 197/180/1
f 198/181/1 116/99/1 118/101/1
f 199/182/1 196/179/1 195/178/1
f 200/183/1 199/182/1 195/178/1
f 195/178/1 201/184/1 200/183/1
f 202/185/1 200/183/1 201/184/1
f 203/186/1 200/183/1 202/185/1
f 204/187/1 200/183/1 203/186/1
f 205/188/1 200/183/1 204/187/1
f 206/189/1 200/183/1 205/188/1
f 207/190/1 200/183/1 206/189/1
f 207/190/1 208/191/1 200/183/1
f 200/183/1 208/191/1 199/182/1
f 209/192/1 199/182/1 208/191/1
f 208/191/1 210/193/1 209/192/1
f 211/194/1 209/192/1 210/193/1
f 210/193/1 212/195/1 211/194/1
f 211/194/1 212/195/1 213/196/8
f 213/196/8 212/195/1 214/197/8
f 210/193/1 215/198/1 212/195/1
f 216/199/1 212/195/1 215/198/1
f 217/200/1 212/195/1 216/199/1
f 218/201/1 212/195/1 217/200/1
f 215/198/1 210/193/1 219/202/1
f 220/203/1 212/195/1 218/201/1
f 221/204/1 220/203/1 218/201/1
f 222/205/1 220/203/1 221/204/1
f 223/206/1 219/202/1 210/193/1
f 222/205/1 224/207/1 220/203/1
f 219/202/1 223/206/1 225/208/1
f 226/209/1 219/202/1 225/208/1
f 223/206/1 227/210/1 225/208/1
f 228/76/1 220/203/1 224/207/1
f 229/211/1 220/203/1 228/76/1
f 224/207/1 230/212/1 228/76/1
f 231/213/1 228/76/1 230/212/1
f 231/213/1 230/212/1 232/214/1
f 230/212/1 233/215/1 232/214/1
f 233/215/1 234/216/1 232/214/1
f 4/217/1 236/218/1 235/219/1
f 235/219/1 237/220/1 4/217/1
f 3/221/1 4/217/1 237/220/1
f 238/222/1 3/221/1 237/220/1
f 235/219/1 19/223/1 237/220/1
f 239/224/1 19/223/1 235/219/1
f 18/225/1 237/220/1 19/223/1
f 18/225/1 240/226/1 237/220/1
f 5/227/1 241/99/1 6/228/1
f 7/229/1 6/228/1 241/99/1
f 7/229/1 241/99/1 8/230/1
f 242/132/1 8/230/1 241/99/1
f 242/132/1 243/129/1 8/230/1
f 9/231/1 8/230/1 243/129/1
f 10/232/1 9/231/1 243/129/1
f 243/129/1 11/233/1 10/232/1
f 246/234/1 245/235/1 244/236/1
f 244/236/1 245/235/1 247/237/1
f 247/237/1 245/235/1 248/238/1
f 248/238/1 245/235/1 249/239/1
f 245/235/1 250/240/1 249/239/1
f 251/241/1 249/239/1 250/240/1
f 251/241/1 250/240/1 252/242/1
f 252/242/1 250/240/1 253/243/1
f 253/243/1 250/240/1 254/244/1
f 255/245/1 254/244/1 250/240/1
f 255/245/1 256/246/1 254/244/1
f 257/247/1 254/244/1 256/246/1
f 256/246/1 258/248/1 257/247/1
f 256/246/1 259/249/1 258/248/1
f 259/249/1 256/246/1 260/250/1
f 261/251/1 260/250/1 256/246/1
f 261/251/1 262/252/1 260/250/1
f 261/251/1 263/253/1 262/252/1
f 261/251/1 264/254/1 263/253/1
f 261/251/1 265/255/1 264/254/1
f 268/256/1 267/257/1 266/258/1
f 267/257/1 269/259/1 266/258/1
f 269/259/1 270/260/1 266/258/1
f 270/260/1 271/261/1 266/258/1
f 271/261/1 272/262/1 266/258/1
f 272/262/1 273/263/1 266/258/1
f 273/263/1 274/264/1 266/258/1
f 274/264/1 275/265/1 266/258/1
f 278/266/1 277/267/1 276/268/1
f 279/269/1 276/268/1 277/267/1
f 276/268/1 279/269/1 280/270/1
f 280/270/1 279/269/1 281/271/1
f 281/271/1 279/269/1 282/272/1
f 283/273/1 282/272/1 279/269/1
f 13/274/1 284/275/1 12/236/1
f 284/275/1 13/274/1 285/276/1
f 286/277/1 285/276/1 13/274/1
f 286/277/1 287/278/1 285/276/1
f 288/279/1 285/276/1 287/278/1
f 287/278/1 289/280/1 288/279/1
f 290/281/1 288/279/1 289/280/1
f 290/281/1 289/280/1 291/282/1
f 292/283/1 291/282/1 289/280/1
f 292/283/1 293/284/1 291/282/1
f 291/282/1 293/284/1 294/285/1
f 295/286/1 294/285/1 293/284/1
f 295/286/1 296/287/1 294/285/1
f 296/287/1 297/288/1 294/285/1
f 298/289/1 294/285/1 297/288/1
f 297/288/1 299/290/1 298/289/1
f 300/291/1 298/289/1 299/290/1
f 300/291/1 299/290/1 301/292/1
f 302/293/1 301/292/1 299/290/1
f 301/292/1 302/293/1 303/294/1
f 304/295/1 303/294/1 302/293/1
f 304/295/1 305/296/1 303/294/1
f 305/296/1 306/297/1 303/294/1
f 307/298/1 303/294/1 306/297/1
f 306/297/1 308/299/1 307/298/1
f 308/299/1 309/300/1 307/298/1
f 310/301/1 307/298/1 309/300/1
f 310/301/1 309/300/1 311/302/1
f 312/303/1 311/302/1 309/300/1
f 311/302/1 312/303/1 313/304/1
f 314/305/1 313/304/1 312/303/1
f 314/305/1 15/306/1 313/304/1
f 315/307/1 313/304/1 15/306/1
f 315/307/1 15/306/1 14/254/1
f 318/308/1 317/309/1 316/310/1
f 319/311/1 317/309/1 318/308/1
f 320/312/1 319/311/1 318/308/1
f 323/313/1 322/314/1 321/195/1
f 324/69/1 321/195/1 322/314/1
f 324/69/1 325/315/1 321/195/1
f 324/69/1 322/314/1 326/316/1
f 324/69/1 326/316/1 327/317/1
f 325/315/1 324/69/1 328/318/1
f 326/316/1 329/319/1 327/317/1
f 330/320/1 329/319/1 326/316/1
f 331/321/1 327/317/1 329/319/1
f 331/321/1 329/319/1 332/322/1
f 329/319/1 333/323/1 332/322/1
f 334/324/1 332/322/1 333/323/1
f 334/324/1 335/325/4 332/322/1
f 328/318/1 332/322/1 335/325/4
f 328/318/1 335/325/4 325/315/1
f 325/315/1 335/325/4 336/326/9
f 335/325/4 337/327/10 336/326/9
f 337/327/10 338/328/10 336/326/9
f 338/328/10 337/327/10 339/329/3
f 340/330/3 339/329/3 337/327/10
f 338/328/10 341/331/11 336/326/9
f 342/332/12 336/326/9 341/331/11
f 342/332/12 343/333/13 336/326/9
f 344/334/14 336/326/9 343/333/13
f 343/333/13 342/332/12 345/335/15
f 346/336/16 345/335/15 342/332/12
f 345/335/15 346/336/16 347/337/17
f 347/337/17 348/338/18 345/335/15
f 348/338/18 347/337/17 349/339/19
f 350/340/20 349/339/19 347/337/17
f 350/340/20 351/341/21 349/339/19
f 352/342/22 349/339/19 351/341/21
f 344/334/14 352/342/22 336/326/9
f 351/341/21 336/326/9 352/342/22
f 351/341/21 353/343/23 336/326/9
f 354/344/24 336/326/9 353/343/23
f 354/344/24 355/345/24 336/326/9
f 354/344/24 356/346/4 355/345/24
f 357/347/4 355/345/24 356/346/4
f 355/345/24 358/348/3 336/326/9
f 358/348/3 325/315/1 336/326/9
f 358/348/3 359/349/1 325/315/1
f 360/350/1 325/315/1 359/349/1
f 359/349/1 358/348/3 361/351/1
f 362/352/1 361/351/1 358/348/3
f 362/352/1 363/353/1 361/351/1
f 364/354/1 361/351/1 363/353/1
f 364/354/1 365/355/1 361/351/1
f 365/355/1 364/354/1 366/356/1
f 325/315/1 360/350/1 367/357/1
f 368/358/1 366/356/1 364/354/1
f 368/358/1 360/350/1 366/356/1
f 364/354/1 369/359/1 368/358/1
f 370/360/1 360/350/1 368/358/1
f 360/350/1 370/360/1 367/357/1
f 371/361/1 367/357/1 370/360/1
f 374/362/1 373/363/1 372/364/1
f 375/365/1 372/364/1 373/363/1
f 373/363/1 376/366/1 375/365/1
f 377/367/1 375/365/1 376/366/1
f 378/368/1 377/367/1 376/366/1
f 379/369/1 378/368/1 376/366/1
f 380/370/1 377/367/1 378/368/1
f 381/371/1 377/367/1 380/370/1
f 384/372/1 383/335/1 382/373/1
f 385/333/1 382/373/1 383/335/1
f 382/373/1 385/333/1 386/374/1
f 387/334/1 386/374/1 385/333/1
f 387/334/1 388/342/1 386/374/1
f 389/375/1 386/374/1 388/342/1
f 388/342/1 390/339/1 389/375/1
f 391/376/1 389/375/1 390/339/1
f 394/373/1 393/372/1 392/374/1
f 395/338/1 392/374/1 393/372/1
f 395/338/1 396/376/1 392/374/1
f 397/375/1 392/374/1 396/376/1
f 400/377/1 399/378/1 398/379/1
f 399/378/1 401/380/1 398/379/1
f 402/381/1 401/380/1 399/378/1
f 401/380/1 403/382/1 398/379/1
f 403/382/1 401/380/1 404/383/1
f 405/384/1 404/383/1 401/380/1
f 404/383/1 405/384/1 406/385/1
f 407/386/1 406/385/1 405/384/1
f 410/387/1 409/388/1 408/389/1
f 411/390/1 408/389/1 409/388/1
f 411/390/1 412/391/1 408/389/1
f 411/390/1 413/392/1 412/391/1
f 414/393/1 408/389/1 412/391/1
f 408/389/1 414/393/1 415/394/1
f 412/391/1 416/395/1 414/393/1
f 416/395/1 412/391/1 417/396/1
f 418/397/1 417/396/1 412/391/1
f 419/34/1 420/36/1 421/35/1
f 419/34/1 421/35/1 16/38/1
f 422/37/1 16/38/1 421/35/1
f 16/38/1 17/39/1 419/34/1
f 425/398/3 424/399/3 423/400/3
f 426/401/3 423/400/3 424/399/3
f 429/402/1 428/403/1 427/404/1
f 430/405/1 427/404/1 428/403/1
f 427/404/1 430/405/1 431/406/1
f 432/407/1 431/406/1 430/405/1
f 431/406/1 432/407/1 433/408/1
f 432/407/1 434/409/1 433/408/1
f 434/409/1 435/410/1 433/408/1
f 436/411/1 434/409/1 432/407/1
f 439/412/1 438/413/1 437/414/1
f 440/415/1 437/414/1 438/413/1
f 438/413/1 441/416/1 440/415/1
f 442/417/1 440/415/1 441/416/1
f 442/417/1 441/416/1 443/418/1
f 444/350/1 443/418/1 441/416/1
f 442/417/1 445/419/1 440/415/1
f 446/420/1 440/415/1 445/419/1
f 446/420/1 445/419/1 447/421/1
f 448/422/1 447/421/1 445/419/1
f 443/418/1 444/350/1 449/423/1
f 450/424/1 449/423/1 444/350/1
f 450/424/1 451/169/1 449/423/1
f 452/425/1 449/423/1 451/169/1
f 450/424/1 453/426/1 451/169/1
f 454/427/1 451/169/1 453/426/1
f 455/428/1 454/427/1 453/426/1
f 455/428/1 453/426/1 456/429/1
f 454/427/1 455/428/1 457/430/1
f 454/427/1 457/430/1 458/431/3
f 459/432/3 454/427/1 458/431/3
f 457/430/1 460/433/3 458/431/3
f 461/434/1 457/430/1 455/428/1
f 461/434/1 462/435/1 457/430/1
f 461/434/1 463/436/25 462/435/1
f 464/437/4 462/435/1 463/436/25
f 464/437/4 463/436/25 465/438/4
f 466/343/4 465/438/4 463/436/25
f 469/439/1 468/440/1 467/441/1
f 470/442/1 467/441/1 468/440/1
f 470/442/1 468/440/1 471/443/1
f 470/442/1 471/443/1 472/444/1
f 472/444/1 473/445/1 470/442/1
f 474/446/1 470/442/1 473/445/1
f 477/447/1 476/448/1 475/449/1
f 477/447/1 478/450/1 476/448/1
f 478/450/1 479/451/1 476/448/1
f 482/452/1 481/346/1 480/453/1
f 483/454/1 480/453/1 481/346/1
f 480/453/1 483/454/1 484/455/1
f 485/456/1 484/455/1 483/454/1
f 485/456/1 486/457/1 484/455/1
f 486/457/1 487/458/1 484/455/1
f 488/459/1 486/457/1 485/456/1
f 489/460/1 488/459/1 485/456/1
f 492/461/1 491/462/1 490/463/1
f 490/463/1 491/462/1 493/464/1
f 491/462/1 494/465/1 493/464/1
f 495/466/1 490/463/1 493/464/1
f 495/466/1 496/467/1 490/463/1
f 497/468/1 490/463/1 496/467/1
f 496/467/1 498/469/1 497/468/1
f 499/470/1 497/468/1 498/469/1
f 502/471/1 501/242/1 500/241/1
f 501/242/1 502/471/1 503/243/1
f 504/472/1 503/243/1 502/471/1
f 502/471/1 500/241/1 505/473/1
f 506/239/1 505/473/1 500/241/1
f 506/239/1 507/474/1 505/473/1
f 508/475/1 505/473/1 507/474/1
f 507/474/1 509/476/1 508/475/1
f 503/243/1 504/472/1 510/244/1
f 511/477/1 510/244/1 504/472/1
f 511/477/1 512/478/1 510/244/1
f 513/247/1 510/244/1 512/478/1
f 514/479/1 508/475/1 509/476/1
f 509/476/1 515/480/1 514/479/1
f 515/480/1 516/194/1 514/479/1
f 516/194/1 517/481/1 514/479/1
f 516/194/1 518/196/1 517/481/1
f 517/481/1 518/196/1 519/482/1
f 518/196/1 520/197/1 519/482/1
f 519/482/1 520/197/1 521/483/1
f 512/478/1 522/484/1 513/247/1
f 523/248/1 513/247/1 522/484/1
f 523/248/1 522/484/1 524/249/1
f 525/485/1 521/483/1 520/197/1
f 521/483/1 525/485/1 526/486/1
f 525/485/1 527/487/1 526/486/1
f 525/485/1 528/155/1 527/487/1
f 529/488/1 527/487/1 528/155/1
f 528/155/1 530/154/1 529/488/1
f 530/154/1 531/489/1 529/488/1
f 530/154/1 532/152/1 531/489/1
f 522/484/1 533/490/1 524/249/1
f 534/250/1 524/249/1 533/490/1
f 534/250/1 533/490/1 535/491/1
f 536/492/1 535/491/1 533/490/1
f 535/491/1 536/492/1 537/493/1
f 531/489/1 532/152/1 538/494/1
f 538/494/1 537/493/1 536/492/1
f 532/152/1 539/495/1 538/494/1
f 539/495/1 537/493/1 538/494/1
f 542/496/1 541/497/1 540/498/1
f 540/498/1 541/497/1 543/499/1
f 544/500/1 541/497/1 542/496/1
f 543/499/1 541/497/1 545/501/1
f 546/502/1 541/497/1 544/500/1
f 545/501/1 541/497/1 547/503/1
f 548/504/1 541/497/1 546/502/1
f 547/503/1 541/497/1 549/505/1
f 550/506/1 541/497/1 548/504/1
f 549/505/1 541/497/1 551/507/1
f 541/497/1 550/506/1 552/508/1
f 551/507/1 541/497/1 553/509/1
f 541/497/1 552/508/1 554/510/1
f 553/509/1 541/497/1 555/511/1
f 541/497/1 554/510/1 556/512/1
f 541/497/1 557/513/1 555/511/1
f 541/497/1 556/512/1 558/514/1
f 541/497/1 559/515/1 557/513/1
f 541/497/1 558/514/1 560/516/1
f 541/497/1 561/517/1 559/515/1
f 541/497/1 560/516/1 562/518/1
f 541/497/1 563/519/1 561/517/1
f 541/497/1 562/518/1 564/520/1
f 541/497/1 564/520/1 563/519/1
f 567/521/1 566/522/1 565/523/1
f 568/524/1 566/522/1 567/521/1
f 569/525/1 566/522/1 568/524/1
f 570/526/1 566/522/1 569/525/1
f 571/527/1 566/522/1 570/526/1
f 572/528/1 566/522/1 571/527/1
f 573/529/1 565/523/1 566/522/1
s 0
f 574/522/26 573/529/27 566/522/28
s 1
f 572/528/1 575/530/1 566/522/1
s 0
f 575/530/29 574/522/1 566/522/30
s 1
f 574/522/1 576/531/1 573/529/1
f 574/522/1 575/530/1 577/532/1
f 574/522/1 578/533/1 576/531/1
f 574/522/1 577/532/1 579/534/1
f 574/522/1 580/535/1 578/533/1
f 574/522/1 579/534/1 580/535/1
f 583/536/1 582/537/1 581/538/1
f 583/536/1 584/539/1 582/537/1
f 583/536/1 585/540/1 584/539/1
f 583/536/1 586/541/1 585/540/1
f 583/536/1 587/542/1 586/541/1
f 583/536/1 588/543/1 587/542/1
f 581/538/1 589/544/1 583/536/1
s 0
f 589/544/31 590/536/28 583/536/32
s 1
f 591/545/1 588/543/1 583/536/1
s 0
f 590/536/30 591/545/33 583/536/1
s 1
f 592/546/1 590/536/1 589/544/1
f 591/545/1 590/536/1 593/547/1
f 594/548/1 590/536/1 592/546/1
f 593/547/1 590/536/1 595/549/1
f 596/550/1 590/536/1 594/548/1
f 595/549/1 590/536/1 596/550/1
