# Blender 5.1.0
# www.blender.org
mtllib Montana_deckhouse_A1_001_4_Iowa_Deckhouse_A1_001_3.mtl
o Montana_deckhouse_A1_001_4_Iowa_Deckhouse_A1_001_3.006
v 3.480152 17.858456 -5.729465
v 3.178591 17.858589 -7.490725
v -3.480150 17.858456 -5.729465
v -3.178588 17.858589 -7.490725
v 0.762384 13.863663 0.322823
v 1.373714 13.863663 0.810432
v 1.485473 13.863663 1.044613
v 0.000002 13.863663 0.148903
v -0.762380 13.863663 0.322823
v 1.097453 13.863983 3.221817
v 0.762353 13.863984 3.489090
v -1.373711 13.863663 0.810432
v -1.485470 13.863663 1.044613
v 0.000002 13.863983 3.663132
v -0.762350 13.863984 3.489090
v -1.097449 13.863983 3.221817
v 2.226734 13.517169 6.433292
v 2.664361 12.342900 6.885262
v 2.226736 12.342899 6.433292
v 2.664361 13.517170 6.885262
v 2.885924 13.517170 7.385071
v 2.885924 12.342900 7.385071
v 2.885924 12.342900 7.897823
v 2.885924 13.517170 7.897823
v 2.744728 13.146872 8.211987
v 2.664362 12.342900 8.397629
v 2.744728 13.366874 8.211987
v 2.664361 13.146870 8.397629
v 2.664361 13.366872 8.397629
v 2.226734 12.342900 8.849602
v 2.664361 13.517170 8.397629
v 2.521079 13.146873 8.544113
v 2.521079 13.366874 8.544113
v 2.226734 13.517169 8.849602
v 2.226736 12.342899 6.433292
v 1.600464 13.517169 6.072620
v 2.226734 13.517169 6.433292
v 1.600465 12.342899 6.072620
v 0.836371 13.517169 5.840546
v 0.836372 12.342899 5.840546
v 0.000002 13.517169 5.760551
v 0.000002 12.342899 5.760551
v -0.836369 12.342899 5.840546
v -0.836368 13.517169 5.840546
v -1.600462 12.342899 6.072620
v -1.600461 13.517169 6.072620
v -2.226733 12.342899 6.433292
v -2.226732 13.517169 6.433292
v 2.664361 13.517170 6.885262
v 2.885924 13.517170 7.897823
v 2.885924 13.517170 7.385071
v 2.664361 13.517170 8.397629
v 2.226734 13.517169 6.433292
v 2.226734 13.517169 8.849602
v 1.600464 13.517169 6.072620
v 1.600464 13.517170 9.210274
v 0.836371 13.517169 5.840546
v 0.836370 13.517170 9.442345
v 0.000002 13.517169 5.760551
v 0.000002 13.517170 9.522339
v -0.836367 13.517170 9.442345
v -0.836368 13.517169 5.840546
v -1.600461 13.517170 9.210274
v -1.600461 13.517169 6.072620
v -2.226731 13.517169 8.849602
v -2.226732 13.517169 6.433292
v -2.664358 13.517170 8.397629
v -2.664358 13.517170 6.885262
v -2.885921 13.517170 7.897823
v -2.885921 13.517170 7.385071
v 3.453302 23.035776 -5.729237
v 3.453300 23.035776 -3.254772
v 3.661831 23.035776 -5.158270
v 3.815565 23.035776 -4.737337
v 4.024095 23.035776 -4.166370
v 4.024092 23.035776 -3.254803
v 4.505069 11.905663 4.456055
v 4.832650 11.164960 4.513535
v 4.504404 11.165552 4.455933
v 4.833980 11.905174 4.513763
v 0.000002 11.905289 4.456009
v 4.833980 11.905174 4.513763
v 4.505069 11.905663 4.456055
v 3.876371 11.905495 9.971119
v 2.583006 11.905287 12.041412
v 0.000002 11.905289 12.041412
v -2.583004 11.905287 12.041412
v -3.876368 11.905495 9.971119
v -4.833977 11.905174 4.513763
v -4.505066 11.905663 4.456055
v 3.875041 11.165281 9.970886
v 4.504404 11.165552 4.455933
v 4.832650 11.164960 4.513535
v 3.563204 11.165760 9.851425
v 2.583006 11.165071 12.041412
v 2.374995 11.165071 11.718143
v 0.000002 11.165073 12.041412
v 0.000002 11.165073 11.718094
v -2.374992 11.165071 11.718143
v -2.583004 11.165071 12.041412
v -3.563201 11.165760 9.851425
v -3.875038 11.165281 9.970886
v -4.504401 11.165552 4.455933
v -4.832647 11.164960 4.513535
v 0.000002 11.165073 11.718094
v 2.374995 9.999704 11.718143
v 2.374995 11.165071 11.718143
v 0.000002 9.999707 11.718094
v -2.374992 9.999704 11.718143
v -2.374992 11.165071 11.718143
v 3.563204 10.000394 9.851425
v 2.374995 11.165071 11.718143
v 2.374995 9.999704 11.718143
v 3.563204 11.165760 9.851425
v 4.504404 10.000182 4.455933
v 3.563204 11.165760 9.851425
v 3.563204 10.000394 9.851425
v 4.504404 11.165552 4.455933
v 4.504404 11.165552 4.455933
v 4.504404 10.000182 4.455933
v 0.000002 9.999807 4.455940
v 4.505069 11.905663 4.456055
v 0.000002 11.905289 4.456009
v -4.505066 11.905663 4.456055
v -4.504401 11.165552 4.455933
v -4.504401 10.000182 4.455933
v 2.877385 9.847630 -11.690672
v 6.147895 9.847628 -14.553011
v 2.877387 9.847626 -14.553011
v 6.147901 9.847630 -8.285936
v 6.147901 9.847630 -3.015551
v 2.880026 9.847448 2.548347
v 4.829990 9.847448 2.548347
v 4.829990 9.847448 4.513069
v 6.795819 9.847630 -8.109163
v 6.795819 9.847630 -3.192390
v 6.896970 9.847630 -7.955935
v 6.896970 9.847630 -3.345617
v 3.947046 9.847553 6.489990
v 3.947046 9.847553 7.421349
v 4.764964 9.847486 4.895447
v 3.872381 9.847771 9.970421
v 3.627295 9.847554 8.146347
v 3.013651 9.847554 8.782196
v 2.583006 9.847555 12.041412
v 2.155892 9.847557 9.277042
v 1.123518 9.847557 9.591064
v 0.000002 9.847557 9.716946
v 0.000002 9.847558 12.041412
v -2.583004 9.847555 12.041412
v -1.123515 9.847557 9.591064
v -2.155889 9.847557 9.277042
v -3.013648 9.847554 8.782196
v -3.872379 9.847771 9.970421
v -3.627293 9.847554 8.146347
v -3.947043 9.847553 7.421349
v -4.764961 9.847486 4.895447
v -3.947043 9.847553 6.489990
v 3.554680 11.847556 -0.920280
v 4.746208 11.847499 -0.185188
v 4.746208 11.847569 -0.920303
v 2.877632 11.847544 -0.920265
v 3.554680 11.847552 -1.850960
v 5.076994 11.847475 2.547539
v 5.177120 11.847475 2.547539
v 4.896289 11.847475 3.586113
v 2.877898 11.847475 3.586113
v 5.086115 11.847518 -0.185242
v 5.504188 11.847527 0.673409
v 5.401540 11.847532 0.026970
v 5.556412 11.847535 0.374161
v 2.877538 11.847552 -1.850960
v 5.180010 11.847519 -2.624397
v 5.180121 11.847552 -1.850960
v 5.180015 11.847521 -8.657497
v 2.877406 11.847535 -11.690603
v 6.557038 11.847471 -8.657471
v 6.557038 11.847470 -2.624397
v 7.797697 11.847473 -8.060040
v 7.797693 11.847470 -3.221819
v 8.656224 11.847471 -6.983479
v 8.656252 11.847469 -4.298471
v 8.962654 11.847471 -5.640976
v 5.180097 11.847552 -11.690657
v 2.877407 11.847532 -20.096216
v 4.746235 11.847551 -20.096338
v 2.877408 11.847529 -21.690432
v 4.746119 11.847547 -21.690512
v 7.751759 11.847546 -18.394567
v 7.046799 11.847552 -20.096354
v 7.751825 11.847552 -19.391359
v 7.751759 11.847546 -13.392485
v 7.751825 11.847552 -12.395693
v 7.046799 11.847552 -11.690699
v 1.484423 13.863716 -0.546528
v 0.000002 13.863737 -0.546600
v -1.484420 13.863716 -0.546528
v 3.048121 21.858463 -6.345144
v 1.820324 21.858463 -6.709717
v 1.820343 21.858463 -5.341616
v 3.333652 21.858463 -6.082413
v 3.480181 21.858458 -5.729288
v 1.664976 21.858463 -4.708113
v 3.480189 21.858463 -3.254862
v 3.333652 21.858463 -2.901661
v 1.198856 21.858463 -4.328001
v 1.523801 21.858463 -1.287392
v 0.421983 21.858463 -4.201275
v 1.170259 21.858463 -1.141163
v 0.000002 21.858463 -1.141121
v 0.000002 21.858463 -4.201265
v -0.421980 21.858463 -4.201275
v -1.170256 21.858463 -1.141163
v -1.523798 21.858463 -1.287392
v -1.198853 21.858463 -4.328001
v -3.333650 21.858463 -2.901661
v -1.664973 21.858463 -4.708113
v -3.480186 21.858463 -3.254862
v -3.480178 21.858458 -5.729288
v -1.820340 21.858463 -5.341616
v -3.333650 21.858463 -6.082413
v -3.048119 21.858463 -6.345144
v -1.820321 21.858463 -6.709717
v 2.562230 19.858463 -11.376478
v 2.033623 19.858463 -8.887472
v 2.936773 19.858463 -8.887606
v 2.033614 19.858463 -9.517179
v 1.860020 19.858463 -10.150671
v 1.339263 19.858463 -10.530767
v 0.613967 19.858463 -11.376551
v 0.618888 19.858463 -10.635927
v 2.333461 17.858772 -9.252035
v 2.877030 17.858725 -9.251982
v 2.333437 17.858515 -4.505892
v 2.195433 17.858471 -4.091894
v 3.480189 17.858458 -3.254864
v 3.333652 17.858458 -2.901665
v 1.781432 17.858456 -3.953901
v 1.523801 17.858458 -1.287392
v 1.170259 17.858458 -1.141167
v 0.000002 17.858458 -3.953939
v 0.000002 17.858458 -1.141010
v -1.170256 17.858458 -1.141167
v -1.781429 17.858456 -3.953901
v -1.523798 17.858458 -1.287392
v -3.333650 17.858458 -2.901665
v -2.195430 17.858471 -4.091894
v -3.480186 17.858458 -3.254864
v -2.333434 17.858515 -4.505892
v -2.333458 17.858772 -9.252035
v -2.877027 17.858725 -9.251982
v 1.097450 13.864292 4.734447
v 0.631268 13.864290 5.200661
v 0.000002 13.864290 5.361069
v -0.631265 13.864290 5.200661
v -1.097447 13.864292 4.734447
v 6.047887 9.757395 -14.638292
v 3.963058 7.995189 -14.638292
v 6.047887 7.995189 -14.638292
v 3.963058 9.757395 -14.638292
v 6.047887 7.995191 -17.148294
v 3.963058 9.757395 -17.148294
v 6.047887 9.757395 -17.148294
v 3.963058 7.995191 -17.148294
v 6.047887 9.757395 -17.148294
v 3.963058 9.757395 -17.148294
v 6.047887 9.757395 -15.893290
v 3.963058 9.757395 -14.638292
v 6.047887 9.757395 -14.638292
v 3.963058 7.995191 -17.148294
v 3.963058 9.757395 -14.638292
v 3.963058 9.757395 -17.148294
v 3.963058 7.995189 -14.638292
v 8.229136 7.842813 -19.618290
v 9.080538 7.842813 -17.233553
v 9.080538 7.842813 -19.618452
v 8.229160 7.842813 -11.690607
v 9.931913 7.842813 -17.233541
v 4.746127 9.847631 -20.096260
v 6.147895 9.847628 -17.233618
v 6.147942 9.847631 -20.096268
v 2.877387 9.847628 -17.233618
v 2.877389 9.848587 -27.550396
v 4.746032 9.847618 -28.292837
v 2.877398 9.848518 -28.292919
v 2.876712 7.847650 -33.416451
v 0.000002 6.000073 -33.416451
v 2.876712 6.000073 -33.416451
v 0.000002 7.847650 -33.416451
v -2.876709 7.847650 -33.416451
v -2.876709 6.000073 -33.416451
v 0.000002 5.847653 -33.416451
v 2.876713 4.000073 -33.416451
v 2.876713 5.847653 -33.416451
v 0.000002 4.000073 -33.416451
v -2.876710 4.000073 -33.416451
v -2.876710 5.847653 -33.416451
v 2.876712 7.847646 -35.000408
v 2.876712 6.923860 -34.879959
v 2.876712 6.923862 -35.000408
v 2.876712 7.847650 -33.416451
v 2.876712 6.000073 -33.416451
v 2.876712 6.000073 -34.879959
v 2.876713 5.847655 -35.000412
v 2.876713 4.923863 -34.879963
v 2.876713 4.923865 -35.000412
v 2.876713 5.847653 -33.416451
v 2.876713 4.000073 -33.416451
v 2.876713 4.000074 -34.879963
v 0.000002 2.923875 -33.762936
v 2.716394 2.763555 -33.762936
v 2.351713 2.923875 -33.762936
v 2.876713 2.398875 -33.762936
v 2.876713 0.000078 -33.762936
v 0.000002 0.000078 -33.762936
v -2.876710 0.000078 -33.762936
v -2.876710 2.398875 -33.762936
v -2.716391 2.763555 -33.762936
v -2.351710 2.923875 -33.762936
v 12.852612 2.771321 -1.135361
v 14.510741 2.771322 -1.135361
v 12.852612 2.771321 -3.017052
v 12.852612 2.771322 -4.042686
v 14.510741 2.771322 -5.924383
v 12.852612 2.771322 -7.187084
v 12.218575 2.771321 -3.017052
v 12.218575 2.771322 -4.042686
v 8.780304 2.771309 -32.601376
v 8.780304 -0.000006 -21.603523
v 8.780304 2.771313 -21.603527
v 8.780304 -0.000009 -32.601372
v 8.780304 2.771309 -32.601376
v 10.110426 -0.000007 -32.601357
v 8.780304 -0.000009 -32.601372
v 10.110425 2.771309 -32.601376
v 8.780304 2.771313 -21.603527
v 10.110425 2.771309 -32.601376
v 8.780304 2.771309 -32.601376
v 10.110425 2.771313 -21.603527
v 8.780304 -0.000006 -21.603523
v 10.110425 2.771313 -21.603527
v 8.780304 2.771313 -21.603527
v 10.110426 -0.000006 -21.603523
v 12.218575 -0.000001 -3.017052
v 12.218575 2.771322 -4.042686
v 12.218575 -0.000001 -4.042686
v 12.218575 2.771321 -3.017052
v 12.218575 2.771322 -4.042686
v 12.852612 -0.000001 -4.042686
v 12.218575 -0.000001 -4.042686
v 12.852612 2.771322 -4.042686
v 12.218575 -0.000001 -3.017052
v 12.852612 2.771321 -3.017052
v 12.218575 2.771321 -3.017052
v 12.852612 -0.000001 -3.017052
v 12.852609 2.771360 16.182796
v 14.093265 2.771362 10.747101
v 12.852609 2.771361 10.149666
v 14.093261 2.771359 15.585323
v 14.951791 2.771359 11.823666
v 14.951819 2.771357 14.508671
v 15.258222 2.771360 13.166168
v -2.664358 12.342900 6.885262
v -2.226732 13.517169 6.433292
v -2.226733 12.342899 6.433292
v -2.664358 13.517170 6.885262
v -2.885921 13.517170 7.385071
v -2.885921 12.342900 7.385071
v -2.885921 12.342900 7.897823
v -2.885921 13.517170 7.897823
v -2.744725 13.146872 8.211987
v -2.664359 12.342900 8.397629
v -2.744725 13.366874 8.211987
v -2.664358 13.146870 8.397629
v -2.664358 13.366872 8.397629
v -2.226731 12.342900 8.849602
v -2.664358 13.517170 8.397629
v -2.521076 13.146873 8.544113
v -2.521076 13.366874 8.544113
v -2.226731 13.517169 8.849602
v -3.453299 23.035776 -5.729237
v -3.661829 23.035776 -5.158270
v -3.453297 23.035776 -3.254772
v -3.815562 23.035776 -4.737337
v -4.024092 23.035776 -4.166370
v -4.024089 23.035776 -3.254803
v -4.505066 11.905663 4.456055
v -4.832647 11.164960 4.513535
v -4.833977 11.905174 4.513763
v -4.504401 11.165552 4.455933
v -3.563201 10.000394 9.851425
v -2.374992 11.165071 11.718143
v -3.563201 11.165760 9.851425
v -2.374992 9.999704 11.718143
v -4.504401 10.000182 4.455933
v -3.563201 11.165760 9.851425
v -4.504401 11.165552 4.455933
v -3.563201 10.000394 9.851425
v -6.147892 9.847628 -14.553011
v -2.877382 9.847630 -11.690672
v -2.877384 9.847626 -14.553011
v -6.147898 9.847630 -8.285936
v -6.147898 9.847630 -3.015551
v -2.880023 9.847448 2.548347
v -4.829988 9.847448 2.548347
v -4.829988 9.847448 4.513069
v -6.795816 9.847630 -8.109163
v -6.795816 9.847630 -3.192390
v -6.896967 9.847630 -7.955935
v -6.896967 9.847630 -3.345617
v -4.746205 11.847499 -0.185188
v -3.554677 11.847556 -0.920280
v -4.746205 11.847569 -0.920303
v -2.877630 11.847544 -0.920265
v -3.554677 11.847552 -1.850960
v -5.076991 11.847475 2.547539
v -5.177117 11.847475 2.547539
v -4.896286 11.847475 3.586113
v -2.877895 11.847475 3.586113
v -5.086112 11.847518 -0.185242
v -5.504185 11.847527 0.673409
v -5.401537 11.847532 0.026970
v -5.556409 11.847535 0.374161
v -2.877536 11.847552 -1.850960
v -5.180007 11.847519 -2.624439
v -5.180119 11.847552 -1.850960
v -5.180012 11.847521 -8.657539
v -2.877403 11.847535 -11.690603
v -6.557035 11.847471 -8.657513
v -6.557035 11.847470 -2.624439
v -7.797694 11.847473 -8.060081
v -7.797690 11.847470 -3.221819
v -8.656220 11.847471 -6.983479
v -8.656248 11.847469 -4.298471
v -8.962650 11.847471 -5.640976
v -5.180094 11.847552 -11.690657
v -2.877404 11.847532 -20.096216
v -4.746233 11.847551 -20.096338
v -2.877405 11.847529 -21.690432
v -4.746116 11.847547 -21.690512
v -7.751756 11.847546 -18.394567
v -7.046796 11.847552 -20.096354
v -7.751822 11.847552 -19.391359
v -7.751756 11.847546 -13.392485
v -7.751822 11.847552 -12.395693
v -7.046796 11.847552 -11.690699
v -2.033620 19.858463 -8.887472
v -2.562227 19.858463 -11.376478
v -2.936770 19.858463 -8.887606
v -2.033611 19.858463 -9.517179
v -1.860017 19.858463 -10.150671
v -1.339260 19.858463 -10.530767
v -0.613964 19.858463 -11.376551
v -0.618885 19.858463 -10.635927
v -6.047884 9.757395 -14.638292
v -3.963055 7.995189 -14.638292
v -3.963055 9.757395 -14.638292
v -6.047884 7.995189 -14.638292
v -6.047884 7.995191 -17.148294
v -3.963055 9.757395 -17.148294
v -3.963055 7.995191 -17.148294
v -6.047884 9.757395 -17.148294
v -6.047884 9.757395 -17.148294
v -6.047884 9.757395 -15.893290
v -3.963055 9.757395 -17.148294
v -3.963055 9.757395 -14.638292
v -6.047884 9.757395 -14.638292
v -3.963055 7.995191 -17.148294
v -3.963055 9.757395 -14.638292
v -3.963055 7.995189 -14.638292
v -3.963055 9.757395 -17.148294
v -9.080534 7.842813 -17.233553
v -8.229132 7.842813 -19.618290
v -9.080534 7.842813 -19.618452
v -8.229156 7.842813 -11.690607
v -9.931910 7.842813 -17.233541
v -6.147892 9.847628 -17.233618
v -4.746124 9.847631 -20.096260
v -6.147939 9.847631 -20.096268
v -2.877384 9.847628 -17.233618
v -2.877387 9.848587 -27.550396
v -4.746029 9.847618 -28.292837
v -2.877395 9.848518 -28.292919
v -2.876709 6.923860 -34.879959
v -2.876709 7.847646 -35.000408
v -2.876709 6.923862 -35.000408
v -2.876709 7.847650 -33.416451
v -2.876709 6.000073 -33.416451
v -2.876709 6.000073 -34.879959
v -2.876710 4.923863 -34.879963
v -2.876710 5.847655 -35.000412
v -2.876710 4.923865 -35.000412
v -2.876710 5.847653 -33.416451
v -2.876710 4.000073 -33.416451
v -2.876710 4.000074 -34.879963
v -12.852613 2.771321 -1.135334
v -12.852613 2.771321 -3.017025
v -14.510742 2.771322 -1.135334
v -12.852613 2.771322 -4.042660
v -14.510742 2.771322 -5.924356
v -12.852613 2.771322 -7.187057
v -12.218576 2.771321 -3.017025
v -12.218576 2.771322 -4.042660
v -8.780303 2.771309 -32.601376
v -8.780303 -0.000006 -21.603523
v -8.780303 -0.000009 -32.601372
v -8.780303 2.771313 -21.603527
v -8.780303 2.771309 -32.601376
v -10.110425 -0.000007 -32.601357
v -10.110424 2.771309 -32.601376
v -8.780303 -0.000009 -32.601372
v -8.780303 2.771313 -21.603527
v -10.110424 2.771309 -32.601376
v -10.110424 2.771313 -21.603527
v -8.780303 2.771309 -32.601376
v -8.780303 -0.000006 -21.603523
v -10.110424 2.771313 -21.603527
v -10.110425 -0.000006 -21.603523
v -8.780303 2.771313 -21.603527
v -12.218576 -0.000001 -3.017025
v -12.218576 2.771322 -4.042660
v -12.218576 2.771321 -3.017025
v -12.218576 -0.000001 -4.042660
v -12.218576 2.771322 -4.042660
v -12.852613 -0.000001 -4.042660
v -12.852613 2.771322 -4.042660
v -12.218576 -0.000001 -4.042660
v -12.218576 -0.000001 -3.017025
v -12.852613 2.771321 -3.017025
v -12.852613 -0.000001 -3.017025
v -12.218576 2.771321 -3.017025
v -14.093266 2.771362 10.747128
v -12.852610 2.771360 16.182823
v -12.852610 2.771361 10.149693
v -14.093262 2.771359 15.585350
v -14.951792 2.771359 11.823692
v -14.951820 2.771357 14.508698
v -15.258223 2.771360 13.166195
v 1.784680 13.146896 9.103325
v 1.600465 12.342900 9.210274
v 2.226734 12.342900 8.849602
v 2.226734 13.517169 8.849602
v 1.600463 13.146902 9.210274
v 1.784680 13.366877 9.103325
v 1.600463 13.366876 9.210274
v 1.600464 13.517170 9.210274
v 1.407861 13.366877 9.268242
v 0.836370 12.342900 9.442345
v 0.836370 13.517170 9.442345
v 1.407861 13.146896 9.268242
v 0.209660 13.146859 9.501862
v 0.000002 12.342900 9.522339
v 0.209660 13.366859 9.501862
v 0.000002 13.146852 9.522339
v 0.000002 13.366852 9.522339
v 0.000002 13.517170 9.522339
v -0.209657 13.146859 9.501862
v -0.836367 13.517170 9.442345
v -0.209657 13.366859 9.501862
v -0.836367 12.342900 9.442345
v -1.407858 13.146896 9.268242
v -1.407858 13.366877 9.268242
v -1.600460 13.146902 9.210274
v -1.600461 13.517170 9.210274
v -1.600461 12.342900 9.210274
v -1.600460 13.366876 9.210274
v -1.784676 13.146896 9.103325
v -2.226731 12.342900 8.849602
v -2.226731 13.517169 8.849602
v -1.784676 13.366877 9.103325
v 0.000002 5.847655 -35.000412
v 0.000002 5.847653 -34.879963
v 0.340569 5.847653 -34.879963
v -0.340566 5.847653 -34.879963
v 2.876713 5.847655 -35.000412
v -2.876710 5.847655 -35.000412
v 2.876713 5.847653 -33.416451
v 0.340569 5.847653 -33.933170
v -2.876710 5.847653 -33.416451
v -0.340565 5.847653 -33.933170
v 0.000002 5.847653 -33.933170
v 0.000002 5.847653 -33.416451
v 0.340568 7.847650 -34.879959
v 0.000002 7.847651 -35.000408
v 0.000002 7.847650 -34.879959
v -0.340565 7.847650 -34.879959
v 2.876712 7.847646 -35.000408
v -2.876709 7.847646 -35.000408
v 0.340568 7.847650 -33.933167
v -0.340565 7.847650 -33.933167
v 2.876712 7.847650 -33.416451
v -2.876709 7.847650 -33.416451
v 0.000002 7.847650 -33.933167
v 0.000002 7.847650 -33.416451
v 7.128473 14.905060 -15.893435
v 6.957046 14.905062 -16.644533
v 5.397434 14.905064 -15.893435
v 6.957046 14.905062 -15.142336
v 6.476722 14.905062 -17.246843
v 6.476722 14.905062 -14.540026
v 5.782629 14.905062 -17.581099
v 5.782629 14.905062 -14.205770
v 5.012243 14.905062 -17.581099
v 5.012243 14.905062 -14.205770
v 4.318153 14.905064 -17.246843
v 4.318153 14.905064 -14.540026
v 3.837825 14.905064 -16.644533
v 3.837825 14.905064 -15.142336
v 3.666397 14.905064 -15.893435
v -7.128470 14.905060 -15.893435
v -5.397431 14.905064 -15.893435
v -6.957043 14.905062 -16.644533
v -6.957043 14.905062 -15.142336
v -6.476719 14.905062 -17.246843
v -6.476719 14.905062 -14.540026
v -5.782626 14.905062 -17.581099
v -5.782626 14.905062 -14.205770
v -5.012240 14.905062 -17.581099
v -5.012240 14.905062 -14.205770
v -4.318150 14.905064 -17.246843
v -4.318150 14.905064 -14.540026
v -3.837822 14.905064 -16.644533
v -3.837822 14.905064 -15.142336
v -3.666394 14.905064 -15.893435
v -0.000028 14.905060 3.637085
v 0.751069 14.905061 3.465660
v -0.000028 14.905064 1.906048
v -0.751126 14.905061 3.465660
v 1.353379 14.905061 2.985336
v -1.353436 14.905061 2.985336
v 1.687637 14.905061 2.291241
v -1.687693 14.905061 2.291241
v 1.687637 14.905062 1.520859
v -1.687693 14.905062 1.520859
v 1.353381 14.905065 0.826767
v -1.353437 14.905065 0.826767
v 0.751071 14.905065 0.346439
v -0.751127 14.905065 0.346439
v -0.000028 14.905065 0.175011
v -7.850677 6.772948 2.759155
v -7.850683 6.772948 -3.273947
v -8.836826 6.772948 -3.273886
v -8.836826 6.772948 2.759155
v -10.077484 6.772948 -2.676491
v -10.077480 6.772948 2.161732
v -10.936010 6.772948 -1.599930
v -10.936039 6.772948 1.085079
v -11.242400 6.772948 -0.257423
v 7.850677 6.772948 2.759155
v 7.850683 6.772948 -3.273947
v 8.836826 6.772948 -3.273886
v 8.836826 6.772948 2.759155
v 10.077484 6.772948 -2.676491
v 10.077480 6.772948 2.161732
v 10.936010 6.772948 -1.599930
v 10.936039 6.772948 1.085079
v 11.242400 6.772948 -0.257423
vn -0.6148 -0.0000 0.7887
vn -0.8291 -0.0000 0.5591
vn -0.9783 -0.0000 0.2071
vn -0.9782 -0.0008 -0.2078
vn -0.9780 0.0015 -0.2086
vn -0.9140 -0.0003 -0.4057
vn -0.8295 -0.0009 -0.5585
vn -0.9152 0.0184 -0.4026
vn -0.8307 -0.0012 -0.5567
vn -0.8281 0.0028 -0.5606
vn -0.6147 -0.0005 -0.7888
vn -0.8283 0.0014 -0.5603
vn -0.7178 -0.0017 -0.6962
vn -0.7186 0.0032 -0.6954
vn -0.6151 0.0015 -0.7884
vn -0.6146 -0.0000 0.7888
vn -0.3974 -0.0000 0.9176
vn -0.1939 -0.0000 0.9810
vn -0.0000 -0.0000 1.0000
vn 0.1939 -0.0000 0.9810
vn 0.3974 -0.0000 0.9176
vn 0.6146 -0.0000 0.7888
vn -0.0000 -1.0000 -0.0000
vn -0.1728 -0.0000 0.9849
vn -0.1728 -0.0000 0.9850
vn 0.0001 -1.0000 -0.0089
vn 0.0001 -1.0000 -0.0090
vn 0.0001 -1.0000 -0.0000
vn -0.0001 -1.0000 -0.0000
vn -0.0001 -1.0000 -0.0089
vn 0.0018 1.0000 0.0003
vn 0.0017 1.0000 0.0002
vn 0.0013 1.0000 0.0005
vn -0.0001 1.0000 0.0002
vn -0.0001 1.0000 0.0001
vn -0.0000 1.0000 -0.0000
vn 0.0001 1.0000 0.0001
vn -0.0013 1.0000 0.0005
vn -0.0017 1.0000 0.0002
vn -0.0018 1.0000 0.0003
vn -0.0000 -0.0000 -1.0000
vn -0.8436 -0.0000 -0.5370
vn -0.9851 -0.0000 -0.1718
vn -0.0000 -0.0001 1.0000
vn 0.0002 -1.0000 0.0001
vn 0.0002 -1.0000 -0.0000
vn 0.0001 -1.0000 0.0001
vn -0.0001 -1.0000 0.0001
vn -0.0002 -1.0000 -0.0000
vn -0.0002 -1.0000 0.0001
vn -0.0000 -1.0000 -0.0001
vn -0.0001 -1.0000 -0.0001
vn -0.0002 -1.0000 -0.0002
vn 0.0002 -1.0000 -0.0002
vn 0.0001 -1.0000 -0.0001
vn 0.0001 -1.0000 0.0002
vn 0.0004 -1.0000 0.0016
vn 0.0015 -1.0000 0.0033
vn -0.0000 -1.0000 0.0002
vn -0.0001 -1.0000 0.0002
vn -0.0003 -1.0000 0.0014
vn -0.0010 -1.0000 0.0013
vn 1.0000 -0.0000 -0.0000
vn -0.0005 -1.0000 -0.0000
vn -0.0005 -1.0000 0.0001
vn -1.0000 -0.0000 -0.0000
vn 0.6148 -0.0000 0.7887
vn 0.8291 -0.0000 0.5591
vn 0.9783 -0.0000 0.2071
vn 0.9782 -0.0008 -0.2078
vn 0.9780 0.0015 -0.2086
vn 0.9140 -0.0003 -0.4057
vn 0.8295 -0.0009 -0.5585
vn 0.9152 0.0184 -0.4026
vn 0.8307 -0.0012 -0.5567
vn 0.8281 0.0028 -0.5606
vn 0.6147 -0.0004 -0.7888
vn 0.8283 0.0014 -0.5603
vn 0.7178 -0.0017 -0.6962
vn 0.7186 0.0032 -0.6954
vn 0.6151 0.0012 -0.7884
vn 0.1728 -0.0000 0.9850
vn 0.1728 -0.0000 0.9849
vn 0.8436 -0.0000 -0.5370
vn 0.9851 -0.0000 -0.1718
vn 0.0005 -1.0000 -0.0000
vn 0.0005 -1.0000 0.0001
vn -0.6145 -0.0006 -0.7889
vn -0.3977 -0.0004 -0.9175
vn -0.4992 -0.0002 -0.8665
vn -0.6150 0.0012 -0.7885
vn -0.3984 -0.0006 -0.9172
vn -0.5004 0.0102 -0.8657
vn -0.3965 0.0011 -0.9181
vn -0.3967 0.0007 -0.9179
vn -0.2906 0.0016 -0.9568
vn -0.1938 -0.0003 -0.9810
vn -0.1940 0.0005 -0.9810
vn -0.2899 -0.0012 -0.9571
vn -0.0954 -0.0001 -0.9954
vn -0.0000 -0.0004 -1.0000
vn -0.0962 0.0069 -0.9953
vn -0.0000 0.0013 -1.0000
vn 0.0954 -0.0001 -0.9954
vn 0.1940 0.0005 -0.9810
vn 0.0962 0.0069 -0.9953
vn 0.1938 -0.0003 -0.9810
vn 0.2899 -0.0012 -0.9571
vn 0.2906 0.0016 -0.9568
vn 0.3984 -0.0006 -0.9172
vn 0.3967 0.0007 -0.9179
vn 0.3977 -0.0004 -0.9175
vn 0.3965 0.0011 -0.9181
vn 0.4992 -0.0002 -0.8665
vn 0.6145 -0.0005 -0.7889
vn 0.6150 0.0009 -0.7885
vn 0.5004 0.0102 -0.8657
vt -2.476485 0.566653
vt -2.469597 0.566653
vt -2.476485 0.584496
vt -2.469597 0.584496
vt -2.461980 0.584496
vt -2.461980 0.566653
vt -2.454166 0.566653
vt -2.454166 0.584496
vt -2.449379 0.578869
vt -2.446549 0.566653
vt -2.449379 0.582212
vt -2.446549 0.578869
vt -2.446549 0.582212
vt -2.439662 0.566653
vt -2.446549 0.584496
vt -2.444317 0.578869
vt -2.444317 0.582212
vt -2.439662 0.584496
vt 0.533632 0.584496
vt 0.524173 0.584496
vt 0.533632 0.566653
vt 0.524173 0.566653
vt 0.512634 0.584496
vt 0.512634 0.566653
vt 0.500002 0.584496
vt 0.500002 0.566653
vt 0.487371 0.566653
vt 0.487371 0.584496
vt 0.475831 0.566653
vt 0.475831 0.584496
vt 0.466373 0.566653
vt 0.466373 0.584496
vt 0.456413 3.461980
vt 0.456413 3.454166
vt 0.459759 3.469597
vt 0.459759 3.446549
vt 0.466368 3.476485
vt 0.466368 3.439662
vt 0.475827 3.481982
vt 0.475827 3.434165
vt 0.487366 3.485518
vt 0.487366 3.430629
vt 0.499998 3.486737
vt 0.499998 3.429410
vt 0.512629 3.430629
vt 0.512629 3.485518
vt 0.524169 3.434165
vt 0.524169 3.481982
vt 0.533627 3.439662
vt 0.533627 3.476485
vt 0.540236 3.446549
vt 0.540236 3.469597
vt 0.543582 3.454166
vt 0.543582 3.461980
vt 0.444695 3.653134
vt 0.447844 3.624126
vt 0.447844 3.661836
vt 0.442373 3.646720
vt 0.439224 3.638018
vt 0.439224 3.624127
vt 0.568030 0.548763
vt 0.572987 0.548754
vt 0.568040 0.560009
vt 0.573008 0.560002
vt 0.431960 3.506617
vt 0.426992 3.505738
vt 0.499998 3.506618
vt 0.441455 3.422570
vt 0.460988 3.391020
vt 0.499998 3.391020
vt 0.539008 3.391020
vt 0.558541 3.422570
vt 0.573003 3.505738
vt 0.568036 3.506617
vt 0.572987 3.505741
vt 0.568030 3.506619
vt 0.558525 3.422574
vt 0.553816 3.424394
vt 0.539012 3.391020
vt 0.535871 3.395947
vt 0.500002 3.391020
vt 0.500002 3.395947
vt 0.464134 3.395947
vt 0.460992 3.391020
vt 0.446189 3.424394
vt 0.441479 3.422574
vt 0.431975 3.506619
vt 0.427017 3.505741
vt 0.464129 0.548756
vt 0.464129 0.531048
vt 0.499998 0.548756
vt 0.499998 0.531048
vt 0.535866 0.531048
vt 0.535866 0.548756
vt -2.395947 0.531048
vt -2.395947 0.548756
vt -2.424394 0.531059
vt -2.424394 0.548766
vt -2.506619 0.531056
vt -2.506619 0.548763
vt 0.500002 0.531050
vt 0.568030 0.531056
vt 0.500002 0.560004
vt 0.431964 0.560009
vt 0.431975 0.548763
vt 0.431975 0.531056
vt 0.456542 3.796305
vt 0.407149 3.796305
vt 0.456542 3.752685
vt 0.407149 3.700799
vt 0.407149 3.620481
vt 0.456502 3.535690
vt 0.427053 3.535690
vt 0.427053 3.505748
vt 0.397364 3.698105
vt 0.397364 3.623175
vt 0.395836 3.695769
vt 0.395836 3.625510
vt 0.428035 3.499921
vt 0.440387 3.461428
vt 0.440387 3.475621
vt 0.441515 3.422581
vt 0.445216 3.450379
vt 0.454484 3.440689
vt 0.467438 3.433148
vt 0.483030 3.428362
vt 0.499998 3.426444
vt 0.516966 3.428362
vt 0.532557 3.433148
vt 0.545511 3.440689
vt 0.558480 3.422581
vt 0.554779 3.450379
vt 0.559608 3.461428
vt 0.571961 3.499921
vt 0.559608 3.475621
vt 0.428318 3.588550
vt 0.428318 3.577347
vt 0.446313 3.588550
vt 0.456538 3.588549
vt 0.446313 3.602733
vt 0.423322 3.535702
vt 0.421810 3.535702
vt 0.426051 3.519875
vt 0.456534 3.519875
vt 0.423185 3.577348
vt 0.416871 3.564263
vt 0.418421 3.574114
vt 0.416082 3.568823
vt 0.456540 3.602733
vt 0.421767 3.614520
vt 0.421765 3.602733
vt 0.421766 3.706461
vt 0.456541 3.752684
vt 0.400970 3.706460
vt 0.400970 3.614520
vt 0.382233 3.697356
vt 0.382233 3.623624
vt 0.369267 3.680950
vt 0.369267 3.640032
vt 0.364639 3.660491
vt 0.421765 3.752685
vt 0.456541 3.880781
vt 0.428317 3.880783
vt 0.456541 3.905076
vt 0.428319 3.905077
vt 0.382926 3.854849
vt 0.393573 3.880783
vt 0.382925 3.870039
vt 0.382926 3.778620
vt 0.382926 3.763429
vt 0.393573 3.752685
vt 0.477563 3.558606
vt 0.479251 3.562175
vt 0.477579 3.582854
vt 0.488484 3.569605
vt 0.499998 3.572256
vt 0.499998 3.582855
vt 0.522416 3.582854
vt 0.511512 3.569605
vt 0.520744 3.562175
vt 0.522432 3.558606
vt 0.472506 3.655929
vt 0.472506 3.676778
vt 0.453963 3.671222
vt 0.449651 3.667218
vt 0.447438 3.661836
vt 0.474852 3.646274
vt 0.447438 3.624127
vt 0.449651 3.618745
vt 0.481892 3.640481
vt 0.476984 3.594144
vt 0.493625 3.638550
vt 0.482324 3.591916
vt 0.499998 3.591915
vt 0.499998 3.638550
vt 0.506371 3.638550
vt 0.517671 3.591916
vt 0.523011 3.594144
vt 0.518103 3.640481
vt 0.550344 3.618745
vt 0.525143 3.646274
vt 0.552557 3.624127
vt 0.552557 3.661836
vt 0.527489 3.655929
vt 0.550344 3.667218
vt 0.546032 3.671222
vt 0.527489 3.676778
vt 0.455645 3.709968
vt 0.469285 3.709965
vt 0.461301 3.747897
vt 0.469285 3.719562
vt 0.471907 3.729216
vt 0.479771 3.735008
vt 0.490725 3.747898
vt 0.490651 3.736611
vt 0.456547 3.715521
vt 0.451993 3.688680
vt 0.464756 3.715521
vt 0.447439 3.661839
vt 0.464757 3.643193
vt 0.466841 3.636883
vt 0.447438 3.624128
vt 0.473094 3.634780
vt 0.499998 3.634781
vt 0.499998 3.591913
vt 0.526902 3.634780
vt 0.533154 3.636883
vt 0.552557 3.624128
vt 0.552557 3.661839
vt 0.535238 3.643193
vt 0.535239 3.715521
vt 0.548002 3.688680
vt 0.543448 3.715521
vt 0.483423 3.502375
vt 0.488484 3.521353
vt 0.483423 3.525426
vt 0.499998 3.518701
vt 0.490464 3.495270
vt 0.499998 3.492825
vt 0.509531 3.495270
vt 0.516572 3.502375
vt 0.511511 3.521353
vt 0.516572 3.525426
vt 0.408659 0.500590
vt 0.440145 0.500590
vt 0.408659 0.527367
vt 0.440145 0.527367
vt 0.591341 0.527367
vt 0.559855 0.527367
vt 0.591341 0.500590
vt 0.559855 0.500590
vt 0.408659 3.816730
vt 0.440145 3.835856
vt 0.408659 3.835856
vt 0.440145 3.797605
vt 0.408659 3.797605
vt 3.835856 0.527367
vt 3.797605 0.527367
vt 3.835856 0.500590
vt 3.797605 0.500590
vt 0.362859 3.873500
vt 0.362859 3.837156
vt 0.375717 3.873498
vt 0.375717 3.752684
vt 0.350001 3.837155
vt 0.407148 3.880782
vt 0.407149 3.837157
vt 0.428319 3.880782
vt 0.456542 3.837157
vt 0.456542 3.994379
vt 0.428320 4.005693
vt 0.456541 4.005694
vt 0.456552 0.470274
vt 0.499997 0.470274
vt 0.456552 0.498348
vt 0.499997 0.498348
vt 0.543443 0.498348
vt 0.543443 0.470274
vt 0.456552 0.467958
vt 0.456552 0.439884
vt 0.499997 0.467958
vt 0.499997 0.439884
vt 0.543443 0.439884
vt 0.543443 0.467958
vt -3.107913 0.484311
vt -3.106078 0.484311
vt -3.107913 0.498348
vt -3.083775 0.498348
vt -3.083775 0.470274
vt -3.106078 0.470274
vt -3.107913 0.453921
vt -3.106078 0.453921
vt -3.107913 0.467958
vt -3.083775 0.467958
vt -3.083775 0.439884
vt -3.106078 0.439884
vt 0.464481 0.423532
vt 0.458973 0.421095
vt 0.499997 0.423532
vt 0.456552 0.415554
vt 0.456552 0.379105
vt 0.499997 0.379105
vt 0.543443 0.379105
vt 0.543443 0.415554
vt 0.541022 0.421095
vt 0.535514 0.423532
vt 0.275686 3.620503
vt 0.250644 3.591827
vt 0.275686 3.591827
vt 0.275686 3.636133
vt 0.250644 3.664810
vt 0.275686 3.684052
vt 0.285261 3.620503
vt 0.285261 3.636133
vt 3.903752 0.421213
vt 3.903752 0.379103
vt 4.071353 0.421213
vt 4.071353 0.379103
vt 0.677914 0.379103
vt 0.698003 0.379103
vt 0.677914 0.421213
vt 0.698003 0.421213
vt 0.322086 4.071353
vt 0.301997 4.071353
vt 0.322086 3.903752
vt 0.301998 3.903752
vt 0.322086 0.421213
vt 0.301998 0.421213
vt 0.322086 0.379103
vt 0.301998 0.379103
vt 3.636133 0.379103
vt 3.636133 0.421213
vt 3.620503 0.379103
vt 3.620503 0.421213
vt 0.714739 0.379103
vt 0.724314 0.379103
vt 0.714739 0.421213
vt 0.724314 0.421213
vt 0.285261 0.421213
vt 0.275686 0.421213
vt 0.285261 0.379103
vt 0.275686 0.379103
vt 0.275686 3.557005
vt 0.256949 3.547900
vt 0.275686 3.465063
vt 0.256949 3.474168
vt 0.243983 3.531494
vt 0.243983 3.490576
vt 0.239355 3.511035
vt 3.476485 0.566653
vt 3.476485 0.584496
vt 3.469597 0.566653
vt 3.469597 0.584496
vt 3.461980 0.584496
vt 3.461980 0.566653
vt 3.454166 0.566653
vt 3.454166 0.584496
vt 3.449379 0.578869
vt 3.446549 0.566653
vt 3.449379 0.582212
vt 3.446549 0.578869
vt 3.446549 0.582212
vt 3.439662 0.566653
vt 3.446549 0.584496
vt 3.444317 0.578869
vt 3.444317 0.582212
vt 3.439662 0.584496
vt 0.552151 3.624126
vt 0.555300 3.653134
vt 0.552151 3.661836
vt 0.557622 3.646720
vt 0.560772 3.638018
vt 0.560771 3.624127
vt 0.426997 0.560002
vt 0.427017 0.548754
vt 3.424394 0.548766
vt 3.395947 0.548756
vt 3.424394 0.531059
vt 3.395947 0.531048
vt 3.506619 0.548763
vt 3.506619 0.531056
vt 0.543453 3.796305
vt 0.543453 3.752685
vt 0.592846 3.796305
vt 0.592846 3.700799
vt 0.592846 3.620481
vt 0.543493 3.535690
vt 0.572943 3.535690
vt 0.572943 3.505748
vt 0.602631 3.698105
vt 0.602632 3.623175
vt 0.604159 3.695770
vt 0.604159 3.625511
vt 0.571677 3.588550
vt 0.553682 3.588550
vt 0.571677 3.577347
vt 0.543457 3.588549
vt 0.553682 3.602733
vt 0.576673 3.535702
vt 0.578185 3.535702
vt 0.573944 3.519875
vt 0.543461 3.519875
vt 0.576811 3.577348
vt 0.583125 3.564263
vt 0.581574 3.574114
vt 0.583913 3.568823
vt 0.543456 3.602733
vt 0.578229 3.614520
vt 0.578231 3.602733
vt 0.578229 3.706461
vt 0.543454 3.752684
vt 0.599025 3.706460
vt 0.599025 3.614520
vt 0.617762 3.697356
vt 0.617762 3.623624
vt 0.630728 3.680950
vt 0.630729 3.640032
vt 0.635356 3.660491
vt 0.578230 3.752685
vt 0.543453 3.880781
vt 0.571677 3.880783
vt 0.543453 3.905076
vt 0.571676 3.905077
vt 0.617068 3.854849
vt 0.606422 3.880783
vt 0.617069 3.870039
vt 0.617069 3.778620
vt 0.617070 3.763429
vt 0.606422 3.752685
vt 0.544350 3.709968
vt 0.538694 3.747897
vt 0.530710 3.709965
vt 0.530710 3.719562
vt 0.528089 3.729216
vt 0.520224 3.735008
vt 0.509270 3.747898
vt 0.509344 3.736611
vt 0.559850 0.527367
vt 0.559850 0.500590
vt 0.591336 0.527367
vt 0.591336 0.500590
vt 0.440150 0.500590
vt 0.440150 0.527367
vt 0.408664 0.500590
vt 0.408664 0.527367
vt 0.559850 3.835856
vt 0.591336 3.816731
vt 0.591336 3.835856
vt 0.559850 3.797605
vt 0.591336 3.797605
vt -2.797605 0.500590
vt -2.797605 0.527367
vt -2.835856 0.500590
vt -2.835856 0.527367
vt 0.637136 3.873500
vt 0.624278 3.873498
vt 0.637136 3.837156
vt 0.624278 3.752684
vt 0.649994 3.837155
vt 0.592847 3.880782
vt 0.571676 3.880782
vt 0.592846 3.837157
vt 0.543453 3.837157
vt 0.543453 3.994379
vt 0.571674 4.005693
vt 0.543453 4.005694
vt 4.107913 0.484311
vt 4.107913 0.498348
vt 4.106078 0.484311
vt 4.083775 0.498348
vt 4.083775 0.470274
vt 4.106078 0.470274
vt 4.107913 0.453921
vt 4.107913 0.467958
vt 4.106078 0.453921
vt 4.083775 0.467958
vt 4.083775 0.439884
vt 4.106078 0.439884
vt 0.749351 3.591827
vt 0.724309 3.620503
vt 0.724309 3.591827
vt 0.724309 3.636134
vt 0.749351 3.664810
vt 0.724309 3.684053
vt 0.714734 3.620503
vt 0.714734 3.636134
vt -3.071353 0.379103
vt -2.903752 0.379103
vt -3.071353 0.421213
vt -2.903752 0.421213
vt 0.302003 0.421213
vt 0.302003 0.379103
vt 0.322091 0.421213
vt 0.322091 0.379103
vt 0.697997 3.903752
vt 0.697997 4.071353
vt 0.677909 3.903752
vt 0.677909 4.071353
vt 0.697997 0.379103
vt 0.697997 0.421213
vt 0.677909 0.379103
vt 0.677909 0.421213
vt -2.620503 0.421213
vt -2.636134 0.421213
vt -2.620503 0.379103
vt -2.636134 0.379103
vt 0.275691 0.421213
vt 0.275691 0.379103
vt 0.285266 0.421213
vt 0.285266 0.379103
vt 0.724309 0.379103
vt 0.724309 0.421213
vt 0.714734 0.379103
vt 0.714734 0.421213
vt 0.724309 3.557005
vt 0.724310 3.465063
vt 0.743046 3.547900
vt 0.743046 3.474169
vt 0.756012 3.531494
vt 0.756013 3.490576
vt 0.760640 3.511035
vt 0.466368 0.566653
vt 0.475827 0.566653
vt 0.473045 0.578870
vt 0.466368 0.584496
vt 0.475827 0.578870
vt 0.473045 0.582212
vt 0.475827 0.582212
vt 0.475827 0.584496
vt 0.478736 0.582212
vt 0.487366 0.566653
vt 0.487366 0.584496
vt 0.478736 0.578870
vt 0.496831 0.578869
vt 0.499998 0.566653
vt 0.496831 0.582212
vt 0.499998 0.578869
vt 0.499998 0.582212
vt 0.499998 0.584496
vt 0.503164 0.578869
vt 0.512629 0.584496
vt 0.503164 0.582212
vt 0.512629 0.566653
vt 0.521260 0.578870
vt 0.521260 0.582212
vt 0.524169 0.578870
vt 0.524169 0.584496
vt 0.524169 0.566653
vt 0.524169 0.582212
vt 0.526951 0.578870
vt 0.533627 0.566653
vt 0.533627 0.584496
vt 0.526951 0.582212
vt 0.494854 4.106078
vt 0.499997 4.106078
vt 0.499997 4.107913
vt 0.505141 4.106078
vt 0.456552 4.107913
vt 0.543443 4.107913
vt 0.456552 4.083775
vt 0.494854 4.091649
vt 0.543443 4.083775
vt 0.505141 4.091649
vt 0.499997 4.091649
vt 0.499997 4.083775
vt 0.418483 3.816733
vt 0.394929 3.828179
vt 0.392340 3.816733
vt 0.394929 3.805286
vt 0.402183 3.837358
vt 0.402183 3.796108
vt 0.412665 3.842452
vt 0.412665 3.791014
vt 0.424300 3.842452
vt 0.424300 3.791014
vt 0.434783 3.837358
vt 0.434783 3.796108
vt 0.442037 3.828179
vt 0.442037 3.805286
vt 0.444626 3.816733
vt 0.605066 3.828179
vt 0.581512 3.816733
vt 0.607655 3.816733
vt 0.605066 3.805286
vt 0.597812 3.837358
vt 0.597812 3.796108
vt 0.587330 3.842452
vt 0.587330 3.791014
vt 0.575695 3.842452
vt 0.575695 3.791014
vt 0.565212 3.837358
vt 0.565212 3.796108
vt 0.557958 3.828179
vt 0.557958 3.805286
vt 0.555369 3.816733
vt 0.499998 3.545478
vt 0.488655 3.521710
vt 0.499998 3.519098
vt 0.511342 3.521710
vt 0.479558 3.529030
vt 0.520438 3.529030
vt 0.474510 3.539608
vt 0.525486 3.539608
vt 0.474510 3.551348
vt 0.525486 3.551348
vt 0.479558 3.561926
vt 0.520438 3.561926
vt 0.488655 3.569246
vt 0.511342 3.569246
vt 0.499998 3.571858
s 1
g Montana_deckhouse_A1_001_4_Iowa_Deckhouse_A1_001_3.006_steel_4
usemtl steel_4
f 19/1/1 18/2/2 17/3/1
f 20/4/2 17/3/1 18/2/2
f 20/4/2 18/2/2 21/5/3
f 22/6/3 21/5/3 18/2/2
f 22/6/3 23/7/4 21/5/3
f 24/8/5 21/5/3 23/7/4
f 23/7/4 25/9/6 24/8/5
f 23/7/4 26/10/7 25/9/6
f 27/11/8 24/8/5 25/9/6
f 28/12/9 25/9/6 26/10/7
f 27/11/8 29/13/10 24/8/5
f 26/10/7 30/14/11 28/12/9
f 31/15/12 24/8/5 29/13/10
f 32/16/13 28/12/9 30/14/11
f 29/13/10 33/17/14 31/15/12
f 30/14/11 34/18/15 32/16/13
f 34/18/15 31/15/12 33/17/14
f 33/17/14 32/16/13 34/18/15
f 37/19/16 36/20/17 35/21/16
f 38/22/17 35/21/16 36/20/17
f 36/20/17 39/23/18 38/22/17
f 40/24/18 38/22/17 39/23/18
f 39/23/18 41/25/19 40/24/18
f 42/26/19 40/24/18 41/25/19
f 42/26/19 41/25/19 43/27/20
f 44/28/20 43/27/20 41/25/19
f 43/27/20 44/28/20 45/29/21
f 46/30/21 45/29/21 44/28/20
f 45/29/21 46/30/21 47/31/22
f 48/32/22 47/31/22 46/30/21
f 51/33/23 50/34/23 49/35/23
f 52/36/23 49/35/23 50/34/23
f 49/35/23 52/36/23 53/37/23
f 54/38/23 53/37/23 52/36/23
f 53/37/23 54/38/23 55/39/23
f 56/40/23 55/39/23 54/38/23
f 55/39/23 56/40/23 57/41/23
f 58/42/23 57/41/23 56/40/23
f 57/41/23 58/42/23 59/43/23
f 60/44/23 59/43/23 58/42/23
f 60/44/23 61/45/23 59/43/23
f 62/46/23 59/43/23 61/45/23
f 61/45/23 63/47/23 62/46/23
f 64/48/23 62/46/23 63/47/23
f 63/47/23 65/49/23 64/48/23
f 66/50/23 64/48/23 65/49/23
f 65/49/23 67/51/23 66/50/23
f 68/52/23 66/50/23 67/51/23
f 67/51/23 69/53/23 68/52/23
f 70/54/23 68/52/23 69/53/23
f 73/55/23 72/56/23 71/57/23
f 74/58/23 72/56/23 73/55/23
f 74/58/23 75/59/23 72/56/23
f 76/60/23 72/56/23 75/59/23
f 79/61/24 78/62/25 77/63/25
f 80/64/25 77/63/25 78/62/25
f 83/65/26 82/66/26 81/67/27
f 84/68/28 81/67/27 82/66/26
f 85/69/23 81/67/27 84/68/28
f 86/70/23 81/67/27 85/69/23
f 81/67/27 86/70/23 87/71/23
f 81/67/27 87/71/23 88/72/29
f 88/72/29 89/73/23 81/67/27
f 90/74/30 81/67/27 89/73/23
f 93/75/31 92/76/32 91/77/33
f 94/78/34 91/77/33 92/76/32
f 91/77/33 94/78/34 95/79/35
f 96/80/35 95/79/35 94/78/34
f 95/79/35 96/80/35 97/81/36
f 98/82/36 97/81/36 96/80/35
f 98/82/36 99/83/37 97/81/36
f 100/84/37 97/81/36 99/83/37
f 99/83/37 101/85/38 100/84/37
f 102/86/38 100/84/37 101/85/38
f 101/85/38 103/87/39 102/86/38
f 104/88/40 102/86/38 103/87/39
f 107/89/41 106/90/41 105/91/41
f 108/92/41 105/91/41 106/90/41
f 108/92/41 109/93/41 105/91/41
f 110/94/41 105/91/41 109/93/41
f 113/95/42 112/96/42 111/97/42
f 114/98/42 111/97/42 112/96/42
f 117/97/43 116/98/43 115/99/43
f 118/100/43 115/99/43 116/98/43
f 121/101/19 120/102/19 119/61/44
f 119/61/44 122/63/44 121/101/19
f 123/103/19 121/101/19 122/63/44
f 123/103/19 124/104/44 121/101/19
f 125/105/44 121/101/19 124/104/44
f 126/106/19 121/101/19 125/105/44
f 129/107/23 128/108/23 127/109/23
f 130/110/23 127/109/23 128/108/23
f 130/110/23 131/111/23 127/109/23
f 132/112/23 127/109/23 131/111/23
f 132/112/23 131/111/23 133/113/28
f 131/111/23 134/114/28 133/113/28
f 130/110/23 135/115/23 131/111/23
f 136/116/23 131/111/23 135/115/23
f 135/115/23 137/117/23 136/116/23
f 138/118/23 136/116/23 137/117/23
f 141/119/23 140/120/45 139/121/29
f 142/122/46 140/120/45 141/119/23
f 140/120/45 142/122/46 143/123/45
f 143/123/45 142/122/46 144/124/47
f 142/122/46 145/69/23 144/124/47
f 146/125/23 144/124/47 145/69/23
f 146/125/23 145/69/23 147/126/23
f 147/126/23 145/69/23 148/127/23
f 149/70/23 148/127/23 145/69/23
f 149/70/23 150/71/23 148/127/23
f 151/128/23 148/127/23 150/71/23
f 150/71/23 152/129/23 151/128/23
f 152/129/23 150/71/23 153/130/48
f 154/131/49 153/130/48 150/71/23
f 154/131/49 155/132/50 153/130/48
f 154/131/49 156/133/50 155/132/50
f 156/133/50 154/131/49 157/134/23
f 156/133/50 157/134/23 158/135/28
f 161/136/51 160/137/23 159/138/51
f 162/139/23 159/138/51 160/137/23
f 159/138/51 162/139/23 163/140/23
f 162/139/23 160/137/23 164/141/23
f 164/141/23 160/137/23 165/142/23
f 164/141/23 166/143/23 162/139/23
f 167/144/23 162/139/23 166/143/23
f 160/137/23 168/145/28 165/142/23
f 168/145/28 169/146/28 165/142/23
f 168/145/28 170/147/23 169/146/28
f 171/148/28 169/146/28 170/147/23
f 172/149/23 163/140/23 162/139/23
f 172/149/23 173/150/23 163/140/23
f 173/150/23 174/151/23 163/140/23
f 173/150/23 172/149/23 175/152/23
f 176/153/23 175/152/23 172/149/23
f 175/152/23 177/154/23 173/150/23
f 178/155/23 173/150/23 177/154/23
f 177/154/23 179/156/23 178/155/23
f 180/157/23 178/155/23 179/156/23
f 179/156/23 181/158/23 180/157/23
f 182/159/23 180/157/23 181/158/23
f 181/158/23 183/160/23 182/159/23
f 184/161/23 175/152/23 176/153/23
f 176/153/23 185/162/23 184/161/23
f 186/163/23 184/161/23 185/162/23
f 185/162/23 187/164/23 186/163/23
f 188/165/23 186/163/23 187/164/23
f 186/163/23 189/166/23 184/161/23
f 186/163/23 190/167/23 189/166/23
f 191/168/23 189/166/23 190/167/23
f 192/169/23 184/161/23 189/166/23
f 192/169/23 193/170/23 184/161/23
f 194/171/23 184/161/23 193/170/23
f 7/172/28 6/173/28 195/174/51
f 5/175/23 195/174/51 6/173/28
f 5/175/23 8/176/51 195/174/51
f 196/177/51 195/174/51 8/176/51
f 196/177/51 8/176/51 197/178/51
f 9/179/23 197/178/51 8/176/51
f 197/178/51 9/179/23 12/180/29
f 12/180/29 13/181/29 197/178/51
f 200/182/23 199/183/23 198/184/23
f 201/185/23 200/182/23 198/184/23
f 202/186/23 200/182/23 201/185/23
f 200/182/23 202/186/23 203/187/23
f 204/188/23 203/187/23 202/186/23
f 204/188/23 205/189/23 203/187/23
f 206/190/23 203/187/23 205/189/23
f 207/191/23 206/190/23 205/189/23
f 206/190/23 207/191/23 208/192/23
f 209/193/23 208/192/23 207/191/23
f 209/193/23 210/194/23 208/192/23
f 211/195/23 208/192/23 210/194/23
f 211/195/23 210/194/23 212/196/23
f 213/197/23 212/196/23 210/194/23
f 213/197/23 214/198/23 212/196/23
f 215/199/23 212/196/23 214/198/23
f 215/199/23 214/198/23 216/200/23
f 215/199/23 216/200/23 217/201/23
f 218/202/23 217/201/23 216/200/23
f 218/202/23 219/203/23 217/201/23
f 220/204/23 217/201/23 219/203/23
f 220/204/23 219/203/23 221/205/23
f 220/204/23 221/205/23 222/206/23
f 223/207/23 220/204/23 222/206/23
f 226/208/23 225/209/23 224/210/23
f 227/211/23 224/210/23 225/209/23
f 228/212/23 224/210/23 227/211/23
f 229/213/23 224/210/23 228/212/23
f 224/210/23 229/213/23 230/214/23
f 231/215/23 230/214/23 229/213/23
f 233/216/52 2/217/52 232/218/52
f 2/217/52 1/219/29 232/218/52
f 1/219/29 234/220/53 232/218/52
f 234/220/53 1/219/29 235/221/23
f 236/222/23 235/221/23 1/219/29
f 236/222/23 237/189/23 235/221/23
f 238/223/23 235/221/23 237/189/23
f 237/189/23 239/191/23 238/223/23
f 240/193/23 238/223/23 239/191/23
f 238/223/23 240/193/23 241/224/23
f 242/225/23 241/224/23 240/193/23
f 242/225/23 243/197/23 241/224/23
f 244/226/23 241/224/23 243/197/23
f 244/226/23 243/197/23 245/198/23
f 245/198/23 246/200/23 244/226/23
f 244/226/23 246/200/23 247/227/23
f 248/228/23 247/227/23 246/200/23
f 248/228/23 3/229/28 247/227/23
f 249/230/54 247/227/23 3/229/28
f 249/230/54 3/229/28 250/231/55
f 3/229/28 4/232/55 250/231/55
f 4/232/55 251/233/55 250/231/55
f 252/234/56 11/235/57 10/236/58
f 14/237/57 11/235/57 252/234/56
f 253/238/56 14/237/57 252/234/56
f 253/238/56 254/239/59 14/237/57
f 254/239/59 255/240/60 14/237/57
f 14/237/57 255/240/60 256/241/60
f 15/242/61 14/237/57 256/241/60
f 15/242/61 256/241/60 16/243/62
f 259/244/41 258/245/41 257/246/41
f 260/247/41 257/246/41 258/245/41
f 263/248/19 262/249/19 261/250/19
f 264/251/19 261/250/19 262/249/19
f 267/252/23 266/253/23 265/254/23
f 268/255/23 266/253/23 267/252/23
f 269/256/23 268/255/23 267/252/23
f 272/257/63 271/258/63 270/259/63
f 273/260/63 270/259/63 271/258/63
f 276/261/23 275/262/23 274/263/23
f 277/264/23 274/263/23 275/262/23
f 278/265/23 277/264/23 275/262/23
f 281/266/23 280/267/23 279/268/29
f 282/269/29 279/268/29 280/267/23
f 282/269/29 283/270/64 279/268/29
f 284/271/64 279/268/29 283/270/64
f 285/272/65 284/271/64 283/270/64
f 288/273/41 287/274/41 286/275/41
f 289/276/41 286/275/41 287/274/41
f 289/276/41 287/274/41 290/277/41
f 291/278/41 290/277/41 287/274/41
f 294/279/41 293/280/41 292/281/41
f 295/282/41 292/281/41 293/280/41
f 295/282/41 296/283/41 292/281/41
f 297/284/41 292/281/41 296/283/41
f 300/285/66 299/286/66 298/287/66
f 301/288/66 298/287/66 299/286/66
f 302/289/66 301/288/66 299/286/66
f 303/290/66 302/289/66 299/286/66
f 306/291/66 305/292/66 304/293/66
f 307/294/66 304/293/66 305/292/66
f 305/292/66 308/295/66 307/294/66
f 309/296/66 308/295/66 305/292/66
f 312/297/41 311/298/41 310/299/41
f 313/300/41 310/299/41 311/298/41
f 313/300/41 314/301/41 310/299/41
f 315/302/41 310/299/41 314/301/41
f 315/302/41 316/303/41 310/299/41
f 317/304/41 310/299/41 316/303/41
f 317/304/41 318/305/41 310/299/41
f 319/306/41 310/299/41 318/305/41
f 322/307/23 321/308/23 320/309/23
f 322/307/23 323/310/23 321/308/23
f 324/311/23 321/308/23 323/310/23
f 325/312/23 324/311/23 323/310/23
f 322/307/23 326/313/23 323/310/23
f 327/314/23 323/310/23 326/313/23
f 330/315/63 329/316/63 328/317/63
f 331/318/63 328/317/63 329/316/63
f 334/319/19 333/320/19 332/321/19
f 335/322/19 332/321/19 333/320/19
f 338/323/23 337/324/23 336/325/23
f 339/326/23 336/325/23 337/324/23
f 342/327/41 341/328/41 340/329/41
f 343/330/41 340/329/41 341/328/41
f 346/331/63 345/332/63 344/333/63
f 347/334/63 344/333/63 345/332/63
f 350/335/19 349/336/19 348/337/19
f 351/338/19 348/337/19 349/336/19
f 354/339/41 353/340/41 352/341/41
f 355/342/41 352/341/41 353/340/41
f 358/343/23 357/344/23 356/345/23
f 359/346/23 356/345/23 357/344/23
f 357/344/23 360/347/23 359/346/23
f 361/348/23 359/346/23 360/347/23
f 362/349/23 361/348/23 360/347/23
f 365/350/67 364/351/67 363/352/68
f 366/353/68 363/352/68 364/351/67
f 366/353/68 367/354/69 363/352/68
f 368/355/69 363/352/68 367/354/69
f 368/355/69 367/354/69 369/356/70
f 370/357/71 369/356/70 367/354/69
f 369/356/70 370/357/71 371/358/72
f 369/356/70 371/358/72 372/359/73
f 373/360/74 371/358/72 370/357/71
f 374/361/75 372/359/73 371/358/72
f 373/360/74 370/357/71 375/362/76
f 372/359/73 374/361/75 376/363/77
f 377/364/78 375/362/76 370/357/71
f 378/365/79 376/363/77 374/361/75
f 375/362/76 377/364/78 379/366/80
f 376/363/77 378/365/79 380/367/81
f 380/367/81 379/366/80 377/364/78
f 379/366/80 380/367/81 378/365/79
f 383/368/23 382/369/23 381/370/23
f 383/368/23 384/371/23 382/369/23
f 384/371/23 383/368/23 385/372/23
f 386/373/23 385/372/23 383/368/23
f 389/374/82 388/375/82 387/104/82
f 390/105/83 387/104/82 388/375/82
f 393/376/84 392/377/84 391/378/84
f 394/379/84 391/378/84 392/377/84
f 397/380/85 396/376/85 395/381/85
f 398/378/85 395/381/85 396/376/85
f 401/382/23 400/383/23 399/384/23
f 402/385/23 399/384/23 400/383/23
f 402/385/23 400/383/23 403/386/23
f 404/387/23 403/386/23 400/383/23
f 403/386/23 404/387/23 405/388/29
f 406/389/29 403/386/23 405/388/29
f 402/385/23 403/386/23 407/390/23
f 408/391/23 407/390/23 403/386/23
f 407/390/23 408/391/23 409/392/23
f 410/393/23 409/392/23 408/391/23
f 413/394/51 412/395/51 411/396/23
f 414/397/23 411/396/23 412/395/51
f 412/395/51 415/398/23 414/397/23
f 411/396/23 414/397/23 416/399/23
f 411/396/23 416/399/23 417/400/23
f 416/399/23 414/397/23 418/401/23
f 419/402/23 418/401/23 414/397/23
f 420/403/29 411/396/23 417/400/23
f 421/404/29 420/403/29 417/400/23
f 420/403/29 421/404/29 422/405/23
f 423/406/29 422/405/23 421/404/29
f 424/407/23 414/397/23 415/398/23
f 425/408/23 424/407/23 415/398/23
f 426/409/23 425/408/23 415/398/23
f 425/408/23 427/410/23 424/407/23
f 428/411/23 424/407/23 427/410/23
f 427/410/23 425/408/23 429/412/23
f 430/413/23 429/412/23 425/408/23
f 429/412/23 430/413/23 431/414/23
f 432/415/23 431/414/23 430/413/23
f 431/414/23 432/415/23 433/416/23
f 434/417/23 433/416/23 432/415/23
f 435/418/23 433/416/23 434/417/23
f 427/410/23 436/419/23 428/411/23
f 428/411/23 436/419/23 437/420/23
f 438/421/23 437/420/23 436/419/23
f 437/420/23 438/421/23 439/422/23
f 440/423/23 439/422/23 438/421/23
f 438/421/23 436/419/23 441/424/23
f 438/421/23 441/424/23 442/425/23
f 443/426/23 442/425/23 441/424/23
f 444/427/23 441/424/23 436/419/23
f 444/427/23 436/419/23 445/428/23
f 446/429/23 445/428/23 436/419/23
f 449/430/23 448/431/23 447/432/23
f 450/433/23 447/432/23 448/431/23
f 448/431/23 451/434/23 450/433/23
f 448/431/23 452/435/23 451/434/23
f 448/431/23 453/436/23 452/435/23
f 454/437/23 452/435/23 453/436/23
f 457/438/41 456/439/41 455/440/41
f 458/441/41 455/440/41 456/439/41
f 461/442/19 460/443/19 459/444/19
f 462/445/19 459/444/19 460/443/19
f 465/446/23 464/447/23 463/448/23
f 465/446/23 466/449/23 464/447/23
f 466/449/23 467/450/23 464/447/23
f 470/451/66 469/452/66 468/453/66
f 471/454/66 468/453/66 469/452/66
f 474/455/23 473/456/23 472/457/23
f 475/458/23 472/457/23 473/456/23
f 475/458/23 476/459/23 472/457/23
f 479/460/23 478/461/28 477/462/23
f 480/463/28 477/462/23 478/461/28
f 480/463/28 478/461/28 481/464/86
f 482/465/86 481/464/86 478/461/28
f 482/465/86 483/466/87 481/464/86
f 486/467/63 485/468/63 484/469/63
f 487/470/63 484/469/63 485/468/63
f 487/470/63 488/471/63 484/469/63
f 488/471/63 489/472/63 484/469/63
f 492/473/63 491/474/63 490/475/63
f 493/476/63 490/475/63 491/474/63
f 494/477/63 490/475/63 493/476/63
f 494/477/63 495/478/63 490/475/63
f 498/479/23 497/480/23 496/481/23
f 497/480/23 498/479/23 499/482/23
f 500/483/23 499/482/23 498/479/23
f 500/483/23 501/484/23 499/482/23
f 497/480/23 499/482/23 502/485/23
f 503/486/23 502/485/23 499/482/23
f 506/487/66 505/488/66 504/489/66
f 507/490/66 504/489/66 505/488/66
f 510/491/19 509/492/19 508/493/19
f 511/494/19 508/493/19 509/492/19
f 514/495/23 513/496/23 512/497/23
f 515/498/23 512/497/23 513/496/23
f 518/499/41 517/500/41 516/501/41
f 519/502/41 516/501/41 517/500/41
f 522/503/66 521/504/66 520/505/66
f 523/506/66 520/505/66 521/504/66
f 526/507/19 525/508/19 524/509/19
f 527/510/19 524/509/19 525/508/19
f 530/511/41 529/512/41 528/513/41
f 531/514/41 528/513/41 529/512/41
f 534/515/23 533/516/23 532/517/23
f 535/518/23 532/517/23 533/516/23
f 532/517/23 535/518/23 536/519/23
f 537/520/23 536/519/23 535/518/23
f 537/520/23 538/521/23 536/519/23
f 541/522/88 540/523/89 539/524/90
f 541/522/88 539/524/90 542/525/91
f 543/526/92 539/524/90 540/523/89
f 544/527/93 542/525/91 539/524/90
f 544/527/93 545/528/94 542/525/91
f 546/529/95 542/525/91 545/528/94
f 545/528/94 547/530/96 546/529/95
f 540/523/89 548/531/97 543/526/92
f 549/532/98 546/529/95 547/530/96
f 550/533/99 543/526/92 548/531/97
f 547/530/96 550/533/99 549/532/98
f 548/531/97 549/532/98 550/533/99
f 548/531/97 551/534/100 549/532/98
f 548/531/97 552/535/101 551/534/100
f 553/536/102 549/532/98 551/534/100
f 554/537/41 551/534/100 552/535/101
f 553/536/102 555/538/103 549/532/98
f 556/539/41 549/532/98 555/538/103
f 554/537/41 552/535/101 557/540/104
f 556/539/41 555/538/103 558/541/105
f 559/542/106 558/541/105 555/538/103
f 559/542/106 557/540/104 558/541/105
f 560/543/107 557/540/104 552/535/101
f 560/543/107 558/541/105 557/540/104
f 560/543/107 561/544/108 558/541/105
f 562/545/109 558/541/105 561/544/108
f 561/544/108 560/543/107 563/546/110
f 558/541/105 562/545/109 564/547/111
f 565/548/112 563/546/110 560/543/107
f 566/549/113 564/547/111 562/545/109
f 563/546/110 565/548/112 567/550/114
f 568/551/115 567/550/114 565/548/112
f 564/547/111 566/549/113 569/552/116
f 568/551/115 569/552/116 567/550/114
f 570/553/117 569/552/116 566/549/113
f 570/553/117 567/550/114 569/552/116
f 573/554/23 572/555/23 571/556/23
f 572/555/23 574/557/23 571/556/23
f 571/556/23 575/558/23 573/554/23
f 576/559/23 571/556/23 574/557/23
f 575/558/23 577/560/23 573/554/23
f 578/561/23 573/554/23 577/560/23
f 576/559/23 574/557/23 579/562/23
f 580/563/23 579/562/23 574/557/23
f 578/561/23 577/560/23 581/564/23
f 580/563/23 581/564/23 579/562/23
f 582/565/23 581/564/23 577/560/23
f 582/565/23 579/562/23 581/564/23
f 585/555/23 584/556/23 583/554/23
f 585/555/23 586/557/23 584/556/23
f 587/558/23 583/554/23 584/556/23
f 588/559/23 584/556/23 586/557/23
f 583/554/23 587/558/23 589/561/23
f 586/557/23 590/563/23 588/559/23
f 591/560/23 589/561/23 587/558/23
f 592/562/23 588/559/23 590/563/23
f 589/561/23 591/560/23 593/564/23
f 590/563/23 593/564/23 592/562/23
f 594/565/23 593/564/23 591/560/23
f 594/565/23 592/562/23 593/564/23
f 597/566/23 596/567/23 595/568/23
f 597/566/23 595/568/23 598/569/23
f 597/566/23 599/570/23 596/567/23
f 597/566/23 598/569/23 600/571/23
f 597/566/23 601/572/23 599/570/23
f 597/566/23 600/571/23 602/573/23
f 597/566/23 603/574/23 601/572/23
f 597/566/23 602/573/23 604/575/23
f 597/566/23 605/576/23 603/574/23
f 597/566/23 604/575/23 606/577/23
f 597/566/23 607/578/23 605/576/23
f 597/566/23 606/577/23 608/579/23
f 597/566/23 609/580/23 607/578/23
f 597/566/23 608/579/23 609/580/23
f 612/581/23 611/582/23 610/583/23
f 610/583/23 611/582/23 613/584/23
f 614/585/23 611/582/23 612/581/23
f 613/584/23 611/582/23 615/586/23
f 616/587/23 611/582/23 614/585/23
f 615/586/23 611/582/23 617/588/23
f 618/589/23 611/582/23 616/587/23
f 617/588/23 611/582/23 619/590/23
f 620/591/23 611/582/23 618/589/23
f 619/590/23 611/582/23 621/592/23
f 622/593/23 611/582/23 620/591/23
f 621/592/23 611/582/23 623/594/23
f 624/595/23 611/582/23 622/593/23
f 623/594/23 611/582/23 624/595/23
f 627/596/23 626/597/23 625/598/23
f 627/596/23 625/598/23 628/599/23
f 627/596/23 629/600/23 626/597/23
f 627/596/23 628/599/23 630/601/23
f 627/596/23 631/602/23 629/600/23
f 627/596/23 630/601/23 632/603/23
f 627/596/23 633/604/23 631/602/23
f 627/596/23 632/603/23 634/605/23
f 627/596/23 635/606/23 633/604/23
f 627/596/23 634/605/23 636/607/23
f 627/596/23 637/608/23 635/606/23
f 627/596/23 636/607/23 638/609/23
f 627/596/23 639/610/23 637/608/23
f 627/596/23 638/609/23 639/610/23
f 641/410/23 640/408/23 642/412/23
f 643/413/23 642/412/23 640/408/23
f 642/412/23 643/413/23 644/414/23
f 645/415/23 644/414/23 643/413/23
f 644/414/23 645/415/23 646/416/23
f 647/417/23 646/416/23 645/415/23
f 648/418/23 646/416/23 647/417/23
f 650/410/23 651/412/23 649/408/23
f 652/413/23 649/408/23 651/412/23
f 651/412/23 653/414/23 652/413/23
f 654/415/23 652/413/23 653/414/23
f 653/414/23 655/416/23 654/415/23
f 656/417/23 654/415/23 655/416/23
f 657/418/23 656/417/23 655/416/23
