# Blender 5.1.0
# www.blender.org
mtllib Bsh_Hull_Midsection_Dredn_BC2_001_2.mtl
o Bsh_Hull_Midsection_Dredn_BC2_001_2
v -12.646042 5.000002 -0.318303
v -12.646024 10.000016 -0.318308
v -12.646027 0.000001 -0.318309
v 12.646044 4.999999 -0.318295
v 12.646027 10.000013 -0.318301
v 12.646025 -0.000002 -0.318301
v -12.646033 0.000001 1.524264
v -12.646047 5.000002 1.524271
v -12.646031 10.000016 1.524265
v 12.646032 -0.000001 1.524271
v 12.646049 4.999999 1.524277
v 12.646032 10.000013 1.524271
vn -1.0000 -0.0000 -0.0000
vn -0.9991 -0.0000 -0.0435
vn 1.0000 -0.0000 -0.0000
vn 0.9991 -0.0000 -0.0435
vt -16.028522 0.238553
vt -16.104290 0.238553
vt -16.028522 0.210740
vt -16.104290 0.210741
vt -16.180058 0.210740
vt -16.180058 0.238553
vt 17.028522 0.238553
vt 17.028522 0.210741
vt 17.104290 0.238553
vt 17.104290 0.210741
vt 17.180058 0.210741
vt 17.180058 0.238553
s 1
g Bsh_Hull_Midsection_Dredn_BC2_001_2_waterline
usemtl waterline
f 7/1/1 8/2/1 3/3/2
f 1/4/2 3/3/2 8/2/1
f 1/4/2 8/2/1 2/5/2
f 9/6/1 2/5/2 8/2/1
f 10/7/3 6/8/4 11/9/3
f 4/10/4 11/9/3 6/8/4
f 4/10/4 5/11/4 11/9/3
f 12/12/3 11/9/3 5/11/4
