# Blender 5.1.0
# www.blender.org
mtllib Bsh_Hull_Rostrum_Dredn_C_001_1.mtl
o Bsh_Hull_Rostrum_Dredn_C_001_1
v -12.384459 10.000018 -6.322231
v -12.646016 16.000004 -0.318319
v -12.646007 10.000018 -0.318327
v -12.384470 16.000015 -6.322225
v -12.139334 16.000015 -8.095276
v -12.139322 10.000018 -8.095282
v -11.803387 22.000011 -8.095277
v -12.048520 22.000011 -6.322227
v -12.310069 22.000011 -0.318320
v -11.321592 28.000015 -8.095279
v -11.828274 28.000015 -0.318323
v -11.566726 28.000015 -6.322230
v -10.713248 34.000015 -8.095282
v -11.219554 34.000019 -0.318327
v -10.958007 34.000015 -6.322234
v -9.711788 40.000042 -8.095277
v -9.956679 40.000042 -6.322230
v -10.218225 40.000042 -0.318320
v -8.113785 46.000061 -6.322232
v -8.618849 46.000065 -0.318321
v -7.869030 46.000057 -8.095277
v -6.805945 52.000065 -0.318325
v -5.954234 52.000050 -6.322224
v -5.533533 52.000050 -8.101219
v -4.667475 57.809772 -0.318329
v -3.738495 57.809772 -6.322227
v -3.271519 57.809772 -8.104693
v -2.007683 64.017654 -6.295697
v -2.854958 64.017647 -0.318333
v -1.386424 70.011749 -0.318347
v -1.473160 64.017647 -8.059411
v -1.907379 57.809772 -9.320886
v -0.986892 64.017662 -8.889239
v -0.682405 64.017654 -9.203202
v -0.296162 70.014702 -8.439220
v -0.495095 70.014702 -8.198716
v -0.231583 72.579399 -7.707551
v -0.712089 70.014709 -7.538471
v -0.430522 72.505150 -7.498818
v -0.978669 70.014709 -5.991251
v -0.615987 72.250130 -6.864767
v -0.365947 74.995605 -6.257873
v -0.167002 75.144089 -6.434834
v -0.765556 71.815582 -5.593889
v -0.519884 74.485542 -5.650015
v -0.688109 73.617035 -4.614962
v -0.326316 76.565994 -4.907682
v -0.127371 76.771973 -5.051908
v -0.676367 74.742653 -3.630965
v -0.505314 75.882324 -4.428974
v -0.326433 77.853340 -3.172459
v -0.127413 78.110641 -3.266109
v -0.143665 78.867409 -1.093127
v -0.684897 75.649612 -2.370368
v -0.515899 77.007774 -2.864698
v -0.705455 76.141777 -0.854664
v -0.718249 76.121948 -0.319662
v -0.557285 77.593895 -0.319976
v -0.541410 77.618492 -0.983862
v -0.363990 78.529015 -0.324463
v -0.165120 78.802399 -0.325111
v -0.343111 78.589951 -1.068852
v 0.000012 76.810387 -5.078809
v -0.127413 78.110641 -3.266109
v -0.127371 76.771973 -5.051908
v 0.000010 78.156509 -3.282807
v 0.000008 78.921349 -1.097848
v -0.143665 78.867409 -1.093127
v -0.165120 78.802399 -0.325111
v 0.000007 78.861511 -0.322617
v 0.165135 78.802399 -0.325119
v 0.143681 78.867409 -1.093135
v 0.127434 78.110641 -3.266117
v 0.127395 76.771973 -5.051915
v 12.646014 16.000000 -0.318292
v 12.384468 10.000014 -6.322202
v 12.646004 10.000014 -0.318299
v 12.384479 16.000011 -6.322196
v 12.139362 16.000011 -8.095246
v 12.139349 10.000014 -8.095252
v 11.803417 22.000008 -8.095248
v 12.048531 22.000008 -6.322199
v 12.310068 22.000008 -0.318294
v 11.321624 28.000011 -8.095251
v 11.828274 28.000015 -0.318299
v 11.566737 28.000011 -6.322202
v 10.713279 34.000011 -8.095255
v 11.219555 34.000015 -0.318304
v 10.958019 34.000011 -6.322206
v 9.711811 40.000038 -8.095260
v 9.956703 40.000038 -6.322213
v 10.218234 40.000042 -0.318304
v 8.113810 46.000053 -6.322217
v 8.618858 46.000061 -0.318308
v 7.869054 46.000053 -8.095260
v 6.805956 52.000065 -0.318316
v 5.954259 52.000050 -6.322220
v 5.533558 52.000050 -8.101215
v 4.667487 57.809772 -0.318322
v 3.738518 57.809772 -6.322224
v 3.271545 57.809772 -8.104699
v 2.007709 64.017654 -6.295703
v 2.854971 64.017647 -0.318336
v 1.386436 70.011749 -0.318352
v 1.473190 64.017647 -8.059418
v 1.907408 57.809772 -9.320892
v 0.986922 64.017662 -8.889245
v 0.682435 64.017654 -9.203209
v 0.296192 70.014702 -8.439228
v 0.495124 70.014702 -8.198724
v 0.231612 72.579399 -7.707558
v 0.712117 70.014709 -7.538478
v 0.430551 72.505150 -7.498825
v 0.978694 70.014709 -5.991258
v 0.616014 72.250130 -6.864774
v 0.365973 74.995605 -6.257881
v 0.167029 75.144089 -6.434841
v 0.765579 71.815582 -5.593896
v 0.519909 74.485542 -5.650023
v 0.688131 73.617035 -4.614969
v 0.326339 76.565994 -4.907690
v 0.127395 76.771973 -5.051915
v 0.676388 74.742653 -3.630973
v 0.505336 75.882324 -4.428981
v 0.326453 77.853340 -3.172467
v 0.127434 78.110641 -3.266117
v 0.143681 78.867409 -1.093135
v 0.684916 75.649612 -2.370376
v 0.515918 77.007774 -2.864706
v 0.705471 76.141777 -0.854670
v 0.718263 76.121948 -0.319669
v 0.557299 77.593895 -0.319983
v 0.541425 77.618492 -0.983868
v 0.364005 78.529015 -0.324470
v 0.165135 78.802399 -0.325119
v 0.343127 78.589951 -1.068860
v -12.139322 10.000018 -8.095282
v -10.423461 16.000015 -9.320894
v -12.139334 16.000015 -8.095276
v -10.423450 10.000018 -9.320902
v -11.803387 22.000011 -8.095277
v 0.000011 16.000034 -9.320868
v 0.000012 22.000027 -9.320873
v 0.000011 10.000018 -9.320873
v 10.423478 10.000014 -9.320881
v -10.087519 22.000015 -9.320894
v -11.321592 28.000015 -8.095279
v 10.423490 16.000011 -9.320875
v 12.139349 10.000014 -8.095252
v 12.139362 16.000011 -8.095246
v 11.803417 22.000008 -8.095248
v 10.087538 22.000011 -9.320876
v 11.321624 28.000011 -8.095251
v -9.605725 28.000019 -9.320900
v -9.000004 34.000019 -9.320903
v -10.713248 34.000015 -8.095282
v -9.711788 40.000042 -8.095277
v 9.605746 28.000015 -9.320882
v 9.000026 34.000015 -9.320886
v 10.713279 34.000011 -8.095255
v 9.711811 40.000038 -8.095260
v 0.000012 28.000031 -9.320878
v -7.998678 40.000038 -9.320902
v -7.869030 46.000057 -8.095277
v 0.000013 34.000031 -9.320885
v 0.000013 40.000027 -9.320884
v 7.998701 40.000034 -9.320885
v 7.869054 46.000053 -8.095260
v -6.155781 46.000046 -9.320887
v -5.533533 52.000050 -8.101219
v 0.000014 46.000027 -9.320881
v 0.000014 52.000027 -9.320881
v 6.155805 46.000046 -9.320882
v 5.533558 52.000050 -8.101215
v -3.836520 52.000042 -9.320890
v -3.271519 57.809772 -8.104693
v -1.907379 57.809772 -9.320886
v 3.836550 52.000042 -9.320886
v 3.271545 57.809772 -8.104699
v 1.907408 57.809772 -9.320892
v 0.000015 57.809772 -9.320890
v 0.000015 64.017632 -9.254145
v -0.682405 64.017654 -9.203202
v 0.682435 64.017654 -9.203209
v 0.000015 70.014702 -8.488379
v -0.296162 70.014702 -8.439220
v 0.296192 70.014702 -8.439228
v 0.000015 72.590828 -7.745765
v -0.231583 72.579399 -7.707551
v 0.000013 75.166969 -6.462103
v 0.231612 72.579399 -7.707558
v -0.167002 75.144089 -6.434834
v 0.167029 75.144089 -6.434841
v -0.127371 76.771973 -5.051908
v 0.127395 76.771973 -5.051915
v 0.000012 76.810387 -5.078809
vn -0.9998 -0.0000 -0.0218
vn -0.9994 0.0279 -0.0218
vn -0.9959 -0.0000 -0.0903
vn -0.9955 0.0278 -0.0902
vn -0.8573 0.0239 -0.5143
vn -0.8557 -0.0000 -0.5175
vn -0.8549 0.0581 -0.5156
vn -0.9936 0.0677 -0.0901
vn -0.9975 0.0680 -0.0217
vn -0.8535 0.0774 -0.5153
vn -0.9957 0.0905 -0.0217
vn -0.9919 0.0901 -0.0899
vn -0.8518 0.1137 -0.5113
vn -0.9909 0.1328 -0.0216
vn -0.9872 0.1322 -0.0894
vn -0.8414 0.1968 -0.5033
vn -0.9696 0.2283 -0.0877
vn -0.9761 0.2158 -0.0260
vn -0.9468 0.3034 -0.1070
vn -0.9606 0.2672 -0.0765
vn -0.8192 0.2768 -0.5023
vn -0.9408 0.3220 -0.1057
vn -0.9224 0.3460 -0.1715
vn -0.7869 0.3040 -0.5370
vn -0.9430 0.3120 -0.1154
vn -0.9304 0.3110 -0.1942
vn -0.8137 0.2694 -0.5151
vn -0.9539 0.2229 -0.2010
vn -0.9602 0.2580 -0.1072
vn -0.9827 0.1680 -0.0786
vn -0.8962 0.1765 -0.4070
vn -0.3461 0.1076 -0.9320
vn -0.7863 0.1451 -0.6006
vn -0.4037 0.1157 -0.9075
vn -0.4795 0.1966 -0.8553
vn -0.8580 0.1528 -0.4904
vn -0.4760 0.3268 -0.8165
vn -0.9601 0.1317 -0.2468
vn -0.8723 0.2031 -0.4448
vn -0.9828 0.1460 -0.1132
vn -0.9783 0.1210 -0.1684
vn -0.8906 0.2636 -0.3706
vn -0.4983 0.4867 -0.7175
vn -0.9907 0.1111 -0.0786
vn -0.9867 0.1063 -0.1233
vn -0.9923 0.0884 -0.0871
vn -0.8964 0.3277 -0.2983
vn -0.5729 0.5991 -0.5593
vn -0.9924 0.0916 -0.0819
vn -0.9857 0.1267 -0.1114
vn -0.9042 0.3740 -0.2061
vn -0.5917 0.7109 -0.3802
vn -0.5894 0.8001 -0.1111
vn -0.9930 0.1010 -0.0618
vn -0.9858 0.1452 -0.0842
vn -0.9936 0.1074 -0.0338
vn -0.9938 0.1108 -0.0093
vn -0.9869 0.1610 0.0078
vn -0.9867 0.1573 -0.0402
vn -0.9021 0.4221 0.0900
vn -0.5759 0.7931 0.1985
vn -0.9057 0.4180 -0.0710
vn -0.5730 0.5991 -0.5593
vn -0.5916 0.7109 -0.3802
vn -0.0001 0.7292 -0.6843
vn -0.0000 0.8845 -0.4665
vn -0.0000 0.9916 -0.1293
vn -0.5893 0.8002 -0.1111
vn -0.5758 0.7931 0.1985
vn -0.0000 0.9686 0.2485
vn 0.5758 0.7931 0.1985
vn 0.5893 0.8002 -0.1111
vn 0.5916 0.7109 -0.3802
vn 0.5728 0.5992 -0.5593
vn 0.9998 -0.0000 -0.0218
vn 0.9959 -0.0000 -0.0903
vn 0.9994 0.0279 -0.0218
vn 0.9955 0.0278 -0.0902
vn 0.8573 0.0239 -0.5143
vn 0.8557 -0.0000 -0.5175
vn 0.8549 0.0581 -0.5156
vn 0.9936 0.0677 -0.0901
vn 0.9975 0.0679 -0.0217
vn 0.8535 0.0774 -0.5153
vn 0.9957 0.0905 -0.0217
vn 0.9919 0.0901 -0.0899
vn 0.8518 0.1137 -0.5113
vn 0.9909 0.1328 -0.0216
vn 0.9872 0.1322 -0.0894
vn 0.8414 0.1968 -0.5033
vn 0.9696 0.2283 -0.0877
vn 0.9761 0.2158 -0.0260
vn 0.9468 0.3034 -0.1070
vn 0.9606 0.2672 -0.0765
vn 0.8192 0.2768 -0.5023
vn 0.9408 0.3220 -0.1057
vn 0.9224 0.3460 -0.1715
vn 0.7869 0.3040 -0.5370
vn 0.9430 0.3120 -0.1154
vn 0.9304 0.3110 -0.1942
vn 0.8137 0.2694 -0.5151
vn 0.9539 0.2229 -0.2010
vn 0.9602 0.2580 -0.1072
vn 0.9827 0.1680 -0.0786
vn 0.8962 0.1765 -0.4070
vn 0.3461 0.1076 -0.9320
vn 0.7863 0.1451 -0.6006
vn 0.4037 0.1158 -0.9075
vn 0.4794 0.1967 -0.8553
vn 0.8580 0.1528 -0.4904
vn 0.4759 0.3269 -0.8165
vn 0.9601 0.1317 -0.2468
vn 0.8723 0.2031 -0.4448
vn 0.9828 0.1460 -0.1132
vn 0.9783 0.1210 -0.1684
vn 0.8906 0.2636 -0.3706
vn 0.4983 0.4867 -0.7175
vn 0.9907 0.1111 -0.0786
vn 0.9867 0.1063 -0.1233
vn 0.9923 0.0884 -0.0871
vn 0.8964 0.3277 -0.2983
vn 0.5729 0.5991 -0.5593
vn 0.9924 0.0916 -0.0819
vn 0.9857 0.1267 -0.1114
vn 0.9042 0.3740 -0.2061
vn 0.5917 0.7109 -0.3802
vn 0.5894 0.8002 -0.1111
vn 0.9930 0.1010 -0.0618
vn 0.9858 0.1452 -0.0842
vn 0.9936 0.1074 -0.0338
vn 0.9938 0.1108 -0.0093
vn 0.9869 0.1610 0.0078
vn 0.9867 0.1573 -0.0401
vn 0.9021 0.4221 0.0900
vn 0.5759 0.7931 0.1985
vn 0.9057 0.4180 -0.0710
vn -0.8572 0.0239 -0.5144
vn -0.3100 0.0088 -0.9507
vn -0.3052 -0.0000 -0.9523
vn -0.8549 0.0582 -0.5156
vn -0.0000 -0.0000 -1.0000
vn 0.3052 -0.0000 -0.9523
vn -0.3071 0.0211 -0.9514
vn 0.3100 0.0088 -0.9507
vn 0.8572 0.0239 -0.5144
vn 0.8549 0.0582 -0.5156
vn 0.3071 0.0211 -0.9514
vn -0.3066 0.0279 -0.9514
vn -0.3104 0.0423 -0.9497
vn -0.8518 0.1137 -0.5114
vn 0.3066 0.0279 -0.9514
vn 0.3104 0.0423 -0.9497
vn -0.3146 0.0770 -0.9461
vn 0.3146 0.0770 -0.9461
vn -0.3068 0.1086 -0.9456
vn 0.3068 0.1086 -0.9456
vn 0.7869 0.3041 -0.5370
vn -0.3013 0.1149 -0.9466
vn -0.3460 0.1076 -0.9320
vn 0.3013 0.1149 -0.9466
vn 0.3460 0.1076 -0.9320
vn -0.0000 0.0054 -1.0000
vn -0.0000 0.0779 -0.9970
vn -0.4036 0.1157 -0.9076
vn 0.4036 0.1158 -0.9076
vn -0.0000 0.2056 -0.9786
vn -0.4794 0.1966 -0.8553
vn 0.4794 0.1966 -0.8553
vn -0.0000 0.3629 -0.9318
vn -0.4759 0.3268 -0.8165
vn -0.0000 0.5549 -0.8319
vn 0.4759 0.3268 -0.8165
vn -0.4982 0.4867 -0.7175
vn 0.5729 0.5991 -0.5594
vn -0.0000 0.7291 -0.6844
vt -16.180058 0.210740
vt -16.270977 0.210740
vt -16.180058 0.120114
vt -16.270977 0.120114
vt -16.270977 0.093351
vt -16.180058 0.093351
vt -16.361898 0.093351
vt -16.361898 0.120114
vt -16.361898 0.210740
vt -16.452818 0.093351
vt -16.452818 0.210740
vt -16.452818 0.120114
vt -16.543737 0.093351
vt -16.543737 0.210740
vt -16.543737 0.120114
vt -16.634659 0.093351
vt -16.634659 0.120114
vt -16.634659 0.210740
vt -16.725578 0.120114
vt -16.725578 0.210740
vt -16.725578 0.093351
vt -16.816498 0.210740
vt -16.816498 0.120114
vt -16.816498 0.093261
vt -16.904535 0.210740
vt -16.904535 0.120114
vt -16.904535 0.093209
vt -16.998606 0.120515
vt -16.998606 0.210740
vt -17.089436 0.210740
vt -16.998606 0.093892
vt -16.904535 0.074851
vt -16.998606 0.081366
vt -16.998606 0.076627
vt -17.089481 0.088159
vt -17.089481 0.091790
vt -17.128344 0.099203
vt -17.089481 0.101756
vt -17.127218 0.102354
vt -17.089481 0.125110
vt -17.123354 0.111925
vt -17.164957 0.121086
vt -17.167208 0.118414
vt -17.116770 0.131108
vt -17.157228 0.130261
vt -17.144068 0.145885
vt -17.188755 0.141466
vt -17.191875 0.139289
vt -17.161125 0.160737
vt -17.178394 0.148692
vt -17.208261 0.167658
vt -17.212160 0.166245
vt -17.223629 0.199045
vt -17.174868 0.179766
vt -17.195448 0.172304
vt -17.182325 0.202644
vt -17.182026 0.210720
vt -17.204330 0.210715
vt -17.204704 0.200694
vt -17.218500 0.210647
vt -17.222643 0.210638
vt -17.219423 0.199411
vt 0.501869 0.139289
vt 0.501869 0.166245
vt 0.499950 0.138883
vt 0.499950 0.165993
vt 0.499950 0.198974
vt 0.502114 0.199045
vt 0.502437 0.210638
vt 0.499950 0.210675
vt 0.497464 0.210638
vt 0.497787 0.199045
vt 0.498031 0.166245
vt 0.498032 0.139289
vt 17.180058 0.210741
vt 17.180058 0.120115
vt 17.270977 0.210741
vt 17.270977 0.120115
vt 17.270977 0.093351
vt 17.180058 0.093351
vt 17.361898 0.093351
vt 17.361898 0.120115
vt 17.361898 0.210741
vt 17.452818 0.093351
vt 17.452818 0.210741
vt 17.452818 0.120115
vt 17.543737 0.093351
vt 17.543737 0.210741
vt 17.543737 0.120115
vt 17.634659 0.093351
vt 17.634659 0.120114
vt 17.634659 0.210741
vt 17.725578 0.120114
vt 17.725578 0.210740
vt 17.725578 0.093351
vt 17.816498 0.210740
vt 17.816498 0.120114
vt 17.816498 0.093261
vt 17.904535 0.210740
vt 17.904535 0.120114
vt 17.904535 0.093209
vt 17.998606 0.120515
vt 17.998606 0.210740
vt 18.089436 0.210740
vt 17.998606 0.093892
vt 17.904535 0.074851
vt 17.998606 0.081366
vt 17.998606 0.076627
vt 18.089481 0.088159
vt 18.089481 0.091789
vt 18.128344 0.099203
vt 18.089481 0.101755
vt 18.127218 0.102354
vt 18.089481 0.125110
vt 18.123354 0.111925
vt 18.164957 0.121085
vt 18.167208 0.118414
vt 18.116770 0.131108
vt 18.157228 0.130261
vt 18.144068 0.145884
vt 18.188755 0.141466
vt 18.191875 0.139289
vt 18.161125 0.160737
vt 18.178394 0.148692
vt 18.208261 0.167658
vt 18.212160 0.166245
vt 18.223629 0.199045
vt 18.174868 0.179765
vt 18.195448 0.172304
vt 18.182325 0.202644
vt 18.182026 0.210720
vt 18.204330 0.210715
vt 18.204704 0.200694
vt 18.218500 0.210647
vt 18.222643 0.210638
vt 18.219423 0.199411
vt 0.317237 -16.270977
vt 0.343077 -16.270977
vt 0.317237 -16.180058
vt 0.343077 -16.180058
vt 0.322297 -16.361898
vt 0.500047 -16.270979
vt 0.500047 -16.361898
vt 0.500047 -16.180058
vt 0.657017 -16.180058
vt 0.348136 -16.361898
vt 0.329552 -16.452818
vt 0.657017 -16.270977
vt 0.682856 -16.180058
vt 0.682857 -16.270977
vt 0.677798 -16.361898
vt 0.651958 -16.361898
vt 0.670543 -16.452818
vt 0.355392 -16.452818
vt 0.364514 -16.543737
vt 0.338714 -16.543737
vt 0.353795 -16.634659
vt 0.644703 -16.452818
vt 0.635581 -16.543737
vt 0.661382 -16.543737
vt 0.646301 -16.634659
vt 0.500047 -16.452818
vt 0.379593 -16.634659
vt 0.381546 -16.725578
vt 0.500048 -16.543737
vt 0.500048 -16.634659
vt 0.620502 -16.634659
vt 0.618550 -16.725578
vt 0.407346 -16.725578
vt 0.416717 -16.816498
vt 0.500048 -16.725578
vt 0.500049 -16.816498
vt 0.592750 -16.725578
vt 0.583380 -16.816498
vt 0.442273 -16.816498
vt 0.450782 -16.904535
vt 0.471325 -16.904535
vt 0.557824 -16.816498
vt 0.549316 -16.904535
vt 0.528773 -16.904535
vt 0.500049 -16.904535
vt 0.500049 -16.998606
vt 0.489772 -16.998606
vt 0.510326 -16.998606
vt 0.500049 -17.089481
vt 0.495589 -17.089481
vt 0.504510 -17.089481
vt 0.500049 -17.128517
vt 0.496562 -17.128344
vt 0.500050 -17.167555
vt 0.503537 -17.128344
vt 0.497534 -17.167208
vt 0.502565 -17.167208
vt 0.498131 -17.191875
vt 0.501968 -17.191875
vt 0.500050 -17.192457
s 1
g Bsh_Hull_Rostrum_Dredn_C_001_1_hull_bottom
usemtl hull_bottom
f 3/1/1 2/2/2 1/3/3
f 4/4/4 1/3/3 2/2/2
f 4/4/4 5/5/5 1/3/3
f 6/6/6 1/3/3 5/5/5
f 5/5/5 4/4/4 7/7/7
f 4/4/4 2/2/2 8/8/8
f 8/8/8 7/7/7 4/4/4
f 9/9/9 8/8/8 2/2/2
f 7/7/7 8/8/8 10/10/10
f 9/9/9 11/11/11 8/8/8
f 12/12/12 10/10/10 8/8/8
f 12/12/12 8/8/8 11/11/11
f 10/10/10 12/12/12 13/13/13
f 11/11/11 14/14/14 12/12/12
f 15/15/15 13/13/13 12/12/12
f 15/15/15 12/12/12 14/14/14
f 13/13/13 15/15/15 16/16/16
f 15/15/15 14/14/14 17/17/17
f 17/17/17 16/16/16 15/15/15
f 18/18/18 17/17/17 14/14/14
f 17/17/17 19/19/19 16/16/16
f 17/17/17 18/18/18 19/19/19
f 20/20/20 19/19/19 18/18/18
f 21/21/21 16/16/16 19/19/19
f 20/20/20 22/22/22 19/19/19
f 19/19/19 23/23/23 21/21/21
f 23/23/23 19/19/19 22/22/22
f 24/24/24 21/21/21 23/23/23
f 22/22/22 25/25/25 23/23/23
f 23/23/23 26/26/26 24/24/24
f 26/26/26 23/23/23 25/25/25
f 27/27/27 24/24/24 26/26/26
f 26/26/26 25/25/25 28/28/28
f 29/29/29 28/28/28 25/25/25
f 29/29/29 30/30/30 28/28/28
f 27/27/27 26/26/26 31/31/31
f 28/28/28 31/31/31 26/26/26
f 27/27/27 31/31/31 32/32/32
f 33/33/33 32/32/32 31/31/31
f 34/34/34 32/32/32 33/33/33
f 34/34/34 33/33/33 35/35/35
f 36/36/36 35/35/35 33/33/33
f 33/33/33 31/31/31 36/36/36
f 35/35/35 36/36/36 37/37/37
f 31/31/31 28/28/28 38/38/38
f 38/38/38 36/36/36 31/31/31
f 39/39/39 37/37/37 36/36/36
f 36/36/36 38/38/38 39/39/39
f 40/40/40 38/38/38 28/28/28
f 40/40/40 28/28/28 30/30/30
f 38/38/38 40/40/40 41/41/41
f 41/41/41 39/39/39 38/38/38
f 39/39/39 42/42/42 37/37/37
f 43/43/43 37/37/37 42/42/42
f 40/40/40 30/30/30 44/44/44
f 44/44/44 41/41/41 40/40/40
f 41/41/41 45/45/45 39/39/39
f 42/42/42 39/39/39 45/45/45
f 44/44/44 46/46/46 41/41/41
f 44/44/44 30/30/30 46/46/46
f 45/45/45 41/41/41 46/46/46
f 42/42/42 47/47/47 43/43/43
f 48/48/48 43/43/43 47/47/47
f 46/46/46 49/49/49 45/45/45
f 46/46/46 30/30/30 49/49/49
f 45/45/45 50/50/50 42/42/42
f 50/50/50 45/45/45 49/49/49
f 47/47/47 42/42/42 50/50/50
f 47/47/47 51/51/51 48/48/48
f 52/52/52 48/48/48 51/51/51
f 52/52/52 51/51/51 53/53/53
f 49/49/49 30/30/30 54/54/54
f 49/49/49 54/54/54 50/50/50
f 50/50/50 55/55/55 47/47/47
f 55/55/55 50/50/50 54/54/54
f 51/51/51 47/47/47 55/55/55
f 30/30/30 56/56/56 54/54/54
f 54/54/54 56/56/56 55/55/55
f 56/56/56 30/30/30 57/57/57
f 57/57/57 58/58/58 56/56/56
f 59/59/59 55/55/55 56/56/56
f 59/59/59 56/56/56 58/58/58
f 55/55/55 59/59/59 51/51/51
f 58/58/58 60/60/60 59/59/59
f 61/61/61 53/53/53 60/60/60
f 62/62/62 53/53/53 51/51/51
f 62/62/62 51/51/51 59/59/59
f 62/62/62 59/59/59 60/60/60
f 62/62/62 60/60/60 53/53/53
f 65/63/63 64/64/64 63/65/65
f 66/66/66 63/65/65 64/64/64
f 66/66/66 64/64/64 67/67/67
f 68/68/68 67/67/67 64/64/64
f 68/68/68 69/69/69 67/67/67
f 70/70/70 67/67/67 69/69/69
f 70/70/70 71/71/71 67/67/67
f 72/72/72 67/67/67 71/71/71
f 72/72/72 73/73/73 67/67/67
f 66/66/66 67/67/67 73/73/73
f 66/66/66 73/73/73 63/65/65
f 74/74/74 63/65/65 73/73/73
f 77/75/75 76/76/76 75/77/77
f 78/78/78 75/77/77 76/76/76
f 78/78/78 76/76/76 79/79/79
f 80/80/80 79/79/79 76/76/76
f 79/79/79 81/81/81 78/78/78
f 78/78/78 82/82/82 75/77/77
f 82/82/82 78/78/78 81/81/81
f 83/83/83 75/77/77 82/82/82
f 81/81/81 84/84/84 82/82/82
f 83/83/83 82/82/82 85/85/85
f 86/86/86 82/82/82 84/84/84
f 86/86/86 85/85/85 82/82/82
f 84/84/84 87/87/87 86/86/86
f 85/85/85 86/86/86 88/88/88
f 89/89/89 86/86/86 87/87/87
f 89/89/89 88/88/88 86/86/86
f 87/87/87 90/90/90 89/89/89
f 89/89/89 91/91/91 88/88/88
f 91/91/91 89/89/89 90/90/90
f 92/92/92 88/88/88 91/91/91
f 91/91/91 90/90/90 93/93/93
f 91/91/91 93/93/93 92/92/92
f 94/94/94 92/92/92 93/93/93
f 95/95/95 93/93/93 90/90/90
f 94/94/94 93/93/93 96/96/96
f 93/93/93 95/95/95 97/97/97
f 97/97/97 96/96/96 93/93/93
f 98/98/98 97/97/97 95/95/95
f 96/96/96 97/97/97 99/99/99
f 97/97/97 98/98/98 100/100/100
f 100/100/100 99/99/99 97/97/97
f 101/101/101 100/100/100 98/98/98
f 100/100/100 102/102/102 99/99/99
f 103/103/103 99/99/99 102/102/102
f 103/103/103 102/102/102 104/104/104
f 101/101/101 105/105/105 100/100/100
f 102/102/102 100/100/100 105/105/105
f 101/101/101 106/106/106 105/105/105
f 107/107/107 105/105/105 106/106/106
f 106/106/106 108/108/108 107/107/107
f 108/108/108 109/109/109 107/107/107
f 110/110/110 107/107/107 109/109/109
f 107/107/107 110/110/110 105/105/105
f 109/109/109 111/111/111 110/110/110
f 105/105/105 112/112/112 102/102/102
f 112/112/112 105/105/105 110/110/110
f 113/113/113 110/110/110 111/111/111
f 110/110/110 113/113/113 112/112/112
f 114/114/114 102/102/102 112/112/112
f 114/114/114 104/104/104 102/102/102
f 112/112/112 115/115/115 114/114/114
f 115/115/115 112/112/112 113/113/113
f 113/113/113 111/111/111 116/116/116
f 117/117/117 116/116/116 111/111/111
f 104/104/104 114/114/114 118/118/118
f 118/118/118 114/114/114 115/115/115
f 115/115/115 113/113/113 119/119/119
f 116/116/116 119/119/119 113/113/113
f 118/118/118 115/115/115 120/120/120
f 104/104/104 118/118/118 120/120/120
f 119/119/119 120/120/120 115/115/115
f 116/116/116 117/117/117 121/121/121
f 122/122/122 121/121/121 117/117/117
f 120/120/120 119/119/119 123/123/123
f 104/104/104 120/120/120 123/123/123
f 119/119/119 116/116/116 124/124/124
f 124/124/124 123/123/123 119/119/119
f 121/121/121 124/124/124 116/116/116
f 121/121/121 122/122/122 125/125/125
f 126/126/126 125/125/125 122/122/122
f 126/126/126 127/127/127 125/125/125
f 104/104/104 123/123/123 128/128/128
f 123/123/123 124/124/124 128/128/128
f 124/124/124 121/121/121 129/129/129
f 129/129/129 128/128/128 124/124/124
f 125/125/125 129/129/129 121/121/121
f 130/130/130 104/104/104 128/128/128
f 128/128/128 129/129/129 130/130/130
f 104/104/104 130/130/130 131/131/131
f 131/131/131 130/130/130 132/132/132
f 133/133/133 130/130/130 129/129/129
f 133/133/133 132/132/132 130/130/130
f 129/129/129 125/125/125 133/133/133
f 132/132/132 133/133/133 134/134/134
f 135/135/135 134/134/134 127/127/127
f 136/136/136 125/125/125 127/127/127
f 136/136/136 133/133/133 125/125/125
f 136/136/136 134/134/134 133/133/133
f 136/136/136 127/127/127 134/134/134
f 139/137/137 138/138/138 137/139/6
f 140/140/139 137/139/6 138/138/138
f 139/137/137 141/141/140 138/138/138
f 138/138/138 142/142/141 140/140/139
f 142/142/141 138/138/138 143/143/141
f 144/144/141 140/140/139 142/142/141
f 144/144/141 142/142/141 145/145/142
f 146/146/143 138/138/138 141/141/140
f 146/146/143 143/143/141 138/138/138
f 141/141/140 147/147/10 146/146/143
f 148/148/144 145/145/142 142/142/141
f 142/142/141 143/143/141 148/148/144
f 145/145/142 148/148/144 149/149/80
f 150/150/145 149/149/80 148/148/144
f 150/150/145 148/148/144 151/151/146
f 152/152/147 151/151/146 148/148/144
f 152/152/147 148/148/144 143/143/141
f 151/151/146 152/152/147 153/153/84
f 154/154/148 146/146/143 147/147/10
f 146/146/143 154/154/148 143/143/141
f 154/154/148 147/147/10 155/155/149
f 156/156/150 155/155/149 147/147/10
f 156/156/150 157/157/16 155/155/149
f 158/158/151 153/153/84 152/152/147
f 152/152/147 143/143/141 158/158/151
f 158/158/151 159/159/152 153/153/84
f 160/160/87 153/153/84 159/159/152
f 160/160/87 159/159/152 161/161/90
f 162/162/141 143/143/141 154/154/148
f 162/162/141 158/158/151 143/143/141
f 154/154/148 155/155/149 162/162/141
f 158/158/151 162/162/141 159/159/152
f 163/163/153 155/155/149 157/157/16
f 157/157/16 164/164/21 163/163/153
f 165/165/141 162/162/141 155/155/149
f 165/165/141 159/159/152 162/162/141
f 165/165/141 155/155/149 166/166/141
f 165/165/141 166/166/141 159/159/152
f 163/163/153 166/166/141 155/155/149
f 167/167/154 161/161/90 159/159/152
f 167/167/154 159/159/152 166/166/141
f 161/161/90 167/167/154 168/168/95
f 169/169/155 163/163/153 164/164/21
f 164/164/21 170/170/24 169/169/155
f 166/166/141 163/163/153 171/171/141
f 166/166/141 171/171/141 167/167/154
f 169/169/155 171/171/141 163/163/153
f 171/171/141 169/169/155 172/172/141
f 173/173/156 168/168/95 167/167/154
f 173/173/156 167/167/154 171/171/141
f 171/171/141 172/172/141 173/173/156
f 168/168/95 173/173/156 174/174/157
f 175/175/158 169/169/155 170/170/24
f 175/175/158 172/172/141 169/169/155
f 170/170/24 176/176/27 175/175/158
f 177/177/159 175/175/158 176/176/27
f 175/175/158 177/177/159 172/172/141
f 178/178/160 174/174/157 173/173/156
f 178/178/160 173/173/156 172/172/141
f 174/174/157 178/178/160 179/179/101
f 180/180/161 179/179/101 178/178/160
f 178/178/160 172/172/141 180/180/161
f 181/181/162 172/172/141 177/177/159
f 181/181/162 180/180/161 172/172/141
f 181/181/162 177/177/159 182/182/163
f 181/181/162 182/182/163 180/180/161
f 183/183/164 182/182/163 177/177/159
f 184/184/165 180/180/161 182/182/163
f 182/182/163 183/183/164 185/185/166
f 182/182/163 185/185/166 184/184/165
f 186/186/167 185/185/166 183/183/164
f 187/187/168 184/184/165 185/185/166
f 185/185/166 186/186/167 188/188/169
f 185/185/166 188/188/169 187/187/168
f 189/189/170 188/188/169 186/186/167
f 188/188/169 189/189/170 190/190/171
f 191/191/172 187/187/168 188/188/169
f 188/188/169 190/190/171 191/191/172
f 192/192/173 190/190/171 189/189/170
f 193/193/117 191/191/172 190/190/171
f 192/192/173 194/194/48 190/190/171
f 193/193/117 190/190/171 195/195/174
f 196/196/175 190/190/171 194/194/48
f 196/196/175 195/195/174 190/190/171
