# Blender 5.1.0
# www.blender.org
mtllib Bsh_Hull_Midsection_Dredn_BCD1_001_0.mtl
o Bsh_Hull_Midsection_Dredn_BCD1_001_0
v -12.384484 -20.000032 2.679102
v -12.384480 -23.970510 5.099129
v -12.384480 -23.970499 2.679104
v -12.384485 -19.999994 5.099131
v -12.642410 -24.099035 2.679103
v -12.646006 -20.000032 1.524253
v -12.646006 -20.000032 2.679100
v -12.646004 -23.970480 1.524252
v -12.646006 -29.970522 1.524251
v -12.646016 -27.533037 2.679106
v -12.646006 -29.970522 2.679099
v -12.646006 -38.970520 1.524251
v -12.646006 -38.970520 2.679097
v -12.646002 -49.999817 1.524249
v -12.646000 -49.999817 2.679096
v -12.646006 -20.000032 2.679100
v -12.384480 -23.970499 2.679104
v -12.642410 -24.099035 2.679103
v -12.384484 -20.000032 2.679102
v -12.384481 -27.661886 2.679105
v -12.646006 -29.970522 2.679099
v -12.646016 -27.533037 2.679106
v -12.384484 -29.970522 2.679101
v -12.646006 -38.970520 2.679097
v -12.384484 -38.970520 2.679099
v -12.646000 -49.999817 2.679096
v -12.384480 -49.999817 2.679098
v -12.384480 -49.999817 2.679098
v -12.384481 -38.970520 5.099112
v -12.384480 -49.999817 5.099112
v -12.384484 -38.970520 2.679099
v -12.384478 -29.970522 5.099113
v -12.384484 -29.970522 2.679101
v -12.384480 -27.661894 5.099124
v -12.384481 -27.661886 2.679105
v -12.813593 -24.187346 5.099123
v -12.813580 -27.458879 2.679107
v -12.813591 -24.187346 2.679108
v -12.813584 -27.414309 5.099117
v -12.384480 -23.970510 5.099129
v -12.642410 -24.099035 2.679103
v -12.384480 -23.970499 2.679104
v -12.813593 -24.187346 5.099123
v -12.813591 -24.187346 2.679108
v -12.384480 -23.970510 5.099129
v -12.813584 -27.414309 5.099117
v -12.813593 -24.187346 5.099123
v -12.384475 -26.970472 5.099125
v -12.384480 -27.661894 5.099124
v -12.813584 -27.414309 5.099117
v -12.646016 -27.533037 2.679106
v -12.813580 -27.458879 2.679107
v -12.384481 -27.661886 2.679105
v -12.384480 -27.661894 5.099124
v -12.642410 -24.099035 2.679103
v -12.813580 -27.458879 2.679107
v -12.646016 -27.533037 2.679106
v -12.813591 -24.187346 2.679108
v 12.384492 -20.000032 2.679102
v 12.384490 -23.970510 5.099129
v 12.384494 -19.999994 5.099131
v 12.384490 -23.970499 2.679104
v 12.646013 -20.000032 1.524253
v 12.642420 -24.099035 2.679103
v 12.646013 -20.000032 2.679100
v 12.646013 -23.970480 1.524252
v 12.646014 -29.970522 1.524251
v 12.646025 -27.533037 2.679106
v 12.646014 -29.970522 2.679099
v 12.646013 -38.970520 1.524251
v 12.646013 -38.970520 2.679097
v 12.646011 -49.999817 1.524249
v 12.646009 -49.999817 2.679096
v 12.646013 -20.000032 2.679100
v 12.384490 -23.970499 2.679104
v 12.384492 -20.000032 2.679102
v 12.642420 -24.099035 2.679103
v 12.646014 -29.970522 2.679099
v 12.384491 -27.661890 2.679105
v 12.646025 -27.533037 2.679106
v 12.384494 -29.970522 2.679101
v 12.646013 -38.970520 2.679097
v 12.384492 -38.970520 2.679099
v 12.646009 -49.999817 2.679096
v 12.384489 -49.999817 2.679098
v 12.384490 -38.970520 5.099112
v 12.384489 -49.999817 2.679098
v 12.384489 -49.999817 5.099112
v 12.384492 -38.970520 2.679099
v 12.384487 -29.970522 5.099113
v 12.384494 -29.970522 2.679101
v 12.384489 -27.661894 5.099124
v 12.384491 -27.661890 2.679105
v 12.813603 -24.187346 5.099123
v 12.813588 -27.458879 2.679107
v 12.813593 -27.414309 5.099117
v 12.813601 -24.187346 2.679108
v 12.642420 -24.099035 2.679103
v 12.384490 -23.970510 5.099129
v 12.384490 -23.970499 2.679104
v 12.813603 -24.187346 5.099123
v 12.813601 -24.187346 2.679108
v 12.813593 -27.414309 5.099117
v 12.384490 -23.970510 5.099129
v 12.813603 -24.187346 5.099123
v 12.384482 -26.970472 5.099125
v 12.384489 -27.661894 5.099124
v 12.813593 -27.414309 5.099117
v 12.813588 -27.458879 2.679107
v 12.646025 -27.533037 2.679106
v 12.384491 -27.661890 2.679105
v 12.384489 -27.661894 5.099124
v 12.642420 -24.099035 2.679103
v 12.813588 -27.458879 2.679107
v 12.813601 -24.187346 2.679108
v 12.646025 -27.533037 2.679106
v -12.646019 -59.999802 1.524270
v -12.646018 -49.999771 1.524272
v 12.646024 -59.999817 1.524279
v 12.646029 -49.999786 1.524279
v -12.646018 -49.999771 2.679121
v -12.646019 -59.999809 2.679119
v -12.384501 -49.999771 5.099134
v -12.384510 -59.999748 2.679123
v -12.384497 -49.999771 2.679122
v -12.384514 -59.999748 5.099135
v -12.646018 -49.999771 2.679121
v -12.384510 -59.999748 2.679123
v -12.646019 -59.999809 2.679119
v -12.384497 -49.999771 2.679122
v 12.646029 -49.999786 2.679128
v 12.646024 -59.999817 2.679128
v 12.384505 -49.999786 5.099143
v 12.384515 -59.999756 2.679132
v 12.384511 -59.999756 5.099145
v 12.384509 -49.999786 2.679129
v 12.646029 -49.999786 2.679128
v 12.384515 -59.999756 2.679132
v 12.384509 -49.999786 2.679129
v 12.646024 -59.999817 2.679128
v -5.228712 -56.763878 8.022916
v -3.000020 -58.859619 8.022920
v -3.000022 -58.859627 7.920280
v 2.999971 -58.859627 8.022916
v 2.999972 -58.859634 7.920276
v 5.228711 -56.763885 8.022917
v -3.000022 -58.859627 7.920280
v 2.999972 -58.859634 7.920276
v -1.873883 -59.471542 7.920280
v -1.701167 -59.029488 7.318445
v -1.873882 -59.029488 7.318445
v -1.701166 -59.471542 7.920280
v -1.873882 -58.859634 7.920280
v -1.873882 -59.029488 7.318445
v -1.873884 -58.859634 7.318445
v -1.873883 -59.471542 7.920280
v -1.873884 -58.859634 7.318445
v -1.701167 -59.029488 7.318445
v -1.701166 -58.859634 7.318445
v -1.873882 -59.029488 7.318445
v -1.701166 -58.859634 7.318445
v -1.701166 -59.471542 7.920280
v -1.701164 -58.859634 7.920280
v -1.701167 -59.029488 7.318445
v -10.218227 -89.999695 1.524275
v -9.539929 -92.999657 2.679124
v -9.493153 -92.999657 1.524261
v -10.218226 -89.999695 2.679124
v -11.219540 -83.999725 2.679126
v -11.219540 -83.999725 1.524278
v -11.828252 -77.999733 1.524282
v -11.828252 -77.999733 2.679129
v -12.310040 -71.999725 2.679131
v -12.310040 -71.999725 1.524284
v -12.645979 -65.999725 2.679137
v -12.645979 -65.999725 1.524290
v -12.645978 -59.999794 2.679129
v -12.645979 -59.999794 1.524281
v -8.506571 -95.999657 1.524265
v -9.493153 -92.999657 1.524261
v -9.231618 -92.999657 1.524261
v -8.768106 -95.999657 1.524262
v -6.724374 -101.999680 1.524269
v -6.985909 -101.999680 1.524269
v -4.515877 -107.999664 1.524273
v -4.777411 -107.999664 1.524274
v -2.396307 -113.998291 1.524280
v -2.134773 -113.998291 1.524280
v -1.508997 -115.560760 1.524284
v -1.694438 -115.763458 1.524284
v -0.852731 -116.014282 1.524284
v -0.917013 -116.282928 1.524285
v -0.000005 -116.196716 1.524285
v -0.000006 -116.465332 1.524285
v 0.917003 -116.282928 1.524284
v 0.852721 -116.014297 1.524283
v 1.694428 -115.763474 1.524282
v 1.508986 -115.560760 1.524283
v 2.396298 -113.998306 1.524278
v 2.134764 -113.998306 1.524279
v 4.777408 -107.999680 1.524271
v 4.515874 -107.999680 1.524270
v 6.985909 -101.999695 1.524264
v 6.724375 -101.999695 1.524264
v 8.768111 -95.999672 1.524256
v 8.506576 -95.999672 1.524259
v 9.493160 -92.999672 1.524254
v 9.231626 -92.999672 1.524254
v -9.539929 -92.999657 2.679124
v -9.231618 -92.999657 1.524261
v -9.493153 -92.999657 1.524261
v -9.278387 -92.999680 2.679126
v -2.134773 -113.998291 1.524280
v -1.575664 -115.574005 2.679144
v -1.508997 -115.560760 1.524284
v -2.228332 -113.998322 2.679143
v -4.533231 -107.999664 1.701942
v -4.628675 -107.999695 2.679124
v -4.515877 -107.999664 1.524273
v -6.837152 -101.999664 2.679120
v -6.724374 -101.999680 1.524269
v -8.506571 -95.999657 1.524265
v -8.600113 -95.999657 2.679121
v -9.231618 -92.999657 1.524261
v -9.278387 -92.999680 2.679126
v -0.852737 -116.057037 2.679145
v -1.508997 -115.560760 1.524284
v -1.575664 -115.574005 2.679144
v -0.852731 -116.014282 1.524284
v -0.000005 -116.196716 1.524285
v -0.000005 -116.226654 2.679145
v 0.852727 -116.057053 2.679145
v 0.852721 -116.014297 1.524283
v 1.508986 -115.560760 1.524283
v 1.575655 -115.574005 2.679143
v -9.539929 -92.999657 2.679124
v -9.956644 -89.999687 2.679132
v -9.278387 -92.999680 2.679126
v -10.218226 -89.999695 2.679124
v -10.957976 -83.999695 2.679136
v -11.219540 -83.999725 2.679126
v -11.566707 -77.999702 2.679137
v -11.828252 -77.999733 2.679129
v -12.048509 -71.999695 2.679137
v -12.310040 -71.999725 2.679131
v -12.384455 -65.999710 2.679141
v -12.645979 -65.999725 2.679137
v -12.645978 -59.999794 2.679129
v -12.384457 -59.999733 2.679135
v -2.228332 -113.998322 2.679143
v -1.914400 -114.751221 5.099154
v -1.575664 -115.574005 2.679144
v -2.396250 -113.998352 5.099153
v -3.199994 -112.485931 5.099149
v -5.228673 -107.999695 5.099140
v -4.628675 -107.999695 2.679124
v -6.837152 -101.999664 2.679120
v -7.437133 -101.999695 5.099141
v -8.600113 -95.999657 2.679121
v -9.000096 -95.999695 5.099141
v -9.278387 -92.999680 2.679126
v -10.156640 -89.999702 5.099145
v -9.956644 -89.999687 2.679132
v -10.957976 -83.999695 2.679136
v -10.957975 -83.999695 5.099149
v -11.566707 -77.999702 2.679137
v -11.566704 -77.999702 5.099150
v -12.048509 -71.999695 2.679137
v -12.048507 -71.999695 5.099151
v -12.384455 -65.999710 2.679141
v -12.384453 -65.999710 5.099153
v -12.384457 -59.999733 2.679135
v -12.384467 -59.999710 5.099139
v -1.082358 -115.364334 5.099155
v -1.575664 -115.574005 2.679144
v -1.914400 -114.751221 5.099154
v -0.852737 -116.057037 2.679145
v -0.000003 -115.579620 5.099157
v -0.000005 -116.226654 2.679145
v 0.852727 -116.057053 2.679145
v 1.082350 -115.364349 5.099154
v 1.575655 -115.574005 2.679143
v 1.914393 -114.751221 5.099153
v 9.539938 -92.999672 2.679118
v 10.218238 -89.999702 1.524268
v 9.493160 -92.999672 1.524254
v 10.218237 -89.999702 2.679117
v 11.219555 -83.999741 2.679119
v 11.219556 -83.999741 1.524270
v 11.828272 -77.999741 1.524274
v 11.828272 -77.999741 2.679121
v 12.310066 -71.999741 2.679123
v 12.310066 -71.999741 1.524275
v 12.646010 -65.999733 2.679128
v 12.646010 -65.999733 1.524282
v 12.646014 -59.999802 2.679119
v 12.646012 -59.999802 1.524272
v 9.539938 -92.999672 2.679118
v 9.231626 -92.999672 1.524254
v 9.278397 -92.999687 2.679119
v 9.493160 -92.999672 1.524254
v 1.575655 -115.574005 2.679143
v 2.134764 -113.998306 1.524279
v 1.508986 -115.560760 1.524283
v 2.228323 -113.998322 2.679141
v 4.515874 -107.999680 1.524270
v 4.628673 -107.999695 2.679121
v 6.724375 -101.999695 1.524264
v 6.837152 -101.999695 2.679116
v 8.506576 -95.999672 1.524259
v 8.600120 -95.999672 2.679115
v 9.231626 -92.999672 1.524254
v 9.278397 -92.999687 2.679119
v 9.956655 -89.999695 2.679125
v 9.539938 -92.999672 2.679118
v 9.278397 -92.999687 2.679119
v 10.218237 -89.999702 2.679117
v 10.957992 -83.999702 2.679128
v 11.219555 -83.999741 2.679119
v 11.566728 -77.999718 2.679129
v 11.828272 -77.999741 2.679121
v 12.048534 -71.999710 2.679129
v 12.310066 -71.999741 2.679123
v 12.384485 -65.999725 2.679133
v 12.646010 -65.999733 2.679128
v 12.646014 -59.999802 2.679119
v 12.384493 -59.999741 2.679127
v 1.914393 -114.751221 5.099153
v 2.228323 -113.998322 2.679141
v 1.575655 -115.574005 2.679143
v 2.396244 -113.998352 5.099152
v 3.199989 -112.485931 5.099147
v 5.228671 -107.999695 5.099137
v 4.628673 -107.999695 2.679121
v 6.837152 -101.999695 2.679116
v 7.437137 -101.999710 5.099135
v 8.600120 -95.999672 2.679115
v 9.000104 -95.999702 5.099135
v 9.278397 -92.999687 2.679119
v 10.156652 -89.999710 5.099138
v 9.956655 -89.999695 2.679125
v 10.957992 -83.999702 2.679128
v 10.957992 -83.999702 5.099142
v 11.566728 -77.999718 2.679129
v 11.566727 -77.999718 5.099142
v 12.048534 -71.999710 2.679129
v 12.048533 -71.999710 5.099143
v 12.384485 -65.999725 2.679133
v 12.384484 -65.999725 5.099144
v 12.384493 -59.999741 2.679127
v 12.384502 -59.999725 5.099131
v 1.787478 -59.999775 8.022918
v 1.787477 -59.999783 7.920278
v 1.787477 -59.999783 7.920278
v -1.787529 -59.999771 8.022919
v -1.787531 -59.999779 7.920279
v -1.787531 -59.999779 7.920279
vn -1.0000 -0.0000 -0.0000
vn -1.0000 -0.0009 -0.0000
vn -1.0000 -0.0000 0.0031
vn -1.0000 -0.0000 0.0025
vn -1.0000 0.0011 -0.0022
vn -1.0000 0.0009 -0.0019
vn -0.0022 0.0001 1.0000
vn -0.0000 -0.0000 1.0000
vn -0.0000 -0.0000 -1.0000
vn -0.4460 0.8950 -0.0000
vn -0.4511 0.8925 0.0006
vn -0.4510 0.8925 0.0007
vn -0.4514 0.8923 0.0006
vn -0.4585 0.8887 -0.0000
vn -0.4046 -0.9143 0.0168
vn -0.4243 -0.9054 0.0150
vn -0.4910 -0.8712 0.0018
vn -0.4494 -0.8932 0.0117
vn -0.4998 -0.8662 -0.0000
vn 1.0000 -0.0000 -0.0000
vn 1.0000 -0.0009 -0.0000
vn 1.0000 -0.0009 0.0001
vn 1.0000 -0.0007 0.0005
vn 1.0000 -0.0000 0.0031
vn 1.0000 0.0009 -0.0019
vn 0.0022 0.0001 1.0000
vn 0.4460 0.8950 -0.0000
vn 0.4514 0.8923 0.0006
vn 0.4585 0.8887 -0.0000
vn 0.4244 -0.9054 0.0150
vn 0.4046 -0.9143 0.0168
vn 0.4910 -0.8712 0.0018
vn 0.4495 -0.8932 0.0117
vn 0.4998 -0.8662 -0.0000
vn -0.8836 -0.4682 -0.0007
vn -0.8819 -0.4714 0.0001
vn -0.6850 -0.7285 0.0001
vn 0.6897 -0.7241 -0.0001
vn 0.8836 -0.4682 -0.0008
vn 0.8819 -0.4714 -0.0001
vn 0.6850 -0.7285 0.0001
vn -0.0000 -0.8060 -0.5920
vn -0.9688 -0.2447 -0.0392
vn -0.9723 -0.2316 -0.0304
vn -0.9804 -0.1971 -0.0022
vn -0.9813 -0.1927 -0.0000
vn -0.9911 -0.1328 -0.0000
vn -0.9959 -0.0905 -0.0000
vn -0.9977 -0.0680 -0.0000
vn -0.9996 -0.0280 -0.0000
vn -0.0000 -1.0000 -0.0000
vn -0.0001 -1.0000 -0.0000
vn -0.7756 -0.6294 -0.0483
vn -0.7773 -0.6266 -0.0556
vn -0.9250 -0.3731 -0.0717
vn -0.9240 -0.3749 -0.0756
vn -0.9599 0.0256 0.2791
vn -0.9298 -0.3566 -0.0907
vn -0.9301 -0.3559 -0.0908
vn -0.9453 -0.3132 -0.0914
vn -0.9448 -0.3145 -0.0923
vn -0.9629 -0.2582 -0.0789
vn -0.9639 -0.2558 -0.0735
vn -0.9735 -0.2236 -0.0484
vn -0.9746 -0.2204 -0.0395
vn -0.7772 -0.6268 -0.0555
vn -0.7754 -0.6296 -0.0483
vn -0.3863 -0.9217 -0.0342
vn -0.3980 -0.9168 -0.0339
vn -0.0000 -0.9995 -0.0324
vn -0.0000 -0.9997 -0.0259
vn 0.3863 -0.9217 -0.0342
vn 0.3980 -0.9168 -0.0339
vn 0.7754 -0.6296 -0.0483
vn 0.7772 -0.6268 -0.0555
vn -0.7323 -0.6710 0.1161
vn -0.7793 -0.6243 0.0533
vn -0.9047 -0.4212 -0.0638
vn -0.8623 -0.5029 -0.0598
vn -0.8992 -0.4274 -0.0939
vn -0.9107 -0.3541 -0.2128
vn -0.9092 -0.3500 -0.2254
vn -0.9237 -0.3070 -0.2290
vn -0.9278 -0.3011 -0.2203
vn -0.9569 -0.2370 -0.1677
vn -0.9623 -0.2266 -0.1503
vn -0.9721 -0.2012 -0.1207
vn -0.9802 -0.1813 -0.0796
vn -0.9780 -0.1923 -0.0808
vn -0.9927 -0.1206 -0.0099
vn -0.9932 -0.1167 -0.0000
vn -0.7792 -0.6244 0.0534
vn -0.7322 -0.6711 0.1162
vn -0.4142 -0.8830 0.2209
vn -0.3522 -0.9081 0.2265
vn -0.0000 -0.9661 0.2583
vn 0.3522 -0.9081 0.2265
vn 0.4142 -0.8830 0.2209
vn 0.7322 -0.6711 0.1162
vn 0.7792 -0.6244 0.0534
vn 0.9688 -0.2447 -0.0392
vn 0.9804 -0.1971 -0.0022
vn 0.9723 -0.2316 -0.0304
vn 0.9813 -0.1927 -0.0000
vn 0.9911 -0.1328 -0.0000
vn 0.9959 -0.0905 -0.0000
vn 0.9977 -0.0680 -0.0000
vn 0.9996 -0.0280 -0.0000
vn 0.0001 -1.0000 -0.0000
vn 0.7756 -0.6294 -0.0483
vn 0.9251 -0.3729 -0.0716
vn 0.7773 -0.6266 -0.0556
vn 0.9240 -0.3748 -0.0757
vn 0.9297 -0.3572 -0.0899
vn 0.9298 -0.3567 -0.0908
vn 0.9448 -0.3145 -0.0923
vn 0.9453 -0.3132 -0.0914
vn 0.9629 -0.2582 -0.0789
vn 0.9639 -0.2558 -0.0735
vn 0.9735 -0.2236 -0.0484
vn 0.9746 -0.2204 -0.0395
vn 0.7323 -0.6710 0.1161
vn 0.9047 -0.4212 -0.0638
vn 0.7793 -0.6243 0.0533
vn 0.8623 -0.5029 -0.0598
vn 0.8992 -0.4274 -0.0939
vn 0.9107 -0.3541 -0.2128
vn 0.9092 -0.3500 -0.2254
vn 0.9237 -0.3070 -0.2290
vn 0.9278 -0.3011 -0.2203
vn 0.9569 -0.2370 -0.1677
vn 0.9623 -0.2266 -0.1503
vn 0.9721 -0.2012 -0.1207
vn 0.9802 -0.1813 -0.0796
vn 0.9780 -0.1923 -0.0808
vn 0.9927 -0.1206 -0.0099
vn 0.9932 -0.1167 -0.0000
vn 0.0103 -0.9999 -0.0001
vn -0.0106 -0.9999 -0.0134
vn -0.6879 -0.7257 -0.0131
vt -19.299963 0.255985
vt -19.299963 0.292514
vt -19.360128 0.255985
vt -19.360130 0.292514
vt -19.360128 0.255985
vt -19.360128 0.238553
vt -19.298016 0.255985
vt -19.299963 0.238553
vt -19.209044 0.238553
vt -19.245979 0.255985
vt -19.209044 0.255985
vt -19.072662 0.238553
vt -19.072662 0.255985
vt -18.905533 0.238553
vt -18.905533 0.255985
vt 0.690330 -19.298016
vt 0.686446 -19.299963
vt 0.690384 -19.360128
vt 0.686446 -19.360128
vt 0.690385 -19.245979
vt 0.690385 -19.209044
vt 0.686446 -19.244026
vt 0.686446 -19.209044
vt 0.690385 -19.072662
vt 0.686447 -19.072662
vt 0.690385 -18.905533
vt 0.686447 -18.905533
vt -18.905533 0.292514
vt -19.072662 0.292514
vt -19.072662 0.255985
vt -19.209044 0.292514
vt -19.244026 0.292514
vt -19.244026 0.255985
vt -19.296679 0.255985
vt -19.247103 0.255985
vt -19.296679 0.292514
vt -19.247778 0.292514
vt 0.686446 0.255985
vt 0.690330 0.255985
vt 0.686446 0.292514
vt 0.692908 0.292514
vt 0.692908 0.255985
vt 0.692908 -19.296679
vt 0.692908 -19.247778
vt 0.686446 -19.254503
vt 0.686446 -19.244026
vt 0.307092 0.255985
vt 0.309615 0.255985
vt 0.307092 0.292514
vt 0.313554 0.255985
vt 0.313554 0.292514
vt 0.309615 -19.245979
vt 0.307092 -19.247103
vt 0.309670 -19.298016
vt 0.307092 -19.296679
vt 20.360130 0.292514
vt 20.299963 0.292514
vt 20.360128 0.255985
vt 20.299963 0.255985
vt 20.360128 0.255985
vt 20.298016 0.255985
vt 20.360128 0.238553
vt 20.299963 0.238553
vt 20.209044 0.238553
vt 20.245979 0.255985
vt 20.209044 0.255985
vt 20.072662 0.238553
vt 20.072662 0.255985
vt 19.905533 0.238553
vt 19.905533 0.255985
vt 0.313443 -19.360128
vt 0.313443 -19.299963
vt 0.309505 -19.360128
vt 0.309559 -19.298016
vt 0.309505 -19.245979
vt 0.313443 -19.244026
vt 0.309505 -19.209044
vt 0.313443 -19.209044
vt 0.309506 -19.072662
vt 0.313444 -19.072662
vt 0.309506 -18.905533
vt 0.313444 -18.905533
vt 19.905533 0.292514
vt 19.905533 0.255985
vt 20.072662 0.292514
vt 20.072662 0.255985
vt 20.209044 0.292514
vt 20.209044 0.255985
vt 20.244026 0.292514
vt 20.244026 0.255985
vt 20.247778 0.292514
vt 20.247103 0.255985
vt 20.296677 0.292514
vt 20.296677 0.255985
vt 0.313443 0.255985
vt 0.313443 0.292514
vt 0.309559 0.255985
vt 0.306981 0.292514
vt 0.306981 0.255985
vt 0.306981 -19.296677
vt 0.306981 -19.247778
vt 0.313444 -19.254503
vt 0.313443 -19.244026
vt 0.690495 0.255985
vt 0.693018 0.255985
vt 0.693019 0.292514
vt 0.686557 0.255985
vt 0.686557 0.292514
vt 0.693019 -19.296677
vt 0.693018 -19.247103
vt 0.690441 -19.298016
vt 0.690495 -19.245979
vt -12.693108 0.255985
vt -12.844642 0.255985
vt -12.693108 0.238553
vt -12.844642 0.238553
vt -12.844642 0.255985
vt -12.693109 0.255985
vt -12.844642 0.292514
vt -12.693109 0.292514
vt 0.690403 -12.693108
vt 0.686465 -12.693109
vt 0.690403 -12.844642
vt 0.686464 -12.844642
vt 13.844641 0.238553
vt 13.844641 0.255985
vt 13.693108 0.238553
vt 13.693108 0.255985
vt 13.693109 0.292514
vt 13.693108 0.255985
vt 13.844641 0.292514
vt 13.844641 0.255985
vt 0.313461 -12.844641
vt 0.313461 -12.693108
vt 0.309523 -12.844641
vt 0.309523 -12.693108
vt 0.454859 0.335098
vt 0.454859 0.336647
vt 0.421296 0.336647
vt 0.500037 0.336647
vt 0.545214 0.335098
vt 0.545214 0.336647
vt 0.578778 0.336647
vt 0.471818 0.326013
vt 0.474419 0.326013
vt 0.471818 0.335098
vt 0.474419 0.335098
vt -12.710384 0.326013
vt -12.707811 0.326013
vt -12.710384 0.335098
vt -12.701113 0.335098
vt 0.474419 -12.710384
vt 0.474419 -12.707811
vt 0.471818 -12.710384
vt 0.471818 -12.707811
vt 13.710384 0.335098
vt 13.701113 0.335098
vt 13.710384 0.326013
vt 13.707811 0.326013
vt -18.253939 0.238553
vt -18.253939 0.255985
vt -18.299398 0.238553
vt -18.299398 0.255985
vt -18.390318 0.255985
vt -18.390318 0.238553
vt -18.481237 0.238553
vt -18.481237 0.255985
vt -18.572157 0.255985
vt -18.572157 0.238553
vt -18.663078 0.255985
vt -18.663078 0.238554
vt -18.753996 0.255985
vt -18.753996 0.238553
vt 0.638970 -18.253939
vt 0.642908 -18.253939
vt 0.628051 -18.208479
vt 0.631989 -18.208479
vt 0.601213 -18.117558
vt 0.605151 -18.117558
vt 0.567955 -18.026638
vt 0.571893 -18.026638
vt 0.536036 -17.935740
vt 0.532097 -17.935740
vt 0.522673 -17.912064
vt 0.525466 -17.908991
vt 0.512791 -17.905190
vt 0.513759 -17.901119
vt 0.499949 -17.902426
vt 0.499949 -17.898355
vt 0.486140 -17.901119
vt 0.487108 -17.905190
vt 0.474432 -17.908991
vt 0.477225 -17.912064
vt 0.463862 -17.935740
vt 0.467801 -17.935740
vt 0.428004 -18.026638
vt 0.431943 -18.026638
vt 0.394746 -18.117558
vt 0.398684 -18.117558
vt 0.367907 -18.208479
vt 0.371845 -18.208479
vt 0.356988 -18.253939
vt 0.360926 -18.253939
vt 0.357092 0.238553
vt 0.361030 0.238553
vt 0.356387 0.255985
vt 0.360326 0.255985
vt -17.912064 0.238553
vt -17.911861 0.255985
vt -17.935740 0.238553
vt -17.935740 0.255985
vt -18.026638 0.241235
vt -18.026638 0.255985
vt -18.026638 0.238553
vt -18.117558 0.255985
vt -18.117558 0.238553
vt -18.208479 0.238553
vt -18.208479 0.255985
vt -18.253939 0.255985
vt 0.476323 0.255985
vt 0.477327 0.238553
vt 0.487209 0.255985
vt 0.487209 0.238553
vt 0.500051 0.238553
vt 0.500051 0.255985
vt 0.512892 0.255985
vt 0.512892 0.238553
vt 0.522775 0.238553
vt 0.523779 0.255985
vt 0.639674 -18.253939
vt 0.649888 -18.299398
vt 0.643613 -18.253939
vt 0.653827 -18.299398
vt 0.664967 -18.390318
vt 0.668906 -18.390318
vt 0.674134 -18.481237
vt 0.678072 -18.481237
vt 0.681389 -18.572159
vt 0.685327 -18.572157
vt 0.686448 -18.663078
vt 0.690386 -18.663078
vt 0.690386 -18.753996
vt 0.686448 -18.753998
vt -17.924330 0.292514
vt -17.935738 0.292514
vt -17.958656 0.292514
vt -18.026638 0.292514
vt -18.117558 0.292514
vt -18.208479 0.292514
vt -18.299398 0.292514
vt -18.299398 0.255985
vt -18.390318 0.255985
vt -18.390318 0.292514
vt -18.481237 0.255985
vt -18.481237 0.292514
vt -18.572159 0.255985
vt -18.572159 0.292514
vt -18.663078 0.255985
vt -18.663078 0.292514
vt -18.753998 0.255985
vt -18.753998 0.292514
vt 0.471222 0.292514
vt 0.483751 0.292514
vt 0.500051 0.292514
vt 0.516350 0.292514
vt 0.528880 0.292514
vt 19.253939 0.238553
vt 19.299398 0.238553
vt 19.253939 0.255985
vt 19.299398 0.255985
vt 19.390318 0.255985
vt 19.390318 0.238553
vt 19.481237 0.238553
vt 19.481237 0.255985
vt 19.572157 0.255985
vt 19.572157 0.238553
vt 19.663078 0.255985
vt 19.663078 0.238553
vt 19.753996 0.255985
vt 19.753996 0.238553
vt 0.639778 0.255985
vt 0.639074 0.238553
vt 0.643717 0.255985
vt 0.643012 0.238553
vt 18.912064 0.238553
vt 18.935740 0.238553
vt 18.911861 0.255985
vt 18.935740 0.255985
vt 19.026638 0.238553
vt 19.026638 0.255985
vt 19.117558 0.238553
vt 19.117558 0.255985
vt 19.208479 0.238553
vt 19.208479 0.255985
vt 19.253939 0.255985
vt 0.360222 -18.253939
vt 0.356283 -18.253939
vt 0.350008 -18.299398
vt 0.346069 -18.299398
vt 0.334928 -18.390318
vt 0.330989 -18.390318
vt 0.325761 -18.481237
vt 0.321822 -18.481237
vt 0.318505 -18.572157
vt 0.314566 -18.572157
vt 0.313445 -18.663078
vt 0.309507 -18.663078
vt 0.309507 -18.753996
vt 0.313445 -18.753998
vt 18.924330 0.292514
vt 18.935738 0.292514
vt 18.958656 0.292514
vt 19.026638 0.292514
vt 19.117558 0.292514
vt 19.208477 0.292514
vt 19.299398 0.292514
vt 19.299398 0.255985
vt 19.390318 0.255985
vt 19.390318 0.292514
vt 19.481237 0.255985
vt 19.481237 0.292514
vt 19.572157 0.255985
vt 19.572157 0.292514
vt 19.663078 0.255985
vt 19.663078 0.292514
vt 19.753998 0.255985
vt 19.753998 0.292514
vt 0.477448 0.336647
vt 0.500037 0.335098
vt 0.477448 0.335098
s 1
g Bsh_Hull_Midsection_Dredn_BCD1_001_0_steel_board_1
usemtl steel_board_1
f 3/1/1 2/2/1 1/3/1
f 4/4/1 1/3/1 2/2/1
f 7/5/2 6/6/3 5/7/4
f 8/8/3 5/7/4 6/6/3
f 8/8/3 9/9/5 5/7/4
f 10/10/6 5/7/4 9/9/5
f 11/11/1 10/10/6 9/9/5
f 9/9/5 12/12/1 11/11/1
f 13/13/1 11/11/1 12/12/1
f 12/12/1 14/14/1 13/13/1
f 15/15/1 13/13/1 14/14/1
f 18/16/7 17/17/8 16/18/8
f 19/19/8 16/18/8 17/17/8
f 22/20/9 21/21/8 20/22/8
f 23/23/8 20/22/8 21/21/8
f 21/21/8 24/24/8 23/23/8
f 25/25/8 23/23/8 24/24/8
f 24/24/8 26/26/8 25/25/8
f 27/27/8 25/25/8 26/26/8
f 30/28/1 29/29/1 28/15/1
f 31/30/1 28/15/1 29/29/1
f 29/29/1 32/31/1 31/30/1
f 33/11/1 31/30/1 32/31/1
f 32/31/1 34/32/1 33/11/1
f 35/33/1 33/11/1 34/32/1
f 38/34/1 37/35/1 36/36/1
f 39/37/1 36/36/1 37/35/1
f 42/38/10 41/39/11 40/40/12
f 43/41/13 40/40/12 41/39/11
f 44/42/14 43/41/13 41/39/11
f 47/43/8 46/44/8 45/17/8
f 48/45/8 45/17/8 46/44/8
f 46/44/8 49/46/8 48/45/8
f 52/47/15 51/48/16 50/49/17
f 51/48/16 53/50/18 50/49/17
f 54/51/19 50/49/17 53/50/18
f 57/52/9 56/53/9 55/54/7
f 58/55/9 55/54/7 56/53/9
f 61/56/20 60/57/20 59/58/20
f 62/59/20 59/58/20 60/57/20
f 65/60/21 64/61/22 63/62/23
f 66/63/24 63/62/23 64/61/22
f 66/63/24 64/61/22 67/64/24
f 68/65/25 67/64/24 64/61/22
f 68/65/25 69/66/20 67/64/24
f 67/64/24 69/66/20 70/67/20
f 71/68/20 70/67/20 69/66/20
f 70/67/20 71/68/20 72/69/20
f 73/70/20 72/69/20 71/68/20
f 76/71/8 75/72/8 74/73/8
f 77/74/26 74/73/8 75/72/8
f 80/75/9 79/76/8 78/77/8
f 81/78/8 78/77/8 79/76/8
f 78/77/8 81/78/8 82/79/8
f 83/80/8 82/79/8 81/78/8
f 82/79/8 83/80/8 84/81/8
f 85/82/8 84/81/8 83/80/8
f 88/83/20 87/84/20 86/85/20
f 89/86/20 86/85/20 87/84/20
f 86/85/20 89/86/20 90/87/20
f 91/88/20 90/87/20 89/86/20
f 90/87/20 91/88/20 92/89/20
f 93/90/20 92/89/20 91/88/20
f 96/91/20 95/92/20 94/93/20
f 97/94/20 94/93/20 95/92/20
f 100/95/27 99/96/27 98/97/27
f 101/98/28 98/97/27 99/96/27
f 101/98/28 102/99/29 98/97/27
f 105/100/8 104/72/8 103/101/8
f 106/102/8 103/101/8 104/72/8
f 107/103/8 103/101/8 106/102/8
f 110/104/30 109/105/31 108/106/32
f 110/104/30 108/106/32 111/107/33
f 112/108/34 111/107/33 108/106/32
f 115/109/9 114/110/9 113/111/26
f 116/112/9 113/111/26 114/110/9
f 122/113/1 121/114/1 117/115/1
f 118/116/1 117/115/1 121/114/1
f 125/117/1 124/118/1 123/119/1
f 126/120/1 123/119/1 124/118/1
f 129/121/8 128/122/8 127/123/8
f 130/124/8 127/123/8 128/122/8
f 120/125/20 131/126/20 119/127/20
f 132/128/20 119/127/20 131/126/20
f 135/129/20 134/130/20 133/131/20
f 136/132/20 133/131/20 134/130/20
f 139/133/8 138/134/8 137/135/8
f 140/136/8 137/135/8 138/134/8
f 143/137/35 142/138/36 141/139/37
f 352/140/38 145/141/39 144/142/40
f 145/141/39 146/143/41 144/142/40
f 151/144/42 150/145/42 149/146/42
f 152/147/42 149/146/42 150/145/42
f 155/148/1 154/149/1 153/150/1
f 156/151/1 153/150/1 154/149/1
f 159/152/9 158/153/9 157/154/9
f 160/155/9 157/154/9 158/153/9
f 163/156/20 162/157/20 161/158/20
f 164/159/20 161/158/20 162/157/20
f 167/160/43 166/161/44 165/162/45
f 168/163/46 165/162/45 166/161/44
f 168/163/46 169/164/47 165/162/45
f 170/165/47 165/162/45 169/164/47
f 170/165/47 169/164/47 171/166/48
f 172/167/48 171/166/48 169/164/47
f 172/167/48 173/168/49 171/166/48
f 174/169/49 171/166/48 173/168/49
f 173/168/49 175/170/50 174/169/49
f 176/171/50 174/169/49 175/170/50
f 175/170/50 177/172/1 176/171/50
f 178/173/1 176/171/50 177/172/1
f 181/174/8 180/175/8 179/176/8
f 182/177/8 179/176/8 180/175/8
f 179/176/8 182/177/8 183/178/8
f 184/179/8 183/178/8 182/177/8
f 183/178/8 184/179/8 185/180/8
f 186/181/8 185/180/8 184/179/8
f 186/181/8 187/182/8 185/180/8
f 188/183/8 185/180/8 187/182/8
f 188/183/8 187/182/8 189/184/8
f 190/185/8 189/184/8 187/182/8
f 189/184/8 190/185/8 191/186/8
f 192/187/8 191/186/8 190/185/8
f 191/186/8 192/187/8 193/188/8
f 194/189/8 193/188/8 192/187/8
f 194/189/8 195/190/8 193/188/8
f 196/191/8 193/188/8 195/190/8
f 195/190/8 197/192/8 196/191/8
f 198/193/8 196/191/8 197/192/8
f 197/192/8 199/194/8 198/193/8
f 200/195/8 198/193/8 199/194/8
f 199/194/8 201/196/8 200/195/8
f 202/197/8 200/195/8 201/196/8
f 201/196/8 203/198/8 202/197/8
f 204/199/8 202/197/8 203/198/8
f 203/198/8 205/200/8 204/199/8
f 206/201/8 204/199/8 205/200/8
f 205/200/8 207/202/8 206/201/8
f 208/203/8 206/201/8 207/202/8
f 211/204/51 210/205/51 209/206/51
f 212/207/52 209/206/51 210/205/51
f 215/208/53 214/209/54 213/210/55
f 216/211/56 213/210/55 214/209/54
f 216/211/56 217/212/57 213/210/55
f 218/213/58 217/212/57 216/211/56
f 213/210/55 217/212/57 219/214/59
f 217/212/57 218/213/58 219/214/59
f 218/213/58 220/215/60 219/214/59
f 219/214/59 220/215/60 221/216/61
f 221/216/61 220/215/60 222/217/62
f 223/218/63 222/217/62 220/215/60
f 222/217/62 223/218/63 224/160/64
f 225/219/65 224/160/64 223/218/63
f 228/220/66 227/221/67 226/222/68
f 229/223/69 226/222/68 227/221/67
f 229/223/69 230/224/70 226/222/68
f 231/225/71 226/222/68 230/224/70
f 231/225/71 230/224/70 232/226/72
f 233/227/73 232/226/72 230/224/70
f 233/227/73 234/228/74 232/226/72
f 235/229/75 232/226/72 234/228/74
f 238/230/8 237/231/8 236/232/8
f 239/233/8 236/232/8 237/231/8
f 237/231/8 240/234/8 239/233/8
f 241/235/8 239/233/8 240/234/8
f 240/234/8 242/236/8 241/235/8
f 243/237/8 241/235/8 242/236/8
f 242/236/8 244/238/8 243/237/8
f 245/239/8 243/237/8 244/238/8
f 244/238/8 246/240/8 245/239/8
f 247/241/8 245/239/8 246/240/8
f 247/241/8 246/240/8 248/242/8
f 249/243/8 248/242/8 246/240/8
f 252/209/76 251/244/77 250/211/78
f 253/245/79 250/211/78 251/244/77
f 253/245/79 254/246/80 250/211/78
f 254/246/80 255/247/81 250/211/78
f 256/213/82 250/211/78 255/247/81
f 256/213/82 255/247/81 257/215/83
f 258/248/84 257/215/83 255/247/81
f 257/215/83 258/248/84 259/218/85
f 260/249/86 259/218/85 258/248/84
f 259/218/85 260/249/86 261/219/87
f 261/219/87 260/249/86 262/250/88
f 263/251/89 261/219/87 262/250/88
f 263/251/89 262/250/88 264/252/90
f 265/253/91 264/252/90 262/250/88
f 264/252/90 265/253/91 266/254/48
f 267/255/48 266/254/48 265/253/91
f 266/254/48 267/255/48 268/256/49
f 269/257/49 268/256/49 267/255/48
f 268/256/49 269/257/49 270/258/50
f 271/259/50 270/258/50 269/257/49
f 270/258/50 271/259/50 272/260/1
f 273/261/1 272/260/1 271/259/50
f 276/262/92 275/220/93 274/263/94
f 277/222/95 274/263/94 275/220/93
f 274/263/94 277/222/95 278/264/96
f 279/225/96 278/264/96 277/222/95
f 279/225/96 280/226/97 278/264/96
f 281/265/98 278/264/96 280/226/97
f 280/226/97 282/229/99 281/265/98
f 283/266/100 281/265/98 282/229/99
f 286/267/101 285/268/102 284/269/103
f 287/270/104 284/269/103 285/268/102
f 287/270/104 285/268/102 288/271/105
f 289/272/105 288/271/105 285/268/102
f 289/272/105 290/273/106 288/271/105
f 291/274/106 288/271/105 290/273/106
f 291/274/106 290/273/106 292/275/107
f 293/276/107 292/275/107 290/273/106
f 292/275/107 293/276/107 294/277/108
f 295/278/108 294/277/108 293/276/107
f 294/277/108 295/278/108 296/279/20
f 297/280/20 296/279/20 295/278/108
f 300/281/109 299/282/51 298/283/51
f 301/284/51 298/283/51 299/282/51
f 304/285/110 303/286/111 302/287/112
f 305/288/113 302/287/112 303/286/111
f 303/286/111 306/289/114 305/288/113
f 307/290/115 305/288/113 306/289/114
f 306/289/114 308/291/116 307/290/115
f 309/292/117 307/290/115 308/291/116
f 308/291/116 310/293/118 309/292/117
f 311/294/119 309/292/117 310/293/118
f 310/293/118 312/267/120 311/294/119
f 313/295/121 311/294/119 312/267/120
f 316/296/8 315/297/8 314/298/8
f 317/299/8 314/298/8 315/297/8
f 314/298/8 317/299/8 318/300/8
f 319/301/8 318/300/8 317/299/8
f 318/300/8 319/301/8 320/302/8
f 321/303/8 320/302/8 319/301/8
f 320/302/8 321/303/8 322/304/8
f 323/305/8 322/304/8 321/303/8
f 322/304/8 323/305/8 324/306/8
f 325/307/8 324/306/8 323/305/8
f 325/307/8 326/308/8 324/306/8
f 327/309/8 324/306/8 326/308/8
f 330/287/122 329/288/123 328/310/124
f 331/311/125 328/310/124 329/288/123
f 332/312/126 331/311/125 329/288/123
f 332/312/126 329/288/123 333/313/127
f 334/290/128 333/313/127 329/288/123
f 334/290/128 335/292/129 333/313/127
f 336/314/130 333/313/127 335/292/129
f 335/292/129 337/294/131 336/314/130
f 338/315/132 336/314/130 337/294/131
f 338/315/132 337/294/131 339/295/133
f 338/315/132 339/295/133 340/316/134
f 339/295/133 341/317/135 340/316/134
f 341/317/135 342/318/136 340/316/134
f 343/319/137 340/316/134 342/318/136
f 342/318/136 344/320/106 343/319/137
f 345/321/106 343/319/137 344/320/106
f 344/320/106 346/322/107 345/321/106
f 347/323/107 345/321/106 346/322/107
f 346/322/107 348/324/108 347/323/107
f 349/325/108 347/323/107 348/324/108
f 348/324/108 350/326/20 349/325/108
f 351/327/20 349/325/108 350/326/20
f 355/328/138 353/329/139 352/140/38
f 143/137/35 355/328/138 142/138/36
f 352/140/38 353/329/139 145/141/39
f 355/328/138 356/330/140 353/329/139
f 143/137/35 356/330/140 355/328/138
l 354 148
l 357 354
l 147 357
