# Blender 5.1.0
# www.blender.org
mtllib Bsh_Hull_Midsection_Dredn_BF1_001_5.mtl
o Bsh_Hull_Midsection_Dredn_BF1_001_5
v -12.384522 -10.000021 5.099125
v -12.384510 -0.000005 5.099121
v 12.384527 -10.000017 5.099125
v 12.384511 -0.000001 5.099119
v -12.384514 -0.000005 8.022895
v -12.384521 -10.000021 8.022894
v 12.384516 -0.000001 8.022894
v 12.384526 -10.000017 8.022894
vn -1.0000 -0.0000 -0.0000
vn 1.0000 -0.0000 -0.0000
vt -14.597174 0.292514
vt -14.445641 0.292514
vt -14.597174 0.336647
vt -14.445641 0.336647
vt 15.445641 0.336647
vt 15.445641 0.292514
vt 15.597174 0.336647
vt 15.597174 0.292514
s 1
g Bsh_Hull_Midsection_Dredn_BF1_001_5_steel_board_2
usemtl steel_board_2
f 2/1/1 1/2/1 5/3/1
f 6/4/1 5/3/1 1/2/1
f 8/5/2 3/6/2 7/7/2
f 4/8/2 7/7/2 3/6/2
