# Blender 5.1.0
# www.blender.org
mtllib Bsh_Hull_Midsection_Dredn_BC4_001_9.mtl
o Bsh_Hull_Midsection_Dredn_BC4_001_9
v -11.571733 -12.015351 8.129353
v -12.147086 -10.372711 8.129347
v -11.575453 -10.371420 8.129353
v -12.143373 -12.016644 8.129348
v -11.571732 -12.015351 8.022915
v -12.143373 -12.016644 8.129348
v -11.571733 -12.015351 8.129353
v -12.143373 -12.016644 8.022913
v -12.143373 -12.016644 8.022913
v -12.147086 -10.372711 8.129347
v -12.143373 -12.016644 8.129348
v -12.147086 -10.372711 8.022911
v -12.147086 -10.372711 8.022911
v -11.575453 -10.371420 8.129353
v -12.147086 -10.372711 8.129347
v -11.575451 -10.371420 8.022913
v -11.575451 -10.371420 8.022913
v -11.571733 -12.015351 8.129353
v -11.575453 -10.371420 8.129353
v -11.571732 -12.015351 8.022915
v -11.971210 -11.770465 8.022912
v -12.018318 -11.657468 8.531452
v -11.971210 -11.770465 8.531452
v -12.018318 -11.657468 8.022912
v -11.971723 -11.544259 8.531452
v -11.971723 -11.544259 8.022912
v -11.971210 -11.770465 8.531452
v -11.858002 -11.817061 8.022912
v -11.971210 -11.770465 8.022912
v -11.858002 -11.817061 8.531452
v -11.745002 -11.769956 8.022912
v -11.745002 -11.769956 8.531455
v -11.745002 -11.769956 8.531455
v -11.698412 -11.656745 8.022913
v -11.745002 -11.769956 8.022912
v -11.698413 -11.656745 8.531460
v -11.745514 -11.543746 8.022913
v -11.745515 -11.543746 8.531455
v -11.745515 -11.543746 8.531455
v -11.858726 -11.497157 8.022912
v -11.745514 -11.543746 8.022913
v -11.858726 -11.497157 8.531452
v -11.971723 -11.544259 8.022912
v -11.971723 -11.544259 8.531452
v -12.008334 -11.807761 8.531452
v -12.070931 -11.657590 8.631030
v -12.008334 -11.807761 8.631030
v -12.070931 -11.657590 8.531452
v -12.009012 -11.507140 8.631030
v -12.009012 -11.507140 8.531452
v -12.008334 -11.807761 8.631030
v -11.857881 -11.869678 8.531452
v -12.008334 -11.807761 8.531452
v -11.857881 -11.869678 8.631030
v -11.707716 -11.807080 8.531460
v -11.707716 -11.807080 8.631039
v -11.707716 -11.807080 8.631039
v -11.645795 -11.656631 8.531460
v -11.707716 -11.807080 8.531460
v -11.645796 -11.656631 8.631037
v -11.708396 -11.506457 8.531460
v -11.708395 -11.506457 8.631039
v -11.708395 -11.506457 8.631039
v -11.858843 -11.444541 8.531452
v -11.708396 -11.506457 8.531460
v -11.858843 -11.444541 8.631030
v -12.009012 -11.507140 8.531452
v -12.009012 -11.507140 8.631030
v -11.973350 -10.824538 8.022912
v -12.020455 -10.711535 8.531450
v -11.973350 -10.824538 8.531452
v -12.020454 -10.711535 8.022912
v -11.973859 -10.598327 8.531452
v -11.973858 -10.598327 8.022912
v -11.973350 -10.824538 8.531452
v -11.860139 -10.871131 8.022912
v -11.973350 -10.824538 8.022912
v -11.860139 -10.871131 8.531452
v -11.747140 -10.824025 8.022912
v -11.747143 -10.824025 8.531458
v -11.747143 -10.824025 8.531458
v -11.700547 -10.710818 8.022912
v -11.747140 -10.824025 8.022912
v -11.700549 -10.710818 8.531460
v -11.747651 -10.597821 8.022912
v -11.747654 -10.597821 8.531458
v -11.747654 -10.597821 8.531458
v -11.860861 -10.551225 8.022912
v -11.747651 -10.597821 8.022912
v -11.860864 -10.551225 8.531452
v -11.973858 -10.598327 8.022912
v -11.973859 -10.598327 8.531452
v -12.010472 -10.861827 8.531452
v -12.073071 -10.711658 8.631029
v -12.010472 -10.861827 8.631029
v -12.073071 -10.711658 8.531450
v -12.011151 -10.561208 8.631029
v -12.011151 -10.561208 8.531450
v -12.010472 -10.861827 8.631029
v -11.860023 -10.923747 8.531453
v -12.010472 -10.861827 8.531452
v -11.860023 -10.923747 8.631032
v -11.709852 -10.861148 8.531458
v -11.709852 -10.861148 8.631037
v -11.709852 -10.861148 8.631037
v -11.647934 -10.710696 8.531458
v -11.709852 -10.861148 8.531458
v -11.647932 -10.710696 8.631037
v -11.710534 -10.560527 8.531458
v -11.710534 -10.560527 8.631037
v -11.710534 -10.560527 8.631037
v -11.860980 -10.498605 8.531452
v -11.710534 -10.560527 8.531458
v -11.860980 -10.498605 8.631031
v -12.011151 -10.561208 8.531450
v -12.011151 -10.561208 8.631029
v 11.571676 -12.015359 8.129355
v 12.147029 -10.372719 8.129349
v 12.143316 -12.016652 8.129350
v 11.575396 -10.371426 8.129354
v 11.571674 -12.015359 8.022916
v 12.143316 -12.016652 8.129350
v 12.143316 -12.016652 8.022916
v 11.571676 -12.015359 8.129355
v 12.143316 -12.016652 8.022916
v 12.147029 -10.372719 8.129349
v 12.147029 -10.372719 8.022915
v 12.143316 -12.016652 8.129350
v 12.147029 -10.372719 8.022915
v 11.575396 -10.371426 8.129354
v 11.575394 -10.371426 8.022915
v 12.147029 -10.372719 8.129349
v 11.575394 -10.371426 8.022915
v 11.571676 -12.015359 8.129355
v 11.571674 -12.015359 8.022916
v 11.575396 -10.371426 8.129354
v 12.018261 -11.657477 8.531453
v 11.971153 -11.770473 8.022915
v 11.971153 -11.770473 8.531453
v 12.018261 -11.657477 8.022915
v 11.971664 -11.544269 8.531453
v 11.971664 -11.544269 8.022915
v 11.857944 -11.817069 8.022915
v 11.971153 -11.770473 8.531453
v 11.971153 -11.770473 8.022915
v 11.857944 -11.817069 8.531453
v 11.744945 -11.769965 8.022915
v 11.744945 -11.769965 8.531456
v 11.698354 -11.656754 8.022915
v 11.744945 -11.769965 8.531456
v 11.744945 -11.769965 8.022915
v 11.698355 -11.656754 8.531461
v 11.745457 -11.543757 8.022915
v 11.745459 -11.543757 8.531456
v 11.858668 -11.497165 8.022915
v 11.745459 -11.543757 8.531456
v 11.745457 -11.543757 8.022915
v 11.858668 -11.497165 8.531453
v 11.971664 -11.544269 8.022915
v 11.971664 -11.544269 8.531453
v 12.070874 -11.657597 8.631032
v 12.008277 -11.807767 8.531453
v 12.008277 -11.807766 8.631032
v 12.070874 -11.657598 8.531453
v 12.008956 -11.507147 8.631032
v 12.008956 -11.507148 8.531453
v 11.857824 -11.869685 8.531453
v 12.008277 -11.807766 8.631032
v 12.008277 -11.807767 8.531453
v 11.857824 -11.869685 8.631032
v 11.707659 -11.807086 8.531461
v 11.707659 -11.807086 8.631040
v 11.645738 -11.656638 8.531461
v 11.707659 -11.807086 8.631040
v 11.707659 -11.807086 8.531461
v 11.645739 -11.656638 8.631040
v 11.708339 -11.506467 8.531461
v 11.708338 -11.506467 8.631040
v 11.858786 -11.444547 8.531453
v 11.708338 -11.506467 8.631040
v 11.708339 -11.506467 8.531461
v 11.858786 -11.444547 8.631032
v 12.008956 -11.507148 8.531453
v 12.008956 -11.507147 8.631032
v 12.020398 -10.711540 8.531452
v 11.973292 -10.824546 8.022913
v 11.973292 -10.824545 8.531452
v 12.020397 -10.711541 8.022913
v 11.973802 -10.598335 8.531452
v 11.973801 -10.598336 8.022913
v 11.860083 -10.871137 8.022915
v 11.973292 -10.824545 8.531452
v 11.973292 -10.824546 8.022913
v 11.860083 -10.871136 8.531456
v 11.747083 -10.824033 8.022915
v 11.747085 -10.824034 8.531460
v 11.700490 -10.710824 8.022915
v 11.747085 -10.824034 8.531460
v 11.747083 -10.824033 8.022915
v 11.700493 -10.710823 8.531460
v 11.747593 -10.597829 8.022915
v 11.747596 -10.597828 8.531460
v 11.860804 -10.551232 8.022915
v 11.747596 -10.597828 8.531460
v 11.747593 -10.597829 8.022915
v 11.860806 -10.551231 8.531456
v 11.973801 -10.598336 8.022913
v 11.973802 -10.598335 8.531452
v 12.073013 -10.711662 8.631031
v 12.010415 -10.861835 8.531452
v 12.010415 -10.861835 8.631031
v 12.073013 -10.711662 8.531452
v 12.011094 -10.561214 8.631031
v 12.011094 -10.561214 8.531452
v 11.859965 -10.923756 8.531456
v 12.010415 -10.861835 8.631031
v 12.010415 -10.861835 8.531452
v 11.859965 -10.923756 8.631034
v 11.709795 -10.861153 8.531460
v 11.709795 -10.861153 8.631039
v 11.647877 -10.710705 8.531460
v 11.709795 -10.861153 8.631039
v 11.709795 -10.861153 8.531460
v 11.647875 -10.710705 8.631039
v 11.710477 -10.560534 8.531460
v 11.710477 -10.560534 8.631039
v 11.860924 -10.498611 8.531454
v 11.710477 -10.560534 8.631039
v 11.710477 -10.560534 8.531460
v 11.860924 -10.498611 8.631033
v 12.011094 -10.561214 8.531452
v 12.011094 -10.561214 8.631031
v -12.070931 -11.657590 8.631030
v -12.009012 -11.507140 8.631030
v -11.858364 -11.657111 8.695322
v -12.008334 -11.807761 8.631030
v -11.858843 -11.444541 8.631030
v -11.857881 -11.869678 8.631030
v -11.708395 -11.506457 8.631039
v -11.707716 -11.807080 8.631039
v -11.645796 -11.656631 8.631037
v -12.073071 -10.711658 8.631029
v -12.011151 -10.561208 8.631029
v -11.860502 -10.711177 8.695322
v -12.010472 -10.861827 8.631029
v -11.860980 -10.498605 8.631031
v -11.860023 -10.923747 8.631032
v -11.710534 -10.560527 8.631037
v -11.709852 -10.861148 8.631037
v -11.647932 -10.710696 8.631037
v 12.070874 -11.657597 8.631032
v 11.858308 -11.657118 8.695323
v 12.008956 -11.507147 8.631032
v 12.008277 -11.807766 8.631032
v 11.858786 -11.444547 8.631032
v 11.857824 -11.869685 8.631032
v 11.708338 -11.506467 8.631040
v 11.707659 -11.807086 8.631040
v 11.645739 -11.656638 8.631040
v 12.073013 -10.711662 8.631031
v 11.860445 -10.711185 8.695326
v 12.011094 -10.561214 8.631031
v 12.010415 -10.861835 8.631031
v 11.860924 -10.498611 8.631033
v 11.859965 -10.923756 8.631034
v 11.710477 -10.560534 8.631039
v 11.709795 -10.861153 8.631039
v 11.647875 -10.710705 8.631039
v -11.971210 -11.770465 8.531452
v -12.070931 -11.657590 8.531452
v -12.008334 -11.807761 8.531452
v -12.018318 -11.657468 8.531452
v -11.858002 -11.817061 8.531452
v -12.009012 -11.507140 8.531452
v -11.857881 -11.869678 8.531452
v -11.971723 -11.544259 8.531452
v -11.745002 -11.769956 8.531455
v -11.858843 -11.444541 8.531452
v -11.707716 -11.807080 8.531460
v -11.858726 -11.497157 8.531452
v -11.698413 -11.656745 8.531460
v -11.708396 -11.506457 8.531460
v -11.645795 -11.656631 8.531460
v -11.745515 -11.543746 8.531455
v -11.973350 -10.824538 8.531452
v -12.073071 -10.711658 8.531450
v -12.010472 -10.861827 8.531452
v -12.020455 -10.711535 8.531450
v -11.860139 -10.871131 8.531452
v -12.011151 -10.561208 8.531450
v -11.860023 -10.923747 8.531453
v -11.973859 -10.598327 8.531452
v -11.747143 -10.824025 8.531458
v -11.860980 -10.498605 8.531452
v -11.709852 -10.861148 8.531458
v -11.860864 -10.551225 8.531452
v -11.700549 -10.710818 8.531460
v -11.710534 -10.560527 8.531458
v -11.647934 -10.710696 8.531458
v -11.747654 -10.597821 8.531458
v 12.070874 -11.657598 8.531453
v 11.971153 -11.770473 8.531453
v 12.008277 -11.807767 8.531453
v 12.018261 -11.657477 8.531453
v 11.857944 -11.817069 8.531453
v 12.008956 -11.507148 8.531453
v 11.857824 -11.869685 8.531453
v 11.971664 -11.544269 8.531453
v 11.744945 -11.769965 8.531456
v 11.858786 -11.444547 8.531453
v 11.707659 -11.807086 8.531461
v 11.858668 -11.497165 8.531453
v 11.698355 -11.656754 8.531461
v 11.708339 -11.506467 8.531461
v 11.645738 -11.656638 8.531461
v 11.745459 -11.543757 8.531456
v 12.073013 -10.711662 8.531452
v 11.973292 -10.824545 8.531452
v 12.010415 -10.861835 8.531452
v 12.020398 -10.711540 8.531452
v 11.860083 -10.871136 8.531456
v 12.011094 -10.561214 8.531452
v 11.859965 -10.923756 8.531456
v 11.973802 -10.598335 8.531452
v 11.747085 -10.824034 8.531460
v 11.860924 -10.498611 8.531454
v 11.709795 -10.861153 8.531460
v 11.860806 -10.551231 8.531456
v 11.700493 -10.710823 8.531460
v 11.710477 -10.560534 8.531460
v 11.647877 -10.710705 8.531460
v 11.747596 -10.597828 8.531460
vn -0.0000 -0.0000 1.0000
vn 0.0023 -1.0000 -0.0000
vn -1.0000 -0.0023 -0.0000
vn -0.0023 1.0000 -0.0000
vn 1.0000 0.0023 -0.0000
vn -0.7055 -0.7087 -0.0000
vn -0.7087 0.7055 -0.0000
vn 0.0022 -1.0000 -0.0000
vn 0.7087 -0.7055 -0.0000
vn 0.7088 -0.7055 -0.0000
vn 0.7055 0.7087 -0.0000
vn -1.0000 -0.0022 -0.0000
vn 0.7087 -0.7055 0.0001
vn -0.0022 1.0000 -0.0000
vn -0.7055 -0.7087 0.0001
vn 0.7055 0.7087 -0.0001
vn -0.0023 -1.0000 -0.0000
vn 1.0000 -0.0023 -0.0000
vn 0.0023 1.0000 -0.0000
vn -1.0000 0.0023 -0.0000
vn 0.7055 -0.7087 -0.0000
vn 0.7087 0.7055 -0.0000
vn -0.0022 -1.0000 -0.0000
vn -0.7087 -0.7055 -0.0000
vn -0.7088 -0.7055 -0.0000
vn -0.7055 0.7087 -0.0000
vn -0.7055 0.7087 -0.0001
vn 0.0022 1.0000 -0.0000
vn 0.7056 -0.7087 -0.0000
vn 1.0000 -0.0022 -0.0000
vn 0.7055 -0.7088 -0.0000
vn 0.7086 0.7056 -0.0000
vn 0.7055 -0.7087 0.0001
vn -0.2052 0.2042 0.9572
vn -0.2895 -0.0007 0.9572
vn -0.2042 -0.2052 0.9572
vn -0.0007 0.2895 0.9572
vn 0.0006 -0.2895 0.9572
vn 0.2042 0.2052 0.9572
vn 0.2051 -0.2042 0.9572
vn 0.2895 0.0007 0.9572
vn -0.2043 -0.2052 0.9572
vn 0.2052 0.2042 0.9572
vn 0.2895 -0.0006 0.9572
vn 0.2042 -0.2052 0.9572
vn 0.0007 0.2895 0.9572
vn -0.0006 -0.2895 0.9572
vn -0.2042 0.2052 0.9572
vn -0.2051 -0.2042 0.9572
vn -0.2895 0.0006 0.9572
vn 0.2895 -0.0007 0.9572
vn 0.2043 -0.2052 0.9572
vn -0.2895 0.0007 0.9572
vn -0.0000 -0.0000 -1.0000
vn 0.0001 -0.0000 -1.0000
vn -0.0001 -0.0000 -1.0000
vn -0.0001 0.0001 -1.0000
vt 0.325635 -16.034153
vt 0.317027 -16.034172
vt 0.325691 -16.059063
vt 0.317083 -16.059082
vt 0.325691 0.338254
vt 0.317083 0.338254
vt 0.325691 0.336647
vt 0.317083 0.336647
vt 17.059082 0.338254
vt 17.034172 0.338254
vt 17.059082 0.336647
vt 17.034172 0.336647
vt 0.682973 0.338254
vt 0.674365 0.338254
vt 0.682973 0.336647
vt 0.674365 0.336647
vt -16.034153 0.338254
vt -16.059063 0.338254
vt -16.034153 0.336647
vt -16.059063 0.336647
vt 17.055353 0.344323
vt 17.053640 0.344323
vt 17.055353 0.336647
vt 17.053640 0.336647
vt 17.051924 0.344323
vt 17.051924 0.336647
vt 0.319675 0.336647
vt 0.321380 0.336647
vt 0.319675 0.344323
vt 0.321380 0.344323
vt 0.323082 0.336647
vt 0.323082 0.344323
vt -16.055346 0.336647
vt -16.053629 0.336647
vt -16.055346 0.344323
vt -16.053629 0.344323
vt -16.051916 0.336647
vt -16.051916 0.344323
vt 0.676926 0.336647
vt 0.678631 0.336647
vt 0.676926 0.344323
vt 0.678631 0.344323
vt 0.680332 0.336647
vt 0.680332 0.344323
vt 17.055918 0.345826
vt 17.053642 0.345826
vt 17.055918 0.344323
vt 17.053642 0.344323
vt 17.051363 0.345826
vt 17.051363 0.344323
vt 0.319116 0.344323
vt 0.321382 0.344323
vt 0.319116 0.345826
vt 0.321382 0.345826
vt 0.323643 0.344323
vt 0.323643 0.345826
vt -16.055908 0.344323
vt -16.053627 0.344323
vt -16.055908 0.345826
vt -16.053627 0.345826
vt -16.051352 0.344323
vt -16.051352 0.345826
vt 0.676367 0.344323
vt 0.678632 0.344323
vt 0.676367 0.345826
vt 0.678632 0.345826
vt 0.680894 0.344323
vt 0.680894 0.345826
vt 17.041019 0.344323
vt 17.039307 0.344323
vt 17.041019 0.336647
vt 17.039307 0.336647
vt 17.037590 0.344323
vt 17.037590 0.336647
vt 0.319643 0.336647
vt 0.321348 0.336647
vt 0.319643 0.344323
vt 0.321348 0.344323
vt 0.323050 0.336647
vt 0.323050 0.344323
vt -16.041010 0.336647
vt -16.039295 0.336647
vt -16.041010 0.344323
vt -16.039295 0.344323
vt -16.037582 0.336647
vt -16.037582 0.344323
vt 0.676958 0.336647
vt 0.678663 0.336647
vt 0.676958 0.344323
vt 0.678663 0.344323
vt 0.680364 0.336647
vt 0.680364 0.344323
vt 17.041584 0.345826
vt 17.039309 0.345826
vt 17.041584 0.344323
vt 17.039309 0.344323
vt 17.037027 0.345826
vt 17.037027 0.344323
vt 0.319084 0.344323
vt 0.321350 0.344323
vt 0.319084 0.345826
vt 0.321350 0.345826
vt 0.323611 0.344323
vt 0.323611 0.345826
vt -16.041573 0.344323
vt -16.039293 0.344323
vt -16.041573 0.345826
vt -16.039293 0.345826
vt -16.037018 0.344323
vt -16.037018 0.345826
vt 0.676399 0.344323
vt 0.678665 0.344323
vt 0.676399 0.345826
vt 0.678665 0.345826
vt 0.680926 0.344323
vt 0.680926 0.345826
vt 0.682823 -16.059084
vt 0.682879 -16.034172
vt 0.674214 -16.059063
vt 0.674270 -16.034153
vt 0.682823 0.336647
vt 0.682823 0.338254
vt 0.674214 0.336647
vt 0.674214 0.338254
vt -16.034172 0.336647
vt -16.034172 0.338254
vt -16.059084 0.336647
vt -16.059084 0.338254
vt 0.325730 0.336647
vt 0.325730 0.338254
vt 0.317121 0.336647
vt 0.317121 0.338254
vt 17.059063 0.336647
vt 17.059063 0.338254
vt 17.034153 0.336647
vt 17.034153 0.338254
vt -16.055353 0.344323
vt -16.055353 0.336647
vt -16.053640 0.344323
vt -16.053640 0.336647
vt -16.051926 0.344323
vt -16.051926 0.336647
vt 0.680230 0.336647
vt 0.680230 0.344323
vt 0.678525 0.336647
vt 0.678525 0.344323
vt 0.676824 0.336647
vt 0.676824 0.344323
vt 17.055346 0.336647
vt 17.055346 0.344323
vt 17.053629 0.336647
vt 17.053629 0.344323
vt 17.051918 0.336647
vt 17.051918 0.344323
vt 0.323169 0.336647
vt 0.323169 0.344323
vt 0.321464 0.336647
vt 0.321464 0.344323
vt 0.319762 0.336647
vt 0.319762 0.344323
vt -16.055918 0.345826
vt -16.055918 0.344323
vt -16.053642 0.345826
vt -16.053642 0.344323
vt -16.051363 0.345826
vt -16.051363 0.344323
vt 0.680789 0.344323
vt 0.680789 0.345826
vt 0.678523 0.344323
vt 0.678523 0.345826
vt 0.676262 0.344323
vt 0.676262 0.345826
vt 17.055908 0.344323
vt 17.055908 0.345826
vt 17.053627 0.344323
vt 17.053627 0.345826
vt 17.051352 0.344323
vt 17.051352 0.345826
vt 0.323728 0.344323
vt 0.323728 0.345826
vt 0.321462 0.344323
vt 0.321462 0.345826
vt 0.319201 0.344323
vt 0.319201 0.345826
vt -16.041019 0.344323
vt -16.041019 0.336647
vt -16.039307 0.344323
vt -16.039307 0.336647
vt -16.037590 0.344323
vt -16.037590 0.336647
vt 0.680262 0.336647
vt 0.680262 0.344323
vt 0.678558 0.336647
vt 0.678558 0.344323
vt 0.676856 0.336647
vt 0.676856 0.344323
vt 17.041012 0.336647
vt 17.041012 0.344323
vt 17.039295 0.336647
vt 17.039295 0.344323
vt 17.037582 0.336647
vt 17.037582 0.344323
vt 0.323137 0.336647
vt 0.323136 0.344323
vt 0.321432 0.336647
vt 0.321432 0.344323
vt 0.319730 0.336647
vt 0.319730 0.344323
vt -16.041584 0.345826
vt -16.041584 0.344323
vt -16.039309 0.345826
vt -16.039309 0.344323
vt -16.037029 0.345826
vt -16.037029 0.344323
vt 0.680821 0.344323
vt 0.680821 0.345826
vt 0.678556 0.344323
vt 0.678556 0.345826
vt 0.676294 0.344323
vt 0.676294 0.345826
vt 17.041573 0.344323
vt 17.041573 0.345826
vt 17.039293 0.344323
vt 17.039293 0.345826
vt 17.037018 0.344323
vt 17.037018 0.345826
vt 0.323695 0.344323
vt 0.323695 0.345826
vt 0.321430 0.344323
vt 0.321430 0.345826
vt 0.319168 0.344323
vt 0.319168 0.345826
vt 0.321375 -16.053635
vt 0.319106 -16.051363
vt 0.318174 -16.053642
vt 0.319116 -16.055918
vt 0.321368 -16.050413
vt 0.321382 -16.056856
vt 0.323633 -16.051352
vt 0.323643 -16.055908
vt 0.324576 -16.053627
vt 0.321343 -16.039301
vt 0.319074 -16.037027
vt 0.318142 -16.039309
vt 0.319084 -16.041584
vt 0.321335 -16.036079
vt 0.321350 -16.042522
vt 0.323601 -16.037018
vt 0.323611 -16.041573
vt 0.324544 -16.039293
vt 0.680799 -16.051363
vt 0.678531 -16.053635
vt 0.681732 -16.053642
vt 0.680789 -16.055918
vt 0.678538 -16.050413
vt 0.678523 -16.056856
vt 0.676272 -16.051352
vt 0.676262 -16.055908
vt 0.675330 -16.053627
vt 0.680832 -16.037029
vt 0.678563 -16.039301
vt 0.681764 -16.039309
vt 0.680821 -16.041584
vt 0.678570 -16.036079
vt 0.678556 -16.042522
vt 0.676305 -16.037018
vt 0.676294 -16.041573
vt 0.675362 -16.039293
vt 0.680884 -16.055918
vt 0.681826 -16.053642
vt 0.680325 -16.055353
vt 0.681034 -16.053640
vt 0.678620 -16.056059
vt 0.680894 -16.051363
vt 0.678618 -16.056856
vt 0.680332 -16.051924
vt 0.676918 -16.055346
vt 0.678632 -16.050413
vt 0.676357 -16.055908
vt 0.678631 -16.051210
vt 0.676216 -16.053629
vt 0.676367 -16.051352
vt 0.675424 -16.053627
vt 0.676926 -16.051916
vt 0.680916 -16.041584
vt 0.681858 -16.039309
vt 0.680357 -16.041019
vt 0.681066 -16.039307
vt 0.678652 -16.041725
vt 0.680926 -16.037027
vt 0.678650 -16.042522
vt 0.680364 -16.037590
vt 0.676950 -16.041010
vt 0.678665 -16.036079
vt 0.676389 -16.041573
vt 0.678663 -16.036877
vt 0.676249 -16.039295
vt 0.676399 -16.037018
vt 0.675456 -16.039293
vt 0.676958 -16.037582
vt 0.319211 -16.055918
vt 0.319770 -16.055353
vt 0.318268 -16.053642
vt 0.319061 -16.053640
vt 0.321475 -16.056059
vt 0.319201 -16.051363
vt 0.321477 -16.056856
vt 0.319762 -16.051926
vt 0.323176 -16.055346
vt 0.321462 -16.050413
vt 0.323738 -16.055908
vt 0.321464 -16.051210
vt 0.323878 -16.053629
vt 0.323728 -16.051352
vt 0.324670 -16.053627
vt 0.323169 -16.051918
vt 0.319179 -16.041584
vt 0.319738 -16.041019
vt 0.318236 -16.039309
vt 0.319028 -16.039307
vt 0.321442 -16.041725
vt 0.319168 -16.037029
vt 0.321444 -16.042522
vt 0.319730 -16.037590
vt 0.323144 -16.041012
vt 0.321430 -16.036079
vt 0.323706 -16.041573
vt 0.321432 -16.036877
vt 0.323846 -16.039295
vt 0.323695 -16.037018
vt 0.324638 -16.039293
vt 0.323136 -16.037582
s 1
g Bsh_Hull_Midsection_Dredn_BC4_001_9_details_2
usemtl details_2
f 3/1/1 2/2/1 1/3/1
f 4/4/1 1/3/1 2/2/1
f 7/5/2 6/6/2 5/7/2
f 8/8/2 5/7/2 6/6/2
f 11/9/3 10/10/3 9/11/3
f 12/12/3 9/11/3 10/10/3
f 15/13/4 14/14/4 13/15/4
f 16/16/4 13/15/4 14/14/4
f 19/17/5 18/18/5 17/19/5
f 20/20/5 17/19/5 18/18/5
f 23/21/6 22/22/3 21/23/6
f 24/24/3 21/23/6 22/22/3
f 22/22/3 25/25/7 24/24/3
f 26/26/7 24/24/3 25/25/7
f 29/27/6 28/28/2 27/29/6
f 30/30/8 27/29/6 28/28/2
f 28/28/2 31/31/9 30/30/8
f 32/32/9 30/30/8 31/31/9
f 35/33/10 34/34/5 33/35/10
f 36/36/5 33/35/10 34/34/5
f 34/34/5 37/37/11 36/36/5
f 38/38/11 36/36/5 37/37/11
f 41/39/11 40/40/4 39/41/11
f 42/42/4 39/41/11 40/40/4
f 40/40/4 43/43/7 42/42/4
f 44/44/7 42/42/4 43/43/7
f 47/45/6 46/46/3 45/47/6
f 48/48/3 45/47/6 46/46/3
f 46/46/3 49/49/7 48/48/3
f 50/50/7 48/48/3 49/49/7
f 53/51/6 52/52/2 51/53/6
f 54/54/2 51/53/6 52/52/2
f 52/52/2 55/55/9 54/54/2
f 56/56/9 54/54/2 55/55/9
f 59/57/9 58/58/5 57/59/9
f 60/60/5 57/59/9 58/58/5
f 58/58/5 61/61/11 60/60/5
f 62/62/11 60/60/5 61/61/11
f 65/63/11 64/64/4 63/65/11
f 66/66/4 63/65/11 64/64/4
f 64/64/4 67/67/7 66/66/4
f 68/68/7 66/66/4 67/67/7
f 71/69/6 70/70/12 69/71/6
f 72/72/3 69/71/6 70/70/12
f 70/70/12 73/73/7 72/72/3
f 74/74/7 72/72/3 73/73/7
f 77/75/6 76/76/2 75/77/6
f 78/78/2 75/77/6 76/76/2
f 76/76/2 79/79/9 78/78/2
f 80/80/9 78/78/2 79/79/9
f 83/81/13 82/82/5 81/83/9
f 84/84/5 81/83/9 82/82/5
f 82/82/5 85/85/11 84/84/5
f 86/86/11 84/84/5 85/85/11
f 89/87/11 88/88/4 87/89/11
f 90/90/14 87/89/11 88/88/4
f 88/88/4 91/91/7 90/90/14
f 92/92/7 90/90/14 91/91/7
f 95/93/6 94/94/3 93/95/6
f 96/96/3 93/95/6 94/94/3
f 94/94/3 97/97/7 96/96/3
f 98/98/7 96/96/3 97/97/7
f 101/99/15 100/100/2 99/101/6
f 102/102/2 99/101/6 100/100/2
f 100/100/2 103/103/9 102/102/2
f 104/104/9 102/102/2 103/103/9
f 107/105/9 106/106/5 105/107/9
f 108/108/5 105/107/9 106/106/5
f 106/106/5 109/109/11 108/108/5
f 110/110/16 108/108/5 109/109/11
f 113/111/11 112/112/4 111/113/11
f 114/114/14 111/113/11 112/112/4
f 112/112/4 115/115/7 114/114/14
f 116/116/7 114/114/14 115/115/7
f 119/117/1 118/118/1 117/119/1
f 120/120/1 117/119/1 118/118/1
f 123/121/17 122/122/17 121/123/17
f 124/124/17 121/123/17 122/122/17
f 127/125/18 126/126/18 125/127/18
f 128/128/18 125/127/18 126/126/18
f 131/129/19 130/130/19 129/131/19
f 132/132/19 129/131/19 130/130/19
f 135/133/20 134/134/20 133/135/20
f 136/136/20 133/135/20 134/134/20
f 139/137/21 138/138/21 137/139/18
f 140/140/18 137/139/18 138/138/21
f 137/139/18 140/140/18 141/141/22
f 142/142/22 141/141/22 140/140/18
f 145/143/21 144/144/21 143/145/23
f 146/146/23 143/145/23 144/144/21
f 143/145/23 146/146/23 147/147/24
f 148/148/24 147/147/24 146/146/23
f 151/149/24 150/150/25 149/151/20
f 152/152/20 149/151/20 150/150/25
f 149/151/20 152/152/20 153/153/26
f 154/154/26 153/153/26 152/152/20
f 157/155/26 156/156/26 155/157/19
f 158/158/19 155/157/19 156/156/26
f 155/157/19 158/158/19 159/159/22
f 160/160/22 159/159/22 158/158/19
f 163/161/21 162/162/21 161/163/18
f 164/164/18 161/163/18 162/162/21
f 161/163/18 164/164/18 165/165/22
f 166/166/22 165/165/22 164/164/18
f 169/167/21 168/168/21 167/169/17
f 170/170/17 167/169/17 168/168/21
f 167/169/17 170/170/17 171/171/24
f 172/172/24 171/171/24 170/170/17
f 175/173/24 174/174/24 173/175/20
f 176/176/20 173/175/20 174/174/24
f 173/175/20 176/176/20 177/177/26
f 178/178/26 177/177/26 176/176/20
f 181/179/26 180/180/27 179/181/19
f 182/182/28 179/181/19 180/180/27
f 179/181/19 182/182/28 183/183/22
f 184/184/22 183/183/22 182/182/28
f 187/185/21 186/186/29 185/187/30
f 188/188/30 185/187/30 186/186/29
f 185/187/30 188/188/30 189/189/22
f 190/190/22 189/189/22 188/188/30
f 193/191/21 192/192/31 191/193/17
f 194/194/17 191/193/17 192/192/31
f 191/193/17 194/194/17 195/195/24
f 196/196/24 195/195/24 194/194/17
f 199/197/24 198/198/24 197/199/20
f 200/200/20 197/199/20 198/198/24
f 197/199/20 200/200/20 201/201/26
f 202/202/26 201/201/26 200/200/20
f 205/203/26 204/204/26 203/205/19
f 206/206/28 203/205/19 204/204/26
f 203/205/19 206/206/28 207/207/22
f 208/208/32 207/207/22 206/206/28
f 211/209/21 210/210/21 209/211/30
f 212/212/18 209/211/30 210/210/21
f 209/211/30 212/212/18 213/213/22
f 214/214/22 213/213/22 212/212/18
f 217/215/21 216/216/33 215/217/17
f 218/218/17 215/217/17 216/216/33
f 215/217/17 218/218/17 219/219/24
f 220/220/24 219/219/24 218/218/17
f 223/221/24 222/222/24 221/223/20
f 224/224/20 221/223/20 222/222/24
f 221/223/20 224/224/20 225/225/26
f 226/226/26 225/225/26 224/224/20
f 229/227/26 228/228/26 227/229/19
f 230/230/19 227/229/19 228/228/26
f 227/229/19 230/230/19 231/231/22
f 232/232/22 231/231/22 230/230/19
f 235/233/1 234/234/34 233/235/35
f 235/233/1 233/235/35 236/236/36
f 235/233/1 237/237/37 234/234/34
f 235/233/1 236/236/36 238/238/38
f 235/233/1 239/239/39 237/237/37
f 235/233/1 238/238/38 240/240/40
f 235/233/1 241/241/41 239/239/39
f 235/233/1 240/240/40 241/241/41
f 244/242/1 243/243/34 242/244/35
f 244/242/1 242/244/35 245/245/42
f 244/242/1 246/246/37 243/243/34
f 244/242/1 245/245/42 247/247/38
f 244/242/1 248/248/39 246/246/37
f 244/242/1 247/247/38 249/249/40
f 244/242/1 250/250/41 248/248/39
f 244/242/1 249/249/40 250/250/41
f 253/251/43 252/252/1 251/253/44
f 251/253/44 252/252/1 254/254/45
f 255/255/46 252/252/1 253/251/43
f 254/254/45 252/252/1 256/256/47
f 257/257/48 252/252/1 255/255/46
f 256/256/47 252/252/1 258/258/49
f 259/259/50 252/252/1 257/257/48
f 258/258/49 252/252/1 259/259/50
f 262/260/43 261/261/1 260/262/51
f 260/262/51 261/261/1 263/263/52
f 264/264/46 261/261/1 262/260/43
f 263/263/52 261/261/1 265/265/47
f 266/266/48 261/261/1 264/264/46
f 265/265/47 261/261/1 267/267/49
f 268/268/53 261/261/1 266/266/48
f 267/267/49 261/261/1 268/268/53
f 271/269/54 270/270/54 269/271/54
f 272/272/54 269/271/54 270/270/54
f 269/271/54 273/273/54 271/269/54
f 270/270/54 274/274/54 272/272/54
f 275/275/54 271/269/54 273/273/54
f 276/276/54 272/272/54 274/274/54
f 273/273/54 277/277/55 275/275/54
f 274/274/54 278/278/54 276/276/54
f 279/279/55 275/275/54 277/277/55
f 280/280/54 276/276/54 278/278/54
f 277/277/55 281/281/54 279/279/55
f 278/278/54 282/282/55 280/280/54
f 283/283/54 279/279/55 281/281/54
f 284/284/55 280/280/54 282/282/55
f 281/281/54 284/284/55 283/283/54
f 282/282/55 283/283/54 284/284/55
f 287/285/54 286/286/54 285/287/54
f 288/288/54 285/287/54 286/286/54
f 285/287/54 289/289/54 287/285/54
f 286/286/54 290/290/54 288/288/54
f 291/291/54 287/285/54 289/289/54
f 292/292/54 288/288/54 290/290/54
f 289/289/54 293/293/54 291/291/54
f 290/290/54 294/294/54 292/292/54
f 295/295/54 291/291/54 293/293/54
f 296/296/54 292/292/54 294/294/54
f 293/293/54 297/297/54 295/295/54
f 294/294/54 298/298/54 296/296/54
f 299/299/54 295/295/54 297/297/54
f 300/300/54 296/296/54 298/298/54
f 297/297/54 300/300/54 299/299/54
f 298/298/54 299/299/54 300/300/54
f 303/301/54 302/302/54 301/303/54
f 304/304/54 301/303/54 302/302/54
f 302/302/54 303/301/54 305/305/54
f 301/303/54 304/304/54 306/306/54
f 307/307/54 305/305/54 303/301/54
f 308/308/54 306/306/54 304/304/54
f 305/305/54 307/307/54 309/309/56
f 306/306/54 308/308/54 310/310/54
f 311/311/56 309/309/56 307/307/54
f 312/312/54 310/310/54 308/308/54
f 309/309/56 311/311/56 313/313/54
f 310/310/54 312/312/54 314/314/57
f 315/315/54 313/313/54 311/311/56
f 316/316/57 314/314/57 312/312/54
f 313/313/54 315/315/54 316/316/57
f 314/314/57 316/316/57 315/315/54
f 319/317/54 318/318/54 317/319/54
f 320/320/54 317/319/54 318/318/54
f 318/318/54 319/317/54 321/321/54
f 317/319/54 320/320/54 322/322/54
f 323/323/54 321/321/54 319/317/54
f 324/324/54 322/322/54 320/320/54
f 321/321/54 323/323/54 325/325/54
f 322/322/54 324/324/54 326/326/54
f 327/327/54 325/325/54 323/323/54
f 328/328/54 326/326/54 324/324/54
f 325/325/54 327/327/54 329/329/54
f 326/326/54 328/328/54 330/330/54
f 331/331/54 329/329/54 327/327/54
f 332/332/54 330/330/54 328/328/54
f 329/329/54 331/331/54 332/332/54
f 330/330/54 332/332/54 331/331/54
