# Blender 5.1.0
# www.blender.org
mtllib Bsh_Hull_Midsection_Dredn_BCD1_001_7.mtl
o Bsh_Hull_Midsection_Dredn_BCD1_001_7
v -6.123438 -48.064766 7.877893
v -5.373685 -48.940727 8.167907
v -5.373685 -48.940727 7.877907
v -6.123438 -48.064766 8.167893
v -7.836417 -46.063400 7.877902
v -7.836417 -46.063400 8.167902
v -8.165395 -45.571060 7.877904
v -8.165395 -45.571060 8.167904
v -8.282014 -44.984772 7.877903
v -8.282014 -44.984772 8.167902
v -8.282007 -39.024078 7.877905
v -8.282007 -39.024078 8.167906
v -5.903112 -47.876198 8.167893
v -5.083682 -48.833572 7.877907
v -5.083682 -48.833572 8.167907
v -5.903112 -47.876198 7.877893
v -7.604870 -45.887939 8.167902
v -7.604870 -45.887939 7.877902
v -7.892223 -45.457901 8.167904
v -7.892223 -45.457901 7.877904
v -7.992014 -44.956200 8.167902
v -7.992014 -44.956200 7.877903
v -7.992006 -38.916908 8.167906
v -7.992006 -38.916908 7.877905
v -9.960144 -37.063416 7.877908
v -8.282007 -39.024078 8.167906
v -8.282007 -39.024078 7.877905
v -9.960144 -37.063416 8.167908
v -10.289125 -36.571075 7.877908
v -10.289125 -36.571075 8.167908
v -10.405741 -35.984772 7.877907
v -10.405741 -35.984772 8.167908
v -10.405735 -30.024080 7.877911
v -10.405735 -30.024080 8.167911
v -9.728608 -36.887955 8.167908
v -7.992006 -38.916908 7.877905
v -7.992006 -38.916908 8.167906
v -9.728608 -36.887955 7.877908
v -10.015955 -36.457909 8.167908
v -10.015955 -36.457909 7.877908
v -10.115741 -35.956215 8.167908
v -10.115741 -35.956215 7.877907
v -10.115736 -29.916918 8.167911
v -10.115736 -29.916918 7.877911
v -12.083875 -28.063425 7.877915
v -10.405735 -30.024080 8.167911
v -10.405735 -30.024080 7.877911
v -12.083875 -28.063425 8.167914
v -12.412862 -27.571062 7.877914
v -12.412862 -27.571062 8.167914
v -12.529475 -26.984774 7.877913
v -12.529475 -26.984774 8.167912
v -12.529470 -23.970518 7.877918
v -12.529470 -23.970518 8.167917
v -12.529473 -19.999949 7.877918
v -12.529472 -19.999949 8.167917
v -11.852335 -27.887964 8.167914
v -10.115736 -29.916918 7.877911
v -10.115736 -29.916918 8.167911
v -11.852335 -27.887964 7.877915
v -12.139678 -27.457933 8.167914
v -12.139678 -27.457933 7.877914
v -12.239473 -26.956232 8.167912
v -12.239473 -26.956232 7.877913
v -12.239470 -23.970518 8.167917
v -12.239470 -23.970518 7.877918
v -12.239472 -19.999949 8.167917
v -12.239473 -19.999949 7.877918
v -12.239470 -23.970518 8.167917
v -12.529472 -19.999949 8.167917
v -12.239472 -19.999949 8.167917
v -12.529470 -23.970518 8.167917
v -12.239473 -26.956232 8.167912
v -12.529475 -26.984774 8.167912
v -12.139678 -27.457933 8.167914
v -12.412862 -27.571062 8.167914
v -11.852335 -27.887964 8.167914
v -12.083875 -28.063425 8.167914
v -10.115736 -29.916918 8.167911
v -10.405735 -30.024080 8.167911
v -10.115741 -35.956215 8.167908
v -10.405741 -35.984772 8.167908
v -10.015955 -36.457909 8.167908
v -10.289125 -36.571075 8.167908
v -9.728608 -36.887955 8.167908
v -9.960144 -37.063416 8.167908
v -7.992006 -38.916908 8.167906
v -8.282007 -39.024078 8.167906
v -7.992014 -44.956200 8.167902
v -8.282014 -44.984772 8.167902
v -7.892223 -45.457901 8.167904
v -8.165395 -45.571060 8.167904
v -7.604870 -45.887939 8.167902
v -7.836417 -46.063400 8.167902
v -5.903112 -47.876198 8.167893
v -6.123438 -48.064766 8.167893
v -5.083682 -48.833572 8.167907
v -5.373685 -48.940727 8.167907
v -5.083683 -49.999802 8.167908
v -5.373685 -49.999802 8.167908
v -12.529470 -23.970518 7.877918
v -12.239473 -19.999949 7.877918
v -12.529473 -19.999949 7.877918
v -12.239470 -23.970518 7.877918
v -12.529475 -26.984774 7.877913
v -12.239473 -26.956232 7.877913
v -12.412862 -27.571062 7.877914
v -12.139678 -27.457933 7.877914
v -12.083875 -28.063425 7.877915
v -11.852335 -27.887964 7.877915
v -10.405735 -30.024080 7.877911
v -10.115736 -29.916918 7.877911
v -10.405741 -35.984772 7.877907
v -10.115741 -35.956215 7.877907
v -10.289125 -36.571075 7.877908
v -10.015955 -36.457909 7.877908
v -9.960144 -37.063416 7.877908
v -9.728608 -36.887955 7.877908
v -8.282007 -39.024078 7.877905
v -7.992006 -38.916908 7.877905
v -8.282014 -44.984772 7.877903
v -7.992014 -44.956200 7.877903
v -8.165395 -45.571060 7.877904
v -7.892223 -45.457901 7.877904
v -7.836417 -46.063400 7.877902
v -7.604870 -45.887939 7.877902
v -6.123438 -48.064766 7.877893
v -5.903112 -47.876198 7.877893
v -5.373685 -48.940727 7.877907
v -5.083682 -48.833572 7.877907
v -5.083683 -49.999802 7.877907
v -5.373685 -49.999802 7.877907
v -5.373685 -48.940727 8.167907
v -5.373685 -49.999802 7.877907
v -5.373685 -48.940727 7.877907
v -5.373685 -49.999802 8.167908
v -5.083682 -48.833572 7.877907
v -5.083683 -49.999802 8.167908
v -5.083682 -48.833572 8.167907
v -5.083683 -49.999802 7.877907
v 5.373694 -48.940727 8.167907
v 6.123448 -48.064766 7.877893
v 5.373694 -48.940727 7.877907
v 6.123448 -48.064766 8.167893
v 7.836427 -46.063400 7.877902
v 7.836427 -46.063400 8.167902
v 8.165403 -45.571060 7.877904
v 8.165403 -45.571060 8.167904
v 8.282022 -44.984772 7.877903
v 8.282022 -44.984772 8.167902
v 8.282016 -39.024078 7.877905
v 8.282016 -39.024078 8.167906
v 5.083691 -48.833572 7.877907
v 5.903122 -47.876198 8.167893
v 5.083691 -48.833572 8.167907
v 5.903122 -47.876198 7.877893
v 7.604880 -45.887939 8.167902
v 7.604880 -45.887939 7.877902
v 7.892233 -45.457901 8.167904
v 7.892233 -45.457901 7.877904
v 7.992023 -44.956200 8.167902
v 7.992023 -44.956200 7.877903
v 7.992016 -38.916916 8.167906
v 7.992016 -38.916916 7.877905
v 8.282016 -39.024078 8.167906
v 9.960153 -37.063416 7.877908
v 8.282016 -39.024078 7.877905
v 9.960153 -37.063416 8.167908
v 10.289135 -36.571075 7.877908
v 10.289135 -36.571075 8.167908
v 10.405749 -35.984772 7.877907
v 10.405749 -35.984772 8.167908
v 10.405745 -30.024080 7.877911
v 10.405745 -30.024080 8.167911
v 7.992016 -38.916916 7.877905
v 9.728617 -36.887955 8.167908
v 7.992016 -38.916916 8.167906
v 9.728617 -36.887955 7.877908
v 10.015964 -36.457909 8.167908
v 10.015964 -36.457909 7.877908
v 10.115749 -35.956215 8.167908
v 10.115749 -35.956215 7.877907
v 10.115745 -29.916918 8.167911
v 10.115745 -29.916918 7.877911
v 10.405745 -30.024080 8.167911
v 12.083884 -28.063425 7.877915
v 10.405745 -30.024080 7.877911
v 12.083884 -28.063425 8.167914
v 12.412870 -27.571066 7.877914
v 12.412870 -27.571066 8.167914
v 12.529484 -26.984774 7.877913
v 12.529484 -26.984774 8.167912
v 12.529480 -23.970518 7.877918
v 12.529480 -23.970518 8.167917
v 12.529481 -19.999949 7.877918
v 12.529480 -19.999949 8.167917
v 10.115745 -29.916918 7.877911
v 11.852344 -27.887964 8.167914
v 10.115745 -29.916918 8.167911
v 11.852344 -27.887964 7.877915
v 12.139687 -27.457933 8.167914
v 12.139687 -27.457933 7.877914
v 12.239481 -26.956236 8.167912
v 12.239481 -26.956236 7.877913
v 12.239480 -23.970518 8.167917
v 12.239480 -23.970518 7.877918
v 12.239480 -19.999949 8.167917
v 12.239481 -19.999949 7.877918
v 12.529480 -19.999949 8.167917
v 12.239480 -23.970518 8.167917
v 12.239480 -19.999949 8.167917
v 12.529480 -23.970518 8.167917
v 12.239481 -26.956236 8.167912
v 12.529484 -26.984774 8.167912
v 12.139687 -27.457933 8.167914
v 12.412870 -27.571066 8.167914
v 11.852344 -27.887964 8.167914
v 12.083884 -28.063425 8.167914
v 10.115745 -29.916918 8.167911
v 10.405745 -30.024080 8.167911
v 10.115749 -35.956215 8.167908
v 10.405749 -35.984772 8.167908
v 10.015964 -36.457909 8.167908
v 10.289135 -36.571075 8.167908
v 9.728617 -36.887955 8.167908
v 9.960153 -37.063416 8.167908
v 7.992016 -38.916916 8.167906
v 8.282016 -39.024078 8.167906
v 7.992023 -44.956200 8.167902
v 8.282022 -44.984772 8.167902
v 7.892233 -45.457901 8.167904
v 8.165403 -45.571060 8.167904
v 7.604880 -45.887939 8.167902
v 7.836427 -46.063400 8.167902
v 5.903122 -47.876198 8.167893
v 6.123448 -48.064766 8.167893
v 5.083691 -48.833572 8.167907
v 5.373694 -48.940727 8.167907
v 5.083693 -49.999802 8.167908
v 5.373696 -49.999802 8.167908
v 12.239481 -19.999949 7.877918
v 12.529480 -23.970518 7.877918
v 12.529481 -19.999949 7.877918
v 12.239480 -23.970518 7.877918
v 12.529484 -26.984774 7.877913
v 12.239481 -26.956236 7.877913
v 12.412870 -27.571066 7.877914
v 12.139687 -27.457933 7.877914
v 12.083884 -28.063425 7.877915
v 11.852344 -27.887964 7.877915
v 10.405745 -30.024080 7.877911
v 10.115745 -29.916918 7.877911
v 10.405749 -35.984772 7.877907
v 10.115749 -35.956215 7.877907
v 10.289135 -36.571075 7.877908
v 10.015964 -36.457909 7.877908
v 9.960153 -37.063416 7.877908
v 9.728617 -36.887955 7.877908
v 8.282016 -39.024078 7.877905
v 7.992016 -38.916916 7.877905
v 8.282022 -44.984772 7.877903
v 7.992023 -44.956200 7.877903
v 8.165403 -45.571060 7.877904
v 7.892233 -45.457901 7.877904
v 7.836427 -46.063400 7.877902
v 7.604880 -45.887939 7.877902
v 6.123448 -48.064766 7.877893
v 5.903122 -47.876198 7.877893
v 5.373694 -48.940727 7.877907
v 5.083691 -48.833572 7.877907
v 5.083693 -49.999802 7.877907
v 5.373696 -49.999802 7.877907
v 5.373694 -48.940727 8.167907
v 5.373696 -49.999802 7.877907
v 5.373696 -49.999802 8.167908
v 5.373694 -48.940727 7.877907
v 5.083691 -48.833572 7.877907
v 5.083693 -49.999802 8.167908
v 5.083693 -49.999802 7.877907
v 5.083691 -48.833572 8.167907
v -12.239479 -49.999817 5.244111
v -12.529474 -26.970472 5.244124
v -12.239474 -26.596087 5.244124
v -12.529479 -49.999817 5.244111
v -12.529479 -49.999817 5.244111
v -12.529474 -26.970472 4.954125
v -12.529474 -26.970472 5.244124
v -12.529479 -49.999817 4.954111
v -12.529479 -49.999817 4.954111
v -12.239474 -26.596087 4.954125
v -12.529474 -26.970472 4.954125
v -12.239479 -49.999817 4.954111
v -12.239479 -49.999817 4.954111
v -12.239474 -26.596087 5.244124
v -12.239474 -26.596087 4.954125
v -12.239479 -49.999817 5.244111
v 12.239483 -26.596090 5.244124
v 12.529489 -49.999817 5.244111
v 12.239489 -49.999817 5.244111
v 12.529483 -26.970476 5.244124
v 12.529483 -26.970476 5.244124
v 12.529489 -49.999817 4.954111
v 12.529489 -49.999817 5.244111
v 12.529483 -26.970472 4.954125
v 12.529483 -26.970472 4.954125
v 12.239489 -49.999817 4.954111
v 12.529489 -49.999817 4.954111
v 12.239483 -26.596087 4.954125
v 12.239483 -26.596087 4.954125
v 12.239489 -49.999817 5.244111
v 12.239489 -49.999817 4.954111
v 12.239483 -26.596090 5.244124
v -12.239474 -26.596087 4.954125
v -12.529474 -26.970472 5.244124
v -12.529474 -26.970472 4.954125
v -12.239474 -26.596087 5.244124
v 12.529483 -26.970472 4.954125
v 12.239483 -26.596090 5.244124
v 12.239483 -26.596087 4.954125
v 12.529483 -26.970476 5.244124
v -11.385262 -29.770662 5.261755
v -11.507456 -29.982309 5.099127
v -11.385262 -29.770662 5.099126
v -11.507456 -29.982309 5.261755
v -11.385262 -30.193953 5.099126
v -11.385263 -30.193953 5.261755
v -11.385262 -29.770662 5.099126
v -11.140875 -29.770662 5.261757
v -11.385262 -29.770662 5.261755
v -11.140875 -29.770662 5.099127
v -11.140875 -29.770662 5.099127
v -11.018682 -29.982309 5.261756
v -11.140875 -29.770662 5.261757
v -11.018681 -29.982309 5.099127
v -11.140876 -30.193949 5.261757
v -11.140876 -30.193949 5.099128
v -11.140876 -30.193949 5.099128
v -11.385263 -30.193953 5.261755
v -11.140876 -30.193949 5.261757
v -11.385262 -30.193953 5.099126
v 11.507466 -29.982313 5.099148
v 11.385272 -29.770670 5.261781
v 11.385272 -29.770670 5.099148
v 11.507466 -29.982313 5.261781
v 11.385272 -30.193956 5.099148
v 11.385274 -30.193956 5.261781
v 11.385272 -29.770670 5.099148
v 11.140885 -29.770670 5.261783
v 11.140885 -29.770670 5.099149
v 11.385272 -29.770670 5.261781
v 11.018693 -29.982306 5.261783
v 11.140885 -29.770670 5.099149
v 11.140885 -29.770670 5.261783
v 11.018692 -29.982306 5.099149
v 11.140886 -30.193953 5.261783
v 11.140886 -30.193953 5.099149
v 11.140886 -30.193953 5.099149
v 11.385274 -30.193956 5.261781
v 11.385272 -30.193956 5.099148
v 11.140886 -30.193953 5.261783
v 11.228700 -33.368790 5.410399
v 11.874016 -32.771797 5.410399
v 11.874016 -33.368782 5.410399
v 11.228699 -32.771797 5.410400
v 11.874016 -33.368782 5.410399
v 11.874015 -32.771797 5.099139
v 11.874016 -33.368782 5.099139
v 11.874016 -32.771797 5.410399
v 11.228700 -33.368790 5.410399
v 11.874016 -33.368782 5.099139
v 11.228698 -33.368790 5.099140
v 11.874016 -33.368782 5.410399
v 11.228699 -32.771797 5.410400
v 11.228698 -33.368790 5.099140
v 11.228698 -32.771797 5.099141
v 11.228700 -33.368790 5.410399
v 11.874016 -32.771797 5.410399
v 11.228698 -32.771797 5.099141
v 11.874015 -32.771797 5.099139
v 11.228699 -32.771797 5.410400
v 11.228710 -31.067247 5.410405
v 11.874024 -31.664232 5.410405
v 11.228708 -31.664232 5.410404
v 11.874026 -31.067247 5.410404
v 11.874026 -31.067247 5.410404
v 11.874024 -31.664232 5.099145
v 11.874024 -31.664232 5.410405
v 11.874026 -31.067247 5.099144
v 11.228710 -31.067247 5.410405
v 11.874026 -31.067247 5.099144
v 11.874026 -31.067247 5.410404
v 11.228707 -31.067247 5.099145
v 11.228708 -31.664232 5.410404
v 11.228707 -31.067247 5.099145
v 11.228710 -31.067247 5.410405
v 11.228706 -31.664232 5.099145
v 11.874024 -31.664232 5.410405
v 11.228706 -31.664232 5.099145
v 11.228708 -31.664232 5.410404
v 11.874024 -31.664232 5.099145
v -11.228726 -33.368790 5.410399
v -11.874043 -32.771797 5.410399
v -11.228724 -32.771797 5.410400
v -11.874043 -33.368774 5.410399
v -11.874043 -33.368774 5.410399
v -11.874041 -32.771797 5.099139
v -11.874043 -32.771797 5.410399
v -11.874043 -33.368774 5.099139
v -11.228726 -33.368790 5.410399
v -11.874043 -33.368774 5.099139
v -11.874043 -33.368774 5.410399
v -11.228724 -33.368790 5.099140
v -11.228724 -32.771797 5.410400
v -11.228724 -33.368790 5.099140
v -11.228726 -33.368790 5.410399
v -11.228724 -32.771797 5.099141
v -11.874043 -32.771797 5.410399
v -11.228724 -32.771797 5.099141
v -11.228724 -32.771797 5.410400
v -11.874041 -32.771797 5.099139
v -11.228735 -31.067247 5.410405
v -11.874052 -31.664228 5.410405
v -11.874051 -31.067247 5.410404
v -11.228736 -31.664228 5.410404
v -11.874051 -31.067247 5.410404
v -11.874052 -31.664228 5.099145
v -11.874051 -31.067247 5.099144
v -11.874052 -31.664228 5.410405
v -11.228735 -31.067247 5.410405
v -11.874051 -31.067247 5.099144
v -11.228732 -31.067247 5.099145
v -11.874051 -31.067247 5.410404
v -11.228736 -31.664228 5.410404
v -11.228732 -31.067247 5.099145
v -11.228733 -31.664228 5.099145
v -11.228735 -31.067247 5.410405
v -11.874052 -31.664228 5.410405
v -11.228733 -31.664228 5.099145
v -11.874052 -31.664228 5.099145
v -11.228736 -31.664228 5.410404
v -11.507456 -29.982309 5.261755
v -11.385262 -29.770662 5.261755
v -11.263068 -29.982302 5.324970
v -11.385263 -30.193953 5.261755
v -11.140875 -29.770662 5.261757
v -11.140876 -30.193949 5.261757
v -11.018682 -29.982309 5.261756
v 11.507466 -29.982313 5.261781
v 11.263079 -29.982309 5.324996
v 11.385272 -29.770670 5.261781
v 11.385274 -30.193956 5.261781
v 11.140885 -29.770670 5.261783
v 11.140886 -30.193953 5.261783
v 11.018693 -29.982306 5.261783
v -12.239514 -59.999786 5.244135
v -12.529501 -49.999786 5.244134
v -12.239501 -49.999786 5.244134
v -12.529514 -59.999786 5.244135
v -12.529514 -59.999786 5.244135
v -12.529501 -49.999786 4.954134
v -12.529501 -49.999786 5.244134
v -12.529514 -59.999786 4.954135
v -12.529514 -59.999786 4.954135
v -12.239501 -49.999786 4.954134
v -12.529501 -49.999786 4.954134
v -12.239514 -59.999786 4.954135
v -12.239514 -59.999786 4.954135
v -12.239501 -49.999786 5.244134
v -12.239501 -49.999786 4.954134
v -12.239514 -59.999786 5.244135
v 12.239511 -59.999802 5.244145
v 12.529505 -49.999802 5.244143
v 12.529511 -59.999802 5.244145
v 12.239505 -49.999802 5.244143
v 12.529511 -59.999802 5.244145
v 12.529505 -49.999802 4.954143
v 12.529511 -59.999802 4.954145
v 12.529505 -49.999802 5.244143
v 12.529511 -59.999802 4.954145
v 12.239505 -49.999802 4.954143
v 12.239511 -59.999802 4.954145
v 12.529505 -49.999802 4.954143
v 12.239511 -59.999802 4.954145
v 12.239505 -49.999802 5.244143
v 12.239511 -59.999802 5.244145
v 12.239505 -49.999802 4.954143
v -0.086387 -59.471535 7.920279
v 0.086331 -59.029488 7.318444
v -0.086384 -59.029488 7.318444
v 0.086330 -59.471535 7.920279
v -0.086386 -58.859627 7.920279
v -0.086384 -59.029488 7.318444
v -0.086386 -58.859634 7.318444
v -0.086387 -59.471535 7.920279
v -0.086386 -58.859634 7.318444
v 0.086331 -59.029488 7.318444
v 0.086331 -58.859634 7.318444
v -0.086384 -59.029488 7.318444
v 0.086331 -58.859634 7.318444
v 0.086330 -59.471535 7.920279
v 0.086332 -58.859627 7.920279
v 0.086331 -59.029488 7.318444
v 1.701127 -59.471542 7.920276
v 1.873842 -59.029488 7.318441
v 1.701128 -59.029488 7.318441
v 1.873844 -59.471542 7.920276
v 1.701128 -58.859634 7.920276
v 1.701128 -59.029488 7.318441
v 1.701126 -58.859634 7.318441
v 1.701127 -59.471542 7.920276
v 1.701126 -58.859634 7.318441
v 1.873842 -59.029488 7.318441
v 1.873844 -58.859634 7.318441
v 1.701128 -59.029488 7.318441
v 1.873844 -58.859634 7.318441
v 1.873844 -59.471542 7.920276
v 1.873845 -58.859634 7.920276
v 1.873842 -59.029488 7.318441
v -5.083713 -56.701210 8.167918
v -5.373701 -49.999771 8.167925
v -5.083700 -49.999771 8.167926
v -5.373713 -56.826591 8.167918
v -1.730064 -59.854774 8.167917
v -1.844998 -60.144768 8.167917
v 1.730010 -59.854774 8.167919
v 1.844943 -60.144775 8.167919
v 5.083654 -56.701218 8.167923
v 5.373652 -56.826591 8.167923
v 5.083649 -49.999771 8.167925
v 5.373648 -49.999771 8.167925
v -5.083713 -56.701210 7.877918
v -5.083700 -49.999771 8.167926
v -5.083700 -49.999771 7.877925
v -5.083713 -56.701210 8.167918
v -5.373714 -56.826591 7.877918
v -5.083700 -49.999771 7.877925
v -5.373701 -49.999771 7.877924
v -5.083713 -56.701210 7.877918
v -1.844998 -60.144768 7.877917
v -1.730064 -59.854774 7.877917
v 1.844944 -60.144775 7.877919
v 1.730011 -59.854774 7.877919
v 5.373652 -56.826591 7.877923
v 5.083654 -56.701218 7.877923
v 5.373648 -49.999771 7.877924
v 5.083649 -49.999771 7.877924
v -5.373713 -56.826591 8.167918
v -5.373701 -49.999771 7.877924
v -5.373701 -49.999771 8.167925
v -5.373714 -56.826591 7.877918
v -1.730064 -59.854774 7.877917
v -5.083713 -56.701210 8.167918
v -5.083713 -56.701210 7.877918
v -1.730064 -59.854774 8.167917
v -1.844998 -60.144768 8.167917
v -5.373714 -56.826591 7.877918
v -5.373713 -56.826591 8.167918
v -1.844998 -60.144768 7.877917
v 1.730011 -59.854774 7.877919
v -1.730064 -59.854774 8.167917
v -1.730064 -59.854774 7.877917
v 1.730010 -59.854774 8.167919
v 1.844943 -60.144775 8.167919
v -1.844998 -60.144768 7.877917
v -1.844998 -60.144768 8.167917
v 1.844944 -60.144775 7.877919
v 5.083654 -56.701218 7.877923
v 1.730010 -59.854774 8.167919
v 1.730011 -59.854774 7.877919
v 5.083654 -56.701218 8.167923
v 5.373652 -56.826591 8.167923
v 1.844944 -60.144775 7.877919
v 1.844943 -60.144775 8.167919
v 5.373652 -56.826591 7.877923
v 5.083649 -49.999771 7.877924
v 5.083654 -56.701218 8.167923
v 5.083654 -56.701218 7.877923
v 5.083649 -49.999771 8.167925
v 5.373648 -49.999771 8.167925
v 5.373652 -56.826591 7.877923
v 5.373652 -56.826591 8.167923
v 5.373648 -49.999771 7.877924
v -5.769786 -53.839661 5.475278
v -5.769786 -50.614799 5.099115
v -5.769787 -50.614799 5.475277
v -5.769786 -53.839661 5.099115
v -5.472070 -50.614799 5.814099
v -5.228694 -53.839668 5.814098
v -5.472070 -53.839668 5.814098
v -5.228694 -50.614807 5.814099
v -5.769786 -53.839661 5.475278
v -5.472070 -50.614799 5.814099
v -5.472070 -53.839668 5.814098
v -5.769787 -50.614799 5.475277
v -5.769786 -53.839661 5.099115
v -5.228694 -53.839668 5.814098
v -5.228694 -53.839668 5.099119
v -5.769786 -53.839661 5.475278
v -5.472070 -53.839668 5.814098
v -5.228693 -50.614807 5.099118
v -5.769787 -50.614799 5.475277
v -5.769786 -50.614799 5.099115
v -5.472070 -50.614799 5.814099
v -5.228694 -50.614807 5.814099
v 5.769766 -53.839676 5.475309
v 5.769766 -50.614815 5.099144
v 5.769766 -53.839676 5.099145
v 5.769765 -50.614815 5.475307
v 5.472050 -50.614815 5.814125
v 5.228674 -53.839676 5.814125
v 5.228674 -50.614815 5.814125
v 5.472050 -53.839676 5.814125
v 5.769766 -53.839676 5.475309
v 5.472050 -50.614815 5.814125
v 5.769765 -50.614815 5.475307
v 5.472050 -53.839676 5.814125
v 5.769766 -53.839676 5.475309
v 5.228674 -53.839676 5.814125
v 5.472050 -53.839676 5.814125
v 5.769766 -53.839676 5.099145
v 5.228674 -53.839676 5.099141
v 5.228674 -50.614815 5.099139
v 5.472050 -50.614815 5.814125
v 5.228674 -50.614815 5.814125
v 5.769765 -50.614815 5.475307
v 5.769766 -50.614815 5.099144
v 1.423680 -59.375053 5.669564
v 1.423690 -58.859604 5.099151
v 1.423681 -59.375053 5.099150
v 1.423689 -58.859604 6.050664
v -1.423761 -59.375046 5.669564
v -1.423752 -58.859604 5.099152
v -1.423753 -58.859596 6.050666
v -1.423760 -59.375046 5.099151
v 1.423681 -59.375053 5.099150
v -1.423761 -59.375046 5.669564
v 1.423680 -59.375053 5.669564
v -1.423760 -59.375046 5.099151
v -1.423753 -58.859596 6.050666
v 1.423680 -59.375053 5.669564
v -1.423761 -59.375046 5.669564
v 1.423689 -58.859604 6.050664
v -4.063272 -104.767181 5.339333
v -5.029030 -106.303680 5.339335
v -5.029032 -104.767181 5.339334
v -4.063269 -106.303680 5.339333
v -5.029032 -104.767181 5.339334
v -5.029030 -106.303680 5.099139
v -5.029033 -104.767181 5.099139
v -5.029030 -106.303680 5.339335
v -4.063272 -104.767181 5.339333
v -5.029033 -104.767181 5.099139
v -4.063272 -104.767181 5.099137
v -5.029032 -104.767181 5.339334
v -4.063269 -106.303680 5.339333
v -4.063272 -104.767181 5.099137
v -4.063270 -106.303680 5.099138
v -4.063272 -104.767181 5.339333
v -5.029030 -106.303680 5.339335
v -4.063270 -106.303680 5.099138
v -5.029030 -106.303680 5.099139
v -4.063269 -106.303680 5.339333
v -4.552841 -107.999725 5.099138
v -4.481081 -108.267517 5.261770
v -4.481081 -108.267517 5.099138
v -4.552841 -107.999725 5.261770
v -4.481081 -107.731903 5.099138
v -4.481081 -107.731903 5.261770
v -4.285032 -108.463577 5.261770
v -4.481081 -108.267517 5.099138
v -4.481081 -108.267517 5.261770
v -4.285032 -108.463577 5.099138
v -4.017221 -108.535339 5.261769
v -4.017221 -108.535339 5.099137
v -3.749411 -108.463577 5.261768
v -3.749411 -108.463577 5.099136
v -3.553361 -108.267517 5.261768
v -3.553361 -108.267517 5.099136
v -3.481601 -107.999725 5.261767
v -3.553361 -108.267517 5.099136
v -3.553361 -108.267517 5.261768
v -3.481601 -107.999725 5.099136
v -3.553360 -107.731903 5.261768
v -3.553360 -107.731903 5.099136
v -3.749411 -107.535858 5.261768
v -3.553360 -107.731903 5.099136
v -3.553360 -107.731903 5.261768
v -3.749411 -107.535858 5.099136
v -4.017220 -107.464081 5.261769
v -4.017220 -107.464081 5.099137
v -4.285031 -107.535858 5.261769
v -4.285031 -107.535858 5.099138
v -4.481081 -107.731903 5.261770
v -4.481081 -107.731903 5.099138
v -5.542901 -101.999756 5.410418
v -6.133913 -103.536224 5.410419
v -6.133913 -101.999756 5.410418
v -5.542901 -103.536224 5.410419
v -6.133913 -101.999756 5.410418
v -6.133914 -103.536224 5.099159
v -6.133915 -101.999756 5.099158
v -6.133913 -103.536224 5.410419
v -5.542901 -101.999756 5.410418
v -6.133915 -101.999756 5.099158
v -5.542903 -101.999756 5.099158
v -6.133913 -101.999756 5.410418
v -5.542901 -103.536224 5.410419
v -5.542903 -101.999756 5.099158
v -5.542902 -103.536224 5.099159
v -5.542901 -101.999756 5.410418
v -6.133913 -103.536224 5.410419
v -5.542902 -103.536224 5.099159
v -6.133914 -103.536224 5.099159
v -5.542901 -103.536224 5.410419
v 4.063288 -104.767181 5.339330
v 5.029047 -106.303680 5.339332
v 4.063285 -106.303680 5.339331
v 5.029050 -104.767212 5.339332
v 5.029050 -104.767212 5.339332
v 5.029047 -106.303680 5.099136
v 5.029047 -106.303680 5.339332
v 5.029049 -104.767212 5.099136
v 4.063288 -104.767181 5.339330
v 5.029049 -104.767212 5.099136
v 5.029050 -104.767212 5.339332
v 4.063288 -104.767181 5.099133
v 4.063285 -106.303680 5.339331
v 4.063288 -104.767181 5.099133
v 4.063288 -104.767181 5.339330
v 4.063287 -106.303680 5.099136
v 5.029047 -106.303680 5.339332
v 4.063287 -106.303680 5.099136
v 4.063285 -106.303680 5.339331
v 5.029047 -106.303680 5.099136
v 4.481091 -108.267532 5.261767
v 4.552852 -107.999725 5.099135
v 4.481091 -108.267532 5.099135
v 4.552852 -107.999725 5.261767
v 4.481093 -107.731903 5.099135
v 4.481093 -107.731903 5.261767
v 4.481091 -108.267532 5.099135
v 4.285042 -108.463593 5.261767
v 4.481091 -108.267532 5.261767
v 4.285042 -108.463593 5.099135
v 4.017232 -108.535339 5.261766
v 4.017232 -108.535339 5.099134
v 3.749424 -108.463593 5.261765
v 3.749424 -108.463593 5.099133
v 3.553372 -108.267532 5.261765
v 3.553372 -108.267532 5.099134
v 3.553372 -108.267532 5.099134
v 3.481613 -107.999725 5.261765
v 3.553372 -108.267532 5.261765
v 3.481612 -107.999725 5.099133
v 3.553371 -107.731903 5.261765
v 3.553371 -107.731903 5.099133
v 3.553371 -107.731903 5.099133
v 3.749422 -107.535858 5.261765
v 3.553371 -107.731903 5.261765
v 3.749422 -107.535858 5.099133
v 4.017232 -107.464111 5.261766
v 4.017232 -107.464111 5.099134
v 4.285042 -107.535858 5.261767
v 4.285042 -107.535858 5.099135
v 4.481093 -107.731903 5.261767
v 4.481093 -107.731903 5.099135
v 5.542905 -101.999756 5.410414
v 6.133915 -103.536255 5.410415
v 5.542904 -103.536224 5.410415
v 6.133917 -101.999756 5.410415
v 6.133917 -101.999756 5.410415
v 6.133917 -103.536255 5.099155
v 6.133915 -103.536255 5.410415
v 6.133920 -101.999756 5.099155
v 5.542905 -101.999756 5.410414
v 6.133920 -101.999756 5.099155
v 6.133917 -101.999756 5.410415
v 5.542908 -101.999756 5.099154
v 5.542904 -103.536224 5.410415
v 5.542908 -101.999756 5.099154
v 5.542905 -101.999756 5.410414
v 5.542905 -103.536224 5.099155
v 6.133915 -103.536255 5.410415
v 5.542905 -103.536224 5.099155
v 5.542904 -103.536224 5.410415
v 6.133917 -103.536255 5.099155
v 2.695678 -103.297119 5.233865
v 2.695682 -105.107758 5.099138
v 2.695682 -105.107758 5.233866
v 2.695679 -103.297119 5.099138
v -2.695659 -103.297119 5.233857
v 2.695682 -105.107758 5.233866
v -2.695661 -105.107758 5.233857
v 2.695678 -103.297119 5.233865
v 2.695678 -103.297119 5.233865
v -2.695658 -103.297119 5.099130
v 2.695679 -103.297119 5.099138
v -2.695659 -103.297119 5.233857
v -2.695661 -105.107758 5.233857
v 2.695682 -105.107758 5.099138
v -2.695660 -105.107758 5.099130
v 2.695682 -105.107758 5.233866
v -2.695659 -103.297119 5.233857
v -2.695660 -105.107758 5.099130
v -2.695658 -103.297119 5.099130
v -2.695661 -105.107758 5.233857
v 0.264676 -103.993622 5.570077
v -0.264656 -104.842102 5.570078
v -0.264658 -103.993622 5.570078
v 0.264677 -104.842102 5.570078
v 0.264677 -104.842102 5.570078
v 0.264677 -103.993622 5.233859
v 0.264678 -104.842102 5.233860
v 0.264676 -103.993622 5.570077
v -0.264656 -104.842102 5.570078
v 0.264678 -104.842102 5.233860
v -0.264655 -104.842102 5.233860
v 0.264677 -104.842102 5.570078
v -0.264658 -103.993622 5.570078
v -0.264655 -104.842102 5.233860
v -0.264656 -103.993622 5.233860
v -0.264656 -104.842102 5.570078
v 0.264676 -103.993622 5.570077
v -0.264656 -103.993622 5.233860
v 0.264677 -103.993622 5.233859
v -0.264658 -103.993622 5.570078
v 0.264675 -101.999756 5.570077
v -0.264657 -102.848221 5.570078
v -0.264658 -101.999756 5.570078
v 0.264675 -102.848221 5.570078
v 0.264675 -102.848221 5.570078
v 0.264676 -101.999756 5.099133
v 0.264676 -102.848221 5.099133
v 0.264675 -101.999756 5.570077
v -0.264657 -102.848221 5.570078
v 0.264676 -102.848221 5.099133
v -0.264657 -102.848221 5.099132
v 0.264675 -102.848221 5.570078
v -0.264658 -101.999756 5.570078
v -0.264657 -102.848221 5.099132
v -0.264657 -101.999756 5.099132
v -0.264657 -102.848221 5.570078
v 0.264675 -101.999756 5.570077
v -0.264657 -101.999756 5.099132
v 0.264676 -101.999756 5.099133
v -0.264658 -101.999756 5.570078
v -0.691604 -117.114868 4.954151
v 0.691626 -115.308990 4.954154
v 0.691627 -117.114868 4.954154
v -0.691606 -115.308990 4.954151
v -0.691604 -117.114868 4.954151
v 0.691628 -117.114868 4.737288
v -0.691603 -117.114868 4.737285
v 0.691627 -117.114868 4.954154
v 0.691627 -117.114868 4.954154
v 0.691627 -115.308990 4.737288
v 0.691628 -117.114868 4.737288
v 0.691626 -115.308990 4.954154
v -0.691606 -115.308990 4.954151
v -0.691603 -117.114868 4.737285
v -0.691604 -115.308990 4.737285
v -0.691604 -117.114868 4.954151
v -0.691603 -117.114868 4.737285
v 0.691627 -115.308990 4.737288
v -0.691604 -115.308990 4.737285
v 0.691628 -117.114868 4.737288
v -12.239452 -65.995651 5.244153
v -12.529464 -59.999710 5.244141
v -12.239464 -59.999710 5.244141
v -12.529452 -66.003769 5.244153
v -11.903831 -71.989838 5.244152
v -12.193181 -72.009552 5.244152
v -11.422292 -77.986580 5.244150
v -11.711119 -78.012825 5.244150
v -10.813947 -83.982773 5.244149
v -11.102002 -84.016617 5.244149
v -10.013470 -89.976357 5.244144
v -10.299811 -90.023041 5.244144
v -8.858602 -95.967659 5.244140
v -9.141592 -96.031731 5.244140
v -7.298607 -101.956268 5.244140
v -7.575664 -102.043121 5.244140
v -5.094403 -107.944702 5.244138
v -5.362946 -108.054688 5.244138
v -3.069782 -112.421967 5.244147
v -3.330210 -112.549896 5.244147
v -2.270960 -113.925140 5.244152
v -2.521545 -114.071579 5.244152
v -1.806755 -114.650436 5.244152
v -2.022050 -114.852020 5.244152
v -1.022365 -115.228424 5.244154
v -1.142356 -115.500244 5.244154
v -0.000006 -115.431793 5.244156
v -0.000006 -115.727478 5.244156
v 1.022354 -115.228424 5.244153
v 1.142341 -115.500244 5.244153
v 1.806743 -114.650452 5.244152
v 2.022037 -114.852020 5.244152
v 2.270952 -113.925140 5.244150
v 2.521531 -114.071594 5.244150
v 3.069775 -112.421967 5.244145
v 3.330199 -112.549896 5.244145
v 5.094397 -107.944702 5.244135
v 5.362940 -108.054688 5.244135
v 7.298607 -101.956299 5.244133
v 7.575663 -102.043121 5.244133
v 8.858608 -95.967674 5.244133
v 9.141598 -96.031731 5.244133
v 10.013481 -89.976372 5.244138
v 10.299823 -90.023048 5.244138
v 10.813964 -83.982780 5.244141
v 11.102018 -84.016632 5.244141
v 11.422314 -77.986588 5.244142
v 11.711140 -78.012840 5.244142
v 11.903858 -71.989853 5.244143
v 12.193209 -72.009567 5.244143
v 12.239486 -65.995667 5.244144
v 12.529486 -66.003784 5.244144
v 12.239504 -59.999725 5.244132
v 12.529504 -59.999725 5.244132
v -12.239452 -65.995651 4.954153
v -12.239464 -59.999710 5.244141
v -12.239464 -59.999710 4.954140
v -12.239452 -65.995651 5.244153
v -11.903831 -71.989838 4.954151
v -11.903831 -71.989838 5.244152
v -11.422292 -77.986580 4.954150
v -11.422292 -77.986580 5.244150
v -10.813947 -83.982773 4.954149
v -10.813947 -83.982773 5.244149
v -10.013470 -89.976357 4.954145
v -10.013470 -89.976357 5.244144
v -8.858602 -95.967659 4.954140
v -8.858602 -95.967659 5.244140
v -7.298607 -101.956268 4.954140
v -7.298607 -101.956268 5.244140
v -5.094403 -107.944702 4.954138
v -5.094403 -107.944702 5.244138
v -3.069783 -112.421967 4.954147
v -3.069782 -112.421967 5.244147
v -2.270960 -113.925140 4.954151
v -2.270960 -113.925140 5.244152
v -1.806755 -114.650436 4.954152
v -1.806755 -114.650436 5.244152
v -12.529452 -66.003769 4.954153
v -12.239464 -59.999710 4.954140
v -12.529464 -59.999718 4.954140
v -12.239452 -65.995651 4.954153
v -12.193181 -72.009552 4.954151
v -11.903831 -71.989838 4.954151
v -11.711119 -78.012825 4.954150
v -11.422292 -77.986580 4.954150
v -11.102002 -84.016617 4.954149
v -10.813947 -83.982773 4.954149
v -10.299811 -90.023041 4.954145
v -10.013470 -89.976357 4.954145
v -9.141592 -96.031731 4.954140
v -8.858602 -95.967659 4.954140
v -7.575664 -102.043121 4.954140
v -7.298607 -101.956268 4.954140
v -5.362946 -108.054688 4.954138
v -5.094403 -107.944702 4.954138
v -3.330210 -112.549896 4.954147
v -3.069783 -112.421967 4.954147
v -2.521545 -114.071579 4.954151
v -2.270960 -113.925140 4.954151
v -2.022050 -114.852020 4.954152
v -1.806755 -114.650436 4.954152
v -1.142356 -115.500244 4.954154
v -1.022365 -115.228424 4.954154
v -0.000006 -115.727478 4.954155
v -0.000006 -115.431793 4.954155
v 1.142341 -115.500244 4.954153
v 1.022354 -115.228424 4.954153
v 2.022038 -114.852020 4.954151
v 1.806744 -114.650452 4.954151
v 2.521531 -114.071594 4.954150
v 2.270952 -113.925140 4.954150
v 3.330198 -112.549896 4.954145
v 3.069775 -112.421967 4.954145
v 5.362940 -108.054688 4.954135
v 5.094397 -107.944702 4.954135
v 7.575663 -102.043121 4.954134
v 7.298607 -101.956299 4.954134
v 9.141598 -96.031731 4.954134
v 8.858607 -95.967674 4.954134
v 10.299823 -90.023048 4.954138
v 10.013481 -89.976372 4.954138
v 11.102018 -84.016632 4.954141
v 10.813964 -83.982780 4.954141
v 11.711140 -78.012840 4.954142
v 11.422314 -77.986588 4.954142
v 12.193209 -72.009567 4.954144
v 11.903858 -71.989853 4.954144
v 12.529486 -66.003784 4.954144
v 12.239486 -65.995667 4.954144
v 12.529504 -59.999725 4.954132
v 12.239504 -59.999725 4.954132
v -12.529452 -66.003769 5.244153
v -12.529464 -59.999718 4.954140
v -12.529464 -59.999710 5.244141
v -12.529452 -66.003769 4.954153
v -12.193181 -72.009552 5.244152
v -12.193181 -72.009552 4.954151
v -11.711119 -78.012825 5.244150
v -11.711119 -78.012825 4.954150
v -11.102002 -84.016617 5.244149
v -11.102002 -84.016617 4.954149
v -10.299811 -90.023041 5.244144
v -10.299811 -90.023041 4.954145
v -9.141592 -96.031731 5.244140
v -9.141592 -96.031731 4.954140
v -7.575664 -102.043121 5.244140
v -7.575664 -102.043121 4.954140
v -5.362946 -108.054688 5.244138
v -5.362946 -108.054688 4.954138
v -3.330210 -112.549896 5.244147
v -3.330210 -112.549896 4.954147
v -2.521545 -114.071579 5.244152
v -2.521545 -114.071579 4.954151
v -2.022050 -114.852020 5.244152
v -2.022050 -114.852020 4.954152
v -1.022365 -115.228424 4.954154
v -1.806755 -114.650436 5.244152
v -1.806755 -114.650436 4.954152
v -1.022365 -115.228424 5.244154
v -0.000006 -115.431793 4.954155
v -0.000006 -115.431793 5.244156
v 1.022354 -115.228424 4.954153
v 1.022354 -115.228424 5.244153
v 1.806744 -114.650452 4.954151
v 1.806743 -114.650452 5.244152
v -1.142356 -115.500244 5.244154
v -2.022050 -114.852020 4.954152
v -2.022050 -114.852020 5.244152
v -1.142356 -115.500244 4.954154
v -0.000006 -115.727478 5.244156
v -0.000006 -115.727478 4.954155
v 1.142341 -115.500244 5.244153
v 1.142341 -115.500244 4.954153
v 2.022037 -114.852020 5.244152
v 2.022038 -114.852020 4.954151
v 2.270952 -113.925140 4.954150
v 1.806743 -114.650452 5.244152
v 1.806744 -114.650452 4.954151
v 2.270952 -113.925140 5.244150
v 3.069775 -112.421967 4.954145
v 3.069775 -112.421967 5.244145
v 5.094397 -107.944702 4.954135
v 5.094397 -107.944702 5.244135
v 7.298607 -101.956299 4.954134
v 7.298607 -101.956299 5.244133
v 8.858607 -95.967674 4.954134
v 8.858608 -95.967674 5.244133
v 10.013481 -89.976372 4.954138
v 10.013481 -89.976372 5.244138
v 10.813964 -83.982780 4.954141
v 10.813964 -83.982780 5.244141
v 11.422314 -77.986588 4.954142
v 11.422314 -77.986588 5.244142
v 11.903858 -71.989853 4.954144
v 11.903858 -71.989853 5.244143
v 12.239486 -65.995667 4.954144
v 12.239486 -65.995667 5.244144
v 12.239504 -59.999725 4.954132
v 12.239504 -59.999725 5.244132
v 2.521531 -114.071594 5.244150
v 2.022038 -114.852020 4.954151
v 2.022037 -114.852020 5.244152
v 2.521531 -114.071594 4.954150
v 3.330199 -112.549896 5.244145
v 3.330198 -112.549896 4.954145
v 5.362940 -108.054688 5.244135
v 5.362940 -108.054688 4.954135
v 7.575663 -102.043121 5.244133
v 7.575663 -102.043121 4.954134
v 9.141598 -96.031731 5.244133
v 9.141598 -96.031731 4.954134
v 10.299823 -90.023048 5.244138
v 10.299823 -90.023048 4.954138
v 11.102018 -84.016632 5.244141
v 11.102018 -84.016632 4.954141
v 11.711140 -78.012840 5.244142
v 11.711140 -78.012840 4.954142
v 12.193209 -72.009567 5.244143
v 12.193209 -72.009567 4.954144
v 12.529486 -66.003784 5.244144
v 12.529486 -66.003784 4.954144
v 12.529504 -59.999725 5.244132
v 12.529504 -59.999725 4.954132
v -1.055905 -101.591919 5.470926
v 0.000048 -98.359764 5.725359
v 0.000048 -101.591919 5.725363
v -1.055905 -98.359764 5.470924
v -1.055905 -98.359764 5.470924
v -1.055903 -101.591919 5.099149
v -1.055903 -98.359764 5.099147
v -1.055905 -101.591919 5.470926
v 0.000049 -98.359764 5.099146
v -1.055905 -98.359764 5.470924
v -1.055903 -98.359764 5.099147
v 0.000048 -98.359764 5.725359
v 1.056000 -98.359764 5.470922
v 1.056001 -98.359764 5.099145
v 0.000048 -101.591919 5.725363
v -1.055903 -101.591919 5.099149
v -1.055905 -101.591919 5.470926
v 0.000049 -101.591919 5.099149
v 1.056001 -101.591919 5.099148
v 1.056000 -101.591919 5.470925
v 1.056000 -101.591919 5.470925
v 0.000048 -98.359764 5.725359
v 1.056000 -98.359764 5.470922
v 0.000048 -101.591919 5.725363
v 1.056000 -98.359764 5.470922
v 1.056001 -101.591919 5.099148
v 1.056000 -101.591919 5.470925
v 1.056001 -98.359764 5.099145
v 1.230375 -96.372574 5.514739
v -1.230330 -97.909058 5.514738
v -1.230344 -96.372574 5.514737
v 1.230384 -97.909058 5.514736
v 1.230375 -96.372574 5.099137
v 1.230384 -97.909058 5.514736
v 1.230375 -96.372574 5.514739
v 1.230384 -97.909058 5.099136
v 1.230384 -97.909058 5.099136
v -1.230330 -97.909058 5.514738
v 1.230384 -97.909058 5.514736
v -1.230330 -97.909058 5.099137
v -1.230330 -97.909058 5.099137
v -1.230344 -96.372574 5.514737
v -1.230330 -97.909058 5.514738
v -1.230344 -96.372574 5.099137
v -1.230344 -96.372574 5.099137
v 1.230375 -96.372574 5.514739
v -1.230344 -96.372574 5.514737
v 1.230375 -96.372574 5.099137
v 0.144008 -114.937454 4.880486
v 0.048223 -115.344971 10.588393
v 0.069689 -114.809204 4.891706
v 0.101069 -115.436142 10.580417
v 0.069690 -115.065674 4.869269
v 0.048224 -115.527313 10.572438
v 0.069689 -114.809204 4.891706
v -0.057466 -115.344971 10.588393
v -0.078948 -114.809204 4.891706
v 0.048223 -115.344971 10.588393
v -0.110311 -115.436142 10.580417
v -0.078948 -114.809204 4.891706
v -0.057466 -115.344971 10.588393
v -0.153266 -114.937454 4.880486
v -0.057466 -115.527313 10.572438
v -0.078947 -115.065674 4.869269
v -0.078947 -115.065674 4.869269
v 0.048224 -115.527313 10.572438
v 0.069690 -115.065674 4.869269
v -0.057466 -115.527313 10.572438
v 0.048223 -115.344971 10.588393
v -0.110311 -115.436142 10.580417
v -0.057466 -115.344971 10.588393
v 0.048224 -115.527313 10.572438
v 0.101069 -115.436142 10.580417
v -0.057466 -115.527313 10.572438
v 0.089499 -113.896759 4.845987
v 0.032299 -115.216721 8.659501
v 0.042431 -113.820587 4.875047
v 0.069218 -115.277054 8.638295
v 0.042438 -113.972931 4.816923
v 0.032295 -115.337402 8.617089
v 0.042431 -113.820587 4.875047
v -0.041547 -115.216721 8.659499
v -0.051691 -113.820587 4.875047
v 0.032299 -115.216721 8.659501
v -0.078466 -115.277054 8.638293
v -0.051691 -113.820587 4.875047
v -0.041547 -115.216721 8.659499
v -0.098759 -113.896759 4.845987
v -0.041543 -115.337402 8.617089
v -0.051697 -113.972931 4.816923
v -0.051697 -113.972931 4.816923
v 0.032295 -115.337402 8.617089
v 0.042438 -113.972931 4.816923
v -0.041543 -115.337402 8.617089
v -4.552841 -107.999725 5.261770
v -4.017220 -107.999725 5.261769
v -4.481081 -108.267517 5.261770
v -4.481081 -107.731903 5.261770
v -4.285032 -108.463577 5.261770
v -4.285031 -107.535858 5.261769
v -4.017221 -108.535339 5.261769
v -4.017220 -107.464081 5.261769
v -3.749411 -108.463577 5.261768
v -3.749411 -107.535858 5.261768
v -3.553361 -108.267517 5.261768
v -3.553360 -107.731903 5.261768
v -3.481601 -107.999725 5.261767
v 4.552852 -107.999725 5.261767
v 4.481091 -108.267532 5.261767
v 4.017231 -107.999725 5.261766
v 4.481093 -107.731903 5.261767
v 4.285042 -108.463593 5.261767
v 4.285042 -107.535858 5.261767
v 4.017232 -108.535339 5.261766
v 4.017232 -107.464111 5.261766
v 3.749424 -108.463593 5.261765
v 3.749422 -107.535858 5.261765
v 3.553372 -108.267532 5.261765
v 3.553371 -107.731903 5.261765
v 3.481613 -107.999725 5.261765
vn -0.7597 -0.6503 -0.0000
vn -0.7970 -0.6040 -0.0000
vn -0.9239 -0.3827 -0.0000
vn -0.9952 -0.0980 -0.0000
vn -1.0000 -0.0000 -0.0000
vn 0.7597 0.6503 -0.0000
vn 0.7970 0.6040 -0.0000
vn 0.9239 0.3827 -0.0000
vn 0.9952 0.0980 -0.0000
vn 1.0000 -0.0000 -0.0000
vn -0.7597 -0.6502 -0.0000
vn 0.7597 0.6502 -0.0000
vn -0.0000 -0.0000 1.0000
vn -0.0000 -0.0000 -1.0000
vn 0.7597 -0.6503 -0.0000
vn 0.7970 -0.6040 -0.0000
vn 0.9239 -0.3827 -0.0000
vn 0.9952 -0.0980 -0.0000
vn -0.7597 0.6503 -0.0000
vn -0.7970 0.6040 -0.0000
vn -0.9239 0.3827 -0.0000
vn -0.9952 0.0980 -0.0000
vn 0.7597 -0.6502 -0.0000
vn -0.7597 0.6502 -0.0000
vn -0.7906 0.6124 -0.0000
vn 0.7906 0.6124 -0.0000
vn -0.5000 0.8660 -0.0000
vn -0.5000 -0.8660 -0.0000
vn 0.5000 0.8660 -0.0000
vn 0.5000 -0.8660 -0.0000
vn -0.0000 -1.0000 -0.0000
vn -0.0000 1.0000 -0.0000
vn -0.1252 0.2169 0.9681
vn -0.2504 -0.0000 0.9681
vn -0.1252 -0.2169 0.9681
vn 0.1252 0.2169 0.9681
vn 0.1252 -0.2169 0.9681
vn 0.2504 -0.0000 0.9681
vn -0.0000 -0.8060 -0.5920
vn 0.6850 0.7285 -0.0000
vn -0.6850 -0.7285 -0.0000
vn -0.6850 0.7285 -0.0000
vn 0.6850 -0.7285 -0.0000
vn -0.7512 -0.0000 0.6601
vn 0.7512 -0.0000 0.6601
vn -0.0000 -0.5945 0.8041
vn -0.8661 -0.4999 -0.0000
vn -0.8661 0.4999 -0.0000
vn -0.8660 -0.5000 -0.0000
vn -0.8660 -0.5001 -0.0000
vn 0.8660 -0.5001 -0.0000
vn 0.8660 -0.5000 -0.0000
vn 0.8661 -0.4999 -0.0000
vn 0.8661 0.4999 -0.0000
vn 0.8660 0.5001 -0.0000
vn 0.8660 0.5001 0.0001
vn -0.8660 0.5001 -0.0000
vn 0.8659 0.5001 -0.0000
vn -0.0001 -1.0000 -0.0000
vn 0.9996 0.0280 -0.0000
vn 0.9977 0.0680 -0.0000
vn 0.9959 0.0905 -0.0000
vn 0.9932 0.1167 -0.0000
vn 0.9870 0.1609 -0.0000
vn 0.9753 0.2208 -0.0000
vn 0.9542 0.2991 -0.0000
vn 0.9254 0.3790 -0.0000
vn 0.8976 0.4409 -0.0000
vn 0.8634 0.5046 -0.0000
vn 0.7300 0.6834 -0.0000
vn -0.9996 -0.0280 -0.0000
vn -0.9977 -0.0680 -0.0000
vn -0.9959 -0.0905 -0.0000
vn -0.9932 -0.1167 -0.0000
vn -0.9870 -0.1609 -0.0000
vn -0.9753 -0.2208 -0.0000
vn -0.9542 -0.2991 -0.0000
vn -0.9254 -0.3790 -0.0000
vn -0.8976 -0.4409 -0.0000
vn -0.8634 -0.5046 -0.0000
vn -0.7300 -0.6834 -0.0000
vn 0.7299 0.6836 -0.0000
vn 0.4038 0.9148 -0.0000
vn -0.4038 0.9148 -0.0000
vn -0.7299 0.6836 -0.0000
vn -0.7299 -0.6836 -0.0000
vn -0.4038 -0.9148 -0.0000
vn 0.4038 -0.9148 -0.0000
vn 0.7299 -0.6836 0.0001
vn 0.7299 -0.6836 -0.0000
vn -0.7300 0.6834 -0.0000
vn -0.8634 0.5046 -0.0000
vn -0.8976 0.4409 -0.0000
vn -0.9254 0.3790 -0.0000
vn -0.9542 0.2991 -0.0000
vn -0.9753 0.2208 -0.0000
vn -0.9870 0.1609 -0.0000
vn -0.9932 0.1167 -0.0000
vn -0.9959 0.0905 -0.0000
vn -0.9977 0.0680 -0.0000
vn -0.9996 0.0280 -0.0000
vn 0.7300 -0.6834 -0.0000
vn 0.8634 -0.5046 -0.0000
vn 0.8976 -0.4409 -0.0000
vn 0.9254 -0.3790 -0.0000
vn 0.9542 -0.2991 -0.0000
vn 0.9753 -0.2208 -0.0000
vn 0.9870 -0.1609 -0.0000
vn 0.9932 -0.1167 -0.0000
vn 0.9959 -0.0905 -0.0000
vn 0.9977 -0.0680 -0.0000
vn 0.9996 -0.0280 -0.0000
vn -0.2342 -0.0000 0.9722
vn 0.2343 -0.0000 0.9722
vn 0.5000 0.8620 0.0829
vn 0.4999 0.8621 0.0830
vn 1.0000 -0.0007 0.0075
vn 0.5000 -0.8633 -0.0680
vn 0.4999 -0.8634 -0.0680
vn -0.5000 0.8621 0.0829
vn -0.5000 0.8621 0.0830
vn 0.5000 0.8621 0.0829
vn 0.5000 0.8621 0.0830
vn -1.0000 -0.0006 0.0075
vn -1.0000 -0.0007 0.0075
vn -0.5000 -0.8634 -0.0680
vn 0.5000 -0.8634 -0.0680
vn -0.0000 -0.0872 0.9962
vn 0.5022 0.8109 0.3005
vn 0.5014 0.8113 0.3007
vn 1.0000 -0.0064 0.0030
vn 1.0000 -0.0050 0.0035
vn 0.4979 -0.8167 -0.2919
vn 0.4985 -0.8163 -0.2918
vn -0.5021 0.8109 0.3005
vn -0.5015 0.8113 0.3006
vn 0.5021 0.8109 0.3005
vn 0.5015 0.8113 0.3006
vn -0.5014 0.8113 0.3006
vn -0.5022 0.8109 0.3005
vn -1.0000 -0.0050 0.0035
vn -1.0000 -0.0064 0.0030
vn -0.4985 -0.8163 -0.2918
vn -0.4978 -0.8167 -0.2919
vn 0.4978 -0.8167 -0.2919
vt -18.921581 0.334458
vt -18.921581 0.338836
vt -18.934855 0.334458
vt -18.934855 0.338835
vt -18.965183 0.334458
vt -18.965183 0.338836
vt -18.972643 0.334458
vt -18.972643 0.338836
vt -18.981527 0.334458
vt -18.981527 0.338836
vt -19.071852 0.334458
vt -19.071852 0.338836
vt 19.923204 0.338836
vt 19.923204 0.334458
vt 19.937712 0.338835
vt 19.937712 0.334458
vt 19.967840 0.338836
vt 19.967840 0.334458
vt 19.974358 0.338836
vt 19.974358 0.334458
vt 19.981960 0.338836
vt 19.981960 0.334458
vt 20.073475 0.338836
vt 20.073475 0.334458
vt -19.101562 0.334458
vt -19.101562 0.338836
vt -19.109022 0.334458
vt -19.109022 0.338836
vt -19.117907 0.334458
vt -19.117907 0.338836
vt -19.208231 0.334458
vt -19.208231 0.338836
vt 20.104221 0.338836
vt 20.104221 0.334458
vt 20.110737 0.338836
vt 20.110737 0.334458
vt 20.118340 0.338836
vt 20.118340 0.334458
vt 20.209856 0.338836
vt 20.209856 0.334458
vt -19.237942 0.334458
vt -19.237942 0.338836
vt -19.245403 0.334458
vt -19.245403 0.338836
vt -19.254288 0.334458
vt -19.254288 0.338836
vt -19.299963 0.334458
vt -19.299963 0.338836
vt -19.360130 0.334458
vt -19.360130 0.338836
vt 20.240601 0.338836
vt 20.240601 0.334458
vt 20.247118 0.338836
vt 20.247118 0.334458
vt 20.254719 0.338836
vt 20.254719 0.334458
vt 20.299963 0.338836
vt 20.299963 0.334458
vt 20.360130 0.338836
vt 20.360130 0.334458
vt 0.684262 -19.360130
vt 0.688629 -19.360130
vt 0.684262 -19.299963
vt 0.688630 -19.299963
vt 0.684263 -19.254719
vt 0.688630 -19.254288
vt 0.682760 -19.247118
vt 0.686874 -19.245403
vt 0.678433 -19.240601
vt 0.681919 -19.237942
vt 0.652281 -19.209856
vt 0.656648 -19.208231
vt 0.652281 -19.118340
vt 0.656648 -19.117907
vt 0.650778 -19.110737
vt 0.654892 -19.109022
vt 0.646451 -19.104221
vt 0.649938 -19.101562
vt 0.620299 -19.073475
vt 0.624666 -19.071852
vt 0.620300 -18.981960
vt 0.624667 -18.981527
vt 0.618797 -18.974358
vt 0.622911 -18.972643
vt 0.614470 -18.967840
vt 0.617956 -18.965183
vt 0.588842 -18.937712
vt 0.592160 -18.934855
vt 0.576502 -18.923204
vt 0.580870 -18.921581
vt 0.576502 -18.905533
vt 0.580870 -18.905533
vt 0.311371 -19.360130
vt 0.315738 -19.360130
vt 0.311370 -19.299963
vt 0.315738 -19.299963
vt 0.311370 -19.254288
vt 0.315737 -19.254719
vt 0.313126 -19.245403
vt 0.317240 -19.247118
vt 0.318081 -19.237942
vt 0.321567 -19.240601
vt 0.343352 -19.208231
vt 0.347719 -19.209856
vt 0.343352 -19.117907
vt 0.347719 -19.118340
vt 0.345108 -19.109022
vt 0.349222 -19.110737
vt 0.350062 -19.101562
vt 0.353549 -19.104221
vt 0.375334 -19.071852
vt 0.379701 -19.073475
vt 0.375333 -18.981527
vt 0.379700 -18.981960
vt 0.377089 -18.972643
vt 0.381203 -18.974358
vt 0.382044 -18.965183
vt 0.385530 -18.967840
vt 0.407840 -18.934855
vt 0.411158 -18.937712
vt 0.419130 -18.921581
vt 0.423498 -18.923204
vt 0.423498 -18.905533
vt 0.419130 -18.905533
vt -18.905533 0.334458
vt -18.905533 0.338836
vt 19.905533 0.338836
vt 19.905533 0.334458
vt 19.921581 0.334458
vt 19.934855 0.334458
vt 19.921581 0.338836
vt 19.934855 0.338835
vt 19.965183 0.334458
vt 19.965183 0.338836
vt 19.972643 0.334458
vt 19.972643 0.338836
vt 19.981527 0.334458
vt 19.981527 0.338836
vt 20.071852 0.334458
vt 20.071852 0.338836
vt -18.923204 0.338836
vt -18.937712 0.338835
vt -18.923204 0.334458
vt -18.937712 0.334458
vt -18.967840 0.338836
vt -18.967840 0.334458
vt -18.974358 0.338836
vt -18.974358 0.334458
vt -18.981960 0.338836
vt -18.981960 0.334458
vt -19.073475 0.338836
vt -19.073475 0.334458
vt 20.101562 0.334458
vt 20.101562 0.338836
vt 20.109022 0.334458
vt 20.109022 0.338836
vt 20.117907 0.334458
vt 20.117907 0.338836
vt 20.208231 0.334458
vt 20.208231 0.338836
vt -19.104221 0.338836
vt -19.104221 0.334458
vt -19.110737 0.338836
vt -19.110737 0.334458
vt -19.118340 0.338836
vt -19.118340 0.334458
vt -19.209856 0.338836
vt -19.209856 0.334458
vt 20.237942 0.334458
vt 20.237942 0.338836
vt 20.245403 0.334458
vt 20.245403 0.338836
vt 20.254288 0.334458
vt 20.254288 0.338836
vt 20.299963 0.334458
vt 20.299963 0.338836
vt 20.360130 0.334458
vt 20.360130 0.338836
vt -19.240601 0.338836
vt -19.240601 0.334458
vt -19.247118 0.338836
vt -19.247118 0.334458
vt -19.254719 0.338836
vt -19.254719 0.334458
vt -19.299963 0.338836
vt -19.299963 0.334458
vt -19.360130 0.338836
vt -19.360130 0.334458
vt 0.315627 -19.360130
vt 0.315627 -19.299963
vt 0.311260 -19.360130
vt 0.311260 -19.299963
vt 0.315627 -19.254719
vt 0.311260 -19.254288
vt 0.317130 -19.247118
vt 0.313016 -19.245403
vt 0.321457 -19.240601
vt 0.317970 -19.237942
vt 0.347609 -19.209856
vt 0.343242 -19.208231
vt 0.347609 -19.118340
vt 0.343242 -19.117907
vt 0.349112 -19.110737
vt 0.344998 -19.109022
vt 0.353439 -19.104221
vt 0.349953 -19.101562
vt 0.379591 -19.073475
vt 0.375224 -19.071852
vt 0.379592 -18.981960
vt 0.375224 -18.981527
vt 0.381094 -18.974358
vt 0.376981 -18.972643
vt 0.385422 -18.967840
vt 0.381935 -18.965183
vt 0.411049 -18.937712
vt 0.407731 -18.934855
vt 0.423389 -18.923204
vt 0.419022 -18.921581
vt 0.423389 -18.905533
vt 0.419022 -18.905533
vt 0.688740 -19.360130
vt 0.688740 -19.299963
vt 0.684373 -19.360130
vt 0.684373 -19.299963
vt 0.688740 -19.254288
vt 0.684373 -19.254719
vt 0.686984 -19.245403
vt 0.682870 -19.247118
vt 0.682030 -19.237942
vt 0.678543 -19.240601
vt 0.656758 -19.208231
vt 0.652391 -19.209856
vt 0.656758 -19.117907
vt 0.652391 -19.118340
vt 0.655002 -19.109022
vt 0.650888 -19.110737
vt 0.650047 -19.101562
vt 0.646561 -19.104221
vt 0.624776 -19.071852
vt 0.620409 -19.073475
vt 0.624776 -18.981527
vt 0.620408 -18.981960
vt 0.623019 -18.972643
vt 0.618906 -18.974358
vt 0.618065 -18.965183
vt 0.614578 -18.967840
vt 0.592269 -18.934855
vt 0.588951 -18.937712
vt 0.580978 -18.921581
vt 0.576611 -18.923204
vt 0.576611 -18.905533
vt 0.580978 -18.905533
vt 19.905533 0.338836
vt -18.905533 0.338836
vt 0.684263 -19.260178
vt 0.688630 -19.254503
vt 0.684264 -18.905533
vt 0.688631 -18.905533
vt -19.254503 0.294703
vt -19.254503 0.290325
vt -18.905533 0.294702
vt -18.905533 0.290325
vt 0.311370 -19.254503
vt 0.315737 -19.260178
vt 0.311369 -18.905533
vt 0.315736 -18.905533
vt 20.260178 0.290325
vt 20.260178 0.294703
vt 19.905533 0.290325
vt 19.905533 0.294702
vt 0.315628 -18.905533
vt 0.311261 -18.905533
vt 0.315627 -19.260178
vt 0.311260 -19.254503
vt 19.905533 0.294702
vt 19.905533 0.290325
vt 20.254503 0.294703
vt 20.254503 0.290325
vt 0.688739 -18.905533
vt 0.684372 -18.905533
vt 0.688740 -19.254503
vt 0.684373 -19.260178
vt -18.905533 0.290325
vt -18.905533 0.294702
vt -19.260178 0.290325
vt -19.260178 0.294703
vt -19.260178 0.290325
vt -19.260178 0.294703
vt 20.260178 0.290325
vt 20.260178 0.294703
vt -19.212072 0.292514
vt -19.208864 0.292514
vt -19.212072 0.294969
vt -19.208864 0.294969
vt -19.205658 0.292514
vt -19.205658 0.294969
vt 0.671399 0.294969
vt 0.667719 0.294969
vt 0.671399 0.292514
vt 0.667719 0.292514
vt 20.212072 0.294969
vt 20.208864 0.294969
vt 20.212072 0.292514
vt 20.208864 0.292514
vt 20.205658 0.294969
vt 20.205658 0.292514
vt 0.332281 0.294969
vt 0.328601 0.294969
vt 0.332281 0.292514
vt 0.328601 0.292514
vt 20.212072 0.292514
vt 20.212072 0.294969
vt 20.208864 0.292514
vt 20.208864 0.294969
vt 20.205658 0.292514
vt 20.205658 0.294969
vt 0.332171 0.292514
vt 0.332171 0.294969
vt 0.328491 0.292514
vt 0.328491 0.294969
vt -19.212072 0.294969
vt -19.212072 0.292514
vt -19.208864 0.294969
vt -19.208864 0.292514
vt -19.205658 0.294969
vt -19.205658 0.292514
vt 0.671509 0.292514
vt 0.671509 0.294969
vt 0.667829 0.292514
vt 0.667829 0.294969
vt 0.321131 -19.157549
vt 0.321131 -19.166594
vt 0.330849 -19.157549
vt 0.330849 -19.166594
vt 20.157549 0.292514
vt 20.166594 0.292514
vt 20.157549 0.297212
vt 20.166594 0.297212
vt 0.669151 0.292514
vt 0.678869 0.292514
vt 0.669151 0.297212
vt 0.678869 0.297212
vt -19.166594 0.292514
vt -19.157549 0.292514
vt -19.166594 0.297212
vt -19.157549 0.297212
vt 0.321131 0.292514
vt 0.330849 0.292514
vt 0.321131 0.297212
vt 0.330849 0.297212
vt 0.330849 -19.183378
vt 0.321131 -19.183378
vt 0.330849 -19.192425
vt 0.321131 -19.192425
vt 20.183378 0.297213
vt 20.183378 0.292514
vt 20.192425 0.297212
vt 20.192425 0.292514
vt 0.321131 0.297212
vt 0.321131 0.292514
vt 0.330849 0.297213
vt 0.330849 0.292514
vt -19.192425 0.297213
vt -19.192425 0.292514
vt -19.183378 0.297213
vt -19.183378 0.292514
vt 0.669151 0.297213
vt 0.669151 0.292514
vt 0.678869 0.297213
vt 0.678869 0.292514
vt 0.669042 -19.166595
vt 0.678760 -19.166595
vt 0.669042 -19.157549
vt 0.678760 -19.157549
vt -19.166595 0.297212
vt -19.166595 0.292514
vt -19.157549 0.297212
vt -19.157549 0.292514
vt 0.321240 0.297212
vt 0.321240 0.292514
vt 0.330958 0.297212
vt 0.330958 0.292514
vt 20.157549 0.297212
vt 20.157549 0.292514
vt 20.166595 0.297212
vt 20.166595 0.292514
vt 0.669042 0.297212
vt 0.669042 0.292514
vt 0.678760 0.297212
vt 0.678760 0.292514
vt 0.678760 -19.192425
vt 0.678760 -19.183378
vt 0.669042 -19.192425
vt 0.669042 -19.183378
vt -19.192425 0.292514
vt -19.183378 0.292514
vt -19.192425 0.297212
vt -19.183378 0.297212
vt 0.669042 0.292514
vt 0.678760 0.292514
vt 0.669042 0.297212
vt 0.678760 0.297212
vt 20.183378 0.292514
vt 20.183378 0.297212
vt 0.321240 0.292514
vt 0.330958 0.292514
vt 0.321240 0.297212
vt 0.330958 0.297212
vt 0.669559 -19.208864
vt 0.671399 -19.212072
vt 0.673239 -19.208864
vt 0.671399 -19.205658
vt 0.667719 -19.212072
vt 0.667719 -19.205658
vt 0.665878 -19.208864
vt 0.328491 -19.212072
vt 0.330331 -19.208864
vt 0.326651 -19.208864
vt 0.328491 -19.205658
vt 0.332171 -19.212072
vt 0.332171 -19.205658
vt 0.334011 -19.208864
vt 0.684281 -12.844641
vt 0.688648 -12.844641
vt 0.684281 -12.693108
vt 0.688649 -12.693108
vt -12.844641 0.294703
vt -12.844641 0.290325
vt -12.693108 0.294703
vt -12.693108 0.290325
vt 0.311352 -12.844641
vt 0.315719 -12.844641
vt 0.311351 -12.693108
vt 0.315719 -12.693108
vt 13.844641 0.290325
vt 13.844641 0.294703
vt 13.693108 0.290325
vt 13.693108 0.294703
vt 0.311278 -12.693108
vt 0.311277 -12.844641
vt 0.315645 -12.693108
vt 0.315645 -12.844641
vt 13.693108 0.290325
vt 13.844641 0.290325
vt 13.693108 0.294703
vt 13.844641 0.294703
vt 0.684355 -12.693108
vt 0.684355 -12.844641
vt 0.688722 -12.693108
vt 0.688723 -12.844641
vt -12.693108 0.294703
vt -12.844641 0.294703
vt -12.693108 0.290325
vt -12.844641 0.290325
vt 0.498736 0.326013
vt 0.501337 0.326013
vt 0.498736 0.335098
vt 0.501337 0.335098
vt -12.710384 0.326013
vt -12.707811 0.326013
vt -12.710384 0.335098
vt -12.701113 0.335098
vt 0.501337 -12.710384
vt 0.501337 -12.707811
vt 0.498736 -12.710384
vt 0.498736 -12.707811
vt 13.710384 0.335098
vt 13.701113 0.335098
vt 13.710384 0.326013
vt 13.707811 0.326013
vt 0.525655 0.326013
vt 0.528256 0.326013
vt 0.525655 0.335098
vt 0.528256 0.335098
vt -12.710384 0.326013
vt -12.707811 0.326013
vt -12.710384 0.335098
vt -12.701113 0.335098
vt 0.528256 -12.710384
vt 0.528256 -12.707811
vt 0.525655 -12.710384
vt 0.525655 -12.707811
vt 13.710384 0.335098
vt 13.701113 0.335098
vt 13.710384 0.326013
vt 13.707811 0.326013
vt 0.576519 -12.844642
vt 0.580887 -12.844642
vt 0.576520 -12.743093
vt 0.580887 -12.741192
vt 0.526017 -12.695305
vt 0.527747 -12.690910
vt 0.473910 -12.695305
vt 0.472180 -12.690910
vt 0.423407 -12.743092
vt 0.419040 -12.741192
vt 0.423407 -12.844642
vt 0.419039 -12.844642
vt 13.844642 0.334458
vt 13.844642 0.338836
vt 13.743093 0.334458
vt 13.743093 0.338836
vt 0.419113 -12.844642
vt 0.423481 -12.844642
vt 0.419113 -12.741192
vt 0.423480 -12.743093
vt 0.472253 -12.690910
vt 0.473983 -12.695305
vt 0.527820 -12.690910
vt 0.526090 -12.695305
vt 0.580960 -12.741192
vt 0.576593 -12.743092
vt 0.580961 -12.844642
vt 0.576593 -12.844642
vt -12.844642 0.338836
vt -12.844642 0.334458
vt -12.741192 0.338836
vt -12.741192 0.334458
vt 0.576520 0.334458
vt 0.576520 0.338836
vt 0.526017 0.334458
vt 0.526017 0.338836
vt 0.419113 0.338836
vt 0.419113 0.334458
vt 0.472253 0.338836
vt 0.472253 0.334458
vt 0.473910 0.334458
vt 0.473910 0.338836
vt 0.527820 0.338836
vt 0.527820 0.334458
vt 0.423407 0.334458
vt 0.423407 0.338836
vt 0.580960 0.338836
vt 0.580960 0.334458
vt -12.743092 0.334458
vt -12.743092 0.338836
vt -12.844642 0.334458
vt 13.741192 0.338836
vt 13.741192 0.334458
vt -12.819552 0.298192
vt -12.819552 0.292514
vt -12.770685 0.298192
vt -12.770685 0.292514
vt 0.582368 -12.770685
vt 0.578703 -12.770685
vt 0.582368 -12.819552
vt 0.578703 -12.819552
vt -12.770685 0.303306
vt -12.819552 0.303306
vt 0.421297 0.292514
vt 0.421297 0.303306
vt 0.413148 0.292514
vt 0.413148 0.298192
vt 0.417632 0.303306
vt 0.586852 0.292514
vt 0.586852 0.298192
vt 0.578703 0.292514
vt 0.582368 0.303306
vt 0.578703 0.303306
vt 13.770685 0.292514
vt 13.819552 0.292514
vt 13.770685 0.298192
vt 13.819552 0.298192
vt 0.421223 -12.819552
vt 0.421223 -12.770685
vt 0.417558 -12.819552
vt 0.417558 -12.770685
vt 13.819552 0.303306
vt 13.770685 0.303306
vt 0.582442 0.303306
vt 0.578777 0.303306
vt 0.586926 0.298192
vt 0.586926 0.292514
vt 0.578777 0.292514
vt 0.421223 0.303306
vt 0.417558 0.303306
vt 0.421223 0.292514
vt 0.413074 0.298192
vt 0.413074 0.292514
vt 13.702575 0.292514
vt 13.710385 0.292514
vt 13.702575 0.301124
vt 13.710385 0.306877
vt -12.710385 0.306877
vt -12.710385 0.292514
vt -12.702575 0.301124
vt -12.702575 0.292514
vt 0.521477 0.301124
vt 0.478596 0.301124
vt 0.521477 0.292514
vt 0.478596 0.292514
vt 0.521404 -12.702575
vt 0.478523 -12.702575
vt 0.521404 -12.710385
vt 0.478523 -12.710385
vt 0.575682 -18.075621
vt 0.575682 -18.052338
vt 0.561139 -18.075621
vt 0.561139 -18.052338
vt -18.075621 0.292514
vt -18.052338 0.292514
vt -18.075621 0.296140
vt -18.052338 0.296140
vt 0.561139 0.292514
vt 0.575682 0.292514
vt 0.561139 0.296140
vt 0.575682 0.296140
vt 19.052338 0.292514
vt 19.075621 0.292514
vt 19.052338 0.296140
vt 19.075621 0.296140
vt 0.424318 0.292514
vt 0.438861 0.292514
vt 0.424318 0.296140
vt 0.438861 0.296140
vt -18.022579 0.292514
vt -18.022579 0.294969
vt -18.026638 0.292514
vt -18.026638 0.294969
vt -18.030697 0.292514
vt -18.030697 0.294969
vt 0.432569 0.294969
vt 0.432569 0.292514
vt 0.435522 0.294969
vt 0.435522 0.292514
vt 0.439555 0.294969
vt 0.439555 0.292514
vt 0.443588 0.294969
vt 0.443588 0.292514
vt 0.446540 0.294969
vt 0.446540 0.292514
vt 19.022579 0.294969
vt 19.022579 0.292514
vt 19.026638 0.294969
vt 19.026638 0.292514
vt 19.030695 0.294969
vt 19.030695 0.292514
vt 0.553460 0.294969
vt 0.553460 0.292514
vt 0.556412 0.294969
vt 0.556412 0.292514
vt 0.560445 0.294969
vt 0.560445 0.292514
vt 0.564478 0.294969
vt 0.564478 0.292514
vt 0.567431 0.294969
vt 0.567431 0.292514
vt 0.592321 -18.117558
vt 0.592321 -18.094275
vt 0.583421 -18.117558
vt 0.583421 -18.094275
vt -18.117558 0.292514
vt -18.094275 0.292514
vt -18.117558 0.297213
vt -18.094275 0.297213
vt 0.583421 0.292514
vt 0.592321 0.292514
vt 0.583421 0.297213
vt 0.592321 0.297213
vt 19.094275 0.292514
vt 19.117558 0.292514
vt 19.094275 0.297213
vt 19.117558 0.297213
vt 0.407679 0.292514
vt 0.416579 0.292514
vt 0.407679 0.297213
vt 0.416579 0.297213
vt 0.438758 -18.052338
vt 0.424215 -18.052338
vt 0.438758 -18.075621
vt 0.424215 -18.075621
vt 0.424215 0.296140
vt 0.424215 0.292514
vt 0.438758 0.296140
vt 0.438758 0.292514
vt -18.075621 0.296140
vt -18.075621 0.292514
vt -18.052338 0.296140
vt -18.052338 0.292514
vt 0.561242 0.296140
vt 0.561242 0.292514
vt 0.575785 0.296140
vt 0.575785 0.292514
vt 0.567533 0.294969
vt 0.564581 0.294969
vt 0.567533 0.292514
vt 0.564581 0.292514
vt 0.560548 0.294969
vt 0.560548 0.292514
vt 0.556515 0.294969
vt 0.556515 0.292514
vt 0.553562 0.294969
vt 0.553562 0.292514
vt -18.022579 0.294969
vt -18.026638 0.294969
vt -18.022579 0.292514
vt -18.026638 0.292514
vt -18.030695 0.294969
vt -18.030695 0.292514
vt 0.446438 0.294969
vt 0.443485 0.294969
vt 0.446438 0.292514
vt 0.443485 0.292514
vt 0.439452 0.294969
vt 0.439452 0.292514
vt 0.435419 0.294969
vt 0.435419 0.292514
vt 0.432467 0.294969
vt 0.432467 0.292514
vt 0.416476 -18.094275
vt 0.407576 -18.094275
vt 0.416476 -18.117558
vt 0.407576 -18.117558
vt 19.094275 0.297213
vt 19.094275 0.292514
vt 19.117558 0.297213
vt 19.117558 0.292514
vt 0.407576 0.297213
vt 0.407576 0.292514
vt 0.416476 0.297213
vt 0.416476 0.292514
vt -18.117558 0.297213
vt -18.117558 0.292514
vt -18.094275 0.297213
vt -18.094275 0.292514
vt 0.583524 0.297213
vt 0.583524 0.292514
vt 0.592424 0.297213
vt 0.592424 0.292514
vt 19.070461 0.294548
vt 19.070461 0.292514
vt 19.097898 0.294548
vt 19.097898 0.292514
vt 0.540543 -18.070459
vt 0.459354 -18.070461
vt 0.540543 -18.097898
vt 0.459354 -18.097898
vt 0.459354 0.292514
vt 0.540543 0.292514
vt 0.459354 0.294548
vt 0.540543 0.294548
vt 0.459457 0.292514
vt 0.540646 0.292514
vt 0.459457 0.294548
vt 0.540646 0.294548
vt -18.097898 0.292514
vt -18.070459 0.292514
vt -18.097898 0.294548
vt -18.070459 0.294548
vt 0.503934 -18.087343
vt 0.503934 -18.074486
vt 0.495963 -18.087343
vt 0.495963 -18.074486
vt 19.074486 0.294548
vt 19.087343 0.294548
vt 19.074486 0.299623
vt 19.087343 0.299623
vt 0.496066 0.294548
vt 0.504037 0.294548
vt 0.496066 0.299623
vt 0.504037 0.299623
vt -18.087343 0.294548
vt -18.074486 0.294548
vt -18.087343 0.299623
vt -18.074486 0.299623
vt 0.495963 0.294548
vt 0.503934 0.294548
vt 0.495963 0.299623
vt 0.503934 0.299623
vt 0.503934 -18.117558
vt 0.503934 -18.104700
vt 0.495963 -18.117558
vt 0.495963 -18.104700
vt 19.104700 0.292514
vt 19.117558 0.292514
vt 19.104700 0.299623
vt 19.117558 0.299623
vt 0.496066 0.292514
vt 0.504037 0.292514
vt 0.496066 0.299623
vt 0.504037 0.299623
vt -18.117558 0.292514
vt -18.104700 0.292514
vt -18.117558 0.299623
vt -18.104700 0.299623
vt 0.495963 0.292514
vt 0.503934 0.292514
vt 0.495963 0.299623
vt 0.503934 0.299623
vt 0.489534 -17.888514
vt 0.489534 -17.915878
vt 0.510364 -17.888514
vt 0.510364 -17.915878
vt 0.489636 0.287052
vt 0.510466 0.287052
vt 0.489636 0.290326
vt 0.510466 0.290326
vt 18.888514 0.287052
vt 18.915878 0.287052
vt 18.888514 0.290326
vt 18.915878 0.290326
vt -17.915878 0.287052
vt -17.888514 0.287052
vt -17.915878 0.290326
vt -17.888514 0.290326
vt 0.489636 -17.915878
vt 0.510466 -17.915878
vt 0.489636 -17.888514
vt 0.510466 -17.888514
vt 0.684264 -18.753998
vt 0.688631 -18.753998
vt 0.684264 -18.663139
vt 0.688631 -18.663017
vt 0.679210 -18.572308
vt 0.683568 -18.572008
vt 0.671959 -18.481438
vt 0.676308 -18.481039
vt 0.662798 -18.390575
vt 0.667136 -18.390062
vt 0.650744 -18.299751
vt 0.655056 -18.299044
vt 0.633352 -18.208963
vt 0.637614 -18.207993
vt 0.609860 -18.118216
vt 0.614032 -18.116899
vt 0.576667 -18.027472
vt 0.580711 -18.025805
vt 0.546178 -17.959625
vt 0.550099 -17.957687
vt 0.534148 -17.936848
vt 0.537922 -17.934629
vt 0.527157 -17.925858
vt 0.530400 -17.922802
vt 0.515345 -17.917099
vt 0.517152 -17.912979
vt 0.499949 -17.914017
vt 0.499949 -17.909536
vt 0.484553 -17.917099
vt 0.482746 -17.912979
vt 0.472741 -17.925858
vt 0.469499 -17.922802
vt 0.465750 -17.936848
vt 0.461977 -17.934629
vt 0.453720 -17.959625
vt 0.449799 -17.957687
vt 0.423231 -18.027472
vt 0.419187 -18.025805
vt 0.390037 -18.118216
vt 0.385864 -18.116899
vt 0.366544 -18.208963
vt 0.362282 -18.207993
vt 0.349152 -18.299751
vt 0.344840 -18.299044
vt 0.337097 -18.390574
vt 0.332759 -18.390060
vt 0.327936 -18.481436
vt 0.323586 -18.481039
vt 0.320684 -18.572308
vt 0.316326 -18.572008
vt 0.315629 -18.663139
vt 0.311262 -18.663015
vt 0.315628 -18.753998
vt 0.311261 -18.753998
vt 19.753998 0.290325
vt 19.753998 0.294703
vt 19.663139 0.290326
vt 19.663139 0.294703
vt 19.572308 0.290326
vt 19.572308 0.294703
vt 19.481438 0.290326
vt 19.481438 0.294703
vt 19.390575 0.290326
vt 19.390575 0.294703
vt 19.299751 0.290325
vt 19.299751 0.294703
vt 19.208963 0.290325
vt 19.208963 0.294703
vt 19.118216 0.290325
vt 19.118216 0.294703
vt 19.027472 0.290325
vt 19.027472 0.294703
vt 18.959625 0.290325
vt 18.959625 0.294703
vt 18.936848 0.290326
vt 18.936848 0.294703
vt 18.925858 0.290326
vt 18.925858 0.294703
vt 0.311369 -18.753998
vt 0.315736 -18.753998
vt 0.311369 -18.663017
vt 0.315736 -18.663139
vt 0.316432 -18.572008
vt 0.320790 -18.572308
vt 0.323692 -18.481039
vt 0.328041 -18.481438
vt 0.332864 -18.390062
vt 0.337202 -18.390575
vt 0.344944 -18.299044
vt 0.349256 -18.299751
vt 0.362386 -18.207993
vt 0.366648 -18.208963
vt 0.385968 -18.116899
vt 0.390140 -18.118216
vt 0.419289 -18.025805
vt 0.423333 -18.027472
vt 0.449901 -17.957687
vt 0.453822 -17.959625
vt 0.462078 -17.934629
vt 0.465852 -17.936848
vt 0.469600 -17.922802
vt 0.472843 -17.925858
vt 0.482848 -17.912979
vt 0.484655 -17.917099
vt 0.500051 -17.909536
vt 0.500051 -17.914017
vt 0.517254 -17.912979
vt 0.515447 -17.917099
vt 0.530501 -17.922802
vt 0.527259 -17.925858
vt 0.538023 -17.934629
vt 0.534250 -17.936848
vt 0.550201 -17.957687
vt 0.546280 -17.959625
vt 0.580813 -18.025805
vt 0.576769 -18.027472
vt 0.614136 -18.116899
vt 0.609963 -18.118216
vt 0.637718 -18.207993
vt 0.633456 -18.208963
vt 0.655160 -18.299044
vt 0.650848 -18.299751
vt 0.667241 -18.390060
vt 0.662903 -18.390574
vt 0.676414 -18.481039
vt 0.672064 -18.481436
vt 0.683674 -18.572008
vt 0.679316 -18.572308
vt 0.688738 -18.663015
vt 0.684371 -18.663139
vt 0.688739 -18.753998
vt 0.684371 -18.753998
vt -18.753998 0.294703
vt -18.753998 0.290325
vt -18.663017 0.294703
vt -18.663017 0.290326
vt -18.572008 0.294703
vt -18.572008 0.290326
vt -18.481039 0.294703
vt -18.481039 0.290326
vt -18.390062 0.294703
vt -18.390062 0.290326
vt -18.299044 0.294703
vt -18.299044 0.290325
vt -18.207993 0.294703
vt -18.207993 0.290325
vt -18.116899 0.294703
vt -18.116899 0.290325
vt -18.025805 0.294703
vt -18.025805 0.290325
vt -17.957687 0.294703
vt -17.957687 0.290325
vt -17.934629 0.294703
vt -17.934629 0.290326
vt -17.922802 0.294703
vt -17.922802 0.290326
vt 0.527157 0.290326
vt 0.527157 0.294703
vt 0.515345 0.290326
vt 0.515345 0.294703
vt 0.499949 0.290326
vt 0.499949 0.294703
vt 0.484553 0.290326
vt 0.484553 0.294703
vt 0.472741 0.290326
vt 0.472741 0.294703
vt 0.469600 0.294703
vt 0.469600 0.290326
vt 0.482848 0.294703
vt 0.482848 0.290326
vt 0.500051 0.294703
vt 0.500051 0.290326
vt 0.517254 0.294703
vt 0.517254 0.290326
vt 0.530501 0.294703
vt 0.530501 0.290326
vt -17.925858 0.290326
vt -17.925858 0.294703
vt -17.936848 0.290326
vt -17.936848 0.294703
vt -17.959625 0.290325
vt -17.959625 0.294703
vt -18.027472 0.290325
vt -18.027472 0.294703
vt -18.118216 0.290325
vt -18.118216 0.294703
vt -18.208963 0.290325
vt -18.208963 0.294703
vt -18.299751 0.290325
vt -18.299751 0.294703
vt -18.390574 0.290325
vt -18.390574 0.294703
vt -18.481436 0.290325
vt -18.481436 0.294703
vt -18.572308 0.290325
vt -18.572308 0.294703
vt -18.663139 0.290325
vt -18.663139 0.294703
vt -18.753998 0.290325
vt -18.753998 0.294703
vt 18.922802 0.294703
vt 18.922802 0.290326
vt 18.934629 0.294703
vt 18.934629 0.290326
vt 18.957687 0.294703
vt 18.957687 0.290325
vt 19.025805 0.294703
vt 19.025805 0.290325
vt 19.116899 0.294703
vt 19.116899 0.290325
vt 19.207993 0.294703
vt 19.207993 0.290325
vt 19.299044 0.294703
vt 19.299044 0.290325
vt 19.390060 0.294703
vt 19.390060 0.290325
vt 19.481039 0.294703
vt 19.481039 0.290325
vt 19.572008 0.294703
vt 19.572008 0.290325
vt 19.663015 0.294703
vt 19.663015 0.290325
vt 19.753998 0.294703
vt 19.753998 0.290325
vt 0.499948 -18.123737
vt 0.499948 -18.172714
vt 0.515850 -18.123737
vt 0.515849 -18.172714
vt -18.172714 0.292514
vt -18.123737 0.292514
vt -18.172714 0.298126
vt -18.123737 0.298126
vt 0.515849 0.292514
vt 0.515849 0.298126
vt 0.499948 0.292514
vt 0.499948 0.301967
vt 0.484046 0.298126
vt 0.484046 0.292514
vt 0.484150 0.298126
vt 0.484150 0.292514
vt 0.500052 0.301967
vt 0.500052 0.292514
vt 0.515954 0.292514
vt 0.515954 0.298126
vt 0.484046 -18.172714
vt 0.484046 -18.123737
vt 19.123737 0.298126
vt 19.123737 0.292514
vt 19.172714 0.298126
vt 19.172714 0.292514
vt 0.518476 -18.202827
vt 0.518476 -18.179544
vt 0.481420 -18.202827
vt 0.481420 -18.179544
vt 19.202827 0.298787
vt 19.179544 0.298787
vt 19.202827 0.292514
vt 19.179544 0.292514
vt 0.518580 0.298787
vt 0.481524 0.298787
vt 0.518580 0.292514
vt 0.481524 0.292514
vt -18.179544 0.298787
vt -18.202827 0.298787
vt -18.179544 0.292514
vt -18.202827 0.292514
vt 0.518476 0.298787
vt 0.481420 0.298787
vt 0.518476 0.292514
vt 0.481420 0.292514
vt 18.923450 0.289383
vt 18.915333 0.375372
vt 18.921509 0.289214
vt 18.913952 0.375251
vt 18.919565 0.289044
vt 18.912569 0.375131
vt 0.501138 0.289383
vt 0.500814 0.375372
vt 0.498900 0.289383
vt 0.499223 0.375372
vt -17.915333 0.375372
vt -17.923450 0.289383
vt -17.913952 0.375251
vt -17.921509 0.289214
vt -17.912569 0.375131
vt -17.919565 0.289044
vt 0.501100 0.289044
vt 0.500777 0.375131
vt 0.498862 0.289044
vt 0.499186 0.375131
vt 0.500814 -17.915333
vt 0.501610 -17.913952
vt 0.499223 -17.915333
vt 0.499223 -17.912569
vt 0.498427 -17.913952
vt 0.500814 -17.912569
vt 18.938433 0.289132
vt 18.917276 0.346256
vt 18.937279 0.288693
vt 18.916361 0.345936
vt 18.936123 0.288254
vt 18.915447 0.345616
vt 0.500727 0.289132
vt 0.500575 0.346256
vt 0.499310 0.289132
vt 0.499463 0.346256
vt -17.917276 0.346256
vt -17.938433 0.289132
vt -17.916361 0.345936
vt -17.937279 0.288693
vt -17.915447 0.345616
vt -17.936123 0.288254
vt 0.500690 0.288254
vt 0.500537 0.345616
vt 0.499272 0.288254
vt 0.499425 0.345616
vt 0.567431 -18.022579
vt 0.560445 -18.026638
vt 0.568511 -18.026638
vt 0.567431 -18.030697
vt 0.564478 -18.019609
vt 0.564478 -18.033667
vt 0.560445 -18.018520
vt 0.560445 -18.034754
vt 0.556412 -18.019609
vt 0.556412 -18.033667
vt 0.553460 -18.022579
vt 0.553460 -18.030695
vt 0.552379 -18.026638
vt 0.439452 -18.026638
vt 0.432467 -18.022579
vt 0.431386 -18.026638
vt 0.432467 -18.030695
vt 0.435419 -18.019609
vt 0.435419 -18.033667
vt 0.439452 -18.018520
vt 0.439452 -18.034754
vt 0.443485 -18.019609
vt 0.443485 -18.033667
vt 0.446438 -18.022579
vt 0.446438 -18.030695
vt 0.447518 -18.026638
s 1
g Bsh_Hull_Midsection_Dredn_BCD1_001_7_steel_4
usemtl steel_4
f 3/1/1 2/2/1 1/3/1
f 4/4/1 1/3/1 2/2/1
f 1/3/1 4/4/1 5/5/2
f 6/6/2 5/5/2 4/4/1
f 5/5/2 6/6/2 7/7/3
f 8/8/3 7/7/3 6/6/2
f 7/7/3 8/8/3 9/9/4
f 10/10/4 9/9/4 8/8/3
f 9/9/4 10/10/4 11/11/5
f 12/12/5 11/11/5 10/10/4
f 15/13/6 14/14/6 13/15/6
f 16/16/6 13/15/6 14/14/6
f 13/15/6 16/16/6 17/17/7
f 18/18/7 17/17/7 16/16/6
f 17/17/7 18/18/7 19/19/8
f 20/20/8 19/19/8 18/18/7
f 19/19/8 20/20/8 21/21/9
f 22/22/9 21/21/9 20/20/8
f 21/21/9 22/22/9 23/23/10
f 24/24/10 23/23/10 22/22/9
f 27/11/11 26/12/11 25/25/2
f 28/26/2 25/25/2 26/12/11
f 25/25/2 28/26/2 29/27/3
f 30/28/3 29/27/3 28/26/2
f 29/27/3 30/28/3 31/29/4
f 32/30/4 31/29/4 30/28/3
f 31/29/4 32/30/4 33/31/5
f 34/32/5 33/31/5 32/30/4
f 37/23/6 36/24/6 35/33/7
f 38/34/7 35/33/7 36/24/6
f 35/33/7 38/34/7 39/35/8
f 40/36/8 39/35/8 38/34/7
f 39/35/8 40/36/8 41/37/9
f 42/38/9 41/37/9 40/36/8
f 41/37/9 42/38/9 43/39/10
f 44/40/10 43/39/10 42/38/9
f 47/31/1 46/32/1 45/41/2
f 48/42/2 45/41/2 46/32/1
f 45/41/2 48/42/2 49/43/3
f 50/44/3 49/43/3 48/42/2
f 49/43/3 50/44/3 51/45/4
f 52/46/4 51/45/4 50/44/3
f 51/45/4 52/46/4 53/47/5
f 54/48/5 53/47/5 52/46/4
f 53/47/5 54/48/5 55/49/5
f 56/50/5 55/49/5 54/48/5
f 59/39/12 58/40/12 57/51/7
f 60/52/7 57/51/7 58/40/12
f 57/51/7 60/52/7 61/53/8
f 62/54/8 61/53/8 60/52/7
f 61/53/8 62/54/8 63/55/9
f 64/56/9 63/55/9 62/54/8
f 63/55/9 64/56/9 65/57/10
f 66/58/10 65/57/10 64/56/9
f 65/57/10 66/58/10 67/59/10
f 68/60/10 67/59/10 66/58/10
f 71/61/13 70/62/13 69/63/13
f 72/64/13 69/63/13 70/62/13
f 69/63/13 72/64/13 73/65/13
f 74/66/13 73/65/13 72/64/13
f 73/65/13 74/66/13 75/67/13
f 76/68/13 75/67/13 74/66/13
f 75/67/13 76/68/13 77/69/13
f 78/70/13 77/69/13 76/68/13
f 77/69/13 78/70/13 79/71/13
f 80/72/13 79/71/13 78/70/13
f 79/71/13 80/72/13 81/73/13
f 82/74/13 81/73/13 80/72/13
f 81/73/13 82/74/13 83/75/13
f 84/76/13 83/75/13 82/74/13
f 83/75/13 84/76/13 85/77/13
f 86/78/13 85/77/13 84/76/13
f 85/77/13 86/78/13 87/79/13
f 88/80/13 87/79/13 86/78/13
f 87/79/13 88/80/13 89/81/13
f 90/82/13 89/81/13 88/80/13
f 89/81/13 90/82/13 91/83/13
f 92/84/13 91/83/13 90/82/13
f 91/83/13 92/84/13 93/85/13
f 94/86/13 93/85/13 92/84/13
f 93/85/13 94/86/13 95/87/13
f 96/88/13 95/87/13 94/86/13
f 95/87/13 96/88/13 97/89/13
f 98/90/13 97/89/13 96/88/13
f 97/89/13 98/90/13 99/91/13
f 100/92/13 99/91/13 98/90/13
f 103/93/14 102/94/14 101/95/14
f 104/96/14 101/95/14 102/94/14
f 101/95/14 104/96/14 105/97/14
f 106/98/14 105/97/14 104/96/14
f 105/97/14 106/98/14 107/99/14
f 108/100/14 107/99/14 106/98/14
f 107/99/14 108/100/14 109/101/14
f 110/102/14 109/101/14 108/100/14
f 109/101/14 110/102/14 111/103/14
f 112/104/14 111/103/14 110/102/14
f 111/103/14 112/104/14 113/105/14
f 114/106/14 113/105/14 112/104/14
f 113/105/14 114/106/14 115/107/14
f 116/108/14 115/107/14 114/106/14
f 115/107/14 116/108/14 117/109/14
f 118/110/14 117/109/14 116/108/14
f 117/109/14 118/110/14 119/111/14
f 120/112/14 119/111/14 118/110/14
f 119/111/14 120/112/14 121/113/14
f 122/114/14 121/113/14 120/112/14
f 121/113/14 122/114/14 123/115/14
f 124/116/14 123/115/14 122/114/14
f 123/115/14 124/116/14 125/117/14
f 126/118/14 125/117/14 124/116/14
f 125/117/14 126/118/14 127/119/14
f 128/120/14 127/119/14 126/118/14
f 127/119/14 128/120/14 129/121/14
f 130/122/14 129/121/14 128/120/14
f 130/122/14 131/123/14 129/121/14
f 132/124/14 129/121/14 131/123/14
f 135/1/5 134/125/5 133/2/5
f 136/126/5 133/2/5 134/125/5
f 139/13/10 138/127/10 137/14/10
f 140/128/10 137/14/10 138/127/10
f 143/129/15 142/130/15 141/131/15
f 144/132/15 141/131/15 142/130/15
f 142/130/15 145/133/16 144/132/15
f 146/134/16 144/132/15 145/133/16
f 145/133/16 147/135/17 146/134/16
f 148/136/17 146/134/16 147/135/17
f 147/135/17 149/137/18 148/136/17
f 150/138/18 148/136/17 149/137/18
f 149/137/18 151/139/10 150/138/18
f 152/140/10 150/138/18 151/139/10
f 155/141/19 154/142/19 153/143/19
f 156/144/19 153/143/19 154/142/19
f 154/142/19 157/145/20 156/144/19
f 158/146/20 156/144/19 157/145/20
f 157/145/20 159/147/21 158/146/20
f 160/148/21 158/146/20 159/147/21
f 159/147/21 161/149/22 160/148/21
f 162/150/22 160/148/21 161/149/22
f 161/149/22 163/151/5 162/150/22
f 164/152/5 162/150/22 163/151/5
f 167/139/23 166/153/16 165/140/23
f 168/154/16 165/140/23 166/153/16
f 166/153/16 169/155/17 168/154/16
f 170/156/17 168/154/16 169/155/17
f 169/155/17 171/157/18 170/156/17
f 172/158/18 170/156/17 171/157/18
f 171/157/18 173/159/10 172/158/18
f 174/160/10 172/158/18 173/159/10
f 177/151/19 176/161/20 175/152/19
f 178/162/20 175/152/19 176/161/20
f 176/161/20 179/163/21 178/162/20
f 180/164/21 178/162/20 179/163/21
f 179/163/21 181/165/22 180/164/21
f 182/166/22 180/164/21 181/165/22
f 181/165/22 183/167/5 182/166/22
f 184/168/5 182/166/22 183/167/5
f 187/159/15 186/169/16 185/160/15
f 188/170/16 185/160/15 186/169/16
f 186/169/16 189/171/17 188/170/16
f 190/172/17 188/170/16 189/171/17
f 189/171/17 191/173/18 190/172/17
f 192/174/18 190/172/17 191/173/18
f 191/173/18 193/175/10 192/174/18
f 194/176/10 192/174/18 193/175/10
f 193/175/10 195/177/10 194/176/10
f 196/178/10 194/176/10 195/177/10
f 199/167/24 198/179/20 197/168/24
f 200/180/20 197/168/24 198/179/20
f 198/179/20 201/181/21 200/180/20
f 202/182/21 200/180/20 201/181/21
f 201/181/21 203/183/22 202/182/21
f 204/184/22 202/182/21 203/183/22
f 203/183/22 205/185/5 204/184/22
f 206/186/5 204/184/22 205/185/5
f 205/185/5 207/187/5 206/186/5
f 208/188/5 206/186/5 207/187/5
f 211/189/13 210/190/13 209/191/13
f 212/192/13 209/191/13 210/190/13
f 210/190/13 213/193/13 212/192/13
f 214/194/13 212/192/13 213/193/13
f 213/193/13 215/195/13 214/194/13
f 216/196/13 214/194/13 215/195/13
f 215/195/13 217/197/13 216/196/13
f 218/198/13 216/196/13 217/197/13
f 217/197/13 219/199/13 218/198/13
f 220/200/13 218/198/13 219/199/13
f 219/199/13 221/201/13 220/200/13
f 222/202/13 220/200/13 221/201/13
f 221/201/13 223/203/13 222/202/13
f 224/204/13 222/202/13 223/203/13
f 223/203/13 225/205/13 224/204/13
f 226/206/13 224/204/13 225/205/13
f 225/205/13 227/207/13 226/206/13
f 228/208/13 226/206/13 227/207/13
f 227/207/13 229/209/13 228/208/13
f 230/210/13 228/208/13 229/209/13
f 229/209/13 231/211/13 230/210/13
f 232/212/13 230/210/13 231/211/13
f 231/211/13 233/213/13 232/212/13
f 234/214/13 232/212/13 233/213/13
f 233/213/13 235/215/13 234/214/13
f 236/216/13 234/214/13 235/215/13
f 235/215/13 237/217/13 236/216/13
f 238/218/13 236/216/13 237/217/13
f 237/217/13 239/219/13 238/218/13
f 240/220/13 238/218/13 239/219/13
f 243/221/14 242/222/14 241/223/14
f 244/224/14 241/223/14 242/222/14
f 242/222/14 245/225/14 244/224/14
f 246/226/14 244/224/14 245/225/14
f 245/225/14 247/227/14 246/226/14
f 248/228/14 246/226/14 247/227/14
f 247/227/14 249/229/14 248/228/14
f 250/230/14 248/228/14 249/229/14
f 249/229/14 251/231/14 250/230/14
f 252/232/14 250/230/14 251/231/14
f 251/231/14 253/233/14 252/232/14
f 254/234/14 252/232/14 253/233/14
f 253/233/14 255/235/14 254/234/14
f 256/236/14 254/234/14 255/235/14
f 255/235/14 257/237/14 256/236/14
f 258/238/14 256/236/14 257/237/14
f 257/237/14 259/239/14 258/238/14
f 260/240/14 258/238/14 259/239/14
f 259/239/14 261/241/14 260/240/14
f 262/242/14 260/240/14 261/241/14
f 261/241/14 263/243/14 262/242/14
f 264/244/14 262/242/14 263/243/14
f 263/243/14 265/245/14 264/244/14
f 266/246/14 264/244/14 265/245/14
f 265/245/14 267/247/14 266/246/14
f 268/248/14 266/246/14 267/247/14
f 267/247/14 269/249/14 268/248/14
f 270/250/14 268/248/14 269/249/14
f 270/250/14 269/249/14 271/251/14
f 272/252/14 271/251/14 269/249/14
f 275/253/10 274/128/10 273/131/10
f 276/129/10 273/131/10 274/128/10
f 279/125/5 278/254/5 277/143/5
f 280/141/5 277/143/5 278/254/5
f 283/255/13 282/256/13 281/257/13
f 284/258/13 281/257/13 282/256/13
f 287/259/5 286/260/5 285/261/5
f 288/262/5 285/261/5 286/260/5
f 291/263/14 290/264/14 289/265/14
f 292/266/14 289/265/14 290/264/14
f 295/267/10 294/268/10 293/269/10
f 296/270/10 293/269/10 294/268/10
f 299/271/13 298/272/13 297/273/13
f 300/274/13 297/273/13 298/272/13
f 303/275/10 302/276/10 301/277/10
f 304/278/10 301/277/10 302/276/10
f 307/279/14 306/280/14 305/281/14
f 308/282/14 305/281/14 306/280/14
f 311/283/5 310/284/5 309/285/5
f 312/286/5 309/285/5 310/284/5
f 315/260/25 314/259/25 313/287/25
f 316/288/25 313/287/25 314/259/25
f 319/289/26 318/290/26 317/278/26
f 320/277/26 317/278/26 318/290/26
f 323/291/27 322/292/5 321/293/27
f 324/294/5 321/293/27 322/292/5
f 322/292/5 325/295/28 324/294/5
f 326/296/28 324/294/5 325/295/28
f 329/297/27 328/298/29 327/299/27
f 330/300/29 327/299/27 328/298/29
f 333/301/29 332/302/10 331/303/29
f 334/304/10 331/303/29 332/302/10
f 332/302/10 335/305/30 334/304/10
f 336/306/30 334/304/10 335/305/30
f 339/307/30 338/308/28 337/309/30
f 340/310/28 337/309/30 338/308/28
f 343/311/29 342/312/29 341/313/10
f 344/314/10 341/313/10 342/312/29
f 341/313/10 344/314/10 345/315/30
f 346/316/30 345/315/30 344/314/10
f 349/317/27 348/318/27 347/319/29
f 350/320/29 347/319/29 348/318/27
f 353/321/27 352/322/27 351/323/5
f 354/324/5 351/323/5 352/322/27
f 351/323/5 354/324/5 355/325/28
f 356/326/28 355/325/28 354/324/5
f 359/327/30 358/328/30 357/329/28
f 360/330/28 357/329/28 358/328/30
f 363/331/13 362/332/13 361/333/13
f 364/334/13 361/333/13 362/332/13
f 367/335/10 366/336/10 365/337/10
f 368/338/10 365/337/10 366/336/10
f 371/339/31 370/340/31 369/341/31
f 372/342/31 369/341/31 370/340/31
f 375/343/5 374/344/5 373/345/5
f 376/346/5 373/345/5 374/344/5
f 379/347/32 378/348/32 377/349/32
f 380/350/32 377/349/32 378/348/32
f 383/351/13 382/352/13 381/353/13
f 384/354/13 381/353/13 382/352/13
f 387/355/10 386/356/10 385/357/10
f 388/358/10 385/357/10 386/356/10
f 391/359/32 390/360/32 389/361/32
f 392/362/32 389/361/32 390/360/32
f 395/363/5 394/364/5 393/365/5
f 396/366/5 393/365/5 394/364/5
f 399/367/31 398/368/31 397/369/31
f 400/370/31 397/369/31 398/368/31
f 403/371/13 402/372/13 401/373/13
f 404/374/13 401/373/13 402/372/13
f 407/375/5 406/376/5 405/377/5
f 408/378/5 405/377/5 406/376/5
f 411/379/31 410/380/31 409/381/31
f 412/382/31 409/381/31 410/380/31
f 415/383/10 414/384/10 413/385/10
f 416/386/10 413/385/10 414/384/10
f 419/387/32 418/388/32 417/389/32
f 420/390/32 417/389/32 418/388/32
f 423/391/13 422/392/13 421/393/13
f 424/394/13 421/393/13 422/392/13
f 427/395/5 426/396/5 425/397/5
f 428/398/5 425/397/5 426/396/5
f 431/399/32 430/400/32 429/401/32
f 432/402/32 429/401/32 430/400/32
f 435/403/10 434/358/10 433/404/10
f 436/357/10 433/404/10 434/358/10
f 439/405/31 438/406/31 437/407/31
f 440/408/31 437/407/31 438/406/31
f 443/409/13 442/410/33 441/411/34
f 443/409/13 441/411/34 444/412/35
f 443/409/13 445/413/36 442/410/33
f 443/409/13 444/412/35 446/414/37
f 443/409/13 447/415/38 445/413/36
f 443/409/13 446/414/37 447/415/38
f 450/416/36 449/417/13 448/418/38
f 448/418/38 449/417/13 451/419/37
f 452/420/33 449/417/13 450/416/36
f 451/419/37 449/417/13 453/421/35
f 454/422/34 449/417/13 452/420/33
f 453/421/35 449/417/13 454/422/34
f 457/423/13 456/424/13 455/425/13
f 458/426/13 455/425/13 456/424/13
f 461/427/5 460/428/5 459/429/5
f 462/430/5 459/429/5 460/428/5
f 465/431/14 464/432/14 463/433/14
f 466/434/14 463/433/14 464/432/14
f 469/435/10 468/436/10 467/437/10
f 470/438/10 467/437/10 468/436/10
f 473/439/13 472/440/13 471/441/13
f 474/442/13 471/441/13 472/440/13
f 477/443/10 476/444/10 475/445/10
f 478/446/10 475/445/10 476/444/10
f 481/447/14 480/448/14 479/449/14
f 482/450/14 479/449/14 480/448/14
f 485/451/5 484/452/5 483/453/5
f 486/454/5 483/453/5 484/452/5
f 489/455/39 488/456/39 487/457/39
f 490/458/39 487/457/39 488/456/39
f 493/459/5 492/460/5 491/461/5
f 494/462/5 491/461/5 492/460/5
f 497/463/14 496/464/14 495/465/14
f 498/466/14 495/465/14 496/464/14
f 501/467/10 500/468/10 499/469/10
f 502/470/10 499/469/10 500/468/10
f 505/471/39 504/472/39 503/473/39
f 506/474/39 503/473/39 504/472/39
f 509/475/5 508/476/5 507/477/5
f 510/478/5 507/477/5 508/476/5
f 513/479/14 512/480/14 511/481/14
f 514/482/14 511/481/14 512/480/14
f 517/483/10 516/484/10 515/485/10
f 518/486/10 515/485/10 516/484/10
f 521/487/13 520/488/13 519/489/13
f 522/490/13 519/489/13 520/488/13
f 519/489/13 522/490/13 523/491/13
f 524/492/13 523/491/13 522/490/13
f 523/491/13 524/492/13 525/493/13
f 526/494/13 525/493/13 524/492/13
f 525/493/13 526/494/13 527/495/13
f 528/496/13 527/495/13 526/494/13
f 527/495/13 528/496/13 529/497/13
f 530/498/13 529/497/13 528/496/13
f 533/499/10 532/500/10 531/501/10
f 534/502/10 531/501/10 532/500/10
f 537/503/14 536/504/14 535/505/14
f 538/506/14 535/505/14 536/504/14
f 535/505/14 538/506/14 539/507/14
f 540/508/14 539/507/14 538/506/14
f 539/507/14 540/508/14 541/509/14
f 542/510/14 541/509/14 540/508/14
f 541/509/14 542/510/14 543/511/14
f 544/512/14 543/511/14 542/510/14
f 543/511/14 544/512/14 545/513/14
f 546/514/14 545/513/14 544/512/14
f 549/515/5 548/516/5 547/517/5
f 550/518/5 547/517/5 548/516/5
f 553/519/40 552/520/40 551/521/40
f 554/522/40 551/521/40 552/520/40
f 557/523/41 556/524/41 555/525/41
f 558/526/41 555/525/41 556/524/41
f 561/521/32 560/522/32 559/527/32
f 562/528/32 559/527/32 560/522/32
f 565/525/31 564/526/31 563/529/31
f 566/530/31 563/529/31 564/526/31
f 569/527/42 568/528/42 567/531/42
f 570/532/42 567/531/42 568/528/42
f 573/529/43 572/530/43 571/533/43
f 574/534/43 571/533/43 572/530/43
f 577/535/5 576/536/5 575/537/5
f 578/515/5 575/537/5 576/536/5
f 581/538/10 580/539/10 579/500/10
f 582/499/10 579/500/10 580/539/10
f 585/540/5 584/541/5 583/542/5
f 586/543/5 583/542/5 584/541/5
f 589/544/13 588/545/13 587/546/13
f 590/547/13 587/546/13 588/545/13
f 593/548/44 592/549/44 591/542/44
f 594/540/44 591/542/44 592/549/44
f 597/550/31 596/551/31 595/552/31
f 595/552/31 596/551/31 598/553/31
f 596/551/31 599/554/31 598/553/31
f 602/555/32 601/556/32 600/557/32
f 601/556/32 603/558/32 600/557/32
f 603/558/32 604/559/32 600/557/32
f 607/560/10 606/561/10 605/562/10
f 608/563/10 605/562/10 606/561/10
f 611/564/13 610/565/13 609/566/13
f 612/567/13 609/566/13 610/565/13
f 615/563/45 614/568/45 613/562/45
f 616/569/45 613/562/45 614/568/45
f 619/570/31 618/571/31 617/572/31
f 618/571/31 620/573/31 617/572/31
f 621/574/31 620/573/31 618/571/31
f 624/575/32 623/576/32 622/577/32
f 623/576/32 625/578/32 622/577/32
f 625/578/32 626/579/32 622/577/32
f 629/580/10 628/581/10 627/582/10
f 630/583/10 627/582/10 628/581/10
f 633/584/5 632/585/5 631/586/5
f 634/587/5 631/586/5 632/585/5
f 637/588/31 636/589/31 635/590/31
f 638/591/31 635/590/31 636/589/31
f 641/592/46 640/593/46 639/594/46
f 642/595/46 639/594/46 640/593/46
f 645/596/13 644/597/13 643/598/13
f 646/599/13 643/598/13 644/597/13
f 649/600/5 648/601/5 647/602/5
f 650/603/5 647/602/5 648/601/5
f 653/604/32 652/605/32 651/606/32
f 654/607/32 651/606/32 652/605/32
f 657/608/10 656/609/10 655/610/10
f 658/611/10 655/610/10 656/609/10
f 661/612/31 660/613/31 659/614/31
f 662/615/31 659/614/31 660/613/31
f 665/616/47 664/617/47 663/618/5
f 666/619/5 663/618/5 664/617/47
f 663/618/5 666/619/5 667/620/48
f 668/621/48 667/620/48 666/619/5
f 671/622/49 670/623/50 669/624/28
f 672/625/28 669/624/28 670/623/50
f 669/624/28 672/625/28 673/626/31
f 674/627/31 673/626/31 672/625/28
f 673/626/31 674/627/31 675/628/30
f 676/629/30 675/628/30 674/627/31
f 675/628/30 676/629/30 677/630/51
f 678/631/52 677/630/51 676/629/30
f 681/632/53 680/633/53 679/634/10
f 682/635/10 679/634/10 680/633/53
f 679/634/10 682/635/10 683/636/54
f 684/637/54 683/636/54 682/635/10
f 687/638/55 686/639/56 685/640/29
f 688/641/29 685/640/29 686/639/56
f 685/640/29 688/641/29 689/642/32
f 690/643/32 689/642/32 688/641/29
f 689/642/32 690/643/32 691/644/27
f 692/645/27 691/644/27 690/643/32
f 691/644/27 692/645/27 693/646/57
f 694/647/57 693/646/57 692/645/27
f 697/648/13 696/649/13 695/650/13
f 698/651/13 695/650/13 696/649/13
f 701/652/5 700/653/5 699/654/5
f 702/655/5 699/654/5 700/653/5
f 705/656/32 704/657/32 703/658/32
f 706/659/32 703/658/32 704/657/32
f 709/660/10 708/661/10 707/662/10
f 710/663/10 707/662/10 708/661/10
f 713/664/31 712/665/31 711/666/31
f 714/667/31 711/666/31 712/665/31
f 717/668/13 716/669/13 715/670/13
f 718/671/13 715/670/13 716/669/13
f 721/610/10 720/608/10 719/611/10
f 722/609/10 719/611/10 720/608/10
f 725/672/32 724/673/32 723/674/32
f 726/675/32 723/674/32 724/673/32
f 729/676/5 728/677/5 727/678/5
f 730/679/5 727/678/5 728/677/5
f 733/680/31 732/681/31 731/682/31
f 734/683/31 731/682/31 732/681/31
f 737/633/53 736/635/10 735/632/53
f 738/634/10 735/632/53 736/635/10
f 736/635/10 739/637/54 738/634/10
f 740/636/54 738/634/10 739/637/54
f 743/684/52 742/685/30 741/686/52
f 744/687/30 741/686/52 742/685/30
f 742/685/30 745/688/31 744/687/30
f 746/689/31 744/687/30 745/688/31
f 745/688/31 747/690/28 746/689/31
f 748/691/28 746/689/31 747/690/28
f 747/690/28 749/692/49 748/691/28
f 750/693/49 748/691/28 749/692/49
f 753/694/47 752/695/5 751/696/47
f 754/697/5 751/696/47 752/695/5
f 752/695/5 755/698/48 754/697/5
f 756/699/48 754/697/5 755/698/48
f 759/700/57 758/701/27 757/702/57
f 760/703/27 757/702/57 758/701/27
f 758/701/27 761/704/32 760/703/27
f 762/705/32 760/703/27 761/704/32
f 761/704/32 763/706/29 762/705/32
f 764/707/29 762/705/32 763/706/29
f 763/706/29 765/708/58 764/707/29
f 766/709/55 764/707/29 765/708/58
f 769/710/13 768/711/13 767/712/13
f 770/713/13 767/712/13 768/711/13
f 773/714/10 772/715/10 771/716/10
f 774/717/10 771/716/10 772/715/10
f 777/718/32 776/719/32 775/720/32
f 778/721/32 775/720/32 776/719/32
f 781/722/5 780/723/5 779/724/5
f 782/725/5 779/724/5 780/723/5
f 785/726/59 784/727/59 783/728/59
f 786/729/31 783/728/59 784/727/59
f 789/730/10 788/731/10 787/732/10
f 790/733/10 787/732/10 788/731/10
f 793/734/13 792/735/13 791/736/13
f 794/737/13 791/736/13 792/735/13
f 797/738/32 796/739/32 795/740/32
f 798/741/32 795/740/32 796/739/32
f 801/742/31 800/743/31 799/744/31
f 802/745/31 799/744/31 800/743/31
f 805/746/5 804/747/5 803/748/5
f 806/749/5 803/748/5 804/747/5
f 809/750/13 808/751/13 807/752/13
f 810/753/13 807/752/13 808/751/13
f 813/754/10 812/755/10 811/756/10
f 814/757/10 811/756/10 812/755/10
f 817/758/31 816/759/31 815/760/31
f 818/761/31 815/760/31 816/759/31
f 821/762/5 820/763/5 819/764/5
f 822/765/5 819/764/5 820/763/5
f 825/766/32 824/767/32 823/768/32
f 826/769/32 823/768/32 824/767/32
f 829/770/13 828/771/13 827/772/13
f 830/773/13 827/772/13 828/771/13
f 833/774/10 832/775/10 831/776/10
f 834/777/10 831/776/10 832/775/10
f 837/778/31 836/779/31 835/780/31
f 838/781/31 835/780/31 836/779/31
f 841/782/5 840/783/5 839/784/5
f 842/785/5 839/784/5 840/783/5
f 845/786/32 844/787/32 843/788/32
f 846/789/32 843/788/32 844/787/32
f 849/790/13 848/791/13 847/792/13
f 850/793/13 847/792/13 848/791/13
f 853/794/31 852/795/31 851/796/31
f 854/797/31 851/796/31 852/795/31
f 857/798/10 856/799/10 855/800/10
f 858/801/10 855/800/10 856/799/10
f 861/802/5 860/803/5 859/804/5
f 862/805/5 859/804/5 860/803/5
f 865/806/14 864/807/14 863/808/14
f 866/809/14 863/808/14 864/807/14
f 869/810/13 868/811/13 867/812/13
f 870/813/13 867/812/13 868/811/13
f 867/812/13 870/813/13 871/814/13
f 872/815/13 871/814/13 870/813/13
f 871/814/13 872/815/13 873/816/13
f 874/817/13 873/816/13 872/815/13
f 873/816/13 874/817/13 875/818/13
f 876/819/13 875/818/13 874/817/13
f 875/818/13 876/819/13 877/820/13
f 878/821/13 877/820/13 876/819/13
f 877/820/13 878/821/13 879/822/13
f 880/823/13 879/822/13 878/821/13
f 879/822/13 880/823/13 881/824/13
f 882/825/13 881/824/13 880/823/13
f 881/824/13 882/825/13 883/826/13
f 884/827/13 883/826/13 882/825/13
f 883/826/13 884/827/13 885/828/13
f 886/829/13 885/828/13 884/827/13
f 885/828/13 886/829/13 887/830/13
f 888/831/13 887/830/13 886/829/13
f 887/830/13 888/831/13 889/832/13
f 890/833/13 889/832/13 888/831/13
f 889/832/13 890/833/13 891/834/13
f 892/835/13 891/834/13 890/833/13
f 891/834/13 892/835/13 893/836/13
f 894/837/13 893/836/13 892/835/13
f 893/836/13 894/837/13 895/838/13
f 896/839/13 895/838/13 894/837/13
f 895/838/13 896/839/13 897/840/13
f 898/841/13 897/840/13 896/839/13
f 897/840/13 898/841/13 899/842/13
f 900/843/13 899/842/13 898/841/13
f 899/842/13 900/843/13 901/844/13
f 902/845/13 901/844/13 900/843/13
f 901/844/13 902/845/13 903/846/13
f 904/847/13 903/846/13 902/845/13
f 903/846/13 904/847/13 905/848/13
f 906/849/13 905/848/13 904/847/13
f 905/848/13 906/849/13 907/850/13
f 908/851/13 907/850/13 906/849/13
f 907/850/13 908/851/13 909/852/13
f 910/853/13 909/852/13 908/851/13
f 909/852/13 910/853/13 911/854/13
f 912/855/13 911/854/13 910/853/13
f 911/854/13 912/855/13 913/856/13
f 914/857/13 913/856/13 912/855/13
f 913/856/13 914/857/13 915/858/13
f 916/859/13 915/858/13 914/857/13
f 915/858/13 916/859/13 917/860/13
f 918/861/13 917/860/13 916/859/13
f 917/860/13 918/861/13 919/862/13
f 920/863/13 919/862/13 918/861/13
f 923/864/10 922/865/10 921/866/60
f 924/867/60 921/866/60 922/865/10
f 921/866/60 924/867/60 925/868/61
f 926/869/61 925/868/61 924/867/60
f 925/868/61 926/869/61 927/870/62
f 928/871/62 927/870/62 926/869/61
f 927/870/62 928/871/62 929/872/63
f 930/873/63 929/872/63 928/871/62
f 929/872/63 930/873/63 931/874/64
f 932/875/64 931/874/64 930/873/63
f 931/874/64 932/875/64 933/876/65
f 934/877/65 933/876/65 932/875/64
f 933/876/65 934/877/65 935/878/66
f 936/879/66 935/878/66 934/877/65
f 935/878/66 936/879/66 937/880/67
f 938/881/67 937/880/67 936/879/66
f 937/880/67 938/881/67 939/882/68
f 940/883/68 939/882/68 938/881/67
f 939/882/68 940/883/68 941/884/69
f 942/885/69 941/884/69 940/883/68
f 941/884/69 942/885/69 943/886/70
f 944/887/70 943/886/70 942/885/69
f 947/888/14 946/889/14 945/890/14
f 948/891/14 945/890/14 946/889/14
f 945/890/14 948/891/14 949/892/14
f 950/893/14 949/892/14 948/891/14
f 949/892/14 950/893/14 951/894/14
f 952/895/14 951/894/14 950/893/14
f 951/894/14 952/895/14 953/896/14
f 954/897/14 953/896/14 952/895/14
f 953/896/14 954/897/14 955/898/14
f 956/899/14 955/898/14 954/897/14
f 955/898/14 956/899/14 957/900/14
f 958/901/14 957/900/14 956/899/14
f 957/900/14 958/901/14 959/902/14
f 960/903/14 959/902/14 958/901/14
f 959/902/14 960/903/14 961/904/14
f 962/905/14 961/904/14 960/903/14
f 961/904/14 962/905/14 963/906/14
f 964/907/14 963/906/14 962/905/14
f 963/906/14 964/907/14 965/908/14
f 966/909/14 965/908/14 964/907/14
f 965/908/14 966/909/14 967/910/14
f 968/911/14 967/910/14 966/909/14
f 967/910/14 968/911/14 969/912/14
f 970/913/14 969/912/14 968/911/14
f 969/912/14 970/913/14 971/914/14
f 972/915/14 971/914/14 970/913/14
f 971/914/14 972/915/14 973/916/14
f 974/917/14 973/916/14 972/915/14
f 973/916/14 974/917/14 975/918/14
f 976/919/14 975/918/14 974/917/14
f 975/918/14 976/919/14 977/920/14
f 978/921/14 977/920/14 976/919/14
f 977/920/14 978/921/14 979/922/14
f 980/923/14 979/922/14 978/921/14
f 979/922/14 980/923/14 981/924/14
f 982/925/14 981/924/14 980/923/14
f 981/924/14 982/925/14 983/926/14
f 984/927/14 983/926/14 982/925/14
f 983/926/14 984/927/14 985/928/14
f 986/929/14 985/928/14 984/927/14
f 985/928/14 986/929/14 987/930/14
f 988/931/14 987/930/14 986/929/14
f 987/930/14 988/931/14 989/932/14
f 990/933/14 989/932/14 988/931/14
f 989/932/14 990/933/14 991/934/14
f 992/935/14 991/934/14 990/933/14
f 991/934/14 992/935/14 993/936/14
f 994/937/14 993/936/14 992/935/14
f 993/936/14 994/937/14 995/938/14
f 996/939/14 995/938/14 994/937/14
f 995/938/14 996/939/14 997/940/14
f 998/941/14 997/940/14 996/939/14
f 1001/942/5 1000/943/5 999/944/71
f 1002/945/71 999/944/71 1000/943/5
f 999/944/71 1002/945/71 1003/946/72
f 1004/947/72 1003/946/72 1002/945/71
f 1003/946/72 1004/947/72 1005/948/73
f 1006/949/73 1005/948/73 1004/947/72
f 1005/948/73 1006/949/73 1007/950/74
f 1008/951/74 1007/950/74 1006/949/73
f 1007/950/74 1008/951/74 1009/952/75
f 1010/953/75 1009/952/75 1008/951/74
f 1009/952/75 1010/953/75 1011/954/76
f 1012/955/76 1011/954/76 1010/953/75
f 1011/954/76 1012/955/76 1013/956/77
f 1014/957/77 1013/956/77 1012/955/76
f 1013/956/77 1014/957/77 1015/958/78
f 1016/959/78 1015/958/78 1014/957/77
f 1015/958/78 1016/959/78 1017/960/79
f 1018/961/79 1017/960/79 1016/959/78
f 1017/960/79 1018/961/79 1019/962/80
f 1020/963/80 1019/962/80 1018/961/79
f 1019/962/80 1020/963/80 1021/964/81
f 1022/965/81 1021/964/81 1020/963/80
f 1025/966/82 1024/967/82 1023/968/83
f 1026/969/83 1023/968/83 1024/967/82
f 1023/968/83 1026/969/83 1027/970/32
f 1028/971/32 1027/970/32 1026/969/83
f 1027/970/32 1028/971/32 1029/972/84
f 1030/973/84 1029/972/84 1028/971/32
f 1029/972/84 1030/973/84 1031/974/85
f 1032/975/85 1031/974/85 1030/973/84
f 1035/976/86 1034/977/86 1033/978/87
f 1036/979/87 1033/978/87 1034/977/86
f 1033/978/87 1036/979/87 1037/980/31
f 1038/981/31 1037/980/31 1036/979/87
f 1037/980/31 1038/981/31 1039/982/88
f 1040/983/88 1039/982/88 1038/981/31
f 1039/982/88 1040/983/88 1041/984/89
f 1042/985/90 1041/984/89 1040/983/88
f 1045/986/91 1044/987/91 1043/988/92
f 1046/989/92 1043/988/92 1044/987/91
f 1043/988/92 1046/989/92 1047/990/93
f 1048/991/93 1047/990/93 1046/989/92
f 1047/990/93 1048/991/93 1049/992/94
f 1050/993/94 1049/992/94 1048/991/93
f 1049/992/94 1050/993/94 1051/994/95
f 1052/995/95 1051/994/95 1050/993/94
f 1051/994/95 1052/995/95 1053/996/96
f 1054/997/96 1053/996/96 1052/995/95
f 1053/996/96 1054/997/96 1055/998/97
f 1056/999/97 1055/998/97 1054/997/96
f 1055/998/97 1056/999/97 1057/1000/98
f 1058/1001/98 1057/1000/98 1056/999/97
f 1057/1000/98 1058/1001/98 1059/1002/99
f 1060/1003/99 1059/1002/99 1058/1001/98
f 1059/1002/99 1060/1003/99 1061/1004/100
f 1062/1005/100 1061/1004/100 1060/1003/99
f 1061/1004/100 1062/1005/100 1063/1006/101
f 1064/1007/101 1063/1006/101 1062/1005/100
f 1063/1006/101 1064/1007/101 1065/1008/5
f 1066/1009/5 1065/1008/5 1064/1007/101
f 1069/1010/102 1068/1011/102 1067/1012/103
f 1070/1013/103 1067/1012/103 1068/1011/102
f 1067/1012/103 1070/1013/103 1071/1014/104
f 1072/1015/104 1071/1014/104 1070/1013/103
f 1071/1014/104 1072/1015/104 1073/1016/105
f 1074/1017/105 1073/1016/105 1072/1015/104
f 1073/1016/105 1074/1017/105 1075/1018/106
f 1076/1019/106 1075/1018/106 1074/1017/105
f 1075/1018/106 1076/1019/106 1077/1020/107
f 1078/1021/107 1077/1020/107 1076/1019/106
f 1077/1020/107 1078/1021/107 1079/1022/108
f 1080/1023/108 1079/1022/108 1078/1021/107
f 1079/1022/108 1080/1023/108 1081/1024/109
f 1082/1025/109 1081/1024/109 1080/1023/108
f 1081/1024/109 1082/1025/109 1083/1026/110
f 1084/1027/110 1083/1026/110 1082/1025/109
f 1083/1026/110 1084/1027/110 1085/1028/111
f 1086/1029/111 1085/1028/111 1084/1027/110
f 1085/1028/111 1086/1029/111 1087/1030/112
f 1088/1031/112 1087/1030/112 1086/1029/111
f 1087/1030/112 1088/1031/112 1089/1032/10
f 1090/1033/10 1089/1032/10 1088/1031/112
f 1093/1034/113 1092/1035/113 1091/1036/113
f 1094/1037/113 1091/1036/113 1092/1035/113
f 1097/1038/5 1096/1039/5 1095/1040/5
f 1098/1041/5 1095/1040/5 1096/1039/5
f 1101/1042/32 1100/1043/32 1099/1044/32
f 1102/1045/32 1099/1044/32 1100/1043/32
f 1102/1045/32 1103/1046/32 1099/1044/32
f 1104/1047/32 1099/1044/32 1103/1046/32
f 1107/1048/31 1106/1049/31 1105/1050/31
f 1108/1051/31 1105/1050/31 1106/1049/31
f 1108/1051/31 1109/1052/31 1105/1050/31
f 1110/1053/31 1105/1050/31 1109/1052/31
f 1113/1054/114 1112/1035/114 1111/1055/114
f 1114/1034/114 1111/1055/114 1112/1035/114
f 1117/1056/10 1116/1057/10 1115/1058/10
f 1118/1059/10 1115/1058/10 1116/1057/10
f 1121/1060/13 1120/1061/13 1119/1062/13
f 1122/1063/13 1119/1062/13 1120/1061/13
f 1125/1064/10 1124/1065/10 1123/1066/10
f 1126/1067/10 1123/1066/10 1124/1065/10
f 1129/1068/31 1128/1069/31 1127/1070/31
f 1130/1071/31 1127/1070/31 1128/1069/31
f 1133/1072/5 1132/1073/5 1131/1074/5
f 1134/1075/5 1131/1074/5 1132/1073/5
f 1137/1076/32 1136/1077/32 1135/1078/32
f 1138/1079/32 1135/1078/32 1136/1077/32
f 1141/1080/115 1140/1081/116 1139/1082/117
f 1142/1083/117 1139/1082/117 1140/1081/116
f 1139/1082/117 1142/1083/117 1143/1084/118
f 1144/1085/119 1143/1084/118 1142/1083/117
f 1147/1086/120 1146/1087/121 1145/1088/122
f 1148/1089/123 1145/1088/122 1146/1087/121
f 1151/1090/121 1150/1091/120 1149/1092/124
f 1152/1093/125 1149/1092/124 1150/1091/120
f 1149/1092/124 1152/1093/125 1153/1094/126
f 1154/1095/126 1153/1094/126 1152/1093/125
f 1157/1096/127 1156/1097/127 1155/1098/126
f 1158/1099/126 1155/1098/126 1156/1097/127
f 1161/1100/128 1160/1101/128 1159/1102/128
f 1160/1101/128 1162/1103/128 1159/1102/128
f 1159/1102/128 1162/1103/128 1163/1104/128
f 1164/1105/128 1162/1103/128 1160/1101/128
f 1167/1106/129 1166/1107/130 1165/1108/131
f 1168/1109/132 1165/1108/131 1166/1107/130
f 1165/1108/131 1168/1109/132 1169/1110/133
f 1170/1111/134 1169/1110/133 1168/1109/132
f 1173/1112/135 1172/1113/136 1171/1114/137
f 1174/1115/138 1171/1114/137 1172/1113/136
f 1177/1116/139 1176/1117/140 1175/1118/141
f 1178/1119/142 1175/1118/141 1176/1117/140
f 1175/1118/141 1178/1119/142 1179/1120/143
f 1180/1121/144 1179/1120/143 1178/1119/142
f 1183/1122/145 1182/1123/134 1181/1124/144
f 1184/1125/143 1181/1124/144 1182/1123/134
f 1187/1126/13 1186/1127/13 1185/1128/13
f 1185/1128/13 1186/1127/13 1188/1129/13
f 1189/1130/13 1186/1127/13 1187/1126/13
f 1188/1129/13 1186/1127/13 1190/1131/13
f 1191/1132/13 1186/1127/13 1189/1130/13
f 1190/1131/13 1186/1127/13 1192/1133/13
f 1193/1134/13 1186/1127/13 1191/1132/13
f 1192/1133/13 1186/1127/13 1194/1135/13
f 1195/1136/13 1186/1127/13 1193/1134/13
f 1194/1135/13 1186/1127/13 1196/1137/13
f 1197/1138/13 1186/1127/13 1195/1136/13
f 1196/1137/13 1186/1127/13 1197/1138/13
f 1200/1139/13 1199/1140/13 1198/1141/13
f 1200/1139/13 1198/1141/13 1201/1142/13
f 1200/1139/13 1202/1143/13 1199/1140/13
f 1200/1139/13 1201/1142/13 1203/1144/13
f 1200/1139/13 1204/1145/13 1202/1143/13
f 1200/1139/13 1203/1144/13 1205/1146/13
f 1200/1139/13 1206/1147/13 1204/1145/13
f 1200/1139/13 1205/1146/13 1207/1148/13
f 1200/1139/13 1208/1149/13 1206/1147/13
f 1200/1139/13 1207/1148/13 1209/1150/13
f 1200/1139/13 1210/1151/13 1208/1149/13
f 1200/1139/13 1209/1150/13 1210/1151/13
