# Blender 5.1.0
# www.blender.org
mtllib Bsh_Hull_Stern_Dredn_AD1_002_3.mtl
o Bsh_Hull_Stern_Dredn_AD1_002_3
v 0.000006 -89.999695 5.099132
v -9.000096 -95.999695 5.099141
v -10.156640 -89.999702 5.099145
v -10.957975 -83.999695 5.099149
v 0.000004 -95.999695 5.099136
v -7.437133 -101.999695 5.099141
v 0.000002 -101.999725 5.099140
v -5.228673 -107.999695 5.099140
v 9.000104 -95.999702 5.099135
v 7.437137 -101.999710 5.099135
v 10.156652 -89.999710 5.099138
v 5.228671 -107.999695 5.099137
v 10.957992 -83.999702 5.099142
v 0.000008 -83.999687 5.099134
v 0.000011 -77.999695 5.099134
v -11.566704 -77.999702 5.099150
v 0.000013 -71.999702 5.099134
v 11.566727 -77.999718 5.099142
v -12.048507 -71.999695 5.099151
v 12.048533 -71.999710 5.099143
v -12.384453 -65.999710 5.099153
v 12.384484 -65.999725 5.099144
v 0.000016 -65.999710 5.099141
v -12.384467 -59.999710 5.099139
v 12.384502 -59.999725 5.099131
v 0.000018 -59.999718 5.099135
v -0.000001 -107.999695 5.099140
v -0.000003 -112.485962 5.099139
v -3.199994 -112.485931 5.099149
v 3.199989 -112.485931 5.099147
v -2.396250 -113.998352 5.099153
v -0.000003 -113.998352 5.099157
v 2.396244 -113.998352 5.099152
v -1.914400 -114.751221 5.099154
v 1.914393 -114.751221 5.099153
v -1.082358 -115.364334 5.099155
v 1.082350 -115.364349 5.099154
v -0.000003 -115.579620 5.099157
v -12.384475 -26.970472 5.099125
v -12.384480 -27.661894 5.099124
v 12.384482 -26.970472 5.099125
v 12.384489 -27.661894 5.099124
v -12.384472 -19.999949 8.022918
v 0.000005 -19.999949 8.022923
v -12.384471 -23.970518 8.022918
v -12.384475 -26.970507 8.022913
v -12.276270 -27.514498 8.022914
v -11.968104 -27.975695 8.022915
v -10.260736 -29.970499 8.022910
v -10.260740 -35.970497 8.022907
v -10.152540 -36.514496 8.022908
v -9.844377 -36.975685 8.022908
v -8.137007 -38.970490 8.022905
v 0.000005 -49.999802 8.022907
v -8.137014 -44.970490 8.022902
v -8.028810 -45.514481 8.022904
v -7.720644 -45.975670 8.022902
v -6.013275 -47.970482 8.022893
v -5.228683 -48.887146 8.022906
v -5.228683 -49.999802 8.022907
v 8.137016 -38.970490 8.022905
v 9.844384 -36.975685 8.022908
v 10.152550 -36.514488 8.022908
v 8.137023 -44.970490 8.022902
v 10.260750 -35.970497 8.022907
v 8.028818 -45.514481 8.022904
v 10.260745 -29.970499 8.022910
v 7.720654 -45.975670 8.022902
v 6.013285 -47.970482 8.022893
v 5.228693 -48.887146 8.022906
v 5.228694 -49.999802 8.022907
v 11.968114 -27.975695 8.022915
v 12.276278 -27.514498 8.022914
v 12.384482 -26.970507 8.022913
v 12.384480 -23.970518 8.022918
v 12.384480 -19.999949 8.022918
v -12.276271 -27.514502 5.099146
v -12.384478 -29.970522 5.099113
v -11.968122 -27.975710 5.099140
v -10.260743 -29.970495 5.099144
v -12.384481 -38.970520 5.099112
v -10.260743 -35.970490 5.099137
v -10.152530 -36.514488 5.099140
v -9.844381 -36.975693 5.099137
v -8.137008 -38.970490 5.099137
v -8.137009 -44.970490 5.099129
v -12.384480 -49.999817 5.099112
v -8.028800 -45.514481 5.099133
v -7.720650 -45.975693 5.099130
v -6.013275 -47.970490 5.099121
v -5.228679 -48.887154 5.099142
v -5.228681 -49.999802 5.099143
v 12.276279 -27.514502 5.099146
v 12.384487 -29.970522 5.099113
v 11.968131 -27.975710 5.099140
v 10.260752 -29.970495 5.099144
v 12.384490 -38.970520 5.099112
v 10.260752 -35.970490 5.099137
v 10.152539 -36.514488 5.099140
v 9.844390 -36.975693 5.099137
v 8.137017 -38.970490 5.099137
v 8.137017 -44.970490 5.099129
v 12.384489 -49.999817 5.099112
v 8.028809 -45.514481 5.099133
v 7.720661 -45.975693 5.099130
v 6.013285 -47.970490 5.099121
v 5.228689 -48.887154 5.099142
v 5.228691 -49.999802 5.099143
v -5.228701 -49.999786 5.099150
v -12.384514 -59.999748 5.099135
v -12.384501 -49.999771 5.099134
v -5.228709 -56.763870 5.099152
v -3.000016 -58.859612 5.099154
v 2.999973 -58.859619 5.099154
v 12.384511 -59.999756 5.099145
v 5.228714 -56.763878 5.099159
v 5.228712 -49.999794 5.099154
v 12.384505 -49.999786 5.099143
v 5.228711 -56.763885 8.022917
v 0.000003 -49.999802 8.022923
v 5.228715 -49.999802 8.022914
v -5.228709 -49.999802 8.022914
v -5.228712 -56.763878 8.022916
v -3.000020 -58.859619 8.022920
v 2.999971 -58.859627 8.022916
v 1.787478 -59.999775 8.022918
v -1.787529 -59.999771 8.022919
vn -0.0000 -0.0000 1.0000
vn -0.0002 -0.0000 1.0000
vn 0.0002 -0.0000 1.0000
vt 0.642898 0.288183
vt 0.626609 0.245930
vt 0.499847 0.288183
vt 0.654184 0.330437
vt 0.499847 0.245930
vt 0.604595 0.203676
vt 0.499847 0.203676
vt 0.573490 0.161423
vt 0.373085 0.245930
vt 0.395098 0.203676
vt 0.356795 0.288183
vt 0.426203 0.161423
vt 0.345509 0.330437
vt 0.499847 0.330437
vt 0.499847 0.372690
vt 0.662758 0.372690
vt 0.499846 0.414944
vt 0.336935 0.372690
vt 0.669544 0.414944
vt 0.330149 0.414944
vt 0.674276 0.457197
vt 0.325417 0.457197
vt 0.499846 0.457197
vt 0.674276 0.499451
vt 0.325417 0.499451
vt 0.499846 0.499451
vt 0.499847 0.161423
vt 0.499847 0.129829
vt 0.544917 0.129829
vt 0.454776 0.129829
vt 0.533597 0.119179
vt 0.499847 0.119179
vt 0.466097 0.119179
vt 0.526810 0.113877
vt 0.472883 0.113877
vt 0.515091 0.109559
vt 0.484602 0.109559
vt 0.499847 0.108043
vt 0.674276 0.753177
vt 0.499847 0.781139
vt 0.674276 0.781139
vt 0.674276 0.732051
vt 0.672752 0.728220
vt 0.668411 0.724972
vt 0.644364 0.710924
vt 0.644364 0.668670
vt 0.642840 0.664840
vt 0.638500 0.661592
vt 0.614452 0.647544
vt 0.499847 0.569873
vt 0.614452 0.605290
vt 0.612929 0.601459
vt 0.608588 0.598212
vt 0.584541 0.584164
vt 0.573490 0.577708
vt 0.573490 0.569873
vt 0.385241 0.647544
vt 0.361193 0.661592
vt 0.356853 0.664840
vt 0.385241 0.605290
vt 0.355329 0.668670
vt 0.386765 0.601459
vt 0.355329 0.710924
vt 0.391105 0.598212
vt 0.415153 0.584164
vt 0.426203 0.577708
vt 0.426203 0.569873
vt 0.331282 0.724972
vt 0.326941 0.728220
vt 0.325417 0.732051
vt 0.325417 0.753177
vt 0.325417 0.781139
vt 0.674276 0.732051
vt 0.674276 0.727182
vt 0.672752 0.728220
vt 0.674276 0.710924
vt 0.668412 0.724972
vt 0.644364 0.710924
vt 0.674276 0.647544
vt 0.644364 0.668671
vt 0.642840 0.664840
vt 0.638500 0.661592
vt 0.614452 0.605290
vt 0.674276 0.569872
vt 0.612928 0.601459
vt 0.608588 0.598211
vt 0.584541 0.584163
vt 0.573490 0.577708
vt 0.325417 0.727182
vt 0.325417 0.732051
vt 0.326941 0.728220
vt 0.325417 0.710924
vt 0.331281 0.724972
vt 0.355329 0.710924
vt 0.325417 0.647544
vt 0.355329 0.668671
vt 0.356853 0.664840
vt 0.361193 0.661592
vt 0.385241 0.605290
vt 0.325417 0.569872
vt 0.386765 0.601459
vt 0.391105 0.598211
vt 0.415153 0.584163
vt 0.426203 0.577708
vt 0.426203 0.569873
vt 0.674276 0.569873
vt 0.674276 0.499450
vt 0.573490 0.569873
vt 0.573490 0.522238
vt 0.542100 0.507480
vt 0.457594 0.507479
vt 0.325417 0.499450
vt 0.426203 0.522238
vt 0.426203 0.569873
vt 0.325417 0.569873
vt 0.426203 0.569873
vt 0.499847 0.569873
vt 0.426203 0.522238
vt 0.573490 0.569873
vt 0.573491 0.522238
vt 0.542100 0.507479
vt 0.457594 0.507479
vt 0.474671 0.499450
vt 0.525023 0.499450
s 1
g Bsh_Hull_Stern_Dredn_AD1_002_3_wood_deck_1
usemtl wood_deck_1
f 3/1/1 2/2/1 1/3/1
f 3/1/1 1/3/1 4/4/1
f 5/5/1 1/3/1 2/2/1
f 2/2/1 6/6/1 5/5/1
f 7/7/1 5/5/1 6/6/1
f 6/6/1 8/8/1 7/7/1
f 5/5/1 9/9/1 1/3/1
f 9/9/1 5/5/1 10/10/1
f 7/7/1 10/10/1 5/5/1
f 11/11/1 1/3/1 9/9/1
f 10/10/1 7/7/1 12/12/1
f 11/11/1 13/13/1 1/3/1
f 14/14/1 4/4/1 1/3/1
f 14/14/1 1/3/1 13/13/1
f 14/14/1 15/15/1 4/4/1
f 14/14/1 13/13/1 15/15/1
f 16/16/1 4/4/1 15/15/1
f 15/15/1 17/17/1 16/16/1
f 18/18/1 15/15/1 13/13/1
f 15/15/1 18/18/1 17/17/1
f 19/19/1 16/16/1 17/17/1
f 20/20/1 17/17/1 18/18/1
f 19/19/1 17/17/1 21/21/1
f 20/20/1 22/22/1 17/17/1
f 23/23/1 21/21/1 17/17/1
f 23/23/1 17/17/1 22/22/1
f 21/21/1 23/23/1 24/24/1
f 22/22/1 25/25/1 23/23/1
f 26/26/1 24/24/1 23/23/1
f 26/26/1 23/23/1 25/25/1
f 27/27/1 7/7/1 8/8/1
f 27/27/1 8/8/1 28/28/1
f 27/27/1 12/12/1 7/7/1
f 27/27/1 28/28/1 12/12/1
f 29/29/1 28/28/1 8/8/1
f 30/30/1 12/12/1 28/28/1
f 29/29/1 31/31/1 28/28/1
f 32/32/1 28/28/1 31/31/1
f 30/30/1 28/28/1 33/33/1
f 32/32/1 33/33/1 28/28/1
f 34/34/1 32/32/1 31/31/1
f 32/32/1 35/35/1 33/33/1
f 36/36/1 32/32/1 34/34/1
f 32/32/1 37/37/1 35/35/1
f 38/38/1 32/32/1 36/36/1
f 32/32/1 38/38/1 37/37/1
f 45/39/1 44/40/1 43/41/1
f 44/40/1 45/39/1 46/42/1
f 44/40/1 46/42/1 47/43/1
f 48/44/1 44/40/1 47/43/1
f 49/45/1 44/40/1 48/44/1
f 44/40/1 49/45/1 50/46/1
f 44/40/1 50/46/1 51/47/1
f 44/40/1 51/47/1 52/48/1
f 44/40/1 52/48/1 53/49/1
f 54/50/1 44/40/1 53/49/1
f 54/50/1 53/49/1 55/51/1
f 54/50/1 55/51/1 56/52/1
f 54/50/1 56/52/1 57/53/1
f 54/50/1 57/53/1 58/54/1
f 59/55/1 54/50/1 58/54/1
f 60/56/1 54/50/1 59/55/1
f 44/40/1 54/50/1 61/57/1
f 62/58/1 44/40/1 61/57/1
f 63/59/1 44/40/1 62/58/1
f 61/57/1 54/50/1 64/60/1
f 65/61/1 44/40/1 63/59/1
f 64/60/1 54/50/1 66/62/1
f 67/63/1 44/40/1 65/61/1
f 66/62/1 54/50/1 68/64/1
f 68/64/1 54/50/1 69/65/1
f 54/50/1 70/66/1 69/65/1
f 54/50/1 71/67/1 70/66/1
f 44/40/1 67/63/1 72/68/1
f 44/40/1 72/68/1 73/69/1
f 74/70/1 44/40/1 73/69/1
f 75/71/1 44/40/1 74/70/1
f 44/40/1 75/71/1 76/72/1
f 39/73/2 40/74/2 77/75/2
f 40/74/2 78/76/1 77/75/2
f 79/77/1 77/75/2 78/76/1
f 80/78/1 79/77/1 78/76/1
f 78/76/1 81/79/1 80/78/1
f 82/80/1 80/78/1 81/79/1
f 83/81/1 82/80/1 81/79/1
f 84/82/1 83/81/1 81/79/1
f 85/49/1 84/82/1 81/79/1
f 85/49/1 81/79/1 86/83/1
f 87/84/1 86/83/1 81/79/1
f 86/83/1 87/84/1 88/85/1
f 88/85/1 87/84/1 89/86/1
f 87/84/1 90/87/1 89/86/1
f 91/88/1 90/87/1 87/84/1
f 91/88/1 87/84/1 92/56/1
f 42/89/3 41/90/3 93/91/3
f 42/89/3 93/91/3 94/92/1
f 95/93/1 94/92/1 93/91/3
f 95/93/1 96/94/1 94/92/1
f 94/92/1 96/94/1 97/95/1
f 98/96/1 97/95/1 96/94/1
f 98/96/1 99/97/1 97/95/1
f 99/97/1 100/98/1 97/95/1
f 100/98/1 101/57/1 97/95/1
f 101/57/1 102/99/1 97/95/1
f 103/100/1 97/95/1 102/99/1
f 103/100/1 102/99/1 104/101/1
f 103/100/1 104/101/1 105/102/1
f 106/103/1 103/100/1 105/102/1
f 106/103/1 107/104/1 103/100/1
f 103/100/1 107/104/1 108/105/1
f 111/106/1 110/107/1 109/108/1
f 112/109/1 109/108/1 110/107/1
f 112/109/1 110/107/1 113/110/1
f 113/110/1 110/107/1 114/111/1
f 115/112/1 114/111/1 110/107/1
f 114/111/1 115/112/1 116/113/1
f 116/113/1 115/112/1 117/114/1
f 118/115/1 117/114/1 115/112/1
f 121/116/1 120/117/1 119/118/1
f 120/117/1 122/119/1 119/118/1
f 122/119/1 123/120/1 119/118/1
f 123/120/1 124/121/1 119/118/1
f 125/122/1 124/121/1 126/123/1
f 125/122/1 119/118/1 124/121/1
f 124/121/1 127/124/1 126/123/1
