# Blender 5.1.0
# www.blender.org
mtllib Bsh_Hull_Midsection_Dredn_BC2_001_1.mtl
o Bsh_Hull_Midsection_Dredn_BC2_001_1
v -12.646033 0.000001 1.524264
v -12.646049 5.000002 2.679118
v -12.646033 0.000001 2.679112
v -12.646047 5.000002 1.524271
v -12.646030 10.000016 2.679114
v -12.646031 10.000016 1.524265
v -12.384510 10.000016 5.099120
v -12.384513 9.628149 5.099120
v -12.384508 10.000016 2.679109
v -12.384519 5.000002 2.679109
v -12.384520 3.018496 5.099120
v -12.384523 0.000001 2.679109
v -12.384523 0.000001 5.099124
v -12.384508 10.000016 2.679109
v -12.646049 5.000002 2.679118
v -12.646030 10.000016 2.679114
v -12.384519 5.000002 2.679109
v -12.646033 0.000001 2.679112
v -12.384523 0.000001 2.679109
v 12.646049 4.999999 2.679125
v 12.646032 -0.000001 1.524271
v 12.646032 -0.000001 2.679120
v 12.646049 4.999999 1.524277
v 12.646032 10.000013 2.679120
v 12.646032 10.000013 1.524271
v 12.384504 10.000014 5.099127
v 12.384509 10.000013 2.679116
v 12.384504 9.628147 5.099127
v 12.384519 5.000000 2.679116
v 12.384513 3.018494 5.099127
v 12.384522 -0.000001 2.679117
v 12.384514 -0.000001 5.099133
v 12.646049 4.999999 2.679125
v 12.384509 10.000013 2.679116
v 12.646032 10.000013 2.679120
v 12.384519 5.000000 2.679116
v 12.646032 -0.000001 2.679120
v 12.384522 -0.000001 2.679117
vn -1.0000 -0.0000 -0.0000
vn -0.9967 0.0812 -0.0000
vn -0.0000 -0.0000 1.0000
vn 1.0000 -0.0000 -0.0000
vn 0.9967 0.0812 -0.0000
vt -16.028522 0.255985
vt -16.104290 0.255985
vt -16.028522 0.238553
vt -16.104290 0.238553
vt -16.180058 0.255985
vt -16.180058 0.238553
vt -16.180058 0.255985
vt -16.174421 0.292514
vt -16.180058 0.292514
vt -16.104290 0.255985
vt -16.074263 0.292514
vt -16.028522 0.255985
vt -16.028522 0.292514
vt 0.690393 -16.180058
vt 0.690394 -16.104290
vt 0.686455 -16.180058
vt 0.686455 -16.104290
vt 0.690394 -16.028522
vt 0.686455 -16.028522
vt 17.028522 0.255985
vt 17.028522 0.238553
vt 17.104290 0.255985
vt 17.104290 0.238553
vt 17.180058 0.255985
vt 17.180058 0.238553
vt 17.174421 0.292514
vt 17.180058 0.255985
vt 17.180058 0.292514
vt 17.104290 0.255985
vt 17.074263 0.292514
vt 17.028522 0.255985
vt 17.028522 0.292514
vt 0.309513 -16.180058
vt 0.313451 -16.180058
vt 0.309513 -16.104290
vt 0.313451 -16.104290
vt 0.309513 -16.028522
vt 0.313452 -16.028522
s 1
g Bsh_Hull_Midsection_Dredn_BC2_001_1_steel_board_1
usemtl steel_board_1
f 3/1/1 2/2/1 1/3/1
f 4/4/1 1/3/1 2/2/1
f 2/2/1 5/5/1 4/4/1
f 6/6/1 4/4/1 5/5/1
f 9/7/1 8/8/1 7/9/1
f 9/7/1 10/10/1 8/8/1
f 11/11/2 8/8/1 10/10/1
f 10/10/1 12/12/1 11/11/2
f 13/13/1 11/11/2 12/12/1
f 16/14/3 15/15/3 14/16/3
f 17/17/3 14/16/3 15/15/3
f 15/15/3 18/18/3 17/17/3
f 19/19/3 17/17/3 18/18/3
f 22/20/4 21/21/4 20/22/4
f 23/23/4 20/22/4 21/21/4
f 20/22/4 23/23/4 24/24/4
f 25/25/4 24/24/4 23/23/4
f 28/26/4 27/27/4 26/28/4
f 27/27/4 28/26/4 29/29/4
f 30/30/5 29/29/4 28/26/4
f 29/29/4 30/30/5 31/31/4
f 32/32/4 31/31/4 30/30/5
f 35/33/3 34/34/3 33/35/3
f 36/36/3 33/35/3 34/34/3
f 33/35/3 36/36/3 37/37/3
f 38/38/3 37/37/3 36/36/3
