# Blender 5.1.0
# www.blender.org
mtllib Bsh_Hull_Midsection_Dredn_BF1_001_2.mtl
o Bsh_Hull_Midsection_Dredn_BF1_001_2
v -12.646026 -10.000021 -0.318308
v -12.646024 -0.000005 -0.318307
v 12.646029 -10.000017 -0.318310
v 12.646024 -0.000002 -0.318310
v -12.646031 -0.000005 1.524266
v -12.646032 -10.000021 1.524265
v 12.646032 -0.000002 1.524263
v 12.646037 -10.000017 1.524263
vn -1.0000 -0.0000 -0.0000
vn -0.9991 -0.0000 -0.0435
vn 0.9991 -0.0000 -0.0435
vn 1.0000 -0.0000 -0.0000
vt -14.597174 0.238553
vt -14.597174 0.210740
vt -14.445641 0.238553
vt -14.445641 0.210740
vt 15.445641 0.210740
vt 15.597174 0.210740
vt 15.445641 0.238553
vt 15.597174 0.238553
s 1
g Bsh_Hull_Midsection_Dredn_BF1_001_2_waterline
usemtl waterline
f 5/1/1 2/2/2 6/3/1
f 1/4/2 6/3/1 2/2/2
f 3/5/3 4/6/3 8/7/4
f 7/8/4 8/7/4 4/6/3
