# Blender 5.1.0
# www.blender.org
mtllib Bsh_Hull_Midsection_Dredn_BC2_001_5.mtl
o Bsh_Hull_Midsection_Dredn_BC2_001_5
v -0.000004 10.000013 8.022897
v -12.384515 9.628134 8.022894
v -12.384514 10.000016 8.022894
v -10.993736 4.918068 8.022895
v -11.840526 3.960726 8.022895
v -0.000005 -0.000001 8.022897
v -12.206239 3.543720 8.022894
v -12.384526 3.018501 8.022893
v -12.384521 0.000001 8.022893
v 11.840517 3.960725 8.022902
v 10.993729 4.918067 8.022902
v 12.384506 9.628132 8.022901
v 12.384506 10.000014 8.022901
v 12.206231 3.543718 8.022901
v 12.384518 3.018499 8.022899
v 12.384511 -0.000001 8.022901
v -12.206234 3.543726 5.099122
v -12.384520 3.018496 5.099120
v -12.384513 9.628149 5.099120
v -11.840521 3.960747 5.099119
v -10.995061 4.922704 5.099120
v 12.206225 3.543724 5.099129
v 12.384504 9.628147 5.099127
v 12.384513 3.018494 5.099127
v 11.840512 3.960745 5.099126
v 10.995053 4.922701 5.099127
vn -0.0000 -0.0000 1.0000
vt 0.674430 0.533818
vt 0.674430 0.531200
vt 0.500000 0.533818
vt 0.654841 0.498030
vt 0.666768 0.491288
vt 0.500000 0.463396
vt 0.671919 0.488352
vt 0.674430 0.484653
vt 0.674430 0.463396
vt 0.333232 0.491288
vt 0.345159 0.498030
vt 0.325570 0.531200
vt 0.325570 0.533818
vt 0.328081 0.488352
vt 0.325570 0.484653
vt 0.325570 0.463396
vt 0.674430 0.531200
vt 0.674430 0.484653
vt 0.671919 0.488352
vt 0.666768 0.491288
vt 0.654860 0.498063
vt 0.325570 0.484653
vt 0.325570 0.531200
vt 0.328081 0.488352
vt 0.333232 0.491288
vt 0.345140 0.498063
s 1
g Bsh_Hull_Midsection_Dredn_BC2_001_5_wood_deck_1
usemtl wood_deck_1
f 3/1/1 2/2/1 1/3/1
f 2/2/1 4/4/1 1/3/1
f 4/4/1 5/5/1 1/3/1
f 6/6/1 1/3/1 5/5/1
f 6/6/1 5/5/1 7/7/1
f 8/8/1 6/6/1 7/7/1
f 9/9/1 6/6/1 8/8/1
f 6/6/1 10/10/1 1/3/1
f 11/11/1 1/3/1 10/10/1
f 11/11/1 12/12/1 1/3/1
f 12/12/1 13/13/1 1/3/1
f 10/10/1 6/6/1 14/14/1
f 6/6/1 15/15/1 14/14/1
f 6/6/1 16/16/1 15/15/1
f 19/17/1 18/18/1 17/19/1
f 20/20/1 19/17/1 17/19/1
f 21/21/1 19/17/1 20/20/1
f 24/22/1 23/23/1 22/24/1
f 23/23/1 25/25/1 22/24/1
f 23/23/1 26/26/1 25/25/1
