# Blender 5.1.0
# www.blender.org
mtllib Bsh_Hull_Rostrum_Dredn_C_001_7.mtl
o Bsh_Hull_Rostrum_Dredn_C_001_7
v -3.550495 20.046604 5.099128
v -3.550500 12.390365 5.099136
v -10.536408 20.029720 5.099108
v -11.751059 18.211884 5.099107
v -11.885499 12.390376 5.099108
v -10.962939 20.114567 5.099107
v -11.992661 18.573483 5.099107
v -12.077502 18.999992 5.099107
v -11.389460 20.029736 5.099107
v -11.751058 19.788128 5.099107
v -11.992661 19.426537 5.099106
v -3.541953 29.046597 5.099129
v -3.546226 20.246578 5.099134
v -8.412677 29.029709 5.099114
v -9.627326 27.211872 5.099112
v -9.766038 20.246571 5.099111
v -8.839207 29.114559 5.099111
v -9.868929 27.573471 5.099110
v -9.953771 27.999985 5.099110
v -9.265728 29.029724 5.099110
v -9.627327 28.788120 5.099111
v -9.868932 28.426525 5.099110
v -3.541946 38.046581 5.099127
v -3.541950 29.246563 5.099129
v -6.288944 38.029697 5.099115
v -7.503594 36.211864 5.099114
v -7.638032 29.246563 5.099117
v -6.715475 38.114548 5.099113
v -7.745198 36.573467 5.099113
v -7.830039 36.999981 5.099112
v -7.141995 38.029720 5.099113
v -7.503596 37.788113 5.099113
v -7.745200 37.426521 5.099113
v 3.550490 20.046600 5.099134
v 10.536407 20.029716 5.099129
v 3.550494 12.390363 5.099143
v 11.751059 18.211884 5.099129
v 11.885497 12.390372 5.099131
v 10.962938 20.114567 5.099129
v 11.992660 18.573483 5.099129
v 12.077501 18.999992 5.099129
v 11.389460 20.029732 5.099128
v 11.751057 19.788124 5.099128
v 11.992661 19.426533 5.099128
v 3.541950 29.046593 5.099134
v 8.412668 29.029709 5.099128
v 3.546221 20.246578 5.099141
v 9.627317 27.211868 5.099131
v 9.766027 20.246571 5.099131
v 8.839198 29.114559 5.099129
v 9.868920 27.573471 5.099129
v 9.953762 27.999985 5.099129
v 9.265719 29.029724 5.099129
v 9.627318 28.788116 5.099130
v 9.868923 28.426525 5.099130
v 3.541944 38.046581 5.099132
v 6.288938 38.029697 5.099126
v 3.541946 29.246559 5.099134
v 7.503588 36.211864 5.099126
v 7.638024 29.246563 5.099130
v 6.715467 38.114548 5.099124
v 7.745191 36.573467 5.099125
v 7.830032 36.999977 5.099124
v 7.141989 38.029716 5.099124
v 7.503589 37.788109 5.099125
v 7.745193 37.426517 5.099125
vn -0.0000 -0.0000 1.0000
vt 0.658624 -16.332041
vt 0.553421 -16.216280
vt 0.553421 -16.332296
vt 0.676916 -16.304495
vt 0.678940 -16.216280
vt 0.665047 -16.333326
vt 0.680554 -16.309975
vt 0.681832 -16.316437
vt 0.671470 -16.332041
vt 0.676916 -16.328381
vt 0.680554 -16.322901
vt 0.626642 -16.468422
vt 0.553357 -16.335327
vt 0.553292 -16.468678
vt 0.644933 -16.440874
vt 0.647023 -16.335327
vt 0.633065 -16.469707
vt 0.648572 -16.446354
vt 0.649849 -16.452818
vt 0.639488 -16.468422
vt 0.644933 -16.464760
vt 0.648572 -16.459280
vt 0.594659 -16.604801
vt 0.553292 -16.471706
vt 0.553291 -16.605057
vt 0.612951 -16.577255
vt 0.614976 -16.471706
vt 0.601083 -16.606087
vt 0.616589 -16.582735
vt 0.617867 -16.589197
vt 0.607506 -16.604801
vt 0.612951 -16.601141
vt 0.616589 -16.595661
vt 0.446486 -16.216280
vt 0.341282 -16.332041
vt 0.446485 -16.332296
vt 0.322991 -16.304495
vt 0.320966 -16.216280
vt 0.334859 -16.333326
vt 0.319352 -16.309975
vt 0.318075 -16.316437
vt 0.328436 -16.332041
vt 0.322991 -16.328381
vt 0.319352 -16.322901
vt 0.446550 -16.335327
vt 0.373264 -16.468422
vt 0.446614 -16.468678
vt 0.354972 -16.440874
vt 0.352884 -16.335327
vt 0.366841 -16.469707
vt 0.351334 -16.446354
vt 0.350056 -16.452818
vt 0.360418 -16.468422
vt 0.354972 -16.464760
vt 0.351334 -16.459280
vt 0.446614 -16.471706
vt 0.405245 -16.604801
vt 0.446613 -16.605057
vt 0.386954 -16.577255
vt 0.384930 -16.471706
vt 0.398822 -16.606087
vt 0.383315 -16.582735
vt 0.382038 -16.589197
vt 0.392399 -16.604801
vt 0.386954 -16.601139
vt 0.383315 -16.595661
s 1
g Bsh_Hull_Rostrum_Dredn_C_001_7_steel_deck_1
usemtl steel_deck_1
f 3/1/1 2/2/1 1/3/1
f 4/4/1 2/2/1 3/1/1
f 5/5/1 2/2/1 4/4/1
f 3/1/1 6/6/1 4/4/1
f 7/7/1 4/4/1 6/6/1
f 7/7/1 6/6/1 8/8/1
f 9/9/1 8/8/1 6/6/1
f 9/9/1 10/10/1 8/8/1
f 11/11/1 8/8/1 10/10/1
f 14/12/1 13/13/1 12/14/1
f 15/15/1 13/13/1 14/12/1
f 16/16/1 13/13/1 15/15/1
f 14/12/1 17/17/1 15/15/1
f 18/18/1 15/15/1 17/17/1
f 18/18/1 17/17/1 19/19/1
f 20/20/1 19/19/1 17/17/1
f 20/20/1 21/21/1 19/19/1
f 22/22/1 19/19/1 21/21/1
f 25/23/1 24/24/1 23/25/1
f 26/26/1 24/24/1 25/23/1
f 27/27/1 24/24/1 26/26/1
f 25/23/1 28/28/1 26/26/1
f 29/29/1 26/26/1 28/28/1
f 29/29/1 28/28/1 30/30/1
f 31/31/1 30/30/1 28/28/1
f 31/31/1 32/32/1 30/30/1
f 33/33/1 30/30/1 32/32/1
f 36/34/1 35/35/1 34/36/1
f 36/34/1 37/37/1 35/35/1
f 36/34/1 38/38/1 37/37/1
f 35/35/1 37/37/1 39/39/1
f 40/40/1 39/39/1 37/37/1
f 40/40/1 41/41/1 39/39/1
f 42/42/1 39/39/1 41/41/1
f 42/42/1 41/41/1 43/43/1
f 44/44/1 43/43/1 41/41/1
f 47/45/1 46/46/1 45/47/1
f 47/45/1 48/48/1 46/46/1
f 47/45/1 49/49/1 48/48/1
f 46/46/1 48/48/1 50/50/1
f 51/51/1 50/50/1 48/48/1
f 51/51/1 52/52/1 50/50/1
f 53/53/1 50/50/1 52/52/1
f 53/53/1 52/52/1 54/54/1
f 55/55/1 54/54/1 52/52/1
f 58/56/1 57/57/1 56/58/1
f 58/56/1 59/59/1 57/57/1
f 58/56/1 60/60/1 59/59/1
f 57/57/1 59/59/1 61/61/1
f 62/62/1 61/61/1 59/59/1
f 62/62/1 63/63/1 61/61/1
f 64/64/1 61/61/1 63/63/1
f 64/64/1 63/63/1 65/65/1
f 66/66/1 65/65/1 63/63/1
