# Blender 5.1.0
# www.blender.org
mtllib Bsh_Hull_Midsection_Dredn_BC4_001_5.mtl
o Bsh_Hull_Midsection_Dredn_BC4_001_5
v 11.263626 -13.909472 5.951252
v 10.793809 -14.241033 5.951250
v 10.829676 -13.937917 5.951252
v 11.343080 -14.206000 5.951252
v 11.840540 -13.960673 5.951251
v 11.653660 -13.717132 5.951251
v 12.206253 -13.543660 5.951251
v 11.940396 -13.390161 5.951251
v 12.080185 -12.978364 5.951251
v 12.384542 -13.018434 5.951252
v 12.051743 -12.544410 5.951252
v 12.384541 -12.015336 5.951252
v 11.859398 -12.154387 5.951252
v 12.051743 -12.544410 5.951252
v 11.859398 -12.154387 5.099121
v 11.859398 -12.154387 5.951252
v 12.051744 -12.544412 5.099121
v 12.080185 -12.978364 5.951251
v 12.080185 -12.978364 5.099120
v 11.940396 -13.390161 5.951251
v 11.940393 -13.390162 5.099120
v 11.653660 -13.717134 5.099120
v 11.653660 -13.717132 5.951251
v 11.263626 -13.909471 5.099120
v 10.829676 -13.937917 5.951252
v 10.829674 -13.937917 5.099117
v 11.263626 -13.909472 5.951252
v 11.653660 -13.717132 5.951251
v 11.653660 -13.717134 5.099120
v 11.343081 -14.206006 7.425373
v 10.829676 -13.937917 7.425375
v 10.793809 -14.241033 7.425379
v 11.840548 -13.960664 7.425373
v 12.206255 -13.543653 7.425372
v 11.859400 -12.154387 7.425375
v 12.384542 -13.018434 7.425372
v 12.384542 -12.015340 7.425375
v 10.793809 -14.241033 5.951250
v 10.829676 -13.937917 7.425375
v 10.829676 -13.937917 5.951252
v 10.793809 -14.241033 7.425379
v 11.859398 -12.154387 5.951252
v 12.384542 -12.015340 7.425375
v 12.384541 -12.015336 5.951252
v 11.859400 -12.154387 7.425375
v 10.829676 -13.937917 7.425375
v 11.859401 -12.154387 7.822891
v 10.829676 -13.937924 7.822891
v 11.859400 -12.154387 7.425375
v 10.829674 -13.937917 5.099117
v 10.829676 -13.937917 5.951252
v 3.550554 -14.048126 5.099133
v 10.829676 -13.937917 7.425375
v 3.550550 -14.048129 7.822895
v 10.829676 -13.937924 7.822891
v 11.859398 -12.154387 5.099121
v 11.859399 -10.199944 5.099125
v 11.859398 -12.154387 5.951252
v 11.859404 -10.199942 7.822890
v 11.859400 -12.154387 7.425375
v 11.859401 -12.154387 7.822891
v 11.859401 -12.154387 7.822891
v 11.859404 -10.199942 7.822890
v 3.550552 -10.199942 7.822893
v 10.829676 -13.937924 7.822891
v 3.550550 -14.048129 7.822895
v 11.859399 -10.199944 5.099125
v 3.550552 -10.199942 7.822893
v 11.859404 -10.199942 7.822890
v 3.550557 -10.199942 5.099132
v 3.550552 -10.199942 7.822893
v 3.550554 -14.048126 5.099133
v 3.550550 -14.048129 7.822895
v 3.550557 -10.199942 5.099132
v -10.793764 -14.241033 5.951257
v -11.263580 -13.909472 5.951259
v -10.829629 -13.937917 5.951259
v -11.343034 -14.206000 5.951259
v -11.840494 -13.960673 5.951258
v -11.653615 -13.717132 5.951259
v -12.206207 -13.543660 5.951258
v -11.940351 -13.390161 5.951258
v -12.080139 -12.978364 5.951259
v -12.384496 -13.018432 5.951259
v -12.051695 -12.544410 5.951259
v -12.384492 -12.015334 5.951259
v -11.859351 -12.154387 5.951261
v -11.859349 -12.154387 5.099128
v -12.051695 -12.544410 5.951259
v -11.859351 -12.154387 5.951261
v -12.051695 -12.544412 5.099128
v -12.080139 -12.978364 5.951259
v -12.080138 -12.978364 5.099128
v -11.940351 -13.390161 5.951258
v -11.940348 -13.390162 5.099128
v -11.653615 -13.717132 5.099128
v -11.653615 -13.717132 5.951259
v -10.829629 -13.937917 5.951259
v -11.263580 -13.909472 5.099128
v -10.829627 -13.937917 5.099125
v -11.263580 -13.909472 5.951259
v -11.653615 -13.717132 5.951259
v -11.653615 -13.717132 5.099128
v -10.829629 -13.937919 7.425380
v -11.343035 -14.206004 7.425379
v -10.793762 -14.241033 7.425385
v -11.840502 -13.960664 7.425379
v -12.206210 -13.543653 7.425378
v -11.859352 -12.154387 7.425380
v -12.384496 -13.018432 7.425378
v -12.384495 -12.015340 7.425380
v -10.793764 -14.241033 5.951257
v -10.829629 -13.937919 7.425380
v -10.793762 -14.241033 7.425385
v -10.829629 -13.937917 5.951259
v -11.859351 -12.154387 5.951261
v -12.384495 -12.015340 7.425380
v -11.859352 -12.154387 7.425380
v -12.384492 -12.015334 5.951259
v -10.829629 -13.937919 7.425380
v -11.859353 -12.154387 7.822897
v -11.859352 -12.154387 7.425380
v -10.829629 -13.937926 7.822897
v -10.829627 -13.937917 5.099125
v -3.550509 -14.048127 5.099137
v -10.829629 -13.937917 5.951259
v -10.829629 -13.937919 7.425380
v -3.550504 -14.048130 7.822895
v -10.829629 -13.937926 7.822897
v -11.859349 -12.154387 5.099128
v -11.859351 -12.154387 5.951261
v -11.859351 -10.199944 5.099133
v -11.859356 -10.199942 7.822897
v -11.859352 -12.154387 7.425380
v -11.859353 -12.154387 7.822897
v -11.859353 -12.154387 7.822897
v -3.550505 -10.199940 7.822895
v -11.859356 -10.199942 7.822897
v -10.829629 -13.937926 7.822897
v -3.550504 -14.048130 7.822895
v -11.859351 -10.199944 5.099133
v -3.550505 -10.199940 7.822895
v -3.550513 -10.199942 5.099136
v -11.859356 -10.199942 7.822897
v -3.550505 -10.199940 7.822895
v -3.550509 -14.048127 5.099137
v -3.550513 -10.199942 5.099136
v -3.550504 -14.048130 7.822895
v -11.298572 -12.509315 5.099118
v -10.975013 -12.375295 5.188962
v -11.298572 -12.509315 5.188962
v -10.975013 -12.375295 5.099119
v -10.651453 -12.509326 5.188963
v -10.651453 -12.509326 5.099119
v -11.298572 -12.509315 5.188962
v -11.432590 -12.832866 5.099118
v -11.298572 -12.509315 5.099118
v -11.432590 -12.832866 5.188961
v -11.298572 -13.156430 5.099119
v -11.298572 -13.156430 5.188962
v -11.298572 -13.156430 5.188962
v -10.975011 -13.290463 5.099118
v -11.298572 -13.156430 5.099119
v -10.975011 -13.290463 5.188961
v -10.651454 -13.156430 5.099118
v -10.651454 -13.156430 5.188962
v -10.651454 -13.156430 5.188962
v -10.517434 -12.832866 5.099119
v -10.651454 -13.156430 5.099118
v -10.517434 -12.832866 5.188962
v -10.651453 -12.509326 5.099119
v -10.651453 -12.509326 5.188963
v 10.975156 -12.375295 5.188955
v 11.298713 -12.509315 5.099110
v 11.298713 -12.509315 5.188955
v 10.975156 -12.375295 5.099111
v 10.651596 -12.509326 5.188955
v 10.651596 -12.509326 5.099111
v 11.432732 -12.832866 5.099110
v 11.298713 -12.509315 5.188955
v 11.298713 -12.509315 5.099110
v 11.432732 -12.832866 5.188953
v 11.298712 -13.156430 5.099111
v 11.298712 -13.156430 5.188955
v 10.975152 -13.290463 5.099111
v 11.298712 -13.156430 5.188955
v 11.298712 -13.156430 5.099111
v 10.975152 -13.290463 5.188953
v 10.651595 -13.156430 5.099111
v 10.651595 -13.156430 5.188955
v 10.517577 -12.832866 5.099111
v 10.651595 -13.156430 5.188955
v 10.651595 -13.156430 5.099111
v 10.517577 -12.832866 5.188955
v 10.651596 -12.509326 5.099111
v 10.651596 -12.509326 5.188955
v -11.298572 -12.509315 5.188962
v -10.975013 -12.375295 5.188962
v -10.975013 -12.832866 5.188962
v -11.432590 -12.832866 5.188961
v -10.651453 -12.509326 5.188963
v -11.298572 -13.156430 5.188962
v -10.517434 -12.832866 5.188962
v -10.975011 -13.290463 5.188961
v -10.651454 -13.156430 5.188962
v 11.298713 -12.509315 5.188955
v 10.975156 -12.832866 5.188955
v 10.975156 -12.375295 5.188955
v 11.432732 -12.832866 5.188953
v 10.651596 -12.509326 5.188955
v 11.298712 -13.156430 5.188955
v 10.517577 -12.832866 5.188955
v 10.975152 -13.290463 5.188953
v 10.651595 -13.156430 5.188955
vn -0.0000 -0.0000 1.0000
vn -0.8969 -0.4423 -0.0000
vn -0.9659 -0.2588 -0.0000
vn -0.9914 0.1305 -0.0000
vn -0.8660 0.5000 -0.0000
vn -0.6088 0.7933 -0.0000
vn -0.0654 0.9979 -0.0000
vn -0.2588 0.9659 -0.0000
vn -0.6087 0.7934 -0.0000
vn -0.0000 -0.0000 -1.0000
vn 0.9931 -0.1175 -0.0000
vn 0.2560 -0.9667 -0.0000
vn -0.0151 0.9999 -0.0000
vn -1.0000 -0.0000 -0.0000
vn -0.0000 -1.0000 -0.0000
vn 1.0000 -0.0000 -0.0000
vn 0.8969 -0.4423 -0.0000
vn 0.9659 -0.2588 -0.0000
vn 0.9914 0.1305 -0.0000
vn 0.8660 0.5000 -0.0000
vn 0.6088 0.7933 -0.0000
vn 0.0654 0.9979 -0.0000
vn 0.2588 0.9659 -0.0000
vn 0.6087 0.7934 -0.0000
vn -0.9931 -0.1175 -0.0000
vn -0.2560 -0.9667 -0.0000
vn 0.0151 0.9999 -0.0000
vn -0.7071 0.7071 -0.0000
vn -0.0000 1.0000 -0.0000
vn 0.7071 0.7071 -0.0000
vn -0.7071 -0.7071 -0.0000
vn 0.7071 -0.7071 -0.0000
vt 0.663040 -16.088196
vt 0.662500 -16.092791
vt 0.669575 -16.087765
vt 0.670772 -16.092258
vt 0.678263 -16.088541
vt 0.675449 -16.084850
vt 0.683770 -16.082222
vt 0.679767 -16.079897
vt 0.681872 -16.073656
vt 0.686455 -16.074263
vt 0.681444 -16.067080
vt 0.686455 -16.059063
vt 0.678547 -16.061171
vt 17.061171 0.305376
vt 17.061171 0.292514
vt 17.067080 0.305376
vt 17.067080 0.292514
vt 17.073656 0.305376
vt 17.073656 0.292514
vt 17.079897 0.305376
vt 17.079897 0.292514
vt 17.084850 0.292514
vt 17.084850 0.305376
vt 0.336960 0.292514
vt 0.336960 0.305376
vt 0.330425 0.292514
vt 0.330425 0.305376
vt 0.324551 0.305376
vt 0.324551 0.292514
vt 0.337500 -16.092791
vt 0.336960 -16.088196
vt 0.329228 -16.092258
vt 0.321737 -16.088541
vt 0.316230 -16.082222
vt 0.321453 -16.061171
vt 0.313545 -16.074263
vt 0.313545 -16.059063
vt -16.088196 0.305376
vt -16.088196 0.327627
vt -16.092791 0.305376
vt -16.092791 0.327628
vt 0.686455 0.305376
vt 0.686455 0.327627
vt 0.678547 0.305376
vt 0.678547 0.327627
vt 17.088198 0.333628
vt 17.061171 0.333628
vt 17.088196 0.327627
vt 17.061171 0.327627
vt 0.446578 0.292514
vt 0.336960 0.327627
vt 0.446578 0.333628
vt 0.336960 0.333628
vt 17.031553 0.292514
vt 17.031553 0.333628
vt 0.446578 -16.031553
vt 0.321453 -16.031553
vt 0.336960 -16.088198
vt 0.446578 -16.089867
vt 0.678547 0.333628
vt 0.553422 0.333628
vt 0.678547 0.292514
vt 0.553422 0.292514
vt -16.089867 0.333628
vt -16.089867 0.292514
vt -16.031553 0.333628
vt -16.031553 0.292514
vt 0.336867 -16.088196
vt 0.330332 -16.087765
vt 0.337407 -16.092791
vt 0.329135 -16.092258
vt 0.321644 -16.088541
vt 0.324458 -16.084850
vt 0.316136 -16.082222
vt 0.320140 -16.079897
vt 0.318035 -16.073656
vt 0.313452 -16.074263
vt 0.318463 -16.067080
vt 0.313452 -16.059063
vt 0.321360 -16.061171
vt -16.061171 0.305377
vt -16.067080 0.305376
vt -16.061171 0.292514
vt -16.067080 0.292514
vt -16.073656 0.305376
vt -16.073656 0.292514
vt -16.079897 0.305376
vt -16.079897 0.292514
vt -16.084850 0.292514
vt -16.084850 0.305376
vt 0.663133 0.292514
vt 0.669668 0.292514
vt 0.663133 0.305376
vt 0.669668 0.305376
vt 0.675542 0.305376
vt 0.675542 0.292514
vt 0.662593 -16.092791
vt 0.670865 -16.092258
vt 0.663133 -16.088196
vt 0.678356 -16.088541
vt 0.683864 -16.082222
vt 0.678640 -16.061171
vt 0.686548 -16.074263
vt 0.686548 -16.059063
vt 17.092791 0.327628
vt 17.088196 0.327628
vt 17.092791 0.305376
vt 17.088196 0.305376
vt 0.321360 0.327628
vt 0.313452 0.327628
vt 0.321360 0.305377
vt 0.313452 0.305376
vt -16.061171 0.327628
vt -16.061171 0.333628
vt -16.088196 0.327628
vt -16.088196 0.333628
vt 0.553515 0.292514
vt 0.663133 0.327628
vt 0.553515 0.333628
vt 0.663133 0.333628
vt -16.031553 0.292514
vt -16.031553 0.333628
vt 0.678640 -16.031553
vt 0.553515 -16.031553
vt 0.553515 -16.089867
vt 0.446485 0.292514
vt 0.446485 0.333628
vt 0.321360 0.292514
vt 0.321360 0.333628
vt 17.031553 0.292514
vt 17.089867 0.292514
vt 17.031553 0.333628
vt 17.089867 0.333628
vt 0.670195 0.293870
vt 0.665323 0.293870
vt 0.670195 0.292514
vt 0.665323 0.292514
vt 0.660450 0.293870
vt 0.660450 0.292514
vt 17.066549 0.292514
vt 17.071451 0.292514
vt 17.066549 0.293870
vt 17.071451 0.293870
vt 17.076355 0.292514
vt 17.076355 0.293870
vt 0.329805 0.292514
vt 0.334677 0.292514
vt 0.329805 0.293870
vt 0.334677 0.293870
vt 0.339550 0.292514
vt 0.339550 0.293870
vt -16.076355 0.292514
vt -16.071451 0.292514
vt -16.076355 0.293870
vt -16.071451 0.293870
vt -16.066549 0.292514
vt -16.066549 0.293870
vt 0.329896 0.293870
vt 0.329896 0.292514
vt 0.334769 0.293870
vt 0.334769 0.292514
vt 0.339642 0.293870
vt 0.339642 0.292514
vt -16.066549 0.292514
vt -16.066549 0.293870
vt -16.071451 0.292514
vt -16.071451 0.293870
vt -16.076355 0.292514
vt -16.076355 0.293870
vt 0.670104 0.292514
vt 0.670104 0.293870
vt 0.665231 0.292514
vt 0.665231 0.293870
vt 0.660358 0.292514
vt 0.660358 0.293870
vt 17.076355 0.292514
vt 17.076355 0.293870
vt 17.071451 0.292514
vt 17.071451 0.293870
vt 17.066549 0.292514
vt 17.066549 0.293870
vt 0.334677 -16.071451
vt 0.334677 -16.064518
vt 0.329805 -16.066549
vt 0.327787 -16.071451
vt 0.339550 -16.066549
vt 0.329805 -16.076355
vt 0.341568 -16.071451
vt 0.334677 -16.078386
vt 0.339550 -16.076355
vt 0.665231 -16.064518
vt 0.665231 -16.071451
vt 0.670104 -16.066549
vt 0.672122 -16.071451
vt 0.660358 -16.066549
vt 0.670104 -16.076355
vt 0.658340 -16.071451
vt 0.665231 -16.078386
vt 0.660358 -16.076355
s 1
g Bsh_Hull_Midsection_Dredn_BC4_001_5_steel_3
usemtl steel_3
f 3/1/1 2/2/1 1/3/1
f 4/4/1 1/3/1 2/2/1
f 4/4/1 5/5/1 1/3/1
f 6/6/1 1/3/1 5/5/1
f 5/5/1 7/7/1 6/6/1
f 8/8/1 6/6/1 7/7/1
f 8/8/1 7/7/1 9/9/1
f 10/10/1 9/9/1 7/7/1
f 9/9/1 10/10/1 11/11/1
f 12/12/1 11/11/1 10/10/1
f 13/13/1 11/11/1 12/12/1
f 16/14/2 15/15/2 14/16/3
f 17/17/3 14/16/3 15/15/2
f 14/16/3 17/17/3 18/18/4
f 19/19/4 18/18/4 17/17/3
f 18/18/4 19/19/4 20/20/5
f 21/21/5 20/20/5 19/19/4
f 21/21/5 22/22/6 20/20/5
f 23/23/6 20/20/5 22/22/6
f 26/24/7 25/25/7 24/26/8
f 27/27/8 24/26/8 25/25/7
f 27/27/8 28/28/9 24/26/8
f 29/29/9 24/26/8 28/28/9
f 32/30/10 31/31/10 30/32/10
f 33/33/10 30/32/10 31/31/10
f 33/33/10 31/31/10 34/34/10
f 35/35/10 34/34/10 31/31/10
f 34/34/10 35/35/10 36/36/10
f 37/37/10 36/36/10 35/35/10
f 40/38/11 39/39/11 38/40/11
f 41/41/11 38/40/11 39/39/11
f 44/42/12 43/43/12 42/44/12
f 45/45/12 42/44/12 43/43/12
f 48/46/5 47/47/5 46/48/5
f 49/49/5 46/48/5 47/47/5
f 52/50/13 51/25/13 50/24/13
f 51/25/13 52/50/13 53/51/13
f 54/52/13 53/51/13 52/50/13
f 54/52/13 55/53/13 53/51/13
f 58/14/14 57/54/14 56/15/14
f 57/54/14 58/14/14 59/55/14
f 60/49/14 59/55/14 58/14/14
f 61/47/14 59/55/14 60/49/14
f 64/56/10 63/57/10 62/35/10
f 65/58/10 64/56/10 62/35/10
f 66/59/10 64/56/10 65/58/10
f 69/60/15 68/61/15 67/62/15
f 70/63/15 67/62/15 68/61/15
f 73/64/16 72/65/16 71/66/16
f 74/67/16 71/66/16 72/65/16
f 77/68/1 76/69/1 75/70/1
f 78/71/1 75/70/1 76/69/1
f 78/71/1 76/69/1 79/72/1
f 80/73/1 79/72/1 76/69/1
f 79/72/1 80/73/1 81/74/1
f 82/75/1 81/74/1 80/73/1
f 82/75/1 83/76/1 81/74/1
f 84/77/1 81/74/1 83/76/1
f 83/76/1 85/78/1 84/77/1
f 86/79/1 84/77/1 85/78/1
f 85/78/1 87/80/1 86/79/1
f 90/81/17 89/82/18 88/83/17
f 91/84/18 88/83/17 89/82/18
f 89/82/18 92/85/19 91/84/18
f 93/86/19 91/84/18 92/85/19
f 92/85/19 94/87/20 93/86/19
f 95/88/20 93/86/19 94/87/20
f 95/88/20 94/87/20 96/89/21
f 97/90/21 96/89/21 94/87/20
f 100/91/22 99/92/23 98/93/22
f 101/94/23 98/93/22 99/92/23
f 101/94/23 99/92/23 102/95/24
f 103/96/24 102/95/24 99/92/23
f 106/97/10 105/98/10 104/99/10
f 107/100/10 104/99/10 105/98/10
f 107/100/10 108/101/10 104/99/10
f 109/102/10 104/99/10 108/101/10
f 108/101/10 110/103/10 109/102/10
f 111/104/10 109/102/10 110/103/10
f 114/105/25 113/106/25 112/107/25
f 115/108/25 112/107/25 113/106/25
f 118/109/26 117/110/26 116/111/26
f 119/112/26 116/111/26 117/110/26
f 122/113/20 121/114/20 120/115/20
f 123/116/20 120/115/20 121/114/20
f 126/93/27 125/117/27 124/91/27
f 126/93/27 127/118/27 125/117/27
f 128/119/27 125/117/27 127/118/27
f 129/120/27 128/119/27 127/118/27
f 132/121/16 131/81/16 130/83/16
f 132/121/16 133/122/16 131/81/16
f 134/113/16 131/81/16 133/122/16
f 133/122/16 135/114/16 134/113/16
f 138/123/10 137/124/10 136/102/10
f 137/124/10 139/99/10 136/102/10
f 137/124/10 140/125/10 139/99/10
f 143/126/15 142/127/15 141/128/15
f 144/129/15 141/128/15 142/127/15
f 147/130/14 146/131/14 145/132/14
f 148/133/14 145/132/14 146/131/14
f 151/134/28 150/135/29 149/136/28
f 152/137/29 149/136/28 150/135/29
f 150/135/29 153/138/30 152/137/29
f 154/139/30 152/137/29 153/138/30
f 157/140/28 156/141/14 155/142/28
f 158/143/14 155/142/28 156/141/14
f 156/141/14 159/144/31 158/143/14
f 160/145/31 158/143/14 159/144/31
f 163/146/31 162/147/15 161/148/31
f 164/149/15 161/148/31 162/147/15
f 162/147/15 165/150/32 164/149/15
f 166/151/32 164/149/15 165/150/32
f 169/152/32 168/153/16 167/154/32
f 170/155/16 167/154/32 168/153/16
f 168/153/16 171/156/30 170/155/16
f 172/157/30 170/155/16 171/156/30
f 175/158/30 174/159/30 173/160/29
f 176/161/29 173/160/29 174/159/30
f 173/160/29 176/161/29 177/162/28
f 178/163/28 177/162/28 176/161/29
f 181/164/30 180/165/30 179/166/16
f 182/167/16 179/166/16 180/165/30
f 179/166/16 182/167/16 183/168/32
f 184/169/32 183/168/32 182/167/16
f 187/170/32 186/171/32 185/172/15
f 188/173/15 185/172/15 186/171/32
f 185/172/15 188/173/15 189/174/31
f 190/175/31 189/174/31 188/173/15
f 193/176/31 192/177/31 191/178/14
f 194/179/14 191/178/14 192/177/31
f 191/178/14 194/179/14 195/180/28
f 196/181/28 195/180/28 194/179/14
f 199/182/1 198/183/1 197/184/1
f 199/182/1 197/184/1 200/185/1
f 199/182/1 201/186/1 198/183/1
f 199/182/1 200/185/1 202/187/1
f 199/182/1 203/188/1 201/186/1
f 199/182/1 202/187/1 204/189/1
f 199/182/1 205/190/1 203/188/1
f 199/182/1 204/189/1 205/190/1
f 208/191/1 207/192/1 206/193/1
f 206/193/1 207/192/1 209/194/1
f 210/195/1 207/192/1 208/191/1
f 209/194/1 207/192/1 211/196/1
f 212/197/1 207/192/1 210/195/1
f 211/196/1 207/192/1 213/198/1
f 214/199/1 207/192/1 212/197/1
f 213/198/1 207/192/1 214/199/1
