# Blender 5.1.0
# www.blender.org
mtllib Bsh_Hull_Rostrum_Dredn_C_001_4.mtl
o Bsh_Hull_Rostrum_Dredn_C_001_4
v -12.177796 19.691380 5.099119
v 12.177795 19.691380 5.099141
v -7.437141 52.000027 5.099111
v -6.013286 55.821964 5.099107
v -6.013290 39.999989 5.099113
v -9.000107 46.000019 5.099108
v -10.156654 40.000015 5.099110
v -7.720665 38.005192 5.099119
v -8.028815 37.543987 5.099121
v -8.137024 36.999989 5.099117
v -10.957987 34.000008 5.099113
v -8.137022 30.999992 5.099123
v -9.844398 29.005199 5.099116
v -10.152546 28.543991 5.099119
v -11.566722 28.000011 5.099115
v -10.260750 27.999996 5.099115
v -10.260750 21.999996 5.099119
v -12.048529 22.000011 5.099119
v -11.968128 20.005207 5.099113
v -12.384498 10.000018 8.022880
v -12.384496 16.000019 8.022882
v -0.000008 10.000018 8.022917
v -12.384501 19.000004 8.022879
v -12.276296 19.543999 8.022881
v -11.968130 20.005192 8.022885
v -10.260760 22.000000 8.022890
v -10.260765 27.999992 8.022890
v -10.152556 28.543991 8.022891
v -9.844392 29.005184 8.022890
v -8.137023 30.999996 8.022893
v -0.000005 40.000008 8.022904
v -8.137029 36.999989 8.022892
v -8.028825 37.543987 8.022893
v -7.720660 38.005177 8.022892
v -6.013291 39.999989 8.022889
v -0.000004 57.809772 8.232560
v -6.013287 57.809772 8.232547
v -4.695560 64.017654 8.305633
v 8.137015 30.999992 8.022905
v 9.844383 29.005184 8.022905
v 10.152548 28.543991 8.022906
v 8.137023 36.999989 8.022903
v 10.260747 27.999992 8.022905
v 8.028819 37.543983 8.022904
v 7.720654 38.005173 8.022903
v 6.013286 39.999989 8.022902
v 10.260741 21.999996 8.022906
v 6.013284 57.809772 8.232556
v 4.695556 64.017654 8.305638
v 11.968110 20.005192 8.022910
v 12.276276 19.543999 8.022909
v 12.384480 19.000004 8.022906
v 12.384475 16.000019 8.022911
v 12.384477 10.000014 8.022909
v -0.000003 64.017654 8.305637
v 2.384458 65.785500 8.326430
v 2.725078 65.785515 8.326439
v 2.109059 66.508240 8.334938
v 2.998919 66.508240 8.334942
v 3.103950 67.352455 8.344877
v 2.998932 67.967613 8.352117
v 3.156649 70.003563 8.376076
v 2.004028 67.352448 8.344877
v 2.724499 68.347084 8.356587
v 2.301334 69.159431 8.366145
v 2.384323 68.348045 8.356602
v 2.406360 70.003578 8.376086
v 2.028685 68.436699 8.357635
v 2.441584 72.252426 8.402545
v 2.109063 67.967613 8.352117
v 2.301349 70.618805 8.383327
v 2.026346 70.999023 8.387804
v 1.684126 68.436699 8.357634
v 1.686452 70.999023 8.387800
v -0.000002 72.252449 8.402561
v 1.150645 76.488922 8.452428
v 1.411464 70.618782 8.383323
v 0.798942 77.190651 8.460694
v 0.516594 77.492729 8.464252
v -0.000002 77.706993 8.466778
v -0.516598 77.492729 8.464259
v -0.798947 77.190651 8.460702
v -1.150649 76.488922 8.452435
v 1.306428 70.003571 8.376084
v -2.441589 72.252426 8.402550
v -0.000003 67.967606 8.352118
v 1.411475 69.159447 8.366137
v -1.686457 70.999023 8.387808
v -1.411470 70.618782 8.383330
v -1.306434 70.003571 8.376091
v -2.026352 70.999023 8.387808
v -2.301355 70.618805 8.383332
v -2.406366 70.003578 8.376091
v -1.411481 69.159447 8.366144
v -3.156652 70.003563 8.376080
v -1.684132 68.436699 8.357640
v -2.301341 69.159431 8.366149
v -2.109070 67.967613 8.352121
v -2.028691 68.436699 8.357638
v -2.004034 67.352448 8.344881
v -2.384329 68.348045 8.356606
v -2.724503 68.347084 8.356591
v -2.998936 67.967613 8.352121
v -2.109066 66.508240 8.334942
v -2.384465 65.785500 8.326434
v -3.103954 67.352455 8.344881
v -2.725082 65.785515 8.326443
v -2.998924 66.508240 8.334946
v 7.437137 52.000027 5.099121
v 6.013284 39.999989 5.099123
v 6.013282 55.821964 5.099116
v 9.000101 46.000019 5.099125
v 10.156649 40.000011 5.099128
v 7.720659 38.005192 5.099131
v 8.028808 37.543983 5.099133
v 8.137016 36.999989 5.099130
v 10.957989 34.000004 5.099133
v 8.137014 30.999989 5.099136
v 9.844388 29.005199 5.099135
v 10.152537 28.543991 5.099138
v 11.566724 28.000011 5.099136
v 10.260752 27.999996 5.099134
v 10.260751 21.999996 5.099140
v 12.048529 22.000011 5.099140
v 11.968127 20.005207 5.099134
vn -0.0000 -0.0000 1.0000
vn -0.0000 -0.0059 1.0000
vn -0.0000 -0.0048 1.0000
vn -0.0000 -0.0118 0.9999
vt 0.584694 0.427774
vt 0.584694 0.539196
vt 0.604748 0.512281
vt 0.626762 0.470028
vt 0.643051 0.427774
vt 0.608742 0.413726
vt 0.613082 0.410478
vt 0.614606 0.406647
vt 0.654338 0.385521
vt 0.614606 0.364394
vt 0.638653 0.350346
vt 0.642994 0.347098
vt 0.662912 0.343267
vt 0.644518 0.343267
vt 0.644518 0.301013
vt 0.669698 0.301014
vt 0.668565 0.286966
vt 0.671518 0.284756
vt 0.500000 0.216507
vt 0.674429 0.258760
vt 0.674429 0.216507
vt 0.674430 0.279887
vt 0.672906 0.283718
vt 0.668565 0.286965
vt 0.644518 0.301013
vt 0.644518 0.343267
vt 0.642994 0.347098
vt 0.638653 0.350346
vt 0.614606 0.364394
vt 0.500000 0.427774
vt 0.614606 0.406647
vt 0.613082 0.410478
vt 0.608742 0.413726
vt 0.584694 0.427774
vt 0.500000 0.553195
vt 0.584694 0.553195
vt 0.566135 0.596912
vt 0.385394 0.364394
vt 0.361347 0.350346
vt 0.357006 0.347098
vt 0.385394 0.406647
vt 0.355482 0.343267
vt 0.386918 0.410478
vt 0.391258 0.413726
vt 0.415306 0.427774
vt 0.355482 0.301013
vt 0.415306 0.553195
vt 0.433865 0.596912
vt 0.331435 0.286965
vt 0.327095 0.283718
vt 0.325571 0.279887
vt 0.325571 0.258760
vt 0.325571 0.216507
vt 0.500000 0.596912
vt 0.466416 0.609362
vt 0.461619 0.609362
vt 0.470295 0.614452
vt 0.457762 0.614452
vt 0.456282 0.620397
vt 0.457761 0.624729
vt 0.455540 0.639067
vt 0.471774 0.620397
vt 0.461627 0.627401
vt 0.467587 0.633122
vt 0.466418 0.627408
vt 0.466108 0.639067
vt 0.471427 0.628032
vt 0.465611 0.654904
vt 0.470295 0.624729
vt 0.467587 0.643399
vt 0.471460 0.646077
vt 0.476280 0.628032
vt 0.476247 0.646077
vt 0.500000 0.654904
vt 0.483794 0.684738
vt 0.480120 0.643399
vt 0.488747 0.689680
vt 0.492724 0.691807
vt 0.500000 0.693316
vt 0.507276 0.691807
vt 0.511253 0.689680
vt 0.516206 0.684738
vt 0.481600 0.639067
vt 0.534389 0.654904
vt 0.500000 0.624729
vt 0.480120 0.633122
vt 0.523753 0.646077
vt 0.519880 0.643399
vt 0.518400 0.639067
vt 0.528540 0.646077
vt 0.532413 0.643399
vt 0.533892 0.639067
vt 0.519880 0.633122
vt 0.544460 0.639067
vt 0.523720 0.628032
vt 0.532413 0.633122
vt 0.529705 0.624729
vt 0.528573 0.628032
vt 0.528226 0.620397
vt 0.533582 0.627408
vt 0.538373 0.627401
vt 0.542238 0.624729
vt 0.529705 0.614452
vt 0.533584 0.609362
vt 0.543718 0.620397
vt 0.538381 0.609362
vt 0.542238 0.614452
vt 0.415306 0.539196
vt 0.415306 0.427774
vt 0.395252 0.512281
vt 0.373238 0.470028
vt 0.356949 0.427774
vt 0.391258 0.413726
vt 0.386918 0.410478
vt 0.385394 0.406647
vt 0.345662 0.385521
vt 0.361347 0.350346
vt 0.357006 0.347098
vt 0.337088 0.343267
vt 0.355482 0.343267
vt 0.355482 0.301013
vt 0.330302 0.301014
vt 0.331435 0.286966
vt 0.328482 0.284756
s 1
g Bsh_Hull_Rostrum_Dredn_C_001_4_wood_deck_1
usemtl wood_deck_1
f 5/1/1 4/2/1 3/3/1
f 5/1/1 3/3/1 6/4/1
f 5/1/1 6/4/1 7/5/1
f 5/1/1 7/5/1 8/6/1
f 8/6/1 7/5/1 9/7/1
f 9/7/1 7/5/1 10/8/1
f 7/5/1 11/9/1 10/8/1
f 12/10/1 10/8/1 11/9/1
f 12/10/1 11/9/1 13/11/1
f 14/12/1 13/11/1 11/9/1
f 11/9/1 15/13/1 14/12/1
f 16/14/1 14/12/1 15/13/1
f 16/14/1 15/13/1 17/15/1
f 18/16/1 17/15/1 15/13/1
f 17/15/1 18/16/1 19/17/1
f 19/17/1 18/16/1 1/18/1
f 22/19/1 21/20/1 20/21/1
f 21/20/1 22/19/1 23/22/1
f 23/22/1 22/19/1 24/23/1
f 22/19/1 25/24/1 24/23/1
f 22/19/1 26/25/1 25/24/1
f 26/25/1 22/19/1 27/26/1
f 27/26/1 22/19/1 28/27/1
f 28/27/1 22/19/1 29/28/1
f 29/28/1 22/19/1 30/29/1
f 22/19/1 31/30/2 30/29/1
f 30/29/1 31/30/2 32/31/1
f 32/31/1 31/30/2 33/32/1
f 33/32/1 31/30/2 34/33/1
f 34/33/1 31/30/2 35/34/3
f 31/30/2 36/35/4 35/34/3
f 37/36/4 35/34/3 36/35/4
f 37/36/4 36/35/4 38/37/4
f 31/30/2 22/19/1 39/38/1
f 22/19/1 40/39/1 39/38/1
f 22/19/1 41/40/1 40/39/1
f 31/30/2 39/38/1 42/41/1
f 22/19/1 43/42/1 41/40/1
f 31/30/2 42/41/1 44/43/1
f 31/30/2 44/43/1 45/44/1
f 31/30/2 45/44/1 46/45/3
f 31/30/2 46/45/3 36/35/4
f 22/19/1 47/46/1 43/42/1
f 48/47/4 36/35/4 46/45/3
f 48/47/4 49/48/4 36/35/4
f 47/46/1 22/19/1 50/49/1
f 50/49/1 22/19/1 51/50/1
f 22/19/1 52/51/1 51/50/1
f 22/19/1 53/52/1 52/51/1
f 53/52/1 22/19/1 54/53/1
f 55/54/4 36/35/4 49/48/4
f 55/54/4 38/37/4 36/35/4
f 55/54/4 49/48/4 56/55/4
f 57/56/4 56/55/4 49/48/4
f 58/57/4 55/54/4 56/55/4
f 59/58/4 57/56/4 49/48/4
f 60/59/4 59/58/4 49/48/4
f 60/59/4 49/48/4 61/60/4
f 62/61/4 61/60/4 49/48/4
f 58/57/4 63/62/4 55/54/4
f 61/60/4 62/61/4 64/63/4
f 62/61/4 65/64/4 64/63/4
f 66/65/4 64/63/4 65/64/4
f 65/64/4 62/61/4 67/66/4
f 65/64/4 68/67/4 66/65/4
f 62/61/4 69/68/4 67/66/4
f 70/69/4 66/65/4 68/67/4
f 71/70/4 67/66/4 69/68/4
f 71/70/4 69/68/4 72/71/4
f 68/67/4 73/72/4 70/69/4
f 72/71/4 69/68/4 74/73/4
f 75/74/4 74/73/4 69/68/4
f 76/75/4 75/74/4 69/68/4
f 77/76/4 74/73/4 75/74/4
f 78/77/4 75/74/4 76/75/4
f 78/77/4 79/78/4 75/74/4
f 80/79/4 75/74/4 79/78/4
f 80/79/4 81/80/4 75/74/4
f 82/81/4 75/74/4 81/80/4
f 75/74/4 82/81/4 83/82/4
f 75/74/4 84/83/4 77/76/4
f 75/74/4 83/82/4 85/84/4
f 75/74/4 86/85/4 84/83/4
f 87/86/4 84/83/4 86/85/4
f 86/85/4 73/72/4 87/86/4
f 86/85/4 70/69/4 73/72/4
f 86/85/4 63/62/4 70/69/4
f 86/85/4 55/54/4 63/62/4
f 75/74/4 85/84/4 88/87/4
f 88/87/4 89/88/4 75/74/4
f 90/89/4 75/74/4 89/88/4
f 75/74/4 90/89/4 86/85/4
f 91/90/4 88/87/4 85/84/4
f 85/84/4 92/91/4 91/90/4
f 92/91/4 85/84/4 93/92/4
f 94/93/4 86/85/4 90/89/4
f 95/94/4 93/92/4 85/84/4
f 96/95/4 86/85/4 94/93/4
f 95/94/4 97/96/4 93/92/4
f 86/85/4 96/95/4 98/97/4
f 99/98/4 98/97/4 96/95/4
f 100/99/4 86/85/4 98/97/4
f 98/97/4 99/98/4 101/100/4
f 97/96/4 101/100/4 99/98/4
f 101/100/4 97/96/4 102/101/4
f 95/94/4 102/101/4 97/96/4
f 95/94/4 103/102/4 102/101/4
f 86/85/4 100/99/4 55/54/4
f 104/103/4 55/54/4 100/99/4
f 55/54/4 104/103/4 105/104/4
f 95/94/4 38/37/4 103/102/4
f 55/54/4 105/104/4 38/37/4
f 106/105/4 103/102/4 38/37/4
f 107/106/4 38/37/4 105/104/4
f 108/107/4 106/105/4 38/37/4
f 107/106/4 108/107/4 38/37/4
f 111/108/1 110/109/1 109/110/1
f 109/110/1 110/109/1 112/111/1
f 112/111/1 110/109/1 113/112/1
f 113/112/1 110/109/1 114/113/1
f 113/112/1 114/113/1 115/114/1
f 113/112/1 115/114/1 116/115/1
f 113/112/1 116/115/1 117/116/1
f 118/38/1 117/116/1 116/115/1
f 117/116/1 118/38/1 119/117/1
f 119/117/1 120/118/1 117/116/1
f 117/116/1 120/118/1 121/119/1
f 122/120/1 121/119/1 120/118/1
f 122/120/1 123/121/1 121/119/1
f 124/122/1 121/119/1 123/121/1
f 124/122/1 123/121/1 125/123/1
f 124/122/1 125/123/1 2/124/1
