g Atl_gun_cal125A_x1_001
v 1.5493408 0.37757578 0.8945123
v 0.89451224 1.0297089E-07 1.5493408
v 0.89451224 0.37757573 1.5493406
v 1.5493406 1.6021782E-07 0.8945123
v 1.7890246 0.37757587 6.166484E-08
v 1.7890246 2.3841858E-07 2.6827426E-08
v 1.54934 0.37757593 -0.89451337
v 1.54934 3.1661943E-07 -0.89451337
v 0.89451134 0.37757602 -1.5493411
v 0.8945114 3.7386627E-07 -1.5493411
v -7.8200735E-08 8.201708E-08 1.7890246
v 0.89451224 0.37757573 1.5493406
v 0.89451224 1.0297089E-07 1.5493408
v -7.8200735E-08 0.37757573 1.7890246
v -0.8945124 1.02970915E-07 1.5493406
v -0.8945124 0.37757573 1.5493406
v -1.5493406 1.6021782E-07 0.8945124
v -0.8945124 0.37757573 1.5493406
v -0.8945124 1.02970915E-07 1.5493406
v -1.5493406 0.37757578 0.89451253
v -1.7890246 2.3841854E-07 2.969626E-07
v -1.7890246 0.37757587 3.000834E-07
v -1.549341 3.1661932E-07 -0.89451194
v -1.549341 0.37757593 -0.89451194
v -0.89451283 3.738662E-07 -1.5493404
v -0.89451283 0.37757602 -1.5493401
v -8.317395E-07 3.948201E-07 -1.7890246
v -0.89451283 0.37757602 -1.5493401
v -0.89451283 3.738662E-07 -1.5493404
v -8.317395E-07 0.37757602 -1.7890246
v 0.8945114 3.7386627E-07 -1.5493411
v 0.89451134 0.37757602 -1.5493411
v 2.2608328 0.64400727 -1.231914
v 2.2608817 3.6673656 -1.6730964
v 2.2608826 0.64400685 -1.673097
v 2.2608435 3.6673696 -1.2319156
v 2.2607236 3.1560705 1.0040603
v 2.2607024 1.5315696 1.9998595
v 2.2607024 0.6440082 1.9998592
v 1.9438946 0.6440058 -2.0554743
v 2.2608817 3.6673656 -1.6730964
v 1.9438937 3.6673663 -2.055473
v 2.2608826 0.64400685 -1.673097
v 1.9438937 3.6673663 -2.055473
v 1.4798759 0.6440048 -2.432961
v 1.9438946 0.6440058 -2.0554743
v 1.479875 3.6673672 -2.4329596
v 0.9347994 3.6673665 -2.676151
v 0.93480045 0.6440048 -2.6761518
v 0.3117633 0.6440047 -2.8204672
v 0.31176206 3.6673663 -2.8204665
v -0.31176198 3.6673656 -2.8204663
v -0.31176317 0.6440047 -2.8204668
v -0.9347993 3.667366 -2.6761508
v -0.9348004 0.6440048 -2.6761513
v -1.4798758 0.6440049 -2.4329605
v -1.479875 3.6673667 -2.4329593
v -1.9438934 3.667366 -2.0554729
v -1.9438941 0.6440059 -2.0554738
v -2.2608812 3.6673653 -1.6730963
v -2.2608325 0.64400727 -1.231914
v -2.2608821 0.64400685 -1.673097
v -2.260843 3.6673694 -1.2319156
v -2.2607236 3.1560705 1.0040601
v -2.2607021 1.5315695 1.9998595
v -2.2607017 0.6440082 1.9998589
v 0.31319052 3.2173717 1.4222028
v 0.4156969 3.5005047 0.998465
v 0.41569582 3.2173717 1.4222028
v 0.31317765 3.500505 0.9984649
v 0.41569677 3.5999286 0.49862787
v 0.31313562 3.5999289 0.498628
v 0.31312335 3.4304378 -0.19578609
v 0.41569644 3.4304378 -0.19578595
v -2.2607017 0.6440082 1.9998589
v 2.2607024 1.5315696 1.9998595
v 2.2607024 0.6440082 1.9998592
v -2.2607021 1.5315695 1.9998595
v -1.9438941 0.6440059 -2.0554738
v -2.2608812 3.6673653 -1.6730963
v -2.2608821 0.64400685 -1.673097
v -1.9438934 3.667366 -2.0554729
v -0.4157238 1.9458193 1.7459426
v -2.2607236 3.1560705 1.0040601
v -0.41572285 3.1560702 1.0040606
v -2.2607021 1.5315695 1.9998595
v -0.31319082 1.9458194 1.7459322
v 2.2607024 1.5315696 1.9998595
v 0.31319308 1.9458193 1.7459325
v 0.4156954 1.9458193 1.7459325
v 2.2607236 3.1560705 1.0040603
v 0.41569674 3.1560705 1.0040615
v -0.41570517 3.500444 0.99854344
v -0.31317592 3.2173114 1.4222819
v -0.4157059 3.2173102 1.4222909
v -0.31318748 3.500444 0.99854386
v -0.31322706 3.599868 0.49870655
v -0.41570327 3.599866 0.4987162
v -0.4157202 3.4304373 -0.19577701
v -0.31325567 3.4304385 -0.19578668
v 0.41569644 3.4304378 -0.19578595
v 0.41569674 3.1560705 1.0040615
v 0.41569677 3.5999286 0.49862787
v 0.4156969 3.5005047 0.998465
v 0.41569582 3.2173717 1.4222028
v 0.4156958 2.793626 1.7053425
v 0.4156956 2.2937849 1.8047739
v 0.4156954 1.9458193 1.7459325
v 0.31319326 2.2937849 1.8047738
v 0.4156954 1.9458193 1.7459325
v 0.31319308 1.9458193 1.7459325
v 0.4156956 2.2937849 1.8047739
v 0.31319195 2.793626 1.7053425
v 0.4156958 2.793626 1.7053425
v 0.31319052 3.2173717 1.4222028
v 0.41569582 3.2173717 1.4222028
v -0.4157128 2.2937474 1.8048327
v -0.31319082 1.9458194 1.7459322
v -0.4157238 1.9458193 1.7459426
v -0.31317997 2.293748 1.8048222
v -0.41570938 2.7935765 1.7054161
v -0.31317806 2.7935774 1.7054063
v -0.4157059 3.2173102 1.4222909
v -0.31317592 3.2173114 1.4222819
v -0.4157238 1.9458193 1.7459426
v -0.41572285 3.1560702 1.0040606
v -0.4157128 2.2937474 1.8048327
v -0.41570938 2.7935765 1.7054161
v -0.4157059 3.2173102 1.4222909
v -0.41570517 3.500444 0.99854344
v -0.41570327 3.599866 0.4987162
v -0.4157202 3.4304373 -0.19577701
v -0.87490463 0.7198008 -2.654024
v -0.9141388 3.6486952 -2.8255584
v -0.9141407 0.7198015 -2.8255582
v -0.8749027 3.648691 -2.654024
v -0.97086716 0.7198015 -2.8125832
v -0.9316292 3.648691 -2.641049
v -0.9316311 0.7198008 -2.6410491
v -0.97086525 3.6486952 -2.812583
v -0.97086525 3.6486952 -2.812583
v -0.8749027 3.648691 -2.654024
v -0.9316292 3.648691 -2.641049
v -0.9141388 3.6486952 -2.8255584
v -0.296175 0.7197988 -2.7864008
v -0.33540916 3.6486952 -2.9579349
v -0.33541107 0.7197996 -2.957935
v -0.2961731 3.6486914 -2.7864008
v -0.39218712 0.7197997 -2.9449484
v -0.35294914 3.6486914 -2.773414
v -0.35295486 0.71979886 -2.7734292
v -0.3921852 3.6486952 -2.9449484
v -0.3921852 3.6486952 -2.9449484
v -0.2961731 3.6486914 -2.7864008
v -0.35294914 3.6486914 -2.773414
v -0.33540916 3.6486952 -2.9579349
v -0.33541107 0.7197996 -2.957935
v -0.3921852 3.6486952 -2.9449484
v -0.39218712 0.7197997 -2.9449484
v -0.33540916 3.6486952 -2.9579349
v -0.9141407 0.7198015 -2.8255582
v -0.97086525 3.6486952 -2.812583
v -0.97086716 0.7198015 -2.8125832
v -0.9141388 3.6486952 -2.8255584
v -0.39218712 0.7197997 -2.9449484
v -0.296175 0.7197988 -2.7864008
v -0.33541107 0.7197996 -2.957935
v -0.35295486 0.71979886 -2.7734292
v -0.97086716 0.7198015 -2.8125832
v -0.87490463 0.7198008 -2.654024
v -0.9141407 0.7198015 -2.8255582
v -0.9316311 0.7198008 -2.6410491
v 1.7890246 0.37757587 6.166484E-08
v 1.5493408 0.37757578 0.8945123
v 1.54934 0.37757593 -0.89451337
v 0.89451134 0.37757602 -1.5493411
v 0.89451224 0.37757573 1.5493406
v -8.317395E-07 0.37757602 -1.7890246
v -7.8200735E-08 0.37757573 1.7890246
v -0.89451283 0.37757602 -1.5493401
v -0.8945124 0.37757573 1.5493406
v -1.549341 0.37757593 -0.89451194
v -1.5493406 0.37757578 0.89451253
v -1.7890246 0.37757587 3.000834E-07
v 1.9438938 2.7184484 0.7153514
v 2.5038981 2.895338 0.8174788
v 1.9438938 2.8953383 0.8174788
v 2.5038981 2.7184484 0.7153514
v 1.9438938 2.5415585 0.8174787
v 2.5038981 2.5415587 0.8174787
v 1.9438938 2.8953383 0.8174788
v 2.5038986 2.895338 1.0217335
v 1.9438938 2.8953383 1.0217335
v 2.5038981 2.895338 0.8174788
v 1.9438938 2.5415587 1.0217334
v 2.5038981 2.5415587 0.8174787
v 1.9438938 2.5415585 0.8174787
v 2.5038986 2.541559 1.1238607
v 1.9438938 2.541559 1.1238607
v 1.9438937 3.0940948 -0.07748979
v 2.5038981 3.2709844 0.024637653
v 1.9438937 3.2709846 0.024637653
v 2.5038981 3.0940948 -0.07748979
v 1.9438937 2.917205 0.024637679
v 2.5038981 2.917205 0.024637679
v 1.9438937 3.2709846 0.024637653
v 2.5038986 3.2709844 0.2288924
v 1.9438937 3.2709846 0.2288924
v 2.5038981 3.2709844 0.024637653
v 1.9438937 2.917205 0.22889237
v 2.5038981 2.917205 0.024637679
v 1.9438937 2.917205 0.024637679
v 2.5038986 2.9172053 0.33101967
v 1.9438937 2.9172053 0.33101967
v 2.5038986 2.895338 1.0217335
v 2.5038981 2.5415587 0.8174787
v 2.5038986 2.541559 1.1238607
v 2.5038981 2.7184484 0.7153514
v 2.5038981 2.895338 0.8174788
v 2.5038986 3.2709844 0.2288924
v 2.5038981 2.917205 0.024637679
v 2.5038986 2.9172053 0.33101967
v 2.5038981 3.0940948 -0.07748979
v 2.5038981 3.2709844 0.024637653
v -2.5038981 2.895338 0.8174788
v -1.9438938 2.7184484 0.7153514
v -1.9438938 2.8953383 0.8174788
v -2.5038981 2.7184484 0.7153514
v -1.9438938 2.5415585 0.8174787
v -2.5038981 2.5415587 0.8174787
v -1.9438938 2.8953383 0.8174788
v -2.5038986 2.895338 1.0217335
v -2.5038981 2.895338 0.8174788
v -1.9438938 2.8953383 1.0217335
v -2.5038981 2.5415587 0.8174787
v -1.9438938 2.5415587 1.0217334
v -1.9438938 2.5415585 0.8174787
v -2.5038986 2.541559 1.1238607
v -1.9438938 2.541559 1.1238607
v -2.5038981 3.2709844 0.024637653
v -1.9438937 3.0940948 -0.07748979
v -1.9438937 3.2709846 0.024637653
v -2.5038981 3.0940948 -0.07748979
v -1.9438937 2.917205 0.024637679
v -2.5038981 2.917205 0.024637679
v -1.9438937 3.2709846 0.024637653
v -2.5038986 3.2709844 0.2288924
v -2.5038981 3.2709844 0.024637653
v -1.9438937 3.2709846 0.2288924
v -2.5038981 2.917205 0.024637679
v -1.9438937 2.917205 0.22889237
v -1.9438937 2.917205 0.024637679
v -2.5038986 2.9172053 0.33101967
v -1.9438937 2.9172053 0.33101967
v -2.5038981 2.5415587 0.8174787
v -2.5038986 2.895338 1.0217335
v -2.5038986 2.541559 1.1238607
v -2.5038981 2.7184484 0.7153514
v -2.5038981 2.895338 0.8174788
v -2.5038981 2.917205 0.024637679
v -2.5038986 3.2709844 0.2288924
v -2.5038986 2.9172053 0.33101967
v -2.5038981 3.0940948 -0.07748979
v -2.5038981 3.2709844 0.024637653
v -0.43396032 4.0756373 -2.4772334
v 0.4339601 4.0756383 -2.1904352
v -0.4339604 4.075638 -2.1904354
v 0.4339603 4.075638 -2.4772336
v -0.4339603 3.861573 -2.691297
v 0.4339604 3.6673675 -2.6912973
v 0.4339604 3.8615737 -2.6912973
v -0.4339603 3.6673667 -2.691297
v -0.4339604 4.075638 -2.1904354
v -0.4339603 3.861573 -2.691297
v -0.43396032 4.0756373 -2.4772334
v -0.4339603 3.6673667 -2.691297
v -0.4339604 3.6673677 -2.1904354
v 0.4339603 4.075638 -2.4772336
v 0.43396014 3.6673684 -2.1904352
v 0.4339601 4.0756383 -2.1904352
v 0.4339604 3.6673675 -2.6912973
v 0.4339604 3.8615737 -2.6912973
v 0.4339601 4.0756383 -2.1904352
v -0.4339604 3.6673677 -2.1904354
v -0.4339604 4.075638 -2.1904354
v 0.43396014 3.6673684 -2.1904352
v 0.4339603 4.075638 -2.4772336
v -0.4339603 3.861573 -2.691297
v 0.4339604 3.8615737 -2.6912973
v -0.43396032 4.0756373 -2.4772334
v 1.6072857 1.2275589 -2.5152397
v 2.2689123 2.7608361 -1.8993798
v 1.6072848 2.7608368 -2.5152383
v 2.2689133 1.2275597 -1.899381
v -2.268913 1.2275597 -1.8993804
v -1.6072848 2.7608364 -2.515238
v -2.2689123 2.760836 -1.8993798
v -1.6072856 1.2275589 -2.5152392
v 2.1415033 1.2275594 -1.7625026
v 1.6072857 1.2275589 -2.5152397
v 1.4798759 1.2275589 -2.3783612
v 2.2689133 1.2275597 -1.899381
v 1.4798759 1.2275589 -2.3783612
v 1.6072848 2.7608368 -2.5152383
v 1.479875 2.7608364 -2.3783598
v 1.6072857 1.2275589 -2.5152397
v 1.479875 2.7608364 -2.3783598
v 2.2689123 2.7608361 -1.8993798
v 2.1415026 2.760836 -1.7625014
v 1.6072848 2.7608368 -2.5152383
v 2.1415026 2.760836 -1.7625014
v 2.2689133 1.2275597 -1.899381
v 2.1415033 1.2275594 -1.7625026
v 2.2689123 2.7608361 -1.8993798
v -2.141503 1.2275594 -1.762502
v -2.2689123 2.760836 -1.8993798
v -2.1415024 2.760836 -1.7625014
v -2.268913 1.2275597 -1.8993804
v -2.1415024 2.760836 -1.7625014
v -1.6072848 2.7608364 -2.515238
v -1.479875 2.7608364 -2.3783596
v -2.2689123 2.760836 -1.8993798
v -1.479875 2.7608364 -2.3783596
v -1.6072856 1.2275589 -2.5152392
v -1.4798758 1.2275589 -2.3783607
v -1.6072848 2.7608364 -2.515238
v -1.4798758 1.2275589 -2.3783607
v -2.268913 1.2275597 -1.8993804
v -2.141503 1.2275594 -1.762502
v -1.6072856 1.2275589 -2.5152392
v 2.2608328 0.64400727 -1.231914
v -2.2382096E-12 0.64400524 -1.231914
v 2.2607024 0.6440082 1.9998592
v 2.2608826 0.64400685 -1.673097
v -2.2607017 0.6440082 1.9998589
v 1.9438946 0.6440058 -2.0554743
v -2.2608325 0.64400727 -1.231914
v 1.4798759 0.6440048 -2.432961
v -2.2608821 0.64400685 -1.673097
v 0.93480045 0.6440048 -2.6761518
v -1.9438941 0.6440059 -2.0554738
v 0.3117633 0.6440047 -2.8204672
v -1.4798758 0.6440049 -2.4329605
v -0.31176317 0.6440047 -2.8204668
v -0.9348004 0.6440048 -2.6761513
v 0.41569674 3.1560705 1.0040615
v 2.2608435 3.6673696 -1.2319156
v 2.2607236 3.1560705 1.0040603
v 0.41569644 3.4304378 -0.19578595
v 0.31312335 3.4304378 -0.19578609
v -2.260843 3.6673694 -1.2319156
v -0.31325567 3.4304385 -0.19578668
v -0.4157202 3.4304373 -0.19577701
v -2.2607236 3.1560705 1.0040601
v -0.41572285 3.1560702 1.0040606
v -2.260843 3.6673694 -1.2319156
v 2.2608817 3.6673656 -1.6730964
v 2.2608435 3.6673696 -1.2319156
v -2.2608812 3.6673653 -1.6730963
v -1.9438934 3.667366 -2.0554729
v 1.9438937 3.6673663 -2.055473
v 1.479875 3.6673672 -2.4329596
v -1.479875 3.6673667 -2.4329593
v 0.9347994 3.6673665 -2.676151
v -0.9347993 3.667366 -2.6761508
v 0.31176206 3.6673663 -2.8204665
v -0.31176198 3.6673656 -2.8204663
v -0.31325567 3.4304385 -0.19578668
v 0.31311882 1.9458215 0.7877793
v -0.31325984 1.9458218 0.7877787
v 0.31312335 3.4304378 -0.19578609
v 0.31319308 1.9458193 1.7459325
v -0.31325984 1.9458218 0.7877787
v 0.31311882 1.9458215 0.7877793
v -0.31319082 1.9458194 1.7459322
v 0.31319308 1.9458193 1.7459325
v 0.31311882 1.9458215 0.7877793
v 0.31319326 2.2937849 1.8047738
v 0.31319195 2.793626 1.7053425
v 0.31319052 3.2173717 1.4222028
v 0.31317765 3.500505 0.9984649
v 0.31313562 3.5999289 0.498628
v 0.31312335 3.4304378 -0.19578609
v -0.31325567 3.4304385 -0.19578668
v -0.31325984 1.9458218 0.7877787
v -0.31322706 3.599868 0.49870655
v -0.31318748 3.500444 0.99854386
v -0.31317592 3.2173114 1.4222819
v -0.31317806 2.7935774 1.7054063
v -0.31317997 2.293748 1.8048222
v -0.31319082 1.9458194 1.7459322
v -0.90981865 3.1794317 -2.8066661
v -0.38786125 3.2295375 -2.9260411
v -0.90981483 3.2295382 -2.8066514
v -0.38786507 3.1794317 -2.9260561
v -0.90981483 3.2295382 -2.8066514
v -0.3572731 3.2295394 -2.7923183
v -0.8792267 3.2295394 -2.6729283
v -0.38786125 3.2295375 -2.9260411
v -0.8792267 3.1794353 -2.6729283
v -0.38786507 3.1794317 -2.9260561
v -0.90981865 3.1794317 -2.8066661
v -0.3572731 3.1794353 -2.7923183
v -0.90981483 2.8621411 -2.8066514
v -0.38786507 2.9122448 -2.9260561
v -0.90981483 2.9122462 -2.8066514
v -0.38786507 2.8621407 -2.9260561
v -0.90981483 2.9122462 -2.8066514
v -0.3572731 2.9122462 -2.7923183
v -0.8792267 2.912246 -2.6729283
v -0.38786507 2.9122448 -2.9260561
v -0.8792267 2.8621426 -2.6729283
v -0.38786507 2.8621407 -2.9260561
v -0.90981483 2.8621411 -2.8066514
v -0.3572731 2.8621423 -2.7923183
v -0.90981865 2.5448477 -2.8066683
v -0.38786507 2.5949516 -2.9260564
v -0.90981483 2.5949533 -2.806653
v -0.38786507 2.544846 -2.9260564
v -0.90981483 2.5949533 -2.806653
v -0.3572731 2.5949557 -2.7923186
v -0.8792267 2.5949554 -2.6729283
v -0.38786507 2.5949516 -2.9260564
v -0.8792286 2.5448499 -2.6729305
v -0.38786507 2.544846 -2.9260564
v -0.90981865 2.5448477 -2.8066683
v -0.3572731 2.5448499 -2.7923186
v -0.90981483 3.4967217 -2.8066509
v -0.38786507 3.5468254 -2.926056
v -0.90981483 3.5468254 -2.8066509
v -0.38786507 3.496719 -2.926056
v -0.90981483 3.5468254 -2.8066509
v -0.3572731 3.546827 -2.792318
v -0.8792267 3.5468266 -2.672928
v -0.38786507 3.5468254 -2.926056
v -0.8792267 3.496723 -2.672928
v -0.38786507 3.496719 -2.926056
v -0.90981483 3.4967217 -2.8066509
v -0.3572731 3.496723 -2.792318
v -0.90981865 2.219416 -2.8066683
v -0.38786125 2.2695203 -2.9260433
v -0.90981483 2.269522 -2.806653
v -0.38786507 2.2194142 -2.9260583
v -0.90981483 2.269522 -2.806653
v -0.357275 2.269524 -2.7923205
v -0.8792286 2.2695236 -2.6729305
v -0.38786125 2.2695203 -2.9260433
v -0.8792286 2.2194176 -2.6729305
v -0.38786507 2.2194142 -2.9260583
v -0.90981865 2.219416 -2.8066683
v -0.357275 2.219418 -2.7923205
v -0.90981483 1.9021248 -2.806653
v -0.38786125 1.9522289 -2.9260433
v -0.90981483 1.9522309 -2.806653
v -0.38786125 1.9021246 -2.9260433
v -0.90981483 1.9522309 -2.806653
v -0.357275 1.9522324 -2.7923205
v -0.8792286 1.9522325 -2.6729305
v -0.38786125 1.9522289 -2.9260433
v -0.8792286 1.9021267 -2.6729305
v -0.38786125 1.9021246 -2.9260433
v -0.90981483 1.9021248 -2.806653
v -0.357275 1.9021266 -2.7923205
v -0.90982246 1.5848348 -2.806666
v -0.38786507 1.6349407 -2.9260416
v -0.90981865 1.6349411 -2.8066506
v -0.38786888 1.5848345 -2.9260569
v -0.90981865 1.6349411 -2.8066506
v -0.35727692 1.6349423 -2.792318
v -0.8792267 1.6349425 -2.6729283
v -0.38786507 1.6349407 -2.9260416
v -0.8792267 1.5848386 -2.6729283
v -0.38786888 1.5848345 -2.9260569
v -0.90982246 1.5848348 -2.806666
v -0.35727692 1.5848384 -2.792318
v -0.90981865 1.267544 -2.8066506
v -0.38786888 1.3176477 -2.9260569
v -0.90981865 1.3176496 -2.8066506
v -0.38786888 1.2675438 -2.9260569
v -0.90981865 1.3176496 -2.8066506
v -0.35727692 1.3176492 -2.792318
v -0.8792267 1.3176496 -2.6729283
v -0.38786888 1.3176477 -2.9260569
v -0.8792267 1.2675457 -2.6729283
v -0.38786888 1.2675438 -2.9260569
v -0.90981865 1.267544 -2.8066506
v -0.35727692 1.2675453 -2.792318
v -0.90981865 0.95025074 -2.8066685
v -0.38786888 1.0003548 -2.9260564
v -0.90981483 1.0003562 -2.806653
v -0.38786888 0.95024884 -2.9260564
v -0.90981483 1.0003562 -2.806653
v -0.3572731 1.0003586 -2.792319
v -0.8792267 1.0003586 -2.6729283
v -0.38786888 1.0003548 -2.9260564
v -0.8792324 0.95025283 -2.67293
v -0.38786888 0.95024884 -2.9260564
v -0.90981865 0.95025074 -2.8066685
v -0.3572731 0.9502527 -2.792319
v 1.9438938 2.8953383 1.0217335
v 2.5038986 2.541559 1.1238607
v 1.9438938 2.541559 1.1238607
v 2.5038986 2.895338 1.0217335
v 1.9438937 3.2709846 0.2288924
v 2.5038986 2.9172053 0.33101967
v 1.9438937 2.9172053 0.33101967
v 2.5038986 3.2709844 0.2288924
v -1.9438938 2.8953383 1.0217335
v -2.5038986 2.541559 1.1238607
v -2.5038986 2.895338 1.0217335
v -1.9438938 2.541559 1.1238607
v -1.9438937 3.2709846 0.2288924
v -2.5038986 2.9172053 0.33101967
v -2.5038986 3.2709844 0.2288924
v -1.9438937 2.9172053 0.33101967
v 1.4080185 0.6440047 0.81291974
v 0.8129197 1.1532568E-07 1.4080185
v 0.8129197 0.64400464 1.4080184
v 1.4080184 1.6735088E-07 0.81291974
v 1.6258395 0.6440048 8.3128086E-08
v 1.6258395 2.3841858E-07 2.6827426E-08
v 1.4080178 0.6440049 -0.81292075
v 1.4080178 3.0948638E-07 -0.81292075
v 0.81291884 0.64400494 -1.4080186
v 0.8129189 3.6151147E-07 -1.4080186
v -9.5759866E-08 9.628318E-08 1.6258395
v 0.8129197 0.64400464 1.4080184
v 0.8129197 1.1532568E-07 1.4080185
v -9.5759866E-08 0.64400464 1.6258395
v -0.8129199 1.1532569E-07 1.4080184
v -0.8129199 0.64400464 1.4080184
v -1.4080184 1.6735086E-07 0.81291986
v -0.8129199 0.64400464 1.4080184
v -0.8129199 1.1532569E-07 1.4080184
v -1.4080181 0.6440047 0.81292
v -1.6258395 2.3841854E-07 2.7232238E-07
v -1.6258395 0.6440048 2.997994E-07
v -1.4080186 3.0948627E-07 -0.81291944
v -1.4080186 0.6440049 -0.81291944
v -0.8129203 3.615114E-07 -1.408018
v -0.81292033 0.64400494 -1.4080179
v -7.8056485E-07 3.8055396E-07 -1.6258395
v -0.81292033 0.64400494 -1.4080179
v -0.8129203 3.615114E-07 -1.408018
v -7.8056485E-07 0.64400494 -1.6258395
v 0.8129189 3.6151147E-07 -1.4080186
v 0.81291884 0.64400494 -1.4080186
vt 5.051125 0.50573754
vt 5.041269 0.5
vt 5.041269 0.50573754
vt 5.051125 0.5
vt 5.0645895 0.50573754
vt 5.0645895 0.5
vt 5.078054 0.50573754
vt 5.078054 0.5
vt 5.08791 0.50573754
vt 5.08791 0.5
vt 0.19668648 0.5
vt 0.2102525 0.50573754
vt 0.2102525 0.5
vt 0.19668648 0.50573754
vt 0.18312049 0.5
vt 0.18312049 0.50573754
vt -4.051125 0.5
vt -4.041269 0.50573754
vt -4.041269 0.5
vt -4.051125 0.50573754
vt -4.0645895 0.5
vt -4.0645895 0.50573754
vt -4.078054 0.5
vt -4.078054 0.50573754
vt -4.08791 0.5
vt -4.08791 0.50573754
vt 0.8033135 0.5
vt 0.8168795 0.50573754
vt 0.8168795 0.5
vt 0.8033135 0.50573754
vt 0.7897475 0.5
vt 0.7897475 0.50573754
vt 5.0831323 0.5097862
vt 5.089773 0.55572855
vt 5.089773 0.5097862
vt 5.0831323 0.5557286
vt 5.049476 0.54795897
vt 5.0344872 0.5232734
vt 5.0344872 0.5097862
vt 5.0955286 0.5097862
vt 5.089773 0.55572855
vt 5.0955286 0.55572855
vt 5.089773 0.5097862
vt 0.77383274 0.55572855
vt 0.78086996 0.5097862
vt 0.7738327 0.5097862
vt 0.78086996 0.55572855
vt 0.78913647 0.55572855
vt 0.78913647 0.5097862
vt 0.7985853 0.5097862
vt 0.7985853 0.55572855
vt 0.8080416 0.55572855
vt 0.8080416 0.5097862
vt 0.81749046 0.55572855
vt 0.81749046 0.5097862
vt 0.825757 0.5097862
vt 0.825757 0.55572855
vt 0.8327942 0.55572855
vt 0.8327942 0.5097862
vt -4.089773 0.55572855
vt -4.0831323 0.5097862
vt -4.089773 0.5097862
vt -4.0831323 0.5557286
vt -4.049476 0.54795897
vt -4.0344872 0.5232734
vt -4.0344872 0.5097862
vt 0.20143628 5.0431824
vt 0.20299089 5.0495605
vt 0.20299086 5.0431824
vt 0.2014361 5.0495605
vt 0.20299089 5.057084
vt 0.20143545 5.057084
vt 0.20143527 5.0675364
vt 0.20299089 5.0675364
vt 0.16240111 0.5097862
vt 0.23097187 0.5232734
vt 0.23097187 0.5097862
vt 0.16240108 0.5232734
vt -4.0955286 0.5097862
vt -4.089773 0.55572855
vt -4.089773 0.5097862
vt -4.0955286 0.55572855
vt 0.1903817 0.52956825
vt 0.16240078 0.54795897
vt 0.1903817 0.54795897
vt 0.16240108 0.5232734
vt 0.1919367 0.52956825
vt 0.23097187 0.5232734
vt 0.20143631 0.52956825
vt 0.20299086 0.52956825
vt 0.23097223 0.54795897
vt 0.20299089 0.54795897
vt 0.19038197 5.049559
vt 0.19193691 5.043181
vt 0.19038197 5.043181
vt 0.19193676 5.049559
vt 0.19193617 5.057083
vt 0.19038203 5.0570827
vt 0.19038177 5.0675364
vt 0.19193572 5.0675364
vt 5.0675364 0.55212826
vt 5.049476 0.54795897
vt 5.057084 0.5547038
vt 5.0495605 0.553193
vt 5.0431824 0.54889053
vt 5.0389204 0.5424514
vt 5.037424 0.5348559
vt 5.0383096 0.52956825
vt 0.20143631 0.5348559
vt 0.20299086 0.52956825
vt 0.20143631 0.52956825
vt 0.20299086 0.5348559
vt 0.20143631 0.5424514
vt 0.20299086 0.5424514
vt 0.20143628 0.54889053
vt 0.20299086 0.54889053
vt 0.19038185 0.5348553
vt 0.1919367 0.52956825
vt 0.1903817 0.52956825
vt 0.19193685 0.5348553
vt 0.19038191 0.5424506
vt 0.19193688 0.5424506
vt 0.19038197 0.5488896
vt 0.19193691 0.5488896
vt -4.0383096 0.52956825
vt -4.049476 0.54795897
vt -4.037423 0.5348553
vt -4.0389194 0.5424506
vt -4.043181 0.5488896
vt -4.049559 0.553192
vt -4.0570827 0.5547028
vt -4.0675364 0.5521282
vt 5.104538 0.5109379
vt 5.10712 0.55544484
vt 5.10712 0.5109379
vt 5.104538 0.5554448
vt -4.106925 0.5109379
vt -4.104343 0.5554448
vt -4.104343 0.5109379
vt -4.106925 0.55544484
vt 0.18196258 5.106925
vt 0.18341792 5.104538
vt 0.18255761 5.104343
vt 0.18282288 5.10712
vt 5.1065307 0.5109379
vt 5.1091127 0.55544484
vt 5.1091127 0.5109379
vt 5.1065307 0.5554448
vt -4.108917 0.5109379
vt -4.106335 0.5554448
vt -4.1063356 0.5109379
vt -4.108917 0.55544484
vt 0.19073874 5.108917
vt 0.19219482 5.1065307
vt 0.19133377 5.106335
vt 0.19159979 5.1091127
vt 0.8084003 0.5109379
vt 0.80926126 0.55544484
vt 0.8092613 0.5109379
vt 0.8084002 0.55544484
vt 0.8171772 0.5109379
vt 0.8180374 0.55544484
vt 0.81803745 0.5109379
vt 0.8171771 0.55544484
vt 0.8092613 5.108917
vt 0.8078052 5.1065307
vt 0.8084003 5.1091127
vt 0.80866635 5.1063356
vt 0.81803745 5.106925
vt 0.8165821 5.104538
vt 0.8171772 5.10712
vt 0.8174424 5.104343
vt 0.22381854 5.0645895
vt 0.22018352 5.051125
vt 0.22018352 5.078054
vt 0.21025252 5.08791
vt 0.2102525 5.041269
vt 0.1966865 5.091518
vt 0.19668648 5.037661
vt 0.18312049 5.08791
vt 0.18312049 5.041269
vt 0.17318949 5.078054
vt 0.17318949 5.051125
vt 0.16955447 5.0645895
vt 0.7738328 0.541309
vt 0.76533985 0.543997
vt 0.7738328 0.543997
vt 0.76533985 0.541309
vt 0.7738328 0.538621
vt 0.76533985 0.538621
vt 0.22616723 5.0522847
vt 0.23466018 5.04921
vt 0.22616723 5.04921
vt 0.23466018 5.0522847
vt 0.7738328 5.04921
vt 0.76533985 5.0522847
vt 0.7738328 5.0522847
vt 0.76533985 5.047673
vt 0.7738328 5.047673
vt 0.7738328 0.5470172
vt 0.76533985 0.5497052
vt 0.7738328 0.5497052
vt 0.76533985 0.5470172
vt 0.7738328 0.5443292
vt 0.76533985 0.5443292
vt 0.22616723 5.0642185
vt 0.23466018 5.0611444
vt 0.22616723 5.0611444
vt 0.23466018 5.0642185
vt 0.7738328 5.0611444
vt 0.76533985 5.0642185
vt 0.7738328 5.0642185
vt 0.76533985 5.059607
vt 0.7738328 5.059607
vt 5.04921 0.543997
vt 5.0522847 0.538621
vt 5.047673 0.538621
vt 5.053822 0.541309
vt 5.0522847 0.543997
vt 5.0611444 0.5497052
vt 5.0642185 0.5443292
vt 5.059607 0.5443293
vt 5.065756 0.5470172
vt 5.0642185 0.5497052
vt 0.84128714 0.543997
vt 0.83279425 0.541309
vt 0.83279425 0.543997
vt 0.84128714 0.541309
vt 0.83279425 0.538621
vt 0.84128714 0.538621
vt 0.16720575 5.0522847
vt 0.15871283 5.04921
vt 0.15871283 5.0522847
vt 0.16720575 5.04921
vt 0.84128714 5.0522847
vt 0.83279425 5.04921
vt 0.83279425 5.0522847
vt 0.84128714 5.047673
vt 0.83279425 5.047673
vt 0.84128714 0.5497052
vt 0.8327942 0.5470172
vt 0.8327942 0.5497052
vt 0.84128714 0.5470172
vt 0.8327942 0.5443292
vt 0.84128714 0.5443292
vt 0.16720578 5.0642185
vt 0.15871283 5.0611444
vt 0.15871283 5.0642185
vt 0.16720575 5.0611444
vt 0.84128714 5.0642185
vt 0.83279425 5.0611444
vt 0.8327942 5.0642185
vt 0.84128714 5.059607
vt 0.83279425 5.059607
vt -4.0522847 0.538621
vt -4.04921 0.543997
vt -4.047673 0.538621
vt -4.053822 0.541309
vt -4.0522847 0.543997
vt -4.0642185 0.5443292
vt -4.0611444 0.5497052
vt -4.059607 0.5443293
vt -4.065756 0.5470172
vt -4.0642185 0.5497052
vt 0.19010517 5.101877
vt 0.2032679 5.09756
vt 0.19010517 5.09756
vt 0.2032679 5.101877
vt 0.8098948 0.5586797
vt 0.79673207 0.55572855
vt 0.79673207 0.5586797
vt 0.8098948 0.55572855
vt -4.09756 0.56193256
vt -4.105099 0.5586797
vt -4.101877 0.56193256
vt -4.105099 0.55572855
vt -4.09756 0.55572855
vt 5.101877 0.56193256
vt 5.09756 0.55572855
vt 5.09756 0.56193256
vt 5.105099 0.55572855
vt 5.105099 0.5586797
vt 0.2032679 0.56193256
vt 0.19010517 0.55572855
vt 0.19010517 0.56193256
vt 0.2032679 0.55572855
vt 0.2032679 5.101877
vt 0.19010517 5.105099
vt 0.2032679 5.105099
vt 0.19010517 5.101877
vt 0.7789377 0.51865375
vt 0.76890355 0.5419531
vt 0.7789377 0.5419531
vt 0.76890355 0.51865375
vt 0.8377234 0.51865375
vt 0.8276893 0.5419531
vt 0.8377234 0.5419531
vt 0.8276893 0.51865375
vt 0.7708358 5.091119
vt 0.7789377 5.102449
vt 0.78086996 5.100389
vt 0.76890355 5.093179
vt -4.100389 0.51865375
vt -4.102449 0.5419531
vt -4.100389 0.5419531
vt -4.102449 0.51865375
vt 0.21913004 5.100389
vt 0.23109645 5.093179
vt 0.22916415 5.091119
vt 0.22106233 5.102449
vt 5.091119 0.5419531
vt 5.093179 0.51865375
vt 5.091119 0.51865375
vt 5.093179 0.5419531
vt -4.091119 0.51865375
vt -4.093179 0.5419531
vt -4.091119 0.5419531
vt -4.093179 0.51865375
vt 0.16420889 5.091119
vt 0.17231074 5.102449
vt 0.174243 5.100389
vt 0.16227663 5.093179
vt 5.100389 0.5419531
vt 5.102449 0.51865375
vt 5.100389 0.51865375
vt 5.102449 0.5419531
vt 0.825757 5.100389
vt 0.8377234 5.093179
vt 0.8357911 5.091119
vt 0.8276893 5.102449
vt 0.7690261 5.0831323
vt 0.8033135 5.0831323
vt 0.7690281 5.0344872
vt 0.7690253 5.089773
vt 0.8375989 5.0344872
vt 0.7738327 5.0955286
vt 0.8376008 5.0831323
vt 0.78086996 5.1012106
vt 0.8376016 5.089773
vt 0.78913647 5.1048713
vt 0.8327942 5.0955286
vt 0.7985853 5.1070433
vt 0.825757 5.1012106
vt 0.8080416 5.1070433
vt 0.81749046 5.1048713
vt 0.20299089 5.049476
vt 0.23097405 5.0831323
vt 0.23097223 5.049476
vt 0.20299089 5.0675364
vt 0.20143527 5.0675364
vt 0.162399 5.0831323
vt 0.19193572 5.0675364
vt 0.19038177 5.0675364
vt 0.16240078 5.049476
vt 0.1903817 5.049476
vt 0.162399 5.0831323
vt 0.23097464 5.089773
vt 0.23097405 5.0831323
vt 0.1623984 5.089773
vt 0.16720578 5.0955286
vt 0.22616726 5.0955286
vt 0.21913004 5.1012106
vt 0.174243 5.1012106
vt 0.21086353 5.1048713
vt 0.18250954 5.1048713
vt 0.20141467 5.1070433
vt 0.1919584 5.1070433
vt 0.19193572 0.55212826
vt 0.20143521 0.5295683
vt 0.19193566 0.5295683
vt 0.20143527 0.55212826
vt 0.20143631 5.0383096
vt 0.19193566 5.052732
vt 0.20143521 5.052732
vt 0.1919367 5.0383096
vt -4.0383096 0.52956825
vt -4.052732 0.5295683
vt -4.037424 0.5348559
vt -4.0389204 0.5424514
vt -4.0431824 0.54889053
vt -4.0495605 0.553193
vt -4.057084 0.5547038
vt -4.0675364 0.55212826
vt 5.0675364 0.55212826
vt 5.052732 0.5295683
vt 5.057083 0.5547029
vt 5.049559 0.553192
vt 5.043181 0.5488896
vt 5.0389194 0.5424506
vt 5.037423 0.5348553
vt 5.0383096 0.52956825
vt 0.8171116 0.548314
vt 0.8091957 0.54907537
vt 0.81711155 0.5490754
vt 0.80919576 0.548314
vt 0.18288845 5.1068354
vt 0.1912682 5.10662
vt 0.18335235 5.1048226
vt 0.1908043 5.1086326
vt 0.81664765 5.1048226
vt 0.80919576 5.1086326
vt 0.8171116 5.106836
vt 0.8087318 5.10662
vt 0.81711155 0.5434925
vt 0.80919576 0.5442539
vt 0.81711155 0.5442539
vt 0.80919576 0.5434925
vt 0.18288845 5.1068354
vt 0.1912682 5.10662
vt 0.18335235 5.1048226
vt 0.19080424 5.1086326
vt 0.81664765 5.1048226
vt 0.80919576 5.1086326
vt 0.81711155 5.1068354
vt 0.8087318 5.10662
vt 0.8171116 0.538671
vt 0.80919576 0.53943235
vt 0.81711155 0.5394324
vt 0.80919576 0.53867096
vt 0.18288845 5.1068354
vt 0.1912682 5.10662
vt 0.18335235 5.1048226
vt 0.19080424 5.108633
vt 0.81664765 5.1048226
vt 0.80919576 5.108633
vt 0.8171116 5.106836
vt 0.8087318 5.10662
vt 0.81711155 0.55313545
vt 0.80919576 0.55389684
vt 0.81711155 0.55389684
vt 0.80919576 0.55313545
vt 0.18288845 5.1068354
vt 0.1912682 5.10662
vt 0.18335235 5.1048226
vt 0.19080424 5.1086326
vt 0.81664765 5.1048226
vt 0.80919576 5.1086326
vt 0.81711155 5.1068354
vt 0.8087318 5.10662
vt 0.8171116 0.5337258
vt 0.8091957 0.5344872
vt 0.81711155 0.5344872
vt 0.80919576 0.53372574
vt 0.18288845 5.1068354
vt 0.19126818 5.10662
vt 0.18335232 5.1048226
vt 0.1908043 5.1086326
vt 0.81664765 5.1048226
vt 0.80919576 5.108633
vt 0.8171116 5.106836
vt 0.8087318 5.10662
vt 0.81711155 0.5289043
vt 0.8091957 0.52966565
vt 0.81711155 0.5296657
vt 0.8091957 0.5289043
vt 0.18288845 5.1068354
vt 0.19126818 5.10662
vt 0.18335232 5.1048226
vt 0.1908043 5.1086326
vt 0.81664765 5.1048226
vt 0.8091957 5.1086326
vt 0.81711155 5.1068354
vt 0.8087318 5.10662
vt 0.8171117 0.52408284
vt 0.80919576 0.5248442
vt 0.8171116 0.5248442
vt 0.8091958 0.52408284
vt 0.18288839 5.1068354
vt 0.19126815 5.10662
vt 0.18335235 5.1048226
vt 0.19080424 5.1086326
vt 0.81664765 5.1048226
vt 0.8091958 5.108633
vt 0.8171117 5.106836
vt 0.80873185 5.10662
vt 0.8171116 0.51926136
vt 0.8091958 0.5200227
vt 0.8171116 0.52002275
vt 0.8091958 0.51926136
vt 0.18288839 5.1068354
vt 0.19126815 5.10662
vt 0.18335235 5.1048226
vt 0.19080418 5.108633
vt 0.81664765 5.1048226
vt 0.8091958 5.108633
vt 0.8171116 5.1068354
vt 0.80873185 5.10662
vt 0.8171116 0.5144398
vt 0.8091958 0.5152012
vt 0.81711155 0.5152012
vt 0.8091958 0.51443976
vt 0.18288845 5.1068354
vt 0.1912682 5.10662
vt 0.18335235 5.1048226
vt 0.19080418 5.108633
vt 0.81664777 5.1048226
vt 0.8091958 5.108633
vt 0.8171116 5.106836
vt 0.8087318 5.10662
vt 0.22616723 0.543997
vt 0.23466018 0.538621
vt 0.22616723 0.538621
vt 0.23466018 0.543997
vt 0.22616723 0.5497052
vt 0.23466018 0.5443293
vt 0.22616723 0.5443293
vt 0.23466018 0.5497052
vt 0.16720575 0.543997
vt 0.15871283 0.538621
vt 0.15871283 0.543997
vt 0.16720575 0.538621
vt 0.16720575 0.5497052
vt 0.15871283 0.5443293
vt 0.15871283 0.5497052
vt 0.16720575 0.5443293
vt 5.0523534 0.5097861
vt 5.043396 0.5
vt 5.043396 0.5097861
vt 5.0523534 0.5
vt 5.0645895 0.5097861
vt 5.0645895 0.5
vt 5.0768256 0.5097862
vt 5.0768256 0.5
vt 5.085783 0.5097862
vt 5.085783 0.5
vt 0.19668648 0.5
vt 0.20901507 0.5097861
vt 0.20901507 0.5
vt 0.19668648 0.5097861
vt 0.18435791 0.5
vt 0.18435791 0.5097861
vt -4.0523534 0.5
vt -4.043396 0.5097861
vt -4.043396 0.5
vt -4.0523534 0.5097861
vt -4.0645895 0.5
vt -4.0645895 0.5097861
vt -4.0768256 0.5
vt -4.0768256 0.5097862
vt -4.085783 0.5
vt -4.085783 0.5097862
vt 0.8033135 0.5
vt 0.8156421 0.5097862
vt 0.8156421 0.5
vt 0.8033135 0.5097862
vt 0.79098487 0.5
vt 0.79098487 0.5097862
vn 0.86602545 -2.7706918E-07 0.4999999
vn 0.4999999 2.7706918E-07 0.86602545
vn 0.5 3.0018188E-07 0.86602545
vn 0.86602545 -3.0322846E-07 0.5
vn 1 0 -1.9642037E-07
vn 1 0 -1.3749425E-07
vn 0.86602515 0 -0.50000054
vn 0.86602515 0 -0.5000005
vn 0.4999995 0 -0.8660257
vn 0.4999996 0 -0.8660256
vn -0 0 1
vn 0.5 3.0018188E-07 0.86602545
vn 0.4999999 2.7706918E-07 0.86602545
vn -0 0 1
vn -0.50000006 0 0.8660253
vn -0.50000006 0 0.8660253
vn -0.8660253 -1.6560584E-07 0.50000006
vn -0.50000006 0 0.8660253
vn -0.50000006 0 0.8660253
vn -0.8660253 -1.8899152E-07 0.5000002
vn -1 0 1.8659931E-07
vn -1 0 1.2767322E-07
vn -0.8660255 0 -0.4999998
vn -0.8660255 0 -0.49999985
vn -0.50000024 3.1352596E-07 -0.86602527
vn -0.5000003 3.0018177E-07 -0.86602527
vn -4.9105086E-07 0 -1
vn -0.5000003 3.0018177E-07 -0.86602527
vn -0.50000024 3.1352596E-07 -0.86602527
vn -5.303349E-07 0 -1
vn 0.4999996 0 -0.8660256
vn 0.4999995 0 -0.8660257
vn 1 -3.532828E-06 8.646565E-05
vn 1 -3.532828E-06 8.646565E-05
vn 1 3.027952E-07 0.000112750604
vn 1 -3.5328285E-06 8.646564E-05
vn 1 -3.5328471E-06 5.2830503E-05
vn 1 0 4.0368748E-05
vn 1 0 4.0368748E-05
vn 0.7038314 4.2058144E-07 -0.7103671
vn 0.76986194 4.4858297E-07 -0.63821054
vn 0.7038311 4.985435E-07 -0.7103675
vn 0.76986223 3.619691E-07 -0.6382102
vn 0.7038311 4.985435E-07 -0.7103675
vn 0.52378833 4.1823878E-07 -0.8518484
vn 0.7038314 4.2058144E-07 -0.7103671
vn 0.52378863 5.4554437E-07 -0.85184824
vn 0.31801724 4.004381E-07 -0.94808495
vn 0.3180168 3.037492E-07 -0.9480851
vn 0.11356328 2.413587E-07 -0.9935308
vn 0.11356326 2.45708E-07 -0.9935308
vn -0.113563664 2.4570798E-07 -0.9935307
vn -0.11356377 2.4135872E-07 -0.9935307
vn -0.31801718 3.5083247E-07 -0.94808495
vn -0.31801695 3.0374932E-07 -0.948085
vn -0.5237885 3.7291753E-07 -0.85184836
vn -0.5237887 4.3312417E-07 -0.85184824
vn -0.7038311 4.099459E-07 -0.7103673
vn -0.7038312 3.7821744E-07 -0.71036726
vn -1 2.5231998E-07 0.00011240475
vn -1 2.5231998E-07 0.00011240474
vn -1 2.5231998E-07 0.00011240474
vn -1 -3.5328292E-06 8.646567E-05
vn -1 -3.5328455E-06 5.269402E-05
vn -1 -6.8770044E-07 4.0510393E-05
vn -1 -6.8770044E-07 4.0510393E-05
vn 1.0618831E-07 0.70710886 0.7071046
vn 2.0744164E-06 0.9238793 0.38268402
vn -0 0.7071077 0.7071058
vn 2.2132783E-06 0.92388207 0.3826773
vn 2.810358E-06 0.99976844 -0.021522133
vn 2.9508367E-06 0.9997682 -0.021528834
vn 5.1889555E-07 0.9714812 -0.23711655
vn 3.0864297E-07 0.9714812 -0.23711652
vn -0 -6.2402813E-07 1
vn -0 -2.355627E-07 1
vn -1.0124371E-07 -1.719181E-07 1
vn -0 -6.876726E-07 1
vn -0.7038312 3.7821744E-07 -0.71036726
vn -0.76986164 3.8419603E-07 -0.6382108
vn -0.76986176 3.5532472E-07 -0.6382106
vn -0.7038311 4.099459E-07 -0.7103673
vn 5.1130657E-05 0.5224341 0.85267967
vn -3.612112E-06 0.5226173 0.85256743
vn -1.2508507E-07 0.5226211 0.8525651
vn -4.4036783E-06 0.5226114 0.852571
vn 6.6341863E-06 0.5225873 0.8525858
vn 1.1213543E-06 0.52261364 0.8525696
vn -0 0.5226098 0.85257196
vn 3.7063558E-07 0.5226119 0.85257065
vn 1.0202867E-06 0.52261484 0.8525689
vn 5.6407475E-07 0.5226154 0.85256857
vn 1.127885E-06 0.92387974 0.38268304
vn 5.1030343E-05 0.70711154 0.70710194
vn 5.4174954E-05 0.70710003 0.7071135
vn -1.4239943E-06 0.9238769 0.38268995
vn -2.2375734E-05 0.9997695 -0.021471208
vn -2.2861936E-05 0.99976987 -0.02145498
vn -3.472456E-05 0.9715072 -0.23701026
vn -3.3942208E-05 0.9715071 -0.23701032
vn 1 -5.0780164E-07 -3.7046377E-07
vn 1 -5.078016E-07 -3.7046374E-07
vn 1 -5.078016E-07 -3.7046374E-07
vn 1 -4.064662E-07 2.2491058E-06
vn 1 -4.064662E-07 2.2491058E-06
vn 1 1.2504792E-06 2.0061907E-06
vn 1 -1.2379863E-07 1.2959201E-06
vn 1 -6.681548E-07 7.09704E-07
vn -1.354188E-06 0.014422467 0.99989605
vn -2.6413815E-07 -0.16673411 0.98600185
vn -0 -0.16673404 0.98600185
vn -1.394682E-06 0.014422381 0.99989605
vn -0 0.38269114 0.92387635
vn -0 0.3826909 0.92387646
vn 1.0618831E-07 0.70710886 0.7071046
vn -0 0.7071077 0.7071058
vn 0.0001024305 0.014331224 0.99989736
vn 0.00010037928 -0.16688547 0.98597634
vn 0.00010002567 -0.16688557 0.9859762
vn 0.00010208539 0.0143367555 0.99989724
vn 8.5105115E-05 0.38266852 0.92388564
vn 8.407312E-05 0.38267982 0.92388105
vn 5.4174954E-05 0.70710003 0.7071135
vn 5.1030343E-05 0.70711154 0.70710194
vn -1 2.491464E-05 3.935841E-05
vn -1 2.4914641E-05 3.9358412E-05
vn -1 2.4914636E-05 3.9358405E-05
vn -1 3.21099E-05 3.5795707E-05
vn -1 5.181469E-05 3.2910404E-05
vn -1 5.1390078E-05 6.406123E-06
vn -1 5.1390074E-05 6.4061223E-06
vn -1 5.624201E-05 1.0667122E-05
vn 0.97482365 -6.571683E-07 -0.22297747
vn 0.97482365 -6.3571116E-07 -0.22297712
vn 0.97482365 -6.580558E-07 -0.22297747
vn 0.97482365 -6.348235E-07 -0.22297707
vn -0.97482365 6.1159045E-07 0.22297747
vn -0.97482365 6.1158966E-07 0.22297747
vn -0.97482365 6.115904E-07 0.22297746
vn -0.97482365 6.1158954E-07 0.22297747
vn 5.4139505E-06 1 2.3668956E-05
vn 5.4138827E-06 1 2.3668992E-05
vn 5.4138604E-06 1 2.3669007E-05
vn 5.4139728E-06 1 2.3668943E-05
vn 0.97482365 -6.124768E-07 -0.22297713
vn 0.97482365 -6.3393554E-07 -0.22297749
vn 0.97482365 -6.115893E-07 -0.22297712
vn 0.97482365 -6.348231E-07 -0.22297749
vn -0.9748241 7.386991E-07 0.22297542
vn -0.9748238 6.38948E-07 0.22297703
vn -0.9748241 7.4282497E-07 0.22297536
vn -0.97482365 6.348224E-07 0.2229771
vn 5.0271587E-06 1 2.1978354E-05
vn 5.027221E-06 1 2.197832E-05
vn 5.027241E-06 1 2.1978307E-05
vn 5.0271374E-06 1 2.1978367E-05
vn -0.22297765 1.4649245E-07 -0.97482353
vn -0.22297283 2.4549004E-07 -0.97482467
vn -0.22297774 1.4520704E-07 -0.97482353
vn -0.22297277 2.4677547E-07 -0.97482467
vn -0.22296876 2.4420376E-07 -0.97482556
vn -0.2229785 0 -0.9748234
vn -0.22296861 2.4677303E-07 -0.97482556
vn -0.22297858 0 -0.9748233
vn -3.2802836E-06 -1 -3.7880122E-06
vn -2.5797E-06 -1 -4.2122656E-06
vn -3.5206956E-06 -1 -3.642425E-06
vn -2.3392474E-06 -1 -4.3578775E-06
vn -8.7006543E-07 -1 -3.8039525E-06
vn -8.7006543E-07 -1 -3.8039525E-06
vn -8.7006543E-07 -1 -3.803952E-06
vn -8.7006543E-07 -1 -3.803952E-06
vn -0 1 0
vn -0 1 0
vn -0 1 0
vn -0 1 0
vn -0 1 0
vn -0 1 0
vn -0 1 0
vn -0 1 0
vn -0 1 0
vn -0 1 0
vn -0 1 0
vn -0 1 0
vn 1.2228757E-07 2.8480187E-07 -1
vn 3.496551E-07 0.8660256 -0.49999976
vn 4.7194254E-07 0.8660253 -0.5000001
vn -0 4.8197256E-07 -1
vn 1.7482758E-07 -0.8660255 -0.49999985
vn 2.7673394E-07 -0.8660256 -0.49999964
vn 4.7194254E-07 0.8660253 -0.5000001
vn 5.4495246E-07 1 0
vn 5.449522E-07 1 0
vn 3.496551E-07 0.8660256 -0.49999976
vn 1.6720973E-07 -1 1.7809554E-06
vn 2.7673394E-07 -0.8660256 -0.49999964
vn 1.7482758E-07 -0.8660255 -0.49999985
vn 3.2158093E-07 -1 1.2248333E-06
vn -0 -1 2.98819E-06
vn 1.2228764E-07 -4.1624912E-07 -1
vn 3.4965495E-07 0.8660256 -0.4999996
vn 4.7194243E-07 0.8660255 -0.4999999
vn -0 0 -1
vn -0 -0.8660256 -0.4999997
vn 1.6305023E-07 -0.86602587 -0.49999923
vn 4.7194243E-07 0.8660255 -0.4999999
vn 5.449522E-07 1 0
vn 5.44952E-07 1 0
vn 3.4965495E-07 0.8660256 -0.4999996
vn -0 -1 1.4905984E-06
vn 1.6305023E-07 -0.86602587 -0.49999923
vn -0 -0.8660256 -0.4999997
vn 3.2158096E-07 -1 1.2248333E-06
vn -0 -1 2.9881908E-06
vn 1 -2.8753843E-07 -9.960626E-07
vn 1 -2.8753843E-07 -9.960625E-07
vn 1 -2.8753843E-07 -9.960625E-07
vn 1 -4.3130763E-07 -7.470473E-07
vn 1 8.626162E-07 -1.4940938E-06
vn 1 -2.875387E-07 -9.960627E-07
vn 1 -2.875387E-07 -9.960627E-07
vn 1 -2.875387E-07 -9.960627E-07
vn 1 -4.3130837E-07 -7.4704656E-07
vn 1 8.62617E-07 -1.494094E-06
vn -3.496551E-07 0.8660256 -0.49999976
vn -1.2228757E-07 2.8480187E-07 -1
vn -4.7194254E-07 0.8660253 -0.5000001
vn -0 4.764956E-07 -1
vn -1.7482758E-07 -0.8660255 -0.49999985
vn -2.7673394E-07 -0.8660256 -0.49999964
vn -4.7194254E-07 0.8660253 -0.5000001
vn -5.4495246E-07 1 0
vn -3.496551E-07 0.8660256 -0.49999976
vn -5.449522E-07 1 0
vn -2.7673394E-07 -0.8660256 -0.49999964
vn -1.6720973E-07 -1 1.7809554E-06
vn -1.7482758E-07 -0.8660255 -0.49999985
vn -3.2158093E-07 -1 1.2248333E-06
vn -0 -1 2.98819E-06
vn -3.4965495E-07 0.8660256 -0.4999996
vn -1.2228764E-07 -4.1624912E-07 -1
vn -4.7194243E-07 0.8660255 -0.4999999
vn -0 0 -1
vn -0 -0.8660256 -0.4999997
vn -1.6305023E-07 -0.86602587 -0.49999923
vn -4.7194243E-07 0.8660255 -0.4999999
vn -5.449522E-07 1 0
vn -3.4965495E-07 0.8660256 -0.4999996
vn -5.44952E-07 1 0
vn -1.6305023E-07 -0.86602587 -0.49999923
vn -0 -1 1.4905984E-06
vn -0 -0.8660256 -0.4999997
vn -3.2158096E-07 -1 1.2248333E-06
vn -0 -1 2.9881908E-06
vn -1 -2.8753843E-07 -9.960625E-07
vn -1 -2.8753843E-07 -9.960626E-07
vn -1 -2.8753843E-07 -9.960625E-07
vn -1 -4.3130763E-07 -7.470473E-07
vn -1 8.626162E-07 -1.4940938E-06
vn -1 -2.875387E-07 -9.960627E-07
vn -1 -2.875387E-07 -9.960627E-07
vn -1 -2.875387E-07 -9.960627E-07
vn -1 -4.3130837E-07 -7.4704656E-07
vn -1 8.6261696E-07 -1.494094E-06
vn -7.03234E-07 1 -2.128159E-06
vn -7.03234E-07 1 -2.128159E-06
vn -7.03234E-07 1 -2.128159E-06
vn -7.0323506E-07 1 -2.128156E-06
vn -3.5161713E-07 0 -1
vn -3.5161713E-07 0 -1
vn -3.5161713E-07 0 -1
vn -3.5161713E-07 0 -1
vn -1 0 -2.6602004E-07
vn -1 0 -2.6602004E-07
vn -1 0 -2.6602007E-07
vn -1 0 -2.2848818E-07
vn -1 0 -2.2848815E-07
vn 1 0 6.6504833E-07
vn 1 0 6.6504833E-07
vn 1 0 6.6504833E-07
vn 1 0 5.331385E-07
vn 1 0 5.3461196E-07
vn -1.758086E-07 0 1
vn -1.758086E-07 0 1
vn -1.758086E-07 0 1
vn -1.758086E-07 0 1
vn -7.4589224E-07 0.70710593 -0.70710754
vn -7.4589235E-07 0.70710605 -0.70710754
vn -7.4589235E-07 0.70710593 -0.70710754
vn -7.4589224E-07 0.70710593 -0.70710754
vn 0.6813359 1.0142828E-06 -0.73197097
vn 0.68133587 1.0377217E-06 -0.731971
vn 0.68133587 1.0624237E-06 -0.731971
vn 0.68133587 9.895807E-07 -0.73197085
vn -0.68133587 7.518307E-07 -0.7319708
vn -0.68133587 6.5969596E-07 -0.731971
vn -0.6813357 5.625954E-07 -0.7319711
vn -0.68133605 8.4893117E-07 -0.7319707
vn 5.560408E-07 -1 5.1757615E-07
vn 5.560408E-07 -1 5.1757615E-07
vn 5.560408E-07 -1 5.1757615E-07
vn 1.2355599E-06 -1 0
vn -0.7319708 1.7318027E-07 -0.681336
vn -0.7319708 1.7318027E-07 -0.681336
vn -0.7319708 1.7318027E-07 -0.681336
vn -0.7319708 1.7318024E-07 -0.681336
vn -6.176522E-07 1 1.6546129E-06
vn -6.176521E-07 1 1.6546127E-06
vn -6.176521E-07 1 1.6546127E-06
vn -6.1765184E-07 1 1.6546123E-06
vn 0.73197037 -2.5106388E-07 0.68133646
vn 0.73197037 -2.5106388E-07 0.68133646
vn 0.73197037 -2.5106388E-07 0.68133646
vn 0.7319712 -1.0537492E-07 0.6813356
vn -0.73197037 0 0.68133646
vn -0.7319703 0 0.68133646
vn -0.73197037 0 0.68133646
vn -0.7319707 0 0.68133605
vn -4.942586E-07 1 4.600678E-07
vn -4.942586E-07 1 4.6006787E-07
vn -4.942586E-07 1 4.6006787E-07
vn -4.9425824E-07 1 4.6006807E-07
vn 0.7319708 1.10414476E-07 -0.681336
vn 0.7319708 1.10414476E-07 -0.681336
vn 0.7319708 1.10414476E-07 -0.681336
vn 0.7319708 1.10414476E-07 -0.681336
vn -1.3899738E-06 -1 -3.783321E-07
vn -1.3899738E-06 -1 -3.7833203E-07
vn -1.3899738E-06 -1 -3.7833203E-07
vn -9.575829E-07 -1 3.3395693E-07
vn 8.7739477E-07 -1 3.0693235E-07
vn 8.7739477E-07 -1 3.0693235E-07
vn 8.7739477E-07 -1 3.0693235E-07
vn 1.079164E-06 -1 1.8987361E-06
vn -8.773948E-07 -1 3.0693252E-07
vn 9.126141E-07 -1 1.5056195E-06
vn -8.773948E-07 -1 3.0693252E-07
vn 9.126141E-07 -1 1.5056193E-06
vn -1.045651E-06 -1 1.7269947E-06
vn -1.0972702E-07 -1 2.4593658E-07
vn -9.3842186E-07 -1 1.4738961E-06
vn -0 -1 3.4456033E-07
vn -9.384219E-07 -1 1.4738961E-06
vn -0 -1 3.3619122E-07
vn -0 -1 3.1623304E-07
vn -2.6384265E-07 0.9748378 0.22291516
vn -1.5188296E-07 0.9748378 0.22291549
vn 1.4748493E-07 0.9748377 0.22291552
vn -5.194303E-07 0.9748378 0.22291523
vn -0 0.9748377 0.22291575
vn -1.5843716E-07 0.9748378 0.22291519
vn 2.1190324E-06 0.9748386 0.22291166
vn 5.1368083E-06 0.97483987 0.22290625
vn -2.7064462E-07 0.9748377 0.22291571
vn 1.0593701E-07 0.9748376 0.22291626
vn -0 1 -8.9924215E-06
vn -0 1 -5.175218E-06
vn -0 1 -8.992431E-06
vn -0 1 -5.2141418E-06
vn -0 1 1.7281004E-06
vn -0 1 1.8607705E-06
vn -0 1 1.8133941E-06
vn -1.2788428E-07 1 1.3852213E-06
vn -1.2794592E-07 1 -2.2327044E-06
vn -3.5131515E-07 1 -4.418465E-06
vn -3.5226668E-07 1 -9.2814696E-07
vn -9.788773E-07 1 -6.3406424E-06
vn -5.432356E-07 0.55229586 0.83364826
vn -5.432356E-07 0.55229574 0.83364826
vn -5.4323567E-07 0.5522958 0.83364826
vn -2.4876834E-07 0.55229586 0.83364815
vn 4.872042E-07 1 2.3887435E-06
vn 4.872042E-07 1 2.3887437E-06
vn 4.872042E-07 1 2.3887435E-06
vn 2.4360062E-07 1 2.5480147E-06
vn -1 -1.2614703E-05 7.751593E-05
vn -1 2.5749418E-05 8.918709E-05
vn -1 -1.2614703E-05 7.751592E-05
vn -1 3.0837964E-05 5.1204293E-05
vn -1 3.0918633E-05 5.104261E-05
vn -1 2.5749418E-05 8.918709E-05
vn -1 2.5749416E-05 8.918709E-05
vn -1 1.2708698E-05 1.45868535E-05
vn 1 -2.5917143E-05 -3.4873054E-05
vn 1 -2.5917143E-05 -3.4873046E-05
vn 1 -2.5917141E-05 -3.487305E-05
vn 1 -3.9290815E-05 -5.3530814E-05
vn 1 -3.9290815E-05 -5.3530814E-05
vn 1 -3.9939863E-05 -5.223019E-05
vn 1 -1.819946E-05 -7.231519E-05
vn 1 -1.8998971E-05 -7.204169E-05
vn -0.22297794 0.00030789888 -0.9748234
vn -0.22297794 0.0003079022 -0.9748234
vn -0.22297792 0.00030789865 -0.9748234
vn -0.22297794 0.00030790243 -0.9748234
vn -1.965212E-06 1 -9.407842E-06
vn -1.8841415E-06 1 -1.2533162E-05
vn -1.984229E-06 1 -8.674729E-06
vn -1.8651247E-06 1 -1.3266276E-05
vn 5.952018E-06 -1 2.602126E-05
vn 5.952018E-06 -1 2.602126E-05
vn 5.9520175E-06 -1 2.6021258E-05
vn 5.9520175E-06 -1 2.6021258E-05
vn -0.22300604 0 -0.9748171
vn -0.22300605 0 -0.9748171
vn -0.22300602 0 -0.9748171
vn -0.22300605 0 -0.9748171
vn -0 1 0
vn 2.40682E-07 1 -9.278442E-06
vn -0 1 2.2957738E-06
vn 2.9772758E-07 1 -1.1477585E-05
vn 1.9248944E-06 -1 1.0970247E-05
vn 1.9244924E-06 -1 1.0969467E-05
vn 1.9249887E-06 -1 1.097043E-05
vn 1.9243982E-06 -1 1.0969286E-05
vn -0.22300161 0.00029520007 -0.974818
vn -0.22297642 1.864246E-05 -0.9748239
vn -0.22300331 0.00031384276 -0.97481763
vn -0.22297469 0 -0.9748242
vn -3.9709244E-06 1 -1.7252543E-05
vn -3.7277482E-06 1 -2.6626114E-05
vn -4.0279733E-06 1 -1.5053485E-05
vn -3.6707038E-06 1 -2.8824992E-05
vn 8.9784226E-07 -1 1.6813232E-05
vn 5.1923785E-06 -1 2.5149708E-05
vn -1.09694774E-07 -1 1.4857419E-05
vn 6.1999062E-06 -1 2.7105498E-05
vn -0.22300602 0 -0.9748171
vn -0.22300602 0 -0.9748171
vn -0.22300602 0 -0.9748171
vn -0.22300602 0 -0.9748171
vn -2.5303345E-06 1 -8.914025E-06
vn -2.4898227E-06 1 -1.0475767E-05
vn -2.5398383E-06 1 -8.547638E-06
vn -2.4803192E-06 1 -1.0842119E-05
vn -1.5047668E-06 -1 1.2752061E-05
vn 4.9369223E-06 -1 2.5256415E-05
vn -3.0160095E-06 -1 9.818497E-06
vn 6.4480187E-06 -1 2.8189697E-05
vn -0.22297841 0.00031348603 -0.9748233
vn -0.22297794 0.00030825502 -0.9748234
vn -0.22297847 0.0003138387 -0.9748233
vn -0.22297794 0.0003079024 -0.9748234
vn -3.2173825E-06 1 -1.4366607E-05
vn -2.9336404E-06 1 -2.5305239E-05
vn -3.28394E-06 1 -1.1800727E-05
vn -2.8670836E-06 1 -2.7871114E-05
vn 7.6366746E-07 -1 1.47442215E-05
vn 5.416136E-06 -1 2.3775445E-05
vn -3.2784274E-07 -1 1.2625416E-05
vn 6.507646E-06 -1 2.5894251E-05
vn -0.2229785 0 -0.9748234
vn -0.22297847 0 -0.9748234
vn -0.22297849 0 -0.9748234
vn -0.2229785 0 -0.9748234
vn -2.1454446E-06 1 -1.31063325E-05
vn -1.9022369E-06 1 -2.2482303E-05
vn -2.2024935E-06 1 -1.0907009E-05
vn -1.845188E-06 1 -2.4681622E-05
vn 2.9465891E-06 -1 1.4160043E-05
vn 2.946579E-06 -1 1.4160024E-05
vn 2.9465914E-06 -1 1.4160048E-05
vn 2.9465764E-06 -1 1.4160017E-05
vn -0.22297958 0.00031383775 -0.97482306
vn -0.22297952 0.00031383682 -0.97482306
vn -0.22297956 0.00031383778 -0.97482306
vn -0.22297952 0.00031383676 -0.97482306
vn -1.9246834E-06 1 -1.0970489E-05
vn -1.924684E-06 1 -1.0970457E-05
vn -1.924683E-06 1 -1.0970496E-05
vn -1.924684E-06 1 -1.0970451E-05
vn 5.4505845E-06 -1 2.745899E-05
vn 5.808437E-06 -1 2.8153627E-05
vn 5.3666295E-06 -1 2.7296019E-05
vn 5.8923924E-06 -1 2.8316595E-05
vn -0.2230082 0 -0.9748166
vn -0.2230082 0 -0.9748166
vn -0.2230082 0 -0.9748166
vn -0.22300819 0 -0.9748165
vn 8.80956E-07 1 -2.023447E-06
vn 1.0835976E-06 1 -9.835574E-06
vn 8.334146E-07 1 -1.9066232E-07
vn 1.1311332E-06 1 -1.1668144E-05
vn 2.0489385E-06 -1 1.1512383E-05
vn 2.0484936E-06 -1 1.1511518E-05
vn 2.0490431E-06 -1 1.1512586E-05
vn 2.0483892E-06 -1 1.1511316E-05
vn -0.22300312 0.00030078433 -0.97481775
vn -0.22297741 1.8995392E-05 -0.97482365
vn -0.22300486 0.00031977997 -0.9748173
vn -0.22297569 0 -0.974824
vn -3.799251E-06 1 -1.8547902E-05
vn -3.6067515E-06 1 -2.5968247E-05
vn -3.8444123E-06 1 -1.6807064E-05
vn -3.561593E-06 1 -2.7708968E-05
vn 8.8293024E-07 -1 1.7387058E-05
vn 5.1774696E-06 -1 2.5723519E-05
vn -1.246318E-07 -1 1.5431198E-05
vn 6.1849805E-06 -1 2.7679278E-05
vn -0 0.2773499 0.96076894
vn -0 0.27735 0.96076894
vn -0 0.27734986 0.96076906
vn 1.511425E-07 0.27735007 0.96076894
vn -0 0.27735013 0.96076894
vn -0 0.2773502 0.96076894
vn -0 0.27735007 0.96076894
vn 1.5114257E-07 0.27735025 0.9607688
vn -0 0.2773499 0.96076894
vn -0 0.27735 0.96076894
vn -1.511425E-07 0.27735007 0.96076894
vn -0 0.27734986 0.96076906
vn -0 0.27735013 0.96076894
vn -0 0.2773502 0.96076894
vn -1.5114257E-07 0.27735025 0.9607688
vn -0 0.27735007 0.96076894
vn 0.8660255 -1.3306892E-07 0.4999999
vn 0.4999998 1.3306892E-07 0.8660255
vn 0.4999999 1.559312E-07 0.8660255
vn 0.86602545 -1.6080146E-07 0.49999997
vn 1 0 -2.0624135E-07
vn 1 0 -1.816888E-07
vn 0.8660251 0 -0.50000066
vn 0.86602515 0 -0.50000054
vn 0.4999995 0 -0.8660257
vn 0.49999952 0 -0.8660257
vn -0 0 1
vn 0.4999999 1.559312E-07 0.8660255
vn 0.4999998 1.3306892E-07 0.8660255
vn -0 0 1
vn -0.50000006 0 0.86602545
vn -0.5 0 0.86602545
vn -0.86602545 0 0.49999997
vn -0.5 0 0.86602545
vn -0.50000006 0 0.86602545
vn -0.8660253 0 0.50000006
vn -1 0 2.5534644E-07
vn -1 0 2.7989898E-07
vn -0.8660256 0 -0.49999976
vn -0.8660255 0 -0.4999998
vn -0.50000024 1.279276E-07 -0.86602527
vn -0.50000024 1.0329693E-07 -0.86602527
vn -3.9284066E-07 0 -1
vn -0.50000024 1.0329693E-07 -0.86602527
vn -0.50000024 1.279276E-07 -0.86602527
vn -4.419458E-07 0 -1
vn 0.49999952 0 -0.8660257
vn 0.4999995 0 -0.8660257
g Atl_gun_cal125A_x1_001_0
f 3/3/3 2/2/2 1/1/1
f 4/4/4 1/1/1 2/2/2
f 1/1/1 4/4/4 5/5/5
f 6/6/6 5/5/5 4/4/4
f 5/5/5 6/6/6 7/7/7
f 8/8/8 7/7/7 6/6/6
f 7/7/7 8/8/8 9/9/9
f 10/10/10 9/9/9 8/8/8
f 13/13/13 12/12/12 11/11/11
f 14/14/14 11/11/11 12/12/12
f 11/11/11 14/14/14 15/15/15
f 16/16/16 15/15/15 14/14/14
f 19/19/19 18/18/18 17/17/17
f 20/20/20 17/17/17 18/18/18
f 17/17/17 20/20/20 21/21/21
f 22/22/22 21/21/21 20/20/20
f 21/21/21 22/22/22 23/23/23
f 24/24/24 23/23/23 22/22/22
f 23/23/23 24/24/24 25/25/25
f 26/26/26 25/25/25 24/24/24
f 29/29/29 28/28/28 27/27/27
f 30/30/30 27/27/27 28/28/28
f 27/27/27 30/30/30 31/31/31
f 32/32/32 31/31/31 30/30/30
f 35/35/35 34/34/34 33/33/33
f 36/36/36 33/33/33 34/34/34
f 37/37/37 33/33/33 36/36/36
f 38/38/38 33/33/33 37/37/37
f 38/38/38 39/39/39 33/33/33
f 42/42/42 41/41/41 40/40/40
f 43/43/43 40/40/40 41/41/41
f 46/46/46 45/45/45 44/44/44
f 47/47/47 44/44/44 45/45/45
f 47/47/47 45/45/45 48/48/48
f 49/49/49 48/48/48 45/45/45
f 49/49/49 50/50/50 48/48/48
f 51/51/51 48/48/48 50/50/50
f 51/51/51 50/50/50 52/52/52
f 53/53/53 52/52/52 50/50/50
f 52/52/52 53/53/53 54/54/54
f 55/55/55 54/54/54 53/53/53
f 55/55/55 56/56/56 54/54/54
f 57/57/57 54/54/54 56/56/56
f 57/57/57 56/56/56 58/58/58
f 59/59/59 58/58/58 56/56/56
f 62/62/62 61/61/61 60/60/60
f 63/63/63 60/60/60 61/61/61
f 61/61/61 64/64/64 63/63/63
f 65/65/65 64/64/64 61/61/61
f 66/66/66 65/65/65 61/61/61
f 69/69/69 68/68/68 67/67/67
f 70/70/70 67/67/67 68/68/68
f 68/68/68 71/71/71 70/70/70
f 72/72/72 70/70/70 71/71/71
f 72/72/72 71/71/71 73/73/73
f 74/74/74 73/73/73 71/71/71
f 77/77/77 76/76/76 75/75/75
f 78/78/78 75/75/75 76/76/76
f 81/81/81 80/80/80 79/79/79
f 82/82/82 79/79/79 80/80/80
f 85/85/85 84/84/84 83/83/83
f 86/86/86 83/83/83 84/84/84
f 87/87/87 83/83/83 86/86/86
f 86/86/86 88/88/88 87/87/87
f 89/89/89 87/87/87 88/88/88
f 90/90/90 89/89/89 88/88/88
f 88/88/88 91/91/91 90/90/90
f 92/92/92 90/90/90 91/91/91
f 95/95/95 94/94/94 93/93/93
f 96/96/96 93/93/93 94/94/94
f 96/96/96 97/97/97 93/93/93
f 98/98/98 93/93/93 97/97/97
f 98/98/98 97/97/97 99/99/99
f 100/100/100 99/99/99 97/97/97
f 103/103/103 102/102/102 101/101/101
f 103/103/103 104/104/104 102/102/102
f 104/104/104 105/105/105 102/102/102
f 105/105/105 106/106/106 102/102/102
f 106/106/106 107/107/107 102/102/102
f 107/107/107 108/108/108 102/102/102
f 111/111/111 110/110/110 109/109/109
f 112/112/112 109/109/109 110/110/110
f 109/109/109 112/112/112 113/113/113
f 114/114/114 113/113/113 112/112/112
f 113/113/113 114/114/114 115/115/115
f 116/116/116 115/115/115 114/114/114
f 119/119/119 118/118/118 117/117/117
f 120/120/120 117/117/117 118/118/118
f 117/117/117 120/120/120 121/121/121
f 122/122/122 121/121/121 120/120/120
f 121/121/121 122/122/122 123/123/123
f 124/124/124 123/123/123 122/122/122
f 127/127/127 126/126/126 125/125/125
f 127/127/127 128/128/128 126/126/126
f 128/128/128 129/129/129 126/126/126
f 129/129/129 130/130/130 126/126/126
f 130/130/130 131/131/131 126/126/126
f 131/131/131 132/132/132 126/126/126
f 135/135/135 134/134/134 133/133/133
f 136/136/136 133/133/133 134/134/134
f 139/139/139 138/138/138 137/137/137
f 140/140/140 137/137/137 138/138/138
f 143/143/143 142/142/142 141/141/141
f 144/144/144 141/141/141 142/142/142
f 147/147/147 146/146/146 145/145/145
f 148/148/148 145/145/145 146/146/146
f 151/151/151 150/150/150 149/149/149
f 152/152/152 149/149/149 150/150/150
f 155/155/155 154/154/154 153/153/153
f 156/156/156 153/153/153 154/154/154
f 159/159/159 158/158/158 157/157/157
f 160/160/160 157/157/157 158/158/158
f 163/163/163 162/162/162 161/161/161
f 164/164/164 161/161/161 162/162/162
f 167/167/167 166/166/166 165/165/165
f 168/168/168 165/165/165 166/166/166
f 171/171/171 170/170/170 169/169/169
f 172/172/172 169/169/169 170/170/170
f 175/175/175 174/174/174 173/173/173
f 175/175/175 176/176/176 174/174/174
f 177/177/177 174/174/174 176/176/176
f 176/176/176 178/178/178 177/177/177
f 179/179/179 177/177/177 178/178/178
f 178/178/178 180/180/180 179/179/179
f 181/181/181 179/179/179 180/180/180
f 180/180/180 182/182/182 181/181/181
f 183/183/183 181/181/181 182/182/182
f 184/184/184 183/183/183 182/182/182
f 187/187/187 186/186/186 185/185/185
f 188/188/188 185/185/185 186/186/186
f 185/185/185 188/188/188 189/189/189
f 190/190/190 189/189/189 188/188/188
f 193/193/193 192/192/192 191/191/191
f 194/194/194 191/191/191 192/192/192
f 197/197/197 196/196/196 195/195/195
f 196/196/196 198/198/198 195/195/195
f 195/195/195 198/198/198 199/199/199
f 202/202/202 201/201/201 200/200/200
f 203/203/203 200/200/200 201/201/201
f 200/200/200 203/203/203 204/204/204
f 205/205/205 204/204/204 203/203/203
f 208/208/208 207/207/207 206/206/206
f 209/209/209 206/206/206 207/207/207
f 212/212/212 211/211/211 210/210/210
f 211/211/211 213/213/213 210/210/210
f 210/210/210 213/213/213 214/214/214
f 217/217/217 216/216/216 215/215/215
f 216/216/216 218/218/218 215/215/215
f 215/215/215 218/218/218 219/219/219
f 222/222/222 221/221/221 220/220/220
f 221/221/221 223/223/223 220/220/220
f 220/220/220 223/223/223 224/224/224
f 227/227/227 226/226/226 225/225/225
f 228/228/228 225/225/225 226/226/226
f 226/226/226 229/229/229 228/228/228
f 230/230/230 228/228/228 229/229/229
f 233/233/233 232/232/232 231/231/231
f 234/234/234 231/231/231 232/232/232
f 237/237/237 236/236/236 235/235/235
f 235/235/235 236/236/236 238/238/238
f 238/238/238 236/236/236 239/239/239
f 242/242/242 241/241/241 240/240/240
f 243/243/243 240/240/240 241/241/241
f 241/241/241 244/244/244 243/243/243
f 245/245/245 243/243/243 244/244/244
f 248/248/248 247/247/247 246/246/246
f 249/249/249 246/246/246 247/247/247
f 252/252/252 251/251/251 250/250/250
f 250/250/250 251/251/251 253/253/253
f 253/253/253 251/251/251 254/254/254
f 257/257/257 256/256/256 255/255/255
f 255/255/255 256/256/256 258/258/258
f 258/258/258 256/256/256 259/259/259
f 262/262/262 261/261/261 260/260/260
f 260/260/260 261/261/261 263/263/263
f 263/263/263 261/261/261 264/264/264
f 267/267/267 266/266/266 265/265/265
f 268/268/268 265/265/265 266/266/266
f 271/271/271 270/270/270 269/269/269
f 272/272/272 269/269/269 270/270/270
f 275/275/275 274/274/274 273/273/273
f 274/274/274 276/276/276 273/273/273
f 276/276/276 277/277/277 273/273/273
f 280/280/280 279/279/279 278/278/278
f 279/279/279 281/281/281 278/278/278
f 278/278/278 281/281/281 282/282/282
f 285/285/285 284/284/284 283/283/283
f 286/286/286 283/283/283 284/284/284
f 289/289/289 288/288/288 287/287/287
f 290/290/290 287/287/287 288/288/288
f 293/293/293 292/292/292 291/291/291
f 294/294/294 291/291/291 292/292/292
f 297/297/297 296/296/296 295/295/295
f 298/298/298 295/295/295 296/296/296
f 301/301/301 300/300/300 299/299/299
f 302/302/302 299/299/299 300/300/300
f 305/305/305 304/304/304 303/303/303
f 306/306/306 303/303/303 304/304/304
f 309/309/309 308/308/308 307/307/307
f 310/310/310 307/307/307 308/308/308
f 313/313/313 312/312/312 311/311/311
f 314/314/314 311/311/311 312/312/312
f 317/317/317 316/316/316 315/315/315
f 318/318/318 315/315/315 316/316/316
f 321/321/321 320/320/320 319/319/319
f 322/322/322 319/319/319 320/320/320
f 325/325/325 324/324/324 323/323/323
f 326/326/326 323/323/323 324/324/324
f 329/329/329 328/328/328 327/327/327
f 330/330/330 327/327/327 328/328/328
g Atl_gun_cal125A_x1_001_1
f 333/333/333 332/332/332 331/331/331
f 331/331/331 332/332/332 334/334/334
f 333/333/333 335/335/335 332/332/332
f 334/334/334 332/332/332 336/336/336
f 332/332/332 335/335/335 337/337/337
f 336/336/336 332/332/332 338/338/338
f 332/332/332 337/337/337 339/339/339
f 338/338/338 332/332/332 340/340/340
f 332/332/332 339/339/339 341/341/341
f 340/340/340 332/332/332 342/342/342
f 332/332/332 341/341/341 343/343/343
f 332/332/332 344/344/344 342/342/342
f 332/332/332 343/343/343 345/345/345
f 332/332/332 345/345/345 344/344/344
g Atl_gun_cal125A_x1_001_2
f 348/348/348 347/347/347 346/346/346
f 349/349/349 346/346/346 347/347/347
f 349/349/349 347/347/347 350/350/350
f 347/347/347 351/351/351 350/350/350
f 352/352/352 350/350/350 351/351/351
f 351/351/351 353/353/353 352/352/352
f 351/351/351 354/354/354 353/353/353
f 355/355/355 353/353/353 354/354/354
f 358/358/358 357/357/357 356/356/356
f 359/359/359 356/356/356 357/357/357
f 359/359/359 357/357/357 360/360/360
f 361/361/361 360/360/360 357/357/357
f 361/361/361 362/362/362 360/360/360
f 363/363/363 360/360/360 362/362/362
f 362/362/362 364/364/364 363/363/363
f 365/365/365 363/363/363 364/364/364
f 364/364/364 366/366/366 365/365/365
f 367/367/367 365/365/365 366/366/366
g Atl_gun_cal125A_x1_001_3
f 370/370/370 369/369/369 368/368/368
f 371/371/371 368/368/368 369/369/369
f 374/374/374 373/373/373 372/372/372
f 375/375/375 372/372/372 373/373/373
f 378/378/378 377/377/377 376/376/376
f 378/378/378 379/379/379 377/377/377
f 379/379/379 380/380/380 377/377/377
f 380/380/380 381/381/381 377/377/377
f 381/381/381 382/382/382 377/377/377
f 382/382/382 383/383/383 377/377/377
f 386/386/386 385/385/385 384/384/384
f 386/386/386 387/387/387 385/385/385
f 387/387/387 388/388/388 385/385/385
f 388/388/388 389/389/389 385/385/385
f 389/389/389 390/390/390 385/385/385
f 390/390/390 391/391/391 385/385/385
f 394/394/394 393/393/393 392/392/392
f 395/395/395 392/392/392 393/393/393
f 398/398/398 397/397/397 396/396/396
f 399/399/399 396/396/396 397/397/397
f 402/402/402 401/401/401 400/400/400
f 403/403/403 400/400/400 401/401/401
f 406/406/406 405/405/405 404/404/404
f 407/407/407 404/404/404 405/405/405
f 410/410/410 409/409/409 408/408/408
f 411/411/411 408/408/408 409/409/409
f 414/414/414 413/413/413 412/412/412
f 415/415/415 412/412/412 413/413/413
f 418/418/418 417/417/417 416/416/416
f 419/419/419 416/416/416 417/417/417
f 422/422/422 421/421/421 420/420/420
f 423/423/423 420/420/420 421/421/421
f 426/426/426 425/425/425 424/424/424
f 427/427/427 424/424/424 425/425/425
f 430/430/430 429/429/429 428/428/428
f 431/431/431 428/428/428 429/429/429
f 434/434/434 433/433/433 432/432/432
f 435/435/435 432/432/432 433/433/433
f 438/438/438 437/437/437 436/436/436
f 439/439/439 436/436/436 437/437/437
f 442/442/442 441/441/441 440/440/440
f 443/443/443 440/440/440 441/441/441
f 446/446/446 445/445/445 444/444/444
f 447/447/447 444/444/444 445/445/445
f 450/450/450 449/449/449 448/448/448
f 451/451/451 448/448/448 449/449/449
f 454/454/454 453/453/453 452/452/452
f 455/455/455 452/452/452 453/453/453
f 458/458/458 457/457/457 456/456/456
f 459/459/459 456/456/456 457/457/457
f 462/462/462 461/461/461 460/460/460
f 463/463/463 460/460/460 461/461/461
f 466/466/466 465/465/465 464/464/464
f 467/467/467 464/464/464 465/465/465
f 470/470/470 469/469/469 468/468/468
f 471/471/471 468/468/468 469/469/469
f 474/474/474 473/473/473 472/472/472
f 475/475/475 472/472/472 473/473/473
f 478/478/478 477/477/477 476/476/476
f 479/479/479 476/476/476 477/477/477
f 482/482/482 481/481/481 480/480/480
f 483/483/483 480/480/480 481/481/481
f 486/486/486 485/485/485 484/484/484
f 487/487/487 484/484/484 485/485/485
f 490/490/490 489/489/489 488/488/488
f 491/491/491 488/488/488 489/489/489
f 494/494/494 493/493/493 492/492/492
f 495/495/495 492/492/492 493/493/493
f 498/498/498 497/497/497 496/496/496
f 499/499/499 496/496/496 497/497/497
f 502/502/502 501/501/501 500/500/500
f 503/503/503 500/500/500 501/501/501
f 506/506/506 505/505/505 504/504/504
f 507/507/507 504/504/504 505/505/505
f 510/510/510 509/509/509 508/508/508
f 511/511/511 508/508/508 509/509/509
f 514/514/514 513/513/513 512/512/512
f 515/515/515 512/512/512 513/513/513
g Atl_gun_cal125A_x1_001_4
f 518/518/518 517/517/517 516/516/516
f 519/519/519 516/516/516 517/517/517
f 516/516/516 519/519/519 520/520/520
f 521/521/521 520/520/520 519/519/519
f 520/520/520 521/521/521 522/522/522
f 523/523/523 522/522/522 521/521/521
f 522/522/522 523/523/523 524/524/524
f 525/525/525 524/524/524 523/523/523
f 528/528/528 527/527/527 526/526/526
f 529/529/529 526/526/526 527/527/527
f 526/526/526 529/529/529 530/530/530
f 531/531/531 530/530/530 529/529/529
f 534/534/534 533/533/533 532/532/532
f 535/535/535 532/532/532 533/533/533
f 532/532/532 535/535/535 536/536/536
f 537/537/537 536/536/536 535/535/535
f 536/536/536 537/537/537 538/538/538
f 539/539/539 538/538/538 537/537/537
f 538/538/538 539/539/539 540/540/540
f 541/541/541 540/540/540 539/539/539
f 544/544/544 543/543/543 542/542/542
f 545/545/545 542/542/542 543/543/543
f 542/542/542 545/545/545 546/546/546
f 547/547/547 546/546/546 545/545/545
