g Atl_gun_cal125A_x3_barrel_001
v 0.98166966 0.43767256 4.657581
v 0.8827674 0.33501235 0.038472287
v 0.9418041 0.4775398 0.038472746
v 0.93914574 0.33501023 4.657581
v 0.9418041 0.1924855 0.038472287
v 0.98166966 0.23234847 4.657581
v 0.96983755 0.22051589 4.828912
v 0.9224124 0.33501023 4.828912
v 0.9698375 0.44950393 4.828912
v 0.98166966 0.23234847 4.657581
v 1.0843315 0.1334488 0.03847225
v 0.9418041 0.1924855 0.038472287
v 1.0843318 0.18982467 4.657582
v 1.1869937 0.23234878 4.657581
v 1.2268585 0.1924855 0.038472287
v 1.1988261 0.22051589 4.828912
v 1.0843318 0.17309096 4.828912
v 0.96983755 0.22051589 4.828912
v 1.3428868 0.59356856 -1.4638827
v 1.3220919 0.33501205 1.734418
v 1.2524533 0.5031337 1.7344192
v 1.4499838 0.33501297 -1.4638827
v 1.2524536 0.16688964 1.7344189
v 1.3428868 0.07645798 -1.4638829
v 1.0843315 0.5727724 1.7344192
v 1.3428868 0.59356856 -1.4638827
v 1.2524533 0.5031337 1.7344192
v 1.0843314 0.7006651 -1.4638827
v 0.8257761 0.59356856 -1.4638827
v 0.9162097 0.5031337 1.7344192
v 0.9162097 0.5031337 1.7344192
v 0.71867925 0.33501264 -1.463883
v 0.8257761 0.59356856 -1.4638827
v 0.84657127 0.33501142 1.734418
v 0.9162097 0.16688919 1.7344189
v 0.82577634 0.07645721 -1.4638829
v 1.0843318 0.09725159 1.7344189
v 0.82577634 0.07645721 -1.4638829
v 0.9162097 0.16688919 1.7344189
v 1.0843315 -0.03063919 -1.4638838
v 1.2524536 0.16688964 1.7344189
v 1.3428868 0.07645798 -1.4638829
v 1.2524533 0.5031337 1.7344192
v 1.0843318 0.33501205 2.0343556
v 1.0843315 0.5727724 1.7344192
v 0.9162097 0.5031337 1.7344192
v 0.9162097 0.5031337 1.7344192
v 1.0843318 0.33501205 2.0343556
v 0.84657127 0.33501142 1.734418
v 0.9162097 0.16688919 1.7344189
v 0.9162097 0.16688919 1.7344189
v 1.0843318 0.33501205 2.0343556
v 1.0843318 0.09725159 1.7344189
v 1.2524536 0.16688964 1.7344189
v 1.2524536 0.16688964 1.7344189
v 1.0843318 0.33501205 2.0343556
v 1.3220919 0.33501205 1.734418
v 1.2524533 0.5031337 1.7344192
v 1.2462512 0.33501053 4.828912
v 1.1869937 0.23234878 4.657581
v 1.1988261 0.22051589 4.828912
v 1.2295176 0.33501053 4.6575837
v 1.2268585 0.1924855 0.038472287
v 1.1988261 0.44950452 4.828912
v 1.2858955 0.33501264 0.038472287
v 1.1869937 0.43767256 4.657581
v 1.2268585 0.4775398 0.03847233
v -0.88276726 0.33501235 0.038472213
v -0.9816696 0.43767256 4.6575804
v -0.94180393 0.4775398 0.03847267
v -0.93914574 0.33501023 4.6575804
v -0.94180393 0.1924855 0.038472213
v -0.9816696 0.23234847 4.6575804
v -0.96983737 0.2205156 4.828911
v -0.92241216 0.33501023 4.828911
v -0.9698373 0.44950393 4.828911
v -1.0843315 0.1334488 0.038472176
v -0.9816696 0.23234847 4.6575804
v -0.94180393 0.1924855 0.038472213
v -1.0843316 0.18982437 4.657581
v -1.0843316 0.17309096 4.828911
v -0.96983737 0.2205156 4.828911
v -1.198826 0.2205156 4.828911
v -1.1869935 0.23234847 4.6575804
v -1.2268585 0.1924852 0.038472213
v -1.3220918 0.33501205 1.7344177
v -1.3428864 0.59356827 -1.4638827
v -1.2524532 0.50313336 1.7344186
v -1.4499835 0.33501297 -1.4638827
v -1.2524534 0.16688964 1.7344183
v -1.3428864 0.07645798 -1.4638827
v -1.3428864 0.59356827 -1.4638827
v -1.0843314 0.5727724 1.7344186
v -1.2524532 0.50313336 1.7344186
v -1.0843312 0.7006651 -1.4638827
v -0.8257761 0.59356827 -1.4638827
v -0.91620964 0.50313336 1.7344186
v -0.7186792 0.33501264 -1.463883
v -0.91620964 0.50313336 1.7344186
v -0.8257761 0.59356827 -1.4638827
v -0.84657127 0.33501142 1.7344177
v -0.91620964 0.16688919 1.7344183
v -0.8257763 0.07645706 -1.4638827
v -0.8257763 0.07645706 -1.4638827
v -1.0843318 0.09725143 1.7344183
v -0.91620964 0.16688919 1.7344183
v -1.0843314 -0.030639496 -1.4638836
v -1.2524534 0.16688964 1.7344183
v -1.3428864 0.07645798 -1.4638827
v -1.2524532 0.50313336 1.7344186
v -1.0843314 0.5727724 1.7344186
v -1.0843319 0.33501142 2.0343556
v -0.91620964 0.50313336 1.7344186
v -0.91620964 0.50313336 1.7344186
v -0.84657127 0.33501142 1.7344177
v -1.0843319 0.33501142 2.0343556
v -0.91620964 0.16688919 1.7344183
v -0.91620964 0.16688919 1.7344183
v -1.0843318 0.09725143 1.7344183
v -1.0843319 0.33501142 2.0343556
v -1.2524534 0.16688964 1.7344183
v -1.2524534 0.16688964 1.7344183
v -1.3220918 0.33501205 1.7344177
v -1.0843319 0.33501142 2.0343556
v -1.2524532 0.50313336 1.7344186
v -1.1869935 0.23234847 4.6575804
v -1.246251 0.33501053 4.828911
v -1.198826 0.2205156 4.828911
v -1.2295173 0.33501023 4.6575828
v -1.198826 0.44950452 4.828911
v -1.2268585 0.1924852 0.038472213
v -1.1869935 0.43767256 4.6575804
v -1.2858955 0.33501264 0.038472213
v -1.2268585 0.4775398 0.03847225
v 0.2015648 0.33501235 0.03847244
v 0.102663055 0.43767166 4.657581
v 0.14252855 0.4775398 0.038473014
v 0.14518644 0.3350093 4.657581
v 0.14252855 0.1924855 0.03847244
v 0.102663055 0.23234786 4.657581
v 0.11449529 0.22051483 4.828912
v 0.16192056 0.3350093 4.828912
v 0.11449529 0.4495033 4.828912
v 9.754717E-07 0.1334488 0.038472403
v 0.102663055 0.23234786 4.657581
v 0.14252855 0.1924855 0.03847244
v 9.754717E-07 0.18982376 4.657582
v 9.754717E-07 0.17309035 4.828912
v 0.11449529 0.22051483 4.828912
v -0.11449335 0.22051483 4.828912
v -0.10266111 0.23234786 4.657581
v -0.14252566 0.1924852 0.03847244
v -0.23775956 0.33501175 1.7344177
v -0.25855443 0.59356827 -1.4638824
v -0.16812035 0.50313336 1.7344192
v -0.36565107 0.33501297 -1.4638824
v -0.16812131 0.16688949 1.7344186
v -0.25855443 0.07645798 -1.4638826
v -0.25855443 0.59356827 -1.4638824
v 9.754717E-07 0.572772 1.7344192
v -0.16812035 0.50313336 1.7344192
v 9.754717E-07 0.7006651 -1.4638821
v 0.25855637 0.59356827 -1.4638824
v 0.16812326 0.50313336 1.7344192
v 0.36565307 0.33501264 -1.4638827
v 0.16812326 0.50313336 1.7344192
v 0.25855637 0.59356827 -1.4638824
v 0.23776151 0.33501112 1.7344177
v 0.16812326 0.16688888 1.7344186
v 0.25855637 0.07645706 -1.4638826
v 0.25855637 0.07645706 -1.4638826
v 9.754717E-07 0.097251125 1.7344186
v 0.16812326 0.16688888 1.7344186
v 9.754717E-07 -0.030639496 -1.4638835
v -0.16812131 0.16688949 1.7344186
v -0.25855443 0.07645798 -1.4638826
v -0.16812035 0.50313336 1.7344192
v 9.754717E-07 0.572772 1.7344192
v 9.754717E-07 0.33501112 2.0343556
v 0.16812326 0.50313336 1.7344192
v 0.16812326 0.50313336 1.7344192
v 0.23776151 0.33501112 1.7344177
v 9.754717E-07 0.33501112 2.0343556
v 0.16812326 0.16688888 1.7344186
v 0.16812326 0.16688888 1.7344186
v 9.754717E-07 0.097251125 1.7344186
v 9.754717E-07 0.33501112 2.0343556
v -0.16812131 0.16688949 1.7344186
v -0.16812131 0.16688949 1.7344186
v -0.23775956 0.33501175 1.7344177
v 9.754717E-07 0.33501112 2.0343556
v -0.16812035 0.50313336 1.7344192
v -0.10266111 0.23234786 4.657581
v -0.16191861 0.3350099 4.828912
v -0.11449335 0.22051483 4.828912
v -0.1451845 0.3350093 4.6575837
v -0.11449335 0.44950363 4.828912
v -0.14252566 0.1924852 0.03847244
v -0.10266111 0.43767166 4.657581
v -0.20156285 0.33501264 0.03847244
v -0.14252566 0.4775398 0.038472556
v 1.2268585 0.4775398 0.03847233
v 1.0843316 0.48019576 4.657582
v 1.0843314 0.5365767 0.038472746
v 1.1869937 0.43767256 4.657581
v 0.9418041 0.4775398 0.038472746
v 1.1988261 0.44950452 4.828912
v 0.98166966 0.43767256 4.657581
v 1.0843318 0.49692917 4.828914
v 0.9698375 0.44950393 4.828912
v -1.0843315 0.48019513 4.657581
v -1.2268585 0.4775398 0.03847225
v -1.0843314 0.5365767 0.03847267
v -1.1869935 0.43767256 4.6575804
v -0.94180393 0.4775398 0.03847267
v -1.198826 0.44950452 4.828911
v -0.9816696 0.43767256 4.6575804
v -1.0843316 0.49692884 4.8289137
v -0.9698373 0.44950393 4.828911
v 9.754717E-07 0.48019454 4.657582
v -0.14252566 0.4775398 0.038472556
v 9.754717E-07 0.5365767 0.038473014
v -0.10266111 0.43767166 4.657581
v 0.14252855 0.4775398 0.038473014
v -0.11449335 0.44950363 4.828912
v 0.102663055 0.43767166 4.657581
v 9.754717E-07 0.49692795 4.828914
v 0.11449529 0.4495033 4.828912
v 1.2462512 0.33501053 4.828912
v 1.1577669 0.40844497 4.8636885
v 1.1988261 0.44950452 4.828912
v 1.188185 0.3350099 4.8636885
v 1.0843318 0.43886214 4.863691
v 1.1988261 0.22051589 4.828912
v 1.0843318 0.49692917 4.828914
v 1.1577672 0.2615744 4.8636885
v 1.0108967 0.40844497 4.8636885
v 1.0843318 0.17309096 4.828912
v 0.9698375 0.44950393 4.828912
v 1.0843318 0.23115645 4.8636885
v 0.98047864 0.3350096 4.8636885
v 0.96983755 0.22051589 4.828912
v 0.9224124 0.33501023 4.828912
v 1.0108967 0.2615744 4.8636885
v -1.246251 0.33501053 4.828911
v -1.1577668 0.40844467 4.8636875
v -1.1881849 0.3350096 4.8636875
v -1.198826 0.44950452 4.828911
v -1.198826 0.2205156 4.828911
v -1.0843316 0.43886185 4.8636894
v -1.157767 0.2615744 4.8636875
v -1.0843316 0.49692884 4.8289137
v -1.0843316 0.17309096 4.828911
v -1.0108966 0.40844497 4.8636875
v -1.0843316 0.23115645 4.8636875
v -0.9698373 0.44950393 4.828911
v -0.96983737 0.2205156 4.828911
v -0.98047847 0.3350096 4.8636875
v -1.0108966 0.2615744 4.8636875
v -0.92241216 0.33501023 4.828911
v -0.16191861 0.3350099 4.828912
v -0.07343481 0.40844405 4.8636885
v -0.10385225 0.335009 4.8636885
v -0.11449335 0.44950363 4.828912
v -0.11449335 0.22051483 4.828912
v 9.754717E-07 0.43886122 4.86369
v -0.07343481 0.26157364 4.8636885
v 9.754717E-07 0.49692795 4.828914
v 9.754717E-07 0.17309035 4.828912
v 0.073435806 0.40844434 4.8636885
v 9.754717E-07 0.2311557 4.8636885
v 0.11449529 0.4495033 4.828912
v 0.11449529 0.22051483 4.828912
v 0.103854194 0.335009 4.8636885
v 0.073435806 0.26157364 4.8636885
v 0.16192056 0.3350093 4.828912
v 1.188185 0.3350099 4.8636885
v 1.0843316 0.33501083 4.0980334
v 1.1577669 0.40844497 4.8636885
v 1.1577672 0.2615744 4.8636885
v 1.1577669 0.40844497 4.8636885
v 1.0843316 0.33501083 4.0980334
v 1.0843318 0.43886214 4.863691
v 1.0108967 0.40844497 4.8636885
v 1.0108967 0.40844497 4.8636885
v 1.0843316 0.33501083 4.0980334
v 0.98047864 0.3350096 4.8636885
v 1.0108967 0.2615744 4.8636885
v 1.0108967 0.2615744 4.8636885
v 1.0843316 0.33501083 4.0980334
v 1.0843318 0.23115645 4.8636885
v 1.1577672 0.2615744 4.8636885
v -1.5388511 3.0517577E-07 -0.8192164
v 1.5388513 0.4096083 -0.70946205
v -1.5388511 0.4096083 -0.70946205
v 1.5388513 7.629394E-07 -0.8192164
v -1.5388511 -0.409608 -0.7094621
v 1.5388513 -0.409608 -0.7094621
v 1.5388513 0.4096083 -0.70946205
v -1.5388511 0.7094612 -0.40960822
v -1.5388511 0.4096083 -0.70946205
v 1.5388513 0.7094612 -0.4096082
v -1.5388513 0.81921494 -4.196167E-07
v 1.5388513 0.81921524 -3.4332274E-07
v -1.5388513 0.7094609 0.40960753
v 1.5388514 0.7094609 0.40960753
v -1.5388513 0.40960768 0.70946157
v 1.5388514 0.409608 0.70946175
v 1.5388514 0.409608 0.70946175
v -1.5388513 -1.5258789E-07 0.8192151
v -1.5388513 0.40960768 0.70946157
v 1.5388514 1.5258789E-07 0.8192155
v -1.5388513 -0.40960753 0.7094613
v 1.5388514 -0.40960753 0.70946145
v 1.5388514 -0.40960753 0.70946145
v -1.5388513 -0.7094615 0.40960723
v -1.5388513 -0.40960753 0.7094613
v 1.5388514 -0.7094615 0.40960738
v -1.5388513 -0.81921613 -6.1035155E-07
v 1.5388513 -0.819216 -5.340576E-07
v -1.5388511 -0.7094616 -0.40960845
v 1.5388513 -0.7094616 -0.40960842
v -1.5388511 -0.409608 -0.7094621
v 1.5388513 -0.409608 -0.7094621
v -1.1881849 0.3350096 4.8636875
v -1.1577668 0.40844467 4.8636875
v -1.0843316 0.33501083 4.0980334
v -1.157767 0.2615744 4.8636875
v -1.1577668 0.40844467 4.8636875
v -1.0843316 0.43886185 4.8636894
v -1.0843316 0.33501083 4.0980334
v -1.0108966 0.40844497 4.8636875
v -1.0108966 0.40844497 4.8636875
v -0.98047847 0.3350096 4.8636875
v -1.0843316 0.33501083 4.0980334
v -1.0108966 0.2615744 4.8636875
v -1.0108966 0.2615744 4.8636875
v -1.0843316 0.23115645 4.8636875
v -1.0843316 0.33501083 4.0980334
v -1.157767 0.2615744 4.8636875
v -0.10385225 0.335009 4.8636885
v -0.07343481 0.40844405 4.8636885
v 9.754717E-07 0.33501053 4.0980334
v -0.07343481 0.26157364 4.8636885
v -0.07343481 0.40844405 4.8636885
v 9.754717E-07 0.43886122 4.86369
v 9.754717E-07 0.33501053 4.0980334
v 0.073435806 0.40844434 4.8636885
v 0.073435806 0.40844434 4.8636885
v 0.103854194 0.335009 4.8636885
v 9.754717E-07 0.33501053 4.0980334
v 0.073435806 0.26157364 4.8636885
v 0.073435806 0.26157364 4.8636885
v 9.754717E-07 0.2311557 4.8636885
v 9.754717E-07 0.33501053 4.0980334
v -0.07343481 0.26157364 4.8636885
vt -2.782804 0.54150635
vt -2.8523314 0.5399464
vt -2.8523314 0.5421122
vt -2.782804 0.5399463
vt -2.8523314 0.5377805
vt -2.782804 0.5383863
vt -2.7802253 0.53820646
vt -2.7802253 0.5399463
vt -2.7802253 0.5416861
vt 0.78842646 3.782804
vt 0.78686947 3.8523314
vt 0.789031 3.8523314
vt 0.7868695 3.782804
vt 0.78531253 3.782804
vt 0.7847079 3.8523314
vt 0.7851331 3.7802253
vt 0.7868695 3.7802253
vt 0.7886059 3.7802253
vt 3.874945 0.54387534
vt 3.826804 0.5399464
vt 3.826804 0.5425011
vt 3.874945 0.5399464
vt 3.826804 0.5373916
vt 3.874945 0.5360174
vt 0.21313053 3.826804
vt 0.21705174 3.874945
vt 0.21568021 3.826804
vt 0.21313053 3.874945
vt 0.20920935 3.874945
vt 0.21058083 3.826804
vt -2.826804 0.5425011
vt -2.874945 0.5399464
vt -2.874945 0.54387534
vt -2.826804 0.5399463
vt -2.826804 0.5373916
vt -2.874945 0.5360174
vt 0.78686947 3.826804
vt 0.7907907 3.874945
vt 0.7894192 3.826804
vt 0.78686947 3.8749452
vt 0.78431976 3.826804
vt 0.78294826 3.874945
vt 0.21568021 3.826804
vt 0.21313053 3.8222892
vt 0.21313053 3.826804
vt 0.21058083 3.826804
vt -2.826804 0.5425011
vt -2.8222892 0.5399464
vt -2.826804 0.5399463
vt -2.826804 0.5373916
vt 0.7894192 3.826804
vt 0.78686947 3.8222892
vt 0.78686947 3.826804
vt 0.78431976 3.826804
vt 3.826804 0.5373916
vt 3.8222892 0.5399464
vt 3.826804 0.5399464
vt 3.826804 0.5425011
vt 3.7802253 0.5399463
vt 3.782804 0.5383863
vt 3.7802253 0.53820646
vt 3.782804 0.5399463
vt 3.8523314 0.5377805
vt 3.7802253 0.5416862
vt 3.8523314 0.5399464
vt 3.782804 0.54150635
vt 3.8523314 0.5421122
vt 3.8523314 0.5399464
vt 3.782804 0.54150635
vt 3.8523314 0.5421122
vt 3.782804 0.5399463
vt 3.8523314 0.5377805
vt 3.782804 0.5383863
vt 3.7802253 0.53820646
vt 3.7802253 0.5399463
vt 3.7802253 0.5416861
vt 0.819759 3.8523314
vt 0.81820214 3.782804
vt 0.8175975 3.8523314
vt 0.8197591 3.782804
vt 0.8197591 3.7802253
vt 0.81802267 3.7802253
vt 0.8214955 3.7802253
vt 0.821316 3.782804
vt 0.8219205 3.8523314
vt -2.826804 0.5399464
vt -2.874945 0.54387534
vt -2.826804 0.5425011
vt -2.874945 0.5399464
vt -2.826804 0.5373916
vt -2.874945 0.5360174
vt 0.17631981 3.874945
vt 0.18024096 3.826804
vt 0.17769128 3.826804
vt 0.18024102 3.874945
vt 0.1841622 3.874945
vt 0.18279067 3.826804
vt 3.874945 0.5399464
vt 3.826804 0.5425011
vt 3.874945 0.54387534
vt 3.826804 0.5399463
vt 3.826804 0.5373916
vt 3.874945 0.5360174
vt 0.8158378 3.874945
vt 0.819759 3.826804
vt 0.81720936 3.826804
vt 0.819759 3.8749452
vt 0.8223088 3.826804
vt 0.82368016 3.874945
vt 0.17769128 3.826804
vt 0.18024096 3.826804
vt 0.18024096 3.8222892
vt 0.18279067 3.826804
vt 3.826804 0.5425011
vt 3.826804 0.5399463
vt 3.8222892 0.5399463
vt 3.826804 0.5373916
vt 0.81720936 3.826804
vt 0.819759 3.826804
vt 0.819759 3.8222892
vt 0.8223088 3.826804
vt -2.826804 0.5373916
vt -2.826804 0.5399464
vt -2.8222892 0.5399463
vt -2.826804 0.5425011
vt -2.782804 0.5383863
vt -2.7802253 0.5399463
vt -2.7802253 0.53820646
vt -2.782804 0.5399463
vt -2.7802253 0.5416862
vt -2.8523314 0.5377805
vt -2.782804 0.54150635
vt -2.8523314 0.5399464
vt -2.8523314 0.5421122
vt 3.8523314 0.5399464
vt 3.782804 0.54150635
vt 3.8523314 0.5421122
vt 3.782804 0.5399463
vt 3.8523314 0.5377805
vt 3.782804 0.5383863
vt 3.7802253 0.53820646
vt 3.7802253 0.5399463
vt 3.7802253 0.5416861
vt 0.8033142 3.8523314
vt 0.80175734 3.782804
vt 0.8011527 3.8523314
vt 0.80331427 3.782804
vt 0.80331427 3.7802253
vt 0.80157787 3.7802253
vt 0.8050507 3.7802253
vt 0.8048712 3.782804
vt 0.8054758 3.8523314
vt -2.826804 0.5399463
vt -2.874945 0.54387534
vt -2.826804 0.5425011
vt -2.874945 0.5399464
vt -2.826804 0.5373916
vt -2.874945 0.5360174
vt 0.19276458 3.874945
vt 0.19668576 3.826804
vt 0.19413605 3.826804
vt 0.19668579 3.874945
vt 0.200607 3.874945
vt 0.19923547 3.826804
vt 3.874945 0.5399464
vt 3.826804 0.5425011
vt 3.874945 0.54387534
vt 3.826804 0.5399463
vt 3.826804 0.5373916
vt 3.874945 0.5360174
vt 0.799393 3.874945
vt 0.8033142 3.826804
vt 0.80076456 3.826804
vt 0.8033142 3.8749452
vt 0.805864 3.826804
vt 0.8072354 3.874945
vt 0.19413605 3.826804
vt 0.19668576 3.826804
vt 0.19668576 3.8222892
vt 0.19923547 3.826804
vt 3.826804 0.5425011
vt 3.826804 0.5399463
vt 3.8222892 0.5399463
vt 3.826804 0.5373916
vt 0.80076456 3.826804
vt 0.8033142 3.826804
vt 0.8033142 3.8222892
vt 0.805864 3.826804
vt -2.826804 0.5373916
vt -2.826804 0.5399463
vt -2.8222892 0.5399463
vt -2.826804 0.5425011
vt -2.782804 0.5383863
vt -2.7802253 0.5399463
vt -2.7802253 0.53820646
vt -2.782804 0.5399463
vt -2.7802253 0.5416861
vt -2.8523314 0.5377805
vt -2.782804 0.54150635
vt -2.8523314 0.5399464
vt -2.8523314 0.5421122
vt 0.21529207 3.8523314
vt 0.2131305 3.782804
vt 0.21313053 3.8523314
vt 0.21468744 3.782804
vt 0.210969 3.8523314
vt 0.2148669 3.7802253
vt 0.21157354 3.782804
vt 0.2131305 3.7802253
vt 0.2113941 3.7802253
vt 0.18024093 3.782804
vt 0.17807946 3.8523314
vt 0.18024099 3.8523314
vt 0.178684 3.782804
vt 0.18240252 3.8523314
vt 0.17850453 3.7802253
vt 0.18179789 3.782804
vt 0.18024093 3.7802253
vt 0.18197733 3.7802253
vt 0.19668573 3.782804
vt 0.19452423 3.8523314
vt 0.19668576 3.8523314
vt 0.19512877 3.782804
vt 0.19884732 3.8523314
vt 0.19494933 3.7802253
vt 0.1982427 3.782804
vt 0.19668573 3.7802253
vt 0.19842213 3.7802253
vt 0.21558613 0.5399463
vt 0.21424419 0.54106224
vt 0.2148669 0.5416862
vt 0.21470553 0.5399463
vt 0.2131305 0.5415244
vt 0.2148669 0.53820646
vt 0.2131305 0.5424068
vt 0.21424419 0.5388304
vt 0.21201679 0.54106224
vt 0.2131305 0.53748584
vt 0.2113941 0.5416861
vt 0.2131305 0.53836817
vt 0.21155548 0.5399463
vt 0.2113941 0.53820646
vt 0.21067485 0.5399463
vt 0.21201679 0.5388304
vt 0.1777853 0.5399463
vt 0.17912725 0.54106224
vt 0.1786659 0.5399463
vt 0.17850453 0.5416862
vt 0.17850453 0.53820646
vt 0.18024093 0.5415244
vt 0.17912722 0.5388304
vt 0.18024093 0.5424068
vt 0.18024093 0.53748584
vt 0.18135464 0.54106224
vt 0.18024093 0.53836817
vt 0.18197733 0.5416861
vt 0.18197733 0.53820646
vt 0.18181595 0.5399463
vt 0.18135464 0.5388304
vt 0.18269658 0.5399463
vt 0.19423008 0.5399463
vt 0.19557202 0.54106224
vt 0.19511071 0.5399463
vt 0.19494933 0.5416861
vt 0.19494933 0.53820646
vt 0.19668573 0.5415244
vt 0.19557202 0.5388304
vt 0.19668573 0.5424068
vt 0.19668573 0.53748584
vt 0.19779941 0.54106224
vt 0.19668573 0.53836817
vt 0.19842213 0.5416861
vt 0.19842213 0.53820646
vt 0.19826075 0.5399463
vt 0.19779941 0.5388304
vt 0.19914138 0.5399463
vt -2.7797017 0.5399463
vt -2.7912264 0.5399463
vt -2.7797017 0.54106224
vt -2.7797017 0.5388304
vt 0.7857558 3.7797017
vt 0.7868695 3.7912264
vt 0.7868695 3.7797017
vt 0.7879832 3.7797017
vt 3.7797017 0.54106224
vt 3.7912264 0.5399463
vt 3.7797017 0.5399463
vt 3.7797017 0.5388304
vt 0.21201679 3.7797017
vt 0.2131305 3.7912264
vt 0.2131305 3.7797017
vt 0.21424419 3.7797017
vt 0.82665217 0.5348556
vt 0.77997625 0.5410799
vt 0.82665217 0.5410799
vt 0.77997625 0.5348556
vt 0.82665217 0.52863127
vt 0.77997625 0.52863127
vt 0.22002372 3.8635895
vt 0.17334783 3.859076
vt 0.17334783 3.8635895
vt 0.22002369 3.859076
vt 0.17334783 3.8529105
vt 0.22002369 3.8529105
vt 0.17334783 3.846745
vt 0.22002369 3.846745
vt 0.1733478 3.8422318
vt 0.22002369 3.8422315
vt 0.22002369 0.5410799
vt 0.1733478 0.5348556
vt 0.1733478 0.5410799
vt 0.22002369 0.5348556
vt 0.1733478 0.52863127
vt 0.22002369 0.52863127
vt 0.7799763 3.8422315
vt 0.82665217 3.846745
vt 0.82665217 3.8422318
vt 0.7799763 3.846745
vt 0.82665217 3.8529105
vt 0.7799763 3.8529105
vt 0.82665217 3.859076
vt 0.7799763 3.859076
vt 0.82665217 3.8635895
vt 0.77997625 3.8635895
vt 3.7797017 0.5399463
vt 3.7797017 0.54106224
vt 3.7912264 0.5399463
vt 3.7797017 0.5388304
vt 0.8208728 3.7797017
vt 0.8197591 3.7797017
vt 0.819759 3.7912264
vt 0.81864536 3.7797017
vt -2.7797017 0.54106224
vt -2.7797017 0.5399463
vt -2.7912264 0.5399463
vt -2.7797017 0.5388304
vt 0.18135464 3.7797017
vt 0.18024093 3.7797017
vt 0.18024096 3.7912264
vt 0.17912722 3.7797017
vt 3.7797017 0.5399463
vt 3.7797017 0.54106224
vt 3.7912264 0.5399463
vt 3.7797017 0.5388304
vt 0.804428 3.7797017
vt 0.80331427 3.7797017
vt 0.80331427 3.7912264
vt 0.80220056 3.7797017
vt -2.7797017 0.54106224
vt -2.7797017 0.5399463
vt -2.7912264 0.5399463
vt -2.7797017 0.5388304
vt 0.19779941 3.7797017
vt 0.19668573 3.7797017
vt 0.19668573 3.7912264
vt 0.19557202 3.7797017
vn -0.706446 0.70645106 -0.043140594
vn -0.9999255 -1.6271647E-06 0.012204535
vn -0.7070545 0.70705366 0.012204921
vn -0.9990689 -1.1716919E-06 -0.043142382
vn -0.70705384 -0.70705444 0.012204177
vn -0.70644784 -0.706449 -0.043143082
vn -0.70375746 -0.70375896 -0.0972052
vn -0.99526453 0 -0.09720368
vn -0.7037555 0.7037613 -0.09720202
vn -0.70644784 -0.706449 -0.043143082
vn 4.6214578E-07 -0.9999255 0.012204006
vn -0.70705384 -0.70705444 0.012204177
vn 1.2173424E-06 -0.9990689 -0.043144364
vn 0.7064492 -0.7064476 -0.04314388
vn 0.70705324 -0.70705503 0.0122041255
vn 0.7037577 -0.7037585 -0.09720702
vn -0 -0.9952642 -0.09720661
vn -0.70375746 -0.70375896 -0.0972052
vn 0.7065418 0.70654255 0.039955743
vn 0.9992015 1.5658351E-06 0.03995562
vn 0.70654154 0.7065427 0.03995593
vn 0.9992015 -4.1470796E-07 0.039955482
vn 0.7065415 -0.70654285 0.03995529
vn 0.7065418 -0.70654255 0.039955176
vn -0 0.9992015 0.039956097
vn 0.7065418 0.70654255 0.039955743
vn 0.70654154 0.7065427 0.03995593
vn -1.451477E-07 0.9992015 0.039955772
vn -0.70654213 0.7065422 0.039955847
vn -0.70654255 0.7065418 0.039955895
vn -0.70654255 0.7065418 0.039955895
vn -0.9992015 -6.531662E-07 0.03995557
vn -0.70654213 0.7065422 0.039955847
vn -0.9992015 1.0167759E-07 0.039955553
vn -0.7065404 -0.70654386 0.03995527
vn -0.7065411 -0.7065431 0.039955318
vn 1.3218124E-06 -0.9992015 0.039955057
vn -0.7065411 -0.7065431 0.039955318
vn -0.7065404 -0.70654386 0.03995527
vn 1.4054727E-06 -0.9992015 0.03995511
vn 0.7065415 -0.70654285 0.03995529
vn 0.7065418 -0.70654255 0.039955176
vn 0.55412704 0.5541234 0.6212009
vn 3.6775506E-07 5.384985E-07 1
vn -1.1772503E-07 0.7836508 0.6212016
vn -0.5541274 0.5541224 0.62120134
vn -0.5541274 0.5541224 0.62120134
vn 3.6775506E-07 5.384985E-07 1
vn -0.78365177 -9.0648336E-07 0.6212004
vn -0.55412465 -0.554124 0.62120247
vn -0.55412465 -0.554124 0.62120247
vn 3.6775506E-07 5.384985E-07 1
vn 9.535696E-07 -0.7836509 0.6212015
vn 0.5541259 -0.55412364 0.6212016
vn 0.5541259 -0.55412364 0.6212016
vn 3.6775506E-07 5.384985E-07 1
vn 0.7836521 2.70768E-07 0.62119997
vn 0.55412704 0.5541234 0.6212009
vn 0.9952642 1.1823552E-06 -0.09720717
vn 0.7064492 -0.7064476 -0.04314388
vn 0.7037577 -0.7037585 -0.09720702
vn 0.9990689 -1.3187876E-07 -0.043144327
vn 0.70705324 -0.70705503 0.0122041255
vn 0.7037546 0.70376176 -0.09720508
vn 0.9999255 0 0.012204457
vn 0.7064465 0.7064504 -0.04314145
vn 0.7070538 0.70705444 0.012204846
vn 0.9999255 -9.4746133E-07 0.0122045595
vn 0.70644426 0.7064527 -0.043140892
vn 0.70705473 0.70705336 0.012204988
vn 0.9990689 -1.1843723E-06 -0.043143015
vn 0.70705354 -0.70705456 0.012204197
vn 0.70644855 -0.70644826 -0.04314326
vn 0.70375645 -0.7037596 -0.09720679
vn 0.9952644 2.7325535E-07 -0.09720473
vn 0.7037541 0.70376253 -0.0972028
vn 2.4716385E-07 -0.9999255 0.012204006
vn 0.70644855 -0.70644826 -0.04314326
vn 0.70705354 -0.70705456 0.012204197
vn 1.92746E-07 -0.9990689 -0.0431438
vn 7.7772535E-07 -0.9952643 -0.09720596
vn 0.70375645 -0.7037596 -0.09720679
vn -0.7037578 -0.70375836 -0.09720674
vn -0.7064494 -0.7064474 -0.04314391
vn -0.7070534 -0.70705485 0.012204148
vn -0.9992015 1.830199E-06 0.039955568
vn -0.7065418 0.70654243 0.039955694
vn -0.706542 0.7065422 0.03995588
vn -0.9992015 0 0.039955426
vn -0.706542 -0.70654225 0.039955266
vn -0.70654225 -0.70654196 0.03995513
vn -0.7065418 0.70654243 0.039955694
vn 1.4234922E-07 0.9992015 0.039956138
vn -0.706542 0.7065422 0.03995588
vn 2.9029556E-07 0.9992015 0.03995579
vn 0.7065423 0.70654196 0.039955825
vn 0.70654315 0.70654106 0.039955907
vn 0.9992015 -1.4514788E-07 0.039955586
vn 0.70654315 0.70654106 0.039955907
vn 0.7065423 0.70654196 0.039955825
vn 0.9992015 3.863752E-07 0.03995558
vn 0.7065407 -0.7065435 0.039955314
vn 0.7065417 -0.70654255 0.03995536
vn 0.7065417 -0.70654255 0.03995536
vn -1.4031546E-06 -0.9992015 0.03995512
vn 0.7065407 -0.7065435 0.039955314
vn -1.7003052E-06 -0.9992015 0.03995515
vn -0.706542 -0.70654225 0.039955266
vn -0.70654225 -0.70654196 0.03995513
vn -0.5541271 0.55412406 0.6212002
vn 3.060854E-07 0.7836506 0.6212018
vn -9.850608E-07 -4.137255E-07 1
vn 0.55412734 0.5541226 0.6212013
vn 0.55412734 0.5541226 0.6212013
vn 0.7836519 -4.7090003E-07 0.62120014
vn -9.850608E-07 -4.137255E-07 1
vn 0.5541253 -0.5541247 0.62120116
vn 0.5541253 -0.5541247 0.62120116
vn -9.771148E-07 -0.78365207 0.62119997
vn -9.850608E-07 -4.137255E-07 1
vn -0.5541268 -0.5541246 0.6211999
vn -0.5541268 -0.5541246 0.6211999
vn -0.7836528 7.534404E-07 0.6211991
vn -9.850608E-07 -4.137255E-07 1
vn -0.5541271 0.55412406 0.6212002
vn -0.7064494 -0.7064474 -0.04314391
vn -0.99526405 1.9127867E-06 -0.0972078
vn -0.7037578 -0.70375836 -0.09720674
vn -0.9990689 -7.4055004E-07 -0.043144435
vn -0.70375377 0.7037625 -0.09720625
vn -0.7070534 -0.70705485 0.012204148
vn -0.70644534 0.7064516 -0.0431416
vn -0.9999255 4.7373067E-07 0.012204508
vn -0.7070534 0.70705473 0.012204955
vn 0.9999255 -1.6683571E-06 0.012204518
vn 0.7064464 0.7064505 -0.043141853
vn 0.7070552 0.70705295 0.012205076
vn 0.9990689 -1.922384E-06 -0.043144297
vn 0.7070541 -0.7070541 0.012204084
vn 0.7064496 -0.7064471 -0.043143604
vn 0.70375603 -0.7037599 -0.097208425
vn 0.9952642 -8.1976646E-07 -0.09720712
vn 0.7037537 0.70376295 -0.097202994
vn -3.089553E-07 -0.9999255 0.012203852
vn 0.7064496 -0.7064471 -0.043143604
vn 0.7070541 -0.7070541 0.012204084
vn 4.996178E-07 -0.9990689 -0.043143924
vn 8.407838E-07 -0.9952643 -0.09720622
vn 0.70375603 -0.7037599 -0.097208425
vn -0.70375687 -0.7037593 -0.09720648
vn -0.7064501 -0.70644665 -0.043144327
vn -0.7070528 -0.70705533 0.012204033
vn -0.9992015 3.4163656E-06 0.03995568
vn -0.70654243 0.7065418 0.03995577
vn -0.70654076 0.70654345 0.03995606
vn -0.9992015 -2.66968E-07 0.039955396
vn -0.7065419 -0.70654243 0.039955217
vn -0.70654255 -0.7065417 0.03995511
vn -0.70654243 0.7065418 0.03995577
vn -9.557733E-07 0.9992015 0.039956115
vn -0.70654076 0.70654345 0.03995606
vn -0 0.9992015 0.039955873
vn 0.70654273 0.70654154 0.039955802
vn 0.70654225 0.706542 0.039955847
vn 0.9992015 0 0.039955433
vn 0.70654225 0.706542 0.039955847
vn 0.70654273 0.70654154 0.039955802
vn 0.9992015 2.643615E-07 0.039955422
vn 0.70654094 -0.7065434 0.03995517
vn 0.7065417 -0.70654255 0.039955232
vn 0.7065417 -0.70654255 0.039955232
vn -1.3014762E-06 -0.9992015 0.039955024
vn 0.70654094 -0.7065434 0.03995517
vn -1.6795694E-06 -0.9992015 0.03995505
vn -0.7065419 -0.70654243 0.039955217
vn -0.70654255 -0.7065417 0.03995511
vn -0.5541266 0.5541233 0.62120134
vn -6.9457775E-07 0.78365 0.6212026
vn -4.4655968E-07 -1.0113263E-06 1
vn 0.5541272 0.5541215 0.6212024
vn 0.5541272 0.5541215 0.6212024
vn 0.78365207 -1.3185206E-06 0.6212001
vn -4.4655968E-07 -1.0113263E-06 1
vn 0.5541256 -0.554124 0.6212017
vn 0.5541256 -0.554124 0.6212017
vn -1.059522E-06 -0.78365177 0.6212004
vn -4.4655968E-07 -1.0113263E-06 1
vn -0.55412686 -0.55412346 0.621201
vn -0.55412686 -0.55412346 0.621201
vn -0.78365207 1.0713005E-06 0.6212001
vn -4.4655968E-07 -1.0113263E-06 1
vn -0.5541266 0.5541233 0.62120134
vn -0.7064501 -0.70644665 -0.043144327
vn -0.99526393 3.625892E-06 -0.097209476
vn -0.70375687 -0.7037593 -0.09720648
vn -0.9990689 -6.898259E-07 -0.043144964
vn -0.70375377 0.7037625 -0.09720623
vn -0.7070528 -0.70705533 0.012204033
vn -0.70644754 0.70644945 -0.043141168
vn -0.9999255 4.7373103E-07 0.012204547
vn -0.7070541 0.70705414 0.012205076
vn 0.7070538 0.70705444 0.012204846
vn -8.774996E-07 0.99906904 -0.043141115
vn 4.5313325E-07 0.9999255 0.012205109
vn 0.7064465 0.7064504 -0.04314145
vn -0.7070545 0.70705366 0.012204921
vn 0.7037546 0.70376176 -0.09720508
vn -0.706446 0.70645106 -0.043140594
vn -2.2070863E-06 0.99526453 -0.0972038
vn -0.7037555 0.7037613 -0.09720202
vn 6.923608E-07 0.99906904 -0.04314139
vn -0.7070534 0.70705473 0.012204955
vn -6.591029E-07 0.9999255 0.012205241
vn -0.70644534 0.7064516 -0.0431416
vn 0.70705473 0.70705336 0.012204988
vn -0.70375377 0.7037625 -0.09720625
vn 0.70644426 0.7064527 -0.043140892
vn 2.017906E-06 0.9952643 -0.09720556
vn 0.7037541 0.70376253 -0.0972028
vn 3.32232E-07 0.99906904 -0.04314119
vn -0.7070541 0.70705414 0.012205076
vn -1.5653695E-06 0.9999255 0.012205372
vn -0.70644754 0.70644945 -0.043141168
vn 0.7070552 0.70705295 0.012205076
vn -0.70375377 0.7037625 -0.09720623
vn 0.7064464 0.7064505 -0.043141853
vn 1.0720114E-06 0.99526453 -0.097203776
vn 0.7037537 0.70376295 -0.097202994
vn 0.5138095 1.3925119E-06 0.8579043
vn 0.36332378 0.3633091 0.8579057
vn 0.36332428 0.36331075 0.8579049
vn 0.5138099 -4.6377042E-07 0.85790414
vn -3.4543418E-06 0.5138031 0.8579082
vn 0.3633207 -0.36332017 0.85790247
vn -1.9716877E-06 0.51380366 0.85790783
vn 0.36332047 -0.36332092 0.85790217
vn -0.36332402 0.36331367 0.85790366
vn -0 -0.51381445 0.85790133
vn -0.36332506 0.36331102 0.8579044
vn -0 -0.51381433 0.8579015
vn -0.5138098 -1.7031558E-06 0.85790414
vn -0.36332044 -0.3633196 0.8579027
vn -0.51380944 9.858494E-07 0.8579043
vn -0.3633193 -0.36332053 0.8579028
vn -0.51380986 2.2058357E-06 0.85790414
vn -0.36332092 0.3633098 0.8579067
vn -0.5138099 -7.7561555E-07 0.85790414
vn -0.36332098 0.36330983 0.8579067
vn -0.3633192 -0.3633198 0.8579032
vn -3.1184908E-07 0.5137976 0.85791147
vn -0.36331877 -0.36332053 0.85790306
vn 5.17567E-07 0.5137986 0.8579109
vn -3.7585357E-07 -0.5138141 0.8579016
vn 0.36332205 0.36331326 0.85790473
vn -7.9960444E-07 -0.51381403 0.8579016
vn 0.36332455 0.36331138 0.8579045
vn 0.36331925 -0.3633192 0.8579034
vn 0.51380926 -1.567223E-06 0.8579044
vn 0.36331874 -0.3633192 0.8579036
vn 0.51380897 1.1645351E-06 0.8579047
vn -0.5138098 1.454128E-06 0.85790414
vn -0.36332276 0.36331227 0.8579049
vn -0.51380944 -3.0864765E-06 0.8579043
vn -0.36332294 0.36331347 0.8579042
vn -0.36331984 -0.3633207 0.8579025
vn 4.2379526E-07 0.5138 0.85791
vn -0.36332166 -0.36332023 0.85790193
vn 3.8817495E-07 0.5138002 0.8579099
vn -2.9883407E-07 -0.5138152 0.85790086
vn 0.36331964 0.3633144 0.85790527
vn -3.4382995E-07 -0.5138147 0.8579012
vn 0.3633235 0.36331132 0.85790503
vn 0.36331844 -0.36331803 0.8579042
vn 0.5138085 -1.6231927E-06 0.8579049
vn 0.36331728 -0.36331877 0.8579045
vn 0.5138083 2.433818E-07 0.85790503
vn -0.9909259 -2.035525E-06 0.13440907
vn -1.972248E-05 -8.55126E-06 1
vn -0.7006829 -0.7006982 0.13440791
vn -0.7006909 0.7006898 0.13441016
vn -0.7006829 -0.7006982 0.13440791
vn -1.972248E-05 -8.55126E-06 1
vn 3.1805533E-07 -0.9909264 0.13440615
vn 0.70068365 -0.70069754 0.1344076
vn 0.70068365 -0.70069754 0.1344076
vn -1.972248E-05 -8.55126E-06 1
vn 0.990926 7.2091564E-07 0.13440868
vn 0.7006901 0.7006906 0.13440968
vn 0.7006901 0.7006906 0.13440968
vn -1.972248E-05 -8.55126E-06 1
vn 8.693394E-07 0.9909258 0.13441044
vn -0.7006909 0.7006898 0.13441016
vn -0 2.0624132E-07 -1
vn -0 0.5000011 -0.8660248
vn -0 0.50000083 -0.8660249
vn -0 4.1248265E-07 -1
vn -0 -0.49999997 -0.86602545
vn -0 -0.4999999 -0.86602545
vn -0 0.5000011 -0.8660248
vn -0 0.866026 -0.499999
vn -0 0.50000083 -0.8660249
vn -0 0.86602587 -0.49999923
vn -0 1 2.5534638E-07
vn -0 1 3.7074332E-07
vn -0 0.8660258 0.49999934
vn -0 0.8660258 0.4999994
vn -0 0.50000024 0.86602527
vn -1.15143244E-07 0.50000054 0.86602515
vn -1.15143244E-07 0.50000054 0.86602515
vn -0 -4.4194564E-07 1
vn -0 0.50000024 0.86602527
vn -0 -4.1984836E-07 1
vn -0 -0.49999997 0.86602545
vn -0 -0.50000006 0.8660253
vn -0 -0.50000006 0.8660253
vn -0 -0.86602515 0.5000004
vn -0 -0.49999997 0.86602545
vn -0 -0.86602527 0.50000024
vn -0 -1 2.1606243E-07
vn -0 -1 1.4117711E-07
vn -0 -0.86602527 -0.5000003
vn -0 -0.86602527 -0.50000024
vn -0 -0.49999997 -0.86602545
vn -0 -0.4999999 -0.86602545
vn 0.9909259 -1.2934078E-06 0.13440906
vn 0.70068383 -0.7006973 0.13440754
vn -8.369277E-06 3.0566052E-06 1
vn 0.7006902 0.7006904 0.13441007
vn 0.70068383 -0.7006973 0.13440754
vn 1.675082E-06 -0.9909264 0.1344059
vn -8.369277E-06 3.0566052E-06 1
vn -0.7006834 -0.7006977 0.1344078
vn -0.7006834 -0.7006977 0.1344078
vn -0.9909259 6.785088E-07 0.13440892
vn -8.369277E-06 3.0566052E-06 1
vn -0.70069 0.70069075 0.13440986
vn -0.70069 0.70069075 0.13440986
vn -5.3008506E-07 0.9909258 0.13441047
vn -8.369277E-06 3.0566052E-06 1
vn 0.7006902 0.7006904 0.13441007
vn 0.9909259 -2.756434E-07 0.134409
vn 0.70068544 -0.70069575 0.13440782
vn -4.512144E-06 1.4409751E-05 1
vn 0.7006914 0.7006892 0.13441081
vn 0.70068544 -0.70069575 0.13440782
vn -5.3008887E-07 -0.9909264 0.13440545
vn -4.512144E-06 1.4409751E-05 1
vn -0.7006824 -0.7006989 0.13440724
vn -0.7006824 -0.7006989 0.13440724
vn -0.9909259 4.6647574E-07 0.13440898
vn -4.512144E-06 1.4409751E-05 1
vn -0.70068914 0.7006916 0.13440995
vn -0.70068914 0.7006916 0.13440995
vn -2.2263569E-06 0.99092567 0.134411
vn -4.512144E-06 1.4409751E-05 1
vn 0.7006914 0.7006892 0.13441081
g Atl_gun_cal125A_x3_barrel_001_0
f 3/3/3 2/2/2 1/1/1
f 4/4/4 1/1/1 2/2/2
f 2/2/2 5/5/5 4/4/4
f 6/6/6 4/4/4 5/5/5
f 6/6/6 7/7/7 4/4/4
f 8/8/8 4/4/4 7/7/7
f 4/4/4 8/8/8 1/1/1
f 9/9/9 1/1/1 8/8/8
f 12/12/12 11/11/11 10/10/10
f 13/13/13 10/10/10 11/11/11
f 13/13/13 11/11/11 14/14/14
f 15/15/15 14/14/14 11/11/11
f 14/14/14 16/16/16 13/13/13
f 17/17/17 13/13/13 16/16/16
f 13/13/13 17/17/17 10/10/10
f 18/18/18 10/10/10 17/17/17
f 21/21/21 20/20/20 19/19/19
f 22/22/22 19/19/19 20/20/20
f 20/20/20 23/23/23 22/22/22
f 24/24/24 22/22/22 23/23/23
f 27/27/27 26/26/26 25/25/25
f 28/28/28 25/25/25 26/26/26
f 28/28/28 29/29/29 25/25/25
f 30/30/30 25/25/25 29/29/29
f 33/33/33 32/32/32 31/31/31
f 34/34/34 31/31/31 32/32/32
f 34/34/34 32/32/32 35/35/35
f 36/36/36 35/35/35 32/32/32
f 39/39/39 38/38/38 37/37/37
f 40/40/40 37/37/37 38/38/38
f 37/37/37 40/40/40 41/41/41
f 42/42/42 41/41/41 40/40/40
f 45/45/45 44/44/44 43/43/43
f 46/46/46 44/44/44 45/45/45
f 49/49/49 48/48/48 47/47/47
f 50/50/50 48/48/48 49/49/49
f 53/53/53 52/52/52 51/51/51
f 54/54/54 52/52/52 53/53/53
f 57/57/57 56/56/56 55/55/55
f 58/58/58 56/56/56 57/57/57
f 61/61/61 60/60/60 59/59/59
f 62/62/62 59/59/59 60/60/60
f 60/60/60 63/63/63 62/62/62
f 59/59/59 62/62/62 64/64/64
f 65/65/65 62/62/62 63/63/63
f 66/66/66 64/64/64 62/62/62
f 65/65/65 67/67/67 62/62/62
f 66/66/66 62/62/62 67/67/67
f 70/70/70 69/69/69 68/68/68
f 71/71/71 68/68/68 69/69/69
f 68/68/68 71/71/71 72/72/72
f 73/73/73 72/72/72 71/71/71
f 73/73/73 71/71/71 74/74/74
f 75/75/75 74/74/74 71/71/71
f 71/71/71 69/69/69 75/75/75
f 76/76/76 75/75/75 69/69/69
f 79/79/79 78/78/78 77/77/77
f 80/80/80 77/77/77 78/78/78
f 80/80/80 78/78/78 81/81/81
f 82/82/82 81/81/81 78/78/78
f 81/81/81 83/83/83 80/80/80
f 84/84/84 80/80/80 83/83/83
f 80/80/80 84/84/84 77/77/77
f 85/85/85 77/77/77 84/84/84
f 88/88/88 87/87/87 86/86/86
f 89/89/89 86/86/86 87/87/87
f 86/86/86 89/89/89 90/90/90
f 91/91/91 90/90/90 89/89/89
f 94/94/94 93/93/93 92/92/92
f 95/95/95 92/92/92 93/93/93
f 95/95/95 93/93/93 96/96/96
f 97/97/97 96/96/96 93/93/93
f 100/100/100 99/99/99 98/98/98
f 101/101/101 98/98/98 99/99/99
f 101/101/101 102/102/102 98/98/98
f 103/103/103 98/98/98 102/102/102
f 106/106/106 105/105/105 104/104/104
f 107/107/107 104/104/104 105/105/105
f 105/105/105 108/108/108 107/107/107
f 109/109/109 107/107/107 108/108/108
f 112/112/112 111/111/111 110/110/110
f 112/112/112 113/113/113 111/111/111
f 116/116/116 115/115/115 114/114/114
f 116/116/116 117/117/117 115/115/115
f 120/120/120 119/119/119 118/118/118
f 120/120/120 121/121/121 119/119/119
f 124/124/124 123/123/123 122/122/122
f 124/124/124 125/125/125 123/123/123
f 128/128/128 127/127/127 126/126/126
f 129/129/129 126/126/126 127/127/127
f 127/127/127 130/130/130 129/129/129
f 126/126/126 129/129/129 131/131/131
f 132/132/132 129/129/129 130/130/130
f 133/133/133 131/131/131 129/129/129
f 132/132/132 134/134/134 129/129/129
f 133/133/133 129/129/129 134/134/134
f 137/137/137 136/136/136 135/135/135
f 138/138/138 135/135/135 136/136/136
f 135/135/135 138/138/138 139/139/139
f 140/140/140 139/139/139 138/138/138
f 140/140/140 138/138/138 141/141/141
f 142/142/142 141/141/141 138/138/138
f 138/138/138 136/136/136 142/142/142
f 143/143/143 142/142/142 136/136/136
f 146/146/146 145/145/145 144/144/144
f 147/147/147 144/144/144 145/145/145
f 147/147/147 145/145/145 148/148/148
f 149/149/149 148/148/148 145/145/145
f 148/148/148 150/150/150 147/147/147
f 151/151/151 147/147/147 150/150/150
f 147/147/147 151/151/151 144/144/144
f 152/152/152 144/144/144 151/151/151
f 155/155/155 154/154/154 153/153/153
f 156/156/156 153/153/153 154/154/154
f 153/153/153 156/156/156 157/157/157
f 158/158/158 157/157/157 156/156/156
f 161/161/161 160/160/160 159/159/159
f 162/162/162 159/159/159 160/160/160
f 162/162/162 160/160/160 163/163/163
f 164/164/164 163/163/163 160/160/160
f 167/167/167 166/166/166 165/165/165
f 168/168/168 165/165/165 166/166/166
f 168/168/168 169/169/169 165/165/165
f 170/170/170 165/165/165 169/169/169
f 173/173/173 172/172/172 171/171/171
f 174/174/174 171/171/171 172/172/172
f 172/172/172 175/175/175 174/174/174
f 176/176/176 174/174/174 175/175/175
f 179/179/179 178/178/178 177/177/177
f 179/179/179 180/180/180 178/178/178
f 183/183/183 182/182/182 181/181/181
f 183/183/183 184/184/184 182/182/182
f 187/187/187 186/186/186 185/185/185
f 187/187/187 188/188/188 186/186/186
f 191/191/191 190/190/190 189/189/189
f 191/191/191 192/192/192 190/190/190
f 195/195/195 194/194/194 193/193/193
f 196/196/196 193/193/193 194/194/194
f 194/194/194 197/197/197 196/196/196
f 193/193/193 196/196/196 198/198/198
f 199/199/199 196/196/196 197/197/197
f 200/200/200 198/198/198 196/196/196
f 199/199/199 201/201/201 196/196/196
f 200/200/200 196/196/196 201/201/201
f 204/204/204 203/203/203 202/202/202
f 205/205/205 202/202/202 203/203/203
f 204/204/204 206/206/206 203/203/203
f 205/205/205 203/203/203 207/207/207
f 208/208/208 203/203/203 206/206/206
f 209/209/209 207/207/207 203/203/203
f 208/208/208 210/210/210 203/203/203
f 209/209/209 203/203/203 210/210/210
f 213/213/213 212/212/212 211/211/211
f 214/214/214 211/211/211 212/212/212
f 213/213/213 211/211/211 215/215/215
f 214/214/214 216/216/216 211/211/211
f 217/217/217 215/215/215 211/211/211
f 218/218/218 211/211/211 216/216/216
f 217/217/217 211/211/211 219/219/219
f 218/218/218 219/219/219 211/211/211
f 222/222/222 221/221/221 220/220/220
f 223/223/223 220/220/220 221/221/221
f 222/222/222 220/220/220 224/224/224
f 223/223/223 225/225/225 220/220/220
f 226/226/226 224/224/224 220/220/220
f 227/227/227 220/220/220 225/225/225
f 226/226/226 220/220/220 228/228/228
f 227/227/227 228/228/228 220/220/220
g Atl_gun_cal125A_x3_barrel_001_1
f 231/231/231 230/230/230 229/229/229
f 232/232/232 229/229/229 230/230/230
f 230/230/230 231/231/231 233/233/233
f 229/229/229 232/232/232 234/234/234
f 235/235/235 233/233/233 231/231/231
f 236/236/236 234/234/234 232/232/232
f 233/233/233 235/235/235 237/237/237
f 234/234/234 236/236/236 238/238/238
f 239/239/239 237/237/237 235/235/235
f 240/240/240 238/238/238 236/236/236
f 237/237/237 239/239/239 241/241/241
f 238/238/238 240/240/240 242/242/242
f 243/243/243 241/241/241 239/239/239
f 244/244/244 242/242/242 240/240/240
f 241/241/241 243/243/243 244/244/244
f 242/242/242 244/244/244 243/243/243
f 247/247/247 246/246/246 245/245/245
f 248/248/248 245/245/245 246/246/246
f 245/245/245 249/249/249 247/247/247
f 246/246/246 250/250/250 248/248/248
f 251/251/251 247/247/247 249/249/249
f 252/252/252 248/248/248 250/250/250
f 249/249/249 253/253/253 251/251/251
f 250/250/250 254/254/254 252/252/252
f 255/255/255 251/251/251 253/253/253
f 256/256/256 252/252/252 254/254/254
f 253/253/253 257/257/257 255/255/255
f 254/254/254 258/258/258 256/256/256
f 259/259/259 255/255/255 257/257/257
f 260/260/260 256/256/256 258/258/258
f 257/257/257 260/260/260 259/259/259
f 258/258/258 259/259/259 260/260/260
f 263/263/263 262/262/262 261/261/261
f 264/264/264 261/261/261 262/262/262
f 261/261/261 265/265/265 263/263/263
f 262/262/262 266/266/266 264/264/264
f 267/267/267 263/263/263 265/265/265
f 268/268/268 264/264/264 266/266/266
f 265/265/265 269/269/269 267/267/267
f 266/266/266 270/270/270 268/268/268
f 271/271/271 267/267/267 269/269/269
f 272/272/272 268/268/268 270/270/270
f 269/269/269 273/273/273 271/271/271
f 270/270/270 274/274/274 272/272/272
f 275/275/275 271/271/271 273/273/273
f 276/276/276 272/272/272 274/274/274
f 273/273/273 276/276/276 275/275/275
f 274/274/274 275/275/275 276/276/276
g Atl_gun_cal125A_x3_barrel_001_2
f 279/279/279 278/278/278 277/277/277
f 277/277/277 278/278/278 280/280/280
f 283/283/283 282/282/282 281/281/281
f 284/284/284 282/282/282 283/283/283
f 287/287/287 286/286/286 285/285/285
f 288/288/288 286/286/286 287/287/287
f 291/291/291 290/290/290 289/289/289
f 292/292/292 290/290/290 291/291/291
f 295/295/295 294/294/294 293/293/293
f 296/296/296 293/293/293 294/294/294
f 293/293/293 296/296/296 297/297/297
f 298/298/298 297/297/297 296/296/296
f 301/301/301 300/300/300 299/299/299
f 302/302/302 299/299/299 300/300/300
f 300/300/300 303/303/303 302/302/302
f 304/304/304 302/302/302 303/303/303
f 303/303/303 305/305/305 304/304/304
f 306/306/306 304/304/304 305/305/305
f 305/305/305 307/307/307 306/306/306
f 308/308/308 306/306/306 307/307/307
f 311/311/311 310/310/310 309/309/309
f 312/312/312 309/309/309 310/310/310
f 310/310/310 313/313/313 312/312/312
f 314/314/314 312/312/312 313/313/313
f 317/317/317 316/316/316 315/315/315
f 318/318/318 315/315/315 316/316/316
f 316/316/316 319/319/319 318/318/318
f 320/320/320 318/318/318 319/319/319
f 319/319/319 321/321/321 320/320/320
f 322/322/322 320/320/320 321/321/321
f 321/321/321 323/323/323 322/322/322
f 324/324/324 322/322/322 323/323/323
f 327/327/327 326/326/326 325/325/325
f 327/327/327 325/325/325 328/328/328
f 331/331/331 330/330/330 329/329/329
f 331/331/331 332/332/332 330/330/330
f 335/335/335 334/334/334 333/333/333
f 335/335/335 336/336/336 334/334/334
f 339/339/339 338/338/338 337/337/337
f 339/339/339 340/340/340 338/338/338
f 343/343/343 342/342/342 341/341/341
f 343/343/343 341/341/341 344/344/344
f 347/347/347 346/346/346 345/345/345
f 347/347/347 348/348/348 346/346/346
f 351/351/351 350/350/350 349/349/349
f 351/351/351 352/352/352 350/350/350
f 355/355/355 354/354/354 353/353/353
f 355/355/355 356/356/356 354/354/354
