g Atl_gun_cal125A_x4_barrel_001
v 1.1443913 0.43769237 4.657587
v 1.0454891 0.33503217 0.038478926
v 1.1045258 0.47755963 0.03847942
v 1.1018674 0.33503002 4.657587
v 1.1045258 0.1925053 0.038478926
v 1.1443913 0.23236828 4.657587
v 1.1325592 0.2205357 4.8289175
v 1.085134 0.33503002 4.8289175
v 1.1325591 0.44952372 4.8289175
v 1.1443913 0.23236828 4.657587
v 1.2470531 0.13346858 0.03847889
v 1.1045258 0.1925053 0.038478926
v 1.2470534 0.18984447 4.657588
v 1.3497154 0.23236857 4.657587
v 1.38958 0.1925053 0.038478926
v 1.3615477 0.2205357 4.8289175
v 1.2470534 0.17311077 4.8289175
v 1.1325592 0.2205357 4.8289175
v 1.5056083 0.59358805 -1.4638761
v 1.4848135 0.33503184 1.7344242
v 1.415175 0.5031535 1.7344257
v 1.6127055 0.33503246 -1.4638761
v 1.4151751 0.16690944 1.7344252
v 1.5056083 0.07647777 -1.4638761
v 1.2470531 0.5727922 1.7344257
v 1.5056083 0.59358805 -1.4638761
v 1.415175 0.5031535 1.7344257
v 1.2470529 0.70068496 -1.4638761
v 0.98849773 0.59358805 -1.4638761
v 1.0789313 0.5031535 1.7344257
v 1.0789313 0.5031535 1.7344257
v 0.8814008 0.33503246 -1.4638767
v 0.98849773 0.59358805 -1.4638761
v 1.0092928 0.33503124 1.7344242
v 1.0789313 0.16690898 1.7344252
v 0.988498 0.07647686 -1.4638761
v 1.2470534 0.09727138 1.7344252
v 0.988498 0.07647686 -1.4638761
v 1.0789313 0.16690898 1.7344252
v 1.2470531 -0.030619392 -1.4638772
v 1.4151751 0.16690944 1.7344252
v 1.5056083 0.07647777 -1.4638761
v 1.415175 0.5031535 1.7344257
v 1.2470534 0.33503184 2.034362
v 1.2470531 0.5727922 1.7344257
v 1.0789313 0.5031535 1.7344257
v 1.0789313 0.5031535 1.7344257
v 1.2470534 0.33503184 2.034362
v 1.0092928 0.33503124 1.7344242
v 1.0789313 0.16690898 1.7344252
v 1.0789313 0.16690898 1.7344252
v 1.2470534 0.33503184 2.034362
v 1.2470534 0.09727138 1.7344252
v 1.4151751 0.16690944 1.7344252
v 1.4151751 0.16690944 1.7344252
v 1.2470534 0.33503184 2.034362
v 1.4848135 0.33503184 1.7344242
v 1.415175 0.5031535 1.7344257
v 1.4089729 0.33503032 4.8289175
v 1.3497154 0.23236857 4.657587
v 1.3615477 0.2205357 4.8289175
v 1.3922392 0.33503032 4.6575894
v 1.38958 0.1925053 0.038478926
v 1.3615477 0.44952434 4.8289175
v 1.4486171 0.33503246 0.038478926
v 1.3497154 0.43769237 4.657587
v 1.38958 0.47755963 0.038478963
v 0.31298944 0.43769237 4.657587
v 0.21408725 0.33503217 0.038478926
v 0.27312395 0.47755963 0.03847942
v 0.2704656 0.33503002 4.657587
v 0.27312395 0.1925053 0.038478926
v 0.31298944 0.23236828 4.657587
v 0.30115736 0.2205357 4.8289175
v 0.2537322 0.33503002 4.8289175
v 0.3011572 0.44952372 4.8289175
v 0.31298944 0.23236828 4.657587
v 0.41565132 0.13346858 0.03847889
v 0.27312395 0.1925053 0.038478926
v 0.41565153 0.18984447 4.657588
v 0.5183135 0.23236857 4.657587
v 0.5581783 0.1925053 0.038478926
v 0.5301459 0.2205357 4.8289175
v 0.41565153 0.17311077 4.8289175
v 0.30115736 0.2205357 4.8289175
v 0.6742066 0.59358805 -1.4638761
v 0.6534117 0.33503184 1.7344242
v 0.5837731 0.5031535 1.7344257
v 0.78130364 0.33503246 -1.4638761
v 0.5837734 0.16690944 1.7344252
v 0.6742066 0.07647777 -1.4638761
v 0.41565132 0.5727922 1.7344257
v 0.6742066 0.59358805 -1.4638761
v 0.5837731 0.5031535 1.7344257
v 0.4156512 0.70068496 -1.4638761
v 0.15709591 0.59358805 -1.4638761
v 0.2475295 0.5031535 1.7344257
v 0.2475295 0.5031535 1.7344257
v 0.049999 0.33503246 -1.4638767
v 0.15709591 0.59358805 -1.4638761
v 0.177891 0.33503124 1.7344242
v 0.2475295 0.16690898 1.7344252
v 0.15709615 0.07647686 -1.4638761
v 0.41565153 0.09727138 1.7344252
v 0.15709615 0.07647686 -1.4638761
v 0.2475295 0.16690898 1.7344252
v 0.41565132 -0.030619392 -1.4638772
v 0.5837734 0.16690944 1.7344252
v 0.6742066 0.07647777 -1.4638761
v 0.5837731 0.5031535 1.7344257
v 0.41565153 0.33503184 2.034362
v 0.41565132 0.5727922 1.7344257
v 0.2475295 0.5031535 1.7344257
v 0.2475295 0.5031535 1.7344257
v 0.41565153 0.33503184 2.034362
v 0.177891 0.33503124 1.7344242
v 0.2475295 0.16690898 1.7344252
v 0.2475295 0.16690898 1.7344252
v 0.41565153 0.33503184 2.034362
v 0.41565153 0.09727138 1.7344252
v 0.5837734 0.16690944 1.7344252
v 0.5837734 0.16690944 1.7344252
v 0.41565153 0.33503184 2.034362
v 0.6534117 0.33503184 1.7344242
v 0.5837731 0.5031535 1.7344257
v 0.57757103 0.33503032 4.8289175
v 0.5183135 0.23236857 4.657587
v 0.5301459 0.2205357 4.8289175
v 0.5608374 0.33503032 4.6575894
v 0.5581783 0.1925053 0.038478926
v 0.5301459 0.44952434 4.8289175
v 0.6172153 0.33503246 0.038478926
v 0.5183135 0.43769237 4.657587
v 0.5581783 0.47755963 0.038478963
v -1.0454891 0.33503217 0.038478926
v -1.1443913 0.43769237 4.657587
v -1.1045258 0.47755963 0.03847942
v -1.1018674 0.33503002 4.657587
v -1.1045258 0.1925053 0.038478926
v -1.1443913 0.23236828 4.657587
v -1.1325592 0.2205357 4.8289175
v -1.085134 0.33503002 4.8289175
v -1.1325591 0.44952372 4.8289175
v -1.2470531 0.13346858 0.03847889
v -1.1443913 0.23236828 4.657587
v -1.1045258 0.1925053 0.038478926
v -1.2470534 0.18984447 4.657588
v -1.2470534 0.17311077 4.8289175
v -1.1325592 0.2205357 4.8289175
v -1.3615477 0.2205357 4.8289175
v -1.3497154 0.23236857 4.657587
v -1.38958 0.1925053 0.038478926
v -1.4848135 0.33503184 1.7344242
v -1.5056083 0.59358805 -1.4638761
v -1.415175 0.5031535 1.7344257
v -1.6127055 0.33503246 -1.4638761
v -1.4151751 0.16690944 1.7344252
v -1.5056083 0.07647777 -1.4638761
v -1.5056083 0.59358805 -1.4638761
v -1.2470531 0.5727922 1.7344257
v -1.415175 0.5031535 1.7344257
v -1.2470529 0.70068496 -1.4638761
v -0.98849773 0.59358805 -1.4638761
v -1.0789313 0.5031535 1.7344257
v -0.8814008 0.33503246 -1.4638767
v -1.0789313 0.5031535 1.7344257
v -0.98849773 0.59358805 -1.4638761
v -1.0092928 0.33503124 1.7344242
v -1.0789313 0.16690898 1.7344252
v -0.988498 0.07647686 -1.4638761
v -0.988498 0.07647686 -1.4638761
v -1.2470534 0.09727138 1.7344252
v -1.0789313 0.16690898 1.7344252
v -1.2470531 -0.030619392 -1.4638772
v -1.4151751 0.16690944 1.7344252
v -1.5056083 0.07647777 -1.4638761
v -1.415175 0.5031535 1.7344257
v -1.2470531 0.5727922 1.7344257
v -1.2470534 0.33503184 2.034362
v -1.0789313 0.5031535 1.7344257
v -1.0789313 0.5031535 1.7344257
v -1.0092928 0.33503124 1.7344242
v -1.2470534 0.33503184 2.034362
v -1.0789313 0.16690898 1.7344252
v -1.0789313 0.16690898 1.7344252
v -1.2470534 0.09727138 1.7344252
v -1.2470534 0.33503184 2.034362
v -1.4151751 0.16690944 1.7344252
v -1.4151751 0.16690944 1.7344252
v -1.4848135 0.33503184 1.7344242
v -1.2470534 0.33503184 2.034362
v -1.415175 0.5031535 1.7344257
v -1.3497154 0.23236857 4.657587
v -1.4089729 0.33503032 4.8289175
v -1.3615477 0.2205357 4.8289175
v -1.3922392 0.33503032 4.6575894
v -1.3615477 0.44952434 4.8289175
v -1.38958 0.1925053 0.038478926
v -1.3497154 0.43769237 4.657587
v -1.4486171 0.33503246 0.038478926
v -1.38958 0.47755963 0.038478963
v -0.21408725 0.33503217 0.038478926
v -0.31298944 0.43769237 4.657587
v -0.27312395 0.47755963 0.03847942
v -0.2704656 0.33503002 4.657587
v -0.27312395 0.1925053 0.038478926
v -0.31298944 0.23236828 4.657587
v -0.30115736 0.2205357 4.8289175
v -0.2537322 0.33503002 4.8289175
v -0.3011572 0.44952372 4.8289175
v -0.41565132 0.13346858 0.03847889
v -0.31298944 0.23236828 4.657587
v -0.27312395 0.1925053 0.038478926
v -0.41565153 0.18984447 4.657588
v -0.41565153 0.17311077 4.8289175
v -0.30115736 0.2205357 4.8289175
v -0.5301459 0.2205357 4.8289175
v -0.5183135 0.23236857 4.657587
v -0.5581783 0.1925053 0.038478926
v -0.6534117 0.33503184 1.7344242
v -0.6742066 0.59358805 -1.4638761
v -0.5837731 0.5031535 1.7344257
v -0.78130364 0.33503246 -1.4638761
v -0.5837734 0.16690944 1.7344252
v -0.6742066 0.07647777 -1.4638761
v -0.6742066 0.59358805 -1.4638761
v -0.41565132 0.5727922 1.7344257
v -0.5837731 0.5031535 1.7344257
v -0.4156512 0.70068496 -1.4638761
v -0.15709591 0.59358805 -1.4638761
v -0.2475295 0.5031535 1.7344257
v -0.049999 0.33503246 -1.4638767
v -0.2475295 0.5031535 1.7344257
v -0.15709591 0.59358805 -1.4638761
v -0.177891 0.33503124 1.7344242
v -0.2475295 0.16690898 1.7344252
v -0.15709615 0.07647686 -1.4638761
v -0.15709615 0.07647686 -1.4638761
v -0.41565153 0.09727138 1.7344252
v -0.2475295 0.16690898 1.7344252
v -0.41565132 -0.030619392 -1.4638772
v -0.5837734 0.16690944 1.7344252
v -0.6742066 0.07647777 -1.4638761
v -0.5837731 0.5031535 1.7344257
v -0.41565132 0.5727922 1.7344257
v -0.41565153 0.33503184 2.034362
v -0.2475295 0.5031535 1.7344257
v -0.2475295 0.5031535 1.7344257
v -0.177891 0.33503124 1.7344242
v -0.41565153 0.33503184 2.034362
v -0.2475295 0.16690898 1.7344252
v -0.2475295 0.16690898 1.7344252
v -0.41565153 0.09727138 1.7344252
v -0.41565153 0.33503184 2.034362
v -0.5837734 0.16690944 1.7344252
v -0.5837734 0.16690944 1.7344252
v -0.6534117 0.33503184 1.7344242
v -0.41565153 0.33503184 2.034362
v -0.5837731 0.5031535 1.7344257
v -0.5183135 0.23236857 4.657587
v -0.57757103 0.33503032 4.8289175
v -0.5301459 0.2205357 4.8289175
v -0.5608374 0.33503032 4.6575894
v -0.5301459 0.44952434 4.8289175
v -0.5581783 0.1925053 0.038478926
v -0.5183135 0.43769237 4.657587
v -0.6172153 0.33503246 0.038478926
v -0.5581783 0.47755963 0.038478963
v 1.38958 0.47755963 0.038478963
v 1.2470533 0.48021555 4.657588
v 1.2470529 0.5365965 0.03847942
v 1.3497154 0.43769237 4.657587
v 1.1045258 0.47755963 0.03847942
v 1.3615477 0.44952434 4.8289175
v 1.1443913 0.43769237 4.657587
v 1.2470534 0.49694896 4.8289204
v 1.1325591 0.44952372 4.8289175
v 0.5581783 0.47755963 0.038478963
v 0.41565144 0.48021555 4.657588
v 0.4156512 0.5365965 0.03847942
v 0.5183135 0.43769237 4.657587
v 0.27312395 0.47755963 0.03847942
v 0.5301459 0.44952434 4.8289175
v 0.31298944 0.43769237 4.657587
v 0.41565153 0.49694896 4.8289204
v 0.3011572 0.44952372 4.8289175
v -1.2470533 0.48021555 4.657588
v -1.38958 0.47755963 0.038478963
v -1.2470529 0.5365965 0.03847942
v -1.3497154 0.43769237 4.657587
v -1.1045258 0.47755963 0.03847942
v -1.3615477 0.44952434 4.8289175
v -1.1443913 0.43769237 4.657587
v -1.2470534 0.49694896 4.8289204
v -1.1325591 0.44952372 4.8289175
v -0.41565144 0.48021555 4.657588
v -0.5581783 0.47755963 0.038478963
v -0.4156512 0.5365965 0.03847942
v -0.5183135 0.43769237 4.657587
v -0.27312395 0.47755963 0.03847942
v -0.5301459 0.44952434 4.8289175
v -0.31298944 0.43769237 4.657587
v -0.41565153 0.49694896 4.8289204
v -0.3011572 0.44952372 4.8289175
v 1.4089729 0.33503032 4.8289175
v 1.3204886 0.40846476 4.863694
v 1.3615477 0.44952434 4.8289175
v 1.3509066 0.33502972 4.863694
v 1.2470534 0.43888193 4.8636966
v 1.3615477 0.2205357 4.8289175
v 1.2470534 0.49694896 4.8289204
v 1.3204887 0.2615942 4.863694
v 1.1736183 0.40846476 4.863694
v 1.2470534 0.17311077 4.8289175
v 1.1325591 0.44952372 4.8289175
v 1.2470534 0.23117626 4.863694
v 1.1432003 0.3350294 4.863694
v 1.1325592 0.2205357 4.8289175
v 1.085134 0.33503002 4.8289175
v 1.1736183 0.2615942 4.863694
v 0.57757103 0.33503032 4.8289175
v 0.48908675 0.40846476 4.863694
v 0.5301459 0.44952434 4.8289175
v 0.5195048 0.33502972 4.863694
v 0.41565153 0.43888193 4.8636966
v 0.5301459 0.2205357 4.8289175
v 0.41565153 0.49694896 4.8289204
v 0.489087 0.2615942 4.863694
v 0.3422165 0.40846476 4.863694
v 0.41565153 0.17311077 4.8289175
v 0.3011572 0.44952372 4.8289175
v 0.41565153 0.23117626 4.863694
v 0.31179845 0.3350294 4.863694
v 0.30115736 0.2205357 4.8289175
v 0.2537322 0.33503002 4.8289175
v 0.3422165 0.2615942 4.863694
v -1.4089729 0.33503032 4.8289175
v -1.3204886 0.40846476 4.863694
v -1.3509066 0.33502972 4.863694
v -1.3615477 0.44952434 4.8289175
v -1.3615477 0.2205357 4.8289175
v -1.2470534 0.43888193 4.8636966
v -1.3204887 0.2615942 4.863694
v -1.2470534 0.49694896 4.8289204
v -1.2470534 0.17311077 4.8289175
v -1.1736183 0.40846476 4.863694
v -1.2470534 0.23117626 4.863694
v -1.1325591 0.44952372 4.8289175
v -1.1325592 0.2205357 4.8289175
v -1.1432003 0.3350294 4.863694
v -1.1736183 0.2615942 4.863694
v -1.085134 0.33503002 4.8289175
v -0.57757103 0.33503032 4.8289175
v -0.48908675 0.40846476 4.863694
v -0.5195048 0.33502972 4.863694
v -0.5301459 0.44952434 4.8289175
v -0.5301459 0.2205357 4.8289175
v -0.41565153 0.43888193 4.8636966
v -0.489087 0.2615942 4.863694
v -0.41565153 0.49694896 4.8289204
v -0.41565153 0.17311077 4.8289175
v -0.3422165 0.40846476 4.863694
v -0.41565153 0.23117626 4.863694
v -0.3011572 0.44952372 4.8289175
v -0.30115736 0.2205357 4.8289175
v -0.31179845 0.3350294 4.863694
v -0.3422165 0.2615942 4.863694
v -0.2537322 0.33503002 4.8289175
v 1.3509066 0.33502972 4.863694
v 1.2470533 0.33503062 4.0980396
v 1.3204886 0.40846476 4.863694
v 1.3204887 0.2615942 4.863694
v 1.3204886 0.40846476 4.863694
v 1.2470533 0.33503062 4.0980396
v 1.2470534 0.43888193 4.8636966
v 1.1736183 0.40846476 4.863694
v 1.1736183 0.40846476 4.863694
v 1.2470533 0.33503062 4.0980396
v 1.1432003 0.3350294 4.863694
v 1.1736183 0.2615942 4.863694
v 1.1736183 0.2615942 4.863694
v 1.2470533 0.33503062 4.0980396
v 1.2470534 0.23117626 4.863694
v 1.3204887 0.2615942 4.863694
v -1.9438931 0.4096281 -0.70945555
v 1.9438931 2.0561218E-05 -0.81921005
v 1.9438931 0.4096281 -0.70945555
v -1.9438931 2.0561218E-05 -0.81921005
v -1.9438931 -0.40958834 -0.7094557
v 1.9438931 -0.40958834 -0.7094557
v 1.9438931 0.70948106 -0.40960178
v -1.9438931 0.4096281 -0.70945555
v 1.9438931 0.4096281 -0.70945555
v -1.9438931 0.70948106 -0.40960178
v 1.9438931 0.8192351 6.1035153E-06
v -1.9438931 0.8192351 6.1035153E-06
v -1.9438931 0.7094807 0.40961397
v 1.9438931 0.7094807 0.40961397
v -1.9438931 0.4096278 0.70946807
v 1.9438931 0.4096278 0.70946807
v -1.9438931 1.9950867E-05 0.8192218
v 1.9438931 -0.40958774 0.7094679
v -1.9438931 -0.40958774 0.7094679
v 1.9438931 1.9950867E-05 0.8192218
v 1.9438931 0.4096278 0.70946807
v -1.9438931 0.4096278 0.70946807
v 1.9438931 -0.70944166 0.40961376
v -1.9438931 -0.40958774 0.7094679
v 1.9438931 -0.40958774 0.7094679
v -1.9438931 -0.70944166 0.40961376
v -1.9438931 -0.8191963 5.8364867E-06
v 1.9438931 -0.8191963 5.8364867E-06
v -1.9438931 -0.70944184 -0.40960202
v 1.9438931 -0.70944184 -0.40960202
v 1.9438931 -0.40958834 -0.7094557
v -1.9438931 -0.40958834 -0.7094557
v 0.5195048 0.33502972 4.863694
v 0.41565144 0.33503062 4.0980396
v 0.48908675 0.40846476 4.863694
v 0.489087 0.2615942 4.863694
v 0.48908675 0.40846476 4.863694
v 0.41565144 0.33503062 4.0980396
v 0.41565153 0.43888193 4.8636966
v 0.3422165 0.40846476 4.863694
v 0.3422165 0.40846476 4.863694
v 0.41565144 0.33503062 4.0980396
v 0.31179845 0.3350294 4.863694
v 0.3422165 0.2615942 4.863694
v 0.3422165 0.2615942 4.863694
v 0.41565144 0.33503062 4.0980396
v 0.41565153 0.23117626 4.863694
v 0.489087 0.2615942 4.863694
v -1.3509066 0.33502972 4.863694
v -1.3204886 0.40846476 4.863694
v -1.2470533 0.33503062 4.0980396
v -1.3204887 0.2615942 4.863694
v -1.3204886 0.40846476 4.863694
v -1.2470534 0.43888193 4.8636966
v -1.2470533 0.33503062 4.0980396
v -1.1736183 0.40846476 4.863694
v -1.1736183 0.40846476 4.863694
v -1.1432003 0.3350294 4.863694
v -1.2470533 0.33503062 4.0980396
v -1.1736183 0.2615942 4.863694
v -1.1736183 0.2615942 4.863694
v -1.2470534 0.23117626 4.863694
v -1.2470533 0.33503062 4.0980396
v -1.3204887 0.2615942 4.863694
v -0.5195048 0.33502972 4.863694
v -0.48908675 0.40846476 4.863694
v -0.41565144 0.33503062 4.0980396
v -0.489087 0.2615942 4.863694
v -0.48908675 0.40846476 4.863694
v -0.41565153 0.43888193 4.8636966
v -0.41565144 0.33503062 4.0980396
v -0.3422165 0.40846476 4.863694
v -0.3422165 0.40846476 4.863694
v -0.31179845 0.3350294 4.863694
v -0.41565144 0.33503062 4.0980396
v -0.3422165 0.2615942 4.863694
v -0.3422165 0.2615942 4.863694
v -0.41565153 0.23117626 4.863694
v -0.41565144 0.33503062 4.0980396
v -0.489087 0.2615942 4.863694
vt -2.1807196 0.5415064
vt -2.250247 0.5399464
vt -2.250247 0.5421122
vt -2.1807196 0.5399463
vt -2.250247 0.5377806
vt -2.1807196 0.53838634
vt -2.1781406 0.5382065
vt -2.1781406 0.5399463
vt -2.1781406 0.5416862
vt 0.785959 3.1807196
vt 0.784402 3.250247
vt 0.7865636 3.250247
vt 0.7844021 3.1807196
vt 0.78284514 3.1807196
vt 0.7822405 3.250247
vt 0.7826657 3.1781406
vt 0.7844021 3.1781406
vt 0.7861385 3.1781406
vt 3.2728605 0.54387534
vt 3.2247193 0.5399464
vt 3.2247193 0.5425011
vt 3.2728605 0.5399464
vt 3.2247193 0.5373916
vt 3.2728605 0.5360174
vt 0.21559793 3.2247193
vt 0.21951917 3.2728605
vt 0.21814764 3.2247193
vt 0.21559796 3.2728605
vt 0.21167678 3.2728605
vt 0.21304822 3.2247193
vt -2.2247193 0.5425011
vt -2.2728605 0.5399464
vt -2.2728605 0.54387534
vt -2.2247193 0.5399464
vt -2.2247193 0.5373916
vt -2.2728605 0.5360174
vt 0.7844021 3.2247193
vt 0.7883232 3.2728605
vt 0.7869518 3.2247193
vt 0.784402 3.2728605
vt 0.78185236 3.2247193
vt 0.78048086 3.2728605
vt 0.21814764 3.2247193
vt 0.21559793 3.2202046
vt 0.21559793 3.2247193
vt 0.21304822 3.2247193
vt -2.2247193 0.5425011
vt -2.2202046 0.5399464
vt -2.2247193 0.5399464
vt -2.2247193 0.5373916
vt 0.7869518 3.2247193
vt 0.7844021 3.2202046
vt 0.7844021 3.2247193
vt 0.78185236 3.2247193
vt 3.2247193 0.5373916
vt 3.2202046 0.5399464
vt 3.2247193 0.5399464
vt 3.2247193 0.5425011
vt 3.1781406 0.5399463
vt 3.1807196 0.53838634
vt 3.1781406 0.5382065
vt 3.1807196 0.5399463
vt 3.250247 0.5377806
vt 3.1781406 0.5416862
vt 3.250247 0.5399464
vt 3.1807196 0.5415064
vt 3.250247 0.5421122
vt -2.1807196 0.5415064
vt -2.250247 0.5399464
vt -2.250247 0.5421122
vt -2.1807196 0.5399463
vt -2.250247 0.5377806
vt -2.1807196 0.53838634
vt -2.1781406 0.5382065
vt -2.1781406 0.5399463
vt -2.1781406 0.5416862
vt 0.7985679 3.1807196
vt 0.7970109 3.250247
vt 0.7991725 3.250247
vt 0.797011 3.1807196
vt 0.795454 3.1807196
vt 0.7948494 3.250247
vt 0.7952746 3.1781406
vt 0.797011 3.1781406
vt 0.79874736 3.1781406
vt 3.2728605 0.54387534
vt 3.2247193 0.5399464
vt 3.2247193 0.5425011
vt 3.2728605 0.5399464
vt 3.2247193 0.5373916
vt 3.2728605 0.5360174
vt 0.20298904 3.2247193
vt 0.20691028 3.2728605
vt 0.20553875 3.2247193
vt 0.20298907 3.2728605
vt 0.19906789 3.2728605
vt 0.20043933 3.2247193
vt -2.2247193 0.5425011
vt -2.2728605 0.5399464
vt -2.2728605 0.54387534
vt -2.2247193 0.5399464
vt -2.2247193 0.5373916
vt -2.2728605 0.5360174
vt 0.79701096 3.2247193
vt 0.8009321 3.2728605
vt 0.79956067 3.2247193
vt 0.7970109 3.2728605
vt 0.79446125 3.2247193
vt 0.79308975 3.2728605
vt 0.20553875 3.2247193
vt 0.20298904 3.2202046
vt 0.20298904 3.2247193
vt 0.20043933 3.2247193
vt -2.2247193 0.5425011
vt -2.2202046 0.5399464
vt -2.2247193 0.5399464
vt -2.2247193 0.5373916
vt 0.79956067 3.2247193
vt 0.79701096 3.2202046
vt 0.79701096 3.2247193
vt 0.79446125 3.2247193
vt 3.2247193 0.5373916
vt 3.2202046 0.5399464
vt 3.2247193 0.5399464
vt 3.2247193 0.5425011
vt 3.1781406 0.5399463
vt 3.1807196 0.53838634
vt 3.1781406 0.5382065
vt 3.1807196 0.5399463
vt 3.250247 0.5377806
vt 3.1781406 0.5416862
vt 3.250247 0.5399464
vt 3.1807196 0.5415064
vt 3.250247 0.5421122
vt 3.250247 0.5399464
vt 3.1807196 0.5415064
vt 3.250247 0.5421122
vt 3.1807196 0.5399463
vt 3.250247 0.5377806
vt 3.1807196 0.53838634
vt 3.1781406 0.5382065
vt 3.1781406 0.5399463
vt 3.1781406 0.5416862
vt 0.82222724 3.250247
vt 0.8206703 3.1807196
vt 0.8200657 3.250247
vt 0.82222724 3.1807196
vt 0.82222724 3.1781406
vt 0.82049084 3.1781406
vt 0.82396364 3.1781406
vt 0.82378423 3.1807196
vt 0.82438874 3.250247
vt -2.2247193 0.5399464
vt -2.2728605 0.54387534
vt -2.2247193 0.5425011
vt -2.2728605 0.5399464
vt -2.2247193 0.5373916
vt -2.2728605 0.5360174
vt 0.17385161 3.2728605
vt 0.17777276 3.2247193
vt 0.17522308 3.2247193
vt 0.17777282 3.2728605
vt 0.181694 3.2728605
vt 0.18032247 3.2247193
vt 3.2728605 0.5399464
vt 3.2247193 0.5425011
vt 3.2728605 0.54387534
vt 3.2247193 0.5399464
vt 3.2247193 0.5373916
vt 3.2728605 0.5360174
vt 0.81830597 3.2728605
vt 0.82222724 3.2247193
vt 0.81967753 3.2247193
vt 0.8222272 3.2728605
vt 0.82477695 3.2247193
vt 0.8261484 3.2728605
vt 0.17522308 3.2247193
vt 0.17777276 3.2247193
vt 0.17777276 3.2202046
vt 0.18032247 3.2247193
vt 3.2247193 0.5425011
vt 3.2247193 0.5399464
vt 3.2202046 0.5399464
vt 3.2247193 0.5373916
vt 0.81967753 3.2247193
vt 0.82222724 3.2247193
vt 0.82222724 3.2202046
vt 0.82477695 3.2247193
vt -2.2247193 0.5373916
vt -2.2247193 0.5399464
vt -2.2202046 0.5399464
vt -2.2247193 0.5425011
vt -2.1807196 0.53838634
vt -2.1781406 0.5399463
vt -2.1781406 0.5382065
vt -2.1807196 0.5399463
vt -2.1781406 0.5416862
vt -2.250247 0.5377806
vt -2.1807196 0.5415064
vt -2.250247 0.5399464
vt -2.250247 0.5421122
vt 3.250247 0.5399464
vt 3.1807196 0.5415064
vt 3.250247 0.5421122
vt 3.1807196 0.5399463
vt 3.250247 0.5377806
vt 3.1807196 0.53838634
vt 3.1781406 0.5382065
vt 3.1781406 0.5399463
vt 3.1781406 0.5416862
vt 0.80961835 3.250247
vt 0.8080614 3.1807196
vt 0.80745673 3.250247
vt 0.80961835 3.1807196
vt 0.80961835 3.1781406
vt 0.80788195 3.1781406
vt 0.81135476 3.1781406
vt 0.81117535 3.1807196
vt 0.81177986 3.250247
vt -2.2247193 0.5399464
vt -2.2728605 0.54387534
vt -2.2247193 0.5425011
vt -2.2728605 0.5399464
vt -2.2247193 0.5373916
vt -2.2728605 0.5360174
vt 0.1864605 3.2728605
vt 0.19038168 3.2247193
vt 0.18783197 3.2247193
vt 0.1903817 3.2728605
vt 0.19430289 3.2728605
vt 0.19293138 3.2247193
vt 3.2728605 0.5399464
vt 3.2247193 0.5425011
vt 3.2728605 0.54387534
vt 3.2247193 0.5399464
vt 3.2247193 0.5373916
vt 3.2728605 0.5360174
vt 0.8056971 3.2728605
vt 0.80961835 3.2247193
vt 0.8070686 3.2247193
vt 0.8096183 3.2728605
vt 0.812168 3.2247193
vt 0.8135395 3.2728605
vt 0.18783197 3.2247193
vt 0.19038168 3.2247193
vt 0.19038165 3.2202046
vt 0.19293138 3.2247193
vt 3.2247193 0.5425011
vt 3.2247193 0.5399464
vt 3.2202046 0.5399464
vt 3.2247193 0.5373916
vt 0.8070686 3.2247193
vt 0.80961835 3.2247193
vt 0.80961835 3.2202046
vt 0.812168 3.2247193
vt -2.2247193 0.5373916
vt -2.2247193 0.5399464
vt -2.2202046 0.5399464
vt -2.2247193 0.5425011
vt -2.1807196 0.53838634
vt -2.1781406 0.5399463
vt -2.1781406 0.5382065
vt -2.1807196 0.5399463
vt -2.1781406 0.5416862
vt -2.250247 0.5377806
vt -2.1807196 0.5415064
vt -2.250247 0.5399464
vt -2.250247 0.5421122
vt 0.21775949 3.250247
vt 0.21559793 3.1807196
vt 0.21559796 3.250247
vt 0.21715486 3.1807196
vt 0.21343642 3.250247
vt 0.2173343 3.1781406
vt 0.21404096 3.1807196
vt 0.21559793 3.1781406
vt 0.21386153 3.1781406
vt 0.2051506 3.250247
vt 0.20298901 3.1807196
vt 0.20298907 3.250247
vt 0.20454597 3.1807196
vt 0.20082751 3.250247
vt 0.20472541 3.1781406
vt 0.20143208 3.1807196
vt 0.20298901 3.1781406
vt 0.20125261 3.1781406
vt 0.17777276 3.1807196
vt 0.17561126 3.250247
vt 0.17777279 3.250247
vt 0.1762158 3.1807196
vt 0.17993432 3.250247
vt 0.17603636 3.1781406
vt 0.1793297 3.1807196
vt 0.17777273 3.1781406
vt 0.17950913 3.1781406
vt 0.19038165 3.1807196
vt 0.18822014 3.250247
vt 0.19038168 3.250247
vt 0.18882468 3.1807196
vt 0.19254324 3.250247
vt 0.18864524 3.1781406
vt 0.19193858 3.1807196
vt 0.19038165 3.1781406
vt 0.19211802 3.1781406
vt 0.21805355 0.5399463
vt 0.21671161 0.54106224
vt 0.2173343 0.5416862
vt 0.21717292 0.5399463
vt 0.21559793 0.54152447
vt 0.2173343 0.5382065
vt 0.21559793 0.5424068
vt 0.21671161 0.5388304
vt 0.21448421 0.54106224
vt 0.21559793 0.53748584
vt 0.21386153 0.5416862
vt 0.21559793 0.5383682
vt 0.2140229 0.5399463
vt 0.21386153 0.5382065
vt 0.21314228 0.5399463
vt 0.21448421 0.5388304
vt 0.20544466 0.5399463
vt 0.20410272 0.54106224
vt 0.20472541 0.5416862
vt 0.20456403 0.5399463
vt 0.20298901 0.54152447
vt 0.20472541 0.5382065
vt 0.20298901 0.5424068
vt 0.20410272 0.5388304
vt 0.20187533 0.54106224
vt 0.20298901 0.53748584
vt 0.20125261 0.5416862
vt 0.20298901 0.5383682
vt 0.20141402 0.5399463
vt 0.20125264 0.5382065
vt 0.20053339 0.5399463
vt 0.20187533 0.5388304
vt 0.17531711 0.5399463
vt 0.17665905 0.54106224
vt 0.17619771 0.5399463
vt 0.17603636 0.5416862
vt 0.17603636 0.5382065
vt 0.17777273 0.54152447
vt 0.17665905 0.5388304
vt 0.17777273 0.5424068
vt 0.17777273 0.53748584
vt 0.17888644 0.54106224
vt 0.17777273 0.5383682
vt 0.17950913 0.5416862
vt 0.17950913 0.5382065
vt 0.17934775 0.5399463
vt 0.17888644 0.5388304
vt 0.18022838 0.5399463
vt 0.187926 0.5399463
vt 0.18926793 0.54106224
vt 0.18880662 0.5399463
vt 0.18864524 0.5416862
vt 0.18864524 0.5382065
vt 0.19038165 0.54152447
vt 0.18926793 0.5388304
vt 0.19038165 0.5424068
vt 0.19038165 0.53748584
vt 0.19149533 0.54106224
vt 0.19038165 0.5383682
vt 0.19211802 0.5416862
vt 0.19211802 0.5382065
vt 0.19195664 0.5399463
vt 0.19149533 0.5388304
vt 0.19283727 0.5399463
vt -2.1776173 0.5399463
vt -2.189142 0.5399464
vt -2.1776173 0.54106224
vt -2.1776173 0.5388304
vt 0.78328836 3.1776173
vt 0.7844021 3.189142
vt 0.7844021 3.1776173
vt 0.7855158 3.1776173
vt 3.1776173 0.54106224
vt 3.189142 0.5399464
vt 3.1776173 0.5399463
vt 3.1776173 0.5388304
vt 0.21448421 3.1776173
vt 0.21559793 3.189142
vt 0.21559793 3.1776173
vt 0.21671161 3.1776173
vt 0.8327954 0.54107994
vt 0.7738339 0.5348556
vt 0.7738339 0.54107994
vt 0.8327954 0.5348556
vt 0.8327954 0.52863127
vt 0.7738339 0.52863127
vt 0.2261661 3.2569914
vt 0.16720465 3.261505
vt 0.2261661 3.261505
vt 0.16720465 3.2569914
vt 0.2261661 3.2508261
vt 0.16720465 3.2508261
vt 0.16720465 3.2446606
vt 0.2261661 3.2446606
vt 0.16720465 3.240147
vt 0.2261661 3.240147
vt 0.16720465 0.5348556
vt 0.2261661 0.52863127
vt 0.16720465 0.52863127
vt 0.2261661 0.5348556
vt 0.2261661 0.54107994
vt 0.16720465 0.54107994
vt 0.7738339 3.2446606
vt 0.8327954 3.240147
vt 0.7738339 3.240147
vt 0.8327954 3.2446606
vt 0.8327954 3.2508261
vt 0.7738339 3.2508261
vt 0.8327954 3.2569914
vt 0.7738339 3.2569914
vt 0.7738339 3.261505
vt 0.8327954 3.261505
vt -2.1776173 0.5399463
vt -2.189142 0.5399464
vt -2.1776173 0.54106224
vt -2.1776173 0.5388304
vt 0.79589725 3.1776173
vt 0.79701096 3.189142
vt 0.797011 3.1776173
vt 0.7981247 3.1776173
vt 3.1776173 0.54106224
vt 3.189142 0.5399464
vt 3.1776173 0.5399463
vt 3.1776173 0.5388304
vt 0.20187533 3.1776173
vt 0.20298904 3.189142
vt 0.20298901 3.1776173
vt 0.20410272 3.1776173
vt 3.1776173 0.5399463
vt 3.1776173 0.54106224
vt 3.189142 0.5399464
vt 3.1776173 0.5388304
vt 0.82334095 3.1776173
vt 0.82222724 3.1776173
vt 0.82222724 3.189142
vt 0.8211136 3.1776173
vt -2.1776173 0.54106224
vt -2.1776173 0.5399463
vt -2.189142 0.5399464
vt -2.1776173 0.5388304
vt 0.17888644 3.1776173
vt 0.17777273 3.1776173
vt 0.17777276 3.189142
vt 0.17665905 3.1776173
vt 3.1776173 0.5399463
vt 3.1776173 0.54106224
vt 3.189142 0.5399464
vt 3.1776173 0.5388304
vt 0.81073207 3.1776173
vt 0.80961835 3.1776173
vt 0.80961835 3.189142
vt 0.8085047 3.1776173
vt -2.1776173 0.54106224
vt -2.1776173 0.5399463
vt -2.189142 0.5399464
vt -2.1776173 0.5388304
vt 0.19149533 3.1776173
vt 0.19038165 3.1776173
vt 0.19038165 3.189142
vt 0.18926793 3.1776173
vn -0.7064462 0.70645076 -0.043140758
vn -0.9999255 -1.3182087E-06 0.01220454
vn -0.7070549 0.70705324 0.012204913
vn -0.9990689 -1.1311141E-06 -0.043142553
vn -0.7070534 -0.7070548 0.012204178
vn -0.706448 -0.70644885 -0.04314308
vn -0.7037575 -0.7037589 -0.097205326
vn -0.9952644 -1.8917669E-07 -0.09720408
vn -0.7037556 0.7037611 -0.09720226
vn -0.706448 -0.70644885 -0.04314308
vn 5.0108713E-07 -0.9999255 0.012204001
vn -0.7070534 -0.7070548 0.012204178
vn 1.1209693E-06 -0.9990689 -0.04314433
vn 0.7064492 -0.70644754 -0.043143854
vn 0.70705336 -0.70705485 0.012204108
vn 0.7037574 -0.7037587 -0.09720675
vn -0 -0.9952642 -0.09720661
vn -0.7037575 -0.7037589 -0.097205326
vn 0.70654196 0.70654225 0.039955713
vn 0.9992015 1.4438214E-06 0.03995561
vn 0.7065417 0.70654255 0.039955825
vn 0.9992015 -4.976498E-07 0.03995549
vn 0.7065416 -0.7065428 0.039955333
vn 0.7065415 -0.70654285 0.039955165
vn -0 0.9992015 0.039956
vn 0.70654196 0.70654225 0.039955713
vn 0.7065417 0.70654255 0.039955825
vn -1.0367698E-07 0.9992015 0.039955776
vn -0.7065424 0.7065419 0.03995581
vn -0.7065423 0.70654196 0.03995584
vn -0.7065423 0.70654196 0.03995584
vn -0.9992015 -1.2117279E-07 0.039955575
vn -0.7065424 0.7065419 0.03995581
vn -0.9992015 2.2369063E-07 0.039955545
vn -0.7065402 -0.70654404 0.039955292
vn -0.70654106 -0.70654327 0.03995534
vn 1.2608053E-06 -0.9992015 0.039955087
vn -0.70654106 -0.70654327 0.03995534
vn -0.7065402 -0.70654404 0.039955292
vn 1.6750337E-06 -0.9992015 0.039955106
vn 0.7065416 -0.7065428 0.039955333
vn 0.7065415 -0.70654285 0.039955165
vn 0.5541273 0.5541228 0.62120116
vn 5.3849834E-07 2.626821E-07 1
vn -1.2949754E-07 0.7836506 0.6212018
vn -0.5541275 0.55412215 0.6212017
vn -0.5541275 0.55412215 0.6212017
vn 5.3849834E-07 2.626821E-07 1
vn -0.78365177 -1.2596594E-06 0.62120044
vn -0.55412453 -0.55412406 0.6212024
vn -0.55412453 -0.55412406 0.6212024
vn 5.3849834E-07 2.626821E-07 1
vn 9.535696E-07 -0.7836509 0.6212015
vn 0.554126 -0.5541235 0.6212016
vn 0.554126 -0.5541235 0.6212016
vn 5.3849834E-07 2.626821E-07 1
vn 0.7836522 -2.0013277E-07 0.6211998
vn 0.5541273 0.5541228 0.62120116
vn 0.9952642 1.3925519E-06 -0.097207345
vn 0.7064492 -0.70644754 -0.043143854
vn 0.7037574 -0.7037587 -0.09720675
vn 0.9990689 1.3187876E-07 -0.043144446
vn 0.70705336 -0.70705485 0.012204108
vn 0.7037544 0.7037619 -0.09720509
vn 0.9999255 0 0.012204441
vn 0.7064467 0.7064503 -0.04314131
vn 0.7070536 0.70705456 0.012204839
vn -0.70644623 0.7064508 -0.04314073
vn -0.9999255 -1.2976114E-06 0.0122045325
vn -0.70705503 0.70705324 0.012204912
vn -0.9990689 -1.1412584E-06 -0.04314257
vn -0.70705354 -0.7070546 0.012204175
vn -0.70644814 -0.70644873 -0.04314304
vn -0.7037575 -0.7037589 -0.097205326
vn -0.9952644 -2.1019633E-07 -0.09720409
vn -0.7037556 0.7037611 -0.09720211
vn -0.70644814 -0.70644873 -0.04314304
vn 5.0366174E-07 -0.9999255 0.012204003
vn -0.70705354 -0.7070546 0.012204175
vn 1.308643E-06 -0.9990689 -0.043144364
vn 0.70644915 -0.70644766 -0.043143857
vn 0.7070534 -0.7070548 0.012204116
vn 0.7037577 -0.7037585 -0.09720702
vn -0 -0.9952642 -0.097206585
vn -0.7037575 -0.7037589 -0.097205326
vn 0.7065421 0.7065421 0.039955717
vn 0.9992015 1.7081833E-06 0.03995563
vn 0.7065416 0.7065427 0.03995586
vn 0.9992015 -4.9764975E-07 0.03995547
vn 0.7065416 -0.7065428 0.039955325
vn 0.7065417 -0.70654255 0.039955165
vn -0 0.9992015 0.03995601
vn 0.7065421 0.7065421 0.039955717
vn 0.7065416 0.7065427 0.03995586
vn -1.0367699E-07 0.9992015 0.039955784
vn -0.7065423 0.70654196 0.039955806
vn -0.7065424 0.7065419 0.039955847
vn -0.7065424 0.7065419 0.039955847
vn -0.9992015 -1.1987683E-07 0.039955575
vn -0.7065423 0.70654196 0.039955806
vn -0.9992015 1.830196E-07 0.039955553
vn -0.7065402 -0.7065441 0.039955296
vn -0.70654106 -0.70654327 0.03995534
vn 1.2404695E-06 -0.9992015 0.039955083
vn -0.70654106 -0.70654327 0.03995534
vn -0.7065402 -0.7065441 0.039955296
vn 1.6536502E-06 -0.9992015 0.039955106
vn 0.7065416 -0.7065428 0.039955325
vn 0.7065417 -0.70654255 0.039955165
vn 0.5541272 0.5541229 0.62120104
vn 6.3043706E-07 4.2685843E-07 1
vn -0 0.7836506 0.6212018
vn -0.55412745 0.55412215 0.6212017
vn -0.55412745 0.55412215 0.6212017
vn 6.3043706E-07 4.2685843E-07 1
vn -0.78365177 -1.2832043E-06 0.62120044
vn -0.55412453 -0.55412406 0.6212024
vn -0.55412453 -0.55412406 0.6212024
vn 6.3043706E-07 4.2685843E-07 1
vn 9.1825217E-07 -0.7836509 0.6212015
vn 0.554126 -0.55412346 0.6212017
vn 0.554126 -0.55412346 0.6212017
vn 6.3043706E-07 4.2685843E-07 1
vn 0.7836522 0 0.6211998
vn 0.5541272 0.5541229 0.62120104
vn 0.9952642 1.1823552E-06 -0.09720717
vn 0.70644915 -0.70644766 -0.043143857
vn 0.7037577 -0.7037585 -0.09720702
vn 0.9990689 0 -0.04314434
vn 0.7070534 -0.7070548 0.012204116
vn 0.7037545 0.70376176 -0.0972051
vn 0.9999255 0 0.012204441
vn 0.7064465 0.70645046 -0.043141447
vn 0.70705366 0.7070545 0.012204842
vn 0.9999255 -1.3182087E-06 0.01220454
vn 0.7064462 0.7064508 -0.043140765
vn 0.7070549 0.70705324 0.012204913
vn 0.9990689 -1.1285778E-06 -0.043142546
vn 0.7070534 -0.7070548 0.012204178
vn 0.706448 -0.70644885 -0.04314308
vn 0.7037575 -0.7037589 -0.097205326
vn 0.9952644 -1.8917669E-07 -0.09720408
vn 0.7037556 0.7037611 -0.09720226
vn -4.9432873E-07 -0.9999255 0.012204001
vn 0.706448 -0.70644885 -0.04314308
vn 0.7070534 -0.7070548 0.012204178
vn -1.1235054E-06 -0.9990689 -0.04314433
vn -0 -0.9952642 -0.09720661
vn 0.7037575 -0.7037589 -0.097205326
vn -0.7037574 -0.7037587 -0.09720675
vn -0.7064492 -0.7064476 -0.043143846
vn -0.70705336 -0.70705485 0.01220411
vn -0.9992015 1.4438214E-06 0.03995561
vn -0.70654196 0.70654225 0.039955713
vn -0.7065417 0.70654255 0.039955825
vn -0.9992015 -5.047776E-07 0.039955486
vn -0.7065415 -0.70654285 0.039955337
vn -0.7065415 -0.70654285 0.039955165
vn -0.70654196 0.70654225 0.039955713
vn 1.0167797E-07 0.9992015 0.039955996
vn -0.7065417 0.70654255 0.039955825
vn 1.0367698E-07 0.9992015 0.039955776
vn 0.7065424 0.7065419 0.03995581
vn 0.7065424 0.7065419 0.039955847
vn 0.9992015 -1.2441271E-07 0.039955575
vn 0.7065424 0.7065419 0.039955847
vn 0.7065424 0.7065419 0.03995581
vn 0.9992015 2.2369063E-07 0.039955545
vn 0.7065402 -0.70654404 0.039955292
vn 0.706541 -0.70654327 0.039955337
vn 0.706541 -0.70654327 0.039955337
vn -1.2608053E-06 -0.9992015 0.039955087
vn 0.7065402 -0.70654404 0.039955292
vn -1.6795693E-06 -0.9992015 0.03995511
vn -0.7065415 -0.70654285 0.039955337
vn -0.7065415 -0.70654285 0.039955165
vn -0.55412716 0.55412287 0.62120116
vn 1.2949754E-07 0.7836506 0.6212018
vn -5.253642E-07 2.6924917E-07 1
vn 0.55412745 0.5541222 0.6212017
vn 0.55412745 0.5541222 0.6212017
vn 0.78365177 -1.2007968E-06 0.62120044
vn -5.253642E-07 2.6924917E-07 1
vn 0.55412453 -0.55412406 0.6212024
vn 0.55412453 -0.55412406 0.6212024
vn -9.535697E-07 -0.7836509 0.6212015
vn -5.253642E-07 2.6924917E-07 1
vn -0.554126 -0.5541235 0.6212016
vn -0.554126 -0.5541235 0.6212016
vn -0.7836522 -2.2367777E-07 0.6211998
vn -5.253642E-07 2.6924917E-07 1
vn -0.55412716 0.55412287 0.62120116
vn -0.7064492 -0.7064476 -0.043143846
vn -0.9952642 1.3978067E-06 -0.09720735
vn -0.7037574 -0.7037587 -0.09720675
vn -0.9990689 1.2173425E-07 -0.043144446
vn -0.7037544 0.7037619 -0.09720509
vn -0.70705336 -0.70705485 0.01220411
vn -0.7064467 0.7064503 -0.04314131
vn -0.9999255 0 0.012204441
vn -0.70705366 0.7070545 0.012204837
vn 0.9999255 -1.2976114E-06 0.0122045325
vn 0.70644623 0.7064508 -0.04314073
vn 0.70705503 0.70705324 0.012204912
vn 0.9990689 -1.1387223E-06 -0.04314257
vn 0.70705354 -0.7070546 0.012204175
vn 0.7064481 -0.70644873 -0.04314304
vn 0.7037575 -0.7037589 -0.097205326
vn 0.9952644 -2.1019633E-07 -0.09720409
vn 0.7037556 0.7037611 -0.09720211
vn -4.943287E-07 -0.9999255 0.012204003
vn 0.7064481 -0.70644873 -0.04314304
vn 0.70705354 -0.7070546 0.012204175
vn -1.3111793E-06 -0.9990689 -0.043144364
vn -0 -0.9952642 -0.097206585
vn 0.7037575 -0.7037589 -0.097205326
vn -0.7037577 -0.7037585 -0.09720702
vn -0.70644915 -0.70644766 -0.043143857
vn -0.7070534 -0.7070548 0.012204117
vn -0.9992015 1.7081833E-06 0.03995563
vn -0.7065422 0.70654213 0.03995572
vn -0.7065416 0.7065427 0.03995586
vn -0.9992015 -5.0153756E-07 0.039955474
vn -0.70654154 -0.7065427 0.03995532
vn -0.7065417 -0.70654255 0.039955165
vn -0.7065422 0.70654213 0.03995572
vn -0 0.9992015 0.039956007
vn -0.7065416 0.7065427 0.03995586
vn 1.0367699E-07 0.9992015 0.039955784
vn 0.7065423 0.70654196 0.039955806
vn 0.7065424 0.70654184 0.039955847
vn 0.9992015 -1.2441271E-07 0.039955575
vn 0.7065424 0.70654184 0.039955847
vn 0.7065423 0.70654196 0.039955806
vn 0.9992015 1.830196E-07 0.039955553
vn 0.7065402 -0.7065441 0.039955296
vn 0.706541 -0.70654327 0.039955337
vn 0.706541 -0.70654327 0.039955337
vn -1.2404695E-06 -0.9992015 0.039955083
vn 0.7065402 -0.7065441 0.039955296
vn -1.658834E-06 -0.9992015 0.039955106
vn -0.70654154 -0.7065427 0.03995532
vn -0.7065417 -0.70654255 0.039955165
vn -0.5541272 0.55412304 0.6212011
vn -0 0.7836506 0.6212018
vn -6.5670525E-07 4.3999253E-07 1
vn 0.55412745 0.5541222 0.6212017
vn 0.55412745 0.5541222 0.6212017
vn 0.78365177 -1.2478868E-06 0.62120044
vn -6.5670525E-07 4.3999253E-07 1
vn 0.55412453 -0.55412406 0.6212024
vn 0.55412453 -0.55412406 0.6212024
vn -9.300246E-07 -0.7836509 0.6212015
vn -6.5670525E-07 4.3999253E-07 1
vn -0.554126 -0.55412346 0.6212017
vn -0.554126 -0.55412346 0.6212017
vn -0.7836522 0 0.6211998
vn -6.5670525E-07 4.3999253E-07 1
vn -0.5541272 0.55412304 0.6212011
vn -0.70644915 -0.70644766 -0.043143857
vn -0.9952642 1.1771002E-06 -0.09720718
vn -0.7037577 -0.7037585 -0.09720702
vn -0.9990689 0 -0.04314434
vn -0.7037545 0.70376176 -0.0972051
vn -0.7070534 -0.7070548 0.012204117
vn -0.7064465 0.70645046 -0.043141447
vn -0.9999255 0 0.012204441
vn -0.70705366 0.7070545 0.012204841
vn 0.7070536 0.70705456 0.012204839
vn -6.2388676E-07 0.99906904 -0.043141097
vn 4.943272E-07 0.9999255 0.012205109
vn 0.7064467 0.7064503 -0.04314131
vn -0.7070549 0.70705324 0.012204913
vn 0.7037544 0.7037619 -0.09720509
vn -0.7064462 0.70645076 -0.043140758
vn -2.1230069E-06 0.99526453 -0.0972038
vn -0.7037556 0.7037611 -0.09720226
vn 0.70705366 0.7070545 0.012204842
vn -5.630197E-07 0.99906904 -0.043141108
vn 5.76715E-07 0.9999255 0.012205108
vn 0.7064465 0.70645046 -0.043141447
vn -0.70705503 0.70705324 0.012204912
vn 0.7037545 0.70376176 -0.0972051
vn -0.70644623 0.7064508 -0.04314073
vn -2.059947E-06 0.99526453 -0.0972038
vn -0.7037556 0.7037611 -0.09720211
vn 6.2642283E-07 0.99906904 -0.043141097
vn -0.70705366 0.7070545 0.012204837
vn -4.943272E-07 0.9999255 0.012205109
vn -0.7064467 0.7064503 -0.04314131
vn 0.7070549 0.70705324 0.012204913
vn -0.7037544 0.7037619 -0.09720509
vn 0.7064462 0.7064508 -0.043140765
vn 2.1230069E-06 0.99526453 -0.0972038
vn 0.7037556 0.7037611 -0.09720226
vn 5.6555587E-07 0.99906904 -0.04314111
vn -0.70705366 0.7070545 0.012204841
vn -5.76715E-07 0.9999255 0.012205108
vn -0.7064465 0.70645046 -0.043141447
vn 0.70705503 0.70705324 0.012204912
vn -0.7037545 0.70376176 -0.0972051
vn 0.70644623 0.7064508 -0.04314073
vn 2.059947E-06 0.99526453 -0.0972038
vn 0.7037556 0.7037611 -0.09720211
vn 0.51380944 1.429482E-06 0.8579043
vn 0.36332363 0.36330926 0.8579057
vn 0.3633241 0.3633108 0.8579049
vn 0.5138097 -4.597721E-07 0.85790414
vn -3.4543418E-06 0.5138031 0.8579082
vn 0.36332038 -0.36332014 0.8579025
vn -1.9593642E-06 0.5138036 0.8579079
vn 0.36331972 -0.3633212 0.85790235
vn -0.36332363 0.3633136 0.85790384
vn -0 -0.5138144 0.85790133
vn -0.36332485 0.3633108 0.8579047
vn 1.1994068E-07 -0.51381433 0.8579015
vn -0.5138097 -1.8550804E-06 0.8579042
vn -0.36332044 -0.3633196 0.8579027
vn -0.51380944 8.6261804E-07 0.8579043
vn -0.3633193 -0.36332053 0.8579028
vn 0.5138095 1.3925119E-06 0.8579043
vn 0.36332378 0.3633091 0.8579057
vn 0.36332428 0.36331075 0.8579049
vn 0.5138099 -4.6377042E-07 0.85790414
vn -3.4543418E-06 0.5138031 0.8579082
vn 0.3633207 -0.36332017 0.85790247
vn -1.9593642E-06 0.5138036 0.8579079
vn 0.36332047 -0.36332092 0.85790217
vn -0.3633236 0.36331365 0.85790396
vn -0 -0.5138145 0.85790133
vn -0.36332485 0.3633108 0.8579047
vn -0 -0.51381433 0.8579015
vn -0.5138097 -1.8870643E-06 0.85790414
vn -0.3633204 -0.36331955 0.8579028
vn -0.51380944 8.872645E-07 0.8579043
vn -0.36331925 -0.36332053 0.8579029
vn -0.51380944 1.429482E-06 0.8579043
vn -0.36332363 0.36330926 0.8579057
vn -0.5138097 -4.637701E-07 0.8579042
vn -0.3633241 0.3633108 0.8579049
vn -0.36332038 -0.36332014 0.8579025
vn 3.4543418E-06 0.5138031 0.8579082
vn -0.36331972 -0.3633212 0.85790235
vn 1.962445E-06 0.5138036 0.8579079
vn -0 -0.5138144 0.85790133
vn 0.36332363 0.3633136 0.85790384
vn -1.1994068E-07 -0.51381433 0.8579015
vn 0.36332485 0.3633108 0.8579047
vn 0.36332044 -0.3633196 0.8579027
vn 0.5138097 -1.8550804E-06 0.8579042
vn 0.3633193 -0.36332053 0.8579028
vn 0.51380944 8.6261804E-07 0.8579043
vn -0.5138095 1.3925119E-06 0.8579043
vn -0.36332378 0.3633091 0.8579057
vn -0.5138099 -4.6377042E-07 0.85790414
vn -0.36332428 0.36331075 0.8579049
vn -0.3633207 -0.36332017 0.85790247
vn 3.4543418E-06 0.5138031 0.8579082
vn -0.36332047 -0.36332092 0.85790217
vn 1.962445E-06 0.5138036 0.8579079
vn -0 -0.5138145 0.85790133
vn 0.3633236 0.36331365 0.85790396
vn -0 -0.51381433 0.8579015
vn 0.36332485 0.36331084 0.8579047
vn 0.3633204 -0.36331955 0.8579028
vn 0.5138097 -1.8870643E-06 0.85790414
vn 0.36331925 -0.36332053 0.8579029
vn 0.51380944 8.872645E-07 0.8579043
vn -0.9909259 -1.6326619E-06 0.13440917
vn -2.4161838E-05 -5.858518E-06 1
vn -0.70068264 -0.7006985 0.1344079
vn -0.7006904 0.7006902 0.13441008
vn -0.70068264 -0.7006985 0.1344079
vn -2.4161838E-05 -5.858518E-06 1
vn 3.1805533E-07 -0.9909264 0.13440615
vn 0.70068365 -0.70069754 0.1344076
vn 0.70068365 -0.70069754 0.1344076
vn -2.4161838E-05 -5.858518E-06 1
vn 0.990926 7.2091564E-07 0.13440868
vn 0.7006901 0.7006906 0.13440968
vn 0.7006901 0.7006906 0.13440968
vn -2.4161838E-05 -5.858518E-06 1
vn 6.9971236E-07 0.9909258 0.13441044
vn -0.7006904 0.7006902 0.13441008
vn -0 0.5000012 -0.86602473
vn -0 5.30335E-07 -1
vn -0 0.50000113 -0.8660248
vn -0 5.9908206E-07 -1
vn -0 -0.50000006 -0.8660253
vn -0 -0.50000006 -0.8660253
vn -0 0.8660258 -0.49999928
vn -0 0.5000012 -0.86602473
vn -0 0.50000113 -0.8660248
vn -0 0.8660258 -0.49999934
vn -0 1 3.3145946E-07
vn -0 1 3.437356E-07
vn -0 0.8660258 0.4999994
vn -0 0.8660258 0.4999994
vn -0 0.5000005 0.86602515
vn -0 0.5000005 0.86602515
vn -0 -3.044516E-07 1
vn -0 -0.49999997 0.86602545
vn -0 -0.5 0.86602545
vn -0 -3.1427248E-07 1
vn -0 0.5000005 0.86602515
vn -0 0.5000005 0.86602515
vn -0 -0.86602515 0.50000054
vn -0 -0.5 0.86602545
vn -0 -0.49999997 0.86602545
vn -0 -0.86602515 0.5000004
vn -0 -1 0
vn -0 -1 1.8659942E-07
vn -0 -0.86602527 -0.50000036
vn -0 -0.86602527 -0.50000024
vn -0 -0.50000006 -0.8660253
vn -0 -0.50000006 -0.8660253
vn -0.9909259 -2.035525E-06 0.13440913
vn -1.462812E-05 -6.513516E-06 1
vn -0.70068294 -0.7006982 0.13440795
vn -0.7006909 0.7006898 0.13441019
vn -0.70068294 -0.7006982 0.13440795
vn -1.462812E-05 -6.513516E-06 1
vn 3.1805533E-07 -0.9909264 0.13440615
vn 0.7006836 -0.7006976 0.13440756
vn 0.7006836 -0.7006976 0.13440756
vn -1.462812E-05 -6.513516E-06 1
vn 0.990926 7.209157E-07 0.13440865
vn 0.70069 0.70069075 0.13440964
vn 0.70069 0.70069075 0.13440964
vn -1.462812E-05 -6.513516E-06 1
vn 8.2693265E-07 0.9909258 0.13441044
vn -0.7006909 0.7006898 0.13441019
vn 0.9909259 -1.6326617E-06 0.13440917
vn 0.70068264 -0.70069844 0.13440791
vn 2.4452946E-05 -5.9312947E-06 1
vn 0.7006905 0.7006902 0.1344101
vn 0.70068264 -0.70069844 0.13440791
vn -2.9685165E-07 -0.9909264 0.13440613
vn 2.4452946E-05 -5.9312947E-06 1
vn -0.70068365 -0.70069754 0.1344076
vn -0.70068365 -0.70069754 0.1344076
vn -0.990926 7.4211897E-07 0.1344087
vn 2.4452946E-05 -5.9312947E-06 1
vn -0.70069003 0.7006907 0.1344097
vn -0.70069003 0.7006907 0.1344097
vn -6.573055E-07 0.9909258 0.13441044
vn 2.4452946E-05 -5.9312947E-06 1
vn 0.7006905 0.7006902 0.1344101
vn 0.9909259 -2.0991354E-06 0.13440913
vn 0.7006829 -0.7006982 0.13440791
vn 1.462812E-05 -6.513516E-06 1
vn 0.7006909 0.70068985 0.1344102
vn 0.7006829 -0.7006982 0.13440791
vn -3.39259E-07 -0.9909264 0.13440615
vn 1.462812E-05 -6.513516E-06 1
vn -0.7006836 -0.7006976 0.13440756
vn -0.7006836 -0.7006976 0.13440756
vn -0.990926 6.9971225E-07 0.13440865
vn 1.462812E-05 -6.513516E-06 1
vn -0.7006901 0.70069075 0.13440964
vn -0.7006901 0.70069075 0.13440964
vn -8.2693265E-07 0.9909258 0.13441044
vn 1.462812E-05 -6.513516E-06 1
vn 0.7006909 0.70068985 0.1344102
g Atl_gun_cal125A_x4_barrel_001_0
f 3/3/3 2/2/2 1/1/1
f 4/4/4 1/1/1 2/2/2
f 2/2/2 5/5/5 4/4/4
f 6/6/6 4/4/4 5/5/5
f 6/6/6 7/7/7 4/4/4
f 8/8/8 4/4/4 7/7/7
f 4/4/4 8/8/8 1/1/1
f 9/9/9 1/1/1 8/8/8
f 12/12/12 11/11/11 10/10/10
f 13/13/13 10/10/10 11/11/11
f 13/13/13 11/11/11 14/14/14
f 15/15/15 14/14/14 11/11/11
f 14/14/14 16/16/16 13/13/13
f 17/17/17 13/13/13 16/16/16
f 13/13/13 17/17/17 10/10/10
f 18/18/18 10/10/10 17/17/17
f 21/21/21 20/20/20 19/19/19
f 22/22/22 19/19/19 20/20/20
f 20/20/20 23/23/23 22/22/22
f 24/24/24 22/22/22 23/23/23
f 27/27/27 26/26/26 25/25/25
f 28/28/28 25/25/25 26/26/26
f 28/28/28 29/29/29 25/25/25
f 30/30/30 25/25/25 29/29/29
f 33/33/33 32/32/32 31/31/31
f 34/34/34 31/31/31 32/32/32
f 34/34/34 32/32/32 35/35/35
f 36/36/36 35/35/35 32/32/32
f 39/39/39 38/38/38 37/37/37
f 40/40/40 37/37/37 38/38/38
f 37/37/37 40/40/40 41/41/41
f 42/42/42 41/41/41 40/40/40
f 45/45/45 44/44/44 43/43/43
f 46/46/46 44/44/44 45/45/45
f 49/49/49 48/48/48 47/47/47
f 50/50/50 48/48/48 49/49/49
f 53/53/53 52/52/52 51/51/51
f 54/54/54 52/52/52 53/53/53
f 57/57/57 56/56/56 55/55/55
f 58/58/58 56/56/56 57/57/57
f 61/61/61 60/60/60 59/59/59
f 62/62/62 59/59/59 60/60/60
f 60/60/60 63/63/63 62/62/62
f 59/59/59 62/62/62 64/64/64
f 65/65/65 62/62/62 63/63/63
f 66/66/66 64/64/64 62/62/62
f 65/65/65 67/67/67 62/62/62
f 66/66/66 62/62/62 67/67/67
f 70/70/70 69/69/69 68/68/68
f 71/71/71 68/68/68 69/69/69
f 69/69/69 72/72/72 71/71/71
f 73/73/73 71/71/71 72/72/72
f 73/73/73 74/74/74 71/71/71
f 75/75/75 71/71/71 74/74/74
f 71/71/71 75/75/75 68/68/68
f 76/76/76 68/68/68 75/75/75
f 79/79/79 78/78/78 77/77/77
f 80/80/80 77/77/77 78/78/78
f 80/80/80 78/78/78 81/81/81
f 82/82/82 81/81/81 78/78/78
f 81/81/81 83/83/83 80/80/80
f 84/84/84 80/80/80 83/83/83
f 80/80/80 84/84/84 77/77/77
f 85/85/85 77/77/77 84/84/84
f 88/88/88 87/87/87 86/86/86
f 89/89/89 86/86/86 87/87/87
f 87/87/87 90/90/90 89/89/89
f 91/91/91 89/89/89 90/90/90
f 94/94/94 93/93/93 92/92/92
f 95/95/95 92/92/92 93/93/93
f 95/95/95 96/96/96 92/92/92
f 97/97/97 92/92/92 96/96/96
f 100/100/100 99/99/99 98/98/98
f 101/101/101 98/98/98 99/99/99
f 101/101/101 99/99/99 102/102/102
f 103/103/103 102/102/102 99/99/99
f 106/106/106 105/105/105 104/104/104
f 107/107/107 104/104/104 105/105/105
f 104/104/104 107/107/107 108/108/108
f 109/109/109 108/108/108 107/107/107
f 112/112/112 111/111/111 110/110/110
f 113/113/113 111/111/111 112/112/112
f 116/116/116 115/115/115 114/114/114
f 117/117/117 115/115/115 116/116/116
f 120/120/120 119/119/119 118/118/118
f 121/121/121 119/119/119 120/120/120
f 124/124/124 123/123/123 122/122/122
f 125/125/125 123/123/123 124/124/124
f 128/128/128 127/127/127 126/126/126
f 129/129/129 126/126/126 127/127/127
f 127/127/127 130/130/130 129/129/129
f 126/126/126 129/129/129 131/131/131
f 132/132/132 129/129/129 130/130/130
f 133/133/133 131/131/131 129/129/129
f 132/132/132 134/134/134 129/129/129
f 133/133/133 129/129/129 134/134/134
f 137/137/137 136/136/136 135/135/135
f 138/138/138 135/135/135 136/136/136
f 135/135/135 138/138/138 139/139/139
f 140/140/140 139/139/139 138/138/138
f 140/140/140 138/138/138 141/141/141
f 142/142/142 141/141/141 138/138/138
f 138/138/138 136/136/136 142/142/142
f 143/143/143 142/142/142 136/136/136
f 146/146/146 145/145/145 144/144/144
f 147/147/147 144/144/144 145/145/145
f 147/147/147 145/145/145 148/148/148
f 149/149/149 148/148/148 145/145/145
f 148/148/148 150/150/150 147/147/147
f 151/151/151 147/147/147 150/150/150
f 147/147/147 151/151/151 144/144/144
f 152/152/152 144/144/144 151/151/151
f 155/155/155 154/154/154 153/153/153
f 156/156/156 153/153/153 154/154/154
f 153/153/153 156/156/156 157/157/157
f 158/158/158 157/157/157 156/156/156
f 161/161/161 160/160/160 159/159/159
f 162/162/162 159/159/159 160/160/160
f 162/162/162 160/160/160 163/163/163
f 164/164/164 163/163/163 160/160/160
f 167/167/167 166/166/166 165/165/165
f 168/168/168 165/165/165 166/166/166
f 168/168/168 169/169/169 165/165/165
f 170/170/170 165/165/165 169/169/169
f 173/173/173 172/172/172 171/171/171
f 174/174/174 171/171/171 172/172/172
f 172/172/172 175/175/175 174/174/174
f 176/176/176 174/174/174 175/175/175
f 179/179/179 178/178/178 177/177/177
f 179/179/179 180/180/180 178/178/178
f 183/183/183 182/182/182 181/181/181
f 183/183/183 184/184/184 182/182/182
f 187/187/187 186/186/186 185/185/185
f 187/187/187 188/188/188 186/186/186
f 191/191/191 190/190/190 189/189/189
f 191/191/191 192/192/192 190/190/190
f 195/195/195 194/194/194 193/193/193
f 196/196/196 193/193/193 194/194/194
f 194/194/194 197/197/197 196/196/196
f 193/193/193 196/196/196 198/198/198
f 199/199/199 196/196/196 197/197/197
f 200/200/200 198/198/198 196/196/196
f 199/199/199 201/201/201 196/196/196
f 200/200/200 196/196/196 201/201/201
f 204/204/204 203/203/203 202/202/202
f 205/205/205 202/202/202 203/203/203
f 202/202/202 205/205/205 206/206/206
f 207/207/207 206/206/206 205/205/205
f 207/207/207 205/205/205 208/208/208
f 209/209/209 208/208/208 205/205/205
f 205/205/205 203/203/203 209/209/209
f 210/210/210 209/209/209 203/203/203
f 213/213/213 212/212/212 211/211/211
f 214/214/214 211/211/211 212/212/212
f 214/214/214 212/212/212 215/215/215
f 216/216/216 215/215/215 212/212/212
f 215/215/215 217/217/217 214/214/214
f 218/218/218 214/214/214 217/217/217
f 214/214/214 218/218/218 211/211/211
f 219/219/219 211/211/211 218/218/218
f 222/222/222 221/221/221 220/220/220
f 223/223/223 220/220/220 221/221/221
f 220/220/220 223/223/223 224/224/224
f 225/225/225 224/224/224 223/223/223
f 228/228/228 227/227/227 226/226/226
f 229/229/229 226/226/226 227/227/227
f 229/229/229 227/227/227 230/230/230
f 231/231/231 230/230/230 227/227/227
f 234/234/234 233/233/233 232/232/232
f 235/235/235 232/232/232 233/233/233
f 235/235/235 236/236/236 232/232/232
f 237/237/237 232/232/232 236/236/236
f 240/240/240 239/239/239 238/238/238
f 241/241/241 238/238/238 239/239/239
f 239/239/239 242/242/242 241/241/241
f 243/243/243 241/241/241 242/242/242
f 246/246/246 245/245/245 244/244/244
f 246/246/246 247/247/247 245/245/245
f 250/250/250 249/249/249 248/248/248
f 250/250/250 251/251/251 249/249/249
f 254/254/254 253/253/253 252/252/252
f 254/254/254 255/255/255 253/253/253
f 258/258/258 257/257/257 256/256/256
f 258/258/258 259/259/259 257/257/257
f 262/262/262 261/261/261 260/260/260
f 263/263/263 260/260/260 261/261/261
f 261/261/261 264/264/264 263/263/263
f 260/260/260 263/263/263 265/265/265
f 266/266/266 263/263/263 264/264/264
f 267/267/267 265/265/265 263/263/263
f 266/266/266 268/268/268 263/263/263
f 267/267/267 263/263/263 268/268/268
f 271/271/271 270/270/270 269/269/269
f 272/272/272 269/269/269 270/270/270
f 271/271/271 273/273/273 270/270/270
f 272/272/272 270/270/270 274/274/274
f 275/275/275 270/270/270 273/273/273
f 276/276/276 274/274/274 270/270/270
f 275/275/275 277/277/277 270/270/270
f 276/276/276 270/270/270 277/277/277
f 280/280/280 279/279/279 278/278/278
f 281/281/281 278/278/278 279/279/279
f 280/280/280 282/282/282 279/279/279
f 281/281/281 279/279/279 283/283/283
f 284/284/284 279/279/279 282/282/282
f 285/285/285 283/283/283 279/279/279
f 284/284/284 286/286/286 279/279/279
f 285/285/285 279/279/279 286/286/286
f 289/289/289 288/288/288 287/287/287
f 290/290/290 287/287/287 288/288/288
f 289/289/289 287/287/287 291/291/291
f 290/290/290 292/292/292 287/287/287
f 293/293/293 291/291/291 287/287/287
f 294/294/294 287/287/287 292/292/292
f 293/293/293 287/287/287 295/295/295
f 294/294/294 295/295/295 287/287/287
f 298/298/298 297/297/297 296/296/296
f 299/299/299 296/296/296 297/297/297
f 298/298/298 296/296/296 300/300/300
f 299/299/299 301/301/301 296/296/296
f 302/302/302 300/300/300 296/296/296
f 303/303/303 296/296/296 301/301/301
f 302/302/302 296/296/296 304/304/304
f 303/303/303 304/304/304 296/296/296
g Atl_gun_cal125A_x4_barrel_001_1
f 307/307/307 306/306/306 305/305/305
f 308/308/308 305/305/305 306/306/306
f 306/306/306 307/307/307 309/309/309
f 305/305/305 308/308/308 310/310/310
f 311/311/311 309/309/309 307/307/307
f 312/312/312 310/310/310 308/308/308
f 309/309/309 311/311/311 313/313/313
f 310/310/310 312/312/312 314/314/314
f 315/315/315 313/313/313 311/311/311
f 316/316/316 314/314/314 312/312/312
f 313/313/313 315/315/315 317/317/317
f 314/314/314 316/316/316 318/318/318
f 319/319/319 317/317/317 315/315/315
f 320/320/320 318/318/318 316/316/316
f 317/317/317 319/319/319 320/320/320
f 318/318/318 320/320/320 319/319/319
f 323/323/323 322/322/322 321/321/321
f 324/324/324 321/321/321 322/322/322
f 322/322/322 323/323/323 325/325/325
f 321/321/321 324/324/324 326/326/326
f 327/327/327 325/325/325 323/323/323
f 328/328/328 326/326/326 324/324/324
f 325/325/325 327/327/327 329/329/329
f 326/326/326 328/328/328 330/330/330
f 331/331/331 329/329/329 327/327/327
f 332/332/332 330/330/330 328/328/328
f 329/329/329 331/331/331 333/333/333
f 330/330/330 332/332/332 334/334/334
f 335/335/335 333/333/333 331/331/331
f 336/336/336 334/334/334 332/332/332
f 333/333/333 335/335/335 336/336/336
f 334/334/334 336/336/336 335/335/335
f 339/339/339 338/338/338 337/337/337
f 340/340/340 337/337/337 338/338/338
f 337/337/337 341/341/341 339/339/339
f 338/338/338 342/342/342 340/340/340
f 343/343/343 339/339/339 341/341/341
f 344/344/344 340/340/340 342/342/342
f 341/341/341 345/345/345 343/343/343
f 342/342/342 346/346/346 344/344/344
f 347/347/347 343/343/343 345/345/345
f 348/348/348 344/344/344 346/346/346
f 345/345/345 349/349/349 347/347/347
f 346/346/346 350/350/350 348/348/348
f 351/351/351 347/347/347 349/349/349
f 352/352/352 348/348/348 350/350/350
f 349/349/349 352/352/352 351/351/351
f 350/350/350 351/351/351 352/352/352
f 355/355/355 354/354/354 353/353/353
f 356/356/356 353/353/353 354/354/354
f 353/353/353 357/357/357 355/355/355
f 354/354/354 358/358/358 356/356/356
f 359/359/359 355/355/355 357/357/357
f 360/360/360 356/356/356 358/358/358
f 357/357/357 361/361/361 359/359/359
f 358/358/358 362/362/362 360/360/360
f 363/363/363 359/359/359 361/361/361
f 364/364/364 360/360/360 362/362/362
f 361/361/361 365/365/365 363/363/363
f 362/362/362 366/366/366 364/364/364
f 367/367/367 363/363/363 365/365/365
f 368/368/368 364/364/364 366/366/366
f 365/365/365 368/368/368 367/367/367
f 366/366/366 367/367/367 368/368/368
g Atl_gun_cal125A_x4_barrel_001_2
f 371/371/371 370/370/370 369/369/369
f 369/369/369 370/370/370 372/372/372
f 375/375/375 374/374/374 373/373/373
f 376/376/376 374/374/374 375/375/375
f 379/379/379 378/378/378 377/377/377
f 380/380/380 378/378/378 379/379/379
f 383/383/383 382/382/382 381/381/381
f 384/384/384 382/382/382 383/383/383
f 387/387/387 386/386/386 385/385/385
f 388/388/388 385/385/385 386/386/386
f 388/388/388 386/386/386 389/389/389
f 390/390/390 389/389/389 386/386/386
f 393/393/393 392/392/392 391/391/391
f 394/394/394 391/391/391 392/392/392
f 391/391/391 394/394/394 395/395/395
f 396/396/396 395/395/395 394/394/394
f 396/396/396 397/397/397 395/395/395
f 398/398/398 395/395/395 397/397/397
f 397/397/397 399/399/399 398/398/398
f 400/400/400 398/398/398 399/399/399
f 403/403/403 402/402/402 401/401/401
f 404/404/404 401/401/401 402/402/402
f 404/404/404 405/405/405 401/401/401
f 406/406/406 401/401/401 405/405/405
f 409/409/409 408/408/408 407/407/407
f 410/410/410 407/407/407 408/408/408
f 410/410/410 411/411/411 407/407/407
f 412/412/412 407/407/407 411/411/411
f 411/411/411 413/413/413 412/412/412
f 414/414/414 412/412/412 413/413/413
f 414/414/414 413/413/413 415/415/415
f 416/416/416 415/415/415 413/413/413
f 419/419/419 418/418/418 417/417/417
f 417/417/417 418/418/418 420/420/420
f 423/423/423 422/422/422 421/421/421
f 424/424/424 422/422/422 423/423/423
f 427/427/427 426/426/426 425/425/425
f 428/428/428 426/426/426 427/427/427
f 431/431/431 430/430/430 429/429/429
f 432/432/432 430/430/430 431/431/431
f 435/435/435 434/434/434 433/433/433
f 435/435/435 433/433/433 436/436/436
f 439/439/439 438/438/438 437/437/437
f 439/439/439 440/440/440 438/438/438
f 443/443/443 442/442/442 441/441/441
f 443/443/443 444/444/444 442/442/442
f 447/447/447 446/446/446 445/445/445
f 447/447/447 448/448/448 446/446/446
f 451/451/451 450/450/450 449/449/449
f 451/451/451 449/449/449 452/452/452
f 455/455/455 454/454/454 453/453/453
f 455/455/455 456/456/456 454/454/454
f 459/459/459 458/458/458 457/457/457
f 459/459/459 460/460/460 458/458/458
f 463/463/463 462/462/462 461/461/461
f 463/463/463 464/464/464 462/462/462
