# Blender 4.5.3 LTS
# www.blender.org
g Atl_gun_cal125A_x3_base_Atl_gun_cal125A_x3_002.001
v 1.549341 0.377576 0.894512
v 0.894512 0.000000 1.549341
v 0.894512 0.377576 1.549341
v 1.549341 0.000000 0.894512
v 1.789025 0.377576 -0.000000
v 1.789025 0.000000 0.000000
v 1.549340 0.377576 -0.894513
v 1.549340 -0.000000 -0.894513
v 0.894511 0.377576 -1.549341
v 0.894511 -0.000000 -1.549341
v 0.000000 0.000000 1.789025
v 0.894512 0.377576 1.549341
v 0.894512 0.000000 1.549341
v 0.000000 0.377576 1.789025
v -0.894512 0.000000 1.549341
v -0.894512 0.377576 1.549341
v -1.549341 0.000000 0.894512
v -0.894512 0.377576 1.549341
v -0.894512 0.000000 1.549341
v -1.549341 0.377576 0.894513
v -1.789025 0.000000 0.000000
v -1.789025 0.377576 -0.000000
v -1.549341 -0.000000 -0.894512
v -1.549341 0.377576 -0.894512
v -0.894513 -0.000000 -1.549340
v -0.894513 0.377576 -1.549340
v -0.000001 -0.000000 -1.789025
v -0.894513 0.377576 -1.549340
v -0.894513 -0.000000 -1.549340
v -0.000001 0.377576 -1.789025
v 0.894511 -0.000000 -1.549341
v 0.894511 0.377576 -1.549341
v 2.260833 0.644007 -1.231914
v 2.260882 3.667365 -2.095310
v 2.260883 0.644007 -2.095310
v 2.260844 3.667370 -1.231916
v 2.260724 3.156070 1.004060
v 2.260702 1.531570 1.999859
v 2.260702 0.644008 1.999859
v 0.668631 3.500505 0.998465
v 0.771137 3.217372 1.422203
v 0.668632 3.217372 1.422203
v 0.771150 3.500505 0.998465
v 0.668631 3.599929 0.498628
v 0.771192 3.599929 0.498628
v 0.771204 3.430438 -0.195786
v 0.668631 3.430438 -0.195786
v 2.260702 0.644008 1.999859
v 0.000000 1.531569 1.999861
v 2.260702 1.531570 1.999859
v 0.000000 0.644007 1.999860
v -2.260702 0.644008 1.999859
v -2.260702 1.531570 1.999859
v 1.943895 0.644006 -2.477688
v 2.260882 3.667365 -2.095310
v 1.943894 3.667366 -2.477687
v 2.260883 0.644007 -2.095310
v 2.260724 3.156070 1.004060
v 1.500051 1.945819 1.745942
v 1.500051 3.156070 1.004061
v 2.260702 1.531570 1.999859
v 1.397518 1.945820 1.745932
v 0.000000 1.531569 1.999861
v 0.771135 1.945819 1.745932
v 0.668632 1.945819 1.745932
v 0.415700 1.945819 1.745933
v 0.668631 3.156070 1.004061
v 0.415702 3.156070 1.004062
v 0.313198 1.945819 1.745933
v -0.313186 1.945819 1.745932
v -0.415719 1.945819 1.745943
v -0.668632 1.945819 1.745932
v -0.415718 3.156070 1.004061
v -0.668631 3.156070 1.004061
v -0.771135 1.945819 1.745932
v -1.397518 1.945820 1.745932
v -2.260702 1.531570 1.999859
v -1.500051 1.945819 1.745942
v -2.260724 3.156070 1.004060
v -1.500050 3.156070 1.004060
v 1.943894 3.667366 -2.477687
v 1.479876 0.644005 -2.855174
v 1.943895 0.644006 -2.477688
v 1.479875 3.667367 -2.855173
v 0.934799 3.667366 -3.098365
v 0.934800 0.644005 -3.098365
v 0.311763 0.644004 -3.242681
v 0.311762 3.667366 -3.242680
v -0.311762 3.667365 -3.242680
v -0.311763 0.644004 -3.242680
v -0.934799 3.667366 -3.098364
v -0.934800 0.644005 -3.098365
v -1.479876 0.644005 -2.855174
v -1.479875 3.667367 -2.855173
v -1.943893 3.667366 -2.477686
v -1.943894 0.644006 -2.477687
v 1.397504 3.217312 1.422282
v 1.500033 3.500444 0.998543
v 1.500034 3.217310 1.422291
v 1.397515 3.500444 0.998543
v 1.397555 3.599868 0.498706
v 1.500031 3.599866 0.498716
v 1.500048 3.430437 -0.195777
v 1.397583 3.430439 -0.195787
v 0.668631 3.430438 -0.195786
v 0.668631 3.599929 0.498628
v 0.668631 3.156070 1.004061
v 0.668631 3.500505 0.998465
v 0.668632 3.217372 1.422203
v 0.668632 2.793627 1.705342
v 0.668632 2.293785 1.804774
v 0.668632 1.945819 1.745932
v 0.668632 1.945819 1.745932
v 0.771135 2.293785 1.804774
v 0.771135 1.945819 1.745932
v 0.668632 2.293785 1.804774
v 0.771136 2.793627 1.705342
v 0.668632 2.793627 1.705342
v 0.771137 3.217372 1.422203
v 0.668632 3.217372 1.422203
v 1.397518 1.945820 1.745932
v 1.500041 2.293748 1.804833
v 1.500051 1.945819 1.745942
v 1.397508 2.293748 1.804822
v 1.500037 2.793577 1.705416
v 1.397506 2.793578 1.705406
v 1.500034 3.217310 1.422291
v 1.397504 3.217312 1.422282
v 1.500051 1.945819 1.745942
v 1.500041 2.293748 1.804833
v 1.500051 3.156070 1.004061
v 1.500037 2.793577 1.705416
v 1.500034 3.217310 1.422291
v 1.500033 3.500444 0.998543
v 1.500031 3.599866 0.498716
v 1.500048 3.430437 -0.195777
v -2.260881 3.667365 -2.095310
v -2.260833 0.644007 -1.231914
v -2.260882 0.644007 -2.095310
v -2.260843 3.667369 -1.231916
v -2.260724 3.156070 1.004060
v -2.260702 1.531570 1.999859
v -2.260702 0.644008 1.999859
v -0.771137 3.217372 1.422203
v -0.668631 3.500505 0.998465
v -0.668632 3.217372 1.422203
v -0.771150 3.500505 0.998465
v -0.668631 3.599929 0.498628
v -0.771192 3.599929 0.498628
v -0.771204 3.430438 -0.195786
v -0.668631 3.430438 -0.195786
v -1.943894 0.644006 -2.477687
v -2.260881 3.667365 -2.095310
v -2.260882 0.644007 -2.095310
v -1.943893 3.667366 -2.477686
v -1.500033 3.500444 0.998543
v -1.397504 3.217311 1.422282
v -1.500033 3.217310 1.422291
v -1.397515 3.500444 0.998543
v -1.397555 3.599868 0.498706
v -1.500031 3.599866 0.498716
v -1.500048 3.430437 -0.195777
v -1.397583 3.430439 -0.195787
v -0.668631 3.430438 -0.195786
v -0.668631 3.156070 1.004061
v -0.668631 3.599929 0.498628
v -0.668631 3.500505 0.998465
v -0.668632 3.217372 1.422203
v -0.668632 2.793626 1.705342
v -0.668632 2.293785 1.804774
v -0.668632 1.945819 1.745932
v -0.771134 2.293785 1.804774
v -0.668632 1.945819 1.745932
v -0.771135 1.945819 1.745932
v -0.668632 2.293785 1.804774
v -0.771136 2.793626 1.705342
v -0.668632 2.793626 1.705342
v -0.771137 3.217372 1.422203
v -0.668632 3.217372 1.422203
v -1.500041 2.293748 1.804833
v -1.397518 1.945820 1.745932
v -1.500051 1.945819 1.745942
v -1.397508 2.293748 1.804822
v -1.500037 2.793577 1.705416
v -1.397506 2.793578 1.705406
v -1.500033 3.217310 1.422291
v -1.397504 3.217311 1.422282
v -1.500051 1.945819 1.745942
v -1.500050 3.156070 1.004060
v -1.500041 2.293748 1.804833
v -1.500037 2.793577 1.705416
v -1.500033 3.217310 1.422291
v -1.500033 3.500444 0.998543
v -1.500031 3.599866 0.498716
v -1.500048 3.430437 -0.195777
v -0.874905 0.719801 -3.076237
v -0.914139 3.648695 -3.247772
v -0.914141 0.719801 -3.247772
v -0.874903 3.648691 -3.076237
v -0.970867 0.719801 -3.234797
v -0.931629 3.648691 -3.063262
v -0.931631 0.719801 -3.063262
v -0.970865 3.648695 -3.234797
v -0.970865 3.648695 -3.234797
v -0.874903 3.648691 -3.076237
v -0.931629 3.648691 -3.063262
v -0.914139 3.648695 -3.247772
v -0.296175 0.719799 -3.208614
v -0.335409 3.648695 -3.380148
v -0.335411 0.719799 -3.380148
v -0.296173 3.648691 -3.208614
v -0.392187 0.719799 -3.367162
v -0.352949 3.648691 -3.195627
v -0.352955 0.719799 -3.195642
v -0.392185 3.648695 -3.367162
v -0.392185 3.648695 -3.367162
v -0.296173 3.648691 -3.208614
v -0.352949 3.648691 -3.195627
v -0.335409 3.648695 -3.380148
v -0.335411 0.719799 -3.380148
v -0.392185 3.648695 -3.367162
v -0.392187 0.719799 -3.367162
v -0.335409 3.648695 -3.380148
v -0.914141 0.719801 -3.247772
v -0.970865 3.648695 -3.234797
v -0.970867 0.719801 -3.234797
v -0.914139 3.648695 -3.247772
v -0.392187 0.719799 -3.367162
v -0.296175 0.719799 -3.208614
v -0.335411 0.719799 -3.380148
v -0.352955 0.719799 -3.195642
v -0.970867 0.719801 -3.234797
v -0.874905 0.719801 -3.076237
v -0.914141 0.719801 -3.247772
v -0.931631 0.719801 -3.063262
v 1.789025 0.377576 -0.000000
v 1.549341 0.377576 0.894512
v 1.549340 0.377576 -0.894513
v 0.894511 0.377576 -1.549341
v 0.894512 0.377576 1.549341
v -0.000001 0.377576 -1.789025
v 0.000000 0.377576 1.789025
v -0.894513 0.377576 -1.549340
v -0.894512 0.377576 1.549341
v -1.549341 0.377576 -0.894512
v -1.549341 0.377576 0.894513
v -1.789025 0.377576 -0.000000
v 1.943894 2.718448 0.715351
v 2.503898 2.895338 0.817479
v 1.943894 2.895338 0.817479
v 2.503898 2.718448 0.715351
v 1.943894 2.541559 0.817479
v 2.503898 2.541559 0.817479
v 1.943894 2.895338 0.817479
v 2.503899 2.895338 1.021733
v 1.943894 2.895338 1.021733
v 2.503898 2.895338 0.817479
v 1.943894 2.541559 1.021733
v 2.503898 2.541559 0.817479
v 1.943894 2.541559 0.817479
v 2.503899 2.541559 1.123860
v 1.943894 2.541559 1.123860
v 1.943894 3.094095 -0.077490
v 2.503898 3.270984 0.024637
v 1.943894 3.270985 0.024637
v 2.503898 3.094095 -0.077490
v 1.943894 2.917205 0.024637
v 2.503898 2.917205 0.024637
v 1.943894 3.270985 0.024637
v 2.503899 3.270984 0.228892
v 1.943894 3.270985 0.228892
v 2.503898 3.270984 0.024637
v 1.943894 2.917205 0.228892
v 2.503898 2.917205 0.024637
v 1.943894 2.917205 0.024637
v 2.503899 2.917205 0.331019
v 1.943894 2.917205 0.331019
v 2.503899 2.895338 1.021733
v 2.503898 2.541559 0.817479
v 2.503899 2.541559 1.123860
v 2.503898 2.718448 0.715351
v 2.503898 2.895338 0.817479
v 2.503899 3.270984 0.228892
v 2.503898 2.917205 0.024637
v 2.503899 2.917205 0.331019
v 2.503898 3.094095 -0.077490
v 2.503898 3.270984 0.024637
v -2.503898 2.895338 0.817479
v -1.943894 2.718448 0.715351
v -1.943894 2.895338 0.817479
v -2.503898 2.718448 0.715351
v -1.943894 2.541559 0.817479
v -2.503898 2.541559 0.817479
v -1.943894 2.895338 0.817479
v -2.503899 2.895338 1.021733
v -2.503898 2.895338 0.817479
v -1.943894 2.895338 1.021733
v -2.503898 2.541559 0.817479
v -1.943894 2.541559 1.021733
v -1.943894 2.541559 0.817479
v -2.503899 2.541559 1.123860
v -1.943894 2.541559 1.123860
v -2.503898 3.270984 0.024637
v -1.943894 3.094095 -0.077490
v -1.943894 3.270985 0.024637
v -2.503898 3.094095 -0.077490
v -1.943894 2.917205 0.024637
v -2.503898 2.917205 0.024637
v -1.943894 3.270985 0.024637
v -2.503899 3.270984 0.228892
v -2.503898 3.270984 0.024637
v -1.943894 3.270985 0.228892
v -2.503898 2.917205 0.024637
v -1.943894 2.917205 0.228892
v -1.943894 2.917205 0.024637
v -2.503899 2.917205 0.331019
v -1.943894 2.917205 0.331019
v -2.503898 2.541559 0.817479
v -2.503899 2.895338 1.021733
v -2.503899 2.541559 1.123860
v -2.503898 2.718448 0.715351
v -2.503898 2.895338 0.817479
v -2.503898 2.917205 0.024637
v -2.503899 3.270984 0.228892
v -2.503899 2.917205 0.331019
v -2.503898 3.094095 -0.077490
v -2.503898 3.270984 0.024637
v -0.433960 4.075637 -2.899447
v 0.433960 4.075638 -2.612649
v -0.433960 4.075638 -2.612649
v 0.433960 4.075638 -2.899447
v -0.433960 3.861573 -3.113511
v 0.433960 3.667367 -3.113511
v 0.433960 3.861573 -3.113511
v -0.433960 3.667367 -3.113511
v -0.433960 4.075638 -2.612649
v -0.433960 3.861573 -3.113511
v -0.433960 4.075637 -2.899447
v -0.433960 3.667367 -3.113511
v -0.433960 3.667367 -2.612649
v 0.433960 4.075638 -2.899447
v 0.433960 3.667368 -2.612649
v 0.433960 4.075638 -2.612649
v 0.433960 3.667367 -3.113511
v 0.433960 3.861573 -3.113511
v 0.433960 4.075638 -2.612649
v -0.433960 3.667367 -2.612649
v -0.433960 4.075638 -2.612649
v 0.433960 3.667368 -2.612649
v 0.433960 4.075638 -2.899447
v -0.433960 3.861573 -3.113511
v 0.433960 3.861573 -3.113511
v -0.433960 4.075637 -2.899447
v 1.607286 1.227559 -2.937453
v 2.268912 2.760836 -2.321594
v 1.607285 2.760837 -2.937452
v 2.268913 1.227560 -2.321594
v -2.268913 1.227560 -2.321594
v -1.607285 2.760836 -2.937452
v -2.268912 2.760836 -2.321594
v -1.607286 1.227559 -2.937453
v 2.141503 1.227559 -2.184716
v 1.607286 1.227559 -2.937453
v 1.479876 1.227559 -2.800575
v 2.268913 1.227560 -2.321594
v 1.479876 1.227559 -2.800575
v 1.607285 2.760837 -2.937452
v 1.479875 2.760836 -2.800573
v 1.607286 1.227559 -2.937453
v 1.479875 2.760836 -2.800573
v 2.268912 2.760836 -2.321594
v 2.141503 2.760836 -2.184715
v 1.607285 2.760837 -2.937452
v 2.141503 2.760836 -2.184715
v 2.268913 1.227560 -2.321594
v 2.141503 1.227559 -2.184716
v 2.268912 2.760836 -2.321594
v -2.141503 1.227559 -2.184715
v -2.268912 2.760836 -2.321594
v -2.141502 2.760836 -2.184715
v -2.268913 1.227560 -2.321594
v -2.141502 2.760836 -2.184715
v -1.607285 2.760836 -2.937452
v -1.479875 2.760836 -2.800573
v -2.268912 2.760836 -2.321594
v -1.479875 2.760836 -2.800573
v -1.607286 1.227559 -2.937453
v -1.479876 1.227559 -2.800574
v -1.607285 2.760836 -2.937452
v -1.479876 1.227559 -2.800574
v -2.268913 1.227560 -2.321594
v -2.141503 1.227559 -2.184715
v -1.607286 1.227559 -2.937453
v 0.313195 3.217372 1.422203
v 0.415702 3.500505 0.998465
v 0.415701 3.217372 1.422203
v 0.313183 3.500505 0.998465
v 0.415702 3.599929 0.498628
v 0.313141 3.599929 0.498628
v 0.313128 3.430438 -0.195786
v 0.415701 3.430438 -0.195786
v -0.415701 3.500444 0.998544
v -0.313171 3.217311 1.422282
v -0.415701 3.217310 1.422291
v -0.313183 3.500444 0.998544
v -0.313222 3.599868 0.498707
v -0.415699 3.599866 0.498716
v -0.415715 3.430437 -0.195777
v -0.313251 3.430439 -0.195787
v 0.415701 3.430438 -0.195786
v 0.415702 3.156070 1.004062
v 0.415702 3.599929 0.498628
v 0.415702 3.500505 0.998465
v 0.415701 3.217372 1.422203
v 0.415701 2.793626 1.705343
v 0.415700 2.293785 1.804774
v 0.415700 1.945819 1.745933
v 0.313198 2.293785 1.804774
v 0.415700 1.945819 1.745933
v 0.313198 1.945819 1.745933
v 0.415700 2.293785 1.804774
v 0.313197 2.793626 1.705343
v 0.415701 2.793626 1.705343
v 0.313195 3.217372 1.422203
v 0.415701 3.217372 1.422203
v -0.415709 2.293747 1.804833
v -0.313186 1.945819 1.745932
v -0.415719 1.945819 1.745943
v -0.313175 2.293748 1.804822
v -0.415705 2.793576 1.705416
v -0.313173 2.793578 1.705406
v -0.415701 3.217310 1.422291
v -0.313171 3.217311 1.422282
v -0.415719 1.945819 1.745943
v -0.415718 3.156070 1.004061
v -0.415709 2.293747 1.804833
v -0.415705 2.793576 1.705416
v -0.415701 3.217310 1.422291
v -0.415701 3.500444 0.998544
v -0.415699 3.599866 0.498716
v -0.415715 3.430437 -0.195777
vn 0.5000 -0.0000 0.8660
vn 0.8660 -0.0000 0.5000
vn 1.0000 -0.0000 -0.0000
vn 0.8660 -0.0000 -0.5000
vn 0.5000 -0.0000 -0.8660
vn 0.4999 -0.0000 0.8661
vn -0.0000 -0.0000 1.0000
vn -0.4999 -0.0000 0.8661
vn -0.5000 -0.0000 0.8660
vn -0.8660 -0.0000 0.5000
vn -1.0000 -0.0000 -0.0000
vn -0.8660 -0.0000 -0.5000
vn -0.5000 -0.0000 -0.8660
vn -0.4999 -0.0000 -0.8661
vn -0.0000 -0.0000 -1.0000
vn 0.4999 -0.0000 -0.8661
vn 1.0000 -0.0000 0.0001
vn -0.0000 0.7071 0.7071
vn -0.0000 0.9239 0.3827
vn -0.0000 0.9998 -0.0215
vn -0.0000 0.9715 -0.2371
vn 0.7038 -0.0000 -0.7104
vn 0.7699 -0.0000 -0.6382
vn -0.0000 0.5226 0.8526
vn -0.0000 0.5225 0.8526
vn 0.0001 0.5226 0.8525
vn 0.5238 -0.0000 -0.8518
vn 0.3180 -0.0000 -0.9481
vn 0.1136 -0.0000 -0.9935
vn -0.1136 -0.0000 -0.9935
vn -0.3180 -0.0000 -0.9481
vn -0.5238 -0.0000 -0.8518
vn -0.7038 -0.0000 -0.7104
vn -0.0001 0.7071 0.7071
vn -0.0000 0.9715 -0.2370
vn -0.0000 -0.1667 0.9860
vn -0.0000 0.0144 0.9999
vn -0.0000 0.3827 0.9239
vn -0.0001 -0.1669 0.9860
vn -0.0001 0.0143 0.9999
vn -0.0001 0.3827 0.9239
vn 1.0000 0.0001 -0.0000
vn -1.0000 -0.0000 0.0001
vn -0.7699 -0.0000 -0.6382
vn 0.0001 0.7071 0.7071
vn 0.0001 -0.1669 0.9860
vn 0.0001 0.0143 0.9999
vn 0.0001 0.3827 0.9239
vn -1.0000 0.0001 -0.0000
vn 0.9748 -0.0000 -0.2230
vn -0.9748 -0.0000 0.2230
vn -0.0000 1.0000 -0.0000
vn -0.2230 -0.0000 -0.9748
vn -0.0000 -1.0000 -0.0000
vn -0.0000 0.8660 -0.5000
vn -0.0000 -0.8660 -0.5000
vn -0.0000 0.7071 -0.7071
vn 0.6813 -0.0000 -0.7320
vn -0.6813 -0.0000 -0.7320
vn -0.7320 -0.0000 -0.6813
vn 0.7320 -0.0000 0.6813
vn -0.7320 -0.0000 0.6813
vn 0.7320 -0.0000 -0.6813
vt 3.837096 0.505738
vt 3.837096 0.500000
vt 3.846952 0.505738
vt 3.846952 0.500000
vt 3.860417 0.505738
vt 3.860417 0.500000
vt 3.873881 0.505738
vt 3.873881 0.500000
vt 3.883738 0.505738
vt 3.883738 0.500000
vt 0.210252 0.500000
vt 0.210252 0.505738
vt 0.196686 0.500000
vt 0.196686 0.505738
vt 0.183120 0.500000
vt 0.183120 0.505738
vt -2.837096 0.500000
vt -2.837096 0.505738
vt -2.846952 0.500000
vt -2.846952 0.505738
vt -2.860417 0.500000
vt -2.860417 0.505738
vt -2.873881 0.500000
vt -2.873881 0.505738
vt -2.883738 0.500000
vt -2.883738 0.505738
vt 0.816880 0.500000
vt 0.816880 0.505738
vt 0.803314 0.500000
vt 0.803314 0.505738
vt 0.789748 0.500000
vt 0.789748 0.505738
vt 3.885600 0.509786
vt 3.885600 0.555729
vt 3.878960 0.509786
vt 3.878960 0.555729
vt 3.845304 0.547959
vt 3.830315 0.523273
vt 3.830315 0.509786
vt 0.206826 3.839010
vt 0.208381 3.839010
vt 0.206826 3.845388
vt 0.208381 3.845388
vt 0.206826 3.852911
vt 0.208382 3.852911
vt 0.208382 3.863364
vt 0.206826 3.863364
vt 0.230971 0.523273
vt 0.196686 0.523273
vt 0.230971 0.509786
vt 0.196686 0.509786
vt 0.162400 0.509786
vt 0.162400 0.523273
vt 3.891356 0.555729
vt 3.891356 0.509786
vt 0.219435 0.547959
vt 0.219435 0.529568
vt 0.230971 0.547959
vt 0.217880 0.529568
vt 0.208381 0.529568
vt 0.206826 0.529568
vt 0.202990 0.529568
vt 0.206826 0.547959
vt 0.202990 0.547959
vt 0.201436 0.529568
vt 0.191936 0.529568
vt 0.190381 0.529568
vt 0.186545 0.529568
vt 0.190381 0.547959
vt 0.186545 0.547959
vt 0.184991 0.529568
vt 0.175491 0.529568
vt 0.173936 0.529568
vt 0.162400 0.547959
vt 0.173936 0.547959
vt 0.773833 0.509786
vt 0.780871 0.509786
vt 0.773834 0.555729
vt 0.780871 0.555729
vt 0.789137 0.555729
vt 0.789137 0.509786
vt 0.798586 0.509786
vt 0.798586 0.555729
vt 0.808042 0.555729
vt 0.808042 0.509786
vt 0.817491 0.555729
vt 0.817491 0.509786
vt 0.825758 0.509786
vt 0.825758 0.555729
vt 0.832795 0.555729
vt 0.832795 0.509786
vt 0.219435 3.839008
vt 0.219435 3.845387
vt 0.217880 3.839008
vt 0.217880 3.845387
vt 0.217881 3.852910
vt 0.219435 3.852910
vt 0.219435 3.863364
vt 0.217881 3.863364
vt -2.845303 0.547959
vt -2.852911 0.554704
vt -2.863364 0.552128
vt -2.845388 0.553193
vt -2.839010 0.548891
vt -2.834748 0.542451
vt -2.833251 0.534856
vt -2.834137 0.529568
vt 0.208381 0.534856
vt 0.206826 0.534856
vt 0.208381 0.542451
vt 0.206826 0.542451
vt 0.208381 0.548891
vt 0.206826 0.548891
vt 0.219435 0.534855
vt 0.217880 0.534855
vt 0.219435 0.542451
vt 0.217880 0.542451
vt 0.219435 0.548890
vt 0.217880 0.548890
vt 3.833250 0.534855
vt 3.834136 0.529568
vt 3.834747 0.542451
vt 3.839008 0.548890
vt 3.845387 0.553192
vt 3.852910 0.554703
vt 3.863364 0.552128
vt -2.885600 0.509786
vt -2.878960 0.509786
vt -2.885600 0.555729
vt -2.878960 0.555729
vt -2.845304 0.547959
vt -2.830315 0.523273
vt -2.830315 0.509786
vt 0.186545 3.839010
vt 0.186545 3.845388
vt 0.184991 3.839010
vt 0.184991 3.845388
vt 0.186545 3.852911
vt 0.184990 3.852911
vt 0.184990 3.863364
vt 0.186545 3.863364
vt -2.891356 0.509786
vt -2.891356 0.555729
vt 0.173937 3.839008
vt 0.175491 3.839008
vt 0.173937 3.845387
vt 0.175491 3.845387
vt 0.175491 3.852910
vt 0.173937 3.852910
vt 0.173936 3.863364
vt 0.175490 3.863364
vt 3.852911 0.554704
vt 3.845303 0.547959
vt 3.845388 0.553193
vt 3.839010 0.548891
vt 3.834748 0.542451
vt 3.833251 0.534856
vt 3.834137 0.529568
vt 0.184991 0.534856
vt 0.186545 0.534856
vt 0.184991 0.542451
vt 0.186545 0.542451
vt 0.184991 0.548891
vt 0.186545 0.548891
vt 0.173936 0.534855
vt 0.175491 0.534855
vt 0.173936 0.542451
vt 0.175491 0.542451
vt 0.173937 0.548890
vt 0.175491 0.548890
vt -2.833250 0.534855
vt -2.834136 0.529568
vt -2.834747 0.542451
vt -2.839008 0.548890
vt -2.845387 0.553192
vt -2.852910 0.554703
vt 3.902947 0.510938
vt 3.902947 0.555445
vt 3.900365 0.510938
vt 3.900365 0.555445
vt -2.900170 0.510938
vt -2.900170 0.555445
vt -2.902752 0.510938
vt -2.902752 0.555445
vt 0.182557 3.900170
vt 0.183417 3.900365
vt 0.181962 3.902752
vt 0.182822 3.902947
vt 3.904940 0.510938
vt 3.904940 0.555445
vt 3.902358 0.510938
vt 3.902358 0.555445
vt -2.902163 0.510938
vt -2.902162 0.555445
vt -2.904744 0.510938
vt -2.904744 0.555445
vt 0.191333 3.902162
vt 0.192194 3.902358
vt 0.190738 3.904744
vt 0.191599 3.904940
vt 0.809262 0.510938
vt 0.809262 0.555445
vt 0.808401 0.510938
vt 0.808401 0.555445
vt 0.818038 0.510938
vt 0.818038 0.555445
vt 0.817178 0.510938
vt 0.817178 0.555445
vt 0.808401 3.904940
vt 0.807806 3.902358
vt 0.809262 3.904744
vt 0.808667 3.902163
vt 0.817178 3.902947
vt 0.816583 3.900365
vt 0.818038 3.902752
vt 0.817443 3.900170
vt 0.220183 3.873881
vt 0.220183 3.846952
vt 0.223818 3.860417
vt 0.210252 3.883738
vt 0.210252 3.837096
vt 0.196686 3.887345
vt 0.196686 3.833488
vt 0.183120 3.883738
vt 0.183120 3.837096
vt 0.173189 3.873881
vt 0.173189 3.846952
vt 0.169554 3.860417
vt 0.773834 0.543997
vt 0.765341 0.543997
vt 0.773834 0.541309
vt 0.765341 0.541309
vt 0.773834 0.538621
vt 0.765341 0.538621
vt 0.226166 3.845037
vt 0.234659 3.845037
vt 0.226166 3.848112
vt 0.234659 3.848112
vt 0.773834 3.848112
vt 0.765341 3.848112
vt 0.773834 3.845037
vt 0.765341 3.843500
vt 0.773834 3.843500
vt 0.773834 0.549705
vt 0.765341 0.549705
vt 0.773834 0.547017
vt 0.765341 0.547017
vt 0.773834 0.544329
vt 0.765341 0.544329
vt 0.226166 3.856971
vt 0.234659 3.856971
vt 0.226166 3.860046
vt 0.234659 3.860046
vt 0.773834 3.860046
vt 0.765341 3.860046
vt 0.773834 3.856971
vt 0.765341 3.855434
vt 0.773834 3.855434
vt 3.843500 0.538621
vt 3.848112 0.538621
vt 3.845037 0.543997
vt 3.849649 0.541309
vt 3.848112 0.543997
vt 3.855434 0.544329
vt 3.860046 0.544329
vt 3.856971 0.549705
vt 3.861583 0.547017
vt 3.860046 0.549705
vt 0.832795 0.543997
vt 0.832795 0.541309
vt 0.841288 0.543997
vt 0.841288 0.541309
vt 0.832795 0.538621
vt 0.841288 0.538621
vt 0.158712 3.848112
vt 0.158712 3.845037
vt 0.167205 3.848112
vt 0.167205 3.845037
vt 0.832795 3.848112
vt 0.832795 3.845037
vt 0.841288 3.848112
vt 0.841288 3.843500
vt 0.832795 3.843500
vt 0.832795 0.549705
vt 0.832795 0.547017
vt 0.841288 0.549705
vt 0.841288 0.547017
vt 0.832795 0.544329
vt 0.841288 0.544329
vt 0.158712 3.860046
vt 0.158712 3.856971
vt 0.167205 3.860046
vt 0.167205 3.856971
vt 0.832795 3.860046
vt 0.832795 3.856971
vt 0.841288 3.860046
vt 0.841288 3.855434
vt 0.832795 3.855434
vt -2.843500 0.538621
vt -2.845037 0.543997
vt -2.848112 0.538621
vt -2.849649 0.541309
vt -2.848112 0.543997
vt -2.855434 0.544329
vt -2.856971 0.549705
vt -2.860046 0.544329
vt -2.861583 0.547017
vt -2.860046 0.549705
vt 0.190104 3.893387
vt 0.203267 3.893387
vt 0.190104 3.897704
vt 0.203267 3.897704
vt 0.796733 0.558680
vt 0.796733 0.555729
vt 0.809896 0.558680
vt 0.809896 0.555729
vt -2.897704 0.561933
vt -2.900926 0.558680
vt -2.893387 0.561933
vt -2.900926 0.555729
vt -2.893387 0.555729
vt 3.893387 0.561933
vt 3.893387 0.555729
vt 3.897704 0.561933
vt 3.900926 0.555729
vt 3.900926 0.558680
vt 0.190104 0.561933
vt 0.190104 0.555729
vt 0.203267 0.561933
vt 0.203267 0.555729
vt 0.203267 3.900926
vt 0.190104 3.900926
vt 0.778938 0.541953
vt 0.768904 0.541953
vt 0.778938 0.518654
vt 0.768904 0.518654
vt 0.837724 0.541953
vt 0.827690 0.541953
vt 0.837724 0.518654
vt 0.827690 0.518654
vt 0.780871 3.896216
vt 0.778938 3.898276
vt 0.770837 3.886946
vt 0.768904 3.889006
vt -2.896216 0.541953
vt -2.898276 0.541953
vt -2.896216 0.518654
vt -2.898276 0.518654
vt 0.229163 3.886946
vt 0.231096 3.889006
vt 0.219129 3.896216
vt 0.221062 3.898276
vt 3.886946 0.518654
vt 3.889006 0.518654
vt 3.886946 0.541953
vt 3.889006 0.541953
vt -2.886946 0.541953
vt -2.889006 0.541953
vt -2.886946 0.518654
vt -2.889006 0.518654
vt 0.174242 3.896216
vt 0.172310 3.898276
vt 0.164208 3.886946
vt 0.162276 3.889006
vt 3.896216 0.518654
vt 3.898276 0.518654
vt 3.896216 0.541953
vt 3.898276 0.541953
vt 0.835792 3.886946
vt 0.837724 3.889006
vt 0.825758 3.896216
vt 0.827690 3.898276
vt 0.202990 3.839010
vt 0.202990 3.845388
vt 0.201436 3.839010
vt 0.201435 3.845388
vt 0.202990 3.852911
vt 0.201435 3.852911
vt 0.201435 3.863364
vt 0.202990 3.863364
vt 0.190381 3.839008
vt 0.191936 3.839008
vt 0.190381 3.845387
vt 0.191936 3.845387
vt 0.191935 3.852910
vt 0.190381 3.852910
vt 0.190381 3.863364
vt 0.191935 3.863364
vt 0.201436 0.534856
vt 0.202990 0.534856
vt 0.201436 0.542451
vt 0.202990 0.542451
vt 0.201436 0.548891
vt 0.202990 0.548891
vt 0.190381 0.534855
vt 0.191936 0.534855
vt 0.190381 0.542451
vt 0.191936 0.542451
vt 0.190381 0.548890
vt 0.191936 0.548890
s 1
f 3/1/1 2/2/1 1/3/2
f 4/4/2 1/3/2 2/2/1
f 1/3/2 4/4/2 5/5/3
f 6/6/3 5/5/3 4/4/2
f 5/5/3 6/6/3 7/7/4
f 8/8/4 7/7/4 6/6/3
f 7/7/4 8/8/4 9/9/5
f 10/10/5 9/9/5 8/8/4
f 13/11/6 12/12/6 11/13/7
f 14/14/7 11/13/7 12/12/6
f 11/13/7 14/14/7 15/15/8
f 16/16/8 15/15/8 14/14/7
f 19/17/9 18/18/9 17/19/10
f 20/20/10 17/19/10 18/18/9
f 17/19/10 20/20/10 21/21/11
f 22/22/11 21/21/11 20/20/10
f 21/21/11 22/22/11 23/23/12
f 24/24/12 23/23/12 22/22/11
f 23/23/12 24/24/12 25/25/13
f 26/26/13 25/25/13 24/24/12
f 29/27/14 28/28/14 27/29/15
f 30/30/15 27/29/15 28/28/14
f 27/29/15 30/30/15 31/31/16
f 32/32/16 31/31/16 30/30/15
f 35/33/17 34/34/3 33/35/17
f 36/36/3 33/35/17 34/34/3
f 37/37/3 33/35/17 36/36/3
f 38/38/3 33/35/17 37/37/3
f 38/38/3 39/39/3 33/35/17
f 42/40/18 41/41/18 40/42/19
f 43/43/19 40/42/19 41/41/18
f 40/42/19 43/43/19 44/44/20
f 45/45/20 44/44/20 43/43/19
f 45/45/20 46/46/21 44/44/20
f 47/47/21 44/44/20 46/46/21
f 50/48/7 49/49/7 48/50/7
f 51/51/7 48/50/7 49/49/7
f 51/51/7 49/49/7 52/52/7
f 53/53/7 52/52/7 49/49/7
f 56/54/22 55/34/23 54/55/22
f 57/33/23 54/55/22 55/34/23
f 60/56/24 59/57/25 58/58/24
f 61/48/24 58/58/24 59/57/25
f 59/57/25 62/59/24 61/48/24
f 61/48/24 62/59/24 63/49/24
f 64/60/24 63/49/24 62/59/24
f 64/60/24 65/61/24 63/49/24
f 66/62/24 63/49/24 65/61/24
f 65/61/24 67/63/24 66/62/24
f 68/64/24 66/62/24 67/63/24
f 69/65/24 63/49/24 66/62/24
f 70/66/26 63/49/24 69/65/24
f 71/67/24 63/49/24 70/66/26
f 72/68/24 63/49/24 71/67/24
f 71/67/24 73/69/24 72/68/24
f 74/70/24 72/68/24 73/69/24
f 72/68/24 75/71/24 63/49/24
f 75/71/24 76/72/24 63/49/24
f 77/53/24 63/49/24 76/72/24
f 76/72/24 78/73/25 77/53/24
f 77/53/24 78/73/25 79/74/24
f 80/75/24 79/74/24 78/73/25
f 83/76/22 82/77/27 81/78/22
f 84/79/27 81/78/22 82/77/27
f 84/79/27 82/77/27 85/80/28
f 86/81/28 85/80/28 82/77/27
f 86/81/28 87/82/29 85/80/28
f 88/83/29 85/80/28 87/82/29
f 88/83/29 87/82/29 89/84/30
f 90/85/30 89/84/30 87/82/29
f 89/84/30 90/85/30 91/86/31
f 92/87/31 91/86/31 90/85/30
f 92/87/31 93/88/32 91/86/31
f 94/89/32 91/86/31 93/88/32
f 94/89/32 93/88/32 95/90/33
f 96/91/33 95/90/33 93/88/32
f 99/92/18 98/93/19 97/94/34
f 100/95/19 97/94/34 98/93/19
f 100/95/19 98/93/19 101/96/20
f 102/97/20 101/96/20 98/93/19
f 102/97/20 103/98/35 101/96/20
f 104/99/35 101/96/20 103/98/35
f 107/100/11 106/101/11 105/102/11
f 108/103/11 106/101/11 107/100/11
f 109/104/11 108/103/11 107/100/11
f 110/105/11 109/104/11 107/100/11
f 111/106/11 110/105/11 107/100/11
f 112/107/11 111/106/11 107/100/11
f 115/60/36 114/108/37 113/61/36
f 116/109/37 113/61/36 114/108/37
f 114/108/37 117/110/38 116/109/37
f 118/111/38 116/109/37 117/110/38
f 117/110/38 119/112/18 118/111/38
f 120/113/18 118/111/38 119/112/18
f 123/57/39 122/114/40 121/59/39
f 124/115/40 121/59/39 122/114/40
f 122/114/40 125/116/41 124/115/40
f 126/117/41 124/115/40 125/116/41
f 125/116/41 127/118/34 126/117/41
f 128/119/34 126/117/41 127/118/34
f 131/37/3 130/120/3 129/121/3
f 132/122/3 130/120/3 131/37/3
f 133/123/3 132/122/3 131/37/3
f 134/124/42 133/123/3 131/37/3
f 135/125/42 134/124/42 131/37/3
f 136/126/42 135/125/42 131/37/3
f 139/127/43 138/128/11 137/129/11
f 140/130/11 137/129/11 138/128/11
f 138/128/11 141/131/11 140/130/11
f 142/132/11 141/131/11 138/128/11
f 143/133/11 142/132/11 138/128/11
f 146/134/18 145/135/19 144/136/18
f 147/137/19 144/136/18 145/135/19
f 145/135/19 148/138/20 147/137/19
f 149/139/20 147/137/19 148/138/20
f 149/139/20 148/138/20 150/140/21
f 151/141/21 150/140/21 148/138/20
f 154/127/44 153/129/44 152/142/33
f 155/143/33 152/142/33 153/129/44
f 158/144/45 157/145/18 156/146/19
f 159/147/19 156/146/19 157/145/18
f 159/147/19 160/148/20 156/146/19
f 161/149/20 156/146/19 160/148/20
f 161/149/20 160/148/20 162/150/35
f 163/151/35 162/150/35 160/148/20
f 166/152/3 165/153/3 164/126/3
f 166/152/3 167/154/3 165/153/3
f 167/154/3 168/155/3 165/153/3
f 168/155/3 169/156/3 165/153/3
f 169/156/3 170/157/3 165/153/3
f 170/157/3 171/158/3 165/153/3
f 174/71/36 173/68/36 172/159/37
f 175/160/37 172/159/37 173/68/36
f 172/159/37 175/160/37 176/161/38
f 177/162/38 176/161/38 175/160/37
f 176/161/38 177/162/38 178/163/18
f 179/164/18 178/163/18 177/162/38
f 182/73/46 181/72/46 180/165/47
f 183/166/47 180/165/47 181/72/46
f 180/165/47 183/166/47 184/167/48
f 185/168/48 184/167/48 183/166/47
f 184/167/48 185/168/48 186/169/45
f 187/170/18 186/169/45 185/168/48
f 190/171/11 189/131/11 188/172/11
f 190/171/11 191/173/11 189/131/11
f 191/173/11 192/174/11 189/131/11
f 192/174/11 193/175/11 189/131/11
f 193/175/11 194/176/49 189/131/11
f 194/176/49 195/102/49 189/131/11
f 198/177/50 197/178/50 196/179/50
f 199/180/50 196/179/50 197/178/50
f 202/181/51 201/182/51 200/183/51
f 203/184/51 200/183/51 201/182/51
f 206/185/52 205/186/52 204/187/52
f 207/188/52 204/187/52 205/186/52
f 210/189/50 209/190/50 208/191/50
f 211/192/50 208/191/50 209/190/50
f 214/193/51 213/194/51 212/195/51
f 215/196/51 212/195/51 213/194/51
f 218/197/52 217/198/52 216/199/52
f 219/200/52 216/199/52 217/198/52
f 222/201/53 221/202/53 220/203/53
f 223/204/53 220/203/53 221/202/53
f 226/205/53 225/206/53 224/207/53
f 227/208/53 224/207/53 225/206/53
f 230/209/54 229/210/54 228/211/54
f 231/212/54 228/211/54 229/210/54
f 234/213/54 233/214/54 232/215/54
f 235/216/54 232/215/54 233/214/54
f 238/217/52 237/218/52 236/219/52
f 238/217/52 239/220/52 237/218/52
f 240/221/52 237/218/52 239/220/52
f 239/220/52 241/222/52 240/221/52
f 242/223/52 240/221/52 241/222/52
f 241/222/52 243/224/52 242/223/52
f 244/225/52 242/223/52 243/224/52
f 243/224/52 245/226/52 244/225/52
f 246/227/52 244/225/52 245/226/52
f 247/228/52 246/227/52 245/226/52
f 250/229/55 249/230/55 248/231/15
f 251/232/15 248/231/15 249/230/55
f 248/231/15 251/232/15 252/233/56
f 253/234/56 252/233/56 251/232/15
f 256/235/52 255/236/52 254/237/55
f 257/238/55 254/237/55 255/236/52
f 260/239/56 259/240/56 258/241/54
f 259/240/56 261/242/54 258/241/54
f 258/241/54 261/242/54 262/243/54
f 265/244/55 264/245/55 263/246/15
f 266/247/15 263/246/15 264/245/55
f 263/246/15 266/247/15 267/248/56
f 268/249/56 267/248/56 266/247/15
f 271/250/52 270/251/52 269/252/55
f 272/253/55 269/252/55 270/251/52
f 275/254/56 274/255/56 273/256/54
f 274/255/56 276/257/54 273/256/54
f 273/256/54 276/257/54 277/258/54
f 280/259/3 279/260/3 278/261/3
f 279/260/3 281/262/3 278/261/3
f 278/261/3 281/262/3 282/263/3
f 285/264/3 284/265/3 283/266/3
f 284/265/3 286/267/3 283/266/3
f 283/266/3 286/267/3 287/268/3
f 290/269/55 289/270/15 288/271/55
f 291/272/15 288/271/55 289/270/15
f 289/270/15 292/273/56 291/272/15
f 293/274/56 291/272/15 292/273/56
f 296/275/55 295/276/52 294/277/55
f 297/278/52 294/277/55 295/276/52
f 300/279/56 299/280/54 298/281/56
f 298/281/56 299/280/54 301/282/54
f 301/282/54 299/280/54 302/283/54
f 305/284/55 304/285/15 303/286/55
f 306/287/15 303/286/55 304/285/15
f 304/285/15 307/288/56 306/287/15
f 308/289/56 306/287/15 307/288/56
f 311/290/55 310/291/52 309/292/55
f 312/293/52 309/292/55 310/291/52
f 315/294/56 314/295/54 313/296/56
f 313/296/56 314/295/54 316/297/54
f 316/297/54 314/295/54 317/298/54
f 320/299/11 319/300/11 318/301/11
f 318/301/11 319/300/11 321/302/11
f 321/302/11 319/300/11 322/303/11
f 325/304/11 324/305/11 323/306/11
f 323/306/11 324/305/11 326/307/11
f 326/307/11 324/305/11 327/308/11
f 330/309/52 329/310/52 328/311/52
f 331/312/52 328/311/52 329/310/52
f 334/313/15 333/314/15 332/315/15
f 335/316/15 332/315/15 333/314/15
f 338/317/11 337/318/11 336/319/11
f 337/318/11 339/320/11 336/319/11
f 339/320/11 340/321/11 336/319/11
f 343/322/3 342/323/3 341/324/3
f 342/323/3 344/325/3 341/324/3
f 341/324/3 344/325/3 345/326/3
f 348/327/7 347/328/7 346/329/7
f 349/330/7 346/329/7 347/328/7
f 352/331/57 351/332/57 350/312/57
f 353/311/57 350/312/57 351/332/57
f 356/333/58 355/334/58 354/335/58
f 357/336/58 354/335/58 355/334/58
f 360/337/59 359/338/59 358/339/59
f 361/340/59 358/339/59 359/338/59
f 364/341/54 363/342/54 362/343/54
f 365/344/54 362/343/54 363/342/54
f 368/345/60 367/346/60 366/347/60
f 369/348/60 366/347/60 367/346/60
f 372/349/52 371/350/52 370/351/52
f 373/352/52 370/351/52 371/350/52
f 376/353/61 375/354/61 374/355/61
f 377/356/61 374/355/61 375/354/61
f 380/357/62 379/358/62 378/359/62
f 381/360/62 378/359/62 379/358/62
f 384/361/52 383/362/52 382/363/52
f 385/364/52 382/363/52 383/362/52
f 388/365/63 387/366/63 386/367/63
f 389/368/63 386/367/63 387/366/63
f 392/369/54 391/370/54 390/371/54
f 393/372/54 390/371/54 391/370/54
f 396/373/45 395/374/19 394/375/18
f 397/376/19 394/375/18 395/374/19
f 395/374/19 398/377/20 397/376/19
f 399/378/20 397/376/19 398/377/20
f 399/378/20 398/377/20 400/379/21
f 401/380/21 400/379/21 398/377/20
f 404/381/45 403/382/18 402/383/19
f 405/384/19 402/383/19 403/382/18
f 405/384/19 406/385/20 402/383/19
f 407/386/20 402/383/19 406/385/20
f 407/386/20 406/385/20 408/387/35
f 409/388/35 408/387/35 406/385/20
f 412/152/3 411/153/3 410/126/3
f 412/152/3 413/154/3 411/153/3
f 413/154/3 414/155/3 411/153/3
f 414/155/3 415/156/3 411/153/3
f 415/156/3 416/157/3 411/153/3
f 416/157/3 417/158/3 411/153/3
f 420/65/36 419/62/36 418/389/37
f 421/390/37 418/389/37 419/62/36
f 418/389/37 421/390/37 422/391/38
f 423/392/38 422/391/38 421/390/37
f 422/391/38 423/392/38 424/393/45
f 425/394/18 424/393/45 423/392/38
f 428/67/46 427/66/46 426/395/47
f 429/396/47 426/395/47 427/66/46
f 426/395/47 429/396/47 430/397/48
f 431/398/48 430/397/48 429/396/47
f 430/397/48 431/398/48 432/399/45
f 433/400/18 432/399/45 431/398/48
f 436/171/11 435/131/11 434/172/11
f 436/171/11 437/173/11 435/131/11
f 437/173/11 438/174/11 435/131/11
f 438/174/11 439/175/11 435/131/11
f 439/175/11 440/176/49 435/131/11
f 440/176/49 441/102/49 435/131/11
g Atl_gun_cal125A_x3_ring_Atl_gun_cal125A_x3_002.002
v 1.408018 0.644005 0.812920
v 0.812920 0.000000 1.408018
v 0.812920 0.644005 1.408018
v 1.408018 0.000000 0.812920
v 1.625839 0.644005 -0.000000
v 1.625839 0.000000 0.000000
v 1.408018 0.644005 -0.812921
v 1.408018 -0.000000 -0.812921
v 0.812919 0.644005 -1.408019
v 0.812919 -0.000000 -1.408019
v 0.000000 0.000000 1.625839
v 0.812920 0.644005 1.408018
v 0.812920 0.000000 1.408018
v 0.000000 0.644005 1.625839
v -0.812920 0.000000 1.408018
v -0.812920 0.644005 1.408018
v -1.408018 0.000000 0.812920
v -0.812920 0.644005 1.408018
v -0.812920 0.000000 1.408018
v -1.408018 0.644005 0.812920
v -1.625839 0.000000 0.000000
v -1.625839 0.644005 -0.000000
v -1.408019 -0.000000 -0.812919
v -1.408019 0.644005 -0.812919
v -0.812920 -0.000000 -1.408018
v -0.812920 0.644005 -1.408018
v -0.000001 -0.000000 -1.625839
v -0.812920 0.644005 -1.408018
v -0.812920 -0.000000 -1.408018
v -0.000001 0.644005 -1.625839
v 0.812919 -0.000000 -1.408019
v 0.812919 0.644005 -1.408019
vn 0.5000 -0.0000 0.8660
vn 0.5000 0.0001 0.8660
vn 0.8660 -0.0000 0.5000
vn 1.0000 -0.0000 -0.0000
vn 0.8660 -0.0000 -0.5000
vn 0.5000 -0.0000 -0.8660
vn 0.4999 -0.0000 0.8661
vn -0.0000 -0.0000 1.0000
vn -0.4999 -0.0000 0.8661
vn -0.5000 -0.0000 0.8660
vn -0.5000 0.0001 0.8660
vn -0.8660 -0.0000 0.5000
vn -1.0000 -0.0000 -0.0000
vn -0.8660 -0.0000 -0.5000
vn -0.5000 0.0001 -0.8660
vn -0.5000 -0.0000 -0.8660
vn -0.4999 -0.0000 -0.8661
vn -0.0000 -0.0000 -1.0000
vn 0.4999 -0.0000 -0.8661
vt 3.839223 0.509786
vt 3.839223 0.500000
vt 3.848181 0.509786
vt 3.848181 0.500000
vt 3.860417 0.509786
vt 3.860417 0.500000
vt 3.872653 0.509786
vt 3.872653 0.500000
vt 3.881610 0.509786
vt 3.881610 0.500000
vt 0.209014 0.500000
vt 0.209014 0.509786
vt 0.196686 0.500000
vt 0.196686 0.509786
vt 0.184357 0.500000
vt 0.184357 0.509786
vt -2.839223 0.500000
vt -2.839223 0.509786
vt -2.848181 0.500000
vt -2.848181 0.509786
vt -2.860417 0.500000
vt -2.860417 0.509786
vt -2.872653 0.500000
vt -2.872653 0.509786
vt -2.881610 0.500000
vt -2.881610 0.509786
vt 0.815643 0.500000
vt 0.815643 0.509786
vt 0.803314 0.500000
vt 0.803314 0.509786
vt 0.790986 0.500000
vt 0.790986 0.509786
s 1
f 444/401/64 443/402/65 442/403/66
f 445/404/66 442/403/66 443/402/65
f 442/403/66 445/404/66 446/405/67
f 447/406/67 446/405/67 445/404/66
f 446/405/67 447/406/67 448/407/68
f 449/408/68 448/407/68 447/406/67
f 448/407/68 449/408/68 450/409/69
f 451/410/69 450/409/69 449/408/68
f 454/411/70 453/412/70 452/413/71
f 455/414/71 452/413/71 453/412/70
f 452/413/71 455/414/71 456/415/72
f 457/416/72 456/415/72 455/414/71
f 460/417/73 459/418/74 458/419/75
f 461/420/75 458/419/75 459/418/74
f 458/419/75 461/420/75 462/421/76
f 463/422/76 462/421/76 461/420/75
f 462/421/76 463/422/76 464/423/77
f 465/424/77 464/423/77 463/422/76
f 464/423/77 465/424/77 466/425/78
f 467/426/79 466/425/78 465/424/77
f 470/427/80 469/428/80 468/429/81
f 471/430/81 468/429/81 469/428/80
f 468/429/81 471/430/81 472/431/82
f 473/432/82 472/431/82 471/430/81
g Atl_gun_cal125A_x3_inlays_Atl_gun_cal125A_x3_002.003
v 1.397583 3.430439 -0.195787
v 0.771209 1.945822 0.787779
v 0.771204 3.430438 -0.195786
v 1.397588 1.945822 0.787779
v 1.397588 1.945822 0.787779
v 0.771135 1.945819 1.745932
v 0.771209 1.945822 0.787779
v 1.397518 1.945820 1.745932
v 0.771135 1.945819 1.745932
v 0.771135 2.293785 1.804774
v 0.771209 1.945822 0.787779
v 0.771136 2.793627 1.705342
v 0.771137 3.217372 1.422203
v 0.771150 3.500505 0.998465
v 0.771192 3.599929 0.498628
v 0.771204 3.430438 -0.195786
v 1.397583 3.430439 -0.195787
v 1.397555 3.599868 0.498706
v 1.397588 1.945822 0.787779
v 1.397515 3.500444 0.998543
v 1.397504 3.217312 1.422282
v 1.397506 2.793578 1.705406
v 1.397508 2.293748 1.804822
v 1.397518 1.945820 1.745932
v -1.397583 3.430439 -0.195787
v -0.771209 1.945822 0.787779
v -1.397588 1.945822 0.787779
v -0.771204 3.430438 -0.195786
v -1.397588 1.945822 0.787779
v -0.771135 1.945819 1.745932
v -1.397518 1.945820 1.745932
v -0.771209 1.945822 0.787779
v -0.771135 1.945819 1.745932
v -0.771209 1.945822 0.787779
v -0.771134 2.293785 1.804774
v -0.771136 2.793626 1.705342
v -0.771137 3.217372 1.422203
v -0.771150 3.500505 0.998465
v -0.771192 3.599929 0.498628
v -0.771204 3.430438 -0.195786
v -1.397583 3.430439 -0.195787
v -1.397588 1.945822 0.787779
v -1.397555 3.599868 0.498706
v -1.397515 3.500444 0.998543
v -1.397504 3.217311 1.422282
v -1.397506 2.793578 1.705406
v -1.397508 2.293748 1.804822
v -1.397518 1.945820 1.745932
v -0.909819 3.179431 -3.228880
v -0.387861 3.229537 -3.348255
v -0.909815 3.229538 -3.228865
v -0.387865 3.179431 -3.348270
v -0.909815 3.229538 -3.228865
v -0.357273 3.229539 -3.214532
v -0.879227 3.229539 -3.095142
v -0.387861 3.229537 -3.348255
v -0.879227 3.179435 -3.095142
v -0.387865 3.179431 -3.348270
v -0.909819 3.179431 -3.228880
v -0.357273 3.179435 -3.214532
v -0.909815 2.862141 -3.228865
v -0.387865 2.912245 -3.348270
v -0.909815 2.912246 -3.228865
v -0.387865 2.862140 -3.348270
v -0.909815 2.912246 -3.228865
v -0.357273 2.912246 -3.214532
v -0.879227 2.912246 -3.095142
v -0.387865 2.912245 -3.348270
v -0.879227 2.862142 -3.095142
v -0.387865 2.862140 -3.348270
v -0.909815 2.862141 -3.228865
v -0.357273 2.862142 -3.214532
v -0.909819 2.544847 -3.228882
v -0.387865 2.594951 -3.348270
v -0.909815 2.594953 -3.228867
v -0.387865 2.544846 -3.348270
v -0.909815 2.594953 -3.228867
v -0.357273 2.594955 -3.214532
v -0.879227 2.594955 -3.095142
v -0.387865 2.594951 -3.348270
v -0.879229 2.544850 -3.095144
v -0.387865 2.544846 -3.348270
v -0.909819 2.544847 -3.228882
v -0.357273 2.544850 -3.214532
v -0.909815 3.496722 -3.228864
v -0.387865 3.546825 -3.348269
v -0.909815 3.546825 -3.228864
v -0.387865 3.496719 -3.348269
v -0.909815 3.546825 -3.228864
v -0.357273 3.546827 -3.214532
v -0.879227 3.546826 -3.095142
v -0.387865 3.546825 -3.348269
v -0.879227 3.496723 -3.095142
v -0.387865 3.496719 -3.348269
v -0.909815 3.496722 -3.228864
v -0.357273 3.496723 -3.214532
v -0.909819 2.219416 -3.228882
v -0.387861 2.269520 -3.348257
v -0.909815 2.269522 -3.228867
v -0.387865 2.219414 -3.348272
v -0.909815 2.269522 -3.228867
v -0.357275 2.269524 -3.214534
v -0.879229 2.269523 -3.095144
v -0.387861 2.269520 -3.348257
v -0.879229 2.219417 -3.095144
v -0.387865 2.219414 -3.348272
v -0.909819 2.219416 -3.228882
v -0.357275 2.219418 -3.214534
v -0.909815 1.902125 -3.228867
v -0.387861 1.952229 -3.348257
v -0.909815 1.952231 -3.228867
v -0.387861 1.902124 -3.348257
v -0.909815 1.952231 -3.228867
v -0.357275 1.952232 -3.214534
v -0.879229 1.952232 -3.095144
v -0.387861 1.952229 -3.348257
v -0.879229 1.902126 -3.095144
v -0.387861 1.902124 -3.348257
v -0.909815 1.902125 -3.228867
v -0.357275 1.902126 -3.214534
v -0.909822 1.584835 -3.228879
v -0.387865 1.634941 -3.348255
v -0.909819 1.634941 -3.228864
v -0.387869 1.584834 -3.348270
v -0.909819 1.634941 -3.228864
v -0.357277 1.634942 -3.214532
v -0.879227 1.634942 -3.095142
v -0.387865 1.634941 -3.348255
v -0.879227 1.584838 -3.095142
v -0.387869 1.584834 -3.348270
v -0.909822 1.584835 -3.228879
v -0.357277 1.584838 -3.214532
v -0.909819 1.267544 -3.228864
v -0.387869 1.317647 -3.348270
v -0.909819 1.317649 -3.228864
v -0.387869 1.267544 -3.348270
v -0.909819 1.317649 -3.228864
v -0.357277 1.317649 -3.214531
v -0.879227 1.317649 -3.095142
v -0.387869 1.317647 -3.348270
v -0.879227 1.267545 -3.095142
v -0.387869 1.267544 -3.348270
v -0.909819 1.267544 -3.228864
v -0.357277 1.267545 -3.214531
v -0.909819 0.950251 -3.228882
v -0.387869 1.000355 -3.348270
v -0.909815 1.000356 -3.228866
v -0.387869 0.950249 -3.348270
v -0.909815 1.000356 -3.228866
v -0.357273 1.000358 -3.214532
v -0.879227 1.000358 -3.095142
v -0.387869 1.000355 -3.348270
v -0.879232 0.950253 -3.095143
v -0.387869 0.950249 -3.348270
v -0.909819 0.950251 -3.228882
v -0.357273 0.950252 -3.214532
v 1.943894 2.895338 1.021733
v 2.503899 2.541559 1.123860
v 1.943894 2.541559 1.123860
v 2.503899 2.895338 1.021733
v 1.943894 3.270985 0.228892
v 2.503899 2.917205 0.331019
v 1.943894 2.917205 0.331019
v 2.503899 3.270984 0.228892
v -1.943894 2.895338 1.021733
v -2.503899 2.541559 1.123860
v -2.503899 2.895338 1.021733
v -1.943894 2.541559 1.123860
v -1.943894 3.270985 0.228892
v -2.503899 2.917205 0.331019
v -2.503899 3.270984 0.228892
v -1.943894 2.917205 0.331019
v -0.313251 3.430439 -0.195787
v 0.313124 1.945821 0.787779
v -0.313255 1.945822 0.787779
v 0.313128 3.430438 -0.195786
v 0.313198 1.945819 1.745933
v -0.313255 1.945822 0.787779
v 0.313124 1.945821 0.787779
v -0.313186 1.945819 1.745932
v 0.313198 1.945819 1.745933
v 0.313124 1.945821 0.787779
v 0.313198 2.293785 1.804774
v 0.313197 2.793626 1.705343
v 0.313195 3.217372 1.422203
v 0.313183 3.500505 0.998465
v 0.313141 3.599929 0.498628
v 0.313128 3.430438 -0.195786
v -0.313251 3.430439 -0.195787
v -0.313255 1.945822 0.787779
v -0.313222 3.599868 0.498707
v -0.313183 3.500444 0.998544
v -0.313171 3.217311 1.422282
v -0.313173 2.793578 1.705406
v -0.313175 2.293748 1.804822
v -0.313186 1.945819 1.745932
vn -0.0000 0.5523 0.8336
vn -0.0000 1.0000 -0.0000
vn 1.0000 -0.0000 0.0001
vn 1.0000 -0.0000 -0.0000
vn -1.0000 -0.0000 -0.0001
vn -1.0000 -0.0000 -0.0000
vn -1.0000 -0.0000 0.0001
vn 1.0000 -0.0000 -0.0001
vn -0.2230 0.0003 -0.9748
vn -0.0000 -1.0000 -0.0000
vn -0.2230 -0.0000 -0.9748
vn -0.0000 0.2773 0.9608
vn -0.0000 0.2774 0.9608
vt 0.208382 0.552128
vt 0.208382 0.529568
vt 0.217881 0.552128
vt 0.217881 0.529568
vt 0.208382 3.848559
vt 0.208381 3.834137
vt 0.217881 3.848559
vt 0.217880 3.834137
vt 3.848559 0.529568
vt 3.833251 0.534856
vt 3.834137 0.529568
vt 3.834748 0.542451
vt 3.839010 0.548891
vt 3.845388 0.553193
vt 3.852911 0.554704
vt 3.863364 0.552128
vt -2.848559 0.529568
vt -2.852910 0.554703
vt -2.863364 0.552128
vt -2.845387 0.553192
vt -2.839008 0.548890
vt -2.834747 0.542451
vt -2.833250 0.534855
vt -2.834137 0.529568
vt 0.175490 0.529568
vt 0.184990 0.529568
vt 0.175490 0.552128
vt 0.184990 0.552128
vt 0.175491 3.834137
vt 0.184991 3.834137
vt 0.175490 3.848559
vt 0.184990 3.848559
vt -2.833251 0.534856
vt -2.834748 0.542451
vt -2.839010 0.548891
vt -2.845388 0.553193
vt -2.852911 0.554704
vt 3.852910 0.554703
vt 3.845387 0.553192
vt 3.839008 0.548890
vt 3.834747 0.542451
vt 3.833250 0.534855
vt 0.817112 0.549075
vt 0.809196 0.549075
vt 0.817112 0.548314
vt 0.809196 0.548314
vt 0.183352 3.900650
vt 0.191267 3.902447
vt 0.182888 3.902663
vt 0.190804 3.904460
vt 0.817112 3.902663
vt 0.809196 3.904460
vt 0.816648 3.900650
vt 0.808733 3.902447
vt 0.817112 0.544254
vt 0.809196 0.544254
vt 0.817112 0.543492
vt 0.809196 0.543492
vt 0.190803 3.904460
vt 0.817112 0.539432
vt 0.809196 0.539432
vt 0.817112 0.538671
vt 0.809196 0.538671
vt 0.817112 0.553897
vt 0.809196 0.553897
vt 0.817112 0.553135
vt 0.809196 0.553135
vt 0.817112 0.534487
vt 0.809196 0.534487
vt 0.817112 0.533726
vt 0.809196 0.533726
vt 0.817112 0.529666
vt 0.809196 0.529666
vt 0.817112 0.528904
vt 0.809196 0.528904
vt 0.817112 0.524844
vt 0.809196 0.524844
vt 0.817112 0.524083
vt 0.809197 0.524083
vt 0.809197 3.904460
vt 0.817112 0.520023
vt 0.809197 0.520023
vt 0.817112 0.519261
vt 0.809197 0.519261
vt 0.817112 0.515201
vt 0.809197 0.515201
vt 0.817112 0.514440
vt 0.809197 0.514440
vt 0.226166 0.538621
vt 0.234659 0.538621
vt 0.226166 0.543997
vt 0.234659 0.543997
vt 0.226166 0.544329
vt 0.234659 0.544329
vt 0.226166 0.549705
vt 0.234659 0.549705
vt 0.158712 0.543997
vt 0.158712 0.538621
vt 0.167205 0.543997
vt 0.167205 0.538621
vt 0.158712 0.549705
vt 0.158712 0.544329
vt 0.167205 0.549705
vt 0.167205 0.544329
vt 0.191935 0.529568
vt 0.201435 0.529568
vt 0.191935 0.552128
vt 0.201435 0.552128
vt 0.201435 3.848559
vt 0.191935 3.848559
vt 0.201436 3.834137
vt 0.191936 3.834137
s 1
f 476/433/83 475/434/83 474/435/83
f 477/436/83 474/435/83 475/434/83
f 480/437/84 479/438/84 478/439/84
f 481/440/84 478/439/84 479/438/84
f 484/441/85 483/442/85 482/443/85
f 485/444/85 483/442/85 484/441/85
f 486/445/85 485/444/85 484/441/85
f 487/446/85 486/445/85 484/441/85
f 488/447/86 487/446/85 484/441/85
f 489/448/86 488/447/86 484/441/85
f 492/449/87 491/450/87 490/451/88
f 493/452/87 491/450/87 492/449/87
f 494/453/87 493/452/87 492/449/87
f 495/454/87 494/453/87 492/449/87
f 496/455/87 495/454/87 492/449/87
f 497/456/87 496/455/87 492/449/87
f 500/457/83 499/458/83 498/459/83
f 501/460/83 498/459/83 499/458/83
f 504/461/84 503/462/84 502/463/84
f 505/464/84 502/463/84 503/462/84
f 508/465/89 507/449/89 506/456/89
f 508/465/89 509/466/89 507/449/89
f 509/466/89 510/467/89 507/449/89
f 510/467/89 511/468/89 507/449/89
f 511/468/89 512/469/88 507/449/89
f 512/469/88 513/451/88 507/449/89
f 516/470/90 515/441/90 514/448/86
f 516/470/90 517/471/90 515/441/90
f 517/471/90 518/472/90 515/441/90
f 518/472/90 519/473/90 515/441/90
f 519/473/90 520/474/90 515/441/90
f 520/474/90 521/443/90 515/441/90
f 524/475/91 523/476/91 522/477/91
f 525/478/91 522/477/91 523/476/91
f 528/479/84 527/480/84 526/481/84
f 529/482/84 526/481/84 527/480/84
f 532/483/92 531/484/92 530/485/92
f 533/486/92 530/485/92 531/484/92
f 536/487/93 535/488/93 534/489/93
f 537/490/93 534/489/93 535/488/93
f 540/479/84 539/480/84 538/481/84
f 541/491/84 538/481/84 539/480/84
f 544/483/92 543/484/92 542/485/92
f 545/486/92 542/485/92 543/484/92
f 548/492/91 547/493/93 546/494/91
f 549/495/93 546/494/91 547/493/93
f 552/479/84 551/480/84 550/481/84
f 553/491/84 550/481/84 551/480/84
f 556/483/92 555/484/92 554/485/92
f 557/486/92 554/485/92 555/484/92
f 560/496/93 559/497/93 558/498/93
f 561/499/93 558/498/93 559/497/93
f 564/479/84 563/480/84 562/481/84
f 565/491/84 562/481/84 563/480/84
f 568/483/92 567/484/92 566/485/92
f 569/486/92 566/485/92 567/484/92
f 572/500/91 571/501/91 570/502/91
f 573/503/91 570/502/91 571/501/91
f 576/479/84 575/480/84 574/481/84
f 577/482/84 574/481/84 575/480/84
f 580/483/92 579/484/92 578/485/92
f 581/486/92 578/485/92 579/484/92
f 584/504/93 583/505/93 582/506/93
f 585/507/93 582/506/93 583/505/93
f 588/479/84 587/480/84 586/481/84
f 589/482/84 586/481/84 587/480/84
f 592/483/92 591/484/92 590/485/92
f 593/486/92 590/485/92 591/484/92
f 596/508/91 595/509/91 594/510/91
f 597/511/91 594/510/91 595/509/91
f 600/479/84 599/480/84 598/481/84
f 601/491/84 598/481/84 599/480/84
f 604/483/92 603/512/92 602/485/92
f 605/486/92 602/485/92 603/512/92
f 608/513/93 607/514/93 606/515/93
f 609/516/93 606/515/93 607/514/93
f 612/479/84 611/480/84 610/481/84
f 613/491/84 610/481/84 611/480/84
f 616/483/92 615/512/92 614/485/92
f 617/486/92 614/485/92 615/512/92
f 620/517/91 619/518/93 618/519/91
f 621/520/93 618/519/91 619/518/93
f 624/479/84 623/480/84 622/481/84
f 625/491/84 622/481/84 623/480/84
f 628/483/92 627/512/92 626/485/92
f 629/486/92 626/485/92 627/512/92
f 632/521/94 631/522/94 630/523/94
f 633/524/94 630/523/94 631/522/94
f 636/525/94 635/526/94 634/527/94
f 637/528/95 634/527/94 635/526/94
f 640/529/94 639/530/94 638/531/94
f 641/532/94 638/531/94 639/530/94
f 644/533/95 643/534/94 642/535/94
f 645/536/94 642/535/94 643/534/94
f 648/537/83 647/538/83 646/539/83
f 649/540/83 646/539/83 647/538/83
f 652/541/84 651/542/84 650/543/84
f 653/544/84 650/543/84 651/542/84
f 656/465/89 655/449/89 654/456/89
f 656/465/89 657/466/89 655/449/89
f 657/466/89 658/467/89 655/449/89
f 658/467/89 659/468/89 655/449/89
f 659/468/89 660/469/88 655/449/89
f 660/469/88 661/451/88 655/449/89
f 664/470/90 663/441/90 662/448/86
f 664/470/90 665/471/90 663/441/90
f 665/471/90 666/472/90 663/441/90
f 666/472/90 667/473/90 663/441/90
f 667/473/90 668/474/90 663/441/90
f 668/474/90 669/443/90 663/441/90
g Atl_gun_cal125A_x3_top_Atl_gun_cal125A_x3_002.004
v 2.260844 3.667370 -1.231916
v 0.000000 3.667369 -1.231915
v 2.260882 3.667365 -2.095310
v 1.943894 3.667366 -2.477687
v 1.479875 3.667367 -2.855173
v 0.934799 3.667366 -3.098365
v 0.311762 3.667366 -3.242680
v -0.311762 3.667365 -3.242680
v -0.934799 3.667366 -3.098364
v -1.479875 3.667367 -2.855173
v -1.943893 3.667366 -2.477686
v -2.260881 3.667365 -2.095310
v -2.260843 3.667369 -1.231916
v 1.500048 3.430437 -0.195777
v 2.260724 3.156070 1.004060
v 1.500051 3.156070 1.004061
v 2.260844 3.667370 -1.231916
v 1.397583 3.430439 -0.195787
v 0.000000 3.667369 -1.231915
v 0.771204 3.430438 -0.195786
v 0.668631 3.430438 -0.195786
v 0.415701 3.430438 -0.195786
v 0.313128 3.430438 -0.195786
v -0.313251 3.430439 -0.195787
v -0.415715 3.430437 -0.195777
v -0.668631 3.430438 -0.195786
v -0.771204 3.430438 -0.195786
v -1.397583 3.430439 -0.195787
v -2.260843 3.667369 -1.231916
v -1.500048 3.430437 -0.195777
v -2.260724 3.156070 1.004060
v -1.500050 3.156070 1.004060
v 0.668631 3.430438 -0.195786
v 0.415701 3.430438 -0.195786
v 0.415702 3.156070 1.004062
v 0.668631 3.156070 1.004061
v -0.415715 3.430437 -0.195777
v -0.668631 3.430438 -0.195786
v -0.668631 3.156070 1.004061
v -0.415718 3.156070 1.004061
vn -0.0000 1.0000 -0.0000
vn -0.0000 0.9748 0.2229
vt 0.230974 3.885600
vt 0.196686 3.878960
vt 0.230973 3.878960
vt 0.226167 3.891356
vt 0.219129 3.897038
vt 0.210863 3.900698
vt 0.201414 3.902871
vt 0.191958 3.902871
vt 0.182509 3.900698
vt 0.174242 3.897038
vt 0.167205 3.891356
vt 0.162398 3.885600
vt 0.162398 3.878960
vt 0.219435 3.845304
vt 0.230971 3.845304
vt 0.219435 3.863364
vt 0.217881 3.863364
vt 0.208382 3.863364
vt 0.206826 3.863364
vt 0.202990 3.863364
vt 0.201435 3.863364
vt 0.191935 3.863364
vt 0.190381 3.863364
vt 0.186545 3.863364
vt 0.184990 3.863364
vt 0.175490 3.863364
vt 0.173936 3.863364
vt 0.162400 3.845304
vt 0.173936 3.845304
vt 0.202990 3.845303
vt 0.206826 3.845303
vt 0.186545 3.845303
vt 0.190381 3.845304
s 1
f 672/545/96 671/546/96 670/547/96
f 673/548/96 671/546/96 672/545/96
f 674/549/96 671/546/96 673/548/96
f 675/550/96 671/546/96 674/549/96
f 676/551/96 671/546/96 675/550/96
f 677/552/96 671/546/96 676/551/96
f 671/546/96 677/552/96 678/553/96
f 678/553/96 679/554/96 671/546/96
f 671/546/96 679/554/96 680/555/96
f 671/546/96 680/555/96 681/556/96
f 681/556/96 682/557/96 671/546/96
f 685/558/97 684/559/97 683/560/97
f 686/547/97 683/560/97 684/559/97
f 683/560/97 686/547/97 687/561/97
f 686/547/97 688/546/97 687/561/97
f 689/562/97 687/561/97 688/546/97
f 688/546/97 690/563/97 689/562/97
f 691/564/97 690/563/97 688/546/97
f 692/565/97 691/564/97 688/546/97
f 693/566/97 692/565/97 688/546/97
f 694/567/97 693/566/97 688/546/97
f 695/568/97 694/567/97 688/546/97
f 695/568/97 688/546/97 696/569/97
f 696/569/97 688/546/97 697/570/97
f 698/557/97 697/570/97 688/546/97
f 698/557/97 699/571/97 697/570/97
f 698/557/97 700/572/97 699/571/97
f 701/573/97 699/571/97 700/572/97
f 703/564/97 704/574/97 702/563/97
f 705/575/97 702/563/97 704/574/97
f 707/568/97 708/576/97 706/567/97
f 709/577/97 706/567/97 708/576/97
g Atl_gun_cal125A_x3_floor_Atl_gun_cal125A_x3_002.005
v 2.260833 0.644007 -1.231914
v 0.000000 0.644005 -1.231914
v 2.260702 0.644008 1.999859
v 2.260883 0.644007 -2.095310
v 0.000000 0.644007 1.999860
v 1.943895 0.644006 -2.477688
v -2.260702 0.644008 1.999859
v 1.479876 0.644005 -2.855174
v -2.260833 0.644007 -1.231914
v 0.934800 0.644005 -3.098365
v -2.260882 0.644007 -2.095310
v 0.311763 0.644004 -3.242681
v -1.943894 0.644006 -2.477687
v -0.311763 0.644004 -3.242680
v -1.479876 0.644005 -2.855174
v -0.934800 0.644005 -3.098365
vn -0.0000 -1.0000 -0.0000
vt 0.769029 3.830315
vt 0.803314 3.878960
vt 0.769027 3.878960
vt 0.769026 3.885600
vt 0.803314 3.830315
vt 0.773833 3.891356
vt 0.837600 3.830315
vt 0.780871 3.897038
vt 0.837602 3.878960
vt 0.789137 3.900698
vt 0.837602 3.885600
vt 0.798586 3.902871
vt 0.832795 3.891356
vt 0.808042 3.902871
vt 0.825758 3.897038
vt 0.817491 3.900698
s 1
f 712/578/98 711/579/98 710/580/98
f 710/580/98 711/579/98 713/581/98
f 712/578/98 714/582/98 711/579/98
f 713/581/98 711/579/98 715/583/98
f 714/582/98 716/584/98 711/579/98
f 715/583/98 711/579/98 717/585/98
f 711/579/98 716/584/98 718/586/98
f 717/585/98 711/579/98 719/587/98
f 711/579/98 718/586/98 720/588/98
f 719/587/98 711/579/98 721/589/98
f 711/579/98 720/588/98 722/590/98
f 711/579/98 723/591/98 721/589/98
f 711/579/98 722/590/98 724/592/98
f 711/579/98 725/593/98 723/591/98
f 711/579/98 724/592/98 725/593/98
