# Blender 4.5.3 LTS
# www.blender.org
g Atl_gun_cal125A_x4_base_Atl_gun_cal125A_x4_002
v 1.549341 0.377576 0.894512
v 0.894512 0.000000 1.549341
v 0.894512 0.377576 1.549341
v 1.549341 0.000000 0.894512
v 1.789025 0.377576 -0.000000
v 1.789025 0.000000 0.000000
v 1.549340 0.377576 -0.894513
v 1.549340 -0.000000 -0.894513
v 0.894511 0.377576 -1.549341
v 0.894511 -0.000000 -1.549341
v 0.000000 0.000000 1.789025
v 0.894512 0.377576 1.549341
v 0.894512 0.000000 1.549341
v 0.000000 0.377576 1.789025
v -0.894512 0.000000 1.549341
v -0.894512 0.377576 1.549341
v -1.549341 0.000000 0.894512
v -0.894512 0.377576 1.549341
v -0.894512 0.000000 1.549341
v -1.549341 0.377576 0.894513
v -1.789025 0.000000 0.000000
v -1.789025 0.377576 -0.000000
v -1.549341 -0.000000 -0.894512
v -1.549341 0.377576 -0.894512
v -0.894513 -0.000000 -1.549340
v -0.894513 0.377576 -1.549340
v -0.000001 -0.000000 -1.789025
v -0.894513 0.377576 -1.549340
v -0.894513 -0.000000 -1.549340
v -0.000001 0.377576 -1.789025
v 0.894511 -0.000000 -1.549341
v 0.894511 0.377576 -1.549341
v 2.260833 0.644007 -1.231914
v 2.260882 3.667365 -2.195307
v 2.260883 0.644006 -2.195307
v 2.260844 3.667370 -1.231916
v 2.260724 3.156070 1.004060
v 2.260702 1.531570 1.999859
v 2.260702 0.644008 1.999859
v 2.260702 0.644008 1.999859
v 0.000000 1.531569 1.999861
v 2.260702 1.531570 1.999859
v 0.000000 0.644007 1.999860
v -2.260702 0.644008 1.999859
v -2.260702 1.531570 1.999859
v 1.943895 0.644005 -2.577684
v 2.260882 3.667365 -2.195307
v 1.943894 3.667366 -2.577683
v 2.260883 0.644006 -2.195307
v 2.260724 3.156070 1.004060
v 1.662778 1.945819 1.745943
v 1.662777 3.156070 1.004061
v 2.260702 1.531570 1.999859
v 1.560245 1.945819 1.745932
v 0.933861 1.945819 1.745933
v 0.000000 1.531569 1.999861
v 0.728844 1.945819 1.745932
v 0.102460 1.945819 1.745933
v -0.102556 1.945819 1.745932
v -0.728892 1.945819 1.745933
v -0.933909 1.945819 1.745933
v -2.260702 1.531570 1.999859
v -1.560293 1.945819 1.745933
v -1.662810 1.945819 1.745938
v -2.260724 3.156070 1.004060
v -1.662810 3.156070 1.004061
v 1.943894 3.667366 -2.577683
v 1.479876 0.644004 -2.955171
v 1.943895 0.644005 -2.577684
v 1.479875 3.667367 -2.955170
v 0.934799 3.667366 -3.198361
v 0.934800 0.644004 -3.198362
v 0.311763 0.644004 -3.342677
v 0.311762 3.667366 -3.342677
v -0.311762 3.667365 -3.342677
v -0.311763 0.644004 -3.342677
v -0.934799 3.667366 -3.198361
v -0.934800 0.644004 -3.198361
v -1.479876 0.644004 -2.955171
v -1.479875 3.667366 -2.955170
v -1.943893 3.667366 -2.577683
v -1.943894 0.644005 -2.577684
v 1.560230 3.217312 1.422282
v 1.662760 3.500444 0.998543
v 1.662760 3.217310 1.422291
v 1.560242 3.500444 0.998544
v 1.560281 3.599868 0.498706
v 1.662757 3.599866 0.498716
v 1.662774 3.430437 -0.195777
v 1.560310 3.430439 -0.195787
v 1.560245 1.945819 1.745932
v 1.662767 2.293748 1.804833
v 1.662778 1.945819 1.745943
v 1.560234 2.293748 1.804822
v 1.662764 2.793577 1.705416
v 1.560232 2.793578 1.705406
v 1.662760 3.217310 1.422291
v 1.560230 3.217312 1.422282
v 1.662778 1.945819 1.745943
v 1.662767 2.293748 1.804833
v 1.662777 3.156070 1.004061
v 1.662764 2.793577 1.705416
v 1.662760 3.217310 1.422291
v 1.662760 3.500444 0.998543
v 1.662757 3.599866 0.498716
v 1.662774 3.430437 -0.195777
v 0.933931 3.430438 -0.195786
v 0.728881 3.599868 0.498706
v 0.728909 3.430439 -0.195787
v 0.933919 3.599929 0.498628
v 0.933876 3.500505 0.998465
v 0.728841 3.500444 0.998544
v 0.728830 3.217312 1.422282
v 0.933864 3.217372 1.422203
v -2.260881 3.667365 -2.195307
v -2.260833 0.644007 -1.231914
v -2.260882 0.644006 -2.195307
v -2.260843 3.667370 -1.231915
v -2.260724 3.156070 1.004060
v -2.260702 1.531570 1.999859
v -2.260702 0.644008 1.999859
v -1.943894 0.644005 -2.577684
v -2.260881 3.667365 -2.195307
v -2.260882 0.644006 -2.195307
v -1.943893 3.667366 -2.577683
v -0.874905 0.719800 -3.176234
v -0.914139 3.648695 -3.347769
v -0.914141 0.719801 -3.347768
v -0.874903 3.648690 -3.176234
v -0.970867 0.719801 -3.334793
v -0.931629 3.648690 -3.163259
v -0.931631 0.719800 -3.163259
v -0.970865 3.648695 -3.334793
v -0.970865 3.648695 -3.334793
v -0.874903 3.648690 -3.176234
v -0.931629 3.648690 -3.163259
v -0.914139 3.648695 -3.347769
v -0.296175 0.719798 -3.308611
v -0.335409 3.648695 -3.480145
v -0.335411 0.719799 -3.480145
v -0.296173 3.648691 -3.308611
v -0.392187 0.719799 -3.467159
v -0.352949 3.648691 -3.295624
v -0.352955 0.719798 -3.295639
v -0.392185 3.648695 -3.467159
v -0.392185 3.648695 -3.467159
v -0.296173 3.648691 -3.308611
v -0.352949 3.648691 -3.295624
v -0.335409 3.648695 -3.480145
v -0.335411 0.719799 -3.480145
v -0.392185 3.648695 -3.467159
v -0.392187 0.719799 -3.467159
v -0.335409 3.648695 -3.480145
v -0.914141 0.719801 -3.347768
v -0.970865 3.648695 -3.334793
v -0.970867 0.719801 -3.334793
v -0.914139 3.648695 -3.347769
v -0.392187 0.719799 -3.467159
v -0.296175 0.719798 -3.308611
v -0.335411 0.719799 -3.480145
v -0.352955 0.719798 -3.295639
v -0.970867 0.719801 -3.334793
v -0.874905 0.719800 -3.176234
v -0.914141 0.719801 -3.347768
v -0.931631 0.719800 -3.163259
v 1.789025 0.377576 -0.000000
v 1.549341 0.377576 0.894512
v 1.549340 0.377576 -0.894513
v 0.894511 0.377576 -1.549341
v 0.894512 0.377576 1.549341
v -0.000001 0.377576 -1.789025
v 0.000000 0.377576 1.789025
v -0.894513 0.377576 -1.549340
v -0.894512 0.377576 1.549341
v -1.549341 0.377576 -0.894512
v -1.549341 0.377576 0.894513
v -1.789025 0.377576 -0.000000
v 1.943894 2.718448 0.715351
v 2.503898 2.895338 0.817479
v 1.943894 2.895338 0.817479
v 2.503898 2.718448 0.715351
v 1.943894 2.541559 0.817479
v 2.503898 2.541559 0.817479
v 1.943894 2.895338 0.817479
v 2.503899 2.895338 1.021733
v 1.943894 2.895338 1.021733
v 2.503898 2.895338 0.817479
v 1.943894 2.541559 1.021733
v 2.503898 2.541559 0.817479
v 1.943894 2.541559 0.817479
v 2.503899 2.541559 1.123860
v 1.943894 2.541559 1.123860
v 1.943894 3.094095 -0.077490
v 2.503898 3.270984 0.024637
v 1.943894 3.270985 0.024637
v 2.503898 3.094095 -0.077490
v 1.943894 2.917205 0.024637
v 2.503898 2.917205 0.024637
v 1.943894 3.270985 0.024637
v 2.503899 3.270984 0.228892
v 1.943894 3.270985 0.228892
v 2.503898 3.270984 0.024637
v 1.943894 2.917205 0.228892
v 2.503898 2.917205 0.024637
v 1.943894 2.917205 0.024637
v 2.503899 2.917205 0.331019
v 1.943894 2.917205 0.331019
v 2.503899 2.895338 1.021733
v 2.503898 2.541559 0.817479
v 2.503899 2.541559 1.123860
v 2.503898 2.718448 0.715351
v 2.503898 2.895338 0.817479
v 2.503899 3.270984 0.228892
v 2.503898 2.917205 0.024637
v 2.503899 2.917205 0.331019
v 2.503898 3.094095 -0.077490
v 2.503898 3.270984 0.024637
v -2.503898 2.895338 0.817479
v -1.943894 2.718448 0.715351
v -1.943894 2.895338 0.817479
v -2.503898 2.718448 0.715351
v -1.943894 2.541559 0.817479
v -2.503898 2.541559 0.817479
v -1.943894 2.895338 0.817479
v -2.503899 2.895338 1.021733
v -2.503898 2.895338 0.817479
v -1.943894 2.895338 1.021733
v -2.503898 2.541559 0.817479
v -1.943894 2.541559 1.021733
v -1.943894 2.541559 0.817479
v -2.503899 2.541559 1.123860
v -1.943894 2.541559 1.123860
v -2.503898 3.270984 0.024637
v -1.943894 3.094095 -0.077490
v -1.943894 3.270985 0.024637
v -2.503898 3.094095 -0.077490
v -1.943894 2.917205 0.024637
v -2.503898 2.917205 0.024637
v -1.943894 3.270985 0.024637
v -2.503899 3.270984 0.228892
v -2.503898 3.270984 0.024637
v -1.943894 3.270985 0.228892
v -2.503898 2.917205 0.024637
v -1.943894 2.917205 0.228892
v -1.943894 2.917205 0.024637
v -2.503899 2.917205 0.331019
v -1.943894 2.917205 0.331019
v -2.503898 2.541559 0.817479
v -2.503899 2.895338 1.021733
v -2.503899 2.541559 1.123860
v -2.503898 2.718448 0.715351
v -2.503898 2.895338 0.817479
v -2.503898 2.917205 0.024637
v -2.503899 3.270984 0.228892
v -2.503899 2.917205 0.331019
v -2.503898 3.094095 -0.077490
v -2.503898 3.270984 0.024637
v -0.433960 4.075637 -2.999444
v 0.433960 4.075638 -2.712646
v -0.433960 4.075638 -2.712646
v 0.433960 4.075638 -2.999444
v -0.433960 3.861573 -3.213507
v 0.433960 3.667367 -3.213508
v 0.433960 3.861573 -3.213508
v -0.433960 3.667366 -3.213507
v -0.433960 4.075638 -2.712646
v -0.433960 3.861573 -3.213507
v -0.433960 4.075637 -2.999444
v -0.433960 3.667366 -3.213507
v -0.433960 3.667367 -2.712646
v 0.433960 4.075638 -2.999444
v 0.433960 3.667368 -2.712646
v 0.433960 4.075638 -2.712646
v 0.433960 3.667367 -3.213508
v 0.433960 3.861573 -3.213508
v 0.433960 4.075638 -2.712646
v -0.433960 3.667367 -2.712646
v -0.433960 4.075638 -2.712646
v 0.433960 3.667368 -2.712646
v 0.433960 4.075638 -2.999444
v -0.433960 3.861573 -3.213507
v 0.433960 3.861573 -3.213508
v -0.433960 4.075637 -2.999444
v 1.607286 1.227558 -3.037450
v 2.268912 2.760836 -2.421590
v 1.607285 2.760836 -3.037449
v 2.268913 1.227559 -2.421591
v -2.268913 1.227559 -2.421591
v -1.607285 2.760836 -3.037448
v -2.268912 2.760835 -2.421590
v -1.607286 1.227558 -3.037449
v 2.141503 1.227559 -2.284713
v 1.607286 1.227558 -3.037450
v 1.479876 1.227558 -2.900571
v 2.268913 1.227559 -2.421591
v 1.479876 1.227558 -2.900571
v 1.607285 2.760836 -3.037449
v 1.479875 2.760836 -2.900570
v 1.607286 1.227558 -3.037450
v 1.479875 2.760836 -2.900570
v 2.268912 2.760836 -2.421590
v 2.141503 2.760835 -2.284712
v 1.607285 2.760836 -3.037449
v 2.141503 2.760835 -2.284712
v 2.268913 1.227559 -2.421591
v 2.141503 1.227559 -2.284713
v 2.268912 2.760836 -2.421590
v -2.141503 1.227559 -2.284712
v -2.268912 2.760835 -2.421590
v -2.141502 2.760835 -2.284712
v -2.268913 1.227559 -2.421591
v -2.141502 2.760835 -2.284712
v -1.607285 2.760836 -3.037448
v -1.479875 2.760836 -2.900570
v -2.268912 2.760835 -2.421590
v -1.479875 2.760836 -2.900570
v -1.607286 1.227558 -3.037449
v -1.479876 1.227558 -2.900571
v -1.607285 2.760836 -3.037448
v -1.479876 1.227558 -2.900571
v -2.268913 1.227559 -2.421591
v -2.141503 1.227559 -2.284712
v -1.607286 1.227558 -3.037449
v 0.728844 1.945819 1.745932
v 0.933861 2.293785 1.804774
v 0.933861 1.945819 1.745933
v 0.728833 2.293748 1.804822
v 0.933862 2.793627 1.705343
v 0.728832 2.793578 1.705406
v 0.933864 3.217372 1.422203
v 0.728830 3.217312 1.422282
v 0.102530 3.430438 -0.195786
v -0.102519 3.599868 0.498706
v -0.102491 3.430439 -0.195787
v 0.102518 3.599929 0.498628
v 0.102476 3.500505 0.998465
v -0.102559 3.500444 0.998544
v 0.102463 3.217372 1.422203
v -0.102570 3.217312 1.422282
v -0.102566 2.293748 1.804822
v 0.102460 1.945819 1.745933
v -0.102556 1.945819 1.745932
v 0.102460 2.293785 1.804774
v -0.102568 2.793578 1.705406
v 0.102462 2.793627 1.705343
v -0.102570 3.217312 1.422282
v 0.102463 3.217372 1.422203
v -0.728882 3.599929 0.498628
v -0.933911 3.430438 -0.195786
v -0.728870 3.430438 -0.195786
v -0.933920 3.599868 0.498706
v -0.728924 3.500505 0.998465
v -0.933960 3.500444 0.998544
v -0.933971 3.217312 1.422282
v -0.728937 3.217372 1.422203
v -1.662844 3.500505 0.998465
v -1.560338 3.217372 1.422203
v -1.662843 3.217372 1.422203
v -1.560325 3.500505 0.998465
v -1.662844 3.599929 0.498628
v -1.560283 3.599929 0.498628
v -1.560290 3.430438 -0.195786
v -1.662809 3.430438 -0.195781
v -1.662809 3.430438 -0.195781
v -1.662844 3.599929 0.498628
v -1.662810 3.156070 1.004061
v -1.662844 3.500505 0.998465
v -1.662843 3.217372 1.422203
v -1.662843 2.793627 1.705343
v -1.662843 2.293785 1.804774
v -1.662810 1.945819 1.745938
v -1.662810 1.945819 1.745938
v -1.560340 2.293785 1.804774
v -1.560293 1.945819 1.745933
v -1.662843 2.293785 1.804774
v -1.560339 2.793627 1.705343
v -1.662843 2.793627 1.705343
v -1.560338 3.217372 1.422203
v -1.662843 3.217372 1.422203
v -0.933909 1.945819 1.745933
v -0.728939 2.293785 1.804774
v -0.728892 1.945819 1.745933
v -0.933967 2.293748 1.804822
v -0.728938 2.793627 1.705343
v -0.933969 2.793578 1.705406
v -0.728937 3.217372 1.422203
v -0.933971 3.217312 1.422282
v 1.943894 2.895338 1.021733
v 2.503899 2.541559 1.123860
v 1.943894 2.541559 1.123860
v 2.503899 2.895338 1.021733
v 1.943894 3.270985 0.228892
v 2.503899 2.917205 0.331019
v 1.943894 2.917205 0.331019
v 2.503899 3.270984 0.228892
v -1.943894 2.895338 1.021733
v -2.503899 2.541559 1.123860
v -2.503899 2.895338 1.021733
v -1.943894 2.541559 1.123860
v -1.943894 3.270985 0.228892
v -2.503899 2.917205 0.331019
v -2.503899 3.270984 0.228892
v -1.943894 2.917205 0.331019
vn 0.5000 -0.0000 0.8660
vn 0.8660 -0.0000 0.5000
vn 1.0000 -0.0000 -0.0000
vn 0.8660 -0.0000 -0.5000
vn 0.5000 -0.0000 -0.8660
vn 0.4999 -0.0000 0.8661
vn -0.0000 -0.0000 1.0000
vn -0.4999 -0.0000 0.8661
vn -0.5000 -0.0000 0.8660
vn -0.8660 -0.0000 0.5000
vn -1.0000 -0.0000 -0.0000
vn -0.8660 -0.0000 -0.5000
vn -0.5000 -0.0000 -0.8660
vn -0.4999 -0.0000 -0.8661
vn -0.0000 -0.0000 -1.0000
vn 0.4999 -0.0000 -0.8661
vn 1.0000 -0.0000 0.0001
vn 0.7038 -0.0000 -0.7104
vn 0.7699 -0.0000 -0.6382
vn -0.0000 0.5226 0.8526
vn 0.5238 -0.0000 -0.8518
vn 0.3180 -0.0000 -0.9481
vn 0.1136 -0.0000 -0.9935
vn -0.1136 -0.0000 -0.9935
vn -0.3180 -0.0000 -0.9481
vn -0.5238 -0.0000 -0.8518
vn -0.7038 -0.0000 -0.7104
vn -0.0000 0.7071 0.7071
vn -0.0000 0.9239 0.3827
vn -0.0001 0.7071 0.7071
vn -0.0000 0.9998 -0.0215
vn -0.0000 0.9715 -0.2370
vn -0.0001 -0.1669 0.9860
vn -0.0001 0.0143 0.9999
vn -0.0001 0.3827 0.9239
vn 1.0000 0.0001 -0.0000
vn -0.0003 0.9998 -0.0215
vn -0.0001 0.9715 -0.2370
vn -0.0003 0.9998 -0.0216
vn -0.0001 0.9239 0.3826
vn -0.0001 0.9239 0.3827
vn 0.0001 0.7071 0.7071
vn 0.0001 0.7072 0.7070
vn -1.0000 -0.0000 0.0001
vn -0.7699 -0.0000 -0.6382
vn -0.7038 -0.0001 -0.7104
vn 0.9748 -0.0000 -0.2230
vn -0.9748 -0.0000 0.2230
vn -0.0000 1.0000 -0.0000
vn -0.2230 -0.0000 -0.9748
vn -0.0000 -1.0000 -0.0000
vn -0.0000 0.8660 -0.5000
vn -0.0000 -0.8660 -0.5000
vn -0.0000 0.7071 -0.7071
vn 0.6813 -0.0000 -0.7320
vn -0.6813 -0.0000 -0.7320
vn -0.7320 -0.0000 -0.6813
vn 0.7320 -0.0000 0.6813
vn -0.7320 -0.0000 0.6813
vn 0.7320 -0.0000 -0.6813
vn -0.0000 -0.1667 0.9860
vn 0.0002 0.0144 0.9999
vn 0.0001 -0.1668 0.9860
vn 0.0002 0.0143 0.9999
vn 0.0002 0.3827 0.9239
vn 0.0002 0.3826 0.9239
vn -0.0000 0.7070 0.7072
vn -0.0000 0.7072 0.7070
vn -0.0000 -0.1669 0.9860
vn -0.0000 0.9715 -0.2371
vn -0.0001 0.9715 -0.2371
vn -0.0003 0.9998 -0.0214
vn -1.0000 -0.0001 -0.0001
vn -1.0000 -0.0001 -0.0000
vn -1.0000 -0.0000 -0.0001
vn -0.0000 0.0144 0.9999
vn -0.0000 0.3827 0.9239
vn -0.0000 0.2773 0.9608
vn -0.0000 0.2774 0.9608
vt 3.235011 0.505738
vt 3.235011 0.500000
vt 3.244868 0.505738
vt 3.244868 0.500000
vt 3.258332 0.505738
vt 3.258332 0.500000
vt 3.271796 0.505738
vt 3.271796 0.500000
vt 3.281653 0.505738
vt 3.281653 0.500000
vt 0.210251 0.500000
vt 0.210251 0.505738
vt 0.196685 0.500000
vt 0.196685 0.505738
vt 0.183119 0.500000
vt 0.183119 0.505738
vt -2.235011 0.500000
vt -2.235011 0.505738
vt -2.244868 0.500000
vt -2.244868 0.505738
vt -2.258332 0.500000
vt -2.258332 0.505738
vt -2.271796 0.500000
vt -2.271796 0.505738
vt -2.281653 0.500000
vt -2.281653 0.505738
vt 0.816881 0.500000
vt 0.816881 0.505738
vt 0.803315 0.500000
vt 0.803315 0.505738
vt 0.789749 0.500000
vt 0.789749 0.505738
vt 3.283516 0.509786
vt 3.283516 0.555729
vt 3.276875 0.509786
vt 3.276875 0.555729
vt 3.243219 0.547959
vt 3.228230 0.523273
vt 3.228230 0.509786
vt 0.230971 0.523273
vt 0.196685 0.523273
vt 0.230971 0.509786
vt 0.196685 0.509786
vt 0.162400 0.509786
vt 0.162400 0.523273
vt 3.289271 0.555729
vt 3.289271 0.509786
vt 0.221903 0.547959
vt 0.221903 0.529568
vt 0.230971 0.547959
vt 0.220348 0.529568
vt 0.210848 0.529568
vt 0.207739 0.529568
vt 0.198239 0.529568
vt 0.195130 0.529568
vt 0.185631 0.529568
vt 0.182522 0.529568
vt 0.173022 0.529568
vt 0.171467 0.529568
vt 0.162400 0.547959
vt 0.171467 0.547959
vt 0.773834 0.509786
vt 0.780871 0.509786
vt 0.773834 0.555729
vt 0.780871 0.555729
vt 0.789138 0.555729
vt 0.789138 0.509786
vt 0.798586 0.509786
vt 0.798586 0.555729
vt 0.808043 0.555729
vt 0.808043 0.509786
vt 0.817492 0.555729
vt 0.817492 0.509786
vt 0.825758 0.509786
vt 0.825758 0.555729
vt 0.832795 0.555729
vt 0.832795 0.509786
vt 0.221902 3.236923
vt 0.221902 3.243302
vt 0.220348 3.236924
vt 0.220348 3.243302
vt 0.220348 3.250825
vt 0.221902 3.250825
vt 0.221903 3.261279
vt 0.220349 3.261279
vt 0.221903 0.534855
vt 0.220348 0.534855
vt 0.221903 0.542451
vt 0.220348 0.542451
vt 0.221902 0.548890
vt 0.220348 0.548890
vt 3.231165 0.534855
vt 3.232052 0.529568
vt 3.232662 0.542451
vt 3.236923 0.548890
vt 3.243302 0.553192
vt 3.250825 0.554703
vt 3.261279 0.552128
vt 0.207740 3.261279
vt 0.207739 3.250825
vt 0.210849 3.261279
vt 0.210849 3.250827
vt 0.210848 3.243303
vt 0.207739 3.243302
vt 0.207739 3.236924
vt 0.210848 3.236925
vt -2.283516 0.509786
vt -2.276875 0.509786
vt -2.283516 0.555729
vt -2.276875 0.555729
vt -2.243219 0.547959
vt -2.228230 0.523273
vt -2.228230 0.509786
vt -2.289271 0.509786
vt -2.289271 0.555729
vt 3.300863 0.510938
vt 3.300863 0.555445
vt 3.298281 0.510938
vt 3.298281 0.555445
vt -2.298085 0.510938
vt -2.298085 0.555445
vt -2.300667 0.510938
vt -2.300667 0.555445
vt 0.182556 3.298085
vt 0.183417 3.298281
vt 0.181961 3.300667
vt 0.182822 3.300863
vt 3.302855 0.510938
vt 3.302855 0.555445
vt 3.300273 0.510938
vt 3.300273 0.555445
vt -2.300078 0.510938
vt -2.300078 0.555445
vt -2.302660 0.510938
vt -2.302660 0.555445
vt 0.191333 3.300078
vt 0.192194 3.300273
vt 0.190738 3.302660
vt 0.191599 3.302855
vt 0.809262 0.510938
vt 0.809262 0.555445
vt 0.808401 0.510938
vt 0.808401 0.555445
vt 0.818039 0.510938
vt 0.818039 0.555445
vt 0.817178 0.510938
vt 0.817178 0.555445
vt 0.808401 3.302855
vt 0.807806 3.300273
vt 0.809262 3.302660
vt 0.808667 3.300078
vt 0.817178 3.300863
vt 0.816583 3.298281
vt 0.818039 3.300667
vt 0.817444 3.298085
vt 0.220182 3.271796
vt 0.220182 3.244868
vt 0.223817 3.258332
vt 0.210251 3.281653
vt 0.210251 3.235011
vt 0.196685 3.285261
vt 0.196685 3.231403
vt 0.183119 3.281653
vt 0.183119 3.235011
vt 0.173188 3.271796
vt 0.173188 3.244868
vt 0.169553 3.258332
vt 0.773834 0.543997
vt 0.765341 0.543997
vt 0.773834 0.541309
vt 0.765341 0.541309
vt 0.773834 0.538621
vt 0.765341 0.538621
vt 0.226166 3.242953
vt 0.234659 3.242953
vt 0.226166 3.246027
vt 0.234659 3.246027
vt 0.773834 3.246027
vt 0.765341 3.246027
vt 0.773834 3.242953
vt 0.765341 3.241416
vt 0.773834 3.241416
vt 0.773834 0.549705
vt 0.765341 0.549705
vt 0.773834 0.547017
vt 0.765341 0.547017
vt 0.773834 0.544329
vt 0.765341 0.544329
vt 0.226166 3.254887
vt 0.234659 3.254887
vt 0.226166 3.257961
vt 0.234659 3.257961
vt 0.773834 3.257961
vt 0.765341 3.257961
vt 0.773834 3.254887
vt 0.765341 3.253350
vt 0.773834 3.253350
vt 3.241416 0.538621
vt 3.246027 0.538621
vt 3.242953 0.543997
vt 3.247565 0.541309
vt 3.246027 0.543997
vt 3.253350 0.544329
vt 3.257961 0.544329
vt 3.254887 0.549705
vt 3.259498 0.547017
vt 3.257961 0.549705
vt 0.832795 0.543997
vt 0.832795 0.541309
vt 0.841288 0.543997
vt 0.841288 0.541309
vt 0.832795 0.538621
vt 0.841288 0.538621
vt 0.158712 3.246027
vt 0.158712 3.242953
vt 0.167205 3.246027
vt 0.167205 3.242953
vt 0.832795 3.246027
vt 0.832795 3.242953
vt 0.841288 3.246027
vt 0.841288 3.241416
vt 0.832795 3.241416
vt 0.832795 0.549705
vt 0.832795 0.547017
vt 0.841288 0.549705
vt 0.841288 0.547017
vt 0.832795 0.544329
vt 0.841288 0.544329
vt 0.158712 3.257961
vt 0.158712 3.254887
vt 0.167205 3.257961
vt 0.167205 3.254887
vt 0.832795 3.257961
vt 0.832795 3.254887
vt 0.841288 3.257961
vt 0.841288 3.253350
vt 0.832795 3.253350
vt -2.241416 0.538621
vt -2.242953 0.543997
vt -2.246027 0.538621
vt -2.247565 0.541309
vt -2.246027 0.543997
vt -2.253350 0.544329
vt -2.254887 0.549705
vt -2.257961 0.544329
vt -2.259498 0.547017
vt -2.257961 0.549705
vt 0.190104 3.291303
vt 0.203267 3.291303
vt 0.190104 3.295619
vt 0.203267 3.295619
vt 0.796733 0.558680
vt 0.796733 0.555729
vt 0.809896 0.558680
vt 0.809896 0.555729
vt -2.295619 0.561933
vt -2.298842 0.558680
vt -2.291303 0.561933
vt -2.298842 0.555729
vt -2.291303 0.555729
vt 3.291303 0.561933
vt 3.291303 0.555729
vt 3.295619 0.561933
vt 3.298842 0.555729
vt 3.298842 0.558680
vt 0.190104 0.561933
vt 0.190104 0.555729
vt 0.203267 0.561933
vt 0.203267 0.555729
vt 0.203267 3.298842
vt 0.190104 3.298842
vt 0.778939 0.541953
vt 0.768905 0.541953
vt 0.778939 0.518654
vt 0.768905 0.518654
vt 0.837725 0.541953
vt 0.827690 0.541953
vt 0.837725 0.518654
vt 0.827690 0.518654
vt 0.780871 3.294131
vt 0.778939 3.296192
vt 0.770837 3.284861
vt 0.768905 3.286922
vt -2.294131 0.541953
vt -2.296192 0.541953
vt -2.294131 0.518654
vt -2.296192 0.518654
vt 0.229163 3.284861
vt 0.231095 3.286922
vt 0.219129 3.294131
vt 0.221061 3.296192
vt 3.284861 0.518654
vt 3.286922 0.518654
vt 3.284861 0.541953
vt 3.286922 0.541953
vt -2.284861 0.541953
vt -2.286922 0.541953
vt -2.284861 0.518654
vt -2.286922 0.518654
vt 0.174242 3.294131
vt 0.172310 3.296192
vt 0.164208 3.284861
vt 0.162275 3.286922
vt 3.294131 0.518654
vt 3.296192 0.518654
vt 3.294131 0.541953
vt 3.296192 0.541953
vt 0.835792 3.284861
vt 0.837725 3.286922
vt 0.825758 3.294131
vt 0.827690 3.296192
vt 0.210848 0.534856
vt 0.207739 0.534855
vt 0.210848 0.542451
vt 0.207739 0.542451
vt 0.210848 0.548891
vt 0.207739 0.548890
vt 0.195131 3.261279
vt 0.195131 3.250825
vt 0.198240 3.261279
vt 0.198240 3.250827
vt 0.198240 3.243303
vt 0.195130 3.243302
vt 0.198239 3.236925
vt 0.195130 3.236924
vt 0.195130 0.534855
vt 0.198239 0.534856
vt 0.195130 0.542451
vt 0.198239 0.542451
vt 0.195130 0.548890
vt 0.198239 0.548891
vt 0.185631 3.261279
vt 0.182522 3.261279
vt 0.185631 3.250827
vt 0.182522 3.250825
vt 0.185631 3.243303
vt 0.182521 3.243302
vt 0.182521 3.236924
vt 0.185630 3.236925
vt 0.171467 3.236925
vt 0.173022 3.236925
vt 0.171467 3.243303
vt 0.173022 3.243303
vt 0.171467 3.250827
vt 0.173022 3.250827
vt 0.173022 3.261279
vt 0.171468 3.261279
vt -2.250827 0.554704
vt -2.261279 0.552128
vt -2.243303 0.553193
vt -2.236925 0.548891
vt -2.232663 0.542451
vt -2.231166 0.534856
vt -2.232052 0.529568
vt 0.173022 0.534856
vt 0.171467 0.534856
vt 0.173022 0.542451
vt 0.171467 0.542451
vt 0.173022 0.548891
vt 0.171467 0.548891
vt 0.185630 0.534856
vt 0.182521 0.534855
vt 0.185630 0.542451
vt 0.182521 0.542451
vt 0.185630 0.548891
vt 0.182521 0.548890
vt 0.226166 0.538621
vt 0.234659 0.538621
vt 0.226166 0.543997
vt 0.234659 0.543997
vt 0.226166 0.544329
vt 0.234659 0.544329
vt 0.226166 0.549705
vt 0.234659 0.549705
vt 0.158712 0.543997
vt 0.158712 0.538621
vt 0.167205 0.543997
vt 0.167205 0.538621
vt 0.158712 0.549705
vt 0.158712 0.544329
vt 0.167205 0.549705
vt 0.167205 0.544329
s 1
f 3/1/1 2/2/1 1/3/2
f 4/4/2 1/3/2 2/2/1
f 1/3/2 4/4/2 5/5/3
f 6/6/3 5/5/3 4/4/2
f 5/5/3 6/6/3 7/7/4
f 8/8/4 7/7/4 6/6/3
f 7/7/4 8/8/4 9/9/5
f 10/10/5 9/9/5 8/8/4
f 13/11/6 12/12/6 11/13/7
f 14/14/7 11/13/7 12/12/6
f 11/13/7 14/14/7 15/15/8
f 16/16/8 15/15/8 14/14/7
f 19/17/9 18/18/9 17/19/10
f 20/20/10 17/19/10 18/18/9
f 17/19/10 20/20/10 21/21/11
f 22/22/11 21/21/11 20/20/10
f 21/21/11 22/22/11 23/23/12
f 24/24/12 23/23/12 22/22/11
f 23/23/12 24/24/12 25/25/13
f 26/26/13 25/25/13 24/24/12
f 29/27/14 28/28/14 27/29/15
f 30/30/15 27/29/15 28/28/14
f 27/29/15 30/30/15 31/31/16
f 32/32/16 31/31/16 30/30/15
f 35/33/17 34/34/3 33/35/3
f 36/36/3 33/35/3 34/34/3
f 37/37/3 33/35/3 36/36/3
f 38/38/3 33/35/3 37/37/3
f 38/38/3 39/39/3 33/35/3
f 42/40/7 41/41/7 40/42/7
f 43/43/7 40/42/7 41/41/7
f 43/43/7 41/41/7 44/44/7
f 45/45/7 44/44/7 41/41/7
f 48/46/18 47/34/19 46/47/18
f 49/33/19 46/47/18 47/34/19
f 52/48/20 51/49/20 50/50/20
f 53/40/20 50/50/20 51/49/20
f 51/49/20 54/51/20 53/40/20
f 54/51/20 55/52/20 53/40/20
f 56/41/20 53/40/20 55/52/20
f 55/52/20 57/53/20 56/41/20
f 58/54/20 56/41/20 57/53/20
f 59/55/20 56/41/20 58/54/20
f 60/56/20 56/41/20 59/55/20
f 60/56/20 61/57/20 56/41/20
f 56/41/20 61/57/20 62/45/20
f 63/58/20 62/45/20 61/57/20
f 63/58/20 64/59/20 62/45/20
f 62/45/20 64/59/20 65/60/20
f 66/61/20 65/60/20 64/59/20
f 69/62/18 68/63/21 67/64/18
f 70/65/21 67/64/18 68/63/21
f 70/65/21 68/63/21 71/66/22
f 72/67/22 71/66/22 68/63/21
f 72/67/22 73/68/23 71/66/22
f 74/69/23 71/66/22 73/68/23
f 74/69/23 73/68/23 75/70/24
f 76/71/24 75/70/24 73/68/23
f 75/70/24 76/71/24 77/72/25
f 78/73/25 77/72/25 76/71/24
f 78/73/25 79/74/26 77/72/25
f 80/75/26 77/72/25 79/74/26
f 80/75/26 79/74/26 81/76/27
f 82/77/27 81/76/27 79/74/26
f 85/78/28 84/79/29 83/80/30
f 86/81/29 83/80/30 84/79/29
f 86/81/29 84/79/29 87/82/31
f 88/83/31 87/82/31 84/79/29
f 88/83/31 89/84/32 87/82/31
f 90/85/32 87/82/31 89/84/32
f 93/49/33 92/86/34 91/51/33
f 94/87/34 91/51/33 92/86/34
f 92/86/34 95/88/35 94/87/34
f 96/89/35 94/87/34 95/88/35
f 95/88/35 97/90/30 96/89/35
f 98/91/30 96/89/35 97/90/30
f 101/37/3 100/92/3 99/93/3
f 102/94/3 100/92/3 101/37/3
f 103/95/3 102/94/3 101/37/3
f 104/96/3 103/95/3 101/37/3
f 105/97/36 104/96/3 101/37/3
f 106/98/36 105/97/36 101/37/3
f 109/99/32 108/100/37 107/101/38
f 110/102/39 107/101/38 108/100/37
f 110/102/39 108/100/37 111/103/40
f 112/104/41 111/103/40 108/100/37
f 112/104/41 113/105/42 111/103/40
f 114/106/43 111/103/40 113/105/42
f 117/107/44 116/108/11 115/109/11
f 118/110/11 115/109/11 116/108/11
f 116/108/11 119/111/11 118/110/11
f 120/112/11 119/111/11 116/108/11
f 121/113/11 120/112/11 116/108/11
f 124/107/45 123/109/45 122/114/46
f 125/115/27 122/114/46 123/109/45
f 128/116/47 127/117/47 126/118/47
f 129/119/47 126/118/47 127/117/47
f 132/120/48 131/121/48 130/122/48
f 133/123/48 130/122/48 131/121/48
f 136/124/49 135/125/49 134/126/49
f 137/127/49 134/126/49 135/125/49
f 140/128/47 139/129/47 138/130/47
f 141/131/47 138/130/47 139/129/47
f 144/132/48 143/133/48 142/134/48
f 145/135/48 142/134/48 143/133/48
f 148/136/49 147/137/49 146/138/49
f 149/139/49 146/138/49 147/137/49
f 152/140/50 151/141/50 150/142/50
f 153/143/50 150/142/50 151/141/50
f 156/144/50 155/145/50 154/146/50
f 157/147/50 154/146/50 155/145/50
f 160/148/51 159/149/51 158/150/51
f 161/151/51 158/150/51 159/149/51
f 164/152/51 163/153/51 162/154/51
f 165/155/51 162/154/51 163/153/51
f 168/156/49 167/157/49 166/158/49
f 168/156/49 169/159/49 167/157/49
f 170/160/49 167/157/49 169/159/49
f 169/159/49 171/161/49 170/160/49
f 172/162/49 170/160/49 171/161/49
f 171/161/49 173/163/49 172/162/49
f 174/164/49 172/162/49 173/163/49
f 173/163/49 175/165/49 174/164/49
f 176/166/49 174/164/49 175/165/49
f 177/167/49 176/166/49 175/165/49
f 180/168/52 179/169/52 178/170/15
f 181/171/15 178/170/15 179/169/52
f 178/170/15 181/171/15 182/172/53
f 183/173/53 182/172/53 181/171/15
f 186/174/49 185/175/49 184/176/52
f 187/177/52 184/176/52 185/175/49
f 190/178/53 189/179/53 188/180/51
f 189/179/53 191/181/51 188/180/51
f 188/180/51 191/181/51 192/182/51
f 195/183/52 194/184/52 193/185/15
f 196/186/15 193/185/15 194/184/52
f 193/185/15 196/186/15 197/187/53
f 198/188/53 197/187/53 196/186/15
f 201/189/49 200/190/49 199/191/52
f 202/192/52 199/191/52 200/190/49
f 205/193/53 204/194/53 203/195/51
f 204/194/53 206/196/51 203/195/51
f 203/195/51 206/196/51 207/197/51
f 210/198/3 209/199/3 208/200/3
f 209/199/3 211/201/3 208/200/3
f 208/200/3 211/201/3 212/202/3
f 215/203/3 214/204/3 213/205/3
f 214/204/3 216/206/3 213/205/3
f 213/205/3 216/206/3 217/207/3
f 220/208/52 219/209/15 218/210/52
f 221/211/15 218/210/52 219/209/15
f 219/209/15 222/212/53 221/211/15
f 223/213/53 221/211/15 222/212/53
f 226/214/52 225/215/49 224/216/52
f 227/217/49 224/216/52 225/215/49
f 230/218/53 229/219/51 228/220/53
f 228/220/53 229/219/51 231/221/51
f 231/221/51 229/219/51 232/222/51
f 235/223/52 234/224/15 233/225/52
f 236/226/15 233/225/52 234/224/15
f 234/224/15 237/227/53 236/226/15
f 238/228/53 236/226/15 237/227/53
f 241/229/52 240/230/49 239/231/52
f 242/232/49 239/231/52 240/230/49
f 245/233/53 244/234/51 243/235/53
f 243/235/53 244/234/51 246/236/51
f 246/236/51 244/234/51 247/237/51
f 250/238/11 249/239/11 248/240/11
f 248/240/11 249/239/11 251/241/11
f 251/241/11 249/239/11 252/242/11
f 255/243/11 254/244/11 253/245/11
f 253/245/11 254/244/11 256/246/11
f 256/246/11 254/244/11 257/247/11
f 260/248/49 259/249/49 258/250/49
f 261/251/49 258/250/49 259/249/49
f 264/252/15 263/253/15 262/254/15
f 265/255/15 262/254/15 263/253/15
f 268/256/11 267/257/11 266/258/11
f 267/257/11 269/259/11 266/258/11
f 269/259/11 270/260/11 266/258/11
f 273/261/3 272/262/3 271/263/3
f 272/262/3 274/264/3 271/263/3
f 271/263/3 274/264/3 275/265/3
f 278/266/7 277/267/7 276/268/7
f 279/269/7 276/268/7 277/267/7
f 282/270/54 281/271/54 280/251/54
f 283/250/54 280/251/54 281/271/54
f 286/272/55 285/273/55 284/274/55
f 287/275/55 284/274/55 285/273/55
f 290/276/56 289/277/56 288/278/56
f 291/279/56 288/278/56 289/277/56
f 294/280/51 293/281/51 292/282/51
f 295/283/51 292/282/51 293/281/51
f 298/284/57 297/285/57 296/286/57
f 299/287/57 296/286/57 297/285/57
f 302/288/49 301/289/49 300/290/49
f 303/291/49 300/290/49 301/289/49
f 306/292/58 305/293/58 304/294/58
f 307/295/58 304/294/58 305/293/58
f 310/296/59 309/297/59 308/298/59
f 311/299/59 308/298/59 309/297/59
f 314/300/49 313/301/49 312/302/49
f 315/303/49 312/302/49 313/301/49
f 318/304/60 317/305/60 316/306/60
f 319/307/60 316/306/60 317/305/60
f 322/308/51 321/309/51 320/310/51
f 323/311/51 320/310/51 321/309/51
f 326/52/61 325/312/62 324/53/63
f 327/313/64 324/53/63 325/312/62
f 325/312/62 328/314/65 327/313/64
f 329/315/66 327/313/64 328/314/65
f 328/314/65 330/316/42 329/315/66
f 331/317/67 329/315/66 330/316/42
f 334/318/32 333/319/37 332/320/38
f 335/321/39 332/320/38 333/319/37
f 335/321/39 333/319/37 336/322/40
f 337/323/41 336/322/40 333/319/37
f 336/322/40 337/323/41 338/324/68
f 339/325/42 338/324/68 337/323/41
f 342/55/69 341/54/63 340/326/62
f 343/327/62 340/326/62 341/54/63
f 340/326/62 343/327/62 344/328/66
f 345/329/65 344/328/66 343/327/62
f 344/328/66 345/329/65 346/330/67
f 347/331/42 346/330/67 345/329/65
f 350/332/70 349/333/71 348/334/37
f 351/335/72 348/334/37 349/333/71
f 348/334/37 351/335/72 352/336/40
f 353/337/41 352/336/40 351/335/72
f 353/337/41 354/338/42 352/336/40
f 355/339/43 352/336/40 354/338/42
f 358/340/28 357/341/28 356/342/29
f 359/343/29 356/342/29 357/341/28
f 356/342/29 359/343/29 360/344/31
f 361/345/31 360/344/31 359/343/29
f 361/345/31 362/346/70 360/344/31
f 363/347/70 360/344/31 362/346/70
f 366/111/73 365/348/74 364/349/74
f 367/350/74 365/348/74 366/111/73
f 368/351/73 367/350/74 366/111/73
f 369/352/75 368/351/73 366/111/73
f 370/353/73 369/352/75 366/111/73
f 371/354/73 370/353/73 366/111/73
f 374/58/61 373/355/76 372/59/61
f 375/356/76 372/59/61 373/355/76
f 373/355/76 376/357/77 375/356/76
f 377/358/77 375/356/76 376/357/77
f 376/357/77 378/359/28 377/358/77
f 379/360/42 377/358/77 378/359/28
f 382/56/61 381/361/62 380/57/63
f 383/362/64 380/57/63 381/361/62
f 381/361/62 384/363/65 383/362/64
f 385/364/66 383/362/64 384/363/65
f 384/363/65 386/365/42 385/364/66
f 387/366/67 385/364/66 386/365/42
f 390/367/78 389/368/78 388/369/78
f 391/370/78 388/369/78 389/368/78
f 394/371/78 393/372/78 392/373/78
f 395/374/79 392/373/78 393/372/78
f 398/375/78 397/376/78 396/377/78
f 399/378/78 396/377/78 397/376/78
f 402/379/79 401/380/78 400/381/78
f 403/382/78 400/381/78 401/380/78
g Atl_gun_cal125A_x4_top_Atl_gun_cal125A_x4_002.001
v 2.260844 3.667370 -1.231916
v 0.000000 3.667369 -1.231915
v 2.260882 3.667365 -2.195307
v 1.943894 3.667366 -2.577683
v 1.479875 3.667367 -2.955170
v 0.934799 3.667366 -3.198361
v 0.311762 3.667366 -3.342677
v -0.311762 3.667365 -3.342677
v -0.934799 3.667366 -3.198361
v -1.479875 3.667366 -2.955170
v -1.943893 3.667366 -2.577683
v -2.260881 3.667365 -2.195307
v -2.260843 3.667370 -1.231915
v 1.662774 3.430437 -0.195777
v 2.260724 3.156070 1.004060
v 1.662777 3.156070 1.004061
v 2.260844 3.667370 -1.231916
v 1.560310 3.430439 -0.195787
v 0.000000 3.667369 -1.231915
v 0.933931 3.430438 -0.195786
v 0.728909 3.430439 -0.195787
v 0.102530 3.430438 -0.195786
v -0.102491 3.430439 -0.195787
v -0.728870 3.430438 -0.195786
v -0.933911 3.430438 -0.195786
v -1.560290 3.430438 -0.195786
v -2.260843 3.667370 -1.231915
v -1.662809 3.430438 -0.195781
v -2.260724 3.156070 1.004060
v -1.662810 3.156070 1.004061
vn -0.0000 1.0000 -0.0000
vn -0.0000 0.9748 0.2229
vt 0.230974 3.283516
vt 0.196685 3.276875
vt 0.230973 3.276875
vt 0.226166 3.289271
vt 0.219129 3.294953
vt 0.210862 3.298614
vt 0.201414 3.300786
vt 0.191957 3.300786
vt 0.182508 3.298614
vt 0.174242 3.294953
vt 0.167205 3.289271
vt 0.162397 3.283516
vt 0.162398 3.276875
vt 0.221903 3.243219
vt 0.230971 3.243219
vt 0.221903 3.261279
vt 0.220349 3.261279
vt 0.210849 3.261279
vt 0.207740 3.261279
vt 0.198240 3.261279
vt 0.195131 3.261279
vt 0.185631 3.261279
vt 0.182522 3.261279
vt 0.173022 3.261279
vt 0.171468 3.261279
vt 0.162400 3.243219
vt 0.171467 3.243219
s 1
f 406/383/80 405/384/80 404/385/80
f 407/386/80 405/384/80 406/383/80
f 408/387/80 405/384/80 407/386/80
f 409/388/80 405/384/80 408/387/80
f 410/389/80 405/384/80 409/388/80
f 411/390/80 405/384/80 410/389/80
f 405/384/80 411/390/80 412/391/80
f 412/391/80 413/392/80 405/384/80
f 405/384/80 413/392/80 414/393/80
f 405/384/80 414/393/80 415/394/80
f 415/394/80 416/395/80 405/384/80
f 419/396/81 418/397/81 417/398/81
f 420/385/81 417/398/81 418/397/81
f 417/398/81 420/385/81 421/399/81
f 420/385/81 422/384/81 421/399/81
f 423/400/81 421/399/81 422/384/81
f 424/401/81 423/400/81 422/384/81
f 425/402/81 424/401/81 422/384/81
f 426/403/81 425/402/81 422/384/81
f 427/404/81 426/403/81 422/384/81
f 428/405/81 427/404/81 422/384/81
f 428/405/81 422/384/81 429/406/81
f 430/395/81 429/406/81 422/384/81
f 430/395/81 431/407/81 429/406/81
f 430/395/81 432/408/81 431/407/81
f 433/409/81 431/407/81 432/408/81
g Atl_gun_cal125A_x4_floor_Atl_gun_cal125A_x4_002.002
v 2.260833 0.644007 -1.231914
v 0.000000 0.644005 -1.231914
v 2.260702 0.644008 1.999859
v 2.260883 0.644006 -2.195307
v 0.000000 0.644007 1.999860
v 1.943895 0.644005 -2.577684
v -2.260702 0.644008 1.999859
v 1.479876 0.644004 -2.955171
v -2.260833 0.644007 -1.231914
v 0.934800 0.644004 -3.198362
v -2.260882 0.644006 -2.195307
v 0.311763 0.644004 -3.342677
v -1.943894 0.644005 -2.577684
v -0.311763 0.644004 -3.342677
v -1.479876 0.644004 -2.955171
v -0.934800 0.644004 -3.198361
vn -0.0000 -1.0000 -0.0000
vt 0.769029 3.228230
vt 0.803315 3.276875
vt 0.769027 3.276875
vt 0.769027 3.283516
vt 0.803315 3.228230
vt 0.773834 3.289271
vt 0.837600 3.228230
vt 0.780871 3.294953
vt 0.837602 3.276875
vt 0.789138 3.298614
vt 0.837603 3.283516
vt 0.798586 3.300786
vt 0.832795 3.289271
vt 0.808043 3.300786
vt 0.825758 3.294953
vt 0.817492 3.298614
s 1
f 436/410/82 435/411/82 434/412/82
f 434/412/82 435/411/82 437/413/82
f 436/410/82 438/414/82 435/411/82
f 437/413/82 435/411/82 439/415/82
f 438/414/82 440/416/82 435/411/82
f 439/415/82 435/411/82 441/417/82
f 435/411/82 440/416/82 442/418/82
f 441/417/82 435/411/82 443/419/82
f 435/411/82 442/418/82 444/420/82
f 443/419/82 435/411/82 445/421/82
f 435/411/82 444/420/82 446/422/82
f 435/411/82 447/423/82 445/421/82
f 435/411/82 446/422/82 448/424/82
f 435/411/82 449/425/82 447/423/82
f 435/411/82 448/424/82 449/425/82
g Atl_gun_cal125A_x4_inlays_Atl_gun_cal125A_x4_002.003
v 1.560310 3.430439 -0.195787
v 0.933935 1.945822 0.787779
v 0.933931 3.430438 -0.195786
v 1.560314 1.945822 0.787779
v 1.560314 1.945822 0.787779
v 0.933861 1.945819 1.745933
v 0.933935 1.945822 0.787779
v 1.560245 1.945819 1.745932
v 0.933861 1.945819 1.745933
v 0.933861 2.293785 1.804774
v 0.933935 1.945822 0.787779
v 0.933862 2.793627 1.705343
v 0.933864 3.217372 1.422203
v 0.933876 3.500505 0.998465
v 0.933919 3.599929 0.498628
v 0.933931 3.430438 -0.195786
v 1.560310 3.430439 -0.195787
v 1.560281 3.599868 0.498706
v 1.560314 1.945822 0.787779
v 1.560242 3.500444 0.998544
v 1.560230 3.217312 1.422282
v 1.560232 2.793578 1.705406
v 1.560234 2.293748 1.804822
v 1.560245 1.945819 1.745932
v -0.909819 3.179431 -3.328876
v -0.387861 3.229537 -3.448251
v -0.909815 3.229538 -3.328862
v -0.387865 3.179431 -3.448267
v -0.909815 3.229538 -3.328862
v -0.357273 3.229539 -3.314529
v -0.879227 3.229539 -3.195139
v -0.387861 3.229537 -3.448251
v -0.879227 3.179435 -3.195139
v -0.387865 3.179431 -3.448267
v -0.909819 3.179431 -3.328876
v -0.357273 3.179435 -3.314529
v -0.909815 2.862141 -3.328862
v -0.387865 2.912244 -3.448267
v -0.909815 2.912246 -3.328862
v -0.387865 2.862140 -3.448267
v -0.909815 2.912246 -3.328862
v -0.357273 2.912246 -3.314529
v -0.879227 2.912246 -3.195139
v -0.387865 2.912244 -3.448267
v -0.879227 2.862142 -3.195139
v -0.387865 2.862140 -3.448267
v -0.909815 2.862141 -3.328862
v -0.357273 2.862142 -3.314529
v -0.909819 2.544847 -3.328879
v -0.387865 2.594951 -3.448267
v -0.909815 2.594953 -3.328863
v -0.387865 2.544846 -3.448267
v -0.909815 2.594953 -3.328863
v -0.357273 2.594955 -3.314529
v -0.879227 2.594955 -3.195139
v -0.387865 2.594951 -3.448267
v -0.879229 2.544849 -3.195141
v -0.387865 2.544846 -3.448267
v -0.909819 2.544847 -3.328879
v -0.357273 2.544849 -3.314529
v -0.909815 3.496721 -3.328861
v -0.387865 3.546825 -3.448266
v -0.909815 3.546825 -3.328861
v -0.387865 3.496718 -3.448266
v -0.909815 3.546825 -3.328861
v -0.357273 3.546827 -3.314528
v -0.879227 3.546826 -3.195138
v -0.387865 3.546825 -3.448266
v -0.879227 3.496722 -3.195138
v -0.387865 3.496718 -3.448266
v -0.909815 3.496721 -3.328861
v -0.357273 3.496722 -3.314528
v -0.909819 2.219415 -3.328879
v -0.387861 2.269520 -3.448254
v -0.909815 2.269521 -3.328863
v -0.387865 2.219414 -3.448269
v -0.909815 2.269521 -3.328863
v -0.357275 2.269524 -3.314531
v -0.879229 2.269523 -3.195141
v -0.387861 2.269520 -3.448254
v -0.879229 2.219417 -3.195141
v -0.387865 2.219414 -3.448269
v -0.909819 2.219415 -3.328879
v -0.357275 2.219418 -3.314531
v -0.909815 1.902124 -3.328863
v -0.387861 1.952228 -3.448254
v -0.909815 1.952230 -3.328863
v -0.387861 1.902124 -3.448254
v -0.909815 1.952230 -3.328863
v -0.357275 1.952232 -3.314531
v -0.879229 1.952232 -3.195141
v -0.387861 1.952228 -3.448254
v -0.879229 1.902126 -3.195141
v -0.387861 1.902124 -3.448254
v -0.909815 1.902124 -3.328863
v -0.357275 1.902126 -3.314531
v -0.909822 1.584834 -3.328876
v -0.387865 1.634940 -3.448252
v -0.909819 1.634941 -3.328861
v -0.387869 1.584834 -3.448267
v -0.909819 1.634941 -3.328861
v -0.357277 1.634942 -3.314528
v -0.879227 1.634942 -3.195139
v -0.387865 1.634940 -3.448252
v -0.879227 1.584838 -3.195139
v -0.387869 1.584834 -3.448267
v -0.909822 1.584834 -3.328876
v -0.357277 1.584838 -3.314528
v -0.909819 1.267544 -3.328861
v -0.387869 1.317647 -3.448267
v -0.909819 1.317649 -3.328861
v -0.387869 1.267543 -3.448267
v -0.909819 1.317649 -3.328861
v -0.357277 1.317649 -3.314528
v -0.879227 1.317649 -3.195138
v -0.387869 1.317647 -3.448267
v -0.879227 1.267545 -3.195138
v -0.387869 1.267543 -3.448267
v -0.909819 1.267544 -3.328861
v -0.357277 1.267545 -3.314528
v -0.909819 0.950250 -3.328879
v -0.387869 1.000354 -3.448267
v -0.909815 1.000356 -3.328863
v -0.387869 0.950248 -3.448267
v -0.909815 1.000356 -3.328863
v -0.357273 1.000358 -3.314529
v -0.879227 1.000358 -3.195138
v -0.387869 1.000354 -3.448267
v -0.879232 0.950252 -3.195140
v -0.387869 0.950248 -3.448267
v -0.909819 0.950250 -3.328879
v -0.357273 0.950252 -3.314529
v 0.728909 3.430439 -0.195787
v 0.102535 1.945822 0.787779
v 0.102530 3.430438 -0.195786
v 0.728913 1.945822 0.787779
v 0.728844 1.945819 1.745932
v 0.102535 1.945822 0.787779
v 0.728913 1.945822 0.787779
v 0.102460 1.945819 1.745933
v 0.102460 1.945819 1.745933
v 0.102460 2.293785 1.804774
v 0.102535 1.945822 0.787779
v 0.102462 2.793627 1.705343
v 0.102463 3.217372 1.422203
v 0.102476 3.500505 0.998465
v 0.102518 3.599929 0.498628
v 0.102530 3.430438 -0.195786
v 0.728909 3.430439 -0.195787
v 0.728881 3.599868 0.498706
v 0.728913 1.945822 0.787779
v 0.728841 3.500444 0.998544
v 0.728830 3.217312 1.422282
v 0.728832 2.793578 1.705406
v 0.728833 2.293748 1.804822
v 0.728844 1.945819 1.745932
v -0.102491 3.430439 -0.195787
v -0.728865 1.945822 0.787779
v -0.728870 3.430438 -0.195786
v -0.102487 1.945822 0.787779
v -0.102556 1.945819 1.745932
v -0.728865 1.945822 0.787779
v -0.102487 1.945822 0.787779
v -0.728892 1.945819 1.745933
v -0.728892 1.945819 1.745933
v -0.728939 2.293785 1.804774
v -0.728865 1.945822 0.787779
v -0.728938 2.793627 1.705343
v -0.728937 3.217372 1.422203
v -0.728924 3.500505 0.998465
v -0.728882 3.599929 0.498628
v -0.728870 3.430438 -0.195786
v -0.102491 3.430439 -0.195787
v -0.102519 3.599868 0.498706
v -0.102487 1.945822 0.787779
v -0.102559 3.500444 0.998544
v -0.102570 3.217312 1.422282
v -0.102568 2.793578 1.705406
v -0.102566 2.293748 1.804822
v -0.102556 1.945819 1.745932
v -0.933911 3.430438 -0.195786
v -1.560266 1.945822 0.787779
v -1.560290 3.430438 -0.195786
v -0.933887 1.945822 0.787779
v -0.933909 1.945819 1.745933
v -1.560266 1.945822 0.787779
v -0.933887 1.945822 0.787779
v -1.560293 1.945819 1.745933
v -1.560293 1.945819 1.745933
v -1.560340 2.293785 1.804774
v -1.560266 1.945822 0.787779
v -1.560339 2.793627 1.705343
v -1.560338 3.217372 1.422203
v -1.560325 3.500505 0.998465
v -1.560283 3.599929 0.498628
v -1.560290 3.430438 -0.195786
v -0.933911 3.430438 -0.195786
v -0.933920 3.599868 0.498706
v -0.933887 1.945822 0.787779
v -0.933960 3.500444 0.998544
v -0.933971 3.217312 1.422282
v -0.933969 2.793578 1.705406
v -0.933967 2.293748 1.804822
v -0.933909 1.945819 1.745933
vn -0.0000 0.5523 0.8336
vn -0.0000 1.0000 -0.0000
vn 1.0000 -0.0000 0.0001
vn 1.0000 -0.0000 -0.0000
vn -1.0000 -0.0000 -0.0001
vn -1.0000 -0.0000 -0.0000
vn -0.2230 0.0003 -0.9748
vn -0.0000 -1.0000 -0.0000
vn -0.2230 -0.0000 -0.9748
vn 1.0000 0.0001 0.0001
vn 1.0000 0.0001 -0.0000
vn -1.0000 -0.0001 -0.0000
vn -1.0000 -0.0001 -0.0001
vn -1.0000 -0.0002 -0.0000
vt 0.210849 0.552128
vt 0.210849 0.529568
vt 0.220349 0.552128
vt 0.220349 0.529568
vt 0.210849 3.246474
vt 0.210848 3.232052
vt 0.220349 3.246474
vt 0.220348 3.232052
vt 3.246474 0.529568
vt 3.231166 0.534856
vt 3.232052 0.529568
vt 3.232663 0.542451
vt 3.236925 0.548891
vt 3.243303 0.553193
vt 3.250827 0.554704
vt 3.261279 0.552128
vt -2.246474 0.529568
vt -2.250825 0.554703
vt -2.261279 0.552128
vt -2.243302 0.553192
vt -2.236924 0.548890
vt -2.232662 0.542451
vt -2.231166 0.534855
vt -2.232052 0.529568
vt 0.817113 0.549075
vt 0.809197 0.549075
vt 0.817113 0.548314
vt 0.809197 0.548314
vt 0.183351 3.298565
vt 0.191267 3.300362
vt 0.182887 3.300578
vt 0.190803 3.302375
vt 0.817113 3.300578
vt 0.809197 3.302375
vt 0.816649 3.298565
vt 0.808733 3.300362
vt 0.817113 0.544254
vt 0.809197 0.544254
vt 0.817113 0.543492
vt 0.809197 0.543492
vt 0.817113 0.539432
vt 0.809197 0.539432
vt 0.817113 0.538671
vt 0.809197 0.538671
vt 0.817113 0.553897
vt 0.809197 0.553897
vt 0.817113 0.553135
vt 0.809197 0.553135
vt 0.817113 0.534487
vt 0.809197 0.534487
vt 0.817113 0.533726
vt 0.809197 0.533726
vt 0.817113 0.529666
vt 0.809197 0.529666
vt 0.817113 0.528904
vt 0.809197 0.528904
vt 0.817113 0.524844
vt 0.809197 0.524844
vt 0.817113 0.524083
vt 0.809197 0.524083
vt 0.817113 0.520023
vt 0.809197 0.520023
vt 0.817113 0.519261
vt 0.809197 0.519261
vt 0.817113 0.515201
vt 0.809197 0.515201
vt 0.817113 0.514440
vt 0.809197 0.514440
vt 0.198240 0.552128
vt 0.198240 0.529568
vt 0.207740 0.552128
vt 0.207740 0.529568
vt 0.207740 3.246474
vt 0.198240 3.246474
vt 0.207739 3.232052
vt 0.198239 3.232052
vt 0.185631 0.552128
vt 0.185632 0.529568
vt 0.195131 0.552128
vt 0.195131 0.529568
vt 0.195131 3.246474
vt 0.185632 3.246474
vt 0.195130 3.232052
vt 0.185631 3.232052
vt 0.173022 0.552128
vt 0.173023 0.529568
vt 0.182522 0.552128
vt 0.182522 0.529568
vt 0.182522 3.246474
vt 0.173023 3.246474
vt 0.182522 3.232052
vt 0.173022 3.232052
s 1
f 452/426/83 451/427/83 450/428/83
f 453/429/83 450/428/83 451/427/83
f 456/430/84 455/431/84 454/432/84
f 457/433/84 454/432/84 455/431/84
f 460/434/85 459/435/85 458/436/85
f 461/437/85 459/435/85 460/434/85
f 462/438/85 461/437/85 460/434/85
f 463/439/85 462/438/85 460/434/85
f 464/440/86 463/439/85 460/434/85
f 465/441/86 464/440/86 460/434/85
f 468/442/87 467/443/87 466/444/88
f 469/445/87 467/443/87 468/442/87
f 470/446/87 469/445/87 468/442/87
f 471/447/87 470/446/87 468/442/87
f 472/448/87 471/447/87 468/442/87
f 473/449/87 472/448/87 468/442/87
f 476/450/89 475/451/89 474/452/89
f 477/453/89 474/452/89 475/451/89
f 480/454/84 479/455/84 478/456/84
f 481/457/84 478/456/84 479/455/84
f 484/458/90 483/459/90 482/460/90
f 485/461/90 482/460/90 483/459/90
f 488/462/91 487/463/91 486/464/91
f 489/465/91 486/464/91 487/463/91
f 492/454/84 491/455/84 490/456/84
f 493/457/84 490/456/84 491/455/84
f 496/458/90 495/459/90 494/460/90
f 497/461/90 494/460/90 495/459/90
f 500/466/89 499/467/91 498/468/89
f 501/469/91 498/468/89 499/467/91
f 504/454/84 503/455/84 502/456/84
f 505/457/84 502/456/84 503/455/84
f 508/458/90 507/459/90 506/460/90
f 509/461/90 506/460/90 507/459/90
f 512/470/91 511/471/91 510/472/91
f 513/473/91 510/472/91 511/471/91
f 516/454/84 515/455/84 514/456/84
f 517/457/84 514/456/84 515/455/84
f 520/458/90 519/459/90 518/460/90
f 521/461/90 518/460/90 519/459/90
f 524/474/89 523/475/89 522/476/89
f 525/477/89 522/476/89 523/475/89
f 528/454/84 527/455/84 526/456/84
f 529/457/84 526/456/84 527/455/84
f 532/458/90 531/459/90 530/460/90
f 533/461/90 530/460/90 531/459/90
f 536/478/91 535/479/91 534/480/91
f 537/481/91 534/480/91 535/479/91
f 540/454/84 539/455/84 538/456/84
f 541/457/84 538/456/84 539/455/84
f 544/458/90 543/459/90 542/460/90
f 545/461/90 542/460/90 543/459/90
f 548/482/89 547/483/89 546/484/89
f 549/485/89 546/484/89 547/483/89
f 552/454/84 551/455/84 550/456/84
f 553/457/84 550/456/84 551/455/84
f 556/458/90 555/459/90 554/460/90
f 557/461/90 554/460/90 555/459/90
f 560/486/91 559/487/91 558/488/91
f 561/489/91 558/488/91 559/487/91
f 564/454/84 563/455/84 562/456/84
f 565/457/84 562/456/84 563/455/84
f 568/458/90 567/459/90 566/460/90
f 569/461/90 566/460/90 567/459/90
f 572/490/89 571/491/91 570/492/89
f 573/493/91 570/492/89 571/491/91
f 576/454/84 575/455/84 574/456/84
f 577/457/84 574/456/84 575/455/84
f 580/458/90 579/459/90 578/460/90
f 581/461/90 578/460/90 579/459/90
f 584/494/83 583/495/83 582/496/83
f 585/497/83 582/496/83 583/495/83
f 588/498/84 587/499/84 586/500/84
f 589/501/84 586/500/84 587/499/84
f 592/434/85 591/435/85 590/436/85
f 593/437/85 591/435/85 592/434/85
f 594/438/85 593/437/85 592/434/85
f 595/439/85 594/438/85 592/434/85
f 596/440/86 595/439/85 592/434/85
f 597/441/86 596/440/86 592/434/85
f 600/442/87 599/443/87 598/444/88
f 601/445/87 599/443/87 600/442/87
f 602/446/87 601/445/87 600/442/87
f 603/447/87 602/446/87 600/442/87
f 604/448/87 603/447/87 600/442/87
f 605/449/87 604/448/87 600/442/87
f 608/502/83 607/503/83 606/504/83
f 609/505/83 606/504/83 607/503/83
f 612/506/84 611/507/84 610/508/84
f 613/509/84 610/508/84 611/507/84
f 616/434/86 615/435/92 614/436/93
f 617/437/85 615/435/92 616/434/86
f 618/438/85 617/437/85 616/434/86
f 619/439/85 618/438/85 616/434/86
f 620/440/86 619/439/85 616/434/86
f 621/441/86 620/440/86 616/434/86
f 624/442/87 623/443/87 622/444/88
f 625/445/87 623/443/87 624/442/87
f 626/446/87 625/445/87 624/442/87
f 627/447/87 626/446/87 624/442/87
f 628/448/87 627/447/87 624/442/87
f 629/449/87 628/448/87 624/442/87
f 632/510/83 631/511/83 630/512/83
f 633/513/83 630/512/83 631/511/83
f 636/514/84 635/515/84 634/516/84
f 637/517/84 634/516/84 635/515/84
f 640/434/86 639/435/92 638/436/93
f 641/437/85 639/435/92 640/434/86
f 642/438/85 641/437/85 640/434/86
f 643/439/85 642/438/85 640/434/86
f 644/440/86 643/439/85 640/434/86
f 645/441/86 644/440/86 640/434/86
f 648/442/94 647/443/88 646/444/88
f 649/445/87 647/443/88 648/442/94
f 650/446/87 649/445/87 648/442/94
f 651/447/87 650/446/87 648/442/94
f 652/448/95 651/447/87 648/442/94
f 653/449/96 652/448/95 648/442/94
g Atl_gun_cal125A_x4_ring_Atl_gun_cal125A_x4_002.004
v 1.408018 0.644005 0.812920
v 0.812920 0.000000 1.408018
v 0.812920 0.644005 1.408018
v 1.408018 0.000000 0.812920
v 1.625839 0.644005 -0.000000
v 1.625839 0.000000 0.000000
v 1.408018 0.644005 -0.812921
v 1.408018 -0.000000 -0.812921
v 0.812919 0.644005 -1.408019
v 0.812919 -0.000000 -1.408019
v 0.000000 0.000000 1.625839
v 0.812920 0.644005 1.408018
v 0.812920 0.000000 1.408018
v 0.000000 0.644005 1.625839
v -0.812920 0.000000 1.408018
v -0.812920 0.644005 1.408018
v -1.408018 0.000000 0.812920
v -0.812920 0.644005 1.408018
v -0.812920 0.000000 1.408018
v -1.408018 0.644005 0.812920
v -1.625839 0.000000 0.000000
v -1.625839 0.644005 -0.000000
v -1.408019 -0.000000 -0.812919
v -1.408019 0.644005 -0.812919
v -0.812920 -0.000000 -1.408018
v -0.812920 0.644005 -1.408018
v -0.000001 -0.000000 -1.625839
v -0.812920 0.644005 -1.408018
v -0.812920 -0.000000 -1.408018
v -0.000001 0.644005 -1.625839
v 0.812919 -0.000000 -1.408019
v 0.812919 0.644005 -1.408019
vn 0.5000 -0.0000 0.8660
vn 0.5000 0.0001 0.8660
vn 0.8660 -0.0000 0.5000
vn 1.0000 -0.0000 -0.0000
vn 0.8660 -0.0000 -0.5000
vn 0.5000 -0.0000 -0.8660
vn 0.4999 -0.0000 0.8661
vn 0.4999 -0.0001 0.8661
vn -0.0000 -0.0000 1.0000
vn -0.4999 0.0001 0.8661
vn -0.4999 -0.0000 0.8661
vn -0.5000 -0.0000 0.8660
vn -0.5000 0.0001 0.8660
vn -0.8660 -0.0000 0.5000
vn -1.0000 -0.0000 -0.0000
vn -0.8660 -0.0000 -0.5000
vn -0.5000 0.0001 -0.8660
vn -0.5000 -0.0000 -0.8660
vn -0.4999 -0.0000 -0.8661
vn -0.0000 -0.0000 -1.0000
vn 0.4999 -0.0000 -0.8661
vt 3.237138 0.509786
vt 3.237138 0.500000
vt 3.246096 0.509786
vt 3.246096 0.500000
vt 3.258332 0.509786
vt 3.258332 0.500000
vt 3.270568 0.509786
vt 3.270568 0.500000
vt 3.279526 0.509786
vt 3.279526 0.500000
vt 0.209014 0.500000
vt 0.209014 0.509786
vt 0.196685 0.500000
vt 0.196685 0.509786
vt 0.184357 0.500000
vt 0.184357 0.509786
vt -2.237138 0.500000
vt -2.237138 0.509786
vt -2.246096 0.500000
vt -2.246096 0.509786
vt -2.258332 0.500000
vt -2.258332 0.509786
vt -2.270568 0.500000
vt -2.270568 0.509786
vt -2.279526 0.500000
vt -2.279526 0.509786
vt 0.815643 0.500000
vt 0.815643 0.509786
vt 0.803315 0.500000
vt 0.803315 0.509786
vt 0.790986 0.500000
vt 0.790986 0.509786
s 1
f 656/518/97 655/519/98 654/520/99
f 657/521/99 654/520/99 655/519/98
f 654/520/99 657/521/99 658/522/100
f 659/523/100 658/522/100 657/521/99
f 658/522/100 659/523/100 660/524/101
f 661/525/101 660/524/101 659/523/100
f 660/524/101 661/525/101 662/526/102
f 663/527/102 662/526/102 661/525/101
f 666/528/103 665/529/104 664/530/105
f 667/531/105 664/530/105 665/529/104
f 664/530/105 667/531/105 668/532/106
f 669/533/107 668/532/106 667/531/105
f 672/534/108 671/535/109 670/536/110
f 673/537/110 670/536/110 671/535/109
f 670/536/110 673/537/110 674/538/111
f 675/539/111 674/538/111 673/537/110
f 674/538/111 675/539/111 676/540/112
f 677/541/112 676/540/112 675/539/111
f 676/540/112 677/541/112 678/542/113
f 679/543/114 678/542/113 677/541/112
f 682/544/115 681/545/115 680/546/116
f 683/547/116 680/546/116 681/545/115
f 680/546/116 683/547/116 684/548/117
f 685/549/117 684/548/117 683/547/116
