# Blender 4.5.3 LTS
# www.blender.org
mtllib brd_gun_279a_barrel_x4_001.mtl
o brd_gun_279a_barrel_004
v -0.458121 2.815218 2.987675
v -0.618364 3.079515 0.791701
v -0.432405 2.823566 0.791703
v -0.634261 3.057652 2.987675
v -0.919250 3.177279 0.791699
v -0.919260 3.150255 2.987675
v -1.220136 3.079515 0.791699
v -1.204258 3.057652 2.987675
v -1.406094 2.823565 0.791699
v -1.380397 2.815217 2.987675
v -0.432405 2.823566 0.791703
v -0.458120 2.515553 2.987677
v -0.458121 2.815218 2.987675
v -0.432404 2.507196 0.791703
v -0.432404 2.507196 0.791703
v -0.634259 2.273118 2.987677
v -0.458120 2.515553 2.987677
v -0.618362 2.251246 0.791703
v -0.919257 2.180516 2.987677
v -0.919248 2.153483 0.791703
v -1.204255 2.273118 2.987675
v -1.220133 2.251246 0.791703
v -1.380396 2.515551 2.987675
v -1.406093 2.507194 0.791699
v -1.406093 2.507194 0.791699
v -1.380397 2.815217 2.987675
v -1.380396 2.515551 2.987675
v -1.406094 2.823565 0.791699
v -0.602385 2.768553 5.946555
v -0.649456 3.037047 1.534703
v -0.482638 2.807444 1.534703
v -0.723472 2.935215 5.946555
v -0.553558 2.784420 6.093092
v -0.919372 3.124750 1.534703
v -0.693296 2.976753 6.093092
v -0.919396 2.998874 5.946555
v -1.189286 3.037049 1.534703
v -0.919397 3.050215 6.093092
v -1.115317 2.935215 5.946555
v -1.356103 2.807444 1.534703
v -1.145494 2.976753 6.093092
v -1.236404 2.768553 5.946555
v -1.285232 2.784420 6.093090
v -0.602384 2.562548 5.946555
v -0.482638 2.807444 1.534703
v -0.482638 2.523639 1.534705
v -0.602385 2.768553 5.946555
v -0.553558 2.546685 6.093092
v -0.553558 2.784420 6.093092
v -1.236404 2.562548 5.946555
v -1.189283 2.294035 1.534705
v -1.356102 2.523639 1.534705
v -1.115315 2.395885 5.946555
v -1.285232 2.546685 6.093090
v -0.919369 2.206334 1.534705
v -1.145492 2.354352 6.093092
v -0.919394 2.332227 5.946555
v -0.649454 2.294035 1.534705
v -0.919395 2.280889 6.093092
v -0.723471 2.395885 5.946560
v -0.482638 2.523639 1.534705
v -0.693295 2.354352 6.093093
v -0.602384 2.562548 5.946555
v -0.553558 2.546685 6.093092
v -1.236404 2.768553 5.946555
v -1.356102 2.523639 1.534705
v -1.356103 2.807444 1.534703
v -1.236404 2.562548 5.946555
v -1.285232 2.784420 6.093090
v -1.285232 2.546685 6.093090
v -0.634261 3.057652 2.987675
v -0.919263 2.665388 3.276764
v -0.919260 3.150255 2.987675
v -1.204258 3.057652 2.987675
v -1.204258 3.057652 2.987675
v -0.919263 2.665388 3.276764
v -1.380397 2.815217 2.987675
v -1.380396 2.515551 2.987675
v -1.204255 2.273118 2.987675
v -0.634259 2.273118 2.987677
v -0.458120 2.515553 2.987677
v -0.458121 2.815218 2.987675
v -0.634261 3.057652 2.987675
v -1.204255 2.273118 2.987675
v -0.919263 2.665388 3.276764
v -0.919257 2.180516 2.987677
v -0.634259 2.273118 2.987677
v -0.338254 2.854165 0.994818
v -0.540150 3.187163 -1.201157
v -0.305854 2.864683 -1.201156
v -0.560179 3.159616 0.994819
v -0.919249 3.310340 -1.201158
v -0.919261 3.276291 0.994819
v -1.298346 3.187163 -1.201158
v -1.278340 3.159616 0.994819
v -1.532642 2.864681 -1.201158
v -1.500265 2.854164 0.994818
v -0.305854 2.864683 -1.201156
v -0.338253 2.476605 0.994820
v -0.338254 2.854165 0.994818
v -0.305852 2.466075 -1.201156
v -0.305852 2.466075 -1.201156
v -0.560176 2.171152 0.994820
v -0.338253 2.476605 0.994820
v -0.540148 2.143595 -1.201156
v -0.919257 2.054479 0.994820
v -0.919246 2.020419 -1.201156
v -1.278337 2.171152 0.994818
v -1.298342 2.143595 -1.201156
v -1.500264 2.476603 0.994818
v -1.532641 2.466074 -1.201158
v -1.532641 2.466074 -1.201158
v -1.500265 2.854164 0.994818
v -1.500264 2.476603 0.994818
v -1.532642 2.864681 -1.201158
v -0.560179 3.159616 0.994819
v -0.919265 2.665388 1.283907
v -0.919261 3.276291 0.994819
v -1.278340 3.159616 0.994819
v -1.278340 3.159616 0.994819
v -0.919265 2.665388 1.283907
v -1.500265 2.854164 0.994818
v -1.500264 2.476603 0.994818
v -1.278337 2.171152 0.994818
v -0.560176 2.171152 0.994820
v -0.338253 2.476605 0.994820
v -0.338254 2.854165 0.994818
v -0.560179 3.159616 0.994819
v -1.278337 2.171152 0.994818
v -0.919265 2.665388 1.283907
v -0.919257 2.054479 0.994820
v -0.560176 2.171152 0.994820
v -0.790113 2.838466 6.138408
v -0.919397 3.050215 6.093092
v -0.693296 2.976753 6.093092
v -0.917570 2.879879 6.138408
v -0.711340 2.730047 6.138412
v -1.145494 2.976753 6.093092
v -0.553558 2.784420 6.093092
v -1.045025 2.838466 6.138408
v -0.711340 2.596031 6.138412
v -1.285232 2.784420 6.093090
v -0.553558 2.546685 6.093092
v -1.123798 2.730047 6.138408
v -0.790112 2.487609 6.138412
v -1.285232 2.546685 6.093090
v -0.693295 2.354352 6.093093
v -1.123797 2.596031 6.138408
v -0.917569 2.446197 6.138412
v -1.145492 2.354352 6.093092
v -0.919395 2.280889 6.093092
v -1.045025 2.487609 6.138412
v -0.711340 2.730047 6.138412
v -0.711340 2.596031 6.138412
v -0.919369 2.665541 3.486766
v -1.123797 2.596031 6.138408
v -1.123798 2.730047 6.138408
v -0.919369 2.665541 3.486766
v -0.790113 2.838466 6.138408
v -0.711340 2.730047 6.138412
v -0.919369 2.665541 3.486766
v -0.917570 2.879879 6.138408
v -1.045025 2.838466 6.138408
v -1.123798 2.730047 6.138408
v -0.711340 2.596031 6.138412
v -0.790112 2.487609 6.138412
v -0.919369 2.665541 3.486766
v -0.917569 2.446197 6.138412
v -1.045025 2.487609 6.138412
v -1.123797 2.596031 6.138408
v 1.423456 2.815218 2.987675
v 1.263213 3.079515 0.791701
v 1.449171 2.823566 0.791703
v 1.247316 3.057652 2.987675
v 0.962326 3.177279 0.791699
v 0.962317 3.150255 2.987675
v 0.661440 3.079515 0.791699
v 0.677319 3.057652 2.987675
v 0.475482 2.823565 0.791699
v 0.501180 2.815217 2.987675
v 1.449171 2.823566 0.791703
v 1.423457 2.515553 2.987677
v 1.423456 2.815218 2.987675
v 1.449172 2.507196 0.791703
v 1.449172 2.507196 0.791703
v 1.247318 2.273118 2.987677
v 1.423457 2.515553 2.987677
v 1.263214 2.251246 0.791703
v 0.962319 2.180516 2.987677
v 0.962329 2.153483 0.791703
v 0.677322 2.273118 2.987675
v 0.661443 2.251246 0.791703
v 0.501180 2.515551 2.987675
v 0.475483 2.507194 0.791699
v 0.475483 2.507194 0.791699
v 0.501180 2.815217 2.987675
v 0.501180 2.515551 2.987675
v 0.475482 2.823565 0.791699
v 1.279191 2.768553 5.946555
v 1.232120 3.037047 1.534703
v 1.398938 2.807444 1.534703
v 1.158105 2.935215 5.946555
v 1.328018 2.784420 6.093092
v 0.962204 3.124750 1.534703
v 1.188281 2.976753 6.093092
v 0.962180 2.998874 5.946555
v 0.692290 3.037049 1.534703
v 0.962179 3.050215 6.093092
v 0.766260 2.935215 5.946555
v 0.525474 2.807444 1.534703
v 0.736082 2.976753 6.093092
v 0.645172 2.768553 5.946555
v 0.596344 2.784420 6.093090
v 1.279192 2.562548 5.946555
v 1.398938 2.807444 1.534703
v 1.398938 2.523639 1.534705
v 1.279191 2.768553 5.946555
v 1.328019 2.546685 6.093092
v 1.328018 2.784420 6.093092
v 0.645172 2.562548 5.946555
v 0.692294 2.294035 1.534705
v 0.525474 2.523639 1.534705
v 0.766262 2.395885 5.946555
v 0.596345 2.546685 6.093090
v 0.962207 2.206334 1.534705
v 0.736085 2.354352 6.093092
v 0.962182 2.332227 5.946555
v 1.232122 2.294035 1.534705
v 0.962182 2.280889 6.093092
v 1.158105 2.395885 5.946560
v 1.398938 2.523639 1.534705
v 1.188281 2.354352 6.093093
v 1.279192 2.562548 5.946555
v 1.328019 2.546685 6.093092
v 0.645172 2.768553 5.946555
v 0.525474 2.523639 1.534705
v 0.525474 2.807444 1.534703
v 0.645172 2.562548 5.946555
v 0.596344 2.784420 6.093090
v 0.596345 2.546685 6.093090
v 1.247316 3.057652 2.987675
v 0.962314 2.665388 3.276764
v 0.962317 3.150255 2.987675
v 0.677319 3.057652 2.987675
v 0.677319 3.057652 2.987675
v 0.962314 2.665388 3.276764
v 0.501180 2.815217 2.987675
v 0.501180 2.515551 2.987675
v 0.677322 2.273118 2.987675
v 1.247318 2.273118 2.987677
v 1.423457 2.515553 2.987677
v 1.423456 2.815218 2.987675
v 1.247316 3.057652 2.987675
v 0.677322 2.273118 2.987675
v 0.962314 2.665388 3.276764
v 0.962319 2.180516 2.987677
v 1.247318 2.273118 2.987677
v 1.543323 2.854165 0.994818
v 1.341426 3.187163 -1.201157
v 1.575723 2.864683 -1.201156
v 1.321397 3.159616 0.994819
v 0.962327 3.310340 -1.201158
v 0.962316 3.276291 0.994819
v 0.583230 3.187163 -1.201158
v 0.603236 3.159616 0.994819
v 0.348935 2.864681 -1.201158
v 0.381312 2.854164 0.994818
v 1.575723 2.864683 -1.201156
v 1.543324 2.476605 0.994820
v 1.543323 2.854165 0.994818
v 1.575724 2.466075 -1.201156
v 1.575724 2.466075 -1.201156
v 1.321400 2.171152 0.994820
v 1.543324 2.476605 0.994820
v 1.341429 2.143595 -1.201156
v 0.962319 2.054479 0.994820
v 0.962330 2.020419 -1.201156
v 0.603240 2.171152 0.994818
v 0.583234 2.143595 -1.201156
v 0.381312 2.476603 0.994818
v 0.348936 2.466074 -1.201158
v 0.348936 2.466074 -1.201158
v 0.381312 2.854164 0.994818
v 0.381312 2.476603 0.994818
v 0.348935 2.864681 -1.201158
v 1.321397 3.159616 0.994819
v 0.962312 2.665388 1.283907
v 0.962316 3.276291 0.994819
v 0.603236 3.159616 0.994819
v 0.603236 3.159616 0.994819
v 0.962312 2.665388 1.283907
v 0.381312 2.854164 0.994818
v 0.381312 2.476603 0.994818
v 0.603240 2.171152 0.994818
v 1.321400 2.171152 0.994820
v 1.543324 2.476605 0.994820
v 1.543323 2.854165 0.994818
v 1.321397 3.159616 0.994819
v 0.603240 2.171152 0.994818
v 0.962312 2.665388 1.283907
v 0.962319 2.054479 0.994820
v 1.321400 2.171152 0.994820
v 1.091464 2.838466 6.138408
v 0.962179 3.050215 6.093092
v 1.188281 2.976753 6.093092
v 0.964007 2.879879 6.138408
v 1.170237 2.730047 6.138412
v 0.736082 2.976753 6.093092
v 1.328018 2.784420 6.093092
v 0.836551 2.838466 6.138408
v 1.170237 2.596031 6.138412
v 0.596344 2.784420 6.093090
v 1.328019 2.546685 6.093092
v 0.757779 2.730047 6.138408
v 1.091464 2.487609 6.138412
v 0.596345 2.546685 6.093090
v 1.188281 2.354352 6.093093
v 0.757779 2.596031 6.138408
v 0.964008 2.446197 6.138412
v 0.736085 2.354352 6.093092
v 0.962182 2.280889 6.093092
v 0.836552 2.487609 6.138412
v 1.170237 2.730047 6.138412
v 1.170237 2.596031 6.138412
v 0.962207 2.665541 3.486766
v 0.757779 2.596031 6.138408
v 0.757779 2.730047 6.138408
v 0.962207 2.665541 3.486766
v 1.091464 2.838466 6.138408
v 1.170237 2.730047 6.138412
v 0.962207 2.665541 3.486766
v 0.964007 2.879879 6.138408
v 0.836551 2.838466 6.138408
v 0.757779 2.730047 6.138408
v 1.170237 2.596031 6.138412
v 1.091464 2.487609 6.138412
v 0.962207 2.665541 3.486766
v 0.964008 2.446197 6.138412
v 0.836552 2.487609 6.138412
v 0.757779 2.596031 6.138408
v 1.423456 4.089711 1.516554
v 1.263213 4.354007 -0.679420
v 1.449171 4.098059 -0.679418
v 1.247316 4.332144 1.516554
v 0.962326 4.451771 -0.679422
v 0.962317 4.424747 1.516554
v 0.661440 4.354007 -0.679422
v 0.677319 4.332144 1.516554
v 0.475482 4.098057 -0.679422
v 0.501180 4.089709 1.516554
v 1.449171 4.098059 -0.679418
v 1.423457 3.790045 1.516557
v 1.423456 4.089711 1.516554
v 1.449172 3.781688 -0.679418
v 1.449172 3.781688 -0.679418
v 1.247318 3.547610 1.516557
v 1.423457 3.790045 1.516557
v 1.263214 3.525739 -0.679417
v 0.962319 3.455009 1.516557
v 0.962329 3.427975 -0.679418
v 0.677322 3.547610 1.516554
v 0.661443 3.525739 -0.679417
v 0.501180 3.790044 1.516554
v 0.475483 3.781686 -0.679422
v 0.475483 3.781686 -0.679422
v 0.501180 4.089709 1.516554
v 0.501180 3.790044 1.516554
v 0.475482 4.098057 -0.679422
v 1.279191 4.043046 4.475433
v 1.232120 4.311540 0.063582
v 1.398938 4.081936 0.063582
v 1.158105 4.209707 4.475433
v 1.328018 4.058911 4.621971
v 0.962204 4.399242 0.063582
v 1.188281 4.251245 4.621971
v 0.962180 4.273366 4.475433
v 0.692290 4.311541 0.063582
v 0.962179 4.324708 4.621971
v 0.766260 4.209709 4.475433
v 0.525474 4.081936 0.063582
v 0.736082 4.251245 4.621971
v 0.645172 4.043046 4.475433
v 0.596344 4.058911 4.621969
v 1.279192 3.837040 4.475433
v 1.398938 4.081936 0.063582
v 1.398938 3.798131 0.063584
v 1.279191 4.043046 4.475433
v 1.328019 3.821177 4.621971
v 1.328018 4.058911 4.621971
v 0.645172 3.837040 4.475433
v 0.692294 3.568527 0.063585
v 0.525474 3.798131 0.063584
v 0.766262 3.670378 4.475433
v 0.596345 3.821176 4.621969
v 0.962207 3.480826 0.063584
v 0.736085 3.628844 4.621971
v 0.962182 3.606719 4.475433
v 1.232122 3.568527 0.063585
v 0.962182 3.555380 4.621971
v 1.158105 3.670378 4.475439
v 1.398938 3.798131 0.063584
v 1.188281 3.628844 4.621972
v 1.279192 3.837040 4.475433
v 1.328019 3.821177 4.621971
v 0.645172 4.043046 4.475433
v 0.525474 3.798131 0.063584
v 0.525474 4.081936 0.063582
v 0.645172 3.837040 4.475433
v 0.596344 4.058911 4.621969
v 0.596345 3.821176 4.621969
v 1.247316 4.332144 1.516554
v 0.962314 3.939881 1.805644
v 0.962317 4.424747 1.516554
v 0.677319 4.332144 1.516554
v 0.677319 4.332144 1.516554
v 0.962314 3.939881 1.805644
v 0.501180 4.089709 1.516554
v 0.501180 3.790044 1.516554
v 0.677322 3.547610 1.516554
v 1.247318 3.547610 1.516557
v 1.423457 3.790045 1.516557
v 1.423456 4.089711 1.516554
v 1.247316 4.332144 1.516554
v 0.677322 3.547610 1.516554
v 0.962314 3.939881 1.805644
v 0.962319 3.455009 1.516557
v 1.247318 3.547610 1.516557
v 1.543323 4.128657 -0.476303
v 1.341426 4.461656 -2.672277
v 1.575723 4.139175 -2.672276
v 1.321397 4.434108 -0.476302
v 0.962327 4.584832 -2.672279
v 0.962316 4.550783 -0.476302
v 0.583230 4.461656 -2.672279
v 0.603236 4.434108 -0.476302
v 0.348935 4.139174 -2.672278
v 0.381312 4.128656 -0.476303
v 1.575723 4.139175 -2.672276
v 1.543324 3.751097 -0.476301
v 1.543323 4.128657 -0.476303
v 1.575724 3.740568 -2.672276
v 1.575724 3.740568 -2.672276
v 1.321400 3.445644 -0.476301
v 1.543324 3.751097 -0.476301
v 1.341429 3.418088 -2.672277
v 0.962319 3.328971 -0.476301
v 0.962330 3.294911 -2.672276
v 0.603240 3.445644 -0.476302
v 0.583234 3.418088 -2.672277
v 0.381312 3.751095 -0.476303
v 0.348936 3.740566 -2.672278
v 0.348936 3.740566 -2.672278
v 0.381312 4.128656 -0.476303
v 0.381312 3.751095 -0.476303
v 0.348935 4.139174 -2.672278
v 1.321397 4.434108 -0.476302
v 0.962312 3.939881 -0.187213
v 0.962316 4.550783 -0.476302
v 0.603236 4.434108 -0.476302
v 0.603236 4.434108 -0.476302
v 0.962312 3.939881 -0.187213
v 0.381312 4.128656 -0.476303
v 0.381312 3.751095 -0.476303
v 0.603240 3.445644 -0.476302
v 1.321400 3.445644 -0.476301
v 1.543324 3.751097 -0.476301
v 1.543323 4.128657 -0.476303
v 1.321397 4.434108 -0.476302
v 0.603240 3.445644 -0.476302
v 0.962312 3.939881 -0.187213
v 0.962319 3.328971 -0.476301
v 1.321400 3.445644 -0.476301
v 1.091464 4.112958 4.667287
v 0.962179 4.324708 4.621971
v 1.188281 4.251245 4.621971
v 0.964007 4.154373 4.667287
v 1.170237 4.004539 4.667291
v 0.736082 4.251245 4.621971
v 1.328018 4.058911 4.621971
v 0.836551 4.112958 4.667287
v 1.170237 3.870523 4.667291
v 0.596344 4.058911 4.621969
v 1.328019 3.821177 4.621971
v 0.757779 4.004539 4.667287
v 1.091464 3.762101 4.667291
v 0.596345 3.821176 4.621969
v 1.188281 3.628844 4.621972
v 0.757779 3.870523 4.667287
v 0.964008 3.720688 4.667291
v 0.736085 3.628844 4.621971
v 0.962182 3.555380 4.621971
v 0.836552 3.762101 4.667291
v 1.170237 4.004539 4.667291
v 1.170237 3.870523 4.667291
v 0.962207 3.940033 2.015645
v 0.757779 3.870523 4.667287
v 0.757779 4.004539 4.667287
v 0.962207 3.940033 2.015645
v 1.091464 4.112958 4.667287
v 1.170237 4.004539 4.667291
v 0.962207 3.940033 2.015645
v 0.964007 4.154373 4.667287
v 0.836551 4.112958 4.667287
v 0.757779 4.004539 4.667287
v 1.170237 3.870523 4.667291
v 1.091464 3.762101 4.667291
v 0.962207 3.940033 2.015645
v 0.964008 3.720688 4.667291
v 0.836552 3.762101 4.667291
v 0.757779 3.870523 4.667287
v -0.458121 4.089711 1.516554
v -0.618364 4.354007 -0.679420
v -0.432405 4.098059 -0.679418
v -0.634260 4.332144 1.516554
v -0.919250 4.451771 -0.679422
v -0.919259 4.424747 1.516554
v -1.220136 4.354007 -0.679422
v -1.204258 4.332144 1.516554
v -1.406094 4.098057 -0.679422
v -1.380397 4.089709 1.516554
v -0.432405 4.098059 -0.679418
v -0.458120 3.790045 1.516557
v -0.458121 4.089711 1.516554
v -0.432404 3.781688 -0.679418
v -0.432404 3.781688 -0.679418
v -0.634259 3.547610 1.516557
v -0.458120 3.790045 1.516557
v -0.618362 3.525739 -0.679417
v -0.919257 3.455009 1.516557
v -0.919248 3.427975 -0.679418
v -1.204255 3.547610 1.516554
v -1.220133 3.525739 -0.679417
v -1.380396 3.790044 1.516554
v -1.406093 3.781686 -0.679422
v -1.406093 3.781686 -0.679422
v -1.380397 4.089709 1.516554
v -1.380396 3.790044 1.516554
v -1.406094 4.098057 -0.679422
v -0.602385 4.043046 4.475433
v -0.649456 4.311540 0.063582
v -0.482638 4.081936 0.063582
v -0.723472 4.209707 4.475433
v -0.553558 4.058911 4.621971
v -0.919372 4.399242 0.063582
v -0.693296 4.251245 4.621971
v -0.919396 4.273366 4.475433
v -1.189286 4.311541 0.063582
v -0.919397 4.324708 4.621971
v -1.115317 4.209709 4.475433
v -1.356103 4.081936 0.063582
v -1.145494 4.251245 4.621971
v -1.236404 4.043046 4.475433
v -1.285232 4.058911 4.621969
v -0.602384 3.837040 4.475433
v -0.482638 4.081936 0.063582
v -0.482638 3.798131 0.063584
v -0.602385 4.043046 4.475433
v -0.553558 3.821177 4.621971
v -0.553558 4.058911 4.621971
v -1.236404 3.837040 4.475433
v -1.189283 3.568527 0.063585
v -1.356102 3.798131 0.063584
v -1.115314 3.670378 4.475433
v -1.285232 3.821176 4.621969
v -0.919369 3.480826 0.063584
v -1.145492 3.628844 4.621971
v -0.919394 3.606719 4.475433
v -0.649454 3.568527 0.063585
v -0.919394 3.555380 4.621971
v -0.723471 3.670378 4.475439
v -0.482638 3.798131 0.063584
v -0.693295 3.628844 4.621972
v -0.602384 3.837040 4.475433
v -0.553558 3.821177 4.621971
v -1.236404 4.043046 4.475433
v -1.356102 3.798131 0.063584
v -1.356103 4.081936 0.063582
v -1.236404 3.837040 4.475433
v -1.285232 4.058911 4.621969
v -1.285232 3.821176 4.621969
v -0.634260 4.332144 1.516554
v -0.919263 3.939881 1.805644
v -0.919259 4.424747 1.516554
v -1.204258 4.332144 1.516554
v -1.204258 4.332144 1.516554
v -0.919263 3.939881 1.805644
v -1.380397 4.089709 1.516554
v -1.380396 3.790044 1.516554
v -1.204255 3.547610 1.516554
v -0.634259 3.547610 1.516557
v -0.458120 3.790045 1.516557
v -0.458121 4.089711 1.516554
v -0.634260 4.332144 1.516554
v -1.204255 3.547610 1.516554
v -0.919263 3.939881 1.805644
v -0.919257 3.455009 1.516557
v -0.634259 3.547610 1.516557
v -0.338254 4.128657 -0.476303
v -0.540150 4.461656 -2.672277
v -0.305853 4.139175 -2.672276
v -0.560179 4.434108 -0.476302
v -0.919249 4.584832 -2.672279
v -0.919261 4.550783 -0.476302
v -1.298346 4.461656 -2.672279
v -1.278340 4.434108 -0.476302
v -1.532642 4.139174 -2.672278
v -1.500264 4.128656 -0.476303
v -0.305853 4.139175 -2.672276
v -0.338252 3.751097 -0.476301
v -0.338254 4.128657 -0.476303
v -0.305852 3.740568 -2.672276
v -0.305852 3.740568 -2.672276
v -0.560176 3.445644 -0.476301
v -0.338252 3.751097 -0.476301
v -0.540148 3.418088 -2.672277
v -0.919257 3.328971 -0.476301
v -0.919246 3.294911 -2.672276
v -1.278337 3.445644 -0.476302
v -1.298342 3.418088 -2.672277
v -1.500264 3.751095 -0.476303
v -1.532641 3.740566 -2.672278
v -1.532641 3.740566 -2.672278
v -1.500264 4.128656 -0.476303
v -1.500264 3.751095 -0.476303
v -1.532642 4.139174 -2.672278
v -0.560179 4.434108 -0.476302
v -0.919264 3.939881 -0.187213
v -0.919261 4.550783 -0.476302
v -1.278340 4.434108 -0.476302
v -1.278340 4.434108 -0.476302
v -0.919264 3.939881 -0.187213
v -1.500264 4.128656 -0.476303
v -1.500264 3.751095 -0.476303
v -1.278337 3.445644 -0.476302
v -0.560176 3.445644 -0.476301
v -0.338252 3.751097 -0.476301
v -0.338254 4.128657 -0.476303
v -0.560179 4.434108 -0.476302
v -1.278337 3.445644 -0.476302
v -0.919264 3.939881 -0.187213
v -0.919257 3.328971 -0.476301
v -0.560176 3.445644 -0.476301
v -0.790112 4.112958 4.667287
v -0.919397 4.324708 4.621971
v -0.693296 4.251245 4.621971
v -0.917570 4.154373 4.667287
v -0.711340 4.004539 4.667291
v -1.145494 4.251245 4.621971
v -0.553558 4.058911 4.621971
v -1.045025 4.112958 4.667287
v -0.711340 3.870523 4.667291
v -1.285232 4.058911 4.621969
v -0.553558 3.821177 4.621971
v -1.123797 4.004539 4.667287
v -0.790112 3.762101 4.667291
v -1.285232 3.821176 4.621969
v -0.693295 3.628844 4.621972
v -1.123797 3.870523 4.667287
v -0.917569 3.720688 4.667291
v -1.145492 3.628844 4.621971
v -0.919394 3.555380 4.621971
v -1.045025 3.762101 4.667291
v -0.711340 4.004539 4.667291
v -0.711340 3.870523 4.667291
v -0.919369 3.940033 2.015645
v -1.123797 3.870523 4.667287
v -1.123797 4.004539 4.667287
v -0.919369 3.940033 2.015645
v -0.790112 4.112958 4.667287
v -0.711340 4.004539 4.667291
v -0.919369 3.940033 2.015645
v -0.917570 4.154373 4.667287
v -1.045025 4.112958 4.667287
v -1.123797 4.004539 4.667287
v -0.711340 3.870523 4.667291
v -0.790112 3.762101 4.667291
v -0.919369 3.940033 2.015645
v -0.917569 3.720688 4.667291
v -1.045025 3.762101 4.667291
v -1.123797 3.870523 4.667287
vn 0.9510 0.3090 0.0123
vn 0.5877 0.8090 0.0123
vn -0.0000 0.9999 0.0123
vn -0.5877 0.8090 0.0123
vn -0.9510 0.3090 0.0123
vn 0.9510 -0.3089 0.0123
vn 0.9510 -0.3090 0.0123
vn 0.5877 -0.8090 0.0123
vn -0.0000 -0.9999 0.0123
vn -0.5877 -0.8090 0.0123
vn -0.9510 -0.3090 0.0123
vn -0.9510 0.3089 0.0123
vn 0.9507 0.3089 0.0285
vn 0.5875 0.8087 0.0285
vn 0.9389 0.3051 -0.1593
vn 0.5803 0.7987 -0.1593
vn 0.8975 0.2918 -0.3307
vn -0.0000 0.9996 0.0285
vn 0.5547 0.7635 -0.3307
vn -0.0000 0.9872 -0.1594
vn -0.5875 0.8087 0.0285
vn -0.0000 0.9438 -0.3307
vn -0.5803 0.7987 -0.1594
vn -0.9507 0.3089 0.0285
vn -0.5547 0.7635 -0.3307
vn -0.9389 0.3051 -0.1594
vn -0.8975 0.2917 -0.3307
vn 0.9507 -0.3088 0.0285
vn 0.9390 -0.3050 -0.1593
vn 0.9389 0.3050 -0.1594
vn 0.8976 -0.2915 -0.3307
vn 0.8976 0.2916 -0.3306
vn -0.9507 -0.3089 0.0285
vn -0.5875 -0.8087 0.0285
vn -0.9389 -0.3052 -0.1593
vn -0.5803 -0.7987 -0.1593
vn -0.8975 -0.2918 -0.3307
vn -0.0000 -0.9996 0.0285
vn -0.5547 -0.7635 -0.3306
vn -0.0000 -0.9872 -0.1593
vn 0.5875 -0.8087 0.0285
vn -0.0000 -0.9438 -0.3306
vn 0.5803 -0.7987 -0.1593
vn 0.9507 -0.3089 0.0285
vn 0.5547 -0.7635 -0.3306
vn 0.9389 -0.3051 -0.1593
vn 0.8976 -0.2917 -0.3306
vn -0.9507 0.3088 0.0285
vn -0.9390 0.3050 -0.1593
vn -0.9389 -0.3050 -0.1594
vn -0.8976 0.2916 -0.3307
vn -0.8976 -0.2916 -0.3307
vn -0.0000 0.5121 0.8589
vn -0.0000 -0.0000 1.0000
vn 0.3010 0.4143 0.8589
vn -0.3010 0.4143 0.8589
vn -0.4870 0.1583 0.8589
vn -0.4870 -0.1583 0.8589
vn -0.3010 -0.4143 0.8589
vn 0.4870 -0.1582 0.8589
vn 0.3010 -0.4143 0.8589
vn 0.4870 0.1583 0.8589
vn -0.0000 -0.5121 0.8589
vn -0.3010 -0.4144 0.8589
vn 0.9509 0.3091 0.0155
vn 0.5877 0.8089 0.0155
vn -0.0000 0.9999 0.0155
vn -0.5877 0.8089 0.0155
vn -0.9509 0.3091 0.0155
vn 0.9510 0.3090 0.0155
vn 0.9510 -0.3089 0.0155
vn 0.9509 -0.3091 0.0155
vn 0.5877 -0.8089 0.0155
vn -0.0000 -0.9999 0.0155
vn -0.5877 -0.8089 0.0155
vn -0.9509 -0.3091 0.0155
vn -0.9510 -0.3090 0.0155
vn -0.9510 0.3089 0.0155
vn -0.0000 0.4277 0.9039
vn 0.2514 0.3461 0.9039
vn -0.2514 0.3461 0.9039
vn -0.4068 0.1322 0.9039
vn -0.2515 0.3460 0.9039
vn -0.4068 -0.1322 0.9039
vn -0.2514 -0.3460 0.9039
vn 0.4068 -0.1322 0.9039
vn 0.2514 -0.3460 0.9039
vn 0.4068 0.1322 0.9039
vn 0.2514 0.3460 0.9039
vn -0.0000 -0.4277 0.9039
vn -0.2514 -0.3461 0.9039
vn 0.2514 -0.3461 0.9039
vn 0.1519 0.2102 0.9658
vn -0.0004 0.2571 0.9664
vn 0.1534 0.2091 0.9658
vn 0.0007 0.2571 0.9664
vn 0.2497 0.0798 0.9650
vn -0.1506 0.2073 0.9666
vn 0.2491 0.0816 0.9650
vn 0.2512 -0.0824 0.9644
vn -0.2444 0.0798 0.9664
vn 0.2516 -0.0813 0.9644
vn -0.2448 0.0788 0.9664
vn 0.1559 -0.2146 0.9642
vn -0.2468 -0.0795 0.9658
vn -0.2463 -0.0813 0.9658
vn 0.0008 -0.2644 0.9644
vn -0.1546 -0.2116 0.9650
vn -0.0004 -0.2644 0.9644
vn -0.1531 -0.2128 0.9650
vn 0.0006 -0.0011 1.0000
vn -0.9478 0.3080 0.0824
vn -0.9480 -0.3077 0.0819
vn 0.0005 -0.0011 1.0000
vn 0.9480 -0.3079 0.0806
vn 0.9479 0.3081 0.0812
vn 0.0006 -0.0009 1.0000
vn -0.9479 -0.3078 0.0818
vn -0.5860 -0.8062 0.0811
vn -0.0001 -0.9967 0.0806
vn 0.5859 -0.8064 0.0804
vn 0.9480 -0.3080 0.0806
vn -0.5858 0.8062 0.0827
vn -0.9478 0.3081 0.0825
vn -0.0001 0.9966 0.0824
vn 0.5856 0.8064 0.0819
vn 0.9478 0.3083 0.0812
vn -0.9507 -0.3088 0.0285
vn -0.8976 0.2915 -0.3307
vn -0.9510 -0.3089 0.0155
vn 0.9479 0.3082 0.0812
vt 0.515403 0.597279
vt 0.513434 0.597279
vt 0.515131 0.572979
vt 0.513266 0.572979
vt 0.510247 0.597279
vt 0.510247 0.572979
vt 0.507061 0.597279
vt 0.507229 0.572979
vt 0.505091 0.597279
vt 0.505363 0.572979
vt 0.572979 0.506824
vt 0.572979 0.499514
vt 0.597279 0.507027
vt 0.597279 0.499311
vt 0.484869 0.572979
vt 0.486734 0.572979
vt 0.484597 0.597279
vt 0.486566 0.597279
vt 0.489753 0.572979
vt 0.489753 0.597279
vt 0.492771 0.572979
vt 0.492939 0.597279
vt 0.494637 0.572979
vt 0.494909 0.597279
vt 0.427021 0.499514
vt 0.427021 0.506824
vt 0.402721 0.499311
vt 0.402721 0.507027
vt 0.514871 0.589057
vt 0.513105 0.589057
vt 0.513603 0.540237
vt 0.512321 0.540237
vt 0.514120 0.538616
vt 0.510246 0.589057
vt 0.512640 0.538616
vt 0.510246 0.540237
vt 0.507387 0.589057
vt 0.510246 0.538616
vt 0.508171 0.540237
vt 0.505621 0.589057
vt 0.507851 0.538616
vt 0.506888 0.540237
vt 0.506371 0.538616
vt 0.589057 0.499712
vt 0.589057 0.506634
vt 0.540237 0.500661
vt 0.540237 0.505685
vt 0.538616 0.500274
vt 0.538616 0.506072
vt 0.494379 0.589057
vt 0.492613 0.589057
vt 0.493112 0.540237
vt 0.491829 0.540237
vt 0.493629 0.538616
vt 0.489754 0.589057
vt 0.492149 0.538616
vt 0.489754 0.540237
vt 0.486895 0.589057
vt 0.489754 0.538616
vt 0.487679 0.540237
vt 0.485129 0.589057
vt 0.487360 0.538616
vt 0.486397 0.540237
vt 0.485880 0.538616
vt 0.410943 0.506634
vt 0.410943 0.499712
vt 0.459763 0.505685
vt 0.459763 0.500661
vt 0.461384 0.506072
vt 0.461384 0.500274
vt 0.510247 0.569780
vt 0.505363 0.506824
vt 0.510247 0.503169
vt 0.507229 0.512737
vt 0.505363 0.499514
vt 0.507229 0.493601
vt 0.515131 0.499514
vt 0.513266 0.493601
vt 0.515131 0.506824
vt 0.513266 0.512737
vt 0.489753 0.569780
vt 0.516744 0.619331
vt 0.514262 0.619331
vt 0.516401 0.595031
vt 0.514050 0.595031
vt 0.510247 0.619332
vt 0.510247 0.595031
vt 0.506232 0.619332
vt 0.506444 0.595031
vt 0.503751 0.619332
vt 0.504094 0.595031
vt 0.595031 0.507774
vt 0.595031 0.498564
vt 0.619331 0.508030
vt 0.619331 0.498308
vt 0.483599 0.595031
vt 0.485950 0.595031
vt 0.483256 0.619331
vt 0.485738 0.619331
vt 0.489753 0.595031
vt 0.489753 0.619331
vt 0.493556 0.595031
vt 0.493768 0.619331
vt 0.495906 0.595031
vt 0.496249 0.619332
vt 0.404969 0.498564
vt 0.404969 0.507774
vt 0.380668 0.498308
vt 0.380668 0.508030
vt 0.510247 0.591833
vt 0.504094 0.507774
vt 0.506444 0.515224
vt 0.504094 0.498564
vt 0.506444 0.491114
vt 0.516401 0.498564
vt 0.514050 0.491114
vt 0.516401 0.507774
vt 0.514050 0.515224
vt 0.489753 0.591833
vt 0.512640 0.510764
vt 0.510246 0.512556
vt 0.511615 0.507391
vt 0.510265 0.508401
vt 0.512449 0.504746
vt 0.507851 0.510764
vt 0.514120 0.506072
vt 0.508915 0.507391
vt 0.512449 0.501477
vt 0.506371 0.506072
vt 0.514120 0.500274
vt 0.508081 0.504746
vt 0.511615 0.498833
vt 0.506371 0.500274
vt 0.512640 0.495582
vt 0.508081 0.501477
vt 0.510265 0.497823
vt 0.507851 0.495582
vt 0.510246 0.493791
vt 0.508915 0.498833
vt 0.432544 0.503173
vt 0.461886 0.501477
vt 0.461886 0.504746
vt 0.567456 0.503173
vt 0.538114 0.504746
vt 0.538114 0.501477
vt 0.489754 0.567456
vt 0.487551 0.538114
vt 0.488385 0.538114
vt 0.489735 0.538114
vt 0.491085 0.538114
vt 0.491919 0.538114
vt 0.510246 0.567456
vt 0.511615 0.538114
vt 0.512449 0.538114
vt 0.510265 0.538114
vt 0.508915 0.538114
vt 0.508081 0.538114
s 1
f 3/1/1 2/2/2 1/3/1
f 4/4/2 1/3/1 2/2/2
f 2/2/2 5/5/3 4/4/2
f 6/6/3 4/4/2 5/5/3
f 5/5/3 7/7/4 6/6/3
f 8/8/4 6/6/3 7/7/4
f 7/7/4 9/9/5 8/8/4
f 10/10/5 8/8/4 9/9/5
f 13/11/1 12/12/6 11/13/1
f 14/14/6 11/13/1 12/12/6
f 17/15/7 16/16/8 15/17/7
f 18/18/8 15/17/7 16/16/8
f 16/16/8 19/19/9 18/18/8
f 20/20/9 18/18/8 19/19/9
f 19/19/9 21/21/10 20/20/9
f 22/22/10 20/20/9 21/21/10
f 21/21/10 23/23/11 22/22/10
f 24/24/11 22/22/10 23/23/11
f 27/25/11 26/26/12 25/27/11
f 28/28/12 25/27/11 26/26/12
f 31/29/13 30/30/14 29/31/15
f 32/32/16 29/31/15 30/30/14
f 29/31/15 32/32/16 33/33/17
f 30/30/14 34/34/18 32/32/16
f 35/35/19 33/33/17 32/32/16
f 36/36/20 32/32/16 34/34/18
f 32/32/16 36/36/20 35/35/19
f 34/34/18 37/37/21 36/36/20
f 38/38/22 35/35/19 36/36/20
f 39/39/23 36/36/20 37/37/21
f 36/36/20 39/39/23 38/38/22
f 37/37/21 40/40/24 39/39/23
f 41/41/25 38/38/22 39/39/23
f 42/42/26 39/39/23 40/40/24
f 39/39/23 42/42/26 41/41/25
f 43/43/27 41/41/25 42/42/26
f 46/44/28 45/45/13 44/46/29
f 47/47/30 44/46/29 45/45/13
f 44/46/29 47/47/30 48/48/31
f 49/49/32 48/48/31 47/47/30
f 52/50/33 51/51/34 50/52/35
f 53/53/36 50/52/35 51/51/34
f 50/52/35 53/53/36 54/54/37
f 51/51/34 55/55/38 53/53/36
f 56/56/39 54/54/37 53/53/36
f 57/57/40 53/53/36 55/55/38
f 53/53/36 57/57/40 56/56/39
f 55/55/38 58/58/41 57/57/40
f 59/59/42 56/56/39 57/57/40
f 60/60/43 57/57/40 58/58/41
f 57/57/40 60/60/43 59/59/42
f 58/58/41 61/61/44 60/60/43
f 62/62/45 59/59/42 60/60/43
f 63/63/46 60/60/43 61/61/44
f 60/60/43 63/63/46 62/62/45
f 64/64/47 62/62/45 63/63/46
f 67/65/48 66/66/33 65/67/49
f 68/68/50 65/67/49 66/66/33
f 65/67/49 68/68/50 69/69/51
f 70/70/52 69/69/51 68/68/50
f 73/6/53 72/71/54 71/4/55
f 74/8/56 72/71/54 73/6/53
f 77/72/57 76/73/54 75/74/56
f 78/75/58 76/73/54 77/72/57
f 79/76/59 76/73/54 78/75/58
f 81/77/60 76/73/54 80/78/61
f 82/79/62 76/73/54 81/77/60
f 83/80/55 76/73/54 82/79/62
f 86/19/63 85/81/54 84/21/64
f 87/16/61 85/81/54 86/19/63
f 90/82/65 89/83/66 88/84/65
f 91/85/66 88/84/65 89/83/66
f 89/83/66 92/86/67 91/85/66
f 93/87/67 91/85/66 92/86/67
f 92/86/67 94/88/68 93/87/67
f 95/89/68 93/87/67 94/88/68
f 94/88/68 96/90/69 95/89/68
f 97/91/69 95/89/68 96/90/69
f 100/92/70 99/93/71 98/94/70
f 101/95/71 98/94/70 99/93/71
f 104/96/72 103/97/73 102/98/72
f 105/99/73 102/98/72 103/97/73
f 103/97/73 106/100/74 105/99/73
f 107/101/74 105/99/73 106/100/74
f 106/100/74 108/102/75 107/101/74
f 109/103/75 107/101/74 108/102/75
f 108/102/75 110/104/76 109/103/75
f 111/105/76 109/103/75 110/104/76
f 114/106/77 113/107/78 112/108/77
f 115/109/78 112/108/77 113/107/78
f 118/87/79 117/110/54 116/85/80
f 119/89/81 117/110/54 118/87/79
f 122/111/82 121/73/54 120/112/83
f 123/113/84 121/73/54 122/111/82
f 124/114/85 121/73/54 123/113/84
f 126/115/86 121/73/54 125/116/87
f 127/117/88 121/73/54 126/115/86
f 128/118/89 121/73/54 127/117/88
f 131/100/90 130/119/54 129/102/91
f 132/97/92 130/119/54 131/100/90
f 135/120/93 134/121/94 133/122/95
f 136/123/96 133/122/95 134/121/94
f 133/122/95 137/124/97 135/120/93
f 134/121/94 138/125/98 136/123/96
f 139/126/99 135/120/93 137/124/97
f 140/127/98 136/123/96 138/125/98
f 137/124/97 141/128/100 139/126/99
f 138/125/98 142/129/101 140/127/98
f 143/130/102 139/126/99 141/128/100
f 144/131/103 140/127/98 142/129/101
f 141/128/100 145/132/104 143/130/102
f 142/129/101 146/133/105 144/131/103
f 147/134/104 143/130/102 145/132/104
f 148/135/106 144/131/103 146/133/105
f 145/132/104 149/136/107 147/134/104
f 146/133/105 150/137/108 148/135/106
f 151/138/109 147/134/104 149/136/107
f 152/139/110 148/135/106 150/137/108
f 149/136/107 152/139/110 151/138/109
f 150/137/108 151/138/109 152/139/110
f 155/140/111 154/141/112 153/142/113
f 158/143/114 157/144/115 156/145/116
f 161/146/117 160/147/118 159/148/119
f 161/146/117 159/148/119 162/149/120
f 162/149/120 163/150/121 161/146/117
f 161/146/117 163/150/121 164/151/122
f 167/152/114 166/153/123 165/154/124
f 167/152/114 168/155/125 166/153/123
f 167/152/114 169/156/126 168/155/125
f 167/152/114 170/157/127 169/156/126
f 173/1/1 172/2/2 171/3/1
f 174/4/2 171/3/1 172/2/2
f 172/2/2 175/5/3 174/4/2
f 176/6/3 174/4/2 175/5/3
f 175/5/3 177/7/4 176/6/3
f 178/8/4 176/6/3 177/7/4
f 177/7/4 179/9/5 178/8/4
f 180/10/5 178/8/4 179/9/5
f 183/11/1 182/12/6 181/13/1
f 184/14/6 181/13/1 182/12/6
f 187/15/7 186/16/8 185/17/7
f 188/18/8 185/17/7 186/16/8
f 186/16/8 189/19/9 188/18/8
f 190/20/9 188/18/8 189/19/9
f 189/19/9 191/21/10 190/20/9
f 192/22/10 190/20/9 191/21/10
f 191/21/10 193/23/11 192/22/10
f 194/24/11 192/22/10 193/23/11
f 197/25/11 196/26/12 195/27/11
f 198/28/12 195/27/11 196/26/12
f 201/29/13 200/30/14 199/31/15
f 202/32/16 199/31/15 200/30/14
f 199/31/15 202/32/16 203/33/17
f 200/30/14 204/34/18 202/32/16
f 205/35/19 203/33/17 202/32/16
f 206/36/20 202/32/16 204/34/18
f 202/32/16 206/36/20 205/35/19
f 204/34/18 207/37/21 206/36/20
f 208/38/22 205/35/19 206/36/20
f 209/39/23 206/36/20 207/37/21
f 206/36/20 209/39/23 208/38/22
f 207/37/21 210/40/24 209/39/23
f 211/41/25 208/38/22 209/39/23
f 212/42/26 209/39/23 210/40/24
f 209/39/23 212/42/26 211/41/25
f 213/43/27 211/41/25 212/42/26
f 216/44/28 215/45/13 214/46/29
f 217/47/30 214/46/29 215/45/13
f 214/46/29 217/47/30 218/48/31
f 219/49/32 218/48/31 217/47/30
f 222/50/33 221/51/34 220/52/35
f 223/53/36 220/52/35 221/51/34
f 220/52/35 223/53/36 224/54/37
f 221/51/34 225/55/38 223/53/36
f 226/56/39 224/54/37 223/53/36
f 227/57/40 223/53/36 225/55/38
f 223/53/36 227/57/40 226/56/39
f 225/55/38 228/58/41 227/57/40
f 229/59/42 226/56/39 227/57/40
f 230/60/43 227/57/40 228/58/41
f 227/57/40 230/60/43 229/59/42
f 228/58/41 231/61/44 230/60/43
f 232/62/45 229/59/42 230/60/43
f 233/63/46 230/60/43 231/61/44
f 230/60/43 233/63/46 232/62/45
f 234/64/47 232/62/45 233/63/46
f 237/65/48 236/66/128 235/67/49
f 238/68/50 235/67/49 236/66/128
f 235/67/49 238/68/50 239/69/129
f 240/70/52 239/69/129 238/68/50
f 243/6/53 242/71/54 241/4/55
f 244/8/56 242/71/54 243/6/53
f 247/72/57 246/73/54 245/74/56
f 248/75/58 246/73/54 247/72/57
f 249/76/59 246/73/54 248/75/58
f 251/77/60 246/73/54 250/78/61
f 252/79/62 246/73/54 251/77/60
f 253/80/55 246/73/54 252/79/62
f 256/19/63 255/81/54 254/21/64
f 257/16/61 255/81/54 256/19/63
f 260/82/65 259/83/66 258/84/65
f 261/85/66 258/84/65 259/83/66
f 259/83/66 262/86/67 261/85/66
f 263/87/67 261/85/66 262/86/67
f 262/86/67 264/88/68 263/87/67
f 265/89/68 263/87/67 264/88/68
f 264/88/68 266/90/69 265/89/68
f 267/91/69 265/89/68 266/90/69
f 270/92/70 269/93/71 268/94/70
f 271/95/71 268/94/70 269/93/71
f 274/96/72 273/97/73 272/98/72
f 275/99/73 272/98/72 273/97/73
f 273/97/73 276/100/74 275/99/73
f 277/101/74 275/99/73 276/100/74
f 276/100/74 278/102/75 277/101/74
f 279/103/75 277/101/74 278/102/75
f 278/102/75 280/104/76 279/103/75
f 281/105/76 279/103/75 280/104/76
f 284/106/130 283/107/78 282/108/77
f 285/109/78 282/108/77 283/107/78
f 288/87/79 287/110/54 286/85/80
f 289/89/81 287/110/54 288/87/79
f 292/111/82 291/73/54 290/112/83
f 293/113/84 291/73/54 292/111/82
f 294/114/85 291/73/54 293/113/84
f 296/115/86 291/73/54 295/116/87
f 297/117/88 291/73/54 296/115/86
f 298/118/89 291/73/54 297/117/88
f 301/100/90 300/119/54 299/102/91
f 302/97/92 300/119/54 301/100/90
f 305/120/93 304/121/94 303/122/95
f 306/123/96 303/122/95 304/121/94
f 303/122/95 307/124/97 305/120/93
f 304/121/94 308/125/98 306/123/96
f 309/126/99 305/120/93 307/124/97
f 310/127/98 306/123/96 308/125/98
f 307/124/97 311/128/100 309/126/99
f 308/125/98 312/129/101 310/127/98
f 313/130/102 309/126/99 311/128/100
f 314/131/103 310/127/98 312/129/101
f 311/128/100 315/132/104 313/130/102
f 312/129/101 316/133/105 314/131/103
f 317/134/104 313/130/102 315/132/104
f 318/135/106 314/131/103 316/133/105
f 315/132/104 319/136/107 317/134/104
f 316/133/105 320/137/108 318/135/106
f 321/138/109 317/134/104 319/136/107
f 322/139/110 318/135/106 320/137/108
f 319/136/107 322/139/110 321/138/109
f 320/137/108 321/138/109 322/139/110
f 325/140/111 324/141/112 323/142/113
f 328/143/114 327/144/115 326/145/131
f 331/146/117 330/147/118 329/148/119
f 331/146/117 329/148/119 332/149/120
f 332/149/120 333/150/121 331/146/117
f 331/146/117 333/150/121 334/151/115
f 337/152/114 336/153/123 335/154/124
f 337/152/114 338/155/125 336/153/123
f 337/152/114 339/156/126 338/155/125
f 337/152/114 340/157/127 339/156/126
f 343/1/1 342/2/2 341/3/1
f 344/4/2 341/3/1 342/2/2
f 342/2/2 345/5/3 344/4/2
f 346/6/3 344/4/2 345/5/3
f 345/5/3 347/7/4 346/6/3
f 348/8/4 346/6/3 347/7/4
f 347/7/4 349/9/5 348/8/4
f 350/10/5 348/8/4 349/9/5
f 353/11/1 352/12/6 351/13/1
f 354/14/6 351/13/1 352/12/6
f 357/15/7 356/16/8 355/17/7
f 358/18/8 355/17/7 356/16/8
f 356/16/8 359/19/9 358/18/8
f 360/20/9 358/18/8 359/19/9
f 359/19/9 361/21/10 360/20/9
f 362/22/10 360/20/9 361/21/10
f 361/21/10 363/23/11 362/22/10
f 364/24/11 362/22/10 363/23/11
f 367/25/11 366/26/12 365/27/11
f 368/28/12 365/27/11 366/26/12
f 371/29/13 370/30/14 369/31/15
f 372/32/16 369/31/15 370/30/14
f 369/31/15 372/32/16 373/33/17
f 370/30/14 374/34/18 372/32/16
f 375/35/19 373/33/17 372/32/16
f 376/36/20 372/32/16 374/34/18
f 372/32/16 376/36/20 375/35/19
f 374/34/18 377/37/21 376/36/20
f 378/38/22 375/35/19 376/36/20
f 379/39/23 376/36/20 377/37/21
f 376/36/20 379/39/23 378/38/22
f 377/37/21 380/40/24 379/39/23
f 381/41/25 378/38/22 379/39/23
f 382/42/26 379/39/23 380/40/24
f 379/39/23 382/42/26 381/41/25
f 383/43/27 381/41/25 382/42/26
f 386/44/28 385/45/13 384/46/29
f 387/47/30 384/46/29 385/45/13
f 384/46/29 387/47/30 388/48/31
f 389/49/32 388/48/31 387/47/30
f 392/50/33 391/51/34 390/52/35
f 393/53/36 390/52/35 391/51/34
f 390/52/35 393/53/36 394/54/37
f 391/51/34 395/55/38 393/53/36
f 396/56/39 394/54/37 393/53/36
f 397/57/40 393/53/36 395/55/38
f 393/53/36 397/57/40 396/56/39
f 395/55/38 398/58/41 397/57/40
f 399/59/42 396/56/39 397/57/40
f 400/60/43 397/57/40 398/58/41
f 397/57/40 400/60/43 399/59/42
f 398/58/41 401/61/44 400/60/43
f 402/62/45 399/59/42 400/60/43
f 403/63/46 400/60/43 401/61/44
f 400/60/43 403/63/46 402/62/45
f 404/64/47 402/62/45 403/63/46
f 407/65/48 406/66/128 405/67/49
f 408/68/50 405/67/49 406/66/128
f 405/67/49 408/68/50 409/69/129
f 410/70/52 409/69/129 408/68/50
f 413/6/53 412/71/54 411/4/55
f 414/8/56 412/71/54 413/6/53
f 417/72/57 416/73/54 415/74/56
f 418/75/58 416/73/54 417/72/57
f 419/76/59 416/73/54 418/75/58
f 421/77/60 416/73/54 420/78/61
f 422/79/62 416/73/54 421/77/60
f 423/80/55 416/73/54 422/79/62
f 426/19/63 425/81/54 424/21/64
f 427/16/61 425/81/54 426/19/63
f 430/82/65 429/83/66 428/84/65
f 431/85/66 428/84/65 429/83/66
f 429/83/66 432/86/67 431/85/66
f 433/87/67 431/85/66 432/86/67
f 432/86/67 434/88/68 433/87/67
f 435/89/68 433/87/67 434/88/68
f 434/88/68 436/90/69 435/89/68
f 437/91/69 435/89/68 436/90/69
f 440/92/70 439/93/71 438/94/70
f 441/95/71 438/94/70 439/93/71
f 444/96/72 443/97/73 442/98/72
f 445/99/73 442/98/72 443/97/73
f 443/97/73 446/100/74 445/99/73
f 447/101/74 445/99/73 446/100/74
f 446/100/74 448/102/75 447/101/74
f 449/103/75 447/101/74 448/102/75
f 448/102/75 450/104/76 449/103/75
f 451/105/76 449/103/75 450/104/76
f 454/106/130 453/107/78 452/108/77
f 455/109/78 452/108/77 453/107/78
f 458/87/79 457/110/54 456/85/80
f 459/89/81 457/110/54 458/87/79
f 462/111/82 461/73/54 460/112/83
f 463/113/84 461/73/54 462/111/82
f 464/114/85 461/73/54 463/113/84
f 466/115/86 461/73/54 465/116/87
f 467/117/88 461/73/54 466/115/86
f 468/118/89 461/73/54 467/117/88
f 471/100/90 470/119/54 469/102/91
f 472/97/92 470/119/54 471/100/90
f 475/120/93 474/121/94 473/122/95
f 476/123/96 473/122/95 474/121/94
f 473/122/95 477/124/97 475/120/93
f 474/121/94 478/125/98 476/123/96
f 479/126/99 475/120/93 477/124/97
f 480/127/98 476/123/96 478/125/98
f 477/124/97 481/128/100 479/126/99
f 478/125/98 482/129/101 480/127/98
f 483/130/102 479/126/99 481/128/100
f 484/131/103 480/127/98 482/129/101
f 481/128/100 485/132/104 483/130/102
f 482/129/101 486/133/105 484/131/103
f 487/134/104 483/130/102 485/132/104
f 488/135/106 484/131/103 486/133/105
f 485/132/104 489/136/107 487/134/104
f 486/133/105 490/137/108 488/135/106
f 491/138/109 487/134/104 489/136/107
f 492/139/110 488/135/106 490/137/108
f 489/136/107 492/139/110 491/138/109
f 490/137/108 491/138/109 492/139/110
f 495/140/111 494/141/112 493/142/113
f 498/143/114 497/144/115 496/145/131
f 501/146/117 500/147/118 499/148/119
f 501/146/117 499/148/119 502/149/120
f 502/149/120 503/150/121 501/146/117
f 501/146/117 503/150/121 504/151/115
f 507/152/114 506/153/123 505/154/124
f 507/152/114 508/155/125 506/153/123
f 507/152/114 509/156/126 508/155/125
f 507/152/114 510/157/127 509/156/126
f 513/1/1 512/2/2 511/3/1
f 514/4/2 511/3/1 512/2/2
f 512/2/2 515/5/3 514/4/2
f 516/6/3 514/4/2 515/5/3
f 515/5/3 517/7/4 516/6/3
f 518/8/4 516/6/3 517/7/4
f 517/7/4 519/9/5 518/8/4
f 520/10/5 518/8/4 519/9/5
f 523/11/1 522/12/6 521/13/1
f 524/14/6 521/13/1 522/12/6
f 527/15/7 526/16/8 525/17/7
f 528/18/8 525/17/7 526/16/8
f 526/16/8 529/19/9 528/18/8
f 530/20/9 528/18/8 529/19/9
f 529/19/9 531/21/10 530/20/9
f 532/22/10 530/20/9 531/21/10
f 531/21/10 533/23/11 532/22/10
f 534/24/11 532/22/10 533/23/11
f 537/25/11 536/26/12 535/27/11
f 538/28/12 535/27/11 536/26/12
f 541/29/13 540/30/14 539/31/15
f 542/32/16 539/31/15 540/30/14
f 539/31/15 542/32/16 543/33/17
f 540/30/14 544/34/18 542/32/16
f 545/35/19 543/33/17 542/32/16
f 546/36/20 542/32/16 544/34/18
f 542/32/16 546/36/20 545/35/19
f 544/34/18 547/37/21 546/36/20
f 548/38/22 545/35/19 546/36/20
f 549/39/23 546/36/20 547/37/21
f 546/36/20 549/39/23 548/38/22
f 547/37/21 550/40/24 549/39/23
f 551/41/25 548/38/22 549/39/23
f 552/42/26 549/39/23 550/40/24
f 549/39/23 552/42/26 551/41/25
f 553/43/27 551/41/25 552/42/26
f 556/44/28 555/45/13 554/46/29
f 557/47/30 554/46/29 555/45/13
f 554/46/29 557/47/30 558/48/31
f 559/49/32 558/48/31 557/47/30
f 562/50/33 561/51/34 560/52/35
f 563/53/36 560/52/35 561/51/34
f 560/52/35 563/53/36 564/54/37
f 561/51/34 565/55/38 563/53/36
f 566/56/39 564/54/37 563/53/36
f 567/57/40 563/53/36 565/55/38
f 563/53/36 567/57/40 566/56/39
f 565/55/38 568/58/41 567/57/40
f 569/59/42 566/56/39 567/57/40
f 570/60/43 567/57/40 568/58/41
f 567/57/40 570/60/43 569/59/42
f 568/58/41 571/61/44 570/60/43
f 572/62/45 569/59/42 570/60/43
f 573/63/46 570/60/43 571/61/44
f 570/60/43 573/63/46 572/62/45
f 574/64/47 572/62/45 573/63/46
f 577/65/48 576/66/33 575/67/49
f 578/68/50 575/67/49 576/66/33
f 575/67/49 578/68/50 579/69/51
f 580/70/52 579/69/51 578/68/50
f 583/6/53 582/71/54 581/4/55
f 584/8/56 582/71/54 583/6/53
f 587/72/57 586/73/54 585/74/56
f 588/75/58 586/73/54 587/72/57
f 589/76/59 586/73/54 588/75/58
f 591/77/60 586/73/54 590/78/61
f 592/79/62 586/73/54 591/77/60
f 593/80/55 586/73/54 592/79/62
f 596/19/63 595/81/54 594/21/64
f 597/16/61 595/81/54 596/19/63
f 600/82/65 599/83/66 598/84/65
f 601/85/66 598/84/65 599/83/66
f 599/83/66 602/86/67 601/85/66
f 603/87/67 601/85/66 602/86/67
f 602/86/67 604/88/68 603/87/67
f 605/89/68 603/87/67 604/88/68
f 604/88/68 606/90/69 605/89/68
f 607/91/69 605/89/68 606/90/69
f 610/92/70 609/93/71 608/94/70
f 611/95/71 608/94/70 609/93/71
f 614/96/72 613/97/73 612/98/72
f 615/99/73 612/98/72 613/97/73
f 613/97/73 616/100/74 615/99/73
f 617/101/74 615/99/73 616/100/74
f 616/100/74 618/102/75 617/101/74
f 619/103/75 617/101/74 618/102/75
f 618/102/75 620/104/76 619/103/75
f 621/105/76 619/103/75 620/104/76
f 624/106/130 623/107/78 622/108/77
f 625/109/78 622/108/77 623/107/78
f 628/87/79 627/110/54 626/85/80
f 629/89/81 627/110/54 628/87/79
f 632/111/82 631/73/54 630/112/83
f 633/113/84 631/73/54 632/111/82
f 634/114/85 631/73/54 633/113/84
f 636/115/86 631/73/54 635/116/87
f 637/117/88 631/73/54 636/115/86
f 638/118/89 631/73/54 637/117/88
f 641/100/90 640/119/54 639/102/91
f 642/97/92 640/119/54 641/100/90
f 645/120/93 644/121/94 643/122/95
f 646/123/96 643/122/95 644/121/94
f 643/122/95 647/124/97 645/120/93
f 644/121/94 648/125/98 646/123/96
f 649/126/99 645/120/93 647/124/97
f 650/127/98 646/123/96 648/125/98
f 647/124/97 651/128/100 649/126/99
f 648/125/98 652/129/101 650/127/98
f 653/130/102 649/126/99 651/128/100
f 654/131/103 650/127/98 652/129/101
f 651/128/100 655/132/104 653/130/102
f 652/129/101 656/133/105 654/131/103
f 657/134/104 653/130/102 655/132/104
f 658/135/106 654/131/103 656/133/105
f 655/132/104 659/136/107 657/134/104
f 656/133/105 660/137/108 658/135/106
f 661/138/109 657/134/104 659/136/107
f 662/139/110 658/135/106 660/137/108
f 659/136/107 662/139/110 661/138/109
f 660/137/108 661/138/109 662/139/110
f 665/140/111 664/141/112 663/142/113
f 668/143/114 667/144/115 666/145/131
f 671/146/117 670/147/118 669/148/119
f 671/146/117 669/148/119 672/149/120
f 672/149/120 673/150/121 671/146/117
f 671/146/117 673/150/121 674/151/115
f 677/152/114 676/153/123 675/154/124
f 677/152/114 678/155/125 676/153/123
f 677/152/114 679/156/126 678/155/125
f 677/152/114 680/157/127 679/156/126
