# Blender 4.5.3 LTS
# www.blender.org
mtllib brd_gun_279a_x4_001.mtl
o brd_gun_279a_x4_001
v -1.535244 3.869616 2.768938
v -1.983528 3.869616 2.487262
v -1.535244 4.487691 1.925132
v -2.549413 2.547247 3.196857
v -1.774126 2.547247 3.684004
v -1.535242 2.547251 3.767591
v -1.318402 2.138932 4.040898
v -1.994633 1.440688 4.141891
v -2.866281 1.440688 3.594198
v -1.022966 1.440688 4.481893
v -0.967545 1.982967 4.239081
v 0.000000 1.440688 4.597154
v -0.616688 2.138932 4.206983
v -0.399848 2.547251 4.043883
v 0.000000 2.547247 4.088937
v 0.000000 3.869617 3.181329
v -0.399846 3.869617 3.136277
v 0.000000 4.701283 2.213873
v -0.399847 4.701283 2.168821
v -0.399847 4.980001 1.577886
v 0.000000 5.217570 1.135403
v -0.616370 5.081162 1.279620
v 0.399848 2.547251 4.043883
v 0.399846 3.869617 3.136277
v 0.616688 2.138932 4.206983
v 0.399847 4.701283 2.168821
v 0.967545 1.982967 4.239081
v 0.399847 4.980001 1.577886
v 1.022966 1.440688 4.481893
v 1.318402 2.138932 4.040898
v 1.994633 1.440688 4.141891
v 0.616370 5.081162 1.279620
v 1.774126 2.547247 3.684004
v 1.535242 2.547251 3.767591
v 1.535244 3.869616 2.768938
v 2.549413 2.547247 3.196857
v 2.866281 1.440688 3.594198
v 1.983528 3.869616 2.487262
v 1.535244 4.487691 1.925132
v 0.492634 5.217570 1.022962
v 0.000000 5.392590 -0.000001
v 0.887695 5.217570 0.707912
v 0.967546 5.034516 1.165430
v 1.318394 4.876166 1.279427
v -0.492634 5.217570 1.022962
v -0.887695 5.217570 0.707912
v -0.967546 5.034516 1.165430
v -1.318394 4.876166 1.279427
v 1.445257 4.876170 1.152552
v 1.730876 4.701283 1.380326
v 1.534838 4.700693 1.577328
v 1.994631 4.701283 0.960562
v 1.106936 5.217570 0.252650
v 2.158366 4.701283 0.492631
v 1.135403 5.217570 -0.000001
v 2.213872 4.701283 -0.000002
v -1.106936 5.217570 0.252650
v -1.135403 5.217570 -0.000001
v -1.445257 4.876170 1.152552
v -2.158366 4.701283 0.492631
v -2.213872 4.701283 -0.000002
v -1.994631 4.701283 0.960562
v -1.730876 4.701283 1.380326
v -1.534838 4.700693 1.577328
v 3.101567 3.869618 -0.707917
v 3.181327 3.869618 0.000007
v 2.866280 3.869617 -1.380328
v 4.088937 2.547247 -0.000004
v 3.986418 2.547247 -0.909878
v 3.684003 2.547247 -1.774128
v 3.196857 2.547245 -2.549414
v 4.481893 1.440687 -1.022967
v 4.597154 1.440688 -0.000004
v 4.141890 1.440687 -1.994635
v 3.594196 1.440687 -2.866282
v 3.196857 1.440687 -3.261702
v -1.535244 4.487691 1.925132
v -1.730876 4.701283 1.380326
v -1.534838 4.700693 1.577328
v -2.487264 3.869616 1.983524
v -1.983528 3.869616 2.487262
v -2.549413 2.547247 3.196857
v -2.866280 3.869616 1.380325
v -1.994631 4.701283 0.960562
v -3.101567 3.869616 0.707910
v -2.158366 4.701283 0.492631
v -3.181327 3.869618 0.000007
v -2.213872 4.701283 -0.000002
v -3.986419 2.547247 0.909871
v -4.088937 2.547247 -0.000004
v -3.684006 2.547247 1.774121
v -4.481894 1.440688 1.022959
v -4.597154 1.440688 -0.000004
v -4.141893 1.440688 1.994627
v -3.594201 1.440688 2.866277
v -3.196861 2.547247 2.549408
v -2.866281 1.440688 3.594198
v -4.481893 1.440687 -1.022967
v -4.088937 2.547247 -0.000004
v -4.597154 1.440688 -0.000004
v -3.986418 2.547247 -0.909878
v -3.181327 3.869618 0.000007
v -3.684003 2.547247 -1.774128
v -4.141890 1.440687 -1.994635
v -3.594196 1.440687 -2.866282
v -3.196857 2.547245 -2.549414
v -3.196857 1.440687 -3.261702
v -2.866280 3.869617 -1.380328
v -3.101567 3.869618 -0.707917
v -3.217375 4.086445 -4.034450
v -3.196857 1.440687 -3.261702
v -3.217372 1.440685 -4.034445
v -3.196857 2.547245 -2.549414
v -2.866280 3.869617 -1.380328
v -2.866280 4.086446 -1.380328
v -2.238957 4.918106 -4.649233
v -2.866280 4.086446 -1.380328
v -3.217375 4.086445 -4.034450
v -2.213872 4.918112 -0.000003
v -1.135403 5.434399 -0.000001
v -1.148270 5.434398 -5.030870
v 0.000000 5.609416 -5.160252
v 0.000000 5.609419 -0.000001
v 1.148270 5.434398 -5.030870
v 1.135403 5.434399 -0.000001
v 2.213872 4.918112 -0.000003
v 2.238957 4.918106 -4.649233
v 2.866280 4.086446 -1.380328
v 3.217375 4.086445 -4.034450
v -2.238957 1.440686 -4.649231
v -3.217375 4.086445 -4.034450
v -3.217372 1.440685 -4.034445
v -2.238957 4.918106 -4.649233
v -1.148270 5.434398 -5.030870
v -1.148270 1.440686 -5.030870
v 0.000000 5.609416 -5.160252
v 0.000000 1.440686 -5.160250
v 1.148270 1.440686 -5.030870
v 1.148270 5.434398 -5.030870
v 2.238957 1.440686 -4.649231
v 2.238957 4.918106 -4.649233
v 3.217375 4.086445 -4.034450
v 3.217372 1.440685 -4.034445
v -0.228575 5.675567 -4.234630
v -0.513604 5.021906 -3.877213
v -0.228575 5.021906 -4.234630
v -0.513604 5.675567 -3.877213
v -0.411878 5.021906 -3.431525
v -0.411878 5.675569 -3.431525
v -0.411878 5.675569 -3.431525
v 0.000000 5.021906 -3.233175
v -0.411878 5.021906 -3.431525
v 0.000000 5.675569 -3.233175
v 0.411878 5.675569 -3.431525
v 0.411878 5.021906 -3.431525
v -0.469408 5.885632 -4.134329
v -0.588528 5.675569 -3.894315
v -0.469408 5.675569 -4.134329
v -0.588528 5.885632 -3.894315
v -0.585343 5.885632 -3.626387
v -0.585343 5.675569 -3.626387
v -0.471963 5.675569 -3.383611
v -0.471963 5.885632 -3.383611
v -0.261920 5.675569 -4.303872
v -0.469408 5.885632 -4.134329
v -0.469408 5.675569 -4.134329
v -0.261920 5.885632 -4.303872
v 0.000000 5.885632 -4.360384
v 0.000000 5.675569 -4.360384
v 0.261920 5.675569 -4.303872
v 0.261920 5.885632 -4.303872
v 0.469408 5.885632 -4.134329
v 0.469408 5.675569 -4.134329
v -0.260502 5.885632 -3.219051
v -0.471963 5.675569 -3.383611
v -0.471963 5.885632 -3.383611
v -0.260502 5.675569 -3.219051
v 0.000000 5.675570 -3.156326
v 0.000000 5.885633 -3.156326
v 0.260502 5.885632 -3.219051
v 0.260502 5.675569 -3.219051
v 0.471963 5.675569 -3.383611
v 0.471963 5.885632 -3.383611
v 1.535244 4.487691 1.925132
v 1.534838 4.700693 1.577328
v 1.730876 4.701283 1.380326
v 2.487264 3.869616 1.983524
v 1.983528 3.869616 2.487262
v 2.549413 2.547247 3.196857
v 2.866280 3.869616 1.380325
v 1.994631 4.701283 0.960562
v 3.101567 3.869616 0.707910
v 2.158366 4.701283 0.492631
v 3.181327 3.869618 0.000007
v 2.213872 4.701283 -0.000002
v 3.986419 2.547247 0.909871
v 4.088937 2.547247 -0.000004
v 3.684006 2.547247 1.774121
v 4.481894 1.440688 1.022959
v 4.597154 1.440688 -0.000004
v 4.141893 1.440688 1.994627
v 3.594201 1.440688 2.866277
v 3.196861 2.547247 2.549408
v 2.866281 1.440688 3.594198
v 3.196857 1.440687 -3.261702
v 3.217375 4.086445 -4.034450
v 3.217372 1.440685 -4.034445
v 3.196857 2.547245 -2.549414
v 2.866280 3.869617 -1.380328
v 2.866280 4.086446 -1.380328
v 0.513604 5.021906 -3.877213
v 0.228575 5.675567 -4.234630
v 0.228575 5.021906 -4.234630
v 0.513604 5.675567 -3.877213
v 0.411878 5.021906 -3.431525
v 0.411878 5.675569 -3.431525
v 0.588528 5.675569 -3.894315
v 0.469408 5.885632 -4.134329
v 0.469408 5.675569 -4.134329
v 0.588528 5.885632 -3.894315
v 0.585343 5.885632 -3.626387
v 0.585343 5.675569 -3.626387
v 0.471963 5.675569 -3.383611
v 0.471963 5.885632 -3.383611
v 1.135403 5.217570 -0.000001
v 2.213872 4.918112 -0.000003
v 2.213872 4.701283 -0.000002
v 1.135403 5.434399 -0.000001
v 0.000000 5.392590 -0.000001
v 0.000000 5.609419 -0.000001
v -1.135403 5.217570 -0.000001
v -1.135403 5.434399 -0.000001
v -2.213872 4.701283 -0.000002
v -2.213872 4.918112 -0.000003
v 2.213872 4.701283 -0.000002
v 2.866280 4.086446 -1.380328
v 2.866280 3.869617 -1.380328
v 2.213872 4.918112 -0.000003
v -2.866280 3.869617 -1.380328
v -2.213872 4.918112 -0.000003
v -2.213872 4.701283 -0.000002
v -2.866280 4.086446 -1.380328
v 0.228575 5.021906 -4.234630
v -0.228575 5.675567 -4.234630
v -0.228575 5.021906 -4.234630
v 0.228575 5.675567 -4.234630
v -1.148270 1.775466 -5.194289
v -1.693613 4.320864 -5.003469
v -1.693613 1.775466 -5.003469
v -1.148270 4.320864 -5.194288
v 0.000000 4.320864 -5.323668
v 0.000000 1.775466 -5.323668
v 1.148270 1.775466 -5.194289
v 1.148270 4.320864 -5.194288
v 1.693613 4.320864 -5.003469
v 1.693613 1.775466 -5.003469
v -1.148270 1.775466 -4.955030
v -1.693613 1.775466 -5.003469
v -1.693613 1.775466 -4.764210
v -1.148270 1.775466 -5.194289
v 0.000000 1.775466 -5.084410
v 0.000000 1.775466 -5.323668
v 1.148270 1.775466 -4.955030
v 1.148270 1.775466 -5.194289
v 1.693613 1.775466 -4.764211
v 1.693613 1.775466 -5.003469
v -1.693613 1.775466 -4.764210
v -1.693613 4.320864 -5.003469
v -1.693613 4.320864 -4.764212
v -1.693613 1.775466 -5.003469
v -1.148270 4.320864 -5.194288
v -1.693613 4.320864 -4.764212
v -1.693613 4.320864 -5.003469
v -1.148270 4.320864 -4.955029
v 0.000000 4.320864 -5.323668
v 0.000000 4.320864 -5.084411
v 1.148270 4.320864 -5.194288
v 1.148270 4.320864 -4.955029
v 1.693613 4.320864 -5.003469
v 1.693613 4.320864 -4.764212
v 1.693613 4.320864 -4.764212
v 1.693613 1.775466 -5.003469
v 1.693613 1.775466 -4.764211
v 1.693613 4.320864 -5.003469
v -0.309043 4.879029 1.525625
v -0.568946 5.230568 1.224428
v -0.554605 4.992743 1.188066
v -0.313040 5.111358 1.577991
v -0.310600 4.591470 2.130394
v -0.311440 4.812138 2.207613
v -0.310600 3.775484 3.079612
v -0.311440 3.964644 3.193481
v -0.313114 2.596182 4.134954
v -0.308975 2.449281 3.992145
v -0.490651 5.080971 1.630148
v -0.663794 4.931756 1.334812
v -0.678136 5.169581 1.371175
v -0.486654 4.848642 1.577782
v -0.489094 4.811093 2.207247
v -0.488253 4.590426 2.130029
v -0.489093 3.963749 3.192942
v -0.488253 3.774589 3.079073
v -0.486582 2.498318 3.952812
v -0.490721 2.645218 4.095622
v -0.550798 1.991870 4.176894
v -0.313114 2.596182 4.134954
v -0.308975 2.449281 3.992145
v -0.568025 2.121114 4.326361
v -0.959177 1.811077 4.212021
v -0.993992 1.928582 4.364876
v -0.682577 2.285992 4.237072
v -0.486582 2.498318 3.952812
v -0.490721 2.645218 4.095622
v -0.665350 2.156748 4.087606
v -0.975913 2.154855 4.266142
v -0.941099 2.037350 4.113287
v -1.355495 1.986347 3.990118
v -0.993992 1.928582 4.364876
v -0.959177 1.811077 4.212021
v -1.405980 2.114065 4.132589
v -1.587149 2.425458 3.695082
v -1.649638 2.569538 3.825397
v -1.281308 2.291517 4.091679
v -0.941099 2.037350 4.113287
v -0.975913 2.154855 4.266142
v -1.230823 2.163797 3.949209
v -1.483335 2.669042 3.840100
v -1.420846 2.524963 3.709786
v -1.587149 2.425458 3.695082
v -1.650516 3.925337 2.798654
v -1.649638 2.569538 3.825397
v -1.585175 3.740979 2.700337
v -1.585180 4.346047 1.874295
v -1.650514 4.549099 1.947091
v -1.585364 4.565244 1.517015
v -1.649807 4.783498 1.565821
v -1.348076 4.760079 1.188075
v -1.397138 4.989644 1.219887
v -1.485312 3.998252 2.837539
v -1.420846 2.524963 3.709786
v -1.483335 2.669042 3.840100
v -1.419972 3.813896 2.739223
v -1.485308 4.629335 1.975970
v -1.419974 4.426282 1.903174
v -1.484313 4.836140 1.637642
v -1.419870 4.617886 1.588837
v -1.288713 4.992253 1.370780
v -1.239651 4.762688 1.338968
v -0.951928 4.938096 1.059806
v -1.397138 4.989644 1.219887
v -1.348076 4.760079 1.188075
v -0.988440 5.173564 1.086564
v -0.554605 4.992743 1.188066
v -0.568946 5.230568 1.224428
v -0.983163 5.130935 1.271054
v -1.239651 4.762688 1.338968
v -1.288713 4.992253 1.370780
v -0.946652 4.895466 1.244296
v -0.678136 5.169581 1.371175
v -0.663794 4.931756 1.334812
v 0.568946 5.230568 1.207732
v 0.309043 4.879029 1.508929
v 0.554605 4.992743 1.171369
v 0.313040 5.111358 1.561295
v 0.310600 4.591470 2.113698
v 0.311440 4.812138 2.190916
v 0.310600 3.775484 3.062916
v 0.311440 3.964644 3.176785
v 0.313114 2.596181 4.118258
v 0.308975 2.449281 3.975448
v 0.663794 4.931756 1.318116
v 0.490651 5.080971 1.613452
v 0.678136 5.169581 1.354478
v 0.486654 4.848642 1.561086
v 0.489094 4.811093 2.190551
v 0.488253 4.590426 2.113333
v 0.489093 3.963749 3.176246
v 0.488253 3.774589 3.062377
v 0.486582 2.498317 3.936116
v 0.490721 2.645217 4.078926
v 0.313114 2.596181 4.118258
v 0.550798 1.991870 4.160198
v 0.308975 2.449281 3.975448
v 0.568025 2.121114 4.309665
v 0.959177 1.811077 4.195325
v 0.993992 1.928581 4.348179
v 0.486582 2.498317 3.936116
v 0.682577 2.285991 4.220376
v 0.490721 2.645217 4.078926
v 0.665350 2.156748 4.070909
v 0.975913 2.154854 4.249445
v 0.941099 2.037350 4.096591
v 0.993992 1.928581 4.348179
v 1.355495 1.986346 3.973421
v 0.959177 1.811077 4.195325
v 1.405980 2.114065 4.115892
v 1.587149 2.425457 3.678385
v 1.649638 2.569537 3.808700
v 0.941099 2.037350 4.096591
v 1.281308 2.291516 4.074983
v 0.975913 2.154854 4.249445
v 1.230823 2.163797 3.932512
v 1.483335 2.669042 3.823404
v 1.420846 2.524963 3.693089
v 1.650516 3.925337 2.781957
v 1.587149 2.425457 3.678385
v 1.649638 2.569537 3.808700
v 1.585175 3.740979 2.683641
v 1.585180 4.346047 1.857598
v 1.650514 4.549099 1.930395
v 1.585364 4.565244 1.500319
v 1.649807 4.783498 1.549124
v 1.348076 4.760079 1.171379
v 1.397138 4.989644 1.203191
v 1.420846 2.524963 3.693089
v 1.485312 3.998252 2.820843
v 1.483335 2.669042 3.823404
v 1.419972 3.813896 2.722527
v 1.485308 4.629335 1.959274
v 1.419974 4.426282 1.886477
v 1.484313 4.836140 1.620945
v 1.419870 4.617886 1.572140
v 1.288713 4.992253 1.354083
v 1.239651 4.762688 1.322272
v 1.397138 4.989644 1.203191
v 0.951928 4.938096 1.043110
v 1.348076 4.760079 1.171379
v 0.988440 5.173564 1.069868
v 0.554605 4.992743 1.171369
v 0.568946 5.230568 1.207732
v 1.239651 4.762688 1.322272
v 0.983163 5.130935 1.254357
v 1.288713 4.992253 1.354083
v 0.946652 4.895466 1.227600
v 0.678136 5.169581 1.354478
v 0.663794 4.931756 1.318116
v -0.261920 5.675569 -4.303872
v -0.469408 5.675569 -4.134329
v 0.000000 5.675569 -3.759989
v 0.000000 5.675569 -4.360384
v -0.588528 5.675569 -3.894315
v 0.261920 5.675569 -4.303872
v -0.585343 5.675569 -3.626387
v 0.469408 5.675569 -4.134329
v -0.471963 5.675569 -3.383611
v 0.588528 5.675569 -3.894315
v -0.260502 5.675569 -3.219051
v 0.585343 5.675569 -3.626387
v 0.000000 5.675570 -3.156326
v 0.471963 5.675569 -3.383611
v 0.260502 5.675569 -3.219051
v -0.489094 4.811093 2.207247
v -0.311440 3.964644 3.193481
v -0.489093 3.963749 3.192942
v -0.490721 2.645218 4.095622
v -0.311440 4.812138 2.207613
v -0.313114 2.596182 4.134954
v -0.490651 5.080971 1.630148
v -0.568025 2.121114 4.326361
v -0.313040 5.111358 1.577991
v -0.682577 2.285992 4.237072
v -0.678136 5.169581 1.371175
v -0.993992 1.928582 4.364876
v -0.568946 5.230568 1.224428
v -0.975913 2.154855 4.266142
v -0.983163 5.130935 1.271054
v -1.405980 2.114065 4.132589
v -0.988440 5.173564 1.086564
v -1.281308 2.291517 4.091679
v -1.288713 4.992253 1.370780
v -1.397138 4.989644 1.219887
v -1.484313 4.836140 1.637642
v -1.649807 4.783498 1.565821
v -1.485308 4.629335 1.975970
v -1.650514 4.549099 1.947091
v -1.649638 2.569538 3.825397
v -1.483335 2.669042 3.840100
v -1.485312 3.998252 2.837539
v -1.650516 3.925337 2.798654
v 0.311440 3.964644 3.176785
v 0.489094 4.811093 2.190551
v 0.489093 3.963749 3.176246
v 0.490721 2.645217 4.078926
v 0.311440 4.812138 2.190916
v 0.313114 2.596181 4.118258
v 0.490651 5.080971 1.613452
v 0.568025 2.121114 4.309665
v 0.313040 5.111358 1.561295
v 0.682577 2.285991 4.220376
v 0.678136 5.169581 1.354478
v 0.993992 1.928581 4.348179
v 0.568946 5.230568 1.207732
v 0.975913 2.154854 4.249445
v 0.983163 5.130935 1.254357
v 1.405980 2.114065 4.115892
v 0.988440 5.173564 1.069868
v 1.281308 2.291516 4.074983
v 1.288713 4.992253 1.354083
v 1.397138 4.989644 1.203191
v 1.484313 4.836140 1.620945
v 1.649807 4.783498 1.549124
v 1.485308 4.629335 1.959274
v 1.650514 4.549099 1.930395
v 1.649638 2.569537 3.808700
v 1.483335 2.669042 3.823404
v 1.485312 3.998252 2.820843
v 1.650516 3.925337 2.781957
v -0.588528 5.885632 -3.894315
v -0.469408 5.885632 -4.134329
v 0.000000 5.966982 -3.759989
v -0.585343 5.885632 -3.626387
v -0.261920 5.885632 -4.303872
v -0.471963 5.885632 -3.383611
v 0.000000 5.885632 -4.360384
v -0.260502 5.885632 -3.219051
v 0.261920 5.885632 -4.303872
v 0.000000 5.885633 -3.156326
v 0.469408 5.885632 -4.134329
v 0.260502 5.885632 -3.219051
v 0.588528 5.885632 -3.894315
v 0.471963 5.885632 -3.383611
v 0.585343 5.885632 -3.626387
v -0.616370 4.836796 1.279620
v -0.967546 5.034516 1.165430
v -0.616370 5.081162 1.279620
v -0.967546 4.790148 1.165430
v -1.318394 4.876166 1.279427
v -1.318394 4.631799 1.279427
v -0.616370 5.081162 1.279620
v -0.399847 4.735631 1.577887
v -0.616370 4.836796 1.279620
v -0.399847 4.980001 1.577886
v -0.399847 4.701283 2.168821
v -0.399847 4.539440 2.124422
v -0.399846 3.869617 3.136277
v -0.399847 3.793024 3.046014
v -0.399848 2.547251 3.912413
v -0.399848 2.547251 4.043883
v -0.399840 1.440689 0.448087
v -0.399847 4.735631 1.577887
v -0.399840 5.112464 0.448087
v -0.399848 1.440689 3.912413
v -0.399848 2.547251 3.912413
v -1.318394 4.631799 1.279427
v -1.534838 4.700693 1.577328
v -1.318394 4.876166 1.279427
v -1.534861 4.456264 1.577361
v -1.535244 4.487691 1.925132
v -1.535225 4.304354 1.892298
v -1.535244 3.869616 2.768938
v -1.535230 3.778248 2.686624
v -1.535230 2.547251 3.636121
v -1.535242 2.547251 3.767591
v -1.534861 1.440689 0.448088
v -1.534861 4.456264 1.577361
v -1.534861 4.731933 0.448087
v -1.535230 2.547251 3.636121
v -1.535230 1.440691 3.636121
v -1.318402 2.138932 3.909428
v -1.318402 1.440691 3.909428
v -0.399848 2.547251 4.043883
v -0.616688 2.138932 4.075512
v -0.399848 2.547251 3.912413
v -0.616688 2.138932 4.206983
v -0.967545 1.982967 4.107611
v -0.967545 1.982967 4.239081
v -1.318402 2.138932 3.909428
v -1.318402 2.138932 4.040898
v -1.535230 2.547251 3.636121
v -1.535242 2.547251 3.767591
v -1.534861 4.456264 1.577361
v -1.318394 4.631799 1.279427
v -1.534861 4.731933 0.448087
v -0.967546 4.790148 1.165430
v -0.399840 5.112464 0.448087
v -0.616370 4.836796 1.279620
v -0.399847 4.735631 1.577887
v -1.318402 1.440691 3.909428
v -0.967545 1.982967 4.107611
v -1.318402 2.138932 3.909428
v -0.967545 1.440690 4.107611
v -0.616688 2.138932 4.075512
v -0.616688 1.440690 4.075512
v -0.399848 2.547251 3.912413
v -0.399848 1.440689 3.912413
v -0.616688 1.440690 4.075512
v -1.535230 1.440691 3.636121
v -0.399848 1.440689 3.912413
v -1.318402 1.440691 3.909428
v -0.967545 1.440690 4.107611
v -3.217372 1.440685 -4.034445
v -3.196857 1.440687 -3.261702
v -2.864578 1.440686 -3.592061
v -2.238957 1.440686 -4.649231
v -1.993448 1.440686 -4.139429
v -1.148270 1.440686 -5.030870
v -1.022358 1.440686 -4.479229
v 0.000000 1.440686 -5.160250
v 0.000000 1.440686 -4.594422
v 1.022358 1.440686 -4.479229
v 1.148270 1.440686 -5.030870
v 1.993448 1.440686 -4.139429
v 2.238957 1.440686 -4.649231
v 2.864578 1.440686 -3.592061
v 3.217372 1.440685 -4.034445
v 3.196857 1.440687 -3.261702
v 0.967546 5.034516 1.165430
v 0.616370 4.836796 1.279620
v 0.616370 5.081162 1.279620
v 0.967546 4.790148 1.165430
v 1.318394 4.876166 1.279427
v 1.318394 4.631799 1.279427
v 0.399847 4.735631 1.577887
v 0.616370 5.081162 1.279620
v 0.616370 4.836796 1.279620
v 0.399847 4.980001 1.577886
v 0.399847 4.701283 2.168821
v 0.399847 4.539440 2.124422
v 0.399846 3.869617 3.136277
v 0.399847 3.793024 3.046014
v 0.399848 2.547251 3.912413
v 0.399848 2.547251 4.043883
v 0.399840 1.440689 0.448087
v 0.399847 4.735631 1.577887
v 0.399840 5.112464 0.448087
v 0.399848 1.440689 3.912413
v 0.399848 2.547251 3.912413
v 1.534838 4.700693 1.577328
v 1.318394 4.631799 1.279427
v 1.318394 4.876166 1.279427
v 1.534861 4.456264 1.577361
v 1.535244 4.487691 1.925132
v 1.535225 4.304354 1.892298
v 1.535244 3.869616 2.768938
v 1.535230 3.778248 2.686624
v 1.535230 2.547251 3.636121
v 1.535242 2.547251 3.767591
v 1.534861 1.440689 0.448088
v 1.534861 4.456264 1.577361
v 1.534861 4.731933 0.448087
v 1.535230 2.547251 3.636121
v 1.535230 1.440691 3.636121
v 1.318402 2.138932 3.909428
v 1.318402 1.440691 3.909428
v 0.616688 2.138932 4.075512
v 0.399848 2.547251 4.043883
v 0.399848 2.547251 3.912413
v 0.616688 2.138932 4.206983
v 0.967545 1.982967 4.107611
v 0.967545 1.982967 4.239081
v 1.318402 2.138932 3.909428
v 1.318402 2.138932 4.040898
v 1.535230 2.547251 3.636121
v 1.535242 2.547251 3.767591
v 1.534861 4.456264 1.577361
v 1.534861 4.731933 0.448087
v 1.318394 4.631799 1.279427
v 0.967546 4.790148 1.165430
v 0.399840 5.112464 0.448087
v 0.616370 4.836796 1.279620
v 0.399847 4.735631 1.577887
v 0.967545 1.982967 4.107611
v 1.318402 1.440691 3.909428
v 1.318402 2.138932 3.909428
v 0.967545 1.440690 4.107611
v 0.616688 2.138932 4.075512
v 0.616688 1.440690 4.075512
v 0.399848 2.547251 3.912413
v 0.399848 1.440689 3.912413
v 1.535230 1.440691 3.636121
v 0.616688 1.440690 4.075512
v 0.399848 1.440689 3.912413
v 1.318402 1.440691 3.909428
v 0.967545 1.440690 4.107611
v -0.399840 5.112464 0.448087
v -1.534861 1.440689 0.448088
v -1.534861 4.731933 0.448087
v -0.399840 1.440689 0.448087
v -0.399840 1.440689 0.448087
v -1.534861 1.440689 0.448088
v 0.399840 5.112464 0.448087
v 1.534861 1.440689 0.448088
v 0.399840 1.440689 0.448087
v 1.534861 4.731933 0.448087
v 0.399840 1.440689 0.448087
v 1.534861 1.440689 0.448088
v 0.263029 5.020769 1.982725
v -0.263028 5.061085 1.910745
v 0.263029 5.061085 1.910745
v -0.263028 5.020769 1.982725
v -0.263028 5.341871 1.347791
v 0.263029 5.307297 1.421367
v -0.263028 5.307297 1.421368
v 0.263029 5.341871 1.347791
v -0.263029 4.716920 2.454099
v 0.263029 4.665736 2.522265
v -0.263029 4.665736 2.522265
v 0.263029 4.716920 2.454099
v 0.263029 4.215570 3.029344
v -0.263029 4.278489 2.966648
v 0.263029 4.278489 2.966648
v -0.263029 4.215570 3.029344
v 0.263029 2.993910 3.963914
v -0.263029 3.074645 3.913254
v 0.263029 3.074645 3.913254
v -0.263029 2.993910 3.963914
v -0.263029 3.725416 3.456055
v 0.263029 3.652283 3.512537
v -0.263029 3.652283 3.512537
v 0.263029 3.725416 3.456055
v -0.263029 2.376386 4.315011
v 0.263030 2.289622 4.360047
v -0.263029 2.289622 4.360047
v 0.263030 2.376386 4.315011
v -0.318610 4.789406 1.913492
v 0.263029 5.020769 1.982725
v 0.318610 4.789406 1.913492
v -0.263028 5.020769 1.982725
v 0.318610 4.789406 1.913492
v 0.263029 5.061085 1.910745
v 0.318610 4.829721 1.841512
v 0.263029 5.020769 1.982725
v 0.318610 4.829721 1.841512
v -0.263028 5.061085 1.910745
v -0.318610 4.829721 1.841512
v 0.263029 5.061085 1.910745
v -0.318610 4.829721 1.841512
v -0.263028 5.020769 1.982725
v -0.318610 4.789406 1.913492
v -0.263028 5.061085 1.910745
v 0.318610 5.105426 1.288433
v -0.263028 5.341871 1.347791
v -0.318609 5.105426 1.288433
v 0.263029 5.341871 1.347791
v -0.318609 5.105426 1.288433
v -0.263028 5.307297 1.421368
v -0.318609 5.070854 1.362010
v -0.263028 5.341871 1.347791
v -0.318609 5.070854 1.362010
v 0.263029 5.307297 1.421367
v 0.318610 5.070854 1.362010
v -0.263028 5.307297 1.421368
v 0.318610 5.070854 1.362010
v 0.263029 5.341871 1.347791
v 0.318610 5.105426 1.288433
v 0.263029 5.307297 1.421367
v 0.318610 4.497758 2.366179
v -0.263029 4.716920 2.454099
v -0.318610 4.497758 2.366179
v 0.263029 4.716920 2.454099
v -0.318610 4.497758 2.366179
v -0.263029 4.665736 2.522265
v -0.318610 4.446574 2.434345
v -0.263029 4.716920 2.454099
v -0.318610 4.446574 2.434345
v 0.263029 4.665736 2.522265
v 0.318610 4.446574 2.434345
v -0.263029 4.665736 2.522265
v 0.318610 4.446574 2.434345
v 0.263029 4.716920 2.454099
v 0.318610 4.497758 2.366179
v 0.263029 4.665736 2.522265
v -0.318610 4.013988 2.921261
v 0.263029 4.215570 3.029344
v 0.318610 4.013988 2.921261
v -0.263029 4.215570 3.029344
v 0.318610 4.013988 2.921261
v 0.263029 4.278489 2.966648
v 0.318610 4.076908 2.858565
v 0.263029 4.215570 3.029344
v 0.318610 4.076908 2.858565
v -0.263029 4.278489 2.966648
v -0.318610 4.076908 2.858565
v 0.263029 4.278489 2.966648
v -0.318610 4.076908 2.858565
v -0.263029 4.215570 3.029344
v -0.318610 4.013988 2.921261
v -0.263029 4.278489 2.966648
v -0.318610 2.831066 3.825264
v 0.263029 2.993910 3.963914
v 0.318610 2.831066 3.825264
v -0.263029 2.993910 3.963914
v 0.318610 2.831066 3.825264
v 0.263029 3.074645 3.913254
v 0.318610 2.911800 3.774604
v 0.263029 2.993910 3.963914
v 0.318610 2.911800 3.774604
v -0.263029 3.074645 3.913254
v -0.318610 2.911800 3.774604
v 0.263029 3.074645 3.913254
v -0.318610 2.911800 3.774604
v -0.263029 2.993910 3.963914
v -0.318610 2.831066 3.825264
v -0.263029 3.074645 3.913254
v 0.318610 3.543839 3.330448
v -0.263029 3.725416 3.456055
v -0.318610 3.543839 3.330448
v 0.263029 3.725416 3.456055
v -0.318610 3.543839 3.330448
v -0.263029 3.652283 3.512537
v -0.318610 3.470707 3.386930
v -0.263029 3.725416 3.456055
v -0.318610 3.470707 3.386930
v 0.263029 3.652283 3.512537
v 0.318610 3.470707 3.386930
v -0.263029 3.652283 3.512537
v 0.318610 3.470707 3.386930
v 0.263029 3.725416 3.456055
v 0.318610 3.543839 3.330448
v 0.263029 3.652283 3.512537
v 0.318611 2.231637 4.166022
v -0.263029 2.376386 4.315011
v -0.318610 2.231637 4.166022
v 0.263030 2.376386 4.315011
v -0.318610 2.231637 4.166022
v -0.263029 2.289622 4.360047
v -0.318610 2.144872 4.211059
v -0.263029 2.376386 4.315011
v -0.318610 2.144872 4.211059
v 0.263030 2.289622 4.360047
v 0.318611 2.144872 4.211059
v -0.263029 2.289622 4.360047
v 0.318611 2.144872 4.211059
v 0.263030 2.376386 4.315011
v 0.318611 2.231637 4.166022
v 0.263030 2.289622 4.360047
v -3.594201 1.440688 2.866277
v -2.865429 1.187222 3.593129
v -3.593133 1.187222 2.865425
v -2.866281 1.440688 3.594198
v -1.994040 1.187222 4.140660
v -1.994633 1.440688 4.141891
v -1.022662 1.187222 4.480561
v -1.022966 1.440688 4.481893
v 0.000000 1.187222 4.595788
v 0.000000 1.440688 4.597154
v 1.022966 1.440688 4.481893
v 1.022662 1.187222 4.480561
v 1.994633 1.440688 4.141891
v 1.994040 1.187222 4.140660
v 2.866281 1.440688 3.594198
v 2.865429 1.187222 3.593129
v 3.594201 1.440688 2.866277
v 3.593133 1.187222 2.865425
v -3.593133 1.187222 2.865425
v -4.141893 1.440688 1.994627
v -3.594201 1.440688 2.866277
v -4.140663 1.187222 1.994034
v -4.481894 1.440688 1.022959
v -4.480562 1.187222 1.022655
v -4.597154 1.440688 -0.000004
v -4.595788 1.187221 -0.000002
v -4.481893 1.440687 -1.022967
v -4.480561 1.187221 -1.022659
v -4.141890 1.440687 -1.994635
v -4.140662 1.187221 -1.994038
v -3.594196 1.440687 -2.866282
v -3.593131 1.187221 -2.865428
v -3.593131 1.187221 -2.865428
v -3.196857 1.440687 -3.261702
v -3.594196 1.440687 -2.866282
v -3.196857 1.187221 -3.261702
v -2.864578 1.187221 -3.592061
v -2.864578 1.440686 -3.592061
v -1.993448 1.187221 -4.139429
v -1.993448 1.440686 -4.139429
v -1.022358 1.187221 -4.479229
v -1.022358 1.440686 -4.479229
v 0.000000 1.187221 -4.594422
v 0.000000 1.440686 -4.594422
v 1.022358 1.440686 -4.479229
v 1.022358 1.187221 -4.479229
v 1.993448 1.440686 -4.139429
v 1.993448 1.187221 -4.139429
v 2.864578 1.440686 -3.592061
v 2.864578 1.187221 -3.592061
v 3.196857 1.440687 -3.261702
v 3.196857 1.187221 -3.261702
v 3.593131 1.187221 -2.865428
v 3.594196 1.440687 -2.866282
v 4.141893 1.440688 1.994627
v 3.593133 1.187222 2.865425
v 3.594201 1.440688 2.866277
v 4.140663 1.187222 1.994034
v 4.481894 1.440688 1.022959
v 4.480562 1.187222 1.022655
v 4.597154 1.440688 -0.000004
v 4.595788 1.187221 -0.000002
v 4.480561 1.187221 -1.022659
v 4.481893 1.440687 -1.022967
v 4.141890 1.440687 -1.994635
v 4.140662 1.187221 -1.994038
v 3.594196 1.440687 -2.866282
v 3.593131 1.187221 -2.865428
vn -0.3481 0.7563 0.5540
vn -0.4015 0.6562 0.6389
vn -0.4016 0.6348 0.6601
vn -0.4650 0.4860 0.7400
vn -0.3745 0.4927 0.7855
vn -0.2905 0.4761 0.8300
vn -0.3005 0.4152 0.8587
vn -0.3943 0.4174 0.8187
vn -0.4840 0.4152 0.7703
vn -0.2022 0.4174 0.8860
vn -0.2009 0.4174 0.8862
vn -0.0000 0.4174 0.9087
vn -0.1019 0.4152 0.9040
vn -0.0982 0.4805 0.8715
vn -0.0000 0.4883 0.8727
vn -0.0000 0.6586 0.7525
vn -0.0834 0.6669 0.7405
vn -0.0000 0.8313 0.5558
vn -0.0608 0.8397 0.5396
vn -0.0747 0.9060 0.4167
vn -0.0000 0.9510 0.3093
vn -0.1724 0.9103 0.3764
vn 0.0982 0.4805 0.8715
vn 0.0834 0.6669 0.7405
vn 0.1019 0.4152 0.9040
vn 0.0608 0.8397 0.5396
vn 0.2009 0.4174 0.8862
vn 0.0747 0.9060 0.4167
vn 0.2022 0.4174 0.8860
vn 0.3005 0.4152 0.8587
vn 0.3943 0.4174 0.8187
vn 0.1724 0.9103 0.3764
vn 0.3745 0.4927 0.7855
vn 0.2905 0.4761 0.8300
vn 0.4016 0.6348 0.6601
vn 0.4650 0.4860 0.7400
vn 0.4840 0.4152 0.7703
vn 0.4015 0.6562 0.6389
vn 0.3481 0.7563 0.5540
vn 0.1377 0.9483 0.2859
vn -0.0000 0.9949 0.1009
vn 0.2469 0.9499 0.1915
vn 0.2722 0.9088 0.3161
vn 0.3068 0.9009 0.3070
vn -0.1377 0.9483 0.2859
vn -0.2469 0.9499 0.1915
vn -0.2722 0.9088 0.3161
vn -0.3068 0.9009 0.3070
vn 0.3387 0.9042 0.2601
vn 0.3375 0.9019 0.2696
vn 0.3066 0.9007 0.3078
vn 0.3840 0.9044 0.1862
vn 0.2981 0.9506 0.0860
vn 0.4210 0.9020 0.0961
vn 0.3076 0.9509 0.0347
vn 0.5170 0.8556 -0.0261
vn -0.2981 0.9506 0.0860
vn -0.3076 0.9509 0.0347
vn -0.3387 0.9042 0.2601
vn -0.4210 0.9020 0.0961
vn -0.5170 0.8556 -0.0261
vn -0.3843 0.9042 0.1862
vn -0.3375 0.9019 0.2696
vn -0.3066 0.9007 0.3078
vn 0.5171 0.8555 -0.0261
vn 0.7499 0.6562 -0.0845
vn 0.7227 0.6693 -0.1725
vn 0.7208 0.6282 -0.2929
vn 0.8685 0.4859 -0.0979
vn 0.8508 0.4883 -0.1942
vn 0.7862 0.4883 -0.3787
vn 0.7306 0.4636 -0.5013
vn 0.8860 0.4174 -0.2022
vn 0.9040 0.4152 -0.1019
vn 0.8187 0.4174 -0.3943
vn 0.7098 0.4174 -0.5674
vn 0.6418 0.4151 -0.6449
vn -0.4626 0.7563 0.4626
vn -0.5097 0.7583 0.4064
vn -0.5884 0.6585 0.4692
vn -0.5336 0.6562 0.5336
vn -0.6180 0.4860 0.6180
vn -0.6780 0.6585 0.3265
vn -0.5873 0.7583 0.2828
vn -0.7337 0.6585 0.1675
vn -0.6355 0.7583 0.1451
vn -0.7499 0.6562 0.0845
vn -0.6501 0.7563 0.0733
vn -0.8508 0.4883 0.1942
vn -0.8685 0.4859 0.0979
vn -0.7863 0.4883 0.3786
vn -0.8860 0.4174 0.2022
vn -0.9040 0.4152 0.1019
vn -0.8187 0.4174 0.3943
vn -0.7105 0.4174 0.5666
vn -0.6823 0.4883 0.5441
vn -0.6433 0.4152 0.6433
vn -0.9040 0.4152 -0.1019
vn -0.8685 0.4859 -0.0979
vn -0.8860 0.4174 -0.2022
vn -0.8508 0.4884 -0.1942
vn -0.7499 0.6562 -0.0845
vn -0.7862 0.4883 -0.3787
vn -0.8187 0.4174 -0.3943
vn -0.7098 0.4174 -0.5674
vn -0.7306 0.4636 -0.5013
vn -0.6418 0.4151 -0.6449
vn -0.7208 0.6282 -0.2929
vn -0.7227 0.6693 -0.1725
vn -0.5171 0.8555 -0.0261
vn -0.9996 -0.0000 0.0265
vn -0.9998 -0.0026 0.0178
vn -0.9967 0.0444 0.0672
vn -0.9947 0.0642 0.0803
vn -0.9901 0.0401 0.1343
vn -0.9914 -0.0000 0.1311
vn -0.6153 0.7841 0.0814
vn -0.7705 0.6372 0.0143
vn -0.5237 0.8516 0.0247
vn -0.5484 0.8362 0.0030
vn -0.2974 0.9548 0.0011
vn -0.2745 0.9616 0.0007
vn -0.0001 1.0000 0.0002
vn 0.2749 0.9615 0.0010
vn 0.2978 0.9546 0.0008
vn 0.5477 0.8367 0.0022
vn 0.5231 0.8519 0.0253
vn 0.7705 0.6372 0.0143
vn 0.6153 0.7841 0.0814
vn -0.5320 -0.0000 -0.8467
vn -0.4339 -0.0000 -0.9010
vn -0.4064 -0.0000 -0.9137
vn -0.2066 -0.0000 -0.9784
vn -0.2225 -0.0000 -0.9749
vn -0.0000 -0.0000 -1.0000
vn 0.2225 -0.0000 -0.9749
vn 0.2066 -0.0000 -0.9784
vn 0.4339 -0.0000 -0.9010
vn 0.4064 -0.0000 -0.9137
vn 0.5320 -0.0000 -0.8467
vn -0.9749 -0.0000 -0.2225
vn -0.7818 -0.0000 0.6235
vn -0.0000 -0.0000 1.0000
vn 0.7818 -0.0001 0.6235
vn 0.7818 -0.0000 0.6235
vn -0.7819 -0.0000 -0.6234
vn -0.9749 -0.0000 0.2225
vn -0.7819 -0.0000 0.6234
vn -0.7819 -0.0001 0.6234
vn -0.7818 -0.0000 -0.6236
vn 0.7818 -0.0000 -0.6236
vn -0.4339 -0.0000 0.9010
vn 0.4339 -0.0000 0.9010
vn 0.5097 0.7583 0.4064
vn 0.4626 0.7563 0.4626
vn 0.5884 0.6585 0.4692
vn 0.5336 0.6562 0.5336
vn 0.6180 0.4860 0.6180
vn 0.6780 0.6585 0.3265
vn 0.5873 0.7583 0.2828
vn 0.7337 0.6585 0.1675
vn 0.6355 0.7583 0.1451
vn 0.7499 0.6562 0.0845
vn 0.6501 0.7563 0.0733
vn 0.8508 0.4883 0.1942
vn 0.8685 0.4859 0.0979
vn 0.7863 0.4883 0.3786
vn 0.8860 0.4174 0.2022
vn 0.9040 0.4152 0.1019
vn 0.8187 0.4174 0.3943
vn 0.7105 0.4174 0.5666
vn 0.6823 0.4883 0.5441
vn 0.6433 0.4152 0.6433
vn 0.9996 -0.0000 0.0265
vn 0.9967 0.0444 0.0672
vn 0.9998 -0.0026 0.0178
vn 0.9947 0.0642 0.0803
vn 0.9901 0.0401 0.1343
vn 0.9914 -0.0000 0.1311
vn 0.9749 -0.0000 -0.2225
vn 0.7819 -0.0000 -0.6234
vn 0.9749 -0.0000 0.2225
vn 0.7819 -0.0000 0.6234
vn 0.9041 -0.0000 0.4273
vn -0.9041 -0.0000 0.4273
vn -0.3303 -0.0000 -0.9439
vn 0.3303 -0.0000 -0.9439
vn -0.0000 -1.0000 -0.0000
vn -1.0000 -0.0000 -0.0000
vn -0.0000 1.0000 -0.0000
vn 1.0000 -0.0000 -0.0000
vn 0.5883 0.1555 -0.7936
vn 0.5897 0.1573 -0.7921
vn 0.9561 0.0795 -0.2822
vn 0.9559 0.0790 -0.2828
vn 1.0000 0.0044 0.0021
vn 1.0000 0.0036 0.0007
vn 1.0000 0.0029 0.0038
vn 1.0000 0.0025 0.0033
vn 0.9694 -0.1557 0.1900
vn 0.9700 -0.1550 0.1875
vn -0.5882 -0.1551 0.7937
vn -0.5876 -0.1576 0.7937
vn -0.9552 -0.0799 0.2851
vn -0.9550 -0.0795 0.2857
vn -1.0000 -0.0044 -0.0035
vn -1.0000 -0.0027 -0.0032
vn -1.0000 -0.0033 -0.0031
vn -1.0000 -0.0030 -0.0025
vn -0.9687 0.1572 -0.1923
vn -0.9688 0.1581 -0.1907
vn 0.9699 -0.1551 0.1876
vn 0.9693 -0.1557 0.1901
vn 0.6727 -0.5212 0.5252
vn 0.6729 -0.5211 0.5251
vn 0.3669 -0.6921 0.6216
vn 0.3696 -0.6941 0.6178
vn -0.9686 0.1572 -0.1924
vn -0.6776 0.5180 -0.5221
vn -0.6775 0.5183 -0.5219
vn -0.3628 0.6923 -0.6237
vn -0.3600 0.6983 -0.6188
vn -0.5542 -0.7161 0.4243
vn -0.5560 -0.7134 0.4264
vn -0.7711 -0.5857 0.2495
vn -0.7711 -0.5858 0.2495
vn -0.9433 -0.3160 -0.1016
vn -0.9430 -0.3170 -0.1017
vn 0.5599 0.7136 -0.4211
vn 0.5587 0.7116 -0.4259
vn 0.7683 0.5883 -0.2521
vn 0.7682 0.5884 -0.2523
vn 0.9438 0.3145 0.1019
vn 0.9431 0.3156 0.1042
vn -0.9430 -0.3169 -0.1018
vn -0.9507 -0.2193 -0.2193
vn -0.9433 -0.3159 -0.1017
vn -0.9505 -0.2196 -0.2199
vn -0.9545 -0.2476 -0.1661
vn -0.9547 -0.2470 -0.1660
vn -0.8985 -0.1759 -0.4022
vn -0.8986 -0.1737 -0.4030
vn -0.5806 -0.0126 -0.8141
vn -0.5804 -0.0117 -0.8142
vn 0.9432 0.3155 0.1044
vn 0.9507 0.2193 0.2193
vn 0.9505 0.2196 0.2199
vn 0.9545 0.2471 0.1672
vn 0.9546 0.2468 0.1666
vn 0.8976 0.1753 0.4045
vn 0.8986 0.1733 0.4032
vn 0.5834 0.0115 0.8121
vn 0.5832 0.0127 0.8122
vn -0.5805 -0.0126 -0.8142
vn -0.5803 -0.0117 -0.8143
vn -0.0265 0.1093 -0.9937
vn -0.0258 0.1102 -0.9936
vn 0.5882 0.1555 -0.7936
vn 0.5896 0.1573 -0.7923
vn 0.5824 0.0136 0.8128
vn 0.5831 0.0127 0.8123
vn 0.0229 -0.1100 0.9937
vn 0.0233 -0.1110 0.9935
vn -0.5875 -0.1576 0.7937
vn -0.5883 0.1555 -0.7935
vn -0.9561 0.0795 -0.2822
vn -0.5897 0.1573 -0.7921
vn -0.9559 0.0790 -0.2828
vn -1.0000 0.0044 0.0021
vn -1.0000 0.0036 0.0007
vn -1.0000 0.0029 0.0038
vn -1.0000 0.0025 0.0033
vn -0.9694 -0.1557 0.1900
vn -0.9700 -0.1549 0.1876
vn 0.5882 -0.1551 0.7937
vn 0.9552 -0.0799 0.2851
vn 0.5876 -0.1575 0.7937
vn 0.9550 -0.0795 0.2857
vn 1.0000 -0.0044 -0.0035
vn 1.0000 -0.0027 -0.0032
vn 1.0000 -0.0033 -0.0031
vn 1.0000 -0.0030 -0.0025
vn 0.9687 0.1572 -0.1923
vn 0.9688 0.1581 -0.1907
vn -0.9699 -0.1551 0.1878
vn -0.6727 -0.5212 0.5252
vn -0.9693 -0.1557 0.1901
vn -0.6729 -0.5211 0.5251
vn -0.3669 -0.6921 0.6216
vn -0.3696 -0.6941 0.6178
vn 0.6776 0.5180 -0.5221
vn 0.9686 0.1572 -0.1924
vn 0.6775 0.5183 -0.5219
vn 0.3628 0.6924 -0.6237
vn 0.3600 0.6983 -0.6188
vn 0.5542 -0.7161 0.4243
vn 0.7711 -0.5857 0.2495
vn 0.5560 -0.7134 0.4264
vn 0.7711 -0.5858 0.2495
vn 0.9433 -0.3160 -0.1016
vn 0.9430 -0.3170 -0.1017
vn -0.5599 0.7136 -0.4211
vn -0.7683 0.5883 -0.2521
vn -0.5588 0.7118 -0.4256
vn -0.7682 0.5884 -0.2523
vn -0.9438 0.3145 0.1019
vn -0.9431 0.3156 0.1042
vn 0.9430 -0.3169 -0.1018
vn 0.9433 -0.3159 -0.1017
vn 0.9507 -0.2193 -0.2193
vn 0.9505 -0.2196 -0.2199
vn 0.9545 -0.2476 -0.1662
vn 0.9547 -0.2470 -0.1661
vn 0.8985 -0.1759 -0.4022
vn 0.8986 -0.1737 -0.4030
vn 0.5806 -0.0126 -0.8141
vn 0.5804 -0.0117 -0.8142
vn -0.9507 0.2193 0.2193
vn -0.9432 0.3155 0.1044
vn -0.9505 0.2196 0.2199
vn -0.9545 0.2471 0.1672
vn -0.9546 0.2467 0.1667
vn -0.8976 0.1753 0.4045
vn -0.8986 0.1733 0.4032
vn -0.5826 0.0136 0.8127
vn -0.5832 0.0127 0.8122
vn 0.5805 -0.0126 -0.8142
vn 0.0265 0.1093 -0.9937
vn 0.5803 -0.0117 -0.8143
vn 0.0258 0.1102 -0.9936
vn -0.5882 0.1555 -0.7936
vn -0.5895 0.1573 -0.7923
vn -0.5824 0.0136 0.8128
vn -0.0229 -0.1099 0.9937
vn -0.5831 0.0127 0.8123
vn -0.0233 -0.1110 0.9935
vn 0.5875 -0.1576 0.7937
vn -0.0056 0.6633 0.7483
vn -0.0065 0.6634 0.7482
vn -0.0061 0.8374 0.5465
vn -0.0593 0.4895 0.8700
vn -0.0080 0.8370 0.5471
vn -0.0575 0.4895 0.8701
vn -0.0396 0.9182 0.3940
vn -0.1040 0.4145 0.9041
vn -0.0406 0.9186 0.3931
vn -0.1057 0.4133 0.9044
vn -0.1258 0.9454 0.3006
vn -0.2027 0.4072 0.8906
vn -0.1262 0.9467 0.2963
vn -0.1994 0.4064 0.8916
vn -0.2742 0.9347 0.2261
vn -0.3066 0.4112 0.8584
vn -0.2736 0.9352 0.2249
vn -0.3076 0.4120 0.8577
vn -0.3547 0.9041 0.2382
vn -0.3571 0.9032 0.2380
vn -0.4195 0.8323 0.3623
vn -0.4225 0.8309 0.3621
vn -0.4469 0.7427 0.4987
vn -0.4476 0.7422 0.4988
vn -0.3567 0.4799 0.8015
vn -0.3571 0.4783 0.8023
vn -0.4311 0.6389 0.6372
vn -0.4318 0.6388 0.6368
vn 0.0056 0.6633 0.7483
vn 0.0060 0.8374 0.5465
vn 0.0065 0.6634 0.7482
vn 0.0593 0.4895 0.8700
vn 0.0080 0.8370 0.5471
vn 0.0575 0.4895 0.8701
vn 0.0396 0.9182 0.3940
vn 0.1039 0.4144 0.9041
vn 0.0406 0.9186 0.3931
vn 0.1057 0.4133 0.9044
vn 0.1258 0.9454 0.3006
vn 0.2027 0.4072 0.8906
vn 0.1264 0.9467 0.2962
vn 0.1995 0.4064 0.8916
vn 0.2742 0.9347 0.2261
vn 0.3065 0.4110 0.8585
vn 0.2736 0.9352 0.2249
vn 0.3076 0.4120 0.8577
vn 0.3547 0.9041 0.2382
vn 0.3571 0.9032 0.2380
vn 0.4195 0.8323 0.3623
vn 0.4225 0.8309 0.3621
vn 0.4469 0.7427 0.4987
vn 0.4476 0.7422 0.4988
vn 0.3567 0.4799 0.8015
vn 0.3572 0.4783 0.8023
vn 0.4311 0.6389 0.6372
vn 0.4318 0.6388 0.6368
vn -0.1050 0.9909 -0.0837
vn -0.1302 0.9910 -0.0297
vn -0.1309 0.9909 0.0299
vn -0.0579 0.9910 -0.1203
vn -0.1044 0.9910 0.0833
vn -0.0000 0.9909 -0.1343
vn -0.0583 0.9909 0.1210
vn 0.0579 0.9910 -0.1203
vn -0.0000 0.9910 0.1336
vn 0.1050 0.9909 -0.0837
vn 0.0583 0.9909 0.1210
vn 0.1302 0.9910 -0.0297
vn 0.1044 0.9910 0.0833
vn 0.1309 0.9909 0.0299
vn -0.5782 -0.0000 0.8159
vn -0.0440 -0.0000 0.9990
vn -0.5961 -0.0000 0.8029
vn 0.0382 -0.0000 0.9993
vn 0.5326 -0.0000 0.8464
vn 0.6393 -0.0000 0.7690
vn -0.5962 -0.0000 0.8028
vn -0.9643 -0.0000 0.2647
vn -0.5783 -0.0000 0.8158
vn -0.9319 -0.0000 0.3627
vn -0.9887 0.1501 -0.0000
vn -0.9433 0.3321 -0.0000
vn -0.8947 -0.0000 -0.4466
vn -0.9789 -0.0000 -0.2043
vn 0.9231 -0.0000 0.3847
vn 0.6394 -0.0000 0.7688
vn 0.9701 -0.0001 0.2428
vn 1.0000 -0.0000 0.0007
vn 1.0000 -0.0001 0.0005
vn 1.0000 0.0001 0.0001
vn 0.9919 0.1268 0.0001
vn 0.9375 0.3480 0.0001
vn 1.0000 -0.0000 0.0001
vn 1.0000 -0.0002 0.0005
vn 0.9845 -0.0000 -0.1756
vn 0.9443 -0.0000 -0.3290
vn 0.6896 -0.0000 -0.7242
vn 0.6497 -0.0000 -0.7602
vn -0.9887 0.1502 -0.0000
vn -0.7386 0.6741 -0.0000
vn -0.9432 0.3322 -0.0000
vn -0.6595 0.7517 -0.0000
vn 0.0485 0.9988 -0.0000
vn -0.0702 0.9975 -0.0000
vn 0.7805 0.6252 -0.0000
vn 0.6044 0.7967 -0.0000
vn 0.9375 0.3481 0.0001
vn 0.3410 -0.9212 -0.1874
vn 0.3911 -0.8961 -0.2098
vn 0.4189 -0.8821 -0.2153
vn 0.2923 -0.9332 -0.2089
vn 0.2357 -0.9466 -0.2199
vn 0.0805 -0.9522 -0.2947
vn -0.0074 -0.9486 -0.3164
vn 0.6894 -0.0000 -0.7243
vn 0.2067 -0.0000 -0.9784
vn 0.2099 -0.0000 -0.9777
vn -0.4410 -0.0000 -0.8975
vn -0.3598 -0.0000 -0.9330
vn -0.9789 -0.0001 -0.2042
vn 0.5782 -0.0000 0.8159
vn 0.5961 -0.0000 0.8029
vn 0.0440 -0.0000 0.9990
vn -0.0382 -0.0000 0.9993
vn -0.5326 -0.0000 0.8464
vn -0.6393 -0.0000 0.7690
vn 0.5962 -0.0000 0.8028
vn 0.5783 -0.0000 0.8158
vn 0.9643 -0.0000 0.2647
vn 0.9319 -0.0000 0.3627
vn 0.9887 0.1501 -0.0000
vn 0.9433 0.3321 -0.0000
vn 0.8947 -0.0000 -0.4466
vn 0.9789 -0.0000 -0.2043
vn -0.6394 -0.0000 0.7688
vn -0.9231 -0.0000 0.3847
vn -0.9701 -0.0001 0.2428
vn -1.0000 -0.0000 0.0007
vn -1.0000 -0.0001 0.0005
vn -1.0000 0.0001 0.0001
vn -0.9919 0.1268 0.0001
vn -0.9375 0.3480 0.0001
vn -1.0000 -0.0000 0.0001
vn -1.0000 -0.0002 0.0005
vn -0.9845 -0.0000 -0.1756
vn -0.9443 -0.0000 -0.3290
vn -0.6896 -0.0000 -0.7242
vn -0.6497 -0.0000 -0.7602
vn 0.9887 0.1502 -0.0000
vn 0.9432 0.3322 -0.0000
vn 0.7386 0.6741 -0.0000
vn 0.6595 0.7517 -0.0000
vn -0.0485 0.9988 -0.0000
vn 0.0702 0.9975 -0.0000
vn -0.7805 0.6252 -0.0000
vn -0.6044 0.7967 -0.0000
vn -0.9375 0.3481 0.0001
vn -0.3911 -0.8961 -0.2098
vn -0.3410 -0.9212 -0.1874
vn -0.4189 -0.8821 -0.2153
vn -0.2923 -0.9332 -0.2089
vn -0.2357 -0.9466 -0.2199
vn -0.0805 -0.9522 -0.2947
vn 0.0074 -0.9486 -0.3164
vn -0.6894 -0.0000 -0.7243
vn -0.2067 -0.0000 -0.9784
vn -0.2099 -0.0000 -0.9777
vn 0.4410 -0.0000 -0.8975
vn 0.3598 -0.0000 -0.9330
vn 0.9789 -0.0000 -0.2042
vn -0.0000 0.8725 0.4887
vn -0.0000 0.9051 0.4253
vn -0.0000 0.7997 0.6004
vn -0.0000 0.7058 0.7084
vn -0.0000 0.7059 0.7084
vn -0.0000 0.5315 0.8471
vn -0.0000 0.6112 0.7914
vn -0.0000 0.4607 0.8876
vn -0.0000 -0.2867 0.9580
vn 0.9733 0.2003 0.1122
vn -0.0000 0.2867 -0.9580
vn -0.9733 0.2003 0.1122
vn -0.0000 0.2435 -0.9699
vn -0.9741 0.2048 0.0962
vn -0.0000 -0.2435 0.9699
vn 0.9741 0.2048 0.0962
vn -0.0000 0.3723 -0.9281
vn -0.9716 0.1894 0.1422
vn -0.0000 -0.3723 0.9281
vn 0.9716 0.1894 0.1422
vn -0.0000 -0.4725 0.8813
vn 0.9692 0.1737 0.1744
vn -0.0000 0.4725 -0.8813
vn -0.9692 0.1737 0.1744
vn -0.0000 -0.6483 0.7614
vn 0.9648 0.1397 0.2227
vn -0.0000 0.6483 -0.7614
vn -0.9648 0.1397 0.2227
vn -0.0000 0.5689 -0.8224
vn -0.9668 0.1561 0.2021
vn -0.0000 -0.5689 0.8224
vn 0.9668 0.1561 0.2021
vn -0.0000 0.7172 -0.6968
vn -0.9631 0.1240 0.2388
vn -0.0000 -0.7172 0.6968
vn 0.9631 0.1240 0.2388
vn -0.7818 -0.0054 0.6235
vn -0.6235 -0.0054 0.7818
vn -0.4339 -0.0054 0.9010
vn -0.2225 -0.0054 0.9749
vn -0.0000 -0.0054 1.0000
vn 0.2225 -0.0054 0.9749
vn 0.4339 -0.0054 0.9010
vn 0.6235 -0.0054 0.7818
vn 0.7818 -0.0054 0.6235
vn -0.9010 -0.0054 0.4339
vn -0.9749 -0.0054 0.2225
vn -1.0000 -0.0054 -0.0000
vn -0.9749 -0.0054 -0.2225
vn -0.9010 -0.0054 -0.4339
vn -0.7811 -0.0054 -0.6244
vn -0.7812 -0.0048 -0.6242
vn -0.7810 -0.0054 -0.6245
vn -0.7058 -0.0007 -0.7084
vn -0.7061 -0.0000 -0.7081
vn -0.6224 -0.0000 -0.7827
vn 0.6224 -0.0000 -0.7827
vn 0.7058 -0.0007 -0.7084
vn 0.7061 -0.0000 -0.7081
vn 0.7812 -0.0048 -0.6242
vn 0.7810 -0.0054 -0.6245
vn 0.9010 -0.0054 0.4339
vn 0.9749 -0.0054 0.2225
vn 1.0000 -0.0054 -0.0000
vn 0.9749 -0.0054 -0.2225
vn 0.9010 -0.0054 -0.4339
vn 0.7811 -0.0054 -0.6244
vt 0.483740 0.602987
vt 0.478993 0.596766
vt 0.483740 0.593650
vt 0.472999 0.588914
vt 0.481210 0.583524
vt 0.483740 0.582599
vt 0.486037 0.579574
vt 0.478875 0.578457
vt 0.469643 0.584517
vt 0.489166 0.574694
vt 0.489753 0.577381
vt 0.500000 0.573419
vt 0.493469 0.577736
vt 0.495765 0.579541
vt 0.500000 0.579043
vt 0.500000 0.589086
vt 0.495765 0.589585
vt 0.500000 0.599792
vt 0.495765 0.600290
vt 0.495765 0.606829
vt 0.500000 0.611726
vt 0.493472 0.610130
vt 0.504235 0.579541
vt 0.504235 0.589585
vt 0.506531 0.577736
vt 0.504235 0.600290
vt 0.510247 0.577381
vt 0.504235 0.606829
vt 0.510834 0.574694
vt 0.513963 0.579574
vt 0.521125 0.578457
vt 0.506528 0.610130
vt 0.518790 0.583524
vt 0.516260 0.582599
vt 0.516260 0.593650
vt 0.527001 0.588914
vt 0.530357 0.584517
vt 0.521007 0.596766
vt 0.516260 0.602987
vt 0.505217 0.612970
vt 0.500000 0.624290
vt 0.509402 0.616456
vt 0.510247 0.611393
vt 0.513963 0.610132
vt 0.494783 0.612970
vt 0.490599 0.616456
vt 0.489753 0.611393
vt 0.486037 0.610132
vt 0.515307 0.611536
vt 0.518332 0.609015
vt 0.516255 0.606835
vt 0.521125 0.613660
vt 0.511724 0.621494
vt 0.522859 0.618838
vt 0.512025 0.624290
vt 0.523447 0.624290
vt 0.488277 0.621494
vt 0.487975 0.624290
vt 0.484693 0.611536
vt 0.477141 0.618838
vt 0.476553 0.624290
vt 0.478875 0.613660
vt 0.481668 0.609015
vt 0.483745 0.606835
vt 0.533693 0.624290
vt 0.532849 0.632123
vt 0.530357 0.639564
vt 0.543306 0.624290
vt 0.542220 0.634358
vt 0.539017 0.643922
vt 0.533858 0.652501
vt 0.547468 0.635610
vt 0.548688 0.624290
vt 0.543867 0.646362
vt 0.538066 0.656007
vt 0.533858 0.660383
vt 0.473658 0.602341
vt 0.469643 0.609015
vt 0.467152 0.616456
vt 0.466307 0.624290
vt 0.457780 0.614221
vt 0.456694 0.624290
vt 0.460983 0.604658
vt 0.452533 0.612970
vt 0.451312 0.624290
vt 0.456133 0.602218
vt 0.461934 0.592572
vt 0.466142 0.596079
vt 0.452533 0.635610
vt 0.457780 0.634358
vt 0.460983 0.643922
vt 0.456134 0.646362
vt 0.461934 0.656007
vt 0.466142 0.652501
vt 0.466142 0.660383
vt 0.469643 0.639564
vt 0.467152 0.632123
vt 0.331066 0.471033
vt 0.339617 0.471033
vt 0.331066 0.518203
vt 0.347499 0.490762
vt 0.360436 0.514338
vt 0.360436 0.518203
vt 0.465925 0.668934
vt 0.476287 0.675737
vt 0.487839 0.679960
vt 0.500000 0.681391
vt 0.512161 0.679960
vt 0.523713 0.675737
vt 0.534075 0.668934
vt 0.534075 0.471033
vt 0.534075 0.518203
vt 0.523713 0.471033
vt 0.523713 0.533031
vt 0.512161 0.542235
vt 0.512161 0.471033
vt 0.500000 0.545356
vt 0.500000 0.471033
vt 0.487839 0.471033
vt 0.487839 0.542235
vt 0.476287 0.471033
vt 0.476287 0.533031
vt 0.465925 0.518203
vt 0.465925 0.471033
vt 0.328851 0.534881
vt 0.332806 0.534881
vt 0.328851 0.546535
vt 0.332806 0.546535
vt 0.337738 0.534881
vt 0.337738 0.546535
vt 0.495638 0.534881
vt 0.500000 0.534881
vt 0.495638 0.546535
vt 0.500000 0.546535
vt 0.504362 0.546535
vt 0.504362 0.534881
vt 0.329961 0.546535
vt 0.332617 0.546535
vt 0.329961 0.550280
vt 0.332617 0.550280
vt 0.335582 0.550280
vt 0.335582 0.546535
vt 0.338268 0.546535
vt 0.338268 0.550280
vt 0.504971 0.546535
vt 0.504971 0.550280
vt 0.502774 0.546535
vt 0.502774 0.550280
vt 0.500000 0.550280
vt 0.497226 0.546535
vt 0.497226 0.550280
vt 0.495028 0.550280
vt 0.495028 0.546535
vt 0.495002 0.550280
vt 0.495002 0.546535
vt 0.497241 0.550280
vt 0.497241 0.546535
vt 0.502759 0.550280
vt 0.502759 0.546535
vt 0.504999 0.546535
vt 0.504999 0.550280
vt 0.526343 0.602341
vt 0.530357 0.609015
vt 0.532849 0.616456
vt 0.542220 0.614221
vt 0.539017 0.604658
vt 0.547468 0.612970
vt 0.543867 0.602218
vt 0.538066 0.592572
vt 0.533858 0.596079
vt 0.668934 0.471033
vt 0.668934 0.518203
vt 0.660383 0.471033
vt 0.652501 0.490762
vt 0.639564 0.514338
vt 0.639564 0.518203
vt 0.671149 0.534881
vt 0.671149 0.546535
vt 0.667194 0.534881
vt 0.667194 0.546535
vt 0.662262 0.534881
vt 0.662262 0.546535
vt 0.670039 0.546535
vt 0.670039 0.550280
vt 0.667383 0.546535
vt 0.667383 0.550280
vt 0.664418 0.550280
vt 0.664418 0.546535
vt 0.661732 0.546535
vt 0.661732 0.550280
vt 0.523447 0.529165
vt 0.523447 0.533031
vt 0.512025 0.538370
vt 0.512025 0.542235
vt 0.500000 0.541490
vt 0.487975 0.538370
vt 0.487975 0.542235
vt 0.476553 0.529165
vt 0.476553 0.533031
vt 0.624290 0.529165
vt 0.624290 0.533031
vt 0.375710 0.529165
vt 0.375710 0.533031
vt 0.502421 0.534881
vt 0.502421 0.546535
vt 0.497579 0.534881
vt 0.497579 0.546535
vt 0.517937 0.477002
vt 0.517937 0.522383
vt 0.512161 0.477002
vt 0.512161 0.522383
vt 0.500000 0.522383
vt 0.500000 0.477002
vt 0.487839 0.477002
vt 0.487839 0.522383
vt 0.482063 0.522383
vt 0.482063 0.477002
vt 0.517937 0.677009
vt 0.517937 0.679657
vt 0.512161 0.679121
vt 0.512161 0.681768
vt 0.500000 0.680552
vt 0.500000 0.683200
vt 0.487839 0.679121
vt 0.487839 0.681768
vt 0.482063 0.677009
vt 0.482063 0.679657
vt 0.322991 0.522383
vt 0.320343 0.522383
vt 0.322991 0.477002
vt 0.320343 0.477002
vt 0.677009 0.477002
vt 0.679657 0.477002
vt 0.677009 0.522383
vt 0.679657 0.522383
vt 0.611143 0.534361
vt 0.610741 0.538601
vt 0.607408 0.532334
vt 0.606828 0.536476
vt 0.600715 0.527207
vt 0.599861 0.531141
vt 0.590212 0.512659
vt 0.588952 0.516032
vt 0.578534 0.491634
vt 0.580114 0.489015
vt 0.390883 0.537514
vt 0.390481 0.533274
vt 0.393749 0.535934
vt 0.393170 0.531792
vt 0.400135 0.531123
vt 0.399281 0.527189
vt 0.411042 0.516016
vt 0.409782 0.512643
vt 0.419451 0.489889
vt 0.421031 0.492508
vt 0.503272 0.580114
vt 0.503316 0.578534
vt 0.505833 0.578069
vt 0.506016 0.576416
vt 0.510159 0.577681
vt 0.510527 0.575989
vt 0.494803 0.578969
vt 0.494847 0.580549
vt 0.492771 0.577404
vt 0.492953 0.579058
vt 0.489664 0.577082
vt 0.490033 0.578773
vt 0.514356 0.580136
vt 0.514891 0.578560
vt 0.516809 0.583401
vt 0.517471 0.581959
vt 0.486430 0.579012
vt 0.486964 0.580589
vt 0.484290 0.581796
vt 0.484952 0.583238
vt 0.418041 0.491159
vt 0.406679 0.515331
vt 0.416599 0.488590
vt 0.405591 0.512044
vt 0.396451 0.522832
vt 0.397256 0.526452
vt 0.392497 0.526740
vt 0.393037 0.530631
vt 0.388857 0.530213
vt 0.389209 0.534306
vt 0.581796 0.492933
vt 0.583238 0.490364
vt 0.592890 0.516631
vt 0.593978 0.513344
vt 0.602424 0.527882
vt 0.603230 0.524262
vt 0.606168 0.531569
vt 0.606708 0.527678
vt 0.609121 0.534353
vt 0.609473 0.530260
vt 0.514277 0.530213
vt 0.514797 0.534306
vt 0.510082 0.533387
vt 0.510468 0.537585
vt 0.505874 0.534361
vt 0.506026 0.538601
vt 0.486351 0.534353
vt 0.486871 0.530260
vt 0.489587 0.536825
vt 0.489974 0.532627
vt 0.492818 0.537514
vt 0.492970 0.533274
vt 0.388672 0.534361
vt 0.392408 0.532334
vt 0.389075 0.538601
vt 0.392987 0.536476
vt 0.399100 0.527207
vt 0.399954 0.531141
vt 0.409604 0.512659
vt 0.410864 0.516032
vt 0.421282 0.491634
vt 0.419701 0.489015
vt 0.609301 0.537514
vt 0.606436 0.535934
vt 0.609704 0.533274
vt 0.607015 0.531792
vt 0.600050 0.531123
vt 0.600904 0.527189
vt 0.589142 0.516016
vt 0.590402 0.512643
vt 0.580734 0.489889
vt 0.579154 0.492508
vt 0.496728 0.580299
vt 0.494166 0.578254
vt 0.496684 0.578718
vt 0.493984 0.576600
vt 0.489841 0.577866
vt 0.489473 0.576174
vt 0.505197 0.579154
vt 0.507229 0.577588
vt 0.505153 0.580734
vt 0.507047 0.579242
vt 0.510336 0.577267
vt 0.509967 0.578958
vt 0.485644 0.580321
vt 0.485109 0.578745
vt 0.483191 0.583586
vt 0.482529 0.582144
vt 0.513570 0.579197
vt 0.513036 0.580774
vt 0.515710 0.581981
vt 0.515048 0.583423
vt 0.582144 0.491159
vt 0.583586 0.488590
vt 0.593505 0.515331
vt 0.594593 0.512044
vt 0.603734 0.522832
vt 0.602929 0.526452
vt 0.607688 0.526740
vt 0.607148 0.530631
vt 0.611328 0.530213
vt 0.610976 0.534306
vt 0.418019 0.492933
vt 0.406925 0.516631
vt 0.416577 0.490364
vt 0.405837 0.513344
vt 0.397391 0.527882
vt 0.396585 0.524262
vt 0.393647 0.531569
vt 0.393107 0.527678
vt 0.390694 0.534353
vt 0.390342 0.530260
vt 0.485723 0.530213
vt 0.489918 0.533387
vt 0.485203 0.534306
vt 0.489531 0.537585
vt 0.494126 0.534361
vt 0.493974 0.538601
vt 0.513649 0.534353
vt 0.510413 0.536825
vt 0.513129 0.530260
vt 0.510026 0.532627
vt 0.507182 0.537514
vt 0.507030 0.533274
vt 0.500000 0.665897
vt 0.504971 0.670039
vt 0.502774 0.671915
vt 0.500000 0.672540
vt 0.506233 0.667383
vt 0.497226 0.671915
vt 0.506199 0.664418
vt 0.495028 0.670039
vt 0.504998 0.661732
vt 0.493767 0.667383
vt 0.502759 0.659911
vt 0.493801 0.664418
vt 0.500000 0.659217
vt 0.495001 0.661732
vt 0.497241 0.659911
vt 0.494820 0.588958
vt 0.496702 0.588952
vt 0.494820 0.599865
vt 0.496702 0.599861
vt 0.496684 0.578534
vt 0.494804 0.606251
vt 0.493984 0.576416
vt 0.496685 0.606828
vt 0.492818 0.609117
vt 0.489473 0.575989
vt 0.493974 0.610741
vt 0.489587 0.610225
vt 0.485109 0.578560
vt 0.489532 0.612266
vt 0.486351 0.609121
vt 0.485203 0.610791
vt 0.484280 0.606168
vt 0.482527 0.606963
vt 0.484269 0.602424
vt 0.482520 0.602744
vt 0.482529 0.581959
vt 0.484269 0.592890
vt 0.482520 0.593321
vt 0.505180 0.589142
vt 0.505180 0.600050
vt 0.503298 0.589136
vt 0.503298 0.600046
vt 0.503316 0.578718
vt 0.505197 0.606436
vt 0.506016 0.576600
vt 0.503315 0.607013
vt 0.507182 0.609301
vt 0.510527 0.576174
vt 0.506026 0.610925
vt 0.510413 0.610409
vt 0.514891 0.578745
vt 0.510469 0.612451
vt 0.513649 0.609306
vt 0.514797 0.610976
vt 0.515720 0.606353
vt 0.517473 0.607148
vt 0.515731 0.602609
vt 0.517481 0.602929
vt 0.517471 0.582144
vt 0.515731 0.593075
vt 0.517481 0.593505
vt 0.495029 0.670039
vt 0.495002 0.661732
vt 0.504972 0.670039
vt 0.504999 0.661732
vt 0.493472 0.535938
vt 0.489753 0.535106
vt 0.493472 0.531581
vt 0.489753 0.530749
vt 0.486037 0.532283
vt 0.486037 0.527926
vt 0.389870 0.531581
vt 0.393171 0.529777
vt 0.389870 0.535938
vt 0.393171 0.534134
vt 0.399710 0.529165
vt 0.399218 0.526280
vt 0.410415 0.514338
vt 0.409417 0.512972
vt 0.419004 0.490762
vt 0.420459 0.490762
vt 0.380669 0.471033
vt 0.380669 0.536496
vt 0.419004 0.471033
vt 0.610132 0.532283
vt 0.606835 0.529154
vt 0.610132 0.527926
vt 0.606835 0.524797
vt 0.602987 0.525357
vt 0.603350 0.522088
vt 0.593650 0.514338
vt 0.594560 0.512709
vt 0.584054 0.490762
vt 0.582599 0.490762
vt 0.619331 0.471033
vt 0.619331 0.529711
vt 0.584054 0.471033
vt 0.581029 0.483482
vt 0.581029 0.471033
vt 0.495765 0.580996
vt 0.493469 0.579191
vt 0.489753 0.578836
vt 0.486037 0.581029
vt 0.483741 0.584054
vt 0.516256 0.619331
vt 0.516256 0.606835
vt 0.504235 0.619331
vt 0.513963 0.483482
vt 0.510247 0.480701
vt 0.513963 0.471033
vt 0.510247 0.471033
vt 0.506531 0.483482
vt 0.506531 0.471033
vt 0.504235 0.490762
vt 0.504235 0.471033
vt 0.530339 0.664038
vt 0.521112 0.670095
vt 0.510828 0.673855
vt 0.500000 0.675130
vt 0.489172 0.673855
vt 0.478887 0.670095
vt 0.469661 0.664038
vt 0.506528 0.535938
vt 0.506528 0.531581
vt 0.510247 0.535106
vt 0.510247 0.530749
vt 0.513963 0.532283
vt 0.513963 0.527926
vt 0.610130 0.531581
vt 0.610130 0.535938
vt 0.606829 0.529777
vt 0.606829 0.534134
vt 0.600290 0.529165
vt 0.600782 0.526280
vt 0.589585 0.514338
vt 0.590583 0.512972
vt 0.580996 0.490762
vt 0.579541 0.490762
vt 0.619331 0.536496
vt 0.580996 0.471033
vt 0.389868 0.532283
vt 0.389868 0.527926
vt 0.393165 0.529154
vt 0.393165 0.524797
vt 0.397013 0.525357
vt 0.396650 0.522088
vt 0.406350 0.514338
vt 0.405440 0.512709
vt 0.415946 0.490762
vt 0.417401 0.490762
vt 0.380669 0.529711
vt 0.415946 0.471033
vt 0.418971 0.483482
vt 0.418971 0.471033
vt 0.504235 0.580996
vt 0.506531 0.579191
vt 0.510247 0.578836
vt 0.513963 0.581029
vt 0.516260 0.584054
vt 0.483744 0.619331
vt 0.483744 0.606835
vt 0.495765 0.619331
vt 0.486037 0.483482
vt 0.486037 0.471033
vt 0.489753 0.480701
vt 0.489753 0.471033
vt 0.493469 0.483482
vt 0.493469 0.471033
vt 0.495765 0.490762
vt 0.495765 0.471033
vt 0.483744 0.529711
vt 0.483744 0.471033
vt 0.495765 0.536496
vt 0.516256 0.471033
vt 0.504235 0.536496
vt 0.516256 0.529711
vt 0.502786 0.603146
vt 0.497214 0.603146
vt 0.502786 0.602349
vt 0.497214 0.602349
vt 0.497214 0.608561
vt 0.502786 0.608561
vt 0.497214 0.609375
vt 0.502786 0.609375
vt 0.497214 0.596379
vt 0.502786 0.596379
vt 0.497214 0.597133
vt 0.502786 0.597133
vt 0.502786 0.591462
vt 0.497214 0.591462
vt 0.502786 0.590768
vt 0.497214 0.590768
vt 0.502786 0.580987
vt 0.497214 0.580987
vt 0.502786 0.580426
vt 0.497214 0.580426
vt 0.497214 0.585421
vt 0.502786 0.585421
vt 0.497214 0.586046
vt 0.502786 0.586046
vt 0.497214 0.576043
vt 0.502786 0.576043
vt 0.497214 0.576541
vt 0.502786 0.576541
vt 0.503374 0.530736
vt 0.502786 0.534861
vt 0.496626 0.530736
vt 0.497214 0.534861
vt 0.603912 0.531455
vt 0.603146 0.535580
vt 0.603116 0.530736
vt 0.602349 0.534861
vt 0.503374 0.531455
vt 0.502786 0.535580
vt 0.496626 0.531455
vt 0.497214 0.535580
vt 0.396884 0.530736
vt 0.397651 0.534861
vt 0.396088 0.531455
vt 0.396854 0.535580
vt 0.503374 0.536370
vt 0.502786 0.540586
vt 0.496626 0.536370
vt 0.497214 0.540586
vt 0.390782 0.535754
vt 0.391439 0.539969
vt 0.389968 0.536370
vt 0.390625 0.540586
vt 0.503374 0.535754
vt 0.502786 0.539969
vt 0.496626 0.535754
vt 0.497214 0.539969
vt 0.610032 0.536370
vt 0.609375 0.540586
vt 0.609218 0.535754
vt 0.608561 0.539969
vt 0.496626 0.598106
vt 0.503374 0.598106
vt 0.402648 0.524624
vt 0.403621 0.528531
vt 0.401894 0.525536
vt 0.402867 0.529444
vt 0.496626 0.597352
vt 0.503374 0.597352
vt 0.598106 0.525536
vt 0.597133 0.529444
vt 0.597352 0.524624
vt 0.596379 0.528531
vt 0.496626 0.591964
vt 0.503374 0.591964
vt 0.592658 0.518033
vt 0.591462 0.521627
vt 0.591964 0.516912
vt 0.590768 0.520505
vt 0.496626 0.592658
vt 0.503374 0.592658
vt 0.408036 0.516912
vt 0.409232 0.520505
vt 0.407342 0.518033
vt 0.408538 0.521627
vt 0.496626 0.581960
vt 0.503374 0.581960
vt 0.582521 0.497261
vt 0.580987 0.500164
vt 0.581960 0.495822
vt 0.580426 0.498725
vt 0.496626 0.582521
vt 0.503374 0.582521
vt 0.418040 0.495822
vt 0.419574 0.498725
vt 0.417479 0.497261
vt 0.419013 0.500164
vt 0.496626 0.587436
vt 0.503374 0.587436
vt 0.413189 0.507226
vt 0.414579 0.510463
vt 0.412564 0.508529
vt 0.413954 0.511767
vt 0.496626 0.586811
vt 0.503374 0.586811
vt 0.587436 0.508529
vt 0.586046 0.511767
vt 0.586811 0.507226
vt 0.585421 0.510463
vt 0.496626 0.578190
vt 0.503374 0.578190
vt 0.422309 0.483588
vt 0.423957 0.486169
vt 0.421810 0.485135
vt 0.423459 0.487715
vt 0.496626 0.577691
vt 0.503374 0.577691
vt 0.578190 0.485135
vt 0.576541 0.487715
vt 0.577691 0.483588
vt 0.576043 0.486169
vt 0.461945 0.466514
vt 0.469652 0.466514
vt 0.461934 0.471033
vt 0.469643 0.471033
vt 0.478881 0.466514
vt 0.478875 0.471033
vt 0.489169 0.466514
vt 0.489166 0.471033
vt 0.500000 0.466514
vt 0.510834 0.471033
vt 0.510831 0.466514
vt 0.521125 0.471033
vt 0.521119 0.466514
vt 0.530357 0.471033
vt 0.530348 0.466514
vt 0.538066 0.471033
vt 0.538055 0.466514
vt 0.407428 0.471033
vt 0.397782 0.471033
vt 0.407418 0.466514
vt 0.397776 0.466514
vt 0.387030 0.471033
vt 0.387027 0.466514
vt 0.375710 0.471033
vt 0.375710 0.466514
vt 0.364390 0.471033
vt 0.364394 0.466514
vt 0.353638 0.471033
vt 0.353645 0.466514
vt 0.343993 0.471033
vt 0.344002 0.466514
vt 0.533858 0.471033
vt 0.533858 0.466514
vt 0.530339 0.466514
vt 0.530339 0.471033
vt 0.521112 0.466514
vt 0.521112 0.471033
vt 0.510828 0.466514
vt 0.510828 0.471033
vt 0.489172 0.471033
vt 0.489172 0.466514
vt 0.478887 0.471033
vt 0.478887 0.466514
vt 0.469661 0.471033
vt 0.469661 0.466514
vt 0.466142 0.471033
vt 0.466142 0.466514
vt 0.592572 0.471033
vt 0.592582 0.466514
vt 0.602218 0.471033
vt 0.602224 0.466514
vt 0.612970 0.471033
vt 0.612973 0.466514
vt 0.624290 0.471033
vt 0.624290 0.466514
vt 0.635606 0.466514
vt 0.635610 0.471033
vt 0.646362 0.471033
vt 0.646355 0.466514
vt 0.656007 0.471033
vt 0.655998 0.466514
s 1
f 3/1/1 2/2/2 1/3/3
f 2/2/2 4/4/4 1/3/3
f 5/5/5 1/3/3 4/4/4
f 1/3/3 5/5/5 6/6/6
f 6/6/6 5/5/5 7/7/7
f 5/5/5 4/4/4 8/8/8
f 8/8/8 7/7/7 5/5/5
f 9/9/9 8/8/8 4/4/4
f 8/8/8 10/10/10 7/7/7
f 11/11/11 7/7/7 10/10/10
f 10/10/10 12/12/12 11/11/11
f 13/13/13 11/11/11 12/12/12
f 13/13/13 12/12/12 14/14/14
f 15/15/15 14/14/14 12/12/12
f 15/15/15 16/16/16 14/14/14
f 17/17/17 14/14/14 16/16/16
f 16/16/16 18/18/18 17/17/17
f 19/19/19 17/17/17 18/18/18
f 20/20/20 19/19/19 18/18/18
f 21/21/21 20/20/20 18/18/18
f 20/20/20 21/21/21 22/22/22
f 15/15/15 23/23/23 16/16/16
f 15/15/15 12/12/12 23/23/23
f 24/24/24 16/16/16 23/23/23
f 16/16/16 24/24/24 18/18/18
f 25/25/25 23/23/23 12/12/12
f 26/26/26 18/18/18 24/24/24
f 25/25/25 12/12/12 27/27/27
f 26/26/26 28/28/28 18/18/18
f 28/28/28 21/21/21 18/18/18
f 29/29/29 27/27/27 12/12/12
f 27/27/27 29/29/29 30/30/30
f 31/31/31 30/30/30 29/29/29
f 28/28/28 32/32/32 21/21/21
f 31/31/31 33/33/33 30/30/30
f 34/34/34 30/30/30 33/33/33
f 33/33/33 35/35/35 34/34/34
f 33/33/33 31/31/31 36/36/36
f 33/33/33 36/36/36 35/35/35
f 37/37/37 36/36/36 31/31/31
f 38/38/38 35/35/35 36/36/36
f 38/38/38 39/39/39 35/35/35
f 40/40/40 21/21/21 32/32/32
f 21/21/21 40/40/40 41/41/41
f 40/40/40 32/32/32 42/42/42
f 40/40/40 42/42/42 41/41/41
f 43/43/43 42/42/42 32/32/32
f 43/43/43 44/44/44 42/42/42
f 45/45/45 21/21/21 41/41/41
f 45/45/45 22/22/22 21/21/21
f 45/45/45 46/46/46 22/22/22
f 46/46/46 45/45/45 41/41/41
f 47/47/47 22/22/22 46/46/46
f 47/47/47 46/46/46 48/48/48
f 49/49/49 42/42/42 44/44/44
f 49/49/49 44/44/44 50/50/50
f 51/51/51 50/50/50 44/44/44
f 50/50/50 52/52/52 49/49/49
f 49/49/49 53/53/53 42/42/42
f 52/52/52 53/53/53 49/49/49
f 42/42/42 53/53/53 41/41/41
f 54/54/54 53/53/53 52/52/52
f 53/53/53 54/54/54 55/55/55
f 53/53/53 55/55/55 41/41/41
f 56/56/56 55/55/55 54/54/54
f 57/57/57 46/46/46 41/41/41
f 58/58/58 57/57/57 41/41/41
f 59/59/59 48/48/48 46/46/46
f 57/57/57 59/59/59 46/46/46
f 57/57/57 58/58/58 60/60/60
f 61/61/61 60/60/60 58/58/58
f 57/57/57 60/60/60 62/62/62
f 57/57/57 62/62/62 59/59/59
f 62/62/62 63/63/63 59/59/59
f 59/59/59 63/63/63 48/48/48
f 64/64/64 48/48/48 63/63/63
f 56/56/65 66/65/66 65/66/67
f 56/56/65 65/66/67 67/67/68
f 66/65/66 68/68/69 65/66/67
f 65/66/67 69/69/70 67/67/68
f 69/69/70 65/66/67 68/68/69
f 70/70/71 67/67/68 69/69/70
f 71/71/72 67/67/68 70/70/71
f 69/69/70 68/68/69 72/72/73
f 69/69/70 72/72/73 70/70/71
f 73/73/74 72/72/73 68/68/69
f 74/74/75 70/70/71 72/72/73
f 74/74/75 75/75/76 70/70/71
f 71/71/72 70/70/71 75/75/76
f 76/76/77 71/71/72 75/75/76
f 79/64/78 78/63/79 77/1/78
f 78/63/79 80/77/80 77/1/78
f 80/77/80 81/2/81 77/1/78
f 81/2/81 80/77/80 82/4/82
f 80/77/80 78/63/79 83/78/83
f 84/62/84 83/78/83 78/63/79
f 83/78/83 84/62/84 85/79/85
f 86/60/86 85/79/85 84/62/84
f 85/79/85 86/60/86 87/80/87
f 88/61/88 87/80/87 86/60/86
f 85/79/85 87/80/87 89/81/89
f 85/79/85 89/81/89 83/78/83
f 90/82/90 89/81/89 87/80/87
f 83/78/83 91/83/91 80/77/80
f 91/83/91 83/78/83 89/81/89
f 89/81/89 90/82/90 92/84/92
f 93/85/93 92/84/92 90/82/90
f 92/84/92 94/86/94 89/81/89
f 91/83/91 89/81/89 94/86/94
f 94/86/94 95/87/95 91/83/91
f 96/88/96 80/77/80 91/83/91
f 96/88/96 91/83/91 95/87/95
f 96/88/96 82/4/82 80/77/80
f 96/88/96 95/87/95 82/4/82
f 97/9/97 82/4/82 95/87/95
f 100/85/98 99/82/99 98/89/100
f 101/90/101 98/89/100 99/82/99
f 99/82/99 102/80/102 101/90/101
f 101/90/101 103/91/103 98/89/100
f 104/92/104 98/89/100 103/91/103
f 104/92/104 103/91/103 105/93/105
f 106/94/106 105/93/105 103/91/103
f 106/94/106 107/95/107 105/93/105
f 108/96/108 106/94/106 103/91/103
f 103/91/103 101/90/101 108/96/108
f 109/97/109 101/90/101 102/80/102
f 109/97/109 108/96/108 101/90/101
f 102/80/102 61/61/110 109/97/109
f 109/97/109 61/61/110 108/96/108
f 112/98/111 111/99/112 110/100/113
f 113/101/114 110/100/113 111/99/112
f 110/100/113 113/101/114 114/102/115
f 114/102/115 115/103/116 110/100/113
f 118/104/117 117/96/118 116/105/119
f 119/61/120 116/105/119 117/96/118
f 119/61/120 120/58/121 116/105/119
f 121/106/122 116/105/119 120/58/121
f 121/106/122 120/58/121 122/107/123
f 123/41/123 122/107/123 120/58/121
f 122/107/123 123/41/123 124/108/124
f 125/55/125 124/108/124 123/41/123
f 125/55/125 126/56/126 124/108/124
f 127/109/127 124/108/124 126/56/126
f 126/56/126 128/67/128 127/109/127
f 129/110/129 127/109/127 128/67/128
f 132/111/130 131/112/130 130/113/131
f 133/114/132 130/113/131 131/112/130
f 133/114/132 134/115/133 130/113/131
f 135/116/134 130/113/131 134/115/133
f 134/115/133 136/117/135 135/116/134
f 137/118/135 135/116/134 136/117/135
f 137/118/135 136/117/135 138/119/136
f 139/120/137 138/119/136 136/117/135
f 138/119/136 139/120/137 140/121/138
f 141/122/139 140/121/138 139/120/137
f 141/122/139 142/123/140 140/121/138
f 143/124/140 140/121/138 142/123/140
f 146/125/131 145/126/141 144/127/131
f 147/128/141 144/127/131 145/126/141
f 145/126/141 148/129/142 147/128/141
f 149/130/142 147/128/141 148/129/142
f 152/131/142 151/132/143 150/133/142
f 153/134/143 150/133/142 151/132/143
f 153/134/143 151/132/143 154/135/144
f 155/136/145 154/135/144 151/132/143
f 158/137/146 157/138/141 156/139/146
f 159/140/141 156/139/146 157/138/141
f 159/140/141 157/138/141 160/141/147
f 161/142/147 160/141/147 157/138/141
f 161/142/147 162/143/148 160/141/147
f 163/144/149 160/141/147 162/143/148
f 166/145/150 165/146/150 164/147/131
f 167/148/131 164/147/131 165/146/150
f 167/148/131 168/149/135 164/147/131
f 169/134/135 164/147/131 168/149/135
f 169/134/135 168/149/135 170/150/138
f 171/151/138 170/150/138 168/149/135
f 171/151/138 172/152/151 170/150/138
f 173/153/151 170/150/138 172/152/151
f 176/154/142 175/155/142 174/156/152
f 177/157/152 174/156/152 175/155/142
f 177/157/152 178/134/143 174/156/152
f 179/149/143 174/156/152 178/134/143
f 179/149/143 178/134/143 180/158/153
f 181/159/153 180/158/153 178/134/143
f 181/159/153 182/160/145 180/158/153
f 183/161/145 180/158/153 182/160/145
f 186/50/154 185/51/155 184/39/155
f 187/162/156 186/50/154 184/39/155
f 188/38/157 187/162/156 184/39/155
f 188/38/157 189/36/158 187/162/156
f 187/162/156 190/163/159 186/50/154
f 191/52/160 186/50/154 190/163/159
f 190/163/159 192/164/161 191/52/160
f 193/54/162 191/52/160 192/164/161
f 192/164/161 194/65/163 193/54/162
f 195/56/164 193/54/162 194/65/163
f 192/164/161 196/165/165 194/65/163
f 192/164/161 190/163/159 196/165/165
f 197/68/166 194/65/163 196/165/165
f 190/163/159 187/162/156 198/166/167
f 198/166/167 196/165/165 190/163/159
f 196/165/165 199/167/168 197/68/166
f 200/73/169 197/68/166 199/167/168
f 199/167/168 196/165/165 201/168/170
f 198/166/167 201/168/170 196/165/165
f 201/168/170 198/166/167 202/169/171
f 203/170/172 198/166/167 187/162/156
f 203/170/172 202/169/171 198/166/167
f 203/170/172 187/162/156 189/36/158
f 203/170/172 189/36/158 202/169/171
f 204/37/173 202/169/171 189/36/158
f 207/171/174 206/172/175 205/173/176
f 208/174/177 205/173/176 206/172/175
f 208/174/177 206/172/175 209/175/178
f 206/172/175 210/176/179 209/175/178
f 213/177/138 212/178/138 211/179/180
f 214/180/180 211/179/180 212/178/138
f 211/179/180 214/180/180 215/181/145
f 216/182/145 215/181/145 214/180/180
f 219/183/181 218/184/181 217/185/180
f 220/186/180 217/185/180 218/184/181
f 220/186/180 221/187/182 217/185/180
f 222/188/182 217/185/180 221/187/182
f 222/188/182 221/187/182 223/189/183
f 224/190/183 223/189/183 221/187/182
f 227/191/143 226/192/143 225/193/143
f 228/194/143 225/193/143 226/192/143
f 225/193/143 228/194/143 229/195/143
f 230/117/143 229/195/143 228/194/143
f 229/195/143 230/117/143 231/196/143
f 232/197/143 231/196/143 230/117/143
f 231/196/143 232/197/143 233/198/143
f 234/199/143 233/198/143 232/197/143
f 237/175/184 236/176/184 235/200/184
f 238/201/184 235/200/184 236/176/184
f 241/202/185 240/203/185 239/102/185
f 242/103/185 239/102/185 240/203/185
f 245/204/131 244/205/131 243/206/138
f 246/207/138 243/206/138 244/205/131
f 249/208/186 248/209/186 247/210/134
f 250/211/134 247/210/134 248/209/186
f 250/211/134 251/212/135 247/210/134
f 252/213/135 247/210/134 251/212/135
f 252/213/135 251/212/135 253/214/136
f 254/215/136 253/214/136 251/212/135
f 254/215/136 255/216/187 253/214/136
f 256/217/187 253/214/136 255/216/187
f 259/218/188 258/219/188 257/220/188
f 260/221/188 257/220/188 258/219/188
f 257/220/188 260/221/188 261/222/188
f 262/223/188 261/222/188 260/221/188
f 261/222/188 262/223/188 263/224/188
f 264/225/188 263/224/188 262/223/188
f 263/224/188 264/225/188 265/226/188
f 266/227/188 265/226/188 264/225/188
f 269/228/189 268/229/189 267/230/189
f 270/231/189 267/230/189 268/229/189
f 273/227/190 272/226/190 271/225/190
f 274/224/190 271/225/190 272/226/190
f 271/225/190 274/224/190 275/223/190
f 276/222/190 275/223/190 274/224/190
f 275/223/190 276/222/190 277/221/190
f 278/220/190 277/221/190 276/222/190
f 277/221/190 278/220/190 279/219/190
f 280/218/190 279/219/190 278/220/190
f 283/232/191 282/233/191 281/234/191
f 284/235/191 281/234/191 282/233/191
f 287/236/192 286/237/193 285/238/194
f 288/239/195 285/238/194 286/237/193
f 285/238/194 288/239/195 289/240/196
f 290/241/197 289/240/196 288/239/195
f 289/240/196 290/241/197 291/242/198
f 292/243/199 291/242/198 290/241/197
f 292/243/199 293/244/200 291/242/198
f 294/245/201 291/242/198 293/244/200
f 297/246/202 296/247/203 295/248/204
f 298/249/205 295/248/204 296/247/203
f 295/248/204 298/249/205 299/250/206
f 300/251/207 299/250/206 298/249/205
f 299/250/206 300/251/207 301/252/208
f 302/253/209 301/252/208 300/251/207
f 302/253/209 303/254/210 301/252/208
f 304/255/211 301/252/208 303/254/210
f 307/256/212 306/257/213 305/258/214
f 308/259/215 305/258/214 306/257/213
f 305/258/214 308/259/215 309/260/216
f 310/261/217 309/260/216 308/259/215
f 313/262/211 312/263/218 311/264/219
f 314/265/220 311/264/219 312/263/218
f 311/264/219 314/265/220 315/266/221
f 316/267/222 315/266/221 314/265/220
f 319/260/223 318/261/224 317/268/225
f 320/269/226 317/268/225 318/261/224
f 317/268/225 320/269/226 321/270/227
f 322/271/228 321/270/227 320/269/226
f 325/266/229 324/267/230 323/272/231
f 326/273/232 323/272/231 324/267/230
f 323/272/231 326/273/232 327/274/233
f 328/275/234 327/274/233 326/273/232
f 331/276/235 330/277/236 329/278/237
f 332/279/238 329/278/237 330/277/236
f 332/279/238 330/277/236 333/280/239
f 334/281/240 333/280/239 330/277/236
f 333/280/239 334/281/240 335/282/241
f 336/283/242 335/282/241 334/281/240
f 335/282/241 336/283/242 337/284/243
f 338/285/244 337/284/243 336/283/242
f 341/286/233 340/287/245 339/288/246
f 342/289/247 339/288/246 340/287/245
f 339/288/246 342/289/247 343/290/248
f 344/291/249 343/290/248 342/289/247
f 343/290/248 344/291/249 345/292/250
f 346/293/251 345/292/250 344/291/249
f 345/292/250 346/293/251 347/294/252
f 348/295/253 347/294/252 346/293/251
f 351/296/254 350/297/255 349/298/256
f 352/299/257 349/298/256 350/297/255
f 349/298/256 352/299/257 353/300/258
f 354/301/259 353/300/258 352/299/257
f 357/302/260 356/303/261 355/304/262
f 358/305/263 355/304/262 356/303/261
f 355/304/262 358/305/263 359/306/202
f 360/307/264 359/306/202 358/305/263
f 363/308/265 362/309/266 361/310/267
f 364/311/268 361/310/267 362/309/266
f 362/309/266 365/312/269 364/311/268
f 366/313/270 364/311/268 365/312/269
f 365/312/269 367/314/271 366/313/270
f 368/315/272 366/313/270 367/314/271
f 368/315/272 367/314/271 369/316/273
f 370/317/274 369/316/273 367/314/271
f 373/318/275 372/319/276 371/320/277
f 374/321/278 371/320/277 372/319/276
f 372/319/276 375/322/279 374/321/278
f 376/323/280 374/321/278 375/322/279
f 375/322/279 377/324/281 376/323/280
f 378/325/282 376/323/280 377/324/281
f 378/325/282 377/324/281 379/326/283
f 380/327/284 379/326/283 377/324/281
f 383/328/285 382/329/286 381/330/287
f 384/331/288 381/330/287 382/329/286
f 382/329/286 385/332/289 384/331/288
f 386/333/290 384/331/288 385/332/289
f 389/334/284 388/335/291 387/336/292
f 390/337/293 387/336/292 388/335/291
f 388/335/291 391/338/294 390/337/293
f 392/339/295 390/337/293 391/338/294
f 395/332/296 394/340/297 393/333/298
f 396/341/299 393/333/298 394/340/297
f 394/340/297 397/342/300 396/341/299
f 398/343/301 396/341/299 397/342/300
f 401/338/302 400/344/303 399/339/304
f 402/345/305 399/339/304 400/344/303
f 400/344/303 403/346/306 402/345/305
f 404/347/307 402/345/305 403/346/306
f 407/348/308 406/349/309 405/350/310
f 408/351/311 405/350/310 406/349/309
f 408/351/311 409/352/312 405/350/310
f 410/353/313 405/350/310 409/352/312
f 409/352/312 411/354/314 410/353/313
f 412/355/315 410/353/313 411/354/314
f 411/354/314 413/356/316 412/355/315
f 414/357/317 412/355/315 413/356/316
f 417/358/306 416/359/318 415/360/319
f 418/361/320 415/360/319 416/359/318
f 416/359/318 419/362/321 418/361/320
f 420/363/322 418/361/320 419/362/321
f 419/362/321 421/364/323 420/363/322
f 422/365/324 420/363/322 421/364/323
f 421/364/323 423/366/325 422/365/324
f 424/367/326 422/365/324 423/366/325
f 427/368/327 426/369/328 425/370/329
f 428/371/330 425/370/329 426/369/328
f 426/369/328 429/372/331 428/371/330
f 430/373/332 428/371/330 429/372/331
f 433/374/333 432/375/334 431/376/335
f 434/377/336 431/376/335 432/375/334
f 432/375/334 435/378/275 434/377/336
f 436/379/337 434/377/336 435/378/275
f 439/380/188 438/381/188 437/382/188
f 440/383/188 439/380/188 437/382/188
f 438/381/188 439/380/188 441/384/188
f 439/380/188 440/383/188 442/385/188
f 439/380/188 443/386/188 441/384/188
f 444/387/188 439/380/188 442/385/188
f 443/386/188 439/380/188 445/388/188
f 439/380/188 444/387/188 446/389/188
f 439/380/188 447/390/188 445/388/188
f 448/391/188 439/380/188 446/389/188
f 447/390/188 439/380/188 449/392/188
f 439/380/188 448/391/188 450/393/188
f 439/380/188 451/394/188 449/392/188
f 451/394/188 439/380/188 450/393/188
f 454/395/338 453/396/339 452/397/340
f 454/395/338 455/262/341 453/396/339
f 456/398/342 452/397/340 453/396/339
f 457/399/343 453/396/339 455/262/341
f 452/397/340 456/398/342 458/400/344
f 457/399/343 455/262/341 459/401/345
f 460/402/346 458/400/344 456/398/342
f 461/264/347 459/401/345 455/262/341
f 458/400/344 460/402/346 462/403/348
f 459/401/345 461/264/347 463/404/349
f 464/405/350 462/403/348 460/402/346
f 465/266/351 463/404/349 461/264/347
f 462/403/348 464/405/350 466/406/352
f 463/404/349 465/266/351 467/407/353
f 468/408/354 466/406/352 464/405/350
f 469/272/355 467/407/353 465/266/351
f 466/406/352 468/408/354 470/409/356
f 471/410/357 470/409/356 468/408/354
f 470/409/356 471/410/357 472/411/358
f 473/412/359 472/411/358 471/410/357
f 472/411/358 473/412/359 474/413/360
f 475/414/361 474/413/360 473/412/359
f 467/407/353 469/272/355 476/415/362
f 477/274/363 476/415/362 469/272/355
f 474/413/360 475/414/361 478/416/364
f 477/274/363 478/416/364 476/415/362
f 479/417/365 478/416/364 475/414/361
f 479/417/365 476/415/362 478/416/364
f 482/418/366 481/419/367 480/420/368
f 482/418/366 480/420/368 483/334/369
f 484/421/370 480/420/368 481/419/367
f 485/422/371 483/334/369 480/420/368
f 481/419/367 486/423/372 484/421/370
f 485/422/371 487/424/373 483/334/369
f 488/425/374 484/421/370 486/423/372
f 489/335/375 483/334/369 487/424/373
f 486/423/372 490/426/376 488/425/374
f 487/424/373 491/427/377 489/335/375
f 492/428/378 488/425/374 490/426/376
f 493/338/379 489/335/375 491/427/377
f 490/426/376 494/429/380 492/428/378
f 491/427/377 495/430/381 493/338/379
f 496/431/382 492/428/378 494/429/380
f 497/344/383 493/338/379 495/430/381
f 494/429/380 498/432/384 496/431/382
f 499/433/385 496/431/382 498/432/384
f 498/432/384 500/434/386 499/433/385
f 501/435/387 499/433/385 500/434/386
f 500/434/386 502/436/388 501/435/387
f 503/437/389 501/435/387 502/436/388
f 495/430/381 504/438/390 497/344/383
f 505/346/391 497/344/383 504/438/390
f 502/436/388 506/439/392 503/437/389
f 505/346/391 504/438/390 506/439/392
f 507/440/393 503/437/389 506/439/392
f 507/440/393 506/439/392 504/438/390
f 510/380/190 509/441/394 508/389/395
f 511/391/396 510/380/190 508/389/395
f 509/441/394 510/380/190 512/385/397
f 510/380/190 511/391/396 513/442/398
f 510/380/190 514/383/399 512/385/397
f 515/394/400 510/380/190 513/442/398
f 514/383/399 510/380/190 516/382/401
f 510/380/190 515/394/400 517/392/402
f 510/380/190 518/443/403 516/382/401
f 519/390/404 510/380/190 517/392/402
f 518/443/403 510/380/190 520/384/405
f 510/380/190 519/390/404 521/444/406
f 510/380/190 522/386/407 520/384/405
f 522/386/407 510/380/190 521/444/406
f 525/445/408 524/446/409 523/447/410
f 526/448/411 523/447/410 524/446/409
f 524/446/409 527/449/412 526/448/411
f 528/450/413 526/448/411 527/449/412
f 531/451/414 530/452/415 529/453/416
f 532/454/417 529/453/416 530/452/415
f 532/454/417 530/452/415 533/455/189
f 534/456/189 533/455/189 530/452/415
f 533/455/189 534/456/189 535/457/189
f 536/458/189 535/457/189 534/456/189
f 536/458/189 537/459/418 535/457/189
f 538/460/419 535/457/189 537/459/418
f 539/461/189 536/458/189 534/456/189
f 539/461/189 534/456/189 540/452/189
f 541/462/189 539/461/189 540/452/189
f 539/461/189 542/463/420 536/458/189
f 543/459/421 536/458/189 542/463/420
f 546/464/412 545/465/422 544/466/423
f 547/467/424 544/466/423 545/465/422
f 545/465/422 548/468/425 547/467/424
f 549/469/426 547/467/424 548/468/425
f 548/468/425 550/470/427 549/469/426
f 551/471/427 549/469/426 550/470/427
f 551/471/427 550/470/427 552/472/428
f 553/473/429 552/472/428 550/470/427
f 554/474/430 549/469/426 551/471/427
f 554/474/430 555/467/431 549/469/426
f 554/474/430 556/475/191 555/467/431
f 551/471/427 557/472/432 554/474/430
f 558/476/433 554/474/430 557/472/432
f 557/472/432 559/477/434 558/476/433
f 560/478/435 558/476/433 559/477/434
f 563/479/436 562/480/437 561/14/438
f 564/13/439 561/14/438 562/480/437
f 562/480/437 565/481/440 564/13/439
f 566/11/441 564/13/439 565/481/440
f 565/481/440 567/482/442 566/11/441
f 568/7/443 566/11/441 567/482/442
f 567/482/442 569/483/428 568/7/443
f 570/6/444 568/7/443 569/483/428
f 573/484/445 572/44/446 571/485/447
f 573/484/445 574/43/448 572/44/446
f 573/484/445 575/486/449 574/43/448
f 574/43/448 575/486/449 576/32/450
f 575/486/449 577/28/451 576/32/450
f 580/487/452 579/488/453 578/489/435
f 581/490/454 578/489/435 579/488/453
f 579/488/453 582/491/455 581/490/454
f 583/492/456 581/490/454 582/491/455
f 582/491/455 584/493/457 583/492/456
f 585/494/420 583/492/456 584/493/457
f 588/479/190 587/483/190 586/480/190
f 589/482/190 586/480/190 587/483/190
f 589/482/190 590/481/190 586/480/190
f 593/495/188 592/76/188 591/110/188
f 591/110/188 594/109/188 593/495/188
f 595/496/188 593/495/188 594/109/188
f 594/109/188 596/108/188 595/496/188
f 597/497/188 595/496/188 596/108/188
f 596/108/188 598/107/188 597/497/188
f 599/498/188 597/497/188 598/107/188
f 599/498/188 598/107/188 600/499/188
f 601/106/188 600/499/188 598/107/188
f 600/499/188 601/106/188 602/500/188
f 603/105/188 602/500/188 601/106/188
f 602/500/188 603/105/188 604/501/188
f 605/104/188 604/501/188 603/105/188
f 606/95/188 604/501/188 605/104/188
f 609/502/458 608/503/459 607/504/460
f 610/505/461 607/504/460 608/503/459
f 607/504/460 610/505/461 611/506/462
f 612/507/463 611/506/462 610/505/461
f 615/508/464 614/509/465 613/510/466
f 616/511/467 613/510/466 614/509/465
f 616/511/467 617/512/191 613/510/466
f 618/513/191 613/510/466 617/512/191
f 617/512/191 619/514/191 618/513/191
f 620/515/191 618/513/191 619/514/191
f 620/515/191 619/514/191 621/516/468
f 622/517/469 621/516/468 619/514/191
f 620/515/191 623/474/191 618/513/191
f 618/513/191 623/474/191 624/510/191
f 623/474/191 625/518/191 624/510/191
f 623/474/191 620/515/191 626/519/470
f 627/516/471 626/519/470 620/515/191
f 630/520/462 629/521/472 628/522/473
f 631/523/474 628/522/473 629/521/472
f 628/522/473 631/523/474 632/524/475
f 633/525/476 632/524/475 631/523/474
f 632/524/475 633/525/476 634/526/477
f 635/527/477 634/526/477 633/525/476
f 635/527/477 636/528/478 634/526/477
f 637/529/479 634/526/477 636/528/478
f 633/525/476 638/461/480 635/527/477
f 639/523/481 638/461/480 633/525/476
f 640/530/189 638/461/480 639/523/481
f 635/527/477 638/461/480 641/528/482
f 642/531/483 641/528/482 638/461/480
f 641/528/482 642/531/483 643/532/484
f 644/533/485 643/532/484 642/531/483
f 647/534/486 646/23/487 645/535/488
f 648/25/489 645/535/488 646/23/487
f 645/535/488 648/25/489 649/536/490
f 650/27/491 649/536/490 648/25/489
f 649/536/490 650/27/491 651/537/492
f 652/30/493 651/537/492 650/27/491
f 651/537/492 652/30/493 653/538/478
f 654/34/494 653/538/478 652/30/493
f 657/48/495 656/539/496 655/540/497
f 658/47/498 656/539/496 657/48/495
f 659/541/499 656/539/496 658/47/498
f 659/541/499 658/47/498 660/22/500
f 661/20/501 659/541/499 660/22/500
f 664/542/502 663/543/485 662/544/503
f 665/545/504 662/544/503 663/543/485
f 662/544/503 665/545/504 666/546/505
f 667/547/506 666/546/505 665/545/504
f 666/546/505 667/547/506 668/548/507
f 669/549/470 668/548/507 667/547/506
f 672/534/190 671/535/190 670/538/190
f 673/537/190 670/538/190 671/535/190
f 674/536/190 673/537/190 671/535/190
f 677/550/143 676/551/143 675/552/143
f 678/549/143 675/552/143 676/551/143
f 680/539/190 587/483/190 679/541/190
f 588/479/190 679/541/190 587/483/190
f 683/494/143 682/553/143 681/554/143
f 684/555/143 681/554/143 682/553/143
f 672/534/190 670/538/190 685/486/190
f 686/484/190 685/486/190 670/538/190
f 689/556/508 688/557/508 687/558/508
f 690/559/508 687/558/508 688/557/508
f 693/560/509 692/561/509 691/562/509
f 694/563/509 691/562/509 692/561/509
f 697/564/510 696/565/510 695/566/510
f 698/567/510 695/566/510 696/565/510
f 701/568/511 700/569/512 699/570/511
f 702/571/512 699/570/511 700/569/512
f 705/572/513 704/573/513 703/574/513
f 706/575/513 703/574/513 704/573/513
f 709/576/514 708/577/514 707/578/514
f 710/579/514 707/578/514 708/577/514
f 713/580/515 712/581/515 711/582/515
f 714/583/515 711/582/515 712/581/515
f 717/584/516 716/585/516 715/586/516
f 718/587/516 715/586/516 716/585/516
f 721/588/517 720/589/517 719/590/517
f 722/591/517 719/590/517 720/589/517
f 725/592/518 724/593/518 723/594/518
f 726/595/518 723/594/518 724/593/518
f 729/596/519 728/597/519 727/598/519
f 730/599/519 727/598/519 728/597/519
f 733/600/520 732/601/520 731/602/520
f 734/603/520 731/602/520 732/601/520
f 737/604/521 736/605/521 735/606/521
f 738/607/521 735/606/521 736/605/521
f 741/608/522 740/609/522 739/610/522
f 742/611/522 739/610/522 740/609/522
f 745/612/523 744/613/523 743/614/523
f 746/615/523 743/614/523 744/613/523
f 749/616/524 748/566/524 747/617/524
f 750/567/524 747/617/524 748/566/524
f 753/618/525 752/619/525 751/620/525
f 754/621/525 751/620/525 752/619/525
f 757/622/526 756/564/526 755/623/526
f 758/565/526 755/623/526 756/564/526
f 761/624/527 760/625/527 759/626/527
f 762/627/527 759/626/527 760/625/527
f 765/628/528 764/571/528 763/629/528
f 766/570/528 763/629/528 764/571/528
f 769/630/529 768/631/529 767/632/529
f 770/633/529 767/632/529 768/631/529
f 773/634/530 772/569/530 771/635/530
f 774/568/530 771/635/530 772/569/530
f 777/636/531 776/637/531 775/638/531
f 778/639/531 775/638/531 776/637/531
f 781/640/532 780/575/532 779/641/532
f 782/574/532 779/641/532 780/575/532
f 785/642/533 784/643/533 783/644/533
f 786/645/533 783/644/533 784/643/533
f 789/646/534 788/573/534 787/647/534
f 790/572/534 787/647/534 788/573/534
f 793/648/535 792/649/535 791/650/535
f 794/651/535 791/650/535 792/649/535
f 797/652/536 796/578/536 795/653/536
f 798/579/536 795/653/536 796/578/536
f 801/654/537 800/655/537 799/656/537
f 802/657/537 799/656/537 800/655/537
f 805/658/538 804/576/538 803/659/538
f 806/577/538 803/659/538 804/576/538
f 809/660/539 808/661/539 807/662/539
f 810/663/539 807/662/539 808/661/539
f 813/664/540 812/582/540 811/665/540
f 814/583/540 811/665/540 812/582/540
f 817/666/541 816/667/541 815/668/541
f 818/669/541 815/668/541 816/667/541
f 821/670/542 820/580/542 819/671/542
f 822/581/542 819/671/542 820/580/542
f 825/672/543 824/673/543 823/674/543
f 826/675/543 823/674/543 824/673/543
f 829/676/544 828/677/545 827/678/544
f 830/679/545 827/678/544 828/677/545
f 828/677/545 831/680/546 830/679/545
f 832/681/546 830/679/545 831/680/546
f 831/680/546 833/682/547 832/681/546
f 834/683/547 832/681/546 833/682/547
f 833/682/547 835/684/548 834/683/547
f 836/118/548 834/683/547 835/684/548
f 836/118/548 835/684/548 837/685/549
f 838/686/549 837/685/549 835/684/548
f 837/685/549 838/686/549 839/687/550
f 840/688/550 839/687/550 838/686/549
f 839/687/550 840/688/550 841/689/551
f 842/690/551 841/689/551 840/688/550
f 841/689/551 842/690/551 843/691/552
f 844/692/552 843/691/552 842/690/551
f 847/693/544 846/694/553 845/695/544
f 848/696/553 845/695/544 846/694/553
f 846/694/553 849/697/554 848/696/553
f 850/698/554 848/696/553 849/697/554
f 849/697/554 851/699/555 850/698/554
f 852/700/555 850/698/554 851/699/555
f 851/699/555 853/701/556 852/700/555
f 854/702/556 852/700/555 853/701/556
f 853/701/556 855/703/557 854/702/556
f 856/704/557 854/702/556 855/703/557
f 855/703/557 857/705/558 856/704/557
f 858/706/559 856/704/557 857/705/558
f 861/691/560 860/707/561 859/692/559
f 862/708/562 859/692/559 860/707/561
f 862/708/562 860/707/561 863/709/563
f 864/710/563 863/709/563 860/707/561
f 863/709/563 864/710/563 865/711/131
f 866/712/131 865/711/131 864/710/563
f 865/711/131 866/712/131 867/713/134
f 868/714/134 867/713/134 866/712/131
f 867/713/134 868/714/134 869/684/135
f 870/118/135 869/684/135 868/714/134
f 870/118/135 871/715/136 869/684/135
f 872/716/136 869/684/135 871/715/136
f 871/715/136 873/717/138 872/716/136
f 874/718/138 872/716/136 873/717/138
f 873/717/138 875/719/564 874/718/138
f 876/720/564 874/718/138 875/719/564
f 875/719/564 877/721/565 876/720/564
f 878/722/566 876/720/564 877/721/565
f 878/722/566 877/721/565 879/676/567
f 880/678/568 879/676/567 877/721/565
f 883/723/552 882/724/552 881/725/569
f 884/726/569 881/725/569 882/724/552
f 881/725/569 884/726/569 885/727/570
f 886/728/570 885/727/570 884/726/569
f 885/727/570 886/728/570 887/729/571
f 888/730/571 887/729/571 886/728/570
f 888/730/571 889/731/572 887/729/571
f 890/732/572 887/729/571 889/731/572
f 890/732/572 889/731/572 891/733/573
f 892/734/573 891/733/573 889/731/572
f 891/733/573 892/734/573 893/735/574
f 894/736/567 893/735/574 892/734/573
