# Blender 4.5.3 LTS
# www.blender.org
mtllib Dant_gun_cal305_A_x4_001.mtl
o Dant_gun_cal305_A_x4_001
v -2.000280 4.382191 4.242733
v -4.006972 4.382191 3.118726
v -4.006972 0.908084 3.118725
v -2.000280 0.908084 4.242527
v -2.988858 4.146331 3.695605
v -3.478543 3.989797 3.424149
v -3.783627 3.569936 3.255022
v -3.783628 2.328763 3.255021
v -3.478546 1.908901 3.424146
v -2.988858 1.752367 3.695606
v -2.502264 1.913240 3.965353
v -2.202248 2.331449 4.131668
v -2.502259 3.985458 3.965356
v -2.202247 3.567247 4.131669
v 2.000731 4.382191 4.242731
v 2.000732 0.908084 4.242525
v 0.988018 4.146331 4.401018
v 0.501420 3.985458 4.476465
v 1.477704 3.989797 4.325091
v 0.201408 3.567247 4.522980
v 1.782786 3.569936 4.277790
v 0.201409 2.331449 4.522980
v 0.501425 1.913240 4.476461
v 0.988018 1.752367 4.401018
v 1.477707 1.908901 4.325091
v 1.782788 2.328763 4.277790
v 2.203601 3.567247 4.130894
v 0.000000 4.382191 4.553010
v 0.000000 0.908084 4.552396
v 2.503613 3.985458 3.961761
v -0.988018 4.146331 4.401013
v -1.477702 3.989797 4.325364
v -1.782786 3.569936 4.278230
v -1.782787 2.328763 4.278230
v -1.477706 1.908901 4.325363
v -0.988019 1.752367 4.401013
v -0.501425 1.913240 4.476189
v -0.201409 2.331449 4.522538
v -0.501420 3.985458 4.476189
v -0.201408 3.567247 4.522538
v -4.887495 0.908085 1.550809
v -4.009015 4.382191 2.865234
v -4.009017 0.908085 2.865549
v -4.887494 4.382192 1.550810
v -5.195975 0.908085 -0.000032
v -5.195976 4.382192 -0.000031
v -4.643433 4.382193 -3.000010
v -4.643432 0.908086 -3.000010
v -3.764030 0.908086 -5.205000
v -3.764030 4.382194 -5.205000
v -2.306633 0.908086 -6.299999
v -3.764030 4.382194 -5.205000
v -3.764030 0.908086 -5.205000
v -2.306633 4.382194 -6.299999
v -0.000000 0.908086 -6.705656
v 0.000000 4.382194 -6.705652
v 2.306633 4.382194 -6.299997
v 2.306633 0.908086 -6.300001
v 3.764030 4.382194 -5.204994
v 3.764030 0.908086 -5.204998
v 4.009017 4.382191 2.865236
v 4.887495 0.908085 1.550812
v 4.009012 0.908085 2.865556
v 4.887496 4.382192 1.550812
v 5.195975 0.908085 -0.000031
v 5.195975 4.382192 -0.000029
v 4.643432 4.382193 -3.000006
v 4.643434 0.908086 -3.000010
v 3.764030 0.908086 -5.204998
v 3.764030 4.382194 -5.204994
v 4.009012 0.908085 2.865556
v 2.000001 0.908084 3.993026
v 0.000000 0.908085 -0.000031
v 4.887495 0.908085 1.550812
v 0.000000 0.908084 4.301505
v 5.195975 0.908085 -0.000031
v 4.643434 0.908086 -3.000010
v 3.764030 0.908086 -5.204998
v 2.306633 0.908086 -6.300001
v -0.000000 0.908086 -6.705656
v -2.306633 0.908086 -6.299999
v -3.764030 0.908086 -5.205000
v -4.643432 0.908086 -3.000010
v -5.195975 0.908085 -0.000032
v -4.887495 0.908085 1.550809
v -2.000001 0.908084 3.993026
v -4.009017 0.908085 2.865549
v -3.001545 4.694361 -0.000031
v -4.887494 4.382192 1.550810
v -5.195976 4.382192 -0.000031
v -4.643433 4.382193 -3.000010
v -2.840689 4.694361 0.808640
v -0.000000 4.694361 -1.123482
v -2.382612 4.694361 1.494205
v -2.000001 4.382191 3.992245
v -1.697051 4.694361 1.952281
v -0.000000 4.382190 4.300724
v -2.673782 4.694361 -3.148092
v -2.254867 4.694361 -3.833651
v -3.764030 4.382194 -5.205000
v -1.627915 4.694362 -4.291727
v -2.306633 4.382194 -6.299999
v -0.000000 4.694361 2.113137
v 0.000000 4.694361 -4.452583
v 1.697050 4.694361 1.952282
v 0.000000 4.382194 -6.705652
v 2.000000 4.382191 3.992246
v 2.306633 4.382194 -6.299997
v 2.382611 4.694361 1.494204
v 1.627915 4.694362 -4.291729
v 3.764030 4.382194 -5.204994
v 2.840689 4.694361 0.808645
v 4.887496 4.382192 1.550812
v 2.254866 4.694361 -3.833649
v 4.643432 4.382193 -3.000006
v 3.001544 4.694361 -0.000030
v 5.195975 4.382192 -0.000029
v 2.673783 4.694361 -3.148092
v -4.009017 0.908084 2.865073
v 4.009017 0.908084 2.865074
v 4.007880 0.908084 3.114272
v 4.009017 0.908084 2.865074
v 4.005606 4.382191 3.114682
v 3.479897 3.989797 3.411373
v 0.000000 4.382191 4.553008
v -4.009017 0.908084 2.865073
v 0.000000 0.908084 4.552394
v 2.990211 4.146331 3.687438
v 4.009017 0.908084 2.865074
v -4.009017 0.908084 2.865073
v 3.784980 3.569936 3.239382
v 2.203602 2.331449 4.130890
v 2.503618 1.913240 3.961755
v 2.990211 1.752367 3.687438
v 3.479900 1.908901 3.411370
v 3.784981 2.328763 3.239382
v -2.974714 0.908138 -1.717333
v -2.427197 0.000000 -2.427210
v -2.427198 0.908138 -2.427210
v -2.974486 0.000000 -1.717333
v -3.315615 -0.000000 -0.888428
v -3.315615 0.908138 -0.888427
v -3.434640 0.908138 -0.000008
v -3.434640 -0.000000 -0.000013
v -3.315614 -0.000001 0.888407
v -3.315614 0.908138 0.888407
v -2.974486 0.908138 1.717306
v -2.974486 -0.000001 1.717306
v -2.427197 -0.000001 2.427189
v -2.427197 0.908138 2.427189
v -2.427197 0.000000 -2.427210
v -1.717319 0.908138 -2.974499
v -2.427198 0.908138 -2.427210
v -1.717319 0.000000 -2.974497
v -0.888416 0.000000 -3.315628
v -0.888416 0.908138 -3.315628
v 0.000000 0.908138 -3.434652
v 0.000000 0.000000 -3.434652
v 0.888416 0.000000 -3.315628
v 0.888416 0.908138 -3.315628
v 1.717318 0.908138 -2.974497
v 1.717319 0.000000 -2.974497
v 2.427198 0.000000 -2.427208
v 2.427198 0.908138 -2.427208
v -1.717320 0.908138 2.974472
v -2.427197 -0.000001 2.427189
v -2.427197 0.908138 2.427189
v -1.717319 -0.000001 2.974472
v -0.888416 -0.000001 3.315603
v -0.888416 0.908138 3.315603
v -0.000000 0.908138 3.434631
v -0.000000 -0.000001 3.434631
v 0.888416 -0.000001 3.315602
v 0.888416 0.908138 3.315602
v 1.717318 0.908138 2.974472
v 1.717318 -0.000001 2.974472
v 2.427197 -0.000001 2.427189
v 2.427197 0.908138 2.427189
v 2.427198 0.000000 -2.427208
v 2.974713 0.908138 -1.717331
v 2.427198 0.908138 -2.427208
v 2.974486 0.000000 -1.717335
v 3.315614 -0.000000 -0.888428
v 3.315614 0.908138 -0.888427
v 3.434639 0.908138 -0.000013
v 3.434639 -0.000000 -0.000013
v 3.315614 -0.000001 0.888407
v 3.315614 0.908138 0.888407
v 2.974486 0.908138 1.717306
v 2.974484 -0.000001 1.717306
v 2.427197 -0.000001 2.427189
v 2.427197 0.908138 2.427189
v -3.315615 -0.000000 -0.888428
v 0.000000 -0.000000 -0.000012
v -2.974486 0.000000 -1.717333
v -3.434640 -0.000000 -0.000013
v -2.427197 0.000000 -2.427210
v -3.315614 -0.000001 0.888407
v -1.717319 0.000000 -2.974497
v -2.974486 -0.000001 1.717306
v -0.888416 0.000000 -3.315628
v -2.427197 -0.000001 2.427189
v 0.000000 0.000000 -3.434652
v -1.717319 -0.000001 2.974472
v 0.888416 0.000000 -3.315628
v -0.888416 -0.000001 3.315603
v 1.717319 0.000000 -2.974497
v -0.000000 -0.000001 3.434631
v 2.427198 0.000000 -2.427208
v 0.888416 -0.000001 3.315602
v 2.974486 0.000000 -1.717335
v 1.717318 -0.000001 2.974472
v 3.315614 -0.000000 -0.888428
v 2.427197 -0.000001 2.427189
v 3.434639 -0.000000 -0.000013
v 2.974484 -0.000001 1.717306
v 3.315614 -0.000001 0.888407
v -1.779540 2.391478 4.004114
v -1.779539 3.507226 4.004114
v -1.005322 3.037017 4.004114
v -1.459507 1.966489 4.004114
v -1.459505 3.932217 4.004113
v -1.002325 1.820973 4.004113
v -1.002325 4.077733 4.004113
v -0.548894 1.969143 4.004114
v -0.548888 3.929560 4.004113
v -0.234055 2.392626 4.004114
v -0.234054 3.506076 4.004114
v -1.562687 4.129154 4.004130
v -0.991961 4.310405 4.004131
v -0.414755 4.118733 4.004131
v -0.414755 4.118733 4.004131
v -0.006068 3.575264 4.004130
v -0.006069 2.323440 4.004131
v -0.414760 1.779971 4.004131
v -0.414760 1.779971 4.004131
v -0.991964 1.588299 4.004131
v -1.562689 1.769548 4.004130
v -1.562689 1.769548 4.004130
v -1.973719 2.312013 4.004131
v -1.973718 3.586693 4.004131
v -1.562687 4.129154 4.004130
v -1.002325 4.077733 4.004113
v -1.459505 3.932217 4.004113
v -0.548888 3.929560 4.004113
v -0.234054 3.506076 4.004114
v -0.548888 3.929560 4.004113
v -0.234055 2.392626 4.004114
v -0.548894 1.969143 4.004114
v -1.002325 1.820973 4.004113
v -0.548894 1.969143 4.004114
v -1.459507 1.966489 4.004114
v -1.779540 2.391478 4.004114
v -1.459507 1.966489 4.004114
v -1.779539 3.507226 4.004114
v -1.459505 3.932217 4.004113
v -1.779540 2.391478 4.004114
v -1.779539 3.507226 4.004114
v -1.005322 3.037017 4.004114
v -1.459507 1.966489 4.004114
v -1.459505 3.932217 4.004113
v -1.002325 1.820973 4.004113
v -1.002325 4.077733 4.004113
v -0.548894 1.969143 4.004114
v -0.548888 3.929560 4.004113
v -0.234055 2.392626 4.004114
v -0.234054 3.506076 4.004114
v -1.562845 4.131402 4.689328
v -0.992120 4.312653 4.689328
v -0.414914 4.120981 4.689327
v -0.414914 4.120981 4.689327
v -0.006227 3.577512 4.689328
v -0.006228 2.325688 4.689328
v -0.414919 1.782219 4.689328
v -0.414919 1.782219 4.689328
v -0.992122 1.590547 4.689328
v -1.562848 1.771796 4.689329
v -1.562848 1.771796 4.689329
v -1.973878 2.314261 4.689328
v -1.973877 3.588940 4.689328
v -1.562845 4.131402 4.689328
v -1.002484 4.079981 4.689312
v -1.459664 3.934464 4.689312
v -0.549047 3.931808 4.689312
v -0.234213 3.508324 4.689312
v -0.549047 3.931808 4.689312
v -0.234214 2.394873 4.689312
v -0.549053 1.971391 4.689312
v -1.002484 1.823221 4.689312
v -0.549053 1.971391 4.689312
v -1.459667 1.968737 4.689312
v -1.779700 2.393726 4.689311
v -1.459667 1.968737 4.689312
v -1.779698 3.509474 4.689311
v -1.459664 3.934464 4.689312
v -1.779700 2.393726 4.689311
v -1.779698 3.509474 4.689311
v -1.459667 1.968737 4.689312
v -1.459664 3.934464 4.689312
v -1.002484 1.823221 4.689312
v -1.002484 4.079981 4.689312
v -0.549053 1.971391 4.689312
v -0.549047 3.931808 4.689312
v -0.234214 2.394873 4.689312
v -0.234213 3.508324 4.689312
v 0.220460 2.391478 4.004115
v 0.220461 3.507226 4.004115
v 0.994678 3.037017 4.004115
v 0.540492 1.966489 4.004116
v 0.540495 3.932217 4.004115
v 0.997675 1.820973 4.004115
v 0.997675 4.077733 4.004114
v 1.451106 1.969143 4.004116
v 1.451112 3.929560 4.004115
v 1.765945 2.392626 4.004115
v 1.765946 3.506076 4.004115
v 0.437313 4.129154 4.004132
v 1.008039 4.310405 4.004131
v 1.585245 4.118733 4.004132
v 1.585245 4.118733 4.004132
v 1.993931 3.575264 4.004132
v 1.993931 2.323440 4.004132
v 1.585240 1.779971 4.004132
v 1.585240 1.779971 4.004132
v 1.008037 1.588299 4.004131
v 0.437311 1.769548 4.004132
v 0.437311 1.769548 4.004132
v 0.026280 2.312013 4.004131
v 0.026281 3.586693 4.004131
v 0.437313 4.129154 4.004132
v 0.997675 4.077733 4.004114
v 0.540495 3.932217 4.004115
v 1.451112 3.929560 4.004115
v 1.765946 3.506076 4.004115
v 1.451112 3.929560 4.004115
v 1.765945 2.392626 4.004115
v 1.451106 1.969143 4.004116
v 0.997675 1.820973 4.004115
v 1.451106 1.969143 4.004116
v 0.540492 1.966489 4.004116
v 0.220460 2.391478 4.004115
v 0.540492 1.966489 4.004116
v 0.220461 3.507226 4.004115
v 0.540495 3.932217 4.004115
v 0.220460 2.391478 4.004115
v 0.220461 3.507226 4.004115
v 0.994678 3.037017 4.004115
v 0.540492 1.966489 4.004116
v 0.540495 3.932217 4.004115
v 0.997675 1.820973 4.004115
v 0.997675 4.077733 4.004114
v 1.451106 1.969143 4.004116
v 1.451112 3.929560 4.004115
v 1.765945 2.392626 4.004115
v 1.765946 3.506076 4.004115
v 0.437154 4.131402 4.689328
v 1.007880 4.312653 4.689329
v 1.585086 4.120981 4.689329
v 1.585086 4.120981 4.689329
v 1.993773 3.577512 4.689329
v 1.993772 2.325688 4.689329
v 1.585081 1.782219 4.689329
v 1.585081 1.782219 4.689329
v 1.007878 1.590547 4.689329
v 0.437151 1.771796 4.689329
v 0.437151 1.771796 4.689329
v 0.026121 2.314261 4.689330
v 0.026122 3.588940 4.689330
v 0.437154 4.131402 4.689328
v 0.997516 4.079981 4.689313
v 0.540336 3.934464 4.689313
v 1.450953 3.931808 4.689313
v 1.765787 3.508324 4.689313
v 1.450953 3.931808 4.689313
v 1.765786 2.394873 4.689313
v 1.450947 1.971391 4.689313
v 0.997516 1.823221 4.689313
v 1.450947 1.971391 4.689313
v 0.540333 1.968737 4.689313
v 0.220300 2.393726 4.689313
v 0.540333 1.968737 4.689313
v 0.220302 3.509474 4.689313
v 0.540336 3.934464 4.689313
v 0.220300 2.393726 4.689313
v 0.220302 3.509474 4.689313
v 0.540333 1.968737 4.689313
v 0.540336 3.934464 4.689313
v 0.997516 1.823221 4.689313
v 0.997516 4.079981 4.689313
v 1.450947 1.971391 4.689313
v 1.450953 3.931808 4.689313
v 1.765786 2.394873 4.689313
v 1.765787 3.508324 4.689313
v 2.220460 2.439162 3.842615
v 2.220462 3.554911 3.842614
v 2.994678 3.084702 3.407107
v 2.540493 2.014173 3.662592
v 2.540495 3.979901 3.662591
v 2.997675 1.868658 3.405421
v 2.997676 4.125417 3.405421
v 3.451107 2.016828 3.150360
v 3.451112 3.977245 3.150356
v 3.765945 2.440310 2.973259
v 3.765947 3.553761 2.973258
v 2.437314 4.176838 3.720649
v 3.008039 4.358089 3.399609
v 3.585246 4.166418 3.074922
v 3.585246 4.166418 3.074922
v 3.993932 3.622948 2.845031
v 3.993932 2.371124 2.845031
v 3.585240 1.827655 3.074926
v 3.585240 1.827655 3.074926
v 3.008037 1.635984 3.399611
v 2.437311 1.817232 3.720652
v 2.437311 1.817232 3.720652
v 2.026281 2.359698 3.951861
v 2.026282 3.634377 3.951861
v 2.437314 4.176838 3.720649
v 2.997676 4.125417 3.405421
v 2.540495 3.979901 3.662591
v 3.451112 3.977245 3.150356
v 3.765947 3.553761 2.973258
v 3.451112 3.977245 3.150356
v 3.765945 2.440310 2.973259
v 3.451107 2.016828 3.150360
v 2.997675 1.868658 3.405421
v 3.451107 2.016828 3.150360
v 2.540493 2.014173 3.662592
v 2.220460 2.439162 3.842615
v 2.540493 2.014173 3.662592
v 2.220462 3.554911 3.842614
v 2.540495 3.979901 3.662591
v 2.220460 2.439162 3.842615
v 2.220462 3.554911 3.842614
v 2.994678 3.084702 3.407107
v 2.540493 2.014173 3.662592
v 2.540495 3.979901 3.662591
v 2.997675 1.868658 3.405421
v 2.997676 4.125417 3.405421
v 3.451107 2.016828 3.150360
v 3.451112 3.977245 3.150356
v 3.765945 2.440310 2.973259
v 3.765947 3.553761 2.973258
v 2.437155 4.179086 4.405937
v 3.007880 4.360337 4.084895
v 3.585087 4.168665 3.760209
v 3.585087 4.168665 3.760209
v 3.993773 3.625196 3.530318
v 3.993773 2.373372 3.530319
v 3.585082 1.829903 3.760212
v 3.585082 1.829903 3.760212
v 3.007878 1.638232 4.084898
v 2.437152 1.819480 4.405939
v 2.437152 1.819480 4.405939
v 2.026122 2.361946 4.637148
v 2.026123 3.636625 4.637147
v 2.437155 4.179086 4.405937
v 2.997517 4.127665 4.090708
v 2.540336 3.982149 4.347878
v 3.450953 3.979492 3.835644
v 3.765788 3.556008 3.658545
v 3.450953 3.979492 3.835644
v 3.765787 2.442558 3.658545
v 3.450948 2.019076 3.835647
v 2.997516 1.870906 4.090709
v 3.450948 2.019076 3.835647
v 2.540334 2.016421 4.347879
v 2.220300 2.441410 4.527903
v 2.540334 2.016421 4.347879
v 2.220302 3.557159 4.527902
v 2.540336 3.982149 4.347878
v 2.220300 2.441410 4.527903
v 2.220302 3.557159 4.527902
v 2.540334 2.016421 4.347879
v 2.540336 3.982149 4.347878
v 2.997516 1.870906 4.090709
v 2.997517 4.127665 4.090708
v 3.450948 2.019076 3.835647
v 3.450953 3.979492 3.835644
v 3.765787 2.442558 3.658545
v 3.765788 3.556008 3.658545
v -2.220461 2.439162 3.842612
v -2.220463 3.554911 3.842611
v -2.994679 3.084702 3.407104
v -2.540494 2.014174 3.662590
v -2.540496 3.979901 3.662588
v -2.997677 1.868658 3.405418
v -2.997677 4.125418 3.405418
v -3.451108 2.016828 3.150357
v -3.451113 3.977245 3.150352
v -3.765946 2.440310 2.973256
v -3.765948 3.553761 2.973256
v -2.437315 4.176839 3.720646
v -3.008040 4.358089 3.399607
v -3.585247 4.166418 3.074919
v -3.585247 4.166418 3.074919
v -3.993933 3.622948 2.845028
v -3.993933 2.371124 2.845028
v -3.585241 1.827655 3.074923
v -3.585241 1.827655 3.074923
v -3.008038 1.635984 3.399607
v -2.437312 1.817232 3.720648
v -2.437312 1.817232 3.720648
v -2.026282 2.359698 3.951858
v -2.026283 3.634377 3.951858
v -2.437315 4.176839 3.720646
v -2.997677 4.125418 3.405418
v -2.540496 3.979901 3.662588
v -3.451113 3.977245 3.150352
v -3.765948 3.553761 2.973256
v -3.451113 3.977245 3.150352
v -3.765946 2.440310 2.973256
v -3.451108 2.016828 3.150357
v -2.997677 1.868658 3.405418
v -3.451108 2.016828 3.150357
v -2.540494 2.014174 3.662590
v -2.220461 2.439162 3.842612
v -2.540494 2.014174 3.662590
v -2.220463 3.554911 3.842611
v -2.540496 3.979901 3.662588
v -2.220461 2.439162 3.842612
v -2.220463 3.554911 3.842611
v -2.994679 3.084702 3.407104
v -2.540494 2.014174 3.662590
v -2.540496 3.979901 3.662588
v -2.997677 1.868658 3.405418
v -2.997677 4.125418 3.405418
v -3.451108 2.016828 3.150357
v -3.451113 3.977245 3.150352
v -3.765946 2.440310 2.973256
v -3.765948 3.553761 2.973256
v -2.437156 4.179087 4.405932
v -3.007881 4.360337 4.084892
v -3.585088 4.168666 3.760206
v -3.585088 4.168666 3.760206
v -3.993775 3.625196 3.530314
v -3.993774 2.373372 3.530316
v -3.585083 1.829903 3.760209
v -3.585083 1.829903 3.760209
v -3.007879 1.638232 4.084894
v -2.437153 1.819480 4.405935
v -2.437153 1.819480 4.405935
v -2.026123 2.361946 4.637145
v -2.026124 3.636625 4.637144
v -2.437156 4.179087 4.405932
v -2.997518 4.127666 4.090705
v -2.540337 3.982149 4.347875
v -3.450954 3.979492 3.835640
v -3.765789 3.556009 3.658544
v -3.450954 3.979492 3.835640
v -3.765788 2.442558 3.658544
v -3.450949 2.019076 3.835643
v -2.997517 1.870906 4.090707
v -3.450949 2.019076 3.835643
v -2.540335 2.016421 4.347877
v -2.220302 2.441410 4.527900
v -2.540335 2.016421 4.347877
v -2.220304 3.557159 4.527900
v -2.540337 3.982149 4.347875
v -2.220302 2.441410 4.527900
v -2.220304 3.557159 4.527900
v -2.540335 2.016421 4.347877
v -2.540337 3.982149 4.347875
v -2.997517 1.870906 4.090707
v -2.997518 4.127666 4.090705
v -3.450949 2.019076 3.835643
v -3.450954 3.979492 3.835640
v -3.765788 2.442558 3.658544
v -3.765789 3.556009 3.658544
v 4.299999 2.709159 3.028911
v -4.300002 2.885966 3.272264
v -4.300001 2.709159 3.028912
v 4.299999 2.885966 3.272265
v -4.300001 2.709158 3.515615
v 4.300000 2.709158 3.515616
v -4.300001 2.709159 3.028912
v 4.300004 2.423079 3.121859
v 4.299999 2.709159 3.028911
v -4.299997 2.423079 3.121859
v -4.299997 2.423079 3.121859
v 4.299997 2.423079 3.422662
v 4.300004 2.423079 3.121859
v -4.300004 2.423079 3.422661
v -4.300004 2.423079 3.422661
v 4.300000 2.709158 3.515616
v 4.299997 2.423079 3.422662
v -4.300001 2.709158 3.515615
v -4.300004 2.423079 3.422661
v -4.300002 2.885966 3.272264
v -4.300001 2.709158 3.515615
v -4.299997 2.423079 3.121859
v -4.300001 2.709159 3.028912
v 4.299997 2.423079 3.422662
v 4.299999 2.709159 3.028911
v 4.300004 2.423079 3.121859
v 4.300000 2.709158 3.515616
v 4.299999 2.885966 3.272265
v 1.332151 5.217432 0.536106
v -1.332123 5.394239 0.779459
v -1.332124 5.217432 0.536106
v 1.332151 5.394239 0.779459
v -1.332123 5.217431 1.022812
v 1.332151 5.217431 1.022812
v -1.332124 5.217432 0.536106
v 1.332153 4.931353 0.629055
v 1.332151 5.217432 0.536106
v -1.332122 4.931353 0.629055
v -1.332122 4.931353 0.629055
v 1.332150 4.931353 0.929856
v 1.332153 4.931353 0.629055
v -1.332124 4.931353 0.929857
v -1.332124 4.931353 0.929857
v 1.332151 5.217431 1.022812
v 1.332150 4.931353 0.929856
v -1.332123 5.217431 1.022812
v -1.332124 4.931353 0.929857
v -1.332123 5.394239 0.779459
v -1.332123 5.217431 1.022812
v -1.332122 4.931353 0.629055
v -1.332124 5.217432 0.536106
v 1.332150 4.931353 0.929856
v 1.332151 5.217432 0.536106
v 1.332153 4.931353 0.629055
v 1.332151 5.217431 1.022812
v 1.332151 5.394239 0.779459
v -0.830632 5.126332 0.935128
v -0.666316 3.522429 0.372564
v -0.666316 5.188137 0.372564
v -0.830632 3.522429 0.935129
v -0.720533 5.065400 1.489735
v -0.720533 3.522429 1.489735
v -0.430526 5.003594 2.052299
v -0.430526 3.522429 2.052299
v -0.000007 3.522429 0.139544
v -0.666316 5.188137 0.372564
v -0.666316 3.522429 0.372564
v -0.000007 5.213738 0.139544
v 0.666303 3.522429 0.372563
v 0.666303 5.188137 0.372563
v 0.830620 3.522429 0.935128
v 0.666303 5.188137 0.372563
v 0.666303 3.522429 0.372563
v 0.830620 5.126332 0.935128
v 0.720523 3.522429 1.489729
v 0.720523 5.065401 1.489729
v 0.430515 3.522429 2.052299
v 0.430515 5.003594 2.052299
v -0.000005 3.522429 2.285320
v 0.430515 5.003594 2.052299
v 0.430515 3.522429 2.052299
v -0.000005 4.977993 2.285320
v -0.430526 3.522429 2.052299
v -0.430526 5.003594 2.052299
v -0.296574 4.960171 2.324724
v 0.296108 4.735308 2.322238
v -0.296119 4.735308 2.322237
v 0.296563 4.960171 2.324724
v -0.188564 5.173811 2.154282
v 0.188554 5.173811 2.154282
v 0.296563 4.960171 2.324724
v 0.320310 4.756295 2.093632
v 0.296108 4.735308 2.322238
v 0.320824 4.985053 2.096119
v 0.188554 5.173811 2.154282
v 0.203092 5.202027 1.925675
v 0.203092 5.202027 1.925675
v -0.188564 5.173811 2.154282
v -0.203103 5.202027 1.925676
v 0.188554 5.173811 2.154282
v -0.296574 4.960171 2.324724
v -0.203103 5.202027 1.925676
v -0.188564 5.173811 2.154282
v -0.320835 4.985053 2.096118
v -0.296119 4.735308 2.322237
v -0.320321 4.756295 2.093631
v 0.473210 5.428654 0.935127
v 0.666303 5.188137 0.372563
v 0.830620 5.126332 0.935128
v 0.720523 5.065401 1.489729
v 0.360238 5.470500 0.614628
v -0.000007 5.213738 0.139544
v -0.000007 5.487834 0.481874
v -0.666316 5.188137 0.372564
v -0.360250 5.470500 0.614626
v -0.830632 5.126332 0.935128
v -0.473221 5.428654 0.935127
v 0.410487 5.356238 1.489730
v -0.410496 5.356238 1.489736
v -0.720533 5.065400 1.489735
v -0.430526 5.003594 2.052299
v 0.264625 5.314389 1.810230
v 0.430515 5.003594 2.052299
v -0.000005 5.297055 1.942983
v -0.000005 4.977993 2.285320
v -0.264635 5.314389 1.810230
v -3.615282 4.896851 -3.263367
v -3.786170 4.782181 -3.148087
v -3.702353 4.782181 -3.350441
v -3.663034 4.896851 -3.148087
v -3.702353 4.782181 -2.945738
v -3.499999 4.896851 -3.311121
v -3.499999 4.782181 -3.434258
v -3.384717 4.896851 -3.263369
v -3.297647 4.782181 -3.350443
v -3.336965 4.896851 -3.148087
v -3.213829 4.782181 -3.148087
v -3.615282 4.896851 -3.032804
v -3.500000 4.782181 -2.861916
v -3.500000 4.896851 -2.985050
v -3.297646 4.782181 -2.945738
v -3.384717 4.896851 -3.032806
v -3.786170 4.782181 -3.148087
v -3.702353 4.173820 -3.350441
v -3.702353 4.782181 -3.350441
v -3.786170 4.173820 -3.148087
v -3.702353 4.782181 -2.945738
v -3.702353 4.173820 -2.945738
v -3.499999 4.173820 -3.434258
v -3.702353 4.782181 -3.350441
v -3.702353 4.173820 -3.350441
v -3.499999 4.782181 -3.434258
v -3.297647 4.173820 -3.350443
v -3.297647 4.782181 -3.350443
v -3.213829 4.173820 -3.148087
v -3.297647 4.782181 -3.350443
v -3.297647 4.173820 -3.350443
v -3.213829 4.782181 -3.148087
v -3.297646 4.173820 -2.945738
v -3.297646 4.782181 -2.945738
v -3.500000 4.173820 -2.861916
v -3.297646 4.782181 -2.945738
v -3.297646 4.173820 -2.945738
v -3.500000 4.782181 -2.861916
v -3.702353 4.173820 -2.945738
v -3.702353 4.782181 -2.945738
v 3.615282 4.896851 -3.263372
v 3.786171 4.782181 -3.148087
v 3.663035 4.896851 -3.148088
v 3.702353 4.782181 -3.350441
v 3.702354 4.782181 -2.945738
v 3.500000 4.896851 -3.311123
v 3.500000 4.782181 -3.434256
v 3.384717 4.896851 -3.263372
v 3.297647 4.782181 -3.350443
v 3.336966 4.896851 -3.148088
v 3.213830 4.782181 -3.148088
v 3.615282 4.896851 -3.032806
v 3.500000 4.782181 -2.861916
v 3.500000 4.896851 -2.985058
v 3.297647 4.782181 -2.945738
v 3.384718 4.896851 -3.032808
v 3.702353 4.173820 -3.350441
v 3.786171 4.782181 -3.148087
v 3.702353 4.782181 -3.350441
v 3.786171 4.173820 -3.148085
v 3.702354 4.782181 -2.945738
v 3.702354 4.173820 -2.945738
v 3.702353 4.782181 -3.350441
v 3.500000 4.173820 -3.434256
v 3.702353 4.173820 -3.350441
v 3.500000 4.782181 -3.434256
v 3.297647 4.173820 -3.350443
v 3.297647 4.782181 -3.350443
v 3.297647 4.782181 -3.350443
v 3.213830 4.173820 -3.148088
v 3.297647 4.173820 -3.350443
v 3.213830 4.782181 -3.148088
v 3.297647 4.173820 -2.945738
v 3.297647 4.782181 -2.945738
v 3.297647 4.782181 -2.945738
v 3.500000 4.173820 -2.861916
v 3.297647 4.173820 -2.945738
v 3.500000 4.782181 -2.861916
v 3.702354 4.173820 -2.945738
v 3.702354 4.782181 -2.945738
v 4.406791 3.842348 2.550403
v 4.858764 4.165246 1.873978
v 4.858764 3.842348 1.873978
v 4.406791 4.165246 2.550403
v 4.248420 3.842348 2.444584
v 4.858764 3.842348 1.873978
v 4.700393 3.842348 1.768160
v 4.406791 3.842348 2.550403
v 4.700393 3.842348 1.768160
v 4.858764 4.165246 1.873978
v 4.700393 4.165246 1.768160
v 4.858764 3.842348 1.873978
v 4.700393 4.165246 1.768160
v 4.406791 4.165246 2.550403
v 4.248420 4.165246 2.444584
v 4.858764 4.165246 1.873978
v 4.248420 4.165246 2.444584
v 4.406791 3.842348 2.550403
v 4.248420 3.842348 2.444584
v 4.406791 4.165246 2.550403
v 5.102160 3.842348 1.230965
v 5.260872 4.165246 0.433069
v 5.260872 3.842347 0.433069
v 5.102160 4.165246 1.230965
v 4.915349 3.842348 1.193806
v 5.260872 3.842347 0.433069
v 5.074059 3.842347 0.395910
v 5.102160 3.842348 1.230965
v 5.074059 3.842347 0.395910
v 5.260872 4.165246 0.433069
v 5.074059 4.165246 0.395910
v 5.260872 3.842347 0.433069
v 5.074059 4.165246 0.395910
v 5.102160 4.165246 1.230965
v 4.915349 4.165246 1.193806
v 5.260872 4.165246 0.433069
v 4.915349 4.165246 1.193806
v 5.102160 3.842348 1.230965
v 4.915349 3.842348 1.193806
v 5.102160 4.165246 1.230965
v 5.293579 3.842347 -0.306845
v 5.174349 4.165246 -1.111587
v 5.174349 3.842348 -1.111587
v 5.293579 4.165246 -0.306844
v 5.105165 3.842347 -0.278926
v 5.174349 3.842348 -1.111587
v 4.985935 3.842348 -1.083674
v 5.293579 3.842347 -0.306845
v 4.985935 3.842348 -1.083674
v 5.174349 4.165246 -1.111587
v 4.985935 4.165246 -1.083674
v 5.174349 3.842348 -1.111587
v 4.985935 4.165246 -1.083674
v 5.293579 4.165246 -0.306844
v 5.105165 4.165246 -0.278926
v 5.174349 4.165246 -1.111587
v 5.105165 4.165246 -0.278926
v 5.293579 3.842347 -0.306845
v 5.105165 3.842347 -0.278926
v 5.293579 4.165246 -0.306844
v 5.001541 3.842347 -1.851614
v 4.856017 4.165246 -2.652020
v 4.856017 3.842347 -2.652020
v 5.001541 4.165246 -1.851614
v 4.814143 3.842347 -1.817547
v 4.856017 3.842347 -2.652020
v 4.668617 3.842347 -2.617947
v 5.001541 3.842347 -1.851614
v 4.668617 3.842347 -2.617947
v 4.856017 4.165246 -2.652020
v 4.668617 4.165246 -2.617947
v 4.856017 3.842347 -2.652020
v 4.668617 4.165246 -2.617947
v 5.001541 4.165246 -1.851614
v 4.814143 4.165246 -1.817547
v 4.856017 4.165246 -2.652020
v 4.814143 4.165246 -1.817547
v 5.001541 3.842347 -1.851614
v 4.814143 3.842347 -1.817547
v 5.001541 4.165246 -1.851614
v -4.406792 3.842348 2.550402
v -4.858766 4.165246 1.873977
v -4.406792 4.165246 2.550402
v -4.858766 3.842348 1.873977
v -4.248422 3.842348 2.444583
v -4.858766 3.842348 1.873977
v -4.406792 3.842348 2.550402
v -4.700394 3.842348 1.768159
v -4.700394 3.842348 1.768159
v -4.858766 4.165246 1.873977
v -4.858766 3.842348 1.873977
v -4.700394 4.165246 1.768159
v -4.700394 4.165246 1.768159
v -4.406792 4.165246 2.550402
v -4.858766 4.165246 1.873977
v -4.248422 4.165246 2.444583
v -4.248422 4.165246 2.444583
v -4.406792 3.842348 2.550402
v -4.406792 4.165246 2.550402
v -4.248422 3.842348 2.444583
v -5.102159 3.842348 1.230966
v -5.260870 4.165246 0.433070
v -5.102159 4.165246 1.230966
v -5.260870 3.842348 0.433070
v -4.915347 3.842348 1.193806
v -5.260870 3.842348 0.433070
v -5.102159 3.842348 1.230966
v -5.074059 3.842348 0.395911
v -5.074059 3.842348 0.395911
v -5.260870 4.165246 0.433070
v -5.260870 3.842348 0.433070
v -5.074059 4.165246 0.395911
v -5.074059 4.165246 0.395911
v -5.102159 4.165246 1.230966
v -5.260870 4.165246 0.433070
v -4.915347 4.165246 1.193806
v -4.915347 4.165246 1.193806
v -5.102159 3.842348 1.230966
v -5.102159 4.165246 1.230966
v -4.915347 3.842348 1.193806
v -5.293581 3.842348 -0.306844
v -5.174351 4.165247 -1.111586
v -5.293581 4.165246 -0.306844
v -5.174351 3.842348 -1.111586
v -5.105166 3.842348 -0.278925
v -5.174351 3.842348 -1.111586
v -5.293581 3.842348 -0.306844
v -4.985936 3.842348 -1.083672
v -4.985936 3.842348 -1.083672
v -5.174351 4.165247 -1.111586
v -5.174351 3.842348 -1.111586
v -4.985936 4.165247 -1.083672
v -4.985936 4.165247 -1.083672
v -5.293581 4.165246 -0.306844
v -5.174351 4.165247 -1.111586
v -5.105166 4.165246 -0.278925
v -5.105166 4.165246 -0.278925
v -5.293581 3.842348 -0.306844
v -5.293581 4.165246 -0.306844
v -5.105166 3.842348 -0.278925
v -5.001543 3.842348 -1.851612
v -4.856018 4.165246 -2.652020
v -5.001543 4.165247 -1.851612
v -4.856018 3.842348 -2.652020
v -4.814144 3.842348 -1.817545
v -4.856018 3.842348 -2.652020
v -5.001543 3.842348 -1.851612
v -4.668619 3.842348 -2.617949
v -4.668619 3.842348 -2.617949
v -4.856018 4.165246 -2.652020
v -4.856018 3.842348 -2.652020
v -4.668619 4.165246 -2.617949
v -4.668619 4.165246 -2.617949
v -5.001543 4.165247 -1.851612
v -4.856018 4.165246 -2.652020
v -4.814144 4.165247 -1.817545
v -4.814144 4.165247 -1.817545
v -5.001543 3.842348 -1.851612
v -5.001543 4.165247 -1.851612
v -4.814144 3.842348 -1.817545
vn -0.5767 -0.0959 0.8113
vn -0.2226 0.3131 0.9233
vn -0.4892 -0.1495 0.8592
vn -0.2117 -0.0882 0.9733
vn -0.5837 0.0855 0.8074
vn -0.3464 0.0359 0.9374
vn -0.3020 0.4155 0.8580
vn -0.4384 0.1680 0.8829
vn -0.3515 -0.0093 0.9361
vn -0.2499 -0.2058 0.9462
vn -0.3532 -0.0045 0.9355
vn -0.3600 0.0616 0.9309
vn -0.5712 0.1095 0.8135
vn -0.6111 -0.0018 0.7915
vn 0.2577 0.0955 0.9615
vn 0.2599 -0.0930 0.9611
vn -0.0001 0.1617 0.9868
vn -0.0201 -0.1580 0.9872
vn 0.1593 0.1499 0.9758
vn 0.1005 0.1418 0.9848
vn 0.2891 0.1345 0.9478
vn 0.0121 0.0570 0.9983
vn 0.0025 -0.0104 0.9999
vn 0.2117 0.0461 0.9762
vn 0.0020 0.0067 1.0000
vn 0.0166 -0.0667 0.9976
vn 0.0988 -0.1386 0.9854
vn 0.1697 -0.1484 0.9743
vn -0.2624 -0.0937 0.9604
vn -0.1700 -0.1491 0.9741
vn -0.2701 0.0826 0.9593
vn -0.0054 -0.0330 0.9994
vn -0.0912 0.1432 0.9855
vn -0.0025 -0.0060 1.0000
vn -0.0032 -0.0105 0.9999
vn -0.0122 0.0567 0.9983
vn -0.2473 0.1153 0.9621
vn -0.2995 -0.0077 0.9541
vn -0.8315 0.0001 0.5556
vn -0.8314 -0.0000 0.5556
vn -0.9239 -0.0000 0.3827
vn -1.0000 -0.0000 0.0071
vn -0.9608 -0.0000 -0.2771
vn -0.8406 0.0001 -0.5416
vn -0.8406 -0.0000 -0.5416
vn -0.7428 -0.0000 -0.6695
vn -0.3979 -0.0000 -0.9174
vn -0.0000 -0.0000 -1.0000
vn 0.3979 -0.0000 -0.9174
vn 0.7428 -0.0000 -0.6695
vn 0.8315 -0.0000 0.5556
vn 0.9239 -0.0000 0.3827
vn 0.8314 -0.0000 0.5556
vn 1.0000 -0.0000 0.0071
vn 0.9608 -0.0000 -0.2771
vn 0.8406 -0.0000 -0.5416
vn -0.0000 -1.0000 -0.0000
vn -0.0000 1.0000 -0.0000
vn -0.1408 0.9900 0.0009
vn -0.1315 0.9899 0.0538
vn -0.0790 0.9969 0.0019
vn -0.1520 0.9876 -0.0387
vn -0.0738 0.9968 0.0311
vn 0.3724 0.9252 -0.0736
vn -0.0571 0.9964 0.0620
vn -0.0420 0.9899 0.1354
vn -0.0341 0.9961 0.0815
vn -0.0000 0.9905 0.1378
vn -0.0922 0.9950 -0.0385
vn -0.0694 0.9960 -0.0565
vn -0.1191 0.9885 -0.0935
vn -0.0316 0.9963 -0.0797
vn -0.0540 0.9897 -0.1328
vn -0.0000 0.9972 0.0750
vn -0.0000 0.9971 -0.0759
vn 0.0341 0.9961 0.0815
vn -0.0000 0.9905 -0.1372
vn 0.0410 0.9899 0.1357
vn 0.0540 0.9897 -0.1328
vn 0.0571 0.9964 0.0620
vn 0.2189 0.6772 0.7024
vn 0.0316 0.9963 -0.0797
vn 0.1191 0.9885 -0.0935
vn 0.0738 0.9968 0.0311
vn 0.1315 0.9899 0.0538
vn 0.0694 0.9960 -0.0565
vn 0.1520 0.9876 -0.0387
vn 0.0790 0.9969 0.0019
vn 0.1408 0.9900 0.0009
vn 0.0922 0.9950 -0.0385
vn 1.0000 -0.0000 -0.0000
vn 0.7412 -0.5951 -0.3105
vn 0.9138 0.1575 -0.3743
vn 0.9021 -0.3441 -0.2604
vn -0.3387 0.8982 -0.2802
vn 0.1169 0.9930 -0.0140
vn -0.1806 0.9538 0.2401
vn -0.3799 0.9003 -0.2126
vn -0.8820 -0.3277 0.3387
vn -1.0000 -0.0000 -0.0000
vn -0.8970 -0.1648 0.4102
vn -0.9464 0.2482 0.2068
vn -0.4102 -0.9120 -0.0047
vn 0.1435 -0.9896 -0.0055
vn -0.1823 -0.9480 -0.2609
vn -0.1003 -0.9907 0.0921
vn 0.2065 0.8241 0.5274
vn 0.4218 0.7207 -0.5502
vn -0.1920 -0.4998 -0.8446
vn -0.1895 -0.0000 -0.9819
vn 0.5862 0.1098 0.8027
vn 0.5880 -0.1066 0.8018
vn 0.4833 0.1695 0.8589
vn 0.4308 0.1599 0.8882
vn 0.3100 0.3785 0.8721
vn 0.3467 0.0714 0.9352
vn 0.3328 -0.0047 0.9430
vn 0.1409 -0.2720 0.9519
vn 0.3325 0.0007 0.9431
vn 0.3516 -0.0823 0.9325
vn 0.4289 -0.1557 0.8899
vn 0.4930 -0.1670 0.8539
vn -0.7071 -0.0000 -0.7071
vn -0.8660 -0.0001 -0.5000
vn -0.8660 -0.0002 -0.5000
vn -0.9659 -0.0001 -0.2588
vn -0.9660 -0.0000 -0.2587
vn -0.9659 -0.0000 0.2588
vn -0.8660 -0.0000 0.5000
vn -0.7072 -0.0000 0.7070
vn -0.7070 -0.0000 -0.7072
vn -0.5000 -0.0000 -0.8660
vn -0.2588 -0.0000 -0.9659
vn 0.2588 -0.0000 -0.9659
vn 0.5000 -0.0000 -0.8660
vn 0.7070 -0.0001 -0.7072
vn 0.7070 -0.0000 -0.7072
vn 0.6055 0.1282 -0.7854
vn 0.6055 -0.1282 -0.7854
vn -0.6055 -0.1282 -0.7854
vn -0.6056 0.1282 -0.7854
vn 0.7071 -0.0000 -0.7071
vn 0.8660 -0.0001 -0.5000
vn 0.7071 -0.0001 -0.7071
vn 0.8660 -0.0002 -0.5000
vn 0.9659 -0.0001 -0.2588
vn 0.9660 -0.0000 -0.2587
vn 0.9659 -0.0000 0.2588
vn 0.8660 -0.0000 0.5000
vn 0.7072 -0.0000 0.7070
vn -0.0000 -0.0001 1.0000
vn -0.0001 -0.0000 1.0000
vn -0.0000 -0.0000 1.0000
vn -0.1392 -0.0000 0.9903
vn -0.0000 -0.0001 -1.0000
vn 0.0066 1.0000 -0.0033
vn 0.0065 1.0000 -0.0033
vn 0.3151 0.9490 -0.0030
vn 0.3106 -0.9505 0.0032
vn 0.7992 0.6010 -0.0018
vn 0.9483 0.3174 -0.0008
vn 0.9487 0.3162 -0.0008
vn 0.0039 1.0000 -0.0033
vn -0.5787 0.8156 -0.0028
vn -0.5781 0.8159 -0.0028
vn 0.0038 1.0000 -0.0033
vn 0.3033 0.9529 -0.0031
vn 0.9487 -0.3163 0.0013
vn 0.9483 -0.3174 0.0013
vn -0.7988 -0.6016 0.0018
vn 0.7992 -0.6010 0.0022
vn -0.3106 0.9505 -0.0032
vn 1.0000 -0.0000 0.0002
vn 0.9486 -0.3166 0.0013
vn 0.9482 -0.3177 0.0013
vn -0.3151 0.9490 -0.0032
vn -0.0066 1.0000 -0.0033
vn -0.0065 1.0000 -0.0033
vn 0.7988 -0.6016 0.0022
vn 0.3027 0.9531 -0.0031
vn 0.5843 0.8115 -0.0025
vn 0.5837 0.8120 -0.0025
vn -0.7970 -0.6039 0.0018
vn -0.9481 -0.3179 0.0008
vn -0.9477 -0.3192 0.0008
vn -0.9477 0.3191 -0.0013
vn -0.9481 0.3180 -0.0013
vn 0.8025 -0.5966 0.0021
vn 0.9492 -0.3148 0.0013
vn 0.9495 -0.3137 0.0012
vn -0.9486 0.3166 -0.0013
vn -0.9482 -0.3178 0.0008
vn -0.9486 -0.3165 0.0008
vn -0.9482 0.3177 -0.0013
vn -0.7970 0.6039 -0.0022
vn -0.3033 0.9529 -0.0032
vn -0.5781 -0.8160 0.0025
vn -0.5787 -0.8155 0.0025
vn 0.3106 0.9505 -0.0030
vn 0.9495 0.3136 -0.0008
vn 0.9491 0.3148 -0.0008
vn 0.8025 0.5966 -0.0018
vn -1.0000 -0.0000 -0.0002
vn -0.9492 0.3148 -0.0013
vn -0.9495 0.3137 -0.0012
vn -0.3027 0.9531 -0.0032
vn -0.3033 -0.9529 0.0031
vn -0.8025 0.5966 -0.0021
vn -0.0001 -0.0001 -1.0000
vn 0.0001 -0.0000 1.0000
vn -0.0000 0.0001 1.0000
vn -0.0039 1.0000 -0.0033
vn -0.0038 1.0000 -0.0033
vn 0.3151 -0.9490 0.0032
vn 0.0065 -1.0000 0.0033
vn 0.0066 -1.0000 0.0033
vn -0.7988 0.6016 -0.0022
vn -0.3027 -0.9531 0.0031
vn 0.9486 0.3165 -0.0008
vn 0.9482 0.3178 -0.0008
vn 0.5787 0.8155 -0.0025
vn 0.5781 0.8160 -0.0025
vn -0.3106 -0.9505 0.0030
vn -0.9495 -0.3136 0.0008
vn -0.9491 -0.3148 0.0008
vn -0.8025 -0.5966 0.0018
vn 0.0001 0.0001 1.0000
vn -0.4903 -0.0000 -0.8716
vn -0.4903 0.0001 -0.8716
vn 0.4902 -0.0001 0.8716
vn 0.4903 -0.0001 0.8716
vn 0.4902 -0.0000 0.8716
vn 0.4903 -0.0000 0.8716
vn 0.4903 0.0001 0.8716
vn 0.3136 0.9495 -0.0030
vn 0.3122 -0.9500 0.0032
vn 0.7989 0.6015 -0.0018
vn 0.9377 0.3473 -0.0009
vn 0.9601 0.2795 -0.0007
vn 0.1026 0.9947 -0.0032
vn -0.5139 0.8578 -0.0029
vn -0.6480 0.7616 -0.0026
vn -0.0983 0.9951 -0.0033
vn 0.3017 0.9534 -0.0031
vn 0.9384 -0.3456 0.0014
vn 0.9599 -0.2803 0.0011
vn -0.7985 -0.6020 0.0018
vn 0.7997 -0.6004 0.0022
vn -0.1061 0.9944 -0.0033
vn 0.0949 0.9955 -0.0032
vn -0.5203 0.8540 -0.0029
vn -0.6528 0.7575 -0.0026
vn -0.3168 0.9485 -0.0032
vn -0.7993 0.6010 -0.0022
vn -0.3011 -0.9536 0.0031
vn 0.6518 0.7584 -0.0023
vn 0.5174 0.8557 -0.0027
vn 0.7967 0.6044 -0.0018
vn 0.9370 0.3493 -0.0009
vn 0.9598 0.2808 -0.0007
vn 0.9377 -0.3476 0.0014
vn 0.9595 -0.2816 0.0011
vn -0.8029 0.5961 -0.0021
vn -0.9383 0.3459 -0.0014
vn -0.9598 0.2805 -0.0011
vn 0.7975 -0.6033 0.0022
vn -0.3049 0.9524 -0.0032
vn 0.7985 0.6020 -0.0018
vn 0.6470 0.7625 -0.0024
vn 0.5110 0.8596 -0.0027
vn -0.3091 -0.9510 0.0030
vn 0.9607 0.2775 -0.0007
vn 0.9389 0.3443 -0.0009
vn -0.9607 -0.2775 0.0007
vn -0.9389 -0.3443 0.0009
vn -0.8022 -0.5971 0.0018
vn -0.9605 0.2783 -0.0011
vn -0.9395 0.3425 -0.0013
vn 0.3043 -0.9526 0.0032
vn -0.4903 -0.0001 -0.8716
vn 0.4903 -0.0000 0.8715
vn -0.4903 -0.0000 -0.8715
vn -0.4903 -0.0000 0.8716
vn 0.4903 0.0001 -0.8716
vn -0.4902 -0.0001 0.8716
vn -0.4903 -0.0001 0.8716
vn -0.4902 -0.0000 0.8716
vn 0.4902 -0.0000 -0.8716
vn -0.4903 0.0001 0.8716
vn -0.3203 -0.0000 0.9473
vn -0.3136 0.9495 -0.0030
vn 0.1061 0.9944 -0.0033
vn 0.3122 0.9500 -0.0032
vn -0.0949 0.9955 -0.0032
vn -0.7989 0.6015 -0.0018
vn -0.9601 0.2795 -0.0007
vn -0.9377 0.3473 -0.0009
vn 0.1026 -0.9947 0.0032
vn -0.3049 -0.9524 0.0032
vn -0.0984 -0.9951 0.0033
vn -0.3017 0.9534 -0.0031
vn -0.9599 -0.2803 0.0011
vn -0.9384 -0.3456 0.0014
vn -0.7985 0.6020 -0.0018
vn -0.7997 -0.6004 0.0022
vn 0.6528 0.7575 -0.0026
vn 0.5203 0.8540 -0.0029
vn 1.0000 -0.0000 -0.0002
vn 0.9383 0.3459 -0.0014
vn 0.9598 0.2805 -0.0011
vn -0.3168 -0.9485 0.0032
vn -0.1094 -0.9940 0.0033
vn 0.0928 -0.9957 0.0032
vn 0.7993 0.6010 -0.0022
vn 0.3011 -0.9536 0.0031
vn 0.6518 -0.7584 0.0023
vn 0.5174 -0.8557 0.0027
vn 0.7967 -0.6044 0.0018
vn 0.9370 -0.3493 0.0009
vn 0.9598 -0.2808 0.0007
vn 0.9377 0.3476 -0.0014
vn 0.9595 0.2816 -0.0011
vn 0.9605 0.2783 -0.0011
vn 0.9395 0.3425 -0.0013
vn 0.7975 0.6033 -0.0022
vn -0.5110 0.8596 -0.0027
vn -0.6470 0.7625 -0.0024
vn -0.3091 0.9510 -0.0030
vn 0.9607 -0.2775 0.0007
vn 0.9389 -0.3443 0.0009
vn 0.8022 -0.5971 0.0018
vn -1.0000 -0.0000 0.0002
vn -0.9605 -0.2783 0.0011
vn -0.9395 -0.3425 0.0013
vn -0.3043 -0.9526 0.0032
vn -0.8029 -0.5961 0.0021
vn 0.4903 -0.0001 -0.8716
vn -0.4903 -0.0000 0.8715
vn 0.4903 -0.0000 -0.8715
vn -0.0000 0.3090 -0.9511
vn -0.0000 0.8090 -0.5878
vn -0.0000 0.8090 0.5878
vn -0.0000 0.3090 0.9511
vn -0.0000 0.3091 -0.9510
vn -0.0000 -0.8090 -0.5878
vn -0.0000 -0.8091 -0.5877
vn -0.0000 -0.8090 -0.5879
vn -0.0000 -0.8090 0.5878
vn 0.5878 0.2502 -0.7693
vn -0.5878 0.2500 -0.7694
vn 0.5878 0.2500 -0.7694
vn 0.0003 0.3091 -0.9510
vn -0.6790 0.4150 -0.6055
vn -0.7254 -0.0000 -0.6884
vn -0.9183 0.3958 -0.0091
vn -0.9990 -0.0000 -0.0441
vn -0.8697 0.3642 0.3331
vn -0.9441 -0.0000 0.3297
vn -0.6513 0.3445 0.6761
vn -0.7142 -0.0000 0.6999
vn -0.7253 -0.0000 -0.6884
vn -0.6791 0.4151 -0.6054
vn 0.0017 0.4101 -0.9120
vn 0.7253 -0.0000 -0.6884
vn 0.6774 0.4145 -0.6078
vn 0.7254 -0.0000 -0.6884
vn 0.6773 0.4145 -0.6078
vn 0.9990 -0.0000 -0.0441
vn 0.9172 0.3984 -0.0018
vn 0.9441 -0.0000 0.3297
vn 0.8705 0.3695 0.3252
vn 0.7142 -0.0000 0.6999
vn 0.6480 0.3457 0.6787
vn -0.4549 -0.2948 -0.8403
vn -0.4760 -0.0000 -0.8794
vn -0.1387 0.2645 -0.9544
vn -0.6448 0.2024 -0.7370
vn 0.4760 -0.0000 -0.8794
vn 0.4549 -0.2948 -0.8403
vn 0.6424 0.2054 -0.7384
vn 0.1396 0.2685 -0.9531
vn -0.0000 0.0111 -0.9999
vn -0.0000 -0.2792 -0.9602
vn -0.0000 -0.6236 -0.7817
vn 0.9945 -0.0032 0.1050
vn 0.9945 -0.0033 0.1051
vn 0.9729 0.1948 0.1244
vn 0.9330 0.3361 0.1290
vn 0.8304 0.5417 0.1303
vn 0.8300 0.5447 0.1200
vn -0.0000 0.9925 0.1225
vn -0.8451 0.5215 0.1181
vn -0.8325 0.5383 0.1313
vn -0.9729 0.1974 0.1204
vn -0.9272 0.3489 0.1363
vn -0.9945 -0.0033 0.1051
vn -0.9945 -0.0034 0.1050
vn 0.9172 0.3985 -0.0018
vn 0.3873 0.9188 0.0766
vn 0.8704 0.3697 0.3252
vn 0.2887 0.9352 -0.2052
vn 0.0017 0.4102 -0.9120
vn 0.0071 0.7837 -0.6211
vn -0.0000 0.9916 0.1295
vn -0.2953 0.9348 -0.1971
vn -0.9183 0.3959 -0.0091
vn -0.3860 0.9202 0.0650
vn 0.3824 0.8955 0.2277
vn -0.3783 0.8943 0.2389
vn -0.8696 0.3644 0.3331
vn -0.6512 0.3446 0.6761
vn 0.3129 0.8658 0.3905
vn 0.6480 0.3458 0.6786
vn 0.0067 0.8645 0.5025
vn 0.0016 0.3481 0.9374
vn -0.3223 0.8655 0.3834
vn -0.6577 0.3673 -0.6577
vn -0.9301 0.3673 -0.0000
vn -0.4819 0.7318 -0.4819
vn -0.6815 0.7318 -0.0000
vn -0.6577 0.3673 0.6577
vn -0.0000 0.7318 -0.6815
vn -0.0000 0.3673 -0.9301
vn 0.4819 0.7318 -0.4819
vn 0.6577 0.3673 -0.6577
vn 0.6815 0.7318 -0.0000
vn 0.9301 0.3673 -0.0000
vn -0.4819 0.7318 0.4819
vn -0.0000 0.3673 0.9301
vn -0.0000 0.7318 0.6815
vn 0.6576 0.3673 0.6577
vn 0.4819 0.7318 0.4819
vn -0.7072 -0.0000 -0.7070
vn -0.9301 0.3672 -0.0000
vn -0.7072 -0.0000 0.7071
vn -0.0000 0.3672 -0.9301
vn 0.7070 0.0002 -0.7072
vn 0.7072 -0.0000 -0.7070
vn 0.9239 -0.0000 -0.3827
vn 0.9618 0.2279 -0.1517
vn 0.9618 0.2279 0.1517
vn 0.7072 -0.0000 0.7071
vn 0.6577 0.3672 0.6577
vn 0.7071 -0.0000 0.7072
vn 0.4009 0.5055 0.7641
vn 0.3827 -0.0000 0.9239
vn -0.5728 0.2279 -0.7873
vn 0.0622 0.2870 -0.9559
vn -0.3827 -0.0000 -0.9239
vn 0.3827 -0.0000 -0.9239
vn 0.3536 -0.3826 -0.8536
vn 0.5729 0.2279 -0.7873
vn -0.0104 0.3560 -0.9344
vn 0.6577 0.3673 0.6577
vn 0.7071 -0.0000 -0.7072
vn -0.9239 -0.0000 -0.3827
vn -0.9618 0.2279 -0.1517
vn -0.9618 0.2279 0.1517
vn 0.5728 0.2279 -0.7873
vn -0.5729 0.2279 -0.7873
vn -0.3536 -0.3826 -0.8536
vn 0.0105 0.3559 -0.9345
vn -0.8315 -0.0000 -0.5556
vn 0.5556 -0.0000 -0.8315
vn 0.9808 -0.0000 0.1951
vn 0.1951 -0.0000 -0.9808
vn 0.9892 -0.0000 -0.1466
vn -0.1466 -0.0000 -0.9892
vn -0.1465 -0.0000 -0.9892
vn 0.1466 -0.0000 0.9892
vn 0.9839 -0.0000 -0.1789
vn -0.1789 -0.0000 -0.9839
vn 0.1789 -0.0000 0.9839
vn 0.1788 -0.0000 0.9839
vn -0.8315 -0.0000 0.5556
vn -0.5556 -0.0000 -0.8315
vn 0.5556 -0.0000 0.8315
vn -0.9808 -0.0000 0.1951
vn -0.1951 -0.0000 -0.9808
vn 0.1951 -0.0000 0.9808
vn -0.9892 -0.0000 -0.1466
vn 0.1466 -0.0000 -0.9892
vn 0.1465 -0.0000 -0.9892
vn -0.1466 -0.0000 0.9892
vn -0.9839 -0.0000 -0.1789
vn 0.1789 -0.0000 -0.9839
vn -0.1789 -0.0000 0.9839
vt 0.000000 0.000000
vt 0.523572 0.566715
vt -2.826490 0.513825
vt -2.826490 0.566715
vt -2.846334 0.513825
vt -2.846334 0.566715
vt -2.869743 0.513825
vt -2.869743 0.566715
vt -2.928461 0.566715
vt -2.928461 0.513825
vt -2.948306 0.513825
vt -2.948306 0.566715
vt 0.539825 0.513825
vt 0.539825 0.566715
vt 0.521552 0.513825
vt 0.521552 0.566715
vt 0.499997 0.513825
vt 0.499997 0.566715
vt 0.478443 0.566715
vt 0.478443 0.513825
vt 0.460170 0.566715
vt 0.460170 0.513825
vt 3.826490 0.513825
vt 3.846334 0.513825
vt 3.826490 0.566715
vt 3.846334 0.566715
vt 3.869743 0.513825
vt 3.869743 0.566715
vt 3.928461 0.566715
vt 3.928461 0.513825
vt 3.948306 0.513825
vt 3.948306 0.566715
vt 0.476428 3.809472
vt 0.499998 3.869743
vt 0.456446 3.826490
vt 0.443095 3.846334
vt 0.499998 3.804816
vt 0.438407 3.869743
vt 0.447960 3.928461
vt 0.460170 3.948306
vt 0.478443 3.961565
vt 0.499997 3.966222
vt 0.521552 3.961565
vt 0.539825 3.948306
vt 0.552035 3.928461
vt 0.561588 3.869743
vt 0.556900 3.846334
vt 0.523567 3.809472
vt 0.543549 3.826490
vt 0.438412 3.869743
vt 0.443100 3.846334
vt 0.467886 3.869743
vt 0.447965 3.928461
vt 0.470331 3.857537
vt 0.500002 3.886700
vt 0.456451 3.826490
vt 0.477293 3.847189
vt 0.476433 3.813230
vt 0.487712 3.840275
vt 0.500002 3.808574
vt 0.472868 3.917259
vt 0.479235 3.927607
vt 0.460175 3.948306
vt 0.488763 3.934521
vt 0.478448 3.961565
vt 0.500002 3.837847
vt 0.500003 3.936949
vt 0.512293 3.840275
vt 0.500003 3.966222
vt 0.523572 3.813230
vt 0.521557 3.961565
vt 0.522712 3.847189
vt 0.543554 3.826490
vt 0.511242 3.934521
vt 0.539830 3.948306
vt 0.529674 3.857537
vt 0.556905 3.846334
vt 0.520770 3.927607
vt 0.552040 3.928461
vt 0.532118 3.869743
vt 0.561593 3.869743
vt 0.527137 3.917259
vt 3.822732 0.513825
vt 3.822732 0.566715
vt 0.543554 3.822732
vt 0.523572 3.809472
vt 0.500002 3.804816
vt 0.476433 3.809472
vt 0.456451 3.822732
vt -2.822732 0.566715
vt -2.822732 0.513825
vt 0.456446 3.822732
vt 0.543549 3.822732
vt -2.906378 0.513826
vt -2.906378 0.500000
vt -2.895663 0.513826
vt -2.895663 0.500000
vt -2.883152 0.500000
vt -2.883152 0.513826
vt -2.869742 0.513826
vt -2.869743 0.500000
vt -2.856333 0.500000
vt -2.856333 0.513826
vt -2.843822 0.513826
vt -2.843822 0.500000
vt -2.833107 0.500000
vt -2.833107 0.513826
vt 0.536886 0.513826
vt 0.526097 0.513826
vt 0.536886 0.500000
vt 0.526097 0.500000
vt 0.513500 0.500000
vt 0.513500 0.513826
vt 0.499997 0.513826
vt 0.499997 0.500000
vt 0.486495 0.500000
vt 0.486495 0.513826
vt 0.473898 0.513826
vt 0.473898 0.500000
vt 0.463109 0.500000
vt 0.463109 0.513826
vt 0.463114 0.513826
vt 0.473903 0.513826
vt 0.463114 0.500000
vt 0.473903 0.500000
vt 0.486500 0.500000
vt 0.486500 0.513826
vt 0.500002 0.513826
vt 0.500002 0.500000
vt 0.513505 0.500000
vt 0.513505 0.513826
vt 0.526102 0.513826
vt 0.526102 0.500000
vt 0.536891 0.500000
vt 0.536891 0.513826
vt 3.906378 0.513826
vt 3.895663 0.513826
vt 3.906378 0.500000
vt 3.895663 0.500000
vt 3.883152 0.500000
vt 3.883152 0.513826
vt 3.869743 0.513826
vt 3.869743 0.500000
vt 3.856333 0.500000
vt 3.856333 0.513826
vt 3.843822 0.513826
vt 3.843822 0.500000
vt 3.833107 0.500000
vt 3.833107 0.513826
vt 0.545204 3.895663
vt 0.499998 3.869743
vt 0.550388 3.883152
vt 0.552197 3.869743
vt 0.536886 3.906378
vt 0.550388 3.856333
vt 0.526097 3.914639
vt 0.545204 3.843822
vt 0.513500 3.919788
vt 0.536886 3.833107
vt 0.499997 3.921585
vt 0.526097 3.824846
vt 0.486495 3.919788
vt 0.513500 3.819697
vt 0.473898 3.914639
vt 0.499998 3.817900
vt 0.463109 3.906378
vt 0.486495 3.819697
vt 0.454791 3.895663
vt 0.473898 3.824846
vt 0.449607 3.883152
vt 0.463109 3.833107
vt 0.447798 3.869743
vt 0.454791 3.843822
vt 0.449607 3.856333
vt 0.476335 0.546236
vt 0.464568 0.536408
vt 0.464568 0.553394
vt 0.469432 0.529938
vt 0.469432 0.559864
vt 0.476380 0.527723
vt 0.476380 0.562080
vt 0.483271 0.529978
vt 0.483271 0.559824
vt 0.488056 0.536425
vt 0.488056 0.553377
vt 0.456451 3.825731
vt 0.456451 3.822057
vt 0.543554 3.825731
vt 0.543554 3.822057
vt 0.456451 3.818384
vt 0.543554 3.818384
vt 0.456446 0.542422
vt 0.456446 0.538067
vt 0.543549 0.542422
vt 0.543549 0.538067
vt 0.456446 3.824327
vt 0.456446 3.819787
vt 0.543549 3.824327
vt 0.543549 3.819787
vt 0.543554 0.538067
vt 0.456451 0.538067
vt 0.543554 0.542422
vt 0.456451 0.542422
vt -2.818384 0.542422
vt -2.822057 0.545114
vt -2.819787 0.538067
vt -2.824327 0.538067
vt -2.825731 0.542422
vt 3.824327 0.538067
vt 3.825731 0.542422
vt 3.819787 0.538067
vt 3.818384 0.542422
vt 3.822057 0.545114
vt 0.479757 3.861650
vt 0.479757 3.857977
vt 0.520249 3.861650
vt 0.520249 3.857977
vt 0.479757 3.854304
vt 0.520249 3.854304
vt 0.479751 0.576589
vt 0.479751 0.572234
vt 0.520243 0.576589
vt 0.520243 0.572234
vt 0.479751 3.860247
vt 0.479751 3.855707
vt 0.520243 3.860247
vt 0.520243 3.855707
vt 0.520249 0.572234
vt 0.479757 0.572234
vt 0.520249 0.576589
vt 0.479757 0.576589
vt -2.854304 0.576589
vt -2.857977 0.579281
vt -2.855707 0.572234
vt -2.860247 0.572234
vt -2.861650 0.576589
vt 3.860247 0.572234
vt 3.861650 0.576589
vt 3.855707 0.572234
vt 3.854304 0.576589
vt 3.857977 0.579281
vt -2.864119 0.576143
vt -2.864119 0.550785
vt -2.855628 0.575202
vt -2.855628 0.550785
vt -2.847256 0.574275
vt -2.847256 0.550785
vt -2.838765 0.573334
vt -2.838765 0.550785
vt 0.510124 0.550785
vt 0.510124 0.576143
vt 0.499998 0.550785
vt 0.499998 0.576533
vt 0.489871 0.550785
vt 0.489871 0.576143
vt 3.864119 0.550785
vt 3.864119 0.576143
vt 3.855628 0.550785
vt 3.855628 0.575202
vt 3.847257 0.550785
vt 3.847257 0.574275
vt 3.838765 0.550785
vt 3.838765 0.573334
vt 0.506546 0.550785
vt 0.500003 0.550785
vt 0.506546 0.573334
vt 0.500003 0.572944
vt 0.493459 0.550785
vt 0.493459 0.573334
vt 0.495502 0.569250
vt 0.495495 0.572673
vt 0.504503 0.569250
vt 0.504510 0.572673
vt 0.497137 0.575925
vt 0.502868 0.575925
vt 3.834691 0.569250
vt 3.838141 0.569569
vt 3.834653 0.572673
vt 3.838104 0.573052
vt 3.837226 0.575925
vt 3.840677 0.576355
vt 0.496916 3.840677
vt 0.497137 3.837226
vt 0.503089 3.840677
vt 0.502868 3.837226
vt -2.837226 0.575925
vt -2.840677 0.576355
vt -2.834653 0.572673
vt -2.838104 0.573052
vt -2.834691 0.569250
vt -2.838141 0.569569
vt 0.512626 3.855628
vt 0.510129 3.864119
vt 0.507194 3.855628
vt 0.510953 3.847257
vt 0.505477 3.860465
vt 0.500002 3.867636
vt 0.500002 3.862469
vt 0.489876 3.864119
vt 0.494527 3.860465
vt 0.487379 3.855628
vt 0.492811 3.855628
vt 0.506241 3.847257
vt 0.493764 3.847256
vt 0.489052 3.847256
vt 0.493459 3.838765
vt 0.504024 3.842419
vt 0.506546 3.838765
vt 0.500003 3.840415
vt 0.500003 3.835248
vt 0.495981 3.842419
vt 0.463423 3.920314
vt 0.462150 3.917259
vt 0.464747 3.918999
vt 0.464021 3.917259
vt 0.463423 3.914205
vt 0.466499 3.919720
vt 0.466499 3.921579
vt 0.468251 3.918999
vt 0.469574 3.920314
vt 0.468977 3.917259
vt 0.470848 3.917259
vt 0.464747 3.915519
vt 0.466499 3.912940
vt 0.466499 3.914798
vt 0.469574 3.914205
vt 0.468251 3.915519
vt -2.920314 0.572804
vt -2.920314 0.563542
vt -2.917259 0.572804
vt -2.917259 0.563542
vt -2.914205 0.572804
vt -2.914205 0.563542
vt 0.536577 0.563542
vt 0.536577 0.572804
vt 0.533501 0.563542
vt 0.533501 0.572804
vt 0.530426 0.563542
vt 0.530426 0.572804
vt 3.920314 0.563542
vt 3.920314 0.572804
vt 3.917259 0.563542
vt 3.917259 0.572804
vt 3.914205 0.563542
vt 3.914205 0.572804
vt 0.469574 0.563542
vt 0.469574 0.572804
vt 0.466499 0.563542
vt 0.466499 0.572804
vt 0.463423 0.563542
vt 0.463423 0.572804
vt 0.535984 3.917259
vt 0.537856 3.917259
vt 0.535259 3.918999
vt 0.536582 3.920314
vt 0.536582 3.914205
vt 0.533507 3.919720
vt 0.533507 3.921579
vt 0.531754 3.918999
vt 0.530431 3.920314
vt 0.531029 3.917259
vt 0.529157 3.917259
vt 0.535259 3.915519
vt 0.533507 3.912940
vt 0.533507 3.914798
vt 0.530431 3.914205
vt 0.531754 3.915519
vt 0.463418 0.563542
vt 0.466493 0.563542
vt 0.463418 0.572804
vt 0.466493 0.572804
vt 0.469569 0.563542
vt 0.469569 0.572804
vt 0.530431 0.563542
vt 0.530431 0.572804
vt 0.533507 0.563542
vt 0.533507 0.572804
vt 0.536582 0.563542
vt 0.536582 0.572804
vt 3.841457 0.558496
vt 3.831247 0.558496
vt 3.841457 0.563412
vt 3.831247 0.563412
vt 0.445302 3.843054
vt 0.442895 3.841457
vt 0.452171 3.832844
vt 0.449764 3.831247
vt 0.445302 0.563412
vt 0.442895 0.563412
vt 0.445302 0.558496
vt 0.442895 0.558496
vt 0.547829 3.832844
vt 0.550236 3.831247
vt 0.554698 3.843054
vt 0.557105 3.841457
vt 0.547829 0.558496
vt 0.547829 0.563412
vt 0.550236 0.558496
vt 0.550236 0.563412
vt 3.863206 0.558496
vt 3.863206 0.563412
vt 3.851162 0.558496
vt 3.851162 0.563412
vt 0.439605 3.863766
vt 0.436765 3.863206
vt 0.442017 3.851723
vt 0.439178 3.851162
vt 0.439605 0.563412
vt 0.436765 0.563412
vt 0.439605 0.558496
vt 0.436765 0.558496
vt 0.557983 3.851723
vt 0.560822 3.851162
vt 0.560395 3.863766
vt 0.563235 3.863206
vt 0.557983 0.558496
vt 0.557983 0.563412
vt 0.560822 0.558496
vt 0.560822 0.563412
vt 3.886520 0.558496
vt 3.886520 0.563412
vt 3.874374 0.558496
vt 3.874374 0.563412
vt 0.441114 3.886099
vt 0.438251 3.886520
vt 0.439302 3.873952
vt 0.436439 3.874374
vt 0.441114 0.563412
vt 0.438251 0.563412
vt 0.441114 0.558496
vt 0.438251 0.558496
vt 0.560698 3.873952
vt 0.563561 3.874374
vt 0.558886 3.886099
vt 0.561749 3.886520
vt 0.560698 0.558496
vt 0.563561 0.558496
vt 0.560698 0.563412
vt 0.563561 0.563412
vt 3.909772 0.558496
vt 3.909772 0.563412
vt 3.897690 0.558496
vt 3.897690 0.563412
vt 0.445108 3.909257
vt 0.442260 3.909772
vt 0.442896 3.897176
vt 0.440048 3.897690
vt 0.445108 0.563412
vt 0.442260 0.563412
vt 0.445108 0.558496
vt 0.442260 0.558496
vt 0.557104 3.897176
vt 0.559952 3.897690
vt 0.554892 3.909257
vt 0.557740 3.909772
vt 0.557104 0.558496
vt 0.559952 0.558496
vt 0.557104 0.563412
vt 0.559952 0.563412
vt -2.831247 0.563412
vt -2.841457 0.563412
vt -2.831247 0.558496
vt -2.841457 0.558496
vt 0.550232 3.831247
vt 0.557101 3.841457
vt 0.547825 3.832844
vt 0.554694 3.843054
vt 0.557101 0.558496
vt 0.557101 0.563412
vt 0.554694 0.558496
vt 0.554694 0.563412
vt 0.442899 3.841457
vt 0.449768 3.831247
vt 0.445306 3.843054
vt 0.452175 3.832844
vt 0.449768 0.563412
vt 0.449768 0.558496
vt 0.452175 0.563412
vt 0.452175 0.558496
vt -2.851162 0.563412
vt -2.863206 0.563412
vt -2.851162 0.558496
vt -2.863206 0.558496
vt 0.560818 3.851162
vt 0.563230 3.863206
vt 0.557979 3.851723
vt 0.560391 3.863767
vt 0.563230 0.558496
vt 0.563230 0.563412
vt 0.560391 0.558496
vt 0.560391 0.563412
vt 0.436770 3.863206
vt 0.439182 3.851162
vt 0.439609 3.863767
vt 0.442021 3.851723
vt 0.439182 0.563412
vt 0.439182 0.558496
vt 0.442021 0.563412
vt 0.442021 0.558496
vt -2.874374 0.563412
vt -2.886521 0.563412
vt -2.874374 0.558496
vt -2.886521 0.558496
vt 0.563591 3.874374
vt 0.561779 3.886521
vt 0.560727 3.873952
vt 0.558915 3.886099
vt 0.561779 0.558496
vt 0.561779 0.563412
vt 0.558915 0.558496
vt 0.558915 0.563412
vt 0.438221 3.886521
vt 0.436409 3.874374
vt 0.441085 3.886099
vt 0.439273 3.873952
vt 0.436409 0.563412
vt 0.436409 0.558496
vt 0.439273 0.563412
vt 0.439273 0.558496
vt -2.897690 0.563412
vt -2.909772 0.563412
vt -2.897690 0.558496
vt -2.909772 0.558496
vt 0.559980 3.897690
vt 0.557769 3.909772
vt 0.557132 3.897176
vt 0.554921 3.909257
vt 0.557769 0.558496
vt 0.557769 0.563412
vt 0.554921 0.558496
vt 0.554921 0.563412
vt 0.442231 3.909772
vt 0.440020 3.897690
vt 0.445079 3.909257
vt 0.442868 3.897176
vt 0.440020 0.563412
vt 0.440020 0.558496
vt 0.442868 0.563412
vt 0.442868 0.558496
s 1
f 14/1/1 1/1/2 13/1/3
f 4/1/4 1/1/2 14/1/1 12/1/5
f 5/1/6 13/1/3 1/1/2
f 5/1/6 1/1/2 2/1/7
f 2/1/7 6/1/8 5/1/6
f 2/1/7 7/1/9 6/1/8
f 3/1/10 8/1/11 7/1/9 2/1/7
f 8/1/11 3/1/10 9/1/12
f 9/1/12 3/1/10 10/1/13
f 10/1/13 3/1/10 4/1/4
f 10/1/13 4/1/4 11/1/14
f 12/1/5 11/1/14 4/1/4
f 22/1/15 20/1/16 28/1/17 29/1/18
f 29/1/18 23/1/19 22/1/15
f 29/1/18 24/1/20 23/1/19
f 16/1/21 24/1/20 29/1/18
f 24/1/20 16/1/21 25/1/22
f 25/1/22 16/1/21 26/1/23
f 26/1/23 16/1/21 15/2/24 21/1/25
f 15/1/24 19/1/26 21/1/25
f 15/1/24 17/1/27 19/1/26
f 15/1/24 28/1/17 17/1/27
f 28/1/17 18/1/28 17/1/27
f 28/1/17 20/1/16 18/1/28
f 40/1/29 28/1/17 39/1/30
f 29/1/18 28/1/17 40/1/29 38/1/31
f 31/1/32 39/1/30 28/1/17
f 31/1/32 28/1/17 1/1/2
f 1/1/2 32/1/33 31/1/32
f 1/1/2 33/1/34 32/1/33
f 4/1/4 34/1/35 33/1/34 1/1/2
f 34/1/35 4/1/4 35/1/36
f 35/1/36 4/1/4 36/1/37
f 36/1/37 4/1/4 29/1/18
f 36/1/37 29/1/18 37/1/38
f 38/1/31 37/1/38 29/1/18
f 43/3/39 42/4/40 41/5/41
f 44/6/41 41/5/41 42/4/40
f 41/5/41 44/6/41 45/7/42
f 46/8/42 45/7/42 44/6/41
f 46/8/42 47/9/43 45/7/42
f 48/10/43 45/7/42 47/9/43
f 48/10/43 47/9/43 49/11/44
f 50/12/45 49/11/44 47/9/43
f 53/13/46 52/14/46 51/15/47
f 54/16/47 51/15/47 52/14/46
f 51/15/47 54/16/47 55/17/48
f 56/18/48 55/17/48 54/16/47
f 56/18/48 57/19/49 55/17/48
f 58/20/49 55/17/48 57/19/49
f 57/19/49 59/21/50 58/20/49
f 60/22/50 58/20/49 59/21/50
f 63/23/51 62/24/52 61/25/53
f 64/26/52 61/25/53 62/24/52
f 62/24/52 65/27/54 64/26/52
f 66/28/54 64/26/52 65/27/54
f 66/28/54 65/27/54 67/29/55
f 68/30/55 67/29/55 65/27/54
f 68/30/55 69/31/56 67/29/55
f 70/32/56 67/29/55 69/31/56
f 72/33/57 73/34/57 71/35/57
f 71/35/58 74/36/58 73/34/58
f 75/37/57 73/34/57 72/33/57
f 76/38/57 74/36/57 73/34/57
f 77/39/57 76/38/57 73/34/57
f 78/40/57 77/39/57 73/34/57
f 78/40/57 73/34/57 79/41/57
f 79/41/57 73/34/57 80/42/57
f 80/42/57 73/34/57 81/43/57
f 81/43/57 73/34/57 82/44/57
f 82/44/57 73/34/57 83/45/57
f 83/45/57 73/34/57 84/46/57
f 73/34/57 85/47/57 84/46/57
f 86/48/57 73/34/57 75/37/57
f 87/49/57 85/47/57 73/34/57
f 87/49/57 73/34/57 86/48/57
f 90/50/59 89/51/60 88/52/61
f 90/50/59 88/52/61 91/53/62
f 92/54/63 88/52/61 89/51/60
f 88/52/61 92/54/63 93/55/58
f 89/51/60 42/56/64 92/54/63
f 94/57/65 92/54/63 42/56/64
f 92/54/63 94/57/65 93/55/58
f 42/56/64 95/58/66 94/57/65
f 96/59/67 94/57/65 95/58/66
f 94/57/65 96/59/67 93/55/58
f 95/58/66 97/60/68 96/59/67
f 98/61/69 91/53/62 88/52/61
f 98/61/69 88/52/61 93/55/58
f 98/61/69 99/62/70 91/53/62
f 99/62/70 98/61/69 93/55/58
f 100/63/71 91/53/62 99/62/70
f 99/62/70 101/64/72 100/63/71
f 99/62/70 93/55/58 101/64/72
f 102/65/73 100/63/71 101/64/72
f 93/55/58 96/59/67 103/66/74
f 103/66/74 96/59/67 97/60/68
f 101/64/72 93/55/58 104/67/75
f 101/64/72 104/67/75 102/65/73
f 105/68/76 93/55/58 103/66/74
f 103/66/74 97/60/68 105/68/76
f 106/69/77 102/65/73 104/67/75
f 107/70/78 105/68/76 97/60/68
f 106/69/77 104/67/75 108/71/79
f 105/68/76 107/70/78 109/72/80
f 109/72/80 93/55/58 105/68/76
f 61/73/81 109/72/80 107/70/78
f 110/74/82 108/71/79 104/67/75
f 93/55/58 110/74/82 104/67/75
f 108/71/79 110/74/82 111/75/83
f 109/72/80 61/73/81 112/76/84
f 109/72/80 112/76/84 93/55/58
f 113/77/85 112/76/84 61/73/81
f 114/78/86 111/75/83 110/74/82
f 114/78/86 110/74/82 93/55/58
f 111/75/83 114/78/86 115/79/87
f 112/76/84 113/77/85 116/80/88
f 112/76/84 116/80/88 93/55/58
f 117/81/89 116/80/88 113/77/85
f 117/81/89 115/79/87 116/80/88
f 118/82/90 115/79/87 114/78/86
f 118/82/90 114/78/86 93/55/58
f 118/82/90 116/80/88 115/79/87
f 116/80/88 118/82/90 93/55/58
f 122/23/91 61/25/92 121/83/93
f 123/84/94 121/83/93 61/25/92
f 61/73/81 107/70/78 123/85/95
f 15/86/96 123/85/95 107/70/78
f 107/70/78 97/60/68 15/86/96
f 125/87/58 15/86/96 97/60/68
f 125/87/58 97/60/68 1/88/97
f 95/58/66 1/88/97 97/60/68
f 1/88/97 95/58/66 2/89/98
f 42/56/64 2/89/98 95/58/66
f 42/4/99 126/3/100 2/90/101
f 3/91/102 2/90/101 126/3/100
f 121/92/103 16/33/104 129/35/57
f 3/93/105 130/49/57 4/48/106
f 4/1/107 86/1/58 130/1/58 119/1/58 126/1/58 43/1/58 87/1/58
f 75/37/58 86/48/58 127/1/108
f 127/1/108 86/48/58 4/1/107
f 72/1/58 127/1/58 16/1/109
f 75/1/57 72/1/57 127/1/57
f 16/1/110 72/1/57 120/1/57 129/1/57 122/1/57 63/1/57 71/1/57
f 132/1/111 27/1/112 15/1/24 16/1/21
f 16/1/21 133/1/113 132/1/111
f 16/1/21 134/1/114 133/1/113
f 121/1/115 134/1/114 16/1/21
f 134/1/114 121/1/115 135/1/116
f 135/1/116 121/1/115 136/1/117
f 136/1/117 121/1/115 123/2/118 131/1/119
f 123/1/118 124/1/120 131/1/119
f 123/1/118 128/1/121 124/1/120
f 123/1/118 15/1/24 128/1/121
f 15/1/24 30/1/122 128/1/121
f 15/1/24 27/1/112 30/1/122
f 139/94/123 138/95/123 137/96/124
f 140/97/125 137/96/124 138/95/123
f 140/97/125 141/98/126 137/96/124
f 142/99/127 137/96/124 141/98/126
f 142/99/127 141/98/126 143/100/100
f 144/101/100 143/100/100 141/98/126
f 144/101/100 145/102/128 143/100/100
f 146/103/128 143/100/100 145/102/128
f 146/103/128 145/102/128 147/104/129
f 148/105/129 147/104/129 145/102/128
f 148/105/129 149/106/130 147/104/129
f 150/107/130 147/104/129 149/106/130
f 153/108/131 152/109/132 151/110/131
f 154/111/132 151/110/131 152/109/132
f 154/111/132 152/109/132 155/112/133
f 156/113/133 155/112/133 152/109/132
f 156/113/133 157/114/48 155/112/133
f 158/115/48 155/112/133 157/114/48
f 158/115/48 157/114/48 159/116/134
f 160/117/134 159/116/134 157/114/48
f 160/117/134 161/118/135 159/116/134
f 162/119/135 159/116/134 161/118/135
f 162/119/135 161/118/135 163/120/136
f 164/121/137 163/120/136 161/118/135
f 167/122/138 165/123/135 166/124/139
f 168/125/135 166/124/139 165/123/135
f 168/125/135 165/123/135 169/126/134
f 170/127/134 169/126/134 165/123/135
f 170/127/134 171/128/48 169/126/134
f 172/129/48 169/126/134 171/128/48
f 172/129/48 171/128/48 173/130/133
f 174/131/133 173/130/133 171/128/48
f 174/131/133 175/132/132 173/130/133
f 176/133/132 173/130/133 175/132/132
f 176/133/132 175/132/132 177/134/140
f 178/135/141 177/134/140 175/132/132
f 181/136/142 180/137/143 179/138/144
f 182/139/145 179/138/144 180/137/143
f 182/139/145 180/137/143 183/140/146
f 184/141/147 183/140/146 180/137/143
f 184/141/147 185/142/91 183/140/146
f 186/143/91 183/140/146 185/142/91
f 186/143/91 185/142/91 187/144/148
f 188/145/148 187/144/148 185/142/91
f 188/145/148 189/146/149 187/144/148
f 190/147/149 187/144/148 189/146/149
f 190/147/149 189/146/149 191/148/150
f 192/149/150 191/148/150 189/146/149
f 195/150/57 194/151/57 193/152/57
f 193/152/57 194/151/57 196/153/57
f 197/154/57 194/151/57 195/150/57
f 196/153/57 194/151/57 198/155/57
f 199/156/57 194/151/57 197/154/57
f 198/155/57 194/151/57 200/157/57
f 201/158/57 194/151/57 199/156/57
f 200/157/57 194/151/57 202/159/57
f 203/160/57 194/151/57 201/158/57
f 202/159/57 194/151/57 204/161/57
f 205/162/57 194/151/57 203/160/57
f 204/161/57 194/151/57 206/163/57
f 207/164/57 194/151/57 205/162/57
f 206/163/57 194/151/57 208/165/57
f 209/166/57 194/151/57 207/164/57
f 208/165/57 194/151/57 210/167/57
f 211/168/57 194/151/57 209/166/57
f 210/167/57 194/151/57 212/169/57
f 213/170/57 194/151/57 211/168/57
f 212/169/57 194/151/57 214/171/57
f 215/172/57 194/151/57 213/170/57
f 214/171/57 194/151/57 216/173/57
f 217/174/57 194/151/57 215/172/57
f 216/173/57 194/151/57 217/174/57
f 220/175/48 218/176/48 219/177/48
f 220/175/48 221/178/48 218/176/48
f 219/177/48 222/179/48 220/175/48
f 223/180/48 221/178/48 220/175/48
f 222/179/48 224/181/48 220/175/48
f 225/182/48 223/180/48 220/175/48
f 224/181/48 226/183/48 220/175/48
f 227/184/48 225/182/48 220/175/48
f 220/175/48 226/183/48 228/185/48
f 220/175/48 228/185/48 227/184/48
f 268/1/151 281/1/151 299/1/151 295/1/151 283/1/151 301/1/151 282/1/151 269/1/151
f 270/1/151 269/1/151 301/1/151 282/1/151 284/1/151 286/1/151 303/1/151 271/1/151
f 272/1/152 270/1/151 271/1/151 303/1/151 286/1/151 284/1/151 305/185/152 285/1/152
f 285/1/152 287/1/152 273/1/152 272/1/152
f 288/1/152 274/1/152 273/1/152 287/1/152
f 259/175/48 257/176/48 258/177/48
f 259/175/48 260/178/48 257/176/48
f 258/177/48 261/179/48 259/175/48
f 262/180/48 260/178/48 259/175/48
f 261/179/48 263/181/48 259/175/48
f 264/182/153 259/175/153 262/180/153
f 263/181/153 259/175/153 265/183/153
f 266/184/153 259/175/153 264/182/153
f 259/175/153 267/185/153 265/183/153
f 259/175/153 266/184/153 267/185/153
f 293/1/154 298/178/154 300/180/154 291/1/154
f 276/1/155 277/1/155 278/1/155 298/1/155 293/1/155 291/1/155 300/180/155 289/1/155
f 230/1/156 269/1/157 270/1/158 231/1/158
f 250/1/159 251/1/159 290/1/159 289/1/159
f 232/1/160 271/1/160 272/1/161 233/1/162
f 263/181/163 261/179/164 299/179/165 301/181/166
f 250/1/167 252/1/167 291/1/167 289/1/167
f 233/1/162 272/1/161 273/1/168 234/1/169
f 253/1/170 254/1/170 293/1/170 292/1/170
f 234/1/169 273/1/168 274/1/171 235/1/171
f 262/180/172 300/180/172 302/182/172 264/182/172
f 253/1/173 255/1/174 294/1/175 292/1/173
f 236/1/176 237/1/177 276/1/178 275/1/176
f 255/1/174 256/1/179 295/1/179 294/1/175
f 237/1/177 238/1/180 277/1/180 276/1/178
f 265/183/181 263/181/163 301/181/166 303/183/182
f 239/1/183 278/1/183 279/1/184 240/1/185
f 240/1/185 279/1/184 280/1/186 241/1/187
f 264/182/188 266/184/189 304/184/190 302/182/188
f 258/177/191 257/176/192 296/176/193 297/177/194
f 241/1/187 280/1/186 281/1/195 242/1/195
f 243/1/163 244/1/196 283/1/196 282/1/166
f 257/176/192 260/178/197 298/178/198 296/176/193
f 243/1/163 282/1/166 284/1/199 245/1/199
f 267/185/200 265/183/181 303/183/182 305/185/201
f 261/179/164 258/177/191 297/177/194 299/179/165
f 246/1/202 247/1/202 286/1/202 285/1/202
f 266/184/189 267/185/200 305/185/201 304/184/190
f 246/1/203 248/1/204 287/1/205 285/1/203
f 229/1/206 268/1/206 269/1/157 230/1/156
f 260/178/197 262/180/207 300/180/207 298/178/198
f 248/1/204 249/1/208 288/1/208 287/1/205
f 276/1/155 300/180/155 289/1/155 288/1/155 290/1/155 302/182/155 275/1/155 274/1/155
f 277/1/155 279/1/209 296/1/209 292/1/209 291/1/209 293/1/209 298/178/155 278/1/155
f 279/1/210 292/1/210 296/176/210 297/177/210 294/1/210 280/1/210
f 299/179/151 281/1/151 280/1/210 294/1/210 297/177/210
f 308/175/48 306/176/48 307/177/48
f 308/175/48 309/178/48 306/176/48
f 307/177/48 310/179/48 308/175/48
f 311/180/48 309/178/48 308/175/48
f 310/179/48 312/181/48 308/175/48
f 313/182/48 311/180/48 308/175/48
f 312/181/48 314/183/48 308/175/48
f 315/184/48 313/182/48 308/175/48
f 308/175/48 314/183/48 316/185/48
f 308/175/48 316/185/48 315/184/48
f 356/1/151 369/1/151 387/1/151 383/1/151 371/1/151 389/1/151 370/1/151 357/1/151
f 358/1/151 357/1/151 389/1/151 370/1/151 372/1/151 374/1/151 391/1/151 359/1/151
f 360/1/152 358/1/151 359/1/151 391/1/151 374/1/151 372/1/151 393/185/152 373/1/152
f 373/1/152 375/1/152 361/1/152 360/1/152
f 376/1/152 362/1/152 361/1/152 375/1/152
f 347/175/153 346/177/153 345/176/153
f 347/175/153 345/176/153 348/178/153
f 346/177/153 347/175/153 349/179/153
f 350/180/153 347/175/153 348/178/153
f 349/179/153 347/175/153 351/181/153
f 352/182/153 347/175/153 350/180/153
f 351/181/153 347/175/153 353/183/153
f 354/184/153 347/175/153 352/182/153
f 347/175/153 355/185/153 353/183/153
f 347/175/153 354/184/153 355/185/153
f 381/1/154 386/178/154 388/180/154 379/1/154
f 364/1/211 377/1/211 388/180/211 379/1/211 381/1/211 386/1/211 366/1/211 365/1/211
f 318/1/156 357/1/157 358/1/158 319/1/158
f 338/1/159 339/1/159 378/1/159 377/1/159
f 320/1/160 359/1/160 360/1/161 321/1/162
f 351/181/163 349/179/196 387/179/196 389/181/166
f 338/1/167 340/1/167 379/1/167 377/1/167
f 321/1/162 360/1/161 361/1/168 322/1/169
f 341/1/192 342/1/170 381/1/170 380/1/193
f 322/1/169 361/1/168 362/1/171 323/1/171
f 350/180/212 388/180/213 390/182/172 352/182/172
f 341/1/192 380/1/193 382/1/194 343/1/191
f 324/1/214 363/1/214 364/1/215 325/1/216
f 343/1/191 382/1/194 383/1/217 344/1/217
f 325/1/216 364/1/215 365/1/218 326/1/218
f 353/183/181 351/181/163 389/181/166 391/183/182
f 327/1/183 366/1/183 367/1/184 328/1/185
f 328/1/185 367/1/184 368/1/186 329/1/187
f 352/182/188 354/184/189 392/184/190 390/182/188
f 346/177/174 385/177/175 384/176/219 345/176/220
f 329/1/187 368/1/186 369/1/195 330/1/195
f 331/1/196 332/1/196 371/1/196 370/1/196
f 345/176/220 384/176/219 386/178/221 348/178/222
f 331/1/223 333/1/223 372/1/223 370/1/223
f 355/185/200 353/183/181 391/183/182 393/185/201
f 349/179/179 387/179/179 385/177/175 346/177/174
f 334/1/224 373/1/225 374/1/226 335/1/226
f 354/184/189 355/185/200 393/185/201 392/184/190
f 334/1/224 336/1/204 375/1/205 373/1/225
f 317/1/206 356/1/206 357/1/157 318/1/156
f 348/178/222 386/178/221 388/180/213 350/180/212
f 336/1/204 337/1/208 376/1/208 375/1/205
f 364/1/155 388/180/155 377/1/155 376/1/155 378/1/155 390/182/155 363/1/155 362/1/155
f 365/1/211 366/1/211 386/178/211 381/1/227 379/1/227 380/1/227 384/1/227 367/1/227
f 367/1/210 380/1/210 384/176/210 385/177/210 382/1/210 368/1/210
f 387/179/151 369/1/151 368/1/210 382/1/210 385/177/210
f 396/175/228 394/176/228 395/177/228
f 396/175/228 397/178/228 394/176/228
f 395/177/228 398/179/228 396/175/228
f 399/180/228 397/178/228 396/175/228
f 398/179/228 400/181/228 396/175/228
f 401/182/228 399/180/228 396/175/228
f 400/181/228 402/183/228 396/175/228
f 403/184/228 401/182/228 396/175/228
f 396/175/228 402/183/228 404/185/228
f 396/175/228 404/185/228 403/184/228
f 444/1/229 445/1/229 458/1/229 477/1/229 459/1/229 471/1/229 475/1/229 457/1/229
f 446/1/230 445/1/231 477/1/231 458/1/231 460/1/230 462/1/230 479/1/230 447/1/230
f 448/1/232 446/1/230 447/1/230 479/1/230 462/1/230 460/1/230 481/185/232 461/1/232
f 461/1/232 463/1/232 449/1/232 448/1/232
f 464/1/232 450/1/232 449/1/232 463/1/232
f 435/175/233 434/177/233 433/176/233
f 435/175/233 433/176/233 436/178/233
f 434/177/233 435/175/233 437/179/233
f 438/180/233 435/175/233 436/178/233
f 437/179/233 435/175/233 439/181/233
f 440/182/233 435/175/233 438/180/233
f 439/181/233 435/175/233 441/183/233
f 442/184/233 435/175/233 440/182/233
f 435/175/233 443/185/233 441/183/233
f 435/175/233 442/184/233 443/185/233
f 469/1/154 474/178/154 476/180/154 467/1/154
f 452/1/234 465/1/234 476/180/234 467/1/234 469/1/234 474/1/234 454/1/234 453/1/234
f 406/1/235 445/1/235 446/1/235 407/1/235
f 426/1/236 427/1/236 466/1/236 465/1/236
f 408/1/237 447/1/237 448/1/238 409/1/239
f 439/181/240 437/179/241 475/179/242 477/181/243
f 426/1/244 428/1/244 467/1/244 465/1/244
f 409/1/239 448/1/238 449/1/245 410/1/246
f 429/1/247 430/1/247 469/1/247 468/1/247
f 410/1/246 449/1/245 450/1/248 411/1/248
f 438/180/249 476/180/250 478/182/251 440/182/252
f 429/1/173 431/1/173 470/1/173 468/1/173
f 412/1/253 413/1/253 452/1/253 451/1/253
f 431/1/254 470/1/254 471/1/254 432/1/254
f 413/1/255 452/1/255 453/1/255 414/1/255
f 441/183/256 439/181/240 477/181/243 479/183/257
f 415/1/258 416/1/259 455/1/260 454/1/258
f 416/1/259 417/1/261 456/1/262 455/1/260
f 440/182/252 478/182/251 480/184/263 442/184/263
f 434/177/264 433/176/203 472/176/203 473/177/265
f 417/1/261 418/1/266 457/1/266 456/1/262
f 419/1/267 420/1/267 459/1/267 458/1/267
f 433/176/268 472/176/268 474/178/269 436/178/270
f 419/1/271 421/1/271 460/1/271 458/1/271
f 443/185/272 441/183/256 479/183/257 481/185/273
f 437/179/241 434/177/264 473/177/265 475/179/242
f 422/1/274 461/1/275 462/1/276 423/1/276
f 442/184/173 443/185/272 481/185/273 480/184/173
f 422/1/274 424/1/277 463/1/278 461/1/275
f 405/1/279 406/1/279 445/1/279 444/1/279
f 436/178/270 474/178/269 476/180/250 438/180/249
f 424/1/277 425/1/263 464/1/263 463/1/278
f 452/1/280 476/180/280 465/1/280 464/1/280 466/1/280 478/182/280 451/1/280 450/1/280
f 453/1/234 454/1/234 474/178/234 469/1/281 467/1/281 468/1/281 472/1/281 455/1/281
f 455/1/282 456/1/282 470/1/282 473/177/282 472/176/282 468/1/282
f 475/179/229 473/177/282 470/1/282 456/1/282 457/1/229
f 484/175/283 482/176/283 483/177/283
f 484/175/283 485/178/283 482/176/283
f 483/177/283 486/179/283 484/175/283
f 487/180/283 485/178/283 484/175/283
f 486/179/283 488/181/283 484/175/283
f 489/182/283 487/180/283 484/175/283
f 488/181/283 490/183/283 484/175/283
f 491/184/283 489/182/283 484/175/283
f 484/175/283 490/183/283 492/185/283
f 484/175/283 492/185/283 491/184/283
f 532/1/284 545/1/284 563/1/284 559/1/284 547/1/284 565/1/284 546/1/284 533/1/284
f 534/1/285 535/1/285 567/1/285 550/1/285 548/1/285 546/1/286 565/1/286 533/1/286
f 536/1/287 549/1/287 569/185/287 548/1/285 550/1/285 567/1/285 535/1/285 534/1/285
f 549/1/288 551/1/288 537/1/288 536/1/288
f 552/1/287 551/1/287 537/1/287 538/1/287
f 523/175/283 521/176/283 522/177/283
f 523/175/283 524/178/283 521/176/283
f 522/177/283 525/179/283 523/175/283
f 526/180/283 524/178/283 523/175/283
f 525/179/283 527/181/283 523/175/283
f 528/182/283 526/180/283 523/175/283
f 527/181/283 529/183/283 523/175/283
f 530/184/283 528/182/283 523/175/283
f 523/175/283 529/183/283 531/185/283
f 523/175/283 531/185/283 530/184/283
f 557/1/154 562/178/154 564/180/289 555/1/290
f 540/1/289 541/1/289 542/1/289 562/1/289 557/1/289 555/1/290 564/180/289 553/1/289
f 494/1/291 495/1/291 534/1/291 533/1/291
f 514/1/292 515/1/293 554/1/293 553/1/294
f 496/1/295 497/1/296 536/1/297 535/1/295
f 527/181/298 525/179/299 563/179/299 565/181/300
f 514/1/292 553/1/294 555/1/301 516/1/301
f 497/1/296 498/1/302 537/1/303 536/1/297
f 517/1/304 518/1/304 557/1/304 556/1/304
f 498/1/302 499/1/305 538/1/305 537/1/303
f 526/180/292 528/182/306 566/182/307 564/180/294
f 517/1/308 519/1/309 558/1/310 556/1/308
f 500/1/311 501/1/312 540/1/313 539/1/311
f 519/1/309 520/1/314 559/1/314 558/1/310
f 501/1/312 502/1/315 541/1/315 540/1/313
f 529/183/316 527/181/298 565/181/300 567/183/317
f 503/1/318 504/1/319 543/1/320 542/1/318
f 504/1/319 505/1/321 544/1/322 543/1/320
f 528/182/306 530/184/323 568/184/324 566/182/307
f 522/177/309 561/177/310 560/176/308 521/176/308
f 505/1/321 506/1/325 545/1/325 544/1/322
f 507/1/299 508/1/299 547/1/299 546/1/299
f 521/176/304 524/178/326 562/178/327 560/176/304
f 507/1/328 509/1/328 548/1/328 546/1/328
f 531/185/329 529/183/316 567/183/317 569/185/330
f 525/179/314 563/179/314 561/177/310 522/177/309
f 510/1/331 511/1/331 550/1/331 549/1/331
f 530/184/323 531/185/329 569/185/330 568/184/324
f 510/1/332 512/1/333 551/1/334 549/1/332
f 493/1/335 532/1/335 533/1/335 494/1/335
f 524/178/326 526/180/292 564/180/294 562/178/327
f 512/1/333 513/1/336 552/1/336 551/1/334
f 540/1/337 538/1/337 539/1/337 566/182/337 554/1/337 552/1/337 553/1/337 564/180/337
f 541/1/289 543/1/338 560/1/338 556/1/338 555/1/338 557/1/338 562/178/289 542/1/289
f 543/1/339 556/1/339 560/176/339 561/177/339 558/1/339 544/1/339
f 563/179/284 545/1/284 544/1/339 558/1/339 561/177/339
f 572/186/340 571/187/341 570/188/340
f 573/189/341 570/188/340 571/187/341
f 571/187/342 574/190/343 573/189/342
f 575/191/343 573/189/342 574/190/343
f 578/192/344 577/193/345 576/194/344
f 579/195/346 576/194/344 577/193/345
f 582/196/347 581/197/348 580/198/345
f 583/199/348 580/198/345 581/197/348
f 586/200/349 584/201/350 585/202/351
f 587/203/350 585/202/351 584/201/350
f 590/204/100 589/205/100 588/206/100
f 588/206/100 589/205/100 591/207/100
f 591/207/100 589/205/100 592/208/100
f 595/209/91 594/210/91 593/211/91
f 593/211/91 594/210/91 596/212/91
f 596/212/91 594/210/91 597/213/91
f 600/214/340 599/215/341 598/216/340
f 601/217/341 598/216/340 599/215/341
f 599/215/342 602/218/343 601/217/342
f 603/219/343 601/217/342 602/218/343
f 606/220/352 605/221/346 604/222/344
f 607/223/346 604/222/344 605/221/346
f 610/224/345 609/225/348 608/226/347
f 611/227/348 608/226/347 609/225/348
f 614/228/351 612/229/350 613/230/351
f 615/231/350 613/230/351 612/229/350
f 618/232/100 617/233/100 616/234/100
f 616/234/100 617/233/100 619/235/100
f 619/235/100 617/233/100 620/236/100
f 623/237/91 622/238/91 621/239/91
f 621/239/91 622/238/91 624/240/91
f 624/240/91 622/238/91 625/241/91
f 628/242/353 627/243/354 626/244/355
f 629/245/356 626/244/355 627/243/354
f 626/244/355 629/245/356 630/246/357
f 631/247/358 630/246/357 629/245/356
f 630/246/357 631/247/358 632/248/359
f 633/249/360 632/248/359 631/247/358
f 636/250/361 635/251/362 634/252/48
f 637/253/363 634/252/48 635/251/362
f 634/252/48 637/253/363 638/254/364
f 639/255/365 638/254/364 637/253/363
f 642/256/366 641/257/367 640/258/368
f 643/259/369 640/258/368 641/257/367
f 640/258/368 643/259/369 644/260/370
f 645/261/371 644/260/370 643/259/369
f 644/260/370 645/261/371 646/262/372
f 647/263/373 646/262/372 645/261/371
f 650/264/374 648/265/375 649/266/376
f 651/267/377 649/266/376 648/265/375
f 648/265/378 652/268/379 651/267/380
f 653/269/381 651/267/380 652/268/379
f 656/270/382 654/271/383 655/272/382
f 657/273/383 655/272/382 654/271/383
f 654/271/383 658/274/384 657/273/383
f 659/275/384 657/273/383 658/274/384
f 662/276/385 661/277/386 660/278/387
f 663/279/388 660/278/387 661/277/386
f 660/278/387 663/279/388 664/280/389
f 665/281/390 664/280/389 663/279/388
f 668/282/391 667/283/391 666/284/391
f 669/285/391 666/284/391 667/283/391
f 672/286/392 671/287/393 670/288/394
f 673/289/395 670/288/394 671/287/393
f 670/288/394 673/289/395 674/290/396
f 675/291/397 674/290/396 673/289/395
f 678/292/398 677/293/367 676/294/399
f 678/292/398 676/294/399 679/295/400
f 680/296/401 676/294/399 677/293/367
f 677/293/367 681/297/402 680/296/401
f 682/298/403 680/296/401 681/297/402
f 680/296/401 682/298/404 676/294/399
f 681/297/402 683/299/353 682/298/403
f 684/300/405 682/298/403 683/299/353
f 683/299/353 685/301/406 684/300/405
f 684/300/405 686/302/407 682/298/404
f 682/298/404 686/302/407 676/294/399
f 686/302/407 684/300/405 685/301/406
f 687/303/408 679/295/400 676/294/399
f 676/294/399 686/302/407 687/303/408
f 686/302/407 685/301/406 688/304/409
f 688/304/409 687/303/408 686/302/407
f 689/305/410 688/304/409 685/301/406
f 689/305/410 690/306/411 688/304/409
f 687/303/408 691/307/412 679/295/400
f 692/308/413 679/295/400 691/307/412
f 693/309/414 691/307/412 687/303/408
f 691/307/412 693/309/414 692/308/413
f 688/304/409 693/309/414 687/303/408
f 694/310/415 692/308/413 693/309/414
f 690/306/411 694/310/415 695/311/416
f 695/311/416 688/304/409 690/306/411
f 695/311/416 693/309/414 688/304/409
f 693/309/414 695/311/416 694/310/415
f 698/312/417 697/313/418 696/314/419
f 699/315/420 696/314/419 697/313/418
f 697/313/418 700/316/421 699/315/420
f 696/314/419 701/317/422 698/312/417
f 696/314/58 699/315/58 701/317/58
f 702/318/423 698/312/417 701/317/422
f 701/317/422 703/319/424 702/318/423
f 704/320/425 702/318/423 703/319/424
f 705/321/58 703/319/58 701/317/58
f 703/319/424 705/321/426 704/320/425
f 699/315/58 705/321/58 701/317/58
f 706/322/427 704/320/425 705/321/426
f 707/323/428 699/315/420 700/316/421
f 700/316/421 708/324/429 707/323/428
f 707/323/58 709/325/58 699/315/58
f 709/325/430 707/323/428 708/324/429
f 709/325/58 705/321/58 699/315/58
f 708/324/429 710/326/431 709/325/430
f 710/326/431 706/322/427 711/327/432
f 705/321/426 711/327/432 706/322/427
f 711/327/58 705/321/58 709/325/58
f 711/327/432 709/325/430 710/326/431
f 714/328/417 713/329/433 712/330/434
f 715/331/100 712/330/434 713/329/433
f 712/330/434 715/331/100 716/332/421
f 717/333/435 716/332/421 715/331/100
f 720/334/131 719/335/417 718/336/48
f 721/337/436 718/336/48 719/335/417
f 718/336/48 721/337/436 722/338/437
f 723/339/425 722/338/437 721/337/436
f 726/340/438 725/341/425 724/342/439
f 727/343/440 724/342/439 725/341/425
f 724/342/52 727/343/441 728/344/442
f 729/345/443 728/344/442 727/343/441
f 732/346/444 731/347/445 730/348/446
f 733/349/447 731/347/448 730/348/449
f 730/348/450 734/350/451 733/349/452
f 735/351/453 733/349/452 734/350/451
f 738/352/426 737/353/427 736/354/424
f 739/355/425 736/354/424 737/353/427
f 737/353/427 738/352/426 740/356/454
f 736/354/424 739/355/425 741/357/422
f 738/352/58 736/354/58 741/357/58
f 742/358/423 741/357/422 739/355/425
f 741/357/422 742/358/423 743/359/419
f 744/360/417 743/359/419 742/358/423
f 743/359/58 745/361/58 741/357/58
f 743/359/419 744/360/417 745/361/420
f 745/361/58 738/352/58 741/357/58
f 746/362/418 745/361/420 744/360/417
f 747/363/432 740/356/454 738/352/426
f 740/356/454 747/363/432 748/364/429
f 747/363/58 738/352/58 749/365/58
f 749/365/430 748/364/429 747/363/432
f 749/365/58 738/352/58 745/361/58
f 748/364/429 749/365/430 750/366/421
f 745/361/420 746/362/418 751/367/428
f 750/366/421 751/367/428 746/362/418
f 751/367/58 749/365/58 745/361/58
f 751/367/428 750/366/421 749/365/430
f 754/341/425 753/343/440 752/340/438
f 755/342/439 752/340/438 753/343/440
f 753/343/441 756/345/443 755/342/52
f 757/344/442 755/342/52 756/345/443
f 760/368/455 759/369/48 758/370/425
f 761/371/436 758/370/425 759/369/48
f 759/369/48 762/372/131 761/371/436
f 763/373/417 761/371/436 762/372/131
f 766/329/433 765/331/456 764/328/417
f 767/330/457 764/328/417 765/331/456
f 765/331/41 768/333/130 767/330/458
f 769/332/421 767/330/458 768/333/130
f 772/374/451 770/375/453 771/376/450
f 773/377/459 771/376/450 770/375/453
f 771/376/449 773/377/460 774/378/461
f 775/379/462 774/378/461 773/377/460
f 778/380/463 776/381/463 777/382/463
f 779/383/463 777/382/463 776/381/463
f 782/384/57 781/385/57 780/386/57
f 783/387/57 780/386/57 781/385/57
f 786/388/464 785/389/464 784/390/464
f 787/391/464 784/390/464 785/389/464
f 790/392/58 789/393/58 788/394/58
f 791/395/58 788/394/58 789/393/58
f 794/396/464 792/397/464 793/398/464
f 795/399/464 793/398/464 792/397/464
f 798/400/465 797/401/465 796/402/465
f 799/403/465 796/402/465 797/401/465
f 802/404/57 801/405/57 800/406/57
f 803/407/57 800/406/57 801/405/57
f 806/408/466 805/409/466 804/410/466
f 807/411/466 804/410/466 805/409/466
f 810/412/58 809/413/58 808/414/58
f 811/415/58 808/414/58 809/413/58
f 814/416/466 812/417/466 813/418/466
f 815/419/466 813/418/466 812/417/466
f 818/420/467 817/421/467 816/422/467
f 819/423/467 816/422/467 817/421/467
f 822/424/57 821/425/57 820/426/57
f 823/427/57 820/426/57 821/425/57
f 826/428/468 825/429/468 824/430/469
f 827/431/469 824/430/469 825/429/468
f 830/432/58 829/433/58 828/434/58
f 831/435/58 828/434/58 829/433/58
f 834/436/470 833/437/470 832/438/470
f 835/439/470 832/438/470 833/437/470
f 838/440/471 837/441/471 836/442/471
f 839/443/471 836/442/471 837/441/471
f 842/444/57 841/445/57 840/446/57
f 843/447/57 840/446/57 841/445/57
f 846/448/472 845/449/472 844/450/472
f 847/451/472 844/450/472 845/449/472
f 850/452/58 849/453/58 848/454/58
f 851/455/58 848/454/58 849/453/58
f 854/456/473 853/457/473 852/458/473
f 855/459/474 852/458/473 853/457/473
f 858/460/475 857/461/475 856/462/475
f 859/463/475 856/462/475 857/461/475
f 862/464/57 861/465/57 860/466/57
f 863/467/57 860/466/57 861/465/57
f 866/468/476 865/469/476 864/470/476
f 867/471/476 864/470/476 865/469/476
f 870/472/58 869/473/58 868/474/58
f 871/475/58 868/474/58 869/473/58
f 874/476/477 873/477/477 872/478/477
f 875/479/477 872/478/477 873/477/477
f 878/480/478 877/481/478 876/482/478
f 879/483/478 876/482/478 877/481/478
f 882/484/57 881/485/57 880/486/57
f 883/487/57 880/486/57 881/485/57
f 886/488/479 885/489/479 884/490/479
f 887/491/479 884/490/479 885/489/479
f 890/492/58 889/493/58 888/494/58
f 891/495/58 888/494/58 889/493/58
f 894/496/480 893/497/480 892/498/480
f 895/499/480 892/498/480 893/497/480
f 898/500/481 897/501/481 896/502/481
f 899/503/481 896/502/481 897/501/481
f 902/504/57 901/505/57 900/506/57
f 903/507/57 900/506/57 901/505/57
f 906/508/482 905/509/483 904/510/483
f 907/511/483 904/510/483 905/509/483
f 910/512/58 909/513/58 908/514/58
f 911/515/58 908/514/58 909/513/58
f 914/516/484 913/517/484 912/518/484
f 915/519/484 912/518/484 913/517/484
f 918/520/485 917/521/485 916/522/485
f 919/523/485 916/522/485 917/521/485
f 922/524/57 921/525/57 920/526/57
f 923/527/57 920/526/57 921/525/57
f 926/528/486 925/529/486 924/530/486
f 927/531/486 924/530/486 925/529/486
f 930/532/58 929/533/58 928/534/58
f 931/535/58 928/534/58 929/533/58
f 934/536/487 933/537/487 932/538/487
f 935/539/487 932/538/487 933/537/487
l 42 119
l 61 120
