# Blender 4.5.3 LTS
# www.blender.org
mtllib Dant_gun_cal305_A_x1_002.mtl
o Dant_gun_cal305_A_x1_001
v -3.305294 3.458113 2.550403
v -3.757267 3.748722 1.873979
v -3.305294 3.748722 2.550403
v -3.757267 3.458113 1.873979
v -3.146923 3.458113 2.444585
v -3.757267 3.458113 1.873979
v -3.305294 3.458113 2.550403
v -3.598895 3.458113 1.768161
v -3.598895 3.458113 1.768161
v -3.757267 3.748722 1.873979
v -3.757267 3.458113 1.873979
v -3.598895 3.748722 1.768161
v -3.598895 3.748722 1.768161
v -3.305294 3.748722 2.550403
v -3.757267 3.748722 1.873979
v -3.146923 3.748722 2.444585
v -3.146923 3.748722 2.444585
v -3.305294 3.458113 2.550403
v -3.305294 3.748722 2.550403
v -3.146923 3.458113 2.444585
v -4.001862 3.458112 1.230966
v -4.160573 3.748722 0.433071
v -4.001862 3.748722 1.230966
v -4.160573 3.458112 0.433071
v -3.815050 3.458112 1.193807
v -4.160573 3.458112 0.433071
v -4.001862 3.458112 1.230966
v -3.973762 3.458112 0.395912
v -3.973762 3.458112 0.395912
v -4.160573 3.748722 0.433071
v -4.160573 3.458112 0.433071
v -3.973762 3.748722 0.395912
v -3.973762 3.748722 0.395912
v -4.001862 3.748722 1.230966
v -4.160573 3.748722 0.433071
v -3.815050 3.748722 1.193807
v -3.815050 3.748722 1.193807
v -4.001862 3.458112 1.230966
v -4.001862 3.748722 1.230966
v -3.815050 3.458112 1.193807
v -4.184090 3.458112 -0.306843
v -4.064859 3.748722 -1.111584
v -4.184090 3.748722 -0.306843
v -4.064859 3.458113 -1.111584
v -3.995675 3.458112 -0.278924
v -4.064859 3.458113 -1.111584
v -4.184090 3.458112 -0.306843
v -3.876445 3.458113 -1.083671
v -3.876445 3.458113 -1.083671
v -4.064859 3.748722 -1.111584
v -4.064859 3.458113 -1.111584
v -3.876445 3.748722 -1.083671
v -3.876445 3.748722 -1.083671
v -4.184090 3.748722 -0.306843
v -4.064859 3.748722 -1.111584
v -3.995675 3.748722 -0.278924
v -3.995675 3.748722 -0.278924
v -4.184090 3.458112 -0.306843
v -4.184090 3.748722 -0.306843
v -3.995675 3.458112 -0.278924
v -3.946912 3.458112 -1.851611
v -3.801386 3.748722 -2.652019
v -3.946912 3.748722 -1.851611
v -3.801386 3.458112 -2.652019
v -3.759513 3.458112 -1.817544
v -3.801386 3.458112 -2.652019
v -3.946912 3.458112 -1.851611
v -3.613987 3.458112 -2.617946
v -3.613987 3.458112 -2.617946
v -3.801386 3.748722 -2.652019
v -3.801386 3.458112 -2.652019
v -3.613987 3.748722 -2.617946
v -3.613987 3.748722 -2.617946
v -3.946912 3.748722 -1.851611
v -3.801386 3.748722 -2.652019
v -3.759513 3.748722 -1.817544
v -3.759513 3.748722 -1.817544
v -3.946912 3.458112 -1.851611
v -3.946912 3.748722 -1.851611
v -3.759513 3.458112 -1.817544
v 3.305271 3.458113 2.550403
v 3.757243 3.748722 1.873979
v 3.757243 3.458113 1.873979
v 3.305271 3.748722 2.550403
v 3.146900 3.458113 2.444585
v 3.757243 3.458113 1.873979
v 3.598872 3.458113 1.768161
v 3.305271 3.458113 2.550403
v 3.598872 3.458113 1.768161
v 3.757243 3.748722 1.873979
v 3.598872 3.748722 1.768161
v 3.757243 3.458113 1.873979
v 3.598872 3.748722 1.768161
v 3.305271 3.748722 2.550403
v 3.146900 3.748722 2.444585
v 3.757243 3.748722 1.873979
v 3.146900 3.748722 2.444585
v 3.305271 3.458113 2.550403
v 3.146900 3.458113 2.444585
v 3.305271 3.748722 2.550403
v 4.001838 3.458112 1.230966
v 4.160550 3.748722 0.433071
v 4.160550 3.458112 0.433071
v 4.001838 3.748722 1.230966
v 3.815027 3.458112 1.193807
v 4.160550 3.458112 0.433071
v 3.973738 3.458112 0.395912
v 4.001838 3.458112 1.230966
v 3.973738 3.458112 0.395912
v 4.160550 3.748722 0.433071
v 3.973738 3.748722 0.395912
v 4.160550 3.458112 0.433071
v 3.973738 3.748722 0.395912
v 4.001838 3.748722 1.230966
v 3.815027 3.748722 1.193807
v 4.160550 3.748722 0.433071
v 3.815027 3.748722 1.193807
v 4.001838 3.458112 1.230966
v 3.815027 3.458112 1.193807
v 4.001838 3.748722 1.230966
v 4.185472 3.458112 -0.306843
v 4.066241 3.748722 -1.111584
v 4.066241 3.458113 -1.111584
v 4.185472 3.748722 -0.306843
v 3.997057 3.458112 -0.278924
v 4.066241 3.458113 -1.111584
v 3.877826 3.458113 -1.083672
v 4.185472 3.458112 -0.306843
v 3.877826 3.458113 -1.083672
v 4.066241 3.748722 -1.111584
v 3.877826 3.748722 -1.083672
v 4.066241 3.458113 -1.111584
v 3.877826 3.748722 -1.083672
v 4.185472 3.748722 -0.306843
v 3.997057 3.748722 -0.278924
v 4.066241 3.748722 -1.111584
v 3.997057 3.748722 -0.278924
v 4.185472 3.458112 -0.306843
v 3.997057 3.458112 -0.278924
v 4.185472 3.748722 -0.306843
v 3.943371 3.458112 -1.851612
v 3.797845 3.748722 -2.652019
v 3.797845 3.458112 -2.652019
v 3.943371 3.748722 -1.851612
v 3.755972 3.458112 -1.817545
v 3.797845 3.458112 -2.652019
v 3.610446 3.458112 -2.617946
v 3.943371 3.458112 -1.851612
v 3.610446 3.458112 -2.617946
v 3.797845 3.748722 -2.652019
v 3.610446 3.748722 -2.617946
v 3.797845 3.458112 -2.652019
v 3.610446 3.748722 -2.617946
v 3.943371 3.748722 -1.851612
v 3.755972 3.748722 -1.817545
v 3.797845 3.748722 -2.652019
v 3.755972 3.748722 -1.817545
v 3.943371 3.458112 -1.851612
v 3.755972 3.458112 -1.817545
v 3.943371 3.748722 -1.851612
v 1.332160 4.527737 0.536108
v -1.332115 4.686862 0.779461
v -1.332115 4.527737 0.536108
v 1.332160 4.686862 0.779461
v -1.332115 4.527735 1.022814
v 1.332160 4.527735 1.022814
v -1.332115 4.527737 0.536108
v 1.332161 4.270265 0.629057
v 1.332160 4.527737 0.536108
v -1.332113 4.270265 0.629057
v -1.332113 4.270265 0.629057
v 1.332158 4.270265 0.929859
v 1.332161 4.270265 0.629057
v -1.332116 4.270265 0.929859
v -1.332116 4.270265 0.929859
v 1.332160 4.527735 1.022814
v 1.332158 4.270265 0.929859
v -1.332115 4.527735 1.022814
v -1.332116 4.270265 0.929859
v -1.332115 4.686862 0.779461
v -1.332115 4.527735 1.022814
v -1.332113 4.270265 0.629057
v -1.332115 4.527737 0.536108
v 1.332158 4.270265 0.929859
v 1.332160 4.527737 0.536108
v 1.332161 4.270265 0.629057
v 1.332160 4.527735 1.022814
v 1.332160 4.686862 0.779461
v -2.974714 0.817324 -1.717331
v -2.427198 0.000000 -2.427207
v -2.427198 0.817324 -2.427207
v -2.974486 0.000000 -1.717331
v -3.315614 -0.000000 -0.888426
v -3.315614 0.817324 -0.888426
v -3.434639 0.817324 -0.000006
v -3.434639 -0.000000 -0.000012
v -3.315614 -0.000000 0.888408
v -3.315614 0.817324 0.888408
v -2.974485 0.817324 1.717307
v -2.974485 -0.000001 1.717307
v -2.427197 -0.000001 2.427190
v -2.427197 0.817324 2.427189
v -2.427198 0.000000 -2.427207
v -1.717320 0.817324 -2.974496
v -2.427198 0.817324 -2.427207
v -1.717320 0.000000 -2.974496
v -0.888416 0.000000 -3.315627
v -0.888416 0.817324 -3.315627
v 0.000000 0.817324 -3.434650
v 0.000000 0.000000 -3.434650
v 0.888416 0.000000 -3.315627
v 0.888416 0.817324 -3.315627
v 1.717319 0.817324 -2.974496
v 1.717319 0.000000 -2.974496
v 2.427198 0.000000 -2.427207
v 2.427197 0.817324 -2.427207
v -1.717319 0.817324 2.974473
v -2.427197 -0.000001 2.427190
v -2.427197 0.817324 2.427189
v -1.717319 -0.000001 2.974473
v -0.888416 -0.000001 3.315603
v -0.888416 0.817324 3.315603
v 0.000000 0.817324 3.434633
v 0.000000 -0.000001 3.434633
v 0.888416 -0.000001 3.315603
v 0.888416 0.817324 3.315603
v 1.717318 0.817324 2.974473
v 1.717318 -0.000001 2.974473
v 2.427197 -0.000001 2.427190
v 2.427197 0.817324 2.427190
v 2.427198 0.000000 -2.427207
v 2.974713 0.817324 -1.717331
v 2.427197 0.817324 -2.427207
v 2.974486 0.000000 -1.717331
v 3.315614 -0.000000 -0.888426
v 3.315614 0.817324 -0.888426
v 3.434639 0.817324 -0.000012
v 3.434639 -0.000000 -0.000012
v 3.315614 -0.000000 0.888408
v 3.315614 0.817324 0.888408
v 2.974486 0.817324 1.717307
v 2.974484 -0.000001 1.717307
v 2.427197 -0.000001 2.427190
v 2.427197 0.817324 2.427190
v -0.830624 4.445745 0.935130
v -0.666308 3.002233 0.372566
v -0.666308 4.501370 0.372566
v -0.830624 3.002233 0.935130
v -0.720524 4.390907 1.489737
v -0.720524 3.002233 1.489737
v -0.430518 4.335282 2.052302
v -0.430518 3.002234 2.052302
v 0.000001 3.002233 0.139546
v -0.666308 4.501370 0.372566
v -0.666308 3.002233 0.372566
v 0.000001 4.524411 0.139546
v 0.666311 3.002233 0.372566
v 0.666311 4.501370 0.372566
v 0.830629 3.002233 0.935130
v 0.666311 4.501370 0.372566
v 0.666311 3.002233 0.372566
v 0.830628 4.445745 0.935130
v 0.720531 3.002233 1.489731
v 0.720531 4.390908 1.489731
v 0.430524 3.002234 2.052302
v 0.430524 4.335282 2.052302
v 0.000004 3.002234 2.285322
v 0.430524 4.335282 2.052302
v 0.430524 3.002234 2.052302
v 0.000004 4.312242 2.285322
v -0.430518 3.002234 2.052302
v -0.430518 4.335282 2.052302
v -0.296566 4.296201 2.324726
v 0.296117 4.093824 2.322239
v -0.296111 4.093824 2.322239
v 0.296571 4.296201 2.324726
v -0.188556 4.488478 2.154284
v 0.188562 4.488478 2.154284
v 0.296571 4.296201 2.324726
v 0.320318 4.112712 2.093634
v 0.296117 4.093824 2.322239
v 0.320832 4.318595 2.096120
v 0.188562 4.488478 2.154284
v 0.203100 4.513872 1.925678
v 0.203100 4.513872 1.925678
v -0.188556 4.488478 2.154284
v -0.203094 4.513872 1.925678
v 0.188562 4.488478 2.154284
v -0.296566 4.296201 2.324726
v -0.203094 4.513872 1.925678
v -0.188556 4.488478 2.154284
v -0.320826 4.318595 2.096120
v -0.296111 4.093824 2.322239
v -0.320312 4.112712 2.093634
v -3.744062 0.817276 1.550816
v -2.865581 3.943973 2.865557
v -2.865581 0.817276 2.865556
v -3.744062 3.943972 1.550817
v -4.052543 0.817277 -0.000024
v -4.052543 3.943973 -0.000023
v -3.423977 3.943974 -3.890249
v -3.423976 0.817277 -3.890250
v -2.620598 0.817278 -5.204989
v -2.620597 3.943974 -5.204989
v -1.418257 0.817278 -6.083470
v -2.620597 3.943974 -5.204989
v -2.620598 0.817278 -5.204989
v -1.418257 3.943974 -6.083470
v -0.000000 0.817278 -6.391955
v 0.000000 3.943974 -6.391949
v 1.418257 3.943974 -6.083470
v 1.418257 0.817278 -6.083470
v 2.620598 3.943974 -5.204989
v 2.620598 0.817278 -5.204989
v 2.865581 3.943973 2.865557
v 3.744063 0.817276 1.550816
v 2.865581 0.817276 2.865556
v 3.744062 3.943972 1.550817
v 4.052543 0.817277 -0.000024
v 4.052543 3.943973 -0.000023
v 3.423974 3.943974 -3.890249
v 3.423976 0.817277 -3.890250
v 2.620598 0.817278 -5.204989
v 2.620598 3.943974 -5.204989
v -1.550842 3.943972 3.993031
v -2.865581 0.817276 3.114549
v -2.865581 3.943973 3.114551
v -1.550842 0.817276 3.993030
v -0.798577 3.210523 4.142664
v -0.495617 3.586913 4.202926
v -0.798576 2.098305 4.142664
v -0.495612 1.721917 4.202927
v 0.000000 1.578339 4.301509
v 0.000000 0.817276 4.301509
v 0.490264 1.718012 4.203990
v 0.000000 3.730492 4.301510
v -0.000000 3.943972 4.301510
v 1.550841 3.943972 3.993031
v 1.550842 0.817276 3.993030
v 0.490260 3.590818 4.203991
v 0.798342 3.212942 4.142711
v 0.798343 2.095888 4.142710
v 2.202326 3.038263 3.557723
v 2.202325 3.701857 3.557724
v 2.641901 3.038264 3.264007
v 2.865581 3.943973 3.114551
v 2.865581 0.817276 3.114549
v 2.641901 3.701857 3.264009
v 2.865581 0.817276 3.114549
v 2.865581 3.943973 2.865557
v 2.865581 0.817276 2.865556
v 2.865581 3.943973 3.114551
v 2.865581 3.943973 3.114551
v 1.550841 3.943972 3.744037
v 2.865581 3.943973 2.865557
v 1.550841 3.943972 3.993031
v -0.000000 3.943972 4.052516
v -0.000000 3.943972 4.301510
v -1.550842 3.943972 3.993031
v -1.550842 3.943972 3.744037
v -2.865581 3.943973 3.114551
v -2.865581 3.943973 2.865557
v -2.865581 3.943973 3.114551
v -2.865581 0.817276 2.865556
v -2.865581 3.943973 2.865557
v -2.865581 0.817276 3.114549
v -0.575100 3.706858 3.492676
v 0.000000 3.879361 4.473223
v -0.575100 3.706856 4.473223
v 0.000000 3.879362 3.492676
v 0.575100 3.706858 3.492676
v 0.575100 3.706856 4.473223
v -0.575100 3.706856 4.473223
v -0.983787 3.217734 3.492676
v -0.575100 3.706858 3.492676
v -0.983787 3.217734 4.473223
v -0.983786 2.091093 4.473223
v -0.983786 2.091093 3.492676
v -0.575095 1.601971 3.492676
v -0.575095 1.601971 4.473223
v -0.575095 1.601971 4.473223
v 0.000000 1.429467 3.492675
v -0.575095 1.601971 3.492676
v 0.000000 1.429467 4.473223
v 0.575095 1.601971 4.473223
v 0.575095 1.601971 3.492676
v 0.983787 3.217734 3.492676
v 0.575100 3.706856 4.473223
v 0.575100 3.706858 3.492676
v 0.983787 3.217734 4.473223
v 0.983786 2.091093 4.473223
v 0.983786 2.091093 3.492676
v 0.575095 1.601971 3.492676
v 0.575095 1.601971 4.473223
v 2.865595 2.507851 2.915830
v -2.865628 2.666977 3.159183
v -2.865628 2.507851 2.915830
v 2.865595 2.666977 3.159183
v -2.865628 2.507850 3.402536
v 2.865595 2.507850 3.402536
v -2.865628 2.507851 2.915830
v 2.865600 2.250379 3.008778
v 2.865595 2.507851 2.915830
v -2.865623 2.250379 3.008779
v -2.865623 2.250379 3.008779
v 2.865593 2.250379 3.309580
v 2.865600 2.250379 3.008778
v -2.865630 2.250379 3.309581
v -2.865630 2.250379 3.309581
v 2.865595 2.507850 3.402536
v 2.865593 2.250379 3.309580
v -2.865628 2.507850 3.402536
v -2.865630 2.250379 3.309581
v -2.865628 2.666977 3.159183
v -2.865628 2.507850 3.402536
v -2.865623 2.250379 3.008779
v -2.865628 2.507851 2.915830
v 2.865593 2.250379 3.309580
v 2.865595 2.507851 2.915830
v 2.865600 2.250379 3.008778
v 2.865595 2.507850 3.402536
v 2.865595 2.666977 3.159183
v 0.000000 3.669955 4.473223
v -0.575100 3.706856 4.473223
v 0.000000 3.879361 4.473223
v 0.575100 3.706856 4.473223
v -0.440967 3.536600 4.473223
v 0.440967 3.536600 4.473223
v -0.983787 3.217734 4.473223
v -0.755801 3.155465 4.473223
v -0.755800 2.153360 4.473223
v -0.983786 2.091093 4.473223
v 0.983787 3.217734 4.473223
v 0.755801 3.155465 4.473223
v 0.755800 2.153360 4.473223
v 0.983786 2.091093 4.473223
v -0.440961 1.772227 4.473223
v -0.575095 1.601971 4.473223
v 0.440961 1.772227 4.473223
v 0.575095 1.601971 4.473223
v 0.000000 1.429467 4.473223
v 0.000000 1.638873 4.473223
v 0.473218 4.717835 0.935130
v 0.666311 4.501370 0.372566
v 0.830628 4.445745 0.935130
v 0.720531 4.390908 1.489731
v 0.360247 4.755497 0.614629
v 0.000001 4.524411 0.139546
v 0.000001 4.771098 0.481876
v -0.666308 4.501370 0.372566
v -0.360242 4.755497 0.614629
v -0.830624 4.445745 0.935130
v -0.473213 4.717835 0.935130
v 0.410495 4.652661 1.489731
v -0.410488 4.652661 1.489737
v -0.720524 4.390907 1.489737
v -0.430518 4.335282 2.052302
v 0.264633 4.614997 1.810232
v 0.430524 4.335282 2.052302
v 0.000004 4.599397 1.942985
v 0.000004 4.312242 2.285322
v -0.264627 4.614997 1.810232
v -2.319764 4.407166 -3.263365
v -2.490652 4.303963 -3.148085
v -2.406835 4.303963 -3.350440
v -2.367516 4.407166 -3.148085
v -2.406835 4.303963 -2.945735
v -2.204481 4.407166 -3.311120
v -2.204481 4.303963 -3.434256
v -2.089199 4.407166 -3.263365
v -2.002129 4.303963 -3.350440
v -2.041448 4.407166 -3.148085
v -1.918311 4.303963 -3.148085
v -2.319764 4.407166 -3.032804
v -2.204481 4.303963 -2.861914
v -2.204481 4.407166 -2.985050
v -2.002129 4.303963 -2.945735
v -2.089199 4.407166 -3.032804
v 2.319782 4.407166 -3.263371
v 2.490670 4.303963 -3.148085
v 2.367533 4.407166 -3.148085
v 2.406852 4.303963 -3.350440
v 2.406852 4.303963 -2.945735
v 2.204499 4.407166 -3.311120
v 2.204499 4.303963 -3.434256
v 2.089216 4.407166 -3.263371
v 2.002146 4.303963 -3.350440
v 2.041465 4.407166 -3.148085
v 1.918329 4.303963 -3.148085
v 2.319782 4.407166 -3.032804
v 2.204499 4.303963 -2.861914
v 2.204499 4.407166 -2.985055
v 2.002146 4.303963 -2.945735
v 2.089216 4.407166 -3.032804
v -2.490652 4.303963 -3.148085
v -2.406835 3.756438 -3.350440
v -2.406835 4.303963 -3.350440
v -2.490652 3.756438 -3.148085
v -2.406835 4.303963 -2.945735
v -2.406835 3.756438 -2.945735
v -2.204481 3.756438 -3.434256
v -2.406835 4.303963 -3.350440
v -2.406835 3.756438 -3.350440
v -2.204481 4.303963 -3.434256
v -2.002129 3.756438 -3.350440
v -2.002129 4.303963 -3.350440
v -1.918311 3.756438 -3.148085
v -2.002129 4.303963 -3.350440
v -2.002129 3.756438 -3.350440
v -1.918311 4.303963 -3.148085
v -2.002129 3.756438 -2.945735
v -2.002129 4.303963 -2.945735
v -2.204481 3.756438 -2.861914
v -2.002129 4.303963 -2.945735
v -2.002129 3.756438 -2.945735
v -2.204481 4.303963 -2.861914
v -2.406835 3.756438 -2.945735
v -2.406835 4.303963 -2.945735
v 2.406852 3.756438 -3.350440
v 2.490670 4.303963 -3.148085
v 2.406852 4.303963 -3.350440
v 2.490670 3.756438 -3.148085
v 2.406852 4.303963 -2.945735
v 2.406852 3.756438 -2.945735
v 2.406852 4.303963 -3.350440
v 2.204499 3.756438 -3.434256
v 2.406852 3.756438 -3.350440
v 2.204499 4.303963 -3.434256
v 2.002146 3.756438 -3.350440
v 2.002146 4.303963 -3.350440
v 2.002146 4.303963 -3.350440
v 1.918329 3.756438 -3.148085
v 2.002146 3.756438 -3.350440
v 1.918329 4.303963 -3.148085
v 2.002146 3.756438 -2.945735
v 2.002146 4.303963 -2.945735
v 2.002146 4.303963 -2.945735
v 2.204499 3.756438 -2.861914
v 2.002146 3.756438 -2.945735
v 2.204499 4.303963 -2.861914
v 2.406852 3.756438 -2.945735
v 2.406852 4.303963 -2.945735
v 2.641901 3.038264 3.028285
v 2.202325 3.701857 3.028286
v 2.641901 3.701857 3.028286
v 2.202326 3.038264 3.028285
v -0.440967 3.536601 3.492656
v -0.755800 2.153360 3.492656
v -0.755801 3.155465 3.492656
v -0.440961 1.772226 3.492656
v 0.000000 1.638873 3.492656
v 0.000000 3.669957 3.492656
v 0.440967 3.536601 3.492656
v 0.440961 1.772226 3.492656
v 0.755800 2.153360 3.492656
v 0.755801 3.155465 3.492656
v -3.315614 -0.000000 -0.888426
v -0.000000 -0.000000 -0.000011
v -2.974486 0.000000 -1.717331
v -3.434639 -0.000000 -0.000012
v -2.427198 0.000000 -2.427207
v -3.315614 -0.000000 0.888408
v -1.717320 0.000000 -2.974496
v -2.974485 -0.000001 1.717307
v -0.888416 0.000000 -3.315627
v -2.427197 -0.000001 2.427190
v 0.000000 0.000000 -3.434650
v -1.717319 -0.000001 2.974473
v 0.888416 0.000000 -3.315627
v -0.888416 -0.000001 3.315603
v 1.717319 0.000000 -2.974496
v 0.000000 -0.000001 3.434633
v 2.427198 0.000000 -2.427207
v 0.888416 -0.000001 3.315603
v 2.974486 0.000000 -1.717331
v 1.717318 -0.000001 2.974473
v 3.315614 -0.000000 -0.888426
v 2.427197 -0.000001 2.427190
v 3.434639 -0.000000 -0.000012
v 2.974484 -0.000001 1.717307
v 3.315614 -0.000000 0.888408
v -2.113168 4.224925 -0.000023
v -3.744062 3.943972 1.550817
v -4.052543 3.943973 -0.000023
v -3.423977 3.943974 -3.890249
v -1.952313 4.224925 0.808646
v 0.000000 4.224925 -1.123475
v -2.865581 3.943973 2.865557
v -1.494236 4.224925 1.494209
v -1.550842 3.943972 3.744037
v -0.808675 4.224925 1.952286
v -0.000000 3.943972 4.052516
v -1.785406 4.224926 -3.148085
v -1.366491 4.224925 -3.833641
v -2.620597 3.943974 -5.204989
v -0.739539 4.224926 -4.291719
v -1.418257 3.943974 -6.083470
v -0.000000 4.224925 2.113142
v 0.000000 4.224925 -4.452575
v 0.808675 4.224925 1.952286
v 0.000000 3.943974 -6.391949
v 1.550841 3.943972 3.744037
v 1.418257 3.943974 -6.083470
v 1.494236 4.224925 1.494209
v 2.865581 3.943973 2.865557
v 0.739539 4.224926 -4.291719
v 2.620598 3.943974 -5.204989
v 1.952313 4.224925 0.808652
v 3.744062 3.943972 1.550817
v 1.366491 4.224925 -3.833641
v 3.423974 3.943974 -3.890249
v 2.113168 4.224925 -0.000023
v 4.052543 3.943973 -0.000023
v 1.785407 4.224926 -3.148085
v 2.865581 0.817276 2.865556
v 1.550842 0.817276 3.993030
v 2.865581 0.817276 3.114549
v 0.000000 0.817277 -0.000024
v 3.744063 0.817276 1.550816
v 0.000000 0.817276 4.301509
v 4.052543 0.817277 -0.000024
v 3.423976 0.817277 -3.890250
v 2.620598 0.817278 -5.204989
v 1.418257 0.817278 -6.083470
v -0.000000 0.817278 -6.391955
v -1.418257 0.817278 -6.083470
v -2.620598 0.817278 -5.204989
v -3.423976 0.817277 -3.890250
v -4.052543 0.817277 -0.000024
v -3.744062 0.817276 1.550816
v -1.550842 0.817276 3.993030
v -2.865581 0.817276 2.865556
v -2.865581 0.817276 3.114549
v 0.000000 3.669955 4.473223
v -0.440967 3.536601 3.492656
v -0.440967 3.536600 4.473223
v 0.000000 3.669957 3.492656
v 0.440967 3.536601 3.492656
v 0.440967 3.536600 4.473223
v -0.755801 3.155465 3.492656
v -0.440967 3.536600 4.473223
v -0.440967 3.536601 3.492656
v -0.755801 3.155465 4.473223
v -0.755800 2.153360 3.492656
v -0.755800 2.153360 4.473223
v -0.440961 1.772227 4.473223
v -0.440961 1.772226 3.492656
v 0.000000 1.638873 3.492656
v -0.440961 1.772227 4.473223
v -0.440961 1.772226 3.492656
v 0.000000 1.638873 4.473223
v 0.440961 1.772227 4.473223
v 0.440961 1.772226 3.492656
v 0.440967 3.536600 4.473223
v 0.755801 3.155465 3.492656
v 0.440967 3.536601 3.492656
v 0.755801 3.155465 4.473223
v 0.755800 2.153360 3.492656
v 0.755800 2.153360 4.473223
v 0.440961 1.772227 4.473223
v 0.440961 1.772226 3.492656
v 2.202326 3.038263 3.557723
v 2.641901 3.038264 3.028285
v 2.641901 3.038264 3.264007
v 2.202326 3.038264 3.028285
v 2.641901 3.038264 3.264007
v 2.641901 3.701857 3.028286
v 2.641901 3.701857 3.264009
v 2.641901 3.038264 3.028285
v 2.641901 3.701857 3.264009
v 2.202325 3.701857 3.028286
v 2.202325 3.701857 3.557724
v 2.641901 3.701857 3.028286
v 2.202325 3.701857 3.557724
v 2.202326 3.038264 3.028285
v 2.202326 3.038263 3.557723
v 2.202325 3.701857 3.028286
vn -0.8315 -0.0000 0.5556
vn -0.0000 -1.0000 -0.0000
vn -0.5556 -0.0000 -0.8315
vn -0.0000 1.0000 -0.0000
vn 0.5556 -0.0000 0.8315
vn -0.9808 -0.0000 0.1951
vn -0.1951 -0.0000 -0.9808
vn 0.1951 -0.0000 0.9808
vn -0.9892 -0.0000 -0.1466
vn 0.1465 -0.0000 -0.9892
vn -0.1466 -0.0000 0.9892
vn -0.9839 -0.0000 -0.1789
vn 0.1789 -0.0000 -0.9839
vn -0.1789 -0.0000 0.9839
vn 0.8315 -0.0000 0.5556
vn 0.5556 -0.0000 -0.8315
vn -0.5556 -0.0000 0.8315
vn 0.9808 -0.0000 0.1951
vn 0.1951 -0.0000 -0.9808
vn -0.1951 -0.0000 0.9808
vn 0.9892 -0.0000 -0.1466
vn -0.1465 -0.0000 -0.9892
vn 0.1466 -0.0000 0.9892
vn 0.9839 -0.0000 -0.1789
vn -0.1789 -0.0000 -0.9839
vn 0.1789 -0.0000 0.9839
vn -0.0000 0.3396 -0.9406
vn -0.0000 0.3396 0.9406
vn 0.0002 0.3396 -0.9406
vn -0.0000 -0.8370 -0.5472
vn -0.0000 -0.8369 -0.5473
vn -0.0000 -0.8369 0.5473
vn -0.0000 -0.8370 0.5473
vn -1.0000 -0.0000 -0.0000
vn 1.0000 -0.0000 -0.0000
vn -0.7071 -0.0000 -0.7071
vn -0.8660 -0.0001 -0.5000
vn -0.8660 -0.0002 -0.5000
vn -0.9659 -0.0001 -0.2588
vn -0.9660 -0.0000 -0.2587
vn -0.9659 -0.0000 0.2588
vn -0.8660 -0.0000 0.5000
vn -0.7071 -0.0000 0.7071
vn -0.7070 -0.0000 -0.7072
vn -0.5000 -0.0000 -0.8660
vn -0.7070 -0.0001 -0.7072
vn -0.2588 -0.0000 -0.9659
vn -0.0000 -0.0000 -1.0000
vn 0.2588 -0.0000 -0.9659
vn 0.5000 -0.0000 -0.8660
vn 0.7070 -0.0001 -0.7072
vn 0.7070 -0.0000 -0.7072
vn -0.5000 -0.0000 0.8660
vn -0.2588 -0.0000 0.9659
vn -0.0000 -0.0000 1.0000
vn 0.2588 -0.0000 0.9659
vn 0.5000 -0.0000 0.8660
vn 0.7071 -0.0000 0.7071
vn 0.7071 -0.0000 -0.7071
vn 0.8660 -0.0001 -0.5000
vn 0.7071 -0.0001 -0.7071
vn 0.8660 -0.0002 -0.5000
vn 0.9659 -0.0001 -0.2588
vn 0.9660 -0.0000 -0.2587
vn 0.9659 -0.0000 0.2588
vn 0.8660 -0.0000 0.5000
vn -0.6657 0.4521 -0.5937
vn -0.7254 -0.0000 -0.6884
vn -0.9018 0.4320 -0.0089
vn -0.9990 -0.0000 -0.0441
vn -0.8565 0.3986 0.3280
vn -0.9441 -0.0000 0.3297
vn -0.6424 0.3776 0.6669
vn -0.7142 -0.0000 0.6999
vn -0.7253 -0.0000 -0.6884
vn -0.6658 0.4521 -0.5936
vn 0.0016 0.4470 -0.8945
vn 0.7253 -0.0000 -0.6884
vn 0.6641 0.4515 -0.5959
vn 0.7254 -0.0000 -0.6884
vn 0.9990 -0.0000 -0.0441
vn 0.9006 0.4347 -0.0018
vn 0.9441 -0.0000 0.3297
vn 0.8568 0.4042 0.3201
vn 0.7142 -0.0000 0.6999
vn 0.6391 0.3788 0.6694
vn 0.7142 -0.0000 0.7000
vn 0.0015 0.3814 0.9244
vn -0.7142 -0.0000 0.7000
vn -0.6423 0.3776 0.6669
vn -0.0000 -0.0123 0.9999
vn -0.0000 0.3074 0.9516
vn -0.0000 0.6633 0.7483
vn 0.9945 -0.0035 0.1050
vn 0.9945 -0.0036 0.1051
vn 0.9686 0.2155 0.1238
vn 0.9209 0.3686 0.1273
vn 0.8032 0.5822 0.1260
vn 0.8026 0.5852 0.1160
vn -0.0000 0.9939 0.1104
vn -0.8193 0.5618 0.1145
vn -0.8055 0.5788 0.1270
vn -0.9685 0.2183 0.1198
vn -0.9142 0.3823 0.1344
vn -0.9945 -0.0036 0.1051
vn -0.9945 -0.0037 0.1050
vn -0.9239 -0.0000 0.3827
vn -0.9998 -0.0000 0.0181
vn -0.9379 -0.0000 -0.3470
vn -0.7357 -0.0000 -0.6773
vn -0.7356 -0.0000 -0.6774
vn -0.4101 -0.0000 -0.9120
vn 0.4101 -0.0000 -0.9120
vn 0.7356 -0.0000 -0.6774
vn 0.7356 0.0001 -0.6774
vn 0.9239 -0.0000 0.3827
vn 0.9998 -0.0000 0.0181
vn 0.9379 -0.0000 -0.3470
vn 0.7357 -0.0000 -0.6773
vn 0.7357 -0.0001 -0.6773
vn -0.3827 -0.0000 0.9239
vn -0.0003 -0.0000 1.0000
vn 0.3827 -0.0000 0.9239
vn -0.5436 0.8393 -0.0000
vn 0.5436 0.8393 -0.0000
vn -0.5437 0.8393 -0.0001
vn -0.9375 0.3480 -0.0000
vn -0.5437 0.8393 -0.0000
vn -0.9375 -0.3480 -0.0000
vn -0.5437 -0.8393 -0.0000
vn -0.5436 -0.8393 -0.0000
vn 0.5436 -0.8393 -0.0000
vn 0.5437 0.8393 -0.0000
vn 0.9375 0.3480 -0.0000
vn 0.9375 -0.3480 -0.0000
vn 0.5437 -0.8393 -0.0000
vn -0.0000 -0.8370 -0.5473
vn 0.9005 0.4348 -0.0018
vn 0.3538 0.9327 0.0700
vn 0.8568 0.4043 0.3201
vn 0.2630 0.9465 -0.1869
vn 0.0042 0.9509 -0.3095
vn -0.2690 0.9462 -0.1796
vn -0.3526 0.9339 0.0594
vn 0.3508 0.9128 0.2089
vn -0.3471 0.9118 0.2193
vn -0.8564 0.3986 0.3281
vn 0.2886 0.8871 0.3601
vn 0.6391 0.3789 0.6693
vn 0.0062 0.8861 0.4635
vn -0.2973 0.8869 0.3536
vn -0.6475 0.4018 -0.6475
vn -0.9157 0.4018 -0.0000
vn -0.2851 0.9151 -0.2851
vn -0.4033 0.9151 -0.0000
vn -0.6475 0.4018 0.6475
vn -0.0000 0.9151 -0.4033
vn -0.0000 0.4018 -0.9157
vn 0.2851 0.9151 -0.2851
vn 0.6475 0.4018 -0.6475
vn 0.4033 0.9151 -0.0000
vn 0.9157 0.4018 -0.0000
vn -0.2851 0.9151 0.2851
vn -0.0000 0.4018 0.9157
vn -0.0000 0.9151 0.4033
vn 0.6475 0.4018 0.6475
vn 0.2851 0.9151 0.2851
vn 0.2851 0.9151 -0.2852
vn -0.0000 0.9151 0.4032
vn -0.2851 0.9151 0.2852
vn -0.6475 0.4018 -0.6476
vn 0.6476 0.4018 -0.6475
vn 0.6475 0.4017 0.6475
vn -0.6476 0.4017 0.6475
vn -0.7071 0.0001 0.7071
vn -0.1434 0.9897 0.0023
vn -0.1325 0.9897 0.0549
vn -0.0799 0.9968 0.0023
vn -0.1432 0.9883 -0.0517
vn -0.0746 0.9967 0.0309
vn -0.1014 0.9897 0.1014
vn -0.0571 0.9967 0.0571
vn -0.0549 0.9897 0.1325
vn -0.0309 0.9967 0.0746
vn -0.0000 0.9897 0.1434
vn -0.0845 0.9961 -0.0270
vn -0.0629 0.9964 -0.0564
vn -0.1094 0.9887 -0.1025
vn -0.0345 0.9966 -0.0748
vn -0.0587 0.9894 -0.1329
vn -0.0000 0.9967 0.0807
vn -0.0000 0.9967 -0.0815
vn 0.0309 0.9967 0.0746
vn -0.0000 0.9897 -0.1434
vn 0.0549 0.9897 0.1325
vn 0.0587 0.9894 -0.1329
vn 0.0571 0.9967 0.0571
vn 0.1014 0.9897 0.1014
vn 0.0345 0.9966 -0.0748
vn 0.1094 0.9887 -0.1025
vn 0.0746 0.9967 0.0309
vn 0.1325 0.9897 0.0549
vn 0.0629 0.9964 -0.0564
vn 0.1432 0.9883 -0.0517
vn 0.0799 0.9968 0.0023
vn 0.1434 0.9897 0.0023
vn 0.0845 0.9961 -0.0270
vn 0.5469 -0.8372 -0.0000
vn -0.5469 -0.8372 -0.0000
vn 0.9385 -0.3452 -0.0000
vn 0.9385 0.3452 -0.0000
vn 0.5469 0.8372 -0.0000
vn -0.5469 0.8372 -0.0000
vn -0.9385 -0.3452 -0.0000
vn -0.9385 0.3452 -0.0000
vt -2.308110 0.563412
vt -2.318320 0.563412
vt -2.308110 0.558496
vt -2.318320 0.558496
vt 0.550232 3.308110
vt 0.557101 3.318320
vt 0.547825 3.309707
vt 0.554694 3.319917
vt 0.557101 0.558496
vt 0.557101 0.563412
vt 0.554694 0.558496
vt 0.554694 0.563412
vt 0.442899 3.318320
vt 0.449768 3.308110
vt 0.445306 3.319917
vt 0.452175 3.309707
vt 0.449768 0.563412
vt 0.449768 0.558496
vt 0.452175 0.563412
vt 0.452175 0.558496
vt -2.328026 0.563412
vt -2.340069 0.563412
vt -2.328026 0.558496
vt -2.340069 0.558496
vt 0.560818 3.328026
vt 0.563230 3.340069
vt 0.557979 3.328586
vt 0.560391 3.340630
vt 0.563230 0.558496
vt 0.563230 0.563412
vt 0.560391 0.558496
vt 0.560391 0.563412
vt 0.436770 3.340069
vt 0.439182 3.328026
vt 0.439609 3.340630
vt 0.442021 3.328586
vt 0.439182 0.563412
vt 0.439182 0.558496
vt 0.442021 0.563412
vt 0.442021 0.558496
vt -2.351237 0.563412
vt -2.363384 0.563412
vt -2.351237 0.558496
vt -2.363384 0.558496
vt 0.563588 3.351237
vt 0.561776 3.363384
vt 0.560724 3.350816
vt 0.558912 3.362962
vt 0.561776 0.558496
vt 0.561776 0.563412
vt 0.558912 0.558496
vt 0.558912 0.563412
vt 0.438224 3.363384
vt 0.436412 3.351237
vt 0.441088 3.362962
vt 0.439276 3.350816
vt 0.436412 0.563412
vt 0.436412 0.558496
vt 0.439276 0.563412
vt 0.439276 0.558496
vt -2.374553 0.563412
vt -2.386635 0.563412
vt -2.374553 0.558496
vt -2.386635 0.558496
vt 0.559983 3.374553
vt 0.557771 3.386635
vt 0.557135 3.374039
vt 0.554923 3.386121
vt 0.557771 0.558496
vt 0.557771 0.563412
vt 0.554923 0.558496
vt 0.554923 0.563412
vt 0.442229 3.386635
vt 0.440017 3.374553
vt 0.445077 3.386121
vt 0.442865 3.374039
vt 0.440017 0.563412
vt 0.440017 0.558496
vt 0.442865 0.563412
vt 0.442865 0.558496
vt 3.318320 0.558496
vt 3.318320 0.563412
vt 3.308110 0.558496
vt 3.308110 0.563412
vt 0.445302 3.319917
vt 0.442895 3.318320
vt 0.452171 3.309707
vt 0.449764 3.308110
vt 0.445302 0.563412
vt 0.442895 0.563412
vt 0.445302 0.558496
vt 0.442895 0.558496
vt 0.547829 3.309707
vt 0.550236 3.308110
vt 0.554698 3.319917
vt 0.557105 3.318320
vt 0.547829 0.558496
vt 0.550236 0.558496
vt 0.547829 0.563412
vt 0.550236 0.563412
vt 3.340069 0.558496
vt 3.340069 0.563412
vt 3.328026 0.558496
vt 3.328026 0.563412
vt 0.439605 3.340630
vt 0.436766 3.340069
vt 0.442017 3.328586
vt 0.439178 3.328026
vt 0.439605 0.563412
vt 0.436766 0.563412
vt 0.439605 0.558496
vt 0.436766 0.558496
vt 0.557983 3.328586
vt 0.560822 3.328026
vt 0.560395 3.340630
vt 0.563234 3.340069
vt 0.557983 0.558496
vt 0.560822 0.558496
vt 0.557983 0.563412
vt 0.560822 0.563412
vt 3.363384 0.558496
vt 3.363384 0.563412
vt 3.351237 0.558496
vt 3.351237 0.563412
vt 0.441063 3.362962
vt 0.438199 3.363384
vt 0.439251 3.350816
vt 0.436387 3.351237
vt 0.441063 0.563412
vt 0.438199 0.563412
vt 0.441063 0.558496
vt 0.438199 0.558496
vt 0.560749 3.350816
vt 0.563613 3.351237
vt 0.558937 3.362962
vt 0.561801 3.363384
vt 0.560749 0.558496
vt 0.563613 0.558496
vt 0.560749 0.563412
vt 0.563613 0.563412
vt 3.386635 0.558496
vt 3.386635 0.563412
vt 3.374553 0.558496
vt 3.374553 0.563412
vt 0.445126 3.386121
vt 0.442278 3.386635
vt 0.442915 3.374039
vt 0.440066 3.374553
vt 0.445126 0.563412
vt 0.442278 0.563412
vt 0.445126 0.558496
vt 0.442278 0.558496
vt 0.557085 3.374039
vt 0.559934 3.374553
vt 0.554874 3.386121
vt 0.557722 3.386635
vt 0.557085 0.558496
vt 0.559934 0.558496
vt 0.557085 0.563412
vt 0.559934 0.563412
vt 0.479757 3.338514
vt 0.479757 3.334841
vt 0.520248 3.338514
vt 0.520248 3.334841
vt 0.479757 3.331167
vt 0.520248 3.331167
vt 0.479752 0.576589
vt 0.479752 0.572234
vt 0.520243 0.576589
vt 0.520243 0.572234
vt 0.479752 3.337111
vt 0.479752 3.332570
vt 0.520243 3.337111
vt 0.520243 3.332570
vt 0.520248 0.572234
vt 0.520248 0.576589
vt 0.479757 0.572234
vt 0.479757 0.576589
vt -2.331167 0.576589
vt -2.334841 0.579281
vt -2.332570 0.572234
vt -2.337111 0.572234
vt -2.338514 0.576589
vt 3.337111 0.572234
vt 3.338514 0.576589
vt 3.332570 0.572234
vt 3.331167 0.576589
vt 3.334841 0.579281
vt -2.383241 0.513826
vt -2.383241 0.500000
vt -2.372527 0.513826
vt -2.372527 0.500000
vt -2.360015 0.500000
vt -2.360015 0.513826
vt -2.346606 0.513826
vt -2.346606 0.500000
vt -2.333196 0.500000
vt -2.333196 0.513826
vt -2.320685 0.513826
vt -2.320685 0.500000
vt -2.309970 0.500000
vt -2.309970 0.513826
vt 0.536887 0.513826
vt 0.526098 0.513826
vt 0.536887 0.500000
vt 0.526098 0.500000
vt 0.513500 0.500000
vt 0.513500 0.513826
vt 0.499998 0.513826
vt 0.499998 0.500000
vt 0.486496 0.500000
vt 0.486496 0.513826
vt 0.473898 0.513826
vt 0.473898 0.500000
vt 0.463109 0.500000
vt 0.463109 0.513826
vt 0.463113 0.513826
vt 0.463113 0.500000
vt 0.473902 0.513826
vt 0.473902 0.500000
vt 0.486500 0.500000
vt 0.486500 0.513826
vt 0.500002 0.513826
vt 0.500002 0.500000
vt 0.513504 0.500000
vt 0.513504 0.513826
vt 0.526102 0.513826
vt 0.526102 0.500000
vt 0.536891 0.500000
vt 0.536891 0.513826
vt 3.383241 0.513826
vt 3.372527 0.513826
vt 3.383241 0.500000
vt 3.372527 0.500000
vt 3.360015 0.500000
vt 3.360015 0.513826
vt 3.346606 0.513826
vt 3.346606 0.500000
vt 3.333196 0.500000
vt 3.333196 0.513826
vt 3.320685 0.513826
vt 3.320685 0.500000
vt 3.309970 0.500000
vt 3.309970 0.513826
vt -2.340982 0.576143
vt -2.340982 0.550785
vt -2.332491 0.575202
vt -2.332491 0.550785
vt -2.324120 0.574275
vt -2.324120 0.550785
vt -2.315628 0.573334
vt -2.315628 0.550785
vt 0.510125 0.550785
vt 0.510125 0.576143
vt 0.499998 0.550785
vt 0.499998 0.576533
vt 0.489871 0.550785
vt 0.489871 0.576143
vt 3.340982 0.550785
vt 3.340982 0.576143
vt 3.332491 0.550785
vt 3.332491 0.575202
vt 3.324120 0.550785
vt 3.324120 0.574275
vt 3.315628 0.550785
vt 3.315628 0.573334
vt 0.506545 0.550785
vt 0.506545 0.573334
vt 0.500002 0.550785
vt 0.500002 0.572944
vt 0.493459 0.550785
vt 0.493459 0.573334
vt 0.495502 0.569250
vt 0.504502 0.569250
vt 0.495495 0.572673
vt 0.504509 0.572673
vt 0.497136 0.575925
vt 0.502868 0.575925
vt 3.311554 0.569250
vt 3.315005 0.569569
vt 3.311517 0.572673
vt 3.314967 0.573052
vt 3.314089 0.575925
vt 3.317540 0.576355
vt 0.496915 3.317540
vt 0.497136 3.314089
vt 0.503089 3.317540
vt 0.502868 3.314089
vt -2.314089 0.575925
vt -2.317540 0.576355
vt -2.311517 0.572673
vt -2.314967 0.573052
vt -2.311554 0.569250
vt -2.315005 0.569569
vt -2.303353 0.513825
vt -2.303353 0.566715
vt -2.323198 0.513825
vt -2.323198 0.566715
vt -2.346606 0.513825
vt -2.346606 0.566715
vt -2.405324 0.566715
vt -2.405324 0.513825
vt -2.425169 0.513825
vt -2.425169 0.566715
vt 0.539826 0.513825
vt 0.539826 0.566715
vt 0.521553 0.513825
vt 0.521553 0.566715
vt 0.499998 0.513825
vt 0.499998 0.566715
vt 0.478443 0.566715
vt 0.478443 0.513825
vt 0.460170 0.566715
vt 0.460170 0.513825
vt 3.303353 0.513825
vt 3.323198 0.513825
vt 3.303353 0.566715
vt 3.323198 0.566715
vt 3.346606 0.513825
vt 3.346606 0.566715
vt 3.405324 0.566715
vt 3.405324 0.513825
vt 3.425169 0.513825
vt 3.425169 0.566715
vt 0.456451 0.566715
vt 0.456451 0.513825
vt 0.476432 0.566715
vt 0.476432 0.513825
vt 0.487865 0.554308
vt 0.492470 0.560675
vt 0.487865 0.535494
vt 0.492470 0.529127
vt 0.500002 0.526699
vt 0.500002 0.513825
vt 0.507453 0.529061
vt 0.500002 0.563104
vt 0.500002 0.566715
vt 0.523572 0.566715
vt 0.523572 0.513825
vt 0.507453 0.560741
vt 0.512135 0.554349
vt 0.512135 0.535453
vt 0.533473 0.551394
vt 0.533473 0.562619
vt 0.540154 0.551394
vt 0.543553 0.566715
vt 0.543553 0.513825
vt 0.540154 0.562619
vt 3.299595 0.513825
vt 3.299595 0.566715
vt 0.543553 3.303353
vt 0.523572 3.290093
vt 0.543553 3.299595
vt 0.523572 3.286335
vt 0.500002 3.285437
vt 0.500002 3.281679
vt 0.476432 3.286335
vt 0.476432 3.290093
vt 0.456451 3.299595
vt 0.456451 3.303353
vt -2.299595 0.566715
vt -2.299595 0.513825
vt 0.491262 3.279087
vt 0.500002 3.279087
vt 0.491262 3.293888
vt 0.500002 3.293888
vt 0.508742 3.293888
vt 0.508742 3.279087
vt -2.293888 0.562704
vt -2.293888 0.554430
vt -2.279087 0.562704
vt -2.279087 0.554430
vt -2.279087 0.535372
vt -2.293888 0.535372
vt -2.293888 0.527098
vt -2.279087 0.527098
vt 0.508738 3.293888
vt 0.499998 3.293888
vt 0.508738 3.279087
vt 0.499998 3.279087
vt 0.491258 3.279087
vt 0.491258 3.293888
vt 3.293888 0.562704
vt 3.279087 0.562704
vt 3.293888 0.554430
vt 3.279087 0.554430
vt 3.279087 0.535372
vt 3.293888 0.535372
vt 3.293888 0.527098
vt 3.279087 0.527098
vt 0.456450 3.302594
vt 0.456450 3.298921
vt 0.543553 3.302594
vt 0.543553 3.298921
vt 0.456450 3.295248
vt 0.543553 3.295248
vt 0.456447 0.542422
vt 0.456447 0.538067
vt 0.543550 0.542422
vt 0.543550 0.538067
vt 0.456447 3.301191
vt 0.456447 3.296651
vt 0.543550 3.301191
vt 0.543550 3.296651
vt 0.543553 0.538067
vt 0.543553 0.542422
vt 0.456450 0.538067
vt 0.456450 0.542422
vt -2.295248 0.542422
vt -2.298921 0.545114
vt -2.296651 0.538067
vt -2.301191 0.538067
vt -2.302594 0.542422
vt 3.301191 0.538067
vt 3.302594 0.542422
vt 3.296651 0.538067
vt 3.295248 0.542422
vt 3.298921 0.545114
vt 0.500002 0.565622
vt 0.491262 0.562704
vt 0.500002 0.562080
vt 0.508742 0.562704
vt 0.493300 0.559824
vt 0.506704 0.559824
vt 0.485050 0.554430
vt 0.488515 0.553377
vt 0.488515 0.536425
vt 0.485050 0.535372
vt 0.514954 0.554430
vt 0.511489 0.553377
vt 0.511489 0.536425
vt 0.514954 0.535372
vt 0.493300 0.529978
vt 0.491262 0.527098
vt 0.506704 0.529978
vt 0.508742 0.527098
vt 0.500002 0.524180
vt 0.500002 0.527723
vt 0.512626 3.332491
vt 0.510129 3.340982
vt 0.507194 3.332491
vt 0.510953 3.324120
vt 0.505477 3.337328
vt 0.500002 3.344499
vt 0.500002 3.339332
vt 0.489875 3.340982
vt 0.494527 3.337328
vt 0.487378 3.332491
vt 0.492810 3.332491
vt 0.506241 3.324120
vt 0.493763 3.324120
vt 0.489051 3.324120
vt 0.493459 3.315628
vt 0.504024 3.319282
vt 0.506545 3.315628
vt 0.500002 3.317278
vt 0.500002 3.312111
vt 0.495980 3.319282
vt 0.463423 3.397177
vt 0.462149 3.394122
vt 0.464746 3.395862
vt 0.464021 3.394122
vt 0.463423 3.391068
vt 0.466498 3.396583
vt 0.466498 3.398442
vt 0.468250 3.395862
vt 0.469574 3.397177
vt 0.468976 3.394122
vt 0.470848 3.394122
vt 0.464746 3.392382
vt 0.466498 3.389803
vt 0.466498 3.391661
vt 0.469574 3.391068
vt 0.468250 3.392382
vt 0.535984 3.394122
vt 0.537855 3.394122
vt 0.535258 3.395862
vt 0.536582 3.397177
vt 0.536582 3.391068
vt 0.533506 3.396583
vt 0.533506 3.398442
vt 0.531754 3.395862
vt 0.530431 3.397177
vt 0.531028 3.394122
vt 0.529157 3.394122
vt 0.535258 3.392382
vt 0.533506 3.389803
vt 0.533506 3.391662
vt 0.530431 3.391068
vt 0.531754 3.392382
vt -2.397177 0.572804
vt -2.397177 0.563542
vt -2.394122 0.572804
vt -2.394122 0.563542
vt -2.391068 0.572804
vt -2.391068 0.563542
vt 0.536577 0.563542
vt 0.536577 0.572804
vt 0.533502 0.563542
vt 0.533502 0.572804
vt 0.530426 0.563542
vt 0.530426 0.572804
vt 3.397177 0.563542
vt 3.397177 0.572804
vt 3.394122 0.563542
vt 3.394122 0.572804
vt 3.391068 0.563542
vt 3.391068 0.572804
vt 0.469574 0.563542
vt 0.469574 0.572804
vt 0.466498 0.563542
vt 0.466498 0.572804
vt 0.463423 0.563542
vt 0.463423 0.572804
vt 3.391068 0.572804
vt 3.391068 0.563542
vt 0.463418 0.563542
vt 0.466494 0.563542
vt 0.463418 0.572804
vt 0.466494 0.572804
vt 0.469569 0.563542
vt 0.469569 0.572804
vt 0.530431 0.563542
vt 0.533506 0.563542
vt 0.530431 0.572804
vt 0.533506 0.572804
vt 0.536582 0.563542
vt 0.536582 0.572804
vt 0.488515 0.536425
vt 0.511489 0.536425
vt 0.511489 0.553377
vt 0.545204 3.372527
vt 0.499998 3.346606
vt 0.550389 3.360015
vt 0.552198 3.346606
vt 0.536887 3.383241
vt 0.550389 3.333196
vt 0.526098 3.391502
vt 0.545204 3.320685
vt 0.513500 3.396651
vt 0.536887 3.309970
vt 0.499998 3.398448
vt 0.526098 3.301709
vt 0.486496 3.396651
vt 0.513500 3.296560
vt 0.473898 3.391502
vt 0.499998 3.294764
vt 0.463109 3.383241
vt 0.486496 3.296560
vt 0.454792 3.372527
vt 0.473898 3.301709
vt 0.449607 3.360015
vt 0.463109 3.309970
vt 0.447798 3.346606
vt 0.454792 3.320685
vt 0.449607 3.333196
vt 0.438411 3.346606
vt 0.443100 3.323198
vt 0.467886 3.346606
vt 0.447964 3.405324
vt 0.470331 3.334400
vt 0.500002 3.363563
vt 0.477293 3.324052
vt 0.487712 3.317138
vt 0.472867 3.394122
vt 0.479234 3.404470
vt 0.460174 3.425169
vt 0.488763 3.411384
vt 0.478447 3.438429
vt 0.500002 3.314710
vt 0.500002 3.413812
vt 0.512292 3.317138
vt 0.500002 3.443085
vt 0.521557 3.438429
vt 0.522711 3.324052
vt 0.511242 3.411384
vt 0.539830 3.425169
vt 0.529673 3.334400
vt 0.556904 3.323198
vt 0.520770 3.404470
vt 0.552040 3.405324
vt 0.532118 3.346606
vt 0.561593 3.346606
vt 0.527137 3.394122
vt 0.456447 3.299595
vt 0.476428 3.286335
vt 0.456447 3.303353
vt 0.499998 3.346606
vt 0.443096 3.323198
vt 0.499998 3.281679
vt 0.438407 3.346606
vt 0.447960 3.405324
vt 0.460170 3.425169
vt 0.478443 3.438429
vt 0.499998 3.443085
vt 0.521553 3.438429
vt 0.539826 3.425169
vt 0.552036 3.405324
vt 0.561589 3.346606
vt 0.556900 3.323198
vt 0.523568 3.286335
vt 0.543549 3.303353
vt 0.543549 3.299595
vt 0.506700 3.279087
vt 0.506700 3.293888
vt 0.499998 3.293888
vt 0.493296 3.293888
vt 0.493296 3.279087
vt 3.293888 0.559824
vt 3.279087 0.559824
vt 3.293888 0.553377
vt 3.279087 0.553377
vt 3.293888 0.536425
vt 3.279087 0.536425
vt 3.279087 0.529978
vt 3.293888 0.529978
vt 0.493300 3.293888
vt 0.493300 3.279087
vt 0.500002 3.293888
vt 0.506704 3.279087
vt 0.506704 3.293888
vt -2.293888 0.559824
vt -2.293888 0.553377
vt -2.279087 0.559824
vt -2.279087 0.553377
vt -2.293888 0.536425
vt -2.279087 0.536425
vt -2.279087 0.529978
vt -2.293888 0.529978
vt 0.540154 3.297339
vt 0.540154 3.300897
vt 0.533473 3.292906
vt 0.533473 3.300897
vt -2.297339 0.562619
vt -2.300897 0.562619
vt -2.297339 0.551394
vt -2.300897 0.551394
vt 0.466527 3.292906
vt 0.466527 3.300897
vt 0.459846 3.297339
vt 0.459846 3.300897
vt 3.292906 0.551394
vt 3.300897 0.551394
vt 3.292906 0.562619
vt 3.300897 0.562619
s 1
f 3/1/1 2/2/1 1/3/1
f 4/4/1 1/3/1 2/2/1
f 7/5/2 6/6/2 5/7/2
f 8/8/2 5/7/2 6/6/2
f 11/9/3 10/10/3 9/11/3
f 12/12/3 9/11/3 10/10/3
f 15/13/4 14/14/4 13/15/4
f 16/16/4 13/15/4 14/14/4
f 19/17/5 18/18/5 17/19/5
f 20/20/5 17/19/5 18/18/5
f 23/21/6 22/22/6 21/23/6
f 24/24/6 21/23/6 22/22/6
f 27/25/2 26/26/2 25/27/2
f 28/28/2 25/27/2 26/26/2
f 31/29/7 30/30/7 29/31/7
f 32/32/7 29/31/7 30/30/7
f 35/33/4 34/34/4 33/35/4
f 36/36/4 33/35/4 34/34/4
f 39/37/8 38/38/8 37/39/8
f 40/40/8 37/39/8 38/38/8
f 43/41/9 42/42/9 41/43/9
f 44/44/9 41/43/9 42/42/9
f 47/45/2 46/46/2 45/47/2
f 48/48/2 45/47/2 46/46/2
f 51/49/10 50/50/10 49/51/10
f 52/52/10 49/51/10 50/50/10
f 55/53/4 54/54/4 53/55/4
f 56/56/4 53/55/4 54/54/4
f 59/57/11 58/58/11 57/59/11
f 60/60/11 57/59/11 58/58/11
f 63/61/12 62/62/12 61/63/12
f 64/64/12 61/63/12 62/62/12
f 67/65/2 66/66/2 65/67/2
f 68/68/2 65/67/2 66/66/2
f 71/69/13 70/70/13 69/71/13
f 72/72/13 69/71/13 70/70/13
f 75/73/4 74/74/4 73/75/4
f 76/76/4 73/75/4 74/74/4
f 79/77/14 78/78/14 77/79/14
f 80/80/14 77/79/14 78/78/14
f 83/81/15 82/82/15 81/83/15
f 84/84/15 81/83/15 82/82/15
f 87/85/2 86/86/2 85/87/2
f 88/88/2 85/87/2 86/86/2
f 91/89/16 90/90/16 89/91/16
f 92/92/16 89/91/16 90/90/16
f 95/93/4 94/94/4 93/95/4
f 96/96/4 93/95/4 94/94/4
f 99/97/17 98/98/17 97/99/17
f 100/100/17 97/99/17 98/98/17
f 103/101/18 102/102/18 101/103/18
f 104/104/18 101/103/18 102/102/18
f 107/105/2 106/106/2 105/107/2
f 108/108/2 105/107/2 106/106/2
f 111/109/19 110/110/19 109/111/19
f 112/112/19 109/111/19 110/110/19
f 115/113/4 114/114/4 113/115/4
f 116/116/4 113/115/4 114/114/4
f 119/117/20 118/118/20 117/119/20
f 120/120/20 117/119/20 118/118/20
f 123/121/21 122/122/21 121/123/21
f 124/124/21 121/123/21 122/122/21
f 127/125/2 126/126/2 125/127/2
f 128/128/2 125/127/2 126/126/2
f 131/129/22 130/130/22 129/131/22
f 132/132/22 129/131/22 130/130/22
f 135/133/4 134/134/4 133/135/4
f 136/136/4 133/135/4 134/134/4
f 139/137/23 138/138/23 137/139/23
f 140/140/23 137/139/23 138/138/23
f 143/141/24 142/142/24 141/143/24
f 144/144/24 141/143/24 142/142/24
f 147/145/2 146/146/2 145/147/2
f 148/148/2 145/147/2 146/146/2
f 151/149/25 150/150/25 149/151/25
f 152/152/25 149/151/25 150/150/25
f 155/153/4 154/154/4 153/155/4
f 156/156/4 153/155/4 154/154/4
f 159/157/26 158/158/26 157/159/26
f 160/160/26 157/159/26 158/158/26
f 163/161/27 162/162/4 161/163/27
f 164/164/4 161/163/27 162/162/4
f 162/162/4 165/165/28 164/164/4
f 166/166/28 164/164/4 165/165/28
f 169/167/29 168/168/30 167/169/27
f 170/170/30 167/169/27 168/168/30
f 173/171/31 172/172/32 171/173/31
f 174/174/32 171/173/31 172/172/32
f 177/175/33 176/176/28 175/177/33
f 178/178/28 175/177/33 176/176/28
f 181/179/34 180/180/34 179/181/34
f 179/181/34 180/180/34 182/182/34
f 182/182/34 180/180/34 183/183/34
f 186/184/35 185/185/35 184/186/35
f 184/186/35 185/185/35 187/187/35
f 187/187/35 185/185/35 188/188/35
f 191/189/36 190/190/36 189/191/37
f 192/192/38 189/191/37 190/190/36
f 192/192/38 193/193/39 189/191/37
f 194/194/40 189/191/37 193/193/39
f 194/194/40 193/193/39 195/195/34
f 196/196/34 195/195/34 193/193/39
f 196/196/34 197/197/41 195/195/34
f 198/198/41 195/195/34 197/197/41
f 198/198/41 197/197/41 199/199/42
f 200/200/42 199/199/42 197/197/41
f 200/200/42 201/201/43 199/199/42
f 202/202/43 199/199/42 201/201/43
f 205/203/44 204/204/45 203/205/46
f 206/206/45 203/205/46 204/204/45
f 206/206/45 204/204/45 207/207/47
f 208/208/47 207/207/47 204/204/45
f 208/208/47 209/209/48 207/207/47
f 210/210/48 207/207/47 209/209/48
f 210/210/48 209/209/48 211/211/49
f 212/212/49 211/211/49 209/209/48
f 212/212/49 213/213/50 211/211/49
f 214/214/50 211/211/49 213/213/50
f 214/214/50 213/213/50 215/215/51
f 216/216/52 215/215/51 213/213/50
f 219/217/43 218/218/43 217/219/53
f 220/220/53 217/219/53 218/218/43
f 220/220/53 221/221/54 217/219/53
f 222/222/54 217/219/53 221/221/54
f 222/222/54 221/221/54 223/223/55
f 224/224/55 223/223/55 221/221/54
f 224/224/55 225/225/56 223/223/55
f 226/226/56 223/223/55 225/225/56
f 226/226/56 225/225/56 227/227/57
f 228/228/57 227/227/57 225/225/56
f 228/228/57 229/229/58 227/227/57
f 230/230/58 227/227/57 229/229/58
f 233/231/59 232/232/60 231/233/61
f 234/234/62 231/233/61 232/232/60
f 234/234/62 232/232/60 235/235/63
f 236/236/64 235/235/63 232/232/60
f 236/236/64 237/237/35 235/235/63
f 238/238/35 235/235/63 237/237/35
f 238/238/35 237/237/35 239/239/65
f 240/240/65 239/239/65 237/237/35
f 240/240/65 241/241/66 239/239/65
f 242/242/66 239/239/65 241/241/66
f 242/242/66 241/241/66 243/243/58
f 244/244/58 243/243/58 241/241/66
f 247/245/67 246/246/68 245/247/69
f 248/248/70 245/247/69 246/246/68
f 245/247/69 248/248/70 249/249/71
f 250/250/72 249/249/71 248/248/70
f 249/249/71 250/250/72 251/251/73
f 252/252/74 251/251/73 250/250/72
f 255/253/75 254/254/76 253/255/48
f 256/256/77 253/255/48 254/254/76
f 253/255/48 256/256/77 257/257/78
f 258/258/79 257/257/78 256/256/77
f 261/259/80 260/260/79 259/261/81
f 262/262/82 259/261/81 260/260/79
f 259/261/81 262/262/82 263/263/83
f 264/264/84 263/263/83 262/262/82
f 263/263/83 264/264/84 265/265/85
f 266/266/86 265/265/85 264/264/84
f 269/267/87 268/268/86 267/269/55
f 270/270/88 267/269/55 268/268/86
f 267/269/55 270/270/88 271/271/89
f 272/272/90 271/271/89 270/270/88
f 275/273/91 274/274/91 273/275/92
f 276/276/92 273/275/92 274/274/91
f 273/275/92 276/276/92 277/277/93
f 278/278/93 277/277/93 276/276/92
f 281/279/94 280/280/95 279/281/96
f 282/282/97 279/281/96 280/280/95
f 279/281/96 282/282/97 283/283/98
f 284/284/99 283/283/98 282/282/97
f 287/285/100 286/286/100 285/287/100
f 288/288/100 285/287/100 286/286/100
f 291/289/101 290/290/102 289/291/103
f 292/292/104 289/291/103 290/290/102
f 289/291/103 292/292/104 293/293/105
f 294/294/106 293/293/105 292/292/104
f 297/295/1 296/296/1 295/297/107
f 298/298/107 295/297/107 296/296/1
f 295/297/107 298/298/107 299/299/108
f 300/300/108 299/299/108 298/298/107
f 300/300/108 301/301/109 299/299/108
f 302/302/109 299/299/108 301/301/109
f 302/302/109 301/301/109 303/303/110
f 304/304/110 303/303/110 301/301/109
f 307/305/111 306/306/111 305/307/112
f 308/308/112 305/307/112 306/306/111
f 305/307/112 308/308/112 309/309/48
f 310/310/48 309/309/48 308/308/112
f 310/310/48 311/311/113 309/309/48
f 312/312/113 309/309/48 311/311/113
f 311/311/113 313/313/114 312/312/113
f 314/314/115 312/312/113 313/313/114
f 317/315/15 316/316/116 315/317/15
f 318/318/116 315/317/15 316/316/116
f 316/316/116 319/319/117 318/318/116
f 320/320/117 318/318/116 319/319/117
f 320/320/117 319/319/117 321/321/118
f 322/322/118 321/321/118 319/319/117
f 322/322/118 323/323/119 321/321/118
f 324/324/120 321/321/118 323/323/119
f 327/325/17 326/326/17 325/327/121
f 328/328/121 325/327/121 326/326/17
f 325/327/121 328/328/121 329/329/20
f 330/330/20 325/327/121 329/329/20
f 331/331/20 329/329/20 328/328/121
f 328/328/121 332/332/20 331/331/20
f 332/332/20 328/328/121 333/333/122
f 334/334/55 333/333/122 328/328/121
f 333/333/122 334/334/55 335/335/8
f 330/330/20 336/336/122 325/327/121
f 337/337/55 325/327/121 336/336/122
f 337/337/55 336/336/122 338/338/123
f 339/339/123 335/335/8 334/334/55
f 340/340/8 338/338/123 336/336/122
f 340/340/8 341/341/8 338/338/123
f 342/342/8 335/335/8 339/339/123
f 341/341/8 342/342/8 338/338/123
f 339/339/123 338/338/123 342/342/8
f 339/339/123 343/343/5 338/338/123
f 344/344/5 338/338/123 343/343/5
f 343/343/5 339/339/123 345/345/5
f 338/338/123 344/344/5 346/346/5
f 347/347/5 345/345/5 339/339/123
f 348/348/5 346/346/5 344/344/5
f 345/345/5 347/347/5 348/348/5
f 346/346/5 348/348/5 347/347/5
f 351/315/35 350/317/35 349/349/35
f 352/350/35 349/349/35 350/317/35
f 355/351/4 354/352/4 353/353/4
f 356/354/4 353/353/4 354/352/4
f 354/352/4 357/355/4 356/354/4
f 358/356/4 356/354/4 357/355/4
f 358/356/4 357/355/4 359/357/4
f 360/358/4 359/357/4 357/355/4
f 359/357/4 360/358/4 361/359/4
f 362/360/4 361/359/4 360/358/4
f 365/296/34 364/295/34 363/361/34
f 366/362/34 363/361/34 364/295/34
f 369/363/124 368/364/4 367/365/124
f 370/366/4 367/365/124 368/364/4
f 370/366/4 368/364/4 371/367/125
f 372/368/125 371/367/125 368/364/4
f 375/369/126 374/370/127 373/371/128
f 376/372/127 373/371/128 374/370/127
f 376/372/127 374/370/127 377/373/129
f 378/374/129 377/373/129 374/370/127
f 378/374/129 379/375/130 377/373/129
f 380/376/130 377/373/129 379/375/130
f 383/377/131 382/378/2 381/379/131
f 384/380/2 381/379/131 382/378/2
f 384/380/2 382/378/2 385/381/132
f 386/382/132 385/381/132 382/378/2
f 389/383/133 388/384/133 387/385/134
f 390/386/134 387/385/134 388/384/133
f 390/386/134 391/387/135 387/385/134
f 392/388/135 387/385/134 391/387/135
f 392/388/135 391/387/135 393/389/136
f 394/390/136 393/389/136 391/387/135
f 397/391/27 396/392/4 395/393/27
f 398/394/4 395/393/27 396/392/4
f 396/392/4 399/395/28 398/394/4
f 400/396/28 398/394/4 399/395/28
f 403/397/27 402/398/137 401/399/27
f 404/400/30 401/399/27 402/398/137
f 407/401/31 406/402/32 405/403/31
f 408/404/32 405/403/31 406/402/32
f 411/405/33 410/406/28 409/407/33
f 412/408/28 409/407/33 410/406/28
f 415/409/34 414/410/34 413/411/34
f 413/411/34 414/410/34 416/412/34
f 416/412/34 414/410/34 417/413/34
f 420/414/35 419/415/35 418/416/35
f 418/416/35 419/415/35 421/417/35
f 421/417/35 419/415/35 422/418/35
f 425/419/55 424/420/55 423/421/55
f 425/419/55 423/421/55 426/422/55
f 427/423/55 423/421/55 424/420/55
f 428/424/55 426/422/55 423/421/55
f 424/420/55 429/425/55 427/423/55
f 430/426/55 427/423/55 429/425/55
f 430/426/55 429/425/55 431/427/55
f 432/428/55 431/427/55 429/425/55
f 426/422/55 428/424/55 433/429/55
f 434/430/55 433/429/55 428/424/55
f 434/430/55 435/431/55 433/429/55
f 436/432/55 433/429/55 435/431/55
f 431/427/55 432/428/55 437/433/55
f 438/434/55 437/433/55 432/428/55
f 435/431/55 439/435/55 436/432/55
f 440/436/55 436/432/55 439/435/55
f 438/434/55 441/437/55 437/433/55
f 440/436/55 439/435/55 441/437/55
f 442/438/55 437/433/55 441/437/55
f 442/438/55 441/437/55 439/435/55
f 445/439/138 444/440/79 443/441/139
f 445/439/138 443/441/139 446/442/140
f 447/443/141 443/441/139 444/440/79
f 444/440/79 448/444/77 447/443/141
f 449/445/142 447/443/141 448/444/77
f 447/443/141 449/445/142 443/441/139
f 448/444/77 450/446/67 449/445/142
f 451/447/143 449/445/142 450/446/67
f 450/446/67 452/448/69 451/447/143
f 451/447/143 453/449/144 449/445/142
f 449/445/142 453/449/144 443/441/139
f 453/449/144 451/447/143 452/448/69
f 454/450/145 446/442/140 443/441/139
f 443/441/139 453/449/144 454/450/145
f 453/449/144 452/448/69 455/451/146
f 455/451/146 454/450/145 453/449/144
f 456/452/147 455/451/146 452/448/69
f 456/452/147 457/453/73 455/451/146
f 454/450/145 458/454/148 446/442/140
f 459/455/149 446/442/140 458/454/148
f 460/456/150 458/454/148 454/450/145
f 458/454/148 460/456/150 459/455/149
f 455/451/146 460/456/150 454/450/145
f 461/457/88 459/455/149 460/456/150
f 457/453/73 461/457/88 462/458/151
f 462/458/151 455/451/146 457/453/73
f 462/458/151 460/456/150 455/451/146
f 460/456/150 462/458/151 461/457/88
f 465/459/152 464/460/153 463/461/154
f 466/462/155 463/461/154 464/460/153
f 464/460/153 467/463/156 466/462/155
f 463/461/154 468/464/157 465/459/152
f 463/461/154 466/462/155 468/464/157
f 469/465/158 465/459/152 468/464/157
f 468/464/157 470/466/159 469/465/158
f 471/467/160 469/465/158 470/466/159
f 472/468/161 470/466/159 468/464/157
f 470/466/159 472/468/161 471/467/160
f 466/462/155 472/468/161 468/464/157
f 473/469/162 471/467/160 472/468/161
f 474/470/163 466/462/155 467/463/156
f 467/463/156 475/471/164 474/470/163
f 474/470/163 476/472/165 466/462/155
f 476/472/165 474/470/163 475/471/164
f 476/472/165 472/468/161 466/462/155
f 475/471/164 477/473/166 476/472/165
f 477/473/166 473/469/162 478/474/167
f 472/468/161 478/474/167 473/469/162
f 478/474/167 472/468/161 476/472/165
f 478/474/167 476/472/165 477/473/166
f 481/475/161 480/476/162 479/477/168
f 482/478/160 479/477/168 480/476/162
f 480/476/162 481/475/161 483/479/166
f 479/477/168 482/478/160 484/480/157
f 481/475/161 479/477/168 484/480/157
f 485/481/158 484/480/157 482/478/160
f 484/480/157 485/481/158 486/482/154
f 487/483/152 486/482/154 485/481/158
f 486/482/154 488/484/155 484/480/157
f 486/482/154 487/483/152 488/484/155
f 488/484/155 481/475/161 484/480/157
f 489/485/153 488/484/155 487/483/152
f 490/486/167 483/479/166 481/475/161
f 483/479/166 490/486/167 491/487/164
f 490/486/167 481/475/161 492/488/169
f 492/488/169 491/487/164 490/486/167
f 492/488/169 481/475/161 488/484/155
f 491/487/164 492/488/169 493/489/156
f 488/484/155 489/485/153 494/490/170
f 493/489/156 494/490/170 489/485/153
f 494/490/170 492/488/169 488/484/155
f 494/490/170 493/489/156 492/488/169
f 497/491/171 496/492/36 495/493/153
f 498/494/34 495/493/153 496/492/36
f 495/493/153 498/494/34 499/495/156
f 500/496/43 499/495/156 498/494/34
f 503/497/36 502/498/152 501/499/48
f 504/500/158 501/499/48 502/498/152
f 501/499/48 504/500/158 505/501/59
f 506/502/172 505/501/59 504/500/158
f 509/503/59 508/504/160 507/505/35
f 510/506/162 507/505/35 508/504/160
f 507/505/35 510/506/162 511/507/58
f 512/508/173 511/507/58 510/506/162
f 515/509/58 514/510/166 513/511/55
f 516/512/164 513/511/55 514/510/166
f 513/511/55 516/512/164 517/513/43
f 518/514/174 517/513/43 516/512/164
f 521/504/160 520/506/162 519/503/59
f 522/505/35 519/503/59 520/506/162
f 520/506/162 523/515/173 522/505/35
f 524/516/58 522/505/35 523/515/173
f 527/517/59 526/518/48 525/519/172
f 528/520/158 525/519/172 526/518/48
f 526/518/48 529/521/36 528/520/158
f 530/522/152 528/520/158 529/521/36
f 533/492/36 532/494/34 531/491/171
f 534/493/153 531/491/171 532/494/34
f 532/494/34 535/496/43 534/493/153
f 536/495/156 534/493/153 535/496/43
f 539/523/175 538/524/55 537/525/174
f 540/526/164 537/525/174 538/524/55
f 538/524/55 541/527/58 540/526/164
f 542/528/166 540/526/164 541/527/58
f 545/348/55 544/344/55 543/345/55
f 546/343/55 543/345/55 544/344/55
f 549/426/55 548/529/55 547/423/55
f 550/433/55 547/423/55 548/529/55
f 550/433/55 551/438/55 547/423/55
f 552/421/55 547/423/55 551/438/55
f 552/421/55 551/438/55 553/424/55
f 554/435/55 553/424/55 551/438/55
f 554/435/55 555/530/55 553/424/55
f 556/531/55 553/424/55 555/530/55
f 559/532/2 558/533/2 557/534/2
f 557/534/2 558/533/2 560/535/2
f 561/536/2 558/533/2 559/532/2
f 560/535/2 558/533/2 562/537/2
f 563/538/2 558/533/2 561/536/2
f 562/537/2 558/533/2 564/539/2
f 565/540/2 558/533/2 563/538/2
f 564/539/2 558/533/2 566/541/2
f 567/542/2 558/533/2 565/540/2
f 566/541/2 558/533/2 568/543/2
f 569/544/2 558/533/2 567/542/2
f 568/543/2 558/533/2 570/545/2
f 571/546/2 558/533/2 569/544/2
f 570/545/2 558/533/2 572/547/2
f 573/548/2 558/533/2 571/546/2
f 572/547/2 558/533/2 574/549/2
f 575/550/2 558/533/2 573/548/2
f 574/549/2 558/533/2 576/551/2
f 577/552/2 558/533/2 575/550/2
f 576/551/2 558/533/2 578/553/2
f 579/554/2 558/533/2 577/552/2
f 578/553/2 558/533/2 580/555/2
f 581/556/2 558/533/2 579/554/2
f 580/555/2 558/533/2 581/556/2
f 584/557/176 583/558/177 582/559/178
f 584/557/176 582/559/178 585/560/179
f 586/561/180 582/559/178 583/558/177
f 582/559/178 586/561/180 587/562/4
f 583/558/177 588/360/181 586/561/180
f 589/563/182 586/561/180 588/360/181
f 586/561/180 589/563/182 587/562/4
f 588/360/181 590/358/183 589/563/182
f 591/564/184 589/563/182 590/358/183
f 589/563/182 591/564/184 587/562/4
f 590/358/183 592/355/185 591/564/184
f 593/565/186 585/560/179 582/559/178
f 593/565/186 582/559/178 587/562/4
f 593/565/186 594/566/187 585/560/179
f 594/566/187 593/565/186 587/562/4
f 595/567/188 585/560/179 594/566/187
f 594/566/187 596/568/189 595/567/188
f 594/566/187 587/562/4 596/568/189
f 597/569/190 595/567/188 596/568/189
f 587/562/4 591/564/184 598/570/191
f 598/570/191 591/564/184 592/355/185
f 596/568/189 587/562/4 599/571/192
f 596/568/189 599/571/192 597/569/190
f 600/572/193 587/562/4 598/570/191
f 598/570/191 592/355/185 600/572/193
f 601/573/194 597/569/190 599/571/192
f 602/352/195 600/572/193 592/355/185
f 601/573/194 599/571/192 603/574/196
f 600/572/193 602/352/195 604/575/197
f 604/575/197 587/562/4 600/572/193
f 605/351/198 604/575/197 602/352/195
f 606/576/199 603/574/196 599/571/192
f 587/562/4 606/576/199 599/571/192
f 603/574/196 606/576/199 607/577/200
f 604/575/197 605/351/198 608/578/201
f 604/575/197 608/578/201 587/562/4
f 609/579/202 608/578/201 605/351/198
f 610/580/203 607/577/200 606/576/199
f 610/580/203 606/576/199 587/562/4
f 607/577/200 610/580/203 611/581/204
f 608/578/201 609/579/202 612/582/205
f 608/578/201 612/582/205 587/562/4
f 613/583/206 612/582/205 609/579/202
f 613/583/206 611/581/204 612/582/205
f 614/584/207 611/581/204 610/580/203
f 614/584/207 610/580/203 587/562/4
f 614/584/207 612/582/205 611/581/204
f 612/582/205 614/584/207 587/562/4
f 617/585/2 616/586/2 615/587/2
f 616/586/2 618/588/2 615/587/2
f 615/587/2 618/588/2 619/589/2
f 620/590/2 618/588/2 616/586/2
f 621/591/2 619/589/2 618/588/2
f 622/592/2 621/591/2 618/588/2
f 623/593/2 622/592/2 618/588/2
f 623/593/2 618/588/2 624/594/2
f 624/594/2 618/588/2 625/595/2
f 625/595/2 618/588/2 626/596/2
f 626/596/2 618/588/2 627/597/2
f 627/597/2 618/588/2 628/598/2
f 628/598/2 618/588/2 629/599/2
f 618/588/2 630/600/2 629/599/2
f 631/601/2 618/588/2 620/590/2
f 632/602/2 630/600/2 618/588/2
f 632/602/2 618/588/2 631/601/2
f 633/603/2 632/602/2 631/601/2
f 636/604/208 635/605/208 634/380/2
f 637/606/2 634/380/2 635/605/208
f 637/606/2 638/607/209 634/380/2
f 639/608/209 634/380/2 638/607/209
f 642/609/208 641/610/208 640/611/210
f 643/612/210 640/611/210 641/610/208
f 640/611/210 643/612/210 644/613/211
f 645/614/211 644/613/211 643/612/210
f 645/614/211 646/615/212 644/613/211
f 647/616/212 644/613/211 646/615/212
f 650/617/212 649/618/212 648/619/4
f 651/364/4 648/619/4 649/618/212
f 651/364/4 652/620/213 648/619/4
f 653/621/213 648/619/4 652/620/213
f 656/622/209 655/623/214 654/624/209
f 657/625/214 654/624/209 655/623/214
f 655/623/214 658/626/215 657/625/214
f 659/627/215 657/625/214 658/626/215
f 659/627/215 658/626/215 660/628/213
f 661/629/213 660/628/213 658/626/215
f 664/630/4 663/631/4 662/632/4
f 665/633/4 662/632/4 663/631/4
f 668/634/34 667/635/34 666/636/34
f 669/637/34 666/636/34 667/635/34
f 672/638/2 671/639/2 670/640/2
f 673/641/2 670/640/2 671/639/2
f 676/642/35 675/643/35 674/644/35
f 677/645/35 674/644/35 675/643/35
