# Blender 4.5.3 LTS
# www.blender.org
mtllib frd_gun_228_round_x4_001.mtl
o frd_gun_228_round_x4_001
v 1.123123 1.282494 3.733380
v 1.123654 2.261969 3.733379
v 0.988620 0.993855 3.733378
v 0.700000 0.633204 3.733378
v 0.700000 0.859912 3.737919
v 0.411302 0.993855 3.733378
v 0.276828 1.282490 3.733375
v 0.276304 2.261969 3.733375
v 0.276654 2.431338 3.176126
v 0.401136 2.510006 2.876623
v 0.700000 2.557545 2.752888
v 0.700000 2.593531 2.633640
v 0.998820 2.510004 2.876629
v 1.123300 2.431338 3.176129
v 0.700000 0.633204 3.733378
v 1.122600 1.282495 2.460433
v 0.998814 2.331255 2.460433
v 1.122600 2.245223 2.460433
v 0.988640 0.993855 2.460433
v 0.699980 2.343613 2.460433
v 0.699980 0.859895 2.460433
v 0.411321 0.993855 2.460433
v 0.401147 2.331255 2.460433
v 0.277361 1.282495 2.460433
v 0.277361 2.245223 2.460433
v 0.998814 2.331255 2.876631
v 0.998820 2.510004 2.876629
v 1.122600 2.245223 3.175495
v 1.122600 1.282495 2.460433
v 1.122600 2.245223 2.460433
v 0.998814 2.331255 2.876631
v 0.700000 2.557545 2.752888
v 0.998820 2.510004 2.876629
v 0.699980 2.343612 2.752895
v 0.401147 2.331255 2.876631
v 0.401136 2.510006 2.876623
v 0.988640 0.993855 2.460433
v 1.122600 1.282495 2.460433
v 0.988620 0.993855 3.733378
v 0.699980 0.859895 2.460433
v 0.700000 0.859912 3.737919
v 0.411302 0.993855 3.733378
v 0.411321 0.993855 2.460433
v 0.277361 1.282495 2.460433
v 1.122600 2.245223 2.460433
v 0.998814 2.331255 2.876631
v 1.122600 2.245223 3.175495
v 0.998814 2.331255 2.460433
v 0.699980 2.343612 2.752895
v 0.699980 2.343613 2.460433
v 0.401147 2.331255 2.460433
v 0.401147 2.331255 2.876631
v 0.277361 2.245223 2.460433
v 0.277361 2.245223 3.175495
v 0.401147 2.331255 2.876631
v 0.401136 2.510006 2.876623
v 0.277361 2.245223 3.175495
v 0.277361 1.282495 2.460433
v 0.277361 2.245223 2.460433
v 3.582401 0.633204 2.685061
v 2.862874 2.283223 3.267927
v 3.582401 2.310389 2.685061
v 2.862874 0.633204 3.267927
v 2.447570 1.282498 3.439954
v 2.447570 2.274758 3.439948
v 2.313611 0.993855 3.495433
v 2.024967 0.633204 3.614994
v 2.024967 0.859894 3.614994
v 1.736326 0.993855 3.652995
v 1.125786 0.633204 3.733378
v 1.602365 1.282495 3.670638
v 1.602365 2.263407 3.670632
v 3.582401 2.310389 2.685061
v 4.134513 0.633204 1.891896
v 3.582401 0.633204 2.685061
v 4.134513 2.346371 1.880170
v 4.481586 0.633204 1.000963
v 4.481586 2.387023 1.000964
v 4.599966 0.633204 -0.478508
v 4.599966 2.431268 -0.478508
v 1.602365 2.416330 3.163847
v 1.602365 2.263407 3.670632
v 1.125786 2.593531 2.629095
v 1.738505 2.597501 2.548430
v 1.125786 2.880573 -0.738523
v 1.726149 2.502366 2.864984
v 2.024964 2.514728 2.741250
v 2.309589 2.609141 2.311881
v 2.323789 2.450386 2.865021
v 2.862874 2.283223 3.267927
v 2.447570 2.353307 3.163866
v 2.447570 2.274758 3.439948
v 2.796728 2.627532 1.907335
v 3.582401 2.310389 2.685061
v 3.176792 2.652303 1.330312
v 4.134513 2.346371 1.880170
v 3.413966 2.680082 0.712715
v 4.481586 2.387023 1.000964
v 3.494551 2.710201 -0.479673
v 1.726152 2.331255 2.448788
v 1.602365 1.282495 2.448788
v 1.602365 2.245223 2.448788
v 1.736326 0.993855 2.448788
v 2.024970 2.343613 2.448788
v 2.024967 0.859895 2.448788
v 2.313611 0.993855 2.448788
v 2.323792 2.279275 2.448788
v 2.447570 1.282498 2.448788
v 2.447570 2.182200 2.448788
v 1.125786 0.633204 3.733378
v 2.323789 2.450386 2.865021
v 2.447570 2.182200 3.163866
v 2.323792 2.279275 2.865021
v 2.447570 2.353307 3.163866
v 2.447570 2.274758 3.439948
v 2.447570 1.282498 3.439954
v 2.447570 2.182200 2.448788
v 2.447570 1.282498 2.448788
v 1.726152 2.331255 2.864985
v 1.602365 2.416330 3.163847
v 1.726149 2.502366 2.864984
v 1.602365 2.245223 3.163850
v 1.602365 2.263407 3.670632
v 1.602365 1.282495 3.670638
v 1.602365 1.282495 2.448788
v 1.602365 2.245223 2.448788
v 2.024970 2.343612 2.741250
v 2.323789 2.450386 2.865021
v 2.323792 2.279275 2.865021
v 2.024964 2.514728 2.741250
v 1.726152 2.331255 2.864985
v 1.726149 2.502366 2.864984
v 1.736326 0.993855 2.448788
v 1.602365 1.282495 3.670638
v 1.602365 1.282495 2.448788
v 1.736326 0.993855 3.652995
v 2.024967 0.859895 2.448788
v 2.024967 0.859894 3.614994
v 2.313611 0.993855 2.448788
v 2.313611 0.993855 3.495433
v 2.447570 1.282498 2.448788
v 2.447570 1.282498 3.439954
v 2.323792 2.279275 2.448788
v 2.447570 2.182200 3.163866
v 2.447570 2.182200 2.448788
v 2.323792 2.279275 2.865021
v 2.024970 2.343613 2.448788
v 2.024970 2.343612 2.741250
v 1.726152 2.331255 2.448788
v 1.726152 2.331255 2.864985
v 1.602365 2.245223 2.448788
v 1.602365 2.245223 3.163850
v 0.274214 0.633204 3.733375
v 0.274214 2.593531 2.629095
v 0.274214 2.880573 -0.738522
v 0.274214 0.633204 3.733375
v 2.385834 2.573594 1.355331
v 2.799257 2.782017 1.355331
v 2.385838 2.782019 1.355331
v 2.799255 2.573593 1.355331
v 2.799255 2.573593 1.915405
v 2.385839 2.782019 1.915405
v 2.799257 2.782019 1.915405
v 2.385836 2.573593 1.915407
v 2.799255 2.573593 1.915405
v 2.799257 2.782017 1.355331
v 2.799255 2.573593 1.355331
v 2.799257 2.782019 1.915405
v 2.799257 2.782019 1.915405
v 2.385838 2.782019 1.355331
v 2.799257 2.782017 1.355331
v 2.385839 2.782019 1.915405
v 2.385836 2.573593 1.915407
v 2.385838 2.782019 1.355331
v 2.385839 2.782019 1.915405
v 2.385834 2.573594 1.355331
v -2.389691 2.573594 1.355331
v -2.803113 2.782017 1.355331
v -2.803112 2.573593 1.355331
v -2.389694 2.782019 1.355331
v -2.803112 2.573593 1.915405
v -2.389695 2.782019 1.915405
v -2.389693 2.573593 1.915407
v -2.803113 2.782019 1.915405
v -2.803112 2.573593 1.915405
v -2.803113 2.782017 1.355331
v -2.803113 2.782019 1.915405
v -2.803112 2.573593 1.355331
v -2.803113 2.782019 1.915405
v -2.389694 2.782019 1.355331
v -2.389695 2.782019 1.915405
v -2.803113 2.782017 1.355331
v -2.389693 2.573593 1.915407
v -2.389694 2.782019 1.355331
v -2.389691 2.573594 1.355331
v -2.389695 2.782019 1.915405
v -1.123123 1.282494 3.733380
v -1.123654 2.261969 3.733379
v -0.988620 0.993855 3.733378
v -0.700000 0.633204 3.733378
v -0.700000 0.859912 3.737919
v -0.411302 0.993855 3.733378
v -0.276828 1.282490 3.733375
v -0.276304 2.261969 3.733375
v -0.276654 2.431338 3.176126
v -0.401136 2.510006 2.876623
v -0.700000 2.557545 2.752888
v -0.700000 2.593531 2.633640
v -0.998820 2.510004 2.876629
v -1.123300 2.431338 3.176129
v -0.700000 0.633204 3.733378
v -1.122600 1.282495 2.460433
v -0.998814 2.331255 2.460433
v -1.122600 2.245223 2.460433
v -0.988640 0.993855 2.460433
v -0.699980 2.343613 2.460433
v -0.699980 0.859895 2.460433
v -0.411321 0.993855 2.460433
v -0.401147 2.331255 2.460433
v -0.277361 1.282495 2.460433
v -0.277361 2.245223 2.460433
v -0.998814 2.331255 2.876631
v -0.998820 2.510004 2.876629
v -1.122600 2.245223 3.175495
v -1.122600 1.282495 2.460433
v -1.122600 2.245223 2.460433
v -0.998814 2.331255 2.876631
v -0.700000 2.557545 2.752888
v -0.998820 2.510004 2.876629
v -0.699980 2.343612 2.752895
v -0.401147 2.331255 2.876631
v -0.401136 2.510006 2.876623
v -0.988640 0.993855 2.460433
v -1.122600 1.282495 2.460433
v -0.988620 0.993855 3.733378
v -0.699980 0.859895 2.460433
v -0.700000 0.859912 3.737919
v -0.411302 0.993855 3.733378
v -0.411321 0.993855 2.460433
v -0.277361 1.282495 2.460433
v -1.122600 2.245223 2.460433
v -0.998814 2.331255 2.876631
v -1.122600 2.245223 3.175495
v -0.998814 2.331255 2.460433
v -0.699980 2.343612 2.752895
v -0.699980 2.343613 2.460433
v -0.401147 2.331255 2.460433
v -0.401147 2.331255 2.876631
v -0.277361 2.245223 2.460433
v -0.277360 2.245223 3.175495
v -0.401147 2.331255 2.876631
v -0.401136 2.510006 2.876623
v -0.277360 2.245223 3.175495
v -0.277361 1.282495 2.460433
v -0.277361 2.245223 2.460433
v -3.582401 0.633204 2.685061
v -2.862874 2.283223 3.267927
v -3.582401 2.310389 2.685061
v -2.862874 0.633204 3.267927
v -2.447570 1.282498 3.439954
v -2.447570 2.274758 3.439948
v -2.313611 0.993855 3.495433
v -2.024967 0.633204 3.614994
v -2.024967 0.859894 3.614994
v -1.736326 0.993855 3.652995
v -1.125786 0.633204 3.733378
v -1.602365 1.282495 3.670638
v -1.602365 2.263407 3.670632
v -3.582401 2.310389 2.685061
v -4.134513 0.633204 1.891896
v -3.582401 0.633204 2.685061
v -4.134513 2.346371 1.880170
v -4.481586 0.633204 1.000963
v -4.481586 2.387023 1.000964
v -4.599966 0.633204 -0.478508
v -4.599967 2.431268 -0.478508
v -1.602365 2.416330 3.163847
v -1.602365 2.263407 3.670632
v -1.125786 2.593531 2.629095
v -1.738505 2.597501 2.548430
v -1.125786 2.880573 -0.738523
v -1.726149 2.502366 2.864984
v -2.024964 2.514728 2.741250
v -2.309589 2.609141 2.311881
v -2.323789 2.450386 2.865021
v -2.862874 2.283223 3.267927
v -2.447570 2.353307 3.163866
v -2.447570 2.274758 3.439948
v -2.796728 2.627532 1.907335
v -3.582401 2.310389 2.685061
v -3.176792 2.652303 1.330312
v -4.134513 2.346371 1.880170
v -3.413966 2.680082 0.712715
v -4.481586 2.387023 1.000964
v -3.494551 2.710201 -0.479673
v -1.726152 2.331255 2.448788
v -1.602365 1.282495 2.448788
v -1.602365 2.245223 2.448788
v -1.736326 0.993855 2.448788
v -2.024970 2.343613 2.448788
v -2.024967 0.859895 2.448788
v -2.313611 0.993855 2.448788
v -2.323792 2.279275 2.448788
v -2.447570 1.282498 2.448788
v -2.447570 2.182200 2.448788
v -1.125786 0.633204 3.733378
v -2.323789 2.450386 2.865021
v -2.447570 2.182200 3.163866
v -2.323792 2.279275 2.865021
v -2.447570 2.353307 3.163866
v -2.447570 2.274758 3.439948
v -2.447570 1.282498 3.439954
v -2.447570 2.182200 2.448788
v -2.447570 1.282498 2.448788
v -1.726152 2.331255 2.864985
v -1.602365 2.416330 3.163847
v -1.726149 2.502366 2.864984
v -1.602365 2.245223 3.163850
v -1.602365 2.263407 3.670632
v -1.602365 1.282495 3.670638
v -1.602365 1.282495 2.448788
v -1.602365 2.245223 2.448788
v -2.024970 2.343612 2.741250
v -2.323789 2.450386 2.865021
v -2.323792 2.279275 2.865021
v -2.024964 2.514728 2.741250
v -1.726152 2.331255 2.864985
v -1.726149 2.502366 2.864984
v -1.736326 0.993855 2.448788
v -1.602365 1.282495 3.670638
v -1.602365 1.282495 2.448788
v -1.736326 0.993855 3.652995
v -2.024967 0.859895 2.448788
v -2.024967 0.859894 3.614994
v -2.313611 0.993855 2.448788
v -2.313611 0.993855 3.495433
v -2.447570 1.282498 2.448788
v -2.447570 1.282498 3.439954
v -2.323792 2.279275 2.448788
v -2.447570 2.182200 3.163866
v -2.447570 2.182200 2.448788
v -2.323792 2.279275 2.865021
v -2.024970 2.343613 2.448788
v -2.024970 2.343612 2.741250
v -1.726152 2.331255 2.448788
v -1.726152 2.331255 2.864985
v -1.602365 2.245223 2.448788
v -1.602365 2.245223 3.163850
v -0.274214 0.633204 3.733375
v -0.274214 2.593531 2.629095
v -0.274214 2.880573 -0.738522
v -0.274214 0.633204 3.733375
v 4.458218 0.633204 -2.201393
v 4.458218 2.485126 -2.201392
v 4.059318 0.633205 -3.255691
v 4.059318 2.537004 -3.255691
v 3.465218 0.633205 -4.237132
v 3.465218 2.585297 -4.237131
v 3.465218 2.585297 -4.237131
v 2.790181 0.633205 -4.883751
v 3.465218 0.633205 -4.237132
v 2.790180 2.613103 -4.883751
v 1.964306 0.633205 -5.255693
v 1.964307 2.629093 -5.255690
v 1.125786 0.633205 -5.442200
v 1.125786 2.634525 -5.442203
v 3.387573 2.750847 -1.934066
v 4.458218 2.485126 -2.201392
v 3.069412 2.792225 -2.774970
v 4.059318 2.537004 -3.255691
v 2.621462 2.828638 -3.514975
v 3.465218 2.585297 -4.237131
v 2.222622 2.845067 -3.930368
v 2.790180 2.613103 -4.883751
v 1.687702 2.855423 -4.187829
v 1.964307 2.629093 -5.255690
v 1.125786 2.859064 -4.337924
v 1.125786 2.634525 -5.442203
v 1.125786 0.633205 -5.442200
v 1.964306 0.633205 -5.255693
v 2.790181 0.633205 -4.883751
v 3.465218 0.633205 -4.237132
v 4.059318 0.633205 -3.255691
v 4.458218 0.633204 -2.201393
v 0.274214 0.633205 -5.515258
v 0.274214 2.634525 -5.515261
v 0.274214 2.859064 -4.410982
v 0.274214 2.634525 -5.515261
v 0.274214 0.633205 -5.515258
v -0.220451 2.999654 -3.459741
v 0.029888 3.118516 -3.115181
v 0.029888 2.999653 -3.115180
v -0.220451 3.118516 -3.459743
v -0.220453 2.999654 -3.885642
v -0.220453 3.118516 -3.885644
v 0.029886 2.999654 -4.230206
v 0.029886 3.118516 -4.230206
v 0.434944 3.118516 -2.983571
v 0.029888 2.999653 -3.115180
v 0.029888 3.118516 -3.115181
v 0.434944 2.999654 -2.983569
v 0.839999 3.118516 -3.115181
v 0.839999 2.999653 -3.115180
v 1.090338 3.118516 -3.459743
v 0.839999 2.999653 -3.115180
v 0.839999 3.118516 -3.115181
v 1.090338 2.999654 -3.459741
v 1.090340 3.118516 -3.885644
v 1.090340 2.999654 -3.885644
v 0.840001 3.118516 -4.230207
v 0.840001 2.999654 -4.230207
v 0.434943 3.118516 -4.361817
v 0.840001 2.999654 -4.230207
v 0.840001 3.118516 -4.230207
v 0.434943 2.999653 -4.361817
v 0.029886 3.118516 -4.230206
v 0.029886 2.999654 -4.230206
v -1.544538 2.765908 -4.090735
v -1.411431 2.999653 -3.907529
v -1.411431 2.765908 -3.907528
v -1.544538 2.999653 -4.090736
v -1.544539 2.765908 -4.317191
v -1.544539 2.999653 -4.317191
v -1.411432 2.765908 -4.500398
v -1.411432 2.999653 -4.500398
v -1.196058 2.999653 -3.837550
v -1.411431 2.765908 -3.907528
v -1.411431 2.999653 -3.907529
v -1.196058 2.765908 -3.837550
v -0.980687 2.999653 -3.907529
v -0.980687 2.765908 -3.907528
v -0.847579 2.999653 -4.090735
v -0.980687 2.765908 -3.907528
v -0.980687 2.999653 -3.907529
v -0.847579 2.765908 -4.090735
v -0.847578 2.999653 -4.317191
v -0.847578 2.765908 -4.317191
v -0.980686 2.999653 -4.500399
v -0.980686 2.765908 -4.500399
v -1.196059 2.999653 -4.570378
v -0.980686 2.765908 -4.500399
v -0.980686 2.999653 -4.500399
v -1.196059 2.765908 -4.570378
v -1.411432 2.999653 -4.500398
v -1.411432 2.765908 -4.500398
v -1.196058 2.999653 -3.837550
v -0.847579 2.999653 -4.090735
v -0.980687 2.999653 -3.907529
v -1.544538 2.999653 -4.090736
v -1.411431 2.999653 -3.907529
v -0.980686 2.999653 -4.500399
v -0.847578 2.999653 -4.317191
v -1.411432 2.999653 -4.500398
v -1.196059 2.999653 -4.570378
v -1.544539 2.999653 -4.317191
v -0.220451 3.118516 -3.459743
v -0.220453 3.118516 -3.885644
v 0.434944 3.186547 -3.672694
v 0.029888 3.118516 -3.115181
v 0.029886 3.118516 -4.230206
v 0.434944 3.118516 -2.983571
v 0.434943 3.118516 -4.361817
v 0.839999 3.118516 -3.115181
v 0.840001 3.118516 -4.230207
v 1.090338 3.118516 -3.459743
v 1.090340 3.118516 -3.885644
v -0.220453 2.999654 -3.885642
v 0.434944 2.999653 -3.672694
v 0.029886 2.999654 -4.230206
v -0.220451 2.999654 -3.459741
v 0.434943 2.999653 -4.361817
v 0.029888 2.999653 -3.115180
v 0.840001 2.999654 -4.230207
v 0.434944 2.999654 -2.983569
v 1.090340 2.999654 -3.885644
v 0.839999 2.999653 -3.115180
v 1.090338 2.999654 -3.459741
v -0.109902 2.765908 -3.495661
v 0.098211 2.999653 -3.209219
v 0.098211 2.765908 -3.209219
v -0.109902 2.999653 -3.495662
v -0.109903 2.765908 -3.849723
v -0.109903 2.999653 -3.849723
v 0.098210 2.765908 -4.136166
v 0.098210 2.999653 -4.136166
v 0.434944 2.999653 -3.099808
v 0.098211 2.765908 -3.209219
v 0.098211 2.999653 -3.209219
v 0.434944 2.765908 -3.099807
v 0.771676 2.999653 -3.209219
v 0.771676 2.765908 -3.209219
v 0.979789 2.999653 -3.495661
v 0.771676 2.765908 -3.209219
v 0.771676 2.999653 -3.209219
v 0.979789 2.765908 -3.495661
v 0.979791 2.999653 -3.849723
v 0.979791 2.765908 -3.849723
v 0.771677 2.999653 -4.136167
v 0.771677 2.765908 -4.136167
v 0.434943 2.999653 -4.245579
v 0.771677 2.765908 -4.136167
v 0.771677 2.999653 -4.136167
v 0.434943 2.765908 -4.245579
v 0.098210 2.999653 -4.136166
v 0.098210 2.765908 -4.136166
v -4.458219 0.633204 -2.201393
v -4.458218 2.485126 -2.201392
v -4.059319 0.633205 -3.255691
v -4.059319 2.537004 -3.255691
v -3.465218 0.633205 -4.237132
v -3.465218 2.585297 -4.237131
v -3.465218 2.585297 -4.237131
v -2.790181 0.633205 -4.883751
v -3.465218 0.633205 -4.237132
v -2.790180 2.613103 -4.883751
v -1.964306 0.633205 -5.255693
v -1.964307 2.629093 -5.255690
v -1.125786 0.633205 -5.442200
v -1.125786 2.634525 -5.442203
v -3.387573 2.750847 -1.934066
v -4.458218 2.485126 -2.201392
v -3.069412 2.792225 -2.774970
v -4.059319 2.537004 -3.255691
v -2.621462 2.828638 -3.514975
v -3.465218 2.585297 -4.237131
v -2.222622 2.845067 -3.930368
v -2.790180 2.613103 -4.883751
v -1.687702 2.855423 -4.187829
v -1.964307 2.629093 -5.255690
v -1.125786 2.859064 -4.337924
v -1.125786 2.634525 -5.442203
v -1.125786 0.633205 -5.442200
v -1.964306 0.633205 -5.255693
v -2.790181 0.633205 -4.883751
v -3.465218 0.633205 -4.237132
v -4.059319 0.633205 -3.255691
v -4.458219 0.633204 -2.201393
v -0.274214 0.633205 -5.515258
v -0.274214 2.634525 -5.515261
v -0.274214 2.859064 -4.410982
v -0.274214 2.634525 -5.515261
v -0.274214 0.633205 -5.515258
vn 0.0125 -0.0100 0.9999
vn 0.0075 -0.0060 1.0000
vn 0.0032 -0.0026 1.0000
vn -0.0000 0.9574 0.2889
vn 0.0327 0.9568 0.2888
vn -0.0000 0.9806 0.1963
vn -0.0327 0.9568 0.2888
vn 0.0309 0.9530 0.3014
vn -0.0000 -0.0000 1.0000
vn -0.0125 -0.0100 0.9999
vn -0.0250 -0.0200 0.9995
vn -0.9234 -0.0000 0.3838
vn -0.9235 0.0007 0.3836
vn -0.9733 0.0025 0.2293
vn -0.9963 0.0015 0.0857
vn -1.0000 0.0011 0.0019
vn -1.0000 -0.0000 0.0009
vn -1.0000 -0.0002 0.0002
vn -1.0000 -0.0000 -0.0000
vn -0.3826 -0.0000 0.9239
vn -0.3826 0.0001 0.9239
vn 0.3826 -0.0000 0.9239
vn 0.3825 -0.0000 0.9239
vn 0.3825 0.0001 0.9239
vn -0.9071 0.4210 0.0004
vn -0.9070 0.4212 0.0003
vn -0.9065 0.4222 -0.0000
vn -0.9064 0.4224 -0.0000
vn -0.4210 0.9071 -0.0000
vn 0.4209 0.9071 -0.0000
vn 0.4210 0.9071 -0.0000
vn 0.9065 0.4223 -0.0000
vn 0.9070 0.4212 0.0003
vn 0.9065 0.4221 0.0001
vn 0.9071 0.4210 0.0004
vn -0.5707 -0.8212 -0.0000
vn -0.0413 -0.9991 -0.0000
vn -0.0000 -1.0000 -0.0000
vn 0.0413 -0.9991 -0.0000
vn 0.5707 -0.8212 -0.0000
vn 0.9234 0.0001 0.3838
vn 0.9733 0.0025 0.2293
vn 0.9235 0.0007 0.3836
vn 0.9963 0.0015 0.0857
vn 1.0000 0.0011 0.0019
vn 1.0000 -0.0000 0.0009
vn 1.0000 -0.0002 0.0002
vn 1.0000 -0.0000 -0.0000
vn 0.6295 -0.0000 0.7770
vn 0.5133 -0.0000 0.8582
vn 0.5114 -0.0000 0.8594
vn 0.3827 -0.0000 0.9239
vn 0.2588 -0.0000 0.9659
vn 0.2580 -0.0000 0.9661
vn 0.1305 -0.0000 0.9914
vn 0.0436 -0.0000 0.9991
vn 0.1301 0.0001 0.9915
vn 0.1299 0.0001 0.9915
vn 0.1139 0.0001 0.9935
vn 0.1300 -0.0000 0.9915
vn 0.8207 -0.0000 0.5713
vn 0.8828 0.0019 0.4698
vn 0.8233 0.0026 0.5676
vn 0.8848 0.0023 0.4659
vn 0.9745 0.0009 0.2245
vn 0.9749 -0.0000 0.2226
vn 1.0000 -0.0000 -0.0011
vn 1.0000 -0.0000 -0.0027
vn 0.0350 0.9568 0.2887
vn 0.0352 0.9570 0.2881
vn 0.0361 0.9569 0.2881
vn 0.0057 0.9804 0.1972
vn 0.0248 0.9576 0.2871
vn 0.0392 0.9803 0.1935
vn 0.0240 0.9990 0.0376
vn 0.0463 0.9562 0.2892
vn 0.0901 0.9567 0.2769
vn 0.0787 0.9812 0.1763
vn 0.0933 0.9576 0.2724
vn 0.1243 0.9591 0.2542
vn 0.0933 0.9576 0.2725
vn 0.1162 0.9822 0.1475
vn 0.1792 0.9613 0.2092
vn 0.1382 0.9837 0.1150
vn 0.2158 0.9634 0.1588
vn 0.1585 0.9849 0.0703
vn 0.2387 0.9668 0.0913
vn 0.1623 0.9864 0.0270
vn 0.2442 0.9693 0.0292
vn -0.9239 -0.0000 0.3827
vn -0.9966 -0.0000 0.0828
vn -0.9732 -0.0000 0.2301
vn 0.9239 -0.0000 0.3827
vn 0.9733 -0.0000 0.2296
vn 0.9964 -0.0000 0.0844
vn -0.3827 -0.0000 0.9239
vn 0.9071 0.4210 -0.0000
vn -0.9071 0.4210 -0.0000
vn -0.6171 -0.7869 -0.0000
vn -0.4246 -0.9054 -0.0000
vn -0.5026 -0.8645 -0.0000
vn -0.0853 -0.9964 -0.0000
vn -0.0850 -0.9964 -0.0000
vn 0.0047 0.9814 0.1919
vn 0.0085 0.9579 0.2871
vn 0.0368 0.9524 0.3025
vn 0.0034 0.9470 0.3213
vn -0.0444 0.9533 0.2989
vn -0.0000 0.9992 0.0395
vn -0.0000 -0.0000 -1.0000
vn -0.0000 1.0000 -0.0000
vn 0.0250 0.0200 -0.9995
vn 0.0075 0.0060 -1.0000
vn 0.0032 0.0026 -1.0000
vn -0.0000 -0.9574 -0.2889
vn 0.0327 -0.9568 -0.2888
vn -0.0000 -0.9806 -0.1963
vn -0.0327 -0.9568 -0.2888
vn 0.0309 -0.9530 -0.3014
vn -0.0250 0.0200 -0.9995
vn -0.9234 -0.0000 -0.3838
vn -0.9235 -0.0007 -0.3836
vn -0.9733 -0.0025 -0.2293
vn -0.9963 -0.0015 -0.0857
vn -1.0000 -0.0011 -0.0019
vn -1.0000 -0.0000 -0.0009
vn -1.0000 0.0002 -0.0002
vn -0.3826 -0.0000 -0.9239
vn -0.3826 -0.0001 -0.9239
vn 0.3826 -0.0000 -0.9239
vn 0.3825 -0.0000 -0.9239
vn 0.3825 -0.0001 -0.9239
vn -0.9071 -0.4210 -0.0004
vn -0.9070 -0.4212 -0.0003
vn -0.9065 -0.4222 -0.0000
vn -0.9064 -0.4224 -0.0000
vn -0.4210 -0.9071 -0.0000
vn 0.4209 -0.9071 -0.0000
vn 0.4210 -0.9071 -0.0000
vn 0.9065 -0.4223 -0.0000
vn 0.9070 -0.4212 -0.0003
vn 0.9065 -0.4221 -0.0001
vn 0.9071 -0.4210 -0.0004
vn -0.5707 0.8212 -0.0000
vn -0.0413 0.9991 -0.0000
vn 0.0413 0.9991 -0.0000
vn 0.5707 0.8212 -0.0000
vn 0.9234 -0.0001 -0.3838
vn 0.9733 -0.0025 -0.2293
vn 0.9235 -0.0007 -0.3836
vn 0.9963 -0.0015 -0.0857
vn 1.0000 -0.0011 -0.0019
vn 1.0000 -0.0000 -0.0009
vn 1.0000 0.0002 -0.0002
vn 0.6295 -0.0000 -0.7770
vn 0.5133 -0.0000 -0.8582
vn 0.5114 -0.0000 -0.8594
vn 0.3827 -0.0000 -0.9239
vn 0.2588 -0.0000 -0.9659
vn 0.2580 -0.0000 -0.9661
vn 0.1305 -0.0000 -0.9914
vn 0.0436 -0.0000 -0.9991
vn 0.1301 -0.0001 -0.9915
vn 0.1299 -0.0001 -0.9915
vn 0.1139 -0.0001 -0.9935
vn 0.1300 -0.0000 -0.9915
vn 0.8207 -0.0000 -0.5713
vn 0.8828 -0.0019 -0.4698
vn 0.8233 -0.0026 -0.5676
vn 0.8848 -0.0023 -0.4659
vn 0.9745 -0.0009 -0.2245
vn 0.9749 -0.0000 -0.2226
vn 1.0000 -0.0000 0.0011
vn 1.0000 -0.0000 0.0027
vn 0.0350 -0.9568 -0.2887
vn 0.0352 -0.9570 -0.2881
vn 0.0361 -0.9569 -0.2881
vn 0.0057 -0.9804 -0.1972
vn 0.0248 -0.9576 -0.2871
vn 0.0392 -0.9803 -0.1935
vn 0.0240 -0.9990 -0.0376
vn 0.0463 -0.9562 -0.2892
vn 0.0901 -0.9567 -0.2769
vn 0.0787 -0.9812 -0.1763
vn 0.0933 -0.9576 -0.2724
vn 0.1243 -0.9591 -0.2542
vn 0.0933 -0.9576 -0.2725
vn 0.1162 -0.9822 -0.1475
vn 0.1792 -0.9613 -0.2092
vn 0.1382 -0.9837 -0.1150
vn 0.2158 -0.9634 -0.1588
vn 0.1585 -0.9849 -0.0703
vn 0.2387 -0.9668 -0.0913
vn 0.1623 -0.9864 -0.0270
vn 0.2442 -0.9693 -0.0292
vn -0.9239 -0.0000 -0.3827
vn -0.9966 -0.0000 -0.0828
vn -0.9732 -0.0000 -0.2301
vn 0.9239 -0.0000 -0.3827
vn 0.9733 -0.0000 -0.2296
vn 0.9964 -0.0000 -0.0844
vn -0.3827 -0.0000 -0.9239
vn 0.9071 -0.4210 -0.0000
vn -0.9071 -0.4210 -0.0000
vn -0.6171 0.7869 -0.0000
vn -0.4246 0.9054 -0.0000
vn -0.5026 0.8645 -0.0000
vn -0.0853 0.9964 -0.0000
vn -0.0850 0.9964 -0.0000
vn 0.0094 -0.9801 -0.1982
vn 0.0770 -0.9560 -0.2831
vn 0.0368 -0.9524 -0.3025
vn 0.0034 -0.9470 -0.3213
vn -0.0444 -0.9533 -0.2989
vn 0.0001 -0.9992 -0.0395
vn -0.0000 0.9992 0.0396
vn -0.0000 0.9826 0.1857
vn -0.0000 0.9578 0.2875
vn -0.0000 0.9568 0.2908
vn 0.9755 -0.0000 -0.2201
vn 0.9747 -0.0000 -0.2234
vn 0.8991 -0.0000 -0.4377
vn 0.8980 -0.0000 -0.4400
vn 0.8555 -0.0000 -0.5178
vn 0.6917 -0.0000 -0.7221
vn 0.5593 -0.0000 -0.8290
vn 0.5571 -0.0000 -0.8304
vn 0.3155 -0.0000 -0.9489
vn 0.3148 -0.0000 -0.9492
vn 0.1516 -0.0000 -0.9884
vn 0.1515 -0.0000 -0.9885
vn 0.1618 0.9868 0.0024
vn 0.2373 0.9713 -0.0149
vn 0.1475 0.9888 -0.0239
vn 0.2218 0.9732 -0.0599
vn 0.1251 0.9907 -0.0525
vn 0.1914 0.9756 -0.1073
vn 0.0905 0.9922 -0.0859
vn 0.1349 0.9781 -0.1588
vn 0.0498 0.9937 -0.1009
vn 0.0757 0.9789 -0.1896
vn 0.0219 0.9940 -0.1073
vn 0.0322 0.9794 -0.1992
vn 0.0046 0.9944 -0.1057
vn 0.0083 0.9799 -0.1993
vn 0.0855 -0.0000 -0.9963
vn -0.8090 -0.0000 0.5878
vn -0.8090 -0.0000 -0.5878
vn -0.3090 -0.0000 0.9511
vn 0.3090 -0.0000 0.9511
vn 0.8090 -0.0000 0.5878
vn 0.8090 -0.0000 -0.5878
vn 0.3090 -0.0000 -0.9511
vn -0.3090 -0.0000 -0.9511
vn -0.0934 0.9952 -0.0304
vn -0.0934 0.9952 0.0304
vn -0.0577 0.9952 0.0795
vn -0.0577 0.9952 -0.0795
vn -0.0000 0.9952 0.0982
vn -0.0000 0.9952 -0.0982
vn 0.0577 0.9952 0.0795
vn 0.0577 0.9952 -0.0795
vn 0.0934 0.9952 0.0304
vn 0.0934 0.9952 -0.0304
vn 0.9755 -0.0000 0.2201
vn 0.9747 -0.0000 0.2234
vn 0.8991 -0.0000 0.4377
vn 0.8980 -0.0000 0.4400
vn 0.8555 -0.0000 0.5178
vn 0.6917 -0.0000 0.7221
vn 0.5593 -0.0000 0.8290
vn 0.5571 -0.0000 0.8304
vn 0.3155 -0.0000 0.9489
vn 0.3148 -0.0000 0.9492
vn 0.1516 -0.0000 0.9884
vn 0.1515 -0.0000 0.9885
vn 0.1618 -0.9868 -0.0024
vn 0.2373 -0.9713 0.0149
vn 0.1475 -0.9888 0.0239
vn 0.2218 -0.9732 0.0599
vn 0.1251 -0.9907 0.0525
vn 0.1914 -0.9756 0.1073
vn 0.0905 -0.9922 0.0859
vn 0.1349 -0.9781 0.1588
vn 0.0498 -0.9937 0.1009
vn 0.0757 -0.9789 0.1896
vn 0.0219 -0.9940 0.1073
vn 0.0322 -0.9794 0.1992
vn 0.0092 -0.9941 0.1083
vn 0.0171 -0.9798 0.1992
vn 0.0855 -0.0000 0.9963
vn -0.0000 0.9799 -0.1993
vn -0.0000 0.9947 -0.1030
vt 0.500168 0.571692
vt 0.500168 0.565709
vt 0.503383 0.575226
vt 0.500168 0.408246
vt 0.503496 0.407074
vt 0.500168 0.409376
vt 0.000000 0.000000
vt 0.496839 0.615235
vt 0.500168 0.616489
vt 0.496952 0.399272
vt 0.500168 0.398912
vt 0.504875 0.608248
vt 0.503496 0.610518
vt 0.504875 0.582843
vt 0.503383 0.575226
vt 0.500167 0.610844
vt 0.500167 0.571691
vt 0.496952 0.575226
vt 0.496839 0.610518
vt 0.495460 0.582843
vt 0.495460 0.608248
vt 0.592926 0.615235
vt 0.592926 0.610518
vt 0.595758 0.612763
vt 0.595758 0.608248
vt 0.600561 0.608706
vt 0.600561 0.582843
vt 0.588982 0.582843
vt 0.588982 0.608248
vt 0.503496 0.615235
vt 0.503496 0.610518
vt 0.496839 0.610518
vt 0.504875 0.411018
vt 0.503383 0.411018
vt 0.504875 0.399439
vt 0.503383 0.399272
vt 0.500167 0.411018
vt 0.496952 0.411018
vt 0.495460 0.399439
vt 0.495460 0.411018
vt 0.495125 0.404242
vt 0.496504 0.407074
vt 0.495125 0.411018
vt 0.496504 0.411018
vt 0.499833 0.408246
vt 0.499833 0.411018
vt 0.503161 0.411018
vt 0.503161 0.407074
vt 0.504540 0.411018
vt 0.504540 0.404242
vt 0.407074 0.615235
vt 0.404242 0.612763
vt 0.407074 0.610518
vt 0.404242 0.608248
vt 0.399439 0.608706
vt 0.399439 0.582843
vt 0.411018 0.582843
vt 0.411018 0.608248
vt 0.527532 0.609967
vt 0.519517 0.609250
vt 0.527532 0.565709
vt 0.519517 0.565709
vt 0.514891 0.582843
vt 0.514891 0.609027
vt 0.513399 0.575226
vt 0.510184 0.565709
vt 0.510184 0.571691
vt 0.506969 0.575226
vt 0.500168 0.565709
vt 0.505476 0.582843
vt 0.500168 0.608646
vt 0.500168 0.587178
vt 0.505476 0.608727
vt 0.598074 0.565709
vt 0.604892 0.565709
vt 0.598074 0.609967
vt 0.605003 0.610917
vt 0.612832 0.565709
vt 0.612832 0.611989
vt 0.621353 0.565709
vt 0.621353 0.613157
vt 0.505476 0.589026
vt 0.505476 0.593828
vt 0.500168 0.588432
vt 0.500168 0.598896
vt 0.500168 0.593664
vt 0.506993 0.599660
vt 0.500168 0.623817
vt 0.506855 0.596660
vt 0.510184 0.597833
vt 0.513354 0.601902
vt 0.513512 0.596660
vt 0.519517 0.592842
vt 0.514891 0.593828
vt 0.514891 0.591212
vt 0.518780 0.605444
vt 0.527532 0.598074
vt 0.523014 0.610214
vt 0.533682 0.605003
vt 0.525656 0.615564
vt 0.537548 0.612832
vt 0.526553 0.621364
vt 0.538866 0.621353
vt 0.505476 0.608248
vt 0.506855 0.610518
vt 0.510184 0.610844
vt 0.513512 0.609146
vt 0.514891 0.606585
vt 0.403340 0.609146
vt 0.406172 0.606585
vt 0.403340 0.613661
vt 0.406172 0.611100
vt 0.408788 0.609027
vt 0.408788 0.582843
vt 0.399396 0.606585
vt 0.399396 0.582843
vt 0.596660 0.615033
vt 0.593828 0.612763
vt 0.596660 0.610518
vt 0.593828 0.608248
vt 0.589026 0.608727
vt 0.589026 0.582843
vt 0.600604 0.582843
vt 0.600604 0.608248
vt 0.513512 0.609146
vt 0.513512 0.613661
vt 0.510184 0.615359
vt 0.506855 0.610518
vt 0.506855 0.615033
vt 0.505476 0.600604
vt 0.505476 0.589026
vt 0.506969 0.600604
vt 0.506969 0.589193
vt 0.510184 0.600604
vt 0.510184 0.589553
vt 0.513399 0.600604
vt 0.513399 0.590686
vt 0.514891 0.600604
vt 0.514891 0.591212
vt 0.485109 0.600604
vt 0.485109 0.593828
vt 0.486488 0.600604
vt 0.486488 0.596660
vt 0.489816 0.600604
vt 0.489816 0.597833
vt 0.493145 0.600604
vt 0.493145 0.596660
vt 0.494524 0.600604
vt 0.494524 0.593828
vt 0.488300 0.622682
vt 0.483695 0.622682
vt 0.488300 0.617182
vt 0.483695 0.617182
vt 0.516305 0.622682
vt 0.511700 0.622682
vt 0.516305 0.617182
vt 0.511700 0.617182
vt 0.610674 0.617182
vt 0.610674 0.622682
vt 0.605367 0.617182
vt 0.605367 0.622682
vt 0.516305 0.610674
vt 0.511700 0.610674
vt 0.516305 0.605367
vt 0.511700 0.605367
vt 0.394633 0.622682
vt 0.389326 0.622682
vt 0.394633 0.617182
vt 0.389326 0.617182
vt 0.516305 0.617182
vt 0.516305 0.622682
vt 0.511700 0.617182
vt 0.511700 0.622682
vt 0.488300 0.617182
vt 0.488300 0.622682
vt 0.483695 0.617182
vt 0.483695 0.622682
vt 0.488300 0.605367
vt 0.488300 0.610674
vt 0.483695 0.605367
vt 0.483695 0.610674
vt 0.610674 0.622682
vt 0.631725 0.565709
vt 0.631725 0.614578
vt 0.641715 0.565709
vt 0.641715 0.615947
vt 0.651015 0.565709
vt 0.651015 0.617222
vt 0.473773 0.565709
vt 0.481293 0.565709
vt 0.473773 0.617222
vt 0.481293 0.617955
vt 0.490492 0.565709
vt 0.490492 0.618377
vt 0.499832 0.565709
vt 0.499832 0.618521
vt 0.525362 0.629191
vt 0.537287 0.631725
vt 0.521818 0.637160
vt 0.532844 0.641715
vt 0.516828 0.644172
vt 0.526227 0.651015
vt 0.512385 0.647336
vt 0.518707 0.656370
vt 0.506427 0.649331
vt 0.509508 0.659450
vt 0.500168 0.650032
vt 0.500168 0.660496
vt 0.362247 0.628425
vt 0.362247 0.631562
vt 0.358982 0.628425
vt 0.358982 0.631562
vt 0.354946 0.628425
vt 0.354946 0.631562
vt 0.351681 0.628425
vt 0.351681 0.631562
vt 0.495488 0.631562
vt 0.495488 0.628425
vt 0.500000 0.631562
vt 0.500000 0.628425
vt 0.504512 0.631562
vt 0.504512 0.628425
vt 0.637753 0.631562
vt 0.637753 0.628425
vt 0.641018 0.631562
vt 0.641018 0.628425
vt 0.645054 0.631562
vt 0.645054 0.628425
vt 0.648319 0.631562
vt 0.648319 0.628425
vt 0.495488 0.631562
vt 0.495488 0.628425
vt 0.500000 0.631562
vt 0.500000 0.628425
vt 0.504512 0.631562
vt 0.504512 0.628425
vt 0.354047 0.622257
vt 0.354047 0.628425
vt 0.352311 0.622257
vt 0.352311 0.628425
vt 0.350165 0.622257
vt 0.350165 0.628425
vt 0.348429 0.622257
vt 0.348429 0.628425
vt 0.479434 0.628425
vt 0.479434 0.622257
vt 0.481833 0.628425
vt 0.481833 0.622257
vt 0.484232 0.628425
vt 0.484232 0.622257
vt 0.645953 0.628425
vt 0.645953 0.622257
vt 0.647689 0.628425
vt 0.647689 0.622257
vt 0.649835 0.628425
vt 0.649835 0.622257
vt 0.651571 0.628425
vt 0.651571 0.622257
vt 0.515768 0.628425
vt 0.515768 0.622257
vt 0.518167 0.628425
vt 0.518167 0.622257
vt 0.520566 0.628425
vt 0.520566 0.622257
vt 0.484232 0.645953
vt 0.485714 0.647689
vt 0.481833 0.645290
vt 0.477951 0.647689
vt 0.479434 0.645953
vt 0.484232 0.651571
vt 0.485714 0.649835
vt 0.479434 0.651571
vt 0.481833 0.652234
vt 0.477951 0.649835
vt 0.500000 0.643036
vt 0.492700 0.645054
vt 0.492700 0.641018
vt 0.495488 0.637753
vt 0.495488 0.648319
vt 0.500000 0.636505
vt 0.500000 0.649566
vt 0.504512 0.637753
vt 0.504512 0.648319
vt 0.507300 0.641018
vt 0.507300 0.645054
vt 0.504512 0.648319
vt 0.500000 0.643036
vt 0.507300 0.645054
vt 0.507300 0.641018
vt 0.500000 0.649566
vt 0.504512 0.637753
vt 0.495488 0.648319
vt 0.500000 0.636505
vt 0.492700 0.645054
vt 0.495488 0.637753
vt 0.492700 0.641018
vt 0.361356 0.622257
vt 0.361356 0.628425
vt 0.358642 0.622257
vt 0.358642 0.628425
vt 0.355287 0.622257
vt 0.355287 0.628425
vt 0.352573 0.622257
vt 0.352573 0.628425
vt 0.496249 0.628425
vt 0.496249 0.622257
vt 0.500000 0.622257
vt 0.503751 0.628425
vt 0.503751 0.622257
vt 0.638644 0.628425
vt 0.638644 0.622257
vt 0.641358 0.628425
vt 0.641358 0.622257
vt 0.644713 0.628425
vt 0.644713 0.622257
vt 0.647427 0.628425
vt 0.647427 0.622257
vt 0.496249 0.628425
vt 0.496249 0.622257
vt 0.500000 0.622257
vt 0.503751 0.628425
vt 0.503751 0.622257
s 1
f 5/1/1 4/2/2 3/3/3
f 11/4/4 13/5/5 12/6/6
f 10/7/7 11/4/4 12/6/6 36/8/8 32/9/7
f 4/2/2 5/1/1 6/7/9 42/10/9 41/11/9
f 6/7/10 4/7/10 15/7/11 5/7/11 41/11/11 42/10/11
f 18/12/9 17/13/9 16/14/9
f 19/15/9 16/14/9 17/13/9
f 17/13/9 20/16/9 19/15/9
f 21/17/9 19/15/9 20/16/9
f 21/17/9 20/16/9 22/18/9
f 23/19/9 22/18/9 20/16/9
f 22/18/9 23/19/9 24/20/9
f 25/21/9 24/20/9 23/19/9
f 27/22/12 26/23/13 14/24/14
f 28/25/15 14/24/14 26/23/13
f 14/24/14 28/25/15 2/26/16
f 28/25/15 1/27/17 2/26/16
f 1/27/17 28/25/15 29/28/18
f 30/29/19 29/28/18 28/25/15
f 33/30/20 32/9/21 31/31/20
f 34/16/21 31/31/20 32/9/21
f 34/16/22 32/9/22 35/32/23
f 36/8/24 35/32/23 32/9/22
f 38/33/25 37/34/26 1/35/27
f 39/36/28 1/35/27 37/34/26
f 37/34/29 40/37/29 39/36/29
f 41/11/29 39/36/29 40/37/29
f 41/11/30 40/37/30 42/10/30
f 43/38/31 42/10/30 40/37/30
f 42/10/32 43/38/33 7/39/34
f 44/40/35 7/39/34 43/38/33
f 47/41/36 46/42/36 45/43/36
f 48/44/36 45/43/36 46/42/36
f 46/42/37 49/45/38 48/44/37
f 50/46/38 48/44/37 49/45/38
f 50/46/38 49/45/38 51/47/39
f 52/48/39 51/47/39 49/45/38
f 51/47/40 52/48/40 53/49/40
f 54/50/40 53/49/40 52/48/40
f 56/51/41 9/52/42 55/53/43
f 57/54/44 55/53/43 9/52/42
f 57/54/44 9/52/42 8/55/45
f 7/56/46 57/54/44 8/55/45
f 7/56/46 58/57/47 57/54/44
f 59/58/48 57/54/44 58/57/47
f 62/59/49 61/60/50 60/61/49
f 63/62/51 60/61/49 61/60/50
f 63/62/51 61/60/50 64/63/52
f 65/64/52 64/63/52 61/60/50
f 63/62/51 64/63/52 66/65/52
f 63/62/51 66/65/52 67/66/53
f 68/67/54 67/66/53 66/65/52
f 68/67/54 69/68/55 67/66/53
f 70/69/56 67/66/53 69/68/55
f 70/69/56 69/68/55 71/70/57
f 70/69/56 71/70/57 2/71/58 1/72/59
f 72/73/60 2/71/58 71/70/57
f 75/74/61 74/75/62 73/76/63
f 76/77/64 73/76/63 74/75/62
f 74/75/62 77/78/65 76/77/64
f 78/79/66 76/77/64 77/78/65
f 77/78/65 79/80/67 78/79/66
f 80/81/68 78/79/66 79/80/67
f 82/82/69 81/83/70 2/84/71
f 83/85/72 14/86/73 2/84/71 81/83/70
f 83/85/72 81/83/70 84/87/74
f 84/87/74 85/88/75 83/85/72
f 86/89/76 84/87/74 81/83/70
f 86/89/76 87/90/77 84/87/74
f 84/87/74 87/90/77 88/91/78
f 88/91/78 85/88/75 84/87/74
f 89/92/79 88/91/78 87/90/77
f 88/91/78 89/92/79 90/93/80
f 91/94/79 90/93/80 89/92/79
f 90/93/80 91/94/79 92/95/81
f 88/91/78 90/93/80 93/96/82
f 93/96/82 85/88/75 88/91/78
f 94/97/83 93/96/82 90/93/80
f 93/96/82 94/97/83 95/98/84
f 95/98/84 85/88/75 93/96/82
f 96/99/85 95/98/84 94/97/83
f 97/100/86 85/88/75 95/98/84
f 95/98/84 96/99/85 97/100/86
f 98/101/87 97/100/86 96/99/85
f 99/102/88 85/88/75 97/100/86
f 97/100/86 98/101/87 99/102/88
f 80/103/89 99/102/88 98/101/87
f 102/104/9 101/70/9 100/105/9
f 103/68/9 100/105/9 101/70/9
f 100/105/9 103/68/9 104/106/9
f 105/67/9 104/106/9 103/68/9
f 105/67/9 106/65/9 104/106/9
f 107/107/9 104/106/9 106/65/9
f 106/65/9 108/63/9 107/107/9
f 109/108/9 107/107/9 108/63/9
f 113/109/90 112/110/91 111/111/90
f 114/112/92 111/111/90 112/110/91
f 114/112/92 112/110/91 115/113/19
f 115/113/19 112/110/91 116/114/19
f 112/110/91 117/115/19 116/114/19
f 118/116/19 116/114/19 117/115/19
f 121/117/93 120/118/94 119/119/93
f 122/120/95 119/119/93 120/118/94
f 122/120/95 120/118/94 123/121/48
f 124/122/48 122/120/95 123/121/48
f 124/122/48 125/123/48 122/120/95
f 126/124/48 122/120/95 125/123/48
f 129/125/96 128/126/96 127/106/96
f 130/127/96 127/106/96 128/126/96
f 127/106/22 130/127/22 131/128/22
f 132/129/22 131/128/22 130/127/22
f 135/130/97 134/131/97 133/132/97
f 136/133/97 133/132/97 134/131/97
f 133/132/31 136/133/31 137/134/31
f 138/135/31 137/134/31 136/133/31
f 137/134/29 138/135/29 139/136/29
f 140/137/29 139/136/29 138/135/29
f 139/136/98 140/137/98 141/138/98
f 142/139/98 141/138/98 140/137/98
f 145/140/99 144/141/99 143/142/100
f 146/143/101 143/142/100 144/141/99
f 143/142/100 146/143/101 147/144/102
f 148/145/103 147/144/102 146/143/101
f 147/144/102 148/145/103 149/146/39
f 150/147/39 149/146/39 148/145/103
f 149/146/40 150/147/40 151/148/40
f 152/149/40 151/148/40 150/147/40
f 1/72/59 3/7/3 39/7/9 110/7/9 70/69/56
f 3/7/3 4/7/2 15/7/9 70/69/56 110/7/9 39/7/9
f 42/7/9 15/7/9 4/7/10 6/7/10
f 153/7/9 15/7/9 4/7/9 42/10/9 6/7/9 156/7/9
f 7/72/9 153/69/9 156/7/9 6/7/9
f 154/85/104 9/86/105 36/7/8 56/7/106 10/7/106
f 12/6/6 154/85/104 10/7/106 56/7/106 36/7/8
f 83/7/72 12/7/6 27/7/107 33/7/107 13/7/108
f 14/86/73 83/85/72 13/7/108
f 13/7/9 33/7/9 27/7/9 14/24/9
f 85/7/75 155/7/109 12/7/6
f 12/7/6 83/85/72 85/7/75
f 154/85/104 12/7/6 155/88/109
f 79/80/38 77/78/38 384/7/38
f 77/78/38 74/75/38 383/7/38 384/7/38
f 159/150/110 158/151/110 157/152/110
f 160/153/110 157/152/110 158/151/110
f 163/154/9 162/155/9 161/156/9
f 164/157/9 161/156/9 162/155/9
f 167/158/48 166/159/48 165/160/48
f 168/161/48 165/160/48 166/159/48
f 171/162/111 170/163/111 169/164/111
f 172/165/111 169/164/111 170/163/111
f 175/166/19 174/167/19 173/168/19
f 176/169/19 173/168/19 174/167/19
f 179/170/110 178/171/110 177/172/110
f 180/173/110 177/172/110 178/171/110
f 183/174/9 182/175/9 181/176/9
f 184/177/9 181/176/9 182/175/9
f 187/166/19 186/167/19 185/168/19
f 188/169/19 185/168/19 186/167/19
f 191/178/111 190/179/111 189/180/111
f 192/181/111 189/180/111 190/179/111
f 195/158/48 194/182/48 193/160/48
f 196/161/48 193/160/48 194/182/48
f 201/1/112 200/2/113 199/3/114
f 207/4/115 209/5/116 208/6/117
f 206/7/118 207/4/115 208/6/117 232/8/119 228/9/118
f 200/2/9 201/1/9 202/7/9 238/10/9 237/11/9
f 202/7/120 200/7/120 211/7/120 201/7/120 237/11/120 238/10/120
f 214/12/110 213/13/110 212/14/110
f 215/15/110 212/14/110 213/13/110
f 213/13/110 216/16/110 215/15/110
f 217/17/110 215/15/110 216/16/110
f 217/17/110 216/16/110 218/18/110
f 219/19/110 218/18/110 216/16/110
f 218/18/110 219/19/110 220/20/110
f 221/21/110 220/20/110 219/19/110
f 223/22/121 222/23/122 210/24/123
f 224/25/124 210/24/123 222/23/122
f 210/24/123 224/25/124 198/26/125
f 224/25/124 197/27/126 198/26/125
f 197/27/126 224/25/124 225/28/127
f 226/29/19 225/28/127 224/25/124
f 229/30/128 228/9/129 227/31/128
f 230/16/129 227/31/128 228/9/129
f 230/16/130 228/9/130 231/32/131
f 232/8/132 231/32/131 228/9/130
f 234/33/133 233/34/134 197/35/135
f 235/36/136 197/35/135 233/34/134
f 233/34/137 236/37/137 235/36/137
f 237/11/137 235/36/137 236/37/137
f 237/11/138 236/37/138 238/10/138
f 239/38/139 238/10/138 236/37/138
f 238/10/140 239/38/141 203/39/142
f 240/40/143 203/39/142 239/38/141
f 243/41/144 242/42/144 241/43/144
f 244/44/144 241/43/144 242/42/144
f 242/42/145 245/45/111 244/44/145
f 246/46/111 244/44/145 245/45/111
f 246/46/111 245/45/111 247/47/146
f 248/48/146 247/47/146 245/45/111
f 247/47/147 248/48/147 249/49/147
f 250/50/147 249/49/147 248/48/147
f 252/51/148 205/52/149 251/53/150
f 253/54/151 251/53/150 205/52/149
f 253/54/151 205/52/149 204/55/152
f 203/56/153 253/54/151 204/55/152
f 203/56/153 254/57/154 253/54/151
f 255/58/48 253/54/151 254/57/154
f 258/59/155 257/60/156 256/61/155
f 259/62/157 256/61/155 257/60/156
f 259/62/157 257/60/156 260/63/158
f 261/64/158 260/63/158 257/60/156
f 259/62/157 260/63/158 262/65/158
f 259/62/157 262/65/158 263/66/159
f 264/67/160 263/66/159 262/65/158
f 264/67/160 265/68/161 263/66/159
f 266/69/162 263/66/159 265/68/161
f 266/69/162 265/68/161 267/70/163
f 266/69/162 267/70/163 198/71/164 197/72/165
f 268/73/166 198/71/164 267/70/163
f 271/74/167 270/75/168 269/76/169
f 272/77/170 269/76/169 270/75/168
f 270/75/168 273/78/171 272/77/170
f 274/79/172 272/77/170 273/78/171
f 273/78/171 275/80/173 274/79/172
f 276/81/174 274/79/172 275/80/173
f 278/82/175 277/83/176 198/84/177
f 279/85/178 210/86/179 198/84/177 277/83/176
f 279/85/178 277/83/176 280/87/180
f 280/87/180 281/88/181 279/85/178
f 282/89/182 280/87/180 277/83/176
f 282/89/182 283/90/183 280/87/180
f 280/87/180 283/90/183 284/91/184
f 284/91/184 281/88/181 280/87/180
f 285/92/185 284/91/184 283/90/183
f 284/91/184 285/92/185 286/93/186
f 287/94/185 286/93/186 285/92/185
f 286/93/186 287/94/185 288/95/187
f 284/91/184 286/93/186 289/96/188
f 289/96/188 281/88/181 284/91/184
f 290/97/189 289/96/188 286/93/186
f 289/96/188 290/97/189 291/98/190
f 291/98/190 281/88/181 289/96/188
f 292/99/191 291/98/190 290/97/189
f 293/100/192 281/88/181 291/98/190
f 291/98/190 292/99/191 293/100/192
f 294/101/193 293/100/192 292/99/191
f 295/102/194 281/88/181 293/100/192
f 293/100/192 294/101/193 295/102/194
f 276/103/195 295/102/194 294/101/193
f 298/104/110 297/70/110 296/105/110
f 299/68/110 296/105/110 297/70/110
f 296/105/110 299/68/110 300/106/110
f 301/67/110 300/106/110 299/68/110
f 301/67/110 302/65/110 300/106/110
f 303/107/110 300/106/110 302/65/110
f 302/65/110 304/63/110 303/107/110
f 305/108/110 303/107/110 304/63/110
f 74/75/38 75/7/38 382/7/38 383/7/38
f 382/7/38 75/7/38 63/62/38 381/7/38
f 63/62/38 67/7/38 380/7/38 381/7/38
f 380/7/38 67/7/38 110/7/38 379/7/38
f 275/80/111 273/78/111 537/7/111
f 273/78/111 270/75/111 536/7/111 537/7/111
f 270/75/111 271/7/111 535/7/111 536/7/111
f 535/7/111 271/7/111 259/62/111 534/7/111
f 259/62/111 263/7/111 533/7/111 534/7/111
f 263/7/38 533/7/38 532/7/38 306/7/38
f 532/7/38 211/7/38 306/7/38
f 309/109/196 308/110/197 307/111/196
f 310/112/198 307/111/196 308/110/197
f 310/112/198 308/110/197 311/113/19
f 311/113/19 308/110/197 312/114/19
f 308/110/197 313/115/19 312/114/19
f 314/116/19 312/114/19 313/115/19
f 317/117/199 316/118/200 315/119/199
f 318/120/201 315/119/199 316/118/200
f 318/120/201 316/118/200 319/121/48
f 320/122/48 318/120/201 319/121/48
f 320/122/48 321/123/48 318/120/201
f 322/124/48 318/120/201 321/123/48
f 325/125/202 324/126/202 323/106/202
f 326/127/202 323/106/202 324/126/202
f 323/106/130 326/127/130 327/128/130
f 328/129/130 327/128/130 326/127/130
f 331/130/203 330/131/203 329/132/203
f 332/133/203 329/132/203 330/131/203
f 329/132/139 332/133/139 333/134/139
f 334/135/139 333/134/139 332/133/139
f 333/134/137 334/135/137 335/136/137
f 336/137/137 335/136/137 334/135/137
f 335/136/204 336/137/204 337/138/204
f 338/139/204 337/138/204 336/137/204
f 341/140/205 340/141/205 339/142/206
f 342/143/207 339/142/206 340/141/205
f 339/142/206 342/143/207 343/144/208
f 344/145/209 343/144/208 342/143/207
f 343/144/208 344/145/209 345/146/146
f 346/147/146 345/146/146 344/145/209
f 345/146/147 346/147/147 347/148/147
f 348/149/147 347/148/147 346/147/147
f 197/72/165 199/7/114 235/7/110 306/7/110 266/69/162
f 199/7/114 200/7/113 211/7/110 266/69/162 306/7/110 235/7/110
f 238/7/9 211/7/9 200/7/9 202/7/9
f 349/7/110 211/7/110 200/7/110 238/10/110 202/7/110 352/7/110
f 203/72/110 349/69/110 352/7/110 202/7/110
f 350/85/210 205/86/211 232/7/119 252/7/212 206/7/212
f 208/6/117 350/85/210 206/7/212 252/7/212 232/7/119
f 279/7/178 208/7/117 223/7/213 229/7/213 209/7/214
f 210/86/179 279/85/178 209/7/214
f 209/7/9 229/7/9 223/7/9 210/24/9
f 281/7/181 351/7/215 208/7/117
f 208/7/117 279/85/178 281/7/181
f 350/85/210 208/7/117 351/88/215
f 532/7/38 542/7/38 352/7/38 211/7/38
f 379/7/38 110/7/38 15/7/38
f 389/7/38 379/7/38 15/7/38 156/7/38
f 155/88/109 351/88/216 350/85/217 154/85/104
f 154/85/104 350/85/217 205/86/218 9/86/105
f 9/86/105 205/86/218 204/55/219 8/55/219
f 8/55/9 204/55/9 203/56/9 7/56/9
f 352/7/9 156/7/9 153/7/9 7/7/9 203/7/9 349/7/9
f 352/7/38 542/7/38 389/7/38 156/7/38
f 79/80/67 353/183/220 80/81/68
f 354/184/221 80/81/68 353/183/220
f 353/183/220 355/185/222 354/184/221
f 356/186/223 354/184/221 355/185/222
f 355/185/222 357/187/224 356/186/223
f 358/188/224 356/186/223 357/187/224
f 361/189/225 360/190/226 359/191/225
f 362/192/227 359/191/225 360/190/226
f 360/190/226 363/193/228 362/192/227
f 364/194/229 362/192/227 363/193/228
f 363/193/228 365/195/230 364/194/229
f 366/196/231 364/194/229 365/195/230
f 99/102/88 80/103/89 367/197/232
f 367/197/232 85/88/75 99/102/88
f 368/198/233 367/197/232 80/103/89
f 367/197/232 368/198/233 369/199/234
f 369/199/234 85/88/75 367/197/232
f 370/200/235 369/199/234 368/198/233
f 369/199/234 370/200/235 371/201/236
f 371/201/236 85/88/75 369/199/234
f 372/202/237 371/201/236 370/200/235
f 371/201/236 372/202/237 373/203/238
f 373/203/238 85/88/75 371/201/236
f 374/204/239 373/203/238 372/202/237
f 373/203/238 374/204/239 375/205/240
f 375/205/240 85/88/75 373/203/238
f 376/206/241 375/205/240 374/204/239
f 377/207/242 85/88/75 375/205/240
f 375/205/240 376/206/241 377/207/242
f 378/208/243 377/207/242 376/206/241
f 377/207/242 387/207/244 155/88/109 85/7/75
f 378/208/243 388/208/245 387/207/244 377/207/242
f 366/196/231 365/195/230 385/195/246 386/196/246
f 392/209/247 391/210/247 390/211/247
f 393/212/247 390/211/247 391/210/247
f 390/211/19 393/212/19 394/213/19
f 395/214/19 394/213/19 393/212/19
f 394/213/248 395/214/248 396/215/248
f 397/216/248 396/215/248 395/214/248
f 400/217/249 399/218/249 398/219/249
f 401/220/249 398/219/249 399/218/249
f 398/219/250 401/220/250 402/221/250
f 403/222/250 402/221/250 401/220/250
f 406/223/251 405/224/251 404/225/251
f 407/226/251 404/225/251 405/224/251
f 404/225/48 407/226/48 408/227/48
f 409/228/48 408/227/48 407/226/48
f 408/227/252 409/228/252 410/229/252
f 411/230/252 410/229/252 409/228/252
f 414/231/253 413/232/253 412/233/253
f 415/234/253 412/233/253 413/232/253
f 412/233/254 415/234/254 416/235/254
f 417/236/254 416/235/254 415/234/254
f 420/237/247 419/238/247 418/239/247
f 421/240/247 418/239/247 419/238/247
f 418/239/19 421/240/19 422/241/19
f 423/242/19 422/241/19 421/240/19
f 422/241/248 423/242/248 424/243/248
f 425/244/248 424/243/248 423/242/248
f 428/245/249 427/246/249 426/247/249
f 429/248/249 426/247/249 427/246/249
f 426/247/250 429/248/250 430/249/250
f 431/250/250 430/249/250 429/248/250
f 434/251/251 433/252/251 432/253/251
f 435/254/251 432/253/251 433/252/251
f 432/253/48 435/254/48 436/255/48
f 437/256/48 436/255/48 435/254/48
f 436/255/252 437/256/252 438/257/252
f 439/258/252 438/257/252 437/256/252
f 442/259/253 441/260/253 440/261/253
f 443/262/253 440/261/253 441/260/253
f 440/261/254 443/262/254 444/263/254
f 445/264/254 444/263/254 443/262/254
f 448/265/111 447/266/111 446/267/111
f 447/266/111 449/268/111 446/267/111
f 446/267/111 449/268/111 450/269/111
f 451/270/111 449/268/111 447/266/111
f 452/271/111 451/270/111 447/266/111
f 453/272/111 449/268/111 451/270/111
f 454/273/111 453/272/111 451/270/111
f 455/274/111 449/268/111 453/272/111
f 458/275/111 457/276/255 456/277/256
f 458/275/111 456/277/256 459/278/257
f 458/275/111 460/279/258 457/276/255
f 458/275/111 459/278/257 461/280/259
f 458/275/111 462/281/260 460/279/258
f 458/275/111 461/280/259 463/282/261
f 458/275/111 464/283/262 462/281/260
f 458/275/111 463/282/261 465/284/263
f 458/275/111 466/285/264 464/283/262
f 458/275/111 465/284/263 466/285/264
f 469/286/38 468/287/38 467/288/38
f 467/288/38 468/287/38 470/289/38
f 471/290/38 468/287/38 469/286/38
f 470/289/38 468/287/38 472/291/38
f 473/292/38 468/287/38 471/290/38
f 472/291/38 468/287/38 474/293/38
f 475/294/38 468/287/38 473/292/38
f 474/293/38 468/287/38 476/295/38
f 477/296/38 468/287/38 475/294/38
f 476/295/38 468/287/38 477/296/38
f 480/297/247 479/298/247 478/299/247
f 481/300/247 478/299/247 479/298/247
f 478/299/19 481/300/19 482/301/19
f 483/302/19 482/301/19 481/300/19
f 482/301/248 483/302/248 484/303/248
f 485/304/248 484/303/248 483/302/248
f 488/305/249 487/306/249 486/220/249
f 489/307/249 486/220/249 487/306/249
f 486/220/250 489/307/250 490/308/250
f 491/309/250 490/308/250 489/307/250
f 494/310/251 493/311/251 492/312/251
f 495/313/251 492/312/251 493/311/251
f 492/312/48 495/313/48 496/314/48
f 497/315/48 496/314/48 495/313/48
f 496/314/252 497/315/252 498/316/252
f 499/317/252 498/316/252 497/315/252
f 502/318/253 501/319/253 500/234/253
f 503/320/253 500/234/253 501/319/253
f 500/234/254 503/320/254 504/321/254
f 505/322/254 504/321/254 503/320/254
f 275/80/173 506/183/265 276/81/174
f 507/184/266 276/81/174 506/183/265
f 506/183/265 508/185/267 507/184/266
f 509/186/268 507/184/266 508/185/267
f 508/185/267 510/187/269 509/186/268
f 511/188/269 509/186/268 510/187/269
f 514/189/270 513/190/271 512/191/270
f 515/192/272 512/191/270 513/190/271
f 513/190/271 516/193/273 515/192/272
f 517/194/274 515/192/272 516/193/273
f 516/193/273 518/195/275 517/194/274
f 519/196/276 517/194/274 518/195/275
f 295/102/194 276/103/195 520/197/277
f 520/197/277 281/88/181 295/102/194
f 521/198/278 520/197/277 276/103/195
f 520/197/277 521/198/278 522/199/279
f 522/199/279 281/88/181 520/197/277
f 523/200/280 522/199/279 521/198/278
f 522/199/279 523/200/280 524/201/281
f 524/201/281 281/88/181 522/199/279
f 525/202/282 524/201/281 523/200/280
f 524/201/281 525/202/282 526/203/283
f 526/203/283 281/88/181 524/201/281
f 527/204/284 526/203/283 525/202/282
f 526/203/283 527/204/284 528/205/285
f 528/205/285 281/88/181 526/203/283
f 529/206/286 528/205/285 527/204/284
f 530/207/287 281/88/181 528/205/285
f 528/205/285 529/206/286 530/207/287
f 531/208/288 530/207/287 529/206/286
f 530/207/287 540/207/289 351/88/215 281/7/181
f 531/208/288 541/208/290 540/207/289 530/207/287
f 519/196/276 518/195/275 538/195/291 539/196/291
f 389/7/9 385/7/9 386/7/9 539/7/9 538/7/9 542/7/9
f 388/208/245 541/208/292 540/207/293 387/207/244
f 387/207/244 540/207/293 351/88/216 155/88/109
l 9 10
l 205 206
l 379 365
l 532 518
