# Blender 4.5.3 LTS
# www.blender.org
mtllib frd_gun_228_x4_001.mtl
o frd_gun_228_x4_001
v 1.123123 1.282494 3.474162
v 1.123654 2.261969 3.474161
v 0.988620 0.993855 3.474160
v 0.700000 0.633204 3.474160
v 0.700000 0.859912 3.478701
v 0.411302 0.993855 3.474160
v 0.276828 1.282490 3.474157
v 0.276304 2.261969 3.474157
v 0.276654 2.431338 2.916908
v 0.401136 2.510006 2.617405
v 0.700000 2.557545 2.493670
v 0.700000 2.593531 2.374422
v 0.998820 2.510004 2.617411
v 1.123300 2.431338 2.916911
v 0.700000 0.633204 3.474160
v 1.122600 1.282495 2.201215
v 0.998814 2.331255 2.201215
v 1.122600 2.245223 2.201215
v 0.988640 0.993855 2.201215
v 0.699980 2.343613 2.201215
v 0.699980 0.859895 2.201215
v 0.411321 0.993855 2.201215
v 0.401147 2.331255 2.201215
v 0.277361 1.282495 2.201215
v 0.277361 2.245223 2.201215
v 0.998814 2.331255 2.617413
v 0.998820 2.510004 2.617411
v 1.122600 2.245223 2.916277
v 1.122600 1.282495 2.201215
v 1.122600 2.245223 2.201215
v 0.998814 2.331255 2.617413
v 0.700000 2.557545 2.493670
v 0.998820 2.510004 2.617411
v 0.699980 2.343612 2.493677
v 0.401147 2.331255 2.617413
v 0.401136 2.510006 2.617405
v 0.988640 0.993855 2.201215
v 1.122600 1.282495 2.201215
v 0.988620 0.993855 3.474160
v 0.699980 0.859895 2.201215
v 0.700000 0.859912 3.478701
v 0.411302 0.993855 3.474160
v 0.411321 0.993855 2.201215
v 0.277361 1.282495 2.201215
v 1.122600 2.245223 2.201215
v 0.998814 2.331255 2.617413
v 1.122600 2.245223 2.916277
v 0.998814 2.331255 2.201215
v 0.699980 2.343612 2.493677
v 0.699980 2.343613 2.201215
v 0.401147 2.331255 2.201215
v 0.401147 2.331255 2.617413
v 0.277361 2.245223 2.201215
v 0.277361 2.245223 2.916277
v 0.401147 2.331255 2.617413
v 0.401136 2.510006 2.617405
v 0.277361 2.245223 2.916277
v 0.277361 1.282495 2.201215
v 0.277361 2.245223 2.201215
v 3.582401 0.633204 2.456594
v 2.862874 2.283223 3.008709
v 3.582401 2.310389 2.456594
v 2.862874 0.633204 3.008709
v 2.447570 1.282498 3.180736
v 2.447570 2.274758 3.180730
v 2.313611 0.993855 3.236215
v 2.024967 0.633204 3.355776
v 2.024967 0.859894 3.355776
v 1.736326 0.993855 3.393777
v 1.125786 0.633204 3.474160
v 1.602365 1.282495 3.411420
v 1.602365 2.263407 3.411414
v 3.582401 2.310389 2.456594
v 4.134513 0.633204 1.737072
v 3.582401 0.633204 2.456594
v 4.134513 2.346371 1.725346
v 4.481586 0.633204 0.899164
v 4.481586 2.387023 0.899164
v 4.599966 0.633204 -0.000019
v 4.599966 2.431268 -0.000018
v 4.458218 0.633204 -1.094569
v 4.458218 2.485126 -1.094568
v 4.059318 0.633205 -2.148867
v 4.059318 2.537004 -2.148867
v 3.465218 0.633205 -3.130308
v 3.465218 2.585297 -3.130308
v 3.465218 2.585297 -3.130308
v 2.790181 0.633205 -3.695436
v 3.465218 0.633205 -3.130308
v 2.790180 2.613104 -3.695436
v 1.964306 0.633205 -4.020384
v 1.964307 2.629093 -4.020380
v 1.125786 0.633205 -4.130777
v 1.125786 2.634525 -4.130780
v 1.602365 2.416330 2.904629
v 1.602365 2.263407 3.411414
v 1.125786 2.593531 2.369877
v 1.738505 2.597501 2.289212
v 1.125786 2.880573 -0.260033
v 1.726149 2.502366 2.605766
v 2.024964 2.514728 2.482032
v 2.309589 2.609141 2.052663
v 2.323789 2.450386 2.605803
v 2.862874 2.283223 3.008709
v 2.447570 2.353307 2.904648
v 2.447570 2.274758 3.180730
v 2.796728 2.627532 1.678868
v 3.582401 2.310389 2.456594
v 3.176792 2.652303 1.175488
v 4.134513 2.346371 1.725346
v 3.413966 2.680082 0.610915
v 4.481586 2.387023 0.899164
v 3.494551 2.710201 -0.001184
v 4.599966 2.431268 -0.000018
v 3.387573 2.750847 -0.827242
v 4.458218 2.485126 -1.094568
v 3.069412 2.792225 -1.668146
v 4.059318 2.537004 -2.148867
v 2.621462 2.828638 -2.408150
v 3.465218 2.585297 -3.130308
v 2.222622 2.845067 -2.742053
v 2.790180 2.613104 -3.695436
v 1.687702 2.855423 -2.952520
v 1.964307 2.629093 -4.020380
v 1.125786 2.859064 -3.026500
v 1.125786 2.634525 -4.130780
v 1.726152 2.331255 2.189570
v 1.602365 1.282495 2.189570
v 1.602365 2.245223 2.189570
v 1.736326 0.993855 2.189570
v 2.024970 2.343613 2.189570
v 2.024967 0.859895 2.189570
v 2.313611 0.993855 2.189570
v 2.323792 2.279275 2.189570
v 2.447570 1.282498 2.189570
v 2.447570 2.182200 2.189570
v 1.125786 0.633205 -4.130777
v 1.125786 0.633204 3.474160
v 2.024967 0.633204 3.355776
v 1.964306 0.633205 -4.020384
v 2.790181 0.633205 -3.695436
v 2.862874 0.633204 3.008709
v 3.465218 0.633205 -3.130308
v 3.582401 0.633204 2.456594
v 4.059318 0.633205 -2.148867
v 4.134513 0.633204 1.737072
v 4.458218 0.633204 -1.094569
v 4.481586 0.633204 0.899164
v 4.599966 0.633204 -0.000019
v 2.323789 2.450386 2.605803
v 2.447570 2.182200 2.904648
v 2.323792 2.279275 2.605803
v 2.447570 2.353307 2.904648
v 2.447570 2.274758 3.180730
v 2.447570 1.282498 3.180736
v 2.447570 2.182200 2.189570
v 2.447570 1.282498 2.189570
v 1.726152 2.331255 2.605767
v 1.602365 2.416330 2.904629
v 1.726149 2.502366 2.605766
v 1.602365 2.245223 2.904632
v 1.602365 2.263407 3.411414
v 1.602365 1.282495 3.411420
v 1.602365 1.282495 2.189570
v 1.602365 2.245223 2.189570
v 2.024970 2.343612 2.482032
v 2.323789 2.450386 2.605803
v 2.323792 2.279275 2.605803
v 2.024964 2.514728 2.482032
v 1.726152 2.331255 2.605767
v 1.726149 2.502366 2.605766
v 1.736326 0.993855 2.189570
v 1.602365 1.282495 3.411420
v 1.602365 1.282495 2.189570
v 1.736326 0.993855 3.393777
v 2.024967 0.859895 2.189570
v 2.024967 0.859894 3.355776
v 2.313611 0.993855 2.189570
v 2.313611 0.993855 3.236215
v 2.447570 1.282498 2.189570
v 2.447570 1.282498 3.180736
v 2.323792 2.279275 2.189570
v 2.447570 2.182200 2.904648
v 2.447570 2.182200 2.189570
v 2.323792 2.279275 2.605803
v 2.024970 2.343613 2.189570
v 2.024970 2.343612 2.482032
v 1.726152 2.331255 2.189570
v 1.726152 2.331255 2.605767
v 1.602365 2.245223 2.189570
v 1.602365 2.245223 2.904632
v 0.274214 0.633204 3.474157
v 0.274214 0.633205 -4.130777
v 0.274214 2.634525 -4.130780
v 0.274214 2.593531 2.369877
v 0.274214 2.880573 -0.260033
v 0.274214 2.859064 -3.026500
v 0.274214 2.634525 -4.130780
v 0.274214 0.633205 -4.130777
v 0.274214 0.633204 3.474157
v -0.220451 2.999654 -2.075259
v 0.029888 3.118516 -1.730699
v 0.029888 2.999653 -1.730699
v -0.220451 3.118516 -2.075261
v -0.220453 2.999654 -2.501160
v -0.220453 3.118516 -2.501162
v 0.029886 2.999654 -2.845724
v 0.029886 3.118516 -2.845724
v 0.434944 3.118516 -1.599089
v 0.029888 2.999653 -1.730699
v 0.029888 3.118516 -1.730699
v 0.434944 2.999654 -1.599087
v 0.839999 3.118516 -1.730699
v 0.839999 2.999653 -1.730699
v 1.090338 3.118516 -2.075261
v 0.839999 2.999653 -1.730699
v 0.839999 3.118516 -1.730699
v 1.090338 2.999654 -2.075259
v 1.090340 3.118516 -2.501162
v 1.090340 2.999654 -2.501162
v 0.840001 3.118516 -2.845726
v 0.840001 2.999654 -2.845726
v 0.434943 3.118516 -2.977336
v 0.840001 2.999654 -2.845726
v 0.840001 3.118516 -2.845726
v 0.434943 2.999653 -2.977336
v 0.029886 3.118516 -2.845724
v 0.029886 2.999654 -2.845724
v 2.385834 2.573594 1.126865
v 2.799257 2.782017 1.126865
v 2.385838 2.782019 1.126865
v 2.799255 2.573593 1.126865
v 2.799255 2.573593 1.686939
v 2.385839 2.782019 1.686938
v 2.799257 2.782019 1.686938
v 2.385836 2.573593 1.686941
v 2.799255 2.573593 1.686939
v 2.799257 2.782017 1.126865
v 2.799255 2.573593 1.126865
v 2.799257 2.782019 1.686938
v 2.799257 2.782019 1.686938
v 2.385838 2.782019 1.126865
v 2.799257 2.782017 1.126865
v 2.385839 2.782019 1.686938
v 2.385836 2.573593 1.686941
v 2.385838 2.782019 1.126865
v 2.385839 2.782019 1.686938
v 2.385834 2.573594 1.126865
v -2.389691 2.573594 1.126865
v -2.803113 2.782017 1.126865
v -2.803112 2.573593 1.126865
v -2.389694 2.782019 1.126865
v -2.803112 2.573593 1.686939
v -2.389695 2.782019 1.686938
v -2.389693 2.573593 1.686941
v -2.803113 2.782019 1.686938
v -2.803112 2.573593 1.686939
v -2.803113 2.782017 1.126865
v -2.803113 2.782019 1.686938
v -2.803112 2.573593 1.126865
v -2.803113 2.782019 1.686938
v -2.389694 2.782019 1.126865
v -2.389695 2.782019 1.686938
v -2.803113 2.782017 1.126865
v -2.389693 2.573593 1.686941
v -2.389694 2.782019 1.126865
v -2.389691 2.573594 1.126865
v -2.389695 2.782019 1.686938
v -1.544538 2.765908 -2.779312
v -1.411431 2.999653 -2.596106
v -1.411431 2.765908 -2.596105
v -1.544538 2.999653 -2.779313
v -1.544539 2.765908 -3.005767
v -1.544539 2.999653 -3.005768
v -1.411432 2.765908 -3.188975
v -1.411432 2.999653 -3.188975
v -1.196058 2.999653 -2.526126
v -1.411431 2.765908 -2.596105
v -1.411431 2.999653 -2.596106
v -1.196058 2.765908 -2.526126
v -0.980687 2.999653 -2.596106
v -0.980687 2.765908 -2.596105
v -0.847579 2.999653 -2.779312
v -0.980687 2.765908 -2.596105
v -0.980687 2.999653 -2.596106
v -0.847579 2.765908 -2.779312
v -0.847578 2.999653 -3.005768
v -0.847578 2.765908 -3.005768
v -0.980686 2.999653 -3.188975
v -0.980686 2.765908 -3.188975
v -1.196059 2.999653 -3.258955
v -0.980686 2.765908 -3.188975
v -0.980686 2.999653 -3.188975
v -1.196059 2.765908 -3.258955
v -1.411432 2.999653 -3.188975
v -1.411432 2.765908 -3.188975
v -1.196058 2.999653 -2.526126
v -0.847579 2.999653 -2.779312
v -0.980687 2.999653 -2.596106
v -1.544538 2.999653 -2.779313
v -1.411431 2.999653 -2.596106
v -0.980686 2.999653 -3.188975
v -0.847578 2.999653 -3.005768
v -1.411432 2.999653 -3.188975
v -1.196059 2.999653 -3.258955
v -1.544539 2.999653 -3.005768
v -0.220451 3.118516 -2.075261
v -0.220453 3.118516 -2.501162
v 0.434944 3.186547 -2.288212
v 0.029888 3.118516 -1.730699
v 0.029886 3.118516 -2.845724
v 0.434944 3.118516 -1.599089
v 0.434943 3.118516 -2.977336
v 0.839999 3.118516 -1.730699
v 0.840001 3.118516 -2.845726
v 1.090338 3.118516 -2.075261
v 1.090340 3.118516 -2.501162
v -0.220453 2.999654 -2.501160
v 0.434944 2.999653 -2.288212
v 0.029886 2.999654 -2.845724
v -0.220451 2.999654 -2.075259
v 0.434943 2.999653 -2.977336
v 0.029888 2.999653 -1.730699
v 0.840001 2.999654 -2.845726
v 0.434944 2.999654 -1.599087
v 1.090340 2.999654 -2.501162
v 0.839999 2.999653 -1.730699
v 1.090338 2.999654 -2.075259
v -0.109902 2.765908 -2.111180
v 0.098211 2.999653 -1.824737
v 0.098211 2.765908 -1.824737
v -0.109902 2.999653 -2.111181
v -0.109903 2.765908 -2.465241
v -0.109903 2.999653 -2.465242
v 0.098210 2.765908 -2.751685
v 0.098210 2.999653 -2.751685
v 0.434944 2.999653 -1.715326
v 0.098211 2.765908 -1.824737
v 0.098211 2.999653 -1.824737
v 0.434944 2.765908 -1.715325
v 0.771676 2.999653 -1.824737
v 0.771676 2.765908 -1.824737
v 0.979789 2.999653 -2.111180
v 0.771676 2.765908 -1.824737
v 0.771676 2.999653 -1.824737
v 0.979789 2.765908 -2.111180
v 0.979791 2.999653 -2.465242
v 0.979791 2.765908 -2.465242
v 0.771677 2.999653 -2.751685
v 0.771677 2.765908 -2.751685
v 0.434943 2.999653 -2.861097
v 0.771677 2.765908 -2.751685
v 0.771677 2.999653 -2.751685
v 0.434943 2.765908 -2.861097
v 0.098210 2.999653 -2.751685
v 0.098210 2.765908 -2.751685
v -1.123123 1.282494 3.474162
v -1.123654 2.261969 3.474161
v -0.988620 0.993855 3.474160
v -0.700000 0.633204 3.474160
v -0.700000 0.859912 3.478701
v -0.411302 0.993855 3.474160
v -0.276828 1.282490 3.474157
v -0.276304 2.261969 3.474157
v -0.276654 2.431338 2.916908
v -0.401136 2.510006 2.617405
v -0.700000 2.557545 2.493670
v -0.700000 2.593531 2.374422
v -0.998820 2.510004 2.617411
v -1.123300 2.431338 2.916911
v -0.700000 0.633204 3.474160
v -1.122600 1.282495 2.201215
v -0.998814 2.331255 2.201215
v -1.122600 2.245223 2.201215
v -0.988640 0.993855 2.201215
v -0.699980 2.343613 2.201215
v -0.699980 0.859895 2.201215
v -0.411321 0.993855 2.201215
v -0.401147 2.331255 2.201215
v -0.277361 1.282495 2.201215
v -0.277361 2.245223 2.201215
v -0.998814 2.331255 2.617413
v -0.998820 2.510004 2.617411
v -1.122600 2.245223 2.916277
v -1.122600 1.282495 2.201215
v -1.122600 2.245223 2.201215
v -0.998814 2.331255 2.617413
v -0.700000 2.557545 2.493670
v -0.998820 2.510004 2.617411
v -0.699980 2.343612 2.493677
v -0.401147 2.331255 2.617413
v -0.401136 2.510006 2.617405
v -0.988640 0.993855 2.201215
v -1.122600 1.282495 2.201215
v -0.988620 0.993855 3.474160
v -0.699980 0.859895 2.201215
v -0.700000 0.859912 3.478701
v -0.411302 0.993855 3.474160
v -0.411321 0.993855 2.201215
v -0.277361 1.282495 2.201215
v -1.122600 2.245223 2.201215
v -0.998814 2.331255 2.617413
v -1.122600 2.245223 2.916277
v -0.998814 2.331255 2.201215
v -0.699980 2.343612 2.493677
v -0.699980 2.343613 2.201215
v -0.401147 2.331255 2.201215
v -0.401147 2.331255 2.617413
v -0.277361 2.245223 2.201215
v -0.277360 2.245223 2.916277
v -0.401147 2.331255 2.617413
v -0.401136 2.510006 2.617405
v -0.277360 2.245223 2.916277
v -0.277361 1.282495 2.201215
v -0.277361 2.245223 2.201215
v -3.582401 0.633204 2.456594
v -2.862874 2.283223 3.008709
v -3.582401 2.310389 2.456594
v -2.862874 0.633204 3.008709
v -2.447570 1.282498 3.180736
v -2.447570 2.274758 3.180730
v -2.313611 0.993855 3.236215
v -2.024967 0.633204 3.355776
v -2.024967 0.859894 3.355776
v -1.736326 0.993855 3.393777
v -1.125786 0.633204 3.474160
v -1.602365 1.282495 3.411420
v -1.602365 2.263407 3.411414
v -3.582401 2.310389 2.456594
v -4.134513 0.633204 1.737072
v -3.582401 0.633204 2.456594
v -4.134513 2.346371 1.725346
v -4.481586 0.633204 0.899164
v -4.481586 2.387023 0.899164
v -4.599966 0.633204 -0.000019
v -4.599967 2.431268 -0.000018
v -4.458219 0.633204 -1.094569
v -4.458218 2.485126 -1.094568
v -4.059319 0.633205 -2.148867
v -4.059319 2.537004 -2.148867
v -3.465218 0.633205 -3.130308
v -3.465218 2.585297 -3.130308
v -3.465218 2.585297 -3.130308
v -2.790181 0.633205 -3.695436
v -3.465218 0.633205 -3.130308
v -2.790180 2.613104 -3.695436
v -1.964306 0.633205 -4.020384
v -1.964307 2.629093 -4.020380
v -1.125786 0.633205 -4.130777
v -1.125786 2.634525 -4.130780
v -1.602365 2.416330 2.904629
v -1.602365 2.263407 3.411414
v -1.125786 2.593531 2.369877
v -1.738505 2.597501 2.289212
v -1.125786 2.880573 -0.260033
v -1.726149 2.502366 2.605766
v -2.024964 2.514728 2.482032
v -2.309589 2.609141 2.052663
v -2.323789 2.450386 2.605803
v -2.862874 2.283223 3.008709
v -2.447570 2.353307 2.904648
v -2.447570 2.274758 3.180730
v -2.796728 2.627532 1.678868
v -3.582401 2.310389 2.456594
v -3.176792 2.652303 1.175488
v -4.134513 2.346371 1.725346
v -3.413966 2.680082 0.610915
v -4.481586 2.387023 0.899164
v -3.494551 2.710201 -0.001184
v -4.599967 2.431268 -0.000018
v -3.387573 2.750847 -0.827242
v -4.458218 2.485126 -1.094568
v -3.069412 2.792225 -1.668146
v -4.059319 2.537004 -2.148867
v -2.621462 2.828638 -2.408150
v -3.465218 2.585297 -3.130308
v -2.222622 2.845067 -2.742053
v -2.790180 2.613104 -3.695436
v -1.687702 2.855423 -2.952520
v -1.964307 2.629093 -4.020380
v -1.125786 2.859064 -3.026500
v -1.125786 2.634525 -4.130780
v -1.726152 2.331255 2.189570
v -1.602365 1.282495 2.189570
v -1.602365 2.245223 2.189570
v -1.736326 0.993855 2.189570
v -2.024970 2.343613 2.189570
v -2.024967 0.859895 2.189570
v -2.313611 0.993855 2.189570
v -2.323792 2.279275 2.189570
v -2.447570 1.282498 2.189570
v -2.447570 2.182200 2.189570
v -1.125786 0.633205 -4.130777
v -1.125786 0.633204 3.474160
v -2.024967 0.633204 3.355776
v -1.964306 0.633205 -4.020384
v -2.790181 0.633205 -3.695436
v -2.862874 0.633204 3.008709
v -3.465218 0.633205 -3.130308
v -3.582401 0.633204 2.456594
v -4.059319 0.633205 -2.148867
v -4.134513 0.633204 1.737072
v -4.458219 0.633204 -1.094569
v -4.481586 0.633204 0.899164
v -4.599966 0.633204 -0.000019
v -2.323789 2.450386 2.605803
v -2.447570 2.182200 2.904648
v -2.323792 2.279275 2.605803
v -2.447570 2.353307 2.904648
v -2.447570 2.274758 3.180730
v -2.447570 1.282498 3.180736
v -2.447570 2.182200 2.189570
v -2.447570 1.282498 2.189570
v -1.726152 2.331255 2.605767
v -1.602365 2.416330 2.904629
v -1.726149 2.502366 2.605766
v -1.602365 2.245223 2.904632
v -1.602365 2.263407 3.411414
v -1.602365 1.282495 3.411420
v -1.602365 1.282495 2.189570
v -1.602365 2.245223 2.189570
v -2.024970 2.343612 2.482032
v -2.323789 2.450386 2.605803
v -2.323792 2.279275 2.605803
v -2.024964 2.514728 2.482032
v -1.726152 2.331255 2.605767
v -1.726149 2.502366 2.605766
v -1.736326 0.993855 2.189570
v -1.602365 1.282495 3.411420
v -1.602365 1.282495 2.189570
v -1.736326 0.993855 3.393777
v -2.024967 0.859895 2.189570
v -2.024967 0.859894 3.355776
v -2.313611 0.993855 2.189570
v -2.313611 0.993855 3.236215
v -2.447570 1.282498 2.189570
v -2.447570 1.282498 3.180736
v -2.323792 2.279275 2.189570
v -2.447570 2.182200 2.904648
v -2.447570 2.182200 2.189570
v -2.323792 2.279275 2.605803
v -2.024970 2.343613 2.189570
v -2.024970 2.343612 2.482032
v -1.726152 2.331255 2.189570
v -1.726152 2.331255 2.605767
v -1.602365 2.245223 2.189570
v -1.602365 2.245223 2.904632
v -0.274214 0.633204 3.474157
v -0.274214 0.633205 -4.130777
v -0.274214 2.634525 -4.130780
v -0.274214 2.593531 2.369877
v -0.274214 2.880573 -0.260033
v -0.274214 2.859064 -3.026500
v -0.274214 2.634525 -4.130780
v -0.274214 0.633205 -4.130777
v -0.274214 0.633204 3.474157
vn 0.0125 -0.0100 0.9999
vn 0.0075 -0.0060 1.0000
vn 0.0032 -0.0026 1.0000
vn -0.0000 0.9574 0.2889
vn 0.0327 0.9568 0.2888
vn -0.0000 0.9782 0.2078
vn -0.0326 0.9568 0.2888
vn 0.0309 0.9530 0.3014
vn -0.0000 -0.0000 1.0000
vn -0.0125 -0.0100 0.9999
vn -0.0250 -0.0200 0.9995
vn -0.9234 -0.0000 0.3838
vn -0.9235 0.0007 0.3836
vn -0.9733 0.0025 0.2293
vn -0.9963 0.0015 0.0857
vn -1.0000 0.0011 0.0019
vn -1.0000 -0.0000 0.0009
vn -1.0000 -0.0002 0.0002
vn -1.0000 -0.0000 -0.0000
vn -0.3826 -0.0000 0.9239
vn -0.3826 0.0001 0.9239
vn 0.3826 -0.0000 0.9239
vn 0.3825 -0.0000 0.9239
vn 0.3825 0.0001 0.9239
vn -0.9071 0.4210 0.0004
vn -0.9070 0.4212 0.0003
vn -0.9065 0.4222 -0.0000
vn -0.9064 0.4224 -0.0000
vn -0.4210 0.9071 -0.0000
vn 0.4209 0.9071 -0.0000
vn 0.4210 0.9071 -0.0000
vn 0.9065 0.4223 -0.0000
vn 0.9070 0.4212 0.0003
vn 0.9065 0.4221 0.0001
vn 0.9071 0.4210 0.0004
vn -0.5707 -0.8212 -0.0000
vn -0.0413 -0.9991 -0.0000
vn -0.0000 -1.0000 -0.0000
vn 0.0413 -0.9991 -0.0000
vn 0.5707 -0.8212 -0.0000
vn 0.9234 0.0001 0.3838
vn 0.9733 0.0025 0.2293
vn 0.9235 0.0007 0.3836
vn 0.9963 0.0015 0.0857
vn 1.0000 0.0011 0.0019
vn 1.0000 -0.0000 0.0009
vn 1.0000 -0.0002 0.0002
vn 1.0000 -0.0000 -0.0000
vn 0.6088 -0.0000 0.7934
vn 0.5018 -0.0000 0.8650
vn 0.5000 -0.0000 0.8660
vn 0.3827 -0.0000 0.9239
vn 0.2588 -0.0000 0.9659
vn 0.2580 -0.0000 0.9661
vn 0.1305 -0.0000 0.9914
vn 0.0653 -0.0000 0.9979
vn 0.1301 0.0001 0.9915
vn 0.1299 0.0001 0.9915
vn 0.1139 0.0001 0.9935
vn 0.1300 -0.0000 0.9915
vn 0.7934 -0.0000 0.6088
vn 0.8664 0.0020 0.4994
vn 0.7966 0.0029 0.6046
vn 0.8690 0.0024 0.4949
vn 0.9657 0.0009 0.2596
vn 0.9663 -0.0000 0.2574
vn 1.0000 -0.0000 0.0011
vn 1.0000 -0.0000 -0.0030
vn 0.9701 -0.0000 -0.2428
vn 0.9692 -0.0000 -0.2462
vn 0.8991 -0.0000 -0.4377
vn 0.8980 -0.0000 -0.4400
vn 0.8555 -0.0000 -0.5178
vn 0.6419 -0.0000 -0.7668
vn 0.5106 -0.0000 -0.8598
vn 0.5084 -0.0000 -0.8611
vn 0.2502 -0.0000 -0.9682
vn 0.2493 -0.0000 -0.9684
vn 0.0654 -0.0000 -0.9979
vn 0.0653 -0.0000 -0.9979
vn 0.0350 0.9568 0.2887
vn 0.0352 0.9570 0.2881
vn 0.0361 0.9569 0.2881
vn 0.0065 0.9780 0.2083
vn 0.0248 0.9576 0.2871
vn 0.0420 0.9781 0.2037
vn 0.0224 0.9985 0.0498
vn 0.0463 0.9562 0.2892
vn 0.0901 0.9567 0.2769
vn 0.0796 0.9793 0.1862
vn 0.0933 0.9576 0.2724
vn 0.1209 0.9588 0.2569
vn 0.0933 0.9576 0.2725
vn 0.1137 0.9804 0.1611
vn 0.1719 0.9607 0.2181
vn 0.1392 0.9819 0.1285
vn 0.2107 0.9629 0.1688
vn 0.1564 0.9835 0.0908
vn 0.2350 0.9656 0.1113
vn 0.1632 0.9854 0.0488
vn 0.2443 0.9685 0.0481
vn 0.1586 0.9873 0.0087
vn 0.2381 0.9712 -0.0116
vn 0.1458 0.9891 -0.0227
vn 0.2218 0.9732 -0.0599
vn 0.1236 0.9906 -0.0584
vn 0.1862 0.9762 -0.1114
vn 0.0826 0.9924 -0.0910
vn 0.1257 0.9785 -0.1633
vn 0.0400 0.9935 -0.1065
vn 0.0620 0.9795 -0.1915
vn 0.0106 0.9941 -0.1079
vn 0.0156 0.9798 -0.1992
vn -0.9239 -0.0000 0.3827
vn -0.9966 -0.0000 0.0828
vn -0.9732 -0.0000 0.2301
vn 0.9239 -0.0000 0.3827
vn 0.9733 -0.0000 0.2296
vn 0.9964 -0.0000 0.0844
vn -0.3827 -0.0000 0.9239
vn 0.9071 0.4210 -0.0000
vn -0.9071 0.4210 -0.0000
vn -0.6171 -0.7869 -0.0000
vn -0.4246 -0.9054 -0.0000
vn -0.5026 -0.8645 -0.0000
vn -0.0853 -0.9964 -0.0000
vn -0.0850 -0.9964 -0.0000
vn 0.0046 0.9790 0.2036
vn 0.0085 0.9579 0.2871
vn 0.0368 0.9524 0.3025
vn 0.0034 0.9470 0.3213
vn -0.0444 0.9533 0.2989
vn -0.0000 0.9987 0.0504
vn -0.0000 0.9946 -0.1040
vn -0.0000 0.9799 -0.1993
vn -0.0000 -0.0000 -1.0000
vn -0.0000 1.0000 -0.0000
vn -0.8090 -0.0000 0.5878
vn -0.8090 -0.0000 -0.5878
vn -0.3090 -0.0000 0.9511
vn 0.3090 -0.0000 0.9511
vn 0.8090 -0.0000 0.5878
vn 0.8090 -0.0000 -0.5878
vn 0.3090 -0.0000 -0.9511
vn -0.3090 -0.0000 -0.9511
vn -0.0934 0.9952 -0.0304
vn -0.0934 0.9952 0.0304
vn -0.0577 0.9952 0.0795
vn -0.0577 0.9952 -0.0795
vn -0.0000 0.9952 0.0982
vn -0.0000 0.9952 -0.0982
vn 0.0577 0.9952 0.0795
vn 0.0577 0.9952 -0.0795
vn 0.0934 0.9952 0.0304
vn 0.0934 0.9952 -0.0304
vn 0.0250 0.0200 -0.9995
vn 0.0075 0.0060 -1.0000
vn 0.0032 0.0026 -1.0000
vn -0.0000 -0.9574 -0.2889
vn 0.0327 -0.9568 -0.2888
vn -0.0000 -0.9782 -0.2078
vn -0.0326 -0.9568 -0.2888
vn 0.0309 -0.9530 -0.3014
vn -0.0250 0.0200 -0.9995
vn -0.9234 -0.0000 -0.3838
vn -0.9235 -0.0007 -0.3836
vn -0.9733 -0.0025 -0.2293
vn -0.9963 -0.0015 -0.0857
vn -1.0000 -0.0011 -0.0019
vn -1.0000 -0.0000 -0.0009
vn -1.0000 0.0002 -0.0002
vn -0.3826 -0.0000 -0.9239
vn -0.3826 -0.0001 -0.9239
vn 0.3826 -0.0000 -0.9239
vn 0.3825 -0.0000 -0.9239
vn 0.3825 -0.0001 -0.9239
vn -0.9071 -0.4210 -0.0004
vn -0.9070 -0.4212 -0.0003
vn -0.9065 -0.4222 -0.0000
vn -0.9064 -0.4224 -0.0000
vn -0.4210 -0.9071 -0.0000
vn 0.4209 -0.9071 -0.0000
vn 0.4210 -0.9071 -0.0000
vn 0.9065 -0.4223 -0.0000
vn 0.9070 -0.4212 -0.0003
vn 0.9065 -0.4221 -0.0001
vn 0.9071 -0.4210 -0.0004
vn -0.5707 0.8212 -0.0000
vn -0.0413 0.9991 -0.0000
vn 0.0413 0.9991 -0.0000
vn 0.5707 0.8212 -0.0000
vn 0.9234 -0.0001 -0.3838
vn 0.9733 -0.0025 -0.2293
vn 0.9235 -0.0007 -0.3836
vn 0.9963 -0.0015 -0.0857
vn 1.0000 -0.0011 -0.0019
vn 1.0000 -0.0000 -0.0009
vn 1.0000 0.0002 -0.0002
vn 0.6088 -0.0000 -0.7934
vn 0.5018 -0.0000 -0.8650
vn 0.5000 -0.0000 -0.8660
vn 0.3827 -0.0000 -0.9239
vn 0.2588 -0.0000 -0.9659
vn 0.2580 -0.0000 -0.9661
vn 0.1305 -0.0000 -0.9914
vn 0.1301 -0.0001 -0.9915
vn 0.1299 -0.0001 -0.9915
vn 0.1139 -0.0001 -0.9935
vn 0.1300 -0.0000 -0.9915
vn 0.7934 -0.0000 -0.6088
vn 0.8664 -0.0020 -0.4994
vn 0.7966 -0.0029 -0.6046
vn 0.8690 -0.0024 -0.4949
vn 0.9657 -0.0009 -0.2596
vn 0.9663 -0.0000 -0.2574
vn 1.0000 -0.0000 -0.0011
vn 1.0000 -0.0000 0.0030
vn 0.9701 -0.0000 0.2428
vn 0.9692 -0.0000 0.2462
vn 0.8991 -0.0000 0.4377
vn 0.8980 -0.0000 0.4400
vn 0.8555 -0.0000 0.5178
vn 0.6419 -0.0000 0.7668
vn 0.5106 -0.0000 0.8598
vn 0.5084 -0.0000 0.8611
vn 0.2502 -0.0000 0.9682
vn 0.2493 -0.0000 0.9684
vn 0.0654 -0.0000 0.9979
vn 0.0350 -0.9568 -0.2887
vn 0.0352 -0.9570 -0.2881
vn 0.0361 -0.9569 -0.2881
vn 0.0065 -0.9780 -0.2083
vn 0.0248 -0.9576 -0.2871
vn 0.0420 -0.9781 -0.2037
vn 0.0224 -0.9985 -0.0498
vn 0.0463 -0.9562 -0.2892
vn 0.0901 -0.9567 -0.2769
vn 0.0796 -0.9793 -0.1862
vn 0.0933 -0.9576 -0.2724
vn 0.1209 -0.9588 -0.2569
vn 0.0933 -0.9576 -0.2725
vn 0.1137 -0.9804 -0.1611
vn 0.1719 -0.9607 -0.2181
vn 0.1392 -0.9819 -0.1285
vn 0.2107 -0.9629 -0.1688
vn 0.1564 -0.9835 -0.0908
vn 0.2350 -0.9656 -0.1113
vn 0.1632 -0.9854 -0.0488
vn 0.2443 -0.9685 -0.0481
vn 0.1586 -0.9873 -0.0087
vn 0.2381 -0.9712 0.0116
vn 0.1458 -0.9891 0.0227
vn 0.2218 -0.9732 0.0599
vn 0.1236 -0.9906 0.0584
vn 0.1862 -0.9762 0.1114
vn 0.0826 -0.9924 0.0910
vn 0.1257 -0.9785 0.1633
vn 0.0400 -0.9935 0.1065
vn 0.0620 -0.9795 0.1915
vn 0.0106 -0.9941 0.1079
vn 0.0156 -0.9798 0.1992
vn -0.9239 -0.0000 -0.3827
vn -0.9966 -0.0000 -0.0828
vn -0.9732 -0.0000 -0.2301
vn 0.9239 -0.0000 -0.3827
vn 0.9733 -0.0000 -0.2296
vn 0.9964 -0.0000 -0.0844
vn -0.3827 -0.0000 -0.9239
vn 0.9071 -0.4210 -0.0000
vn -0.9071 -0.4210 -0.0000
vn -0.6171 0.7869 -0.0000
vn -0.4246 0.9054 -0.0000
vn -0.5026 0.8645 -0.0000
vn -0.0853 0.9964 -0.0000
vn -0.0850 0.9964 -0.0000
vn 0.0093 -0.9777 -0.2099
vn 0.0770 -0.9560 -0.2831
vn 0.0368 -0.9524 -0.3025
vn 0.0034 -0.9470 -0.3213
vn -0.0444 -0.9533 -0.2989
vn -0.0001 -0.9987 -0.0504
vn -0.0000 -0.9946 0.1040
vn -0.0000 -0.9799 0.1993
vn -0.0000 0.9803 0.1973
vn -0.0000 0.9578 0.2875
vn -0.0000 0.9568 0.2908
vt 0.500168 0.571692
vt 0.500168 0.565709
vt 0.503383 0.575226
vt 0.500168 0.408246
vt 0.503496 0.407074
vt 0.500168 0.409376
vt 0.000000 0.000000
vt 0.496839 0.615235
vt 0.500168 0.616489
vt 0.496952 0.399272
vt 0.500168 0.398912
vt 0.504875 0.608248
vt 0.503496 0.610518
vt 0.504875 0.582843
vt 0.503383 0.575226
vt 0.500167 0.610844
vt 0.500167 0.571691
vt 0.496952 0.575226
vt 0.496839 0.610518
vt 0.495460 0.582843
vt 0.495460 0.608248
vt 0.592926 0.615235
vt 0.592926 0.610518
vt 0.595758 0.612763
vt 0.595758 0.608248
vt 0.600561 0.608706
vt 0.600561 0.582843
vt 0.588982 0.582843
vt 0.588982 0.608248
vt 0.503496 0.615235
vt 0.503496 0.610518
vt 0.496839 0.610518
vt 0.504875 0.411018
vt 0.503383 0.411018
vt 0.504875 0.399439
vt 0.503383 0.399272
vt 0.500167 0.411018
vt 0.496952 0.411018
vt 0.495460 0.399439
vt 0.495460 0.411018
vt 0.495125 0.404242
vt 0.496504 0.407074
vt 0.495125 0.411018
vt 0.496504 0.411018
vt 0.499833 0.408246
vt 0.499833 0.411018
vt 0.503161 0.411018
vt 0.503161 0.407074
vt 0.504540 0.411018
vt 0.504540 0.404242
vt 0.407074 0.615235
vt 0.404242 0.612763
vt 0.407074 0.610518
vt 0.404242 0.608248
vt 0.399439 0.608706
vt 0.399439 0.582843
vt 0.411018 0.582843
vt 0.411018 0.608248
vt 0.527532 0.609967
vt 0.519517 0.609250
vt 0.527532 0.565709
vt 0.519517 0.565709
vt 0.514891 0.582843
vt 0.514891 0.609027
vt 0.513399 0.575226
vt 0.510184 0.565709
vt 0.510184 0.571691
vt 0.506969 0.575226
vt 0.500168 0.565709
vt 0.505476 0.582843
vt 0.500168 0.608646
vt 0.500168 0.587178
vt 0.505476 0.608727
vt 0.598074 0.565709
vt 0.604892 0.565709
vt 0.598074 0.609967
vt 0.605003 0.610917
vt 0.612832 0.565709
vt 0.612832 0.611989
vt 0.621353 0.565709
vt 0.621353 0.613157
vt 0.631725 0.565709
vt 0.631725 0.614578
vt 0.641715 0.565709
vt 0.641715 0.615947
vt 0.651015 0.565709
vt 0.651015 0.617222
vt 0.473773 0.565709
vt 0.481293 0.565709
vt 0.473773 0.617222
vt 0.481293 0.617955
vt 0.490492 0.565709
vt 0.490492 0.618377
vt 0.499832 0.565709
vt 0.499832 0.618521
vt 0.505476 0.589026
vt 0.505476 0.593828
vt 0.500168 0.588432
vt 0.500168 0.598896
vt 0.500168 0.593664
vt 0.506993 0.599660
vt 0.500168 0.623817
vt 0.506855 0.596660
vt 0.510184 0.597833
vt 0.513354 0.601902
vt 0.513512 0.596660
vt 0.519517 0.592842
vt 0.514891 0.593828
vt 0.514891 0.591212
vt 0.518780 0.605444
vt 0.527532 0.598074
vt 0.523014 0.610214
vt 0.533682 0.605003
vt 0.525656 0.615564
vt 0.537548 0.612832
vt 0.526553 0.621364
vt 0.538866 0.621353
vt 0.525362 0.629191
vt 0.537287 0.631725
vt 0.521818 0.637160
vt 0.532844 0.641715
vt 0.516828 0.644172
vt 0.526227 0.651015
vt 0.512385 0.647336
vt 0.518707 0.656370
vt 0.506427 0.649331
vt 0.509508 0.659450
vt 0.500168 0.650032
vt 0.500168 0.660496
vt 0.505476 0.608248
vt 0.506855 0.610518
vt 0.510184 0.610844
vt 0.513512 0.609146
vt 0.514891 0.606585
vt 0.499832 0.588432
vt 0.499832 0.660496
vt 0.489816 0.589553
vt 0.490492 0.659450
vt 0.481293 0.656370
vt 0.480483 0.592842
vt 0.473773 0.651015
vt 0.472468 0.598074
vt 0.467156 0.641715
vt 0.466318 0.604892
vt 0.462713 0.631725
vt 0.462452 0.612832
vt 0.461134 0.621353
vt 0.403340 0.609146
vt 0.406172 0.606585
vt 0.403340 0.613661
vt 0.406172 0.611100
vt 0.408788 0.609027
vt 0.408788 0.582843
vt 0.399396 0.606585
vt 0.399396 0.582843
vt 0.596660 0.615033
vt 0.593828 0.612763
vt 0.596660 0.610518
vt 0.593828 0.608248
vt 0.589026 0.608727
vt 0.589026 0.582843
vt 0.600604 0.582843
vt 0.600604 0.608248
vt 0.513512 0.609146
vt 0.513512 0.613661
vt 0.510184 0.615359
vt 0.506855 0.610518
vt 0.506855 0.615033
vt 0.505476 0.600604
vt 0.505476 0.589026
vt 0.506969 0.600604
vt 0.506969 0.589193
vt 0.510184 0.600604
vt 0.510184 0.589553
vt 0.513399 0.600604
vt 0.513399 0.590686
vt 0.514891 0.600604
vt 0.514891 0.591212
vt 0.485109 0.600604
vt 0.485109 0.593828
vt 0.486488 0.600604
vt 0.486488 0.596660
vt 0.489816 0.600604
vt 0.489816 0.597833
vt 0.493145 0.600604
vt 0.493145 0.596660
vt 0.494524 0.600604
vt 0.494524 0.593828
vt 0.362247 0.628425
vt 0.362247 0.631562
vt 0.358982 0.628425
vt 0.358982 0.631562
vt 0.354946 0.628425
vt 0.354946 0.631562
vt 0.351681 0.628425
vt 0.351681 0.631562
vt 0.495488 0.631562
vt 0.495488 0.628425
vt 0.500000 0.631562
vt 0.500000 0.628425
vt 0.504512 0.631562
vt 0.504512 0.628425
vt 0.637753 0.631562
vt 0.637753 0.628425
vt 0.641018 0.631562
vt 0.641018 0.628425
vt 0.645054 0.631562
vt 0.645054 0.628425
vt 0.648319 0.631562
vt 0.648319 0.628425
vt 0.495488 0.631562
vt 0.495488 0.628425
vt 0.500000 0.631562
vt 0.500000 0.628425
vt 0.504512 0.631562
vt 0.504512 0.628425
vt 0.488300 0.622682
vt 0.483695 0.622682
vt 0.488300 0.617182
vt 0.483695 0.617182
vt 0.516305 0.622682
vt 0.511700 0.622682
vt 0.516305 0.617182
vt 0.511700 0.617182
vt 0.610674 0.617182
vt 0.610674 0.622682
vt 0.605367 0.617182
vt 0.605367 0.622682
vt 0.516305 0.610674
vt 0.511700 0.610674
vt 0.516305 0.605367
vt 0.511700 0.605367
vt 0.394633 0.622682
vt 0.389326 0.622682
vt 0.394633 0.617182
vt 0.389326 0.617182
vt 0.516305 0.617182
vt 0.516305 0.622682
vt 0.511700 0.617182
vt 0.511700 0.622682
vt 0.488300 0.617182
vt 0.488300 0.622682
vt 0.483695 0.617182
vt 0.483695 0.622682
vt 0.488300 0.605367
vt 0.488300 0.610674
vt 0.483695 0.605367
vt 0.483695 0.610674
vt 0.610674 0.622682
vt 0.354047 0.622257
vt 0.354047 0.628425
vt 0.352311 0.622257
vt 0.352311 0.628425
vt 0.350165 0.622257
vt 0.350165 0.628425
vt 0.348429 0.622257
vt 0.348429 0.628425
vt 0.479434 0.628425
vt 0.479434 0.622257
vt 0.481833 0.628425
vt 0.481833 0.622257
vt 0.484232 0.628425
vt 0.484232 0.622257
vt 0.645953 0.628425
vt 0.645953 0.622257
vt 0.647689 0.628425
vt 0.647689 0.622257
vt 0.649835 0.628425
vt 0.649835 0.622257
vt 0.651571 0.628425
vt 0.651571 0.622257
vt 0.515768 0.628425
vt 0.515768 0.622257
vt 0.518167 0.628425
vt 0.518167 0.622257
vt 0.520566 0.628425
vt 0.520566 0.622257
vt 0.484232 0.645953
vt 0.485714 0.647689
vt 0.481833 0.645290
vt 0.477951 0.647689
vt 0.479434 0.645953
vt 0.484232 0.651571
vt 0.485714 0.649835
vt 0.479434 0.651571
vt 0.481833 0.652234
vt 0.477951 0.649835
vt 0.500000 0.643036
vt 0.492700 0.645054
vt 0.492700 0.641018
vt 0.495488 0.637753
vt 0.495488 0.648319
vt 0.500000 0.636505
vt 0.500000 0.649566
vt 0.504512 0.637753
vt 0.504512 0.648319
vt 0.507300 0.641018
vt 0.507300 0.645054
vt 0.504512 0.648319
vt 0.500000 0.643036
vt 0.507300 0.645054
vt 0.507300 0.641018
vt 0.500000 0.649566
vt 0.504512 0.637753
vt 0.495488 0.648319
vt 0.500000 0.636505
vt 0.492700 0.645054
vt 0.495488 0.637753
vt 0.492700 0.641018
vt 0.361356 0.622257
vt 0.361356 0.628425
vt 0.358642 0.622257
vt 0.358642 0.628425
vt 0.355287 0.622257
vt 0.355287 0.628425
vt 0.352573 0.622257
vt 0.352573 0.628425
vt 0.496249 0.628425
vt 0.496249 0.622257
vt 0.500000 0.622257
vt 0.503751 0.628425
vt 0.503751 0.622257
vt 0.638644 0.628425
vt 0.638644 0.622257
vt 0.641358 0.628425
vt 0.641358 0.622257
vt 0.644713 0.628425
vt 0.644713 0.622257
vt 0.647427 0.628425
vt 0.647427 0.622257
vt 0.496249 0.628425
vt 0.496249 0.622257
vt 0.500000 0.622257
vt 0.503751 0.628425
vt 0.503751 0.622257
s 1
f 5/1/1 4/2/2 3/3/3
f 11/4/4 13/5/5 12/6/6
f 10/7/7 11/4/4 12/6/6 36/8/8 32/9/7
f 4/2/2 5/1/1 6/7/9 42/10/9 41/11/9
f 6/7/10 4/7/10 15/7/11 5/7/11 41/11/11 42/10/11
f 18/12/9 17/13/9 16/14/9
f 19/15/9 16/14/9 17/13/9
f 17/13/9 20/16/9 19/15/9
f 21/17/9 19/15/9 20/16/9
f 21/17/9 20/16/9 22/18/9
f 23/19/9 22/18/9 20/16/9
f 22/18/9 23/19/9 24/20/9
f 25/21/9 24/20/9 23/19/9
f 27/22/12 26/23/13 14/24/14
f 28/25/15 14/24/14 26/23/13
f 14/24/14 28/25/15 2/26/16
f 28/25/15 1/27/17 2/26/16
f 1/27/17 28/25/15 29/28/18
f 30/29/19 29/28/18 28/25/15
f 33/30/20 32/9/21 31/31/20
f 34/16/21 31/31/20 32/9/21
f 34/16/22 32/9/22 35/32/23
f 36/8/24 35/32/23 32/9/22
f 38/33/25 37/34/26 1/35/27
f 39/36/28 1/35/27 37/34/26
f 37/34/29 40/37/29 39/36/29
f 41/11/29 39/36/29 40/37/29
f 41/11/30 40/37/30 42/10/30
f 43/38/31 42/10/30 40/37/30
f 42/10/32 43/38/33 7/39/34
f 44/40/35 7/39/34 43/38/33
f 47/41/36 46/42/36 45/43/36
f 48/44/36 45/43/36 46/42/36
f 46/42/37 49/45/38 48/44/37
f 50/46/38 48/44/37 49/45/38
f 50/46/38 49/45/38 51/47/39
f 52/48/39 51/47/39 49/45/38
f 51/47/40 52/48/40 53/49/40
f 54/50/40 53/49/40 52/48/40
f 56/51/41 9/52/42 55/53/43
f 57/54/44 55/53/43 9/52/42
f 57/54/44 9/52/42 8/55/45
f 7/56/46 57/54/44 8/55/45
f 7/56/46 58/57/47 57/54/44
f 59/58/48 57/54/44 58/57/47
f 62/59/49 61/60/50 60/61/49
f 63/62/51 60/61/49 61/60/50
f 63/62/51 61/60/50 64/63/52
f 65/64/52 64/63/52 61/60/50
f 63/62/51 64/63/52 66/65/52
f 63/62/51 66/65/52 67/66/53
f 68/67/54 67/66/53 66/65/52
f 68/67/54 69/68/55 67/66/53
f 70/69/56 67/66/53 69/68/55
f 70/69/56 69/68/55 71/70/57
f 70/69/56 71/70/57 2/71/58 1/72/59
f 72/73/60 2/71/58 71/70/57
f 75/74/61 74/75/62 73/76/63
f 76/77/64 73/76/63 74/75/62
f 74/75/62 77/78/65 76/77/64
f 78/79/66 76/77/64 77/78/65
f 77/78/65 79/80/67 78/79/66
f 80/81/68 78/79/66 79/80/67
f 79/80/67 81/82/69 80/81/68
f 82/83/70 80/81/68 81/82/69
f 81/82/69 83/84/71 82/83/70
f 84/85/72 82/83/70 83/84/71
f 83/84/71 85/86/73 84/85/72
f 86/87/73 84/85/72 85/86/73
f 89/88/74 88/89/75 87/90/74
f 90/91/76 87/90/74 88/89/75
f 88/89/75 91/92/77 90/91/76
f 92/93/78 90/91/76 91/92/77
f 91/92/77 93/94/79 92/93/78
f 94/95/80 92/93/78 93/94/79
f 96/96/81 95/97/82 2/98/83
f 97/99/84 14/100/85 2/98/83 95/97/82
f 97/99/84 95/97/82 98/101/86
f 98/101/86 99/102/87 97/99/84
f 100/103/88 98/101/86 95/97/82
f 100/103/88 101/104/89 98/101/86
f 98/101/86 101/104/89 102/105/90
f 102/105/90 99/102/87 98/101/86
f 103/106/91 102/105/90 101/104/89
f 102/105/90 103/106/91 104/107/92
f 105/108/91 104/107/92 103/106/91
f 104/107/92 105/108/91 106/109/93
f 102/105/90 104/107/92 107/110/94
f 107/110/94 99/102/87 102/105/90
f 108/111/95 107/110/94 104/107/92
f 107/110/94 108/111/95 109/112/96
f 109/112/96 99/102/87 107/110/94
f 110/113/97 109/112/96 108/111/95
f 111/114/98 99/102/87 109/112/96
f 109/112/96 110/113/97 111/114/98
f 112/115/99 111/114/98 110/113/97
f 113/116/100 99/102/87 111/114/98
f 111/114/98 112/115/99 113/116/100
f 114/117/101 113/116/100 112/115/99
f 113/116/100 114/117/101 115/118/102
f 115/118/102 99/102/87 113/116/100
f 116/119/103 115/118/102 114/117/101
f 115/118/102 116/119/103 117/120/104
f 117/120/104 99/102/87 115/118/102
f 118/121/105 117/120/104 116/119/103
f 117/120/104 118/121/105 119/122/106
f 119/122/106 99/102/87 117/120/104
f 120/123/107 119/122/106 118/121/105
f 119/122/106 120/123/107 121/124/108
f 121/124/108 99/102/87 119/122/106
f 122/125/109 121/124/108 120/123/107
f 121/124/108 122/125/109 123/126/110
f 123/126/110 99/102/87 121/124/108
f 124/127/111 123/126/110 122/125/109
f 125/128/112 99/102/87 123/126/110
f 123/126/110 124/127/111 125/128/112
f 126/129/113 125/128/112 124/127/111
f 129/130/9 128/70/9 127/131/9
f 130/68/9 127/131/9 128/70/9
f 127/131/9 130/68/9 131/132/9
f 132/67/9 131/132/9 130/68/9
f 132/67/9 133/65/9 131/132/9
f 134/133/9 131/132/9 133/65/9
f 133/65/9 135/63/9 134/133/9
f 136/134/9 134/133/9 135/63/9
f 138/135/38 137/136/38 139/137/38
f 140/138/38 139/137/38 137/136/38
f 140/138/38 141/139/38 139/137/38
f 142/140/38 139/137/38 141/139/38
f 141/139/38 143/141/38 142/140/38
f 144/142/38 142/140/38 143/141/38
f 143/141/38 145/143/38 144/142/38
f 146/144/38 144/142/38 145/143/38
f 145/143/38 147/145/38 146/144/38
f 148/146/38 146/144/38 147/145/38
f 149/147/38 148/146/38 147/145/38
f 152/148/114 151/149/115 150/150/114
f 153/151/116 150/150/114 151/149/115
f 153/151/116 151/149/115 154/152/19
f 154/152/19 151/149/115 155/153/19
f 151/149/115 156/154/19 155/153/19
f 157/155/19 155/153/19 156/154/19
f 160/156/117 159/157/118 158/158/117
f 161/159/119 158/158/117 159/157/118
f 161/159/119 159/157/118 162/160/48
f 163/161/48 161/159/119 162/160/48
f 163/161/48 164/162/48 161/159/119
f 165/163/48 161/159/119 164/162/48
f 168/164/120 167/165/120 166/132/120
f 169/166/120 166/132/120 167/165/120
f 166/132/22 169/166/22 170/167/22
f 171/168/22 170/167/22 169/166/22
f 174/169/121 173/170/121 172/171/121
f 175/172/121 172/171/121 173/170/121
f 172/171/31 175/172/31 176/173/31
f 177/174/31 176/173/31 175/172/31
f 176/173/29 177/174/29 178/175/29
f 179/176/29 178/175/29 177/174/29
f 178/175/122 179/176/122 180/177/122
f 181/178/122 180/177/122 179/176/122
f 184/179/123 183/180/123 182/181/124
f 185/182/125 182/181/124 183/180/123
f 182/181/124 185/182/125 186/183/126
f 187/184/127 186/183/126 185/182/125
f 186/183/126 187/184/127 188/185/39
f 189/186/39 188/185/39 187/184/127
f 188/185/40 189/186/40 190/187/40
f 191/188/40 190/187/40 189/186/40
f 1/72/59 3/7/3 39/7/9 138/7/9 70/69/56
f 3/7/3 4/7/2 15/7/9 70/69/9 138/7/9 39/7/9
f 42/7/9 15/7/9 4/7/10 6/7/10
f 192/7/9 15/7/9 4/7/9 42/10/9 6/7/9 200/7/9
f 7/72/9 192/69/9 200/7/9 6/7/9
f 195/99/128 9/100/129 36/7/8 56/7/130 10/7/130
f 12/6/6 195/99/128 10/7/130 56/7/130 36/7/8
f 97/7/84 12/7/6 27/7/131 33/7/131 13/7/132
f 14/100/85 97/99/84 13/7/132
f 13/7/9 33/7/9 27/7/9 14/24/9
f 99/7/87 196/7/133 12/7/6
f 12/7/6 97/99/84 99/7/87
f 195/99/128 12/7/6 196/102/133
f 125/128/112 197/128/134 196/102/133 99/7/87
f 126/129/113 198/129/135 197/128/134 125/128/112
f 94/95/80 93/94/79 193/94/136 194/95/136
f 15/7/38 192/7/38 200/7/38 199/7/38 193/7/38 4/7/38
f 93/7/38 15/7/38 4/7/38 193/7/38 199/7/38 137/7/38
f 137/7/137 4/7/137 15/7/137 138/7/137 70/69/137 93/7/137
f 203/189/138 202/190/138 201/191/138
f 204/192/138 201/191/138 202/190/138
f 201/191/19 204/192/19 205/193/19
f 206/194/19 205/193/19 204/192/19
f 205/193/139 206/194/139 207/195/139
f 208/196/139 207/195/139 206/194/139
f 211/197/140 210/198/140 209/199/140
f 212/200/140 209/199/140 210/198/140
f 209/199/141 212/200/141 213/201/141
f 214/202/141 213/201/141 212/200/141
f 217/203/142 216/204/142 215/205/142
f 218/206/142 215/205/142 216/204/142
f 215/205/48 218/206/48 219/207/48
f 220/208/48 219/207/48 218/206/48
f 219/207/143 220/208/143 221/209/143
f 222/210/143 221/209/143 220/208/143
f 225/211/144 224/212/144 223/213/144
f 226/214/144 223/213/144 224/212/144
f 223/213/145 226/214/145 227/215/145
f 228/216/145 227/215/145 226/214/145
f 231/217/136 230/218/136 229/219/136
f 232/220/136 229/219/136 230/218/136
f 235/221/9 234/222/9 233/223/9
f 236/224/9 233/223/9 234/222/9
f 239/225/48 238/226/48 237/227/48
f 240/228/48 237/227/48 238/226/48
f 243/229/137 242/230/137 241/231/137
f 244/232/137 241/231/137 242/230/137
f 247/233/19 246/234/19 245/235/19
f 248/236/19 245/235/19 246/234/19
f 251/237/136 250/238/136 249/239/136
f 252/240/136 249/239/136 250/238/136
f 255/241/9 254/242/9 253/243/9
f 256/244/9 253/243/9 254/242/9
f 259/233/19 258/234/19 257/235/19
f 260/236/19 257/235/19 258/234/19
f 263/245/137 262/246/137 261/247/137
f 264/248/137 261/247/137 262/246/137
f 267/225/48 266/249/48 265/227/48
f 268/228/48 265/227/48 266/249/48
f 271/250/138 270/251/138 269/252/138
f 272/253/138 269/252/138 270/251/138
f 269/252/19 272/253/19 273/254/19
f 274/255/19 273/254/19 272/253/19
f 273/254/139 274/255/139 275/256/139
f 276/257/139 275/256/139 274/255/139
f 279/258/140 278/259/140 277/260/140
f 280/261/140 277/260/140 278/259/140
f 277/260/141 280/261/141 281/262/141
f 282/263/141 281/262/141 280/261/141
f 285/264/142 284/265/142 283/266/142
f 286/267/142 283/266/142 284/265/142
f 283/266/48 286/267/48 287/268/48
f 288/269/48 287/268/48 286/267/48
f 287/268/143 288/269/143 289/270/143
f 290/271/143 289/270/143 288/269/143
f 293/272/144 292/273/144 291/274/144
f 294/275/144 291/274/144 292/273/144
f 291/274/145 294/275/145 295/276/145
f 296/277/145 295/276/145 294/275/145
f 299/278/137 298/279/137 297/280/137
f 298/279/137 300/281/137 297/280/137
f 297/280/137 300/281/137 301/282/137
f 302/283/137 300/281/137 298/279/137
f 303/284/137 302/283/137 298/279/137
f 304/285/137 300/281/137 302/283/137
f 305/286/137 304/285/137 302/283/137
f 306/287/137 300/281/137 304/285/137
f 309/288/137 308/289/146 307/290/147
f 309/288/137 307/290/147 310/291/148
f 309/288/137 311/292/149 308/289/146
f 309/288/137 310/291/148 312/293/150
f 309/288/137 313/294/151 311/292/149
f 309/288/137 312/293/150 314/295/152
f 309/288/137 315/296/153 313/294/151
f 309/288/137 314/295/152 316/297/154
f 309/288/137 317/298/155 315/296/153
f 309/288/137 316/297/154 317/298/155
f 320/299/38 319/300/38 318/301/38
f 318/301/38 319/300/38 321/302/38
f 322/303/38 319/300/38 320/299/38
f 321/302/38 319/300/38 323/304/38
f 324/305/38 319/300/38 322/303/38
f 323/304/38 319/300/38 325/306/38
f 326/307/38 319/300/38 324/305/38
f 325/306/38 319/300/38 327/308/38
f 328/309/38 319/300/38 326/307/38
f 327/308/38 319/300/38 328/309/38
f 331/310/138 330/311/138 329/312/138
f 332/313/138 329/312/138 330/311/138
f 329/312/19 332/313/19 333/314/19
f 334/315/19 333/314/19 332/313/19
f 333/314/139 334/315/139 335/316/139
f 336/317/139 335/316/139 334/315/139
f 339/318/140 338/319/140 337/200/140
f 340/320/140 337/200/140 338/319/140
f 337/200/141 340/320/141 341/321/141
f 342/322/141 341/321/141 340/320/141
f 345/323/142 344/324/142 343/325/142
f 346/326/142 343/325/142 344/324/142
f 343/325/48 346/326/48 347/327/48
f 348/328/48 347/327/48 346/326/48
f 347/327/143 348/328/143 349/329/143
f 350/330/143 349/329/143 348/328/143
f 353/331/144 352/332/144 351/214/144
f 354/333/144 351/214/144 352/332/144
f 351/214/145 354/333/145 355/334/145
f 356/335/145 355/334/145 354/333/145
f 361/1/156 360/2/157 359/3/158
f 367/4/159 369/5/160 368/6/161
f 366/7/162 367/4/159 368/6/161 392/8/163 388/9/162
f 360/2/9 361/1/9 362/7/9 398/10/9 397/11/9
f 362/7/164 360/7/164 371/7/164 361/7/164 397/11/164 398/10/164
f 374/12/136 373/13/136 372/14/136
f 375/15/136 372/14/136 373/13/136
f 373/13/136 376/16/136 375/15/136
f 377/17/136 375/15/136 376/16/136
f 377/17/136 376/16/136 378/18/136
f 379/19/136 378/18/136 376/16/136
f 378/18/136 379/19/136 380/20/136
f 381/21/136 380/20/136 379/19/136
f 383/22/165 382/23/166 370/24/167
f 384/25/168 370/24/167 382/23/166
f 370/24/167 384/25/168 358/26/169
f 384/25/168 357/27/170 358/26/169
f 357/27/170 384/25/168 385/28/171
f 386/29/19 385/28/171 384/25/168
f 389/30/172 388/9/173 387/31/172
f 390/16/173 387/31/172 388/9/173
f 390/16/174 388/9/174 391/32/175
f 392/8/176 391/32/175 388/9/174
f 394/33/177 393/34/178 357/35/179
f 395/36/180 357/35/179 393/34/178
f 393/34/181 396/37/181 395/36/181
f 397/11/181 395/36/181 396/37/181
f 397/11/182 396/37/182 398/10/182
f 399/38/183 398/10/182 396/37/182
f 398/10/184 399/38/185 363/39/186
f 400/40/187 363/39/186 399/38/185
f 403/41/188 402/42/188 401/43/188
f 404/44/188 401/43/188 402/42/188
f 402/42/189 405/45/137 404/44/189
f 406/46/137 404/44/189 405/45/137
f 406/46/137 405/45/137 407/47/190
f 408/48/190 407/47/190 405/45/137
f 407/47/191 408/48/191 409/49/191
f 410/50/191 409/49/191 408/48/191
f 412/51/192 365/52/193 411/53/194
f 413/54/195 411/53/194 365/52/193
f 413/54/195 365/52/193 364/55/196
f 363/56/197 413/54/195 364/55/196
f 363/56/197 414/57/198 413/54/195
f 415/58/48 413/54/195 414/57/198
f 418/59/199 417/60/200 416/61/199
f 419/62/201 416/61/199 417/60/200
f 419/62/201 417/60/200 420/63/202
f 421/64/202 420/63/202 417/60/200
f 419/62/201 420/63/202 422/65/202
f 419/62/201 422/65/202 423/66/203
f 424/67/204 423/66/203 422/65/202
f 424/67/204 425/68/205 423/66/203
f 426/69/80 423/66/203 425/68/205
f 426/69/80 425/68/205 427/70/206
f 426/69/80 427/70/206 358/71/207 357/72/208
f 428/73/209 358/71/207 427/70/206
f 431/74/210 430/75/211 429/76/212
f 432/77/213 429/76/212 430/75/211
f 430/75/211 433/78/214 432/77/213
f 434/79/215 432/77/213 433/78/214
f 433/78/214 435/80/216 434/79/215
f 436/81/217 434/79/215 435/80/216
f 435/80/216 437/82/218 436/81/217
f 438/83/219 436/81/217 437/82/218
f 437/82/218 439/84/220 438/83/219
f 440/85/221 438/83/219 439/84/220
f 439/84/220 441/86/222 440/85/221
f 442/87/222 440/85/221 441/86/222
f 445/88/223 444/89/224 443/90/223
f 446/91/225 443/90/223 444/89/224
f 444/89/224 447/92/226 446/91/225
f 448/93/227 446/91/225 447/92/226
f 447/92/226 449/94/228 448/93/227
f 450/95/56 448/93/227 449/94/228
f 452/96/229 451/97/230 358/98/231
f 453/99/232 370/100/233 358/98/231 451/97/230
f 453/99/232 451/97/230 454/101/234
f 454/101/234 455/102/235 453/99/232
f 456/103/236 454/101/234 451/97/230
f 456/103/236 457/104/237 454/101/234
f 454/101/234 457/104/237 458/105/238
f 458/105/238 455/102/235 454/101/234
f 459/106/239 458/105/238 457/104/237
f 458/105/238 459/106/239 460/107/240
f 461/108/239 460/107/240 459/106/239
f 460/107/240 461/108/239 462/109/241
f 458/105/238 460/107/240 463/110/242
f 463/110/242 455/102/235 458/105/238
f 464/111/243 463/110/242 460/107/240
f 463/110/242 464/111/243 465/112/244
f 465/112/244 455/102/235 463/110/242
f 466/113/245 465/112/244 464/111/243
f 467/114/246 455/102/235 465/112/244
f 465/112/244 466/113/245 467/114/246
f 468/115/247 467/114/246 466/113/245
f 469/116/248 455/102/235 467/114/246
f 467/114/246 468/115/247 469/116/248
f 470/117/249 469/116/248 468/115/247
f 469/116/248 470/117/249 471/118/250
f 471/118/250 455/102/235 469/116/248
f 472/119/251 471/118/250 470/117/249
f 471/118/250 472/119/251 473/120/252
f 473/120/252 455/102/235 471/118/250
f 474/121/253 473/120/252 472/119/251
f 473/120/252 474/121/253 475/122/254
f 475/122/254 455/102/235 473/120/252
f 476/123/255 475/122/254 474/121/253
f 475/122/254 476/123/255 477/124/256
f 477/124/256 455/102/235 475/122/254
f 478/125/257 477/124/256 476/123/255
f 477/124/256 478/125/257 479/126/258
f 479/126/258 455/102/235 477/124/256
f 480/127/259 479/126/258 478/125/257
f 481/128/260 455/102/235 479/126/258
f 479/126/258 480/127/259 481/128/260
f 482/129/261 481/128/260 480/127/259
f 485/130/136 484/70/136 483/131/136
f 486/68/136 483/131/136 484/70/136
f 483/131/136 486/68/136 487/132/136
f 488/67/136 487/132/136 486/68/136
f 488/67/136 489/65/136 487/132/136
f 490/133/136 487/132/136 489/65/136
f 489/65/136 491/63/136 490/133/136
f 492/134/136 490/133/136 491/63/136
f 494/135/137 493/136/137 495/137/137
f 496/138/137 495/137/137 493/136/137
f 496/138/137 497/139/137 495/137/137
f 498/140/137 495/137/137 497/139/137
f 497/139/137 499/141/137 498/140/137
f 500/142/137 498/140/137 499/141/137
f 499/141/137 501/143/137 500/142/137
f 502/144/137 500/142/137 501/143/137
f 501/143/137 503/145/137 502/144/137
f 504/146/137 502/144/137 503/145/137
f 505/147/137 504/146/137 503/145/137
f 508/148/262 507/149/263 506/150/262
f 509/151/264 506/150/262 507/149/263
f 509/151/264 507/149/263 510/152/19
f 510/152/19 507/149/263 511/153/19
f 507/149/263 512/154/19 511/153/19
f 513/155/19 511/153/19 512/154/19
f 516/156/265 515/157/266 514/158/265
f 517/159/267 514/158/265 515/157/266
f 517/159/267 515/157/266 518/160/48
f 519/161/48 517/159/267 518/160/48
f 519/161/48 520/162/48 517/159/267
f 521/163/48 517/159/267 520/162/48
f 524/164/268 523/165/268 522/132/268
f 525/166/268 522/132/268 523/165/268
f 522/132/174 525/166/174 526/167/174
f 527/168/174 526/167/174 525/166/174
f 530/169/269 529/170/269 528/171/269
f 531/172/269 528/171/269 529/170/269
f 528/171/183 531/172/183 532/173/183
f 533/174/183 532/173/183 531/172/183
f 532/173/181 533/174/181 534/175/181
f 535/176/181 534/175/181 533/174/181
f 534/175/270 535/176/270 536/177/270
f 537/178/270 536/177/270 535/176/270
f 540/179/271 539/180/271 538/181/272
f 541/182/273 538/181/272 539/180/271
f 538/181/272 541/182/273 542/183/274
f 543/184/275 542/183/274 541/182/273
f 542/183/274 543/184/275 544/185/190
f 545/186/190 544/185/190 543/184/275
f 544/185/191 545/186/191 546/187/191
f 547/188/191 546/187/191 545/186/191
f 357/72/208 359/7/158 395/7/136 494/7/136 426/69/80
f 359/7/158 360/7/157 371/7/136 426/69/136 494/7/136 395/7/136
f 398/7/9 371/7/9 360/7/9 362/7/9
f 548/7/136 371/7/136 360/7/136 398/10/136 362/7/136 556/7/136
f 363/72/136 548/69/136 556/7/136 362/7/136
f 551/99/276 365/100/277 392/7/163 412/7/278 366/7/278
f 368/6/161 551/99/276 366/7/278 412/7/278 392/7/163
f 453/7/232 368/7/161 383/7/279 389/7/279 369/7/280
f 370/100/233 453/99/232 369/7/280
f 369/7/9 389/7/9 383/7/9 370/24/9
f 455/7/235 552/7/281 368/7/161
f 368/7/161 453/99/232 455/7/235
f 551/99/276 368/7/161 552/102/281
f 481/128/260 553/128/282 552/102/281 455/7/235
f 482/129/261 554/129/283 553/128/282 481/128/260
f 450/95/56 449/94/228 549/94/9 550/95/9
f 371/7/137 548/7/137 556/7/137 555/7/137 549/7/137 360/7/137
f 449/7/137 371/7/137 360/7/137 549/7/137 555/7/137 493/7/137
f 493/7/38 360/7/38 371/7/38 494/7/38 426/69/38 449/7/38
f 199/7/9 193/7/9 194/7/9 550/7/9 549/7/9 555/7/9
f 198/129/135 554/129/135 553/128/134 197/128/134
f 197/128/134 553/128/134 552/102/133 196/102/133
f 196/102/133 552/102/133 551/99/284 195/99/128
f 195/99/128 551/99/284 365/100/285 9/100/129
f 9/100/129 365/100/285 364/55/286 8/55/286
f 8/55/9 364/55/9 363/56/9 7/56/9
f 556/7/9 200/7/9 192/7/9 7/7/9 363/7/9 548/7/9
f 200/7/38 556/7/38 555/7/38 199/7/38
l 9 10
l 365 366
