# Blender 4.5.3 LTS
# www.blender.org
mtllib Ken_gun_100_barrel_x4_001.mtl
o Ken_gun_100_barrel_x4_001
v 0.030856 2.678702 0.384136
v -1.789617 2.574921 -0.003183
v 0.030856 2.574921 -0.003183
v -1.789617 2.678702 0.384136
v 0.030856 2.574920 0.771455
v -1.789617 2.574921 0.771455
v 0.030856 2.291383 1.054991
v -1.789617 2.291383 1.054991
v 0.030856 1.904064 1.158773
v -1.789617 2.291383 1.054991
v 0.030856 2.291383 1.054991
v -1.789617 1.904064 1.158773
v 0.030856 1.516745 1.054991
v -1.789617 1.516745 1.054991
v 0.030856 1.233208 0.771454
v -1.789617 1.516745 1.054991
v 0.030856 1.516745 1.054991
v -1.789617 1.233208 0.771455
v 0.030856 1.129426 0.384135
v -1.789617 1.129426 0.384136
v 0.030856 1.233207 -0.003184
v -1.789617 1.233207 -0.003184
v -0.306742 1.827901 5.794046
v -0.432090 1.827901 5.111483
v -0.343455 1.916535 5.794046
v -0.343455 1.739266 5.794046
v -0.343455 1.916535 5.794046
v -0.432090 1.827901 5.111483
v -0.432090 1.953248 5.794046
v -0.520724 1.916535 5.794046
v -0.520724 1.916535 5.794046
v -0.432090 1.827901 5.111483
v -0.557438 1.827900 5.794046
v -0.520725 1.739266 5.794046
v -0.520725 1.739266 5.794046
v -0.432090 1.827901 5.111483
v -0.432090 1.702552 5.794044
v -0.343455 1.739266 5.794046
v -1.149640 1.827901 5.975610
v -1.274988 1.827901 5.293047
v -1.186353 1.916535 5.975610
v -1.186353 1.739266 5.975610
v -1.186353 1.916535 5.975610
v -1.274988 1.827901 5.293047
v -1.274988 1.953248 5.975610
v -1.363622 1.916535 5.975610
v -1.363622 1.916535 5.975610
v -1.274988 1.827901 5.293047
v -1.400336 1.827900 5.975610
v -1.363622 1.739266 5.975610
v -1.363622 1.739266 5.975610
v -1.274988 1.827901 5.293047
v -1.274988 1.702552 5.975609
v -1.186353 1.739266 5.975610
v -0.556001 1.951812 5.610307
v -0.623849 1.827903 1.864429
v -0.567684 1.963496 1.864429
v -0.607326 1.827901 5.610307
v -0.567684 1.692309 1.864429
v -0.556001 1.703990 5.610307
v -0.570282 1.689709 5.763043
v -0.627523 1.827900 5.763044
v -0.570282 1.966092 5.763044
v -0.556001 1.703990 5.610307
v -0.432090 1.636144 1.864427
v -0.567684 1.692309 1.864429
v -0.432090 1.652665 5.610305
v -0.308179 1.703990 5.610307
v -0.296496 1.692309 1.864429
v -0.293898 1.689709 5.763043
v -0.432090 1.632468 5.763043
v -0.570282 1.689709 5.763043
v -0.250064 2.009930 0.091049
v -0.200514 1.827902 2.250427
v -0.268341 1.991650 2.250427
v -0.174666 1.827903 0.091049
v -0.268341 1.664152 2.250427
v -0.250063 1.645877 0.091049
v -0.432090 2.059478 2.250427
v -0.250064 2.009930 0.091049
v -0.268341 1.991650 2.250427
v -0.432090 2.085327 0.091049
v -0.614116 2.009930 0.091049
v -0.595839 1.991650 2.250427
v -0.595839 1.991650 2.250427
v -0.689514 1.827903 0.091049
v -0.614116 2.009930 0.091049
v -0.663666 1.827902 2.250427
v -0.595839 1.664152 2.250427
v -0.614116 1.645877 0.091049
v -0.432090 1.596326 2.250427
v -0.614116 1.645877 0.091049
v -0.595839 1.664152 2.250427
v -0.432090 1.570479 0.091049
v -0.268341 1.664152 2.250427
v -0.250063 1.645877 0.091049
v -0.268341 1.991650 2.250427
v -0.432090 1.827902 2.795542
v -0.432090 2.059478 2.250427
v -0.595839 1.991650 2.250427
v -0.595839 1.991650 2.250427
v -0.432090 1.827902 2.795542
v -0.663666 1.827902 2.250427
v -0.595839 1.664152 2.250427
v -0.595839 1.664152 2.250427
v -0.432090 1.827902 2.795542
v -0.432090 1.596326 2.250427
v -0.268341 1.664152 2.250427
v -0.268341 1.664152 2.250427
v -0.432090 1.827902 2.795542
v -0.200514 1.827902 2.250427
v -0.268341 1.991650 2.250427
v -0.236657 1.827901 5.763044
v -0.308179 1.703990 5.610307
v -0.293898 1.689709 5.763043
v -0.256854 1.827901 5.610308
v -0.296496 1.692309 1.864429
v -0.293898 1.966092 5.763044
v -0.240332 1.827903 1.864429
v -0.308179 1.951812 5.610307
v -0.296496 1.963496 1.864429
v -1.398899 1.951812 5.791871
v -1.466747 1.827902 2.045993
v -1.410582 1.963496 2.045993
v -1.450224 1.827901 5.791871
v -1.410582 1.692309 2.045993
v -1.398898 1.703990 5.791871
v -1.413180 1.689708 5.944608
v -1.470421 1.827900 5.944609
v -1.413180 1.966092 5.944609
v -1.398898 1.703990 5.791871
v -1.274988 1.636144 2.045991
v -1.410582 1.692309 2.045993
v -1.274988 1.652665 5.791870
v -1.151077 1.703990 5.791871
v -1.139394 1.692309 2.045993
v -1.136796 1.689708 5.944608
v -1.274988 1.632467 5.944608
v -1.413180 1.689708 5.944608
v -1.092961 2.009930 0.091049
v -1.043412 1.827902 2.431991
v -1.111239 1.991650 2.431991
v -1.017564 1.827903 0.091049
v -1.111239 1.664152 2.431991
v -1.092961 1.645877 0.091049
v -1.274988 2.059478 2.431991
v -1.092961 2.009930 0.091049
v -1.111239 1.991650 2.431991
v -1.274988 2.085327 0.091049
v -1.457014 2.009930 0.091049
v -1.438737 1.991650 2.431991
v -1.438737 1.991650 2.431991
v -1.532412 1.827903 0.091049
v -1.457014 2.009930 0.091049
v -1.506564 1.827902 2.431991
v -1.438737 1.664152 2.431991
v -1.457014 1.645877 0.091049
v -1.274988 1.596326 2.431991
v -1.457014 1.645877 0.091049
v -1.438737 1.664152 2.431991
v -1.274988 1.570479 0.091049
v -1.111239 1.664152 2.431991
v -1.092961 1.645877 0.091049
v -1.111239 1.991650 2.431991
v -1.274988 1.827902 2.977106
v -1.274988 2.059478 2.431991
v -1.438737 1.991650 2.431991
v -1.438737 1.991650 2.431991
v -1.274988 1.827902 2.977106
v -1.506564 1.827902 2.431991
v -1.438737 1.664152 2.431991
v -1.438737 1.664152 2.431991
v -1.274988 1.827902 2.977106
v -1.274988 1.596326 2.431991
v -1.111239 1.664152 2.431991
v -1.111239 1.664152 2.431991
v -1.274988 1.827902 2.977106
v -1.043412 1.827902 2.431991
v -1.111239 1.991650 2.431991
v -1.079555 1.827901 5.944609
v -1.151077 1.703990 5.791871
v -1.136796 1.689708 5.944608
v -1.099752 1.827901 5.791873
v -1.139394 1.692309 2.045993
v -1.136796 1.966092 5.944609
v -1.083229 1.827902 2.045993
v -1.151077 1.951812 5.791871
v -1.139394 1.963496 2.045993
v -0.296496 1.963496 1.864429
v -0.432090 2.003137 5.610307
v -0.432090 2.019661 1.864429
v -0.308179 1.951812 5.610307
v -0.567684 1.963496 1.864429
v -0.293898 1.966092 5.763044
v -0.556001 1.951812 5.610307
v -0.432090 2.023333 5.763044
v -0.570282 1.966092 5.763044
v -1.139394 1.963496 2.045993
v -1.274988 2.003137 5.791871
v -1.274988 2.019661 2.045993
v -1.151077 1.951812 5.791871
v -1.410582 1.963496 2.045993
v -1.136796 1.966092 5.944609
v -1.398899 1.951812 5.791871
v -1.274988 2.023333 5.944609
v -1.413180 1.966092 5.944609
v -0.236657 1.827901 5.763044
v -0.343455 1.916535 5.794046
v -0.293898 1.966092 5.763044
v -0.306742 1.827901 5.794046
v -0.432090 1.953248 5.794046
v -0.293898 1.689709 5.763043
v -0.432090 2.023333 5.763044
v -0.343455 1.739266 5.794046
v -0.520724 1.916535 5.794046
v -0.432090 1.632468 5.763043
v -0.570282 1.966092 5.763044
v -0.432090 1.702552 5.794044
v -0.557438 1.827900 5.794046
v -0.570282 1.689709 5.763043
v -0.627523 1.827900 5.763044
v -0.520725 1.739266 5.794046
v -1.079555 1.827901 5.944609
v -1.186353 1.916535 5.975610
v -1.136796 1.966092 5.944609
v -1.149640 1.827901 5.975610
v -1.274988 1.953248 5.975610
v -1.136796 1.689708 5.944608
v -1.274988 2.023333 5.944609
v -1.186353 1.739266 5.975610
v -1.363622 1.916535 5.975610
v -1.274988 1.632467 5.944608
v -1.413180 1.966092 5.944609
v -1.274988 1.702552 5.975609
v -1.400336 1.827900 5.975610
v -1.413180 1.689708 5.944608
v -1.470421 1.827900 5.944609
v -1.363622 1.739266 5.975610
v 1.669300 2.678702 0.384136
v -0.151173 2.574921 -0.003183
v 1.669300 2.574921 -0.003183
v -0.151173 2.678702 0.384136
v 1.669300 2.574920 0.771455
v -0.151173 2.574921 0.771455
v 1.669300 2.291383 1.054991
v -0.151173 2.291383 1.054991
v 1.669300 1.904064 1.158773
v -0.151173 2.291383 1.054991
v 1.669300 2.291383 1.054991
v -0.151173 1.904064 1.158773
v 1.669300 1.516745 1.054991
v -0.151173 1.516745 1.054991
v 1.669300 1.233208 0.771454
v -0.151173 1.516745 1.054991
v 1.669300 1.516745 1.054991
v -0.151173 1.233208 0.771455
v 1.669300 1.129426 0.384135
v -0.151173 1.129426 0.384136
v 1.669300 1.233207 -0.003184
v -0.151173 1.233207 -0.003184
v 1.331702 1.827901 5.975610
v 1.206354 1.827901 5.293047
v 1.294989 1.916535 5.975610
v 1.294989 1.739266 5.975610
v 1.294989 1.916535 5.975610
v 1.206354 1.827901 5.293047
v 1.206354 1.953248 5.975610
v 1.117720 1.916535 5.975610
v 1.117720 1.916535 5.975610
v 1.206354 1.827901 5.293047
v 1.081006 1.827900 5.975610
v 1.117720 1.739266 5.975610
v 1.117720 1.739266 5.975610
v 1.206354 1.827901 5.293047
v 1.206354 1.702552 5.975609
v 1.294989 1.739266 5.975610
v 0.488804 1.827901 5.794047
v 0.363456 1.827901 5.111484
v 0.452091 1.916535 5.794047
v 0.452091 1.739266 5.794047
v 0.452091 1.916535 5.794047
v 0.363456 1.827901 5.111484
v 0.363456 1.953248 5.794047
v 0.274822 1.916535 5.794047
v 0.274822 1.916535 5.794047
v 0.363456 1.827901 5.111484
v 0.238108 1.827900 5.794047
v 0.274822 1.739266 5.794047
v 0.274822 1.739266 5.794047
v 0.363456 1.827901 5.111484
v 0.363456 1.702552 5.794045
v 0.452091 1.739266 5.794047
v 1.082443 1.951812 5.791871
v 1.014595 1.827903 2.045993
v 1.070761 1.963496 2.045993
v 1.031118 1.827901 5.791871
v 1.070760 1.692309 2.045993
v 1.082443 1.703990 5.791871
v 1.068162 1.689708 5.944608
v 1.010921 1.827900 5.944609
v 1.068162 1.966092 5.944609
v 1.082443 1.703990 5.791871
v 1.206354 1.636144 2.045991
v 1.070760 1.692309 2.045993
v 1.206354 1.652665 5.791870
v 1.330265 1.703990 5.791871
v 1.341948 1.692309 2.045993
v 1.344546 1.689708 5.944608
v 1.206354 1.632467 5.944608
v 1.068162 1.689708 5.944608
v 1.388380 2.009930 0.091049
v 1.437930 1.827902 2.431991
v 1.370103 1.991650 2.431991
v 1.463778 1.827903 0.091049
v 1.370103 1.664152 2.431991
v 1.388381 1.645877 0.091049
v 1.206354 2.059478 2.431991
v 1.388380 2.009930 0.091049
v 1.370103 1.991650 2.431991
v 1.206354 2.085327 0.091049
v 1.024328 2.009930 0.091049
v 1.042606 1.991650 2.431991
v 1.042606 1.991650 2.431991
v 0.948930 1.827903 0.091049
v 1.024328 2.009930 0.091049
v 0.974778 1.827902 2.431991
v 1.042605 1.664152 2.431991
v 1.024328 1.645877 0.091049
v 1.206354 1.596326 2.431991
v 1.024328 1.645877 0.091049
v 1.042605 1.664152 2.431991
v 1.206354 1.570479 0.091049
v 1.370103 1.664152 2.431991
v 1.388381 1.645877 0.091049
v 1.370103 1.991650 2.431991
v 1.206354 1.827902 2.977106
v 1.206354 2.059478 2.431991
v 1.042606 1.991650 2.431991
v 1.042606 1.991650 2.431991
v 1.206354 1.827902 2.977106
v 0.974778 1.827902 2.431991
v 1.042605 1.664152 2.431991
v 1.042605 1.664152 2.431991
v 1.206354 1.827902 2.977106
v 1.206354 1.596326 2.431991
v 1.370103 1.664152 2.431991
v 1.370103 1.664152 2.431991
v 1.206354 1.827902 2.977106
v 1.437930 1.827902 2.431991
v 1.370103 1.991650 2.431991
v 1.401787 1.827901 5.944609
v 1.330265 1.703990 5.791871
v 1.344546 1.689708 5.944608
v 1.381590 1.827901 5.791873
v 1.341948 1.692309 2.045993
v 1.344546 1.966092 5.944609
v 1.398113 1.827903 2.045993
v 1.330265 1.951812 5.791871
v 1.341948 1.963496 2.045993
v 0.239546 1.951812 5.610308
v 0.171698 1.827902 1.864430
v 0.227862 1.963496 1.864430
v 0.188220 1.827901 5.610308
v 0.227862 1.692309 1.864429
v 0.239546 1.703990 5.610308
v 0.225264 1.689708 5.763044
v 0.168023 1.827900 5.763045
v 0.225264 1.966092 5.763045
v 0.239546 1.703990 5.610308
v 0.363456 1.636144 1.864428
v 0.227862 1.692309 1.864429
v 0.363456 1.652665 5.610306
v 0.487367 1.703990 5.610308
v 0.499050 1.692309 1.864429
v 0.501648 1.689708 5.763044
v 0.363456 1.632467 5.763044
v 0.225264 1.689708 5.763044
v 0.545483 2.009930 0.091049
v 0.595032 1.827902 2.250427
v 0.527205 1.991650 2.250427
v 0.620880 1.827903 0.091049
v 0.527205 1.664152 2.250427
v 0.545483 1.645877 0.091049
v 0.363456 2.059478 2.250427
v 0.545483 2.009930 0.091049
v 0.527205 1.991650 2.250427
v 0.363456 2.085327 0.091049
v 0.181430 2.009930 0.091049
v 0.199707 1.991650 2.250427
v 0.199707 1.991650 2.250427
v 0.106032 1.827903 0.091049
v 0.181430 2.009930 0.091049
v 0.131880 1.827902 2.250427
v 0.199707 1.664152 2.250427
v 0.181430 1.645877 0.091049
v 0.363456 1.596326 2.250427
v 0.181430 1.645877 0.091049
v 0.199707 1.664152 2.250427
v 0.363456 1.570479 0.091049
v 0.527205 1.664152 2.250427
v 0.545483 1.645877 0.091049
v 0.527205 1.991650 2.250427
v 0.363456 1.827902 2.795543
v 0.363456 2.059478 2.250427
v 0.199707 1.991650 2.250427
v 0.199707 1.991650 2.250427
v 0.363456 1.827902 2.795543
v 0.131880 1.827902 2.250427
v 0.199707 1.664152 2.250427
v 0.199707 1.664152 2.250427
v 0.363456 1.827902 2.795543
v 0.363456 1.596326 2.250427
v 0.527205 1.664152 2.250427
v 0.527205 1.664152 2.250427
v 0.363456 1.827902 2.795543
v 0.595032 1.827902 2.250427
v 0.527205 1.991650 2.250427
v 0.558889 1.827901 5.763045
v 0.487367 1.703990 5.610308
v 0.501648 1.689708 5.763044
v 0.538692 1.827901 5.610309
v 0.499050 1.692309 1.864429
v 0.501648 1.966092 5.763045
v 0.555215 1.827902 1.864430
v 0.487367 1.951812 5.610308
v 0.499050 1.963496 1.864430
v 1.341948 1.963496 2.045993
v 1.206354 2.003137 5.791871
v 1.206354 2.019661 2.045993
v 1.330265 1.951812 5.791871
v 1.070761 1.963496 2.045993
v 1.344546 1.966092 5.944609
v 1.082443 1.951812 5.791871
v 1.206354 2.023333 5.944609
v 1.068162 1.966092 5.944609
v 0.499050 1.963496 1.864430
v 0.363456 2.003137 5.610308
v 0.363456 2.019661 1.864430
v 0.487367 1.951812 5.610308
v 0.227862 1.963496 1.864430
v 0.501648 1.966092 5.763045
v 0.239546 1.951812 5.610308
v 0.363456 2.023333 5.763045
v 0.225264 1.966092 5.763045
v 1.401787 1.827901 5.944609
v 1.294989 1.916535 5.975610
v 1.344546 1.966092 5.944609
v 1.331702 1.827901 5.975610
v 1.206354 1.953248 5.975610
v 1.344546 1.689708 5.944608
v 1.206354 2.023333 5.944609
v 1.294989 1.739266 5.975610
v 1.117720 1.916535 5.975610
v 1.206354 1.632467 5.944608
v 1.068162 1.966092 5.944609
v 1.206354 1.702552 5.975609
v 1.081006 1.827900 5.975610
v 1.068162 1.689708 5.944608
v 1.010921 1.827900 5.944609
v 1.117720 1.739266 5.975610
v 0.558889 1.827901 5.763045
v 0.452091 1.916535 5.794047
v 0.501648 1.966092 5.763045
v 0.488804 1.827901 5.794047
v 0.363456 1.953248 5.794047
v 0.501648 1.689708 5.763044
v 0.363456 2.023333 5.763045
v 0.452091 1.739266 5.794047
v 0.274822 1.916535 5.794047
v 0.363456 1.632467 5.763044
v 0.225264 1.966092 5.763045
v 0.363456 1.702552 5.794045
v 0.238108 1.827900 5.794047
v 0.225264 1.689708 5.763044
v 0.168023 1.827900 5.763045
v 0.274822 1.739266 5.794047
vn -0.0000 0.9659 -0.2588
vn -0.0000 1.0000 -0.0000
vn -0.0000 0.8660 0.5000
vn 0.0001 0.5000 0.8660
vn -0.0000 0.5000 0.8660
vn -0.0000 0.5000 0.8661
vn -0.0000 -0.0000 1.0000
vn -0.0000 -0.5000 0.8661
vn -0.0000 -0.5000 0.8660
vn -0.0000 -0.8660 0.5000
vn -0.0000 -1.0000 -0.0000
vn -0.0000 -0.9659 -0.2588
vn -0.6955 -0.6955 0.1806
vn -0.9836 -0.0000 0.1806
vn -0.6955 0.6954 0.1806
vn -0.0000 -0.9836 0.1806
vn 0.6955 -0.6955 0.1806
vn 0.9836 -0.0000 0.1806
vn 0.6955 0.6954 0.1806
vn -0.0000 0.9836 0.1806
vn 0.6955 0.6955 0.1806
vn -0.6955 0.6955 0.1806
vn 0.6954 -0.6955 0.1806
vn -0.7071 0.7071 0.0044
vn -1.0000 -0.0000 0.0044
vn -0.7057 0.7056 -0.0646
vn -0.9979 -0.0000 -0.0646
vn -0.7071 -0.7071 0.0044
vn -0.7057 -0.7056 -0.0646
vn -0.7010 -0.7010 -0.1311
vn -0.9914 -0.0000 -0.1311
vn -0.7010 0.7010 -0.1311
vn -0.0000 -1.0000 0.0044
vn -0.7056 -0.7057 -0.0646
vn -0.0000 -0.9979 -0.0646
vn 0.7056 -0.7057 -0.0646
vn 0.7071 -0.7071 0.0044
vn 0.7010 -0.7010 -0.1311
vn -0.0000 -0.9914 -0.1311
vn 0.7071 0.7070 0.0119
vn 0.9999 -0.0000 0.0120
vn 0.7071 -0.7070 0.0119
vn 0.7071 0.7071 0.0119
vn 0.7070 0.7071 0.0119
vn -0.0000 0.9999 0.0120
vn -0.7070 0.7071 0.0119
vn -0.7071 0.7071 0.0119
vn -0.9999 -0.0000 0.0120
vn -0.7071 -0.7070 0.0119
vn -0.7071 -0.7071 0.0119
vn -0.7070 -0.7071 0.0119
vn -0.0000 -0.9999 0.0120
vn 0.7070 -0.7071 0.0119
vn -0.0000 0.9204 0.3910
vn -0.0001 0.0001 1.0000
vn 0.6508 0.6508 0.3910
vn -0.6508 0.6508 0.3910
vn -0.9204 -0.0000 0.3910
vn -0.0000 -0.0001 1.0000
vn -0.6508 -0.6508 0.3910
vn -0.0000 -0.9204 0.3910
vn 0.0001 -0.0000 1.0000
vn 0.6508 -0.6508 0.3910
vn 0.9204 -0.0000 0.3910
vn -0.0000 0.0001 1.0000
vn 0.7057 -0.7056 -0.0646
vn 0.9914 -0.0000 -0.1311
vn 0.9979 -0.0000 -0.0646
vn 0.7010 0.7010 -0.1311
vn 1.0000 -0.0000 0.0044
vn 0.7057 0.7056 -0.0646
vn 0.7071 0.7071 0.0044
vn 0.7071 0.7071 0.0110
vn 0.9999 -0.0000 0.0110
vn 0.7071 -0.7071 0.0110
vn -0.0000 0.9999 0.0110
vn -0.7071 0.7071 0.0110
vn -0.9999 -0.0000 0.0110
vn -0.7071 -0.7071 0.0110
vn -0.0000 -0.9999 0.0110
vn -0.0001 -0.0001 1.0000
vn -0.0000 1.0000 0.0044
vn -0.0000 0.9979 -0.0646
vn 0.7056 0.7057 -0.0646
vn -0.7056 0.7057 -0.0646
vn -0.0000 0.9914 -0.1311
vn 0.2860 0.2861 0.9145
vn 0.4045 -0.0000 0.9145
vn -0.0000 0.4045 0.9145
vn 0.2861 -0.2861 0.9145
vn 0.2860 -0.2861 0.9145
vn -0.2861 0.2860 0.9145
vn -0.0000 -0.4045 0.9145
vn -0.4045 -0.0000 0.9145
vn -0.2860 -0.2861 0.9145
vn 0.7071 -0.7070 0.0110
vn -0.7071 0.7070 0.0119
vt 0.516605 1.683585
vt 0.483399 1.683585
vt 0.516605 1.677728
vt 0.483399 1.677728
vt 0.516605 1.671870
vt 0.483399 1.671870
vt 0.516605 1.667582
vt 0.483399 1.667582
vt 0.516605 0.535257
vt 0.483399 0.535257
vt 0.516605 0.529396
vt 0.483399 0.529396
vt 0.516605 0.523534
vt 0.483399 0.523534
vt 0.483395 1.667582
vt 0.516601 1.667582
vt 0.483395 1.671870
vt 0.516601 1.671870
vt 0.483395 1.677728
vt 0.516601 1.677728
vt 0.483395 1.683585
vt 0.516601 1.683585
vt -0.593164 0.529584
vt -0.603487 0.528243
vt -0.593164 0.528243
vt -0.593164 0.526902
vt 0.491193 1.593164
vt 0.491193 1.603487
vt 0.489851 1.593164
vt 0.492535 1.593164
vt 1.593164 0.528243
vt 1.603487 0.528243
vt 1.593164 0.529584
vt 1.593164 0.526902
vt 0.508807 1.593164
vt 0.508807 1.603487
vt 0.507465 1.593164
vt 0.510149 1.593164
vt 0.508808 1.593164
vt 0.508808 1.603487
vt 0.507466 1.593164
vt 0.510151 1.593164
vt 0.491192 1.593164
vt 0.491192 1.603487
vt 0.489849 1.593164
vt 0.492534 1.593164
vt -0.652594 0.530295
vt -0.652594 0.528243
vt -0.595943 0.530118
vt -0.595943 0.528243
vt -0.652594 0.526191
vt -0.595943 0.526368
vt -0.593633 0.526152
vt -0.593633 0.528243
vt -0.593633 0.530334
vt 0.493246 1.652594
vt 0.491193 1.652594
vt 0.493069 1.595943
vt 0.491193 1.595943
vt 0.489317 1.595943
vt 0.489140 1.652594
vt 0.489100 1.593633
vt 0.491193 1.593633
vt 0.493285 1.593633
vt 1.646757 0.530721
vt 1.646757 0.528243
vt 1.682160 0.530998
vt 1.682160 0.528243
vt 1.646757 0.525765
vt 1.682160 0.525488
vt 0.511287 1.646757
vt 0.511563 1.682160
vt 0.508807 1.646757
vt 0.508807 1.682160
vt 0.506051 1.682160
vt 0.506328 1.646757
vt -0.682160 0.530998
vt -0.682160 0.528243
vt -0.646757 0.530721
vt -0.646757 0.528243
vt -0.646757 0.525765
vt -0.682160 0.525488
vt 0.493672 1.646757
vt 0.493949 1.682160
vt 0.491193 1.646757
vt 0.491193 1.682160
vt 0.488713 1.646757
vt 0.488437 1.682160
vt 0.508807 1.638512
vt -0.638512 0.528243
vt 0.491193 1.638512
vt 1.638512 0.528243
vt 1.593633 0.526152
vt 1.595943 0.526368
vt 1.593633 0.528243
vt 1.595943 0.528243
vt 1.652594 0.526191
vt 1.593633 0.530334
vt 1.652594 0.528243
vt 1.595943 0.530118
vt 1.652594 0.530295
vt 0.510862 1.652594
vt 0.508808 1.652594
vt 0.510685 1.595943
vt 0.508808 1.595943
vt 0.506932 1.595943
vt 0.506755 1.652594
vt 0.506716 1.593633
vt 0.508808 1.593633
vt 0.510901 1.593633
vt 0.493671 1.646757
vt 0.493948 1.682160
vt 0.491192 1.646757
vt 0.491192 1.682160
vt 0.488436 1.682160
vt 0.488712 1.646757
vt 0.511288 1.646757
vt 0.511564 1.682160
vt 0.508808 1.646757
vt 0.508808 1.682160
vt 0.506329 1.646757
vt 0.506052 1.682160
vt 0.491192 1.638512
vt 0.508808 1.638512
vt 0.508807 1.652594
vt 0.508807 1.595943
vt 0.510860 1.652594
vt 0.510683 1.595943
vt 0.506754 1.652594
vt 0.510900 1.593633
vt 0.506931 1.595943
vt 0.508807 1.593633
vt 0.506715 1.593633
vt 0.491192 1.652594
vt 0.491192 1.595943
vt 0.493245 1.652594
vt 0.493068 1.595943
vt 0.489139 1.652594
vt 0.493284 1.593633
vt 0.489315 1.595943
vt 0.491192 1.593633
vt 0.489099 1.593633
vt 0.510900 0.530334
vt 0.510149 0.529584
vt 0.511766 0.528243
vt 0.510705 0.528243
vt 0.508807 0.530140
vt 0.510900 0.526152
vt 0.508807 0.531201
vt 0.510149 0.526902
vt 0.507465 0.529584
vt 0.508807 0.525285
vt 0.506715 0.530334
vt 0.508807 0.526346
vt 0.506909 0.528243
vt 0.506715 0.526152
vt 0.505848 0.528243
vt 0.507465 0.526902
vt 0.493284 0.530334
vt 0.492534 0.529584
vt 0.494151 0.528243
vt 0.493090 0.528243
vt 0.491192 0.530140
vt 0.493284 0.526152
vt 0.491192 0.531201
vt 0.492534 0.526902
vt 0.489849 0.529584
vt 0.491192 0.525285
vt 0.489099 0.530334
vt 0.491192 0.526346
vt 0.489294 0.528243
vt 0.489099 0.526152
vt 0.488232 0.528243
vt 0.489849 0.526902
s 1
f 3/1/1 2/2/1 1/3/2
f 4/4/2 1/3/2 2/2/1
f 1/3/2 4/4/2 5/5/3
f 6/6/3 5/5/3 4/4/2
f 5/5/3 6/6/3 7/7/4
f 8/8/5 7/7/4 6/6/3
f 11/9/6 10/10/6 9/11/7
f 12/12/7 9/11/7 10/10/6
f 9/11/7 12/12/7 13/13/8
f 14/14/8 13/13/8 12/12/7
f 17/15/9 16/16/9 15/17/10
f 18/18/10 15/17/10 16/16/9
f 15/17/10 18/18/10 19/19/11
f 20/20/11 19/19/11 18/18/10
f 19/19/11 20/20/11 21/21/12
f 22/22/12 21/21/12 20/20/11
f 25/23/13 24/24/7 23/25/14
f 23/25/14 24/24/7 26/26/15
f 29/27/16 28/28/7 27/29/13
f 30/30/17 28/28/7 29/27/16
f 33/31/18 32/32/7 31/33/17
f 34/34/19 32/32/7 33/31/18
f 37/35/20 36/36/7 35/37/21
f 38/38/22 36/36/7 37/35/20
f 41/23/13 40/24/7 39/25/14
f 39/25/14 40/24/7 42/26/15
f 45/39/16 44/40/7 43/41/13
f 46/42/23 44/40/7 45/39/16
f 49/31/18 48/32/7 47/33/17
f 50/34/19 48/32/7 49/31/18
f 53/43/20 52/44/7 51/45/21
f 54/46/22 52/44/7 53/43/20
f 57/47/24 56/48/25 55/49/26
f 58/50/27 55/49/26 56/48/25
f 56/48/25 59/51/28 58/50/27
f 60/52/29 58/50/27 59/51/28
f 60/52/29 61/53/30 58/50/27
f 62/54/31 58/50/27 61/53/30
f 58/50/27 62/54/31 55/49/26
f 63/55/32 55/49/26 62/54/31
f 66/56/28 65/57/33 64/58/34
f 67/59/35 64/58/34 65/57/33
f 67/59/35 65/57/33 68/60/36
f 69/61/37 68/60/36 65/57/33
f 68/60/36 70/62/38 67/59/35
f 71/63/39 67/59/35 70/62/38
f 67/59/35 71/63/39 64/58/34
f 72/64/30 64/58/34 71/63/39
f 75/65/40 74/66/41 73/67/40
f 76/68/41 73/67/40 74/66/41
f 74/66/41 77/69/42 76/68/41
f 78/70/42 76/68/41 77/69/42
f 81/71/43 80/72/44 79/73/45
f 82/74/45 79/73/45 80/72/44
f 82/74/45 83/75/46 79/73/45
f 84/76/47 79/73/45 83/75/46
f 87/77/47 86/78/48 85/79/47
f 88/80/48 85/79/47 86/78/48
f 88/80/48 86/78/48 89/81/49
f 90/82/50 89/81/49 86/78/48
f 93/83/51 92/84/51 91/85/52
f 94/86/52 91/85/52 92/84/51
f 91/85/52 94/86/52 95/87/53
f 96/88/53 95/87/53 94/86/52
f 99/73/54 98/89/55 97/71/56
f 100/76/57 98/89/55 99/73/54
f 103/80/58 102/90/59 101/79/57
f 104/81/60 102/90/59 103/80/58
f 107/85/61 106/91/62 105/83/60
f 108/87/63 106/91/62 107/85/61
f 111/66/64 110/92/65 109/69/63
f 112/65/56 110/92/65 111/66/64
f 115/93/38 114/94/66 113/95/67
f 116/96/68 113/95/67 114/94/66
f 114/94/66 117/97/37 116/96/68
f 113/95/67 116/96/68 118/98/69
f 119/99/70 116/96/68 117/97/37
f 120/100/71 118/98/69 116/96/68
f 119/99/70 121/101/72 116/96/68
f 120/100/71 116/96/68 121/101/72
f 124/47/24 123/48/25 122/49/26
f 125/50/27 122/49/26 123/48/25
f 123/48/25 126/51/28 125/50/27
f 127/52/29 125/50/27 126/51/28
f 127/52/29 128/53/30 125/50/27
f 129/54/31 125/50/27 128/53/30
f 125/50/27 129/54/31 122/49/26
f 130/55/32 122/49/26 129/54/31
f 133/102/28 132/103/33 131/104/34
f 134/105/35 131/104/34 132/103/33
f 134/105/35 132/103/33 135/106/36
f 136/107/37 135/106/36 132/103/33
f 135/106/36 137/108/38 134/105/35
f 138/109/39 134/105/35 137/108/38
f 134/105/35 138/109/39 131/104/34
f 139/110/30 131/104/34 138/109/39
f 142/65/73 141/66/74 140/67/73
f 143/68/74 140/67/73 141/66/74
f 141/66/74 144/69/75 143/68/74
f 145/70/75 143/68/74 144/69/75
f 148/111/73 147/112/73 146/113/76
f 149/114/76 146/113/76 147/112/73
f 149/114/76 150/115/77 146/113/76
f 151/116/77 146/113/76 150/115/77
f 154/77/77 153/78/78 152/79/77
f 155/80/78 152/79/77 153/78/78
f 155/80/78 153/78/78 156/81/79
f 157/82/79 156/81/79 153/78/78
f 160/117/79 159/118/79 158/119/80
f 161/120/80 158/119/80 159/118/79
f 158/119/80 161/120/80 162/121/75
f 163/122/75 162/121/75 161/120/80
f 166/113/54 165/123/55 164/111/56
f 167/116/57 165/123/55 166/113/54
f 170/80/58 169/90/81 168/79/57
f 171/81/60 169/90/81 170/80/58
f 174/119/61 173/124/62 172/117/60
f 175/121/63 173/124/62 174/119/61
f 178/66/64 177/92/65 176/69/63
f 179/65/56 177/92/65 178/66/64
f 182/93/38 181/94/66 180/95/67
f 183/96/68 180/95/67 181/94/66
f 181/94/66 184/97/37 183/96/68
f 180/95/67 183/96/68 185/98/69
f 186/99/70 183/96/68 184/97/37
f 187/100/71 185/98/69 183/96/68
f 186/99/70 188/101/72 183/96/68
f 187/100/71 183/96/68 188/101/72
f 191/125/82 190/126/83 189/127/72
f 192/128/84 189/127/72 190/126/83
f 191/125/82 193/129/24 190/126/83
f 192/128/84 190/126/83 194/130/69
f 195/131/85 190/126/83 193/129/24
f 196/132/86 194/130/69 190/126/83
f 195/131/85 197/133/32 190/126/83
f 196/132/86 190/126/83 197/133/32
f 200/134/82 199/135/83 198/136/72
f 201/137/84 198/136/72 199/135/83
f 200/134/82 202/138/24 199/135/83
f 201/137/84 199/135/83 203/139/69
f 204/140/85 199/135/83 202/138/24
f 205/141/86 203/139/69 199/135/83
f 204/140/85 206/142/32 199/135/83
f 205/141/86 199/135/83 206/142/32
f 209/143/87 208/144/87 207/145/88
f 210/146/88 207/145/88 208/144/87
f 208/144/87 209/143/87 211/147/89
f 207/145/88 210/146/88 212/148/90
f 213/149/89 211/147/89 209/143/87
f 214/150/91 212/148/90 210/146/88
f 211/147/89 213/149/89 215/151/92
f 212/148/90 214/150/91 216/152/93
f 217/153/92 215/151/92 213/149/89
f 218/154/93 216/152/93 214/150/91
f 215/151/92 217/153/92 219/155/94
f 216/152/93 218/154/93 220/156/95
f 221/157/94 219/155/94 217/153/92
f 222/158/95 220/156/95 218/154/93
f 219/155/94 221/157/94 222/158/95
f 220/156/95 222/158/95 221/157/94
f 225/159/87 224/160/87 223/161/88
f 226/162/88 223/161/88 224/160/87
f 224/160/87 225/159/87 227/163/89
f 223/161/88 226/162/88 228/164/90
f 229/165/89 227/163/89 225/159/87
f 230/166/90 228/164/90 226/162/88
f 227/163/89 229/165/89 231/167/92
f 228/164/90 230/166/90 232/168/93
f 233/169/92 231/167/92 229/165/89
f 234/170/93 232/168/93 230/166/90
f 231/167/92 233/169/92 235/171/94
f 232/168/93 234/170/93 236/172/95
f 237/173/94 235/171/94 233/169/92
f 238/174/95 236/172/95 234/170/93
f 235/171/94 237/173/94 238/174/95
f 236/172/95 238/174/95 237/173/94
f 241/1/1 240/2/1 239/3/2
f 242/4/2 239/3/2 240/2/1
f 239/3/2 242/4/2 243/5/3
f 244/6/3 243/5/3 242/4/2
f 243/5/3 244/6/3 245/7/4
f 246/8/5 245/7/4 244/6/3
f 249/9/6 248/10/6 247/11/7
f 250/12/7 247/11/7 248/10/6
f 247/11/7 250/12/7 251/13/8
f 252/14/8 251/13/8 250/12/7
f 255/15/9 254/16/9 253/17/10
f 256/18/10 253/17/10 254/16/9
f 253/17/10 256/18/10 257/19/11
f 258/20/11 257/19/11 256/18/10
f 257/19/11 258/20/11 259/21/12
f 260/22/12 259/21/12 258/20/11
f 263/23/13 262/24/7 261/25/14
f 261/25/14 262/24/7 264/26/15
f 267/27/16 266/28/7 265/29/13
f 268/30/17 266/28/7 267/27/16
f 271/31/18 270/32/7 269/33/17
f 272/34/19 270/32/7 271/31/18
f 275/35/20 274/36/7 273/37/21
f 276/38/22 274/36/7 275/35/20
f 279/23/13 278/24/7 277/25/14
f 277/25/14 278/24/7 280/26/15
f 283/39/16 282/40/7 281/41/13
f 284/42/23 282/40/7 283/39/16
f 287/31/18 286/32/7 285/33/17
f 288/34/19 286/32/7 287/31/18
f 291/43/20 290/44/7 289/45/21
f 292/46/22 290/44/7 291/43/20
f 295/47/24 294/48/25 293/49/26
f 296/50/27 293/49/26 294/48/25
f 294/48/25 297/51/28 296/50/27
f 298/52/29 296/50/27 297/51/28
f 298/52/29 299/53/30 296/50/27
f 300/54/31 296/50/27 299/53/30
f 296/50/27 300/54/31 293/49/26
f 301/55/32 293/49/26 300/54/31
f 304/56/28 303/57/33 302/58/34
f 305/59/35 302/58/34 303/57/33
f 305/59/35 303/57/33 306/60/36
f 307/61/37 306/60/36 303/57/33
f 306/60/36 308/62/38 305/59/35
f 309/63/39 305/59/35 308/62/38
f 305/59/35 309/63/39 302/58/34
f 310/64/30 302/58/34 309/63/39
f 313/65/73 312/66/74 311/67/73
f 314/68/74 311/67/73 312/66/74
f 312/66/74 315/69/75 314/68/74
f 316/70/96 314/68/74 315/69/75
f 319/71/73 318/72/73 317/73/76
f 320/74/76 317/73/76 318/72/73
f 320/74/76 321/75/77 317/73/76
f 322/76/77 317/73/76 321/75/77
f 325/77/77 324/78/78 323/79/77
f 326/80/78 323/79/77 324/78/78
f 326/80/78 324/78/78 327/81/79
f 328/82/79 327/81/79 324/78/78
f 331/83/79 330/84/79 329/85/80
f 332/86/80 329/85/80 330/84/79
f 329/85/80 332/86/80 333/87/75
f 334/88/75 333/87/75 332/86/80
f 337/73/54 336/89/55 335/71/56
f 338/76/57 336/89/55 337/73/54
f 341/80/58 340/90/59 339/79/57
f 342/81/60 340/90/59 341/80/58
f 345/85/61 344/91/62 343/83/60
f 346/87/63 344/91/62 345/85/61
f 349/66/64 348/92/65 347/69/63
f 350/65/56 348/92/65 349/66/64
f 353/93/38 352/94/66 351/95/67
f 354/96/68 351/95/67 352/94/66
f 352/94/66 355/97/37 354/96/68
f 351/95/67 354/96/68 356/98/69
f 357/99/70 354/96/68 355/97/37
f 358/100/71 356/98/69 354/96/68
f 357/99/70 359/101/72 354/96/68
f 358/100/71 354/96/68 359/101/72
f 362/47/24 361/48/25 360/49/26
f 363/50/27 360/49/26 361/48/25
f 361/48/25 364/51/28 363/50/27
f 365/52/29 363/50/27 364/51/28
f 365/52/29 366/53/30 363/50/27
f 367/54/31 363/50/27 366/53/30
f 363/50/27 367/54/31 360/49/26
f 368/55/32 360/49/26 367/54/31
f 371/102/28 370/103/33 369/104/34
f 372/105/35 369/104/34 370/103/33
f 372/105/35 370/103/33 373/106/36
f 374/107/37 373/106/36 370/103/33
f 373/106/36 375/108/38 372/105/35
f 376/109/39 372/105/35 375/108/38
f 372/105/35 376/109/39 369/104/34
f 377/110/30 369/104/34 376/109/39
f 380/65/43 379/66/41 378/67/40
f 381/68/41 378/67/40 379/66/41
f 379/66/41 382/69/42 381/68/41
f 383/70/42 381/68/41 382/69/42
f 386/111/43 385/112/44 384/113/45
f 387/114/45 384/113/45 385/112/44
f 387/114/45 388/115/46 384/113/45
f 389/116/47 384/113/45 388/115/46
f 392/77/97 391/78/48 390/79/47
f 393/80/48 390/79/47 391/78/48
f 393/80/48 391/78/48 394/81/49
f 395/82/50 394/81/49 391/78/48
f 398/117/51 397/118/51 396/119/52
f 399/120/52 396/119/52 397/118/51
f 396/119/52 399/120/52 400/121/53
f 401/122/53 400/121/53 399/120/52
f 404/113/54 403/123/55 402/111/56
f 405/116/57 403/123/55 404/113/54
f 408/80/58 407/90/81 406/79/57
f 409/81/60 407/90/81 408/80/58
f 412/119/61 411/124/62 410/117/60
f 413/121/63 411/124/62 412/119/61
f 416/66/64 415/92/65 414/69/63
f 417/65/56 415/92/65 416/66/64
f 420/93/38 419/94/66 418/95/67
f 421/96/68 418/95/67 419/94/66
f 419/94/66 422/97/37 421/96/68
f 418/95/67 421/96/68 423/98/69
f 424/99/70 421/96/68 422/97/37
f 425/100/71 423/98/69 421/96/68
f 424/99/70 426/101/72 421/96/68
f 425/100/71 421/96/68 426/101/72
f 429/125/82 428/126/83 427/127/72
f 430/128/84 427/127/72 428/126/83
f 429/125/82 431/129/24 428/126/83
f 430/128/84 428/126/83 432/130/69
f 433/131/85 428/126/83 431/129/24
f 434/132/86 432/130/69 428/126/83
f 433/131/85 435/133/32 428/126/83
f 434/132/86 428/126/83 435/133/32
f 438/134/82 437/135/83 436/136/72
f 439/137/84 436/136/72 437/135/83
f 438/134/82 440/138/24 437/135/83
f 439/137/84 437/135/83 441/139/69
f 442/140/85 437/135/83 440/138/24
f 443/141/86 441/139/69 437/135/83
f 442/140/85 444/142/32 437/135/83
f 443/141/86 437/135/83 444/142/32
f 447/143/87 446/144/87 445/145/88
f 448/146/88 445/145/88 446/144/87
f 446/144/87 447/143/87 449/147/89
f 445/145/88 448/146/88 450/148/90
f 451/149/89 449/147/89 447/143/87
f 452/150/90 450/148/90 448/146/88
f 449/147/89 451/149/89 453/151/92
f 450/148/90 452/150/90 454/152/93
f 455/153/92 453/151/92 451/149/89
f 456/154/93 454/152/93 452/150/90
f 453/151/92 455/153/92 457/155/94
f 454/152/93 456/154/93 458/156/95
f 459/157/94 457/155/94 455/153/92
f 460/158/95 458/156/95 456/154/93
f 457/155/94 459/157/94 460/158/95
f 458/156/95 460/158/95 459/157/94
f 463/159/87 462/160/87 461/161/88
f 464/162/88 461/161/88 462/160/87
f 462/160/87 463/159/87 465/163/89
f 461/161/88 464/162/88 466/164/90
f 467/165/89 465/163/89 463/159/87
f 468/166/91 466/164/90 464/162/88
f 465/163/89 467/165/89 469/167/92
f 466/164/90 468/166/91 470/168/93
f 471/169/92 469/167/92 467/165/89
f 472/170/93 470/168/93 468/166/91
f 469/167/92 471/169/92 473/171/94
f 470/168/93 472/170/93 474/172/95
f 475/173/94 473/171/94 471/169/92
f 476/174/95 474/172/95 472/170/93
f 473/171/94 475/173/94 476/174/95
f 474/172/95 476/174/95 475/173/94
