# Blender 4.5.3 LTS
# www.blender.org
mtllib Ken_gun_100_A_x4_001.mtl
o Ken_gun_100_A_x4_001
v 1.563574 0.000343 0.902776
v 0.893471 0.549035 1.547585
v 1.563574 0.549035 0.902776
v 0.893471 0.001249 1.547585
v -0.000000 0.002026 1.805508
v -0.000000 0.549035 1.805508
v -0.893471 0.549035 1.547585
v -0.893471 0.001249 1.547585
v -1.563574 0.000343 0.902776
v -1.563574 0.549035 0.902776
v 1.786943 0.549035 0.000037
v 1.563574 0.000343 0.902776
v 1.563574 0.549035 0.902776
v 1.786942 0.000731 0.000037
v 1.563575 0.001214 -0.902701
v 1.563575 0.549034 -0.902702
v 0.893472 0.549034 -1.547511
v 1.563575 0.001214 -0.902701
v 1.563575 0.549034 -0.902702
v 0.893472 0.000589 -1.547511
v -0.000000 0.000000 -1.805434
v -0.000000 0.549034 -1.805434
v -0.893472 0.549034 -1.547511
v -0.893472 0.000589 -1.547511
v -1.563575 0.001214 -0.902701
v -1.563575 0.549034 -0.902702
v -1.563574 0.000343 0.902776
v -1.786943 0.549035 0.000037
v -1.563574 0.549035 0.902776
v -1.786942 0.000731 0.000037
v -1.563575 0.001214 -0.902701
v -1.563575 0.549034 -0.902702
v 1.568189 2.855009 -0.179263
v 2.932647 2.443227 -0.713778
v 2.932650 2.855008 -0.179280
v -1.646555 2.398731 1.162521
v -1.646558 2.182986 1.220304
v -2.484560 2.272265 0.943439
v 2.750695 0.549032 2.300233
v 2.311409 1.871170 2.187907
v 2.750695 1.934358 1.991889
v 2.311409 0.549032 2.482191
v 1.568149 1.441475 2.283549
v 1.568142 1.871170 2.187907
v 0.000000 0.549032 2.482191
v 0.000000 1.441475 2.283549
v -2.389872 0.549032 2.482191
v -1.646612 1.441475 2.283549
v -2.389872 1.871170 2.187907
v -1.646606 1.871170 2.187907
v -2.829158 0.549032 2.300233
v -2.829159 1.934357 1.991884
v 2.750695 1.934358 1.991889
v 2.932652 0.549032 1.860947
v 2.750695 0.549032 2.300233
v 2.932652 2.086781 1.518630
v 2.932652 0.549032 -0.713778
v 2.932647 2.443227 -0.713778
v 2.932650 2.855008 -0.179280
v 2.932652 2.855005 1.347677
v 2.187161 0.549032 -3.858884
v 2.932647 2.443227 -0.713778
v 2.187165 2.634697 -3.858869
v 2.932652 0.549032 -0.713778
v 1.329434 2.502259 -4.264319
v 2.187161 0.549032 -3.858884
v 2.187165 2.634697 -3.858869
v 1.329434 0.549032 -4.264319
v 0.000000 2.475547 -4.346103
v 0.000000 0.549032 -4.346103
v -1.407897 0.549032 -4.264319
v -1.407897 2.502259 -4.264319
v -2.265625 0.549032 -3.858884
v -2.265629 2.634697 -3.858869
v 2.932647 2.443227 -0.713778
v 1.568189 2.855008 -2.959596
v 2.187165 2.634697 -3.858869
v 1.568189 2.855009 -0.179263
v 1.568189 2.855009 -0.179263
v 0.000000 2.855008 -2.959596
v 1.568189 2.855008 -2.959596
v 0.000000 2.855009 -0.179263
v -1.646652 2.855009 -0.179263
v -1.646652 2.855008 -2.959596
v -1.027654 2.855008 0.372173
v -1.539473 2.855008 0.372134
v -1.646600 2.855008 0.372115
v -0.813592 2.855008 0.372179
v 0.000000 2.855008 0.372168
v 0.735128 2.855008 0.372179
v 0.949190 2.855008 0.372174
v 1.461003 2.855008 0.372138
v 1.568172 2.855008 0.372135
v 2.932650 2.855008 -0.179280
v 2.932652 2.855005 1.347677
v 1.568122 2.855005 1.347677
v 2.187165 2.634697 -3.858869
v 1.568189 2.855008 -2.959596
v 1.329434 2.502259 -4.264319
v 0.000000 2.855008 -2.959596
v 0.000000 2.475547 -4.346103
v -1.407897 2.502259 -4.264319
v -1.646652 2.855008 -2.959596
v -2.265629 2.634697 -3.858869
v 2.311409 1.871170 2.187907
v 1.568142 1.871170 2.187907
v 1.568122 2.086781 1.518630
v 2.750695 1.934358 1.991889
v 2.932652 2.086781 1.518630
v -2.265625 0.549032 -3.858884
v -3.011110 2.443227 -0.713778
v -3.011116 0.549032 -0.713778
v -2.265629 2.634697 -3.858869
v -1.646652 2.855008 -2.959596
v -3.011110 2.443227 -0.713778
v -2.265629 2.634697 -3.858869
v -1.646652 2.855009 -0.179263
v -3.011108 2.443201 0.372101
v -1.646600 2.855008 0.372115
v -1.646573 2.732758 0.828471
v -3.011103 2.375817 0.622574
v -1.646555 2.398731 1.162521
v -2.484560 2.272265 0.943439
v -0.813584 2.732742 0.828486
v -1.027654 2.855008 0.372173
v -0.813592 2.855008 0.372179
v -1.027645 2.732746 0.828493
v -0.813578 2.398702 1.162524
v -1.027639 2.398710 1.162534
v -1.539473 2.855008 0.372134
v -1.646573 2.732758 0.828471
v -1.646600 2.855008 0.372115
v -1.539447 2.732754 0.828478
v -1.646555 2.398731 1.162521
v -1.539429 2.398725 1.162526
v -0.813576 1.942396 1.284791
v -1.027639 2.398710 1.162534
v -0.813578 2.398702 1.162524
v -1.027645 1.942415 1.284822
v -0.813578 1.486090 1.162524
v -1.027647 1.486106 1.162564
v -1.539429 2.398725 1.162526
v -1.646592 1.942465 1.284863
v -1.646555 2.398731 1.162521
v -1.539445 1.942449 1.284850
v -1.646606 1.486128 1.162606
v -1.539452 1.486136 1.162609
v -3.011108 2.443201 0.372101
v -3.011116 0.549032 -0.713778
v -3.011110 2.443227 -0.713778
v -3.011103 2.375817 0.622574
v -3.011116 0.549032 1.860947
v -3.011116 2.086781 1.518671
v -2.829159 1.934357 1.991884
v -2.829158 0.549032 2.300233
v -3.011103 2.375817 0.622574
v -2.484560 2.272265 0.943439
v -3.011116 2.086781 1.518671
v -1.646558 2.182986 1.220304
v -1.646596 2.086781 1.518671
v -2.829159 1.934357 1.991884
v -2.389872 1.871170 2.187907
v -1.646606 1.871170 2.187907
v 1.568196 2.732741 0.828442
v 1.568172 2.855008 0.372135
v 1.568122 2.855005 1.347677
v 1.568214 2.398702 1.162481
v 1.568122 2.086781 1.518630
v 1.568220 1.942395 1.284747
v 1.568181 1.486098 1.162532
v 1.568142 1.871170 2.187907
v 1.568149 1.441475 2.283549
v 1.568196 2.732741 0.828442
v 1.461003 2.855008 0.372138
v 1.568172 2.855008 0.372135
v 1.461011 2.732741 0.828456
v 1.568214 2.398702 1.162481
v 1.461028 2.398702 1.162495
v 1.568220 1.942395 1.284747
v 1.461028 2.398702 1.162495
v 1.568214 2.398702 1.162481
v 1.461034 1.942396 1.284761
v 1.568181 1.486098 1.162532
v 1.460998 1.486124 1.162581
v -1.646606 1.871170 2.187907
v -1.646606 1.486128 1.162606
v -1.646612 1.441475 2.283549
v -1.646596 2.086781 1.518671
v -1.646592 1.942465 1.284863
v -1.646558 2.182986 1.220304
v 1.568149 1.441475 2.283549
v 1.460998 1.486124 1.162581
v 1.568181 1.486098 1.162532
v 0.000000 1.441475 2.283549
v 0.949183 1.486106 1.162564
v 0.735114 1.486090 1.162524
v 0.000000 1.486090 1.162513
v -0.813578 1.486090 1.162524
v -1.027647 1.486106 1.162564
v -1.539452 1.486136 1.162609
v -1.646612 1.441475 2.283549
v -1.646606 1.486128 1.162606
v 2.585065 1.886037 1.806486
v 2.496108 2.119299 1.755771
v 2.523929 1.931303 1.665982
v 2.545723 2.082564 1.869798
v 2.523915 1.840773 1.946984
v 2.496097 2.045829 1.983820
v 2.376314 2.134516 1.708535
v 2.523929 1.931303 1.665982
v 2.496108 2.119299 1.755771
v 2.376319 1.950052 1.607777
v 2.256516 2.119299 1.755760
v 2.228704 1.931303 1.665967
v 2.206890 2.082564 1.869781
v 2.228704 1.931303 1.665967
v 2.256516 2.119299 1.755760
v 2.167554 1.886037 1.806466
v 2.256505 2.045829 1.983808
v 2.228690 1.840773 1.946970
v 2.376299 2.030613 2.031045
v 2.228690 1.840773 1.946970
v 2.256505 2.045829 1.983808
v 2.376300 1.822024 2.005174
v 2.496097 2.045829 1.983820
v 2.523915 1.840773 1.946984
v 2.545723 2.082564 1.869798
v 2.496097 2.045829 1.983820
v 2.496108 2.119299 1.755771
v 2.376314 2.134516 1.708535
v 2.376299 2.030613 2.031045
v 2.256516 2.119299 1.755760
v 2.256505 2.045829 1.983808
v 2.206890 2.082564 1.869781
v -2.574769 2.119275 1.755567
v -2.663731 1.886014 1.806273
v -2.602581 1.931279 1.665774
v -2.624395 2.082540 1.869589
v -2.602595 1.840749 1.946777
v -2.574780 2.045805 1.983615
v -2.602581 1.931279 1.665774
v -2.454971 2.134492 1.708342
v -2.574769 2.119275 1.755567
v -2.454966 1.950028 1.607584
v -2.335177 2.119275 1.755578
v -2.307356 1.931279 1.665789
v -2.307356 1.931279 1.665789
v -2.285562 2.082540 1.869605
v -2.335177 2.119275 1.755578
v -2.246220 1.886014 1.806293
v -2.335188 2.045805 1.983627
v -2.307370 1.840749 1.946791
v -2.307370 1.840749 1.946791
v -2.454986 2.030590 2.030852
v -2.335188 2.045805 1.983627
v -2.454985 1.822000 2.004982
v -2.574780 2.045805 1.983615
v -2.602595 1.840749 1.946777
v -2.624395 2.082540 1.869589
v -2.574769 2.119275 1.755567
v -2.574780 2.045805 1.983615
v -2.454971 2.134492 1.708342
v -2.454986 2.030590 2.030852
v -2.335177 2.119275 1.755578
v -2.335188 2.045805 1.983627
v -2.285562 2.082540 1.869605
v 2.459148 2.768927 0.731609
v 2.370189 2.975400 0.611813
v 2.398005 2.768927 0.583996
v 2.419810 2.975400 0.731609
v 2.398005 2.768927 0.879222
v 2.370189 2.975400 0.851405
v 2.250393 2.975400 0.562192
v 2.398005 2.768927 0.583996
v 2.370189 2.975400 0.611813
v 2.250393 2.768927 0.522853
v 2.130597 2.975400 0.611813
v 2.102781 2.768927 0.583996
v 2.080976 2.975400 0.731609
v 2.102781 2.768927 0.583996
v 2.130597 2.975400 0.611813
v 2.041638 2.768927 0.731609
v 2.130597 2.975400 0.851405
v 2.102781 2.768927 0.879222
v 2.250393 2.975400 0.901026
v 2.102781 2.768927 0.879222
v 2.130597 2.975400 0.851405
v 2.250393 2.768927 0.940364
v 2.370189 2.975400 0.851405
v 2.398005 2.768927 0.879222
v 2.419810 2.975400 0.731609
v 2.370189 2.975400 0.851405
v 2.370189 2.975400 0.611813
v 2.250393 2.975400 0.562192
v 2.250393 2.975400 0.901026
v 2.130597 2.975400 0.611813
v 2.130597 2.975400 0.851405
v 2.080976 2.975400 0.731609
v -3.099158 1.942388 0.184427
v 3.020694 2.075072 0.239386
v -3.099158 2.075072 0.239386
v 3.020694 1.942387 0.184427
v -3.099158 1.809704 0.239386
v 3.020694 1.809703 0.239386
v 3.020694 2.130031 0.372070
v -3.099158 2.075072 0.239386
v 3.020694 2.075072 0.239386
v -3.099157 2.130032 0.372070
v 3.020694 2.075072 0.504754
v -3.099157 2.075072 0.504754
v 3.020694 1.942387 0.559714
v -3.099157 2.075072 0.504754
v 3.020694 2.075072 0.504754
v -3.099158 1.942388 0.559714
v 3.020694 1.809703 0.504754
v -3.099158 1.809704 0.504754
v 3.020694 1.754744 0.372070
v -3.099158 1.809704 0.504754
v 3.020694 1.809703 0.504754
v -3.099158 1.754744 0.372070
v 3.020694 1.809703 0.239386
v -3.099158 1.809704 0.239386
v 0.949190 2.855008 0.372174
v 0.735120 2.732742 0.828486
v 0.735128 2.855008 0.372179
v 0.949182 2.732746 0.828494
v 0.735114 2.398702 1.162524
v 0.949176 2.398710 1.162535
v 0.949176 2.398710 1.162535
v 0.735112 1.942396 1.284791
v 0.735114 2.398702 1.162524
v 0.949181 1.942415 1.284822
v 0.735114 1.486090 1.162524
v 0.949183 1.486106 1.162564
v -3.099158 1.809704 0.239386
v -3.180725 1.942388 0.372070
v -3.099158 1.754744 0.372070
v -3.099158 1.942388 0.184427
v -3.099158 1.809704 0.504754
v -3.099158 2.075072 0.239386
v -3.099158 1.942388 0.559714
v -3.099157 2.130032 0.372070
v -3.099157 2.075072 0.504754
v 3.020694 1.942387 0.184427
v 3.102262 1.942387 0.372070
v 3.020694 2.075072 0.239386
v 3.020694 1.809703 0.239386
v 3.020694 2.130031 0.372070
v 3.020694 1.754744 0.372070
v 3.020694 2.075072 0.504754
v 3.020694 1.809703 0.504754
v 3.020694 1.942387 0.559714
v 2.721627 2.743030 1.372595
v 2.932652 2.086781 1.518630
v 2.721627 2.198756 1.493712
v 2.932652 2.855005 1.347677
v 1.568122 2.086781 1.518630
v 2.365101 2.743030 1.372594
v 2.365101 2.198756 1.493712
v 1.568122 2.855005 1.347677
v -0.813592 2.855008 0.372179
v -0.813592 2.582937 0.391786
v -0.813584 2.732742 0.828486
v -0.813578 2.398702 1.162524
v -0.813578 1.634575 0.939323
v -0.813576 1.942396 1.284791
v -0.813578 1.486090 1.162524
v -1.539473 2.855008 0.372134
v -1.539473 2.582943 0.391755
v -1.539447 2.732754 0.828478
v -1.539429 2.398725 1.162526
v -1.539452 1.634613 0.939381
v -1.539445 1.942449 1.284850
v -1.539452 1.486136 1.162609
v -1.027654 2.855008 0.372173
v -1.539473 2.582943 0.391755
v -1.539473 2.855008 0.372134
v -1.027654 2.582943 0.391782
v 1.461011 2.732741 0.828456
v 1.460998 2.582940 0.391761
v 1.461003 2.855008 0.372138
v 1.461028 2.398702 1.162495
v 1.461008 1.634593 0.939342
v 1.461034 1.942396 1.284761
v 1.460998 1.486124 1.162581
v -1.027645 2.732746 0.828493
v -1.027654 2.582943 0.391782
v -1.027654 2.855008 0.372173
v -1.027639 2.398710 1.162534
v -1.027647 1.634592 0.939350
v -1.027645 1.942415 1.284822
v -1.027647 1.486106 1.162564
v -0.813578 1.634575 0.939323
v 0.000000 1.486090 1.162513
v -0.813578 1.486090 1.162524
v 0.000000 1.634574 0.939313
v 0.735114 1.634575 0.939323
v 0.735114 1.486090 1.162524
v -1.539452 1.486136 1.162609
v -1.027647 1.634592 0.939350
v -1.027647 1.486106 1.162564
v -1.539452 1.634613 0.939381
v 2.932652 0.549032 1.860947
v 2.311409 0.549032 2.482191
v 2.750695 0.549032 2.300233
v 2.932652 0.549032 -0.713778
v 1.329434 0.549032 -4.264319
v 2.187161 0.549032 -3.858884
v 0.000000 0.549032 2.482191
v 0.000000 0.549032 -4.346103
v -1.407897 0.549032 -4.264319
v -2.389872 0.549032 2.482191
v -3.011116 0.549032 -0.713778
v -2.265625 0.549032 -3.858884
v -3.011116 0.549032 1.860947
v -2.829158 0.549032 2.300233
v 0.000000 2.855008 0.372168
v -0.813592 2.582937 0.391786
v -0.813592 2.855008 0.372179
v 0.000000 2.582937 0.391776
v 0.735128 2.582937 0.391786
v 0.735128 2.855008 0.372179
v 0.735128 2.855008 0.372179
v 0.735120 2.732742 0.828486
v 0.735128 2.582937 0.391786
v 0.735114 2.398702 1.162524
v 0.735114 1.634575 0.939323
v 0.735112 1.942396 1.284791
v 0.735114 1.486090 1.162524
v 0.949190 2.855008 0.372174
v 1.460998 2.582940 0.391761
v 0.949190 2.582943 0.391782
v 1.461003 2.855008 0.372138
v 0.949182 2.732746 0.828494
v 0.949190 2.855008 0.372174
v 0.949190 2.582943 0.391782
v 0.949176 2.398710 1.162535
v 0.949183 1.634592 0.939351
v 0.949181 1.942415 1.284822
v 0.949183 1.486106 1.162564
v 1.460998 1.486124 1.162581
v 0.949183 1.634592 0.939351
v 1.461008 1.634593 0.939342
v 0.949183 1.486106 1.162564
v 2.721627 2.198756 1.493712
v 2.543365 2.445607 1.319526
v 2.721627 2.743030 1.372595
v 2.365101 2.198756 1.493712
v 2.365101 2.743030 1.372594
vn 0.8660 -0.0000 0.5001
vn 0.5000 -0.0000 0.8660
vn 0.8660 -0.0000 0.5000
vn 0.5001 -0.0000 0.8660
vn -0.0000 -0.0000 1.0000
vn -0.5000 -0.0000 0.8660
vn -0.5001 -0.0000 0.8660
vn -0.8660 -0.0000 0.5000
vn -0.8660 -0.0000 0.5001
vn 0.8661 -0.0000 0.4999
vn 0.8661 -0.0001 0.4999
vn 1.0000 -0.0000 -0.0000
vn 1.0000 -0.0000 0.0001
vn 0.8660 -0.0000 -0.5000
vn 0.8660 0.0001 -0.5000
vn 0.8660 -0.0000 -0.5001
vn 0.5000 -0.0000 -0.8660
vn 0.4999 -0.0000 -0.8661
vn -0.0000 -0.0000 -1.0000
vn -0.5000 -0.0000 -0.8660
vn -0.4999 -0.0000 -0.8661
vn -0.8660 -0.0000 -0.5001
vn -0.8660 -0.0000 -0.5000
vn -0.8661 -0.0000 0.4999
vn -1.0000 -0.0000 -0.0000
vn -1.0000 -0.0000 0.0001
vn -0.8660 0.0001 -0.5000
vn -0.0000 0.7922 -0.6103
vn -0.2827 0.6487 0.7066
vn -0.2799 0.2484 0.9273
vn -0.2890 0.4786 0.8291
vn 0.7597 0.1413 0.6347
vn 0.2032 0.2127 0.9557
vn 0.6726 0.1608 0.7223
vn 0.1857 0.2135 0.9591
vn -0.0000 0.2173 0.9761
vn -0.1857 0.2135 0.9591
vn -0.2032 0.2127 0.9557
vn -0.6726 0.1608 0.7223
vn -0.7597 0.1413 0.6348
vn 0.6727 0.1608 0.7223
vn 0.9741 0.0491 0.2207
vn 0.9949 0.0220 0.0987
vn 0.9730 -0.0000 -0.2306
vn 0.4274 -0.0000 -0.9041
vn 0.2579 -0.0000 -0.9662
vn 0.2489 -0.0000 -0.9685
vn 0.0017 -0.0000 -1.0000
vn -0.2472 -0.0000 -0.9690
vn -0.2563 -0.0000 -0.9666
vn -0.4274 -0.0000 -0.9041
vn 0.3138 0.9493 -0.0166
vn 0.3082 0.9512 -0.0129
vn 0.2937 0.9559 -0.0032
vn 0.2889 0.9574 -0.0000
vn -0.0000 1.0000 -0.0000
vn -0.0106 0.9655 -0.2603
vn -0.0100 0.9658 -0.2593
vn -0.0281 0.9662 -0.2561
vn -0.0000 0.9649 -0.2625
vn -0.0001 0.9645 -0.2640
vn 0.0105 0.9655 -0.2602
vn 0.0100 0.9658 -0.2593
vn 0.0281 0.9662 -0.2561
vn -0.0000 0.9518 0.3066
vn -0.0000 0.9518 0.3067
vn -0.0000 0.9519 0.3066
vn -0.9730 -0.0000 -0.2306
vn -0.3138 0.9493 -0.0166
vn -0.2917 0.9565 -0.0019
vn -0.3082 0.9512 -0.0129
vn -0.2889 0.9574 -0.0000
vn -0.2867 0.9494 0.1285
vn -0.2868 0.9502 0.1222
vn -0.2890 0.8291 0.4787
vn -0.2869 0.8838 0.3695
vn -0.2890 0.4787 0.8290
vn -0.2826 0.6487 0.7066
vn -0.0000 0.9659 0.2588
vn -0.0000 0.8660 0.5000
vn -0.0000 0.5001 0.8660
vn 0.0001 0.5001 0.8660
vn -0.0000 0.8661 0.5000
vn -0.0000 0.5002 0.8659
vn -0.0000 0.5000 0.8661
vn 0.0001 0.5000 0.8660
vn 0.0001 -0.0000 1.0000
vn 0.0002 -0.0000 1.0000
vn 0.0002 -0.2588 0.9659
vn 0.0001 0.0001 1.0000
vn -0.0000 0.5000 0.8660
vn -0.0000 -0.2588 0.9659
vn -0.9741 0.0491 0.2207
vn -0.9909 0.0293 0.1314
vn -0.7597 0.1413 0.6347
vn -0.6727 0.1608 0.7223
vn -0.0000 0.9518 0.3068
vn -0.0000 0.9517 0.3069
vn 0.0001 0.9517 0.3070
vn -1.0000 -0.0002 -0.0002
vn -1.0000 -0.0004 -0.0001
vn -1.0000 -0.0003 -0.0001
vn -1.0000 -0.0001 -0.0003
vn -1.0000 -0.0001 -0.0002
vn -1.0000 0.0001 -0.0005
vn -1.0000 -0.0000 -0.0001
vn 0.0001 0.8660 0.5000
vn 0.0001 0.5000 0.8661
vn 0.0003 -0.2587 0.9660
vn 0.0004 -0.2587 0.9660
vn 1.0000 -0.0001 -0.0000
vn 1.0000 -0.0001 0.0001
vn 0.0003 0.9992 0.0398
vn 0.0001 0.9992 0.0398
vn -0.0000 0.9992 0.0398
vn -0.0000 0.9992 0.0397
vn -0.0001 0.9992 0.0397
vn 0.0001 0.9992 0.0397
vn -0.0001 0.9992 0.0398
vn 0.6947 0.3911 -0.6037
vn 0.9823 0.1781 0.0574
vn 0.9823 0.1781 0.0575
vn 0.6946 -0.0349 0.7185
vn 0.6946 -0.0348 0.7185
vn 0.6946 0.3912 -0.6038
vn 0.6946 0.3911 -0.6038
vn 0.0001 0.4794 -0.8776
vn -0.0000 0.4794 -0.8776
vn -0.6945 0.3911 -0.6038
vn -0.6946 0.3911 -0.6038
vn -0.9823 0.1781 0.0573
vn -0.6947 -0.0349 0.7185
vn -0.6946 -0.0349 0.7185
vn -0.0001 -0.1231 0.9924
vn 0.6945 -0.0349 0.7186
vn -0.9823 0.1781 0.0574
vn -0.0000 -0.1231 0.9924
vn 0.6947 0.1871 -0.6946
vn 0.9823 0.1872 -0.0000
vn 0.6947 0.1871 0.6946
vn 0.6946 0.1872 0.6946
vn 0.6946 0.1872 -0.6946
vn 0.6946 0.1871 -0.6947
vn -0.0000 0.1872 -0.9823
vn -0.6946 0.1871 -0.6947
vn -0.6946 0.1872 -0.6946
vn -0.6947 0.1871 -0.6946
vn -0.9823 0.1872 -0.0000
vn -0.6947 0.1871 0.6946
vn -0.6946 0.1872 0.6946
vn -0.6946 0.1871 0.6947
vn -0.0000 0.1872 0.9823
vn 0.6946 0.1871 0.6947
vn -0.0000 0.7071 -0.7071
vn -0.0000 -0.7071 -0.7071
vn -0.0002 0.7071 0.7071
vn -0.0000 0.7071 0.7071
vn -0.0000 -0.7071 0.7071
vn -0.0000 -1.0000 -0.0000
vn -0.0001 0.5001 0.8660
vn -0.0001 -0.0000 1.0000
vn -0.0001 0.5000 0.8660
vn -0.0002 -0.0000 1.0000
vn -0.0001 -0.2588 0.9659
vn -0.0002 -0.2588 0.9659
vn -0.9171 -0.3987 -0.0000
vn -0.9171 -0.2819 -0.2819
vn -0.9171 -0.0000 -0.3987
vn -0.9171 -0.2819 0.2819
vn -0.9171 0.2819 -0.2819
vn -0.9171 -0.0000 0.3987
vn -0.9171 0.3987 -0.0000
vn -0.9171 0.2819 0.2819
vn 0.9171 0.2819 -0.2819
vn 0.9171 -0.0000 -0.3987
vn 0.9171 -0.2819 -0.2819
vn 0.9171 0.3987 -0.0000
vn 0.9171 -0.3987 -0.0000
vn 0.9171 0.2819 0.2819
vn 0.9171 -0.2819 0.2819
vn 0.9171 -0.0000 0.3987
vn -0.0000 0.2172 0.9761
vn 1.0000 -0.0000 -0.0001
vn -0.0001 0.0719 0.9974
vn -1.0000 0.0001 -0.0000
vn -0.0000 0.8326 0.5539
vn 0.0001 0.8326 0.5539
vn 0.0001 0.8326 0.5538
vn -0.0000 0.0719 0.9974
vn 0.0001 0.0719 0.9974
vn -0.0000 0.8327 0.5538
vn -0.0000 0.8326 0.5538
vn -0.2234 -0.0399 0.9739
vn -0.2234 0.4491 0.8651
vn 0.2234 0.4491 0.8651
vn 0.2234 -0.0399 0.9739
vt 0.523679 0.508309
vt 0.513533 0.508309
vt 0.523679 0.500005
vt 0.513533 0.500019
vt 0.500004 0.500031
vt 0.500004 0.508309
vt 0.486475 0.508309
vt 0.486475 0.500019
vt 0.476329 0.500005
vt 0.476329 0.508309
vt 2.879608 0.508309
vt 2.879608 0.500005
vt 2.893261 0.508309
vt 2.893261 0.500011
vt 2.906913 0.500018
vt 2.906913 0.508309
vt 0.476321 0.508309
vt 0.476321 0.500018
vt 0.486467 0.508309
vt 0.486467 0.500009
vt 0.499996 0.500000
vt 0.499996 0.508309
vt 0.513525 0.508309
vt 0.513525 0.500009
vt 0.523671 0.500018
vt 0.523671 0.508309
vt -1.879608 0.508309
vt -1.893261 0.508309
vt -1.879608 0.500005
vt -1.893261 0.500011
vt -1.906913 0.500018
vt -1.906913 0.508309
vt 0.537267 2.895972
vt 0.537267 2.904056
vt 0.516607 2.895972
vt 0.470714 0.534388
vt 0.483403 0.533037
vt 0.483403 0.536302
vt 0.534512 0.529274
vt 0.527860 0.528318
vt 0.534512 0.508309
vt 0.527860 0.508309
vt 0.516606 0.521815
vt 0.516606 0.528318
vt 0.500004 0.508309
vt 0.500004 0.521815
vt 0.472148 0.508309
vt 0.483402 0.521815
vt 0.472148 0.528318
vt 0.483402 0.528318
vt 0.465496 0.508309
vt 0.465496 0.529274
vt 2.858473 0.508309
vt 2.865117 0.508309
vt 2.863137 0.529274
vt 2.870294 0.531581
vt 2.904056 0.508309
vt 2.904056 0.536975
vt 2.895972 0.543207
vt 2.872879 0.543207
vt 2.944797 0.539873
vt 2.944797 0.508309
vt 0.474021 0.539873
vt 0.474021 0.508309
vt 0.487009 0.537869
vt 0.487009 0.508309
vt 0.499996 0.537464
vt 0.499996 0.508309
vt 0.512983 0.508309
vt 0.512983 0.537869
vt 0.525971 0.508309
vt 0.525971 0.539873
vt 0.525979 2.944797
vt 0.516607 2.931196
vt 0.500004 2.931196
vt 0.500004 2.895972
vt 0.483401 2.895972
vt 0.483401 2.931196
vt 0.492774 2.887633
vt 0.485024 2.887633
vt 0.483402 2.887633
vt 0.496015 2.887632
vt 0.500004 2.887633
vt 0.503993 2.887632
vt 0.507234 2.887633
vt 0.514984 2.887633
vt 0.516606 2.887633
vt 0.537267 2.872879
vt 0.516605 2.872879
vt 0.512991 2.950928
vt 0.500004 2.952165
vt 0.487017 2.950928
vt 0.474029 2.944797
vt 0.516605 2.870294
vt 0.516606 2.860172
vt 0.527860 2.860172
vt 0.534512 2.863137
vt 0.537267 2.870294
vt -1.904056 0.508309
vt -1.904056 0.536975
vt -1.944797 0.508309
vt -1.944797 0.539873
vt 0.462741 2.904056
vt 0.462741 2.887634
vt 0.483402 2.880732
vt 0.462741 2.883846
vt 0.483403 2.875679
vt 0.470714 2.878993
vt 0.496015 2.880731
vt 0.492774 2.880731
vt 0.496015 2.875679
vt 0.492774 2.875679
vt 0.485025 2.880732
vt 0.485025 2.875679
vt 0.496015 0.536301
vt 0.492774 0.536301
vt 0.496015 0.529396
vt 0.492774 0.529396
vt 0.496015 0.522490
vt 0.492774 0.522490
vt 0.483402 0.529397
vt 0.485025 0.536302
vt 0.485025 0.529397
vt 0.483402 0.522491
vt 0.485024 0.522491
vt -1.887634 0.536975
vt -1.883846 0.535955
vt -1.865117 0.508309
vt -1.870293 0.531581
vt -1.863137 0.529274
vt -1.858473 0.508309
vt 0.462741 2.870293
vt 0.483403 2.874806
vt 0.483402 2.870293
vt 0.465496 2.863137
vt 0.472148 2.860172
vt 0.483402 2.860172
vt -1.872879 0.543207
vt -1.887633 0.543207
vt -1.880732 0.541357
vt -1.875680 0.536301
vt -1.870294 0.531581
vt -1.873831 0.529396
vt -1.875679 0.522490
vt -1.860172 0.528318
vt -1.858726 0.521815
vt 0.516607 2.880732
vt 0.514984 2.880732
vt 0.516607 2.875680
vt 0.514984 2.875680
vt 0.516607 0.536301
vt 0.514984 0.536301
vt 0.516607 0.529396
vt 0.514984 0.529396
vt 0.516606 0.522490
vt 0.514983 0.522491
vt 2.858726 0.521815
vt 2.875678 0.522491
vt 2.860172 0.528318
vt 2.870293 0.531581
vt 2.873829 0.529397
vt 2.874806 0.533037
vt 0.516606 2.875679
vt 0.514983 2.875679
vt 0.516606 2.858726
vt 0.500004 2.858726
vt 0.507234 2.875679
vt 0.503992 2.875679
vt 0.500004 2.875680
vt 0.492774 2.875679
vt 0.485024 2.875678
vt 0.483402 2.858726
vt 0.483402 2.875678
vt 2.868065 0.529228
vt 2.866708 0.532073
vt 2.865941 0.528543
vt 2.864983 0.531517
vt 2.863816 0.527858
vt 2.863259 0.530961
vt 0.469343 0.532073
vt 0.468922 0.529228
vt 0.471157 0.532303
vt 0.471157 0.529512
vt 0.472971 0.532073
vt 0.473392 0.529228
vt -1.866708 0.532073
vt -1.868066 0.529228
vt -1.864983 0.531517
vt -1.865941 0.528543
vt -1.863259 0.530961
vt -1.863816 0.527858
vt 0.527029 0.530961
vt 0.526608 0.527858
vt 0.528843 0.530731
vt 0.528843 0.527574
vt 0.530657 0.530961
vt 0.531078 0.527858
vt 0.530657 2.866708
vt 0.530657 2.863259
vt 0.531408 2.864983
vt 0.528843 2.867422
vt 0.528843 2.862544
vt 0.527029 2.866708
vt 0.527029 2.863259
vt 0.526278 2.864983
vt -1.868068 0.529227
vt -1.865944 0.528542
vt -1.866711 0.532073
vt -1.864986 0.531517
vt -1.863819 0.527857
vt -1.863262 0.530961
vt 0.530652 0.532073
vt 0.528838 0.532303
vt 0.531073 0.529227
vt 0.528838 0.529511
vt 0.527024 0.532073
vt 0.526603 0.529227
vt 2.866710 0.532073
vt 2.864986 0.531517
vt 2.868068 0.529227
vt 2.865943 0.528542
vt 2.863261 0.530961
vt 2.863819 0.527857
vt 0.472976 0.530961
vt 0.471162 0.530730
vt 0.473397 0.527857
vt 0.471162 0.527574
vt 0.469348 0.530961
vt 0.468927 0.527857
vt 0.469348 2.863262
vt 0.469348 2.866711
vt 0.468597 2.864986
vt 0.471162 2.867425
vt 0.471162 2.862547
vt 0.472976 2.866710
vt 0.472976 2.863261
vt 0.473727 2.864986
vt 2.884429 0.541904
vt 2.884008 0.545029
vt 2.882197 0.541904
vt 2.882197 0.545029
vt 2.879964 0.541904
vt 2.880385 0.545029
vt 0.471250 0.545029
vt 0.470829 0.541904
vt 0.473064 0.545029
vt 0.473064 0.541904
vt 0.474878 0.545029
vt 0.475299 0.541904
vt -1.884008 0.545029
vt -1.884429 0.541904
vt -1.882197 0.545029
vt -1.882197 0.541904
vt -1.880385 0.545029
vt -1.879964 0.541904
vt 0.525122 0.545029
vt 0.524701 0.541904
vt 0.526936 0.545029
vt 0.526936 0.541904
vt 0.528750 0.545029
vt 0.529171 0.541904
vt 0.528750 2.884008
vt 0.528750 2.880385
vt 0.529502 2.882197
vt 0.526936 2.884759
vt 0.526936 2.879634
vt 0.525122 2.884008
vt 0.525122 2.880385
vt 0.524371 2.882197
vt 0.538592 0.531404
vt 0.461400 0.531404
vt 0.538592 0.529396
vt 0.461400 0.529396
vt 0.538592 0.527388
vt 0.461400 0.527388
vt 0.538600 2.889641
vt 0.461408 2.889641
vt 0.538600 2.887634
vt 0.461408 2.887634
vt 0.538600 2.885628
vt 0.461408 2.885628
vt 0.538600 0.531404
vt 0.461408 0.531404
vt 0.538600 0.529396
vt 0.461408 0.529396
vt 0.538600 0.527388
vt 0.461408 0.527388
vt 0.461400 2.885628
vt 0.538592 2.885628
vt 0.461400 2.887634
vt 0.538592 2.887634
vt 0.461400 2.889641
vt 0.538592 2.889641
vt 0.503992 2.880731
vt 0.507234 2.880731
vt 0.507234 2.875679
vt 0.503992 0.536301
vt 0.503992 0.529396
vt 0.507234 0.536301
vt 0.507234 0.529396
vt 0.503992 0.522490
vt 0.507234 0.522490
vt -1.887634 0.526556
vt -1.887634 0.529396
vt -1.889641 0.527388
vt -1.890472 0.529396
vt -1.885628 0.527388
vt -1.889641 0.531404
vt -1.884796 0.529396
vt -1.887634 0.532235
vt -1.885628 0.531404
vt 2.889641 0.531404
vt 2.887634 0.529396
vt 2.890472 0.529396
vt 2.889641 0.527388
vt 2.887634 0.532235
vt 2.887634 0.526556
vt 2.885628 0.531404
vt 2.885628 0.527388
vt 2.884796 0.529396
vt 0.534072 0.533275
vt 0.537267 0.531581
vt 0.534072 0.541512
vt 0.537267 0.543207
vt 0.516605 0.531581
vt 0.528673 0.541512
vt 0.528673 0.533275
vt 0.516605 0.543207
vt 2.880731 0.541357
vt 2.887336 0.539090
vt 2.887632 0.543207
vt 2.875679 0.536301
vt 2.879055 0.524737
vt 2.873830 0.529396
vt 2.875679 0.522490
vt 2.880732 0.541357
vt 2.887336 0.539090
vt 2.887633 0.543207
vt 2.875679 0.536302
vt 2.879054 0.524738
vt 2.873830 0.529397
vt 2.875678 0.522491
vt 0.485024 0.543207
vt 0.485024 0.539090
vt 0.492774 0.543207
vt 0.492774 0.539090
vt -1.887336 0.539090
vt -1.880732 0.541357
vt -1.875680 0.536301
vt -1.879055 0.524738
vt -1.873831 0.529396
vt -1.875679 0.522491
vt -1.887633 0.543207
vt -1.887336 0.539090
vt -1.880731 0.541357
vt -1.875679 0.536301
vt -1.879055 0.524737
vt -1.873830 0.529396
vt -1.875679 0.522490
vt 0.496015 2.879055
vt 0.500004 2.879055
vt 0.503992 2.879055
vt 0.492774 2.879055
vt 0.485024 2.879054
vt 0.465488 2.858473
vt 0.472140 2.855721
vt 0.462733 2.865117
vt 0.462733 2.904056
vt 0.487009 2.950928
vt 0.474021 2.944797
vt 0.499996 2.855721
vt 0.499996 2.952165
vt 0.512983 2.950928
vt 0.527852 2.855721
vt 0.537259 2.904056
vt 0.525971 2.944797
vt 0.537259 2.865117
vt 0.534504 2.858473
vt 0.496015 0.543207
vt 0.496015 0.539090
vt 0.500004 0.543207
vt 0.500004 0.539090
vt 0.503993 0.539090
vt 0.503993 0.543207
vt -1.887336 0.539090
vt -1.880731 0.541357
vt -1.887632 0.543207
vt -1.875679 0.536301
vt -1.879055 0.524737
vt -1.873830 0.529396
vt -1.875679 0.522490
vt 0.507234 0.539090
vt 0.514983 0.539090
vt 0.507234 0.543207
vt 0.514984 0.543207
vt 2.887336 0.539090
vt 2.887633 0.543207
vt 2.880731 0.541357
vt 2.875679 0.536301
vt 2.879055 0.524737
vt 2.873830 0.529396
vt 2.875679 0.522490
vt 0.514984 2.879055
vt 0.507234 2.879055
vt 0.531372 0.537011
s 1
f 3/1/1 2/2/2 1/3/3
f 4/4/4 1/3/3 2/2/2
f 4/4/4 2/2/2 5/5/5
f 6/6/5 5/5/5 2/2/2
f 6/6/5 7/7/6 5/5/5
f 8/8/7 5/5/5 7/7/6
f 8/8/7 7/7/6 9/9/8
f 10/10/9 9/9/8 7/7/6
f 13/11/10 12/12/11 11/13/12
f 14/14/13 11/13/12 12/12/11
f 14/14/13 15/15/14 11/13/12
f 16/16/15 11/13/12 15/15/14
f 19/17/14 18/18/16 17/19/17
f 20/20/18 17/19/17 18/18/16
f 20/20/18 21/21/19 17/19/17
f 22/22/19 17/19/17 21/21/19
f 22/22/19 21/21/19 23/23/20
f 24/24/21 23/23/20 21/21/19
f 24/24/21 25/25/22 23/23/20
f 26/26/23 23/23/20 25/25/22
f 29/27/24 28/28/25 27/29/24
f 30/30/26 27/29/24 28/28/25
f 30/30/26 28/28/25 31/31/27
f 32/32/23 31/31/27 28/28/25
f 35/33/28 34/34/28 33/35/28
f 38/36/29 37/37/30 36/38/31
f 41/39/32 40/40/33 39/41/34
f 42/42/35 39/41/34 40/40/33
f 42/42/35 40/40/33 43/43/36
f 44/44/36 43/43/36 40/40/33
f 42/42/35 43/43/36 45/45/36
f 46/46/36 45/45/36 43/43/36
f 45/45/36 46/46/36 47/47/37
f 48/48/36 47/47/37 46/46/36
f 47/47/37 48/48/36 49/49/38
f 50/50/36 49/49/38 48/48/36
f 47/47/37 49/49/38 51/51/39
f 52/52/40 51/51/39 49/49/38
f 55/53/41 54/54/42 53/55/32
f 56/56/43 53/55/32 54/54/42
f 54/54/42 57/57/12 56/56/43
f 58/58/12 56/56/43 57/57/12
f 58/58/12 59/59/12 56/56/43
f 60/60/12 56/56/43 59/59/12
f 63/61/44 62/58/44 61/62/44
f 64/57/44 61/62/44 62/58/44
f 67/63/45 66/64/45 65/65/46
f 68/66/47 65/65/46 66/64/45
f 65/65/46 68/66/47 69/67/48
f 70/68/48 69/67/48 68/66/47
f 70/68/48 71/69/49 69/67/48
f 72/70/50 69/67/48 71/69/49
f 71/69/49 73/71/51 72/70/50
f 74/72/51 72/70/50 73/71/51
f 77/73/52 76/74/53 75/34/54
f 78/35/55 75/34/54 76/74/53
f 81/74/56 80/75/56 79/35/56
f 82/76/56 79/35/56 80/75/56
f 82/76/56 80/75/56 83/77/56
f 84/78/56 83/77/56 80/75/56
f 82/76/56 83/77/56 85/79/56
f 86/80/56 85/79/56 83/77/56
f 87/81/56 86/80/56 83/77/56
f 85/79/56 88/82/56 82/76/56
f 88/82/56 89/83/56 82/76/56
f 89/83/56 90/84/56 82/76/56
f 90/84/56 91/85/56 82/76/56
f 82/76/56 91/85/56 79/35/56
f 92/86/56 79/35/56 91/85/56
f 92/86/56 93/87/56 79/35/56
f 79/35/56 93/87/56 94/33/56
f 94/33/56 93/87/56 95/88/56
f 96/89/56 95/88/56 93/87/56
f 99/90/57 98/74/58 97/73/59
f 98/74/58 99/90/57 100/75/60
f 101/91/61 100/75/60 99/90/57
f 101/91/61 102/92/62 100/75/60
f 103/78/63 100/75/60 102/92/62
f 103/78/63 102/92/62 104/93/64
f 107/94/65 106/95/65 105/96/66
f 108/97/65 107/94/65 105/96/66
f 109/98/67 107/94/65 108/97/65
f 112/99/68 111/100/68 110/101/68
f 113/102/68 110/101/68 111/100/68
f 116/93/69 115/103/70 114/78/71
f 117/77/72 114/78/71 115/103/70
f 115/103/70 118/104/73 117/77/72
f 119/81/74 117/77/72 118/104/73
f 119/81/74 118/104/73 120/105/75
f 121/106/76 120/105/75 118/104/73
f 120/105/75 121/106/76 122/107/77
f 123/108/78 122/107/77 121/106/76
f 126/82/79 125/79/79 124/109/80
f 127/110/80 124/109/80 125/79/79
f 124/109/80 127/110/80 128/111/81
f 129/112/82 128/111/81 127/110/80
f 132/81/79 131/105/83 130/80/79
f 133/113/80 130/80/79 131/105/83
f 131/105/83 134/107/84 133/113/80
f 135/114/81 133/113/80 134/107/84
f 138/115/85 137/116/86 136/117/87
f 139/118/88 136/117/87 137/116/86
f 136/117/87 139/118/88 140/119/89
f 141/120/89 140/119/89 139/118/88
f 144/38/81 143/121/90 142/122/91
f 145/123/90 142/122/91 143/121/90
f 143/121/90 146/124/92 145/123/90
f 147/125/92 145/123/90 146/124/92
f 150/100/25 149/99/25 148/126/25
f 148/126/25 149/99/25 151/127/25
f 149/99/25 152/128/93 151/127/25
f 151/127/25 152/128/93 153/129/94
f 153/129/94 152/128/93 154/130/95
f 155/131/96 154/130/95 152/128/93
f 158/132/97 157/108/98 156/106/99
f 157/108/98 158/132/97 159/133/98
f 159/133/98 158/132/97 160/134/97
f 161/135/65 160/134/97 158/132/97
f 162/136/66 160/134/97 161/135/65
f 163/137/66 160/134/97 162/136/66
f 166/138/100 165/139/101 164/140/102
f 167/141/103 166/138/100 164/140/102
f 166/138/100 167/141/103 168/142/104
f 169/143/105 168/142/104 167/141/103
f 169/143/105 170/144/106 168/142/104
f 168/142/104 170/144/106 171/145/25
f 172/146/25 171/145/25 170/144/106
f 175/87/79 174/86/79 173/147/107
f 176/148/107 173/147/107 174/86/79
f 173/147/107 176/148/107 177/149/86
f 178/150/86 177/149/86 176/148/107
f 181/151/108 180/152/108 179/153/90
f 182/154/90 179/153/90 180/152/108
f 179/153/90 182/154/90 183/155/109
f 184/156/110 183/155/109 182/154/90
f 187/157/12 186/158/12 185/159/12
f 188/160/111 185/159/12 186/158/12
f 189/161/112 188/160/111 186/158/12
f 190/162/112 188/160/111 189/161/112
f 193/163/113 192/164/114 191/165/115
f 191/165/115 192/164/114 194/166/115
f 195/167/116 194/166/115 192/164/114
f 195/167/116 196/168/117 194/166/115
f 196/168/117 197/169/115 194/166/115
f 197/169/115 198/111/118 194/166/115
f 198/111/118 199/170/118 194/166/115
f 199/170/118 200/171/115 194/166/115
f 201/172/115 194/166/115 200/171/115
f 202/173/119 201/172/115 200/171/115
f 205/174/120 204/175/120 203/176/121
f 206/177/122 203/176/121 204/175/120
f 203/176/121 206/177/122 207/178/123
f 208/179/124 207/178/123 206/177/122
f 211/180/125 210/181/126 209/182/127
f 212/183/128 209/182/127 210/181/126
f 209/182/127 212/183/128 213/184/129
f 214/185/129 213/184/129 212/183/128
f 217/186/130 216/187/130 215/188/131
f 218/189/131 215/188/131 216/187/130
f 215/188/131 218/189/131 219/190/132
f 220/191/132 219/190/132 218/189/131
f 223/192/133 222/193/133 221/194/134
f 224/195/134 221/194/134 222/193/133
f 221/194/134 224/195/134 225/196/135
f 226/197/135 225/196/135 224/195/134
f 229/198/65 228/199/65 227/200/65
f 229/198/65 230/201/65 228/199/65
f 231/202/65 228/199/65 230/201/65
f 230/201/65 232/203/65 231/202/65
f 233/204/65 231/202/65 232/203/65
f 234/205/65 233/204/65 232/203/65
f 237/206/130 236/207/131 235/208/130
f 238/209/136 235/208/130 236/207/131
f 236/207/131 239/210/132 238/209/136
f 240/211/132 238/209/136 239/210/132
f 243/212/129 242/213/128 241/214/129
f 244/215/128 241/214/129 242/213/128
f 242/213/128 245/216/125 244/215/128
f 246/217/126 244/215/128 245/216/125
f 249/218/120 248/219/121 247/220/120
f 250/221/121 247/220/120 248/219/121
f 248/219/121 251/222/124 250/221/121
f 252/223/123 250/221/121 251/222/124
f 255/224/135 254/225/137 253/226/135
f 256/227/137 253/226/135 254/225/137
f 254/225/137 257/228/133 256/227/137
f 258/229/133 256/227/137 257/228/133
f 261/230/65 260/231/65 259/232/65
f 260/231/65 261/230/65 262/233/65
f 263/234/65 262/233/65 261/230/65
f 262/233/65 263/234/65 264/235/65
f 265/236/65 264/235/65 263/234/65
f 265/236/65 266/237/65 264/235/65
f 269/238/138 268/239/138 267/240/139
f 270/241/139 267/240/139 268/239/138
f 267/240/139 270/241/139 271/242/140
f 272/243/141 271/242/140 270/241/139
f 275/244/142 274/245/143 273/246/144
f 276/247/144 273/246/144 274/245/143
f 273/246/144 276/247/144 277/248/145
f 278/249/145 277/248/145 276/247/144
f 281/250/146 280/251/147 279/252/148
f 282/253/148 279/252/148 280/251/147
f 279/252/148 282/253/148 283/254/149
f 284/255/149 283/254/149 282/253/148
f 287/256/150 286/257/151 285/258/152
f 288/259/152 285/258/152 286/257/151
f 285/258/152 288/259/152 289/260/153
f 290/261/153 289/260/153 288/259/152
f 293/262/56 292/263/56 291/264/56
f 293/262/56 294/265/56 292/263/56
f 295/266/56 292/263/56 294/265/56
f 294/265/56 296/267/56 295/266/56
f 297/268/56 295/266/56 296/267/56
f 298/269/56 297/268/56 296/267/56
f 301/270/154 300/271/154 299/272/19
f 302/273/19 299/272/19 300/271/154
f 299/272/19 302/273/19 303/274/155
f 304/275/155 303/274/155 302/273/19
f 307/276/154 306/277/154 305/278/56
f 308/279/56 305/278/56 306/277/154
f 305/278/56 308/279/56 309/280/156
f 310/281/157 309/280/156 308/279/56
f 313/282/157 312/283/157 311/284/5
f 314/285/5 311/284/5 312/283/157
f 311/284/5 314/285/5 315/286/158
f 316/287/158 315/286/158 314/285/5
f 319/288/158 318/289/158 317/290/159
f 320/291/159 317/290/159 318/289/158
f 317/290/159 320/291/159 321/292/155
f 322/293/155 321/292/155 320/291/159
f 325/84/79 324/294/80 323/85/79
f 326/295/80 323/85/79 324/294/80
f 324/294/80 327/168/81 326/295/80
f 328/296/160 326/295/80 327/168/81
f 331/297/85 330/298/161 329/299/162
f 332/300/163 329/299/162 330/298/161
f 330/298/161 333/301/164 332/300/163
f 334/302/165 332/300/163 333/301/164
f 337/303/166 336/304/25 335/305/167
f 335/305/167 336/304/25 338/306/168
f 339/307/169 336/304/25 337/303/166
f 338/306/168 336/304/25 340/308/170
f 341/309/171 336/304/25 339/307/169
f 340/308/170 336/304/25 342/310/172
f 343/311/173 336/304/25 341/309/171
f 342/310/172 336/304/25 343/311/173
f 346/312/174 345/313/12 344/314/175
f 344/314/175 345/313/12 347/315/176
f 348/316/177 345/313/12 346/312/174
f 347/315/176 345/313/12 349/317/178
f 350/318/179 345/313/12 348/316/177
f 349/317/178 345/313/12 351/319/180
f 352/320/181 345/313/12 350/318/179
f 351/319/180 345/313/12 352/320/181
f 355/321/182 354/322/182 353/323/182
f 356/324/182 353/323/182 354/322/182
f 354/322/182 355/321/182 357/325/182
f 353/323/182 356/324/182 358/326/182
f 359/327/182 357/325/182 355/321/182
f 360/328/182 358/326/182 356/324/182
f 357/325/182 359/327/182 360/328/182
f 358/326/182 360/328/182 359/327/182
f 363/329/12 362/330/12 361/331/12
f 364/332/12 362/330/12 363/329/12
f 365/333/12 362/330/12 364/332/12
f 366/334/12 365/333/12 364/332/12
f 367/335/12 365/333/12 366/334/12
f 370/336/183 369/337/183 368/338/183
f 371/339/12 369/337/183 370/336/183
f 372/340/12 369/337/183 371/339/12
f 373/341/12 372/340/12 371/339/12
f 374/342/12 372/340/12 373/341/12
f 377/343/184 376/344/184 375/345/184
f 378/346/184 375/345/184 376/344/184
f 381/139/25 380/347/25 379/348/25
f 379/348/25 380/347/25 382/349/25
f 380/347/25 383/350/25 382/349/25
f 382/349/25 383/350/25 384/351/26
f 384/351/26 383/350/25 385/352/185
f 388/353/25 387/354/25 386/355/25
f 386/355/25 387/354/25 389/356/25
f 387/354/25 390/357/25 389/356/25
f 389/356/25 390/357/25 391/358/25
f 391/358/25 390/357/25 392/359/25
f 395/111/186 394/169/186 393/360/186
f 396/361/186 393/360/186 394/169/186
f 396/361/186 394/169/186 397/362/186
f 398/168/186 397/362/186 394/169/186
f 401/170/187 400/363/188 399/171/188
f 402/364/188 399/171/188 400/363/188
f 405/365/159 404/366/159 403/367/159
f 406/368/159 403/367/159 404/366/159
f 404/366/159 407/369/159 406/368/159
f 408/370/159 406/368/159 407/369/159
f 404/366/159 409/371/159 407/369/159
f 410/372/159 407/369/159 409/371/159
f 410/372/159 409/371/159 411/373/159
f 412/374/159 411/373/159 409/371/159
f 412/374/159 413/375/159 411/373/159
f 414/376/159 411/373/159 413/375/159
f 413/375/159 412/374/159 415/377/159
f 416/378/159 415/377/159 412/374/159
f 419/379/189 418/380/189 417/381/189
f 420/382/189 417/381/189 418/380/189
f 420/382/189 421/383/189 417/381/189
f 422/384/189 417/381/189 421/383/189
f 425/385/25 424/386/25 423/387/25
f 425/385/25 426/388/25 424/386/25
f 425/385/25 427/389/25 426/388/25
f 427/389/25 428/390/25 426/388/25
f 427/389/25 429/391/25 428/390/25
f 432/392/189 431/393/190 430/394/190
f 433/395/190 430/394/190 431/393/190
f 436/396/12 435/397/12 434/398/12
f 436/396/12 434/398/12 437/399/12
f 438/400/12 436/396/12 437/399/12
f 438/400/12 437/399/12 439/401/12
f 438/400/12 439/401/12 440/402/12
f 443/403/191 442/404/192 441/164/192
f 444/167/186 441/164/192 442/404/192
f 447/323/193 446/405/182 445/321/194
f 445/321/194 446/405/182 448/327/195
f 449/326/196 446/405/182 447/323/193
f 448/327/195 446/405/182 449/326/196
