# Blender 4.5.3 LTS
# www.blender.org
mtllib KiGe_gun_133_barrel_x4_001.mtl
o Dido_gun_cal133_x1_barrel_004
v 0.677780 4.291257 0.410019
v 2.077780 4.080110 0.904301
v 0.677780 4.080110 0.904301
v 2.077780 4.291257 0.410019
v 2.077780 3.503243 1.266140
v 0.677780 4.080110 0.904301
v 2.077780 4.080110 0.904301
v 0.677780 3.503243 1.266140
v 2.077780 2.715229 1.398582
v 0.677780 2.715229 1.398582
v 2.077780 1.927215 1.266140
v 0.677780 1.927215 1.266140
v 2.077780 1.350349 0.904301
v 0.677780 1.350349 0.904301
v 2.077780 1.139201 0.410019
v 0.677780 1.350349 0.904301
v 2.077780 1.350349 0.904301
v 0.677780 1.139201 0.410019
v 2.077780 1.350348 -0.084262
v 0.677780 1.350349 -0.084262
v 1.376958 2.139953 6.001431
v 1.377981 2.006982 5.009881
v 1.297968 2.114283 6.001431
v 1.455951 2.114283 6.001431
v 1.297968 2.114283 6.001431
v 1.377981 2.006982 5.009881
v 1.249148 2.047088 6.001435
v 1.249148 1.964033 6.001434
v 1.297968 1.896840 6.001434
v 1.297968 1.896840 6.001434
v 1.377981 2.006982 5.009881
v 1.376958 1.871172 6.001432
v 1.455949 1.896840 6.001432
v 1.455949 1.896840 6.001432
v 1.377981 2.006982 5.009881
v 1.504769 1.964033 6.001430
v 1.504769 2.047090 6.001431
v 1.455951 2.114283 6.001431
v 1.378091 2.233291 5.973173
v 1.297968 2.114283 6.001431
v 1.245150 2.190094 5.973173
v 1.376958 2.139953 6.001431
v 1.249148 2.047088 6.001435
v 1.511031 2.190094 5.973173
v 1.162990 2.077009 5.973173
v 1.455951 2.114283 6.001431
v 1.249148 1.964033 6.001434
v 1.593191 2.077009 5.973173
v 1.162990 1.937229 5.973173
v 1.504769 2.047090 6.001431
v 1.297968 1.896840 6.001434
v 1.593191 1.937229 5.973173
v 1.245150 1.824143 5.973173
v 1.504769 1.964033 6.001430
v 1.376958 1.871172 6.001432
v 1.511027 1.824143 5.973173
v 1.378090 1.780947 5.973173
v 1.455949 1.896840 6.001432
v 1.246324 2.188138 3.805507
v 1.377960 2.006953 4.064510
v 1.164966 2.076159 3.805507
v 1.164966 1.937747 3.805507
v 1.246323 1.825770 3.805507
v 1.509597 1.825770 3.805507
v 1.590955 1.937747 3.805507
v 1.590955 2.076158 3.805507
v 1.509598 2.188138 3.805507
v 1.164966 2.076159 3.805507
v 1.377960 2.006953 4.064510
v 1.164966 1.937747 3.805507
v 1.590955 1.937747 3.805507
v 1.377960 2.006953 4.064510
v 1.590955 2.076158 3.805507
v 1.128903 2.087877 2.309575
v 1.377960 2.006954 2.578837
v 1.128903 1.926029 2.309575
v 1.128903 1.926029 2.309575
v 1.377960 2.006954 2.578837
v 1.224034 1.795094 2.309575
v 1.531886 1.795094 2.309575
v 1.627018 1.926029 2.309575
v 1.627018 2.087877 2.309575
v 1.531887 2.218815 2.309575
v 1.224036 2.218815 2.309575
v 1.128903 2.087877 2.309575
v 1.627018 1.926029 2.309575
v 1.377960 2.006954 2.578837
v 1.627018 2.087877 2.309575
v 1.378082 2.194973 5.751053
v 1.245150 2.190094 5.973173
v 1.267660 2.159097 5.751053
v 1.378091 2.233291 5.973173
v 1.488506 2.159094 5.751053
v 1.511031 2.190094 5.973173
v 1.162990 2.077009 5.973173
v 1.267660 2.159097 5.751053
v 1.245150 2.190094 5.973173
v 1.199413 2.065162 5.751053
v 1.162990 1.937229 5.973173
v 1.199413 1.949053 5.751053
v 1.245150 1.824143 5.973173
v 1.267659 1.855125 5.751053
v 1.378090 1.780947 5.973173
v 1.267659 1.855125 5.751053
v 1.245150 1.824143 5.973173
v 1.378082 1.819246 5.751053
v 1.511027 1.824143 5.973173
v 1.488505 1.855125 5.751053
v 1.593191 1.937229 5.973173
v 1.488505 1.855125 5.751053
v 1.511027 1.824143 5.973173
v 1.556751 1.949053 5.751053
v 1.593191 2.077009 5.973173
v 1.556751 2.065162 5.751053
v 1.511031 2.190094 5.973173
v 1.488506 2.159094 5.751053
v 1.246323 1.825770 3.805507
v 1.377960 2.006953 4.064510
v 1.377960 1.782998 3.805507
v 1.509597 1.825770 3.805507
v 1.509598 2.188138 3.805507
v 1.377960 2.006953 4.064510
v 1.377962 2.230911 3.805507
v 1.246324 2.188138 3.805507
v 1.224036 2.218815 2.309575
v 1.127063 2.088476 0.028639
v 1.222898 2.220381 0.028639
v 1.128903 2.087877 2.309575
v 1.127063 1.925433 0.028639
v 1.128903 1.926029 2.309575
v 1.222897 1.793529 0.028639
v 1.224034 1.795094 2.309575
v 1.224034 1.795094 2.309575
v 1.377961 1.743146 0.028639
v 1.222897 1.793529 0.028639
v 1.377960 1.745080 2.309575
v 1.533023 1.793529 0.028639
v 1.531886 1.795094 2.309575
v 1.531886 1.795094 2.309575
v 1.628859 1.925432 0.028639
v 1.533023 1.793529 0.028639
v 1.627018 1.926029 2.309575
v 1.628859 2.088475 0.028639
v 1.627018 2.087877 2.309575
v 1.533024 2.220381 0.028639
v 1.531887 2.218815 2.309575
v 1.531887 2.218815 2.309575
v 1.377962 2.270764 0.028639
v 1.533024 2.220381 0.028639
v 1.377962 2.268830 2.309575
v 1.222898 2.220381 0.028639
v 1.224036 2.218815 2.309575
v 1.378082 2.194973 3.805521
v 1.267660 2.159097 5.751053
v 1.267660 2.159097 3.805521
v 1.378082 2.194973 5.751053
v 1.488506 2.159094 3.805521
v 1.488506 2.159094 5.751053
v 1.199413 2.065162 5.751053
v 1.267660 2.159097 3.805521
v 1.267660 2.159097 5.751053
v 1.199413 2.065163 3.805521
v 1.199413 1.949053 5.751053
v 1.199413 1.949054 3.805521
v 1.267659 1.855125 5.751053
v 1.267659 1.855126 3.805521
v 1.378082 1.819246 5.751053
v 1.267659 1.855126 3.805521
v 1.267659 1.855125 5.751053
v 1.378082 1.819247 3.805521
v 1.488505 1.855125 5.751053
v 1.488505 1.855125 3.805521
v 1.556751 1.949053 5.751053
v 1.488505 1.855125 3.805521
v 1.488505 1.855125 5.751053
v 1.556751 1.949054 3.805521
v 1.556751 2.065162 5.751053
v 1.556751 2.065163 3.805521
v 1.488506 2.159094 5.751053
v 1.488506 2.159094 3.805521
v 1.164966 2.076159 3.805507
v 1.246324 2.188138 2.091280
v 1.246324 2.188138 3.805507
v 1.164966 2.076159 2.091280
v 1.164966 1.937747 3.805507
v 1.164966 1.937747 2.091280
v 1.246323 1.825770 3.805507
v 1.246323 1.825770 2.091280
v 1.377960 1.782998 3.805507
v 1.246323 1.825770 2.091280
v 1.246323 1.825770 3.805507
v 1.377960 1.782998 2.091280
v 1.509597 1.825770 3.805507
v 1.509597 1.825770 2.091280
v 1.590955 1.937747 3.805507
v 1.509597 1.825770 2.091280
v 1.509597 1.825770 3.805507
v 1.590955 1.937747 2.091280
v 1.590955 2.076158 3.805507
v 1.590955 2.076158 2.091280
v 1.509598 2.188138 3.805507
v 1.509598 2.188138 2.091280
v 1.377962 2.230911 3.805507
v 1.509598 2.188138 2.091280
v 1.509598 2.188138 3.805507
v 1.377962 2.230911 2.091280
v 1.246324 2.188138 3.805507
v 1.246324 2.188138 2.091280
v 1.224034 1.795094 2.309575
v 1.377960 2.006954 2.578837
v 1.377960 1.745080 2.309575
v 1.531886 1.795094 2.309575
v 1.531887 2.218815 2.309575
v 1.377960 2.006954 2.578837
v 1.377962 2.268830 2.309575
v 1.224036 2.218815 2.309575
v 1.083805 2.102515 1.838080
v 1.196147 2.257139 0.028662
v 1.196147 2.257139 1.838079
v 1.083805 2.102516 0.028662
v 1.083805 1.911390 1.838080
v 1.083805 1.911390 0.028662
v 1.196145 1.756767 1.838080
v 1.196145 1.756767 0.028662
v 1.377915 1.697706 1.838080
v 1.196145 1.756767 0.028662
v 1.196145 1.756767 1.838080
v 1.377915 1.697706 0.028662
v 1.559685 1.756767 1.838080
v 1.559685 1.756767 0.028662
v 1.672027 1.911390 1.838080
v 1.559685 1.756767 0.028662
v 1.559685 1.756767 1.838080
v 1.672027 1.911390 0.028662
v 1.672027 2.102514 1.838080
v 1.672027 2.102514 0.028662
v 1.559686 2.257139 1.838079
v 1.559686 2.257139 0.028662
v 1.377917 2.316202 1.838079
v 1.559686 2.257139 0.028662
v 1.559686 2.257139 1.838079
v 1.377917 2.316203 0.028662
v 1.196147 2.257139 1.838079
v 1.196147 2.257139 0.028662
v 1.196147 2.257139 1.838079
v 1.377915 2.006952 2.097082
v 1.083805 2.102515 1.838080
v 1.377917 2.316202 1.838079
v 1.083805 1.911390 1.838080
v 1.559686 2.257139 1.838079
v 1.196145 1.756767 1.838080
v 1.672027 2.102514 1.838080
v 1.377915 1.697706 1.838080
v 1.672027 1.911390 1.838080
v 1.559685 1.756767 1.838080
v -2.077780 4.291257 0.410019
v -0.677780 4.080110 0.904301
v -2.077780 4.080110 0.904301
v -0.677780 4.291257 0.410019
v -0.677780 3.503243 1.266140
v -2.077780 4.080110 0.904301
v -0.677780 4.080110 0.904301
v -2.077780 3.503243 1.266140
v -0.677780 2.715229 1.398582
v -2.077780 2.715229 1.398582
v -0.677780 1.927215 1.266140
v -2.077780 1.927215 1.266140
v -0.677780 1.350348 0.904301
v -2.077780 1.350349 0.904301
v -0.677780 1.139201 0.410019
v -2.077780 1.350349 0.904301
v -0.677780 1.350348 0.904301
v -2.077780 1.139201 0.410019
v -0.677780 1.350348 -0.084262
v -2.077780 1.350349 -0.084262
v -1.378602 2.139953 6.001431
v -1.377579 2.006982 5.009881
v -1.457592 2.114283 6.001431
v -1.299609 2.114283 6.001431
v -1.457592 2.114283 6.001431
v -1.377579 2.006982 5.009881
v -1.506412 2.047088 6.001435
v -1.506412 1.964033 6.001434
v -1.457592 1.896840 6.001434
v -1.457592 1.896840 6.001434
v -1.377579 2.006982 5.009881
v -1.378602 1.871172 6.001432
v -1.299611 1.896840 6.001432
v -1.299611 1.896840 6.001432
v -1.377579 2.006982 5.009881
v -1.250791 1.964033 6.001430
v -1.250791 2.047090 6.001431
v -1.299609 2.114283 6.001431
v -1.377469 2.233291 5.973173
v -1.457592 2.114283 6.001431
v -1.510410 2.190094 5.973173
v -1.378602 2.139953 6.001431
v -1.506412 2.047088 6.001435
v -1.244529 2.190094 5.973173
v -1.592570 2.077009 5.973173
v -1.299609 2.114283 6.001431
v -1.506412 1.964033 6.001434
v -1.162369 2.077009 5.973173
v -1.592570 1.937229 5.973173
v -1.250791 2.047090 6.001431
v -1.457592 1.896840 6.001434
v -1.162369 1.937229 5.973173
v -1.510410 1.824143 5.973173
v -1.250791 1.964033 6.001430
v -1.378602 1.871172 6.001432
v -1.244533 1.824143 5.973173
v -1.377470 1.780947 5.973173
v -1.299611 1.896840 6.001432
v -1.509236 2.188138 3.805507
v -1.377600 2.006953 4.064510
v -1.590594 2.076159 3.805507
v -1.590594 1.937747 3.805507
v -1.509237 1.825770 3.805507
v -1.245963 1.825770 3.805507
v -1.164605 1.937747 3.805507
v -1.164605 2.076158 3.805507
v -1.245962 2.188138 3.805507
v -1.590594 2.076159 3.805507
v -1.377600 2.006953 4.064510
v -1.590594 1.937747 3.805507
v -1.164605 1.937747 3.805507
v -1.377600 2.006953 4.064510
v -1.164605 2.076158 3.805507
v -1.626657 2.087877 2.309575
v -1.377599 2.006954 2.578837
v -1.626657 1.926029 2.309575
v -1.626657 1.926029 2.309575
v -1.377599 2.006954 2.578837
v -1.531526 1.795094 2.309575
v -1.223674 1.795094 2.309575
v -1.128542 1.926029 2.309575
v -1.128542 2.087877 2.309575
v -1.223673 2.218815 2.309575
v -1.531524 2.218815 2.309575
v -1.626657 2.087877 2.309575
v -1.128542 1.926029 2.309575
v -1.377599 2.006954 2.578837
v -1.128542 2.087877 2.309575
v -1.377478 2.194973 5.751053
v -1.510410 2.190094 5.973173
v -1.487900 2.159097 5.751053
v -1.377469 2.233291 5.973173
v -1.267054 2.159094 5.751053
v -1.244529 2.190094 5.973173
v -1.592570 2.077009 5.973173
v -1.487900 2.159097 5.751053
v -1.510410 2.190094 5.973173
v -1.556147 2.065162 5.751053
v -1.592570 1.937229 5.973173
v -1.556147 1.949053 5.751053
v -1.510410 1.824143 5.973173
v -1.487900 1.855125 5.751053
v -1.377470 1.780947 5.973173
v -1.487900 1.855125 5.751053
v -1.510410 1.824143 5.973173
v -1.377478 1.819246 5.751053
v -1.244533 1.824143 5.973173
v -1.267055 1.855125 5.751053
v -1.162369 1.937229 5.973173
v -1.267055 1.855125 5.751053
v -1.244533 1.824143 5.973173
v -1.198809 1.949053 5.751053
v -1.162369 2.077009 5.973173
v -1.198809 2.065162 5.751053
v -1.244529 2.190094 5.973173
v -1.267054 2.159094 5.751053
v -1.509237 1.825770 3.805507
v -1.377600 2.006953 4.064510
v -1.377600 1.782998 3.805507
v -1.245963 1.825770 3.805507
v -1.245962 2.188138 3.805507
v -1.377600 2.006953 4.064510
v -1.377598 2.230911 3.805507
v -1.509236 2.188138 3.805507
v -1.531524 2.218815 2.309575
v -1.628497 2.088476 0.028639
v -1.532661 2.220381 0.028639
v -1.626657 2.087877 2.309575
v -1.628497 1.925433 0.028639
v -1.626657 1.926029 2.309575
v -1.532662 1.793529 0.028639
v -1.531526 1.795094 2.309575
v -1.531526 1.795094 2.309575
v -1.377599 1.743146 0.028639
v -1.532662 1.793529 0.028639
v -1.377599 1.745079 2.309575
v -1.222537 1.793529 0.028639
v -1.223674 1.795094 2.309575
v -1.223674 1.795094 2.309575
v -1.126701 1.925432 0.028639
v -1.222537 1.793529 0.028639
v -1.128542 1.926029 2.309575
v -1.126701 2.088475 0.028639
v -1.128542 2.087877 2.309575
v -1.222536 2.220381 0.028639
v -1.223673 2.218815 2.309575
v -1.223673 2.218815 2.309575
v -1.377598 2.270764 0.028639
v -1.222536 2.220381 0.028639
v -1.377598 2.268830 2.309575
v -1.532661 2.220381 0.028639
v -1.531524 2.218815 2.309575
v -1.377477 2.194973 3.805521
v -1.487900 2.159097 5.751053
v -1.487899 2.159097 3.805521
v -1.377478 2.194973 5.751053
v -1.267054 2.159094 3.805521
v -1.267054 2.159094 5.751053
v -1.556147 2.065162 5.751053
v -1.487899 2.159097 3.805521
v -1.487900 2.159097 5.751053
v -1.556147 2.065163 3.805521
v -1.556147 1.949053 5.751053
v -1.556147 1.949054 3.805521
v -1.487900 1.855125 5.751053
v -1.487901 1.855126 3.805521
v -1.377478 1.819246 5.751053
v -1.487901 1.855126 3.805521
v -1.487900 1.855125 5.751053
v -1.377477 1.819247 3.805521
v -1.267055 1.855125 5.751053
v -1.267055 1.855125 3.805521
v -1.198809 1.949053 5.751053
v -1.267055 1.855125 3.805521
v -1.267055 1.855125 5.751053
v -1.198809 1.949054 3.805521
v -1.198809 2.065162 5.751053
v -1.198809 2.065163 3.805521
v -1.267054 2.159094 5.751053
v -1.267054 2.159094 3.805521
v -1.590594 2.076159 3.805507
v -1.509236 2.188138 2.091280
v -1.509236 2.188138 3.805507
v -1.590593 2.076159 2.091280
v -1.590594 1.937747 3.805507
v -1.590593 1.937747 2.091280
v -1.509237 1.825770 3.805507
v -1.509237 1.825770 2.091280
v -1.377600 1.782998 3.805507
v -1.509237 1.825770 2.091280
v -1.509237 1.825770 3.805507
v -1.377600 1.782998 2.091280
v -1.245963 1.825770 3.805507
v -1.245963 1.825770 2.091280
v -1.164605 1.937747 3.805507
v -1.245963 1.825770 2.091280
v -1.245963 1.825770 3.805507
v -1.164605 1.937747 2.091280
v -1.164605 2.076158 3.805507
v -1.164605 2.076158 2.091280
v -1.245962 2.188138 3.805507
v -1.245962 2.188138 2.091280
v -1.377598 2.230911 3.805507
v -1.245962 2.188138 2.091280
v -1.245962 2.188138 3.805507
v -1.377598 2.230911 2.091280
v -1.509236 2.188138 3.805507
v -1.509236 2.188138 2.091280
v -1.531526 1.795094 2.309575
v -1.377599 2.006954 2.578837
v -1.377599 1.745079 2.309575
v -1.223674 1.795094 2.309575
v -1.223673 2.218815 2.309575
v -1.377599 2.006954 2.578837
v -1.377598 2.268830 2.309575
v -1.531524 2.218815 2.309575
v -1.671755 2.102515 1.838080
v -1.559413 2.257139 0.028662
v -1.559413 2.257139 1.838079
v -1.671755 2.102516 0.028662
v -1.671755 1.911389 1.838080
v -1.671755 1.911390 0.028662
v -1.559415 1.756767 1.838080
v -1.559415 1.756767 0.028662
v -1.377645 1.697706 1.838080
v -1.559415 1.756767 0.028662
v -1.559415 1.756767 1.838080
v -1.377645 1.697706 0.028662
v -1.195875 1.756767 1.838080
v -1.195875 1.756767 0.028662
v -1.083533 1.911389 1.838080
v -1.195875 1.756767 0.028662
v -1.195875 1.756767 1.838080
v -1.083533 1.911390 0.028662
v -1.083533 2.102514 1.838080
v -1.083533 2.102514 0.028662
v -1.195874 2.257139 1.838079
v -1.195874 2.257139 0.028662
v -1.377643 2.316202 1.838079
v -1.195874 2.257139 0.028662
v -1.195874 2.257139 1.838079
v -1.377643 2.316203 0.028662
v -1.559413 2.257139 1.838079
v -1.559413 2.257139 0.028662
v -1.559413 2.257139 1.838079
v -1.377645 2.006952 2.097082
v -1.671755 2.102515 1.838080
v -1.377643 2.316202 1.838079
v -1.671755 1.911389 1.838080
v -1.195874 2.257139 1.838079
v -1.559415 1.756767 1.838080
v -1.083533 2.102514 1.838080
v -1.377645 1.697706 1.838080
v -1.083533 1.911389 1.838080
v -1.195875 1.756767 1.838080
v -1.378602 3.362829 4.930855
v -1.377579 3.229858 3.939305
v -1.457592 3.337159 4.930855
v -1.299609 3.337159 4.930855
v -1.457592 3.337159 4.930855
v -1.377579 3.229858 3.939305
v -1.506412 3.269964 4.930860
v -1.506412 3.186909 4.930859
v -1.457592 3.119716 4.930859
v -1.457592 3.119716 4.930859
v -1.377579 3.229858 3.939305
v -1.378602 3.094048 4.930857
v -1.299611 3.119716 4.930857
v -1.299611 3.119716 4.930857
v -1.377579 3.229858 3.939305
v -1.250791 3.186909 4.930855
v -1.250791 3.269966 4.930855
v -1.299609 3.337159 4.930855
v -1.377469 3.456167 4.902598
v -1.457592 3.337159 4.930855
v -1.510410 3.412970 4.902598
v -1.378602 3.362829 4.930855
v -1.506412 3.269964 4.930860
v -1.244529 3.412970 4.902598
v -1.592570 3.299885 4.902598
v -1.299609 3.337159 4.930855
v -1.506412 3.186909 4.930859
v -1.162369 3.299885 4.902598
v -1.592570 3.160105 4.902597
v -1.250791 3.269966 4.930855
v -1.457592 3.119716 4.930859
v -1.162369 3.160105 4.902597
v -1.510410 3.047019 4.902597
v -1.250791 3.186909 4.930855
v -1.378602 3.094048 4.930857
v -1.244533 3.047019 4.902597
v -1.377470 3.003824 4.902597
v -1.299611 3.119716 4.930857
v -1.509236 3.411014 2.734932
v -1.377600 3.229829 2.993935
v -1.590594 3.299035 2.734932
v -1.590594 3.160623 2.734932
v -1.509237 3.048646 2.734932
v -1.245963 3.048646 2.734932
v -1.164605 3.160623 2.734932
v -1.164605 3.299034 2.734932
v -1.245962 3.411014 2.734932
v -1.590594 3.299035 2.734932
v -1.377600 3.229829 2.993935
v -1.590594 3.160623 2.734932
v -1.164605 3.160623 2.734932
v -1.377600 3.229829 2.993935
v -1.164605 3.299034 2.734932
v -1.626657 3.310753 1.238999
v -1.377599 3.229830 1.508262
v -1.626657 3.148906 1.238999
v -1.626657 3.148906 1.238999
v -1.377599 3.229830 1.508262
v -1.531526 3.017970 1.238999
v -1.223674 3.017970 1.238999
v -1.128542 3.148906 1.238999
v -1.128542 3.310753 1.238999
v -1.223673 3.441691 1.238999
v -1.531524 3.441691 1.238999
v -1.626657 3.310753 1.238999
v -1.128542 3.148906 1.238999
v -1.377599 3.229830 1.508262
v -1.128542 3.310753 1.238999
v -1.377478 3.417850 4.680478
v -1.510410 3.412970 4.902598
v -1.487900 3.381973 4.680478
v -1.377469 3.456167 4.902598
v -1.267054 3.381970 4.680478
v -1.244529 3.412970 4.902598
v -1.592570 3.299885 4.902598
v -1.487900 3.381973 4.680478
v -1.510410 3.412970 4.902598
v -1.556147 3.288038 4.680478
v -1.592570 3.160105 4.902597
v -1.556147 3.171929 4.680478
v -1.510410 3.047019 4.902597
v -1.487900 3.078001 4.680478
v -1.377470 3.003824 4.902597
v -1.487900 3.078001 4.680478
v -1.510410 3.047019 4.902597
v -1.377478 3.042122 4.680478
v -1.244533 3.047019 4.902597
v -1.267055 3.078001 4.680478
v -1.162369 3.160105 4.902597
v -1.267055 3.078001 4.680478
v -1.244533 3.047019 4.902597
v -1.198809 3.171929 4.680478
v -1.162369 3.299885 4.902598
v -1.198809 3.288038 4.680478
v -1.244529 3.412970 4.902598
v -1.267054 3.381970 4.680478
v -1.509237 3.048646 2.734932
v -1.377600 3.229829 2.993935
v -1.377600 3.005874 2.734932
v -1.245963 3.048646 2.734932
v -1.245962 3.411014 2.734932
v -1.377600 3.229829 2.993935
v -1.377598 3.453786 2.734932
v -1.509236 3.411014 2.734932
v -1.531524 3.441691 1.238999
v -1.628497 3.311352 -1.041936
v -1.532661 3.443257 -1.041936
v -1.626657 3.310753 1.238999
v -1.628497 3.148309 -1.041936
v -1.626657 3.148906 1.238999
v -1.532662 3.016405 -1.041936
v -1.531526 3.017970 1.238999
v -1.531526 3.017970 1.238999
v -1.377599 2.966022 -1.041936
v -1.532662 3.016405 -1.041936
v -1.377599 2.967955 1.238999
v -1.222537 3.016405 -1.041936
v -1.223674 3.017970 1.238999
v -1.223674 3.017970 1.238999
v -1.126701 3.148308 -1.041936
v -1.222537 3.016405 -1.041936
v -1.128542 3.148906 1.238999
v -1.126701 3.311351 -1.041936
v -1.128542 3.310753 1.238999
v -1.222536 3.443257 -1.041936
v -1.223673 3.441691 1.238999
v -1.223673 3.441691 1.238999
v -1.377598 3.493640 -1.041936
v -1.222536 3.443257 -1.041936
v -1.377598 3.491706 1.238999
v -1.532661 3.443257 -1.041936
v -1.531524 3.441691 1.238999
v -1.377477 3.417849 2.734946
v -1.487900 3.381973 4.680478
v -1.487899 3.381973 2.734946
v -1.377478 3.417850 4.680478
v -1.267054 3.381970 2.734946
v -1.267054 3.381970 4.680478
v -1.556147 3.288038 4.680478
v -1.487899 3.381973 2.734946
v -1.487900 3.381973 4.680478
v -1.556147 3.288039 2.734946
v -1.556147 3.171929 4.680478
v -1.556147 3.171929 2.734946
v -1.487900 3.078001 4.680478
v -1.487901 3.078002 2.734946
v -1.377478 3.042122 4.680478
v -1.487901 3.078002 2.734946
v -1.487900 3.078001 4.680478
v -1.377477 3.042123 2.734946
v -1.267055 3.078001 4.680478
v -1.267055 3.078001 2.734946
v -1.198809 3.171929 4.680478
v -1.267055 3.078001 2.734946
v -1.267055 3.078001 4.680478
v -1.198809 3.171929 2.734946
v -1.198809 3.288038 4.680478
v -1.198809 3.288039 2.734946
v -1.267054 3.381970 4.680478
v -1.267054 3.381970 2.734946
v -1.590594 3.299035 2.734932
v -1.509236 3.411014 1.020705
v -1.509236 3.411014 2.734932
v -1.590593 3.299035 1.020705
v -1.590594 3.160623 2.734932
v -1.590593 3.160623 1.020705
v -1.509237 3.048646 2.734932
v -1.509237 3.048646 1.020705
v -1.377600 3.005874 2.734932
v -1.509237 3.048646 1.020705
v -1.509237 3.048646 2.734932
v -1.377600 3.005874 1.020705
v -1.245963 3.048646 2.734932
v -1.245963 3.048646 1.020705
v -1.164605 3.160623 2.734932
v -1.245963 3.048646 1.020705
v -1.245963 3.048646 2.734932
v -1.164605 3.160623 1.020705
v -1.164605 3.299034 2.734932
v -1.164605 3.299034 1.020705
v -1.245962 3.411014 2.734932
v -1.245962 3.411014 1.020705
v -1.377598 3.453786 2.734932
v -1.245962 3.411014 1.020705
v -1.245962 3.411014 2.734932
v -1.377598 3.453787 1.020705
v -1.509236 3.411014 2.734932
v -1.509236 3.411014 1.020705
v -1.531526 3.017970 1.238999
v -1.377599 3.229830 1.508262
v -1.377599 2.967955 1.238999
v -1.223674 3.017970 1.238999
v -1.223673 3.441691 1.238999
v -1.377599 3.229830 1.508262
v -1.377598 3.491706 1.238999
v -1.531524 3.441691 1.238999
v -1.671755 3.325391 0.767504
v -1.559413 3.480015 -1.041914
v -1.559413 3.480015 0.767504
v -1.671755 3.325392 -1.041914
v -1.671755 3.134265 0.767504
v -1.671755 3.134266 -1.041914
v -1.559415 2.979643 0.767504
v -1.559415 2.979643 -1.041914
v -1.377645 2.920581 0.767504
v -1.559415 2.979643 -1.041914
v -1.559415 2.979643 0.767504
v -1.377645 2.920582 -1.041914
v -1.195875 2.979643 0.767504
v -1.195875 2.979643 -1.041914
v -1.083533 3.134265 0.767504
v -1.195875 2.979643 -1.041914
v -1.195875 2.979643 0.767504
v -1.083533 3.134266 -1.041914
v -1.083533 3.325390 0.767504
v -1.083533 3.325390 -1.041914
v -1.195874 3.480015 0.767504
v -1.195874 3.480015 -1.041914
v -1.377643 3.539078 0.767504
v -1.195874 3.480015 -1.041914
v -1.195874 3.480015 0.767504
v -1.377643 3.539079 -1.041914
v -1.559413 3.480015 0.767504
v -1.559413 3.480015 -1.041914
v -1.559413 3.480015 0.767504
v -1.377645 3.229828 1.026506
v -1.671755 3.325391 0.767504
v -1.377643 3.539078 0.767504
v -1.671755 3.134265 0.767504
v -1.195874 3.480015 0.767504
v -1.559415 2.979643 0.767504
v -1.083533 3.325390 0.767504
v -1.377645 2.920581 0.767504
v -1.083533 3.134265 0.767504
v -1.195875 2.979643 0.767504
v 1.376958 3.362829 4.930855
v 1.377981 3.229858 3.939305
v 1.297968 3.337159 4.930855
v 1.455951 3.337159 4.930855
v 1.297968 3.337159 4.930855
v 1.377981 3.229858 3.939305
v 1.249148 3.269964 4.930860
v 1.249148 3.186909 4.930859
v 1.297968 3.119716 4.930859
v 1.297968 3.119716 4.930859
v 1.377981 3.229858 3.939305
v 1.376958 3.094048 4.930857
v 1.455949 3.119716 4.930857
v 1.455949 3.119716 4.930857
v 1.377981 3.229858 3.939305
v 1.504769 3.186909 4.930855
v 1.504769 3.269966 4.930855
v 1.455951 3.337159 4.930855
v 1.378091 3.456167 4.902598
v 1.297968 3.337159 4.930855
v 1.245150 3.412970 4.902598
v 1.376958 3.362829 4.930855
v 1.249148 3.269964 4.930860
v 1.511031 3.412970 4.902598
v 1.162990 3.299885 4.902598
v 1.455951 3.337159 4.930855
v 1.249148 3.186909 4.930859
v 1.593191 3.299885 4.902598
v 1.162990 3.160105 4.902597
v 1.504769 3.269966 4.930855
v 1.297968 3.119716 4.930859
v 1.593191 3.160105 4.902597
v 1.245150 3.047019 4.902597
v 1.504769 3.186909 4.930855
v 1.376958 3.094048 4.930857
v 1.511027 3.047019 4.902597
v 1.378090 3.003824 4.902597
v 1.455949 3.119716 4.930857
v 1.246324 3.411014 2.734932
v 1.377960 3.229829 2.993935
v 1.164966 3.299035 2.734932
v 1.164966 3.160623 2.734932
v 1.246323 3.048646 2.734932
v 1.509597 3.048646 2.734932
v 1.590955 3.160623 2.734932
v 1.590955 3.299034 2.734932
v 1.509598 3.411014 2.734932
v 1.164966 3.299035 2.734932
v 1.377960 3.229829 2.993935
v 1.164966 3.160623 2.734932
v 1.590955 3.160623 2.734932
v 1.377960 3.229829 2.993935
v 1.590955 3.299034 2.734932
v 1.128903 3.310753 1.238999
v 1.377960 3.229830 1.508262
v 1.128903 3.148906 1.238999
v 1.128903 3.148906 1.238999
v 1.377960 3.229830 1.508262
v 1.224034 3.017970 1.238999
v 1.531886 3.017970 1.238999
v 1.627018 3.148906 1.238999
v 1.627018 3.310753 1.238999
v 1.531887 3.441691 1.238999
v 1.224036 3.441691 1.238999
v 1.128903 3.310753 1.238999
v 1.627018 3.148906 1.238999
v 1.377960 3.229830 1.508262
v 1.627018 3.310753 1.238999
v 1.378082 3.417850 4.680478
v 1.245150 3.412970 4.902598
v 1.267660 3.381973 4.680478
v 1.378091 3.456167 4.902598
v 1.488506 3.381970 4.680478
v 1.511031 3.412970 4.902598
v 1.162990 3.299885 4.902598
v 1.267660 3.381973 4.680478
v 1.245150 3.412970 4.902598
v 1.199413 3.288038 4.680478
v 1.162990 3.160105 4.902597
v 1.199413 3.171929 4.680478
v 1.245150 3.047019 4.902597
v 1.267659 3.078001 4.680478
v 1.378090 3.003824 4.902597
v 1.267659 3.078001 4.680478
v 1.245150 3.047019 4.902597
v 1.378082 3.042122 4.680478
v 1.511027 3.047019 4.902597
v 1.488505 3.078001 4.680478
v 1.593191 3.160105 4.902597
v 1.488505 3.078001 4.680478
v 1.511027 3.047019 4.902597
v 1.556751 3.171929 4.680478
v 1.593191 3.299885 4.902598
v 1.556751 3.288038 4.680478
v 1.511031 3.412970 4.902598
v 1.488506 3.381970 4.680478
v 1.246323 3.048646 2.734932
v 1.377960 3.229829 2.993935
v 1.377960 3.005874 2.734932
v 1.509597 3.048646 2.734932
v 1.509598 3.411014 2.734932
v 1.377960 3.229829 2.993935
v 1.377962 3.453786 2.734932
v 1.246324 3.411014 2.734932
v 1.224036 3.441691 1.238999
v 1.127063 3.311352 -1.041936
v 1.222898 3.443257 -1.041936
v 1.128903 3.310753 1.238999
v 1.127063 3.148309 -1.041936
v 1.128903 3.148906 1.238999
v 1.222897 3.016405 -1.041936
v 1.224034 3.017970 1.238999
v 1.224034 3.017970 1.238999
v 1.377961 2.966022 -1.041936
v 1.222897 3.016405 -1.041936
v 1.377960 2.967955 1.238999
v 1.533023 3.016405 -1.041936
v 1.531886 3.017970 1.238999
v 1.531886 3.017970 1.238999
v 1.628859 3.148308 -1.041936
v 1.533023 3.016405 -1.041936
v 1.627018 3.148906 1.238999
v 1.628859 3.311351 -1.041936
v 1.627018 3.310753 1.238999
v 1.533024 3.443257 -1.041936
v 1.531887 3.441691 1.238999
v 1.531887 3.441691 1.238999
v 1.377962 3.493640 -1.041936
v 1.533024 3.443257 -1.041936
v 1.377962 3.491706 1.238999
v 1.222898 3.443257 -1.041936
v 1.224036 3.441691 1.238999
v 1.378082 3.417849 2.734946
v 1.267660 3.381973 4.680478
v 1.267660 3.381973 2.734946
v 1.378082 3.417850 4.680478
v 1.488506 3.381970 2.734946
v 1.488506 3.381970 4.680478
v 1.199413 3.288038 4.680478
v 1.267660 3.381973 2.734946
v 1.267660 3.381973 4.680478
v 1.199413 3.288039 2.734946
v 1.199413 3.171929 4.680478
v 1.199413 3.171929 2.734946
v 1.267659 3.078001 4.680478
v 1.267659 3.078002 2.734946
v 1.378082 3.042122 4.680478
v 1.267659 3.078002 2.734946
v 1.267659 3.078001 4.680478
v 1.378082 3.042123 2.734946
v 1.488505 3.078001 4.680478
v 1.488505 3.078001 2.734946
v 1.556751 3.171929 4.680478
v 1.488505 3.078001 2.734946
v 1.488505 3.078001 4.680478
v 1.556751 3.171929 2.734946
v 1.556751 3.288038 4.680478
v 1.556751 3.288039 2.734946
v 1.488506 3.381970 4.680478
v 1.488506 3.381970 2.734946
v 1.164966 3.299035 2.734932
v 1.246324 3.411014 1.020705
v 1.246324 3.411014 2.734932
v 1.164966 3.299035 1.020705
v 1.164966 3.160623 2.734932
v 1.164966 3.160623 1.020705
v 1.246323 3.048646 2.734932
v 1.246323 3.048646 1.020705
v 1.377960 3.005874 2.734932
v 1.246323 3.048646 1.020705
v 1.246323 3.048646 2.734932
v 1.377960 3.005874 1.020705
v 1.509597 3.048646 2.734932
v 1.509597 3.048646 1.020705
v 1.590955 3.160623 2.734932
v 1.509597 3.048646 1.020705
v 1.509597 3.048646 2.734932
v 1.590955 3.160623 1.020705
v 1.590955 3.299034 2.734932
v 1.590955 3.299034 1.020705
v 1.509598 3.411014 2.734932
v 1.509598 3.411014 1.020705
v 1.377962 3.453786 2.734932
v 1.509598 3.411014 1.020705
v 1.509598 3.411014 2.734932
v 1.377962 3.453787 1.020705
v 1.246324 3.411014 2.734932
v 1.246324 3.411014 1.020705
v 1.224034 3.017970 1.238999
v 1.377960 3.229830 1.508262
v 1.377960 2.967955 1.238999
v 1.531886 3.017970 1.238999
v 1.531887 3.441691 1.238999
v 1.377960 3.229830 1.508262
v 1.377962 3.491706 1.238999
v 1.224036 3.441691 1.238999
v 1.083805 3.325391 0.767504
v 1.196147 3.480015 -1.041914
v 1.196147 3.480015 0.767504
v 1.083805 3.325392 -1.041914
v 1.083805 3.134265 0.767504
v 1.083805 3.134266 -1.041914
v 1.196145 2.979643 0.767504
v 1.196145 2.979643 -1.041914
v 1.377915 2.920581 0.767504
v 1.196145 2.979643 -1.041914
v 1.196145 2.979643 0.767504
v 1.377915 2.920582 -1.041914
v 1.559685 2.979643 0.767504
v 1.559685 2.979643 -1.041914
v 1.672027 3.134265 0.767504
v 1.559685 2.979643 -1.041914
v 1.559685 2.979643 0.767504
v 1.672027 3.134266 -1.041914
v 1.672027 3.325390 0.767504
v 1.672027 3.325390 -1.041914
v 1.559686 3.480015 0.767504
v 1.559686 3.480015 -1.041914
v 1.377917 3.539078 0.767504
v 1.559686 3.480015 -1.041914
v 1.559686 3.480015 0.767504
v 1.377917 3.539079 -1.041914
v 1.196147 3.480015 0.767504
v 1.196147 3.480015 -1.041914
v 1.196147 3.480015 0.767504
v 1.377915 3.229828 1.026506
v 1.083805 3.325391 0.767504
v 1.377917 3.539078 0.767504
v 1.083805 3.134265 0.767504
v 1.559686 3.480015 0.767504
v 1.196145 2.979643 0.767504
v 1.672027 3.325390 0.767504
v 1.377915 2.920581 0.767504
v 1.672027 3.134265 0.767504
v 1.559685 2.979643 0.767504
vn -0.0000 0.7866 0.6174
vn -0.0000 0.9196 0.3928
vn -0.0000 0.7325 0.6808
vn -0.0000 0.3554 0.9347
vn -0.0000 -0.0000 1.0000
vn -0.0000 -0.3554 0.9347
vn -0.0000 -0.7325 0.6808
vn -0.0000 -0.7866 0.6174
vn 0.0001 -0.7866 0.6174
vn -0.0000 -1.0000 -0.0000
vn -0.0000 -0.9196 -0.3928
vn 0.5827 -0.8016 0.1338
vn -0.0010 -0.0014 1.0000
vn 0.0002 -0.9911 0.1329
vn -0.5826 -0.8019 0.1326
vn 0.9425 -0.3059 0.1348
vn 0.5828 -0.8015 0.1338
vn 0.9422 0.3064 0.1357
vn 0.5824 0.8015 0.1360
vn 0.0002 0.9907 0.1357
vn -0.0011 -0.0014 1.0000
vn 0.5823 0.8015 0.1360
vn -0.5821 0.8018 0.1348
vn -0.9424 0.3065 0.1338
vn -0.5822 0.8018 0.1348
vn -0.9427 -0.3061 0.1329
vn -0.5826 -0.8018 0.1326
vn -0.1712 0.2371 0.9563
vn -0.1732 0.2358 0.9563
vn 0.0005 0.2897 0.9571
vn -0.0009 0.2898 0.9571
vn -0.2820 0.0900 0.9552
vn 0.1697 0.2336 0.9574
vn -0.2813 0.0923 0.9552
vn -0.2840 -0.0933 0.9543
vn 0.2754 0.0900 0.9571
vn -0.2845 -0.0918 0.9543
vn 0.2759 0.0887 0.9571
vn -0.1763 -0.2427 0.9539
vn 0.2784 -0.0896 0.9563
vn 0.2778 -0.0918 0.9563
vn -0.0010 -0.2989 0.9543
vn 0.1747 -0.2389 0.9552
vn 0.0006 -0.2989 0.9543
vn 0.1728 -0.2404 0.9552
vn -0.7194 0.2338 0.6541
vn -0.0000 -0.0001 1.0000
vn -0.4447 0.6119 0.6541
vn -0.4447 -0.6119 0.6541
vn 0.0001 -0.0001 1.0000
vn -0.7194 -0.2338 0.6541
vn 0.7194 -0.2338 0.6541
vn -0.0000 0.0001 1.0000
vn 0.4447 -0.6119 0.6541
vn 0.4447 0.6119 0.6541
vn -0.0001 -0.0000 1.0000
vn 0.7194 0.2338 0.6541
vn -0.7194 -0.2337 0.6541
vn -0.7194 0.2337 0.6541
vn 0.7194 0.2337 0.6541
vn 0.7194 -0.2337 0.6541
vn -0.6818 -0.2215 0.6972
vn -0.6818 0.2215 0.6972
vn -0.4214 -0.5799 0.6972
vn 0.0001 -0.0000 1.0000
vn -0.6818 -0.2216 0.6972
vn 0.6818 -0.2216 0.6972
vn 0.4214 -0.5800 0.6972
vn 0.4214 0.5799 0.6972
vn 0.6818 0.2216 0.6972
vn -0.6818 0.2216 0.6972
vn -0.4214 0.5800 0.6972
vn 0.6818 0.2215 0.6972
vn 0.6818 -0.2215 0.6972
vn -0.5792 0.7973 -0.1699
vn -0.5792 0.7973 -0.1700
vn -0.0000 0.9854 -0.1700
vn 0.5792 0.7973 -0.1700
vn -0.5793 0.7972 -0.1700
vn -0.9372 0.3045 -0.1699
vn -0.9372 -0.3045 -0.1699
vn -0.5793 -0.7972 -0.1699
vn -0.5792 -0.7973 -0.1699
vn -0.0000 -0.9855 -0.1699
vn 0.5792 -0.7973 -0.1699
vn 0.5793 -0.7972 -0.1699
vn 0.9372 -0.3045 -0.1700
vn 0.9372 0.3045 -0.1700
vn 0.5793 0.7972 -0.1700
vn -0.0000 -0.7564 0.6541
vn -0.4446 -0.6120 0.6541
vn 0.4446 -0.6120 0.6541
vn -0.0000 0.7564 0.6541
vn 0.4446 0.6120 0.6541
vn -0.4446 0.6120 0.6541
vn -0.5878 0.8090 0.0007
vn -0.9511 0.3090 0.0008
vn -0.5878 0.8090 0.0009
vn -0.9511 -0.3090 0.0008
vn -0.5878 -0.8090 0.0008
vn -0.5877 -0.8091 0.0007
vn -0.0000 -1.0000 0.0008
vn -0.5877 -0.8091 0.0009
vn 0.5877 -0.8091 0.0008
vn 0.5878 -0.8090 0.0007
vn 0.9511 -0.3090 0.0008
vn 0.5878 -0.8090 0.0009
vn 0.9511 0.3090 0.0008
vn 0.5878 0.8090 0.0008
vn 0.5877 0.8091 0.0007
vn -0.0000 1.0000 0.0008
vn 0.5877 0.8091 0.0009
vn -0.5877 0.8091 0.0008
vn -0.5877 0.8091 0.0009
vn -0.5878 0.8090 -0.0000
vn -0.0000 1.0000 -0.0000
vn 0.5878 0.8090 -0.0000
vn -0.9511 0.3090 -0.0000
vn -0.9511 -0.3090 -0.0000
vn -0.5878 -0.8090 -0.0001
vn -0.5878 -0.8090 -0.0000
vn -0.5877 -0.8091 -0.0000
vn 0.5877 -0.8091 -0.0000
vn 0.5878 -0.8090 -0.0000
vn 0.9511 -0.3090 -0.0000
vn 0.9511 0.3090 -0.0000
vn 0.5877 0.8091 -0.0000
vn -0.5877 0.8091 -0.0000
vn -0.0000 -0.7169 0.6972
vn -0.4213 -0.5800 0.6972
vn 0.4213 -0.5800 0.6972
vn -0.0000 0.7169 0.6972
vn 0.4214 0.5800 0.6972
vn -0.4213 0.5800 0.6972
vn 0.5877 0.8090 -0.0000
vn 0.5877 0.8090 0.0001
vn -0.5877 0.8090 -0.0000
vn -0.6107 0.1984 0.7666
vn -0.3774 0.5195 0.7666
vn -0.0000 0.6421 0.7666
vn -0.6107 -0.1984 0.7666
vn 0.3774 0.5194 0.7666
vn -0.3774 -0.5195 0.7666
vn 0.6107 0.1984 0.7666
vn -0.0000 -0.6421 0.7666
vn 0.6107 -0.1984 0.7666
vn 0.3774 -0.5195 0.7666
vn -0.2844 -0.0918 0.9543
vn -0.0010 -0.0013 1.0000
vn -0.5825 -0.8019 0.1326
vn -0.0011 -0.0013 1.0000
vn 0.9422 0.3063 0.1357
vn 0.5824 0.8014 0.1360
vn -0.0011 -0.0015 1.0000
vn -0.5821 0.8019 0.1348
vn -0.0009 -0.0015 1.0000
vn -0.5827 -0.8018 0.1326
vn 0.2778 -0.0918 0.9562
vn -0.7194 0.2339 0.6541
vn -0.7194 -0.2339 0.6541
vn 0.7194 0.2339 0.6541
vn -0.7194 -0.2336 0.6541
vn -0.7194 0.2336 0.6541
vn 0.7194 0.2336 0.6541
vn -0.0001 0.0001 1.0000
vn 0.7194 -0.2336 0.6541
vn -0.6818 -0.2214 0.6972
vn 0.4214 -0.5799 0.6972
vn -0.4214 0.5799 0.6972
vn 0.6818 0.2214 0.6972
vn -0.5791 0.7973 -0.1699
vn -0.4445 -0.6120 0.6541
vn 0.4445 -0.6120 0.6541
vn 0.4445 0.6120 0.6541
vn -0.4445 0.6120 0.6541
vn -0.5879 0.8090 0.0007
vn -0.5879 0.8090 0.0009
vn -0.5879 -0.8090 0.0008
vn 0.5879 -0.8090 0.0007
vn 0.5879 -0.8090 0.0009
vn 0.5879 0.8089 0.0008
vn -0.5879 -0.8090 -0.0000
vn 0.5879 -0.8090 -0.0000
vn -0.5879 0.8090 -0.0000
vn -0.5879 0.8089 -0.0000
vn -0.5879 -0.8089 -0.0001
vn 0.5879 0.8089 -0.0000
vn 0.4213 0.5800 0.6972
vn -0.5879 -0.8089 -0.0000
vn -0.5879 -0.8090 -0.0001
vt 0.475603 5.106002
vt 0.524269 5.106002
vt 0.475603 5.113516
vt 0.524269 5.113516
vt 0.524269 0.541957
vt 0.475603 0.541957
vt 0.524269 0.536474
vt 0.475603 0.536474
vt 0.524269 0.528985
vt 0.475603 0.528985
vt 0.524269 0.521496
vt 0.475603 0.521496
vt 0.524269 0.516014
vt 0.475603 0.516014
vt 0.475731 5.106002
vt 0.524397 5.106002
vt 0.475731 5.113516
vt 0.524397 5.113516
vt 0.475731 5.121029
vt 0.524397 5.121029
vt 0.501205 5.028521
vt 0.499994 5.043593
vt 0.500010 5.028521
vt 0.498814 5.028521
vt 5.028521 0.529593
vt 5.043593 0.528986
vt 5.028521 0.530611
vt 5.028521 0.528335
vt 5.028521 0.527317
vt 0.499990 5.028521
vt 0.500006 5.043593
vt 0.498795 5.028521
vt 0.501186 5.028521
vt -4.028521 0.528335
vt -4.043593 0.528986
vt -4.028521 0.527317
vt -4.028521 0.529593
vt -4.028521 0.530611
vt 0.497995 0.531760
vt 0.498795 0.530611
vt 0.500007 0.532414
vt 0.499990 0.531000
vt 0.498056 0.529593
vt 0.502020 0.531760
vt 0.496752 0.530047
vt 0.501186 0.530611
vt 0.498056 0.528335
vt 0.503263 0.530047
vt 0.496752 0.527929
vt 0.501925 0.529593
vt 0.498795 0.527317
vt 0.503263 0.527929
vt 0.497995 0.526215
vt 0.501925 0.528335
vt 0.499990 0.526928
vt 0.502020 0.526215
vt 0.500007 0.525561
vt 0.501186 0.527317
vt 0.496782 0.530034
vt 0.500005 0.528985
vt 0.498013 0.531730
vt 0.498013 0.526240
vt 0.496782 0.527937
vt 0.503229 0.527937
vt 0.501998 0.526240
vt 0.501998 0.531730
vt 0.503229 0.530034
vt -4.061901 0.527937
vt -4.057964 0.528985
vt -4.061901 0.530034
vt 5.061901 0.530034
vt 5.057964 0.528985
vt 5.061901 0.527937
vt -4.084641 0.527759
vt -4.080548 0.528985
vt -4.084641 0.530211
vt 0.497676 0.525775
vt 0.500006 0.528985
vt 0.496236 0.527759
vt 0.503775 0.527759
vt 0.502335 0.525775
vt 0.502335 0.532195
vt 0.503775 0.530211
vt 0.496236 0.530211
vt 0.497676 0.532195
vt 5.084641 0.530211
vt 5.080548 0.528985
vt 5.084641 0.527759
vt 0.498336 5.032327
vt 0.497995 5.028951
vt 0.500007 5.032327
vt 0.500007 5.028951
vt 0.501679 5.032327
vt 0.502020 5.028951
vt -4.028951 0.531760
vt -4.032327 0.531290
vt -4.028951 0.530047
vt -4.032327 0.529867
vt -4.028951 0.527929
vt -4.032327 0.528108
vt -4.028951 0.526215
vt -4.032327 0.526685
vt 0.502005 5.028951
vt 0.501664 5.032327
vt 0.499993 5.028951
vt 0.499993 5.032327
vt 0.497980 5.028951
vt 0.498321 5.032327
vt 5.028951 0.526215
vt 5.032327 0.526685
vt 5.028951 0.527929
vt 5.032327 0.528108
vt 5.028951 0.530047
vt 5.032327 0.529867
vt 5.028951 0.531760
vt 5.032327 0.531290
vt 0.499995 5.061901
vt 0.499995 5.057964
vt 0.501987 5.061901
vt 0.498002 5.061901
vt 0.500006 5.061901
vt 0.500005 5.057964
vt 0.501998 5.061901
vt 0.498013 5.061901
vt -4.119313 0.532219
vt -4.119313 0.530220
vt -4.084641 0.532195
vt -4.119313 0.527750
vt -4.119313 0.525751
vt -4.084641 0.525775
vt 0.502342 5.119313
vt 0.499994 5.119313
vt 0.502324 5.084641
vt 0.499994 5.084641
vt 0.497647 5.119313
vt 0.497665 5.084641
vt 5.119313 0.525751
vt 5.119313 0.527750
vt 5.084641 0.525775
vt 5.119313 0.530220
vt 5.119313 0.532219
vt 5.084641 0.532195
vt 0.502353 5.119313
vt 0.500006 5.119313
vt 0.502335 5.084641
vt 0.500006 5.084641
vt 0.497658 5.119313
vt 0.497676 5.084641
vt 0.498336 5.061901
vt 0.500007 5.061901
vt 0.501679 5.061901
vt -4.061901 0.531290
vt -4.061901 0.529867
vt -4.061901 0.528108
vt -4.061901 0.526685
vt 0.501664 5.061901
vt 0.499993 5.061901
vt 0.498321 5.061901
vt 5.061901 0.526685
vt 5.061901 0.528108
vt 5.061901 0.529867
vt 5.061901 0.531290
vt -4.061901 0.531730
vt -4.087959 0.531730
vt -4.087959 0.530034
vt -4.087959 0.527937
vt -4.061901 0.526240
vt -4.087959 0.526240
vt 0.501987 5.087959
vt 0.499994 5.087959
vt 0.498002 5.087959
vt 5.061901 0.526240
vt 5.087959 0.526240
vt 5.087959 0.527937
vt 5.087959 0.530034
vt 5.061901 0.531730
vt 5.087959 0.531730
vt 0.501998 5.087959
vt 0.500006 5.087959
vt 0.498013 5.087959
vt 0.499994 5.080548
vt 0.500006 5.080548
vt -4.091808 0.532776
vt -4.119313 0.532776
vt -4.091808 0.530433
vt -4.119313 0.530433
vt -4.091808 0.527537
vt -4.119313 0.527537
vt -4.091808 0.525194
vt -4.119313 0.525194
vt 0.502746 5.091808
vt 0.502746 5.119313
vt 0.499995 5.091808
vt 0.499995 5.119313
vt 0.497244 5.091808
vt 0.497244 5.119313
vt 5.091808 0.525194
vt 5.119313 0.525194
vt 5.091808 0.527537
vt 5.119313 0.527537
vt 5.091808 0.530433
vt 5.119313 0.530433
vt 5.091808 0.532776
vt 5.119313 0.532776
vt 0.502756 5.091808
vt 0.502756 5.119313
vt 0.500005 5.091808
vt 0.500005 5.119313
vt 0.497254 5.091808
vt 0.497254 5.119313
vt 0.495553 0.530433
vt 0.500005 0.528985
vt 0.497254 0.532776
vt 0.500005 0.533671
vt 0.495553 0.527537
vt 0.502756 0.532776
vt 0.497254 0.525194
vt 0.504457 0.530433
vt 0.500005 0.524300
vt 0.504457 0.527537
vt 0.502756 0.525194
s 1
f 3/1/1 2/2/1 1/3/2
f 4/4/2 1/3/2 2/2/1
f 7/5/3 6/6/3 5/7/4
f 8/8/4 5/7/4 6/6/3
f 5/7/4 8/8/4 9/9/5
f 10/10/5 9/9/5 8/8/4
f 9/9/5 10/10/5 11/11/6
f 12/12/6 11/11/6 10/10/5
f 11/11/6 12/12/6 13/13/7
f 14/14/7 13/13/7 12/12/6
f 17/15/8 16/16/9 15/17/10
f 18/18/10 15/17/10 16/16/9
f 15/17/10 18/18/10 19/19/11
f 20/20/11 19/19/11 18/18/10
f 23/21/12 22/22/13 21/23/14
f 24/24/15 21/23/14 22/22/13
f 27/25/16 26/26/13 25/27/17
f 28/28/18 26/26/13 27/25/16
f 29/29/19 26/26/13 28/28/18
f 32/30/20 31/31/21 30/32/22
f 33/33/23 31/31/21 32/30/20
f 36/34/24 35/35/13 34/36/25
f 37/37/26 35/35/13 36/34/24
f 38/38/27 35/35/13 37/37/26
f 41/39/28 40/40/29 39/41/30
f 42/42/31 39/41/30 40/40/29
f 40/40/29 41/39/28 43/43/32
f 39/41/30 42/42/31 44/44/33
f 45/45/34 43/43/32 41/39/28
f 46/46/33 44/44/33 42/42/31
f 43/43/32 45/45/34 47/47/35
f 44/44/33 46/46/33 48/48/36
f 49/49/37 47/47/35 45/45/34
f 50/50/38 48/48/36 46/46/33
f 47/47/35 49/49/37 51/51/39
f 48/48/36 50/50/38 52/52/40
f 53/53/39 51/51/39 49/49/37
f 54/54/41 52/52/40 50/50/38
f 51/51/39 53/53/39 55/55/42
f 52/52/40 54/54/41 56/56/43
f 57/57/44 55/55/42 53/53/39
f 58/58/45 56/56/43 54/54/41
f 55/55/42 57/57/44 58/58/45
f 56/56/43 58/58/45 57/57/44
f 61/59/46 60/60/47 59/61/48
f 63/62/49 60/60/50 62/63/51
f 65/64/52 60/60/53 64/65/54
f 67/66/55 60/60/56 66/67/57
f 70/68/58 69/69/47 68/70/59
f 73/71/60 72/72/53 71/73/61
f 76/74/62 75/75/47 74/76/63
f 79/77/64 78/78/65 77/79/66
f 81/80/67 78/78/53 80/81/68
f 83/82/69 78/78/56 82/83/70
f 85/84/71 78/78/47 84/85/72
f 88/86/73 87/87/53 86/88/74
f 91/89/75 90/90/76 89/91/77
f 92/92/77 89/91/77 90/90/76
f 89/91/77 92/92/77 93/93/78
f 94/94/78 93/93/78 92/92/77
f 97/95/79 96/96/79 95/97/80
f 98/98/80 95/97/80 96/96/79
f 95/97/80 98/98/80 99/99/81
f 100/100/81 99/99/81 98/98/80
f 99/99/81 100/100/81 101/101/82
f 102/102/82 101/101/82 100/100/81
f 105/103/83 104/104/83 103/105/84
f 106/106/84 103/105/84 104/104/83
f 103/105/84 106/106/84 107/107/85
f 108/108/85 107/107/85 106/106/84
f 111/109/86 110/110/86 109/111/87
f 112/112/87 109/111/87 110/110/86
f 109/111/87 112/112/87 113/113/88
f 114/114/88 113/113/88 112/112/87
f 113/113/88 114/114/88 115/115/89
f 116/116/89 115/115/89 114/114/88
f 119/117/90 118/118/5 117/119/91
f 120/120/92 118/118/5 119/117/90
f 123/121/93 122/122/47 121/123/94
f 124/124/95 122/122/47 123/121/93
f 127/125/96 126/126/97 125/127/98
f 128/76/97 125/127/98 126/126/97
f 126/126/97 129/128/99 128/76/97
f 130/74/99 128/76/97 129/128/99
f 129/128/99 131/129/100 130/74/99
f 132/130/100 130/74/99 131/129/100
f 135/131/101 134/132/102 133/133/103
f 136/134/102 133/133/103 134/132/102
f 134/132/102 137/135/104 136/134/102
f 138/136/104 136/134/102 137/135/104
f 141/137/105 140/138/106 139/139/107
f 142/88/106 139/139/107 140/138/106
f 140/138/106 143/140/108 142/88/106
f 144/86/108 142/88/106 143/140/108
f 143/140/108 145/141/109 144/86/108
f 146/142/109 144/86/108 145/141/109
f 149/143/110 148/144/111 147/145/112
f 150/146/111 147/145/112 148/144/111
f 148/144/111 151/147/113 150/146/111
f 152/148/114 150/146/111 151/147/113
f 155/149/115 154/89/115 153/150/116
f 156/91/116 153/150/116 154/89/115
f 153/150/116 156/91/116 157/151/117
f 158/93/117 157/151/117 156/91/116
f 161/96/115 160/152/115 159/98/118
f 162/153/118 159/98/118 160/152/115
f 159/98/118 162/153/118 163/100/119
f 164/154/119 163/100/119 162/153/118
f 163/100/119 164/154/119 165/102/120
f 166/155/121 165/102/120 164/154/119
f 169/104/122 168/156/122 167/106/10
f 170/157/10 167/106/10 168/156/122
f 167/106/10 170/157/10 171/108/123
f 172/158/123 171/108/123 170/157/10
f 175/110/124 174/159/124 173/112/125
f 176/160/125 173/112/125 174/159/124
f 173/112/125 176/160/125 177/114/126
f 178/161/126 177/114/126 176/160/125
f 177/114/126 178/161/126 179/116/117
f 180/162/117 179/116/117 178/161/126
f 183/163/115 182/164/115 181/70/118
f 184/165/118 181/70/118 182/164/115
f 181/70/118 184/165/118 185/68/119
f 186/166/119 185/68/119 184/165/118
f 185/68/119 186/166/119 187/167/121
f 188/168/121 187/167/121 186/166/119
f 191/119/122 190/169/122 189/117/10
f 192/170/10 189/117/10 190/169/122
f 189/117/10 192/170/10 193/120/123
f 194/171/123 193/120/123 192/170/10
f 197/172/124 196/173/124 195/73/125
f 198/174/125 195/73/125 196/173/124
f 195/73/125 198/174/125 199/71/126
f 200/175/126 199/71/126 198/174/125
f 199/71/126 200/175/126 201/176/117
f 202/177/117 201/176/117 200/175/126
f 205/123/127 204/178/127 203/121/116
f 206/179/116 203/121/116 204/178/127
f 203/121/116 206/179/116 207/124/128
f 208/180/128 207/124/128 206/179/116
f 211/134/129 210/181/53 209/133/130
f 212/136/131 210/181/53 211/134/129
f 215/146/132 214/182/47 213/145/133
f 216/148/134 214/182/47 215/146/132
f 219/183/115 218/184/115 217/185/118
f 220/186/118 217/185/118 218/184/115
f 217/185/118 220/186/118 221/187/119
f 222/188/119 221/187/119 220/186/118
f 221/187/119 222/188/119 223/189/121
f 224/190/121 223/189/121 222/188/119
f 227/191/122 226/192/122 225/193/10
f 228/194/10 225/193/10 226/192/122
f 225/193/10 228/194/10 229/195/123
f 230/196/123 229/195/123 228/194/10
f 233/197/124 232/198/124 231/199/125
f 234/200/125 231/199/125 232/198/124
f 231/199/125 234/200/125 235/201/126
f 236/202/126 235/201/126 234/200/125
f 235/201/126 236/202/126 237/203/117
f 238/204/117 237/203/117 236/202/126
f 241/205/135 240/206/136 239/207/116
f 242/208/116 239/207/116 240/206/136
f 239/207/116 242/208/116 243/209/137
f 244/210/137 243/209/137 242/208/116
f 247/211/138 246/212/5 245/213/139
f 245/213/139 246/212/5 248/214/140
f 249/215/141 246/212/5 247/211/138
f 248/214/140 246/212/5 250/216/142
f 251/217/143 246/212/5 249/215/141
f 250/216/142 246/212/5 252/218/144
f 253/219/145 246/212/5 251/217/143
f 252/218/144 246/212/5 254/220/146
f 255/221/147 246/212/5 253/219/145
f 254/220/146 246/212/5 255/221/147
f 258/1/1 257/2/1 256/3/2
f 259/4/2 256/3/2 257/2/1
f 262/5/3 261/6/3 260/7/4
f 263/8/4 260/7/4 261/6/3
f 260/7/4 263/8/4 264/9/5
f 265/10/5 264/9/5 263/8/4
f 264/9/5 265/10/5 266/11/6
f 267/12/6 266/11/6 265/10/5
f 266/11/6 267/12/6 268/13/7
f 269/14/7 268/13/7 267/12/6
f 272/15/8 271/16/9 270/17/10
f 273/18/10 270/17/10 271/16/9
f 270/17/10 273/18/10 274/19/11
f 275/20/11 274/19/11 273/18/10
f 278/21/12 277/22/13 276/23/14
f 279/24/15 276/23/14 277/22/13
f 282/25/16 281/26/13 280/27/17
f 283/28/18 281/26/13 282/25/16
f 284/29/19 281/26/13 283/28/18
f 287/30/20 286/31/21 285/32/22
f 288/33/23 286/31/21 287/30/20
f 291/34/24 290/35/13 289/36/25
f 292/37/26 290/35/13 291/34/24
f 293/38/27 290/35/13 292/37/26
f 296/39/28 295/40/29 294/41/30
f 297/42/31 294/41/30 295/40/29
f 295/40/29 296/39/28 298/43/32
f 294/41/30 297/42/31 299/44/33
f 300/45/34 298/43/32 296/39/28
f 301/46/33 299/44/33 297/42/31
f 298/43/32 300/45/34 302/47/35
f 299/44/33 301/46/33 303/48/36
f 304/49/148 302/47/35 300/45/34
f 305/50/38 303/48/36 301/46/33
f 302/47/35 304/49/148 306/51/39
f 303/48/36 305/50/38 307/52/40
f 308/53/39 306/51/39 304/49/148
f 309/54/41 307/52/40 305/50/38
f 306/51/39 308/53/39 310/55/42
f 307/52/40 309/54/41 311/56/43
f 312/57/44 310/55/42 308/53/39
f 313/58/45 311/56/43 309/54/41
f 310/55/42 312/57/44 313/58/45
f 311/56/43 313/58/45 312/57/44
f 316/59/46 315/60/47 314/61/48
f 318/62/49 315/60/50 317/63/51
f 320/64/52 315/60/53 319/65/54
f 322/66/55 315/60/56 321/67/57
f 325/68/58 324/69/47 323/70/59
f 328/71/60 327/72/53 326/73/61
f 331/74/62 330/75/47 329/76/63
f 334/77/64 333/78/65 332/79/66
f 336/80/67 333/78/53 335/81/68
f 338/82/69 333/78/56 337/83/70
f 340/84/71 333/78/47 339/85/72
f 343/86/73 342/87/53 341/88/74
f 346/89/75 345/90/76 344/91/77
f 347/92/77 344/91/77 345/90/76
f 344/91/77 347/92/77 348/93/78
f 349/94/78 348/93/78 347/92/77
f 352/95/79 351/96/79 350/97/80
f 353/98/80 350/97/80 351/96/79
f 350/97/80 353/98/80 354/99/81
f 355/100/81 354/99/81 353/98/80
f 354/99/81 355/100/81 356/101/82
f 357/102/82 356/101/82 355/100/81
f 360/103/83 359/104/83 358/105/84
f 361/106/84 358/105/84 359/104/83
f 358/105/84 361/106/84 362/107/85
f 363/108/85 362/107/85 361/106/84
f 366/109/86 365/110/86 364/111/87
f 367/112/87 364/111/87 365/110/86
f 364/111/87 367/112/87 368/113/88
f 369/114/88 368/113/88 367/112/87
f 368/113/88 369/114/88 370/115/89
f 371/116/89 370/115/89 369/114/88
f 374/117/90 373/118/53 372/119/91
f 375/120/92 373/118/53 374/117/90
f 378/121/93 377/122/47 376/123/94
f 379/124/95 377/122/47 378/121/93
f 382/125/96 381/126/97 380/127/98
f 383/76/97 380/127/98 381/126/97
f 381/126/97 384/128/99 383/76/97
f 385/74/99 383/76/97 384/128/99
f 384/128/99 386/129/100 385/74/99
f 387/130/100 385/74/99 386/129/100
f 390/131/101 389/132/102 388/133/103
f 391/134/102 388/133/103 389/132/102
f 389/132/102 392/135/104 391/134/102
f 393/136/104 391/134/102 392/135/104
f 396/137/105 395/138/106 394/139/107
f 397/88/106 394/139/107 395/138/106
f 395/138/106 398/140/108 397/88/106
f 399/86/108 397/88/106 398/140/108
f 398/140/108 400/141/109 399/86/108
f 401/142/109 399/86/108 400/141/109
f 404/143/110 403/144/111 402/145/112
f 405/146/111 402/145/112 403/144/111
f 403/144/111 406/147/113 405/146/111
f 407/148/114 405/146/111 406/147/113
f 410/149/115 409/89/115 408/150/116
f 411/91/116 408/150/116 409/89/115
f 408/150/116 411/91/116 412/151/117
f 413/93/117 412/151/117 411/91/116
f 416/96/115 415/152/115 414/98/118
f 417/153/118 414/98/118 415/152/115
f 414/98/118 417/153/118 418/100/119
f 419/154/119 418/100/119 417/153/118
f 418/100/119 419/154/119 420/102/120
f 421/155/121 420/102/120 419/154/119
f 424/104/122 423/156/122 422/106/10
f 425/157/10 422/106/10 423/156/122
f 422/106/10 425/157/10 426/108/123
f 427/158/123 426/108/123 425/157/10
f 430/110/124 429/159/124 428/112/125
f 431/160/125 428/112/125 429/159/124
f 428/112/125 431/160/125 432/114/126
f 433/161/126 432/114/126 431/160/125
f 432/114/126 433/161/126 434/116/117
f 435/162/117 434/116/117 433/161/126
f 438/163/115 437/164/115 436/70/118
f 439/165/118 436/70/118 437/164/115
f 436/70/118 439/165/118 440/68/119
f 441/166/119 440/68/119 439/165/118
f 440/68/119 441/166/119 442/167/121
f 443/168/121 442/167/121 441/166/119
f 446/119/122 445/169/122 444/117/10
f 447/170/10 444/117/10 445/169/122
f 444/117/10 447/170/10 448/120/123
f 449/171/123 448/120/123 447/170/10
f 452/172/124 451/173/124 450/73/125
f 453/174/125 450/73/125 451/173/124
f 450/73/125 453/174/125 454/71/126
f 455/175/126 454/71/126 453/174/125
f 454/71/126 455/175/126 456/176/117
f 457/177/117 456/176/117 455/175/126
f 460/123/135 459/178/127 458/121/116
f 461/179/116 458/121/116 459/178/127
f 458/121/116 461/179/116 462/124/128
f 463/180/128 462/124/128 461/179/116
f 466/134/129 465/181/53 464/133/130
f 467/136/131 465/181/53 466/134/129
f 470/146/132 469/182/47 468/145/133
f 471/148/134 469/182/47 470/146/132
f 474/183/115 473/184/115 472/185/118
f 475/186/118 472/185/118 473/184/115
f 472/185/118 475/186/118 476/187/119
f 477/188/119 476/187/119 475/186/118
f 476/187/119 477/188/119 478/189/121
f 479/190/121 478/189/121 477/188/119
f 482/191/122 481/192/122 480/193/10
f 483/194/10 480/193/10 481/192/122
f 480/193/10 483/194/10 484/195/123
f 485/196/123 484/195/123 483/194/10
f 488/197/124 487/198/124 486/199/125
f 489/200/125 486/199/125 487/198/124
f 486/199/125 489/200/125 490/201/126
f 491/202/126 490/201/126 489/200/125
f 490/201/126 491/202/126 492/203/117
f 493/204/117 492/203/117 491/202/126
f 496/205/135 495/206/136 494/207/116
f 497/208/116 494/207/116 495/206/136
f 494/207/116 497/208/116 498/209/137
f 499/210/137 498/209/137 497/208/116
f 502/211/138 501/212/5 500/213/139
f 500/213/139 501/212/5 503/214/140
f 504/215/141 501/212/5 502/211/138
f 503/214/140 501/212/5 505/216/142
f 506/217/143 501/212/5 504/215/141
f 505/216/142 501/212/5 507/218/144
f 508/219/145 501/212/5 506/217/143
f 507/218/144 501/212/5 509/220/146
f 510/221/147 501/212/5 508/219/145
f 509/220/146 501/212/5 510/221/147
f 513/21/12 512/22/149 511/23/14
f 514/24/150 511/23/14 512/22/149
f 517/25/16 516/26/151 515/27/17
f 518/28/152 516/26/151 517/25/16
f 519/29/153 516/26/151 518/28/152
f 522/30/20 521/31/154 520/32/22
f 523/33/155 521/31/154 522/30/20
f 526/34/24 525/35/156 524/36/25
f 527/37/26 525/35/156 526/34/24
f 528/38/157 525/35/156 527/37/26
f 531/39/28 530/40/29 529/41/30
f 532/42/31 529/41/30 530/40/29
f 530/40/29 531/39/28 533/43/32
f 529/41/30 532/42/31 534/44/33
f 535/45/34 533/43/32 531/39/28
f 536/46/33 534/44/33 532/42/31
f 533/43/32 535/45/34 537/47/35
f 534/44/33 536/46/33 538/48/36
f 539/49/148 537/47/35 535/45/34
f 540/50/38 538/48/36 536/46/33
f 537/47/35 539/49/148 541/51/39
f 538/48/36 540/50/38 542/52/40
f 543/53/39 541/51/39 539/49/148
f 544/54/158 542/52/40 540/50/38
f 541/51/39 543/53/39 545/55/42
f 542/52/40 544/54/158 546/56/43
f 547/57/44 545/55/42 543/53/39
f 548/58/45 546/56/43 544/54/158
f 545/55/42 547/57/44 548/58/45
f 546/56/43 548/58/45 547/57/44
f 551/59/159 550/60/47 549/61/48
f 553/62/49 550/60/65 552/63/160
f 555/64/52 550/60/53 554/65/54
f 557/66/55 550/60/56 556/67/161
f 560/68/162 559/69/50 558/70/163
f 563/71/164 562/72/165 561/73/166
f 566/74/167 565/75/50 564/76/63
f 569/77/64 568/78/65 567/79/66
f 571/80/67 568/78/53 570/81/168
f 573/82/69 568/78/56 572/83/70
f 575/84/71 568/78/47 574/85/169
f 578/86/170 577/87/165 576/88/74
f 581/89/171 580/90/76 579/91/77
f 582/92/77 579/91/77 580/90/76
f 579/91/77 582/92/77 583/93/78
f 584/94/78 583/93/78 582/92/77
f 587/95/79 586/96/79 585/97/80
f 588/98/80 585/97/80 586/96/79
f 585/97/80 588/98/80 589/99/81
f 590/100/81 589/99/81 588/98/80
f 589/99/81 590/100/81 591/101/82
f 592/102/82 591/101/82 590/100/81
f 595/103/83 594/104/83 593/105/84
f 596/106/84 593/105/84 594/104/83
f 593/105/84 596/106/84 597/107/85
f 598/108/85 597/107/85 596/106/84
f 601/109/86 600/110/86 599/111/87
f 602/112/87 599/111/87 600/110/86
f 599/111/87 602/112/87 603/113/88
f 604/114/88 603/113/88 602/112/87
f 603/113/88 604/114/88 605/115/89
f 606/116/89 605/115/89 604/114/88
f 609/117/90 608/118/53 607/119/172
f 610/120/173 608/118/53 609/117/90
f 613/121/93 612/122/47 611/123/174
f 614/124/175 612/122/47 613/121/93
f 617/125/176 616/126/97 615/127/177
f 618/76/97 615/127/177 616/126/97
f 616/126/97 619/128/99 618/76/97
f 620/74/99 618/76/97 619/128/99
f 619/128/99 621/129/178 620/74/99
f 622/130/178 620/74/99 621/129/178
f 625/131/101 624/132/102 623/133/103
f 626/134/102 623/133/103 624/132/102
f 624/132/102 627/135/104 626/134/102
f 628/136/104 626/134/102 627/135/104
f 631/137/179 630/138/106 629/139/180
f 632/88/106 629/139/180 630/138/106
f 630/138/106 633/140/108 632/88/106
f 634/86/108 632/88/106 633/140/108
f 633/140/108 635/141/181 634/86/108
f 636/142/181 634/86/108 635/141/181
f 639/143/110 638/144/111 637/145/112
f 640/146/111 637/145/112 638/144/111
f 638/144/111 641/147/113 640/146/111
f 642/148/114 640/146/111 641/147/113
f 645/149/128 644/89/128 643/150/116
f 646/91/116 643/150/116 644/89/128
f 643/150/116 646/91/116 647/151/127
f 648/93/127 647/151/127 646/91/116
f 651/96/115 650/152/115 649/98/118
f 652/153/118 649/98/118 650/152/115
f 649/98/118 652/153/118 653/100/119
f 654/154/119 653/100/119 652/153/118
f 653/100/119 654/154/119 655/102/182
f 656/155/182 655/102/182 654/154/119
f 659/104/122 658/156/122 657/106/10
f 660/157/10 657/106/10 658/156/122
f 657/106/10 660/157/10 661/108/123
f 662/158/123 661/108/123 660/157/10
f 665/110/183 664/159/183 663/112/125
f 666/160/125 663/112/125 664/159/183
f 663/112/125 666/160/125 667/114/126
f 668/161/126 667/114/126 666/160/125
f 667/114/126 668/161/126 669/116/117
f 670/162/117 669/116/117 668/161/126
f 673/163/184 672/164/185 671/70/118
f 674/165/118 671/70/118 672/164/185
f 671/70/118 674/165/118 675/68/119
f 676/166/119 675/68/119 674/165/118
f 675/68/119 676/166/119 677/167/186
f 678/168/182 677/167/186 676/166/119
f 681/119/122 680/169/122 679/117/10
f 682/170/10 679/117/10 680/169/122
f 679/117/10 682/170/10 683/120/123
f 684/171/123 683/120/123 682/170/10
f 687/172/183 686/173/183 685/73/125
f 688/174/125 685/73/125 686/173/183
f 685/73/125 688/174/125 689/71/126
f 690/175/126 689/71/126 688/174/125
f 689/71/126 690/175/126 691/176/187
f 692/177/187 691/176/187 690/175/126
f 695/123/127 694/178/127 693/121/116
f 696/179/116 693/121/116 694/178/127
f 693/121/116 696/179/116 697/124/128
f 698/180/128 697/124/128 696/179/116
f 701/134/129 700/181/53 699/133/130
f 702/136/131 700/181/53 701/134/129
f 705/146/132 704/182/47 703/145/188
f 706/148/134 704/182/47 705/146/132
f 709/183/184 708/184/184 707/185/118
f 710/186/118 707/185/118 708/184/184
f 707/185/118 710/186/118 711/187/119
f 712/188/119 711/187/119 710/186/118
f 711/187/119 712/188/119 713/189/189
f 714/190/189 713/189/189 712/188/119
f 717/191/122 716/192/122 715/193/10
f 718/194/10 715/193/10 716/192/122
f 715/193/10 718/194/10 719/195/123
f 720/196/123 719/195/123 718/194/10
f 723/197/183 722/198/183 721/199/125
f 724/200/125 721/199/125 722/198/183
f 721/199/125 724/200/125 725/201/126
f 726/202/126 725/201/126 724/200/125
f 725/201/126 726/202/126 727/203/187
f 728/204/187 727/203/187 726/202/126
f 731/205/127 730/206/127 729/207/116
f 732/208/116 729/207/116 730/206/127
f 729/207/116 732/208/116 733/209/128
f 734/210/128 733/209/128 732/208/116
f 737/211/138 736/212/5 735/213/139
f 735/213/139 736/212/5 738/214/140
f 739/215/141 736/212/5 737/211/138
f 738/214/140 736/212/5 740/216/142
f 741/217/143 736/212/5 739/215/141
f 740/216/142 736/212/5 742/218/144
f 743/219/145 736/212/5 741/217/143
f 742/218/144 736/212/5 744/220/146
f 745/221/147 736/212/5 743/219/145
f 744/220/146 736/212/5 745/221/147
f 748/21/12 747/22/149 746/23/14
f 749/24/150 746/23/14 747/22/149
f 752/25/16 751/26/151 750/27/17
f 753/28/18 751/26/151 752/25/16
f 754/29/153 751/26/151 753/28/18
f 757/30/20 756/31/154 755/32/22
f 758/33/155 756/31/154 757/30/20
f 761/34/24 760/35/156 759/36/25
f 762/37/26 760/35/156 761/34/24
f 763/38/157 760/35/156 762/37/26
f 766/39/28 765/40/29 764/41/30
f 767/42/31 764/41/30 765/40/29
f 765/40/29 766/39/28 768/43/32
f 764/41/30 767/42/31 769/44/33
f 770/45/34 768/43/32 766/39/28
f 771/46/33 769/44/33 767/42/31
f 768/43/32 770/45/34 772/47/35
f 769/44/33 771/46/33 773/48/36
f 774/49/148 772/47/35 770/45/34
f 775/50/38 773/48/36 771/46/33
f 772/47/35 774/49/148 776/51/39
f 773/48/36 775/50/38 777/52/40
f 778/53/39 776/51/39 774/49/148
f 779/54/158 777/52/40 775/50/38
f 776/51/39 778/53/39 780/55/42
f 777/52/40 779/54/158 781/56/43
f 782/57/44 780/55/42 778/53/39
f 783/58/45 781/56/43 779/54/158
f 780/55/42 782/57/44 783/58/45
f 781/56/43 783/58/45 782/57/44
f 786/59/159 785/60/47 784/61/48
f 788/62/49 785/60/65 787/63/160
f 790/64/52 785/60/53 789/65/54
f 792/66/55 785/60/56 791/67/161
f 795/68/162 794/69/50 793/70/163
f 798/71/164 797/72/165 796/73/166
f 801/74/167 800/75/50 799/76/63
f 804/77/64 803/78/65 802/79/66
f 806/80/67 803/78/53 805/81/168
f 808/82/69 803/78/56 807/83/70
f 810/84/71 803/78/47 809/85/169
f 813/86/170 812/87/165 811/88/74
f 816/89/171 815/90/76 814/91/77
f 817/92/77 814/91/77 815/90/76
f 814/91/77 817/92/77 818/93/78
f 819/94/78 818/93/78 817/92/77
f 822/95/79 821/96/79 820/97/80
f 823/98/80 820/97/80 821/96/79
f 820/97/80 823/98/80 824/99/81
f 825/100/81 824/99/81 823/98/80
f 824/99/81 825/100/81 826/101/82
f 827/102/82 826/101/82 825/100/81
f 830/103/83 829/104/83 828/105/84
f 831/106/84 828/105/84 829/104/83
f 828/105/84 831/106/84 832/107/85
f 833/108/85 832/107/85 831/106/84
f 836/109/86 835/110/86 834/111/87
f 837/112/87 834/111/87 835/110/86
f 834/111/87 837/112/87 838/113/88
f 839/114/88 838/113/88 837/112/87
f 838/113/88 839/114/88 840/115/89
f 841/116/89 840/115/89 839/114/88
f 844/117/90 843/118/53 842/119/172
f 845/120/173 843/118/53 844/117/90
f 848/121/93 847/122/47 846/123/174
f 849/124/175 847/122/47 848/121/93
f 852/125/176 851/126/97 850/127/177
f 853/76/97 850/127/177 851/126/97
f 851/126/97 854/128/99 853/76/97
f 855/74/99 853/76/97 854/128/99
f 854/128/99 856/129/178 855/74/99
f 857/130/178 855/74/99 856/129/178
f 860/131/101 859/132/102 858/133/103
f 861/134/102 858/133/103 859/132/102
f 859/132/102 862/135/104 861/134/102
f 863/136/104 861/134/102 862/135/104
f 866/137/179 865/138/106 864/139/180
f 867/88/106 864/139/180 865/138/106
f 865/138/106 868/140/108 867/88/106
f 869/86/108 867/88/106 868/140/108
f 868/140/108 870/141/181 869/86/108
f 871/142/181 869/86/108 870/141/181
f 874/143/110 873/144/111 872/145/112
f 875/146/111 872/145/112 873/144/111
f 873/144/111 876/147/113 875/146/111
f 877/148/114 875/146/111 876/147/113
f 880/149/128 879/89/128 878/150/116
f 881/91/116 878/150/116 879/89/128
f 878/150/116 881/91/116 882/151/127
f 883/93/127 882/151/127 881/91/116
f 886/96/115 885/152/115 884/98/118
f 887/153/118 884/98/118 885/152/115
f 884/98/118 887/153/118 888/100/119
f 889/154/119 888/100/119 887/153/118
f 888/100/119 889/154/119 890/102/182
f 891/155/182 890/102/182 889/154/119
f 894/104/122 893/156/122 892/106/10
f 895/157/10 892/106/10 893/156/122
f 892/106/10 895/157/10 896/108/123
f 897/158/123 896/108/123 895/157/10
f 900/110/183 899/159/183 898/112/125
f 901/160/125 898/112/125 899/159/183
f 898/112/125 901/160/125 902/114/126
f 903/161/126 902/114/126 901/160/125
f 902/114/126 903/161/126 904/116/117
f 905/162/117 904/116/117 903/161/126
f 908/163/184 907/164/185 906/70/118
f 909/165/118 906/70/118 907/164/185
f 906/70/118 909/165/118 910/68/119
f 911/166/119 910/68/119 909/165/118
f 910/68/119 911/166/119 912/167/190
f 913/168/182 912/167/190 911/166/119
f 916/119/122 915/169/122 914/117/10
f 917/170/10 914/117/10 915/169/122
f 914/117/10 917/170/10 918/120/123
f 919/171/123 918/120/123 917/170/10
f 922/172/183 921/173/183 920/73/125
f 923/174/125 920/73/125 921/173/183
f 920/73/125 923/174/125 924/71/126
f 925/175/126 924/71/126 923/174/125
f 924/71/126 925/175/126 926/176/187
f 927/177/187 926/176/187 925/175/126
f 930/123/127 929/178/127 928/121/116
f 931/179/116 928/121/116 929/178/127
f 928/121/116 931/179/116 932/124/128
f 933/180/128 932/124/128 931/179/116
f 936/134/129 935/181/53 934/133/130
f 937/136/131 935/181/53 936/134/129
f 940/146/132 939/182/47 938/145/188
f 941/148/134 939/182/47 940/146/132
f 944/183/184 943/184/184 942/185/118
f 945/186/118 942/185/118 943/184/184
f 942/185/118 945/186/118 946/187/119
f 947/188/119 946/187/119 945/186/118
f 946/187/119 947/188/119 948/189/189
f 949/190/189 948/189/189 947/188/119
f 952/191/122 951/192/122 950/193/10
f 953/194/10 950/193/10 951/192/122
f 950/193/10 953/194/10 954/195/123
f 955/196/123 954/195/123 953/194/10
f 958/197/183 957/198/183 956/199/125
f 959/200/125 956/199/125 957/198/183
f 956/199/125 959/200/125 960/201/126
f 961/202/126 960/201/126 959/200/125
f 960/201/126 961/202/126 962/203/187
f 963/204/187 962/203/187 961/202/126
f 966/205/127 965/206/127 964/207/116
f 967/208/116 964/207/116 965/206/127
f 964/207/116 967/208/116 968/209/128
f 969/210/128 968/209/128 967/208/116
f 972/211/138 971/212/5 970/213/139
f 970/213/139 971/212/5 973/214/140
f 974/215/141 971/212/5 972/211/138
f 973/214/140 971/212/5 975/216/142
f 976/217/143 971/212/5 974/215/141
f 975/216/142 971/212/5 977/218/144
f 978/219/145 971/212/5 976/217/143
f 977/218/144 971/212/5 979/220/146
f 980/221/147 971/212/5 978/219/145
f 979/220/146 971/212/5 980/221/147
