# Blender 4.5.3 LTS
# www.blender.org
mtllib KiGe_gun_133_x4_001.mtl
o KiGe_gun_133_x4_001
v 2.059435 3.810327 1.592726
v 2.059423 4.299691 0.669161
v 2.577462 3.587009 0.837464
v -2.059435 3.810327 1.592726
v -2.577462 3.587009 0.837464
v -2.059423 4.299691 0.669161
v 1.592960 0.345847 -2.192520
v 2.192519 3.587008 -2.686782
v 1.592958 3.587008 -3.286343
v 2.192520 0.345847 -1.592960
v 2.577461 3.587008 -1.931292
v 2.577460 0.345847 -0.837468
v 2.710100 0.345847 0.000000
v 2.710103 3.587008 0.000000
v 2.577462 0.787360 0.837464
v 2.577462 0.345847 0.837464
v 2.192522 0.787360 1.592956
v 2.192522 0.345847 1.592956
v 1.592961 0.787360 2.192518
v 1.592961 0.345847 2.192518
v 2.577462 1.393365 0.837464
v 2.577462 3.587009 0.837464
v 2.235775 0.787360 1.742247
v 2.235775 1.393365 1.742247
v 1.592962 0.787360 2.778679
v 1.592962 1.393365 2.778679
v 0.837468 0.345847 -2.577460
v 0.837468 3.587008 -3.671284
v 0.000000 0.345847 -2.710100
v -0.000000 2.500000 -3.803927
v -0.837468 3.587008 -3.671284
v -0.837468 0.345847 -2.577460
v -1.592959 3.587008 -3.286343
v -1.592959 0.345847 -2.192520
v -0.000000 3.587008 -3.803927
v 1.592961 0.345847 2.192518
v 0.837471 0.787360 2.577460
v 1.592961 0.787360 2.192518
v 0.837471 0.345847 2.577460
v 0.000000 0.787360 2.710103
v 0.000000 0.345847 2.710103
v -0.837471 0.345847 2.577460
v -0.837471 0.787360 2.577460
v -1.592961 0.345847 2.192518
v -1.592961 0.787360 2.192518
v 0.837472 0.787360 2.940816
v 1.592962 1.393365 2.778679
v 1.592962 0.787360 2.778679
v 0.837472 1.393365 2.940816
v 0.000000 0.787360 2.996685
v 0.000000 1.393365 2.996686
v 0.837472 2.532024 2.940816
v 0.000000 2.532024 2.996685
v -0.837472 2.532024 2.940816
v -0.837472 1.393365 2.940816
v -0.837472 0.787360 2.940816
v -1.592962 1.393365 2.778679
v -1.592962 0.787360 2.778679
v 2.577462 1.393365 0.837464
v 2.235775 1.393365 1.742247
v 2.059435 1.393365 1.592726
v 1.892741 1.393373 1.592726
v 1.592962 1.393365 2.778679
v 0.837472 1.393365 2.940816
v 0.837471 1.393381 0.510751
v 1.892741 1.393381 0.510751
v 1.892741 4.299674 0.510751
v 2.059423 4.299691 0.669161
v 1.892741 4.299670 0.669180
v 2.165398 4.299712 0.000000
v 2.059415 4.299712 -1.762971
v 1.751843 4.299712 -2.366614
v 1.272789 4.299712 -2.845669
v 0.837471 4.299712 0.510751
v 0.669145 4.299712 -3.153241
v -0.000000 4.299712 -3.259224
v 0.000000 4.299713 0.725025
v 0.837472 4.299713 0.669167
v -0.837471 4.299712 0.510751
v -0.837472 4.299713 0.669167
v -0.669145 4.299712 -3.153241
v -1.272789 4.299712 -2.845669
v -1.892741 4.299674 0.510751
v -1.751844 4.299712 -2.366614
v -2.059416 4.299712 -1.762971
v -2.165398 4.299712 0.000000
v -2.059423 4.299691 0.669161
v -1.892741 4.299670 0.669180
v 0.000000 2.532024 2.996685
v 0.837472 4.299713 0.669167
v 0.837472 2.532024 2.940816
v 0.000000 4.299713 0.725025
v 2.577461 3.587008 -1.931292
v 2.192519 3.587008 -2.686782
v 2.710103 3.587008 0.000000
v 2.165398 4.299712 0.000000
v 2.577462 3.587009 0.837464
v 2.059423 4.299691 0.669161
v 2.192519 3.587008 -2.686782
v -0.000000 3.587008 -3.803927
v 1.892741 1.393373 1.592726
v 2.059435 3.810327 1.592726
v 2.059435 1.393365 1.592726
v 1.892741 3.810327 1.592726
v 2.577462 1.393365 0.837464
v 2.059435 3.810327 1.592726
v 2.577462 3.587009 0.837464
v 2.059435 1.393365 1.592726
v 2.059423 4.299691 0.669161
v 2.059435 3.810327 1.592726
v 1.892741 4.299670 0.669180
v 1.892741 3.810327 1.592726
v -2.192520 3.587008 -2.686782
v -2.192519 0.345847 -1.592960
v -2.577461 3.587008 -1.931292
v -2.577461 0.345847 -0.837468
v -2.710103 0.345847 0.000000
v -2.710103 3.587008 0.000000
v -2.577462 0.787360 0.837464
v -2.577462 0.345847 0.837464
v -2.192522 0.787360 1.592956
v -2.192522 0.345847 1.592956
v -1.592961 0.787360 2.192518
v -1.592961 0.345847 2.192518
v -2.577462 1.393365 0.837464
v -2.577462 3.587009 0.837464
v -2.235775 0.787360 1.742247
v -2.235775 1.393365 1.742247
v -1.592962 0.787360 2.778679
v -1.592962 1.393365 2.778679
v -2.577462 1.393365 0.837464
v -2.059435 1.393365 1.592726
v -2.235775 1.393365 1.742247
v -1.892741 1.393373 1.592726
v -1.592962 1.393365 2.778679
v -0.837472 1.393365 2.940816
v -0.837471 1.393381 0.510751
v -1.892741 1.393381 0.510751
v 0.000000 2.532024 2.996685
v -0.837472 4.299713 0.669167
v 0.000000 4.299713 0.725025
v -0.837472 2.532024 2.940816
v -2.577461 3.587008 -1.931292
v -2.710103 3.587008 0.000000
v -2.165398 4.299712 0.000000
v -2.577462 3.587009 0.837464
v -2.059423 4.299691 0.669161
v -1.892741 1.393373 1.592726
v -1.892741 3.810327 1.592726
v -2.059435 3.810327 1.592726
v -2.059435 1.393365 1.592726
v -2.577462 1.393365 0.837464
v -2.059435 3.810327 1.592726
v -2.059435 1.393365 1.592726
v -2.577462 3.587009 0.837464
v -2.059423 4.299691 0.669161
v -2.059435 3.810327 1.592726
v -1.892741 4.299670 0.669180
v -1.892741 3.810327 1.592726
v -0.656019 1.393355 3.100833
v -0.204797 2.338470 3.130934
v -0.204797 1.393355 3.130934
v -0.656019 2.338470 3.100832
v -0.644347 1.393355 2.925870
v -0.204797 1.393355 3.130934
v -0.193125 1.393355 2.955972
v -0.656019 1.393355 3.100833
v -0.193125 1.393355 2.955972
v -0.204797 2.338470 3.130934
v -0.193125 2.338470 2.955971
v -0.204797 1.393355 3.130934
v -0.193125 2.338470 2.955971
v -0.656019 2.338470 3.100832
v -0.644347 2.338470 2.925870
v -0.204797 2.338470 3.130934
v -0.644347 2.338470 2.925870
v -0.656019 1.393355 3.100833
v -0.644347 1.393355 2.925870
v -0.656019 2.338470 3.100832
v 0.656019 1.393355 3.100833
v 0.204797 2.338470 3.130934
v 0.656019 2.338470 3.100832
v 0.204797 1.393355 3.130934
v 0.644347 1.393355 2.925870
v 0.204797 1.393355 3.130934
v 0.656019 1.393355 3.100833
v 0.193125 1.393355 2.955972
v 0.193125 1.393355 2.955972
v 0.204797 2.338470 3.130934
v 0.204797 1.393355 3.130934
v 0.193125 2.338470 2.955971
v 0.193125 2.338470 2.955971
v 0.656019 2.338470 3.100832
v 0.204797 2.338470 3.130934
v 0.644347 2.338470 2.925870
v 0.644347 2.338470 2.925870
v 0.656019 1.393355 3.100833
v 0.656019 2.338470 3.100832
v 0.644347 1.393355 2.925870
v -2.192830 2.648457 1.668421
v -1.976089 2.980165 1.668419
v -1.976089 2.648457 1.668419
v -2.192830 2.980165 1.668414
v -1.976087 2.980165 1.296221
v -1.976089 2.648457 1.668419
v -1.976089 2.980165 1.668419
v -1.976087 2.648457 1.296221
v -1.976087 2.648457 1.296221
v -2.192830 2.648457 1.668421
v -1.976089 2.648457 1.668419
v -2.192829 2.648455 1.296220
v -2.192829 2.648455 1.296220
v -2.192830 2.980165 1.668414
v -2.192830 2.648457 1.668421
v -2.192829 2.980165 1.296216
v -2.192829 2.980165 1.296216
v -1.976089 2.980165 1.668419
v -2.192830 2.980165 1.668414
v -1.976087 2.980165 1.296221
v 2.192841 2.648457 1.668415
v 1.976098 2.980160 1.668415
v 2.192841 2.980160 1.668410
v 1.976098 2.648457 1.668415
v 1.976097 2.980160 1.296218
v 1.976098 2.648457 1.668415
v 1.976097 2.648457 1.296218
v 1.976098 2.980160 1.668415
v 1.976097 2.648457 1.296218
v 2.192841 2.648457 1.668415
v 2.192839 2.648454 1.296214
v 1.976098 2.648457 1.668415
v 2.192839 2.648454 1.296214
v 2.192841 2.980160 1.668410
v 2.192839 2.980160 1.296212
v 2.192841 2.648457 1.668415
v 2.192839 2.980160 1.296212
v 1.976098 2.980160 1.668415
v 1.976097 2.980160 1.296218
v 2.192841 2.980160 1.668410
v -2.756090 2.351317 0.351023
v -1.859734 2.351317 0.198217
v -1.859734 2.351317 0.351024
v -2.756091 2.351317 0.198216
v -2.756091 2.205993 0.398237
v -1.859734 2.351317 0.351024
v -1.859734 2.205993 0.398237
v -2.756090 2.351317 0.351023
v -1.859734 2.205993 0.398237
v -2.756090 2.116177 0.274622
v -2.756091 2.205993 0.398237
v -1.859734 2.116177 0.274622
v -2.756091 2.205993 0.151001
v -1.859734 2.205993 0.151001
v -2.756091 2.351317 0.198216
v -1.859734 2.205993 0.151001
v -1.859734 2.351317 0.198217
v -2.756091 2.205993 0.151001
v -2.756091 2.205993 0.151001
v -2.756091 2.205993 0.398237
v -2.756090 2.116177 0.274622
v -2.756091 2.351317 0.198216
v -2.756090 2.351317 0.351023
v 2.756088 2.351316 0.351018
v 1.859729 2.351316 0.198215
v 2.756084 2.351316 0.198216
v 1.859732 2.351316 0.351018
v 2.756088 2.205992 0.398236
v 1.859732 2.351316 0.351018
v 2.756088 2.351316 0.351018
v 1.859732 2.205992 0.398236
v 2.756084 2.116176 0.274618
v 1.859732 2.205992 0.398236
v 2.756088 2.205992 0.398236
v 1.859729 2.116176 0.274618
v 2.756084 2.205992 0.150997
v 1.859729 2.205992 0.150997
v 2.756084 2.351316 0.198216
v 1.859729 2.205992 0.150997
v 2.756084 2.205992 0.150997
v 1.859729 2.351316 0.198215
v 2.756088 2.205992 0.398236
v 2.756084 2.205992 0.150997
v 2.756084 2.116176 0.274618
v 2.756084 2.351316 0.198216
v 2.756088 2.351316 0.351018
v 2.192522 0.787360 1.592956
v 2.235775 0.787360 1.742247
v 1.592961 0.787360 2.192518
v 1.592962 0.787360 2.778679
v 0.837472 0.787360 2.940816
v 0.000000 0.787360 2.710103
v 0.000000 0.787360 2.996685
v -0.837472 0.787360 2.940816
v -0.837471 0.787360 2.577460
v -1.592962 0.787360 2.778679
v -1.592961 0.787360 2.192518
v -2.235775 0.787360 1.742247
v -2.192522 0.787360 1.592956
v 0.837472 4.299713 0.669167
v 0.837472 1.393365 2.940816
v 0.837472 2.532024 2.940816
v 0.837471 1.393381 0.510751
v 0.837471 4.299712 0.510751
v 1.892741 1.393381 0.510751
v 1.892741 3.810327 1.592726
v 1.892741 1.393373 1.592726
v 1.892741 4.299670 0.669180
v 1.892741 4.299674 0.510751
v 1.892741 4.299674 0.510751
v 0.837471 1.393381 0.510751
v 0.837471 4.299712 0.510751
v 1.892741 1.393381 0.510751
v -0.837472 1.393365 2.940816
v -0.837472 4.299713 0.669167
v -0.837472 2.532024 2.940816
v -0.837471 1.393381 0.510751
v -0.837471 4.299712 0.510751
v -1.892741 3.810327 1.592726
v -1.892741 1.393381 0.510751
v -1.892741 1.393373 1.592726
v -1.892741 4.299670 0.669180
v -1.892741 4.299674 0.510751
v -1.892741 4.299674 0.510751
v -0.837471 1.393381 0.510751
v -1.892741 1.393381 0.510751
v -0.837471 4.299712 0.510751
v 2.577462 0.345847 0.837464
v 2.192522 0.345847 1.592956
v 1.592961 0.345847 2.192518
v 0.837471 0.345847 2.577460
v 0.000000 0.345847 2.710103
v -0.837471 0.345847 2.577460
v -1.592961 0.345847 2.192518
v -2.192522 0.345847 1.592956
v 1.746112 0.345847 1.268621
v 1.268626 -0.000000 1.746109
v 1.268626 0.345847 1.746109
v 1.746112 -0.000000 1.268621
v 2.052677 0.345847 0.666952
v 2.052677 -0.000000 0.666952
v 2.158312 0.345847 0.000000
v 2.158312 -0.000000 0.000000
v 2.052676 0.345847 -0.666955
v 2.052676 -0.000000 -0.666955
v 1.746111 0.345847 -1.268624
v 1.746111 -0.000000 -1.268624
v 1.268624 0.345847 -1.746111
v 1.268624 -0.000000 -1.746111
v 0.666957 -0.000000 2.052675
v 1.268626 0.345847 1.746109
v 1.268626 -0.000000 1.746109
v 0.666957 0.345847 2.052675
v 0.000000 -0.000000 2.158312
v 0.000000 0.345847 2.158312
v -0.666957 -0.000000 2.052675
v -0.666957 0.345847 2.052675
v -1.268626 -0.000000 1.746109
v -1.268626 0.345847 1.746109
v -1.746112 -0.000000 1.268621
v -1.268626 0.345847 1.746109
v -1.268626 -0.000000 1.746109
v -1.746112 0.345847 1.268621
v -2.052677 -0.000000 0.666952
v -2.052677 0.345847 0.666952
v -2.158312 -0.000000 0.000000
v -2.158312 0.345847 0.000000
v -2.052676 -0.000000 -0.666955
v -2.052676 0.345847 -0.666955
v -1.746111 -0.000000 -1.268624
v -1.746111 0.345847 -1.268624
v -1.268624 -0.000000 -1.746111
v -1.268624 0.345847 -1.746111
v -0.666955 -0.000000 -2.052676
v -1.268624 0.345847 -1.746111
v -1.268624 -0.000000 -1.746111
v -0.666955 0.345847 -2.052676
v 0.000000 -0.000000 -2.158312
v 0.000000 0.345847 -2.158312
v 0.666955 -0.000000 -2.052676
v 0.666955 0.345847 -2.052676
v 1.268624 -0.000000 -1.746111
v 1.268624 0.345847 -1.746111
v -2.192520 2.500000 -2.686783
v -2.059435 2.500000 1.592726
v -2.710103 2.500000 0.000000
v -2.434730 2.500000 -2.211410
v -2.577462 2.500000 0.837464
v -2.577461 2.500000 -1.498799
v 0.837468 2.500000 -3.671285
v -1.592959 2.500000 -3.286343
v -0.837468 2.500000 -3.671285
v 2.434730 2.500000 -2.211410
v 2.192519 2.500000 -2.686783
v 1.592958 2.500000 -3.286343
v 1.592958 2.500000 -3.286343
v 2.577461 2.500000 -1.498799
v 2.577462 2.500000 0.837464
v 2.710103 2.500000 0.000000
v 2.059435 2.500000 1.592726
v -2.577461 0.787360 -0.837468
v -1.592959 0.787360 -2.192520
v -2.710103 0.787360 0.000000
v -0.837468 0.787360 -2.577460
v -2.192519 0.787360 -1.592960
v -0.000000 0.787360 -2.710100
v 0.837468 0.787360 -2.577460
v 1.592960 0.785677 -2.192520
v 1.592960 0.787360 -2.192520
v 2.577460 0.787360 -0.837468
v 2.710100 0.787360 0.000000
v 2.192520 0.787360 -1.592960
vn 0.7285 0.6053 0.3207
vn -0.7285 0.6053 0.3207
vn 0.6046 -0.0887 -0.7915
vn 0.5941 -0.0000 -0.8044
vn 0.8090 -0.0000 -0.5878
vn 0.7946 -0.1537 -0.5874
vn 0.9636 -0.0250 -0.2663
vn 0.9203 -0.1221 -0.3716
vn 0.9946 -0.0366 -0.0974
vn 0.8575 0.0863 -0.5072
vn -0.9520 -0.0709 -0.2978
vn -0.9962 0.0813 0.0325
vn -0.9968 -0.0163 -0.0785
vn -0.9969 -0.0153 -0.0771
vn -0.9899 -0.0555 -0.1305
vn 0.9877 -0.0000 0.1564
vn 0.9957 0.0870 0.0322
vn 0.9990 -0.0141 0.0426
vn 0.8090 -0.0000 0.5878
vn 0.9511 -0.0000 0.3090
vn 0.9828 -0.0000 0.1845
vn 0.5941 -0.0000 0.8044
vn 0.3090 -0.0000 0.9511
vn 0.5815 -0.0000 0.8136
vn 0.5815 -0.0002 0.8136
vn -0.7413 -0.1913 -0.6433
vn -0.2347 -0.0941 -0.9675
vn -0.2361 -0.2963 -0.9255
vn -0.6146 -0.2093 -0.7606
vn 0.8498 -0.0000 0.5271
vn 0.8969 -0.0000 0.4423
vn 0.1146 -0.0000 0.9934
vn 0.1386 -0.0000 0.9904
vn 0.2098 -0.0000 0.9777
vn 0.8362 -0.4871 -0.2520
vn 0.9141 0.3980 -0.0772
vn 0.9058 0.2098 -0.3681
vn 0.5600 -0.2830 -0.7787
vn 0.5208 -0.4456 -0.7282
vn 0.3809 -0.0340 -0.9240
vn 0.3736 0.4546 -0.8086
vn -0.4216 0.1197 -0.8989
vn 0.3541 -0.1157 -0.9280
vn -0.2517 -0.2679 -0.9300
vn -0.6052 -0.5638 -0.5621
vn 0.9592 -0.0000 0.2826
vn 0.9730 -0.0000 0.2306
vn -0.0000 -0.0000 1.0000
vn -0.5815 -0.0000 0.8136
vn -0.3090 -0.0000 0.9511
vn -0.8969 -0.0000 0.4423
vn -0.9748 -0.0000 0.2231
vn -0.9592 -0.0000 0.2826
vn 0.0666 -0.0000 0.9978
vn -0.1146 -0.0000 0.9934
vn -0.0666 -0.0000 0.9978
vn -0.2098 -0.0000 0.9777
vn -0.1386 -0.0000 0.9904
vn -0.0000 1.0000 -0.0000
vn -0.3711 0.9192 -0.1321
vn -0.1556 0.9159 0.3700
vn -0.4181 0.8966 0.1459
vn 0.1265 0.9195 0.3722
vn -0.2818 0.9167 0.2832
vn 0.3224 0.9195 0.2248
vn 0.2106 0.9519 0.2226
vn 0.2815 0.9589 0.0357
vn 0.3711 0.9192 -0.1321
vn -0.5510 0.3163 -0.7723
vn 0.3344 0.3502 -0.8750
vn -0.2269 0.7629 -0.6054
vn -0.2932 0.6791 -0.6730
vn -1.0000 -0.0000 -0.0000
vn -0.9495 0.3109 0.0409
vn -0.8330 0.3829 -0.3994
vn -0.6239 0.7525 -0.2107
vn -0.7636 0.6097 -0.2126
vn -0.7939 0.6067 0.0403
vn -0.7952 0.6053 0.0358
vn -0.5953 0.3219 -0.7362
vn -0.2069 0.7403 -0.6397
vn -0.7883 0.6025 0.1249
vn 0.7939 0.6067 0.0403
vn 0.7949 0.6057 0.0360
vn 0.7653 0.6093 -0.2076
vn 0.9495 0.3110 0.0409
vn 0.2018 0.7234 -0.6603
vn 0.0106 0.3147 -0.9491
vn 0.7851 0.2592 -0.5625
vn 0.6305 0.3685 -0.6831
vn 0.8247 -0.0000 0.5656
vn -0.8247 -0.0000 0.5656
vn -0.0000 0.8836 0.4682
vn 0.9974 -0.0162 0.0709
vn -0.9207 -0.1121 -0.3739
vn -0.8034 -0.0035 -0.5955
vn 0.9452 0.2665 0.1885
vn -0.5941 -0.0000 0.8044
vn -0.8090 -0.0000 0.5878
vn -0.6500 -0.2091 -0.7306
vn -0.7885 -0.1496 -0.5965
vn -0.8498 -0.0000 0.5271
vn -0.8666 0.4408 -0.2340
vn 0.0409 0.7885 0.6136
vn 0.7883 0.6025 0.1249
vn 0.6473 0.6072 -0.4607
vn 0.9222 0.2590 -0.2873
vn 0.3534 0.3948 -0.8481
vn 0.6382 0.6072 -0.4733
vn -0.9083 0.0668 0.4129
vn -0.9877 -0.0000 0.1564
vn -0.0409 0.7885 0.6136
vn -0.0000 -1.0000 -0.0000
vn 0.9978 -0.0000 0.0666
vn -0.9978 -0.0000 -0.0666
vn -0.9978 -0.0000 0.0666
vn 0.9978 -0.0000 -0.0666
vn 1.0000 -0.0000 -0.0000
vn -0.0000 0.8044 0.5941
vn -0.0000 0.8044 -0.5941
vn -0.0005 -0.3164 0.9486
vn -0.0000 0.8136 0.5815
vn -0.0000 -0.3164 0.9486
vn 0.0004 0.8136 0.5815
vn -0.0000 -0.3016 0.9534
vn -0.0000 -0.8090 0.5878
vn -0.0000 -0.8090 -0.5878
vn -0.0000 -0.3016 -0.9534
vn -0.0002 -0.3016 -0.9534
vn -0.0000 0.8136 -0.5815
vn -0.0000 -0.3164 -0.9486
vn 0.0007 -0.3164 -0.9486
vn -0.0000 0.8136 0.5814
vn 0.0005 -0.3164 -0.9486
vn -0.0000 0.8136 -0.5814
vn -0.0834 -0.9473 0.3093
vn -0.2608 -0.9518 -0.1614
vn -0.5791 -0.8101 -0.0920
vn -0.3936 -0.9008 0.1834
vn -0.2181 -0.8982 0.3816
vn 0.3790 -0.9109 0.1629
vn 0.1418 -0.9543 0.2632
vn 0.4462 -0.8495 0.2816
vn 0.4312 -0.8414 0.3257
vn 0.5652 -0.7807 0.2665
vn 0.2501 -0.8422 0.4777
vn 0.6647 -0.7456 0.0480
vn 0.9511 -0.0000 -0.3090
vn -0.5941 0.0002 0.8044
vn -0.9511 -0.0000 0.3090
vn -0.9511 -0.0000 -0.3090
vn -0.8090 -0.0000 -0.5878
vn -0.5941 0.0001 -0.8044
vn -0.5941 -0.0000 -0.8044
vn -0.5815 -0.0000 -0.8136
vn -0.5815 -0.0001 -0.8136
vn -0.3090 -0.0000 -0.9511
vn -0.0000 -0.0000 -1.0000
vn 0.3090 -0.0000 -0.9511
vn 0.5815 -0.0000 -0.8136
vn 0.2414 -0.2298 -0.9428
vn 0.3175 -0.1575 -0.9351
vn 0.2875 -0.2258 -0.9308
vn 0.0329 0.0038 -0.9995
vn 0.4950 0.2670 -0.8269
vn -0.0322 -0.5433 -0.8389
vn -0.3578 -0.4240 -0.8320
vn -0.9990 -0.0165 0.0413
vn -0.7123 0.6996 -0.0561
vn -0.7853 0.0763 -0.6144
vn -0.6472 0.3722 -0.6653
vn 0.9968 -0.0203 -0.0768
vn 0.9967 -0.0166 -0.0789
vn 0.8001 0.1535 -0.5799
vn 0.9436 -0.2507 -0.2160
vn -0.6567 0.5718 -0.4917
vn -0.6725 0.5098 -0.5365
vn -0.3530 0.3119 -0.8821
vn 0.2221 0.3803 -0.8978
vt 2.275141 0.545808
vt 2.277686 0.556607
vt 2.263722 0.549192
vt -1.277686 0.556607
vt -1.275141 0.545808
vt -1.263722 0.549192
vt 2.320952 0.529001
vt 2.320952 0.545808
vt 2.311887 0.545808
vt 2.311887 0.528381
vt 2.300465 0.545808
vt 2.305470 0.528030
vt 2.300465 0.527426
vt 2.310349 0.508229
vt -1.300465 0.531240
vt 0.000000 0.000000
vt -1.287803 0.545808
vt -1.300465 0.545808
vt 2.275141 0.528612
vt 2.287803 0.526388
vt 2.287803 0.545808
vt 2.263718 0.505241
vt 2.275141 0.505241
vt 2.275141 0.511931
vt 2.263718 0.511931
vt 2.254653 0.505241
vt 2.254653 0.511931
vt 0.512709 0.505241
vt 0.524171 0.505241
vt 0.524171 0.511931
vt 0.512709 0.511931
vt 0.524165 0.545808
vt 0.512703 0.545808
vt 0.512703 0.531182
vt 0.524165 0.530261
vt 2.245791 0.521114
vt 2.245791 0.511931
vt 2.261461 0.511931
vt 2.261461 0.521114
vt 0.512709 0.521114
vt 0.524171 0.521114
vt 2.320952 0.510092
vt 2.311887 0.505241
vt 2.320952 0.505241
vt 0.475829 0.529001
vt 0.475829 0.510092
vt 0.487291 0.509680
vt 0.487291 0.505241
vt 0.499997 0.505241
vt 0.499997 0.506221
vt 0.512703 0.508632
vt 0.524165 0.510060
vt 2.275141 0.521114
vt 0.500003 0.521114
vt 0.500003 0.511931
vt 0.475835 0.511931
vt 0.475835 0.505241
vt 0.487297 0.505241
vt 0.487297 0.511931
vt -1.261461 0.521114
vt -1.275141 0.521114
vt -1.275141 0.511931
vt -1.261461 0.511931
vt 0.500003 0.505241
vt 0.503110 0.521114
vt 0.509956 0.521114
vt 0.509956 0.535435
vt 0.503110 0.535435
vt 0.487297 0.521114
vt 0.500003 0.538368
vt 0.487297 0.538368
vt 0.490050 0.535435
vt 0.490050 0.521114
vt 0.496896 0.521114
vt 0.496896 0.535435
vt 0.475835 0.511931
vt 0.487297 0.511931
vt 0.475835 0.521114
vt 0.531248 2.263722
vt 0.533923 2.261461
vt 0.539107 2.275141
vt 0.528719 2.263722
vt 0.524171 2.245791
vt 0.528719 2.280081
vt 0.512709 2.280081
vt 0.512709 2.243340
vt 0.532855 2.287803
vt 0.531247 2.297920
vt 0.526581 2.307046
vt 0.519313 2.314290
vt 0.510155 2.318940
vt 0.500003 2.320542
vt 0.489851 2.318940
vt 0.480693 2.314290
vt 0.473425 2.307046
vt 0.468758 2.297920
vt 0.467150 2.287803
vt 0.468758 2.277686
vt 0.471287 2.277685
vt 0.471287 2.280081
vt 0.487297 2.280081
vt 0.487297 2.277685
vt 0.500003 2.276841
vt 0.512709 2.277685
vt 0.528719 2.277685
vt 0.531247 2.277686
vt 0.510149 0.556608
vt 0.499997 0.556608
vt 0.499997 0.545808
vt -1.280081 0.521114
vt -1.243340 0.521114
vt -1.243340 0.538368
vt -1.277685 0.556608
vt -1.297920 0.556608
vt -1.307046 0.556608
vt -1.311887 0.545808
vt -1.287803 0.556608
vt 0.519307 0.556608
vt 2.287803 0.556608
vt 2.297920 0.556608
vt 0.487291 0.545808
vt 0.489845 0.556608
vt 0.480687 0.556608
vt 0.475829 0.545808
vt 0.475835 2.320952
vt 0.466739 2.311887
vt 0.531248 0.549192
vt 0.528719 0.549192
vt 0.528719 0.521114
vt 0.531248 0.521114
vt 2.263722 0.530472
vt 2.263722 0.521114
vt -1.263722 0.533010
vt -1.275141 0.532885
vt -1.263722 0.521114
vt 0.501889 0.115477
vt -1.304700 0.530766
vt -1.311887 0.510520
vt -1.254653 0.505241
vt -1.254653 0.511931
vt -1.263718 0.511931
vt -1.263718 0.505241
vt 0.512709 0.538368
vt -1.311887 0.529960
vt -1.245791 0.521114
vt -1.245791 0.511931
vt -1.275141 0.505241
vt 0.466083 2.261461
vt 0.468758 2.263722
vt 0.460899 2.275141
vt 0.471287 2.263722
vt 0.475835 2.245791
vt 0.487297 0.556608
vt 0.471287 0.556607
vt 0.471287 0.521114
vt 0.487297 0.521114
vt 0.487297 2.243340
vt 0.500003 2.242495
vt 2.307046 0.556608
vt 0.524171 2.320952
vt 0.533267 2.311887
vt -1.287803 0.531679
vt -1.287803 0.510544
vt 0.468758 0.549192
vt 0.468758 0.521114
vt 0.471287 0.521114
vt 0.471287 0.549192
vt 0.502927 2.243110
vt 0.503104 2.240465
vt 0.509773 2.243566
vt 0.509950 2.240920
vt 2.243110 0.535435
vt 2.240465 0.535435
vt 2.243110 0.521114
vt 2.240465 0.521114
vt 0.490227 2.243566
vt 0.490050 2.240920
vt 0.497073 2.243110
vt 0.496896 2.240465
vt -1.243566 0.521114
vt -1.240920 0.521114
vt -1.243566 0.535435
vt -1.240920 0.535435
vt 0.490044 2.240920
vt 0.496890 2.240465
vt 0.490222 2.243566
vt 0.497067 2.243110
vt -1.240465 0.521114
vt -1.240465 0.535435
vt -1.243110 0.521114
vt -1.243110 0.535435
vt 0.503110 2.240465
vt 0.509956 2.240920
vt 0.502933 2.243110
vt 0.509778 2.243566
vt 2.240920 0.535435
vt 2.240920 0.521114
vt 2.243566 0.535435
vt 2.243566 0.521114
vt 0.470022 0.540132
vt 0.470022 0.545159
vt 0.466734 0.540132
vt 0.466734 0.545159
vt 2.262578 0.545159
vt 2.262578 0.540132
vt 2.268205 0.545159
vt 2.268205 0.540132
vt 0.529978 2.262578
vt 0.533266 2.262577
vt 0.529978 2.268205
vt 0.533266 2.268205
vt -1.262577 0.540132
vt -1.262578 0.545159
vt -1.268205 0.540132
vt -1.268205 0.545159
vt 0.466734 2.262578
vt 0.470022 2.262578
vt 0.466734 2.268205
vt 0.470022 2.268205
vt 0.533272 0.545159
vt 0.529983 0.545159
vt 0.533272 0.540132
vt 0.529983 0.540132
vt -1.262578 0.540132
vt -1.268205 0.545159
vt -1.262578 0.545159
vt 0.466728 2.268205
vt 0.466728 2.262578
vt 0.470017 2.268205
vt 0.470017 2.262578
vt 2.268205 0.545159
vt 2.262578 0.545159
vt 0.529983 2.268205
vt 0.529983 2.262578
vt 0.533272 2.268205
vt 0.533272 2.262578
vt 0.471788 2.282495
vt 0.471788 2.284806
vt 0.458189 2.282495
vt 0.458189 2.284806
vt 0.471788 0.533428
vt 0.471788 0.535630
vt 0.458189 0.533428
vt 0.458189 0.535630
vt 0.541811 2.281782
vt 0.541811 2.283651
vt 0.528212 2.281782
vt 0.528212 2.283651
vt 0.541811 2.285520
vt 0.528212 2.285520
vt 0.528212 0.535630
vt 0.528212 0.533428
vt 0.541811 0.535630
vt 0.541811 0.533428
vt -1.283651 0.532067
vt -1.281782 0.533428
vt -1.285520 0.533428
vt -1.284806 0.535630
vt -1.282495 0.535630
vt 0.541817 2.284806
vt 0.528218 2.284806
vt 0.541817 2.282495
vt 0.528218 2.282495
vt 0.541817 0.535630
vt 0.528218 0.535630
vt 0.541817 0.533428
vt 0.528218 0.533428
vt 0.458183 2.281782
vt 0.471782 2.281782
vt 0.458183 2.283651
vt 0.471782 2.283651
vt 0.458183 2.285520
vt 0.471782 2.285520
vt 0.458183 0.533428
vt 0.471782 0.533428
vt 0.458183 0.535630
vt 0.471782 0.535630
vt 2.283651 0.532067
vt 2.285520 0.533428
vt 2.281782 0.533428
vt 2.284806 0.535630
vt 2.282495 0.535630
vt 0.460893 2.275141
vt 0.466077 2.261461
vt 0.466733 2.263718
vt 0.475829 2.254653
vt 0.475829 2.245791
vt 0.499997 2.242495
vt 0.499997 2.246828
vt 0.487291 2.243340
vt 0.512703 2.243340
vt 0.512703 2.248833
vt 0.524165 2.245791
vt 0.524165 2.254653
vt 0.533917 2.261461
vt 0.533261 2.263718
vt 0.539101 2.275141
vt 2.277685 0.556608
vt 2.280081 0.521114
vt 2.280081 0.556608
vt 2.243340 0.538368
vt 2.243340 0.521114
vt -1.280081 0.556608
vt 2.277685 0.556607
vt 2.263722 0.521114
vt 2.280081 0.556607
vt -1.263722 0.521114
vt -1.277685 0.556607
vt -1.280081 0.556607
vt 0.528719 0.521114
vt 0.528719 0.556607
vt 0.512709 0.556608
vt 0.512709 0.521114
vt 0.460893 2.300465
vt 0.458881 2.287803
vt 0.466733 2.311887
vt 0.475829 2.320952
vt 0.487291 2.248833
vt 0.487291 2.326772
vt 0.499997 2.328778
vt 0.512703 2.326772
vt 0.524165 2.320952
vt 0.533261 2.311887
vt 0.539101 2.300465
vt 0.541114 2.287803
vt 2.261403 0.505241
vt 2.261403 0.500000
vt 2.268622 0.505241
vt 2.268622 0.500000
vt 2.277719 0.505241
vt 2.277719 0.500000
vt 2.287803 0.505241
vt 2.287803 0.500000
vt 2.297887 0.505241
vt 2.297887 0.500000
vt 2.306983 0.505241
vt 2.306983 0.500000
vt 2.314203 0.505241
vt 2.314203 0.500000
vt 0.519250 0.500000
vt 0.519250 0.505241
vt 0.510122 0.500000
vt 0.510122 0.505241
vt 0.500003 0.500000
vt 0.500003 0.505241
vt 0.489884 0.500000
vt 0.489884 0.505241
vt 0.480756 0.500000
vt 0.480756 0.505241
vt -1.261403 0.500000
vt -1.261403 0.505241
vt -1.268622 0.500000
vt -1.268622 0.505241
vt -1.277719 0.500000
vt -1.277719 0.505241
vt -1.287803 0.500000
vt -1.287803 0.505241
vt -1.297887 0.500000
vt -1.297887 0.505241
vt -1.306983 0.500000
vt -1.306983 0.505241
vt -1.314203 0.500000
vt -1.314203 0.505241
vt 0.519244 0.500000
vt 0.519244 0.505241
vt 0.510116 0.500000
vt 0.510116 0.505241
vt 0.499997 0.500000
vt 0.499997 0.505241
vt 0.489878 0.500000
vt 0.489878 0.505241
vt 0.480750 0.500000
vt 0.480750 0.505241
vt 0.487291 0.528787
vt 0.499997 0.511931
vt -1.320952 0.545808
vt -1.320952 0.530261
vt -1.029479 0.403893
vt -1.300465 0.510802
vt -1.300465 0.505241
vt -1.311887 0.505241
vt -1.320952 0.510060
vt -1.320952 0.505241
vt 2.300465 0.505241
vt 2.300465 0.509354
vt 0.512703 0.505241
vt 0.524165 0.505241
vt 0.475829 0.505241
s 1
f 3/1/1 2/2/1 1/3/1
f 6/4/2 5/5/2 4/6/2
f 394/7/3 9/8/4 8/9/5 393/10/6
f 8/9/5 11/11/7 392/12/8 393/10/6
f 396/13/9 411/14/10 392/12/8
f 388/15/11 385/16/12 144/17/13 143/18/14 115/18/15
f 22/1/16 397/19/16 398/20/17 14/21/18
f 18/22/19 16/23/20 15/24/21 17/25/19
f 20/26/22 18/22/19 17/25/19 19/27/22
f 39/28/23 36/29/24 38/30/25 37/31/23
f 33/32/26 31/33/27 391/34/28 390/35/29
f 26/36/30 25/37/30 23/38/31 24/39/31
f 49/40/32 46/31/33 48/30/34 47/41/34
f 408/42/35 411/14/10 10/43/36 7/44/37
f 395/45/38 407/46/39 406/47/40
f 27/48/41 29/49/42 405/50/43 406/47/40
f 391/34/28 403/51/44 401/52/45 390/35/29
f 24/39/31 23/38/31 15/24/46 21/53/47
f 51/54/48 50/55/48 46/31/33 49/40/32
f 45/56/49 44/57/49 42/58/50 43/59/50
f 128/60/51 125/61/52 119/62/53 127/63/51
f 41/64/48 39/28/23 37/31/23 40/55/48
f 183/65/54 180/66/54 182/67/54 181/68/54
f 55/69/55 51/54/48 53/70/48 54/71/56
f 163/72/56 160/73/56 162/74/56 161/75/56
f 58/76/57 56/77/58 55/69/55 57/78/57
f 43/59/50 42/58/50 41/64/48 40/55/48
f 61/79/59 60/80/59 59/81/59
f 61/79/59 62/82/59 60/80/59
f 63/83/59 60/80/59 62/82/59
f 66/84/59 65/85/59 64/86/59 63/83/59 62/82/59
f 70/87/59 71/88/60 72/89/61 73/90/62 75/91/63 76/92/64 81/93/65 82/94/66 84/95/67 85/96/68 86/97/59 87/98/59 88/99/59 83/100/59 79/101/59 80/102/59 77/103/59 78/104/59 74/85/59 67/84/59 69/105/59 68/106/59
f 81/107/69 76/108/70 100/109/71 31/33/72
f 316/110/73 313/111/73 315/112/73 314/113/73
f 85/114/74 84/115/75 113/116/76 143/18/77
f 145/117/78 85/114/74 143/18/77 144/17/79
f 82/118/80 81/107/69 31/33/72 33/32/81
f 147/4/82 145/117/78 144/17/79 146/5/82
f 96/119/83 95/21/84 93/11/85 71/120/86
f 28/121/87 75/122/88 73/123/89 9/124/90
f 84/95/75 82/94/80 33/125/81 113/126/76
f 100/109/71 76/108/70 75/122/88 28/121/87
f 102/127/48 104/128/48 101/129/48 103/130/48
f 397/19/91 399/131/91 108/132/91 105/53/91
f 384/133/92 387/134/92 152/61/92 154/135/92
f 109/106/93 111/105/93 112/82/93 110/79/93
f 397/19/16 21/53/16 105/16/16 15/16/21 410/136/94 398/20/17
f 386/137/95 404/138/96 388/15/11
f 410/136/94 15/24/21 16/23/20 13/16/97
f 124/139/98 123/140/98 121/141/99 122/142/99
f 53/70/48 51/54/48 49/40/32 52/143/54
f 115/18/15 113/116/100 383/144/101 386/137/95
f 130/145/102 128/60/51 127/63/51 129/146/102
f 122/142/99 121/141/99 119/62/53 120/147/103
f 133/148/59 132/149/59 131/150/59
f 132/149/59 133/148/59 134/151/59
f 135/152/59 134/151/59 133/148/59
f 326/153/48 323/154/48 325/155/48 324/156/48
f 137/101/59 138/100/59 134/151/59 135/152/59 136/157/59
f 92/103/104 89/158/104 91/86/104 90/104/104
f 98/2/105 97/1/105 95/21/84 96/119/83
f 71/120/86 93/11/85 94/9/106 72/159/107
f 9/160/90 73/90/89 72/89/108 99/161/109
f 385/162/12 402/163/110 119/62/53 125/61/52 387/134/111
f 150/164/48 151/165/48 148/166/48 149/167/48
f 384/133/92 153/6/92 155/5/92 387/134/92
f 142/157/112 139/158/112 141/103/112 140/102/112
f 157/149/93 159/151/93 158/99/93 156/98/93
f 383/144/101 404/138/96 386/137/95
f 166/168/113 165/169/113 164/170/113
f 167/171/113 164/170/113 165/169/113
f 170/172/114 169/173/114 168/174/114
f 171/175/114 168/174/114 169/173/114
f 174/176/59 173/177/59 172/178/59
f 175/179/59 172/178/59 173/177/59
f 178/180/115 177/181/115 176/182/115
f 179/183/115 176/182/115 177/181/115
f 56/77/58 50/55/48 51/54/48 55/69/55
f 186/184/113 185/185/113 184/186/113
f 187/187/113 184/186/113 185/185/113
f 190/188/116 189/189/116 188/190/116
f 191/191/116 188/190/116 189/189/116
f 194/192/59 193/193/59 192/194/59
f 195/195/59 192/194/59 193/193/59
f 198/196/117 197/197/117 196/198/117
f 199/199/117 196/198/117 197/197/117
f 202/200/48 201/201/48 200/202/48
f 203/203/48 200/202/48 201/201/48
f 206/204/118 205/205/118 204/206/118
f 207/207/118 204/206/118 205/205/118
f 210/208/113 209/209/113 208/210/113
f 211/211/113 208/210/113 209/209/113
f 214/212/73 213/213/73 212/214/73
f 215/215/73 212/214/73 213/213/73
f 218/216/59 217/217/59 216/218/59
f 219/219/59 216/218/59 217/217/59
f 222/220/48 221/221/48 220/222/48
f 223/223/48 220/222/48 221/221/48
f 226/214/73 225/224/73 224/225/73
f 227/226/73 224/225/73 225/224/73
f 230/227/113 229/228/113 228/229/113
f 231/230/113 228/229/113 229/228/113
f 234/231/118 233/232/118 232/207/118
f 235/205/118 232/207/118 233/232/118
f 238/233/59 237/234/59 236/235/59
f 239/236/59 236/235/59 237/234/59
f 242/237/119 241/238/120 240/239/119
f 243/240/120 240/239/119 241/238/120
f 246/241/121 245/242/122 244/243/123
f 247/244/124 244/243/123 245/242/122
f 250/245/125 249/246/126 248/247/125
f 251/248/126 248/247/125 249/246/126
f 249/246/127 252/249/128 251/248/127
f 253/250/129 251/248/127 252/249/128
f 256/251/130 255/252/131 254/253/130
f 257/254/132 254/253/130 255/252/131
f 260/255/73 259/256/73 258/257/73
f 258/257/73 259/256/73 261/258/73
f 261/258/73 259/256/73 262/259/73
f 265/260/120 264/261/120 263/262/119
f 266/263/119 263/262/119 264/261/120
f 269/264/122 268/265/133 267/266/123
f 270/267/123 267/266/123 268/265/133
f 273/268/125 272/269/125 271/270/126
f 274/271/126 271/270/126 272/269/125
f 271/270/127 274/271/127 275/272/128
f 276/273/128 275/272/128 274/271/127
f 279/274/131 278/275/134 277/276/135
f 280/277/130 277/276/135 278/275/134
f 283/278/118 282/279/118 281/280/118
f 282/279/118 284/281/118 281/280/118
f 281/280/118 284/281/118 285/282/118
f 15/283/113 287/284/113 286/285/113
f 286/285/113 287/284/113 288/286/113
f 289/287/113 288/286/113 287/284/113
f 292/288/113 291/289/113 290/290/113
f 292/288/113 293/291/113 291/289/113
f 294/292/113 291/289/113 293/291/113
f 293/291/113 295/293/113 294/292/113
f 296/294/113 294/292/113 295/293/113
f 295/293/113 297/295/113 296/294/113
f 298/296/113 296/294/113 297/295/113
f 297/295/113 119/297/113 298/296/113
f 299/298/118 302/299/118 303/300/118
f 302/299/118 299/298/118 301/301/118 300/302/118
f 316/110/73 314/113/73 317/303/73
f 321/304/118 318/3/118 320/305/118 319/299/118 322/306/118
f 304/110/73 306/307/73 305/6/73 307/308/73 308/309/73
f 312/310/48 309/311/48 311/312/48 310/313/48
f 327/283/113 12/314/136 13/315/137
f 327/283/113 328/285/113 12/314/136
f 10/316/138 12/314/136 328/285/113
f 328/285/113 329/286/113 10/316/138
f 7/317/139 10/316/138 329/286/113
f 329/286/113 330/318/113 7/317/139
f 27/319/140 7/317/139 330/318/113
f 330/318/113 331/289/113 27/319/140
f 29/320/141 27/319/140 331/289/113
f 331/289/113 332/292/113 29/320/141
f 32/321/142 29/320/141 332/292/113
f 332/292/113 333/294/113 32/321/142
f 34/322/143 32/321/142 333/294/113
f 333/294/113 334/296/113 34/322/143
f 114/323/144 34/322/143 334/296/113
f 334/296/113 120/297/145 114/323/144
f 116/324/146 114/323/144 120/297/145
f 117/325/147 116/324/146 120/297/145
f 337/326/22 336/327/22 335/328/19
f 338/329/19 335/328/19 336/327/22
f 335/328/19 338/329/19 339/330/20
f 340/331/20 339/330/20 338/329/19
f 339/330/20 340/331/20 341/332/118
f 342/333/118 341/332/118 340/331/20
f 341/332/118 342/333/118 343/334/148
f 344/335/148 343/334/148 342/333/118
f 343/334/148 344/335/148 345/336/5
f 346/337/5 345/336/5 344/335/148
f 345/336/5 346/337/5 347/338/4
f 348/339/4 347/338/4 346/337/5
f 351/340/24 350/341/24 349/342/23
f 352/343/23 349/342/23 350/341/24
f 349/342/23 352/343/23 353/344/48
f 354/345/48 353/344/48 352/343/23
f 353/344/48 354/345/48 355/346/50
f 356/347/50 355/346/50 354/345/48
f 355/346/50 356/347/50 357/348/49
f 358/349/49 357/348/49 356/347/50
f 361/350/98 360/351/149 359/352/99
f 362/353/99 359/352/99 360/351/149
f 359/352/99 362/353/99 363/354/150
f 364/355/150 363/354/150 362/353/99
f 363/354/150 364/355/150 365/356/73
f 366/357/73 365/356/73 364/355/150
f 365/356/73 366/357/73 367/358/151
f 368/359/151 367/358/151 366/357/73
f 367/358/151 368/359/151 369/360/152
f 370/361/152 369/360/152 368/359/151
f 369/360/152 370/361/152 371/362/153
f 372/363/154 371/362/153 370/361/152
f 375/364/155 374/365/156 373/366/157
f 376/367/157 373/366/157 374/365/156
f 373/366/157 376/367/157 377/368/158
f 378/369/158 377/368/158 376/367/157
f 377/368/158 378/369/158 379/370/159
f 380/371/159 379/370/159 378/369/158
f 379/370/159 380/371/159 381/372/160
f 382/373/160 381/372/160 380/371/159
f 100/109/161 28/121/162 389/374/163 30/375/164
f 386/137/95 388/15/11 115/18/15
f 389/374/163 28/121/162 9/124/165 395/45/38
f 31/16/27 100/109/161 30/375/164 391/34/28
f 391/34/28 30/375/166 405/50/167 403/51/44
f 113/116/100 33/376/26 390/377/29 383/144/101
f 385/162/12 387/134/111 126/5/111 118/17/168
f 117/357/169 402/378/110 400/379/170 116/380/171
f 408/42/35 394/7/3 393/10/6
f 396/13/9 392/12/8 11/11/7
f 398/16/17 396/16/9 93/11/172 95/21/173
f 13/16/97 12/16/174 409/16/175 410/136/94
f 114/381/176 404/138/96 401/382/45 34/383/177
f 404/138/96 114/381/176 116/380/171 400/379/170
f 12/384/174 10/43/36 411/14/10 409/385/175
f 399/131/91 397/19/91 107/1/91 106/3/91
f 390/377/29 401/382/45 383/144/101
f 400/379/170 402/378/110 385/16/12 388/15/11
f 401/52/45 403/51/44 32/386/178 34/387/177
f 401/382/45 404/138/96 383/144/101
f 404/138/96 400/379/170 388/15/11
f 411/14/10 408/42/35 393/10/6
f 392/12/8 411/14/10 393/10/6
f 403/51/44 405/50/43 29/49/42 32/386/178
f 406/47/40 407/46/39 7/388/179 27/48/41
f 406/47/40 405/50/167 30/375/166 389/374/163
f 410/136/94 409/16/175 396/16/9 398/20/17
f 389/374/163 395/45/38 406/47/40
f 409/385/175 411/14/10 396/13/9
f 119/62/53 402/163/110 117/357/169 120/147/103
l 11 14
l 28 35
l 31 35
l 115 118
l 289 290
