# Blender 4.5.3 LTS
# www.blender.org
mtllib Mackensen_350_barrel_001.mtl
o Mackensen_350_barrel_001
v 0.255372 0.352330 4.424362
v 0.413388 0.134840 4.424362
v -0.000301 0.000423 4.864001
v 0.413389 -0.133992 4.424362
v 0.255373 -0.351482 4.424362
v -0.255975 -0.351482 4.424361
v -0.413992 -0.133993 4.424359
v -0.413992 0.134839 4.424359
v -0.255977 0.352330 4.424359
v 0.413388 0.134840 4.424362
v 0.413389 -0.133992 4.424362
v -0.000301 0.000423 4.864001
v -0.413992 -0.133993 4.424359
v -0.413992 0.134839 4.424359
v -0.000301 0.000423 4.864001
v 0.255372 0.352330 4.424362
v -0.000290 0.500728 -0.084234
v 0.293782 0.405177 -0.084232
v -0.000303 0.435404 4.424361
v -0.255977 0.352330 4.424359
v -0.294361 0.405177 -0.084234
v 0.293782 0.405177 -0.084232
v 0.413388 0.134840 4.424362
v 0.255372 0.352330 4.424362
v 0.475529 0.155025 -0.084233
v 0.413389 -0.133992 4.424362
v 0.475530 -0.154181 -0.084233
v 0.255373 -0.351482 4.424362
v 0.293784 -0.404334 -0.084233
v 0.293784 -0.404334 -0.084233
v -0.000301 -0.434556 4.424362
v 0.255373 -0.351482 4.424362
v -0.000288 -0.499883 -0.084233
v -0.255975 -0.351482 4.424361
v -0.294359 -0.404333 -0.084235
v -0.294359 -0.404333 -0.084235
v -0.413992 -0.133993 4.424359
v -0.255975 -0.351482 4.424361
v -0.476107 -0.154181 -0.084235
v -0.413992 0.134839 4.424359
v -0.476107 0.155023 -0.084238
v -0.255977 0.352330 4.424359
v -0.294361 0.405177 -0.084234
v 0.195907 0.270901 11.543919
v -0.000266 0.362197 4.172992
v 0.212407 0.293094 4.172992
v -0.000461 0.334704 11.543919
v -0.212940 0.293094 4.172989
v 0.224197 0.309838 11.856850
v -0.196828 0.270898 11.543919
v -0.000463 0.382833 11.856850
v -0.225120 0.309836 11.856850
v 0.195908 -0.269654 11.543922
v 0.343848 -0.111436 4.172996
v 0.212408 -0.292346 4.172992
v 0.317270 -0.102617 11.543917
v 0.224197 -0.308596 11.856853
v 0.343848 0.112182 4.172996
v 0.363044 -0.117489 11.856850
v 0.317269 0.103858 11.543917
v 0.212407 0.293094 4.172992
v 0.363043 0.118732 11.856850
v 0.195907 0.270901 11.543919
v 0.224197 0.309838 11.856850
v -0.196827 -0.269658 11.543919
v -0.000265 -0.361449 4.172992
v -0.212938 -0.292346 4.172992
v -0.000460 -0.333460 11.543919
v 0.212408 -0.292346 4.172992
v -0.225117 -0.308596 11.856850
v 0.195908 -0.269654 11.543922
v -0.000461 -0.381591 11.856850
v 0.224197 -0.308596 11.856853
v -0.196828 0.270898 11.543919
v -0.344379 0.112182 4.172992
v -0.212940 0.293094 4.172989
v -0.318190 0.103858 11.543915
v -0.225120 0.309836 11.856850
v -0.344378 -0.111436 4.172992
v -0.363966 0.118732 11.856846
v -0.318190 -0.102617 11.543915
v -0.212938 -0.292346 4.172992
v -0.363966 -0.117488 11.856846
v -0.196827 -0.269658 11.543919
v -0.225117 -0.308596 11.856850
v 0.255373 -0.351482 4.424362
v -0.000301 -0.434556 4.424362
v -0.000301 0.000423 4.864001
v -0.255975 -0.351482 4.424361
v -0.255977 0.352330 4.424359
v -0.000303 0.435404 4.424361
v -0.000301 0.000423 4.864001
v 0.255372 0.352330 4.424362
v -0.000463 0.382833 11.856850
v 0.142800 0.192236 11.919933
v 0.001561 0.238127 11.919933
v 0.224197 0.309838 11.856850
v -0.225120 0.309836 11.856850
v 0.230090 0.072089 11.919937
v -0.139676 0.192236 11.919933
v 0.363043 0.118732 11.856850
v -0.363966 0.118732 11.856846
v 0.230091 -0.076417 11.919937
v -0.226966 0.072091 11.919933
v 0.363044 -0.117489 11.856850
v -0.363966 -0.117488 11.856846
v 0.142800 -0.196561 11.919937
v -0.226966 -0.076418 11.919933
v 0.224197 -0.308596 11.856853
v -0.225117 -0.308596 11.856850
v 0.001562 -0.242453 11.919937
v -0.139676 -0.196561 11.919937
v -0.000461 -0.381591 11.856850
v 0.001561 0.238127 11.919933
v 0.142800 0.192236 11.919933
v -0.000265 0.000373 5.049165
v -0.139676 0.192236 11.919933
v 0.142800 0.192236 11.919933
v 0.230090 0.072089 11.919937
v -0.000265 0.000373 5.049165
v 0.230091 -0.076417 11.919937
v 0.142800 -0.196561 11.919937
v 0.142800 -0.196561 11.919937
v 0.001562 -0.242453 11.919937
v -0.000265 0.000373 5.049165
v -0.139676 -0.196561 11.919937
v -0.139676 -0.196561 11.919937
v -0.226966 -0.076418 11.919933
v -0.000265 0.000373 5.049165
v -0.226966 0.072091 11.919933
v -0.139676 0.192236 11.919933
vn -0.0002 -0.0000 1.0000
vn 0.6760 0.2198 0.7033
vn 0.4180 0.5750 0.7033
vn -0.0001 0.0002 1.0000
vn 0.4180 -0.5750 0.7033
vn 0.6760 -0.2198 0.7033
vn 0.0002 -0.0000 1.0000
vn -0.6760 -0.2198 0.7033
vn -0.4180 -0.5750 0.7033
vn 0.0001 -0.0002 1.0000
vn -0.4180 0.5750 0.7033
vn -0.6760 0.2198 0.7033
vn -0.0002 0.0001 1.0000
vn 0.6761 -0.2195 0.7033
vn 0.6761 0.2195 0.7033
vn 0.0001 -0.0001 1.0000
vn -0.6761 0.2195 0.7033
vn -0.6761 -0.2195 0.7033
vn 0.5876 0.8090 0.0145
vn -0.0000 0.9999 0.0145
vn -0.5876 0.8090 0.0145
vn 0.5878 0.8089 0.0145
vn 0.9510 0.3090 0.0145
vn 0.9510 -0.3090 0.0145
vn 0.5878 -0.8089 0.0145
vn 0.5876 -0.8090 0.0145
vn -0.0000 -0.9999 0.0145
vn -0.5876 -0.8090 0.0145
vn -0.5878 -0.8089 0.0145
vn -0.9510 -0.3090 0.0145
vn -0.9510 0.3090 0.0145
vn -0.5878 0.8089 0.0145
vn 0.5877 0.8091 0.0038
vn -0.0000 1.0000 0.0037
vn 0.5860 0.8068 -0.0755
vn -0.0000 0.9971 -0.0755
vn -0.5877 0.8091 0.0037
vn 0.5808 0.7997 -0.1520
vn -0.5860 0.8068 -0.0756
vn -0.0000 0.9884 -0.1520
vn -0.5808 0.7997 -0.1520
vn 0.5879 -0.8089 0.0038
vn 0.9510 -0.3090 0.0038
vn 0.5862 -0.8067 -0.0755
vn 0.9483 -0.3081 -0.0755
vn 0.5811 -0.7995 -0.1520
vn 0.9511 0.3090 0.0038
vn 0.9400 -0.3054 -0.1520
vn 0.9483 0.3081 -0.0755
vn 0.5879 0.8089 0.0038
vn 0.9400 0.3054 -0.1520
vn 0.5862 0.8067 -0.0755
vn 0.5811 0.7995 -0.1520
vn -0.5877 -0.8091 0.0038
vn -0.0000 -1.0000 0.0038
vn -0.5860 -0.8068 -0.0755
vn -0.0000 -0.9971 -0.0755
vn 0.5877 -0.8091 0.0038
vn -0.5808 -0.7997 -0.1520
vn 0.5861 -0.8067 -0.0755
vn -0.0000 -0.9884 -0.1520
vn 0.5808 -0.7997 -0.1520
vn -0.5879 0.8089 0.0037
vn -0.9511 0.3090 0.0037
vn -0.5862 0.8067 -0.0755
vn -0.9483 0.3081 -0.0755
vn -0.5811 0.7995 -0.1520
vn -0.9510 -0.3090 0.0037
vn -0.9400 0.3054 -0.1520
vn -0.9483 -0.3081 -0.0755
vn -0.5879 -0.8089 0.0038
vn -0.9400 -0.3054 -0.1520
vn -0.5862 -0.8067 -0.0755
vn -0.5811 -0.7995 -0.1520
vn -0.0000 0.0001 1.0000
vn -0.0000 -0.7109 0.7033
vn 0.4177 -0.5752 0.7033
vn -0.4177 -0.5752 0.7033
vn -0.0000 -0.0001 1.0000
vn -0.0000 0.7109 0.7033
vn -0.4177 0.5752 0.7033
vn 0.4177 0.5752 0.7033
vn 0.0014 0.3996 0.9167
vn 0.2391 0.3253 0.9149
vn -0.0008 0.3996 0.9167
vn 0.2362 0.3273 0.9149
vn -0.2340 0.3221 0.9173
vn 0.3895 0.1241 0.9126
vn 0.3883 0.1276 0.9127
vn -0.3798 0.1242 0.9167
vn 0.3923 -0.1290 0.9107
vn -0.3805 0.1222 0.9167
vn 0.3930 -0.1268 0.9108
vn -0.3843 -0.1235 0.9149
vn 0.2437 -0.3354 0.9100
vn -0.3832 -0.1269 0.9149
vn -0.2413 -0.3299 0.9127
vn 0.0015 -0.4130 0.9107
vn -0.2384 -0.3321 0.9126
vn -0.0009 -0.4129 0.9108
vn 0.0007 -0.0050 1.0000
vn -0.5874 -0.8087 0.0314
vn -0.0001 -0.9994 0.0346
vn 0.5872 -0.8087 0.0351
vn -0.0045 0.0006 1.0000
vn -0.9505 -0.3087 0.0351
vn -0.5877 -0.8083 0.0354
vn -0.9504 0.3089 0.0353
vn -0.5877 0.8085 0.0320
vn 0.0006 0.0066 1.0000
vn -0.0001 0.9994 0.0353
vn -0.5872 0.8086 0.0361
vn 0.5872 0.8088 0.0319
vn 0.0059 0.0006 1.0000
vn 0.9505 0.3089 0.0348
vn 0.5875 0.8084 0.0358
vn 0.9505 -0.3088 0.0346
vn 0.5877 -0.8085 0.0312
vt 23.551691 0.528911
vt 23.557894 0.530938
vt 23.555525 0.534218
vt 23.555525 0.523605
vt 23.557894 0.526885
vt 23.545488 0.526885
vt 23.547857 0.523605
vt 23.547857 0.534218
vt 23.545488 0.530938
vt 0.352994 0.528911
vt 0.359626 0.526885
vt 0.359626 0.530938
vt 0.647006 0.528911
vt 0.640374 0.530938
vt 0.640374 0.526885
vt 23.556101 0.427476
vt 23.551691 0.427476
vt 23.555525 0.359626
vt 23.551691 0.359626
vt 23.547857 0.359626
vt 23.547281 0.427476
vt 0.359626 0.534218
vt 0.427476 0.535015
vt 0.427476 0.531243
vt 0.427476 0.526580
vt 0.359626 0.523605
vt 0.427476 0.522808
vt -22.555525 0.359626
vt -22.551691 0.359626
vt -22.556101 0.427476
vt -22.551691 0.427476
vt -22.547857 0.359626
vt -22.547281 0.427476
vt 0.640374 0.523605
vt 0.572524 0.522808
vt 0.572524 0.526580
vt 0.572524 0.531243
vt 0.640374 0.534218
vt 0.572524 0.535015
vt 23.554880 0.363417
vt 23.551691 0.363417
vt 23.554634 0.269153
vt 23.551689 0.269153
vt 23.548502 0.363417
vt 23.555058 0.264433
vt 23.548744 0.269153
vt 23.551689 0.264433
vt 23.548321 0.264433
vt 0.363417 0.524497
vt 0.363417 0.527225
vt 0.269153 0.524839
vt 0.269153 0.527358
vt 0.264433 0.524252
vt 0.363417 0.530597
vt 0.264433 0.527133
vt 0.269153 0.530471
vt 0.363417 0.533325
vt 0.264433 0.530695
vt 0.269153 0.532990
vt 0.264433 0.533577
vt -22.548502 0.363417
vt -22.551691 0.363417
vt -22.548744 0.269153
vt -22.551689 0.269153
vt -22.554880 0.363417
vt -22.548321 0.264433
vt -22.554634 0.269153
vt -22.551689 0.264433
vt -22.555058 0.264433
vt 0.636583 0.533325
vt 0.636583 0.530597
vt 0.730847 0.532990
vt 0.730847 0.530471
vt 0.735567 0.533577
vt 0.636583 0.527225
vt 0.735567 0.530695
vt 0.730847 0.527358
vt 0.636583 0.524497
vt 0.735567 0.527133
vt 0.730847 0.524839
vt 0.735567 0.524252
vt -22.551691 0.352994
vt 23.551691 0.352994
vt 23.551720 0.532496
vt 23.553837 0.531804
vt 23.551689 0.534678
vt 23.555058 0.533577
vt 23.548321 0.533577
vt 23.555145 0.529992
vt 23.549601 0.531804
vt 23.557140 0.530695
vt 23.546238 0.530695
vt 23.555145 0.527753
vt 23.548292 0.529992
vt 23.557140 0.527133
vt 23.546238 0.527133
vt 23.553837 0.525941
vt 23.548292 0.527753
vt 23.555058 0.524252
vt 23.548321 0.524252
vt 23.551720 0.525249
vt 23.549601 0.525941
vt 23.551689 0.523151
vt -22.551691 0.350201
vt -22.553837 0.263481
vt -22.551720 0.263481
vt -22.549601 0.263481
vt 0.649799 0.528911
vt 0.736519 0.529992
vt 0.736519 0.531804
vt 0.736519 0.527753
vt 0.736519 0.525941
vt 23.551691 0.350201
vt 23.551720 0.263481
vt 23.553837 0.263481
vt 23.549601 0.263481
vt 0.350201 0.528911
vt 0.263481 0.527753
vt 0.263481 0.525941
vt 0.263481 0.529992
vt 0.263481 0.531804
s 1
f 3/1/1 2/2/2 1/3/3
f 3/1/4 5/4/5 4/5/6
f 3/1/7 7/6/8 6/7/9
f 3/1/10 9/8/11 8/9/12
f 12/10/13 11/11/14 10/12/15
f 15/13/16 14/14/17 13/15/18
f 18/16/19 17/17/20 16/18/19
f 19/19/20 16/18/19 17/17/20
f 19/19/20 17/17/20 20/20/21
f 21/21/21 20/20/21 17/17/20
f 24/22/22 23/12/23 22/23/22
f 25/24/23 22/23/22 23/12/23
f 23/12/23 26/11/24 25/24/23
f 27/25/24 25/24/23 26/11/24
f 26/11/24 28/26/25 27/25/24
f 29/27/25 27/25/24 28/26/25
f 32/28/26 31/29/27 30/30/26
f 33/31/27 30/30/26 31/29/27
f 31/29/27 34/32/28 33/31/27
f 35/33/28 33/31/27 34/32/28
f 38/34/29 37/15/30 36/35/29
f 39/36/30 36/35/29 37/15/30
f 37/15/30 40/14/31 39/36/30
f 41/37/31 39/36/30 40/14/31
f 40/14/31 42/38/32 41/37/31
f 43/39/32 41/37/31 42/38/32
f 46/40/33 45/41/34 44/42/35
f 47/43/36 44/42/35 45/41/34
f 45/41/34 48/44/37 47/43/36
f 44/42/35 47/43/36 49/45/38
f 50/46/39 47/43/36 48/44/37
f 51/47/40 49/45/38 47/43/36
f 47/43/36 50/46/39 51/47/40
f 52/48/41 51/47/40 50/46/39
f 55/49/42 54/50/43 53/51/44
f 56/52/45 53/51/44 54/50/43
f 53/51/44 56/52/45 57/53/46
f 54/50/43 58/54/47 56/52/45
f 59/55/48 57/53/46 56/52/45
f 60/56/49 56/52/45 58/54/47
f 56/52/45 60/56/49 59/55/48
f 58/54/47 61/57/50 60/56/49
f 62/58/51 59/55/48 60/56/49
f 63/59/52 60/56/49 61/57/50
f 60/56/49 63/59/52 62/58/51
f 64/60/53 62/58/51 63/59/52
f 67/61/54 66/62/55 65/63/56
f 68/64/57 65/63/56 66/62/55
f 66/62/55 69/65/58 68/64/57
f 65/63/56 68/64/57 70/66/59
f 71/67/60 68/64/57 69/65/58
f 72/68/61 70/66/59 68/64/57
f 68/64/57 71/67/60 72/68/61
f 73/69/62 72/68/61 71/67/60
f 76/70/63 75/71/64 74/72/65
f 77/73/66 74/72/65 75/71/64
f 74/72/65 77/73/66 78/74/67
f 75/71/64 79/75/68 77/73/66
f 80/76/69 78/74/67 77/73/66
f 81/77/70 77/73/66 79/75/68
f 77/73/66 81/77/70 80/76/69
f 79/75/68 82/78/71 81/77/70
f 83/79/72 80/76/69 81/77/70
f 84/80/73 81/77/70 82/78/71
f 81/77/70 84/80/73 83/79/72
f 85/81/74 83/79/72 84/80/73
f 88/82/75 87/29/76 86/28/77
f 88/82/75 89/32/78 87/29/76
f 92/83/79 91/19/80 90/20/81
f 92/83/79 93/18/82 91/19/80
f 96/84/83 95/85/84 94/86/85
f 97/87/86 94/86/85 95/85/84
f 94/86/85 98/88/87 96/84/83
f 95/85/84 99/89/88 97/87/86
f 100/90/87 96/84/83 98/88/87
f 101/91/89 97/87/86 99/89/88
f 98/88/87 102/92/90 100/90/87
f 99/89/88 103/93/91 101/91/89
f 104/94/92 100/90/87 102/92/90
f 105/95/93 101/91/89 103/93/91
f 102/92/90 106/96/94 104/94/92
f 103/93/91 107/97/95 105/95/93
f 108/98/96 104/94/92 106/96/94
f 109/99/95 105/95/93 107/97/95
f 106/96/94 110/100/97 108/98/96
f 107/97/95 111/101/98 109/99/95
f 112/102/99 108/98/96 110/100/97
f 113/103/100 109/99/95 111/101/98
f 110/100/97 113/103/100 112/102/99
f 111/101/98 112/102/99 113/103/100
f 116/104/101 115/105/102 114/106/103
f 114/106/103 117/107/104 116/104/101
f 120/108/105 119/109/106 118/110/107
f 120/108/105 121/111/108 119/109/106
f 120/108/105 122/112/109 121/111/108
f 125/113/110 124/114/111 123/115/112
f 125/113/110 126/116/113 124/114/111
f 129/117/114 128/118/115 127/119/116
f 129/117/114 130/120/117 128/118/115
f 129/117/114 131/121/118 130/120/117
