g moga_gun_B_127_x3_001
v 1.3931603 1.0774926 0.08642373
v 0.66957515 0.35890505 0.086423516
v 0.66957474 1.077493 0.08642358
v 0.66957474 1.077493 0.0012556085
v 0.66957515 0.35890505 0.0012555209
v 1.3931603 1.0774926 0.0012557455
v 0.6695742 1.0774931 0.66532624
v 0.6695751 0.35890505 0.6653261
v 1.3931602 1.0774926 0.6653265
v 1.3931602 1.0774926 0.75049454
v 0.66957504 0.35890505 0.75049424
v 0.66957414 1.077493 0.7504943
v 1.7267534 2.6994371 -1.2500594
v 0.67904013 2.5936322 -1.7830731
v 1.6242542 2.5936322 -1.3082929
v 0.67904013 2.5936322 -1.7830731
v 1.7267534 2.6994371 -1.2500594
v 0.6790341 2.6994371 -1.7830751
v 1.6242542 2.5936322 -1.3082929
v 1.7267534 0.24547789 -1.2500591
v 1.6242542 0.24547789 -1.3082929
v -1.7129966 2.4110153 -1.2090328
v -0.5955153 2.5943925 -1.7831082
v -0.5955112 2.6994376 -1.7831082
v -0.5955153 2.5943925 -1.7831082
v -1.7129966 2.4110153 -1.2090328
v -1.6136345 2.3346703 -1.2707145
v -1.230277 -3.5381604E-06 -0.98112875
v -0.6827437 0.24547315 -1.4177715
v -1.2302763 0.24547306 -0.9811288
v -0.68274426 -4.1747253E-06 -1.4177719
v 1.8853023E-05 0.24547328 -1.5736085
v 1.8853021E-05 -4.0558566E-06 -1.5736082
v 0.6827838 0.24547334 -1.4177716
v 0.68278337 -3.3950964E-06 -1.4177717
v 1.2303144 0.24547336 -0.9811287
v 1.2303153 -1.0705282E-06 -0.9811287
v -1.2302763 0.24547306 -0.9811288
v -1.5341357 -3.2629493E-06 -0.3501605
v -1.230277 -3.5381604E-06 -0.98112875
v -1.5341347 0.24547292 -0.3501605
v -1.5341357 -3.1648153E-06 0.35016027
v -1.5341357 0.2454728 0.3501609
v -1.2302777 -2.229185E-06 0.98112774
v -1.2302767 0.24547279 0.9811276
v -1.2302767 0.24547279 0.9811276
v -0.68274474 -1.6283828E-06 1.4177715
v -1.2302777 -2.229185E-06 0.98112774
v -0.6827452 0.24547285 1.4177716
v 1.8340275E-05 -1.37055E-06 1.5736068
v 1.8340274E-05 0.24547286 1.5736068
v 0.682781 -1.0609466E-06 1.4177719
v 0.682781 0.24547304 1.4177719
v 1.230314 -9.22651E-07 0.9811282
v 1.230314 0.24547313 0.9811282
v 1.230314 0.24547313 0.9811282
v 1.5341725 -2.1563048E-06 0.35016066
v 1.230314 -9.22651E-07 0.9811282
v 1.5341716 0.24547327 0.35016128
v 1.5341725 -2.0708565E-06 -0.35016066
v 1.5341716 0.24547334 -0.3501606
v 1.2303153 -1.0705282E-06 -0.9811287
v 1.2303144 0.24547336 -0.9811287
v 1.0265034 2.5621963 0.46323103
v 1.1454794 2.3288362 0.8267606
v 1.0265034 2.3288362 0.8267606
v 1.1454796 2.5621963 0.46323103
v 1.5024099 2.562197 -0.0336438
v 1.3834333 2.5621963 0.4632311
v 1.5024099 2.5621963 0.4632311
v 1.5024089 2.3288362 0.8267606
v 1.3834321 2.3288362 0.8267606
v 0.66957426 2.5621972 -0.03364377
v 0.7885503 2.5621965 0.463231
v 0.66957515 2.5038571 -0.20866357
v 1.5024104 2.503857 -0.2086637
v 0.6695737 2.5621965 0.463231
v 0.78855026 2.3288362 0.8267606
v 0.66957366 2.3288362 0.82676053
v 1.1454794 2.0303168 0.9529213
v 1.0265034 2.3288362 0.8267606
v 1.1454794 2.3288362 0.8267606
v 1.0265034 2.0303168 0.9529213
v 1.0265034 1.7127088 0.97486484
v 1.1454794 1.7127088 0.97486496
v 0.66957414 1.0774928 1.018752
v 0.78855026 1.7127088 0.97486484
v 1.5024089 1.0774926 1.0187522
v 0.66957366 1.7127088 0.9748648
v 1.3834321 1.7127088 0.97486496
v 1.5024089 1.7127088 0.97486496
v 0.78855026 2.030317 0.9529213
v 0.66957366 2.030317 0.9529212
v 0.66957366 2.3288362 0.82676053
v 0.78855026 2.3288362 0.8267606
v 1.5024089 2.0303168 0.95292133
v 1.3834321 2.0303168 0.95292133
v 1.3834321 2.3288362 0.8267606
v 1.5024089 2.3288362 0.8267606
v 0.6695753 2.3288367 -0.26700366
v 1.5024104 2.503857 -0.2086637
v 0.66957515 2.5038571 -0.20866357
v 1.5024104 2.3288362 -0.26700363
v 0.6695748 1.077493 -0.26700225
v 1.502409 1.0774926 -0.26700205
v -0.52472264 1.6866664 0.14232694
v -0.67016554 1.9356526 -0.022847716
v -0.52471876 1.9356532 -0.022846889
v -0.67016935 1.686666 0.14232688
v -0.52472323 1.0774914 1.0964305
v -0.67017233 1.6070429 0.7073057
v -0.5247255 1.6070428 0.707306
v -0.67016995 1.0774916 1.0964303
v -0.5247237 0.24547426 1.096424
v -0.67016995 1.0774916 1.0964303
v -0.52472323 1.0774914 1.0964305
v -0.67017806 0.2454741 1.0964237
v -0.5247187 1.6858767 -0.30780596
v -0.67017925 0.24547452 -0.3078064
v -0.5247244 0.24547434 -0.30780628
v -0.6701659 1.6858771 -0.30780628
v -0.67016447 1.9357312 -0.24532618
v -0.52471775 1.9357314 -0.24532552
v -0.5247255 1.6070428 0.707306
v -0.67016935 1.686666 0.14232688
v -0.52472264 1.6866664 0.14232694
v -0.67017233 1.6070429 0.7073057
v -0.67016935 1.686666 0.14232688
v -0.67016447 1.9357312 -0.24532618
v -0.67016554 1.9356526 -0.022847716
v -0.6701659 1.6858771 -0.30780628
v -0.67017925 0.24547452 -0.3078064
v -0.67017233 1.6070429 0.7073057
v -0.67016995 1.0774916 1.0964303
v -0.67017806 0.2454741 1.0964237
v -0.52471775 1.9357314 -0.24532552
v -0.52472264 1.6866664 0.14232694
v -0.52471876 1.9356532 -0.022846889
v -0.5247187 1.6858767 -0.30780596
v -0.5247244 0.24547434 -0.30780628
v -0.5247255 1.6070428 0.707306
v -0.52472323 1.0774914 1.0964305
v -0.5247237 0.24547426 1.096424
v -0.52471876 1.9356532 -0.022846889
v -0.67016447 1.9357312 -0.24532618
v -0.52471775 1.9357314 -0.24532552
v -0.67016554 1.9356526 -0.022847716
v 0.6695776 1.686666 0.14232704
v 0.52413464 1.9356529 -0.022847502
v 0.66958237 1.9356533 -0.022846777
v 0.5241303 1.6866664 0.142327
v 0.66957647 1.0774915 1.0964307
v 0.52412736 1.6070434 0.70730567
v 0.66957414 1.6070434 0.7073057
v 0.5241297 1.0774918 1.0964303
v 0.66957605 0.24547441 1.096424
v 0.5241297 1.0774918 1.0964303
v 0.66957647 1.0774915 1.0964307
v 0.5241473 0.24547426 1.0964237
v 0.66958195 1.6858766 -0.30780578
v 0.52414703 0.24547486 -0.30780622
v 0.6695753 0.24547476 -0.3078062
v 0.52413464 1.6858767 -0.30780607
v 0.5241356 1.9357313 -0.24532606
v 0.6695833 1.9357316 -0.24532531
v 0.66957414 1.6070434 0.7073057
v 0.5241303 1.6866664 0.142327
v 0.6695776 1.686666 0.14232704
v 0.52412736 1.6070434 0.70730567
v 0.5241303 1.6866664 0.142327
v 0.5241356 1.9357313 -0.24532606
v 0.52413464 1.9356529 -0.022847502
v 0.52413464 1.6858767 -0.30780607
v 0.52414703 0.24547486 -0.30780622
v 0.52412736 1.6070434 0.70730567
v 0.5241297 1.0774918 1.0964303
v 0.5241473 0.24547426 1.0964237
v 0.6695833 1.9357316 -0.24532531
v 0.6695776 1.686666 0.14232704
v 0.66958237 1.9356533 -0.022846777
v 0.66958195 1.6858766 -0.30780578
v 0.6695753 0.24547476 -0.3078062
v 0.66957414 1.6070434 0.7073057
v 0.66957647 1.0774915 1.0964307
v 0.66957605 0.24547441 1.096424
v 0.66958237 1.9356533 -0.022846777
v 0.5241356 1.9357313 -0.24532606
v 0.6695833 1.9357316 -0.24532531
v 0.52413464 1.9356529 -0.022847502
v -1.6139789 1.6093723 -0.033643983
v -1.6137357 1.6089416 0.4639025
v -1.6137357 0.35890463 0.4639028
v -1.6139789 1.5510322 -0.20866416
v -1.6139789 1.3760121 -0.26700425
v -1.6139789 0.35890463 -0.26700425
v -0.67017126 1.6093723 -0.033643667
v -1.6139789 1.5510322 -0.20866416
v -0.67017126 1.5513895 -0.20866387
v -1.6139789 1.6093723 -0.033643983
v -1.6137357 1.6089416 0.4639025
v -0.6701718 1.6093723 0.46323094
v -1.5498658 1.3760115 0.82676005
v -0.67017186 1.3760114 0.8267604
v -0.67017186 1.3760114 0.8267604
v -1.5090638 1.0774921 1.0581585
v -1.5498658 1.3760115 0.82676005
v -0.67017186 1.0774919 1.0581589
v -0.67017233 0.3589045 1.0581523
v -1.5090648 0.35890457 1.0581521
v -1.6137357 0.35890463 0.4639028
v -1.6137357 1.6089416 0.4639025
v -1.5498658 1.3760115 0.82676005
v -1.5090638 1.0774921 1.0581585
v -1.5090648 0.35890457 1.0581521
v 1.5024104 2.3288362 -0.26700363
v 1.5024099 2.562197 -0.0336438
v 1.5024104 2.503857 -0.2086637
v 1.5024089 2.3288362 0.8267606
v 1.5024099 2.5621963 0.4632311
v 1.5024089 2.0303168 0.95292133
v 1.502409 1.0774926 -0.26700205
v 1.5024089 1.7127088 0.97486496
v 1.5024089 1.0774926 1.0187522
v 0.66957366 2.030317 0.9529212
v 0.6695737 2.5621965 0.463231
v 0.66957366 2.3288362 0.82676053
v 0.66957515 2.5038571 -0.20866357
v 0.66957426 2.5621972 -0.03364377
v 0.6695753 2.3288367 -0.26700366
v 0.6695748 1.077493 -0.26700225
v 0.66957366 1.7127088 0.9748648
v 0.66957414 1.0774928 1.018752
v -0.5247251 1.2563281 0.82676023
v 0.52415067 1.077492 1.0581586
v -0.52472514 1.0774919 1.0581589
v 0.5241516 1.2563283 0.8267603
v -0.52472395 1.3763691 -0.267004
v 0.52415276 1.3760122 -0.26700383
v -0.52472514 1.0774919 1.0581589
v 0.52415013 0.24532872 1.3701926
v -0.52472615 0.24532865 1.3701924
v 0.52415067 1.077492 1.0581586
v -0.52472395 1.3763691 -0.267004
v 0.5241513 0.24546945 -0.26700395
v 0.52415276 1.3760122 -0.26700383
v -0.5247249 0.24546945 -0.2670041
v 0.52415276 1.3760122 -0.26700383
v 0.52415067 1.077492 1.0581586
v 0.5241516 1.2563283 0.8267603
v 0.5241513 0.24546945 -0.26700395
v 0.52415013 0.24532872 1.3701926
v -0.52472514 1.0774919 1.0581589
v -0.52472615 0.24532865 1.3701924
v -0.5247249 0.24546945 -0.2670041
v -0.52472395 1.3763691 -0.267004
v -0.5247251 1.2563281 0.82676023
v 0.66957515 0.35890505 0.086423516
v 1.3931603 1.0774926 0.0012557455
v 0.66957515 0.35890505 0.0012555209
v 1.3931603 1.0774926 0.08642373
v 1.3931602 1.0774926 0.6653265
v 0.66957504 0.35890505 0.75049424
v 1.3931602 1.0774926 0.75049454
v 0.6695751 0.35890505 0.6653261
v -1.0182406 0.9162981 -0.53021336
v -0.5247506 0.91629857 -1.1155407
v -1.0182405 0.9162986 -1.1155406
v -0.5247507 0.91629803 -0.5302135
v -0.972318 1.4872545 -0.530213
v -1.0182405 1.2997001 -1.1155403
v -0.97231793 1.2997001 -1.1155403
v -1.0182406 1.4872545 -0.53021294
v -0.972318 0.9656209 -0.53021336
v -1.0182406 1.4872545 -0.53021294
v -0.972318 1.4872545 -0.530213
v -1.0182406 0.9162981 -0.53021336
v -0.5247507 0.9656209 -0.53021336
v -0.5247507 0.91629803 -0.5302135
v -0.5247507 0.91629803 -0.5302135
v -0.5247506 0.9656214 -1.1155407
v -0.5247506 0.91629857 -1.1155407
v -0.5247507 0.9656209 -0.53021336
v -1.0182406 1.4872545 -0.53021294
v -1.0182405 0.9162986 -1.1155406
v -1.0182405 1.2997001 -1.1155403
v -1.0182406 0.9162981 -0.53021336
v -0.97231793 0.9656214 -1.1155405
v -0.5247506 0.91629857 -1.1155407
v -0.5247506 0.9656214 -1.1155407
v -1.0182405 0.9162986 -1.1155406
v -1.0182405 1.2997001 -1.1155403
v -0.97231793 1.2997001 -1.1155403
v -0.97231793 1.2997001 -1.1155403
v -0.972318 0.9656209 -0.53021336
v -0.972318 1.4872545 -0.530213
v -0.97231793 0.9656214 -1.1155405
v -0.8841019 0.8583176 -0.03364317
v -0.9441017 0.85831815 -1.0520895
v -0.94410187 0.8583176 -0.033643182
v -0.88410175 0.85831815 -1.0520895
v -0.73582417 0.85831803 -1.0520896
v -0.6758244 0.8583175 -0.033643197
v -0.6758243 0.85831803 -1.0520896
v -0.73582435 0.8583175 -0.03364321
v -0.88410175 0.9162986 -1.0520891
v -0.8841019 0.8583176 -0.03364317
v -0.8841019 0.9162981 -0.03364281
v -0.88410175 0.85831815 -1.0520895
v -0.94410187 0.9162981 -0.033642825
v -0.9441017 0.85831815 -1.0520895
v -0.9441017 0.9162986 -1.0520891
v -0.94410187 0.8583176 -0.033643182
v -0.9441017 0.9162986 -1.0520891
v -0.88410175 0.85831815 -1.0520895
v -0.88410175 0.9162986 -1.0520891
v -0.9441017 0.85831815 -1.0520895
v -0.73582435 0.91629803 -0.033642847
v -0.73582417 0.85831803 -1.0520896
v -0.73582417 0.91629857 -1.0520891
v -0.73582435 0.8583175 -0.03364321
v -0.73582417 0.91629857 -1.0520891
v -0.6758243 0.85831803 -1.0520896
v -0.6758243 0.91629857 -1.0520891
v -0.73582417 0.85831803 -1.0520896
v -0.6758243 0.91629857 -1.0520891
v -0.6758244 0.8583175 -0.033643197
v -0.6758244 0.91629803 -0.033642836
v -0.6758243 0.85831803 -1.0520896
v -0.6758243 0.91629857 -1.0520891
v -0.73582435 0.91629803 -0.033642847
v -0.73582417 0.91629857 -1.0520891
v -0.6758244 0.91629803 -0.033642836
v -0.94410187 0.9162981 -0.033642825
v -0.88410175 0.9162986 -1.0520891
v -0.8841019 0.9162981 -0.03364281
v -0.9441017 0.9162986 -1.0520891
v 1.0182407 0.9162981 -0.53021306
v 0.5241406 0.91629857 -1.1155406
v 0.5241405 0.91629803 -0.5302133
v 1.0182408 0.9162986 -1.1155404
v 0.9723182 1.4872545 -0.5302127
v 1.0182408 1.2997001 -1.11554
v 1.0182407 1.4872545 -0.53021264
v 0.97231823 1.2997001 -1.11554
v 1.0182407 1.4872545 -0.53021264
v 0.9723182 0.9656209 -0.53021306
v 0.9723182 1.4872545 -0.5302127
v 1.0182407 0.9162981 -0.53021306
v 0.5241405 0.9656209 -0.53021324
v 0.5241405 0.91629803 -0.5302133
v 0.5241405 0.91629803 -0.5302133
v 0.5241406 0.9656214 -1.1155406
v 0.5241405 0.9656209 -0.53021324
v 0.5241406 0.91629857 -1.1155406
v 1.0182407 1.4872545 -0.53021264
v 1.0182408 0.9162986 -1.1155404
v 1.0182407 0.9162981 -0.53021306
v 1.0182408 1.2997001 -1.11554
v 0.5241406 0.91629857 -1.1155406
v 0.97231823 0.9656214 -1.1155403
v 0.5241406 0.9656214 -1.1155406
v 1.0182408 0.9162986 -1.1155404
v 1.0182408 1.2997001 -1.11554
v 0.97231823 1.2997001 -1.11554
v 0.97231823 1.2997001 -1.11554
v 0.9723182 0.9656209 -0.53021306
v 0.97231823 0.9656214 -1.1155403
v 0.9723182 1.4872545 -0.5302127
v 0.8841019 0.8585521 0.0012463358
v 0.944102 0.85831815 -1.0520891
v 0.8841021 0.85831815 -1.0520891
v 0.94410187 0.8585521 0.0012463456
v 0.73582447 0.85831803 -1.0520893
v 0.6758244 0.8583175 0.0012462423
v 0.73582435 0.8583175 0.0012462521
v 0.6758246 0.85831803 -1.0520893
v 0.8841021 0.9162986 -1.0520887
v 0.8841019 0.8585521 0.0012463358
v 0.8841021 0.85831815 -1.0520891
v 0.8841019 0.91653264 0.001246696
v 0.94410187 0.91653264 0.0012467058
v 0.944102 0.85831815 -1.0520891
v 0.94410187 0.8585521 0.0012463456
v 0.944102 0.9162986 -1.0520887
v 0.944102 0.9162986 -1.0520887
v 0.8841021 0.85831815 -1.0520891
v 0.944102 0.85831815 -1.0520891
v 0.8841021 0.9162986 -1.0520887
v 0.73582435 0.91629803 0.0012466123
v 0.73582447 0.85831803 -1.0520893
v 0.73582435 0.8583175 0.0012462521
v 0.73582447 0.91629857 -1.0520889
v 0.73582447 0.91629857 -1.0520889
v 0.6758246 0.85831803 -1.0520893
v 0.73582447 0.85831803 -1.0520893
v 0.6758246 0.91629857 -1.0520889
v 0.6758246 0.91629857 -1.0520889
v 0.6758244 0.8583175 0.0012462423
v 0.6758246 0.85831803 -1.0520893
v 0.6758244 0.91629803 0.0012466025
v 0.6758246 0.91629857 -1.0520889
v 0.73582435 0.91629803 0.0012466123
v 0.6758244 0.91629803 0.0012466025
v 0.73582447 0.91629857 -1.0520889
v 0.94410187 0.91653264 0.0012467058
v 0.8841021 0.9162986 -1.0520887
v 0.944102 0.9162986 -1.0520887
v 0.8841019 0.91653264 0.001246696
v 1.4524103 2.3697743 -0.22394313
v 1.5524088 2.0933685 0.90561384
v 1.452409 2.0933685 0.90561366
v 1.5524104 2.3697743 -0.22394298
v 1.5524104 2.2726402 -0.24771203
v 1.452409 1.9962344 0.88184476
v 1.5524088 1.9962344 0.8818448
v 1.4524103 2.2726402 -0.24771218
v 1.5524104 2.3697743 -0.22394298
v 1.5524088 1.9962344 0.8818448
v 1.5524088 2.0933685 0.90561384
v 1.5524104 2.2726402 -0.24771203
v 1.452409 1.9962344 0.88184476
v 1.5524088 2.0933685 0.90561384
v 1.5524088 1.9962344 0.8818448
v 1.452409 2.0933685 0.90561366
v 1.5524104 2.3697743 -0.22394298
v 1.4524103 2.2726402 -0.24771218
v 1.5524104 2.2726402 -0.24771203
v 1.4524103 2.3697743 -0.22394313
v 0.7195866 2.3697743 -0.22394325
v 0.61958784 2.0933685 0.90561366
v 0.61958677 2.3697743 -0.22394313
v 0.71958774 2.0933685 0.9056136
v 0.61958677 2.2726402 -0.24771218
v 0.71958774 1.9962344 0.8818447
v 0.7195867 2.2726402 -0.2477123
v 0.61958784 1.9962344 0.8818447
v 0.61958677 2.3697743 -0.22394313
v 0.61958784 1.9962344 0.8818447
v 0.61958677 2.2726402 -0.24771218
v 0.61958784 2.0933685 0.90561366
v 0.71958774 1.9962344 0.8818447
v 0.61958784 2.0933685 0.90561366
v 0.71958774 2.0933685 0.9056136
v 0.61958784 1.9962344 0.8818447
v 0.61958677 2.3697743 -0.22394313
v 0.7195867 2.2726402 -0.2477123
v 0.7195866 2.3697743 -0.22394325
v 0.61958677 2.2726402 -0.24771218
v -0.5955112 2.6994376 0.8663006
v -1.7129966 1.9286431 1.3605909
v -1.7129966 2.4110153 0.5717033
v -0.5955112 2.2170656 1.6440808
v 0.8129668 2.2170649 1.3494651
v 0.8129668 2.699437 0.8663007
v 0.8129668 2.699437 0.57172203
v 0.8129668 2.2170646 1.6440809
v 0.8129668 0.24547799 1.7566305
v 0.8129668 0.24547802 2.051246
v 0.8129668 0.24547799 1.7566305
v 1.7267534 2.2170649 1.3494651
v 1.7267534 0.24547799 1.7566304
v 0.8129668 2.2170649 1.3494651
v 0.8129668 2.2170649 1.3494651
v 1.7267534 2.699437 0.5716948
v 1.7267534 2.2170649 1.3494651
v 0.8129668 2.699437 0.57172203
v -0.5955112 2.6994376 -1.7831082
v 0.60098934 2.699437 -0.3723036
v -0.5955112 2.6994376 -0.37230343
v 0.6790341 2.6994371 -1.7830751
v 1.7267534 2.6994371 -1.2500594
v 1.7267534 2.699437 0.5716948
v 0.8129668 2.699437 0.57172203
v 0.60098934 2.699437 0.8663007
v 0.8129668 2.699437 0.8663007
v -0.5955112 2.6994376 -1.7831082
v -0.5955112 2.6994376 -0.37230343
v -1.7129966 2.4110153 -1.2090328
v -1.7129966 2.4110153 0.5717033
v -0.5955112 2.6994376 0.8663006
v 1.7267534 2.699437 0.5716948
v 1.7267534 0.24547799 1.7566304
v 1.7267534 2.2170649 1.3494651
v 1.7267534 0.24547789 -1.2500591
v 1.7267534 2.6994371 -1.2500594
v 0.67904013 2.5936322 -1.7830731
v -0.5955112 2.6994376 -1.7831082
v -0.5955153 2.5943925 -1.7831082
v 0.6790341 2.6994371 -1.7830751
v -1.7129966 0.24547799 1.7081932
v -1.7129966 2.4110153 0.5717033
v -1.7129966 1.9286431 1.3605909
v -1.7129616 0.24547786 -1.2090448
v -1.7129966 2.4110153 -1.2090328
v 0.8129668 2.2170646 1.6440809
v 0.60098934 2.699437 0.8663007
v 0.8129668 2.699437 0.8663007
v 0.60098934 2.2170646 1.6440809
v -0.59551525 2.594392 0.8363387
v -0.5955112 2.6994376 -0.37230343
v -0.5955153 2.5946164 -0.37230346
v -0.5955112 2.6994376 0.8663006
v -0.59551525 2.1699226 1.5594038
v -0.5955112 2.2170656 1.6440808
v -0.59551144 0.7769289 1.9414935
v -0.5955153 0.7769291 1.8397524
v -0.5955112 2.6994376 -0.37230343
v 0.6009862 2.5943367 -0.37230363
v -0.5955153 2.5946164 -0.37230346
v 0.60098934 2.699437 -0.3723036
v 0.60098934 2.699437 -0.3723036
v 0.6009851 2.595041 0.5574292
v 0.6009862 2.5943367 -0.37230363
v 0.60098934 2.699437 0.8663007
v 0.6009851 2.1564832 1.2626717
v 0.60098934 2.2170646 1.6440809
v 0.6009798 0.7769289 1.8397994
v 0.60098183 0.7769289 1.9414929
v 0.6009851 0.24547802 1.6499825
v 0.600983 0.24547796 1.9467905
v 0.6009798 0.7769289 1.8397994
v -0.59551144 0.7769289 1.9414935
v -0.5955153 0.7769291 1.8397524
v 0.60098183 0.7769289 1.9414929
v -1.6136345 2.3346703 -1.2707145
v -1.7129616 0.24547786 -1.2090448
v -1.6136346 0.24547789 -1.2707145
v -1.7129966 2.4110153 -1.2090328
v 0.60098183 0.7769289 1.9414929
v -0.59551156 0.24547802 2.0512471
v -0.59551144 0.7769289 1.9414935
v 0.8129668 0.24547802 2.051246
v 0.8129668 2.2170646 1.6440809
v 0.60098934 2.2170646 1.6440809
v -0.59551144 0.7769289 1.9414935
v -1.7129966 1.9286431 1.3605909
v -0.5955112 2.2170656 1.6440808
v -1.7129966 0.24547799 1.7081932
v -0.59551156 0.24547802 2.0512471
v 1.6242541 0.24547802 1.6500108
v 1.7267534 0.24547789 -1.2500591
v 1.6242542 0.24547789 -1.3082929
v 1.7267534 0.24547799 1.7566304
v 0.6009851 0.24547802 1.6499825
v 0.8129668 0.24547799 1.7566305
v 0.600983 0.24547796 1.9467905
v 0.8129668 0.24547802 2.051246
v -0.5955153 0.24547796 1.9467105
v -0.59551156 0.24547802 2.0512471
v -1.6136347 0.24547802 1.6326318
v -1.7129966 0.24547799 1.7081932
v -1.6136346 0.24547789 -1.2707145
v -1.7129616 0.24547786 -1.2090448
v -1.6139789 0.35890463 -0.26700425
v -1.5140758 1.3760455 -0.2670042
v -1.6139789 1.3760121 -0.26700425
v -1.6139789 1.5510322 -0.20866416
v -0.67017126 1.5513895 -0.20866387
v -1.5080847 0.45425147 -0.2670042
v -1.0212892 1.3762068 -0.26700413
v -0.6701716 0.35890472 -0.26700407
v -0.6701712 1.3763691 -0.26700398
v -1.0182828 0.45426673 -0.26700416
v -1.018283 0.45426658 0.46323198
v -1.5140758 1.3760457 0.46323183
v -1.5080847 0.45425132 0.4632318
v -1.0212895 1.3762068 0.46323192
v -1.5140758 1.3760455 -0.2670042
v -1.0212895 1.3762068 0.46323192
v -1.0212892 1.3762068 -0.26700413
v -1.5140758 1.3760457 0.46323183
v -1.0212892 1.3762068 -0.26700413
v -1.018283 0.45426658 0.46323198
v -1.0182828 0.45426673 -0.26700416
v -1.0212895 1.3762068 0.46323192
v -1.0182828 0.45426673 -0.26700416
v -1.5080847 0.45425132 0.4632318
v -1.5080847 0.45425147 -0.2670042
v -1.018283 0.45426658 0.46323198
v -1.5080847 0.45425147 -0.2670042
v -1.5140758 1.3760457 0.46323183
v -1.5140758 1.3760455 -0.2670042
v -1.5080847 0.45425132 0.4632318
v 1.5024089 1.0774926 1.0187522
v 0.6695748 1.077493 -0.26700225
v 0.66957414 1.0774928 1.018752
v 1.502409 1.0774926 -0.26700205
v -0.6701716 0.35890472 -0.26700407
v -1.5090648 0.35890457 1.0581521
v -0.67017233 0.3589045 1.0581523
v -1.6137357 0.35890463 0.4639028
v -1.6139789 0.35890463 -0.26700425
v 0.6009862 2.5943367 -0.37230363
v -0.5955153 2.5943925 -1.7831082
v -0.5955153 2.5946164 -0.37230346
v 0.67904013 2.5936322 -1.7830731
v 1.6242542 2.5936322 -1.3082929
v 0.6009851 2.595041 0.5574292
v 1.6242542 2.5948596 0.5574267
v -0.59551525 2.594392 0.8363387
v -1.6136346 1.8962173 1.299699
v -0.59551525 2.1699226 1.5594038
v -1.6136346 2.3346741 0.58739007
v -0.5955153 2.5946164 -0.37230346
v -1.6136346 2.3346741 0.58739007
v -0.59551525 2.594392 0.8363387
v -1.6136345 2.3346703 -1.2707145
v -0.5955153 2.5943925 -1.7831082
v -0.5955153 0.7769291 1.8397524
v -1.6136347 0.24547802 1.6326318
v -0.5955153 0.24547796 1.9467105
v -1.6136346 1.8962173 1.299699
v -0.59551525 2.1699226 1.5594038
v 0.6009851 2.1564832 1.2626717
v 1.6242542 2.5948596 0.5574267
v 0.6009851 2.595041 0.5574292
v 1.6242541 2.1564832 1.2627165
v 1.6242541 0.24547802 1.6500108
v 1.6242542 2.5948596 0.5574267
v 1.6242541 2.1564832 1.2627165
v 1.6242542 0.24547789 -1.3082929
v 1.6242542 2.5936322 -1.3082929
v -1.6136346 2.3346741 0.58739007
v -1.6136347 0.24547802 1.6326318
v -1.6136346 1.8962173 1.299699
v -1.6136346 0.24547789 -1.2707145
v -1.6136345 2.3346703 -1.2707145
v 0.6009851 2.1564832 1.2626717
v 1.6242541 0.24547802 1.6500108
v 1.6242541 2.1564832 1.2627165
v 0.6009851 0.24547802 1.6499825
v -0.5955153 0.7769291 1.8397524
v 0.600983 0.24547796 1.9467905
v 0.6009798 0.7769289 1.8397994
v -0.5955153 0.24547796 1.9467105
v -0.97231793 0.9656214 -1.1155405
v -0.5247507 0.9656209 -0.53021336
v -0.972318 0.9656209 -0.53021336
v -0.5247506 0.9656214 -1.1155407
v 0.97231823 0.9656214 -1.1155403
v 0.5241405 0.9656209 -0.53021324
v 0.5241406 0.9656214 -1.1155406
v 0.9723182 0.9656209 -0.53021306
v -1.2302763 0.24547306 -0.9811288
v 1.859665E-05 0.24547309 -1.2278443E-07
v -1.5341347 0.24547292 -0.3501605
v -0.6827437 0.24547315 -1.4177715
v -1.5341357 0.2454728 0.3501609
v 1.8853023E-05 0.24547328 -1.5736085
v -1.2302767 0.24547279 0.9811276
v 0.6827838 0.24547334 -1.4177716
v -0.6827452 0.24547285 1.4177716
v 1.2303144 0.24547336 -0.9811287
v 1.8340274E-05 0.24547286 1.5736068
v 1.5341716 0.24547334 -0.3501606
v 0.682781 0.24547304 1.4177719
v 1.5341716 0.24547327 0.35016128
v 1.230314 0.24547313 0.9811282
v -0.68274426 -4.1747253E-06 -1.4177719
v 1.8626622E-05 -2.4357864E-06 -2.1253314E-07
v 1.8853021E-05 -4.0558566E-06 -1.5736082
v -1.230277 -3.5381604E-06 -0.98112875
v 0.68278337 -3.3950964E-06 -1.4177717
v -1.5341357 -3.2629493E-06 -0.3501605
v 1.2303153 -1.0705282E-06 -0.9811287
v -1.5341357 -3.1648153E-06 0.35016027
v 1.5341725 -2.0708565E-06 -0.35016066
v -1.2302777 -2.229185E-06 0.98112774
v 1.5341725 -2.1563048E-06 0.35016066
v -0.68274474 -1.6283828E-06 1.4177715
v 1.230314 -9.22651E-07 0.9811282
v 1.8340275E-05 -1.37055E-06 1.5736068
v 0.682781 -1.0609466E-06 1.4177719
vt 0.5211258 0.5163103
vt 0.51013666 0.50543284
vt 0.5101366 0.5163103
vt 0.48986334 0.5163103
vt 0.48986334 0.50543284
vt 0.4788742 0.5163103
vt 0.4898634 0.5163103
vt 0.4898634 0.50543284
vt 0.4788742 0.5163103
vt 0.5211258 0.5163103
vt 0.5101366 0.50543284
vt 0.5101366 0.5163103
vt 0.47380787 0.540862
vt 0.48971957 0.53926045
vt 0.4753645 0.53926045
vt 0.48971957 0.53926045
vt 0.47380787 0.540862
vt 0.48971963 0.540862
vt 0.4753645 0.53926045
vt 0.47380787 0.5037158
vt 0.4753645 0.5037158
vt 0.5260476 0.5364961
vt 0.50907636 0.53927195
vt 0.50907624 0.540862
vt 0.50907636 0.53927195
vt 0.5260476 0.5364961
vt 0.52453864 0.5353405
vt 0.5187166 0.49999994
vt 0.5104011 0.50371575
vt 0.5187165 0.50371575
vt 0.5104011 0.4999999
vt 0.50003195 0.50371575
vt 0.50003195 0.4999999
vt 0.4896627 0.50371575
vt 0.4896627 0.49999994
vt 0.48134732 0.50371575
vt 0.48134732 0.49999997
vt -2.4781287 0.50371575
vt -2.468595 0.49999994
vt -2.4781287 0.49999994
vt -2.468595 0.50371575
vt -2.4580135 0.49999994
vt -2.4580135 0.50371575
vt -2.44848 0.49999994
vt -2.44848 0.50371575
vt 0.4812834 0.50371575
vt 0.4895988 0.49999997
vt 0.4812834 0.49999994
vt 0.48959878 0.50371575
vt 0.49996796 0.49999997
vt 0.49996796 0.50371575
vt 0.5103372 0.49999997
vt 0.5103372 0.50371575
vt 0.5186526 0.49999997
vt 0.5186526 0.50371575
vt 3.44848 0.50371575
vt 3.4580135 0.49999994
vt 3.44848 0.49999997
vt 3.4580135 0.50371575
vt 3.468595 0.49999994
vt 3.468595 0.50371575
vt 3.4781287 0.49999997
vt 3.4781287 0.50371575
vt 0.51555735 3.456305
vt 0.5173642 3.4508123
vt 0.5155573 3.4508123
vt 0.5173642 3.456305
vt 0.52278495 3.4638126
vt 0.52097803 3.456305
vt 0.52278495 3.456305
vt 0.52278495 3.4508123
vt 0.52097803 3.4508123
vt 0.5101366 3.4638126
vt 0.5119435 3.456305
vt 0.51013666 3.4664571
vt 0.522785 3.4664571
vt 0.5101366 3.456305
vt 0.5119435 3.4508123
vt 0.5101366 3.4508123
vt 0.5173642 0.5307334
vt 0.5155573 0.53525215
vt 0.5173642 0.53525215
vt 0.5155573 0.5307334
vt 0.5155573 0.5259257
vt 0.5173642 0.5259257
vt 0.5101366 0.5163103
vt 0.5119435 0.5259257
vt 0.52278495 0.5163103
vt 0.5101366 0.5259257
vt 0.52097803 0.5259257
vt 0.52278495 0.5259257
vt 0.5119435 0.5307334
vt 0.5101366 0.5307334
vt 0.5101366 0.53525215
vt 0.5119435 0.53525215
vt 0.52278495 0.5307334
vt 0.52097803 0.5307334
vt 0.52097803 0.53525215
vt 0.52278495 0.53525215
vt 0.48986334 0.53525215
vt 0.477215 0.53790146
vt 0.48986334 0.53790146
vt 0.477215 0.53525215
vt 0.48986334 0.5163103
vt 0.47721505 0.5163103
vt 0.49199873 0.5255315
vt 0.4897899 0.52930045
vt 0.4919988 0.52930045
vt 0.4897898 0.5255315
vt 0.4919987 0.5163102
vt 0.48978975 0.5243262
vt 0.49199867 0.5243262
vt 0.48978978 0.5163102
vt 0.4919987 0.5037158
vt 0.48978978 0.5163102
vt 0.4919987 0.5163102
vt 0.48978966 0.50371575
vt 0.5080012 0.5255195
vt 0.5102103 0.5037158
vt 0.50800127 0.5037158
vt 0.5102101 0.5255195
vt 0.5102101 0.52930164
vt 0.5080012 0.52930164
vt 0.49199867 3.4526172
vt 0.4897898 3.4611537
vt 0.49199873 3.4611537
vt 0.48978975 3.4526172
vt -2.4611537 0.5255315
vt -2.467011 0.52930164
vt -2.4636495 0.52930045
vt -2.467955 0.5255195
vt -2.467955 0.5037158
vt -2.4526172 0.5243262
vt -2.4467378 0.5163102
vt -2.446738 0.50371575
vt 3.467011 0.52930164
vt 3.4611537 0.5255315
vt 3.4636495 0.52930045
vt 3.467955 0.5255195
vt 3.467955 0.5037158
vt 3.4526172 0.5243262
vt 3.4467378 0.5163102
vt 3.446738 0.5037158
vt 0.4919988 3.4636495
vt 0.4897899 3.467011
vt 0.49199882 3.467011
vt 0.4897899 3.4636495
vt 0.51013666 0.5255315
vt 0.50792783 0.52930045
vt 0.5101367 0.52930045
vt 0.5079278 0.5255315
vt 0.5101366 0.5163102
vt 0.5079277 0.5243262
vt 0.5101366 0.5243262
vt 0.5079277 0.5163102
vt 0.5101366 0.5037158
vt 0.5079277 0.5163102
vt 0.5101366 0.5163102
vt 0.50792795 0.5037158
vt 0.48986322 0.5255195
vt 0.492072 0.5037158
vt 0.48986334 0.5037158
vt 0.49207217 0.5255195
vt 0.49207217 0.52930164
vt 0.48986322 0.52930164
vt 0.5101366 3.4526172
vt 0.5079278 3.4611537
vt 0.51013666 3.4611537
vt 0.5079277 3.4526172
vt -2.4611537 0.5255315
vt -2.467011 0.52930164
vt -2.4636495 0.52930045
vt -2.467955 0.5255195
vt -2.467955 0.5037158
vt -2.4526172 0.5243262
vt -2.4467378 0.5163102
vt -2.4467378 0.5037158
vt 3.467011 0.52930164
vt 3.4611537 0.5255315
vt 3.4636495 0.52930045
vt 3.467955 0.5255195
vt 3.467955 0.5037158
vt 3.4526172 0.5243262
vt 3.4467378 0.5163102
vt 3.4467378 0.5037158
vt 0.5101367 3.4636495
vt 0.50792783 3.467011
vt 0.5101368 3.467011
vt 0.50792783 3.4636495
vt -2.4638126 0.52436143
vt -2.456295 0.52435493
vt -2.456295 0.5054328
vt -2.4664571 0.5234783
vt -2.4673386 0.520829
vt -2.4673386 0.5054328
vt 0.4897898 3.4638126
vt 0.47545612 3.4664571
vt 0.4897898 3.4664571
vt 0.47545612 3.4638126
vt 0.47545978 3.456295
vt 0.48978978 3.456305
vt 0.4764298 3.4508123
vt 0.48978975 3.4508123
vt 0.48978975 0.520829
vt 0.47704944 0.5163103
vt 0.4764298 0.520829
vt 0.48978975 0.5163102
vt 0.48978975 0.5054328
vt 0.4770494 0.5054328
vt -2.456295 0.5054328
vt -2.456295 0.52435493
vt -2.4508123 0.520829
vt -2.4473162 0.5163103
vt -2.4473162 0.5054328
vt 3.4673386 0.53525215
vt 3.4638126 0.53878456
vt 3.4664571 0.53790146
vt 3.4508123 0.53525215
vt 3.456305 0.53878456
vt 3.4489062 0.5307334
vt 3.4673386 0.5163103
vt 3.4485745 0.5259257
vt 3.4479115 0.5163103
vt -2.4489062 0.5307334
vt -2.456305 0.53878456
vt -2.4508123 0.53525215
vt -2.4664571 0.53790146
vt -2.4638126 0.5387846
vt -2.4673386 0.53525215
vt -2.4673386 0.5163103
vt -2.4485745 0.5259257
vt -2.4479115 0.5163103
vt 0.49199867 3.4508123
vt 0.507928 3.4473162
vt 0.49199867 3.4473162
vt 0.5079281 3.4508123
vt 0.49199873 3.4673386
vt 0.50792813 3.4673386
vt 0.49199867 0.5163102
vt 0.507928 0.5037136
vt 0.49199864 0.5037136
vt 0.507928 0.5163102
vt 0.50800127 0.52083445
vt 0.49207193 0.5037157
vt 0.49207187 0.520829
vt 0.50800127 0.5037157
vt 3.4673386 0.520829
vt 3.4473162 0.5163102
vt 3.4508123 0.51901734
vt 3.4673386 0.5037157
vt 3.4426014 0.5037136
vt -2.4473162 0.5163102
vt -2.4426014 0.5037136
vt -2.4673386 0.5037157
vt -2.4673386 0.52083445
vt -2.4508123 0.51901734
vt 0.48986334 3.4619985
vt 0.4788742 3.4632852
vt 0.48986334 3.4632852
vt 0.4788742 3.4619985
vt 0.4788742 3.4532516
vt 0.4898634 3.4519646
vt 0.4788742 3.4519646
vt 0.4898634 3.4532516
vt 0.5154964 3.4713156
vt 0.5080017 3.4801595
vt 0.5154963 3.4801595
vt 0.5080017 3.4713156
vt 0.4852011 3.4713156
vt 0.4845037 3.4801595
vt 0.48520112 3.4801595
vt 0.48450366 3.4713156
vt 0.4852011 0.51461685
vt 0.48450366 0.5225129
vt 0.4852011 0.5225129
vt 0.48450366 0.51387024
vt 0.49199834 0.51461685
vt 0.49199834 0.51387024
vt 3.4713156 0.51387024
vt 3.4801595 0.51461685
vt 3.4801595 0.51387024
vt 3.4713156 0.51461685
vt -2.4713156 0.5225129
vt -2.4801595 0.51387024
vt -2.4801595 0.5196739
vt -2.4713156 0.51387024
vt 0.5147989 0.51461685
vt 0.5080017 0.51387024
vt 0.5080017 0.51461685
vt 0.5154963 0.51387024
vt 0.5154963 0.5196739
vt 0.5147989 0.5196739
vt 3.4801595 0.5196739
vt 3.4713156 0.51461685
vt 3.4713156 0.5225129
vt 3.4801595 0.51461685
vt 0.5134592 3.4638126
vt 0.5143703 3.4792008
vt 0.51437044 3.4638126
vt 0.51345915 3.4792008
vt 0.5112072 3.4792008
vt 0.51029605 3.4638126
vt 0.510296 3.4792008
vt 0.5112073 3.4638126
vt 3.4792008 0.51387024
vt 3.4638126 0.51299256
vt 3.4638126 0.51387024
vt 3.4792008 0.51299256
vt -2.4638126 0.51387024
vt -2.4792008 0.51299256
vt -2.4792008 0.51387024
vt -2.4638126 0.51299256
vt 0.5143703 0.51387024
vt 0.51345915 0.51299256
vt 0.51345915 0.51387024
vt 0.5143703 0.51299256
vt -2.4638126 0.51387024
vt -2.4792008 0.51299256
vt -2.4792008 0.51387024
vt -2.4638126 0.51299256
vt 0.5112072 0.51387024
vt 0.510296 0.51299256
vt 0.510296 0.51387024
vt 0.5112072 0.51299256
vt 3.4792008 0.51387024
vt 3.4638126 0.51299256
vt 3.4638126 0.51387024
vt 3.4792008 0.51299256
vt 0.48970398 3.4792008
vt 0.48879272 3.4638126
vt 0.48879278 3.4792008
vt 0.48970395 3.4638126
vt 0.4856296 3.4638126
vt 0.48654085 3.4792008
vt 0.48654082 3.4638126
vt 0.48562965 3.4792008
vt 0.48456812 3.4713156
vt 0.49207205 3.4801595
vt 0.49207205 3.4713156
vt 0.48456812 3.4801595
vt 0.51473445 3.4713156
vt 0.5154319 3.4801595
vt 0.5154319 3.4713156
vt 0.51473445 3.4801595
vt 0.5154319 0.5225129
vt 0.51473445 0.51461685
vt 0.51473445 0.5225129
vt 0.5154319 0.51387024
vt 0.50792795 0.51461685
vt 0.50792795 0.51387024
vt -2.4713156 0.51387024
vt -2.4801595 0.51461685
vt -2.4713156 0.51461685
vt -2.4801595 0.51387024
vt 3.4713156 0.5225129
vt 3.4801595 0.51387024
vt 3.4713156 0.51387024
vt 3.4801595 0.5196739
vt 0.49207205 0.51387024
vt 0.48526555 0.51461685
vt 0.49207205 0.51461685
vt 0.48456812 0.51387024
vt 0.48456812 0.5196739
vt 0.48526555 0.5196739
vt -2.4801595 0.5196739
vt -2.4713156 0.51461685
vt -2.4801595 0.51461685
vt -2.4713156 0.5225129
vt 0.48660535 3.4632854
vt 0.48569405 3.4792008
vt 0.4866053 3.4792008
vt 0.4856941 3.4632854
vt 0.4888572 3.4792008
vt 0.48976845 3.4632854
vt 0.4888572 3.4632854
vt 0.4897684 3.4792008
vt -2.4792008 0.51387024
vt -2.4632854 0.5129961
vt -2.4792008 0.51299256
vt -2.4632854 0.51387376
vt 3.4632854 0.51387376
vt 3.4792008 0.51299256
vt 3.4632854 0.5129961
vt 3.4792008 0.51387024
vt 0.48569405 0.51387024
vt 0.4866053 0.51299256
vt 0.48569405 0.51299256
vt 0.4866053 0.51387024
vt 3.4632854 0.51387024
vt 3.4792008 0.51299256
vt 3.4632854 0.51299256
vt 3.4792008 0.51387024
vt 0.4888572 0.51387024
vt 0.4897684 0.51299256
vt 0.4888572 0.51299256
vt 0.4897684 0.51387024
vt -2.4792008 0.51387024
vt -2.4632854 0.51299256
vt -2.4792008 0.51299256
vt -2.4632854 0.51387024
vt 0.5102316 3.4792008
vt 0.5111428 3.4632854
vt 0.51023155 3.4632854
vt 0.5111428 3.4792008
vt 0.5143059 3.4632854
vt 0.5133947 3.4792008
vt 0.51430595 3.4792008
vt 0.51339465 3.4632854
vt 0.52202564 3.466688
vt 0.5235443 3.449621
vt 0.5220256 3.449621
vt 0.5235444 3.466688
vt 0.47645563 3.467047
vt 0.4779744 3.44998
vt 0.4764557 3.44998
vt 0.47797436 3.467047
vt 3.466688 0.53587186
vt 3.44998 0.53021747
vt 3.449621 0.5316878
vt 3.467047 0.5344015
vt 0.5220256 0.53021747
vt 0.5235443 0.5316878
vt 0.5235443 0.53021747
vt 0.5220256 0.5316878
vt 0.47645563 0.53587186
vt 0.47797436 0.5344015
vt 0.47645563 0.5344015
vt 0.47797436 0.53587186
vt 0.5108962 3.466688
vt 0.5093775 3.449621
vt 0.5093775 3.466688
vt 0.51089615 3.449621
vt 0.49062252 3.467047
vt 0.48910385 3.44998
vt 0.4891038 3.467047
vt 0.49062252 3.44998
vt -2.466688 0.53587186
vt -2.44998 0.53021747
vt -2.467047 0.5344015
vt -2.449621 0.5316878
vt 0.51089615 0.53021747
vt 0.5093775 0.5316878
vt 0.51089615 0.5316878
vt 0.5093775 0.53021747
vt 0.49062252 0.53587186
vt 0.4891038 0.5344015
vt 0.4891038 0.53587186
vt 0.49062252 0.5344015
vt 0.49092364 3.4502149
vt 0.4739523 3.4427464
vt 0.4739523 3.4546661
vt 0.4909236 3.438463
vt 3.4429145 0.5335602
vt 3.4502149 0.540862
vt 3.454666 0.540862
vt 3.438463 0.5335602
vt 3.4367626 0.5037158
vt 3.432311 0.5037158
vt 0.51231426 0.5037158
vt 0.52619207 0.5335602
vt 0.526192 0.5037158
vt 0.5123143 0.5335602
vt 0.5123143 3.4429145
vt 0.52619207 3.4546664
vt 0.52619207 3.4429145
vt 0.5123143 3.454666
vt 0.49092373 3.490246
vt 0.509095 3.4689295
vt 0.49092367 3.4689295
vt 0.5102804 3.4902456
vt 0.5261921 3.482192
vt 0.52619207 3.4546664
vt 0.5123143 3.454666
vt 0.509095 3.4502149
vt 0.5123143 3.4502149
vt 0.49092373 3.490246
vt 0.49092367 3.4689295
vt 0.47395238 3.4815722
vt 0.4739523 3.4546661
vt 0.49092364 3.4502149
vt 3.4546664 0.540862
vt 3.4367626 0.5037158
vt 3.4429145 0.5335602
vt 3.482192 0.5037158
vt 3.482192 0.540862
vt 0.48971957 0.53926045
vt 0.50907624 0.540862
vt 0.50907636 0.53927195
vt 0.48971963 0.540862
vt -2.4374943 0.5037158
vt -2.4546661 0.5364961
vt -2.4427464 0.52919436
vt -2.4815724 0.5037158
vt -2.4815722 0.5364961
vt 0.51231426 3.438463
vt 0.509095 3.4502149
vt 0.5123143 3.4502149
vt 0.50909495 3.438463
vt 3.4506676 0.53927195
vt 3.4689295 0.540862
vt 3.4689295 0.53927535
vt 3.4502149 0.540862
vt 3.4397426 0.5328466
vt 3.438463 0.5335603
vt 3.4339693 0.51176053
vt 3.4355066 0.51176053
vt 0.49092367 0.540862
vt 0.509095 0.5392711
vt 0.4909236 0.53927535
vt 0.509095 0.540862
vt -2.4689295 0.540862
vt -2.454882 0.5392818
vt -2.4689295 0.5392711
vt -2.4502149 0.540862
vt -2.444226 0.5326432
vt -2.438463 0.5335602
vt -2.4355059 0.51176053
vt -2.4339693 0.51176053
vt -2.4383738 0.5037158
vt -2.4338894 0.5037158
vt 0.50909483 3.4355059
vt 0.4909236 3.4339693
vt 0.49092355 3.4355066
vt 0.50909483 3.4339693
vt 0.52453864 0.5353405
vt 0.5260471 0.5037158
vt 0.52453864 0.5037158
vt 0.5260476 0.5364961
vt 0.50909483 0.51176053
vt 0.49092358 0.5037158
vt 0.4909236 0.51176053
vt 0.51231426 0.5037158
vt 0.51231426 0.5335602
vt 0.50909495 0.5335602
vt 0.4909236 0.51176053
vt 0.4739523 0.52919436
vt 0.4909236 0.5335603
vt 0.47395226 0.5037158
vt 0.49092358 0.5037158
vt 0.47536463 3.4383736
vt 0.47380787 3.482192
vt 0.4753645 3.4830718
vt 0.473808 3.4367626
vt 0.4909051 3.4383738
vt 0.48768574 3.4367626
vt 0.49090517 3.4338894
vt 0.48768574 3.432311
vt 0.5090765 3.4338906
vt 0.5090764 3.432311
vt 0.52453876 3.438636
vt 0.5260477 3.4374943
vt 0.52453864 3.4825041
vt 0.5260471 3.4815724
vt 0.5245439 0.5054328
vt 0.52302665 0.5208295
vt 0.5245439 0.520829
vt 0.5245439 0.5234783
vt 0.51021016 0.52348375
vt 0.5229356 0.5068761
vt 0.5155426 0.52083194
vt 0.51021016 0.5054328
vt 0.51021016 0.52083445
vt 0.51549697 0.50687635
vt 0.515497 0.50687635
vt 0.5230267 0.5208295
vt 0.5229357 0.5068761
vt 0.5155427 0.52083194
vt 0.52302665 3.4673386
vt 0.5155427 3.456305
vt 0.5155426 3.4673386
vt 0.5230267 3.456305
vt -2.4673386 0.52083194
vt -2.456305 0.50687635
vt -2.4673386 0.50687635
vt -2.456305 0.52083194
vt 0.484503 3.4673386
vt 0.4770643 3.456305
vt 0.47706434 3.4673386
vt 0.48450297 3.456305
vt 3.4673386 0.5068761
vt 3.456305 0.5208295
vt 3.4673386 0.5208295
vt 3.456305 0.5068761
vt 0.47721505 3.4479115
vt 0.48986334 3.4673386
vt 0.4898634 3.4479115
vt 0.47721505 3.4673386
vt 0.51021016 3.4673386
vt 0.5229506 3.4473162
vt 0.5102103 3.4473162
vt 0.5245402 3.456295
vt 0.5245439 3.4673386
vt 0.490905 3.4689295
vt 0.50907636 3.490246
vt 0.50907636 3.4689295
vt 0.48971957 3.4902456
vt 0.4753645 3.4830718
vt 0.49090505 3.454882
vt 0.47536457 3.454882
vt 0.5090764 3.4506676
vt 0.5245387 3.4436665
vt 0.5090765 3.4397426
vt 0.52453864 3.4544291
vt 0.50907636 3.4689295
vt 0.52453864 3.4544291
vt 0.5090764 3.4506676
vt 0.52453864 3.4825041
vt 0.50907636 3.490246
vt 0.5090765 0.51176053
vt 0.52453876 0.5037158
vt 0.5090765 0.5037158
vt 0.5245387 0.5287035
vt 0.5090765 0.5328466
vt 0.4909051 3.444226
vt 0.47536457 3.454882
vt 0.49090505 3.454882
vt 0.47536463 3.4442253
vt -2.4383736 0.5037158
vt -2.454882 0.539279
vt -2.4442253 0.5326432
vt -2.4830718 0.5037158
vt -2.4830718 0.53926045
vt 3.4544291 0.53534055
vt 3.438636 0.5037158
vt 3.4436665 0.5287035
vt 3.4825041 0.5037158
vt 3.4825041 0.5353405
vt 0.4909051 0.5326432
vt 0.47536463 0.5037158
vt 0.47536463 0.5326432
vt 0.4909051 0.5037158
vt 0.5090765 0.51176053
vt 0.49090517 0.5037158
vt 0.49090517 0.51176053
vt 0.5090765 0.5037158
vt 0.48520112 3.4801595
vt 0.49199834 3.4713156
vt 0.4852011 3.4713156
vt 0.49199834 3.4801595
vt 0.51473445 3.4801595
vt 0.50792795 3.4713156
vt 0.50792795 3.4801595
vt 0.51473445 3.4713156
vt 0.4812835 3.4781287
vt 0.49996802 3.4633043
vt 0.47666872 3.468595
vt 0.4895989 3.4847262
vt 0.4766687 3.4580135
vt 0.49996808 3.4870806
vt 0.4812834 3.44848
vt 0.5103373 3.484726
vt 0.48959878 3.4418826
vt 0.5186527 3.4781287
vt 0.49996796 3.439528
vt 0.5232673 3.468595
vt 0.5103372 3.4418824
vt 0.5232673 3.4580135
vt 0.5186526 3.44848
vt 0.5104011 3.4847262
vt 0.50003195 3.4633043
vt 0.50003195 3.4870806
vt 0.5187166 3.4781287
vt 0.4896627 3.4847262
vt 0.5233313 3.468595
vt 0.48134732 3.4781287
vt 0.5233313 3.4580135
vt 0.4767326 3.468595
vt 0.5187166 3.44848
vt 0.47673267 3.4580135
vt 0.5104012 3.4418826
vt 0.48134738 3.44848
vt 0.50003207 3.439528
vt 0.48966283 3.4418824
vn -1.9769766E-07 0 1
vn -1.9769766E-07 0 1
vn -1.9769764E-07 0 1
vn 1.8946024E-07 1.2193209E-07 -1
vn 1.8946025E-07 1.219321E-07 -1
vn 1.8946024E-07 1.219321E-07 -1
vn 3.1631603E-07 1.0617243E-07 -1
vn 3.16316E-07 1.0617243E-07 -1
vn 3.1631603E-07 1.06172436E-07 -1
vn -3.16316E-07 -1.0617245E-07 1
vn -3.16316E-07 -1.06172436E-07 1
vn -3.16316E-07 -1.06172436E-07 1
vn 0.4481292 0.056902062 -0.89215606
vn 0.4481292 0.056902055 -0.89215606
vn 0.4481292 0.05690207 -0.89215606
vn 0.453434 9.120043E-06 -0.89128983
vn 0.453434 9.120043E-06 -0.89128983
vn 0.45343393 9.120042E-06 -0.89128983
vn 0.49398068 0 -0.86947286
vn 0.49398068 0 -0.86947286
vn 0.49398068 0 -0.86947286
vn -0.45695415 1.7921799E-05 -0.88949025
vn -0.4569542 1.79218E-05 -0.88949025
vn -0.45695415 1.7921802E-05 -0.88949025
vn -0.46766362 0.100818895 -0.878138
vn -0.46766362 0.1008189 -0.878138
vn -0.46766362 0.100818895 -0.878138
vn -0.7818314 1.6943981E-06 -0.62349
vn -0.43388426 2.4368412E-06 -0.9009686
vn -0.78183115 1.6761264E-06 -0.62349033
vn -0.43388456 2.237251E-06 -0.90096843
vn -0 -8.563727E-07 -1
vn -0 -1.0887504E-06 -1
vn 0.43388492 -4.03509E-07 -0.9009683
vn 0.43388402 1.027159E-07 -0.90096873
vn 0.78183204 2.8071508E-06 -0.6234891
vn 0.7818324 3.1429547E-06 -0.6234887
vn -0.78183115 1.6761264E-06 -0.62349033
vn -0.9749279 3.4671298E-06 -0.22252095
vn -0.7818314 1.6943981E-06 -0.62349
vn -0.9749278 3.225557E-06 -0.22252123
vn -0.9749281 -1.427418E-07 0.22252005
vn -0.9749279 0 0.22252089
vn -0.7818315 2.9973507E-06 0.62348974
vn -0.78183115 3.034223E-06 0.62349033
vn -0.78183115 3.034223E-06 0.62349033
vn -0.4338841 -8.568936E-07 0.90096873
vn -0.7818315 2.9973507E-06 0.62348974
vn -0.43388447 -1.2567765E-06 0.90096855
vn -1.556853E-07 -1.1238197E-07 1
vn -0 0 1
vn 0.43388325 0 0.9009691
vn 0.4338833 0 0.9009691
vn 0.78183156 0 0.6234897
vn 0.78183156 2.5112766E-07 0.6234897
vn 0.78183156 2.5112766E-07 0.6234897
vn 0.97492796 2.8316979E-06 0.22252035
vn 0.78183156 0 0.6234897
vn 0.9749278 3.0828212E-06 0.22252123
vn 0.9749281 3.7052603E-06 -0.22252005
vn 0.97492796 3.7212408E-06 -0.22252034
vn 0.7818324 3.1429547E-06 -0.6234887
vn 0.78183204 2.8071508E-06 -0.6234891
vn 5.445349E-07 0.9595657 0.28148454
vn -0 0.64420635 0.76485175
vn -0 0.64420617 0.76485187
vn -0 0.9595657 0.28148445
vn 1.7273537E-07 0.9870875 -0.16018185
vn -0 0.9595657 0.28148454
vn -0 0.9595658 0.2814843
vn -0 0.6442065 0.76485157
vn -0 0.64420635 0.76485175
vn 4.4301675E-07 0.9870875 -0.16018182
vn 5.598576E-07 0.9595657 0.2814845
vn 1.19050746E-07 0.7071069 -0.7071066
vn 1.2776688E-07 0.70710593 -0.7071076
vn -0 0.9595657 0.28148493
vn -1.7704166E-07 0.64420617 0.764852
vn -4.904625E-07 0.64420617 0.76485187
vn -1.9284616E-07 0.2322764 0.9726499
vn -0 0.64420617 0.76485187
vn -0 0.64420635 0.76485175
vn -0 0.23227626 0.9726499
vn -3.3547116E-07 0.06892596 0.9976217
vn -3.4962423E-07 0.068926014 0.9976217
vn -3.30371E-07 0.068925835 0.9976217
vn -2.930882E-07 0.068925805 0.9976217
vn -2.2961514E-07 0.068925925 0.9976217
vn -6.4213566E-07 0.06892583 0.9976217
vn -0 0.06892596 0.9976217
vn -0 0.06892596 0.9976217
vn -1.629089E-07 0.23227645 0.97264975
vn -6.237134E-07 0.23227645 0.97264975
vn -4.904625E-07 0.64420617 0.76485187
vn -1.7704166E-07 0.64420617 0.764852
vn -0 0.23227641 0.9726499
vn -0 0.2322764 0.9726499
vn -0 0.64420635 0.76485175
vn -0 0.6442065 0.76485157
vn -0 0.16018146 -0.9870876
vn 1.2776688E-07 0.70710593 -0.7071076
vn 1.19050746E-07 0.7071069 -0.7071066
vn 1.246698E-07 0.16018099 -0.9870877
vn 1.663033E-07 -1.2081372E-06 -1
vn 2.519204E-07 -1.26512E-06 -1
vn -2.8656495E-06 0.84590226 0.5333379
vn -5.4760235E-06 0.8810527 0.47301817
vn -5.948868E-06 0.8810546 0.47301456
vn -1.733934E-06 0.8459056 0.53333277
vn -4.3796152E-07 0.59214205 0.80583364
vn -1.2036796E-07 0.8584557 0.51288766
vn -4.2369024E-07 0.8584553 0.5128883
vn -3.3627495E-07 0.59214205 0.80583364
vn -1.1068357E-06 -7.804384E-06 1
vn -1.5158562E-06 -7.875885E-06 1
vn -1.5736596E-06 -7.885989E-06 1
vn -1.0490348E-06 -7.794279E-06 1
vn 2.5062718E-06 0.12221456 -0.99250376
vn 8.707985E-07 2.1662237E-07 -1
vn 7.8678005E-07 2.2510707E-07 -1
vn 2.3388889E-06 0.122213855 -0.99250376
vn 3.3425042E-07 0.78833187 -0.61525023
vn 1.0891031E-06 0.7883342 -0.6152473
vn -4.2369024E-07 0.8584553 0.5128883
vn -1.733934E-06 0.8459056 0.53333277
vn -2.8656495E-06 0.84590226 0.5333379
vn -1.2036796E-07 0.8584557 0.51288766
vn -1 9.2692435E-06 -7.643385E-06
vn -1 1.2138832E-05 -4.7966955E-06
vn -1 1.2138832E-05 -4.7966955E-06
vn -1 9.2692435E-06 -7.643385E-06
vn -1 9.2692435E-06 -7.643385E-06
vn -1 2.8175674E-07 6.461471E-06
vn -1 9.71993E-06 8.6930703E-07
vn -1 9.71993E-06 8.693071E-07
vn 1 -1.2405839E-05 4.6251503E-06
vn 1 -2.7521025E-06 4.743604E-06
vn 1 -1.2405839E-05 4.6251503E-06
vn 1 -6.1338865E-06 8.654855E-06
vn 1 -2.752103E-06 4.7436047E-06
vn 1 -2.7521028E-06 4.743604E-06
vn 1 -5.50181E-07 -5.4331514E-07
vn 1 -5.501811E-07 -5.4331514E-07
vn -5.948868E-06 0.8810546 0.47301456
vn 3.3425042E-07 0.78833187 -0.61525023
vn 1.0891031E-06 0.7883342 -0.6152473
vn -5.4760235E-06 0.8810527 0.47301817
vn 5.2820235E-07 0.8459026 0.5333375
vn -4.020742E-06 0.88105255 0.47301847
vn -4.910629E-06 0.8810547 0.47301435
vn 1.4166394E-06 0.8459056 0.5333327
vn -4.4480745E-07 0.592142 0.80583364
vn -2.7096584E-07 0.85845554 0.51288795
vn -0 0.8584557 0.5128876
vn -4.4836673E-07 0.592142 0.80583364
vn -1.1647928E-06 -7.906212E-06 1
vn -1.9826516E-06 -8.0491845E-06 1
vn -2.0982122E-06 -8.069385E-06 1
vn -1.0492197E-06 -7.8860085E-06 1
vn 2.507974E-06 0.12221447 -0.99250376
vn 3.799273E-07 2.662004E-07 -1
vn 2.6230816E-07 2.780762E-07 -1
vn 2.2106733E-06 0.1222142 -0.99250376
vn 7.981868E-07 0.7883318 -0.61525023
vn 1.4924997E-06 0.7883345 -0.61524695
vn -0 0.8584557 0.5128876
vn 1.4166394E-06 0.8459056 0.5333327
vn 5.2820235E-07 0.8459026 0.5333375
vn -2.7096584E-07 0.85845554 0.51288795
vn -1 -8.607157E-06 -9.730689E-06
vn -1 1.4511805E-05 -4.4529374E-06
vn -1 1.4511805E-05 -4.4529374E-06
vn -1 -8.607156E-06 -9.730688E-06
vn -1 -8.607156E-06 -9.730689E-06
vn -1 -9.3527415E-06 -6.845983E-06
vn -1 -2.1182128E-05 1.6298534E-07
vn -1 -2.1182128E-05 1.6298534E-07
vn 1 -1.6044209E-05 4.452409E-06
vn 1 -3.4302407E-06 5.7283523E-06
vn 1 -1.6044207E-05 4.452409E-06
vn 1 -7.91573E-06 9.67493E-06
vn 1 -3.4302407E-06 5.7283523E-06
vn 1 -3.4302407E-06 5.7283514E-06
vn 1 -5.50181E-07 -5.4331525E-07
vn 1 -5.501811E-07 -5.433153E-07
vn -4.910629E-06 0.8810547 0.47301435
vn 7.981868E-07 0.7883318 -0.61525023
vn 1.4924997E-06 0.7883345 -0.61524695
vn -4.020742E-06 0.88105255 0.47301847
vn -1 -9.916056E-05 0.00023963174
vn -0.9999999 0 0.00048884895
vn -1 -2.0036243E-05 0.00033937563
vn -1 -0.00013552862 0.00012141201
vn -1 -5.903087E-05 0.00025062604
vn -1 0 0.00033277163
vn -0.00031928776 0.98723745 -0.15925439
vn -8.88551E-05 0.70713097 -0.70708257
vn -0.00027635338 0.707805 -0.70640785
vn -0 0.98715264 -0.15977995
vn -7.670068E-05 0.9634074 0.26804143
vn -0.00023785942 0.9596065 0.2813452
vn -0 0.746995 0.6648296
vn -1.1523199E-07 0.7377695 0.6750527
vn -1.1523199E-07 0.7377695 0.6750527
vn -3.018406E-07 0.33445907 0.9424103
vn -0 0.746995 0.6648296
vn -3.4190518E-07 0.32375783 0.94614005
vn -4.1372223E-07 -8.9767545E-06 1
vn -3.637846E-07 -8.918455E-06 1
vn -0.98484033 -1.6760372E-05 0.17346315
vn -0.98485965 0 0.17335391
vn -0.9848467 -2.6887772E-05 0.1734271
vn -0.9848283 -5.343506E-05 0.17353159
vn -0.9848393 -2.923286E-07 0.17346928
vn 1 5.895871E-07 1.3950712E-06
vn 1 -9.808053E-07 2.9424302E-06
vn 1 -9.808053E-07 2.9424298E-06
vn 1 5.895871E-07 1.3950712E-06
vn 1 -4.5771194E-06 0
vn 1 5.895871E-07 1.3950712E-06
vn 1 0 1.1867577E-07
vn 1 0 1.1867578E-07
vn 1 0 1.1867578E-07
vn -1 0 -1.3129157E-06
vn -1 -1.217165E-07 -2.8800343E-07
vn -1 -1.217165E-07 -2.8800343E-07
vn -1 0 -1.3129157E-06
vn -1 -1.24683875E-05 -1.0748487E-06
vn -1 0 -1.3129156E-06
vn -1 -7.575396E-07 -5.3404113E-07
vn -1 -7.575396E-07 -5.3404113E-07
vn -1 -7.575396E-07 -5.340411E-07
vn -1.7117333E-07 0.92730874 0.37429753
vn -0 0.59381074 0.80460477
vn -0 0.59381056 0.804605
vn 8.4945415E-05 0.92733794 0.37422493
vn 0.0001741227 0.99404943 0.10893003
vn 0.00033823284 0.99406636 0.10877451
vn -0 0.59381056 0.804605
vn -0 0.35109645 0.9363393
vn -2.979709E-07 0.35109618 0.93633944
vn -0 0.59381074 0.80460477
vn 1.6454726E-07 0 -1
vn 1.628077E-07 0 -1
vn 1.8188119E-07 1.0122627E-07 -1
vn 1.454775E-07 0 -1
vn 1 -1.2822027E-06 1.323209E-06
vn 1 -1.2822028E-06 1.3232091E-06
vn 1 -4.8835896E-06 5.1192256E-07
vn 1 -1.2822027E-06 1.3232092E-06
vn 1 -3.2509897E-07 7.2227766E-07
vn -1 9.123112E-07 -7.4552736E-07
vn -1 9.123112E-07 -7.455273E-07
vn -1 9.123111E-07 -7.4552736E-07
vn -1 -1.3292884E-06 -1.1921934E-06
vn -1 -1.3292884E-06 -1.1921933E-06
vn 0.7046522 -0.70955294 0
vn 0.70465213 -0.70955294 0
vn 0.70465213 -0.70955294 0
vn 0.70465213 -0.70955294 0
vn 0.7046522 -0.70955294 0
vn 0.7046522 -0.70955294 0
vn 0.7046522 -0.70955294 0
vn 0.70465225 -0.7095528 6.312307E-07
vn -1.54601E-07 -1 -9.1240844E-07
vn -1.5460098E-07 -1 -9.1240844E-07
vn -1.5460095E-07 -1 -9.1240844E-07
vn -1.5460104E-07 -1 -9.124085E-07
vn -4.828856E-07 0.95230615 -0.30514404
vn -0 0.95230615 -0.30514407
vn -0 0.95230615 -0.30514404
vn -5.069545E-07 0.95230615 -0.30514404
vn 7.893526E-07 -7.349365E-07 1
vn 7.8935267E-07 -7.349366E-07 1
vn 1.6613614E-06 -6.581684E-07 1
vn 7.893526E-07 -7.349365E-07 1
vn 2.3190101E-07 -1.5468288E-06 1
vn 2.3190103E-07 -1.5468289E-06 1
vn 1 0 1.9551611E-07
vn 1 0 1.955161E-07
vn 1 0 1.9551611E-07
vn 1 0 1.9551608E-07
vn -1 0 -1.3034412E-07
vn -1 0 -1.303441E-07
vn -1 0 -1.303441E-07
vn -1 0 -1.3034408E-07
vn -1.5460033E-07 3.237605E-06 -1
vn -1.5460033E-07 3.237605E-06 -1
vn -5.113908E-07 0 -1
vn -1.5460031E-07 3.237605E-06 -1
vn -0 6.8511343E-07 -1
vn -0 6.8511343E-07 -1
vn 1 0 1.303441E-07
vn 1 0 1.3034412E-07
vn 1 0 1.3034409E-07
vn 1 0 1.3034412E-07
vn -0 -1 -5.2438463E-07
vn -0 -1 -5.243846E-07
vn -0 -1 -5.2438463E-07
vn -0 -1 -5.2438463E-07
vn -0 -1 -5.2438463E-07
vn -0 -1 -5.2438463E-07
vn -0 -1 -5.2438463E-07
vn -0 -1 -5.2438463E-07
vn 1 0 1.498242E-07
vn 1 0 1.4982419E-07
vn 1 0 1.4982419E-07
vn 1 0 1.498242E-07
vn -1 0 -1.498242E-07
vn -1 0 -1.4982419E-07
vn -1 0 -1.498242E-07
vn -1 0 -1.4982419E-07
vn -0 6.5792765E-06 -1
vn -0 6.579277E-06 -1
vn -0 6.5792765E-06 -1
vn -0 6.5792765E-06 -1
vn -1 0 -1.498242E-07
vn -1 0 -1.498242E-07
vn -1 0 -1.498242E-07
vn -1 0 -1.4982417E-07
vn 1.2715675E-06 7.8951225E-06 -1
vn 1.2715675E-06 7.895122E-06 -1
vn 1.2715675E-06 7.895122E-06 -1
vn 1.2715675E-06 7.895122E-06 -1
vn 1 0 1.498242E-07
vn 1 0 1.4982419E-07
vn 1 0 1.4982419E-07
vn 1 0 1.498242E-07
vn -0 1 5.2438463E-07
vn -0 1 5.243847E-07
vn -0 1 5.2438463E-07
vn -0 1 5.2438463E-07
vn -0 1 5.2438463E-07
vn -0 1 5.2438463E-07
vn -0 1 5.2438463E-07
vn -0 1 5.243847E-07
vn 1.5441033E-07 -1 -9.1240855E-07
vn 1.5441033E-07 -1 -9.124085E-07
vn 1.5441036E-07 -1 -9.1240855E-07
vn 1.5441029E-07 -1 -9.124085E-07
vn 4.8288564E-07 0.95230615 -0.305144
vn -0 0.95230615 -0.30514404
vn 5.0695445E-07 0.95230615 -0.305144
vn -0 0.95230615 -0.30514404
vn -1.6613615E-06 -6.581684E-07 1
vn -1.6613614E-06 -6.581684E-07 1
vn -1.6613614E-06 -6.581684E-07 1
vn -7.893526E-07 -7.349365E-07 1
vn -4.2557866E-07 -3.9624032E-07 1
vn -5.4043426E-07 -1.5468289E-06 1
vn -1 0 -1.9551608E-07
vn -1 0 -1.9551608E-07
vn -1 0 -1.9551608E-07
vn -1 0 -1.9551611E-07
vn 1 0 1.3034409E-07
vn 1 0 1.3034406E-07
vn 1 0 1.3034408E-07
vn 1 0 1.303441E-07
vn 8.511574E-07 0 -1
vn 8.511574E-07 0 -1
vn 8.511574E-07 0 -1
vn 4.6322901E-07 3.5249573E-06 -1
vn -2.2540924E-06 9.949615E-07 -1
vn -0 6.8511343E-07 -1
vn -1 0 -1.303441E-07
vn -1 0 -1.3034412E-07
vn -1 0 -1.3034412E-07
vn -1 0 -1.3034409E-07
vn -0 -1 0.00022207288
vn -0 -1 0.00022207286
vn -0 -1 0.00022207288
vn -0 -1 0.00022207286
vn -0 -1 -5.0701567E-07
vn -0 -1 -5.0701567E-07
vn -0 -1 -5.0701567E-07
vn -0 -1 -5.070156E-07
vn -1 0 -1.4486163E-07
vn -1 0 -1.4486164E-07
vn -1 0 -1.4486163E-07
vn -1 0 -1.4486163E-07
vn 1 0 1.4486163E-07
vn 1 0 1.4486162E-07
vn 1 0 1.4486163E-07
vn 1 0 1.4486163E-07
vn -0 6.579277E-06 -1
vn -0 6.5792765E-06 -1
vn -0 6.5792765E-06 -1
vn -0 6.5792765E-06 -1
vn 1 0 1.4486162E-07
vn 1 0 1.4486163E-07
vn 1 0 1.4486162E-07
vn 1 0 1.4486163E-07
vn 1.2715675E-06 7.895122E-06 -1
vn 1.2715675E-06 7.8951225E-06 -1
vn 1.2715675E-06 7.895122E-06 -1
vn 1.2715675E-06 7.895122E-06 -1
vn -1 0 -1.4486162E-07
vn -1 0 -1.4486163E-07
vn -1 0 -1.4486163E-07
vn -1 0 -1.4486163E-07
vn -0 1 5.0701567E-07
vn -0 1 5.0701567E-07
vn -0 1 5.0701567E-07
vn -0 1 5.0701567E-07
vn -0 1 -0.00022214533
vn -0 1 -0.00022214532
vn -0 1 -0.00022214532
vn -0 1 -0.0002221453
vn -3.6268614E-07 0.971341 0.23768994
vn -3.6268654E-07 0.971341 0.23768991
vn -3.6268654E-07 0.971341 0.23768991
vn -3.6268614E-07 0.971341 0.23768996
vn 3.5278293E-07 -0.97134113 -0.23768993
vn 1.912465E-07 -0.971341 -0.23768994
vn 1.813433E-07 -0.971341 -0.23768991
vn 3.6268605E-07 -0.97134113 -0.23768993
vn 1 -3.1188577E-07 1.2745456E-06
vn 1 -3.1188517E-07 1.2745458E-06
vn 1 -3.1188512E-07 1.2745458E-06
vn 1 -3.1188583E-07 1.2745456E-06
vn -1.1116131E-06 -0.23768966 0.97134113
vn -1.1116139E-06 -0.23768966 0.97134113
vn -7.4107555E-07 -0.23769002 0.971341
vn -1.4821512E-06 -0.2376893 0.97134125
vn 1.4821487E-06 0.23769054 -0.9713409
vn 1.4821487E-06 0.23769054 -0.9713409
vn 1.4821486E-06 0.23769054 -0.9713409
vn 1.4821486E-06 0.23769054 -0.9713409
vn 2.6706326E-07 0.971341 0.23768994
vn 1.8629477E-07 0.971341 0.23768991
vn 2.7201486E-07 0.971341 0.23768997
vn 1.8134315E-07 0.971341 0.23768991
vn -2.5715997E-07 -0.971341 -0.23768991
vn -0 -0.971341 -0.23768991
vn -2.720146E-07 -0.97134113 -0.23768993
vn -0 -0.971341 -0.23768994
vn -1 -2.261172E-07 9.2404565E-07
vn -1 -2.2611675E-07 9.2404576E-07
vn -1 -2.2611722E-07 9.240456E-07
vn -1 -2.2611671E-07 9.2404576E-07
vn 3.7053744E-07 -0.23768964 0.97134113
vn 3.705377E-07 -0.23768966 0.97134113
vn 7.4107516E-07 -0.23768924 0.97134125
vn -0 -0.23769002 0.971341
vn -1.1116124E-06 0.23769055 -0.9713409
vn -1.1116124E-06 0.23769055 -0.9713409
vn -1.111613E-06 0.23769054 -0.9713409
vn -1.1116119E-06 0.23769054 -0.9713409
vn -0.33681968 0.80329967 0.4911845
vn -0.3368197 0.8032996 0.4911845
vn -0.33681968 0.80329967 0.4911845
vn -0.3329092 0.801355 0.49699262
vn 1 0 0
vn 1 0 0
vn 1 0 0
vn 1 0 0
vn 1 0 0
vn 1 0 0
vn 1.6353331E-07 0.20224868 0.97933424
vn 1.6353331E-07 0.20224868 0.97933424
vn 1.6353333E-07 0.20224869 0.97933424
vn -0 0.20224875 0.9793341
vn -0 0.84982705 0.5270616
vn -0 0.84982705 0.5270616
vn -0 0.84982705 0.5270616
vn 1.5732356E-05 0.84981877 0.52707493
vn 5.1011386E-07 1 0
vn 5.101139E-07 1 0
vn 5.1011386E-07 1 0
vn 2.3943298E-07 1 2.2956394E-07
vn -1.404702E-07 1 1.6751754E-07
vn -1.404702E-07 1 1.6751757E-07
vn -0 1 0
vn -0 1 0
vn -0 1 0
vn -0.24990962 0.9682692 0
vn -0.24990962 0.9682692 0
vn -0.2499096 0.9682692 0
vn -0.24990962 0.9682692 0
vn -0.24990962 0.9682692 0
vn 1 0 0
vn 1 0 0
vn 1 0 0
vn 1 0 0
vn 1 0 0
vn 2.6060616E-05 -1.7764922E-05 -1
vn 2.7453205E-05 -9.894549E-07 -1
vn 2.7535256E-05 0 -1
vn 2.597912E-05 -1.874661E-05 -1
vn -1 -5.0221734E-06 -9.569556E-06
vn -1 -8.36933E-06 -5.4356187E-06
vn -1 0 0
vn -1 -1.0647742E-05 -6.7595906E-06
vn -1 -1.6206237E-05 0
vn -0 0.8498301 0.52705693
vn -0 0.8498301 0.52705693
vn -0 0.84983 0.5270569
vn -0 0.84983 0.5270569
vn 1 -3.5770765E-05 -9.614786E-06
vn 1 -3.925911E-05 0
vn 1 -3.930383E-05 0
vn 1 -3.6018348E-05 -9.898641E-06
vn 1 -4.0134768E-05 -2.4828018E-05
vn 1 -4.0574178E-05 -2.5163714E-05
vn 1 -7.80953E-06 -3.8455168E-05
vn 1 -7.7516315E-06 -3.824409E-05
vn 1.593302E-07 -3.6387667E-07 1
vn 1.594057E-07 -3.630171E-07 1
vn 1.5932542E-07 -3.6393058E-07 1
vn 1.594104E-07 -3.629633E-07 1
vn -1 3.050522E-05 -1.0880026E-06
vn -1 1.4153822E-05 8.801614E-06
vn -1 2.9762597E-05 -1.1713886E-06
vn -1 1.4153822E-05 8.801614E-06
vn -1 1.4153822E-05 8.801614E-06
vn -1 1.4122417E-05 8.758597E-06
vn -1 9.29754E-06 1.9881223E-05
vn -1 9.297541E-06 1.9881223E-05
vn -1 -3.6119718E-06 -1.7821598E-05
vn -1 -7.4525155E-06 -7.0688243E-06
vn -0 1 0
vn 1.2058966E-07 1 1.4188099E-06
vn 1.2747013E-07 1 1.4997626E-06
vn -0 1 0
vn -0.52747655 0 -0.84956956
vn -0.52747655 0 -0.8495696
vn -0.52747655 0 -0.84956956
vn -0.52741843 -3.7882153E-06 -0.8496057
vn 1.2452272E-06 0.20224856 0.97933424
vn 6.229923E-07 0.20224898 0.9793341
vn 4.995749E-07 0.20224926 0.979334
vn 1.1082441E-06 0.20224833 0.97933424
vn 1.4599526E-07 0.20224874 0.9793341
vn -0 0.20224875 0.9793341
vn -0.287913 0.19368526 0.9378657
vn -0.287913 0.19368528 0.9378657
vn -0.287913 0.19368526 0.93786573
vn -0.28791302 0.19368522 0.9378657
vn -0.2879131 0.1936854 0.9378657
vn -0 -1 -1.788977E-07
vn -0 -1 0
vn -0 -1 0
vn -0 -1 -1.7889771E-07
vn -0 -1 -1.9278605E-07
vn -0 -1 -1.9278605E-07
vn -0 -1 5.4787216E-07
vn -0 -1 5.4787216E-07
vn -0 -1 5.4787216E-07
vn -0 -1 5.4737177E-07
vn -0 -1 -1.6383993E-07
vn -0 -1 -1.6383993E-07
vn 2.2044483E-07 -1 0
vn 2.2044483E-07 -1 0
vn 3.8303838E-07 1.7696242E-07 -1
vn -7.621063E-05 0.21298285 -0.97705585
vn -5.300317E-05 0.16014913 -0.98709285
vn -8.88551E-05 0.70713097 -0.70708257
vn -0.00027635338 0.707805 -0.70640785
vn 3.626988E-07 1.6770346E-07 -1
vn -7.399088E-05 0.21334216 -0.9769776
vn 2.7084846E-07 0 -1
vn -7.36747E-05 0.16022828 -0.98708004
vn 1.7491094E-07 -4.0353655E-07 -1
vn 3.1605737E-07 0 -1
vn 2.2785463E-07 0 -1
vn 3.8941107E-07 0 -1
vn 1.5484846E-07 0 -1
vn 0.00032729266 -1 0
vn 0.00032729268 -1 0
vn 0.00032729266 -1 0
vn 0.00032698314 -1 2.0895695E-07
vn -0.99999475 -0.0032609752 -2.0963722E-07
vn -0.99999475 -0.0032609748 -2.0963721E-07
vn -0.99999475 -0.0032609748 -2.0963721E-07
vn -0.99999475 -0.0032609748 -2.0895587E-07
vn -3.1152984E-05 1 2.0895695E-07
vn -3.1152984E-05 1 2.0895695E-07
vn -3.1152984E-05 1 2.0895695E-07
vn -3.1152995E-05 1 2.0895038E-07
vn 0.9999789 0.0064992085 0
vn 0.9999789 0.0064992085 0
vn 0.9999789 0.0064992085 0
vn 0.9999789 0.006499207 0
vn -3.6643013E-07 -1 0
vn -3.6643013E-07 -1 0
vn -3.6643013E-07 -1 0
vn -3.6643038E-07 -1 0
vn -0 -1 0
vn -0 -1 -1.36133E-07
vn -0 -1 -1.4393387E-07
vn -0 -1 0
vn -0 -1 0
vn -0.00059668976 -0.99999976 0.00046646656
vn -0.00059668976 -0.99999976 0.00046646653
vn -0.00023363196 -1 0.00015855762
vn -0.00059668976 -0.99999976 0.00046646656
vn 4.3336936E-06 -0.99999976 0.00075757847
vn 4.333693E-06 -0.99999976 0.00075757847
vn -0.00017744883 -0.99999976 0.0006578784
vn 0.33953148 -0.8111536 -0.476181
vn 0.33953148 -0.8111536 -0.476181
vn 0.33953145 -0.8111536 -0.476181
vn 0.32648626 -0.8049321 -0.4954705
vn 0.24722125 -0.96895903 -0.00017983853
vn 0.24722125 -0.96895903 -0.00017983855
vn 0.24722123 -0.96895903 -0.00017983853
vn 0.24738215 -0.96891797 2.009508E-06
vn 0.24725658 -0.9689501 0.0001536344
vn 0.28947675 -0.18885303 -0.93836975
vn 0.28947675 -0.18885306 -0.93836975
vn 0.28947675 -0.18885306 -0.93836975
vn 0.28964788 -0.18923114 -0.93824077
vn 0.29007706 -0.18881692 -0.93819153
vn -0.00015196997 -0.8491968 -0.5280765
vn -0.00015196996 -0.84919673 -0.5280765
vn -0.00015196997 -0.84919673 -0.5280766
vn 2.3103863E-05 -0.84931064 -0.5278934
vn -1 0 0
vn -1 0 0
vn -1 0 -2.475284E-07
vn -1 0 0
vn -1 0 0
vn 1 -1.0553839E-07 0
vn 1 -1.05538405E-07 0
vn 1 -1.05538405E-07 0
vn 1 0 0
vn 1 0 0
vn 4.2894113E-05 -0.19862716 -0.9800751
vn 4.2894113E-05 -0.19862716 -0.9800751
vn 4.289412E-05 -0.19862716 -0.9800751
vn 2.7183281E-05 -0.19863527 -0.9800735
vn 5.81909E-05 -0.19731627 -0.9803398
vn 4.580172E-05 -0.1973431 -0.9803344
vn 3.8481212E-05 -0.19735895 -0.98033136
vn 6.551146E-05 -0.19730045 -0.98034304
vn -0 1 9.1240855E-07
vn -0 1 9.1240855E-07
vn -0 1 9.124088E-07
vn -0 1 9.124084E-07
vn -0 1 9.1240855E-07
vn -0 1 9.1240855E-07
vn -0 1 9.124085E-07
vn -0 1 9.1240855E-07
vn -1.2345892E-07 1 1.1593172E-07
vn -1.3870886E-07 1 1.1993927E-07
vn -1.4675858E-07 1 1.5275516E-07
vn -1.3523831E-07 1 1.0548675E-07
vn -1.5549746E-07 1 1.3578094E-07
vn -1.3967853E-07 1 1.2120859E-07
vn -1.6904137E-07 1 0
vn -1.18706105E-07 1 1.17724866E-07
vn -1.1870617E-07 1 1.1772492E-07
vn -1.3267083E-07 1 1.0580106E-07
vn -1.3967876E-07 1 1.4545044E-07
vn -1.3808003E-07 1 1.0315111E-07
vn -1.6040765E-07 1 1.176076E-07
vn -1.405425E-07 1 1.255201E-07
vn -1.2345896E-07 1 1.1593184E-07
vn 4.0908188E-07 -1 1.0295261E-06
vn 4.090819E-07 -1 1.0295261E-06
vn 4.0908185E-07 -1 1.0295261E-06
vn 3.9607679E-07 -1 6.2691345E-07
vn 7.327893E-07 -1 1.0295263E-06
vn 5.071824E-07 -1 1.4012728E-07
vn 2.6776167E-06 -1 1.9661084E-06
vn 7.330733E-07 -1 1.1298209E-06
vn -1.117054E-07 -1 -1.5315927E-06
vn 4.6467977E-07 -1 7.9326594E-07
vn 2.1002181E-07 -1 -1.2201295E-07
vn 2.2312534E-07 -1 6.769394E-07
vn -2.379312E-07 -1 1.840596E-06
vn 6.079627E-07 -1 6.769394E-07
vn 7.4123795E-07 -1 6.127577E-07
g moga_gun_B_127_x3_001_0
f 3/3/3 2/2/2 1/1/1
f 6/6/6 5/5/5 4/4/4
f 9/9/9 8/8/8 7/7/7
f 12/12/12 11/11/11 10/10/10
f 15/15/15 14/14/14 13/13/13
f 18/18/18 17/17/17 16/16/16
f 17/17/17 20/20/20 19/19/19
f 21/21/21 19/19/19 20/20/20
f 24/24/24 23/23/23 22/22/22
f 27/27/27 26/26/26 25/25/25
f 30/30/30 29/29/29 28/28/28
f 31/31/31 28/28/28 29/29/29
f 29/29/29 32/32/32 31/31/31
f 33/33/33 31/31/31 32/32/32
f 32/32/32 34/34/34 33/33/33
f 35/35/35 33/33/33 34/34/34
f 34/34/34 36/36/36 35/35/35
f 37/37/37 35/35/35 36/36/36
f 40/40/40 39/39/39 38/38/38
f 41/41/41 38/38/38 39/39/39
f 39/39/39 42/42/42 41/41/41
f 43/43/43 41/41/41 42/42/42
f 42/42/42 44/44/44 43/43/43
f 45/45/45 43/43/43 44/44/44
f 48/48/48 47/47/47 46/46/46
f 49/49/49 46/46/46 47/47/47
f 47/47/47 50/50/50 49/49/49
f 51/51/51 49/49/49 50/50/50
f 50/50/50 52/52/52 51/51/51
f 53/53/53 51/51/51 52/52/52
f 52/52/52 54/54/54 53/53/53
f 55/55/55 53/53/53 54/54/54
f 58/58/58 57/57/57 56/56/56
f 59/59/59 56/56/56 57/57/57
f 57/57/57 60/60/60 59/59/59
f 61/61/61 59/59/59 60/60/60
f 60/60/60 62/62/62 61/61/61
f 63/63/63 61/61/61 62/62/62
f 66/66/66 65/65/65 64/64/64
f 67/67/67 64/64/64 65/65/65
f 67/67/67 68/68/68 64/64/64
f 69/69/69 68/68/68 67/67/67
f 70/70/70 68/68/68 69/69/69
f 70/70/70 69/69/69 71/71/71
f 72/72/72 71/71/71 69/69/69
f 73/73/73 64/64/64 68/68/68
f 74/74/74 64/64/64 73/73/73
f 73/73/73 68/68/68 75/75/75
f 76/76/76 75/75/75 68/68/68
f 77/77/77 74/74/74 73/73/73
f 74/74/74 77/77/77 78/78/78
f 79/79/79 78/78/78 77/77/77
f 82/82/82 81/81/81 80/80/80
f 83/83/83 80/80/80 81/81/81
f 83/83/83 84/84/84 80/80/80
f 85/85/85 80/80/80 84/84/84
f 84/84/84 86/86/86 85/85/85
f 86/86/86 84/84/84 87/87/87
f 88/88/88 85/85/85 86/86/86
f 86/86/86 87/87/87 89/89/89
f 85/85/85 88/88/88 90/90/90
f 90/90/90 88/88/88 91/91/91
f 87/87/87 92/92/92 89/89/89
f 93/93/93 89/89/89 92/92/92
f 93/93/93 92/92/92 94/94/94
f 95/95/95 94/94/94 92/92/92
f 91/91/91 96/96/96 90/90/90
f 97/97/97 90/90/90 96/96/96
f 97/97/97 96/96/96 98/98/98
f 99/99/99 98/98/98 96/96/96
f 102/102/102 101/101/101 100/100/100
f 103/103/103 100/100/100 101/101/101
f 100/100/100 103/103/103 104/104/104
f 105/105/105 104/104/104 103/103/103
f 108/108/108 107/107/107 106/106/106
f 109/109/109 106/106/106 107/107/107
f 112/112/112 111/111/111 110/110/110
f 113/113/113 110/110/110 111/111/111
f 116/116/116 115/115/115 114/114/114
f 117/117/117 114/114/114 115/115/115
f 120/120/120 119/119/119 118/118/118
f 121/121/121 118/118/118 119/119/119
f 121/121/121 122/122/122 118/118/118
f 123/123/123 118/118/118 122/122/122
f 126/126/126 125/125/125 124/124/124
f 127/127/127 124/124/124 125/125/125
f 130/130/130 129/129/129 128/128/128
f 131/131/131 128/128/128 129/129/129
f 128/128/128 131/131/131 132/132/132
f 133/133/133 128/128/128 132/132/132
f 133/133/133 132/132/132 134/134/134
f 135/135/135 134/134/134 132/132/132
f 138/138/138 137/137/137 136/136/136
f 139/139/139 136/136/136 137/137/137
f 139/139/139 137/137/137 140/140/140
f 140/140/140 137/137/137 141/141/141
f 141/141/141 142/142/142 140/140/140
f 143/143/143 140/140/140 142/142/142
f 146/146/146 145/145/145 144/144/144
f 147/147/147 144/144/144 145/145/145
f 150/150/150 149/149/149 148/148/148
f 151/151/151 148/148/148 149/149/149
f 154/154/154 153/153/153 152/152/152
f 155/155/155 152/152/152 153/153/153
f 158/158/158 157/157/157 156/156/156
f 159/159/159 156/156/156 157/157/157
f 162/162/162 161/161/161 160/160/160
f 163/163/163 160/160/160 161/161/161
f 163/163/163 164/164/164 160/160/160
f 165/165/165 160/160/160 164/164/164
f 168/168/168 167/167/167 166/166/166
f 169/169/169 166/166/166 167/167/167
f 172/172/172 171/171/171 170/170/170
f 173/173/173 170/170/170 171/171/171
f 170/170/170 173/173/173 174/174/174
f 175/175/175 170/170/170 174/174/174
f 175/175/175 174/174/174 176/176/176
f 177/177/177 176/176/176 174/174/174
f 180/180/180 179/179/179 178/178/178
f 181/181/181 178/178/178 179/179/179
f 181/181/181 179/179/179 182/182/182
f 182/182/182 179/179/179 183/183/183
f 183/183/183 184/184/184 182/182/182
f 185/185/185 182/182/182 184/184/184
f 188/188/188 187/187/187 186/186/186
f 189/189/189 186/186/186 187/187/187
f 192/192/192 191/191/191 190/190/190
f 193/193/193 192/192/192 190/190/190
f 194/194/194 192/192/192 193/193/193
f 195/195/195 192/192/192 194/194/194
f 198/198/198 197/197/197 196/196/196
f 199/199/199 196/196/196 197/197/197
f 199/199/199 200/200/200 196/196/196
f 201/201/201 196/196/196 200/200/200
f 200/200/200 202/202/202 201/201/201
f 203/203/203 201/201/201 202/202/202
f 206/206/206 205/205/205 204/204/204
f 207/207/207 204/204/204 205/205/205
f 207/207/207 205/205/205 208/208/208
f 209/209/209 208/208/208 205/205/205
f 212/212/212 211/211/211 210/210/210
f 213/213/213 212/212/212 210/210/210
f 214/214/214 213/213/213 210/210/210
f 217/217/217 216/216/216 215/215/215
f 215/215/215 216/216/216 218/218/218
f 218/218/218 216/216/216 219/219/219
f 220/220/220 215/215/215 218/218/218
f 221/221/221 215/215/215 220/220/220
f 222/222/222 221/221/221 220/220/220
f 223/223/223 221/221/221 222/222/222
f 226/226/226 225/225/225 224/224/224
f 224/224/224 225/225/225 227/227/227
f 227/227/227 225/225/225 228/228/228
f 229/229/229 224/224/224 227/227/227
f 230/230/230 224/224/224 229/229/229
f 231/231/231 224/224/224 230/230/230
f 232/232/232 231/231/231 230/230/230
f 235/235/235 234/234/234 233/233/233
f 236/236/236 233/233/233 234/234/234
f 233/233/233 236/236/236 237/237/237
f 238/238/238 237/237/237 236/236/236
f 241/241/241 240/240/240 239/239/239
f 242/242/242 239/239/239 240/240/240
f 245/245/245 244/244/244 243/243/243
f 246/246/246 243/243/243 244/244/244
f 249/249/249 248/248/248 247/247/247
f 250/250/250 247/247/247 248/248/248
f 251/251/251 250/250/250 248/248/248
f 254/254/254 253/253/253 252/252/252
f 254/254/254 252/252/252 255/255/255
f 256/256/256 255/255/255 252/252/252
f 259/259/259 258/258/258 257/257/257
f 260/260/260 257/257/257 258/258/258
f 263/263/263 262/262/262 261/261/261
f 264/264/264 261/261/261 262/262/262
f 267/267/267 266/266/266 265/265/265
f 268/268/268 265/265/265 266/266/266
f 271/271/271 270/270/270 269/269/269
f 272/272/272 269/269/269 270/270/270
f 275/275/275 274/274/274 273/273/273
f 276/276/276 273/273/273 274/274/274
f 273/273/273 276/276/276 277/277/277
f 278/278/278 277/277/277 276/276/276
f 281/281/281 280/280/280 279/279/279
f 282/282/282 279/279/279 280/280/280
f 285/285/285 284/284/284 283/283/283
f 286/286/286 283/283/283 284/284/284
f 289/289/289 288/288/288 287/287/287
f 290/290/290 287/287/287 288/288/288
f 290/290/290 291/291/291 287/287/287
f 292/292/292 287/287/287 291/291/291
f 295/295/295 294/294/294 293/293/293
f 296/296/296 293/293/293 294/294/294
f 299/299/299 298/298/298 297/297/297
f 300/300/300 297/297/297 298/298/298
f 303/303/303 302/302/302 301/301/301
f 304/304/304 301/301/301 302/302/302
f 307/307/307 306/306/306 305/305/305
f 308/308/308 305/305/305 306/306/306
f 311/311/311 310/310/310 309/309/309
f 312/312/312 309/309/309 310/310/310
f 315/315/315 314/314/314 313/313/313
f 316/316/316 313/313/313 314/314/314
f 319/319/319 318/318/318 317/317/317
f 320/320/320 317/317/317 318/318/318
f 323/323/323 322/322/322 321/321/321
f 324/324/324 321/321/321 322/322/322
f 327/327/327 326/326/326 325/325/325
f 328/328/328 325/325/325 326/326/326
f 331/331/331 330/330/330 329/329/329
f 332/332/332 329/329/329 330/330/330
f 335/335/335 334/334/334 333/333/333
f 336/336/336 333/333/333 334/334/334
f 339/339/339 338/338/338 337/337/337
f 340/340/340 337/337/337 338/338/338
f 343/343/343 342/342/342 341/341/341
f 344/344/344 341/341/341 342/342/342
f 347/347/347 346/346/346 345/345/345
f 348/348/348 345/345/345 346/346/346
f 346/346/346 349/349/349 348/348/348
f 350/350/350 348/348/348 349/349/349
f 353/353/353 352/352/352 351/351/351
f 354/354/354 351/351/351 352/352/352
f 357/357/357 356/356/356 355/355/355
f 358/358/358 355/355/355 356/356/356
f 361/361/361 360/360/360 359/359/359
f 362/362/362 359/359/359 360/360/360
f 362/362/362 360/360/360 363/363/363
f 364/364/364 363/363/363 360/360/360
f 367/367/367 366/366/366 365/365/365
f 368/368/368 365/365/365 366/366/366
f 371/371/371 370/370/370 369/369/369
f 372/372/372 369/369/369 370/370/370
f 375/375/375 374/374/374 373/373/373
f 376/376/376 373/373/373 374/374/374
f 379/379/379 378/378/378 377/377/377
f 380/380/380 377/377/377 378/378/378
f 383/383/383 382/382/382 381/381/381
f 384/384/384 381/381/381 382/382/382
f 387/387/387 386/386/386 385/385/385
f 388/388/388 385/385/385 386/386/386
f 391/391/391 390/390/390 389/389/389
f 392/392/392 389/389/389 390/390/390
f 395/395/395 394/394/394 393/393/393
f 396/396/396 393/393/393 394/394/394
f 399/399/399 398/398/398 397/397/397
f 400/400/400 397/397/397 398/398/398
f 403/403/403 402/402/402 401/401/401
f 404/404/404 401/401/401 402/402/402
f 407/407/407 406/406/406 405/405/405
f 408/408/408 405/405/405 406/406/406
f 411/411/411 410/410/410 409/409/409
f 412/412/412 409/409/409 410/410/410
f 415/415/415 414/414/414 413/413/413
f 416/416/416 413/413/413 414/414/414
f 419/419/419 418/418/418 417/417/417
f 420/420/420 417/417/417 418/418/418
f 423/423/423 422/422/422 421/421/421
f 424/424/424 421/421/421 422/422/422
f 427/427/427 426/426/426 425/425/425
f 428/428/428 425/425/425 426/426/426
f 431/431/431 430/430/430 429/429/429
f 432/432/432 429/429/429 430/430/430
f 435/435/435 434/434/434 433/433/433
f 436/436/436 433/433/433 434/434/434
f 439/439/439 438/438/438 437/437/437
f 440/440/440 437/437/437 438/438/438
f 443/443/443 442/442/442 441/441/441
f 444/444/444 441/441/441 442/442/442
f 447/447/447 446/446/446 445/445/445
f 448/448/448 445/445/445 446/446/446
f 451/451/451 450/450/450 449/449/449
f 452/452/452 449/449/449 450/450/450
f 455/455/455 454/454/454 453/453/453
f 456/456/456 453/453/453 454/454/454
f 453/453/453 456/456/456 457/457/457
f 458/458/458 457/457/457 456/456/456
f 461/461/461 460/460/460 459/459/459
f 462/462/462 459/459/459 460/460/460
f 465/465/465 464/464/464 463/463/463
f 466/466/466 463/463/463 464/464/464
f 469/469/469 468/468/468 467/467/467
f 470/470/470 467/467/467 468/468/468
f 470/470/470 468/468/468 471/471/471
f 471/471/471 468/468/468 472/472/472
f 473/473/473 472/472/472 468/468/468
f 468/468/468 474/474/474 473/473/473
f 473/473/473 474/474/474 475/475/475
f 478/478/478 477/477/477 476/476/476
f 478/478/478 479/479/479 477/477/477
f 480/480/480 477/477/477 479/479/479
f 483/483/483 482/482/482 481/481/481
f 484/484/484 481/481/481 482/482/482
f 481/481/481 484/484/484 485/485/485
f 488/488/488 487/487/487 486/486/486
f 489/489/489 486/486/486 487/487/487
f 492/492/492 491/491/491 490/490/490
f 493/493/493 490/490/490 491/491/491
f 494/494/494 493/493/493 491/491/491
f 497/497/497 496/496/496 495/495/495
f 498/498/498 495/495/495 496/496/496
f 501/501/501 500/500/500 499/499/499
f 502/502/502 499/499/499 500/500/500
f 499/499/499 502/502/502 503/503/503
f 504/504/504 503/503/503 502/502/502
f 504/504/504 505/505/505 503/503/503
f 506/506/506 503/503/503 505/505/505
f 509/509/509 508/508/508 507/507/507
f 510/510/510 507/507/507 508/508/508
f 513/513/513 512/512/512 511/511/511
f 514/514/514 511/511/511 512/512/512
f 512/512/512 515/515/515 514/514/514
f 516/516/516 514/514/514 515/515/515
f 515/515/515 517/517/517 516/516/516
f 518/518/518 516/516/516 517/517/517
f 515/515/515 519/519/519 517/517/517
f 520/520/520 517/517/517 519/519/519
f 523/523/523 522/522/522 521/521/521
f 524/524/524 521/521/521 522/522/522
f 527/527/527 526/526/526 525/525/525
f 528/528/528 525/525/525 526/526/526
f 531/531/531 530/530/530 529/529/529
f 532/532/532 529/529/529 530/530/530
f 532/532/532 533/533/533 529/529/529
f 534/534/534 529/529/529 533/533/533
f 537/537/537 536/536/536 535/535/535
f 538/538/538 535/535/535 536/536/536
f 535/535/535 538/538/538 539/539/539
f 542/542/542 541/541/541 540/540/540
f 543/543/543 540/540/540 541/541/541
f 540/540/540 543/543/543 544/544/544
f 545/545/545 544/544/544 543/543/543
f 544/544/544 545/545/545 546/546/546
f 547/547/547 546/546/546 545/545/545
f 546/546/546 547/547/547 548/548/548
f 549/549/549 548/548/548 547/547/547
f 548/548/548 549/549/549 550/550/550
f 551/551/551 550/550/550 549/549/549
f 550/550/550 551/551/551 552/552/552
f 553/553/553 552/552/552 551/551/551
f 556/556/556 555/555/555 554/554/554
f 556/556/556 557/557/557 555/555/555
f 557/557/557 558/558/558 555/555/555
f 559/559/559 554/554/554 555/555/555
f 560/560/560 555/555/555 558/558/558
f 554/554/554 559/559/559 561/561/561
f 562/562/562 560/560/560 558/558/558
f 563/563/563 561/561/561 559/559/559
f 560/560/560 562/562/562 563/563/563
f 561/561/561 563/563/563 562/562/562
g moga_gun_B_127_x3_001_1
f 566/566/566 565/565/565 564/564/564
f 567/567/567 564/564/564 565/565/565
f 570/570/570 569/569/569 568/568/568
f 571/571/571 568/568/568 569/569/569
f 574/574/574 573/573/573 572/572/572
f 575/575/575 572/572/572 573/573/573
f 578/578/578 577/577/577 576/576/576
f 579/579/579 576/576/576 577/577/577
f 582/582/582 581/581/581 580/580/580
f 583/583/583 580/580/580 581/581/581
f 586/586/586 585/585/585 584/584/584
f 587/587/587 584/584/584 585/585/585
f 590/590/590 589/589/589 588/588/588
f 591/591/591 588/588/588 589/589/589
f 592/592/592 588/588/588 591/591/591
f 595/595/595 594/594/594 593/593/593
f 596/596/596 593/593/593 594/594/594
f 596/596/596 597/597/597 593/593/593
f 593/593/593 597/597/597 598/598/598
f 599/599/599 598/598/598 597/597/597
f 602/602/602 601/601/601 600/600/600
f 603/603/603 600/600/600 601/601/601
f 606/606/606 605/605/605 604/604/604
f 607/607/607 604/604/604 605/605/605
f 608/608/608 604/604/604 607/607/607
f 611/611/611 610/610/610 609/609/609
f 612/612/612 609/609/609 610/610/610
f 613/613/613 609/609/609 612/612/612
f 616/616/616 615/615/615 614/614/614
f 617/617/617 614/614/614 615/615/615
f 620/620/620 619/619/619 618/618/618
f 621/621/621 618/618/618 619/619/619
f 622/622/622 621/621/621 619/619/619
f 625/625/625 624/624/624 623/623/623
f 626/626/626 623/623/623 624/624/624
f 623/623/623 626/626/626 627/627/627
f 630/630/630 629/629/629 628/628/628
f 631/631/631 628/628/628 629/629/629
f 634/634/634 633/633/633 632/632/632
f 635/635/635 632/632/632 633/633/633
g moga_gun_B_127_x3_001_2
f 638/638/638 637/637/637 636/636/636
f 639/639/639 636/636/636 637/637/637
f 642/642/642 641/641/641 640/640/640
f 643/643/643 640/640/640 641/641/641
f 646/646/646 645/645/645 644/644/644
f 644/644/644 645/645/645 647/647/647
f 648/648/648 645/645/645 646/646/646
f 647/647/647 645/645/645 649/649/649
f 650/650/650 645/645/645 648/648/648
f 649/649/649 645/645/645 651/651/651
f 652/652/652 645/645/645 650/650/650
f 651/651/651 645/645/645 653/653/653
f 654/654/654 645/645/645 652/652/652
f 653/653/653 645/645/645 655/655/655
f 656/656/656 645/645/645 654/654/654
f 655/655/655 645/645/645 657/657/657
f 658/658/658 645/645/645 656/656/656
f 657/657/657 645/645/645 658/658/658
g moga_gun_B_127_x3_001_3
f 69/69/69 67/67/67 72/72/72
f 65/65/65 72/72/72 67/67/67
f 78/78/78 66/66/66 74/74/74
f 64/64/64 74/74/74 66/66/66
f 98/98/98 82/82/82 97/97/97
f 80/80/80 97/97/97 82/82/82
f 80/80/80 85/85/85 97/97/97
f 90/90/90 97/97/97 85/85/85
f 81/81/81 95/95/95 83/83/83
f 92/92/92 83/83/83 95/95/95
f 92/92/92 87/87/87 83/83/83
f 84/84/84 83/83/83 87/87/87
f 661/661/661 660/660/660 659/659/659
f 659/659/659 660/660/660 662/662/662
f 663/663/663 660/660/660 661/661/661
f 662/662/662 660/660/660 664/664/664
f 665/665/665 660/660/660 663/663/663
f 664/664/664 660/660/660 666/666/666
f 667/667/667 660/660/660 665/665/665
f 666/666/666 660/660/660 668/668/668
f 669/669/669 660/660/660 667/667/667
f 668/668/668 660/660/660 670/670/670
f 671/671/671 660/660/660 669/669/669
f 670/670/670 660/660/660 672/672/672
f 673/673/673 660/660/660 671/671/671
f 672/672/672 660/660/660 673/673/673
