g NY_gun_cal254C_barrel_001
v -0.30716065 0.42279434 2.272303
v 1.6021728E-05 -1.5258789E-07 2.8650265
v -0.4970088 0.16149352 2.2723033
v -0.49700928 -0.16149306 2.2722998
v -0.3071626 -0.422796 2.2723
v 0.30719328 -0.4227942 2.2723
v 0.4970416 -0.16149306 2.2722998
v 0.4970416 0.16149352 2.2723033
v 0.30719498 0.42279616 2.272303
v -0.4970088 0.16149352 2.2723033
v 1.6021728E-05 -1.5258789E-07 2.8650265
v -0.49700928 -0.16149306 2.2722998
v 0.4970416 -0.16149306 2.2722998
v 1.6021728E-05 -1.5258789E-07 2.8650265
v 0.4970416 0.16149352 2.2723033
v 1.9836425E-06 0.5681085 -1.8640717
v -0.30716065 0.42279434 2.272303
v -0.33392394 0.4596089 -1.8640679
v 1.7852783E-05 0.5226039 2.2723038
v 0.3339273 0.4596089 -1.8640717
v 0.30719498 0.42279616 2.272303
v -0.4970088 0.16149352 2.2723033
v -0.33392394 0.4596089 -1.8640679
v -0.30716065 0.42279434 2.272303
v -0.54030305 0.17555511 -1.8640703
v -0.49700928 -0.16149306 2.2722998
v -0.54030305 -0.17555542 -1.8640722
v -0.3071626 -0.422796 2.2723
v -0.33392608 -0.45961103 -1.8640722
v 1.5563965E-05 -0.52260184 2.2723
v -0.33392608 -0.45961103 -1.8640722
v -0.3071626 -0.422796 2.2723
v -1.5258789E-07 -0.5681087 -1.8640722
v 0.30719328 -0.4227942 2.2723
v 0.33392546 -0.45960912 -1.864076
v 0.4970416 -0.16149306 2.2722998
v 0.33392546 -0.45960912 -1.864076
v 0.30719328 -0.4227942 2.2723
v 0.540305 -0.17555724 -1.8640759
v 0.4970416 0.16149352 2.2723033
v 0.54030484 0.17555511 -1.8640738
v 0.30719498 0.42279616 2.272303
v 0.3339273 0.4596089 -1.8640717
v -2.0599366E-05 0.37873426 2.2723038
v -0.15036651 0.20690338 11.36268
v -0.2226651 0.30639052 2.2723038
v -2.1362305E-06 0.25576004 11.36268
v -0.1720285 0.2367192 11.5857
v 0.22262344 0.30639434 2.2723038
v -1.2207031E-06 0.29261413 11.5857
v 0.1503604 0.20690338 11.36268
v 0.17202316 0.2367192 11.5857
v -0.36026886 -0.11710159 2.2723
v -0.15036713 -0.20701233 11.36268
v -0.22266632 -0.30649552 2.2722979
v -0.24329697 -0.079105526 11.36268
v -0.17202896 -0.23682785 11.585706
v -0.36026824 0.11699875 2.272302
v -0.27834687 -0.09049225 11.5857
v -0.2432968 0.078996584 11.36268
v -0.2226651 0.30639052 2.2723038
v -0.27834672 0.09038544 11.5857
v -0.15036651 0.20690338 11.36268
v -0.1720285 0.2367192 11.5857
v -2.2125243E-05 -0.37883744 2.2722979
v 0.15035918 -0.20701233 11.36268
v 0.22262114 -0.30649552 2.2722979
v -3.3569336E-06 -0.25586897 11.36268
v 0.17202209 -0.23682785 11.5857
v -0.22266632 -0.30649552 2.2722979
v -2.746582E-06 -0.29272276 11.5857
v -0.15036713 -0.20701233 11.36268
v -0.17202896 -0.23682785 11.585706
v 0.3602249 0.11700073 2.272302
v 0.1503604 0.20690338 11.36268
v 0.22262344 0.30639434 2.2723038
v 0.24328995 0.078996584 11.362678
v 0.17202316 0.2367192 11.5857
v 0.3602249 -0.11710159 2.2723
v 0.27834183 0.09038544 11.585693
v 0.24329056 -0.079105526 11.362678
v 0.22262114 -0.30649552 2.2722979
v 0.27834198 -0.090494074 11.585693
v 0.15035918 -0.20701233 11.36268
v 0.17202209 -0.23682785 11.5857
v -0.3071626 -0.422796 2.2723
v 1.6021728E-05 -1.5258789E-07 2.8650265
v 1.5563965E-05 -0.52260184 2.2723
v 0.30719328 -0.4227942 2.2723
v 0.30719498 0.42279616 2.272303
v 1.6021728E-05 -1.5258789E-07 2.8650265
v 1.7852783E-05 0.5226039 2.2723038
v -0.30716065 0.42279434 2.272303
v 4.1198728E-06 0.45959106 1.8941809
v -0.24848679 0.3420331 3.796208
v -0.27013823 0.37181684 1.8941827
v 1.6326903E-05 0.4227768 3.796208
v 0.27014557 0.37181684 1.8941809
v 0.24851897 0.3420349 3.796208
v -0.40207183 0.1306456 3.7962072
v -0.27013823 0.37181684 1.8941827
v -0.24848679 0.3420331 3.796208
v -0.43709594 0.14202133 1.8941827
v -0.40207213 -0.13064788 3.7962036
v -0.43709594 -0.14202484 1.8941772
v -0.2484886 -0.34203735 3.796203
v -0.2701396 -0.37182036 1.8941772
v 1.4953613E-05 -0.4227812 3.796203
v -0.2701396 -0.37182036 1.8941772
v -0.2484886 -0.34203735 3.796203
v 2.2888182E-06 -0.45959464 1.8941772
v 0.24851714 -0.34203735 3.796203
v 0.27014357 -0.37182036 1.894175
v 0.4021025 -0.13064788 3.7962036
v 0.27014357 -0.37182036 1.894175
v 0.24851714 -0.34203735 3.796203
v 0.43710205 -0.14202484 1.894175
v 0.40210205 0.1306436 3.7962072
v 0.43710172 0.14201935 1.8941809
v 0.24851897 0.3420349 3.796208
v 0.27014557 0.37181684 1.8941809
v -0.24848679 0.3420331 3.796208
v 1.4953613E-05 -2.2888182E-06 4.38893
v -0.40207183 0.1306456 3.7962072
v -0.40207213 -0.13064788 3.7962036
v -0.2484886 -0.34203735 3.796203
v -0.2484886 -0.34203735 3.796203
v 1.4953613E-05 -2.2888182E-06 4.38893
v 1.4953613E-05 -0.4227812 3.796203
v 0.24851714 -0.34203735 3.796203
v 0.24851714 -0.34203735 3.796203
v 1.4953613E-05 -2.2888182E-06 4.38893
v 0.4021025 -0.13064788 3.7962036
v 0.40210205 0.1306436 3.7962072
v 0.24851897 0.3420349 3.796208
v 0.24851897 0.3420349 3.796208
v 1.4953613E-05 -2.2888182E-06 4.38893
v 1.6326903E-05 0.4227768 3.796208
v -0.24848679 0.3420331 3.796208
v -1.2207031E-06 0.29261413 11.5857
v -0.10970123 0.14666748 11.630659
v -0.1720285 0.2367192 11.5857
v -0.001551361 0.18180847 11.630659
v -0.17654175 0.05467041 11.630659
v 0.17202316 0.2367192 11.5857
v -0.27834672 0.09038544 11.5857
v 0.106597595 0.14666748 11.630659
v -0.1765416 -0.059043884 11.630659
v 0.27834183 0.09038544 11.585693
v -0.27834687 -0.09049225 11.5857
v 0.17343749 0.05467041 11.630659
v -0.10970154 -0.15104096 11.630659
v 0.27834198 -0.090494074 11.585693
v -0.17202896 -0.23682785 11.585706
v 0.17343749 -0.059043884 11.630659
v -0.001552124 -0.18618195 11.630659
v 0.17202209 -0.23682785 11.5857
v -2.746582E-06 -0.29272276 11.5857
v 0.10659713 -0.15104294 11.630659
v -0.001551361 0.18180847 11.630659
v -2.2430419E-05 -5.1422117E-05 2.2723038
v -0.10970123 0.14666748 11.630659
v 0.106597595 0.14666748 11.630659
v -0.10970123 0.14666748 11.630659
v -2.2430419E-05 -5.1422117E-05 2.2723038
v -0.17654175 0.05467041 11.630659
v -0.1765416 -0.059043884 11.630659
v -0.10970154 -0.15104096 11.630659
v -0.10970154 -0.15104096 11.630659
v -2.2430419E-05 -5.1422117E-05 2.2723038
v -0.001552124 -0.18618195 11.630659
v 0.10659713 -0.15104294 11.630659
v 0.10659713 -0.15104294 11.630659
v -2.2430419E-05 -5.1422117E-05 2.2723038
v 0.17343749 -0.059043884 11.630659
v 0.17343749 0.05467041 11.630659
v 0.106597595 0.14666748 11.630659
vt 0.50519454 0.53229296
vt 0.50987494 0.5258925
vt 0.5023019 0.52833724
vt 0.5023018 0.5234477
vt 0.5051945 0.519492
vt 0.5145554 0.519492
vt 0.51744807 0.5234477
vt 0.51744807 0.52833724
vt 0.5145554 0.532293
vt -2.208729 0.52833724
vt -2.1997755 0.5258925
vt -2.208729 0.5234477
vt 3.208729 0.5234477
vt 3.1997755 0.5258925
vt 3.208729 0.52833724
vt 0.5098748 3.271212
vt 0.50519454 3.208729
vt 0.50478685 3.271212
vt 0.509875 3.208729
vt 0.51496285 3.271212
vt 0.5145554 3.208729
vt -2.208729 0.52833724
vt -2.271212 0.5328503
vt -2.208729 0.53229296
vt -2.271212 0.52855015
vt -2.208729 0.5234477
vt -2.271212 0.52323484
vt -2.208729 0.519492
vt -2.271212 0.5189346
vt 0.49012506 3.208729
vt 0.4952132 3.271212
vt 0.4948055 3.208729
vt 0.49012518 3.271212
vt 0.4854446 3.208729
vt 0.4850372 3.2712123
vt 3.208729 0.5234477
vt 3.2712123 0.51893467
vt 3.208729 0.519492
vt 3.2712123 0.5232348
vt 3.208729 0.52833724
vt 3.271212 0.52855015
vt 3.208729 0.532293
vt 3.271212 0.5328503
vt 0.5098744 3.208729
vt 0.5075834 3.0714118
vt 0.506482 3.208729
vt 0.50987446 3.0714118
vt 0.50725335 3.068043
vt 0.5132668 3.208729
vt 0.50987446 3.068043
vt 0.51216555 3.0714118
vt 0.51249564 3.068043
vt -2.208729 0.52411973
vt -2.0714118 0.5227586
vt -2.208729 0.5212526
vt -2.0714118 0.5246949
vt -2.0680428 0.5223072
vt -2.208729 0.52766365
vt -2.068043 0.52452254
vt -2.0714118 0.52708834
vt -2.208729 0.5305308
vt -2.068043 0.5272608
vt -2.0714118 0.5290247
vt -2.068043 0.52947605
vt 0.4901256 3.208729
vt 0.48783445 3.0714118
vt 0.4867332 3.208729
vt 0.49012554 3.0714118
vt 0.48750442 3.068043
vt 0.493518 3.208729
vt 0.49012554 3.068043
vt 0.49241662 3.0714118
vt 0.49274665 3.0680428
vt 3.208729 0.5276637
vt 3.0714118 0.5290247
vt 3.208729 0.53053087
vt 3.0714118 0.52708834
vt 3.068043 0.52947605
vt 3.208729 0.52411973
vt 3.068043 0.5272608
vt 3.0714118 0.5246949
vt 3.208729 0.5212526
vt 3.068043 0.52452254
vt 3.0714118 0.5227586
vt 3.068043 0.5223072
vt 0.4948055 3.208729
vt 0.49012506 3.1997755
vt 0.49012506 3.208729
vt 0.4854446 3.208729
vt 0.5145554 3.208729
vt 0.50987494 3.1997755
vt 0.509875 3.208729
vt 0.50519454 3.208729
vt 0.5098748 3.2144408
vt 0.5060885 3.1857092
vt 0.50575864 3.2144408
vt 0.50987494 3.1857092
vt 0.51399094 3.2144408
vt 0.5136613 3.1857092
vt -2.1857092 0.5278703
vt -2.2144408 0.53152126
vt -2.1857092 0.53107035
vt -2.2144408 0.5280425
vt -2.1857092 0.52391464
vt -2.2144408 0.52374244
vt -2.1857092 0.5207145
vt -2.2144408 0.5202637
vt 0.49012506 3.1857092
vt 0.49424136 3.2144408
vt 0.4939115 3.1857092
vt 0.49012524 3.2144408
vt 0.48633868 3.1857092
vt 0.48600912 3.2144408
vt 3.1857092 0.52391464
vt 3.2144408 0.5202637
vt 3.1857092 0.5207145
vt 3.2144408 0.52374244
vt 3.1857092 0.52787024
vt 3.2144408 0.52804244
vt 3.1857092 0.5310704
vt 3.2144408 0.53152126
vt -2.1857092 0.53107035
vt -2.1767557 0.52589244
vt -2.1857092 0.5278703
vt -2.1857092 0.52391464
vt -2.1857092 0.5207145
vt 0.4939115 3.1857092
vt 0.49012512 3.1767557
vt 0.49012506 3.1857092
vt 0.48633868 3.1857092
vt 3.1857092 0.5207145
vt 3.1767557 0.52589244
vt 3.1857092 0.52391464
vt 3.1857092 0.52787024
vt 3.1857092 0.5310704
vt 0.5136613 3.1857092
vt 0.5098749 3.1767557
vt 0.50987494 3.1857092
vt 0.5060885 3.1857092
vt 0.50987446 0.53032225
vt 0.508203 0.5281128
vt 0.50725335 0.52947605
vt 0.50985086 0.5286448
vt 0.50718457 0.5267201
vt 0.51249564 0.52947605
vt 0.50563335 0.5272608
vt 0.51149875 0.5281128
vt 0.50718457 0.52499866
vt 0.5141156 0.5272608
vt 0.50563335 0.52452254
vt 0.51251715 0.5267201
vt 0.50820297 0.52360594
vt 0.5141156 0.52452254
vt 0.50725335 0.5223072
vt 0.51251715 0.52499866
vt 0.50985086 0.523074
vt 0.5124956 0.5223072
vt 0.50987446 0.52146107
vt 0.5114987 0.5236059
vt 0.49014914 3.0673637
vt 0.4901256 3.208729
vt 0.49179697 3.0673637
vt 0.48850125 3.0673637
vt 3.0673637 0.5281128
vt 3.208729 0.5258917
vt 3.0673637 0.5267201
vt 3.0673637 0.52499866
vt 3.0673637 0.52360594
vt 0.50820297 3.0673637
vt 0.5098744 3.208729
vt 0.50985086 3.0673637
vt 0.5114987 3.0673637
vt -2.0673637 0.5236059
vt -2.208729 0.5258917
vt -2.0673637 0.52499866
vt -2.0673637 0.5267201
vt -2.0673637 0.5281128
vn -0.44088703 0.60682946 0.6613446
vn -0 -2.3662487E-06 1
vn -0.7133704 0.23178609 0.66134554
vn -0.71337074 -0.23179105 0.6613434
vn -0.4408865 -0.6068301 0.6613443
vn 0.44088688 -0.60683167 0.66134256
vn 0.71336967 -0.23179384 0.6613436
vn 0.7133708 0.23178318 0.661346
vn 0.44088688 0.60682744 0.66134655
vn -0.7133704 0.23178609 0.66134554
vn -0 -2.3662487E-06 1
vn -0.71337074 -0.23179105 0.6613434
vn 0.71336967 -0.23179384 0.6613436
vn -0 -2.3662487E-06 1
vn 0.7133708 0.23178318 0.661346
vn 7.0972885E-07 0.99993956 0.011000513
vn -0.58774847 0.80896884 0.011002763
vn -0.5877486 0.8089688 0.011002837
vn -1.2229729E-06 0.99993956 0.011000319
vn 0.58775014 0.80896777 0.010998188
vn 0.5877505 0.8089674 0.010998221
vn -0.9509975 0.3090027 0.011004297
vn -0.5877486 0.8089688 0.011002837
vn -0.58774847 0.80896884 0.011002763
vn -0.9509988 0.30899885 0.011004214
vn -0.95099986 -0.3089955 0.01100428
vn -0.9509993 -0.30899718 0.011004259
vn -0.58774734 -0.8089697 0.0110029355
vn -0.5877499 -0.8089678 0.011003094
vn 3.5631574E-06 -0.99993956 0.011000832
vn -0.5877499 -0.8089678 0.011003094
vn -0.58774734 -0.8089697 0.0110029355
vn 3.0388148E-06 -0.99993956 0.011000852
vn 0.5877477 -0.80896944 0.010998622
vn 0.5877472 -0.8089699 0.010998653
vn 0.95099866 -0.30899945 0.010997209
vn 0.5877472 -0.8089699 0.010998653
vn 0.5877477 -0.80896944 0.010998622
vn 0.9509975 -0.30900314 0.010997351
vn 0.9509991 0.30899808 0.0109971585
vn 0.9509991 0.30899784 0.010997022
vn 0.5877505 0.8089674 0.010998221
vn 0.58775014 0.80896777 0.010998188
vn -8.48091E-06 0.99990857 0.013526659
vn -0.5860674 0.80665356 -0.07638787
vn -0.5877335 0.80894154 0.013527702
vn 2.0017242E-06 0.9970782 -0.07638871
vn -0.5799195 0.7981928 -0.16303855
vn 0.58773035 0.80894387 0.013525602
vn 3.3140739E-06 0.9866195 -0.16303927
vn 0.58606994 0.8066515 -0.07639035
vn 0.57991564 0.7981947 -0.16304305
vn -0.95096946 -0.30898905 0.013528272
vn -0.58606905 -0.80665255 -0.07638597
vn -0.58773196 -0.8089426 0.013527331
vn -0.9482777 -0.3081145 -0.07638571
vn -0.579923 -0.79819125 -0.16303387
vn -0.95096856 0.3089915 0.01352844
vn -0.9383314 -0.30488315 -0.16303487
vn -0.9482772 0.30811575 -0.07638697
vn -0.5877335 0.80894154 0.013527702
vn -0.9383306 0.3048841 -0.16303785
vn -0.5860674 0.80665356 -0.07638787
vn -0.5799195 0.7981928 -0.16303855
vn 2.1002306E-07 -0.99990857 0.013526097
vn 0.5860654 -0.80665463 -0.07639114
vn 0.5877299 -0.8089441 0.013524895
vn 8.656109E-07 -0.9970782 -0.076388374
vn 0.57991266 -0.7981975 -0.16303994
vn -0.58773196 -0.8089426 0.013527331
vn -2.8714871E-06 -0.98661983 -0.16303723
vn -0.58606905 -0.80665255 -0.07638597
vn -0.579923 -0.79819125 -0.16303387
vn 0.9509704 0.3089859 0.013524705
vn 0.58606994 0.8066515 -0.07639035
vn 0.58773035 0.80894387 0.013525602
vn 0.94827634 0.30811685 -0.07639329
vn 0.57991564 0.7981947 -0.16304305
vn 0.9509685 -0.3089922 0.013524376
vn 0.9383264 0.30489144 -0.16304865
vn 0.9482762 -0.30811724 -0.076393746
vn 0.5877299 -0.8089441 0.013524895
vn 0.9383267 -0.30489177 -0.16304587
vn 0.5860654 -0.80665463 -0.07639114
vn 0.57991266 -0.7981975 -0.16303994
vn -0.4408865 -0.6068301 0.6613443
vn -0 -2.3662487E-06 1
vn 1.876457E-06 -0.7500841 0.6613425
vn 0.44088688 -0.60683167 0.66134256
vn 0.44088688 0.60682744 0.66134655
vn -0 -2.3662487E-06 1
vn -1.0786858E-06 0.7500805 0.66134655
vn -0.44088703 0.60682946 0.6613446
vn -1.8022537E-07 0.9998128 0.01935179
vn -0.58767045 0.8088688 0.0193556
vn -0.58767307 0.808867 0.019355392
vn -1.5364391E-06 0.9998128 0.019351283
vn 0.58767587 0.8088651 0.019347606
vn 0.5876756 0.80886525 0.019347332
vn -0.9508761 0.30896577 0.0193578
vn -0.58767307 0.808867 0.019355392
vn -0.58767045 0.8088688 0.0193556
vn -0.95087844 0.30895856 0.019357342
vn -0.9508789 -0.30895752 0.019357543
vn -0.9508777 -0.3089611 0.019357458
vn -0.5876747 -0.8088657 0.01935526
vn -0.5876756 -0.8088651 0.019355193
vn 2.1761073E-06 -0.9998128 0.01935131
vn -0.5876756 -0.8088651 0.019355193
vn -0.5876747 -0.8088657 0.01935526
vn -0 -0.9998128 0.019351356
vn 0.5876746 -0.808866 0.019347517
vn 0.5876726 -0.80886734 0.019347679
vn 0.95087856 -0.30895925 0.019345282
vn 0.5876726 -0.80886734 0.019347679
vn 0.5876746 -0.808866 0.019347517
vn 0.95087683 -0.3089643 0.019345362
vn 0.9508788 0.3089586 0.019345153
vn 0.95087963 0.3089557 0.01934514
vn 0.5876756 0.80886525 0.019347332
vn 0.58767587 0.8088651 0.019347606
vn -0.47852543 0.6586383 0.58069694
vn -3.089487E-07 -2.8246736E-06 1
vn -0.7742737 0.25157496 0.580698
vn -0.77427334 -0.25158247 0.58069533
vn -0.47852805 -0.6586386 0.5806946
vn -0.47852805 -0.6586386 0.5806946
vn -3.089487E-07 -2.8246736E-06 1
vn 5.875583E-07 -0.8141214 0.5806946
vn 0.47852695 -0.65863985 0.58069384
vn 0.47852695 -0.65863985 0.58069384
vn -3.089487E-07 -2.8246736E-06 1
vn 0.77427244 -0.25158414 0.5806957
vn 0.7742756 0.25156978 0.5806978
vn 0.47852698 0.65863484 0.58069956
vn 0.47852698 0.65863484 0.58069956
vn -3.089487E-07 -2.8246736E-06 1
vn -1.9843908E-06 0.81411904 0.5806979
vn -0.47852543 0.6586383 0.58069694
vn 0.0007580334 0.37596282 0.9266344
vn -0.22504695 0.30606276 0.9250294
vn -0.22224088 0.30801862 0.9250586
vn -0.0013148047 0.3759877 0.92662376
vn -0.36663857 0.116791055 0.92300373
vn 0.22014824 0.30297348 0.9272227
vn -0.3654893 0.12010579 0.92303425
vn 0.22015116 0.3029818 0.9272192
vn -0.36934033 -0.121481225 0.9213197
vn 0.35737252 0.116900474 0.9266171
vn -0.36999547 -0.11935585 0.9213346
vn 0.3580398 0.11495274 0.9266032
vn -0.22943492 -0.31576678 0.92067957
vn 0.3616737 -0.116179995 0.9250375
vn -0.22942846 -0.31577092 0.92067975
vn 0.3606717 -0.119453415 0.92501175
vn -0.0013937219 -0.38879535 0.92132306
vn 0.22718719 -0.31048825 0.92302924
vn 0.0008238812 -0.38877627 0.9213319
vn 0.22437617 -0.3126057 0.9230021
vn 3.0688883E-05 -0.99981123 0.019429225
vn 0.0056058285 -0.006778559 0.9999614
vn 0.587716 -0.8088306 0.019568684
vn -0.58767915 -0.80886203 0.019376663
vn 0.587716 -0.8088306 0.019568684
vn 0.0056058285 -0.006778559 0.9999614
vn 0.9508868 -0.30890885 0.019742139
vn 0.950858 0.30898836 0.019883046
vn 0.58767104 0.80885416 0.019937662
vn 0.58767104 0.80885416 0.019937662
vn 0.0056058285 -0.006778559 0.9999614
vn 4.0014158E-05 0.9998023 0.01988531
vn -0.58762825 0.8088901 0.0197458
vn -0.58762825 0.8088901 0.0197458
vn 0.0056058285 -0.006778559 0.9999614
vn -0.95085907 0.3090046 0.019572336
vn -0.95088685 -0.30892807 0.019431392
vn -0.58767915 -0.80886203 0.019376663
g NY_gun_cal254C_barrel_001_0
f 3/3/3 2/2/2 1/1/1
f 5/5/5 2/2/2 4/4/4
f 7/7/7 2/2/2 6/6/6
f 9/9/9 2/2/2 8/8/8
f 12/12/12 11/11/11 10/10/10
f 15/15/15 14/14/14 13/13/13
f 18/18/18 17/17/17 16/16/16
f 19/19/19 16/16/16 17/17/17
f 16/16/16 19/19/19 20/20/20
f 21/21/21 20/20/20 19/19/19
f 24/24/24 23/23/23 22/22/22
f 25/25/25 22/22/22 23/23/23
f 22/22/22 25/25/25 26/26/26
f 27/27/27 26/26/26 25/25/25
f 26/26/26 27/27/27 28/28/28
f 29/29/29 28/28/28 27/27/27
f 32/32/32 31/31/31 30/30/30
f 33/33/33 30/30/30 31/31/31
f 30/30/30 33/33/33 34/34/34
f 35/35/35 34/34/34 33/33/33
f 38/38/38 37/37/37 36/36/36
f 39/39/39 36/36/36 37/37/37
f 36/36/36 39/39/39 40/40/40
f 41/41/41 40/40/40 39/39/39
f 40/40/40 41/41/41 42/42/42
f 43/43/43 42/42/42 41/41/41
f 46/46/46 45/45/45 44/44/44
f 47/47/47 44/44/44 45/45/45
f 45/45/45 48/48/48 47/47/47
f 44/44/44 47/47/47 49/49/49
f 50/50/50 47/47/47 48/48/48
f 51/51/51 49/49/49 47/47/47
f 47/47/47 50/50/50 51/51/51
f 52/52/52 51/51/51 50/50/50
f 55/55/55 54/54/54 53/53/53
f 56/56/56 53/53/53 54/54/54
f 54/54/54 57/57/57 56/56/56
f 53/53/53 56/56/56 58/58/58
f 59/59/59 56/56/56 57/57/57
f 60/60/60 58/58/58 56/56/56
f 56/56/56 59/59/59 60/60/60
f 58/58/58 60/60/60 61/61/61
f 62/62/62 60/60/60 59/59/59
f 63/63/63 61/61/61 60/60/60
f 60/60/60 62/62/62 63/63/63
f 64/64/64 63/63/63 62/62/62
f 67/67/67 66/66/66 65/65/65
f 68/68/68 65/65/65 66/66/66
f 66/66/66 69/69/69 68/68/68
f 65/65/65 68/68/68 70/70/70
f 71/71/71 68/68/68 69/69/69
f 72/72/72 70/70/70 68/68/68
f 68/68/68 71/71/71 72/72/72
f 73/73/73 72/72/72 71/71/71
f 76/76/76 75/75/75 74/74/74
f 77/77/77 74/74/74 75/75/75
f 75/75/75 78/78/78 77/77/77
f 74/74/74 77/77/77 79/79/79
f 80/80/80 77/77/77 78/78/78
f 81/81/81 79/79/79 77/77/77
f 77/77/77 80/80/80 81/81/81
f 79/79/79 81/81/81 82/82/82
f 83/83/83 81/81/81 80/80/80
f 84/84/84 82/82/82 81/81/81
f 81/81/81 83/83/83 84/84/84
f 85/85/85 84/84/84 83/83/83
f 88/88/88 87/87/87 86/86/86
f 89/89/89 87/87/87 88/88/88
f 92/92/92 91/91/91 90/90/90
f 93/93/93 91/91/91 92/92/92
f 96/96/96 95/95/95 94/94/94
f 97/97/97 94/94/94 95/95/95
f 94/94/94 97/97/97 98/98/98
f 99/99/99 98/98/98 97/97/97
f 102/102/102 101/101/101 100/100/100
f 103/103/103 100/100/100 101/101/101
f 100/100/100 103/103/103 104/104/104
f 105/105/105 104/104/104 103/103/103
f 104/104/104 105/105/105 106/106/106
f 107/107/107 106/106/106 105/105/105
f 110/110/110 109/109/109 108/108/108
f 111/111/111 108/108/108 109/109/109
f 108/108/108 111/111/111 112/112/112
f 113/113/113 112/112/112 111/111/111
f 116/116/116 115/115/115 114/114/114
f 117/117/117 114/114/114 115/115/115
f 114/114/114 117/117/117 118/118/118
f 119/119/119 118/118/118 117/117/117
f 118/118/118 119/119/119 120/120/120
f 121/121/121 120/120/120 119/119/119
f 124/124/124 123/123/123 122/122/122
f 125/125/125 123/123/123 124/124/124
f 126/126/126 123/123/123 125/125/125
f 129/129/129 128/128/128 127/127/127
f 130/130/130 128/128/128 129/129/129
f 133/133/133 132/132/132 131/131/131
f 134/134/134 132/132/132 133/133/133
f 135/135/135 132/132/132 134/134/134
f 138/138/138 137/137/137 136/136/136
f 139/139/139 137/137/137 138/138/138
g NY_gun_cal254C_barrel_001_1
f 142/142/142 141/141/141 140/140/140
f 143/143/143 140/140/140 141/141/141
f 141/141/141 142/142/142 144/144/144
f 140/140/140 143/143/143 145/145/145
f 146/146/146 144/144/144 142/142/142
f 147/147/147 145/145/145 143/143/143
f 144/144/144 146/146/146 148/148/148
f 145/145/145 147/147/147 149/149/149
f 150/150/150 148/148/148 146/146/146
f 151/151/151 149/149/149 147/147/147
f 148/148/148 150/150/150 152/152/152
f 149/149/149 151/151/151 153/153/153
f 154/154/154 152/152/152 150/150/150
f 155/155/155 153/153/153 151/151/151
f 152/152/152 154/154/154 156/156/156
f 153/153/153 155/155/155 157/157/157
f 158/158/158 156/156/156 154/154/154
f 159/159/159 157/157/157 155/155/155
f 156/156/156 158/158/158 159/159/159
f 157/157/157 159/159/159 158/158/158
g NY_gun_cal254C_barrel_001_2
f 162/162/162 161/161/161 160/160/160
f 163/163/163 160/160/160 161/161/161
f 166/166/166 165/165/165 164/164/164
f 167/167/167 165/165/165 166/166/166
f 168/168/168 165/165/165 167/167/167
f 171/171/171 170/170/170 169/169/169
f 172/172/172 170/170/170 171/171/171
f 175/175/175 174/174/174 173/173/173
f 176/176/176 174/174/174 175/175/175
f 177/177/177 174/174/174 176/176/176
