g NY_gun_cal210C_barrel_001
v -0.19440079 0.26750657 1.4376711
v -4.6615598E-05 -1.5258789E-07 1.8126931
v -0.3145198 0.10217849 1.4376711
v -0.3145201 -0.10217865 1.4376692
v -0.19440201 -0.26750794 1.437669
v 0.19430786 -0.26750687 1.437669
v 0.31442687 -0.10217865 1.4376692
v 0.31442687 0.10217849 1.4376711
v 0.19430892 0.2675076 1.4376711
v -0.3145198 0.10217849 1.4376711
v -4.6615598E-05 -1.5258789E-07 1.8126931
v -0.3145201 -0.10217865 1.4376692
v 0.31442687 -0.10217865 1.4376692
v -4.6615598E-05 -1.5258789E-07 1.8126931
v 0.31442687 0.10217849 1.4376711
v -5.554199E-05 0.359449 -1.1794602
v -0.19440079 0.26750657 1.4376711
v -0.21133415 0.29080015 -1.1794572
v -4.5318604E-05 0.33065718 1.4376711
v 0.21122268 0.29080015 -1.1794602
v 0.19430892 0.2675076 1.4376711
v -0.3145198 0.10217849 1.4376711
v -0.21133415 0.29080015 -1.1794572
v -0.19440079 0.26750657 1.4376711
v -0.3419126 0.1110762 -1.1794573
v -0.3145201 -0.10217865 1.4376692
v -0.3419126 -0.11107544 -1.1794602
v -0.19440201 -0.26750794 1.437669
v -0.21133552 -0.29080063 -1.1794612
v -4.684448E-05 -0.33065626 1.437669
v -0.21133552 -0.29080063 -1.1794612
v -0.19440201 -0.26750794 1.437669
v -5.6915283E-05 -0.35944822 -1.1794612
v 0.19430786 -0.26750687 1.437669
v 0.21122146 -0.2907994 -1.1794612
v 0.31442687 -0.10217865 1.4376692
v 0.21122146 -0.2907994 -1.1794612
v 0.19430786 -0.26750687 1.437669
v 0.3418002 -0.111076504 -1.1794621
v 0.31442687 0.10217849 1.4376711
v 0.34180006 0.1110762 -1.1794611
v 0.19430892 0.2675076 1.4376711
v 0.21122268 0.29080015 -1.1794602
v -6.988525E-05 0.23962936 1.4376711
v -0.09519531 0.13090943 4.900895
v -0.14093947 0.19385666 1.4376711
v -5.805969E-05 0.16182174 4.900895
v -0.10890129 0.14977416 5.0420017
v 0.14079955 0.19385925 1.4376711
v -5.7678222E-05 0.18513946 5.0420027
v 0.09507797 0.13090943 4.900895
v 0.10878433 0.14977416 5.0420017
v -0.22800292 -0.07409149 1.4376692
v -0.09519577 -0.13097961 4.900895
v -0.14094025 -0.19392334 1.4376681
v -0.15399337 -0.05005142 4.900895
v -0.10890137 -0.14984436 5.042004
v -0.22800255 0.07402618 1.4376701
v -0.17616989 -0.057256162 5.0420017
v -0.15399337 0.049981534 4.900895
v -0.14093947 0.19385666 1.4376711
v -0.17616989 0.05718704 5.0420017
v -0.09519531 0.13090943 4.900895
v -0.10890129 0.14977416 5.0420017
v -7.072448E-05 -0.23969497 1.4376681
v 0.09507705 -0.13097961 4.900895
v 0.14079803 -0.19392334 1.4376681
v -5.8898924E-05 -0.16189179 4.900895
v 0.10878342 -0.14984436 5.0420017
v -0.14094025 -0.19392334 1.4376681
v -5.844116E-05 -0.18520965 5.0420012
v -0.09519577 -0.13097961 4.900895
v -0.10890137 -0.14984436 5.042004
v 0.22786163 0.074027404 1.4376701
v 0.09507797 0.13090943 4.900895
v 0.14079955 0.19385925 1.4376711
v 0.15387543 0.049981534 4.9008923
v 0.10878433 0.14977416 5.0420017
v 0.22786163 -0.07409149 1.4376692
v 0.17605332 0.05718704 5.041997
v 0.15387589 -0.05005142 4.9008923
v 0.14079803 -0.19392334 1.4376681
v 0.17605332 -0.057257384 5.041997
v 0.09507705 -0.13097961 4.900895
v 0.10878342 -0.14984436 5.0420017
v -0.19440201 -0.26750794 1.437669
v -4.6615598E-05 -1.5258789E-07 1.8126931
v -4.684448E-05 -0.33065626 1.437669
v 0.19430786 -0.26750687 1.437669
v 0.19430892 0.2675076 1.4376711
v -4.6615598E-05 -1.5258789E-07 1.8126931
v -4.5318604E-05 0.33065718 1.4376711
v -0.19440079 0.26750657 1.4376711
v -5.4016113E-05 0.2907884 1.1984296
v -0.15727721 0.21640792 2.4018633
v -0.17097633 0.23525268 1.1984296
v -4.623413E-05 0.26749557 2.4018633
v 0.17086746 0.23525268 1.1984296
v 0.15718399 0.21640915 2.4018633
v -0.25445214 0.08266052 2.4018633
v -0.17097633 0.23525268 1.1984296
v -0.15727721 0.21640792 2.4018633
v -0.2766123 0.08985855 1.1984296
v -0.25445235 -0.08266266 2.401861
v -0.2766123 -0.089860685 1.1984276
v -0.15727828 -0.21641128 2.4018607
v -0.17097718 -0.23525481 1.1984276
v -4.7454832E-05 -0.2674986 2.4018607
v -0.17097718 -0.23525481 1.1984276
v -0.15727828 -0.21641128 2.4018607
v -5.5236815E-05 -0.29079056 1.1984274
v 0.15718277 -0.21641128 2.4018607
v 0.17086624 -0.23525481 1.1984247
v 0.25435805 -0.08266266 2.401861
v 0.17086624 -0.23525481 1.1984247
v 0.15718277 -0.21641128 2.4018607
v 0.27650252 -0.089860685 1.1984247
v 0.2543576 0.0826593 2.4018633
v 0.27650252 0.089857325 1.1984296
v 0.15718399 0.21640915 2.4018633
v 0.17086746 0.23525268 1.1984296
v -0.15727721 0.21640792 2.4018633
v -4.737854E-05 -1.6784668E-06 2.776886
v -0.25445214 0.08266052 2.4018633
v -0.25445235 -0.08266266 2.401861
v -0.15727828 -0.21641128 2.4018607
v -0.15727828 -0.21641128 2.4018607
v -4.737854E-05 -1.6784668E-06 2.776886
v -4.7454832E-05 -0.2674986 2.4018607
v 0.15718277 -0.21641128 2.4018607
v 0.15718277 -0.21641128 2.4018607
v -4.737854E-05 -1.6784668E-06 2.776886
v 0.25435805 -0.08266266 2.401861
v 0.2543576 0.0826593 2.4018633
v 0.15718399 0.21640915 2.4018633
v 0.15718399 0.21640915 2.4018633
v -4.737854E-05 -1.6784668E-06 2.776886
v -4.623413E-05 0.26749557 2.4018633
v -0.15727721 0.21640792 2.4018633
v -5.7678222E-05 0.18513946 5.0420027
v -0.06946587 0.09279739 5.070448
v -0.10890129 0.14977416 5.0420017
v -0.0010383605 0.11503143 5.070448
v -0.11175667 0.034589842 5.070448
v 0.10878433 0.14977416 5.0420017
v -0.17616989 0.05718704 5.0420017
v 0.06738861 0.09279739 5.070448
v -0.11175659 -0.03735855 5.070448
v 0.17605332 0.05718704 5.041997
v -0.17616989 -0.057256162 5.0420017
v 0.1096791 0.034589842 5.070448
v -0.06946609 -0.0955661 5.070448
v 0.17605332 -0.057257384 5.041997
v -0.10890137 -0.14984436 5.042004
v 0.1096791 -0.03735855 5.070448
v -0.0010388184 -0.11780029 5.070448
v 0.10878342 -0.14984436 5.0420017
v -5.844116E-05 -0.18520965 5.0420012
v 0.0673883 -0.09556747 5.070448
v -0.0010383605 0.11503143 5.070448
v -7.095337E-05 -3.250122E-05 1.4376711
v -0.06946587 0.09279739 5.070448
v 0.06738861 0.09279739 5.070448
v -0.06946587 0.09279739 5.070448
v -7.095337E-05 -3.250122E-05 1.4376711
v -0.11175667 0.034589842 5.070448
v -0.11175659 -0.03735855 5.070448
v -0.06946609 -0.0955661 5.070448
v -0.06946609 -0.0955661 5.070448
v -7.095337E-05 -3.250122E-05 1.4376711
v -0.0010388184 -0.11780029 5.070448
v 0.0673883 -0.09556747 5.070448
v 0.0673883 -0.09556747 5.070448
v -7.095337E-05 -3.250122E-05 1.4376711
v 0.1096791 -0.03735855 5.070448
v 0.1096791 0.034589842 5.070448
v 0.06738861 0.09279739 5.070448
vt 0.49078408 0.5289103
vt 0.4937327 0.52487224
vt 0.48896173 0.52641463
vt 0.48896173 0.52332985
vt 0.49078408 0.52083415
vt 0.4966813 0.52083415
vt 0.49850368 0.52332985
vt 0.49850368 0.52641463
vt 0.49668133 0.52891034
vt -2.2402208 0.52641463
vt -2.234536 0.52487224
vt -2.240221 0.52332985
vt 3.240221 0.52332985
vt 3.234536 0.52487224
vt 3.2402208 0.52641463
vt 0.49373266 3.2798946
vt 0.49078408 3.2402208
vt 0.49052727 3.2798946
vt 0.49373272 3.2402208
vt 0.49693802 3.2798946
vt 0.49668133 3.2402208
vt -2.2402208 0.52641463
vt -2.2798946 0.52926195
vt -2.2402208 0.5289103
vt -2.2798946 0.526549
vt -2.240221 0.52332985
vt -2.2798946 0.52319556
vt -2.240221 0.52083415
vt -2.2798946 0.52048254
vt 0.5062673 3.240221
vt 0.5094727 3.2798946
vt 0.50921595 3.240221
vt 0.50626737 3.2798946
vt 0.50331867 3.240221
vt 0.503062 3.2798946
vt 3.240221 0.52332985
vt 3.2798946 0.52048254
vt 3.240221 0.52083415
vt 3.2798946 0.5231955
vt 3.2402208 0.52641463
vt 3.2798946 0.526549
vt 3.2402208 0.52891034
vt 3.2798946 0.52926195
vt 0.49373233 3.2402208
vt 0.49228907 3.1877213
vt 0.49159518 3.2402208
vt 0.49373242 3.1877213
vt 0.4920811 3.1855822
vt 0.49586952 3.2402208
vt 0.49373242 3.1855822
vt 0.49517575 3.1877213
vt 0.4953837 3.1855822
vt -2.240221 0.5237538
vt -2.1877213 0.5228951
vt -2.240221 0.52194494
vt -2.1877213 0.5241167
vt -2.1855822 0.5226103
vt -2.240221 0.52598965
vt -2.1855822 0.5240079
vt -2.1877213 0.5256267
vt -2.2402208 0.52779853
vt -2.1855822 0.5257355
vt -2.1877213 0.5268483
vt -2.1855822 0.5271331
vt 0.50626767 3.240221
vt 0.5048243 3.1877213
vt 0.5041305 3.240221
vt 0.5062676 3.1877213
vt 0.5046163 3.1855822
vt 0.50840485 3.240221
vt 0.5062676 3.1855822
vt 0.50771093 3.1877213
vt 0.5079189 3.1855822
vt 3.240221 0.5259897
vt 3.1877213 0.5268483
vt 3.2402208 0.5277986
vt 3.1877213 0.5256267
vt 3.1855822 0.5271331
vt 3.240221 0.5237538
vt 3.1855822 0.5257355
vt 3.1877213 0.5241167
vt 3.240221 0.52194494
vt 3.1855822 0.5240079
vt 3.1877213 0.5228951
vt 3.1855822 0.5226103
vt 0.50921595 3.240221
vt 0.5062673 3.234536
vt 0.5062673 3.240221
vt 0.50331867 3.240221
vt 0.49668133 3.2402208
vt 0.4937327 3.234536
vt 0.49373272 3.2402208
vt 0.49078408 3.2402208
vt 0.4937326 3.2438476
vt 0.49134728 3.2256045
vt 0.49113947 3.2438476
vt 0.49373266 3.2256045
vt 0.4963257 3.2438476
vt 0.49611807 3.2256045
vt -2.2256045 0.52612
vt -2.2438476 0.5284234
vt -2.2256045 0.52813894
vt -2.2438476 0.52622867
vt -2.2256045 0.5236244
vt -2.2438476 0.52351576
vt -2.2256045 0.5216055
vt -2.2438476 0.521321
vt 0.5062673 3.2256045
vt 0.5088605 3.2438476
vt 0.50865275 3.2256045
vt 0.5062674 3.2438476
vt 0.50388193 3.2256045
vt 0.5036743 3.2438476
vt 3.2256045 0.5236244
vt 3.2438476 0.521321
vt 3.2256045 0.5216055
vt 3.2438476 0.52351576
vt 3.2256045 0.52612
vt 3.2438476 0.52622867
vt 3.2256045 0.528139
vt 3.2438476 0.5284234
vt -2.2256045 0.52813894
vt -2.2199194 0.52487224
vt -2.2256045 0.52612
vt -2.2256045 0.5236244
vt -2.2256045 0.5216055
vt 0.50865275 3.2256045
vt 0.50626737 3.2199194
vt 0.5062673 3.2256045
vt 0.50388193 3.2256045
vt 3.2256045 0.5216055
vt 3.2199194 0.52487224
vt 3.2256045 0.5236244
vt 3.2256045 0.52612
vt 3.2256045 0.528139
vt 0.49611807 3.2256045
vt 0.49373263 3.2199194
vt 0.49373266 3.2256045
vt 0.49134728 3.2256045
vt 0.49373242 0.5276669
vt 0.4926794 0.526273
vt 0.4920811 0.5271331
vt 0.49371755 0.52660865
vt 0.4920378 0.5253944
vt 0.4953837 0.5271331
vt 0.49106055 0.5257355
vt 0.49475566 0.526273
vt 0.4920378 0.5243083
vt 0.49640426 0.5257355
vt 0.49106055 0.5240079
vt 0.49539727 0.5253944
vt 0.4926794 0.52342963
vt 0.49640426 0.5240079
vt 0.4920811 0.5226103
vt 0.49539727 0.5243083
vt 0.49371752 0.523094
vt 0.49538368 0.5226103
vt 0.4937324 0.5220765
vt 0.49475566 0.52342963
vt 0.50628245 3.1851509
vt 0.50626767 3.2402208
vt 0.50732064 3.1851509
vt 0.5052444 3.1851509
vt 3.1851509 0.526273
vt 3.2402208 0.52487177
vt 3.1851509 0.5253944
vt 3.1851509 0.5243083
vt 3.1851509 0.52342963
vt 0.4926794 3.1851509
vt 0.49373233 3.2402208
vt 0.49371752 3.1851509
vt 0.49475566 3.1851509
vt -2.1851509 0.52342963
vt -2.2402208 0.52487177
vt -2.1851509 0.5243083
vt -2.1851509 0.5253944
vt -2.1851509 0.526273
vn -0.44088665 0.6068292 0.6613451
vn -0 -2.0056748E-06 1
vn -0.71336997 0.23178634 0.66134596
vn -0.71336997 -0.23179053 0.66134435
vn -0.4408856 -0.60683 0.6613449
vn 0.4408862 -0.6068315 0.6613433
vn 0.71336925 -0.23179318 0.6613443
vn 0.7133706 0.23178345 0.6613462
vn 0.4408868 0.6068271 0.661347
vn -0.71336997 0.23178634 0.66134596
vn -0 -2.0056748E-06 1
vn -0.71336997 -0.23179053 0.66134435
vn 0.71336925 -0.23179318 0.6613443
vn -0 -2.0056748E-06 1
vn 0.7133706 0.23178345 0.6613462
vn 6.897365E-07 0.99993956 0.011000714
vn -0.5877485 0.80896884 0.011002937
vn -0.5877476 0.80896956 0.011003056
vn -7.3216546E-07 0.99993956 0.01100056
vn 0.5877499 0.8089679 0.010998347
vn 0.5877512 0.80896693 0.010998452
vn -0.9509977 0.3090023 0.011004376
vn -0.5877476 0.80896956 0.011003056
vn -0.5877485 0.80896884 0.011002937
vn -0.95099866 0.30899915 0.011004333
vn -0.95099974 -0.30899584 0.011004234
vn -0.95099896 -0.3089983 0.011004196
vn -0.5877476 -0.80896956 0.011002752
vn -0.58774924 -0.8089683 0.011002887
vn 3.4138623E-06 -0.99993956 0.011000568
vn -0.58774924 -0.8089683 0.011002887
vn -0.5877476 -0.80896956 0.011002752
vn 1.929254E-06 -0.99993956 0.011000581
vn 0.5877481 -0.8089692 0.010998373
vn 0.58774674 -0.8089702 0.010998447
vn 0.95099866 -0.30899936 0.010997131
vn 0.58774674 -0.8089702 0.010998447
vn 0.5877481 -0.8089692 0.010998373
vn 0.9509976 -0.30900264 0.010997298
vn 0.9509992 0.30899775 0.010997281
vn 0.95099896 0.30899835 0.010997103
vn 0.5877512 0.80896693 0.010998452
vn 0.5877499 0.8089679 0.010998347
vn -9.036765E-06 0.9997477 0.02246106
vn -0.58626306 0.80692226 -0.07191777
vn -0.5876389 0.8088114 0.022462765
vn 2.4825629E-06 0.9974106 -0.07191797
vn -0.5799196 0.7981926 -0.16303918
vn 0.5876363 0.8088134 0.022459297
vn 3.422151E-06 0.9866197 -0.16303828
vn 0.58626515 0.80692047 -0.07192106
vn 0.57991403 0.79819584 -0.16304322
vn -0.9508167 -0.3089383 0.022463564
vn -0.5862652 -0.80692077 -0.07191666
vn -0.58763826 -0.80881196 0.022461938
vn -0.948594 -0.3082169 -0.071915954
vn -0.5799234 -0.7981906 -0.16303594
vn -0.95081544 0.3089422 0.022463914
vn -0.9383313 -0.3048827 -0.1630365
vn -0.9485932 0.30821884 -0.0719166
vn -0.5876389 0.8088114 0.022462765
vn -0.9383307 0.30488312 -0.16303883
vn -0.58626306 0.80692226 -0.07191777
vn -0.5799196 0.7981926 -0.16303918
vn -0 -0.9997477 0.022459878
vn 0.5862607 -0.8069234 -0.07192288
vn 0.587636 -0.80881363 0.022457901
vn 1.2044114E-06 -0.9974105 -0.07191955
vn 0.5799125 -0.79819727 -0.16304153
vn -0.58763826 -0.80881196 0.022461938
vn -1.5849766E-06 -0.9866195 -0.16303925
vn -0.5862652 -0.80692077 -0.07191666
vn -0.5799234 -0.7981906 -0.16303594
vn 0.9508177 0.30893573 0.022457756
vn 0.58626515 0.80692047 -0.07192106
vn 0.5876363 0.8088134 0.022459297
vn 0.94859225 0.30822036 -0.07192369
vn 0.57991403 0.79819584 -0.16304322
vn 0.9508156 -0.30894217 0.022457127
vn 0.9383266 0.30489096 -0.16304804
vn 0.94859225 -0.30822006 -0.07192424
vn 0.587636 -0.80881363 0.022457901
vn 0.93832606 -0.30489352 -0.1630461
vn 0.5862607 -0.8069234 -0.07192288
vn 0.5799125 -0.79819727 -0.16304153
vn -0.4408856 -0.60683 0.6613449
vn -0 -2.0056748E-06 1
vn 1.8539848E-06 -0.7500833 0.6613433
vn 0.4408862 -0.6068315 0.6613433
vn 0.4408868 0.6068271 0.661347
vn -0 -2.0056748E-06 1
vn -7.1912444E-07 0.75008047 0.6613467
vn -0.44088665 0.6068292 0.6613451
vn -6.708375E-07 0.9998128 0.019351875
vn -0.5876712 0.8088683 0.019355673
vn -0.5876734 0.8088666 0.019355588
vn -1.279331E-06 0.9998128 0.019351391
vn 0.5876758 0.8088652 0.019347694
vn 0.58767676 0.8088644 0.019347604
vn -0.9508763 0.30896524 0.019357849
vn -0.5876734 0.8088666 0.019355588
vn -0.5876712 0.8088683 0.019355673
vn -0.95087814 0.30895963 0.01935747
vn -0.9508789 -0.3089574 0.019357482
vn -0.9508779 -0.30896014 0.01935735
vn -0.5876742 -0.8088661 0.019354975
vn -0.5876754 -0.80886525 0.019354906
vn 1.8680729E-06 -0.9998128 0.019350987
vn -0.5876754 -0.80886525 0.019354906
vn -0.5876742 -0.8088661 0.019354975
vn 1.0913571E-06 -0.9998128 0.019350989
vn 0.5876739 -0.8088665 0.019347329
vn 0.58767354 -0.8088668 0.019347353
vn 0.9508787 -0.3089588 0.019345125
vn 0.58767354 -0.8088668 0.019347353
vn 0.5876739 -0.8088665 0.019347329
vn 0.95087665 -0.3089651 0.0193453
vn 0.9508789 0.3089582 0.019345293
vn 0.95088 0.30895478 0.01934532
vn 0.58767676 0.8088644 0.019347604
vn 0.5876758 0.8088652 0.019347694
vn -0.47852546 0.6586387 0.5806964
vn -4.376777E-07 -2.5157271E-06 1
vn -0.7742739 0.25157532 0.58069766
vn -0.77427363 -0.25158253 0.5806949
vn -0.47852805 -0.65863866 0.5806944
vn -0.47852805 -0.65863866 0.5806944
vn -4.376777E-07 -2.5157271E-06 1
vn 3.8800994E-07 -0.81412166 0.5806943
vn 0.47852674 -0.65864015 0.5806939
vn 0.47852674 -0.65864015 0.5806939
vn -4.376777E-07 -2.5157271E-06 1
vn 0.7742726 -0.25158396 0.58069557
vn 0.7742757 0.25157025 0.58069736
vn 0.4785273 0.65863514 0.580699
vn 0.4785273 0.65863514 0.580699
vn -4.376777E-07 -2.5157271E-06 1
vn -1.7072422E-06 0.8141194 0.5806975
vn -0.47852546 0.6586387 0.5806964
vn 0.00075874175 0.37596017 0.9266355
vn -0.22504894 0.30606306 0.9250289
vn -0.22224484 0.30801928 0.9250575
vn -0.001312786 0.3759851 0.9266248
vn -0.3666414 0.116792016 0.92300254
vn 0.22015159 0.30297297 0.927222
vn -0.36549255 0.120106444 0.9230328
vn 0.22015357 0.30298427 0.9272178
vn -0.36934367 -0.12148281 0.9213181
vn 0.35737792 0.11690129 0.9266148
vn -0.3699996 -0.11935924 0.9213326
vn 0.3580455 0.11495506 0.92660064
vn -0.22943929 -0.31577605 0.9206754
vn 0.36168012 -0.11618111 0.9250348
vn -0.22943307 -0.31578162 0.9206749
vn 0.36067757 -0.119454786 0.9250093
vn -0.0013939614 -0.3888068 0.92131823
vn 0.2271884 -0.31049317 0.92302734
vn 0.00082215277 -0.3887867 0.9213274
vn 0.2243774 -0.3126116 0.9229999
vn 5.0715065E-05 -0.9994987 0.03165796
vn -0.0019127633 -0.0011477352 0.9999975
vn 0.58755547 -0.8085554 0.031885102
vn -0.5874958 -0.80861115 0.031572398
vn 0.58755547 -0.8085554 0.031885102
vn -0.0019127633 -0.0011477352 0.9999975
vn 0.9505898 -0.3087786 0.032167662
vn 0.95054036 0.30890682 0.03239725
vn 0.5874778 0.80858797 0.032486282
vn 0.5874778 0.80858797 0.032486282
vn -0.0019127633 -0.0011477352 0.9999975
vn 6.0549555E-05 0.99947494 0.032401107
vn -0.58741194 0.80864835 0.03217389
vn -0.58741194 0.80864835 0.03217389
vn -0.0019127633 -0.0011477352 0.9999975
vn -0.95054734 0.3089382 0.031891327
vn -0.9505956 -0.308813 0.031661663
vn -0.5874958 -0.80861115 0.031572398
g NY_gun_cal210C_barrel_001_0
f 3/3/3 2/2/2 1/1/1
f 5/5/5 2/2/2 4/4/4
f 7/7/7 2/2/2 6/6/6
f 9/9/9 2/2/2 8/8/8
f 12/12/12 11/11/11 10/10/10
f 15/15/15 14/14/14 13/13/13
f 18/18/18 17/17/17 16/16/16
f 19/19/19 16/16/16 17/17/17
f 16/16/16 19/19/19 20/20/20
f 21/21/21 20/20/20 19/19/19
f 24/24/24 23/23/23 22/22/22
f 25/25/25 22/22/22 23/23/23
f 22/22/22 25/25/25 26/26/26
f 27/27/27 26/26/26 25/25/25
f 26/26/26 27/27/27 28/28/28
f 29/29/29 28/28/28 27/27/27
f 32/32/32 31/31/31 30/30/30
f 33/33/33 30/30/30 31/31/31
f 30/30/30 33/33/33 34/34/34
f 35/35/35 34/34/34 33/33/33
f 38/38/38 37/37/37 36/36/36
f 39/39/39 36/36/36 37/37/37
f 36/36/36 39/39/39 40/40/40
f 41/41/41 40/40/40 39/39/39
f 40/40/40 41/41/41 42/42/42
f 43/43/43 42/42/42 41/41/41
f 46/46/46 45/45/45 44/44/44
f 47/47/47 44/44/44 45/45/45
f 45/45/45 48/48/48 47/47/47
f 44/44/44 47/47/47 49/49/49
f 50/50/50 47/47/47 48/48/48
f 51/51/51 49/49/49 47/47/47
f 47/47/47 50/50/50 51/51/51
f 52/52/52 51/51/51 50/50/50
f 55/55/55 54/54/54 53/53/53
f 56/56/56 53/53/53 54/54/54
f 54/54/54 57/57/57 56/56/56
f 53/53/53 56/56/56 58/58/58
f 59/59/59 56/56/56 57/57/57
f 60/60/60 58/58/58 56/56/56
f 56/56/56 59/59/59 60/60/60
f 58/58/58 60/60/60 61/61/61
f 62/62/62 60/60/60 59/59/59
f 63/63/63 61/61/61 60/60/60
f 60/60/60 62/62/62 63/63/63
f 64/64/64 63/63/63 62/62/62
f 67/67/67 66/66/66 65/65/65
f 68/68/68 65/65/65 66/66/66
f 66/66/66 69/69/69 68/68/68
f 65/65/65 68/68/68 70/70/70
f 71/71/71 68/68/68 69/69/69
f 72/72/72 70/70/70 68/68/68
f 68/68/68 71/71/71 72/72/72
f 73/73/73 72/72/72 71/71/71
f 76/76/76 75/75/75 74/74/74
f 77/77/77 74/74/74 75/75/75
f 75/75/75 78/78/78 77/77/77
f 74/74/74 77/77/77 79/79/79
f 80/80/80 77/77/77 78/78/78
f 81/81/81 79/79/79 77/77/77
f 77/77/77 80/80/80 81/81/81
f 79/79/79 81/81/81 82/82/82
f 83/83/83 81/81/81 80/80/80
f 84/84/84 82/82/82 81/81/81
f 81/81/81 83/83/83 84/84/84
f 85/85/85 84/84/84 83/83/83
f 88/88/88 87/87/87 86/86/86
f 89/89/89 87/87/87 88/88/88
f 92/92/92 91/91/91 90/90/90
f 93/93/93 91/91/91 92/92/92
f 96/96/96 95/95/95 94/94/94
f 97/97/97 94/94/94 95/95/95
f 94/94/94 97/97/97 98/98/98
f 99/99/99 98/98/98 97/97/97
f 102/102/102 101/101/101 100/100/100
f 103/103/103 100/100/100 101/101/101
f 100/100/100 103/103/103 104/104/104
f 105/105/105 104/104/104 103/103/103
f 104/104/104 105/105/105 106/106/106
f 107/107/107 106/106/106 105/105/105
f 110/110/110 109/109/109 108/108/108
f 111/111/111 108/108/108 109/109/109
f 108/108/108 111/111/111 112/112/112
f 113/113/113 112/112/112 111/111/111
f 116/116/116 115/115/115 114/114/114
f 117/117/117 114/114/114 115/115/115
f 114/114/114 117/117/117 118/118/118
f 119/119/119 118/118/118 117/117/117
f 118/118/118 119/119/119 120/120/120
f 121/121/121 120/120/120 119/119/119
f 124/124/124 123/123/123 122/122/122
f 125/125/125 123/123/123 124/124/124
f 126/126/126 123/123/123 125/125/125
f 129/129/129 128/128/128 127/127/127
f 130/130/130 128/128/128 129/129/129
f 133/133/133 132/132/132 131/131/131
f 134/134/134 132/132/132 133/133/133
f 135/135/135 132/132/132 134/134/134
f 138/138/138 137/137/137 136/136/136
f 139/139/139 137/137/137 138/138/138
g NY_gun_cal210C_barrel_001_1
f 142/142/142 141/141/141 140/140/140
f 143/143/143 140/140/140 141/141/141
f 141/141/141 142/142/142 144/144/144
f 140/140/140 143/143/143 145/145/145
f 146/146/146 144/144/144 142/142/142
f 147/147/147 145/145/145 143/143/143
f 144/144/144 146/146/146 148/148/148
f 145/145/145 147/147/147 149/149/149
f 150/150/150 148/148/148 146/146/146
f 151/151/151 149/149/149 147/147/147
f 148/148/148 150/150/150 152/152/152
f 149/149/149 151/151/151 153/153/153
f 154/154/154 152/152/152 150/150/150
f 155/155/155 153/153/153 151/151/151
f 152/152/152 154/154/154 156/156/156
f 153/153/153 155/155/155 157/157/157
f 158/158/158 156/156/156 154/154/154
f 159/159/159 157/157/157 155/155/155
f 156/156/156 158/158/158 159/159/159
f 157/157/157 159/159/159 158/158/158
g NY_gun_cal210C_barrel_001_2
f 162/162/162 161/161/161 160/160/160
f 163/163/163 160/160/160 161/161/161
f 166/166/166 165/165/165 164/164/164
f 167/167/167 165/165/165 166/166/166
f 168/168/168 165/165/165 167/167/167
f 171/171/171 170/170/170 169/169/169
f 172/172/172 170/170/170 171/171/171
f 175/175/175 174/174/174 173/173/173
f 176/176/176 174/174/174 175/175/175
f 177/177/177 174/174/174 176/176/176
