# Blender 4.5.3 LTS
# www.blender.org
mtllib NY_gun_cal210Cx3_002.mtl
o NY_gun_cal210Cx3_002
v 2.655000 0.948757 0.949264
v 1.992787 0.951450 2.138222
v 1.992788 2.285094 0.817397
v -2.655169 0.948757 0.949264
v -1.991077 2.285094 0.817397
v -1.991077 0.951450 2.138221
v 2.386292 0.275126 -1.592830
v 2.030125 0.948756 -2.027668
v 2.030125 0.275126 -2.027666
v 2.386292 0.948756 -1.592831
v 2.651730 0.948755 -1.097369
v 2.651730 0.275126 -1.097368
v 2.814380 0.275126 -0.559333
v 2.814380 0.948755 -0.559334
v 2.870009 0.948755 -0.000010
v 2.870009 0.275125 -0.000009
v 2.814381 0.275125 0.559315
v 2.814381 0.948755 0.559317
v 2.651731 0.948755 1.097351
v 2.651730 0.275125 1.097351
v 2.386293 0.275125 1.592812
v 2.386293 0.948755 1.592811
v 2.030126 0.948755 2.027650
v 2.030126 0.275125 2.027650
v 2.030125 0.948756 -2.027668
v 1.595288 0.275126 -2.383834
v 2.030125 0.275126 -2.027666
v 1.595288 0.948756 -2.383835
v 1.099828 0.948756 -2.649272
v 1.099827 0.275126 -2.649271
v 0.561791 0.275126 -2.811922
v 0.561791 0.948756 -2.811923
v -0.000001 0.948756 -2.867550
v -0.000001 0.275126 -2.867550
v -0.561792 0.275126 -2.811922
v -0.561792 0.948756 -2.811923
v -1.099829 0.948756 -2.649272
v -1.099828 0.275126 -2.649271
v -1.595288 0.275126 -2.383834
v -1.595289 0.948756 -2.383835
v -2.030126 0.948756 -2.027668
v -2.030126 0.275126 -2.027666
v 1.595288 0.275125 2.383817
v 2.030126 0.948755 2.027650
v 2.030126 0.275125 2.027650
v 1.595289 0.948755 2.383816
v 1.099828 0.948755 2.649254
v 1.099828 0.275125 2.649255
v 0.561791 0.275125 2.811906
v 0.561791 0.948755 2.811906
v -0.000001 0.948755 2.867532
v -0.000001 0.275125 2.867533
v -0.561792 0.275125 2.811906
v -0.561792 0.948755 2.811906
v -1.099829 0.948755 2.649254
v -1.099829 0.275125 2.649255
v -1.595289 0.275125 2.383817
v -1.595289 0.948755 2.383816
v -2.030127 0.948755 2.027650
v -2.030126 0.275125 2.027650
v -2.030126 0.948756 -2.027668
v -2.386293 0.275126 -1.592830
v -2.030126 0.275126 -2.027666
v -2.386293 0.948756 -1.592831
v -2.651731 0.948755 -1.097367
v -2.651731 0.275126 -1.097368
v -2.814381 0.275126 -0.559333
v -2.814381 0.948755 -0.559334
v -2.870010 0.948755 -0.000010
v -2.870010 0.275125 -0.000009
v -2.814382 0.275125 0.559315
v -2.814382 0.948755 0.559314
v -2.651732 0.948755 1.097352
v -2.651731 0.275125 1.097351
v -2.386294 0.275125 1.592812
v -2.386294 0.948755 1.592811
v -2.030127 0.948755 2.027650
v -2.030126 0.275125 2.027650
v 2.317539 0.948758 -2.202878
v 1.995303 2.365175 -2.773551
v 1.995320 0.948758 -2.773571
v 1.995303 2.350771 -2.202878
v 2.719989 0.948757 -1.247173
v 1.995303 2.328168 -1.247173
v 1.995303 2.309495 -0.406176
v 2.867299 0.948757 -0.388194
v 1.995303 2.296000 0.251463
v 2.835704 0.948757 0.323393
v 2.655000 0.948757 0.949264
v 1.992788 2.285094 0.817397
v -1.995472 2.365175 -2.773551
v -2.317708 0.948758 -2.202878
v -1.995472 0.948758 -2.773571
v -1.995472 2.350771 -2.202878
v -2.720159 0.948757 -1.247172
v -1.995472 2.328168 -1.247173
v -1.995472 2.309495 -0.406176
v -2.867468 0.948757 -0.388193
v -1.995472 2.296000 0.251463
v -2.835872 0.948757 0.323393
v -2.655169 0.948757 0.949264
v -1.991077 2.285094 0.817397
v 1.166687 2.425302 -2.921075
v 1.995320 0.948758 -2.773571
v 1.995303 2.365175 -2.773551
v 1.169024 0.948755 -2.981354
v 0.602166 2.467452 -3.023491
v 0.604533 0.948755 -3.083770
v -0.002366 2.481501 -3.059502
v 0.000002 0.948755 -3.119781
v -0.606898 2.467452 -3.023491
v -0.604530 0.948755 -3.083770
v -1.171419 2.425302 -2.921075
v -1.169051 0.948755 -2.981354
v -1.995472 2.365175 -2.773551
v -1.995472 0.948758 -2.773571
v -2.051364 1.647690 0.898611
v 2.051364 1.735494 0.949306
v -2.051364 1.735494 0.949306
v 2.051364 1.647690 0.898611
v -2.051364 1.559886 0.949306
v 2.051364 1.559886 0.949306
v -2.051364 1.735494 0.949306
v 2.051364 1.735494 1.050693
v -2.051364 1.735494 1.050694
v 2.051364 1.735494 0.949306
v 2.051364 1.647690 1.101387
v -2.051364 1.735494 1.050694
v 2.051364 1.735494 1.050693
v -2.051364 1.647690 1.101387
v 2.051364 1.559886 1.050693
v -2.051364 1.559886 1.050694
v -2.051364 1.559886 1.050694
v 2.051364 1.559886 0.949306
v -2.051364 1.559886 0.949306
v 2.051364 1.559886 1.050693
v -0.124930 2.489183 0.404509
v 0.119998 2.495971 -0.008404
v 0.120198 2.489183 0.404509
v -0.124730 2.495971 -0.008404
v 0.119998 2.495971 -0.008404
v 0.120198 2.392309 0.404509
v 0.120198 2.489183 0.404509
v 0.119998 2.399097 -0.008404
v -0.124930 2.489183 0.404509
v -0.124730 2.399097 -0.008404
v -0.124730 2.495971 -0.008404
v -0.124930 2.392309 0.404509
v 0.120198 2.489183 0.404509
v -0.124930 2.392309 0.404509
v -0.124930 2.489183 0.404509
v 0.120198 2.392309 0.404509
v -0.124730 2.495971 -0.008404
v 0.119998 2.399097 -0.008404
v 0.119998 2.495971 -0.008404
v -0.124730 2.399097 -0.008404
v 1.163816 2.511151 -2.846637
v 0.598645 2.307800 -2.951203
v 1.163816 2.307800 -2.847384
v 0.598645 2.549569 -2.949894
v -0.002366 2.562374 -2.984314
v -0.002366 2.307800 -2.985809
v -0.603377 2.307800 -2.951203
v -0.603377 2.549569 -2.949893
v -1.168548 2.511151 -2.846637
v -1.168548 2.307800 -2.847384
v 0.598645 2.307800 -2.852213
v 1.163816 2.511151 -2.747648
v 1.163816 2.307800 -2.748394
v 0.598645 2.549569 -2.850907
v -0.002366 2.562374 -2.885324
v -0.002366 2.307800 -2.886819
v -0.603377 2.307800 -2.852213
v -0.603377 2.549569 -2.850907
v -1.168548 2.511151 -2.747647
v -1.168548 2.307800 -2.748394
v 1.163816 2.307800 -2.748394
v 1.163816 2.511151 -2.846637
v 1.163816 2.307800 -2.847384
v 1.163816 2.511151 -2.747648
v 0.598645 2.549569 -2.850907
v 1.163816 2.511151 -2.846637
v 1.163816 2.511151 -2.747648
v 0.598645 2.549569 -2.949894
v -0.002366 2.562374 -2.885324
v -0.002366 2.562374 -2.984314
v -0.603377 2.549569 -2.949893
v -0.603377 2.549569 -2.850907
v -1.168548 2.511151 -2.846637
v -1.168548 2.511151 -2.747647
v -1.168548 2.511151 -2.747647
v -1.168548 2.307800 -2.847384
v -1.168548 2.511151 -2.846637
v -1.168548 2.307800 -2.748394
v 2.759921 1.860852 -2.604699
v 2.759922 2.062838 -2.754187
v 2.759919 1.934603 -2.713380
v 2.759920 1.860852 -2.200728
v 2.759920 2.264824 -2.200728
v 2.759921 2.264822 -2.604699
v 2.759919 2.191073 -2.713380
v 2.759921 1.860852 -2.604699
v 1.845462 1.860852 -2.200728
v 2.759920 1.860852 -2.200728
v 1.845462 1.860852 -2.604699
v 2.759919 1.934603 -2.713380
v 1.845462 1.860852 -2.604699
v 2.759921 1.860852 -2.604699
v 1.845462 1.934603 -2.713380
v 2.759920 2.264824 -2.200728
v 1.845462 2.264822 -2.604699
v 2.759921 2.264822 -2.604699
v 1.845462 2.264824 -2.200728
v 1.845463 2.062838 -2.754187
v 2.759919 2.191073 -2.713380
v 1.845461 2.191073 -2.713379
v 2.759922 2.062838 -2.754187
v 1.845462 1.934603 -2.713380
v 2.759919 1.934603 -2.713380
v 2.759921 2.264822 -2.604699
v 1.845461 2.191073 -2.713379
v 2.759919 2.191073 -2.713380
v 1.845462 2.264822 -2.604699
v -2.760087 2.062838 -2.754187
v -2.760085 1.860852 -2.604699
v -2.760084 1.934603 -2.713380
v -2.760086 1.860852 -2.200728
v -2.760086 2.264824 -2.200728
v -2.760085 2.264822 -2.604699
v -2.760084 2.191073 -2.713380
v -2.760085 1.860852 -2.604699
v -1.845627 1.860852 -2.200728
v -1.845627 1.860852 -2.604699
v -2.760086 1.860852 -2.200728
v -2.760084 1.934603 -2.713380
v -1.845627 1.860852 -2.604699
v -1.845627 1.934603 -2.713380
v -2.760085 1.860852 -2.604699
v -2.760086 2.264824 -2.200728
v -1.845627 2.264822 -2.604699
v -1.845627 2.264824 -2.200728
v -2.760085 2.264822 -2.604699
v -2.760084 2.191073 -2.713380
v -1.845628 2.062838 -2.754187
v -1.845626 2.191073 -2.713379
v -2.760087 2.062838 -2.754187
v -1.845627 1.934603 -2.713380
v -2.760084 1.934603 -2.713380
v -2.760085 2.264822 -2.604699
v -1.845626 2.191073 -2.713379
v -1.845627 2.264822 -2.604699
v -2.760084 2.191073 -2.713380
v 1.470430 0.948750 1.065955
v 1.581365 1.141239 0.901488
v 1.470431 1.141239 1.065955
v 1.581364 0.948750 0.901488
v 2.295210 1.238953 1.372740
v 1.470431 1.141239 1.065955
v 1.581365 1.141239 0.901488
v 2.188720 1.238953 1.540200
v 2.188720 1.238953 1.540200
v 1.470430 0.948750 1.065955
v 1.470431 1.141239 1.065955
v 2.325894 0.948748 1.642962
v 1.581365 1.141239 0.901488
v 2.436828 0.948748 1.478495
v 2.295210 1.238953 1.372740
v 1.581364 0.948750 0.901488
v 2.188720 1.238953 1.540200
v 2.436828 0.948748 1.478495
v 2.325894 0.948748 1.642962
v 2.295210 1.238953 1.372740
v 1.654771 0.948750 0.764830
v 1.730688 1.141239 0.581549
v 1.654772 1.141239 0.764830
v 1.730687 0.948750 0.581549
v 2.548880 1.238953 0.888588
v 1.654772 1.141239 0.764830
v 1.730688 1.141239 0.581549
v 2.477910 1.238950 1.073920
v 2.477910 1.238950 1.073920
v 1.654771 0.948750 0.764830
v 1.654772 1.141239 0.764830
v 2.608098 0.948748 1.159704
v 1.730688 1.141239 0.581549
v 2.684014 0.948748 0.976420
v 2.548880 1.238953 0.888588
v 1.730687 0.948750 0.581549
v 2.477910 1.238950 1.073920
v 2.684014 0.948748 0.976420
v 2.608098 0.948748 1.159704
v 2.548880 1.238953 0.888588
v 1.773517 0.948750 0.440424
v 1.812218 1.141239 0.245853
v 1.773517 1.141239 0.440425
v 1.812217 0.948750 0.245853
v 2.656724 1.238953 0.346850
v 1.773517 1.141239 0.440425
v 1.812218 1.141239 0.245853
v 2.623276 1.238953 0.542465
v 2.623276 1.238953 0.542465
v 1.773517 0.948750 0.440424
v 1.773517 1.141239 0.440425
v 2.785562 0.948748 0.641725
v 1.812218 1.141239 0.245853
v 2.824262 0.948748 0.447154
v 2.656724 1.238953 0.346850
v 1.812217 0.948750 0.245853
v 2.623276 1.238953 0.542465
v 2.824262 0.948748 0.447154
v 2.785562 0.948748 0.641725
v 2.656724 1.238953 0.346850
v 1.837509 0.948750 0.099139
v 1.837508 1.141240 -0.099244
v 1.837510 1.141240 0.099139
v 1.837508 0.948750 -0.099244
v 2.687322 1.238953 -0.099248
v 1.837510 1.141240 0.099139
v 1.837508 1.141240 -0.099244
v 2.692678 1.238953 0.099134
v 2.692678 1.238953 0.099134
v 1.837509 0.948750 0.099139
v 1.837510 1.141240 0.099139
v 2.869380 0.948749 0.099131
v 1.837508 1.141240 -0.099244
v 2.869378 0.948749 -0.099250
v 2.687322 1.238953 -0.099248
v 1.837508 0.948750 -0.099244
v 2.692678 1.238953 0.099134
v 2.869378 0.948749 -0.099250
v 2.869380 0.948749 0.099131
v 2.687322 1.238953 -0.099248
v -1.470432 0.948750 1.065955
v -1.581366 1.141239 0.901488
v -1.581365 0.948750 0.901488
v -1.470434 1.141239 1.065955
v -2.295210 1.238950 1.372740
v -1.470434 1.141239 1.065955
v -2.188720 1.238950 1.540199
v -1.581366 1.141239 0.901488
v -2.188720 1.238950 1.540199
v -1.470432 0.948750 1.065955
v -2.325897 0.948748 1.642963
v -1.470434 1.141239 1.065955
v -1.581366 1.141239 0.901488
v -2.436829 0.948748 1.478496
v -1.581365 0.948750 0.901488
v -2.295210 1.238950 1.372740
v -2.188720 1.238950 1.540199
v -2.436829 0.948748 1.478496
v -2.295210 1.238950 1.372740
v -2.325897 0.948748 1.642963
v -1.654772 0.948750 0.764831
v -1.730690 1.141239 0.581550
v -1.730690 0.948750 0.581549
v -1.654773 1.141239 0.764831
v -2.548879 1.238954 0.888588
v -1.654773 1.141239 0.764831
v -2.477910 1.238954 1.073918
v -1.730690 1.141239 0.581550
v -2.477910 1.238954 1.073918
v -1.654772 0.948750 0.764831
v -2.608100 0.948748 1.159701
v -1.654773 1.141239 0.764831
v -1.730690 1.141239 0.581550
v -2.684016 0.948748 0.976420
v -1.730690 0.948750 0.581549
v -2.548879 1.238954 0.888588
v -2.477910 1.238954 1.073918
v -2.684016 0.948748 0.976420
v -2.548879 1.238954 0.888588
v -2.608100 0.948748 1.159701
v -1.773517 0.948750 0.440424
v -1.812219 1.141239 0.245853
v -1.812218 0.948750 0.245853
v -1.773519 1.141239 0.440424
v -2.656724 1.238953 0.346850
v -1.773519 1.141239 0.440424
v -2.623276 1.238953 0.542465
v -1.812219 1.141239 0.245853
v -2.623276 1.238953 0.542465
v -1.773517 0.948750 0.440424
v -2.785562 0.948748 0.641725
v -1.773519 1.141239 0.440424
v -1.812219 1.141239 0.245853
v -2.824264 0.948748 0.447154
v -1.812218 0.948750 0.245853
v -2.656724 1.238953 0.346850
v -2.623276 1.238953 0.542465
v -2.824264 0.948748 0.447154
v -2.656724 1.238953 0.346850
v -2.785562 0.948748 0.641725
v -1.837508 0.948750 0.099139
v -1.837508 1.141240 -0.099244
v -1.837507 0.948750 -0.099243
v -1.837509 1.141240 0.099139
v -2.687321 1.238953 -0.099248
v -1.837509 1.141240 0.099139
v -2.692678 1.238953 0.099134
v -1.837508 1.141240 -0.099244
v -2.692678 1.238953 0.099134
v -1.837508 0.948750 0.099139
v -2.869379 0.948749 0.099131
v -1.837509 1.141240 0.099139
v -1.837508 1.141240 -0.099244
v -2.869377 0.948749 -0.099250
v -1.837507 0.948750 -0.099243
v -2.687321 1.238953 -0.099248
v -2.692678 1.238953 0.099134
v -2.869377 0.948749 -0.099250
v -2.687321 1.238953 -0.099248
v -2.869379 0.948749 0.099131
v 1.990703 2.341885 0.902769
v 1.992787 0.951450 2.138222
v 1.990702 1.012334 2.254749
v 1.992788 2.285094 0.817397
v 1.990703 2.341885 0.817378
v 1.170905 2.408417 0.902769
v 1.990703 2.341885 0.817378
v 1.990703 2.341885 0.902769
v 1.170905 2.408417 0.817378
v 0.609809 2.458318 0.817378
v 0.609809 2.458318 0.902769
v -0.002359 2.474938 0.902769
v -0.002359 2.474952 0.817378
v -0.614526 2.458318 0.817378
v -0.614526 2.458318 0.902769
v -1.175623 2.408417 0.902769
v -1.175623 2.408417 0.817378
v -1.990858 2.341885 0.817378
v -1.990858 2.341885 0.902769
v -0.002359 1.301727 2.286544
v 0.256617 1.275517 2.326217
v -0.002359 1.247912 2.341648
v 0.235951 1.326567 2.272424
v 0.446579 1.339384 2.265875
v 0.370861 1.371639 2.229309
v 0.446582 2.074021 1.505213
v 0.370863 2.059959 1.516668
v 0.282180 2.300301 1.265897
v 0.225976 2.259464 1.305856
v -0.002359 2.391320 1.162645
v -0.002359 2.333968 1.222592
v -0.230694 2.259464 1.305856
v -0.002359 2.391320 1.162645
v -0.286898 2.300301 1.265897
v -0.375580 2.059959 1.516668
v -0.451300 2.074021 1.505213
v -0.375579 1.371639 2.229309
v -0.451297 1.339384 2.265875
v -0.240668 1.326567 2.272424
v -0.261335 1.275517 2.326217
v -0.002359 1.301727 2.286544
v -0.002359 1.247912 2.341648
v 0.991021 1.275517 2.326217
v 1.250001 1.301727 2.286544
v 1.250001 1.247912 2.341648
v 1.011688 1.326567 2.272424
v 0.801059 1.339384 2.265875
v 0.876777 1.371639 2.229309
v 0.801056 2.074021 1.505213
v 0.876776 2.059959 1.516668
v 0.965458 2.300301 1.265897
v 1.021662 2.259464 1.305856
v 1.250001 2.391320 1.162645
v 1.250001 2.333968 1.222592
v 1.250001 2.391320 1.162645
v 1.478339 2.259464 1.305856
v 1.534544 2.300301 1.265897
v 1.623226 2.059959 1.516668
v 1.698945 2.074021 1.505213
v 1.623225 1.371639 2.229309
v 1.698943 1.339384 2.265875
v 1.488314 1.326567 2.272424
v 1.508981 1.275517 2.326217
v 1.250001 1.301727 2.286544
v 1.250001 1.247912 2.341648
v 1.250000 2.304604 1.022854
v 0.965458 2.300301 1.265897
v 0.965457 2.223133 1.135339
v 1.250001 2.391320 1.162645
v 1.534542 2.194026 1.107191
v 1.534544 2.300301 1.265897
v 0.801056 2.074021 1.505213
v 0.965457 2.223133 1.135339
v 0.965458 2.300301 1.265897
v 0.801055 2.000099 1.377794
v 0.801059 1.339384 2.265875
v 0.801057 1.264884 2.137898
v 0.991021 1.275517 2.326217
v 0.801057 1.264884 2.137898
v 0.801059 1.339384 2.265875
v 0.991020 1.194826 2.192253
v 1.250001 1.247912 2.341648
v 1.250000 1.160729 2.201405
v 1.508981 1.275517 2.326217
v 1.508979 1.164488 2.162914
v 1.698943 1.339384 2.265875
v 1.698942 1.212544 2.087281
v 1.698945 2.074021 1.505213
v 1.698942 1.212544 2.087281
v 1.698943 1.339384 2.265875
v 1.698944 1.952152 1.331425
v 1.534544 2.300301 1.265897
v 1.534542 2.194026 1.107191
v -0.002359 2.391320 1.162645
v 0.282184 2.233132 1.145010
v 0.282180 2.300301 1.265897
v -0.002359 2.332727 1.050073
v -0.286902 2.233132 1.145010
v -0.286898 2.300301 1.265897
v 0.256620 1.208868 2.205832
v 0.446579 1.339384 2.265875
v 0.446583 1.266807 2.139757
v 0.256617 1.275517 2.326217
v -0.002359 1.192024 2.231690
v -0.002359 1.247912 2.341648
v -0.261335 1.275517 2.326217
v -0.261338 1.208868 2.205832
v -0.451297 1.339384 2.265875
v -0.451301 1.266807 2.139757
v 0.446582 2.074021 1.505213
v 0.446583 1.266807 2.139757
v 0.446579 1.339384 2.265875
v 0.446585 2.001865 1.379502
v 0.282180 2.300301 1.265897
v 0.282184 2.233132 1.145010
v -1.991077 0.951450 2.138221
v -1.990858 2.341885 0.902769
v -1.990858 1.012334 2.254749
v -1.991077 2.285094 0.817397
v -1.990858 2.341885 0.817378
v -1.246934 1.301727 2.286544
v -0.987954 1.275517 2.326217
v -1.246934 1.247912 2.341648
v -1.008621 1.326567 2.272424
v -0.797992 1.339384 2.265875
v -0.873711 1.371639 2.229309
v -0.797990 2.074021 1.505213
v -0.873709 2.059959 1.516668
v -0.962391 2.300301 1.265897
v -1.018596 2.259464 1.305856
v -1.246934 2.391320 1.162645
v -1.246934 2.333968 1.222592
v -1.475273 2.259464 1.305856
v -1.246934 2.391320 1.162645
v -1.531477 2.300301 1.265897
v -1.620160 2.059959 1.516668
v -1.695879 2.074021 1.505213
v -1.620158 1.371639 2.229309
v -1.695876 1.339384 2.265875
v -1.485247 1.326567 2.272424
v -1.505914 1.275517 2.326217
v -1.246934 1.301727 2.286544
v -1.246934 1.247912 2.341648
v -0.962391 2.300301 1.265897
v -1.246933 2.304604 1.022854
v -0.962391 2.223133 1.135339
v -1.246934 2.391320 1.162645
v -1.531476 2.194026 1.107191
v -1.531477 2.300301 1.265897
v -0.962391 2.223133 1.135339
v -0.797990 2.074021 1.505213
v -0.962391 2.300301 1.265897
v -0.797989 2.000099 1.377794
v -0.797992 1.339384 2.265875
v -0.797991 1.264884 2.137898
v -0.797991 1.264884 2.137898
v -0.987954 1.275517 2.326217
v -0.797992 1.339384 2.265875
v -0.987954 1.194826 2.192253
v -1.246934 1.247912 2.341648
v -1.246933 1.160729 2.201405
v -1.505914 1.275517 2.326217
v -1.505912 1.164488 2.162914
v -1.695876 1.339384 2.265875
v -1.695875 1.212544 2.087281
v -1.695875 1.212544 2.087281
v -1.695879 2.074021 1.505213
v -1.695876 1.339384 2.265875
v -1.695877 1.952152 1.331425
v -1.531477 2.300301 1.265897
v -1.531476 2.194026 1.107191
v -0.451301 1.266807 2.139757
v -0.451300 2.074021 1.505213
v -0.451297 1.339384 2.265875
v -0.451303 2.001865 1.379502
v -0.286898 2.300301 1.265897
v -0.286902 2.233132 1.145010
v 0.965457 2.223133 1.135339
v 0.801055 2.000099 1.377794
v 0.609809 2.458318 0.902769
v 1.250000 2.304604 1.022854
v 1.170905 2.408417 0.902769
v 1.990703 2.341885 0.902769
v 1.534542 2.194026 1.107191
v 1.698944 1.952152 1.331425
v 1.990702 1.012334 2.254749
v 1.698942 1.212544 2.087281
v 1.508979 1.164488 2.162914
v 1.170905 1.012334 2.336298
v 1.250000 1.160729 2.201405
v 0.609809 1.012334 2.397460
v 0.991020 1.194826 2.192253
v 0.801057 1.264884 2.137898
v 0.446585 2.001865 1.379502
v 0.446583 1.266807 2.139757
v 0.282184 2.233132 1.145010
v 0.256620 1.208868 2.205832
v -0.002359 2.474938 0.902769
v -0.002359 2.332727 1.050073
v -0.286902 2.233132 1.145010
v -0.002359 1.012320 2.417847
v -0.002359 1.192024 2.231690
v -0.261338 1.208868 2.205832
v -0.614526 2.458318 0.902769
v -0.614527 1.012334 2.397460
v -0.451301 1.266807 2.139757
v -0.451303 2.001865 1.379502
v -0.797991 1.264884 2.137898
v -0.797989 2.000099 1.377794
v -0.987954 1.194826 2.192253
v -0.962391 2.223133 1.135339
v -1.246933 1.160729 2.201405
v -1.175623 1.012334 2.336298
v -1.505912 1.164488 2.162914
v -1.246933 2.304604 1.022854
v -1.175623 2.408417 0.902769
v -1.990858 1.012334 2.254749
v -1.695875 1.212544 2.087281
v -1.695877 1.952152 1.331425
v -1.990858 2.341885 0.902769
v -1.531476 2.194026 1.107191
v 2.814380 0.948755 -0.559334
v -0.000001 0.948767 0.000008
v 2.651730 0.948755 -1.097369
v 2.870009 0.948755 -0.000010
v 2.386292 0.948756 -1.592831
v 2.814381 0.948755 0.559317
v 2.030125 0.948756 -2.027668
v 2.651731 0.948755 1.097351
v 1.595288 0.948756 -2.383835
v 2.386293 0.948755 1.592811
v 1.099828 0.948756 -2.649272
v 2.030126 0.948755 2.027650
v 0.561791 0.948756 -2.811923
v 1.595289 0.948755 2.383816
v -0.000001 0.948756 -2.867550
v 1.099828 0.948755 2.649254
v -0.561792 0.948756 -2.811923
v 0.561791 0.948755 2.811906
v -1.099829 0.948756 -2.649272
v -0.000001 0.948755 2.867532
v -1.595289 0.948756 -2.383835
v -0.561792 0.948755 2.811906
v -2.030126 0.948756 -2.027668
v -1.099829 0.948755 2.649254
v -2.386293 0.948756 -1.592831
v -1.595289 0.948755 2.383816
v -2.651731 0.948755 -1.097367
v -2.030127 0.948755 2.027650
v -2.814381 0.948755 -0.559334
v -2.386294 0.948755 1.592811
v -2.870010 0.948755 -0.000010
v -2.651732 0.948755 1.097352
v -2.814382 0.948755 0.559314
v -2.051364 1.559886 0.949306
v -2.110905 1.647690 0.999999
v -2.051364 1.559886 1.050694
v -2.051364 1.647690 0.898611
v -2.051364 1.647690 1.101387
v -2.051364 1.735494 0.949306
v -2.051364 1.735494 1.050694
v 2.051364 1.647690 0.898611
v 2.110906 1.647690 0.999999
v 2.051364 1.735494 0.949306
v 2.051364 1.559886 0.949306
v 2.051364 1.735494 1.050693
v 2.051364 1.559886 1.050693
v 2.051364 1.647690 1.101387
v 2.759920 1.860852 -2.200728
v 2.699920 2.204823 -2.200728
v 2.759920 2.264824 -2.200728
v 2.699920 1.920853 -2.200728
v 2.386530 2.204823 -2.200728
v 1.845462 1.860852 -2.200728
v 1.845462 2.264824 -2.200728
v 2.386530 1.920853 -2.200728
v -2.760086 1.860852 -2.200728
v -2.700086 2.204823 -2.200728
v -2.700086 1.920853 -2.200728
v -2.760086 2.264824 -2.200728
v -1.845627 1.860852 -2.200728
v -2.386695 2.204823 -2.200728
v -2.386695 1.920853 -2.200728
v -1.845627 2.264824 -2.200728
v 1.992788 2.285094 0.817397
v 1.174353 2.351717 0.817415
v 1.995303 2.296000 0.251463
v 1.995303 2.309495 -0.406176
v 1.169982 2.392464 -1.247146
v 1.995303 2.328168 -1.247173
v 0.612500 2.401684 0.817415
v 1.995303 2.350771 -2.202878
v 0.606452 2.437170 -1.247146
v -0.000493 2.418341 0.817415
v 1.166687 2.425302 -2.921075
v 1.995303 2.365175 -2.773551
v 0.602166 2.467452 -3.023491
v -0.002366 2.481501 -3.059502
v -0.002366 2.452117 -1.247146
v -0.611184 2.437170 -1.247146
v -0.613487 2.401684 0.817415
v -1.174714 2.392464 -1.247146
v -0.606898 2.467452 -3.023491
v -1.171419 2.425302 -2.921075
v -1.401778 2.351717 0.817415
v -1.995472 2.350771 -2.202878
v -1.995472 2.365175 -2.773551
v -1.995472 2.328168 -1.247173
v -1.995472 2.309495 -0.406176
v -1.995472 2.296000 0.251463
v -1.991077 2.285094 0.817397
v -0.002366 0.948757 -0.000061
v 0.604545 0.948758 -3.083770
v 0.000007 0.948758 -3.119781
v 1.169052 0.948758 -2.981354
v -0.604529 0.948758 -3.083710
v 1.995320 0.948758 -2.773571
v -1.169052 0.948758 -2.981354
v 2.317539 0.948758 -2.202878
v -1.995472 0.948758 -2.773571
v 2.719989 0.948757 -1.247173
v -2.317708 0.948758 -2.202878
v 2.867299 0.948757 -0.388194
v -2.720159 0.948757 -1.247172
v 2.835704 0.948757 0.323393
v -2.867468 0.948757 -0.388193
v 2.655000 0.948757 0.949264
v -2.835872 0.948757 0.323393
v -2.655169 0.948757 0.949264
v 1.992787 0.951450 2.138222
v -1.991077 0.951450 2.138221
v 1.172629 0.951450 2.219838
v 1.990702 1.012334 2.254749
v 1.170905 1.012334 2.336298
v 0.609809 1.012334 2.397460
v 0.611154 0.951450 2.281051
v -0.001426 0.951450 2.301455
v -0.002359 1.012320 2.417847
v -0.614527 1.012334 2.397460
v -1.175481 0.951450 2.219838
v -1.990858 1.012334 2.254749
v -1.175623 1.012334 2.336298
v -0.614006 0.951450 2.281051
v 2.814380 0.275126 -0.559333
v -0.000000 0.275112 -0.000009
v 2.870009 0.275125 -0.000009
v 2.651730 0.275126 -1.097368
v 2.814381 0.275125 0.559315
v 2.386292 0.275126 -1.592830
v 2.651730 0.275125 1.097351
v 2.030125 0.275126 -2.027666
v 2.386293 0.275125 1.592812
v 1.595288 0.275126 -2.383834
v 2.030126 0.275125 2.027650
v 1.099827 0.275126 -2.649271
v 1.595288 0.275125 2.383817
v 0.561791 0.275126 -2.811922
v 1.099828 0.275125 2.649255
v -0.000001 0.275126 -2.867550
v 0.561791 0.275125 2.811906
v -0.561792 0.275126 -2.811922
v -0.000001 0.275125 2.867533
v -1.099828 0.275126 -2.649271
v -0.561792 0.275125 2.811906
v -1.595288 0.275126 -2.383834
v -1.099829 0.275125 2.649255
v -2.030126 0.275126 -2.027666
v -1.595289 0.275125 2.383817
v -2.386293 0.275126 -1.592830
v -2.030126 0.275125 2.027650
v -2.651731 0.275126 -1.097368
v -2.386294 0.275125 1.592812
v -2.814381 0.275126 -0.559333
v -2.651731 0.275125 1.097351
v -2.870010 0.275125 -0.000009
v -2.814382 0.275125 0.559315
v 1.483896 0.000000 -1.482092
v 1.938250 0.275118 -0.802102
v 1.483896 0.275118 -1.482092
v 1.938250 0.000000 -0.802102
v 2.097800 0.275118 -0.000000
v 2.097800 -0.000000 0.000000
v 1.938251 0.275118 0.802103
v 1.938250 -0.000000 0.802103
v 1.483897 0.275118 1.482093
v 1.483896 -0.000000 1.482092
v 1.483896 0.275118 -1.482092
v 0.803906 0.000000 -1.936446
v 1.483896 0.000000 -1.482092
v 0.803906 0.275118 -1.936446
v -0.000000 0.000000 -2.095996
v -0.000000 0.275118 -2.095996
v -0.803906 0.000000 -1.936446
v -0.803906 0.275118 -1.936446
v -1.483896 0.000000 -1.482092
v -1.483896 0.275118 -1.482092
v 1.483896 -0.000000 1.482092
v 0.803906 0.275117 1.936447
v 1.483897 0.275118 1.482093
v 0.803906 -0.000000 1.936447
v -0.000000 0.275117 2.095997
v -0.000000 -0.000001 2.095997
v -0.803907 0.275117 1.936447
v -0.803907 -0.000000 1.936447
v -1.483897 0.275118 1.482093
v -1.483896 -0.000000 1.482092
v -1.483896 0.275118 -1.482092
v -1.938250 0.000000 -0.802102
v -1.483896 0.000000 -1.482092
v -1.938250 0.275118 -0.802102
v -2.097799 -0.000000 0.000000
v -2.097799 0.275118 -0.000000
v -1.938250 -0.000000 0.802103
v -1.938251 0.275118 0.802103
v -1.483896 -0.000000 1.482092
v -1.483897 0.275118 1.482093
v 2.699920 1.920853 -2.200728
v 2.543225 2.062838 -2.524729
v 2.699920 2.204823 -2.200728
v 2.699920 2.204823 -2.200728
v 2.543225 2.062838 -2.524729
v 2.386530 2.204823 -2.200728
v 2.386530 2.204823 -2.200728
v 2.543225 2.062838 -2.524729
v 2.386530 1.920853 -2.200728
v 2.386530 1.920853 -2.200728
v 2.543225 2.062838 -2.524729
v 2.699920 1.920853 -2.200728
v -2.700086 1.920853 -2.200728
v -2.700086 2.204823 -2.200728
v -2.543390 2.062838 -2.524729
v -2.700086 2.204823 -2.200728
v -2.386695 2.204823 -2.200728
v -2.543390 2.062838 -2.524729
v -2.386695 2.204823 -2.200728
v -2.386695 1.920853 -2.200728
v -2.543390 2.062838 -2.524729
v -2.386695 1.920853 -2.200728
v -2.700086 1.920853 -2.200728
v -2.543390 2.062838 -2.524729
v 0.370861 1.371639 2.229309
v 0.213120 1.348544 0.324543
v 0.335053 1.389281 0.324543
v 0.235951 1.326567 2.272424
v -0.002359 1.326093 0.324543
v -0.002359 1.301727 2.286544
v -0.240668 1.326567 2.272424
v -0.217838 1.348544 0.324543
v -0.375579 1.371639 2.229309
v -0.339771 1.389281 0.324543
v 0.335053 1.389281 0.324543
v 0.370863 2.059959 1.516668
v 0.370861 1.371639 2.229309
v 0.335054 1.875659 0.324543
v 0.225976 2.259464 1.305856
v 0.204104 2.055973 0.324543
v 0.204104 2.055973 0.324543
v -0.002359 2.333968 1.222592
v 0.225976 2.259464 1.305856
v -0.002359 2.123311 0.324543
v -0.208822 2.055973 0.324543
v -0.230694 2.259464 1.305856
v 0.213120 1.348544 0.324543
v 0.335054 1.875659 0.324543
v 0.335053 1.389281 0.324543
v 0.204104 2.055973 0.324543
v -0.002359 1.326093 0.324543
v -0.002359 2.123311 0.324543
v -0.208822 2.055973 0.324543
v -0.217838 1.348544 0.324543
v -0.339772 1.875659 0.324543
v -0.339771 1.389281 0.324543
v 1.034518 1.348544 0.324543
v 0.876777 1.371639 2.229309
v 0.912585 1.389281 0.324543
v 1.011688 1.326567 2.272424
v 1.250001 1.326093 0.324543
v 1.250001 1.301727 2.286544
v 1.488314 1.326567 2.272424
v 1.465483 1.348544 0.324543
v 1.623225 1.371639 2.229309
v 1.587416 1.389281 0.324543
v 0.876776 2.059959 1.516668
v 0.912585 1.389281 0.324543
v 0.876777 1.371639 2.229309
v 0.912584 1.875659 0.324543
v 1.021662 2.259464 1.305856
v 1.043534 2.055973 0.324543
v 1.250001 2.333968 1.222592
v 1.043534 2.055973 0.324543
v 1.021662 2.259464 1.305856
v 1.250001 2.123311 0.324543
v 1.456468 2.055973 0.324543
v 1.478339 2.259464 1.305856
v 0.912584 1.875659 0.324543
v 1.034518 1.348544 0.324543
v 0.912585 1.389281 0.324543
v 1.043534 2.055973 0.324543
v 1.250001 1.326093 0.324543
v 1.250001 2.123311 0.324543
v 1.456468 2.055973 0.324543
v 1.465483 1.348544 0.324543
v 1.587418 1.875659 0.324543
v 1.587416 1.389281 0.324543
v 1.587416 1.389281 0.324543
v 1.623226 2.059959 1.516668
v 1.623225 1.371639 2.229309
v 1.587418 1.875659 0.324543
v 1.478339 2.259464 1.305856
v 1.456468 2.055973 0.324543
v -0.375580 2.059959 1.516668
v -0.339771 1.389281 0.324543
v -0.375579 1.371639 2.229309
v -0.339772 1.875659 0.324543
v -0.230694 2.259464 1.305856
v -0.208822 2.055973 0.324543
v -0.873711 1.371639 2.229309
v -1.031452 1.348544 0.324543
v -0.909519 1.389281 0.324543
v -1.008621 1.326567 2.272424
v -1.246934 1.326093 0.324543
v -1.246934 1.301727 2.286544
v -1.485247 1.326567 2.272424
v -1.462417 1.348544 0.324543
v -1.620158 1.371639 2.229309
v -1.584350 1.389281 0.324543
v -0.909519 1.389281 0.324543
v -0.873709 2.059959 1.516668
v -0.873711 1.371639 2.229309
v -0.909517 1.875659 0.324543
v -1.018596 2.259464 1.305856
v -1.040467 2.055973 0.324543
v -1.040467 2.055973 0.324543
v -1.246934 2.333968 1.222592
v -1.018596 2.259464 1.305856
v -1.246934 2.123311 0.324543
v -1.453401 2.055973 0.324543
v -1.475273 2.259464 1.305856
v -1.031452 1.348544 0.324543
v -0.909517 1.875659 0.324543
v -0.909519 1.389281 0.324543
v -1.040467 2.055973 0.324543
v -1.246934 1.326093 0.324543
v -1.246934 2.123311 0.324543
v -1.453401 2.055973 0.324543
v -1.462417 1.348544 0.324543
v -1.584351 1.875659 0.324543
v -1.584350 1.389281 0.324543
v -1.620160 2.059959 1.516668
v -1.584350 1.389281 0.324543
v -1.620158 1.371639 2.229309
v -1.584351 1.875659 0.324543
v -1.475273 2.259464 1.305856
v -1.453401 2.055973 0.324543
v 1.990703 2.341885 0.817378
v 1.174353 2.351717 0.817415
v 1.992788 2.285094 0.817397
v 1.170905 2.408417 0.817378
v 0.612500 2.401684 0.817415
v 0.609809 2.458318 0.817378
v -0.000493 2.418341 0.817415
v -0.002359 2.474952 0.817378
v -0.613487 2.401684 0.817415
v -0.614526 2.458318 0.817378
v -1.175623 2.408417 0.817378
v -1.401778 2.351717 0.817415
v -1.990858 2.341885 0.817378
v -1.991077 2.285094 0.817397
vn 0.7877 0.4335 0.4377
vn -0.7868 0.4343 0.4385
vn 0.7072 -0.0000 -0.7070
vn 0.8315 -0.0000 -0.5556
vn 0.9239 -0.0000 -0.3827
vn 0.9808 -0.0000 -0.1951
vn 1.0000 -0.0000 -0.0000
vn 0.9808 -0.0000 0.1951
vn 0.9239 -0.0000 0.3827
vn 0.8315 -0.0000 0.5556
vn 0.7072 -0.0000 0.7070
vn 0.7070 -0.0000 -0.7072
vn 0.5556 -0.0000 -0.8315
vn 0.3827 -0.0000 -0.9239
vn 0.1949 -0.0000 -0.9808
vn -0.0000 -0.0000 -1.0000
vn -0.1949 -0.0000 -0.9808
vn -0.3827 -0.0000 -0.9239
vn -0.5556 -0.0000 -0.8315
vn -0.7070 -0.0000 -0.7072
vn 0.7070 -0.0000 0.7072
vn 0.5556 -0.0000 0.8315
vn 0.3827 -0.0000 0.9239
vn 0.1949 -0.0000 0.9808
vn -0.0000 -0.0000 1.0000
vn -0.1949 -0.0000 0.9808
vn -0.3827 -0.0000 0.9239
vn -0.5556 -0.0000 0.8315
vn -0.7070 -0.0000 0.7072
vn -0.7072 -0.0000 -0.7070
vn -0.8315 -0.0000 -0.5556
vn -0.9239 -0.0000 -0.3827
vn -0.9808 -0.0000 -0.1951
vn -1.0000 -0.0000 -0.0000
vn -0.9808 -0.0000 0.1951
vn -0.9239 -0.0000 0.3827
vn -0.8315 -0.0000 0.5556
vn -0.7072 -0.0000 0.7070
vn 0.8708 -0.0000 -0.4917
vn 0.9767 0.1687 -0.1327
vn 0.9145 0.1371 -0.3807
vn 0.9509 0.3025 -0.0656
vn 0.8902 0.4254 -0.1628
vn 0.8852 0.4651 0.0107
vn 0.8577 0.5139 -0.0145
vn 0.8433 0.5347 -0.0537
vn 0.8621 0.5048 0.0441
vn 0.8374 0.5296 0.1350
vn 0.8396 0.5092 0.1894
vn 0.8955 0.4450 0.0126
vn -0.8708 -0.0000 -0.4917
vn -0.9145 0.1371 -0.3807
vn -0.9767 0.1687 -0.1327
vn -0.9509 0.3025 -0.0656
vn -0.8902 0.4254 -0.1628
vn -0.8852 0.4651 0.0107
vn -0.8577 0.5139 -0.0145
vn -0.8433 0.5347 -0.0537
vn -0.8619 0.5051 0.0451
vn -0.8374 0.5296 0.1350
vn -0.8393 0.5094 0.1900
vn -0.8948 0.4462 0.0155
vn 0.1753 -0.0000 -0.9845
vn 0.2213 0.0268 -0.9748
vn 0.1899 0.0277 -0.9814
vn 0.2113 0.0398 -0.9766
vn 0.1189 0.0400 -0.9921
vn 0.1191 0.0394 -0.9921
vn -0.0002 0.0394 -0.9992
vn -0.0000 0.0394 -0.9992
vn -0.1192 0.0391 -0.9921
vn -0.1192 0.0396 -0.9921
vn -0.1798 0.0394 -0.9829
vn -0.2000 0.0268 -0.9794
vn -0.2004 0.0267 -0.9793
vn -0.2438 -0.0000 -0.9698
vn -0.0000 0.8660 -0.5000
vn -0.0000 -0.8660 -0.5000
vn -0.0000 0.8660 0.5000
vn -0.0000 -0.8660 0.5000
vn -0.0000 0.9999 0.0164
vn 1.0000 -0.0000 -0.0005
vn -1.0000 -0.0000 -0.0005
vn 0.1807 0.0036 -0.9835
vn 0.1190 0.0052 -0.9929
vn 0.1805 0.0040 -0.9836
vn 0.1172 0.0054 -0.9931
vn -0.0000 0.0058 -1.0000
vn -0.0000 0.0059 -1.0000
vn -0.1190 0.0053 -0.9929
vn -0.1172 0.0054 -0.9931
vn -0.1805 0.0040 -0.9836
vn -0.1807 0.0036 -0.9835
vn -0.1807 -0.0036 0.9835
vn -0.1805 -0.0040 0.9836
vn -0.1190 -0.0052 0.9929
vn -0.1172 -0.0054 0.9931
vn -0.0000 -0.0058 1.0000
vn -0.0000 -0.0059 1.0000
vn 0.1190 -0.0052 0.9929
vn 0.1172 -0.0054 0.9931
vn 0.1805 -0.0040 0.9836
vn 0.1807 -0.0036 0.9835
vn 0.0678 0.9977 -0.0000
vn 0.0463 0.9989 -0.0000
vn 0.0427 0.9991 -0.0000
vn -0.0000 1.0000 -0.0000
vn -0.0427 0.9991 -0.0000
vn -0.0463 0.9989 -0.0000
vn -0.0678 0.9977 -0.0000
vn -0.0000 -1.0000 -0.0000
vn -0.0000 -0.8275 -0.5615
vn -0.0000 -0.5983 -0.8013
vn -0.0000 0.5982 -0.8013
vn -0.0000 -0.5982 -0.8013
vn -0.0000 0.5983 -0.8013
vn -0.0000 0.8275 -0.5615
vn -0.0000 0.5983 -0.8012
vn -0.8290 -0.0000 -0.5592
vn -0.0941 0.9935 -0.0635
vn -0.0940 0.9935 -0.0643
vn -0.0941 0.9934 -0.0649
vn -0.0952 0.9936 -0.0605
vn -0.5510 -0.0000 0.8345
vn -0.5527 0.0061 0.8334
vn -0.5581 0.0261 0.8293
vn -0.5589 0.0292 0.8287
vn 0.5538 -0.0330 -0.8320
vn 0.5548 -0.0270 -0.8315
vn 0.5583 -0.0058 -0.8296
vn 0.5592 -0.0000 -0.8290
vn 0.7141 0.5081 0.4816
vn 0.7154 0.5110 0.4765
vn 0.7144 0.5126 0.4762
vn 0.7212 0.5191 0.4586
vn -0.1027 0.9938 -0.0425
vn -0.1028 0.9938 -0.0430
vn -0.1031 0.9937 -0.0440
vn -0.1032 0.9939 -0.0395
vn -0.3515 -0.0000 0.9362
vn -0.3578 0.0206 0.9336
vn -0.3778 0.0901 0.9215
vn -0.3807 0.1009 0.9192
vn 0.3608 -0.1122 -0.9259
vn 0.3649 -0.0930 -0.9264
vn 0.3792 -0.0198 -0.9251
vn 0.8171 0.4666 0.3385
vn 0.8178 0.4695 0.3329
vn 0.8167 0.4712 0.3330
vn 0.8207 0.4773 0.3143
vn -0.1123 0.9934 -0.0223
vn -0.1124 0.9934 -0.0231
vn -0.1129 0.9933 -0.0236
vn -0.1119 0.9935 -0.0191
vn -0.1192 -0.0000 0.9929
vn -0.1349 0.0471 0.9897
vn -0.1831 0.1976 0.9630
vn -0.1903 0.2208 0.9566
vn 0.1433 -0.2484 -0.9580
vn 0.1534 -0.2046 -0.9668
vn 0.1866 -0.0454 -0.9814
vn 0.1951 -0.0000 -0.9808
vn 0.8354 0.5240 0.1662
vn 0.8352 0.5256 0.1616
vn 0.8342 0.5274 0.1612
vn 0.8350 0.5314 0.1428
vn -0.1142 0.9935 -0.0000
vn -0.1145 0.9934 -0.0006
vn -0.1151 0.9934 -0.0012
vn -0.1135 0.9935 0.0031
vn 0.8541 0.5201 -0.0000
vn 0.8523 0.5231 -0.0049
vn 0.8513 0.5246 -0.0047
vn 0.8469 0.5313 -0.0229
vn 0.8290 -0.0000 -0.5592
vn 0.0952 0.9936 -0.0605
vn 0.0952 0.9937 -0.0591
vn 0.0953 0.9936 -0.0599
vn 0.0941 0.9935 -0.0635
vn 0.5589 0.0292 0.8287
vn 0.5527 0.0061 0.8334
vn 0.5581 0.0261 0.8293
vn 0.5510 -0.0000 0.8345
vn -0.5592 -0.0000 -0.8290
vn -0.5548 -0.0270 -0.8315
vn -0.5583 -0.0058 -0.8296
vn -0.5538 -0.0330 -0.8320
vn -0.7212 0.5191 0.4586
vn -0.7209 0.5147 0.4641
vn -0.7200 0.5162 0.4639
vn -0.7141 0.5081 0.4816
vn 0.1032 0.9939 -0.0395
vn 0.1028 0.9940 -0.0380
vn 0.1031 0.9939 -0.0387
vn 0.1027 0.9938 -0.0425
vn 0.3807 0.1009 0.9192
vn 0.3578 0.0206 0.9336
vn 0.3778 0.0901 0.9215
vn 0.3515 -0.0000 0.9362
vn -0.3649 -0.0930 -0.9264
vn -0.3792 -0.0198 -0.9251
vn -0.3608 -0.1122 -0.9259
vn -0.8207 0.4773 0.3143
vn -0.8211 0.4727 0.3198
vn -0.8201 0.4744 0.3198
vn -0.8171 0.4666 0.3385
vn 0.1119 0.9935 -0.0191
vn 0.1113 0.9936 -0.0179
vn 0.1118 0.9936 -0.0184
vn 0.1123 0.9934 -0.0223
vn 0.1903 0.2208 0.9566
vn 0.1349 0.0471 0.9897
vn 0.1831 0.1976 0.9630
vn 0.1192 -0.0000 0.9929
vn -0.1951 -0.0000 -0.9808
vn -0.1534 -0.2046 -0.9668
vn -0.1866 -0.0454 -0.9814
vn -0.1433 -0.2484 -0.9580
vn -0.8350 0.5314 0.1428
vn -0.8362 0.5281 0.1478
vn -0.8352 0.5298 0.1473
vn -0.8354 0.5240 0.1662
vn 0.1135 0.9935 0.0031
vn 0.1127 0.9936 0.0043
vn 0.1132 0.9936 0.0038
vn 0.1142 0.9935 -0.0000
vn -0.8469 0.5313 -0.0229
vn -0.8498 0.5268 -0.0182
vn -0.8489 0.5283 -0.0179
vn -0.8541 0.5201 -0.0000
vn 0.9999 0.0119 0.0117
vn 0.9999 0.0120 0.0118
vn 0.9998 0.0145 0.0146
vn 0.9998 0.0146 0.0147
vn 0.9993 0.0367 -0.0000
vn 0.0809 0.9967 -0.0000
vn 0.0847 0.9964 -0.0000
vn 0.0579 0.9983 -0.0000
vn -0.0000 1.0000 0.0002
vn -0.0579 0.9983 -0.0000
vn -0.0850 0.9964 -0.0000
vn -0.0813 0.9967 -0.0000
vn -0.0346 0.7150 0.6983
vn -0.0223 0.7209 0.6927
vn -0.0337 0.7184 0.6948
vn -0.0228 0.7259 0.6875
vn -0.0290 0.7190 0.6944
vn -0.0285 0.7190 0.6944
vn -0.0277 0.7168 0.6967
vn -0.0259 0.7171 0.6964
vn -0.0243 0.7161 0.6976
vn -0.0163 0.7225 0.6912
vn 0.0242 0.7160 0.6977
vn 0.0277 0.7168 0.6967
vn 0.0290 0.7190 0.6944
vn 0.0224 0.7209 0.6927
vn 0.0346 0.7151 0.6981
vn 0.0346 0.7150 0.6983
vn 0.0223 0.7209 0.6927
vn 0.0291 0.7190 0.6944
vn 0.0277 0.7169 0.6967
vn 0.0243 0.7160 0.6976
vn 0.0242 0.7160 0.6976
vn 0.0163 0.7225 0.6912
vn -0.0242 0.7160 0.6977
vn -0.6489 0.6553 -0.3868
vn -0.7168 0.5988 -0.3573
vn 0.0315 0.8509 -0.5243
vn 0.0070 0.8466 -0.5321
vn 0.6843 0.6088 -0.4013
vn 0.7194 0.5761 -0.3879
vn -0.7169 0.5987 -0.3572
vn -0.6490 0.6552 -0.3867
vn -0.9803 0.1708 -0.0996
vn -0.9601 0.2419 -0.1404
vn -0.4106 -0.7880 0.4587
vn -0.4147 -0.7836 0.4626
vn -0.2679 -0.8266 0.4948
vn -0.2762 -0.8220 0.4980
vn -0.0028 -0.8505 0.5259
vn -0.0036 -0.8446 0.5354
vn 0.2605 -0.8026 0.5366
vn 0.2688 -0.7936 0.5459
vn 0.4076 -0.7497 0.5214
vn 0.4003 -0.7471 0.5306
vn 0.9786 0.1685 -0.1182
vn 0.9667 0.2105 -0.1456
vn 0.7195 0.5760 -0.3879
vn 0.6845 0.6087 -0.4012
vn 0.7197 0.6065 -0.3379
vn 0.6582 0.6597 -0.3626
vn -0.0000 0.8839 -0.4678
vn -0.0000 0.8870 -0.4617
vn -0.6582 0.6597 -0.3626
vn -0.7197 0.6065 -0.3379
vn 0.4011 -0.7940 0.4569
vn 0.4039 -0.7956 0.4515
vn 0.2678 -0.8414 0.4694
vn 0.2570 -0.8480 0.4636
vn -0.0000 -0.8865 0.4627
vn -0.0000 -0.8915 0.4531
vn -0.2570 -0.8480 0.4636
vn -0.2678 -0.8414 0.4694
vn -0.4039 -0.7956 0.4515
vn -0.4011 -0.7940 0.4569
vn 0.9804 0.1708 -0.0980
vn 0.9607 0.2413 -0.1375
vn 0.7198 0.6064 -0.3379
vn 0.6584 0.6596 -0.3625
vn -1.0000 0.0013 0.0012
vn -1.0000 0.0017 0.0014
vn -1.0000 0.0015 0.0015
vn -1.0000 0.0039 -0.0000
vn -0.0224 0.7209 0.6927
vn 0.6489 0.6553 -0.3868
vn -0.0315 0.8509 -0.5243
vn 0.7168 0.5988 -0.3573
vn -0.0070 0.8466 -0.5321
vn -0.6843 0.6088 -0.4013
vn -0.7194 0.5761 -0.3879
vn 0.7169 0.5987 -0.3572
vn 0.9803 0.1708 -0.0996
vn 0.6490 0.6552 -0.3867
vn 0.9601 0.2419 -0.1404
vn 0.4106 -0.7880 0.4587
vn 0.2679 -0.8266 0.4948
vn 0.4147 -0.7836 0.4626
vn 0.2762 -0.8220 0.4980
vn 0.0028 -0.8505 0.5259
vn 0.0036 -0.8446 0.5354
vn -0.2605 -0.8026 0.5366
vn -0.2688 -0.7936 0.5459
vn -0.4076 -0.7497 0.5214
vn -0.4003 -0.7471 0.5306
vn -0.9786 0.1685 -0.1182
vn -0.9667 0.2105 -0.1456
vn -0.7195 0.5760 -0.3879
vn -0.6845 0.6087 -0.4012
vn -0.9804 0.1708 -0.0980
vn -0.9607 0.2413 -0.1375
vn -0.7198 0.6064 -0.3378
vn -0.6584 0.6596 -0.3626
vn 0.0278 0.7283 0.6847
vn 0.0117 0.7210 0.6928
vn 0.0415 0.7335 0.6784
vn 0.0641 0.7615 0.6450
vn 0.0670 0.7762 0.6269
vn 0.0780 0.7203 0.6893
vn 0.0795 0.7150 0.6945
vn 0.0801 0.7101 0.6995
vn 0.0846 0.7036 0.7056
vn 0.0913 0.7138 0.6944
vn 0.0822 0.6792 0.7294
vn 0.0852 0.6493 0.7558
vn 0.0932 0.6466 0.7571
vn 0.0318 0.7047 0.7088
vn 0.0605 0.6874 0.7238
vn 0.0244 0.7093 0.7045
vn 0.0095 0.7196 0.6943
vn 0.0131 0.7174 0.6965
vn 0.0197 0.7189 0.6948
vn 0.0229 0.7189 0.6948
vn -0.0000 0.7193 0.6947
vn -0.0000 0.7194 0.6946
vn -0.0197 0.7189 0.6948
vn -0.0000 0.7195 0.6945
vn -0.0229 0.7189 0.6948
vn -0.0282 0.7282 0.6848
vn -0.0322 0.7050 0.7085
vn -0.0132 0.7175 0.6965
vn -0.0096 0.7196 0.6943
vn -0.0245 0.7096 0.7042
vn -0.0119 0.7210 0.6929
vn -0.0608 0.6884 0.7228
vn -0.0418 0.7331 0.6788
vn -0.0926 0.6495 0.7547
vn -0.0852 0.6518 0.7536
vn -0.0823 0.6806 0.7281
vn -0.0643 0.7600 0.6468
vn -0.0669 0.7741 0.6295
vn -0.0841 0.7041 0.7051
vn -0.0906 0.7141 0.6941
vn -0.0793 0.7101 0.6996
vn -0.0775 0.7199 0.6897
vn -0.0791 0.7148 0.6948
vn -0.8623 -0.4385 0.2532
vn -0.8623 -0.4386 -0.2532
vn -0.8623 -0.0000 -0.5064
vn -0.8623 -0.0000 0.5064
vn -0.8623 0.4386 -0.2532
vn -0.8623 0.4385 0.2532
vn 0.8623 0.4386 -0.2532
vn 0.8623 -0.0000 -0.5064
vn 0.8623 -0.4386 -0.2532
vn 0.8623 0.4386 0.2532
vn 0.8623 -0.4386 0.2532
vn 0.8623 -0.0000 0.5064
vn 0.0815 0.9965 0.0202
vn 0.0848 0.9962 0.0196
vn 0.0811 0.9965 0.0196
vn 0.0799 0.9966 0.0203
vn 0.0785 0.9967 0.0198
vn 0.0776 0.9967 0.0229
vn 0.0572 0.9982 0.0181
vn 0.0726 0.9971 0.0219
vn 0.0514 0.9985 0.0172
vn -0.0000 0.9999 0.0170
vn 0.0720 0.9972 0.0192
vn 0.0679 0.9974 0.0252
vn 0.0448 0.9989 0.0169
vn -0.0000 0.9999 0.0168
vn -0.0000 0.9999 0.0163
vn -0.0518 0.9985 0.0167
vn -0.0466 0.9988 0.0153
vn -0.0780 0.9968 0.0179
vn -0.0454 0.9988 0.0178
vn -0.0711 0.9973 0.0204
vn -0.0857 0.9962 0.0148
vn -0.0730 0.9971 0.0219
vn -0.0683 0.9973 0.0252
vn -0.0781 0.9967 0.0229
vn -0.0908 0.9958 0.0143
vn -0.1126 0.9934 0.0203
vn -0.1123 0.9935 0.0200
vn -0.0000 -1.0000 0.0006
vn -0.0003 -1.0000 0.0009
vn 0.0003 -1.0000 0.0009
vn 0.0189 -0.9811 0.1928
vn -0.0191 -0.9809 0.1935
vn 0.0248 -0.9708 0.2385
vn 0.0461 -0.8850 0.4633
vn 0.0484 -0.8849 0.4633
vn 0.0321 -0.8855 0.4635
vn 0.0178 -0.9695 0.2446
vn -0.0000 -0.9698 0.2439
vn -0.0001 -0.8861 0.4634
vn -0.0323 -0.8857 0.4631
vn -0.0248 -0.9709 0.2382
vn -0.0463 -0.8853 0.4627
vn -0.0485 -0.8852 0.4627
vn -0.0177 -0.9695 0.2444
vn 0.3825 -0.0000 -0.9240
vn -0.3825 -0.0000 -0.9240
vn 0.7070 -0.0001 0.7072
vn 0.3825 -0.0000 0.9240
vn -0.3825 -0.0000 0.9240
vn -0.7070 0.0001 0.7072
vn -0.5975 -0.5870 0.5462
vn -0.0001 -0.0001 1.0000
vn -0.5975 0.5870 0.5462
vn 0.5976 -0.5869 0.5462
vn -0.0000 -0.0001 1.0000
vn -0.5976 -0.5869 0.5463
vn 0.5975 0.5870 0.5462
vn 0.0001 0.0001 1.0000
vn 0.5975 -0.5870 0.5462
vn -0.5976 0.5869 0.5462
vn -0.0000 0.0001 1.0000
vn 0.5976 0.5869 0.5463
vn -0.8085 0.5879 0.0253
vn -0.2108 0.9774 0.0137
vn -0.6023 0.7981 0.0185
vn -0.1969 0.9803 0.0133
vn -0.0000 0.9999 0.0125
vn -0.0000 0.9999 0.0124
vn 0.1969 0.9803 0.0133
vn 0.2108 0.9774 0.0137
vn 0.6023 0.7981 0.0185
vn 0.8085 0.5879 0.0252
vn -0.9877 -0.1490 0.0479
vn -0.8084 0.5880 0.0253
vn -0.9581 -0.2746 0.0810
vn -0.7006 -0.6979 0.1484
vn -0.5998 -0.7791 0.1825
vn -0.7005 -0.6980 0.1484
vn -0.0000 -0.9769 0.2136
vn -0.5996 -0.7792 0.1825
vn -0.0000 -0.9736 0.2284
vn 0.5996 -0.7792 0.1826
vn 0.7005 -0.6980 0.1484
vn 0.6023 0.7981 0.0184
vn 0.8085 0.5881 0.0213
vn 0.9877 -0.1490 0.0479
vn 0.9581 -0.2746 0.0810
vn 0.7006 -0.6979 0.1484
vn 0.5998 -0.7791 0.1825
vn -0.7005 -0.6981 0.1484
vn -0.0000 -0.0003 -1.0000
vn -0.0001 -0.0006 -1.0000
vn -0.0001 -0.0007 -1.0000
vn -0.0000 -0.0007 -1.0000
vn 0.0001 -0.0009 -1.0000
vn 0.0001 -0.0004 -1.0000
vn 0.0001 -0.0003 -1.0000
vt 3.871938 0.534494
vt 3.851916 0.514362
vt 3.869940 0.514322
vt -2.851916 0.514362
vt -2.871938 0.534494
vt -2.869940 0.514322
vt 3.915067 0.504153
vt 3.915067 0.514322
vt 3.908476 0.504153
vt 3.908476 0.514322
vt 3.900965 0.514322
vt 3.900965 0.504153
vt 3.892809 0.504153
vt 3.892809 0.514322
vt 3.884330 0.514322
vt 3.884330 0.504153
vt 3.875851 0.504153
vt 3.875851 0.514322
vt 3.867695 0.514322
vt 3.867695 0.504153
vt 3.860184 0.504153
vt 3.860184 0.514322
vt 3.853592 0.514322
vt 3.853592 0.504153
vt 0.469193 0.504153
vt 0.475790 0.504153
vt 0.469193 0.514322
vt 0.475790 0.514322
vt 0.483307 0.514322
vt 0.483307 0.504153
vt 0.491470 0.504153
vt 0.491470 0.514322
vt 0.499993 0.514322
vt 0.499993 0.504153
vt 0.508516 0.504153
vt 0.508516 0.514322
vt 0.516679 0.514322
vt 0.516679 0.504153
vt 0.524195 0.504153
vt 0.524195 0.514322
vt 0.530792 0.514322
vt 0.530792 0.504153
vt 0.530807 0.504153
vt 0.530807 0.514322
vt 0.524210 0.504153
vt 0.524210 0.514322
vt 0.516693 0.514322
vt 0.516693 0.504153
vt 0.508530 0.504153
vt 0.508530 0.514322
vt 0.500007 0.514322
vt 0.500007 0.504153
vt 0.491484 0.504153
vt 0.491484 0.514322
vt 0.483321 0.514322
vt 0.483321 0.504153
vt 0.475804 0.504153
vt 0.475804 0.514322
vt 0.469207 0.514322
vt 0.469207 0.504153
vt -2.915067 0.504153
vt -2.908476 0.504153
vt -2.915067 0.514322
vt -2.908476 0.514322
vt -2.900965 0.514322
vt -2.900965 0.504153
vt -2.892809 0.504153
vt -2.892809 0.514322
vt -2.884330 0.514322
vt -2.884330 0.504153
vt -2.875851 0.504153
vt -2.875851 0.514322
vt -2.867695 0.514322
vt -2.867695 0.504153
vt -2.860184 0.504153
vt -2.860184 0.514322
vt -2.853592 0.514322
vt -2.853592 0.504153
vt 3.926375 0.514322
vt 3.926374 0.535703
vt 3.917723 0.514322
vt 3.917723 0.535485
vt 3.903236 0.514322
vt 3.903236 0.535144
vt 3.890487 0.534862
vt 3.890214 0.514322
vt 3.880517 0.534659
vt 3.879427 0.514322
vt -2.926375 0.514322
vt -2.917723 0.514322
vt -2.926374 0.535703
vt -2.917723 0.535485
vt -2.903236 0.514322
vt -2.903236 0.535144
vt -2.890487 0.534862
vt -2.890214 0.514322
vt -2.880517 0.534659
vt -2.879427 0.514322
vt 0.474034 0.535703
vt 0.474033 0.514322
vt 0.482293 0.536610
vt 0.482293 0.514322
vt 0.490857 0.537247
vt 0.490857 0.514322
vt 0.500029 0.537459
vt 0.500029 0.514322
vt 0.509200 0.537247
vt 0.509200 0.514322
vt 0.517765 0.536610
vt 0.517765 0.514322
vt 0.526024 0.535703
vt 0.526024 0.514322
vt 0.531151 0.526198
vt 0.468907 0.526198
vt 0.531151 0.524872
vt 0.468907 0.524872
vt 0.531151 0.523547
vt 0.468907 0.523547
vt 0.468849 3.867616
vt 0.531093 3.867616
vt 0.468849 3.869153
vt 0.531093 3.869153
vt 0.531093 0.526198
vt 0.468849 0.526198
vt 0.531093 0.524872
vt 0.468849 0.524872
vt 0.531093 0.523547
vt 0.468849 0.523547
vt 0.531151 3.869153
vt 0.468907 3.869153
vt 0.531151 3.867616
vt 0.468907 3.867616
vt 0.501831 3.878197
vt 0.501828 3.884457
vt 0.498112 3.878197
vt 0.498115 3.884457
vt 3.878197 0.537575
vt 3.878197 0.536112
vt 3.884457 0.537677
vt 3.884457 0.536215
vt -2.884457 0.537677
vt -2.884457 0.536215
vt -2.878197 0.537575
vt -2.878197 0.536112
vt 0.498112 0.537575
vt 0.498112 0.536112
vt 0.501831 0.537575
vt 0.501831 0.536112
vt 0.498172 0.537677
vt 0.498172 0.536215
vt 0.501885 0.537677
vt 0.501885 0.536215
vt 0.482336 0.534837
vt 0.490910 0.534837
vt 0.482336 0.537906
vt 0.490910 0.538486
vt 0.500029 0.538680
vt 0.500029 0.534837
vt 0.509147 0.534837
vt 0.509147 0.538486
vt 0.517721 0.537906
vt 0.517721 0.534837
vt 0.517664 0.534837
vt 0.517664 0.537906
vt 0.509090 0.534837
vt 0.509090 0.538486
vt 0.499971 0.538680
vt 0.499971 0.534837
vt 0.490853 0.534837
vt 0.490853 0.538486
vt 0.482279 0.537906
vt 0.482279 0.534837
vt 3.927494 0.534837
vt 3.927482 0.537906
vt 3.925993 0.534837
vt 3.925982 0.537906
vt 0.517664 3.925982
vt 0.517664 3.927482
vt 0.509090 3.927547
vt 0.509090 3.929048
vt 0.499971 3.928069
vt 0.499971 3.929569
vt 0.490853 3.929048
vt 0.490853 3.927547
vt 0.482279 3.927482
vt 0.482279 3.925982
vt -2.927482 0.537906
vt -2.927494 0.534837
vt -2.925982 0.537906
vt -2.925993 0.534837
vt 3.925462 0.529203
vt 3.926081 0.531139
vt 3.923815 0.528090
vt 3.917691 0.528090
vt 3.917691 0.534188
vt 3.923815 0.534188
vt 3.925462 0.533075
vt 0.462433 3.917691
vt 0.476307 3.917691
vt 0.462433 3.923815
vt 0.476307 3.923815
vt 0.462433 3.925462
vt 0.476307 3.925462
vt 0.537567 3.923815
vt 0.523693 3.923815
vt 0.537567 3.917691
vt 0.523693 3.917691
vt 0.476307 0.533075
vt 0.462433 0.533075
vt 0.476307 0.531139
vt 0.462433 0.531139
vt 0.476307 0.529203
vt 0.462433 0.529203
vt 0.537567 3.925462
vt 0.523693 3.925462
vt -2.925462 0.529203
vt -2.923815 0.528090
vt -2.926081 0.531139
vt -2.917691 0.528090
vt -2.917691 0.534188
vt -2.923815 0.534188
vt -2.925462 0.533075
vt 0.523750 3.923815
vt 0.523750 3.917691
vt 0.537624 3.923815
vt 0.537624 3.917691
vt 0.523750 3.925462
vt 0.537624 3.925462
vt 0.476250 3.917691
vt 0.476250 3.923815
vt 0.462376 3.917691
vt 0.462376 3.923815
vt 0.523750 0.533075
vt 0.523750 0.531139
vt 0.537624 0.533075
vt 0.537624 0.531139
vt 0.523750 0.529203
vt 0.537624 0.529203
vt 0.476250 3.925462
vt 0.462376 3.925462
vt -2.868170 0.517227
vt -2.870664 0.517227
vt -2.868170 0.514322
vt -2.870664 0.514322
vt 0.522975 3.870664
vt 0.521292 3.868170
vt 0.529487 3.866275
vt 0.527871 3.863737
vt 0.521292 0.517227
vt 0.521292 0.514322
vt 0.527871 0.518702
vt 0.534271 0.514322
vt 0.470513 0.518702
vt 0.464046 0.514322
vt 0.477025 0.517227
vt 0.477025 0.514322
vt 0.534271 3.859424
vt 0.535954 3.861917
vt -2.872735 0.517227
vt -2.875514 0.517227
vt -2.872735 0.514322
vt -2.875514 0.514322
vt 0.525241 3.875514
vt 0.524089 3.872735
vt 0.532497 3.872510
vt 0.531421 3.869701
vt 0.524089 0.517227
vt 0.524089 0.514322
vt 0.531421 0.518702
vt 0.538552 0.514322
vt 0.467503 0.518702
vt 0.460296 0.514322
vt 0.474759 0.517227
vt 0.474759 0.514322
vt 0.538552 3.866749
vt 0.539704 3.869528
vt -2.877653 0.517227
vt -2.880603 0.517227
vt -2.877653 0.514322
vt -2.880603 0.514322
vt 0.526478 3.880603
vt 0.525891 3.877653
vt 0.534181 3.879071
vt 0.533674 3.876106
vt 0.525891 0.517227
vt 0.525891 0.514322
vt 0.533674 0.518702
vt 0.541245 0.514322
vt 0.465819 0.518702
vt 0.458168 0.514322
vt 0.473522 0.517227
vt 0.473522 0.514322
vt 0.541245 3.874602
vt 0.541832 3.877551
vt -2.882827 0.517227
vt -2.885834 0.517227
vt -2.882827 0.514322
vt -2.885834 0.514322
vt 0.526697 3.885834
vt 0.526697 3.882827
vt 0.534551 3.885834
vt 0.534633 3.882827
vt 0.526697 0.517227
vt 0.526697 0.514322
vt 0.534633 0.518702
vt 0.542352 0.514322
vt 0.465449 0.518702
vt 0.457648 0.514322
vt 0.473303 0.517227
vt 0.473303 0.514322
vt 0.542352 3.882827
vt 0.542352 3.885834
vt 3.870664 0.514322
vt 3.870664 0.517227
vt 3.868170 0.514322
vt 3.868170 0.517227
vt 0.472071 3.863737
vt 0.478650 3.868170
vt 0.470455 3.866275
vt 0.476967 3.870664
vt 0.465671 0.514322
vt 0.478650 0.514322
vt 0.472071 0.518702
vt 0.478650 0.517227
vt 0.523033 0.514322
vt 0.536012 0.514322
vt 0.523033 0.517227
vt 0.529545 0.518702
vt 0.463988 3.861917
vt 0.465671 3.859424
vt 3.875514 0.514322
vt 3.875514 0.517227
vt 3.872735 0.514322
vt 3.872735 0.517227
vt 0.468522 3.869701
vt 0.475853 3.872735
vt 0.467445 3.872510
vt 0.474702 3.875514
vt 0.461390 0.514322
vt 0.475853 0.514322
vt 0.468522 0.518702
vt 0.475853 0.517227
vt 0.525298 0.514322
vt 0.539762 0.514322
vt 0.525298 0.517227
vt 0.532555 0.518702
vt 0.460238 3.869528
vt 0.461390 3.866749
vt 3.880603 0.514322
vt 3.880603 0.517227
vt 3.877653 0.514322
vt 3.877653 0.517227
vt 0.466269 3.876106
vt 0.474052 3.877653
vt 0.465761 3.879071
vt 0.473465 3.880603
vt 0.458698 0.514322
vt 0.474052 0.514322
vt 0.466269 0.518702
vt 0.474052 0.517227
vt 0.526535 0.514322
vt 0.541889 0.514322
vt 0.526535 0.517227
vt 0.534239 0.518702
vt 0.458111 3.877551
vt 0.458698 3.874602
vt 3.885834 0.514322
vt 3.885834 0.517227
vt 3.882827 0.514322
vt 3.882827 0.517227
vt 0.465310 3.882827
vt 0.473246 3.882827
vt 0.465391 3.885834
vt 0.473246 3.885834
vt 0.457591 0.514322
vt 0.473246 0.514322
vt 0.465310 0.518702
vt 0.473246 0.517227
vt 0.526754 0.514322
vt 0.542409 0.514322
vt 0.526754 0.517227
vt 0.534609 0.518702
vt 0.457591 3.885834
vt 0.457591 3.882827
vt 3.850149 0.515281
vt 3.870644 0.535351
vt 3.871939 0.535351
vt 0.525896 3.870644
vt 0.525896 3.871939
vt 0.517771 3.870644
vt 0.517771 3.871939
vt 0.509259 3.871939
vt 0.509259 3.870644
vt 0.499971 3.870644
vt 0.499971 3.871939
vt 0.490684 3.871939
vt 0.490684 3.870644
vt 0.482171 3.870644
vt 0.482171 3.871939
vt 0.474046 3.871939
vt 0.474046 3.870644
vt 0.499971 3.848832
vt 0.503900 3.849066
vt 0.499971 3.849667
vt 0.503587 3.849881
vt 0.506782 3.849981
vt 0.505634 3.850535
vt 0.506782 3.861512
vt 0.505634 3.861338
vt 0.504288 3.865139
vt 0.503435 3.864534
vt 0.499971 3.866705
vt 0.499971 3.865796
vt 0.496507 3.864534
vt 0.495654 3.865139
vt 0.494309 3.861338
vt 0.493160 3.861512
vt 0.494309 3.850535
vt 0.493160 3.849981
vt 0.496356 3.849881
vt 0.496042 3.849066
vt 0.515418 3.848832
vt 0.515418 3.849667
vt 0.511489 3.849066
vt 0.511802 3.849881
vt 0.508607 3.849981
vt 0.509755 3.850535
vt 0.508607 3.861512
vt 0.509755 3.861338
vt 0.511101 3.865139
vt 0.511954 3.864534
vt 0.515418 3.866705
vt 0.515418 3.865796
vt 0.518882 3.864534
vt 0.519735 3.865139
vt 0.521080 3.861338
vt 0.522229 3.861512
vt 0.521080 3.850535
vt 0.522229 3.849981
vt 0.519033 3.849881
vt 0.519347 3.849066
vt 0.511101 3.867119
vt 0.515418 3.868824
vt 0.519735 3.867545
vt -2.865139 0.534724
vt -2.867119 0.533559
vt -2.861512 0.531308
vt -2.863443 0.530192
vt -2.849981 0.520218
vt -2.851921 0.519094
vt 0.491393 3.849981
vt 0.491393 3.851921
vt 0.488511 3.849066
vt 0.488511 3.851097
vt 0.484582 3.848832
vt 0.484582 3.850958
vt 0.480653 3.849066
vt 0.480653 3.851542
vt 0.477771 3.849981
vt 0.477771 3.852688
vt 3.849981 0.520218
vt 3.852688 0.518304
vt 3.861512 0.531308
vt 3.864146 0.529468
vt 3.865139 0.534724
vt 3.867545 0.533119
vt 0.504288 3.866972
vt 0.499971 3.868411
vt 0.495654 3.866972
vt 0.493218 3.851892
vt 0.493218 3.849981
vt 0.496100 3.850891
vt 0.496100 3.849066
vt 0.500029 3.850499
vt 0.500029 3.848832
vt 0.503958 3.849066
vt 0.503958 3.850891
vt 0.506840 3.849981
vt 0.506840 3.851892
vt 3.851892 0.519123
vt 3.863417 0.530219
vt 3.866972 0.533710
vt -2.850149 0.515281
vt -2.870644 0.535351
vt -2.871939 0.535351
vt 0.484525 3.848832
vt 0.488454 3.849066
vt 0.484525 3.849667
vt 0.488140 3.849881
vt 0.491336 3.849981
vt 0.490187 3.850535
vt 0.491336 3.861512
vt 0.490187 3.861338
vt 0.488842 3.865139
vt 0.487989 3.864534
vt 0.484525 3.866705
vt 0.484525 3.865796
vt 0.481061 3.864534
vt 0.480208 3.865139
vt 0.478863 3.861338
vt 0.477714 3.861512
vt 0.478862 3.850535
vt 0.477714 3.849981
vt 0.480909 3.849881
vt 0.480596 3.849066
vt 0.488842 3.867119
vt 0.484525 3.868824
vt 0.480208 3.867545
vt 3.867119 0.533559
vt 3.863443 0.530192
vt 3.851921 0.519094
vt 0.508664 3.849981
vt 0.511546 3.849066
vt 0.508664 3.851921
vt 0.511546 3.851097
vt 0.515475 3.848832
vt 0.515475 3.850958
vt 0.519404 3.849066
vt 0.519404 3.851542
vt 0.522286 3.849981
vt 0.522286 3.852688
vt -2.852688 0.518304
vt -2.864146 0.529468
vt -2.867545 0.533119
vt -2.851892 0.519123
vt -2.863417 0.530219
vt -2.866972 0.533710
vt 0.508607 3.863443
vt 0.522229 3.864146
vt 0.525896 3.850149
vt 0.522229 3.852688
vt 0.519347 3.851542
vt 0.517771 3.848913
vt 0.515418 3.850958
vt 0.509259 3.847986
vt 0.511489 3.851097
vt 0.508607 3.851921
vt 0.506782 3.863417
vt 0.506782 3.851892
vt 0.503900 3.850891
vt 0.499971 3.847677
vt 0.499971 3.850499
vt 0.496042 3.850891
vt 0.490684 3.847986
vt 0.493160 3.851892
vt 0.493160 3.863417
vt 0.491336 3.851921
vt 0.491336 3.863443
vt 0.488454 3.851097
vt 0.484525 3.850958
vt 0.482171 3.848913
vt 0.480596 3.851542
vt 0.474046 3.850149
vt 0.477714 3.852688
vt 0.477714 3.864146
vt 0.540237 3.900965
vt 0.500007 3.884330
vt 0.542705 3.892809
vt 0.543549 3.884330
vt 0.536210 3.908476
vt 0.542705 3.875851
vt 0.530807 3.915067
vt 0.540237 3.867695
vt 0.524210 3.920467
vt 0.536210 3.860184
vt 0.516693 3.924490
vt 0.530807 3.853592
vt 0.508530 3.926956
vt 0.524210 3.848193
vt 0.500007 3.927799
vt 0.516693 3.844169
vt 0.491484 3.926956
vt 0.508530 3.841703
vt 0.483321 3.924490
vt 0.500007 3.840860
vt 0.475805 3.920467
vt 0.491484 3.841703
vt 0.469208 3.915067
vt 0.483321 3.844169
vt 0.463804 3.908476
vt 0.475804 3.848193
vt 0.459777 3.900965
vt 0.469207 3.853592
vt 0.457309 3.892809
vt 0.463804 3.860184
vt 0.456465 3.884330
vt 0.459777 3.867695
vt 0.457309 3.875851
vt -2.867616 0.523547
vt -2.868384 0.524872
vt -2.869153 0.523547
vt -2.869921 0.524872
vt -2.866847 0.524872
vt -2.869153 0.526198
vt -2.867616 0.526198
vt 3.869153 0.526198
vt 3.868384 0.524872
vt 3.869921 0.524872
vt 3.869153 0.523547
vt 3.867616 0.526198
vt 3.867616 0.523547
vt 3.866847 0.524872
vt 0.537567 0.534188
vt 0.536656 0.533282
vt 0.537567 0.528090
vt 0.536656 0.528996
vt 0.531902 0.533282
vt 0.523693 0.528090
vt 0.523693 0.534188
vt 0.531902 0.528996
vt 0.463286 0.528996
vt 0.463286 0.533282
vt 0.462376 0.528090
vt 0.462376 0.534188
vt 0.476250 0.528090
vt 0.468041 0.533282
vt 0.468041 0.528996
vt 0.476250 0.534188
vt 0.525966 3.880517
vt 0.517824 3.871938
vt 0.525928 3.871938
vt 0.525966 3.890487
vt 0.517757 3.903235
vt 0.525966 3.903236
vt 0.509300 3.871938
vt 0.525966 3.917723
vt 0.509208 3.903235
vt 0.500000 3.871938
vt 0.517707 3.928611
vt 0.525966 3.926374
vt 0.509143 3.930163
vt 0.499971 3.930709
vt 0.499971 3.903235
vt 0.490735 3.903235
vt 0.490700 3.871938
vt 0.482185 3.903235
vt 0.490800 3.930163
vt 0.482235 3.928611
vt 0.482176 3.871938
vt 0.473976 3.917723
vt 0.473976 3.926374
vt 0.473976 3.903236
vt 0.473976 3.890487
vt 0.473976 3.880517
vt 0.474043 3.871938
vt 0.500029 3.930709
vt 0.490857 3.930163
vt 0.500029 3.884331
vt 0.482293 3.928611
vt 0.509200 3.930162
vt 0.474033 3.926375
vt 0.517765 3.928611
vt 0.469145 3.917723
vt 0.526024 3.926375
vt 0.463039 3.903236
vt 0.530912 3.917723
vt 0.460804 3.890214
vt 0.537018 3.903236
vt 0.461284 3.879427
vt 0.539253 3.890214
vt 0.464025 3.869940
vt 0.538774 3.879427
vt 0.536032 3.869940
vt 0.474072 3.851916
vt 0.525957 3.851916
vt 0.482203 3.850678
vt 0.474104 3.850149
vt 0.482229 3.848913
vt 0.490741 3.847986
vt 0.490721 3.849751
vt 0.500015 3.849441
vt 0.500029 3.847677
vt 0.509316 3.847986
vt 0.517827 3.850678
vt 0.525954 3.850149
vt 0.517829 3.848913
vt 0.509308 3.849751
vt 0.456451 3.884330
vt 0.499993 3.884330
vt 0.457295 3.892809
vt 0.459763 3.900965
vt 0.457295 3.875851
vt 0.463790 3.908476
vt 0.459763 3.867695
vt 0.469193 3.915067
vt 0.463790 3.860184
vt 0.475790 3.920467
vt 0.469193 3.853592
vt 0.483307 3.924490
vt 0.475790 3.848193
vt 0.491470 3.926956
vt 0.483307 3.844169
vt 0.499993 3.927799
vt 0.491470 3.841703
vt 0.508516 3.926956
vt 0.499993 3.840860
vt 0.516679 3.924490
vt 0.508516 3.841703
vt 0.524195 3.920467
vt 0.516679 3.844169
vt 0.530792 3.915067
vt 0.524196 3.848193
vt 0.536196 3.908476
vt 0.530793 3.853592
vt 0.540223 3.900965
vt 0.536196 3.860184
vt 0.542691 3.892809
vt 0.540223 3.867695
vt 0.543535 3.884330
vt 0.542691 3.875851
vt 3.906797 0.504153
vt 3.896489 0.504153
vt 3.906797 0.500000
vt 3.896489 0.500000
vt 3.884330 0.504153
vt 3.884330 0.500000
vt 3.872170 0.504153
vt 3.872170 0.500000
vt 3.861862 0.504153
vt 3.861862 0.500000
vt 0.477480 0.500000
vt 0.487796 0.500000
vt 0.477480 0.504153
vt 0.487796 0.504153
vt 0.499993 0.500000
vt 0.499993 0.504153
vt 0.512189 0.500000
vt 0.512189 0.504153
vt 0.522505 0.500000
vt 0.522505 0.504153
vt 0.522520 0.504153
vt 0.512203 0.504153
vt 0.522520 0.500000
vt 0.512203 0.500000
vt 0.500007 0.504153
vt 0.500007 0.500000
vt 0.487811 0.504153
vt 0.487811 0.500000
vt 0.477494 0.504153
vt 0.477494 0.500000
vt -2.906797 0.500000
vt -2.896489 0.500000
vt -2.906797 0.504153
vt -2.896489 0.504153
vt -2.884330 0.500000
vt -2.884330 0.504153
vt -2.872170 0.500000
vt -2.872170 0.504153
vt -2.861862 0.500000
vt -2.861862 0.504153
vt -2.917691 0.533282
vt -2.922602 0.531139
vt -2.917691 0.528996
vt 0.468098 3.917691
vt 0.465721 3.922602
vt 0.463344 3.917691
vt 3.917691 0.528996
vt 3.922602 0.531139
vt 3.917691 0.533282
vt 0.536656 3.917691
vt 0.534279 3.922602
vt 0.531902 3.917691
vt 3.917691 0.533282
vt 3.917691 0.528996
vt 0.534336 3.922602
vt 0.531959 3.917691
vt 0.536714 3.917691
vt 0.465664 3.922602
vt 0.463286 3.917691
vt 0.468041 3.917691
vt 0.505090 3.879410
vt 0.503240 3.879410
vt 0.499971 3.879410
vt 0.496702 3.879410
vt 0.494852 3.879410
vt -2.850535 0.520705
vt -2.861338 0.531096
vt -2.879410 0.520971
vt -2.879410 0.528313
vt -2.864534 0.534107
vt -2.879410 0.531035
vt 0.496565 3.864534
vt 0.500029 3.865796
vt 0.496896 3.879410
vt 0.500029 3.879410
vt 0.503161 3.879410
vt 0.503493 3.864534
vt 0.505090 0.520971
vt 0.505090 0.528313
vt 0.503240 0.520357
vt 0.503104 0.531035
vt 0.499971 0.520018
vt 0.499971 0.532052
vt 0.496839 0.531035
vt 0.496702 0.520357
vt 0.494852 0.528313
vt 0.494852 0.520971
vt 0.510299 3.879410
vt 0.512149 3.879410
vt 0.515418 3.879410
vt 0.518687 3.879410
vt 0.520537 3.879410
vt 3.850535 0.520705
vt 3.879410 0.520971
vt 3.861338 0.531096
vt 3.879410 0.528313
vt 3.864534 0.534107
vt 3.879410 0.531035
vt 0.488046 3.864534
vt 0.487715 3.879410
vt 0.484582 3.865796
vt 0.484582 3.879410
vt 0.481450 3.879410
vt 0.481118 3.864534
vt 0.510299 0.520971
vt 0.512149 0.520357
vt 0.510299 0.528313
vt 0.512285 0.531035
vt 0.515418 0.520018
vt 0.515418 0.532052
vt 0.518550 0.531035
vt 0.518687 0.520357
vt 0.520537 0.528313
vt 0.520537 0.520971
vt 0.489644 3.879410
vt 0.487794 3.879410
vt 0.484525 3.879410
vt 0.481256 3.879410
vt 0.479406 3.879410
vt 0.512011 3.864534
vt 0.515475 3.865796
vt 0.512343 3.879410
vt 0.515475 3.879410
vt 0.518607 3.879410
vt 0.518939 3.864534
vt 0.489644 0.520971
vt 0.489644 0.528313
vt 0.487794 0.520357
vt 0.487657 0.531035
vt 0.484525 0.520018
vt 0.484525 0.532052
vt 0.481393 0.531035
vt 0.481256 0.520357
vt 0.479406 0.528313
vt 0.479406 0.520971
vt 0.474072 0.534494
vt 0.482176 0.535500
vt 0.474104 0.535351
vt 0.482229 0.536356
vt 0.490700 0.536254
vt 0.490741 0.537109
vt 0.500000 0.536505
vt 0.500029 0.537360
vt 0.509300 0.536254
vt 0.509316 0.537109
vt 0.517829 0.536356
vt 0.517824 0.535500
vt 0.525954 0.535351
vt 0.525957 0.534494
s 1
f 3/1/1 2/2/1 1/3/1
f 6/4/2 5/5/2 4/6/2
f 9/7/3 8/8/3 7/9/4
f 10/10/4 7/9/4 8/8/3
f 10/10/4 11/11/5 7/9/4
f 12/12/5 7/9/4 11/11/5
f 12/12/5 11/11/5 13/13/6
f 14/14/6 13/13/6 11/11/5
f 14/14/6 15/15/7 13/13/6
f 16/16/7 13/13/6 15/15/7
f 16/16/7 15/15/7 17/17/8
f 18/18/8 17/17/8 15/15/7
f 18/18/8 19/19/9 17/17/8
f 20/20/9 17/17/8 19/19/9
f 20/20/9 19/19/9 21/21/10
f 22/22/10 21/21/10 19/19/9
f 22/22/10 23/23/11 21/21/10
f 24/24/11 21/21/10 23/23/11
f 27/25/12 26/26/13 25/27/12
f 28/28/13 25/27/12 26/26/13
f 28/28/13 26/26/13 29/29/14
f 30/30/14 29/29/14 26/26/13
f 30/30/14 31/31/15 29/29/14
f 32/32/15 29/29/14 31/31/15
f 32/32/15 31/31/15 33/33/16
f 34/34/16 33/33/16 31/31/15
f 34/34/16 35/35/17 33/33/16
f 36/36/17 33/33/16 35/35/17
f 36/36/17 35/35/17 37/37/18
f 38/38/18 37/37/18 35/35/17
f 38/38/18 39/39/19 37/37/18
f 40/40/19 37/37/18 39/39/19
f 40/40/19 39/39/19 41/41/20
f 42/42/20 41/41/20 39/39/19
f 45/43/21 44/44/21 43/45/22
f 46/46/22 43/45/22 44/44/21
f 46/46/22 47/47/23 43/45/22
f 48/48/23 43/45/22 47/47/23
f 48/48/23 47/47/23 49/49/24
f 50/50/24 49/49/24 47/47/23
f 50/50/24 51/51/25 49/49/24
f 52/52/25 49/49/24 51/51/25
f 52/52/25 51/51/25 53/53/26
f 54/54/26 53/53/26 51/51/25
f 54/54/26 55/55/27 53/53/26
f 56/56/27 53/53/26 55/55/27
f 56/56/27 55/55/27 57/57/28
f 58/58/28 57/57/28 55/55/27
f 58/58/28 59/59/29 57/57/28
f 60/60/29 57/57/28 59/59/29
f 63/61/30 62/62/31 61/63/30
f 64/64/31 61/63/30 62/62/31
f 64/64/31 62/62/31 65/65/32
f 66/66/32 65/65/32 62/62/31
f 66/66/32 67/67/33 65/65/32
f 68/68/33 65/65/32 67/67/33
f 68/68/33 67/67/33 69/69/34
f 70/70/34 69/69/34 67/67/33
f 70/70/34 71/71/35 69/69/34
f 72/72/35 69/69/34 71/71/35
f 72/72/35 71/71/35 73/73/36
f 74/74/36 73/73/36 71/71/35
f 74/74/36 75/75/37 73/73/36
f 76/76/37 73/73/36 75/75/37
f 76/76/37 75/75/37 77/77/38
f 78/78/38 77/77/38 75/75/37
f 81/79/39 80/80/40 79/81/41
f 82/82/42 79/81/41 80/80/40
f 79/81/41 82/82/42 83/83/43
f 84/84/44 83/83/43 82/82/42
f 84/84/44 85/85/45 83/83/43
f 86/86/46 83/83/43 85/85/45
f 85/85/45 87/87/47 86/86/46
f 88/88/48 86/86/46 87/87/47
f 88/88/48 87/87/47 89/3/49
f 90/1/50 89/3/49 87/87/47
f 93/89/51 92/90/52 91/91/53
f 94/92/54 91/91/53 92/90/52
f 92/90/52 95/93/55 94/92/54
f 96/94/56 94/92/54 95/93/55
f 96/94/56 95/93/55 97/95/57
f 98/96/58 97/95/57 95/93/55
f 97/95/57 98/96/58 99/97/59
f 100/98/60 99/97/59 98/96/58
f 100/98/60 101/6/61 99/97/59
f 102/5/62 99/97/59 101/6/61
f 105/99/63 104/100/64 103/101/65
f 106/102/66 103/101/65 104/100/64
f 103/101/65 106/102/66 107/103/67
f 108/104/68 107/103/67 106/102/66
f 107/103/67 108/104/68 109/105/69
f 110/106/70 109/105/69 108/104/68
f 109/105/69 110/106/70 111/107/71
f 112/108/72 111/107/71 110/106/70
f 111/107/71 112/108/72 113/109/73
f 114/110/74 113/109/73 112/108/72
f 113/109/73 114/110/74 115/111/75
f 116/112/76 115/111/75 114/110/74
f 119/113/77 118/114/77 117/115/16
f 120/116/16 117/115/16 118/114/77
f 117/115/16 120/116/16 121/117/78
f 122/118/78 121/117/78 120/116/16
f 125/119/79 124/120/79 123/121/77
f 126/122/77 123/121/77 124/120/79
f 129/123/79 128/124/79 127/125/25
f 130/126/25 127/125/25 128/124/79
f 127/125/25 130/126/25 131/127/80
f 132/128/80 131/127/80 130/126/25
f 135/129/78 134/130/78 133/131/80
f 136/132/80 133/131/80 134/130/78
f 139/133/81 138/134/81 137/135/81
f 140/136/81 137/135/81 138/134/81
f 143/137/82 142/138/82 141/139/82
f 144/140/82 141/139/82 142/138/82
f 147/141/83 146/142/83 145/143/83
f 148/144/83 145/143/83 146/142/83
f 151/145/25 150/146/25 149/147/25
f 152/148/25 149/147/25 150/146/25
f 155/149/16 154/150/16 153/151/16
f 156/152/16 153/151/16 154/150/16
f 159/153/84 158/154/85 157/155/86
f 160/156/87 157/155/86 158/154/85
f 160/156/87 158/154/85 161/157/88
f 162/158/89 161/157/88 158/154/85
f 162/158/89 163/159/90 161/157/88
f 164/160/91 161/157/88 163/159/90
f 164/160/91 163/159/90 165/161/92
f 166/162/93 165/161/92 163/159/90
f 169/163/94 168/164/95 167/165/96
f 170/166/97 167/165/96 168/164/95
f 170/166/97 171/167/98 167/165/96
f 172/168/99 167/165/96 171/167/98
f 172/168/99 171/167/98 173/169/100
f 174/170/101 173/169/100 171/167/98
f 174/170/101 175/171/102 173/169/100
f 176/172/103 173/169/100 175/171/102
f 179/173/7 178/174/7 177/175/7
f 180/176/7 177/175/7 178/174/7
f 183/177/104 182/178/104 181/179/105
f 184/180/106 181/179/105 182/178/104
f 181/179/105 184/180/106 185/181/107
f 186/182/107 185/181/107 184/180/106
f 186/182/107 187/183/108 185/181/107
f 188/184/109 185/181/107 187/183/108
f 187/183/108 189/185/110 188/184/109
f 190/186/110 188/184/109 189/185/110
f 193/187/34 192/188/34 191/189/34
f 194/190/34 191/189/34 192/188/34
f 197/191/7 196/192/7 195/193/7
f 198/194/7 195/193/7 196/192/7
f 196/192/7 199/195/7 198/194/7
f 199/195/7 196/192/7 200/196/7
f 201/197/7 200/196/7 196/192/7
f 204/198/111 203/199/111 202/200/111
f 205/201/111 202/200/111 203/199/111
f 208/200/112 207/201/112 206/202/113
f 209/203/113 206/202/113 207/201/112
f 212/204/107 211/205/107 210/206/107
f 213/207/107 210/206/107 211/205/107
f 216/208/114 215/209/114 214/210/16
f 217/211/16 214/210/16 215/209/114
f 214/210/16 217/211/16 218/212/115
f 219/213/115 218/212/115 217/211/16
f 222/214/116 221/215/116 220/204/117
f 223/205/117 220/204/117 221/215/116
f 226/216/34 225/217/34 224/218/34
f 227/219/34 224/218/34 225/217/34
f 228/220/34 224/218/34 227/219/34
f 228/220/34 229/221/34 224/218/34
f 230/222/34 224/218/34 229/221/34
f 233/223/111 232/224/111 231/225/111
f 234/226/111 231/225/111 232/224/111
f 237/227/113 236/223/112 235/228/113
f 238/225/112 235/228/113 236/223/112
f 241/229/107 240/230/107 239/231/107
f 242/232/107 239/231/107 240/230/107
f 245/233/114 244/234/16 243/235/114
f 246/236/16 243/235/114 244/234/16
f 244/234/16 247/237/115 246/236/16
f 248/238/115 246/236/16 247/237/115
f 251/230/117 250/239/116 249/232/117
f 252/240/118 249/232/117 250/239/116
f 255/241/119 254/242/119 253/243/119
f 256/244/119 253/243/119 254/242/119
f 259/245/120 258/246/121 257/247/122
f 260/248/123 257/247/122 258/246/121
f 263/249/124 262/250/125 261/251/126
f 264/252/127 261/251/126 262/250/125
f 267/253/128 266/254/129 265/255/130
f 268/256/131 265/255/130 266/254/129
f 271/257/132 270/258/133 269/248/134
f 272/247/135 269/248/134 270/258/133
f 275/259/32 274/260/32 273/261/32
f 276/262/32 273/261/32 274/260/32
f 279/263/136 278/264/137 277/265/138
f 280/266/139 277/265/138 278/264/137
f 283/267/140 282/268/141 281/269/142
f 284/270/143 281/269/142 282/268/141
f 287/271/144 286/272/145 285/273/146
f 288/274/14 285/273/146 286/272/145
f 291/275/147 290/276/148 289/266/149
f 292/265/150 289/266/149 290/276/148
f 295/277/33 294/278/33 293/279/33
f 296/280/33 293/279/33 294/278/33
f 299/281/151 298/282/152 297/283/153
f 300/284/154 297/283/153 298/282/152
f 303/285/155 302/286/156 301/287/157
f 304/288/158 301/287/157 302/286/156
f 307/289/159 306/290/160 305/291/161
f 308/292/162 305/291/161 306/290/160
f 311/293/163 310/294/164 309/284/165
f 312/283/166 309/284/165 310/294/164
f 315/295/34 314/296/34 313/297/34
f 316/298/34 313/297/34 314/296/34
f 319/299/167 318/300/168 317/301/169
f 320/302/170 317/301/169 318/300/168
f 323/303/25 322/304/25 321/305/25
f 324/306/25 321/305/25 322/304/25
f 327/307/16 326/308/16 325/309/16
f 328/310/16 325/309/16 326/308/16
f 331/311/171 330/312/172 329/302/173
f 332/301/174 329/302/173 330/312/172
f 335/313/175 334/314/175 333/315/175
f 336/316/175 333/315/175 334/314/175
f 339/317/176 338/318/177 337/319/178
f 340/320/179 337/319/178 338/318/177
f 343/321/180 342/322/181 341/323/182
f 344/324/183 341/323/182 342/322/181
f 347/325/184 346/326/185 345/327/186
f 348/328/187 345/327/186 346/326/185
f 351/319/188 350/329/189 349/317/190
f 352/330/191 349/317/190 350/329/189
f 355/331/5 354/332/5 353/333/5
f 356/334/5 353/333/5 354/332/5
f 359/335/192 358/336/193 357/337/194
f 360/338/195 357/337/194 358/336/193
f 363/339/196 362/340/197 361/341/198
f 364/342/199 361/341/198 362/340/197
f 367/343/18 366/344/200 365/345/201
f 368/346/202 365/345/201 366/344/200
f 371/337/203 370/347/204 369/335/205
f 372/348/206 369/335/205 370/347/204
f 375/349/6 374/350/6 373/351/6
f 376/352/6 373/351/6 374/350/6
f 379/353/207 378/354/208 377/355/209
f 380/356/210 377/355/209 378/354/208
f 383/357/211 382/358/212 381/359/213
f 384/360/214 381/359/213 382/358/212
f 387/361/215 386/362/216 385/363/217
f 388/364/218 385/363/217 386/362/216
f 391/355/219 390/365/220 389/353/221
f 392/366/222 389/353/221 390/365/220
f 395/367/7 394/368/7 393/369/7
f 396/370/7 393/369/7 394/368/7
f 399/371/223 398/372/224 397/373/225
f 400/374/226 397/373/225 398/372/224
f 403/375/25 402/376/25 401/377/25
f 404/378/25 401/377/25 402/376/25
f 407/379/16 406/380/16 405/381/16
f 408/382/16 405/381/16 406/380/16
f 411/373/227 410/383/228 409/371/229
f 412/384/230 409/371/229 410/383/228
f 415/385/231 414/2/232 413/386/233
f 416/1/234 413/386/233 414/2/232
f 416/1/234 417/387/235 413/386/233
f 420/388/236 419/389/236 418/390/237
f 421/391/237 418/390/237 419/389/236
f 421/391/237 422/392/238 418/390/237
f 423/393/238 418/390/237 422/392/238
f 423/393/238 422/392/238 424/394/239
f 425/395/239 424/394/239 422/392/238
f 425/395/239 426/396/240 424/394/239
f 427/397/240 424/394/239 426/396/240
f 427/397/240 426/396/240 428/398/241
f 429/399/241 428/398/241 426/396/240
f 429/399/241 430/400/242 428/398/241
f 431/401/242 428/398/241 430/400/242
f 434/402/243 433/403/244 432/404/245
f 435/405/246 432/404/245 433/403/244
f 433/403/244 436/406/247 435/405/246
f 437/407/248 435/405/246 436/406/247
f 436/406/247 438/408/249 437/407/248
f 439/409/250 437/407/248 438/408/249
f 438/408/249 440/410/251 439/409/250
f 441/411/252 439/409/250 440/410/251
f 440/410/251 442/412/252 441/411/252
f 443/413/252 441/411/252 442/412/252
f 443/413/252 445/412/253 444/414/253
f 446/415/253 444/414/253 445/412/253
f 444/414/253 446/415/253 447/416/254
f 448/417/254 447/416/254 446/415/253
f 447/416/254 448/417/254 449/418/255
f 450/419/255 449/418/255 448/417/254
f 449/418/255 450/419/255 451/420/256
f 452/421/256 451/420/256 450/419/255
f 451/420/256 452/421/256 453/404/257
f 454/402/258 453/404/257 452/421/256
f 457/422/258 456/423/257 455/424/259
f 458/425/256 455/424/259 456/423/257
f 455/424/259 458/425/256 459/426/255
f 460/427/260 459/426/255 458/425/256
f 459/426/255 460/427/260 461/428/254
f 462/429/261 461/428/254 460/427/260
f 461/428/254 462/429/261 463/430/262
f 464/431/263 463/430/262 462/429/261
f 463/430/262 464/431/263 465/432/253
f 466/433/264 465/432/253 464/431/263
f 466/433/264 468/434/252 467/432/252
f 469/435/265 467/432/252 468/434/252
f 468/434/252 470/436/250 469/435/265
f 471/437/249 469/435/265 470/436/250
f 470/436/250 472/438/248 471/437/249
f 473/439/247 471/437/249 472/438/248
f 472/438/248 474/440/246 473/439/247
f 475/441/244 473/439/247 474/440/246
f 474/440/246 476/423/245 475/441/244
f 477/422/243 475/441/244 476/423/245
f 480/442/266 479/430/267 478/443/268
f 481/432/269 478/443/268 479/430/267
f 478/443/268 481/432/269 482/444/270
f 483/435/271 482/444/270 481/432/269
f 486/445/272 485/446/273 484/447/274
f 487/448/275 484/447/274 485/446/273
f 484/447/274 487/448/275 488/449/34
f 489/450/34 488/449/34 487/448/275
f 492/451/276 491/452/277 490/453/278
f 493/454/279 490/453/278 491/452/277
f 490/453/278 493/454/279 494/455/280
f 495/456/281 494/455/280 493/454/279
f 494/455/280 495/456/281 496/457/282
f 497/458/283 496/457/282 495/456/281
f 496/457/282 497/458/283 498/459/284
f 499/460/285 498/459/284 497/458/283
f 502/461/7 501/462/7 500/463/286
f 503/464/287 500/463/286 501/462/7
f 500/463/286 503/464/287 504/465/288
f 505/466/289 504/465/288 503/464/287
f 508/410/290 507/467/291 506/412/292
f 509/468/293 506/412/292 507/467/291
f 509/468/293 510/469/294 506/412/292
f 511/415/295 506/412/292 510/469/294
f 514/470/296 513/471/297 512/472/298
f 515/473/299 512/472/298 513/471/297
f 512/472/298 515/473/299 516/474/300
f 517/475/301 516/474/300 515/473/299
f 517/475/301 518/476/302 516/474/300
f 519/477/303 516/474/300 518/476/302
f 518/476/302 520/478/304 519/477/303
f 521/479/305 519/477/303 520/478/304
f 524/461/7 523/480/7 522/463/306
f 525/481/307 522/463/306 523/480/7
f 522/463/306 525/481/307 526/465/308
f 527/482/309 526/465/308 525/481/307
f 530/483/310 529/484/311 528/4/310
f 531/5/312 528/4/310 529/484/311
f 532/485/313 531/5/312 529/484/311
f 535/486/243 534/487/314 533/488/245
f 536/489/246 533/488/245 534/487/314
f 534/487/314 537/490/247 536/489/246
f 538/491/248 536/489/246 537/490/247
f 537/490/247 539/492/249 538/491/248
f 540/493/250 538/491/248 539/492/249
f 539/492/249 541/494/265 540/493/250
f 542/495/252 540/493/250 541/494/265
f 541/494/265 543/496/252 542/495/252
f 544/497/252 542/495/252 543/496/252
f 544/497/252 546/496/253 545/498/253
f 547/499/253 545/498/253 546/496/253
f 545/498/253 547/499/253 548/500/261
f 549/501/254 548/500/261 547/499/253
f 548/500/261 549/501/254 550/502/260
f 551/503/255 550/502/260 549/501/254
f 550/502/260 551/503/255 552/504/256
f 553/505/259 552/504/256 551/503/255
f 552/504/256 553/505/259 554/488/258
f 555/486/258 554/488/258 553/505/259
f 558/506/315 557/507/316 556/494/317
f 559/496/318 556/494/317 557/507/316
f 557/507/316 560/508/319 559/496/318
f 561/499/320 559/496/318 560/508/319
f 564/465/321 563/463/322 562/509/323
f 565/510/324 562/509/323 563/463/322
f 563/463/322 566/461/7 565/510/324
f 567/511/7 565/510/324 566/461/7
f 570/512/325 569/513/326 568/514/327
f 571/515/328 568/514/327 569/513/326
f 569/513/326 572/516/329 571/515/328
f 573/517/330 571/515/328 572/516/329
f 572/516/329 574/518/331 573/517/330
f 575/519/332 573/517/330 574/518/331
f 574/518/331 576/520/333 575/519/332
f 577/521/334 575/519/332 576/520/333
f 580/449/34 579/447/335 578/522/34
f 581/523/336 578/522/34 579/447/335
f 579/447/335 582/445/337 581/523/336
f 583/524/338 581/523/336 582/445/337
f 586/449/34 585/447/339 584/525/34
f 587/526/340 584/525/34 585/447/339
f 585/447/339 588/445/341 587/526/340
f 589/527/342 587/526/340 588/445/341
f 592/393/343 591/528/344 590/442/345
f 593/443/346 592/393/343 590/442/345
f 594/390/347 592/393/343 593/443/346
f 594/390/347 593/443/346 595/388/348
f 596/444/349 595/388/348 593/443/346
f 597/529/350 595/388/348 596/444/349
f 595/388/348 597/529/350 598/530/351
f 599/531/352 598/530/351 597/529/350
f 600/532/353 598/530/351 599/531/352
f 601/533/354 598/530/351 600/532/353
f 601/533/354 600/532/353 602/534/355
f 603/535/356 601/533/354 602/534/355
f 604/536/357 603/535/356 602/534/355
f 605/537/358 603/535/356 604/536/357
f 591/528/344 606/538/359 605/537/358
f 592/393/343 606/538/359 591/528/344
f 607/539/360 605/537/358 606/538/359
f 605/537/358 607/539/360 603/535/356
f 608/467/361 606/538/359 592/393/343
f 603/535/356 607/539/360 609/540/362
f 592/393/343 610/394/363 608/467/361
f 611/468/364 608/467/361 610/394/363
f 611/468/364 610/394/363 612/469/365
f 603/535/356 609/540/362 613/541/363
f 614/542/366 613/541/363 609/540/362
f 614/542/366 615/543/367 613/541/363
f 616/397/368 612/469/365 610/394/363
f 617/544/369 613/541/363 615/543/367
f 618/545/370 617/544/369 615/543/367
f 619/546/371 612/469/365 616/397/368
f 618/545/370 619/546/371 620/547/372
f 618/545/370 620/547/372 617/544/369
f 621/548/373 620/547/372 619/546/371
f 619/546/371 616/397/368 621/548/373
f 617/544/369 620/547/372 622/549/374
f 621/548/373 616/397/368 623/506/375
f 617/544/369 622/549/374 624/550/376
f 625/551/377 617/544/369 624/550/376
f 626/552/378 625/551/377 624/550/376
f 616/397/368 627/507/379 623/506/375
f 616/397/368 628/398/380 627/507/379
f 629/553/381 625/551/377 626/552/378
f 629/553/381 626/552/378 630/554/382
f 630/554/382 631/555/383 629/553/381
f 628/398/380 632/401/384 627/507/379
f 632/401/384 629/553/381 631/555/383
f 633/508/385 627/507/379 632/401/384
f 632/401/384 631/555/383 633/508/385
f 636/556/107 635/557/107 634/558/107
f 634/558/107 635/557/107 637/559/107
f 638/560/107 635/557/107 636/556/107
f 637/559/107 635/557/107 639/561/107
f 640/562/107 635/557/107 638/560/107
f 639/561/107 635/557/107 641/563/107
f 642/564/107 635/557/107 640/562/107
f 641/563/107 635/557/107 643/565/107
f 644/566/107 635/557/107 642/564/107
f 643/565/107 635/557/107 645/567/107
f 646/568/107 635/557/107 644/566/107
f 645/567/107 635/557/107 647/569/107
f 648/570/107 635/557/107 646/568/107
f 647/569/107 635/557/107 649/571/107
f 635/557/107 648/570/107 650/572/107
f 649/571/107 635/557/107 651/573/107
f 635/557/107 650/572/107 652/574/107
f 651/573/107 635/557/107 653/575/107
f 635/557/107 652/574/107 654/576/107
f 635/557/107 655/577/107 653/575/107
f 635/557/107 654/576/107 656/578/107
f 635/557/107 657/579/107 655/577/107
f 635/557/107 656/578/107 658/580/107
f 635/557/107 659/581/107 657/579/107
f 635/557/107 658/580/107 660/582/107
f 635/557/107 661/583/107 659/581/107
f 635/557/107 660/582/107 662/584/107
f 635/557/107 663/585/107 661/583/107
f 635/557/107 662/584/107 664/586/107
f 635/557/107 665/587/107 663/585/107
f 635/557/107 664/586/107 666/588/107
f 635/557/107 666/588/107 665/587/107
f 669/589/386 668/590/34 667/591/387
f 667/591/387 668/590/34 670/592/388
f 671/593/389 668/590/34 669/589/386
f 670/592/388 668/590/34 672/594/390
f 673/595/391 668/590/34 671/593/389
f 672/594/390 668/590/34 673/595/391
f 676/596/392 675/597/7 674/598/393
f 674/598/393 675/597/7 677/599/394
f 678/600/395 675/597/7 676/596/392
f 677/599/394 675/597/7 679/601/396
f 680/602/397 675/597/7 678/600/395
f 679/601/396 675/597/7 680/602/397
f 683/603/25 682/604/25 681/605/25
f 684/606/25 681/605/25 682/604/25
f 682/604/25 683/603/25 685/607/25
f 681/605/25 684/606/25 686/608/25
f 687/609/25 685/607/25 683/603/25
f 688/610/25 686/608/25 684/606/25
f 685/607/25 687/609/25 688/610/25
f 686/608/25 688/610/25 687/609/25
f 691/611/25 690/612/25 689/613/25
f 692/614/25 689/613/25 690/612/25
f 689/613/25 693/615/25 691/611/25
f 690/612/25 694/616/25 692/614/25
f 695/617/25 691/611/25 693/615/25
f 696/618/25 692/614/25 694/616/25
f 693/615/25 696/618/25 695/617/25
f 694/616/25 695/617/25 696/618/25
f 699/619/398 698/620/399 697/621/400
f 699/619/398 700/622/401 698/620/399
f 698/620/399 700/622/401 701/623/402
f 702/624/403 701/623/402 700/622/401
f 698/620/399 701/623/402 703/625/404
f 702/624/403 704/626/405 701/623/402
f 705/627/406 703/625/404 701/623/402
f 703/625/404 705/627/406 706/628/407
f 704/626/405 707/629/408 701/623/402
f 701/623/402 707/629/408 705/627/406
f 708/630/409 707/629/408 704/626/405
f 709/631/410 705/627/406 707/629/408
f 709/631/410 710/632/411 705/627/406
f 711/633/412 706/628/407 705/627/406
f 711/633/412 705/627/406 710/632/411
f 711/633/412 712/634/413 706/628/407
f 711/633/412 710/632/411 712/634/413
f 713/635/414 706/628/407 712/634/413
f 712/634/413 714/636/415 713/635/414
f 715/637/416 712/634/413 710/632/411
f 712/634/413 715/637/416 714/636/415
f 716/638/417 714/636/415 715/637/416
f 717/639/418 713/635/414 714/636/415
f 716/638/417 718/640/419 714/636/415
f 719/641/420 718/640/419 716/638/417
f 718/640/419 720/642/421 714/636/415
f 720/642/421 721/643/422 714/636/415
f 717/639/418 714/636/415 721/643/422
f 721/643/422 722/644/423 717/639/418
f 717/639/418 722/644/423 723/645/424
f 726/646/111 725/647/111 724/648/425
f 725/647/111 727/649/111 724/648/425
f 728/650/111 726/646/111 724/648/425
f 727/649/111 729/651/111 724/648/425
f 730/652/111 728/650/111 724/648/425
f 729/651/111 731/653/111 724/648/425
f 732/654/111 730/652/111 724/648/425
f 724/648/425 731/653/111 733/655/111
f 734/656/111 732/654/111 724/648/425
f 724/648/425 733/655/111 735/657/111
f 734/656/111 724/648/425 736/658/111
f 724/648/425 735/657/111 737/659/111
f 736/658/111 724/648/425 738/660/111
f 724/648/425 737/659/111 739/661/426
f 738/660/111 724/648/425 740/662/111
f 740/662/111 724/648/425 741/663/427
f 739/661/426 742/664/428 724/648/425
f 741/663/427 724/648/425 743/665/429
f 744/666/430 724/648/425 742/664/428
f 742/664/428 745/667/431 744/666/430
f 746/668/432 744/666/430 745/667/431
f 746/668/432 747/669/433 744/666/430
f 748/670/434 744/666/430 747/669/433
f 744/666/430 748/670/434 724/648/425
f 748/670/434 747/669/433 749/671/435
f 748/670/434 749/671/435 724/648/425
f 750/672/436 749/671/435 747/669/433
f 750/672/436 751/673/437 749/671/435
f 752/674/438 743/665/429 724/648/425
f 743/665/429 752/674/438 753/675/439
f 754/676/440 753/675/439 752/674/438
f 754/676/440 752/674/438 751/673/437
f 749/671/435 755/677/441 724/648/425
f 755/677/441 749/671/435 751/673/437
f 755/677/441 752/674/438 724/648/425
f 755/677/441 751/673/437 752/674/438
f 758/678/111 757/679/111 756/680/111
f 756/680/111 757/679/111 759/681/111
f 760/682/111 757/679/111 758/678/111
f 759/681/111 757/679/111 761/683/111
f 762/684/111 757/679/111 760/682/111
f 761/683/111 757/679/111 763/685/111
f 764/686/111 757/679/111 762/684/111
f 763/685/111 757/679/111 765/687/111
f 766/688/111 757/679/111 764/686/111
f 765/687/111 757/679/111 767/689/111
f 768/690/111 757/679/111 766/688/111
f 767/689/111 757/679/111 769/691/111
f 770/692/111 757/679/111 768/690/111
f 769/691/111 757/679/111 771/693/111
f 772/694/111 757/679/111 770/692/111
f 771/693/111 757/679/111 773/695/111
f 774/696/111 757/679/111 772/694/111
f 773/695/111 757/679/111 775/697/111
f 776/698/111 757/679/111 774/696/111
f 775/697/111 757/679/111 777/699/111
f 778/700/111 757/679/111 776/698/111
f 777/699/111 757/679/111 779/701/111
f 780/702/111 757/679/111 778/700/111
f 779/701/111 757/679/111 781/703/111
f 782/704/111 757/679/111 780/702/111
f 781/703/111 757/679/111 783/705/111
f 784/706/111 757/679/111 782/704/111
f 783/705/111 757/679/111 785/707/111
f 786/708/111 757/679/111 784/706/111
f 785/707/111 757/679/111 787/709/111
f 788/710/111 757/679/111 786/708/111
f 787/709/111 757/679/111 788/710/111
f 791/711/3 790/712/5 789/713/3
f 792/714/5 789/713/3 790/712/5
f 790/712/5 793/715/7 792/714/5
f 794/716/7 792/714/5 793/715/7
f 793/715/7 795/717/9 794/716/7
f 796/718/9 794/716/7 795/717/9
f 795/717/9 797/719/11 796/718/9
f 798/720/11 796/718/9 797/719/11
f 801/721/12 800/722/442 799/723/12
f 802/724/442 799/723/12 800/722/442
f 800/722/442 803/725/16 802/724/442
f 804/726/16 802/724/442 803/725/16
f 803/725/16 805/727/443 804/726/16
f 806/728/443 804/726/16 805/727/443
f 805/727/443 807/729/20 806/728/443
f 808/730/20 806/728/443 807/729/20
f 811/731/444 810/732/445 809/733/21
f 812/734/445 809/733/21 810/732/445
f 810/732/445 813/735/25 812/734/445
f 814/736/25 812/734/445 813/735/25
f 813/735/25 815/737/446 814/736/25
f 816/738/446 814/736/25 815/737/446
f 815/737/446 817/739/29 816/738/446
f 818/740/447 816/738/446 817/739/29
f 821/741/30 820/742/32 819/743/30
f 822/744/32 819/743/30 820/742/32
f 820/742/32 823/745/34 822/744/32
f 824/746/34 822/744/32 823/745/34
f 823/745/34 825/747/36 824/746/34
f 826/748/36 824/746/34 825/747/36
f 825/747/36 827/749/38 826/748/36
f 828/750/38 826/748/36 827/749/38
f 831/751/448 830/752/449 829/753/450
f 834/754/451 833/755/452 832/756/453
f 837/757/454 836/758/455 835/759/456
f 840/760/457 839/761/458 838/762/459
f 843/758/455 842/763/456 841/764/454
f 846/765/452 845/766/453 844/767/451
f 849/752/449 848/753/450 847/751/448
f 852/768/458 851/769/459 850/770/457
f 855/771/460 854/772/461 853/407/462
f 856/405/463 853/407/462 854/772/461
f 854/772/461 857/773/464 856/405/463
f 858/404/465 856/405/463 857/773/464
f 858/404/465 857/773/464 859/420/466
f 860/774/467 859/420/466 857/773/464
f 859/420/466 860/774/467 861/418/468
f 862/775/469 861/418/468 860/774/467
f 865/776/462 864/777/470 863/778/471
f 866/779/472 863/778/471 864/777/470
f 864/777/470 867/780/473 866/779/472
f 868/781/474 866/779/472 867/780/473
f 871/782/475 870/783/476 869/784/477
f 872/785/478 869/784/477 870/783/476
f 872/785/478 870/783/476 873/786/479
f 874/787/480 873/786/479 870/783/476
f 877/788/25 876/789/25 875/790/25
f 878/791/25 875/790/25 876/789/25
f 875/790/25 878/791/25 879/792/25
f 880/793/25 879/792/25 878/791/25
f 880/793/25 881/794/25 879/792/25
f 882/795/25 879/792/25 881/794/25
f 881/794/25 883/796/25 882/795/25
f 884/797/25 882/795/25 883/796/25
f 887/798/469 886/427/468 885/799/467
f 888/425/466 885/799/467 886/427/468
f 885/799/467 888/425/466 889/800/464
f 890/423/465 889/800/464 888/425/466
f 890/423/465 891/440/463 889/800/464
f 892/801/461 889/800/464 891/440/463
f 891/440/463 893/438/462 892/801/461
f 894/802/460 892/801/461 893/438/462
f 897/803/481 896/804/482 895/805/483
f 898/806/484 895/805/483 896/804/482
f 895/805/483 898/806/484 899/807/485
f 900/808/486 899/807/485 898/806/484
f 903/809/480 902/810/479 901/811/476
f 904/812/478 901/811/476 902/810/479
f 904/812/478 905/813/477 901/811/476
f 906/814/487 901/811/476 905/813/477
f 909/815/25 908/816/25 907/817/25
f 910/818/25 907/817/25 908/816/25
f 908/816/25 911/819/25 910/818/25
f 912/820/25 910/818/25 911/819/25
f 912/820/25 911/819/25 913/821/25
f 914/822/25 913/821/25 911/819/25
f 913/821/25 914/822/25 915/823/25
f 916/824/25 915/823/25 914/822/25
f 919/776/462 918/777/470 917/778/471
f 920/779/472 917/778/471 918/777/470
f 918/777/470 921/780/473 920/779/472
f 922/781/474 920/779/472 921/780/473
f 925/803/481 924/804/482 923/805/483
f 926/806/484 923/805/483 924/804/482
f 923/805/483 926/806/484 927/807/485
f 928/808/486 927/807/485 926/806/484
f 931/825/460 930/826/461 929/491/462
f 932/489/463 929/491/462 930/826/461
f 930/826/461 933/827/464 932/489/463
f 934/488/465 932/489/463 933/827/464
f 934/488/465 933/827/464 935/504/466
f 936/828/467 935/504/466 933/827/464
f 935/504/466 936/828/467 937/502/468
f 938/829/469 937/502/468 936/828/467
f 941/776/462 940/777/470 939/778/471
f 942/779/472 939/778/471 940/777/470
f 940/777/470 943/780/473 942/779/472
f 944/781/474 942/779/472 943/780/473
f 947/830/487 946/831/476 945/832/477
f 948/833/478 945/832/477 946/831/476
f 948/833/478 946/831/476 949/834/479
f 950/835/480 949/834/479 946/831/476
f 953/836/25 952/837/25 951/838/25
f 954/839/25 951/838/25 952/837/25
f 951/838/25 954/839/25 955/840/25
f 956/841/25 955/840/25 954/839/25
f 956/841/25 957/842/25 955/840/25
f 958/843/25 955/840/25 957/842/25
f 957/842/25 959/844/25 958/843/25
f 960/845/25 958/843/25 959/844/25
f 963/803/481 962/804/482 961/805/483
f 964/806/484 961/805/483 962/804/482
f 961/805/483 964/806/484 965/807/485
f 966/808/486 965/807/485 964/806/484
f 969/846/488 968/847/489 967/848/488
f 970/849/490 967/848/488 968/847/489
f 968/847/489 971/850/491 970/849/490
f 972/851/491 970/849/490 971/850/491
f 971/850/491 973/852/491 972/851/491
f 974/853/491 972/851/491 973/852/491
f 973/852/491 975/854/491 974/853/491
f 976/855/491 974/853/491 975/854/491
f 976/855/491 975/854/491 977/856/492
f 978/857/492 977/856/492 975/854/491
f 977/856/492 978/857/492 979/858/493
f 980/859/494 979/858/493 978/857/492
