# Blender 4.5.3 LTS
# www.blender.org
mtllib Pen_gun_cal127x4_001.mtl
o Pen_gun_cal127х4_001
v -1.402537 0.318219 0.266339
v -1.603638 0.318267 -1.531193
v -1.351397 0.318219 0.266339
v 1.415745 0.318221 0.266338
v 1.653679 0.318269 -1.531193
v 1.466778 0.318220 0.266338
v 0.906080 0.000001 -0.375311
v 0.693484 0.156700 -0.693483
v 0.693484 0.000001 -0.693484
v 0.906080 0.156700 -0.375311
v 0.980734 0.000001 -0.000000
v 0.980734 0.156700 0.000000
v 0.906080 0.000000 0.375310
v 0.906080 0.156700 0.375310
v 0.693484 -0.000000 0.693483
v 0.693484 0.156699 0.693483
v 0.375311 0.156700 -0.906080
v 0.693484 0.000001 -0.693484
v 0.693484 0.156700 -0.693483
v 0.375311 0.000001 -0.906080
v -0.000000 0.156700 -0.980734
v -0.000000 0.000001 -0.980734
v -0.375311 0.156700 -0.906080
v -0.375311 0.000001 -0.906080
v -0.693484 0.156700 -0.693483
v -0.693484 0.000000 -0.693484
v -0.906080 0.156699 -0.375311
v -0.693484 0.000000 -0.693484
v -0.693484 0.156700 -0.693483
v -0.906080 0.000000 -0.375311
v -0.980734 0.156699 -0.000000
v -0.980734 -0.000000 -0.000000
v -0.906080 0.156699 0.375311
v -0.906080 -0.000001 0.375310
v -0.693484 0.156699 0.693484
v -0.693484 -0.000001 0.693484
v -0.375311 0.156699 0.906080
v -0.693484 -0.000001 0.693484
v -0.693484 0.156699 0.693484
v -0.375311 -0.000001 0.906080
v -0.000000 0.156699 0.980734
v 0.000000 -0.000001 0.980734
v 0.375311 0.156699 0.906080
v 0.375311 -0.000000 0.906080
v 0.693484 0.156699 0.693483
v 0.693484 -0.000000 0.693483
v -1.255584 0.318219 1.034685
v 1.415745 0.318221 0.266338
v 1.314676 0.318221 1.034714
v -1.351397 0.318219 0.266339
v -0.384816 0.318268 -1.809086
v -1.603638 0.318267 -1.531193
v 0.383662 0.318268 -1.809086
v 1.653679 0.318269 -1.531193
v 0.906080 0.156700 -0.375311
v -0.000000 0.156699 0.000000
v 0.693484 0.156700 -0.693483
v 0.980734 0.156700 0.000000
v 0.375311 0.156700 -0.906080
v 0.906080 0.156700 0.375310
v -0.000000 0.156700 -0.980734
v 0.693484 0.156699 0.693483
v -0.375311 0.156700 -0.906080
v 0.375311 0.156699 0.906080
v -0.693484 0.156700 -0.693483
v -0.000000 0.156699 0.980734
v -0.906080 0.156699 -0.375311
v -0.375311 0.156699 0.906080
v -0.980734 0.156699 -0.000000
v -0.693484 0.156699 0.693484
v -0.906080 0.156699 0.375311
v -1.578937 0.317899 -1.526810
v -1.593848 2.618441 -1.699204
v -1.672053 2.618202 -1.699204
v -1.501063 0.318139 -1.526810
v -1.501063 0.319101 -1.439692
v -1.672053 2.618201 -1.611462
v -1.593848 2.619405 -1.612088
v -1.578937 0.317899 -1.439067
v -1.578937 0.317899 -1.439067
v -1.672053 2.618202 -1.699204
v -1.672053 2.618201 -1.611462
v -1.578937 0.317899 -1.526810
v -1.501063 0.319101 -1.439692
v -1.593848 2.618441 -1.699204
v -1.501063 0.318139 -1.526810
v -1.593848 2.619405 -1.612088
v 1.628937 0.317900 -1.526811
v 1.644606 2.618442 -1.699205
v 1.551063 0.318140 -1.526811
v 1.722811 2.618203 -1.699205
v 1.551063 0.319102 -1.439692
v 1.722811 2.618202 -1.611462
v 1.628937 0.317900 -1.439067
v 1.644606 2.619406 -1.612089
v 1.628937 0.317900 -1.439067
v 1.722811 2.618203 -1.699205
v 1.628937 0.317900 -1.526811
v 1.722811 2.618202 -1.611462
v 1.551063 0.319102 -1.439692
v 1.644606 2.618442 -1.699205
v 1.644606 2.619406 -1.612089
v 1.551063 0.318140 -1.526811
v 1.783851 2.444039 -1.981495
v 1.499483 1.896012 -0.178897
v 1.550517 1.896012 -0.178897
v 1.733566 2.424348 -1.892695
v -1.733116 2.444037 -1.981495
v -1.682785 2.424347 -1.892694
v -1.500570 1.896010 -0.178896
v -1.449430 1.896010 -0.178896
v 0.760789 2.710742 -0.102715
v 1.415000 2.710743 0.314064
v 0.760494 2.710742 0.314061
v 1.450000 2.710743 0.003025
v 0.601069 2.710742 -0.262749
v 1.748708 2.710743 -1.643176
v 0.479817 2.710742 -0.262750
v 0.358566 2.710742 -0.262750
v -0.211077 2.710742 -0.102715
v -0.370798 2.710742 -0.262749
v 0.198219 2.710742 -0.102717
v -0.211373 2.710742 0.314061
v 0.197924 2.710742 0.314059
v -0.211683 2.555924 0.625105
v 0.197613 2.555925 0.625103
v -0.211866 2.305813 0.888806
v 0.197430 2.305813 0.888804
v -1.697951 2.710742 -1.643183
v -0.370798 2.710742 -0.262749
v -0.492049 2.710742 -0.262750
v 1.748708 2.710743 -1.643176
v -0.613301 2.710742 -0.262750
v -1.733116 2.636048 -1.858581
v 1.783851 2.636050 -1.858581
v -1.400000 2.710741 0.003018
v -1.697951 2.710742 -1.643183
v -0.773648 2.710742 -0.102717
v -1.365000 2.710741 0.314057
v -0.773943 2.710742 0.314059
v -1.340000 2.555924 0.625100
v -0.774253 2.555924 0.625103
v -1.325000 2.305812 0.888802
v -0.774437 2.305812 0.888804
v -1.449430 1.896010 -0.178896
v -1.402537 1.010770 0.266339
v -1.351397 1.010770 0.266339
v -1.500570 1.896010 -0.178896
v 1.550517 1.896012 -0.178897
v 1.415745 1.010772 0.266338
v 1.466778 1.010772 0.266338
v 1.499483 1.896012 -0.178897
v -1.500570 1.896010 -0.178896
v -1.733116 2.636048 -1.858581
v -1.697951 2.710742 -1.643183
v -1.733116 2.444037 -1.981495
v 1.748708 2.710743 -1.643176
v 1.783851 2.636050 -1.858581
v 1.550517 1.896012 -0.178897
v 1.783851 2.444039 -1.981495
v -1.733116 2.444037 -1.981495
v 1.783851 2.636050 -1.858581
v -1.733116 2.636048 -1.858581
v 1.783851 2.444039 -1.981495
v 0.760494 2.710742 0.314061
v 1.390000 2.555925 0.625108
v 0.760184 2.555925 0.625105
v 1.415000 2.710743 0.314064
v 1.375000 2.305814 0.888809
v 0.760184 2.555925 0.625105
v 0.760000 2.305813 0.888806
v 0.760000 2.305813 0.888806
v 1.365000 1.906223 1.064997
v 0.759943 1.906223 1.064994
v 1.375000 2.305814 0.888809
v 0.760013 1.478042 1.126872
v 0.759943 1.906223 1.064994
v 1.365000 1.478043 1.126875
v 1.365000 1.010772 1.126873
v 0.760013 1.478042 1.126872
v 0.760102 1.170805 1.126871
v 0.600144 1.010772 1.126871
v 1.365000 0.231690 1.126870
v 1.365000 0.231690 1.126870
v 0.357640 1.010771 1.126870
v -1.315000 0.231689 1.126866
v -0.371723 1.010771 1.126871
v -0.614226 1.010771 1.126870
v 0.197532 1.170805 1.126870
v 0.357640 1.010771 1.126870
v -0.211765 1.170805 1.126871
v 0.197442 1.478042 1.126871
v -0.211854 1.478042 1.126872
v 0.197373 1.906222 1.064993
v -0.211923 1.906222 1.064994
v 0.197430 2.305813 0.888804
v -0.211866 2.305813 0.888806
v -1.315000 1.010771 1.126868
v -0.614226 1.010771 1.126870
v -0.774335 1.170804 1.126870
v -1.315000 1.478041 1.126869
v -0.774424 1.478042 1.126871
v -0.774494 1.906222 1.064993
v -1.315000 1.906222 1.064990
v -0.774437 2.305812 0.888804
v -1.325000 2.305812 0.888802
v 1.466778 1.010772 0.266338
v 1.365000 0.231690 1.126870
v 1.365000 1.010772 1.126873
v 1.466778 0.318220 0.266338
v 1.653679 0.231739 -1.531194
v 1.653679 0.318269 -1.531193
v 1.365000 1.010772 1.126873
v 1.365000 1.478043 1.126875
v 1.365000 1.906223 1.064997
v 1.375000 2.305814 0.888809
v 1.466778 1.010772 0.266338
v 1.550517 1.896012 -0.178897
v 1.390000 2.555925 0.625108
v 1.415000 2.710743 0.314064
v 1.450000 2.710743 0.003025
v 1.748708 2.710743 -1.643176
v -1.351397 0.318219 0.266339
v -1.402537 1.010770 0.266339
v -1.402537 0.318219 0.266339
v -1.351397 1.010770 0.266339
v 1.466778 1.010772 0.266338
v 1.415745 0.318221 0.266338
v 1.466778 0.318220 0.266338
v 1.415745 1.010772 0.266338
v -1.402537 0.318219 0.266339
v -1.603637 0.231738 -1.531194
v -1.603638 0.318267 -1.531193
v -1.315000 0.231689 1.126866
v -1.402537 1.010770 0.266339
v -1.315000 1.010771 1.126868
v -1.315000 1.478041 1.126869
v -1.315000 1.906222 1.064990
v -1.500570 1.896010 -0.178896
v -1.325000 2.305812 0.888802
v -1.340000 2.555924 0.625100
v -1.365000 2.710741 0.314057
v -1.400000 2.710741 0.003018
v -1.697951 2.710742 -1.643183
v 0.383662 0.318268 -1.809086
v -0.384816 0.231738 -1.809087
v 0.383662 0.231739 -1.809087
v -0.384816 0.318268 -1.809086
v 0.952047 1.482921 1.176270
v 0.950977 1.010789 1.076276
v 0.952178 1.010789 1.176268
v 0.950850 1.473071 1.076277
v 0.951989 1.925496 1.111529
v 0.950798 1.886482 1.017338
v 0.952037 2.341414 0.924432
v 0.950840 2.269323 0.852341
v 0.952190 2.602433 0.644406
v 0.950974 2.508242 0.605391
v 0.952446 2.760109 0.318985
v 0.951205 2.660116 0.309135
v 0.952933 2.760109 0.003103
v 0.951676 2.660117 0.003101
v 0.852054 1.483011 1.177472
v 0.952178 1.010789 1.176268
v 0.852185 1.010752 1.177470
v 0.952047 1.482921 1.176270
v 0.851997 1.925961 1.112656
v 0.951989 1.925496 1.111529
v 0.852045 2.342302 0.925276
v 0.952037 2.341414 0.924432
v 0.850856 1.473161 1.077479
v 0.852185 1.010752 1.177470
v 0.850984 1.010752 1.077477
v 0.852054 1.483011 1.177472
v 0.850804 1.886946 1.018464
v 0.851997 1.925961 1.112656
v 0.850847 2.270211 0.853185
v 0.852045 2.342302 0.925276
v 0.850982 2.509414 0.605810
v 0.852198 2.603605 0.644825
v 0.851213 2.661373 0.309143
v 0.852454 2.761366 0.318993
v 0.851684 2.661374 0.002947
v 0.852941 2.761366 0.002949
v 0.852198 2.603605 0.644825
v 0.952037 2.341414 0.924432
v 0.852045 2.342302 0.925276
v 0.952190 2.602433 0.644406
v 0.852454 2.761366 0.318993
v 0.952446 2.760109 0.318985
v 0.852941 2.761366 0.002949
v 0.952933 2.760109 0.003103
v 0.852185 1.010752 1.177470
v 0.950977 1.010789 1.076276
v 0.850984 1.010752 1.077477
v 0.952178 1.010789 1.176268
v 0.852941 2.761366 0.002949
v 0.951676 2.660117 0.003101
v 0.952933 2.760109 0.003103
v 0.851684 2.661374 0.002947
v 0.107440 1.010751 1.177470
v 0.108768 1.473161 1.077479
v 0.108641 1.010751 1.077477
v 0.107571 1.483010 1.177472
v 0.108820 1.886946 1.018464
v 0.107628 1.925960 1.112656
v 0.108778 2.270210 0.853185
v 0.107579 2.342301 0.925276
v 0.108642 2.509414 0.605810
v 0.107426 2.603605 0.644825
v 0.108410 2.661373 0.309143
v 0.107168 2.761365 0.318993
v 0.107939 2.661373 0.002947
v 0.106682 2.761365 0.002949
v -0.119813 1.483011 1.177472
v 0.107440 1.010751 1.177470
v -0.119681 1.010752 1.177470
v 0.107571 1.483010 1.177472
v -0.119869 1.925961 1.112656
v 0.107628 1.925960 1.112656
v -0.119822 2.342302 0.925276
v 0.107579 2.342301 0.925276
v -0.121010 1.473162 1.077479
v -0.119681 1.010752 1.177470
v -0.120883 1.010752 1.077477
v -0.119813 1.483011 1.177472
v -0.121063 1.886947 1.018464
v -0.119869 1.925961 1.112656
v -0.121020 2.270211 0.853185
v -0.119822 2.342302 0.925276
v -0.120885 2.509414 0.605810
v -0.119669 2.603605 0.644825
v -0.120654 2.661374 0.309143
v -0.119412 2.761366 0.318993
v -0.120183 2.661374 0.002947
v -0.118926 2.761366 0.002949
v -0.119669 2.603605 0.644825
v 0.107579 2.342301 0.925276
v -0.119822 2.342302 0.925276
v 0.107426 2.603605 0.644825
v -0.119412 2.761366 0.318993
v 0.107168 2.761365 0.318993
v -0.118926 2.761366 0.002949
v 0.106682 2.761365 0.002949
v -0.119681 1.010752 1.177470
v 0.108641 1.010751 1.077477
v -0.120883 1.010752 1.077477
v 0.107440 1.010751 1.177470
v 0.106682 2.761365 0.002949
v -0.120183 2.661374 0.002947
v 0.107939 2.661373 0.002947
v -0.118926 2.761366 0.002949
v -0.963218 1.010789 1.076276
v -0.964289 1.482920 1.176270
v -0.964420 1.010789 1.176268
v -0.963091 1.473071 1.076277
v -0.964232 1.925496 1.111529
v -0.963040 1.886481 1.017338
v -0.964281 2.341414 0.924432
v -0.963082 2.269323 0.852341
v -0.964434 2.602433 0.644406
v -0.963217 2.508242 0.605391
v -0.964691 2.760108 0.318985
v -0.963449 2.660116 0.309135
v -0.965177 2.760108 0.003103
v -0.963919 2.660116 0.003101
v -0.964420 1.010789 1.176268
v -0.864296 1.483010 1.177472
v -0.864427 1.010752 1.177470
v -0.964289 1.482920 1.176270
v -0.864239 1.925961 1.112656
v -0.964232 1.925496 1.111529
v -0.864288 2.342301 0.925276
v -0.964281 2.341414 0.924432
v -0.864427 1.010752 1.177470
v -0.863099 1.473161 1.077479
v -0.863225 1.010752 1.077477
v -0.864296 1.483010 1.177472
v -0.863047 1.886946 1.018464
v -0.864239 1.925961 1.112656
v -0.863089 2.270210 0.853185
v -0.864288 2.342301 0.925276
v -0.863225 2.509414 0.605810
v -0.864441 2.603605 0.644825
v -0.863456 2.661373 0.309143
v -0.864699 2.761365 0.318993
v -0.863927 2.661373 0.002947
v -0.865184 2.761365 0.002949
v -0.964281 2.341414 0.924432
v -0.864441 2.603605 0.644825
v -0.864288 2.342301 0.925276
v -0.964434 2.602433 0.644406
v -0.864699 2.761365 0.318993
v -0.964691 2.760108 0.318985
v -0.865184 2.761365 0.002949
v -0.965177 2.760108 0.003103
v -0.864427 1.010752 1.177470
v -0.963218 1.010789 1.076276
v -0.964420 1.010789 1.176268
v -0.863225 1.010752 1.077477
v -0.865184 2.761365 0.002949
v -0.965177 2.760108 0.003103
v -0.963919 2.660116 0.003101
v -0.863927 2.661373 0.002947
v 1.653679 0.318269 -1.531193
v 0.383662 0.231739 -1.809087
v 1.653679 0.231739 -1.531194
v 0.383662 0.318268 -1.809086
v -1.603637 0.231738 -1.531194
v -0.384816 0.318268 -1.809086
v -1.603638 0.318267 -1.531193
v -0.384816 0.231738 -1.809087
v 0.832321 0.251449 0.363725
v 1.195119 0.682120 0.363725
v 1.195119 0.251448 0.363724
v 1.195119 0.682120 0.264381
v 0.832321 0.251448 0.264380
v 1.195119 0.251448 0.264380
v -0.782321 0.251449 0.264392
v -1.145119 0.682120 0.264394
v -1.145119 0.251448 0.264393
v -1.145119 0.682120 0.363738
v -0.782321 0.251448 0.363737
v -1.145119 0.251448 0.363737
v 1.173069 0.318221 0.843518
v 1.314310 1.749622 0.498673
v 1.313231 0.318221 0.843521
v 1.173064 1.749698 0.498669
v 1.314660 1.749686 0.129451
v 1.313231 0.318221 0.843521
v 1.314310 1.749622 0.498673
v 1.313690 0.568786 -0.192777
v 1.313543 0.318221 -1.370893
v 1.313726 0.568786 -1.370893
v 1.173064 1.749698 0.498669
v 1.314660 1.749686 0.129451
v 1.314310 1.749622 0.498673
v 1.173064 1.749749 0.129457
v -1.256589 0.318220 0.843507
v -1.114731 1.750247 0.498671
v -1.114730 0.318220 0.843496
v -1.255506 1.750337 0.498655
v -1.114731 1.750286 0.129470
v -1.114730 0.318220 0.843496
v -1.114731 1.750247 0.498671
v -1.114730 0.569399 -0.192791
v -1.114693 0.318220 -1.370893
v -1.114693 0.569399 -1.370893
v -1.255506 1.750337 0.498655
v -1.114731 1.750286 0.129470
v -1.114731 1.750247 0.498671
v -1.255156 1.750375 0.129456
v 1.172647 0.568862 -1.370893
v 1.313543 0.318221 -1.370893
v 1.313726 0.568786 -1.370893
v 1.172647 0.318221 -1.370893
v 1.173069 0.318221 0.843518
v 1.173064 1.749749 0.129457
v 1.173064 1.749698 0.498669
v 1.172610 0.568862 -0.192795
v 1.172647 0.568862 -1.370893
v 1.172647 0.318221 -1.370893
v -1.255634 0.569482 -1.370893
v -1.114693 0.318220 -1.370893
v -1.114693 0.569399 -1.370893
v -1.255817 0.318220 -1.370893
v -1.256589 0.318220 0.843507
v -1.255156 1.750375 0.129456
v -1.255506 1.750337 0.498655
v -1.255671 0.569482 -0.192782
v -1.255634 0.569482 -1.370893
v -1.255817 0.318220 -1.370893
v 1.173064 1.749749 0.129457
v 1.313690 0.568786 -0.192777
v 1.314660 1.749686 0.129451
v 1.172610 0.568862 -0.192795
v -1.255156 1.750375 0.129456
v -1.114730 0.569399 -0.192791
v -1.114731 1.750286 0.129470
v -1.255671 0.569482 -0.192782
v 1.172610 0.568862 -0.192795
v 1.313726 0.568786 -1.370893
v 1.313690 0.568786 -0.192777
v 1.172647 0.568862 -1.370893
v -1.255669 0.569482 -0.192782
v -1.114693 0.569399 -1.370893
v -1.114729 0.569399 -0.192791
v -1.255634 0.569482 -1.370893
v 1.200169 0.482682 -0.472602
v -1.125000 0.318220 -0.472605
v 1.200000 0.318221 -0.472602
v -1.124831 0.483378 -0.472605
v 1.199323 0.318221 -0.361260
v -1.124831 0.483378 -0.360465
v 1.200169 0.482682 -0.360461
v -1.125677 0.318220 -0.361266
v 1.200169 0.482682 -0.360461
v -1.124831 0.483378 -0.472605
v 1.200169 0.482682 -0.472602
v -1.124831 0.483378 -0.360465
v 1.200240 0.482682 0.417529
v -1.149999 0.318220 0.417526
v 1.200000 0.318221 0.417529
v -1.149759 0.483378 0.417526
v 1.199038 0.318221 0.528871
v -1.149759 0.483378 0.529665
v 1.200240 0.482682 0.529670
v -1.150963 0.318220 0.528864
v 1.200240 0.482682 0.529670
v -1.149759 0.483378 0.417526
v 1.200240 0.482682 0.417529
v -1.149759 0.483378 0.529665
v -0.077454 0.318220 0.843507
v 0.064404 1.492413 0.498671
v 0.064405 0.318220 0.843496
v -0.076371 1.492503 0.498655
v 0.064404 1.492452 0.129470
v 0.064405 0.318220 0.843496
v 0.064404 1.492413 0.498671
v 0.064404 0.569399 -0.192791
v 0.064404 0.318221 -1.458616
v 0.064404 0.569399 -1.458616
v -0.076371 1.492503 0.498655
v 0.064404 1.492452 0.129470
v 0.064404 1.492413 0.498671
v -0.076021 1.492541 0.129456
v -0.076537 0.569482 -1.458616
v 0.064404 0.318221 -1.458616
v 0.064404 0.569399 -1.458616
v -0.076720 0.318221 -1.458616
v -0.077454 0.318220 0.843507
v -0.076021 1.492541 0.129456
v -0.076371 1.492503 0.498655
v -0.076537 0.569482 -0.192782
v -0.076537 0.569482 -1.458616
v -0.076720 0.318221 -1.458616
v -0.076021 1.492541 0.129456
v 0.064404 0.569399 -0.192791
v 0.064404 1.492452 0.129470
v -0.076537 0.569482 -0.192782
v -0.076537 0.569482 -0.192782
v 0.064404 0.569399 -1.458616
v 0.064404 0.569399 -0.192791
v -0.076537 0.569482 -1.458616
v 0.832321 0.251448 0.264380
v 1.195119 0.682120 0.363725
v 0.832321 0.251449 0.363725
v 1.195119 0.682120 0.264381
v -0.782321 0.251448 0.363737
v -1.145119 0.682120 0.264394
v -0.782321 0.251449 0.264392
v -1.145119 0.682120 0.363738
v 0.760550 1.170805 1.034709
v 1.313849 1.478045 1.034722
v 0.760391 1.478043 1.034711
v 1.314263 1.010772 1.034718
v 0.600652 1.010772 1.034706
v 1.314676 0.318221 1.034714
v 0.358149 1.010772 1.034703
v -1.255584 0.318219 1.034685
v -0.371214 1.010771 1.034706
v -0.613718 1.010771 1.034703
v -0.211316 1.170805 1.034709
v -0.371214 1.010771 1.034706
v 0.197980 1.170805 1.034704
v -0.211476 1.478042 1.034711
v 0.197820 1.478041 1.034706
v -0.211669 1.870952 0.979849
v 0.197627 1.870952 0.979845
v -0.211699 2.240642 0.823629
v 0.197597 2.240642 0.823625
v -1.255636 1.010771 1.034691
v -1.255584 0.318219 1.034685
v -0.773887 1.170804 1.034704
v -1.255687 1.478039 1.034696
v -0.774046 1.478041 1.034706
v -1.255720 1.870949 0.979835
v -0.774239 1.870951 0.979845
v -1.255726 2.240639 0.823615
v -0.774270 2.240641 0.823625
v 1.670669 2.618563 -1.643195
v 0.601134 2.618569 -0.262766
v 1.390000 2.618570 0.003012
v 0.760873 2.618572 -0.102732
v 0.760595 2.618575 0.314048
v 1.365000 2.618577 0.314057
v 1.670669 2.618563 -1.643195
v 0.479882 2.618569 -0.262767
v 0.358631 2.618569 -0.262767
v -0.370732 2.618568 -0.262766
v -1.632785 2.618562 -1.643195
v -0.491984 2.618568 -0.262767
v -0.613236 2.618568 -0.262767
v 1.733566 2.562772 -1.804085
v -1.632785 2.618562 -1.643195
v -1.682785 2.562771 -1.804084
v 0.198303 2.618572 -0.102735
v 0.358631 2.618569 -0.262767
v -0.210993 2.618572 -0.102732
v 0.198025 2.618575 0.314043
v -0.211271 2.618574 0.314048
v 0.197729 2.470774 0.589839
v -0.211567 2.470775 0.589843
v 0.197597 2.240642 0.823625
v -0.211699 2.240642 0.823629
v -0.613236 2.618568 -0.262767
v -1.325000 2.618567 0.003000
v -0.773564 2.618571 -0.102735
v -1.285000 2.618573 0.314034
v -0.773842 2.618574 0.314043
v -0.774137 2.470774 0.589839
v -1.255702 2.470772 0.589830
v -0.774270 2.240641 0.823625
v -1.255726 2.240639 0.823615
v -1.632785 2.618562 -1.643195
v -1.449430 1.896010 -0.178896
v -1.325000 2.618567 0.003000
v -1.285000 2.618573 0.314034
v -1.255702 2.470772 0.589830
v -1.255726 2.240639 0.823615
v -1.351397 1.010770 0.266339
v -1.255720 1.870949 0.979835
v -1.255687 1.478039 1.034696
v -1.255636 1.010771 1.034691
v -1.255584 0.318219 1.034685
v -1.351397 0.318219 0.266339
v 1.415745 1.010772 0.266338
v 1.314676 0.318221 1.034714
v 1.415745 0.318221 0.266338
v 1.314263 1.010772 1.034718
v 1.313849 1.478045 1.034722
v 1.313579 1.870955 0.979859
v 1.324431 2.240645 0.823638
v 1.499483 1.896012 -0.178897
v 1.334451 2.470777 0.589853
v 1.365000 2.618577 0.314057
v 1.390000 2.618570 0.003012
v 1.670669 2.618563 -1.643195
v 1.499483 1.896012 -0.178897
v 1.733566 2.562772 -1.804085
v 1.670669 2.618563 -1.643195
v 1.733566 2.424348 -1.892695
v -1.632785 2.618562 -1.643195
v -1.682785 2.562771 -1.804084
v -1.449430 1.896010 -0.178896
v -1.682785 2.424347 -1.892694
v 1.733566 2.424348 -1.892695
v -1.682785 2.562771 -1.804084
v 1.733566 2.562772 -1.804085
v -1.682785 2.424347 -1.892694
v 1.313579 1.870955 0.979859
v 0.760391 1.478043 1.034711
v 1.313849 1.478045 1.034722
v 0.760197 1.870953 0.979849
v 1.324431 2.240645 0.823638
v 0.760167 2.240642 0.823629
v 1.334451 2.470777 0.589853
v 0.760167 2.240642 0.823629
v 1.324431 2.240645 0.823638
v 0.760300 2.470775 0.589843
v 1.365000 2.618577 0.314057
v 0.357640 1.010771 1.126870
v 0.600652 1.010772 1.034706
v 0.600144 1.010772 1.126871
v 0.358149 1.010772 1.034703
v 0.197980 1.170805 1.034704
v 0.197442 1.478042 1.126871
v 0.197820 1.478041 1.034706
v 0.197532 1.170805 1.126870
v 0.358149 1.010772 1.034703
v 0.357640 1.010771 1.126870
v 0.197373 1.906222 1.064993
v 0.197820 1.478041 1.034706
v 0.197627 1.870952 0.979845
v 0.197430 2.305813 0.888804
v 0.197597 2.240642 0.823625
v 0.197613 2.555925 0.625103
v 0.197729 2.470774 0.589839
v 0.197924 2.710742 0.314059
v 0.198025 2.618575 0.314043
v 0.198219 2.710742 -0.102717
v 0.197924 2.710742 0.314059
v 0.198303 2.618572 -0.102735
v 0.760184 2.555925 0.625105
v 0.760595 2.618575 0.314048
v 0.760494 2.710742 0.314061
v 0.760300 2.470775 0.589843
v 0.760000 2.305813 0.888806
v 0.760167 2.240642 0.823629
v 0.759943 1.906223 1.064994
v 0.760197 1.870953 0.979849
v 0.760013 1.478042 1.126872
v 0.760391 1.478043 1.034711
v 0.760873 2.618572 -0.102732
v 0.760494 2.710742 0.314061
v 0.760789 2.710742 -0.102715
v 0.601134 2.618569 -0.262766
v 0.601069 2.710742 -0.262749
v 0.760102 1.170805 1.126871
v 0.760391 1.478043 1.034711
v 0.760550 1.170805 1.034709
v 0.600144 1.010772 1.126871
v 0.600652 1.010772 1.034706
v 0.358566 2.710742 -0.262750
v 0.198303 2.618572 -0.102735
v 0.198219 2.710742 -0.102717
v 0.358631 2.618569 -0.262767
v 0.479882 2.618569 -0.262767
v 0.479817 2.710742 -0.262750
v 0.601134 2.618569 -0.262766
v 0.601069 2.710742 -0.262749
v 1.365000 0.231690 1.126870
v 1.653679 0.231739 -1.531194
v 0.383662 0.231739 -1.809087
v -1.315000 0.231689 1.126866
v -0.384816 0.231738 -1.809087
v -1.603637 0.231738 -1.531194
v -0.614226 1.010771 1.126870
v -0.371214 1.010771 1.034706
v -0.371723 1.010771 1.126871
v -0.613718 1.010771 1.034703
v -0.773887 1.170804 1.034704
v -0.774424 1.478042 1.126871
v -0.774046 1.478041 1.034706
v -0.774335 1.170804 1.126870
v -0.613718 1.010771 1.034703
v -0.614226 1.010771 1.126870
v -0.774494 1.906222 1.064993
v -0.774046 1.478041 1.034706
v -0.774239 1.870951 0.979845
v -0.774437 2.305812 0.888804
v -0.774270 2.240641 0.823625
v -0.774253 2.555924 0.625103
v -0.774137 2.470774 0.589839
v -0.773943 2.710742 0.314059
v -0.773842 2.618574 0.314043
v -0.773648 2.710742 -0.102717
v -0.773943 2.710742 0.314059
v -0.773564 2.618571 -0.102735
v -0.211683 2.555924 0.625105
v -0.211271 2.618574 0.314048
v -0.211373 2.710742 0.314061
v -0.211567 2.470775 0.589843
v -0.211866 2.305813 0.888806
v -0.211699 2.240642 0.823629
v -0.211923 1.906222 1.064994
v -0.211669 1.870952 0.979849
v -0.211854 1.478042 1.126872
v -0.211476 1.478042 1.034711
v -0.210993 2.618572 -0.102732
v -0.211373 2.710742 0.314061
v -0.211077 2.710742 -0.102715
v -0.370732 2.618568 -0.262766
v -0.370798 2.710742 -0.262749
v -0.211765 1.170805 1.126871
v -0.211476 1.478042 1.034711
v -0.211316 1.170805 1.034709
v -0.371723 1.010771 1.126871
v -0.371214 1.010771 1.034706
v -0.613301 2.710742 -0.262750
v -0.773564 2.618571 -0.102735
v -0.773648 2.710742 -0.102717
v -0.613236 2.618568 -0.262767
v -0.491984 2.618568 -0.262767
v -0.492049 2.710742 -0.262750
v -0.370732 2.618568 -0.262766
v -0.370798 2.710742 -0.262749
v 0.415872 0.549922 0.592459
v 0.318295 0.318231 0.738494
v 0.318295 0.549922 0.738494
v 0.415872 0.318231 0.592459
v 0.450137 0.549922 0.420199
v 0.450137 0.318231 0.420198
v 0.415872 0.549922 0.247939
v 0.415873 0.318231 0.247939
v 0.318295 0.549922 0.101903
v 0.318295 0.318231 0.101903
v 0.172260 0.318231 0.836071
v 0.318295 0.549922 0.738494
v 0.318295 0.318231 0.738494
v 0.172260 0.549921 0.836071
v -0.000000 0.318230 0.870336
v -0.000000 0.549921 0.870336
v -0.172260 0.318230 0.836071
v -0.172260 0.549921 0.836071
v -0.318295 0.318230 0.738494
v -0.318295 0.549921 0.738494
v -0.415873 0.318230 0.592459
v -0.318295 0.549921 0.738494
v -0.318295 0.318230 0.738494
v -0.415873 0.549921 0.592459
v -0.450137 0.318230 0.420199
v -0.450138 0.549921 0.420199
v -0.415873 0.318230 0.247939
v -0.415873 0.549921 0.247939
v -0.318295 0.318231 0.101904
v -0.318296 0.549921 0.101904
v -0.172260 0.318231 0.004326
v -0.318296 0.549921 0.101904
v -0.318295 0.318231 0.101904
v -0.172261 0.549922 0.004326
v -0.000000 0.318231 -0.029939
v -0.000000 0.549922 -0.029939
v 0.172260 0.318231 0.004326
v 0.172260 0.549922 0.004326
v 0.318295 0.318231 0.101903
v 0.318295 0.549922 0.101903
v 0.249258 0.811349 -0.053045
v 0.325827 0.734779 0.536446
v 0.249258 0.811348 0.536446
v 0.325827 0.734779 -0.053046
v 0.325828 0.626493 0.536446
v 0.325828 0.626493 -0.053047
v 0.249258 0.549923 0.536446
v 0.249258 0.549924 -0.053047
v 0.140972 0.549923 0.536446
v 0.249258 0.549924 -0.053047
v 0.140972 0.549924 -0.053047
v 0.249258 0.549923 0.536446
v 0.140972 0.549924 -0.053047
v 0.064403 0.626493 0.536446
v 0.140972 0.549923 0.536446
v 0.064403 0.626493 -0.053047
v 0.064402 0.734778 0.536446
v 0.064402 0.734779 -0.053046
v 0.140972 0.811348 0.536446
v 0.140972 0.811349 -0.053045
v 0.140972 0.811348 0.536446
v 0.249258 0.811349 -0.053045
v 0.249258 0.811348 0.536446
v 0.140972 0.811349 -0.053045
v -0.076538 0.811349 0.185605
v -0.402304 0.734779 0.262175
v -0.402304 0.811348 0.185605
v -0.076537 0.734779 0.262175
v -0.402303 0.626493 0.262175
v -0.076536 0.626493 0.262175
v -0.402303 0.549923 0.185605
v -0.076535 0.549924 0.185605
v -0.402303 0.549923 0.077320
v -0.076535 0.549924 0.185605
v -0.076535 0.549924 0.077320
v -0.402303 0.549923 0.185605
v -0.076535 0.549924 0.077320
v -0.402303 0.626493 0.000750
v -0.402303 0.549923 0.077320
v -0.076536 0.626493 0.000750
v -0.402304 0.734779 0.000750
v -0.076537 0.734779 0.000750
v -0.402304 0.811348 0.077320
v -0.076538 0.811349 0.077320
v -0.402304 0.811348 0.077320
v -0.076538 0.811349 0.185605
v -0.402304 0.811348 0.185605
v -0.076538 0.811349 0.077320
v 0.450137 0.549922 0.420199
v -0.000000 0.549922 0.420199
v 0.415872 0.549922 0.247939
v 0.415872 0.549922 0.592459
v 0.318295 0.549922 0.101903
v 0.318295 0.549922 0.738494
v 0.172260 0.549922 0.004326
v 0.172260 0.549921 0.836071
v -0.000000 0.549922 -0.029939
v -0.000000 0.549921 0.870336
v -0.172261 0.549922 0.004326
v -0.172260 0.549921 0.836071
v -0.318296 0.549921 0.101904
v -0.318295 0.549921 0.738494
v -0.415873 0.549921 0.247939
v -0.415873 0.549921 0.592459
v -0.450138 0.549921 0.420199
v 0.249258 0.811348 0.536446
v 0.195115 0.680636 0.536446
v 0.140972 0.811348 0.536446
v 0.325827 0.734779 0.536446
v 0.064402 0.734778 0.536446
v 0.325828 0.626493 0.536446
v 0.064403 0.626493 0.536446
v 0.249258 0.549923 0.536446
v 0.140972 0.549923 0.536446
v 0.325827 0.734779 -0.053046
v 0.195115 0.680636 -0.053047
v 0.325828 0.626493 -0.053047
v 0.249258 0.811349 -0.053045
v 0.249258 0.549924 -0.053047
v 0.140972 0.811349 -0.053045
v 0.140972 0.549924 -0.053047
v 0.064402 0.734779 -0.053046
v 0.064403 0.626493 -0.053047
v -0.402304 0.811348 0.185605
v -0.402303 0.680636 0.131463
v -0.402304 0.811348 0.077320
v -0.402304 0.734779 0.262175
v -0.402304 0.734779 0.000750
v -0.402303 0.626493 0.262175
v -0.402303 0.626493 0.000750
v -0.402303 0.549923 0.185605
v -0.402303 0.549923 0.077320
v 0.598993 0.231691 0.668310
v 0.458450 0.000000 0.458450
v 0.458450 0.231691 0.878648
v 0.598993 0.000000 0.248112
v 0.648346 0.231691 0.420199
v 0.648346 0.000000 0.000001
v 0.598993 0.231691 0.172088
v 0.598993 0.000000 -0.248110
v 0.458450 0.231691 -0.038251
v 0.458450 0.000000 -0.458449
v 0.248111 -0.000000 0.598994
v 0.458450 0.231691 0.878648
v 0.458450 0.000000 0.458450
v 0.248111 0.231691 1.019192
v 0.000000 -0.000000 0.648346
v -0.000000 0.231691 1.068545
v -0.248111 -0.000000 0.598994
v -0.248111 0.231691 1.019192
v -0.458449 -0.000000 0.458450
v -0.458450 0.231691 0.878649
v -0.598993 -0.000000 0.248112
v -0.458450 0.231691 0.878649
v -0.458449 -0.000000 0.458450
v -0.598993 0.231691 0.668310
v -0.648346 -0.000000 0.000001
v -0.648346 0.231691 0.420199
v -0.598993 -0.000000 -0.248110
v -0.598993 0.231691 0.172088
v -0.458450 -0.000000 -0.458448
v -0.458450 0.231691 -0.038251
v -0.248111 -0.000000 -0.598992
v -0.458450 0.231691 -0.038251
v -0.458450 -0.000000 -0.458448
v -0.248111 0.231691 -0.178795
v -0.000000 0.000000 -0.648345
v -0.000000 0.231691 -0.228147
v 0.248111 0.000000 -0.598992
v 0.248111 0.231691 -0.178794
v 0.458450 0.000000 -0.458449
v 0.458450 0.231691 -0.038251
v 1.098013 1.211222 0.363332
v 0.985428 1.057779 0.426902
v 0.985428 1.211224 0.363340
v 1.098013 1.057777 0.426890
v 0.985428 0.904334 0.363340
v 1.098013 0.904334 0.363332
v 0.985428 1.211224 0.363340
v 1.098013 1.274780 0.209887
v 1.098013 1.211222 0.363332
v 0.985428 1.274782 0.209899
v 1.098013 1.211221 0.056441
v 0.985428 1.211223 0.056453
v 0.985428 1.211223 0.056453
v 1.098013 1.057777 -0.007113
v 1.098013 1.211221 0.056441
v 0.985428 1.057779 -0.007105
v 1.098013 0.904333 0.056441
v 0.985428 0.904334 0.056453
v 0.985428 0.904334 0.056453
v 1.098014 0.840776 0.209886
v 1.098013 0.904333 0.056441
v 0.985428 0.840777 0.209898
v 1.098013 0.904334 0.363332
v 0.985428 0.904334 0.363340
v 1.098013 1.211222 0.363332
v 1.098013 0.904334 0.363332
v 1.098013 1.057777 0.426890
v 1.098013 1.274780 0.209887
v 1.098014 0.840776 0.209886
v 1.098013 1.211221 0.056441
v 1.098013 0.904333 0.056441
v 1.098013 1.057777 -0.007113
v 0.985428 0.840777 0.209898
v 0.985428 1.057779 0.426902
v 0.985428 0.904334 0.363340
v 0.985428 1.274782 0.209899
v 0.985428 1.211224 0.363340
v 0.985428 1.211223 0.056453
v 0.985428 1.057779 -0.007105
v 0.985428 0.904334 0.056453
v -1.671971 1.104213 -1.693715
v -1.632868 1.104333 -1.693715
v -1.593931 1.104453 -1.693715
v -1.593931 1.105416 -1.606598
v -1.633033 1.104814 -1.606284
v -1.671971 1.104213 -1.605972
v -1.671971 1.104213 -1.605972
v -1.671971 1.104213 -1.649843
v -1.671971 1.104213 -1.693715
v -1.593931 1.104453 -1.693715
v -1.593931 1.104934 -1.650156
v -1.593931 1.105416 -1.606598
v 1.644688 1.104454 -1.693715
v 1.683626 1.104334 -1.693715
v 1.722728 1.104214 -1.693715
v 1.722728 1.104214 -1.605972
v 1.683791 1.104815 -1.606285
v 1.644688 1.105417 -1.606598
v 1.722728 1.104214 -1.693715
v 1.722728 1.104214 -1.649844
v 1.722728 1.104214 -1.605972
v 1.644688 1.105417 -1.606598
v 1.644688 1.104935 -1.650156
v 1.644688 1.104454 -1.693715
v -1.672012 2.043126 -1.692354
v -1.632951 2.618321 -1.699204
v -1.613358 2.043306 -1.692354
v -1.501021 0.529377 -1.530076
v -1.540000 0.318019 -1.526810
v -1.593890 2.044329 -1.605237
v -1.632951 2.618803 -1.611775
v -1.652543 2.043426 -1.604767
v -1.578979 0.529137 -1.442333
v -1.540000 0.318500 -1.439379
v -1.672012 2.043126 -1.604611
v -1.672053 2.618201 -1.655333
v -1.672012 2.043126 -1.670418
v -1.578979 0.529137 -1.530076
v -1.578937 0.317899 -1.482939
v -1.501063 0.318620 -1.483251
v -1.501021 0.529377 -1.530076
v -1.593890 2.043606 -1.670574
v -1.593848 2.618923 -1.655646
v -1.593890 2.044329 -1.605237
v 1.590000 0.318020 -1.526811
v 1.551021 0.529378 -1.530077
v 1.664116 2.043307 -1.692354
v 1.683708 2.618323 -1.699205
v 1.722769 2.043127 -1.692354
v 1.590000 0.318501 -1.439380
v 1.628979 0.529138 -1.442334
v 1.703301 2.043427 -1.604767
v 1.683708 2.618804 -1.611775
v 1.644647 2.044330 -1.605237
v 1.628937 0.317900 -1.482939
v 1.628979 0.529138 -1.530077
v 1.722769 2.043127 -1.670418
v 1.722811 2.618202 -1.655334
v 1.722769 2.043127 -1.604611
v 1.644647 2.044330 -1.605237
v 1.644606 2.618924 -1.655647
v 1.644647 2.043607 -1.670574
v 1.551021 0.529378 -1.530077
v 1.551063 0.318621 -1.483252
v -1.578979 0.529137 -1.530076
v -1.559427 0.529197 -1.530076
v -1.593890 2.043365 -1.692354
v -1.501021 0.530340 -1.442958
v -1.520572 0.530039 -1.442802
v -1.672012 2.043126 -1.604611
v -1.578979 0.529137 -1.442333
v -1.578979 0.529137 -1.464269
v -1.672012 2.043126 -1.692354
v -1.593890 2.043365 -1.692354
v -1.501021 0.530098 -1.464738
v -1.501021 0.530340 -1.442958
v 1.644647 2.043367 -1.692354
v 1.609428 0.529198 -1.530077
v 1.628979 0.529138 -1.530077
v 1.722769 2.043127 -1.604611
v 1.570573 0.530040 -1.442802
v 1.551021 0.530340 -1.442959
v 1.722769 2.043127 -1.692354
v 1.628979 0.529138 -1.464269
v 1.628979 0.529138 -1.442334
v 1.551021 0.530340 -1.442959
v 1.551021 0.530100 -1.464738
v 1.644647 2.043367 -1.692354
v 1.644688 1.104694 -1.671936
v 1.644688 1.105176 -1.628377
v 1.722728 1.104214 -1.627908
v 1.722728 1.104214 -1.671780
v 1.664240 1.105116 -1.606441
v 1.703259 1.104514 -1.606129
v 1.703177 1.104274 -1.693715
v 1.664157 1.104394 -1.693715
v -1.593931 1.105175 -1.628377
v -1.593931 1.104693 -1.671935
v -1.671971 1.104213 -1.671779
v -1.671971 1.104213 -1.627908
v -1.652502 1.104513 -1.606128
v -1.613482 1.105115 -1.606441
v -1.613400 1.104393 -1.693715
v -1.652420 1.104273 -1.693715
v -1.642685 2.043216 -1.692354
v -1.530224 0.529287 -1.530076
v -1.623217 2.043878 -1.605002
v -1.549776 0.529588 -1.442567
v -1.672012 2.043126 -1.637514
v -1.578979 0.529137 -1.497172
v -1.501021 0.529738 -1.497407
v -1.593890 2.043967 -1.637906
v 1.580225 0.529288 -1.530077
v 1.693443 2.043217 -1.692354
v 1.599776 0.529589 -1.442568
v 1.673974 2.043879 -1.605002
v 1.628979 0.529138 -1.497173
v 1.722769 2.043127 -1.637515
v 1.644647 2.043969 -1.637906
v 1.551021 0.529739 -1.497407
vn -0.0000 1.0000 -0.0000
vn 0.8315 -0.0000 -0.5556
vn 0.9239 -0.0000 -0.3827
vn 1.0000 -0.0000 -0.0000
vn 0.9239 -0.0000 0.3827
vn 0.8315 -0.0000 0.5556
vn 0.5556 -0.0000 -0.8315
vn 0.3827 -0.0000 -0.9239
vn -0.0000 -0.0000 -1.0000
vn -0.3827 -0.0000 -0.9239
vn -0.5556 -0.0000 -0.8315
vn -0.8315 -0.0000 -0.5556
vn -0.9239 -0.0000 -0.3827
vn -1.0000 -0.0000 -0.0000
vn -0.9239 -0.0000 0.3827
vn -0.8315 -0.0000 0.5556
vn -0.5556 -0.0000 0.8315
vn -0.3827 -0.0000 0.9239
vn -0.0000 -0.0000 1.0000
vn 0.3827 -0.0000 0.9239
vn 0.5556 -0.0000 0.8315
vn 0.0004 -0.1305 -0.9914
vn 0.0004 -0.1374 -0.9905
vn 0.0005 -0.1516 -0.9884
vn 0.0004 -0.1436 -0.9896
vn -0.0000 -0.0052 -1.0000
vn 0.0057 0.1429 0.9897
vn 0.0058 0.1377 0.9905
vn 0.0058 0.1408 0.9900
vn 0.0059 0.1320 0.9912
vn 0.0079 0.0052 1.0000
vn -0.9963 -0.0865 -0.0000
vn -0.9968 -0.0801 -0.0000
vn -0.9974 -0.0721 -0.0000
vn -0.9974 -0.0725 -0.0000
vn -1.0000 -0.0001 -0.0000
vn 0.9973 0.0728 -0.0008
vn 1.0000 -0.0001 -0.0000
vn 0.9968 0.0797 -0.0009
vn 0.9963 0.0856 -0.0009
vn 0.9974 0.0723 -0.0008
vn -0.0004 -0.1437 -0.9896
vn -0.0004 -0.1374 -0.9905
vn -0.0004 -0.1304 -0.9915
vn -0.0005 -0.1517 -0.9884
vn -0.0059 0.1320 0.9912
vn -0.0079 0.0052 1.0000
vn -0.0058 0.1377 0.9905
vn -0.0057 0.1429 0.9897
vn -0.0058 0.1407 0.9900
vn 0.9973 -0.0731 -0.0000
vn 0.9967 -0.0807 -0.0000
vn 0.9962 -0.0872 -0.0000
vn 0.9974 -0.0727 -0.0000
vn -0.9963 0.0863 -0.0010
vn -0.9968 0.0804 -0.0009
vn -0.9973 0.0728 -0.0008
vn -0.9973 0.0733 -0.0008
vn -0.0000 -0.9568 -0.2909
vn -0.0027 -0.9566 -0.2913
vn -0.0469 -0.9689 -0.2429
vn -0.1076 -0.9560 -0.2729
vn 0.0472 -0.9692 -0.2417
vn 0.0998 -0.9578 -0.2694
vn 0.0023 -0.9556 -0.2948
vn -0.0000 -0.9556 -0.2946
vn -0.0000 0.9734 0.2290
vn -0.0000 0.9735 0.2288
vn -0.0000 0.8194 0.5732
vn -0.0000 0.8195 0.5731
vn -0.0000 0.7256 0.6882
vn -0.0000 0.9760 -0.2176
vn -0.0000 0.9736 -0.2281
vn -0.0000 0.9448 -0.3276
vn -0.0000 0.9765 0.2156
vn -0.0000 0.8225 0.5688
vn -0.0000 -0.4493 -0.8934
vn -0.9881 0.0311 0.1505
vn -0.9920 -0.0386 0.1203
vn -0.9917 -0.0250 0.1263
vn -0.9919 -0.0686 0.1071
vn 0.9916 -0.0254 0.1265
vn 0.9919 -0.0390 0.1206
vn 0.9881 0.0304 0.1507
vn 0.9918 -0.0688 0.1075
vn -0.0000 0.5391 -0.8422
vn -0.0000 0.8952 0.4456
vn -0.0000 0.4034 0.9150
vn -0.0000 0.1430 0.9897
vn -0.0000 0.0717 0.9974
vn -0.0000 0.2758 0.9612
vn -0.0000 0.2767 0.9609
vn 0.9931 -0.0000 0.1175
vn 0.9931 -0.0061 0.1169
vn 0.9920 -0.0605 0.1111
vn 0.9946 -0.0029 0.1036
vn 0.9946 -0.0000 0.1034
vn 0.9935 0.0065 0.1140
vn 0.9937 0.0101 0.1120
vn 0.9939 0.0158 0.1090
vn 0.9944 0.0207 0.1035
vn 0.9885 -0.0027 0.1514
vn 0.9905 0.0365 0.1324
vn 0.9861 0.0477 0.1589
vn 0.9882 0.0836 0.1287
vn 0.9886 0.0924 0.1191
vn 0.9860 0.0905 0.1397
vn 0.9807 0.0813 0.1779
vn -0.9938 -0.0000 0.1112
vn -0.9938 0.0021 0.1111
vn -0.9935 0.0431 0.1055
vn -0.9948 0.0043 0.1016
vn -0.9932 -0.0104 0.1161
vn -0.9949 -0.0000 0.1012
vn -0.9953 0.0087 0.0965
vn -0.9913 0.0102 0.1312
vn -0.9874 0.0451 0.1517
vn -0.9884 0.0564 0.1409
vn -0.9882 0.0837 0.1287
vn -0.9886 0.0924 0.1191
vn -0.9861 0.0906 0.1396
vn -0.9807 0.0814 0.1775
vn 0.9999 0.0003 -0.0120
vn 0.9999 -0.0007 -0.0119
vn 0.9999 -0.0006 -0.0119
vn 0.9999 -0.0034 -0.0112
vn 0.9999 -0.0031 -0.0114
vn 0.9999 -0.0072 -0.0093
vn 0.9999 -0.0068 -0.0099
vn 0.9999 -0.0103 -0.0062
vn 0.9999 -0.0102 -0.0069
vn 0.9999 -0.0122 -0.0015
vn 0.9999 -0.0122 -0.0022
vn 0.9999 -0.0126 0.0015
vn 0.0120 -0.0000 0.9999
vn 0.0120 0.0726 0.9973
vn 0.0121 0.2804 0.9598
vn 0.0121 0.2801 0.9599
vn 0.0115 0.4102 0.9119
vn 0.0113 0.4102 0.9119
vn -0.9999 -0.0003 0.0120
vn -0.9999 0.0006 0.0119
vn -0.9999 0.0007 0.0119
vn -0.9999 0.0031 0.0114
vn -0.9999 0.0033 0.0114
vn -0.9999 0.0068 0.0098
vn -0.9999 0.0073 0.0095
vn -0.9999 0.0100 0.0067
vn -0.9999 0.0104 0.0063
vn -0.9999 0.0121 0.0020
vn -0.9999 0.0123 0.0014
vn -0.9999 0.0126 -0.0015
vn 0.0123 0.7316 0.6816
vn 0.0121 0.7316 0.6817
vn 0.0121 0.8251 0.5649
vn 0.0119 0.8248 0.5653
vn 0.0124 0.9746 0.2234
vn 0.0123 0.9745 0.2239
vn 0.0126 0.9999 -0.0000
vn 0.0004 -1.0000 -0.0000
vn 0.0015 -0.0000 -1.0000
vn 0.9999 -0.0003 0.0120
vn 0.9999 0.0006 0.0119
vn 0.9999 0.0007 0.0119
vn 0.9999 0.0031 0.0114
vn 0.9999 0.0033 0.0113
vn 0.9999 0.0068 0.0098
vn 0.9999 0.0073 0.0095
vn 0.9999 0.0100 0.0067
vn 0.9999 0.0104 0.0063
vn 0.9999 0.0121 0.0020
vn 0.9999 0.0123 0.0014
vn 0.9999 0.0126 -0.0015
vn -0.0000 0.0726 0.9974
vn -0.0000 0.2803 0.9599
vn -0.0000 0.4104 0.9119
vn -0.0000 0.7316 0.6817
vn -0.0000 0.8250 0.5651
vn -0.0000 0.9747 0.2237
vn -0.0000 -1.0000 -0.0000
vn -0.9999 0.0003 -0.0120
vn -0.9999 -0.0007 -0.0119
vn -0.9999 -0.0006 -0.0119
vn -0.9999 -0.0034 -0.0113
vn -0.9999 -0.0031 -0.0114
vn -0.9999 -0.0072 -0.0093
vn -0.9999 -0.0068 -0.0099
vn -0.9999 -0.0103 -0.0062
vn -0.9999 -0.0102 -0.0069
vn -0.9999 -0.0122 -0.0015
vn -0.9999 -0.0122 -0.0022
vn -0.9999 -0.0126 0.0015
vn -0.0120 -0.0000 0.9999
vn -0.0120 0.0726 0.9973
vn -0.0121 0.2804 0.9598
vn -0.0121 0.2801 0.9599
vn -0.0115 0.4102 0.9119
vn -0.0113 0.4102 0.9119
vn -0.0122 0.7316 0.6816
vn -0.0121 0.8251 0.5649
vn -0.0121 0.7316 0.6817
vn -0.0119 0.8248 0.5653
vn -0.0124 0.9746 0.2234
vn -0.0123 0.9745 0.2239
vn -0.0126 0.9999 -0.0000
vn -0.0004 -1.0000 -0.0000
vn -0.0015 -0.0000 -1.0000
vn 0.2138 -0.0000 -0.9769
vn -0.2223 -0.0000 -0.9750
vn -0.0000 0.2342 0.9722
vn 0.0001 0.2342 0.9722
vn 1.0000 -0.0005 0.0009
vn 1.0000 -0.0009 0.0003
vn 1.0000 -0.0007 0.0007
vn 1.0000 -0.0011 0.0002
vn 1.0000 -0.0008 -0.0000
vn 1.0000 -0.0007 -0.0000
vn 0.0005 1.0000 0.0002
vn 0.0005 1.0000 0.0001
vn 0.0004 1.0000 0.0001
vn 0.0001 0.2341 0.9722
vn -0.0000 0.2341 0.9722
vn 0.0006 1.0000 0.0001
vn -1.0000 0.0001 0.0002
vn -1.0000 -0.0000 0.0003
vn -1.0000 -0.0012 0.0002
vn -1.0000 -0.0001 0.0002
vn -1.0000 -0.0000 0.0002
vn -1.0000 0.0005 -0.0009
vn -1.0000 0.0006 -0.0009
vn -1.0000 0.0009 -0.0007
vn -1.0000 0.0025 -0.0003
vn -1.0000 0.0009 -0.0003
vn -1.0000 0.0007 -0.0003
vn 0.0001 0.2632 -0.9647
vn 0.0003 0.2633 -0.9647
vn 0.0001 0.2633 -0.9647
vn 0.0005 1.0000 -0.0000
vn 0.0006 1.0000 -0.0000
vn -0.0000 -0.0049 1.0000
vn -0.0000 -0.0048 1.0000
vn 0.0003 1.0000 -0.0000
vn 0.0001 0.2818 0.9595
vn -1.0000 0.0007 -0.0008
vn -1.0000 0.0010 -0.0006
vn -1.0000 0.0027 -0.0002
vn 0.0003 0.3296 -0.9441
vn 0.0002 0.3296 -0.9441
vn 0.0001 0.3296 -0.9441
vn -0.7648 0.6443 -0.0000
vn 0.7648 0.6443 -0.0000
vn -0.0000 -0.0693 -0.9976
vn -0.0000 -0.2660 -0.9640
vn -0.0000 -0.3892 -0.9211
vn -0.0000 -0.9448 0.3276
vn -0.0000 -0.9699 -0.2434
vn -0.0000 -0.9699 -0.2436
vn -0.0000 -0.8053 -0.5929
vn -0.0000 -0.8052 -0.5930
vn -0.0000 -0.7127 -0.7015
vn -0.0000 -0.9740 -0.2265
vn -0.0000 -0.8077 -0.5896
vn 0.9800 -0.1311 -0.1497
vn 0.9814 -0.0743 -0.1768
vn 0.9756 -0.1221 -0.1824
vn 0.9812 -0.1208 -0.1503
vn 0.9801 -0.1303 -0.1496
vn 0.9878 -0.0658 -0.1409
vn 0.9905 -0.0013 -0.1378
vn 0.9949 -0.0311 -0.0959
vn 0.9930 -0.0104 -0.1174
vn 0.9923 0.0001 -0.1237
vn 0.9923 -0.0000 -0.1237
vn -0.9915 -0.0000 -0.1304
vn -0.9914 -0.0003 -0.1307
vn -0.9902 -0.0020 -0.1397
vn -0.9914 -0.0007 -0.1309
vn -0.9922 -0.0119 -0.1244
vn -0.9928 -0.0196 -0.1185
vn -0.9888 -0.0440 -0.1428
vn -0.9854 -0.0635 -0.1583
vn -0.9854 -0.0907 -0.1438
vn -0.9872 -0.0980 -0.1256
vn -0.9859 -0.1202 -0.1161
vn -0.9802 -0.1064 -0.1671
vn -0.9192 -0.2998 -0.2554
vn -0.9867 -0.0382 -0.1578
vn -0.9785 -0.0981 -0.1812
vn -0.9910 0.0724 -0.1130
vn 0.9851 -0.0538 -0.1635
vn 0.9892 -0.0105 -0.1463
vn 0.9519 -0.2102 -0.2229
vn 0.9910 0.0721 -0.1127
vn -0.0000 -0.5391 0.8422
vn -0.0000 -0.1383 -0.9904
vn -0.0000 -0.2671 -0.9637
vn -0.0000 -0.2661 -0.9640
vn -0.0000 -0.8086 -0.5883
vn -0.0000 -0.8814 -0.4724
vn 1.0000 0.0005 0.0041
vn 1.0000 0.0005 0.0042
vn 1.0000 0.0003 0.0047
vn 1.0000 0.0003 0.0049
vn 0.7068 0.7074 0.0034
vn 0.7068 0.7074 0.0036
vn 0.7069 0.7073 0.0038
vn 0.7069 0.7073 0.0039
vn 1.0000 0.0008 0.0041
vn 1.0000 0.0008 0.0039
vn 1.0000 0.0009 0.0027
vn 1.0000 0.0009 0.0026
vn 1.0000 0.0009 0.0017
vn 1.0000 0.0008 0.0014
vn 1.0000 0.0010 0.0016
vn 1.0000 0.0011 0.0017
vn 1.0000 0.0011 0.0007
vn 1.0000 0.0009 0.0007
vn -1.0000 -0.0011 -0.0015
vn -1.0000 -0.0010 -0.0015
vn -1.0000 -0.0008 -0.0015
vn -1.0000 -0.0008 -0.0017
vn -1.0000 -0.0009 -0.0018
vn -1.0000 -0.0008 -0.0026
vn -1.0000 -0.0009 -0.0027
vn -1.0000 -0.0010 -0.0039
vn -1.0000 -0.0011 -0.0041
vn -1.0000 -0.0011 -0.0007
vn -1.0000 -0.0009 -0.0007
vn -0.7078 -0.0008 0.7065
vn -0.7078 -0.0007 0.7064
vn -0.7078 -0.0006 0.7064
vn -1.0000 -0.0003 -0.0041
vn -1.0000 -0.0003 -0.0042
vn -1.0000 -0.0005 -0.0047
vn -1.0000 -0.0005 -0.0049
vn -0.7073 0.7069 -0.0034
vn -0.7073 0.7069 -0.0036
vn -0.7074 0.7068 -0.0038
vn -0.7074 0.7068 -0.0039
vn 0.7064 0.0005 0.7078
vn 0.7064 0.0004 0.7078
vn 0.7065 0.0004 0.7078
vn -0.0000 -0.0002 1.0000
vn 0.7071 0.7071 -0.0000
vn 0.7071 -0.7071 -0.0000
vn -0.7071 -0.7071 -0.0000
vn -0.7071 0.7071 -0.0000
vn -0.0000 0.7071 0.7071
vn -0.0000 -0.7071 0.7071
vn -0.0000 -0.7071 -0.7071
vn -0.0000 0.7071 -0.7071
vn 0.5857 -0.7098 0.3914
vn 0.9246 -0.3336 0.1839
vn 0.9246 0.3336 -0.1839
vn 0.5857 0.7098 -0.3914
vn 0.3070 -0.8334 0.4595
vn 0.2232 -0.8536 0.4707
vn 0.1767 -0.8619 0.4753
vn -0.0000 -0.8757 0.4828
vn -0.2232 -0.8536 0.4707
vn -0.1767 -0.8619 0.4753
vn -0.3070 -0.8334 0.4595
vn -0.5857 -0.7098 0.3914
vn -0.9246 -0.3336 0.1839
vn -0.9246 0.3336 -0.1839
vn -0.5857 0.7098 -0.3914
vn -0.3070 0.8334 -0.4595
vn -0.1767 0.8619 -0.4753
vn -0.2232 0.8536 -0.4707
vn -0.0000 0.8757 -0.4828
vn 0.1767 0.8619 -0.4753
vn 0.2232 0.8536 -0.4707
vn 0.3070 0.8334 -0.4595
vn 0.0001 0.3827 0.9239
vn 0.0001 -0.3827 0.9239
vn -0.0000 0.9239 0.3827
vn 0.0001 0.9239 0.3827
vn -0.0000 0.9239 -0.3827
vn -0.0001 0.3827 -0.9239
vn -0.0001 -0.3827 -0.9239
vn -0.0000 -0.9239 -0.3827
vn -0.0001 -0.9239 -0.3827
vn -0.0000 -0.9239 0.3827
vn -0.9968 0.0803 -0.0009
vn 0.9967 -0.0808 -0.0000
vn -0.0057 0.1461 0.9893
vn -0.0004 -0.1458 -0.9893
vn -0.9968 -0.0802 -0.0000
vn 0.0057 0.1461 0.9893
vn 0.0005 -0.1458 -0.9893
vn 0.0004 -0.1458 -0.9893
vn -0.0000 -0.0119 -0.9999
vn 0.0004 -0.1393 -0.9902
vn -0.0000 -0.0155 -0.9999
vn 0.0079 0.0053 1.0000
vn 0.0078 0.0119 0.9999
vn 0.0056 0.1509 0.9885
vn 0.0078 0.0155 0.9999
vn -0.9962 -0.0870 -0.0000
vn -1.0000 -0.0002 -0.0000
vn 1.0000 -0.0002 -0.0000
vn 0.9963 0.0859 -0.0009
vn -0.0004 -0.1393 -0.9903
vn -0.0078 0.0155 0.9999
vn -0.0056 0.1510 0.9885
vn -0.0078 0.0119 0.9999
vn -0.0079 0.0053 1.0000
vn 0.9961 -0.0877 -0.0000
vn -0.9962 0.0866 -0.0010
vt 0.483258 2.904944
vt 0.482481 2.925908
vt 0.482480 2.904944
vt 0.517524 2.904944
vt 0.517524 2.925908
vt 0.516748 2.904944
vt 2.913158 0.500000
vt 2.913158 0.502374
vt 2.908315 0.500000
vt 2.908315 0.502374
vt 2.902602 0.500000
vt 2.902602 0.502374
vt 2.896890 0.500000
vt 2.896890 0.502374
vt 2.892047 0.500000
vt 2.892047 0.502374
vt 0.489448 0.502374
vt 0.489448 0.500000
vt 0.494284 0.502374
vt 0.494284 0.500000
vt 0.499989 0.502374
vt 0.499989 0.500000
vt 0.505694 0.502374
vt 0.505694 0.500000
vt 0.510530 0.502374
vt 0.510530 0.500000
vt -1.913158 0.502374
vt -1.913158 0.500000
vt -1.908315 0.502374
vt -1.908315 0.500000
vt -1.902602 0.502374
vt -1.902602 0.500000
vt -1.896890 0.502374
vt -1.896890 0.500000
vt -1.892047 0.502374
vt -1.892047 0.500000
vt 0.489470 0.502374
vt 0.489470 0.500000
vt 0.494306 0.502374
vt 0.494306 0.500000
vt 0.500011 0.502374
vt 0.500011 0.500000
vt 0.505716 0.502374
vt 0.505716 0.500000
vt 0.510552 0.502374
vt 0.510552 0.500000
vt 0.516759 2.893249
vt 0.483259 2.893250
vt 0.494162 2.930138
vt 0.505843 2.930138
vt 0.510552 2.913158
vt 0.500011 2.902602
vt 0.513784 2.908315
vt 0.514918 2.902602
vt 0.505716 2.916394
vt 0.513784 2.896890
vt 0.500011 2.917530
vt 0.510552 2.892047
vt 0.494306 2.916394
vt 0.505716 2.888811
vt 0.489470 2.913158
vt 0.500011 2.887675
vt 0.486238 2.908315
vt 0.494306 2.888811
vt 0.485103 2.902602
vt 0.489470 2.892047
vt 0.486238 2.896890
vt 0.516585 0.518163
vt 0.516288 0.518164
vt 0.516584 0.511489
vt 0.515399 0.518167
vt 0.515695 0.518166
vt 0.515399 0.524841
vt 0.484601 0.518181
vt 0.484304 0.518177
vt 0.484601 0.511508
vt 0.483415 0.518163
vt 0.483711 0.518168
vt 0.483414 0.524837
vt -1.923468 0.518163
vt -1.923802 0.518163
vt -1.923468 0.511489
vt -1.924804 0.518163
vt -1.924470 0.518163
vt -1.924804 0.524837
vt 2.924804 0.518167
vt 2.924804 0.524841
vt 2.924472 0.518171
vt 2.923478 0.518181
vt 2.923478 0.511508
vt 2.923809 0.518178
vt 0.484579 0.518167
vt 0.484579 0.524841
vt 0.484283 0.518166
vt 0.483393 0.518163
vt 0.483394 0.511489
vt 0.483690 0.518164
vt 0.516607 0.518163
vt 0.516608 0.524837
vt 0.516311 0.518168
vt 0.515421 0.518181
vt 0.515421 0.511508
vt 0.515718 0.518177
vt 2.924804 0.518163
vt 2.924804 0.524837
vt 2.924470 0.518163
vt 2.923468 0.518163
vt 2.923468 0.511489
vt 2.923802 0.518163
vt -1.923478 0.518181
vt -1.923809 0.518178
vt -1.923478 0.511508
vt -1.924804 0.518167
vt -1.924472 0.518171
vt -1.924804 0.524841
vt 0.482476 2.911721
vt 0.483252 2.911721
vt 0.482460 2.930138
vt 0.483225 2.928787
vt 0.517504 2.930138
vt 0.516739 2.928787
vt 0.517520 2.911721
vt 0.516742 2.911721
vt 0.511571 2.904218
vt 0.517525 2.904218
vt 0.511575 2.906516
vt 0.517532 2.908952
vt 0.509147 2.908952
vt 0.517540 2.924989
vt 0.507304 2.908952
vt 0.505461 2.908952
vt 0.494375 2.908952
vt 0.496802 2.906516
vt 0.503024 2.906516
vt 0.496798 2.904218
vt 0.503019 2.904218
vt 0.496793 2.899484
vt 0.503015 2.899484
vt 0.496790 2.895470
vt 0.503012 2.895470
vt 0.482496 2.924989
vt 0.492532 2.908952
vt 0.490689 2.908952
vt 0.482496 2.928267
vt 0.517540 2.928267
vt 0.482489 2.908952
vt 0.488251 2.906516
vt 0.482482 2.904218
vt 0.488247 2.904218
vt 0.482478 2.899484
vt 0.488242 2.899484
vt 0.482476 2.895470
vt 0.488239 2.895470
vt 0.516742 0.515311
vt 0.517520 0.515311
vt 0.516742 0.524811
vt 0.517520 0.524811
vt 0.482476 0.515311
vt 0.483252 0.515311
vt 0.482476 0.524811
vt 0.483252 0.524811
vt -1.924989 0.532913
vt -1.928267 0.531781
vt -1.911721 0.524811
vt -1.930138 0.528873
vt 2.911721 0.524811
vt 2.928267 0.531781
vt 2.924989 0.532913
vt 2.930138 0.528873
vt 0.517504 0.531781
vt 0.482460 0.531781
vt 0.517504 0.528873
vt 0.482460 0.528873
vt 0.511566 2.899484
vt 0.517521 2.899483
vt 0.517519 2.895470
vt 0.511563 2.895470
vt 0.511562 0.525312
vt 0.517518 0.525312
vt 0.511563 0.529307
vt 0.517519 0.529307
vt 0.511563 0.520601
vt 0.517519 0.520601
vt 0.517521 0.515311
vt 0.511565 0.517735
vt 0.509133 0.515311
vt 0.517523 0.503510
vt 0.505447 0.515311
vt 0.482480 0.503510
vt 0.494361 0.515311
vt 0.490674 0.515311
vt 0.503013 0.517735
vt 0.496792 0.517735
vt 0.503012 0.520601
vt 0.496791 0.520601
vt 0.503011 0.525312
vt 0.496790 0.525312
vt 0.503012 0.529307
vt 0.496790 0.529307
vt 0.482478 0.515311
vt 0.488241 0.517735
vt 0.482476 0.520601
vt 0.488239 0.520601
vt 0.488238 0.525312
vt 0.482475 0.525312
vt 0.488239 0.529307
vt 0.482476 0.529307
vt 2.891846 0.515311
vt 2.891846 0.503510
vt 2.904944 0.515311
vt 2.904944 0.504820
vt 2.925908 0.503510
vt 2.925908 0.504821
vt 2.891846 0.520601
vt 2.892788 0.525312
vt 2.895470 0.529307
vt 2.899483 0.531976
vt 2.904218 0.532913
vt 2.908952 0.532913
vt 0.517520 0.504820
vt 0.516742 0.504820
vt 0.482476 0.504820
vt 0.483252 0.504820
vt -1.925908 0.504821
vt -1.925908 0.503510
vt -1.904944 0.504820
vt -1.891846 0.503510
vt -1.904944 0.515311
vt -1.891846 0.515311
vt -1.891846 0.520601
vt -1.892788 0.525312
vt -1.895470 0.529307
vt -1.899484 0.531976
vt -1.904218 0.532913
vt -1.908952 0.532913
vt 0.494157 0.503510
vt 0.505838 0.503510
vt 0.494157 0.504821
vt 0.505838 0.504821
vt 2.891094 0.515311
vt 2.892617 0.515311
vt 2.891094 0.520675
vt 2.892617 0.520526
vt 2.892080 0.525604
vt 2.893513 0.525013
vt 2.894928 0.529846
vt 2.896025 0.528754
vt 2.899190 0.532680
vt 2.899784 0.531253
vt 2.904143 0.533661
vt 2.904293 0.532146
vt 2.908951 0.533661
vt 2.908951 0.532146
vt 0.512964 0.515310
vt 0.514484 0.515311
vt 0.512962 0.520676
vt 0.514482 0.520675
vt 0.512961 0.525611
vt 0.514481 0.525604
vt 0.512962 0.529859
vt 0.514482 0.529846
vt -1.892598 0.515310
vt -1.891076 0.515310
vt -1.892598 0.520527
vt -1.891076 0.520676
vt -1.893497 0.525020
vt -1.892063 0.525611
vt -1.896012 0.528767
vt -1.894915 0.529859
vt -1.899777 0.531271
vt -1.899184 0.532698
vt -1.904293 0.532165
vt -1.904143 0.533680
vt -1.908953 0.532165
vt -1.908953 0.533680
vt 0.512962 2.894915
vt 0.514482 2.894928
vt 0.512965 2.899184
vt 0.514484 2.899190
vt 0.512968 2.904143
vt 0.514488 2.904143
vt 0.512976 2.908953
vt 0.514496 2.908951
vt 0.487054 2.892598
vt 0.485534 2.892617
vt 0.487036 2.891076
vt 0.485516 2.891094
vt 0.485504 0.533661
vt 0.485523 0.532146
vt 0.487024 0.533680
vt 0.487043 0.532165
vt 2.892598 0.515310
vt 2.892598 0.520527
vt 2.891076 0.515310
vt 2.891076 0.520676
vt 2.893497 0.525020
vt 2.892063 0.525611
vt 2.896012 0.528767
vt 2.894915 0.529859
vt 2.899777 0.531271
vt 2.899184 0.532698
vt 2.904293 0.532165
vt 2.904143 0.533680
vt 2.908953 0.532165
vt 2.908953 0.533680
vt 0.498192 0.515310
vt 0.501644 0.515310
vt 0.498190 0.520676
vt 0.501646 0.520676
vt 0.498189 0.525611
vt 0.501647 0.525611
vt 0.498190 0.529859
vt 0.501646 0.529859
vt 0.498190 2.894915
vt 0.501646 2.894915
vt 0.498192 2.899184
vt 0.501644 2.899184
vt 0.498196 2.904143
vt 0.501640 2.904143
vt 0.498203 2.908953
vt 0.501633 2.908953
vt 0.501827 2.892598
vt 0.498338 2.892598
vt 0.501808 2.891076
vt 0.498356 2.891076
vt 0.498348 0.532165
vt 0.501816 0.532165
vt 0.498367 0.533680
vt 0.501797 0.533680
vt -1.891094 0.515311
vt -1.891094 0.520675
vt -1.892617 0.515311
vt -1.892617 0.520526
vt -1.892080 0.525604
vt -1.893513 0.525013
vt -1.894928 0.529846
vt -1.896025 0.528754
vt -1.899190 0.532680
vt -1.899784 0.531253
vt -1.904143 0.533661
vt -1.904293 0.532146
vt -1.908951 0.533661
vt -1.908951 0.532146
vt 0.486871 0.515310
vt 0.486873 0.520676
vt 0.485351 0.515311
vt 0.485353 0.520675
vt 0.486874 0.525611
vt 0.485354 0.525604
vt 0.486873 0.529859
vt 0.485353 0.529846
vt 0.486873 2.894915
vt 0.486871 2.899184
vt 0.485353 2.894928
vt 0.485351 2.899190
vt 0.486867 2.904143
vt 0.485347 2.904143
vt 0.486860 2.908953
vt 0.485340 2.908951
vt 0.514649 2.891094
vt 0.514630 2.892617
vt 0.513129 2.891076
vt 0.513110 2.892598
vt 0.514641 0.532146
vt 0.514660 0.533661
vt 0.513140 0.533680
vt 0.513121 0.532165
vt 0.482476 0.503510
vt 0.482476 0.504821
vt 0.517519 0.504821
vt 0.517519 0.503510
vt 0.514606 0.503809
vt 0.514606 0.510332
vt 0.509092 0.503809
vt 0.485394 0.503809
vt 0.490908 0.503809
vt 0.485394 0.510332
vt 0.514600 0.503809
vt 0.514600 0.510332
vt 0.509085 0.503809
vt 0.485400 0.503809
vt 0.490915 0.503809
vt 0.485400 0.510332
vt 0.516737 0.504820
vt 0.516753 0.522597
vt 0.514606 0.504820
vt 0.514606 0.522598
vt 2.901408 0.522597
vt 2.896159 0.504820
vt 2.907028 0.522598
vt 2.911932 0.508616
vt 2.923468 0.504820
vt 2.923468 0.508616
vt 0.516753 2.901408
vt 0.516759 2.907028
vt 0.514606 2.901408
vt 0.514606 2.907028
vt 0.485400 0.504820
vt 0.485400 0.522606
vt 0.483244 0.504820
vt 0.483260 0.522608
vt 2.901408 0.522606
vt 2.896160 0.504820
vt 2.907027 0.522607
vt 2.911932 0.508625
vt 2.923468 0.508625
vt 0.485400 2.901408
vt 0.485400 2.907027
vt 0.483260 2.901408
vt 0.483266 2.907028
vt 0.483249 0.508616
vt 0.483252 0.504820
vt 0.485394 0.508617
vt 0.485393 0.504820
vt -1.901408 0.522598
vt -1.907028 0.522599
vt -1.896159 0.504820
vt -1.911933 0.508617
vt -1.923468 0.508617
vt -1.923468 0.504820
vt 0.514600 0.508625
vt 0.514600 0.504820
vt 0.516742 0.508626
vt 0.516745 0.504820
vt -1.901408 0.522608
vt -1.907028 0.522608
vt -1.896159 0.504820
vt -1.911932 0.508626
vt -1.923468 0.508626
vt 0.483241 0.522598
vt 0.485394 0.522599
vt 0.514600 0.522607
vt 0.514600 0.508625
vt 0.516734 0.522608
vt 0.516742 0.508626
vt 0.516751 2.911932
vt 0.516751 2.923468
vt 0.514606 2.911933
vt 0.514606 2.923468
vt 0.485400 2.911932
vt 0.485400 2.923468
vt 0.483258 2.911932
vt 0.483258 2.923468
vt 0.485394 0.504820
vt 0.514600 0.504820
vt 0.485391 0.507311
vt 0.514597 0.507322
vt 0.514609 0.507311
vt 0.485403 0.507322
vt 0.514596 0.504820
vt 0.485390 0.504820
vt 0.514609 2.916191
vt 0.485403 2.916192
vt 0.514609 2.914485
vt 0.485403 2.914485
vt 0.483250 0.504820
vt 0.516740 0.504820
vt 0.483246 0.507311
vt 0.516737 0.507322
vt 0.516754 0.507311
vt 0.483263 0.507322
vt 0.516735 0.504820
vt 0.483245 0.504820
vt 0.516754 2.902643
vt 0.483263 2.902643
vt 0.516754 2.900936
vt 0.483263 2.900936
vt 0.500990 0.504820
vt 0.500990 0.522606
vt 0.498834 0.504820
vt 0.498850 0.522608
vt 2.924803 0.504820
vt 2.924803 0.508625
vt 0.500990 2.901408
vt 0.500990 2.907027
vt 0.498850 2.901408
vt 0.498855 2.907028
vt 0.499010 0.508625
vt 0.499010 0.504820
vt 0.501152 0.508626
vt 0.501155 0.504820
vt -1.924803 0.508626
vt -1.924803 0.504820
vt 0.499010 0.522607
vt 0.501145 0.522608
vt 0.501152 0.508626
vt 0.500990 2.911932
vt 0.500990 2.924803
vt 0.498848 2.911932
vt 0.498848 2.924803
vt -1.903462 0.503809
vt -1.903462 0.510332
vt -1.904974 0.503809
vt -1.904974 0.510332
vt 2.904974 0.503809
vt 2.904974 0.510332
vt 2.903462 0.503809
vt 2.903462 0.510332
vt 0.488431 0.520601
vt 0.483254 0.520601
vt 0.488429 0.517735
vt 0.483247 0.515311
vt 0.490859 0.515311
vt 0.483241 0.504820
vt 0.494545 0.515311
vt 0.516741 0.504820
vt 0.505632 0.515311
vt 0.509318 0.515311
vt 0.503201 0.517735
vt 0.496980 0.517735
vt 0.503204 0.520601
vt 0.496982 0.520601
vt 0.503207 0.524778
vt 0.496985 0.524778
vt 0.503207 0.528320
vt 0.496986 0.528320
vt 0.516742 0.515311
vt 0.511752 0.517735
vt 0.516743 0.520601
vt 0.511755 0.520601
vt 0.516743 0.524778
vt 0.511758 0.524778
vt 0.516743 0.528320
vt 0.511758 0.528320
vt 0.483237 2.908952
vt 0.490852 2.908952
vt 0.483225 2.924989
vt 0.488424 2.906517
vt 0.488428 2.904218
vt 0.483249 2.904218
vt 0.492695 2.908952
vt 0.494538 2.908952
vt 0.505624 2.908952
vt 0.516739 2.924989
vt 0.507467 2.908952
vt 0.509310 2.908952
vt 0.483225 2.927438
vt 0.516739 2.927438
vt 0.496975 2.906517
vt 0.503196 2.906517
vt 0.496979 2.904218
vt 0.503201 2.904218
vt 0.496984 2.900020
vt 0.503205 2.900020
vt 0.496986 2.896462
vt 0.503207 2.896462
vt 0.516740 2.908952
vt 0.511747 2.906517
vt 0.516742 2.904218
vt 0.511752 2.904218
vt 0.511756 2.900020
vt 0.516743 2.900021
vt 0.511758 2.896462
vt 0.516743 2.896462
vt 2.908952 0.531517
vt 2.924989 0.531517
vt 2.904218 0.531517
vt 2.900021 0.530686
vt 2.896462 0.528320
vt 2.894084 0.524778
vt 2.893249 0.520601
vt 2.893250 0.515311
vt 2.893250 0.504820
vt -1.893249 0.504820
vt -1.893249 0.515311
vt -1.893249 0.520601
vt -1.894084 0.524778
vt -1.896462 0.528320
vt -1.900020 0.530686
vt -1.904218 0.531517
vt -1.908952 0.531517
vt -1.924989 0.531517
vt -1.927438 0.530671
vt -1.928787 0.528575
vt 2.927438 0.530671
vt 2.928787 0.528575
vt 0.516775 0.530671
vt 0.483261 0.530671
vt 0.516775 0.528575
vt 0.483261 0.528575
vt 0.483258 0.524778
vt 0.488434 0.524778
vt 0.483258 0.528320
vt 0.488434 0.528320
vt 0.483258 2.896462
vt 0.488434 2.896462
vt 0.483256 2.900020
vt 0.488432 2.900020
vt 0.509133 2.891846
vt 0.509141 2.893249
vt 0.505447 2.891846
vt 0.505455 2.893249
vt 2.893249 0.520601
vt 2.893249 0.517735
vt 2.891846 0.517735
vt 2.893249 0.515311
vt 2.894084 0.524778
vt 2.896462 0.528320
vt 2.899484 0.531976
vt 2.900020 0.530686
vt 2.904218 0.531517
vt 2.906516 0.532913
vt 2.906517 0.531517
vt -1.904218 0.531517
vt -1.899484 0.531976
vt -1.900020 0.530686
vt -1.896462 0.528320
vt -1.892788 0.525312
vt -1.894084 0.524778
vt -1.893249 0.520601
vt -1.906517 0.531517
vt -1.906516 0.532913
vt -1.908952 0.531517
vt -1.908952 0.532913
vt -1.891846 0.517735
vt -1.893249 0.517735
vt -1.893249 0.515311
vt 0.503024 0.532913
vt 0.503025 0.531517
vt 0.505461 0.532913
vt 0.505462 0.531517
vt 0.507305 0.531517
vt 0.507304 0.532913
vt 0.509148 0.531517
vt 0.509147 0.532913
vt 0.494157 2.930138
vt 0.482476 2.925908
vt 0.482477 2.891846
vt 0.517520 2.891846
vt 0.505838 2.930138
vt 0.517519 2.925908
vt 0.494361 2.891846
vt 0.494368 2.893249
vt 0.490674 2.891846
vt 0.490682 2.893249
vt 2.892788 0.525312
vt 2.899484 0.531976
vt 2.904218 0.531517
vt -1.904218 0.531517
vt -1.891846 0.517735
vt -1.893249 0.517735
vt 0.488251 0.532913
vt 0.488252 0.531517
vt 0.490689 0.532913
vt 0.490690 0.531517
vt 0.492533 0.531517
vt 0.492532 0.532913
vt 0.494376 0.531517
vt 0.494375 0.532913
vt 2.897758 0.508330
vt 2.897758 0.504820
vt 2.899981 0.508330
vt 2.899981 0.504820
vt 2.902602 0.508330
vt 2.902602 0.504820
vt 2.905224 0.508330
vt 2.905224 0.504820
vt 2.907447 0.508330
vt 2.907447 0.504820
vt 0.504849 0.504820
vt 0.504849 0.508330
vt 0.502629 0.504820
vt 0.502629 0.508330
vt 0.500011 0.504820
vt 0.500011 0.508330
vt 0.497392 0.504820
vt 0.497392 0.508330
vt 0.495173 0.504820
vt 0.495173 0.508330
vt -1.897758 0.504820
vt -1.897758 0.508330
vt -1.899981 0.504820
vt -1.899981 0.508330
vt -1.902602 0.504820
vt -1.902602 0.508330
vt -1.905224 0.504820
vt -1.905224 0.508330
vt -1.907447 0.504820
vt -1.907447 0.508330
vt 0.504827 0.504820
vt 0.504827 0.508330
vt 0.502607 0.504820
vt 0.502608 0.508330
vt 0.499989 0.504820
vt 0.499989 0.508330
vt 0.497371 0.504820
vt 0.497371 0.508330
vt 0.495151 0.504820
vt 0.495151 0.508330
vt 2.900833 0.512290
vt 2.900833 0.511130
vt 2.909806 0.512290
vt 2.909806 0.511130
vt 2.900833 0.509490
vt 2.909806 0.509490
vt 2.900833 0.508330
vt 2.909806 0.508330
vt 0.497846 2.909806
vt 0.496200 2.909806
vt 0.497846 2.900833
vt 0.496200 2.900833
vt -1.900833 0.508330
vt -1.900833 0.509490
vt -1.909806 0.508330
vt -1.909806 0.509490
vt -1.900833 0.511130
vt -1.909806 0.511130
vt -1.900833 0.512290
vt -1.909806 0.512290
vt 0.503800 2.900833
vt 0.503800 2.909806
vt 0.502154 2.900833
vt 0.502154 2.909806
vt 0.493896 0.512290
vt 0.493896 0.511130
vt 0.498847 0.512290
vt 0.498848 0.511130
vt 0.493896 0.509490
vt 0.498848 0.509490
vt 0.493896 0.508330
vt 0.498848 0.508330
vt 0.501152 2.907821
vt 0.501152 2.906173
vt 0.506104 2.907821
vt 0.506104 2.906173
vt 0.506104 0.508330
vt 0.506104 0.509490
vt 0.501152 0.508330
vt 0.501152 0.509490
vt 0.506104 0.511130
vt 0.501153 0.511130
vt 0.506104 0.512290
vt 0.501153 0.512290
vt 0.493896 2.906173
vt 0.498847 2.906173
vt 0.493896 2.907821
vt 0.498848 2.907821
vt 0.506332 2.905224
vt 0.506853 2.902602
vt 0.506332 2.899981
vt 0.504849 2.907447
vt 0.504849 2.897758
vt 0.502629 2.908932
vt 0.502629 2.896273
vt 0.500011 2.909454
vt 0.500011 2.895751
vt 0.497392 2.908932
vt 0.497392 2.896273
vt 0.495173 2.907447
vt 0.495173 2.897758
vt 0.493689 2.905224
vt 0.493689 2.899981
vt 0.493169 2.902602
vt 0.502154 0.512290
vt 0.502977 0.510310
vt 0.503800 0.512290
vt 0.504964 0.511130
vt 0.500990 0.511130
vt 0.504964 0.509490
vt 0.500990 0.509490
vt 0.503800 0.508330
vt 0.502154 0.508330
vt 0.495036 0.509490
vt 0.497023 0.510310
vt 0.495036 0.511130
vt 0.496200 0.512290
vt 0.496200 0.508330
vt 0.497846 0.512290
vt 0.497846 0.508330
vt 0.499010 0.511130
vt 0.499010 0.509490
vt -1.907821 0.512290
vt -1.906997 0.510310
vt -1.906173 0.512290
vt -1.905008 0.511130
vt -1.908987 0.511130
vt -1.905008 0.509490
vt -1.908987 0.509490
vt -1.906173 0.508330
vt -1.907821 0.508330
vt 2.895624 0.503510
vt 2.895624 0.500000
vt 2.898826 0.503510
vt 2.898826 0.500000
vt 2.902602 0.503510
vt 2.906379 0.503510
vt 2.906379 0.500000
vt 2.909580 0.503510
vt 2.909580 0.500000
vt 0.506979 0.500000
vt 0.506979 0.503510
vt 0.503782 0.500000
vt 0.503782 0.503510
vt 0.500011 0.500000
vt 0.500011 0.503510
vt 0.496239 0.500000
vt 0.496239 0.503510
vt 0.493042 0.500000
vt 0.493042 0.503510
vt -1.895624 0.500000
vt -1.895624 0.503510
vt -1.898826 0.500000
vt -1.898826 0.503510
vt -1.902602 0.503510
vt -1.906379 0.500000
vt -1.906379 0.503510
vt -1.909580 0.500000
vt -1.909580 0.503510
vt 0.506958 0.500000
vt 0.506958 0.503510
vt 0.503760 0.500000
vt 0.503760 0.503510
vt 0.499989 0.500000
vt 0.499989 0.503510
vt 0.496218 0.500000
vt 0.496218 0.503510
vt 0.493021 0.500000
vt 0.493021 0.503510
vt 0.511754 0.518347
vt 0.511754 0.516023
vt 0.513466 0.518347
vt 0.513466 0.516023
vt 0.511754 0.513698
vt 0.513466 0.513698
vt 0.513466 2.903468
vt 0.513466 2.905803
vt 0.511754 2.903468
vt 0.511754 2.905803
vt 0.513466 2.908139
vt 0.511754 2.908139
vt 0.486534 0.518347
vt 0.486534 0.516023
vt 0.488246 0.518347
vt 0.488246 0.516023
vt 0.486534 0.513698
vt 0.488246 0.513698
vt 0.486534 2.908139
vt 0.486534 2.905803
vt 0.488246 2.908139
vt 0.488246 2.905803
vt 0.486534 2.903468
vt 0.488246 2.903468
vt 2.902501 0.516023
vt 2.903468 0.513698
vt 2.903468 0.518347
vt 2.905803 0.519310
vt 2.905803 0.512736
vt 2.908139 0.518347
vt 2.908139 0.513698
vt 2.909106 0.516023
vt -1.903468 0.513698
vt -1.902500 0.516023
vt -1.905803 0.512736
vt -1.905803 0.519310
vt -1.903468 0.518347
vt -1.908139 0.518347
vt -1.909106 0.516023
vt -1.908139 0.513698
vt -1.924306 0.511498
vt -1.923809 0.511504
vt -1.924141 0.518174
vt -1.923975 0.524850
vt -1.924472 0.524844
vt 2.923969 0.524837
vt 2.924136 0.518163
vt 2.924470 0.524837
vt 2.924303 0.511489
vt 2.923802 0.511489
vt 0.515867 0.524849
vt 0.516015 0.518172
vt 0.516312 0.524842
vt 0.516162 0.511496
vt 0.515718 0.511503
vt 0.483837 0.524839
vt 0.483987 0.518165
vt 0.484283 0.524840
vt 0.484135 0.511492
vt 0.483691 0.511490
vt 2.923975 0.524850
vt 2.924141 0.518174
vt 2.924472 0.524844
vt 2.924306 0.511498
vt 2.923809 0.511504
vt -1.924303 0.511489
vt -1.923802 0.511489
vt -1.924136 0.518163
vt -1.923969 0.524837
vt -1.924470 0.524837
vt 0.483860 0.511496
vt 0.484304 0.511503
vt 0.484007 0.518172
vt 0.484155 0.524849
vt 0.483710 0.524842
vt 0.515843 0.511492
vt 0.516287 0.511490
vt 0.515991 0.518165
vt 0.516141 0.524839
vt 0.515695 0.524840
vt 0.516586 0.524837
vt 0.516588 0.531511
vt 0.515993 0.531513
vt 0.515399 0.531515
vt 0.515399 0.511493
vt 0.515399 0.504819
vt 0.515991 0.504817
vt 0.516583 0.504815
vt 0.484601 0.524855
vt 0.484601 0.531529
vt 0.484007 0.531520
vt 0.483412 0.531511
vt 0.483416 0.511489
vt 0.483417 0.504815
vt 0.484009 0.504824
vt 0.484601 0.504834
vt -1.923468 0.524837
vt -1.923468 0.531511
vt -1.924136 0.531511
vt -1.924804 0.531511
vt -1.924804 0.511489
vt -1.924804 0.504815
vt -1.924136 0.504815
vt -1.923468 0.504815
vt 2.924141 0.504826
vt 2.923478 0.504834
vt 2.924804 0.504819
vt 2.924804 0.511493
vt 2.924141 0.531522
vt 2.924804 0.531515
vt 2.923478 0.531529
vt 2.923478 0.524855
vt 0.483987 0.504817
vt 0.483395 0.504815
vt 0.484579 0.504819
vt 0.484579 0.511493
vt 0.483985 0.531513
vt 0.484579 0.531515
vt 0.483390 0.531511
vt 0.483392 0.524837
vt 0.516013 0.504825
vt 0.515421 0.504834
vt 0.516605 0.504815
vt 0.516606 0.511489
vt 0.516015 0.531520
vt 0.516610 0.531511
vt 0.515421 0.531529
vt 0.515421 0.524855
vt 2.924136 0.504815
vt 2.923468 0.504815
vt 2.924804 0.504815
vt 2.924804 0.511489
vt 2.924136 0.531511
vt 2.924804 0.531511
vt 2.923468 0.531511
vt 2.923468 0.524837
vt -1.923478 0.524855
vt -1.923478 0.531529
vt -1.924141 0.531522
vt -1.924804 0.531515
vt -1.924804 0.511493
vt -1.924804 0.504819
vt -1.924141 0.504826
vt -1.923478 0.504834
s 1
f 3/1/1 2/2/1 1/3/1
f 6/4/1 5/5/1 4/6/1
f 9/7/2 8/8/2 7/9/3
f 10/10/3 7/9/3 8/8/2
f 7/9/3 10/10/3 11/11/4
f 12/12/4 11/11/4 10/10/3
f 11/11/4 12/12/4 13/13/5
f 14/14/5 13/13/5 12/12/4
f 13/13/5 14/14/5 15/15/6
f 16/16/6 15/15/6 14/14/5
f 19/17/7 18/18/7 17/19/8
f 20/20/8 17/19/8 18/18/7
f 17/19/8 20/20/8 21/21/9
f 22/22/9 21/21/9 20/20/8
f 21/21/9 22/22/9 23/23/10
f 24/24/10 23/23/10 22/22/9
f 23/23/10 24/24/10 25/25/11
f 26/26/11 25/25/11 24/24/10
f 29/27/12 28/28/12 27/29/13
f 30/30/13 27/29/13 28/28/12
f 27/29/13 30/30/13 31/31/14
f 32/32/14 31/31/14 30/30/13
f 31/31/14 32/32/14 33/33/15
f 34/34/15 33/33/15 32/32/14
f 33/33/15 34/34/15 35/35/16
f 36/36/16 35/35/16 34/34/15
f 39/37/17 38/38/17 37/39/18
f 40/40/18 37/39/18 38/38/17
f 37/39/18 40/40/18 41/41/19
f 42/42/19 41/41/19 40/40/18
f 41/41/19 42/42/19 43/43/20
f 44/44/20 43/43/20 42/42/19
f 43/43/20 44/44/20 45/45/21
f 46/46/21 45/45/21 44/44/20
f 49/47/1 48/6/1 47/48/1
f 50/1/1 47/48/1 48/6/1
f 50/1/1 48/6/1 51/49/1
f 51/49/1 52/2/1 50/1/1
f 53/50/1 51/49/1 48/6/1
f 54/5/1 53/50/1 48/6/1
f 57/51/1 56/52/1 55/53/1
f 55/53/1 56/52/1 58/54/1
f 59/55/1 56/52/1 57/51/1
f 58/54/1 56/52/1 60/56/1
f 61/57/1 56/52/1 59/55/1
f 60/56/1 56/52/1 62/58/1
f 63/59/1 56/52/1 61/57/1
f 62/58/1 56/52/1 64/60/1
f 65/61/1 56/52/1 63/59/1
f 64/60/1 56/52/1 66/62/1
f 67/63/1 56/52/1 65/61/1
f 66/62/1 56/52/1 68/64/1
f 69/65/1 56/52/1 67/63/1
f 68/64/1 56/52/1 70/66/1
f 71/67/1 56/52/1 69/65/1
f 70/66/1 56/52/1 71/67/1
f 980/68/22 1083/69/23 1044/70/24
f 982/71/25 1082/72/23 1046/73/26
f 983/74/27 1081/75/28 1047/76/29
f 985/77/30 1080/78/28 1049/79/31
f 986/80/32 1079/81/33 1050/82/34
f 988/83/35 1078/84/33 1052/85/36
f 989/86/37 1053/87/38 1077/88/39
f 991/89/40 1055/90/41 1076/91/39
f 992/92/42 1056/93/26 1075/94/43
f 994/95/44 1058/96/45 1074/97/43
f 995/98/46 1059/99/47 1073/100/48
f 997/101/49 1061/102/50 1072/103/48
f 998/104/51 1062/105/38 1071/106/52
f 1000/107/53 1064/108/54 1070/109/52
f 1001/110/55 1069/111/56 1065/112/57
f 1003/113/58 1068/114/56 1067/115/36
f 106/116/59 105/117/60 104/118/61
f 104/118/61 105/117/60 107/119/62
f 108/120/63 104/118/61 107/119/62
f 109/121/64 108/120/63 107/119/62
f 108/120/63 109/121/64 110/122/65
f 111/123/66 110/122/65 109/121/64
f 114/124/1 113/125/1 112/126/1
f 115/127/1 112/126/1 113/125/1
f 112/126/1 115/127/1 116/128/1
f 117/129/1 116/128/1 115/127/1
f 116/128/1 117/129/1 118/130/1
f 119/131/1 118/130/1 117/129/1
f 121/132/1 120/133/1 119/131/1
f 122/134/1 119/131/1 120/133/1
f 120/133/1 123/135/67 122/134/1
f 124/136/68 122/134/1 123/135/67
f 123/135/67 125/137/69 124/136/68
f 126/138/70 124/136/68 125/137/69
f 125/137/69 127/139/71 126/138/70
f 128/140/71 126/138/70 127/139/71
f 130/132/1 119/131/1 129/141/72
f 130/132/1 129/141/72 131/142/1
f 132/129/73 129/141/72 119/131/1
f 133/143/1 131/142/1 129/141/72
f 129/141/72 132/129/73 134/144/74
f 135/145/74 134/144/74 132/129/73
f 137/141/1 136/146/1 133/143/1
f 138/147/1 133/143/1 136/146/1
f 136/146/1 139/148/75 138/147/1
f 140/149/68 138/147/1 139/148/75
f 139/148/75 141/150/76 140/149/68
f 142/151/70 140/149/68 141/150/76
f 141/150/76 143/152/71 142/151/70
f 144/153/71 142/151/70 143/152/71
f 147/154/77 146/155/77 145/156/77
f 148/157/77 145/156/77 146/155/77
f 151/158/77 150/159/77 149/160/77
f 152/161/77 149/160/77 150/159/77
f 155/162/78 154/163/79 153/164/80
f 154/163/79 156/165/81 153/164/80
f 159/166/82 158/167/83 157/168/84
f 159/166/82 160/169/85 158/167/83
f 163/170/86 162/171/86 161/172/86
f 164/173/86 161/172/86 162/171/86
f 167/174/87 166/175/87 165/124/87
f 168/125/87 165/124/87 166/175/87
f 166/175/71 170/174/71 169/176/71
f 171/177/71 169/176/71 170/174/71
f 174/178/88 173/179/88 172/180/88
f 175/181/88 172/180/88 173/179/88
f 177/178/89 176/182/89 173/179/89
f 178/183/89 173/179/89 176/182/89
f 178/183/19 180/182/19 179/184/19
f 181/185/19 179/184/19 180/182/19
f 181/185/19 182/186/19 179/184/19
f 183/187/19 179/184/19 182/186/19
f 185/188/19 184/187/19 182/186/19
f 184/187/19 185/188/19 186/189/19
f 187/190/19 186/189/19 185/188/19
f 188/191/19 186/189/19 187/190/19
f 190/188/19 189/192/19 187/190/19
f 191/193/19 187/190/19 189/192/19
f 189/192/19 192/194/90 191/193/19
f 193/195/90 191/193/19 192/194/90
f 192/194/90 194/196/91 193/195/90
f 195/197/91 193/195/90 194/196/91
f 194/196/91 196/198/88 195/197/91
f 197/199/88 195/197/91 196/198/88
f 186/189/19 199/191/19 198/200/19
f 200/201/19 198/200/19 199/191/19
f 198/200/19 200/201/19 201/202/90
f 202/203/90 201/202/90 200/201/19
f 202/203/90 203/204/91 201/202/90
f 204/205/92 201/202/90 203/204/91
f 203/204/91 205/206/88 204/205/92
f 206/207/88 204/205/92 205/206/88
f 209/208/93 208/209/94 207/210/93
f 210/211/95 207/210/93 208/209/94
f 208/209/94 211/212/96 210/211/95
f 212/213/97 210/211/95 211/212/96
f 207/210/98 214/214/99 213/208/93
f 215/215/100 214/214/99 207/210/98
f 215/215/101 217/210/102 216/216/103
f 218/166/104 216/216/103 217/210/102
f 218/166/104 219/217/105 216/216/103
f 220/218/106 219/217/105 218/166/104
f 221/219/107 220/218/106 218/166/104
f 222/168/108 221/219/107 218/166/104
f 225/220/9 224/155/9 223/221/9
f 226/154/9 223/221/9 224/155/9
f 229/222/9 228/223/9 227/158/9
f 230/159/9 227/158/9 228/223/9
f 233/224/109 232/225/110 231/226/111
f 234/227/112 231/226/111 232/225/110
f 231/226/111 234/227/112 235/228/113
f 236/229/114 235/228/113 234/227/112
f 235/228/113 236/229/114 237/230/115
f 238/231/116 235/228/113 237/230/115
f 235/228/113 238/231/116 239/164/117
f 240/232/118 239/164/117 238/231/116
f 241/233/119 239/164/117 240/232/118
f 242/234/120 239/164/117 241/233/119
f 243/235/121 239/164/117 242/234/120
f 244/162/122 239/164/117 243/235/121
f 247/236/9 246/237/9 245/238/9
f 248/239/9 245/238/9 246/237/9
f 251/240/123 250/241/123 249/242/124
f 252/243/125 249/242/124 250/241/123
f 249/242/124 252/243/125 253/244/126
f 254/245/127 253/244/126 252/243/125
f 253/244/126 254/245/127 255/246/128
f 256/247/129 255/246/128 254/245/127
f 255/246/128 256/247/129 257/248/130
f 258/249/131 257/248/130 256/247/129
f 257/248/130 258/249/131 259/250/132
f 260/251/133 259/250/132 258/249/131
f 259/250/132 260/251/133 261/252/134
f 262/253/134 261/252/134 260/251/133
f 265/254/135 264/255/135 263/256/136
f 266/257/136 263/256/136 264/255/135
f 263/256/136 266/257/136 267/258/137
f 268/259/138 267/258/137 266/257/136
f 267/258/137 268/259/138 269/260/139
f 270/261/140 269/260/139 268/259/138
f 273/262/141 272/263/141 271/264/142
f 274/265/143 271/264/142 272/263/141
f 271/264/142 274/265/143 275/266/144
f 276/267/145 275/266/144 274/265/143
f 275/266/144 276/267/145 277/268/146
f 278/269/147 277/268/146 276/267/145
f 277/268/146 278/269/147 279/270/148
f 280/271/149 279/270/148 278/269/147
f 279/270/148 280/271/149 281/272/150
f 282/273/151 281/272/150 280/271/149
f 281/272/150 282/273/151 283/274/152
f 284/275/152 283/274/152 282/273/151
f 287/276/153 286/277/154 285/278/155
f 288/279/156 285/278/155 286/277/154
f 285/278/155 288/279/156 289/280/157
f 290/281/158 289/280/157 288/279/156
f 289/280/157 290/281/158 291/282/159
f 292/283/159 291/282/159 290/281/158
f 295/284/160 294/285/160 293/286/160
f 296/287/160 293/286/160 294/285/160
f 299/288/161 298/289/161 297/290/161
f 297/290/161 298/289/161 300/291/161
f 303/292/162 302/293/163 301/294/162
f 304/295/164 301/294/162 302/293/163
f 302/293/163 305/296/165 304/295/164
f 306/297/166 304/295/164 305/296/165
f 305/296/165 307/298/167 306/297/166
f 308/299/168 306/297/166 307/298/167
f 307/298/167 309/300/169 308/299/168
f 310/301/170 308/299/168 309/300/169
f 309/300/169 311/302/171 310/301/170
f 312/303/172 310/301/170 311/302/171
f 311/302/171 313/304/173 312/303/172
f 314/305/173 312/303/172 313/304/173
f 317/306/19 316/307/19 315/308/174
f 318/309/174 315/308/174 316/307/19
f 315/308/174 318/309/174 319/310/175
f 320/311/175 319/310/175 318/309/174
f 319/310/175 320/311/175 321/312/176
f 322/313/176 321/312/176 320/311/175
f 325/262/141 324/263/141 323/264/142
f 326/265/143 323/264/142 324/263/141
f 323/264/142 326/265/143 327/266/144
f 328/267/145 327/266/144 326/265/143
f 327/266/144 328/267/145 329/268/146
f 330/269/147 329/268/146 328/267/145
f 329/268/146 330/269/147 331/270/148
f 332/271/149 331/270/148 330/269/147
f 331/270/148 332/271/149 333/272/150
f 334/273/151 333/272/150 332/271/149
f 333/272/150 334/273/151 335/274/152
f 336/275/152 335/274/152 334/273/151
f 339/314/177 338/315/177 337/316/178
f 340/317/178 337/316/178 338/315/177
f 337/316/178 340/317/178 341/318/179
f 342/319/179 341/318/179 340/317/178
f 341/318/179 342/319/179 343/320/1
f 344/321/1 343/320/1 342/319/179
f 347/322/180 346/323/180 345/324/180
f 348/325/180 345/324/180 346/323/180
f 351/326/9 350/327/9 349/328/9
f 352/329/9 349/328/9 350/327/9
f 355/330/181 354/331/182 353/332/181
f 356/333/183 353/332/181 354/331/182
f 354/331/182 357/334/184 356/333/183
f 358/335/185 356/333/183 357/334/184
f 357/334/184 359/336/186 358/335/185
f 360/337/187 358/335/185 359/336/186
f 359/336/186 361/338/188 360/337/187
f 362/339/189 360/337/187 361/338/188
f 361/338/188 363/340/190 362/339/189
f 364/341/191 362/339/189 363/340/190
f 363/340/190 365/342/192 364/341/191
f 366/343/192 364/341/191 365/342/192
f 369/344/193 368/345/194 367/346/193
f 370/347/194 367/346/193 368/345/194
f 368/345/194 371/348/195 370/347/194
f 372/349/196 370/347/194 371/348/195
f 371/348/195 373/350/197 372/349/196
f 374/351/198 372/349/196 373/350/197
f 377/292/162 376/293/163 375/294/162
f 378/295/164 375/294/162 376/293/163
f 376/293/163 379/296/165 378/295/164
f 380/297/166 378/295/164 379/296/165
f 379/296/165 381/298/167 380/297/166
f 382/299/168 380/297/166 381/298/167
f 381/298/167 383/300/169 382/299/168
f 384/301/170 382/299/168 383/300/169
f 383/300/169 385/302/171 384/301/170
f 386/303/172 384/301/170 385/302/171
f 385/302/171 387/304/173 386/303/172
f 388/305/173 386/303/172 387/304/173
f 391/352/199 390/353/200 389/354/201
f 392/355/202 389/354/201 390/353/200
f 390/353/200 393/356/203 392/355/202
f 394/357/204 392/355/202 393/356/203
f 393/356/203 395/358/205 394/357/204
f 396/359/205 394/357/204 395/358/205
f 399/360/206 398/361/206 397/362/206
f 400/363/206 397/362/206 398/361/206
f 403/364/207 402/365/207 401/366/207
f 403/364/207 401/366/207 404/367/207
f 407/368/208 406/236/208 405/369/208
f 408/238/208 405/369/208 406/236/208
f 411/370/209 410/239/209 409/371/209
f 412/237/209 409/371/209 410/239/209
f 415/372/19 414/373/19 413/374/19
f 418/375/9 417/376/9 416/377/9
f 421/378/9 420/379/9 419/380/9
f 424/381/19 423/382/19 422/383/19
f 427/384/210 426/385/211 425/386/210
f 428/387/211 425/386/210 426/385/211
f 431/388/212 430/389/213 429/390/214
f 432/391/215 429/390/214 430/389/213
f 430/389/213 433/392/216 432/391/215
f 434/393/217 432/391/215 433/392/216
f 437/394/218 436/395/219 435/396/218
f 438/397/220 435/396/218 436/395/219
f 441/398/221 440/399/222 439/400/221
f 442/401/222 439/400/221 440/399/222
f 445/402/4 444/403/4 443/404/4
f 446/405/4 443/404/4 444/403/4
f 444/403/4 447/392/4 446/405/4
f 448/406/4 446/405/4 447/392/4
f 451/407/223 450/408/223 449/409/223
f 452/410/223 449/409/223 450/408/223
f 455/411/9 454/412/9 453/413/9
f 456/414/9 453/413/9 454/412/9
f 459/415/14 458/416/224 457/417/225
f 460/418/226 457/417/225 458/416/224
f 460/418/226 461/419/227 457/417/225
f 462/420/228 457/417/225 461/419/227
f 465/421/9 464/422/9 463/423/9
f 466/424/9 463/423/9 464/422/9
f 469/425/229 468/426/230 467/427/231
f 470/428/232 467/427/231 468/426/230
f 470/428/232 471/429/233 467/427/231
f 472/420/234 467/427/231 471/429/233
f 475/430/235 474/411/236 473/431/235
f 476/413/236 473/431/235 474/411/236
f 479/432/236 478/433/237 477/434/236
f 480/435/237 477/434/236 478/433/237
f 483/436/238 482/437/238 481/438/238
f 484/439/238 481/438/238 482/437/238
f 487/440/239 486/441/239 485/442/239
f 488/443/239 485/442/239 486/441/239
f 491/444/9 490/445/9 489/446/9
f 492/447/9 489/446/9 490/445/9
f 495/448/240 494/449/241 493/450/240
f 496/451/241 493/450/240 494/449/241
f 499/452/242 498/453/242 497/454/242
f 500/455/242 497/454/242 498/453/242
f 503/456/9 502/457/9 501/458/9
f 504/459/9 501/458/9 502/457/9
f 507/460/240 506/461/241 505/462/240
f 508/463/241 505/462/240 506/461/241
f 511/464/242 510/465/242 509/466/242
f 512/467/242 509/466/242 510/465/242
f 515/468/243 514/469/243 513/470/243
f 516/471/243 513/470/243 514/469/243
f 519/402/4 518/403/4 517/404/4
f 520/405/4 517/404/4 518/403/4
f 518/403/4 521/472/4 520/405/4
f 522/473/4 520/405/4 521/472/4
f 525/474/223 524/475/223 523/476/223
f 526/477/223 523/476/223 524/475/223
f 529/478/9 528/479/9 527/480/9
f 530/481/9 527/480/9 528/479/9
f 533/425/230 532/426/244 531/427/245
f 534/428/246 531/427/245 532/426/244
f 534/428/246 535/482/233 531/427/245
f 536/483/234 531/427/245 535/482/233
f 539/484/247 538/478/248 537/485/247
f 540/486/249 537/485/247 538/478/248
f 543/487/239 542/488/239 541/489/239
f 544/490/239 541/489/239 542/488/239
f 547/491/250 546/492/250 545/493/250
f 548/494/250 545/493/250 546/492/250
f 551/495/251 550/496/251 549/497/251
f 552/498/251 549/497/251 550/496/251
f 555/499/9 554/500/9 553/501/9
f 556/502/9 553/501/9 554/500/9
f 553/501/9 556/502/9 557/503/9
f 558/504/9 557/503/9 556/502/9
f 559/505/9 557/503/9 558/504/9
f 558/504/9 560/506/9 559/505/9
f 561/507/9 559/505/9 560/506/9
f 562/508/9 561/507/9 560/506/9
f 564/507/9 563/509/9 559/505/9
f 565/510/9 559/505/9 563/509/9
f 563/509/9 566/511/252 565/510/9
f 567/512/252 565/510/9 566/511/252
f 566/511/252 568/513/253 567/512/252
f 569/514/253 567/512/252 568/513/253
f 568/513/253 570/515/254 569/514/253
f 571/516/254 569/514/253 570/515/254
f 573/506/9 572/517/9 562/508/9
f 574/518/9 562/508/9 572/517/9
f 572/517/9 575/519/252 574/518/9
f 576/520/252 574/518/9 575/519/252
f 575/519/252 577/521/253 576/520/252
f 578/522/253 576/520/252 577/521/253
f 577/521/253 579/523/254 578/522/253
f 580/524/254 578/522/253 579/523/254
f 583/525/180 582/526/180 581/527/180
f 584/528/180 582/526/180 583/525/180
f 584/528/180 583/525/180 585/529/180
f 586/530/180 585/529/180 583/525/180
f 582/526/180 588/531/180 587/527/180
f 589/532/180 587/527/180 588/531/180
f 589/532/180 590/533/180 587/527/180
f 591/534/180 587/527/180 590/533/180
f 590/533/180 592/535/180 591/534/180
f 593/536/180 591/534/180 592/535/180
f 587/527/255 595/534/255 594/537/255
f 596/538/255 594/537/255 595/534/255
f 598/532/180 597/539/180 590/533/180
f 599/540/180 590/533/180 597/539/180
f 597/539/180 600/541/256 599/540/180
f 601/542/257 599/540/180 600/541/256
f 600/541/256 602/543/258 601/542/257
f 603/544/259 601/542/257 602/543/258
f 602/543/258 604/545/260 603/544/259
f 605/546/260 603/544/259 604/545/260
f 607/547/180 591/534/180 606/536/180
f 608/548/180 607/547/180 606/536/180
f 607/547/180 608/548/180 609/549/261
f 610/550/256 609/549/261 608/548/180
f 610/550/256 611/551/258 609/549/261
f 612/552/262 609/549/261 611/551/258
f 611/551/258 613/553/260 612/552/262
f 614/554/260 612/552/262 613/553/260
f 617/555/263 616/166/264 615/556/265
f 618/557/266 616/166/264 617/555/263
f 619/558/267 616/166/264 618/557/266
f 620/559/268 616/166/264 619/558/267
f 616/166/264 620/559/268 621/210/269
f 622/560/270 621/210/269 620/559/268
f 623/561/271 621/210/269 622/560/270
f 624/562/272 621/210/269 623/561/271
f 624/562/272 625/563/273 621/210/269
f 626/211/273 621/210/269 625/563/273
f 629/226/274 628/564/275 627/228/276
f 630/565/277 627/228/276 628/564/275
f 631/566/278 627/228/276 630/565/277
f 632/567/279 627/228/276 631/566/278
f 632/567/279 633/568/280 627/228/276
f 634/164/281 627/228/276 633/568/280
f 635/569/282 634/164/281 633/568/280
f 636/570/283 634/164/281 635/569/282
f 637/571/284 634/164/281 636/570/283
f 638/572/285 634/164/281 637/571/284
f 641/572/286 640/573/287 639/164/288
f 640/573/287 642/574/289 639/164/288
f 645/166/290 644/575/291 643/556/292
f 645/166/290 646/576/293 644/575/291
f 649/577/294 648/578/294 647/579/294
f 650/580/294 647/579/294 648/578/294
f 653/500/295 652/499/295 651/581/296
f 654/582/297 651/581/296 652/499/295
f 651/581/296 654/582/297 655/583/254
f 656/584/254 655/583/254 654/582/297
f 659/585/260 658/586/260 657/587/298
f 660/588/259 657/587/298 658/586/260
f 660/588/259 585/529/299 657/587/298
f 661/530/299 657/587/298 585/529/299
f 664/589/1 663/590/1 662/591/1
f 665/592/1 662/591/1 663/590/1
f 668/593/300 667/214/301 666/594/302
f 669/595/303 666/594/302 667/214/301
f 666/594/304 669/595/305 670/596/306
f 671/208/307 670/596/306 669/595/305
f 667/214/308 673/593/309 672/215/310
f 674/597/311 672/215/310 673/593/309
f 672/215/310 674/597/311 675/216/312
f 676/598/312 675/216/312 674/597/311
f 675/216/312 676/598/312 677/599/313
f 678/600/313 677/599/313 676/598/312
f 677/599/313 678/600/313 679/218/314
f 680/601/315 679/218/314 678/600/313
f 682/218/316 680/601/316 681/602/317
f 683/603/317 681/602/317 680/601/316
f 686/234/318 685/604/319 684/605/320
f 687/606/320 684/605/320 685/604/319
f 684/605/320 687/606/320 688/232/321
f 689/607/322 688/232/321 687/606/320
f 688/232/321 689/607/322 690/608/323
f 691/609/324 690/608/323 689/607/322
f 690/608/323 691/609/324 692/230/325
f 693/610/326 692/230/325 691/609/324
f 685/604/327 695/234/327 694/611/328
f 696/612/328 694/611/328 695/234/327
f 694/611/329 696/612/330 697/613/330
f 698/614/331 697/613/330 696/612/330
f 692/230/332 700/610/333 699/615/334
f 701/616/335 699/615/334 700/610/333
f 699/615/336 701/616/337 702/229/338
f 703/617/339 702/229/338 701/616/337
f 706/618/340 705/619/340 704/620/341
f 707/621/342 704/620/341 705/619/340
f 707/621/343 708/622/343 704/620/343
f 709/623/343 704/620/343 708/622/343
f 708/622/343 710/624/343 709/623/343
f 711/625/343 709/623/343 710/624/343
f 714/626/180 713/627/180 712/628/180
f 712/628/180 715/629/180 714/626/180
f 716/630/180 714/626/180 715/629/180
f 717/631/180 716/630/180 715/629/180
f 720/632/1 719/633/1 718/634/1
f 721/635/1 718/634/1 719/633/1
f 724/593/300 723/214/301 722/594/302
f 725/595/303 722/594/302 723/214/301
f 722/594/304 725/595/305 726/596/306
f 727/208/307 726/596/306 725/595/305
f 723/214/308 729/593/309 728/636/310
f 730/597/311 728/636/310 729/593/309
f 728/636/310 730/597/311 731/216/312
f 732/598/312 731/216/312 730/597/311
f 731/216/312 732/598/312 733/637/313
f 734/600/313 733/637/313 732/598/312
f 733/637/313 734/600/313 735/218/314
f 736/638/315 735/218/314 734/600/313
f 738/218/316 736/638/316 737/602/317
f 739/603/317 737/602/317 736/638/316
f 742/234/318 741/639/319 740/605/320
f 743/606/320 740/605/320 741/639/319
f 740/605/320 743/606/320 744/232/321
f 745/607/322 744/232/321 743/606/320
f 744/232/321 745/607/322 746/608/323
f 747/609/324 746/608/323 745/607/322
f 746/608/323 747/609/324 748/230/325
f 749/610/326 748/230/325 747/609/324
f 741/639/327 751/234/327 750/611/328
f 752/612/328 750/611/328 751/234/327
f 750/611/329 752/612/330 753/613/330
f 754/614/331 753/613/330 752/612/330
f 748/230/332 756/610/333 755/640/334
f 757/641/335 755/640/334 756/610/333
f 755/640/336 757/641/337 758/229/338
f 759/617/339 758/229/338 757/641/337
f 762/642/340 761/643/340 760/644/341
f 763/645/342 760/644/341 761/643/340
f 763/645/343 764/646/343 760/644/343
f 765/647/343 760/644/343 764/646/343
f 764/646/343 766/648/343 765/647/343
f 767/649/343 765/647/343 766/648/343
f 770/650/6 769/651/6 768/652/5
f 771/653/5 768/652/5 769/651/6
f 768/652/5 771/653/5 772/654/4
f 773/655/4 772/654/4 771/653/5
f 772/654/4 773/655/4 774/656/3
f 775/657/3 774/656/3 773/655/4
f 774/656/3 775/657/3 776/658/2
f 777/659/2 776/658/2 775/657/3
f 780/660/21 779/661/21 778/662/20
f 781/663/20 778/662/20 779/661/21
f 778/662/20 781/663/20 782/664/19
f 783/665/19 782/664/19 781/663/20
f 782/664/19 783/665/19 784/666/18
f 785/667/18 784/666/18 783/665/19
f 784/666/18 785/667/18 786/668/17
f 787/669/17 786/668/17 785/667/18
f 790/670/16 789/671/16 788/672/15
f 791/673/15 788/672/15 789/671/16
f 788/672/15 791/673/15 792/674/14
f 793/675/14 792/674/14 791/673/15
f 792/674/14 793/675/14 794/676/13
f 795/677/13 794/676/13 793/675/14
f 794/676/13 795/677/13 796/678/12
f 797/679/12 796/678/12 795/677/13
f 800/680/11 799/681/11 798/682/10
f 801/683/10 798/682/10 799/681/11
f 798/682/10 801/683/10 802/684/9
f 803/685/9 802/684/9 801/683/10
f 802/684/9 803/685/9 804/686/8
f 805/687/8 804/686/8 803/685/9
f 804/686/8 805/687/8 806/688/7
f 807/689/7 806/688/7 805/687/8
f 810/690/344 809/691/344 808/692/344
f 811/693/344 808/692/344 809/691/344
f 809/691/4 812/694/4 811/693/4
f 813/695/4 811/693/4 812/694/4
f 812/694/345 814/696/345 813/695/345
f 815/697/345 813/695/345 814/696/345
f 818/698/180 817/699/180 816/700/180
f 819/701/180 816/700/180 817/699/180
f 822/702/346 821/703/346 820/704/346
f 823/705/346 820/704/346 821/703/346
f 821/703/14 824/706/14 823/705/14
f 825/707/14 823/705/14 824/706/14
f 824/706/347 826/708/347 825/707/347
f 827/709/347 825/707/347 826/708/347
f 830/710/1 829/711/1 828/712/1
f 831/713/1 828/712/1 829/711/1
f 834/714/348 833/715/348 832/716/348
f 835/717/348 832/716/348 833/715/348
f 833/715/19 836/718/19 835/717/19
f 837/719/19 835/717/19 836/718/19
f 836/718/349 838/720/349 837/719/349
f 839/721/349 837/719/349 838/720/349
f 842/722/180 841/723/180 840/724/180
f 843/725/180 840/724/180 841/723/180
f 846/726/350 845/727/350 844/728/350
f 847/729/350 844/728/350 845/727/350
f 845/727/9 848/730/9 847/729/9
f 849/731/9 847/729/9 848/730/9
f 848/730/351 850/732/351 849/731/351
f 851/733/351 849/731/351 850/732/351
f 854/734/1 853/735/1 852/736/1
f 855/737/1 852/736/1 853/735/1
f 858/738/1 857/52/1 856/739/1
f 856/739/1 857/52/1 859/740/1
f 860/741/1 857/52/1 858/738/1
f 859/740/1 857/52/1 861/742/1
f 862/743/1 857/52/1 860/741/1
f 861/742/1 857/52/1 863/744/1
f 864/745/1 857/52/1 862/743/1
f 863/744/1 857/52/1 865/746/1
f 866/747/1 857/52/1 864/745/1
f 865/746/1 857/52/1 867/748/1
f 868/749/1 857/52/1 866/747/1
f 867/748/1 857/52/1 869/750/1
f 870/751/1 857/52/1 868/749/1
f 869/750/1 857/52/1 871/752/1
f 872/753/1 857/52/1 870/751/1
f 871/752/1 857/52/1 872/753/1
f 875/754/19 874/755/19 873/756/19
f 873/756/19 874/755/19 876/757/19
f 877/758/19 874/755/19 875/754/19
f 876/757/19 874/755/19 878/759/19
f 879/760/19 874/755/19 877/758/19
f 878/759/19 874/755/19 880/761/19
f 881/762/19 874/755/19 879/760/19
f 880/761/19 874/755/19 881/762/19
f 884/763/9 883/764/9 882/765/9
f 882/765/9 883/764/9 885/766/9
f 886/767/9 883/764/9 884/763/9
f 885/766/9 883/764/9 887/768/9
f 888/769/9 883/764/9 886/767/9
f 887/768/9 883/764/9 889/770/9
f 890/771/9 883/764/9 888/769/9
f 889/770/9 883/764/9 890/771/9
f 893/772/14 892/773/14 891/774/14
f 891/774/14 892/773/14 894/775/14
f 895/776/14 892/773/14 893/772/14
f 894/775/14 892/773/14 896/777/14
f 897/778/14 892/773/14 895/776/14
f 896/777/14 892/773/14 898/779/14
f 899/780/14 892/773/14 897/778/14
f 898/779/14 892/773/14 899/780/14
f 902/781/352 901/782/352 900/783/352
f 903/784/352 900/783/352 901/782/352
f 900/783/353 903/784/353 904/785/353
f 905/11/353 904/785/353 903/784/353
f 904/785/354 905/11/354 906/786/354
f 907/787/354 906/786/354 905/11/354
f 906/786/355 907/787/355 908/788/355
f 909/789/355 908/788/355 907/787/355
f 912/790/356 911/791/356 910/792/357
f 913/793/358 910/792/357 911/791/356
f 910/792/357 913/793/358 914/794/359
f 915/795/359 914/794/359 913/793/358
f 914/794/359 915/795/359 916/796/360
f 917/797/361 916/796/360 915/795/359
f 916/796/360 917/797/361 918/798/362
f 919/799/362 918/798/362 917/797/361
f 922/800/363 921/801/363 920/802/363
f 923/803/363 920/802/363 921/801/363
f 920/802/364 923/803/364 924/32/364
f 925/804/364 924/32/364 923/803/364
f 924/32/365 925/804/365 926/805/365
f 927/806/365 926/805/365 925/804/365
f 926/805/366 927/806/366 928/807/366
f 929/808/366 928/807/366 927/806/366
f 932/809/367 931/810/367 930/811/368
f 933/812/369 930/811/368 931/810/367
f 930/811/368 933/812/369 934/813/370
f 935/814/370 934/813/370 933/812/369
f 934/813/370 935/814/370 936/815/371
f 937/816/372 936/815/371 935/814/370
f 936/815/371 937/816/372 938/817/373
f 939/818/373 938/817/373 937/816/372
f 942/819/374 941/820/374 940/821/374
f 943/822/374 940/821/374 941/820/374
f 941/820/375 944/823/375 943/822/375
f 945/824/375 943/822/375 944/823/375
f 948/825/376 947/826/376 946/827/376
f 949/828/377 946/827/376 947/826/376
f 947/826/378 950/829/378 949/828/378
f 951/830/378 949/828/378 950/829/378
f 954/831/379 953/832/379 952/833/379
f 955/834/379 952/833/379 953/832/379
f 953/832/380 956/835/380 955/834/380
f 957/836/380 955/834/380 956/835/380
f 960/837/381 959/838/381 958/839/381
f 961/840/382 958/839/381 959/838/381
f 959/838/383 962/841/383 961/840/383
f 963/842/383 961/840/383 962/841/383
f 966/843/4 965/844/4 964/845/4
f 964/845/4 965/844/4 967/846/4
f 968/847/4 967/846/4 965/844/4
f 967/846/4 968/847/4 969/848/4
f 970/849/4 969/848/4 968/847/4
f 970/849/4 971/850/4 969/848/4
f 974/851/14 973/852/14 972/853/14
f 972/853/14 973/852/14 975/854/14
f 975/854/14 973/852/14 976/855/14
f 977/856/14 972/853/14 975/854/14
f 978/857/14 972/853/14 977/856/14
f 979/858/14 972/853/14 978/857/14
f 1099/859/384 1066/860/384 1002/861/56 1068/114/56
f 1098/862/36 1041/863/36 1002/861/56 1069/111/56
f 1097/864/38 1070/109/52 999/865/52 1036/866/38
f 1096/867/385 1071/106/52 999/865/52 1063/868/385
f 1095/869/47 1072/103/48 996/870/48 1031/871/47
f 1094/872/386 1073/100/48 996/870/48 1060/873/386
f 1093/874/26 1074/97/43 993/875/43 1026/876/26
f 1092/877/387 1075/94/43 993/875/43 1057/878/387
f 1091/879/38 1076/91/39 990/880/39 1021/881/38
f 1090/882/39 1077/88/39 990/880/39 1054/883/39
f 1089/884/388 1051/885/388 987/886/33 1078/84/33
f 1088/887/36 1016/888/36 987/886/33 1079/81/33
f 1087/889/389 1048/890/389 984/891/28 1080/78/28
f 1086/892/31 1011/893/31 984/891/28 1081/75/28
f 1085/894/390 1045/895/391 981/896/23 1082/72/23
f 1084/897/26 1006/898/26 981/896/23 1083/69/23
f 1004/899/26 1084/897/26 1083/69/23 980/68/22
f 74/900/392 1005/901/392 1084/897/26 1004/899/26
f 1005/901/392 73/902/392 1006/898/26 1084/897/26
f 1007/903/393 1085/894/390 1082/72/23 982/71/25
f 75/904/394 1008/905/394 1085/894/390 1007/903/393
f 1008/905/394 72/906/394 1045/895/391 1085/894/390
f 1009/907/395 1086/892/31 1081/75/28 983/74/27
f 78/908/396 1010/909/396 1086/892/31 1009/907/395
f 1010/909/396 77/910/396 1011/893/31 1086/892/31
f 1012/911/397 1087/889/389 1080/78/28 985/77/30
f 79/912/398 1013/913/398 1087/889/389 1012/911/397
f 1013/913/398 76/914/398 1048/890/389 1087/889/389
f 1014/915/36 1088/887/36 1079/81/33 986/80/32
f 82/916/36 1015/917/36 1088/887/36 1014/915/36
f 1015/917/36 81/918/36 1016/888/36 1088/887/36
f 1017/919/399 1089/884/388 1078/84/33 988/83/35
f 83/920/400 1018/921/400 1089/884/388 1017/919/399
f 1018/921/400 80/922/400 1051/885/388 1089/884/388
f 1019/923/401 1090/882/39 1054/883/39 84/924/401
f 86/925/401 1020/926/402 1090/882/39 1019/923/401
f 1020/926/402 989/86/37 1077/88/39 1090/882/39
f 1022/927/38 1091/879/38 1021/881/38 85/928/38
f 87/929/38 1023/930/38 1091/879/38 1022/927/38
f 1023/930/38 991/89/40 1076/91/39 1091/879/38
f 1024/931/394 1092/877/387 1057/878/387 88/932/394
f 90/933/394 1025/934/403 1092/877/387 1024/931/394
f 1025/934/403 992/92/42 1075/94/43 1092/877/387
f 1027/935/392 1093/874/26 1026/876/26 89/936/392
f 91/937/392 1028/938/26 1093/874/26 1027/935/392
f 1028/938/26 994/95/44 1074/97/43 1093/874/26
f 1029/939/404 1094/872/386 1060/873/386 92/940/404
f 94/941/404 1030/942/405 1094/872/386 1029/939/404
f 1030/942/405 995/98/46 1073/100/48 1094/872/386
f 1032/943/406 1095/869/47 1031/871/47 93/944/406
f 95/945/406 1033/946/407 1095/869/47 1032/943/406
f 1033/946/407 997/101/49 1072/103/48 1095/869/47
f 1034/947/401 1096/867/385 1063/868/385 96/948/401
f 98/949/401 1035/950/408 1096/867/385 1034/947/401
f 1035/950/408 998/104/51 1071/106/52 1096/867/385
f 1037/951/38 1097/864/38 1036/866/38 97/952/38
f 99/953/38 1038/954/38 1097/864/38 1037/951/38
f 1038/954/38 1000/107/53 1070/109/52 1097/864/38
f 1039/955/36 1098/862/36 1069/111/56 1001/110/55
f 102/956/36 1040/957/36 1098/862/36 1039/955/36
f 1040/957/36 101/958/36 1041/863/36 1098/862/36
f 1042/959/409 1099/859/384 1068/114/56 1003/113/58
f 103/960/400 1043/961/400 1099/859/384 1042/959/409
f 1043/961/400 100/962/400 1066/860/384 1099/859/384
f 1067/115/36 1041/863/36 101/958/36
f 1067/115/36 1068/114/56 1041/863/36
f 1068/114/56 1002/861/56 1041/863/36
f 1065/112/57 1066/860/384 100/962/400
f 1065/112/57 1069/111/56 1066/860/384
f 1069/111/56 1002/861/56 1066/860/384
f 1070/109/52 1063/868/385 999/865/52
f 1070/109/52 1064/108/54 1063/868/385
f 1064/108/54 96/948/401 1063/868/385
f 1071/106/52 1036/866/38 999/865/52
f 1071/106/52 1062/105/38 1036/866/38
f 1062/105/38 97/952/38 1036/866/38
f 1072/103/48 1060/873/386 996/870/48
f 1072/103/48 1061/102/50 1060/873/386
f 1061/102/50 92/940/404 1060/873/386
f 1073/100/48 1031/871/47 996/870/48
f 1073/100/48 1059/99/47 1031/871/47
f 1059/99/47 93/944/406 1031/871/47
f 1074/97/43 1057/878/387 993/875/43
f 1074/97/43 1058/96/45 1057/878/387
f 1058/96/45 88/932/394 1057/878/387
f 1075/94/43 1026/876/26 993/875/43
f 1075/94/43 1056/93/26 1026/876/26
f 1056/93/26 89/936/392 1026/876/26
f 1076/91/39 1054/883/39 990/880/39
f 1076/91/39 1055/90/41 1054/883/39
f 1055/90/41 84/924/401 1054/883/39
f 1077/88/39 1021/881/38 990/880/39
f 1077/88/39 1053/87/38 1021/881/38
f 1053/87/38 85/928/38 1021/881/38
f 1052/85/36 1016/888/36 81/918/36
f 1052/85/36 1078/84/33 1016/888/36
f 1078/84/33 987/886/33 1016/888/36
f 1050/82/34 1051/885/388 80/922/400
f 1050/82/34 1079/81/33 1051/885/388
f 1079/81/33 987/886/33 1051/885/388
f 1049/79/31 1011/893/31 77/910/396
f 1049/79/31 1080/78/28 1011/893/31
f 1080/78/28 984/891/28 1011/893/31
f 1047/76/29 1048/890/389 76/914/398
f 1047/76/29 1081/75/28 1048/890/389
f 1081/75/28 984/891/28 1048/890/389
f 1046/73/26 1006/898/26 73/902/392
f 1046/73/26 1082/72/23 1006/898/26
f 1082/72/23 981/896/23 1006/898/26
f 1044/70/24 1045/895/391 72/906/394
f 1044/70/24 1083/69/23 1045/895/391
f 1083/69/23 981/896/23 1045/895/391
