# Blender 4.5.3 LTS
# www.blender.org
mtllib QE_pancake_133_mount_001.mtl
o QE_pancake_133_mount_001
v 1.866930 0.345847 -2.569609
v 2.569609 1.162034 -1.866930
v 1.866930 1.162034 -2.569609
v 2.569609 0.345847 -1.866930
v 3.020757 1.162034 -0.981503
v 3.020757 0.345847 -0.981503
v 3.176212 0.345847 0.000000
v 3.176212 1.162034 0.000000
v 3.020758 1.156420 0.981499
v 3.020758 0.345847 0.981499
v 2.569612 0.787360 1.866927
v 2.569612 0.345847 1.866927
v 1.866934 0.787360 2.569607
v 1.866934 0.345847 2.569607
v 1.866930 1.162034 -2.569609
v 1.866930 0.345847 -2.569609
v -1.866930 1.162034 -2.569609
v -1.866930 0.345847 -2.569609
v 1.866934 0.345847 2.569607
v 0.981507 0.787360 3.020756
v 1.866934 0.787360 2.569607
v 0.981507 0.345847 3.020756
v 0.000000 0.787360 3.176212
v 0.000000 0.345847 3.176212
v -0.981507 0.345847 3.020756
v -0.981507 0.787360 3.020756
v -1.866934 0.345847 2.569607
v -1.866934 0.787360 2.569607
v 3.020757 1.162034 -0.981503
v 2.569609 1.162034 -1.866930
v 3.176212 1.162034 0.000000
v 2.569609 1.162034 -1.866930
v 1.866930 1.162034 -2.569609
v 1.866930 1.162034 -2.569609
v -1.866930 1.162034 -2.569609
v -2.569609 1.162034 -1.866930
v -1.866930 0.345847 -2.569609
v -1.866930 1.162034 -2.569609
v -2.569609 0.345847 -1.866930
v -3.020757 1.162034 -0.981503
v -3.020757 0.345847 -0.981503
v -3.176212 0.345847 0.000000
v -3.176212 1.162034 0.000000
v -3.020758 1.156420 0.981499
v -3.020758 0.345847 0.981499
v -2.569612 0.787360 1.866927
v -2.569612 0.345847 1.866927
v -1.866934 0.787360 2.569607
v -1.866934 0.345847 2.569607
v -3.020757 1.162034 -0.981503
v -2.569609 1.162034 -1.866930
v -3.176212 1.162034 0.000000
v -2.569609 1.162034 -1.866930
v -1.866930 1.162034 -2.569609
v 2.569612 0.787360 1.866927
v 3.020758 1.156420 0.981499
v 1.866934 0.787360 2.569607
v 0.981507 0.787360 3.020756
v 0.000000 0.787360 3.176212
v -0.981507 0.787360 3.020756
v -1.866934 0.787360 2.569607
v -2.569612 0.787360 1.866927
v -3.020758 1.156420 0.981499
v 2.485626 0.345847 1.805908
v 1.805914 0.787360 2.485621
v 1.805914 0.345847 2.485621
v 2.485626 0.787360 1.805907
v 2.922026 0.345847 0.949420
v 2.922026 1.156420 0.949419
v 3.072399 0.345847 0.000000
v 3.072399 1.145191 0.000000
v 2.922025 0.345847 -0.949423
v 2.922025 1.145191 -0.949423
v 2.485623 0.345847 -1.805910
v 2.485623 1.145191 -1.805911
v 1.805911 0.345847 -2.485623
v 1.805911 1.145191 -2.485623
v 0.949427 0.787360 2.922024
v 1.805914 0.345847 2.485621
v 1.805914 0.787360 2.485621
v 0.949427 0.345847 2.922024
v -0.000000 0.787360 3.072399
v -0.000000 0.345847 3.072399
v -0.949427 0.787360 2.922024
v -0.949427 0.345847 2.922024
v -1.805914 0.787360 2.485621
v -1.805914 0.345847 2.485621
v -2.485626 0.787360 1.805907
v -1.805914 0.345847 2.485621
v -1.805914 0.787360 2.485621
v -2.485626 0.345847 1.805908
v -2.922026 1.156420 0.949419
v -2.922026 0.345847 0.949420
v -3.072399 1.145191 0.000000
v -3.072399 0.345847 0.000000
v -2.922025 1.145191 -0.949423
v -2.922025 0.345847 -0.949423
v -2.485623 1.145191 -1.805911
v -2.485623 0.345847 -1.805910
v -1.805911 1.145191 -2.485623
v -1.805911 0.345847 -2.485623
v -1.805911 0.345847 -2.485623
v -1.805911 1.145191 -2.485623
v 1.805911 1.145191 -2.485623
v 1.805911 0.345847 -2.485623
vn 0.7071 -0.0000 -0.7071
vn 0.8090 -0.0000 -0.5878
vn 0.9511 -0.0000 -0.3090
vn 1.0000 -0.0000 -0.0000
vn 1.0000 -0.0000 -0.0003
vn 0.9582 -0.0000 0.2860
vn 0.9511 -0.0000 0.3090
vn 0.8196 -0.0000 0.5729
vn 0.8090 -0.0000 0.5878
vn 0.7071 -0.0000 0.7071
vn 0.4540 -0.0000 0.8910
vn 0.3090 -0.0000 0.9511
vn -0.0000 -0.0000 1.0000
vn -0.3090 -0.0000 0.9511
vn -0.4540 -0.0000 0.8910
vn -0.7071 -0.0000 -0.7071
vn -0.8090 -0.0000 -0.5878
vn -0.9511 -0.0000 -0.3090
vn -1.0000 -0.0000 -0.0000
vn -1.0000 -0.0000 -0.0003
vn -0.9582 -0.0000 0.2860
vn -0.9511 -0.0000 0.3090
vn -0.8196 -0.0000 0.5729
vn -0.8090 -0.0000 0.5878
vn -0.7071 -0.0000 0.7071
vn -0.8199 -0.0000 -0.5725
vn -0.9582 -0.0000 -0.2861
vn -1.0000 -0.0000 -0.0007
vn -0.4540 -0.0000 -0.8910
vn -0.3090 -0.0000 -0.9511
vn -0.0000 -0.0000 -1.0000
vn 0.3090 -0.0000 -0.9511
vn 0.4540 -0.0000 -0.8910
vn 0.8199 -0.0000 -0.5725
vn 0.9582 -0.0000 -0.2862
vn 1.0000 -0.0000 -0.0007
vn -0.1604 0.9355 0.3147
vn -0.0802 0.9843 0.1575
vn -0.0849 0.9824 0.1666
vn -0.0804 0.9966 -0.0156
vn -0.1601 0.9868 0.0254
vn -0.1444 0.9868 0.0736
vn -0.1146 0.9868 0.1146
vn -0.1146 -0.9868 -0.1146
vn -0.1296 -0.9871 -0.0941
vn -0.1444 -0.9868 -0.0736
vn 0.1601 0.9868 0.0254
vn 0.0804 0.9966 -0.0156
vn 0.1604 0.9355 0.3147
vn 0.0806 0.9841 0.1581
vn 0.0802 0.9843 0.1575
vn -0.0000 1.0000 -0.0000
vn -0.0000 -1.0000 -0.0000
vt 1.716166 0.545808
vt 1.707101 0.545808
vt 1.716166 0.505241
vt 1.707101 0.505241
vt 1.695679 0.545808
vt 1.695679 0.505241
vt 1.683017 0.505241
vt 1.683017 0.545808
vt 1.670355 0.511931
vt 1.670355 0.505241
vt 1.658932 0.511931
vt 1.658932 0.505241
vt 1.649867 0.511931
vt 1.649867 0.505241
vt 0.524170 0.511931
vt 0.512708 0.511931
vt 0.524170 0.505241
vt 0.512708 0.505241
vt 0.500002 0.511931
vt 0.500002 0.505241
vt 0.487296 0.505241
vt 0.487296 0.511931
vt 0.475834 0.505241
vt 0.475834 0.511931
vt -0.716166 0.545808
vt -0.716166 0.505241
vt -0.707101 0.545808
vt -0.707101 0.505241
vt -0.695679 0.545808
vt -0.695679 0.505241
vt -0.683017 0.505241
vt -0.683017 0.545808
vt -0.670355 0.511931
vt -0.670355 0.505241
vt -0.658932 0.511931
vt -0.658932 0.505241
vt -0.649867 0.511931
vt -0.649867 0.505241
vt 1.656617 0.505241
vt 1.656617 0.500000
vt 1.663836 0.505241
vt 1.663836 0.500000
vt 1.672933 0.505241
vt 1.672933 0.500000
vt 1.683017 0.500000
vt 1.693101 0.505241
vt 1.693101 0.500000
vt 1.702198 0.505241
vt 1.702198 0.500000
vt 1.709417 0.505241
vt 1.709417 0.500000
vt 0.519249 0.500000
vt 0.519249 0.505241
vt 0.510121 0.500000
vt 0.510121 0.505241
vt 0.500002 0.500000
vt 0.500002 0.505241
vt 0.489883 0.500000
vt 0.489883 0.505241
vt 0.480755 0.500000
vt 0.480755 0.505241
vt -0.656617 0.500000
vt -0.656617 0.505241
vt -0.663836 0.500000
vt -0.663836 0.505241
vt -0.672933 0.500000
vt -0.672933 0.505241
vt -0.683017 0.500000
vt -0.693101 0.500000
vt -0.693101 0.505241
vt -0.702198 0.500000
vt -0.702198 0.505241
vt -0.709417 0.500000
vt -0.709417 0.505241
vt 0.000000 0.000000
vt 0.524166 0.545808
s 1
f 3/1/1 2/2/2 1/3/1
f 4/4/2 1/3/1 2/2/2
f 2/2/2 5/5/3 4/4/2
f 6/6/3 4/4/2 5/5/3
f 6/6/3 5/5/3 7/7/4
f 8/8/5 7/7/4 5/5/3
f 7/7/4 8/8/5 9/9/6
f 7/7/4 9/9/6 10/10/7
f 9/9/6 11/11/8 10/10/7
f 12/12/9 10/10/7 11/11/8
f 11/11/8 13/13/10 12/12/9
f 14/14/10 12/12/9 13/13/10
f 21/15/11 20/16/12 19/17/11
f 22/18/12 19/17/11 20/16/12
f 20/16/12 23/19/13 22/18/12
f 24/20/13 22/18/12 23/19/13
f 24/20/13 23/19/13 25/21/14
f 26/22/14 25/21/14 23/19/13
f 25/21/14 26/22/14 27/23/15
f 28/24/15 27/23/15 26/22/14
f 38/25/16 37/26/16 36/27/17
f 39/28/17 36/27/17 37/26/16
f 36/27/17 39/28/17 40/29/18
f 41/30/18 40/29/18 39/28/17
f 41/30/18 42/31/19 40/29/18
f 43/32/20 40/29/18 42/31/19
f 42/31/19 44/33/21 43/32/20
f 44/33/21 42/31/19 45/34/22
f 44/33/21 45/34/22 46/35/23
f 47/36/24 46/35/23 45/34/22
f 46/35/23 47/36/24 48/37/25
f 49/38/25 48/37/25 47/36/24
f 66/39/16 65/40/16 64/41/17
f 67/42/26 64/41/17 65/40/16
f 64/41/17 67/42/26 68/43/18
f 69/44/27 68/43/18 67/42/26
f 68/43/18 69/44/27 70/7/19
f 71/45/28 70/7/19 69/44/27
f 70/7/19 71/45/28 72/46/22
f 73/47/22 72/46/22 71/45/28
f 72/46/22 73/47/22 74/48/24
f 75/49/24 74/48/24 73/47/22
f 74/48/24 75/49/24 76/50/25
f 77/51/25 76/50/25 75/49/24
f 80/52/29 79/53/29 78/54/30
f 81/55/30 78/54/30 79/53/29
f 78/54/30 81/55/30 82/56/31
f 83/57/31 82/56/31 81/55/30
f 82/56/31 83/57/31 84/58/32
f 85/59/32 84/58/32 83/57/31
f 84/58/32 85/59/32 86/60/33
f 87/61/33 86/60/33 85/59/32
f 90/62/1 89/63/1 88/64/34
f 91/65/2 88/64/34 89/63/1
f 88/64/34 91/65/2 92/66/35
f 93/67/3 92/66/35 91/65/2
f 92/66/35 93/67/3 94/68/36
f 95/31/4 94/68/36 93/67/3
f 94/68/36 95/31/4 96/69/7
f 97/70/7 96/69/7 95/31/4
f 96/69/7 97/70/7 98/71/9
f 99/72/9 98/71/9 97/70/7
f 98/71/9 99/72/9 100/73/10
f 101/74/10 100/73/10 99/72/9
f 37/75/24 102/75/24 101/74/24 100/73/24 103/75/24 54/75/24 38/75/24 35/75/24 17/76/24 18/75/24
f 103/75/13 100/75/13 54/75/13
f 35/75/13 38/75/13 54/75/13 17/76/13
f 16/75/17 76/75/17 105/75/17 104/75/17 77/75/17 34/75/17 33/75/17 15/75/17 3/75/17 1/3/17
f 15/75/13 34/75/13 33/75/13 3/75/13
f 56/75/37 69/44/37 67/42/38 11/11/39 55/75/37 9/9/37
f 8/75/40 31/75/40 71/75/40 69/75/40 56/75/40 9/75/40
f 11/11/13 9/9/13 56/75/13 55/75/13
f 71/45/41 8/75/41 31/75/41 29/75/41 5/75/41 73/47/41
f 73/47/42 5/75/42 29/75/42 30/75/42 32/75/42 2/75/42 75/49/42
f 75/75/43 32/75/43 30/75/43 2/75/43 15/75/43 3/75/43 33/75/43 34/75/43 77/75/43 104/75/43
f 98/75/44 51/75/44 36/75/45 53/75/45 38/75/44 35/75/44 17/76/44 54/75/44 100/75/44 103/75/44
f 96/69/46 40/75/46 50/75/46 51/75/46 53/75/45 36/75/45 98/71/46
f 43/32/13 52/75/13 50/75/13 40/75/13
f 43/32/47 94/68/47 96/69/47 40/75/47 50/75/47 52/75/47
f 94/68/48 52/75/48 43/32/48 63/75/48 44/75/48 92/66/48
f 92/66/49 63/75/49 44/75/49 62/75/49 46/35/50 88/64/51
f 88/64/51 46/35/50 62/75/52 61/75/52 48/75/52 28/75/52 90/75/52 86/75/52
f 63/75/13 44/75/13 46/35/13 62/75/13
f 60/75/52 84/75/52 90/75/52 86/75/52 28/75/52 61/75/52 48/75/52 26/22/52
f 20/16/53 58/75/53 59/75/53 82/56/53 78/54/53 23/19/53
f 48/75/13 61/75/13 60/75/13 26/22/13 28/75/13
f 78/54/53 58/75/53 20/16/53 59/75/53 23/75/53 82/56/53
f 60/75/52 59/75/52 82/56/52 84/58/52 26/22/52
f 58/75/52 78/54/52 23/19/52 59/75/52
f 78/75/52 20/16/52 58/75/52 57/75/52 21/75/52 13/75/52 80/75/52 65/75/52
f 11/11/39 67/42/38 65/40/52 80/75/52 13/75/52
l 15 16
l 32 33
l 53 54
l 55 57
l 44 52
l 102 103
l 3 104
