# Blender 4.5.3 LTS
# www.blender.org
mtllib QE_pancake_133_gun_x2_001.mtl
o QE_pancake_133_x2_001
v 1.592959 0.345847 -2.192519
v 2.192519 1.162034 -1.592958
v 1.592959 1.162034 -2.192519
v 2.192519 0.345847 -1.592959
v 2.577461 1.162034 -0.837468
v 2.577461 0.345847 -0.837468
v 2.710103 0.345847 0.000000
v 2.710103 1.162034 0.000000
v 2.577462 0.787360 0.837464
v 2.577462 0.345847 0.837464
v 2.192522 0.787360 1.592956
v 2.192522 0.345847 1.592956
v 1.592961 0.787360 2.192518
v 1.592961 0.345847 2.192518
v 2.577462 1.162035 0.837466
v 2.192519 1.162034 1.592958
v 1.592958 1.162034 2.192519
v 1.592959 1.162034 -2.192519
v 0.837468 0.345847 -2.577461
v 1.592959 0.345847 -2.192519
v 0.837468 1.162034 -2.577461
v 0.000000 0.345847 -2.710103
v -0.837468 1.162034 -2.577461
v -0.837468 0.345847 -2.577461
v -1.592959 1.162034 -2.192519
v -1.592959 0.345847 -2.192519
v 0.000000 1.162034 -2.710103
v 1.592961 0.345847 2.192518
v 0.837471 0.787360 2.577460
v 1.592961 0.787360 2.192518
v 0.837471 0.345847 2.577460
v 0.000000 0.787360 2.710103
v 0.000000 0.345847 2.710103
v -0.837471 0.345847 2.577460
v -0.837471 0.787360 2.577460
v -1.592961 0.345847 2.192518
v -1.592961 0.787360 2.192518
v 2.577461 1.162034 -0.837468
v 1.751844 1.874738 -1.272788
v 2.192519 1.162034 -1.592958
v 2.059416 1.874738 -0.669144
v 2.710103 1.162034 0.000000
v 2.165398 1.874738 0.000000
v 2.577462 1.162035 0.837466
v 2.059419 1.874727 0.669153
v 1.751843 1.874738 1.272788
v 2.192519 1.162034 1.592958
v 1.272789 1.874738 -1.751843
v 2.192519 1.162034 -1.592958
v 1.751844 1.874738 -1.272788
v 1.592959 1.162034 -2.192519
v 0.669145 1.874738 -2.059415
v 1.592959 1.162034 -2.192519
v 1.272789 1.874738 -1.751843
v 0.837468 1.162034 -2.577461
v 0.000000 1.874738 -2.165397
v 0.000000 1.162034 -2.710103
v -0.837468 1.162034 -2.577461
v -0.669145 1.874738 -2.059415
v -1.592959 1.162034 -2.192519
v -1.272789 1.874738 -1.751843
v -2.192519 1.162034 -1.592958
v -1.592959 0.345847 -2.192519
v -1.592959 1.162034 -2.192519
v -2.192519 0.345847 -1.592959
v -2.577461 1.162034 -0.837468
v -2.577461 0.345847 -0.837468
v -2.710103 0.345847 0.000000
v -2.710103 1.162034 0.000000
v -2.577462 0.787360 0.837464
v -2.577462 0.345847 0.837464
v -2.192522 0.787360 1.592956
v -2.192522 0.345847 1.592956
v -1.592961 0.787360 2.192518
v -1.592961 0.345847 2.192518
v -2.577462 1.162035 0.837466
v -2.192520 1.162034 1.592958
v -1.592959 1.162034 2.192518
v -1.751844 1.874738 -1.272788
v -2.577461 1.162034 -0.837468
v -2.192519 1.162034 -1.592958
v -2.059416 1.874738 -0.669144
v -2.710103 1.162034 0.000000
v -2.165398 1.874738 0.000000
v -2.577462 1.162035 0.837466
v -2.059419 1.874727 0.669152
v -1.751844 1.874738 1.272788
v -2.192520 1.162034 1.592958
v -1.272789 1.874738 -1.751843
v -2.192519 1.162034 -1.592958
v -1.592959 1.162034 -2.192519
v -1.751844 1.874738 -1.272788
v -1.272789 1.874738 1.751842
v -2.192520 1.162034 1.592958
v -1.751844 1.874738 1.272788
v -1.592959 1.162034 2.192518
v 1.272789 1.874738 1.751843
v 2.192519 1.162034 1.592958
v 1.592958 1.162034 2.192519
v 1.751843 1.874738 1.272788
v -1.272789 1.874738 1.751842
v -0.837468 1.162035 2.577461
v -1.592959 1.162034 2.192518
v -0.837530 1.874738 1.973618
v 0.837467 1.162035 2.577461
v 1.272789 1.874738 1.751843
v 1.592958 1.162034 2.192519
v 0.837607 1.874738 1.973579
v -0.837468 1.162035 2.577461
v -1.592959 1.162034 2.192518
v 1.592958 1.162034 2.192519
v 0.837467 1.162035 2.577461
v 0.837539 1.874738 -0.000003
v 1.272789 1.874738 1.751843
v 0.837607 1.874738 1.973579
v 1.751843 1.874738 1.272788
v 2.059419 1.874727 0.669153
v 2.165398 1.874738 0.000000
v 2.059416 1.874738 -0.669144
v 1.751844 1.874738 -1.272788
v 1.272789 1.874738 -1.751843
v 0.669145 1.874738 -2.059415
v 0.000000 1.874738 -2.165397
v 0.000013 1.874738 0.000002
v -0.837501 1.874738 0.000017
v -0.669145 1.874738 -2.059415
v -1.272789 1.874738 -1.751843
v -1.751844 1.874738 -1.272788
v -2.059416 1.874738 -0.669144
v -2.165398 1.874738 0.000000
v -2.059419 1.874727 0.669152
v -1.751844 1.874738 1.272788
v -1.272789 1.874738 1.751842
v -0.837530 1.874738 1.973618
v 2.192522 0.787360 1.592956
v 2.577462 0.787360 0.837464
v 1.592961 0.787360 2.192518
v 0.837471 0.787360 2.577460
v 0.000000 0.787360 2.710103
v -0.837471 0.787360 2.577460
v -1.592961 0.787360 2.192518
v -2.192522 0.787360 1.592956
v -2.577462 0.787360 0.837464
v 2.710103 0.345847 0.000000
v 2.577461 0.345847 -0.837468
v 2.577462 0.345847 0.837464
v 2.192522 0.345847 1.592956
v 2.192519 0.345847 -1.592959
v 1.592961 0.345847 2.192518
v 1.592959 0.345847 -2.192519
v 0.837471 0.345847 2.577460
v 0.837468 0.345847 -2.577461
v 0.000000 0.345847 2.710103
v 0.000000 0.345847 -2.710103
v -0.837471 0.345847 2.577460
v -0.837468 0.345847 -2.577461
v -1.592961 0.345847 2.192518
v -1.592959 0.345847 -2.192519
v -2.192522 0.345847 1.592956
v -2.192519 0.345847 -1.592959
v -2.577462 0.345847 0.837464
v -2.577461 0.345847 -0.837468
v -2.710103 0.345847 0.000000
v 0.837607 1.874738 1.973579
v 0.837467 1.162035 2.577461
v 0.837470 0.787360 -0.000006
v 0.837539 1.874738 -0.000003
v -0.837468 1.162035 2.577461
v -0.837470 0.787360 -0.000006
v -0.837530 1.874738 1.973618
v -0.837501 1.874738 0.000017
v 0.837470 0.787360 -0.000006
v 0.000013 1.874738 0.000002
v 0.837539 1.874738 -0.000003
v -0.000000 0.787359 -0.000005
v -0.837501 1.874738 0.000017
v -0.837470 0.787360 -0.000006
v 1.746112 0.345847 1.268621
v 1.268626 -0.000000 1.746109
v 1.268626 0.345847 1.746109
v 1.746112 -0.000000 1.268621
v 2.052677 0.345847 0.666952
v 2.052677 -0.000000 0.666952
v 2.158312 0.345847 0.000000
v 2.158312 -0.000000 0.000000
v 2.052676 0.345847 -0.666955
v 2.052676 -0.000000 -0.666955
v 1.746111 0.345847 -1.268624
v 1.746111 -0.000000 -1.268624
v 1.268624 0.345847 -1.746111
v 1.268624 -0.000000 -1.746111
v 0.666957 -0.000000 2.052675
v 1.268626 0.345847 1.746109
v 1.268626 -0.000000 1.746109
v 0.666957 0.345847 2.052675
v 0.000000 -0.000000 2.158312
v 0.000000 0.345847 2.158312
v -0.666957 -0.000000 2.052675
v -0.666957 0.345847 2.052675
v -1.268626 -0.000000 1.746109
v -1.268626 0.345847 1.746109
v -1.746112 -0.000000 1.268621
v -1.268626 0.345847 1.746109
v -1.268626 -0.000000 1.746109
v -1.746112 0.345847 1.268621
v -2.052677 -0.000000 0.666952
v -2.052677 0.345847 0.666952
v -2.158312 -0.000000 0.000000
v -2.158312 0.345847 0.000000
v -2.052676 -0.000000 -0.666955
v -2.052676 0.345847 -0.666955
v -1.746111 -0.000000 -1.268624
v -1.746111 0.345847 -1.268624
v -1.268624 -0.000000 -1.746111
v -1.268624 0.345847 -1.746111
v -0.666955 -0.000000 -2.052676
v -1.268624 0.345847 -1.746111
v -1.268624 -0.000000 -1.746111
v -0.666955 0.345847 -2.052676
v 0.000000 -0.000000 -2.158312
v 0.000000 0.345847 -2.158312
v 0.666955 -0.000000 -2.052676
v 0.666955 0.345847 -2.052676
v 1.268624 -0.000000 -1.746111
v 1.268624 0.345847 -1.746111
v 0.837470 0.787360 -0.000006
v -0.000000 0.787359 -0.000005
v -0.837470 0.787360 -0.000006
v -1.178034 1.733777 1.919547
v -1.002134 1.733777 2.009172
v -1.371555 1.302996 2.185905
v -1.201805 1.773303 1.966200
v -1.002097 1.302996 2.374154
v -1.395326 1.342521 2.232559
v -1.025868 1.342522 2.420808
v -1.025905 1.773302 2.055826
v -1.000000 0.659910 1.005785
v 1.000000 0.659910 1.005785
v -1.000000 0.855000 1.025000
v 1.000000 0.855000 1.025000
v -1.000000 1.050090 1.005785
v 1.000000 1.050090 1.005785
v -1.000000 1.237684 0.948879
v 1.000000 1.237684 0.948879
v -1.000000 1.410570 0.856470
v 1.000000 1.410570 0.856470
v -1.000000 1.562107 0.732107
v 1.000000 1.562107 0.732107
v -1.000000 1.686470 0.580570
v 1.000000 1.686470 0.580570
v -1.000000 1.778880 0.407683
v 1.000000 1.778879 0.407683
v -1.000000 1.835785 0.220090
v 1.000000 1.835785 0.220090
v -1.000000 1.855000 0.025000
v 1.000000 1.855000 0.025000
v -1.000000 1.835785 -0.170090
v 1.000000 1.835785 -0.170090
v -0.200000 0.620155 1.029825
v 0.200000 0.620155 1.029825
v -0.200000 0.825000 1.050000
v 0.200000 0.825000 1.050000
v -0.200000 1.029845 1.029824
v 0.200000 1.029845 1.029824
v -0.200000 1.226818 0.970073
v 0.200000 1.226818 0.970073
v -0.200000 1.408349 0.873043
v 0.200000 1.408349 0.873043
v -0.200000 1.567462 0.742462
v 0.200000 1.567462 0.742462
v -0.200000 1.698043 0.583349
v 0.200000 1.698043 0.583349
v -0.200000 1.795073 0.401818
v 0.200000 1.795073 0.401818
v -0.200000 1.854825 0.204845
v 0.200000 1.854825 0.204845
v -0.200000 1.875000 0.000000
v 0.200000 1.875000 0.000000
v -0.200000 1.854825 -0.204845
v 0.200000 1.854825 -0.204845
v -0.200000 0.639664 0.931746
v 0.200000 0.639664 0.931746
v -0.200000 0.825000 0.950000
v 0.200000 0.825000 0.950000
v -0.200000 1.010336 0.931746
v 0.200000 1.010336 0.931746
v -0.200000 1.188549 0.877685
v 0.200000 1.188549 0.877685
v -0.200000 1.352792 0.789896
v 0.200000 1.352792 0.789896
v -0.200000 1.496751 0.671751
v 0.200000 1.496751 0.671751
v -0.200000 1.614896 0.527792
v 0.200000 1.614896 0.527792
v -0.200000 1.702685 0.363549
v 0.200000 1.702685 0.363549
v -0.200000 1.756746 0.185336
v 0.200000 1.756746 0.185336
v -0.200000 1.775000 0.000000
v 0.200000 1.775000 0.000000
v -0.200000 1.756746 -0.185336
v 0.200000 1.756746 -0.185336
v 1.785957 1.756543 -1.271354
v 1.855268 1.815257 -1.307318
v 1.831529 1.753501 -1.188491
v 1.900840 1.812215 -1.224454
v 1.737277 1.832107 -1.241809
v 1.806588 1.890820 -1.277772
v 1.782850 1.829065 -1.158945
v 1.852160 1.887779 -1.194908
v -1.705722 1.808254 -1.231444
v -1.810735 1.897222 -1.284951
v -1.756966 1.808254 -1.130871
v -1.861980 1.897222 -1.184378
v -1.766316 1.718165 -1.262318
v -1.871329 1.807133 -1.315825
v -1.817560 1.718165 -1.161745
v -1.922573 1.807133 -1.215252
vn 0.7071 -0.0000 -0.7071
vn 0.8090 -0.0000 -0.5878
vn 0.9511 -0.0000 -0.3090
vn 1.0000 -0.0000 -0.0000
vn 0.9511 -0.0000 0.3090
vn 0.7769 -0.0000 0.6296
vn 0.8090 -0.0000 0.5878
vn 0.7071 -0.0000 0.7071
vn 0.4540 -0.0000 -0.8910
vn 0.3090 -0.0000 -0.9511
vn 0.3571 -0.0000 -0.9340
vn 0.1564 -0.0000 -0.9877
vn -0.3090 -0.0000 -0.9511
vn -0.0000 -0.0000 -1.0000
vn -0.4540 -0.0000 -0.8910
vn -0.0000 -0.0000 1.0000
vn 0.4540 -0.0000 0.8910
vn 0.3587 -0.0000 0.9334
vn 0.3090 -0.0000 0.9511
vn -0.3090 -0.0000 0.9511
vn -0.4540 -0.0000 0.8910
vn 0.7111 0.6025 -0.3623
vn 0.7556 0.6072 -0.2455
vn 0.7945 0.6072 -0.0000
vn 0.7556 0.6072 0.2455
vn 0.7111 0.6025 0.3623
vn 0.5644 0.6025 -0.5644
vn 0.3623 0.6025 -0.7111
vn 0.2455 0.6072 -0.7556
vn -0.0000 0.6072 -0.7945
vn -0.2455 0.6072 -0.7556
vn -0.3623 0.6025 -0.7111
vn -0.7071 -0.0000 -0.7071
vn -0.8090 -0.0000 -0.5878
vn -0.9511 -0.0000 -0.3090
vn -1.0000 -0.0000 -0.0000
vn -0.9997 -0.0000 -0.0242
vn -0.9566 -0.0000 0.2913
vn -0.9511 -0.0000 0.3090
vn -0.8090 -0.0000 0.5878
vn -0.6296 -0.0000 0.7769
vn -0.7071 -0.0000 0.7071
vn 0.8910 -0.0000 0.4540
vn -0.7111 0.6025 -0.3623
vn -0.7556 0.6072 -0.2455
vn -0.7945 0.6072 -0.0000
vn -0.7556 0.6072 0.2455
vn -0.7111 0.6025 0.3623
vn -0.5644 0.6025 -0.5644
vn -0.5644 0.6025 0.5644
vn 0.5644 0.6025 0.5644
vn -0.2735 -0.7981 0.5368
vn 0.9320 0.2343 0.2764
vn 0.3623 0.6025 0.7111
vn -0.5878 -0.0000 0.8090
vn -0.0000 1.0000 -0.0000
vn -0.0000 -1.0000 -0.0000
vn -0.8910 -0.0000 0.4540
vn 0.9877 -0.0000 -0.1564
vn -1.0000 0.0001 -0.0000
vn 1.0000 0.0001 -0.0000
vn -1.0000 0.0002 -0.0000
vn -0.3623 0.6025 0.7111
vn 0.2735 0.7981 -0.5368
vn -0.8610 0.0758 -0.5029
vn -0.0000 -0.0980 0.9952
vn -0.0000 0.0980 0.9952
vn -0.0000 0.2903 0.9569
vn -0.0000 0.4714 0.8819
vn -0.0000 0.6344 0.7730
vn -0.0000 0.7730 0.6344
vn -0.0000 0.8819 0.4714
vn -0.0000 0.9569 0.2903
vn -0.0000 0.9952 0.0980
vn -0.0000 0.9952 -0.0980
vn -0.0000 -0.1951 -0.9808
vn -0.0000 -0.9808 -0.1951
vn 0.5145 -0.7986 -0.3123
vn 0.4816 -0.0321 0.8758
vn -0.5145 0.7986 0.3123
vn -0.4816 0.0321 -0.8758
vn -0.7094 -0.6010 0.3681
vn 0.7094 0.6010 -0.3681
vn 0.5368 0.7981 0.2735
vn -0.5368 -0.7981 -0.2735
vn 0.7111 -0.6025 0.3623
vt 1.716166 0.545808
vt 1.707101 0.545808
vt 1.716166 0.505241
vt 1.707101 0.505241
vt 1.695679 0.545808
vt 1.695679 0.505241
vt 1.683017 0.505241
vt 1.683017 0.545808
vt 1.670355 0.511931
vt 1.670355 0.505241
vt 1.658932 0.511931
vt 1.658932 0.505241
vt 1.649867 0.511931
vt 1.649867 0.505241
vt 0.475830 0.505241
vt 0.487292 0.505241
vt 0.475830 0.545808
vt 0.487292 0.545808
vt 0.499998 0.505241
vt 0.512704 0.545808
vt 0.512704 0.505241
vt 0.524166 0.545808
vt 0.524166 0.505241
vt 0.000000 0.000000
vt 0.499998 0.545808
vt 0.524170 0.511931
vt 0.512708 0.511931
vt 0.524170 0.505241
vt 0.512708 0.505241
vt 0.500002 0.511931
vt 0.500002 0.505241
vt 0.487296 0.505241
vt 0.487296 0.511931
vt 0.475834 0.505241
vt 0.475834 0.511931
vt 1.702260 0.556608
vt 1.693134 0.556608
vt 1.683017 0.556608
vt 1.670355 0.545808
vt 1.672900 0.556607
vt 1.663773 0.556608
vt 1.658932 0.545808
vt 0.526580 1.702260
vt 0.533266 1.707101
vt 0.519312 1.709504
vt 0.524170 1.716166
vt 0.480688 0.556608
vt 0.489846 0.556608
vt 0.499998 0.556608
vt 0.510150 0.556608
vt 0.519308 0.556608
vt -0.716166 0.545808
vt -0.716166 0.505241
vt -0.707101 0.545808
vt -0.707101 0.505241
vt -0.695679 0.545808
vt -0.695679 0.505241
vt -0.683017 0.505241
vt -0.683017 0.545808
vt -0.670355 0.511931
vt -0.670355 0.505241
vt -0.658932 0.511931
vt -0.658932 0.505241
vt -0.649867 0.511931
vt -0.649867 0.505241
vt -0.702260 0.556608
vt -0.693134 0.556608
vt -0.683017 0.556608
vt -0.670355 0.545808
vt -0.672900 0.556607
vt -0.663773 0.556608
vt -0.658932 0.545808
vt 0.475834 1.716166
vt 0.466738 1.707101
vt 0.480692 1.709504
vt 0.473424 1.702260
vt 0.473424 1.663773
vt 0.466738 1.658932
vt 0.480692 1.656530
vt 0.475834 1.649867
vt 0.524170 1.649867
vt 0.533266 1.658932
vt 0.519312 1.656530
vt 0.526580 1.663773
vt 0.479193 0.547944
vt 0.484798 0.547944
vt 0.484798 0.554472
vt 0.524170 0.545808
vt 0.519312 0.556608
vt 0.512708 0.545808
vt 0.512710 0.556608
vt 0.512710 1.653177
vt 0.512709 1.672899
vt 0.531246 1.672900
vt 0.532854 1.683017
vt 0.531246 1.693134
vt 0.510154 1.714154
vt 0.500002 1.715756
vt 0.500002 1.672899
vt 0.487296 1.672899
vt 0.489850 1.714154
vt 0.468757 1.693134
vt 0.467149 1.683017
vt 0.468757 1.672900
vt 0.487295 1.653177
vt 0.460894 1.670355
vt 0.460894 1.695679
vt 0.458882 1.683017
vt 0.466734 1.658932
vt 0.466734 1.707101
vt 0.475830 1.649867
vt 0.475830 1.716166
vt 0.487292 1.644047
vt 0.487292 1.721986
vt 0.499998 1.642042
vt 0.499998 1.723992
vt 0.512704 1.644047
vt 0.512704 1.721986
vt 0.524166 1.649867
vt 0.524166 1.716166
vt 0.533262 1.658932
vt 0.533262 1.707101
vt 0.539102 1.670355
vt 0.539102 1.695679
vt 0.541115 1.683017
vt -0.653177 0.556608
vt -0.672899 0.556608
vt -0.672899 0.521114
vt 1.653177 0.556608
vt 1.644047 0.545808
vt 1.672899 0.521114
vt 1.672899 0.556608
vt 0.512709 0.556608
vt 0.500002 0.556608
vt 0.512708 0.521114
vt 0.500002 0.521114
vt 0.487296 0.556608
vt 0.487296 0.521114
vt 1.656617 0.505241
vt 1.656617 0.500000
vt 1.663836 0.505241
vt 1.663836 0.500000
vt 1.672933 0.505241
vt 1.672933 0.500000
vt 1.683017 0.500000
vt 1.693101 0.505241
vt 1.693101 0.500000
vt 1.702198 0.505241
vt 1.702198 0.500000
vt 1.709417 0.505241
vt 1.709417 0.500000
vt 0.519249 0.500000
vt 0.519249 0.505241
vt 0.510121 0.500000
vt 0.510121 0.505241
vt 0.500002 0.500000
vt 0.500002 0.505241
vt 0.489883 0.500000
vt 0.489883 0.505241
vt 0.480755 0.500000
vt 0.480755 0.505241
vt -0.656617 0.500000
vt -0.656617 0.505241
vt -0.663836 0.500000
vt -0.663836 0.505241
vt -0.672933 0.500000
vt -0.672933 0.505241
vt -0.683017 0.500000
vt -0.693101 0.500000
vt -0.693101 0.505241
vt -0.702198 0.500000
vt -0.702198 0.505241
vt -0.709417 0.500000
vt -0.709417 0.505241
vt 0.519245 0.500000
vt 0.519245 0.505241
vt 0.510117 0.500000
vt 0.510117 0.505241
vt 0.499998 0.500000
vt 0.499998 0.505241
vt 0.489879 0.500000
vt 0.489879 0.505241
vt 0.480751 0.500000
vt 0.480751 0.505241
vt 0.482129 0.554472
vt 0.480692 0.556608
vt 0.475834 0.545808
vt 0.487296 0.545808
vt 0.487295 0.556608
vt 0.531250 0.500000
vt 0.531250 1.000000
vt 0.500000 1.000000
vt 0.500000 0.500000
vt 0.468750 1.000000
vt 0.468750 0.500000
vt 0.437500 1.000000
vt 0.437500 0.500000
vt 0.406250 1.000000
vt 0.406250 0.500000
vt 0.375000 1.000000
vt 0.375000 0.500000
vt 0.343750 1.000000
vt 0.343750 0.500000
vt 0.312500 1.000000
vt 0.312500 0.500000
vt 0.281250 1.000000
vt 0.281250 0.500000
vt 0.250000 1.000000
vt 0.250000 0.500000
vt 0.218750 1.000000
vt 0.218750 0.500000
vt 0.375000 0.000000
vt 0.625000 0.000000
vt 0.625000 0.250000
vt 0.375000 0.250000
vt 0.625000 0.500000
vt 0.625000 0.750000
vt 0.375000 0.750000
vt 0.625000 1.000000
vt 0.125000 0.500000
vt 0.125000 0.750000
vt 0.875000 0.500000
vt 0.875000 0.750000
s 1
f 3/1/1 2/2/2 1/3/1
f 4/4/2 1/3/1 2/2/2
f 2/2/2 5/5/3 4/4/2
f 6/6/3 4/4/2 5/5/3
f 6/6/3 5/5/3 7/7/4
f 8/8/4 7/7/4 5/5/3
f 7/7/4 8/8/4 9/9/5
f 7/7/4 9/9/5 10/10/5
f 9/9/5 11/11/6 10/10/5
f 12/12/7 10/10/5 11/11/6
f 11/11/6 13/13/8 12/12/7
f 14/14/8 12/12/7 13/13/8
f 20/15/9 19/16/10 18/17/9
f 21/18/11 18/17/9 19/16/10
f 22/19/12 21/18/11 19/16/10
f 23/20/13 22/19/14 24/21/13
f 23/20/13 24/21/13 25/22/15
f 26/23/15 25/22/15 24/21/13
f 22/24/14 23/20/13 27/24/14
f 22/24/14 27/24/14 57/25/12 21/24/12 55/24/12 154/24/12
f 21/18/16 22/19/16 55/18/16 57/25/16 27/24/16
f 30/26/17 29/27/18 28/28/17
f 31/29/19 28/28/17 29/27/18
f 29/27/18 32/30/16 31/29/19
f 33/31/16 31/29/19 32/30/16
f 33/31/16 32/30/16 34/32/20
f 35/33/20 34/32/20 32/30/16
f 34/32/20 35/33/20 36/34/21
f 37/35/21 36/34/21 35/33/20
f 40/2/22 39/36/22 38/5/23
f 41/37/23 38/5/23 39/36/22
f 38/5/23 41/37/23 42/8/24
f 43/38/24 42/8/24 41/37/23
f 42/8/24 43/38/24 44/39/25
f 45/40/25 44/39/25 43/38/24
f 45/40/25 46/41/26 44/39/25
f 47/42/26 44/39/25 46/41/26
f 50/43/27 49/44/27 48/45/27
f 51/46/27 48/45/27 49/44/27
f 54/47/28 53/17/28 52/48/29
f 55/18/29 52/48/29 53/17/28
f 52/48/29 55/18/29 56/49/30
f 57/25/30 56/49/30 55/18/29
f 57/25/30 58/20/31 56/49/30
f 59/50/31 56/49/30 58/20/31
f 58/20/31 60/22/32 59/50/31
f 61/51/32 59/50/31 60/22/32
f 64/52/33 63/53/33 62/54/34
f 65/55/34 62/54/34 63/53/33
f 62/54/34 65/55/34 66/56/35
f 67/57/35 66/56/35 65/55/34
f 67/57/35 68/58/36 66/56/35
f 69/59/37 66/56/35 68/58/36
f 68/58/36 70/60/38 69/59/37
f 70/60/38 68/58/36 71/61/39
f 70/60/38 71/61/39 72/62/40
f 73/63/40 72/62/40 71/61/39
f 72/62/40 73/63/40 74/64/41
f 75/65/42 74/64/41 73/63/40
f 9/24/5 8/8/4 15/24/5
f 9/24/5 15/24/5 44/39/43 16/24/43 98/24/43 47/24/43 135/24/43 11/24/43 136/24/43
f 81/54/44 80/56/45 79/66/44
f 82/67/45 79/66/44 80/56/45
f 80/56/45 83/59/46 82/67/45
f 84/68/46 82/67/45 83/59/46
f 83/59/46 85/69/47 84/68/46
f 86/70/47 84/68/46 85/69/47
f 86/70/47 85/69/47 87/71/48
f 88/72/48 87/71/48 85/69/47
f 91/73/49 90/74/49 89/75/49
f 92/76/49 89/75/49 90/74/49
f 95/77/50 94/78/50 93/79/50
f 96/80/50 93/79/50 94/78/50
f 99/81/51 98/82/51 97/83/51
f 100/84/51 97/83/51 98/82/51
f 231/85/52 233/86/52 235/86/52 234/85/52
f 233/86/53 230/87/53 236/87/53 235/86/53
f 107/88/54 106/89/54 105/90/54
f 108/91/54 105/90/54 106/89/54
f 102/24/4 35/24/4 140/24/4 228/24/4 169/24/4 177/24/4 168/24/4 109/24/4
f 13/13/8 11/11/6 16/24/8 17/24/8
f 107/88/17 105/90/17 29/27/18 30/26/17
f 74/24/41 140/24/21 35/24/21 109/24/21 168/24/21 102/24/21 78/24/21 103/24/21 110/24/55 96/24/55 141/24/55 37/24/55
f 115/92/56 114/83/56 113/93/56
f 114/83/56 116/84/56 113/93/56
f 116/84/56 117/94/56 113/93/56
f 113/93/56 117/94/56 118/95/56
f 119/96/56 113/93/56 118/95/56
f 120/43/56 113/93/56 119/96/56
f 121/45/56 113/93/56 120/43/56
f 122/97/56 113/93/56 121/45/56
f 123/98/56 113/93/56 122/97/56
f 124/99/56 113/93/56 123/98/56
f 125/100/56 124/99/56 123/98/56
f 125/100/56 123/98/56 126/101/56
f 125/100/56 126/101/56 127/75/56
f 125/100/56 127/75/56 128/76/56
f 125/100/56 128/76/56 129/102/56
f 125/100/56 129/102/56 130/103/56
f 131/104/56 125/100/56 130/103/56
f 132/77/56 125/100/56 131/104/56
f 133/79/56 125/100/56 132/77/56
f 134/105/56 125/100/56 133/79/56
f 146/106/57 145/107/57 144/108/57
f 146/106/57 147/109/57 145/107/57
f 148/110/57 145/107/57 147/109/57
f 147/109/57 149/111/57 148/110/57
f 150/112/57 148/110/57 149/111/57
f 149/111/57 151/113/57 150/112/57
f 152/114/57 150/112/57 151/113/57
f 151/113/57 153/115/57 152/114/57
f 154/116/57 152/114/57 153/115/57
f 153/115/57 155/117/57 154/116/57
f 156/118/57 154/116/57 155/117/57
f 155/117/57 157/119/57 156/118/57
f 158/120/57 156/118/57 157/119/57
f 157/119/57 159/121/57 158/120/57
f 160/122/57 158/120/57 159/121/57
f 159/121/57 161/123/57 160/122/57
f 162/124/57 160/122/57 161/123/57
f 163/125/57 162/124/57 161/123/57
f 76/24/58 70/60/58 143/24/58 72/24/40 142/24/40 88/24/58 94/24/40 77/24/40 85/69/58
f 70/60/59 69/59/59 83/24/59 76/24/59 85/69/59 143/24/59
f 164/126/60 167/127/60 166/128/60
f 69/59/36 70/60/36 83/59/36 85/69/36 76/24/36
f 170/129/61 168/130/61 169/131/4
f 169/131/4 171/132/4 170/129/61
f 174/133/16 173/134/16 172/135/16
f 175/136/16 172/135/16 173/134/16
f 173/134/16 176/137/16 175/136/16
f 177/138/16 175/136/16 176/137/16
f 180/139/8 179/140/8 178/141/7
f 181/142/7 178/141/7 179/140/8
f 178/141/7 181/142/7 182/143/5
f 183/144/5 182/143/5 181/142/7
f 182/143/5 183/144/5 184/7/4
f 185/145/4 184/7/4 183/144/5
f 184/7/4 185/145/4 186/146/3
f 187/147/3 186/146/3 185/145/4
f 186/146/3 187/147/3 188/148/2
f 189/149/2 188/148/2 187/147/3
f 188/148/2 189/149/2 190/150/1
f 191/151/1 190/150/1 189/149/2
f 194/152/17 193/153/17 192/154/19
f 195/155/19 192/154/19 193/153/17
f 192/154/19 195/155/19 196/156/16
f 197/157/16 196/156/16 195/155/19
f 196/156/16 197/157/16 198/158/20
f 199/159/20 198/158/20 197/157/16
f 198/158/20 199/159/20 200/160/21
f 201/161/21 200/160/21 199/159/20
f 204/162/42 203/163/42 202/164/40
f 205/165/40 202/164/40 203/163/42
f 202/164/40 205/165/40 206/166/39
f 207/167/39 206/166/39 205/165/40
f 206/166/39 207/167/39 208/168/36
f 209/58/36 208/168/36 207/167/39
f 208/168/36 209/58/36 210/169/35
f 211/170/35 210/169/35 209/58/36
f 210/169/35 211/170/35 212/171/34
f 213/172/34 212/171/34 211/170/35
f 212/171/34 213/172/34 214/173/33
f 215/174/33 214/173/33 213/172/34
f 218/175/15 217/176/15 216/177/13
f 219/178/13 216/177/13 217/176/15
f 216/177/13 219/178/13 220/179/14
f 221/180/14 220/179/14 219/178/13
f 220/179/14 221/180/14 222/181/10
f 223/182/10 222/181/10 221/180/14
f 222/181/10 223/182/10 224/183/9
f 225/184/9 224/183/9 223/182/10
f 72/24/40 74/64/41 37/64/55 141/64/55 78/24/42 103/24/42 96/24/55 110/24/55 88/24/42 77/24/40 94/24/40 142/24/40
f 108/91/56 166/128/56 164/126/56 165/24/56 105/90/56
f 115/24/62 172/24/62 166/24/62 226/24/62 112/24/60 105/90/60 165/24/62 108/24/62 164/24/62
f 29/27/36 105/90/60 112/24/60 165/24/36 172/24/36 166/24/36 226/24/36 138/24/36
f 175/24/56 32/24/56 139/24/56 138/24/56 29/27/56 166/24/56 172/24/56 226/24/56 227/24/56
f 227/24/16 228/24/16 169/24/16 177/24/16 175/136/16
f 175/24/57 139/24/57 32/24/57 140/24/57 35/24/57 169/24/57 177/24/57 228/24/57 227/24/57
f 231/85/63 229/185/63 101/186/63 103/187/63
f 233/86/63 231/85/63 103/187/63 102/188/63
f 230/87/63 233/86/63 102/188/63 104/189/63
f 229/185/63 230/87/63 104/189/63 101/186/63
f 234/85/63 235/86/63 232/185/63
f 236/87/63 232/185/63 235/86/63
f 230/87/64 229/185/64 232/185/64 236/87/64
f 229/185/65 231/85/65 234/85/65 232/185/65
f 237/190/66 238/191/66 240/192/66 239/193/66
f 239/193/67 240/192/67 242/194/67 241/195/67
f 241/195/68 242/194/68 244/196/68 243/197/68
f 243/197/69 244/196/69 246/198/69 245/199/69
f 245/199/70 246/198/70 248/200/70 247/201/70
f 247/201/71 248/200/71 250/202/71 249/203/71
f 249/203/72 250/202/72 252/204/72 251/205/72
f 251/205/73 252/204/73 254/206/73 253/207/73
f 253/207/74 254/206/74 256/208/74 255/209/74
f 255/209/75 256/208/75 258/210/75 257/211/75
f 259/190/66 260/191/66 262/192/66 261/193/66
f 261/193/67 262/192/67 264/194/67 263/195/67
f 263/195/68 264/194/68 266/196/68 265/197/68
f 265/197/69 266/196/69 268/198/69 267/199/69
f 267/199/70 268/198/70 270/200/70 269/201/70
f 269/201/71 270/200/71 272/202/71 271/203/71
f 271/203/72 272/202/72 274/204/72 273/205/72
f 273/205/73 274/204/73 276/206/73 275/207/73
f 275/207/74 276/206/74 278/208/74 277/209/74
f 277/209/75 278/208/75 280/210/75 279/211/75
f 281/190/66 282/191/66 284/192/66 283/193/66
f 283/193/67 284/192/67 286/194/67 285/195/67
f 285/195/68 286/194/68 288/196/68 287/197/68
f 287/197/69 288/196/69 290/198/69 289/199/69
f 289/199/70 290/198/70 292/200/70 291/201/70
f 291/201/71 292/200/71 294/202/71 293/203/71
f 293/203/72 294/202/72 296/204/72 295/205/72
f 295/205/73 296/204/73 298/206/73 297/207/73
f 297/207/74 298/206/74 300/208/74 299/209/74
f 299/209/75 300/208/75 302/210/75 301/211/75
f 279/211/36 301/211/36 299/209/36 277/209/36
f 277/209/36 299/209/36 297/207/36 275/207/36
f 275/207/36 297/207/36 295/205/36 273/205/36
f 273/205/36 295/205/36 293/203/36 271/203/36
f 271/203/36 293/203/36 291/201/36 269/201/36
f 269/201/36 291/201/36 289/199/36 267/199/36
f 267/199/36 289/199/36 287/197/36 265/197/36
f 265/197/36 287/197/36 285/195/36 263/195/36
f 263/195/36 285/195/36 283/193/36 261/193/36
f 261/193/36 283/193/36 281/190/36 259/190/36
f 260/191/4 282/191/4 284/192/4 262/192/4
f 262/192/4 284/192/4 286/194/4 264/194/4
f 264/194/4 286/194/4 288/196/4 266/196/4
f 266/196/4 288/196/4 290/198/4 268/198/4
f 268/198/4 290/198/4 292/200/4 270/200/4
f 270/200/4 292/200/4 294/202/4 272/202/4
f 272/202/4 294/202/4 296/204/4 274/204/4
f 274/204/4 296/204/4 298/206/4 276/206/4
f 276/206/4 298/206/4 300/208/4 278/208/4
f 278/208/4 300/208/4 302/210/4 280/210/4
f 279/211/76 280/210/76 302/210/76 301/211/76
f 259/190/77 281/190/77 282/191/77 260/191/77
f 303/212/78 304/213/78 306/214/78 305/215/78
f 305/215/79 306/214/79 310/216/79 309/201/79
f 309/201/80 310/216/80 308/217/80 307/218/80
f 307/218/81 308/217/81 304/219/81 303/200/81
f 305/220/82 309/201/82 307/218/82 303/221/82
f 310/216/83 306/222/83 304/223/83 308/217/83
f 311/212/84 312/213/84 314/214/84 313/215/84
f 313/215/21 314/214/21 318/216/21 317/201/21
f 317/201/85 318/216/85 316/217/85 315/218/85
f 315/218/9 316/217/9 312/219/9 311/200/9
f 313/220/86 317/201/86 315/218/86 311/221/86
f 318/216/44 314/222/44 312/223/44 316/217/44
l 76 77
l 77 78
l 109 110
l 111 112
l 135 136
l 135 137
l 137 138
l 139 140
l 140 141
l 141 142
l 142 143
