# Blender 4.5.3 LTS
# www.blender.org
mtllib tex_gun_305_x2_003.mtl
o tex_gun_305_x3_001
v 2.865429 0.384516 3.588052
v 3.594201 0.569783 2.866277
v 3.593133 0.384515 2.865425
v 2.866281 0.569783 3.589121
v 1.994040 0.384516 4.135584
v 1.994633 0.569783 4.136814
v 1.022966 0.569783 4.476817
v 1.022662 0.384516 4.475484
v 0.000000 0.384516 4.590712
v -1.022966 0.569783 4.476817
v -1.022662 0.384516 4.475484
v -1.994040 0.384516 4.135584
v -1.994633 0.569783 4.136814
v -2.866281 0.569783 3.589121
v -2.865429 0.384516 3.588052
v -3.594201 0.569783 2.866277
v -3.593133 0.384515 2.865425
v 4.141893 0.569783 1.994627
v 4.140663 0.384516 1.994035
v 4.481894 0.569783 1.022960
v 4.480562 0.384516 1.022655
v 4.597154 0.569783 -0.000004
v 4.595788 0.384516 -0.000002
v 4.480561 0.384516 -1.022659
v 4.481893 0.569783 -1.022967
v 4.141890 0.569783 -1.994634
v 4.140662 0.384516 -1.994038
v 3.594196 0.569783 -2.866282
v 3.593131 0.384516 -2.865427
v 2.864578 0.569782 -3.592060
v 3.593131 0.384516 -2.865427
v 3.594196 0.569783 -2.866282
v 2.864578 0.384516 -3.592060
v 1.993448 0.384516 -4.139429
v 1.993448 0.569782 -4.139429
v 1.022358 0.384516 -4.479228
v 1.022358 0.569782 -4.479228
v 0.000000 0.384516 -4.594422
v 0.000000 0.569782 -4.594422
v -1.022358 0.569782 -4.479228
v -1.022358 0.384516 -4.479228
v -1.993448 0.569782 -4.139429
v -1.993448 0.384516 -4.139429
v -2.864578 0.569782 -3.592060
v -2.864578 0.384516 -3.592060
v -3.593131 0.384516 -2.865427
v -3.594196 0.569783 -2.866282
v -4.141893 0.569783 1.994627
v -4.140663 0.384516 1.994035
v -4.481894 0.569783 1.022960
v -4.480562 0.384516 1.022655
v -4.597154 0.569783 -0.000004
v -4.595788 0.384516 -0.000002
v -4.480561 0.384516 -1.022659
v -4.481893 0.569783 -1.022967
v -4.141890 0.569783 -1.994634
v -4.140662 0.384516 -1.994038
v -3.594196 0.569783 -2.866282
v -3.593131 0.384516 -2.865427
v 2.866281 3.164843 3.589121
v 3.594202 3.164844 2.866277
v 1.994633 3.164843 4.136814
v 1.022966 3.164843 4.476816
v 0.650001 1.375855 4.517425
v 0.650001 2.324776 4.517426
v 0.000000 3.164843 4.592077
v -1.022966 3.164843 4.476816
v -0.649999 1.375855 4.517426
v -0.649999 2.324777 4.517426
v -1.994633 3.164843 4.136814
v -2.866281 3.164843 3.589121
v -3.594202 3.164844 2.866277
v 4.141893 3.164843 1.994628
v 4.481894 3.164843 1.022960
v 4.597154 3.164843 -0.000004
v 4.481893 3.164844 -1.022967
v 4.141890 3.164844 -1.994634
v 3.594196 3.164844 -2.866282
v 3.594196 3.164844 -2.866282
v 2.864579 3.164843 -3.592060
v 1.993448 3.164843 -4.139429
v 1.022358 3.164843 -4.479229
v 0.000000 3.164843 -4.594422
v -1.022358 3.164843 -4.479229
v -1.993448 3.164843 -4.139429
v -2.864579 3.164843 -3.592060
v -3.594196 3.164844 -2.866282
v -4.141893 3.164843 1.994628
v -4.481894 3.164843 1.022960
v -4.597154 3.164843 -0.000004
v -4.481893 3.164844 -1.022967
v -4.141890 3.164844 -1.994634
v -3.594196 3.164844 -2.866282
v 1.022358 2.919128 -4.690543
v 0.000000 0.815494 -4.805736
v 1.022358 0.815494 -4.690543
v 0.000000 2.919128 -4.805736
v -1.022358 2.919128 -4.690543
v -1.022358 0.815494 -4.690543
v 1.022358 0.815494 -4.479229
v 1.022358 2.919128 -4.690543
v 1.022358 0.815494 -4.690543
v 1.022358 2.919128 -4.479229
v -1.022358 2.919128 -4.479229
v -1.022358 0.815494 -4.690543
v -1.022358 2.919128 -4.690543
v -1.022358 0.815494 -4.479229
v 2.111796 2.984230 -4.385180
v 1.083053 2.866834 -4.745153
v 2.111796 2.866835 -4.385180
v 1.083056 2.984230 -4.745152
v -0.000003 2.866834 -4.867184
v -0.000003 2.984230 -4.867185
v -1.083057 2.866834 -4.745152
v -1.083054 2.984230 -4.745152
v -2.111795 2.866835 -4.385180
v -2.111795 2.984230 -4.385180
v 1.965286 3.092748 -4.080952
v 1.083056 2.984230 -4.745152
v 2.111796 2.984230 -4.385180
v 1.007916 3.092748 -4.415951
v -0.000003 2.984230 -4.867185
v 0.000000 3.092748 -4.529518
v -1.083054 2.984230 -4.745152
v -1.007915 3.092748 -4.415952
v -2.111795 2.984230 -4.385180
v -1.965287 3.092748 -4.080952
v -1.965287 2.866835 -4.080952
v -1.083057 2.866834 -4.745152
v -2.111795 2.866835 -4.385180
v -1.007915 2.866835 -4.415952
v -0.000003 2.866834 -4.867184
v 0.000000 2.866835 -4.529518
v 1.083053 2.866834 -4.745153
v 1.007916 2.866835 -4.415952
v 2.111796 2.866835 -4.385180
v 1.965286 2.866835 -4.080952
v 2.111796 2.984230 -4.385180
v 1.965286 2.866835 -4.080952
v 1.965286 3.092748 -4.080952
v 2.111796 2.866835 -4.385180
v -1.965287 2.866835 -4.080952
v -2.111795 2.984230 -4.385180
v -1.965287 3.092748 -4.080952
v -2.111795 2.866835 -4.385180
v 1.083053 0.843767 -4.745153
v 2.111796 0.726371 -4.385180
v 2.111796 0.843767 -4.385180
v 1.083056 0.726371 -4.745152
v -0.000003 0.843767 -4.867184
v -0.000003 0.726372 -4.867185
v -1.083057 0.843767 -4.745152
v -1.083054 0.726371 -4.745152
v -2.111795 0.843767 -4.385180
v -2.111795 0.726371 -4.385180
v 1.083056 0.726371 -4.745152
v 1.965286 0.617854 -4.080952
v 2.111796 0.726371 -4.385180
v 1.007916 0.617854 -4.415951
v -0.000003 0.726372 -4.867185
v 0.000000 0.617854 -4.529517
v -1.083054 0.726371 -4.745152
v -1.007915 0.617854 -4.415951
v -2.111795 0.726371 -4.385180
v -1.965287 0.617854 -4.080952
v -1.083057 0.843767 -4.745152
v -1.965287 0.843767 -4.080952
v -2.111795 0.843767 -4.385180
v -1.007915 0.843767 -4.415952
v -0.000003 0.843767 -4.867184
v 0.000000 0.843767 -4.529518
v 1.083053 0.843767 -4.745153
v 1.007916 0.843767 -4.415952
v 2.111796 0.843767 -4.385180
v 1.965286 0.843767 -4.080952
v 2.111796 0.726371 -4.385180
v 1.965286 0.843767 -4.080952
v 2.111796 0.843767 -4.385180
v 1.965286 0.617854 -4.080952
v -1.965287 0.843767 -4.080952
v -2.111795 0.726371 -4.385180
v -2.111795 0.843767 -4.385180
v -1.965287 0.617854 -4.080952
v -0.228575 3.665204 -2.540470
v -0.513604 3.187422 -2.183054
v -0.228575 3.187422 -2.540470
v -0.513604 3.665204 -2.183054
v -0.411878 3.187421 -1.737366
v -0.411878 3.665205 -1.737366
v -0.469408 3.818748 -2.440171
v -0.588528 3.665205 -2.200157
v -0.469408 3.665205 -2.440171
v -0.588528 3.818748 -2.200157
v -0.585343 3.818747 -1.932229
v -0.585343 3.665205 -1.932229
v -0.471963 3.665205 -1.689452
v -0.471963 3.818747 -1.689452
v -0.261920 3.665205 -2.609712
v -0.469408 3.818748 -2.440171
v -0.469408 3.665205 -2.440171
v -0.261920 3.818748 -2.609712
v 0.000000 3.818748 -2.666226
v 0.000000 3.665205 -2.666226
v 0.261920 3.665205 -2.609712
v 0.261920 3.818748 -2.609712
v 0.469408 3.818748 -2.440171
v 0.469408 3.665205 -2.440171
v -0.260502 3.818748 -1.524892
v -0.471963 3.665205 -1.689452
v -0.471963 3.818747 -1.689452
v -0.260502 3.665205 -1.524892
v 0.000000 3.665205 -1.462167
v 0.000000 3.818748 -1.462167
v 0.260502 3.818748 -1.524892
v 0.260502 3.665205 -1.524892
v 0.471963 3.665205 -1.689452
v 0.471963 3.818747 -1.689452
v 0.513604 3.187422 -2.183054
v 0.228575 3.665204 -2.540470
v 0.228575 3.187422 -2.540470
v 0.513604 3.665204 -2.183054
v 0.411878 3.187421 -1.737366
v 0.411878 3.665205 -1.737366
v 0.588528 3.665205 -2.200157
v 0.469408 3.818748 -2.440171
v 0.469408 3.665205 -2.440171
v 0.588528 3.818748 -2.200157
v 0.585343 3.818747 -1.932229
v 0.585343 3.665205 -1.932229
v 0.471963 3.665205 -1.689452
v 0.471963 3.818747 -1.689452
v 0.228575 3.187422 -2.540470
v -0.228575 3.665204 -2.540470
v -0.228575 3.187422 -2.540470
v 0.228575 3.665204 -2.540470
v 3.922244 3.401844 1.888850
v 4.353362 3.401845 -0.000004
v 4.244215 3.401845 0.968711
v 4.244213 3.401845 -0.968718
v 3.922241 3.401845 -1.888856
v 3.403597 3.401844 2.714275
v 3.403764 3.401845 -2.714006
v 2.714279 3.401844 3.398517
v 2.712851 3.401844 -3.401284
v 1.888855 3.401844 3.917166
v 1.887670 3.401844 -3.919780
v 0.968717 3.401844 4.239136
v 0.968109 3.401844 -4.241549
v 0.000000 3.401844 -4.350630
v 0.000000 3.401844 4.348286
v -0.968717 3.401844 4.239136
v -0.968109 3.401844 -4.241549
v -1.888855 3.401844 3.917166
v -1.887670 3.401844 -3.919780
v -2.714279 3.401844 3.400209
v -2.712851 3.401844 -3.401284
v -3.403597 3.401844 2.714275
v -3.403764 3.401845 -2.714006
v -3.922244 3.401844 1.888850
v -3.922241 3.401845 -1.888856
v -4.244215 3.401845 0.968711
v -4.353362 3.401845 -0.000004
v -4.244213 3.401845 -0.968718
v -1.226385 2.766812 -3.319947
v -1.109400 3.615910 -3.037518
v -1.226385 3.615911 -3.319947
v -1.109400 2.766812 -3.037519
v -1.226385 3.615910 -2.755090
v -1.226385 2.766812 -2.755090
v -1.226385 3.615911 -3.319947
v -1.508813 2.766812 -3.436932
v -1.226385 2.766812 -3.319947
v -1.508813 3.615911 -3.436931
v -1.791241 2.766812 -3.319947
v -1.791241 3.615911 -3.319947
v -1.791241 3.615911 -3.319947
v -1.908227 2.766812 -3.037519
v -1.791241 2.766812 -3.319947
v -1.908227 3.615910 -3.037519
v -1.791241 2.766812 -2.755091
v -1.791241 3.615910 -2.755090
v -1.791241 3.615910 -2.755090
v -1.508814 2.766812 -2.638105
v -1.791241 2.766812 -2.755091
v -1.508814 3.615910 -2.638105
v -1.226385 2.766812 -2.755090
v -1.226385 3.615910 -2.755090
v 1.791217 2.766812 -3.319947
v 1.908203 3.615910 -3.037518
v 1.791217 3.615911 -3.319947
v 1.908203 2.766812 -3.037519
v 1.791218 3.615910 -2.755090
v 1.791218 2.766812 -2.755090
v 1.791217 3.615911 -3.319947
v 1.508790 2.766812 -3.436932
v 1.791217 2.766812 -3.319947
v 1.508790 3.615911 -3.436931
v 1.226362 2.766812 -3.319947
v 1.226362 3.615911 -3.319947
v 1.226362 3.615911 -3.319947
v 1.109376 2.766812 -3.037519
v 1.226362 2.766812 -3.319947
v 1.109376 3.615910 -3.037519
v 1.226361 2.766812 -2.755091
v 1.226361 3.615910 -2.755090
v 1.226361 3.615910 -2.755090
v 1.508789 2.766812 -2.638105
v 1.226361 2.766812 -2.755091
v 1.508789 3.615910 -2.638105
v 1.791218 2.766812 -2.755090
v 1.791218 3.615910 -2.755090
v 3.181846 3.114249 -0.594320
v 3.595267 3.627854 -0.594320
v 3.181849 3.627855 -0.594320
v 3.595266 3.114248 -0.594320
v 3.595266 3.114249 -0.034246
v 3.595267 3.627854 -0.594320
v 3.595266 3.114248 -0.594320
v 3.595267 3.627855 -0.034247
v 3.595267 3.627855 -0.034247
v 3.181849 3.627855 -0.594320
v 3.595267 3.627854 -0.594320
v 3.181850 3.627855 -0.034247
v 3.181848 3.114249 -0.034244
v 3.181849 3.627855 -0.594320
v 3.181850 3.627855 -0.034247
v 3.181846 3.114249 -0.594320
v -3.181826 3.114249 -0.594320
v -3.595248 3.627854 -0.594320
v -3.595247 3.114248 -0.594320
v -3.181829 3.627855 -0.594320
v -3.595247 3.114249 -0.034246
v -3.595248 3.627854 -0.594320
v -3.595248 3.627855 -0.034247
v -3.595247 3.114248 -0.594320
v -3.595248 3.627855 -0.034247
v -3.181829 3.627855 -0.594320
v -3.181830 3.627855 -0.034247
v -3.595248 3.627854 -0.594320
v -3.181828 3.114249 -0.034244
v -3.181829 3.627855 -0.594320
v -3.181826 3.114249 -0.594320
v -3.181830 3.627855 -0.034247
v 3.403597 3.401844 2.714275
v 4.141893 3.164843 1.994628
v -4.141893 3.164843 1.994628
v 3.922244 3.401844 1.888850
v -3.922244 3.401844 1.888850
v 4.481894 3.164843 1.022960
v -4.481894 3.164843 1.022960
v 4.244215 3.401845 0.968711
v -4.244215 3.401845 0.968711
v 4.597154 3.164843 -0.000004
v -4.597154 3.164843 -0.000004
v 4.353362 3.401845 -0.000004
v -4.353362 3.401845 -0.000004
v 4.481893 3.164844 -1.022967
v -4.481893 3.164844 -1.022967
v 4.244213 3.401845 -0.968718
v -4.244213 3.401845 -0.968718
v 4.141890 3.164844 -1.994634
v -4.141890 3.164844 -1.994634
v 3.922241 3.401845 -1.888856
v -3.922241 3.401845 -1.888856
v 3.594196 3.164844 -2.866282
v -3.594196 3.164844 -2.866282
v 3.403764 3.401845 -2.714006
v -3.403764 3.401845 -2.714006
v 2.864579 3.164843 -3.592060
v -2.864579 3.164843 -3.592060
v 2.712851 3.401844 -3.401284
v -2.712851 3.401844 -3.401284
v 1.993448 3.164843 -4.139429
v -1.993448 3.164843 -4.139429
v 1.887670 3.401844 -3.919780
v -1.887670 3.401844 -3.919780
v 1.022358 3.164843 -4.479229
v -1.022358 3.164843 -4.479229
v 0.968109 3.401844 -4.241549
v -0.968109 3.401844 -4.241549
v 0.000000 3.164843 -4.594422
v 0.000000 3.401844 -4.350630
v -0.261920 3.665205 -2.609712
v -0.469408 3.665205 -2.440171
v 0.000000 3.665205 -2.065830
v 0.000000 3.665205 -2.666226
v -0.588528 3.665205 -2.200157
v 0.261920 3.665205 -2.609712
v -0.585343 3.665205 -1.932229
v 0.469408 3.665205 -2.440171
v -0.471963 3.665205 -1.689452
v 0.588528 3.665205 -2.200157
v -0.260502 3.665205 -1.524892
v 0.585343 3.665205 -1.932229
v 0.000000 3.665205 -1.462167
v 0.471963 3.665205 -1.689452
v 0.260502 3.665205 -1.524892
v -0.588528 3.818748 -2.200157
v -0.469408 3.818748 -2.440171
v 0.000000 3.878210 -2.065830
v -0.585343 3.818747 -1.932229
v -0.261920 3.818748 -2.609712
v -0.471963 3.818747 -1.689452
v 0.000000 3.818748 -2.666226
v -0.260502 3.818748 -1.524892
v 0.261920 3.818748 -2.609712
v 0.000000 3.818748 -1.462167
v 0.469408 3.818748 -2.440171
v 0.260502 3.818748 -1.524892
v 0.588528 3.818748 -2.200157
v 0.471963 3.818747 -1.689452
v 0.585343 3.818747 -1.932229
v -1.347912 3.775959 -3.198420
v -1.109400 3.615910 -3.037518
v -1.281263 3.775959 -3.037518
v -1.226385 3.615911 -3.319947
v -1.226385 3.615910 -2.755090
v -1.508813 3.775959 -3.265068
v -1.508813 3.615911 -3.436931
v -1.347911 3.775959 -2.876616
v -1.508814 3.615910 -2.638105
v -1.508814 3.775959 -2.809969
v -1.791241 3.615910 -2.755090
v -1.669715 3.775959 -3.198420
v -1.791241 3.615911 -3.319947
v -1.669715 3.775959 -2.876616
v -1.908227 3.615910 -3.037519
v -1.736363 3.775959 -3.037518
v 1.669690 3.775959 -3.198420
v 1.908203 3.615910 -3.037518
v 1.736339 3.775959 -3.037518
v 1.791217 3.615911 -3.319947
v 1.791218 3.615910 -2.755090
v 1.508790 3.775959 -3.265068
v 1.508790 3.615911 -3.436931
v 1.669691 3.775959 -2.876616
v 1.508789 3.615910 -2.638105
v 1.508789 3.775959 -2.809969
v 1.226361 3.615910 -2.755090
v 1.347888 3.775959 -3.198420
v 1.226362 3.615911 -3.319947
v 1.347888 3.775959 -2.876616
v 1.109376 3.615910 -3.037519
v 1.281240 3.775959 -3.037518
v -0.411878 3.665205 -1.737366
v 0.000000 3.187421 -1.539016
v -0.411878 3.187421 -1.737366
v 0.000000 3.665205 -1.539016
v 0.411878 3.665205 -1.737366
v 0.411878 3.187421 -1.737366
v 3.595266 3.114249 -0.034246
v 3.181850 3.627855 -0.034247
v 3.595267 3.627855 -0.034247
v 3.181848 3.114249 -0.034244
v -3.595247 3.114249 -0.034246
v -3.181830 3.627855 -0.034247
v -3.181828 3.114249 -0.034244
v -3.595248 3.627855 -0.034247
v -0.314918 2.817206 4.561672
v -0.567468 2.615809 2.410813
v -0.567465 2.615807 4.533217
v -0.314920 2.817208 2.410813
v 0.000000 2.889085 4.597154
v 0.000000 2.889086 2.410812
v 0.314923 2.817206 4.561670
v 0.314920 2.817208 2.410813
v 0.567470 2.615807 4.533214
v 0.567467 2.615808 2.410813
v -0.650001 2.324778 2.410813
v -0.567465 2.615807 4.533217
v -0.567468 2.615809 2.410813
v -0.649999 2.324777 4.517426
v -0.650001 1.375857 2.410813
v -0.649999 1.375855 4.517426
v -0.567468 1.084826 2.410813
v -0.567465 1.084825 4.533215
v -0.314920 0.883427 2.410813
v -0.567465 1.084825 4.533215
v -0.567468 1.084826 2.410813
v -0.314918 0.883426 4.561672
v -0.000000 0.811549 2.410813
v -0.000000 0.811547 4.597154
v 0.314920 0.883427 2.410813
v 0.314923 0.883426 4.561672
v 0.567467 1.084826 2.410813
v 0.567470 1.084825 4.533216
v 0.649999 1.375856 2.410813
v 0.567470 1.084825 4.533216
v 0.567467 1.084826 2.410813
v 0.650001 1.375855 4.517425
v 0.649999 2.324778 2.410813
v 0.650001 2.324776 4.517426
v 0.567467 2.615808 2.410813
v 0.567470 2.615807 4.533214
v -0.314920 0.883427 2.410813
v -0.567468 1.084826 2.410813
v -0.000000 1.850317 2.410813
v -0.000000 0.811549 2.410813
v -0.650001 1.375857 2.410813
v 0.314920 0.883427 2.410813
v -0.650001 2.324778 2.410813
v 0.567467 1.084826 2.410813
v -0.567468 2.615809 2.410813
v 0.649999 1.375856 2.410813
v -0.314920 2.817208 2.410813
v 0.649999 2.324778 2.410813
v 0.000000 2.889086 2.410812
v 0.567467 2.615808 2.410813
v 0.314920 2.817208 2.410813
v 2.199000 2.324776 3.992381
v 2.199000 1.375855 3.992379
v 2.076266 2.615807 4.080445
v 2.076266 1.084824 4.080443
v 1.823719 2.817205 4.191545
v 1.508799 2.889084 4.301740
v 1.823719 0.883426 4.191543
v 1.508799 0.811547 4.301740
v 1.193878 2.817205 4.411935
v 0.941332 2.615807 4.480939
v 1.193879 0.883425 4.411935
v 0.941332 1.084824 4.480937
v 0.825000 2.324776 4.496730
v 0.825000 1.375854 4.496728
v -0.825000 1.375854 4.496728
v -0.825000 2.324776 4.496730
v -0.941332 1.084824 4.480937
v -0.941332 2.615807 4.480939
v -1.193879 0.883425 4.411935
v -1.508799 0.811547 4.301740
v -1.193878 2.817205 4.411935
v -1.508799 2.889084 4.301740
v -1.823719 0.883426 4.191543
v -2.076266 1.084824 4.080443
v -1.823719 2.817205 4.191545
v -2.076266 2.615807 4.080445
v -2.199000 1.375855 3.992379
v -2.199000 2.324776 3.992381
v 2.076266 2.615808 2.403178
v 1.823719 2.817205 4.191545
v 2.076266 2.615807 4.080445
v 1.823719 2.817206 2.403178
v 1.508799 2.889084 4.301740
v 1.508798 2.889085 2.403178
v 1.193878 2.817205 4.411935
v 1.193878 2.817207 2.403178
v 0.941332 2.615807 4.480939
v 0.941332 2.615808 2.403178
v 2.076266 2.615807 4.080445
v 2.199000 2.324778 2.403178
v 2.076266 2.615808 2.403178
v 2.199000 2.324776 3.992381
v 2.199000 1.375856 2.403178
v 2.199000 1.375855 3.992379
v 2.076266 1.084825 2.403178
v 2.076266 1.084824 4.080443
v 2.076266 1.084824 4.080443
v 1.823719 0.883426 2.403178
v 2.076266 1.084825 2.403178
v 1.823719 0.883426 4.191543
v 1.508799 0.811548 2.403178
v 1.508799 0.811547 4.301740
v 1.193879 0.883426 2.403178
v 1.193879 0.883425 4.411935
v 0.941332 1.084825 2.403178
v 0.941332 1.084824 4.480937
v 0.941332 1.084824 4.480937
v 0.825000 1.375855 2.403178
v 0.941332 1.084825 2.403178
v 0.825000 1.375854 4.496728
v 0.825000 2.324777 2.403178
v 0.825000 2.324776 4.496730
v 0.941332 2.615808 2.403178
v 0.941332 2.615807 4.480939
v -1.823719 2.817205 4.191545
v -2.076266 2.615808 2.403178
v -2.076266 2.615807 4.080445
v -1.823719 2.817206 2.403178
v -1.508799 2.889084 4.301740
v -1.508798 2.889085 2.403178
v -1.193878 2.817205 4.411935
v -1.193878 2.817207 2.403178
v -0.941332 2.615807 4.480939
v -0.941332 2.615808 2.403178
v -2.199000 2.324778 2.403178
v -2.076266 2.615807 4.080445
v -2.076266 2.615808 2.403178
v -2.199000 2.324776 3.992381
v -2.199000 1.375856 2.403178
v -2.199000 1.375855 3.992379
v -2.076266 1.084825 2.403178
v -2.076266 1.084824 4.080443
v -1.823719 0.883426 2.403178
v -2.076266 1.084824 4.080443
v -2.076266 1.084825 2.403178
v -1.823719 0.883426 4.191543
v -1.508799 0.811548 2.403178
v -1.508799 0.811547 4.301740
v -1.193879 0.883426 2.403178
v -1.193879 0.883425 4.411935
v -0.941332 1.084825 2.403178
v -0.941332 1.084824 4.480937
v -0.825000 1.375855 2.403178
v -0.941332 1.084824 4.480937
v -0.941332 1.084825 2.403178
v -0.825000 1.375854 4.496728
v -0.825000 2.324777 2.403178
v -0.825000 2.324776 4.496730
v -0.941332 2.615808 2.403178
v -0.941332 2.615807 4.480939
v 1.508799 0.811548 2.403178
v 1.193879 0.883426 2.403178
v 1.508799 1.850317 2.403176
v 1.823719 0.883426 2.403178
v 0.941332 1.084825 2.403178
v 2.076266 1.084825 2.403178
v 0.825000 1.375855 2.403178
v 2.199000 1.375856 2.403178
v 0.825000 2.324777 2.403178
v 2.199000 2.324778 2.403178
v 0.941332 2.615808 2.403178
v 2.076266 2.615808 2.403178
v 1.193878 2.817207 2.403178
v 1.823719 2.817206 2.403178
v 1.508798 2.889085 2.403178
v -1.823719 0.883426 2.403178
v -2.076266 1.084825 2.403178
v -1.508799 1.850317 2.403176
v -1.508799 0.811548 2.403178
v -2.199000 1.375856 2.403178
v -1.193879 0.883426 2.403178
v -2.199000 2.324778 2.403178
v -0.941332 1.084825 2.403178
v -2.076266 2.615808 2.403178
v -0.825000 1.375855 2.403178
v -1.823719 2.817206 2.403178
v -0.825000 2.324777 2.403178
v -1.508798 2.889085 2.403178
v -0.941332 2.615808 2.403178
v -1.193878 2.817207 2.403178
v 3.783418 1.452559 3.010290
v 2.969778 1.364724 3.733683
v 3.733210 1.364724 2.970247
v 3.014903 1.452559 3.778807
v 3.864657 1.419009 3.075079
v 3.087916 1.419009 3.851820
v 4.453563 1.419009 2.137838
v 4.359944 1.452559 2.092752
v 4.819149 1.419009 1.093054
v 4.717844 1.452559 1.069933
v 4.943081 1.419009 -0.006888
v 4.839171 1.452558 -0.006884
v 4.819147 1.419008 -1.106825
v 4.717842 1.452558 -1.083704
v 4.453560 1.419008 -2.151609
v 4.359940 1.452558 -2.106524
v 3.864599 1.419008 -3.088930
v 3.783433 1.452558 -3.024027
v 3.080076 1.419007 -3.869326
v 3.015406 1.452557 -3.788012
v 3.733270 1.364723 -2.983912
v 2.975438 1.364722 -3.737757
v 3.864657 1.310438 3.075079
v 3.087916 1.419009 3.851820
v 3.864657 1.419009 3.075079
v 3.087916 1.310438 3.851820
v 3.014903 1.276888 3.778807
v 3.733210 1.364724 2.970247
v 2.969778 1.364724 3.733683
v 3.783418 1.276888 3.010290
v 3.087916 1.310438 3.851820
v 3.864657 1.310438 3.075079
v 4.359944 1.276888 2.092752
v 4.453563 1.310438 2.137838
v 4.717843 1.276888 1.069933
v 4.819149 1.310438 1.093054
v 4.839171 1.276888 -0.006884
v 4.943081 1.310438 -0.006888
v 4.717842 1.276888 -1.083704
v 4.819147 1.310438 -1.106825
v 4.359940 1.276888 -2.106524
v 4.453560 1.310438 -2.151609
v 3.783433 1.276887 -3.024027
v 3.864599 1.310438 -3.088930
v 3.015406 1.276886 -3.788012
v 3.080076 1.310436 -3.869326
v 2.975438 1.364722 -3.737757
v 3.733270 1.364723 -2.983912
v 3.733210 1.364724 2.970247
v 4.359944 1.452559 2.092752
v 3.783418 1.452559 3.010290
v 4.302083 1.364723 2.064890
v 3.783418 1.276888 3.010290
v 4.717844 1.452559 1.069933
v 4.359944 1.276888 2.092752
v 4.655234 1.364723 1.055643
v 4.839171 1.452558 -0.006884
v 4.717843 1.276888 1.069933
v 4.774951 1.364723 -0.006884
v 4.717842 1.452558 -1.083704
v 4.839171 1.276888 -0.006884
v 4.655232 1.364723 -1.069414
v 4.359940 1.452558 -2.106524
v 4.717842 1.276888 -1.083704
v 4.302080 1.364723 -2.078659
v 3.783433 1.452558 -3.024027
v 4.359940 1.276888 -2.106524
v 3.733270 1.364723 -2.983912
v 3.783433 1.276887 -3.024027
v 3.864657 1.419009 3.075079
v 4.453563 1.310438 2.137838
v 3.864657 1.310438 3.075079
v 4.453563 1.419009 2.137838
v 4.819149 1.310438 1.093054
v 4.819149 1.419009 1.093054
v 4.943081 1.310438 -0.006888
v 4.943081 1.419009 -0.006888
v 4.819147 1.310438 -1.106825
v 4.819147 1.419008 -1.106825
v 4.453560 1.310438 -2.151609
v 4.453560 1.419008 -2.151609
v 3.864599 1.310438 -3.088930
v 3.864599 1.419008 -3.088930
v 3.080076 1.310436 -3.869326
v 3.864599 1.419008 -3.088930
v 3.080076 1.419007 -3.869326
v 3.864599 1.310438 -3.088930
v -3.783433 1.452558 -3.024027
v -2.975438 1.364722 -3.737757
v -3.733270 1.364723 -2.983912
v -3.015406 1.452557 -3.788012
v -3.864599 1.419008 -3.088930
v -3.080076 1.419007 -3.869326
v -4.453560 1.419008 -2.151609
v -4.359940 1.452558 -2.106524
v -4.819147 1.419008 -1.106825
v -4.717842 1.452558 -1.083704
v -4.943081 1.419009 -0.006884
v -4.839171 1.452558 -0.006888
v -4.819149 1.419009 1.093054
v -4.717844 1.452559 1.069933
v -4.453563 1.419009 2.137838
v -4.359944 1.452559 2.092752
v -3.864658 1.419009 3.075079
v -3.783418 1.452559 3.010290
v -3.087916 1.419009 3.851820
v -3.014903 1.452559 3.778807
v -3.733209 1.364724 2.970251
v -2.969778 1.364724 3.733683
v -3.864599 1.310438 -3.088930
v -3.080076 1.419007 -3.869326
v -3.864599 1.419008 -3.088930
v -3.080076 1.310436 -3.869326
v -3.015406 1.276886 -3.788012
v -3.733270 1.364723 -2.983912
v -2.975438 1.364722 -3.737757
v -3.783433 1.276887 -3.024027
v -3.080076 1.310436 -3.869326
v -3.864599 1.310438 -3.088930
v -4.359940 1.276888 -2.106524
v -4.453560 1.310438 -2.151609
v -4.717842 1.276888 -1.083704
v -4.819147 1.310438 -1.106825
v -4.839171 1.276888 -0.006888
v -4.943081 1.310438 -0.006884
v -4.717844 1.276888 1.069933
v -4.819149 1.310438 1.093054
v -4.359944 1.276888 2.092752
v -4.453563 1.310438 2.137838
v -3.783418 1.276888 3.010290
v -3.864658 1.310438 3.075079
v -3.014903 1.276888 3.778807
v -3.087916 1.310438 3.851820
v -2.969778 1.364724 3.733683
v -3.733209 1.364724 2.970251
v -3.733270 1.364723 -2.983912
v -4.359940 1.452558 -2.106524
v -3.783433 1.452558 -3.024027
v -4.302080 1.364723 -2.078661
v -3.783433 1.276887 -3.024027
v -4.717842 1.452558 -1.083704
v -4.359940 1.276888 -2.106524
v -4.655232 1.364723 -1.069414
v -4.839171 1.452558 -0.006888
v -4.717842 1.276888 -1.083704
v -4.774951 1.364723 -0.006888
v -4.717844 1.452559 1.069933
v -4.839171 1.276888 -0.006888
v -4.655234 1.364723 1.055643
v -4.359944 1.452559 2.092752
v -4.717844 1.276888 1.069933
v -4.302083 1.364723 2.064890
v -3.783418 1.452559 3.010290
v -4.359944 1.276888 2.092752
v -3.733209 1.364724 2.970251
v -3.783418 1.276888 3.010290
v -3.864599 1.419008 -3.088930
v -4.453560 1.310438 -2.151609
v -3.864599 1.310438 -3.088930
v -4.453560 1.419008 -2.151609
v -4.819147 1.310438 -1.106825
v -4.819147 1.419008 -1.106825
v -4.943081 1.310438 -0.006884
v -4.943081 1.419009 -0.006884
v -4.819149 1.310438 1.093054
v -4.819149 1.419009 1.093054
v -4.453563 1.310438 2.137838
v -4.453563 1.419009 2.137838
v -3.864658 1.310438 3.075079
v -3.864658 1.419009 3.075079
v -3.087916 1.310438 3.851820
v -3.864658 1.419009 3.075079
v -3.087916 1.419009 3.851820
v -3.864658 1.310438 3.075079
v 2.969778 1.364724 3.733683
v 3.087916 1.310438 3.851820
v 3.014903 1.276888 3.778807
v 3.087916 1.419009 3.851820
v 3.014903 1.452559 3.778807
v -3.087916 1.310438 3.851820
v -2.969778 1.364724 3.733683
v -3.014903 1.276888 3.778807
v -3.087916 1.419009 3.851820
v -3.014903 1.452559 3.778807
v -3.466357 1.302595 -3.384142
v 3.466360 1.302594 3.370386
v -3.377262 1.302595 -3.473238
v 3.377265 1.302594 3.459478
v -3.377262 1.302595 -3.473238
v 3.466360 1.428594 3.370386
v -3.377262 1.428595 -3.473238
v 3.466360 1.302594 3.370386
v -3.377262 1.428595 -3.473238
v 3.377265 1.428594 3.459478
v -3.466357 1.428595 -3.384142
v 3.466360 1.428594 3.370386
v -3.466357 1.428595 -3.384142
v 3.377265 1.302594 3.459478
v -3.466357 1.302595 -3.384142
v 3.377265 1.428594 3.459478
v -4.839169 1.302594 0.056120
v 4.839174 1.302594 -0.069880
v -4.839169 1.302594 -0.069880
v 4.839174 1.302594 0.056120
v -4.839169 1.302594 -0.069880
v 4.839174 1.428594 -0.069880
v -4.839169 1.428594 -0.069880
v 4.839174 1.302594 -0.069880
v -4.839169 1.428594 -0.069880
v 4.839174 1.428594 0.056120
v -4.839169 1.428594 0.056120
v 4.839174 1.428594 -0.069880
v -4.839169 1.428594 0.056120
v 4.839174 1.302594 0.056120
v -4.839169 1.302594 0.056120
v 4.839174 1.428594 0.056120
v -3.377262 1.302594 3.459475
v 3.377265 1.302594 -3.473242
v -3.466357 1.302594 3.370378
v 3.466360 1.302594 -3.384146
v -3.466357 1.302594 3.370378
v 3.377265 1.428594 -3.473242
v -3.466357 1.428594 3.370378
v 3.377265 1.302594 -3.473242
v -3.466357 1.428594 3.370378
v 3.466360 1.428594 -3.384146
v -3.377262 1.428594 3.459475
v 3.377265 1.428594 -3.473242
v -3.377262 1.428594 3.459475
v 3.466360 1.302594 -3.384146
v -3.377262 1.302594 3.459475
v 3.466360 1.428594 -3.384146
v 3.015406 1.452557 -3.788012
v 3.080076 1.310436 -3.869326
v 3.080076 1.419007 -3.869326
v 3.015406 1.276886 -3.788012
v 2.975438 1.364722 -3.737757
v -2.975438 1.364722 -3.737757
v -3.080076 1.310436 -3.869326
v -3.015406 1.276886 -3.788012
v -3.080076 1.419007 -3.869326
v -3.015406 1.452557 -3.788012
vn 0.7807 -0.0074 0.6248
vn 0.7807 -0.0037 0.6249
vn 0.7046 -0.0073 0.7096
vn 0.7046 -0.0037 0.7096
vn -0.5320 0.0073 -0.8467
vn -0.4339 0.0074 -0.9009
vn -0.5292 -0.0002 -0.8485
vn -0.2225 0.0074 -0.9749
vn -0.2267 -0.0030 -0.9740
vn -0.0000 0.0134 -0.9999
vn 0.2225 0.0074 -0.9749
vn 0.2267 -0.0030 -0.9740
vn 0.4339 0.0074 -0.9009
vn 0.5320 0.0073 -0.8467
vn 0.5292 -0.0002 -0.8485
vn -0.7046 -0.0037 0.7096
vn -0.7807 -0.0037 0.6249
vn -0.7046 -0.0073 0.7096
vn -0.7807 -0.0074 0.6248
vn 0.9010 -0.0037 0.4339
vn 0.9009 -0.0074 0.4339
vn 0.9749 -0.0037 0.2225
vn 0.9749 -0.0074 0.2225
vn 1.0000 -0.0037 -0.0000
vn 1.0000 -0.0074 -0.0000
vn 0.9749 -0.0074 -0.2225
vn 0.9749 -0.0037 -0.2225
vn 0.9010 -0.0037 -0.4339
vn 0.9009 -0.0074 -0.4339
vn 0.8467 -0.0037 -0.5320
vn 0.8467 -0.0073 -0.5320
vn 0.7052 -0.0037 -0.7090
vn 0.7053 -0.0065 -0.7088
vn 0.6227 -0.0002 -0.7825
vn 0.6230 -0.0000 -0.7822
vn 0.4339 -0.0000 -0.9010
vn 0.2225 -0.0000 -0.9749
vn -0.0000 -0.0000 -1.0000
vn -0.2225 -0.0000 -0.9749
vn -0.4339 -0.0000 -0.9010
vn -0.6227 -0.0002 -0.7825
vn -0.6230 -0.0000 -0.7822
vn -0.7053 -0.0065 -0.7088
vn -0.7052 -0.0037 -0.7090
vn -0.9010 -0.0037 0.4339
vn -0.9009 -0.0074 0.4339
vn -0.9749 -0.0037 0.2225
vn -0.9749 -0.0074 0.2225
vn -1.0000 -0.0037 -0.0000
vn -1.0000 -0.0074 -0.0000
vn -0.9749 -0.0074 -0.2225
vn -0.9749 -0.0037 -0.2225
vn -0.9010 -0.0037 -0.4339
vn -0.9009 -0.0074 -0.4339
vn -0.8467 -0.0037 -0.5320
vn -0.8467 -0.0073 -0.5320
vn 0.7807 -0.0000 0.6249
vn 0.7046 -0.0000 0.7096
vn -0.0000 -0.0184 -0.9998
vn 0.1140 -0.0123 -0.9934
vn -0.0000 -0.0164 -0.9999
vn 0.1146 0.0115 -0.9933
vn -0.0000 0.0151 -0.9999
vn -0.1146 0.0115 -0.9933
vn -0.1140 -0.0123 -0.9934
vn -0.7807 -0.0000 0.6249
vn -0.7046 -0.0000 0.7096
vn 0.9010 -0.0000 0.4339
vn 0.9749 -0.0000 0.2225
vn 1.0000 -0.0000 -0.0000
vn 0.9749 -0.0000 -0.2225
vn 0.9010 -0.0000 -0.4339
vn 0.8467 -0.0000 -0.5320
vn 0.7052 -0.0000 -0.7090
vn 0.6225 -0.0000 -0.7827
vn -0.6225 -0.0000 -0.7827
vn -0.7052 -0.0000 -0.7090
vn -0.9010 -0.0000 0.4339
vn -0.9749 -0.0000 0.2225
vn -1.0000 -0.0000 -0.0000
vn -0.9749 -0.0000 -0.2225
vn -0.9010 -0.0000 -0.4339
vn -0.8467 -0.0000 -0.5320
vn 0.1120 -0.0000 -0.9937
vn -0.1120 -0.0000 -0.9937
vn 0.3303 -0.0000 -0.9439
vn -0.3303 -0.0000 -0.9439
vn 0.1016 0.9515 -0.2904
vn 0.0681 0.9520 -0.2983
vn -0.0000 0.9520 -0.3060
vn -0.0681 0.9520 -0.2983
vn -0.1016 0.9515 -0.2904
vn -0.0000 -1.0000 -0.0000
vn 0.1016 -0.9515 -0.2904
vn 0.0681 -0.9520 -0.2983
vn -0.0000 -0.9520 -0.3060
vn -0.0681 -0.9520 -0.2983
vn -0.1016 -0.9515 -0.2904
vn -0.0000 1.0000 -0.0000
vn -0.7818 -0.0000 -0.6235
vn -0.8957 -0.0000 -0.4446
vn -0.9061 -0.0000 0.4231
vn -0.6327 -0.0000 -0.7744
vn 0.6327 -0.0000 -0.7744
vn -0.6142 -0.0000 0.7892
vn -0.6141 -0.0000 0.7892
vn -0.4339 -0.0000 0.9010
vn -0.0000 -0.0000 1.0000
vn 0.4339 -0.0000 0.9010
vn 0.6141 -0.0000 0.7892
vn 0.6142 -0.0000 0.7892
vn 0.7818 -0.0000 -0.6235
vn 0.8957 -0.0000 -0.4446
vn 0.9061 -0.0000 0.4231
vn 0.9239 -0.0000 -0.3827
vn 0.9239 -0.0000 0.3827
vn 0.3827 -0.0000 -0.9239
vn -0.3827 -0.0000 -0.9239
vn -0.9239 -0.0000 -0.3827
vn -0.9239 -0.0000 0.3827
vn -0.3827 -0.0000 0.9239
vn 0.3827 -0.0000 0.9239
vn -0.0000 0.7170 0.6970
vn 0.1551 0.7170 0.6796
vn -0.1551 0.7170 0.6796
vn 0.3024 0.7170 0.6280
vn -0.3024 0.7170 0.6280
vn -0.3024 0.7168 0.6283
vn 0.4337 0.7170 0.5457
vn -0.4346 0.7153 0.5472
vn 0.4336 0.7170 0.5458
vn -0.4342 0.7153 0.5476
vn 0.5442 0.7171 0.4355
vn -0.5445 0.7169 0.4354
vn 0.5441 0.7170 0.4357
vn -0.5444 0.7170 0.4353
vn 0.6280 0.7170 0.3024
vn -0.6280 0.7170 0.3024
vn 0.6796 0.7170 0.1551
vn -0.6796 0.7170 0.1551
vn 0.6971 0.7170 -0.0000
vn -0.6971 0.7170 -0.0000
vn 0.6796 0.7170 -0.1551
vn -0.6796 0.7170 -0.1551
vn 0.6280 0.7170 -0.3024
vn -0.6280 0.7170 -0.3024
vn 0.5444 0.7171 -0.4353
vn -0.5444 0.7171 -0.4353
vn 0.4339 0.7170 -0.5456
vn -0.4339 0.7170 -0.5456
vn 0.3024 0.7170 -0.6280
vn -0.3024 0.7170 -0.6280
vn 0.1551 0.7170 -0.6796
vn -0.1551 0.7170 -0.6796
vn -0.0000 0.7170 -0.6970
vn -0.0771 0.9951 -0.0614
vn -0.0956 0.9952 -0.0218
vn -0.0961 0.9951 0.0219
vn -0.0425 0.9952 -0.0883
vn -0.0766 0.9952 0.0611
vn -0.0000 0.9951 -0.0986
vn -0.0428 0.9951 0.0888
vn 0.0425 0.9952 -0.0883
vn -0.0000 0.9952 0.0980
vn 0.0771 0.9951 -0.0614
vn 0.0428 0.9951 0.0888
vn 0.0956 0.9952 -0.0218
vn 0.0766 0.9952 0.0611
vn 0.0961 0.9951 0.0219
vn 0.6559 0.7043 -0.2717
vn 0.6559 0.7043 0.2717
vn 0.2717 0.7043 -0.6559
vn 0.2717 0.7043 0.6559
vn -0.2717 0.7043 0.6559
vn -0.2717 0.7043 -0.6559
vn -0.6559 0.7043 0.2717
vn -0.6559 0.7043 -0.2717
vn 0.6235 -0.7818 -0.0000
vn 0.4210 -0.9071 -0.0000
vn 0.4339 -0.9010 -0.0000
vn -0.4210 -0.9071 -0.0000
vn -0.4339 -0.9010 -0.0000
vn -0.6235 -0.7818 -0.0000
vn 0.9621 -0.2728 -0.0000
vn 0.9905 -0.1377 -0.0000
vn 0.9902 -0.1400 -0.0000
vn 0.9905 0.1377 -0.0000
vn 0.9902 0.1400 -0.0000
vn 0.9621 0.2728 -0.0000
vn 0.6235 0.7818 -0.0000
vn 0.4339 0.9010 -0.0000
vn 0.4210 0.9071 -0.0000
vn -0.4339 0.9010 -0.0000
vn -0.4210 0.9071 -0.0000
vn -0.6235 0.7818 -0.0000
vn -0.4323 -0.0056 -0.9017
vn 0.4323 -0.0056 -0.9017
vn -0.5267 0.0075 -0.8500
vn -0.5254 0.0089 -0.8508
vn -0.5253 -0.0092 -0.8509
vn -0.5044 0.0228 -0.8632
vn -0.5041 -0.0236 -0.8633
vn -0.4312 0.0168 -0.9021
vn -0.3513 0.0254 -0.9359
vn -0.3302 0.0154 -0.9438
vn -0.3496 -0.0271 -0.9365
vn -0.3302 -0.0175 -0.9437
vn -0.2300 0.0118 -0.9731
vn -0.3121 0.0238 -0.9498
vn -0.1859 0.0203 -0.9824
vn -0.3144 -0.0250 -0.9490
vn 0.3136 -0.0255 -0.9492
vn 0.3302 -0.0175 -0.9437
vn 0.3121 0.0238 -0.9498
vn 0.2300 0.0118 -0.9731
vn 0.1650 0.0154 -0.9862
vn 0.3302 0.0154 -0.9438
vn 0.3496 -0.0271 -0.9365
vn 0.5041 -0.0236 -0.8633
vn 0.4312 0.0168 -0.9021
vn 0.3513 0.0254 -0.9359
vn 0.5044 0.0228 -0.8632
vn 0.5267 0.0075 -0.8500
vn 0.5253 -0.0092 -0.8509
vn 0.5254 0.0089 -0.8508
vn 0.3902 0.9207 -0.0000
vn -0.0477 0.9989 -0.0000
vn -0.4702 0.8826 -0.0000
vn 0.9214 0.3886 -0.0000
vn 0.9802 0.1982 -0.0000
vn 0.9768 0.2140 -0.0000
vn 0.9802 -0.1982 -0.0000
vn 0.9768 -0.2140 -0.0000
vn 0.9214 -0.3886 -0.0000
vn -0.3902 0.9207 -0.0000
vn 0.0477 0.9989 -0.0000
vn 0.4702 0.8826 -0.0000
vn -0.9286 -0.3712 -0.0000
vn -0.9820 -0.1890 -0.0000
vn -0.9826 -0.1859 -0.0000
vn -0.9820 0.1890 -0.0000
vn -0.9826 0.1859 -0.0000
vn -0.9286 0.3712 -0.0000
vn -0.9214 0.3886 -0.0000
vn -0.9802 0.1982 -0.0000
vn -0.9768 0.2140 -0.0000
vn -0.9802 -0.1982 -0.0000
vn -0.9768 -0.2140 -0.0000
vn -0.9214 -0.3886 -0.0000
vn -0.1165 0.0057 -0.9932
vn -0.1275 -0.0041 -0.9918
vn 0.1275 -0.0041 -0.9918
vn 0.1165 0.0057 -0.9932
vn 0.1163 -0.0055 -0.9932
vn 0.1274 0.0038 -0.9918
vn -0.1274 0.0038 -0.9918
vn -0.1163 -0.0055 -0.9932
vn -0.1385 0.0132 -0.9903
vn 0.1351 0.0104 -0.9908
vn 0.1318 0.0077 -0.9912
vn 0.1252 0.0041 -0.9921
vn 0.1254 0.0042 -0.9921
vn 0.1175 -0.0000 -0.9931
vn 0.1879 -0.0202 -0.9820
vn 0.1351 -0.0108 -0.9908
vn 0.1385 -0.0140 -0.9903
vn 0.2126 -0.0232 -0.9769
vn 0.1318 -0.0076 -0.9912
vn 0.2919 -0.0386 -0.9557
vn -0.2159 -0.0264 -0.9761
vn -0.2919 -0.0386 -0.9557
vn -0.1385 -0.0140 -0.9903
vn 0.1318 0.0077 0.9912
vn 0.1246 0.0038 0.9922
vn 0.1174 -0.0000 0.9931
vn 0.1318 -0.0076 0.9912
vn -0.7818 -0.0001 -0.6235
vn -0.7071 -0.0001 -0.7071
vn -0.6608 0.4143 -0.6259
vn -0.5721 0.5878 -0.5721
vn 0.1108 0.9303 0.3497
vn 0.2185 0.9511 0.2185
vn 0.6428 0.5693 0.5126
vn 0.5721 0.5877 0.5721
vn 0.7407 0.5693 0.3567
vn -0.2430 0.9629 -0.1171
vn 0.8015 0.5693 0.1829
vn -0.2629 0.9629 -0.0601
vn 0.8221 0.5693 -0.0000
vn -0.2697 0.9629 -0.0000
vn 0.8015 0.5693 -0.1830
vn -0.2630 0.9629 0.0600
vn 0.7407 0.5693 -0.3568
vn -0.2430 0.9629 0.1170
vn 0.6422 0.5691 -0.5136
vn 0.1131 0.9311 -0.3468
vn 0.5809 0.5671 -0.5839
vn 0.2179 0.9511 -0.2191
vn -0.6577 0.4181 0.6266
vn -0.5705 0.5878 0.5736
vn -0.7810 -0.0001 0.6245
vn -0.7052 -0.0001 0.7090
vn 0.6427 0.5694 0.5125
vn 0.5721 0.5878 0.5720
vn 0.6427 -0.5694 0.5125
vn 0.5721 -0.5878 0.5720
vn -0.7071 0.0001 -0.7071
vn -0.7818 0.0001 -0.6235
vn -0.5721 -0.5878 -0.5721
vn -0.6592 -0.4180 -0.6250
vn 0.2185 -0.9511 0.2185
vn 0.1135 -0.9311 0.3466
vn 0.5721 -0.5877 0.5721
vn 0.6428 -0.5693 0.5126
vn -0.2430 -0.9629 -0.1170
vn 0.7407 -0.5693 0.3568
vn -0.2630 -0.9629 -0.0600
vn 0.8015 -0.5693 0.1830
vn -0.2697 -0.9629 -0.0000
vn 0.8221 -0.5693 -0.0000
vn -0.2629 -0.9629 0.0601
vn 0.8015 -0.5693 -0.1829
vn -0.2430 -0.9629 0.1171
vn 0.7407 -0.5693 -0.3567
vn 0.1103 -0.9303 -0.3498
vn 0.6422 -0.5691 -0.5135
vn 0.2179 -0.9511 -0.2191
vn 0.5809 -0.5671 -0.5839
vn -0.5705 -0.5878 0.5736
vn -0.6593 -0.4144 0.6274
vn -0.7052 0.0001 0.7090
vn -0.7810 0.0001 0.6245
vn -0.2108 0.9630 -0.1680
vn -0.2429 0.9630 -0.1170
vn -0.6147 0.6400 -0.4610
vn -0.7273 0.5902 -0.3503
vn -0.6147 -0.6400 -0.4610
vn -0.7273 -0.5902 -0.3503
vn -0.2108 -0.9630 -0.1681
vn -0.2628 0.9630 -0.0600
vn -0.2429 -0.9630 -0.1169
vn -0.7870 0.5902 -0.1796
vn -0.7870 -0.5902 -0.1796
vn -0.2696 0.9630 -0.0000
vn -0.2629 -0.9630 -0.0600
vn -0.8073 0.5902 -0.0000
vn -0.8072 -0.5902 -0.0000
vn -0.2629 0.9630 0.0600
vn -0.2696 -0.9630 -0.0000
vn -0.7870 0.5902 0.1796
vn -0.7870 -0.5902 0.1796
vn -0.2429 0.9630 0.1169
vn -0.2628 -0.9630 0.0600
vn -0.7273 0.5902 0.3503
vn -0.7273 -0.5902 0.3503
vn -0.2102 0.9631 0.1681
vn -0.2429 -0.9630 0.1170
vn -0.6139 0.6406 0.4613
vn -0.6139 -0.6406 0.4613
vn -0.2102 -0.9631 0.1681
vn 0.6427 -0.5694 0.5126
vn 0.7407 -0.5694 0.3567
vn 0.6427 0.5694 0.5126
vn 0.7406 0.5694 0.3567
vn 0.8015 -0.5694 0.1828
vn 0.8014 0.5694 0.1831
vn 0.8221 -0.5694 -0.0000
vn 0.8221 0.5694 -0.0000
vn 0.8014 -0.5694 -0.1830
vn 0.8015 0.5694 -0.1829
vn 0.7407 0.5694 -0.3567
vn 0.6422 -0.5692 -0.5135
vn 0.6421 0.5692 -0.5135
vn 0.5808 0.5672 -0.5839
vn 0.5808 -0.5672 -0.5839
vn 0.6421 -0.5692 -0.5135
vn 0.7810 -0.0001 0.6245
vn 0.7052 -0.0001 0.7090
vn 0.6593 0.4144 0.6274
vn 0.5705 0.5878 0.5736
vn -0.1104 0.9303 -0.3498
vn -0.2179 0.9511 -0.2191
vn -0.6422 0.5691 -0.5135
vn -0.5809 0.5671 -0.5839
vn -0.7407 0.5693 -0.3567
vn 0.2430 0.9629 0.1171
vn -0.8015 0.5693 -0.1829
vn 0.2629 0.9629 0.0601
vn -0.8221 0.5693 -0.0000
vn 0.2697 0.9629 -0.0000
vn -0.8015 0.5693 0.1830
vn 0.2630 0.9629 -0.0600
vn -0.7407 0.5693 0.3568
vn 0.2430 0.9629 -0.1170
vn -0.6428 0.5693 0.5126
vn -0.1135 0.9311 0.3466
vn -0.5721 0.5877 0.5721
vn -0.2185 0.9511 0.2185
vn 0.6592 0.4180 -0.6251
vn 0.5721 0.5878 -0.5721
vn 0.7818 -0.0001 -0.6235
vn 0.7071 -0.0001 -0.7071
vn -0.6421 0.5692 -0.5135
vn -0.5808 0.5672 -0.5839
vn -0.6421 -0.5692 -0.5135
vn -0.5808 -0.5672 -0.5839
vn 0.7052 0.0001 0.7090
vn 0.7810 0.0001 0.6245
vn 0.5705 -0.5878 0.5736
vn 0.6577 -0.4181 0.6266
vn -0.2179 -0.9511 -0.2191
vn -0.1131 -0.9311 -0.3468
vn -0.5809 -0.5671 -0.5839
vn -0.6422 -0.5691 -0.5136
vn 0.2430 -0.9629 0.1170
vn -0.7407 -0.5693 -0.3568
vn 0.2630 -0.9629 0.0600
vn -0.8015 -0.5693 -0.1830
vn 0.2697 -0.9629 -0.0000
vn -0.8221 -0.5693 -0.0000
vn 0.2629 -0.9629 -0.0601
vn -0.8015 -0.5693 0.1829
vn 0.2430 -0.9629 -0.1171
vn -0.7407 -0.5693 0.3567
vn -0.1108 -0.9303 0.3497
vn -0.6428 -0.5693 0.5126
vn -0.2185 -0.9511 0.2185
vn -0.5721 -0.5877 0.5721
vn 0.5721 -0.5878 -0.5721
vn 0.6608 -0.4143 -0.6259
vn 0.7071 0.0001 -0.7071
vn 0.7818 0.0001 -0.6235
vn 0.2102 0.9631 0.1680
vn 0.2429 0.9630 0.1170
vn 0.6139 0.6406 0.4613
vn 0.7273 0.5902 0.3503
vn 0.6139 -0.6406 0.4613
vn 0.7273 -0.5902 0.3503
vn 0.2102 -0.9631 0.1681
vn 0.2628 0.9630 0.0600
vn 0.2429 -0.9630 0.1169
vn 0.7870 0.5902 0.1796
vn 0.7870 -0.5902 0.1796
vn 0.2696 0.9630 -0.0000
vn 0.2629 -0.9630 0.0600
vn 0.8072 0.5902 -0.0000
vn 0.8072 -0.5902 -0.0000
vn 0.2629 0.9630 -0.0600
vn 0.2696 -0.9630 -0.0000
vn 0.7870 0.5902 -0.1796
vn 0.7870 -0.5902 -0.1796
vn 0.2429 0.9630 -0.1169
vn 0.2628 -0.9630 -0.0600
vn 0.7273 0.5902 -0.3503
vn 0.7273 -0.5902 -0.3503
vn 0.2108 0.9630 -0.1681
vn 0.2429 -0.9630 -0.1170
vn 0.6147 0.6400 -0.4610
vn 0.6147 -0.6400 -0.4610
vn 0.2108 -0.9630 -0.1681
vn -0.6422 -0.5692 -0.5135
vn -0.7407 -0.5693 -0.3567
vn -0.7407 0.5694 -0.3567
vn -0.8015 -0.5693 -0.1829
vn -0.8015 0.5694 -0.1829
vn -0.8221 0.5694 -0.0000
vn -0.8015 -0.5694 0.1830
vn -0.8015 0.5694 0.1828
vn -0.7406 -0.5694 0.3567
vn -0.7407 0.5694 0.3567
vn -0.6427 -0.5694 0.5126
vn -0.6427 0.5694 0.5126
vn -0.5721 0.5878 0.5720
vn -0.6427 0.5694 0.5125
vn -0.5721 -0.5878 0.5720
vn -0.6427 -0.5694 0.5125
vn -0.7071 -0.0000 0.7071
vn 0.7071 -0.0000 0.7071
vn 0.7071 -0.0000 -0.7071
vn -0.7071 -0.0000 -0.7071
vn -0.7827 -0.0000 -0.6225
vn 0.7827 -0.0000 -0.6225
vt 0.554429 0.505818
vt 0.554445 0.508622
vt 0.543406 0.505818
vt 0.543419 0.508622
vt 0.530206 0.505818
vt 0.515491 0.505818
vt 0.515496 0.508622
vt 0.500000 0.505818
vt 0.484508 0.505818
vt 0.484504 0.508622
vt 0.469794 0.505818
vt 0.456594 0.505818
vt 0.456581 0.508622
vt 0.445554 0.508622
vt 0.445571 0.505818
vt 1.474600 0.508622
vt 1.474613 0.505818
vt 1.487834 0.508622
vt 1.487843 0.505818
vt 1.502586 0.508622
vt 1.502591 0.505818
vt 1.518118 0.508622
vt 1.518118 0.505818
vt 1.533644 0.505818
vt 1.533649 0.508622
vt 1.548401 0.508622
vt 1.548392 0.505818
vt 1.561635 0.508622
vt 1.561622 0.505818
vt 0.445555 0.508622
vt 0.445571 0.505818
vt 0.456607 0.508622
vt 0.456607 0.505818
vt 0.469803 0.505818
vt 0.469803 0.508622
vt 0.484513 0.505818
vt 0.484513 0.508622
vt 0.500000 0.505818
vt 0.500000 0.508622
vt 0.515487 0.508622
vt 0.515487 0.505818
vt 0.530197 0.508622
vt 0.530197 0.505818
vt 0.543393 0.508622
vt 0.543393 0.505818
vt 0.554429 0.505818
vt 0.554445 0.508622
vt -0.474600 0.508622
vt -0.487834 0.508622
vt -0.474613 0.505818
vt -0.487843 0.505818
vt -0.502586 0.508622
vt -0.502591 0.505818
vt -0.518118 0.508622
vt -0.518118 0.505818
vt -0.533644 0.505818
vt -0.533649 0.508622
vt -0.548401 0.508622
vt -0.548392 0.505818
vt -0.561635 0.508622
vt -0.561622 0.505818
vt 0.554445 0.547889
vt 0.543419 0.547889
vt 0.500000 1.448321
vt 0.504771 1.448860
vt 0.000000 0.000000
vt 0.495229 1.448860
vt 0.500000 1.448321
vt 0.504770 1.448860
vt 0.495230 1.448860
vt 0.445554 0.547889
vt 0.456581 0.547889
vt 1.474600 0.547889
vt 1.487834 0.547889
vt 1.502586 0.547889
vt 1.518118 0.547889
vt 1.533649 0.547889
vt 1.548401 0.547889
vt 1.561635 0.547889
vt 0.445555 0.547889
vt 0.456607 0.547889
vt 0.469803 0.547889
vt 0.484513 0.547889
vt 0.500000 0.547889
vt 0.515487 0.547889
vt 0.530197 0.547889
vt 0.543393 0.547889
vt 0.554445 0.547889
vt -0.474600 0.547889
vt -0.487834 0.547889
vt -0.502586 0.547889
vt -0.518118 0.547889
vt -0.533649 0.547889
vt -0.548401 0.547889
vt -0.561635 0.547889
vt 0.484513 0.512340
vt 0.500000 0.512340
vt 0.484513 0.544171
vt 0.500000 0.544171
vt 0.515487 0.544171
vt 0.515487 0.512340
vt 1.589332 0.512340
vt 1.589332 0.544171
vt 1.586124 0.512340
vt 1.586124 0.544171
vt -0.589332 0.544171
vt -0.589332 0.512340
vt -0.586124 0.544171
vt -0.586124 0.512340
vt 0.468010 0.543380
vt 0.483594 0.543380
vt 0.468010 0.545156
vt 0.483594 0.545156
vt 0.500000 0.543380
vt 0.500000 0.545156
vt 0.516406 0.543380
vt 0.516406 0.545156
vt 0.531990 0.543380
vt 0.531990 0.545156
vt 0.531990 1.584696
vt 0.516406 1.590161
vt 0.529770 1.580077
vt 0.515268 1.585163
vt 0.500000 1.592014
vt 0.500000 1.586887
vt 0.483594 1.590161
vt 0.484732 1.585163
vt 0.468010 1.584696
vt 0.470230 1.580077
vt 0.531990 1.584696
vt 0.516406 1.590161
vt 0.529770 1.580077
vt 0.515268 1.585163
vt 0.500000 1.592014
vt 0.500000 1.586887
vt 0.483594 1.590161
vt 0.484732 1.585163
vt 0.468010 1.584696
vt 0.470230 1.580077
vt 1.580077 0.546798
vt 1.580077 0.543380
vt 1.584696 0.545156
vt 1.584696 0.543380
vt -0.580077 0.546798
vt -0.584696 0.545156
vt -0.580077 0.543380
vt -0.584696 0.543380
vt 0.468010 0.512767
vt 0.468010 0.510991
vt 0.483594 0.512767
vt 0.483594 0.510991
vt 0.500000 0.512767
vt 0.500000 0.510991
vt 0.516406 0.512767
vt 0.516406 0.510991
vt 0.531990 0.512767
vt 0.531990 0.510991
vt 0.516406 1.590161
vt 0.483594 1.590161
vt 1.584696 0.512767
vt 1.580077 0.512767
vt 1.584696 0.510991
vt 1.580077 0.509349
vt -0.584696 0.512767
vt -0.584696 0.510991
vt -0.580077 0.512767
vt -0.580077 0.509349
vt -0.556689 0.548231
vt -0.551262 0.548231
vt -0.556689 0.555460
vt -0.551262 0.555460
vt -0.544495 0.548231
vt -0.544495 0.555460
vt -0.555166 0.555460
vt -0.551522 0.555460
vt -0.555166 0.557783
vt -0.551522 0.557783
vt -0.547454 0.557783
vt -0.547454 0.555460
vt -0.543768 0.555460
vt -0.543768 0.557783
vt 0.507111 0.555460
vt 0.507111 0.557783
vt 0.503968 0.555460
vt 0.503968 0.557783
vt 0.500000 0.557783
vt 0.500000 0.555460
vt 0.496033 0.555460
vt 0.496033 0.557783
vt 0.492889 0.557783
vt 0.492889 0.555460
vt 0.492851 0.557783
vt 0.492851 0.555460
vt 0.496054 0.557783
vt 0.496054 0.555460
vt 0.500000 0.555460
vt 0.500000 0.557783
vt 0.503946 0.557783
vt 0.503946 0.555460
vt 0.507149 0.555460
vt 0.507149 0.557783
vt 1.556689 0.548231
vt 1.556689 0.555460
vt 1.551262 0.548231
vt 1.551262 0.555460
vt 1.544495 0.548231
vt 1.544495 0.555460
vt 1.555166 0.555460
vt 1.555166 0.557783
vt 1.551522 0.555460
vt 1.551522 0.557783
vt 1.547454 0.557783
vt 1.547454 0.555460
vt 1.543768 0.555460
vt 1.543768 0.557783
vt 0.503463 0.548231
vt 0.503463 0.555460
vt 0.496538 0.548231
vt 0.496538 0.555460
vt 0.564292 1.503410
vt 0.565945 1.518118
vt 0.559414 1.489440
vt 0.564292 1.532825
vt 0.559414 1.546795
vt 0.551558 1.476908
vt 0.551560 1.559323
vt 0.541116 1.466442
vt 0.541094 1.569758
vt 0.528612 1.458568
vt 0.528595 1.577630
vt 0.514674 1.453680
vt 0.514665 1.582515
vt 0.500000 1.584172
vt 0.500000 1.452022
vt 0.485326 1.453680
vt 0.485335 1.582515
vt 0.471387 1.458568
vt 0.471405 1.577630
vt 0.458884 1.466442
vt 0.458905 1.569758
vt 0.448442 1.476908
vt 0.448439 1.559323
vt 0.440585 1.489440
vt 0.440585 1.546795
vt 0.435708 1.503410
vt 0.434055 1.518118
vt 0.435708 1.532825
vt 1.568523 0.554714
vt 1.564235 0.554714
vt 1.568523 0.541866
vt 1.564235 0.541866
vt 1.559947 0.554714
vt 1.559947 0.541866
vt 0.518578 0.541866
vt 0.522856 0.541866
vt 0.518578 0.554714
vt 0.522856 0.554714
vt 0.527134 0.541866
vt 0.527134 0.554714
vt -0.568523 0.541866
vt -0.564235 0.541866
vt -0.568523 0.554714
vt -0.564235 0.554714
vt -0.559947 0.541866
vt -0.559947 0.554714
vt 0.472866 0.541866
vt 0.477144 0.541866
vt 0.472866 0.554714
vt 0.477144 0.554714
vt 0.481422 0.541866
vt 0.481422 0.554714
vt 0.472867 0.541866
vt 0.477145 0.541866
vt 0.472867 0.554714
vt 0.477145 0.554714
vt 0.481423 0.541866
vt 0.481423 0.554714
vt -0.559947 0.541866
vt 0.518577 0.541866
vt 0.522855 0.541866
vt 0.518577 0.554714
vt 0.522855 0.554714
vt 0.527133 0.541866
vt 0.527133 0.554714
vt 0.451801 0.554895
vt 0.445539 0.554895
vt 0.451801 0.547123
vt 0.445539 0.547123
vt 1.527141 0.547123
vt 1.527141 0.554895
vt 1.518638 0.547123
vt 1.518638 0.554895
vt 0.554461 1.527141
vt 0.548199 1.527141
vt 0.554461 1.518638
vt 0.548199 1.518638
vt -0.518638 0.554895
vt -0.527141 0.554895
vt -0.518638 0.547123
vt -0.527141 0.547123
vt 0.554461 0.547123
vt 0.554461 0.554895
vt 0.548199 0.547123
vt 0.548199 0.554895
vt -0.527141 0.554895
vt -0.518638 0.547123
vt 0.451801 1.518638
vt 0.451801 1.527141
vt 0.445539 1.518638
vt 0.445539 1.527141
vt 1.527141 0.554895
vt 1.518638 0.547123
vt 0.515496 1.450071
vt 0.484504 1.450071
vt 0.530215 1.455233
vt 0.469785 1.455233
vt 0.543419 1.463548
vt 0.456581 1.463548
vt 0.554445 1.474600
vt 0.445554 1.474600
vt 0.562742 1.487834
vt 0.437258 1.487834
vt 0.567892 1.502586
vt 0.432108 1.502586
vt 0.569638 1.518118
vt 0.430362 1.518118
vt 0.567892 1.533649
vt 0.432108 1.533649
vt 0.562742 1.548401
vt 0.437258 1.548401
vt 0.554445 1.561635
vt 0.445555 1.561635
vt 0.543393 1.572654
vt 0.456607 1.572654
vt 0.530197 1.580965
vt 0.469803 1.580965
vt 0.515487 1.586124
vt 0.484513 1.586124
vt 0.500000 1.587873
vt 0.500000 1.549482
vt 0.507111 1.555166
vt 0.503968 1.557740
vt 0.500000 1.558598
vt 0.508915 1.551522
vt 0.496033 1.557740
vt 0.508867 1.547454
vt 0.492889 1.555166
vt 0.507149 1.543768
vt 0.491085 1.551522
vt 0.503946 1.541270
vt 0.491133 1.547454
vt 0.500000 1.540317
vt 0.492851 1.543768
vt 0.496054 1.541270
vt 0.500000 1.549482
vt 0.492889 1.555166
vt 0.491085 1.551522
vt 0.491133 1.547454
vt 0.496032 1.557740
vt 0.492851 1.543768
vt 0.500000 1.558598
vt 0.496054 1.541270
vt 0.503967 1.557740
vt 0.500000 1.540317
vt 0.507111 1.555166
vt 0.503946 1.541270
vt 0.508915 1.551522
vt 0.507149 1.543768
vt 0.508867 1.547454
vt 0.480591 1.564235
vt 0.483195 1.564235
vt 0.479582 1.566678
vt 0.481422 1.568523
vt 0.481422 1.559947
vt 0.477144 1.567690
vt 0.477144 1.570299
vt 0.479582 1.561792
vt 0.477144 1.558171
vt 0.477144 1.560780
vt 0.472866 1.559947
vt 0.474707 1.566678
vt 0.472866 1.568523
vt 0.474707 1.561792
vt 0.471094 1.564235
vt 0.473697 1.564235
vt 0.526302 1.564235
vt 0.528906 1.564235
vt 0.525293 1.566678
vt 0.527133 1.568523
vt 0.527133 1.559947
vt 0.522855 1.567690
vt 0.522855 1.570299
vt 0.525293 1.561792
vt 0.522855 1.558171
vt 0.522855 1.560780
vt 0.518577 1.559947
vt 0.520418 1.566678
vt 0.518577 1.568523
vt 0.520418 1.561792
vt 0.516805 1.564235
vt 0.519408 1.564235
vt 0.493761 0.548231
vt 0.500000 0.548231
vt 0.493761 0.555460
vt 0.506239 0.555460
vt 0.506239 0.548231
vt 0.554461 0.554895
vt 0.548199 0.554895
vt 0.451801 0.554895
vt 0.445539 0.547123
vt 0.445539 0.554895
vt 0.508596 1.449292
vt 0.508596 1.481515
vt 0.504771 1.481515
vt 0.500000 1.481515
vt 0.495230 1.481515
vt 0.491404 1.449292
vt 0.491404 1.481515
vt 1.481515 0.539581
vt 1.449292 0.539581
vt 1.481515 0.535177
vt 1.449531 0.535177
vt 1.481515 0.520819
vt 1.449531 0.520819
vt 1.481515 0.516415
vt 1.449292 0.516415
vt 0.491404 1.481515
vt 0.491404 1.449292
vt 0.495229 1.481515
vt 0.500000 1.481515
vt 0.504770 1.481515
vt 0.508596 1.481515
vt 0.508596 1.449292
vt -0.481515 0.516415
vt -0.481515 0.520819
vt -0.449292 0.516415
vt -0.449532 0.520819
vt -0.481515 0.535177
vt -0.449531 0.535177
vt -0.481515 0.539581
vt -0.449292 0.539581
vt 0.500000 0.527998
vt 0.491404 0.516415
vt 0.495229 0.513368
vt 0.500000 0.512280
vt 0.489281 0.520819
vt 0.504770 0.513368
vt 0.489281 0.535177
vt 0.508596 0.516415
vt 0.491404 0.539581
vt 0.510719 0.520819
vt 0.495229 0.542629
vt 0.510719 0.535177
vt 0.500000 0.543716
vt 0.508596 0.539581
vt 0.504770 0.542629
vt 0.511986 0.508873
vt 0.525190 0.508872
vt 0.511977 0.506069
vt 0.517600 0.508901
vt 0.517591 0.506098
vt 0.502881 0.508901
vt 0.482400 0.508901
vt 0.497119 0.508901
vt 0.482409 0.506098
vt 0.488014 0.508872
vt 0.488023 0.506069
vt 0.474810 0.508872
vt 0.525189 0.547889
vt 0.525189 0.508622
vt 0.515345 0.535177
vt 0.515345 0.520819
vt 0.515345 0.535177
vt 0.525189 0.508622
vt 0.525189 0.547889
vt 0.515345 0.535177
vt 0.513222 0.539581
vt 0.513222 0.516415
vt 0.515345 0.520819
vt 0.525189 0.508622
vt 0.525189 0.547889
vt 0.513222 0.539581
vt 0.511985 0.547889
vt 0.513322 0.543724
vt 0.515911 0.548984
vt 0.517148 0.540676
vt 0.510240 0.543716
vt 0.517599 0.547889
vt 0.515010 0.542629
vt 0.525189 0.508622
vt 0.511985 0.508622
vt 0.513222 0.516415
vt 0.513371 0.512188
vt 0.517197 0.515235
vt 0.515960 0.507442
vt 0.515010 0.513368
vt 0.517599 0.508622
vt 0.510240 0.512280
vt 0.502881 0.547889
vt 0.517600 0.547889
vt 0.510240 0.543716
vt 0.505469 0.542629
vt 0.502880 0.547889
vt 0.510240 0.543716
vt 0.507116 0.543635
vt 0.503290 0.540588
vt 0.504527 0.548895
vt 0.517600 0.508622
vt 0.502881 0.508622
vt 0.510240 0.512280
vt 0.510240 0.512280
vt 0.502881 0.508622
vt 0.505470 0.513367
vt 0.494530 0.513367
vt 0.497119 0.508622
vt 0.489760 0.512280
vt 0.492884 0.543635
vt 0.495473 0.548895
vt 0.496710 0.540588
vt 0.489760 0.543716
vt 0.497119 0.547889
vt 0.494530 0.542628
vt 0.489760 0.512280
vt 0.497119 0.508622
vt 0.482400 0.508622
vt 0.489760 0.512280
vt 0.482400 0.508622
vt 0.484989 0.513368
vt 0.486629 0.512188
vt 0.484040 0.507442
vt 0.482803 0.515235
vt 0.489760 0.543716
vt 0.482400 0.547889
vt 0.497119 0.547889
vt 0.484989 0.542629
vt 0.482400 0.547889
vt 0.489760 0.543716
vt 0.486677 0.543724
vt 0.482852 0.540676
vt 0.484089 0.548984
vt 0.474811 0.508622
vt 0.486778 0.516415
vt 0.488015 0.508622
vt 0.474811 0.547889
vt 0.488015 0.547889
vt 0.486778 0.539581
vt 0.474811 0.508622
vt 0.484655 0.520819
vt 0.486778 0.516415
vt 0.484655 0.520819
vt 0.474811 0.508622
vt 0.484655 0.535177
vt 0.486778 0.539581
vt 0.484655 0.535177
vt 0.474811 0.547889
vt 0.474811 0.547889
vt 0.484655 0.535177
vt 0.474811 0.508622
vt 0.468549 1.719105
vt 0.468549 1.744570
vt 0.472374 1.717418
vt 0.472374 1.744570
vt 0.472374 1.717418
vt 0.468548 1.744570
vt 0.472374 1.717418
vt 0.472374 1.744570
vt 0.477145 1.715745
vt 0.477145 1.744570
vt 0.477145 1.715745
vt 0.472374 1.744570
vt 0.477145 1.715745
vt 0.477145 1.744570
vt 0.481915 1.714072
vt 0.481915 1.744570
vt 0.481915 1.714071
vt 0.477145 1.744570
vt 0.481915 1.714072
vt 0.481915 1.744569
vt 0.485741 1.713024
vt 0.485741 1.744570
vt 0.485741 1.713024
vt 0.481915 1.744570
vt -0.744570 0.539581
vt -0.719105 0.539581
vt -0.744570 0.535177
vt -0.720442 0.535177
vt -0.744570 0.535177
vt -0.744570 0.535177
vt -0.720442 0.535177
vt -0.744570 0.520819
vt -0.720442 0.520819
vt -0.744570 0.520819
vt -0.720442 0.535177
vt -0.744570 0.520819
vt -0.720442 0.520819
vt -0.744570 0.516415
vt -0.719105 0.516415
vt -0.744570 0.516415
vt -0.720442 0.520819
vt 0.531452 1.744570
vt 0.527626 1.744570
vt 0.531451 1.719105
vt 0.527626 1.717418
vt 0.531451 1.719105
vt 0.527626 1.744570
vt 0.527626 1.744570
vt 0.522855 1.744570
vt 0.527626 1.717418
vt 0.522855 1.715745
vt 0.527626 1.717418
vt 0.518085 1.744570
vt 0.522855 1.715744
vt 0.518085 1.714072
vt 0.522855 1.715745
vt 0.518085 1.744570
vt 0.518085 1.744570
vt 0.514259 1.744570
vt 0.518085 1.714072
vt 0.514259 1.713024
vt 0.518085 1.714072
vt 0.514259 1.744570
vt 1.744570 0.516415
vt 1.713024 0.516415
vt 1.744570 0.520819
vt 1.712784 0.520819
vt 1.744570 0.520819
vt 1.713024 0.516415
vt 1.744570 0.520819
vt 1.712785 0.520819
vt 1.744570 0.535177
vt 1.712785 0.535178
vt 1.744570 0.535177
vt 1.712785 0.520819
vt 1.744570 0.535177
vt 1.712784 0.535177
vt 1.744570 0.539581
vt 1.713024 0.539581
vt 1.744570 0.539581
vt 1.712785 0.535178
vt 0.531452 1.719105
vt 0.527626 1.717418
vt 0.531451 1.744570
vt 0.527626 1.744570
vt 0.531451 1.744570
vt 0.527626 1.717418
vt 0.527626 1.717418
vt 0.522856 1.715745
vt 0.522856 1.744570
vt 0.522856 1.715745
vt 0.522856 1.715745
vt 0.518085 1.714072
vt 0.522856 1.744570
vt 0.518085 1.714072
vt 0.518085 1.714072
vt 0.514259 1.713024
vt 0.518085 1.744570
vt 0.514259 1.744570
vt 0.518085 1.744570
vt 0.514260 1.713024
vt 1.744570 0.539581
vt 1.744570 0.535177
vt 1.719105 0.539581
vt 1.720442 0.535177
vt 1.719104 0.539581
vt 1.744570 0.535177
vt 1.744570 0.520819
vt 1.720442 0.535177
vt 1.720442 0.520819
vt 1.720442 0.535177
vt 1.744570 0.520819
vt 1.744570 0.516415
vt 1.720442 0.520819
vt 1.719105 0.516415
vt 1.720442 0.520819
vt 1.744570 0.516415
vt 0.468548 1.744570
vt 0.468549 1.719105
vt 0.472374 1.744570
vt 0.472374 1.717417
vt 0.468549 1.719105
vt 0.472374 1.744570
vt 0.472374 1.717418
vt 0.477145 1.744570
vt 0.477144 1.715745
vt 0.477145 1.744570
vt 0.472374 1.717418
vt 0.477144 1.744570
vt 0.477144 1.715745
vt 0.481915 1.744570
vt 0.481915 1.714072
vt 0.481915 1.744570
vt 0.477145 1.715745
vt 0.481915 1.744570
vt 0.481915 1.714072
vt 0.485741 1.744570
vt 0.485741 1.713024
vt 0.485741 1.744570
vt 0.481915 1.714072
vt -0.713024 0.516415
vt -0.744570 0.520819
vt -0.712785 0.520819
vt -0.744570 0.520819
vt -0.713024 0.516415
vt -0.744570 0.520819
vt -0.712784 0.520819
vt -0.744570 0.535177
vt -0.712785 0.535178
vt -0.744570 0.535177
vt -0.712784 0.520819
vt -0.744570 0.535178
vt -0.712784 0.535177
vt -0.744570 0.539581
vt -0.713024 0.539581
vt -0.744570 0.539581
vt -0.712784 0.535177
vt 0.522855 0.527998
vt 0.518085 0.513368
vt 0.522855 0.512280
vt 0.527626 0.513368
vt 0.514259 0.516415
vt 0.531452 0.516415
vt 0.512136 0.520819
vt 0.533575 0.520819
vt 0.512136 0.535177
vt 0.533575 0.535177
vt 0.514259 0.539581
vt 0.531452 0.539581
vt 0.518085 0.542629
vt 0.527626 0.542629
vt 0.522855 0.543716
vt 0.477145 0.527998
vt 0.468548 0.516415
vt 0.472374 0.513368
vt 0.477145 0.512280
vt 0.466425 0.520819
vt 0.481915 0.513368
vt 0.466425 0.535177
vt 0.485741 0.516415
vt 0.468548 0.539581
vt 0.487864 0.520819
vt 0.472374 0.542629
vt 0.487864 0.535177
vt 0.477145 0.543716
vt 0.485741 0.539581
vt 0.481915 0.542629
vt 0.426043 1.204021
vt 0.414474 1.192428
vt 0.426802 1.203414
vt 0.415254 1.192170
vt 0.426887 1.203824
vt 0.414571 1.192845
vt 0.538360 1.092283
vt 0.526717 1.080618
vt 0.539594 1.091310
vt 0.527741 1.079725
vt 0.539508 1.091505
vt 0.526637 1.080828
vt 0.541423 1.082598
vt 0.550350 1.096830
vt 0.540189 1.083578
vt 0.549150 1.097825
vt 0.540422 1.083898
vt 0.550571 1.097142
vt 0.555766 1.090567
vt 0.561299 1.106404
vt 0.554343 1.091246
vt 0.559601 1.106427
vt 0.554175 1.090899
vt 0.561138 1.106078
vt 0.568744 1.102416
vt 0.570624 1.119116
vt 0.567211 1.102770
vt 0.569037 1.119042
vt 0.567197 1.102689
vt 0.570610 1.119041
vt 0.579112 1.119136
vt 0.577235 1.135834
vt 0.577538 1.119134
vt 0.575716 1.135504
vt 0.577555 1.119156
vt 0.577250 1.135853
vt 0.584850 1.139707
vt 0.579311 1.155569
vt 0.583315 1.139366
vt 0.577880 1.154606
vt 0.583301 1.139074
vt 0.579299 1.155292
vt 0.584980 1.162499
vt 0.576066 1.176739
vt 0.583573 1.161832
vt 0.574321 1.174583
vt 0.583049 1.160633
vt 0.575553 1.175583
vt 0.577607 1.184320
vt 0.565728 1.196161
vt 0.576380 1.183328
vt 0.564670 1.195986
vt 0.576303 1.184397
vt 0.565651 1.197207
vt 0.687894 1.296302
vt 0.676257 1.307906
vt 0.687136 1.295711
vt 0.675369 1.306720
vt 0.686855 1.295276
vt 0.675980 1.307479
vt 0.359268 0.521472
vt 0.347502 0.521472
vt 0.359265 0.519829
vt 0.347459 0.519829
vt 0.359231 0.519829
vt 0.347459 0.521472
vt 0.585480 1.192551
vt 0.573914 1.204140
vt 0.584797 1.191869
vt 0.573119 1.203506
vt 0.584763 1.191840
vt 0.573880 1.204116
vt 0.473128 1.079911
vt 0.461489 1.091580
vt 0.472020 1.078793
vt 0.460607 1.090399
vt 0.472369 1.078585
vt 0.461833 1.091391
vt 0.459893 1.083317
vt 0.451165 1.097245
vt 0.458665 1.082322
vt 0.449633 1.097109
vt 0.458550 1.082880
vt 0.451051 1.097788
vt 0.445837 1.091218
vt 0.440417 1.106753
vt 0.444419 1.090547
vt 0.438849 1.105926
vt 0.444387 1.090064
vt 0.440385 1.106285
vt 0.432776 1.102770
vt 0.430938 1.119117
vt 0.431242 1.102416
vt 0.429360 1.119149
vt 0.431238 1.102450
vt 0.430934 1.119147
vt 0.422471 1.119138
vt 0.424308 1.135485
vt 0.420897 1.119137
vt 0.422769 1.135806
vt 0.420892 1.119109
vt 0.424304 1.135454
vt 0.416696 1.139176
vt 0.422117 1.154704
vt 0.415161 1.139531
vt 0.420640 1.155321
vt 0.415100 1.139456
vt 0.422056 1.154632
vt 0.417010 1.161053
vt 0.425744 1.175007
vt 0.415587 1.161739
vt 0.424279 1.176041
vt 0.415362 1.161820
vt 0.425508 1.175045
vt 0.423364 1.182388
vt 0.435001 1.193992
vt 0.422138 1.183395
vt 0.434377 1.197174
vt 0.422500 1.185326
vt 0.435359 1.195961
vt 0.323864 1.307152
vt 0.312229 1.295537
vt 0.324468 1.306378
vt 0.313069 1.295279
vt 0.324548 1.306715
vt 0.312308 1.295890
vt -0.146779 0.622701
vt -0.160710 0.622703
vt -0.147389 0.621372
vt -0.161232 0.621432
vt -0.147486 0.621429
vt -0.160811 0.622762
vt -0.147415 0.419919
vt -0.161157 0.419918
vt -0.146804 0.418589
vt -0.115323 0.584559
vt -0.130851 0.584558
vt -0.115745 0.583229
vt -0.160737 0.418554
vt -0.146810 0.418555
vt -0.161163 0.419885
vt -0.131010 0.583185
vt -0.115687 0.583185
vt -0.130792 0.584514
vt -0.115725 0.458118
vt -0.131047 0.458118
vt -0.115302 0.456789
vt -0.105575 0.543168
vt -0.121924 0.543169
vt -0.105791 0.541840
vt -0.130832 0.456746
vt -0.115303 0.456744
vt -0.131048 0.458077
vt -0.121943 0.541851
vt -0.105812 0.541851
vt -0.121944 0.543181
vt -0.105797 0.499448
vt -0.121928 0.499449
vt -0.105579 0.498120
vt -0.121925 0.500784
vt -0.138274 0.500784
vt -0.121926 0.499456
vt -0.121924 0.498129
vt -0.105575 0.498129
vt -0.121924 0.499458
vt -0.138063 0.499450
vt -0.121932 0.499450
vt -0.138281 0.500780
vt -0.121924 0.541841
vt -0.138056 0.541842
vt -0.121924 0.540513
vt -0.163536 0.459446
vt -0.179065 0.459445
vt -0.163320 0.458116
vt -0.138288 0.540515
vt -0.121940 0.540515
vt -0.138071 0.541844
vt -0.178644 0.458145
vt -0.163320 0.458147
vt -0.179066 0.459473
vt -0.163306 0.583156
vt -0.178628 0.583156
vt -0.163524 0.581828
vt -0.224513 0.421233
vt -0.238444 0.421234
vt -0.224089 0.419904
vt -0.179008 0.581861
vt -0.163478 0.581861
vt -0.178582 0.583189
vt -0.237831 0.419894
vt -0.224088 0.419890
vt -0.238441 0.421223
vt -0.224146 0.621463
vt -0.237890 0.621465
vt -0.224567 0.620131
vt -0.238445 0.619994
vt -0.224518 0.619993
vt -0.237835 0.621322
vt 1.184753 0.519833
vt 1.199008 0.519832
vt 1.184755 0.521475
vt 1.199308 0.521472
vt 1.185106 0.521472
vt 1.199329 0.519829
vt 1.128883 0.519825
vt 1.144837 0.519825
vt 1.128984 0.521469
vt 1.146267 0.521475
vt 1.130506 0.521475
vt 1.146260 0.519832
vt 1.107937 0.519837
vt 1.124524 0.519836
vt 1.107833 0.521479
vt 1.122727 0.521465
vt 1.105906 0.521465
vt 1.122718 0.519822
vt 1.122933 0.519836
vt 1.139725 0.519835
vt 1.122942 0.521479
vt 1.141052 0.521479
vt 1.124454 0.521480
vt 1.141146 0.519837
vt 1.178142 0.519828
vt 1.194099 0.519828
vt 1.178247 0.521472
vt 1.195531 0.521475
vt 1.179770 0.521476
vt 1.195524 0.519832
vt 1.264119 0.519829
vt 1.278375 0.519829
vt 1.264122 0.521472
vt 1.278660 0.521471
vt 1.264455 0.521472
vt 1.278680 0.519829
vt 0.254069 0.521474
vt 0.242186 0.521474
vt 0.254068 0.519831
vt 0.242179 0.519828
vt 0.254063 0.519828
vt 0.242179 0.521471
vt 0.312991 1.294971
vt 0.324472 1.306415
vt 0.312231 1.295589
vt 0.323735 1.306947
vt 0.312098 1.295338
vt 0.324335 1.306164
vt 0.423817 1.184949
vt 0.435450 1.196546
vt 0.422587 1.185910
vt 0.434167 1.196429
vt 0.422284 1.184588
vt 0.435140 1.195200
vt 0.424111 1.175952
vt 0.415189 1.161715
vt 0.425337 1.174960
vt 0.417004 1.161604
vt 0.425734 1.175524
vt 0.415583 1.162280
vt 0.420686 1.155515
vt 0.415148 1.139655
vt 0.422106 1.154842
vt 0.416698 1.138738
vt 0.422119 1.154271
vt 0.415162 1.139108
vt 0.422754 1.135821
vt 0.420876 1.119121
vt 0.424288 1.135470
vt 0.422491 1.119197
vt 0.424327 1.135540
vt 0.420915 1.119193
vt 0.429355 1.119137
vt 0.431232 1.102437
vt 0.430929 1.119135
vt 0.432771 1.102755
vt 0.430932 1.119104
vt 0.431236 1.102401
vt 0.438884 1.106257
vt 0.444419 1.090386
vt 0.440416 1.106599
vt 0.445806 1.090848
vt 0.440383 1.106381
vt 0.444386 1.090161
vt 0.449760 1.097019
vt 0.458677 1.082775
vt 0.451175 1.097694
vt 0.459783 1.083613
vt 0.451049 1.097545
vt 0.458549 1.082626
vt 0.460392 1.089664
vt 0.472157 1.077865
vt 0.461624 1.090671
vt 0.473373 1.080750
vt 0.461729 1.092427
vt 0.472268 1.079655
vt 0.573123 1.203723
vt 0.584768 1.192046
vt 0.573882 1.204322
vt 0.585391 1.192700
vt 0.573826 1.204308
vt 0.584702 1.192017
vt 0.757815 0.521469
vt 0.745931 0.521469
vt 0.757816 0.519826
vt 0.745937 0.519828
vt 0.757822 0.519828
vt 0.745937 0.521472
vt 0.675465 1.306497
vt 0.686940 1.295057
vt 0.676070 1.307268
vt 0.687743 1.295802
vt 0.676112 1.307410
vt 0.686982 1.295196
vt 0.564479 1.194439
vt 0.576115 1.182850
vt 0.565463 1.195683
vt 0.577829 1.185019
vt 0.565945 1.196868
vt 0.576603 1.184035
vt 0.574345 1.174985
vt 0.583079 1.161057
vt 0.575577 1.175977
vt 0.584426 1.161882
vt 0.575504 1.176118
vt 0.583004 1.161195
vt 0.578047 1.154794
vt 0.583465 1.139262
vt 0.579458 1.155475
vt 0.584899 1.139452
vt 0.579360 1.155298
vt 0.583365 1.139095
vt 0.575686 1.135469
vt 0.577523 1.119120
vt 0.577221 1.135820
vt 0.579112 1.119119
vt 0.577234 1.135814
vt 0.577538 1.119114
vt 0.569061 1.119078
vt 0.567222 1.102724
vt 0.570634 1.119075
vt 0.568762 1.102369
vt 0.570641 1.119075
vt 0.567228 1.102725
vt 0.559687 1.106735
vt 0.554268 1.091218
vt 0.561223 1.106391
vt 0.555521 1.090006
vt 0.561060 1.105867
vt 0.554104 1.090702
vt 0.548949 1.097118
vt 0.540221 1.083184
vt 0.550370 1.096420
vt 0.541466 1.082624
vt 0.550388 1.096861
vt 0.540237 1.083612
vt 0.537960 1.091457
vt 0.526317 1.079791
vt 0.539186 1.090469
vt 0.528159 1.079742
vt 0.539923 1.091515
vt 0.527045 1.080845
vt 0.415205 1.191563
vt 0.426850 1.203240
vt 0.414524 1.192257
vt 0.426354 1.203775
vt 0.414795 1.192167
vt 0.427121 1.203157
vt 1.238423 0.421356
vt 1.224493 0.421359
vt 1.237814 0.420031
vt 1.224223 0.419807
vt 1.237960 0.419810
vt 1.224644 0.421141
vt 1.237643 0.621336
vt 1.223902 0.621336
vt 1.238265 0.620008
vt 1.179095 0.459495
vt 1.163565 0.459496
vt 1.178677 0.458167
vt 1.224472 0.620035
vt 1.238395 0.620031
vt 1.224042 0.621363
vt 1.163322 0.458086
vt 1.178644 0.458087
vt 1.163539 0.459418
vt 1.178674 0.583182
vt 1.163349 0.583183
vt 1.179092 0.581855
vt 1.138276 0.500778
vt 1.121926 0.500779
vt 1.138060 0.499449
vt 1.163533 0.581883
vt 1.179066 0.581884
vt 1.163318 0.583214
vt 1.121924 0.499451
vt 1.138056 0.499451
vt 1.121922 0.500780
vt 1.138059 0.541850
vt 1.121926 0.541849
vt 1.138274 0.540519
vt 1.121902 0.543176
vt 1.105550 0.543177
vt 1.121902 0.541848
vt 1.121930 0.540522
vt 1.138278 0.540521
vt 1.121929 0.541851
vt 1.105792 0.541850
vt 1.121926 0.541850
vt 1.105578 0.543179
vt 1.121935 0.499470
vt 1.105805 0.499472
vt 1.121934 0.498142
vt 1.130776 0.584499
vt 1.115248 0.584499
vt 1.130995 0.583171
vt 1.105619 0.498141
vt 1.121966 0.498140
vt 1.105830 0.499469
vt 1.115730 0.583215
vt 1.131055 0.583215
vt 1.115308 0.584546
vt 1.131058 0.458140
vt 1.115738 0.458141
vt 1.130840 0.456812
vt 1.160853 0.622737
vt 1.146922 0.622733
vt 1.161275 0.621406
vt 1.115400 0.456834
vt 1.130920 0.456833
vt 1.115820 0.458160
vt 1.147383 0.621311
vt 1.161132 0.621317
vt 1.146773 0.622640
vt 1.161080 0.420072
vt 1.147328 0.420074
vt 1.160647 0.418747
vt 1.146598 0.418554
vt 1.160525 0.418552
vt 1.147218 0.419886
vt -0.278363 0.519826
vt -0.264104 0.519825
vt -0.278340 0.521468
vt -0.264460 0.521475
vt -0.278664 0.521475
vt -0.264453 0.519832
vt -0.194566 0.519835
vt -0.178685 0.519836
vt -0.194655 0.521479
vt -0.178951 0.521464
vt -0.194812 0.521465
vt -0.178935 0.519821
vt -0.139671 0.519826
vt -0.122870 0.519826
vt -0.139578 0.521469
vt -0.123396 0.521471
vt -0.140115 0.521471
vt -0.123502 0.519829
vt -0.123900 0.519825
vt -0.107220 0.519825
vt -0.123808 0.521467
vt -0.106692 0.521468
vt -0.123412 0.521468
vt -0.106799 0.519826
vt -0.144787 0.519829
vt -0.128825 0.519829
vt -0.144795 0.521472
vt -0.130444 0.521468
vt -0.146213 0.521468
vt -0.130344 0.519825
vt -0.199005 0.519826
vt -0.184747 0.519826
vt -0.198982 0.521468
vt -0.185099 0.521475
vt -0.199302 0.521475
vt -0.185093 0.519831
vt 0.652498 0.521472
vt 0.640732 0.521472
vt 0.652501 0.519829
vt 0.640770 0.519831
vt 0.652543 0.519832
vt 0.640776 0.521474
vt 0.744919 0.519341
vt 0.746025 0.519852
vt 0.744236 0.520677
vt 0.746174 0.519960
vt 0.746174 0.521601
vt 0.744383 0.520781
vt 0.744086 0.520431
vt 0.745873 0.521250
vt 0.744770 0.521763
vt 0.255160 0.519442
vt 0.255845 0.520770
vt 0.254056 0.519949
vt 0.254101 0.519831
vt 0.255887 0.520653
vt 0.254102 0.521475
vt 0.255913 0.520702
vt 0.255231 0.522034
vt 0.254129 0.521526
vt 0.551559 1.173219
vt 0.447889 1.069322
vt 0.552915 1.171911
vt 0.448879 1.065742
vt 0.552545 1.169665
vt 0.447528 1.067100
vt 0.351877 0.521617
vt 0.248209 0.521617
vt 0.351877 0.519710
vt 0.248211 0.519710
vt 0.351878 0.519710
vt 0.248211 0.521617
vt 0.447455 1.170412
vt 0.551127 1.066504
vt 0.448806 1.171751
vt 0.552106 1.067114
vt 0.448436 1.171030
vt 0.550748 1.065760
vt 0.646772 0.519710
vt 0.750439 0.519710
vt 0.646772 0.521617
vt 0.750441 0.521617
vt 0.646773 0.521617
vt 0.750441 0.519710
vt 0.573825 1.119980
vt 0.427219 1.119980
vt 0.573833 1.118072
vt 0.426697 1.118064
vt 0.573303 1.118072
vt 0.426697 1.119972
vt 0.573304 0.521617
vt 0.426696 0.521617
vt 0.573304 0.519710
vt 0.426696 0.519710
vt 0.573303 1.118950
vt 0.426697 1.118935
vt 0.573303 1.117028
vt 0.426696 0.519710
vt 0.573304 0.519710
vt 0.426696 0.521617
vt 0.573304 0.521617
vt 0.552646 1.067118
vt 0.448980 1.171030
vt 0.551300 1.065764
vt 0.447629 1.170388
vt 0.551299 1.066476
vt 0.448979 1.171739
vt 0.751785 0.521617
vt 0.648120 0.521617
vt 0.751788 0.519710
vt 0.648127 0.519710
vt 0.751801 0.519710
vt 0.648126 0.521617
vt 0.448693 1.065007
vt 0.552363 1.168935
vt 0.447346 1.066373
vt 0.551018 1.171027
vt 0.447353 1.067122
vt 0.552366 1.169672
vt 0.249553 0.519710
vt 0.353225 0.519710
vt 0.249557 0.521617
vt 0.353231 0.521617
vt 0.249570 0.521617
vt 0.353231 0.519710
vt -0.332459 0.521602
vt -0.332459 0.519958
vt -0.331227 0.522113
vt -0.331648 0.519696
vt -0.330406 0.519187
vt -0.330404 0.521839
vt -0.331202 0.522388
vt -0.331194 0.519725
vt -0.330431 0.521060
vt 1.329904 0.519329
vt 1.331145 0.519833
vt 1.329106 0.520649
vt 1.332618 0.519829
vt 1.332618 0.521469
vt 1.330638 0.520649
vt 1.329901 0.520947
vt 1.331892 0.521758
vt 1.330645 0.522266
s 1
f 3/1/1 2/2/2 1/3/3
f 4/4/4 1/3/3 2/2/2
f 1/3/5 5/5/6 4/4/7
f 8/6/8 7/7/9 5/5/6
f 8/6/8 9/8/10 7/7/9
f 11/9/11 10/10/12 9/8/10
f 11/9/11 12/11/13 10/10/12
f 15/12/14 14/13/15 12/11/13
f 14/13/16 16/14/17 15/12/18
f 17/15/19 15/12/18 16/14/17
f 2/16/2 3/17/1 18/18/20
f 19/19/21 18/18/20 3/17/1
f 18/18/20 19/19/21 20/20/22
f 21/21/23 20/20/22 19/19/21
f 20/20/22 21/21/23 22/22/24
f 23/23/25 22/22/24 21/21/23
f 23/23/25 24/24/26 22/22/24
f 25/25/27 22/22/24 24/24/26
f 25/25/27 24/24/26 26/26/28
f 27/27/29 26/26/28 24/24/26
f 26/26/28 27/27/29 28/28/30
f 29/29/31 28/28/30 27/27/29
f 32/30/32 31/31/33 30/32/34
f 33/33/35 30/32/34 31/31/33
f 33/33/35 34/34/36 30/32/34
f 35/35/36 30/32/34 34/34/36
f 34/34/36 36/36/37 35/35/36
f 37/37/37 35/35/36 36/36/37
f 36/36/37 38/38/38 37/37/37
f 39/39/38 37/37/37 38/38/38
f 39/39/38 38/38/38 40/40/39
f 41/41/39 40/40/39 38/38/38
f 40/40/39 41/41/39 42/42/40
f 43/43/40 42/42/40 41/41/39
f 42/42/40 43/43/40 44/44/41
f 45/45/42 44/44/41 43/43/40
f 45/45/42 46/46/43 44/44/41
f 47/47/44 44/44/41 46/46/43
f 16/48/17 48/49/45 17/50/19
f 49/51/46 17/50/19 48/49/45
f 48/49/45 50/52/47 49/51/46
f 51/53/48 49/51/46 50/52/47
f 50/52/47 52/54/49 51/53/48
f 53/55/50 51/53/48 52/54/49
f 53/55/50 52/54/49 54/56/51
f 55/57/52 54/56/51 52/54/49
f 55/57/52 56/58/53 54/56/51
f 57/59/54 54/56/51 56/58/53
f 56/58/53 58/60/55 57/59/54
f 59/61/56 57/59/54 58/60/55
f 61/62/57 60/63/58 2/2/2
f 463/64/59 459/65/60 66/66/61
f 480/67/62 482/68/63 9/66/10
f 9/66/10 484/69/64 7/7/9
f 10/10/12 480/67/62 9/66/10
f 463/64/59 66/66/61 465/70/65
f 484/69/64 9/66/10 482/68/63
f 72/71/66 16/14/17 71/72/67
f 2/16/2 18/18/20 61/73/57
f 73/74/68 61/73/57 18/18/20
f 18/18/20 20/20/22 73/74/68
f 74/75/69 73/74/68 20/20/22
f 20/20/22 22/22/24 74/75/69
f 75/76/70 74/75/69 22/22/24
f 22/22/24 25/25/27 75/76/70
f 76/77/71 75/76/70 25/25/27
f 25/25/27 26/26/28 76/77/71
f 77/78/72 76/77/71 26/26/28
f 26/26/28 28/28/30 77/78/72
f 78/79/73 77/78/72 28/28/30
f 32/30/32 30/32/34 79/80/74
f 80/81/75 79/80/74 30/32/34
f 30/32/34 35/35/36 80/81/75
f 81/82/36 80/81/75 35/35/36
f 35/35/36 37/37/37 81/82/36
f 82/83/37 81/82/36 37/37/37
f 37/37/37 39/39/38 82/83/37
f 83/84/38 82/83/37 39/39/38
f 83/84/38 39/39/38 84/85/39
f 40/40/39 84/85/39 39/39/38
f 84/85/39 40/40/39 85/86/40
f 42/42/40 85/86/40 40/40/39
f 85/86/40 42/42/40 86/87/76
f 44/44/41 86/87/76 42/42/40
f 86/87/76 44/44/41 87/88/77
f 47/47/44 87/88/77 44/44/41
f 16/48/17 72/89/66 48/49/45
f 88/90/78 48/49/45 72/89/66
f 48/49/45 88/90/78 50/52/47
f 89/91/79 50/52/47 88/90/78
f 50/52/47 89/91/79 52/54/49
f 90/92/80 52/54/49 89/91/79
f 52/54/49 90/92/80 55/57/52
f 91/93/81 55/57/52 90/92/80
f 55/57/52 91/93/81 56/58/53
f 92/94/82 56/58/53 91/93/81
f 56/58/53 92/94/82 58/60/55
f 93/95/83 58/60/55 92/94/82
f 96/96/84 95/97/38 94/98/84
f 97/99/38 94/98/84 95/97/38
f 97/99/38 95/97/38 98/100/85
f 99/101/85 98/100/85 95/97/38
f 102/102/70 101/103/70 100/104/70
f 103/105/70 100/104/70 101/103/70
f 106/106/80 105/107/80 104/108/80
f 107/109/80 104/108/80 105/107/80
f 110/110/86 109/111/37 108/112/86
f 111/113/37 108/112/86 109/111/37
f 109/111/37 112/114/38 111/113/37
f 113/115/38 111/113/37 112/114/38
f 112/114/38 114/116/39 113/115/38
f 115/117/39 113/115/38 114/116/39
f 114/116/39 116/118/87 115/117/39
f 117/119/87 115/117/39 116/118/87
f 120/120/88 119/121/89 118/122/88
f 121/123/89 118/122/88 119/121/89
f 119/121/89 122/124/90 121/123/89
f 123/125/90 121/123/89 122/124/90
f 122/124/90 124/126/91 123/125/90
f 125/127/91 123/125/90 124/126/91
f 124/126/91 126/128/92 125/127/91
f 127/129/92 125/127/91 126/128/92
f 130/130/93 129/131/93 128/132/93
f 131/133/93 128/132/93 129/131/93
f 129/131/93 132/134/93 131/133/93
f 133/135/93 131/133/93 132/134/93
f 132/134/93 134/136/93 133/135/93
f 135/137/93 133/135/93 134/136/93
f 134/136/93 136/138/93 135/137/93
f 137/139/93 135/137/93 136/138/93
f 140/140/68 139/141/68 138/142/68
f 141/143/68 138/142/68 139/141/68
f 144/144/78 143/145/78 142/146/78
f 145/147/78 142/146/78 143/145/78
f 148/148/86 147/149/86 146/150/37
f 149/151/37 146/150/37 147/149/86
f 146/150/37 149/151/37 150/152/38
f 151/153/38 150/152/38 149/151/37
f 150/152/38 151/153/38 152/154/39
f 153/155/39 152/154/39 151/153/38
f 152/154/39 153/155/39 154/156/87
f 155/157/87 154/156/87 153/155/39
f 158/138/94 157/139/94 156/136/95
f 159/137/95 156/136/95 157/139/94
f 156/136/95 159/137/95 160/134/96
f 161/135/96 160/134/96 159/137/95
f 160/134/96 161/135/96 162/158/97
f 163/133/97 162/158/97 161/135/96
f 162/158/97 163/133/97 164/130/98
f 165/132/98 164/130/98 163/133/97
f 168/128/99 167/129/99 166/159/99
f 169/127/99 166/159/99 167/129/99
f 166/159/99 169/127/99 170/124/99
f 171/125/99 170/124/99 169/127/99
f 170/124/99 171/125/99 172/121/99
f 173/123/99 172/121/99 171/125/99
f 172/121/99 173/123/99 174/120/99
f 175/122/99 174/120/99 173/123/99
f 178/160/68 177/161/68 176/162/68
f 179/163/68 176/162/68 177/161/68
f 182/164/78 181/165/78 180/166/78
f 183/167/78 180/166/78 181/165/78
f 186/168/100 185/169/100 184/170/100
f 187/171/100 184/170/100 185/169/100
f 185/169/79 188/172/79 187/171/79
f 189/173/79 187/171/79 188/172/79
f 192/174/101 191/175/81 190/176/101
f 193/177/81 190/176/101 191/175/81
f 193/177/81 191/175/81 194/178/79
f 195/179/79 194/178/79 191/175/81
f 195/179/79 196/180/102 194/178/79
f 197/181/102 194/178/79 196/180/102
f 200/182/103 199/183/103 198/184/40
f 201/185/40 198/184/40 199/183/103
f 201/185/40 202/186/38 198/184/40
f 203/187/38 198/184/40 202/186/38
f 203/187/38 202/186/38 204/188/36
f 205/189/36 204/188/36 202/186/38
f 205/189/36 206/190/104 204/188/36
f 207/191/104 204/188/36 206/190/104
f 210/192/105 209/193/106 208/194/107
f 211/195/107 208/194/107 209/193/106
f 211/195/107 212/196/108 208/194/107
f 213/197/108 208/194/107 212/196/108
f 213/197/108 212/196/108 214/198/109
f 215/199/109 214/198/109 212/196/108
f 215/199/109 216/200/110 214/198/109
f 217/201/111 214/198/109 216/200/110
f 220/202/112 219/203/112 218/204/112
f 221/205/112 218/204/112 219/203/112
f 218/204/69 221/205/69 222/206/69
f 223/207/69 222/206/69 221/205/69
f 226/208/113 225/209/113 224/210/71
f 227/211/71 224/210/71 225/209/113
f 227/211/71 228/212/69 224/210/71
f 229/213/69 224/210/71 228/212/69
f 229/213/69 228/212/69 230/214/114
f 231/215/114 230/214/114 228/212/69
f 234/216/38 233/217/38 232/218/38
f 235/219/38 232/218/38 233/217/38
f 238/220/99 237/221/99 236/222/99
f 237/221/99 239/223/99 236/222/99
f 236/222/99 239/223/99 240/224/99
f 236/222/99 240/224/99 241/225/99
f 242/226/99 241/225/99 240/224/99
f 241/225/99 242/226/99 243/227/99
f 244/228/99 243/227/99 242/226/99
f 243/227/99 244/228/99 245/229/99
f 246/230/99 245/229/99 244/228/99
f 245/229/99 246/230/99 247/231/99
f 248/232/99 247/231/99 246/230/99
f 248/232/99 249/233/99 247/231/99
f 250/234/99 247/231/99 249/233/99
f 250/234/99 249/233/99 251/235/99
f 252/236/99 251/235/99 249/233/99
f 251/235/99 252/236/99 253/237/99
f 254/238/99 253/237/99 252/236/99
f 253/237/99 254/238/99 255/239/99
f 256/240/99 255/239/99 254/238/99
f 255/239/99 256/240/99 257/241/99
f 258/242/99 257/241/99 256/240/99
f 257/241/99 258/242/99 259/243/99
f 260/244/99 259/243/99 258/242/99
f 260/244/99 261/245/99 259/243/99
f 262/246/99 261/245/99 260/244/99
f 263/247/99 262/246/99 260/244/99
f 266/248/115 265/249/115 264/250/115
f 267/251/115 264/250/115 265/249/115
f 265/249/116 268/252/116 267/251/116
f 269/253/116 267/251/116 268/252/116
f 272/254/117 271/255/117 270/256/117
f 273/257/117 270/256/117 271/255/117
f 271/255/118 274/258/118 273/257/118
f 275/259/118 273/257/118 274/258/118
f 278/260/119 277/261/119 276/262/119
f 279/263/119 276/262/119 277/261/119
f 277/261/120 280/264/120 279/263/120
f 281/265/120 279/263/120 280/264/120
f 284/266/121 283/267/121 282/268/121
f 285/269/121 282/268/121 283/267/121
f 283/267/122 286/270/122 285/269/122
f 287/271/122 285/269/122 286/270/122
f 290/248/115 289/249/115 288/250/115
f 291/251/115 288/250/115 289/249/115
f 289/249/116 292/252/116 291/251/116
f 293/253/116 291/251/116 292/252/116
f 296/272/117 295/273/117 294/274/117
f 297/275/117 294/274/117 295/273/117
f 295/273/118 298/276/118 297/275/118
f 299/277/118 297/275/118 298/276/118
f 302/260/119 301/261/119 300/262/119
f 303/263/119 300/262/119 301/261/119
f 301/261/120 304/278/120 303/263/120
f 305/265/120 303/263/120 304/278/120
f 308/279/121 307/280/121 306/281/121
f 309/282/121 306/281/121 307/280/121
f 307/280/122 310/283/122 309/282/122
f 311/284/122 309/282/122 310/283/122
f 314/285/38 313/286/38 312/287/38
f 315/288/38 312/287/38 313/286/38
f 318/289/70 317/290/70 316/291/70
f 319/292/70 316/291/70 317/290/70
f 322/293/99 321/294/99 320/295/99
f 323/296/99 320/295/99 321/294/99
f 326/297/80 325/298/80 324/299/80
f 327/300/80 324/299/80 325/298/80
f 330/301/38 329/302/38 328/303/38
f 331/304/38 328/303/38 329/302/38
f 334/297/80 333/305/80 332/306/80
f 335/300/80 332/306/80 333/305/80
f 338/307/99 337/308/99 336/309/99
f 339/310/99 336/309/99 337/308/99
f 342/289/70 341/311/70 340/312/70
f 343/292/70 340/312/70 341/311/70
f 66/68/123 63/313/124 250/234/123
f 66/68/123 250/234/123 67/314/125
f 247/231/124 250/234/123 63/313/124
f 251/235/125 67/314/125 250/234/123
f 63/313/124 62/315/126 247/231/124
f 67/314/125 251/235/125 70/316/127
f 245/229/126 247/231/124 62/315/126
f 253/237/128 70/316/127 251/235/125
f 62/315/126 60/317/129 245/229/126
f 70/316/127 253/237/128 71/318/130
f 243/227/131 245/229/126 60/317/129
f 255/239/132 71/318/130 253/237/128
f 60/317/129 61/319/133 243/227/131
f 71/318/130 255/239/132 72/320/134
f 344/225/135 243/227/131 61/319/133
f 257/241/136 72/320/134 255/239/132
f 61/319/133 345/321/137 344/225/135
f 72/320/134 257/241/136 346/322/138
f 347/222/137 344/225/135 345/321/137
f 348/243/138 346/322/138 257/241/136
f 345/321/137 349/323/139 347/222/137
f 346/322/138 348/243/138 350/324/140
f 351/220/139 347/222/137 349/323/139
f 352/245/140 350/324/140 348/243/138
f 349/323/139 353/325/141 351/220/139
f 350/324/140 352/245/140 354/326/142
f 355/221/141 351/220/139 353/325/141
f 356/246/142 354/326/142 352/245/140
f 353/325/141 357/327/143 355/221/141
f 354/326/142 356/246/142 358/328/144
f 359/223/143 355/221/141 357/327/143
f 360/247/144 358/328/144 356/246/142
f 357/327/143 361/329/145 359/223/143
f 358/328/144 360/247/144 362/330/146
f 363/224/145 359/223/143 361/329/145
f 364/244/146 362/330/146 360/247/144
f 361/329/145 365/331/147 363/224/145
f 362/330/146 364/244/146 366/332/148
f 367/226/147 363/224/145 365/331/147
f 368/242/148 366/332/148 364/244/146
f 365/331/147 369/333/149 367/226/147
f 366/332/148 368/242/148 370/334/150
f 371/228/149 367/226/147 369/333/149
f 372/240/150 370/334/150 368/242/148
f 369/333/149 373/335/151 371/228/149
f 370/334/150 372/240/150 374/336/152
f 375/230/151 371/228/149 373/335/151
f 376/238/152 374/336/152 372/240/150
f 373/335/151 377/337/153 375/230/151
f 374/336/152 376/238/152 378/338/154
f 379/232/153 375/230/151 377/337/153
f 380/236/154 378/338/154 376/238/152
f 377/337/153 381/339/155 379/232/153
f 378/338/154 380/236/154 381/339/155
f 382/233/155 379/232/153 381/339/155
f 382/233/155 381/339/155 380/236/154
f 385/340/93 384/341/93 383/342/93
f 386/343/93 385/340/93 383/342/93
f 384/341/93 385/340/93 387/344/93
f 385/340/93 386/343/93 388/345/93
f 385/340/93 389/346/93 387/344/93
f 390/347/93 385/340/93 388/345/93
f 389/346/93 385/340/93 391/348/93
f 385/340/93 390/347/93 392/349/93
f 385/340/93 393/350/93 391/348/93
f 394/351/93 385/340/93 392/349/93
f 393/350/93 385/340/93 395/352/93
f 385/340/93 394/351/93 396/353/93
f 385/340/93 397/354/93 395/352/93
f 397/354/93 385/340/93 396/353/93
f 400/355/99 399/356/156 398/357/157
f 401/358/158 400/355/99 398/357/157
f 399/356/156 400/355/99 402/359/159
f 400/355/99 401/358/158 403/360/160
f 400/355/99 404/361/161 402/359/159
f 405/362/162 400/355/99 403/360/160
f 404/361/161 400/355/99 406/363/163
f 400/355/99 405/362/162 407/364/164
f 400/355/99 408/365/165 406/363/163
f 409/366/166 400/355/99 407/364/164
f 408/365/165 400/355/99 410/367/167
f 400/355/99 409/366/166 411/368/168
f 400/355/99 412/369/169 410/367/167
f 412/369/169 400/355/99 411/368/168
f 415/370/170 414/371/170 413/372/170
f 416/373/170 413/372/170 414/371/170
f 414/371/171 415/370/171 417/374/171
f 413/372/172 416/373/172 418/375/172
f 413/372/99 418/375/99 415/370/99
f 419/376/172 418/375/172 416/373/172
f 420/377/171 417/374/171 415/370/171
f 415/370/99 418/375/99 420/377/99
f 417/374/173 420/377/173 421/378/173
f 422/379/173 421/378/173 420/377/173
f 420/377/99 418/375/99 422/379/99
f 421/378/174 422/379/174 423/380/174
f 418/375/175 419/376/175 424/381/175
f 418/375/99 424/381/99 422/379/99
f 425/382/175 424/381/175 419/376/175
f 426/383/174 423/380/174 422/379/174
f 422/379/99 424/381/99 426/383/99
f 423/380/176 426/383/176 427/384/176
f 424/381/177 425/382/177 428/385/177
f 427/384/177 428/385/177 425/382/177
f 426/383/99 424/381/99 428/385/99
f 428/385/176 427/384/176 426/383/176
f 431/386/170 430/387/170 429/388/170
f 432/389/170 429/388/170 430/387/170
f 430/387/171 431/386/171 433/390/171
f 429/388/172 432/389/172 434/391/172
f 429/388/99 434/391/99 431/386/99
f 435/392/172 434/391/172 432/389/172
f 436/393/171 433/390/171 431/386/171
f 431/386/99 434/391/99 436/393/99
f 433/390/173 436/393/173 437/394/173
f 438/395/173 437/394/173 436/393/173
f 436/393/99 434/391/99 438/395/99
f 437/394/174 438/395/174 439/396/174
f 434/391/175 435/392/175 440/397/175
f 434/391/99 440/397/99 438/395/99
f 441/398/175 440/397/175 435/392/175
f 442/399/174 439/396/174 438/395/174
f 438/395/99 440/397/99 442/399/99
f 439/396/176 442/399/176 443/400/176
f 440/397/177 441/398/177 444/401/177
f 443/400/177 444/401/177 441/398/177
f 442/399/99 440/397/99 444/401/99
f 444/401/176 443/400/176 442/399/176
f 447/402/107 446/403/107 445/404/107
f 448/196/107 445/404/107 446/403/107
f 448/196/109 446/403/109 449/405/109
f 450/406/109 449/405/109 446/403/109
f 453/407/108 452/408/108 451/301/108
f 454/303/108 451/301/108 452/408/108
f 457/287/108 456/409/108 455/410/108
f 458/411/108 455/410/108 456/409/108
f 461/412/178 460/413/178 459/65/179
f 462/414/180 459/65/179 460/413/178
f 459/65/179 462/414/180 463/64/93
f 464/415/93 463/64/93 462/414/180
f 463/64/93 464/415/93 465/70/181
f 466/416/182 465/70/181 464/415/93
f 465/70/181 466/416/182 467/417/183
f 468/418/183 467/417/183 466/416/182
f 471/419/184 470/420/184 469/421/185
f 472/422/186 469/421/185 470/420/184
f 469/421/185 472/422/186 473/423/187
f 474/424/188 473/423/187 472/422/186
f 473/423/187 474/424/188 475/425/189
f 476/426/189 475/425/189 474/424/188
f 479/427/190 478/428/190 477/429/191
f 480/67/192 477/429/191 478/428/190
f 477/429/191 480/67/192 481/430/99
f 482/68/99 481/430/99 480/67/192
f 481/430/99 482/68/99 483/431/193
f 484/69/194 483/431/193 482/68/99
f 483/431/193 484/69/194 485/432/195
f 486/433/195 485/432/195 484/69/194
f 489/434/184 487/435/185 488/436/184
f 490/437/186 488/436/184 487/435/185
f 487/435/185 491/438/187 490/437/186
f 492/439/188 490/437/186 491/438/187
f 491/438/187 493/440/189 492/439/188
f 494/441/189 492/439/188 493/440/189
f 497/442/108 496/443/108 495/444/108
f 497/442/108 495/444/108 498/445/108
f 497/442/108 499/446/108 496/443/108
f 497/442/108 498/445/108 500/447/108
f 497/442/108 501/448/108 499/446/108
f 497/442/108 500/447/108 502/449/108
f 497/442/108 503/450/108 501/448/108
f 497/442/108 502/449/108 504/451/108
f 497/442/108 505/452/108 503/450/108
f 497/442/108 504/451/108 506/453/108
f 497/442/108 507/454/108 505/452/108
f 497/442/108 506/453/108 508/455/108
f 497/442/108 509/456/108 507/454/108
f 497/442/108 508/455/108 509/456/108
f 6/457/196 4/458/7 5/459/6
f 6/460/196 5/461/6 7/462/9
f 13/463/197 10/464/12 12/465/13
f 13/466/197 12/467/13 14/468/15
f 60/469/198 4/470/7 510/471/199
f 511/472/200 510/473/199 4/474/7
f 60/475/198 510/476/199 512/477/201
f 513/478/202 511/479/200 4/480/7
f 60/481/198 512/482/201 62/483/203
f 514/484/204 62/485/203 512/486/201
f 515/487/205 62/488/203 514/489/204
f 4/490/7 6/491/196 513/492/202
f 516/493/206 513/494/202 6/495/196
f 516/496/206 6/497/196 517/498/207
f 63/499/208 62/500/203 515/501/205
f 518/502/209 63/503/208 515/504/205
f 518/505/209 519/506/210 63/507/208
f 6/508/196 7/509/9 517/510/207
f 517/511/207 7/512/9 520/513/211
f 528/514/212 10/515/12 529/516/213
f 530/517/214 67/518/215 527/519/216
f 531/520/217 67/521/215 530/522/214
f 529/523/213 10/524/12 13/525/197
f 529/526/213 13/527/197 532/528/218
f 532/529/218 13/530/197 533/531/219
f 531/532/217 70/533/220 67/534/215
f 534/535/221 70/536/220 531/537/217
f 534/538/221 535/539/222 70/540/220
f 14/541/15 533/542/219 13/543/197
f 71/544/223 70/545/220 535/546/222
f 14/547/15 536/548/224 533/549/219
f 536/550/224 14/551/15 537/552/225
f 535/553/222 537/554/225 71/555/223
f 71/556/223 537/557/225 14/558/15
f 540/559/190 538/560/190 539/561/226
f 541/562/191 539/563/226 538/564/190
f 539/565/226 541/566/191 542/567/227
f 543/568/99 542/569/227 541/570/191
f 542/571/227 543/572/99 544/573/228
f 545/574/193 544/575/228 543/576/99
f 544/577/228 545/578/193 546/579/195
f 547/580/195 546/581/195 545/582/193
f 550/583/229 548/584/229 549/585/230
f 551/586/231 549/587/230 548/584/229
f 549/588/230 551/589/231 552/590/232
f 553/591/233 552/592/232 551/593/231
f 552/594/232 553/595/233 554/596/234
f 555/597/234 554/598/234 553/599/233
f 558/600/195 557/601/193 556/602/195
f 559/603/235 556/604/195 557/605/193
f 557/606/193 560/607/99 559/608/235
f 561/609/236 559/610/235 560/607/99
f 560/607/99 562/611/191 561/612/236
f 563/613/237 561/614/236 562/615/191
f 562/616/191 564/617/190 563/618/237
f 565/619/190 563/620/237 564/621/190
f 568/622/238 566/623/238 567/624/239
f 569/625/240 567/626/239 566/627/238
f 567/628/239 569/629/240 570/630/241
f 571/631/242 570/632/241 569/633/240
f 570/634/241 571/635/242 572/636/243
f 573/637/243 572/638/243 571/639/242
f 576/640/195 574/641/235 575/642/195
f 577/643/193 575/644/195 574/645/235
f 574/646/235 578/647/236 577/605/193
f 579/648/99 577/643/193 578/649/236
f 578/650/236 580/651/237 579/648/99
f 581/616/191 579/652/99 580/653/237
f 580/654/237 582/655/190 581/656/191
f 583/657/190 581/658/191 582/659/190
f 586/660/244 584/661/245 585/662/244
f 587/663/246 585/664/244 584/665/245
f 584/630/245 588/666/247 587/667/246
f 589/668/248 587/669/246 588/670/247
f 588/626/247 590/671/249 589/672/248
f 591/673/249 589/674/248 590/675/249
f 594/676/190 593/677/190 592/678/191
f 595/679/226 592/570/191 593/680/190
f 592/681/191 595/682/226 596/683/99
f 597/684/227 596/685/99 595/686/226
f 596/687/99 597/688/227 598/689/193
f 599/690/228 598/691/193 597/692/227
f 598/693/193 599/694/228 600/695/195
f 601/696/195 600/697/195 599/698/228
f 604/598/243 603/699/243 602/700/241
f 605/701/242 602/702/241 603/703/243
f 602/704/241 605/705/242 606/706/239
f 607/707/240 606/708/239 605/709/242
f 606/710/239 607/711/240 608/712/238
f 609/713/238 608/714/238 607/715/240
f 612/716/108 611/717/108 610/718/108
f 612/716/108 610/718/108 613/719/108
f 612/716/108 614/720/108 611/717/108
f 612/716/108 613/719/108 615/721/108
f 612/716/108 616/722/108 614/720/108
f 612/716/108 615/721/108 617/723/108
f 612/716/108 618/724/108 616/722/108
f 612/716/108 617/723/108 619/725/108
f 612/716/108 620/726/108 618/724/108
f 612/716/108 619/725/108 621/727/108
f 612/716/108 622/728/108 620/726/108
f 612/716/108 621/727/108 623/729/108
f 612/716/108 624/730/108 622/728/108
f 612/716/108 623/729/108 624/730/108
f 627/731/108 626/732/108 625/733/108
f 627/731/108 625/733/108 628/734/108
f 627/731/108 629/735/108 626/732/108
f 627/731/108 628/734/108 630/736/108
f 627/731/108 631/737/108 629/735/108
f 627/731/108 630/736/108 632/738/108
f 627/731/108 633/739/108 631/737/108
f 627/731/108 632/738/108 634/740/108
f 627/731/108 635/741/108 633/739/108
f 627/731/108 634/740/108 636/742/108
f 627/731/108 637/743/108 635/741/108
f 627/731/108 636/742/108 638/744/108
f 627/731/108 639/745/108 637/743/108
f 627/731/108 638/744/108 639/745/108
f 484/69/64 486/433/250 488/66/251 7/7/9
f 480/67/62 10/10/12 476/66/252 478/428/253
f 67/314/215 66/66/61 459/65/60
f 459/65/60 461/412/254 470/66/255 67/314/215
f 66/66/61 63/313/208 465/70/65
f 465/70/65 63/313/208 494/66/256 467/417/257
f 519/506/210 467/417/258 494/66/256 63/313/208
f 527/519/216 67/314/215 470/66/255 461/412/259
f 470/66/260 472/66/261 607/66/262 609/66/260 527/66/216 461/66/259
f 472/66/261 474/424/263 605/709/263 607/66/262
f 10/10/12 601/66/264 526/66/265 603/66/266 478/428/266 476/66/252
f 526/66/265 601/66/264 603/703/267 605/701/268 524/66/268 68/66/268 474/66/268 478/428/268 476/66/268
f 10/10/12 528/514/212 526/66/269 603/703/267 601/66/264
f 520/513/211 7/512/9 521/66/270 565/619/270 566/66/270 563/66/271
f 488/66/251 486/66/272 566/66/270 565/66/270 521/66/270 7/66/9
f 565/619/273 521/66/273 566/66/273 523/66/273 569/66/273 64/437/274 490/437/274 488/66/273 486/433/273
f 64/437/274 523/66/275 569/66/275 522/66/275 571/66/275 492/66/275 65/66/275 490/437/274
f 573/66/276 467/417/276 494/66/276 492/439/276 65/66/276 522/66/276 571/66/276 546/66/276 519/66/276
f 4/470/4 2/2/2 60/469/58
f 16/14/17 14/558/16 71/72/67
f 642/746/277 641/747/278 640/748/279
f 643/749/280 640/750/279 641/751/278
f 640/752/281 643/753/282 644/754/283
f 645/755/284 644/756/283 643/757/282
f 644/758/283 646/759/285 640/760/281
f 647/761/286 640/762/281 646/763/285
f 646/764/285 648/765/287 647/766/286
f 649/767/288 647/768/286 648/769/287
f 648/770/287 650/771/289 649/772/288
f 651/773/290 649/774/288 650/775/289
f 650/776/289 652/777/291 651/778/290
f 653/779/292 651/780/290 652/781/291
f 652/782/291 654/783/293 653/784/292
f 655/785/294 653/786/292 654/787/293
f 654/788/293 656/789/295 655/790/294
f 657/791/296 655/792/294 656/793/295
f 656/794/295 658/795/297 657/796/296
f 659/797/298 657/798/296 658/799/297
f 657/800/299 659/801/300 660/802/301
f 661/803/302 660/804/301 659/805/300
f 664/806/303 663/807/304 662/808/305
f 665/809/306 662/810/305 663/811/304
f 668/812/307 667/813/308 666/814/309
f 669/815/310 666/816/309 667/817/308
f 666/818/311 669/819/312 670/820/313
f 671/821/314 670/822/313 669/823/312
f 669/824/312 672/825/315 671/826/314
f 673/827/316 671/828/314 672/829/315
f 672/830/315 674/831/317 673/832/316
f 675/833/318 673/834/316 674/835/317
f 674/836/317 676/837/319 675/838/318
f 677/839/320 675/840/318 676/841/319
f 676/842/319 678/843/321 677/844/320
f 679/845/322 677/846/320 678/847/321
f 678/848/321 680/849/323 679/850/322
f 681/851/324 679/852/322 680/853/323
f 680/854/323 682/855/325 681/856/324
f 683/857/326 681/858/324 682/859/325
f 682/860/325 684/861/327 683/862/326
f 685/863/328 683/864/326 684/865/327
f 684/866/329 682/867/330 686/868/331
f 687/869/332 686/870/331 682/871/330
f 690/872/333 689/873/334 688/874/335
f 691/875/336 688/876/335 689/877/334
f 688/878/337 691/879/338 692/880/339
f 689/881/334 693/882/340 691/883/336
f 694/884/341 692/885/339 691/886/338
f 695/887/342 691/888/336 693/889/340
f 691/890/338 695/891/343 694/892/341
f 693/893/340 696/894/344 695/895/342
f 697/896/345 694/897/341 695/898/343
f 698/899/346 695/900/342 696/901/344
f 695/902/343 698/903/347 697/904/345
f 696/905/344 699/906/348 698/907/346
f 700/908/349 697/909/345 698/910/347
f 701/911/350 698/912/346 699/913/348
f 698/914/347 701/915/351 700/916/349
f 699/917/348 702/918/352 701/919/350
f 703/920/353 700/921/349 701/922/351
f 704/923/354 701/924/350 702/925/352
f 701/926/351 704/927/355 703/928/353
f 702/929/352 705/930/356 704/931/354
f 706/932/357 703/933/353 704/934/355
f 707/935/358 704/936/354 705/937/356
f 704/938/355 707/939/359 706/940/357
f 708/941/360 706/942/357 707/943/359
f 711/944/361 710/945/362 709/946/363
f 712/947/364 709/948/363 710/949/362
f 710/950/362 713/951/365 712/952/364
f 714/953/366 712/954/364 713/955/365
f 713/956/365 715/957/367 714/958/366
f 716/959/368 714/960/366 715/961/367
f 715/962/367 717/963/369 716/964/368
f 718/965/370 716/966/368 717/967/369
f 717/968/369 719/969/324 718/970/370
f 720/971/371 718/972/370 719/973/324
f 719/974/324 721/975/372 720/976/371
f 722/977/373 720/978/371 721/979/372
f 725/980/374 724/981/373 723/982/375
f 726/983/376 723/984/375 724/985/373
f 729/986/377 728/987/378 727/988/379
f 730/989/380 727/990/379 728/991/378
f 727/992/381 730/993/382 731/994/383
f 732/995/384 731/996/383 730/997/382
f 731/998/383 733/999/385 727/1000/381
f 734/1001/386 727/1002/381 733/1003/385
f 733/1004/385 735/1005/387 734/1006/386
f 736/1007/388 734/1008/386 735/1009/387
f 735/1010/387 737/1011/389 736/1012/388
f 738/1013/390 736/1014/388 737/1015/389
f 737/1016/389 739/1017/391 738/1018/390
f 740/1019/392 738/1020/390 739/1021/391
f 739/1022/391 741/1023/393 740/1024/392
f 742/1025/394 740/1026/392 741/1027/393
f 741/1028/393 743/1029/395 742/1030/394
f 744/1031/396 742/1032/394 743/1033/395
f 743/1034/395 745/1035/397 744/1036/396
f 746/1037/398 744/1038/396 745/1039/397
f 744/1040/399 746/1041/400 747/1042/401
f 748/1043/402 747/1044/401 746/1045/400
f 751/1046/403 750/1047/404 749/1048/405
f 752/1049/406 749/1050/405 750/1051/404
f 755/1052/407 754/1053/408 753/1054/409
f 756/1055/410 753/1056/409 754/1057/408
f 753/1058/411 756/1059/412 757/1060/413
f 758/1061/414 757/1062/413 756/1063/412
f 756/1064/412 759/1065/415 758/1066/414
f 760/1067/416 758/1068/414 759/1069/415
f 759/1070/415 761/1071/417 760/1072/416
f 762/1073/418 760/1074/416 761/1075/417
f 761/1076/417 763/1077/419 762/1078/418
f 764/1079/420 762/1080/418 763/1081/419
f 763/1082/419 765/1083/421 764/1084/420
f 766/1085/422 764/1086/420 765/1087/421
f 765/1088/421 767/1089/423 766/1090/422
f 768/1091/424 766/1092/422 767/1093/423
f 767/1094/423 769/1095/425 768/1096/424
f 770/1097/426 768/1098/424 769/1099/425
f 769/1100/425 771/1101/427 770/1102/426
f 772/1103/428 770/1104/426 771/1105/427
f 771/1106/429 769/1107/430 773/1108/431
f 774/1109/432 773/1110/431 769/1111/430
f 777/1112/433 776/1113/434 775/1114/435
f 778/1115/436 775/1116/435 776/1117/434
f 775/1118/437 778/1119/438 779/1120/439
f 776/1121/434 780/1122/440 778/1123/436
f 781/1124/441 779/1125/439 778/1126/438
f 782/1127/442 778/1128/436 780/1129/440
f 778/1130/438 782/1131/443 781/1132/441
f 780/1133/440 783/1134/444 782/1135/442
f 784/1136/445 781/1137/441 782/1138/443
f 785/1139/446 782/1140/442 783/1141/444
f 782/1142/443 785/1143/447 784/1144/445
f 783/1145/444 786/1146/448 785/1147/446
f 787/1148/449 784/1149/445 785/1150/447
f 788/1151/450 785/1152/446 786/1153/448
f 785/1154/447 788/1155/451 787/1156/449
f 786/1157/448 789/1158/452 788/1159/450
f 790/1160/453 787/1161/449 788/1162/451
f 791/1163/454 788/1164/450 789/1165/452
f 788/1166/451 791/1167/455 790/1168/453
f 789/1169/452 792/1170/456 791/1171/454
f 793/1172/457 790/1173/453 791/1174/455
f 794/1175/458 791/1176/454 792/1177/456
f 791/1178/455 794/1179/459 793/1180/457
f 795/1181/460 793/1182/457 794/1183/459
f 798/1184/461 797/1185/462 796/1186/403
f 799/1187/463 796/1188/403 797/1189/462
f 797/1190/462 800/1191/464 799/1192/463
f 801/1193/465 799/1194/463 800/1195/464
f 800/1196/464 802/1197/420 801/1198/465
f 803/1199/466 801/1200/465 802/1201/420
f 802/1202/420 804/1203/467 803/1204/466
f 805/1205/468 803/1206/466 804/1207/467
f 804/1208/467 806/1209/469 805/1210/468
f 807/1211/470 805/1212/468 806/1213/469
f 806/1214/469 808/1215/471 807/1216/470
f 809/1217/472 807/1218/470 808/1219/471
f 812/1220/473 811/1221/474 810/1222/475
f 813/1223/476 810/1224/475 811/1225/474
f 816/1226/477 815/1227/477 814/1228/477
f 815/1229/477 817/1230/477 814/1231/477
f 814/1232/477 817/1233/477 818/1234/477
f 821/1235/478 820/1236/478 819/1237/478
f 819/1238/478 820/1239/478 822/1240/478
f 820/1241/478 823/1242/478 822/1243/478
f 826/1244/93 825/1245/93 824/1246/93
f 827/1247/93 824/1248/93 825/1249/93
f 830/1250/479 829/1251/479 828/1252/479
f 831/1253/479 828/1254/479 829/1255/479
f 834/1256/99 833/1257/99 832/1258/99
f 835/1259/99 832/1260/99 833/1261/99
f 838/1262/477 837/1263/477 836/1264/477
f 839/1265/477 836/1266/477 837/1267/477
f 842/1268/93 841/1269/93 840/1270/93
f 843/1271/93 840/1272/93 841/1273/93
f 846/1274/38 845/1275/38 844/1276/38
f 847/1277/38 844/1276/38 845/1275/38
f 850/1271/99 849/1272/99 848/1273/99
f 851/1278/99 848/1279/99 849/1280/99
f 854/1281/108 853/1282/108 852/1283/108
f 855/1284/108 852/1283/108 853/1282/108
f 858/1285/93 857/1286/93 856/1287/93
f 859/1288/93 856/1289/93 857/1290/93
f 862/1291/480 861/1292/480 860/1293/480
f 863/1294/480 860/1295/480 861/1296/480
f 866/1297/99 865/1298/99 864/1299/99
f 867/1300/99 864/1301/99 865/1302/99
f 870/1303/478 869/1304/478 868/1305/478
f 871/1306/478 868/1307/478 869/1308/478
f 874/1309/481 873/1310/481 872/1311/481
f 873/1312/481 875/1313/481 872/1314/481
f 872/1315/481 875/1316/481 876/1317/481
f 879/1318/482 878/1319/482 877/1320/482
f 878/1321/482 880/1322/482 877/1323/482
f 877/1324/482 880/1325/482 881/1326/482
l 521 523
