g tex_gun_305_barrel_001
v 0.28498518 0.39227203 3.8607504
v -4.5776364E-06 0.5118994 1.6647748
v 0.30088195 0.41413513 1.6647766
v -1.3809204E-05 0.48487458 3.8607504
v -0.30089065 0.41413513 1.6647748
v -0.28501204 0.39227203 3.8607504
v 0.30088195 0.41413513 1.6647766
v 0.46112502 0.14983825 3.8607504
v 0.28498518 0.39227203 3.8607504
v 0.4868408 0.15818664 1.6647784
v 0.4611261 -0.14982727 3.8607528
v 0.48684156 -0.15818359 1.6647784
v 0.28498688 -0.39226225 3.8607528
v 0.3008837 -0.41413328 1.6647787
v 0.3008837 -0.41413328 1.6647787
v -1.1291504E-05 -0.48486358 3.8607526
v 0.28498688 -0.39226225 3.8607528
v -2.0599364E-06 -0.51189667 1.6647784
v -0.2850091 -0.39226225 3.8607504
v -0.30088753 -0.41413328 1.6647787
v -0.30088753 -0.41413328 1.6647787
v -0.46115044 -0.14982879 3.8607504
v -0.2850091 -0.39226225 3.8607504
v -0.4868475 -0.15818572 1.6647744
v -0.46115097 0.14983673 3.8607504
v -0.4868483 0.15818542 1.6647744
v -0.28501204 0.39227203 3.8607504
v -0.30089065 0.41413513 1.6647748
v 0.19577391 0.26983398 6.8196306
v -0.00012619018 0.4593698 2.4077785
v 0.26978928 0.37166747 2.4077785
v -0.00015045165 0.33349302 6.8196306
v -0.27004042 0.3716687 2.4077785
v 0.22595 0.31137055 6.9661674
v -0.19607101 0.26983458 6.8196306
v -0.00015151977 0.3848343 6.9661674
v -0.2262487 0.31137055 6.9661674
v 0.19577469 -0.26949555 6.8196354
v 0.4366078 -0.14174134 2.4077804
v 0.26979163 -0.3713449 2.4077806
v 0.31686157 -0.10283325 6.8196306
v 0.22595069 -0.31102964 6.966169
v 0.43660766 0.1420639 2.4077783
v 0.365688 -0.11869659 6.9661674
v 0.31686035 0.103172 6.8196306
v 0.26978928 0.37166747 2.4077785
v 0.36568725 0.11903808 6.9661674
v 0.19577391 0.26983398 6.8196306
v 0.22595 0.31137055 6.9661674
v -0.19606887 -0.26949555 6.8196306
v -0.00012329101 -0.459046 2.4077797
v -0.2700369 -0.3713449 2.4077806
v -0.00014846801 -0.333154 6.8196306
v 0.26979163 -0.3713449 2.4077806
v -0.22624595 -0.31102964 6.9661674
v 0.19577469 -0.26949555 6.8196354
v -0.00014884949 -0.38449278 6.9661674
v 0.22595069 -0.31102964 6.966169
v -0.19607101 0.26983458 6.8196306
v -0.43685707 0.1420642 2.4077783
v -0.27004042 0.3716687 2.4077785
v -0.31715843 0.1031723 6.8196306
v -0.2262487 0.31137055 6.9661674
v -0.4368566 -0.14174072 2.4077804
v -0.36598617 0.11903778 6.9661655
v -0.31715813 -0.10283325 6.8196306
v -0.2700369 -0.3713449 2.4077806
v -0.36598602 -0.1186972 6.9661655
v -0.19606887 -0.26949555 6.8196306
v -0.22624595 -0.31102964 6.9661674
v 0.3590666 0.49423644 1.8678943
v -3.3569336E-06 0.64496064 -1.9153609
v 0.37909576 0.52178407 -1.9153597
v -1.4953613E-05 0.61091095 1.8678943
v -0.37910047 0.52178407 -1.9153612
v -0.3590945 0.49423644 1.8678943
v 0.37909576 0.52178407 -1.9153597
v 0.5809921 0.18878509 1.8678936
v 0.3590666 0.49423644 1.8678943
v 0.6133922 0.1993042 -1.9153585
v 0.5809932 -0.18877472 1.8678955
v 0.61339325 -0.1993039 -1.9153584
v 0.3590692 -0.4942276 1.8678949
v 0.37909788 -0.52178377 -1.9153595
v 0.37909788 -0.52178377 -1.9153595
v -1.1672973E-05 -0.6109006 1.8678949
v 0.3590692 -0.4942276 1.8678949
v -1.5258789E-07 -0.6449603 -1.9153589
v -0.35909092 -0.4942276 1.8678933
v -0.37909672 -0.52178377 -1.9153595
v -0.37909672 -0.52178377 -1.9153595
v -0.58101815 -0.18877685 1.8678936
v -0.35909092 -0.4942276 1.8678933
v -0.6133951 -0.19930573 -1.9153607
v -0.5810188 0.18878387 1.8678936
v -0.613396 0.19930206 -1.9153608
v -0.3590945 0.49423644 1.8678943
v -0.37910047 0.52178407 -1.9153612
v 0.28498518 0.39227203 3.8607504
v -1.6937256E-05 7.93457E-06 4.14984
v -1.3809204E-05 0.48487458 3.8607504
v 0.46112502 0.14983825 3.8607504
v -0.28501204 0.39227203 3.8607504
v 0.4611261 -0.14982727 3.8607528
v -0.46115097 0.14983673 3.8607504
v 0.28498688 -0.39226225 3.8607528
v -0.46115044 -0.14982879 3.8607504
v -1.1291504E-05 -0.48486358 3.8607526
v -0.2850091 -0.39226225 3.8607504
v 0.3590666 0.49423644 1.8678943
v -1.8844605E-05 8.2397455E-06 2.156983
v -1.4953613E-05 0.61091095 1.8678943
v 0.5809921 0.18878509 1.8678936
v -0.3590945 0.49423644 1.8678943
v 0.5809932 -0.18877472 1.8678955
v -0.5810188 0.18878387 1.8678936
v 0.3590692 -0.4942276 1.8678949
v -0.58101815 -0.18877685 1.8678936
v -1.1672973E-05 -0.6109006 1.8678949
v -0.35909092 -0.4942276 1.8678933
v 0.12913315 0.17308502 7.0114837
v -0.00015151977 0.3848343 6.9661674
v 0.22595 0.31137055 6.9661674
v 0.0016761017 0.2144986 7.0114837
v 0.20790595 0.064664915 7.0114875
v -0.2262487 0.31137055 6.9661674
v 0.36568725 0.11903808 6.9661674
v -0.12577957 0.17308502 7.0114837
v 0.20790595 -0.069349974 7.0114875
v -0.36598617 0.11903778 6.9661655
v 0.365688 -0.11869659 6.9661674
v -0.20455177 0.064664915 7.0114837
v 0.12913345 -0.17777191 7.0114875
v -0.36598602 -0.1186972 6.9661655
v 0.22595069 -0.31102964 6.966169
v -0.20455153 -0.069349974 7.0114837
v 0.0016769408 -0.21918488 7.0114875
v -0.22624595 -0.31102964 6.9661674
v -0.00014884949 -0.38449278 6.9661674
v -0.1257791 -0.17777191 7.0114875
v 0.0016761017 0.2144986 7.0114837
v 0.12913315 0.17308502 7.0114837
v -0.00012359618 0.00016021729 4.3598413
v -0.12577957 0.17308502 7.0114837
v 0.12913315 0.17308502 7.0114837
v 0.20790595 0.064664915 7.0114875
v -0.00012359618 0.00016021729 4.3598413
v 0.20790595 -0.069349974 7.0114875
v 0.12913345 -0.17777191 7.0114875
v 0.12913345 -0.17777191 7.0114875
v 0.0016769408 -0.21918488 7.0114875
v -0.00012359618 0.00016021729 4.3598413
v -0.1257791 -0.17777191 7.0114875
v -0.1257791 -0.17777191 7.0114875
v -0.20455153 -0.069349974 7.0114837
v -0.00012359618 0.00016021729 4.3598413
v -0.20455177 0.064664915 7.0114837
v -0.12577957 0.17308502 7.0114837
vt 0.52717245 1.7205446
vt 0.5228554 1.7538853
vt 0.5274133 1.7538851
vt 0.5228553 1.7205446
vt 0.51829755 1.7538853
vt 0.51853806 1.7205446
vt 1.7538851 0.53146577
vt 1.7205446 0.5274666
vt 1.7205446 0.53113496
vt 1.7538851 0.5275929
vt 1.7205446 0.5229322
vt 1.7538851 0.52280575
vt 1.7205446 0.51926374
vt 1.7538851 0.5189328
vt 0.4725867 1.7538851
vt 0.47714472 1.7205446
vt 0.4728275 1.7205446
vt 0.47714454 1.7538851
vt 0.48146188 1.7205446
vt 0.4817024 1.7538851
vt -0.75388515 0.5189328
vt -0.7205446 0.5229322
vt -0.7205446 0.51926374
vt -0.75388527 0.5228057
vt -0.7205446 0.52746654
vt -0.75388527 0.5275929
vt -0.7205446 0.53113496
vt -0.75388527 0.53146577
vt 0.5258211 1.6756212
vt 0.52285355 1.7426045
vt 0.5269423 1.7426045
vt 0.5228532 1.6756212
vt 0.5187649 1.7426045
vt 0.5262782 1.6733963
vt 0.51988536 1.6756212
vt 0.52285314 1.6733963
vt 0.5194282 1.6733963
vt 1.6756212 0.52112144
vt 1.7426045 0.52305454
vt 1.7426045 0.5195803
vt 1.6756212 0.52364326
vt 1.6733963 0.520493
vt 1.7426045 0.52734894
vt 1.6733963 0.5234032
vt 1.6756212 0.52676046
vt 1.7426045 0.5308232
vt 1.6733963 0.52700055
vt 1.6756212 0.5292823
vt 1.6733963 0.5299108
vt 0.48011464 1.6756212
vt 0.4771464 1.7426045
vt 0.4812351 1.7426045
vt 0.4771468 1.6756212
vt 0.4730577 1.7426045
vt 0.48057175 1.6733963
vt 0.4741789 1.6756212
vt 0.4771468 1.6733963
vt 0.4737218 1.6733963
vt -0.67562115 0.52928233
vt -0.7426045 0.52734894
vt -0.7426045 0.53082323
vt -0.67562115 0.52676046
vt -0.67339635 0.5299108
vt -0.7426045 0.52305454
vt -0.67339635 0.52700055
vt -0.67562115 0.52364326
vt -0.7426045 0.5195803
vt -0.67339635 0.5234032
vt -0.67562115 0.52112144
vt -0.67339635 0.520493
vt 0.5282947 1.7508013
vt 0.52285546 1.8082409
vt 0.5285981 1.8082409
vt 0.5228553 1.7508013
vt 0.51711285 1.8082409
vt 0.5174159 1.7508013
vt 1.8082409 0.5330947
vt 1.7508013 0.5280559
vt 1.7508013 0.5326778
vt 1.8082409 0.52821505
vt 1.7508013 0.52234286
vt 1.8082409 0.52218354
vt 1.7508013 0.5177209
vt 1.8082409 0.51730394
vt 0.47140187 1.8082409
vt 0.47714466 1.7508013
vt 0.47170532 1.7508013
vt 0.47714448 1.8082409
vt 0.48258406 1.7508013
vt 0.4828871 1.8082409
vt -0.8082409 0.51730394
vt -0.7508013 0.5223428
vt -0.7508013 0.5177209
vt -0.8082409 0.5221835
vt -0.7508013 0.5280559
vt -0.8082409 0.52821505
vt -0.7508013 0.5326778
vt -0.8082409 0.5330947
vt 0.52717245 0.53113496
vt 0.5228552 0.5251994
vt 0.5228553 0.5325362
vt 0.52984065 0.5274666
vt 0.51853806 0.53113496
vt 0.52984065 0.5229322
vt 0.5158699 0.52746654
vt 0.5271725 0.51926374
vt 0.5158699 0.5229322
vt 0.5228553 0.51786256
vt 0.5185381 0.51926374
vt 0.5282947 0.5326778
vt 0.5228552 0.5251994
vt 0.5228553 0.5344433
vt 0.53165644 0.5280559
vt 0.5174159 0.5326778
vt 0.53165644 0.52234286
vt 0.5140542 0.5280559
vt 0.5282947 0.5177209
vt 0.5140542 0.5223428
vt 0.52285534 0.51595545
vt 0.51741594 0.5177209
vt 0.52481157 0.5278183
vt 0.52285314 0.5310224
vt 0.5262782 0.5299108
vt 0.52288085 0.528445
vt 0.52600485 0.52617776
vt 0.5194282 0.5299108
vt 0.52839494 0.52700055
vt 0.52095014 0.5278183
vt 0.52600485 0.52414995
vt 0.51731145 0.52700055
vt 0.52839494 0.5234032
vt 0.5197569 0.52617776
vt 0.52481157 0.52250934
vt 0.51731145 0.5234032
vt 0.5262782 0.520493
vt 0.5197569 0.52414995
vt 0.52288085 0.5218827
vt 0.51942825 0.520493
vt 0.5228532 0.51938134
vt 0.52095014 0.52250934
vt 0.47711915 1.6727084
vt 0.47518843 1.6727084
vt 0.4771464 1.7129672
vt 0.47904986 1.6727084
vt -0.6727084 0.5278183
vt -0.6727083 0.52617776
vt -0.71296716 0.52520174
vt -0.6727083 0.52414995
vt -0.6727083 0.52250934
vt 0.52481157 1.6727083
vt 0.52288085 1.6727083
vt 0.5228536 1.7129672
vt 0.52095014 1.6727083
vt 1.6727083 0.52250934
vt 1.6727084 0.52414995
vt 1.7129672 0.52520174
vt 1.6727084 0.52617776
vt 1.6727084 0.5278183
vn 0.58773935 0.80895674 0.012308539
vn -0 0.9999243 0.012305695
vn 0.58773935 0.80895674 0.012308634
vn -1.2164376E-06 0.9999243 0.012305719
vn -0.5877419 0.8089549 0.012303655
vn -0.58774316 0.8089541 0.012303766
vn 0.58773935 0.80895674 0.012308634
vn 0.95098335 0.30899692 0.012311144
vn 0.58773935 0.80895674 0.012308539
vn 0.9509836 0.30899638 0.012311056
vn 0.95098484 -0.30899236 0.012312195
vn 0.95098495 -0.30899185 0.012312168
vn 0.58774036 -0.8089559 0.012311516
vn 0.58774114 -0.80895543 0.012311556
vn 0.58774114 -0.80895543 0.012311556
vn -1.6915702E-07 -0.9999243 0.012309387
vn 0.58774036 -0.8089559 0.012311516
vn 6.4991605E-07 -0.9999243 0.012309398
vn -0.5877374 -0.80895823 0.012306633
vn -0.5877376 -0.808958 0.012306642
vn -0.5877376 -0.808958 0.012306642
vn -0.95098317 -0.308998 0.012304242
vn -0.5877374 -0.80895823 0.012306633
vn -0.95098317 -0.3089979 0.012304257
vn -0.9509851 0.30899194 0.012303111
vn -0.9509853 0.3089914 0.012303171
vn -0.58774316 0.8089541 0.012303766
vn -0.5877419 0.8089549 0.012303655
vn 0.580275 0.7986795 -0.15934877
vn 2.3471289E-06 0.9995932 0.02851971
vn 0.587547 0.8086872 0.028523095
vn -1.5632045E-06 0.9872219 -0.1593517
vn -0.58754766 0.808687 0.02851698
vn 0.5547215 0.763513 -0.3306538
vn -0.5802744 0.798679 -0.15935338
vn -3.3540186E-06 0.9437513 -0.3306561
vn -0.5547224 0.76351094 -0.3306568
vn 0.5802729 -0.79868144 -0.15934664
vn 0.95067006 -0.30888942 0.02852713
vn 0.58754766 -0.8086866 0.028526174
vn 0.9389063 -0.3050668 -0.15933958
vn 0.55472255 -0.7635149 -0.33064798
vn 0.95066863 0.30889404 0.0285261
vn 0.8975663 -0.29163337 -0.33064285
vn 0.93890476 0.30506954 -0.15934418
vn 0.587547 0.8086872 0.028523095
vn 0.89756244 0.2916377 -0.33064935
vn 0.580275 0.7986795 -0.15934877
vn 0.5547215 0.763513 -0.3306538
vn -0.58027154 -0.7986825 -0.15934621
vn 6.218906E-07 -0.9995932 0.028523302
vn -0.5875434 -0.80868995 0.028519535
vn -2.9798613E-07 -0.9872236 -0.15934086
vn 0.58754766 -0.8086866 0.028526174
vn -0.5547211 -0.76351666 -0.3306458
vn 0.5802729 -0.79868144 -0.15934664
vn 1.1675338E-06 -0.94375557 -0.3306442
vn 0.55472255 -0.7635149 -0.33064798
vn -0.5802744 0.798679 -0.15935338
vn -0.95067006 0.30889028 0.028515814
vn -0.58754766 0.808687 0.02851698
vn -0.9389037 0.30506757 -0.15935361
vn -0.5547224 0.76351094 -0.3306568
vn -0.95066863 -0.30889472 0.028516809
vn -0.8975602 0.2916363 -0.33065692
vn -0.93890214 -0.3050732 -0.15935203
vn -0.5875434 -0.80868995 0.028519535
vn -0.89756024 -0.2916391 -0.33065408
vn -0.58027154 -0.7986825 -0.15934621
vn -0.5547211 -0.76351666 -0.3306458
vn 0.58776075 0.80898476 0.009002023
vn -4.0968132E-07 0.99995947 0.008999988
vn 0.5877602 0.8089851 0.009002174
vn -1.2607941E-06 0.99995947 0.009000003
vn -0.5877629 0.80898327 0.008998433
vn -0.5877641 0.8089823 0.008998538
vn 0.5877602 0.8089851 0.009002174
vn 0.9510169 0.30900788 0.009003875
vn 0.58776075 0.80898476 0.009002023
vn 0.9510172 0.30900696 0.009003747
vn 0.9510185 -0.30900294 0.009004586
vn 0.9510183 -0.3090034 0.009004518
vn 0.58776224 -0.8089837 0.009004104
vn 0.58776176 -0.808984 0.009003996
vn 0.58776176 -0.808984 0.009003996
vn -8.96122E-07 -0.99995947 0.009002452
vn 0.58776224 -0.8089837 0.009004104
vn -0 -0.99995947 0.009002459
vn -0.587759 -0.808986 0.009000431
vn -0.5877583 -0.8089865 0.009000475
vn -0.5877583 -0.8089865 0.009000475
vn -0.9510164 -0.30900913 0.008998755
vn -0.587759 -0.808986 0.009000431
vn -0.95101625 -0.3090098 0.008998763
vn -0.95101815 0.30900395 0.0089978995
vn -0.9510188 0.30900222 0.008998066
vn -0.5877641 0.8089823 0.008998538
vn -0.5877629 0.80898327 0.008998433
vn 0.30100977 0.4143038 0.85892105
vn -5.384685E-06 4.045879E-06 1
vn 2.6681874E-07 0.5121093 0.8589203
vn 0.48703927 0.15825385 0.8589229
vn -0.30101216 0.4143061 0.8589192
vn 0.48703727 -0.15824316 0.858926
vn -0.48704708 0.15824999 0.85891914
vn 0.30100468 -0.41429788 0.85892576
vn -0.4870443 -0.15825343 0.85892004
vn -3.1380125E-06 -0.5121027 0.8589242
vn -0.30101022 -0.41430438 0.85892063
vn 0.25142014 0.34604773 0.903902
vn -4.729977E-06 2.5663578E-06 1
vn -0 0.4277404 0.9039016
vn 0.40680158 0.13218041 0.9039031
vn -0.25142238 0.34605023 0.9039005
vn 0.4067994 -0.13217476 0.9039049
vn -0.4068086 0.13217871 0.9039002
vn 0.251416 -0.3460444 0.9039044
vn -0.40680605 -0.13218252 0.9039008
vn -1.5188E-06 -0.42773622 0.9039036
vn -0.25141978 -0.34605056 0.903901
vn 0.1533868 0.20910014 0.9657896
vn -0.00041123113 0.25709298 0.9663865
vn 0.15186171 0.21017757 0.9657967
vn 0.00073057105 0.2571045 0.9663833
vn 0.24966842 0.07983528 0.9650347
vn -0.15063111 0.20731877 0.9666071
vn 0.24905364 0.081648536 0.9650419
vn -0.15063228 0.20732035 0.96660656
vn 0.25122598 -0.08243824 0.96441144
vn -0.24439237 0.07983638 0.9663843
vn 0.25158605 -0.08128594 0.9644153
vn -0.24475616 0.078758836 0.9663806
vn 0.15592754 -0.21461178 0.96417236
vn -0.24682221 -0.07948396 0.9657956
vn 0.1559262 -0.21461281 0.96417236
vn -0.24627739 -0.08127784 0.9657854
vn 0.00076874526 -0.26440415 0.9644117
vn -0.15461648 -0.21162659 0.96504295
vn -0.0004372621 -0.26439324 0.9644148
vn -0.15309383 -0.2127776 0.96503264
vn -0.00012802918 -0.99674904 0.08056961
vn -0.58601916 -0.8062242 0.081143335
vn 0.00061719987 -0.00094973634 0.9999994
vn 0.5858866 -0.8063996 0.080352694
vn -0.58601916 -0.8062242 0.081143335
vn -0.94793063 -0.307778 0.08185508
vn 0.00061719987 -0.00094973634 0.9999994
vn -0.9477797 0.30808824 0.082432374
vn -0.58577424 0.80624855 0.08265544
vn -0.58577424 0.80624855 0.08265544
vn -0.00012906827 0.99659604 0.08243886
vn 0.00061719987 -0.00094973634 0.9999994
vn 0.58564025 0.8064264 0.081865415
vn 0.58564025 0.8064264 0.081865415
vn 0.94785345 0.30820128 0.0811538
vn 0.00061719987 -0.00094973634 0.9999994
vn 0.94800454 -0.30788746 0.0805761
vn 0.5858866 -0.8063996 0.080352694
g tex_gun_305_barrel_001_0
f 3/3/3 2/2/2 1/1/1
f 4/4/4 1/1/1 2/2/2
f 2/2/2 5/5/5 4/4/4
f 6/6/6 4/4/4 5/5/5
f 9/9/9 8/8/8 7/7/7
f 10/10/10 7/7/7 8/8/8
f 8/8/8 11/11/11 10/10/10
f 12/12/12 10/10/10 11/11/11
f 11/11/11 13/13/13 12/12/12
f 14/14/14 12/12/12 13/13/13
f 17/17/17 16/16/16 15/15/15
f 18/18/18 15/15/15 16/16/16
f 16/16/16 19/19/19 18/18/18
f 20/20/20 18/18/18 19/19/19
f 23/23/23 22/22/22 21/21/21
f 24/24/24 21/21/21 22/22/22
f 22/22/22 25/25/25 24/24/24
f 26/26/26 24/24/24 25/25/25
f 25/25/25 27/27/27 26/26/26
f 28/28/28 26/26/26 27/27/27
f 31/31/31 30/30/30 29/29/29
f 32/32/32 29/29/29 30/30/30
f 30/30/30 33/33/33 32/32/32
f 29/29/29 32/32/32 34/34/34
f 35/35/35 32/32/32 33/33/33
f 36/36/36 34/34/34 32/32/32
f 32/32/32 35/35/35 36/36/36
f 37/37/37 36/36/36 35/35/35
f 40/40/40 39/39/39 38/38/38
f 41/41/41 38/38/38 39/39/39
f 38/38/38 41/41/41 42/42/42
f 39/39/39 43/43/43 41/41/41
f 44/44/44 42/42/42 41/41/41
f 45/45/45 41/41/41 43/43/43
f 41/41/41 45/45/45 44/44/44
f 43/43/43 46/46/46 45/45/45
f 47/47/47 44/44/44 45/45/45
f 48/48/48 45/45/45 46/46/46
f 45/45/45 48/48/48 47/47/47
f 49/49/49 47/47/47 48/48/48
f 52/52/52 51/51/51 50/50/50
f 53/53/53 50/50/50 51/51/51
f 51/51/51 54/54/54 53/53/53
f 50/50/50 53/53/53 55/55/55
f 56/56/56 53/53/53 54/54/54
f 57/57/57 55/55/55 53/53/53
f 53/53/53 56/56/56 57/57/57
f 58/58/58 57/57/57 56/56/56
f 61/61/61 60/60/60 59/59/59
f 62/62/62 59/59/59 60/60/60
f 59/59/59 62/62/62 63/63/63
f 60/60/60 64/64/64 62/62/62
f 65/65/65 63/63/63 62/62/62
f 66/66/66 62/62/62 64/64/64
f 62/62/62 66/66/66 65/65/65
f 64/64/64 67/67/67 66/66/66
f 68/68/68 65/65/65 66/66/66
f 69/69/69 66/66/66 67/67/67
f 66/66/66 69/69/69 68/68/68
f 70/70/70 68/68/68 69/69/69
f 73/73/73 72/72/72 71/71/71
f 74/74/74 71/71/71 72/72/72
f 72/72/72 75/75/75 74/74/74
f 76/76/76 74/74/74 75/75/75
f 79/79/79 78/78/78 77/77/77
f 80/80/80 77/77/77 78/78/78
f 78/78/78 81/81/81 80/80/80
f 82/82/82 80/80/80 81/81/81
f 81/81/81 83/83/83 82/82/82
f 84/84/84 82/82/82 83/83/83
f 87/87/87 86/86/86 85/85/85
f 88/88/88 85/85/85 86/86/86
f 86/86/86 89/89/89 88/88/88
f 90/90/90 88/88/88 89/89/89
f 93/93/93 92/92/92 91/91/91
f 94/94/94 91/91/91 92/92/92
f 92/92/92 95/95/95 94/94/94
f 96/96/96 94/94/94 95/95/95
f 95/95/95 97/97/97 96/96/96
f 98/98/98 96/96/96 97/97/97
f 101/101/101 100/100/100 99/99/99
f 99/99/99 100/100/100 102/102/102
f 103/103/103 100/100/100 101/101/101
f 102/102/102 100/100/100 104/104/104
f 105/105/105 100/100/100 103/103/103
f 104/104/104 100/100/100 106/106/106
f 107/107/107 100/100/100 105/105/105
f 106/106/106 100/100/100 108/108/108
f 109/109/109 100/100/100 107/107/107
f 108/108/108 100/100/100 109/109/109
f 112/112/112 111/111/111 110/110/110
f 110/110/110 111/111/111 113/113/113
f 114/114/114 111/111/111 112/112/112
f 113/113/113 111/111/111 115/115/115
f 116/116/116 111/111/111 114/114/114
f 115/115/115 111/111/111 117/117/117
f 118/118/118 111/111/111 116/116/116
f 117/117/117 111/111/111 119/119/119
f 120/120/120 111/111/111 118/118/118
f 119/119/119 111/111/111 120/120/120
g tex_gun_305_barrel_001_1
f 123/123/123 122/122/122 121/121/121
f 124/124/124 121/121/121 122/122/122
f 121/121/121 125/125/125 123/123/123
f 122/122/122 126/126/126 124/124/124
f 127/127/127 123/123/123 125/125/125
f 128/128/128 124/124/124 126/126/126
f 125/125/125 129/129/129 127/127/127
f 126/126/126 130/130/130 128/128/128
f 131/131/131 127/127/127 129/129/129
f 132/132/132 128/128/128 130/130/130
f 129/129/129 133/133/133 131/131/131
f 130/130/130 134/134/134 132/132/132
f 135/135/135 131/131/131 133/133/133
f 136/136/136 132/132/132 134/134/134
f 133/133/133 137/137/137 135/135/135
f 134/134/134 138/138/138 136/136/136
f 139/139/139 135/135/135 137/137/137
f 140/140/140 136/136/136 138/138/138
f 137/137/137 140/140/140 139/139/139
f 138/138/138 139/139/139 140/140/140
g tex_gun_305_barrel_001_2
f 143/143/143 142/142/142 141/141/141
f 141/141/141 144/144/144 143/143/143
f 147/147/147 146/146/146 145/145/145
f 147/147/147 148/148/148 146/146/146
f 147/147/147 149/149/149 148/148/148
f 152/152/152 151/151/151 150/150/150
f 152/152/152 153/153/153 151/151/151
f 156/156/156 155/155/155 154/154/154
f 156/156/156 157/157/157 155/155/155
f 156/156/156 158/158/158 157/157/157
