g tex_gun_305_base_001
v -3.2173738 9.918213E-07 -4.034452
v -4.0344577 0.15096039 -3.2173681
v -4.0344577 8.392334E-07 -3.217368
v -3.2173738 0.15096046 -4.0344515
v -2.2389574 1.0681152E-06 -4.649233
v -2.238957 0.15096061 -4.649234
v -1.1482699 1.1444091E-06 -5.030883
v -1.1482697 0.15096061 -5.030883
v -0 1.1444091E-06 -5.1602616
v -0 0.15096061 -5.1602616
v 1.1482697 0.15096061 -5.030883
v 1.1482699 1.1444091E-06 -5.030883
v 2.238957 0.15096061 -4.649234
v 2.2389574 1.0681152E-06 -4.649233
v 3.2173738 0.15096046 -4.0344515
v 3.2173738 9.918213E-07 -4.034452
v 4.0344577 0.15096039 -3.2173681
v 4.0344577 8.392334E-07 -3.217368
v -4.649237 0.15096016 -2.2389493
v -4.0344577 8.392334E-07 -3.217368
v -4.0344577 0.15096039 -3.2173681
v -4.649237 6.866455E-07 -2.2389498
v -5.0308843 0.15095992 -1.1482614
v -5.0308843 4.5776366E-07 -1.1482619
v -5.1602616 3.0517577E-07 2.2556226E-07
v -5.1602616 0.15095977 3.083126E-07
v -5.0308843 1.5258789E-07 1.1482621
v -5.0308843 0.15095963 1.1482623
v -4.649237 -7.6293944E-08 2.2389498
v -4.649237 0.15095939 2.2389498
v -4.034457 -2.2888183E-07 3.2173681
v -4.0344567 0.15095916 3.2173681
v -4.0344567 0.15095916 3.2173681
v -3.217373 -3.814697E-07 4.0344524
v -4.034457 -2.2888183E-07 3.2173681
v -3.217373 0.15095909 4.0344524
v -2.238957 -4.5776366E-07 4.649233
v -2.2389567 0.15095894 4.649234
v -1.1482694 -5.340576E-07 5.030883
v -1.1482693 0.15095894 5.030883
v -0 -5.340576E-07 5.1602616
v -0 0.15095894 5.1602616
v 1.1482693 0.15095894 5.030883
v 1.1482694 -5.340576E-07 5.030883
v 2.2389567 0.15095894 4.649234
v 2.238957 -4.5776366E-07 4.649233
v 3.217373 0.15095909 4.0344524
v 3.217373 -3.814697E-07 4.0344524
v 4.0344567 0.15095916 3.2173681
v 4.034457 -2.2888183E-07 3.2173681
v 4.0344577 8.392334E-07 -3.217368
v 4.649237 0.15096016 -2.2389493
v 4.0344577 0.15096039 -3.2173681
v 4.649237 6.866455E-07 -2.2389498
v 5.0308843 0.15095992 -1.1482614
v 5.0308843 4.5776366E-07 -1.1482619
v 5.1602616 3.0517577E-07 2.2556226E-07
v 5.1602616 0.15095977 3.083126E-07
v 5.0308843 1.5258789E-07 1.1482621
v 5.0308843 0.15095963 1.1482623
v 4.649237 -7.6293944E-08 2.2389498
v 4.649237 0.15095939 2.2389498
v 4.034457 -2.2888183E-07 3.2173681
v 4.0344567 0.15095916 3.2173681
v -5.1602616 0.15095977 3.083126E-07
v -4.4805613 0.38451615 -1.022659
v -4.5957875 0.38451597 -1.8983473E-06
v -4.480562 0.38451582 1.0226554
v -5.0308843 0.15095992 -1.1482614
v -5.0308843 0.15095963 1.1482623
v -4.649237 0.15096016 -2.2389493
v -4.140663 0.38451552 1.9940345
v -4.1406617 0.38451645 -1.9940376
v -4.649237 0.15095939 2.2389498
v -4.0344577 0.15096039 -3.2173681
v -3.5931332 0.38451552 2.8654253
v -3.593131 0.38451645 -2.8654275
v -4.0344567 0.15095916 3.2173681
v -3.2173738 0.15096046 -4.0344515
v -2.8654294 0.38451537 3.5931292
v -2.8645785 0.3845163 -3.59206
v -3.217373 0.15095909 4.0344524
v -2.238957 0.15096061 -4.649234
v -1.9940405 0.38451537 4.140661
v -1.9934478 0.3845163 -4.139429
v -2.2389567 0.15095894 4.649234
v -1.1482697 0.15096061 -5.030883
v -1.0226617 0.38451508 4.4805613
v -1.0223581 0.3845163 -4.4792285
v -1.1482693 0.15095894 5.030883
v -0 0.15096061 -5.1602616
v -0 0.38451645 -4.594422
v 1.0223581 0.3845163 -4.4792285
v 1.1482697 0.15096061 -5.030883
v 1.9934478 0.3845163 -4.139429
v 2.238957 0.15096061 -4.649234
v 2.8645785 0.3845163 -3.59206
v 3.2173738 0.15096046 -4.0344515
v 3.593131 0.38451645 -2.8654275
v 4.0344577 0.15096039 -3.2173681
v 4.1406617 0.38451645 -1.9940376
v 4.649237 0.15096016 -2.2389493
v 4.4805613 0.38451615 -1.022659
v 5.0308843 0.15095992 -1.1482614
v 4.5957875 0.38451597 -1.8983473E-06
v 5.1602616 0.15095977 3.083126E-07
v 4.480562 0.38451582 1.0226554
v 5.0308843 0.15095963 1.1482623
v 4.140663 0.38451552 1.9940345
v 4.649237 0.15095939 2.2389498
v 3.5931332 0.38451552 2.8654253
v 4.0344567 0.15095916 3.2173681
v 2.8654294 0.38451537 3.5931292
v 3.217373 0.15095909 4.0344524
v 1.9940405 0.38451537 4.140661
v 2.2389567 0.15095894 4.649234
v 1.0226617 0.38451508 4.4805613
v 1.1482693 0.15095894 5.030883
v -0 0.38451523 4.595788
v -0 0.15095894 5.1602616
v -1.9940405 0.38451537 4.140661
v -8.138021E-08 0.38451537 -0.21715975
v -1.0226617 0.38451508 4.4805613
v -2.8654294 0.38451537 3.5931292
v -0 0.38451523 4.595788
v -3.5931332 0.38451552 2.8654253
v 1.0226617 0.38451508 4.4805613
v -4.140663 0.38451552 1.9940345
v 1.9940405 0.38451537 4.140661
v -4.480562 0.38451582 1.0226554
v 2.8654294 0.38451537 3.5931292
v -4.5957875 0.38451597 -1.8983473E-06
v 3.5931332 0.38451552 2.8654253
v -4.4805613 0.38451615 -1.022659
v 4.140663 0.38451552 1.9940345
v -4.1406617 0.38451645 -1.9940376
v 4.480562 0.38451582 1.0226554
v -3.593131 0.38451645 -2.8654275
v 4.5957875 0.38451597 -1.8983473E-06
v -2.8645785 0.3845163 -3.59206
v 4.4805613 0.38451615 -1.022659
v -1.9934478 0.3845163 -4.139429
v 4.1406617 0.38451645 -1.9940376
v -1.0223581 0.3845163 -4.4792285
v 3.593131 0.38451645 -2.8654275
v -0 0.38451645 -4.594422
v 2.8645785 0.3845163 -3.59206
v 1.0223581 0.3845163 -4.4792285
v 1.9934478 0.3845163 -4.139429
v -2.2389574 1.0681152E-06 -4.649233
v -6.5394815E-08 3.0517577E-07 6.5394815E-08
v -1.1482699 1.1444091E-06 -5.030883
v -3.2173738 9.918213E-07 -4.034452
v -0 1.1444091E-06 -5.1602616
v -4.0344577 8.392334E-07 -3.217368
v 1.1482699 1.1444091E-06 -5.030883
v -4.649237 6.866455E-07 -2.2389498
v 2.2389574 1.0681152E-06 -4.649233
v -5.0308843 4.5776366E-07 -1.1482619
v 3.2173738 9.918213E-07 -4.034452
v -5.1602616 3.0517577E-07 2.2556226E-07
v 4.0344577 8.392334E-07 -3.217368
v -5.0308843 1.5258789E-07 1.1482621
v 4.649237 6.866455E-07 -2.2389498
v -4.649237 -7.6293944E-08 2.2389498
v 5.0308843 4.5776366E-07 -1.1482619
v -4.034457 -2.2888183E-07 3.2173681
v 5.1602616 3.0517577E-07 2.2556226E-07
v -3.217373 -3.814697E-07 4.0344524
v 5.0308843 1.5258789E-07 1.1482621
v -2.238957 -4.5776366E-07 4.649233
v 4.649237 -7.6293944E-08 2.2389498
v -1.1482694 -5.340576E-07 5.030883
v 4.034457 -2.2888183E-07 3.2173681
v -0 -5.340576E-07 5.1602616
v 3.217373 -3.814697E-07 4.0344524
v 1.1482694 -5.340576E-07 5.030883
v 2.238957 -4.5776366E-07 4.649233
vt 0.5487371 0.5
vt 0.56111443 0.5022842
vt 0.5611144 0.5
vt 0.5487371 0.5022842
vt 0.53391594 0.5
vt 0.53391594 0.5022843
vt 0.51739407 0.5
vt 0.51739407 0.5022843
vt 0.49999994 0.5
vt 0.49999994 0.5022843
vt 0.48260587 0.5022843
vt 0.48260587 0.5
vt 0.466084 0.5022843
vt 0.466084 0.5
vt 0.45126283 0.5022842
vt 0.45126283 0.5
vt 0.43888557 0.5022842
vt 0.43888557 0.5
vt -0.8557625 0.5022842
vt -0.8706174 0.5
vt -0.8706175 0.5022842
vt -0.8557625 0.5
vt -0.8392031 0.5022842
vt -0.8392031 0.5
vt -0.8217695 0.5
vt -0.8217695 0.5022842
vt -0.80433595 0.5
vt -0.80433595 0.5022842
vt -0.78777647 0.5
vt -0.78777647 0.5022842
vt -0.77292156 0.5
vt -0.77292156 0.5022842
vt 0.43888557 0.5022842
vt 0.45126286 0.5
vt 0.43888557 0.5
vt 0.45126286 0.5022842
vt 0.466084 0.5
vt 0.466084 0.5022842
vt 0.48260584 0.5
vt 0.48260584 0.5022842
vt 0.49999997 0.5
vt 0.49999997 0.5022842
vt 0.51739407 0.5022842
vt 0.51739407 0.5
vt 0.53391594 0.5022842
vt 0.53391594 0.5
vt 0.5487371 0.5022842
vt 0.5487371 0.5
vt 0.5611144 0.5022842
vt 0.5611144 0.5
vt 1.8706174 0.5
vt 1.8557625 0.5022842
vt 1.8706174 0.5022842
vt 1.8557625 0.5
vt 1.839203 0.5022842
vt 1.839203 0.5
vt 1.8217695 0.5
vt 1.8217695 0.5022842
vt 1.8043358 0.5
vt 1.8043358 0.5022842
vt 1.7877765 0.5
vt 1.7877765 0.5022842
vt 1.7729214 0.5
vt 1.7729214 0.5022842
vt 0.4218318 1.8217695
vt 0.43212798 1.8372961
vt 0.4303825 1.8217695
vt 0.43212795 1.806243
vt 0.42379162 1.8392031
vt 0.4237916 1.804336
vt 0.42957285 1.8557625
vt 0.43727675 1.7914948
vt 0.4372768 1.8520441
vt 0.42957282 1.7877765
vt 0.4388856 1.8706175
vt 0.4455708 1.7782649
vt 0.4455709 1.8652741
vt 0.43888557 1.7729216
vt 0.4512629 1.8830229
vt 0.45659414 1.7672164
vt 0.45660707 1.8763063
vt 0.45126286 1.760516
vt 0.46608406 1.8923569
vt 0.46979403 1.7589035
vt 0.46980307 1.8846167
vt 0.466084 1.7511821
vt 0.4826059 1.8981513
vt 0.48450857 1.7537429
vt 0.48451322 1.8897758
vt 0.48260584 1.7453877
vt 0.50000006 1.9001156
vt 0.50000006 1.8915247
vt 0.51548684 1.8897758
vt 0.5173941 1.8981513
vt 0.530197 1.8846167
vt 0.533916 1.8923569
vt 0.54339296 1.8763062
vt 0.54873717 1.8830229
vt 0.5544292 1.8652741
vt 0.56111443 1.8706174
vt 0.5627232 1.8520441
vt 0.5704272 1.8557625
vt 0.56787205 1.837296
vt 0.5762084 1.839203
vt 0.5696175 1.8217695
vt 0.5781682 1.8217695
vt 0.56787205 1.806243
vt 0.57620835 1.8043358
vt 0.5627232 1.7914948
vt 0.5704271 1.7877765
vt 0.5544292 1.7782649
vt 0.5611144 1.7729214
vt 0.54340583 1.7672164
vt 0.5487371 1.760516
vt 0.5302059 1.7589035
vt 0.53391594 1.7511821
vt 0.51549137 1.7537429
vt 0.51739407 1.7453877
vt 0.49999997 1.7519935
vt 0.49999997 1.7434233
vt 0.46979403 1.7589035
vt 0.5 1.8250666
vt 0.48450857 1.7537429
vt 0.45659414 1.7672164
vt 0.49999997 1.7519935
vt 0.4455708 1.7782649
vt 0.51549137 1.7537429
vt 0.43727675 1.7914948
vt 0.5302059 1.7589035
vt 0.43212795 1.806243
vt 0.54340583 1.7672164
vt 0.4303825 1.8217695
vt 0.5544292 1.7782649
vt 0.43212798 1.8372961
vt 0.5627232 1.7914948
vt 0.4372768 1.8520441
vt 0.56787205 1.806243
vt 0.4455709 1.8652741
vt 0.5696175 1.8217695
vt 0.45660707 1.8763063
vt 0.56787205 1.837296
vt 0.46980307 1.8846167
vt 0.5627232 1.8520441
vt 0.48451322 1.8897758
vt 0.5544292 1.8652741
vt 0.50000006 1.8915247
vt 0.54339296 1.8763062
vt 0.51548684 1.8897758
vt 0.530197 1.8846167
vt 0.28327462 0.9500342
vt 0.5 0.5
vt 0.38885045 0.9869769
vt 0.18856633 0.890525
vt 0.5000001 0.99950045
vt 0.10947463 0.81143326
vt 0.6111498 0.98697686
vt 0.04996553 0.7167249
vt 0.7167256 0.9500341
vt 0.013022989 0.611149
vt 0.81143385 0.89052486
vt 0.0004995465 0.5000001
vt 0.89052546 0.8114331
vt 0.013022929 0.38885123
vt 0.9500346 0.71672463
vt 0.04996541 0.28327537
vt 0.9869771 0.6111488
vt 0.10947457 0.1885669
vt 0.99950045 0.49999985
vt 0.18856624 0.109475136
vt 0.986977 0.388851
vt 0.28327447 0.049965918
vt 0.9500345 0.28327513
vt 0.38885027 0.013023138
vt 0.89052534 0.18856671
vt 0.49999988 0.0004995465
vt 0.81143355 0.10947502
vt 0.6111495 0.013023078
vt 0.71672535 0.0499658
vn -0.6234899 2.923128E-06 -0.7818314
vn -0.78183204 -2.6030286E-06 -0.62348914
vn -0.7818321 -2.680223E-06 -0.623489
vn -0.62349015 2.8720558E-06 -0.7818312
vn -0.43388537 -3.8594194E-06 -0.900968
vn -0.43388474 -3.9380075E-06 -0.9009683
vn -0.22252145 0 -0.9749278
vn -0.22252126 2.2021241E-07 -0.9749278
vn -0 0 -1
vn -0 0 -1
vn 0.22252128 2.2021241E-07 -0.9749278
vn 0.22252145 0 -0.9749278
vn 0.43388474 -3.9380075E-06 -0.9009683
vn 0.43388537 -3.8594194E-06 -0.900968
vn 0.62349015 2.8720558E-06 -0.7818312
vn 0.6234899 2.9231282E-06 -0.78183144
vn 0.78183204 -2.6030286E-06 -0.62348914
vn 0.7818321 -2.680223E-06 -0.6234891
vn -0.9009693 7.1638857E-07 -0.43388283
vn -0.7818321 -2.680223E-06 -0.623489
vn -0.78183204 -2.6030286E-06 -0.62348914
vn -0.9009692 8.910183E-07 -0.43388304
vn -0.9749281 6.4929577E-07 -0.2225201
vn -0.97492796 6.7476253E-07 -0.2225205
vn -1 0 0
vn -1 0 0
vn -0.97492796 -1.1265959E-07 0.22252034
vn -0.97492796 -1.0551452E-07 0.22252038
vn -0.9009692 0 0.4338832
vn -0.9009692 0 0.4338832
vn -0.78183174 1.5093042E-06 0.6234895
vn -0.7818317 1.5210491E-06 0.6234896
vn -0.7818317 1.5210491E-06 0.6234896
vn -0.62349015 0 0.78183115
vn -0.78183174 1.5093042E-06 0.6234895
vn -0.62349033 -1.913049E-07 0.78183115
vn -0.43388522 -4.834254E-06 0.90096813
vn -0.4338847 -4.78736E-06 0.90096843
vn -0.22252133 0 0.9749278
vn -0.22252123 2.2021229E-07 0.9749279
vn -0 0 1
vn -0 0 1
vn 0.22252119 2.2021226E-07 0.9749279
vn 0.22252133 0 0.9749278
vn 0.43388468 -4.7873596E-06 0.9009683
vn 0.43388522 -4.834254E-06 0.90096813
vn 0.62349033 -1.913049E-07 0.78183115
vn 0.62349015 0 0.7818312
vn 0.7818317 1.5210491E-06 0.6234896
vn 0.78183174 1.5093042E-06 0.6234895
vn 0.7818321 -2.680223E-06 -0.6234891
vn 0.9009693 7.1638857E-07 -0.43388283
vn 0.78183204 -2.6030286E-06 -0.62348914
vn 0.9009692 8.910183E-07 -0.43388304
vn 0.9749281 6.4929577E-07 -0.2225201
vn 0.97492796 6.7476253E-07 -0.2225205
vn 1 0 0
vn 1 0 0
vn 0.97492796 -1.126596E-07 0.22252035
vn 0.97492796 -1.0551452E-07 0.22252038
vn 0.9009692 0 0.43388316
vn 0.9009692 0 0.4338832
vn 0.78183174 1.5093042E-06 0.6234895
vn 0.7818317 1.5210491E-06 0.6234896
vn -0.38232467 0.9240281 0
vn -0.37273902 0.9240281 -0.08507516
vn -0.38232478 0.924028 -2.226861E-07
vn -0.37273902 0.9240281 0.08507512
vn -0.37273902 0.9240281 -0.08507465
vn -0.37273902 0.9240281 0.08507516
vn -0.34446335 0.9240279 -0.16588393
vn -0.3444629 0.9240279 0.16588439
vn -0.34446293 0.924028 -0.16588426
vn -0.34446302 0.9240279 0.16588448
vn -0.29891354 0.9240281 -0.23837522
vn -0.29891402 0.9240278 0.23837605
vn -0.29875934 0.92408377 -0.23835252
vn -0.29891407 0.9240278 0.238376
vn -0.23785107 0.9242977 -0.29849753
vn -0.23837608 0.9240278 0.29891378
vn -0.2376729 0.924354 -0.29846492
vn -0.23837608 0.9240278 0.29891375
vn -0.16554232 0.92435426 -0.3437513
vn -0.16588485 0.9240278 0.34446314
vn -0.16554223 0.9243543 -0.3437512
vn -0.16588487 0.9240278 0.34446302
vn -0.0848997 0.9243543 -0.37196925
vn -0.08507547 0.924028 0.37273893
vn -0.084899805 0.92435426 -0.37196934
vn -0.08507546 0.924028 0.37273893
vn -0 0.92435414 -0.38153565
vn -0 0.924354 -0.38153595
vn 0.084899805 0.92435426 -0.37196934
vn 0.0848997 0.9243543 -0.37196925
vn 0.16554222 0.9243543 -0.3437512
vn 0.16554232 0.92435426 -0.3437513
vn 0.2376729 0.924354 -0.29846492
vn 0.23785107 0.9242977 -0.29849753
vn 0.29875934 0.92408377 -0.23835252
vn 0.29891354 0.9240281 -0.23837522
vn 0.34446293 0.924028 -0.16588426
vn 0.3444633 0.9240279 -0.1658839
vn 0.37273893 0.9240281 -0.0850753
vn 0.3727391 0.9240281 -0.0850748
vn 0.38232467 0.924028 0
vn 0.3823248 0.924028 2.0649554E-07
vn 0.37273902 0.9240281 0.085075125
vn 0.37273902 0.9240281 0.08507516
vn 0.34446293 0.9240279 0.16588439
vn 0.34446302 0.9240279 0.16588448
vn 0.29891402 0.9240278 0.23837605
vn 0.29891407 0.9240278 0.238376
vn 0.23837611 0.9240278 0.29891378
vn 0.23837608 0.9240278 0.29891375
vn 0.16588485 0.9240278 0.34446314
vn 0.16588485 0.9240278 0.344463
vn 0.08507547 0.924028 0.37273893
vn 0.08507547 0.9240281 0.37273896
vn -0 0.9240279 0.38232487
vn -0 0.9240279 0.38232508
vn 1.3722914E-07 1 0
vn -0 1 1.3954366E-07
vn -0 1 0
vn -0 1 0
vn -0 1 0
vn -0 1 0
vn -0 1 0
vn -0 1 1.14375545E-07
vn -1.3722912E-07 1 0
vn 1.5628135E-07 1 1.9556518E-07
vn -0 1 0
vn 1.3983687E-07 1 1.4878114E-07
vn -0 1 0
vn 1.2436914E-07 1 2.5536463E-07
vn -0 1 1.1437556E-07
vn 1.5368727E-07 1 2.4298134E-07
vn -1.5628135E-07 1 1.9556518E-07
vn 2.308054E-07 1 0
vn -1.3983687E-07 1 1.4878114E-07
vn 1.8714805E-07 1 1.1242614E-07
vn -1.2436912E-07 1 2.5536463E-07
vn -0 1 1.8739064E-07
vn -1.5368727E-07 1 2.4298134E-07
vn -0 1 2.2092114E-07
vn -2.308054E-07 1 0
vn -0 1 2.4401442E-07
vn -1.8714805E-07 1 1.1242614E-07
vn -0 1 2.2092114E-07
vn -0 1 1.8739064E-07
vn -0 -1 -1.6926361E-07
vn -0 -1 -1.6926361E-07
vn -0 -1 -1.692636E-07
vn -0 -1 -1.7753874E-07
vn -0 -1 -1.6263388E-07
vn -0 -1 -1.5930463E-07
vn -0 -1 -1.6263388E-07
vn -0 -1 -2.041587E-07
vn -0 -1 -1.6926361E-07
vn -0 -1 -1.3288593E-07
vn -0 -1 -1.5480786E-07
vn -0 -1 -1.3288597E-07
vn -0 -1 -1.775387E-07
vn -0 -1 -2.041587E-07
vn -0 -1 -1.5930463E-07
vn -0 -1 -1.5930462E-07
vn -0 -1 -2.041587E-07
vn -0 -1 -1.7753871E-07
vn -0 -1 -1.3288594E-07
vn -0 -1 -1.5480786E-07
vn -0 -1 -1.3288596E-07
vn -0 -1 -1.6926361E-07
vn -0 -1 -2.0415875E-07
vn -0 -1 -1.6263388E-07
vn -0 -1 -1.5930462E-07
vn -0 -1 -1.6263388E-07
vn -0 -1 -1.775387E-07
vn -0 -1 -1.6926359E-07
vn -0 -1 -1.5480786E-07
g tex_gun_305_base_001_0
f 3/3/3 2/2/2 1/1/1
f 4/4/4 1/1/1 2/2/2
f 1/1/1 4/4/4 5/5/5
f 6/6/6 5/5/5 4/4/4
f 5/5/5 6/6/6 7/7/7
f 8/8/8 7/7/7 6/6/6
f 7/7/7 8/8/8 9/9/9
f 10/10/10 9/9/9 8/8/8
f 10/10/10 11/11/11 9/9/9
f 12/12/12 9/9/9 11/11/11
f 11/11/11 13/13/13 12/12/12
f 14/14/14 12/12/12 13/13/13
f 13/13/13 15/15/15 14/14/14
f 16/16/16 14/14/14 15/15/15
f 15/15/15 17/17/17 16/16/16
f 18/18/18 16/16/16 17/17/17
f 21/21/21 20/20/20 19/19/19
f 22/22/22 19/19/19 20/20/20
f 19/19/19 22/22/22 23/23/23
f 24/24/24 23/23/23 22/22/22
f 24/24/24 25/25/25 23/23/23
f 26/26/26 23/23/23 25/25/25
f 25/25/25 27/27/27 26/26/26
f 28/28/28 26/26/26 27/27/27
f 27/27/27 29/29/29 28/28/28
f 30/30/30 28/28/28 29/29/29
f 29/29/29 31/31/31 30/30/30
f 32/32/32 30/30/30 31/31/31
f 35/35/35 34/34/34 33/33/33
f 36/36/36 33/33/33 34/34/34
f 34/34/34 37/37/37 36/36/36
f 38/38/38 36/36/36 37/37/37
f 37/37/37 39/39/39 38/38/38
f 40/40/40 38/38/38 39/39/39
f 39/39/39 41/41/41 40/40/40
f 42/42/42 40/40/40 41/41/41
f 42/42/42 41/41/41 43/43/43
f 44/44/44 43/43/43 41/41/41
f 43/43/43 44/44/44 45/45/45
f 46/46/46 45/45/45 44/44/44
f 45/45/45 46/46/46 47/47/47
f 48/48/48 47/47/47 46/46/46
f 47/47/47 48/48/48 49/49/49
f 50/50/50 49/49/49 48/48/48
f 53/53/53 52/52/52 51/51/51
f 54/54/54 51/51/51 52/52/52
f 52/52/52 55/55/55 54/54/54
f 56/56/56 54/54/54 55/55/55
f 56/56/56 55/55/55 57/57/57
f 58/58/58 57/57/57 55/55/55
f 57/57/57 58/58/58 59/59/59
f 60/60/60 59/59/59 58/58/58
f 59/59/59 60/60/60 61/61/61
f 62/62/62 61/61/61 60/60/60
f 61/61/61 62/62/62 63/63/63
f 64/64/64 63/63/63 62/62/62
g tex_gun_305_base_001_1
f 67/67/67 66/66/66 65/65/65
f 67/67/67 65/65/65 68/68/68
f 69/69/69 65/65/65 66/66/66
f 70/70/70 68/68/68 65/65/65
f 69/69/69 66/66/66 71/71/71
f 68/68/68 70/70/70 72/72/72
f 73/73/73 71/71/71 66/66/66
f 74/74/74 72/72/72 70/70/70
f 71/71/71 73/73/73 75/75/75
f 72/72/72 74/74/74 76/76/76
f 77/77/77 75/75/75 73/73/73
f 78/78/78 76/76/76 74/74/74
f 75/75/75 77/77/77 79/79/79
f 76/76/76 78/78/78 80/80/80
f 81/81/81 79/79/79 77/77/77
f 82/82/82 80/80/80 78/78/78
f 79/79/79 81/81/81 83/83/83
f 80/80/80 82/82/82 84/84/84
f 85/85/85 83/83/83 81/81/81
f 86/86/86 84/84/84 82/82/82
f 83/83/83 85/85/85 87/87/87
f 84/84/84 86/86/86 88/88/88
f 89/89/89 87/87/87 85/85/85
f 90/90/90 88/88/88 86/86/86
f 87/87/87 89/89/89 91/91/91
f 92/92/92 91/91/91 89/89/89
f 92/92/92 93/93/93 91/91/91
f 94/94/94 91/91/91 93/93/93
f 93/93/93 95/95/95 94/94/94
f 96/96/96 94/94/94 95/95/95
f 95/95/95 97/97/97 96/96/96
f 98/98/98 96/96/96 97/97/97
f 97/97/97 99/99/99 98/98/98
f 100/100/100 98/98/98 99/99/99
f 99/99/99 101/101/101 100/100/100
f 102/102/102 100/100/100 101/101/101
f 101/101/101 103/103/103 102/102/102
f 104/104/104 102/102/102 103/103/103
f 103/103/103 105/105/105 104/104/104
f 106/106/106 104/104/104 105/105/105
f 105/105/105 107/107/107 106/106/106
f 108/108/108 106/106/106 107/107/107
f 107/107/107 109/109/109 108/108/108
f 110/110/110 108/108/108 109/109/109
f 109/109/109 111/111/111 110/110/110
f 112/112/112 110/110/110 111/111/111
f 111/111/111 113/113/113 112/112/112
f 114/114/114 112/112/112 113/113/113
f 113/113/113 115/115/115 114/114/114
f 116/116/116 114/114/114 115/115/115
f 115/115/115 117/117/117 116/116/116
f 118/118/118 116/116/116 117/117/117
f 117/117/117 119/119/119 118/118/118
f 120/120/120 118/118/118 119/119/119
f 120/120/120 119/119/119 90/90/90
f 88/88/88 90/90/90 119/119/119
f 123/123/123 122/122/122 121/121/121
f 121/121/121 122/122/122 124/124/124
f 125/125/125 122/122/122 123/123/123
f 124/124/124 122/122/122 126/126/126
f 127/127/127 122/122/122 125/125/125
f 126/126/126 122/122/122 128/128/128
f 129/129/129 122/122/122 127/127/127
f 128/128/128 122/122/122 130/130/130
f 131/131/131 122/122/122 129/129/129
f 130/130/130 122/122/122 132/132/132
f 133/133/133 122/122/122 131/131/131
f 132/132/132 122/122/122 134/134/134
f 135/135/135 122/122/122 133/133/133
f 134/134/134 122/122/122 136/136/136
f 137/137/137 122/122/122 135/135/135
f 136/136/136 122/122/122 138/138/138
f 139/139/139 122/122/122 137/137/137
f 138/138/138 122/122/122 140/140/140
f 141/141/141 122/122/122 139/139/139
f 140/140/140 122/122/122 142/142/142
f 143/143/143 122/122/122 141/141/141
f 142/142/142 122/122/122 144/144/144
f 145/145/145 122/122/122 143/143/143
f 144/144/144 122/122/122 146/146/146
f 147/147/147 122/122/122 145/145/145
f 146/146/146 122/122/122 148/148/148
f 149/149/149 122/122/122 147/147/147
f 148/148/148 122/122/122 149/149/149
g tex_gun_305_base_001_2
f 152/152/152 151/151/151 150/150/150
f 150/150/150 151/151/151 153/153/153
f 154/154/154 151/151/151 152/152/152
f 153/153/153 151/151/151 155/155/155
f 156/156/156 151/151/151 154/154/154
f 155/155/155 151/151/151 157/157/157
f 158/158/158 151/151/151 156/156/156
f 157/157/157 151/151/151 159/159/159
f 160/160/160 151/151/151 158/158/158
f 159/159/159 151/151/151 161/161/161
f 162/162/162 151/151/151 160/160/160
f 161/161/161 151/151/151 163/163/163
f 164/164/164 151/151/151 162/162/162
f 163/163/163 151/151/151 165/165/165
f 166/166/166 151/151/151 164/164/164
f 165/165/165 151/151/151 167/167/167
f 168/168/168 151/151/151 166/166/166
f 167/167/167 151/151/151 169/169/169
f 170/170/170 151/151/151 168/168/168
f 169/169/169 151/151/151 171/171/171
f 172/172/172 151/151/151 170/170/170
f 171/171/171 151/151/151 173/173/173
f 174/174/174 151/151/151 172/172/172
f 173/173/173 151/151/151 175/175/175
f 176/176/176 151/151/151 174/174/174
f 175/175/175 151/151/151 177/177/177
f 178/178/178 151/151/151 176/176/176
f 177/177/177 151/151/151 178/178/178
