# Blender 4.5.3 LTS
# www.blender.org
mtllib tribal_gun_100_shielded_x2_001.mtl
o Tribal_gun_110_shielded_x2
v -0.486395 0.200000 -0.144637
v -1.252219 0.308473 -0.144637
v -0.486395 1.900639 -0.017181
v -0.486395 1.890907 0.131587
v -0.486395 0.308473 -0.144637
v -0.486395 0.199999 -1.430449
v -1.252219 0.308473 -1.430449
v -0.486395 0.308473 -1.430449
v -0.486395 0.308472 -0.536223
v -0.486395 1.317250 -0.003432
v -0.486395 1.317250 -0.214744
v 0.486395 0.308472 -0.536223
v 0.486395 1.317250 -0.003432
v 0.486395 1.317250 -0.214744
v 0.035000 1.978473 0.131587
v 0.035000 1.890907 0.131587
v -0.035000 1.978473 0.131587
v -0.035000 1.890907 0.131587
v 0.035000 1.934690 0.131587
v -0.035000 1.934690 0.131587
v 0.035000 0.947554 1.425019
v 0.035000 0.947554 1.339199
v -0.035000 0.947554 1.425019
v -0.035000 0.947554 1.339199
v 0.035000 0.947554 1.382109
v -0.035000 0.947554 1.382109
v -0.035000 1.860501 0.390392
v -0.035000 1.946384 0.404714
v 0.035000 1.860501 0.390392
v 0.035000 1.946384 0.404714
v -0.035000 1.770451 0.639252
v -0.035000 1.851351 0.667344
v 0.035000 1.770451 0.639252
v 0.035000 1.851351 0.667344
v -0.035000 1.697027 0.909386
v -0.035000 1.624219 0.868602
v 0.035000 1.697027 0.909386
v 0.035000 1.624219 0.868602
v -0.035000 1.427423 1.069629
v -0.035000 1.489341 1.121537
v 0.035000 1.427423 1.069629
v 0.035000 1.489341 1.121537
v -0.035000 1.187626 1.234608
v -0.035000 1.236275 1.295645
v 0.035000 1.187626 1.234608
v 0.035000 1.236275 1.295645
v 0.000000 -0.100000 -1.000000
v 0.000000 0.100000 -1.000000
v 0.195090 -0.100000 -0.980785
v 0.195090 0.100000 -0.980785
v 0.382683 -0.100000 -0.923880
v 0.382683 0.100000 -0.923880
v 0.555570 -0.100000 -0.831470
v 0.555570 0.100000 -0.831470
v 0.707107 -0.100000 -0.707107
v 0.707107 0.100000 -0.707107
v 0.831470 -0.100000 -0.555570
v 0.831470 0.100000 -0.555570
v 0.923880 -0.100000 -0.382683
v 0.923880 0.100000 -0.382683
v 0.980785 -0.100000 -0.195090
v 0.980785 0.100000 -0.195090
v 1.000000 -0.100000 0.000000
v 1.000000 0.100000 -0.000000
v 0.980785 -0.100000 0.195090
v 0.980785 0.100000 0.195090
v 0.923880 -0.100000 0.382683
v 0.923880 0.100000 0.382683
v 0.831470 -0.100000 0.555570
v 0.831470 0.100000 0.555570
v 0.707107 -0.100000 0.707107
v 0.707107 0.100000 0.707107
v 0.555570 -0.100000 0.831470
v 0.555570 0.100000 0.831470
v 0.382683 -0.100000 0.923880
v 0.382683 0.100000 0.923880
v 0.195090 -0.100000 0.980785
v 0.195090 0.100000 0.980785
v 0.000000 -0.100000 1.000000
v 0.000000 0.100000 1.000000
v -0.195090 -0.100000 0.980785
v -0.195090 0.100000 0.980785
v -0.382683 -0.100000 0.923880
v -0.382683 0.100000 0.923880
v -0.555570 -0.100000 0.831470
v -0.555570 0.100000 0.831470
v -0.707107 -0.100000 0.707107
v -0.707107 0.100000 0.707107
v -0.831470 -0.100000 0.555570
v -0.831470 0.100000 0.555570
v -0.923880 -0.100000 0.382683
v -0.923880 0.100000 0.382683
v -0.980785 -0.100000 0.195090
v -0.980785 0.100000 0.195090
v -1.000000 -0.100000 0.000000
v -1.000000 0.100000 -0.000000
v -0.980785 -0.100000 -0.195090
v -0.980785 0.100000 -0.195090
v -0.923880 -0.100000 -0.382683
v -0.923880 0.100000 -0.382683
v -0.831470 -0.100000 -0.555570
v -0.831470 0.100000 -0.555570
v -0.707107 -0.100000 -0.707107
v -0.707107 0.100000 -0.707107
v -0.555570 -0.100000 -0.831470
v -0.555570 0.100000 -0.831470
v -0.382683 -0.100000 -0.923880
v -0.382683 0.100000 -0.923880
v -0.195090 -0.100000 -0.980785
v -0.195090 0.100000 -0.980785
v 0.376519 1.317250 -0.003432
v 0.376519 0.308473 -0.144637
v 0.376519 0.308472 -0.536223
v 0.376519 1.317250 -0.214744
v -0.376519 1.317250 -0.003432
v -0.376519 0.308473 -0.144637
v -0.376519 0.308472 -0.536223
v -0.376519 1.317250 -0.214744
v 0.486395 -0.000000 -0.536223
v 0.486395 -0.000000 -0.144637
v 0.376519 -0.000000 -0.536223
v 0.376519 -0.000000 -0.144637
v -0.486395 -0.000000 -0.536223
v -0.486395 -0.000000 -0.144637
v -0.376519 -0.000000 -0.536223
v -0.376519 -0.000000 -0.144637
v 1.316378 1.921966 -0.288755
v 1.473270 1.606528 -0.288013
v 1.473079 1.416050 -0.143929
v 1.476520 0.200000 -0.143930
v 1.098793 0.200000 1.531590
v 1.316378 1.921966 -0.288755
v 1.370219 1.614629 -0.288982
v 1.370219 1.606120 -0.144669
v 1.370219 1.416152 -0.144669
v 1.370219 1.606120 -0.144669
v 1.377912 0.308473 -0.144637
v 1.332677 1.899731 -0.017732
v 1.316378 1.921966 -0.288755
v 1.370219 1.416152 -0.144669
v 1.370219 1.606120 -0.144669
v 1.370219 1.614629 -0.288982
v 1.316378 1.921966 -0.288755
v 0.486395 0.200000 -0.144637
v 1.095175 0.308473 1.531587
v 1.086265 0.634274 1.504687
v 1.089020 0.947554 1.425019
v 1.104949 1.236275 1.295645
v 1.132159 1.489341 1.121537
v 1.171149 1.697027 0.909386
v 1.218029 1.851351 0.667344
v 1.273639 1.946384 0.404714
v 1.335379 1.978473 0.131587
v 1.098513 0.308473 1.458179
v 1.088884 0.617190 1.432689
v 1.090607 0.914044 1.357198
v 1.103109 1.187626 1.234608
v 1.126579 1.427423 1.069629
v 1.158318 1.624219 0.868602
v 1.200184 1.770451 0.639252
v 1.248664 1.860501 0.390392
v 1.302465 1.890907 0.131587
v 1.394999 1.990799 -0.288916
v 1.473079 1.606120 -0.143929
v 1.151654 1.606120 1.015461
v 0.486395 0.200000 1.531590
v 0.486395 1.928563 -0.288755
v 1.252219 0.308473 -0.144637
v 0.486395 1.900639 -0.017181
v 0.486395 1.928563 -0.288755
v 0.486395 0.308473 1.531590
v 0.486395 0.634274 1.504687
v 0.486395 0.947554 1.425019
v 0.486395 1.236275 1.295645
v 0.486395 1.489341 1.121537
v 0.486395 1.697027 0.909386
v 0.486395 1.851351 0.667344
v 0.486395 1.946384 0.404714
v 0.486395 1.978473 0.131587
v 0.486395 0.308473 1.458179
v 0.486395 0.617190 1.432689
v 0.486395 0.947554 1.339199
v 0.486395 1.187626 1.234608
v 0.486395 1.427423 1.069629
v 0.486395 1.624219 0.868602
v 0.486395 1.770451 0.639252
v 0.486395 1.860501 0.390392
v 0.486395 1.890907 0.131587
v 0.486395 1.990861 -0.288755
v 0.488380 1.599664 1.015461
v 1.394999 1.990830 -0.145246
v 0.486395 1.990926 -0.145001
v 1.288020 1.606120 0.524746
v 0.486395 0.308473 -0.144637
v 1.252219 0.200000 -0.144284
v 0.486395 0.199999 -1.430449
v 1.252219 0.308473 -1.430449
v 0.486395 0.308473 -1.430449
v 1.252220 0.199999 -1.430096
v 1.252219 0.200000 -1.096294
v 1.252220 -0.041888 -1.096290
v 1.476520 -0.041888 -0.144107
v 1.477093 -0.041365 -1.096349
v 0.845262 0.656249 -0.300379
v 0.845262 0.291668 -0.300379
v 0.845262 0.656249 -1.426464
v 0.845262 0.291668 -1.426464
v 1.205063 0.656249 -0.300379
v 1.205063 0.291668 -0.300379
v 1.205063 0.656249 -1.426464
v 1.205063 0.291668 -1.426464
v 1.252220 -0.041888 -0.144284
v 0.486395 1.934690 0.131587
v 0.486395 0.947554 1.382109
v 0.486395 1.903443 0.397553
v 0.486395 1.810901 0.653298
v 0.486395 1.660623 0.888994
v 1.326000 0.200000 0.524746
v 0.486395 1.458382 1.095583
v 0.486395 1.211951 1.265126
v 0.710531 0.960844 1.460782
v 0.709607 1.604497 1.119334
v 0.928802 0.962232 1.461608
v 0.927878 1.605885 1.120159
v 0.710531 1.679049 0.749506
v 0.709607 1.786443 0.813370
v 0.928802 1.680436 0.750331
v 0.927878 1.787831 0.814195
v 0.928802 0.903802 1.192097
v 0.710531 0.902414 1.191272
v 0.980785 0.100000 0.195090
v 1.477667 0.201046 -1.096231
v 1.474226 1.250000 -1.096230
v 0.940697 1.990830 -0.288836
v 1.199998 1.414380 -1.456604
v 1.300000 1.681649 -0.934584
v 0.925808 1.684641 -0.926935
v 0.713546 1.990845 -0.288795
v 1.137922 1.414380 -1.456604
v 1.167848 1.990814 -0.288876
v 1.250000 1.550590 -1.179116
v 1.199998 1.250000 -1.456604
v 0.479024 1.781851 -0.743003
v 1.350000 1.806186 -0.690052
v 1.152886 1.683145 -0.930759
v 0.933253 1.807698 -0.686187
v 0.927669 1.713562 -0.866748
v 0.982578 1.684267 -0.927891
v 1.160367 1.806942 -0.688119
v 1.145405 1.552827 -1.173399
v 0.706138 1.808454 -0.684255
v 1.039347 1.683893 -0.928847
v 0.929530 1.740284 -0.806561
v 1.031884 1.553945 -1.170541
v 1.149145 1.615060 -1.052079
v 0.819695 1.808076 -0.685221
v 0.702435 1.745625 -0.803683
v 0.815982 1.743317 -0.805122
v 1.035616 1.615993 -1.049694
v 0.869039 1.685015 -0.925979
v 0.923947 1.648419 -0.987122
v 0.872756 1.743035 -0.805841
v 0.814126 1.714218 -0.865072
v 0.978851 1.616459 -1.048501
v 1.037481 1.647579 -0.989271
v 0.870898 1.713890 -0.865910
v 0.980714 1.647999 -0.988196
v 1.137922 1.250000 -1.456604
v 1.434613 1.589475 -0.692573
v 1.337112 1.368785 -1.331149
v 1.362113 1.489365 -1.137673
v 1.412113 1.569538 -0.893141
v 1.387113 1.534193 -1.015407
v 1.337112 1.250000 -1.331149
v -1.316378 1.921966 -0.288755
v -1.473270 1.606528 -0.288013
v -1.473079 1.416050 -0.143929
v -1.476520 0.200000 -0.143930
v -1.098793 0.200000 1.531590
v -1.316378 1.921966 -0.288755
v -1.370219 1.614629 -0.288982
v -1.370219 1.606120 -0.144669
v -1.370219 1.416152 -0.144669
v -1.370219 1.606120 -0.144669
v -1.377912 0.308473 -0.144637
v -1.332677 1.899731 -0.017732
v -1.316378 1.921966 -0.288755
v -1.370219 1.416152 -0.144669
v -1.370219 1.606120 -0.144669
v -1.370219 1.614629 -0.288982
v -1.316378 1.921966 -0.288755
v -0.486395 0.200000 -0.144637
v -1.095175 0.308473 1.531587
v -1.086265 0.634274 1.504687
v -1.089020 0.947554 1.425019
v -1.104949 1.236275 1.295645
v -1.132159 1.489341 1.121537
v -1.171149 1.697027 0.909386
v -1.218029 1.851351 0.667344
v -1.273639 1.946384 0.404714
v -1.335379 1.978473 0.131587
v -1.098513 0.308473 1.458179
v -1.088884 0.617190 1.432689
v -1.090607 0.914044 1.357198
v -1.103109 1.187626 1.234608
v -1.126579 1.427423 1.069629
v -1.158318 1.624219 0.868602
v -1.200184 1.770451 0.639252
v -1.248664 1.860501 0.390392
v -1.302465 1.890907 0.131587
v -1.394999 1.990799 -0.288916
v -1.473079 1.606120 -0.143929
v -1.151654 1.606120 1.015461
v -0.486395 0.200000 1.531590
v -0.486395 1.928563 -0.288755
v -1.252219 0.308473 -0.144637
v -0.486395 1.900639 -0.017181
v -0.486395 1.928563 -0.288755
v -0.486395 0.308473 1.531590
v -0.486395 0.634274 1.504687
v -0.486395 0.947554 1.425019
v -0.486395 1.236275 1.295645
v -0.486395 1.489341 1.121537
v -0.486395 1.697027 0.909386
v -0.486395 1.851351 0.667344
v -0.486395 1.946384 0.404714
v -0.486395 1.978473 0.131587
v -0.486395 0.308473 1.458179
v -0.486395 0.617190 1.432689
v -0.486395 0.947554 1.339199
v -0.486395 1.187626 1.234608
v -0.486395 1.427423 1.069629
v -0.486395 1.624219 0.868602
v -0.486395 1.770451 0.639252
v -0.486395 1.860501 0.390392
v -0.486395 1.890907 0.131587
v -0.486395 1.990861 -0.288755
v -0.488380 1.599664 1.015461
v -1.394999 1.990830 -0.145246
v -0.486395 1.990926 -0.145001
v -1.288020 1.606120 0.524746
v -0.486395 0.308473 -0.144637
v -1.252219 0.200000 -0.144284
v -0.486395 0.199999 -1.430449
v -1.252219 0.308473 -1.430449
v -0.486395 0.308473 -1.430449
v -1.252220 0.199999 -1.430096
v -1.252219 0.200000 -1.096294
v -1.252220 -0.041888 -1.096290
v -1.476520 -0.041888 -0.144107
v -1.477093 -0.041365 -1.096349
v -0.845262 0.656249 -0.300379
v -0.845262 0.291668 -0.300379
v -0.845262 0.656249 -1.426464
v -0.845262 0.291668 -1.426464
v -1.205063 0.656249 -0.300379
v -1.205063 0.291668 -0.300379
v -1.205063 0.656249 -1.426464
v -1.205063 0.291668 -1.426464
v -1.252220 -0.041888 -0.144284
v -0.486395 1.934690 0.131587
v -0.486395 0.947554 1.382109
v -0.486395 1.903443 0.397553
v -0.486395 1.810901 0.653298
v -0.486395 1.660623 0.888994
v -1.326000 0.200000 0.524746
v -0.486395 1.458382 1.095583
v -0.486395 1.211951 1.265126
v -0.710531 0.960844 1.460782
v -0.709607 1.604497 1.119334
v -0.928802 0.962232 1.461608
v -0.927878 1.605885 1.120159
v -0.710531 1.679049 0.749506
v -0.709607 1.786443 0.813370
v -0.928802 1.680436 0.750331
v -0.927878 1.787831 0.814195
v -0.928802 0.903802 1.192097
v -0.710531 0.902414 1.191272
v -0.980785 0.100000 0.195090
v -1.477667 0.201046 -1.096231
v -1.474226 1.250000 -1.096230
v -0.940697 1.990830 -0.288836
v -1.199998 1.414380 -1.456604
v -1.300000 1.681649 -0.934584
v -0.925808 1.684641 -0.926935
v -0.713546 1.990845 -0.288795
v -1.137922 1.414380 -1.456604
v -1.167848 1.990814 -0.288876
v -1.250000 1.550590 -1.179116
v -1.199998 1.250000 -1.456604
v -0.479024 1.781851 -0.743003
v -1.350000 1.806186 -0.690052
v -1.152886 1.683145 -0.930759
v -0.933253 1.807698 -0.686187
v -0.927669 1.713562 -0.866748
v -0.982578 1.684267 -0.927891
v -1.160367 1.806942 -0.688119
v -1.145405 1.552827 -1.173399
v -0.706138 1.808454 -0.684255
v -1.039347 1.683893 -0.928847
v -0.929530 1.740284 -0.806561
v -1.031884 1.553945 -1.170541
v -1.149145 1.615060 -1.052079
v -0.819695 1.808076 -0.685221
v -0.702435 1.745625 -0.803683
v -0.815982 1.743317 -0.805122
v -1.035616 1.615993 -1.049694
v -0.869039 1.685015 -0.925979
v -0.923947 1.648419 -0.987122
v -0.872756 1.743035 -0.805841
v -0.814126 1.714218 -0.865072
v -0.978851 1.616459 -1.048501
v -1.037481 1.647579 -0.989271
v -0.870898 1.713890 -0.865910
v -0.980714 1.647999 -0.988196
v -1.137922 1.250000 -1.456604
v -1.434613 1.589475 -0.692573
v -1.337112 1.368785 -1.331149
v -1.362113 1.489365 -1.137673
v -1.412113 1.569538 -0.893141
v -1.387113 1.534193 -1.015407
v -1.337112 1.250000 -1.331149
vn 1.0000 -0.0000 -0.0000
vn -1.0000 -0.0000 -0.0000
vn -0.0000 1.0000 -0.0000
vn -0.0000 -1.0000 -0.0000
vn -0.0000 -0.0000 -1.0000
vn -0.0000 0.9932 0.1167
vn -0.0000 0.3994 0.9168
vn -0.0000 -0.4089 -0.9126
vn -0.0000 -0.1645 0.9864
vn -0.0000 0.9403 0.3403
vn -0.0000 0.7146 0.6995
vn -0.0000 0.3280 -0.9447
vn -0.0000 -0.9932 -0.1167
vn -0.0000 -0.4887 0.8724
vn -0.0000 -0.9403 -0.3403
vn -0.0000 -0.7146 -0.6995
vn -0.0000 -0.8432 -0.5376
vn -0.0000 -0.6424 0.7663
vn -0.0000 0.5668 0.8239
vn -0.0000 0.7820 -0.6233
vn -0.0000 -0.5668 -0.8239
vn -0.0000 0.8432 0.5376
vn -0.0980 -0.0000 0.9952
vn -0.2903 -0.0000 0.9569
vn -0.4714 -0.0000 0.8819
vn -0.6344 -0.0000 0.7730
vn -0.7730 -0.0000 0.6344
vn -0.8819 -0.0000 0.4714
vn -0.9569 -0.0000 0.2903
vn -0.9952 -0.0000 0.0980
vn -0.9952 -0.0000 -0.0980
vn -0.9569 -0.0000 -0.2903
vn -0.8819 -0.0000 -0.4714
vn -0.7730 -0.0000 -0.6344
vn -0.6344 -0.0000 -0.7730
vn -0.4714 -0.0000 -0.8819
vn -0.2903 -0.0000 -0.9569
vn -0.0980 -0.0000 -0.9952
vn 0.0980 -0.0000 -0.9952
vn 0.2903 -0.0000 -0.9569
vn 0.4714 -0.0000 -0.8819
vn 0.6344 -0.0000 -0.7730
vn 0.7730 -0.0000 -0.6344
vn 0.8819 -0.0000 -0.4714
vn 0.9569 -0.0000 -0.2903
vn 0.9952 -0.0000 -0.0980
vn 0.9952 -0.0000 0.0980
vn 0.9569 -0.0000 0.2903
vn 0.8819 -0.0000 0.4714
vn 0.7730 -0.0000 0.6344
vn 0.6344 -0.0000 0.7730
vn 0.4714 -0.0000 0.8819
vn 0.2903 -0.0000 0.9569
vn 0.0980 -0.0000 0.9952
vn -0.0000 0.3036 -0.9528
vn -0.0000 0.1386 -0.9903
vn -0.0000 -0.3036 0.9528
vn -0.0000 -0.0000 1.0000
vn 0.0777 0.9952 0.0587
vn -0.0000 -1.0000 -0.0028
vn -0.0072 -0.0000 1.0000
vn -0.0042 0.0022 1.0000
vn -0.0039 0.0023 1.0000
vn 0.9656 0.0067 0.2600
vn 0.9589 -0.0000 0.2836
vn 0.9923 0.1237 0.0073
vn -0.0000 -0.0823 -0.9966
vn -0.0000 -0.1649 -0.9863
vn -0.0000 -0.2465 -0.9692
vn 0.0036 -0.7481 -0.6636
vn -0.9570 -0.1950 -0.2148
vn 0.0072 -0.2601 -0.9655
vn 0.0024 -0.4045 -0.9145
vn -0.0006 -0.9981 -0.0622
vn -0.9568 -0.1229 -0.2636
vn -0.9551 -0.1780 -0.2368
vn 0.0034 -0.6828 -0.7306
vn -0.9584 -0.1045 -0.2657
vn 0.0045 0.9958 0.0919
vn -0.0001 -1.0000 0.0003
vn -0.0000 -0.9998 -0.0223
vn -0.0000 -1.0000 0.0004
vn -0.9554 -0.1477 -0.2557
vn -0.9799 -0.1996 -0.0000
vn -0.9800 -0.1989 -0.0019
vn -0.0001 -0.9990 -0.0448
vn -0.0000 -0.9990 -0.0449
vn 0.0072 -0.0000 -1.0000
vn -0.9632 -0.0260 -0.2677
vn -0.9966 -0.0053 -0.0822
vn -0.9698 -0.0143 -0.2434
vn -0.9924 -0.0086 -0.1229
vn -0.9799 -0.0120 -0.1990
vn -0.9797 -0.0126 -0.2001
vn -0.9788 -0.0109 -0.2047
vn -0.9803 -0.0141 -0.1970
vn -0.9811 -0.0157 -0.1931
vn -0.9816 -0.0173 -0.1902
vn -0.9834 -0.0261 -0.1795
vn -0.9833 -0.0254 -0.1801
vn -0.9836 -0.0286 -0.1779
vn -0.9838 -0.0300 -0.1769
vn -0.9840 -0.0334 -0.1748
vn -0.9842 -0.0415 -0.1722
vn -0.9842 -0.0382 -0.1729
vn -0.9842 -0.0416 -0.1722
vn -0.9842 -0.0449 -0.1716
vn -0.0002 0.0016 1.0000
vn -0.0010 0.0044 1.0000
vn 0.0012 0.0004 -1.0000
vn -0.0012 1.0000 0.0003
vn 1.0000 -0.0042 0.0050
vn 1.0000 -0.0047 0.0056
vn 0.9999 -0.0084 0.0100
vn 0.9999 0.0069 -0.0124
vn 0.9997 -0.0166 -0.0163
vn -0.9739 -0.0433 -0.2228
vn -0.9734 -0.0421 -0.2252
vn -0.9747 -0.0440 -0.2192
vn -0.9747 -0.0451 -0.2188
vn -0.9747 -0.0454 -0.2188
vn -0.9748 -0.0459 -0.2181
vn -0.9749 -0.0389 -0.2193
vn -0.9750 -0.0325 -0.2200
vn -0.0063 0.4686 0.8834
vn 1.0000 0.0019 0.0017
vn -0.0000 0.5111 -0.8595
vn -1.0000 -0.0019 -0.0017
vn 0.0064 -0.4944 -0.8692
vn -0.0074 0.8595 0.5111
vn 0.0054 -0.9773 0.2119
vn 0.9840 0.1724 -0.0450
vn -0.0026 0.0005 1.0000
vn 0.0001 0.0012 1.0000
vn -0.0025 0.0006 1.0000
vn -0.0045 0.0001 1.0000
vn -1.0000 0.0012 -0.0009
vn -1.0000 -0.0008 -0.0008
vn -0.9948 -0.0926 0.0427
vn -0.9713 -0.1606 0.1755
vn -0.9543 -0.2628 0.1424
vn -0.9481 -0.2783 0.1540
vn -0.0050 -0.8973 0.4414
vn -0.0003 -0.9082 0.4185
vn -0.0009 -0.9083 0.4184
vn -0.0059 -0.9012 0.4334
vn 0.0027 -0.8720 0.4895
vn -0.0021 -0.8835 0.4685
vn 0.0022 -0.8801 0.4748
vn 0.0029 -0.8654 0.5010
vn 0.0042 -0.8992 0.4375
vn 0.0003 -0.9083 0.4183
vn 0.0003 -0.9082 0.4186
vn 0.0018 -0.8961 0.4439
vn -0.0084 -0.9059 0.4234
vn 0.0078 -0.8868 0.4622
vn 0.0010 -0.9006 0.4346
vn 0.0108 -0.8833 0.4687
vn 0.0003 -0.9084 0.4182
vn 0.0030 -0.8982 0.4397
vn 0.0094 -0.8894 0.4571
vn 0.0057 -0.8920 0.4521
vn 0.0029 -0.8982 0.4396
vn 0.0111 -0.8812 0.4725
vn -0.0063 -0.8901 0.4557
vn -0.0033 -0.8946 0.4469
vn -0.0110 -0.8860 0.4636
vn -0.0038 -0.9022 0.4312
vn -0.0085 -0.8910 0.4540
vn -0.0030 -0.9000 0.4358
vn -0.0024 -0.8931 0.4499
vn 0.0075 -0.8800 0.4750
vn 0.0047 -0.8845 0.4665
vn 0.0024 -0.8931 0.4499
vn 0.0073 -0.8720 0.4894
vn 0.0018 -0.8895 0.4569
vn 0.0023 -0.8874 0.4611
vn -0.8819 -0.3968 0.2547
vn -0.8660 -0.4190 0.2730
vn -0.7785 -0.5075 0.3692
vn -0.7475 -0.5319 0.3978
vn -0.7655 -0.3086 0.5646
vn -0.7782 -0.0000 0.6281
vn -0.6750 -0.0000 0.7378
vn -0.5909 -0.6650 0.4567
vn -0.5975 -0.6637 0.4500
vn -0.6889 -0.5981 0.4095
vn 0.0777 -0.9952 -0.0587
vn -0.0000 1.0000 0.0028
vn -0.0072 -0.0000 -1.0000
vn -0.0042 -0.0022 -1.0000
vn -0.0039 -0.0023 -1.0000
vn 0.9656 -0.0067 -0.2600
vn 0.9589 -0.0000 -0.2836
vn 0.9923 -0.1237 -0.0073
vn -0.0000 0.0823 0.9966
vn -0.0000 0.2465 0.9692
vn -0.0000 0.4089 0.9126
vn 0.0036 0.7481 0.6636
vn -0.9570 0.1950 0.2148
vn 0.0072 0.2601 0.9655
vn 0.0024 0.4045 0.9145
vn -0.0006 0.9981 0.0622
vn -0.9568 0.1229 0.2636
vn -0.9551 0.1780 0.2368
vn 0.0034 0.6828 0.7306
vn -0.9584 0.1045 0.2657
vn 0.0045 -0.9958 -0.0919
vn -0.0001 1.0000 -0.0003
vn -0.9554 0.1477 0.2557
vn -0.9799 0.1996 -0.0000
vn -0.9800 0.1989 0.0019
vn -0.0001 0.9990 0.0448
vn 0.0072 -0.0000 1.0000
vn -0.9632 0.0260 0.2677
vn -0.9966 0.0053 0.0822
vn -0.9698 0.0143 0.2434
vn -0.9924 0.0086 0.1229
vn -0.9799 0.0120 0.1990
vn -0.9797 0.0126 0.2001
vn -0.9788 0.0109 0.2047
vn -0.9803 0.0141 0.1970
vn -0.9811 0.0157 0.1931
vn -0.9816 0.0173 0.1902
vn -0.9834 0.0261 0.1795
vn -0.9833 0.0254 0.1801
vn -0.9836 0.0286 0.1779
vn -0.9838 0.0300 0.1769
vn -0.9840 0.0334 0.1748
vn -0.9842 0.0415 0.1722
vn -0.9842 0.0382 0.1729
vn -0.9842 0.0416 0.1722
vn -0.9842 0.0449 0.1716
vn -0.0002 -0.0016 -1.0000
vn -0.0010 -0.0044 -1.0000
vn 0.0012 -0.0004 1.0000
vn -0.0012 -1.0000 -0.0003
vn 1.0000 0.0042 -0.0050
vn 1.0000 0.0047 -0.0056
vn 0.9999 0.0084 -0.0100
vn 0.9999 -0.0069 0.0124
vn 0.9997 0.0166 0.0163
vn -0.9739 0.0433 0.2228
vn -0.9734 0.0421 0.2252
vn -0.9747 0.0440 0.2192
vn -0.9747 0.0451 0.2188
vn -0.9747 0.0454 0.2188
vn -0.9748 0.0459 0.2181
vn -0.9749 0.0389 0.2193
vn -0.9750 0.0325 0.2200
vn -0.0063 -0.4686 -0.8834
vn 1.0000 -0.0019 -0.0017
vn -0.0000 -0.5111 0.8595
vn -1.0000 0.0019 0.0017
vn 0.0064 0.4944 0.8692
vn -0.0074 -0.8595 -0.5111
vn 0.0054 0.9773 -0.2119
vn 0.9840 -0.1724 0.0450
vn -0.0026 -0.0005 -1.0000
vn 0.0001 -0.0012 -1.0000
vn -0.0025 -0.0006 -1.0000
vn -0.0045 -0.0001 -1.0000
vn -1.0000 -0.0012 0.0009
vn -1.0000 0.0008 0.0008
vn -0.9948 0.0926 -0.0427
vn -0.9713 0.1606 -0.1755
vn -0.9543 0.2628 -0.1424
vn -0.9481 0.2783 -0.1540
vn -0.0050 0.8973 -0.4414
vn -0.0003 0.9082 -0.4185
vn -0.0009 0.9083 -0.4184
vn -0.0059 0.9012 -0.4334
vn 0.0027 0.8720 -0.4895
vn -0.0021 0.8835 -0.4685
vn 0.0022 0.8801 -0.4748
vn 0.0029 0.8654 -0.5010
vn 0.0042 0.8992 -0.4375
vn 0.0003 0.9083 -0.4183
vn 0.0003 0.9082 -0.4186
vn 0.0018 0.8961 -0.4439
vn -0.0084 0.9059 -0.4234
vn 0.0078 0.8868 -0.4622
vn 0.0010 0.9006 -0.4346
vn 0.0108 0.8833 -0.4687
vn 0.0003 0.9084 -0.4182
vn 0.0030 0.8982 -0.4397
vn 0.0094 0.8894 -0.4571
vn 0.0057 0.8920 -0.4521
vn 0.0029 0.8982 -0.4396
vn 0.0111 0.8812 -0.4725
vn -0.0063 0.8901 -0.4557
vn -0.0033 0.8946 -0.4469
vn -0.0110 0.8860 -0.4636
vn -0.0038 0.9022 -0.4312
vn -0.0085 0.8910 -0.4540
vn -0.0030 0.9000 -0.4358
vn -0.0024 0.8931 -0.4499
vn 0.0075 0.8800 -0.4750
vn 0.0047 0.8845 -0.4665
vn 0.0024 0.8931 -0.4499
vn 0.0073 0.8720 -0.4894
vn 0.0018 0.8895 -0.4569
vn 0.0023 0.8874 -0.4611
vn -0.8819 0.3968 -0.2547
vn -0.8660 0.4190 -0.2730
vn -0.7785 0.5075 -0.3692
vn -0.7475 0.5319 -0.3978
vn -0.7655 0.3086 -0.5646
vn -0.7782 -0.0000 -0.6281
vn -0.6750 -0.0000 -0.7378
vn -0.5909 0.6650 -0.4567
vn -0.5975 0.6637 -0.4500
vn -0.6889 0.5981 -0.4095
vn -0.0000 -1.0000 0.0005
vn -0.0000 -0.9990 -0.0450
vn -0.0000 0.5605 0.8282
vn -0.0000 0.2723 0.9622
vt 0.218750 0.738232
vt 0.250000 0.739755
vt 0.000000 0.000000
vt 0.109375 0.369116
vt -0.351137 0.251535
vt 0.250000 0.740649
vt 0.125000 0.370324
vt 0.437500 0.755725
vt 0.218750 0.377862
vt 0.343750 0.749156
vt 1.000000 0.500000
vt 0.968750 0.500000
vt 0.968750 1.000000
vt 1.000000 1.000000
vt 0.937500 0.500000
vt 0.937500 1.000000
vt 0.906250 0.500000
vt 0.906250 1.000000
vt 0.875000 0.500000
vt 0.875000 1.000000
vt 0.843750 0.500000
vt 0.843750 1.000000
vt 0.812500 0.500000
vt 0.812500 1.000000
vt 0.781250 0.500000
vt 0.781250 1.000000
vt 0.750000 0.500000
vt 0.750000 1.000000
vt 0.718750 0.500000
vt 0.718750 1.000000
vt 0.687500 0.500000
vt 0.687500 1.000000
vt 0.656250 0.500000
vt 0.656250 1.000000
vt 0.625000 0.500000
vt 0.625000 1.000000
vt 0.593750 0.500000
vt 0.593750 1.000000
vt 0.562500 0.500000
vt 0.562500 1.000000
vt 0.531250 0.500000
vt 0.531250 1.000000
vt 0.500000 0.500000
vt 0.500000 1.000000
vt 0.468750 0.500000
vt 0.468750 1.000000
vt 0.437500 0.500000
vt 0.437500 1.000000
vt 0.406250 0.500000
vt 0.406250 1.000000
vt 0.375000 0.500000
vt 0.375000 1.000000
vt 0.343750 0.500000
vt 0.343750 1.000000
vt 0.312500 0.500000
vt 0.312500 1.000000
vt 0.281250 0.500000
vt 0.281250 1.000000
vt 0.250000 0.500000
vt 0.250000 1.000000
vt 0.218750 0.500000
vt 0.218750 1.000000
vt 0.187500 0.500000
vt 0.187500 1.000000
vt 0.156250 0.500000
vt 0.156250 1.000000
vt 0.125000 0.500000
vt 0.125000 1.000000
vt 0.093750 0.500000
vt 0.093750 1.000000
vt 0.062500 0.500000
vt 0.062500 1.000000
vt 0.296822 0.485388
vt 0.341844 0.471731
vt 0.383337 0.449553
vt 0.419706 0.419706
vt 0.449553 0.383337
vt 0.471731 0.341844
vt 0.485388 0.296822
vt 0.490000 0.250000
vt 0.485388 0.203178
vt 0.471731 0.158156
vt 0.449553 0.116663
vt 0.419706 0.080294
vt 0.383337 0.050447
vt 0.341844 0.028269
vt 0.296822 0.014612
vt 0.250000 0.010000
vt 0.203178 0.014612
vt 0.158156 0.028269
vt 0.116663 0.050447
vt 0.080294 0.080294
vt 0.050447 0.116663
vt 0.028269 0.158156
vt 0.014612 0.203178
vt 0.010000 0.250000
vt 0.014612 0.296822
vt 0.028269 0.341844
vt 0.050447 0.383337
vt 0.080294 0.419706
vt 0.116663 0.449553
vt 0.158156 0.471731
vt 0.203178 0.485388
vt 0.250000 0.490000
vt 0.031250 0.500000
vt 0.031250 1.000000
vt 0.000000 0.500000
vt 0.000000 1.000000
vt 0.750000 0.490000
vt 0.703178 0.485388
vt 0.658156 0.471731
vt 0.616663 0.449553
vt 0.580294 0.419706
vt 0.550447 0.383337
vt 0.528269 0.341844
vt 0.514612 0.296822
vt 0.510000 0.250000
vt 0.514612 0.203178
vt 0.528269 0.158156
vt 0.550447 0.116663
vt 0.580294 0.080294
vt 0.616663 0.050447
vt 0.658156 0.028269
vt 0.703178 0.014612
vt 0.750000 0.010000
vt 0.796822 0.014612
vt 0.841844 0.028269
vt 0.883337 0.050447
vt 0.919706 0.080294
vt 0.949553 0.116663
vt 0.971731 0.158156
vt 0.985388 0.203178
vt 0.990000 0.250000
vt 0.985388 0.296822
vt 0.971731 0.341844
vt 0.949553 0.383337
vt 0.919706 0.419706
vt 0.883337 0.449553
vt 0.841844 0.471731
vt 0.796822 0.485388
vt 0.482934 1.706227
vt 0.483456 1.703591
vt 0.481442 1.706220
vt 1.693939 0.526506
vt 0.482224 0.522739
vt -0.702274 0.522741
vt -0.702273 0.503070
vt 0.482224 0.503066
vt -0.686174 0.528855
vt -0.703591 0.525822
vt -0.706227 0.528287
vt 0.531250 0.756459
vt 0.500000 0.756623
vt 0.468750 0.756592
vt 0.406250 0.754083
vt 0.375000 0.751828
vt 0.359375 0.750473
vt 0.359375 1.000000
vt 0.312500 0.746280
vt 0.281250 0.743392
vt 0.500000 0.755972
vt 0.468750 0.755943
vt 0.437500 0.755070
vt 0.406250 0.753424
vt 0.375000 0.751151
vt 0.343750 0.748447
vt 0.312500 0.745523
vt 0.281250 0.742573
vt 0.486924 1.686174
vt 0.482096 1.710462
vt 0.500043 1.710462
vt 0.500613 1.686174
vt 0.515714 1.691757
vt 0.499545 1.691757
vt 0.499693 1.697900
vt 0.504005 1.697900
vt 0.508317 1.697900
vt 0.512628 1.697900
vt 0.516940 1.697900
vt 0.241112 0.251533
vt 0.375000 0.000000
vt 0.375000 0.250000
vt 0.625000 0.250000
vt 0.625000 0.000000
vt 0.375000 0.750000
vt 0.625000 0.750000
vt 0.125000 0.750000
vt 0.875000 0.750000
vt 0.171875 0.374578
vt 0.375000 0.375000
vt 0.375000 0.875000
vt 0.250000 0.750000
vt 0.258470 0.848950
vt 0.378004 1.273425
vt 0.374770 1.273425
vt 0.222860 0.742831
vt 0.254697 0.848950
vt 0.254158 0.848950
vt 0.222388 0.742831
vt 0.384471 1.273425
vt 0.381237 1.273425
vt 0.285928 0.955069
vt 0.387705 1.273425
vt 0.256314 0.848950
vt 0.129235 0.424475
vt 0.128157 0.424475
vt 0.192236 0.636713
vt 0.316350 1.061188
vt 0.379620 1.273425
vt 0.315003 1.061188
vt 0.285322 0.955069
vt 0.317024 1.061188
vt 0.284715 0.955069
vt 0.317698 1.061188
vt 0.255236 0.848950
vt 0.191427 0.636713
vt 0.127618 0.424475
vt 0.223332 0.742831
vt 0.253619 0.848950
vt 0.191023 0.636713
vt 0.193852 0.636713
vt 0.064617 0.212238
s 1
f 3/1/1 4/2/1 5/3/1 10/4/1
f 5/3/2 9/3/2 8/3/2 6/3/2 1/3/2
f 5/3/3 9/3/3 8/3/3 7/5/3 2/5/3
f 11/3/4 118/3/4 115/3/4 10/3/4
f 17/6/5 15/6/5 19/7/5 16/3/5 18/3/5 20/7/5
f 40/3/1 39/3/1 36/3/1 35/3/1
f 31/3/2 32/3/2 28/3/2 27/3/2
f 28/3/6 30/3/6 15/3/6 17/3/6
f 23/8/3 21/8/3 25/9/3 22/3/3 24/3/3 26/9/3
f 43/3/7 24/3/7 22/3/7 45/3/7
f 29/3/1 30/3/1 34/3/1 33/3/1
f 42/3/1 41/3/1 38/3/1 37/3/1
f 44/3/8 46/3/8 21/3/8 23/3/8
f 27/3/2 28/3/2 17/3/2 18/3/2
f 29/3/9 30/3/9 28/3/9 27/3/9
f 30/3/10 28/3/10 32/3/10 34/3/10
f 37/3/11 35/3/11 40/3/11 42/3/11
f 34/3/12 33/3/12 31/3/12 32/3/12
f 46/3/2 45/3/2 22/3/2 21/3/2
f 39/3/1 40/3/1 44/3/1 43/3/1
f 32/3/2 31/3/2 36/3/2 35/3/2
f 27/3/13 18/3/13 16/3/13 29/3/13
f 37/10/14 35/10/14 36/3/14 38/3/14
f 29/3/15 33/3/15 31/3/15 27/3/15
f 38/3/16 41/3/16 39/3/16 36/3/16
f 33/3/17 38/3/17 36/3/17 31/3/17
f 42/3/18 40/3/18 39/3/18 41/3/18
f 45/3/19 41/3/19 39/3/19 43/3/19
f 29/3/1 16/3/1 15/3/1 30/3/1
f 46/3/20 45/3/20 43/3/20 44/3/20
f 46/3/21 44/3/21 40/3/21 42/3/21
f 34/3/22 32/3/22 35/3/22 37/3/22
f 37/3/1 38/3/1 33/3/1 34/3/1
f 42/3/2 41/3/2 45/3/2 46/3/2
f 24/3/2 23/3/2 44/3/2 43/3/2
f 47/11/23 49/12/23 50/13/23 48/14/23
f 49/12/24 51/15/24 52/16/24 50/13/24
f 51/15/25 53/17/25 54/18/25 52/16/25
f 53/17/26 55/19/26 56/20/26 54/18/26
f 55/19/27 57/21/27 58/22/27 56/20/27
f 57/21/28 59/23/28 60/24/28 58/22/28
f 59/23/29 61/25/29 62/26/29 60/24/29
f 61/25/30 63/27/30 64/28/30 62/26/30
f 63/27/31 65/29/31 66/30/31 64/28/31
f 65/29/32 67/31/32 68/32/32 66/30/32
f 67/31/33 69/33/33 70/34/33 68/32/33
f 69/33/34 71/35/34 72/36/34 70/34/34
f 71/35/35 73/37/35 74/38/35 72/36/35
f 73/37/36 75/39/36 76/40/36 74/38/36
f 75/39/37 77/41/37 78/42/37 76/40/37
f 77/41/38 79/43/38 80/44/38 78/42/38
f 79/43/39 81/45/39 82/46/39 80/44/39
f 81/45/40 83/47/40 84/48/40 82/46/40
f 83/47/41 85/49/41 86/50/41 84/48/41
f 85/49/42 87/51/42 88/52/42 86/50/42
f 87/51/43 89/53/43 90/54/43 88/52/43
f 89/53/44 91/55/44 92/56/44 90/54/44
f 91/55/45 93/57/45 94/58/45 92/56/45
f 93/57/46 95/59/46 96/60/46 94/58/46
f 95/59/47 97/61/47 98/62/47 96/60/47
f 97/61/48 99/63/48 100/64/48 98/62/48
f 99/63/49 101/65/49 102/66/49 100/64/49
f 101/65/50 103/67/50 104/68/50 102/66/50
f 103/67/51 105/69/51 106/70/51 104/68/51
f 105/69/52 107/71/52 108/72/52 106/70/52
f 50/73/4 52/74/4 54/75/4 56/76/4 58/77/4 60/78/4 62/79/4 64/80/4 66/81/4 68/82/4 70/83/4 72/84/4 74/85/4 76/86/4 78/87/4 80/88/4 82/89/4 84/90/4 86/91/4 88/92/4 90/93/4 92/94/4 94/95/4 96/96/4 98/97/4 100/98/4 102/99/4 104/100/4 106/101/4 108/102/4 110/103/4 48/104/4
f 107/71/53 109/105/53 110/106/53 108/72/53
f 109/105/54 47/107/54 48/108/54 110/106/54
f 47/109/3 109/110/3 107/111/3 105/112/3 103/113/3 101/114/3 99/115/3 97/116/3 95/117/3 93/118/3 91/119/3 89/120/3 87/121/3 85/122/3 83/123/3 81/124/3 79/125/3 77/126/3 75/127/3 73/128/3 71/129/3 69/130/3 67/131/3 65/132/3 63/133/3 61/134/3 59/135/3 57/136/3 55/137/3 53/138/3 51/139/3 49/140/3
f 113/3/2 112/3/2 111/3/2 114/3/2
f 12/3/55 113/3/55 114/3/55 14/3/55
f 14/3/3 114/3/3 111/3/3 13/3/3
f 117/3/2 116/3/2 115/3/2 118/3/2
f 10/4/56 115/4/56 116/3/56 5/3/56
f 9/3/57 117/3/57 118/3/57 11/3/57
f 9/3/58 123/3/58 125/3/58 117/3/58
f 113/3/2 121/3/2 122/3/2 112/3/2
f 120/3/4 122/3/4 121/3/4 119/3/4
f 12/3/5 119/3/5 121/3/5 113/3/5
f 124/3/3 126/3/3 125/3/3 123/3/3
f 5/3/1 124/3/1 123/3/1 9/3/1
f 116/3/5 126/3/5 124/3/5 5/3/5
f 117/3/2 125/3/2 126/3/2 116/3/2
f 10/3/1 5/3/1 9/3/1 11/3/1
f 133/141/59 134/142/59 128/143/59
f 134/142/60 128/143/60 164/144/60
f 129/145/61 140/146/61 137/147/62 130/148/63
f 194/3/3 180/3/3 154/3/3
f 140/146/64 138/149/64 137/147/64
f 138/149/65 140/146/65 141/150/65
f 142/151/66 138/149/66 141/150/66
f 166/152/5 171/153/5 145/44/5 131/42/5
f 171/153/67 172/154/68 146/46/67 145/44/67
f 172/154/68 173/8/69 147/48/69 146/46/69
f 173/8/8 174/155/8 148/50/8 147/48/8
f 174/155/21 175/156/21 149/52/21 148/50/21
f 190/157/70 176/10/70 150/54/70 165/158/70
f 176/10/17 177/159/17 151/56/17 150/54/17
f 177/159/15 178/160/15 152/58/15 151/56/15
f 178/160/13 179/6/13 153/60/13 152/58/13
f 191/3/71 164/144/71 153/60/71
f 166/152/3 131/3/3 144/3/3
f 180/161/67 181/162/67 155/46/67 154/44/67
f 181/162/72 182/163/72 156/48/72 155/46/72
f 182/163/73 183/164/73 157/50/73 156/48/73
f 183/164/21 184/165/21 158/52/21 157/50/21
f 184/165/16 185/166/16 159/54/16 158/52/16
f 185/166/17 186/167/17 160/56/17 159/54/17
f 186/167/15 187/168/15 161/58/15 160/56/15
f 187/168/13 188/2/13 162/60/13 161/58/13
f 188/2/74 169/1/74 138/62/74 162/60/74
f 164/3/75 150/54/75 151/56/75
f 152/58/76 153/60/76 164/144/76
f 175/156/77 190/157/77 165/158/77 149/52/77
f 164/3/78 165/158/78 150/54/78
f 138/169/79 139/170/79 170/171/79 169/172/79
f 191/173/80 192/174/81 189/175/82 238/176/80 234/177/80 240/178/80 163/179/80
f 151/56/83 152/58/83 164/144/83
f 163/179/84 128/3/84 191/173/84
f 164/144/85 191/173/85 128/3/85
f 191/173/86 153/60/86 179/6/87 192/174/81
f 164/3/88 129/3/88 135/3/88 140/3/88 136/3/88 141/3/88 134/3/88
f 165/3/89 193/3/89 218/180/89
f 130/148/90 218/180/91 193/3/91 164/3/92
f 162/60/93 138/149/93 137/147/93
f 161/58/94 162/60/95 137/147/96
f 160/56/97 161/58/94 137/147/96
f 159/54/98 160/56/97 137/147/96
f 158/52/99 159/54/100 137/147/101
f 157/50/102 158/52/99 137/147/101
f 156/48/103 157/50/102 137/147/101
f 155/46/104 156/48/105 137/147/106
f 154/44/107 155/46/104 137/147/106
f 131/3/3 218/180/3 130/148/3 195/180/3 144/3/3
f 194/3/4 168/5/4 137/147/4 154/44/4
f 180/3/1 194/3/1 181/162/1
f 182/163/1 181/162/1 194/3/1
f 183/164/1 182/163/1 194/3/1
f 184/165/1 183/164/1 194/3/1
f 185/166/1 184/165/1 194/3/1
f 186/167/1 185/166/1 194/3/1
f 187/168/1 186/167/1 194/3/1
f 188/2/1 187/168/1 194/3/1
f 195/180/3 200/180/3 199/180/3 196/3/3 144/3/3
f 195/3/1 200/3/1 199/3/1 197/3/1 168/3/1
f 198/3/108 196/3/108 199/180/108 197/3/108
f 168/3/109 195/3/109 130/148/63 137/147/62
f 200/3/1 195/3/1 212/3/1 201/3/1
f 195/3/110 130/148/110 202/180/110 212/3/110
f 204/181/2 206/182/2 207/183/2 205/184/2
f 206/182/5 210/51/5 211/35/5 207/183/5
f 210/51/1 208/185/1 209/186/1 211/35/1
f 208/185/58 204/52/58 205/36/58 209/186/58
f 206/67/3 204/187/3 208/185/3 210/51/3
f 211/35/4 209/186/4 205/188/4 207/19/4
f 203/3/111 201/3/111 212/3/111 202/180/111
f 144/3/1 194/3/1 166/152/1
f 194/3/1 180/3/1 166/152/1
f 180/3/1 171/153/1 166/152/1
f 25/9/4 22/3/4 182/3/4 214/9/4
f 19/7/58 16/3/58 188/3/58 213/7/58
f 182/3/1 183/3/1 220/3/1 174/3/1 173/3/1 214/3/1
f 183/3/1 184/3/1 219/3/112 175/3/113 174/3/1 220/3/1
f 175/3/113 219/3/112 184/3/114 190/157/114
f 185/3/115 217/189/115 176/10/115 190/157/115
f 184/3/116 185/3/116 190/3/116
f 185/3/1 186/3/1 216/3/1 177/3/1 176/3/1 217/3/1
f 186/3/1 187/3/1 215/3/1 178/3/1 177/3/1 216/3/1
f 187/3/1 188/3/1 213/3/1 179/3/1 178/3/1 215/3/1
f 15/6/58 19/7/58 213/7/58 179/6/58
f 21/8/4 25/9/4 214/9/4 173/8/4
f 149/52/117 165/3/118 218/180/119
f 148/50/120 149/52/117 218/180/119
f 147/48/121 148/50/120 218/180/119
f 146/46/122 147/48/121 218/180/119
f 145/44/123 146/46/122 218/180/119
f 218/180/119 131/42/124 145/44/123
f 143/3/58 139/170/58 138/169/58
f 221/181/125 223/182/125 224/183/125 222/184/125
f 223/182/126 229/190/126 227/51/126 228/35/126 224/183/126
f 227/51/127 225/185/127 226/186/127 228/35/127
f 225/185/128 230/191/128 221/52/128 222/36/128 226/186/128
f 229/59/129 230/192/129 225/185/129 227/51/129
f 228/35/130 226/186/130 222/188/130 224/19/130
f 223/67/131 221/187/131 230/192/131 229/59/131
f 138/169/132 133/3/132 142/3/132 127/3/132 139/3/132 132/3/132 143/3/132
f 132/3/58 139/170/58 143/3/58
f 163/179/133 240/178/134 234/177/134 238/176/134 189/175/134 167/3/134 170/3/134 143/3/134 139/170/134 132/3/134 127/3/135
f 128/3/136 163/3/133 127/3/135 142/3/136 133/3/136
f 202/180/137 130/148/90 232/148/138 203/180/137
f 130/148/90 164/3/92 128/3/139 233/3/140 232/148/138
f 163/179/141 269/193/142 233/3/140 128/3/139
f 251/194/143 238/176/144 189/175/145 243/195/146
f 267/196/147 248/197/148 237/198/149 261/199/150
f 249/200/151 240/178/152 234/177/153 246/201/154
f 248/197/148 247/202/155 237/198/149
f 236/193/156 244/203/157 249/200/151 245/204/158
f 244/203/157 163/179/159 240/178/152 249/200/151
f 235/3/160 241/205/161 250/206/162 239/3/163
f 241/205/161 236/193/156 245/204/158 255/207/164 250/206/162
f 258/208/165 256/209/166 251/194/143 257/210/167
f 246/201/154 234/177/153 238/176/144 251/194/143 256/209/166
f 266/211/168 262/212/169 258/208/165 263/213/170
f 253/214/171 246/201/154 256/209/166 258/208/165 262/212/169
f 245/204/158 249/200/151 246/201/154 253/214/171 252/215/172
f 250/206/162 255/207/164 259/216/173 254/217/174
f 255/207/164 245/204/158 252/215/172 265/218/175 259/216/173
f 237/198/149 247/202/155 266/211/168 260/219/176
f 247/202/155 253/214/171 262/212/169 266/211/168
f 252/215/172 253/214/171 247/202/155 248/197/148
f 259/216/173 265/218/175 267/196/147 264/220/177
f 265/218/175 252/215/172 248/197/148 267/196/147
f 243/195/146 257/210/167 251/194/143
f 257/210/167 263/213/170 258/208/165
f 263/213/170 260/219/176 266/211/168
f 261/199/150 237/198/149 260/219/176
f 261/199/150 264/220/177 267/196/147
f 254/217/174 259/216/173 264/220/177
f 239/3/163 250/206/162 254/217/174
f 269/193/142 163/179/141 244/203/178 272/221/179
f 272/221/179 273/205/180 233/3/140
f 271/222/181 233/3/140 273/205/180
f 270/3/182 233/3/140 271/222/181
f 235/3/58 239/3/58 268/3/58 242/3/58
f 270/3/182 274/3/183 233/3/140
f 235/3/184 242/3/184 274/3/183 270/3/182
f 235/3/185 270/3/182 271/222/181 241/205/186
f 241/205/186 271/222/181 273/205/180 236/193/187
f 244/203/178 236/193/187 273/205/180 272/221/179
f 233/3/140 269/193/142 272/221/179
f 281/141/188 282/142/188 276/143/188
f 282/142/189 276/143/189 312/144/189
f 277/145/190 288/146/190 285/147/191 278/148/192
f 342/3/4 328/3/4 302/3/4
f 288/146/193 286/149/193 285/147/193
f 286/149/194 288/146/194 289/150/194
f 290/151/195 286/149/195 289/150/195
f 314/152/58 319/153/58 293/44/58 279/42/58
f 319/153/196 320/154/196 294/46/196 293/44/196
f 320/154/197 321/8/197 295/48/197 294/46/197
f 321/8/198 322/155/198 296/50/198 295/48/198
f 322/155/19 323/156/19 297/52/19 296/50/19
f 338/157/199 324/10/199 298/54/199 313/158/199
f 324/10/22 325/159/22 299/56/22 298/54/22
f 325/159/10 326/160/10 300/58/10 299/56/10
f 326/160/6 327/6/6 301/60/6 300/58/6
f 339/3/200 312/144/200 301/60/200
f 314/152/4 279/3/4 292/3/4
f 328/161/196 329/162/196 303/46/196 302/44/196
f 329/162/201 330/163/201 304/48/201 303/46/201
f 330/163/202 331/164/202 305/50/202 304/48/202
f 331/164/19 332/165/19 306/52/19 305/50/19
f 332/165/11 333/166/11 307/54/11 306/52/11
f 333/166/22 334/167/22 308/56/22 307/54/22
f 334/167/10 335/168/10 309/58/10 308/56/10
f 335/168/6 336/2/6 310/60/6 309/58/6
f 336/2/203 317/1/203 286/62/203 310/60/203
f 312/3/204 298/54/204 299/56/204
f 300/58/205 301/60/205 312/144/205
f 323/156/206 338/157/206 313/158/206 297/52/206
f 312/3/207 313/158/207 298/54/207
f 286/169/208 287/170/208 318/171/208 317/172/208
f 339/173/209 340/174/209 337/175/209 386/176/209 382/177/209 388/178/209 311/179/209
f 299/56/210 300/58/210 312/144/210
f 311/179/211 276/3/211 339/173/211
f 312/144/212 339/173/212 276/3/212
f 339/173/213 301/60/213 327/6/213 340/174/213
f 312/3/214 277/3/214 283/3/214 288/3/214 284/3/214 289/3/214 282/3/214
f 313/3/215 341/3/215 366/180/215
f 278/148/216 366/180/217 341/3/217 312/3/218
f 310/60/219 286/149/219 285/147/219
f 309/58/220 310/60/221 285/147/222
f 308/56/223 309/58/220 285/147/222
f 307/54/224 308/56/223 285/147/222
f 306/52/225 307/54/226 285/147/227
f 305/50/228 306/52/225 285/147/227
f 304/48/229 305/50/228 285/147/227
f 303/46/230 304/48/231 285/147/232
f 302/44/233 303/46/230 285/147/232
f 279/3/4 366/180/4 278/148/4 343/180/4 292/3/4
f 342/3/3 316/5/3 285/147/3 302/44/3
f 328/3/1 342/3/1 329/162/1
f 330/163/1 329/162/1 342/3/1
f 331/164/1 330/163/1 342/3/1
f 332/165/1 331/164/1 342/3/1
f 333/166/1 332/165/1 342/3/1
f 334/167/1 333/166/1 342/3/1
f 335/168/1 334/167/1 342/3/1
f 336/2/1 335/168/1 342/3/1
f 343/180/4 348/180/4 347/180/4 344/3/4 292/3/4
f 343/3/1 348/3/1 347/3/1 345/3/1 316/3/1
f 346/3/234 344/3/234 347/180/234 345/3/234
f 316/3/235 343/3/235 278/148/192 285/147/191
f 348/3/1 343/3/1 360/3/1 349/3/1
f 343/3/236 278/148/236 350/180/236 360/3/236
f 352/181/2 354/182/2 355/183/2 353/184/2
f 354/182/58 358/51/58 359/35/58 355/183/58
f 358/51/1 356/185/1 357/186/1 359/35/1
f 356/185/5 352/52/5 353/36/5 357/186/5
f 354/67/4 352/187/4 356/185/4 358/51/4
f 359/35/3 357/186/3 353/188/3 355/19/3
f 351/3/237 349/3/237 360/3/237 350/180/237
f 292/3/1 342/3/1 314/152/1
f 342/3/1 328/3/1 314/152/1
f 328/3/1 319/153/1 314/152/1
f 26/9/3 24/3/3 330/3/3 362/9/3
f 20/7/5 18/3/5 336/3/5 361/7/5
f 330/3/1 331/3/1 368/3/1 322/3/1 321/3/1 362/3/1
f 331/3/1 332/3/1 367/3/238 323/3/239 322/3/1 368/3/1
f 323/3/239 367/3/238 332/3/240 338/157/240
f 333/3/241 365/189/241 324/10/241 338/157/241
f 332/3/242 333/3/242 338/3/242
f 333/3/1 334/3/1 364/3/1 325/3/1 324/3/1 365/3/1
f 334/3/1 335/3/1 363/3/1 326/3/1 325/3/1 364/3/1
f 335/3/1 336/3/1 361/3/1 327/3/1 326/3/1 363/3/1
f 17/6/5 20/7/5 361/7/5 327/6/5
f 23/8/3 26/9/3 362/9/3 321/8/3
f 297/52/243 313/3/244 366/180/245
f 296/50/246 297/52/243 366/180/245
f 295/48/247 296/50/246 366/180/245
f 294/46/248 295/48/247 366/180/245
f 293/44/249 294/46/248 366/180/245
f 366/180/245 279/42/250 293/44/249
f 291/3/58 287/170/58 286/169/58
f 369/181/251 371/182/251 372/183/251 370/184/251
f 371/182/252 377/190/252 375/51/252 376/35/252 372/183/252
f 375/51/253 373/185/253 374/186/253 376/35/253
f 373/185/254 378/191/254 369/52/254 370/36/254 374/186/254
f 377/59/255 378/192/255 373/185/255 375/51/255
f 376/35/256 374/186/256 370/188/256 372/19/256
f 371/67/257 369/187/257 378/192/257 377/59/257
f 286/169/258 281/3/258 290/3/258 275/3/258 287/3/258 280/3/258 291/3/258
f 280/3/58 287/170/58 291/3/58
f 311/179/259 388/178/260 382/177/260 386/176/260 337/175/260 315/3/260 318/3/260 291/3/260 287/170/260 280/3/260 275/3/261
f 276/3/262 311/3/259 275/3/261 290/3/262 281/3/262
f 350/180/263 278/148/216 380/148/264 351/180/263
f 278/148/216 312/3/218 276/3/265 381/3/266 380/148/264
f 311/179/267 417/193/268 381/3/266 276/3/265
f 399/194/269 386/176/270 337/175/271 391/195/272
f 415/196/273 396/197/274 385/198/275 409/199/276
f 397/200/277 388/178/278 382/177/279 394/201/280
f 396/197/274 395/202/281 385/198/275
f 384/193/282 392/203/283 397/200/277 393/204/284
f 392/203/283 311/179/285 388/178/278 397/200/277
f 383/3/286 389/205/287 398/206/288 387/3/289
f 389/205/287 384/193/282 393/204/284 403/207/290 398/206/288
f 406/208/291 404/209/292 399/194/269 405/210/293
f 394/201/280 382/177/279 386/176/270 399/194/269 404/209/292
f 414/211/294 410/212/295 406/208/291 411/213/296
f 401/214/297 394/201/280 404/209/292 406/208/291 410/212/295
f 393/204/284 397/200/277 394/201/280 401/214/297 400/215/298
f 398/206/288 403/207/290 407/216/299 402/217/300
f 403/207/290 393/204/284 400/215/298 413/218/301 407/216/299
f 385/198/275 395/202/281 414/211/294 408/219/302
f 395/202/281 401/214/297 410/212/295 414/211/294
f 400/215/298 401/214/297 395/202/281 396/197/274
f 407/216/299 413/218/301 415/196/273 412/220/303
f 413/218/301 400/215/298 396/197/274 415/196/273
f 391/195/272 405/210/293 399/194/269
f 405/210/293 411/213/296 406/208/291
f 411/213/296 408/219/302 414/211/294
f 409/199/276 385/198/275 408/219/302
f 409/199/276 412/220/303 415/196/273
f 402/217/300 407/216/299 412/220/303
f 387/3/289 398/206/288 402/217/300
f 417/193/268 311/179/267 392/203/304 420/221/305
f 420/221/305 421/205/306 381/3/266
f 419/222/307 381/3/266 421/205/306
f 418/3/308 381/3/266 419/222/307
f 383/3/5 387/3/5 416/3/5 390/3/5
f 418/3/308 422/3/309 381/3/266
f 383/3/310 390/3/310 422/3/309 418/3/308
f 383/3/311 418/3/308 419/222/307 389/205/312
f 389/205/312 419/222/307 421/205/306 384/193/313
f 392/203/304 384/193/313 421/205/306 420/221/305
f 381/3/266 417/193/268 420/221/305
f 192/174/81 340/174/81 337/175/314 189/175/82
f 192/174/81 179/6/87 327/6/315 340/174/81
f 173/8/69 172/154/68 320/154/68 321/8/69
f 172/154/68 171/153/67 319/153/67 320/154/68
f 166/3/5 314/3/5 319/3/5 171/3/5
f 314/3/316 166/3/316 180/3/316 328/3/316
f 328/3/196 180/3/196 181/3/196 329/3/196
f 329/3/317 181/3/317 182/3/317 330/3/317
l 135 137
l 130 131
l 135 136
l 132 167
l 143 127
l 189 170
l 128 269
l 283 285
l 278 279
l 283 284
l 280 315
l 291 275
l 337 318
l 276 417
