# Blender 4.5.3 LTS
# www.blender.org
mtllib tribal_gun_100_x2_001.mtl
o Tribal_gun_110_x2
v -1.370219 1.617462 -0.595581
v -1.473079 1.632096 -0.614267
v -1.316378 1.921966 -0.602032
v -1.473078 1.617463 -0.594999
v -1.394999 1.990830 -0.596902
v -1.473079 1.614598 -0.327094
v -1.473079 1.546110 -0.198087
v -1.473079 1.416050 -0.143929
v -1.476520 0.200000 -0.143930
v -1.098793 0.200000 1.531590
v -1.316378 1.921966 -0.602032
v -1.370219 1.614629 -0.327547
v -1.370219 1.617462 -0.595581
v -1.473079 1.614598 -0.327094
v -1.370219 1.546175 -0.198730
v -1.473079 1.546110 -0.198087
v -1.370219 1.416152 -0.144669
v -1.473079 1.546110 -0.198087
v -1.370219 1.546175 -0.198730
v -1.377912 0.308473 -0.144637
v -1.332677 1.899731 -0.017732
v -1.316378 1.921966 -0.602032
v -1.370219 1.416152 -0.144669
v -1.370219 1.546175 -0.198730
v -1.370219 1.614629 -0.327547
v -1.370219 1.617462 -0.595581
v -1.316378 1.921966 -0.602032
v -0.486395 0.200000 -0.144637
v -1.095175 0.308473 1.531587
v -1.086265 0.634274 1.504687
v -1.089020 0.947554 1.425019
v -1.104949 1.236275 1.295645
v -1.132159 1.489341 1.121537
v -1.171149 1.697027 0.909386
v -1.218029 1.851351 0.667344
v -1.273639 1.946384 0.404714
v -1.335379 1.978473 0.131587
v -1.098513 0.308473 1.458179
v -1.088884 0.617190 1.432689
v -1.090607 0.914044 1.357198
v -1.103109 1.187626 1.234608
v -1.126579 1.427423 1.069629
v -1.158318 1.624219 0.868602
v -1.200184 1.770451 0.639252
v -1.248664 1.860501 0.390392
v -1.302465 1.890907 0.131587
v -1.394999 1.990799 -0.288916
v -1.473079 1.606120 -0.143929
v -1.151654 1.606120 1.015461
v -0.486395 1.990830 -0.596902
v -0.486395 0.200000 1.531590
v -0.486395 1.928563 -0.603867
v -0.486395 1.990830 -0.596902
v -1.252219 0.308473 -0.144637
v -0.486395 1.900639 -0.017181
v -0.486395 1.928563 -0.603867
v -0.486395 0.308473 1.531590
v -0.486395 0.634274 1.504687
v -0.486395 0.947554 1.425019
v -0.486395 1.236275 1.295645
v -0.486395 1.489341 1.121537
v -0.486395 1.697027 0.909386
v -0.486395 1.851351 0.667344
v -0.486395 1.946384 0.404714
v -0.486395 1.978473 0.131587
v -0.486395 0.308473 1.458179
v -0.486395 0.617190 1.432689
v -0.486395 0.947554 1.339199
v -0.486395 1.187626 1.234608
v -0.486395 1.427423 1.069629
v -0.486395 1.624219 0.868602
v -0.486395 1.770451 0.639252
v -0.486395 1.860501 0.390392
v -0.486395 1.890907 0.131587
v -0.486395 1.990861 -0.288755
v -0.488380 1.599664 1.015461
v -1.394999 1.990830 -0.145246
v -0.486395 1.990926 -0.145001
v -1.288020 1.606120 0.524746
v -0.486395 0.308473 -0.144637
v -1.252219 0.200000 -0.144284
v -0.486395 0.199999 -1.445612
v -1.252219 0.308473 -1.445612
v -0.486395 0.308473 -1.445612
v -1.252220 0.199999 -1.445259
v -1.252219 0.200000 -1.096294
v -1.444180 -0.041888 -1.067844
v -1.252220 -0.041888 -1.096290
v -1.476520 -0.041888 -0.144107
v -1.476520 -0.041888 -1.096290
v -0.845262 0.656249 -0.315543
v -0.845262 0.291668 -0.315543
v -0.845262 0.656249 -1.441628
v -0.845262 0.291668 -1.441628
v -1.205063 0.656249 -0.315543
v -1.205063 0.291668 -0.315543
v -1.205063 0.656249 -1.441628
v -1.205063 0.291668 -1.441628
v -0.486395 0.308472 -0.536223
v -0.486395 1.317250 -0.003432
v -0.486395 1.317250 -0.214744
v -1.252220 -0.041888 -0.144284
v -1.468168 -0.041888 -1.088624
v -1.444180 -0.041888 -1.088624
v -1.468168 -0.041888 -1.067752
v -1.444180 -0.041888 -1.067844
v -1.468168 -0.041888 -1.088624
v -1.444180 -0.041888 -1.088624
v -1.468168 -0.041888 -1.067752
v -1.468169 1.285131 -1.088624
v -1.468169 1.272868 -1.067752
v -1.444180 1.285131 -1.088624
v -1.444180 1.272868 -1.067843
v -1.444180 1.630827 -0.604924
v -1.444180 1.617463 -0.595290
v -1.444180 1.617463 -0.595290
v 1.370219 1.617462 -0.595581
v 1.473079 1.632096 -0.614267
v 1.316378 1.921966 -0.602032
v 1.473078 1.617463 -0.594999
v 1.394999 1.990830 -0.596902
v 1.473079 1.614598 -0.327094
v 1.473079 1.546110 -0.198087
v 1.473079 1.416050 -0.143929
v 1.476520 0.200000 -0.143930
v 1.098793 0.200000 1.531590
v 1.316378 1.921966 -0.602032
v 1.370219 1.614629 -0.327547
v 1.370219 1.617462 -0.595581
v 1.473079 1.614598 -0.327094
v 1.370219 1.546175 -0.198730
v 1.473079 1.546110 -0.198087
v 1.370219 1.416152 -0.144669
v 1.473079 1.546110 -0.198087
v 1.370219 1.546175 -0.198730
v 1.377912 0.308473 -0.144637
v 1.332677 1.899731 -0.017732
v 1.316378 1.921966 -0.602032
v 1.370219 1.416152 -0.144669
v 1.370219 1.546175 -0.198730
v 1.370219 1.614629 -0.327547
v 1.370219 1.617462 -0.595581
v 1.316378 1.921966 -0.602032
v 0.486395 0.200000 -0.144637
v 1.095175 0.308473 1.531587
v 1.086265 0.634274 1.504687
v 1.089020 0.947554 1.425019
v 1.104949 1.236275 1.295645
v 1.132159 1.489341 1.121537
v 1.171149 1.697027 0.909386
v 1.218029 1.851351 0.667344
v 1.273639 1.946384 0.404714
v 1.335379 1.978473 0.131587
v 1.098513 0.308473 1.458179
v 1.088884 0.617190 1.432689
v 1.090607 0.914044 1.357198
v 1.103109 1.187626 1.234608
v 1.126579 1.427423 1.069629
v 1.158318 1.624219 0.868602
v 1.200184 1.770451 0.639252
v 1.248664 1.860501 0.390392
v 1.302465 1.890907 0.131587
v 1.394999 1.990799 -0.288916
v 1.473079 1.606120 -0.143929
v 1.151654 1.606120 1.015461
v 0.486395 1.990830 -0.596902
v 0.486395 0.200000 1.531590
v 0.486395 1.928563 -0.603867
v 0.486395 1.990830 -0.596902
v 1.252219 0.308473 -0.144637
v 0.486395 1.900639 -0.017181
v 0.486395 1.928563 -0.603867
v 0.486395 0.308473 1.531590
v 0.486395 0.634274 1.504687
v 0.486395 0.947554 1.425019
v 0.486395 1.236275 1.295645
v 0.486395 1.489341 1.121537
v 0.486395 1.697027 0.909386
v 0.486395 1.851351 0.667344
v 0.486395 1.946384 0.404714
v 0.486395 1.978473 0.131587
v 0.486395 0.308473 1.458179
v 0.486395 0.617190 1.432689
v 0.486395 0.947554 1.339199
v 0.486395 1.187626 1.234608
v 0.486395 1.427423 1.069629
v 0.486395 1.624219 0.868602
v 0.486395 1.770451 0.639252
v 0.486395 1.860501 0.390392
v 0.486395 1.890907 0.131587
v 0.486395 1.990861 -0.288755
v 0.488380 1.599664 1.015461
v 1.394999 1.990830 -0.145246
v 0.486395 1.990926 -0.145001
v 1.288025 1.606120 0.524746
v 0.486395 0.308473 -0.144637
v 1.252219 0.200000 -0.144284
v 0.486395 0.199999 -1.445612
v 1.252219 0.308473 -1.445612
v 0.486395 0.308473 -1.445612
v 1.252220 0.199999 -1.445259
v 1.252219 0.200000 -1.096294
v 1.444180 -0.041888 -1.067844
v 1.252220 -0.041888 -1.096290
v 1.476520 -0.041888 -0.144107
v 1.476520 -0.041888 -1.096290
v 0.845262 0.656249 -0.315543
v 0.845262 0.291668 -0.315543
v 0.845262 0.656249 -1.441628
v 0.845262 0.291668 -1.441628
v 1.205063 0.656249 -0.315543
v 1.205063 0.291668 -0.315543
v 1.205063 0.656249 -1.441628
v 1.205063 0.291668 -1.441628
v 0.486395 0.308472 -0.536223
v 0.486395 1.317250 -0.003432
v 0.486395 1.317250 -0.214744
v 1.252220 -0.041888 -0.144284
v 1.468168 -0.041888 -1.088624
v 1.444180 -0.041888 -1.088624
v 1.468168 -0.041888 -1.067752
v 1.444180 -0.041888 -1.067844
v 1.468168 -0.041888 -1.088624
v 1.444180 -0.041888 -1.088624
v 1.468168 -0.041888 -1.067752
v 1.468169 1.285131 -1.088624
v 1.468169 1.272868 -1.067752
v 1.444180 1.285131 -1.088624
v 1.444180 1.272868 -1.067843
v 1.444180 1.630827 -0.604924
v 1.444180 1.617463 -0.595290
v 1.444180 1.617463 -0.595290
v 0.486395 1.934690 0.131587
v 0.035000 1.978473 0.131587
v -0.486395 1.934690 0.131587
v 0.035000 1.890907 0.131587
v -0.035000 1.978473 0.131587
v -0.035000 1.890907 0.131587
v 0.035000 1.934690 0.131587
v -0.035000 1.934690 0.131587
v 0.035000 0.947554 1.425019
v 0.035000 0.947554 1.339199
v -0.486395 0.947554 1.382109
v 0.486395 0.947554 1.382109
v -0.035000 0.947554 1.425019
v -0.035000 0.947554 1.339199
v 0.035000 0.947554 1.382109
v -0.035000 0.947554 1.382109
v 0.486395 1.903443 0.397553
v -0.486395 1.903443 0.397553
v -0.035000 1.860501 0.390392
v -0.035000 1.946384 0.404714
v 0.035000 1.860501 0.390392
v 0.035000 1.946384 0.404714
v 0.486395 1.810901 0.653298
v -0.486395 1.810901 0.653298
v -0.035000 1.770451 0.639252
v -0.035000 1.851351 0.667344
v 0.035000 1.770451 0.639252
v 0.035000 1.851351 0.667344
v 0.486395 1.660623 0.888994
v -0.486395 1.660623 0.888994
v -0.035000 1.697027 0.909386
v -0.035000 1.624219 0.868602
v 0.035000 1.697027 0.909386
v 0.035000 1.624219 0.868602
v -1.326000 0.200000 0.524746
v 0.486395 1.458382 1.095583
v -0.486395 1.458382 1.095583
v -0.035000 1.427423 1.069629
v -0.035000 1.489341 1.121537
v 0.035000 1.427423 1.069629
v 0.035000 1.489341 1.121537
v 0.486395 1.211951 1.265126
v -0.486395 1.211951 1.265126
v -0.035000 1.187626 1.234608
v -0.035000 1.236275 1.295645
v 0.035000 1.187626 1.234608
v 0.035000 1.236275 1.295645
v 1.326000 0.200000 0.524746
v -1.395006 2.090356 -0.596912
v -0.486402 2.090356 -0.596912
v 1.394992 2.090356 -0.596912
v 0.486389 2.090356 -0.596912
v -0.486402 2.090356 -0.596912
v 0.486389 2.090356 -0.596912
v -1.394999 1.990830 -0.596902
v -0.486395 1.990830 -0.596902
v 1.394999 1.990830 -0.596902
v 0.486395 1.990830 -0.596902
v -0.486395 1.990830 -0.596902
v 0.486395 1.990830 -0.596902
v -1.395006 2.090356 -0.596912
v -0.486402 2.090356 -0.596912
v 1.394992 2.090356 -0.596912
v 0.486389 2.090356 -0.596912
v -0.486402 2.090356 -0.596912
v 0.486389 2.090356 -0.596912
v -1.394999 1.990830 -0.582962
v -0.486395 1.990830 -0.582962
v 1.394999 1.990830 -0.582962
v 0.486395 1.990830 -0.582962
v -0.486395 1.990830 -0.582962
v 0.486395 1.990830 -0.582962
v -1.395006 2.090356 -0.582972
v -0.486402 2.090356 -0.582972
v 1.394992 2.090356 -0.582972
v 0.486389 2.090356 -0.582972
v -0.486402 2.090353 -0.582972
v 0.486389 2.090353 -0.582972
v -1.394999 1.990720 -1.367385
v -0.486395 1.990724 -1.838974
v 1.394999 1.990724 -1.367385
v 0.486395 1.990724 -1.838974
v 0.486395 1.990724 -1.838974
v -1.395006 2.090250 -1.367395
v -0.486402 2.090249 -1.838984
v 1.394992 2.090250 -1.367395
v 0.486389 2.090249 -1.838984
v -0.899998 1.990720 -1.857920
v -1.199998 1.990720 -1.686630
v -0.486402 1.990720 -1.857920
v -0.486402 1.990720 -1.851766
v 0.900002 1.990720 -1.857920
v 1.200003 1.990720 -1.686630
v 0.486394 1.990720 -1.857920
v 0.486395 1.990720 -1.851766
v -0.900002 2.090300 -1.857924
v -1.200003 2.090300 -1.686637
v -0.486402 2.090300 -1.851773
v -0.486402 2.090300 -1.857924
v 0.899998 2.090300 -1.857924
v 1.199997 2.090300 -1.686637
v 0.486389 2.090300 -1.851773
v 0.486390 2.090300 -1.857924
v -0.710531 0.960844 1.460782
v -0.709607 1.604497 1.119334
v -0.928802 0.962232 1.461608
v -0.927878 1.605885 1.120159
v -0.710531 1.679049 0.749506
v -0.709607 1.786443 0.813370
v -0.928802 1.680436 0.750331
v -0.927878 1.787831 0.814195
v -0.928802 0.903802 1.192097
v -0.710531 0.902414 1.191272
v 0.710531 0.960844 1.460782
v 0.709607 1.604497 1.119334
v 0.928802 0.962232 1.461608
v 0.927878 1.605885 1.120159
v 0.710531 1.679049 0.749506
v 0.709607 1.786443 0.813370
v 0.928802 1.680436 0.750331
v 0.927878 1.787831 0.814195
v 0.928802 0.903802 1.192097
v 0.710531 0.902414 1.191272
v 0.000000 -0.100000 -1.000000
v 0.000000 0.100000 -1.000000
v 0.195090 -0.100000 -0.980785
v 0.195090 0.100000 -0.980785
v 0.382683 -0.100000 -0.923880
v 0.382683 0.100000 -0.923880
v 0.555570 -0.100000 -0.831470
v 0.555570 0.100000 -0.831470
v 0.707107 -0.100000 -0.707107
v 0.707107 0.100000 -0.707107
v 0.831470 -0.100000 -0.555570
v 0.831470 0.100000 -0.555570
v 0.923880 -0.100000 -0.382683
v 0.923880 0.100000 -0.382683
v 0.980785 -0.100000 -0.195090
v 0.980785 0.100000 -0.195090
v 1.000000 -0.100000 0.000000
v 1.000000 0.100000 -0.000000
v 0.980785 -0.100000 0.195090
v 0.980785 0.100000 0.195090
v 0.923880 -0.100000 0.382683
v 0.923880 0.100000 0.382683
v 0.831470 -0.100000 0.555570
v 0.831470 0.100000 0.555570
v 0.707107 -0.100000 0.707107
v 0.707107 0.100000 0.707107
v 0.555570 -0.100000 0.831470
v 0.555570 0.100000 0.831470
v 0.382683 -0.100000 0.923880
v 0.382683 0.100000 0.923880
v 0.195090 -0.100000 0.980785
v 0.195090 0.100000 0.980785
v 0.000000 -0.100000 1.000000
v 0.000000 0.100000 1.000000
v -0.195090 -0.100000 0.980785
v -0.195090 0.100000 0.980785
v -0.382683 -0.100000 0.923880
v -0.382683 0.100000 0.923880
v -0.555570 -0.100000 0.831470
v -0.555570 0.100000 0.831470
v -0.707107 -0.100000 0.707107
v -0.707107 0.100000 0.707107
v -0.831470 -0.100000 0.555570
v -0.831470 0.100000 0.555570
v -0.923880 -0.100000 0.382683
v -0.923880 0.100000 0.382683
v -0.980785 -0.100000 0.195090
v -0.980785 0.100000 0.195090
v -1.000000 -0.100000 0.000000
v -1.000000 0.100000 -0.000000
v -0.980785 -0.100000 -0.195090
v -0.980785 0.100000 -0.195090
v -0.923880 -0.100000 -0.382683
v -0.923880 0.100000 -0.382683
v -0.831470 -0.100000 -0.555570
v -0.831470 0.100000 -0.555570
v -0.707107 -0.100000 -0.707107
v -0.707107 0.100000 -0.707107
v -0.555570 -0.100000 -0.831470
v -0.555570 0.100000 -0.831470
v -0.382683 -0.100000 -0.923880
v -0.382683 0.100000 -0.923880
v -0.195090 -0.100000 -0.980785
v -0.195090 0.100000 -0.980785
v 0.376519 1.317250 -0.003432
v 0.376519 0.308473 -0.144637
v 0.376519 0.308472 -0.536223
v 0.376519 1.317250 -0.214744
v -0.376519 1.317250 -0.003432
v -0.376519 0.308473 -0.144637
v -0.376519 0.308472 -0.536223
v -0.376519 1.317250 -0.214744
v 0.486395 -0.000000 -0.536223
v 0.486395 -0.000000 -0.144637
v 0.376519 -0.000000 -0.536223
v 0.376519 -0.000000 -0.144637
v -0.486395 -0.000000 -0.536223
v -0.486395 -0.000000 -0.144637
v -0.376519 -0.000000 -0.536223
v -0.376519 -0.000000 -0.144637
vn 0.1695 -0.0646 -0.9834
vn -0.0032 -0.5848 -0.8112
vn -1.0000 -0.0000 -0.0000
vn -0.0192 0.0525 -0.9984
vn -0.0001 -0.9999 -0.0106
vn 0.0003 -0.9999 -0.0107
vn -0.0018 -0.8831 -0.4693
vn -0.0024 -0.8832 -0.4689
vn -0.0055 -0.3839 -0.9234
vn -0.0060 -0.3842 -0.9232
vn -0.0058 -0.3841 -0.9233
vn -0.0063 -0.3844 -0.9231
vn -0.0072 -0.0000 -1.0000
vn -0.0042 -0.0022 -1.0000
vn -0.0070 -0.0001 -1.0000
vn -0.0000 -1.0000 -0.0000
vn -0.0000 -0.0000 1.0000
vn 0.9656 -0.0067 -0.2600
vn 0.9924 -0.0472 -0.1136
vn 0.9956 -0.0831 -0.0442
vn 0.9916 -0.1291 -0.0014
vn 0.9846 -0.1736 0.0209
vn -0.0000 0.0823 0.9966
vn -0.0000 0.2465 0.9692
vn -0.0000 0.4089 0.9126
vn -0.0000 0.5668 0.8239
vn 0.0036 0.7481 0.6636
vn -0.0000 0.8432 0.5376
vn -0.0000 0.9403 0.3403
vn -0.0000 0.9932 0.1167
vn -0.9570 0.1950 0.2148
vn 0.0072 0.2601 0.9655
vn 0.0024 0.4045 0.9145
vn -0.0000 0.7146 0.6995
vn -0.0006 0.9981 0.0622
vn -0.9568 0.1229 0.2636
vn -0.9670 0.2030 0.1542
vn -0.0000 -0.0000 -0.0000
vn -0.9551 0.1780 0.2368
vn 0.0034 0.6828 0.7306
vn -0.9584 0.1045 0.2657
vn 0.0044 -0.9991 -0.0427
vn 0.0022 -0.9990 -0.0451
vn -0.0014 0.0910 -0.9958
vn -0.0000 1.0000 -0.0000
vn -0.0001 1.0000 -0.0003
vn -0.0000 1.0000 -0.0004
vn -0.9554 0.1477 0.2557
vn -0.9791 0.2032 -0.0000
vn -0.9800 0.1989 0.0092
vn -0.0001 0.9990 0.0448
vn -0.0000 0.9990 0.0449
vn -0.9788 0.2047 0.0022
vn -0.9632 0.0260 0.2677
vn -0.9698 0.0143 0.2434
vn -0.9799 0.0120 0.1990
vn -0.9788 0.0111 0.2044
vn -0.9788 0.0109 0.2047
vn -0.9803 0.0141 0.1970
vn -0.9811 0.0157 0.1931
vn -0.9816 0.0173 0.1902
vn -0.9834 0.0261 0.1795
vn -0.9833 0.0254 0.1801
vn -0.9836 0.0286 0.1779
vn -0.9839 0.0336 0.1756
vn -0.9840 0.0334 0.1748
vn -0.9842 0.0415 0.1722
vn -0.9842 0.0382 0.1729
vn -0.9842 0.0416 0.1722
vn -0.9842 0.0449 0.1716
vn 1.0000 -0.0000 -0.0000
vn -0.0002 -0.0016 -1.0000
vn -0.0010 -0.0044 -1.0000
vn 0.0012 -0.0004 1.0000
vn -0.0038 -0.0000 -1.0000
vn -0.0000 -0.0000 -1.0000
vn -0.0010 -0.8617 -0.5074
vn -1.0000 -0.0070 -0.0053
vn 1.0000 0.0078 0.0046
vn 0.0928 -0.7152 -0.6928
vn -0.1220 -0.8046 0.5811
vn -0.0043 0.8080 -0.5891
vn 0.1695 0.0646 0.9834
vn -0.0032 0.5848 0.8112
vn -0.0192 -0.0525 0.9984
vn -0.0001 0.9999 0.0106
vn 0.0003 0.9999 0.0107
vn -0.0018 0.8831 0.4693
vn -0.0024 0.8832 0.4689
vn -0.0055 0.3839 0.9234
vn -0.0060 0.3842 0.9232
vn -0.0058 0.3841 0.9233
vn -0.0063 0.3844 0.9231
vn -0.0072 -0.0000 1.0000
vn -0.0042 0.0022 1.0000
vn -0.0069 0.0001 1.0000
vn 0.9656 0.0067 0.2600
vn 0.9924 0.0472 0.1136
vn 0.9956 0.0831 0.0442
vn 0.9916 0.1291 0.0014
vn 0.9846 0.1736 -0.0209
vn -0.0000 -0.0823 -0.9966
vn -0.0000 -0.2465 -0.9692
vn -0.0000 -0.4089 -0.9126
vn -0.0000 -0.5668 -0.8239
vn 0.0036 -0.7481 -0.6636
vn -0.0000 -0.8432 -0.5376
vn -0.0000 -0.9403 -0.3403
vn -0.0000 -0.9932 -0.1167
vn -0.9570 -0.1950 -0.2148
vn 0.0072 -0.2601 -0.9655
vn 0.0024 -0.4045 -0.9145
vn -0.0000 -0.7146 -0.6995
vn -0.0006 -0.9981 -0.0622
vn -0.9568 -0.1229 -0.2636
vn -0.9670 -0.2030 -0.1542
vn -0.9551 -0.1780 -0.2368
vn 0.0034 -0.6828 -0.7306
vn -0.9584 -0.1045 -0.2657
vn -0.9749 -0.0328 -0.2201
vn -0.9747 -0.0450 -0.2187
vn -0.9743 -0.0391 -0.2219
vn 0.0044 0.9991 0.0427
vn -0.0014 -0.0910 0.9958
vn -0.0001 -1.0000 0.0003
vn -0.9554 -0.1477 -0.2557
vn -0.9791 -0.2032 -0.0000
vn -0.9800 -0.1989 -0.0092
vn -0.0001 -0.9990 -0.0448
vn -0.9788 -0.2047 -0.0022
vn -0.9748 -0.0466 -0.2180
vn -0.9746 -0.0448 -0.2193
vn -0.9746 -0.0451 -0.2193
vn -0.9750 -0.0325 -0.2200
vn -0.9734 -0.0421 -0.2252
vn -0.9632 -0.0260 -0.2677
vn -0.9698 -0.0143 -0.2434
vn -0.9799 -0.0120 -0.1990
vn -0.9788 -0.0111 -0.2044
vn -0.9788 -0.0109 -0.2047
vn -0.9803 -0.0141 -0.1970
vn -0.9811 -0.0157 -0.1931
vn -0.9816 -0.0173 -0.1902
vn -0.9834 -0.0261 -0.1795
vn -0.9833 -0.0254 -0.1801
vn -0.9836 -0.0286 -0.1779
vn -0.9839 -0.0336 -0.1756
vn -0.9840 -0.0334 -0.1748
vn -0.9842 -0.0415 -0.1722
vn -0.9842 -0.0382 -0.1729
vn -0.9842 -0.0416 -0.1722
vn -0.9842 -0.0449 -0.1716
vn -0.0002 0.0016 1.0000
vn -0.0010 0.0044 1.0000
vn 0.0012 0.0004 -1.0000
vn -0.0038 -0.0000 1.0000
vn -0.0000 -0.1386 0.9903
vn -0.0010 0.8617 0.5074
vn -1.0000 0.0070 0.0053
vn 1.0000 -0.0078 -0.0046
vn 0.0928 0.7152 0.6928
vn -0.1220 0.8046 -0.5811
vn -0.0043 -0.8080 0.5891
vn -0.0000 0.1112 -0.9938
vn -0.0000 -0.5605 -0.8282
vn -0.0000 -0.2723 -0.9622
vn 1.0000 -0.0042 0.0050
vn 1.0000 -0.0005 0.0005
vn 0.9999 -0.0084 0.0100
vn 0.9999 0.0069 -0.0124
vn 0.9997 -0.0166 -0.0163
vn -0.0000 1.0000 -0.0005
vn -0.0000 0.9990 0.0450
vn -0.0000 0.9979 0.0653
vn -0.0000 -0.9989 -0.0475
vn 1.0000 0.0042 -0.0050
vn 1.0000 0.0005 -0.0006
vn 0.9999 0.0084 -0.0100
vn 0.9999 -0.0069 0.0124
vn 0.9997 0.0166 0.0163
vn -0.0000 0.3994 0.9168
vn -0.0000 -0.1645 0.9864
vn -0.0000 0.3280 -0.9447
vn -0.0000 -0.4887 0.8724
vn -0.0000 -0.6424 0.7663
vn -0.0000 0.7820 -0.6233
vn -0.9746 0.0451 0.2193
vn -0.9734 0.0421 0.2252
vn -0.9743 0.0391 0.2219
vn -0.9746 0.0448 0.2193
vn -0.9748 0.0466 0.2180
vn -0.9747 0.0450 0.2187
vn -0.9749 0.0329 0.2201
vn -0.9750 0.0325 0.2200
vn -0.0000 -1.0000 0.0001
vn -0.0000 0.0001 1.0000
vn -0.0000 -0.0001 -1.0000
vn -1.0000 -0.0001 -0.0000
vn -0.0000 1.0000 -0.0001
vn -1.0000 -0.0001 0.0001
vn -0.0000 -1.0000 0.0002
vn 0.0001 1.0000 0.0002
vn 0.0001 -1.0000 -0.0002
vn -0.0000 1.0000 0.0020
vn 0.0001 1.0000 -0.0000
vn 0.0001 -1.0000 -0.0000
vn -1.0000 -0.0000 0.0001
vn -0.4958 -0.0000 0.8684
vn -0.4958 -0.0001 -0.8684
vn -0.8534 -0.0001 -0.5213
vn -0.8534 -0.0000 0.5213
vn -0.0063 -0.4686 -0.8834
vn 1.0000 -0.0019 -0.0017
vn -0.0000 -0.5111 0.8595
vn -1.0000 0.0019 0.0017
vn 0.0064 0.4944 0.8692
vn -0.0074 -0.8595 -0.5111
vn 0.0054 0.9773 -0.2119
vn -0.0063 0.4686 0.8834
vn 1.0000 0.0019 0.0017
vn -0.0000 0.5111 -0.8595
vn -1.0000 -0.0019 -0.0017
vn 0.0064 -0.4944 -0.8692
vn -0.0074 0.8595 0.5111
vn 0.0054 -0.9773 0.2119
vn -0.0980 -0.0000 0.9952
vn -0.2903 -0.0000 0.9569
vn -0.4714 -0.0000 0.8819
vn -0.6344 -0.0000 0.7730
vn -0.7730 -0.0000 0.6344
vn -0.8819 -0.0000 0.4714
vn -0.9569 -0.0000 0.2903
vn -0.9952 -0.0000 0.0980
vn -0.9952 -0.0000 -0.0980
vn -0.9569 -0.0000 -0.2903
vn -0.8819 -0.0000 -0.4714
vn -0.7730 -0.0000 -0.6344
vn -0.6344 -0.0000 -0.7730
vn -0.4714 -0.0000 -0.8819
vn -0.2903 -0.0000 -0.9569
vn -0.0980 -0.0000 -0.9952
vn 0.0980 -0.0000 -0.9952
vn 0.2903 -0.0000 -0.9569
vn 0.4714 -0.0000 -0.8819
vn 0.6344 -0.0000 -0.7730
vn 0.7730 -0.0000 -0.6344
vn 0.8819 -0.0000 -0.4714
vn 0.9569 -0.0000 -0.2903
vn 0.9952 -0.0000 -0.0980
vn 0.9952 -0.0000 0.0980
vn 0.9569 -0.0000 0.2903
vn 0.8819 -0.0000 0.4714
vn 0.7730 -0.0000 0.6344
vn 0.6344 -0.0000 0.7730
vn 0.4714 -0.0000 0.8819
vn 0.2903 -0.0000 0.9569
vn 0.0980 -0.0000 0.9952
vn -0.0000 0.3036 -0.9528
vn -0.0000 0.1386 -0.9903
vn -0.0000 -0.3036 0.9528
vt 0.482096 0.533154
vt 0.482096 0.530546
vt 0.481351 0.531850
vt 0.480607 0.533154
vt 0.481351 0.530546
vt 1.693939 0.526506
vt 0.000000 0.000000
vt 0.481963 0.525821
vt 0.482224 0.522739
vt 0.480607 0.534658
vt 0.482096 1.710455
vt 0.482934 1.706227
vt 0.480607 1.710446
vt 0.481351 1.710450
vt 0.481442 1.706220
vt 0.483456 1.703591
vt 0.481963 1.703582
vt 0.483456 0.525822
vt 0.483717 0.522741
vt -0.702274 0.522741
vt -0.702273 0.503070
vt 0.482224 0.503066
vt -0.686174 0.528855
vt -0.703591 0.525822
vt -0.706227 0.528287
vt -0.710455 0.530546
vt -0.710462 0.533154
vt 0.531250 0.756459
vt 0.500000 0.756623
vt 0.500000 1.000000
vt 0.531250 1.000000
vt 0.468750 0.756592
vt 0.468750 1.000000
vt 0.437500 0.755725
vt 0.437500 1.000000
vt 0.406250 0.754083
vt 0.406250 1.000000
vt 0.375000 0.751828
vt 0.375000 1.000000
vt 0.359375 0.750473
vt 0.343750 0.749156
vt 0.343750 1.000000
vt 0.359375 1.000000
vt 0.312500 0.746280
vt 0.312500 1.000000
vt 0.281250 0.743392
vt 0.281250 1.000000
vt 0.250000 0.740649
vt 0.250000 1.000000
vt 0.500000 0.755972
vt 0.468750 0.755943
vt 0.437500 0.755070
vt 0.406250 0.753424
vt 0.375000 0.751151
vt 0.343750 0.748447
vt 0.312500 0.745523
vt 0.281250 0.742573
vt 0.250000 0.739755
vt 0.218750 0.738232
vt 0.218750 1.000000
vt 0.480607 0.530546
vt 0.486924 1.686174
vt 0.482096 1.710462
vt 0.500043 1.710462
vt 0.500613 1.686174
vt 0.499959 0.534658
vt 0.500043 0.533154
vt 0.516940 1.697900
vt 0.515714 1.691757
vt 0.499545 1.691757
vt 0.499693 1.697900
vt 0.241112 0.251533
vt -0.351137 0.251535
vt 0.109375 0.369116
vt 0.178287 0.185992
vt 0.055952 0.058370
vt 0.375000 0.000000
vt 0.375000 0.250000
vt 0.625000 0.250000
vt 0.625000 0.000000
vt 0.375000 0.500000
vt 0.625000 0.500000
vt 0.375000 0.750000
vt 0.625000 0.750000
vt 0.625000 1.000000
vt 0.125000 0.500000
vt 0.125000 0.750000
vt 0.875000 0.750000
vt 0.875000 0.500000
vt 0.031529 0.032892
vt 0.120556 0.125766
vt 0.095896 0.100041
vt 0.218750 0.377862
vt 0.171875 0.374578
vt 0.125000 0.370324
vt 0.500041 1.710184
vt 0.519393 1.710184
vt 0.375000 0.375000
vt 0.375000 0.875000
vt 0.250000 0.500000
vt 0.250000 0.750000
vt 1.000000 0.500000
vt 0.968750 0.500000
vt 0.968750 1.000000
vt 1.000000 1.000000
vt 0.937500 0.500000
vt 0.937500 1.000000
vt 0.906250 0.500000
vt 0.906250 1.000000
vt 0.875000 1.000000
vt 0.843750 0.500000
vt 0.843750 1.000000
vt 0.812500 0.500000
vt 0.812500 1.000000
vt 0.781250 0.500000
vt 0.781250 1.000000
vt 0.750000 0.500000
vt 0.750000 1.000000
vt 0.718750 0.500000
vt 0.718750 1.000000
vt 0.687500 0.500000
vt 0.687500 1.000000
vt 0.656250 0.500000
vt 0.656250 1.000000
vt 0.593750 0.500000
vt 0.593750 1.000000
vt 0.562500 0.500000
vt 0.562500 1.000000
vt 0.531250 0.500000
vt 0.500000 0.500000
vt 0.468750 0.500000
vt 0.437500 0.500000
vt 0.406250 0.500000
vt 0.343750 0.500000
vt 0.312500 0.500000
vt 0.281250 0.500000
vt 0.218750 0.500000
vt 0.187500 0.500000
vt 0.187500 1.000000
vt 0.156250 0.500000
vt 0.156250 1.000000
vt 0.125000 1.000000
vt 0.093750 0.500000
vt 0.093750 1.000000
vt 0.062500 0.500000
vt 0.062500 1.000000
vt 0.296822 0.485388
vt 0.341844 0.471731
vt 0.383337 0.449553
vt 0.419706 0.419706
vt 0.449553 0.383337
vt 0.471731 0.341844
vt 0.485388 0.296822
vt 0.490000 0.250000
vt 0.485388 0.203178
vt 0.471731 0.158156
vt 0.449553 0.116663
vt 0.419706 0.080294
vt 0.383337 0.050447
vt 0.341844 0.028269
vt 0.296822 0.014612
vt 0.250000 0.010000
vt 0.203178 0.014612
vt 0.158156 0.028269
vt 0.116663 0.050447
vt 0.080294 0.080294
vt 0.050447 0.116663
vt 0.028269 0.158156
vt 0.014612 0.203178
vt 0.010000 0.250000
vt 0.014612 0.296822
vt 0.028269 0.341844
vt 0.050447 0.383337
vt 0.080294 0.419706
vt 0.116663 0.449553
vt 0.158156 0.471731
vt 0.203178 0.485388
vt 0.250000 0.490000
vt 0.031250 0.500000
vt 0.031250 1.000000
vt 0.000000 0.500000
vt 0.000000 1.000000
vt 0.750000 0.490000
vt 0.703178 0.485388
vt 0.658156 0.471731
vt 0.616663 0.449553
vt 0.580294 0.419706
vt 0.550447 0.383337
vt 0.528269 0.341844
vt 0.514612 0.296822
vt 0.510000 0.250000
vt 0.514612 0.203178
vt 0.528269 0.158156
vt 0.550447 0.116663
vt 0.580294 0.080294
vt 0.616663 0.050447
vt 0.658156 0.028269
vt 0.703178 0.014612
vt 0.750000 0.010000
vt 0.796822 0.014612
vt 0.841844 0.028269
vt 0.883337 0.050447
vt 0.919706 0.080294
vt 0.949553 0.116663
vt 0.971731 0.158156
vt 0.985388 0.203178
vt 0.990000 0.250000
vt 0.985388 0.296822
vt 0.971731 0.341844
vt 0.949553 0.383337
vt 0.919706 0.419706
vt 0.883337 0.449553
vt 0.841844 0.471731
vt 0.796822 0.485388
s 1
f 3/1/1 1/2/1 114/3/1 2/4/1
f 115/5/2 114/3/2 1/2/2
f 48/6/3 7/7/3 16/7/3 18/8/3 8/9/3
f 5/10/4 11/1/4 2/4/4
f 13/11/5 12/12/5 4/13/5 116/14/5
f 14/15/6 4/13/6 12/12/6
f 12/12/7 15/16/7 14/15/7
f 16/17/8 14/15/8 15/16/8
f 19/18/9 17/19/10 18/8/11
f 8/9/12 18/8/11 17/19/10
f 8/9/13 23/20/13 20/21/14 9/22/15
f 80/7/16 66/7/16 38/7/16
s 0
f 6/7/17 14/7/17 47/7/17
s 1
f 23/20/18 21/23/18 20/21/18
f 21/23/19 23/20/19 24/24/19
f 25/25/20 21/23/20 24/24/20
f 25/25/21 26/26/21 21/23/21
f 27/27/22 21/23/22 26/26/22
f 51/28/17 57/29/17 29/30/17 10/31/17
f 57/29/23 58/32/23 30/33/23 29/30/23
f 58/32/24 59/34/24 31/35/24 30/33/24
f 59/34/25 60/36/25 32/37/25 31/35/25
f 60/36/26 61/38/26 33/39/26 32/37/26
f 76/40/27 62/41/27 34/42/27 49/43/27
f 62/41/28 63/44/28 35/45/28 34/42/28
f 63/44/29 64/46/29 36/47/29 35/45/29
f 64/46/30 65/48/30 37/49/30 36/47/30
f 77/7/31 48/6/31 37/49/31
f 51/28/16 10/7/16 28/7/16
f 66/50/23 67/51/23 39/33/23 38/30/23
f 67/51/32 68/52/32 40/35/32 39/33/32
f 68/52/33 69/53/33 41/37/33 40/35/33
f 69/53/26 70/54/26 42/39/26 41/37/26
f 70/54/34 71/55/34 43/42/34 42/39/34
f 71/55/28 72/56/28 44/45/28 43/42/28
f 72/56/29 73/57/29 45/47/29 44/45/29
f 73/57/30 74/58/30 46/49/30 45/47/30
f 74/58/35 55/59/35 21/60/35 46/49/35
f 48/7/36 34/42/36 35/45/36
f 2/4/37 4/61/37 5/10/37
s 0
f 6/7/38 14/7/38 4/13/38
f 6/7/17 7/7/17 18/7/17 16/7/17 14/7/17
s 1
f 36/47/39 37/49/39 48/6/39
f 61/38/40 76/40/40 49/43/40 33/39/40
f 48/7/41 49/43/41 34/42/41
f 21/62/42 22/63/42 56/64/43 55/65/43
f 5/10/44 53/66/44 52/67/44 11/1/44
f 75/7/45 291/7/45 287/7/45 47/68/45
f 77/69/46 78/70/47 75/71/47 47/68/46
f 35/45/48 36/47/48 48/6/48
f 47/68/49 6/7/49 14/7/49 77/69/49
f 48/6/50 77/69/50 14/7/50
f 77/69/51 37/49/51 65/48/52 78/70/52
f 4/61/53 14/7/53 6/7/53 5/10/53
f 6/7/49 47/68/49 5/10/49
f 18/7/3 48/6/3 14/7/3
f 49/7/54 79/7/54 267/72/54
f 9/22/55 267/72/55 79/7/55 48/7/55
f 46/49/56 21/23/56 20/21/56
f 45/47/57 46/49/58 20/21/59
f 44/45/60 45/47/57 20/21/59
f 43/42/61 44/45/60 20/21/59
f 42/39/62 43/42/63 20/21/64
f 41/37/65 42/39/62 20/21/64
f 40/35/66 41/37/65 20/21/64
f 39/33/67 40/35/68 20/21/69
f 38/30/70 39/33/67 20/21/69
f 10/7/16 267/72/16 9/22/16 81/72/16 28/7/16
f 80/7/45 54/73/45 20/21/45 38/30/45
f 66/7/71 80/7/71 67/51/71
f 68/52/71 67/51/71 80/7/71
f 69/53/71 68/52/71 80/7/71
f 70/54/71 69/53/71 80/7/71
f 71/55/71 70/54/71 80/7/71
f 72/56/71 71/55/71 80/7/71
f 73/57/71 72/56/71 80/7/71
f 74/58/71 73/57/71 80/7/71
f 55/59/71 74/58/71 80/7/71 100/74/71
f 81/72/16 86/72/16 85/72/16 82/7/16 28/7/16
f 81/7/71 86/7/71 85/7/71 83/7/71 54/7/71
f 80/7/3 99/7/3 84/7/3 82/7/3 28/7/3
f 80/7/45 99/7/45 84/7/45 83/73/45 54/73/45
f 84/7/72 82/7/72 85/72/72 83/7/72
f 54/7/73 81/7/73 9/22/15 20/21/14
f 86/7/71 81/7/71 102/7/71 88/7/71
f 81/7/74 9/22/74 89/72/74 102/7/74
f 105/75/75 111/75/75 113/76/75 87/76/75
f 91/77/3 93/78/3 94/79/3 92/80/3
f 93/78/17 97/81/17 98/82/17 94/79/17
f 97/81/71 95/83/71 96/84/71 98/82/71
f 95/83/76 91/39/76 92/85/76 96/84/76
f 93/86/16 91/87/16 95/83/16 97/81/16
f 98/82/45 96/84/45 92/88/45 94/89/45
f 101/7/16 427/7/16 424/7/16 100/7/16
f 104/90/16 88/7/16 102/7/16 87/76/16
f 87/76/16 102/7/16 89/72/16 105/75/16
f 105/75/16 89/72/16 90/91/16 103/92/16
f 103/92/16 90/91/16 88/7/16 104/90/16
f 113/76/77 111/75/77 110/92/77 112/90/77
f 103/92/71 110/92/71 111/75/71 105/75/71
f 87/76/3 113/76/3 112/90/3 104/90/3
f 104/90/17 112/90/17 110/92/17 103/92/17
f 4/61/78 2/4/78 111/7/78
f 111/7/79 110/92/79 2/4/79
f 4/61/80 2/4/80 114/3/80 115/5/80
f 112/90/3 113/76/3 115/7/3 116/7/3 114/7/3
f 114/7/81 2/7/81 110/7/81 112/7/81
s 0
f 4/13/17 115/7/17 116/14/17
s 1
f 4/61/82 116/7/82 115/7/82 113/76/82 111/7/82
f 119/1/83 117/2/83 230/3/83 118/4/83
f 231/5/84 230/3/84 117/2/84
f 164/6/3 123/7/3 132/7/3 134/8/3 124/9/3
f 121/10/85 127/1/85 118/4/85
f 129/11/86 128/12/86 120/13/86 232/14/86
f 130/15/87 120/13/87 128/12/87
f 128/12/88 131/16/88 130/15/88
f 132/17/89 130/15/89 131/16/89
f 135/18/90 133/19/91 134/8/92
f 124/9/93 134/8/92 133/19/91
f 124/9/94 139/20/94 136/21/95 125/22/96
f 196/7/45 182/7/45 154/7/45
s 0
f 122/7/17 130/7/17 163/7/17
s 1
f 139/20/97 137/23/97 136/21/97
f 137/23/98 139/20/98 140/24/98
f 141/25/99 137/23/99 140/24/99
f 141/25/100 142/26/100 137/23/100
f 143/27/101 137/23/101 142/26/101
f 167/28/76 173/29/76 145/30/76 126/31/76
f 173/29/102 174/32/102 146/33/102 145/30/102
f 174/32/103 175/34/103 147/35/103 146/33/103
f 175/34/104 176/36/104 148/37/104 147/35/104
f 176/36/105 177/38/105 149/39/105 148/37/105
f 192/40/106 178/41/106 150/42/106 165/43/106
f 178/41/107 179/44/107 151/45/107 150/42/107
f 179/44/108 180/46/108 152/47/108 151/45/108
f 180/46/109 181/48/109 153/49/109 152/47/109
f 193/7/110 164/6/110 153/49/110
f 167/28/45 126/7/45 144/7/45
f 182/50/102 183/51/102 155/33/102 154/30/102
f 183/51/111 184/52/111 156/35/111 155/33/111
f 184/52/112 185/53/112 157/37/112 156/35/112
f 185/53/105 186/54/105 158/39/105 157/37/105
f 186/54/113 187/55/113 159/42/113 158/39/113
f 187/55/107 188/56/107 160/45/107 159/42/107
f 188/56/108 189/57/108 161/47/108 160/45/108
f 189/57/109 190/58/109 162/49/109 161/47/109
f 190/58/114 171/59/114 137/60/114 162/49/114
f 164/7/115 150/42/115 151/45/115
f 118/4/116 120/61/116 121/10/116
s 0
f 122/7/38 130/7/38 120/13/38
f 122/7/17 123/7/17 134/7/17 132/7/17 130/7/17
s 1
f 152/47/117 153/49/117 164/6/117
f 177/38/118 192/40/118 165/43/118 149/39/118
f 164/7/119 165/43/119 150/42/119
f 145/30/120 146/33/121 280/72/122
f 137/62/123 138/63/123 172/64/123 171/65/123
f 121/10/124 169/66/124 168/67/124 127/1/124
s 0
f 121/7/17 289/7/17 290/7/17 166/7/17
s 1
f 193/69/125 194/70/125 191/71/125 163/68/125
f 151/45/126 152/47/126 164/6/126
f 163/68/127 122/7/127 130/7/127 193/69/127
f 164/6/128 193/69/128 130/7/128
f 193/69/129 153/49/129 181/48/129 194/70/129
f 120/61/130 130/7/130 122/7/130 121/10/130
f 122/7/127 163/68/127 121/10/127
f 134/7/3 164/6/3 130/7/3
f 147/35/131 148/37/132 280/72/122
f 148/37/132 149/39/133 280/72/122
f 280/72/122 126/31/134 145/30/120
f 149/39/133 165/7/135 280/72/122
f 165/7/136 195/7/136 280/72/136
f 125/22/137 280/72/137 195/7/137 164/7/137
f 146/33/121 147/35/131 280/72/122
f 162/49/138 137/23/138 136/21/138
f 161/47/139 162/49/140 136/21/141
f 160/45/142 161/47/139 136/21/141
f 159/42/143 160/45/142 136/21/141
f 158/39/144 159/42/145 136/21/146
f 157/37/147 158/39/144 136/21/146
f 156/35/148 157/37/147 136/21/146
f 155/33/149 156/35/150 136/21/151
f 154/30/152 155/33/149 136/21/151
f 126/7/45 280/72/45 125/22/45 197/72/45 144/7/45
f 196/7/16 170/73/16 136/21/16 154/30/16
f 182/7/71 196/7/71 183/51/71
f 184/52/71 183/51/71 196/7/71
f 185/53/71 184/52/71 196/7/71
f 186/54/71 185/53/71 196/7/71
f 187/55/71 186/54/71 196/7/71
f 188/56/71 187/55/71 196/7/71
f 189/57/71 188/56/71 196/7/71
f 190/58/71 189/57/71 196/7/71
f 171/59/71 190/58/71 196/7/71 216/74/71
f 197/72/45 202/72/45 201/72/45 198/7/45 144/7/45
f 197/7/71 202/7/71 201/7/71 199/7/71 170/7/71
f 196/7/3 215/7/3 200/7/3 198/7/3 144/7/3
f 196/7/16 215/7/16 200/7/16 199/73/16 170/73/16
f 200/7/153 198/7/153 201/72/153 199/7/153
f 170/7/154 197/7/154 125/22/96 136/21/95
f 202/7/71 197/7/71 218/7/71 204/7/71
f 197/7/155 125/22/155 205/72/155 218/7/155
f 221/75/156 227/75/156 229/76/156 203/76/156
f 207/77/3 209/78/3 210/79/3 208/80/3
f 209/78/76 213/81/76 214/82/76 210/79/76
f 213/81/71 211/83/71 212/84/71 214/82/71
f 211/83/17 207/39/17 208/85/17 212/84/17
f 209/86/45 207/87/45 211/83/45 213/81/45
f 214/82/16 212/84/16 208/88/16 210/89/16
f 216/74/157 420/74/157 421/7/157 196/7/157
f 220/90/45 204/7/45 218/7/45 203/76/45
f 203/76/45 218/7/45 205/72/45 221/75/45
f 221/75/45 205/72/45 206/91/45 219/92/45
f 219/92/45 206/91/45 204/7/45 220/90/45
f 229/76/158 227/75/158 226/92/158 228/90/158
f 219/92/71 226/92/71 227/75/71 221/75/71
f 203/76/3 229/76/3 228/90/3 220/90/3
f 220/90/76 228/90/76 226/92/76 219/92/76
f 120/61/159 118/4/159 227/7/159
f 227/7/160 226/92/160 118/4/160
f 120/61/161 118/4/161 230/3/161 231/5/161
f 228/90/3 229/76/3 231/7/3 232/7/3 230/7/3
f 230/7/162 118/7/162 226/7/162 228/7/162
s 0
f 120/13/17 231/7/17 232/14/17
s 1
f 120/61/163 232/7/163 231/7/163 229/76/163 227/7/163
f 53/66/164 169/66/164 168/67/164 52/67/164
s 0
f 166/7/17 290/7/17 296/7/17 284/7/17
s 1
f 57/29/17 51/28/17 167/28/17 173/29/17
f 58/32/23 57/29/23 173/29/23 174/32/23
f 59/34/24 58/32/24 174/32/24 175/34/24 241/34/24 245/34/24
f 144/7/71 196/7/71 182/7/71 173/7/71 167/7/71
f 28/7/71 80/7/71 51/28/71
f 80/7/71 66/7/71 51/28/71
f 66/7/71 57/29/71 51/28/71
f 66/7/165 182/7/165 167/7/165 51/7/165
f 66/7/102 67/7/102 183/7/102 182/7/102
f 67/7/166 68/7/166 246/7/166 242/7/166 184/7/166 183/7/166
f 248/93/45 246/7/45 68/7/45 243/93/45
f 184/7/71 185/7/71 274/7/71 176/7/71 175/7/71 244/7/71
f 185/7/71 186/7/71 268/7/167 177/7/168 176/7/71 274/7/71
f 177/7/168 268/7/167 186/7/169 192/40/169
f 187/7/170 261/94/170 178/41/170 192/40/170
f 186/7/171 187/7/171 192/7/171
f 187/7/71 188/7/71 255/7/71 179/7/71 178/7/71 261/7/71
f 188/7/71 189/7/71 249/7/71 180/7/71 179/7/71 255/7/71
f 189/7/71 190/7/71 233/7/71 181/7/71 180/7/71 249/7/71
f 78/70/47 194/70/172 191/71/172 75/7/47
f 65/48/52 237/48/173 234/48/173 181/48/173 194/70/173 78/70/52
f 240/95/76 238/7/76 74/7/76 235/95/76
f 190/7/174 171/7/174 55/7/174 74/7/174 238/7/174 236/7/174
f 56/64/43 172/64/175 171/65/175 55/7/43
f 68/7/71 69/7/71 275/7/71 60/7/71 59/7/71 243/7/71
f 69/7/71 70/7/71 269/7/176 61/7/177 60/7/71 275/7/71
f 61/7/177 269/7/176 70/7/178 76/40/178
f 71/7/179 262/94/179 62/41/179 76/40/179
f 70/7/180 71/7/180 76/7/180
f 71/7/71 72/7/71 256/7/71 63/7/71 62/7/71 262/7/71
f 72/7/71 73/7/71 250/7/71 64/7/71 63/7/71 256/7/71
f 73/7/71 74/7/71 235/7/71 65/7/71 64/7/71 250/7/71
f 237/48/76 234/48/76 239/95/76 236/7/76 238/7/76 240/95/76
f 233/95/76 190/7/76 236/7/76 239/95/76
f 181/48/76 233/95/76 239/95/76 234/48/76
f 271/7/71 270/7/71 264/7/71 263/7/71
f 257/7/3 258/7/3 252/7/3 251/7/3
f 252/7/30 254/7/30 234/7/30 237/7/30
f 237/48/76 240/95/76 235/95/76 65/48/76
f 245/34/45 241/34/45 247/93/45 242/7/45 246/7/45 248/93/45
f 244/93/45 184/7/45 242/7/45 247/93/45
f 175/34/45 244/93/45 247/93/45 241/34/45
f 276/7/181 246/7/181 242/7/181 278/7/181
f 253/7/71 254/7/71 260/7/71 259/7/71
f 273/7/71 272/7/71 266/7/71 265/7/71
f 245/34/45 248/93/45 243/93/45 59/34/45
f 277/7/104 279/7/104 241/7/104 245/7/104
f 251/7/3 252/7/3 237/7/3 238/7/3
f 253/7/182 254/7/182 252/7/182 251/7/182
f 254/7/29 252/7/29 258/7/29 260/7/29
f 265/7/34 263/7/34 271/7/34 273/7/34
f 260/7/183 259/7/183 257/7/183 258/7/183
f 279/7/3 278/7/3 242/7/3 241/7/3
f 270/7/71 271/7/71 277/7/71 276/7/71
f 258/7/3 257/7/3 264/7/3 263/7/3
f 251/7/109 238/7/109 236/7/109 253/7/109
f 265/41/184 263/41/184 264/7/184 266/7/184
f 253/7/108 259/7/108 257/7/108 251/7/108
f 266/7/113 272/7/113 270/7/113 264/7/113
f 259/7/107 266/7/107 264/7/107 257/7/107
f 273/7/185 271/7/185 270/7/185 272/7/185
f 278/7/26 272/7/26 270/7/26 276/7/26
f 253/7/71 236/7/71 234/7/71 254/7/71
f 279/7/186 278/7/186 276/7/186 277/7/186
f 279/7/105 277/7/105 271/7/105 273/7/105
f 260/7/28 258/7/28 263/7/28 265/7/28
f 265/7/71 266/7/71 259/7/71 260/7/71
f 273/7/3 272/7/3 278/7/3 279/7/3
f 246/7/3 245/7/3 277/7/3 276/7/3
f 33/39/187 49/7/188 267/72/189
f 32/37/190 33/39/187 267/72/189
f 31/35/191 32/37/190 267/72/189
f 30/33/192 31/35/191 267/72/189
f 29/30/193 30/33/192 267/72/189
f 267/72/189 10/31/194 29/30/193
s 0
f 53/66/17 291/66/17 292/66/17 169/66/17
s 1
f 191/7/195 75/7/195 291/7/195 292/7/195
f 292/7/195 289/7/16 163/68/16 191/71/195
s 0
f 282/96/17 294/96/17 293/97/17 281/97/17
f 286/66/17 298/66/17 297/66/17 285/66/17
f 283/10/17 295/10/17 289/10/17 121/10/17
f 5/7/17 287/7/17 288/7/17 50/7/17
f 284/96/17 296/96/17 295/97/17 283/97/17
f 169/7/17 292/7/17 298/7/17 286/7/17
f 50/7/17 288/7/17 294/7/17 282/7/17
f 285/7/17 297/7/17 291/7/17 53/7/17
f 281/10/17 293/10/17 287/10/17 5/10/17
s 1
f 303/7/196 309/7/196 305/7/196 299/7/196
f 303/7/196 304/7/196 310/7/196 309/7/196
f 304/7/197 310/7/197 307/7/197 301/7/197
f 299/7/195 311/7/195 312/7/16 300/7/195
f 305/10/198 316/10/198 311/10/198 299/10/198
f 301/7/199 313/7/199 314/7/199 302/7/199
f 307/10/198 318/10/198 313/10/198 301/10/198
f 309/7/198 317/7/200 312/7/200 303/7/198
f 303/66/195 312/66/201 315/66/201 304/66/195
f 306/96/199 317/96/202 316/97/45 305/97/199
f 308/96/195 319/96/203 318/97/16 307/97/195
f 310/66/199 319/66/204 317/66/204 309/66/199
f 322/7/16 323/7/16 321/7/16 320/7/16
f 326/7/45 327/7/45 325/7/45 324/7/45
f 326/66/16 327/66/201 323/66/201 322/66/16
f 328/7/45 329/7/205 330/7/202 331/7/45
f 332/7/16 333/7/206 334/7/203 335/7/16
f 331/66/45 330/66/204 334/66/204 335/66/45
f 322/66/3 323/66/207 330/66/207 331/66/3
f 324/7/208 325/7/208 333/7/208 332/7/208
f 320/7/209 321/7/209 329/7/209 328/7/209
f 316/7/210 329/7/210 321/7/210 311/7/210
f 311/7/195 321/7/16 323/7/16 312/7/16
f 320/7/76 328/7/76 331/7/76 322/7/76
f 318/10/211 333/10/211 325/10/211 313/10/211
f 313/7/199 325/7/45 327/7/45 314/7/199
f 324/7/17 332/7/17 335/7/17 326/7/17
f 317/66/200 330/66/207 323/66/207 312/66/200
f 312/66/201 323/66/201 327/66/201 315/66/201
f 322/66/76 331/66/76 335/66/76 326/66/76
f 329/7/205 316/7/45 317/7/202 330/7/202
f 333/7/206 318/7/16 319/7/203 334/7/203
f 330/66/204 317/66/204 319/66/204 334/66/204
f 336/77/212 338/78/212 339/79/212 337/80/212
f 338/78/213 344/98/213 342/81/213 343/82/213 339/79/213
f 342/81/214 340/83/214 341/84/214 343/82/214
f 340/83/215 345/99/215 336/39/215 337/85/215 341/84/215
f 344/100/216 345/101/216 340/83/216 342/81/216
f 343/82/217 341/84/217 337/88/217 339/89/217
f 338/86/218 336/87/218 345/101/218 344/100/218
f 346/77/219 348/78/219 349/79/219 347/80/219
f 348/78/220 354/98/220 352/81/220 353/82/220 349/79/220
f 352/81/221 350/83/221 351/84/221 353/82/221
f 350/83/222 355/99/222 346/39/222 347/85/222 351/84/222
f 354/100/223 355/101/223 350/83/223 352/81/223
f 353/82/224 351/84/224 347/88/224 349/89/224
f 348/86/225 346/87/225 355/101/225 354/100/225
f 356/102/226 358/103/226 359/104/226 357/105/226
f 358/103/227 360/106/227 361/107/227 359/104/227
f 360/106/228 362/108/228 363/109/228 361/107/228
f 362/108/229 364/89/229 365/110/229 363/109/229
f 364/89/230 366/111/230 367/112/230 365/110/230
f 366/111/231 368/113/231 369/114/231 367/112/231
f 368/113/232 370/115/232 371/116/232 369/114/232
f 370/115/233 372/117/233 373/118/233 371/116/233
f 372/117/234 374/119/234 375/120/234 373/118/234
f 374/119/235 376/121/235 377/122/235 375/120/235
f 376/121/236 378/123/236 379/124/236 377/122/236
f 378/123/237 380/82/237 381/85/237 379/124/237
f 380/82/238 382/125/238 383/126/238 381/85/238
f 382/125/239 384/127/239 385/128/239 383/126/239
f 384/127/240 386/129/240 387/31/240 385/128/240
f 386/129/241 388/130/241 389/30/241 387/31/241
f 388/130/242 390/131/242 391/33/242 389/30/242
f 390/131/243 392/132/243 393/35/243 391/33/243
f 392/132/244 394/133/244 395/37/244 393/35/244
f 394/133/245 396/81/245 397/39/245 395/37/245
f 396/81/246 398/134/246 399/42/246 397/39/246
f 398/134/247 400/135/247 401/45/247 399/42/247
f 400/135/248 402/136/248 403/47/248 401/45/248
f 402/136/249 404/100/249 405/49/249 403/47/249
f 404/100/250 406/137/250 407/60/250 405/49/250
f 406/137/251 408/138/251 409/139/251 407/60/251
f 408/138/252 410/140/252 411/141/252 409/139/252
f 410/140/253 412/86/253 413/142/253 411/141/253
f 412/86/254 414/143/254 415/144/254 413/142/254
f 414/143/255 416/145/255 417/146/255 415/144/255
f 359/147/16 361/148/16 363/149/16 365/150/16 367/151/16 369/152/16 371/153/16 373/154/16 375/155/16 377/156/16 379/157/16 381/158/16 383/159/16 385/160/16 387/161/16 389/162/16 391/163/16 393/164/16 395/165/16 397/166/16 399/167/16 401/168/16 403/169/16 405/170/16 407/171/16 409/172/16 411/173/16 413/174/16 415/175/16 417/176/16 419/177/16 357/178/16
f 416/145/256 418/179/256 419/180/256 417/146/256
f 418/179/257 356/181/257 357/182/257 419/180/257
f 356/183/45 418/184/45 416/185/45 414/186/45 412/187/45 410/188/45 408/189/45 406/190/45 404/191/45 402/192/45 400/193/45 398/194/45 396/195/45 394/196/45 392/197/45 390/198/45 388/199/45 386/200/45 384/201/45 382/202/45 380/203/45 378/204/45 376/205/45 374/206/45 372/207/45 370/208/45 368/209/45 366/210/45 364/211/45 362/212/45 360/213/45 358/214/45
f 422/7/3 421/7/3 420/7/3 423/7/3
f 215/7/258 422/7/258 423/7/258 217/7/258
f 217/7/45 423/7/45 420/7/45 216/7/45
f 426/7/3 425/7/3 424/7/3 427/7/3
f 100/74/259 424/74/259 425/7/259 80/7/259
f 99/7/260 426/7/260 427/7/260 101/7/260
f 99/7/17 432/7/17 434/7/17 426/7/17
f 422/7/3 430/7/3 431/7/3 421/7/3
f 429/7/16 431/7/16 430/7/16 428/7/16
f 421/7/17 431/7/17 429/7/17 196/7/17
f 196/7/71 429/7/71 428/7/71 215/7/71
f 215/7/76 428/7/76 430/7/76 422/7/76
f 433/7/45 435/7/45 434/7/45 432/7/45
f 80/7/71 433/7/71 432/7/71 99/7/71
f 425/7/76 435/7/76 433/7/76 80/7/76
f 426/7/3 434/7/3 435/7/3 425/7/3
f 216/7/71 196/7/71 215/7/71 217/7/71
f 100/7/71 80/7/71 99/7/71 101/7/71
l 17 20
l 50 75
l 87 106
l 103 107
l 104 108
l 105 109
l 133 136
l 166 191
l 203 222
l 219 223
l 220 224
l 221 225
l 53 75
l 169 191
l 9 10
