g tsh_gun_305_barrel_001
v -0.22567426 0.31063125 0.8977228
v -0.33589524 0.1091539 4.6479845
v -0.36515564 0.11865249 0.8977252
v -0.20758621 0.28575394 4.6479845
v 1.0604858E-05 0.38396072 0.89772034
v 2.1057129E-05 0.3532109 4.6479845
v 0.2256952 0.31063125 0.89772034
v 0.20762771 0.28575394 4.6479845
v 0.36517558 0.11865127 0.89772034
v 0.33593613 0.109152675 4.6479845
v -0.36515564 0.11865249 0.8977252
v -0.3358961 -0.10913711 4.647987
v -0.36515635 -0.11864593 0.8977252
v -0.33589524 0.1091539 4.6479845
v -0.20758773 -0.28573883 4.647987
v -0.36515635 -0.11864593 0.8977252
v -0.3358961 -0.10913711 4.647987
v -0.22567551 -0.310625 0.8977252
v 1.9226074E-05 -0.35319397 4.647987
v 8.7738035E-06 -0.38395447 0.8977252
v 0.20762573 -0.28573883 4.6479845
v 0.22569275 -0.310625 0.8977252
v 0.3359358 -0.10913849 4.6479845
v 0.36517516 -0.11864761 0.89772034
v 0.36517516 -0.11864761 0.89772034
v 0.33593613 0.109152675 4.6479845
v 0.36517558 0.11865127 0.89772034
v 0.3359358 -0.10913849 4.6479845
v -0.20542236 0.28280625 1.7341751
v -0.24125226 0.078434296 6.7009296
v -0.3324014 0.10803665 1.7341751
v -0.14908324 0.20529373 6.7009296
v -0.27841827 0.09051102 6.8658957
v 3.1814576E-05 0.34956375 1.7341751
v -0.17205276 0.23691024 6.8658957
v 5.0354003E-05 0.25374985 6.7009296
v 0.20548537 0.28280714 1.7341751
v 5.1116942E-05 0.29283005 6.8658957
v 0.14918135 0.20529464 6.7009296
v 0.33246306 0.10803726 1.7341751
v 0.1721521 0.23691024 6.8658957
v 0.2413507 0.0784346 6.7009296
v 0.27851745 0.090510406 6.8658934
v -0.3324014 0.10803665 1.7341751
v -0.24125272 -0.078373104 6.7009296
v -0.33240172 -0.10798996 1.7341775
v -0.24125226 0.078434296 6.7009296
v -0.27841857 -0.090448 6.8658957
v -0.27841827 0.09051102 6.8658957
v 0.20548278 -0.2827597 1.7341775
v 0.24135055 -0.078373104 6.7009296
v 0.3324626 -0.1079895 1.7341775
v 0.14917968 -0.205233 6.7009296
v 0.2785173 -0.09044876 6.8658934
v 2.9678344E-05 -0.3495166 1.7341775
v 0.17214996 -0.23684815 6.8658957
v 4.8828122E-05 -0.25368896 6.7009296
v -0.20542417 -0.2827597 1.7341775
v 4.928589E-05 -0.29276702 6.8658957
v -0.14908385 -0.205233 6.7009335
v -0.33240172 -0.10798996 1.7341775
v -0.17205337 -0.23684815 6.865898
v -0.24125272 -0.078373104 6.7009296
v -0.27841857 -0.090448 6.8658957
v 0.3324626 -0.1079895 1.7341775
v 0.2413507 0.0784346 6.7009296
v 0.33246306 0.10803726 1.7341751
v 0.24135055 -0.078373104 6.7009296
v 0.27851745 0.090510406 6.8658934
v 0.2785173 -0.09044876 6.8658934
v -0.2843399 0.39137435 -1.345787
v -0.42321178 0.13752487 2.404477
v -0.46007797 0.14949264 -1.3457851
v -0.26155013 0.36003035 2.404477
v 9.384156E-06 0.4837651 -1.3457879
v 2.2583008E-05 0.4450221 2.404477
v 0.2843576 0.39137435 -1.3457879
v 0.2615936 0.36003035 2.404477
v 0.4600946 0.14949112 -1.3457876
v 0.42325437 0.13752365 2.404477
v -0.46007797 0.14949264 -1.3457851
v -0.42321274 -0.13750869 2.4044783
v -0.46007887 -0.14948913 -1.3457851
v -0.42321178 0.13752487 2.404477
v -0.26155213 -0.3600154 2.4044783
v -0.46007887 -0.14948913 -1.3457851
v -0.42321274 -0.13750869 2.4044783
v -0.28434154 -0.39137116 -1.3457859
v 2.01416E-05 -0.44500533 2.4044783
v 7.095338E-06 -0.48376173 -1.3457859
v 0.26159117 -0.3600154 2.404477
v 0.2843547 -0.39137116 -1.3457859
v 0.42325404 -0.13751023 2.404477
v 0.46009395 -0.14949112 -1.3457876
v 0.46009395 -0.14949112 -1.3457876
v 0.42325437 0.13752365 2.404477
v 0.4600946 0.14949112 -1.3457876
v 0.42325404 -0.13751023 2.404477
v -0.37880763 0.52139205 -3.673349
v -0.5638151 0.18321152 1.0565763
v -0.61292875 0.19915512 -3.6733475
v -0.3484469 0.479637 1.0565763
v 7.171631E-06 0.6444768 -3.6733518
v 2.4261473E-05 0.59286267 1.0565763
v 0.37882033 0.52139205 -3.6733518
v 0.3484936 0.479637 1.0565763
v 0.6129397 0.19915298 -3.6733518
v 0.5638604 0.18320937 1.0565759
v -0.61292875 0.19915512 -3.6733475
v -0.5638161 -0.18319213 1.056579
v -0.6129297 -0.19915314 -3.6733468
v -0.5638151 0.18321152 1.0565763
v -0.34844956 -0.4796196 1.056579
v -0.6129297 -0.19915314 -3.6733468
v -0.5638161 -0.18319213 1.056579
v -0.3788104 -0.52139187 -3.673347
v 2.1057129E-05 -0.59284425 1.056579
v 4.1198728E-06 -0.6444766 -3.673347
v 0.34849045 -0.4796196 1.0565763
v 0.37881652 -0.52139187 -3.673347
v 0.5638602 -0.18319412 1.0565759
v 0.61293876 -0.19915573 -3.6733508
v 0.61293876 -0.19915573 -3.6733508
v 0.5638604 0.18320937 1.0565759
v 0.6129397 0.19915298 -3.6733518
v 0.5638602 -0.18319412 1.0565759
v -0.20758621 0.28575394 4.6479845
v 2.1057129E-05 0.3532109 4.6479845
v 1.9989013E-05 8.2397455E-06 4.842804
v -0.33589524 0.1091539 4.6479845
v 0.20762771 0.28575394 4.6479845
v -0.3358961 -0.10913711 4.647987
v 0.33593613 0.109152675 4.6479845
v -0.20758773 -0.28573883 4.647987
v 0.3359358 -0.10913849 4.6479845
v 1.9226074E-05 -0.35319397 4.647987
v 0.20762573 -0.28573883 4.6479845
v -0.26155013 0.36003035 2.404477
v 2.2583008E-05 0.4450221 2.404477
v 2.1057129E-05 8.087158E-06 2.5992956
v -0.42321178 0.13752487 2.404477
v 0.2615936 0.36003035 2.404477
v -0.42321274 -0.13750869 2.4044783
v 0.42325437 0.13752365 2.404477
v -0.26155213 -0.3600154 2.4044783
v 0.42325404 -0.13751023 2.404477
v 2.01416E-05 -0.44500533 2.4044783
v 0.26159117 -0.3600154 2.404477
v -0.3484469 0.479637 1.0565763
v 2.4261473E-05 0.59286267 1.0565763
v 2.2125243E-05 9.460449E-06 1.3022866
v -0.5638151 0.18321152 1.0565763
v 0.3484936 0.479637 1.0565763
v -0.5638161 -0.18319213 1.056579
v 0.5638604 0.18320937 1.0565759
v -0.34844956 -0.4796196 1.056579
v 0.5638602 -0.18319412 1.0565759
v 2.1057129E-05 -0.59284425 1.056579
v 0.34849045 -0.4796196 1.0565763
v -0.09835769 0.13165115 6.916912
v 5.1116942E-05 0.29283005 6.8658957
v -0.0013399504 0.16317397 6.916912
v -0.17205276 0.23691024 6.8658957
v 0.1721521 0.23691024 6.8658957
v -0.15831801 0.04912338 6.916917
v 0.09567688 0.13165115 6.916912
v -0.27841827 0.09051102 6.8658957
v 0.27851745 0.090510406 6.8658934
v -0.15831801 -0.052886505 6.916917
v 0.15563674 0.04912338 6.916912
v -0.27841857 -0.090448 6.8658957
v 0.2785173 -0.09044876 6.8658934
v -0.09835799 -0.13541503 6.916917
v 0.1556366 -0.052886505 6.916912
v -0.17205337 -0.23684815 6.865898
v 0.17214996 -0.23684815 6.8658957
v -0.0013405608 -0.16693725 6.916917
v 0.09567657 -0.13541503 6.916917
v 4.928589E-05 -0.29276702 6.8658957
v -0.15831801 0.04912338 6.916917
v 3.0059813E-05 2.3193359E-05 5.079218
v -0.15831801 -0.052886505 6.916917
v 0.1556366 -0.052886505 6.916912
v 3.0059813E-05 2.3193359E-05 5.079218
v 0.15563674 0.04912338 6.916912
v -0.09835769 0.13165115 6.916912
v 3.0059813E-05 2.3193359E-05 5.079218
v -0.15831801 0.04912338 6.916917
v -0.0013399504 0.16317397 6.916912
v 0.09567688 0.13165115 6.916912
v 0.15563674 0.04912338 6.916912
v -0.15831801 -0.052886505 6.916917
v 3.0059813E-05 2.3193359E-05 5.079218
v -0.09835799 -0.13541503 6.916917
v -0.0013405608 -0.16693725 6.916917
v 0.09567657 -0.13541503 6.916917
v 0.1556366 -0.052886505 6.916912
vt 0.49772117 0.37652773
vt 0.49660826 0.33568856
vt 0.49631286 0.37652767
vt 0.49790376 0.33568856
vt 0.49999985 0.37652773
vt 0.49999994 0.33568856
vt 0.5022785 0.37652773
vt 0.50209606 0.33568856
vt 0.50368685 0.37652773
vt 0.50339156 0.33568856
vt 0.62347233 0.51282007
vt 0.66431147 0.5087561
vt 0.62347233 0.50858647
vt 0.6643114 0.51265055
vt 0.5020963 0.33568853
vt 0.50368714 0.37652767
vt 0.50339174 0.33568853
vt 0.50227886 0.37652767
vt 0.5000001 0.33568853
vt 0.5000002 0.37652767
vt 0.49790394 0.33568856
vt 0.4977215 0.37652767
vt 0.49660844 0.33568856
vt 0.49631315 0.37652773
vt 0.37652773 0.50858647
vt 0.33568856 0.51265055
vt 0.37652773 0.51282
vt 0.33568856 0.5087561
vt 0.49792564 0.367419
vt 0.49756384 0.31333265
vt 0.49664354 0.367419
vt 0.49849445 0.31333265
vt 0.49718857 0.3115362
vt 0.50000006 0.367419
vt 0.49826252 0.3115362
vt 0.50000024 0.31333265
vt 0.5020745 0.367419
vt 0.50000024 0.3115362
vt 0.501506 0.31333265
vt 0.5033565 0.367419
vt 0.5017379 0.3115362
vt 0.5024366 0.31333265
vt 0.50281185 0.31153622
vt 0.632581 0.51263064
vt 0.6866673 0.50930494
vt 0.632581 0.5087766
vt 0.6866673 0.5121025
vt 0.6884638 0.5090895
vt 0.6884638 0.51231796
vt 0.49792558 0.367419
vt 0.49756342 0.31333265
vt 0.49664348 0.367419
vt 0.4984941 0.31333265
vt 0.49718815 0.31153622
vt 0.49999994 0.367419
vt 0.49826217 0.3115362
vt 0.49999982 0.31333265
vt 0.50207436 0.367419
vt 0.49999982 0.3115362
vt 0.50150555 0.3133326
vt 0.50335646 0.367419
vt 0.5017375 0.3115362
vt 0.50243616 0.31333265
vt 0.50281143 0.3115362
vt 0.367419 0.5087766
vt 0.31333265 0.5121025
vt 0.367419 0.51263064
vt 0.31333265 0.50930494
vt 0.31153622 0.51231796
vt 0.31153622 0.5090895
vt 0.49712884 0.40095884
vt 0.49572664 0.36011964
vt 0.49535444 0.4009588
vt 0.49735892 0.36011964
vt 0.49999985 0.40095884
vt 0.49999997 0.36011964
vt 0.50287086 0.40095884
vt 0.50264096 0.36011964
vt 0.5046452 0.40095884
vt 0.50427324 0.36011964
vt 0.5990412 0.5133703
vt 0.63988036 0.50824994
vt 0.5990412 0.5080362
vt 0.63988036 0.5131567
vt 0.5026411 0.36011964
vt 0.5046456 0.4009588
vt 0.50427336 0.36011964
vt 0.50287116 0.4009588
vt 0.50000006 0.36011964
vt 0.5000002 0.4009588
vt 0.49735904 0.36011964
vt 0.4971292 0.4009588
vt 0.49572676 0.36011964
vt 0.49535477 0.40095884
vt 0.40095884 0.5080362
vt 0.36011964 0.5131567
vt 0.40095884 0.5133702
vt 0.36011964 0.50824994
vt 0.49617502 0.42630523
vt 0.494307 0.37479785
vt 0.49381116 0.4263052
vt 0.49648154 0.37479785
vt 0.49999982 0.42630526
vt 0.49999997 0.37479785
vt 0.50382465 0.42630526
vt 0.5035184 0.37479785
vt 0.50618845 0.42630526
vt 0.5056929 0.37479785
vt 0.5736948 0.5142563
vt 0.6252022 0.5074349
vt 0.5736948 0.5071502
vt 0.6252022 0.5139718
vt 0.50351846 0.37479782
vt 0.50618887 0.4263052
vt 0.50569296 0.37479782
vt 0.503825 0.4263052
vt 0.50000006 0.37479782
vt 0.50000024 0.4263052
vt 0.49648166 0.37479785
vt 0.4961754 0.4263052
vt 0.4943071 0.37479785
vt 0.49381155 0.42630523
vt 0.42630523 0.5071501
vt 0.37479785 0.5139718
vt 0.42630526 0.51425624
vt 0.37479785 0.5074349
vt 0.49790376 0.51580125
vt 0.49999994 0.5170047
vt 0.4999999 0.5107033
vt 0.49660826 0.51265055
vt 0.50209606 0.51580125
vt 0.49660826 0.5087561
vt 0.50339156 0.51265055
vt 0.49790373 0.5056054
vt 0.50339156 0.5087561
vt 0.4999999 0.504402
vt 0.50209606 0.5056054
vt 0.49735892 0.5171264
vt 0.49999997 0.51864266
vt 0.49999994 0.5107033
vt 0.49572664 0.5131567
vt 0.50264096 0.5171264
vt 0.49572664 0.50824994
vt 0.50427324 0.5131567
vt 0.4973589 0.50428027
vt 0.50427324 0.50824994
vt 0.49999994 0.502764
vt 0.50264096 0.50428027
vt 0.49648154 0.5192602
vt 0.49999997 0.5212803
vt 0.49999997 0.5107034
vt 0.494307 0.5139718
vt 0.5035184 0.5192602
vt 0.494307 0.5074349
vt 0.5056929 0.5139718
vt 0.4964815 0.5021465
vt 0.5056929 0.5074349
vt 0.49999994 0.5001265
vt 0.50351834 0.5021465
vt 0.4990066 0.5130519
vt 0.50000024 0.5159275
vt 0.49998617 0.5136143
vt 0.49826252 0.51492983
vt 0.5017379 0.51492983
vt 0.4984012 0.5115796
vt 0.5009657 0.5130519
vt 0.49718857 0.51231796
vt 0.50281185 0.51231796
vt 0.4984012 0.50975966
vt 0.5015711 0.5115796
vt 0.49718857 0.5090895
vt 0.50281185 0.5090895
vt 0.4990066 0.5082873
vt 0.5015711 0.50975966
vt 0.49826252 0.50647765
vt 0.50173783 0.50647765
vt 0.49998617 0.5077249
vt 0.5009657 0.5082873
vt 0.5000002 0.50548005
vt 0.31098062 0.5115796
vt 0.33099255 0.5107036
vt 0.31098062 0.50975966
vt 0.6890193 0.50975966
vt 0.6690074 0.5107036
vt 0.6890193 0.5115796
vt 0.5009934 0.31098065
vt 0.5 0.33099255
vt 0.50159883 0.31098062
vt 0.5000138 0.31098065
vt 0.4990343 0.31098065
vt 0.49842888 0.31098065
vt 0.4984012 0.31098062
vt 0.5 0.33099255
vt 0.4990066 0.31098062
vt 0.49998617 0.31098062
vt 0.5009657 0.31098062
vt 0.5015711 0.31098065
vn -0.58776325 0.8089914 0.008201198
vn -0.95102316 0.30901065 0.00820288
vn -0.9510236 0.3090096 0.008202734
vn -0.58776474 0.80899036 0.008201124
vn 3.7964554E-07 0.9999664 0.008199262
vn 8.863054E-07 0.9999664 0.008199291
vn 0.5877673 0.8089885 0.008197894
vn 0.58776844 0.80898774 0.008197931
vn 0.9510254 0.30900392 0.008197574
vn 0.9510248 0.30900615 0.008197431
vn -0.9510236 0.3090096 0.008202734
vn -0.95102507 -0.30900508 0.008203596
vn -0.95102495 -0.3090051 0.00820354
vn -0.95102316 0.30901065 0.00820288
vn -0.5877647 -0.80899036 0.008203189
vn -0.95102495 -0.3090051 0.00820354
vn -0.95102507 -0.30900508 0.008203596
vn -0.5877663 -0.8089893 0.0082032485
vn -3.0871328E-07 -0.9999664 0.008201863
vn -3.3718453E-07 -0.9999664 0.008201879
vn 0.58776087 -0.80899316 0.008199996
vn 0.58776367 -0.80899113 0.00819992
vn 0.95102304 -0.30901128 0.008198283
vn 0.95102346 -0.30901006 0.008198293
vn 0.95102346 -0.30901006 0.008198293
vn 0.9510248 0.30900615 0.008197431
vn 0.9510254 0.30900392 0.008197574
vn 0.95102304 -0.30901128 0.008198283
vn -0.5876764 0.8088661 0.01928961
vn -0.945372 0.3071718 -0.10916616
vn -0.950878 0.30896387 0.019291807
vn -0.58427113 0.80418235 -0.109168984
vn -0.92544377 0.3006971 -0.23051047
vn -2.0825787E-06 0.999814 0.019287327
vn -0.5719539 0.7872307 -0.23051387
vn -4.2630168E-07 0.9940229 -0.10917226
vn 0.58767676 0.80886585 0.019285476
vn 1.6675627E-06 0.9730684 -0.2305162
vn 0.58427125 0.8041819 -0.109172046
vn 0.95087963 0.30895942 0.019284826
vn 0.57195616 0.7872291 -0.2305136
vn 0.94537175 0.30717015 -0.1091727
vn 0.9254427 0.30069596 -0.23051605
vn -0.950878 0.30896387 0.019291807
vn -0.94537306 -0.30716956 -0.10916332
vn -0.9508801 -0.30895764 0.01929269
vn -0.945372 0.3071718 -0.10916616
vn -0.9254455 -0.3006947 -0.23050676
vn -0.92544377 0.3006971 -0.23051047
vn 0.58767456 -0.8088675 0.019287566
vn 0.94537026 -0.30717477 -0.10917223
vn 0.9508784 -0.3089633 0.01928563
vn 0.58426934 -0.80418384 -0.10916839
vn 0.9254414 -0.30070066 -0.23051506
vn -1.3892196E-07 -0.999814 0.019290194
vn 0.5719514 -0.78723377 -0.2305092
vn -0 -0.99402374 -0.10916396
vn -0.58767784 -0.808865 0.019292077
vn -1.9489507E-06 -0.97307056 -0.2305072
vn -0.5842718 -0.8041821 -0.10916726
vn -0.9508801 -0.30895764 0.01929269
vn -0.57195514 -0.78723127 -0.23050852
vn -0.94537306 -0.30716956 -0.10916332
vn -0.9254455 -0.3006947 -0.23050676
vn 0.9508784 -0.3089633 0.01928563
vn 0.94537175 0.30717015 -0.1091727
vn 0.95087963 0.30895942 0.019284826
vn 0.94537026 -0.30717477 -0.10917223
vn 0.9254427 0.30069596 -0.23051605
vn 0.9254414 -0.30070066 -0.23051506
vn -0.58775276 0.8089746 0.0103328
vn -0.9510044 0.3090047 0.010334893
vn -0.9510049 0.309003 0.010334728
vn -0.5877531 0.8089744 0.01033272
vn -0 0.9999467 0.010330382
vn 1.4433743E-06 0.9999467 0.010330428
vn 0.58775586 0.8089724 0.010328664
vn 0.58775705 0.8089716 0.010328717
vn 0.95100677 0.3089976 0.01032829
vn 0.9510059 0.3090002 0.01032809
vn -0.9510049 0.309003 0.010334728
vn -0.9510061 -0.3089994 0.010335793
vn -0.95100623 -0.30899903 0.010335802
vn -0.9510044 0.3090047 0.010334893
vn -0.5877534 -0.80897415 0.010335391
vn -0.95100623 -0.30899903 0.010335802
vn -0.9510061 -0.3089994 0.010335793
vn -0.5877545 -0.8089734 0.010335441
vn 8.560696E-07 -0.9999466 0.010333741
vn -3.2420766E-07 -0.9999466 0.010333755
vn 0.58775055 -0.80897623 0.010331369
vn 0.5877509 -0.808976 0.010331302
vn 0.95100427 -0.30900538 0.010329216
vn 0.95100415 -0.3090054 0.01032919
vn 0.95100415 -0.3090054 0.01032919
vn 0.9510059 0.3090002 0.01032809
vn 0.95100677 0.3089976 0.01032829
vn 0.95100427 -0.30900538 0.010329216
vn -0.5877484 0.8089701 0.010914109
vn -0.95099866 0.3090023 0.010916409
vn -0.9509988 0.30900192 0.0109163625
vn -0.58774775 0.8089706 0.010914108
vn 5.997593E-07 0.9999405 0.010911612
vn 1.4631129E-06 0.9999405 0.010911624
vn 0.5877517 0.80896777 0.010909873
vn 0.587752 0.80896765 0.0109098675
vn 0.95100063 0.30899668 0.0109095005
vn 0.95100015 0.30899784 0.010909393
vn -0.9509988 0.30900192 0.0109163625
vn -0.95100015 -0.3089973 0.0109175155
vn -0.9510005 -0.3089967 0.010917517
vn -0.95099866 0.3090023 0.010916409
vn -0.5877502 -0.80896884 0.010917087
vn -0.9510005 -0.3089967 0.010917517
vn -0.95100015 -0.3089973 0.0109175155
vn -0.5877516 -0.80896777 0.0109171765
vn 5.076111E-07 -0.9999404 0.010915381
vn -0 -0.9999404 0.010915365
vn 0.5877468 -0.8089714 0.01091289
vn 0.58774835 -0.80897015 0.010912756
vn 0.95099854 -0.30900282 0.010910542
vn 0.95099854 -0.30900282 0.010910565
vn 0.95099854 -0.30900282 0.010910565
vn 0.95100015 0.30899784 0.010909393
vn 0.95100063 0.30899668 0.0109095005
vn 0.95099854 -0.30900282 0.010910542
vn -0.28388965 0.3907407 0.87563026
vn 3.8965314E-07 0.48298028 0.8756313
vn 1.493115E-06 2.5430106E-06 1
vn -0.4593396 0.1492563 0.875631
vn 0.2838903 0.3907389 0.8756308
vn -0.45933878 -0.1492414 0.8756339
vn 0.45934162 0.14924864 0.8756313
vn -0.28388563 -0.39073527 0.875634
vn 0.45934027 -0.14925118 0.8756316
vn 5.344609E-06 -0.48297596 0.87563354
vn 0.28389153 -0.3907381 0.8756308
vn -0.23572338 0.3244454 0.916062
vn 5.150339E-07 0.40103492 0.9160627
vn 9.916629E-07 1.4689185E-06 1
vn -0.38140604 0.123930864 0.91606253
vn 0.23572414 0.32444417 0.9160623
vn -0.3814053 -0.12392257 0.916064
vn 0.38140738 0.12392647 0.91606253
vn -0.23572092 -0.324442 0.9160639
vn 0.3814063 -0.12392864 0.9160627
vn 2.8560833E-06 -0.40103275 0.9160637
vn 0.23572402 -0.3244446 0.9160621
vn -0.22504705 0.30975187 0.92380065
vn 4.3947725E-07 0.38287306 0.92380095
vn 1.3363153E-06 1.9904362E-06 1
vn -0.36413217 0.11831907 0.92380106
vn 0.2250481 0.30975014 0.92380095
vn -0.3641312 -0.11830874 0.9238027
vn 0.3641342 0.118313424 0.92380095
vn -0.22504468 -0.3097472 0.9238028
vn 0.3641331 -0.11831535 0.9238012
vn 3.785355E-06 -0.38286918 0.9238026
vn 0.2250494 -0.30974963 0.9238009
vn -0.21823603 0.29765832 0.9293937
vn 0.00056874723 0.36614394 0.93055797
vn -0.0009863225 0.36615852 0.930552
vn -0.21616599 0.29912636 0.92940617
vn 0.21457617 0.295326 0.93098855
vn -0.3550316 0.11362503 0.92792344
vn 0.21457647 0.29532993 0.9309872
vn -0.35420147 0.116088375 0.9279358
vn 0.34806255 0.113683246 0.93055284
vn -0.3570608 -0.11710567 0.92671126
vn 0.34855703 0.11221582 0.9305459
vn -0.35755047 -0.11554031 0.92671895
vn 0.35128903 -0.113154456 0.9294042
vn -0.22154646 -0.3049252 0.9262494
vn 0.35054606 -0.11559407 0.9293844
vn -0.22154388 -0.3049261 0.92624956
vn 0.21986528 -0.30098152 0.9279382
vn -0.0010325304 -0.3757691 0.9267127
vn 0.21779624 -0.30254185 0.92791873
vn 0.00060501735 -0.37575692 0.926718
vn 0.9472837 -0.30754203 0.089841105
vn -0.00071388524 -0.0010733014 0.99999917
vn 0.9471122 0.3078845 0.09047372
vn -0.9472029 0.30801445 0.08907246
vn -0.00071388524 -0.0010733014 0.99999917
vn -0.9473746 -0.30766845 0.08843931
vn 0.5856401 -0.8056635 0.089061424
vn -0.00071388524 -0.0010733014 0.99999917
vn 0.9472837 -0.30754203 0.089841105
vn 0.000140511 -0.9960821 0.088432446
vn -0.5854965 -0.8058632 0.08819476
vn -0.9473746 -0.30766845 0.08843931
vn 0.9471122 0.3078845 0.09047372
vn -0.00071388524 -0.0010733014 0.99999917
vn 0.5853597 0.8056825 0.09071813
vn 0.00014140841 0.9958982 0.09048043
vn -0.5852147 0.8058848 0.08985224
vn -0.9472029 0.30801445 0.08907246
g tsh_gun_305_barrel_001_0
f 3/3/3 2/2/2 1/1/1
f 4/4/4 1/1/1 2/2/2
f 1/1/1 4/4/4 5/5/5
f 6/6/6 5/5/5 4/4/4
f 5/5/5 6/6/6 7/7/7
f 8/8/8 7/7/7 6/6/6
f 7/7/7 8/8/8 9/9/9
f 10/10/10 9/9/9 8/8/8
f 13/13/13 12/12/12 11/11/11
f 14/14/14 11/11/11 12/12/12
f 17/17/17 16/16/16 15/15/15
f 18/18/18 15/15/15 16/16/16
f 15/15/15 18/18/18 19/19/19
f 20/20/20 19/19/19 18/18/18
f 19/19/19 20/20/20 21/21/21
f 22/22/22 21/21/21 20/20/20
f 21/21/21 22/22/22 23/23/23
f 24/24/24 23/23/23 22/22/22
f 27/27/27 26/26/26 25/25/25
f 28/28/28 25/25/25 26/26/26
f 31/31/31 30/30/30 29/29/29
f 32/32/32 29/29/29 30/30/30
f 30/30/30 33/33/33 32/32/32
f 29/29/29 32/32/32 34/34/34
f 35/35/35 32/32/32 33/33/33
f 36/36/36 34/34/34 32/32/32
f 32/32/32 35/35/35 36/36/36
f 34/34/34 36/36/36 37/37/37
f 38/38/38 36/36/36 35/35/35
f 39/39/39 37/37/37 36/36/36
f 36/36/36 38/38/38 39/39/39
f 37/37/37 39/39/39 40/40/40
f 41/41/41 39/39/39 38/38/38
f 42/42/42 40/40/40 39/39/39
f 39/39/39 41/41/41 42/42/42
f 43/43/43 42/42/42 41/41/41
f 46/46/46 45/45/45 44/44/44
f 47/47/47 44/44/44 45/45/45
f 45/45/45 48/48/48 47/47/47
f 49/49/49 47/47/47 48/48/48
f 52/52/52 51/51/51 50/50/50
f 53/53/53 50/50/50 51/51/51
f 51/51/51 54/54/54 53/53/53
f 50/50/50 53/53/53 55/55/55
f 56/56/56 53/53/53 54/54/54
f 57/57/57 55/55/55 53/53/53
f 53/53/53 56/56/56 57/57/57
f 55/55/55 57/57/57 58/58/58
f 59/59/59 57/57/57 56/56/56
f 60/60/60 58/58/58 57/57/57
f 57/57/57 59/59/59 60/60/60
f 58/58/58 60/60/60 61/61/61
f 62/62/62 60/60/60 59/59/59
f 63/63/63 61/61/61 60/60/60
f 60/60/60 62/62/62 63/63/63
f 64/64/64 63/63/63 62/62/62
f 67/67/67 66/66/66 65/65/65
f 68/68/68 65/65/65 66/66/66
f 66/66/66 69/69/69 68/68/68
f 70/70/70 68/68/68 69/69/69
f 73/73/73 72/72/72 71/71/71
f 74/74/74 71/71/71 72/72/72
f 71/71/71 74/74/74 75/75/75
f 76/76/76 75/75/75 74/74/74
f 75/75/75 76/76/76 77/77/77
f 78/78/78 77/77/77 76/76/76
f 77/77/77 78/78/78 79/79/79
f 80/80/80 79/79/79 78/78/78
f 83/83/83 82/82/82 81/81/81
f 84/84/84 81/81/81 82/82/82
f 87/87/87 86/86/86 85/85/85
f 88/88/88 85/85/85 86/86/86
f 85/85/85 88/88/88 89/89/89
f 90/90/90 89/89/89 88/88/88
f 89/89/89 90/90/90 91/91/91
f 92/92/92 91/91/91 90/90/90
f 91/91/91 92/92/92 93/93/93
f 94/94/94 93/93/93 92/92/92
f 97/97/97 96/96/96 95/95/95
f 98/98/98 95/95/95 96/96/96
f 101/101/101 100/100/100 99/99/99
f 102/102/102 99/99/99 100/100/100
f 99/99/99 102/102/102 103/103/103
f 104/104/104 103/103/103 102/102/102
f 103/103/103 104/104/104 105/105/105
f 106/106/106 105/105/105 104/104/104
f 105/105/105 106/106/106 107/107/107
f 108/108/108 107/107/107 106/106/106
f 111/111/111 110/110/110 109/109/109
f 112/112/112 109/109/109 110/110/110
f 115/115/115 114/114/114 113/113/113
f 116/116/116 113/113/113 114/114/114
f 113/113/113 116/116/116 117/117/117
f 118/118/118 117/117/117 116/116/116
f 117/117/117 118/118/118 119/119/119
f 120/120/120 119/119/119 118/118/118
f 119/119/119 120/120/120 121/121/121
f 122/122/122 121/121/121 120/120/120
f 125/125/125 124/124/124 123/123/123
f 126/126/126 123/123/123 124/124/124
f 129/129/129 128/128/128 127/127/127
f 129/129/129 127/127/127 130/130/130
f 129/129/129 131/131/131 128/128/128
f 129/129/129 130/130/130 132/132/132
f 129/129/129 133/133/133 131/131/131
f 129/129/129 132/132/132 134/134/134
f 129/129/129 135/135/135 133/133/133
f 129/129/129 134/134/134 136/136/136
f 129/129/129 137/137/137 135/135/135
f 129/129/129 136/136/136 137/137/137
f 140/140/140 139/139/139 138/138/138
f 140/140/140 138/138/138 141/141/141
f 140/140/140 142/142/142 139/139/139
f 140/140/140 141/141/141 143/143/143
f 140/140/140 144/144/144 142/142/142
f 140/140/140 143/143/143 145/145/145
f 140/140/140 146/146/146 144/144/144
f 140/140/140 145/145/145 147/147/147
f 140/140/140 148/148/148 146/146/146
f 140/140/140 147/147/147 148/148/148
f 151/151/151 150/150/150 149/149/149
f 151/151/151 149/149/149 152/152/152
f 151/151/151 153/153/153 150/150/150
f 151/151/151 152/152/152 154/154/154
f 151/151/151 155/155/155 153/153/153
f 151/151/151 154/154/154 156/156/156
f 151/151/151 157/157/157 155/155/155
f 151/151/151 156/156/156 158/158/158
f 151/151/151 159/159/159 157/157/157
f 151/151/151 158/158/158 159/159/159
g tsh_gun_305_barrel_001_1
f 162/162/162 161/161/161 160/160/160
f 163/163/163 160/160/160 161/161/161
f 161/161/161 162/162/162 164/164/164
f 160/160/160 163/163/163 165/165/165
f 166/166/166 164/164/164 162/162/162
f 167/167/167 165/165/165 163/163/163
f 164/164/164 166/166/166 168/168/168
f 165/165/165 167/167/167 169/169/169
f 170/170/170 168/168/168 166/166/166
f 171/171/171 169/169/169 167/167/167
f 168/168/168 170/170/170 172/172/172
f 169/169/169 171/171/171 173/173/173
f 174/174/174 172/172/172 170/170/170
f 175/175/175 173/173/173 171/171/171
f 172/172/172 174/174/174 176/176/176
f 173/173/173 175/175/175 177/177/177
f 178/178/178 176/176/176 174/174/174
f 179/179/179 177/177/177 175/175/175
f 176/176/176 178/178/178 179/179/179
f 177/177/177 179/179/179 178/178/178
g tsh_gun_305_barrel_001_2
f 182/182/182 181/181/181 180/180/180
f 185/185/185 184/184/184 183/183/183
f 188/188/188 187/187/187 186/186/186
f 186/186/186 187/187/187 189/189/189
f 190/190/190 189/189/189 187/187/187
f 190/190/190 187/187/187 191/191/191
f 194/194/194 193/193/193 192/192/192
f 195/195/195 193/193/193 194/194/194
f 196/196/196 193/193/193 195/195/195
f 197/197/197 193/193/193 196/196/196
