# Blender 4.5.3 LTS
# www.blender.org
mtllib USSR_gun_152_x4_001.mtl
o USSR_gun_152_x4_001
v 1.726449 -0.000000 -0.996767
v 0.996766 0.417550 -1.726450
v 0.996766 -0.000000 -1.726450
v 1.726449 0.417550 -0.996767
v 1.993533 -0.000001 -0.000000
v 1.993533 0.417549 0.000000
v 1.726449 -0.000001 0.996768
v 1.726449 0.417549 0.996768
v 0.996764 -0.000001 1.726451
v 0.996764 0.417549 1.726450
v -0.000000 0.417550 -1.993533
v 0.996766 -0.000000 -1.726450
v 0.996766 0.417550 -1.726450
v -0.000000 -0.000000 -1.993533
v -0.996766 0.417550 -1.726450
v -0.996766 -0.000000 -1.726450
v -1.726450 0.417550 -0.996767
v -0.996766 -0.000000 -1.726450
v -0.996766 0.417550 -1.726450
v -1.726450 -0.000000 -0.996767
v -1.993533 0.417550 -0.000000
v -1.993533 -0.000000 -0.000000
v -1.726451 0.417549 0.996766
v -1.726451 -0.000001 0.996766
v -0.996767 0.417549 1.726450
v -0.996767 -0.000001 1.726450
v -0.000001 0.417549 1.993533
v -0.996767 -0.000001 1.726450
v -0.996767 0.417549 1.726450
v -0.000001 -0.000001 1.993533
v 0.996764 0.417549 1.726450
v 0.996764 -0.000001 1.726451
v 3.010463 1.220680 -4.576900
v 0.000000 0.417550 -4.576901
v 3.046115 0.417551 -4.576901
v 0.000000 1.220679 -4.576901
v -3.025161 1.220679 -4.576901
v 0.000000 0.417550 -4.576901
v -3.060813 0.417550 -4.576902
v 0.000000 2.674500 -0.000000
v 3.514154 2.800001 -3.230524
v 0.000000 2.800000 -4.399088
v 3.023953 2.800002 -4.399087
v -3.528852 2.800000 -3.230524
v -3.038651 2.800000 -4.399087
v 3.496346 0.417551 1.682169
v 3.109202 2.527342 1.682170
v 3.901298 0.417551 -2.572837
v 2.413362 2.450624 2.559049
v 2.276574 2.477040 2.257118
v 1.974025 2.488983 2.120610
v 0.000000 2.617911 0.590847
v 1.671476 2.477040 2.257118
v 1.534688 2.450624 2.559050
v -3.123901 2.527341 1.682170
v -1.988722 2.488982 2.120610
v -2.291272 2.477039 2.257118
v -2.428059 2.450623 2.559049
v -2.655860 2.450623 2.559049
v -1.686173 2.477039 2.257118
v -1.549387 2.450625 2.559049
v 0.297452 2.524314 1.800000
v 0.160664 2.450624 2.559050
v 0.600001 2.527300 1.682170
v 0.902550 2.524314 1.800000
v 2.641162 2.450624 2.559048
v 2.413362 1.220674 3.046226
v 2.413362 2.450624 2.559049
v 2.641163 1.220673 3.046226
v 2.780444 0.417550 3.046226
v 2.641163 1.220673 3.046226
v 2.641162 2.450624 2.559048
v 2.413362 1.220674 3.046226
v 2.641163 1.220673 3.046226
v 2.780444 0.417550 3.046226
v 1.534688 1.220674 3.046226
v 0.000000 0.417549 3.046226
v 1.039338 1.454484 3.046230
v 0.160664 1.454484 3.046230
v -1.549390 1.220672 3.046230
v -2.795142 0.417549 3.046226
v -2.428059 1.220672 3.046227
v -2.655860 1.220672 3.046226
v 3.400001 1.528911 1.306792
v 0.000000 1.673067 1.306792
v 3.400001 1.673069 1.306792
v 0.000000 1.528908 1.306792
v -3.400001 1.528909 1.306792
v -3.400001 1.673067 1.306792
v 3.400001 1.456817 1.181937
v 0.000000 1.528908 1.306792
v 3.400001 1.528911 1.306792
v 0.000000 1.456815 1.181937
v 3.400001 1.528911 1.057082
v 0.000000 1.528908 1.057082
v -3.400001 1.528909 1.057082
v -3.400001 1.456815 1.181937
v -3.400001 1.528909 1.306792
v 3.400001 1.673069 1.057082
v 0.000000 1.528908 1.057082
v 3.400001 1.528911 1.057082
v 0.000000 1.673067 1.057082
v -3.400001 1.673067 1.057082
v -3.400001 1.528909 1.057082
v 3.400001 1.745148 1.181937
v 0.000000 1.673067 1.057082
v 3.400001 1.673069 1.057082
v 0.000000 1.745146 1.181937
v 3.400001 1.673069 1.306792
v 0.000000 1.673067 1.306792
v -3.400001 1.673067 1.306792
v -3.400001 1.745146 1.181937
v -3.400001 1.673067 1.057082
v 3.400001 1.673069 1.306792
v 3.400001 1.456817 1.181937
v 3.400001 1.528911 1.306792
v 3.400001 1.673069 1.057082
v 3.400001 1.745148 1.181937
v 3.400001 1.528911 1.057082
v 2.763072 2.496702 -0.477990
v 2.646504 2.975406 -0.679892
v 2.646504 2.496702 -0.679892
v 2.763072 2.975406 -0.477990
v 2.646504 2.496702 -0.276087
v 2.646504 2.975406 -0.276087
v 2.646504 2.496702 -0.679892
v 2.413367 2.975406 -0.679892
v 2.413367 2.496702 -0.679892
v 2.646504 2.975406 -0.679892
v 2.296798 2.975406 -0.477990
v 2.413367 2.496702 -0.679892
v 2.413367 2.975406 -0.679892
v 2.296798 2.496702 -0.477990
v 2.413367 2.975406 -0.276087
v 2.413367 2.496702 -0.276087
v 2.413367 2.496702 -0.276087
v 2.646504 2.975406 -0.276087
v 2.646504 2.496702 -0.276087
v 2.413367 2.975406 -0.276087
v 3.088378 1.220680 -4.399087
v 3.023953 2.800002 -4.399087
v 3.901298 0.417551 -2.572837
v 3.046115 0.417551 -4.576901
v 3.010463 1.220680 -4.576900
v 0.000000 2.800000 -4.399088
v 3.088378 1.220680 -4.399087
v 3.023953 2.800002 -4.399087
v 0.000000 1.220679 -4.399088
v -3.103076 1.220679 -4.399087
v -3.038651 2.800000 -4.399087
v 0.000000 1.220679 -4.399088
v 3.010463 1.220680 -4.576900
v 3.088378 1.220680 -4.399087
v 0.000000 1.220679 -4.576901
v -3.025161 1.220679 -4.576901
v -3.103076 1.220679 -4.399087
v 1.785035 1.267082 -4.576874
v 0.539673 2.417277 -4.576874
v 0.539671 1.267083 -4.576874
v 1.785035 2.417277 -4.576874
v 1.785035 1.267082 -4.399090
v 1.785035 2.417277 -4.576874
v 1.785035 1.267082 -4.576874
v 1.785035 2.417277 -4.399090
v 1.785035 2.417277 -4.399090
v 0.539673 2.417277 -4.576874
v 1.785035 2.417277 -4.576874
v 0.539673 2.417277 -4.399090
v 0.539673 2.417277 -4.399090
v 0.539671 1.267083 -4.576874
v 0.539673 2.417277 -4.576874
v 0.539671 1.267082 -4.399091
v 0.539671 1.267082 -4.399091
v 1.785035 1.267082 -4.576874
v 0.539671 1.267083 -4.576874
v 1.785035 1.267082 -4.399090
v -3.511045 0.417549 1.682170
v -3.915996 0.417550 -2.572837
v -2.428059 1.220672 3.046227
v -2.655860 1.220672 3.046226
v -2.795142 0.417549 3.046226
v -3.400001 1.673067 1.057082
v -3.400001 1.456815 1.181937
v -3.400001 1.528909 1.057082
v -3.400001 1.673067 1.306792
v -3.400001 1.745146 1.181937
v -3.400001 1.528909 1.306792
v -2.661201 2.975404 -0.679892
v -2.777770 2.496701 -0.477990
v -2.661201 2.496701 -0.679892
v -2.777770 2.975404 -0.477990
v -2.661201 2.496701 -0.276087
v -2.661201 2.975404 -0.276087
v -2.661201 2.496701 -0.679892
v -2.428064 2.975404 -0.679892
v -2.661201 2.975404 -0.679892
v -2.428064 2.496701 -0.679892
v -2.428064 2.496701 -0.679892
v -2.311495 2.975404 -0.477990
v -2.428064 2.975404 -0.679892
v -2.311495 2.496701 -0.477990
v -2.428064 2.975404 -0.276087
v -2.428064 2.496701 -0.276087
v -2.428064 2.496701 -0.276087
v -2.661201 2.975404 -0.276087
v -2.428064 2.975404 -0.276087
v -2.661201 2.496701 -0.276087
v -3.103076 1.220679 -4.399087
v -3.038651 2.800000 -4.399087
v -3.060813 0.417550 -4.576902
v -3.025161 1.220679 -4.576901
v -1.800738 1.267081 -4.576874
v -0.555375 2.417276 -4.576874
v -1.800738 2.417276 -4.576874
v -0.555373 1.267081 -4.576874
v -1.800738 1.267081 -4.399091
v -1.800738 2.417276 -4.576874
v -1.800738 2.417276 -4.399091
v -1.800738 1.267081 -4.576874
v -1.800738 2.417276 -4.399091
v -0.555375 2.417276 -4.576874
v -0.555375 2.417276 -4.399091
v -1.800738 2.417276 -4.576874
v -0.555375 2.417276 -4.399091
v -0.555373 1.267081 -4.576874
v -0.555373 1.267081 -4.399092
v -0.555375 2.417276 -4.576874
v -0.555373 1.267081 -4.399092
v -1.800738 1.267081 -4.576874
v -1.800738 1.267081 -4.399091
v -0.555373 1.267081 -4.576874
v 0.160664 2.450624 2.559050
v 1.534688 2.450624 2.559050
v 1.039338 2.450625 2.559050
v 2.763072 2.975406 -0.477990
v 2.646504 2.975406 -0.276087
v 2.529935 3.068188 -0.477990
v 2.646504 2.975406 -0.679892
v 2.413367 2.975406 -0.276087
v 2.413367 2.975406 -0.679892
v 2.296798 2.975406 -0.477990
v -2.777770 2.975404 -0.477990
v -2.544632 3.068186 -0.477989
v -2.661201 2.975404 -0.276087
v -2.661201 2.975404 -0.679892
v -2.428064 2.975404 -0.276087
v -2.428064 2.975404 -0.679892
v -2.311495 2.975404 -0.477990
v 2.780444 0.417550 3.046226
v 0.000000 0.417550 -4.576901
v 3.901298 0.417551 -2.572837
v 3.046115 0.417551 -4.576901
v 2.276574 2.477040 2.257118
v 2.413362 2.326535 2.500000
v 2.276574 2.352951 2.257118
v 2.413362 2.450624 2.559049
v 2.413362 1.220674 3.046226
v 2.413362 1.220674 1.718258
v 2.413362 2.326535 2.500000
v 2.413362 2.326537 1.718258
v 2.276574 2.352951 2.257118
v 1.974025 2.488983 2.120610
v 2.276574 2.477040 2.257118
v 1.974025 2.364894 2.120610
v 1.671476 2.477040 2.257118
v 1.671476 2.352951 2.257118
v 1.671476 2.352951 2.257118
v 1.534688 2.450624 2.559050
v 1.671476 2.477040 2.257118
v 1.534688 2.326535 2.500000
v 1.534688 2.326537 1.718258
v 1.534688 1.220674 1.718258
v 1.534688 2.326535 2.500000
v 2.413362 1.220674 3.046226
v 1.534688 1.220674 1.718258
v 2.413362 1.220674 1.718258
v -2.795142 0.417549 3.046226
v 0.000000 0.417550 -4.576901
v -3.060813 0.417550 -4.576902
v -2.428059 2.326534 2.500000
v -2.428059 1.220672 3.046227
v -2.428059 2.326534 2.500000
v -2.428059 1.220673 1.718258
v -2.428059 2.326535 1.718258
v -2.291272 2.352950 2.257118
v -1.988722 2.364893 2.120610
v -1.686174 2.352950 2.257118
v -1.686174 2.352950 2.257118
v -1.549387 2.326536 2.500000
v -1.549387 2.326535 1.718258
v -1.549387 2.326536 2.500000
v -1.549387 1.220673 1.718258
v -2.428059 1.220672 3.046227
v -1.549387 1.220673 1.718258
v -2.428059 1.220673 1.718258
v 0.902550 2.524314 1.800000
v 1.039338 2.326536 2.500000
v 0.902550 2.420768 1.800000
v 1.039338 2.450625 2.559050
v 1.039338 1.454484 1.347030
v 1.039338 2.326536 2.500000
v 1.039338 2.394354 1.347030
v 0.902550 2.420768 1.800000
v 0.600001 2.432712 1.690832
v 0.297452 2.524314 1.800000
v 0.297452 2.420768 1.800000
v 0.297452 2.420768 1.800000
v 0.160664 2.450624 2.559050
v 0.297452 2.524314 1.800000
v 0.160664 2.326536 2.500000
v 0.160664 2.394354 1.347030
v 0.160664 1.454484 1.347030
v 0.160664 2.326536 2.500000
v 0.160664 1.454484 1.347030
v 1.039338 1.454484 1.347030
v 2.276574 2.352951 2.257118
v 2.413362 2.326535 2.500000
v 2.413362 2.326537 1.718258
v 1.974025 2.364894 2.120610
v 2.276574 2.352951 2.257118
v 2.413362 2.326537 1.718258
v 1.534688 2.326535 2.500000
v 1.671476 2.352951 2.257118
v 1.534688 2.326537 1.718258
v 1.671476 2.352951 2.257118
v 1.974025 2.364894 2.120610
v 1.534688 2.326537 1.718258
v 1.974025 2.364894 2.120610
v 2.413362 2.326537 1.718258
v 1.534688 2.326537 1.718258
v -2.291272 2.352950 2.257118
v -2.428059 2.326535 1.718258
v -2.428059 2.326534 2.500000
v -1.988722 2.364893 2.120610
v -2.428059 2.326535 1.718258
v -2.291272 2.352950 2.257118
v -1.549387 2.326536 2.500000
v -1.549387 2.326535 1.718258
v -1.686174 2.352950 2.257118
v -1.686174 2.352950 2.257118
v -1.549387 2.326535 1.718258
v -1.988722 2.364893 2.120610
v -1.988722 2.364893 2.120610
v -1.549387 2.326535 1.718258
v -2.428059 2.326535 1.718258
v 0.600001 2.432712 1.690832
v 0.902550 2.420768 1.800000
v 1.039338 2.394354 1.347030
v 0.297452 2.420768 1.800000
v 0.600001 2.432712 1.690832
v 0.160664 2.394354 1.347030
v 0.600001 2.432712 1.690832
v 1.039338 2.394354 1.347030
v 0.160664 2.394354 1.347030
v 1.534688 2.326537 1.718258
v 2.413362 1.220674 1.718258
v 1.534688 1.220674 1.718258
v 2.413362 2.326537 1.718258
v -1.549387 2.326535 1.718258
v -2.428059 1.220673 1.718258
v -2.428059 2.326535 1.718258
v -1.549387 1.220673 1.718258
v 0.160664 2.394354 1.347030
v 1.039338 1.454484 1.347030
v 0.160664 1.454484 1.347030
v 1.039338 2.394354 1.347030
v 3.268230 2.674502 -0.000000
v -3.282929 2.674500 -0.000000
v -0.902548 2.524310 1.800000
v -1.039336 2.450624 2.559050
v -0.599999 2.527300 1.682170
v -0.297450 2.524310 1.800000
v -0.160662 1.454484 3.046230
v -1.039336 1.454484 3.046230
v -0.160662 2.450624 2.559050
v -0.297450 2.524310 1.800000
v -0.160662 2.326536 2.500000
v -0.297450 2.420768 1.800000
v -0.160662 2.450624 2.559050
v -0.160662 1.454484 1.347030
v -0.160662 2.326536 2.500000
v -0.160662 2.394354 1.347030
v -0.297450 2.420768 1.800000
v -0.297450 2.524310 1.800000
v -0.599999 2.432712 1.690832
v -0.902548 2.420768 1.800000
v -0.902548 2.420768 1.800000
v -1.039336 2.326536 2.500000
v -1.039336 2.394354 1.347030
v -1.039336 1.454484 1.347030
v -1.039336 2.326536 2.500000
v -1.039336 1.454484 1.347030
v -0.160662 1.454484 1.347030
v -0.599999 2.432712 1.690832
v -0.297450 2.420768 1.800000
v -0.160662 2.394354 1.347030
v -0.902548 2.420768 1.800000
v -0.599999 2.432712 1.690832
v -1.039336 2.394354 1.347030
v -0.599999 2.432712 1.690832
v -0.160662 2.394354 1.347030
v -1.039336 2.394354 1.347030
v -1.039336 2.394354 1.347030
v -0.160662 1.454484 1.347030
v -1.039336 1.454484 1.347030
v -0.160662 2.394354 1.347030
v -1.000040 2.375670 2.162760
v -1.000040 2.489090 2.162760
v -0.199976 2.489090 2.162760
v -0.200025 2.375670 2.162760
v 0.200025 2.375670 2.162760
v 0.199976 2.489090 2.162760
v 1.000040 2.375670 2.162760
v 1.000040 2.489090 2.162760
v -0.902548 2.524310 1.800000
v 0.297452 2.524314 1.800000
v 0.600001 2.527300 1.682170
v 0.600001 2.527300 1.682170
v 0.600001 2.527300 1.682170
v 0.600001 2.527300 1.682170
v 0.902550 2.524314 1.800000
v 0.902550 2.524314 1.800000
v 0.902550 2.524314 1.800000
v 0.902550 2.420768 1.800000
v 0.600001 2.432712 1.690832
v 0.297452 2.524314 1.800000
v 0.297452 2.524314 1.800000
v -0.902548 2.524310 1.800000
v -0.902548 2.524310 1.800000
v -0.599999 2.527300 1.682170
v -0.599999 2.527300 1.682170
v -0.599999 2.527300 1.682170
v -0.297450 2.524310 1.800000
v -0.297450 2.420768 1.800000
v -0.599999 2.432712 1.690832
v -0.297450 2.524310 1.800000
v -0.297450 2.524310 1.800000
v 2.413362 2.450624 2.559049
v 2.413362 2.450624 2.559049
v 2.413362 2.450624 2.559049
v 1.974025 2.488983 2.120610
v 1.974025 2.488983 2.120610
v 2.276574 2.477040 2.257118
v 2.276574 2.477040 2.257118
v 2.276574 2.477040 2.257118
v 1.974025 2.488983 2.120610
v 2.276574 2.477040 2.257118
v 1.974025 2.488983 2.120610
v 2.276574 2.477040 2.257118
v 2.276574 2.477040 2.257118
v 3.109202 2.527342 1.682170
v 1.974025 2.488983 2.120610
v 1.974025 2.488983 2.120610
v 1.974025 2.488983 2.120610
v 1.974025 2.488983 2.120610
v 1.974025 2.488983 2.120610
v 1.974025 2.488983 2.120610
vn 0.7071 -0.0000 -0.7071
vn 0.8660 -0.0000 -0.5000
vn 0.9659 -0.0000 -0.2588
vn 0.9659 -0.0000 0.2588
vn 0.7071 -0.0000 0.7071
vn 0.2588 -0.0000 -0.9659
vn -0.2588 -0.0000 -0.9659
vn -0.8660 -0.0000 -0.5000
vn -0.8841 -0.0000 -0.4673
vn -0.7071 -0.0000 -0.7071
vn -0.9659 -0.0000 -0.2588
vn -0.9659 -0.0000 0.2588
vn -0.7071 -0.0000 0.7071
vn -0.2588 -0.0000 0.9659
vn 0.2588 -0.0000 0.9659
vn -0.0000 -0.0000 -1.0000
vn -0.0000 0.9981 0.0613
vn -0.0038 0.9997 0.0223
vn -0.0000 0.9997 0.0227
vn -0.0000 1.0000 -0.0000
vn 0.0038 0.9997 0.0223
vn -0.0010 0.9961 0.0878
vn -0.0005 0.9980 0.0627
vn -0.0000 0.9962 0.0872
vn -0.0000 0.3683 0.9297
vn 0.9463 0.1713 0.2742
vn 0.9437 0.1766 0.2798
vn 0.8766 0.1574 0.4547
vn 0.8770 0.1591 0.4534
vn 0.8595 0.1882 0.4752
vn -0.0000 -0.0000 1.0000
vn -0.0230 0.1004 0.9947
vn -0.0000 -0.8660 0.5000
vn -0.0000 -0.8660 -0.5000
vn -0.0000 0.8660 -0.5000
vn -0.0000 0.8660 0.5000
vn 1.0000 -0.0000 -0.0000
vn 0.8660 -0.0000 0.5000
vn -0.8660 -0.0000 0.5000
vn 0.9215 0.0376 -0.3866
vn 0.9204 0.0396 -0.3889
vn 0.9184 0.0398 -0.3936
vn 0.9193 0.0406 -0.3914
vn 0.9185 0.0388 -0.3935
vn 0.9152 0.0406 -0.4010
vn -1.0000 -0.0000 -0.0000
vn -0.0000 -1.0000 -0.0000
vn 0.9802 0.1754 0.0916
vn -0.9748 0.0976 -0.2004
vn -0.9862 0.1240 -0.1097
vn -0.9463 0.1713 0.2742
vn -0.9437 0.1766 0.2798
vn -0.9802 0.1754 0.0916
vn -0.0000 0.3682 0.9298
vn -0.0000 0.1875 0.9823
vn -0.8595 0.1882 0.4752
vn -0.8770 0.1591 0.4534
vn -0.8766 0.1574 0.4547
vn -0.9215 0.0376 -0.3866
vn -0.9184 0.0398 -0.3936
vn -0.9185 0.0388 -0.3935
vn -0.9152 0.0406 -0.4010
vn 0.1849 0.9291 0.3202
vn 0.3698 0.9291 -0.0000
vn 0.1849 0.9291 -0.3202
vn -0.1849 0.9291 0.3202
vn -0.1849 0.9291 -0.3202
vn -0.3698 0.9291 -0.0000
vn -0.8713 -0.0000 0.4907
vn -0.9787 -0.0686 0.1933
vn -0.8838 -0.0529 0.4649
vn -0.9634 -0.1152 0.2420
vn -0.4113 -0.0000 0.9115
vn 0.4113 -0.0000 0.9115
vn 0.9109 -0.0000 0.4127
vn 0.8798 -0.1561 0.4491
vn 0.9033 -0.0514 0.4259
vn 0.8601 -0.2192 0.4606
vn -0.9109 -0.0000 0.4127
vn -0.9033 -0.0514 0.4259
vn -0.8798 -0.1561 0.4491
vn -0.8601 -0.2192 0.4606
vn 0.9823 -0.0121 0.1868
vn 0.9844 -0.0140 0.1756
vn 0.9657 -0.0000 0.2595
vn -0.9988 -0.0120 0.0483
vn -0.9981 -0.0149 0.0598
vn -0.3629 -0.0000 0.9318
vn -0.3351 0.0859 0.9382
vn 0.3609 0.0851 0.9287
vn 0.3435 0.0155 0.9390
vn 0.3570 0.0688 0.9316
vn 0.3394 -0.0000 0.9406
vn -0.9823 -0.0121 0.1868
vn -0.9844 -0.0140 0.1756
vn -0.9844 -0.0138 0.1756
vn -0.9823 -0.0119 0.1868
vn -0.9658 0.0002 0.2595
vn 0.9988 -0.0119 0.0484
vn 0.9981 -0.0148 0.0598
vn -0.1896 -0.9819 -0.0000
vn -0.0551 -0.9979 0.0349
vn 0.1896 -0.9819 -0.0000
vn 0.0551 -0.9979 0.0349
vn -0.0000 -0.9955 0.0949
vn -0.2361 -0.9716 -0.0146
vn -0.1832 -0.9831 0.0020
vn -0.0544 -0.9976 0.0417
vn 0.2362 -0.9716 -0.0147
vn 0.0544 -0.9976 0.0417
vn 0.1832 -0.9831 0.0020
vn -0.0000 -0.9938 0.1109
vn 0.0005 0.9980 0.0627
vn 0.0008 0.9962 0.0876
vn 0.9844 -0.0138 0.1756
vn 0.9823 -0.0119 0.1868
vn 0.9658 0.0002 0.2595
vn -0.9988 -0.0119 0.0484
vn -0.9981 -0.0148 0.0598
vn -0.9657 -0.0000 0.2595
vn 0.9988 -0.0120 0.0483
vn 0.9981 -0.0149 0.0598
vn -0.2362 -0.9716 -0.0147
vn 0.2361 -0.9716 -0.0146
vn -0.0000 0.1499 0.9887
vn -0.0392 0.1709 0.9845
vn 0.0482 0.2041 0.9778
vn -0.0000 0.9953 0.0966
vn -0.0000 0.4393 0.8983
vn -0.0915 0.3993 0.9122
vn 0.5964 -0.8013 -0.0471
vn 0.3160 -0.9480 -0.0370
vn 0.5702 -0.8202 -0.0463
vn 0.3047 -0.9518 -0.0365
vn -0.3160 -0.9480 -0.0370
vn -0.5964 -0.8013 -0.0471
vn -0.5702 -0.8202 -0.0463
vn -0.3047 -0.9518 -0.0365
vn 0.5971 -0.8008 -0.0471
vn 0.3159 -0.9481 -0.0369
vn 0.5708 -0.8198 -0.0463
vn 0.3046 -0.9518 -0.0365
vn -0.3159 -0.9481 -0.0369
vn -0.5970 -0.8008 -0.0471
vn -0.5707 -0.8198 -0.0463
vn -0.3046 -0.9518 -0.0365
vn 0.0942 0.3992 0.9120
vn 0.9728 -0.0536 0.2252
vn 0.0007 0.9963 0.0855
vn 0.8928 -0.1043 0.4382
vn -0.0026 0.9962 0.0870
vn -0.0156 0.9970 0.0764
vn -0.0268 0.9980 0.0572
vn 0.0008 0.9970 0.0778
vn 0.0284 0.9948 0.0982
vn -0.0088 0.9971 0.0750
vn -0.0000 0.9972 0.0748
vn -0.0184 0.9972 0.0727
vn 0.0092 0.9971 0.0749
vn -0.0000 0.9970 0.0772
vn 0.0185 0.9972 0.0726
vn -0.0284 0.9948 0.0982
vn -0.0120 0.9952 0.0969
vn 0.0013 0.9965 0.0834
vn -0.0003 0.9970 0.0774
vn -0.0009 0.9964 0.0852
vn -0.0009 0.9964 0.0851
vn 0.0034 0.9960 0.0895
vn 0.0038 0.9955 0.0944
vn 0.0036 0.9955 0.0942
vn 0.0044 0.9954 0.0955
vn 0.0028 0.9957 0.0929
vn -0.0037 0.9955 0.0944
vn -0.0044 0.9954 0.0955
vn -0.0027 0.9957 0.0929
vt 1.711945 0.500000
vt 1.711945 0.506325
vt 1.700887 0.500000
vt 1.700887 0.506325
vt 1.685781 0.500000
vt 1.685781 0.506325
vt 1.670676 0.500000
vt 1.670676 0.506325
vt 1.659618 0.500000
vt 1.659618 0.506325
vt 0.484873 0.506325
vt 0.484873 0.500000
vt 0.499998 0.506325
vt 0.499998 0.500000
vt 0.515123 0.506325
vt 0.515123 0.500000
vt -0.700887 0.500000
vt -0.700887 0.506325
vt -0.711945 0.500000
vt -0.685781 0.506325
vt -0.685781 0.500000
vt -0.670676 0.506325
vt -0.670676 0.500000
vt -0.659618 0.506325
vt -0.659618 0.500000
vt 0.484877 0.506325
vt 0.484877 0.500000
vt 0.500002 0.506325
vt 0.500002 0.500000
vt 0.515127 0.506325
vt 0.515127 0.500000
vt 0.471515 0.506325
vt 0.499998 0.506325
vt 0.472056 0.518490
vt 0.499998 0.518490
vt 0.527940 0.518490
vt 0.528481 0.506325
vt 0.500002 1.685781
vt 0.533786 1.726271
vt 0.500002 1.739102
vt 0.528149 1.739102
vt 0.466218 1.726271
vt 0.471855 1.739102
vt 0.533786 1.660289
vt 0.324164 1.008279
vt 0.500002 1.660289
vt 0.525028 0.537121
vt 0.525028 0.518490
vt 0.528485 0.537121
vt 0.528485 0.518490
vt 1.660289 0.506325
vt 1.660289 0.538283
vt 1.639617 0.506325
vt 1.639617 0.518490
vt 1.647000 0.537121
vt 0.530598 0.506325
vt 0.511695 0.518490
vt 0.474976 0.518490
vt 0.469406 0.506325
vt 0.488309 0.518490
vt 0.471519 0.518490
vt 0.537475 0.525343
vt 0.500002 0.525343
vt 0.537475 0.523159
vt 0.500002 0.523159
vt 0.462529 0.523159
vt 0.462529 0.525343
vt 0.462525 1.662670
vt 0.499998 1.662670
vt 0.462525 1.664562
vt 0.499998 1.664562
vt 0.462525 1.666454
vt 0.499998 1.666454
vt 0.537471 1.666454
vt 0.537471 1.664562
vt 0.537471 1.662670
vt 0.462525 0.523159
vt 0.499998 0.523159
vt 0.462525 0.525343
vt 0.499998 0.525343
vt 0.537471 0.525343
vt 0.537471 0.523159
vt 0.537475 1.666454
vt 0.500002 1.666454
vt 0.537475 1.664562
vt 0.500002 1.664562
vt 0.537475 1.662670
vt 0.500002 1.662670
vt 0.462529 1.662670
vt 0.462529 1.664562
vt 0.462529 1.666454
vt 1.662670 0.523159
vt 1.664562 0.522067
vt 1.662670 0.525343
vt 1.666454 0.525343
vt 1.664562 0.526434
vt 1.666454 0.523159
vt 1.696085 0.537818
vt 1.696085 0.545070
vt 1.693025 0.537818
vt 1.693025 0.545070
vt 1.689965 0.537818
vt 1.689965 0.545070
vt 0.474972 0.537818
vt 0.474972 0.545070
vt 0.471434 0.537818
vt 0.471434 0.545070
vt -0.696085 0.545070
vt -0.696085 0.537818
vt -0.693025 0.545070
vt -0.693025 0.537818
vt -0.689965 0.545070
vt -0.689965 0.537818
vt 0.528566 0.537818
vt 0.528566 0.545070
vt 0.525028 0.537818
vt 0.525028 0.545070
vt 1.739102 0.540512
vt 1.726271 0.540512
vt 1.739102 0.518490
vt 1.716304 0.506325
vt 1.741796 0.506325
vt 1.741796 0.518490
vt 0.471851 0.540512
vt 0.470874 0.518490
vt 0.499998 0.540512
vt 0.529122 0.518490
vt 0.528145 0.540512
vt 0.529126 1.739102
vt 0.527944 1.741796
vt 0.500002 1.741796
vt 0.472060 1.741796
vt 0.470878 1.739102
vt 0.499556 0.519193
vt 0.499556 0.536615
vt 0.480659 0.519193
vt 0.480659 0.536615
vt 1.741796 0.519193
vt 1.741796 0.536615
vt 1.739102 0.519193
vt 1.739102 0.536615
vt 0.519341 1.741796
vt 0.500444 1.741796
vt 0.519341 1.739102
vt 0.500444 1.739102
vt -0.741796 0.536615
vt -0.741796 0.519193
vt -0.739102 0.536615
vt -0.739102 0.519193
vt 0.499556 1.741796
vt 0.480659 1.741796
vt 0.499556 1.739102
vt 0.480659 1.739102
vt 0.000000 0.000000
vt 1.008279 0.326894
vt -0.726271 0.540512
vt 0.539657 1.716304
vt -0.660289 0.506325
vt -0.660289 0.538283
vt -0.676869 0.538843
vt -0.647000 0.537121
vt -0.639617 0.518490
vt -0.639617 0.506325
vt -0.666454 0.523159
vt -0.664562 0.522067
vt -0.666454 0.525343
vt -0.662670 0.525343
vt -0.664562 0.526434
vt -0.662670 0.523159
vt 0.528562 0.545070
vt 0.525024 0.545070
vt 0.528562 0.537818
vt 0.525024 0.537818
vt 0.474976 0.545070
vt 0.471438 0.545070
vt 0.474976 0.537818
vt 0.471438 0.537818
vt -0.739102 0.540512
vt -0.739102 0.518490
vt -0.716304 0.506325
vt -0.741796 0.506325
vt -0.741796 0.518490
vt 0.519337 0.536615
vt 0.500440 0.536615
vt 0.519337 0.519193
vt 0.500440 0.519193
vt -0.739102 0.536615
vt 0.499560 1.739102
vt 0.499560 1.741796
vt 0.480663 1.739102
vt 0.480663 1.741796
vt 1.739102 0.519193
vt 0.519337 1.739102
vt 0.519337 1.741796
vt 0.500440 1.739102
vt 0.500440 1.741796
vt 0.526797 1.693025
vt 0.528566 1.689965
vt 0.530335 1.693025
vt 0.528566 1.696085
vt 0.525028 1.689965
vt 0.525028 1.696085
vt 0.523260 1.693025
vt 0.471438 1.689965
vt 0.473207 1.693025
vt 0.469669 1.693025
vt 0.471438 1.696085
vt 0.474976 1.689965
vt 0.474976 1.696085
vt 0.476744 1.693025
vt 0.499998 1.639617
vt 0.460339 1.660289
vt 0.469402 1.639617
vt 0.499998 1.741796
vt 0.460339 1.716304
vt 0.471515 1.741796
vt -0.651575 0.535641
vt -0.647000 0.535241
vt -0.651575 0.537521
vt -0.659742 0.518490
vt -0.659742 0.535241
vt 0.522953 0.537521
vt 0.518362 0.537702
vt 0.522953 0.535641
vt 0.518362 0.535822
vt 0.513771 0.537521
vt 0.513771 0.535641
vt 1.651575 0.537521
vt 1.651575 0.535641
vt 1.647000 0.535241
vt 1.659742 0.518490
vt 1.659742 0.535241
vt 0.525028 1.659742
vt 0.511695 1.659742
vt 0.525028 1.639617
vt 0.511695 1.639617
vt 0.539657 1.660289
vt 0.530594 1.639617
vt 0.528481 1.741796
vt 1.639617 0.518490
vt 0.477051 0.537521
vt 0.477051 0.535641
vt 0.481642 0.537702
vt 0.481642 0.535822
vt 0.486233 0.537521
vt 0.486233 0.535641
vt 0.488309 1.639617
vt 0.488309 1.659742
vt 0.474976 1.639617
vt 0.474976 1.659742
vt 1.649344 0.537326
vt 1.648987 0.535415
vt 0.504593 0.537521
vt 0.500003 0.537702
vt 0.504593 0.535641
vt 0.500003 0.535822
vt 0.495412 0.537521
vt 0.495412 0.535641
vt -0.649233 0.537316
vt -0.649138 0.535428
vt -0.649265 0.535439
vt -0.649389 0.537329
vt 0.506669 1.659742
vt 0.493336 1.659742
vt 0.506669 1.639617
vt 0.493336 1.639617
vt 0.474972 1.659742
vt 0.474972 1.647000
vt 0.477047 1.651575
vt 0.481638 1.653644
vt 0.488305 1.659742
vt 0.486229 1.651575
vt 0.488305 1.647000
vt 0.525024 1.647000
vt 0.525024 1.659742
vt 0.522949 1.651575
vt 0.518358 1.653644
vt 0.513767 1.651575
vt 0.511691 1.659742
vt 0.511691 1.647000
vt 0.493331 1.659742
vt 0.495407 1.651575
vt 0.499997 1.653644
vt 0.506664 1.659742
vt 0.504588 1.651575
vt 0.511695 0.518490
vt 0.525028 0.518490
vt 0.511695 0.535241
vt 0.525028 0.535241
vt 0.474976 0.535241
vt 0.474976 0.518490
vt 0.488309 0.535241
vt 0.488309 0.518490
vt 0.493336 0.518490
vt 0.506669 0.518490
vt 0.493336 0.535241
vt 0.506669 0.535241
vt 0.466218 1.660289
vt 1.649041 0.535419
vt 1.649193 0.537312
vt 1.000000 0.000000
vt 1.000000 1.000000
s 1
f 3/1/1 2/2/1 1/3/2
f 4/4/2 1/3/2 2/2/1
f 1/3/2 4/4/2 5/5/3
f 6/6/3 5/5/3 4/4/2
f 5/5/4 6/6/4 7/7/4
f 8/8/4 7/7/4 6/6/4
f 7/7/5 8/8/5 9/9/5
f 10/10/5 9/9/5 8/8/5
f 13/11/6 12/12/6 11/13/6
f 14/14/6 11/13/6 12/12/6
f 11/13/7 14/14/7 15/15/7
f 16/16/7 15/15/7 14/14/7
f 20/17/8 17/18/9 18/19/10
f 17/18/9 20/17/8 21/20/11
f 22/21/11 21/20/11 20/17/8
f 21/20/12 22/21/12 23/22/12
f 24/23/12 23/22/12 22/21/12
f 23/22/13 24/23/13 25/24/13
f 26/25/13 25/24/13 24/23/13
f 29/26/14 28/27/14 27/28/14
f 30/29/14 27/28/14 28/27/14
f 27/28/15 30/29/15 31/30/15
f 32/31/15 31/30/15 30/29/15
f 35/32/16 34/33/16 33/34/16
f 36/35/16 33/34/16 34/33/16
f 36/35/16 38/33/16 37/36/16
f 39/37/16 37/36/16 38/33/16
f 40/38/17 41/39/18 42/40/19
f 43/41/20 42/40/19 41/39/18
f 40/38/17 42/40/19 44/42/21
f 45/43/20 44/42/21 42/40/19
f 47/44/22 367/45/23 40/38/17 52/46/24
f 68/47/25 67/48/25 66/49/25
f 69/50/25 66/49/25 67/48/25
f 46/51/26 47/52/27 70/53/28
f 70/53/28 47/52/27 71/54/29
f 47/52/27 72/55/30 71/54/29
f 75/56/31 74/50/31 73/48/31
f 73/48/31 76/57/31 75/56/31
f 82/58/31 81/59/31 80/60/32
f 83/61/31 81/59/31 82/58/31
f 86/62/31 85/63/31 84/64/31
f 87/65/31 84/64/31 85/63/31
f 87/65/31 85/63/31 88/66/31
f 89/67/31 88/66/31 85/63/31
f 92/68/33 91/69/33 90/70/33
f 93/71/33 90/70/33 91/69/33
f 90/70/34 93/71/34 94/72/34
f 95/73/34 94/72/34 93/71/34
f 95/73/34 93/71/34 96/74/34
f 97/75/34 96/74/34 93/71/34
f 93/71/33 91/69/33 97/75/33
f 98/76/33 97/75/33 91/69/33
f 101/77/16 100/78/16 99/79/16
f 102/80/16 99/79/16 100/78/16
f 102/80/16 100/78/16 103/81/16
f 104/82/16 103/81/16 100/78/16
f 107/83/35 106/84/35 105/85/35
f 108/86/35 105/85/35 106/84/35
f 105/85/36 108/86/36 109/87/36
f 110/88/36 109/87/36 108/86/36
f 110/88/36 108/86/36 111/89/36
f 112/90/36 111/89/36 108/86/36
f 108/86/35 106/84/35 112/90/35
f 113/91/35 112/90/35 106/84/35
f 116/92/37 115/93/37 114/94/37
f 115/93/37 117/95/37 114/94/37
f 114/94/37 117/95/37 118/96/37
f 119/97/37 117/95/37 115/93/37
f 122/98/2 121/99/2 120/100/2
f 123/101/2 120/100/2 121/99/2
f 120/100/38 123/101/38 124/102/38
f 125/103/38 124/102/38 123/101/38
f 128/104/16 127/105/16 126/106/16
f 129/107/16 126/106/16 127/105/16
f 132/108/8 131/109/8 130/110/8
f 133/111/8 130/110/8 131/109/8
f 130/110/39 133/111/39 134/112/39
f 135/113/39 134/112/39 133/111/39
f 138/114/31 137/115/31 136/116/31
f 139/117/31 136/116/31 137/115/31
f 141/118/40 41/119/41 140/120/42
f 142/121/43 140/120/42 41/119/41
f 142/121/43 143/122/44 140/120/42
f 144/123/45 140/120/42 143/122/44
f 147/124/16 146/125/16 145/126/16
f 148/35/16 145/126/16 146/125/16
f 148/35/16 149/127/16 145/126/16
f 150/128/16 145/126/16 149/127/16
f 153/129/20 152/130/20 151/40/20
f 154/131/20 151/40/20 152/130/20
f 154/131/20 155/132/20 151/40/20
f 156/133/20 151/40/20 155/132/20
f 159/134/16 158/135/16 157/136/16
f 160/137/16 157/136/16 158/135/16
f 163/138/37 162/139/37 161/140/37
f 164/141/37 161/140/37 162/139/37
f 167/142/20 166/143/20 165/144/20
f 168/145/20 165/144/20 166/143/20
f 171/146/46 170/147/46 169/148/46
f 172/149/46 169/148/46 170/147/46
f 175/150/47 174/151/47 173/152/47
f 176/153/47 173/152/47 174/151/47
f 41/154/48 367/155/48 47/52/27 46/51/26 48/154/48 142/154/48 251/154/48
f 44/156/49 178/157/50 177/158/51 55/159/52 368/160/53
f 58/154/54 59/154/25 83/154/25 180/154/25 179/154/55 82/154/55 281/154/25 293/154/55
f 59/161/56 55/159/52 180/162/57
f 55/159/52 181/163/58 180/162/57
f 177/158/51 181/163/58 55/159/52
f 184/164/46 183/165/46 182/166/46
f 183/165/46 185/167/46 182/166/46
f 182/166/46 185/167/46 186/168/46
f 187/169/46 185/167/46 183/165/46
f 190/109/8 189/111/8 188/108/8
f 191/110/8 188/108/8 189/111/8
f 189/111/39 192/113/39 191/110/39
f 193/112/39 191/110/39 192/113/39
f 196/170/16 195/171/16 194/172/16
f 197/173/16 194/172/16 195/171/16
f 200/99/2 199/101/2 198/98/2
f 201/100/2 198/98/2 199/101/2
f 199/101/38 202/103/38 201/100/38
f 203/102/38 201/100/38 202/103/38
f 206/174/31 205/175/31 204/176/31
f 207/177/31 204/176/31 205/175/31
f 209/178/59 208/179/60 44/156/49
f 178/180/50 44/156/49 208/179/60
f 178/180/50 208/179/60 210/181/61
f 211/182/62 210/181/61 208/179/60
f 214/183/16 213/184/16 212/185/16
f 215/186/16 212/185/16 213/184/16
f 218/187/46 217/146/46 216/149/46
f 219/147/46 216/149/46 217/146/46
f 222/188/20 221/189/20 220/190/20
f 223/191/20 220/190/20 221/189/20
f 226/192/37 225/138/37 224/141/37
f 227/139/37 224/141/37 225/138/37
f 230/193/47 229/194/47 228/195/47
f 231/196/47 228/195/47 229/194/47
f 237/197/20 236/198/63 235/199/64
f 237/197/20 235/199/64 238/200/65
f 237/197/20 239/201/66 236/198/63
f 237/197/20 238/200/65 240/202/67
f 237/197/20 241/203/68 239/201/66
f 237/197/20 240/202/67 241/203/68
f 244/204/66 243/205/20 242/206/68
f 242/206/68 243/205/20 245/207/67
f 246/208/63 243/205/20 244/204/66
f 245/207/67 243/205/20 247/209/65
f 248/210/64 243/205/20 246/208/63
f 247/209/65 243/205/20 248/210/64
f 77/211/47 46/212/47 249/213/47
f 77/211/47 250/214/47 46/212/47
f 251/215/47 46/212/47 250/214/47
f 250/214/47 252/216/47 251/215/47
f 255/217/69 254/218/70 253/219/71
f 256/161/72 253/219/71 254/218/70
f 254/218/70 257/162/46 256/161/72
f 257/162/46 259/218/46 258/220/46
f 260/221/46 258/220/46 259/218/46
f 263/222/73 262/223/73 261/224/73
f 264/225/73 261/224/73 262/223/73
f 262/223/74 265/226/74 264/225/74
f 266/227/74 264/225/74 265/226/74
f 269/228/75 268/55/76 267/229/77
f 270/230/78 267/229/77 268/55/76
f 76/54/37 270/230/37 268/55/37
f 272/231/37 271/232/37 76/54/37
f 273/230/37 76/54/37 271/232/37
f 276/233/20 275/234/20 274/235/20
f 76/236/20 274/235/20 275/234/20
f 177/237/47 77/211/47 277/238/47
f 77/211/47 177/237/47 278/214/47
f 178/157/47 278/214/47 177/237/47
f 279/239/47 278/214/47 178/157/47
f 281/240/37 283/231/37 282/230/37
f 284/232/37 282/230/37 283/231/37
f 57/241/74 285/242/74 56/243/74
f 286/244/74 56/243/74 285/242/74
f 56/243/73 286/244/73 60/245/73
f 287/246/73 60/245/73 286/244/73
f 60/219/79 288/217/80 61/161/81
f 289/218/82 61/161/81 288/217/80
f 289/218/46 80/162/46 61/161/46
f 291/218/46 290/221/46 80/162/46
f 292/220/46 80/162/46 290/221/46
f 80/247/20 294/248/20 293/249/20
f 295/250/20 293/249/20 294/248/20
f 408/251/83 407/252/84 387/229/85 369/228/85
f 297/218/86 78/162/46 299/161/87
f 78/162/46 301/218/46 300/220/46
f 302/221/46 300/220/46 301/218/46
f 422/253/88 419/254/88 424/255/88
f 425/256/89 303/255/89 420/254/89
f 64/254/90 426/257/91 304/256/92
f 306/258/93 304/256/92 426/257/91
f 299/161/87 414/259/94 413/260/95 297/218/86
f 410/261/96 409/262/97 376/219/98 378/217/98
f 79/54/37 310/230/99 308/55/100
f 312/231/37 311/232/37 79/54/37
f 313/230/37 79/54/37 311/232/37
f 315/263/20 314/264/20 78/265/20
f 79/266/20 78/265/20 314/264/20
f 318/267/101 317/268/101 316/269/101
f 321/267/102 320/269/102 319/270/102
f 324/271/103 323/272/103 322/273/103
f 327/271/104 326/270/104 325/272/104
f 330/271/105 329/267/105 328/270/105
f 333/274/103 332/275/103 331/276/103
f 336/276/104 335/275/104 334/277/104
f 339/278/101 338/279/101 337/280/101
f 342/277/102 341/279/102 340/278/102
f 345/275/105 344/279/105 343/277/105
f 348/281/106 347/282/107 346/283/108
f 351/284/109 350/283/110 349/285/111
f 354/284/112 353/281/112 352/283/112
f 357/286/31 356/287/31 355/288/31
f 358/289/31 355/288/31 356/287/31
f 361/290/31 360/291/31 359/292/31
f 362/293/31 359/292/31 360/291/31
f 365/294/31 364/295/31 363/296/31
f 366/297/31 363/296/31 364/295/31
f 367/45/23 41/154/18 40/38/17
f 44/156/21 368/160/113 40/38/17
f 368/160/113 55/298/114 52/46/24 40/38/17
f 310/230/99 411/299/115 412/300/116 308/55/100
f 412/300/116 411/299/115 307/229/117 309/228/117
f 377/218/118 373/162/46 379/161/119
f 373/162/46 381/218/46 380/220/46
f 382/221/46 380/220/46 381/218/46
f 436/253/88 432/254/88 434/255/88
f 435/256/89 383/255/89 430/254/89
f 430/254/90 428/257/90 435/256/90
f 386/258/93 385/256/93 429/257/93
f 379/161/119 409/262/97 410/261/96 377/218/118
f 413/260/95 414/259/94 296/219/120 298/217/120
f 374/54/37 388/230/121 370/55/122
f 390/231/37 389/232/37 374/54/37
f 391/230/37 374/54/37 389/232/37
f 393/263/20 392/264/20 373/265/20
f 374/266/20 373/265/20 392/264/20
f 396/281/123 395/282/107 394/283/108
f 399/284/124 398/283/110 397/285/111
f 402/284/112 401/281/112 400/283/112
f 405/294/31 404/295/31 403/296/31
f 406/297/31 403/296/31 404/295/31
f 78/154/31 77/154/31 76/154/31
f 77/154/31 79/154/125 373/154/125
f 80/154/32 77/154/31 374/154/126
f 76/154/31 77/154/31 75/56/31
f 81/59/31 77/154/31 80/154/32
f 373/265/125 374/266/126 77/154/31
f 78/154/31 79/154/125 77/154/31
f 388/230/121 407/252/84 408/251/83 370/55/122
f 233/154/127 268/55/127 269/228/31 53/154/31 54/154/31
f 416/154/31 305/154/31 417/254/31
f 299/154/31 414/154/31 234/154/31
f 409/154/128 412/300/128 309/228/128 62/154/128 305/154/128 427/154/128 426/154/128 416/154/128 436/154/128 384/154/128 376/154/128 372/154/128 437/154/128 433/154/128
f 375/154/31 409/154/31 379/154/31
f 63/154/31 412/154/31 308/154/31
f 373/154/31 375/154/31 379/154/31
f 373/154/125 79/154/125 63/154/129 232/154/129 308/154/129 375/154/129 379/154/129
f 374/54/126 370/55/130 61/161/130 80/162/32
f 63/154/31 308/154/31 79/154/31 232/154/31
f 310/230/131 313/230/131 311/232/132 411/299/133
f 351/284/109 349/285/111 307/229/134 411/299/133 311/232/132
f 382/221/135 381/218/136 377/218/136 410/261/137
f 410/261/137 378/217/138 395/282/107 396/281/123 382/221/135
f 388/230/139 391/230/139 389/232/140 407/252/141
f 387/229/142 407/252/141 389/232/140 399/284/124 397/285/111
f 302/221/143 301/218/144 297/218/144 413/260/145
f 413/260/145 298/217/146 347/282/107 348/281/106 302/221/143
f 78/154/147 76/154/147 268/55/127 233/154/127 54/154/147 234/154/147 299/154/147
f 54/154/147 234/154/147 299/154/147 78/154/147 76/154/147 268/55/147
f 280/230/148 58/55/37 179/58/37 293/154/37 281/154/37 82/154/37 282/154/37 333/154/148
f 281/154/31 82/154/55 179/58/55 58/154/54 293/154/55
f 59/154/24 58/154/24 55/159/114
f 58/55/24 57/228/24 55/159/114
f 57/228/24 56/243/149 55/159/114
f 55/159/114 56/243/149 52/46/24
f 58/55/150 280/230/148 333/154/148 282/154/150 285/154/150 57/241/150
f 57/228/150 58/55/150 280/230/150 282/154/150 333/154/150 331/276/150 285/154/150 336/154/150
f 56/154/149 60/301/151 52/302/24
f 52/46/24 60/245/151 429/154/152 428/154/153 415/154/153 369/154/154
f 371/154/155 52/46/24 369/154/154 429/154/155 415/154/155 428/154/155 430/254/155 431/154/155 432/154/155
f 436/154/156 52/154/157 432/154/158
f 437/154/31 384/154/31 376/154/31 372/154/31
f 430/154/31 371/154/31 431/154/31
f 309/154/159 52/154/157 436/154/156 433/154/160 384/154/160 372/154/160 376/154/160 437/154/160 426/154/160 427/154/160 305/154/160 62/154/160 416/154/160
f 416/154/31 417/154/31 64/254/31 426/154/31 427/154/31
f 372/154/31 384/154/31 433/154/31 437/154/31
f 309/154/31 416/154/31 62/154/31 305/154/31 427/154/31
f 52/154/157 309/154/159 305/154/161 417/254/161 418/154/161
f 52/154/24 419/154/162 418/154/162 64/254/162 417/154/162 420/154/162 423/154/163 421/154/163 296/154/163 65/154/164 422/154/165
f 419/154/31 418/154/31 417/254/31 64/254/31
f 265/154/166 262/154/167 51/154/167 52/154/24 53/154/168 269/228/166
f 53/154/168 52/154/24 422/154/165 65/154/164
f 52/154/24 51/154/167 262/154/167 47/44/22
f 442/154/31 453/154/31 452/154/31 441/154/31
f 50/154/24 263/154/24 253/154/24 49/154/24 68/154/24 256/154/24 47/154/24
f 50/154/31 253/154/31 49/154/31
f 49/154/24 68/154/24 256/154/24 47/154/24 50/154/24
f 66/154/24 47/154/24 256/154/24 68/154/24 49/154/24 72/55/24
f 68/154/24 66/154/24 72/55/24 47/52/24 49/154/24 256/154/24
f 444/154/31 443/154/31 450/154/31
f 455/154/31 456/154/31 457/154/31 454/154/31
f 447/154/31 449/154/31 448/154/31 446/154/31 445/154/31
f 450/154/24 451/154/24 442/154/24 456/154/24 455/154/24 454/154/24 446/154/24 453/154/24 448/154/24 457/154/24 452/154/24 441/154/24 447/154/24 445/154/24 444/154/24 443/154/24 449/154/24
f 449/154/31 443/154/31 450/154/31
f 453/154/31 446/154/31 448/154/31
f 457/154/31 456/154/31 442/154/31 453/154/31 452/154/31
f 414/154/169 269/228/170 265/154/170 53/154/168 65/154/164 296/154/163 422/154/171 421/154/163 423/154/163
f 414/154/169 234/154/172 299/154/172 233/154/172 54/154/172 268/55/172 53/154/168 265/154/170 269/228/170
f 412/300/128 409/154/128 375/154/128 379/154/128 308/154/128 232/154/128 63/154/128
f 415/154/31 429/154/31 369/154/31
f 60/245/151 408/251/173 369/228/174 428/154/174 415/154/174 429/154/152
f 60/245/151 61/161/175 370/55/175 408/251/173
f 421/154/31 422/154/31 296/154/31
f 15/15/31 19/154/31 18/19/31 17/18/31 16/16/31
f 17/18/10 19/154/10 15/15/10 18/154/10 16/16/10
l 48 41
l 65 414
l 415 371
l 440 439
l 439 438
l 440 438
