# Blender 4.5.3 LTS
# www.blender.org
mtllib VDT_gun_cal200_A_barrel_x3_001.mtl
o VDT_gun_cal200_A_barrel_001.001
v -1.045810 1.525304 6.415483
v -1.188053 1.377657 0.951130
v -1.103145 1.582644 0.951130
v -1.106969 1.377653 6.415483
v -1.103145 1.172671 0.951130
v -1.045810 1.230002 6.415483
v -1.062828 1.212984 6.618164
v -1.131036 1.377653 6.618164
v -1.062828 1.542321 6.618164
v -1.045810 1.230002 6.415483
v -0.898158 1.087763 0.951130
v -1.103145 1.172671 0.951130
v -0.898159 1.168843 6.415483
v -0.750508 1.230002 6.415483
v -0.693172 1.172671 0.951130
v -0.733491 1.212984 6.618164
v -0.898159 1.144777 6.618164
v -1.062828 1.212984 6.618164
v -0.587775 1.688042 -0.826138
v -0.573065 1.377655 2.957414
v -0.668283 1.607531 2.957414
v -0.459210 1.377657 -0.826138
v -0.668283 1.147779 2.957413
v -0.587775 1.067275 -0.826138
v -0.898159 1.702749 2.957414
v -0.587775 1.688042 -0.826138
v -0.668283 1.607531 2.957414
v -0.898158 1.816607 -0.826138
v -1.208542 1.688042 -0.826138
v -1.128035 1.607531 2.957414
v -1.128035 1.607531 2.957414
v -1.337106 1.377657 -0.826138
v -1.208542 1.688042 -0.826138
v -1.223253 1.377655 2.957413
v -1.128035 1.147779 2.957413
v -1.208542 1.067275 -0.826139
v -0.898159 1.052561 2.957413
v -1.208542 1.067275 -0.826139
v -1.128035 1.147779 2.957413
v -0.898158 0.938710 -0.826139
v -0.668283 1.147779 2.957413
v -0.587775 1.067275 -0.826138
v -0.668283 1.607531 2.957414
v -0.898159 1.377655 3.312237
v -0.898159 1.702749 2.957414
v -1.128035 1.607531 2.957414
v -1.128035 1.607531 2.957414
v -0.898159 1.377655 3.312237
v -1.223253 1.377655 2.957413
v -1.128035 1.147779 2.957413
v -1.128035 1.147779 2.957413
v -0.898159 1.377655 3.312237
v -0.898159 1.052561 2.957413
v -0.668283 1.147779 2.957413
v -0.668283 1.147779 2.957413
v -0.898159 1.377655 3.312237
v -0.573065 1.377655 2.957414
v -0.668283 1.607531 2.957414
v -0.665283 1.377652 6.618164
v -0.750508 1.230002 6.415483
v -0.733491 1.212984 6.618164
v -0.689349 1.377653 6.415483
v -0.693172 1.172671 0.951130
v -0.733491 1.542321 6.618164
v -0.608264 1.377657 0.951130
v -0.750508 1.525305 6.415483
v -0.693172 1.582644 0.951130
v -0.693172 1.582644 0.951130
v -0.898159 1.586462 6.415483
v -0.898158 1.667551 0.951130
v -0.750508 1.525305 6.415483
v -1.103145 1.582644 0.951130
v -0.733491 1.542321 6.618164
v -1.045810 1.525304 6.415483
v -0.898159 1.610529 6.618164
v -1.062828 1.542321 6.618164
v -0.665283 1.377652 6.618164
v -0.792543 1.483269 6.659304
v -0.733491 1.542321 6.618164
v -0.748795 1.377652 6.659304
v -0.898159 1.527017 6.659304
v -0.733491 1.212984 6.618164
v -0.898159 1.610529 6.618164
v -0.792543 1.272036 6.659304
v -1.003776 1.483269 6.659304
v -0.898159 1.144777 6.618164
v -1.062828 1.542321 6.618164
v -0.898159 1.228288 6.659304
v -1.047523 1.377653 6.659304
v -1.062828 1.212984 6.618164
v -1.131036 1.377653 6.618164
v -1.003776 1.272036 6.659304
v -0.748795 1.377652 6.659304
v -0.898159 1.377654 5.753545
v -0.792543 1.483269 6.659304
v -0.792543 1.272036 6.659304
v -0.792543 1.483269 6.659304
v -0.898159 1.377654 5.753545
v -0.898159 1.527017 6.659304
v -1.003776 1.483269 6.659304
v -1.003776 1.483269 6.659304
v -0.898159 1.377654 5.753545
v -1.047523 1.377653 6.659304
v -1.003776 1.272036 6.659304
v -1.003776 1.272036 6.659304
v -0.898159 1.377654 5.753545
v -0.898159 1.228288 6.659304
v -0.792543 1.272036 6.659304
v -0.147617 1.525304 6.836699
v -0.289860 1.377657 1.372346
v -0.204952 1.582644 1.372346
v -0.208776 1.377653 6.836699
v -0.204952 1.172671 1.372346
v -0.147617 1.230002 6.836699
v -0.164635 1.212984 7.039380
v -0.232843 1.377653 7.039380
v -0.164635 1.542321 7.039380
v -0.147617 1.230002 6.836699
v 0.000035 1.087763 1.372346
v -0.204952 1.172671 1.372346
v 0.000034 1.168843 6.836699
v 0.147685 1.230002 6.836699
v 0.205021 1.172671 1.372346
v 0.164702 1.212984 7.039380
v 0.000034 1.144777 7.039380
v -0.164635 1.212984 7.039380
v 0.310418 1.688042 -0.404922
v 0.325128 1.377655 3.378630
v 0.229910 1.607531 3.378630
v 0.438983 1.377657 -0.404922
v 0.229910 1.147779 3.378629
v 0.310418 1.067275 -0.404922
v 0.000034 1.702749 3.378630
v 0.310418 1.688042 -0.404922
v 0.229910 1.607531 3.378630
v 0.000035 1.816607 -0.404922
v -0.310349 1.688042 -0.404922
v -0.229842 1.607531 3.378630
v -0.229842 1.607531 3.378630
v -0.438913 1.377657 -0.404922
v -0.310349 1.688042 -0.404922
v -0.325060 1.377655 3.378629
v -0.229842 1.147779 3.378629
v -0.310349 1.067275 -0.404923
v 0.000034 1.052561 3.378629
v -0.310349 1.067275 -0.404923
v -0.229842 1.147779 3.378629
v 0.000035 0.938710 -0.404923
v 0.229910 1.147779 3.378629
v 0.310418 1.067275 -0.404922
v 0.229910 1.607531 3.378630
v 0.000034 1.377655 3.733453
v 0.000034 1.702749 3.378630
v -0.229842 1.607531 3.378630
v -0.229842 1.607531 3.378630
v 0.000034 1.377655 3.733453
v -0.325060 1.377655 3.378629
v -0.229842 1.147779 3.378629
v -0.229842 1.147779 3.378629
v 0.000034 1.377655 3.733453
v 0.000034 1.052561 3.378629
v 0.229910 1.147779 3.378629
v 0.229910 1.147779 3.378629
v 0.000034 1.377655 3.733453
v 0.325128 1.377655 3.378630
v 0.229910 1.607531 3.378630
v 0.232910 1.377653 7.039380
v 0.147685 1.230002 6.836699
v 0.164702 1.212984 7.039380
v 0.208844 1.377653 6.836699
v 0.205021 1.172671 1.372346
v 0.164702 1.542321 7.039380
v 0.289929 1.377657 1.372346
v 0.147685 1.525305 6.836699
v 0.205021 1.582644 1.372346
v 0.205021 1.582644 1.372346
v 0.000034 1.586463 6.836699
v 0.000035 1.667552 1.372346
v 0.147685 1.525305 6.836699
v -0.204952 1.582644 1.372346
v 0.164702 1.542321 7.039380
v -0.147617 1.525304 6.836699
v 0.000034 1.610529 7.039380
v -0.164635 1.542321 7.039380
v 0.232910 1.377653 7.039380
v 0.105650 1.483269 7.080520
v 0.164702 1.542321 7.039380
v 0.149398 1.377653 7.080520
v 0.000034 1.527017 7.080520
v 0.164702 1.212984 7.039380
v 0.000034 1.610529 7.039380
v 0.105650 1.272036 7.080520
v -0.105583 1.483269 7.080520
v 0.000034 1.144777 7.039380
v -0.164635 1.542321 7.039380
v 0.000034 1.228288 7.080520
v -0.149330 1.377653 7.080520
v -0.164635 1.212984 7.039380
v -0.232843 1.377653 7.039380
v -0.105583 1.272036 7.080520
v 0.149398 1.377653 7.080520
v 0.000034 1.377654 6.174761
v 0.105650 1.483269 7.080520
v 0.105650 1.272036 7.080520
v 0.105650 1.483269 7.080520
v 0.000034 1.377654 6.174761
v 0.000034 1.527017 7.080520
v -0.105583 1.483269 7.080520
v -0.105583 1.483269 7.080520
v 0.000034 1.377654 6.174761
v -0.149330 1.377653 7.080520
v -0.105583 1.272036 7.080520
v -0.105583 1.272036 7.080520
v 0.000034 1.377654 6.174761
v 0.000034 1.228288 7.080520
v 0.105650 1.272036 7.080520
v 0.750576 1.525304 6.415483
v 0.608333 1.377657 0.951130
v 0.693241 1.582644 0.951130
v 0.689417 1.377653 6.415483
v 0.693241 1.172671 0.951130
v 0.750576 1.230002 6.415483
v 0.733558 1.212984 6.618164
v 0.665350 1.377653 6.618164
v 0.733558 1.542321 6.618164
v 0.750576 1.230002 6.415483
v 0.898227 1.087763 0.951130
v 0.693241 1.172671 0.951130
v 0.898226 1.168843 6.415483
v 1.045878 1.230002 6.415483
v 1.103214 1.172671 0.951130
v 1.062895 1.212984 6.618164
v 0.898226 1.144777 6.618164
v 0.733558 1.212984 6.618164
v 1.208611 1.688042 -0.826138
v 1.223321 1.377655 2.957414
v 1.128103 1.607531 2.957414
v 1.337176 1.377657 -0.826138
v 1.128103 1.147779 2.957413
v 1.208611 1.067275 -0.826138
v 0.898227 1.702749 2.957414
v 1.208611 1.688042 -0.826138
v 1.128103 1.607531 2.957414
v 0.898228 1.816607 -0.826138
v 0.587844 1.688042 -0.826138
v 0.668351 1.607531 2.957414
v 0.668351 1.607531 2.957414
v 0.459279 1.377657 -0.826138
v 0.587844 1.688042 -0.826138
v 0.573133 1.377655 2.957413
v 0.668351 1.147779 2.957413
v 0.587844 1.067275 -0.826139
v 0.898227 1.052561 2.957413
v 0.587844 1.067275 -0.826139
v 0.668351 1.147779 2.957413
v 0.898228 0.938710 -0.826139
v 1.128103 1.147779 2.957413
v 1.208611 1.067275 -0.826138
v 1.128103 1.607531 2.957414
v 0.898227 1.377655 3.312237
v 0.898227 1.702749 2.957414
v 0.668351 1.607531 2.957414
v 0.668351 1.607531 2.957414
v 0.898227 1.377655 3.312237
v 0.573133 1.377655 2.957413
v 0.668351 1.147779 2.957413
v 0.668351 1.147779 2.957413
v 0.898227 1.377655 3.312237
v 0.898227 1.052561 2.957413
v 1.128103 1.147779 2.957413
v 1.128103 1.147779 2.957413
v 0.898227 1.377655 3.312237
v 1.223321 1.377655 2.957414
v 1.128103 1.607531 2.957414
v 1.131103 1.377653 6.618164
v 1.045878 1.230002 6.415483
v 1.062895 1.212984 6.618164
v 1.107037 1.377653 6.415483
v 1.103214 1.172671 0.951130
v 1.062895 1.542321 6.618164
v 1.188122 1.377657 0.951130
v 1.045878 1.525305 6.415483
v 1.103214 1.582644 0.951130
v 1.103214 1.582644 0.951130
v 0.898226 1.586463 6.415483
v 0.898227 1.667552 0.951130
v 1.045878 1.525305 6.415483
v 0.693241 1.582644 0.951130
v 1.062895 1.542321 6.618164
v 0.750576 1.525304 6.415483
v 0.898226 1.610529 6.618164
v 0.733558 1.542321 6.618164
v 1.131103 1.377653 6.618164
v 1.003843 1.483269 6.659304
v 1.062895 1.542321 6.618164
v 1.047591 1.377653 6.659304
v 0.898227 1.527017 6.659304
v 1.062895 1.212984 6.618164
v 0.898226 1.610529 6.618164
v 1.003843 1.272036 6.659304
v 0.792610 1.483269 6.659304
v 0.898226 1.144777 6.618164
v 0.733558 1.542321 6.618164
v 0.898227 1.228288 6.659304
v 0.748863 1.377653 6.659304
v 0.733558 1.212984 6.618164
v 0.665350 1.377653 6.618164
v 0.792610 1.272036 6.659304
v 1.047591 1.377653 6.659304
v 0.898227 1.377654 5.753545
v 1.003843 1.483269 6.659304
v 1.003843 1.272036 6.659304
v 1.003843 1.483269 6.659304
v 0.898227 1.377654 5.753545
v 0.898227 1.527017 6.659304
v 0.792610 1.483269 6.659304
v 0.792610 1.483269 6.659304
v 0.898227 1.377654 5.753545
v 0.748863 1.377653 6.659304
v 0.792610 1.272036 6.659304
v 0.792610 1.272036 6.659304
v 0.898227 1.377654 5.753545
v 0.898227 1.228288 6.659304
v 1.003843 1.272036 6.659304
vn -0.7071 0.7070 0.0148
vn -0.9999 -0.0000 0.0148
vn -0.7061 0.7061 -0.0525
vn -0.9986 -0.0000 -0.0525
vn -0.7071 -0.7070 0.0148
vn -0.7061 -0.7061 -0.0525
vn -0.7022 -0.7022 -0.1179
vn -0.9930 -0.0000 -0.1179
vn -0.7022 0.7022 -0.1179
vn -0.7070 -0.7071 0.0148
vn -0.0000 -0.9999 0.0148
vn -0.0000 -0.9986 -0.0525
vn 0.7061 -0.7062 -0.0525
vn 0.7070 -0.7071 0.0148
vn 0.7022 -0.7022 -0.1179
vn -0.0000 -0.9930 -0.1179
vn 0.7068 0.7068 0.0301
vn 0.9995 -0.0000 0.0301
vn 0.7068 -0.7068 0.0301
vn -0.0000 0.9995 0.0301
vn -0.7068 0.7068 0.0301
vn -0.9995 -0.0000 0.0301
vn -0.7068 -0.7068 0.0301
vn -0.0000 -0.9995 0.0301
vn -0.0000 0.7373 0.6755
vn -0.0001 -0.0000 1.0000
vn 0.5213 0.5214 0.6755
vn -0.5213 0.5214 0.6755
vn -0.7373 -0.0000 0.6755
vn -0.0000 -0.0001 1.0000
vn -0.5214 0.5213 0.6755
vn -0.5214 -0.5213 0.6755
vn -0.0000 -0.7373 0.6755
vn 0.0001 -0.0000 1.0000
vn -0.5213 -0.5214 0.6755
vn 0.5213 -0.5214 0.6755
vn 0.7373 -0.0000 0.6755
vn -0.0000 0.0001 1.0000
vn 0.5214 -0.5213 0.6755
vn 0.5214 0.5213 0.6755
vn 0.7061 -0.7061 -0.0525
vn 0.9930 -0.0000 -0.1179
vn 0.9986 -0.0000 -0.0525
vn 0.7071 -0.7070 0.0148
vn 0.7022 0.7022 -0.1179
vn 0.9999 -0.0000 0.0148
vn 0.7062 0.7061 -0.0525
vn 0.7071 0.7070 0.0148
vn -0.0000 0.9999 0.0148
vn -0.0000 0.9986 -0.0525
vn 0.7070 0.7071 0.0148
vn 0.7061 0.7062 -0.0525
vn -0.7070 0.7071 0.0148
vn -0.7061 0.7062 -0.0525
vn -0.0000 0.9930 -0.1179
vn 0.3125 0.3125 0.8971
vn 0.4419 -0.0000 0.8971
vn -0.0000 0.4419 0.8971
vn 0.3125 -0.3125 0.8971
vn -0.3125 0.3125 0.8971
vn -0.0000 -0.4419 0.8971
vn -0.4419 -0.0000 0.8971
vn -0.3125 -0.3125 0.8971
vn -0.6977 -0.6977 0.1627
vn -0.0000 -0.0000 1.0000
vn -0.9867 -0.0000 0.1627
vn -0.6977 0.6977 0.1627
vn -0.0000 -0.9867 0.1627
vn 0.6977 -0.6977 0.1627
vn 0.9867 -0.0000 0.1627
vn 0.6977 0.6977 0.1627
vn -0.0000 0.9867 0.1627
vn 0.7061 0.7061 -0.0525
vt -2.886648 0.526383
vt -2.886648 0.523272
vt -2.803499 0.525513
vt -2.803499 0.523272
vt -2.886648 0.520162
vt -2.803499 0.521032
vt -2.800415 0.520774
vt -2.800415 0.523272
vt -2.800415 0.525771
vt 0.491016 3.886648
vt 0.487920 3.886648
vt 0.490150 3.803499
vt 0.487920 3.803499
vt 0.485689 3.803499
vt 0.484823 3.886648
vt 0.485432 3.800415
vt 0.487920 3.800415
vt 0.490407 3.800415
vt 3.856119 0.526760
vt 3.856119 0.523272
vt 3.913692 0.527982
vt 3.913692 0.523272
vt 3.856119 0.519784
vt 3.913692 0.518563
vt 0.515553 3.856119
vt 0.516769 3.913692
vt 0.512080 3.856119
vt 0.512081 3.913692
vt 0.507392 3.913692
vt 0.508608 3.856119
vt -2.913692 0.527982
vt -2.913692 0.523272
vt -2.856119 0.526760
vt -2.856119 0.523272
vt -2.856119 0.519784
vt -2.913692 0.518563
vt 0.491392 3.856119
vt 0.492608 3.913692
vt 0.487920 3.856119
vt 0.487919 3.913692
vt 0.484447 3.856119
vt 0.483231 3.913692
vt 0.512080 3.850720
vt -2.850720 0.523272
vt 0.487920 3.850720
vt 3.850720 0.523272
vt 3.800415 0.520774
vt 3.803499 0.521032
vt 3.800415 0.523272
vt 3.803499 0.523272
vt 3.886648 0.520162
vt 3.800415 0.525771
vt 3.886648 0.523272
vt 3.803499 0.525513
vt 3.886648 0.526383
vt 0.512080 3.886648
vt 0.512080 3.803499
vt 0.515177 3.886648
vt 0.514311 3.803499
vt 0.508984 3.886648
vt 0.514568 3.800415
vt 0.509850 3.803499
vt 0.512080 3.800415
vt 0.509593 3.800415
vt 0.514568 0.525771
vt 0.513676 0.524875
vt 0.515598 0.523272
vt 0.514336 0.523272
vt 0.512080 0.525539
vt 0.514568 0.520774
vt 0.512080 0.526806
vt 0.513676 0.521670
vt 0.510485 0.524875
vt 0.512080 0.519739
vt 0.509593 0.525771
vt 0.512080 0.521006
vt 0.509824 0.523272
vt 0.509593 0.520774
vt 0.508563 0.523272
vt 0.510485 0.521670
vt -2.799789 0.524875
vt -2.813572 0.523272
vt -2.799789 0.523272
vt -2.799789 0.521670
vt 0.487920 3.799789
vt 0.487920 3.813572
vt 0.486324 3.799789
vt 0.489515 3.799789
vt 3.799789 0.523272
vt 3.813572 0.523272
vt 3.799789 0.524875
vt 3.799789 0.521670
vt 0.512080 3.799789
vt 0.512080 3.813572
vt 0.510485 3.799789
vt 0.513676 3.799789
s 1
f 3/1/1 2/2/2 1/3/3
f 4/4/4 1/3/3 2/2/2
f 2/2/2 5/5/5 4/4/4
f 6/6/6 4/4/4 5/5/5
f 6/6/6 7/7/7 4/4/4
f 8/8/8 4/4/4 7/7/7
f 4/4/4 8/8/8 1/3/3
f 9/9/9 1/3/3 8/8/8
f 12/10/10 11/11/11 10/12/6
f 13/13/12 10/12/6 11/11/11
f 13/13/12 11/11/11 14/14/13
f 15/15/14 14/14/13 11/11/11
f 14/14/13 16/16/15 13/13/12
f 17/17/16 13/13/12 16/16/15
f 13/13/12 17/17/16 10/12/6
f 18/18/7 10/12/6 17/17/16
f 21/19/17 20/20/18 19/21/17
f 22/22/18 19/21/17 20/20/18
f 20/20/18 23/23/19 22/22/18
f 24/24/19 22/22/18 23/23/19
f 27/25/17 26/26/17 25/27/20
f 28/28/20 25/27/20 26/26/17
f 28/28/20 29/29/21 25/27/20
f 30/30/21 25/27/20 29/29/21
f 33/31/21 32/32/22 31/33/21
f 34/34/22 31/33/21 32/32/22
f 34/34/22 32/32/22 35/35/23
f 36/36/23 35/35/23 32/32/22
f 39/37/23 38/38/23 37/39/24
f 40/40/24 37/39/24 38/38/23
f 37/39/24 40/40/24 41/41/19
f 42/42/19 41/41/19 40/40/24
f 45/27/25 44/43/26 43/25/27
f 46/30/28 44/43/26 45/27/25
f 49/34/29 48/44/30 47/33/31
f 50/35/32 48/44/30 49/34/29
f 53/39/33 52/45/34 51/37/35
f 54/41/36 52/45/34 53/39/33
f 57/20/37 56/46/38 55/23/39
f 58/19/40 56/46/38 57/20/37
f 61/47/15 60/48/41 59/49/42
f 62/50/43 59/49/42 60/48/41
f 60/48/41 63/51/44 62/50/43
f 59/49/42 62/50/43 64/52/45
f 65/53/46 62/50/43 63/51/44
f 66/54/47 64/52/45 62/50/43
f 65/53/46 67/55/48 62/50/43
f 66/54/47 62/50/43 67/55/48
f 70/56/49 69/57/50 68/58/51
f 71/59/52 68/58/51 69/57/50
f 70/56/49 72/60/53 69/57/50
f 71/59/52 69/57/50 73/61/45
f 74/62/54 69/57/50 72/60/53
f 75/63/55 73/61/45 69/57/50
f 74/62/54 76/64/9 69/57/50
f 75/63/55 69/57/50 76/64/9
f 79/65/56 78/66/56 77/67/57
f 80/68/57 77/67/57 78/66/56
f 78/66/56 79/65/56 81/69/58
f 77/67/57 80/68/57 82/70/59
f 83/71/58 81/69/58 79/65/56
f 84/72/59 82/70/59 80/68/57
f 81/69/58 83/71/58 85/73/60
f 82/70/59 84/72/59 86/74/61
f 87/75/60 85/73/60 83/71/58
f 88/76/61 86/74/61 84/72/59
f 85/73/60 87/75/60 89/77/62
f 86/74/61 88/76/61 90/78/63
f 91/79/62 89/77/62 87/75/60
f 92/80/63 90/78/63 88/76/61
f 89/77/62 91/79/62 92/80/63
f 90/78/63 92/80/63 91/79/62
f 95/81/64 94/82/65 93/83/66
f 93/83/66 94/82/65 96/84/67
f 99/85/68 98/86/65 97/87/64
f 100/88/69 98/86/65 99/85/68
f 103/89/70 102/90/65 101/91/69
f 104/92/71 102/90/65 103/89/70
f 107/93/72 106/94/65 105/95/71
f 108/96/67 106/94/65 107/93/72
f 111/1/1 110/2/2 109/3/3
f 112/4/4 109/3/3 110/2/2
f 110/2/2 113/5/5 112/4/4
f 114/6/6 112/4/4 113/5/5
f 114/6/6 115/7/7 112/4/4
f 116/8/8 112/4/4 115/7/7
f 112/4/4 116/8/8 109/3/3
f 117/9/9 109/3/3 116/8/8
f 120/10/10 119/11/11 118/12/6
f 121/13/12 118/12/6 119/11/11
f 121/13/12 119/11/11 122/14/13
f 123/15/14 122/14/13 119/11/11
f 122/14/13 124/16/15 121/13/12
f 125/17/16 121/13/12 124/16/15
f 121/13/12 125/17/16 118/12/6
f 126/18/7 118/12/6 125/17/16
f 129/19/17 128/20/18 127/21/17
f 130/22/18 127/21/17 128/20/18
f 128/20/18 131/23/19 130/22/18
f 132/24/19 130/22/18 131/23/19
f 135/25/17 134/26/17 133/27/20
f 136/28/20 133/27/20 134/26/17
f 136/28/20 137/29/21 133/27/20
f 138/30/21 133/27/20 137/29/21
f 141/31/21 140/32/22 139/33/21
f 142/34/22 139/33/21 140/32/22
f 142/34/22 140/32/22 143/35/23
f 144/36/23 143/35/23 140/32/22
f 147/37/23 146/38/23 145/39/24
f 148/40/24 145/39/24 146/38/23
f 145/39/24 148/40/24 149/41/19
f 150/42/19 149/41/19 148/40/24
f 153/27/25 152/43/26 151/25/27
f 154/30/28 152/43/26 153/27/25
f 157/34/29 156/44/30 155/33/31
f 158/35/32 156/44/30 157/34/29
f 161/39/33 160/45/34 159/37/35
f 162/41/36 160/45/34 161/39/33
f 165/20/37 164/46/38 163/23/39
f 166/19/40 164/46/38 165/20/37
f 169/47/15 168/48/41 167/49/42
f 170/50/43 167/49/42 168/48/41
f 168/48/41 171/51/44 170/50/43
f 167/49/42 170/50/43 172/52/45
f 173/53/46 170/50/43 171/51/44
f 174/54/73 172/52/45 170/50/43
f 173/53/46 175/55/48 170/50/43
f 174/54/73 170/50/43 175/55/48
f 178/56/49 177/57/50 176/58/51
f 179/59/52 176/58/51 177/57/50
f 178/56/49 180/60/53 177/57/50
f 179/59/52 177/57/50 181/61/45
f 182/62/54 177/57/50 180/60/53
f 183/63/55 181/61/45 177/57/50
f 182/62/54 184/64/9 177/57/50
f 183/63/55 177/57/50 184/64/9
f 187/65/56 186/66/56 185/67/57
f 188/68/57 185/67/57 186/66/56
f 186/66/56 187/65/56 189/69/58
f 185/67/57 188/68/57 190/70/59
f 191/71/58 189/69/58 187/65/56
f 192/72/59 190/70/59 188/68/57
f 189/69/58 191/71/58 193/73/60
f 190/70/59 192/72/59 194/74/61
f 195/75/60 193/73/60 191/71/58
f 196/76/61 194/74/61 192/72/59
f 193/73/60 195/75/60 197/77/62
f 194/74/61 196/76/61 198/78/63
f 199/79/62 197/77/62 195/75/60
f 200/80/63 198/78/63 196/76/61
f 197/77/62 199/79/62 200/80/63
f 198/78/63 200/80/63 199/79/62
f 203/81/64 202/82/65 201/83/66
f 201/83/66 202/82/65 204/84/67
f 207/85/68 206/86/65 205/87/64
f 208/88/69 206/86/65 207/85/68
f 211/89/70 210/90/65 209/91/69
f 212/92/71 210/90/65 211/89/70
f 215/93/72 214/94/65 213/95/71
f 216/96/67 214/94/65 215/93/72
f 219/1/1 218/2/2 217/3/3
f 220/4/4 217/3/3 218/2/2
f 218/2/2 221/5/5 220/4/4
f 222/6/6 220/4/4 221/5/5
f 222/6/6 223/7/7 220/4/4
f 224/8/8 220/4/4 223/7/7
f 220/4/4 224/8/8 217/3/3
f 225/9/9 217/3/3 224/8/8
f 228/10/10 227/11/11 226/12/6
f 229/13/12 226/12/6 227/11/11
f 229/13/12 227/11/11 230/14/13
f 231/15/14 230/14/13 227/11/11
f 230/14/13 232/16/15 229/13/12
f 233/17/16 229/13/12 232/16/15
f 229/13/12 233/17/16 226/12/6
f 234/18/7 226/12/6 233/17/16
f 237/19/17 236/20/18 235/21/17
f 238/22/18 235/21/17 236/20/18
f 236/20/18 239/23/19 238/22/18
f 240/24/19 238/22/18 239/23/19
f 243/25/17 242/26/17 241/27/20
f 244/28/20 241/27/20 242/26/17
f 244/28/20 245/29/21 241/27/20
f 246/30/21 241/27/20 245/29/21
f 249/31/21 248/32/22 247/33/21
f 250/34/22 247/33/21 248/32/22
f 250/34/22 248/32/22 251/35/23
f 252/36/23 251/35/23 248/32/22
f 255/37/23 254/38/23 253/39/24
f 256/40/24 253/39/24 254/38/23
f 253/39/24 256/40/24 257/41/19
f 258/42/19 257/41/19 256/40/24
f 261/27/25 260/43/26 259/25/27
f 262/30/28 260/43/26 261/27/25
f 265/34/29 264/44/30 263/33/31
f 266/35/32 264/44/30 265/34/29
f 269/39/33 268/45/34 267/37/35
f 270/41/36 268/45/34 269/39/33
f 273/20/37 272/46/38 271/23/39
f 274/19/40 272/46/38 273/20/37
f 277/47/15 276/48/41 275/49/42
f 278/50/43 275/49/42 276/48/41
f 276/48/41 279/51/44 278/50/43
f 275/49/42 278/50/43 280/52/45
f 281/53/46 278/50/43 279/51/44
f 282/54/47 280/52/45 278/50/43
f 281/53/46 283/55/48 278/50/43
f 282/54/47 278/50/43 283/55/48
f 286/56/49 285/57/50 284/58/51
f 287/59/52 284/58/51 285/57/50
f 286/56/49 288/60/53 285/57/50
f 287/59/52 285/57/50 289/61/45
f 290/62/54 285/57/50 288/60/53
f 291/63/55 289/61/45 285/57/50
f 290/62/54 292/64/9 285/57/50
f 291/63/55 285/57/50 292/64/9
f 295/65/56 294/66/56 293/67/57
f 296/68/57 293/67/57 294/66/56
f 294/66/56 295/65/56 297/69/58
f 293/67/57 296/68/57 298/70/59
f 299/71/58 297/69/58 295/65/56
f 300/72/59 298/70/59 296/68/57
f 297/69/58 299/71/58 301/73/60
f 298/70/59 300/72/59 302/74/61
f 303/75/60 301/73/60 299/71/58
f 304/76/61 302/74/61 300/72/59
f 301/73/60 303/75/60 305/77/62
f 302/74/61 304/76/61 306/78/63
f 307/79/62 305/77/62 303/75/60
f 308/80/63 306/78/63 304/76/61
f 305/77/62 307/79/62 308/80/63
f 306/78/63 308/80/63 307/79/62
f 311/81/64 310/82/65 309/83/66
f 309/83/66 310/82/65 312/84/67
f 315/85/68 314/86/65 313/87/64
f 316/88/69 314/86/65 315/85/68
f 319/89/70 318/90/65 317/91/69
f 320/92/71 318/90/65 319/89/70
f 323/93/72 322/94/65 321/95/71
f 324/96/67 322/94/65 323/93/72
