# Blender 4.5.3 LTS
# www.blender.org
mtllib VDT_gun_cal150_x2_001.mtl
o VDT_gun_cal150_x2_001
v -0.299694 1.539881 4.091595
v -0.403811 1.539881 3.185835
v -0.330189 1.613504 4.091595
v -0.330189 1.466259 4.091595
v -0.330189 1.613504 4.091595
v -0.403811 1.539881 3.185835
v -0.403811 1.643999 4.091595
v -0.477434 1.613504 4.091595
v -0.477434 1.613504 4.091595
v -0.403811 1.539881 3.185835
v -0.507929 1.539881 4.091595
v -0.477434 1.466259 4.091595
v -0.477434 1.466259 4.091595
v -0.403811 1.539881 3.185835
v -0.403811 1.435763 4.091595
v -0.330189 1.466259 4.091595
v -0.292445 1.642753 -1.897209
v -0.515178 1.437013 -1.897210
v -0.292445 1.437013 -1.897210
v -0.515178 1.642753 -1.897209
v -0.515178 1.642753 -1.696229
v -0.292445 1.642753 -1.897209
v -0.292445 1.642753 -1.696229
v -0.515178 1.642753 -1.897209
v -0.292445 1.642753 -1.696229
v -0.292445 1.437013 -1.897210
v -0.292445 1.437013 -1.696229
v -0.292445 1.642753 -1.897209
v -0.292445 1.437013 -1.696229
v -0.515178 1.437013 -1.897210
v -0.515178 1.437013 -1.696229
v -0.292445 1.437013 -1.897210
v -0.515178 1.437013 -1.696229
v -0.515178 1.642753 -1.897209
v -0.515178 1.642753 -1.696229
v -0.515178 1.437013 -1.897210
v -0.506735 1.642805 3.847773
v -0.605889 1.539882 -0.002906
v -0.546702 1.682773 -0.002906
v -0.549367 1.539881 3.847774
v -0.546702 1.396992 -0.002906
v -0.506735 1.436957 3.847774
v -0.518597 1.425095 4.050455
v -0.566143 1.539881 4.050455
v -0.518597 1.654667 4.050455
v -0.506735 1.436957 3.847774
v -0.403811 1.337805 -0.002906
v -0.546702 1.396992 -0.002906
v -0.403811 1.394325 3.847774
v -0.300888 1.436957 3.847774
v -0.260921 1.396992 -0.002906
v -0.289025 1.425095 4.050455
v -0.403811 1.377549 4.050455
v -0.518597 1.425095 4.050455
v -0.201452 1.742242 -1.696226
v -0.191861 1.539882 2.003378
v -0.253940 1.689754 2.003378
v -0.117632 1.539882 -1.696226
v -0.253940 1.390011 2.003378
v -0.201452 1.337524 -1.696226
v -0.403811 1.751832 2.003378
v -0.201452 1.742242 -1.696226
v -0.253940 1.689754 2.003378
v -0.403811 1.826062 -1.696225
v -0.606170 1.742242 -1.696225
v -0.553683 1.689754 2.003378
v -0.553683 1.689754 2.003378
v -0.689990 1.539882 -1.696226
v -0.606170 1.742242 -1.696225
v -0.615761 1.539882 2.003378
v -0.553683 1.390011 2.003378
v -0.606170 1.337524 -1.696226
v -0.403811 1.327932 2.003378
v -0.606170 1.337524 -1.696226
v -0.553683 1.390011 2.003378
v -0.403811 1.253704 -1.696227
v -0.253940 1.390011 2.003378
v -0.201452 1.337524 -1.696226
v -0.541240 1.334234 -1.825474
v -0.541238 1.745533 -1.149413
v -0.541238 1.334232 -1.149412
v -0.541240 1.745533 -1.825472
v -0.098742 1.745534 -1.825472
v -0.098737 1.334232 -1.149412
v -0.098737 1.745533 -1.149412
v -0.098741 1.334234 -1.825474
v -0.098742 1.745534 -1.825472
v -0.541238 1.745533 -1.149413
v -0.541240 1.745533 -1.825472
v -0.098737 1.745533 -1.149412
v -0.098741 1.334234 -1.825474
v -0.541238 1.334232 -1.149412
v -0.098737 1.334232 -1.149412
v -0.541240 1.334234 -1.825474
v -0.304480 2.087680 -1.565544
v -0.263328 1.988351 0.965396
v -0.304475 2.087682 0.965396
v -0.263336 1.988350 -1.565544
v -0.304475 1.889021 0.965396
v -0.304480 1.889020 -1.565544
v -0.304475 2.087682 0.965396
v -0.403811 2.128824 -1.565544
v -0.304480 2.087680 -1.565544
v -0.403803 2.128826 0.965396
v -0.503142 2.087680 -1.565544
v -0.503134 2.087682 0.965396
v -0.503134 2.087682 0.965396
v -0.544283 1.988350 -1.565544
v -0.503142 2.087680 -1.565544
v -0.544278 1.988351 0.965396
v -0.503142 1.889020 -1.565544
v -0.503134 1.889021 0.965396
v -0.503134 1.889021 0.965396
v -0.403811 1.847877 -1.565544
v -0.503142 1.889020 -1.565544
v -0.403803 1.847878 0.965396
v -0.304480 1.889020 -1.565544
v -0.304475 1.889021 0.965396
v -0.304480 2.087680 -1.565544
v -0.304480 1.889020 -1.565544
v -0.263336 1.988350 -1.565544
v -0.403811 2.128824 -1.565544
v -0.403811 1.847877 -1.565544
v -0.503142 2.087680 -1.565544
v -0.503142 1.889020 -1.565544
v -0.544283 1.988350 -1.565544
v -0.022176 1.474570 -1.337773
v -0.022177 1.189956 -1.078064
v -0.022177 1.474571 -1.078064
v -0.022177 1.189955 -1.337773
v -0.785445 1.474571 -1.337773
v -0.785446 1.189957 -1.078064
v -0.785445 1.189956 -1.337773
v -0.785445 1.474571 -1.078064
v -0.638916 2.194916 -1.078054
v -0.168708 2.194914 -1.337770
v -0.168710 2.194916 -1.078054
v -0.638915 2.194914 -1.337770
v -0.022177 1.474571 -1.078064
v -0.638916 2.194916 -1.078054
v -0.168710 2.194916 -1.078054
v -0.785445 1.474571 -1.078064
v -0.785446 1.189957 -1.078064
v -0.022177 1.189956 -1.078064
v -0.022177 1.189955 -1.337773
v -0.785446 1.189957 -1.078064
v -0.022177 1.189956 -1.078064
v -0.785445 1.189956 -1.337773
v -0.022176 1.474570 -1.337773
v -0.785445 1.189956 -1.337773
v -0.022177 1.189955 -1.337773
v -0.785445 1.474571 -1.337773
v -0.638915 2.194914 -1.337770
v -0.168708 2.194914 -1.337770
v -0.022176 1.474570 -1.337773
v -0.168710 2.194916 -1.078054
v -0.168708 2.194914 -1.337770
v -0.022177 1.474571 -1.078064
v -0.785445 1.474571 -1.078064
v -0.638915 2.194914 -1.337770
v -0.638916 2.194916 -1.078054
v -0.785445 1.474571 -1.337773
v -0.070646 2.009899 -0.786156
v -0.070639 1.152235 0.514077
v -0.070639 2.009901 0.514075
v -0.070646 1.152233 -0.786154
v -0.736973 1.152233 -0.786154
v -0.736966 2.009901 0.514075
v -0.736966 1.152235 0.514075
v -0.736973 2.009899 -0.786156
v -0.600867 2.146005 -0.786156
v -0.206744 2.146007 0.514075
v -0.600861 2.146007 0.514075
v -0.206751 2.146005 -0.786156
v -0.070646 1.152233 -0.786154
v -0.736966 1.152235 0.514075
v -0.070639 1.152235 0.514077
v -0.736973 1.152233 -0.786154
v -0.736966 2.009901 0.514075
v -0.070639 1.152235 0.514077
v -0.736966 1.152235 0.514075
v -0.070639 2.009901 0.514075
v -0.206744 2.146007 0.514075
v -0.600861 2.146007 0.514075
v -0.098742 1.745534 -1.825472
v -0.541240 1.334234 -1.825474
v -0.098741 1.334234 -1.825474
v -0.541240 1.745533 -1.825472
v -0.253940 1.689754 2.003378
v -0.403811 1.539882 2.358201
v -0.403811 1.751832 2.003378
v -0.553683 1.689754 2.003378
v -0.553683 1.689754 2.003378
v -0.403811 1.539882 2.358201
v -0.615761 1.539882 2.003378
v -0.553683 1.390011 2.003378
v -0.553683 1.390011 2.003378
v -0.403811 1.539882 2.358201
v -0.403811 1.327932 2.003378
v -0.253940 1.390011 2.003378
v -0.253940 1.390011 2.003378
v -0.403811 1.539882 2.358201
v -0.191861 1.539882 2.003378
v -0.253940 1.689754 2.003378
v -0.241480 1.539881 4.050455
v -0.300888 1.436957 3.847774
v -0.289025 1.425095 4.050455
v -0.258255 1.539881 3.847775
v -0.260921 1.396992 -0.002906
v -0.289025 1.654667 4.050455
v -0.201734 1.539882 -0.002905
v -0.300888 1.642805 3.847774
v -0.260921 1.682773 -0.002906
v -0.070646 2.009899 -0.786156
v -0.206744 2.146007 0.514075
v -0.206751 2.146005 -0.786156
v -0.070639 2.009901 0.514075
v -0.736966 2.009901 0.514075
v -0.600867 2.146005 -0.786156
v -0.600861 2.146007 0.514075
v -0.736973 2.009899 -0.786156
v -0.200900 1.742793 0.743585
v -0.125236 1.539881 1.068769
v -0.206829 1.736864 1.068769
v -0.116851 1.539881 0.743585
v -0.206829 1.342899 1.068769
v -0.200900 1.336970 0.743584
v -0.403811 1.818458 1.068769
v -0.200900 1.742793 0.743585
v -0.206829 1.736864 1.068769
v -0.403811 1.826843 0.743585
v -0.606723 1.742793 0.743585
v -0.600794 1.736864 1.068769
v -0.600794 1.736864 1.068769
v -0.690772 1.539881 0.743585
v -0.606723 1.742793 0.743585
v -0.682387 1.539881 1.068769
v -0.600794 1.342899 1.068769
v -0.606723 1.336970 0.743584
v -0.403811 1.261306 1.068769
v -0.606723 1.336970 0.743584
v -0.600794 1.342899 1.068769
v -0.403811 1.252921 0.743583
v -0.206829 1.342899 1.068769
v -0.200900 1.336970 0.743584
v -0.206829 1.736864 1.068769
v -0.403811 1.539882 1.423592
v -0.403811 1.818458 1.068769
v -0.600794 1.736864 1.068769
v -0.600794 1.736864 1.068769
v -0.403811 1.539882 1.423592
v -0.682387 1.539881 1.068769
v -0.600794 1.342899 1.068769
v -0.600794 1.342899 1.068769
v -0.403811 1.539882 1.423592
v -0.403811 1.261306 1.068769
v -0.206829 1.342899 1.068769
v -0.206829 1.342899 1.068769
v -0.403811 1.539882 1.423592
v -0.125236 1.539881 1.068769
v -0.206829 1.736864 1.068769
v -0.070646 2.009899 -0.786156
v -0.736973 1.152233 -0.786154
v -0.070646 1.152233 -0.786154
v -0.736973 2.009899 -0.786156
v -0.600867 2.146005 -0.786156
v -0.206751 2.146005 -0.786156
v -0.260921 1.682773 -0.002906
v -0.403811 1.685437 3.847774
v -0.403811 1.741960 -0.002906
v -0.300888 1.642805 3.847774
v -0.546702 1.682773 -0.002906
v -0.289025 1.654667 4.050455
v -0.506735 1.642805 3.847773
v -0.403811 1.702213 4.050455
v -0.518597 1.654667 4.050455
v -0.263328 1.988351 0.965396
v -0.403804 1.988351 1.013398
v -0.304475 2.087682 0.965396
v -0.304475 1.889021 0.965396
v -0.403803 2.128826 0.965396
v -0.403803 1.847878 0.965396
v -0.503134 2.087682 0.965396
v -0.503134 1.889021 0.965396
v -0.544278 1.988351 0.965396
v -0.117632 1.539882 -1.696226
v -0.403811 1.539883 -1.775007
v -0.201452 1.337524 -1.696226
v -0.201452 1.742242 -1.696226
v -0.403811 1.253704 -1.696227
v -0.403811 1.826062 -1.696225
v -0.606170 1.337524 -1.696226
v -0.606170 1.742242 -1.696225
v -0.689990 1.539882 -1.696226
v -0.241480 1.539881 4.050455
v -0.330189 1.613504 4.091595
v -0.289025 1.654667 4.050455
v -0.299694 1.539881 4.091595
v -0.403811 1.643999 4.091595
v -0.289025 1.425095 4.050455
v -0.403811 1.702213 4.050455
v -0.330189 1.466259 4.091595
v -0.477434 1.613504 4.091595
v -0.403811 1.377549 4.050455
v -0.518597 1.654667 4.050455
v -0.403811 1.435763 4.091595
v -0.507929 1.539881 4.091595
v -0.518597 1.425095 4.050455
v -0.566143 1.539881 4.050455
v -0.477434 1.466259 4.091595
v 0.042297 0.140715 0.905207
v 0.042296 0.869199 0.472207
v 0.042296 0.140715 0.472207
v -0.036626 0.869199 0.472207
v -0.036626 0.140715 0.905207
v -0.036626 0.140715 0.472207
v -0.905273 0.140715 0.036550
v -0.472273 0.869199 0.036550
v -0.472273 0.140715 0.036550
v -0.472273 0.869199 -0.042372
v -0.905273 0.140715 -0.042372
v -0.472273 0.140715 -0.042372
v -0.036616 0.140715 -0.911019
v -0.036616 0.869199 -0.478019
v -0.036616 0.140715 -0.478019
v 0.042307 0.869199 -0.478019
v 0.042306 0.140715 -0.911019
v 0.042306 0.140715 -0.478019
v 0.910953 0.140715 -0.042363
v 0.477953 0.869199 -0.042362
v 0.477953 0.140715 -0.042362
v 0.477953 0.869199 0.036560
v 0.910953 0.140715 0.036560
v 0.477953 0.140715 0.036560
v -0.611393 0.140715 0.667126
v -0.305216 0.869199 0.360949
v -0.305216 0.140715 0.360949
v -0.361022 0.869199 0.305143
v -0.667200 0.140715 0.611320
v -0.361022 0.140715 0.305143
v -0.667193 0.140715 -0.617139
v -0.361015 0.869199 -0.310962
v -0.361015 0.140715 -0.310962
v -0.305209 0.869199 -0.366769
v -0.611386 0.140715 -0.672946
v -0.305209 0.140715 -0.366769
v 0.617073 0.140715 -0.672939
v 0.310896 0.869199 -0.366761
v 0.310896 0.140715 -0.366762
v 0.366703 0.869199 -0.310955
v 0.672880 0.140715 -0.617132
v 0.366703 0.140715 -0.310955
v 0.672873 0.140715 0.611327
v 0.366695 0.869199 0.305150
v 0.366696 0.140715 0.305150
v 0.310889 0.869199 0.360956
v 0.617066 0.140715 0.667133
v 0.310889 0.140715 0.360956
v 0.857054 2.041734 0.269982
v -0.849745 2.041734 -0.275787
v 0.857052 2.041734 -0.275787
v -0.849743 2.041734 0.269985
v -0.849743 2.041734 0.269985
v 0.857057 1.693377 0.445370
v -0.849743 1.693377 0.445372
v 0.857054 2.041734 0.269982
v -0.849745 1.693376 -0.451179
v 0.857052 2.041734 -0.275787
v -0.849745 2.041734 -0.275787
v 0.857052 1.693376 -0.451179
v 0.857052 1.693376 -0.451179
v 0.857054 2.041734 0.269982
v 0.857052 2.041734 -0.275787
v 0.857057 1.693377 0.445370
v 0.857053 0.984932 -0.451190
v 0.857058 0.984928 0.445363
v -0.849743 1.693377 0.445372
v -0.849745 2.041734 -0.275787
v -0.849743 2.041734 0.269985
v -0.849745 1.693376 -0.451179
v -0.849742 0.984928 0.445365
v -0.849744 0.984932 -0.451188
v 0.857058 0.984928 0.445363
v -0.849743 1.693377 0.445372
v 0.857057 1.693377 0.445370
v -0.849742 0.984928 0.445365
v -0.849744 0.984932 -0.451188
v 0.857052 1.693376 -0.451179
v -0.849745 1.693376 -0.451179
v 0.857053 0.984932 -0.451190
v 0.540987 0.984932 0.001560
v 0.474528 0.156700 0.469293
v 0.383365 0.984932 0.382098
v 0.669913 0.156700 -0.002410
v 0.383363 0.984932 -0.378979
v 0.474526 0.156699 -0.474116
v 0.002826 0.156700 0.664681
v 0.383365 0.984932 0.382098
v 0.474528 0.156700 0.469293
v 0.002824 0.984932 0.539720
v -0.468875 0.156699 0.469295
v -0.377714 0.984932 0.382093
v -0.664262 0.156699 -0.002408
v -0.377714 0.984932 0.382093
v -0.468875 0.156699 0.469295
v -0.535338 0.984932 0.001560
v -0.468879 0.156699 -0.474111
v -0.377716 0.984932 -0.378982
v 0.002823 0.156700 -0.669496
v -0.377716 0.984932 -0.378982
v -0.468879 0.156699 -0.474111
v 0.002821 0.984931 -0.536604
v 0.383363 0.984932 -0.378979
v 0.474526 0.156699 -0.474116
v 0.937314 1.930285 0.096421
v -0.929963 1.830956 0.137572
v -0.929963 1.930287 0.096426
v 0.937314 1.830955 0.137565
v -0.929963 1.731625 0.096426
v 0.937314 1.731625 0.096421
v -0.929963 1.930287 0.096426
v 0.937314 1.971429 -0.002910
v 0.937314 1.930285 0.096421
v -0.929963 1.971430 -0.002902
v 0.937314 1.930285 -0.102241
v -0.929963 1.930287 -0.102233
v -0.929963 1.930287 -0.102233
v 0.937314 1.830955 -0.143382
v 0.937314 1.930285 -0.102241
v -0.929963 1.830956 -0.143377
v 0.937314 1.731625 -0.102241
v -0.929963 1.731625 -0.102233
v -0.929963 1.731625 -0.102233
v 0.937314 1.690481 -0.002910
v 0.937314 1.731625 -0.102241
v -0.929963 1.690482 -0.002902
v 0.937314 1.731625 0.096421
v -0.929963 1.731625 0.096426
v 0.937314 1.930285 0.096421
v 0.937314 1.731625 0.096421
v 0.937314 1.830955 0.137565
v 0.937314 1.971429 -0.002910
v 0.937314 1.690481 -0.002910
v 0.937314 1.930285 -0.102241
v 0.937314 1.731625 -0.102241
v 0.937314 1.830955 -0.143382
v -0.929963 1.830956 0.137572
v -0.929963 1.731625 0.096426
v -0.929963 1.930287 0.096426
v -0.929963 1.971430 -0.002902
v -0.929963 1.690482 -0.002902
v -0.929963 1.930287 -0.102233
v -0.929963 1.731625 -0.102233
v -0.929963 1.830956 -0.143377
v -0.036626 0.140715 0.905207
v 0.042296 0.869199 0.472207
v 0.042297 0.140715 0.905207
v -0.036626 0.869199 0.472207
v -0.905273 0.140715 -0.042372
v -0.472273 0.869199 0.036550
v -0.905273 0.140715 0.036550
v -0.472273 0.869199 -0.042372
v 0.042306 0.140715 -0.911019
v -0.036616 0.869199 -0.478019
v -0.036616 0.140715 -0.911019
v 0.042307 0.869199 -0.478019
v 0.910953 0.140715 0.036560
v 0.477953 0.869199 -0.042362
v 0.910953 0.140715 -0.042363
v 0.477953 0.869199 0.036560
v -0.667200 0.140715 0.611320
v -0.305216 0.869199 0.360949
v -0.611393 0.140715 0.667126
v -0.361022 0.869199 0.305143
v -0.611386 0.140715 -0.672946
v -0.361015 0.869199 -0.310962
v -0.667193 0.140715 -0.617139
v -0.305209 0.869199 -0.366769
v 0.672880 0.140715 -0.617132
v 0.310896 0.869199 -0.366761
v 0.617073 0.140715 -0.672939
v 0.366703 0.869199 -0.310955
v 0.617066 0.140715 0.667133
v 0.366695 0.869199 0.305150
v 0.672873 0.140715 0.611327
v 0.310889 0.869199 0.360956
v 0.625537 0.984932 -0.002934
v 0.443151 0.869200 0.437391
v 0.443151 0.984932 0.437391
v 0.625537 0.869200 -0.002934
v 0.443149 0.984931 -0.443258
v 0.443149 0.869200 -0.443258
v 0.002824 0.869200 0.619776
v 0.443151 0.984932 0.437391
v 0.443151 0.869200 0.437391
v 0.002824 0.984932 0.619776
v -0.437499 0.869200 0.437384
v -0.437499 0.984932 0.437384
v -0.619887 0.869200 -0.002934
v -0.437499 0.984932 0.437384
v -0.437499 0.869200 0.437384
v -0.619887 0.984932 -0.002934
v -0.437502 0.869200 -0.443261
v -0.437502 0.984931 -0.443261
v 0.002821 0.869200 -0.625646
v -0.437502 0.984931 -0.443261
v -0.437502 0.869200 -0.443261
v 0.002821 0.984931 -0.625646
v 0.443149 0.869200 -0.443258
v 0.443149 0.984931 -0.443258
v 0.443151 0.869200 0.437391
v 0.002824 0.869200 -0.002935
v 0.002824 0.869200 0.619776
v 0.625537 0.869200 -0.002934
v -0.437499 0.869200 0.437384
v 0.443149 0.869200 -0.443258
v -0.619887 0.869200 -0.002934
v 0.002821 0.869200 -0.625646
v -0.437502 0.869200 -0.443261
v 0.625537 0.984932 -0.002934
v 0.002824 0.984932 -0.002935
v 0.443149 0.984931 -0.443258
v 0.443151 0.984932 0.437391
v 0.002821 0.984931 -0.625646
v 0.002824 0.984932 0.619776
v -0.437502 0.984931 -0.443261
v -0.437499 0.984932 0.437384
v -0.619887 0.984932 -0.002934
v 0.908920 0.000000 -0.378217
v 0.696324 0.156700 -0.696390
v 0.696324 0.000000 -0.696390
v 0.908920 0.156699 -0.378217
v 0.983574 0.000000 -0.002906
v 0.983574 0.156699 -0.002906
v 0.908921 0.000000 0.372404
v 0.908921 0.156699 0.372404
v 0.696324 0.000000 0.690577
v 0.696324 0.156699 0.690577
v 0.378151 0.156700 -0.908986
v 0.696324 0.000000 -0.696390
v 0.696324 0.156700 -0.696390
v 0.378151 0.000000 -0.908986
v 0.002840 0.156700 -0.983640
v 0.002840 0.000000 -0.983640
v -0.372470 0.156700 -0.908986
v -0.372470 0.000000 -0.908986
v -0.690643 0.156700 -0.696390
v -0.690643 0.000000 -0.696390
v -0.903240 0.156699 -0.378217
v -0.690643 0.000000 -0.696390
v -0.690643 0.156700 -0.696390
v -0.903240 0.000000 -0.378217
v -0.977894 0.156699 -0.002906
v -0.977894 0.000000 -0.002906
v -0.903240 0.156699 0.372404
v -0.903240 0.000000 0.372404
v -0.690643 0.156699 0.690577
v -0.690643 0.000000 0.690577
v -0.372470 0.156699 0.903174
v -0.690643 0.000000 0.690577
v -0.690643 0.156699 0.690577
v -0.372470 0.000000 0.903174
v 0.002840 0.156699 0.977828
v 0.002840 0.000000 0.977828
v 0.378151 0.156699 0.903174
v 0.378151 0.000000 0.903174
v 0.696324 0.156699 0.690577
v 0.696324 0.000000 0.690577
v 0.908920 0.156699 -0.378217
v 0.002840 0.156699 -0.002906
v 0.696324 0.156700 -0.696390
v 0.983574 0.156699 -0.002906
v 0.378151 0.156700 -0.908986
v 0.908921 0.156699 0.372404
v 0.002840 0.156700 -0.983640
v 0.696324 0.156699 0.690577
v -0.372470 0.156700 -0.908986
v 0.378151 0.156699 0.903174
v -0.690643 0.156700 -0.696390
v 0.002840 0.156699 0.977828
v -0.903240 0.156699 -0.378217
v -0.372470 0.156699 0.903174
v -0.977894 0.156699 -0.002906
v -0.690643 0.156699 0.690577
v -0.903240 0.156699 0.372404
v 0.496260 1.539881 4.091595
v 0.392142 1.539881 3.185835
v 0.465764 1.613504 4.091595
v 0.465764 1.466259 4.091595
v 0.465764 1.613504 4.091595
v 0.392142 1.539881 3.185835
v 0.392142 1.643999 4.091595
v 0.318520 1.613504 4.091595
v 0.318520 1.613504 4.091595
v 0.392142 1.539881 3.185835
v 0.288024 1.539881 4.091595
v 0.318520 1.466259 4.091595
v 0.318520 1.466259 4.091595
v 0.392142 1.539881 3.185835
v 0.392142 1.435763 4.091595
v 0.465764 1.466259 4.091595
v 0.503508 1.642753 -1.897209
v 0.280775 1.437013 -1.897210
v 0.503508 1.437013 -1.897210
v 0.280775 1.642753 -1.897209
v 0.280775 1.642753 -1.696229
v 0.503508 1.642753 -1.897209
v 0.503508 1.642753 -1.696229
v 0.280775 1.642753 -1.897209
v 0.503508 1.642753 -1.696229
v 0.503508 1.437013 -1.897210
v 0.503508 1.437013 -1.696229
v 0.503508 1.642753 -1.897209
v 0.503508 1.437013 -1.696229
v 0.280775 1.437013 -1.897210
v 0.280775 1.437013 -1.696229
v 0.503508 1.437013 -1.897210
v 0.280775 1.437013 -1.696229
v 0.280775 1.642753 -1.897209
v 0.280775 1.642753 -1.696229
v 0.280775 1.437013 -1.897210
v 0.289218 1.642805 3.847773
v 0.190064 1.539882 -0.002906
v 0.249252 1.682773 -0.002906
v 0.246586 1.539881 3.847774
v 0.249252 1.396992 -0.002906
v 0.289218 1.436957 3.847774
v 0.277356 1.425095 4.050455
v 0.229810 1.539881 4.050455
v 0.277356 1.654667 4.050455
v 0.289218 1.436957 3.847774
v 0.392142 1.337805 -0.002906
v 0.249252 1.396992 -0.002906
v 0.392142 1.394325 3.847774
v 0.495065 1.436957 3.847774
v 0.535032 1.396992 -0.002906
v 0.506928 1.425095 4.050455
v 0.392142 1.377549 4.050455
v 0.277356 1.425095 4.050455
v 0.594501 1.742242 -1.696226
v 0.604092 1.539882 2.003378
v 0.542013 1.689754 2.003378
v 0.678321 1.539882 -1.696226
v 0.542013 1.390011 2.003378
v 0.594501 1.337524 -1.696226
v 0.392142 1.751832 2.003378
v 0.594501 1.742242 -1.696226
v 0.542013 1.689754 2.003378
v 0.392142 1.826062 -1.696225
v 0.189783 1.742242 -1.696225
v 0.242270 1.689754 2.003378
v 0.242270 1.689754 2.003378
v 0.105963 1.539882 -1.696226
v 0.189783 1.742242 -1.696225
v 0.180192 1.539882 2.003378
v 0.242270 1.390011 2.003378
v 0.189783 1.337524 -1.696226
v 0.392142 1.327932 2.003378
v 0.189783 1.337524 -1.696226
v 0.242270 1.390011 2.003378
v 0.392142 1.253704 -1.696227
v 0.542013 1.390011 2.003378
v 0.594501 1.337524 -1.696226
v 0.254714 1.334234 -1.825474
v 0.254715 1.745533 -1.149413
v 0.254715 1.334232 -1.149412
v 0.254713 1.745533 -1.825472
v 0.697212 1.745534 -1.825472
v 0.697217 1.334232 -1.149412
v 0.697217 1.745533 -1.149412
v 0.697212 1.334234 -1.825474
v 0.697212 1.745534 -1.825472
v 0.254715 1.745533 -1.149413
v 0.254713 1.745533 -1.825472
v 0.697217 1.745533 -1.149412
v 0.697212 1.334234 -1.825474
v 0.254715 1.334232 -1.149412
v 0.697217 1.334232 -1.149412
v 0.254714 1.334234 -1.825474
v 0.491473 2.087680 -1.565544
v 0.532625 1.988351 0.965396
v 0.491478 2.087682 0.965396
v 0.532617 1.988350 -1.565544
v 0.491478 1.889021 0.965396
v 0.491473 1.889020 -1.565544
v 0.491478 2.087682 0.965396
v 0.392142 2.128824 -1.565544
v 0.491473 2.087680 -1.565544
v 0.392150 2.128826 0.965396
v 0.292811 2.087680 -1.565544
v 0.292819 2.087682 0.965396
v 0.292819 2.087682 0.965396
v 0.251670 1.988350 -1.565544
v 0.292811 2.087680 -1.565544
v 0.251675 1.988351 0.965396
v 0.292812 1.889020 -1.565544
v 0.292819 1.889021 0.965396
v 0.292819 1.889021 0.965396
v 0.392142 1.847877 -1.565544
v 0.292812 1.889020 -1.565544
v 0.392150 1.847878 0.965396
v 0.491473 1.889020 -1.565544
v 0.491478 1.889021 0.965396
v 0.491473 2.087680 -1.565544
v 0.491473 1.889020 -1.565544
v 0.532617 1.988350 -1.565544
v 0.392142 2.128824 -1.565544
v 0.392142 1.847877 -1.565544
v 0.292811 2.087680 -1.565544
v 0.292812 1.889020 -1.565544
v 0.251670 1.988350 -1.565544
v 0.773777 1.474570 -1.337773
v 0.773776 1.189956 -1.078064
v 0.773776 1.474571 -1.078064
v 0.773777 1.189955 -1.337773
v 0.010509 1.474571 -1.337773
v 0.010508 1.189957 -1.078064
v 0.010509 1.189956 -1.337773
v 0.010508 1.474571 -1.078064
v 0.157037 2.194916 -1.078054
v 0.627245 2.194914 -1.337770
v 0.627243 2.194916 -1.078054
v 0.157038 2.194914 -1.337770
v 0.773776 1.474571 -1.078064
v 0.157037 2.194916 -1.078054
v 0.627243 2.194916 -1.078054
v 0.010508 1.474571 -1.078064
v 0.010508 1.189957 -1.078064
v 0.773776 1.189956 -1.078064
v 0.773777 1.189955 -1.337773
v 0.010508 1.189957 -1.078064
v 0.773776 1.189956 -1.078064
v 0.010509 1.189956 -1.337773
v 0.773777 1.474570 -1.337773
v 0.010509 1.189956 -1.337773
v 0.773777 1.189955 -1.337773
v 0.010509 1.474571 -1.337773
v 0.157038 2.194914 -1.337770
v 0.627245 2.194914 -1.337770
v 0.773777 1.474570 -1.337773
v 0.627243 2.194916 -1.078054
v 0.627245 2.194914 -1.337770
v 0.773776 1.474571 -1.078064
v 0.010508 1.474571 -1.078064
v 0.157038 2.194914 -1.337770
v 0.157037 2.194916 -1.078054
v 0.010509 1.474571 -1.337773
v 0.725307 2.009899 -0.786156
v 0.725314 1.152235 0.514077
v 0.725314 2.009901 0.514075
v 0.725308 1.152233 -0.786154
v 0.058981 1.152233 -0.786154
v 0.058987 2.009901 0.514075
v 0.058987 1.152235 0.514075
v 0.058980 2.009899 -0.786156
v 0.195086 2.146005 -0.786156
v 0.589209 2.146007 0.514075
v 0.195092 2.146007 0.514075
v 0.589202 2.146005 -0.786156
v 0.725308 1.152233 -0.786154
v 0.058987 1.152235 0.514075
v 0.725314 1.152235 0.514077
v 0.058981 1.152233 -0.786154
v 0.058987 2.009901 0.514075
v 0.725314 1.152235 0.514077
v 0.058987 1.152235 0.514075
v 0.725314 2.009901 0.514075
v 0.589209 2.146007 0.514075
v 0.195092 2.146007 0.514075
v 0.697212 1.745534 -1.825472
v 0.254714 1.334234 -1.825474
v 0.697212 1.334234 -1.825474
v 0.254713 1.745533 -1.825472
v 0.542013 1.689754 2.003378
v 0.392142 1.539882 2.358201
v 0.392142 1.751832 2.003378
v 0.242270 1.689754 2.003378
v 0.242270 1.689754 2.003378
v 0.392142 1.539882 2.358201
v 0.180192 1.539882 2.003378
v 0.242270 1.390011 2.003378
v 0.242270 1.390011 2.003378
v 0.392142 1.539882 2.358201
v 0.392142 1.327932 2.003378
v 0.542013 1.390011 2.003378
v 0.542013 1.390011 2.003378
v 0.392142 1.539882 2.358201
v 0.604092 1.539882 2.003378
v 0.542013 1.689754 2.003378
v 0.554474 1.539881 4.050455
v 0.495065 1.436957 3.847774
v 0.506928 1.425095 4.050455
v 0.537698 1.539881 3.847775
v 0.535032 1.396992 -0.002906
v 0.506928 1.654667 4.050455
v 0.594219 1.539882 -0.002905
v 0.495065 1.642805 3.847774
v 0.535032 1.682773 -0.002906
v 0.725307 2.009899 -0.786156
v 0.589209 2.146007 0.514075
v 0.589202 2.146005 -0.786156
v 0.725314 2.009901 0.514075
v 0.058987 2.009901 0.514075
v 0.195086 2.146005 -0.786156
v 0.195092 2.146007 0.514075
v 0.058980 2.009899 -0.786156
v 0.595054 1.742793 0.743585
v 0.670717 1.539881 1.068769
v 0.589124 1.736864 1.068769
v 0.679102 1.539881 0.743585
v 0.589124 1.342899 1.068769
v 0.595054 1.336970 0.743584
v 0.392142 1.818458 1.068769
v 0.595054 1.742793 0.743585
v 0.589124 1.736864 1.068769
v 0.392142 1.826843 0.743585
v 0.189230 1.742793 0.743585
v 0.195159 1.736864 1.068769
v 0.195159 1.736864 1.068769
v 0.105181 1.539881 0.743585
v 0.189230 1.742793 0.743585
v 0.113566 1.539881 1.068769
v 0.195159 1.342899 1.068769
v 0.189230 1.336970 0.743584
v 0.392142 1.261306 1.068769
v 0.189230 1.336970 0.743584
v 0.195159 1.342899 1.068769
v 0.392142 1.252921 0.743583
v 0.589124 1.342899 1.068769
v 0.595054 1.336970 0.743584
v 0.589124 1.736864 1.068769
v 0.392142 1.539882 1.423592
v 0.392142 1.818458 1.068769
v 0.195159 1.736864 1.068769
v 0.195159 1.736864 1.068769
v 0.392142 1.539882 1.423592
v 0.113566 1.539881 1.068769
v 0.195159 1.342899 1.068769
v 0.195159 1.342899 1.068769
v 0.392142 1.539882 1.423592
v 0.392142 1.261306 1.068769
v 0.589124 1.342899 1.068769
v 0.589124 1.342899 1.068769
v 0.392142 1.539882 1.423592
v 0.670717 1.539881 1.068769
v 0.589124 1.736864 1.068769
v 0.725307 2.009899 -0.786156
v 0.058981 1.152233 -0.786154
v 0.725308 1.152233 -0.786154
v 0.058980 2.009899 -0.786156
v 0.195086 2.146005 -0.786156
v 0.589202 2.146005 -0.786156
v 0.535032 1.682773 -0.002906
v 0.392142 1.685437 3.847774
v 0.392142 1.741960 -0.002906
v 0.495065 1.642805 3.847774
v 0.249252 1.682773 -0.002906
v 0.506928 1.654667 4.050455
v 0.289218 1.642805 3.847773
v 0.392142 1.702213 4.050455
v 0.277356 1.654667 4.050455
v 0.532625 1.988351 0.965396
v 0.392149 1.988351 1.013398
v 0.491478 2.087682 0.965396
v 0.491478 1.889021 0.965396
v 0.392150 2.128826 0.965396
v 0.392150 1.847878 0.965396
v 0.292819 2.087682 0.965396
v 0.292819 1.889021 0.965396
v 0.251675 1.988351 0.965396
v 0.678321 1.539882 -1.696226
v 0.392142 1.539883 -1.775007
v 0.594501 1.337524 -1.696226
v 0.594501 1.742242 -1.696226
v 0.392142 1.253704 -1.696227
v 0.392142 1.826062 -1.696225
v 0.189783 1.337524 -1.696226
v 0.189783 1.742242 -1.696225
v 0.105963 1.539882 -1.696226
v 0.554474 1.539881 4.050455
v 0.465764 1.613504 4.091595
v 0.506928 1.654667 4.050455
v 0.496260 1.539881 4.091595
v 0.392142 1.643999 4.091595
v 0.506928 1.425095 4.050455
v 0.392142 1.702213 4.050455
v 0.465764 1.466259 4.091595
v 0.318520 1.613504 4.091595
v 0.392142 1.377549 4.050455
v 0.277356 1.654667 4.050455
v 0.392142 1.435763 4.091595
v 0.288024 1.539881 4.091595
v 0.277356 1.425095 4.050455
v 0.229810 1.539881 4.050455
v 0.318520 1.466259 4.091595
v 0.914206 0.535624 -0.914206
v 0.914206 2.535624 -0.914206
v 1.074993 0.535624 -0.718287
v 1.074993 2.535624 -0.718287
v 1.194468 0.535624 -0.494765
v 1.194468 2.535624 -0.494765
v 1.268040 0.535624 -0.252229
v 1.268040 2.535624 -0.252229
v 1.292883 0.535624 0.000000
v 1.292883 2.535624 0.000000
v 1.268040 0.535624 0.252229
v 1.268040 2.535624 0.252229
v 1.194468 0.535624 0.494765
v 1.194468 2.535624 0.494765
v 1.074993 0.535624 0.718287
v 1.074993 2.535624 0.718287
v 0.914206 0.535624 0.914206
v 0.914206 2.535624 0.914206
v 0.718287 0.535624 1.074993
v 0.718287 2.535624 1.074993
v 0.494765 0.535624 1.194468
v 0.494765 2.535624 1.194468
v 0.252229 0.535624 1.268040
v 0.252229 2.535624 1.268040
v 0.000000 0.535624 1.292883
v 0.000000 2.535624 1.292883
v -0.252229 0.535624 1.268040
v -0.252229 2.535624 1.268040
v -0.494765 0.535624 1.194468
v -0.494765 2.535624 1.194468
v -0.718287 0.535624 1.074993
v -0.718287 2.535624 1.074993
v -0.914206 0.535624 0.914206
v -0.914206 2.535624 0.914206
v -1.074993 0.535624 0.718287
v -1.074993 2.535624 0.718287
v -1.194468 0.535624 0.494765
v -1.194468 2.535624 0.494765
v -1.268040 0.535624 0.252229
v -1.268040 2.535624 0.252229
v -1.292883 0.535624 0.000000
v -1.292883 2.535624 0.000000
v -1.268040 0.535624 -0.252229
v -1.268040 2.535624 -0.252229
v -1.194468 0.535624 -0.494765
v -1.194468 2.535624 -0.494765
v -1.074993 0.535624 -0.718287
v -1.074993 2.535624 -0.718287
v -0.914206 0.535624 -0.914206
v -0.914206 2.535624 -0.914206
v 0.864814 0.535624 -0.864814
v 0.864814 2.535624 -0.864814
v 1.016914 0.535624 -0.679480
v 1.016914 2.535624 -0.679480
v 1.129934 0.535624 -0.468034
v 1.129934 2.535624 -0.468034
v 1.199531 0.535624 -0.238602
v 1.199531 2.535624 -0.238602
v 1.223032 0.535624 0.000000
v 1.223032 2.535624 0.000000
v 1.199531 0.535624 0.238602
v 1.199531 2.535624 0.238602
v 1.129934 0.535624 0.468034
v 1.129934 2.535624 0.468034
v 1.016914 0.535624 0.679480
v 1.016914 2.535624 0.679480
v 0.864814 0.535624 0.864814
v 0.864814 2.535624 0.864814
v 0.679480 0.535624 1.016914
v 0.679480 2.535624 1.016914
v 0.468034 0.535624 1.129934
v 0.468034 2.535624 1.129934
v 0.238602 0.535624 1.199531
v 0.238602 2.535624 1.199531
v 0.000000 0.535624 1.223032
v 0.000000 2.535624 1.223032
v -0.238602 0.535624 1.199531
v -0.238602 2.535624 1.199531
v -0.468034 0.535624 1.129934
v -0.468034 2.535624 1.129934
v -0.679480 0.535624 1.016914
v -0.679480 2.535624 1.016914
v -0.864814 0.535624 0.864814
v -0.864814 2.535624 0.864814
v -1.016914 0.535624 0.679480
v -1.016914 2.535624 0.679480
v -1.129934 0.535624 0.468034
v -1.129934 2.535624 0.468034
v -1.199531 0.535624 0.238602
v -1.199531 2.535624 0.238602
v -1.223032 0.535624 0.000000
v -1.223032 2.535624 0.000000
v -1.199531 0.535624 -0.238602
v -1.199531 2.535624 -0.238602
v -1.129934 0.535624 -0.468034
v -1.129934 2.535624 -0.468034
v -1.016914 0.535624 -0.679480
v -1.016914 2.535624 -0.679480
v -0.864814 0.535624 -0.864814
v -0.864814 2.535624 -0.864814
v 0.718287 1.423491 1.074993
v 0.606526 0.535624 1.134730
v 0.606526 2.535624 1.134730
v 0.494765 1.100001 1.194468
v 0.373497 0.535624 1.231254
v 0.373497 2.535624 1.231254
v 0.252229 1.168354 1.268040
v 0.126114 0.535624 1.280461
v 0.126114 2.535624 1.280461
v -0.126114 0.535624 1.280461
v -0.126114 2.535624 1.280461
v -0.252229 1.168358 1.268040
v -0.373497 0.535624 1.231254
v -0.373497 2.535624 1.231254
v -0.494765 1.100001 1.194468
v -0.606526 0.535624 1.134730
v -0.606526 2.535624 1.134730
v -0.718287 1.423491 1.074993
v 0.718287 1.842678 1.074993
v 0.494765 2.086649 1.194468
v 0.252229 2.035624 1.268040
v -0.252229 2.035624 1.268040
v -0.494765 2.086649 1.194468
v -0.718287 1.842678 1.074993
v 0.606526 1.168358 1.134730
v 0.373497 1.099996 1.231254
v 0.126114 1.423491 1.280461
v -0.126114 1.423491 1.280461
v -0.373497 1.100001 1.231254
v -0.606526 1.168358 1.134730
v -0.606526 2.035624 1.134730
v -0.373497 2.086649 1.231254
v -0.126114 1.842678 1.280461
v 0.126114 1.842678 1.280461
v 0.373497 2.086649 1.231254
v 0.606526 2.035624 1.134730
v 0.679480 1.423491 1.016914
v 0.573757 0.535624 1.073424
v 0.573757 2.535624 1.073424
v 0.468034 1.100001 1.129934
v 0.353318 0.535624 1.164732
v 0.353318 2.535624 1.164732
v 0.238602 1.168354 1.199531
v 0.119301 0.535624 1.211281
v 0.119301 2.535624 1.211281
v -0.119301 0.535624 1.211281
v -0.119301 2.535624 1.211281
v -0.238602 1.168358 1.199531
v -0.353318 0.535624 1.164732
v -0.353318 2.535624 1.164732
v -0.468034 1.100001 1.129934
v -0.573757 0.535624 1.073424
v -0.573757 2.535624 1.073424
v -0.679480 1.423491 1.016914
v 0.679480 1.842678 1.016914
v 0.468034 2.086649 1.129934
v 0.238602 2.035624 1.199531
v -0.238602 2.035624 1.199531
v -0.468034 2.086649 1.129934
v -0.679480 1.842678 1.016914
v 0.573757 1.168358 1.073424
v 0.353318 1.100001 1.164732
v 0.119301 1.423491 1.211281
v -0.119301 1.423491 1.211281
v -0.353318 1.100001 1.164732
v -0.573757 1.168358 1.073424
v -0.573757 2.035624 1.073424
v -0.353318 2.086649 1.164732
v -0.119301 1.842678 1.211281
v 0.119301 1.842678 1.211281
v 0.353318 2.086649 1.164732
v 0.573757 2.035624 1.073424
v 1.018825 0.749624 0.820256
v 1.018825 0.815797 0.820256
v 1.088691 0.636222 0.309910
v 1.088691 1.255599 0.309910
v 0.815149 0.749624 1.035811
v 0.815149 0.815797 1.035811
v 0.729248 0.636222 0.309910
v 0.729248 1.255599 0.309910
v 1.088691 0.636222 0.752527
v 1.088691 1.255599 0.752527
v 0.729248 1.255600 1.132936
v 0.729248 0.636222 1.132936
v 1.074417 0.706197 0.842902
v 1.074417 1.185624 0.842902
v 0.811091 1.185624 1.121587
v 0.811091 0.706197 1.121587
v -1.018824 0.749624 0.820256
v -1.018824 0.815797 0.820256
v -1.088691 0.636222 0.309910
v -1.088691 1.255599 0.309910
v -0.815148 0.749624 1.035811
v -0.815148 0.815797 1.035811
v -0.729248 0.636222 0.309910
v -0.729248 1.255599 0.309910
v -1.088691 0.636222 0.752527
v -1.088691 1.255599 0.752527
v -0.729248 1.255600 1.132936
v -0.729248 0.636222 1.132936
v -1.074417 0.706197 0.842902
v -1.074417 1.185624 0.842902
v -0.811091 1.185624 1.121587
v -0.811091 0.706197 1.121587
vn -0.9187 -0.3805 0.1056
vn -0.9187 0.3805 0.1056
vn -0.3805 -0.9187 0.1056
vn 0.3805 -0.9187 0.1056
vn 0.9187 -0.3805 0.1056
vn 0.9187 0.3805 0.1056
vn 0.3805 0.9187 0.1056
vn -0.3805 0.9187 0.1056
vn -0.0000 -0.0000 -1.0000
vn -0.0000 1.0000 -0.0000
vn 1.0000 -0.0000 -0.0000
vn -0.0000 -1.0000 -0.0000
vn -1.0000 -0.0000 -0.0000
vn -0.9238 0.3826 0.0136
vn -0.9234 0.3825 -0.0317
vn -0.9238 -0.3826 0.0136
vn -0.9234 -0.3825 -0.0317
vn -0.9212 -0.3816 -0.0762
vn -0.9212 0.3816 -0.0762
vn -0.3826 -0.9238 0.0136
vn -0.3825 -0.9234 -0.0317
vn 0.3825 -0.9234 -0.0317
vn 0.3826 -0.9238 0.0136
vn 0.3816 -0.9212 -0.0762
vn -0.3816 -0.9212 -0.0762
vn 0.9237 0.3826 0.0185
vn 0.9237 -0.3826 0.0185
vn 0.3826 0.9237 0.0185
vn -0.3826 0.9237 0.0185
vn -0.9237 0.3826 0.0185
vn -0.9237 -0.3826 0.0185
vn -0.3826 -0.9237 0.0185
vn 0.3826 -0.9237 0.0185
vn 0.9239 0.3827 -0.0000
vn 0.9239 -0.3827 -0.0000
vn 0.3827 0.9239 -0.0000
vn -0.3827 0.9239 -0.0000
vn -0.9239 0.3827 -0.0000
vn -0.9239 -0.3827 -0.0000
vn -0.3827 -0.9239 -0.0000
vn 0.3827 -0.9239 -0.0000
vn -0.0000 -0.0000 1.0000
vn 0.9799 0.1993 -0.0000
vn -0.9799 0.1993 -0.0000
vn 0.3351 0.8089 0.4832
vn -0.3351 0.8089 0.4832
vn -0.8089 0.3350 0.4832
vn -0.8089 -0.3350 0.4832
vn -0.3350 -0.8089 0.4832
vn 0.3350 -0.8089 0.4832
vn 0.8089 -0.3350 0.4832
vn 0.8089 0.3350 0.4832
vn 0.9212 -0.3816 -0.0762
vn 0.9234 -0.3825 -0.0317
vn 0.9238 -0.3826 0.0136
vn 0.9212 0.3816 -0.0762
vn 0.9234 0.3825 -0.0317
vn 0.9238 0.3826 0.0136
vn 0.7071 0.7071 -0.0000
vn -0.7071 0.7071 -0.0000
vn 0.9236 0.3826 0.0238
vn 0.9236 -0.3826 0.0238
vn 0.3826 0.9236 0.0238
vn -0.3826 0.9236 0.0238
vn -0.9236 0.3826 0.0238
vn -0.9236 -0.3826 0.0238
vn -0.3826 -0.9236 0.0238
vn 0.3826 -0.9236 0.0238
vn 0.3098 0.7479 0.5872
vn -0.3098 0.7479 0.5872
vn -0.7479 0.3098 0.5872
vn -0.7479 -0.3098 0.5872
vn -0.3098 -0.7479 0.5872
vn 0.3098 -0.7479 0.5872
vn 0.7479 -0.3098 0.5872
vn 0.7479 0.3098 0.5872
vn 0.3826 0.9238 0.0136
vn 0.3825 0.9234 -0.0317
vn -0.3826 0.9238 0.0136
vn -0.3825 0.9234 -0.0317
vn 0.3816 0.9212 -0.0762
vn -0.3816 0.9212 -0.0762
vn 0.2286 0.2286 0.9463
vn 0.3233 -0.0000 0.9463
vn 0.2286 -0.2286 0.9463
vn -0.0000 0.3234 0.9463
vn -0.0000 -0.3234 0.9463
vn -0.2286 0.2286 0.9463
vn -0.2286 -0.2286 0.9463
vn -0.3234 -0.0000 0.9463
vn 0.1877 -0.1877 -0.9641
vn 0.2654 -0.0000 -0.9641
vn 0.1877 0.1877 -0.9641
vn -0.0000 -0.2654 -0.9641
vn -0.0000 0.2654 -0.9641
vn -0.1877 -0.1877 -0.9641
vn -0.1877 0.1877 -0.9641
vn -0.2654 -0.0000 -0.9641
vn 0.4081 0.4081 0.8167
vn 0.5771 -0.0000 0.8167
vn -0.0000 0.5771 0.8167
vn 0.4081 -0.4081 0.8167
vn -0.4081 0.4081 0.8167
vn -0.0000 -0.5771 0.8167
vn -0.5771 -0.0000 0.8167
vn -0.4081 -0.4081 0.8167
vn 0.7071 -0.0000 0.7071
vn -0.7071 -0.0000 -0.7071
vn -0.7071 -0.0000 0.7071
vn 0.7071 -0.0000 -0.7071
vn -0.0000 0.4497 0.8932
vn -0.0000 0.4497 -0.8932
vn 0.9147 0.1406 0.3789
vn 0.9142 0.1441 -0.3787
vn 0.3790 0.1381 0.9150
vn -0.3790 0.1381 0.9150
vn -0.9147 0.1406 0.3789
vn -0.9142 0.1441 -0.3787
vn -0.3785 0.1466 -0.9139
vn 0.3785 0.1466 -0.9139
vn -0.0000 0.3827 0.9239
vn -0.0000 -0.3827 0.9239
vn -0.0000 0.9239 0.3827
vn -0.0000 0.9239 -0.3827
vn -0.0000 0.3827 -0.9239
vn -0.0000 -0.3827 -0.9239
vn -0.0000 -0.9239 -0.3827
vn -0.0000 -0.9239 0.3827
vn -0.0000 0.5109 0.8596
vn -0.8596 0.5109 -0.0000
vn -0.0000 0.5109 -0.8596
vn 0.8596 0.5109 -0.0000
vn -0.6078 0.5109 0.6078
vn -0.6078 0.5109 -0.6078
vn 0.6078 0.5109 -0.6078
vn 0.6078 0.5109 0.6078
vn 0.9239 -0.0000 0.3827
vn 0.9239 -0.0000 -0.3827
vn 0.3827 -0.0000 0.9239
vn -0.3827 -0.0000 0.9239
vn -0.9239 -0.0000 0.3827
vn -0.9239 -0.0000 -0.3827
vn -0.3827 -0.0000 -0.9239
vn 0.3827 -0.0000 -0.9239
vn 0.8315 -0.0000 -0.5556
vn 0.8315 -0.0000 0.5556
vn 0.5556 -0.0000 -0.8315
vn -0.5556 -0.0000 -0.8315
vn -0.8315 -0.0000 -0.5556
vn -0.8315 -0.0000 0.5556
vn -0.5556 -0.0000 0.8315
vn 0.5556 -0.0000 0.8315
vn 0.7730 -0.0000 -0.6344
vn 0.8819 -0.0000 -0.4714
vn 0.9569 -0.0000 -0.2903
vn 0.9952 -0.0000 -0.0980
vn 0.9952 -0.0000 0.0980
vn 0.9569 -0.0000 0.2903
vn 0.8819 -0.0000 0.4714
vn 0.7730 -0.0000 0.6344
vn 0.6344 -0.0000 0.7730
vn 0.4714 -0.0000 0.8819
vn 0.2903 -0.0000 0.9569
vn 0.8908 0.4347 -0.1322
vn -0.0980 -0.0000 0.9952
vn -0.2903 -0.0000 0.9569
vn -0.4714 -0.0000 0.8819
vn -0.6344 -0.0000 0.7730
vn -0.7730 -0.0000 0.6344
vn -0.8819 -0.0000 0.4714
vn -0.9569 -0.0000 0.2903
vn -0.9952 -0.0000 0.0980
vn -0.9952 -0.0000 -0.0980
vn -0.9569 -0.0000 -0.2903
vn -0.8819 -0.0000 -0.4714
vn -0.7730 -0.0000 -0.6344
vn -0.7724 0.4347 0.4631
vn 0.0980 -0.0000 0.9952
vn -0.4387 0.8743 0.2074
vn -0.8908 0.4347 -0.1322
vn -0.4708 0.8743 -0.1179
vn 0.4387 0.8743 0.2074
vn 0.7724 0.4347 0.4631
vn 0.7230 -0.5380 0.4334
vn 0.3460 -0.9238 0.1636
vn -0.3713 -0.9238 -0.0930
vn -0.8338 -0.5380 -0.1238
vn 0.8338 -0.5380 -0.1238
vn 0.3713 -0.9238 -0.0930
vn -0.3460 -0.9238 0.1636
vn -0.7230 -0.5380 0.4334
vn 0.4708 0.8743 -0.1178
vn -0.7269 -0.0000 -0.6868
vn -0.9878 -0.0000 -0.1560
vn -0.1374 -0.0000 -0.9905
vn -0.5846 0.5942 -0.5524
vn -0.5846 -0.5942 -0.5524
vn 0.3773 -0.0000 -0.9261
vn -0.9989 -0.0000 -0.0473
vn -0.4456 -0.7900 -0.4211
vn -0.7187 0.1496 -0.6791
vn -0.7269 -0.0000 0.6868
vn -0.9878 -0.0000 0.1560
vn -0.1374 -0.0000 0.9905
vn -0.5846 -0.5942 0.5524
vn -0.5846 0.5942 0.5524
vn 0.3773 -0.0000 0.9261
vn -0.9989 -0.0000 0.0472
vn -0.4456 0.7900 0.4211
vn -0.7187 -0.1496 0.6791
vt -2.211686 0.524549
vt -2.225396 0.523428
vt -2.211686 0.523428
vt -2.211686 0.522308
vt 0.499999 3.211686
vt 0.499999 3.225396
vt 0.498878 3.211686
vt 0.501120 3.211686
vt 3.211686 0.523428
vt 3.225396 0.523428
vt 3.211686 0.524549
vt 3.211686 0.522308
vt 0.500001 3.211686
vt 0.500001 3.225396
vt 0.498880 3.211686
vt 0.501122 3.211686
vt 0.498303 0.521863
vt 0.501695 0.521863
vt 0.498303 0.524994
vt 0.501695 0.524994
vt 0.501697 3.299289
vt 0.501697 3.302331
vt 0.498305 3.299289
vt 0.498305 3.302331
vt 3.299289 0.521863
vt 3.302331 0.521863
vt 3.299289 0.524994
vt 3.302331 0.524994
vt 0.501695 3.299289
vt 0.501695 3.302331
vt 0.498303 3.299289
vt 0.498303 3.302331
vt -2.299289 0.524994
vt -2.302331 0.524994
vt -2.299289 0.521863
vt -2.302331 0.521863
vt -2.273660 0.525603
vt -2.273660 0.523428
vt -2.215377 0.524994
vt -2.215377 0.523428
vt -2.273660 0.521254
vt -2.215377 0.521863
vt -2.212309 0.521682
vt -2.212309 0.523428
vt -2.212309 0.525175
vt 0.502175 3.273660
vt 0.499999 3.273660
vt 0.501566 3.215377
vt 0.499999 3.215377
vt 0.498432 3.215377
vt 0.497823 3.273660
vt 0.498251 3.212309
vt 0.499999 3.212309
vt 0.501747 3.212309
vt 3.243293 0.525709
vt 3.243293 0.523428
vt 3.299289 0.526507
vt 3.299289 0.523428
vt 3.243293 0.521148
vt 3.299289 0.520350
vt 0.502283 3.243293
vt 0.503082 3.299289
vt 0.500001 3.243293
vt 0.500001 3.299289
vt 0.496920 3.299289
vt 0.497719 3.243293
vt -2.299289 0.526507
vt -2.299289 0.523428
vt -2.243293 0.525709
vt -2.243293 0.523428
vt -2.243293 0.521148
vt -2.299289 0.520350
vt 0.502281 3.243293
vt 0.503080 3.299289
vt 0.499999 3.243293
vt 0.499999 3.299289
vt 0.497717 3.243293
vt 0.496918 3.299289
vt -2.291013 0.520300
vt -2.291013 0.526557
vt -2.301246 0.520300
vt -2.301246 0.526557
vt 3.291013 0.526557
vt 3.291013 0.520300
vt 3.301246 0.526557
vt 3.301246 0.520300
vt 0.497908 3.301246
vt 0.497908 3.291013
vt 0.504646 3.301246
vt 0.504647 3.291013
vt 0.495353 3.291013
vt 0.502092 3.291013
vt 0.495354 3.301246
vt 0.502092 3.301246
vt 3.259004 0.531763
vt 3.259004 0.530252
vt 3.297311 0.531763
vt 3.297311 0.530252
vt 3.259004 0.528741
vt 3.297311 0.528741
vt 0.501514 3.297311
vt 0.500001 3.297311
vt 0.501514 3.259004
vt 0.500001 3.259004
vt 0.498489 3.297311
vt 0.498489 3.259004
vt -2.297311 0.531763
vt -2.297311 0.530252
vt -2.259004 0.531763
vt -2.259004 0.530252
vt -2.297311 0.528741
vt -2.259004 0.528741
vt 0.501511 3.297311
vt 0.499999 3.297311
vt 0.501511 3.259004
vt 0.499999 3.259004
vt 0.498486 3.297311
vt 0.498486 3.259004
vt 0.497860 0.530252
vt 0.498486 0.528741
vt 0.498486 0.531763
vt 0.499999 0.532389
vt 0.499999 0.528115
vt 0.501511 0.531763
vt 0.501511 0.528741
vt 0.502138 0.530252
vt 3.289933 0.522435
vt 3.289933 0.518104
vt 3.293864 0.522435
vt 3.293864 0.518104
vt -2.293864 0.518104
vt -2.289933 0.518104
vt -2.293864 0.522435
vt -2.289933 0.522435
vt 0.503581 3.289933
vt 0.503581 3.293864
vt 0.496421 3.289933
vt 0.496421 3.293864
vt 0.503581 0.533395
vt 0.496421 0.533395
vt 0.505812 0.522435
vt 0.494190 0.522435
vt 0.494190 0.518104
vt 0.505812 0.518104
vt 0.494188 3.289933
vt 0.505810 3.289933
vt 0.494188 3.293864
vt 0.505810 3.293864
vt 0.494188 0.518104
vt 0.505810 0.518104
vt 0.494188 0.522435
vt 0.505810 0.522435
vt 0.503579 0.533395
vt 0.496419 0.533395
vt 3.293864 0.533395
vt 3.289933 0.533395
vt -2.289933 0.533395
vt -2.293864 0.533395
vt 3.265835 0.530580
vt 3.265835 0.517531
vt 3.285515 0.530580
vt 3.285515 0.517531
vt -2.265835 0.517531
vt -2.265835 0.530580
vt -2.285515 0.517531
vt -2.285515 0.530580
vt 0.497001 3.265835
vt 0.503002 3.265835
vt 0.497000 3.285515
vt 0.503002 3.285515
vt 0.494926 3.265835
vt 0.505072 3.265835
vt 0.494926 3.285515
vt 0.505072 3.285515
vt 0.494928 0.517531
vt 0.505074 0.517531
vt 0.494928 0.530580
vt 0.505074 0.530580
vt 0.503002 0.532651
vt 0.497001 0.532651
vt 0.495354 0.520300
vt 0.502092 0.520300
vt 0.495354 0.526557
vt 0.502092 0.526557
vt 0.500001 3.237923
vt -2.237923 0.523428
vt 0.499999 3.237923
vt 3.237923 0.523428
vt 3.212309 0.521682
vt 3.215377 0.521863
vt 3.212309 0.523428
vt 3.215377 0.523428
vt 3.273660 0.521254
vt 3.212309 0.525175
vt 3.273660 0.523428
vt 3.215377 0.524994
vt 3.273660 0.525603
vt 3.285515 0.532651
vt 3.265835 0.532651
vt -2.265835 0.532651
vt -2.285515 0.532651
vt 3.257439 0.526426
vt 3.257439 0.523428
vt 3.262361 0.526516
vt 3.262361 0.523428
vt 3.257439 0.520431
vt 3.262361 0.520341
vt 0.503001 3.257439
vt 0.503091 3.262361
vt 0.500001 3.257439
vt 0.500001 3.262361
vt 0.496911 3.262361
vt 0.497002 3.257439
vt -2.262361 0.526516
vt -2.262361 0.523428
vt -2.257439 0.526426
vt -2.257439 0.523428
vt -2.257439 0.520431
vt -2.262361 0.520341
vt 0.502998 3.257439
vt 0.503089 3.262361
vt 0.499999 3.257439
vt 0.499999 3.262361
vt 0.496999 3.257439
vt 0.496909 3.262361
vt 0.500001 3.252069
vt -2.252069 0.523428
vt 0.499999 3.252069
vt 3.252069 0.523428
vt 0.494926 0.517531
vt 0.505072 0.517531
vt 0.494926 0.530580
vt 0.505072 0.530580
vt 0.503000 0.532651
vt 0.496998 0.532651
vt 0.500001 3.273660
vt 0.500001 3.215377
vt 0.502177 3.273660
vt 0.501568 3.215377
vt 0.497825 3.273660
vt 0.501749 3.212309
vt 0.498434 3.215377
vt 0.500001 3.212309
vt 0.498253 3.212309
vt 0.501514 0.531763
vt 0.500001 0.530252
vt 0.502140 0.530252
vt 0.501514 0.528741
vt 0.500001 0.532389
vt 0.500001 0.528115
vt 0.498489 0.531763
vt 0.498489 0.528741
vt 0.497862 0.530252
vt 0.496918 0.520350
vt 0.499999 0.523429
vt 0.495641 0.523428
vt 0.496918 0.526507
vt 0.499999 0.519074
vt 0.499999 0.527783
vt 0.503080 0.520350
vt 0.503080 0.526507
vt 0.504357 0.523428
vt 0.501749 0.525175
vt 0.501122 0.524549
vt 0.502473 0.523428
vt 0.501586 0.523428
vt 0.500001 0.525013
vt 0.501749 0.521682
vt 0.500001 0.525898
vt 0.501122 0.522308
vt 0.498880 0.524549
vt 0.500001 0.520959
vt 0.498253 0.525175
vt 0.500001 0.521844
vt 0.498416 0.523428
vt 0.498253 0.521682
vt 0.497529 0.523428
vt 0.498880 0.522308
vt 3.266469 0.502141
vt 3.266469 0.513224
vt 3.259915 0.502141
vt -2.266469 0.502141
vt -2.259915 0.502140
vt -2.266469 0.513224
vt 0.492766 0.502141
vt 0.492766 0.513224
vt 0.486173 0.502141
vt 0.507234 0.502141
vt 0.513827 0.502141
vt 0.507234 0.513224
vt -2.280851 0.502141
vt -2.280851 0.513224
vt -2.287405 0.502141
vt 3.280851 0.502141
vt 3.287405 0.502141
vt 3.280851 0.513224
vt 0.492764 0.502141
vt 0.492764 0.513224
vt 0.486171 0.502141
vt 0.507236 0.502141
vt 0.513829 0.502141
vt 0.507236 0.513224
vt 3.268152 0.502141
vt 3.268152 0.513224
vt 3.263518 0.502141
vt -2.268997 0.502141
vt -2.264363 0.502140
vt -2.268997 0.513224
vt -2.278322 0.502141
vt -2.278322 0.513224
vt -2.282957 0.502141
vt 3.279167 0.502141
vt 3.283801 0.502141
vt 3.279167 0.513224
vt -2.279167 0.502141
vt -2.279167 0.513224
vt -2.283801 0.502141
vt 3.278322 0.502141
vt 3.282956 0.502141
vt 3.278322 0.513224
vt 3.268997 0.502141
vt 3.268997 0.513224
vt 3.264363 0.502141
vt -2.268152 0.502141
vt -2.263518 0.502141
vt -2.268152 0.513224
vt 0.506585 3.277790
vt 0.493418 3.277790
vt 0.506585 3.269529
vt 0.493418 3.269529
vt 0.493418 0.525764
vt 0.506585 0.525764
vt 0.493418 0.531064
vt 0.506585 0.531064
vt 0.506582 0.531064
vt 0.493415 0.531064
vt 0.506582 0.525764
vt 0.493415 0.525764
vt 3.277790 0.531064
vt 3.269529 0.531064
vt 3.280445 0.525764
vt 3.266875 0.525764
vt 3.280445 0.514985
vt 3.266875 0.514985
vt -2.269529 0.531064
vt -2.277790 0.531064
vt -2.266875 0.525764
vt -2.280445 0.525764
vt -2.266875 0.514985
vt -2.280445 0.514985
vt 0.506585 0.514985
vt 0.493418 0.514985
vt 0.506582 0.514985
vt 0.493415 0.514985
vt 3.267832 0.514985
vt 3.266513 0.502384
vt 3.273592 0.514985
vt 3.273652 0.502384
vt 3.279352 0.514985
vt 3.280792 0.502384
vt 0.507184 0.502384
vt 0.505795 0.514985
vt 0.500001 0.502384
vt 0.500001 0.514985
vt 0.492818 0.502384
vt 0.494206 0.514985
vt -2.266513 0.502384
vt -2.267833 0.514985
vt -2.273652 0.502384
vt -2.273592 0.514985
vt -2.280792 0.502384
vt -2.279352 0.514985
vt 0.507182 0.502384
vt 0.505794 0.514985
vt 0.499999 0.502384
vt 0.499999 0.514985
vt 0.494205 0.514985
vt 0.492816 0.502384
vt 0.492196 0.529368
vt 0.492196 0.527857
vt 0.507807 0.529368
vt 0.507807 0.527857
vt 0.492196 0.526346
vt 0.507807 0.526346
vt 0.507807 3.272156
vt 0.507807 3.273660
vt 0.492196 3.272156
vt 0.492196 3.273660
vt 0.507807 3.275163
vt 0.492196 3.275163
vt 0.492193 0.529368
vt 0.492193 0.527857
vt 0.507804 0.529368
vt 0.507804 0.527857
vt 0.492193 0.526346
vt 0.507804 0.526346
vt 0.492193 3.275163
vt 0.492193 3.273660
vt 0.507804 3.275163
vt 0.507804 3.273660
vt 0.492193 3.272156
vt 0.507804 3.272156
vt 3.271533 0.527857
vt 3.272156 0.526346
vt 3.272156 0.529368
vt 3.273660 0.529994
vt 3.273660 0.525720
vt 3.275163 0.529368
vt 3.275163 0.526346
vt 3.275786 0.527857
vt -2.272156 0.529368
vt -2.272156 0.526346
vt -2.271533 0.527857
vt -2.273660 0.529994
vt -2.273660 0.525720
vt -2.275163 0.529368
vt -2.275163 0.526346
vt -2.275786 0.527857
vt 0.500602 0.502141
vt 0.500602 0.513224
vt 0.499400 0.502140
vt 0.499400 0.513224
vt -2.273062 0.502141
vt -2.273062 0.513224
vt -2.274257 0.502141
vt -2.274257 0.513224
vt 0.500600 0.502141
vt 0.500600 0.513224
vt 0.499398 0.502141
vt 0.499398 0.513224
vt 3.274257 0.502141
vt 3.274257 0.513224
vt 3.273062 0.502141
vt 3.273062 0.513224
vt -2.263518 0.502141
vt -2.283801 0.502141
vt 3.283801 0.502141
vt 3.263518 0.502141
vt 3.266995 0.514985
vt 3.266995 0.513224
vt 3.273660 0.514985
vt 3.273660 0.513224
vt 3.280325 0.514985
vt 3.280325 0.513224
vt 0.506706 0.513224
vt 0.506706 0.514985
vt 0.500001 0.513224
vt 0.493296 0.513224
vt 0.493296 0.514985
vt -2.266996 0.513224
vt -2.266996 0.514985
vt -2.273660 0.513224
vt -2.273660 0.514985
vt -2.280325 0.513224
vt -2.280325 0.514985
vt 0.506704 0.513224
vt 0.506704 0.514985
vt 0.499999 0.513224
vt 0.493294 0.513224
vt 0.493294 0.514985
vt 0.499999 3.264235
vt 0.499999 3.273660
vt 0.493294 3.266995
vt 0.490517 3.273660
vt 0.506704 3.266996
vt 0.493294 3.280325
vt 0.509481 3.273660
vt 0.499999 3.283085
vt 0.506704 3.280325
vt 0.506706 3.280325
vt 0.500001 3.273660
vt 0.509483 3.273660
vt 0.506706 3.266995
vt 0.500001 3.283085
vt 0.500001 3.264235
vt 0.493296 3.280325
vt 0.493296 3.266996
vt 0.490519 3.273660
vt 3.284156 0.500000
vt 3.284156 0.502384
vt 3.279340 0.500000
vt 3.279340 0.502384
vt 3.273660 0.500000
vt 3.273660 0.502384
vt 3.267979 0.500000
vt 3.267979 0.502384
vt 3.263163 0.500000
vt 3.263163 0.502384
vt 0.489439 0.502384
vt 0.489439 0.500000
vt 0.494284 0.502384
vt 0.494284 0.500000
vt 0.499999 0.502384
vt 0.499999 0.500000
vt 0.505714 0.502384
vt 0.505714 0.500000
vt 0.510559 0.502384
vt 0.510559 0.500000
vt -2.284156 0.502384
vt -2.284156 0.500000
vt -2.279340 0.502384
vt -2.279340 0.500000
vt -2.273660 0.502384
vt -2.273660 0.500000
vt -2.267979 0.502384
vt -2.267979 0.500000
vt -2.263163 0.502384
vt -2.263163 0.500000
vt 0.489441 0.502384
vt 0.489441 0.500000
vt 0.494286 0.502384
vt 0.494286 0.500000
vt 0.500001 0.502384
vt 0.500001 0.500000
vt 0.505716 0.502384
vt 0.505716 0.500000
vt 0.510561 0.502384
vt 0.510561 0.500000
vt 0.510561 3.284156
vt 0.513798 3.279340
vt 0.514935 3.273660
vt 0.505716 3.287374
vt 0.513798 3.267979
vt 0.500001 3.288504
vt 0.510561 3.263163
vt 0.494286 3.287374
vt 0.505716 3.259946
vt 0.489441 3.284156
vt 0.500001 3.258816
vt 0.486204 3.279340
vt 0.494286 3.259946
vt 0.485067 3.273660
vt 0.489441 3.263163
vt 0.486204 3.267979
vt 0.875000 0.500000
vt 0.875000 1.000000
vt 0.843750 1.000000
vt 0.843750 0.500000
vt 0.812500 1.000000
vt 0.812500 0.500000
vt 0.781250 1.000000
vt 0.781250 0.500000
vt 0.750000 1.000000
vt 0.750000 0.500000
vt 0.718750 1.000000
vt 0.718750 0.500000
vt 0.687500 1.000000
vt 0.687500 0.500000
vt 0.656250 1.000000
vt 0.656250 0.500000
vt 0.625000 1.000000
vt 0.625000 0.500000
vt 0.593750 1.000000
vt 0.593750 0.875000
vt 0.593750 0.625000
vt 0.593750 0.500000
vt 0.578125 0.875000
vt 0.578125 1.000000
vt 0.562500 1.000000
vt 0.562500 0.875000
vt 0.546875 0.875000
vt 0.546875 1.000000
vt 0.531250 1.000000
vt 0.531250 0.875000
vt 0.531250 0.625000
vt 0.515625 0.625000
vt 0.484375 0.875000
vt 0.484375 1.000000
vt 0.468750 1.000000
vt 0.468750 0.875000
vt 0.453125 0.875000
vt 0.453125 1.000000
vt 0.437500 1.000000
vt 0.437500 0.875000
vt 0.421875 0.875000
vt 0.421875 1.000000
vt 0.406250 1.000000
vt 0.406250 0.875000
vt 0.406250 0.500000
vt 0.406250 0.625000
vt 0.375000 1.000000
vt 0.375000 0.500000
vt 0.343750 1.000000
vt 0.343750 0.500000
vt 0.312500 1.000000
vt 0.312500 0.500000
vt 0.281250 1.000000
vt 0.281250 0.500000
vt 0.250000 1.000000
vt 0.250000 0.500000
vt 0.218750 1.000000
vt 0.218750 0.500000
vt 0.187500 1.000000
vt 0.187500 0.500000
vt 0.156250 1.000000
vt 0.156250 0.500000
vt 0.125000 1.000000
vt 0.125000 0.500000
vt 0.500000 1.000000
vt 0.515625 1.000000
vt 0.421875 0.500000
vt 0.437500 0.500000
vt 0.453125 0.500000
vt 0.468750 0.500000
vt 0.484375 0.500000
vt 0.500000 0.500000
vt 0.515625 0.500000
vt 0.531250 0.500000
vt 0.546875 0.500000
vt 0.562500 0.500000
vt 0.578125 0.500000
vt 0.546875 0.625000
vt 0.562500 0.625000
vt 0.578125 0.625000
vt 0.484375 0.625000
vt 0.468750 0.625000
vt 0.453125 0.625000
vt 0.437500 0.625000
vt 0.421875 0.625000
vt 0.515625 0.875000
vt 0.375000 0.000000
vt 0.625000 0.000000
vt 0.625000 0.250000
vt 0.375000 0.250000
vt 0.625000 0.750000
vt 0.375000 0.750000
vt 0.420772 0.804170
vt 0.579227 0.804170
vt 0.579227 0.945830
vt 0.420773 0.945830
vt 0.125000 0.750000
vt 0.875000 0.750000
vt 0.403244 0.966574
vt 0.596756 0.966574
vt 0.596756 0.783426
vt 0.403244 0.783426
s 1
f 3/1/1 2/2/1 1/3/1
f 1/3/2 2/2/2 4/4/2
f 7/5/3 6/6/3 5/7/3
f 8/8/4 6/6/4 7/5/4
f 11/9/5 10/10/5 9/11/5
f 12/12/6 10/10/6 11/9/6
f 15/13/7 14/14/7 13/15/7
f 16/16/8 14/14/8 15/13/8
f 19/17/9 18/18/9 17/19/9
f 20/20/9 17/19/9 18/18/9
f 23/21/10 22/22/10 21/23/10
f 24/24/10 21/23/10 22/22/10
f 27/25/11 26/26/11 25/27/11
f 28/28/11 25/27/11 26/26/11
f 31/29/12 30/30/12 29/31/12
f 32/32/12 29/31/12 30/30/12
f 35/33/13 34/34/13 33/35/13
f 36/36/13 33/35/13 34/34/13
f 39/37/14 38/38/14 37/39/15
f 40/40/15 37/39/15 38/38/14
f 38/38/16 41/41/16 40/40/17
f 42/42/17 40/40/17 41/41/16
f 42/42/17 43/43/18 40/40/17
f 44/44/18 40/40/17 43/43/18
f 40/40/15 44/44/19 37/39/15
f 45/45/19 37/39/15 44/44/19
f 48/46/20 47/47/20 46/48/21
f 49/49/21 46/48/21 47/47/20
f 49/49/22 47/47/23 50/50/22
f 51/51/23 50/50/22 47/47/23
f 50/50/22 52/52/24 49/49/22
f 53/53/24 49/49/22 52/52/24
f 49/49/21 53/53/25 46/48/21
f 54/54/25 46/48/21 53/53/25
f 57/55/26 56/56/26 55/57/26
f 58/58/26 55/57/26 56/56/26
f 56/56/27 59/59/27 58/58/27
f 60/60/27 58/58/27 59/59/27
f 63/61/28 62/62/28 61/63/28
f 64/64/28 61/63/28 62/62/28
f 64/64/29 65/65/29 61/63/29
f 66/66/29 61/63/29 65/65/29
f 69/67/30 68/68/30 67/69/30
f 70/70/30 67/69/30 68/68/30
f 70/70/31 68/68/31 71/71/31
f 72/72/31 71/71/31 68/68/31
f 75/73/32 74/74/32 73/75/32
f 76/76/32 73/75/32 74/74/32
f 73/75/33 76/76/33 77/77/33
f 78/78/33 77/77/33 76/76/33
f 81/79/13 80/80/13 79/81/13
f 82/82/13 79/81/13 80/80/13
f 85/83/11 84/84/11 83/85/11
f 86/86/11 83/85/11 84/84/11
f 89/87/10 88/88/10 87/89/10
f 90/90/10 87/89/10 88/88/10
f 93/91/12 92/92/12 91/93/12
f 94/94/12 91/93/12 92/92/12
f 97/95/34 96/96/34 95/97/34
f 98/98/34 95/97/34 96/96/34
f 96/96/35 99/99/35 98/98/35
f 100/100/35 98/98/35 99/99/35
f 103/101/36 102/102/36 101/103/36
f 104/104/36 101/103/36 102/102/36
f 102/102/37 105/105/37 104/104/37
f 106/106/37 104/104/37 105/105/37
f 109/107/38 108/108/38 107/109/38
f 110/110/38 107/109/38 108/108/38
f 108/108/39 111/111/39 110/110/39
f 112/112/39 110/110/39 111/111/39
f 115/113/40 114/114/40 113/115/40
f 116/116/40 113/115/40 114/114/40
f 114/114/41 117/117/41 116/116/41
f 118/118/41 116/116/41 117/117/41
f 121/119/9 120/120/9 119/121/9
f 119/121/9 120/120/9 122/122/9
f 123/123/9 122/122/9 120/120/9
f 122/122/9 123/123/9 124/124/9
f 125/125/9 124/124/9 123/123/9
f 125/125/9 126/126/9 124/124/9
f 129/127/11 128/128/11 127/129/11
f 130/130/11 127/129/11 128/128/11
f 133/131/13 132/132/13 131/133/13
f 134/134/13 131/133/13 132/132/13
f 137/135/10 136/136/10 135/137/10
f 138/138/10 135/137/10 136/136/10
f 141/139/42 140/140/42 139/141/42
f 142/142/42 139/141/42 140/140/42
f 142/142/42 143/143/42 139/141/42
f 144/144/42 139/141/42 143/143/42
f 147/145/12 146/146/12 145/147/12
f 148/148/12 145/147/12 146/146/12
f 151/149/9 150/150/9 149/151/9
f 152/152/9 149/151/9 150/150/9
f 152/152/9 153/153/9 149/151/9
f 154/154/9 149/151/9 153/153/9
f 157/155/43 156/156/43 155/129/43
f 158/127/43 155/129/43 156/156/43
f 161/157/44 160/158/44 159/134/44
f 162/133/44 159/134/44 160/158/44
f 165/159/11 164/160/11 163/161/11
f 166/162/11 163/161/11 164/160/11
f 169/163/13 168/164/13 167/165/13
f 170/166/13 167/165/13 168/164/13
f 173/167/10 172/168/10 171/169/10
f 174/170/10 171/169/10 172/168/10
f 177/171/12 176/172/12 175/173/12
f 178/174/12 175/173/12 176/172/12
f 181/175/42 180/176/42 179/177/42
f 182/178/42 179/177/42 180/176/42
f 182/178/42 183/179/42 179/177/42
f 184/180/42 179/177/42 183/179/42
f 187/181/9 186/182/9 185/183/9
f 188/184/9 185/183/9 186/182/9
f 191/63/45 190/185/45 189/61/45
f 192/66/46 190/185/46 191/63/46
f 195/70/47 194/186/47 193/69/47
f 196/71/48 194/186/48 195/70/48
f 199/75/49 198/187/49 197/73/49
f 200/77/50 198/187/50 199/75/50
f 203/56/51 202/188/51 201/59/51
f 204/55/52 202/188/52 203/56/52
f 207/189/53 206/190/54 205/191/53
f 208/192/54 205/191/53 206/190/54
f 206/190/54 209/193/55 208/192/54
f 205/191/56 208/192/57 210/194/56
f 211/195/55 208/192/54 209/193/55
f 212/196/57 210/194/56 208/192/57
f 211/195/58 213/197/58 208/192/57
f 212/196/57 208/192/57 213/197/58
f 216/198/59 215/199/59 214/161/59
f 217/159/59 214/161/59 215/199/59
f 220/200/60 219/201/60 218/164/60
f 221/166/60 218/164/60 219/201/60
f 224/202/61 223/203/61 222/204/61
f 225/205/61 222/204/61 223/203/61
f 223/203/62 226/206/62 225/205/62
f 227/207/62 225/205/62 226/206/62
f 230/208/63 229/209/63 228/210/63
f 231/211/63 228/210/63 229/209/63
f 231/211/64 232/212/64 228/210/64
f 233/213/64 228/210/64 232/212/64
f 236/214/65 235/215/65 234/216/65
f 237/217/65 234/216/65 235/215/65
f 237/217/66 235/215/66 238/218/66
f 239/219/66 238/218/66 235/215/66
f 242/220/67 241/221/67 240/222/67
f 243/223/67 240/222/67 241/221/67
f 240/222/68 243/223/68 244/224/68
f 245/225/68 244/224/68 243/223/68
f 248/210/69 247/226/69 246/208/69
f 249/213/70 247/226/70 248/210/70
f 252/217/71 251/227/71 250/216/71
f 253/218/72 251/227/72 252/217/72
f 256/222/73 255/228/73 254/220/73
f 257/224/74 255/228/74 256/222/74
f 260/203/75 259/229/75 258/206/75
f 261/202/76 259/229/76 260/203/76
f 264/230/9 263/231/9 262/232/9
f 265/233/9 262/232/9 263/231/9
f 265/233/9 266/234/9 262/232/9
f 267/235/9 262/232/9 266/234/9
f 270/236/77 269/237/78 268/238/77
f 271/239/78 268/238/77 269/237/78
f 270/236/79 272/240/79 269/237/80
f 271/239/78 269/237/78 273/241/81
f 274/242/80 269/237/80 272/240/79
f 275/243/81 273/241/81 269/237/78
f 274/242/80 276/244/82 269/237/80
f 275/243/82 269/237/80 276/244/82
f 279/245/83 278/246/42 277/247/84
f 277/247/84 278/246/42 280/248/85
f 281/249/86 278/246/42 279/245/83
f 280/248/85 278/246/42 282/250/87
f 283/251/88 278/246/42 281/249/86
f 282/250/87 278/246/42 284/252/89
f 285/253/90 278/246/42 283/251/88
f 284/252/89 278/246/42 285/253/90
f 288/254/91 287/255/9 286/256/92
f 286/256/92 287/255/9 289/257/93
f 290/258/94 287/255/9 288/254/91
f 289/257/93 287/255/9 291/259/95
f 292/260/96 287/255/9 290/258/94
f 291/259/95 287/255/9 293/261/97
f 294/262/98 287/255/9 292/260/96
f 293/261/97 287/255/9 294/262/98
f 297/263/99 296/264/99 295/265/100
f 298/266/100 295/265/100 296/264/99
f 296/264/99 297/263/99 299/267/101
f 295/265/100 298/266/100 300/268/102
f 301/269/101 299/267/101 297/263/99
f 302/270/102 300/268/102 298/266/100
f 299/267/101 301/269/101 303/271/103
f 300/268/102 302/270/102 304/272/104
f 305/273/103 303/271/103 301/269/101
f 306/274/104 304/272/104 302/270/102
f 303/271/103 305/273/103 307/275/105
f 304/272/104 306/274/104 308/276/106
f 309/277/105 307/275/105 305/273/103
f 310/278/106 308/276/106 306/274/104
f 307/275/105 309/277/105 310/278/106
f 308/276/106 310/278/106 309/277/105
f 313/279/11 312/280/11 311/281/11
f 316/282/13 315/283/13 314/284/13
f 319/285/42 318/286/42 317/287/42
f 322/288/9 321/289/9 320/290/9
f 325/291/13 324/292/13 323/293/13
f 328/294/11 327/295/11 326/296/11
f 331/297/9 330/298/9 329/299/9
f 334/300/42 333/301/42 332/302/42
f 337/303/107 336/304/107 335/305/107
f 340/306/108 339/307/108 338/308/108
f 343/309/109 342/310/109 341/311/109
f 346/312/110 345/313/110 344/314/110
f 349/315/108 348/316/108 347/317/108
f 352/318/107 351/319/107 350/320/107
f 355/321/110 354/322/110 353/323/110
f 358/324/109 357/325/109 356/326/109
f 361/327/10 360/328/10 359/329/10
f 362/330/10 359/329/10 360/328/10
f 365/331/111 364/332/111 363/333/111
f 366/334/111 363/333/111 364/332/111
f 369/335/112 368/336/112 367/337/112
f 370/338/112 367/337/112 368/336/112
f 373/339/11 372/340/11 371/341/11
f 374/342/11 371/341/11 372/340/11
f 371/341/11 374/342/11 375/343/11
f 376/344/11 375/343/11 374/342/11
f 379/345/13 378/346/13 377/347/13
f 380/348/13 377/347/13 378/346/13
f 377/347/13 380/348/13 381/349/13
f 382/350/13 381/349/13 380/348/13
f 385/332/42 384/331/42 383/351/42
f 386/352/42 383/351/42 384/331/42
f 389/337/9 388/338/9 387/353/9
f 390/354/9 387/353/9 388/338/9
f 393/355/113 392/356/113 391/357/113
f 394/358/113 391/357/113 392/356/113
f 391/357/114 394/358/114 395/359/114
f 396/360/114 395/359/114 394/358/114
f 399/361/115 398/362/115 397/363/115
f 400/364/115 397/363/115 398/362/115
f 397/363/116 400/364/116 401/365/116
f 402/366/116 401/365/116 400/364/116
f 405/367/117 404/368/117 403/369/117
f 406/370/117 403/369/117 404/368/117
f 403/369/118 406/370/118 407/371/118
f 408/372/118 407/371/118 406/370/118
f 411/373/119 410/374/119 409/375/119
f 412/376/119 409/375/119 410/374/119
f 412/376/120 413/377/120 409/375/120
f 414/378/120 409/375/120 413/377/120
f 417/379/121 416/380/121 415/381/121
f 418/382/121 415/381/121 416/380/121
f 416/380/122 419/383/122 418/382/122
f 420/384/122 418/382/122 419/383/122
f 423/385/123 422/386/123 421/387/123
f 424/388/123 421/387/123 422/386/123
f 422/386/124 425/389/124 424/388/124
f 426/390/124 424/388/124 425/389/124
f 429/391/125 428/392/125 427/393/125
f 430/394/125 427/393/125 428/392/125
f 428/392/126 431/395/126 430/394/126
f 432/396/126 430/394/126 431/395/126
f 435/397/127 434/398/127 433/399/127
f 436/400/127 433/399/127 434/398/127
f 434/398/128 437/401/128 436/400/128
f 438/402/128 436/400/128 437/401/128
f 441/403/11 440/404/11 439/405/11
f 439/405/11 440/404/11 442/406/11
f 443/407/11 442/406/11 440/404/11
f 442/406/11 443/407/11 444/408/11
f 445/409/11 444/408/11 443/407/11
f 445/409/11 446/410/11 444/408/11
f 449/411/13 448/412/13 447/413/13
f 449/411/13 450/414/13 448/412/13
f 451/415/13 448/412/13 450/414/13
f 450/414/13 452/416/13 451/415/13
f 453/417/13 451/415/13 452/416/13
f 454/418/13 453/417/13 452/416/13
f 457/419/129 456/420/129 455/421/129
f 458/422/129 455/421/129 456/420/129
f 461/423/130 460/424/130 459/425/130
f 462/426/130 459/425/130 460/424/130
f 465/427/131 464/428/131 463/429/131
f 466/430/131 463/429/131 464/428/131
f 469/431/132 468/432/132 467/433/132
f 470/434/132 467/433/132 468/432/132
f 473/435/133 472/326/133 471/307/133
f 474/308/133 471/307/133 472/326/133
f 477/311/134 476/310/134 475/436/134
f 478/316/134 475/436/134 476/310/134
f 481/437/135 480/314/135 479/319/135
f 482/320/135 479/319/135 480/314/135
f 485/323/136 484/322/136 483/438/136
f 486/304/136 483/438/136 484/322/136
f 489/439/137 488/440/137 487/441/137
f 490/442/137 487/441/137 488/440/137
f 487/441/138 490/442/138 491/443/138
f 492/444/138 491/443/138 490/442/138
f 495/445/139 494/446/139 493/447/139
f 496/364/139 493/447/139 494/446/139
f 493/447/140 496/364/140 497/448/140
f 498/449/140 497/448/140 496/364/140
f 501/450/141 500/451/141 499/452/141
f 502/453/141 499/452/141 500/451/141
f 499/452/142 502/453/142 503/454/142
f 504/455/142 503/454/142 502/453/142
f 507/456/143 506/457/143 505/458/143
f 508/376/143 505/458/143 506/457/143
f 505/458/144 508/376/144 509/459/144
f 510/460/144 509/459/144 508/376/144
f 513/461/12 512/462/12 511/463/12
f 511/463/12 512/462/12 514/464/12
f 515/465/12 512/462/12 513/461/12
f 514/464/12 512/462/12 516/466/12
f 517/467/12 512/462/12 515/465/12
f 516/466/12 512/462/12 518/468/12
f 519/469/12 512/462/12 517/467/12
f 518/468/12 512/462/12 519/469/12
f 522/470/10 521/471/10 520/472/10
f 520/472/10 521/471/10 523/473/10
f 524/474/10 521/471/10 522/470/10
f 523/473/10 521/471/10 525/475/10
f 526/476/10 521/471/10 524/474/10
f 525/475/10 521/471/10 527/477/10
f 528/478/10 521/471/10 526/476/10
f 527/477/10 521/471/10 528/478/10
f 531/479/145 530/480/145 529/481/138
f 532/482/138 529/481/138 530/480/145
f 529/481/138 532/482/138 533/483/11
f 534/484/11 533/483/11 532/482/138
f 533/483/11 534/484/11 535/485/137
f 536/486/137 535/485/137 534/484/11
f 535/485/137 536/486/137 537/487/146
f 538/488/146 537/487/146 536/486/137
f 541/489/147 540/490/147 539/491/144
f 542/492/144 539/491/144 540/490/147
f 539/491/144 542/492/144 543/493/9
f 544/494/9 543/493/9 542/492/144
f 543/493/9 544/494/9 545/495/143
f 546/496/143 545/495/143 544/494/9
f 545/495/143 546/496/143 547/497/148
f 548/498/148 547/497/148 546/496/143
f 551/499/149 550/500/149 549/501/142
f 552/502/142 549/501/142 550/500/149
f 549/501/142 552/502/142 553/503/13
f 554/504/13 553/503/13 552/502/142
f 553/503/13 554/504/13 555/505/141
f 556/506/141 555/505/141 554/504/13
f 555/505/141 556/506/141 557/507/150
f 558/508/150 557/507/150 556/506/141
f 561/509/151 560/510/151 559/511/140
f 562/512/140 559/511/140 560/510/151
f 559/511/140 562/512/140 563/513/42
f 564/514/42 563/513/42 562/512/140
f 563/513/42 564/514/42 565/515/139
f 566/516/139 565/515/139 564/514/42
f 565/515/139 566/516/139 567/517/152
f 568/518/152 567/517/152 566/516/139
f 571/519/10 570/236/10 569/520/10
f 569/520/10 570/236/10 572/521/10
f 573/522/10 570/236/10 571/519/10
f 572/521/10 570/236/10 574/523/10
f 575/524/10 570/236/10 573/522/10
f 574/523/10 570/236/10 576/525/10
f 577/526/10 570/236/10 575/524/10
f 576/525/10 570/236/10 578/527/10
f 579/528/10 570/236/10 577/526/10
f 578/527/10 570/236/10 580/529/10
f 581/530/10 570/236/10 579/528/10
f 580/529/10 570/236/10 582/531/10
f 583/532/10 570/236/10 581/530/10
f 582/531/10 570/236/10 584/533/10
f 585/534/10 570/236/10 583/532/10
f 584/533/10 570/236/10 585/534/10
f 588/1/1 587/2/1 586/3/1
f 586/3/2 587/2/2 589/4/2
f 592/5/3 591/6/3 590/7/3
f 593/8/4 591/6/4 592/5/4
f 596/9/5 595/10/5 594/11/5
f 597/12/6 595/10/6 596/9/6
f 600/13/7 599/14/7 598/15/7
f 601/16/8 599/14/8 600/13/8
f 604/17/9 603/18/9 602/19/9
f 605/20/9 602/19/9 603/18/9
f 608/21/10 607/22/10 606/23/10
f 609/24/10 606/23/10 607/22/10
f 612/25/11 611/26/11 610/27/11
f 613/28/11 610/27/11 611/26/11
f 616/29/12 615/30/12 614/31/12
f 617/32/12 614/31/12 615/30/12
f 620/33/13 619/34/13 618/35/13
f 621/36/13 618/35/13 619/34/13
f 624/37/14 623/38/14 622/39/15
f 625/40/15 622/39/15 623/38/14
f 623/38/16 626/41/16 625/40/17
f 627/42/17 625/40/17 626/41/16
f 627/42/17 628/43/18 625/40/17
f 629/44/18 625/40/17 628/43/18
f 625/40/15 629/44/19 622/39/15
f 630/45/19 622/39/15 629/44/19
f 633/46/20 632/47/20 631/48/21
f 634/49/21 631/48/21 632/47/20
f 634/49/22 632/47/23 635/50/22
f 636/51/23 635/50/22 632/47/23
f 635/50/22 637/52/24 634/49/22
f 638/53/24 634/49/22 637/52/24
f 634/49/21 638/53/25 631/48/21
f 639/54/25 631/48/21 638/53/25
f 642/55/26 641/56/26 640/57/26
f 643/58/26 640/57/26 641/56/26
f 641/56/27 644/59/27 643/58/27
f 645/60/27 643/58/27 644/59/27
f 648/61/28 647/62/28 646/63/28
f 649/64/28 646/63/28 647/62/28
f 649/64/29 650/65/29 646/63/29
f 651/66/29 646/63/29 650/65/29
f 654/67/30 653/68/30 652/69/30
f 655/70/30 652/69/30 653/68/30
f 655/70/31 653/68/31 656/71/31
f 657/72/31 656/71/31 653/68/31
f 660/73/32 659/74/32 658/75/32
f 661/76/32 658/75/32 659/74/32
f 658/75/33 661/76/33 662/77/33
f 663/78/33 662/77/33 661/76/33
f 666/79/13 665/80/13 664/81/13
f 667/82/13 664/81/13 665/80/13
f 670/83/11 669/84/11 668/85/11
f 671/86/11 668/85/11 669/84/11
f 674/87/10 673/88/10 672/89/10
f 675/90/10 672/89/10 673/88/10
f 678/91/12 677/92/12 676/93/12
f 679/94/12 676/93/12 677/92/12
f 682/95/34 681/96/34 680/97/34
f 683/98/34 680/97/34 681/96/34
f 681/96/35 684/99/35 683/98/35
f 685/100/35 683/98/35 684/99/35
f 688/101/36 687/102/36 686/103/36
f 689/104/36 686/103/36 687/102/36
f 687/102/37 690/105/37 689/104/37
f 691/106/37 689/104/37 690/105/37
f 694/107/38 693/108/38 692/109/38
f 695/110/38 692/109/38 693/108/38
f 693/108/39 696/111/39 695/110/39
f 697/112/39 695/110/39 696/111/39
f 700/113/40 699/114/40 698/115/40
f 701/116/40 698/115/40 699/114/40
f 699/114/41 702/117/41 701/116/41
f 703/118/41 701/116/41 702/117/41
f 706/119/9 705/120/9 704/121/9
f 704/121/9 705/120/9 707/122/9
f 708/123/9 707/122/9 705/120/9
f 707/122/9 708/123/9 709/124/9
f 710/125/9 709/124/9 708/123/9
f 710/125/9 711/126/9 709/124/9
f 714/127/11 713/128/11 712/129/11
f 715/130/11 712/129/11 713/128/11
f 718/131/13 717/132/13 716/133/13
f 719/134/13 716/133/13 717/132/13
f 722/135/10 721/136/10 720/137/10
f 723/138/10 720/137/10 721/136/10
f 726/139/42 725/140/42 724/141/42
f 727/142/42 724/141/42 725/140/42
f 727/142/42 728/143/42 724/141/42
f 729/144/42 724/141/42 728/143/42
f 732/145/12 731/146/12 730/147/12
f 733/148/12 730/147/12 731/146/12
f 736/149/9 735/150/9 734/151/9
f 737/152/9 734/151/9 735/150/9
f 737/152/9 738/153/9 734/151/9
f 739/154/9 734/151/9 738/153/9
f 742/155/43 741/156/43 740/129/43
f 743/127/43 740/129/43 741/156/43
f 746/157/44 745/158/44 744/134/44
f 747/133/44 744/134/44 745/158/44
f 750/159/11 749/160/11 748/161/11
f 751/162/11 748/161/11 749/160/11
f 754/163/13 753/164/13 752/165/13
f 755/166/13 752/165/13 753/164/13
f 758/167/10 757/168/10 756/169/10
f 759/170/10 756/169/10 757/168/10
f 762/171/12 761/172/12 760/173/12
f 763/174/12 760/173/12 761/172/12
f 766/175/42 765/176/42 764/177/42
f 767/178/42 764/177/42 765/176/42
f 767/178/42 768/179/42 764/177/42
f 769/180/42 764/177/42 768/179/42
f 772/181/9 771/182/9 770/183/9
f 773/184/9 770/183/9 771/182/9
f 776/63/45 775/185/45 774/61/45
f 777/66/46 775/185/46 776/63/46
f 780/70/47 779/186/47 778/69/47
f 781/71/48 779/186/48 780/70/48
f 784/75/49 783/187/49 782/73/49
f 785/77/50 783/187/50 784/75/50
f 788/56/51 787/188/51 786/59/51
f 789/55/52 787/188/52 788/56/52
f 792/189/53 791/190/54 790/191/53
f 793/192/54 790/191/53 791/190/54
f 791/190/54 794/193/55 793/192/54
f 790/191/56 793/192/57 795/194/56
f 796/195/55 793/192/54 794/193/55
f 797/196/57 795/194/56 793/192/57
f 796/195/58 798/197/58 793/192/57
f 797/196/57 793/192/57 798/197/58
f 801/198/59 800/199/59 799/161/59
f 802/159/59 799/161/59 800/199/59
f 805/200/60 804/201/60 803/164/60
f 806/166/60 803/164/60 804/201/60
f 809/202/61 808/203/61 807/204/61
f 810/205/61 807/204/61 808/203/61
f 808/203/62 811/206/62 810/205/62
f 812/207/62 810/205/62 811/206/62
f 815/208/63 814/209/63 813/210/63
f 816/211/63 813/210/63 814/209/63
f 816/211/64 817/212/64 813/210/64
f 818/213/64 813/210/64 817/212/64
f 821/214/65 820/215/65 819/216/65
f 822/217/65 819/216/65 820/215/65
f 822/217/66 820/215/66 823/218/66
f 824/219/66 823/218/66 820/215/66
f 827/220/67 826/221/67 825/222/67
f 828/223/67 825/222/67 826/221/67
f 825/222/68 828/223/68 829/224/68
f 830/225/68 829/224/68 828/223/68
f 833/210/69 832/226/69 831/208/69
f 834/213/70 832/226/70 833/210/70
f 837/217/71 836/227/71 835/216/71
f 838/218/72 836/227/72 837/217/72
f 841/222/73 840/228/73 839/220/73
f 842/224/74 840/228/74 841/222/74
f 845/203/75 844/229/75 843/206/75
f 846/202/76 844/229/76 845/203/76
f 849/230/9 848/231/9 847/232/9
f 850/233/9 847/232/9 848/231/9
f 850/233/9 851/234/9 847/232/9
f 852/235/9 847/232/9 851/234/9
f 855/236/77 854/237/78 853/238/77
f 856/239/78 853/238/77 854/237/78
f 855/236/79 857/240/79 854/237/80
f 856/239/78 854/237/78 858/241/81
f 859/242/80 854/237/80 857/240/79
f 860/243/81 858/241/81 854/237/78
f 859/242/80 861/244/82 854/237/80
f 860/243/82 854/237/80 861/244/82
f 864/245/83 863/246/42 862/247/84
f 862/247/84 863/246/42 865/248/85
f 866/249/86 863/246/42 864/245/83
f 865/248/85 863/246/42 867/250/87
f 868/251/88 863/246/42 866/249/86
f 867/250/87 863/246/42 869/252/89
f 870/253/90 863/246/42 868/251/88
f 869/252/89 863/246/42 870/253/90
f 873/254/91 872/255/9 871/256/92
f 871/256/92 872/255/9 874/257/93
f 875/258/94 872/255/9 873/254/91
f 874/257/93 872/255/9 876/259/95
f 877/260/96 872/255/9 875/258/94
f 876/259/95 872/255/9 878/261/97
f 879/262/98 872/255/9 877/260/96
f 878/261/97 872/255/9 879/262/98
f 882/263/99 881/264/99 880/265/100
f 883/266/100 880/265/100 881/264/99
f 881/264/99 882/263/99 884/267/101
f 880/265/100 883/266/100 885/268/102
f 886/269/101 884/267/101 882/263/99
f 887/270/102 885/268/102 883/266/100
f 884/267/101 886/269/101 888/271/103
f 885/268/102 887/270/102 889/272/104
f 890/273/103 888/271/103 886/269/101
f 891/274/104 889/272/104 887/270/102
f 888/271/103 890/273/103 892/275/105
f 889/272/104 891/274/104 893/276/106
f 894/277/105 892/275/105 890/273/103
f 895/278/106 893/276/106 891/274/104
f 892/275/105 894/277/105 895/278/106
f 893/276/106 895/278/106 894/277/105
f 383/351/12 386/352/12 387/353/12 390/354/12
f 896/535/153 897/536/153 899/537/153 898/538/153
f 898/538/154 899/537/154 901/539/154 900/540/154
f 900/540/155 901/539/155 903/541/155 902/542/155
f 902/542/156 903/541/156 905/543/156 904/544/156
f 904/544/157 905/543/157 907/545/157 906/546/157
f 906/546/158 907/545/158 909/547/158 908/548/158
f 908/548/159 909/547/159 911/549/159 910/550/159
f 910/550/160 911/549/160 913/551/160 912/552/160
f 912/552/161 913/551/161 915/553/161 1014/554/161 996/555/161 914/556/161
f 1031/557/162 998/558/162 917/559/162 1015/560/162
f 1030/561/163 1001/562/163 919/563/163 1016/564/163
f 1038/565/164 1058/566/164 1022/566/164 1002/565/164
f 1028/567/165 1006/568/165 923/569/165 1017/570/165
f 1027/571/166 1009/572/166 925/573/166 1018/574/166
f 1026/575/167 1012/576/167 927/577/167 1019/578/167
f 926/579/168 1013/580/168 1019/578/168 927/577/168 929/581/168 928/582/168
f 928/582/169 929/581/169 931/583/169 930/584/169
f 930/584/170 931/583/170 933/585/170 932/586/170
f 932/586/171 933/585/171 935/587/171 934/588/171
f 934/588/172 935/587/172 937/589/172 936/590/172
f 936/590/173 937/589/173 939/591/173 938/592/173
f 938/592/174 939/591/174 941/593/174 940/594/174
f 940/594/175 941/593/175 943/595/175 942/596/175
f 942/596/176 943/595/176 945/597/176 944/598/176
f 946/535/153 947/536/153 949/537/153 948/538/153
f 948/538/154 949/537/154 951/539/154 950/540/154
f 950/540/155 951/539/155 953/541/155 952/542/155
f 952/542/156 953/541/156 955/543/156 954/544/156
f 954/544/157 955/543/157 957/545/157 956/546/157
f 956/546/158 957/545/158 959/547/158 958/548/158
f 958/548/159 959/547/159 961/549/159 960/550/159
f 960/550/160 961/549/160 963/551/160 962/552/160
f 962/552/161 963/551/161 965/553/161 1050/554/161 1032/555/161 964/556/161
f 1067/557/162 1034/558/162 967/559/162 1051/560/162
f 1066/561/163 1037/562/163 969/563/163 1052/564/163
f 1064/567/165 1042/568/165 973/569/165 1053/570/165
f 1063/571/166 1045/572/166 975/573/166 1054/574/166
f 1062/575/167 1048/576/167 977/577/167 1055/578/167
f 976/579/168 1049/580/168 1055/578/168 977/577/168 979/581/168 978/582/168
f 978/582/169 979/581/169 981/583/169 980/584/169
f 980/584/170 981/583/170 983/585/170 982/586/170
f 982/586/171 983/585/171 985/587/171 984/588/171
f 984/588/172 985/587/172 987/589/172 986/590/172
f 986/590/173 987/589/173 989/591/173 988/592/173
f 988/592/174 989/591/174 991/593/174 990/594/174
f 990/594/175 991/593/175 993/595/175 992/596/175
f 992/596/176 993/595/176 995/597/176 994/598/176
f 944/598/110 945/597/110 995/597/110 994/598/110
f 896/535/108 946/535/108 947/536/108 897/536/108
f 921/599/10 971/599/10 1042/568/10 973/569/10 923/569/10 1006/568/10
f 923/569/10 973/569/10 1045/572/10 975/573/10 925/573/10 1009/572/10
f 925/573/10 975/573/10 1048/576/10 977/577/10 927/577/10 1012/576/10
f 927/577/10 977/577/10 979/581/10 929/581/10
f 929/581/10 979/581/10 981/583/10 931/583/10
f 931/583/10 981/583/10 983/585/10 933/585/10
f 933/585/10 983/585/10 985/587/10 935/587/10
f 935/587/10 985/587/10 987/589/10 937/589/10
f 937/589/10 987/589/10 989/591/10 939/591/10
f 939/591/10 989/591/10 991/593/10 941/593/10
f 941/593/10 991/593/10 993/595/10 943/595/10
f 943/595/10 993/595/10 995/597/10 945/597/10
f 897/536/10 947/536/10 949/537/10 899/537/10
f 899/537/10 949/537/10 951/539/10 901/539/10
f 901/539/10 951/539/10 953/541/10 903/541/10
f 903/541/10 953/541/10 955/543/10 905/543/10
f 905/543/10 955/543/10 957/545/10 907/545/10
f 907/545/10 957/545/10 959/547/10 909/547/10
f 909/547/10 959/547/10 961/549/10 911/549/10
f 911/549/10 961/549/10 963/551/10 913/551/10
f 913/551/10 963/551/10 965/553/10 915/553/10
f 915/553/10 965/553/10 1034/558/10 967/559/10 917/559/10 998/558/10
f 917/559/10 967/559/10 1037/562/10 969/563/10 919/563/10 1001/562/10
f 919/563/10 969/563/10 1040/600/10 971/599/10 921/599/10 1004/600/10
f 926/579/12 976/579/12 1047/601/12 974/602/12 924/602/12 1011/601/12
f 924/602/12 974/602/12 1044/603/12 972/604/12 922/604/12 1008/603/12
f 922/604/12 972/604/12 1041/605/12 970/606/12 920/606/12 1005/605/12
f 920/606/12 970/606/12 1039/607/12 968/608/12 918/608/12 1003/607/12
f 918/608/12 968/608/12 1036/609/12 966/610/12 916/610/12 1000/609/12
f 916/610/12 966/610/12 1033/611/12 964/556/12 914/556/12 997/611/12
f 928/582/12 978/582/12 976/579/12 926/579/12
f 930/584/12 980/584/12 978/582/12 928/582/12
f 932/586/12 982/586/12 980/584/12 930/584/12
f 934/588/12 984/588/12 982/586/12 932/586/12
f 936/590/12 986/590/12 984/588/12 934/588/12
f 938/592/12 988/592/12 986/590/12 936/590/12
f 914/556/12 964/556/12 962/552/12 912/552/12
f 912/552/12 962/552/12 960/550/12 910/550/12
f 910/550/12 960/550/12 958/548/12 908/548/12
f 908/548/12 958/548/12 956/546/12 906/546/12
f 906/546/12 956/546/12 954/544/12 904/544/12
f 904/544/12 954/544/12 952/542/12 902/542/12
f 902/542/12 952/542/12 950/540/12 900/540/12
f 900/540/12 950/540/12 948/538/12 898/538/12
f 898/538/12 948/538/12 946/535/12 896/535/12
f 944/598/12 994/598/12 992/596/12 942/596/12
f 942/596/12 992/596/12 990/594/12 940/594/12
f 940/594/12 990/594/12 988/592/12 938/592/12
f 1057/612/10 1021/612/10 999/613/10 1035/613/10
f 997/611/162 1020/614/162 999/613/162 916/610/162
f 914/556/162 996/555/162 1020/614/162 997/611/162
f 1000/609/163 1021/612/163 1002/565/163 918/608/163
f 916/610/163 999/613/163 1021/612/163 1000/609/163
f 1020/614/177 996/555/177 1032/555/177 1056/614/177
f 918/608/178 1002/565/178 1022/566/178 1003/607/178
f 1005/605/165 1023/615/165 1007/616/165 922/604/165
f 920/606/165 921/599/165 1006/568/165 1028/567/165 1023/615/165 1005/605/165
f 1059/615/173 1023/615/173 1028/567/173 1064/567/173
f 1008/603/166 1024/617/166 1010/618/166 924/602/166
f 922/604/166 1007/616/166 1024/617/166 1008/603/166
f 1011/601/167 1025/619/167 1013/580/167 926/579/167
f 924/602/167 1010/618/167 1025/619/167 1011/601/167
f 1018/574/167 925/573/167 1012/576/167 1026/575/167
f 1017/570/166 923/569/166 1009/572/166 1027/571/166
f 1003/607/178 1022/566/178 1029/620/178 1004/600/178 921/599/178 920/606/178
f 1016/564/178 919/563/178 1004/600/178 1029/620/178
f 1015/560/163 917/559/163 1001/562/163 1030/561/163
f 1014/554/162 915/553/162 998/558/162 1031/557/162
f 999/613/179 1020/614/179 1056/614/179 1035/613/179
f 1033/611/162 1056/614/162 1035/613/162 966/610/162
f 964/556/162 1032/555/162 1056/614/162 1033/611/162
f 1036/609/163 1057/612/163 1038/565/163 968/608/163
f 966/610/163 1035/613/163 1057/612/163 1036/609/163
f 968/608/178 1038/565/178 1058/566/178 1039/607/178
f 1041/605/165 1059/615/165 1043/616/165 972/604/165
f 970/606/165 971/599/165 1042/568/165 1064/567/165 1059/615/165 1041/605/165
f 1044/603/166 1060/617/166 1046/618/166 974/602/166
f 972/604/166 1043/616/166 1060/617/166 1044/603/166
f 1047/601/167 1061/619/167 1049/580/167 976/579/167
f 974/602/167 1046/618/167 1061/619/167 1047/601/167
f 1054/574/167 975/573/167 1048/576/167 1062/575/167
f 1053/570/166 973/569/166 1045/572/166 1063/571/166
f 1058/566/178 1065/620/178 1040/600/178 971/599/178 970/606/178 1039/607/178
f 1052/564/178 969/563/178 1040/600/178 1065/620/178
f 1051/560/163 967/559/163 1037/562/163 1066/561/163
f 1050/554/162 965/553/162 1034/558/162 1067/557/162
f 1059/615/180 1043/616/180 1007/616/180 1023/615/180
f 1024/617/181 1007/616/181 1043/616/181 1060/617/181
f 1010/618/10 1024/617/10 1060/617/10 1046/618/10
f 1025/619/182 1010/618/182 1046/618/182 1061/619/182
f 1013/580/183 1025/619/183 1061/619/183 1049/580/183
f 1013/580/146 1049/580/146 1055/578/146 1019/578/146
f 1019/578/184 1055/578/184 1062/575/184 1026/575/184
f 1026/575/185 1062/575/185 1054/574/185 1018/574/185
f 1018/574/12 1054/574/12 1063/571/12 1027/571/12
f 1027/571/186 1063/571/186 1053/570/186 1017/570/186
f 1064/567/187 1028/567/187 1017/570/187 1053/570/187
f 1029/620/188 1065/620/188 1052/564/188 1016/564/188
f 1016/564/189 1052/564/189 1066/561/189 1030/561/189
f 1030/561/12 1066/561/12 1051/560/12 1015/560/12
f 1015/560/190 1051/560/190 1067/557/190 1031/557/190
f 1031/557/191 1067/557/191 1050/554/191 1014/554/191
f 996/555/150 1014/554/150 1050/554/150 1032/555/150
f 1029/620/156 1022/566/156 1058/566/156 1065/620/156
f 1057/612/192 1038/565/192 1002/565/192 1021/612/192
f 1076/621/13 1077/622/13 1071/623/13 1070/624/13
f 1070/624/42 1071/623/42 1075/552/42 1074/582/42
f 1074/582/11 1075/552/11 1078/625/11 1079/626/11
f 1072/627/193 1073/628/193 1069/629/193 1068/630/193
f 1070/598/10 1074/582/10 1079/626/10 1076/631/10
f 1075/552/12 1071/535/12 1077/632/12 1078/625/12
f 1080/633/194 1081/634/194 1077/551/194 1076/581/194
f 1082/635/195 1083/636/195 1079/626/195 1078/625/195
f 1083/636/196 1080/633/196 1076/581/196 1079/626/196
f 1081/634/197 1082/635/197 1078/625/197 1077/551/197
f 1068/630/198 1069/629/198 1081/634/198 1080/633/198
f 1073/628/199 1072/627/199 1083/636/199 1082/635/199
f 1072/627/200 1068/630/200 1080/633/200 1083/636/200
f 1069/629/201 1073/628/201 1082/635/201 1081/634/201
f 1092/621/13 1093/622/13 1087/623/13 1086/624/13
f 1086/624/9 1087/623/9 1091/552/9 1090/582/9
f 1090/582/11 1091/552/11 1094/625/11 1095/626/11
f 1088/627/202 1089/628/202 1085/629/202 1084/630/202
f 1086/598/12 1090/582/12 1095/626/12 1092/631/12
f 1091/552/10 1087/535/10 1093/632/10 1094/625/10
f 1096/633/203 1097/634/203 1093/551/203 1092/581/203
f 1098/635/204 1099/636/204 1095/626/204 1094/625/204
f 1099/636/205 1096/633/205 1092/581/205 1095/626/205
f 1097/634/206 1098/635/206 1094/625/206 1093/551/206
f 1084/630/207 1085/629/207 1097/634/207 1096/633/207
f 1089/628/208 1088/627/208 1099/636/208 1098/635/208
f 1088/627/209 1084/630/209 1096/633/209 1099/636/209
f 1085/629/210 1089/628/210 1098/635/210 1097/634/210
