# Blender 4.5.3 LTS
# www.blender.org
mtllib VDT_gun_cal200_A_x4_001.mtl
o VDT_gun_cal200_A_x4_001
v -1.665250 0.433005 1.665252
v -0.901227 0.000000 2.175755
v -1.665251 0.000000 1.665252
v -0.901227 0.433005 2.175755
v 0.000000 0.000000 2.355021
v 0.000000 0.433005 2.355021
v 0.901227 0.433005 2.175755
v 0.901227 0.000000 2.175755
v 1.665250 0.433005 1.665252
v 1.665251 0.000000 1.665252
v -1.665251 0.000000 1.665252
v -2.175754 0.433005 0.901228
v -1.665250 0.433005 1.665252
v -2.175755 0.000000 0.901228
v -2.355020 0.433005 0.000002
v -2.355021 0.000000 0.000002
v -2.175754 0.433006 -0.901225
v -2.175754 0.000001 -0.901226
v -1.665251 0.433006 -1.665249
v -1.665252 0.000001 -1.665249
v -1.665252 0.000001 -1.665249
v -0.901228 0.433007 -2.175754
v -1.665251 0.433006 -1.665249
v -0.901228 0.000001 -2.175754
v 0.000000 0.433007 -2.355020
v 0.000000 0.000001 -2.355020
v 0.901228 0.000001 -2.175754
v 0.901228 0.433007 -2.175754
v 1.665252 0.000001 -1.665249
v 1.665251 0.433006 -1.665249
v -2.331787 0.429076 -3.076138
v -1.314554 3.958691 -3.507318
v -2.331787 3.958690 -3.076137
v -1.314554 0.429077 -3.507319
v 0.000000 3.958691 -3.666656
v 0.000000 0.429077 -3.666656
v 1.314554 0.429077 -3.507319
v 1.314554 3.958691 -3.507318
v 2.331787 0.429076 -3.076138
v 2.331787 3.958690 -3.076137
v -1.648822 0.429075 1.645928
v -2.154290 3.593843 0.857641
v -1.648822 3.284545 1.645928
v -2.154290 0.429076 0.857640
v -2.331787 0.429076 -0.072206
v -2.331787 3.958685 -0.072209
v -2.331787 3.958685 -0.072209
v -2.331787 0.429076 -3.076138
v -2.331787 3.958690 -3.076137
v -2.331787 0.429076 -0.072206
v -1.314554 3.958691 -3.507318
v -2.331787 3.958685 -0.072209
v -2.331787 3.958690 -3.076137
v 0.000000 3.958685 -0.072210
v 0.000000 3.958691 -3.666656
v 1.314554 3.958691 -3.507318
v 2.331787 3.958685 -0.072209
v 2.331787 3.958690 -3.076137
v 0.000000 3.005308 2.357603
v -0.481850 1.150000 2.257727
v -0.481850 3.044495 2.257727
v 0.000000 0.429076 2.357602
v -0.892336 0.429076 2.172644
v -0.892336 1.150000 2.172644
v -1.648822 0.429075 1.645928
v -1.302840 1.150000 1.886823
v -1.302840 3.190025 1.886824
v -1.648822 3.284545 1.645928
v 0.481850 1.150000 2.257727
v 0.481850 3.044495 2.257727
v 0.892336 0.429076 2.172644
v 0.892336 1.150000 2.172644
v 1.648822 0.429075 1.645928
v 1.302840 1.150000 1.886823
v 1.302840 3.190025 1.886824
v 1.648822 3.284545 1.645928
v -1.648822 3.284545 1.645928
v -1.302840 3.451153 1.221306
v -1.302840 3.190025 1.886824
v -2.154290 3.593843 0.857641
v -2.331787 3.958685 -0.072209
v -1.070661 3.542847 0.987611
v 0.000000 3.958685 -0.072210
v -0.714028 3.542847 0.987611
v -0.481849 3.451153 1.221306
v -0.481850 3.044495 2.257727
v 0.000000 3.005308 2.357603
v 0.481850 3.044495 2.257727
v 0.481849 3.451153 1.221306
v 0.714028 3.542847 0.987611
v 1.070661 3.542847 0.987611
v 2.331787 3.958685 -0.072209
v 1.302840 3.451153 1.221306
v 2.154290 3.593843 0.857641
v 1.648822 3.284545 1.645928
v 1.302840 3.190025 1.886824
v 2.175754 0.433005 0.901228
v 1.665251 0.000000 1.665252
v 1.665250 0.433005 1.665252
v 2.175755 0.000000 0.901228
v 2.355020 0.433005 0.000002
v 2.355021 0.000000 0.000002
v 2.175754 0.433006 -0.901225
v 2.175754 0.000001 -0.901226
v 1.665251 0.433006 -1.665249
v 1.665252 0.000001 -1.665249
v 2.154290 3.593843 0.857641
v 1.648822 0.429075 1.645928
v 1.648822 3.284545 1.645928
v 2.154290 0.429076 0.857640
v 2.331787 0.429076 -0.072206
v 2.331787 3.958685 -0.072209
v 2.331787 3.958685 -0.072209
v 2.331787 0.429076 -3.076138
v 2.331787 0.429076 -0.072206
v 2.331787 3.958690 -3.076137
v 0.295699 4.216111 -2.347787
v 0.000005 3.959805 -2.611388
v 0.394189 3.959805 -2.483309
v -0.000013 4.216110 -2.443869
v -0.394177 3.959805 -2.483312
v -0.295726 4.216109 -2.347786
v 0.394189 3.959805 -2.483309
v 0.478460 4.216111 -2.096239
v 0.295699 4.216111 -2.347787
v 0.637805 3.959805 -2.148000
v 0.478462 4.216111 -1.785309
v 0.637805 3.959805 -1.733532
v 0.295699 4.216111 -1.533761
v 0.394189 3.959805 -1.398222
v 0.394189 3.959805 -1.398222
v -0.000011 4.216111 -1.437678
v 0.295699 4.216111 -1.533761
v 0.000005 3.959805 -1.270145
v -0.295721 4.216111 -1.533760
v -0.394174 3.959805 -1.398221
v -0.394174 3.959805 -1.398221
v -0.478484 4.216109 -1.785307
v -0.295721 4.216111 -1.533760
v -0.637796 3.959803 -1.733532
v -0.478484 4.216109 -2.096237
v -0.637796 3.959804 -2.147999
v -0.295726 4.216109 -2.347786
v -0.394177 3.959805 -2.483312
v 0.295699 4.216111 -1.533761
v 0.478460 4.216111 -2.096239
v 0.478462 4.216111 -1.785309
v 0.295699 4.216111 -2.347787
v -0.000013 4.216110 -2.443869
v -0.000011 4.216111 -1.437678
v -0.295721 4.216111 -1.533760
v -0.295726 4.216109 -2.347786
v -0.478484 4.216109 -1.785307
v -0.478484 4.216109 -2.096237
v -1.477548 3.959805 -0.734458
v -1.603204 4.216111 -0.622439
v -1.645058 3.959806 -0.680030
v -1.477541 4.216110 -0.663269
v -1.310039 3.959805 -0.680031
v -1.351876 4.216109 -0.622439
v -1.680869 4.216111 -0.515543
v -1.645058 3.959806 -0.680030
v -1.603204 4.216111 -0.622439
v -1.748584 3.959806 -0.537539
v -1.680870 4.216111 -0.383412
v -1.748584 3.959806 -0.361409
v -1.603205 4.216111 -0.276516
v -1.645059 3.959805 -0.218918
v -1.477541 4.216111 -0.235685
v -1.645059 3.959805 -0.218918
v -1.603205 4.216111 -0.276516
v -1.477548 3.959805 -0.164491
v -1.351878 4.216111 -0.276515
v -1.310040 3.959805 -0.218918
v -1.274213 4.216109 -0.383411
v -1.310040 3.959805 -0.218918
v -1.351878 4.216111 -0.276515
v -1.206512 3.959804 -0.361409
v -1.274212 4.216109 -0.515542
v -1.206512 3.959804 -0.537538
v -1.351876 4.216109 -0.622439
v -1.310039 3.959805 -0.680031
v -1.680869 4.216111 -0.515543
v -1.603205 4.216111 -0.276516
v -1.680870 4.216111 -0.383412
v -1.603204 4.216111 -0.622439
v -1.477541 4.216110 -0.663269
v -1.477541 4.216111 -0.235685
v -1.351878 4.216111 -0.276515
v -1.351876 4.216109 -0.622439
v -1.274213 4.216109 -0.383411
v -1.274212 4.216109 -0.515542
v 1.477537 3.959805 -0.734458
v 1.351881 4.216111 -0.622439
v 1.310027 3.959806 -0.680030
v 1.477545 4.216110 -0.663269
v 1.645046 3.959805 -0.680031
v 1.603209 4.216109 -0.622439
v 1.274216 4.216111 -0.515543
v 1.310027 3.959806 -0.680030
v 1.351881 4.216111 -0.622439
v 1.206502 3.959806 -0.537539
v 1.274215 4.216111 -0.383412
v 1.206501 3.959806 -0.361409
v 1.351880 4.216111 -0.276516
v 1.310027 3.959805 -0.218918
v 1.477544 4.216111 -0.235685
v 1.310027 3.959805 -0.218918
v 1.351880 4.216111 -0.276516
v 1.477537 3.959805 -0.164491
v 1.603207 4.216111 -0.276515
v 1.645045 3.959805 -0.218918
v 1.680873 4.216109 -0.383411
v 1.645045 3.959805 -0.218918
v 1.603207 4.216111 -0.276515
v 1.748573 3.959804 -0.361409
v 1.680873 4.216109 -0.515542
v 1.748573 3.959804 -0.537538
v 1.603209 4.216109 -0.622439
v 1.645046 3.959805 -0.680031
v 1.274216 4.216111 -0.515543
v 1.351880 4.216111 -0.276516
v 1.274215 4.216111 -0.383412
v 1.351881 4.216111 -0.622439
v 1.477545 4.216110 -0.663269
v 1.477544 4.216111 -0.235685
v 1.603207 4.216111 -0.276515
v 1.603209 4.216109 -0.622439
v 1.680873 4.216109 -0.383411
v 1.680873 4.216109 -0.515542
v -2.175754 0.433005 0.901228
v -2.355020 0.433005 0.000002
v -2.175754 0.433006 -0.901225
v -1.665250 0.433005 1.665252
v -1.665251 0.433006 -1.665249
v -0.901227 0.433005 2.175755
v -0.901228 0.433007 -2.175754
v 0.000000 0.433005 2.355021
v 0.000000 0.433007 -2.355020
v 0.901227 0.433005 2.175755
v 0.901228 0.433007 -2.175754
v 1.665250 0.433005 1.665252
v 1.665251 0.433006 -1.665249
v 2.175754 0.433005 0.901228
v 2.175754 0.433006 -0.901225
v 2.355020 0.433005 0.000002
v -0.481850 1.150000 0.144322
v -0.481850 3.044495 2.257727
v -0.481850 1.150000 2.257727
v -0.481849 3.226332 1.222187
v -0.481849 3.451153 1.221306
v -0.481849 3.639161 0.144322
v -1.302840 3.190025 1.886824
v -1.302840 3.451153 1.221306
v -1.302840 3.226332 1.222187
v -1.302840 1.150000 0.144322
v -1.302840 1.150000 1.886823
v -1.302840 3.639161 0.144322
v -0.892336 1.150000 2.172644
v -0.481850 1.150000 0.144322
v -0.481850 1.150000 2.257727
v -1.302840 1.150000 0.144322
v -1.302840 1.150000 1.886823
v -0.714028 3.318027 0.987604
v -0.481849 3.451153 1.221306
v -0.481849 3.226332 1.222187
v -0.714028 3.542847 0.987611
v -1.070661 3.318027 0.987604
v -1.070661 3.542847 0.987611
v -1.302840 3.451153 1.221306
v -1.302840 3.226332 1.222187
v -0.481849 3.226332 1.222187
v -0.481849 3.639161 0.144322
v -0.714028 3.318027 0.987604
v -1.302840 3.639161 0.144322
v -1.070661 3.318027 0.987604
v -1.302840 3.226332 1.222187
v 0.481850 3.044495 2.257727
v 0.481850 1.150000 0.144322
v 0.481850 1.150000 2.257727
v 0.481849 3.226332 1.222187
v 0.481849 3.639161 0.144322
v 0.481849 3.451153 1.221306
v 1.302840 3.190025 1.886824
v 1.302840 3.226332 1.222187
v 1.302840 3.451153 1.221306
v 1.302840 1.150000 0.144322
v 1.302840 1.150000 1.886823
v 1.302840 3.639161 0.144322
v 0.892336 1.150000 2.172644
v 0.481850 1.150000 2.257727
v 0.481850 1.150000 0.144322
v 1.302840 1.150000 0.144322
v 1.302840 1.150000 1.886823
v 0.481849 3.451153 1.221306
v 0.714028 3.318027 0.987604
v 0.481849 3.226332 1.222187
v 0.714028 3.542847 0.987611
v 1.070661 3.318027 0.987604
v 1.070661 3.542847 0.987611
v 1.302840 3.451153 1.221306
v 1.302840 3.226332 1.222187
v 0.481849 3.226332 1.222187
v 0.714028 3.318027 0.987604
v 0.481849 3.639161 0.144322
v 1.302840 3.639161 0.144322
v 1.070661 3.318027 0.987604
v 1.302840 3.226332 1.222187
v 2.331787 0.429076 -0.072206
v 1.648822 0.429075 1.645928
v 2.154290 0.429076 0.857640
v 2.331787 0.429076 -3.076138
v 1.314554 0.429077 -3.507319
v 0.892336 0.429076 2.172644
v 0.000000 0.429077 -3.666656
v 0.000000 0.429076 2.357602
v -0.892336 0.429076 2.172644
v -1.314554 0.429077 -3.507319
v -1.648822 0.429075 1.645928
v -2.331787 0.429076 -3.076138
v -2.331787 0.429076 -0.072206
v -2.154290 0.429076 0.857640
v -0.481849 3.639161 0.144322
v -1.302840 1.150000 0.144322
v -1.302840 3.639161 0.144322
v -0.481850 1.150000 0.144322
v 0.481849 3.639161 0.144322
v 1.302840 1.150000 0.144322
v 0.481850 1.150000 0.144322
v 1.302840 3.639161 0.144322
v -2.355021 0.000000 0.000002
v -2.175755 0.000000 0.901228
v -2.175754 0.000001 -0.901226
v -1.665252 0.000001 -1.665249
v -1.665251 0.000000 1.665252
v -0.901228 0.000001 -2.175754
v -0.901227 0.000000 2.175755
v 0.000000 0.000001 -2.355020
v 0.000000 0.000000 2.355021
v 0.901228 0.000001 -2.175754
v 0.901227 0.000000 2.175755
v 1.665252 0.000001 -1.665249
v 1.665251 0.000000 1.665252
v 2.175754 0.000001 -0.901226
v 2.175755 0.000000 0.901228
v 2.355021 0.000000 0.000002
v 2.313073 1.533830 0.362711
v 2.313073 1.339351 0.474993
v 2.313073 1.728308 0.474993
v 2.313073 1.728308 0.699557
v 2.313073 1.339351 0.699557
v 2.313073 1.533830 0.811840
v 1.704770 1.533830 0.362711
v 2.313073 1.728308 0.474993
v 1.704769 1.728308 0.474993
v 2.313073 1.533830 0.362711
v 1.704769 1.339351 0.474993
v 2.313073 1.339351 0.474993
v 2.313073 1.728308 0.699557
v 1.704769 1.728308 0.474993
v 2.313073 1.728308 0.474993
v 1.704769 1.728308 0.699557
v 2.313073 1.533830 0.811840
v 1.704769 1.728308 0.699557
v 2.313073 1.728308 0.699557
v 1.704769 1.533830 0.811840
v 2.313073 1.339351 0.699557
v 1.704769 1.339351 0.699557
v 2.313073 1.339351 0.474993
v 1.704769 1.339351 0.699557
v 2.313073 1.339351 0.699557
v 1.704769 1.339351 0.474993
v -2.313072 1.533830 0.362711
v -2.313072 1.728308 0.474993
v -2.313072 1.339351 0.474993
v -2.313072 1.728308 0.699557
v -2.313072 1.339351 0.699557
v -2.313072 1.533830 0.811840
v -2.313072 1.728308 0.474993
v -1.704769 1.533830 0.362711
v -1.704769 1.728308 0.474993
v -2.313072 1.533830 0.362711
v -1.704769 1.339351 0.474993
v -2.313072 1.339351 0.474993
v -2.313072 1.728308 0.699557
v -1.704769 1.728308 0.474993
v -1.704769 1.728308 0.699557
v -2.313072 1.728308 0.474993
v -1.704769 1.728308 0.699557
v -2.313072 1.533830 0.811840
v -2.313072 1.728308 0.699557
v -1.704769 1.533830 0.811840
v -2.313072 1.339351 0.699557
v -1.704769 1.339351 0.699557
v -2.313072 1.339351 0.474993
v -1.704769 1.339351 0.699557
v -1.704769 1.339351 0.474993
v -2.313072 1.339351 0.699557
v -2.418760 2.859858 -1.145264
v 2.418760 2.859858 -1.145264
v -2.418760 2.859858 -2.364937
v 2.418760 2.859858 -2.364937
v -2.418760 1.059296 -1.145264
v 2.418760 1.059297 -1.145264
v -2.418760 1.059297 -2.364937
v 2.418760 1.059297 -2.364937
vn -0.7071 0.0001 0.7071
vn -0.3827 -0.0000 0.9239
vn -0.7071 -0.0000 0.7071
vn -0.0000 -0.0000 1.0000
vn 0.3827 -0.0000 0.9239
vn 0.7071 -0.0000 0.7071
vn -0.9239 -0.0000 0.3827
vn -1.0000 -0.0000 -0.0000
vn -0.9239 -0.0000 -0.3827
vn -0.7071 -0.0000 -0.7071
vn -0.3827 -0.0000 -0.9239
vn -0.0000 -0.0000 -1.0000
vn 0.3827 -0.0000 -0.9239
vn 0.7071 -0.0000 -0.7071
vn -0.3903 -0.0000 -0.9207
vn -0.2578 -0.0000 -0.9662
vn 0.2578 -0.0000 -0.9662
vn 0.3903 -0.0000 -0.9207
vn -0.7360 -0.0060 0.6770
vn -0.9435 -0.0000 0.3315
vn -0.7204 -0.0000 0.6936
vn -0.9289 -0.0000 0.3704
vn -0.9823 -0.0000 0.1875
vn -0.0000 1.0000 -0.0000
vn -0.2030 -0.0000 0.9792
vn -0.3952 -0.0000 0.9186
vn -0.7205 -0.0000 0.6935
vn -0.5714 -0.0000 0.8207
vn -0.7360 0.0051 0.6769
vn 0.2030 -0.0000 0.9792
vn 0.3952 -0.0000 0.9186
vn 0.7205 -0.0000 0.6935
vn 0.5714 -0.0000 0.8207
vn 0.7360 0.0051 0.6769
vn -0.0000 0.9309 0.3653
vn 0.9239 -0.0000 0.3827
vn 1.0000 -0.0000 -0.0000
vn 0.9239 -0.0000 -0.3827
vn 0.7360 -0.0060 0.6770
vn 0.7204 -0.0000 0.6936
vn 0.9435 -0.0000 0.3315
vn 0.9289 -0.0000 0.3704
vn 0.9823 -0.0000 0.1875
vn 0.4920 0.5471 -0.6772
vn -0.0000 0.5471 -0.8371
vn 0.4919 0.5471 -0.6772
vn -0.4920 0.5471 -0.6772
vn 0.7961 0.5472 -0.2587
vn 0.4921 0.5471 -0.6771
vn 0.7961 0.5472 -0.2586
vn 0.7961 0.5472 0.2587
vn 0.4920 0.5472 0.6771
vn 0.4921 0.5471 0.6771
vn 0.4919 0.5472 0.6772
vn -0.0000 0.5471 0.8370
vn 0.4920 0.5472 0.6772
vn -0.4920 0.5471 0.6772
vn -0.4921 0.5471 0.6772
vn -0.7961 0.5471 0.2587
vn -0.7961 0.5471 -0.2587
vn -0.5663 0.2676 -0.7795
vn -0.0000 0.2676 -0.9635
vn 0.5663 0.2676 -0.7795
vn -0.5664 0.2677 -0.7795
vn -0.5664 0.2676 -0.7795
vn -0.9164 0.2677 -0.2978
vn -0.9164 0.2676 -0.2977
vn -0.9164 0.2677 0.2977
vn -0.5664 0.2677 0.7795
vn -0.5664 0.2676 0.7795
vn -0.5663 0.2677 0.7795
vn -0.5663 0.2676 0.7795
vn -0.0000 0.2676 0.9635
vn 0.5663 0.2676 0.7795
vn 0.5664 0.2676 0.7795
vn 0.9164 0.2676 0.2978
vn 0.9164 0.2676 -0.2977
vn 0.5664 0.2676 -0.7795
vn -0.9164 0.2676 -0.2978
vn -0.9863 -0.0050 0.1650
vn -0.8943 -0.0455 0.4451
vn 0.9863 -0.0050 0.1650
vn 0.8943 -0.0456 0.4451
vn -0.9880 0.0497 0.1460
vn -0.9026 0.0266 0.4297
vn -0.4147 0.0005 0.9100
vn -0.3476 -0.0000 0.9377
vn 0.4147 0.0005 0.9100
vn 0.3476 -0.0000 0.9376
vn 0.9026 0.0266 0.4297
vn 0.9880 0.0497 0.1460
vn -0.0040 -0.9342 -0.3568
vn -0.0012 -0.9344 -0.3562
vn -0.0074 -0.9338 -0.3577
vn 0.0012 -0.9344 -0.3562
vn 0.0040 -0.9342 -0.3568
vn 0.0074 -0.9338 -0.3577
vn 0.3476 -0.0000 0.9377
vn -0.3476 -0.0000 0.9376
vn -0.0000 -1.0000 -0.0000
vn -0.0000 0.8660 -0.5000
vn -0.0000 -0.8660 -0.5000
vn -0.0000 0.8660 0.5000
vn -0.0000 -0.8660 0.5000
vn 0.0002 -0.8660 -0.5000
vt 0.474851 0.500000
vt 0.486391 0.500000
vt 0.474851 0.506570
vt 0.486391 0.506570
vt 0.500004 0.500000
vt 0.500004 0.506570
vt 0.513616 0.506570
vt 0.513616 0.500000
vt 0.525156 0.506570
vt 0.525156 0.500000
vt -2.871808 0.506570
vt -2.883434 0.506570
vt -2.871808 0.500000
vt -2.883434 0.500000
vt -2.897148 0.506570
vt -2.897148 0.500000
vt -2.910861 0.506570
vt -2.910861 0.500000
vt -2.922487 0.506570
vt -2.922487 0.500000
vt 0.525149 0.506570
vt 0.513609 0.506570
vt 0.525149 0.500000
vt 0.513609 0.500000
vt 0.499996 0.506570
vt 0.499996 0.500000
vt 0.486384 0.500000
vt 0.486384 0.506570
vt 0.474844 0.500000
vt 0.474844 0.506570
vt 0.531558 0.538020
vt 0.517789 0.538020
vt 0.531558 0.506570
vt 0.517789 0.506570
vt 0.499996 0.538020
vt 0.499996 0.506570
vt 0.482203 0.506570
vt 0.482203 0.538020
vt 0.468435 0.506570
vt 0.468435 0.538020
vt -2.874665 0.532013
vt -2.884980 0.534769
vt -2.874665 0.506570
vt -2.884980 0.506570
vt -2.897148 0.506570
vt -2.897148 0.538020
vt -2.936457 0.538020
vt -2.936457 0.506570
vt 0.468442 3.936457
vt 0.468442 3.897148
vt 0.482211 3.942099
vt 0.500004 3.897148
vt 0.500004 3.944184
vt 0.517797 3.942099
vt 0.531565 3.897148
vt 0.531565 3.936457
vt 0.493482 0.529875
vt 0.493482 0.514899
vt 0.500004 0.529525
vt 0.500004 0.506570
vt 0.487926 0.506570
vt 0.487926 0.514899
vt 0.477686 0.506570
vt 0.482369 0.514899
vt 0.482369 0.531171
vt 0.477686 0.532013
vt 0.506526 0.514899
vt 0.506526 0.529875
vt 0.512082 0.506570
vt 0.512082 0.514899
vt 0.522321 0.506570
vt 0.517638 0.514899
vt 0.517638 0.531171
vt 0.522321 0.532013
vt 0.482369 3.871512
vt 0.482369 3.880221
vt 0.477686 3.874665
vt 0.470845 3.884980
vt 0.485512 3.883279
vt 0.490339 3.883279
vt 0.493482 3.880221
vt 0.493482 3.866659
vt 0.500004 3.865352
vt 0.506526 3.866659
vt 0.506526 3.880221
vt 0.509668 3.883279
vt 0.514495 3.883279
vt 0.517638 3.880221
vt 0.529163 3.884980
vt 0.522321 3.874665
vt 0.517638 3.871512
vt 3.871808 0.506570
vt 3.871808 0.500000
vt 3.883434 0.506570
vt 3.883434 0.500000
vt 3.897148 0.506570
vt 3.897148 0.500000
vt 3.910861 0.506570
vt 3.910861 0.500000
vt 3.922487 0.506570
vt 3.922487 0.500000
vt 3.874665 0.532013
vt 3.874665 0.506570
vt 3.884980 0.534769
vt 3.884980 0.506570
vt 3.897148 0.506570
vt 3.897148 0.538020
vt 3.936457 0.506570
vt 3.936457 0.538020
vt 0.494042 0.538020
vt 0.499996 0.538020
vt 0.495530 0.541909
vt 0.499997 0.541909
vt 0.505950 0.538020
vt 0.504463 0.541909
vt 3.932873 0.541909
vt 3.929046 0.541909
vt 3.934936 0.538020
vt 3.929833 0.538020
vt 3.924314 0.541909
vt 3.923526 0.538020
vt 3.920487 0.541909
vt 3.918424 0.538020
vt 0.504470 0.541909
vt 0.500003 0.541909
vt 0.505958 0.538020
vt 0.500004 0.538020
vt 0.495537 0.541909
vt 0.494050 0.538020
vt -2.920486 0.541909
vt -2.924314 0.541909
vt -2.918424 0.538020
vt -2.923526 0.538020
vt -2.929046 0.541909
vt -2.929833 0.538020
vt -2.932873 0.541909
vt -2.934936 0.538020
vt 0.507231 3.924314
vt 0.507230 3.929046
vt 0.504470 3.920487
vt 0.504470 3.932873
vt 0.500003 3.934335
vt 0.500003 3.919024
vt 0.495537 3.920486
vt 0.495537 3.932873
vt 0.492776 3.924314
vt 0.492776 3.929046
vt 0.524844 0.538020
vt 0.524212 0.541909
vt 0.522314 0.538020
vt 0.522314 0.541909
vt 0.519784 0.538020
vt 0.520416 0.541909
vt -2.906619 0.541909
vt -2.907496 0.538020
vt -2.904993 0.541909
vt -2.905327 0.538020
vt -2.902982 0.541909
vt -2.902647 0.538020
vt -2.901356 0.541909
vt -2.900479 0.538020
vt 0.475788 0.541909
vt 0.475156 0.538020
vt 0.477686 0.541909
vt 0.477686 0.538020
vt 0.479584 0.541909
vt 0.480216 0.538020
vt 3.901356 0.541909
vt 3.900479 0.538020
vt 3.902982 0.541909
vt 3.902647 0.538020
vt 3.904993 0.541909
vt 3.905327 0.538020
vt 3.906619 0.541909
vt 3.907496 0.538020
vt 0.474615 3.902982
vt 0.475788 3.901356
vt 0.474615 3.904993
vt 0.475788 3.906619
vt 0.477686 3.907241
vt 0.477686 3.900734
vt 0.479584 3.901356
vt 0.479584 3.906619
vt 0.480758 3.902982
vt 0.480758 3.904993
vt 0.480209 0.538020
vt 0.479577 0.541909
vt 0.477679 0.538020
vt 0.477679 0.541909
vt 0.475149 0.538020
vt 0.475781 0.541909
vt 0.520423 0.541909
vt 0.519791 0.538020
vt 0.522321 0.541909
vt 0.522321 0.538020
vt 0.524219 0.541909
vt 0.524851 0.538020
vt 3.902982 0.541909
vt 3.905327 0.538020
vt 0.519250 3.902982
vt 0.520423 3.901356
vt 0.519250 3.904993
vt 0.520423 3.906619
vt 0.522321 3.907241
vt 0.522321 3.900734
vt 0.524219 3.901356
vt 0.524219 3.906619
vt 0.525392 3.902982
vt 0.525392 3.904993
vt 0.467140 3.910861
vt 0.464433 3.897148
vt 0.467140 3.883434
vt 0.474851 3.871808
vt 0.474851 3.922487
vt 0.486391 3.864040
vt 0.486391 3.930256
vt 0.500004 3.861312
vt 0.500004 3.932983
vt 0.513616 3.864040
vt 0.513616 3.930256
vt 0.525156 3.871808
vt 0.525156 3.922487
vt 0.532867 3.883434
vt 0.532867 3.910861
vt 0.535575 3.897148
vt -2.866659 0.514899
vt -2.866659 0.529875
vt -2.894315 0.514899
vt -2.880210 0.531495
vt -2.880221 0.533498
vt -2.894315 0.535173
vt 3.880210 0.531495
vt 3.880221 0.533498
vt 3.871512 0.531171
vt 3.894315 0.514899
vt 3.871512 0.514899
vt 3.894315 0.535173
vt 0.493482 3.894315
vt 0.487926 3.867772
vt 0.482369 3.894315
vt 0.493482 0.531495
vt 0.493482 0.533498
vt 0.490339 0.532312
vt 0.490339 0.534315
vt 0.485512 0.532312
vt 0.485512 0.534315
vt 0.482369 0.533498
vt 0.482369 0.531495
vt 0.509661 3.883279
vt 0.506518 3.894315
vt 0.506518 3.880210
vt 0.517631 3.894315
vt 0.514488 3.883279
vt 0.517631 3.880210
vt 3.866659 0.514899
vt 3.866659 0.529875
vt -2.871512 0.531171
vt -2.871512 0.514899
vt 0.506526 3.894315
vt 0.512082 3.867772
vt 0.517638 3.894315
vt 0.506526 0.531495
vt 0.509668 0.532312
vt 0.506526 0.533498
vt 0.509668 0.534315
vt 0.514495 0.532312
vt 0.514495 0.534315
vt 0.517638 0.533498
vt 0.517638 0.531495
vt 0.493474 3.894315
vt 0.490332 3.883279
vt 0.493474 3.880210
vt 0.482362 3.894315
vt 0.485505 3.883279
vt 0.482362 3.880210
vt 0.470837 3.884980
vt 0.477679 3.874665
vt 0.468435 3.897148
vt 0.468435 3.936457
vt 0.482203 3.942099
vt 0.487918 3.867772
vt 0.499996 3.944184
vt 0.499996 3.865352
vt 0.512074 3.867772
vt 0.517789 3.942099
vt 0.522314 3.874665
vt 0.531558 3.936457
vt 0.531558 3.897148
vt 0.529155 3.884980
vt 0.482369 0.535173
vt 0.482369 0.514899
vt 0.493482 0.535173
vt 0.493482 0.514899
vt 0.506526 0.535173
vt 0.517638 0.535173
vt 0.532860 3.910861
vt 0.532860 3.883434
vt 0.535567 3.897148
vt 0.525149 3.922487
vt 0.525149 3.871808
vt 0.513609 3.930256
vt 0.513609 3.864040
vt 0.499996 3.932983
vt 0.499996 3.861312
vt 0.486384 3.930256
vt 0.486384 3.864040
vt 0.474844 3.922487
vt 0.474844 3.871808
vt 0.467133 3.910861
vt 0.467133 3.883434
vt 0.464425 3.897148
vt 3.889920 0.526223
vt 3.889920 0.520321
vt 3.891629 0.523272
vt 3.886503 0.526223
vt 3.886503 0.520321
vt 3.884794 0.523272
vt 0.477872 0.526223
vt 0.468684 0.526223
vt 0.477872 0.523272
vt 0.468684 0.523272
vt 0.477872 0.520321
vt 0.468684 0.520321
vt 0.531316 3.889920
vt 0.522128 3.889920
vt 0.531316 3.886503
vt 0.522128 3.886503
vt 0.531316 0.526223
vt 0.522128 0.526223
vt 0.531316 0.523272
vt 0.522128 0.523272
vt 0.531316 0.520321
vt 0.522128 0.520321
vt 0.468684 3.886503
vt 0.477872 3.886503
vt 0.468684 3.889920
vt 0.477872 3.889920
vt -2.889920 0.520321
vt -2.889920 0.526223
vt -2.891629 0.523272
vt -2.886503 0.526223
vt -2.886503 0.520321
vt -2.884794 0.523272
vt 0.522121 0.526223
vt 0.522121 0.523272
vt 0.531309 0.526223
vt 0.531309 0.523272
vt 0.522121 0.520321
vt 0.531309 0.520321
vt 0.477879 3.886503
vt 0.477879 3.889920
vt 0.468691 3.886503
vt 0.468691 3.889920
vt 0.468691 0.526223
vt 0.468691 0.523272
vt 0.477879 0.526223
vt 0.477879 0.523272
vt 0.468691 0.520321
vt 0.477879 0.520321
vt 0.522121 3.889920
vt 0.522121 3.886503
vt 0.531309 3.889920
vt 0.531309 3.886503
vt 0.375000 0.000000
vt 0.625000 0.000000
vt 0.625000 0.250000
vt 0.375000 0.250000
vt 0.625000 0.500000
vt 0.375000 0.500000
vt 0.625000 0.750000
vt 0.375000 0.750000
vt 0.625000 1.000000
vt 0.375000 1.000000
vt 0.125000 0.500000
vt 0.125000 0.750000
vt 0.875000 0.500000
vt 0.875000 0.750000
s 1
f 3/1/1 2/2/2 1/3/3
f 4/4/2 1/3/3 2/2/2
f 2/2/2 5/5/4 4/4/2
f 6/6/4 4/4/2 5/5/4
f 6/6/4 5/5/4 7/7/5
f 8/8/5 7/7/5 5/5/4
f 7/7/5 8/8/5 9/9/6
f 10/10/6 9/9/6 8/8/5
f 13/11/3 12/12/7 11/13/3
f 14/14/7 11/13/3 12/12/7
f 12/12/7 15/15/8 14/14/7
f 16/16/8 14/14/7 15/15/8
f 15/15/8 17/17/9 16/16/8
f 18/18/9 16/16/8 17/17/9
f 17/17/9 19/19/10 18/18/9
f 20/20/10 18/18/9 19/19/10
f 23/21/10 22/22/11 21/23/10
f 24/24/11 21/23/10 22/22/11
f 22/22/11 25/25/12 24/24/11
f 26/26/12 24/24/11 25/25/12
f 26/26/12 25/25/12 27/27/13
f 28/28/13 27/27/13 25/25/12
f 27/27/13 28/28/13 29/29/14
f 30/30/14 29/29/14 28/28/13
f 33/31/15 32/32/16 31/33/15
f 34/34/16 31/33/15 32/32/16
f 32/32/16 35/35/12 34/34/16
f 36/36/12 34/34/16 35/35/12
f 36/36/12 35/35/12 37/37/17
f 38/38/17 37/37/17 35/35/12
f 37/37/17 38/38/17 39/39/18
f 40/40/18 39/39/18 38/38/17
f 43/41/19 42/42/20 41/43/21
f 44/44/22 41/43/21 42/42/20
f 44/44/22 42/42/20 45/45/23
f 46/46/23 45/45/23 42/42/20
f 49/47/8 48/48/8 47/46/8
f 50/45/8 47/46/8 48/48/8
f 53/49/24 52/50/24 51/51/24
f 54/52/24 51/51/24 52/50/24
f 54/52/24 55/53/24 51/51/24
f 55/53/24 54/52/24 56/54/24
f 54/52/24 57/55/24 56/54/24
f 58/56/24 56/54/24 57/55/24
f 61/57/25 60/58/25 59/59/4
f 62/60/4 59/59/4 60/58/25
f 62/60/4 60/58/25 63/61/26
f 64/62/26 63/61/26 60/58/25
f 63/61/26 64/62/26 65/63/27
f 66/64/28 65/63/27 64/62/26
f 66/64/28 67/65/28 65/63/27
f 68/66/29 65/63/27 67/65/28
f 62/60/4 69/67/30 59/59/4
f 70/68/30 59/59/4 69/67/30
f 62/60/4 71/69/31 69/67/30
f 72/70/31 69/67/30 71/69/31
f 71/69/31 73/71/32 72/70/31
f 74/72/33 72/70/31 73/71/32
f 74/72/33 73/71/32 75/73/33
f 76/74/34 75/73/33 73/71/32
f 79/75/35 78/76/35 77/77/35
f 77/77/35 78/76/35 80/78/35
f 80/78/35 78/76/35 81/50/35
f 82/79/35 81/50/35 78/76/35
f 81/50/35 82/79/35 83/52/35
f 84/80/35 83/52/35 82/79/35
f 83/52/35 84/80/35 85/81/35
f 85/81/35 86/82/35 83/52/35
f 87/83/35 83/52/35 86/82/35
f 87/83/35 88/84/35 83/52/35
f 89/85/35 83/52/35 88/84/35
f 90/86/35 83/52/35 89/85/35
f 90/86/35 91/87/35 83/52/35
f 92/55/35 83/52/35 91/87/35
f 91/87/35 93/88/35 92/55/35
f 94/89/35 92/55/35 93/88/35
f 93/88/35 95/90/35 94/89/35
f 93/88/35 96/91/35 95/90/35
f 99/92/6 98/93/6 97/94/36
f 100/95/36 97/94/36 98/93/6
f 97/94/36 100/95/36 101/96/37
f 102/97/37 101/96/37 100/95/36
f 101/96/37 102/97/37 103/98/38
f 104/99/38 103/98/38 102/97/37
f 103/98/38 104/99/38 105/100/14
f 106/101/14 105/100/14 104/99/38
f 109/102/39 108/103/40 107/104/41
f 110/105/42 107/104/41 108/103/40
f 110/105/42 111/106/43 107/104/41
f 112/107/43 107/104/41 111/106/43
f 115/106/37 114/108/37 113/107/37
f 116/109/37 113/107/37 114/108/37
f 119/110/44 118/111/45 117/112/46
f 120/113/45 117/112/46 118/111/45
f 118/111/45 121/114/47 120/113/45
f 122/115/47 120/113/45 121/114/47
f 125/116/44 124/117/48 123/118/49
f 126/119/50 123/118/49 124/117/48
f 124/117/48 127/120/51 126/119/50
f 128/121/51 126/119/50 127/120/51
f 127/120/51 129/122/52 128/121/51
f 130/123/53 128/121/51 129/122/52
f 133/124/54 132/125/55 131/126/56
f 134/127/55 131/126/56 132/125/55
f 132/125/55 135/128/57 134/127/55
f 136/129/57 134/127/55 135/128/57
f 139/130/58 138/131/59 137/132/57
f 140/133/59 137/132/57 138/131/59
f 138/131/59 141/134/60 140/133/59
f 142/135/60 140/133/59 141/134/60
f 141/134/60 143/136/47 142/135/60
f 144/137/47 142/135/60 143/136/47
f 147/138/24 146/139/24 145/140/24
f 148/141/24 145/140/24 146/139/24
f 148/141/24 149/142/24 145/140/24
f 150/143/24 145/140/24 149/142/24
f 150/143/24 149/142/24 151/144/24
f 152/145/24 151/144/24 149/142/24
f 151/144/24 152/145/24 153/146/24
f 154/147/24 153/146/24 152/145/24
f 157/148/61 156/149/61 155/150/62
f 158/151/62 155/150/62 156/149/61
f 155/150/62 158/151/62 159/152/63
f 160/153/63 159/152/63 158/151/62
f 163/154/64 162/155/65 161/156/66
f 164/157/67 161/156/66 162/155/65
f 161/156/66 164/157/67 165/158/68
f 166/159/68 165/158/68 164/157/67
f 165/158/68 166/159/68 167/160/69
f 168/161/70 167/160/69 166/159/68
f 171/162/71 170/163/72 169/164/73
f 172/165/73 169/164/73 170/163/72
f 169/164/73 172/165/73 173/166/74
f 174/167/74 173/166/74 172/165/73
f 177/168/75 176/169/75 175/170/76
f 178/171/76 175/170/76 176/169/75
f 175/170/76 178/171/76 179/172/77
f 180/173/77 179/172/77 178/171/76
f 179/172/77 180/173/77 181/174/78
f 182/175/78 181/174/78 180/173/77
f 185/176/24 184/177/24 183/178/24
f 186/179/24 183/178/24 184/177/24
f 186/179/24 184/177/24 187/180/24
f 188/181/24 187/180/24 184/177/24
f 188/181/24 189/182/24 187/180/24
f 190/183/24 187/180/24 189/182/24
f 189/182/24 191/184/24 190/183/24
f 192/185/24 190/183/24 191/184/24
f 195/186/61 194/187/61 193/188/62
f 196/189/62 193/188/62 194/187/61
f 193/188/62 196/189/62 197/190/63
f 198/191/63 197/190/63 196/189/62
f 201/154/64 200/155/65 199/156/79
f 202/157/67 199/156/79 200/155/65
f 199/156/79 202/157/67 203/158/68
f 204/159/68 203/158/68 202/157/67
f 203/158/68 204/159/68 205/160/69
f 206/161/70 205/160/69 204/159/68
f 209/192/71 208/193/72 207/194/73
f 210/195/73 207/194/73 208/193/72
f 207/194/73 210/195/73 211/196/74
f 212/197/74 211/196/74 210/195/73
f 215/168/75 214/169/75 213/198/76
f 216/171/76 213/198/76 214/169/75
f 213/198/76 216/171/76 217/172/77
f 218/199/77 217/172/77 216/171/76
f 217/172/77 218/199/77 219/174/78
f 220/175/78 219/174/78 218/199/77
f 223/200/24 222/201/24 221/202/24
f 224/203/24 221/202/24 222/201/24
f 224/203/24 222/201/24 225/204/24
f 226/205/24 225/204/24 222/201/24
f 226/205/24 227/206/24 225/204/24
f 228/207/24 225/204/24 227/206/24
f 227/206/24 229/208/24 228/207/24
f 230/209/24 228/207/24 229/208/24
f 233/210/24 232/211/24 231/212/24
f 231/212/24 234/213/24 233/210/24
f 235/214/24 233/210/24 234/213/24
f 234/213/24 236/215/24 235/214/24
f 237/216/24 235/214/24 236/215/24
f 236/215/24 238/217/24 237/216/24
f 239/218/24 237/216/24 238/217/24
f 238/217/24 240/219/24 239/218/24
f 241/220/24 239/218/24 240/219/24
f 240/219/24 242/221/24 241/220/24
f 243/222/24 241/220/24 242/221/24
f 242/221/24 244/223/24 243/222/24
f 245/224/24 243/222/24 244/223/24
f 246/225/24 245/224/24 244/223/24
f 249/226/8 248/227/8 247/228/8
f 250/229/80 247/228/8 248/227/8
f 251/230/81 250/229/80 248/227/8
f 250/229/80 252/231/8 247/228/8
f 255/232/82 254/233/83 253/234/37
f 255/232/82 253/234/37 256/235/37
f 257/236/37 256/235/37 253/234/37
f 256/235/37 258/237/37 255/232/82
f 261/82/24 260/238/24 259/239/24
f 260/238/24 262/240/24 259/239/24
f 263/75/24 259/239/24 262/240/24
f 266/241/84 265/242/85 264/243/86
f 267/244/87 264/243/86 265/242/85
f 264/243/86 267/244/87 268/245/88
f 269/246/89 268/245/88 267/244/87
f 269/246/89 270/247/90 268/245/88
f 271/248/91 268/245/88 270/247/90
f 274/249/92 273/250/93 272/251/94
f 273/250/93 274/249/92 275/252/95
f 276/253/96 275/252/95 274/249/92
f 277/254/97 275/252/95 276/253/96
f 280/255/37 279/235/37 278/256/37
f 281/232/82 278/256/37 279/235/37
f 282/237/37 281/232/82 279/235/37
f 281/232/82 283/233/83 278/256/37
f 286/230/81 285/229/80 284/257/8
f 285/229/80 287/228/8 284/257/8
f 288/258/8 284/257/8 287/228/8
f 289/231/8 287/228/8 285/229/80
f 292/259/24 291/84/24 290/260/24
f 292/259/24 290/260/24 293/261/24
f 294/91/24 293/261/24 290/260/24
f 297/262/91 296/263/88 295/264/90
f 298/265/98 295/264/90 296/263/88
f 296/263/88 299/266/86 298/265/98
f 300/267/99 298/265/98 299/266/86
f 300/267/99 299/266/86 301/268/85
f 302/269/84 301/268/85 299/266/86
f 305/270/95 304/271/96 303/272/97
f 305/270/95 306/273/93 304/271/96
f 307/274/92 304/271/96 306/273/93
f 306/273/93 308/275/94 307/274/92
f 311/276/100 310/277/100 309/278/100
f 312/279/100 309/278/100 310/277/100
f 312/279/100 310/277/100 313/280/100
f 314/281/100 313/280/100 310/277/100
f 313/280/100 314/281/100 315/282/100
f 316/283/100 315/282/100 314/281/100
f 316/283/100 317/284/100 315/282/100
f 318/285/100 315/282/100 317/284/100
f 317/284/100 319/286/100 318/285/100
f 320/287/100 318/285/100 319/286/100
f 320/287/100 319/286/100 321/288/100
f 322/289/100 321/288/100 319/286/100
f 325/290/4 324/291/4 323/292/4
f 326/293/4 323/292/4 324/291/4
f 329/67/4 328/72/4 327/294/4
f 330/295/4 327/294/4 328/72/4
f 333/296/100 332/297/100 331/298/100
f 333/296/100 334/299/100 332/297/100
f 335/300/100 332/297/100 334/299/100
f 334/299/100 336/301/100 335/300/100
f 337/302/100 335/300/100 336/301/100
f 336/301/100 338/303/100 337/302/100
f 339/304/100 337/302/100 338/303/100
f 338/303/100 340/305/100 339/304/100
f 341/306/100 339/304/100 340/305/100
f 340/305/100 342/307/100 341/306/100
f 343/308/100 341/306/100 342/307/100
f 342/307/100 344/309/100 343/308/100
f 345/310/100 343/308/100 344/309/100
f 346/311/100 345/310/100 344/309/100
f 349/312/37 348/313/37 347/314/37
f 349/312/37 350/315/37 348/313/37
f 351/316/37 348/313/37 350/315/37
f 352/317/37 351/316/37 350/315/37
f 355/318/101 354/319/101 353/320/12
f 356/321/12 353/320/12 354/319/101
f 353/320/12 356/321/12 357/322/102
f 358/323/102 357/322/102 356/321/12
f 361/324/101 360/325/101 359/326/103
f 362/327/103 359/326/103 360/325/101
f 365/328/103 364/329/103 363/330/4
f 366/331/4 363/330/4 364/329/103
f 363/330/4 366/331/4 367/332/104
f 368/333/104 367/332/104 366/331/4
f 371/334/104 370/335/104 369/336/102
f 372/337/102 369/336/102 370/335/104
f 375/338/8 374/339/8 373/340/8
f 374/339/8 375/338/8 376/341/8
f 377/342/8 376/341/8 375/338/8
f 377/342/8 378/343/8 376/341/8
f 381/344/101 380/345/12 379/346/101
f 382/347/12 379/346/101 380/345/12
f 380/345/12 383/348/102 382/347/12
f 384/349/105 382/347/12 383/348/102
f 387/350/103 386/351/101 385/352/103
f 388/353/101 385/352/103 386/351/101
f 391/354/103 390/355/4 389/356/103
f 392/357/4 389/356/103 390/355/4
f 390/355/4 393/358/104 392/357/4
f 394/359/104 392/357/4 393/358/104
f 397/360/102 396/361/104 395/362/102
f 398/363/104 395/362/102 396/361/104
s 0
f 399/364/24 400/365/24 402/366/24 401/367/24
f 401/367/12 402/366/12 406/368/12 405/369/12
f 405/369/100 406/368/100 404/370/100 403/371/100
f 403/371/4 404/370/4 400/372/4 399/373/4
f 401/374/8 405/369/8 403/371/8 399/375/8
f 406/368/37 402/376/37 400/377/37 404/370/37
