# Blender 4.5.3 LTS
# www.blender.org
mtllib VDT_gun_cal200_A_barrel_x4_001.mtl
o VDT_gun_cal200_A_barrel_x4_001
v -1.047617 1.647646 6.922372
v -1.189860 1.499999 1.458019
v -1.104952 1.704985 1.458019
v -1.108776 1.499994 6.922372
v -1.104952 1.295012 1.458019
v -1.047617 1.352343 6.922372
v -1.064635 1.335326 7.125052
v -1.132843 1.499994 7.125052
v -1.064635 1.664663 7.125052
v -1.047617 1.352343 6.922372
v -0.899965 1.210104 1.458019
v -1.104952 1.295012 1.458019
v -0.899966 1.291184 6.922372
v -0.752315 1.352343 6.922372
v -0.694979 1.295012 1.458019
v -0.735298 1.335326 7.125052
v -0.899966 1.267118 7.125052
v -1.064635 1.335326 7.125052
v -0.589582 1.810384 -0.319249
v -0.574872 1.499997 3.464303
v -0.670090 1.729873 3.464303
v -0.461017 1.499999 -0.319250
v -0.670090 1.270120 3.464302
v -0.589582 1.189616 -0.319250
v -0.899966 1.825090 3.464303
v -0.589582 1.810384 -0.319249
v -0.670090 1.729873 3.464303
v -0.899965 1.938948 -0.319250
v -1.210349 1.810384 -0.319250
v -1.129842 1.729873 3.464303
v -1.129842 1.729873 3.464303
v -1.338913 1.499999 -0.319250
v -1.210349 1.810384 -0.319250
v -1.225060 1.499997 3.464302
v -1.129842 1.270120 3.464302
v -1.210348 1.189616 -0.319251
v -0.899966 1.174902 3.464302
v -1.210348 1.189616 -0.319251
v -1.129842 1.270120 3.464302
v -0.899965 1.061051 -0.319251
v -0.670090 1.270120 3.464302
v -0.589582 1.189616 -0.319250
v -0.670090 1.729873 3.464303
v -0.899966 1.499996 3.819126
v -0.899966 1.825090 3.464303
v -1.129842 1.729873 3.464303
v -1.129842 1.729873 3.464303
v -0.899966 1.499996 3.819126
v -1.225060 1.499997 3.464302
v -1.129842 1.270120 3.464302
v -1.129842 1.270120 3.464302
v -0.899966 1.499996 3.819126
v -0.899966 1.174902 3.464302
v -0.670090 1.270120 3.464302
v -0.670090 1.270120 3.464302
v -0.899966 1.499996 3.819126
v -0.574872 1.499997 3.464303
v -0.670090 1.729873 3.464303
v -0.667090 1.499994 7.125052
v -0.752315 1.352343 6.922372
v -0.735298 1.335326 7.125052
v -0.691156 1.499994 6.922372
v -0.694979 1.295012 1.458019
v -0.735298 1.664663 7.125052
v -0.610071 1.499999 1.458019
v -0.752315 1.647646 6.922372
v -0.694979 1.704985 1.458019
v -0.694979 1.704985 1.458019
v -0.899966 1.708804 6.922372
v -0.899965 1.789893 1.458019
v -0.752315 1.647646 6.922372
v -1.104952 1.704985 1.458019
v -0.735298 1.664663 7.125052
v -1.047617 1.647646 6.922372
v -0.899966 1.732870 7.125052
v -1.064635 1.664663 7.125052
v -0.667090 1.499994 7.125052
v -0.794350 1.605611 7.166193
v -0.735298 1.664663 7.125052
v -0.750602 1.499994 7.166193
v -0.899966 1.649358 7.166193
v -0.735298 1.335326 7.125052
v -0.899966 1.732870 7.125052
v -0.794350 1.394378 7.166193
v -1.005583 1.605611 7.166193
v -0.899966 1.267118 7.125052
v -1.064635 1.664663 7.125052
v -0.899966 1.350629 7.166193
v -1.049330 1.499994 7.166193
v -1.064635 1.335326 7.125052
v -1.132843 1.499994 7.125052
v -1.005583 1.394378 7.166193
v -0.750602 1.499994 7.166193
v -0.899966 1.499995 6.260434
v -0.794350 1.605611 7.166193
v -0.794350 1.394378 7.166193
v -0.794350 1.605611 7.166193
v -0.899966 1.499995 6.260434
v -0.899966 1.649358 7.166193
v -1.005583 1.605611 7.166193
v -1.005583 1.605611 7.166193
v -0.899966 1.499995 6.260434
v -1.049330 1.499994 7.166193
v -1.005583 1.394378 7.166193
v -1.005583 1.394378 7.166193
v -0.899966 1.499995 6.260434
v -0.899966 1.350629 7.166193
v -0.794350 1.394378 7.166193
v 0.752383 2.647646 6.011443
v 0.610140 2.499999 0.547090
v 0.695048 2.704985 0.547090
v 0.691224 2.499994 6.011443
v 0.695048 2.295012 0.547090
v 0.752383 2.352343 6.011443
v 0.735365 2.335326 6.214124
v 0.667157 2.499994 6.214124
v 0.735365 2.664663 6.214124
v 0.752383 2.352343 6.011443
v 0.900035 2.210104 0.547090
v 0.695048 2.295012 0.547090
v 0.900034 2.291184 6.011443
v 1.047685 2.352343 6.011443
v 1.105021 2.295012 0.547090
v 1.064702 2.335326 6.214124
v 0.900034 2.267118 6.214124
v 0.735365 2.335326 6.214124
v 1.210418 2.810384 -1.230178
v 1.225128 2.499997 2.553374
v 1.129910 2.729873 2.553374
v 1.338983 2.499999 -1.230178
v 1.129910 2.270120 2.553373
v 1.210418 2.189616 -1.230178
v 0.900034 2.825090 2.553374
v 1.210418 2.810384 -1.230178
v 1.129910 2.729873 2.553374
v 0.900035 2.938948 -1.230178
v 0.589651 2.810384 -1.230178
v 0.670158 2.729873 2.553374
v 0.670158 2.729873 2.553374
v 0.461087 2.499999 -1.230178
v 0.589651 2.810384 -1.230178
v 0.574940 2.499997 2.553373
v 0.670158 2.270120 2.553373
v 0.589651 2.189616 -1.230179
v 0.900034 2.174902 2.553373
v 0.589651 2.189616 -1.230179
v 0.670158 2.270120 2.553373
v 0.900035 2.061051 -1.230179
v 1.129910 2.270120 2.553373
v 1.210418 2.189616 -1.230178
v 1.129910 2.729873 2.553374
v 0.900034 2.499996 2.908197
v 0.900034 2.825090 2.553374
v 0.670158 2.729873 2.553374
v 0.670158 2.729873 2.553374
v 0.900034 2.499996 2.908197
v 0.574940 2.499997 2.553373
v 0.670158 2.270120 2.553373
v 0.670158 2.270120 2.553373
v 0.900034 2.499996 2.908197
v 0.900034 2.174902 2.553373
v 1.129910 2.270120 2.553373
v 1.129910 2.270120 2.553373
v 0.900034 2.499996 2.908197
v 1.225128 2.499997 2.553374
v 1.129910 2.729873 2.553374
v 1.132910 2.499994 6.214124
v 1.047685 2.352343 6.011443
v 1.064702 2.335326 6.214124
v 1.108844 2.499994 6.011443
v 1.105021 2.295012 0.547090
v 1.064702 2.664663 6.214124
v 1.189929 2.499999 0.547090
v 1.047685 2.647646 6.011443
v 1.105021 2.704985 0.547090
v 1.105021 2.704985 0.547090
v 0.900034 2.708804 6.011443
v 0.900035 2.789893 0.547090
v 1.047685 2.647646 6.011443
v 0.695048 2.704985 0.547090
v 1.064702 2.664663 6.214124
v 0.752383 2.647646 6.011443
v 0.900034 2.732871 6.214124
v 0.735365 2.664663 6.214124
v 1.132910 2.499994 6.214124
v 1.005650 2.605611 6.255264
v 1.064702 2.664663 6.214124
v 1.049398 2.499994 6.255264
v 0.900034 2.649358 6.255264
v 1.064702 2.335326 6.214124
v 0.900034 2.732871 6.214124
v 1.005650 2.394378 6.255264
v 0.794417 2.605611 6.255264
v 0.900034 2.267118 6.214124
v 0.735365 2.664663 6.214124
v 0.900034 2.350630 6.255264
v 0.750670 2.499994 6.255264
v 0.735365 2.335326 6.214124
v 0.667157 2.499994 6.214124
v 0.794417 2.394378 6.255264
v 1.049398 2.499994 6.255264
v 0.900034 2.499995 5.349505
v 1.005650 2.605611 6.255264
v 1.005650 2.394378 6.255264
v 1.005650 2.605611 6.255264
v 0.900034 2.499995 5.349505
v 0.900034 2.649358 6.255264
v 0.794417 2.605611 6.255264
v 0.794417 2.605611 6.255264
v 0.900034 2.499995 5.349505
v 0.750670 2.499994 6.255264
v 0.794417 2.394378 6.255264
v 0.794417 2.394378 6.255264
v 0.900034 2.499995 5.349505
v 0.900034 2.350630 6.255264
v 1.005650 2.394378 6.255264
v 0.752383 1.647646 6.922372
v 0.610140 1.499999 1.458019
v 0.695048 1.704985 1.458019
v 0.691224 1.499994 6.922372
v 0.695048 1.295012 1.458019
v 0.752383 1.352343 6.922372
v 0.735365 1.335326 7.125052
v 0.667157 1.499994 7.125052
v 0.735365 1.664663 7.125052
v 0.752383 1.352343 6.922372
v 0.900035 1.210104 1.458019
v 0.695048 1.295012 1.458019
v 0.900034 1.291184 6.922372
v 1.047685 1.352343 6.922372
v 1.105021 1.295012 1.458019
v 1.064702 1.335326 7.125052
v 0.900034 1.267118 7.125052
v 0.735365 1.335326 7.125052
v 1.210418 1.810384 -0.319249
v 1.225128 1.499997 3.464303
v 1.129910 1.729873 3.464303
v 1.338983 1.499999 -0.319250
v 1.129910 1.270120 3.464302
v 1.210418 1.189616 -0.319250
v 0.900034 1.825090 3.464303
v 1.210418 1.810384 -0.319249
v 1.129910 1.729873 3.464303
v 0.900035 1.938948 -0.319250
v 0.589651 1.810384 -0.319250
v 0.670158 1.729873 3.464303
v 0.670158 1.729873 3.464303
v 0.461087 1.499999 -0.319250
v 0.589651 1.810384 -0.319250
v 0.574940 1.499997 3.464302
v 0.670158 1.270120 3.464302
v 0.589651 1.189616 -0.319251
v 0.900034 1.174902 3.464302
v 0.589651 1.189616 -0.319251
v 0.670158 1.270120 3.464302
v 0.900035 1.061051 -0.319251
v 1.129910 1.270120 3.464302
v 1.210418 1.189616 -0.319250
v 1.129910 1.729873 3.464303
v 0.900034 1.499996 3.819126
v 0.900034 1.825090 3.464303
v 0.670158 1.729873 3.464303
v 0.670158 1.729873 3.464303
v 0.900034 1.499996 3.819126
v 0.574940 1.499997 3.464302
v 0.670158 1.270120 3.464302
v 0.670158 1.270120 3.464302
v 0.900034 1.499996 3.819126
v 0.900034 1.174902 3.464302
v 1.129910 1.270120 3.464302
v 1.129910 1.270120 3.464302
v 0.900034 1.499996 3.819126
v 1.225128 1.499997 3.464303
v 1.129910 1.729873 3.464303
v 1.132910 1.499994 7.125052
v 1.047685 1.352343 6.922372
v 1.064702 1.335326 7.125052
v 1.108844 1.499994 6.922372
v 1.105021 1.295012 1.458019
v 1.064702 1.664663 7.125052
v 1.189929 1.499999 1.458019
v 1.047685 1.647646 6.922372
v 1.105021 1.704985 1.458019
v 1.105021 1.704985 1.458019
v 0.900034 1.708804 6.922372
v 0.900035 1.789893 1.458019
v 1.047685 1.647646 6.922372
v 0.695048 1.704985 1.458019
v 1.064702 1.664663 7.125052
v 0.752383 1.647646 6.922372
v 0.900034 1.732870 7.125052
v 0.735365 1.664663 7.125052
v 1.132910 1.499994 7.125052
v 1.005650 1.605611 7.166193
v 1.064702 1.664663 7.125052
v 1.049398 1.499994 7.166193
v 0.900034 1.649358 7.166193
v 1.064702 1.335326 7.125052
v 0.900034 1.732870 7.125052
v 1.005650 1.394378 7.166193
v 0.794417 1.605611 7.166193
v 0.900034 1.267118 7.125052
v 0.735365 1.664663 7.125052
v 0.900034 1.350629 7.166193
v 0.750670 1.499994 7.166193
v 0.735365 1.335326 7.125052
v 0.667157 1.499994 7.125052
v 0.794417 1.394378 7.166193
v 1.049398 1.499994 7.166193
v 0.900034 1.499995 6.260434
v 1.005650 1.605611 7.166193
v 1.005650 1.394378 7.166193
v 1.005650 1.605611 7.166193
v 0.900034 1.499995 6.260434
v 0.900034 1.649358 7.166193
v 0.794417 1.605611 7.166193
v 0.794417 1.605611 7.166193
v 0.900034 1.499995 6.260434
v 0.750670 1.499994 7.166193
v 0.794417 1.394378 7.166193
v 0.794417 1.394378 7.166193
v 0.900034 1.499995 6.260434
v 0.900034 1.350629 7.166193
v 1.005650 1.394378 7.166193
v -1.072764 2.647646 6.011443
v -1.215007 2.499999 0.547090
v -1.130099 2.704985 0.547090
v -1.133923 2.499994 6.011443
v -1.130099 2.295012 0.547090
v -1.072764 2.352343 6.011443
v -1.089782 2.335326 6.214124
v -1.157990 2.499994 6.214124
v -1.089782 2.664663 6.214124
v -1.072764 2.352343 6.011443
v -0.925112 2.210104 0.547090
v -1.130099 2.295012 0.547090
v -0.925113 2.291184 6.011443
v -0.777462 2.352343 6.011443
v -0.720126 2.295012 0.547090
v -0.760445 2.335326 6.214124
v -0.925113 2.267118 6.214124
v -1.089782 2.335326 6.214124
v -0.614729 2.810384 -1.230178
v -0.600019 2.499997 2.553374
v -0.695237 2.729873 2.553374
v -0.486164 2.499999 -1.230178
v -0.695237 2.270120 2.553373
v -0.614729 2.189616 -1.230178
v -0.925113 2.825090 2.553374
v -0.614729 2.810384 -1.230178
v -0.695237 2.729873 2.553374
v -0.925112 2.938948 -1.230178
v -1.235496 2.810384 -1.230178
v -1.154989 2.729873 2.553374
v -1.154989 2.729873 2.553374
v -1.364061 2.499999 -1.230178
v -1.235496 2.810384 -1.230178
v -1.250207 2.499997 2.553373
v -1.154989 2.270120 2.553373
v -1.235495 2.189616 -1.230179
v -0.925113 2.174902 2.553373
v -1.235495 2.189616 -1.230179
v -1.154989 2.270120 2.553373
v -0.925112 2.061051 -1.230179
v -0.695237 2.270120 2.553373
v -0.614729 2.189616 -1.230178
v -0.695237 2.729873 2.553374
v -0.925113 2.499996 2.908197
v -0.925113 2.825090 2.553374
v -1.154989 2.729873 2.553374
v -1.154989 2.729873 2.553374
v -0.925113 2.499996 2.908197
v -1.250207 2.499997 2.553373
v -1.154989 2.270120 2.553373
v -1.154989 2.270120 2.553373
v -0.925113 2.499996 2.908197
v -0.925113 2.174902 2.553373
v -0.695237 2.270120 2.553373
v -0.695237 2.270120 2.553373
v -0.925113 2.499996 2.908197
v -0.600019 2.499997 2.553374
v -0.695237 2.729873 2.553374
v -0.692237 2.499994 6.214124
v -0.777462 2.352343 6.011443
v -0.760445 2.335326 6.214124
v -0.716303 2.499994 6.011443
v -0.720126 2.295012 0.547090
v -0.760445 2.664663 6.214124
v -0.635218 2.499999 0.547090
v -0.777462 2.647646 6.011443
v -0.720126 2.704985 0.547090
v -0.720126 2.704985 0.547090
v -0.925113 2.708804 6.011443
v -0.925112 2.789893 0.547090
v -0.777462 2.647646 6.011443
v -1.130099 2.704985 0.547090
v -0.760445 2.664663 6.214124
v -1.072764 2.647646 6.011443
v -0.925113 2.732871 6.214124
v -1.089782 2.664663 6.214124
v -0.692237 2.499994 6.214124
v -0.819497 2.605611 6.255264
v -0.760445 2.664663 6.214124
v -0.775749 2.499994 6.255264
v -0.925113 2.649358 6.255264
v -0.760445 2.335326 6.214124
v -0.925113 2.732871 6.214124
v -0.819497 2.394378 6.255264
v -1.030730 2.605611 6.255264
v -0.925113 2.267118 6.214124
v -1.089782 2.664663 6.214124
v -0.925113 2.350630 6.255264
v -1.074477 2.499994 6.255264
v -1.089782 2.335326 6.214124
v -1.157990 2.499994 6.214124
v -1.030730 2.394378 6.255264
v -0.775749 2.499994 6.255264
v -0.925113 2.499995 5.349505
v -0.819497 2.605611 6.255264
v -0.819497 2.394378 6.255264
v -0.819497 2.605611 6.255264
v -0.925113 2.499995 5.349505
v -0.925113 2.649358 6.255264
v -1.030730 2.605611 6.255264
v -1.030730 2.605611 6.255264
v -0.925113 2.499995 5.349505
v -1.074477 2.499994 6.255264
v -1.030730 2.394378 6.255264
v -1.030730 2.394378 6.255264
v -0.925113 2.499995 5.349505
v -0.925113 2.350630 6.255264
v -0.819497 2.394378 6.255264
vn -0.7071 0.7070 0.0148
vn -0.9999 -0.0000 0.0148
vn -0.7061 0.7061 -0.0525
vn -0.9986 -0.0000 -0.0525
vn -0.7071 -0.7070 0.0148
vn -0.7061 -0.7061 -0.0525
vn -0.7022 -0.7022 -0.1179
vn -0.9930 -0.0000 -0.1179
vn -0.7022 0.7022 -0.1179
vn -0.7070 -0.7071 0.0148
vn -0.0000 -0.9999 0.0148
vn -0.0000 -0.9986 -0.0525
vn 0.7061 -0.7062 -0.0525
vn 0.7070 -0.7071 0.0148
vn 0.7022 -0.7022 -0.1179
vn -0.0000 -0.9930 -0.1179
vn 0.7068 0.7068 0.0301
vn 0.9995 -0.0000 0.0301
vn 0.7068 -0.7068 0.0301
vn -0.0000 0.9995 0.0301
vn -0.7068 0.7068 0.0301
vn -0.9995 -0.0000 0.0301
vn -0.7068 -0.7068 0.0301
vn -0.0000 -0.9995 0.0301
vn -0.0000 0.7373 0.6755
vn -0.0001 -0.0000 1.0000
vn 0.5213 0.5214 0.6755
vn -0.5213 0.5214 0.6755
vn -0.7373 -0.0000 0.6755
vn -0.0000 -0.0001 1.0000
vn -0.5214 0.5213 0.6755
vn -0.5214 -0.5213 0.6755
vn -0.0000 -0.7373 0.6755
vn 0.0001 -0.0000 1.0000
vn -0.5213 -0.5214 0.6755
vn 0.5213 -0.5214 0.6755
vn 0.7373 -0.0000 0.6755
vn -0.0000 0.0001 1.0000
vn 0.5214 -0.5213 0.6755
vn 0.5214 0.5213 0.6755
vn 0.7061 -0.7061 -0.0525
vn 0.9930 -0.0000 -0.1179
vn 0.9986 -0.0000 -0.0525
vn 0.7071 -0.7070 0.0148
vn 0.7022 0.7022 -0.1179
vn 0.9999 -0.0000 0.0148
vn 0.7062 0.7061 -0.0525
vn 0.7071 0.7070 0.0148
vn -0.0000 0.9999 0.0148
vn -0.0000 0.9986 -0.0525
vn 0.7070 0.7071 0.0148
vn 0.7061 0.7062 -0.0525
vn -0.7070 0.7071 0.0148
vn -0.7061 0.7062 -0.0525
vn -0.0000 0.9930 -0.1179
vn 0.3125 0.3125 0.8971
vn 0.4419 -0.0000 0.8971
vn -0.0000 0.4419 0.8971
vn 0.3125 -0.3125 0.8971
vn -0.3125 0.3125 0.8971
vn -0.0000 -0.4419 0.8971
vn -0.4419 -0.0000 0.8971
vn -0.3125 -0.3125 0.8971
vn -0.6977 -0.6977 0.1627
vn -0.0000 -0.0000 1.0000
vn -0.9867 -0.0000 0.1627
vn -0.6977 0.6977 0.1627
vn -0.0000 -0.9867 0.1627
vn 0.6977 -0.6977 0.1627
vn 0.9867 -0.0000 0.1627
vn 0.6977 0.6977 0.1627
vn -0.0000 0.9867 0.1627
vn 0.7061 0.7061 -0.0525
vt -2.886648 0.526383
vt -2.886648 0.523272
vt -2.803499 0.525513
vt -2.803499 0.523272
vt -2.886648 0.520162
vt -2.803499 0.521032
vt -2.800415 0.520774
vt -2.800415 0.523272
vt -2.800415 0.525771
vt 0.491016 3.886648
vt 0.487920 3.886648
vt 0.490150 3.803499
vt 0.487920 3.803499
vt 0.485689 3.803499
vt 0.484823 3.886648
vt 0.485432 3.800415
vt 0.487920 3.800415
vt 0.490407 3.800415
vt 3.856119 0.526760
vt 3.856119 0.523272
vt 3.913692 0.527982
vt 3.913692 0.523272
vt 3.856119 0.519784
vt 3.913692 0.518563
vt 0.515553 3.856119
vt 0.516769 3.913692
vt 0.512080 3.856119
vt 0.512081 3.913692
vt 0.507392 3.913692
vt 0.508608 3.856119
vt -2.913692 0.527982
vt -2.913692 0.523272
vt -2.856119 0.526760
vt -2.856119 0.523272
vt -2.856119 0.519784
vt -2.913692 0.518563
vt 0.491392 3.856119
vt 0.492608 3.913692
vt 0.487920 3.856119
vt 0.487919 3.913692
vt 0.484447 3.856119
vt 0.483231 3.913692
vt 0.512080 3.850720
vt -2.850720 0.523272
vt 0.487920 3.850720
vt 3.850720 0.523272
vt 3.800415 0.520774
vt 3.803499 0.521032
vt 3.800415 0.523272
vt 3.803499 0.523272
vt 3.886648 0.520162
vt 3.800415 0.525771
vt 3.886648 0.523272
vt 3.803499 0.525513
vt 3.886648 0.526383
vt 0.512080 3.886648
vt 0.512080 3.803499
vt 0.515177 3.886648
vt 0.514311 3.803499
vt 0.508984 3.886648
vt 0.514568 3.800415
vt 0.509850 3.803499
vt 0.512080 3.800415
vt 0.509593 3.800415
vt 0.514568 0.525771
vt 0.513676 0.524875
vt 0.515598 0.523272
vt 0.514336 0.523272
vt 0.512080 0.525539
vt 0.514568 0.520774
vt 0.512080 0.526806
vt 0.513676 0.521670
vt 0.510485 0.524875
vt 0.512080 0.519739
vt 0.509593 0.525771
vt 0.512080 0.521006
vt 0.509824 0.523272
vt 0.509593 0.520774
vt 0.508563 0.523272
vt 0.510485 0.521670
vt -2.799789 0.524875
vt -2.813572 0.523272
vt -2.799789 0.523272
vt -2.799789 0.521670
vt 0.487920 3.799789
vt 0.487920 3.813572
vt 0.486324 3.799789
vt 0.489515 3.799789
vt 3.799789 0.523272
vt 3.813572 0.523272
vt 3.799789 0.524875
vt 3.799789 0.521670
vt 0.512080 3.799789
vt 0.512080 3.813572
vt 0.510485 3.799789
vt 0.513676 3.799789
s 1
f 3/1/1 2/2/2 1/3/3
f 4/4/4 1/3/3 2/2/2
f 2/2/2 5/5/5 4/4/4
f 6/6/6 4/4/4 5/5/5
f 6/6/6 7/7/7 4/4/4
f 8/8/8 4/4/4 7/7/7
f 4/4/4 8/8/8 1/3/3
f 9/9/9 1/3/3 8/8/8
f 12/10/10 11/11/11 10/12/6
f 13/13/12 10/12/6 11/11/11
f 13/13/12 11/11/11 14/14/13
f 15/15/14 14/14/13 11/11/11
f 14/14/13 16/16/15 13/13/12
f 17/17/16 13/13/12 16/16/15
f 13/13/12 17/17/16 10/12/6
f 18/18/7 10/12/6 17/17/16
f 21/19/17 20/20/18 19/21/17
f 22/22/18 19/21/17 20/20/18
f 20/20/18 23/23/19 22/22/18
f 24/24/19 22/22/18 23/23/19
f 27/25/17 26/26/17 25/27/20
f 28/28/20 25/27/20 26/26/17
f 28/28/20 29/29/21 25/27/20
f 30/30/21 25/27/20 29/29/21
f 33/31/21 32/32/22 31/33/21
f 34/34/22 31/33/21 32/32/22
f 34/34/22 32/32/22 35/35/23
f 36/36/23 35/35/23 32/32/22
f 39/37/23 38/38/23 37/39/24
f 40/40/24 37/39/24 38/38/23
f 37/39/24 40/40/24 41/41/19
f 42/42/19 41/41/19 40/40/24
f 45/27/25 44/43/26 43/25/27
f 46/30/28 44/43/26 45/27/25
f 49/34/29 48/44/30 47/33/31
f 50/35/32 48/44/30 49/34/29
f 53/39/33 52/45/34 51/37/35
f 54/41/36 52/45/34 53/39/33
f 57/20/37 56/46/38 55/23/39
f 58/19/40 56/46/38 57/20/37
f 61/47/15 60/48/41 59/49/42
f 62/50/43 59/49/42 60/48/41
f 60/48/41 63/51/44 62/50/43
f 59/49/42 62/50/43 64/52/45
f 65/53/46 62/50/43 63/51/44
f 66/54/47 64/52/45 62/50/43
f 65/53/46 67/55/48 62/50/43
f 66/54/47 62/50/43 67/55/48
f 70/56/49 69/57/50 68/58/51
f 71/59/52 68/58/51 69/57/50
f 70/56/49 72/60/53 69/57/50
f 71/59/52 69/57/50 73/61/45
f 74/62/54 69/57/50 72/60/53
f 75/63/55 73/61/45 69/57/50
f 74/62/54 76/64/9 69/57/50
f 75/63/55 69/57/50 76/64/9
f 79/65/56 78/66/56 77/67/57
f 80/68/57 77/67/57 78/66/56
f 78/66/56 79/65/56 81/69/58
f 77/67/57 80/68/57 82/70/59
f 83/71/58 81/69/58 79/65/56
f 84/72/59 82/70/59 80/68/57
f 81/69/58 83/71/58 85/73/60
f 82/70/59 84/72/59 86/74/61
f 87/75/60 85/73/60 83/71/58
f 88/76/61 86/74/61 84/72/59
f 85/73/60 87/75/60 89/77/62
f 86/74/61 88/76/61 90/78/63
f 91/79/62 89/77/62 87/75/60
f 92/80/63 90/78/63 88/76/61
f 89/77/62 91/79/62 92/80/63
f 90/78/63 92/80/63 91/79/62
f 95/81/64 94/82/65 93/83/66
f 93/83/66 94/82/65 96/84/67
f 99/85/68 98/86/65 97/87/64
f 100/88/69 98/86/65 99/85/68
f 103/89/70 102/90/65 101/91/69
f 104/92/71 102/90/65 103/89/70
f 107/93/72 106/94/65 105/95/71
f 108/96/67 106/94/65 107/93/72
f 111/1/1 110/2/2 109/3/3
f 112/4/4 109/3/3 110/2/2
f 110/2/2 113/5/5 112/4/4
f 114/6/6 112/4/4 113/5/5
f 114/6/6 115/7/7 112/4/4
f 116/8/8 112/4/4 115/7/7
f 112/4/4 116/8/8 109/3/3
f 117/9/9 109/3/3 116/8/8
f 120/10/10 119/11/11 118/12/6
f 121/13/12 118/12/6 119/11/11
f 121/13/12 119/11/11 122/14/13
f 123/15/14 122/14/13 119/11/11
f 122/14/13 124/16/15 121/13/12
f 125/17/16 121/13/12 124/16/15
f 121/13/12 125/17/16 118/12/6
f 126/18/7 118/12/6 125/17/16
f 129/19/17 128/20/18 127/21/17
f 130/22/18 127/21/17 128/20/18
f 128/20/18 131/23/19 130/22/18
f 132/24/19 130/22/18 131/23/19
f 135/25/17 134/26/17 133/27/20
f 136/28/20 133/27/20 134/26/17
f 136/28/20 137/29/21 133/27/20
f 138/30/21 133/27/20 137/29/21
f 141/31/21 140/32/22 139/33/21
f 142/34/22 139/33/21 140/32/22
f 142/34/22 140/32/22 143/35/23
f 144/36/23 143/35/23 140/32/22
f 147/37/23 146/38/23 145/39/24
f 148/40/24 145/39/24 146/38/23
f 145/39/24 148/40/24 149/41/19
f 150/42/19 149/41/19 148/40/24
f 153/27/25 152/43/26 151/25/27
f 154/30/28 152/43/26 153/27/25
f 157/34/29 156/44/30 155/33/31
f 158/35/32 156/44/30 157/34/29
f 161/39/33 160/45/34 159/37/35
f 162/41/36 160/45/34 161/39/33
f 165/20/37 164/46/38 163/23/39
f 166/19/40 164/46/38 165/20/37
f 169/47/15 168/48/41 167/49/42
f 170/50/43 167/49/42 168/48/41
f 168/48/41 171/51/44 170/50/43
f 167/49/42 170/50/43 172/52/45
f 173/53/46 170/50/43 171/51/44
f 174/54/47 172/52/45 170/50/43
f 173/53/46 175/55/48 170/50/43
f 174/54/47 170/50/43 175/55/48
f 178/56/49 177/57/50 176/58/51
f 179/59/52 176/58/51 177/57/50
f 178/56/49 180/60/53 177/57/50
f 179/59/52 177/57/50 181/61/45
f 182/62/54 177/57/50 180/60/53
f 183/63/55 181/61/45 177/57/50
f 182/62/54 184/64/9 177/57/50
f 183/63/55 177/57/50 184/64/9
f 187/65/56 186/66/56 185/67/57
f 188/68/57 185/67/57 186/66/56
f 186/66/56 187/65/56 189/69/58
f 185/67/57 188/68/57 190/70/59
f 191/71/58 189/69/58 187/65/56
f 192/72/59 190/70/59 188/68/57
f 189/69/58 191/71/58 193/73/60
f 190/70/59 192/72/59 194/74/61
f 195/75/60 193/73/60 191/71/58
f 196/76/61 194/74/61 192/72/59
f 193/73/60 195/75/60 197/77/62
f 194/74/61 196/76/61 198/78/63
f 199/79/62 197/77/62 195/75/60
f 200/80/63 198/78/63 196/76/61
f 197/77/62 199/79/62 200/80/63
f 198/78/63 200/80/63 199/79/62
f 203/81/64 202/82/65 201/83/66
f 201/83/66 202/82/65 204/84/67
f 207/85/68 206/86/65 205/87/64
f 208/88/69 206/86/65 207/85/68
f 211/89/70 210/90/65 209/91/69
f 212/92/71 210/90/65 211/89/70
f 215/93/72 214/94/65 213/95/71
f 216/96/67 214/94/65 215/93/72
f 219/1/1 218/2/2 217/3/3
f 220/4/4 217/3/3 218/2/2
f 218/2/2 221/5/5 220/4/4
f 222/6/6 220/4/4 221/5/5
f 222/6/6 223/7/7 220/4/4
f 224/8/8 220/4/4 223/7/7
f 220/4/4 224/8/8 217/3/3
f 225/9/9 217/3/3 224/8/8
f 228/10/10 227/11/11 226/12/6
f 229/13/12 226/12/6 227/11/11
f 229/13/12 227/11/11 230/14/13
f 231/15/14 230/14/13 227/11/11
f 230/14/13 232/16/15 229/13/12
f 233/17/16 229/13/12 232/16/15
f 229/13/12 233/17/16 226/12/6
f 234/18/7 226/12/6 233/17/16
f 237/19/17 236/20/18 235/21/17
f 238/22/18 235/21/17 236/20/18
f 236/20/18 239/23/19 238/22/18
f 240/24/19 238/22/18 239/23/19
f 243/25/17 242/26/17 241/27/20
f 244/28/20 241/27/20 242/26/17
f 244/28/20 245/29/21 241/27/20
f 246/30/21 241/27/20 245/29/21
f 249/31/21 248/32/22 247/33/21
f 250/34/22 247/33/21 248/32/22
f 250/34/22 248/32/22 251/35/23
f 252/36/23 251/35/23 248/32/22
f 255/37/23 254/38/23 253/39/24
f 256/40/24 253/39/24 254/38/23
f 253/39/24 256/40/24 257/41/19
f 258/42/19 257/41/19 256/40/24
f 261/27/25 260/43/26 259/25/27
f 262/30/28 260/43/26 261/27/25
f 265/34/29 264/44/30 263/33/31
f 266/35/32 264/44/30 265/34/29
f 269/39/33 268/45/34 267/37/35
f 270/41/36 268/45/34 269/39/33
f 273/20/37 272/46/38 271/23/39
f 274/19/40 272/46/38 273/20/37
f 277/47/15 276/48/41 275/49/42
f 278/50/43 275/49/42 276/48/41
f 276/48/41 279/51/44 278/50/43
f 275/49/42 278/50/43 280/52/45
f 281/53/46 278/50/43 279/51/44
f 282/54/47 280/52/45 278/50/43
f 281/53/46 283/55/48 278/50/43
f 282/54/47 278/50/43 283/55/48
f 286/56/49 285/57/50 284/58/51
f 287/59/52 284/58/51 285/57/50
f 286/56/49 288/60/53 285/57/50
f 287/59/52 285/57/50 289/61/45
f 290/62/54 285/57/50 288/60/53
f 291/63/55 289/61/45 285/57/50
f 290/62/54 292/64/9 285/57/50
f 291/63/55 285/57/50 292/64/9
f 295/65/56 294/66/56 293/67/57
f 296/68/57 293/67/57 294/66/56
f 294/66/56 295/65/56 297/69/58
f 293/67/57 296/68/57 298/70/59
f 299/71/58 297/69/58 295/65/56
f 300/72/59 298/70/59 296/68/57
f 297/69/58 299/71/58 301/73/60
f 298/70/59 300/72/59 302/74/61
f 303/75/60 301/73/60 299/71/58
f 304/76/61 302/74/61 300/72/59
f 301/73/60 303/75/60 305/77/62
f 302/74/61 304/76/61 306/78/63
f 307/79/62 305/77/62 303/75/60
f 308/80/63 306/78/63 304/76/61
f 305/77/62 307/79/62 308/80/63
f 306/78/63 308/80/63 307/79/62
f 311/81/64 310/82/65 309/83/66
f 309/83/66 310/82/65 312/84/67
f 315/85/68 314/86/65 313/87/64
f 316/88/69 314/86/65 315/85/68
f 319/89/70 318/90/65 317/91/69
f 320/92/71 318/90/65 319/89/70
f 323/93/72 322/94/65 321/95/71
f 324/96/67 322/94/65 323/93/72
f 327/1/1 326/2/2 325/3/3
f 328/4/4 325/3/3 326/2/2
f 326/2/2 329/5/5 328/4/4
f 330/6/6 328/4/4 329/5/5
f 330/6/6 331/7/7 328/4/4
f 332/8/8 328/4/4 331/7/7
f 328/4/4 332/8/8 325/3/3
f 333/9/9 325/3/3 332/8/8
f 336/10/10 335/11/11 334/12/6
f 337/13/12 334/12/6 335/11/11
f 337/13/12 335/11/11 338/14/13
f 339/15/14 338/14/13 335/11/11
f 338/14/13 340/16/15 337/13/12
f 341/17/16 337/13/12 340/16/15
f 337/13/12 341/17/16 334/12/6
f 342/18/7 334/12/6 341/17/16
f 345/19/17 344/20/18 343/21/17
f 346/22/18 343/21/17 344/20/18
f 344/20/18 347/23/19 346/22/18
f 348/24/19 346/22/18 347/23/19
f 351/25/17 350/26/17 349/27/20
f 352/28/20 349/27/20 350/26/17
f 352/28/20 353/29/21 349/27/20
f 354/30/21 349/27/20 353/29/21
f 357/31/21 356/32/22 355/33/21
f 358/34/22 355/33/21 356/32/22
f 358/34/22 356/32/22 359/35/23
f 360/36/23 359/35/23 356/32/22
f 363/37/23 362/38/23 361/39/24
f 364/40/24 361/39/24 362/38/23
f 361/39/24 364/40/24 365/41/19
f 366/42/19 365/41/19 364/40/24
f 369/27/25 368/43/26 367/25/27
f 370/30/28 368/43/26 369/27/25
f 373/34/29 372/44/30 371/33/31
f 374/35/32 372/44/30 373/34/29
f 377/39/33 376/45/34 375/37/35
f 378/41/36 376/45/34 377/39/33
f 381/20/37 380/46/38 379/23/39
f 382/19/40 380/46/38 381/20/37
f 385/47/15 384/48/41 383/49/42
f 386/50/43 383/49/42 384/48/41
f 384/48/41 387/51/44 386/50/43
f 383/49/42 386/50/43 388/52/45
f 389/53/46 386/50/43 387/51/44
f 390/54/73 388/52/45 386/50/43
f 389/53/46 391/55/48 386/50/43
f 390/54/73 386/50/43 391/55/48
f 394/56/49 393/57/50 392/58/51
f 395/59/52 392/58/51 393/57/50
f 394/56/49 396/60/53 393/57/50
f 395/59/52 393/57/50 397/61/45
f 398/62/54 393/57/50 396/60/53
f 399/63/55 397/61/45 393/57/50
f 398/62/54 400/64/9 393/57/50
f 399/63/55 393/57/50 400/64/9
f 403/65/56 402/66/56 401/67/57
f 404/68/57 401/67/57 402/66/56
f 402/66/56 403/65/56 405/69/58
f 401/67/57 404/68/57 406/70/59
f 407/71/58 405/69/58 403/65/56
f 408/72/59 406/70/59 404/68/57
f 405/69/58 407/71/58 409/73/60
f 406/70/59 408/72/59 410/74/61
f 411/75/60 409/73/60 407/71/58
f 412/76/61 410/74/61 408/72/59
f 409/73/60 411/75/60 413/77/62
f 410/74/61 412/76/61 414/78/63
f 415/79/62 413/77/62 411/75/60
f 416/80/63 414/78/63 412/76/61
f 413/77/62 415/79/62 416/80/63
f 414/78/63 416/80/63 415/79/62
f 419/81/64 418/82/65 417/83/66
f 417/83/66 418/82/65 420/84/67
f 423/85/68 422/86/65 421/87/64
f 424/88/69 422/86/65 423/85/68
f 427/89/70 426/90/65 425/91/69
f 428/92/71 426/90/65 427/89/70
f 431/93/72 430/94/65 429/95/71
f 432/96/67 430/94/65 431/93/72
