g VDT_gun_cal200_A_barrel_001
v -0.14761734 0.14764547 5.566522
v -0.2898601 -1.3110817E-06 0.102168575
v -0.20495194 0.20498525 0.102168575
v -0.20877637 -6.3464818E-06 5.566522
v -0.20495194 -0.20498788 0.102168575
v -0.14761734 -0.14765725 5.566522
v -0.1646348 -0.16467462 5.7692027
v -0.23284276 -6.3464818E-06 5.7692027
v -0.1646348 0.16466253 5.7692027
v -0.14761734 -0.14765725 5.566522
v 3.4547073E-05 -0.2898955 0.102168575
v -0.20495194 -0.20498788 0.102168575
v 3.3631546E-05 -0.20881616 5.566522
v 0.14768477 -0.1476571 5.566522
v 0.20502096 -0.20498788 0.102168575
v 0.16470228 -0.16467462 5.7692027
v 3.3631546E-05 -0.23288232 5.7692027
v -0.1646348 -0.16467462 5.7692027
v 0.31041798 0.31038365 -1.6750991
v 0.32512826 -3.5998999E-06 2.1084528
v 0.2299104 0.22987264 2.1084528
v 0.4389829 -1.1584938E-06 -1.6750995
v 0.2299104 -0.22987986 2.1084516
v 0.31041798 -0.31038377 -1.6750995
v 3.408931E-05 0.32509026 2.1084528
v 0.31041798 0.31038365 -1.6750991
v 0.2299104 0.22987264 2.1084528
v 3.4775956E-05 0.43894842 -1.6750995
v -0.31034857 0.31038365 -1.6750995
v -0.22984205 0.2298725 2.1084528
v -0.22984205 0.2298725 2.1084528
v -0.4389135 -1.1584938E-06 -1.6750995
v -0.31034857 0.31038365 -1.6750995
v -0.32505992 -3.5998999E-06 2.1084516
v -0.22984189 -0.22988 2.1084516
v -0.31034848 -0.31038377 -1.6751007
v 3.408931E-05 -0.32509804 2.1084516
v -0.31034848 -0.31038377 -1.6751007
v -0.22984189 -0.22988 2.1084516
v 3.4852248E-05 -0.4389485 -1.6751007
v 0.2299104 -0.22987986 2.1084516
v 0.31041798 -0.31038377 -1.6750995
v 0.2299104 0.22987264 2.1084528
v 3.4013014E-05 -3.7524878E-06 2.4632757
v 3.408931E-05 0.32509026 2.1084528
v -0.22984205 0.2298725 2.1084528
v -0.22984205 0.2298725 2.1084528
v 3.4013014E-05 -3.7524878E-06 2.4632757
v -0.32505992 -3.5998999E-06 2.1084516
v -0.22984189 -0.22988 2.1084516
v -0.22984189 -0.22988 2.1084516
v 3.4013014E-05 -3.7524878E-06 2.4632757
v 3.408931E-05 -0.32509804 2.1084516
v 0.2299104 -0.22987986 2.1084516
v 0.2299104 -0.22987986 2.1084516
v 3.4013014E-05 -3.7524878E-06 2.4632757
v 0.32512826 -3.5998999E-06 2.1084528
v 0.2299104 0.22987264 2.1084528
v 0.2329102 -6.4990695E-06 5.7692027
v 0.14768477 -0.1476571 5.566522
v 0.16470228 -0.16467462 5.7692027
v 0.20884381 -6.193894E-06 5.566522
v 0.20502096 -0.20498788 0.102168575
v 0.16470228 0.16466238 5.7692027
v 0.2899291 -1.3110817E-06 0.102168575
v 0.14768477 0.14764564 5.566522
v 0.20502096 0.20498525 0.10216888
v 0.20502096 0.20498525 0.10216888
v 3.3631546E-05 0.20880361 5.566522
v 3.4547073E-05 0.28989294 0.102168575
v 0.14768477 0.14764564 5.566522
v -0.20495194 0.20498525 0.102168575
v 0.16470228 0.16466238 5.7692027
v -0.14761734 0.14764547 5.566522
v 3.3631546E-05 0.23286992 5.7692027
v -0.1646348 0.16466253 5.7692027
v 0.2329102 -6.4990695E-06 5.7692027
v 0.10565009 0.105610415 5.810343
v 0.16470228 0.16466238 5.7692027
v 0.1493978 -6.4990695E-06 5.810343
v 3.3707838E-05 0.14935797 5.810343
v 0.16470228 -0.16467462 5.7692027
v 3.3631546E-05 0.23286992 5.7692027
v 0.10565009 -0.10562264 5.810343
v -0.10558266 0.105610415 5.810343
v 3.3631546E-05 -0.23288232 5.7692027
v -0.1646348 0.16466253 5.7692027
v 3.3707838E-05 -0.14937097 5.810343
v -0.14933038 -6.3464818E-06 5.810343
v -0.1646348 -0.16467462 5.7692027
v -0.23284276 -6.3464818E-06 5.7692027
v -0.10558259 -0.10562249 5.810343
v 0.1493978 -6.4990695E-06 5.810343
v 3.393672E-05 -5.2783666E-06 4.904584
v 0.10565009 0.105610415 5.810343
v 0.10565009 -0.10562264 5.810343
v 0.10565009 0.105610415 5.810343
v 3.393672E-05 -5.2783666E-06 4.904584
v 3.3707838E-05 0.14935797 5.810343
v -0.10558266 0.105610415 5.810343
v -0.10558266 0.105610415 5.810343
v 3.393672E-05 -5.2783666E-06 4.904584
v -0.14933038 -6.3464818E-06 5.810343
v -0.10558259 -0.10562249 5.810343
v -0.10558259 -0.10562249 5.810343
v 3.393672E-05 -5.2783666E-06 4.904584
v 3.3707838E-05 -0.14937097 5.810343
v 0.10565009 -0.10562264 5.810343
vt -2.8034992 0.5255125
vt -2.8866482 0.52327234
vt -2.8866482 0.5263825
vt -2.8034992 0.5232722
vt -2.8866482 0.5201621
vt -2.8034992 0.521032
vt -2.800415 0.52077377
vt -2.800415 0.5232722
vt -2.800415 0.52577066
vt 0.49014974 3.8034992
vt 0.4879195 3.8866482
vt 0.49101567 3.8866482
vt 0.48791957 3.8034992
vt 0.4856894 3.8034992
vt 0.4848233 3.8866482
vt 0.4854324 3.800415
vt 0.48791957 3.800415
vt 0.4904068 3.800415
vt 3.9136922 0.52798164
vt 3.8561194 0.5232723
vt 3.8561194 0.5267601
vt 3.9136922 0.52327234
vt 3.8561194 0.51978445
vt 3.9136922 0.51856303
vt 0.5120805 3.8561194
vt 0.5167687 3.9136922
vt 0.5155526 3.8561194
vt 0.51208055 3.9136922
vt 0.5073924 3.9136922
vt 0.50860834 3.8561194
vt -2.8561194 0.5267601
vt -2.9136922 0.52327234
vt -2.9136922 0.52798164
vt -2.8561194 0.5232723
vt -2.8561194 0.51978445
vt -2.9136922 0.51856303
vt 0.4879195 3.8561194
vt 0.4926076 3.9136922
vt 0.49139166 3.8561194
vt 0.48791945 3.9136922
vt 0.48444742 3.8561194
vt 0.4832313 3.9136922
vt 0.5155526 3.8561194
vt 0.5120805 3.8507202
vt 0.5120805 3.8561194
vt 0.50860834 3.8561194
vt -2.8561194 0.5267601
vt -2.8507202 0.5232723
vt -2.8561194 0.5232723
vt -2.8561194 0.51978445
vt 0.49139166 3.8561194
vt 0.4879195 3.8507202
vt 0.4879195 3.8561194
vt 0.48444742 3.8561194
vt 3.8561194 0.51978445
vt 3.8507202 0.5232723
vt 3.8561194 0.5232723
vt 3.8561194 0.5267601
vt 3.800415 0.5232722
vt 3.8034992 0.521032
vt 3.800415 0.52077377
vt 3.8034992 0.5232722
vt 3.8866482 0.5201621
vt 3.800415 0.52577066
vt 3.8866482 0.52327234
vt 3.8034992 0.5255125
vt 3.8866482 0.5263825
vt 0.5151767 3.8866482
vt 0.51208043 3.8034992
vt 0.5120805 3.8866482
vt 0.5143106 3.8034992
vt 0.5089843 3.8866482
vt 0.5145676 3.800415
vt 0.50985026 3.8034992
vt 0.51208043 3.800415
vt 0.5095932 3.800415
vt 0.5155978 0.5232722
vt 0.5136757 0.5248747
vt 0.5145676 0.52577066
vt 0.51433647 0.5232722
vt 0.51208043 0.5255385
vt 0.5145676 0.52077377
vt 0.51208043 0.5268056
vt 0.5136757 0.52166975
vt 0.5104852 0.5248747
vt 0.51208043 0.5197389
vt 0.5095932 0.52577066
vt 0.51208043 0.521006
vt 0.5098244 0.5232722
vt 0.5095932 0.52077377
vt 0.508563 0.5232722
vt 0.5104852 0.52166975
vt -2.799789 0.5232722
vt -2.8135717 0.5232723
vt -2.799789 0.5248747
vt -2.799789 0.52166975
vt 0.4863243 3.799789
vt 0.48791957 3.8135717
vt 0.48791957 3.799789
vt 0.48951483 3.799789
vt 3.799789 0.5248747
vt 3.8135717 0.5232723
vt 3.799789 0.5232722
vt 3.799789 0.52166975
vt 0.5104852 3.799789
vt 0.51208043 3.8135717
vt 0.51208043 3.799789
vt 0.5136757 3.799789
vn -0.70613 0.70613277 -0.052506316
vn -0.99988997 0 0.014837007
vn -0.7070283 0.7070296 0.014837689
vn -0.9986206 -1.2601411E-06 -0.05250726
vn -0.70702815 -0.70702976 0.01483645
vn -0.7061309 -0.70613176 -0.052507255
vn -0.70217365 -0.70217454 -0.11791161
vn -0.993024 -9.0824574E-07 -0.117911726
vn -0.7021733 0.70217496 -0.11791098
vn -0.7061309 -0.70613176 -0.052507255
vn -0 -0.99988997 0.01483629
vn -0.70702815 -0.70702976 0.01483645
vn -0 -0.9986206 -0.052507326
vn 0.7061311 -0.7061316 -0.052507646
vn 0.70702827 -0.7070297 0.014836673
vn 0.7021734 -0.7021747 -0.117911875
vn -2.957077E-07 -0.9930241 -0.11791107
vn -0.70217365 -0.70217454 -0.11791161
vn 0.70678735 0.70678633 0.030079056
vn 0.99954754 2.8539347E-07 0.03007847
vn 0.7067866 0.70678705 0.030079098
vn 0.99954754 -1.0756818E-06 0.030078368
vn 0.70678747 -0.7067863 0.030077733
vn 0.7067862 -0.7067875 0.030077782
vn -5.7970453E-07 0.9995474 0.030079307
vn 0.70678735 0.70678633 0.030079056
vn 0.7067866 0.70678705 0.030079098
vn -0 0.9995474 0.030079316
vn -0.7067873 0.70678645 0.03007891
vn -0.70678645 0.7067873 0.030078834
vn -0.70678645 0.7067873 0.030078834
vn -0.99954754 -1.5443493E-06 0.030078154
vn -0.7067873 0.70678645 0.03007891
vn -0.99954754 3.873185E-07 0.03007811
vn -0.706787 -0.70678675 0.030077584
vn -0.706786 -0.70678777 0.030077497
vn -0 -0.99954754 0.030077359
vn -0.706786 -0.70678777 0.030077497
vn -0.706787 -0.70678675 0.030077584
vn -5.22973E-07 -0.99954754 0.030077338
vn 0.70678747 -0.7067863 0.030077733
vn 0.7067862 -0.7067875 0.030077782
vn 0.5213636 0.52136403 0.6755439
vn -6.6151506E-07 -9.536841E-07 1
vn -2.4989765E-07 0.7373202 0.6755435
vn -0.5213654 0.5213627 0.6755434
vn -0.5213654 0.5213627 0.6755434
vn -6.6151506E-07 -9.536841E-07 1
vn -0.7373214 -2.0586833E-06 0.6755421
vn -0.52136505 -0.5213649 0.67554206
vn -0.52136505 -0.5213649 0.67554206
vn -6.6151506E-07 -9.536841E-07 1
vn -0 -0.737321 0.67554253
vn 0.5213636 -0.521366 0.6755423
vn 0.5213636 -0.521366 0.6755423
vn -6.6151506E-07 -9.536841E-07 1
vn 0.73731995 -2.0229797E-06 0.6755437
vn 0.5213636 0.52136403 0.6755439
vn 0.993024 -9.927337E-07 -0.11791196
vn 0.7061311 -0.7061316 -0.052507646
vn 0.7021734 -0.7021747 -0.117911875
vn 0.9986206 -8.704589E-07 -0.05250705
vn 0.70702827 -0.7070297 0.014836673
vn 0.7021736 0.70217466 -0.117910795
vn 0.99988997 0 0.01483732
vn 0.7061295 0.70613325 -0.052505594
vn 0.7070287 0.7070292 0.014837921
vn 0.7070287 0.7070292 0.014837921
vn -5.617491E-07 0.9986206 -0.052505843
vn -0 0.99988997 0.014838061
vn 0.7061295 0.70613325 -0.052505594
vn -0.7070283 0.7070296 0.014837689
vn 0.7021736 0.70217466 -0.117910795
vn -0.70613 0.70613277 -0.052506316
vn 1.478538E-07 0.993024 -0.11791172
vn -0.7021733 0.70217496 -0.11791098
vn 0.44191182 -4.220468E-07 0.8970584
vn 0.31247887 0.31247938 0.89705825
vn 0.3124793 0.31247935 0.8970582
vn 0.44191176 -8.1412514E-07 0.89705855
vn -0 0.44191357 0.8970577
vn 0.312479 -0.31247938 0.89705825
vn -1.3654429E-07 0.44191357 0.8970577
vn 0.31247944 -0.31248003 0.8970579
vn -0.31247893 0.3124793 0.89705825
vn 4.0963315E-07 -0.44191542 0.8970567
vn -0.3124788 0.31247914 0.89705837
vn 1.316791E-06 -0.4419153 0.8970568
vn -0.44191185 -5.6771904E-07 0.8970584
vn -0.3124797 -0.31247917 0.89705807
vn -0.44191173 -2.730891E-07 0.89705855
vn -0.31247994 -0.31247783 0.8970584
vn -0.98667437 1.5366712E-06 0.16270718
vn -6.698995E-06 4.242697E-06 1
vn -0.69768447 -0.69768393 0.16270675
vn -0.69768524 0.69768286 0.16270803
vn -0.69768447 -0.69768393 0.16270675
vn -6.698995E-06 4.242697E-06 1
vn -0 -0.9866745 0.16270654
vn 0.6976843 -0.697684 0.16270714
vn 0.6976843 -0.697684 0.16270714
vn -6.698995E-06 4.242697E-06 1
vn 0.98667437 1.5793572E-06 0.1627077
vn 0.6976856 0.6976824 0.16270821
vn 0.6976856 0.6976824 0.16270821
vn -6.698995E-06 4.242697E-06 1
vn 7.683384E-07 0.9866741 0.16270915
vn -0.69768524 0.69768286 0.16270803
g VDT_gun_cal200_A_barrel_001_0
f 3/3/3 2/2/2 1/1/1
f 4/4/4 1/1/1 2/2/2
f 2/2/2 5/5/5 4/4/4
f 6/6/6 4/4/4 5/5/5
f 6/6/6 7/7/7 4/4/4
f 8/8/8 4/4/4 7/7/7
f 4/4/4 8/8/8 1/1/1
f 9/9/9 1/1/1 8/8/8
f 12/12/12 11/11/11 10/10/10
f 13/13/13 10/10/10 11/11/11
f 13/13/13 11/11/11 14/14/14
f 15/15/15 14/14/14 11/11/11
f 14/14/14 16/16/16 13/13/13
f 17/17/17 13/13/13 16/16/16
f 13/13/13 17/17/17 10/10/10
f 18/18/18 10/10/10 17/17/17
f 21/21/21 20/20/20 19/19/19
f 22/22/22 19/19/19 20/20/20
f 20/20/20 23/23/23 22/22/22
f 24/24/24 22/22/22 23/23/23
f 27/27/27 26/26/26 25/25/25
f 28/28/28 25/25/25 26/26/26
f 28/28/28 29/29/29 25/25/25
f 30/30/30 25/25/25 29/29/29
f 33/33/33 32/32/32 31/31/31
f 34/34/34 31/31/31 32/32/32
f 34/34/34 32/32/32 35/35/35
f 36/36/36 35/35/35 32/32/32
f 39/39/39 38/38/38 37/37/37
f 40/40/40 37/37/37 38/38/38
f 37/37/37 40/40/40 41/41/41
f 42/42/42 41/41/41 40/40/40
f 45/45/45 44/44/44 43/43/43
f 46/46/46 44/44/44 45/45/45
f 49/49/49 48/48/48 47/47/47
f 50/50/50 48/48/48 49/49/49
f 53/53/53 52/52/52 51/51/51
f 54/54/54 52/52/52 53/53/53
f 57/57/57 56/56/56 55/55/55
f 58/58/58 56/56/56 57/57/57
f 61/61/61 60/60/60 59/59/59
f 62/62/62 59/59/59 60/60/60
f 60/60/60 63/63/63 62/62/62
f 59/59/59 62/62/62 64/64/64
f 65/65/65 62/62/62 63/63/63
f 66/66/66 64/64/64 62/62/62
f 65/65/65 67/67/67 62/62/62
f 66/66/66 62/62/62 67/67/67
f 70/70/70 69/69/69 68/68/68
f 71/71/71 68/68/68 69/69/69
f 70/70/70 72/72/72 69/69/69
f 71/71/71 69/69/69 73/73/73
f 74/74/74 69/69/69 72/72/72
f 75/75/75 73/73/73 69/69/69
f 74/74/74 76/76/76 69/69/69
f 75/75/75 69/69/69 76/76/76
g VDT_gun_cal200_A_barrel_001_1
f 79/79/79 78/78/78 77/77/77
f 80/80/80 77/77/77 78/78/78
f 78/78/78 79/79/79 81/81/81
f 77/77/77 80/80/80 82/82/82
f 83/83/83 81/81/81 79/79/79
f 84/84/84 82/82/82 80/80/80
f 81/81/81 83/83/83 85/85/85
f 82/82/82 84/84/84 86/86/86
f 87/87/87 85/85/85 83/83/83
f 88/88/88 86/86/86 84/84/84
f 85/85/85 87/87/87 89/89/89
f 86/86/86 88/88/88 90/90/90
f 91/91/91 89/89/89 87/87/87
f 92/92/92 90/90/90 88/88/88
f 89/89/89 91/91/91 92/92/92
f 90/90/90 92/92/92 91/91/91
g VDT_gun_cal200_A_barrel_001_2
f 95/95/95 94/94/94 93/93/93
f 93/93/93 94/94/94 96/96/96
f 99/99/99 98/98/98 97/97/97
f 100/100/100 98/98/98 99/99/99
f 103/103/103 102/102/102 101/101/101
f 104/104/104 102/102/102 103/103/103
f 107/107/107 106/106/106 105/105/105
f 108/108/108 106/106/106 107/107/107
